<?xml version="1.0" encoding="UTF-8"?>
<svg width="10px" height="125px" viewBox="0 0 10 125" version="1.1" xmlns="http://www.w3.org/2000/svg" xmlns:xlink="http://www.w3.org/1999/xlink">
    <!-- Generator: Sketch 60 (88103) - https://sketch.com -->
    <title>Group 6</title>
    <desc>Created with Sketch.</desc>
    <g id="Page-1" stroke="none" stroke-width="1" fill="none" fill-rule="evenodd">
        <g id="Home-Refresh" transform="translate(-1351.000000, -2943.000000)">
            <g id="As-Seen" transform="translate(-248.000000, 2174.000000)">
                <g id="Pattern" transform="translate(804.000000, 447.000000) scale(-1, -1) rotate(-90.000000) translate(-804.000000, -447.000000) translate(357.000000, -357.000000)">
                    <g id="Group-6" transform="translate(770.000000, 0.000000)">
                        <path d="M124,4.00339847 C124,6.20560748 122.210884,8 120,8 C117.795918,8 116,6.20560748 116,4.00339847 C116,1.79439252 117.795918,0 120,0 C122.210884,0 124,1.79439252 124,4.00339847" id="Fill-30-Copy" fill="#A29EC0" transform="translate(120.000000, 4.000000) scale(1, -1) translate(-120.000000, -4.000000) "></path>
                        <path d="M86,4.00339847 C86,6.20560748 84.2108844,8 82,8 C79.7891156,8 78,6.20560748 78,4.00339847 C78,1.79439252 79.7891156,0 82,0 C84.2108844,0 86,1.79439252 86,4.00339847 Z" id="Stroke-32-Copy" stroke="#8C61E1" stroke-width="0.421" stroke-linecap="round" stroke-linejoin="round" transform="translate(82.000000, 4.000000) scale(1, -1) translate(-82.000000, -4.000000) "></path>
                        <path d="M47,4.00339847 C47,6.20560748 45.2040816,8 43,8 C40.7891156,8 39,6.20560748 39,4.00339847 C39,1.79439252 40.7891156,0 43,0 C45.2040816,0 47,1.79439252 47,4.00339847 Z" id="Stroke-34-Copy" stroke="#8C61E1" stroke-width="0.421" stroke-linecap="round" stroke-linejoin="round" transform="translate(43.000000, 4.000000) scale(1, -1) translate(-43.000000, -4.000000) "></path>
                        <path d="M8,4.00339847 C8,6.20560748 6.20560748,8 4.00339847,8 C1.79439252,8 0,6.20560748 0,4.00339847 C0,1.79439252 1.79439252,0 4.00339847,0 C6.20560748,0 8,1.79439252 8,4.00339847 Z" id="Stroke-36-Copy" stroke="#8C61E1" stroke-width="0.421" stroke-linecap="round" stroke-linejoin="round" transform="translate(4.000000, 4.000000) scale(1, -1) translate(-4.000000, -4.000000) "></path>
                    </g>
                </g>
            </g>
        </g>
    </g>
</svg>