<?xml version="1.0" encoding="UTF-8"?>
<svg width="212px" height="183px" viewBox="0 0 212 183" version="1.1" xmlns="http://www.w3.org/2000/svg" xmlns:xlink="http://www.w3.org/1999/xlink">
    <!-- Generator: Sketch 60 (88103) - https://sketch.com -->
    <title>Satellite 02</title>
    <desc>Created with Sketch.</desc>
    <defs>
        <linearGradient x1="49.9268649%" y1="45.8292742%" x2="50.0487567%" y2="53.4720401%" id="linearGradient-1">
            <stop stop-color="#5E5544" offset="27%"></stop>
            <stop stop-color="#383837" offset="100%"></stop>
        </linearGradient>
    </defs>
    <g id="Page-1" stroke="none" stroke-width="1" fill="none" fill-rule="evenodd">
        <g id="Home-Refresh" transform="translate(-411.000000, -354.000000)">
            <g id="Hero-section">
                <g id="Group-4" transform="translate(54.000000, 120.000000)">
                    <g id="Satellite-02" transform="translate(357.000000, 234.000000)">
                        <g id="Layer_14" opacity="0.7" fill-rule="nonzero">
                            <g id="Illustration">
                                <polygon id="Path" fill="#A38CC2" points="166.908416 82.0899474 166.705693 82.0899474 166.705693 39.9903158 145.226733 39.9903158 145.226733 68.0952632 133.681188 68.0952632 133.681188 43.6503158 121.797772 43.6503158 121.797772 5.856 122.000495 5.856 122.000495 43.4480526 133.883911 43.4480526 133.883911 67.893 145.02401 67.893 145.02401 39.7880526 166.908416 39.7880526"></polygon>
                                <path d="M145.139851,46.0004287 C142.663548,46.004318 140.428904,44.5190096 139.478556,42.2375077 C138.528208,39.9560058 139.049449,37.327947 140.79908,35.5795252 C142.548711,33.8311033 145.181916,33.3068961 147.470099,34.251487 C149.758283,35.1960778 151.250495,37.4233074 151.250495,39.894 C151.245198,43.2605346 148.514024,45.9898219 145.139851,46.0004287 Z M145.139851,34.1920971 C142.827535,34.1882082 140.740732,35.5749567 139.853139,37.7052973 C138.965547,39.8356379 139.452099,42.2897026 141.085773,43.9224307 C142.719447,45.5551589 145.178262,46.0447567 147.314941,45.162779 C149.451621,44.2808014 150.84505,42.2010769 150.84505,39.894 C150.839755,36.750878 148.290102,34.2027016 145.139851,34.1920971 L145.139851,34.1920971 Z" id="Shape" fill="#A38CC2"></path>
                                <path d="M177.980941,102.123639 C175.504637,102.127529 173.269993,100.64222 172.319645,98.3607182 C171.369297,96.0792163 171.890538,93.4511575 173.640169,91.7027357 C175.3898,89.9543139 178.023005,89.4301067 180.311188,90.3746975 C182.599372,91.3192883 184.091584,93.5465179 184.091584,96.0172105 C184.091584,99.385936 181.357317,102.118318 177.980941,102.123639 L177.980941,102.123639 Z M177.980941,90.3249392 C175.667747,90.3210521 173.580334,91.7088444 172.693308,93.8403687 C171.806283,95.9718929 172.294608,98.4267134 173.930285,100.058682 C175.565962,101.690651 178.026361,102.177869 180.162729,101.292855 C182.299097,100.40784 183.690043,98.32516 183.686147,96.0172105 C183.680824,92.8756593 181.129631,90.3302496 177.980941,90.3249392 L177.980941,90.3249392 Z" id="Shape" fill="#A38CC2"></path>
                                <g id="Group" opacity="0.3" transform="translate(139.009901, 124.247368)" fill="#A38CC2">
                                    <path d="M3.75519802,8.03273684 C1.74523696,8.03273684 0.115841584,6.40703564 0.115841584,4.40163158 C0.115841584,2.39622752 1.74523696,0.770526316 3.75519802,0.770526316 C5.76515908,0.770526316 7.39455446,2.39622752 7.39455446,4.40163158 C7.39455446,5.36466057 7.01112336,6.2882464 6.32861163,6.96921073 C5.64609991,7.65017506 4.72041536,8.03273684 3.75519802,8.03273684 L3.75519802,8.03273684 Z M3.75519802,1.58919403 C2.60944302,1.58531558 1.57451418,2.27145491 1.13424749,3.32685391 C0.693980808,4.3822529 0.935358115,5.59840034 1.74553395,6.40673933 C2.55570978,7.21507832 3.77462073,7.45590838 4.83241797,7.01663987 C5.89021521,6.57737136 6.5779137,5.54478891 6.57402643,4.40163158 C6.57402643,2.84837432 5.31198483,1.58919403 3.75519802,1.58919403 L3.75519802,1.58919403 Z" id="Shape"></path>
                                </g>
                                <path d="M155.662129,134.871 C155.635686,134.874138 155.609262,134.865004 155.590433,134.846218 C155.571604,134.827431 155.562449,134.801067 155.565594,134.774684 L155.565594,128.899421 L142.765099,128.899421 C142.738657,128.902559 142.712232,128.893425 142.693403,128.874639 C142.674574,128.855852 142.665419,128.829488 142.668564,128.803105 L142.668564,118.420263 C142.668564,118.367069 142.711784,118.323947 142.765099,118.323947 L156.183416,118.323947 L156.183416,111.023211 C156.187905,110.971987 156.22861,110.931374 156.27995,110.926894 L193.426485,110.926894 C193.481559,110.926894 193.527667,110.968488 193.532673,111.023211 C193.532673,111.081724 193.485131,111.129158 193.426485,111.129158 L156.395792,111.129158 L156.395792,118.420263 C156.395792,118.478776 156.34825,118.526211 156.289604,118.526211 L142.871287,118.526211 L142.871287,128.697158 L155.662129,128.697158 C155.690292,128.697158 155.717301,128.70832 155.737215,128.728189 C155.757129,128.748058 155.768317,128.775006 155.768317,128.803105 L155.768317,134.755421 C155.774786,134.785862 155.766118,134.817545 155.745043,134.840484 C155.723968,134.863422 155.693085,134.874789 155.662129,134.871 L155.662129,134.871 Z" id="Path" fill="#A38CC2"></path>
                                <path d="M155.662129,162.860368 C155.608814,162.860368 155.565594,162.817246 155.565594,162.764053 L155.565594,132.318632 C155.562449,132.292249 155.571604,132.265885 155.590433,132.247098 C155.609262,132.228312 155.635686,132.219178 155.662129,132.222316 C155.689358,132.219585 155.71647,132.228514 155.73672,132.246881 C155.756969,132.265248 155.768454,132.291327 155.768317,132.318632 L155.768317,162.802579 C155.74845,162.842039 155.706137,162.865067 155.662129,162.860368 Z" id="Path" fill="#A38CC2"></path>
                                <g id="Group" opacity="0.5" transform="translate(149.628713, 104.021053)" fill="#A38CC2">
                                    <path d="M6.66089109,13.0604211 C3.28074438,13.0604211 0.540594059,10.3264832 0.540594059,6.954 C0.540594059,3.58151678 3.28074438,0.847578947 6.66089109,0.847578947 C10.0410378,0.847578947 12.7811881,3.58151678 12.7811881,6.954 C12.7758727,10.3242841 10.0388336,13.0551177 6.66089109,13.0604211 Z M6.66089109,1.25210526 C4.34944943,1.25210526 2.2656072,2.64132732 1.38105677,4.77197935 C0.496506342,6.90263139 0.985444778,9.35511797 2.61988085,10.9858484 C4.25431692,12.6165789 6.71237643,13.1044088 8.84787007,12.2218638 C10.9833637,11.3393189 12.3757426,9.26020114 12.3757426,6.954 C12.3757426,3.80493049 9.81711641,1.25210526 6.66089109,1.25210526 L6.66089109,1.25210526 Z" id="Shape"></path>
                                </g>
                                <path d="M155.913119,170.873848 C152.557432,170.877737 149.530177,168.863387 148.244207,165.770909 C146.958237,162.678431 147.66708,159.117506 150.03991,156.750055 C152.412741,154.382604 155.981758,153.675369 159.081263,154.958423 C162.180768,156.241477 164.199696,159.261869 164.195798,162.609947 C164.190472,167.17177 160.485308,170.868535 155.913119,170.873848 L155.913119,170.873848 Z M155.913119,154.740941 C152.722298,154.737051 149.843493,156.651798 148.619712,159.591932 C147.39593,162.532065 148.068313,165.918241 150.323184,168.170756 C152.578055,170.423272 155.971099,171.098278 158.91941,169.880872 C161.867721,168.663467 163.790347,165.793537 163.790347,162.609947 C163.790347,158.267777 160.265153,154.746262 155.913119,154.740941 L155.913119,154.740941 Z" id="Shape" fill="#A38CC2"></path>
                                <ellipse id="Oval" fill="#A38CC2" cx="142.765099" cy="128.649" rx="1" ry="1"></ellipse>
                                <path d="M142.765099,129.554368 C142.397226,129.558273 142.063395,129.34018 141.919896,129.002195 C141.776397,128.66421 141.851631,128.273226 142.110377,128.012292 C142.369122,127.751357 142.760167,127.672116 143.100436,127.811667 C143.440704,127.951217 143.66285,128.281941 143.662871,128.649 C143.662899,129.145284 143.262482,129.549089 142.765099,129.554368 Z M142.765099,127.830316 C142.311925,127.830316 141.944554,128.196853 141.944554,128.649 C141.944554,129.101147 142.311925,129.467684 142.765099,129.467684 C143.218273,129.467684 143.585644,129.101147 143.585644,128.649 C143.580429,128.199026 143.216096,127.835518 142.765099,127.830316 Z" id="Shape" fill="#A38CC2"></path>
                                <ellipse id="Oval" fill="#A38CC2" cx="156.289604" cy="96.0172105" rx="1" ry="1"></ellipse>
                                <path d="M156.289604,96.9225789 C155.788447,96.9225789 155.382178,96.5172317 155.382178,96.0172105 C155.382178,95.5171894 155.788447,95.1118421 156.289604,95.1118421 C156.790761,95.1118421 157.19703,95.5171894 157.19703,96.0172105 C157.19703,96.5172317 156.790761,96.9225789 156.289604,96.9225789 Z M156.289604,95.1985263 C155.957725,95.1985263 155.658524,95.3979923 155.53152,95.7039136 C155.404515,96.009835 155.474717,96.3619656 155.709391,96.5961077 C155.944065,96.8302497 156.296996,96.9002929 156.603613,96.7735761 C156.910229,96.6468594 157.110149,96.3483374 157.110149,96.0172105 C157.104934,95.5672363 156.740601,95.2037288 156.289604,95.1985263 L156.289604,95.1985263 Z" id="Shape" fill="#A38CC2"></path>
                                <ellipse id="Oval" fill="#A38CC2" cx="156.608168" cy="82.0899474" rx="1" ry="1"></ellipse>
                                <path d="M156.608168,82.9953158 C156.107011,82.9953158 155.700743,82.5899685 155.700743,82.0899474 C155.700743,81.5899262 156.107011,81.1845789 156.608168,81.1845789 C157.109326,81.1845789 157.515594,81.5899262 157.515594,82.0899474 C157.515594,82.5899685 157.109326,82.9953158 156.608168,82.9953158 Z M156.608168,81.2712632 C156.154994,81.2712632 155.787624,81.6378006 155.787624,82.0899474 C155.787624,82.5420942 156.154994,82.9086316 156.608168,82.9086316 C157.061343,82.9086316 157.428713,82.5420942 157.428713,82.0899474 C157.428713,81.6378006 157.061343,81.2712632 156.608168,81.2712632 L156.608168,81.2712632 Z" id="Shape" fill="#A38CC2"></path>
                                <ellipse id="Oval" stroke="#A38CC2" fill="#A38CC2" cx="193.358911" cy="124.093263" rx="1.13910891" ry="1.13652632"></ellipse>
                                <ellipse id="Oval" fill="#A38CC2" cx="193.358911" cy="111.379579" rx="1.13910891" ry="1.13652632"></ellipse>
                                <path d="M193.368564,112.554632 L193.368564,112.554632 C192.886581,112.558526 192.45006,112.271324 192.263806,111.827773 C192.077551,111.384222 192.178523,110.87234 192.519348,110.532288 C192.860173,110.192236 193.373218,110.091493 193.817777,110.277325 C194.262336,110.463157 194.55019,110.898688 194.546287,111.379579 C194.547074,111.691132 194.421763,111.989808 194.198762,112.207895 C193.981464,112.432272 193.681268,112.557651 193.368564,112.554632 Z M193.368564,110.281579 C192.760778,110.281579 192.268069,110.77317 192.268069,111.379579 C192.268069,111.985988 192.760778,112.477579 193.368564,112.477579 L193.368564,112.477579 C193.972026,112.467285 194.458742,111.981672 194.469059,111.379579 C194.469059,110.77317 193.976351,110.281579 193.368564,110.281579 L193.368564,110.281579 Z" id="Shape" fill="#A38CC2"></path>
                                <ellipse id="Oval" fill="#A38CC2" cx="156.289604" cy="111.138789" rx="1.13910891" ry="1.13652632"></ellipse>
                                <path d="M156.289604,112.313842 C155.80848,112.313826 155.374921,112.024134 155.191718,111.580264 C155.008515,111.136394 155.111884,110.626094 155.453475,110.288047 C155.795067,109.950001 156.307354,109.851036 156.750722,110.037441 C157.19409,110.223846 157.480892,110.658772 157.47698,111.138789 C157.476991,111.452109 157.351585,111.752457 157.128627,111.973101 C156.905669,112.193745 156.603625,112.31641 156.289604,112.313842 Z M156.289604,110.040789 C155.681817,110.040789 155.189109,110.532381 155.189109,111.138789 C155.189109,111.745198 155.681817,112.236789 156.289604,112.236789 C156.897391,112.236789 157.390099,111.745198 157.390099,111.138789 C157.384855,110.534561 156.895205,110.046021 156.289604,110.040789 Z" id="Shape" fill="#A38CC2"></path>
                                <g id="Group" opacity="0.3" transform="translate(115.841584, 0.000000)" fill="#A38CC2">
                                    <path d="M5.94653465,10.4984211 C3.81860272,10.4984211 1.90020067,9.21949197 1.08587637,7.25799643 C0.271552074,5.29650089 0.721672762,3.03872186 2.22634786,1.53745817 C3.73102296,0.036194476 5.99393248,-0.412905696 7.95988524,0.399572359 C9.925838,1.21205041 11.2076733,3.12610305 11.2076733,5.24921053 C11.2023605,8.14607096 8.84997779,10.4931203 5.94653465,10.4984211 Z M5.94653465,0.404526316 C3.28080381,0.404526316 1.11980198,2.5606287 1.11980198,5.22031579 C1.11980198,7.88000287 3.28080381,10.0361053 5.94653465,10.0361053 C8.6122655,10.0361053 10.7732673,7.88000287 10.7732673,5.22031579 C10.7732673,2.5606287 8.6122655,0.404526316 5.94653465,0.404526316 Z" id="Shape"></path>
                                </g>
                                <ellipse id="Oval" fill="#CCCBCD" cx="121.691584" cy="5.24921053" rx="1" ry="1"></ellipse>
                                <path d="M121.701238,6.15457895 C121.212393,6.12609589 120.82236,5.73694685 120.793812,5.24921053 C120.794049,5.00956593 120.891562,4.78023556 121.064109,4.61352632 C121.231539,4.44301429 121.462033,4.3489351 121.701238,4.35347368 C121.940229,4.35006889 122.170292,4.44397239 122.338366,4.61352632 C122.50059,4.78626432 122.593375,5.01255843 122.59901,5.24921053 C122.599183,5.48703661 122.505557,5.71538042 122.338366,5.88489474 C122.171278,6.05705052 121.941427,6.15434219 121.701238,6.15457895 Z M121.701238,4.43052632 C121.248063,4.43052632 120.880693,4.79706372 120.880693,5.24921053 C120.880693,5.70135733 121.248063,6.06789474 121.701238,6.06789474 C121.918444,6.06632212 122.126382,5.97987774 122.280446,5.82710526 C122.43611,5.6749314 122.523831,5.46664704 122.523831,5.24921053 C122.523831,5.03177401 122.43611,4.82348965 122.280446,4.67131579 L122.280446,4.67131579 C122.126382,4.51854331 121.918444,4.43209894 121.701238,4.43052632 L121.701238,4.43052632 Z" id="Shape" fill="#A38CC2"></path>
                                <ellipse id="Oval" fill="#A38CC2" cx="144.879208" cy="39.894" rx="1" ry="1"></ellipse>
                                <path d="M144.879208,40.7897368 C144.642018,40.7841152 144.41521,40.6915403 144.242079,40.5296842 C144.07214,40.361991 143.978023,40.1324491 143.981436,39.894 C143.976887,39.6553378 144.07118,39.4253664 144.242079,39.2583158 C144.409319,39.0864919 144.639152,38.9895339 144.879208,38.9895339 C145.119264,38.9895339 145.349096,39.0864919 145.516337,39.2583158 L145.516337,39.2583158 C145.687236,39.4253664 145.781529,39.6553378 145.77698,39.894 C145.780393,40.1324491 145.686276,40.361991 145.516337,40.5296842 C145.343206,40.6915403 145.116398,40.7841152 144.879208,40.7897368 L144.879208,40.7897368 Z M144.879208,39.0753133 C144.426034,39.0753133 144.058663,39.4418532 144.058663,39.894 C144.06024,40.1107141 144.14688,40.3181806 144.3,40.4718947 C144.45252,40.6272065 144.661277,40.7147285 144.879208,40.7147285 C145.097139,40.7147285 145.305896,40.6272065 145.458416,40.4718947 C145.611535,40.3181806 145.698176,40.1107141 145.699755,39.894 C145.700293,39.676861 145.613328,39.4686194 145.458416,39.3161053 L145.458416,39.3161053 C145.305555,39.1615443 145.09684,39.074777 144.879208,39.0753133 L144.879208,39.0753133 Z" id="Shape" fill="#A38CC2"></path>
                                <ellipse id="Oval" fill="#A38CC2" cx="167.130446" cy="82.0899474" rx="1.13910891" ry="1.13652632"></ellipse>
                                <path d="M167.130446,83.2746316 C166.474676,83.2746316 165.943069,82.7442304 165.943069,82.0899474 C165.943069,81.4356643 166.474676,80.9052632 167.130446,80.9052632 C167.786215,80.9052632 168.317822,81.4356643 168.317822,82.0899474 C168.317822,82.4041452 168.192724,82.7054742 167.970047,82.9276456 C167.747371,83.149817 167.445357,83.2746316 167.130446,83.2746316 Z M167.130446,80.9919474 C166.685337,80.9919474 166.284056,81.2594665 166.113721,81.669761 C165.943385,82.0800554 166.037539,82.5523248 166.352278,82.8663506 C166.667017,83.1803764 167.14036,83.2743166 167.551587,83.1043671 C167.962814,82.9344176 168.230941,82.5340469 168.230941,82.0899474 C168.230941,81.4835387 167.738232,80.9919474 167.130446,80.9919474 Z" id="Shape" fill="#A38CC2"></path>
                                <ellipse id="Oval" fill="#A38CC2" cx="177.971287" cy="95.9883158" rx="1.13910891" ry="1.13652632"></ellipse>
                                <path d="M177.980941,97.1633684 C177.498957,97.1672625 177.062437,96.8800606 176.876182,96.4365097 C176.689928,95.9929587 176.790899,95.4810771 177.131724,95.1410248 C177.472549,94.8009726 177.985594,94.7002298 178.430153,94.886062 C178.874712,95.0718943 179.162566,95.5074251 179.158663,95.9883158 C179.153414,96.6350976 178.629192,97.1581311 177.980941,97.1633684 L177.980941,97.1633684 Z M177.980941,94.8903158 C177.373154,94.8903158 176.880446,95.3819071 176.880446,95.9883158 C176.880446,96.5947244 177.373154,97.0863158 177.980941,97.0863158 C178.588727,97.0863158 179.081436,96.5947244 179.081436,95.9883158 C179.081436,95.3819071 178.588727,94.8903158 177.980941,94.8903158 Z" id="Shape" fill="#A38CC2"></path>
                                <path d="M128.680693,175.766685 C128.625619,175.766912 128.579511,175.725091 128.574505,175.670368 L128.574505,162.609947 C128.574505,162.551434 128.622047,162.504 128.680693,162.504 L183.32896,162.504 C183.383807,162.508995 183.425496,162.554998 183.425496,162.609947 C183.421006,162.661171 183.380301,162.701784 183.32896,162.706263 L128.786881,162.706263 L128.786881,175.670368 C128.781875,175.725091 128.735767,175.766912 128.680693,175.766685 Z" id="Path" fill="#A38CC2"></path>
                                <ellipse id="Oval" stroke="#A38CC2" fill="#A38CC2" cx="155.507673" cy="162.609947" rx="1" ry="1"></ellipse>
                                <g id="Group" opacity="0.3" transform="translate(179.554455, 158.921053)" fill="#A38CC2">
                                    <path d="M3.77450495,7.46448651 C2.30077303,7.46836878 0.970162613,6.58510922 0.40438495,5.2273871 C-0.161392713,3.86966498 0.14936115,2.30552886 1.19145064,1.26580201 C2.23354013,0.226075149 3.80123052,-0.0839741703 5.16203787,0.480520758 C6.52284522,1.04501569 7.40811187,2.37260934 7.40422078,3.843 C7.39890345,5.84088838 5.77693325,7.45918124 3.77450495,7.46448651 L3.77450495,7.46448651 Z M3.77450495,1.02094737 C2.62984529,1.00156411 1.58635409,1.67253382 1.13119675,2.72060686 C0.676039415,3.76867991 0.8989856,4.98714721 1.69595042,5.80715383 C2.49291523,6.62716044 3.7067151,6.88697832 4.77067413,6.46530861 C5.83463317,6.0436389 6.53890912,5.02364657 6.55470297,3.88152632 C6.57281583,3.12973964 6.28944354,2.4018329 5.76747352,1.85934685 C5.2455035,1.31686081 4.52811156,1.00466828 3.77450495,0.992052632 L3.77450495,1.02094737 Z" id="Shape"></path>
                                </g>
                                <ellipse id="Oval" fill="#A38CC2" cx="166.811881" cy="39.894" rx="1.13910891" ry="1.13652632"></ellipse>
                                <path d="M166.802228,41.0690526 C166.320244,41.0729467 165.883724,40.7857448 165.697469,40.3421939 C165.511215,39.8986429 165.612186,39.3867613 165.953011,39.046709 C166.293836,38.7066568 166.806881,38.605914 167.25144,38.7917462 C167.695999,38.9775785 167.983853,39.4131093 167.97995,39.894 C167.974701,40.5407818 167.450479,41.0638153 166.802228,41.0690526 L166.802228,41.0690526 Z M166.802228,38.796 C166.194441,38.796 165.701733,39.2875913 165.701733,39.894 C165.701733,40.5004087 166.194441,40.992 166.802228,40.992 C167.410014,40.992 167.902723,40.5004087 167.902723,39.894 C167.902723,39.2875913 167.410014,38.796 166.802228,38.796 Z" id="Shape" fill="#A38CC2"></path>
                                <path d="M183.32896,175.468123 C183.273886,175.468333 183.227779,175.426512 183.222772,175.371789 L183.222772,162.802579 C183.222772,162.77448 183.23396,162.747532 183.253874,162.727663 C183.273788,162.707794 183.300798,162.696632 183.32896,162.696632 C183.383807,162.701627 183.425723,162.74763 183.425495,162.802579 L183.425495,175.410316 C183.407041,175.446413 183.369567,175.468846 183.32896,175.468123 L183.32896,175.468123 Z" id="Path" fill="#A38CC2"></path>
                                <ellipse id="Oval" fill="#A38CC2" cx="183.319307" cy="162.609947" rx="1" ry="1"></ellipse>
                                <path d="M183.32896,163.505696 C183.090388,163.506907 182.86114,163.413336 182.691832,163.245632 C182.436069,162.986878 182.360165,162.600615 182.499062,162.264658 C182.637959,161.928702 182.964735,161.708168 183.32896,161.704579 C183.56615,161.710201 183.792959,161.802775 183.966089,161.964632 L183.966089,161.964632 C184.291934,162.32975 184.291934,162.880513 183.966089,163.245632 C183.792959,163.407488 183.56615,163.500063 183.32896,163.505696 Z M183.32896,161.791263 C183.11252,161.787083 182.903596,161.870464 182.749752,162.022421 C182.596045,162.179665 182.509522,162.390304 182.508416,162.609947 C182.508416,163.062094 182.875786,163.428632 183.32896,163.428632 C183.782135,163.428632 184.149505,163.062094 184.149505,162.609947 C184.148399,162.390304 184.061875,162.179665 183.908168,162.022421 L183.908168,162.022421 C183.745679,161.889726 183.538386,161.824232 183.32896,161.839421 L183.32896,161.791263 Z" id="Shape" fill="#A38CC2"></path>
                                <ellipse id="Oval" stroke="#A38CC2" fill="#A38CC2" cx="128.883416" cy="175.063579" rx="1" ry="1"></ellipse>
                                <g id="Group" opacity="0.5" transform="translate(121.633663, 168.552632)" fill="#A38CC2">
                                    <path d="M7.0470297,12.6077368 C3.66688299,12.6077368 0.926732673,9.87379901 0.926732673,6.50131579 C0.926732673,3.12883257 3.66688299,0.394894737 7.0470297,0.394894737 C10.4271764,0.394894737 13.1673267,3.12883257 13.1673267,6.50131579 C13.1620113,9.87159984 10.4249722,12.6024335 7.0470297,12.6077368 Z M7.0470297,0.809052632 C4.73471028,0.809052632 2.65025993,2.19932242 1.76627812,4.33115716 C0.882296301,6.4629919 1.37300667,8.91623236 3.00944496,10.5462025 C4.64588325,12.1761727 7.10552444,12.6616223 9.24070595,11.7760418 C11.3758875,10.8904613 12.7657871,8.80838942 12.7618894,6.50131579 C12.7565561,3.3560083 10.199489,0.809052632 7.0470297,0.809052632 Z" id="Shape"></path>
                                </g>
                                <path d="M128.680693,162.706264 C128.625619,162.706491 128.579511,162.66467 128.574505,162.609947 L128.574505,153.113211 C128.574505,153.054697 128.622047,153.007263 128.680693,153.007263 C128.739339,153.007263 128.786881,153.054697 128.786881,153.113211 L128.786881,162.609947 C128.781875,162.66467 128.735767,162.706491 128.680693,162.706264 L128.680693,162.706264 Z" id="Path" fill="#A38CC2"></path>
                                <ellipse id="Oval" stroke="#A38CC2" fill="#A38CC2" cx="128.680693" cy="152.256" rx="1" ry="1"></ellipse>
                                <path d="M118.206683,58.194 C118.206683,58.194 116.691089,57.4523684 117.405446,57.0285789 C117.824123,56.7896759 118.338253,56.7896759 118.756931,57.0285789 L118.341832,57.8665263 L118.341832,57.8665263 L118.206683,58.194 Z" id="Path" stroke="#A38CC2" fill="#E4E3E9"></path>
                                <ellipse id="Oval" fill="#A38CC2" cx="144.927475" cy="67.9507895" rx="1" ry="1"></ellipse>
                                <path d="M144.927475,68.8561579 C144.68683,68.8581826 144.456122,68.7605286 144.290347,68.5864737 C143.93847,68.235395 143.93847,67.666184 144.290347,67.3151053 C144.642223,66.9640266 145.212727,66.9640266 145.564604,67.3151053 L145.564604,67.3151053 C145.736818,67.4819663 145.833997,67.7112774 145.833997,67.9507895 C145.833997,68.1903016 145.736818,68.4196127 145.564604,68.5864737 C145.398828,68.7605286 145.168121,68.8581826 144.927475,68.8561579 L144.927475,68.8561579 Z M144.927475,67.1321053 C144.710884,67.1366391 144.504005,67.2226434 144.348267,67.3728947 C144.077038,67.6471406 144.037269,68.0741718 144.253211,68.3935823 C144.469153,68.7129928 144.880891,68.8361589 145.237344,68.6879732 C145.593798,68.5397876 145.796066,68.1613658 145.720804,67.7834716 C145.645542,67.4055773 145.313632,67.1330613 144.927475,67.1321053 L144.927475,67.1321053 Z" id="Shape" fill="#A38CC2"></path>
                                <path d="M114.055693,112.939895 C114.002378,112.939895 113.959158,112.896773 113.959158,112.843579 L113.959158,82.2055263 C113.95893,82.1505771 114.000847,82.1045739 114.055693,82.0995789 C114.114339,82.0995789 114.161881,82.1470132 114.161881,82.2055263 L114.161881,112.843579 C114.162018,112.870883 114.150534,112.896963 114.130284,112.91533 C114.110034,112.933697 114.082923,112.942626 114.055693,112.939895 L114.055693,112.939895 Z" id="Path" fill="#A38CC2"></path>
                                <g id="Group" opacity="0.4" transform="translate(110.049505, 107.873684)" fill="#A38CC2">
                                    <path d="M4.00618812,8.02311809 C2.53332848,8.02311809 1.20568043,7.13736394 0.642947514,5.77933006 C0.0802146002,4.42129618 0.393355913,2.85874025 1.43620712,1.82101331 C2.47905833,0.783286375 4.04599113,0.475006328 5.40561152,1.04006842 C6.7652319,1.60513051 7.64945134,2.93211639 7.64555745,4.40163158 C7.64555745,5.36377723 7.26180907,6.28637587 6.57901843,6.96581148 C5.89622778,7.64524709 4.9705167,8.02566416 4.00618812,8.02311809 L4.00618812,8.02311809 Z M4.00618812,1.58919401 C2.45066907,1.5945256 1.19348864,2.85603322 1.19702954,4.40803065 C1.20058543,5.96002808 2.46352123,7.21579995 4.01904839,7.21403618 C5.57457556,7.21226869 6.83465347,5.95363305 6.83465347,4.40163158 C6.83465347,3.65405936 6.53635197,2.93724555 6.00563249,2.40953654 C5.47491302,1.88182754 4.7554547,1.58665035 4.00618812,1.58919401 L4.00618812,1.58919401 Z" id="Shape"></path>
                                </g>
                                <ellipse id="Oval" fill="#A38CC2" cx="114.055693" cy="112.294579" rx="1.13910891" ry="1.13652632"></ellipse>
                                <path d="M114.055693,113.469632 C113.574569,113.469616 113.14101,113.179923 112.957807,112.736054 C112.774604,112.292184 112.877973,111.781883 113.219564,111.443837 C113.561156,111.105791 114.073443,111.006825 114.516811,111.19323 C114.960179,111.379636 115.246981,111.814562 115.243069,112.294579 C115.24308,112.607898 115.117674,112.908246 114.894716,113.128891 C114.671758,113.349535 114.369714,113.4722 114.055693,113.469632 Z M114.055693,111.196579 C113.447906,111.196579 112.955198,111.68817 112.955198,112.294579 C112.955198,112.900988 113.447906,113.392579 114.055693,113.392579 C114.66348,113.392579 115.156188,112.900988 115.156188,112.294579 C115.150945,111.690351 114.661294,111.201811 114.055693,111.196579 L114.055693,111.196579 Z" id="Shape" fill="#A38CC2"></path>
                                <rect id="Rectangle" fill="#A38CC2" x="100.473267" y="68.1337895" width="33.709901" height="1"></rect>
                                <ellipse id="Oval" fill="#A38CC2" cx="133.575" cy="67.9507895" rx="1" ry="1"></ellipse>
                                <path d="M133.584653,68.8561579 C133.344008,68.8581826 133.1133,68.7605286 132.947525,68.5864737 C132.77531,68.4196127 132.678132,68.1903016 132.678132,67.9507895 C132.678132,67.7112774 132.77531,67.4819663 132.947525,67.3151053 C133.300838,66.9675055 133.868469,66.9675055 134.221782,67.3151053 L134.221782,67.3151053 C134.570172,67.6676178 134.570172,68.2339611 134.221782,68.5864737 C134.054694,68.7586295 133.824843,68.8559211 133.584653,68.8561579 Z M133.584653,67.1321053 C133.367447,67.1336779 133.159509,67.2201223 133.005446,67.3728947 C132.847293,67.523719 132.757832,67.7325077 132.757832,67.9507895 C132.757832,68.1690712 132.847293,68.3778599 133.005446,68.5286842 C133.207845,68.7559135 133.519772,68.8525392 133.815566,68.7796351 C134.111361,68.7067311 134.342313,68.4763026 134.415383,68.1811789 C134.488452,67.8860552 134.391607,67.5748349 134.163861,67.3728947 C134.008124,67.2226434 133.801245,67.1366391 133.584653,67.1321053 L133.584653,67.1321053 Z" id="Shape" fill="#A38CC2"></path>
                                <ellipse id="Oval" fill="#A38CC2" cx="100.473267" cy="67.9507895" rx="1" ry="1"></ellipse>
                                <path d="M100.482921,68.8561579 C100.242275,68.8581826 100.011568,68.7605286 99.8457921,68.5864737 C99.6735777,68.4196127 99.5763994,68.1903016 99.5763994,67.9507895 C99.5763994,67.7112774 99.6735777,67.4819663 99.8457921,67.3151053 C100.197669,66.9533879 100.776817,66.9447635 101.139356,67.2958421 C101.501896,67.6469208 101.51054,68.2247562 101.158663,68.5864737 C100.983826,68.7707027 100.73687,68.8692609 100.482921,68.8561579 L100.482921,68.8561579 Z M100.482921,67.1321028 C100.091406,67.1311483 99.753751,67.4062983 99.6764983,67.7892466 C99.5992455,68.172195 99.8039173,68.5562539 100.165317,68.7064955 C100.526716,68.8567372 100.944158,68.7313048 101.162295,68.4069251 C101.380432,68.0825454 101.338492,67.6495893 101.062129,67.3728947 C100.906391,67.2226434 100.699512,67.1366391 100.482921,67.1321028 L100.482921,67.1321028 Z" id="Shape" fill="#A38CC2"></path>
                                <rect id="Rectangle" fill="#A38CC2" x="43.4502475" y="70.1275263" width="1" height="11.7505263"></rect>
                                <ellipse id="Oval" fill="#A38CC2" cx="43.5564356" cy="70.7343158" rx="1" ry="1"></ellipse>
                                <path d="M43.5564356,71.6300645 C43.3178637,71.6312755 43.0886151,71.5377046 42.9193069,71.37 C42.5705839,71.0195239 42.5719612,70.4535617 42.9223859,70.1047794 C43.2728107,69.755997 43.8400606,69.755997 44.1904854,70.1047794 C44.5409101,70.4535617 44.5422874,71.0195239 44.1935644,71.37 C44.0242562,71.5377046 43.7950076,71.6312755 43.5564356,71.6300645 Z M43.5564356,69.9156316 C43.3385855,69.9139922 43.1294585,70.0009309 42.9772277,70.1564211 C42.7419649,70.3903396 42.6712419,70.7426923 42.79808,71.0489614 C42.9249181,71.3552305 43.224298,71.5550031 43.5564356,71.5550031 C43.8885733,71.5550031 44.1879532,71.3552305 44.3147913,71.0489614 C44.4416294,70.7426923 44.3709064,70.3903396 44.1356436,70.1564211 C43.9840629,69.9999772 43.7745068,69.9128601 43.5564356,69.9156316 L43.5564356,69.9156316 Z" id="Shape" fill="#A38CC2"></path>
                                <path d="M177.980941,96.1231579 L156.289604,96.1231579 C156.234757,96.1181629 156.192841,96.0721598 156.193069,96.0172105 L156.193069,82.1958947 L20.6584158,82.1958947 C20.6310494,82.1960316 20.6049108,82.184573 20.586502,82.1643692 C20.5680931,82.1441653 20.5591442,82.1171152 20.5613968,82.0899474 C20.5613968,82.0644028 20.5720518,82.0399045 20.5901555,82.0218418 C20.6082593,82.0037791 20.6328133,81.9936307 20.6584158,81.9936307 L156.289604,81.9936307 C156.344678,81.9934041 156.390786,82.0352252 156.395792,82.0899474 L156.395792,95.9208947 L177.874752,95.9208947 L177.874752,82.1958947 L166.802228,82.1958947 C166.774065,82.1958947 166.747056,82.1847325 166.727141,82.1648635 C166.707227,82.1449945 166.69604,82.1180464 166.69604,82.0899474 C166.701046,82.0352252 166.747154,81.9934041 166.802228,81.9936307 L177.961634,81.9936307 C178.012974,81.9981106 178.053679,82.0387234 178.058245,82.0899474 L178.058245,96.0172105 C178.060016,96.0660764 178.028104,96.1098561 177.980941,96.1231579 L177.980941,96.1231579 Z" id="Path" fill="#A38CC2"></path>
                                <path d="M30.1960396,95.2370526 L5.75346535,95.2370526 C5.72623582,95.2397834 5.69912418,95.2308548 5.67887443,95.2124877 C5.65862469,95.1941205 5.64727601,95.1680412 5.64727601,95.1407368 C5.64727601,95.0822237 5.69481927,95.0347895 5.75346535,95.0347895 L30.1960396,95.0347895 C30.2546857,95.0347895 30.3022289,95.0822237 30.3022289,95.1407368 C30.3022289,95.1680412 30.2908803,95.1941205 30.2706305,95.2124877 C30.2503808,95.2308548 30.2232691,95.2397834 30.1960396,95.2370526 L30.1960396,95.2370526 Z" id="Path" fill="#A38CC2"></path>
                                <g id="Group" opacity="0.3" transform="translate(26.064356, 91.500000)" fill="#A38CC2">
                                    <path d="M4.13168317,7.42594737 C2.12172211,7.42594737 0.492326733,5.80024617 0.492326733,3.79484211 C0.492326733,1.78943804 2.12172211,0.163736842 4.13168317,0.163736842 C6.14164423,0.163736842 7.7710396,1.78943804 7.7710396,3.79484211 C7.7710396,5.80024617 6.14164423,7.42594737 4.13168317,7.42594737 L4.13168317,7.42594737 Z M4.13168317,0.982421053 C2.57616412,0.987736126 1.31898369,2.24924374 1.32252459,3.80124117 C1.32608048,5.35323861 2.58901628,6.60901047 4.14454344,6.60724671 C5.70007061,6.60547922 6.96014851,5.34684357 6.96014851,3.79484211 C6.95759264,3.04894031 6.65815753,2.33460222 6.12771642,1.80897628 C5.59727532,1.28335035 4.87927989,0.989493799 4.13168317,0.992052632 L4.13168317,0.982421053 Z" id="Shape"></path>
                                </g>
                                <path d="M30.1960396,107.998895 C30.170437,107.998895 30.1458831,107.988747 30.1277793,107.970684 C30.1096755,107.952622 30.099505,107.928123 30.099505,107.902579 L30.099505,95.2948421 C30.0992769,95.2398929 30.141193,95.1938897 30.1960396,95.1888947 C30.2546857,95.1888947 30.3022277,95.236329 30.3022277,95.2948421 L30.3022277,107.902579 C30.3023649,107.929883 30.2908803,107.955963 30.2706305,107.97433 C30.2503808,107.992697 30.2232691,108.001626 30.1960396,107.998895 L30.1960396,107.998895 Z" id="Path" fill="#A38CC2"></path>
                                <ellipse id="Oval" fill="#A38CC2" cx="30.1960396" cy="108.913895" rx="1" ry="1"></ellipse>
                                <path d="M30.1960396,109.828907 C29.7906897,109.826806 29.4370233,109.553967 29.3329801,109.16308 C29.2289368,108.772193 29.4003284,108.360231 29.7512305,108.157761 C30.1021326,107.955291 30.5454914,108.012543 30.8331683,108.297474 C31.0918914,108.553727 31.169614,108.940636 31.0298508,109.276575 C30.8900876,109.612514 30.5605922,109.830773 30.1960396,109.828907 Z M30.1960396,108.114474 C29.8242336,108.113567 29.4982827,108.362209 29.4016735,108.720431 C29.3050643,109.078654 29.461944,109.45692 29.7840009,109.642294 C30.1060578,109.827668 30.5127943,109.773816 30.7752475,109.511053 C30.9334001,109.360228 31.0228608,109.15144 31.0228608,108.933158 C31.0228608,108.714876 30.9334001,108.506087 30.7752475,108.355263 C30.6270272,108.191709 30.417028,108.097424 30.1960396,108.095211 L30.1960396,108.114474 Z" id="Shape" fill="#A38CC2"></path>
                                <path d="M30.1960396,95.2370526 C30.170437,95.2370526 30.1458831,95.2269051 30.1277793,95.2088424 C30.1096755,95.1907797 30.099505,95.1662814 30.099505,95.1407368 L30.099505,82.0899474 C30.1039942,82.0387234 30.1446992,81.9981106 30.1960396,81.9936307 C30.2511137,81.9934041 30.2972214,82.0352252 30.3022277,82.0899474 L30.3022277,95.1407368 C30.3023649,95.1680412 30.2908803,95.1941205 30.2706305,95.2124877 C30.2503808,95.2308548 30.2232691,95.2397834 30.1960396,95.2370526 L30.1960396,95.2370526 Z" id="Path" fill="#A38CC2"></path>
                                <ellipse id="Oval" fill="#A38CC2" cx="30.1960396" cy="95.1407368" rx="1" ry="1"></ellipse>
                                <path d="M30.1960396,96.0364737 C29.9571447,96.0390789 29.7272726,95.9455437 29.5583383,95.7769924 C29.389404,95.6084411 29.2956562,95.3790901 29.2982673,95.1407368 C29.2980944,94.9029108 29.39172,94.674567 29.5589109,94.5050526 C29.7261511,94.3332287 29.9559832,94.2362707 30.1960396,94.2362707 C30.436096,94.2362707 30.6659281,94.3332287 30.8331683,94.5050526 L30.8331683,94.5050526 C31.0066557,94.6711165 31.1043467,94.9008661 31.1034713,95.1407368 C31.0981737,95.6369926 30.6934512,96.0365018 30.1960396,96.0364737 L30.1960396,96.0364737 Z M30.1960396,94.3220526 C29.9786217,94.322584 29.7703029,94.4091867 29.6168317,94.5628421 C29.461167,94.715016 29.3734461,94.9233003 29.3734461,95.1407368 C29.3734461,95.3581734 29.461167,95.5664577 29.6168317,95.7186316 C29.9370431,96.0370134 30.4550361,96.0370134 30.7752475,95.7186316 C31.0943528,95.3991462 31.0943528,94.8823275 30.7752475,94.5628421 C30.6236669,94.4063982 30.4141107,94.3192811 30.1960396,94.3220526 L30.1960396,94.3220526 Z" id="Shape" fill="#A38CC2"></path>
                                <ellipse id="Oval" fill="#A38CC2" cx="19.5193069" cy="82.0899474" rx="1.13910891" ry="1.13652632"></ellipse>
                                <path d="M19.5193069,83.2746316 C19.0381989,83.2785343 18.6022845,82.9923828 18.4154557,82.55002 C18.228627,82.1076571 18.3278172,81.5965317 18.6666318,81.2557144 C19.0054463,80.9148971 19.5169065,80.8117627 19.9617848,80.9945506 C20.4066632,81.1773386 20.6970297,81.6099143 20.6970297,82.0899474 C20.6970297,82.7404874 20.1713037,83.2693426 19.5193069,83.2746316 L19.5193069,83.2746316 Z M19.5193069,80.9919474 C18.9115203,80.9919474 18.4188119,81.4835387 18.4188119,82.0899474 C18.4188119,82.696356 18.9115203,83.1879474 19.5193069,83.1879474 C20.1270936,83.1879474 20.619802,82.696356 20.619802,82.0899474 C20.619802,81.4835387 20.1270936,80.9919474 19.5193069,80.9919474 Z" id="Shape" fill="#A38CC2"></path>
                                <g id="Group" opacity="0.3" transform="translate(0.000000, 89.573684)" fill="#A38CC2">
                                    <path d="M5.27079208,10.9703684 C2.36514546,10.9703684 0.00965346535,8.62021682 0.00965346535,5.72115789 C0.00965346535,2.82209897 2.36514546,0.471947368 5.27079208,0.471947368 C8.1764387,0.471947368 10.5319307,2.82209897 10.5319307,5.72115789 C10.5266179,8.61801833 8.17423522,10.9650677 5.27079208,10.9703684 L5.27079208,10.9703684 Z M5.27079208,0.876473684 C2.60506123,0.876473684 0.444059406,3.03257607 0.444059406,5.69226316 C0.444059406,8.35195024 2.60506123,10.5080526 5.27079208,10.5080526 C7.93652293,10.5080526 10.0975248,8.35195024 10.0975248,5.69226316 C10.0975248,3.03257607 7.93652293,0.876473684 5.27079208,0.876473684 L5.27079208,0.876473684 Z" id="Shape"></path>
                                </g>
                                <ellipse id="Oval" fill="#A38CC2" cx="5.17425743" cy="95.2948421" rx="1" ry="1"></ellipse>
                                <path d="M5.18391089,96.190591 C4.81935828,96.1924573 4.48986292,95.9741984 4.35009973,95.6382596 C4.21033653,95.3023207 4.28805911,94.9154112 4.54678218,94.6591579 C4.90009577,94.3115581 5.46772601,94.3115581 5.8210396,94.6591579 L5.8210396,94.6591579 C6.07976267,94.9154112 6.15748525,95.3023207 6.01772206,95.6382596 C5.87795886,95.9741984 5.5484635,96.1924573 5.18391089,96.190591 L5.18391089,96.190591 Z M5.18391089,94.4761579 C4.96315021,94.4741149 4.75087778,94.5609145 4.5950495,94.7169474 C4.28613861,95.0405684 4.28613861,95.5491158 4.5950495,95.8727368 C4.91856287,96.1922384 5.43960544,96.1922384 5.76311881,95.8727368 C6.0720297,95.5491158 6.0720297,95.0405684 5.76311881,94.7169474 C5.60964755,94.563292 5.40132878,94.4766893 5.18391089,94.4761579 L5.18391089,94.4761579 Z" id="Shape" fill="#A38CC2"></path>
                                <path d="M182.720792,176.527579 L122.396287,176.527579 C122.341441,176.522584 122.299752,176.476581 122.299752,176.421632 C122.299752,176.368438 122.342973,176.325316 122.396287,176.325316 L182.759406,176.325316 C182.812721,176.325316 182.856018,176.368438 182.856018,176.421632 C182.857237,176.455539 182.842177,176.488014 182.815435,176.508978 C182.788693,176.529942 182.753505,176.536858 182.720792,176.527579 L182.720792,176.527579 Z" id="Path" fill="#A38CC2"></path>
                                <ellipse id="Oval" fill="#A38CC2" cx="183.319307" cy="176.383105" rx="1" ry="1"></ellipse>
                                <path d="M183.32896,177.249959 C182.92361,177.247859 182.569944,176.97502 182.465901,176.584133 C182.361858,176.193246 182.533249,175.781284 182.884151,175.578814 C183.235053,175.376344 183.678412,175.433596 183.966089,175.718526 C184.224812,175.97478 184.302535,176.361689 184.162772,176.697628 C184.023008,177.033567 183.693513,177.251826 183.32896,177.249959 Z M183.32896,175.535526 C183.110889,175.532755 182.901333,175.619872 182.749752,175.776316 C182.5916,175.92714 182.502139,176.135929 182.502139,176.354211 C182.502139,176.572492 182.5916,176.781281 182.749752,176.932105 C183.012206,177.194869 183.418942,177.248721 183.740999,177.063347 C184.063056,176.877973 184.219936,176.499706 184.123327,176.141484 C184.026717,175.783261 183.700766,175.53462 183.32896,175.535526 L183.32896,175.535526 Z" id="Shape" fill="#A38CC2"></path>
                                <g id="Group" opacity="0.5" transform="translate(115.841584, 169.515789)" fill="#A38CC2">
                                    <path d="M6.55470297,13.0315263 C3.17455626,13.0315263 0.434405941,10.2975885 0.434405941,6.92510526 C0.434405941,3.55262204 3.17455626,0.818684211 6.55470297,0.818684211 C9.93484968,0.818684211 12.675,3.55262204 12.675,6.92510526 C12.675,10.2975885 9.93484968,13.0315263 6.55470297,13.0315263 Z M6.55470297,1.22321053 C3.39847765,1.22321053 0.839851485,3.77603575 0.839851485,6.92510526 C0.839851485,10.0741748 3.39847765,12.627 6.55470297,12.627 C9.71092829,12.627 12.2695545,10.0741748 12.2695545,6.92510526 C12.2695545,3.77603575 9.71092829,1.22321053 6.55470297,1.22321053 L6.55470297,1.22321053 Z" id="Shape"></path>
                                </g>
                                <ellipse id="Oval" fill="#A38CC2" cx="122.357673" cy="176.604632" rx="1.13910891" ry="1.13652632"></ellipse>
                                <path d="M122.396287,177.779684 C121.747132,177.774375 121.224695,177.245959 121.228217,176.598263 C121.231776,175.950568 121.759958,175.427868 122.409132,175.429618 C123.058307,175.431378 123.583663,175.956927 123.583663,176.604632 C123.583663,176.917951 123.458268,177.218299 123.23531,177.438943 C123.012352,177.659587 122.710308,177.782252 122.396287,177.779684 Z M122.396287,175.506632 C121.7885,175.506632 121.295792,175.998223 121.295792,176.604632 C121.295792,177.21104 121.7885,177.702632 122.396287,177.702632 C123.004074,177.702632 123.496782,177.21104 123.496782,176.604632 C123.491539,176.000403 123.001888,175.511863 122.396287,175.506632 L122.396287,175.506632 Z" id="Shape" fill="#A38CC2"></path>
                                <rect id="Rectangle" fill="#A38CC2" x="83.2707921" y="43.4480526" width="38.6235149" height="1"></rect>
                                <g id="Group" opacity="0.3" transform="translate(79.158416, 39.489474)" fill="#A38CC2">
                                    <path d="M3.65866337,7.73415789 C2.18580373,7.73415789 0.858155675,6.84841657 0.295422761,5.49038269 C-0.267310152,4.13234881 0.0458311602,2.56979288 1.08868237,1.53206594 C2.13153358,0.494339007 3.69846638,0.18605896 5.05808676,0.751121051 C6.41770714,1.31618314 7.30192659,2.64316902 7.2980327,4.11268421 C7.29269832,6.11432588 5.66486054,7.73415789 3.65866337,7.73415789 L3.65866337,7.73415789 Z M3.65866337,1.29063158 C2.09654509,1.29063158 0.83019802,2.55410758 0.83019802,4.11268421 C0.83019802,5.67126084 2.09654509,6.93473684 3.65866337,6.93473684 C5.22078164,6.93473684 6.48712871,5.67126084 6.48712871,4.11268421 C6.48181009,2.55787027 5.21701948,1.3002541 3.65866337,1.30026316 L3.65866337,1.29063158 Z" id="Shape"></path>
                                </g>
                                <ellipse id="Oval" fill="#A38CC2" cx="82.7784653" cy="43.6117895" rx="1" ry="1"></ellipse>
                                <path d="M82.8170792,44.5075263 C82.4491858,44.5075055 82.1177111,44.2858629 81.9778432,43.946366 C81.8379754,43.606869 81.9173967,43.21671 82.1789241,42.9585515 C82.4404514,42.700393 82.8323241,42.625329 83.1710772,42.7685026 C83.5098302,42.9116762 83.7284187,43.2447509 83.724505,43.6117895 C83.7245188,43.8510319 83.6286084,44.0803379 83.4581497,44.2486008 C83.2876911,44.4168637 83.0568514,44.5100988 82.8170792,44.5075263 Z M82.8170792,42.7931053 C82.363905,42.7931053 81.9965347,43.1596427 81.9965347,43.6117895 C81.9965347,44.0639363 82.363905,44.4304737 82.8170792,44.4304737 C83.2702535,44.4304737 83.6376238,44.0639363 83.6376238,43.6117895 C83.6376238,43.1596427 83.2702535,42.7931053 82.8170792,42.7931053 Z" id="Shape" fill="#A38CC2"></path>
                            </g>
                        </g>
                        <g id="Layer_1" transform="translate(12.000000, 111.000000)" fill-rule="nonzero">
                            <path d="M95.3967857,62.0598462 C94.3553571,61.8756923 93.3139286,61.7012308 92.2821429,61.5073846 C89.7171429,61.0421538 87.1425,60.6156923 84.5678571,60.0923077 C82.1252233,59.4725097 79.8303411,58.3686125 77.8178571,56.8453846 C74.6935714,54.7227692 71.4825,52.7455385 68.3292857,50.6810769 C66.9985714,49.8087692 65.7257143,48.8492308 64.4721429,47.9381538 C63.2185714,47.0270769 61.9746429,46.116 60.615,45.3115385 C60.0116496,44.9497089 59.3300651,44.7401942 58.6285714,44.7009231 C56.1117857,44.5846154 53.5853571,44.4295385 51.0782143,44.5652308 C49.1308838,44.7626943 47.1982849,45.0864459 45.2925,45.5344615 C41.9401939,46.3171973 38.4624698,46.3898152 35.0807143,45.7476923 C34.6585499,45.6647338 34.2452416,45.5414037 33.8464286,45.3793846 C29.8446429,43.6250769 26.0164286,41.6090769 23.2392857,38.1004615 C20.9635714,35.28 18.63,32.508 16.4025,29.6487692 C15.3417857,28.2918462 14.4739286,26.7410769 13.5096429,25.3453846 C11.8184009,22.9662554 9.9000075,20.7588525 7.78178571,18.7546154 C6.40285714,17.3976923 5.05285714,15.9923077 3.78964286,14.5287692 C2.93531816,13.3631981 2.1527832,12.1461527 1.44642857,10.8844615 C3.54857143,12.222 6.74035714,9.576 8.87142857,10.8844615 C10.53,11.9021538 12.2367857,12.8229231 13.9242857,13.7921538 C15.1682143,15.8663077 16.3639286,17.9598462 17.6657143,19.9855385 C18.0899546,20.6590228 18.6520735,21.2339367 19.3146429,21.672 C20.5199722,22.3567452 21.3370726,23.5689558 21.5228571,24.948 C21.7628143,26.4388364 22.6884914,27.7284976 24.0203571,28.4275385 C24.9846429,28.9896923 25.0714286,28.9606154 25.3607143,27.9526154 C25.3607143,27.8750769 25.4282143,27.7975385 25.4185714,27.8266154 C26.9903571,28.7958462 28.5814286,29.7650769 30.1146429,30.8215385 C31.8117857,31.9749231 33.5089286,33.0895385 34.4442857,35.1249231 C35.1776166,36.5633992 36.6980244,37.4191938 38.3014286,37.296 C40.23,37.296 38.7546429,35.1636923 40.5385714,34.4561538 C42.6696429,33.6226154 43.4314286,33.6807692 43.065,31.4224615 C42.9203571,30.5792308 46.1603571,29.736 46.1796429,28.8830769 C46.1796429,27.5746154 46.575,27.3323077 47.655,27.8266154 C48.3685714,28.1561538 49.1785714,28.2821538 49.9114286,28.5826154 C51.2757607,29.0749146 52.6034159,29.6644107 53.8842857,30.3466154 C55.4078571,31.2383077 56.7771429,32.3529231 58.2525,33.3706154 C60.311449,34.8337982 62.1805533,36.5496897 63.8164286,38.4784615 C64.6708827,39.5586469 65.8005466,40.3859563 67.0853571,40.8724615 C67.8182143,41.1244615 68.1364286,40.9596923 68.3967857,40.2327692 C68.6571429,39.5058462 68.7825,39.06 68.9657143,38.4687692 C69.0717857,38.1198462 69.2453571,37.9938462 69.6214286,38.178 C71.621931,39.1668076 73.4490213,40.4762265 75.0310714,42.0549231 C76.1209101,43.1213392 77.3164178,44.072907 78.5989286,44.8947692 C80.7101582,46.2402473 82.6111947,47.8929951 84.24,49.7990769 C84.7510105,50.5250301 85.6048624,50.92652 86.4867857,50.8555385 C87.7596429,50.6810769 89.0421429,50.4775385 90.3439286,50.2643077 C91.4450584,50.030529 92.4247294,49.403905 93.1017857,48.5003077 C94.1443649,47.2858643 94.9374642,45.8759996 95.4353571,44.352 C95.5967996,43.8035354 95.7932791,43.2661115 96.0235714,42.7430769 C96.1489286,42.4813846 96.4092857,42.1324615 96.6503571,42.1130769 C96.8914286,42.0936923 97.1807143,42.4135385 97.3157143,42.6655385 C98.2028571,44.3326154 99.0514286,46.0287692 99.9096429,47.7152308 C100.2375,48.3355385 100.5075,48.9946154 100.873929,49.5858462 C101.240357,50.1770769 101.539286,50.2352308 101.982857,49.5858462 C102.8025,48.2676923 103.622143,46.9592308 104.49,45.7089231 C105.834135,43.7551195 106.947346,41.6506395 107.807143,39.438 C108.592665,37.4999092 109.477785,35.6041258 110.458929,33.7583077 C110.960357,32.7890769 111.9825,35.4447692 112.512857,36.4333846 C112.753929,36.8986154 112.995,35.8033846 113.245714,36.2686154 C113.496429,36.7338462 112.86,38.5656923 113.322857,38.2070769 C113.920355,37.8551708 114.572206,37.6061972 115.251429,37.4704615 C116.071071,37.4123077 118.038214,36.8889231 117.941786,37.7127692 C117.874286,38.2361538 118.722857,40.7173846 118.674643,41.2407692 C118.510714,42.9853846 118.877143,44.1484615 118.587857,45.8349231 C118.298571,47.5213846 116.755714,49.7118462 116.476071,51.3304615 C116.3025,52.2996923 115.039286,53.8989231 115.02,54.8584615 C114.6825,55.0910769 113.303571,56.3995385 112.956429,56.5933846 C108.864625,58.9713169 104.43096,60.6976411 99.8132143,61.7109231 L97.8846429,62.0695385 L95.5607143,62.0695385 L95.3967857,62.0598462 Z" id="Path" fill="#988976"></path>
                            <path d="M113.853214,55.8955385 C113.809546,54.9250224 113.845021,53.9525417 113.959286,52.9878462 C114.238929,51.3983077 114.788571,49.8475385 115.048929,48.258 C115.309286,46.6684615 115.434643,44.7784615 115.598571,43.0338462 C115.598571,42.5104615 115.598571,41.9870769 115.704643,41.4636923 C115.801071,40.6398462 115.588929,40.3296923 114.740357,40.3878462 C114.312763,40.4066865 113.89739,40.5369476 113.535,40.7658462 C113.072143,41.0953846 112.821429,40.95 112.570714,40.5526154 C112.32,40.1552308 112.146429,39.5833846 111.905357,39.1375385 C111.375,38.1683077 110.825357,38.1004615 110.323929,39.1375385 C109.342746,40.9866497 108.457629,42.8856614 107.672143,44.8269231 C106.808198,47.0376452 105.695234,49.141658 104.355,51.0978462 C103.487143,52.3772308 102.6675,53.6953846 101.847857,54.9747692 C101.404286,55.6629231 101.192143,55.7113846 100.738929,54.9747692 C100.285714,54.2381538 100.092857,53.7341538 99.7746429,53.1041538 C98.9164286,51.4176923 98.0678571,49.7312308 97.1807143,48.0544615 C97.0457143,47.8024615 96.7178571,47.4826154 96.5153571,47.502 C96.3128571,47.5213846 96.0139286,47.8703077 95.8885714,48.1416923 C95.6568,48.6608083 95.4602788,49.1951082 95.3003571,49.7409231 C94.8024642,51.2649227 94.0093649,52.6747874 92.9667857,53.8892308 C92.2897294,54.792828 91.3100584,55.4194521 90.2089286,55.6532308 C88.9457143,55.8664615 87.6632143,56.07 86.3517857,56.2444615 C85.4698624,56.3154431 84.6160105,55.9139532 84.105,55.188 C82.4761947,53.2819182 80.5751582,51.6291704 78.4639286,50.2836923 C77.2252051,49.4798768 76.0688335,48.5545807 75.0117857,47.5213846 C73.4246462,45.9487649 71.5985883,44.6400859 69.6021429,43.6444615 C69.2260714,43.47 69.0525,43.6444615 68.9464286,43.9449231 C68.7632143,44.5264615 68.5896429,45.1176923 68.3775,45.6992308 C68.1171429,46.4261538 67.7989286,46.5909231 67.0660714,46.3486154 C65.7812608,45.8621101 64.651597,45.0348008 63.7971429,43.9546154 C62.1604558,42.0054879 60.2844132,40.2728922 58.2139286,38.7983077 C56.7578571,37.8290769 55.3210714,36.666 53.8457143,35.7743077 C52.5648444,35.092103 51.2371893,34.5026069 49.8728571,34.0103077 C49.14,33.7098462 48.33,33.5935385 47.6164286,33.264 C46.5364286,32.76 46.1796429,33.0023077 46.1410714,34.3107692 C46.1623074,35.1748472 46.2656341,36.0349092 46.4496429,36.8792308 C46.9858588,38.9009103 45.8293734,40.9855384 43.8364286,41.5896923 C42.0723681,42.3374018 40.1773513,42.7229623 38.2628571,42.7236923 C36.6616487,42.8486569 35.14184,41.9970184 34.4057143,40.5623077 C33.4414286,38.5172308 31.7732143,37.4123077 30.0760714,36.2492308 C28.5428571,35.2121538 26.9517857,34.2526154 25.38,33.2543077 C25.38,33.2543077 25.38,33.2543077 25.3221429,33.3803077 C25.0328571,34.3495385 24.9171429,34.4270769 23.9817857,33.8552308 C22.6499199,33.1561899 21.7242429,31.8665287 21.4842857,30.3756923 C21.2831138,29.025337 20.4761478,27.8426254 19.2953571,27.1675385 C18.6332261,26.7329726 18.0710491,26.1613037 17.6464286,25.4907692 C16.3446429,23.4553846 13.3553571,18.5704615 12.1114286,16.506 C13.1335714,16.9421538 15.8432143,17.5430769 16.4989286,18.4444615 C19.2375,22.3213846 23.1910714,23.9884615 27.6460714,24.7735385 C33.0653571,25.7427692 38.4846429,26.712 43.9039286,27.6327692 C48.4585023,28.3917703 52.9305779,29.5861122 57.2592857,31.1995385 C64.4082524,33.872202 71.9251366,35.4185973 79.5439286,35.784 C85.5029495,36.0336093 91.4696848,35.5354594 97.3060714,34.3010769 C100.044643,33.7583077 102.783214,33.1670769 105.5025,32.5273846 C108.238787,31.8837499 111.090978,31.9303648 113.805,32.6630769 C118.810792,33.9134316 124.029274,34.0391851 129.088929,33.0313846 C131.432143,32.6049231 133.736786,31.9555385 136.051071,31.3643077 C136.906714,31.1959776 137.677294,30.7333148 138.230357,30.0558462 C138.335107,29.9329242 138.467268,29.836616 138.616071,29.7747692 C140.884001,28.5850347 142.860286,26.9031997 144.401786,24.8510769 C144.945951,24.2483494 145.561206,23.7145642 146.233929,23.2615385 C147.140357,22.6218462 149.011071,22.0693846 149.956071,21.4781538 C149.821071,21.7301538 149.58,26.7798462 149.396786,26.9930769 C148.4325,28.1852308 148.596429,28.5632308 148.5,30.114 C148.336071,32.9538462 146.021786,34.4464615 144.016071,36.3461538 C143.182046,37.058529 142.393016,37.8224722 141.653571,38.6335385 C141.248571,39.0696923 138.606429,41.0469231 138.268929,41.5412308 L136.215,42.6752308 C135.115714,43.3924615 135.115714,43.4021538 133.977857,44.0515385 C132.541071,44.8753846 132.261429,44.6815385 131.036786,45.7767692 C128.589142,46.9114363 126.218321,48.2065339 123.939643,49.6536923 C123.795,49.7506154 122.416071,50.2546154 122.300357,50.4 L113.853214,55.8955385 Z" id="Path" fill="#AC967C"></path>
                            <path d="M138.259286,41.5024615 C138.56319,40.9835195 138.904835,40.4878619 139.281429,40.0195385 C140.573571,38.6238462 141.856071,37.2087692 143.244643,35.9003077 C145.297967,34.1706556 146.573236,31.6838763 146.783571,28.9993846 C146.960902,27.4933246 147.613062,26.0838217 148.644643,24.9770769 C148.818214,24.7541538 148.933929,22.6993846 149.068929,22.4473846 C149.907857,21.8464615 150.177857,21.5653846 150.9975,20.9741538 C151.142143,20.9741538 152.241429,20.3829231 152.376429,20.3150769 C153.938571,19.5396923 154.922143,19.1713846 156.455357,18.3766154 C157.352143,17.9016923 158.383929,17.2813846 159.2325,16.7386154 C159.550714,16.6126154 160.948929,17.4364615 161.267143,17.3104615 C162.284509,17.6603954 163.397091,17.6013554 164.372143,17.1456923 C165.066429,16.8258462 165.076071,18.4153846 165.018214,19.2004615 C164.921786,20.7415385 164.7,20.9353846 164.613214,22.4764615 C164.613214,23.0870769 165.133929,21.7786154 165.105,22.3989231 C165.076071,23.0192308 165.056786,22.3989231 165.018214,23.0483077 C165.105,23.0483077 165.018214,22.3698462 165.105,22.3989231 C165.423214,22.05 165.105,22.3989231 165.432857,22.0693846 C166.355572,20.5716612 167.609491,19.3079948 169.097143,18.3766154 C170.533929,17.5043077 171.623571,17.3589231 173.012143,16.4381538 C174.853929,15.1781538 176.1075,15.5755385 177.255,13.6467692 C178.759286,12.8616923 184.641429,9.198 186.145714,8.40323077 C184.564286,11.214 178.913571,17.9016923 176.743929,20.286 C174.815357,22.3795385 173.156786,24.6766154 171.151071,26.6441538 C167.862478,30.0228903 163.558919,32.2197647 158.904643,32.8956923 C152.308929,33.8067692 146.098929,35.8518462 140.679643,39.9129231 C139.937143,40.4944615 139.088571,40.9693846 138.259286,41.5024615 Z" id="Path" fill="#988976"></path>
                            <path d="M179.646429,12.9876923 C177.89615,15.4944406 175.761,17.7059707 173.320714,19.5396923 C171.932143,20.4895385 170.521071,21.4006154 169.0875,22.2729231 C167.341056,23.3896447 165.825181,24.8343141 164.622857,26.5278462 C164.352857,26.8961538 163.996071,27.216 163.658571,27.5649231 L163.407857,27.4970769 C163.407857,26.8573846 163.475357,26.2273846 163.504286,25.5586154 C163.533214,24.8898462 163.591071,24.3373846 163.62,23.7170769 C163.706786,22.176 163.783929,20.6349231 163.880357,19.0938462 C163.938214,18.3087692 163.697143,18.0567692 163.002857,18.3766154 C161.942143,18.8612308 158.4225,17.3589231 157.525714,17.0293846 C159.116786,16.7870769 163.398214,15.6433846 164.989286,15.4010769 C168.345,14.9067692 171.739286,14.4318462 175.066071,13.8890769 C176.607874,13.6716278 178.136881,13.370729 179.646429,12.9876923 Z" id="Path" fill="#AC967C"></path>
                            <path d="M154.6425,41.2698462 C154.663666,42.9772298 153.303827,44.378609 151.605155,44.3999734 C149.906484,44.4213379 148.512183,43.0545979 148.490839,41.3472165 C148.469494,39.6398351 149.829188,38.2383126 151.527857,38.2167692 C152.345211,38.2012012 153.134712,38.5153577 153.719975,39.0890517 C154.305237,39.6627457 154.637489,40.4481686 154.6425,41.2698462 Z" id="Path" fill="#AC967C"></path>
                            <path d="M122.261786,50.4290769 C122.356798,50.2683303 122.477316,50.1242768 122.618571,50.0026154 C125.198299,48.3030344 127.62763,46.3833278 129.879643,44.2647692 C131.163272,43.215709 132.549267,42.299963 134.016429,41.5315385 C135.154286,40.8821538 135.887143,41.3473846 136.176429,42.7333846 C131.709529,45.5998272 127.061458,48.1705095 122.261786,50.4290769 L122.261786,50.4290769 Z" id="Path" fill="#988976"></path>
                            <path d="M60.1714286,55.5756923 C60.1596663,57.7130155 58.8676365,59.6325815 56.8982211,60.4386899 C54.9288058,61.2447983 52.6701755,60.7785655 51.1762436,59.2575434 C49.6823118,57.7365212 49.2475315,55.4605022 50.0747782,53.4915136 C50.902025,51.5225251 52.8282489,50.2486534 54.9546429,50.2643077 C56.347581,50.2719908 57.6802833,50.8362182 58.6589026,51.8325833 C59.637522,52.8289485 60.1816919,54.1756278 60.1714286,55.5756923 Z" id="Path" fill="#AC967C"></path>
                            <path d="M66.6514286,60.8095607 C65.4876492,60.8041848 64.5475348,59.8534655 64.5493078,58.6837071 C64.5510857,57.5139488 65.4940817,56.5661169 66.6578719,56.5643299 C67.8216621,56.5625478 68.7675308,57.5074833 68.7728793,58.6772308 C68.7754358,59.2435445 68.5527569,59.7874126 68.1543515,60.187861 C67.7559462,60.5883095 67.214853,60.8121303 66.6514286,60.8095607 Z" id="Path" fill="#AC967C"></path>
                            <path d="M188.633571,5.05938462 L188.633571,5.33076923 C188.303936,5.73909469 188.02842,6.18869622 187.813929,6.66830769 C187.550711,7.72798072 186.939078,8.66721164 186.078214,9.33369231 C184.786071,10.3029231 183.6,11.3884615 182.375357,12.4255385 L177.852857,14.8001538 C176.960934,15.1970856 176.03867,15.5212092 175.095,15.7693846 C171.748929,16.3315385 168.345,16.7870769 165.018214,17.2910769 L160.254643,18.0083077 L159.290357,18.3766154 C156.3975,19.026 153.938571,20.6930769 151.576071,22.4764615 L149.049643,24.2598462 C148.085357,24.8510769 147.121071,25.4035385 146.224286,26.0432308 C145.549579,26.4936338 144.934017,27.0276855 144.392143,27.6327692 C142.84807,29.6824451 140.872382,31.3637731 138.606429,32.5564615 C138.460013,32.6181299 138.328477,32.7106771 138.220714,32.8278462 C137.670363,33.5084719 136.898551,33.9718743 136.041429,34.1363077 C133.727143,34.7372308 131.4225,35.3769231 129.079286,35.8033846 C124.020754,36.8191606 118.801222,36.6966918 113.795357,35.4447692 C111.082816,34.7040191 108.229423,34.6540535 105.492857,35.2993846 C102.773571,35.9487692 100.035,36.54 97.2964286,37.0827692 C91.4600419,38.3171517 85.4933066,38.8153016 79.5342857,38.5656923 C71.9184039,38.1806269 64.4062085,36.6247211 57.2592857,33.9521538 C52.9308554,32.3355971 48.4587887,31.1380121 43.9039286,30.3756923 C38.4846429,29.4064615 33.0653571,28.4372308 27.6460714,27.5261538 C23.1910714,26.7313846 19.2375,25.0352308 16.4989286,21.1873846 C15.8256768,20.316237 14.9288814,19.6460554 13.905,19.2489231 C12.2175,18.2796923 10.5107143,17.3104615 8.85214286,16.3412308 C6.72107143,15.0327692 4.62857143,13.6758462 2.52642857,12.3383077 C1.94001808,11.6760705 1.40488445,10.9697007 0.925714286,10.2253846 C0.0482142857,8.60676923 0.588214286,7.60846154 2.38178571,7.31769231 L18.9964286,4.50692308 C27.6244456,3.01617361 36.3643877,2.27681377 45.1189286,2.29707692 C58.0596429,2.35523077 71.0035714,2.35523077 83.9507143,2.29707692 C90.9128571,2.29707692 97.8653571,1.99661538 104.798571,1.32784615 C111.025038,0.707767851 117.292098,0.610507968 123.534643,1.03707692 C126.4275,1.26 129.320357,1.68646154 132.213214,1.80276923 C138.645,2.06446154 145.086429,2.19046154 151.498929,2.37461538 C162.703929,2.69446154 173.908929,3.11123077 185.056071,4.47784615 C186.290357,4.67169231 187.515,4.49723077 188.633571,5.05938462 Z" id="Path" fill="#2EBF8B"></path>
                        </g>
                        <g id="Layer_3" transform="translate(33.000000, 56.000000)">
                            <g id="Illustration-2" transform="translate(84.688172, 0.964286)" fill="#C881A6" fill-rule="nonzero">
                                <path d="M4.52311828,44.8875 C3.56075269,41.7728571 3.06994624,42.1682143 1.49166667,37.0960714 C0.702526882,34.5792857 -0.914247312,28.9189286 1.84774194,28.9189286 C4.30177419,28.9189286 5.52397849,31.1367857 6.88091398,32.6217857 C7.44950033,33.444566 8.32920134,33.9985247 9.31569892,34.155 C10.1951612,34.0815702 10.9928055,33.6091331 11.4810215,32.8725 C13.5693548,30.105 12.4433871,26.19 10.9228495,23.1717857 C9.63327957,20.5489286 8.13198925,17.6560714 8.50731183,14.8017857 C8.56505376,14.3582143 8.95962366,13.6735714 9.52741935,13.8375 C11.1153226,14.0689286 11.5098925,15.1489286 12.193172,16.6339286 C12.8764516,18.1189286 13.3672581,19.7582143 14.4932258,20.9057143 C15.6191935,22.0532143 17.7075269,22.4485714 18.8142473,21.1853571 C19.9209677,19.9221429 19.3627957,18.0128571 18.7565054,16.4989286 L15.7250538,8.90035714 C15.3593548,7.98428571 15.1668817,6.62464286 16.081129,6.23892857 C16.5143725,6.09876717 16.9881319,6.17015132 17.3610753,6.43178571 C18.7276344,7.18392857 19.5841398,8.61107143 20.613871,9.80678571 C21.6436022,11.0025 23.1256452,12.0439286 24.6750538,11.6678571 C27.129086,11.0603571 27.6102688,7.81071429 28.4475269,5.31321429 C29.5253763,2.15035714 32.8455376,-0.665357143 35.8481183,0.414642857 C38.8506989,1.49464286 39.4954839,6.28714286 37.4937634,9.09321429 C35.492043,11.8992857 31.9794086,13.1817857 28.6496237,13.7603571 C27.2349462,14.0014286 25.3102151,14.8403571 25.6855376,16.2482143 C25.8134564,16.6326698 26.0551348,16.969004 26.3784409,17.2125 C30.2279032,20.3946429 36.358172,16.0842857 40.4482258,18.9867857 C40.7561828,19.3628571 40.9005376,19.2471429 40.4482258,19.9510714 C38.7544624,22.2846429 35.3380645,22.6414286 32.5087097,22.7571429 C29.4002688,22.8728571 26.262957,22.4871429 23.2218817,23.2778571 C22.2595161,23.5285714 21.1912903,24.0589286 21.0276882,25.0521429 C20.9749015,25.7462491 21.2448048,26.4259121 21.759086,26.8939286 C25.2043548,30.5775 32.0948925,28.2053571 35.771129,31.6575 C35.9836748,31.823913 36.1248049,32.0653475 36.1656989,32.3325 C36.1486194,32.6036402 36.0360835,32.8599139 35.8481183,33.0557143 C33.4325806,36.1317857 29.0153226,36.1992857 25.2620968,35.8617857 C21.508871,35.5242857 17.2167204,35.235 14.4354839,37.9735714 C17.0627419,40.0178571 22.5097312,39.9503571 25.1369892,42.0042857 C25.6106562,42.3193144 26.0031091,42.7422909 26.2822043,43.2385714 C27.157957,45.09 24.6269355,47.0957143 22.6155914,46.8064286 C20.6042473,46.5171429 16.0907527,47.3175 14.0986559,46.9607143 C12.3086559,46.6425 10.9324731,47.7032143 8.6227957,47.25 C8.59392473,47.2789286 5.10053763,46.7003571 4.52311828,44.8875 Z" id="Path"></path>
                            </g>
                            <g id="Illustration_copy" transform="translate(108.747312, 23.142857)" fill="#D383EA" fill-rule="nonzero">
                                <path d="M1.62639785,20.5392857 C3.3394086,21.0889286 3.0988172,21.3492857 5.88967742,22.2364286 C7.27548387,22.68 10.3935484,23.5864286 10.460914,22.0821429 C10.5186559,20.7514286 9.31569892,20.0667857 8.5361828,19.3242857 C8.09692492,19.0083933 7.81052595,18.5219435 7.74704301,17.9839286 C7.80794073,17.4960538 8.08794102,17.0627856 8.50731183,16.8075 C10.1048387,15.6792857 12.2605376,16.3446429 13.9061828,17.1642857 C15.3304839,17.8875 16.9087634,18.7167857 18.5062903,18.5239286 C18.7565054,18.5239286 19.1510753,18.2828571 19.0548387,17.9742857 C18.9586022,17.1064286 18.3619355,16.8846429 17.5535484,16.4989286 C16.7123367,16.2132902 15.9274255,15.7825225 15.2342473,15.2260714 C14.904074,14.9281356 14.7108246,14.507177 14.6999018,14.0620974 C14.688979,13.6170178 14.8613457,13.1870507 15.1765054,12.8732143 C15.9079032,12.285 16.9665054,12.5839286 17.7941398,12.9214286 L21.9515591,14.6185714 C22.4519892,14.8210714 23.2122581,14.9367857 23.4432258,14.4353571 C23.5324419,14.2063911 23.507422,13.9485302 23.3758602,13.7410714 C22.8853152,13.0390721 22.2724207,12.4314879 21.5666129,11.9475 C20.8444304,11.4526976 20.4700922,10.5862509 20.6042473,9.72 C20.9988172,8.38928571 22.8465591,8.13857143 24.2323656,7.695 C26.0223656,7.12607143 27.6680108,5.3325 27.1194624,3.68357143 C26.570914,2.03464286 23.9436559,1.66821429 22.3076344,2.71928571 C20.7808322,3.90058527 19.7701892,5.62867314 19.4879032,7.54071429 C19.3243011,8.31214286 18.8046237,9.36321429 18.0347312,9.15107143 C17.8285077,9.07935878 17.6500529,8.94440713 17.5246774,8.76535714 C15.8405376,6.62464286 18.3908065,3.32678571 16.8702688,1.05107143 C16.6777957,0.8775 16.7355376,0.800357143 16.3505914,1.05107143 C15.0032796,2.01535714 14.7241935,3.82821429 14.599086,5.37107143 C14.6097285,7.07246793 14.4354761,8.76996892 14.0794086,10.4335714 C13.9158065,10.9542857 13.5886022,11.5425 13.0400538,11.6292857 C12.6731553,11.6442062 12.3192722,11.4917328 12.0776882,11.2146429 C10.1048387,9.28607143 11.5965054,5.57357143 9.7583871,3.50035714 C9.66997549,3.38151781 9.53876731,3.30194388 9.39268817,3.27857143 C9.23864774,3.28576728 9.09209171,3.34723872 8.97887097,3.45214286 C7.20811828,4.75392857 7.05413978,7.16464286 7.16,9.23785714 C7.26586022,11.3110714 7.31397849,13.6253571 5.72607527,15.1296429 C4.64822581,13.6832143 4.81182796,10.7132143 3.73397849,9.27642857 C3.57030953,9.01110744 3.34174824,8.7920474 3.06994624,8.64 C2.10758065,8.14821429 0.914247312,9.5175 1.00086022,10.6167857 C1.08747312,11.7160714 0.558172043,14.175 0.702526882,15.2646429 C0.84688172,16.3542857 0.21172043,16.9907143 0.413817204,18.2539286 C0.394569892,18.3503571 0.625537634,20.2210714 1.62639785,20.5392857 Z" id="Path"></path>
                            </g>
                            <g id="Illustration-3" transform="translate(10.586022, 28.928571)" fill-rule="nonzero">
                                <path d="M0.760268817,28.4657143 C0.760268817,28.4657143 -2.12682796,22.4582143 8.18973118,26.7203571 L15.4267204,28.9382143 L0.760268817,28.4657143 Z" id="Path" fill="#7996CD"></path>
                                <path d="M40.4097312,28.7935714 L17.5246774,17.7139286 C17.5246774,17.7139286 5.56247312,14.1267857 4.05155914,20.3271429 C3.94555209,23.6310071 5.43616,26.7833268 8.055,28.7935714 L40.4097312,28.7935714 Z" id="Path" fill="#7564C8"></path>
                                <path d="M19.1414516,29.1117857 C19.1064665,29.1183233 19.0705765,29.1183233 19.0355914,29.1117857 L5.20639785,18.3503571 C5.14620622,18.2813167 5.14620622,18.1783262 5.20639785,18.1092857 C5.27351503,18.0443807 5.37987207,18.0443807 5.44698925,18.1092857 L19.2761828,28.8610714 C19.3409585,28.9283225 19.3409585,29.0348918 19.2761828,29.1021429 C19.2337053,29.1207453 19.1861366,29.1241499 19.1414516,29.1117857 Z" id="Path" fill="#80C89A"></path>
                                <path d="M13.5597312,24.7628743 C13.4742881,24.7640533 13.4007389,24.70264 13.3865054,24.6182143 L12.0584409,16.7110714 C12.0464105,16.6161589 12.1092906,16.5279511 12.2027957,16.5085714 C12.2477381,16.500256 12.2941031,16.5111558 12.3306649,16.5386318 C12.3672267,16.5661079 12.3906519,16.6076551 12.3952688,16.6532143 L13.732957,24.57 C13.7445073,24.6627439 13.6806931,24.7479993 13.5886022,24.7628743 L13.5597312,24.7628743 Z" id="Path" fill="#80C89A"></path>
                                <path d="M21.6243548,29.1118403 C21.541901,29.1138463 21.4694322,29.0573692 21.451129,28.9767857 L19.4301613,20.6742857 C19.4124111,20.5812585 19.4723652,20.4911479 19.5648925,20.4717857 C19.6083576,20.4602566 19.6546424,20.4671596 19.6928723,20.4908729 C19.7311021,20.5145863 19.7579071,20.5530195 19.7669892,20.5971429 L21.787957,28.8996429 C21.8063373,28.989686 21.7514808,29.0784772 21.6628495,29.1021429 L21.6243548,29.1118403 Z" id="Path" fill="#80C89A"></path>
                                <path d="M16.7355376,27.2410714 L16.7355376,27.2410714 L4.45575269,23.7696429 C4.41124642,23.7585999 4.37340739,23.7293502 4.35145177,23.6890179 C4.32949615,23.6486856 4.32543912,23.6009726 4.34026882,23.5575 C4.35159542,23.5126475 4.38032453,23.4741822 4.42007693,23.4506453 C4.45982933,23.4271084 4.50731478,23.4204479 4.55198925,23.4321429 L16.8317742,26.9132143 C16.8765374,26.9245635 16.9149261,26.9533499 16.9384161,26.9931816 C16.9619062,27.0330133 16.9685534,27.0805935 16.9568817,27.1253571 C16.9185403,27.2104401 16.8271182,27.2582338 16.7355376,27.2410714 L16.7355376,27.2410714 Z" id="Path" fill="#80C89A"></path>
                                <path d="M67.2693548,28.4657143 L38.8891935,7.33821429 C38.8891935,7.33821429 22.5097312,-4.29107143 15.6576882,1.9575 C8.80564516,8.20607143 20.6042473,23.4803571 24.9830108,25.9971429 L28.3416667,28.9864286 L67.2693548,28.4657143 Z" id="Path" fill="#5F45B9"></path>
                                <path d="M49.2346237,28.8610714 L49.1672581,28.8610714 C48.050914,28.3789286 42.4306989,23.4996429 32.4605914,14.3967857 C25.0407527,7.64678571 17.8615054,0.896785714 17.7845161,0.781071429 C17.7185159,0.710582912 17.7185159,0.60084566 17.7845161,0.530357143 C17.8516333,0.465452149 17.9579903,0.465452149 18.0251075,0.530357143 C18.3138172,0.800357143 46.6939785,27.5303571 49.3019892,28.6007143 C49.3899695,28.6403453 49.4320921,28.7416412 49.3982258,28.8321429 C49.3508662,28.8660854 49.2907174,28.876721 49.2346237,28.8610714 Z" id="Path" fill="#AC88BE"></path>
                                <path d="M34.0484946,15.7275 C34.0034626,15.7301589 33.9593333,15.714069 33.9265376,15.6830335 C33.893742,15.6519981 33.8751907,15.6087715 33.8752688,15.5635714 L33.4037097,4.1175 C33.3869173,4.04760966 33.4148598,3.97457971 33.4739774,3.93384987 C33.533095,3.89312003 33.6111523,3.89312003 33.6702699,3.93384987 C33.7293875,3.97457971 33.75733,4.04760966 33.7405376,4.1175 L34.2217204,15.5732143 C34.2169108,15.6670065 34.1421001,15.7419665 34.0484946,15.7467857 L34.0484946,15.7275 Z" id="Path" fill="#AC88BE"></path>
                                <path d="M25.2524731,7.61785735 C25.1604388,7.61799956 25.0843602,7.54600422 25.0792473,7.45392857 L24.6269355,0.597857143 C24.6237612,0.54662666 24.6433798,0.496615627 24.6805192,0.461262725 C24.7176587,0.425909822 24.76851,0.408840986 24.8194086,0.414642857 C24.8643941,0.409241191 24.9096008,0.422773789 24.9442569,0.45201608 C24.9789129,0.481258372 24.9999148,0.523591614 25.0022581,0.568928571 L25.4545699,7.43464286 C25.4550915,7.52875255 25.3843698,7.60795216 25.2909677,7.61785735 L25.2524731,7.61785735 Z" id="Path" fill="#AC88BE"></path>
                                <path d="M23.0005376,5.52535714 L13.7233333,5.52535714 C13.6276634,5.52535714 13.5501075,5.44764657 13.5501075,5.35178571 C13.5501075,5.25592486 13.6276634,5.17821429 13.7233333,5.17821429 L23.0005376,5.17821429 C23.0962076,5.17821429 23.1737634,5.25592486 23.1737634,5.35178571 C23.1737634,5.44764657 23.0962076,5.52535714 23.0005376,5.52535714 L23.0005376,5.52535714 Z" id="Path" fill="#AC88BE"></path>
                                <path d="M15.4652151,13.5867891 C15.3765838,13.5873354 15.3018357,13.52076 15.2919892,13.4325 C15.2865908,13.3864109 15.2998361,13.340075 15.3287676,13.3038385 C15.3576991,13.267602 15.3999073,13.2444827 15.4459677,13.2396429 L30.150914,11.8221429 C30.1958994,11.8167412 30.2411062,11.8302738 30.2757622,11.8595161 C30.3104183,11.8887584 30.3314202,11.9310916 30.3337634,11.9764286 C30.3391619,12.0225176 30.3259166,12.0688535 30.2969851,12.1050901 C30.2680536,12.1413266 30.2258454,12.1644459 30.1797849,12.1692857 L15.4844624,13.5867891 L15.4652151,13.5867891 Z" id="Path" fill="#AC88BE"></path>
                                <path d="M22.1632796,23.7600003 C22.0765532,23.7601505 22.0047788,23.6924633 21.9996774,23.6057143 C21.9942865,23.5606391 22.0077922,23.5153421 22.0369762,23.4806169 C22.0661603,23.4458917 22.1084092,23.4248479 22.1536559,23.4225 L41.1796237,21.8410714 C41.2246091,21.8356698 41.2698158,21.8492024 41.3044719,21.8784447 C41.339128,21.9076869 41.3601298,21.9500202 41.3624731,21.9953571 C41.3678716,22.0414462 41.3546263,22.0877821 41.3256948,22.1240186 C41.2967633,22.1602552 41.2545551,22.1833745 41.2084946,22.1882143 L22.1921505,23.7600003 L22.1632796,23.7600003 Z" id="Path" fill="#AC88BE"></path>
                            </g>
                            <g id="Illustration-4" transform="translate(37.532258, 0.000000)" fill-rule="nonzero">
                                <path d="M40.3712366,0.0964285714 C40.3712366,0.0964285714 27.4947849,16.4892857 35.0589785,47.5007143 L37.0991935,58.2139286 C37.0991935,58.2139286 46.5015054,29.7771429 43.4411828,14.9367857 L40.3712366,0.0964285714 Z" id="Path" fill="#2A8592"></path>
                                <path d="M64.1705376,22.9885714 C64.1705376,22.9885714 43.7106452,25.3896429 37.3301613,58.1078571 C37.3301613,58.1078571 45.9914516,57.1435714 52.0351075,43.2867857 C58.0787634,29.43 56.1829032,25.2932143 64.1705376,22.9885714 Z" id="Path" fill="#2A8592"></path>
                                <path d="M0.442688172,16.0264286 C0.442688172,16.0264286 30.093172,29.0635714 37.4360215,58.1078571 C37.4360215,58.1078571 5.57209677,43.2 0.442688172,16.0264286 Z" id="Path" fill="#2A8592"></path>
                                <path d="M38.9854301,10.1828571 C38.9854301,10.1828571 39.8804301,39.6707143 37.310914,48.3107143" id="Path" fill="#3CB889"></path>
                                <path d="M33.7116667,54.6364303 C33.6150511,54.6368118 33.5293504,54.5743596 33.4999462,54.4821429 C31.9420563,50.5823017 29.7789289,46.9536242 27.0905914,43.7303571 C24.4523044,40.4975846 21.5556322,37.4854847 18.4293011,34.7239286 C15.0048316,31.6546166 11.378147,28.819643 7.5738172,26.2382143 C7.49463903,26.1983215 7.44522415,26.1165507 7.44660855,26.0277608 C7.44805205,25.9389708 7.50004545,25.8588214 7.58045355,25.8214801 C7.66086164,25.7841388 7.75550307,25.7961915 7.82403226,25.8525 C11.6600977,28.4377996 15.3129839,31.286034 18.7565054,34.3767857 C21.884097,37.1579152 24.7807443,40.1893386 27.4177957,43.4410714 C30.1345061,46.7026858 32.3203164,50.3735824 33.8945161,54.3182143 C33.9163502,54.3757478 33.9144109,54.4396265 33.8891271,54.4957238 C33.8638433,54.5518212 33.8172981,54.5955151 33.7597849,54.6171429 L33.7116667,54.6364303 Z" id="Path" fill="#3CB889"></path>
                                <path d="M52.4585484,34.2032143 C52.4585484,34.2032143 42.3633333,46.0253571 37.253172,55.2053571" id="Path" fill="#3CB889"></path>
                            </g>
                            <path d="M47.2810215,51.3096429 C47.2312695,53.6444424 48.2477002,55.8743371 50.0414013,57.3654973 C51.8351025,58.8566575 54.2099308,59.446023 56.4908602,58.9660714 L135.154624,58.9660714 C138.406536,58.8361763 140.976023,56.1568817 140.976023,52.8958929 C140.976023,49.634904 138.406536,46.9556094 135.154624,46.8257143 L134.192258,46.8257143 C134.220501,44.5760175 133.354934,42.4073703 131.786267,40.7975902 C130.2176,39.1878101 128.074552,38.2689893 125.829301,38.2435714 C124.302144,38.2422847 122.805194,38.6698836 121.50828,39.4778571 C119.575301,36.5638426 116.229619,34.9142191 112.746068,35.1575569 C109.262518,35.4008947 106.177636,37.4997148 104.666882,40.6542857 C103.662708,38.6185624 101.575625,37.3469406 99.3097532,37.3902844 C97.0438813,37.4336283 95.0067576,38.784142 94.0808602,40.8567857 C93.1623861,38.1898823 90.7013797,36.3637406 87.8876273,36.2612182 C85.0738748,36.1586958 82.4869975,37.8009118 81.3776344,40.3939286 C79.0389314,37.356949 75.4283241,35.5765301 71.6,35.5725 C65.8455538,35.6253892 60.869322,39.6047671 59.5415591,45.2153571 C58.2152009,44.1473115 56.566043,43.5624944 54.8644624,43.5567857 C50.6425984,43.6201919 47.2594356,47.0789355 47.2810215,51.3096429 Z" id="Path" fill="#9089E8" fill-rule="nonzero"></path>
                            <path d="M71.522668,55.6103571 C71.5076066,56.9197953 72.0120163,58.1817245 72.925257,59.1184884 C73.8384977,60.0552524 75.0857477,60.5901021 76.3925806,60.6053571 C76.7166748,60.60291 77.0394757,60.5640966 77.3549462,60.4896429 L127.600054,60.4896429 C129.726053,60.4896429 131.449516,58.7627412 131.449516,56.6325 C131.449516,54.5022588 129.726053,52.7753571 127.600054,52.7753571 L126.993763,52.7753571 C127.011742,51.3405978 126.460105,49.9574579 125.46023,48.9302699 C124.460355,47.9030818 123.094163,47.3160051 121.662258,47.2982143 C120.689441,47.3014088 119.736608,47.5751439 118.909892,48.0889286 C117.676005,46.2288856 115.540305,45.1760332 113.316712,45.3316163 C111.09312,45.4871993 109.124183,46.82725 108.160269,48.8410714 C107.519604,47.5467424 106.190877,46.7392493 104.749266,46.7681391 C103.307655,46.7970288 102.012213,47.65711 101.42371,48.9760714 C100.839129,47.2712966 99.2675199,46.1029877 97.4697272,46.0367448 C95.6719346,45.9705019 94.0189316,47.0199941 93.3109677,48.6771429 C91.826927,46.7283729 89.521258,45.583934 87.0748387,45.5817857 C83.4158384,45.6175083 80.2465533,48.134178 79.375914,51.6953571 C78.5280512,51.0182237 77.4768057,50.6478547 76.3925806,50.6442857 C73.6825901,50.6760612 71.5069453,52.8948214 71.522668,55.6103571 L71.522668,55.6103571 Z" id="Path" fill="#5AD2E3" fill-rule="nonzero"></path>
                            <g id="Illustration-5" transform="translate(0.000000, 10.607143)" fill="#5F45B9" fill-rule="nonzero">
                                <path d="M5.57209677,9.87428571 C3.65489715,8.93600721 2.06745911,7.43619754 1.02010753,5.57357143 C0.630266015,4.79996497 0.410401389,3.95163285 0.375322581,3.08571429 C0.25983871,2.18892857 0.134731183,1.15714286 0.789139785,0.588214286 C1.46588314,-0.045316612 2.49696774,-0.106089661 3.24317204,0.443571429 C3.70692896,0.951086982 3.98807909,1.59936189 4.04193548,2.28535714 L4.79258065,6.1425 C5.03317204,7.39607143 5.37,8.79428571 6.46709677,9.45" id="Path"></path>
                                <path d="M18.8431183,29.5553571 C17.1661437,29.2538248 15.4539471,29.2018365 13.761828,29.4010714 C12.5701506,29.6659799 11.3350107,29.6659799 10.1433333,29.4010714 C8.98849462,29.025 8.04537634,27.6653571 8.60354839,26.5853571 C9.16172043,25.5053571 10.3839247,25.4860714 11.4040323,25.5728571 C14.4089005,25.8454229 17.1707921,27.3406565 19.0452151,29.7096429" id="Path"></path>
                            </g>
                            <g id="Illustration-6" transform="translate(0.962366, 20.250000)">
                                <path d="M172.869731,13.1335714 C173.608247,12.7196911 174.508259,12.7196911 175.246774,13.1335714 C175.964417,13.5617139 176.532468,14.2016256 176.873172,14.9657143 C178.275831,18.1399049 176.9244,21.85737 173.812849,23.3839286 L174.775215,18.5625" id="Path" fill="#A38CC2" fill-rule="nonzero"></path>
                                <path d="M147.395914,16.3060714 C148.069905,16.8092681 148.434389,17.6273406 148.35828,18.4660714 C148.277465,19.299676 147.941316,20.0878333 147.395914,20.7225 C145.135091,23.3547152 141.200394,23.7212655 138.494032,21.5517857 L143.248118,20.3175" id="Path" fill="#A38CC2" fill-rule="nonzero"></path>
                                <path d="M154.392312,1.27285714 C155.127358,0.858814834 156.024685,0.858814834 156.759731,1.27285714 C157.479423,1.69850914 158.048133,2.33916244 158.386129,3.105 C159.844489,6.29935991 158.484112,10.0757236 155.325806,11.6003571 L156.240054,6.77892857" id="Path" fill="#A38CC2" fill-rule="nonzero"></path>
                                <path d="M16.7355376,42.6985714 C15.0140821,44.8166616 13.6043323,47.1709326 12.5492473,49.6896429 L12.5492473,53.8071429 C15.530563,50.9166949 17.0660876,46.8420888 16.7355376,42.6985714 L16.7355376,42.6985714 Z" id="Path" fill="#009F97" fill-rule="nonzero"></path>
                                <path d="M12.3086559,55.5814286 L12.5107527,47.8671429 C12.5107527,42.5828571 10.0855914,41.8307143 10.0855914,41.8307143" id="Path" stroke="#009F97" stroke-width="1.03" stroke-linecap="round" stroke-linejoin="round"></path>
                                <path d="M2.87747312,49.5353571 C2.87747312,49.5353571 8.74790323,49.2171429 10.6533871,51.0010714 C11.4811885,52.070159 12.0480343,53.3183871 12.3086559,54.6460714 C12.3086559,54.6460714 4.99467742,51.8592857 2.87747312,49.5353571 Z" id="Path" fill="#009F97" fill-rule="nonzero"></path>
                                <path d="M2.57913978,39.5646429 C2.57913978,39.5646429 6.52483871,44.3860714 11.9814516,42.2260714 C17.4380645,40.0660714 17.871129,36.0353571 18.0924731,33.5475 C18.0924731,33.5475 18.0924731,31.1753571 16.5815591,31.1753571 C15.6191935,31.1753571 14.9262903,32.4 14.9262903,32.4 C14.627957,32.7664286 14.2622581,34.0778571 13.4923656,32.8242857 C12.9787588,31.7292637 11.7926345,31.1191717 10.6052688,31.3392857 C9.96048387,31.5514286 9.71026882,32.6121429 9.57553763,33.1714286 C9.44080645,33.7307143 9.08473118,33.9525 8.22822581,33.48 C7.58344086,33.1135714 7.26586022,32.4192857 6.30349462,32.9689286 C5.34112903,33.5185714 6.05327957,34.8975 6.05327957,34.8975 C6.05327957,34.8975 6.82317204,36.3342857 5.09091398,35.6110714 C5.09091398,35.6110714 3.00258065,35.0710714 2.00172043,36.2667857 C0.856505376,37.6360714 2.57913978,39.5646429 2.57913978,39.5646429 Z" id="Path" fill="#9089E8" fill-rule="nonzero" opacity="0.8"></path>
                                <path d="M2.81010753,45.8614286 C2.81010753,45.8614286 8.58430108,47.4621429 11.0960753,42.7371429 C13.6078495,38.0121429 11.4521505,34.5985714 10.0567204,32.4964286 C10.0567204,32.4964286 8.60354839,30.6353571 7.52569892,31.4646429 C6.85204301,31.9853571 7.11188172,33.3932143 7.11188172,33.3932143 C7.11188172,33.8464286 7.67967742,35.0903571 6.36123656,34.5310714 C4.82145161,33.8657143 3.74360215,34.4153571 3.41639785,34.9457143 C3.08919355,35.4760714 3.57037634,36.45 3.8205914,36.9610714 C4.07080645,37.4721429 3.95532258,37.8482143 3.06032258,37.9253571 C2.37704301,38.0025 1.72263441,37.6264286 1.40505376,38.5810714 C1.08747312,39.5357143 2.42516129,40.2492857 2.42516129,40.2492857 C2.42516129,40.2492857 3.84946237,40.9628571 2.15569892,41.3775 C2.15569892,41.3775 0.346451613,42.1103571 0.365698925,43.605 C0.394569892,45.2828571 2.81010753,45.8614286 2.81010753,45.8614286 Z" id="Path" fill="#7460CE" fill-rule="nonzero"></path>
                            </g>
                            <g id="Illustration_copy_2" transform="translate(108.747312, 20.250000)">
                                <path d="M65.0847849,13.1335714 C65.8233004,12.7196911 66.7233125,12.7196911 67.461828,13.1335714 C68.1794707,13.5617139 68.747522,14.2016256 69.0882258,14.9657143 C70.4908851,18.1399049 69.1394533,21.85737 66.0279032,23.3839286 L66.9902688,18.5625" id="Path" fill="#B88DFC" fill-rule="nonzero"></path>
                                <path d="M39.6109677,16.3060714 C40.2849586,16.8092681 40.6494423,17.6273406 40.5733333,18.4660714 C40.4925187,19.299676 40.15637,20.0878333 39.6109677,20.7225 C37.3501447,23.3547152 33.415448,23.7212655 30.709086,21.5517857 L35.463172,20.3175" id="Path" fill="#B88DFC" fill-rule="nonzero"></path>
                                <path d="M46.6073656,1.27285714 C47.342412,0.858814834 48.2397386,0.858814834 48.9747849,1.27285714 C49.6944769,1.69850914 50.2631864,2.33916244 50.6011828,3.105 C52.0595431,6.29935991 50.6991658,10.0757236 47.5408602,11.6003571 L48.4551075,6.77892857" id="Path" fill="#B88DFC" fill-rule="nonzero"></path>
                                <path d="M1.95360215,47.5585714 C3.72128779,49.6655585 5.17659641,52.0168851 6.27462366,54.54 L6.27462366,58.6575 C3.22055366,55.8116365 1.62950028,51.7248742 1.95360215,47.5585714 Z" id="Path" fill="#009F97" fill-rule="nonzero"></path>
                                <path d="M6.53446237,60.4414286 L6.32274194,52.7271429 C6.32274194,47.4525 8.82489247,46.7003571 8.82489247,46.7003571" id="Path" stroke="#009F97" stroke-width="1.05" stroke-linecap="round" stroke-linejoin="round"></path>
                                <path d="M16.2543548,54.3857143 C16.2543548,54.3857143 10.2010753,54.0675 8.23784946,55.8610714 C7.36960393,56.9170242 6.76873305,58.1674768 6.48634409,59.5060714 C6.48634409,59.5060714 14.0794086,56.7192857 16.2543548,54.3857143 Z" id="Path" fill="#009F97" fill-rule="nonzero"></path>
                                <path d="M16.5719355,44.3860714 C16.5719355,44.3860714 12.4915054,49.2075 6.86166667,47.0475 C1.23182796,44.8875 0.779516129,40.8664286 0.558172043,38.3689286 C0.558172043,38.3689286 0.558172043,35.9967857 2.1172043,35.9871429 C3.07956989,35.9871429 3.8205914,37.2117857 3.8205914,37.2117857 C4.12854839,37.5782143 4.51349462,38.8992857 5.30263441,37.6457143 C5.85800335,36.5514728 7.05877088,35.9459848 8.26672043,36.1510714 C8.93075269,36.3728571 9.22908602,37.4239286 9.32532258,37.9832143 C9.42155914,38.5425 9.83537634,38.7739286 10.711129,38.2917857 C11.3751613,37.9253571 11.6734946,37.2310714 12.6358602,37.7903571 C13.5982258,38.3496429 12.8956989,39.7189286 12.8956989,39.7189286 C12.8956989,39.7189286 12.0969355,41.1653571 13.9350538,40.4421429 C13.9350538,40.4421429 16.0907527,39.9021429 17.1204839,41.0882143 C18.3426882,42.4575 16.5719355,44.3860714 16.5719355,44.3860714 Z" id="Path" fill="#9089E8" fill-rule="nonzero" opacity="0.8"></path>
                                <path d="M16.3313441,50.7117857 C16.3313441,50.7117857 10.3839247,52.3221429 7.77591398,47.5971429 C5.16790323,42.8721429 7.41021505,39.4585714 8.85376344,37.3564286 C8.85376344,37.3564286 10.3550538,35.4857143 11.4617742,36.3246429 C12.1546774,36.8453571 11.8852151,38.1953571 11.8852151,38.1953571 C11.8852151,38.6582143 11.3077957,39.8925 12.6551075,39.3332143 C14.2622581,38.6775 15.3689785,39.2271429 15.7058065,39.7575 C16.0426344,40.2878571 15.5422043,41.2521429 15.2823656,41.7632143 C15.0225269,42.2742857 15.1476344,42.66 16.0715054,42.7275 C16.7740323,42.795 17.4573118,42.4285714 17.7845161,43.3832143 C18.1117204,44.3378571 16.7355376,45.0514286 16.7355376,45.0514286 C16.7355376,45.0514286 15.2534946,45.7553571 17.005,46.1796429 C17.005,46.1796429 18.8719892,46.9125 18.8527419,48.3975 C18.8142473,50.1717857 16.3313441,50.7117857 16.3313441,50.7117857 Z" id="Path" fill="#7460CE" fill-rule="nonzero"></path>
                            </g>
                            <g id="Illustration-7" transform="translate(19.247312, 58.821429)" fill-rule="nonzero">
                                <rect id="Rectangle" fill="#00886E" x="6.64032258" y="2.16" width="1" height="5.57357143" rx="0.22"></rect>
                                <path d="M6.80392473,2.16 C6.80392473,2.16 5.72607527,4.73464286 0.519677419,2.94107143 C0.519677419,2.94107143 4.59048387,-2.01535714 6.80392473,1.34035714 C6.80392473,1.34035714 7.67967742,-1.46571429 12.0391935,1.34035714 C12.0391935,1.34035714 9.79688172,4.40678571 6.80392473,2.16 Z" id="Path" fill="#00886F"></path>
                                <path d="M3.92645161,2.33357143 C3.88923682,2.34763748 3.84818253,2.34763748 3.81096774,2.33357143 C3.77736316,2.30253502 3.75824665,2.25882914 3.75824665,2.21303571 C3.75824665,2.16724229 3.77736316,2.12353641 3.81096774,2.0925 C4.60882952,1.28710322 5.84473489,1.11357349 6.8327957,1.66821429 C7.4994721,0.949139924 8.58894336,0.822394626 9.40231183,1.36928571 C9.44291831,1.39288299 9.47145264,1.43282049 9.48065862,1.47894224 C9.4898646,1.52506398 9.47885521,1.57292601 9.45043011,1.61035714 C9.38152712,1.67066887 9.2787417,1.67066887 9.20983871,1.61035714 L9.20983871,1.61035714 C8.50474556,1.12246579 7.54222117,1.27051654 7.01564516,1.94785714 C6.94721027,1.99928571 6.85311231,1.99928571 6.78467742,1.94785714 C6.48390947,1.78859868 6.1586051,1.68103404 5.82231183,1.62964286 C5.17185827,1.50079107 4.50255983,1.73293355 4.07080645,2.23714286 C4.04705946,2.29597409 3.98978269,2.33423479 3.92645161,2.33357143 L3.92645161,2.33357143 Z" id="Path" fill="#0D6D5C"></path>
                            </g>
                            <g id="Illustration_copy_3" transform="translate(136.655914, 59.785714)" fill-rule="nonzero">
                                <rect id="Rectangle" fill="#00886E" x="6.64032258" y="2.70964286" width="1" height="5.57357143" rx="0.22"></rect>
                                <path d="M6.80392473,2.70964286 C6.80392473,2.70964286 5.72607527,5.28428571 0.519677419,3.49071429 C0.519677419,3.49071429 4.59048387,-1.46571429 6.80392473,1.89 C6.80392473,1.89 7.67967742,-0.916071429 12.0391935,1.89 C12.0391935,1.89 9.79688172,4.95642857 6.80392473,2.70964286 Z" id="Path" fill="#00886F"></path>
                                <path d="M3.91682796,2.92178571 C3.87915274,2.93304071 3.8390193,2.93304071 3.80134409,2.92178571 C3.73656833,2.85453462 3.73656833,2.74796538 3.80134409,2.68071429 C4.59920586,1.87531751 5.83511124,1.70178777 6.82317204,2.25642857 C7.49177524,1.54117508 8.57831786,1.41477049 9.39268817,1.9575 C9.42629276,1.98853641 9.44540927,2.03224229 9.44540927,2.07803571 C9.44540927,2.12382914 9.42629276,2.16753502 9.39268817,2.19857143 C9.32378519,2.25888315 9.22099976,2.25888315 9.15209677,2.19857143 L9.15209677,2.19857143 C8.44397786,1.70953799 7.4782878,1.85742702 6.94827957,2.53607143 C6.88411865,2.58946223 6.79109641,2.58946223 6.72693548,2.53607143 C6.42616754,2.37681296 6.10086316,2.26924833 5.76456989,2.21785714 C5.11708007,2.09061202 4.45139368,2.32277732 4.02268817,2.82535714 C4.00107713,2.86993472 3.963169,2.90446541 3.91682796,2.92178571 Z" id="Path" fill="#0D6D5C"></path>
                            </g>
                        </g>
                        <g id="Layer_15" transform="translate(62.000000, 123.000000)" fill-rule="nonzero">
                            <g id="Layer_35">
                                <ellipse id="Oval" fill="url(#linearGradient-1)" cx="20.3474419" cy="7.112" rx="19.5560465" ry="5.84266667"></ellipse>
                                <path d="M20.3474419,13.468 C15.6244633,13.5399718 10.9149499,12.9554776 6.35976744,11.732 C2.37418605,10.5466667 0.266976744,8.932 0.266976744,7.112 C0.266976744,5.292 2.37418605,3.67733333 6.35976744,2.44533333 C10.9164092,1.22992144 15.6251983,0.648659042 20.3474419,0.718666667 C25.0696854,0.648659042 29.7784745,1.22992144 34.3351163,2.44533333 C38.3206977,3.64 40.4374419,5.24533333 40.4374419,7.112 C40.4374419,8.97866667 38.3206977,10.5466667 34.3351163,11.732 C29.7799338,12.9554776 25.0704204,13.5399718 20.3474419,13.468 L20.3474419,13.468 Z M20.3474419,1.78266667 C15.7310046,1.7085432 11.1272522,2.27734736 6.6744186,3.472 C3.31813953,4.47066667 1.31581395,5.83333333 1.31581395,7.112 C1.31581395,8.39066667 3.31813953,9.75333333 6.6744186,10.752 C11.1272522,11.9466526 15.7310046,12.5154568 20.3474419,12.4413333 C24.9669744,12.5146997 29.5737647,11.9459169 34.03,10.752 C37.3767442,9.75333333 39.3790698,8.39066667 39.3790698,7.112 C39.3790698,5.83333333 37.3767442,4.47066667 34.03,3.472 C29.5737647,2.27808315 24.9669744,1.70930029 20.3474419,1.78266667 Z" id="Shape" fill="#37DD9E"></path>
                            </g>
                        </g>
                    </g>
                </g>
            </g>
        </g>
    </g>
</svg>