<svg xmlns="http://www.w3.org/2000/svg" xmlns:xlink="http://www.w3.org/1999/xlink" width="1068.26" height="1060.59" viewBox="0 0 1068.26 1060.59"><defs><style>.a,.aa,.ab,.ac,.ad,.ae,.af,.ag,.ah,.b,.c,.d,.e,.f,.g,.h,.i,.j,.k,.l,.m,.n,.o,.p,.q,.r,.s,.t,.u,.v,.w,.x,.y,.z{fill:none;stroke-miterlimit:10;stroke-width:2px;}.a{stroke:url(#a);}.b{stroke:url(#b);}.c{stroke:url(#c);}.d{stroke:url(#d);}.e{stroke:url(#e);}.f{stroke:url(#f);}.g{stroke:url(#g);}.h{stroke:url(#h);}.i{stroke:url(#i);}.j{stroke:url(#j);}.k{stroke:url(#k);}.l{stroke:url(#l);}.m{stroke:url(#m);}.n{stroke:url(#n);}.o{stroke:url(#o);}.p{stroke:url(#p);}.q{stroke:url(#q);}.r{stroke:url(#r);}.s{stroke:url(#s);}.t{stroke:url(#t);}.u{stroke:url(#u);}.v{stroke:url(#v);}.w{stroke:url(#w);}.x{stroke:url(#x);}.y{stroke:url(#y);}.z{stroke:url(#z);}.aa{stroke:url(#aa);}.ab{stroke:url(#ab);}.ac{stroke:url(#ac);}.ad{stroke:url(#ad);}.ae{stroke:url(#ae);}.af{stroke:url(#af);}.ag{stroke:url(#ag);}.ah{stroke:url(#ah);}</style><linearGradient id="a" x1="841.36" y1="840.9" x2="-254.78" y2="1081.31" gradientTransform="matrix(1, 0, 0, -1, 0, 1922)" gradientUnits="userSpaceOnUse"><stop offset="0.61" stop-color="#b88dfc"/><stop offset="0.95" stop-color="#95dde8"/></linearGradient><linearGradient id="b" x1="828.59" y1="844.28" x2="-237.85" y2="1078.17" xlink:href="#a"/><linearGradient id="c" x1="815.82" y1="847.68" x2="-220.95" y2="1075.07" xlink:href="#a"/><linearGradient id="d" x1="803.04" y1="851.06" x2="-204.04" y2="1071.94" xlink:href="#a"/><linearGradient id="e" x1="790.26" y1="854.42" x2="-187.17" y2="1068.79" xlink:href="#a"/><linearGradient id="f" x1="776.51" y1="858.03" x2="-171.23" y2="1065.89" xlink:href="#a"/><linearGradient id="g" x1="763.75" y1="861.42" x2="-154.33" y2="1062.78" xlink:href="#a"/><linearGradient id="h" x1="750.97" y1="864.82" x2="-137.42" y2="1059.66" xlink:href="#a"/><linearGradient id="i" x1="738.2" y1="868.18" x2="-120.53" y2="1056.52" xlink:href="#a"/><linearGradient id="j" x1="725.43" y1="871.59" x2="-103.63" y2="1053.43" xlink:href="#a"/><linearGradient id="k" x1="712.67" y1="874.98" x2="-86.74" y2="1050.32" xlink:href="#a"/><linearGradient id="l" x1="699.87" y1="878.4" x2="-69.82" y2="1047.21" xlink:href="#a"/><linearGradient id="m" x1="687.09" y1="881.82" x2="-52.97" y2="1044.13" xlink:href="#a"/><linearGradient id="n" x1="674.32" y1="885.23" x2="-36.09" y2="1041.03" xlink:href="#a"/><linearGradient id="o" x1="661.58" y1="888.69" x2="-19.19" y2="1038" xlink:href="#a"/><linearGradient id="p" x1="648.82" y1="892.09" x2="-2.31" y2="1034.9" xlink:href="#a"/><linearGradient id="q" x1="636.06" y1="895.52" x2="14.55" y2="1031.83" xlink:href="#a"/><linearGradient id="r" x1="623.32" y1="898.94" x2="31.45" y2="1028.75" xlink:href="#a"/><linearGradient id="s" x1="610.55" y1="902.42" x2="48.27" y2="1025.74" xlink:href="#a"/><linearGradient id="t" x1="597.79" y1="905.82" x2="65.09" y2="1022.66" xlink:href="#a"/><linearGradient id="u" x1="585.1" y1="909.31" x2="81.96" y2="1019.67" xlink:href="#a"/><linearGradient id="v" x1="572.37" y1="912.82" x2="98.79" y2="1016.7" xlink:href="#a"/><linearGradient id="w" x1="559.66" y1="916.27" x2="115.56" y2="1013.68" xlink:href="#a"/><linearGradient id="x" x1="546.93" y1="919.81" x2="132.4" y2="1010.73" xlink:href="#a"/><linearGradient id="y" x1="534.25" y1="923.35" x2="149.1" y2="1007.83" xlink:href="#a"/><linearGradient id="z" x1="521.56" y1="926.95" x2="165.79" y2="1004.98" xlink:href="#a"/><linearGradient id="aa" x1="508.88" y1="930.48" x2="182.46" y2="1002.07" xlink:href="#a"/><linearGradient id="ab" x1="496.22" y1="934.1" x2="199.15" y2="999.25" xlink:href="#a"/><linearGradient id="ac" x1="483.57" y1="937.71" x2="215.84" y2="996.43" xlink:href="#a"/><linearGradient id="ad" x1="471" y1="941.36" x2="232.56" y2="993.65" xlink:href="#a"/><linearGradient id="ae" x1="458.35" y1="945.09" x2="249.22" y2="990.95" xlink:href="#a"/><linearGradient id="af" x1="445.83" y1="948.97" x2="265.92" y2="988.43" xlink:href="#a"/><linearGradient id="ag" x1="433.43" y1="953.31" x2="282.65" y2="986.38" xlink:href="#a"/><linearGradient id="ah" x1="421.27" y1="959.17" x2="293.91" y2="987.1" xlink:href="#a"/></defs><path class="a" d="M701.84,1437.12c61-79.33,88.6-153.89,101.93-201.28,19.4-69,35-124.62,14.19-186.28-14-41.22-28-37.2-105.66-148.55-62.7-89.89-68.73-114.22-71.07-125.85-9.17-45.19,4.79-55.78-3.84-132.44-5.23-46.46-8.61-73.63-27.07-101.52-4.86-7.35-21.22-30.53-84.84-63.07-62.77-32.11-109.57-56-177.21-55.32-25.61.28-87,.93-142,39.54-38.16,26.78-32.31,43.09-101,108.11-51.78,49-73,56.63-87.38,60-27.62,6.39-33.49-2.38-87.21.43-41.15,2.15-63.55,3.32-89.38,16.41-40.76,20.65-59.5,55.49-63,62.21-6.8,13.12-26.13,55.45-11,102.95,9,28.4,26.44,46.31,35.42,55.35,30.19,30.36,47.76,23.22,70.58,47,20.61,21.53,25,47.13,32.85,97.46,7.19,46,7.34,81.63,7.26,108.74-.47,163.35-9.69,170.8,4.8,205.12,22.33,52.91,66.16,87.13,83.29,100.51,13.05,10.2,35.69,27.6,69.85,40.22,44.65,16.5,82.49,15.05,107.64,13.83,25.9-1.26,95.27-5.43,160.5-48.83,29.72-19.77,36.38-32.92,73.51-51.45,30.45-15.19,53-26.49,81.08-23.12,37.28,4.47,66.42,32.72,92.6,58.1,24.79,24,29.65,36.83,48.19,41.69C659.38,1463.53,684.46,1449.8,701.84,1437.12Z" transform="translate(239.4 -421.79)"/><path class="b" d="M805.67,1046.94c-13.61-40.19-27.37-36.48-102.84-144.59-38.26-54.75-54.92-84.48-62.56-101.81-4.54-10.33-5.91-16.28-6.78-20.51-9-43.92,4.43-54.32-4-128.81-4.53-39.81-7.67-65.1-20.66-89.15-1.74-3.23-3.65-6.43-5.78-9.64-4.76-7.27-20.65-29.87-82.36-61.54-60.89-31.39-106.25-54.79-172-54.3-24.89.19-84.5.76-137.93,38.13-37.1,25.91-31.51,41.67-98.27,104.69-50.28,47.47-70.91,54.88-84.95,58.12-26.83,6.19-32.59-2.3-84.75.44-40.09,2.12-62,3.39-87.14,16.24-33.84,17.24-52.08,44.52-58.79,56.33-1.16,2-2,3.56-2.47,4.53-6.59,13-25.19,54-10.48,100.49,8.76,27.6,25.63,45.09,34.36,54,29.19,29.63,46.3,22.75,68.39,46,12.36,13,18.67,27.53,23.47,48.32,2.94,12.81,5.31,28,8.17,46.59,6.9,44.69,7,79.3,6.72,105.79q-.06,8.38-.12,16.22c-1.26,143.12-9.24,151.15,4.33,183.47,21.66,51.64,64.5,85.1,81.34,98.22,5.46,4.25,12.57,9.74,21.48,15.59a229.34,229.34,0,0,0,46.81,23.66c43.54,16.08,80.48,14.69,105.19,13.52,25.28-1.21,92.71-5.25,156.1-47.32,28.91-19.17,35.45-31.91,71.54-49.89,29.59-14.73,51.59-25.68,78.85-22.43,36.27,4.33,64.61,31.71,90.1,56.3,24.1,23.29,28.87,35.67,46.9,40.36,23.92,6.23,48.28-7.13,65.16-19.47,59.44-77.13,86.37-149.74,99.34-196C810.85,1161.22,826,1107,805.67,1046.94Z" transform="translate(239.4 -421.79)"/><path class="c" d="M793.39,1044.33c-13.28-39.19-26.76-35.77-100-140.65-37.23-53.18-53.56-82.07-61-98.88a92.14,92.14,0,0,1-6.64-19.93c-8.9-42.62,4.07-52.84-4.24-125.16C617,621.06,614,596.45,601.33,573c-1.69-3.14-3.56-6.25-5.61-9.38-4.7-7.17-20.09-29.21-79.88-60C456.82,473,412.91,450.12,349,450.37c-24.17.1-82,.58-133.83,36.72-36,25-30.7,40.26-95.48,101.27-48.81,46-68.87,53.13-82.56,56.26-26,6-31.7-2.22-82.28.44-39.05,2.11-60.42,3.47-84.91,16.06-32.89,16.86-50.58,43.51-57.14,55.09-1.11,2-1.91,3.48-2.39,4.43-6.42,12.78-24.27,52.65-10,98,8.49,26.79,24.82,43.87,33.3,52.56,28.19,28.9,44.83,22.28,66.19,44.93,12,12.68,18,26.82,22.66,47,2.8,12.5,5.06,27.23,7.79,45.32,6.6,43.38,6.46,77,6.17,102.84q-.09,8.14-.16,15.77c-1.45,139-9.32,146.93,3.83,178.48,21,50.37,62.83,83.06,79.41,95.93,5.36,4.15,12.31,9.51,21,15.2a225.19,225.19,0,0,0,45.72,23.08c42.44,15.64,78.48,14.31,102.73,13.2,24.7-1.15,90.16-5.07,151.72-45.82,28.07-18.57,34.52-30.9,69.55-48.32,28.76-14.27,50.15-24.88,76.64-21.73,35.26,4.17,62.83,30.67,87.61,54.49,23.42,22.55,28.09,34.53,45.61,39,23.24,6,46.89-7,63.33-19,57.81-74.9,84.06-145.56,96.71-190.76C798.54,1155.61,813.2,1102.78,793.39,1044.33Z" transform="translate(239.4 -421.79)"/><path class="d" d="M781.11,1041.7c-13-38.18-26.16-35.08-97.21-136.66-36.21-51.63-52.15-79.65-59.44-96A90.23,90.23,0,0,1,618,789.73c-8.77-41.34,3.71-51.37-4.44-121.52-4.37-37.51-7.41-61.43-19.67-84.21-1.65-3.06-3.47-6.08-5.46-9.13-4.61-7.08-19.6-28.39-77.4-58.48-57.22-29.78-99.63-52.28-161.61-52.26-23.45,0-79.5.4-129.78,35.3-34.94,24.17-29.9,38.85-92.68,97.86-47.29,44.46-66.79,51.38-80.1,54.41-25.27,5.81-30.8-2.15-79.82.45-38,2.09-58.86,3.54-82.68,15.91-31.94,16.48-49.12,42.48-55.49,53.85-1.07,1.92-1.85,3.39-2.31,4.33-6.23,12.6-23.35,51.24-9.47,95.54,8.23,26,24,42.65,32.25,51.18,27.19,28.17,43.36,21.82,64,43.87,11.55,12.35,17.46,26.11,21.82,45.77,2.71,12.15,4.82,26.49,7.42,44,6.31,42.07,6,74.64,5.63,99.89-.09,5.28-.13,10.38-.21,15.32-1.67,134.86-9.42,142.74,3.31,173.49,20.34,49.12,61.17,81,77.46,93.63,5.25,4.08,12.05,9.32,20.5,14.83a219.29,219.29,0,0,0,44.64,22.49c41.33,15.21,76.5,14,100.29,12.9,24.06-1.12,87.59-4.89,147.31-44.31,27.29-18,33.59-29.91,67.6-46.76,27.92-13.81,48.7-24.08,74.41-21,34.23,4,61,29.67,85.09,52.67,22.72,21.81,27.31,33.38,44.32,37.73,22.55,5.78,45.49-6.82,61.46-18.47,56.19-72.71,81.78-141.4,94.08-185.52C786.23,1150,800.39,1098.57,781.11,1041.7Z" transform="translate(239.4 -421.79)"/><path class="e" d="M768.83,1039.11c-12.63-37.18-25.56-34.36-94.4-132.71-35.18-50-50.76-77.24-57.88-93a89.55,89.55,0,0,1-6.34-18.75c-8.64-40.05,3.35-49.9-4.63-117.88-4.3-36.36-7.3-59.59-19.2-81.75-1.57-3-3.37-5.89-5.29-8.86-4.53-7-19.06-27.69-74.91-57-55.37-29-96.32-51-156.41-51.24-22.73-.07-77,.21-125.7,33.9-33.87,23.3-29.1,37.43-89.91,94.45-45.78,43-64.71,49.63-77.66,52.56-24.5,5.6-29.91-2.07-77.36.45-37,2.07-57.29,3.61-80.44,15.74-31,16.11-47.66,41.46-53.84,52.61-1,1.87-1.79,3.31-2.26,4.22-6,12.46-22.49,49.87-8.95,93.08,7.9,25.2,23.21,41.43,31.19,49.79,26.19,27.43,41.91,21.35,61.81,42.81,11.14,12,16.84,25.4,21,44.49,2.58,11.86,4.57,25.75,7,42.77,6,40.76,5.6,72.32,5.07,96.94-.1,5.12-.16,10.08-.24,14.88-2.22,130.71-9.52,138.53,2.78,168.5,19.66,47.85,59.52,79,75.53,91.34,5.16,4,11.79,9.07,20,14.44a215.15,215.15,0,0,0,43.55,21.91c40.23,14.79,74.49,13.58,97.83,12.57s85-4.7,142.93-42.81c26.47-17.36,32.65-28.9,65.6-45.19C434.84,1324,455,1314.11,480,1317c33.22,3.9,59.22,28.67,82.6,50.87,22,21.07,26.52,32.22,43,36.39,21.87,5.56,44.13-6.66,59.6-18,54.6-70.5,79.53-137.25,91.49-180.25C773.92,1144.37,787.59,1094.35,768.83,1039.11Z" transform="translate(239.4 -421.79)"/><path class="f" d="M756.55,1036.49c-12.31-36.17-25-33.64-91.59-128.74-34.15-48.49-49.38-74.82-56.32-90.11a87,87,0,0,1-6.18-18.17c-8.5-38.77,3-48.43-4.84-114.23C593.41,650,590.45,627.47,578.9,606c-1.55-2.88-3.27-5.72-5.12-8.6-4.44-6.91-18.53-27-72.42-55.42-53.53-28.24-93-49.76-151.22-50.23-22-.15-74.49,0-121.61,32.46-32.79,22.43-28.29,36-87.11,91-44.29,41.45-62.66,47.85-75.24,50.7-23.73,5.36-29-2-74.9.46-35.92,2-55.7,3.74-78.2,15.58-30,15.8-46.2,40.42-52.2,51.37-1,1.83-1.73,3.22-2.16,4.12-5.85,12.27-21.61,48.48-8.44,90.62,7.64,24.4,22.41,40.21,30.14,48.4,25.2,26.7,40.44,20.88,59.62,41.76,10.73,11.69,16.22,24.69,20.17,43.22,2.46,11.52,4.33,25,6.67,41.47,5.71,39.46,5.16,70,4.53,94-.13,5-.2,9.77-.29,14.43-2.53,126.6-9.62,134.32,2.26,163.5,19,46.6,57.86,77,73.57,89.05,5.07,3.9,11.55,8.85,19.52,14.07A210.37,210.37,0,0,0,109,1399.27c39.12,14.36,72.49,13.2,95.37,12.26s82.48-4.51,138.53-41.3c25.66-16.75,31.73-27.9,63.63-43.63,26.24-12.89,45.82-22.47,70-19.64,32.2,3.75,57.47,27.6,80.09,49.06,21.38,20.28,25.74,31.07,41.73,35.07,21.18,5.33,42.73-6.51,57.74-17.48,53-68.28,77.27-133.09,88.88-175C761.6,1138.75,774.78,1090.13,756.55,1036.49Z" transform="translate(239.4 -421.79)"/><path class="g" d="M744.28,1033.88c-12-35.16-24.37-32.91-88.78-124.79-33.13-46.92-48-72.39-54.76-87.17a85.62,85.62,0,0,1-6-17.59c-8.37-37.48,2.63-47-5-110.59-4.13-34.07-7-55.93-18.24-76.82-1.49-2.79-3.16-5.54-4.95-8.34-4.37-6.82-18-26.28-69.94-53.89-51.69-27.46-89.71-48.5-146-49.21-21.29-.22-72-.14-117.53,31.06-31.72,21.56-27.49,34.61-84.33,87.62C105.87,664.1,88.07,670.26,75.85,673c-23,5.16-28.13-2-72.44.46-34.87,1.95-54.12,3.82-76,15.41-29.08,15.44-44.72,39.4-50.55,50.13-1,1.77-1.68,3.13-2.09,4-5.66,12.1-20.7,47.09-7.92,88.15,7.35,23.6,21.61,39,29.09,47,24.2,26,39,20.42,57.42,40.7,10.32,11.36,15.63,24,19.35,41.94C-24.92,972-23.17,985.07-21,1001c5.41,38.15,4.72,67.66,4,91-.17,4.81-.23,9.47-.34,14-2.81,122.45-9.72,130.13,1.75,158.53,18.32,45.33,56.19,74.91,71.62,86.74,5,3.82,11.3,8.62,19,13.68a206,206,0,0,0,41.39,20.75c38,13.92,70.5,12.83,93,11.93,22.23-1,79.93-4.33,134.14-39.79,24.85-16.16,30.79-26.9,61.64-42.06,25.39-12.43,44.38-21.67,67.76-19,31.19,3.61,55.68,26.58,77.59,47.25,20.7,19.52,25,29.92,40.44,33.74,20.5,5.11,41.33-6.35,55.88-17,51.38-66.09,75-128.93,86.27-169.73C749.29,1133.13,762,1085.92,744.28,1033.88Z" transform="translate(239.4 -421.79)"/><path class="h" d="M732,1031.27c-11.65-34.15-23.76-32.23-86-120.83-32.08-45.35-46.58-70-53.18-84.25a85.51,85.51,0,0,1-5.88-17c-8.24-36.2,2.26-45.47-5.23-107-4.06-32.9-6.93-54.1-17.76-74.35-1.44-2.7-3.06-5.37-4.79-8.08-4.29-6.74-17.43-25.57-67.45-52.36-49.85-26.69-86.39-47.25-140.82-48.19-20.58-.33-69.42-.23-113.45,29.64-30.6,20.76-26.69,33.2-81.54,84.21-41.29,38.43-58.52,44.34-70.38,47-22.19,5-27.23-2-70,.47-33.82,1.91-52.56,3.9-73.72,15.25-28.13,15.07-43.26,38.36-48.9,48.89-.92,1.72-1.61,3-2,3.9-5.47,11.94-19.8,45.69-7.4,85.68,7.07,22.8,20.79,37.76,28,45.62,23.2,25.22,37.51,20,55.23,39.65,9.91,11,15,23.29,18.52,40.66,2.22,10.89,3.8,23.53,5.91,38.94,5,36.85,4.29,65.33,3.44,88.09-.18,4.65-.26,9.17-.38,13.54-3.12,118.31-9.84,125.91,1.22,153.53,17.65,44.07,54.54,72.87,69.68,84.45,4.87,3.74,11,8.4,18.54,13.29A199.89,199.89,0,0,0,124,1372.22c36.92,13.5,68.5,12.52,90.47,11.64,21.62-.87,77.36-4.15,129.74-38.29,24-15.56,29.87-25.91,59.66-40.5,24.57-12,42.94-20.87,65.54-18.26,30.18,3.47,53.9,25.57,75.1,45.47,20,18.77,24.17,28.77,39.14,32.41,19.82,4.89,40-6.19,54-16.47,49.79-63.86,72.74-124.78,83.67-164.47C737,1127.52,749.17,1081.7,732,1031.27Z" transform="translate(239.4 -421.79)"/><path class="i" d="M719.7,1028.67c-11.33-33.16-23-31.63-83.16-116.86-31-43.86-45.19-67.57-51.62-81.32a82.56,82.56,0,0,1-5.73-16.41c-8.1-34.92,1.9-44-5.43-103.31-4-31.77-6.81-52.27-17.27-71.88-1.4-2.62-3-5.19-4.63-7.82-4.2-6.66-16.89-24.87-65-50.84s-83.08-46-135.62-47.17c-19.86-.41-66.91-.4-109.37,28.23-29.52,19.9-25.88,31.79-78.75,80.79C123.36,679,106.7,684.67,95.2,687.2c-21.41,4.75-26.34-1.9-67.51.47-32.78,1.89-51,4-71.5,15.09C-71,717.47-85.6,740.09-91,750.41c-.88,1.68-1.54,3-1.93,3.8-5.29,11.77-18.91,44.31-6.89,83.21,6.79,22,20,36.54,27,44.23,22.19,24.47,36.05,19.47,53,38.59,9.51,10.7,14.37,22.57,17.7,39.39,2.09,10.57,3.55,22.79,5.52,37.67,4.73,35.54,3.85,63,2.88,85.15-.19,4.49-.28,8.85-.41,13.08-3.42,114.18-9.93,121.72.7,148.54,17,42.82,52.87,70.85,67.73,82.16,4.78,3.64,10.78,8.19,18.06,12.91a192.7,192.7,0,0,0,39.23,19.58c35.81,13.07,66.51,12.17,88,11.33,21-.81,74.73-4.06,125.35-36.78,23.19-15,28.94-24.89,57.68-38.93,23.74-11.5,41.5-20.07,63.32-17.56,29.16,3.33,52.1,24.54,72.59,43.65,19.33,18,23.39,27.61,37.86,31.09,19.12,4.64,38.55-6,52.15-16,48.19-61.65,70.45-120.59,81.05-159.21C724.66,1121.9,736.36,1077.48,719.7,1028.67Z" transform="translate(239.4 -421.79)"/><path class="j" d="M707.42,1026c-11-32.13-22.35-30.94-80.35-112.9-29.92-42.3-43.81-65.15-50-78.39a79.42,79.42,0,0,1-5.59-15.84c-8-33.63,1.54-42.52-5.63-99.66-3.89-30.64-6.68-50.43-16.78-69.41-1.35-2.52-2.87-5-4.46-7.56-4.11-6.57-16.35-24.16-62.49-49.31s-79.79-44.72-130.43-46.15c-19.14-.5-64.39-.57-105.3,26.81-28.43,19-25.07,30.38-76,77.38-38.29,35.43-54.39,40.83-65.52,43.28-20.63,4.55-25.45-1.84-65.06.48-31.73,1.86-49.41,4.07-69.25,14.92A115.22,115.22,0,0,0-75,756.1c-.85,1.63-1.52,2.86-1.86,3.69-5.1,11.61-18,42.9-6.36,80.75,6.51,21.19,19.17,35.32,25.91,42.84,21.21,23.72,34.58,19,50.84,37.53C2.6,931.28,7.25,942.77,10.38,959c2,10.25,3.3,22.06,5.15,36.38,4.43,34.24,3.42,60.68,2.34,82.2-.21,4.34-.32,8.55-.46,12.64-3.69,110-10,117.51.18,143.56,16.31,41.55,51.21,68.8,65.79,79.86,4.68,3.55,10.52,8,17.56,12.52a187.87,187.87,0,0,0,38.15,19c34.72,12.65,64.53,11.8,85.56,11,20.4-.76,72.18-3.9,121-35.27,22.37-14.4,28-23.89,55.71-37.37,22.89-11,40-19.27,61.1-16.86,28.13,3.18,50.3,23.51,70.09,41.83,18.64,17.27,22.6,26.46,36.56,29.77,18.43,4.43,37.16-5.88,50.28-15.48,46.59-59.45,68.21-116.45,78.45-154C712.35,1116.28,723.55,1073.27,707.42,1026Z" transform="translate(239.4 -421.79)"/><path class="k" d="M695.14,1023.43c-10.68-31.13-21.73-30.24-77.54-108.95-28.88-40.74-42.4-62.73-48.48-75.45a79,79,0,0,1-5.44-15.25c-7.82-32.35,1.19-41.06-5.83-96-3.81-29.47-6.56-48.6-16.31-67-1.3-2.44-2.77-4.83-4.29-7.29-4-6.49-15.81-23.47-60-47.77S400.78,562.26,352,560.6c-18.42-.58-61.88-.73-101.2,25.37-27.36,18.19-24.28,29-73.18,74-36.8,33.92-52.32,39.07-63.09,41.43-19.87,4.34-24.56-1.78-62.6.49-30.69,1.83-47.84,4.16-67,14.76A111.5,111.5,0,0,0-59,761.8c-.79,1.57-1.44,2.77-1.78,3.58-4.91,11.44-17.11,41.5-5.85,78.29,6.23,20.4,18.36,34.09,24.85,41.47,20.23,23,33.12,18.54,48.65,36.45,8.7,10,13.14,21.16,16.06,36.84,1.82,9.93,3,21.32,4.77,35.12,4.12,32.91,3,58.34,1.8,79.25-.24,4.18-.35,8.24-.5,12.19-4,105.91-10.14,113.31-.35,138.57,15.65,40.29,49.55,66.77,63.84,77.57,4.57,3.47,10.27,7.76,17.07,12.15a182.74,182.74,0,0,0,37.07,18.41c33.61,12.22,62.51,11.44,83.1,10.7,19.79-.7,69.62-3.72,116.58-33.77,21.56-13.8,27.07-22.88,53.72-35.79,22.06-10.58,38.61-18.47,58.89-16.18,27.11,3,48.51,22.5,67.58,40,18,16.51,21.83,25.31,35.27,28.44,17.75,4.2,35.78-5.72,48.42-15,45-57.24,65.93-112.29,75.84-148.7C700,1110.66,710.75,1069.05,695.14,1023.43Z" transform="translate(239.4 -421.79)"/><path class="l" d="M682.86,1020.82c-10.35-30.12-21.11-29.53-74.72-105-27.86-39.18-41-60.31-46.92-72.53a75.51,75.51,0,0,1-5.28-14.66c-7.68-31.06.83-39.58-6-92.38-3.73-28.32-6.44-46.76-15.83-64.48-1.26-2.35-2.67-4.66-4.13-7C526,658.34,514.69,642,472.44,618.5c-42.47-23.61-73.15-42.22-120-44.11-17.7-.67-59.36-.89-97.12,24C229,615.7,231.81,625.93,184.9,668.93c-35.3,32.41-50.26,37.31-60.69,39.57-19.08,4.14-23.66-1.72-60.11.49-29.64,1.79-46.26,4.23-64.78,14.59A107.75,107.75,0,0,0-43,767.51c-.77,1.52-1.37,2.7-1.7,3.48-4.7,11.28-16.19,40.1-5.33,75.81,6,19.59,17.56,32.86,23.8,40.07C-7,909.08,5.45,904.93,20.25,922.28c8.28,9.72,12.51,20.45,15.22,35.56,1.72,9.62,2.8,20.58,4.4,33.84,3.81,31.62,2.56,56,1.25,76.3-.26,4-.38,7.92-.54,11.75-4.3,101.76-10.24,109.1-.85,133.58,15,39,47.88,64.74,61.88,75.27,4.5,3.38,10,7.53,16.58,11.76a177.73,177.73,0,0,0,36,17.83c32.52,11.79,60.51,11.08,80.65,10.39,19.17-.65,67-3.55,112.17-32.27,20.75-13.21,26.12-21.93,51.76-34.23,21.2-10.18,37.16-17.67,56.66-15.48,26.11,2.9,46.72,21.47,65.09,38.22,17.27,15.76,21,24.13,34,27.12,17.08,3.95,34.39-5.56,46.56-14.49,43.38-55,63.59-108.15,73.24-143.44C687.63,1105,697.93,1064.83,682.86,1020.82Z" transform="translate(239.4 -421.79)"/><path class="m" d="M670.58,1018.2c-10-29.1-20.49-28.85-71.92-101-26.8-37.62-39.62-57.9-45.35-69.6a76.46,76.46,0,0,1-5.14-14.08c-7.54-29.78.47-38.11-6.22-88.74-3.65-27.17-6.32-44.93-15.35-62-1.2-2.27-2.57-4.49-4-6.78-3.87-6.32-14.72-22.05-55-44.71-40.63-22.84-69.84-41-114.82-43.1-17-.76-56.87-1.07-93,22.57-25.2,16.46-22.67,26.15-67.62,67.13-33.8,30.91-48.19,35.56-58.23,37.72-18.32,3.93-22.75-1.66-57.68.49-28.59,1.76-44.7,4.31-62.54,14.42A104,104,0,0,0-27,773.19c-.74,1.47-1.32,2.6-1.63,3.37-4.52,11.11-15.29,38.71-4.82,73.34,5.66,18.79,16.75,31.64,22.75,38.68C7.57,910,19.51,906.19,33.58,922.94c7.88,9.39,11.9,19.75,14.41,34.28,1.6,9.29,2.55,19.84,4,32.56,3.5,30.31,2.12,53.68.7,73.35-.28,3.87-.41,7.64-.58,11.3-4.59,97.63-10.34,104.88-1.39,128.59,14.3,37.77,46.22,62.7,59.94,73,4.4,3.3,9.77,7.31,16.09,11.38a172.31,172.31,0,0,0,34.91,17.25c31.41,11.36,58.52,10.71,78.2,10.08,18.57-.6,64.49-3.38,107.79-30.77,19.93-12.61,25.18-20.93,49.77-32.65,20.35-9.72,35.7-16.87,54.44-14.79,25.09,2.76,44.93,20.45,62.59,36.41,16.59,15,20.26,23,32.68,25.79,16.39,3.72,33-5.41,44.7-14,41.77-52.83,61.31-104,70.62-138.18C675.31,1099.41,685.14,1060.61,670.58,1018.2Z" transform="translate(239.4 -421.79)"/><path class="n" d="M658.3,1015.59c-9.71-28.1-19.87-28.15-69.1-97.06-25.77-36.07-38.24-55.48-43.79-66.68a74.75,74.75,0,0,1-5-13.49c-7.4-28.49.1-36.64-6.43-85.1-3.56-26-6.19-43.09-14.87-59.54-1.15-2.18-2.46-4.31-3.79-6.52-3.78-6.23-14.19-21.34-52.56-43.18C424,622,396.24,604.31,353.15,601.93c-16.26-.83-54.35-1.25-89,21.16-24.12,15.61-21.87,24.72-64.81,63.73-32.3,29.39-46.13,33.8-55.81,35.86-17.53,3.71-21.88-1.6-55.22.49-27.55,1.73-43.13,4.4-60.31,14.25a100.27,100.27,0,0,0-39,41.46c-.7,1.43-1.26,2.52-1.56,3.27-4.32,11-14.37,37.3-4.29,70.88,5.39,18,15.94,30.4,21.68,37.29C22.14,911,33.6,907.46,47,923.61c7.46,9.06,11.27,19,13.57,33,1.48,9,2.3,19.1,3.65,31.28,3.2,29,1.7,51.35.15,70.41-.3,3.71-.44,7.33-.63,10.85-4.87,93.49-10.44,100.7-1.91,123.62,13.64,36.51,44.57,60.67,58,70.68,4.3,3.21,9.51,7.09,15.61,11a167.22,167.22,0,0,0,33.83,16.67c30.29,10.93,56.52,10.35,75.74,9.76,18-.55,61.92-3.21,103.39-29.26,19.12-12,24.25-19.93,47.8-31.1,19.52-9.26,34.27-16,52.23-14.09,24.06,2.61,43.13,19.43,60.08,34.61,15.9,14.25,19.47,21.82,31.39,24.47,15.68,3.49,31.6-5.25,42.83-13.49,40.17-50.62,59-99.84,68-132.93C663,1093.78,672.33,1056.39,658.3,1015.59Z" transform="translate(239.4 -421.79)"/><path class="o" d="M646,1013c-9.38-27.09-19.26-27.46-66.3-93.11-24.73-34.5-36.84-53.06-42.22-63.74a73.07,73.07,0,0,1-4.84-12.91c-7.26-27.2-.26-35.17-6.62-81.48-3.49-24.86-6.07-41.25-14.39-57.07-1.1-2.09-2.36-4.14-3.63-6.25-3.7-6.15-13.65-20.66-50.07-41.66-36.94-21.3-63.22-38.45-104.42-41.07-15.55-.92-51.85-1.4-84.89,19.75-23,14.74-21.06,23.31-62,60.31-30.8,27.89-44.06,32-53.38,34-16.78,3.53-21-1.53-52.75.5-26.5,1.7-41.55,4.48-58.07,14.09A96.67,96.67,0,0,0,5.08,784.54c-.66,1.38-1.19,2.41-1.48,3.16C-.54,798.49-9.88,823.62-.18,856.11,4.94,873.3,15,885.29,20.45,892c16.29,19.92,27.27,16.68,39.88,32.25C67.39,933,71,942.6,73.09,956c1.35,8.65,2,18.36,3.26,30,2.89,27.69,1.25,49-.39,67.45-.34,3.55-.47,7-.67,10.4-5.16,89.36-10.55,96.5-2.43,118.62,13,35.25,42.9,58.63,56.05,68.38,4.21,3.13,9.26,6.87,15.11,10.62a162.41,162.41,0,0,0,32.76,16.07c29.19,10.5,54.52,10,73.29,9.45,17.34-.5,59.33-3,99-27.76,18.3-11.41,23.32-18.93,45.82-29.52,18.68-8.8,32.83-15.26,50-13.4,23.06,2.48,41.35,18.41,57.58,32.81,15.22,13.5,18.7,20.66,30.1,23.14,15,3.27,30.22-5.09,41-13,38.58-48.36,56.77-95.64,65.4-127.64C650.66,1088.16,659.52,1052.18,646,1013Z" transform="translate(239.4 -421.79)"/><path class="p" d="M633.74,1010.36c-9-26.08-18.64-26.76-63.48-89.14-23.69-33-35.45-50.64-40.66-60.81a72.61,72.61,0,0,1-4.69-12.33c-7.11-25.91-.61-33.69-6.82-77.81-3.41-23.72-6-39.42-13.9-54.62-1.06-2-2.25-4-3.47-6-3.61-6.07-13.11-19.95-47.59-40.13-35.1-20.53-59.9-37.28-99.22-40-14.84-1-49.33-1.57-80.81,18.32-22,13.88-20.26,21.9-59.24,56.9-29.31,26.39-42,30.29-51,32.15-16,3.33-20.09-1.47-50.29.51-25.46,1.66-40,4.56-55.83,13.92a92.83,92.83,0,0,0-35.7,39c-.62,1.32-1.14,2.34-1.4,3-3.93,10.63-12.57,34.53-3.26,66,4.85,16.38,14.31,28,19.57,34.52C51.31,912.92,61.8,910,73.69,925c6.65,8.4,10,17.63,11.93,30.46,1.23,8.33,1.8,17.62,2.89,28.73,2.58,26.39.84,46.68-.94,64.51-.34,3.39-.51,6.72-.71,9.95-5.44,85.22-10.65,92.3-3,113.62,12.29,34,41.23,56.61,54.1,66.1,4.11,3,9,6.65,14.62,10.24a157,157,0,0,0,31.67,15.5c28.09,10.07,52.52,9.63,70.84,9.14,16.71-.44,56.8-2.87,94.6-26.26,17.49-10.84,22.39-17.94,43.85-28,17.83-8.35,31.38-14.46,47.78-12.7,22,2.33,39.55,17.38,55.08,31,14.54,12.75,17.91,19.52,28.81,21.82,14.33,3,28.83-4.93,39.11-12.49,37-46.2,54.49-91.51,62.79-122.41C638.34,1082.54,646.72,1048,633.74,1010.36Z" transform="translate(239.4 -421.79)"/><path class="q" d="M621.46,1007.75c-8.72-25.07-18-26.06-60.67-85.18-22.65-31.39-34.06-48.23-39.09-57.88A69,69,0,0,1,517.16,853c-7-24.65-1-32.23-7-74.18-3.32-22.57-5.83-37.59-13.42-52.14-1-1.91-2.16-3.79-3.31-5.73-3.52-6-12.56-19.26-45.1-38.6-33.26-19.77-56.59-36-94-39-14.11-1.13-46.82-1.73-76.73,16.92-20.88,13-19.45,20.48-56.46,53.48-27.8,24.88-39.92,28.53-48.52,30.3-15.21,3.12-19.19-1.41-47.82.51-24.42,1.63-38.42,4.63-53.6,13.75a89.36,89.36,0,0,0-34,37.74c-.58,1.28-1.08,2.26-1.33,2.95C32,809.39,24.12,832.05,33,862.39c4.58,15.59,13.51,26.72,18.51,33.13,14.35,18.36,24.34,15.74,35.5,30.13,6.24,8.07,9.42,16.93,11.11,29.19,1.1,8,1.54,16.88,2.51,27.46,2.27,25.08.41,44.33-1.5,61.55-.36,3.24-.52,6.41-.75,9.51-5.72,81.07-10.75,88.08-3.48,108.63,11.63,32.73,39.6,54.56,52.16,63.79,4,3,8.75,6.43,14.14,9.85a151.33,151.33,0,0,0,30.58,14.92c27,9.65,50.53,9.26,68.38,8.82,16.13-.39,54.23-2.69,90.22-24.74,16.67-10.22,21.45-16.94,41.86-26.39,17-7.88,30-13.66,45.57-12,21,2.18,37.74,16.35,52.57,29.19,13.85,12,17.13,18.35,27.51,20.49,13.65,2.81,27.44-4.78,37.25-12,35.35-44,52.22-87.35,60.18-117.15C626,1076.92,633.91,1043.74,621.46,1007.75Z" transform="translate(239.4 -421.79)"/><path class="r" d="M609.18,1005.14c-8.4-24.08-17.4-25.37-57.86-81.22-21.61-29.83-32.67-45.81-37.53-55a70.63,70.63,0,0,1-4.39-11.15c-6.81-23.35-1.34-30.75-7.2-70.53-3.25-21.42-5.71-35.76-12.95-49.67-.95-1.84-2.05-3.62-3.13-5.48-3.44-5.9-12-18.56-42.62-37.06-31.42-19-53.27-34.78-88.83-38-13.39-1.22-44.31-1.9-72.65,15.5-19.8,12.16-18.64,19.08-53.65,50.07-26.3,23.38-37.85,26.78-46.09,28.45-14.42,2.92-18.3-1.35-45.36.51-23.37,1.61-36.85,4.72-51.36,13.59a85.55,85.55,0,0,0-32.4,36.51c-.54,1.21-1,2.16-1.24,2.84-3.55,10.3-10.76,31.73-2.23,61C54,880.3,62.39,891,67.15,897.26c13.37,17.57,22.87,15.27,33.3,29.09,5.86,7.75,8.79,16.23,10.28,27.91,1,7.7,1.29,16.15,2.13,26.19,2,23.77,0,42-2,58.6-.37,3.08-.56,6.11-.79,9.07-6,76.93-10.84,83.87-4,103.64,10.95,31.46,37.92,52.52,50.22,61.49,3.91,2.87,8.49,6.2,13.64,9.47a146.26,146.26,0,0,0,29.5,14.34c25.88,9.23,48.53,8.89,65.93,8.51,15.51-.34,51.67-2.52,85.82-23.24,15.86-9.63,20.52-15.95,39.88-24.84,16.18-7.43,28.51-12.86,43.35-11.31,20,2,36,15.33,50.08,27.38,13.16,11.24,16.35,17.2,26.22,19.17,13,2.59,26.05-4.62,35.39-11.49,33.74-41.79,49.95-83.2,57.57-111.9C613.71,1071.3,621.1,1039.53,609.18,1005.14Z" transform="translate(239.4 -421.79)"/><path class="s" d="M596.9,1002.53c-8.08-23.06-16.78-24.67-55.06-77.27-20.57-28.27-31.28-43.39-36-52a70.39,70.39,0,0,1-4.25-10.56c-6.65-22.06-1.62-29.29-7.41-66.89-3.11-20.27-5.59-33.93-12.47-47.2-.9-1.74-1.95-3.43-3-5.21-3.35-5.82-11.49-17.87-40.14-35.54-29.58-18.24-50-33.52-83.62-37-12.67-1.31-41.8-2.05-68.56,14.08-18.73,11.3-17.85,17.67-50.88,46.64-24.8,21.87-35.79,25-43.67,26.59-13.65,2.72-17.4-1.28-42.89.52-22.33,1.57-35.28,4.8-49.12,13.43a81.76,81.76,0,0,0-30.75,35.26c-.51,1.18-1,2.08-1.18,2.73-3.34,10.15-9.85,30.34-1.72,58.54,4,14,11.88,24.25,16.4,30.35,12.41,16.77,21.41,14.8,31.11,28,5.43,7.42,8.15,15.52,9.46,26.64.85,7.38,1,15.4,1.75,24.91,1.67,22.46-.43,39.66-2.58,55.66-.39,2.92-.59,5.8-.84,8.61-6.26,72.79-11,79.68-4.51,98.65,10.27,30.21,36.26,50.49,48.27,59.2,3.84,2.79,8.24,6,13.15,9.08a140.46,140.46,0,0,0,28.43,13.76c24.78,8.79,46.53,8.54,63.47,8.2,14.9-.29,49.1-2.35,81.43-21.74,15-9,19.59-14.94,37.9-23.25,15.33-7,27.06-12.06,41.13-10.62,19,1.91,34.2,14.32,47.58,25.56,12.48,10.49,15.56,16,24.93,17.84,12.28,2.36,24.66-4.46,33.53-11,32.14-39.58,47.68-79,54.95-106.66C601.39,1065.68,608.3,1035.31,596.9,1002.53Z" transform="translate(239.4 -421.79)"/><path class="t" d="M584.6,999.93c-7.75-22-16.17-24-52.24-73.3-19.53-26.71-29.89-41-34.39-49.1a67.73,67.73,0,0,1-4.1-10c-6.5-20.77-2-27.82-7.62-63.25-3-19.13-5.46-32.09-12-44.74-.86-1.65-1.85-3.26-2.81-4.94-3.27-5.75-11-17.19-37.65-34-27.73-17.48-46.66-32.26-78.43-36-11.95-1.4-39.29-2.24-64.48,12.67-17.65,10.44-17.05,16.27-48.1,43.24-23.31,20.37-33.72,23.29-41.24,24.75-12.87,2.51-16.51-1.21-40.43.52-21.29,1.55-33.71,4.87-46.91,13.27a78.27,78.27,0,0,0-29.11,34c-.47,1.12-.88,2-1.09,2.62-3.15,10-9,28.94-1.19,56.08,3.78,13.17,11.08,23,15.35,29,11.45,16,20,14.34,28.92,27,5,7.08,7.54,14.82,8.63,25.36.73,7.07.78,14.66,1.37,23.63,1.37,21.16-.84,37.32-3.11,52.71-.41,2.77-.63,5.5-.9,8.16-6.53,68.64-11.06,75.48-5,93.67,9.62,29,34.6,48.45,46.32,56.9,3.73,2.7,8,5.76,12.67,8.7A136,136,0,0,0,214.39,1210c23.68,8.35,44.54,8.16,61,7.88,14.28-.24,46.54-2.17,77-20.23,14.24-8.44,18.66-13.94,35.93-21.71,14.5-6.51,25.62-11.27,38.91-9.92,18,1.76,32.39,13.29,45.08,23.77,11.79,9.73,14.78,14.89,23.63,16.52,11.59,2.13,23.28-4.31,31.64-10.5C558.17,1158.47,573,1121,580,1094.46,589.08,1060,595.49,1031.09,584.6,999.93Z" transform="translate(239.4 -421.79)"/><path class="u" d="M572.34,997.3c-7.43-21-15.56-23.26-49.43-69.34-18.49-25.16-28.5-38.56-32.83-46.17a67.94,67.94,0,0,1-3.95-9.4c-6.33-19.49-2.33-26.34-7.82-59.61-3-18-5.36-30.25-11.5-42.27-.81-1.57-1.74-3.09-2.64-4.69-3.2-5.66-10.41-16.51-35.17-32.48-25.91-16.73-43.35-31-73.23-35-11.23-1.48-36.81-2.4-60.41,11.26-16.56,9.58-16.24,14.84-45.31,39.83-21.8,18.85-31.64,21.51-38.79,22.88-12.11,2.32-15.62-1.14-38,.53-20.24,1.51-32.14,5-44.65,13.09a74.63,74.63,0,0,0-27.46,32.79c-.43,1.07-.83,1.9-1,2.52-3,9.84-8,27.54-.68,53.61,3.51,12.37,10.27,21.77,14.29,27.59,10.5,15.15,18.49,13.86,26.73,25.9,4.61,6.75,6.91,14.12,7.8,24.08.6,6.75.56,13.9,1,22.36,1.06,19.84-1.26,35-3.67,49.76-.43,2.6-.66,5.19-.92,7.72-6.79,64.49-11.16,71.27-5.56,88.68,9,27.68,32.93,46.41,44.37,54.6,3.64,2.61,7.74,5.54,12.18,8.32A130.18,130.18,0,0,0,222,1196.49c22.57,7.93,42.54,7.8,58.57,7.58,13.68-.2,44-2,72.64-18.73,13.42-7.83,17.73-12.94,33.95-20.14,13.66-6.06,24.18-10.45,36.69-9.22,16.95,1.61,30.59,12.26,42.58,22,11.1,9,14,13.74,22.34,15.19,10.9,1.9,21.88-4.15,29.8-10,28.93-35.16,43.13-70.72,49.74-96.13C576.76,1054.44,582.69,1026.88,572.34,997.3Z" transform="translate(239.4 -421.79)"/><path class="v" d="M560.06,994.69c-7.11-20-14.95-22.57-46.62-65.39-17.46-23.59-27.11-36.14-31.27-43.23a67,67,0,0,1-3.79-8.84c-6.17-18.2-2.69-24.87-8-56-2.88-16.83-5.22-28.43-11-39.8-.76-1.51-1.64-2.93-2.47-4.44-3.1-5.56-9.87-15.81-32.69-30.95-24.08-16-40-29.76-68-33.93-10.51-1.57-34.27-2.58-56.32,9.84-15.49,8.71-15.44,13.42-42.52,36.41-20.31,17.33-29.59,19.74-36.38,21-11.32,2.12-14.73-1.07-35.51.54-19.2,1.48-30.57,5-42.4,12.93a71.1,71.1,0,0,0-25.8,31.54c-.4,1-.77,1.82-.94,2.42-2.75,9.68-7.13,26.13-.16,51.14,3.24,11.56,9.46,20.53,13.23,26.18,9.57,14.34,17,13.4,24.54,24.84,4.2,6.42,6.28,13.42,7,22.82.47,6.43.3,13.18.62,21.08.75,18.53-3.23,32.44-4.22,46.81-.18,2.48-.68,4.88-1,7.27-7.05,60.35-11.27,67.07-6.09,83.69,8.28,26.43,31.28,44.38,42.44,52.31,3.54,2.52,7.48,5.31,11.68,7.93a124,124,0,0,0,25.18,12c21.47,7.51,40.55,7.44,56.12,7.27,13.06-.15,41.41-1.83,68.22-17.23,12.61-7.23,16.8-11.94,32-18.57,12.81-5.6,22.73-9.66,34.47-8.54,15.94,1.48,28.79,11.24,40.07,20.16,10.42,8.22,13.22,12.58,21,13.87,10.22,1.67,20.49-4,27.93-9.5,27.31-32.91,40.86-66.54,47.13-90.85C564.45,1048.83,569.88,1022.66,560.06,994.69Z" transform="translate(239.4 -421.79)"/><path class="w" d="M547.78,992.07c-6.78-19-14.32-21.85-43.81-61.42-16.42-22-25.72-33.72-29.7-40.3a67.1,67.1,0,0,1-3.65-8.23c-6-16.92-3.05-23.4-8.21-52.32-2.78-15.68-5.1-26.59-10.53-37.34-.72-1.4-1.54-2.75-2.31-4.17-3-5.5-9.34-15.14-30.21-29.42-22.25-15.22-36.72-28.51-62.83-32.9-9.8-1.66-31.77-2.74-52.25,8.43-14.41,7.86-14.63,12-39.73,33-18.81,15.84-27.5,18-34,19.17-10.55,1.92-13.83-1-33,.54-18.15,1.45-29,5.1-40.18,12.76a67.53,67.53,0,0,0-24.15,30.31c-.37,1-.71,1.73-.86,2.3-2.54,9.53-6.22,24.74.36,48.68,3,10.76,8.66,19.28,12.17,24.79,8.63,13.5,15.56,12.94,22.34,23.79,3.79,6.09,5.66,12.72,6.16,21.53.35,6.12,0,12.46.24,19.81.46,17.22-3.67,30.07-4.76,43.86-.19,2.32-.72,4.57-1,6.82-7.29,56.2-11.37,62.86-6.59,78.7,7.61,25.17,29.61,42.34,40.49,50,3.43,2.43,7.23,5.09,11.18,7.55a120.39,120.39,0,0,0,24.11,11.43c20.36,7.07,38.55,7.07,53.66,6.94,12.47-.09,38.86-1.65,63.85-15.71,11.8-6.64,15.87-10.94,30-17,12-5.14,21.3-8.85,32.26-7.84,14.92,1.33,27,10.22,37.57,18.35,9.73,7.47,12.43,11.43,19.76,12.54,9.53,1.45,19.09-3.81,26.07-9a220.76,220.76,0,0,0,44.55-85.6C552.13,1043.21,557.07,1018.44,547.78,992.07Z" transform="translate(239.4 -421.79)"/><path class="x" d="M535.49,989.46c-6.45-18-13.72-21.16-41-57.45-15.39-20.48-24.33-31.31-28.14-37.38a67.55,67.55,0,0,1-3.49-7.65c-5.82-15.63-3.41-21.93-8.41-48.68-2.72-14.53-5-24.76-10.06-34.87-.66-1.31-1.43-2.57-2.14-3.9-2.91-5.43-8.8-14.48-27.72-27.9-20.42-14.48-33.41-27.25-57.63-31.9-9.08-1.75-29.27-2.91-48.17,7-13.34,7-13.87,10.55-36.94,29.59-17.36,14.29-25.45,16.24-31.52,17.31-9.77,1.72-12.94-.92-30.59.54-17.1,1.43-27.43,5.18-37.94,12.6a63.91,63.91,0,0,0-22.5,29.07,19.22,19.22,0,0,0-.79,2.2c-1.78,9.49-5.31,23.34.88,46.21,2.71,9.93,7.84,18,11.11,23.4,7.72,12.66,14.1,12.47,20.16,22.73,3.38,5.77,5,12,5.33,20.29.22,5.82-.2,11.69-.13,18.53.15,15.91-4.1,27.69-5.32,40.91-.2,2.18-.74,4.28-1.05,6.38-7.52,52-11.47,58.66-7.12,73.71,6.94,23.9,28,40.3,38.54,47.72,3.35,2.35,7,4.87,10.71,7.17a114,114,0,0,0,23,10.82c19.26,6.65,36.55,6.69,51.21,6.64,11.85-.07,36.3-1.48,59.46-14.21,11-6,14.93-9.94,28-15.44,11.14-4.67,19.84-8.06,30-7.15,13.91,1.19,25.2,9.2,35.07,16.54,9,6.72,11.65,10.28,18.47,11.22,8.84,1.22,17.69-3.68,24.21-8.5,24.12-28.54,36.33-58.25,41.92-80.36C539.82,1037.59,544.27,1014.2,535.49,989.46Z" transform="translate(239.4 -421.79)"/><path class="y" d="M523.21,986.84c-6.12-17-13.12-20.45-38.18-53.49-14.35-18.92-22.93-28.89-26.57-34.45a71.06,71.06,0,0,1-3.34-7.06c-5.64-14.35-3.77-20.45-8.61-45-2.63-13.38-4.86-22.92-9.57-32.4-.62-1.23-1.32-2.41-2-3.65-2.83-5.34-8.25-13.81-25.24-26.36-18.59-13.74-30.09-26-52.42-30.88-8.36-1.84-26.78-3.08-44.09,5.59-12.27,6.14-13.07,9.14-34.16,26.17-15.84,12.8-23.38,14.49-29.09,15.46-9,1.54-12-.86-28.12.55s-25.86,5.25-35.7,12.44a60.52,60.52,0,0,0-20.86,27.83,17.14,17.14,0,0,0-.71,2.09C163,853,160.2,865.58,166,887.38c2.43,9.15,7,16.78,10.06,22,6.8,11.79,12.63,12,18,21.67,3,5.43,4.38,11.32,4.5,19,.09,5.5-.45,11-.51,17.26-.15,14.6-4.5,25.32-5.86,38-.22,2-.77,4-1.09,5.93-7.74,47.89-11.57,54.46-7.64,68.72,6.27,22.65,26.27,38.27,36.59,45.43,3.25,2.26,6.73,4.64,10.22,6.78a108.59,108.59,0,0,0,21.94,10.27c18.15,6.2,34.55,6.33,48.75,6.32,11.23,0,33.74-1.3,55.07-12.7,10.16-5.44,14-8.94,26-13.88,10.3-4.23,18.4-7.23,27.81-6.45,12.89,1.07,23.4,8.17,32.57,14.73,8.35,6,10.86,9.12,17.17,9.9,8.16,1,16.34-3.53,22.35-8a186.83,186.83,0,0,0,39.31-75.09C527.51,1032,531.46,1010,523.21,986.84Z" transform="translate(239.4 -421.79)"/><path class="z" d="M510.93,984.22c-5.8-16-12.51-19.75-35.35-49.55-13.32-17.35-21.54-26.47-25-31.52-1.62-3-2.55-4.9-3.2-6.48-5.45-13.07-4.13-19-8.81-41.4-2.55-12.23-4.74-21.09-9.09-29.93-.57-1.14-1.22-2.24-1.82-3.39-2.73-5.27-7.71-13.16-22.75-24.83-16.77-13-26.78-24.74-47.23-29.87-7.63-1.92-24.27-3.24-40,4.18-11.2,5.28-12.26,7.72-31.37,22.76C272,805.48,265,806.93,259.64,807.8c-8.21,1.34-11.14-.77-25.66.55-15,1.37-24.28,5.32-33.47,12.27a57,57,0,0,0-19.2,26.59,15.74,15.74,0,0,0-.64,2c-1.38,9.16-3.47,20.54,1.91,41.28,2.17,8.34,6.24,15.52,9,20.64,5.92,10.92,11.17,11.53,15.77,20.61,2.57,5.11,3.74,10.64,3.68,17.7-.05,5.19-.7,10.23-.89,16-.45,13.28-4.89,22.93-6.41,35-.24,1.87-.8,3.66-1.13,5.48-7.95,43.73-11.68,50.26-8.17,63.74,5.6,21.38,24.62,36.23,34.65,43.13,3.16,2.17,6.47,4.42,9.71,6.39a102.92,102.92,0,0,0,20.86,9.68c17.05,5.79,32.56,6,46.3,6,10.62,0,31.18-1.11,50.67-11.2,9.36-4.83,13.08-7.93,24.07-12.31,9.46-3.76,17-6.42,25.59-5.75,11.87.93,21.6,7.15,30.06,12.92,7.64,5.24,10.07,8,15.89,8.58,7.47.77,14.93-3.37,20.49-7.51a170.54,170.54,0,0,0,36.7-69.84C515.2,1026.35,518.65,1005.79,510.93,984.22Z" transform="translate(239.4 -421.79)"/><path class="aa" d="M498.65,981.62c-5.45-15-11.92-19-32.56-45.58-12.29-15.79-20.15-24-23.44-28.59-1.5-2.7-2.4-4.43-3-5.89-5.24-11.78-4.48-17.51-9-37.75-2.46-11.09-4.62-19.25-8.62-27.47-.51-1.05-1.1-2.06-1.64-3.12-2.64-5.2-7.17-12.53-20.27-23.31-14.95-12.3-23.47-23.49-42-28.85-6.92-2-21.77-3.41-35.93,2.79-10.13,4.42-11.46,6.31-28.59,19.34-12.84,9.78-19.24,11-24.23,11.76-7.43,1.14-10.25-.69-23.2.55-14,1.34-22.73,5.39-31.23,12.11A53.69,53.69,0,0,0,197.3,853c-.23.76-.47,1.38-.56,1.88-1.68,8.9-2.56,19.13,2.43,38.8,1.9,7.53,5.43,14.26,8,19.25,5,10,9.7,11.06,13.57,19.55a35.22,35.22,0,0,1,2.86,16.43c-.18,4.85-1,9.48-1.27,14.71-.75,12-3.65,20.91-6.95,32.06a32.35,32.35,0,0,0-1.18,5c-5.22,40.06-11.78,46.05-8.68,58.74,4.92,20.13,23,34.2,32.7,40.84,3.06,2.09,6.22,4.19,9.23,6a98.12,98.12,0,0,0,19.78,9.1c15.95,5.37,30.56,5.6,43.85,5.7,10,.08,28.65-.94,46.28-9.7,8.55-4.23,12.15-6.93,22.09-10.74,8.63-3.3,15.51-5.63,23.37-5.06,10.85.79,19.8,6.12,27.57,11.12,7,4.47,9.29,6.82,14.58,7.25,6.79.54,13.55-3.21,18.63-7a154.18,154.18,0,0,0,34.1-64.59C502.89,1020.74,505.89,1001.55,498.65,981.62Z" transform="translate(239.4 -421.79)"/><path class="ab" d="M486.37,979c-5.12-14-11.33-18.32-29.75-41.62-11.26-14.23-18.76-21.64-21.87-25.66-1.38-2.39-2.25-4-2.9-5.31-5-10.5-4.85-16-9.21-34.11-2.39-9.94-4.47-17.43-8.13-25-.46-1-1-1.89-1.48-2.86-2.53-5.13-6.61-11.91-17.78-21.78-13.13-11.6-20.16-22.21-36.84-27.83-6.21-2.09-19.28-3.58-31.85,1.35-9.06,3.56-10.65,4.89-25.79,15.93-11.35,8.27-17.18,9.23-21.81,9.89-6.65,1-9.36-.6-20.74.56-12.93,1.32-21.16,5.45-29,11.94a50.47,50.47,0,0,0-15.91,24.11,17.09,17.09,0,0,0-.48,1.78c-1.48,8.75-1.63,17.72,2.94,36.33,1.64,6.72,4.65,13,6.89,17.86,4.22,9.13,8.25,10.59,11.39,18.5a33.4,33.4,0,0,1,2,15.15c-.32,4.56-1.19,8.73-1.64,13.43-1,10.65-4,18.56-7.5,29.11a29.3,29.3,0,0,0-1.22,4.59c-5.5,35.95-11.88,41.85-9.21,53.76,4.27,18.86,21.3,32.16,30.76,38.54,3,2,6,4,8.74,5.63a92.35,92.35,0,0,0,18.71,8.52c14.84,4.93,28.56,5.22,41.38,5.38,9.4.12,26.09-.76,41.9-8.19,7.73-3.64,11.21-5.93,20.1-9.18,7.8-2.85,14.07-4.83,21.16-4.36,9.83.64,18,5.1,25.07,9.31,6.25,3.72,8.5,5.66,13.29,5.92,6.09.33,12.16-3,16.76-6.51a138.1,138.1,0,0,0,31.49-59.34C490.6,1015.13,493.08,997.34,486.37,979Z" transform="translate(239.4 -421.79)"/><path class="ac" d="M474.09,976.4c-4.8-13-10.75-17.61-26.94-37.66-10.23-12.67-17.37-19.22-20.3-22.74-1.26-2.09-2.12-3.48-2.76-4.72-4.8-9.23-5.21-14.56-9.4-30.47-2.31-8.78-4.36-15.59-7.65-22.53-.42-.87-.89-1.72-1.32-2.6-2.45-5.06-6.05-11.32-15.3-20.25-11.3-10.93-16.84-21-31.63-26.81-5.47-2.17-16.8-3.76-27.76-.07-8,2.7-9.85,3.49-23,12.53-9.85,6.76-15.11,7.48-19.38,8-5.87.77-8.46-.52-18.28.56a45.24,45.24,0,0,0-26.76,11.78c-8.24,7.2-12,16.74-14.25,22.87a8.1,8.1,0,0,0-.42,1.68c-1.23,8.62-.69,16.3,3.47,33.88a111.89,111.89,0,0,0,5.83,16.46c3.39,8.2,6.78,10.12,9.2,17.44a32.64,32.64,0,0,1,1.2,13.88c-.46,4.25-1.43,8-2,12.16-1.33,9.33-4.36,16.22-8.05,26.16-.5,1.35-.88,2.74-1.26,4.14-8.42,31.26-12,37.65-9.73,48.77,3.6,17.6,19.62,30.12,28.82,36.25,2.86,1.91,5.71,3.74,8.25,5.25a86.89,86.89,0,0,0,17.62,7.93c13.74,4.5,26.56,4.84,38.94,5.07,8.78.15,23.53-.57,37.49-6.68,6.93-3,10.29-4.93,18.12-7.62,7-2.38,12.63-4,18.94-3.67,8.81.5,16.17,4.09,22.56,7.51,5.57,3,7.72,4.51,12,4.59,5.4.11,10.77-2.89,14.9-6a122.09,122.09,0,0,0,28.87-54.06C478.28,1009.51,480.27,993.12,474.09,976.4Z" transform="translate(239.4 -421.79)"/><path class="ad" d="M461.81,973.78c-4.49-12-10.18-16.87-24.13-33.69-9.21-11.11-16-16.81-18.74-19.81-1.14-1.78-2-3-2.61-4.13-4.55-8-5.57-13.09-9.6-26.83a137.48,137.48,0,0,0-7.15-20.06c-.37-.78-.79-1.55-1.16-2.34-2.31-5-5.47-10.75-12.81-18.72-9.47-10.27-13.53-19.69-26.43-25.8-4.76-2.25-14.32-3.95-23.68-1.47-6.94,1.83-9,2.06-20.22,9.1-8.35,5.26-13,5.74-16.95,6.19-5.09.59-7.57-.41-15.81.57-10.85,1.29-18,5.57-24.53,11.61-7.3,6.81-10.69,15.65-12.6,21.63a7.48,7.48,0,0,0-.34,1.56c-1,8.45.25,14.9,4,31.4a134.83,134.83,0,0,0,4.78,15.08c2.59,7.27,5.31,9.66,7,16.38a31.28,31.28,0,0,1,.38,12.61c-.62,3.94-1.86,7.21-2.39,10.88-1.19,8.09-4.69,13.9-8.59,23.22-.5,1.19-.91,2.43-1.31,3.72-8.51,27.1-12.08,33.44-10.25,43.77,2.92,16.35,18,28.09,26.87,33.95,2.77,1.83,5.45,3.52,7.76,4.87a81.3,81.3,0,0,0,16.54,7.35c12.63,4.08,24.56,4.47,36.48,4.76,8.18.2,21-.38,33.11-5.19,6.12-2.43,9.36-3.92,16.15-6.05,6.13-1.92,11.18-3.22,16.72-3,7.79.37,14.36,3.07,20.08,5.7,4.84,2.23,6.94,3.36,10.71,3.27,4.72-.11,9.37-2.73,13-5.51A106.2,106.2,0,0,0,462.36,1020C466,1003.89,467.45,988.91,461.81,973.78Z" transform="translate(239.4 -421.79)"/><path class="ae" d="M449.53,971.17c-4.15-10.95-9.62-16.14-21.32-29.74-8.2-9.52-14.59-14.38-17.19-16.87-1-1.48-1.81-2.54-2.45-3.56-4.3-6.72-5.95-11.62-9.8-23.18a172.8,172.8,0,0,0-6.69-17.6c-.32-.7-.67-1.38-1-2.08A75.83,75.83,0,0,0,380.76,861c-7.61-9.67-10.21-18.42-21.23-24.78-4-2.33-11.86-4.14-19.61-2.89-5.9,1-8.23.65-17.43,5.69A32.06,32.06,0,0,1,308,843.31c-4.32.41-6.68-.3-13.36.57-9.8,1.28-16.49,5.62-22.28,11.44-6.38,6.41-9.36,14.56-11,20.39a8.13,8.13,0,0,0-.26,1.46c-.75,8.28,1.22,13.49,4.5,28.94.92,4.28,2.39,9.12,3.72,13.71,1.85,6.32,3.85,9.19,4.81,15.32a24.48,24.48,0,0,1-.45,11.34c-1.09,3.53-1.9,6.49-2.78,9.61-1.87,6.7-5,11.58-9.14,20.27-.49,1-.91,2.13-1.34,3.26-8.55,23-12.19,29.24-10.78,38.79,2.26,15.08,16.32,26.05,24.93,31.65,2.67,1.75,5.21,3.3,7.27,4.49a76.42,76.42,0,0,0,15.45,6.77c11.54,3.64,22.58,4.06,34,4.44,7.57.24,18.46-.16,28.72-3.67,5.32-1.83,8.43-2.91,14.17-4.48,5.29-1.46,9.74-2.43,14.5-2.28,6.78.2,12.53,2.06,17.56,3.89,4.12,1.5,6.14,2.24,9.42,1.94,4-.33,8-2.58,11.16-5a90.6,90.6,0,0,0,23.66-43.55C453.69,998.28,454.65,984.69,449.53,971.17Z" transform="translate(239.4 -421.79)"/><path class="af" d="M437.25,968.56c-3.85-9.93-9.07-15.38-18.51-25.78a107,107,0,0,0-15.6-13.94c-.9-1.18-1.66-2.08-2.31-3-4-5.48-6.32-10.15-10-19.53-2.09-5.35-4-10.09-6.2-15.15-.27-.61-.57-1.21-.82-1.82A105.73,105.73,0,0,0,376,873.71c-5.68-9.15-6.91-17.14-16-23.76-3.32-2.41-9.41-4.37-15.5-4.29-4.87.06-7.43-.74-14.65,2.28a32.34,32.34,0,0,1-12.1,2.48c-3.53.24-5.78-.18-10.89.58-8.76,1.29-14.95,5.67-20,11.28a38,38,0,0,0-9.31,19.15c-.07.5-.15,1-.18,1.35-.51,8.14,2.2,12.07,5,26.47.68,3.47,1.7,7.82,2.66,12.3,1.16,5.38,2.39,8.72,2.62,14.27a31.65,31.65,0,0,1-1.27,10,82.28,82.28,0,0,1-3.16,8.33c-2.14,5.38-5.26,9.3-9.69,17.32-.49.88-.94,1.82-1.38,2.81-8.52,18.86-12.3,25-11.3,33.8,1.58,13.82,14.65,24,23,29.36,2.58,1.65,5,3.06,6.78,4.1a70.33,70.33,0,0,0,14.38,6.18c10.41,3.22,20.58,3.7,31.58,4.14,6.95.27,15.93,0,24.32-2.18,4.53-1.2,7.53-1.9,12.19-2.91a53.39,53.39,0,0,1,12.28-1.58,67.89,67.89,0,0,1,15.06,2.08c3.39.78,5.37,1.07,8.13.62a21.64,21.64,0,0,0,9.3-4.51,75.42,75.42,0,0,0,21-38.3C441.4,992.67,441.82,980.49,437.25,968.56Z" transform="translate(239.4 -421.79)"/><path class="ag" d="M425,966c-3.51-8.93-8.58-14.59-15.69-21.82a73.56,73.56,0,0,0-14-11c-.78-.86-1.49-1.61-2.15-2.38a66.86,66.86,0,0,1-10.19-15.9c-2-4.19-3.89-8.25-5.73-12.66-.22-.53-.45-1-.65-1.56-1.92-4.81-3.43-9.36-5.35-14.13-3.55-8.71-3.63-15.86-10.83-22.74A26.07,26.07,0,0,0,348.89,858c-3.83-.9-6.6-2.16-11.86-1.13a53.14,53.14,0,0,1-9.66.62,50,50,0,0,0-8.43.58c-7.7,1.35-13.41,5.72-17.81,11.12a35.21,35.21,0,0,0-7.66,17.91c0,.44-.09.87-.11,1.24-.25,8,3.26,10.64,5.54,24,.45,2.65,1.11,6.52,1.61,10.91a57.48,57.48,0,0,1,.42,13.21,34.91,34.91,0,0,1-2.09,8.78,45.61,45.61,0,0,1-3.53,7.06c-2.38,4.08-5.47,7-10.24,14.37-.48.73-.95,1.52-1.41,2.35-8.4,14.84-12.4,20.85-11.82,28.81.92,12.57,13,22,21,27.07,2.49,1.57,4.71,2.84,6.3,3.72a64.91,64.91,0,0,0,13.3,5.58c9.33,2.79,18.58,3.31,29.12,3.82a102.68,102.68,0,0,0,19.93-.67c3.74-.56,6.59-.85,10.21-1.34a87.2,87.2,0,0,1,10.07-.91c4.75-.09,8.85.14,12.56.28a20.12,20.12,0,0,0,6.82-.73,22.24,22.24,0,0,0,7.45-4,60.67,60.67,0,0,0,18.44-33C429.11,987.06,429,976.27,425,966Z" transform="translate(239.4 -421.79)"/><path class="ah" d="M307.73,1015.68c12.63,6.85,23.83,7.64,38.88,8.52,27.95,1.66,41.92,2.49,52.79-6.2,14.43-11.54,21.28-34.87,13.28-54.68-6.78-16.81-21.45-24.14-25.36-25.94a62.34,62.34,0,0,1-17.64-24.25c-6.32-16.15-1.1-25-9-35.63C354.8,869.58,343,862.43,331,865.18c-13.19,3-21,16.81-21.58,27.62-.44,8.86,4.35,9.75,6,22.66.55,4.27,2,17-4.14,29.18-4.13,8.12-7.2,7.18-16.16,19.1-8.21,10.93-12.5,16.63-12.34,23.83C283.16,1002.37,302,1012.61,307.73,1015.68Z" transform="translate(239.4 -421.79)"/></svg>