<svg xmlns="http://www.w3.org/2000/svg" xmlns:xlink="http://www.w3.org/1999/xlink" width="1066.51" height="961.36" viewBox="0 0 1066.51 961.36"><defs><style>.a,.aa,.ab,.ac,.ad,.ae,.af,.ag,.ah,.b,.c,.d,.e,.f,.g,.h,.i,.j,.k,.l,.m,.n,.o,.p,.q,.r,.s,.t,.u,.v,.w,.x,.y,.z{fill:none;stroke-miterlimit:10;stroke-width:2px;}.a{stroke:url(#a);}.b{stroke:url(#b);}.c{stroke:url(#c);}.d{stroke:url(#d);}.e{stroke:url(#e);}.f{stroke:url(#f);}.g{stroke:url(#g);}.h{stroke:url(#h);}.i{stroke:url(#i);}.j{stroke:url(#j);}.k{stroke:url(#k);}.l{stroke:url(#l);}.m{stroke:url(#m);}.n{stroke:url(#n);}.o{stroke:url(#o);}.p{stroke:url(#p);}.q{stroke:url(#q);}.r{stroke:url(#r);}.s{stroke:url(#s);}.t{stroke:url(#t);}.u{stroke:url(#u);}.v{stroke:url(#v);}.w{stroke:url(#w);}.x{stroke:url(#x);}.y{stroke:url(#y);}.z{stroke:url(#z);}.aa{stroke:url(#aa);}.ab{stroke:url(#ab);}.ac{stroke:url(#ac);}.ad{stroke:url(#ad);}.ae{stroke:url(#ae);}.af{stroke:url(#af);}.ag{stroke:url(#ag);}.ah{stroke:url(#ah);}</style><linearGradient id="a" x1="1327.5" y1="1208.05" x2="492.79" y2="617.63" gradientTransform="matrix(1, 0, 0, -1, 0, 1530)" gradientUnits="userSpaceOnUse"><stop offset="0.07" stop-color="#ccacff"/><stop offset="0.36" stop-color="#d5d7e2"/><stop offset="0.81" stop-color="#e6faff"/><stop offset="0.95" stop-color="#bcf0f8"/></linearGradient><linearGradient id="b" x1="1316.56" y1="1200.95" x2="504.48" y2="626.52" xlink:href="#a"/><linearGradient id="c" x1="1306.44" y1="1194.45" x2="516.94" y2="636" xlink:href="#a"/><linearGradient id="d" x1="1296.32" y1="1187.92" x2="529.43" y2="645.46" xlink:href="#a"/><linearGradient id="e" x1="1286.21" y1="1181.37" x2="541.9" y2="654.88" xlink:href="#a"/><linearGradient id="f" x1="1276.08" y1="1174.86" x2="554.38" y2="664.37" xlink:href="#a"/><linearGradient id="g" x1="1265.96" y1="1168.35" x2="566.85" y2="673.83" xlink:href="#a"/><linearGradient id="h" x1="1255.84" y1="1161.84" x2="579.33" y2="683.31" xlink:href="#a"/><linearGradient id="i" x1="1245.72" y1="1155.3" x2="591.81" y2="692.75" xlink:href="#a"/><linearGradient id="j" x1="1235.59" y1="1148.8" x2="604.27" y2="702.23" xlink:href="#a"/><linearGradient id="k" x1="1225.47" y1="1142.28" x2="616.73" y2="711.69" xlink:href="#a"/><linearGradient id="l" x1="1215.33" y1="1135.77" x2="629.21" y2="721.18" xlink:href="#a"/><linearGradient id="m" x1="1205.17" y1="1129.27" x2="641.62" y2="730.64" xlink:href="#a"/><linearGradient id="n" x1="1195.04" y1="1122.76" x2="654.07" y2="740.1" xlink:href="#a"/><linearGradient id="o" x1="1184.89" y1="1116.3" x2="666.49" y2="749.61" xlink:href="#a"/><linearGradient id="p" x1="1174.77" y1="1109.8" x2="678.93" y2="759.07" xlink:href="#a"/><linearGradient id="q" x1="1164.62" y1="1103.31" x2="691.35" y2="768.55" xlink:href="#a"/><linearGradient id="r" x1="1154.5" y1="1096.84" x2="703.8" y2="778.03" xlink:href="#a"/><linearGradient id="s" x1="1144.32" y1="1090.38" x2="716.15" y2="787.51" xlink:href="#a"/><linearGradient id="t" x1="1134.2" y1="1083.88" x2="728.54" y2="796.94" xlink:href="#a"/><linearGradient id="u" x1="1124.06" y1="1077.47" x2="740.92" y2="806.46" xlink:href="#a"/><linearGradient id="v" x1="1113.87" y1="1071.06" x2="753.25" y2="815.97" xlink:href="#a"/><linearGradient id="w" x1="1103.75" y1="1064.62" x2="765.57" y2="825.41" xlink:href="#a"/><linearGradient id="x" x1="1093.56" y1="1058.22" x2="777.89" y2="834.94" xlink:href="#a"/><linearGradient id="y" x1="1083.39" y1="1051.86" x2="790.1" y2="844.4" xlink:href="#a"/><linearGradient id="z" x1="1073.17" y1="1045.52" x2="802.26" y2="853.89" xlink:href="#a"/><linearGradient id="aa" x1="1063.02" y1="1039.15" x2="814.45" y2="863.33" xlink:href="#a"/><linearGradient id="ab" x1="1052.81" y1="1032.85" x2="826.6" y2="872.84" xlink:href="#a"/><linearGradient id="ac" x1="1042.62" y1="1026.55" x2="838.74" y2="882.34" xlink:href="#a"/><linearGradient id="ad" x1="1032.44" y1="1020.33" x2="850.87" y2="891.89" xlink:href="#a"/><linearGradient id="ae" x1="1022.16" y1="1014.1" x2="862.91" y2="901.46" xlink:href="#a"/><linearGradient id="af" x1="1011.86" y1="1008.05" x2="874.86" y2="911.15" xlink:href="#a"/><linearGradient id="ag" x1="1001.34" y1="1002.37" x2="886.51" y2="921.16" xlink:href="#a"/><linearGradient id="ah" x1="989.92" y1="997.78" x2="892.94" y2="929.18" xlink:href="#a"/></defs><path class="a" d="M1481.36,634.3c-15.95-89.78-49.22-154.11-72.94-192.16-34.54-55.41-62.38-100.08-116.69-123.87-36.3-15.91-42.2-4-164.83-20-99-12.93-119.07-23.81-128.33-29.37-36.05-21.55-34.62-37.45-91.52-78.68-34.48-25-54.84-39.39-84.95-44.08-7.93-1.23-33.57-4.43-94.52,18.44-60.14,22.57-105,39.4-146,85.4-15.53,17.42-52.77,59.16-60.54,119.91-5.39,42.14,9.18,48.2,10.76,134.39,1.19,64.93-6.67,83.91-13.26,95.65-12.65,22.53-22.15,21.1-53.22,59-23.81,29-36.77,44.84-43.81,70.27-11.12,40.12.84,74.12,3.22,80.59,4.66,12.63,21.3,51.62,62.54,70.6,24.66,11.35,47.4,10.61,59,10.11,39-1.7,44.94-17.91,75-18.66,27.15-.67,47.06,12.1,85.77,37.68,35.38,23.38,59.46,45.15,77.65,61.84,109.68,100.56,109,111.34,141,122.65,49.32,17.43,99.25,8.91,118.78,5.58,14.87-2.53,40.48-7.1,69.94-22.36,38.5-19.94,60.75-46.31,75.36-64,15-18.21,54.81-67.5,65.63-138.06,4.93-32.14.17-44.7,10.48-81.08,8.45-29.83,14.72-52,34.19-68.79,25.89-22.37,62.79-24.65,95.94-26.71,31.4-1.94,43,2.63,57.64-6.87C1473.08,679.1,1479.23,653.79,1481.36,634.3Z" transform="translate(-415.86 -144.25)"/><path class="b" d="M1282.43,324.93C1247,309.44,1241.08,321,1122,305.46c-60.34-7.83-90.58-14.85-106.93-20.35a85.19,85.19,0,0,1-18-8C962,256.2,963.24,240.78,907.9,200.78,878.32,179.39,859.37,166,835.21,160c-3.24-.8-6.57-1.48-10-2-7.81-1.25-32.78-4.42-92,17.7-58.49,21.75-102.09,37.94-142.11,82.53-15.15,16.87-51.35,57.37-59,116.28-5.32,40.89,8.72,46.8,10.17,130.43,1.1,63-6.58,81.44-13,92.87-12.3,21.88-21.56,20.54-51.72,57.35-23.17,28.31-35.75,43.83-42.55,68.66-9.15,33.36-2,62.39,1.84,74.16.65,2,1.2,3.51,1.54,4.44,4.68,12.39,20.93,50.13,61.22,68.73,23.95,11,46.08,10.41,57.41,10,37.85-1.47,43.72-17.21,72.92-17.83,16.34-.35,30,4.32,46.93,13.84,10.43,5.89,22.08,13.59,36.38,23.09,34.31,22.78,57.65,44,75.33,60.39l10.84,10c95.58,88.68,96.09,99,126.17,109.68,48,17.1,96.87,8.78,116,5.49,6.2-1.07,14.27-2.49,23.67-4.9a209.46,209.46,0,0,0,44.66-17c37.54-19.46,59.27-45.19,73.65-62.55,14.7-17.77,53.36-65.66,63.94-134.17,4.84-31.23.28-43.45,10.32-78.79,8.24-29,14.37-50.51,33.3-66.87,25.17-21.77,61-24.06,93.18-26.13,30.48-1.94,41.74,2.45,56-6.82,18.87-12.29,24.83-36.89,26.88-55.83-15.44-87.36-47.79-150.06-71-187.2C1362.54,391.57,1335.35,348.09,1282.43,324.93Z" transform="translate(-415.86 -144.25)"/><path class="c" d="M1273.14,331.6c-34.54-15.1-40.51-3.93-156.06-19-58.65-7.56-88.12-14.29-104-19.59a84,84,0,0,1-17.49-7.76c-34.16-20.16-33.07-35.17-86.85-74C880,190.63,861.52,177.6,838,171.73c-3.15-.78-6.4-1.43-9.76-2-7.71-1.24-32-4.4-89.42,17C682,207.65,639.64,223.2,600.6,266.37,585.84,282.71,550.67,322,543.18,379c-5.24,39.62,8.27,45.38,9.59,126.45,1,61.08-6.51,79-12.8,90.12-12,21.23-21,20-50.2,55.69-22.55,27.59-34.74,42.82-41.29,67-8.84,32.5-1.76,60.77,2,72.29.65,2,1.17,3.42,1.52,4.33,4.66,12.17,20.54,48.65,59.85,66.88,23.25,10.71,44.76,10.2,55.82,9.82,36.76-1.25,42.51-16.52,70.87-17,15.87-.28,29.12,4.31,45.57,13.61,10.13,5.78,21.43,13.3,35.29,22.56,33.25,22.17,55.79,42.9,73,58.95q5.43,5.07,10.52,9.79c92.66,86.27,93.19,96.44,122.49,107,46.79,16.77,94.48,8.65,113.31,5.38,6.09-1.05,14-2.45,23.12-4.8a205.32,205.32,0,0,0,43.59-16.63c36.58-19,57.8-44.07,71.93-61.09,14.39-17.34,51.92-63.82,62.27-130.29,4.73-30.3.38-42.21,10.16-76.49,8-28.13,14-49.05,32.4-65,24.44-21.18,59.2-23.49,90.44-25.57,29.56-1.93,40.49,2.27,54.28-6.75,18.29-12,24.08-35.86,26.09-54.3-15-84.9-46.41-145.94-69.07-182.19C1351.21,396.42,1324.64,354.14,1273.14,331.6Z" transform="translate(-415.86 -144.25)"/><path class="d" d="M1263.83,338.25c-33.65-14.7-39.67-3.91-151.66-18.39-57-7.29-85.62-13.76-101.07-18.86a82.26,82.26,0,0,1-17-7.5c-33.2-19.46-32.3-34-84.52-71.58-27.93-20.08-45.9-32.71-68.77-38.43-3.06-.77-6.21-1.39-9.48-1.93-7.6-1.24-31.15-4.22-86.87,16.24-55.17,20.26-96.33,35-134.36,76.77-14.38,15.81-48.52,53.78-55.88,109.06-5.18,38.37,7.8,44,9,122.48.91,59.13-6.39,76.51-12.52,87.33-11.6,20.58-20.35,19.43-48.69,54-21.92,26.88-33.73,41.81-40,65.44-8.5,31.63-1.55,59.16,2.2,70.42.63,1.9,1.14,3.33,1.49,4.21,4.67,11.94,20.17,47.17,58.51,65,22.54,10.41,43.45,10,54.24,9.69,35.65-1,41.3-15.81,68.81-16.18,15.4-.2,28.29,4.27,44.2,13.39,9.84,5.64,20.79,13,34.2,22,32.19,21.57,53.95,41.75,70.7,57.51,3.49,3.3,6.91,6.46,10.18,9.55,89.76,83.87,90.3,93.93,118.82,104.23,45.54,16.44,92.09,8.53,110.56,5.3,6-1,13.67-2.41,22.56-4.71A200.47,200.47,0,0,0,1101,1037.1c35.61-18.5,56.34-43,70.23-59.63,14-16.89,50.47-62,60.58-126.41,4.65-29.39.48-41,10-74.21,7.84-27.28,13.69-47.58,31.52-63,23.73-20.57,57.43-22.88,87.68-25,28.63-1.92,39.23,2.09,52.59-6.69,17.73-11.64,23.33-34.82,25.29-52.73-14.46-82.46-45-141.85-67.15-177.2C1339.87,401.27,1313.94,360.17,1263.83,338.25Z" transform="translate(-415.86 -144.25)"/><path class="e" d="M1254.55,344.94c-32.78-14.31-38.82-3.87-147.27-17.86-55.28-7-83.14-13.22-98.15-18.12a81,81,0,0,1-16.51-7.24c-32.27-18.76-31.54-32.87-82.2-69.21-27.11-19.43-44.59-31.66-66.81-37.24-3-.76-6-1.35-9.21-1.88-7.49-1.25-30.33-4.16-84.3,15.5-53.52,19.49-93.46,33.56-130.49,73.89-14,15.27-47.09,52-54.32,105.46-5.1,37.11,7.34,42.57,8.41,118.51.81,57.2-6.31,74-12.29,84.55-11.26,20-19.75,18.88-47.17,52.38-21.29,26.17-32.72,40.8-38.76,63.84-8.19,30.76-1.34,57.53,2.37,68.54.62,1.85,1.12,3.24,1.45,4.11,4.67,11.72,19.77,45.76,57.17,63.15,21.81,10.14,42.13,9.79,52.65,9.54,34.54-.8,40.09-15.11,66.76-15.34,14.92-.13,27.43,4.24,42.83,13.16,9.57,5.53,20.14,12.72,33.11,21.5,31.13,21,52.12,40.61,68.37,56.07,3.39,3.21,6.69,6.3,9.86,9.3,86.64,81.71,87.42,91.42,115.14,101.52,44.28,16.13,89.7,8.39,107.84,5.19,5.85-1,13.34-2.38,22-4.62a195.51,195.51,0,0,0,41.48-15.88c34.65-18,54.85-41.84,68.5-58.18s49-60.15,58.9-122.52c4.56-28.48.58-39.73,9.84-71.91,7.63-26.43,13.33-46.12,30.61-61.11,23-20,55.64-22.29,84.93-24.4,27.71-1.92,38,1.91,50.9-6.64,17.16-11.32,22.6-33.81,24.47-51.17-13.94-80-43.58-137.79-65.18-172.23C1328.53,406.11,1303.25,366.21,1254.55,344.94Z" transform="translate(-415.86 -144.25)"/><path class="f" d="M1245.25,351.6c-31.9-13.9-38-3.83-142.88-17.32-53.59-6.76-80.66-12.66-95.21-17.37a78.9,78.9,0,0,1-16-7c-31.31-18.06-30.76-31.72-79.86-66.84C885,224.31,868,212.46,846.41,207c-2.89-.72-5.86-1.3-8.93-1.82-7.39-1.25-29.54-4.09-81.76,14.76-51.86,18.72-90.58,32.1-126.61,71-13.61,14.73-45.69,50.18-52.78,101.81-5,35.85,6.89,41.17,7.82,114.53.72,55.27-6.24,71.57-12,81.79-11,19.27-19.15,18.32-45.66,50.73-20.66,25.45-31.66,39.8-37.5,62.23-7.79,29.91-1.14,55.92,2.55,66.67.61,1.79,1.1,3.14,1.44,4,4.67,11.48,19.37,44.3,55.83,61.3,21.11,9.83,40.82,9.58,51.08,9.4,33.43-.58,38.87-14.42,64.69-14.52,14.46,0,26.58,4.23,41.48,12.93,9.26,5.42,19.49,12.44,32,21,30.06,20.36,50.28,39.47,66.05,54.62,3.26,3.14,6.45,6.14,9.53,9.06,83.67,79.39,84.52,88.91,111.46,98.81,43,15.81,87.31,8.26,105.09,5.1,5.74-1,13-2.35,21.45-4.51a191.6,191.6,0,0,0,40.42-15.53c33.68-17.54,53.37-40.71,66.78-56.7S1206.39,895.34,1216,835c4.48-27.56.7-38.49,9.68-69.62,7.43-25.59,13-44.65,29.72-59.18,22.3-19.39,53.85-21.77,82.18-23.84,26.77-2,36.72,1.74,49.22-6.58,16.58-11,21.84-32.76,23.67-49.61-13.44-77.6-42.18-133.71-63.25-167.24C1317.19,411,1292.55,372.24,1245.25,351.6Z" transform="translate(-415.86 -144.25)"/><path class="g" d="M1236,358.27c-31-13.51-37.1-3.79-138.48-16.79-51.92-6.49-78.19-12.12-92.29-16.62a77.94,77.94,0,0,1-15.54-6.73c-30.37-17.36-30-30.58-77.54-64.47-25.47-18.13-42-29.58-62.9-34.87-2.8-.7-5.67-1.26-8.65-1.78-7.28-1.25-28.72-4-79.2,14-50.21,17.95-87.71,30.64-122.74,68.14-13.21,14.19-44.27,48.38-51.22,98.21-4.95,34.59,6.43,39.75,7.23,110.56.63,53.33-6.15,69.09-11.8,79-10.62,18.63-18.62,17.7-44.15,49.07-20.08,24.68-30.64,38.79-36.24,60.62-7.45,29.05-.92,54.29,2.72,64.8.61,1.74,1.08,3.06,1.41,3.86,4.67,11.23,19,42.83,54.48,59.42,20.39,9.53,39.49,9.37,49.49,9.27,32.32-.37,37.66-13.73,62.64-13.7,14,0,25.74,4.2,40.11,12.7,9,5.31,18.84,12.15,30.93,20.44,29,19.77,48.44,38.35,63.73,53.19,3.14,3.06,6.23,6,9.21,8.81,80.7,77,81.63,86.4,107.78,96.1,41.76,15.49,84.92,8.14,102.35,5,5.62-1,12.74-2.31,20.88-4.42A186.84,186.84,0,0,0,1087.54,997c32.71-17.06,51.91-39.59,65.08-55.26,13-15.57,46.14-56.49,55.53-114.77,4.37-26.64.79-37.24,9.52-67.32,7.21-24.73,12.64-43.18,28.82-57.26,21.58-18.79,52.07-21.19,79.43-23.26,25.84-2,35.46,1.55,47.53-6.53,16-10.67,21.09-31.73,22.86-48.05-13-75.16-40.77-129.63-61.31-162.26C1305.85,415.8,1281.85,378.28,1236,358.27Z" transform="translate(-415.86 -144.25)"/><path class="h" d="M1226.66,364.94c-30.14-13.11-36.28-3.78-134.1-16.25-50.22-6.22-75.69-11.57-89.34-15.88a78.1,78.1,0,0,1-15.06-6.47c-29.42-16.67-29.23-29.43-75.21-62.12-24.64-17.46-40.67-28.53-61-33.67-2.71-.68-5.49-1.23-8.38-1.73-7.17-1.25-27.91-3.95-76.64,13.3-48.56,17.18-84.83,29.18-118.86,65.26C635.27,321,605.36,354,598.45,402c-4.81,33.34,6,38.34,6.64,106.58.54,51.4-6.06,66.63-11.56,76.23-10.27,18-18,17.14-42.63,47.42-19.46,24-29.62,37.79-35,59-7.11,28.19-.72,52.68,2.91,62.94.6,1.67,1.06,3,1.4,3.74,4.67,11,18.6,41.37,53.13,57.57,19.68,9.22,38.18,9.17,47.91,9.12,31.21-.16,36.45-13,60.58-12.87,13.51.09,24.88,4.2,38.74,12.48,8.69,5.19,18.18,11.88,29.84,19.92,27.9,19.22,46.61,37.2,61.41,51.74,3,3,6,5.8,8.88,8.56,77.73,74.71,78.73,83.9,104.1,93.4,40.5,15.16,82.52,8,99.61,4.9,5.51-1,12.44-2.29,20.33-4.33a182.13,182.13,0,0,0,38.31-14.78c31.75-16.58,50.47-38.45,63.35-53.78,12.69-15.1,44.69-54.64,53.85-110.87,4.28-25.74.89-36,9.35-65,7-23.88,12.3-41.72,27.93-55.34,20.86-18.19,50.29-20.61,76.7-22.67,24.91-2,34.2,1.37,45.84-6.48,15.45-10.34,20.35-30.69,22.05-46.48-12.43-72.72-39.35-125.55-59.36-157.27C1294.52,420.64,1271.15,384.32,1226.66,364.94Z" transform="translate(-415.86 -144.25)"/><path class="i" d="M1217.37,371.62c-29.27-12.72-35.39-3.93-129.7-15.71-48.52-6.06-73.21-11-86.41-15.14a74.39,74.39,0,0,1-14.57-6.21c-28.48-16-28.46-28.29-72.88-59.74-23.82-16.82-39.36-27.49-59-32.48-2.63-.67-5.32-1.19-8.11-1.68-7.06-1.26-27.1-3.89-74.09,12.56s-82,27.73-115,62.38c-12.47,13.13-41.33,44.82-48.12,91-4.72,32.1,5.51,36.94,6.06,102.62.44,49.46-6,64.15-11.33,73.45-9.94,17.33-17.44,16.57-41.12,45.76-18.84,23.23-28.6,36.78-33.72,57.4a108.42,108.42,0,0,0,3.09,61.06c.58,1.62,1,2.85,1.37,3.63,4.68,10.79,18.23,39.93,51.79,55.7,19,8.93,36.86,9,46.32,9,30.09.07,35.23-12.34,58.53-12,13,.16,24,4.17,37.38,12.25,8.39,5.07,17.52,11.59,28.74,19.4,26.83,18.62,44.78,36.07,59.09,50.31,2.9,2.88,5.78,5.63,8.55,8.31,74.77,72.37,75.84,81.37,100.43,90.68,39.24,14.84,80.13,7.87,96.87,4.81,5.38-1,12.13-2.24,19.77-4.24a176.32,176.32,0,0,0,37.26-14.41c30.77-16.1,49-37.32,61.64-52.32,12.34-14.65,43.13-52.83,52.16-107,4.14-24.82,1-34.76,9.2-62.73,6.82-23.05,12-40.26,27-53.42,20.13-17.6,48.49-20,73.93-22.11,24-1.95,32.94,1.2,44.16-6.41,14.86-10,19.6-29.67,21.24-44.93-11.93-70.29-37.94-121.45-57.43-152.29C1283.18,425.49,1260.45,390.35,1217.37,371.62Z" transform="translate(-415.86 -144.25)"/><path class="j" d="M1208.07,378.27c-28.39-12.3-34.55-3.92-125.32-15.17-46.83-5.8-70.74-10.47-83.48-14.4a72.71,72.71,0,0,1-14.09-5.95c-27.52-15.27-27.68-27.14-70.54-57.37-23-16.19-38-26.45-57-31.3-2.53-.63-5.14-1.14-7.83-1.63-6.94-1.27-26.3-3.82-71.54,11.83s-79.07,26.29-111.11,59.51c-12.09,12.59-39.9,43-46.57,87.37-4.63,30.83,5.06,35.53,5.47,98.64.35,47.53-5.89,61.68-11.07,70.69-9.61,16.69-16.86,16-39.61,44.1-18.22,22.51-27.58,35.78-32.45,55.8a105,105,0,0,0,3.26,59.19c.57,1.56,1,2.77,1.34,3.51,4.69,10.56,17.84,38.45,50.45,53.84,18.26,8.62,35.55,8.77,44.74,8.84,29,.27,34-11.62,56.47-11.21,12.56.24,23.16,4.15,36,12,8.11,5,16.88,11.31,27.66,18.85,25.76,18,42.95,34.93,56.77,48.87,2.79,2.81,5.56,5.46,8.23,8.06,71.81,70,72.94,78.87,96.74,88,38,14.51,77.75,7.74,94.13,4.7,5.27-1,11.83-2.19,19.21-4.14a171.65,171.65,0,0,0,36.21-14c29.81-15.62,47.54-36.22,59.91-50.86,12-14.21,41.68-51,50.5-103.11,4-23.9,1.11-33.51,9-60.44,6.62-22.2,11.61-38.8,26.15-51.5,19.41-17,46.7-19.45,71.17-21.53,23.06-2,31.69,1,42.47-6.36,14.3-9.69,18.86-28.63,20.44-43.36-11.43-67.86-36.52-117.4-55.5-147.32C1271.84,430.33,1249.76,396.39,1208.07,378.27Z" transform="translate(-415.86 -144.25)"/><path class="k" d="M1198.77,384.94c-27.5-11.9-33.69-3.92-120.92-14.64-45.15-5.54-68.25-9.93-80.55-13.65A71.52,71.52,0,0,1,983.7,351c-26.58-14.58-26.91-26-68.22-55-22.17-15.51-36.74-25.4-55.07-30.1-2.44-.62-5-1.1-7.55-1.58-6.84-1.27-25.5-3.76-69,11.09S707.68,300.18,676.65,332c-11.7,12.05-38.47,41.22-45,83.73-4.55,29.58,4.6,34.12,4.88,94.67.25,45.6-5.81,59.21-10.83,67.91-9.27,16.05-16.27,15.45-38.08,42.47C570,642.57,561,655.54,556.39,675a101.63,101.63,0,0,0,3.44,57.32c.58,1.5,1,2.67,1.32,3.4,4.69,10.33,17.44,37,49.12,52,17.55,8.31,34.21,8.55,43.16,8.71,27.87.47,32.81-10.93,54.4-10.4,12.1.31,22.31,4.14,34.65,11.8,7.8,4.86,16.22,11,26.57,18.33,24.68,17.42,41.11,33.79,54.45,47.42,2.66,2.73,5.33,5.3,7.9,7.82,68.83,67.69,70.05,76.36,93.07,85.27,36.72,14.19,75.35,7.61,91.39,4.61,5.14-1,11.52-2.16,18.65-4a166.54,166.54,0,0,0,35.15-13.67c28.85-15.13,46.06-35.07,58.2-49.4,11.67-13.76,40.22-49.16,48.8-99.23,3.95-23,1.22-32.27,8.89-58.15,6.41-21.35,11.25-37.33,25.25-49.58,18.69-16.39,44.91-18.87,68.42-20.95,22.13-2,30.43.83,40.79-6.3,13.72-9.37,18.1-27.6,19.63-41.8-10.92-65.44-35.13-113.31-53.56-142.33C1260.5,435.18,1239.06,402.43,1198.77,384.94Z" transform="translate(-415.86 -144.25)"/><path class="l" d="M1189.48,391.61c-26.63-11.51-32.84-3.9-116.53-14.1-43.47-5.29-65.76-9.4-77.62-12.91a68.37,68.37,0,0,1-13.11-5.45c-25.62-13.88-26.13-24.85-65.88-52.63-21.35-14.87-35.43-24.36-53.12-28.91-2.36-.6-4.78-1.07-7.27-1.54-6.72-1.28-24.69-3.68-66.43,10.36-41.95,14.12-73.32,23.36-103.35,53.77-11.32,11.51-37,39.43-43.46,80.13C638.24,448.66,646.85,453,647,511c.16,43.66-5.72,56.75-10.6,65.15-8.93,15.39-15.68,14.88-36.56,40.78-17,21.07-25.54,33.76-29.94,52.58A98.29,98.29,0,0,0,573.52,725c.55,1.46,1,2.58,1.3,3.28,4.71,10.09,17.06,35.51,47.76,50.12,16.84,8,32.9,8.34,41.58,8.56,26.75.67,31.58-10.24,52.35-9.56,11.62.38,21.44,4.12,33.28,11.57,7.53,4.74,15.57,10.74,25.47,17.8,23.63,16.84,39.28,32.65,52.13,46,2.56,2.65,5.1,5.12,7.58,7.58,65.86,65.34,67.16,73.85,89.39,82.54,35.47,13.88,73,7.49,88.65,4.52,5-1,11.22-2.13,18.1-4a161.79,161.79,0,0,0,34.09-13.29c27.9-14.67,44.59-34,56.49-47.94,11.33-13.32,38.76-47.34,47.12-95.35,3.84-22.08,1.26-31.05,8.71-55.86,6.17-20.52,10.92-35.87,24.36-47.66,18-15.8,43.13-18.29,65.67-20.38,21.21-2,29.16.64,39.11-6.24,13.13-9.07,17.36-26.57,18.82-40.24-10.43-63-33.78-109.2-51.61-137.36C1249.08,440.07,1228.35,408.47,1189.48,391.61Z" transform="translate(-415.86 -144.25)"/><path class="m" d="M1180.18,398.27c-25.75-11.1-32-3.9-112.14-13.56-41.77-5-63.29-8.84-74.68-12.17a70,70,0,0,1-12.64-5.17c-24.67-13.2-25.37-23.7-63.55-50.27-20.53-14.21-34.12-23.31-51.16-27.71-2.27-.59-4.6-1-7-1.49-6.62-1.28-23.87-3.62-63.87,9.62-40.31,13.34-70.44,21.9-99.48,50.88-10.94,11-35.62,37.64-41.91,76.52-4.39,27.07,3.69,31.31,3.69,86.73.07,41.73-5.63,54.28-10.35,62.37C638.5,588.76,632,588.32,612,613.16c-16.36,20.34-24.53,32.75-28.67,51a94.76,94.76,0,0,0,3.8,53.58c.54,1.4.94,2.49,1.27,3.17,4.7,9.86,16.67,34,46.41,48.25,16.12,7.72,31.58,8.14,40,8.42,25.64.87,30.38-9.53,50.29-8.73,11.15.46,20.6,4.11,31.92,11.34,7.24,4.62,14.92,10.45,24.38,17.27C804,813.66,818.88,828.93,831.24,842c2.43,2.57,4.89,5,7.25,7.33,62.91,63,64.26,71.32,85.71,79.84,34.2,13.55,70.57,7.35,85.91,4.41,4.92-.94,10.91-2.09,17.53-3.85a157.28,157.28,0,0,0,33-12.92c26.92-14.18,43.12-32.84,54.77-46.49,11-12.87,37.3-45.5,45.44-91.46,3.74-21.16,1.36-29.81,8.56-53.56,6-19.67,10.56-34.4,23.46-45.74,17.25-15.21,41.34-17.71,62.92-19.81,20.28-2,27.9.45,37.42-6.18,12.56-8.76,16.61-25.54,18-38.69-9.93-60.55-32.38-105.11-49.68-132.36C1237.75,444.93,1217.66,414.5,1180.18,398.27Z" transform="translate(-415.86 -144.25)"/><path class="n" d="M1170.89,404.94c-24.87-10.7-31.15-3.89-107.75-13-40.09-4.78-60.81-8.3-71.75-11.43a66.66,66.66,0,0,1-12.15-4.92C955.52,363.08,954.64,353,918,327.68c-19.7-13.57-32.81-22.27-49.21-26.53-2.17-.56-4.41-1-6.71-1.44-6.52-1.28-23.08-3.54-61.32,8.89-38.66,12.57-67.57,20.44-95.61,48C694.62,367,671,392.44,664.8,429.5c-4.29,25.82,3.22,29.9,3.12,82.76,0,39.79-5.55,51.81-10.1,59.59-8.26,14.09-14.5,13.75-33.56,37.49-15.75,19.62-23.51,31.75-27.42,49.36a91.4,91.4,0,0,0,4,51.71c.53,1.34.92,2.39,1.25,3.05,4.71,9.63,16.28,32.57,45.07,46.39,15.42,7.4,30.25,7.92,38.41,8.28,24.53,1.06,29.17-8.83,48.24-7.9,10.68.53,19.74,4.09,30.56,11.11,6.94,4.51,14.27,10.18,23.29,16.75,21.49,15.64,35.61,30.36,47.49,43.1,2.31,2.47,4.66,4.79,6.92,7.08,59.94,60.65,61.37,68.83,82,77.15,32.94,13.22,68.19,7.22,83.17,4.31,4.8-.93,10.61-2.06,17-3.77a153.2,153.2,0,0,0,32-12.55c25.94-13.7,41.65-31.71,53-45,10.65-12.43,35.84-43.67,43.75-87.59,3.65-20.25,1.46-28.56,8.4-51.27,5.75-18.83,10.23-32.93,22.57-43.82,16.53-14.61,39.55-17.13,60.16-19.23,19.36-2,26.65.28,35.74-6.12,12-8.42,15.86-24.51,17.21-37.13-9.43-58.11-31-101-47.75-127.37C1226.39,449.77,1207,420.54,1170.89,404.94Z" transform="translate(-415.86 -144.25)"/><path class="o" d="M1161.58,411.59c-24-10.3-30.3-3.88-103.36-12.48-38.4-4.52-58.33-7.75-68.82-10.68a66.92,66.92,0,0,1-11.66-4.67C955,372,953.91,362.35,918.83,338.22,900,325.31,887.34,317,871.58,312.89c-2.08-.55-4.23-.95-6.43-1.4-6.41-1.28-22.29-3.48-58.77,8.16-37,11.8-64.69,19-91.73,45.12-10.17,9.91-32.76,34.06-38.81,69.29-4.22,24.56,2.77,28.49,2.53,78.79-.12,37.86-5.46,49.33-9.86,56.81-7.92,13.46-13.92,13.2-32,35.83-15.12,18.9-22.48,30.74-26.15,47.76a88.1,88.1,0,0,0,4.15,49.83c.53,1.29.89,2.28,1.23,2.93,4.71,9.41,15.9,31.12,43.73,44.53,14.71,7.09,28.93,7.72,36.82,8.14,23.41,1.25,28-8.13,46.18-7.08,10.21.61,18.88,4.09,29.2,10.89,6.65,4.4,13.62,9.89,22.2,16.22,20.42,15,33.76,29.23,45.17,41.66,2.18,2.4,4.43,4.62,6.59,6.83,57,58.31,58.49,66.32,78.36,74.43,31.69,12.9,65.79,7.09,80.43,4.22,4.68-.92,10.3-2,16.42-3.67A148,148,0,0,0,1051.72,890c25-13.22,40.18-30.59,51.34-43.56,10.31-12,34.37-41.83,42.06-83.7,3.55-19.33,1.56-27.32,8.24-49,5.55-18,9.88-31.48,21.67-41.9,15.82-14,37.77-16.55,57.42-18.65,18.43-2,25.39.09,34-6.07,11.42-8.1,15.12-23.47,16.4-35.56-8.87-55.66-29.54-96.93-45.78-122.38C1215.05,454.62,1196.27,426.58,1161.58,411.59Z" transform="translate(-415.86 -144.25)"/><path class="p" d="M1152.3,418.27c-23.12-9.9-29.46-3.87-99-11.94-36.72-4.27-55.85-7.21-65.89-9.94A66.26,66.26,0,0,1,976.26,392c-21.8-11.11-23-20.26-56.56-43.16-18.06-12.25-30.19-20.18-45.3-24.15-2-.53-4-.92-6.17-1.35-6.3-1.29-21.48-3.41-56.21,7.43-35.37,11-61.86,17.46-87.86,42.25-9.79,9.35-31.32,32.26-37.25,65.66-4.13,23.31,2.31,27.08,1.94,74.81-.22,35.93-5.37,46.87-9.62,54-7.57,12.8-13.31,12.63-30.52,34.18-14.5,18.17-21.47,29.73-24.89,46.14a84.54,84.54,0,0,0,4.34,48c.5,1.23.87,2.21,1.19,2.82,4.74,9.17,15.52,29.65,42.39,42.66,14,6.79,27.6,7.51,35.25,8,22.28,1.43,26.74-7.43,44.12-6.25,9.74.68,18,4.07,27.83,10.67,6.36,4.28,13,9.6,21.11,15.69,19.35,14.45,31.94,28.07,42.85,40.21,2.07,2.31,4.21,4.46,6.26,6.59,54,56,55.59,63.81,74.67,71.71,30.43,12.58,63.42,7,77.71,4.13,4.57-.91,10-2,15.86-3.57a143.13,143.13,0,0,0,29.87-11.81c24-12.74,38.71-29.47,49.62-42.1,10-11.53,32.93-40,40.38-79.83,3.44-18.43,1.67-26.08,8.08-46.69,5.33-17.13,9.53-30,20.78-40,15.09-13.41,36-16,54.67-18.07,17.5-2,24.12-.09,32.36-6,10.84-7.79,14.37-22.44,15.59-34-8.42-53.25-28.16-92.87-43.86-117.42C1203.71,459.47,1185.57,432.61,1152.3,418.27Z" transform="translate(-415.86 -144.25)"/><path class="q" d="M1143,424.94c-22.23-9.51-28.6-3.86-94.58-11.41-35-4-53.36-6.65-63-9.2a62,62,0,0,1-10.69-4.14c-20.85-10.44-22.29-19.12-54.23-40.8-17.24-11.6-28.89-19.13-43.34-22.95-1.91-.5-3.88-.87-5.88-1.29-6.2-1.31-20.68-3.36-53.67,6.68-33.72,10.27-59,16-84,39.37-9.43,8.82-29.91,30.47-35.71,62.06-4.05,22.05,1.86,25.67,1.36,70.84-.31,34-5.29,44.39-9.38,51.27-7.23,12.16-12.73,12.06-29,32.52-13.89,17.45-20.46,28.72-23.64,44.54a81.34,81.34,0,0,0,4.51,46.09c.5,1.18.85,2.11,1.16,2.7,4.76,8.95,15.15,28.19,41,40.8,13.3,6.48,26.28,7.3,33.66,7.87,21.16,1.6,25.54-6.74,42.07-5.43,9.26.76,17.17,4,26.46,10.44,6.08,4.17,12.31,9.32,20,15.16,18.28,13.86,30.1,26.93,40.51,38.78,2,2.23,4,4.29,5.94,6.34,51.07,53.61,52.7,61.3,71,69,29.17,12.25,61,6.81,74.95,4,4.45-.89,9.69-2,15.3-3.47a138.29,138.29,0,0,0,28.82-11.44c23-12.26,37.24-28.35,47.9-40.64,9.63-11.1,31.47-38.18,38.71-75.94,3.35-17.51,1.76-24.85,7.92-44.38,5.13-16.3,9.19-28.56,19.89-38.06,14.37-12.82,34.17-15.39,51.91-17.5,16.57-2,22.88-.27,30.68-5.95,10.27-7.47,13.62-21.41,14.78-32.44-7.91-50.81-26.75-88.78-41.92-112.43C1192.37,464.31,1174.87,438.65,1143,424.94Z" transform="translate(-415.86 -144.25)"/><path class="r" d="M1133.7,431.61c-21.36-9.12-27.75-3.84-90.18-10.88-33.34-3.75-50.89-6.11-60-8.44a65.36,65.36,0,0,1-10.21-3.89c-19.89-9.74-21.52-18-51.89-38.44C905,359,893.82,351.87,880,348.2c-1.83-.48-3.7-.84-5.61-1.25-6.09-1.31-19.88-3.28-51.11,6-32.08,9.5-56.1,14.54-80.1,36.49-9,8.27-28.48,28.68-34.15,58.44-4,20.8,1.39,24.26.78,66.86-.41,32.06-5.21,41.92-9.14,48.5-6.88,11.5-12.13,11.49-27.49,30.86-13.27,16.73-19.44,27.71-22.37,42.93a78,78,0,0,0,4.69,44.22c.48,1.11.83,2,1.15,2.58,4.76,8.72,14.75,26.72,39.7,38.94,12.59,6.17,25,7.09,32.07,7.72,20,1.77,24.32-6,40-4.58,8.81.81,16.32,4,25.1,10.21,5.78,4.06,11.66,9,18.94,14.63,17.21,13.26,28.26,25.78,38.2,37.34,1.84,2.14,3.76,4.12,5.61,6.09,48.11,51.25,49.81,58.77,67.32,66.29,27.9,11.93,58.63,6.7,72.21,3.92,4.34-.88,9.39-1.91,14.74-3.38a132.9,132.9,0,0,0,27.77-11.07c22.09-11.76,35.77-27.22,46.19-39.18,9.28-10.65,30-36.34,37-72.05,3.25-16.59,1.86-23.61,7.75-42.11,4.93-15.45,8.84-27.09,19-36.13,13.65-12.22,32.4-14.82,49.17-16.92,15.64-2,21.61-.46,29-5.9,9.7-7.14,12.88-20.38,14-30.88-7.42-48.37-25.35-84.7-40-107.45C1181,469.16,1164.17,444.68,1133.7,431.61Z" transform="translate(-415.86 -144.25)"/><path class="s" d="M1124.41,438.28c-20.48-8.71-26.9-3.84-85.8-10.34-31.66-3.49-48.41-5.56-57.09-7.71a63,63,0,0,1-9.72-3.62c-18.93-9.06-20.71-16.88-49.58-36.06C906.66,370.21,896,363.5,882.8,360c-1.73-.46-3.51-.8-5.33-1.2-6-1.32-19.08-3.23-48.56,5.22-30.43,8.73-53.24,13.09-76.23,33.6-8.65,7.74-27,26.9-32.6,54.82-3.88,19.55.94,22.86.18,62.89-.5,30.12-5.12,39.45-8.9,45.72-6.55,10.87-11.54,10.94-26,29.21-12.64,16-18.42,26.7-21.11,41.32a74.6,74.6,0,0,0,4.87,42.35c.48,1.07.81,1.92,1.12,2.47,4.78,8.48,14.37,25.25,38.35,37.08,11.89,5.86,23.61,6.88,30.49,7.58,18.91,1.93,23.11-5.34,37.95-3.76,8.33.89,15.45,4,23.74,10,5.49,4,11,8.75,17.84,14.1C834.77,754,845.07,766,854.52,777.26c1.72,2.06,3.53,4,5.28,5.85C905,832,906.71,839.39,923.44,846.69c26.63,11.63,56.23,6.57,69.47,3.83,4.23-.88,9.09-1.89,14.19-3.29a127.89,127.89,0,0,0,26.7-10.7c21.12-11.3,34.3-26.1,44.48-37.72,9-10.21,28.55-34.5,35.33-68.17,3.16-15.67,2-22.36,7.61-39.8,4.72-14.6,8.49-25.62,18.1-34.22,12.93-11.61,30.62-14.24,46.4-16.36,14.71-2,20.35-.63,27.31-5.84,9.12-6.82,12.13-19.34,13.17-29.32-6.92-45.94-24-80.62-38.07-102.46C1169.68,474,1153.47,450.72,1124.41,438.28Z" transform="translate(-415.86 -144.25)"/><path class="t" d="M1115.12,445c-19.6-8.31-26.06-3.82-81.41-9.8-30-3.24-45.92-5-54.16-7a61.75,61.75,0,0,1-9.23-3.37c-18-8.37-19.94-15.73-47.25-33.68-14.74-9.69-25-16-37.46-19.4-1.64-.43-3.33-.75-5.05-1.14-5.87-1.33-18.29-3.18-46,4.48-28.78,8-50.36,11.62-72.35,30.74-8.28,7.2-25.62,25.1-31.05,51.21-3.8,18.29.49,21.46-.4,58.93-.6,28.19-5,37-8.65,42.95-6.21,10.22-11,10.38-24.46,27.55-12,15.3-17.41,25.7-19.86,39.75a71.33,71.33,0,0,0,5.05,40.48c.46,1,.8,1.81,1.09,2.34,4.79,8.24,14,23.79,37,35.22,11.19,5.53,22.29,6.65,28.91,7.43,17.78,2.09,21.91-4.64,35.9-2.93,7.84,1,14.6,4,22.36,9.75,5.21,3.84,10.35,8.47,16.76,13.58,15.08,12.06,24.6,23.47,33.57,34.44,1.61,2,3.32,3.79,4.94,5.62,42.2,46.51,44,53.76,60,60.87,25.39,11.28,53.85,6.43,66.74,3.72,4.1-.86,8.77-1.85,13.62-3.19a124.12,124.12,0,0,0,25.65-10.32c20.15-10.82,32.82-25,42.75-36.26,8.6-9.77,27.1-32.68,33.65-64.3,3.06-14.76,2.07-21.12,7.44-37.51,4.52-13.76,8.14-24.18,17.21-32.3,12.21-11,28.81-13.65,43.66-15.77,13.79-2,19.09-.81,25.62-5.78,8.55-6.49,11.38-18.31,12.35-27.75-6.42-43.5-22.54-76.53-36.12-97.48C1158.33,478.84,1142.78,456.76,1115.12,445Z" transform="translate(-415.86 -144.25)"/><path class="u" d="M1105.82,451.61c-18.72-7.91-25.21-3.8-77-9.26-28.28-3-43.45-4.47-51.23-6.22a63.2,63.2,0,0,1-8.75-3.11c-17-7.7-19.16-14.6-44.92-31.32-13.93-9-23.66-14.95-35.52-18.19-1.55-.42-3.15-.72-4.77-1.1-5.78-1.32-17.51-3.12-43.45,3.75C813,393.35,792.68,396.32,771.7,414c-7.89,6.65-24.21,23.31-29.5,47.58-3.72,17,0,20.05-1,55-.69,26.26-5,34.52-8.41,40.17-5.87,9.58-10.35,9.82-22.95,25.9-11.41,14.56-16.39,24.69-18.59,38.11a68,68,0,0,0,5.22,38.61,23.23,23.23,0,0,0,1.09,2.22c4.81,8,13.6,22.31,35.67,33.35,10.48,5.23,21,6.45,27.34,7.31,16.65,2.23,20.68-3.94,33.84-2.11,7.37,1,13.74,4,21,9.53,4.92,3.73,9.7,8.15,15.66,13.05,14,11.46,22.77,22.31,31.24,33,1.5,1.89,3.1,3.63,4.64,5.36,39.25,44.15,41.13,51.26,56.28,58.16,24.13,11,51.46,6.31,64,3.63,4-.85,8.48-1.82,13.07-3.1a118.54,118.54,0,0,0,24.6-10c19.19-10.33,31.36-23.86,41-34.79,8.26-9.33,25.65-30.86,32-60.42,3-13.84,2.17-19.88,7.28-35.22,4.3-12.91,7.8-22.7,16.31-30.37,11.49-10.43,27-13.08,40.91-15.2,12.86-2,17.84-1,23.94-5.72,8-6.17,10.63-17.28,11.55-26.21-5.91-41.06-21.13-72.45-34.18-92.49C1147,483.7,1132.08,462.79,1105.82,451.61Z" transform="translate(-415.86 -144.25)"/><path class="v" d="M1096.52,458.28c-17.84-7.51-24.36-3.79-72.62-8.73-26.59-2.72-41-3.92-48.29-5.48a60.31,60.31,0,0,1-8.27-2.86c-16-7-18.4-13.45-42.6-28.95-13.09-8.39-22.33-13.93-33.55-17-1.48-.41-3-.68-4.5-1.05-5.65-1.33-16.7-3.06-40.9,3-25.53,6.41-44.6,8.7-64.59,25-7.51,6.12-22.77,21.5-27.94,44-3.64,15.78-.44,18.63-1.58,51-.8,24.31-4.87,32-8.18,37.4-5.52,8.93-9.75,9.26-21.43,24.25-10.78,13.83-15.38,23.67-17.31,36.48A64.83,64.83,0,0,0,710.15,652c.45.9.75,1.63,1.05,2.11,4.83,7.79,13.22,20.84,34.33,31.49,9.78,4.92,19.63,6.23,25.75,7.16,15.52,2.36,19.46-3.24,31.78-1.28,6.9,1.11,12.89,4,19.65,9.29,4.63,3.62,9.06,7.88,14.57,12.52,12.94,10.86,19.86,22.08,28.92,31.57,1.57,1.63,2.87,3.45,4.31,5.1,36.3,41.78,38.23,48.75,52.6,55.46,22.87,10.64,49.07,6.17,61.26,3.52,3.87-.83,8.17-1.78,12.51-3a113.29,113.29,0,0,0,23.54-9.59c18.22-9.85,29.89-22.74,39.32-33.33,7.92-8.89,24.19-29,30.28-56.52,2.86-12.93,2.26-18.64,7.12-32.93,4.09-12.07,7.45-21.24,15.41-28.45,10.77-9.83,25.23-12.5,38.16-14.62,11.92-2,16.58-1.18,22.25-5.67,7.4-5.85,9.89-16.25,10.75-24.64-5.4-38.59-19.72-68.35-32.24-87.48C1135.66,488.55,1121.38,468.83,1096.52,458.28Z" transform="translate(-415.86 -144.25)"/><path class="w" d="M1087.23,465c-17-7.11-23.5-3.77-68.23-8.19-24.91-2.47-38.48-3.38-45.36-4.74a61.17,61.17,0,0,1-7.78-2.59c-15.07-6.34-17.62-12.3-40.26-26.58-12.26-7.74-21-12.88-31.6-15.81-1.38-.38-2.79-.66-4.22-1-5.55-1.35-15.92-3-38.35,2.29-23.89,5.64-41.72,7.23-60.7,22.12-7.13,5.58-21.34,19.72-26.39,40.36-3.55,14.53-.9,17.23-2.17,47-.88,22.39-4.77,29.55-7.93,34.63-5.18,8.28-9.16,8.7-19.92,22.59-10.16,13.11-14.36,22.66-16.06,34.89a61.39,61.39,0,0,0,5.58,34.86c.42.84.72,1.54,1,2,4.86,7.55,12.84,19.37,33,29.63,9.07,4.6,18.3,6,24.16,7,14.39,2.48,18.26-2.54,29.73-.44,6.43,1.18,12,4,18.27,9.06,4.33,3.53,8.42,7.62,13.48,12,11.87,10.27,18,20.93,26.6,30.13,1.45,1.55,2.64,3.29,4,4.86,33.36,39.4,35.34,46.24,48.93,52.74,21.61,10.32,46.67,6,58.52,3.43,3.75-.83,7.86-1.75,12-2.91a108.45,108.45,0,0,0,22.49-9.22c17.25-9.37,28.41-21.62,37.6-31.87,7.59-8.46,22.74-27.18,28.61-52.65,2.77-12,2.37-17.4,7-30.62,3.89-11.22,7.1-19.77,14.52-26.53,10-9.23,23.44-11.92,35.4-14,11-2,15.33-1.35,20.57-5.6,6.83-5.53,9.15-15.21,9.94-23.09a201,201,0,0,0-30.28-82.54C1124.32,493.39,1110.68,474.86,1087.23,465Z" transform="translate(-415.86 -144.25)"/><path class="x" d="M1077.93,471.61c-16.08-6.7-22.67-3.74-63.83-7.64-23.23-2.21-36-2.84-42.43-4a60,60,0,0,1-7.29-2.33c-14.1-5.68-16.86-11.16-37.94-24.21-11.44-7.09-19.72-11.84-29.64-14.63-1.29-.35-2.61-.62-3.94-.95-5.44-1.37-15.14-3-35.79,1.55-22.28,4.86-38.85,5.77-56.85,19.23-6.74,5-19.92,17.93-24.84,36.74-3.47,13.28-1.41,15.82-2.75,43-1,20.47-4.68,27.11-7.69,31.85-4.83,7.64-8.56,8.15-18.41,20.94-9.53,12.39-13.35,21.64-14.8,33.28a58.16,58.16,0,0,0,5.76,33,16.08,16.08,0,0,0,1,1.88c5.29,7,12.45,17.9,31.64,27.77,8.35,4.27,17,5.78,22.58,6.88,13.25,2.56,17-1.85,27.67.37,6,1.26,11.17,4,16.92,8.86,4.06,3.43,7.76,7.31,12.4,11.46,10.8,9.66,16.13,19.75,24.27,28.68,1.35,1.48,2.43,3.13,3.65,4.62,30.42,37,32.46,43.73,45.25,50,20.35,10,44.29,5.91,55.78,3.33,3.63-.81,7.56-1.71,11.39-2.81a103.89,103.89,0,0,0,21.43-8.86c16.29-8.9,26.92-20.52,35.88-30.41,7.23-8,21.29-25.35,26.93-48.77,2.67-11.1,2.47-16.16,6.8-28.35,3.69-10.36,6.76-18.3,13.61-24.59,9.33-8.64,21.65-11.34,32.66-13.47,10.06-2,14.06-1.54,18.88-5.55,6.25-5.21,8.39-14.18,9.13-21.53A185.24,185.24,0,0,0,1127,519.47C1113,498.23,1100,480.89,1077.93,471.61Z" transform="translate(-415.86 -144.25)"/><path class="y" d="M1068.63,478.28c-15.2-6.3-21.82-3.71-59.44-7.11-21.54-1.95-33.52-2.29-39.5-3.25a67.47,67.47,0,0,1-6.8-2.08c-13.11-5-16.08-10-35.6-21.85-10.62-6.43-18.41-10.79-27.69-13.43-1.2-.33-2.43-.59-3.67-.91-5.33-1.37-14.36-2.92-33.23.82-20.66,4.09-36,4.32-53,16.36-6.37,4.5-18.5,16.14-23.29,33.12-3.39,12-1.87,14.41-3.35,39.06-1.1,18.53-4.59,24.65-7.44,29.08-4.49,7-8,7.59-16.89,19.28S746.43,588,745.23,599.05a55.22,55.22,0,0,0,5.93,31.12,15.84,15.84,0,0,0,1,1.76c5.31,6.79,12.09,16.41,30.3,25.91,7.65,4,15.61,5.55,21,6.73,12.12,2.65,15.83-1.14,25.61,1.2,5.49,1.33,10.32,4,15.55,8.62,3.75,3.31,7.1,7,11.3,10.93,9.73,9.06,14.28,18.57,22,27.25,1.23,1.38,2.2,2.95,3.32,4.37,27.49,34.6,29.56,41.21,41.57,47.32,19.1,9.67,41.89,5.79,53,3.23,3.52-.8,7.25-1.68,10.83-2.71A99.58,99.58,0,0,0,1007,756.3c15.32-8.42,25.47-19.39,34.17-29,6.89-7.57,19.84-23.51,25.25-44.88,2.57-10.18,2.57-14.91,6.64-26.05,3.48-9.54,6.42-16.83,12.72-22.69,8.63-8,19.86-10.75,29.91-12.89,9.14-2,12.8-1.72,17.2-5.5,5.68-4.87,7.64-13.16,8.33-20a170.24,170.24,0,0,0-26.43-72.56C1101.65,503.08,1089.28,486.94,1068.63,478.28Z" transform="translate(-415.86 -144.25)"/><path class="z" d="M1059.33,484.94c-14.32-5.91-21-3.69-55-6.6-19.86-1.68-31-1.74-36.56-2.5-3-.77-4.87-1.3-6.33-1.83-12.14-4.35-15.31-8.87-33.27-19.47-9.8-5.79-17.1-9.75-25.73-12.24-1.11-.32-2.25-.55-3.39-.86-5.23-1.4-13.59-2.89-30.68.08-19.06,3.31-33.1,2.86-49.1,13.48a58,58,0,0,0-21.73,29.51c-3.31,10.78-2.32,13-3.93,35.09-1.21,16.59-4.51,22.17-7.2,26.31-4.14,6.35-7.36,7-15.38,17.62-8.3,11-11.32,19.62-12.28,30.07a52,52,0,0,0,6.11,29.25,15,15,0,0,0,1,1.65c5.31,6.54,11.69,14.94,29,24,6.95,3.66,14.28,5.32,19.43,6.61,11,2.71,14.61-.45,23.55,2,5,1.41,9.45,4,14.17,8.39,3.46,3.21,6.45,6.74,10.21,10.41,8.67,8.45,12.44,17.37,19.64,25.8,1.11,1.3,2,2.78,3,4.13,24.56,32.18,26.66,38.7,37.88,44.61,17.84,9.35,39.51,5.65,50.3,3.13,3.41-.79,7-1.64,10.27-2.61a93.79,93.79,0,0,0,19.31-8.11c14.37-7.93,24-18.26,32.46-27.49,6.55-7.13,18.39-21.69,23.56-41,2.49-9.27,2.68-13.68,6.48-23.76,3.28-8.69,6.09-15.37,11.84-20.77,7.91-7.42,18.07-10.16,27.14-12.31,8.22-1.94,11.55-1.9,15.53-5.44,5.1-4.56,6.9-12.13,7.52-18.41a155.37,155.37,0,0,0-24.49-67.57C1090.31,507.92,1078.59,493,1059.33,484.94Z" transform="translate(-415.86 -144.25)"/><path class="aa" d="M1050,491.62c-13.42-5.53-20.13-3.66-50.66-6-18.17-1.42-28.56-1.2-33.63-1.77-2.74-.64-4.46-1.1-5.84-1.56-11.15-3.7-14.54-7.72-30.94-17.1-9-5.15-15.79-8.7-23.77-11.06-1-.29-2.07-.52-3.11-.8-5.12-1.42-12.83-2.87-28.14-.66-17.44,2.52-30.21,1.4-45.21,10.6a51.77,51.77,0,0,0-20.17,25.91c-3.24,9.54-2.79,11.59-4.52,31.13-1.3,14.65-4.41,19.7-7,23.53-3.79,5.71-6.76,6.48-13.87,16-7.67,10.23-10.32,18.61-11,28.46a49.06,49.06,0,0,0,6.28,27.38c.37.62.65,1.16.93,1.53,5,6.6,11.3,13.46,27.61,22.18,6.24,3.34,12.93,5.08,17.83,6.45,9.85,2.76,13.4.26,21.49,2.86a32.11,32.11,0,0,1,12.82,8.16c3.16,3.1,5.8,6.45,9.12,9.88,7.6,7.85,11.84,15.29,17.32,24.36a29.35,29.35,0,0,0,2.67,3.88c23.76,28.1,23.77,36.19,34.21,41.9,16.57,9,37.11,5.52,47.56,3,3.28-.77,6.64-1.61,9.72-2.51A89.59,89.59,0,0,0,998,729.59c13.4-7.45,22.52-17.15,30.74-26,6.2-6.69,17-19.87,21.88-37.12,2.39-8.35,2.78-12.43,6.32-21.46,3.07-7.84,5.73-13.9,10.94-18.85,7.18-6.83,16.27-9.58,24.4-11.74,7.28-1.94,10.29-2.08,13.83-5.38,4.53-4.23,6.15-11.09,6.7-16.86a140.56,140.56,0,0,0-22.55-62.59C1079,512.77,1067.9,499,1050,491.62Z" transform="translate(-415.86 -144.25)"/><path class="ab" d="M1040.75,498.28c-12.55-5.13-19.29-3.61-46.27-5.5-16.49-1.15-26.08-.65-30.7-1-2.46-.54-4-.91-5.36-1.3-10.15-3.06-13.77-6.58-28.6-14.74-8.16-4.49-14.49-7.68-21.82-9.86-.93-.28-1.89-.49-2.84-.76-5-1.44-12.08-2.86-25.58-1.39-15.86,1.72-27.31,0-41.33,7.73-5.22,2.9-14.25,10.79-18.64,22.28-3.16,8.29-3.25,10.18-5.11,27.15-1.39,12.72-4.32,17.23-6.72,20.75-3.44,5.07-6.15,5.93-12.36,14.31-7,9.52-9.31,17.6-9.75,26.86a46.06,46.06,0,0,0,6.47,25.51c.36.56.62,1.06.9,1.41,5,6.36,10.93,12,26.27,20.32,5.52,3,11.59,4.83,16.24,6.31,8.74,2.76,12.19.95,19.44,3.69A30.34,30.34,0,0,1,866.43,648c2.88,3,5.15,6.16,8,9.35,6.53,7.23,10,14.09,15,22.91a24.68,24.68,0,0,0,2.34,3.63c20.82,25.77,20.88,33.69,30.53,39.2,15.32,8.7,34.72,5.39,44.82,2.93,3.16-.78,6.34-1.57,9.16-2.43a84.12,84.12,0,0,0,17.21-7.37c12.43-7,21-16,29-24.57,5.86-6.25,15.5-18,20.2-33.23,2.3-7.45,2.89-11.19,6.16-19.18,2.87-7,5.38-12.44,10-16.92,6.46-6.23,14.47-9,21.65-11.17,6.34-1.93,9-2.25,12.14-5.32,4-3.9,5.41-10.06,5.91-15.28A125.76,125.76,0,0,0,1078,532.9C1067.65,517.6,1057.21,505,1040.75,498.28Z" transform="translate(-415.86 -144.25)"/><path class="ac" d="M1031.45,505c-11.67-4.73-18.44-3.56-41.88-5-14.81-.88-23.6-.09-27.76-.27-2.18-.44-3.64-.72-4.87-1-9.16-2.44-13-5.43-26.28-12.37-7.34-3.84-13.17-6.64-19.86-8.68-.85-.26-1.71-.45-2.57-.71-4.9-1.45-11.33-2.86-23-2.12-14.29.9-24.44-1.52-37.46,4.85-4.82,2.36-12.84,9-17.08,18.66-3.09,7-3.7,8.77-5.69,23.18-1.49,10.78-4.23,14.76-6.48,18-3.08,4.43-5.54,5.38-10.83,12.66a41.19,41.19,0,0,0-8.5,25.25c-.21,10,3.87,18.39,6.65,23.63a7.22,7.22,0,0,0,.88,1.32c5,6.12,10.54,10.46,24.92,18.45a101.87,101.87,0,0,0,14.67,6.17c7.6,2.76,11,1.65,17.38,4.51a29.67,29.67,0,0,1,10.08,7.71c2.58,2.92,4.51,5.87,7,8.82,5.46,6.62,8.24,12.9,12.67,21.48.6,1.16,1.31,2.27,2,3.39,15.87,24.85,18,31.17,26.85,36.48,14.06,8.38,32.32,5.27,42.08,2.84,3.06-.76,6-1.55,8.6-2.34a79.29,79.29,0,0,0,16.16-7c11.46-6.49,19.56-14.92,27.31-23.11,5.49-5.83,14.06-16.2,18.51-29.35,2.21-6.54,3-10,6-16.88,2.67-6.15,5-11,9.15-15,5.75-5.63,12.68-8.39,18.9-10.59,5.43-1.91,7.78-2.44,10.46-5.27,3.39-3.57,4.66-9,5.1-13.72a111.22,111.22,0,0,0-18.68-52.62C1056.32,522.45,1046.5,511.05,1031.45,505Z" transform="translate(-415.86 -144.25)"/><path class="ad" d="M1022.16,511.62c-10.81-4.32-17.61-3.5-37.49-4.43-13.13-.61-21.12.45-24.83.46-1.9-.32-3.23-.52-4.39-.77-8.15-1.82-12.23-4.28-23.94-10a126.58,126.58,0,0,0-17.9-7.49c-.76-.24-1.53-.43-2.28-.66a61.82,61.82,0,0,0-20.47-2.86c-12.73.07-21.56-3-33.59,2-4.44,1.82-11.45,7.22-15.52,15-3,5.8-4.17,7.36-6.28,19.2-1.59,8.85-4.14,12.3-6.24,15.21-2.73,3.8-4.92,4.85-9.32,11-5.79,8.1-7.32,15.57-7.24,23.64.1,9.1,4,16.81,6.83,21.77a7.53,7.53,0,0,0,.84,1.19c5.07,5.85,10.19,9,23.58,16.59a124,124,0,0,0,13.08,6c6.49,2.71,9.77,2.35,15.33,5.34a28.4,28.4,0,0,1,8.72,7.48c2.27,2.83,3.71,5.68,5.86,8.28,4.71,5.77,6.48,11.69,10.35,20,.5,1.07,1.09,2.1,1.71,3.16,13,22.36,15.09,28.66,23.17,33.77,12.8,8.06,29.94,5.13,39.34,2.74,2.94-.74,5.72-1.51,8-2.24a74.14,74.14,0,0,0,15.1-6.63c10.5-6,18.08-13.8,25.6-21.65,5.15-5.38,12.63-14.37,16.82-25.48,2.12-5.62,3.11-8.71,5.84-14.59,2.47-5.3,4.7-9.51,8.26-13.08,5-5,10.88-7.79,16.16-10,4.48-1.89,6.52-2.61,8.78-5.21,2.81-3.24,3.91-8,4.28-12.15a96.71,96.71,0,0,0-16.74-47.64C1045,527.29,1035.8,517.1,1022.16,511.62Z" transform="translate(-415.86 -144.25)"/><path class="ae" d="M1012.86,518.28c-9.92-3.92-16.76-3.42-33.1-3.89-11.44-.32-18.64,1-21.91,1.22-1.61-.23-2.82-.34-3.89-.53-7.17-1.23-11.48-3.12-21.63-7.63a158.27,158.27,0,0,0-16-6.29c-.66-.22-1.34-.39-2-.61A68.54,68.54,0,0,0,896.46,497c-11.18-.81-18.66-4.43-29.71-.91-4,1.3-10.06,5.45-14,11.43-3,4.56-4.62,5.95-6.87,15.24a29.18,29.18,0,0,1-6,12.44c-2.36,3.15-4.29,4.31-7.81,9.34-5.14,7.39-6.33,14.56-6,22,.4,8.23,4.06,15.24,7,19.89a7.85,7.85,0,0,0,.83,1.07c5.11,5.59,9.82,7.46,22.24,14.73,3.44,2,7.6,4,11.51,5.91,5.39,2.63,8.55,3,13.26,6.17a22.26,22.26,0,0,1,7.36,7.25c1.71,2.91,3.2,5.27,4.77,7.77,3.36,5.38,4.74,10.47,8,18.59.39,1,.87,1.93,1.37,2.91,10.22,19.85,12.2,26.16,19.5,31.06,11.54,7.74,27.55,5,36.6,2.64,2.82-.73,5.42-1.49,7.48-2.14a69.56,69.56,0,0,0,14-6.26c9.53-5.53,16.59-12.71,23.87-20.19,4.81-4.95,11.22-12.53,15.15-21.59,2-4.71,3.22-7.47,5.68-12.29,2.27-4.46,4.35-8,7.36-11.17a50.49,50.49,0,0,1,13.4-9.44c3.54-1.85,5.28-2.76,7.09-5.15,2.25-2.91,3.16-6.95,3.48-10.59a82.61,82.61,0,0,0-14.8-42.66C1033.66,532.12,1025.11,523.13,1012.86,518.28Z" transform="translate(-415.86 -144.25)"/><path class="af" d="M1003.57,525c-9.05-3.5-15.92-3.33-28.71-3.35a97.86,97.86,0,0,0-19,1.95c-1.34-.12-2.42-.16-3.42-.27-6.14-.67-10.71-2-19.28-5.25-4.88-1.88-9.25-3.49-14-5.12-.58-.19-1.16-.36-1.73-.56A95.26,95.26,0,0,0,902.11,508c-9.65-1.8-15.78-5.87-25.84-3.79-3.66.76-8.72,3.66-12.4,7.81-3,3.31-5,4.55-7.46,11.27a29.39,29.39,0,0,1-5.75,9.66c-2,2.53-3.67,3.79-6.3,7.7-4.5,6.68-5.35,13.54-4.71,20.42a34.62,34.62,0,0,0,7.18,18c.29.35.55.68.8,1,5.17,5.34,9.48,5.92,20.9,12.86,2.75,1.68,6.31,3.66,9.91,5.76,4.33,2.52,7.34,3.74,11.21,7a29,29,0,0,1,6,7,77.44,77.44,0,0,1,3.67,7.24c2.31,4.74,3,9.24,5.71,17.15.29.87.65,1.75,1,2.66,7.47,17.31,9.31,23.64,15.82,28.35,10.28,7.41,25.16,4.87,33.86,2.54,2.7-.72,5.11-1.46,6.93-2a63.78,63.78,0,0,0,13-5.89c8.56-5,15.12-11.58,22.16-18.73,4.46-4.51,9.82-10.69,13.47-17.7,2-3.79,3.33-6.25,5.52-10a48.39,48.39,0,0,1,6.47-9.24,62.08,62.08,0,0,1,10.64-8.86c2.61-1.8,4-3,5.41-5.1a19.71,19.71,0,0,0,2.67-9,68.7,68.7,0,0,0-12.86-37.68C1022.35,537,1014.4,529.2,1003.57,525Z" transform="translate(-415.86 -144.25)"/><path class="ag" d="M994.27,531.62c-8.17-3.11-15.09-3.17-24.32-2.82a67,67,0,0,0-16,2.69c-1,0-2,0-2.91,0a61.11,61.11,0,0,1-17-2.9c-4.06-1.21-7.94-2.44-12-3.91-.49-.18-1-.33-1.45-.52-4.41-1.65-8.4-3.43-12.79-5.06-8-3-12.91-7.29-22-6.66a23.72,23.72,0,0,0-10.87,4.19c-3,2-5.51,3.12-8.05,7.3a48.1,48.1,0,0,1-5.5,6.88,46.47,46.47,0,0,0-4.79,6c-3.82,6-4.38,12.54-3.45,18.82a32.15,32.15,0,0,0,7.36,16.15c.27.29.53.59.77.83,5.23,5.07,9.17,4.33,19.56,11,2.07,1.33,5.07,3.26,8.33,5.61a52.31,52.31,0,0,1,9.15,7.83,31.18,31.18,0,0,1,4.63,6.8,40.3,40.3,0,0,1,2.58,6.7c1.3,4.11,1.39,8,3.39,15.72.2.77.44,1.57.73,2.39,4.82,14.76,6.42,21.14,12.14,25.64,9,7.09,22.76,4.73,31.12,2.45,2.59-.71,4.8-1.43,6.37-2a59.55,59.55,0,0,0,11.93-5.53c7.59-4.57,13.62-10.49,20.44-17.27a94.72,94.72,0,0,0,11.77-13.83c1.92-2.86,3.48-5,5.37-7.71a79.31,79.31,0,0,1,5.56-7.33c2.86-3.25,5.53-5.88,7.9-8.29a18.54,18.54,0,0,0,3.7-5,20.41,20.41,0,0,0,1.87-7.48,55.28,55.28,0,0,0-10.93-32.69C1011,541.78,1003.7,535.23,994.27,531.62Z" transform="translate(-415.86 -144.25)"/><path class="ah" d="M955.8,641.09c12.36-4.3,19.77-11.36,29.6-21,18.27-17.81,27.4-26.71,28.22-39.36,1.09-16.8-10.41-35.73-28.65-42.5-15.48-5.75-29.42-.37-33,1.16a56.68,56.68,0,0,1-27.15-3c-14.75-5.65-17.48-14.58-29.51-15.8-8.94-.9-21,2.66-26.49,12.41-6.06,10.73-1.6,24.49,5.35,31.48,5.7,5.73,9.24,3.06,19,9.85,3.22,2.25,12.71,9,17.11,20.69,2.93,7.76.41,9.25,2.94,22.6,2.32,12.24,3.53,18.63,8.47,22.93C931.77,649.48,950.24,643.05,955.8,641.09Z" transform="translate(-415.86 -144.25)"/></svg>