<svg xmlns="http://www.w3.org/2000/svg" xmlns:xlink="http://www.w3.org/1999/xlink" width="977.11" height="989.46" viewBox="0 0 977.11 989.46"><defs><style>.a,.b,.c,.d,.e,.f,.g,.h,.i,.j,.k,.l,.m,.n,.o,.p,.q,.r,.s,.t,.u,.v{fill:none;stroke-miterlimit:10;stroke-width:2px;}.a{stroke:url(#a);}.b{stroke:url(#b);}.c{stroke:url(#c);}.d{stroke:url(#d);}.e{stroke:url(#e);}.f{stroke:url(#f);}.g{stroke:url(#g);}.h{stroke:url(#h);}.i{stroke:url(#i);}.j{stroke:url(#j);}.k{stroke:url(#k);}.l{stroke:url(#l);}.m{stroke:url(#m);}.n{stroke:url(#n);}.o{stroke:url(#o);}.p{stroke:url(#p);}.q{stroke:url(#q);}.r{stroke:url(#r);}.s{stroke:url(#s);}.t{stroke:url(#t);}.u{stroke:url(#u);}.v{stroke:url(#v);}</style><linearGradient id="a" x1="-155.22" y1="1406.91" x2="-331.28" y2="396.22" gradientTransform="matrix(1, 0, 0, -1, 0, 1800)" gradientUnits="userSpaceOnUse"><stop offset="0" stop-color="#e8ddfd"/><stop offset="1" stop-color="#97e3ee"/></linearGradient><linearGradient id="b" x1="-157.8" y1="1395.11" x2="-329.08" y2="411.8" xlink:href="#a"/><linearGradient id="c" x1="-160.57" y1="1382.33" x2="-327.09" y2="426.37" xlink:href="#a"/><linearGradient id="d" x1="-163.15" y1="1370.52" x2="-324.9" y2="441.94" xlink:href="#a"/><linearGradient id="e" x1="-165.71" y1="1358.72" x2="-322.7" y2="457.47" xlink:href="#a"/><linearGradient id="f" x1="-168.31" y1="1346.92" x2="-320.53" y2="473.05" xlink:href="#a"/><linearGradient id="g" x1="-170.9" y1="1335.13" x2="-318.36" y2="488.6" xlink:href="#a"/><linearGradient id="h" x1="-173.49" y1="1323.32" x2="-316.18" y2="504.18" xlink:href="#a"/><linearGradient id="i" x1="-176.06" y1="1311.52" x2="-313.98" y2="519.73" xlink:href="#a"/><linearGradient id="j" x1="-178.67" y1="1299.73" x2="-311.83" y2="535.29" xlink:href="#a"/><linearGradient id="k" x1="-181.26" y1="1287.93" x2="-309.66" y2="550.83" xlink:href="#a"/><linearGradient id="l" x1="-183.87" y1="1276.11" x2="-307.49" y2="566.41" xlink:href="#a"/><linearGradient id="m" x1="-186.49" y1="1264.3" x2="-305.35" y2="581.93" xlink:href="#a"/><linearGradient id="n" x1="-189.09" y1="1252.5" x2="-303.19" y2="597.47" xlink:href="#a"/><linearGradient id="o" x1="-191.75" y1="1240.73" x2="-301.09" y2="613.02" xlink:href="#a"/><linearGradient id="p" x1="-194.35" y1="1228.94" x2="-298.93" y2="628.56" xlink:href="#a"/><linearGradient id="q" x1="-196.97" y1="1217.14" x2="-296.79" y2="644.09" xlink:href="#a"/><linearGradient id="r" x1="-199.59" y1="1205.38" x2="-294.65" y2="659.64" xlink:href="#a"/><linearGradient id="s" x1="-202.26" y1="1193.58" x2="-292.57" y2="675.12" xlink:href="#a"/><linearGradient id="t" x1="-204.86" y1="1181.79" x2="-290.43" y2="690.61" xlink:href="#a"/><linearGradient id="u" x1="-207.55" y1="1170.05" x2="-288.36" y2="706.13" xlink:href="#a"/><linearGradient id="v" x1="-210.25" y1="1158.29" x2="-286.31" y2="721.62" xlink:href="#a"/></defs><path class="a" d="M175.47,506.47C100.6,453.88,31.4,431.66-12.41,421.36c-63.79-15-115.22-27.05-170.71-5.56-37.09,14.37-32.86,27-131.48,102.4-79.61,60.84-101.59,67.31-112.12,69.91-40.91,10.17-51.14-2.16-120.81,8.77-42.23,6.62-66.91,10.78-91.65,28.75-6.52,4.73-27,20.6-54.24,80-26.83,58.6-46.83,102.3-43.49,164.06,1.27,23.38,4.3,79.42,41.76,128.14,26,33.79,40.63,27.79,102.75,88,46.79,45.35,54.62,64.42,58.24,77.43,6.94,25-.84,30.68,3.86,79.64,3.6,37.49,5.56,57.91,18.54,81,20.47,36.4,53,52.13,59.32,55.05,12.25,5.69,51.68,21.66,94.47,6,25.57-9.38,41.24-26,49.13-34.55,26.54-28.78,19.32-44.54,40.17-66.33,18.84-19.68,42.06-24.68,87.71-33.87,41.72-8.4,74.27-10,99-11,149.22-6.06,156.38,2.07,187.15-12.53,47.44-22.49,77-63.88,88.5-80.06,8.8-12.33,23.79-33.7,34-65.4,13.3-41.43,10.47-75.93,8.36-98.86-2.18-23.6-8.75-86.8-51-144.65-19.24-26.36-31.52-31.92-49.92-65.1-15.08-27.2-26.29-47.39-24.33-73.13,2.6-34.23,27.25-62,49.39-86.88,21-23.6,32.46-28.55,36.16-45.67C201.28,544.2,187.74,521.84,175.47,506.47Z" transform="translate(738.27 -403.15)"/><path class="b" d="M-185,427.12c-36.16,14-32.24,26.45-128,99.67-48.49,37.12-75,53.53-90.52,61.19A85.59,85.59,0,0,1-422,595c-39.75,10-49.78-1.88-117.48,8.81-36.18,5.72-59.16,9.59-80.61,22.4-2.87,1.72-5.72,3.6-8.58,5.67-6.45,4.64-26.46,20-52.93,77.66-26.25,56.86-45.83,99.22-42.77,159.27,1.16,22.72,4.05,77.14,40.3,124.46,25.14,32.85,39.32,27.12,99.52,85.6,45.36,44,52.95,62.59,56.46,75.28,6.72,24.26-.81,29.86,3.77,77.39,3.53,36.53,5.56,56.48,18.29,79,17.09,30.21,42.74,45.79,53.78,51.45,1.89,1,3.34,1.66,4.24,2.08,12.1,5.5,50.37,20.86,92.2,5.58,24.86-9.1,40.17-25.2,47.92-33.53,25.9-27.83,18.94-43.18,39.28-64.28,11.39-11.81,24.4-18.15,43.2-23.36,11.59-3.19,25.33-6,42.23-9.32,40.54-8.07,72.15-9.49,96.35-10.33l14.82-.53c130.77-4.54,138.42,2.43,167.4-11.24,46.31-21.84,75.17-62.29,86.49-78.2,3.66-5.15,8.39-11.86,13.38-20.23A209.74,209.74,0,0,0,215,1074.87c13-40.41,10.22-74.09,8.17-96.61-2.1-23-8.47-84.48-49.42-140.7-18.65-25.64-30.55-31.11-48.4-63.36-14.64-26.44-25.51-46.1-23.61-71.13,2.51-33.29,26.38-60.27,47.83-84.52,20.32-22.95,31.44-27.79,35-44.44,4.73-22.1-8.44-43.82-20.38-58.75-72.8-51.22-140.19-72.94-183-82.95C-80.85,417.85-131,406.15-185,427.12Z" transform="translate(738.27 -403.15)"/><path class="c" d="M-186.92,438.44c-35.27,13.7-31.61,25.87-124.48,96.95-47.1,36.11-72.84,52.17-87.9,59.64a84.17,84.17,0,0,1-17.94,6.86c-38.57,9.82-48.42-1.62-114.14,8.84-35.13,5.6-57.48,9.39-78.36,21.84-2.8,1.67-5.57,3.51-8.35,5.51-6.36,4.57-25.88,19.5-51.63,75.33-25.67,55.12-44.81,96.14-42,154.48,1.06,22.07,3.79,74.87,38.85,120.78,24.31,31.9,38,26.44,96.3,83.18,43.91,42.76,51.26,60.8,54.65,73.17,6.52,23.56-.77,29,3.68,75.14,3.47,35.58,5.57,55,18,76.91,16.71,29.37,41.75,44.48,52.59,50,1.85.94,3.25,1.61,4.14,2,11.92,5.36,49,20.07,89.92,5.23,24.13-8.82,39.08-24.42,46.69-32.51,25.27-26.89,18.57-41.83,38.4-62.24,11.11-11.42,23.79-17.54,42.07-22.56,11.3-3,24.67-5.7,41.08-8.92,39.36-7.74,70.07-8.95,93.68-9.71l14.42-.48c127-4.19,134.57,2.67,162.86-10.59,45.17-21.17,73.37-60.68,84.46-76.33,3.58-5.06,8.2-11.63,13-19.78a206,206,0,0,0,19.27-42.67c12.6-39.39,9.95-72.25,8-94.36-2-22.51-8.2-82.14-47.87-136.75-18.07-24.9-29.59-30.3-46.9-61.61C101.4,750.11,90.86,731,92.68,706.67c2.42-32.37,25.52-58.6,46.29-82.18,19.67-22.29,30.43-27,33.85-43.21,4.55-21.46-8.23-42.55-19.84-57.09-70.71-49.83-136.3-71-178.08-80.75C-85.49,429.32-134.32,418-186.92,438.44Z" transform="translate(738.27 -403.15)"/><path class="d" d="M-188.83,449.76c-34.36,13.35-31,25.29-121,94.22-45.72,35.12-70.68,50.79-85.29,58.1a82.5,82.5,0,0,1-17.41,6.7c-37.41,9.65-47.06-1.35-110.81,8.87-34.09,5.48-55.82,9.21-76.14,21.32-2.72,1.62-5.41,3.41-8.12,5.34-6.28,4.49-25.15,19-50.34,73-24.93,53.44-43.79,93.07-41.31,149.68.94,21.42,3.52,72.59,37.39,117.13,23.46,31,36.67,25.76,93.06,80.77,42.49,41.42,49.59,58.95,52.88,71,6.3,22.85-.74,28.22,3.58,72.89,3.41,34.63,5.57,53.61,17.81,74.88,16.33,28.52,40.75,43.18,51.39,48.54,1.79.91,3.17,1.56,4,1.94,11.76,5.19,47.73,19.29,87.64,4.86,23.41-8.55,38-23.63,45.47-31.49,24.64-26,18.21-40.47,37.53-60.19,10.81-11,23.15-17,40.93-21.75,11-3,24-5.45,39.93-8.53,38.18-7.43,67.94-8.47,91-9.1,4.83-.13,9.49-.3,14-.42,123.24-3.83,130.74,2.93,158.33-9.91,44.05-20.53,71.58-59.09,82.44-74.46,3.52-5,8-11.38,12.73-19.32a200.78,200.78,0,0,0,18.77-41.66c12.25-38.36,9.7-70.43,7.79-92.11-2-21.94-7.93-79.81-46.31-132.8-17.49-24.2-28.65-29.49-45.39-59.87-13.73-25-23.93-43.53-22.16-67.14,2.33-31.42,24.68-56.91,44.73-79.81,19-21.61,29.41-26.26,32.7-42,4.39-20.82-8-41.28-19.31-55.4C73.13,484.64,9.38,464-31.41,454.52-90.13,440.79-137.65,429.9-188.83,449.76Z" transform="translate(738.27 -403.15)"/><path class="e" d="M-190.71,461.09c-33.46,13-30.36,24.71-117.46,91.49-44.32,34.11-68.53,49.43-82.68,56.56a82.42,82.42,0,0,1-16.88,6.53c-36.23,9.48-45.7-1.08-107.47,8.91-33,5.36-54.15,9-73.91,20.78-2.64,1.55-5.25,3.31-7.88,5.18-6.21,4.42-24.53,18.51-49,70.68-24.3,51.73-42.78,90-40.59,144.89.84,20.77,3.25,70.3,36,113.47,22.63,30,35.35,25.09,89.84,78.36,41.05,40.11,47.9,57.14,51.08,68.85,6.1,22.15-.7,27.4,3.48,70.64,3.37,33.67,5.58,52.18,17.58,72.84,15.95,27.68,39.76,41.88,50.19,47.09,1.75.87,3.09,1.5,3.94,1.89,11.62,5,46.45,18.57,85.37,4.48,22.7-8.22,36.92-22.84,44.23-30.47,24-25,17.84-39.11,36.66-58.14,10.53-10.66,22.53-16.39,39.8-20.95,10.72-2.83,23.34-5.2,38.78-8.13,37-7.11,65.83-8,88.34-8.48,4.68-.11,9.21-.25,13.59-.37C31.69,1194,39.12,1200.38,66,1188c42.93-19.85,69.79-57.49,80.43-72.61,3.44-4.87,7.81-11.12,12.39-18.85a196.64,196.64,0,0,0,18.29-40.65c11.91-37.33,9.44-68.57,7.59-89.85S177,888.51,139.93,837.15C123,813.66,112.24,808.47,96.05,779c-13.27-24.21-23.13-42.25-21.44-65.14,2.24-30.49,23.83-55.22,43.18-77.45,18.37-21,28.38-25.51,31.53-40.74,4.2-20.19-7.83-40-18.79-53.72C64,494.9,2,474.79-37.72,465.57-94.77,452.26-141,441.76-190.71,461.09Z" transform="translate(738.27 -403.15)"/><path class="f" d="M-192.61,472.41c-32.55,12.67-29.74,24.13-114,88.76-42.93,33.12-66.37,48.07-80.06,55A78.57,78.57,0,0,1-403,622.55c-35.07,9.31-44.35-.8-104.14,9-32,5.25-52.48,8.85-71.67,20.24-2.57,1.53-5.1,3.22-7.65,5-6.14,4.33-23.91,18-47.75,68.34-23.66,50-41.76,86.93-39.87,140.11.74,20.11,3,68,34.48,109.78,21.79,29.06,34,24.41,86.6,76,39.62,38.8,46.2,55.33,49.3,66.71,5.84,21.46-.67,26.58,3.4,68.39,3.3,32.72,5.62,50.72,17.33,70.8,15.62,26.8,38.75,40.6,49,45.64,1.7.83,3,1.45,3.85,1.81,11.44,4.86,45.13,17.81,83.1,4.11,22-7.94,35.83-22.07,43-29.45,23.39-24.07,17.46-37.77,35.78-56.11,10.25-10.27,21.9-15.8,38.67-20.14,10.43-2.71,22.67-5,37.61-7.74,35.81-6.78,63.72-7.49,85.67-7.87,4.54-.07,8.94-.2,13.19-.3,115.73-2.72,123.07,3.45,149.25-8.56,41.81-19.2,68-55.9,78.41-70.73,3.36-4.79,7.62-10.9,12.07-18.39a192.14,192.14,0,0,0,17.79-39.64c11.56-36.31,9.18-66.73,7.41-87.6S164.46,886.74,128.63,837c-16.32-22.78-26.74-27.88-42.37-56.38-12.82-23.46-22.35-41-20.72-63.14,2.15-29.56,22.93-53.58,41.63-75.1,17.67-20.33,27.36-24.74,30.37-39.5,4-19.56-7.64-38.77-18.25-52C54.82,505.15-5.34,485.56-44.07,476.61-99.42,463.73-144.34,453.63-192.61,472.41Z" transform="translate(738.27 -403.15)"/><path class="g" d="M-194.51,483.72c-31.64,12.34-29.09,23.56-110.45,86-41.54,32.12-64.22,46.7-77.45,53.47a78.6,78.6,0,0,1-15.82,6.22c-33.9,9.13-43-.54-100.81,9-30.95,5.13-50.8,8.66-69.44,19.71-2.48,1.48-4.93,3.11-7.42,4.85-6.06,4.26-23.28,17.47-46.44,66-23,48.29-40.74,83.85-39.15,135.31.65,19.45,2.73,65.75,33,106.12,21,28.11,32.71,23.73,83.38,73.54,38.18,37.49,44.51,53.51,47.51,64.56,5.62,20.76-.73,25.77,3.29,66.14,3.17,31.78,5.64,49.29,17.1,68.77,15.25,26,37.76,39.29,47.79,44.18,1.66.81,2.93,1.41,3.73,1.75,11.27,4.69,43.82,17,80.82,3.73,21.26-7.65,34.74-21.28,41.79-28.43,22.74-23.13,17.09-36.4,34.89-54.06,10-9.88,21.29-15.22,37.54-19.34,10.14-2.58,22-4.69,36.47-7.34,34.64-6.46,61.62-7,83-7.26,4.4,0,8.66-.16,12.79-.25,112-2.29,119.23,3.72,144.71-7.89,40.68-18.53,66.2-54.29,76.39-68.85,3.29-4.69,7.42-10.66,11.73-17.93a187.23,187.23,0,0,0,17.31-38.63c11.21-35.28,8.93-64.9,7.21-85.36-1.76-20.27-7.12-72.83-41.67-120.94-15.74-22.05-25.79-27.05-40.86-54.63-12.36-22.7-21.56-39.67-20-61.14,2.06-28.62,22.07-51.91,40.07-72.74,17-19.68,26.35-24,29.22-38.28,3.85-18.92-7.44-37.49-17.73-50.35-62.4-44.31-120.74-63.38-158.45-72.06C-104.06,475.2-147.69,465.49-194.51,483.72Z" transform="translate(738.27 -403.15)"/><path class="h" d="M-196.41,495.05c-30.73,12-28.49,23-106.94,83.32-40.15,31.1-62.07,45.32-74.84,51.92a78.3,78.3,0,0,1-15.29,6.05c-32.74,8.95-41.63-.26-97.49,9-29.88,5-49.13,8.48-67.2,19.17-2.41,1.43-4.78,3-7.19,4.69-6,4.2-22.66,16.94-45.15,63.69-22.4,46.59-39.72,80.78-38.42,130.53.52,18.81,2.55,63.41,31.58,102.45C-597.18,993-586,988.94-537.2,1037c36.74,36.18,42.82,51.68,45.71,62.41,5.41,20.07-.72,25,3.21,63.9,3.09,30.81,5.65,47.84,16.85,66.73a112.14,112.14,0,0,0,46.6,42.71c1.61.78,2.84,1.36,3.64,1.68,11.12,4.53,42.52,16.27,78.55,3.36,20.54-7.36,33.66-20.49,40.56-27.41,22.1-22.19,16.73-35.05,34-52,9.68-9.5,20.68-14.62,36.41-18.54,9.85-2.45,21.34-4.41,35.33-6.94,33.45-6.07,59.5-6.51,80.32-6.64,4.26,0,8.38-.12,12.38-.19,108.19-1.85,115.39,4,140.18-7.22,39.55-17.86,64.39-52.7,74.37-67,3.21-4.59,7.23-10.42,11.4-17.46a183.37,183.37,0,0,0,16.82-37.62c10.86-34.26,8.71-63.06,7-83.09-1.66-19.71-6.86-70.49-40.13-117-15.16-21.34-24.85-26.26-39.36-52.89-11.89-22-20.77-38.38-19.27-59.14,2-27.7,21.21-50.23,38.54-70.39,16.35-19,25.32-23.22,28.05-37,3.68-18.3-7.24-36.24-17.19-48.68C36.52,525.66-20,507.12-56.72,498.71-108.7,486.67-151,477.35-196.41,495.05Z" transform="translate(738.27 -403.15)"/><path class="i" d="M-198.29,506.37c-29.84,11.66-28,22.25-103.44,80.6-38.82,30-59.91,43.95-72.22,50.37a75.63,75.63,0,0,1-14.76,5.89c-31.57,8.78-40.27,0-94.14,9.06-28.86,4.88-47.47,8.29-65,18.62-2.34,1.39-4.62,2.93-7,4.54-5.91,4.1-22,16.42-43.85,61.36s-38.7,77.71-37.7,125.74c.42,18.16,2.3,61.13,30.13,98.78,19.35,26.17,30.06,22.37,76.92,68.71,35.31,34.88,41.14,49.88,43.9,60.27,5.19,19.37-.69,24.14,3.11,61.65,3,29.87,5.67,46.41,16.62,64.7a108.86,108.86,0,0,0,45.4,41.26c1.57.74,2.76,1.28,3.54,1.61,11,4.36,41.23,15.51,76.28,3,19.82-7.07,32.58-19.7,39.33-26.38,21.46-21.24,16.35-33.71,33.13-50,9.4-9.11,20.05-14,35.28-17.73,9.57-2.33,20.68-4.15,34.18-6.53,32.28-5.74,57.4-6,77.66-6,4.11,0,8.1-.09,12-.14,104.42-1.41,111.56,4.23,135.64-6.54,38.43-17.21,62.61-51.1,72.35-65.12,3.14-4.51,7.06-10.17,11.07-17a176.54,176.54,0,0,0,16.33-36.61c10.52-33.22,8.47-61.22,6.85-80.84-1.58-19.15-6.67-68.1-38.57-113C80.17,816,70.91,811.14,57,785.44c-11.45-21.22-20-37.1-18.56-57.13,1.88-26.76,20.35-48.56,37-68,15.69-18.36,24.29-22.45,26.89-35.8,3.48-17.66-7-35-16.67-47C27.37,535.9-27.34,517.91-63,509.76-113.34,498.14-154.38,489.22-198.29,506.37Z" transform="translate(738.27 -403.15)"/><path class="j" d="M-200.21,517.69c-28.91,11.33-27.37,21.65-99.93,77.87-37.44,29-57.76,42.61-69.61,48.82A73.2,73.2,0,0,1-384,650.12c-30.4,8.6-38.9.27-90.8,9.09-27.83,4.77-45.8,8.11-62.73,18.08-2.25,1.34-4.47,2.82-6.72,4.38-5.85,4-21.43,15.89-42.56,59s-37.68,74.65-37,121c.31,17.51,2,58.84,28.67,95.11,18.52,25.21,28.74,21.7,73.69,66.3,33.88,33.58,39.45,48.06,42.13,58.13,5,18.67-.66,23.32,3,59.4,3,28.91,5.68,45,16.38,62.66a105.36,105.36,0,0,0,44.2,39.8c1.52.71,2.67,1.27,3.45,1.55,10.8,4.19,39.89,14.73,74,2.61,19.1-6.79,31.5-18.92,38.1-25.37,20.82-20.32,16-32.34,32.26-47.93,9.11-8.72,19.42-13.43,34.14-16.93,9.28-2.2,20-3.89,33-6.15,31.09-5.4,55.28-5.53,75-5.4,4,0,7.83,0,11.56-.08,100.66-1,107.73,4.49,131.11-5.86C54.25,1123,77.75,1090,87.27,1076.24c3.06-4.42,6.86-9.93,10.74-16.54a172.4,172.4,0,0,0,15.85-35.6c10.16-32.21,8.21-59.4,6.65-78.58-1.5-18.6-6.42-65.77-37-109.07-14-19.87-22.92-24.63-36.34-49.4-11-20.48-19.19-35.82-17.83-55.14,1.79-25.82,19.48-46.88,35.43-65.68,15-17.71,23.27-21.7,25.73-34.57,3.32-17-6.84-33.71-16.13-45.32C18.21,546.16-34.71,528.67-69.38,520.81-118,509.6-157.72,501.08-200.21,517.69Z" transform="translate(738.27 -403.15)"/><path class="k" d="M-202.11,529c-28,11-26.75,21.06-96.42,75.15-36.07,28-55.61,41.22-67,47.27A72.31,72.31,0,0,1-379.24,657c-29.23,8.43-37.55.54-87.47,9.13-26.76,4.65-44.12,7.92-60.5,17.56-2.18,1.28-4.31,2.72-6.49,4.21-5.77,3.94-20.81,15.37-41.25,56.7s-36.68,71.57-36.26,116.16c.2,16.85,1.79,56.55,27.2,91.43,17.69,24.27,27.42,21,70.46,63.9,32.44,32.26,37.76,46.24,40.34,56,4.76,18-.65,22.5,2.94,57.16,2.89,28,5.69,43.52,16.14,60.62a101.87,101.87,0,0,0,43,38.34c1.47.66,2.59,1.2,3.34,1.49,10.64,4,38.58,14,71.74,2.23,18.38-6.5,30.41-18.13,36.89-24.34,20.17-19.39,15.62-31,31.36-45.89,8.83-8.34,18.81-12.84,33-16.13,9-2,19.35-3.63,31.89-5.75,29.89-5.07,53.16-5,72.3-4.79,3.83.06,7.55,0,11.16,0,96.89-.55,103.89,4.76,126.57-5.19,36.18-15.89,59-47.91,68.32-61.38,3-4.32,6.68-9.69,10.42-16.08a168.2,168.2,0,0,0,15.35-34.59c9.82-31.18,8-57.55,6.47-76.33-1.43-18-6.17-63.43-35.48-105.13-13.46-19.14-22-23.81-34.82-47.65C26.86,768.92,19,754.13,20.29,735.51c1.7-24.88,18.62-45.19,33.88-63.31,14.37-17.06,22.25-20.94,24.58-33.34,3.13-16.38-6.65-32.45-15.61-43.64C9.07,556.4-42,539.47-75.69,531.86-122.63,521.07-161.06,513-202.11,529Z" transform="translate(738.27 -403.15)"/><path class="l" d="M-204,540.33c-27.09,10.65-26.13,20.46-92.91,72.42-34.69,27-53.46,39.84-64.39,45.73a68.42,68.42,0,0,1-13.18,5.4c-28.06,8.25-36.18.82-84.13,9.17-25.72,4.53-42.46,7.74-58.27,17-2.1,1.25-4.15,2.62-6.26,4-5.69,3.84-20.18,14.85-40,54.37C-583,788.22-598.77,817-598.62,859.87c.09,16.2,1.53,54.25,25.76,87.76,16.86,23.31,26.09,20.34,67.23,61.49,31,30.95,36.08,44.42,38.55,53.85,4.54,17.27-.63,21.68,2.84,54.88,2.81,27,5.7,42.09,15.89,58.59a98.57,98.57,0,0,0,41.81,36.89c1.42.65,2.51,1.15,3.24,1.42,10.49,3.84,37.28,13.19,69.46,1.85,17.65-6.21,29.32-17.34,35.65-23.32,19.52-18.46,15.24-29.64,30.5-43.84,8.54-8,18.18-12.24,31.87-15.32,8.72-1.95,18.69-3.37,30.73-5.36,28.73-4.73,51.07-4.56,69.64-4.17,3.69.08,7.25,0,10.75,0,93.12-.12,100.06,5,122-4.53,35.06-15.22,57.23-46.3,66.29-59.51,2.91-4.24,6.48-9.45,10.08-15.61a161.91,161.91,0,0,0,14.86-33.58c9.48-30.18,7.72-55.71,6.29-74.08C93.5,919.82,89,876.21,60.93,836.14c-12.88-18.43-21.07-23-33.32-45.91C17.48,771.27,10,757,11.22,739.09c1.62-24,17.76-43.53,32.33-61C57.26,661.72,64.76,658,67,646c2.93-15.75-6.44-31.19-15.08-41.95C-.1,566.64-49.41,550.28-82,542.87-127.29,532.64-164.4,524.82-204,540.33Z" transform="translate(738.27 -403.15)"/><path class="m" d="M-205.9,551.65c-26.19,10.32-25.54,19.86-89.42,69.7-33.3,26-51.3,38.49-61.77,44.18a70.28,70.28,0,0,1-12.65,5.26c-26.9,8.07-34.83,1.09-80.8,9.21-24.67,4.41-40.79,7.55-56,16.48-2,1.18-4,2.52-6,3.88-5.63,3.78-19.56,14.32-38.66,52-19.25,38-34.64,65.41-34.81,106.58,0,15.55,1.29,52,24.31,84.09,16,22.36,24.79,19.67,64,59.09,29.57,29.64,34.4,42.6,36.77,51.69,4.31,16.57-.61,20.85,2.73,52.66,2.75,26,5.72,40.65,15.66,56.55A95.11,95.11,0,0,0-402,1198.5c1.38.61,2.43,1.1,3.14,1.35,10.33,3.69,36,12.42,67.18,1.48,16.93-5.91,28.23-16.55,34.43-22.3,18.86-17.52,14.88-28.28,29.62-41.8,8.26-7.56,17.56-11.65,30.74-14.51,8.42-1.84,18-3.12,29.58-5,27.54-4.4,48.94-4.07,67-3.55,3.55.1,7,.07,10.34.08,89.36.31,96.21,5.28,117.5-3.84,33.93-14.56,55.44-44.71,64.28-57.64,2.83-4.15,6.28-9.22,9.75-15.15a157.74,157.74,0,0,0,14.37-32.57c9.13-29.14,7.46-53.87,6.1-71.83-1.29-16.93-5.65-58.76-32.38-97.22-12.31-17.7-20.12-22.17-31.8-44.16C8.14,773.67,1,759.93,2.15,742.73c1.52-23,16.9-41.85,30.77-58.61,13-15.75,20.18-19.42,22.26-30.87,2.75-15.12-6.25-29.92-14.55-40.27-49.91-36.06-97.42-51.87-129-59C-131.92,544.11-167.75,536.67-205.9,551.65Z" transform="translate(738.27 -403.15)"/><path class="n" d="M-207.8,563c-25.28,10-24.93,19.27-85.91,67-31.92,25-49.15,37.13-59.16,42.64A68.36,68.36,0,0,1-365,677.67c-25.73,7.9-33.47,1.37-77.47,9.25-23.63,4.29-39.11,7.37-53.8,16-1.94,1.14-3.84,2.42-5.8,3.72-5.54,3.7-18.92,13.81-37.35,49.72C-558,792.6-573,818.65-573.5,858.1c-.12,14.89,1,49.69,22.86,80.42,15.21,21.41,23.44,19,60.78,56.67,28.13,28.33,32.7,40.79,35,49.55,4.09,15.86-.59,20,2.65,50.42,2.67,25.09,5.73,39.21,15.41,54.51a91.63,91.63,0,0,0,39.42,34c1.32.58,2.34,1,3,1.29,10.17,3.51,34.64,11.65,64.9,1.11,16.22-5.64,27.14-15.77,33.2-21.29,18.21-16.59,14.52-26.92,28.75-39.75,8-7.18,16.94-11.06,29.61-13.71,8.14-1.71,17.36-2.86,28.43-4.57,26.36-4.07,46.83-3.59,64.3-2.94,3.4.13,6.71.12,9.93.15,85.59.73,92.39,5.53,113-3.17,32.8-13.9,53.64-43.11,62.25-55.78,2.76-4,6.09-9,9.41-14.69a152.81,152.81,0,0,0,13.88-31.56c8.78-28.1,7.21-52,5.91-69.56C68,912.79,63.79,872.74,38.35,835.9c-11.73-17-19.17-21.36-30.31-42.43C-1.18,776-8,762.81-6.9,746.33c1.43-22.08,16-40.17,29.23-56.24,12.38-15.1,19.15-18.66,21.1-29.65,2.56-14.46-6-28.66-14-38.58C-18.42,587.18-64.12,571.9-94.7,565-136.58,555.59-171.09,548.54-207.8,563Z" transform="translate(738.27 -403.15)"/><path class="o" d="M-209.72,574.28c-24.37,9.65-24.31,18.68-82.4,64.25-30.53,24-47,35.76-56.54,41.1a66.91,66.91,0,0,1-11.6,4.93c-24.56,7.71-32.12,1.63-74.16,9.28C-457,698-471.86,701-486,709.25c-1.86,1.09-3.68,2.32-5.56,3.56-5.47,3.62-18.32,13.29-36.06,47.39-18,34.58-32.61,59.27-33.36,97-.23,14.24.77,47.41,21.4,76.76,14.38,20.45,22.12,18.3,57.55,54.26,26.69,27,31,39,33.18,47.4,3.88,15.18-.57,19.24,2.54,48.15,2.61,24.14,5.75,37.78,15.18,52.48a88.3,88.3,0,0,0,38.22,32.52c1.28.54,2.24,1,2.94,1.22,10,3.35,33.34,10.88,62.63.73,15.49-5.36,26.05-15,32-20.26,17.55-15.67,14.15-25.57,27.87-37.71,7.69-6.79,16.33-10.45,28.48-12.91,7.85-1.58,16.69-2.6,27.28-4.17,25.18-3.74,44.71-3.09,61.63-2.32,3.25.16,6.42.15,9.52.2,81.82,1.16,88.56,5.8,108.44-2.5,31.68-13.24,51.85-41.51,60.23-53.91,2.69-4,5.9-8.72,9.09-14.22a148.34,148.34,0,0,0,13.39-30.55c8.43-27.08,7-50.2,5.72-67.32C55.16,909.23,51.16,871,27,835.75,15.86,819.49,8.79,815.21-1.77,795.07-10.54,778.36-17,765.7-16,749.93-14.65,728.78-.82,711.44,11.69,696c11.72-14.44,18.13-17.9,19.94-28.41,2.38-13.84-5.85-27.4-13.49-36.91-45.7-33.31-89.61-48.05-119.18-54.67C-141.22,567.06-174.43,560.41-209.72,574.28Z" transform="translate(738.27 -403.15)"/><path class="p" d="M-211.6,585.61c-23.46,9.3-23.7,18.08-78.9,61.52-29.15,22.94-44.85,34.39-53.93,39.55a66.66,66.66,0,0,1-11.07,4.78c-23.39,7.52-30.74,1.89-70.8,9.31-21.53,4.06-35.77,7-49.34,14.87-1.79,1-3.53,2.2-5.33,3.4-5.41,3.54-17.71,12.77-34.77,45.06-17.36,32.88-31.67,56.2-32.63,92.22-.35,13.59.52,45.12,19.94,73.08,13.55,19.5,20.81,17.63,54.32,51.84,25.27,25.72,29.33,37.15,31.39,45.26,3.67,14.47-.54,18.41,2.46,45.91,2.53,23.19,5.76,36.35,14.93,50.44a84.85,84.85,0,0,0,37,31.06c1.23.51,2.18.95,2.84,1.16,9.86,3.17,32,10.11,60.36.36,14.77-5.08,25-14.19,30.75-19.25,16.88-14.74,13.78-24.21,27-35.66,7.41-6.41,15.71-9.86,27.35-12.1,7.56-1.46,16-2.35,26.13-3.78,24-3.41,42.6-2.62,58.95-1.71,3.11.18,6.16.2,9.12.26,78.05,1.58,84.72,6.06,103.89-1.82,30.55-12.58,50.07-39.91,58.23-52,2.61-3.87,5.71-8.49,8.76-13.76A142.88,142.88,0,0,0,38,986C46.06,960,44.68,937.67,43.51,921c-1.06-15.25-4.88-51.77-27.74-85.37C5.17,820.06-1.5,815.87-11.52,796.67-19.85,780.72-26,768.58-25,753.53c1.25-20.22,14.3-36.82,26.12-51.54,11.06-13.78,17.11-17.13,18.78-27.17,2.21-13.21-5.65-26.14-13-35.23-43.67-31.92-85.75-46.14-114.3-52.49C-145.86,578.54-177.78,572.27-211.6,585.61Z" transform="translate(738.27 -403.15)"/><path class="q" d="M-213.5,596.93c-22.55,9-23.09,17.49-75.39,58.8-27.77,21.93-42.7,33-51.32,38a62.7,62.7,0,0,1-10.54,4.61c-22.23,7.33-29.39,2.17-67.47,9.35-20.48,3.94-34.1,6.82-47.08,14.33-1.72,1-3.38,2.13-5.11,3.25-5.33,3.45-17.09,12.24-33.46,42.72-16.74,31.17-30.66,53.13-31.92,87.43-.47,12.94.28,42.84,18.5,69.41,12.72,18.56,19.48,16.95,51.09,49.44,23.82,24.4,27.64,35.33,29.6,43.11,3.45,13.77-.53,17.59,2.36,43.66,2.46,22.24,5.76,34.91,14.69,48.41a81.61,81.61,0,0,0,35.83,29.6c1.18.49,2.1.9,2.74,1.1,9.71,3,30.72,9.34,58.08,0,14-4.8,23.87-13.4,29.52-18.22,16.2-13.83,13.41-22.86,26.11-33.62,7.12-6,15.09-9.27,26.22-11.3,7.28-1.33,15.36-2.08,25-3.38,22.82-3.08,40.48-2.14,56.28-1.08,3,.2,5.88.22,8.71.31,74.28,2,80.88,6.32,99.36-1.14,29.43-11.92,48.26-38.33,56.19-50.17,2.54-3.79,5.52-8.25,8.43-13.3A138.45,138.45,0,0,0,25.32,979.7c7.74-25,6.45-46.52,5.34-62.81-1-14.71-4.61-49.42-26.18-81.41-10-14.83-16.33-18.93-25.76-37.19-7.88-15.22-13.67-26.81-12.78-41.14C-32.9,737.86-20.62,722-9.49,708,.92,694.84,6.6,691.59,8.14,682c2-12.58-5.45-24.87-12.43-33.54-41.59-30.54-81.87-44.23-109.4-50.32C-150.51,590-181.12,584.13-213.5,596.93Z" transform="translate(738.27 -403.15)"/><path class="r" d="M-215.4,608.25c-21.65,8.63-22.47,16.9-71.89,56.07-26.38,20.92-40.54,31.66-48.7,36.46a65.31,65.31,0,0,1-10,4.46c-21.06,7.14-28,2.44-64.13,9.37-19.44,3.82-32.44,6.64-44.86,13.8-1.63.94-3.22,2-4.87,3.08-5.26,3.37-16.48,11.73-32.16,40.4-16.12,29.45-29.65,50-31.2,82.64-.58,12.27,0,40.54,17.05,65.73,11.88,17.6,18.16,16.28,47.86,47,22.39,23.09,26,33.51,27.81,41,3.24,13.06-.5,16.77,2.27,41.41,2.39,21.29,5.77,33.47,14.45,46.37a78.18,78.18,0,0,0,34.63,28.15c1.13.44,2,.84,2.64,1,9.56,2.83,29.41,8.57,55.81-.39,13.33-4.52,22.78-12.61,28.29-17.2,15.52-12.91,13.05-21.5,25.25-31.57,6.84-5.66,14.47-8.67,25.09-10.5,7-1.2,14.69-1.82,23.83-3,21.63-2.74,38.36-1.66,53.61-.47,2.82.22,5.59.27,8.3.37,70.51,2.42,77,6.57,94.82-.47,28.31-11.25,46.47-36.72,54.17-48.31,2.47-3.69,5.33-8,8.11-12.83a134,134,0,0,0,11.92-27.52c7.41-24,6.2-44.68,5.16-60.55-.93-14.16-4.35-47.09-24.63-77.46C-16.2,821.19-22.17,817.18-31,799.86c-7.43-14.48-12.88-25.53-12.06-39.15,1.08-18.35,12.58-33.46,23-46.82C-10.34,701.42-5,698.27-3.62,689.18c1.85-11.94-5.25-23.61-11.9-31.87C-55,628.15-93.49,615-120,609.17-155.15,601.48-184.46,596-215.4,608.25Z" transform="translate(738.27 -403.15)"/><path class="s" d="M-217.3,619.57c-20.73,8.29-21.86,16.31-68.38,53.36-25,19.91-38.39,30.29-46.09,34.91a64.67,64.67,0,0,1-9.48,4.3c-19.89,7-26.69,2.64-60.8,9.42-18.4,3.65-30.76,6.45-42.61,13.26-1.56.9-3.07,1.92-4.64,2.92-5.19,3.29-15.87,11.21-30.87,38.07-15.49,27.74-28.64,47-30.49,77.85-.69,11.62-.21,38.26,15.59,62.06,11.06,16.66,16.84,15.6,44.62,44.62,20.95,21.78,24.27,31.69,26,38.82,3,12.37-.48,16,2.17,39.17,2.33,20.33,5.78,32,14.22,44.33a74.79,74.79,0,0,0,33.43,26.68c1.09.42,1.93.79,2.54,1,9.4,2.66,28.09,7.8,53.53-.74,12.61-4.25,21.68-11.82,27.07-16.19,14.82-12,12.67-20.14,24.35-29.53,6.56-5.25,13.85-8.06,24-9.69,6.71-1.08,14-1.57,22.68-2.59,20.45-2.42,36.25-1.19,50.94.14,2.68.25,5.32.32,7.9.43,66.73,2.83,73.21,6.84,90.29.2,27.17-10.57,44.67-35.12,52.15-46.44,2.39-3.61,5.13-7.76,7.77-12.37A128.59,128.59,0,0,0,0,967c7-23,5.94-42.84,5-58.3-.86-13.6-4.1-44.75-23.09-73.5-8.84-13.39-14.42-17.3-22.74-33.7-7-13.73-12.09-24.23-11.33-37.15,1-17.41,11.71-31.8,21.45-44.47,9.08-11.81,14-14.85,15.3-23.47,1.67-11.31-5-22.35-11.37-30.19-37.43-27.78-74.08-40.41-99.59-46C-159.79,613-187.81,607.86-217.3,619.57Z" transform="translate(738.27 -403.15)"/><path class="t" d="M-219.18,630.91c-19.83,8-21.25,15.71-64.87,50.62-23.63,18.9-36.24,28.93-43.48,33.36a62.67,62.67,0,0,1-9,4.14c-18.71,6.76-25.32,2.91-57.46,9.47-17.35,3.53-29.1,6.26-40.39,12.71-1.48.84-2.91,1.81-4.4,2.75-5.12,3.22-15.27,10.69-29.58,35.74-14.86,26-27.61,43.9-29.74,73.06-.8,11-.48,36,14.13,58.4,10.24,15.7,15.54,14.92,41.41,42.21,19.53,20.48,22.6,29.87,24.24,36.68,2.8,11.66-.45,15.13,2.08,36.91,2.27,19.38,5.79,30.59,14,42.32A71.56,71.56,0,0,0-370,1094.51c1,.39,1.86.72,2.44.89,9.24,2.48,26.78,7,51.27-1.14,11.88-4,20.57-11,25.83-15.16,14.14-11.1,12.31-18.81,23.48-27.49,6.27-4.86,13.24-7.47,22.82-8.89,6.43-1,13.36-1.29,21.53-2.19,19.27-2.09,34.12-.71,48.27.75,2.54.27,5,.35,7.49.5,62.95,3.24,69.37,7.11,85.74.88,26.06-9.93,42.88-33.52,50.14-44.57,2.31-3.51,4.94-7.52,7.44-11.91a124.36,124.36,0,0,0,11-25.49c6.69-22,5.69-41,4.78-56-.79-13-3.84-42.42-21.54-69.55-8.27-12.67-13.47-16.49-21.25-32-6.52-13-11.32-22.95-10.61-35.15.9-16.47,10.85-30.1,19.92-42.11,8.42-11.15,13-14.09,14.15-22.24C-25.64,693-32,682.55-38,675.16c-35.34-26.41-70.19-38.5-94.67-43.8C-164.45,624.43-191.15,619.72-219.18,630.91Z" transform="translate(738.27 -403.15)"/><path class="u" d="M-221.1,642.21c-18.91,7.62-20.63,15.13-61.36,47.9-22.25,17.88-34.09,27.56-40.87,31.82a63.59,63.59,0,0,1-8.43,4c-17.54,6.56-24,3.18-54.13,9.5-16.31,3.42-27.42,6.11-38.15,12.19-1.4.8-2.76,1.72-4.18,2.6-5,3.14-14.67,10.16-28.27,33.41-14.25,24.33-26.61,40.82-29,68.27-.91,10.32-.74,33.71,12.68,54.73,9.4,14.75,14.19,14.24,38.17,39.8,18.09,19.17,20.91,28.05,22.44,34.52,2.6,11-.42,14.31,2,34.67,2.19,18.42,5.81,29.16,13.74,40.26a68.25,68.25,0,0,0,31,23.78c1,.35,1.77.68,2.34.81,9.11,2.3,25.48,6.24,49-1.52,11.16-3.69,19.47-10.24,24.63-14.14,13.42-10.19,11.93-17.44,22.59-25.44,6-4.48,12.62-6.88,21.69-8.08,6.14-.82,12.67-1.06,20.38-1.8,18.08-1.76,32-.24,45.59,1.37,2.4.29,4.77.4,7.09.54,59.17,3.64,65.54,7.36,81.21,1.56,24.94-9.28,41.09-31.93,48.12-42.71,2.24-3.42,4.75-7.28,7.11-11.44A119.2,119.2,0,0,0-25.25,954.3c6.34-20.93,5.43-39.17,4.59-53.79-.72-12.49-3.57-40.11-20-65.61-7.69-11.94-12.52-15.68-19.74-30.21-6.08-12.23-10.51-21.66-9.88-33.14.8-15.55,10-28.43,18.36-39.76,7.76-10.5,12-13.33,13-21,1.31-10-4.65-19.82-10.31-26.82-33.27-25-66.31-36.59-89.77-41.62C-169.08,635.9-194.49,631.58-221.1,642.21Z" transform="translate(738.27 -403.15)"/><path class="v" d="M-223,653.53c-18,7.28-20,14.55-57.87,45.18-20.86,16.88-31.93,26.19-38.25,30.27a60.69,60.69,0,0,1-7.92,3.81c-16.38,6.36-22.61,3.45-50.8,9.54-15.25,3.3-25.75,5.9-35.91,11.64-1.34.76-2.61,1.62-3.95,2.44-5,3.05-14.05,9.64-27,31.08-13.64,22.63-25.6,37.75-28.3,63.49-1,9.66-1,31.41,11.23,51,8.58,13.8,12.87,13.56,34.94,37.39,16.64,17.86,19.21,26.24,20.65,32.39,2.39,10.26-.39,13.49,1.9,32.41,2.11,17.48,5.8,27.72,13.49,38.21a65,65,0,0,0,29.84,22.32c1,.32,1.69.63,2.24.76,8.95,2.12,24.15,5.47,46.71-1.89,10.44-3.42,18.38-9.45,23.39-13.12,12.72-9.31,11.57-16.08,21.72-23.4,5.7-4.09,12-6.27,20.56-7.3,5.86-.69,12-.79,19.23-1.4,16.9-1.43,29.76,1.66,42.92,2,2.27.06,4.49.43,6.68.59,55.4,4,61.71,7.62,76.68,2.23,23.81-8.61,39.29-30.33,46.09-40.84,2.17-3.33,4.56-7,6.78-11a113.19,113.19,0,0,0,10-23.48c6-19.9,5.19-37.33,4.41-51.54-.65-11.93-3.32-37.75-18.44-61.63-7.11-11.22-11.58-14.86-18.24-28.46-5.62-11.49-9.72-20.38-9.16-31.15.71-14.61,9.12-26.74,16.82-37.4,7.1-9.84,11-12.57,11.83-19.78,1.13-9.39-4.46-18.55-9.79-25.13-31.14-23.64-62.39-34.68-84.84-39.43C-173.72,647.37-197.84,643.45-223,653.53Z" transform="translate(738.27 -403.15)"/></svg>