<svg id="Layer_2" data-name="Layer 2" xmlns="http://www.w3.org/2000/svg" xmlns:xlink="http://www.w3.org/1999/xlink" viewBox="0 0 2874.06 1721.76"><defs><style>.cls-1{fill:none;}.cls-2{fill:#fff;}.cls-3{fill:#87c1a4;}.cls-4{fill:#91d4d8;}.cls-5{fill:#f4fbfd;}.cls-6{fill:#c5e6e0;}.cls-7{fill:url(#linear-gradient);}.cls-8{fill:url(#linear-gradient-2);}.cls-9{fill:url(#linear-gradient-3);}.cls-10{fill:url(#linear-gradient-4);}.cls-11{fill:url(#linear-gradient-5);}.cls-12{fill:url(#linear-gradient-6);}.cls-13{fill:url(#linear-gradient-7);}.cls-14{fill:url(#linear-gradient-8);}.cls-15{fill:url(#linear-gradient-9);}.cls-16{fill:url(#linear-gradient-10);}.cls-17{fill:url(#linear-gradient-11);}.cls-18{fill:url(#linear-gradient-12);}.cls-19{fill:url(#linear-gradient-13);}.cls-20{fill:url(#linear-gradient-14);}.cls-21{fill:#3bb98b;}.cls-22{fill:#a48ec3;}.cls-23{fill:#735ba7;}.cls-24{fill:#40998a;}.cls-25{fill:#957faf;}.cls-26{fill:#8263ab;}.cls-27{fill:#786db1;}.cls-28{fill:#3db98a;}.cls-29{fill:#f7ec1f;}.cls-30{fill:#208a63;}.cls-31{fill:#fccb0b;}.cls-32{fill:#61c195;}.cls-33{fill:#02a099;}.cls-34{fill:url(#linear-gradient-15);}.cls-35,.cls-42{fill:#927eba;}.cls-35{opacity:0.8;isolation:isolate;}.cls-36{fill:url(#linear-gradient-16);}.cls-37{fill:url(#linear-gradient-17);}.cls-38{fill:#6f63ac;}.cls-39{fill:#048a6f;}.cls-40{fill:#f7ec25;}.cls-41{fill:#8b76b6;}.cls-43{fill:#a78ec3;}.cls-44{fill:#807f92;}.cls-45{fill:#d6cce5;}.cls-46{fill:#c7bcdc;}.cls-47{fill:#88889f;}.cls-48{fill:#2e234c;}.cls-49{fill:#7063ac;}.cls-50{fill:#78758e;}.cls-51{fill:#c6d3e8;}.cls-52{fill:#b4c0d3;}.cls-53{fill:#8984a3;}.cls-54{fill:#5b6ba1;}</style><linearGradient id="linear-gradient" x1="536.59" y1="821.08" x2="536.59" y2="323.22" gradientTransform="matrix(1, 0, 0, -1, -59.74, 1680.18)" gradientUnits="userSpaceOnUse"><stop offset="0" stop-color="#22b684"/><stop offset="0.3" stop-color="#19b072"/><stop offset="1" stop-color="#05a44b"/></linearGradient><linearGradient id="linear-gradient-2" x1="427.6" y1="821.08" x2="427.6" y2="323.22" xlink:href="#linear-gradient"/><linearGradient id="linear-gradient-3" x1="601.12" y1="821.08" x2="601.12" y2="323.22" xlink:href="#linear-gradient"/><linearGradient id="linear-gradient-4" x1="2611.65" y1="960.61" x2="2611.65" y2="365.76" xlink:href="#linear-gradient"/><linearGradient id="linear-gradient-5" x1="2490.43" y1="960.61" x2="2490.43" y2="365.76" xlink:href="#linear-gradient"/><linearGradient id="linear-gradient-6" x1="2402.1" y1="960.61" x2="2402.1" y2="365.76" xlink:href="#linear-gradient"/><linearGradient id="linear-gradient-7" x1="2665.18" y1="960.61" x2="2665.18" y2="365.76" xlink:href="#linear-gradient"/><linearGradient id="linear-gradient-8" x1="2367.76" y1="960.61" x2="2367.76" y2="365.76" xlink:href="#linear-gradient"/><linearGradient id="linear-gradient-9" x1="2535.03" y1="960.61" x2="2535.03" y2="365.76" xlink:href="#linear-gradient"/><linearGradient id="linear-gradient-10" x1="2535.03" y1="671.18" x2="2535.03" y2="304.91" gradientTransform="matrix(1, 0, 0, -1, -59.74, 1680.18)" gradientUnits="userSpaceOnUse"><stop offset="0" stop-color="#009247"/><stop offset="0.11" stop-color="#04964c"/><stop offset="1" stop-color="#20b573"/></linearGradient><linearGradient id="linear-gradient-11" x1="2568.32" y1="960.61" x2="2568.32" y2="365.76" xlink:href="#linear-gradient"/><linearGradient id="linear-gradient-12" x1="2568.32" y1="671.18" x2="2568.32" y2="304.91" xlink:href="#linear-gradient-10"/><linearGradient id="linear-gradient-13" x1="2414.92" y1="960.61" x2="2414.92" y2="365.76" xlink:href="#linear-gradient"/><linearGradient id="linear-gradient-14" x1="2414.92" y1="671.18" x2="2414.92" y2="304.91" xlink:href="#linear-gradient-10"/><linearGradient id="linear-gradient-15" x1="2596.29" y1="960.61" x2="2596.29" y2="365.76" xlink:href="#linear-gradient"/><linearGradient id="linear-gradient-16" x1="2646.71" y1="960.61" x2="2646.71" y2="365.76" xlink:href="#linear-gradient"/><linearGradient id="linear-gradient-17" x1="2613.34" y1="960.61" x2="2613.34" y2="365.76" xlink:href="#linear-gradient"/></defs><title>Partner_Bunnies</title><path class="cls-1" d="M1800.71,0c115.64,39.22,192.83,84.1,278.1,229.5,86.65,147.76,32.73,364.45,8.32,443.56,23.72,41.85,33.59,81,32.88,116.77a1057.43,1057.43,0,0,1,100.87,101.84l59.49-125c12.84-27,51.3-26.8,63.9.29l108.24,232.79a15.41,15.41,0,0,1,8.25,17.75l3.09,6.64c6.41-11.57,4.86-26.15,8.75-38.93,4.07-13.36,21.65-25,31.24-14.83,5.93,6.27,4.21,16.43,7.47,24.41,9.33,22.86,52.66,18.32,56.52,42.7,2.27,14.34-12.13,25-23.91,33.54s-23.61,24-15.51,36c2.59,3.87,6.81,6.34,11.06,8.25,13.61,6.09,29,7.83,42,15.17s23.05,23.9,16,37c-9.86,18.3-41.87,13.27-53.48,29l19.67,42.33c5.25,2.9,10.73,5.48,15.92,8.46,31.5,18.09,52.69,52.93,54.28,89.21.66,15-.8,29.53-4.85,42.87l85.47,183.82,6.6,1.53c9.31,2.21,18.57,4.66,27.63,7.56,15,4.77,30.06,9.44,44.34,15.77,28.59,12.68,55.07,27.65,70.83,53.47,5.51,9,9.16,18.76,9.86,29.13,1.11,16.51-.09,32.84-7.36,48.29a24.89,24.89,0,0,0-1.14,2.85h8.86V0Zm433.54,703.94a11.26,11.26,0,1,1,11.26-11.26A11.26,11.26,0,0,1,2234.25,703.94Zm171.49,82.22a15.53,15.53,0,1,1,15.53-15.53A15.53,15.53,0,0,1,2405.74,786.16Zm24.6-62.08a5.35,5.35,0,1,1,5.35-5.35A5.36,5.36,0,0,1,2430.34,724.08Zm12.44-24.88a5.35,5.35,0,1,1,5.35-5.35A5.36,5.36,0,0,1,2442.78,699.2Zm12.45-24.88a5.35,5.35,0,1,1,5.35-5.35A5.36,5.36,0,0,1,2455.23,674.32Zm12.44-24.88a5.35,5.35,0,1,1,5.35-5.35A5.36,5.36,0,0,1,2467.67,649.44Zm109.43,361.78a11.26,11.26,0,1,1,11.26-11.26A11.26,11.26,0,0,1,2577.1,1011.22Zm101.11-152A11.26,11.26,0,1,1,2689.47,848,11.26,11.26,0,0,1,2678.21,859.27Z" transform="translate(-0.04)"/><path class="cls-1" d="M2.05,1670.18c5.61-21.13,19.33-36.93,37-51.18q5-4,10-7.91c-.52-.32-.9-.51-.9-.51s-8.89-5.21-6.89-11.28a7,7,0,0,1,2.18-3.48c-1.2-3.92-1.28-8.36,1.91-12.14a14.89,14.89,0,0,1,8.9-4.8,6.6,6.6,0,0,1,.65-4.33c2-3.22,8.15-6.54,17-3.87-.62-3.1-.67-7.3,2.84-9.39a8,8,0,0,1,4.86-1.38c0-2.9.6-6.6,3.14-8.57,5.58-4.33,12.71,2.16,15.7,5.37,1.09-2.9,2.72-5.65,5.25-6.49,4.38-1.46,13.33.1,19.47,10.1a10,10,0,0,0,2.56,3q2.5-1.2,5-2.37c.81-1.33,1.5-2.77,2.14-3.56,0,0,4.74-8.27,11.19-8.27a8,8,0,0,1,6.43,3.13c1.4-.57,2.8-1.16,4.2-1.72,1.93-.78,3.88-1.53,5.82-2.29a49.33,49.33,0,0,1-6.78-15.76c-34.52-12-69.57-31.43-97.13-62.62,0,0,52.19-5.72,114.56,12.15a46.88,46.88,0,0,1,54.31-2.69c-67.89-87.95-61.74-159.64-61.74-159.64l46.24,50.73c16,17.58,30.48,44.8,42.53,72.87a80.13,80.13,0,0,1,11.83-9.17c-19.61-16.74-27.35-48.9-10.82-68.69,8.69-10.38,22.06-15.6,32.09-24.7s15.8-26.32,5.94-35.59c-3.74-3.51-8.88-5-13.57-7.07-12.4-5.45-23.33-20.18-16.53-31.89,5.42-9.33,18.28-10.5,27.26-16.48,14.22-9.47,15.58-33.12,2.55-44.16-3.63-3.07-8.21-5.39-10.35-9.64-3.91-7.74,2.53-16.85,9.79-21.6s16.09-7.93,20.74-15.25c4.93-7.75,3.67-17.83,6.35-26.62s14.23-16.42,20.54-9.75c3.9,4.12,2.77,10.8,4.91,16,6.13,15,34.62,12,37.16,28.08,1.5,9.43-8,16.47-15.72,22s-15.52,15.75-10.2,23.68c1.71,2.54,4.48,4.17,7.28,5.42,1.54.69,3.12,1.29,4.72,1.84L519.4,898.51c10.74-22.58,42.93-22.43,53.47.24l18.57,39.94q28.34-36.86,59.78-71.06C632.44,817,633.44,756.52,666,689.76c-26.77-82.93-91.43-324.61,10-466.49C799.82,50,869.83,80.51,942.53,21.27c53.85,43.08-149,350-196.56,395.81-55.3,60.26-50.12,177.11-45.5,223.55a146.86,146.86,0,0,1,35.67-25c34-75.64,129.52-254.08,300.63-326,114-50.26,199.21,3.59,322.21,0-12.56,15.26-51.12,83.41-136.42,117.55s-203.74,35-305.13,94.27c-69.72,46.82-98.74,77.76-110.82,95.78,55.62-4.16,116,11,164.66,33.17,137.44-65.93,291.44-102.87,454.06-102.87a1048.36,1048.36,0,0,1,380,70.8c34.82-16.18,73.75-27,112-28.24-21.46-24.36-57-55.9-106.1-70.64-86-25.82-223.32-147-223.32-147S1473,199.88,1508,172.06c20.64,59.23,159.77,105.06,278.23,143.6C1937.12,388.39,1986.35,521,2007.7,588.78a156.5,156.5,0,0,1,26.47,17.06c-.78-78.23-9.5-252.69-70.24-298.24-32.82-25.76-101.42-143.6-119.37-234.25-10.2-51.5-60.14-38.62-43.85-73.35H0V1721.76H9c-1.11-2.37-2.14-4.78-3.07-7.23C.49,1700.18-2,1685.59,2.05,1670.18ZM614.13,879.35a9.38,9.38,0,1,1-9,9.76A9.39,9.39,0,0,1,614.13,879.35ZM573.61,817a9.38,9.38,0,1,1-9,9.76A9.38,9.38,0,0,1,573.61,817ZM490.83,689.5a9.38,9.38,0,1,1-9,9.76A9.38,9.38,0,0,1,490.83,689.5Zm-78.56,354a11,11,0,1,1-11.4,10.61A11,11,0,0,1,412.27,1043.51ZM377.52,1020a11,11,0,1,1-10.61-11.4A11,11,0,0,1,377.52,1020ZM351.87,783.13a15,15,0,1,1-15.52,14.44A15,15,0,0,1,351.87,783.13Z" transform="translate(-0.04)"/><path class="cls-2" d="M1625.11,831.74c12.15-67.31,52.5-67.31,59.09-111.56,3.27-40.7,54.7-91,121.08-121.85a1048.36,1048.36,0,0,0-380-70.8c-162.62,0-316.62,36.94-454.06,102.87,50.52,23,88.29,53.62,94.67,77.93,18.85,71.8,59.24,63.73,70,105S1133.26,939,977.08,1009c-1.57.7-3.15,1.37-4.74,2a82.88,82.88,0,0,1,2.62,10.7c30.37,38.23,69.72,102.5,113.86,210.3,1.37,3.35,2.73,6.66,4.07,10a128,128,0,0,1,24.41-1.46c32.74-27,75.29-78.82,48.06-153.34-9.45-30.91,33.13-13.39,58.84,16.3s59.06-30.32,59.06-30.32-13-87.27,74.94-53.56c15.43-1.33-8.52,76.83,3.59,100.47s-85.1,117.49-85.1,117.49-32.36,16.83-70.17,39.08a254,254,0,0,1,26,24.06l21.89,21.2,31.14,30.17c24.35,2.63,50.62,4.5,78.73,5.28,14.54-16.08,22.24-32.22,35.06-33.78,0,0,32.32,0,49.37,17,31.59-3.6,59.29-7.61,83.54-11.84a129.35,129.35,0,0,1,172.38-71.39c12.21-23.8,30.77-50.47,49.36-82.59,9.71-63.68,33.37-120.2,58.22-163.44-3.16-.25-6.3-.54-9.41-.9C1631.9,990.74,1618.55,873.9,1625.11,831.74Z" transform="translate(-0.04)"/><path class="cls-2" d="M690.83,977.18Q701.77,967,714.18,957c-27.79-24.39-50-54.56-63-89.38q-31.41,34.17-59.78,71.06l46.45,99.89c13.64-20.5,31-40.95,52.63-61.11h0ZM641.46,939a9.38,9.38,0,1,1,9-9.76A9.38,9.38,0,0,1,641.46,939ZM668,979.91a9.38,9.38,0,1,1,9-9.76A9.39,9.39,0,0,1,668,979.91Z" transform="translate(-0.04)"/><path class="cls-2" d="M2147.05,941a11.24,11.24,0,0,1,15.36,10.48,11.4,11.4,0,0,1-.62,3.67Q2172,965.48,2180.74,976l40.14-84.35A1057.43,1057.43,0,0,0,2120,789.83c-.77,38.91-14.05,73.81-35.67,103.79A454.76,454.76,0,0,1,2147.05,941Zm31.4-85.81a11.26,11.26,0,1,1-11.26,11.26A11.26,11.26,0,0,1,2178.45,855.19Z" transform="translate(-0.04)"/><path class="cls-3" d="M1188.2,1512.19c-.09-9.64-.24-19-.7-27.06,0,0-3.24-2.28-2.91-3.93-.69.7-3.35,3.08-6.26,1.29-3.39-2.08,2.24-3.08,2.24-3.08s-7.58-3-5.33-4.84,8.08,1.2,8.08,1.2-3.18-5.59-.58-7.25,5.48,6.34,5.48,6.34,2-6.95,5.09-5.48-.59,7.68-.59,7.68,6.44-1,6.29,2c-.12,2.38-4.41,1.82-6.92,1.84a1.61,1.61,0,0,1-.25.52c-1.06,2.38-2.41,2.83-2.52,4.23,0,.58.32,13.68.75,28.8.67.87,1.32,1.76,1.94,2.69a41.5,41.5,0,0,1,5.73-3c2.41-21.49,5.91-46.09,8.17-59a13.42,13.42,0,0,1-1.64-2c-2-.41-4.07-1.1-4.66-2.2-1.16-2.18,1.7-3,1.7-3s-3.45-3.16-3.33-5.27c-12.88-1.26-26-2.42-39.07-3.51a407.52,407.52,0,0,1,7.53,58.39A49.34,49.34,0,0,1,1188.2,1512.19Z" transform="translate(-0.04)"/><path class="cls-3" d="M1210.71,1447.5a7,7,0,0,1,2-3.27l-2.22-.23A18.62,18.62,0,0,1,1210.71,1447.5Z" transform="translate(-0.04)"/><path class="cls-3" d="M1296.39,1460.15a8.92,8.92,0,0,1,.78-3.65c-23.4-4.86-51-8.66-80.22-11.82,1.34,1.8-2.12,4.78-2.12,4.78s5.74-1.19,6.89,1.53-6.85,3.72-6.85,3.72,2.57,1.45,0,2.13c-1.7.45-4.17-1-5.66-2.1-.93.56-1.35.38-1.6,1.41-1.24.81-5.16,31.24-8,57.3a41.63,41.63,0,0,1,14.43-2.6c19.73,0,36.34,13.69,41.26,32.29a40.85,40.85,0,0,1,30-14.61l.06-.36a10.05,10.05,0,0,1,.58-3,243.91,243.91,0,0,1,18.17-56.12A9,9,0,0,1,1296.39,1460.15Z" transform="translate(-0.04)"/><path class="cls-3" d="M1205.23,1444.83a11.6,11.6,0,0,1,0-1.37l-1.72-.18A22.72,22.72,0,0,1,1205.23,1444.83Z" transform="translate(-0.04)"/><path class="cls-3" d="M1285.6,1352.09l-31.14-30.17-21.89-21.2a254,254,0,0,0-26-24.06c-23.81,14-49.76,30.15-71.16,45.59C1171.63,1333.3,1222.1,1345.25,1285.6,1352.09Z" transform="translate(-0.04)"/><path class="cls-3" d="M1369,1493.41c-1.46,5.53-2.81,11.26-4,17.23,0,0-1.76,15.33-2.58,30.94a31.73,31.73,0,0,1,14-2.36q1,.06,2,.18a5.34,5.34,0,0,1-.37-2,5.44,5.44,0,1,1,8.91,4.19c.89.37,1.77.79,2.62,1.24l21.94-27.86C1399.39,1513.83,1383.92,1508.72,1369,1493.41Z" transform="translate(-0.04)"/><path class="cls-3" d="M1117.3,1240.54a128,128,0,0,0-24.41,1.46c1.73,4.27,3.45,8.49,5.13,12.67A212.05,212.05,0,0,0,1117.3,1240.54Z" transform="translate(-0.04)"/><path class="cls-3" d="M1530.67,1418.31a30.59,30.59,0,0,1-3.89,6.7s17.94,79.89-36.8,74.5-56.54,13.46-56.54,13.46-9,3.31-22,2l-21.94,27.86a32,32,0,0,1,16.33,21.47c22.71.18,45.42,0,68.12-.23,17.71-.21,35.46.11,53.15-.64,34.76-1.49,69.55-1.81,104.33-2.57,17.88-.38,35.75-1.25,53.62-2.1,5.9-21.93,12.88-43.67,20.14-64.9a129.35,129.35,0,0,1-174.51-75.59Z" transform="translate(-0.04)"/><path class="cls-4" d="M1285.38,1528.53h0c0-.12,0-.24,0-.36Z" transform="translate(-0.04)"/><path class="cls-4" d="M1350.24,1550.38a32.11,32.11,0,0,1,12.12-8.8c.82-15.61,2.58-30.94,2.58-30.94,1.21-6,2.56-11.7,4-17.23l-1-1.08c-3.16-13.9-23.47-24.09-53.61-31.87a9,9,0,0,1-9,8.66,7.49,7.49,0,0,1-1.17-.09,243.91,243.91,0,0,0-18.17,56.12,10.33,10.33,0,1,1,19.13,7.74,41,41,0,0,1,21.94,29.88l6.58.15A19.1,19.1,0,0,1,1350.24,1550.38Zm5.43-33.15a5.44,5.44,0,1,1-5.44,5.44A5.45,5.45,0,0,1,1355.67,1517.23Zm-39.19-33a13.88,13.88,0,1,1,13.88,13.88A13.87,13.87,0,0,1,1316.48,1484.2Zm13.52,57.91a7.54,7.54,0,1,1,7.54-7.54A7.55,7.55,0,0,1,1330,1542.11Z" transform="translate(-0.04)"/><circle class="cls-5" cx="1329.96" cy="1534.57" r="7.54"/><circle class="cls-5" cx="1355.63" cy="1522.67" r="5.44"/><circle class="cls-5" cx="1330.32" cy="1484.2" r="13.88"/><path class="cls-5" d="M1297.17,1456.5a8.95,8.95,0,0,0,7,12.53,7.49,7.49,0,0,0,1.17.09,9,9,0,0,0,9-8.66C1308.9,1459.06,1303.17,1457.75,1297.17,1456.5Z" transform="translate(-0.04)"/><path class="cls-5" d="M1285.42,1528.53c.44,0,.88,0,1.33,0a40.62,40.62,0,0,1,18.4,4.39,10.33,10.33,0,1,0-19.13-7.74,10.05,10.05,0,0,0-.58,3C1285.44,1528.29,1285.42,1528.41,1285.42,1528.53Z" transform="translate(-0.04)"/><path class="cls-6" d="M1305.15,1532.89a40.62,40.62,0,0,0-18.4-4.39c-.45,0-.89,0-1.33,0h0a40.85,40.85,0,0,0-30,14.61c.16.61.31,1.22.44,1.83.52,0,1,0,1.55,0a24.47,24.47,0,0,1,23.1,16.42c.14.11.28.21.41.33q23.12.58,46.25,1.1A41,41,0,0,0,1305.15,1532.89Z" transform="translate(-0.04)"/><path class="cls-5" d="M1261.63,1554.62a29.61,29.61,0,0,1,18.8,6.72,24.47,24.47,0,0,0-23.1-16.42c-.52,0-1,0-1.55,0a44.45,44.45,0,0,1,1.06,9.65Z" transform="translate(-0.04)"/><path class="cls-6" d="M1389.49,1542.87c-.85-.45-1.73-.87-2.62-1.24a5.44,5.44,0,0,1-8.54-2.23q-1-.12-2-.18a31.73,31.73,0,0,0-14,2.36,32.11,32.11,0,0,0-12.12,8.8c.47,0,.93-.07,1.41-.07a19.09,19.09,0,0,1,18.22,13.47q18,.45,36,.56A32,32,0,0,0,1389.49,1542.87Z" transform="translate(-0.04)"/><path class="cls-5" d="M1351.65,1550.31c-.48,0-.94,0-1.41.07a19.1,19.1,0,0,0-16.57,12.54q17.89.42,35.78.85h.42A19.09,19.09,0,0,0,1351.65,1550.31Z" transform="translate(-0.04)"/><path class="cls-5" d="M1388.84,1537.44a5.44,5.44,0,1,0-10.88,0,5.34,5.34,0,0,0,.37,2,5.44,5.44,0,0,0,10.51-2Z" transform="translate(-0.04)"/><path class="cls-7" d="M399.94,1252.2c-7,12.89-30.62,8.16-36.6,21.53-3,6.7.59,14.75,6,19.66s12.52,7.79,18.92,11.42a72.35,72.35,0,0,1,18.09,15.08,1047.12,1047.12,0,0,1,185.09-381.2l-18.57-39.94c-10.54-22.67-42.73-22.82-53.47-.24L366.56,1219.7c7.67,2.66,15.82,4.15,22.88,8.16C398,1232.71,404.59,1243.57,399.94,1252.2Zm57.68-173.78a11,11,0,1,1-11.4,10.61A11,11,0,0,1,457.62,1078.42Z" transform="translate(-0.04)"/><path class="cls-8" d="M365.58,1451.16c.39.48.77,1,1.15,1.46a43.59,43.59,0,0,1,5-8.67c-2.55,1.06-5.17,2-7.84,2.81A8.15,8.15,0,0,1,365.58,1451.16Z" transform="translate(-0.04)"/><path class="cls-2" d="M406.35,1319.89a72.52,72.52,0,0,1,17.6,43.58c1,23.85-6,45.82-25.61,59.47h-.08a44.44,44.44,0,0,1-4.05,5.49A43.53,43.53,0,0,1,406,1426.7c18.57,0,34.35,12,40.47,28.83a36.72,36.72,0,0,1,66.32-1.29,64,64,0,0,1,4.45-7.56c-.15-.2-.31-.4-.45-.62-2.66-3.9-2.28-8.79.85-10.92,2.48-1.69,5.93-1.14,8.58,1.09a60.59,60.59,0,0,1,41.57-16.54,61.25,61.25,0,0,1,50.71,27.2,51.23,51.23,0,0,1,46.85-3.82c13.12-21.64,23.16-35.11,23.16-35.11S516,1221.72,637.89,1038.58l-46.45-99.89A1047.12,1047.12,0,0,0,406.35,1319.89Zm62.21,83.73c-3.77.37-7.2-3.14-7.66-7.84s2.22-8.81,6-9.18,7.2,3.14,7.66,7.84S472.33,1403.25,468.56,1403.62Zm33.62-268.29a11,11,0,1,1,11.4-10.61A11,11,0,0,1,502.18,1135.33Z" transform="translate(-0.04)"/><path class="cls-9" d="M406.35,1319.89a72.52,72.52,0,0,1,17.6,43.58c1,23.85-6,45.82-25.61,59.47h-.08a44.44,44.44,0,0,1-4.05,5.49A43.53,43.53,0,0,1,406,1426.7c18.57,0,34.35,12,40.47,28.83a36.72,36.72,0,0,1,66.32-1.29,64,64,0,0,1,4.45-7.56c-.15-.2-.31-.4-.45-.62-2.66-3.9-2.28-8.79.85-10.92,2.48-1.69,5.93-1.14,8.58,1.09a60.59,60.59,0,0,1,41.57-16.54,61.25,61.25,0,0,1,50.71,27.2,51.23,51.23,0,0,1,46.85-3.82c13.12-21.64,23.16-35.11,23.16-35.11S516,1221.72,637.89,1038.58l-46.45-99.89A1047.12,1047.12,0,0,0,406.35,1319.89Zm62.21,83.73c-3.77.37-7.2-3.14-7.66-7.84s2.22-8.81,6-9.18,7.2,3.14,7.66,7.84S472.33,1403.25,468.56,1403.62Zm33.62-268.29a11,11,0,1,1,11.4-10.61A11,11,0,0,1,502.18,1135.33Z" transform="translate(-0.04)"/><path class="cls-10" d="M2551,1230.09a67.5,67.5,0,0,0,12.69,8.71L2544,1196.47a19.75,19.75,0,0,0-2.18,3.72C2537.26,1210.37,2542.7,1222.62,2551,1230.09Z" transform="translate(-0.04)"/><path class="cls-11" d="M2432.68,1247.88c-3.36-3.17-7.47-5.25-11.75-7.07q7.7,22.7,14.37,45.85C2442.05,1273.38,2443.12,1257.72,2432.68,1247.88Z" transform="translate(-0.04)"/><path class="cls-12" d="M2428.37,1163.55c21.62-14.4,23.69-50.37,3.87-67.16-5.52-4.68-12.48-8.21-15.74-14.67-5.93-11.78,3.85-25.63,14.89-32.84s24.48-12.08,31.56-23.21c.32-.51.61-1,.9-1.55l-3.09-6.64a15.55,15.55,0,1,1-8.25-17.75L2344.27,766.94c-12.6-27.09-51.06-27.29-63.9-.29l-59.49,125a1051.07,1051.07,0,0,1,176.59,286.65C2406.84,1172.58,2419,1169.78,2428.37,1163.55ZM2308.66,916.94a15.53,15.53,0,1,1,15.53-15.53A15.53,15.53,0,0,1,2308.66,916.94Z" transform="translate(-0.04)"/><path class="cls-13" d="M2594.86,1426.94l0,0c-17.6,28.2-53.13,39.26-86.15,43.07-4.08.47-8.21.85-12.35,1.12l.09,6.13,24.17,52q4.78.38,9.54.84a3.85,3.85,0,0,1,.18-1,4.81,4.81,0,0,1,1.46-2.34c-.82-2.63-.89-5.61,1.25-8.14a9.88,9.88,0,0,1,5.93-3.18,4.28,4.28,0,0,1,.43-2.83c1.32-2.14,5.38-4.37,11.31-2.58-.43-2.06-.48-4.88,1.9-6.28a5.24,5.24,0,0,1,3.24-.92c0-1.92.42-4.35,2.07-5.65,3.71-2.88,8.44,1.41,10.44,3.54.71-1.93,1.78-3.77,3.49-4.33,2.94-1,8.86.07,12.94,6.71,3.47,5.62,5.13-.3,6.47-1.94,0,0,3.15-5.5,7.44-5.5,6.79,0,6.79,10.67,6.79,10.67-.78,9.15-2.21,22.74-15.69,32.73l2.61.54c15.92,3.41,32.18,5.51,48.24,8.41,13.36,2.42,26.7,5.06,40,7.82,11.29,2.34,22.56,4.76,33.78,7.35L2629,1379.34C2623.28,1398.24,2612.36,1414.77,2594.86,1426.94Z" transform="translate(-0.04)"/><path class="cls-2" d="M2235.22,1075.27,2253,1038c7.91-16.61,31.59-16.51,39.34.18l125.1,269c2.16-1.65,4.27-3.37,6.28-5.19a53.89,53.89,0,0,0,11.62-15.36q-6.68-23.15-14.37-45.85c-2.95-1.26-6-2.4-8.89-3.68-18.84-8.3-35.48-30.7-25.13-48.51a29.52,29.52,0,0,1,10.56-10.3,1051.07,1051.07,0,0,0-176.59-286.65L2180.74,976C2207.81,1008.44,2225.11,1042,2235.22,1075.27Z" transform="translate(-0.04)"/><path class="cls-14" d="M2235.22,1075.27,2253,1038c7.91-16.61,31.59-16.51,39.34.18l125.1,269c2.16-1.65,4.27-3.37,6.28-5.19a53.89,53.89,0,0,0,11.62-15.36q-6.68-23.15-14.37-45.85c-2.95-1.26-6-2.4-8.89-3.68-18.84-8.3-35.48-30.7-25.13-48.51a29.52,29.52,0,0,1,10.56-10.3,1051.07,1051.07,0,0,0-176.59-286.65L2180.74,976C2207.81,1008.44,2225.11,1042,2235.22,1075.27Z" transform="translate(-0.04)"/><path class="cls-15" d="M2471,1471.51q2.79,27.63,4.14,55.67l3,.06,1.42-55.52C2476.72,1471.7,2473.86,1471.64,2471,1471.51Z" transform="translate(-0.04)"/><path class="cls-16" d="M2471,1471.51q2.79,27.63,4.14,55.67l3,.06,1.42-55.52C2476.72,1471.7,2473.86,1471.64,2471,1471.51Z" transform="translate(-0.04)"/><path class="cls-17" d="M2497.22,1527.85q11.75.51,23.44,1.43l-24.17-52Z" transform="translate(-0.04)"/><path class="cls-18" d="M2497.22,1527.85q11.75.51,23.44,1.43l-24.17-52Z" transform="translate(-0.04)"/><path class="cls-2" d="M2393.75,1446c-31.61-24.83-44.68-75.57-18.88-106.39,11.48-13.7,28.31-21.5,42.53-32.37l-125.1-269c-7.75-16.69-31.43-16.79-39.34-.18l-17.74,37.28c12.59,41.46,14,82.55,9.26,120.63,32,69.81,52.87,141.3,56.2,170.59,4.25,37.36,5.28,56-5,71.81,57.06,10.84,93.29,65.37,93.29,65.37a189.34,189.34,0,0,1,12.94,23.95c2.15,0,4.31.05,6.47.05,13.47-.09,27-.73,40.47-.73,8.78,0,17.56.07,26.33.24q-1.35-28-4.14-55.67C2443,1470.23,2415.55,1463.09,2393.75,1446Z" transform="translate(-0.04)"/><path class="cls-19" d="M2393.75,1446c-31.61-24.83-44.68-75.57-18.88-106.39,11.48-13.7,28.31-21.5,42.53-32.37l-125.1-269c-7.75-16.69-31.43-16.79-39.34-.18l-17.74,37.28c12.59,41.46,14,82.55,9.26,120.63,32,69.81,52.87,141.3,56.2,170.59,4.25,37.36,5.28,56-5,71.81,57.06,10.84,93.29,65.37,93.29,65.37a189.34,189.34,0,0,1,12.94,23.95c2.15,0,4.31.05,6.47.05,13.47-.09,27-.73,40.47-.73,8.78,0,17.56.07,26.33.24q-1.35-28-4.14-55.67C2443,1470.23,2415.55,1463.09,2393.75,1446Z" transform="translate(-0.04)"/><path class="cls-20" d="M2393.75,1446c-31.61-24.83-44.68-75.57-18.88-106.39,11.48-13.7,28.31-21.5,42.53-32.37l-125.1-269c-7.75-16.69-31.43-16.79-39.34-.18l-17.74,37.28c12.59,41.46,14,82.55,9.26,120.63,32,69.81,52.87,141.3,56.2,170.59,4.25,37.36,5.28,56-5,71.81,57.06,10.84,93.29,65.37,93.29,65.37a189.34,189.34,0,0,1,12.94,23.95c2.15,0,4.31.05,6.47.05,13.47-.09,27-.73,40.47-.73,8.78,0,17.56.07,26.33.24q-1.35-28-4.14-55.67C2443,1470.23,2415.55,1463.09,2393.75,1446Z" transform="translate(-0.04)"/><path class="cls-21" d="M1685,1558.8c-17.87.85-35.74,1.72-53.62,2.1-34.78.76-69.57,1.08-104.33,2.57-17.69.75-35.44.43-53.15.64-22.7.27-45.41.41-68.12.23q-18-.13-36-.56h-.42q-17.88-.45-35.78-.85l-6.58-.15q-23.13-.52-46.25-1.1a31.22,31.22,0,0,1,11,23.95c0,17.14-13.54,31-30.25,31H1151.28c-10.15,32.91-25.48,67.37-46.68,105.14H1513v-7.11c-2.4,3.24-10.57,10.47-32.88,2.8,0,0,21.84-26.56,33.73-8.56,0,0,4.71-15,28.13,0,0,0-11.38,15.49-26.75,5.34a.76.76,0,0,1,0,.16v7.37h158.65C1662.35,1669.75,1670.29,1613.69,1685,1558.8Z" transform="translate(-0.04)"/><path class="cls-21" d="M2873.74,1670.62c-.7-10.37-4.35-20.11-9.86-29.13-15.76-25.82-42.24-40.79-70.83-53.47-14.28-6.33-29.36-11-44.34-15.77-9.06-2.9-18.32-5.35-27.63-7.56l-6.6-1.53c-11.22-2.59-22.49-5-33.78-7.35-13.3-2.76-26.64-5.4-40-7.82-16.06-2.9-32.32-5-48.24-8.41l-2.61-.54a50.87,50.87,0,0,1-11.8,6.41c-1.14.45-2.26.81-3.37,1.13-.2.4-.4.81-.62,1.22-11.4,21.22-37.34,14-37.34,14s-10.87-2.62-11-10.16c-.15-6.71,8-10,8-10,7.65-1.89,1.2-5.06,1.2-5.06s-4.9-2.91-4.76-6.46q-4.75-.46-9.54-.84-11.7-.93-23.44-1.43l.33,23c-13.59,12.82-20,0-20,0l.61-23.56-3-.06c-8.77-.17-17.55-.23-26.33-.24-13.46,0-27,.64-40.47.73-2.16,0-4.32,0-6.47-.05,15.3,33.28,33.79,94.86-8,143.11a152.22,152.22,0,0,1-33.25,28.63c2.24,2.65,2.87,6.9,1.3,11-2.13,5.5-7.48,8.56-12,6.83-3.33-1.29-5.23-4.86-5.11-8.87a194.7,194.7,0,0,1-35.78,13.48h108.29c-.17-10.87-.45-21.27-1-30.62,0,0-5.34-3.74-4.86-6.46-1.21,1.21-5.58,5-10.39,2.1-5.66-3.41,3.73-5.13,3.73-5.13s-12.64-5-8.89-8.06,13.48,2,13.48,2-5.33-9.28-1-12.09,9.13,10.57,9.13,10.57,3.42-11.57,8.49-9.13-1,12.8-1,12.8,10.74-1.79,10.53,3.4c-.16,4-7.38,3-11.57,3.06a2.89,2.89,0,0,1-.43.87c-1.76,4-4,4.72-4.2,7-.06.71.26,13,.73,29.69h15.39c3.76-30.83,8.36-62.46,11.55-80.39a21.74,21.74,0,0,1-2.73-3.41c-3.29-.7-6.88-1.87-7.86-3.71-1.94-3.62,2.83-5,2.83-5s-8.07-7.46-4.79-10.51,11.34,5.22,11.34,5.22-.67-9.07,4.58-8,4.55,12.48,4.55,12.48,2.22-8.49,8.54-6-1.6,9.28-1.6,9.28,9.5-2,11.49,2.56-11.41,6.2-11.41,6.2,4.3,2.4,0,3.54c-2.85.76-7-1.73-9.47-3.5-1.54.93-2.23.68-2.64,2.32-1.81,1.18-7,40.13-11.43,78.92h120.2a10,10,0,0,1,2.38-5.61,13.57,13.57,0,0,1,8.14-4.38,6,6,0,0,1,.59-4c1.82-3,7.43-6,15.55-3.54-.57-2.82-.61-6.66,2.59-8.57a7.25,7.25,0,0,1,4.44-1.26c0-2.64.55-6,2.86-7.81,5.11-4,11.61,2,14.34,4.89,1-2.64,2.48-5.15,4.79-5.92,4-1.33,12.16.1,17.77,9.21,4.74,7.73,7-.4,8.88-2.66,0,0,4.33-7.55,10.22-7.55,9.32,0,9.32,14.66,9.32,14.66-.55,6.4-1.33,14.39-4.41,22.49h209.11a24.89,24.89,0,0,1,1.14-2.85C2873.65,1703.46,2874.85,1687.13,2873.74,1670.62ZM2580.59,1579c6.29-16.42,18.86-31.42,18.86-31.42,1.74,32.82-18.86,49.93-18.86,49.93Zm-8.55,5.92s6.73,8.34,7.65,16.4c0,0-33.14-12.54-42.65-23C2537,1578.32,2563.47,1576.88,2572,1584.93Zm-52.52,95.44a6.9,6.9,0,1,1-13.77-.89h0a6.9,6.9,0,0,1,13.77.9Zm40.3-45.62c-5.43,2.53-11.71.55-14-4.42s.2-11,5.62-13.58,11.71-.55,14,4.42S2565.24,1632.22,2559.82,1634.75Zm45.83,32.43c-4.81,3.49-11.15,3-14.17-1.19s-1.56-10.35,3.25-13.84,11.15-3,14.16,1.19S2610.46,1663.68,2605.65,1667.18Zm134.75-30.56c-1.28,5.8-7.9,9.27-14.79,7.75s-11.43-7.45-10.15-13.25,7.9-9.28,14.78-7.76S2741.68,1630.81,2740.4,1636.62Z" transform="translate(-0.04)"/><path class="cls-21" d="M130.82,1561q-2.52,1.17-5,2.37C128,1564.83,129.54,1563,130.82,1561Z" transform="translate(-0.04)"/><path class="cls-21" d="M441.32,1568.86h-231a47.29,47.29,0,0,1-49.76-20.61c-1.94.76-3.89,1.51-5.82,2.29-1.4.56-2.8,1.15-4.2,1.72,3.79,4.68,3.79,12.93,3.79,12.93-1.46,17-4.38,44.27-41.36,58.87q-2.58,1-5.1,1.74c-.3.6-.59,1.19-.91,1.79-17.16,32-56.16,21.11-56.16,21.11s-16.35-3.88-16.57-15.51c-.17-10,12.09-15,12.09-15,9.24-2.28,4.81-5.8,2.71-7.1Q44,1615,39.05,1619c-17.67,14.25-31.39,30-37,51.18-4.06,15.41-1.56,30,3.9,44.35.93,2.45,2,4.86,3.07,7.23H250.1c-5.43-10.65-6.68-21.29-7.54-29.7,0,0,0-17.81,13.61-17.85,8.6,0,14.92,9.2,14.92,9.2,2.7,2.75,6,12.65,13,3.24,8.18-11.09,20.1-12.84,25.94-11.22,3.37.93,5.53,4,7,7.19,4-3.57,13.48-10.72,20.9-5.93,3.37,2.21,4.16,6.29,4.19,9.5a12.12,12.12,0,0,1,6.5,1.55c4.68,2.32,4.62,7,3.79,10.43,11.86-3,20,.75,22.67,4.33a6.22,6.22,0,0,1,.86,4.78c4.36.67,8.75,2.2,11.92,5.34a11.25,11.25,0,0,1,3.51,9.14h63.38C414.56,1672.71,428.35,1606.36,441.32,1568.86Zm-390,104.69s39.76-2.16,52.64,9.94c0,0,10.12,12.55,11.5,24.67C115.45,1708.18,65.62,1689.3,51.31,1673.55Zm65.53,28.88V1674.6c9.45-24.69,28.36-47.27,28.36-47.27C147.82,1676.7,116.84,1702.43,116.84,1702.43Zm131.59-59a6.9,6.9,0,1,1-13.77-.89h0a6.9,6.9,0,0,1,13.77.9Zm27.95-9.34a5.72,5.72,0,1,1,6-5.71A5.87,5.87,0,0,1,276.38,1634.06Zm26.77-14.37a8.09,8.09,0,1,1,8.5-8.08A8.3,8.3,0,0,1,303.15,1619.69Zm17,21.17a8.09,8.09,0,1,1,8.5-8.08A8.3,8.3,0,0,1,320.15,1640.86Z" transform="translate(-0.04)"/><path class="cls-21" d="M1513.78,1713.32l.09,0-.06,0Z" transform="translate(-0.04)"/><path class="cls-22" d="M2431.39,1048.88c-11,7.21-20.82,21.06-14.89,32.84,3.26,6.46,10.22,10,15.74,14.67,19.82,16.79,17.75,52.76-3.87,67.16-9.38,6.23-21.53,9-30.9,14.77a29.52,29.52,0,0,0-10.56,10.3c-10.35,17.81,6.29,40.21,25.13,48.51,2.92,1.28,5.94,2.42,8.89,3.68,4.28,1.82,8.39,3.9,11.75,7.07,10.44,9.84,9.37,25.5,2.62,38.78a53.89,53.89,0,0,1-11.62,15.36c-2,1.82-4.12,3.54-6.28,5.19-14.22,10.87-31.05,18.67-42.53,32.37-25.8,30.82-12.73,81.56,18.88,106.39,21.8,17.12,49.23,24.26,77.25,25.54,2.86.13,5.72.19,8.58.21l10.79-419.33,6,418.78c4.14-.27,8.27-.65,12.35-1.12,33-3.81,68.55-14.87,86.15-43.07l0,0c17.5-12.17,28.42-28.7,34.15-47.6,4-13.34,5.51-27.86,4.85-42.87-1.59-36.28-22.78-71.12-54.28-89.21-5.19-3-10.67-5.56-15.92-8.46a67.5,67.5,0,0,1-12.69-8.71c-8.27-7.47-13.71-19.72-9.16-29.9a19.75,19.75,0,0,1,2.18-3.72c11.61-15.77,43.62-10.74,53.48-29,7.05-13.1-3-29.66-16-37s-28.39-9.08-42-15.17c-4.25-1.91-8.47-4.38-11.06-8.25-8.1-12,3.73-27.46,15.51-36s26.18-19.2,23.91-33.54c-3.86-24.38-47.19-19.84-56.52-42.7-3.26-8-1.54-18.14-7.47-24.41-9.59-10.17-27.17,1.47-31.24,14.83-3.89,12.78-2.34,27.36-8.75,38.93-.29.52-.58,1-.9,1.55C2455.87,1036.8,2442.43,1041.67,2431.39,1048.88Zm93.44-17.57a15.53,15.53,0,1,1-15.53,15.53A15.53,15.53,0,0,1,2524.83,1031.31Z" transform="translate(-0.04)"/><path class="cls-23" d="M2496.4,1471.17l-6-418.78-10.79,419.33-1.42,55.52-.61,23.56s6.41,12.82,20,0l-.33-23-.73-50.55Z" transform="translate(-0.04)"/><path class="cls-24" d="M1697.37,1273.28c2.05-5.18,4.51-10.47,7.31-15.92a129.35,129.35,0,0,0-172.38,71.39C1671.34,1304.51,1697.37,1273.28,1697.37,1273.28Z" transform="translate(-0.04)"/><path class="cls-24" d="M1573.5,1409.75c-23.89-1.58-33.65,3.42-42.28,7.22-.18.46-.36.91-.55,1.34a129.35,129.35,0,0,0,174.51,75.59c14.35-42,29.8-81.93,40.1-117.28C1681.75,1398.16,1602.1,1411.64,1573.5,1409.75Z" transform="translate(-0.04)"/><path class="cls-25" d="M270.3,1430.75c6.08-52.83,34-75.13,34-75.13-18,20.42-12.48,32.26-4,66.79,1.69-.11,3.4-.19,5.12-.19a77.5,77.5,0,0,1,17.78,2.11l6.37-247.66,3.64,250.78a77.61,77.61,0,0,1,25.41,16.13,8.2,8.2,0,0,1,5.32,3.18c2.67-.82,5.29-1.75,7.84-2.81a43.24,43.24,0,0,1,22.43-15.52,44.44,44.44,0,0,0,4.05-5.49h.08C418,1409.29,425,1387.32,424,1363.47a72.67,72.67,0,0,0-35.69-58.66c-6.4-3.63-13.51-6.51-18.92-11.42s-9-13-6-19.66c6-13.37,29.6-8.64,36.6-21.53,4.65-8.63-2-19.49-10.5-24.34-7.06-4-15.21-5.5-22.88-8.16-1.6-.55-3.18-1.15-4.72-1.84-2.8-1.25-5.57-2.88-7.28-5.42-5.32-7.93,2.48-18.15,10.2-23.68s17.22-12.57,15.72-22c-2.54-16-31-13.08-37.16-28.08-2.14-5.2-1-11.88-4.91-16-6.31-6.67-17.86,1-20.54,9.75s-1.42,18.87-6.35,26.62c-4.65,7.32-13.48,10.5-20.74,15.25s-13.7,13.86-9.79,21.6c2.14,4.25,6.72,6.57,10.35,9.64,13,11,11.67,34.69-2.55,44.16-9,6-21.84,7.15-27.26,16.48-6.8,11.71,4.13,26.44,16.53,31.89,4.69,2.07,9.83,3.56,13.57,7.07,9.86,9.27,4.09,26.49-5.94,35.59s-23.4,14.32-32.09,24.7c-16.53,19.79-8.79,52,10.82,68.69C266.33,1432.91,268.29,1431.78,270.3,1430.75Z" transform="translate(-0.04)"/><path class="cls-26" d="M329.57,1176.67l-6.37,247.66a78.94,78.94,0,0,1,10,3.12Z" transform="translate(-0.04)"/><path class="cls-27" d="M238.12,1461.58l-55.45-99.76s32.92,50.63,57.93,95.75a80.15,80.15,0,0,1,12-14.28c-12.05-28.07-26.5-55.29-42.53-72.87l-46.24-50.73s-6.15,71.69,61.74,159.64a45.88,45.88,0,0,1,4.14,3A80.73,80.73,0,0,1,238.12,1461.58Z" transform="translate(-0.04)"/><path class="cls-27" d="M304.33,1355.62s-27.95,22.3-34,75.13a76.17,76.17,0,0,1,30-8.34C291.85,1387.88,286.31,1376,304.33,1355.62Z" transform="translate(-0.04)"/><path class="cls-27" d="M171.25,1482c-62.37-17.87-114.56-12.15-114.56-12.15,27.56,31.19,62.61,50.6,97.13,62.62a50.59,50.59,0,0,1-1.35-11.56A49.33,49.33,0,0,1,171.25,1482Z" transform="translate(-0.04)"/><path class="cls-28" d="M238.12,1461.58q1.17-2,2.48-4c-25-45.12-57.93-95.75-57.93-95.75Z" transform="translate(-0.04)"/><path class="cls-29" d="M1203.68,1450.83a1.29,1.29,0,0,0,.12-.4c-.29-.17,0-.35,0,0,.3.18,1.23.34,3.81-.07,0,0,4.68,1.55,2.84,3.39a6.21,6.21,0,0,1-1.24,1c1.49,1.06,4,2.55,5.66,2.1,2.57-.68,0-2.13,0-2.13s8-1,6.85-3.72-6.89-1.53-6.89-1.53,3.46-3,2.12-4.78l-4.2-.45a7,7,0,0,0-2,3.27,18.62,18.62,0,0,0-.18-3.5l-5.29-.54a11.6,11.6,0,0,0,0,1.37,22.72,22.72,0,0,0-1.71-1.55l-5.54-.54c-.12,2.11,3.33,5.27,3.33,5.27s-2.86.82-1.7,3c.59,1.1,2.7,1.79,4.66,2.2A2.76,2.76,0,0,1,1203.68,1450.83Z" transform="translate(-0.04)"/><path class="cls-30" d="M1209.21,1454.74a6.21,6.21,0,0,0,1.24-1c1.84-1.84-2.84-3.39-2.84-3.39-2.58.41-3.51.25-3.81.07a1.29,1.29,0,0,1-.12.4,2.76,2.76,0,0,0,.59,2.38,13.42,13.42,0,0,0,1.64,2c-2.26,12.86-5.76,37.46-8.17,59,.63-.27,1.26-.53,1.91-.76,2.8-26.06,6.72-56.49,8-57.3C1207.86,1455.12,1208.28,1455.3,1209.21,1454.74Z" transform="translate(-0.04)"/><path class="cls-30" d="M1203.8,1450.43c0-.35-.29-.17,0,0Z" transform="translate(-0.04)"/><path class="cls-30" d="M1189.32,1485.69c.11-1.4,1.46-1.85,2.52-4.23a1.61,1.61,0,0,0,.25-.52,3.35,3.35,0,0,0-1.6.24c-.72,2.73-5.15,1.74-5.72-.17l-.18.19c-.33,1.65,2.91,3.93,2.91,3.93.46,8.06.61,17.42.7,27.06.64.74,1.27,1.51,1.87,2.3C1189.64,1499.37,1189.27,1486.27,1189.32,1485.69Z" transform="translate(-0.04)"/><path class="cls-29" d="M1184.77,1481c.57,1.91,5,2.9,5.72.17a3.35,3.35,0,0,1,1.6-.24c2.51,0,6.8.54,6.92-1.84.15-3.08-6.29-2-6.29-2s3.64-6.21.59-7.68-5.09,5.48-5.09,5.48-2.88-8-5.48-6.34.58,7.25.58,7.25-5.83-3-8.08-1.2,5.33,4.84,5.33,4.84-5.63,1-2.24,3.08c2.91,1.79,5.57-.59,6.26-1.29Zm5.85-2.83a8.64,8.64,0,0,0-5.84.4C1184.47,1477.26,1188.79,1474.81,1190.62,1478.18Z" transform="translate(-0.04)"/><path class="cls-31" d="M1190.62,1478.18c-1.83-3.37-6.15-.92-5.84.4A8.64,8.64,0,0,1,1190.62,1478.18Z" transform="translate(-0.04)"/><path class="cls-32" d="M618.53,1446.89a61.25,61.25,0,0,0-50.71-27.2,60.59,60.59,0,0,0-41.57,16.54,10.5,10.5,0,0,1,1.91,2.11c2.65,3.9,2.27,8.8-.86,10.93-3,2-7.31.84-10-2.59a64,64,0,0,0-4.45,7.56,36.72,36.72,0,0,0-66.32,1.29c-6.12-16.83-21.9-28.83-40.47-28.83a43.16,43.16,0,0,0-39.3,25.92c-.38-.49-.76-1-1.15-1.46,0,.19,0,.37,0,.56a8.24,8.24,0,1,1-8.24-8.24,8.55,8.55,0,0,1,1.25.1,77.61,77.61,0,0,0-25.41-16.13,78.94,78.94,0,0,0-10-3.12,77.5,77.5,0,0,0-17.78-2.11c-1.72,0-3.43.08-5.12.19a76.17,76.17,0,0,0-30,8.34c-2,1-4,2.16-5.88,3.37a79.08,79.08,0,0,0-23.82,23.45q-1.31,2-2.48,4a80.73,80.73,0,0,0-8.42,20.71,45.88,45.88,0,0,0-4.14-3,46.88,46.88,0,0,0-54.31,2.69,49.33,49.33,0,0,0-18.78,38.91,50.59,50.59,0,0,0,1.35,11.56,49.33,49.33,0,0,0,6.78,15.76,47.29,47.29,0,0,0,49.76,20.61h231a229.5,229.5,0,0,1,12.05-29s42.19-80.78,114.89-88.86a151.61,151.61,0,0,1,26.19-.58,9.36,9.36,0,0,1-.31-2.33,9.06,9.06,0,1,1,18.12,0,8.94,8.94,0,0,1-1.06,4.24,204.89,204.89,0,0,1,42,11.8c4.22-7.65,8.35-14.73,12.22-21.1a51.23,51.23,0,0,0-46.85,3.82Zm-383.6,79.38c-3.74-2.88-4-8.81-.6-13.25s9.21-5.71,13-2.83,4,8.8.6,13.25S238.68,1529.15,234.93,1526.27Zm94.92-37c1.75-3.85,6.53-5.44,10.68-3.56s6.08,6.53,4.33,10.38-6.53,5.45-10.67,3.57S328.1,1493.09,329.85,1489.24Zm138.21,14.43c-3.75,4.88-10.13,6.28-14.25,3.11s-4.41-9.68-.66-14.56,10.13-6.28,14.24-3.12S471.81,1498.79,468.06,1503.67Z" transform="translate(-0.04)"/><path class="cls-24" d="M1261.63,1554.62h-4.79a44.45,44.45,0,0,0-1.06-9.65c-.13-.61-.28-1.22-.44-1.83-4.92-18.6-21.53-32.29-41.26-32.29a41.63,41.63,0,0,0-14.43,2.6c-.65.23-1.28.49-1.91.76a41.5,41.5,0,0,0-5.73,3c-.62-.93-1.27-1.82-1.94-2.69s-1.23-1.56-1.87-2.3a49.34,49.34,0,0,0-21.76-14.57c2.08,39.52-2.53,78.06-15.16,119h110.35c16.71,0,30.25-13.86,30.25-31a31.22,31.22,0,0,0-11-23.95c-.13-.12-.27-.22-.41-.33A29.61,29.61,0,0,0,1261.63,1554.62Z" transform="translate(-0.04)"/><path class="cls-33" d="M2599.45,1547.59s-12.57,15-18.86,31.42v18.51S2601.19,1580.41,2599.45,1547.59Z" transform="translate(-0.04)"/><path class="cls-33" d="M2579.69,1601.33c-.92-8.06-7.65-16.4-7.65-16.4-8.57-8-35-6.61-35-6.61C2546.55,1588.79,2579.68,1601.33,2579.69,1601.33Z" transform="translate(-0.04)"/><path class="cls-34" d="M2537.83,1526.08c4-.44,4.58-2.14,3.44-4.44a21.39,21.39,0,0,1-2.25-6.22,9.88,9.88,0,0,0-5.93,3.18c-2.14,2.53-2.07,5.51-1.25,8.14C2533.42,1525.5,2535.59,1526.31,2537.83,1526.08Z" transform="translate(-0.04)"/><path class="cls-35" d="M2537.83,1526.08c4-.44,4.58-2.14,3.44-4.44a21.39,21.39,0,0,1-2.25-6.22,9.88,9.88,0,0,0-5.93,3.18c-2.14,2.53-2.07,5.51-1.25,8.14C2533.42,1525.5,2535.59,1526.31,2537.83,1526.08Z" transform="translate(-0.04)"/><path class="cls-36" d="M2605.54,1506.31s0-10.65-6.79-10.67c-4.29,0-7.44,5.5-7.44,5.5-1.34,1.64-3,7.56-6.47,1.94-4.08-6.64-10-7.68-12.94-6.71-1.71.56-2.78,2.4-3.49,4.33.6.65,1,1.1,1,1.1,5.15,7.7,12.64,19.39,9,35q5.78,1,11.53,2.23C2603.33,1529.05,2604.76,1515.46,2605.54,1506.31Z" transform="translate(-0.04)"/><path class="cls-35" d="M2605.54,1506.31s0-10.65-6.79-10.67c-4.29,0-7.44,5.5-7.44,5.5-1.34,1.64-3,7.56-6.47,1.94-4.08-6.64-10-7.68-12.94-6.71-1.71.56-2.78,2.4-3.49,4.33.6.65,1,1.1,1,1.1,5.15,7.7,12.64,19.39,9,35q5.78,1,11.53,2.23C2603.33,1529.05,2604.76,1515.46,2605.54,1506.31Z" transform="translate(-0.04)"/><path class="cls-37" d="M2556.11,1505.61a15.83,15.83,0,0,1-.21-2.8,5.24,5.24,0,0,0-3.24.92c-2.38,1.4-2.33,4.22-1.9,6.28a18.16,18.16,0,0,1,2,.71C2558.64,1513.23,2556.17,1507.61,2556.11,1505.61Z" transform="translate(-0.04)"/><path class="cls-35" d="M2556.11,1505.61a15.83,15.83,0,0,1-.21-2.8,5.24,5.24,0,0,0-3.24.92c-2.38,1.4-2.33,4.22-1.9,6.28a18.16,18.16,0,0,1,2,.71C2558.64,1513.23,2556.17,1507.61,2556.11,1505.61Z" transform="translate(-0.04)"/><path class="cls-21" d="M2574.68,1546.58c1.11-.32,2.23-.68,3.37-1.13a50.87,50.87,0,0,0,11.8-6.41q-5.74-1.18-11.53-2.23A44.79,44.79,0,0,1,2574.68,1546.58Z" transform="translate(-0.04)"/><path class="cls-35" d="M2574.68,1546.58c1.11-.32,2.23-.68,3.37-1.13a50.87,50.87,0,0,0,11.8-6.41q-5.74-1.18-11.53-2.23A44.79,44.79,0,0,1,2574.68,1546.58Z" transform="translate(-0.04)"/><path class="cls-38" d="M2569.36,1501.8s-.35-.45-1-1.1c-2-2.13-6.73-6.42-10.44-3.54-1.65,1.3-2,3.73-2.07,5.65a15.83,15.83,0,0,0,.21,2.8c.06,2,2.53,7.62-3.38,5.11a18.16,18.16,0,0,0-2-.71c-5.93-1.79-10,.44-11.31,2.58a4.28,4.28,0,0,0-.43,2.83,21.39,21.39,0,0,0,2.25,6.22c1.14,2.3.6,4-3.44,4.44-2.24.23-4.41-.58-6,.66a4.81,4.81,0,0,0-1.46,2.34,3.85,3.85,0,0,0-.18,1c-.14,3.55,4.76,6.46,4.76,6.46s6.45,3.17-1.2,5.06c0,0-8.15,3.29-8,10,.09,7.54,11,10.16,11,10.16s25.94,7.22,37.34-14c.22-.41.42-.82.62-1.22a44.79,44.79,0,0,0,3.64-9.77C2582,1521.19,2574.51,1509.5,2569.36,1501.8Z" transform="translate(-0.04)"/><path class="cls-21" d="M2569.19,1711.77a13.57,13.57,0,0,0-8.14,4.38,10,10,0,0,0-2.38,5.61h14.2a7.22,7.22,0,0,0-.58-1.52C2571.24,1718.13,2569.58,1714.75,2569.19,1711.77Z" transform="translate(-0.04)"/><path class="cls-35" d="M2569.19,1711.77a13.57,13.57,0,0,0-8.14,4.38,10,10,0,0,0-2.38,5.61h14.2a7.22,7.22,0,0,0-.58-1.52C2571.24,1718.13,2569.58,1714.75,2569.19,1711.77Z" transform="translate(-0.04)"/><path class="cls-21" d="M2592.66,1698.24a21.19,21.19,0,0,1-.3-3.79,7.25,7.25,0,0,0-4.44,1.26c-3.2,1.91-3.16,5.75-2.59,8.57a26.59,26.59,0,0,1,2.69,1C2596.14,1708.71,2592.75,1701,2592.66,1698.24Z" transform="translate(-0.04)"/><path class="cls-35" d="M2592.66,1698.24a21.19,21.19,0,0,1-.3-3.79,7.25,7.25,0,0,0-4.44,1.26c-3.2,1.91-3.16,5.75-2.59,8.57a26.59,26.59,0,0,1,2.69,1C2596.14,1708.71,2592.75,1701,2592.66,1698.24Z" transform="translate(-0.04)"/><path class="cls-21" d="M2651.22,1684.61c-5.89,0-10.22,7.55-10.22,7.55-1.85,2.26-4.14,10.39-8.88,2.66-5.61-9.11-13.77-10.54-17.77-9.21-2.31.77-3.79,3.28-4.79,5.92.81.88,1.29,1.49,1.29,1.49,4.76,7.13,11,16.72,13,28.74h32.3c3.08-8.1,3.86-16.09,4.41-22.49C2660.54,1699.27,2660.54,1684.64,2651.22,1684.61Z" transform="translate(-0.04)"/><path class="cls-35" d="M2651.22,1684.61c-5.89,0-10.22,7.55-10.22,7.55-1.85,2.26-4.14,10.39-8.88,2.66-5.61-9.11-13.77-10.54-17.77-9.21-2.31.77-3.79,3.28-4.79,5.92.81.88,1.29,1.49,1.29,1.49,4.76,7.13,11,16.72,13,28.74h32.3c3.08-8.1,3.86-16.09,4.41-22.49C2660.54,1699.27,2660.54,1684.64,2651.22,1684.61Z" transform="translate(-0.04)"/><path class="cls-38" d="M2609.56,1691.53c-2.73-2.93-9.23-8.86-14.34-4.89-2.31,1.8-2.84,5.17-2.86,7.81a21.19,21.19,0,0,0,.3,3.79c.09,2.8,3.48,10.47-4.64,7a26.59,26.59,0,0,0-2.69-1c-8.12-2.45-13.73.59-15.55,3.54a6,6,0,0,0-.59,4c.39,3,2,6.36,3.1,8.47a7.22,7.22,0,0,1,.58,1.52h51c-2-12-8.22-21.61-13-28.74C2610.85,1693,2610.37,1692.41,2609.56,1691.53Z" transform="translate(-0.04)"/><path class="cls-33" d="M116.84,1674.6v27.83s31-25.73,28.36-75.1C145.2,1627.33,126.29,1649.91,116.84,1674.6Z" transform="translate(-0.04)"/><path class="cls-33" d="M51.31,1673.55c14.31,15.75,64.14,34.63,64.14,34.61-1.38-12.12-11.5-24.67-11.5-24.67C91.07,1671.39,51.31,1673.55,51.31,1673.55Z" transform="translate(-0.04)"/><path class="cls-35" d="M52.49,1594.84c6.08-.68,6.93-3.22,5.18-6.68-1.17-2.31-3-6-3.4-9.28a14.89,14.89,0,0,0-8.9,4.8c-3.19,3.78-3.11,8.22-1.91,12.14C45.82,1594,49.11,1595.2,52.49,1594.84Z" transform="translate(-0.04)"/><path class="cls-35" d="M144.15,1549.13c-6.45,0-11.19,8.27-11.19,8.27-.64.79-1.33,2.23-2.14,3.56q9.78-4.57,19.76-8.7A8,8,0,0,0,144.15,1549.13Z" transform="translate(-0.04)"/><path class="cls-35" d="M108.24,1572.24q8.69-4.63,17.55-8.91a10,10,0,0,1-2.56-3c-6.14-10-15.09-11.56-19.47-10.1-2.53.84-4.16,3.59-5.25,6.49.89,1,1.42,1.63,1.42,1.63A129.15,129.15,0,0,1,108.24,1572.24Z" transform="translate(-0.04)"/><path class="cls-35" d="M80,1564a23.11,23.11,0,0,1-.33-4.13,8,8,0,0,0-4.86,1.38c-3.51,2.09-3.46,6.29-2.84,9.39a27.74,27.74,0,0,1,3,1C83.81,1575.51,80.1,1567.11,80,1564Z" transform="translate(-0.04)"/><path class="cls-21" d="M125.79,1563.33q-8.87,4.28-17.55,8.91c6.71,13.47,10.91,31.31-.33,53.56q2.52-.72,5.1-1.74c37-14.6,39.9-41.84,41.36-58.87,0,0,0-8.25-3.79-12.93q-10,4.13-19.76,8.7C129.54,1563,128,1564.83,125.79,1563.33Z" transform="translate(-0.04)"/><path class="cls-35" d="M125.79,1563.33q-8.87,4.28-17.55,8.91c6.71,13.47,10.91,31.31-.33,53.56q2.52-.72,5.1-1.74c37-14.6,39.9-41.84,41.36-58.87,0,0,0-8.25-3.79-12.93q-10,4.13-19.76,8.7C129.54,1563,128,1564.83,125.79,1563.33Z" transform="translate(-0.04)"/><path class="cls-38" d="M108.24,1572.24a129.15,129.15,0,0,0-8.31-13.9s-.53-.67-1.42-1.63c-3-3.21-10.12-9.7-15.7-5.37-2.54,2-3.12,5.67-3.14,8.57A23.11,23.11,0,0,0,80,1564c.1,3.07,3.81,11.47-5.08,7.69a27.74,27.74,0,0,0-3-1c-8.9-2.67-15,.65-17,3.87a6.6,6.6,0,0,0-.65,4.33c.42,3.27,2.23,7,3.4,9.28,1.75,3.46.9,6-5.18,6.68-3.38.36-6.67-.87-9,1a7,7,0,0,0-2.18,3.48c-2,6.07,6.89,11.28,6.89,11.28s.38.19.9.51c2.1,1.3,6.53,4.82-2.71,7.1,0,0-12.26,5-12.09,15,.22,11.63,16.57,15.51,16.57,15.51s39,10.85,56.16-21.11c.32-.6.61-1.19.91-1.79C119.15,1603.55,115,1585.71,108.24,1572.24Z" transform="translate(-0.04)"/><path class="cls-21" d="M341.67,1690.82c-.13,3.41-5.08,12.75,6.77,8.54,1.37-.49,2.68-.86,4-1.19.83-3.43.89-8.11-3.79-10.43a12.12,12.12,0,0,0-6.5-1.55A21.67,21.67,0,0,1,341.67,1690.82Z" transform="translate(-0.04)"/><path class="cls-35" d="M341.67,1690.82c-.13,3.41-5.08,12.75,6.77,8.54,1.37-.49,2.68-.86,4-1.19.83-3.43.89-8.11-3.79-10.43a12.12,12.12,0,0,0-6.5-1.55A21.67,21.67,0,0,1,341.67,1690.82Z" transform="translate(-0.04)"/><path class="cls-21" d="M317,1682.62c-1.46-3.22-3.62-6.26-7-7.19-5.84-1.62-17.76.13-25.94,11.22-7,9.41-10.3-.49-13-3.24,0,0-6.32-9.2-14.92-9.2-13.61,0-13.61,17.85-13.61,17.85.86,8.41,2.11,19,7.54,29.7h45.64c2.42-15.73,12.06-28.16,19.36-37.31C315.1,1684.45,315.81,1683.69,317,1682.62Z" transform="translate(-0.04)"/><path class="cls-35" d="M317,1682.62c-1.46-3.22-3.62-6.26-7-7.19-5.84-1.62-17.76.13-25.94,11.22-7,9.41-10.3-.49-13-3.24,0,0-6.32-9.2-14.92-9.2-13.61,0-13.61,17.85-13.61,17.85.86,8.41,2.11,19,7.54,29.7h45.64c2.42-15.73,12.06-28.16,19.36-37.31C315.1,1684.45,315.81,1683.69,317,1682.62Z" transform="translate(-0.04)"/><path class="cls-21" d="M387.85,1712.62c-3.17-3.14-7.56-4.67-11.92-5.34-.56,3.64-3,7.77-4.53,10.35-.94,1.57-1.3,3-.86,4.13h20.82A11.25,11.25,0,0,0,387.85,1712.62Z" transform="translate(-0.04)"/><path class="cls-35" d="M387.85,1712.62c-3.17-3.14-7.56-4.67-11.92-5.34-.56,3.64-3,7.77-4.53,10.35-.94,1.57-1.3,3-.86,4.13h20.82A11.25,11.25,0,0,0,387.85,1712.62Z" transform="translate(-0.04)"/><path class="cls-38" d="M371.4,1717.63c1.54-2.58,4-6.71,4.53-10.35a6.22,6.22,0,0,0-.86-4.78c-2.64-3.58-10.81-7.3-22.67-4.33-1.28.33-2.59.7-4,1.19-11.85,4.21-6.9-5.13-6.77-8.54a21.67,21.67,0,0,0,.44-4.63c0-3.21-.82-7.29-4.19-9.5-7.42-4.79-16.9,2.36-20.9,5.93-1.21,1.07-1.92,1.83-1.92,1.83-7.3,9.15-16.94,21.58-19.36,37.31h74.8C370.1,1720.6,370.46,1719.2,371.4,1717.63Z" transform="translate(-0.04)"/><path class="cls-29" d="M2443.35,1634a1.9,1.9,0,0,0,.2-.65c-.5-.28.08-.6,0,0,.51.29,2.06.54,6.35-.16,0,0,7.79,2.59,4.72,5.66a11.16,11.16,0,0,1-2.08,1.68c2.48,1.77,6.62,4.26,9.47,3.5,4.3-1.14,0-3.54,0-3.54s13.4-1.65,11.41-6.2-11.49-2.56-11.49-2.56,7.92-6.79,1.6-9.28-8.54,6-8.54,6,.7-11.41-4.55-12.48-4.58,8-4.58,8-8.06-8.27-11.34-5.22,4.79,10.51,4.79,10.51-4.77,1.38-2.83,5c1,1.84,4.57,3,7.86,3.71C2443.47,1636.59,2442.86,1635.08,2443.35,1634Z" transform="translate(-0.04)"/><path class="cls-30" d="M2452.54,1640.52a11.16,11.16,0,0,0,2.08-1.68c3.07-3.07-4.72-5.66-4.72-5.66-4.29.7-5.84.45-6.35.16a1.9,1.9,0,0,1-.2.65c-.49,1.09.12,2.6,1,4a21.74,21.74,0,0,0,2.73,3.41c-3.19,17.93-7.79,49.56-11.55,80.39h2.95c4.41-38.79,9.62-77.74,11.43-78.92C2450.31,1641.2,2451,1641.45,2452.54,1640.52Z" transform="translate(-0.04)"/><path class="cls-30" d="M2443.55,1633.34c.08-.6-.5-.28,0,0Z" transform="translate(-0.04)"/><path class="cls-30" d="M2419.4,1692.07c.2-2.28,2.44-3,4.2-7a2.89,2.89,0,0,0,.43-.87,5.52,5.52,0,0,0-2.64.4c-1.13,4.55-8.53,2.9-9.53-.28l-.34.36c-.48,2.72,4.86,6.46,4.86,6.46.53,9.35.81,19.75,1,30.62h2.77C2419.66,1705.09,2419.34,1692.78,2419.4,1692.07Z" transform="translate(-0.04)"/><path class="cls-29" d="M2411.86,1684.32c1,3.18,8.4,4.83,9.53.28a5.52,5.52,0,0,1,2.64-.4c4.19,0,11.41,1,11.57-3.06.21-5.19-10.53-3.4-10.53-3.4s6.07-10.36,1-12.8-8.49,9.13-8.49,9.13-4.8-13.38-9.13-10.57,1,12.09,1,12.09-9.73-5.07-13.48-2,8.89,8.06,8.89,8.06-9.39,1.72-3.73,5.13c4.81,2.9,9.18-.89,10.39-2.1Zm9.72-4.72c-5.94-1.42-9.74.66-9.74.66C2411.33,1678.07,2418.53,1674,2421.58,1679.6Z" transform="translate(-0.04)"/><path class="cls-31" d="M2421.58,1679.6c-3-5.61-10.25-1.53-9.74.66C2411.84,1680.26,2415.64,1678.18,2421.58,1679.6Z" transform="translate(-0.04)"/><ellipse class="cls-2" cx="303.11" cy="1611.61" rx="8.5" ry="8.08"/><ellipse class="cls-2" cx="320.11" cy="1632.78" rx="8.5" ry="8.08"/><ellipse class="cls-2" cx="276.34" cy="1628.35" rx="6.01" ry="5.71"/><path class="cls-2" d="M242,1636.07a6.9,6.9,0,0,0-7.34,6.43h0a6.9,6.9,0,1,0,7.34-6.44Z" transform="translate(-0.04)"/><path class="cls-2" d="M2513.09,1673a6.9,6.9,0,0,0-7.34,6.43h0a6.9,6.9,0,1,0,7.34-6.44Z" transform="translate(-0.04)"/><path class="cls-39" d="M1515.19,1714.23q-.66-.43-1.32-.93l-.09,0a8.18,8.18,0,0,1-.82,1.33v7.11h2.26v-7.37A.76.76,0,0,0,1515.19,1714.23Z" transform="translate(-0.04)"/><path class="cls-39" d="M1513.81,1713.26l.06,0q.66.5,1.32.93c15.37,10.15,26.75-5.34,26.75-5.34-23.42-15-28.13,0-28.13,0-11.89-18-33.73,8.56-33.73,8.56,22.31,7.67,30.48.44,32.88-2.8a8.18,8.18,0,0,0,.82-1.33Z" transform="translate(-0.04)"/><ellipse class="cls-40" cx="337.36" cy="1492.65" rx="7.66" ry="8.24" transform="translate(-1161.17 1182.21) rotate(-65.56)"/><path class="cls-40" d="M358.62,1443.58a8.55,8.55,0,0,0-1.25-.1,8.24,8.24,0,1,0,8.24,8.24c0-.19,0-.37,0-.56a8.23,8.23,0,0,0-7-7.58Z" transform="translate(-0.04)"/><ellipse class="cls-40" cx="467.72" cy="1395.11" rx="6.86" ry="8.55" transform="translate(-133.97 52.31) rotate(-5.6)"/><path class="cls-40" d="M527.3,1449.27c3.13-2.13,3.51-7,.86-10.93a10.5,10.5,0,0,0-1.91-2.11c-2.65-2.23-6.1-2.78-8.58-1.09-3.13,2.13-3.51,7-.85,10.92.14.22.3.42.45.62C520,1450.11,524.34,1451.29,527.3,1449.27Z" transform="translate(-0.04)"/><ellipse class="cls-40" cx="241.11" cy="1518.23" rx="10.14" ry="8.55" transform="translate(-1109.81 784.56) rotate(-52.47)"/><path class="cls-40" d="M603.2,1439.07a9.06,9.06,0,0,0-9.06,9.06,9.36,9.36,0,0,0,.31,2.33c5.7.36,11.3,1,16.75,1.91a8.94,8.94,0,0,0,1.06-4.24A9.06,9.06,0,0,0,603.2,1439.07Z" transform="translate(-0.04)"/><ellipse class="cls-40" cx="460.6" cy="1497.94" rx="11.15" ry="9.4" transform="translate(-1007.94 950.69) rotate(-52.47)"/><path class="cls-40" d="M2594.73,1652.15c-4.81,3.49-6.26,9.69-3.25,13.84s9.36,4.68,14.17,1.19,6.26-9.69,3.24-13.84S2599.53,1648.65,2594.73,1652.15Z" transform="translate(-0.04)"/><path class="cls-40" d="M2565.45,1621.17c-2.32-5-8.6-7-14-4.42s-7.94,8.61-5.62,13.58,8.59,7,14,4.42S2567.76,1626.14,2565.45,1621.17Z" transform="translate(-0.04)"/><path class="cls-40" d="M2350,1717.15c4.48,1.73,9.83-1.33,12-6.83,1.57-4.06.94-8.31-1.3-11a167.91,167.91,0,0,1-15.77,8.92C2344.73,1712.29,2346.63,1715.86,2350,1717.15Z" transform="translate(-0.04)"/><path class="cls-40" d="M2730.24,1623.36c-6.88-1.52-13.5,2-14.78,7.76s3.26,11.74,10.15,13.25,13.51-1.95,14.79-7.75S2737.13,1624.88,2730.24,1623.36Z" transform="translate(-0.04)"/><path class="cls-41" d="M350.79,813.09a15,15,0,1,0-14.44-15.52A15,15,0,0,0,350.79,813.09Z" transform="translate(-0.04)"/><circle class="cls-42" cx="366.51" cy="1019.6" r="11.01" transform="translate(-596.34 522.7) rotate(-42.93)"/><circle class="cls-42" cx="411.87" cy="1054.51" r="11.01" transform="translate(-607.97 562.94) rotate(-42.93)"/><circle class="cls-42" cx="457.23" cy="1089.42" r="11.01" transform="translate(-722.45 1155.59) rotate(-70.44)"/><circle class="cls-42" cx="502.58" cy="1124.33" r="11.01" transform="translate(-684.1 1453.84) rotate(-81.43)"/><path class="cls-42" d="M2151.15,940.22a11.16,11.16,0,0,0-4.1.78q7.72,7,14.74,14.15a11.4,11.4,0,0,0,.62-3.67A11.26,11.26,0,0,0,2151.15,940.22Z" transform="translate(-0.04)"/><circle class="cls-42" cx="2178.41" cy="866.45" r="11.26"/><circle class="cls-42" cx="2234.21" cy="692.68" r="11.26"/><circle class="cls-41" cx="2405.7" cy="770.63" r="15.53"/><circle class="cls-43" cx="2308.62" cy="901.41" r="15.53"/><circle class="cls-41" cx="2524.79" cy="1046.84" r="15.53"/><path class="cls-41" d="M2430.19,1013.68a15.5,15.5,0,1,0,15.53-15.53A15.53,15.53,0,0,0,2430.19,1013.68Z" transform="translate(-0.04)"/><path class="cls-42" d="M2467.67,638.74a5.35,5.35,0,1,0,5.35,5.35A5.36,5.36,0,0,0,2467.67,638.74Z" transform="translate(-0.04)"/><circle class="cls-42" cx="2455.19" cy="668.97" r="5.35"/><circle class="cls-42" cx="2442.74" cy="693.85" r="5.35"/><circle class="cls-42" cx="2430.3" cy="718.73" r="5.35"/><circle class="cls-42" cx="2577.06" cy="999.96" r="11.26"/><circle class="cls-42" cx="2678.17" cy="848.01" r="11.26"/><circle class="cls-42" cx="614.52" cy="888.72" r="9.38" transform="translate(-452.21 1060.89) rotate(-64.51)"/><circle class="cls-42" cx="641.07" cy="929.63" r="9.38" transform="translate(-429.29 569.63) rotate(-36.82)"/><circle class="cls-42" cx="667.64" cy="970.54" r="9.38" transform="translate(-490.77 756.36) rotate(-45)"/><circle class="cls-42" cx="574" cy="826.35" r="9.38" transform="translate(-37.31 27.18) rotate(-2.63)"/><circle class="cls-42" cx="491.22" cy="698.87" r="9.38" transform="translate(-316.75 421.43) rotate(-35.94)"/><path class="cls-2" d="M653.16,1464.17a204.89,204.89,0,0,0-42-11.8c-5.45-.89-11.05-1.55-16.75-1.91a151.61,151.61,0,0,0-26.19.58c-72.7,8.08-114.89,88.86-114.89,88.86a229.5,229.5,0,0,0-12.05,29c-13,37.5-26.76,103.85,13.42,152.9H635.06a465,465,0,0,1-25.52-66.08C592.17,1593.24,624.72,1515.7,653.16,1464.17Z" transform="translate(-0.04)"/><path class="cls-44" d="M1122.76,1318.27q6,1.95,12.6,4c21.4-15.44,47.35-31.59,71.16-45.59,37.81-22.25,70.17-39.08,70.17-39.08s97.21-93.85,85.1-117.49,11.84-101.8-3.59-100.47c-87.89-33.71-74.94,53.56-74.94,53.56s-33.35,60-59.06,30.32-68.29-47.21-58.84-16.3c27.23,74.52-15.32,126.36-48.06,153.34a212.05,212.05,0,0,1-19.28,14.13C1107,1277,1115.31,1298.12,1122.76,1318.27Z" transform="translate(-0.04)"/><path class="cls-45" d="M690.83,977.18l23.47-20.07-.12-.1Q701.75,967,690.83,977.18Z" transform="translate(-0.04)"/><path class="cls-45" d="M900.35,1085.75a173.84,173.84,0,0,1-39.65-1.59,370.08,370.08,0,0,1,54.86,77.91c41.29,79.88,152.58,134.63,152.58,134.63s18.73,9.81,54.62,21.57c-7.45-20.15-15.73-41.27-24.74-63.6-1.68-4.18-3.4-8.4-5.13-12.67-1.34-3.3-2.7-6.61-4.07-10-44.14-107.8-83.49-172.07-113.86-210.3C979.35,1047.39,970.69,1080.38,900.35,1085.75Z" transform="translate(-0.04)"/><path class="cls-45" d="M1151.28,1616.62c12.63-40.94,17.24-79.48,15.16-119a407.52,407.52,0,0,0-7.53-58.39c-83.67-7-167.67-11.33-199.37-22.3-70-24.23-318.62-175-260.28-320.41,14.33-35.7,32.18-54.73,51.56-61.94-37.3-28-60.11-56.87-60.3-57.11-21.67,20.16-39,40.61-52.63,61.11C516,1221.72,688.54,1408,688.54,1408s-10,13.47-23.16,35.11c-3.87,6.37-8,13.45-12.22,21.1-28.44,51.53-61,129.07-43.62,191.51a465,465,0,0,0,25.52,66.08H1104.6C1125.8,1684,1141.13,1649.53,1151.28,1616.62Z" transform="translate(-0.04)"/><path class="cls-46" d="M860.7,1084.16a173.84,173.84,0,0,0,39.65,1.59c70.34-5.37,79-38.36,74.61-64a82.88,82.88,0,0,0-2.62-10.7c-79.51,32.83-186.86,8.43-258-53.93l-23.47,20.07-.32.28h0c.19.24,23,29.15,60.3,57.11C786.35,1021.35,827,1047.83,860.7,1084.16Z" transform="translate(-0.04)"/><path class="cls-47" d="M1203.52,1443.28l1.72.18,5.29.54,2.22.23,4.2.45c29.24,3.16,56.82,7,80.22,11.82,6,1.25,11.73,2.56,17.14,4,30.14,7.78,50.45,18,53.61,31.87l1,1.08c15,15.31,30.43,20.42,42.47,21.6,13,1.27,22-2,22-2s1.8-18.85,56.54-13.46,36.8-74.5,36.8-74.5a30.59,30.59,0,0,0,3.89-6.7c.19-.43.37-.88.55-1.34-6,2.62-11.39,4.66-20.55,3.56-27.83,4.48-30.52-26.93-81.15-28.69,0,0-7.71-10.81-40,22.4-56.4,21.7-75.39.9-74.49-26.92,23.65-5.85,38.4-17.88,49.3-30-28.11-.78-54.38-2.65-78.73-5.28-63.5-6.84-114-18.79-150.24-29.84q-6.61-2-12.6-4c-35.89-11.76-54.62-21.57-54.62-21.57S956.85,1242,915.56,1162.07a370.08,370.08,0,0,0-54.86-77.91c-33.66-36.33-74.35-62.81-109.88-49.58-19.38,7.21-37.23,26.24-51.56,61.94-58.34,145.4,190.28,296.18,260.28,320.41,31.7,11,115.7,15.32,199.37,22.3,13.1,1.09,26.19,2.25,39.07,3.51Z" transform="translate(-0.04)"/><path class="cls-45" d="M714.18,957l.12.1c71.18,62.36,178.53,86.76,258,53.93,1.59-.66,3.17-1.33,4.74-2,156.18-70,169.64-154.38,158.87-195.67s-51.16-33.21-70-105c-6.38-24.31-44.15-54.9-94.67-77.93-48.62-22.17-109-37.33-164.66-33.17-9.22,13.77-8.55,20-8.55,20l-76.29,33.21s4.69-13.22,14.37-34.79a146.86,146.86,0,0,0-35.67,25c1.23,12.36,2.42,19.73,2.42,19.73L676,718.7s-4.07-10.58-10-28.94C633.44,756.52,632.44,817,651.22,867.63,664.13,902.45,686.39,932.62,714.18,957Zm386.51-128.67c-3.07,12.18-11.84,46.94-25.34,49.12s-45.9-16.17-43.93-24S1103.76,816.15,1100.69,828.34Zm-70.2-109.69c9.88-26,44.87,32.32,41.28,43.09-22.43,0-31.41,24.23-31.41,24.23S1020.61,744.68,1030.49,718.65ZM906.63,798.53s-34.11-54.74,0-72.7c18.85-7.18,44.87,54.75,44.87,72.7C928.17,787.76,906.63,798.53,906.63,798.53Z" transform="translate(-0.04)"/><path class="cls-45" d="M702.89,660.36s-1.19-7.37-2.42-19.73c-4.62-46.44-9.8-163.29,45.5-223.55C793.54,371.31,996.38,64.35,942.53,21.27,869.83,80.51,799.82,50,676,223.27,574.54,365.15,639.2,606.83,666,689.76c5.92,18.36,10,28.94,10,28.94ZM679.54,336.3c41.29-99.62,96-158.86,152.58-189.37C766.61,221.42,700.2,361.44,673.26,611.85,647.26,428.75,651.72,427.85,679.54,336.3Z" transform="translate(-0.04)"/><path class="cls-45" d="M798.06,617.23s-.67-6.23,8.55-20c12.08-18,41.1-49,110.82-95.78,101.39-59.27,219.83-60.13,305.13-94.27S1346.42,304.89,1359,289.63c-123,3.59-208.22-50.26-322.21,0C865.66,361.57,770.12,540,736.14,615.65c-9.68,21.57-14.37,34.79-14.37,34.79Zm166-227c69.11-46.65,286.31-57.45,294.39-42.19S932.66,422.47,806.1,553.51C907.53,416.18,895,436.83,964.07,390.18Z" transform="translate(-0.04)"/><path class="cls-48" d="M906.63,725.83c-34.11,18,0,72.7,0,72.7s21.54-10.77,44.87,0C951.5,780.58,925.48,718.65,906.63,725.83Z" transform="translate(-0.04)"/><path class="cls-48" d="M1071.77,761.74c3.59-10.77-31.4-69.12-41.28-43.09s9.87,67.32,9.87,67.32S1049.34,761.74,1071.77,761.74Z" transform="translate(-0.04)"/><path class="cls-48" d="M1031.42,853.46c-2,7.83,30.43,26.18,43.93,24s22.27-36.94,25.34-49.12S1033.39,845.63,1031.42,853.46Z" transform="translate(-0.04)"/><path class="cls-49" d="M832.12,146.93c-56.58,30.51-111.29,89.75-152.58,189.37-27.82,91.55-32.28,92.45-6.28,275.55C700.2,361.44,766.61,221.42,832.12,146.93Z" transform="translate(-0.04)"/><path class="cls-49" d="M1258.46,348c-8.08-15.26-225.28-4.46-294.39,42.19s-56.54,26-158,163.33C932.66,422.47,1266.54,363.25,1258.46,348Z" transform="translate(-0.04)"/><path class="cls-2" d="M2360.62,1699.36a152.22,152.22,0,0,0,33.25-28.63c41.79-48.25,23.3-109.83,8-143.11a189.34,189.34,0,0,0-12.94-23.95s-36.23-54.53-93.29-65.37c-10,15.31-30.74,27.9-69.64,52.19-1.25.78-2.48,1.54-3.7,2.28,22.64,54,41.68,120,32.19,175q-5.76,29-13.4,54h68a194.7,194.7,0,0,0,35.78-13.48A167.91,167.91,0,0,0,2360.62,1699.36Z" transform="translate(-0.04)"/><path class="cls-50" d="M1697.37,1273.28s-26,31.23-165.07,55.47c-24.25,4.23-52,8.24-83.54,11.84-17-17-49.37-17-49.37-17-12.82,1.56-20.52,17.7-35.06,33.78-10.9,12.07-25.65,24.1-49.3,30-.9,27.82,18.09,48.62,74.49,26.92,32.29-33.21,40-22.4,40-22.4,50.63,1.76,53.32,33.17,81.15,28.69,9.16,1.1,14.59-.94,20.55-3.56,8.63-3.8,18.39-8.8,42.28-7.22,28.6,1.89,108.25-11.59,171.78-33.13,7.14-24.5,11.8-46.79,11.91-66-9.89-47.27-9.65-93.16-3.15-135.84-18.59,32.12-37.15,58.79-49.36,82.59C1701.88,1262.81,1699.42,1268.1,1697.37,1273.28Z" transform="translate(-0.04)"/><path class="cls-51" d="M2222.3,1492.77c-76.16,46.3-104,23.71-160.55,77.6-57.45,54.75-60.13,119.37-111.29,118.48-88,26-107.45-9.91-142.71-14.36-49.71-6.28-57.46-8.09-51.16-29.62,37.7-76.29,89.65-18.62,133.73-70.91,30.52-36.19-1.34-98,27.83-114,38.67-21.19,22.44,63.72,73.6,54.75,62.82-26.93,139.11-119.38,145.4-140s-2.59-45-75.63-106.81c-43.32-36.64-143-137.19-16.73-225.35,77.34-54,151.26,47.76,199.69,153.35,4.76-38.08,3.33-79.17-9.26-120.63-10.11-33.3-27.41-66.83-54.48-99.25q-8.77-10.53-18.95-20.87-7-7.12-14.74-14.15a454.76,454.76,0,0,0-62.71-47.38c-1.8,2.5-3.67,5-5.58,7.4l20.39,14.16s-80,126-197.88,128.84c-53.47,1.29-70.1-14.39-72.31-31.91q-8.45-.14-16.7-.78c-24.85,43.24-48.51,99.76-58.22,163.44-6.5,42.68-6.74,88.57,3.15,135.84-.11,19.22-4.77,41.51-11.91,66-10.3,35.35-25.75,75.3-40.1,117.28-7.26,21.23-14.24,43-20.14,64.9-14.75,54.89-22.69,111-11.17,163h567.22q7.6-25,13.4-54C2264,1612.72,2244.94,1546.82,2222.3,1492.77Z" transform="translate(-0.04)"/><path class="cls-52" d="M1829,1012.11c2.21,17.52,18.84,33.2,72.31,31.91,117.88-2.84,197.88-128.84,197.88-128.84L2078.76,901C2022.68,972.16,1919.11,1013.57,1829,1012.11Z" transform="translate(-0.04)"/><path class="cls-53" d="M2300.68,1366.49c-3.33-29.29-24.19-100.78-56.2-170.59-48.43-105.59-122.35-207.34-199.69-153.35-126.27,88.16-26.59,188.71,16.73,225.35,73,61.81,81.92,86.19,75.63,106.81s-82.58,113.07-145.4,140c-51.16,9-34.93-75.94-73.6-54.75-29.17,16,2.69,77.81-27.83,114-44.08,52.29-96-5.38-133.73,70.91-6.3,21.53,1.45,23.34,51.16,29.62,35.26,4.45,54.71,40.36,142.71,14.36,51.16.89,53.84-63.73,111.29-118.48,56.54-53.89,84.39-31.3,160.55-77.6,1.22-.74,2.45-1.5,3.7-2.28,38.9-24.29,59.62-36.88,69.64-52.19C2306,1422.52,2304.93,1403.85,2300.68,1366.49Z" transform="translate(-0.04)"/><path class="cls-51" d="M2033.93,644.18s.48-14.83.24-38.34a156.5,156.5,0,0,0-26.47-17.06c6.07,19.24,9.88,33.27,13.14,39.22l-79.25-25.36s-8.18-14.25-24.31-32.55c-38.25,1.25-77.18,12.06-112,28.24-66.38,30.83-117.81,81.15-121.08,121.85-6.59,44.25-46.94,44.25-59.09,111.56-6.56,42.16,6.79,159,177.74,178.69,3.11.36,6.25.65,9.41.9q8.25.64,16.7.78c90.15,1.46,193.72-40,249.8-111.09,1.91-2.44,3.78-4.9,5.58-7.4,21.62-30,34.9-64.88,35.67-103.79.71-35.77-9.16-74.92-32.88-116.77C2081.2,692.3,2077,703.4,2077,703.4Zm-311.47,82.71c12.49,24.94-3,68-3,68s-11.37-23.21-33.74-21C1681.06,763.55,1710,702,1722.46,726.89Zm-30.6,162.54c-13.64-.79-25.88-34.51-30.16-46.32s68.69,10.44,71.45,18S1705.5,890.22,1691.86,889.43Zm152.61-167.82c35.73,14.43,7.31,72.33,7.31,72.33s-22.52-8.55-44.65,4.51C1805.32,780.61,1825,716.36,1844.47,721.61Z" transform="translate(-0.04)"/><path class="cls-51" d="M1844.56,73.35c18,90.65,86.55,208.49,119.37,234.25,60.74,45.55,69.46,220,70.24,298.24.24,23.51-.24,38.34-.24,38.34L2077,703.4s4.19-11.1,10.12-30.34c24.41-79.11,78.33-295.8-8.32-443.56C1993.54,84.1,1916.35,39.22,1800.71,0,1784.42,34.73,1834.36,21.85,1844.56,73.35Zm201,197.44c36.89,88.28,52.05,216.3,19.58,313.94,3.75-277.15-169-395-185.63-488.94C1937,172.06,1994.5,175.79,2045.6,270.79Z" transform="translate(-0.04)"/><path class="cls-51" d="M2020.84,628c-3.26-6-7.07-20-13.14-39.22-21.35-67.8-70.58-200.39-221.49-273.12-118.46-38.54-257.59-84.37-278.23-143.6-35,27.82,79.88,180.39,79.88,180.39s137.31,121.18,223.32,147c49.11,14.74,84.64,46.28,106.1,70.64,16.13,18.3,24.31,32.55,24.31,32.55ZM1569.05,272.58c-7.3-15.64,98.73,68.21,218.1,98.73,80.75,20.65,100.48,90.65,140,168.74C1813.19,380.25,1644.4,434.18,1569.05,272.58Z" transform="translate(-0.04)"/><path class="cls-48" d="M1851.78,793.94s28.42-57.9-7.31-72.33c-19.48-5.25-39.15,59-37.34,76.84C1829.26,785.39,1851.78,793.94,1851.78,793.94Z" transform="translate(-0.04)"/><path class="cls-48" d="M1719.46,794.89s15.49-43.06,3-68-41.4,36.66-36.74,47C1708.09,771.68,1719.46,794.89,1719.46,794.89Z" transform="translate(-0.04)"/><path class="cls-48" d="M1661.7,843.11c4.28,11.81,16.52,45.53,30.16,46.32s44.05-20.76,41.29-28.32S1657.42,831.3,1661.7,843.11Z" transform="translate(-0.04)"/><path class="cls-54" d="M2065.18,584.73c32.47-97.64,17.31-225.66-19.58-313.94-51.1-95-108.6-98.73-166-175C1896.14,189.7,2068.93,307.58,2065.18,584.73Z" transform="translate(-0.04)"/><path class="cls-54" d="M1787.15,371.31c-119.37-30.52-225.4-114.37-218.1-98.73,75.35,161.6,244.14,107.67,358.1,267.47C1887.63,462,1867.9,392,1787.15,371.31Z" transform="translate(-0.04)"/></svg>