<svg width="30" height="30" viewBox="0 0 30 30" fill="none" xmlns="http://www.w3.org/2000/svg">
<path fill-rule="evenodd" clip-rule="evenodd" d="M0 14.9996C0 23.2824 6.717 29.9993 15 29.9993C23.283 29.9993 30 23.2824 30 14.9996C30 6.71684 23.283 0 15 0C6.717 0 0 6.71684 0 14.9996ZM24.9988 14.9998C24.9988 13.7908 24.0208 12.8128 22.8118 12.8128C22.2208 12.8128 21.6868 13.0468 21.2938 13.4278C19.7998 12.3479 17.7388 11.6519 15.4438 11.5709L16.4398 6.88199L19.6948 7.57497C19.7338 8.40295 20.4118 9.06294 21.2488 9.06294C22.1128 9.06294 22.8118 8.36395 22.8118 7.49997C22.8118 6.63599 22.1128 5.93701 21.2488 5.93701C20.6338 5.93701 20.1088 6.294 19.8538 6.80999L16.2178 6.03601C16.1158 6.01501 16.0108 6.03301 15.9238 6.09001C15.8368 6.14701 15.7768 6.234 15.7558 6.336L14.6638 11.4809C14.6598 11.5008 14.6611 11.5193 14.6624 11.5383C14.6631 11.548 14.6638 11.5578 14.6638 11.5679C12.3268 11.6279 10.2268 12.3269 8.70877 13.4218C8.31577 13.0438 7.78477 12.8128 7.19677 12.8128C5.98777 12.8128 5.00977 13.7938 5.00977 14.9998C5.00977 15.8878 5.54077 16.6528 6.30277 16.9947C6.26977 17.2107 6.25177 17.4327 6.25177 17.6577C6.25177 21.0237 10.1698 23.7506 15.0028 23.7506C19.8358 23.7506 23.7538 21.0237 23.7538 17.6577C23.7538 17.4357 23.7358 17.2167 23.7028 17.0007C24.4618 16.6588 24.9988 15.8938 24.9988 14.9998ZM11.562 14.9995C10.701 14.9995 9.99902 15.7015 9.99902 16.5625C9.99902 17.4235 10.701 18.1254 11.562 18.1254C12.423 18.1254 13.125 17.4235 13.125 16.5625C13.125 15.7015 12.423 14.9995 11.562 14.9995ZM18.438 18.1254C17.577 18.1254 16.875 17.4235 16.875 16.5625C16.875 15.7015 17.577 14.9995 18.438 14.9995C19.299 14.9995 20.001 15.7015 20.001 16.5625C20.001 17.4235 19.299 18.1254 18.438 18.1254ZM18.7138 20.6903C17.6458 21.7553 15.6028 21.8393 15.0028 21.8393C14.4028 21.8393 12.3567 21.7553 11.2917 20.6903C11.1327 20.5313 11.1327 20.2763 11.2917 20.1173C11.4507 19.9583 11.7057 19.9583 11.8647 20.1173C12.5367 20.7893 13.9738 21.0293 15.0028 21.0293C16.0288 21.0293 17.4688 20.7893 18.1408 20.1173C18.2998 19.9583 18.5548 19.9583 18.7138 20.1173C18.8698 20.2763 18.8698 20.5313 18.7138 20.6903Z" fill="#69F5DB"/>
</svg>
