<svg width="177" height="156" viewBox="0 0 177 156" fill="none" xmlns="http://www.w3.org/2000/svg">
<path d="M31.9946 36.2777C28.604 32.5132 26.7319 27.6257 26.7408 22.5613V22.5613C26.7408 17.1081 28.9089 11.8783 32.7682 8.02229C36.6275 4.16632 41.8619 2 47.3198 2H75.063C80.5209 2 85.7553 4.16632 89.6145 8.02229C93.4738 11.8783 95.6419 17.1081 95.6419 22.5613V22.5613" stroke="#767185" stroke-width="4" stroke-linecap="round" stroke-linejoin="round"/>
<path d="M129.117 43.1361H101.373C95.9143 43.1324 90.68 40.9632 86.8211 37.1051C82.9622 33.247 80.7944 28.0157 80.7944 22.5613" stroke="#767185" stroke-width="4" stroke-linecap="round" stroke-linejoin="round"/>
<path d="M101.373 2H129.117C134.574 2 139.809 4.16632 143.668 8.02228C147.527 11.8783 149.695 17.1081 149.695 22.5613V22.5613C149.706 27.3272 148.051 31.9472 145.015 35.6233" stroke="#767185" stroke-width="4" stroke-linecap="round" stroke-linejoin="round"/>
<path d="M129.117 29.8695C130.103 29.912 131.088 29.7548 132.012 29.4071C132.935 29.0594 133.779 28.5284 134.492 27.8462C135.205 27.164 135.772 26.3446 136.16 25.4375C136.547 24.5304 136.747 23.5544 136.747 22.5681C136.747 21.5818 136.547 20.6056 136.16 19.6985C135.772 18.7914 135.205 17.9721 134.492 17.2899C133.779 16.6078 132.935 16.0768 132.012 15.7291C131.088 15.3814 130.103 15.2241 129.117 15.2667H110.694" stroke="#767185" stroke-width="4" stroke-linecap="round" stroke-linejoin="round"/>
<path d="M45.8462 15.2667C44.8599 15.2241 43.8754 15.3814 42.9516 15.7291C42.0278 16.0768 41.184 16.6078 40.471 17.2899C39.7581 17.9721 39.1908 18.7914 38.8032 19.6985C38.4156 20.6056 38.2158 21.5818 38.2158 22.5681C38.2158 23.5544 38.4156 24.5304 38.8032 25.4375C39.1908 26.3446 39.7581 27.164 40.471 27.8462C41.184 28.5284 42.0278 29.0594 42.9516 29.4071C43.8754 29.7548 44.8599 29.912 45.8462 29.8695H64.2962" stroke="#767185" stroke-width="4" stroke-linecap="round" stroke-linejoin="round"/>
<path d="M37.8899 112.714V136.807" stroke="#767185" stroke-width="4" stroke-linejoin="round"/>
<path d="M46.5012 136.807H29.293V154H46.5012V136.807Z" stroke="#767185" stroke-width="4" stroke-linejoin="round"/>
<path d="M147.144 136.807H129.936V154H147.144V136.807Z" stroke="#767185" stroke-width="4" stroke-linejoin="round"/>
<path d="M29.2924 145.397H2.42236" stroke="#767185" stroke-width="4" stroke-linecap="round" stroke-linejoin="round"/>
<path d="M129.936 145.397H46.501" stroke="#767185" stroke-width="4" stroke-linecap="round" stroke-linejoin="round"/>
<path d="M138.533 112.714V136.807" stroke="#767185" stroke-width="4" stroke-linejoin="round"/>
<path d="M174.014 145.397H147.144" stroke="#767185" stroke-width="4" stroke-linecap="round" stroke-linejoin="round"/>
<path d="M2 60.8066V45.7267C2 45.3853 2.06758 45.0474 2.19873 44.7322C2.32989 44.417 2.52207 44.1307 2.76428 43.89C3.0065 43.6493 3.29387 43.4586 3.61003 43.3293C3.92618 43.1999 4.26488 43.1342 4.60653 43.136H61.0347" stroke="#767185" stroke-width="4" stroke-miterlimit="10" stroke-linecap="round"/>
<path d="M2 86.1128V70.8554C2 70.514 2.06758 70.1761 2.19873 69.8609C2.32989 69.5457 2.52207 69.2595 2.76428 69.0187C3.0065 68.778 3.29387 68.5876 3.61003 68.4582C3.92618 68.3288 4.26488 68.2631 4.60653 68.2649H71.2014C71.8891 68.2649 72.5484 68.5379 73.0347 69.0237C73.5209 69.5096 73.7941 70.1683 73.7941 70.8554V86.1128" stroke="#767185" stroke-width="4" stroke-miterlimit="10" stroke-linecap="round"/>
<path d="M71.2013 93.3937H4.59287C3.16088 93.3937 2 94.5536 2 95.9843V110.124C2 111.554 3.16088 112.714 4.59287 112.714H71.2013C72.6333 112.714 73.7941 111.554 73.7941 110.124V95.9843C73.7941 94.5536 72.6333 93.3937 71.2013 93.3937Z" stroke="#767185" stroke-width="4" stroke-linejoin="round"/>
<path d="M61.8261 80.168C61.8288 80.3282 61.7836 80.4855 61.6962 80.6199C61.6088 80.7542 61.4832 80.8596 61.3355 80.9221C61.1879 80.9847 61.0249 81.0017 60.8674 80.9711C60.71 80.9405 60.5652 80.8637 60.4518 80.7504C60.3384 80.637 60.2615 80.4924 60.2309 80.3351C60.2003 80.1778 60.2173 80.0149 60.2799 79.8674C60.3425 79.7199 60.4479 79.5944 60.5824 79.5071C60.7169 79.4197 60.8743 79.3744 61.0347 79.3771C61.2446 79.3771 61.446 79.4604 61.5944 79.6088C61.7428 79.7571 61.8261 79.9583 61.8261 80.168Z" stroke="#767185" stroke-width="4" stroke-linecap="round" stroke-linejoin="round"/>
<path d="M61.8263 103.061C61.8262 103.22 61.7788 103.376 61.6897 103.509C61.6006 103.642 61.4739 103.745 61.326 103.805C61.1781 103.866 61.0156 103.881 60.8591 103.849C60.7025 103.816 60.559 103.738 60.447 103.625C60.3349 103.511 60.2594 103.366 60.2299 103.209C60.2004 103.052 60.2183 102.89 60.2814 102.743C60.3444 102.596 60.4497 102.472 60.5839 102.385C60.7181 102.298 60.875 102.254 61.0348 102.256C61.1399 102.256 61.2441 102.277 61.341 102.318C61.4379 102.358 61.5257 102.418 61.5994 102.493C61.6731 102.568 61.7312 102.656 61.7701 102.754C61.8091 102.851 61.8281 102.956 61.8263 103.061V103.061Z" stroke="#767185" stroke-width="4" stroke-linecap="round" stroke-linejoin="round"/>
<path d="M115.607 43.136H171.844C172.532 43.136 173.191 43.409 173.677 43.8948C174.164 44.3806 174.437 45.0395 174.437 45.7266V60.7248" stroke="#767185" stroke-width="4" stroke-miterlimit="10" stroke-linecap="round"/>
<path d="M102.643 86.1128V70.8554C102.643 70.514 102.711 70.1761 102.842 69.8609C102.973 69.5457 103.165 69.2595 103.407 69.0187C103.65 68.778 103.937 68.5876 104.253 68.4582C104.569 68.3288 104.908 68.2631 105.25 68.2649H171.845C172.532 68.2649 173.192 68.5379 173.678 69.0237C174.164 69.5096 174.437 70.1683 174.437 70.8554V86.1128" stroke="#767185" stroke-width="4" stroke-miterlimit="10" stroke-linecap="round"/>
<path d="M171.844 93.3937H105.236C103.804 93.3937 102.643 94.5536 102.643 95.9843V110.124C102.643 111.554 103.804 112.714 105.236 112.714H171.844C173.276 112.714 174.437 111.554 174.437 110.124V95.9843C174.437 94.5536 173.276 93.3937 171.844 93.3937Z" stroke="#767185" stroke-width="4" stroke-linejoin="round"/>
<path d="M162.469 80.9724C162.444 81.166 162.349 81.3438 162.202 81.4726C162.055 81.6013 161.866 81.6723 161.671 81.6723C161.475 81.6723 161.287 81.6013 161.14 81.4726C160.993 81.3438 160.898 81.166 160.873 80.9724C160.858 80.8589 160.867 80.7436 160.901 80.634C160.934 80.5245 160.99 80.4233 161.066 80.3373C161.141 80.2512 161.234 80.1823 161.339 80.135C161.443 80.0878 161.556 80.0635 161.671 80.0635C161.785 80.0635 161.899 80.0878 162.003 80.135C162.107 80.1823 162.2 80.2512 162.276 80.3373C162.352 80.4233 162.408 80.5245 162.441 80.634C162.475 80.7436 162.484 80.8589 162.469 80.9724V80.9724Z" stroke="#767185" stroke-width="4" stroke-linecap="round" stroke-linejoin="round"/>
<path d="M162.469 103.852C162.472 104.012 162.427 104.169 162.339 104.303C162.252 104.438 162.126 104.543 161.979 104.606C161.831 104.668 161.668 104.685 161.51 104.655C161.353 104.624 161.208 104.547 161.095 104.434C160.981 104.321 160.905 104.176 160.874 104.019C160.843 103.861 160.86 103.698 160.923 103.551C160.986 103.403 161.091 103.278 161.225 103.191C161.36 103.103 161.517 103.058 161.678 103.061C161.888 103.061 162.089 103.144 162.237 103.292C162.386 103.441 162.469 103.642 162.469 103.852V103.852Z" stroke="#767185" stroke-width="4" stroke-linecap="round" stroke-linejoin="round"/>
<path d="M162.423 51.7723H13.685C11.9869 51.7723 10.6104 53.1489 10.6104 54.847C10.6104 56.5451 11.9869 57.9216 13.685 57.9216H162.423C164.121 57.9216 165.498 56.5451 165.498 54.847C165.498 53.1489 164.121 51.7723 162.423 51.7723Z" fill="#AE9AFF"/>
</svg>
