<svg width="40" height="41" viewBox="0 0 40 41" fill="none" xmlns="http://www.w3.org/2000/svg">
<circle cx="20" cy="20.5" r="20" fill="#212121"/>
<path fill-rule="evenodd" clip-rule="evenodd" d="M13.9922 10.5H12.5996V32.5H13.9922V10.5ZM6.90865 18.5136C6.92584 17.125 9.40153 17.0748 9.40153 18.4466L9.41872 19.6345H11.3099V18.5303C11.4302 14.8497 4.94873 14.8497 5.00031 18.4466V24.7873C4.94873 28.3843 11.4474 28.4679 11.3271 24.7873V23.4656H9.40153V24.8877C9.40153 26.2596 6.94303 26.293 6.90865 24.8877V18.5136ZM18.8747 16.1378C18.0151 16.6062 17.6884 17.0747 17.6884 17.0747V16.0541H14.9893V17.426L16.038 17.4427V25.858H15.144V27.2298H17.9463V18.3294C17.9635 16.991 20.2329 16.9576 20.2329 18.2625V27.2298H23.362V25.858H22.1413V18.3462C22.0725 17.3424 21.7458 16.4389 20.8862 16.0709C21.0409 16.1378 19.975 15.5522 18.8747 16.1378ZM31.838 24.7535C31.9068 25.7573 32.2334 26.6607 33.093 27.0287C32.9383 26.9618 33.5229 27.2462 34.1074 27.2295H35.947V25.8576C35.947 25.8576 35.1733 25.8409 34.7607 25.8576C34.2449 25.8576 33.7979 25.6234 33.7635 24.904V17.4592V17.4424H35.6031V16.0873H33.7635V16.0706V13.1763H31.838V24.7535ZM28.3654 24.871V23.4656H30.2909V24.7873C30.4113 28.4679 23.9126 28.3843 23.9642 24.7873V18.4466C23.9126 14.8497 30.3941 14.8497 30.2738 18.5303V21.5751C30.2738 21.7592 30.119 21.9097 29.9299 21.9097H25.8725V24.871C25.8897 26.2763 28.3654 26.2428 28.3654 24.871ZM28.3654 18.4466C28.3654 17.058 25.9069 17.0581 25.8725 18.4299H25.8897V20.5212H28.3654V18.4466Z" fill="#B80000"/>
</svg>
