<svg width="42" height="40" viewBox="0 0 42 40" fill="none" xmlns="http://www.w3.org/2000/svg">
<path fill-rule="evenodd" clip-rule="evenodd" d="M21 0C9.3975 0 0 9.17638 0 20.5059C0 29.5797 6.01125 37.2438 14.3588 39.9608C15.4088 40.1403 15.8025 39.5251 15.8025 38.9868C15.8025 38.4998 15.7762 36.8849 15.7762 35.1676C10.5 36.116 9.135 33.9116 8.715 32.7581C8.47875 32.1686 7.455 30.3487 6.5625 29.8617C5.8275 29.4772 4.7775 28.5288 6.53625 28.5032C8.19 28.4775 9.37125 29.9898 9.765 30.605C11.655 33.7065 14.6737 32.835 15.8812 32.2968C16.065 30.9639 16.6162 30.0667 17.22 29.5541C12.5475 29.0414 7.665 27.2728 7.665 19.4293C7.665 17.1993 8.47875 15.3538 9.8175 13.9184C9.6075 13.4057 8.8725 11.3039 10.0275 8.48431C10.0275 8.48431 11.7863 7.94603 15.8025 10.5862C17.4825 10.1248 19.2675 9.89409 21.0525 9.89409C22.8375 9.89409 24.6225 10.1248 26.3025 10.5862C30.3188 7.9204 32.0775 8.48431 32.0775 8.48431C33.2325 11.3039 32.4975 13.4057 32.2875 13.9184C33.6262 15.3538 34.44 17.1737 34.44 19.4293C34.44 27.2984 29.5313 29.0414 24.8588 29.5541C25.62 30.1949 26.2762 31.4253 26.2762 33.3477C26.2762 36.0903 26.25 38.2947 26.25 38.9868C26.25 39.5251 26.6437 40.1659 27.6937 39.9608C35.9887 37.2438 42 29.5541 42 20.5059C42 9.17638 32.6025 0 21 0Z" fill="#69F5DB"/>
</svg>
