<svg width="730" height="103" viewBox="0 0 730 103" fill="none" xmlns="http://www.w3.org/2000/svg">
<path d="M52.02 101.68C41.94 101.68 33.0267 99.5333 25.28 95.24C17.5333 90.8533 11.4667 84.88 7.08 77.32C2.69333 69.6667 0.5 60.8933 0.5 51C0.5 41.1067 2.69333 32.38 7.08 24.82C11.4667 17.1667 17.5333 11.1933 25.28 6.9C33.0267 2.51333 41.94 0.319998 52.02 0.319998C58.6467 0.319998 64.48 1.25333 69.52 3.12C74.6533 4.98666 79.0867 7.55333 82.82 10.82C86.5533 13.9933 89.7267 17.68 92.34 21.88L70.78 34.62C69.4733 32.5667 67.7933 30.7467 65.74 29.16C63.78 27.5733 61.5867 26.36 59.16 25.52C56.8267 24.5867 54.4467 24.12 52.02 24.12C47.1667 24.12 42.8733 25.2867 39.14 27.62C35.4067 29.86 32.4667 32.9867 30.32 37C28.1733 41.0133 27.1 45.68 27.1 51C27.1 56.2267 28.1267 60.8933 30.18 65C32.2333 69.1067 35.1733 72.3267 39 74.66C42.92 76.9933 47.4933 78.16 52.72 78.16C56.4533 78.16 59.7667 77.5067 62.66 76.2C65.5533 74.8 67.84 72.8867 69.52 70.46C71.2 67.94 72.04 65.0467 72.04 61.78L96.68 57.16C96.68 67.0533 94.7667 75.3133 90.94 81.94C87.1133 88.5667 81.84 93.5133 75.12 96.78C68.4933 100.047 60.7933 101.68 52.02 101.68ZM50.2 64.72V45.12H96.68V59.54L81.98 64.72H50.2ZM157.519 101.68C147.252 101.68 138.152 99.5333 130.219 95.24C122.379 90.8533 116.219 84.88 111.739 77.32C107.259 69.6667 105.019 60.94 105.019 51.14C105.019 41.2467 107.259 32.52 111.739 24.96C116.219 17.3067 122.379 11.3333 130.219 7.04C138.059 2.65333 147.065 0.459996 157.239 0.459996C167.505 0.459996 176.559 2.65333 184.399 7.04C192.239 11.3333 198.399 17.3067 202.879 24.96C207.359 32.52 209.599 41.2467 209.599 51.14C209.599 60.94 207.359 69.6667 202.879 77.32C198.492 84.88 192.379 90.8533 184.539 95.24C176.699 99.5333 167.692 101.68 157.519 101.68ZM157.519 77.88C162.559 77.88 166.992 76.76 170.819 74.52C174.645 72.1867 177.632 69.0133 179.779 65C181.925 60.9867 182.999 56.3667 182.999 51.14C182.999 45.9133 181.879 41.2933 179.639 37.28C177.492 33.1733 174.459 30 170.539 27.76C166.712 25.4267 162.279 24.26 157.239 24.26C152.292 24.26 147.859 25.4267 143.939 27.76C140.112 30 137.079 33.1733 134.839 37.28C132.692 41.2933 131.619 45.9133 131.619 51.14C131.619 56.3667 132.739 60.9867 134.979 65C137.219 69.0133 140.252 72.1867 144.079 74.52C147.999 76.76 152.479 77.88 157.519 77.88ZM715.155 102.1C711.235 102.1 707.828 100.7 704.935 97.9C702.135 95.0067 700.735 91.6 700.735 87.68C700.735 83.76 702.135 80.4 704.935 77.6C707.828 74.7067 711.235 73.26 715.155 73.26C719.075 73.26 722.435 74.7067 725.235 77.6C728.128 80.4 729.575 83.76 729.575 87.68C729.575 91.6 728.128 95.0067 725.235 97.9C722.435 100.7 719.075 102.1 715.155 102.1Z" fill="white"/>
<path d="M259.347 100V1.99999H286.647L324.867 55.9V1.99999H350.767V100H324.867L285.247 44.14V100H259.347ZM438.468 100L402.628 1.99999H428.388L465.908 100H438.468ZM363.008 100L400.528 1.99999H426.288L390.448 100H363.008ZM380.648 84.32V61.5H448.408V84.32H380.648ZM478.091 100V1.99999H505.391L543.611 55.9V1.99999H569.511V100H543.611L503.991 44.14V100H478.091ZM636.773 101.68C626.506 101.68 617.406 99.5333 609.473 95.24C601.633 90.8533 595.473 84.88 590.993 77.32C586.513 69.6667 584.273 60.94 584.273 51.14C584.273 41.2467 586.513 32.52 590.993 24.96C595.473 17.3067 601.633 11.3333 609.473 7.04C617.313 2.65333 626.319 0.459996 636.493 0.459996C646.759 0.459996 655.813 2.65333 663.653 7.04C671.493 11.3333 677.653 17.3067 682.133 24.96C686.613 32.52 688.853 41.2467 688.853 51.14C688.853 60.94 686.613 69.6667 682.133 77.32C677.746 84.88 671.633 90.8533 663.793 95.24C655.953 99.5333 646.946 101.68 636.773 101.68ZM636.773 77.88C641.813 77.88 646.246 76.76 650.073 74.52C653.899 72.1867 656.886 69.0133 659.033 65C661.179 60.9867 662.253 56.3667 662.253 51.14C662.253 45.9133 661.133 41.2933 658.893 37.28C656.746 33.1733 653.713 30 649.793 27.76C645.966 25.4267 641.533 24.26 636.493 24.26C631.546 24.26 627.113 25.4267 623.193 27.76C619.366 30 616.333 33.1733 614.093 37.28C611.946 41.2933 610.873 45.9133 610.873 51.14C610.873 56.3667 611.993 60.9867 614.233 65C616.473 69.0133 619.506 72.1867 623.333 74.52C627.253 76.76 631.733 77.88 636.773 77.88Z" fill="url(#paint0_linear_1115_170)"/>
<defs>
<linearGradient id="paint0_linear_1115_170" x1="460.5" y1="-18" x2="489.5" y2="138" gradientUnits="userSpaceOnUse">
<stop stop-color="#8363FF"/>
<stop offset="1" stop-color="#69F5DB"/>
</linearGradient>
</defs>
</svg>
