<svg width="120" height="120" viewBox="0 0 120 120" fill="none" xmlns="http://www.w3.org/2000/svg">
<path d="M76.9893 105.095C68.4785 105.095 61.5586 97.9114 61.5586 89.0867C61.5586 80.262 68.4785 73.0781 76.9893 73.0781C85.5001 73.0781 92.42 80.262 92.42 89.0867C92.42 97.9114 85.5001 105.095 76.9893 105.095ZM76.9893 75.2183C69.6627 75.2183 63.6988 81.4391 63.6988 89.0867C63.6988 96.7343 69.6627 102.955 76.9893 102.955C84.3159 102.955 90.2798 96.7343 90.2798 89.0867C90.2798 81.4391 84.3159 75.2183 76.9893 75.2183Z" fill="white"/>
<path d="M76.9898 78.4287C75.7628 78.4287 74.5571 78.6713 73.4229 79.1421C78.916 81.5676 81.4057 87.9811 78.9873 93.4742C77.8958 95.9568 75.9055 97.94 73.4229 99.0387C74.5571 99.5024 75.7628 99.7449 76.9898 99.7521C82.5472 99.7521 87.0701 94.9723 87.0701 89.094C87.0701 83.2156 82.5472 78.4287 76.9898 78.4287Z" fill="#69F5DB"/>
<path d="M112.203 90.1568H100.047C99.4545 90.1568 98.9766 89.6788 98.9766 89.0867C98.9766 88.4946 99.4545 88.0166 100.047 88.0166H112.203C112.795 88.0166 113.273 88.4946 113.273 89.0867C113.273 89.6788 112.795 90.1568 112.203 90.1568Z" fill="white"/>
<path d="M106.124 80.1197H97.9275C97.3354 80.1197 96.8574 79.6417 96.8574 79.0496C96.8574 78.4575 97.3354 77.9795 97.9275 77.9795H106.124C106.717 77.9795 107.194 78.4575 107.194 79.0496C107.194 79.6417 106.717 80.1197 106.124 80.1197Z" fill="white"/>
<path d="M105.954 100.101H97.9568C97.3647 100.101 96.8867 99.6231 96.8867 99.031C96.8867 98.4389 97.3647 97.9609 97.9568 97.9609H105.954C106.546 97.9609 107.024 98.4389 107.024 99.031C107.024 99.6231 106.546 100.101 105.954 100.101Z" fill="white"/>
<path d="M115.562 93.5309C113.123 93.5309 111.132 91.5476 111.125 89.1007C111.125 87.9165 111.582 86.7964 112.416 85.9618C113.251 85.1271 114.364 84.6562 115.548 84.6562H115.555C118.002 84.6562 119.985 86.6395 119.992 89.0793C119.992 91.5334 118.009 93.5309 115.562 93.5309ZM115.562 86.7964C114.942 86.7964 114.364 87.039 113.936 87.4742C113.501 87.9093 113.265 88.4872 113.265 89.1007C113.265 90.3634 114.3 91.3907 115.562 91.3907C116.825 91.3907 117.859 90.3563 117.852 89.0864C117.852 87.8166 116.825 86.7964 115.562 86.7964Z" fill="white"/>
<path d="M109.484 83.4935C108.3 83.4935 107.194 83.0369 106.352 82.2022C105.511 81.3675 105.047 80.2547 105.047 79.0704C105.047 77.8862 105.503 76.7733 106.338 75.9315C107.173 75.0897 108.286 74.626 109.47 74.626C111.917 74.626 113.907 76.6092 113.914 79.0562C113.914 80.2404 113.458 81.3604 112.623 82.1951C111.788 83.0298 110.676 83.5006 109.491 83.5006H109.484V83.4935ZM109.484 76.759C108.864 76.759 108.293 77.0016 107.858 77.4367C107.422 77.8719 107.187 78.4498 107.187 79.0633C107.187 79.6768 107.43 80.2547 107.865 80.6898C108.3 81.1179 108.871 81.3604 109.484 81.3604C110.098 81.3604 110.676 81.1179 111.104 80.6827C111.539 80.2475 111.774 79.6697 111.774 79.0562C111.774 77.7934 110.74 76.7662 109.477 76.7662L109.484 76.759Z" fill="white"/>
<path d="M109.313 103.476C108.129 103.476 107.023 103.019 106.181 102.185C105.34 101.35 104.876 100.237 104.876 99.0528C104.876 97.8686 105.333 96.7557 106.167 95.9139C107.002 95.0721 108.115 94.6084 109.299 94.6084C111.76 94.6084 113.743 96.5988 113.743 99.0386C113.743 100.223 113.287 101.336 112.452 102.178C111.618 103.019 110.505 103.483 109.32 103.483H109.313V103.476ZM109.32 96.7415C108.693 96.7415 108.122 96.984 107.687 97.4192C107.252 97.8543 107.016 98.4322 107.016 99.0457C107.016 99.6592 107.259 100.237 107.694 100.672C108.129 101.107 108.707 101.336 109.32 101.343C109.934 101.343 110.512 101.1 110.947 100.665C111.382 100.23 111.618 99.6521 111.618 99.0386C111.618 97.7759 110.59 96.7486 109.328 96.7486L109.32 96.7415Z" fill="white"/>
<path d="M59.0686 114C58.4773 114 58 113.409 58 112.676C58 111.944 58.4773 111.352 59.0686 111.352H76.9781C85.6906 111.247 93.5341 108.751 96.9464 98.8054C97.1744 98.1347 97.8084 97.817 98.3498 98.1083C98.8912 98.3907 99.1477 99.1761 98.9126 99.8468C95.1654 110.763 86.5598 113.885 76.9852 114H59.0686Z" fill="white"/>
<path d="M62.6284 71.3873C62.3216 71.3873 62.022 71.2589 61.808 71.0021C61.4299 70.5455 61.487 69.8749 61.9435 69.4968C66.1526 65.9727 71.503 64.0322 76.989 64.0322C77.5811 64.0322 78.0591 64.5102 78.0591 65.1023C78.0591 65.6944 77.5811 66.1724 76.989 66.1724C72.0024 66.1724 67.1442 67.9345 63.3132 71.1376C63.1135 71.3017 62.8709 71.3873 62.6284 71.3873Z" fill="white"/>
<path d="M95.0312 75.2185C94.7102 75.2185 94.3891 75.0758 94.1823 74.7976C92.2846 72.3079 89.9233 70.2818 87.1767 68.7766C86.6559 68.4912 86.4705 67.842 86.7558 67.3213C87.0412 66.8005 87.6904 66.615 88.2111 66.9004C91.2217 68.5483 93.8042 70.7741 95.8873 73.5064C96.244 73.9772 96.1584 74.6478 95.6875 75.0045C95.4949 75.1543 95.2666 75.2257 95.0383 75.2257L95.0312 75.2185Z" fill="white"/>
<path d="M100.047 90.1565C99.4545 90.1565 98.9765 89.6785 98.9765 89.0864C98.9765 85.7549 98.2845 82.5232 96.929 79.4841C96.6865 78.942 96.9291 78.3142 97.4712 78.0716C98.0134 77.8291 98.6412 78.0716 98.8837 78.6138C100.36 81.9311 101.117 85.4553 101.117 89.0864C101.117 89.6785 100.639 90.1565 100.047 90.1565Z" fill="white"/>
<path d="M76.99 66.165C76.3979 66.165 75.9199 65.687 75.9199 65.0949V51.2693C75.9199 50.6772 76.3979 50.1992 76.99 50.1992C77.5821 50.1992 78.0601 50.6772 78.0601 51.2693V65.0949C78.0601 65.687 77.5821 66.165 76.99 66.165Z" fill="white"/>
<path d="M76.9893 52.3399C74.3854 52.3399 72.2666 50.2211 72.2666 47.6172C72.2666 45.0133 74.3854 42.8945 76.9893 42.8945C79.5932 42.8945 81.7119 45.0133 81.7119 47.6172C81.7119 50.2211 79.5932 52.3399 76.9893 52.3399ZM76.9893 45.0347C75.5625 45.0347 74.4068 46.1904 74.4068 47.6172C74.4068 49.044 75.5625 50.1997 76.9893 50.1997C78.4161 50.1997 79.5718 49.044 79.5718 47.6172C79.5718 46.1904 78.4161 45.0347 76.9893 45.0347Z" fill="white"/>
<path d="M67.074 68.4408C66.4819 68.4408 66.0039 67.9628 66.0039 67.3707V60.1511C66.0039 59.559 66.4819 59.0811 67.074 59.0811C67.6661 59.0811 68.1441 59.559 68.1441 60.1511V67.3707C68.1441 67.9628 67.6661 68.4408 67.074 68.4408Z" fill="white"/>
<path d="M67.0733 61.2217C64.4694 61.2217 62.3506 59.1029 62.3506 56.499C62.3506 53.8951 64.4694 51.7764 67.0733 51.7764C69.6771 51.7764 71.7959 53.8951 71.7959 56.499C71.7959 59.1029 69.6771 61.2217 67.0733 61.2217ZM67.0733 53.9165C65.6465 53.9165 64.4908 55.0722 64.4908 56.499C64.4908 57.9258 65.6465 59.0815 67.0733 59.0815C68.5 59.0815 69.6557 57.9258 69.6557 56.499C69.6557 55.0722 68.5 53.9165 67.0733 53.9165Z" fill="white"/>
<path d="M87.6902 68.4408C87.0981 68.4408 86.6201 67.9628 86.6201 67.3707V60.1511C86.6201 59.559 87.0981 59.0811 87.6902 59.0811C88.2823 59.0811 88.7603 59.559 88.7603 60.1511V67.3707C88.7603 67.9628 88.2823 68.4408 87.6902 68.4408Z" fill="white"/>
<path d="M87.6904 61.2217C85.0865 61.2217 82.9678 59.1029 82.9678 56.499C82.9678 53.8951 85.0865 51.7764 87.6904 51.7764C90.2943 51.7764 92.4131 53.8951 92.4131 56.499C92.4131 59.1029 90.2943 61.2217 87.6904 61.2217ZM87.6904 53.9165C86.2636 53.9165 85.108 55.0722 85.108 56.499C85.108 57.9258 86.2636 59.0815 87.6904 59.0815C89.1172 59.0815 90.2729 57.9258 90.2729 56.499C90.2729 55.0722 89.1172 53.9165 87.6904 53.9165Z" fill="white"/>
<path d="M59.3604 114H4.66106C2.09389 114 0 111.396 0 108.204V10.796C0 7.60373 2.09389 5 4.66106 5H59.3389C61.9061 5 64 7.60373 64 10.796V25.063C64 25.8031 63.5196 26.4005 62.9244 26.4005C62.3292 26.4005 61.8487 25.8031 61.8487 25.063V10.796C61.8487 9.07502 60.7229 7.67507 59.3389 7.67507H4.66106C3.27709 7.67507 2.15126 9.07502 2.15126 10.796V108.204C2.15126 109.925 3.27709 111.325 4.66106 111.325H59.3604C59.9556 111.325 60.4361 111.922 60.4361 112.662C60.4361 113.403 59.9556 114 59.3604 114Z" fill="white"/>
<path d="M54 17H10V34H54V17Z" fill="#69F5DB"/>
<path d="M48.803 62.2759H39.7429C39.1508 62.2759 38.6729 61.798 38.6729 61.2058C38.6729 60.6137 39.1508 60.1357 39.7429 60.1357H48.803C49.3952 60.1357 49.8731 60.6137 49.8731 61.2058C49.8731 61.798 49.3952 62.2759 48.803 62.2759Z" fill="white"/>
<path d="M23.9486 62.2759H14.8885C14.2963 62.2759 13.8184 61.798 13.8184 61.2058C13.8184 60.6137 14.2963 60.1357 14.8885 60.1357H23.9486C24.5407 60.1357 25.0186 60.6137 25.0186 61.2058C25.0186 61.798 24.5407 62.2759 23.9486 62.2759Z" fill="white"/>
<path d="M19.4187 66.8058C18.8266 66.8058 18.3486 66.3278 18.3486 65.7357V56.6756C18.3486 56.0834 18.8266 55.6055 19.4187 55.6055C20.0108 55.6055 20.4888 56.0834 20.4888 56.6756V65.7357C20.4888 66.3278 20.0108 66.8058 19.4187 66.8058Z" fill="white"/>
<path d="M22.6217 90.0055C22.3506 90.0055 22.0724 89.8985 21.8655 89.6916L15.4592 83.2854C15.0383 82.8645 15.0383 82.1867 15.4592 81.773C15.8801 81.3592 16.5579 81.3521 16.9716 81.773L23.3779 88.1792C23.7988 88.6002 23.7988 89.2779 23.3779 89.6916C23.171 89.8985 22.8928 90.0055 22.6217 90.0055Z" fill="white"/>
<path d="M16.2154 90.0053C15.9443 90.0053 15.6661 89.8983 15.4592 89.6914C15.0383 89.2705 15.0383 88.5928 15.4592 88.179L21.8655 81.7727C22.2864 81.3518 22.9641 81.3518 23.3779 81.7727C23.7917 82.1936 23.7988 82.8713 23.3779 83.2851L16.9716 89.6914C16.7647 89.8983 16.4865 90.0053 16.2154 90.0053Z" fill="white"/>
<path d="M47.8333 86.688H38.7732C38.1811 86.688 37.7031 86.2101 37.7031 85.6179C37.7031 85.0258 38.1811 84.5479 38.7732 84.5479H47.8333C48.4254 84.5479 48.9034 85.0258 48.9034 85.6179C48.9034 86.2101 48.4254 86.688 47.8333 86.688Z" fill="white"/>
<path d="M43.3879 82.6928C42.6246 82.6928 42.0039 82.0721 42.0039 81.3088C42.0039 80.5455 42.6246 79.9248 43.3879 79.9248C44.1512 79.9248 44.7719 80.5455 44.7719 81.3088C44.7719 82.0721 44.1512 82.6928 43.3879 82.6928ZM43.3879 80.5526C42.9741 80.5526 42.6317 80.895 42.6317 81.3088C42.6317 81.7226 42.9741 82.065 43.3879 82.065C43.8017 82.065 44.1441 81.7226 44.1441 81.3088C44.1441 80.895 43.8017 80.5526 43.3879 80.5526Z" fill="white"/>
<path d="M43.3879 91.6244C42.6246 91.6244 42.0039 91.0038 42.0039 90.2404C42.0039 89.4771 42.6246 88.8564 43.3879 88.8564C44.1512 88.8564 44.7719 89.4771 44.7719 90.2404C44.7719 91.0038 44.1512 91.6244 43.3879 91.6244ZM43.3879 89.4842C42.9741 89.4842 42.6317 89.8267 42.6317 90.2404C42.6317 90.6542 42.9741 90.9966 43.3879 90.9966C43.8017 90.9966 44.1441 90.6542 44.1441 90.2404C44.1441 89.8267 43.8017 89.4842 43.3879 89.4842Z" fill="white"/>
<path d="M55.7231 74.0181H7.96853C7.37641 74.0181 6.89844 73.5401 6.89844 72.948C6.89844 72.3559 7.37641 71.8779 7.96853 71.8779H55.7231C56.3152 71.8779 56.7932 72.3559 56.7932 72.948C56.7932 73.5401 56.3152 74.0181 55.7231 74.0181Z" fill="white"/>
<path d="M32.1033 97.8948C31.5112 97.8948 31.0332 97.4168 31.0332 96.8247V49.0701C31.0332 48.478 31.5112 48 32.1033 48C32.6954 48 33.1734 48.478 33.1734 49.0701V96.8247C33.1734 97.4168 32.6954 97.8948 32.1033 97.8948Z" fill="white"/>
</svg>
