<svg width="140" height="36" viewBox="0 0 140 36" fill="none" xmlns="http://www.w3.org/2000/svg">
<g clip-path="url(#clip0_1115_199)">
<path d="M65.3458 16.866C64.5627 16.8674 63.7854 17.0011 63.0458 17.2617C62.3398 17.5054 61.6939 17.8999 61.1517 18.4186C60.5966 18.9473 60.1607 19.5911 59.874 20.3061C59.5283 21.1386 59.3642 22.0369 59.393 22.9395C59.3313 23.7813 59.4528 24.6265 59.7489 25.4156C60.045 26.2046 60.5085 26.9183 61.1066 27.5061C62.266 28.5293 63.7634 29.0727 65.3007 29.0283C66.1502 29.0425 66.9969 28.9244 67.8111 28.6782C68.4594 28.4825 69.0925 28.2383 69.7051 27.9476C70.3075 28.3409 70.82 28.8598 71.2084 29.4698C71.5441 30.0559 71.7107 30.7257 71.6894 31.403C71.696 32.0509 71.5217 32.6876 71.1866 33.2397C70.8515 33.7918 70.3692 34.2368 69.7953 34.5235C68.1751 35.3436 66.3732 35.7264 64.5641 35.6347C62.6691 35.6798 60.7812 35.3861 58.9871 34.767C57.4202 34.2156 55.9787 33.3512 54.748 32.225C53.5694 31.1169 52.6368 29.7679 52.0121 28.2672C51.3369 26.6338 50.9993 24.8776 51.0199 23.107C50.978 21.1674 51.3311 19.2398 52.0572 17.4444C52.701 15.9105 53.6831 14.5462 54.9283 13.4562C56.1407 12.3954 57.5518 11.593 59.0773 11.0968C60.6791 10.5689 62.3534 10.3017 64.0379 10.3053C65.9135 10.1933 67.78 10.6433 69.4045 11.5992C69.9753 11.9293 70.4506 12.4052 70.7829 12.9795C71.1153 13.5538 71.2931 14.2063 71.2986 14.8719C71.3135 15.4847 71.1627 16.09 70.8626 16.6224C70.5933 17.1301 70.2542 17.5965 69.8554 18.0076C69.2113 17.7142 68.5484 17.465 67.8712 17.2617C67.0539 17.0016 66.2025 16.8682 65.3458 16.866V16.866Z" fill="#8363FF"/>
<path d="M42.6615 34.767C42.1677 34.8987 41.6654 34.9953 41.1583 35.0562C40.4464 35.1604 39.7279 35.2113 39.0086 35.2085C38.3692 35.2113 37.7306 35.1604 37.0995 35.0562C36.5843 34.9832 36.0943 34.7847 35.6715 34.4778C35.273 34.1629 34.9622 33.7485 34.7695 33.2753C34.5538 32.6499 34.4569 31.9888 34.4839 31.3269V16.6224C34.4707 15.9533 34.615 15.2907 34.9048 14.6892C35.1839 14.0987 35.5896 13.5786 36.0924 13.167C36.6612 12.7292 37.2824 12.366 37.9413 12.0863C38.7378 11.7328 39.5563 11.4328 40.3916 11.1882C41.2773 10.917 42.1817 10.7135 43.0974 10.5793C44.0293 10.4551 44.9687 10.3991 45.9085 10.4118C47.198 10.344 48.4788 10.6616 49.5914 11.3252C50.0636 11.6652 50.4378 12.1265 50.6756 12.6616C50.9134 13.1966 51.0061 13.7862 50.9443 14.3696C50.9468 14.8285 50.8809 15.2852 50.7489 15.7243C50.6264 16.1347 50.4653 16.5323 50.2679 16.9116C49.57 16.9103 48.8726 16.9459 48.1784 17.0182C47.4718 17.0182 46.7804 17.1856 46.1039 17.3074C45.4274 17.4292 44.7811 17.5814 44.1948 17.7336C43.6803 17.8567 43.1773 18.0247 42.6916 18.2359L42.6615 34.767Z" fill="#8363FF"/>
<path d="M98.2511 34.767C97.7578 34.9007 97.2553 34.9974 96.7479 35.0562C96.036 35.1599 95.3175 35.2108 94.5983 35.2085C93.9539 35.2113 93.3103 35.1604 92.6741 35.0562C92.1643 34.9803 91.6798 34.7819 91.2611 34.4778C90.8585 34.167 90.5468 33.7514 90.3592 33.2753C90.1536 32.6479 90.0669 31.9868 90.1036 31.3268V20.4431C90.1593 19.9283 90.0989 19.4074 89.927 18.9197C89.7552 18.4319 89.4763 17.99 89.1115 17.6271C88.4123 17.0776 87.5458 16.7923 86.6612 16.8203C86.0419 16.8178 85.425 16.8997 84.8273 17.0638C84.331 17.1862 83.855 17.381 83.4142 17.6423V34.767C82.9209 34.9007 82.4184 34.9974 81.911 35.0562C81.1991 35.1599 80.4806 35.2108 79.7614 35.2085C79.117 35.2113 78.4734 35.1604 77.8372 35.0562C77.3274 34.9803 76.8429 34.7819 76.4242 34.4778C76.0257 34.1629 75.7149 33.7485 75.5223 33.2753C75.25 32.6611 75.0969 31.9996 75.0713 31.3268V2.89218L76.5745 2.61818C77.2709 2.50948 77.9744 2.45351 78.679 2.45074C79.3235 2.44785 79.967 2.49876 80.6032 2.60296C81.113 2.67894 81.5975 2.87727 82.0162 3.18139C82.4147 3.49631 82.7255 3.91071 82.9182 4.38393C83.1498 5.02168 83.257 5.6989 83.2338 6.37801V11.1729C83.8652 10.9598 84.4966 10.7619 85.1429 10.6097C86.0753 10.3965 87.0282 10.2893 87.9841 10.2901C90.7025 10.1181 93.3854 10.9875 95.5002 12.7256C96.4433 13.6584 97.173 14.7892 97.6379 16.0385C98.1028 17.2877 98.2916 18.6249 98.191 19.956L98.2511 34.767Z" fill="#8363FF"/>
<path d="M103.152 4.41435C103.137 3.83445 103.239 3.25761 103.451 2.71866C103.663 2.17971 103.98 1.68984 104.384 1.27862C105.28 0.45713 106.445 0.00218201 107.654 0.00218201C108.862 0.00218201 110.028 0.45713 110.923 1.27862C111.714 2.12634 112.155 3.24825 112.155 4.41435C112.155 5.58044 111.714 6.70236 110.923 7.55008C110.028 8.37156 108.862 8.82651 107.654 8.82651C106.445 8.82651 105.28 8.37156 104.384 7.55008C103.982 7.13782 103.665 6.64776 103.453 6.10905C103.242 5.57035 103.139 4.99402 103.152 4.41435V4.41435ZM111.765 34.8583L110.262 35.1323C109.566 35.2416 108.862 35.2976 108.158 35.2998C107.518 35.3026 106.879 35.2517 106.248 35.1475C105.708 35.0835 105.191 34.8848 104.745 34.5691C104.346 34.258 104.04 33.842 103.858 33.3666C103.627 32.7288 103.519 32.0516 103.543 31.3725V11.3708L105.046 11.112C105.741 10.9901 106.445 10.929 107.15 10.9294C107.79 10.9271 108.428 10.978 109.059 11.0816C109.603 11.1436 110.121 11.3482 110.563 11.6752C110.964 11.9813 111.275 12.3916 111.465 12.8626C111.696 13.5003 111.803 14.1775 111.78 14.8566L111.765 34.8583Z" fill="#8363FF"/>
<path d="M115.253 22.9395C115.209 21.0266 115.536 19.1234 116.215 17.3378C116.811 15.8589 117.725 14.533 118.891 13.4562C120.061 12.407 121.432 11.614 122.919 11.1273C124.524 10.6165 126.198 10.3598 127.88 10.3662C128.511 10.3205 129.146 10.3358 129.774 10.4118C130.288 10.495 130.792 10.6328 131.277 10.8228V2.93784C131.772 2.80255 132.274 2.69582 132.781 2.61818C133.502 2.50888 134.231 2.45291 134.96 2.45074C135.6 2.44785 136.238 2.49877 136.869 2.60296C137.41 2.66697 137.927 2.86571 138.373 3.18139C138.763 3.49764 139.063 3.91243 139.245 4.38393C139.453 5.02694 139.549 5.70161 139.53 6.37801V29.622C139.522 30.3665 139.316 31.0952 138.936 31.7323C138.555 32.3693 138.013 32.8916 137.366 33.2448C136.226 33.9767 134.991 34.5453 133.698 34.9345C130.18 35.9331 126.451 35.875 122.965 34.767C121.395 34.2348 119.958 33.3621 118.756 32.2097C117.601 31.0944 116.707 29.7318 116.14 28.2216C115.521 26.5326 115.22 24.7409 115.253 22.9395V22.9395ZM128.993 16.8507C128.255 16.8012 127.516 16.9113 126.824 17.1737C126.132 17.4362 125.503 17.845 124.979 18.3729C123.953 19.6578 123.452 21.2922 123.581 22.9395C123.474 24.5676 123.932 26.1824 124.874 27.5061C125.353 28.0294 125.942 28.4377 126.598 28.701C127.253 28.9644 127.958 29.0762 128.662 29.0283C129.175 29.0342 129.686 28.9412 130.165 28.7543C130.56 28.6215 130.927 28.415 131.247 28.1455V17.414C130.563 17.0119 129.783 16.8066 128.993 16.8203V16.8507Z" fill="#8363FF"/>
<path d="M6.67452 11.9797C7.62926 11.9797 8.40324 11.196 8.40324 10.2292C8.40324 9.26238 7.62926 8.47864 6.67452 8.47864C5.71977 8.47864 4.9458 9.26238 4.9458 10.2292C4.9458 11.196 5.71977 11.9797 6.67452 11.9797Z" fill="#8363FF"/>
<path d="M1.21762 10.9446C1.89009 10.9446 2.43524 10.3926 2.43524 9.71162C2.43524 9.03066 1.89009 8.47864 1.21762 8.47864C0.545146 8.47864 0 9.03066 0 9.71162C0 10.3926 0.545146 10.9446 1.21762 10.9446Z" fill="#8363FF"/>
<path d="M27.3591 12.9387C26.1763 11.5651 24.7348 10.4443 23.119 9.64188C21.5032 8.83945 19.7455 8.37154 17.9488 8.26554C17.0611 8.20468 16.1697 8.23528 15.2881 8.35688V8.35688C14.9955 8.38147 14.7045 8.42212 14.4162 8.47865H14.1607C13.3987 8.65331 12.654 8.89787 11.9359 9.20931V9.20931C11.3003 9.46739 10.7543 9.91 10.3664 10.4815C9.97861 11.053 9.7663 11.7278 9.7562 12.4211C9.7562 13.3376 10.1157 14.2165 10.7557 14.8645C11.3956 15.5125 12.2635 15.8765 13.1685 15.8765C13.7201 15.7858 14.2632 15.6483 14.792 15.4655C16.3376 14.9232 18.0224 14.9493 19.5508 15.5394C21.0791 16.1296 22.3534 17.2459 23.15 18.6926V18.6926C24.0048 20.2766 24.2254 22.1327 23.7661 23.8768C23.3069 25.6208 22.2029 27.1193 20.6828 28.0621C19.1628 29.0048 17.3429 29.3196 15.6 28.9412C13.857 28.5629 12.3245 27.5204 11.3196 26.0296V26.0296L11.0039 25.6338C10.3554 24.2766 10.0801 22.7674 10.2072 21.2651V21.2651C10.1695 20.4427 9.84426 19.6606 9.28965 19.0586C8.73503 18.4566 7.98713 18.0738 7.17953 17.9787C6.37193 17.8836 5.55723 18.0823 4.88095 18.5393C4.20467 18.9963 3.71086 19.6819 3.48772 20.4736C3.42223 20.8762 3.38705 21.2833 3.3825 21.6913C3.25717 25.3112 4.5263 28.8386 6.92177 31.5285C9.31725 34.2183 12.6515 35.8599 16.2201 36.1066H17.0619C17.5643 36.1047 18.0662 36.0743 18.5651 36.0152H18.6553L19.7226 35.8935C22.0858 35.4102 24.2818 34.3059 26.0901 32.6913C27.8983 31.0767 29.2552 29.0087 30.0245 26.695C30.7937 24.3813 30.9482 21.9034 30.4724 19.5102C29.9966 17.1169 28.9074 14.8925 27.314 13.0605L27.3591 12.9387Z" fill="#8363FF"/>
<path d="M4.43464 17.0791C5.67166 17.0791 6.67446 16.0636 6.67446 14.811C6.67446 13.5584 5.67166 12.5429 4.43464 12.5429C3.19762 12.5429 2.19482 13.5584 2.19482 14.811C2.19482 16.0636 3.19762 17.0791 4.43464 17.0791Z" fill="#8363FF"/>
</g>
<defs>
<clipPath id="clip0_1115_199">
<rect width="139.5" height="36" fill="white"/>
</clipPath>
</defs>
</svg>
