<svg width="149" height="38" viewBox="0 0 149 38" fill="none" xmlns="http://www.w3.org/2000/svg">
<g clip-path="url(#clip0_1115_493)">
<path d="M69.7957 17.8028C68.9593 17.8042 68.129 17.9454 67.3391 18.2205C66.5851 18.4777 65.8951 18.8942 65.3161 19.4417C64.7231 19.9997 64.2575 20.6793 63.9513 21.4341C63.582 22.3128 63.4068 23.261 63.4375 24.2138C63.3716 25.1023 63.5014 25.9945 63.8177 26.8274C64.134 27.6602 64.629 28.4135 65.2679 29.0341C66.5062 30.114 68.1056 30.6877 69.7475 30.6408C70.6549 30.6557 71.5593 30.5311 72.4289 30.2713C73.1214 30.0647 73.7976 29.8069 74.4519 29.5C75.0953 29.9152 75.6427 30.463 76.0575 31.1068C76.4161 31.7255 76.5941 32.4325 76.5713 33.1474C76.5784 33.8314 76.3922 34.5034 76.0343 35.0861C75.6764 35.6689 75.1613 36.1386 74.5483 36.4412C72.8177 37.307 70.8931 37.711 68.9608 37.6142C66.9368 37.6618 64.9203 37.3518 63.004 36.6983C61.3304 36.1163 59.7907 35.2038 58.4762 34.015C57.2174 32.8454 56.2213 31.4214 55.554 29.8374C54.8329 28.1132 54.4722 26.2595 54.4943 24.3905C54.4495 22.3431 54.8266 20.3084 55.6022 18.4133C56.2898 16.7942 57.3388 15.3541 58.6689 14.2036C59.9638 13.0838 61.4709 12.2368 63.1003 11.7131C64.8112 11.1558 66.5996 10.8738 68.3988 10.8776C70.4021 10.7593 72.3958 11.2344 74.1308 12.2434C74.7405 12.5918 75.2481 13.0942 75.6031 13.7004C75.9581 14.3066 76.148 14.9953 76.1539 15.6979C76.1698 16.3448 76.0088 16.9837 75.6883 17.5457C75.4006 18.0816 75.0384 18.5738 74.6125 19.0078C73.9245 18.6981 73.2164 18.4351 72.4931 18.2205C71.6202 17.9459 70.7107 17.8051 69.7957 17.8028V17.8028Z" fill="#8363FF"/>
<path d="M45.5668 36.6982C45.0394 36.8372 44.5029 36.9392 43.9612 37.0035C43.2009 37.1135 42.4335 37.1672 41.6652 37.1642C40.9822 37.1672 40.3002 37.1135 39.6261 37.0035C39.0758 36.9264 38.5524 36.7169 38.1008 36.3929C37.6752 36.0605 37.3432 35.6231 37.1374 35.1236C36.907 34.4634 36.8035 33.7656 36.8324 33.0669V17.5456C36.8183 16.8393 36.9724 16.1398 37.2819 15.505C37.58 14.8816 38.0133 14.3327 38.5504 13.8982C39.1579 13.436 39.8215 13.0527 40.5252 12.7574C41.3759 12.3843 42.2502 12.0676 43.1424 11.8094C44.0883 11.5232 45.0544 11.3083 46.0325 11.1667C47.0277 11.0356 48.0312 10.9765 49.0349 10.99C50.4123 10.9183 51.7803 11.2536 52.9687 11.954C53.473 12.3129 53.8728 12.7998 54.1267 13.3646C54.3807 13.9294 54.4798 14.5517 54.4137 15.1675C54.4163 15.652 54.346 16.1341 54.205 16.5976C54.0741 17.0308 53.9021 17.4505 53.6912 17.8508C52.9458 17.8494 52.2009 17.887 51.4594 17.9633C50.7048 17.9633 49.9662 18.1401 49.2437 18.2686C48.5212 18.3971 47.8307 18.5578 47.2046 18.7185C46.655 18.8484 46.1178 19.0258 45.599 19.2487L45.5668 36.6982Z" fill="#8363FF"/>
<path d="M104.942 36.6987C104.415 36.8398 103.878 36.9418 103.336 37.0039C102.576 37.1134 101.809 37.1671 101.04 37.1646C100.352 37.1677 99.6647 37.1139 98.9852 37.0039C98.4407 36.9237 97.9232 36.7144 97.4759 36.3934C97.0459 36.0653 96.7129 35.6266 96.5126 35.124C96.2931 34.4618 96.2004 33.764 96.2396 33.0674V21.579C96.299 21.0356 96.2346 20.4858 96.051 19.9709C95.8675 19.456 95.5696 18.9895 95.1799 18.6065C94.4331 18.0265 93.5076 17.7254 92.5628 17.7549C91.9013 17.7522 91.2424 17.8387 90.604 18.012C90.0739 18.1411 89.5655 18.3468 89.0947 18.6226V36.6987C88.5677 36.8398 88.0311 36.9418 87.4891 37.0039C86.7287 37.1134 85.9613 37.1671 85.1931 37.1646C84.5048 37.1677 83.8174 37.1139 83.1379 37.0039C82.5934 36.9237 82.0759 36.7144 81.6286 36.3934C81.203 36.061 80.871 35.6235 80.6653 35.124C80.3745 34.4757 80.2109 33.7775 80.1836 33.0674V3.053L81.7892 2.76378C82.533 2.64904 83.2844 2.58996 84.037 2.58704C84.7253 2.58399 85.4127 2.63773 86.0922 2.74771C86.6367 2.82792 87.1542 3.03726 87.6015 3.35828C88.0271 3.6907 88.3591 4.12811 88.5648 4.62763C88.8123 5.30081 88.9268 6.01565 88.902 6.73249V11.7938C89.5764 11.5689 90.2507 11.36 90.9411 11.1993C91.937 10.9743 92.9548 10.8611 93.9757 10.8619C96.8793 10.6804 99.7449 11.598 102.004 13.4327C103.011 14.4173 103.79 15.611 104.287 16.9296C104.784 18.2483 104.985 19.6598 104.878 21.0648L104.942 36.6987Z" fill="#8363FF"/>
<path d="M110.177 4.65973C110.161 4.04762 110.27 3.43873 110.496 2.86984C110.723 2.30095 111.062 1.78385 111.493 1.34979C112.45 0.482664 113.695 0.00244141 114.986 0.00244141C116.276 0.00244141 117.521 0.482664 118.478 1.34979C119.322 2.2446 119.793 3.42885 119.793 4.65973C119.793 5.8906 119.322 7.07485 118.478 7.96966C117.521 8.83679 116.276 9.31701 114.986 9.31701C113.695 9.31701 112.45 8.83679 111.493 7.96966C111.063 7.5345 110.725 7.01721 110.499 6.44858C110.273 5.87995 110.163 5.2716 110.177 4.65973V4.65973ZM119.377 36.795L117.771 37.0843C117.027 37.1996 116.276 37.2587 115.523 37.261C114.84 37.264 114.158 37.2103 113.484 37.1003C112.907 37.0327 112.355 36.823 111.879 36.4897C111.453 36.1613 111.125 35.7223 110.931 35.2204C110.684 34.5472 110.569 33.8324 110.594 33.1155V12.0026L112.2 11.7295C112.942 11.6008 113.694 11.5363 114.448 11.5367C115.131 11.5343 115.813 11.588 116.487 11.6974C117.067 11.7628 117.621 11.9788 118.092 12.324C118.521 12.6471 118.854 13.0801 119.056 13.5773C119.303 14.2505 119.418 14.9653 119.393 15.6821L119.377 36.795Z" fill="#8363FF"/>
<path d="M123.102 24.2141C123.054 22.1948 123.404 20.1859 124.129 18.3012C124.766 16.7401 125.742 15.3405 126.987 14.2039C128.237 13.0964 129.702 12.2594 131.29 11.7456C133.005 11.2064 134.792 10.9354 136.589 10.9422C137.263 10.8941 137.94 10.9102 138.612 10.9904C139.161 11.0782 139.699 11.2236 140.217 11.4242V3.1012C140.746 2.95839 141.282 2.84574 141.823 2.76378C142.594 2.6484 143.372 2.58933 144.151 2.58704C144.834 2.58399 145.516 2.63773 146.19 2.74771C146.768 2.81528 147.319 3.02507 147.796 3.35828C148.212 3.6921 148.534 4.12993 148.727 4.62763C148.949 5.30636 149.053 6.01851 149.032 6.73249V31.2678C149.023 32.0537 148.804 32.8228 148.397 33.4953C147.991 34.1678 147.411 34.719 146.72 35.0919C145.503 35.8644 144.184 36.4646 142.802 36.8754C139.045 37.9296 135.062 37.8681 131.338 36.6987C129.661 36.1369 128.127 35.2157 126.843 33.9993C125.609 32.822 124.655 31.3837 124.049 29.7896C123.387 28.0067 123.066 26.1155 123.102 24.2141V24.2141ZM137.777 17.787C136.989 17.7347 136.199 17.8509 135.46 18.128C134.721 18.405 134.049 18.8366 133.49 19.3938C132.394 20.75 131.859 22.4753 131.997 24.2141C131.883 25.9326 132.371 27.6371 133.377 29.0344C133.89 29.5868 134.519 30.0177 135.219 30.2957C135.919 30.5737 136.672 30.6917 137.424 30.6412C137.972 30.6473 138.517 30.5492 139.029 30.3519C139.451 30.2117 139.843 29.9938 140.185 29.7092V18.3815C139.454 17.9571 138.622 17.7404 137.777 17.7549V17.787Z" fill="#8363FF"/>
<path d="M7.12867 12.6453C8.14843 12.6453 8.97511 11.818 8.97511 10.7975C8.97511 9.77699 8.14843 8.94971 7.12867 8.94971C6.10891 8.94971 5.28223 9.77699 5.28223 10.7975C5.28223 11.818 6.10891 12.6453 7.12867 12.6453Z" fill="#8363FF"/>
<path d="M1.30054 11.5527C2.01881 11.5527 2.60108 10.97 2.60108 10.2512C2.60108 9.5324 2.01881 8.94971 1.30054 8.94971C0.582271 8.94971 0 9.5324 0 10.2512C0 10.97 0.582271 11.5527 1.30054 11.5527Z" fill="#8363FF"/>
<path d="M29.2219 13.6577C27.9586 12.2078 26.419 11.0248 24.6931 10.1778C22.9672 9.33074 21.0899 8.83684 19.1709 8.72495C18.2227 8.66071 17.2705 8.69301 16.3289 8.82136V8.82136C16.0164 8.84732 15.7056 8.89023 15.3977 8.9499H15.1247C14.3109 9.13426 13.5155 9.39241 12.7484 9.72115V9.72115C12.0696 9.99356 11.4864 10.4608 11.0721 11.064C10.6579 11.6672 10.4311 12.3796 10.4203 13.1114C10.4203 14.0788 10.8043 15.0065 11.4878 15.6905C12.1714 16.3745 13.0984 16.7588 14.065 16.7588C14.6542 16.663 15.2342 16.5179 15.7991 16.325C17.4499 15.7524 19.2494 15.7801 20.8819 16.403C22.5144 17.0259 23.8754 18.2042 24.7262 19.7313V19.7313C25.6392 21.4032 25.8748 23.3625 25.3843 25.2035C24.8938 27.0444 23.7147 28.6262 22.0911 29.6213C20.4675 30.6164 18.5237 30.9486 16.662 30.5493C14.8004 30.1499 13.1635 29.0495 12.0902 27.4759V27.4759L11.753 27.0581C11.0603 25.6255 10.7663 24.0325 10.902 22.4467V22.4467C10.8617 21.5786 10.5144 20.7531 9.92199 20.1176C9.32961 19.4822 8.53078 19.0782 7.66818 18.9777C6.80558 18.8773 5.9354 19.087 5.21306 19.5695C4.49073 20.0519 3.96329 20.7755 3.72496 21.6112C3.655 22.0362 3.61743 22.4659 3.61256 22.8966C3.47871 26.7176 4.83426 30.441 7.39287 33.2802C9.95148 36.1195 13.5128 37.8524 17.3244 38.1127H18.2236C18.7601 38.1108 19.2962 38.0786 19.8292 38.0163H19.9255L21.0655 37.8877C23.5896 37.3777 25.9351 36.212 27.8665 34.5077C29.798 32.8034 31.2472 30.6205 32.0689 28.1783C32.8905 25.7361 33.0555 23.1205 32.5473 20.5943C32.0391 18.068 30.8757 15.7201 29.1738 13.7863L29.2219 13.6577Z" fill="#8363FF"/>
<path d="M4.73659 18.0279C6.05784 18.0279 7.12894 16.956 7.12894 15.6338C7.12894 14.3116 6.05784 13.2397 4.73659 13.2397C3.41533 13.2397 2.34424 14.3116 2.34424 15.6338C2.34424 16.956 3.41533 18.0279 4.73659 18.0279Z" fill="#8363FF"/>
</g>
<defs>
<clipPath id="clip0_1115_493">
<rect width="149" height="38" fill="white"/>
</clipPath>
</defs>
</svg>
