<svg width="301" height="56" viewBox="0 0 301 56" fill="none" xmlns="http://www.w3.org/2000/svg">
<path d="M28.0002 0.5H273C288.188 0.5 300.5 12.8122 300.5 28C300.5 43.1878 288.188 55.5 273 55.5H28.0002C12.8124 55.5 0.500244 43.1878 0.500244 28C0.500244 12.8122 12.8124 0.5 28.0002 0.5Z" fill="url(#paint0_linear_1115_425)"/>
<path d="M28.0002 0.5H273C288.188 0.5 300.5 12.8122 300.5 28C300.5 43.1878 288.188 55.5 273 55.5H28.0002C12.8124 55.5 0.500244 43.1878 0.500244 28C0.500244 12.8122 12.8124 0.5 28.0002 0.5Z" fill="#212121"/>
<path d="M28.0002 0.5H273C288.188 0.5 300.5 12.8122 300.5 28C300.5 43.1878 288.188 55.5 273 55.5H28.0002C12.8124 55.5 0.500244 43.1878 0.500244 28C0.500244 12.8122 12.8124 0.5 28.0002 0.5Z" stroke="#69F5DB"/>
<defs>
<linearGradient id="paint0_linear_1115_425" x1="150.5" y1="0" x2="150.5" y2="56" gradientUnits="userSpaceOnUse">
<stop stop-color="#D4B9FF"/>
<stop offset="1" stop-color="#B88DFC"/>
</linearGradient>
</defs>
</svg>
