<svg width="30" height="30" viewBox="0 0 30 30" fill="none" xmlns="http://www.w3.org/2000/svg">
<path fill-rule="evenodd" clip-rule="evenodd" d="M29.9407 14.9867C29.9473 6.58157 23.1495 0.000233156 15.0066 0.00684092C6.87033 0.000233156 0.0791242 6.56175 0.0659374 14.9602C0.0527506 23.286 6.74506 29.9334 14.9539 29.9532C23.2022 29.9797 29.9407 23.3323 29.9407 14.9867ZM10.7207 15.6406V12.6605C10.7602 12.6407 10.7932 12.6473 10.846 12.6605H13.1602C13.2492 12.6605 13.2937 12.6605 13.3159 12.6382C13.3382 12.616 13.3382 12.5714 13.3382 12.4821V10.6583C13.3339 10.4557 13.3412 10.2531 13.3485 10.0504C13.3522 9.94911 13.3558 9.84779 13.358 9.74647C13.358 9.70683 13.3646 9.66718 13.3844 9.62753C13.3869 9.62007 13.3903 9.61354 13.3936 9.60725C13.3991 9.59682 13.4042 9.58703 13.4042 9.57467C13.3907 9.4708 13.4172 9.37309 13.4437 9.27524C13.456 9.22992 13.4684 9.18457 13.4767 9.13856C13.4899 9.05266 13.5097 8.96015 13.5558 8.87425C13.5787 8.8329 13.5921 8.78517 13.6048 8.73993C13.6103 8.7201 13.6157 8.70075 13.6218 8.68262C13.7075 8.43813 13.8262 8.22008 13.958 8.00863C14.1163 7.75093 14.3075 7.52626 14.5316 7.32803C14.7624 7.12319 15.013 6.95799 15.2833 6.81923C15.4415 6.73994 15.5998 6.68047 15.7646 6.621C15.8217 6.60338 15.8847 6.58576 15.9477 6.56814C15.9792 6.55933 16.0108 6.55052 16.0415 6.54171C16.1036 6.51993 16.1671 6.51134 16.2301 6.50282C16.3008 6.49325 16.3708 6.48378 16.4371 6.4558C16.4701 6.44259 16.5031 6.43598 16.536 6.43598C16.7009 6.43598 16.8657 6.42277 17.0305 6.39633C17.202 6.3699 17.38 6.37651 17.5514 6.39633C17.7294 6.41616 17.9074 6.42937 18.0855 6.42937C18.2767 6.43598 18.4613 6.43598 18.6525 6.43598C18.7118 6.43598 18.7712 6.43598 18.8239 6.4492C18.9627 6.4801 19.1015 6.4829 19.2434 6.48576C19.2835 6.48657 19.3239 6.48739 19.3646 6.48884C19.378 6.49108 19.3921 6.4918 19.4068 6.49255C19.4354 6.49401 19.4659 6.49556 19.4964 6.50867V9.20464C19.4666 9.22459 19.4329 9.22195 19.4012 9.21945C19.3909 9.21864 19.3809 9.21785 19.3712 9.21785H17.736C17.6371 9.21785 17.5382 9.21785 17.4459 9.2575C17.4301 9.26543 17.4143 9.26622 17.3984 9.26701C17.3879 9.26754 17.3773 9.26807 17.3668 9.27071C17.0305 9.31697 16.747 9.46234 16.5492 9.74647C16.4701 9.8522 16.4305 9.97774 16.391 10.1033C16.3307 10.2896 16.3316 10.4758 16.3326 10.6621C16.3329 10.7203 16.3332 10.7785 16.3316 10.8368C16.3217 11.2483 16.323 11.6636 16.3242 12.077C16.3246 12.2145 16.325 12.3518 16.325 12.4887V12.5482C16.3316 12.6407 16.3382 12.6473 16.4239 12.6539H16.4701H19.1734C19.1797 12.6539 19.1863 12.6536 19.1931 12.6534C19.2218 12.6523 19.2548 12.6511 19.292 12.6671C19.2731 12.7099 19.2712 12.7526 19.2691 12.7978C19.2683 12.8155 19.2675 12.8336 19.2657 12.8521C19.2657 12.9512 19.2657 13.0504 19.2261 13.1429C19.2195 13.1495 19.2195 13.1561 19.2195 13.1627C19.2231 13.2717 19.2048 13.3807 19.1865 13.4898C19.1715 13.579 19.1566 13.6682 19.1536 13.7574C19.1525 13.7727 19.1516 13.7879 19.1507 13.8032C19.1461 13.8803 19.1416 13.9566 19.114 14.0283C19.0921 14.0833 19.093 14.143 19.0939 14.2034C19.0941 14.2155 19.0942 14.2276 19.0942 14.2398C19.0942 14.319 19.0942 14.3917 19.0613 14.471C19.0393 14.5262 19.0402 14.586 19.0411 14.6427C19.0413 14.6539 19.0415 14.665 19.0415 14.6759L19.041 14.6821C19.0345 14.7597 19.0276 14.8431 19.0019 14.9204C18.9822 14.993 18.9822 15.0657 18.9822 15.145C18.9822 15.2243 18.9822 15.297 18.9492 15.3697C18.9368 15.4027 18.9373 15.4358 18.9379 15.4688C18.9382 15.4886 18.9385 15.5084 18.936 15.5283C18.9338 15.5415 18.9338 15.5554 18.9338 15.5696C18.9338 15.598 18.9338 15.6274 18.9162 15.6538C18.8857 15.6626 18.8522 15.6597 18.8178 15.6568C18.8002 15.6553 18.7824 15.6538 18.7646 15.6538H16.5031C16.3382 15.6538 16.3316 15.6604 16.3316 15.8256V20.722V23.3651C16.3316 23.3718 16.3319 23.3782 16.3322 23.3846C16.3332 23.4094 16.3342 23.4326 16.3184 23.4642H13.3382C13.3185 23.4346 13.3209 23.4012 13.3234 23.3669C13.3242 23.3554 13.3251 23.3437 13.3251 23.332V19.5392V15.8388V15.7595C13.3185 15.6935 13.2789 15.6604 13.213 15.6538H13.1339H10.8591C10.8476 15.6538 10.8361 15.6546 10.8245 15.6555C10.7899 15.6579 10.7553 15.6604 10.7207 15.6406Z" fill="#69F5DB"/>
</svg>
