<svg width="80" height="80" viewBox="0 0 80 80" fill="none" xmlns="http://www.w3.org/2000/svg">
<g clip-path="url(#clip0_651_9630)">
<path d="M40.0031 36.6483C32.803 36.6483 26.9492 30.5891 26.9492 23.1396C26.9492 15.69 32.803 9.63086 40.0031 9.63086C47.2031 9.63086 53.0569 15.69 53.0569 23.1396C53.0569 30.5891 47.2031 36.6483 40.0031 36.6483ZM40.0031 11.4288C33.8007 11.4288 28.7522 16.6849 28.7522 23.1396C28.7522 29.5943 33.8007 34.8503 40.0031 34.8503C46.2055 34.8503 51.2539 29.5943 51.2539 23.1396C51.2539 16.6849 46.2055 11.4288 40.0031 11.4288Z" fill="white"/>
<path d="M40.003 14.1309C38.9633 14.1309 37.9295 14.3346 36.9679 14.7302C41.6257 16.7739 43.7413 22.1917 41.6978 26.8365C40.7723 28.9461 39.0835 30.6242 36.9679 31.5531C37.9295 31.9487 38.9633 32.1525 40.003 32.1525C44.7149 32.1525 48.5493 28.107 48.5493 23.1626C48.5493 18.2182 44.7149 14.1309 40.003 14.1309Z" fill="#69F5DB"/>
<path d="M69.8008 24.0382H59.5115C59.0127 24.0382 58.61 23.6367 58.61 23.1392C58.61 22.6418 59.0127 22.2402 59.5115 22.2402H69.8008C70.2996 22.2402 70.7023 22.6418 70.7023 23.1392C70.7023 23.6367 70.2996 24.0382 69.8008 24.0382Z" fill="white"/>
<path d="M64.6561 15.5694H57.7205C57.2217 15.5694 56.819 15.1679 56.819 14.6705C56.819 14.173 57.2217 13.7715 57.7205 13.7715H64.6561C65.155 13.7715 65.5577 14.173 65.5577 14.6705C65.5577 15.1679 65.155 15.5694 64.6561 15.5694Z" fill="white"/>
<path d="M64.5119 32.4327H57.7446C57.2458 32.4327 56.8431 32.0312 56.8431 31.5337C56.8431 31.0363 57.2458 30.6348 57.7446 30.6348H64.5119C65.0108 30.6348 65.4134 31.0363 65.4134 31.5337C65.4134 32.0312 65.0108 32.4327 64.5119 32.4327Z" fill="white"/>
<path d="M72.6437 26.884C70.5762 26.884 68.8994 25.2119 68.8934 23.1502C68.8934 22.1493 69.278 21.2144 69.9872 20.5012C70.6964 19.794 71.634 19.4044 72.6377 19.3984C74.7111 19.3984 76.394 21.0705 76.394 23.1322C76.394 25.1939 74.7172 26.878 72.6497 26.878H72.6437V26.884ZM72.6437 21.2024C72.1208 21.2024 71.628 21.4062 71.2614 21.7718C70.8948 22.1373 70.6904 22.6288 70.6964 23.1442C70.6964 24.211 71.5739 25.08 72.6437 25.08C73.7195 25.08 74.5909 24.205 74.5849 23.1322C74.5849 22.0654 73.7075 21.1964 72.6377 21.1964L72.6437 21.2024Z" fill="white"/>
<path d="M67.5052 18.4092C65.4377 18.4092 63.7549 16.7311 63.7549 14.6695C63.7549 12.6078 65.4377 10.9297 67.5052 10.9297C69.5726 10.9297 71.2554 12.6078 71.2554 14.6695C71.2554 16.7311 69.5726 18.4092 67.5052 18.4092ZM67.5052 12.7277C66.4294 12.7277 65.5579 13.5967 65.5579 14.6695C65.5579 15.7422 66.4294 16.6113 67.5052 16.6113C68.581 16.6113 69.4524 15.7422 69.4524 14.6695C69.4524 13.5967 68.581 12.7277 67.5052 12.7277Z" fill="white"/>
<path d="M64.5121 32.433C64.0312 32.433 63.6346 32.0555 63.6105 31.576C63.5625 30.5811 63.911 29.6222 64.5842 28.8851C65.2573 28.1479 66.1829 27.7164 67.1805 27.6684C68.1722 27.6205 69.1398 27.9681 69.879 28.6393C70.6183 29.3106 71.051 30.2335 71.0991 31.2284C71.0991 31.3423 71.0991 31.4562 71.0991 31.57C71.075 32.0675 70.6664 32.451 70.1615 32.4271C69.6627 32.4031 69.278 31.9836 69.3021 31.4921C69.3021 31.4322 69.3021 31.3722 69.3021 31.3123C69.278 30.7969 69.0557 30.3174 68.671 29.9698C68.2864 29.6222 67.7936 29.4364 67.2707 29.4664C66.7538 29.4904 66.273 29.7121 65.9184 30.0957C65.5638 30.4793 65.3895 30.9767 65.4136 31.4921C65.4376 31.9895 65.053 32.4091 64.5541 32.433C64.5421 32.433 64.5241 32.433 64.5121 32.433Z" fill="white"/>
<path d="M20.4883 24.0382H10.199C9.70021 24.0382 9.29753 23.6367 9.29753 23.1392C9.29753 22.6418 9.70021 22.2402 10.199 22.2402H20.4883C20.9871 22.2402 21.3898 22.6418 21.3898 23.1392C21.3898 23.6367 20.9871 24.0382 20.4883 24.0382Z" fill="white"/>
<path d="M22.2793 15.5694H15.3437C14.8449 15.5694 14.4422 15.1679 14.4422 14.6705C14.4422 14.173 14.8449 13.7715 15.3437 13.7715H22.2793C22.7781 13.7715 23.1808 14.173 23.1808 14.6705C23.1808 15.1679 22.7781 15.5694 22.2793 15.5694Z" fill="white"/>
<path d="M22.2554 32.4327H15.4881C14.9893 32.4327 14.5866 32.0312 14.5866 31.5337C14.5866 31.0363 14.9893 30.6348 15.4881 30.6348H22.2554C22.7543 30.6348 23.1569 31.0363 23.1569 31.5337C23.1569 32.0312 22.7543 32.4327 22.2554 32.4327Z" fill="white"/>
<path d="M7.36233 26.8838H7.35632C5.28885 26.8838 3.61205 25.1997 3.61205 23.1381C3.61205 21.0824 5.29486 19.4103 7.35632 19.4043C9.44181 19.4043 11.1186 21.0884 11.1126 23.1501C11.1126 24.1509 10.7159 25.0859 10.0068 25.7931C9.29757 26.4943 8.36 26.8838 7.36233 26.8838ZM5.41507 23.1381C5.41507 24.2109 6.28652 25.0799 7.35632 25.0859C7.87318 25.0859 8.36 24.8881 8.73262 24.5225C9.09924 24.1569 9.30358 23.6715 9.30358 23.1501C9.30358 22.0773 8.43212 21.2083 7.36233 21.2023C6.28653 21.2023 5.41507 22.0713 5.40906 23.1381H5.41507Z" fill="white"/>
<path d="M12.5009 18.4092C10.4335 18.4092 8.75066 16.7311 8.75066 14.6695C8.75066 12.6078 10.4335 10.9297 12.5009 10.9297C14.5684 10.9297 16.2512 12.6078 16.2512 14.6695C16.2512 16.7311 14.5684 18.4092 12.5009 18.4092ZM12.5009 12.7277C11.4251 12.7277 10.5537 13.5967 10.5537 14.6695C10.5537 15.7422 11.4251 16.6113 12.5009 16.6113C13.5767 16.6113 14.4482 15.7422 14.4482 14.6695C14.4482 13.5967 13.5767 12.7277 12.5009 12.7277Z" fill="white"/>
<path d="M9.79641 32.4341C9.3156 32.4341 8.91894 32.0565 8.8949 31.577C8.8949 31.4632 8.8949 31.3493 8.8949 31.2294C8.94298 30.2346 9.3757 29.3116 10.1149 28.6404C10.8542 27.9691 11.8098 27.6275 12.8135 27.6695C13.8111 27.7174 14.7367 28.1489 15.4098 28.8861C16.0829 29.6233 16.4315 30.5822 16.3834 31.577C16.3594 32.0745 15.9567 32.4461 15.4399 32.4341C14.941 32.4101 14.5564 31.9906 14.5804 31.4931C14.6045 30.9777 14.4242 30.4803 14.0756 30.0967C13.727 29.7132 13.2462 29.4914 12.7293 29.4674C12.2064 29.4435 11.7136 29.6233 11.329 29.9709C10.9443 30.3185 10.722 30.7979 10.6979 31.3133C10.6979 31.3733 10.6979 31.4332 10.6979 31.4931C10.722 31.9906 10.3373 32.4101 9.83848 32.4341C9.82646 32.4341 9.80843 32.4341 9.79641 32.4341Z" fill="white"/>
<path d="M53.7841 38.3673C53.5617 38.3673 53.3333 38.2834 53.159 38.1156C52.7984 37.774 52.7864 37.2047 53.135 36.8451C54.7277 35.1909 56.0078 33.2851 56.9334 31.1815C57.1317 30.726 57.6666 30.5222 58.1234 30.72C58.5801 30.9178 58.7845 31.4512 58.5861 31.9067C57.5764 34.2021 56.1821 36.2817 54.4392 38.0857C54.2649 38.2715 54.0245 38.3614 53.7901 38.3614L53.7841 38.3673Z" fill="white"/>
<path d="M26.2159 38.3673C25.9815 38.3673 25.7411 38.2774 25.5668 38.0917C23.8239 36.2817 22.4296 34.2021 21.4259 31.9067C21.2276 31.4512 21.4319 30.9238 21.8887 30.72C22.3454 30.5222 22.8743 30.726 23.0787 31.1815C23.9982 33.2851 25.2783 35.1849 26.871 36.8391C27.2136 37.1987 27.2076 37.768 26.847 38.1096C26.6727 38.2774 26.4443 38.3614 26.2219 38.3614L26.2159 38.3673Z" fill="white"/>
<path d="M20.4703 24.037C19.9715 24.037 19.5688 23.6355 19.5688 23.1381C19.5688 20.0755 20.2059 17.1029 21.4499 14.3041C21.6543 13.8486 22.1832 13.6448 22.6399 13.8486C23.0967 14.0523 23.301 14.5797 23.0967 15.0352C21.9548 17.6063 21.3718 20.3272 21.3718 23.1381C21.3718 23.6355 20.9691 24.037 20.4703 24.037Z" fill="white"/>
<path d="M24.7374 11.4333C24.5511 11.4333 24.3588 11.3734 24.1965 11.2535C23.7999 10.9539 23.7217 10.3905 24.0162 9.99495C27.7725 5.01459 33.7465 2.02397 39.997 2C46.2535 2.02997 52.2275 5.02058 55.9838 9.99495C56.2843 10.3905 56.2061 10.9539 55.8095 11.2535C55.4128 11.5532 54.8479 11.4753 54.5474 11.0797C51.1216 6.54885 45.6825 3.82793 39.997 3.80396C34.3175 3.82793 28.8784 6.54885 25.4586 11.0797C25.2844 11.3135 25.0139 11.4393 24.7374 11.4393V11.4333Z" fill="white"/>
<path d="M59.5117 24.037C59.0128 24.037 58.6102 23.6355 58.6102 23.1381C58.6102 20.3272 58.0332 17.6003 56.8853 15.0352C56.6809 14.5797 56.8853 14.0523 57.342 13.8486C57.7988 13.6448 58.3277 13.8486 58.532 14.3041C59.7821 17.1029 60.4132 20.0755 60.4132 23.1381C60.4132 23.6355 60.0105 24.037 59.5117 24.037Z" fill="white"/>
<path d="M53.0268 60.4165C46.7042 60.4165 42.4551 54.2675 42.401 54.1896C41.8902 53.4944 41.0908 52.6373 40.2915 52.6973C39.4561 52.7632 38.7409 53.7821 38.5125 54.2076C37.7011 56.1554 36.6193 57.396 35.2911 57.8994C34.2153 58.3069 33.0073 58.217 31.7933 57.6297C30.6694 57.0544 30.1345 55.7898 30.4951 54.6031L31.5589 50.9413C32.1118 49.0774 33.452 47.5551 35.237 46.776L39.2938 44.978C41.0728 44.2049 42.7376 44.4506 44.4264 44.7922L55.0342 47.2974C55.521 47.4113 55.8155 47.8967 55.7013 48.3822C55.5871 48.8676 55.1003 49.1613 54.6135 49.0474L44.0358 46.5482C42.3049 46.1946 41.199 46.1107 40.021 46.6202L35.9702 48.4181C34.6721 48.9875 33.6984 50.0902 33.2958 51.4447L32.226 55.1126C32.1178 55.4721 32.2741 55.8497 32.5986 56.0175C33.3438 56.3771 34.041 56.449 34.648 56.2153C35.5015 55.8917 36.2467 54.9687 36.8597 53.4764C36.8718 53.4524 36.8778 53.4344 36.8898 53.4105C37.01 53.1707 38.1399 51.0551 40.1412 50.8933C41.4454 50.7854 42.7075 51.5406 43.8795 53.1408C43.9156 53.1887 45.5263 55.5381 48.1406 57.1323C51.5123 59.1879 54.95 59.0861 58.3517 56.8266C58.7664 56.5509 59.3254 56.6648 59.6018 57.0783C59.8783 57.4919 59.7641 58.0492 59.3494 58.3249C57.0896 59.8292 54.956 60.4046 53.0208 60.4046L53.0268 60.4165Z" fill="white"/>
<path d="M54.1268 65.9001C53.7421 65.9001 53.3875 65.6543 53.2673 65.2768C53.1171 64.8033 53.3755 64.2999 53.8503 64.15L60.816 61.9385C61.2908 61.7887 61.7956 62.0524 61.9459 62.5199C62.0961 62.9874 61.8317 63.4968 61.3629 63.6466L54.3972 65.8581C54.3071 65.8881 54.2169 65.9001 54.1208 65.9001H54.1268Z" fill="white"/>
<path d="M7.09188 68.8671C6.9837 68.8671 6.86951 68.8492 6.76132 68.8012L0.570955 66.356C0.10818 66.1762 -0.120202 65.6488 0.0661098 65.1873C0.252422 64.7258 0.775298 64.4981 1.23807 64.6839L6.59905 66.7995L17.0025 41.4602L0.564945 34.8197C0.10217 34.6339 -0.120202 34.1065 0.0661098 33.651C0.252422 33.1895 0.781308 32.9678 1.23807 33.1536L18.511 40.1357C18.7334 40.2256 18.9077 40.3994 19.0038 40.6211C19.094 40.8429 19.1 41.0886 19.0038 41.3103L7.92127 68.3098C7.77703 68.6574 7.44046 68.8671 7.08587 68.8671H7.09188Z" fill="white"/>
<path d="M18.1744 63.6877C18.0663 63.6877 17.9581 63.6697 17.8499 63.6278L10.1209 60.6312C9.65817 60.4514 9.42979 59.9299 9.61009 59.4685C9.79039 59.007 10.3133 58.7792 10.776 58.959L17.6936 61.638L24.0042 46.9486L16.9364 43.982C16.4796 43.7902 16.2632 43.2628 16.4556 42.8073C16.6479 42.3518 17.1768 42.1361 17.6335 42.3279L25.5368 45.6481C25.7591 45.738 25.9334 45.9178 26.0236 46.1396C26.1137 46.3613 26.1137 46.607 26.0176 46.8288L19.0098 63.1483C18.8656 63.4899 18.529 63.6937 18.1804 63.6937L18.1744 63.6877Z" fill="white"/>
<path d="M72.9081 70.5742C72.5535 70.5742 72.2169 70.3644 72.0727 70.0168L60.9901 43.0174C60.9 42.7956 60.9 42.5499 60.9901 42.3281C61.0803 42.1064 61.2606 41.9326 61.483 41.8427L78.7559 34.8606C79.2187 34.6748 79.7416 34.8965 79.9279 35.358C80.1142 35.8195 79.8918 36.3409 79.429 36.5267L62.9975 43.1672L73.4009 68.5125L78.7619 66.3969C79.2247 66.2111 79.7476 66.4389 79.9339 66.9003C80.1142 67.3618 79.8918 67.8832 79.429 68.069L73.2387 70.5142C73.1305 70.5562 73.0163 70.5802 72.9081 70.5802V70.5742Z" fill="white"/>
<path d="M61.8256 65.3968C61.477 65.3968 61.1404 65.193 60.9962 64.8514L53.9944 48.5259C53.8983 48.3042 53.8983 48.0584 53.9884 47.8367C54.0786 47.6149 54.2529 47.4351 54.4753 47.3452L62.3725 44.031C62.8292 43.8392 63.3581 44.055 63.5505 44.5104C63.7428 44.9659 63.5264 45.4933 63.0696 45.6851L56.0078 48.6518L62.3124 63.3471L69.23 60.6622C69.6927 60.4824 70.2156 60.7101 70.3959 61.1716C70.5762 61.6331 70.3478 62.1545 69.8851 62.3343L62.1561 65.3369C62.0479 65.3788 61.9398 65.3968 61.8316 65.3968H61.8256Z" fill="white"/>
<path d="M53.2974 70.953C52.9247 70.953 52.5521 70.893 52.1795 70.7612C51.6806 70.5874 51.2299 70.2937 50.8693 69.9101L42.6175 61.184C42.2749 60.8244 42.2929 60.2551 42.6535 59.9134C43.0141 59.5718 43.5851 59.5898 43.9277 59.9494L52.1795 68.6755C52.3418 68.8493 52.5521 68.9872 52.7805 69.0651C53.5858 69.3528 54.4693 68.9272 54.7518 68.1301C54.89 67.7286 54.8179 67.2851 54.5474 66.9555L48.5374 59.44C48.2249 59.0504 48.291 58.4871 48.6816 58.1754C49.0723 57.8638 49.6372 57.9297 49.9497 58.3192L55.9598 65.8347C56.6149 66.6558 56.8012 67.7346 56.4526 68.7295C55.9658 70.1019 54.6737 70.953 53.2913 70.953H53.2974Z" fill="white"/>
<path d="M49.1562 73.9241C47.9722 73.9241 46.7942 73.4626 45.9108 72.5457L38.9751 65.3059C38.6326 64.9463 38.6446 64.3769 39.0052 64.0353C39.3658 63.6937 39.9368 63.7057 40.2793 64.0653L47.2149 71.3051C48.2487 72.3779 49.9615 72.4078 51.0373 71.377C51.3439 71.0833 51.5843 70.7118 51.7225 70.3042L51.7465 70.2143C51.8908 69.7409 52.3896 69.4712 52.8704 69.609C53.3452 69.7528 53.6157 70.2503 53.4774 70.7297L53.4414 70.8496C53.201 71.5568 52.8043 72.1741 52.2935 72.6656C51.422 73.5046 50.2921 73.9181 49.1682 73.9181L49.1562 73.9241Z" fill="white"/>
<path d="M44.7028 76.592C44.6186 76.592 44.5345 76.592 44.4503 76.586C43.2303 76.4961 42.1365 75.9447 41.3491 75.0397L35.6215 68.6929C35.291 68.3213 35.321 67.758 35.6877 67.4223C36.0603 67.0927 36.6252 67.1227 36.9618 67.4883L42.7014 73.8471C43.1882 74.4044 43.8493 74.7401 44.5705 74.794C45.6403 74.8659 46.5719 74.2486 47.3352 72.99C47.5936 72.5645 48.1465 72.4327 48.5732 72.6904C49 72.9481 49.1322 73.4995 48.8737 73.925C47.5455 76.1005 45.9168 76.598 44.6967 76.598L44.7028 76.592Z" fill="white"/>
<path d="M36.6554 48.022C36.5893 48.022 36.5172 48.0161 36.451 47.9981C31.4988 46.8474 25.3204 47.3568 25.2603 47.3628C24.7675 47.4047 24.3287 47.0392 24.2867 46.5417C24.2446 46.0443 24.6112 45.6128 25.104 45.5708C25.3685 45.5468 31.625 45.0254 36.8597 46.2421C37.3465 46.3559 37.6471 46.8354 37.5329 47.3208C37.4367 47.7344 37.0641 48.0161 36.6554 48.0161V48.022Z" fill="white"/>
<path d="M40.3035 78.0001C39.4801 78.0001 38.6628 77.6944 38.0317 77.0771L35.3512 74.506C30.2306 69.4897 24.6954 64.833 18.8776 60.6617C18.4749 60.374 18.3848 59.8107 18.6733 59.4091C18.9618 59.0076 19.5267 58.9177 19.9294 59.2053C25.8192 63.4365 31.4266 68.1472 36.6073 73.2235L39.2878 75.7946C39.8648 76.3579 40.7843 76.3459 41.3433 75.7766C41.5296 75.5908 41.6558 75.3571 41.7159 75.0994C41.7159 75.0694 41.7159 75.0394 41.7219 75.0035C41.782 74.512 42.2327 74.1644 42.7256 74.2183C43.1943 74.2783 43.5369 74.6858 43.5189 75.1473C43.5189 75.2132 43.5189 75.2791 43.5069 75.3451C43.3867 75.9804 43.0862 76.5677 42.6354 77.0292C41.9984 77.6764 41.1569 78.0001 40.3095 78.0001H40.3035Z" fill="white"/>
<path d="M24.7375 68.1049C24.0884 68.1049 23.4333 67.8891 22.8864 67.4396C22.8503 67.4096 22.8022 67.3737 22.7601 67.3317C21.6543 66.3249 21.5822 64.6108 22.5859 63.514L23.289 62.7349C23.6196 62.3633 24.1905 62.3334 24.5632 62.669C24.9358 63.0046 24.9598 63.568 24.6293 63.9396L23.9201 64.7247C23.5775 65.0963 23.6076 65.6656 23.9742 66.0012L24.0223 66.0372C24.4971 66.4267 25.1762 66.3728 25.5789 65.9173L26.276 65.1382C26.6066 64.7666 27.1775 64.7367 27.5502 65.0663C27.9228 65.3959 27.9528 65.9653 27.6223 66.3369L26.9311 67.11C26.3542 67.7632 25.5548 68.0989 24.7435 68.0989L24.7375 68.1049Z" fill="white"/>
<path d="M27.3819 72.1864C26.6486 72.1864 25.9154 71.9287 25.3144 71.4133C23.9982 70.2865 23.8479 68.3028 24.9718 66.9843C24.9718 66.9843 24.9778 66.9723 24.9838 66.9723L26.4323 65.3002C26.7568 64.9286 27.3278 64.8866 27.7064 65.2103C28.085 65.5339 28.1211 66.1033 27.7965 66.4808L26.3541 68.141C26.1077 68.4226 25.9935 68.7703 26.0236 69.1298C26.0536 69.4894 26.2159 69.8191 26.4924 70.0528C27.0513 70.5383 27.8867 70.4903 28.3855 69.9449L29.9361 68.2548C30.2727 67.8893 30.8436 67.8653 31.2103 68.2009C31.5769 68.5365 31.6009 69.1059 31.2644 69.4715L29.7138 71.1616C29.0887 71.8448 28.2353 72.1864 27.3879 72.1864H27.3819Z" fill="white"/>
<path d="M31.2463 74.5964C30.477 74.5964 29.7078 74.3207 29.1067 73.7633C27.8446 72.5947 27.7665 70.6109 28.9264 69.3463L29.9301 68.2556C30.2667 67.89 30.8376 67.866 31.2043 68.2016C31.5709 68.5373 31.5949 69.1066 31.2584 69.4722L30.2547 70.563C29.7618 71.1024 29.7919 71.9474 30.3328 72.4508C30.8677 72.9483 31.7211 72.9183 32.226 72.3909L33.2717 71.2822C33.6143 70.9226 34.1853 70.9046 34.5459 71.2402C34.9065 71.5818 34.9245 72.1512 34.5879 72.5108L33.5422 73.6195C32.9231 74.2668 32.0877 74.5964 31.2523 74.5964H31.2463Z" fill="white"/>
<path d="M34.9185 76.934C34.1613 76.934 33.404 76.6583 32.821 76.095C31.613 74.9503 31.5649 73.0384 32.7129 71.8278L33.1095 71.4083C33.4521 71.0487 34.023 71.0307 34.3837 71.3723C34.7443 71.7139 34.7623 72.2833 34.4197 72.6429L34.023 73.0624C33.5603 73.5538 33.5783 74.327 34.0651 74.7884C34.5519 75.2559 35.3332 75.2439 35.802 74.7585L36.3489 74.1951C36.6975 73.8355 37.2685 73.8295 37.6231 74.1771C37.9837 74.5247 37.9897 75.0941 37.6411 75.4477L37.0942 76.0111C36.4992 76.6224 35.7059 76.928 34.9125 76.928L34.9185 76.934Z" fill="white"/>
</g>
<defs>
<clipPath id="clip0_651_9630">
<rect width="80" height="76" fill="white" transform="translate(0 2)"/>
</clipPath>
</defs>
</svg>
