<svg width="120" height="120" viewBox="0 0 120 120" fill="none" xmlns="http://www.w3.org/2000/svg">
<g clip-path="url(#clip0_497_2221)">
<path d="M115.899 119.759C115.227 119.759 114.685 119.219 114.685 118.551V100.769L107.365 94.4395C106.863 94.0046 106.807 93.2396 107.244 92.7322C107.681 92.2329 108.45 92.1765 108.96 92.6114L116.701 99.3036C116.968 99.5291 117.122 99.8673 117.122 100.214V118.543C117.122 119.211 116.579 119.751 115.907 119.751L115.899 119.759Z" fill="white"/>
<path d="M78.6303 101.43C78.2902 101.43 77.9501 101.293 77.7153 101.011C77.2781 100.504 77.3267 99.7466 77.8368 99.3037L85.5771 92.6115C86.0872 92.1686 86.8483 92.225 87.2936 92.7323C87.7308 93.2397 87.6823 93.9967 87.1722 94.4396L79.4318 101.132C79.2051 101.333 78.9217 101.43 78.6384 101.43H78.6303Z" fill="white"/>
<path d="M4.10121 119.758C3.42919 119.758 2.88672 119.219 2.88672 118.55V100.221C2.88672 99.8749 3.04055 99.5367 3.30774 99.3112L11.0481 92.619C11.5501 92.1841 12.3193 92.2325 12.7646 92.7398C13.2018 93.2472 13.1532 94.0042 12.6431 94.4471L5.3238 100.777V118.558C5.3238 119.227 4.78133 119.766 4.10931 119.766L4.10121 119.758Z" fill="white"/>
<path d="M41.3618 101.43C41.0784 101.43 40.7951 101.333 40.5684 101.132L32.828 94.4395C32.3179 94.0046 32.2693 93.2396 32.7066 92.7322C33.1438 92.2329 33.9129 92.1765 34.423 92.6114L42.1634 99.3036C42.6735 99.7385 42.7221 100.504 42.2848 101.011C42.0419 101.285 41.71 101.43 41.3699 101.43H41.3618Z" fill="white"/>
<path d="M41.3617 101.429C41.0216 101.429 40.6816 101.293 40.4468 101.011C40.0096 100.503 40.0581 99.7463 40.5682 99.3034L48.3086 92.6112C48.8106 92.1763 49.5798 92.2247 50.0251 92.732C50.4623 93.2394 50.4137 93.9963 49.9036 94.4393L42.1633 101.131C41.9366 101.333 41.6532 101.429 41.3698 101.429H41.3617Z" fill="white"/>
<path d="M78.6301 119.759C77.9581 119.759 77.4156 119.219 77.4156 118.551V100.769L70.0963 94.4395C69.5943 94.0046 69.5376 93.2396 69.9748 92.7322C70.412 92.2329 71.1812 92.1765 71.6913 92.6114L79.4317 99.3036C79.6988 99.5291 79.8527 99.8673 79.8527 100.214V118.543C79.8527 119.211 79.3102 119.751 78.6382 119.751L78.6301 119.759Z" fill="white"/>
<path d="M41.3615 120C40.6894 120 40.147 119.461 40.147 118.792V100.222C40.147 99.5532 40.6894 99.0137 41.3615 99.0137C42.0335 99.0137 42.576 99.5532 42.576 100.222V118.792C42.576 119.461 42.0335 120 41.3615 120Z" fill="white"/>
<path d="M22.6182 94.2704C15.8818 94.2704 10.4004 87.8762 10.4004 80.0082C10.4004 72.1403 15.8818 65.7461 22.6182 65.7461C29.3546 65.7461 34.836 72.1403 34.836 80.0082C34.836 87.8762 29.3546 94.2704 22.6182 94.2704ZM22.6182 68.162C17.2177 68.162 12.8294 73.4771 12.8294 80.0082C12.8294 86.5393 17.2177 91.8544 22.6182 91.8544C28.0186 91.8544 32.407 86.5393 32.407 80.0082C32.407 73.4771 28.0186 68.162 22.6182 68.162Z" fill="white"/>
<path d="M60 94.2704C53.2636 94.2704 47.7822 87.8762 47.7822 80.0082C47.7822 72.1403 53.2636 65.7461 60 65.7461C66.7364 65.7461 72.2178 72.1403 72.2178 80.0082C72.2178 87.8762 66.7364 94.2704 60 94.2704ZM60 68.162C54.5996 68.162 50.2112 73.4771 50.2112 80.0082C50.2112 86.5393 54.5996 91.8544 60 91.8544C65.4005 91.8544 69.7888 86.5393 69.7888 80.0082C69.7888 73.4771 65.4005 68.162 60 68.162Z" fill="white"/>
<path d="M97.374 94.2704C90.6377 94.2704 85.1562 87.8762 85.1562 80.0082C85.1562 72.1403 90.6377 65.7461 97.374 65.7461C104.11 65.7461 109.592 72.1403 109.592 80.0082C109.592 87.8762 104.11 94.2704 97.374 94.2704ZM97.374 68.162C91.9736 68.162 87.5852 73.4771 87.5852 80.0082C87.5852 86.5393 91.9736 91.8544 97.374 91.8544C102.774 91.8544 107.163 86.5393 107.163 80.0082C107.163 73.4771 102.774 68.162 97.374 68.162Z" fill="white"/>
<path d="M60.0002 55.7595C48.422 55.7595 38.9976 46.0313 38.9976 34.0805C38.9976 22.1296 48.422 12.4014 60.0002 12.4014C71.5783 12.4014 81.0028 22.1296 81.0028 34.0805C81.0028 46.0313 71.5783 55.7595 60.0002 55.7595ZM60.0002 14.8173C49.758 14.8173 41.4265 23.4583 41.4265 34.0805C41.4265 44.7026 49.758 53.3436 60.0002 53.3436C70.2424 53.3436 78.5738 44.7026 78.5738 34.0805C78.5738 23.4583 70.2424 14.8173 60.0002 14.8173Z" fill="white"/>
<path d="M60.0001 18.4414C58.3403 18.4414 56.6966 18.7394 55.1421 19.3031C63.3521 22.5485 67.3599 31.7935 64.0969 39.9594C62.4695 44.0263 59.2309 47.2556 55.1421 48.8662C56.6966 49.4299 58.3403 49.7279 60.0001 49.7279C68.2343 49.7279 74.9302 42.7056 74.9302 34.0806C74.9302 25.4557 68.2343 18.4414 60.0001 18.4414Z" fill="#69F5DB"/>
<path d="M108.515 35.289H91.7711C91.0991 35.289 90.5566 34.7494 90.5566 34.081C90.5566 33.4126 91.0991 32.873 91.7711 32.873H108.515C109.187 32.873 109.729 33.4126 109.729 34.081C109.729 34.7494 109.187 35.289 108.515 35.289Z" fill="white"/>
<path d="M100.143 21.5341H88.8561C88.1841 21.5341 87.6416 20.9945 87.6416 20.3261C87.6416 19.6577 88.1841 19.1182 88.8561 19.1182H100.143C100.815 19.1182 101.357 19.6577 101.357 20.3261C101.357 20.9945 100.815 21.5341 100.143 21.5341Z" fill="white"/>
<path d="M99.908 48.9228H88.8966C88.2246 48.9228 87.6821 48.3832 87.6821 47.7148C87.6821 47.0464 88.2246 46.5068 88.8966 46.5068H99.908C100.58 46.5068 101.123 47.0464 101.123 47.7148C101.123 48.3832 100.58 48.9228 99.908 48.9228Z" fill="white"/>
<path d="M113.154 39.8954C109.932 39.8954 107.309 37.2861 107.309 34.081C107.309 30.8758 109.932 28.2666 113.154 28.2666C116.377 28.2666 119 30.8758 119 34.081C119 37.2861 116.377 39.8954 113.154 39.8954ZM113.154 30.6825C111.268 30.6825 109.738 32.2046 109.738 34.081C109.738 35.9574 111.268 37.4794 113.154 37.4794C115.041 37.4794 116.571 35.9574 116.571 34.081C116.571 32.2046 115.041 30.6825 113.154 30.6825Z" fill="white"/>
<path d="M104.774 26.1405C101.552 26.1405 98.9287 23.5312 98.9287 20.3261C98.9287 17.1209 101.552 14.5117 104.774 14.5117C107.997 14.5117 110.62 17.1209 110.62 20.3261C110.62 23.5312 107.997 26.1405 104.774 26.1405ZM104.774 16.9277C102.888 16.9277 101.358 18.4497 101.358 20.3261C101.358 22.2025 102.888 23.7245 104.774 23.7245C106.661 23.7245 108.191 22.2025 108.191 20.3261C108.191 18.4497 106.661 16.9277 104.774 16.9277Z" fill="white"/>
<path d="M104.547 53.5291C101.325 53.5291 98.7017 50.9199 98.7017 47.7148C98.7017 44.5096 101.325 41.9004 104.547 41.9004C107.77 41.9004 110.393 44.5096 110.393 47.7148C110.393 50.9199 107.77 53.5291 104.547 53.5291ZM104.547 44.3163C102.661 44.3163 101.131 45.8384 101.131 47.7148C101.131 49.5912 102.661 51.1132 104.547 51.1132C106.434 51.1132 107.964 49.5912 107.964 47.7148C107.964 45.8384 106.434 44.3163 104.547 44.3163Z" fill="white"/>
<path d="M28.2291 35.289H11.4772C10.8052 35.289 10.2627 34.7494 10.2627 34.081C10.2627 33.4126 10.8052 32.873 11.4772 32.873H28.2291C28.9011 32.873 29.4436 33.4126 29.4436 34.081C29.4436 34.7494 28.9011 35.289 28.2291 35.289Z" fill="white"/>
<path d="M31.1437 21.5341H19.8571C19.1851 21.5341 18.6426 20.9945 18.6426 20.3261C18.6426 19.6577 19.1851 19.1182 19.8571 19.1182H31.1437C31.8158 19.1182 32.3582 19.6577 32.3582 20.3261C32.3582 20.9945 31.8158 21.5341 31.1437 21.5341Z" fill="white"/>
<path d="M31.1031 48.9228H20.0836C19.4116 48.9228 18.8691 48.3832 18.8691 47.7148C18.8691 47.0464 19.4116 46.5068 20.0836 46.5068H31.1031C31.7751 46.5068 32.3176 47.0464 32.3176 47.7148C32.3176 48.3832 31.7751 48.9228 31.1031 48.9228Z" fill="white"/>
<path d="M6.84575 39.8954C3.6233 39.8954 1 37.2861 1 34.081C1 30.8758 3.6233 28.2666 6.84575 28.2666C10.0682 28.2666 12.6915 30.8758 12.6915 34.081C12.6915 37.2861 10.0682 39.8954 6.84575 39.8954ZM6.84575 30.6825C4.95924 30.6825 3.42898 32.2046 3.42898 34.081C3.42898 35.9574 4.95924 37.4794 6.84575 37.4794C8.73226 37.4794 10.2625 35.9574 10.2625 34.081C10.2625 32.2046 8.73226 30.6825 6.84575 30.6825Z" fill="white"/>
<path d="M15.2178 26.1405C11.9954 26.1405 9.37207 23.5312 9.37207 20.3261C9.37207 17.1209 11.9954 14.5117 15.2178 14.5117C18.4403 14.5117 21.0636 17.1209 21.0636 20.3261C21.0636 23.5312 18.4403 26.1405 15.2178 26.1405ZM15.2178 16.9277C13.3313 16.9277 11.8011 18.4497 11.8011 20.3261C11.8011 22.2025 13.3313 23.7245 15.2178 23.7245C17.1043 23.7245 18.6346 22.2025 18.6346 20.3261C18.6346 18.4497 17.1043 16.9277 15.2178 16.9277Z" fill="white"/>
<path d="M15.4527 53.5291C12.2302 53.5291 9.60693 50.9199 9.60693 47.7148C9.60693 44.5096 12.2302 41.9004 15.4527 41.9004C18.6751 41.9004 21.2984 44.5096 21.2984 47.7148C21.2984 50.9199 18.6751 53.5291 15.4527 53.5291ZM15.4527 44.3163C13.5662 44.3163 12.0359 45.8384 12.0359 47.7148C12.0359 49.5912 13.5662 51.1132 15.4527 51.1132C17.3392 51.1132 18.8695 49.5912 18.8695 47.7148C18.8695 45.8384 17.3392 44.3163 15.4527 44.3163Z" fill="white"/>
<path d="M69.2302 66.7522C68.7201 66.7522 68.2424 66.4301 68.0724 65.9147C67.8619 65.2785 68.2181 64.6021 68.8497 64.3927C77.343 61.6546 84.2413 55.4054 87.7876 47.2556C88.0548 46.6435 88.7673 46.3617 89.3827 46.6274C89.998 46.8932 90.2814 47.6019 90.0142 48.2139C86.2007 56.9999 78.7599 63.7404 69.6026 66.6878C69.4812 66.7281 69.3516 66.7442 69.2302 66.7442V66.7522Z" fill="white"/>
<path d="M50.3165 66.608C50.1869 66.608 50.0574 66.5839 49.9278 66.5436C40.9973 63.5156 33.7265 56.8315 29.9859 48.2227C29.7187 47.6106 30.0021 46.902 30.6174 46.6362C31.2328 46.3705 31.9453 46.6523 32.2124 47.2644C35.6859 55.2531 42.4304 61.454 50.7132 64.2565C51.3447 64.4739 51.6848 65.1585 51.4743 65.7866C51.3043 66.2859 50.8265 66.608 50.3246 66.608H50.3165Z" fill="white"/>
<path d="M28.2291 35.2888C27.5571 35.2888 27.0146 34.7492 27.0146 34.0808C27.0146 29.1442 28.0186 24.3526 30.0266 19.8348C30.2938 19.2227 31.0144 18.9489 31.6297 19.2147C32.2451 19.4804 32.5203 20.1972 32.2532 20.8092C30.3828 25.013 29.4436 29.4744 29.4517 34.0728C29.4517 34.7412 28.9093 35.2807 28.2372 35.2807L28.2291 35.2888Z" fill="white"/>
<path d="M84.8566 14.8178C84.4841 14.8178 84.1198 14.6487 83.885 14.3346C78.2659 6.9096 69.3354 2.44816 59.9919 2.41595C50.6565 2.45621 41.7259 6.9096 36.1069 14.3346C35.702 14.8661 34.941 14.9708 34.4066 14.5762C33.8722 14.1816 33.767 13.4165 34.1637 12.885C40.2442 4.85605 49.8954 0.0402658 59.9919 0C70.0964 0.0402658 79.7557 4.85605 85.8201 12.885C86.2249 13.4165 86.1115 14.1735 85.5772 14.5762C85.3586 14.7373 85.0995 14.8178 84.8485 14.8178H84.8566Z" fill="white"/>
<path d="M91.7709 35.2888C91.0989 35.2888 90.5565 34.7492 90.5565 34.0808C90.5565 29.4824 89.6172 25.021 87.755 20.8173C87.4878 20.2052 87.755 19.4965 88.3785 19.2227C88.9938 18.957 89.7063 19.2227 89.9816 19.8428C91.9896 24.3606 93.0016 29.1523 92.9935 34.0889C92.9935 34.7573 92.4511 35.2968 91.779 35.2968L91.7709 35.2888Z" fill="white"/>
</g>
<defs>
<clipPath id="clip0_497_2221">
<rect width="118" height="120" fill="white" transform="translate(1)"/>
</clipPath>
</defs>
</svg>
