<svg width="80" height="80" viewBox="0 0 80 80" fill="none" xmlns="http://www.w3.org/2000/svg">
<g clip-path="url(#clip0_651_9848)">
<path d="M47.3696 79.999H32.6541L31.8441 77.2434C30.5848 73.0838 27.7647 69.6205 23.904 67.4856L23.768 67.4102C19.9487 65.1999 15.4909 64.5501 11.1986 65.5769L8.36072 66.2673L1 53.7481L3.05745 51.6886C4.06253 50.6618 4.92572 49.5073 5.61745 48.2484C5.85394 47.8249 6.38604 47.6683 6.81763 47.9004C7.24922 48.1324 7.40885 48.6603 7.17236 49.078C6.40377 50.4703 5.44599 51.7524 4.32267 52.8953L3.20526 54.0207L9.22391 64.26L10.767 63.883C15.5145 62.7459 20.4394 63.4653 24.643 65.896L24.7672 65.9656C29.0299 68.321 32.1456 72.1498 33.5409 76.7503L33.9843 78.2586H46.0275L46.4709 76.7561C47.8603 72.1556 50.9701 68.3326 55.2329 65.983L55.3274 65.925C59.531 63.4769 64.4618 62.7459 69.2153 63.8714L70.7643 64.2484L76.7888 54.0207L75.6832 52.8953C74.3707 51.5552 73.2888 50.0294 72.4611 48.3645C72.2482 47.9294 72.4315 47.4131 72.869 47.1984C73.3124 46.9896 73.8386 47.1694 74.0574 47.5987C74.8023 49.107 75.7838 50.4819 76.9603 51.6886L78.9882 53.7539L71.6275 66.2441L68.7896 65.5537C64.4973 64.5385 60.0336 65.1999 56.232 67.4102L56.1197 67.474C52.2413 69.6146 49.427 73.0722 48.1677 77.2318L47.3578 79.9874L47.3696 79.999Z" fill="#69F5DB"/>
<path d="M73.2711 32.8993C73.141 32.8993 73.0109 32.8703 72.8809 32.8123C72.4433 32.6035 72.2601 32.0813 72.4729 31.6462C73.3006 29.9813 74.3826 28.4555 75.6951 27.1212L76.8007 25.9958L70.7761 15.7565L69.233 16.1335C64.4914 17.2532 59.5724 16.528 55.3747 14.0915L55.2565 14.0277C50.9938 11.6781 47.878 7.84348 46.4828 3.24305L46.0393 1.73471H33.9902L33.5409 3.24305C32.1574 7.84928 29.0476 11.6781 24.7908 14.0335L24.5425 14.1785H24.4775C20.3212 16.5222 15.4731 17.2126 10.8025 16.1161L9.24164 15.7391L3.20526 25.9958L4.31085 27.1212C5.36322 28.1945 6.26779 29.3953 7.01273 30.6948C7.25514 31.1125 7.10142 31.6462 6.67574 31.8783C6.25006 32.1161 5.70613 31.9653 5.46964 31.5476C4.80156 30.3816 3.97976 29.2967 3.03972 28.3279L1 26.2626L8.37255 13.7434L11.2163 14.4338C15.5086 15.4432 19.9723 14.7818 23.7798 12.5715L23.9867 12.4497H24.0518C27.8474 10.2974 30.5966 6.86886 31.8323 2.76734L32.6481 0.0117188H47.3578L48.1677 2.76734C49.427 6.92688 52.2472 10.3961 56.1079 12.5251L56.2438 12.6006C60.0513 14.8167 64.5032 15.4722 68.7896 14.457L71.6275 13.7666L78.9882 26.2742L76.9603 28.3395C75.7778 29.5462 74.8023 30.9153 74.0574 32.4236C73.9037 32.7311 73.5903 32.9109 73.2592 32.9109L73.2711 32.8993Z" fill="#69F5DB"/>
<path d="M40.0089 53.0878C32.926 53.0878 27.1675 47.2227 27.1675 40.0117C27.1675 32.8007 32.926 26.9355 40.0089 26.9355C47.0917 26.9355 52.8502 32.8007 52.8502 40.0117C52.8502 47.2227 47.0917 53.0878 40.0089 53.0878ZM40.0089 28.6759C33.9075 28.6759 28.9412 33.7637 28.9412 40.0117C28.9412 46.2597 33.9075 51.3474 40.0089 51.3474C46.1103 51.3474 51.0766 46.2597 51.0766 40.0117C51.0766 33.7637 46.1103 28.6759 40.0089 28.6759Z" fill="#69F5DB"/>
<path d="M40.0089 31.291C38.8678 31.291 37.7445 31.5289 36.7039 31.993C41.215 34.1569 43.0891 39.4999 40.8839 43.9263C39.997 45.7131 38.5249 47.1576 36.7039 48.0278C37.7386 48.4919 38.8678 48.7355 40.0089 48.7355C44.6441 48.7355 48.4161 44.8197 48.4161 40.0336C48.4161 35.2475 44.6736 31.291 40.0089 31.291Z" fill="#AE9AFF"/>
<path d="M69.3217 40.883H59.2059C58.7151 40.883 58.319 40.4943 58.319 40.0128C58.319 39.5313 58.7151 39.1426 59.2059 39.1426H69.3217C69.8124 39.1426 70.2085 39.5313 70.2085 40.0128C70.2085 40.4943 69.8124 40.883 69.3217 40.883Z" fill="#69F5DB"/>
<path d="M64.2608 32.6838H57.444C56.9533 32.6838 56.5572 32.2951 56.5572 31.8136C56.5572 31.332 56.9533 30.9434 57.444 30.9434H64.2608C64.7515 30.9434 65.1477 31.332 65.1477 31.8136C65.1477 32.2951 64.7515 32.6838 64.2608 32.6838Z" fill="#69F5DB"/>
<path d="M64.1248 49.0041H57.4677C56.977 49.0041 56.5808 48.6154 56.5808 48.1339C56.5808 47.6524 56.977 47.2637 57.4677 47.2637H64.1248C64.6156 47.2637 65.0117 47.6524 65.0117 48.1339C65.0117 48.6154 64.6156 49.0041 64.1248 49.0041Z" fill="#69F5DB"/>
<path d="M72.1241 43.6365C71.1427 43.6365 70.2203 43.2594 69.5227 42.5807C68.8251 41.8961 68.4408 40.9911 68.4349 40.0223C68.4349 38.0266 70.0844 36.3965 72.1182 36.3965C74.1579 36.3965 75.8133 38.015 75.8133 40.0107C75.8133 42.0063 74.1638 43.6365 72.13 43.6365H72.1241ZM72.1241 38.1369C71.0658 38.1369 70.2085 38.9839 70.2085 40.0223C70.2085 40.527 70.4095 40.9969 70.7702 41.3508C71.1308 41.7047 71.6097 41.8961 72.1241 41.8961C72.6384 41.8961 73.1173 41.6989 73.478 41.345C73.8386 40.9911 74.0396 40.5154 74.0337 40.0165C74.0337 38.9839 73.1705 38.1427 72.1182 38.1427L72.1241 38.1369Z" fill="#69F5DB"/>
<path d="M67.0632 35.4334C65.0294 35.4334 63.374 33.809 63.374 31.8134C63.374 29.8177 65.0294 28.1934 67.0632 28.1934C69.097 28.1934 70.7525 29.8177 70.7525 31.8134C70.7525 33.809 69.097 35.4334 67.0632 35.4334ZM67.0632 29.9338C66.0049 29.9338 65.1477 30.7749 65.1477 31.8134C65.1477 32.8518 66.0049 33.693 67.0632 33.693C68.1215 33.693 68.9788 32.8518 68.9788 31.8134C68.9788 30.7749 68.1215 29.9338 67.0632 29.9338Z" fill="#69F5DB"/>
<path d="M66.9213 51.7537C64.8875 51.7537 63.2321 50.1293 63.2321 48.1337C63.2321 46.138 64.8875 44.5137 66.9213 44.5137C68.9551 44.5137 70.6106 46.138 70.6106 48.1337C70.6106 50.1293 68.9551 51.7537 66.9213 51.7537ZM66.9213 46.2541C65.863 46.2541 65.0058 47.0953 65.0058 48.1337C65.0058 49.1721 65.863 50.0133 66.9213 50.0133C67.9796 50.0133 68.8369 49.1721 68.8369 48.1337C68.8369 47.0953 67.9796 46.2541 66.9213 46.2541Z" fill="#69F5DB"/>
<path d="M20.8119 40.883H10.6961C10.2053 40.883 9.80922 40.4943 9.80922 40.0128C9.80922 39.5313 10.2053 39.1426 10.6961 39.1426H20.8119C21.3026 39.1426 21.6987 39.5313 21.6987 40.0128C21.6987 40.4943 21.3026 40.883 20.8119 40.883Z" fill="#69F5DB"/>
<path d="M22.5737 32.6838H15.7569C15.2662 32.6838 14.8701 32.2951 14.8701 31.8136C14.8701 31.332 15.2662 30.9434 15.7569 30.9434H22.5737C23.0644 30.9434 23.4605 31.332 23.4605 31.8136C23.4605 32.2951 23.0644 32.6838 22.5737 32.6838Z" fill="#69F5DB"/>
<path d="M22.5501 49.0041H15.8929C15.4022 49.0041 15.0061 48.6154 15.0061 48.1339C15.0061 47.6524 15.4022 47.2637 15.8929 47.2637H22.5501C23.0408 47.2637 23.4369 47.6524 23.4369 48.1339C23.4369 48.6154 23.0408 49.0041 22.5501 49.0041Z" fill="#69F5DB"/>
<path d="M7.89366 43.6326C5.85985 43.6326 4.20443 42.0082 4.20443 40.0126C4.20443 38.0169 5.85985 36.3926 7.89366 36.3926C9.92746 36.3926 11.5829 38.0169 11.5829 40.0126C11.5829 42.0082 9.92746 43.6326 7.89366 43.6326ZM7.89366 38.133C6.83537 38.133 5.97809 38.9742 5.97809 40.0126C5.97809 41.051 6.83537 41.8922 7.89366 41.8922C8.95194 41.8922 9.80922 41.051 9.80922 40.0126C9.80922 38.9742 8.95194 38.133 7.89366 38.133Z" fill="#69F5DB"/>
<path d="M12.9545 35.4334C10.9207 35.4334 9.2653 33.809 9.2653 31.8134C9.2653 29.8177 10.9207 28.1934 12.9545 28.1934C14.9883 28.1934 16.6438 29.8177 16.6438 31.8134C16.6438 33.809 14.9883 35.4334 12.9545 35.4334ZM12.9545 29.9338C11.8962 29.9338 11.039 30.7749 11.039 31.8134C11.039 32.8518 11.8962 33.693 12.9545 33.693C14.0128 33.693 14.8701 32.8518 14.8701 31.8134C14.8701 30.7749 14.0128 29.9338 12.9545 29.9338Z" fill="#69F5DB"/>
<path d="M13.0964 51.7537C11.0626 51.7537 9.40719 50.1293 9.40719 48.1337C9.40719 46.138 11.0626 44.5137 13.0964 44.5137C15.1302 44.5137 16.7856 46.138 16.7856 48.1337C16.7856 50.1293 15.1302 51.7537 13.0964 51.7537ZM13.0964 46.2541C12.0381 46.2541 11.1809 47.0953 11.1809 48.1337C11.1809 49.1721 12.0381 50.0133 13.0964 50.0133C14.1547 50.0133 15.012 49.1721 15.012 48.1337C15.012 47.0953 14.1547 46.2541 13.0964 46.2541Z" fill="#69F5DB"/>
<path d="M40.0148 60.4788C32.0155 60.4034 24.844 55.6985 21.7283 48.4933C21.5391 48.0524 21.746 47.5419 22.1953 47.3505C22.6447 47.159 23.1649 47.3679 23.36 47.8088C26.2038 54.3816 32.7427 58.6688 40.0148 58.7384C47.275 58.6688 53.808 54.3816 56.6577 47.8088C56.8469 47.3679 57.3731 47.159 57.8224 47.3505C58.2717 47.5361 58.4846 48.0466 58.2895 48.4933C55.1678 55.6985 47.9963 60.4034 40.0148 60.4788Z" fill="#69F5DB"/>
<path d="M20.8001 40.9114C20.3093 40.9114 19.9132 40.5227 19.9132 40.0412C19.9132 37.0767 20.534 34.1993 21.7637 31.4901C21.9648 31.0492 22.485 30.8519 22.9344 31.0492C23.3837 31.2464 23.5847 31.7569 23.3837 32.1978C22.2545 34.6808 21.6869 37.3204 21.6869 40.0412C21.6869 40.5227 21.2908 40.9114 20.8001 40.9114Z" fill="#69F5DB"/>
<path d="M24.9918 28.6528C24.8085 28.6528 24.6193 28.5948 24.4597 28.4788C24.0695 28.1887 23.9926 27.6434 24.2883 27.2605C27.9893 22.4454 33.8661 19.5564 40.0089 19.5273C46.1635 19.5564 52.0403 22.4454 55.7354 27.2605C56.031 27.6434 55.9542 28.1887 55.5639 28.4788C55.1737 28.7688 54.618 28.6934 54.3224 28.3105C50.9524 23.9305 45.6018 21.2967 40.0089 21.2735C34.4218 21.2967 29.0713 23.9305 25.7013 28.3105C25.5298 28.5368 25.2638 28.6586 24.9918 28.6586V28.6528Z" fill="#69F5DB"/>
<path d="M59.2059 40.8816C58.7151 40.8816 58.319 40.4929 58.319 40.0114C58.319 37.2905 57.7455 34.651 56.6222 32.168C56.4212 31.7271 56.6222 31.2166 57.0716 31.0193C57.5209 30.8279 58.0412 31.0193 58.2422 31.4602C59.4719 34.1694 60.0927 37.0469 60.0927 40.0114C60.0927 40.4929 59.6966 40.8816 59.2059 40.8816Z" fill="#69F5DB"/>
</g>
<defs>
<clipPath id="clip0_651_9848">
<rect width="78" height="80" fill="white" transform="translate(1)"/>
</clipPath>
</defs>
</svg>
