<svg width="120" height="120" viewBox="0 0 120 120" fill="none" xmlns="http://www.w3.org/2000/svg">
<g clip-path="url(#clip0_497_2163)">
<path d="M60.0001 76.9861C59.7925 76.9861 59.5849 76.9306 59.4013 76.8275L22.0563 55.408C21.689 55.1939 21.4575 54.8053 21.4575 54.3771C21.4575 53.9489 21.689 53.5603 22.0563 53.3462L38.3818 43.9806C38.9565 43.6555 39.691 43.8458 40.0183 44.4168C40.3456 44.9877 40.154 45.7094 39.5792 46.0425L25.0499 54.3771L60.0001 74.4247L94.9502 54.3771L80.4289 46.0425C79.8541 45.7173 79.6625 44.9877 79.9898 44.4168C80.3171 43.8458 81.0516 43.6555 81.6264 43.9806L97.9439 53.3462C98.3111 53.5603 98.5426 53.9489 98.5426 54.3771C98.5426 54.8053 98.3111 55.1939 97.9439 55.408L60.5988 76.8275C60.4152 76.9306 60.2076 76.9861 60.0001 76.9861Z" fill="white"/>
<path d="M60.0001 120L21.4575 97.8908V76.8995C21.4575 76.2413 21.9924 75.71 22.655 75.71C23.3176 75.71 23.8525 76.2413 23.8525 76.8995V96.5109L60.0001 117.24L96.1477 96.5109V77.4546C96.1477 76.7964 96.6825 76.2651 97.3451 76.2651C98.0077 76.2651 98.5426 76.7964 98.5426 77.4546V97.8908L60.0001 120Z" fill="white"/>
<path d="M60.0002 105.432C59.3376 105.432 58.8027 104.901 58.8027 104.243V75.7891C58.8027 75.1309 59.3376 74.5996 60.0002 74.5996C60.6628 74.5996 61.1977 75.1309 61.1977 75.7891V104.243C61.1977 104.901 60.6628 105.432 60.0002 105.432Z" fill="white"/>
<path d="M74.4574 85.2738C74.2498 85.2738 74.0423 85.2183 73.8586 85.1152L59.4012 76.8282C58.8264 76.503 58.6348 75.7735 58.9621 75.2025C59.2974 74.6315 60.0239 74.4412 60.5987 74.7663L74.4574 82.7124L109.408 62.6727L96.7463 55.4087C96.1715 55.0835 95.9799 54.3539 96.3072 53.783C96.6345 53.212 97.369 53.0217 97.9437 53.3468L112.401 61.6418C112.768 61.8559 113 62.2445 113 62.6727C113 63.101 112.768 63.4896 112.401 63.7037L75.0561 85.1152C74.8725 85.2183 74.6649 85.2738 74.4574 85.2738Z" fill="white"/>
<path d="M45.5346 85.2735C45.327 85.2735 45.1194 85.218 44.9358 85.1149L7.59873 63.7033C7.23151 63.4892 7 63.1006 7 62.6724C7 62.2441 7.23151 61.8555 7.59873 61.6414L22.0562 53.3464C22.631 53.0134 23.3654 53.2116 23.6927 53.7826C24.02 54.3536 23.8284 55.0752 23.2537 55.4083L10.5924 62.6724L45.5346 82.712L59.4013 74.7659C59.976 74.4408 60.7105 74.6311 61.0378 75.2021C61.3651 75.7731 61.1735 76.5027 60.5987 76.8278L46.1333 85.1149C45.9497 85.218 45.7421 85.2735 45.5346 85.2735Z" fill="white"/>
<path d="M60.0001 42.2287C51.1788 42.2287 44.002 34.8298 44.002 25.7418C44.002 16.6538 51.1788 9.25488 60.0001 9.25488C68.8215 9.25488 75.9983 16.6538 75.9983 25.7418C75.9983 34.8298 68.8215 42.2287 60.0001 42.2287ZM60.0001 11.6339C52.496 11.6339 46.3969 17.9623 46.3969 25.7418C46.3969 33.5213 52.496 39.8496 60.0001 39.8496C67.5043 39.8496 73.6034 33.5213 73.6034 25.7418C73.6034 17.9623 67.5043 11.6339 60.0001 11.6339Z" fill="white"/>
<path d="M60.0002 15.21C58.9304 15.21 57.8687 15.3924 56.8628 15.7492C62.4191 17.8983 65.1732 24.1156 63.0178 29.635C61.9241 32.4423 59.6888 34.6548 56.8628 35.7492C57.8687 36.0981 58.9304 36.2805 60.0002 36.2885C65.5245 36.2885 70.011 31.5303 70.011 25.7492C70.011 19.9681 65.5245 15.21 60.0002 15.21Z" fill="#69F5DB"/>
<path d="M96.2993 26.9308H83.7658C83.1032 26.9308 82.5684 26.3995 82.5684 25.7413C82.5684 25.0831 83.1032 24.5518 83.7658 24.5518H96.2993C96.9619 24.5518 97.4968 25.0831 97.4968 25.7413C97.4968 26.3995 96.9619 26.9308 96.2993 26.9308Z" fill="white"/>
<path d="M90.0323 16.6535H81.5861C80.9235 16.6535 80.3887 16.1222 80.3887 15.4639C80.3887 14.8057 80.9235 14.2744 81.5861 14.2744H90.0323C90.6949 14.2744 91.2298 14.8057 91.2298 15.4639C91.2298 16.1222 90.6949 16.6535 90.0323 16.6535Z" fill="white"/>
<path d="M89.857 37.1213H81.6184C80.9558 37.1213 80.4209 36.5899 80.4209 35.9317C80.4209 35.2735 80.9558 34.7422 81.6184 34.7422H89.857C90.5196 34.7422 91.0544 35.2735 91.0544 35.9317C91.0544 36.5899 90.5196 37.1213 89.857 37.1213Z" fill="white"/>
<path d="M99.7642 30.3807C97.1936 30.3807 95.1021 28.3029 95.1021 25.7494C95.1021 23.1959 97.1936 21.1182 99.7642 21.1182C102.335 21.1182 104.426 23.1959 104.426 25.7494C104.426 28.3029 102.335 30.3807 99.7642 30.3807ZM99.7642 23.4972C98.5108 23.4972 97.497 24.5044 97.497 25.7494C97.497 26.9945 98.5108 28.0016 99.7642 28.0016C101.018 28.0016 102.031 26.9945 102.031 25.7494C102.031 24.5044 101.018 23.4972 99.7642 23.4972Z" fill="white"/>
<path d="M93.4973 20.1192C90.9267 20.1192 88.8351 18.0415 88.8271 15.4879C88.8271 12.9265 90.9107 10.8408 93.4893 10.8408H93.4973C94.7426 10.8408 95.9162 11.3166 96.7943 12.189C97.6804 13.0613 98.1674 14.227 98.1674 15.4641C98.1674 18.0335 96.0838 20.1192 93.5053 20.1192H93.4973ZM93.5053 13.2199C92.2439 13.2199 91.2221 14.2429 91.2301 15.4879C91.2301 16.733 92.2519 17.7401 93.5053 17.7401C94.7586 17.7401 95.7805 16.7171 95.7725 15.4721C95.7725 14.8614 95.533 14.2984 95.1019 13.8702C94.6708 13.4499 94.104 13.212 93.5053 13.212V13.2199Z" fill="white"/>
<path d="M93.3215 40.579C92.0761 40.579 90.9106 40.1032 90.0245 39.2309C89.1383 38.3586 88.6514 37.1928 88.6514 35.9557C88.6514 33.3942 90.735 31.3086 93.3135 31.3086C95.9001 31.3086 97.9916 33.3863 97.9916 35.9398C97.9916 37.177 97.5126 38.3427 96.6345 39.2229C95.7564 40.1032 94.5828 40.5869 93.3375 40.5869H93.3295L93.3215 40.579ZM93.3295 33.6797C92.0602 33.6797 91.0463 34.7027 91.0463 35.9478C91.0463 36.5505 91.2858 37.1214 91.7169 37.5417C92.148 37.97 92.7148 38.1999 93.3215 38.1999C93.9282 38.1999 94.503 37.962 94.9261 37.5338C95.3492 37.1056 95.5887 36.5346 95.5887 35.9319C95.5887 34.6869 94.5748 33.6797 93.3215 33.6797H93.3295Z" fill="white"/>
<path d="M36.2344 26.9308H23.7009C23.0383 26.9308 22.5034 26.3995 22.5034 25.7413C22.5034 25.0831 23.0383 24.5518 23.7009 24.5518H36.2344C36.897 24.5518 37.4319 25.0831 37.4319 25.7413C37.4319 26.3995 36.897 26.9308 36.2344 26.9308Z" fill="white"/>
<path d="M38.4136 16.6535H29.9675C29.3049 16.6535 28.77 16.1222 28.77 15.4639C28.77 14.8057 29.3049 14.2744 29.9675 14.2744H38.4136C39.0762 14.2744 39.6111 14.8057 39.6111 15.4639C39.6111 16.1222 39.0762 16.6535 38.4136 16.6535Z" fill="white"/>
<path d="M38.3819 37.1213H30.1433C29.4807 37.1213 28.9458 36.5899 28.9458 35.9317C28.9458 35.2735 29.4807 34.7422 30.1433 34.7422H38.3819C39.0445 34.7422 39.5793 35.2735 39.5793 35.9317C39.5793 36.5899 39.0445 37.1213 38.3819 37.1213Z" fill="white"/>
<path d="M20.2359 30.3807C17.6653 30.3807 15.5737 28.3029 15.5737 25.7494C15.5737 23.1959 17.6653 21.1182 20.2359 21.1182C22.8064 21.1182 24.898 23.1959 24.898 25.7494C24.898 26.9865 24.4111 28.1523 23.5329 29.0246C22.6548 29.8969 21.4812 30.3807 20.2359 30.3807ZM20.2359 23.4972C18.9825 23.4972 17.9687 24.5044 17.9687 25.7494C17.9687 26.9945 18.9825 28.0016 20.2359 28.0016C20.8426 28.0016 21.4094 27.7637 21.8405 27.3434C22.2716 26.9231 22.5031 26.3521 22.5031 25.7494C22.5031 24.5044 21.4892 23.4972 20.2359 23.4972Z" fill="white"/>
<path d="M26.503 20.1033C23.9324 20.1033 21.8408 18.0256 21.8408 15.4721C21.8408 12.9185 23.9324 10.8408 26.503 10.8408C29.0735 10.8408 31.1651 12.9185 31.1651 15.4721C31.1651 18.0256 29.0735 20.1033 26.503 20.1033ZM26.503 13.2199C25.2496 13.2199 24.2358 14.227 24.2358 15.4721C24.2358 16.7171 25.2496 17.7242 26.503 17.7242C27.7563 17.7242 28.7702 16.7171 28.7702 15.4721C28.7702 14.227 27.7563 13.2199 26.503 13.2199Z" fill="white"/>
<path d="M26.6784 40.5791H26.6704C25.425 40.5791 24.2515 40.0875 23.3733 39.2151C22.4952 38.3349 22.0082 37.1691 22.0162 35.932C22.0162 33.3706 24.1158 31.3008 26.6784 31.3008H26.6863C27.9397 31.3008 29.1132 31.7925 29.9914 32.6648C30.8695 33.545 31.3565 34.7108 31.3485 35.9479C31.3485 37.185 30.8535 38.3507 29.9754 39.2231C29.0972 40.0954 27.9237 40.5712 26.6784 40.5712V40.5791ZM26.6784 33.6798C26.0637 33.6798 25.4969 33.9098 25.0737 34.3381C24.6427 34.7663 24.4111 35.3293 24.4032 35.932C24.4032 36.5427 24.6347 37.1136 25.0658 37.5419C25.4969 37.9701 26.0637 38.208 26.6704 38.208C27.9237 38.208 28.9456 37.2009 28.9456 35.9558C28.9456 35.3531 28.7141 34.7821 28.283 34.3539C27.8519 33.9257 27.2851 33.6878 26.6784 33.6878V33.6798Z" fill="white"/>
<path d="M60.0078 51.4987C50.0608 51.4035 41.1516 45.4796 37.2718 36.4154C37.0163 35.8127 37.2957 35.1148 37.9025 34.8531C38.5092 34.5994 39.2117 34.8769 39.4751 35.4796C42.9797 43.6795 51.0427 49.0324 60.0078 49.1196C68.9568 49.0324 77.0118 43.6795 80.5244 35.4796C80.7799 34.8769 81.4824 34.5914 82.0971 34.8531C82.7038 35.1069 82.9912 35.8048 82.7277 36.4154C78.8479 45.4876 69.9308 51.4114 60.0078 51.4987Z" fill="white"/>
<path d="M36.2343 26.9703C35.5717 26.9703 35.0369 26.4389 35.0369 25.7887C35.0209 22.0456 35.7873 18.4136 37.3121 14.9956C37.5755 14.3929 38.286 14.1233 38.8927 14.385C39.4994 14.6467 39.7709 15.3525 39.5074 15.9552C38.1184 19.0718 37.4238 22.3707 37.4398 25.7807C37.4398 26.4389 36.9049 26.9703 36.2503 26.9782L36.2343 26.9703Z" fill="white"/>
<path d="M78.5607 11.6416C78.1935 11.6416 77.8422 11.475 77.6028 11.1657C73.4515 5.68596 66.8575 2.40285 59.96 2.37906C53.0706 2.40285 46.4765 5.69389 42.3253 11.1657C41.9261 11.6891 41.1757 11.7922 40.6488 11.4036C40.122 11.0071 40.0182 10.2617 40.4094 9.7383C45.0156 3.67169 52.3202 0.0317209 59.96 0C67.6159 0.0317209 74.9204 3.67169 79.5107 9.7383C79.9099 10.2617 79.8061 11.0071 79.2712 11.4036C79.0557 11.5623 78.8002 11.6416 78.5527 11.6416H78.5607Z" fill="white"/>
<path d="M83.7656 26.9393C83.103 26.9393 82.5681 26.4001 82.5761 25.7419C82.5921 22.3398 81.8895 19.0329 80.5085 15.9163C80.245 15.3137 80.5085 14.6158 81.1232 14.3462C81.7299 14.0845 82.4324 14.3462 82.7038 14.9568C84.2286 18.3747 84.995 22.0068 84.979 25.7498C84.979 26.408 84.4441 26.9314 83.7815 26.9314L83.7656 26.9393Z" fill="white"/>
</g>
<defs>
<clipPath id="clip0_497_2163">
<rect width="106" height="120" fill="white" transform="translate(7)"/>
</clipPath>
</defs>
</svg>
