<svg width="80" height="80" viewBox="0 0 80 80" fill="none" xmlns="http://www.w3.org/2000/svg">
<g clip-path="url(#clip0_651_7448)">
<path d="M40.0025 42.1656C39.8756 42.1656 39.7488 42.1309 39.6366 42.0665L26.9821 34.649C26.7577 34.5152 26.6163 34.2724 26.6163 34.0048C26.6163 33.7373 26.7577 33.4945 26.9821 33.3607L39.6366 25.9382C39.861 25.8044 40.1439 25.8044 40.3683 25.9382L53.0179 33.3607C53.2423 33.4945 53.3838 33.7373 53.3838 34.0048C53.3838 34.2724 53.2423 34.5152 53.0179 34.649L40.3683 42.0665C40.2561 42.1309 40.1293 42.1656 40.0025 42.1656ZM28.8115 34.0048L40.0025 40.5651L51.1885 34.0048L40.0025 27.4396L28.8115 34.0048Z" fill="#69F5DB"/>
<path d="M33.202 34.0043L40.0024 30.0156L46.798 34.0043L40.0024 37.9881L33.202 34.0043Z" fill="#AE9AFF"/>
<path d="M40.0025 57.1187L26.6163 49.2652V33.9991C26.6163 33.5878 26.9431 33.2559 27.348 33.2559C27.7529 33.2559 28.0798 33.5878 28.0798 33.9991V48.403L40.0025 55.3944L51.9203 48.403V33.9991C51.9203 33.5878 52.2471 33.2559 52.652 33.2559C53.0569 33.2559 53.3838 33.5878 53.3838 33.9991V49.2652L40.0025 57.1187Z" fill="#69F5DB"/>
<path d="M40.0024 52.0215C39.5975 52.0215 39.2707 51.6895 39.2707 51.2782V41.4229C39.2707 41.0117 39.5975 40.6797 40.0024 40.6797C40.4073 40.6797 40.7342 41.0117 40.7342 41.4229V51.2782C40.7342 51.6895 40.4073 52.0215 40.0024 52.0215Z" fill="#69F5DB"/>
<path d="M72.9703 48.2951H59.8963C59.4914 48.2951 59.1646 47.9631 59.1646 47.5518C59.1646 47.1406 59.4914 46.8086 59.8963 46.8086H72.9703C73.3752 46.8086 73.7021 47.1406 73.7021 47.5518C73.7021 47.9631 73.3752 48.2951 72.9703 48.2951Z" fill="#69F5DB"/>
<path d="M67.2821 38.7521H61.5891C61.1842 38.7521 60.8574 38.4201 60.8574 38.0089C60.8574 37.5976 61.1842 37.2656 61.5891 37.2656H67.2821C67.687 37.2656 68.0139 37.5976 68.0139 38.0089C68.0139 38.4201 67.687 38.7521 67.2821 38.7521Z" fill="#69F5DB"/>
<path d="M67.1212 57.758H56.9303C56.5254 57.758 56.1985 57.426 56.1985 57.0147C56.1985 56.6035 56.5254 56.2715 56.9303 56.2715H67.1212C67.5261 56.2715 67.8529 56.6035 67.8529 57.0147C67.8529 57.426 67.5261 57.758 67.1212 57.758Z" fill="#69F5DB"/>
<path d="M76.1168 51.5015C73.9752 51.5015 72.2337 49.7326 72.2337 47.5574C72.2337 45.3822 73.9752 43.6133 76.1168 43.6133C78.2584 43.6133 80 45.3822 80 47.5524C80 49.7326 78.2584 51.5015 76.1168 51.5015ZM76.1168 45.0998C74.7753 45.0998 73.6923 46.2047 73.6923 47.5574C73.6923 48.9101 74.7753 50.015 76.112 50.015C77.4486 50.015 78.5316 48.9101 78.5316 47.5574C78.5316 46.1997 77.4486 45.0998 76.1168 45.0998Z" fill="#69F5DB"/>
<path d="M70.4287 41.9467C68.292 41.9467 66.5504 40.1778 66.5504 38.0075C66.5504 35.8373 68.292 34.0684 70.4287 34.0684C72.5654 34.0684 74.307 35.8373 74.307 38.0075C74.307 40.1778 72.5654 41.9467 70.4287 41.9467ZM70.4287 35.5548C69.0969 35.5548 68.0139 36.6548 68.0139 38.0075C68.0139 39.3602 69.0969 40.4602 70.4287 40.4602C71.7605 40.4602 72.8435 39.3602 72.8435 38.0075C72.8435 36.6548 71.7605 35.5548 70.4287 35.5548Z" fill="#69F5DB"/>
<path d="M70.2677 60.9653C69.2335 60.9653 68.2578 60.559 67.5261 59.8158C66.7894 59.0725 66.3845 58.0815 66.3845 57.0311C66.3845 54.8559 68.1212 53.082 70.2628 53.082C72.4093 53.082 74.1508 54.8509 74.1508 57.0212C74.1508 58.0766 73.7508 59.0676 73.0191 59.8108C72.2873 60.559 71.3117 60.9702 70.2726 60.9702H70.2677V60.9653ZM70.2677 54.5636C68.9261 54.5636 67.8431 55.6685 67.8431 57.0261C67.8431 57.6851 68.0968 58.2995 68.5554 58.7604C69.0139 59.2212 69.6189 59.4788 70.2628 59.4788C70.9116 59.4788 71.5165 59.2212 71.9751 58.7554C72.4337 58.2896 72.6825 57.6752 72.6825 57.0162C72.6825 55.6635 71.5946 54.5636 70.2677 54.5636Z" fill="#69F5DB"/>
<path d="M20.1037 48.2951H7.0297C6.62479 48.2951 6.29794 47.9631 6.29794 47.5518C6.29794 47.1406 6.62479 46.8086 7.0297 46.8086H20.1037C20.5086 46.8086 20.8354 47.1406 20.8354 47.5518C20.8354 47.9631 20.5086 48.2951 20.1037 48.2951Z" fill="#69F5DB"/>
<path d="M18.6743 38.7521H12.7227C12.3178 38.7521 11.991 38.4201 11.991 38.0089C11.991 37.5976 12.3178 37.2656 12.7227 37.2656H18.6743C19.0792 37.2656 19.4061 37.5976 19.4061 38.0089C19.4061 38.4201 19.0792 38.7521 18.6743 38.7521Z" fill="#69F5DB"/>
<path d="M23.06 57.758H12.8788C12.4739 57.758 12.1471 57.426 12.1471 57.0147C12.1471 56.6035 12.4739 56.2715 12.8788 56.2715H23.06C23.4649 56.2715 23.7917 56.6035 23.7917 57.0147C23.7917 57.426 23.4649 57.758 23.06 57.758Z" fill="#69F5DB"/>
<path d="M3.88316 51.5015C1.74157 51.5015 0 49.7326 0 47.5574C0 45.3822 1.74157 43.6133 3.88316 43.6133C6.02476 43.6133 7.76633 45.3822 7.76633 47.5574C7.76633 49.7326 6.02476 51.5015 3.88316 51.5015ZM3.88316 45.0998C2.55137 45.0998 1.4635 46.2047 1.4635 47.5574C1.4635 48.9101 2.55137 50.015 3.88316 50.015C5.21495 50.015 6.30282 48.9101 6.30282 47.5574C6.30282 46.2047 5.21495 45.0998 3.88316 45.0998Z" fill="#69F5DB"/>
<path d="M9.57619 41.9566H9.57131C7.42972 41.9566 5.69302 40.1827 5.69302 38.0075C5.69302 35.8373 7.43459 34.0733 9.57131 34.0684C11.7227 34.0684 13.4642 35.8422 13.4594 38.0174C13.4594 40.1877 11.7129 41.9566 9.57619 41.9566ZM7.15653 38.0075C7.15653 39.3602 8.23952 40.4651 9.57131 40.4701C10.9031 40.4701 11.991 39.3701 11.991 38.0174C11.991 36.6647 10.908 35.5598 9.57619 35.5548C8.23952 35.5548 7.15653 36.6598 7.15165 38.0075H7.15653Z" fill="#69F5DB"/>
<path d="M9.7323 60.9644H9.72742C8.68834 60.9644 7.71755 60.5531 6.98579 59.8049C6.25404 59.0567 5.84914 58.0658 5.85402 57.0153C5.85402 54.8451 7.60046 53.0762 9.73718 53.0762C11.8837 53.0762 13.6252 54.85 13.6203 57.0252C13.6203 58.0806 13.2154 59.0667 12.4788 59.8148C11.7471 60.5581 10.7714 60.9644 9.73718 60.9644H9.7323ZM9.7323 54.5626C8.39564 54.5626 7.31264 55.6626 7.30776 57.0153C7.30776 57.6743 7.55656 58.2887 8.01512 58.7545C8.47369 59.2203 9.0786 59.4779 9.72255 59.4779C10.3665 59.4779 10.9763 59.2252 11.43 58.7594C11.8885 58.2937 12.1422 57.6793 12.1422 57.0252C12.1422 55.6725 11.0592 54.5676 9.72742 54.5626H9.7323Z" fill="#69F5DB"/>
<path d="M51.0566 14.5315C50.9395 14.5315 50.8225 14.5017 50.7151 14.4472L40.0023 8.68467L29.2846 14.4472C28.9284 14.6405 28.4845 14.5017 28.2943 14.14C28.104 13.7783 28.2406 13.3274 28.5967 13.1342L40.0023 7L51.3981 13.1292C51.7542 13.3225 51.8908 13.7734 51.7006 14.1351C51.5688 14.3878 51.3152 14.5315 51.0517 14.5315H51.0566Z" fill="#69F5DB"/>
<path d="M19.1865 43.1369C18.8255 43.1369 18.5133 42.8693 18.4646 42.4977C17.806 37.6716 17.484 32.7514 17.5133 27.8807V27.4348L40.0073 15.3398L62.5014 27.4348V27.8807C62.5258 32.687 62.2184 37.5428 61.5794 42.3045C61.5257 42.7108 61.1598 42.9981 60.7549 42.9387C60.3549 42.8842 60.072 42.5076 60.1305 42.1013C60.7403 37.5527 61.0476 32.9248 61.0428 28.3316L40.0122 17.0196L18.9817 28.3316C18.9817 32.9892 19.2939 37.6815 19.9232 42.2945C19.9768 42.7009 19.6988 43.0774 19.2987 43.1319C19.2646 43.1319 19.2305 43.1369 19.1963 43.1369H19.1865Z" fill="#69F5DB"/>
<path d="M40.0317 73.0003C39.3634 72.9805 24.7283 72.2372 19.4012 47.7154C19.3134 47.314 19.5622 46.9176 19.9573 46.8285C20.3524 46.7393 20.7427 46.992 20.8305 47.3933C25.8406 70.4485 39.1487 71.4692 40.0122 71.5088C40.8708 71.4692 54.1887 70.4485 59.189 47.3933C59.2768 46.992 59.667 46.7393 60.0622 46.8285C60.4573 46.9176 60.7061 47.314 60.6183 47.7154C55.296 72.2323 40.6512 72.9805 40.0317 73.0003Z" fill="#69F5DB"/>
</g>
<defs>
<clipPath id="clip0_651_7448">
<rect width="80" height="66.0003" fill="white" transform="translate(0 7)"/>
</clipPath>
</defs>
</svg>
