<svg width="120" height="120" viewBox="0 0 120 120" fill="none" xmlns="http://www.w3.org/2000/svg">
<g clip-path="url(#clip0_497_2747)">
<path d="M60.0036 66.1889C59.8133 66.1889 59.6231 66.1374 59.4548 66.0417L40.4731 55.0214C40.1365 54.8226 39.9243 54.4619 39.9243 54.0644C39.9243 53.6669 40.1365 53.3061 40.4731 53.1074L59.4548 42.0797C59.7914 41.881 60.2158 41.881 60.5524 42.0797L79.5267 53.1074C79.8633 53.3061 80.0755 53.6669 80.0755 54.0644C80.0755 54.4619 79.8633 54.8226 79.5267 55.0214L60.5524 66.0417C60.3841 66.1374 60.1938 66.1889 60.0036 66.1889ZM43.2172 54.0644L60.0036 63.8111L76.7827 54.0644L60.0036 44.3103L43.2172 54.0644Z" fill="white"/>
<path d="M49.8032 54.0647L60.0038 48.1387L70.1972 54.0647L60.0038 59.9835L49.8032 54.0647Z" fill="#69F5DB"/>
<path d="M60.0036 88.4065L39.9243 76.7384V54.0574C39.9243 53.4464 40.4146 52.9531 41.0219 52.9531C41.6293 52.9531 42.1196 53.4464 42.1196 54.0574V75.4575L60.0036 85.8447L77.8803 75.4575V54.0574C77.8803 53.4464 78.3706 52.9531 78.9779 52.9531C79.5853 52.9531 80.0755 53.4464 80.0755 54.0574V76.7384L60.0036 88.4065Z" fill="white"/>
<path d="M60.0039 80.8311C59.3965 80.8311 58.9062 80.3379 58.9062 79.7269V65.0847C58.9062 64.4737 59.3965 63.9805 60.0039 63.9805C60.6112 63.9805 61.1015 64.4737 61.1015 65.0847V79.7269C61.1015 80.3379 60.6112 80.8311 60.0039 80.8311Z" fill="white"/>
<path d="M109.456 75.2954H89.8447C89.2373 75.2954 88.7471 74.8022 88.7471 74.1912C88.7471 73.5801 89.2373 73.0869 89.8447 73.0869H109.456C110.063 73.0869 110.553 73.5801 110.553 74.1912C110.553 74.8022 110.063 75.2954 109.456 75.2954Z" fill="white"/>
<path d="M100.923 61.1167H92.3838C91.7764 61.1167 91.2861 60.6235 91.2861 60.0124C91.2861 59.4014 91.7764 58.9082 92.3838 58.9082H100.923C101.531 58.9082 102.021 59.4014 102.021 60.0124C102.021 60.6235 101.531 61.1167 100.923 61.1167Z" fill="white"/>
<path d="M100.682 89.3559H85.3955C84.7881 89.3559 84.2979 88.8627 84.2979 88.2517C84.2979 87.6407 84.7881 87.1475 85.3955 87.1475H100.682C101.289 87.1475 101.779 87.6407 101.779 88.2517C101.779 88.8627 101.289 89.3559 100.682 89.3559Z" fill="white"/>
<path d="M114.175 80.0585C110.963 80.0585 108.351 77.4304 108.351 74.1987C108.351 70.967 110.963 68.3389 114.175 68.3389C117.388 68.3389 120 70.967 120 74.1913C120 77.4304 117.388 80.0585 114.175 80.0585ZM114.175 70.5473C112.163 70.5473 110.539 72.189 110.539 74.1987C110.539 76.2084 112.163 77.85 114.168 77.85C116.173 77.85 117.797 76.2084 117.797 74.1987C117.797 72.1816 116.173 70.5473 114.175 70.5473Z" fill="white"/>
<path d="M105.643 65.8651C102.438 65.8651 99.8257 63.237 99.8257 60.0126C99.8257 56.7882 102.438 54.1602 105.643 54.1602C108.848 54.1602 111.461 56.7882 111.461 60.0126C111.461 63.237 108.848 65.8651 105.643 65.8651ZM105.643 56.3686C103.645 56.3686 102.021 58.0029 102.021 60.0126C102.021 62.0223 103.645 63.6566 105.643 63.6566C107.641 63.6566 109.265 62.0223 109.265 60.0126C109.265 58.0029 107.641 56.3686 105.643 56.3686Z" fill="white"/>
<path d="M105.401 94.1185C103.85 94.1185 102.387 93.5149 101.289 92.4106C100.184 91.3064 99.5767 89.8341 99.5767 88.2734C99.5767 85.0417 102.182 82.4062 105.394 82.4062C108.614 82.4062 111.226 85.0343 111.226 88.2587C111.226 89.8267 110.626 91.299 109.528 92.4033C108.431 93.5149 106.967 94.1259 105.409 94.1259H105.401V94.1185ZM105.401 84.6074C103.389 84.6074 101.765 86.249 101.765 88.2661C101.765 89.2452 102.145 90.158 102.833 90.8426C103.521 91.5272 104.428 91.9101 105.394 91.9101C106.367 91.9101 107.275 91.5272 107.963 90.8353C108.65 90.1433 109.024 89.2304 109.024 88.2513C109.024 86.2416 107.392 84.6074 105.401 84.6074Z" fill="white"/>
<path d="M30.1554 75.2954H10.5444C9.93705 75.2954 9.44678 74.8022 9.44678 74.1912C9.44678 73.5801 9.93705 73.0869 10.5444 73.0869H30.1554C30.7627 73.0869 31.253 73.5801 31.253 74.1912C31.253 74.8022 30.7627 75.2954 30.1554 75.2954Z" fill="white"/>
<path d="M28.0113 61.1167H19.084C18.4766 61.1167 17.9863 60.6235 17.9863 60.0124C17.9863 59.4014 18.4766 58.9082 19.084 58.9082H28.0113C28.6187 58.9082 29.109 59.4014 29.109 60.0124C29.109 60.6235 28.6187 61.1167 28.0113 61.1167Z" fill="white"/>
<path d="M34.59 89.3559H19.3183C18.711 89.3559 18.2207 88.8627 18.2207 88.2517C18.2207 87.6407 18.711 87.1475 19.3183 87.1475H34.59C35.1973 87.1475 35.6876 87.6407 35.6876 88.2517C35.6876 88.8627 35.1973 89.3559 34.59 89.3559Z" fill="white"/>
<path d="M5.82475 80.0585C2.61235 80.0585 0 77.4304 0 74.1987C0 70.967 2.61235 68.3389 5.82475 68.3389C9.03714 68.3389 11.6495 70.967 11.6495 74.1987C11.6495 77.4304 9.03714 80.0585 5.82475 80.0585ZM5.82475 70.5473C3.82706 70.5473 2.19526 72.189 2.19526 74.1987C2.19526 76.2084 3.82706 77.85 5.82475 77.85C7.82243 77.85 9.45424 76.2084 9.45424 74.1987C9.45424 72.189 7.82243 70.5473 5.82475 70.5473Z" fill="white"/>
<path d="M14.3643 65.8798H14.357C11.1446 65.8798 8.53955 63.2443 8.53955 60.0126C8.53955 56.7882 11.1519 54.1675 14.357 54.1602C17.584 54.1602 20.1964 56.7956 20.189 60.0273C20.189 63.2517 17.5694 65.8798 14.3643 65.8798ZM10.7348 60.0126C10.7348 62.0223 12.3593 63.664 14.357 63.6713C16.3547 63.6713 17.9865 62.037 17.9865 60.0273C17.9865 58.0176 16.362 56.376 14.3643 56.3686C12.3593 56.3686 10.7348 58.0103 10.7275 60.0126H10.7348Z" fill="white"/>
<path d="M14.5983 94.119H14.5909C13.0323 94.119 11.5761 93.508 10.4785 92.3964C9.38086 91.2848 8.77351 89.8125 8.78083 88.2519C8.78083 85.0275 11.4005 82.3994 14.6056 82.3994C17.8253 82.3994 20.4376 85.0349 20.4303 88.2666C20.4303 89.8346 19.823 91.2996 18.718 92.4112C17.6204 93.5154 16.1569 94.119 14.6056 94.119H14.5983ZM14.5983 84.6079C12.5933 84.6079 10.9688 86.2422 10.9614 88.2519C10.9614 89.231 11.3346 90.1438 12.0225 90.8358C12.7103 91.5278 13.6177 91.9106 14.5836 91.9106C15.5495 91.9106 16.4642 91.5351 17.1448 90.8431C17.8326 90.1512 18.2131 89.2383 18.2131 88.2666C18.2131 86.2569 16.5886 84.6152 14.5909 84.6079H14.5983Z" fill="white"/>
<path d="M76.5849 19.1896C76.4093 19.1896 76.2337 19.1454 76.0727 19.0645L60.0034 10.5029L43.9268 19.0645C43.3926 19.3516 42.7268 19.1454 42.4414 18.608C42.156 18.0706 42.3609 17.4007 42.8951 17.1136L60.0034 8L77.0971 17.1063C77.6313 17.3934 77.8362 18.0633 77.5508 18.6007C77.3533 18.9761 76.9727 19.1896 76.5776 19.1896H76.5849Z" fill="white"/>
<path d="M28.7797 67.6315C28.2382 67.6315 27.7699 67.2339 27.6967 66.6818C26.7089 59.5116 26.2259 52.2016 26.2698 44.9652V44.3026L60.0109 26.333L93.752 44.3026V44.9652C93.7886 52.1059 93.3276 59.3202 92.369 66.3947C92.2885 66.9984 91.7397 67.4253 91.1323 67.337C90.5323 67.256 90.1079 66.6965 90.1957 66.0929C91.1104 59.335 91.5714 52.4593 91.564 45.6351L60.0182 28.8286L28.4724 45.6351C28.4724 52.555 28.9407 59.5264 29.8847 66.38C29.9652 66.9836 29.5481 67.5431 28.948 67.6241C28.8968 67.6241 28.8456 67.6315 28.7944 67.6315H28.7797Z" fill="white"/>
<path d="M60.0474 112C59.0449 111.971 37.0924 110.867 29.1016 74.4342C28.9699 73.8379 29.3431 73.249 29.9358 73.1164C30.5286 72.9839 31.114 73.3594 31.2457 73.9557C38.7608 108.209 58.7229 109.726 60.0182 109.784C61.306 109.726 81.2829 108.209 88.7833 73.9557C88.915 73.3594 89.5004 72.9839 90.0932 73.1164C90.6859 73.249 91.0591 73.8379 90.9274 74.4342C82.9439 110.859 60.9767 111.971 60.0474 112Z" fill="white"/>
</g>
<defs>
<clipPath id="clip0_497_2747">
<rect width="120" height="104" fill="white" transform="translate(0 8)"/>
</clipPath>
</defs>
</svg>
