<svg width="120" height="120" viewBox="0 0 120 120" fill="none" xmlns="http://www.w3.org/2000/svg">
<g clip-path="url(#clip0_651_9409)">
<path d="M52.0386 64.4497C51.3273 64.4497 50.7531 63.8769 50.7531 63.1673V27.8863L39.5692 26.527C38.9265 26.4501 38.438 25.903 38.438 25.2533V17.0293C38.438 16.3197 39.0122 15.747 39.7235 15.747H45.1997V10.857H32.9618C32.2505 10.857 31.6763 10.2842 31.6763 9.5747V1.28233C31.6763 0.572772 32.2505 0 32.9618 0H67.5588C68.2701 0 68.8443 0.572772 68.8443 1.28233V63.0904C68.8443 63.8 68.2701 64.3727 67.5588 64.3727C66.8475 64.3727 66.2733 63.8 66.2733 63.0904V2.56465H34.2473V8.29237H46.4852C47.1965 8.29237 47.7707 8.86514 47.7707 9.5747V17.0293C47.7707 17.7388 47.1965 18.3116 46.4852 18.3116H41.009V24.1163L52.1928 25.4755C52.8356 25.5525 53.3241 26.0996 53.3241 26.7493V63.1673C53.3241 63.8769 52.7499 64.4497 52.0386 64.4497Z" fill="white"/>
<path d="M59.9998 109.297C49.9044 109.297 41.6943 100.799 41.6943 90.3524C41.6943 79.9057 49.9044 71.4082 59.9998 71.4082C70.0953 71.4082 78.3053 79.9057 78.3053 90.3524C78.3053 100.799 70.0953 109.297 59.9998 109.297ZM59.9998 73.9729C51.327 73.9729 44.2653 81.3249 44.2653 90.3524C44.2653 99.38 51.327 106.732 59.9998 106.732C68.6727 106.732 75.7343 99.3885 75.7343 90.3524C75.7343 81.3163 68.6727 73.9729 59.9998 73.9729Z" fill="white"/>
<path d="M60.0001 77.9658C58.3118 77.9658 56.6492 78.3591 55.1323 79.0943C61.3713 82.3172 63.8052 89.9769 60.5743 96.1919C59.3659 98.5172 57.4634 100.415 55.1323 101.62C56.6492 102.356 58.3118 102.749 60.0001 102.749C66.4704 102.749 71.741 97.1922 71.741 90.3531C71.741 83.514 66.4704 77.9658 60.0001 77.9658Z" fill="#69F5DB"/>
<path d="M101.736 91.635H87.3299C86.6186 91.635 86.0444 91.0622 86.0444 90.3526C86.0444 89.6431 86.6186 89.0703 87.3299 89.0703H101.736C102.447 89.0703 103.022 89.6431 103.022 90.3526C103.022 91.0622 102.447 91.635 101.736 91.635Z" fill="white"/>
<path d="M94.5371 79.7688H84.8187C84.1074 79.7688 83.5332 79.196 83.5332 78.4864C83.5332 77.7769 84.1074 77.2041 84.8187 77.2041H94.5371C95.2484 77.2041 95.8226 77.7769 95.8226 78.4864C95.8226 79.196 95.2484 79.7688 94.5371 79.7688Z" fill="white"/>
<path d="M94.3313 103.399H84.8529C84.1416 103.399 83.5674 102.826 83.5674 102.116C83.5674 101.407 84.1416 100.834 84.8529 100.834H94.3313C95.0426 100.834 95.6168 101.407 95.6168 102.116C95.6168 102.826 95.0426 103.399 94.3313 103.399Z" fill="white"/>
<path d="M105.73 95.6098C102.824 95.6098 100.459 93.2503 100.459 90.3523C100.459 87.4542 102.824 85.0947 105.73 85.0947C108.635 85.0947 110.991 87.4542 111 90.3523C111 93.2503 108.635 95.6098 105.73 95.6098ZM105.73 87.6594C104.247 87.6594 103.03 88.8648 103.03 90.3523C103.03 91.8398 104.238 93.0451 105.73 93.0451C107.221 93.0451 108.429 91.8398 108.429 90.3523C108.429 88.8733 107.212 87.6594 105.73 87.6594Z" fill="white"/>
<path d="M98.522 83.7446C95.6168 83.7446 93.2515 81.3851 93.2515 78.487C93.2515 75.589 95.6168 73.2295 98.522 73.2295C101.427 73.2295 103.793 75.589 103.793 78.487C103.793 81.3851 101.427 83.7446 98.522 83.7446ZM98.522 75.7941C97.0308 75.7941 95.8225 76.9995 95.8225 78.487C95.8225 79.9745 97.0308 81.1799 98.522 81.1799C100.013 81.1799 101.222 79.9745 101.222 78.487C101.222 76.9995 100.013 75.7941 98.522 75.7941Z" fill="white"/>
<path d="M98.3252 107.373C95.42 107.373 93.0547 105.014 93.0547 102.116C93.0547 99.2179 95.42 96.8584 98.3252 96.8584C101.23 96.8584 103.587 99.2264 103.596 102.116C103.596 105.014 101.23 107.373 98.3252 107.373ZM98.3252 99.423C96.8426 99.423 95.6257 100.628 95.6257 102.116C95.6257 103.603 96.8341 104.809 98.3252 104.809C99.8164 104.809 101.025 103.603 101.025 102.116C101.025 100.628 99.8078 99.423 98.3252 99.423Z" fill="white"/>
<path d="M32.6704 91.635H18.2557C17.5444 91.635 16.9702 91.0622 16.9702 90.3526C16.9702 89.6431 17.5444 89.0703 18.2557 89.0703H32.6704C33.3817 89.0703 33.9559 89.6431 33.9559 90.3526C33.9559 91.0622 33.3817 91.635 32.6704 91.635Z" fill="white"/>
<path d="M35.1725 79.7688H25.4627C24.7514 79.7688 24.1772 79.196 24.1772 78.4864C24.1772 77.7769 24.7514 77.2041 25.4627 77.2041H35.1725C35.8839 77.2041 36.458 77.7769 36.458 78.4864C36.458 79.196 35.8839 79.7688 35.1725 79.7688Z" fill="white"/>
<path d="M35.1384 103.399H25.66C24.9487 103.399 24.3745 102.826 24.3745 102.116C24.3745 101.407 24.9487 100.834 25.66 100.834H35.1384C35.8497 100.834 36.4239 101.407 36.4239 102.116C36.4239 102.826 35.8497 103.399 35.1384 103.399Z" fill="white"/>
<path d="M14.2791 95.6269H14.2705C12.8565 95.6269 11.5367 95.0712 10.5426 94.0796C9.53991 93.0793 9 91.7543 9 90.3523C9 87.4628 11.3653 85.1033 14.2705 85.0947C15.7017 85.0947 17.0301 85.6504 18.0242 86.6421C19.0183 87.6423 19.5668 88.9588 19.5582 90.3694C19.5582 93.2674 17.1843 95.6269 14.2791 95.6269ZM14.2791 87.6594C12.7794 87.6594 11.571 88.8733 11.5624 90.3523C11.5624 91.0704 11.8452 91.7543 12.3509 92.2672C12.8651 92.7801 13.5421 93.0622 14.262 93.0622C15.7532 93.0622 16.9701 91.8569 16.9701 90.3694C16.9701 89.6513 16.6873 88.9673 16.1817 88.4544C15.6675 87.9415 14.9904 87.6594 14.2705 87.6594H14.2791Z" fill="white"/>
<path d="M21.4781 83.7446C18.5728 83.7446 16.2075 81.3851 16.2075 78.487C16.2075 75.589 18.5728 73.2295 21.4781 73.2295C24.3833 73.2295 26.7486 75.589 26.7486 78.487C26.7486 81.3851 24.3833 83.7446 21.4781 83.7446ZM21.4781 75.7941C19.9869 75.7941 18.7785 76.9995 18.7785 78.487C18.7785 79.9745 19.9869 81.1799 21.4781 81.1799C22.9692 81.1799 24.1776 79.9745 24.1776 78.487C24.1776 76.9995 22.9692 75.7941 21.4781 75.7941Z" fill="white"/>
<path d="M21.6834 107.391H21.6748C18.761 107.391 16.4043 105.014 16.4043 102.116C16.4043 99.2264 18.7782 96.8669 21.6748 96.8584C24.6058 96.8584 26.9711 99.235 26.9625 102.133C26.9625 103.544 26.4055 104.86 25.4114 105.852C24.4172 106.843 23.0889 107.382 21.692 107.382L21.6834 107.391ZM18.9753 102.116C18.9753 103.603 20.1837 104.817 21.6748 104.826C22.3947 104.826 23.0717 104.544 23.5859 104.039C24.1001 103.526 24.383 102.851 24.383 102.133C24.383 100.646 23.1746 99.4316 21.6834 99.423C20.1837 99.423 18.9753 100.637 18.9667 102.116H18.9753Z" fill="white"/>
<path d="M59.9917 120C48.6022 119.888 38.3867 113.075 33.9389 102.645C33.6647 101.996 33.9646 101.243 34.6159 100.961C35.2673 100.679 36.0214 100.987 36.3042 101.637C40.3493 111.126 49.6477 117.332 59.9831 117.435C70.3014 117.332 79.5912 111.134 83.6363 101.637C83.9105 100.987 84.6732 100.679 85.3246 100.961C85.9759 101.235 86.2844 101.987 86.0016 102.645C81.5538 113.075 71.3383 119.888 59.9745 120H59.9917Z" fill="white"/>
<path d="M32.6703 91.6352C31.959 91.6352 31.3848 91.0624 31.3848 90.3528C31.3763 86.0613 32.2504 81.8895 33.9987 77.9656C34.2901 77.3159 35.0442 77.0252 35.6955 77.3159C36.3468 77.6065 36.6382 78.3588 36.3469 79.0085C34.7528 82.6076 33.9473 86.4204 33.9558 90.3528C33.9558 91.0624 33.3816 91.6352 32.6703 91.6352Z" fill="white"/>
<path d="M38.5753 73.9731C38.3096 73.9731 38.0353 73.8876 37.804 73.7167C37.2383 73.2892 37.1269 72.4856 37.5469 71.9214C42.826 64.9284 51.216 60.7395 60.0002 60.7139C60.7115 60.7139 61.2857 61.2866 61.2857 61.9962C61.2857 62.7057 60.7115 63.2785 60.0002 63.2785C52.0216 63.2956 44.3943 67.1084 39.6037 73.4602C39.3551 73.7936 38.9695 73.9731 38.5753 73.9731Z" fill="white"/>
<path d="M81.3823 74.007C80.9967 74.007 80.6111 73.8361 80.354 73.5027C77.0202 69.1171 72.461 65.954 67.1819 64.3554C66.5048 64.1502 66.1192 63.4321 66.3249 62.7568C66.5306 62.0814 67.2504 61.6967 67.9275 61.9019C73.7294 63.6544 78.7342 67.1338 82.4022 71.9553C82.8307 72.5195 82.7193 73.3231 82.1536 73.7506C81.9223 73.9301 81.648 74.0156 81.3738 74.0156L81.3823 74.007Z" fill="white"/>
<path d="M87.3299 91.6353C86.6186 91.6353 86.0444 91.0625 86.0444 90.3529C86.0444 86.4205 85.2474 82.6077 83.6619 79.0086C83.3791 78.3589 83.6619 77.6066 84.3218 77.316C84.9731 77.0339 85.7273 77.316 86.0187 77.9742C87.7498 81.8981 88.6325 86.07 88.624 90.3615C88.624 91.071 88.0498 91.6438 87.3385 91.6438L87.3299 91.6353Z" fill="white"/>
</g>
<defs>
<clipPath id="clip0_651_9409">
<rect width="102" height="120" fill="white" transform="translate(9)"/>
</clipPath>
</defs>
</svg>
