<?xml version="1.0" encoding="UTF-8"?>
<svg width="140px" height="139px" viewBox="0 0 140 139" version="1.1" xmlns="http://www.w3.org/2000/svg" xmlns:xlink="http://www.w3.org/1999/xlink">
    <!-- Generator: Sketch 52.5 (67469) - http://www.bohemiancoding.com/sketch -->
    <title>Group 139</title>
    <desc>Created with Sketch.</desc>
    <defs>
        <path d="M0.516101695,69.6567932 C0.516101695,107.947679 31.6892373,138.989283 70.1423729,138.989283 C108.596102,138.989283 139.769237,107.947679 139.769237,69.6567932 C139.769237,31.3647257 108.596102,0.323122363 70.1423729,0.323122363 C31.6892373,0.323122363 0.516101695,31.3647257 0.516101695,69.6567932" id="path-1"></path>
        <path d="M0.516101695,69.6567932 C0.516101695,107.947679 31.6892373,138.989283 70.1423729,138.989283 C108.596102,138.989283 139.769237,107.947679 139.769237,69.6567932 C139.769237,31.3647257 108.596102,0.323122363 70.1423729,0.323122363 C31.6892373,0.323122363 0.516101695,31.3647257 0.516101695,69.6567932" id="path-3"></path>
        <path d="M0.516101695,69.6567932 C0.516101695,107.947679 31.6892373,138.989283 70.1423729,138.989283 C108.596102,138.989283 139.769237,107.947679 139.769237,69.6567932 C139.769237,31.3647257 108.596102,0.323122363 70.1423729,0.323122363 C31.6892373,0.323122363 0.516101695,31.3647257 0.516101695,69.6567932" id="path-5"></path>
        <path d="M0.516101695,69.6567932 C0.516101695,107.947679 31.6892373,138.989283 70.1423729,138.989283 C108.596102,138.989283 139.769237,107.947679 139.769237,69.6567932 C139.769237,31.3647257 108.596102,0.323122363 70.1423729,0.323122363 C31.6892373,0.323122363 0.516101695,31.3647257 0.516101695,69.6567932" id="path-7"></path>
        <path d="M0.516101695,69.6567932 C0.516101695,107.947679 31.6892373,138.989283 70.1423729,138.989283 C108.596102,138.989283 139.769237,107.947679 139.769237,69.6567932 C139.769237,31.3647257 108.596102,0.323122363 70.1423729,0.323122363 C31.6892373,0.323122363 0.516101695,31.3647257 0.516101695,69.6567932" id="path-9"></path>
        <path d="M0.516101695,69.6567932 C0.516101695,107.947679 31.6892373,138.989283 70.1423729,138.989283 C108.596102,138.989283 139.769237,107.947679 139.769237,69.6567932 C139.769237,31.3647257 108.596102,0.323122363 70.1423729,0.323122363 C31.6892373,0.323122363 0.516101695,31.3647257 0.516101695,69.6567932" id="path-11"></path>
        <path d="M0.516101695,69.6567932 C0.516101695,107.947679 31.6892373,138.989283 70.1423729,138.989283 C108.596102,138.989283 139.769237,107.947679 139.769237,69.6567932 C139.769237,31.3647257 108.596102,0.323122363 70.1423729,0.323122363 C31.6892373,0.323122363 0.516101695,31.3647257 0.516101695,69.6567932" id="path-13"></path>
        <path d="M0.516101695,69.6567932 C0.516101695,107.947679 31.6892373,138.989283 70.1423729,138.989283 C108.596102,138.989283 139.769237,107.947679 139.769237,69.6567932 C139.769237,31.3647257 108.596102,0.323122363 70.1423729,0.323122363 C31.6892373,0.323122363 0.516101695,31.3647257 0.516101695,69.6567932" id="path-15"></path>
        <path d="M0.516101695,69.6567932 C0.516101695,107.947679 31.6892373,138.989283 70.1423729,138.989283 C108.596102,138.989283 139.769237,107.947679 139.769237,69.6567932 C139.769237,31.3647257 108.596102,0.323122363 70.1423729,0.323122363 C31.6892373,0.323122363 0.516101695,31.3647257 0.516101695,69.6567932" id="path-17"></path>
        <path d="M0.516101695,69.6567932 C0.516101695,107.947679 31.6892373,138.989283 70.1423729,138.989283 C108.596102,138.989283 139.769237,107.947679 139.769237,69.6567932 C139.769237,31.3647257 108.596102,0.323122363 70.1423729,0.323122363 C31.6892373,0.323122363 0.516101695,31.3647257 0.516101695,69.6567932" id="path-19"></path>
        <path d="M0.516101695,69.6567932 C0.516101695,107.947679 31.6892373,138.989283 70.1423729,138.989283 C108.596102,138.989283 139.769237,107.947679 139.769237,69.6567932 C139.769237,31.3647257 108.596102,0.323122363 70.1423729,0.323122363 C31.6892373,0.323122363 0.516101695,31.3647257 0.516101695,69.6567932" id="path-21"></path>
        <path d="M0.516101695,69.6567932 C0.516101695,107.947679 31.6892373,138.989283 70.1423729,138.989283 C108.596102,138.989283 139.769237,107.947679 139.769237,69.6567932 C139.769237,31.3647257 108.596102,0.323122363 70.1423729,0.323122363 C31.6892373,0.323122363 0.516101695,31.3647257 0.516101695,69.6567932" id="path-23"></path>
        <path d="M0.516101695,69.6567932 C0.516101695,107.947679 31.6892373,138.989283 70.1423729,138.989283 C108.596102,138.989283 139.769237,107.947679 139.769237,69.6567932 C139.769237,31.3647257 108.596102,0.323122363 70.1423729,0.323122363 C31.6892373,0.323122363 0.516101695,31.3647257 0.516101695,69.6567932 Z" id="path-25"></path>
        <path d="M0.516101695,69.6567932 C0.516101695,107.947679 31.6892373,138.989283 70.1423729,138.989283 C108.596102,138.989283 139.769237,107.947679 139.769237,69.6567932 C139.769237,31.3647257 108.596102,0.323122363 70.1423729,0.323122363 C31.6892373,0.323122363 0.516101695,31.3647257 0.516101695,69.6567932 Z" id="path-27"></path>
        <path d="M0.516101695,69.6567932 C0.516101695,107.947679 31.6892373,138.989283 70.1423729,138.989283 C108.596102,138.989283 139.769237,107.947679 139.769237,69.6567932 C139.769237,31.3647257 108.596102,0.323122363 70.1423729,0.323122363 C31.6892373,0.323122363 0.516101695,31.3647257 0.516101695,69.6567932" id="path-29"></path>
        <path d="M0.516101695,69.6567932 C0.516101695,107.947679 31.6892373,138.989283 70.1423729,138.989283 C108.596102,138.989283 139.769237,107.947679 139.769237,69.6567932 C139.769237,31.3647257 108.596102,0.323122363 70.1423729,0.323122363 C31.6892373,0.323122363 0.516101695,31.3647257 0.516101695,69.6567932 Z" id="path-31"></path>
        <path d="M0.516101695,69.6567932 C0.516101695,107.947679 31.6892373,138.989283 70.1423729,138.989283 C108.596102,138.989283 139.769237,107.947679 139.769237,69.6567932 C139.769237,31.3647257 108.596102,0.323122363 70.1423729,0.323122363 C31.6892373,0.323122363 0.516101695,31.3647257 0.516101695,69.6567932" id="path-33"></path>
        <path d="M0.516101695,69.6567932 C0.516101695,107.947679 31.6892373,138.989283 70.1423729,138.989283 C108.596102,138.989283 139.769237,107.947679 139.769237,69.6567932 C139.769237,31.3647257 108.596102,0.323122363 70.1423729,0.323122363 C31.6892373,0.323122363 0.516101695,31.3647257 0.516101695,69.6567932" id="path-35"></path>
        <path d="M0.516101695,69.6567932 C0.516101695,107.947679 31.6892373,138.989283 70.1423729,138.989283 C108.596102,138.989283 139.769237,107.947679 139.769237,69.6567932 C139.769237,31.3647257 108.596102,0.323122363 70.1423729,0.323122363 C31.6892373,0.323122363 0.516101695,31.3647257 0.516101695,69.6567932" id="path-37"></path>
        <path d="M0.516101695,69.6567932 C0.516101695,107.947679 31.6892373,138.989283 70.1423729,138.989283 C108.596102,138.989283 139.769237,107.947679 139.769237,69.6567932 C139.769237,31.3647257 108.596102,0.323122363 70.1423729,0.323122363 C31.6892373,0.323122363 0.516101695,31.3647257 0.516101695,69.6567932" id="path-39"></path>
        <path d="M0.516101695,69.6567932 C0.516101695,107.947679 31.6892373,138.989283 70.1423729,138.989283 C108.596102,138.989283 139.769237,107.947679 139.769237,69.6567932 C139.769237,31.3647257 108.596102,0.323122363 70.1423729,0.323122363 C31.6892373,0.323122363 0.516101695,31.3647257 0.516101695,69.6567932" id="path-41"></path>
        <path d="M0.516101695,69.6567932 C0.516101695,107.947679 31.6892373,138.989283 70.1423729,138.989283 C108.596102,138.989283 139.769237,107.947679 139.769237,69.6567932 C139.769237,31.3647257 108.596102,0.323122363 70.1423729,0.323122363 C31.6892373,0.323122363 0.516101695,31.3647257 0.516101695,69.6567932" id="path-43"></path>
        <path d="M0.516101695,69.6567932 C0.516101695,107.947679 31.6892373,138.989283 70.1423729,138.989283 C108.596102,138.989283 139.769237,107.947679 139.769237,69.6567932 C139.769237,31.3647257 108.596102,0.323122363 70.1423729,0.323122363 C31.6892373,0.323122363 0.516101695,31.3647257 0.516101695,69.6567932" id="path-45"></path>
        <path d="M0.516101695,69.6567932 C0.516101695,107.947679 31.6892373,138.989283 70.1423729,138.989283 C108.596102,138.989283 139.769237,107.947679 139.769237,69.6567932 C139.769237,31.3647257 108.596102,0.323122363 70.1423729,0.323122363 C31.6892373,0.323122363 0.516101695,31.3647257 0.516101695,69.6567932" id="path-47"></path>
        <path d="M0.516101695,69.6567932 C0.516101695,107.947679 31.6892373,138.989283 70.1423729,138.989283 C108.596102,138.989283 139.769237,107.947679 139.769237,69.6567932 C139.769237,31.3647257 108.596102,0.323122363 70.1423729,0.323122363 C31.6892373,0.323122363 0.516101695,31.3647257 0.516101695,69.6567932" id="path-49"></path>
        <path d="M0.516101695,69.6567932 C0.516101695,107.947679 31.6892373,138.989283 70.1423729,138.989283 C108.596102,138.989283 139.769237,107.947679 139.769237,69.6567932 C139.769237,31.3647257 108.596102,0.323122363 70.1423729,0.323122363 C31.6892373,0.323122363 0.516101695,31.3647257 0.516101695,69.6567932" id="path-51"></path>
        <path d="M0.516101695,69.6567932 C0.516101695,107.947679 31.6892373,138.989283 70.1423729,138.989283 C108.596102,138.989283 139.769237,107.947679 139.769237,69.6567932 C139.769237,31.3647257 108.596102,0.323122363 70.1423729,0.323122363 C31.6892373,0.323122363 0.516101695,31.3647257 0.516101695,69.6567932" id="path-53"></path>
        <path d="M0.516101695,69.6567932 C0.516101695,107.947679 31.6892373,138.989283 70.1423729,138.989283 C108.596102,138.989283 139.769237,107.947679 139.769237,69.6567932 C139.769237,31.3647257 108.596102,0.323122363 70.1423729,0.323122363 C31.6892373,0.323122363 0.516101695,31.3647257 0.516101695,69.6567932" id="path-55"></path>
        <path d="M0.516101695,69.6567932 C0.516101695,107.947679 31.6892373,138.989283 70.1423729,138.989283 C108.596102,138.989283 139.769237,107.947679 139.769237,69.6567932 C139.769237,31.3647257 108.596102,0.323122363 70.1423729,0.323122363 C31.6892373,0.323122363 0.516101695,31.3647257 0.516101695,69.6567932" id="path-57"></path>
        <path d="M0.516101695,69.6567932 C0.516101695,107.947679 31.6892373,138.989283 70.1423729,138.989283 C108.596102,138.989283 139.769237,107.947679 139.769237,69.6567932 C139.769237,31.3647257 108.596102,0.323122363 70.1423729,0.323122363 C31.6892373,0.323122363 0.516101695,31.3647257 0.516101695,69.6567932" id="path-59"></path>
        <path d="M0.516101695,69.6567932 C0.516101695,107.947679 31.6892373,138.989283 70.1423729,138.989283 C108.596102,138.989283 139.769237,107.947679 139.769237,69.6567932 C139.769237,31.3647257 108.596102,0.323122363 70.1423729,0.323122363 C31.6892373,0.323122363 0.516101695,31.3647257 0.516101695,69.6567932 Z" id="path-61"></path>
        <path d="M0.516101695,69.6567932 C0.516101695,107.947679 31.6892373,138.989283 70.1423729,138.989283 C108.596102,138.989283 139.769237,107.947679 139.769237,69.6567932 C139.769237,31.3647257 108.596102,0.323122363 70.1423729,0.323122363 C31.6892373,0.323122363 0.516101695,31.3647257 0.516101695,69.6567932 Z" id="path-63"></path>
        <path d="M0.516101695,69.6567932 C0.516101695,107.947679 31.6892373,138.989283 70.1423729,138.989283 C108.596102,138.989283 139.769237,107.947679 139.769237,69.6567932 C139.769237,31.3647257 108.596102,0.323122363 70.1423729,0.323122363 C31.6892373,0.323122363 0.516101695,31.3647257 0.516101695,69.6567932 Z" id="path-65"></path>
        <path d="M0.516101695,69.6567932 C0.516101695,107.947679 31.6892373,138.989283 70.1423729,138.989283 C108.596102,138.989283 139.769237,107.947679 139.769237,69.6567932 C139.769237,31.3647257 108.596102,0.323122363 70.1423729,0.323122363 C31.6892373,0.323122363 0.516101695,31.3647257 0.516101695,69.6567932 Z" id="path-67"></path>
        <path d="M0.516101695,69.6567932 C0.516101695,107.947679 31.6892373,138.989283 70.1423729,138.989283 C108.596102,138.989283 139.769237,107.947679 139.769237,69.6567932 C139.769237,31.3647257 108.596102,0.323122363 70.1423729,0.323122363 C31.6892373,0.323122363 0.516101695,31.3647257 0.516101695,69.6567932 Z" id="path-69"></path>
        <path d="M0.516101695,69.6567932 C0.516101695,107.947679 31.6892373,138.989283 70.1423729,138.989283 C108.596102,138.989283 139.769237,107.947679 139.769237,69.6567932 C139.769237,31.3647257 108.596102,0.323122363 70.1423729,0.323122363 C31.6892373,0.323122363 0.516101695,31.3647257 0.516101695,69.6567932 Z" id="path-71"></path>
        <path d="M0.516101695,69.6567932 C0.516101695,107.947679 31.6892373,138.989283 70.1423729,138.989283 C108.596102,138.989283 139.769237,107.947679 139.769237,69.6567932 C139.769237,31.3647257 108.596102,0.323122363 70.1423729,0.323122363 C31.6892373,0.323122363 0.516101695,31.3647257 0.516101695,69.6567932" id="path-73"></path>
        <path d="M0.516101695,69.6567932 C0.516101695,107.947679 31.6892373,138.989283 70.1423729,138.989283 C108.596102,138.989283 139.769237,107.947679 139.769237,69.6567932 C139.769237,31.3647257 108.596102,0.323122363 70.1423729,0.323122363 C31.6892373,0.323122363 0.516101695,31.3647257 0.516101695,69.6567932" id="path-75"></path>
        <path d="M0.516101695,69.6567932 C0.516101695,107.947679 31.6892373,138.989283 70.1423729,138.989283 C108.596102,138.989283 139.769237,107.947679 139.769237,69.6567932 C139.769237,31.3647257 108.596102,0.323122363 70.1423729,0.323122363 C31.6892373,0.323122363 0.516101695,31.3647257 0.516101695,69.6567932 Z" id="path-77"></path>
        <path d="M0.516101695,69.6567932 C0.516101695,107.947679 31.6892373,138.989283 70.1423729,138.989283 C108.596102,138.989283 139.769237,107.947679 139.769237,69.6567932 C139.769237,31.3647257 108.596102,0.323122363 70.1423729,0.323122363 C31.6892373,0.323122363 0.516101695,31.3647257 0.516101695,69.6567932" id="path-79"></path>
        <path d="M0.516101695,69.6567932 C0.516101695,107.947679 31.6892373,138.989283 70.1423729,138.989283 C108.596102,138.989283 139.769237,107.947679 139.769237,69.6567932 C139.769237,31.3647257 108.596102,0.323122363 70.1423729,0.323122363 C31.6892373,0.323122363 0.516101695,31.3647257 0.516101695,69.6567932" id="path-81"></path>
        <path d="M0.516101695,69.6567932 C0.516101695,107.947679 31.6892373,138.989283 70.1423729,138.989283 C108.596102,138.989283 139.769237,107.947679 139.769237,69.6567932 C139.769237,31.3647257 108.596102,0.323122363 70.1423729,0.323122363 C31.6892373,0.323122363 0.516101695,31.3647257 0.516101695,69.6567932" id="path-83"></path>
        <path d="M0.516101695,69.6567932 C0.516101695,107.947679 31.6892373,138.989283 70.1423729,138.989283 C108.596102,138.989283 139.769237,107.947679 139.769237,69.6567932 C139.769237,31.3647257 108.596102,0.323122363 70.1423729,0.323122363 C31.6892373,0.323122363 0.516101695,31.3647257 0.516101695,69.6567932 Z" id="path-85"></path>
        <path d="M0.516101695,69.6567932 C0.516101695,107.947679 31.6892373,138.989283 70.1423729,138.989283 C108.596102,138.989283 139.769237,107.947679 139.769237,69.6567932 C139.769237,31.3647257 108.596102,0.323122363 70.1423729,0.323122363 C31.6892373,0.323122363 0.516101695,31.3647257 0.516101695,69.6567932" id="path-87"></path>
        <path d="M0.516101695,69.6567932 C0.516101695,107.947679 31.6892373,138.989283 70.1423729,138.989283 C108.596102,138.989283 139.769237,107.947679 139.769237,69.6567932 C139.769237,31.3647257 108.596102,0.323122363 70.1423729,0.323122363 C31.6892373,0.323122363 0.516101695,31.3647257 0.516101695,69.6567932" id="path-89"></path>
        <path d="M0.516101695,69.6567932 C0.516101695,107.947679 31.6892373,138.989283 70.1423729,138.989283 C108.596102,138.989283 139.769237,107.947679 139.769237,69.6567932 C139.769237,31.3647257 108.596102,0.323122363 70.1423729,0.323122363 C31.6892373,0.323122363 0.516101695,31.3647257 0.516101695,69.6567932" id="path-91"></path>
    </defs>
    <g id="Symbols" stroke="none" stroke-width="1" fill="none" fill-rule="evenodd">
        <g id="Mobile/FeaturesofOrchid/IconVer" transform="translate(-118.000000, -418.000000)">
            <g id="Group-139" transform="translate(117.597713, 417.406718)">
                <g id="Group-3" transform="translate(0.000000, 0.420000)">
                    <mask id="mask-2" fill="white">
                        <use xlink:href="#path-1"></use>
                    </mask>
                    <g id="Clip-2"></g>
                    <path d="M-23.751,90.3597215 C-23.751,34.3514515 21.8451017,-11.0528523 78.0912881,-11.0528523 C134.336881,-11.0528523 179.933576,34.3514515 179.933576,90.3597215" id="Fill-1" fill="#F4F6F1" mask="url(#mask-2)"></path>
                </g>
                <g id="Group-6" transform="translate(0.000000, 0.420000)">
                    <mask id="mask-4" fill="white">
                        <use xlink:href="#path-3"></use>
                    </mask>
                    <g id="Clip-5"></g>
                    <path d="M35.9782797,78.3031224 C35.9782797,78.5476793 35.7795508,78.7455696 35.5339576,78.7455696 C35.2883644,78.7455696 35.0896356,78.5476793 35.0896356,78.3031224 C35.0896356,78.0585654 35.2883644,77.8606751 35.5339576,77.8606751 C35.7795508,77.8606751 35.9782797,78.0585654 35.9782797,78.3031224" id="Fill-4" fill="#F4F6F1" mask="url(#mask-4)"></path>
                </g>
                <g id="Group-9" transform="translate(0.000000, 0.420000)">
                    <mask id="mask-6" fill="white">
                        <use xlink:href="#path-5"></use>
                    </mask>
                    <g id="Clip-8"></g>
                    <path d="M51.8538644,55.9945654 C52.3438644,56.4824979 52.3438644,57.2740591 51.8538644,57.7619916 C51.3632712,58.2499241 50.5689492,58.2499241 50.0789492,57.7619916 C49.5889492,57.2740591 49.5889492,56.4824979 50.0789492,55.9945654 C50.5689492,55.5066329 51.3632712,55.5066329 51.8538644,55.9945654" id="Fill-7" fill="#A375FC" mask="url(#mask-6)"></path>
                </g>
                <g id="Group-12" transform="translate(0.000000, 0.420000)">
                    <mask id="mask-8" fill="white">
                        <use xlink:href="#path-7"></use>
                    </mask>
                    <g id="Clip-11"></g>
                    <path d="M122.266331,39.2949873 C122.756331,39.7829198 122.756331,40.574481 122.266331,41.0624135 C121.775737,41.550346 120.981415,41.550346 120.491415,41.0624135 C120.001415,40.574481 120.001415,39.7829198 120.491415,39.2949873 C120.981415,38.8070549 121.775737,38.8070549 122.266331,39.2949873" id="Fill-10" fill="#A375FC" mask="url(#mask-8)"></path>
                </g>
                <g id="Group-15" transform="translate(0.000000, 0.420000)">
                    <mask id="mask-10" fill="white">
                        <use xlink:href="#path-9"></use>
                    </mask>
                    <g id="Clip-14"></g>
                    <path d="M123.042025,8.3354346 C123.042025,9.2504557 122.297534,9.99239662 121.378636,9.99239662 C120.459737,9.99239662 119.715246,9.2504557 119.715246,8.3354346 C119.715246,7.4204135 120.459737,6.67906329 121.378636,6.67906329 C122.297534,6.67906329 123.042025,7.4204135 123.042025,8.3354346" id="Fill-13" fill="#BCA9FF" mask="url(#mask-10)"></path>
                </g>
                <g id="Group-18" transform="translate(0.000000, 0.420000)">
                    <mask id="mask-12" fill="white">
                        <use xlink:href="#path-11"></use>
                    </mask>
                    <g id="Clip-17"></g>
                    <path d="M166.483847,90.3597215 C209.603847,90.9079072 202.219441,123.223688 191.787661,136.529004 C178.437831,153.55584 151.760712,169.358709 134.688424,183.596768 C127.858678,189.293055 120.574525,194.841662 111.842915,197.948245 C91.1157966,205.321578 67.5590169,197.424278 48.2028305,187.591789 C28.8460508,177.75989 9.76867797,165.575755 -12.5037797,163.796515 C-30.4635254,162.361662 -49.6209831,167.824616 -66.0579322,161.313139 C-83.9992881,154.206219 -91.8897119,134.299637 -88.0201356,117.360819 C-85.9385254,108.244869 -81.4947119,96.8115359 -64.6193729,90.3597215" id="Fill-16" fill="#2EBF8B" mask="url(#mask-12)"></path>
                </g>
                <g id="Group-21" transform="translate(0.000000, 0.420000)">
                    <mask id="mask-14" fill="white">
                        <use xlink:href="#path-13"></use>
                    </mask>
                    <g id="Clip-20"></g>
                    <path d="M116.764568,121.491232 C116.764568,126.997899 84.4393983,131.461949 44.5637203,131.461949 C4.68804237,131.461949 -27.6371271,126.997899 -27.6371271,121.491232 C-27.6371271,115.984565 4.68804237,111.520515 44.5637203,111.520515 C84.4393983,111.520515 116.764568,115.984565 116.764568,121.491232" id="Fill-19" fill="#2EAA7B" mask="url(#mask-14)"></path>
                </g>
                <g id="Group-24" transform="translate(0.000000, 0.420000)">
                    <mask id="mask-16" fill="white">
                        <use xlink:href="#path-15"></use>
                    </mask>
                    <g id="Clip-23"></g>
                    <path d="M132.009856,110.201266 C132.009856,110.201266 135.368076,117.793165 140.723076,110.201266 C140.723076,110.201266 144.172059,115.80481 148.347144,110.201266 C148.347144,110.201266 152.068415,116.798987 155.789686,110.201266 C155.789686,110.201266 160.509347,115.624051 162.688246,110.201266 C162.688246,110.201266 167.770364,116.889367 172.126975,110.201266" id="Stroke-22" stroke="#319DA8" stroke-width="0.6132" stroke-linecap="round" mask="url(#mask-16)"></path>
                </g>
                <g id="Group-27" transform="translate(0.000000, 0.420000)">
                    <mask id="mask-18" fill="white">
                        <use xlink:href="#path-17"></use>
                    </mask>
                    <g id="Clip-26"></g>
                    <path d="M65.2256441,77.6001688 C65.2256441,78.0432068 64.8649661,78.4029536 64.4194576,78.4029536 C63.9739492,78.4029536 63.6120847,78.0432068 63.6120847,77.6001688 C63.6120847,77.1565401 63.9739492,76.7967932 64.4194576,76.7967932 C64.8649661,76.7967932 65.2256441,77.1565401 65.2256441,77.6001688" id="Fill-25" fill="#F4F6F1" mask="url(#mask-18)"></path>
                </g>
                <g id="Group-30" transform="translate(0.000000, 0.420000)">
                    <mask id="mask-20" fill="white">
                        <use xlink:href="#path-19"></use>
                    </mask>
                    <g id="Clip-29"></g>
                    <path d="M78.0911102,72.1580084 C78.0911102,72.6016371 77.7304322,72.9607932 77.2849237,72.9607932 C76.8394153,72.9607932 76.4781441,72.6016371 76.4781441,72.1580084 C76.4781441,71.7143797 76.8394153,71.3552236 77.2849237,71.3552236 C77.7304322,71.3552236 78.0911102,71.7143797 78.0911102,72.1580084" id="Fill-28" fill="#F4F6F1" mask="url(#mask-20)"></path>
                </g>
                <g id="Group-33" transform="translate(0.000000, 0.420000)">
                    <mask id="mask-22" fill="white">
                        <use xlink:href="#path-21"></use>
                    </mask>
                    <g id="Clip-32"></g>
                    <path d="M50.2109407,74.0613586 L50.2109407,79.230135" id="Stroke-31" stroke="#271C47" stroke-width="0.5" stroke-linecap="round" mask="url(#mask-22)"></path>
                </g>
                <g id="Group-36" transform="translate(0.000000, 0.420000)">
                    <mask id="mask-24" fill="white">
                        <use xlink:href="#path-23"></use>
                    </mask>
                    <g id="Clip-35"></g>
                    <path d="M55.0661525,73.9263797 L55.0661525,81.9483207" id="Stroke-34" stroke="#271C47" stroke-width="0.5" stroke-linecap="round" mask="url(#mask-24)"></path>
                </g>
                <g id="Group-39" transform="translate(0.000000, 0.420000)">
                    <mask id="mask-26" fill="white">
                        <use xlink:href="#path-25"></use>
                    </mask>
                    <g id="Clip-38"></g>
                    <path d="M42.8692458,77.1479156 L41.8299237,80.6839494 C41.8299237,80.6839494 41.3719576,81.9185485 42.3495847,82.0213333 C43.3272119,82.1241181 44.3089915,78.369519 44.3089915,78.369519 L42.8692458,77.1479156 Z" id="Fill-37" fill="#8F4BD1" mask="url(#mask-26)"></path>
                </g>
                <g id="Group-42" transform="translate(0.000000, 0.420000)">
                    <mask id="mask-28" fill="white">
                        <use xlink:href="#path-27"></use>
                    </mask>
                    <g id="Clip-41"></g>
                    <path d="M45.9749322,77.552616 L45.3941695,81.301308 C45.3941695,81.301308 45.2962881,82.5937975 43.9265424,82.1814768 C43.9265424,82.1814768 43.2912034,82.0172574 43.9123051,80.5753165 C44.7238305,78.691519 44.7107797,77.5467089 44.7107797,77.5467089 L45.9749322,77.552616 Z" id="Fill-40" fill="#A99BCE" mask="url(#mask-28)"></path>
                </g>
                <g id="Group-45" transform="translate(0.000000, 0.420000)">
                    <mask id="mask-30" fill="white">
                        <use xlink:href="#path-29"></use>
                    </mask>
                    <g id="Clip-44"></g>
                    <path d="M46.5994746,80.2803713 C47.3718475,79.0150549 48.6051525,76.7526076 48.7682881,74.9710042 L46.3230339,73.8439156 L46.0287966,80.1037468 C46.0139661,80.420962 46.4333729,80.5521013 46.5994746,80.2803713" id="Fill-43" fill="#C1B0FF" mask="url(#mask-30)"></path>
                </g>
                <g id="Group-48" transform="translate(0.000000, 0.420000)">
                    <mask id="mask-32" fill="white">
                        <use xlink:href="#path-31"></use>
                    </mask>
                    <g id="Clip-47"></g>
                    <path d="M47.2529068,56.8708354 C47.2529068,56.8708354 46.7884153,51.3677131 49.8868051,51.2643376 C52.9863814,51.1615527 55.1160424,51.9572489 56.0972288,57.2548017 C56.0972288,57.2548017 61.8152797,63.7497384 57.9213814,73.2260253 C57.9213814,73.2260253 56.4146017,76.4932827 49.2253644,75.1080506 C48.7359576,75.0135359 48.244178,74.8079662 47.7179915,74.6148017 L47.2529068,56.8708354 Z" id="Fill-46" fill="#D7D3E2" mask="url(#mask-32)"></path>
                </g>
                <g id="Group-51" transform="translate(0.000000, 0.420000)">
                    <mask id="mask-34" fill="white">
                        <use xlink:href="#path-33"></use>
                    </mask>
                    <g id="Clip-50"></g>
                    <path d="M47.769661,57.6937637 C47.769661,57.6937637 50.2107627,58.5077722 49.5511017,66.540346 C49.5511017,66.540346 48.5444068,78.1124979 44.3088136,78.3694599 C40.0732203,78.6270127 44.980339,61.4483629 44.980339,61.4483629 C44.980339,61.4483629 45.9615254,56.7681097 47.769661,57.6937637" id="Fill-49" fill="#C2BCD3" mask="url(#mask-34)"></path>
                </g>
                <g id="Group-54" transform="translate(0.000000, 0.420000)">
                    <mask id="mask-36" fill="white">
                        <use xlink:href="#path-35"></use>
                    </mask>
                    <g id="Clip-53"></g>
                    <path d="M45.3938729,54.2991477 L47.3615847,53.7226076 C47.4505678,53.696616 47.5460763,53.7208354 47.6113305,53.7852236 L47.8901441,54.0610886 C48.0194661,54.1886835 47.9755678,54.4031139 47.8070932,54.474 C47.3687034,54.6594852 46.5115,54.8556034 45.3938729,54.2991477" id="Fill-52" fill="#271C47" mask="url(#mask-36)"></path>
                </g>
                <g id="Group-57" transform="translate(0.000000, 0.420000)">
                    <mask id="mask-38" fill="white">
                        <use xlink:href="#path-37"></use>
                    </mask>
                    <g id="Clip-56"></g>
                    <path d="M50.6900254,53.69573 C50.6900254,53.9591899 50.4758729,54.1724388 50.2107034,54.1724388 C49.9467203,54.1724388 49.7325678,53.9591899 49.7325678,53.69573 C49.7325678,53.43227 49.9467203,53.2190211 50.2107034,53.2190211 C50.4758729,53.2190211 50.6900254,53.43227 50.6900254,53.69573" id="Fill-55" fill="#271C47" mask="url(#mask-38)"></path>
                </g>
                <g id="Group-60" transform="translate(0.000000, 0.420000)">
                    <mask id="mask-40" fill="white">
                        <use xlink:href="#path-39"></use>
                    </mask>
                    <g id="Clip-59"></g>
                    <path d="M52.5733814,55.6106582 C52.5733814,55.9940338 52.2613475,56.3047511 51.8757542,56.3047511 C51.4907542,56.3047511 51.1781271,55.9940338 51.1781271,55.6106582 C51.1781271,55.2272827 51.4907542,54.9165654 51.8757542,54.9165654 C52.2613475,54.9165654 52.5733814,55.2272827 52.5733814,55.6106582" id="Fill-58" fill="#CC99CC" mask="url(#mask-40)"></path>
                </g>
                <g id="Group-63" transform="translate(0.000000, 0.420000)">
                    <mask id="mask-42" fill="white">
                        <use xlink:href="#path-41"></use>
                    </mask>
                    <g id="Clip-62"></g>
                    <path d="M66.9844831,88.9726582 C67.3338898,89.6561181 66.4772797,90.7885232 65.070161,91.5027004 C63.6630424,92.2168776 62.2393136,92.2416878 61.8893136,91.5582278 C61.5399068,90.8747679 62.3971102,89.7423629 63.8036356,89.0281857 C65.2107542,88.3140084 66.6344831,88.2891983 66.9844831,88.9726582" id="Fill-61" fill="#C2B9EA" mask="url(#mask-42)"></path>
                </g>
                <g id="Group-66" transform="translate(0.000000, 0.420000)">
                    <mask id="mask-44" fill="white">
                        <use xlink:href="#path-43"></use>
                    </mask>
                    <g id="Clip-65"></g>
                    <path d="M27.1350254,110.113013 C27.1350254,110.113013 7.00824576,112.598751 7.37188983,125.974954 C7.73434746,139.351156 23.709178,144.322042 23.709178,144.322042 C23.709178,144.322042 29.923161,145.892759 37.4730763,146.556726 C13.0893475,141.671494 15.5399407,130.132422 15.5399407,130.132422 C21.3487542,109.525249 50.4598559,114.548118 50.4598559,114.548118 C49.7153644,113.920776 48.8480763,113.31411 47.8289237,112.756473 C41.0217203,109.028456 27.1350254,110.113013 27.1350254,110.113013" id="Fill-64" fill="#8279D8" mask="url(#mask-44)"></path>
                </g>
                <g id="Group-69" transform="translate(0.000000, 0.420000)">
                    <mask id="mask-46" fill="white">
                        <use xlink:href="#path-45"></use>
                    </mask>
                    <g id="Clip-68"></g>
                    <path d="M22.5120593,84.9922278 C21.4543475,84.7671646 20.3812119,84.6135781 19.3033305,84.5326498 L19.3122288,84.8510464 C17.8517203,84.9473333 16.3995169,85.1824388 14.9835,85.5528186 C14.6643475,85.6367004 14.3380763,85.7312152 14.0740932,85.9296962 C13.3296017,86.4896962 13.3806186,87.6776287 13.8949407,88.4538312 C14.9775678,90.0901181 17.2739237,90.2720591 19.2416356,90.2862363 C19.7873983,90.2903713 20.3325678,90.2945063 20.8777373,90.2980506 C21.9550254,90.3063207 23.0702797,90.3063207 24.0520593,89.8656456 C25.033839,89.4255612 25.844178,88.4136624 25.6899407,87.3527342 C25.4876525,85.9627764 23.8912966,85.2858143 22.5120593,84.9922278" id="Fill-67" fill="#8279D8" mask="url(#mask-46)"></path>
                </g>
                <g id="Group-72" transform="translate(0.000000, 0.420000)">
                    <mask id="mask-48" fill="white">
                        <use xlink:href="#path-47"></use>
                    </mask>
                    <g id="Clip-71"></g>
                    <path d="M51.8498305,94.057789 C50.0072881,93.1982954 47.5857627,93.5663122 46.2711864,95.1134008 L46.4675424,94.9444557 C45.650678,95.7726414 44.8130508,96.6309536 44.3823729,97.7101941 C43.9522881,98.7888439 44.0294068,100.155764 44.8794915,100.949688 C45.6833051,101.70108 46.9130508,101.744793 48.009322,101.633148 C49.6952542,101.46184 51.4357627,100.981586 52.6382203,99.7924726 C53.8400847,98.6033586 54.3027966,96.5582954 53.3061864,95.1937384 C52.9395763,94.6916287 52.4139831,94.3212489 51.8498305,94.057789" id="Fill-70" fill="#8279D8" mask="url(#mask-48)"></path>
                </g>
                <g id="Group-75" transform="translate(0.000000, 0.420000)">
                    <mask id="mask-50" fill="white">
                        <use xlink:href="#path-49"></use>
                    </mask>
                    <g id="Clip-74"></g>
                    <path d="M67.1982203,76.4940506 C66.7550847,76.4462025 66.435339,76.0498312 66.4833898,75.6085654 C66.5314407,75.1678903 66.9294915,74.8494937 67.3720339,74.8973418 C67.8145763,74.9445992 68.1349153,75.3409705 68.0868644,75.7816456 C68.0388136,76.2235021 67.6407627,76.5418987 67.1982203,76.4940506 M67.6591525,74.071519 C66.675,74.0898312 65.8972881,75.1442616 65.9216102,76.4267089 C65.9465254,77.7085654 66.7639831,78.7328692 67.7481356,78.714557 C68.7322881,78.695654 69.51,77.6412236 69.485678,76.3587764 C69.4607627,75.0769198 68.6438983,74.052616 67.6591525,74.071519" id="Fill-73" fill="#271C47" mask="url(#mask-50)"></path>
                </g>
                <g id="Group-78" transform="translate(0.000000, 0.420000)">
                    <mask id="mask-52" fill="white">
                        <use xlink:href="#path-51"></use>
                    </mask>
                    <g id="Clip-77"></g>
                    <path d="M80.7519407,70.8675274 C81.1944831,70.9153755 81.514822,71.3117468 81.4667712,71.7530127 C81.4187203,72.1936878 81.0206695,72.5120844 80.5781271,72.4642363 C80.1349915,72.4169789 79.8152458,72.0206076 79.8632966,71.5799325 C79.9107542,71.1386667 80.3088051,70.8196793 80.7519407,70.8675274 M81.676178,74.8099747 C82.6413475,74.6168101 83.2179576,73.4412827 82.9640593,72.1842363 C82.7107542,70.9265992 81.7230424,70.0641519 80.7578729,70.2573165 C79.7927034,70.4498903 79.2155,71.6260084 79.4693983,72.8830549 C79.7232966,74.1401013 80.7110085,75.0025485 81.676178,74.8099747" id="Fill-76" fill="#271C47" mask="url(#mask-52)"></path>
                </g>
                <g id="Group-81" transform="translate(0.000000, 0.420000)">
                    <mask id="mask-54" fill="white">
                        <use xlink:href="#path-53"></use>
                    </mask>
                    <g id="Clip-80"></g>
                    <path d="M118.819958,63.7786245 C120.128602,63.7538143 121.162585,62.3520422 121.130551,60.6484135 C121.097331,58.9436034 120.010551,57.5825907 118.7025,57.6074008 C117.394449,57.632211 116.359873,59.0333924 116.3925,60.7382025 C116.425127,62.4418312 117.511907,63.8034346 118.819958,63.7786245" id="Fill-79" fill="#521E8E" mask="url(#mask-54)"></path>
                </g>
                <g id="Group-84" transform="translate(0.000000, 0.420000)">
                    <mask id="mask-56" fill="white">
                        <use xlink:href="#path-55"></use>
                    </mask>
                    <g id="Clip-83"></g>
                    <path d="M126.330839,63.8146582 C127.214144,64.0273165 128.251686,62.8754177 128.649144,61.2420844 C129.046602,59.6081603 128.653297,58.110692 127.769992,57.897443 C126.886686,57.6847848 125.849144,58.8366835 125.45228,60.4706076 C125.054822,62.1039409 125.448127,63.6014093 126.330839,63.8146582" id="Fill-82" fill="#521E8E" mask="url(#mask-56)"></path>
                </g>
                <g id="Group-87" transform="translate(0.000000, 0.420000)">
                    <mask id="mask-58" fill="white">
                        <use xlink:href="#path-57"></use>
                    </mask>
                    <g id="Clip-86"></g>
                    <path d="M91.9107119,87.8016203 C92.7524915,86.9297215 91.7232542,85.294616 91.7232542,85.294616 L89.9269831,86.0974008 C89.9269831,86.0974008 91.068339,88.673519 91.9107119,87.8016203" id="Fill-85" fill="#E5E4EA" mask="url(#mask-58)"></path>
                </g>
                <g id="Group-90" transform="translate(0.000000, 0.420000)">
                    <mask id="mask-60" fill="white">
                        <use xlink:href="#path-59"></use>
                    </mask>
                    <g id="Clip-89"></g>
                    <path d="M96.4490847,85.4689958 C97.2908644,84.597097 96.3945085,83.2018228 96.3945085,83.2018228 L94.5976441,84.0093333 C94.5976441,84.0093333 95.6073051,86.3408945 96.4490847,85.4689958" id="Fill-88" fill="#E5E4EA" mask="url(#mask-60)"></path>
                </g>
                <g id="Group-93" transform="translate(0.000000, 0.420000)">
                    <mask id="mask-62" fill="white">
                        <use xlink:href="#path-61"></use>
                    </mask>
                    <g id="Clip-92"></g>
                    <path d="M98.6829153,82.1716118 C98.6829153,82.1716118 99.6848644,84.4889958 100.527237,83.617097 C101.369017,82.7451983 100.478,81.360557 100.478,81.360557 L98.6829153,82.1716118 Z" id="Fill-91" fill="#E5E4EA" mask="url(#mask-62)"></path>
                </g>
                <g id="Group-96" transform="translate(0.000000, 0.420000)">
                    <mask id="mask-64" fill="white">
                        <use xlink:href="#path-63"></use>
                    </mask>
                    <g id="Clip-95"></g>
                    <path d="M106.245941,78.899865 C106.245941,78.899865 107.327381,81.1109198 107.944331,80.0688945 C108.519161,79.0989367 107.879669,78.1112574 107.879669,78.1112574 L106.647551,78.7061097 L106.5995,78.7291477 L106.245941,78.899865 Z" id="Fill-94" fill="#E5E4EA" mask="url(#mask-64)"></path>
                </g>
                <g id="Group-99" transform="translate(0.000000, 0.420000)">
                    <mask id="mask-66" fill="white">
                        <use xlink:href="#path-65"></use>
                    </mask>
                    <g id="Clip-98"></g>
                    <path d="M87.0183644,92.6254177 C87.0290424,92.6236456 87.0391271,92.6212827 87.0492119,92.6195105 L87.0183644,92.6254177 Z" id="Fill-97" fill="#E5E4EA" mask="url(#mask-66)"></path>
                </g>
                <g id="Group-102" transform="translate(0.000000, 0.420000)">
                    <mask id="mask-68" fill="white">
                        <use xlink:href="#path-67"></use>
                    </mask>
                    <g id="Clip-101"></g>
                    <path d="M95.8663051,90.827038 C95.852661,90.8294008 95.8390169,90.8323544 95.8253729,90.835308 L95.8253729,90.8358987 L95.8663051,90.827038 Z" id="Fill-100" fill="#E5E4EA" mask="url(#mask-68)"></path>
                </g>
                <g id="Group-105" transform="translate(0.000000, 0.420000)">
                    <mask id="mask-70" fill="white">
                        <use xlink:href="#path-69"></use>
                    </mask>
                    <g id="Clip-104"></g>
                    <path d="M101.879602,89.5212574 C101.82028,89.5342532 101.757398,89.5484304 101.685025,89.5649705 C101.685025,89.5649705 101.686805,89.5691055 101.686805,89.5691055 L101.879602,89.5212574 Z" id="Fill-103" fill="#E5E4EA" mask="url(#mask-70)"></path>
                </g>
                <g id="Group-108" transform="translate(0.000000, 0.420000)">
                    <mask id="mask-72" fill="white">
                        <use xlink:href="#path-71"></use>
                    </mask>
                    <g id="Clip-107"></g>
                    <path d="M115.604169,89.7289536 C115.067898,89.8128354 114.594508,89.9008523 114.221966,89.9758734 L115.604169,89.7289536 Z" id="Fill-106" fill="#E5E4EA" mask="url(#mask-72)"></path>
                </g>
                <g id="Group-111" transform="translate(0.000000, 0.420000)">
                    <mask id="mask-74" fill="white">
                        <use xlink:href="#path-73"></use>
                    </mask>
                    <g id="Clip-110"></g>
                    <path d="M67.3720339,74.8972827 C66.9294915,74.8494346 66.5314407,75.1678312 66.4833898,75.609097 C66.435339,76.0497722 66.7550847,76.4461435 67.1982203,76.4939916 C67.6407627,76.5418397 68.0388136,76.223443 68.0868644,75.7821772 C68.1349153,75.3409114 67.8145763,74.9451308 67.3720339,74.8972827" id="Fill-109" fill="#F4F6F1" mask="url(#mask-74)"></path>
                </g>
                <g id="Group-114" transform="translate(0.000000, 0.420000)">
                    <mask id="mask-76" fill="white">
                        <use xlink:href="#path-75"></use>
                    </mask>
                    <g id="Clip-113"></g>
                    <path d="M80.5781271,72.4642954 C81.0206695,72.5121435 81.4187203,72.1937468 81.4667712,71.752481 C81.514822,71.3118059 81.1944831,70.9154346 80.7519407,70.8675865 C80.3088051,70.8197384 79.9107542,71.1387257 79.8632966,71.5794008 C79.8152458,72.0206667 80.1349915,72.4164473 80.5781271,72.4642954" id="Fill-112" fill="#F4F6F1" mask="url(#mask-76)"></path>
                </g>
                <g id="Group-117" transform="translate(0.000000, 0.420000)">
                    <mask id="mask-78" fill="white">
                        <use xlink:href="#path-77"></use>
                    </mask>
                    <g id="Clip-116"></g>
                    <polygon id="Fill-115" fill="#2EBF8B" mask="url(#mask-78)" points="65.1625254 93.6943797 66.9148983 95.8788523 65.8809153 92.7758143"></polygon>
                </g>
                <g id="Group-120" transform="translate(0.000000, 0.420000)">
                    <mask id="mask-80" fill="white">
                        <use xlink:href="#path-79"></use>
                    </mask>
                    <g id="Clip-119"></g>
                    <path d="M122.68461,85.3773165 C122.68461,85.3773165 120.682492,86.7070211 117.410288,88.7491308 C123.03639,86.324827 122.68461,85.3773165 122.68461,85.3773165" id="Fill-118" fill="#2EBF8B" mask="url(#mask-80)"></path>
                </g>
                <g id="Group-123" transform="translate(0.000000, 0.420000)">
                    <mask id="mask-82" fill="white">
                        <use xlink:href="#path-81"></use>
                    </mask>
                    <g id="Clip-122"></g>
                    <path d="M126.330839,63.8146582 C125.448127,63.6014093 125.054822,62.1039409 125.45228,60.4706076 C125.849144,58.8366835 126.886686,57.6847848 127.769992,57.897443 C128.653297,58.110692 129.046602,59.6075696 128.649144,61.2420844 C128.251686,62.8754177 127.213551,64.0273165 126.330839,63.8146582 M118.820076,63.8382869 C117.512025,63.863097 116.425246,62.5014937 116.392619,60.797865 C116.359398,59.0930549 117.394568,57.6918734 118.702619,57.6670633 C120.010669,57.6422532 121.097449,59.0032658 121.130076,60.7080759 C121.162703,62.4117046 120.128127,63.8140675 118.820076,63.8382869 M81.676178,74.8096793 C80.7110085,75.0028439 79.7227034,74.1398059 79.4693983,72.8827595 C79.2155,71.6257131 79.7927034,70.4495949 80.7578729,70.2570211 C81.7230424,70.0638565 82.7107542,70.9268945 82.9640593,72.1839409 C83.2173644,73.4409873 82.6413475,74.6171055 81.676178,74.8096793 M67.7479576,78.7143207 C66.7638051,78.7326329 65.9463475,77.7089198 65.9214322,76.4264726 C65.8971102,75.144616 66.674822,74.0901857 67.6595678,74.0712827 C68.6437203,74.0529705 69.461178,75.0766835 69.4860932,76.3591308 C69.5104153,77.6415781 68.7321102,78.6954177 67.7479576,78.7143207 M52.6380424,99.7922954 C51.4355847,100.981409 49.6950763,101.461662 48.0097373,101.63297 C46.9128729,101.744616 45.6837203,101.700903 44.8793136,100.950101 C44.029822,100.155586 43.9527034,98.7892574 44.3821949,97.7100169 C44.8128729,96.6313671 45.6505,95.7730549 46.4673644,94.9448692 L46.2710085,95.1132236 C47.5855847,93.5667257 50.0071102,93.1981181 51.8496525,94.0576118 C52.4138051,94.3210717 52.9393983,94.6920422 53.3060085,95.1935612 C54.3026186,96.5581181 53.8405,98.6037722 52.6380424,99.7922954 M24.0519407,89.8658819 C23.0707542,90.306557 21.9549068,90.306557 20.8776186,90.2982869 C20.3324492,90.2947426 19.7872797,90.2906076 19.2421102,90.2864726 C17.2738051,90.2722954 14.9774492,90.0897637 13.894822,88.4534768 C13.3810932,87.6772743 13.3294831,86.4899325 14.0745678,85.9299325 C14.3379576,85.7314515 14.6642288,85.636346 14.9833814,85.5530549 C16.3999915,85.1826751 17.8516017,84.9469789 19.3127034,84.8512827 L19.3032119,84.5322954 C20.3810932,84.6132236 21.4542288,84.7674008 22.5119407,84.9924641 C23.891178,85.2860506 25.4875339,85.9624219 25.6904153,87.3529705 C25.8440593,88.4138987 25.0337203,89.4257975 24.0519407,89.8658819 M18.6821102,148.652886 C19.7107542,148.124194 20.9891441,148.333308 22.0154153,148.865544 L22.7931271,148.810017 C23.9356695,148.698371 24.8830424,149.983181 24.6605847,151.104954 C24.4375339,152.226135 23.3353305,153.025376 22.1981271,153.183097 C21.0609237,153.340819 19.9118559,152.968076 18.8891441,152.448835 C18.4531271,152.227316 18.0171102,151.966219 17.7406695,151.563941 C17.0875339,150.612886 17.6540593,149.182169 18.6821102,148.652886 M-0.370940678,117.581156 C-1.06738136,118.714152 -2.08890678,119.970608 -3.41238136,119.80816 C-4.23933051,119.707148 -4.91144915,119.024278 -5.19144915,118.242759 C-5.47144915,117.461241 -5.41865254,116.598793 -5.25848305,115.784785 C-4.87466949,113.826557 -3.88221186,111.991198 -2.45195763,110.594152 L-1.61195763,110.321241 C-1.20441525,109.690945 -0.315771186,109.420397 0.375923729,109.716937 C1.28295763,110.105629 1.63295763,111.220903 1.62405932,112.203857 C1.60804237,114.139046 0.642872881,115.930101 -0.370940678,117.581156 M-9.14288983,100.812464 C-9.38077119,100.603941 -9.58839831,100.352886 -9.69636441,100.056346 C-9.82272034,99.7084135 -9.80314407,99.3256287 -9.75331356,98.9587932 C-9.40568644,96.4104388 -7.55661864,94.1214093 -5.13094068,93.2382869 L-4.71509322,92.9612405 C-3.71729661,91.9062194 -2.17017797,91.3958397 -0.736957627,91.6486667 C-0.289669492,91.7272321 0.166516949,91.89027 0.459567797,92.2352489 C0.683805085,92.4998903 0.789398305,92.8442785 0.844567797,93.1857131 C1.18922881,95.3441941 -0.277211864,97.3555865 -1.8154322,98.9144895 C-2.79424576,99.9068945 -3.87331356,100.857359 -5.18492373,101.33584 C-6.49712712,101.813139 -8.09407627,101.73103 -9.14288983,100.812464 M-10.0018729,141.366388 C-10.5725508,142.193983 -11.7512797,142.378287 -12.734839,142.160903 C-14.659839,141.735586 -16.2010254,139.962844 -16.3487373,138.005207 C-16.399161,137.334743 -16.2787373,136.608751 -15.8154322,136.120228 C-15.0039068,135.264278 -13.6056864,135.499384 -12.4631441,135.800059 L-12.0573814,136.29508 C-10.7416186,136.921241 -9.79839831,138.263941 -9.65780508,139.709426 C-9.60322881,140.282422 -9.67560169,140.891451 -10.0018729,141.366388 M128.524568,57.3557553 C126.930585,55.2285823 125.103466,56.0768523 124.856686,57.5052068 C124.609907,58.9329705 124.726771,59.5360928 123.799568,59.6636878 C122.872958,59.790692 122.118975,57.0728017 122.118975,57.0728017 C122.118975,57.0728017 121.49728,54.8239409 117.850161,55.6119578 C114.204229,56.4005654 114.42728,61.0607342 114.42728,61.0607342 C114.42728,61.0607342 114.943975,63.0254599 112.776347,62.3827595 C110.609907,61.7394684 110.484144,63.3172743 110.484144,63.3172743 C110.484144,63.3172743 110.588551,64.8738143 109.004653,64.7479916 C107.420161,64.6227595 108.397195,64.4549958 105.152873,63.6504388 C101.907958,62.8452911 101.224568,65.7717046 100.830669,67.2886667 C100.437364,68.8056287 98.9353305,68.343097 97.6041441,67.1539831 C96.2729576,65.9648692 94.5816864,68.9184557 94.5816864,68.9184557 C94.5816864,68.9184557 93.0903305,71.3031814 92.0041441,69.9587089 C90.9179576,68.6136456 89.8382966,69.7247848 89.8382966,69.7247848 C89.8382966,69.7247848 89.150161,71.0143207 87.9649068,71.8407342 C86.7790593,72.6671477 85.6199068,71.9966835 85.3606695,70.6049536 C85.100839,69.2132236 83.3496525,66.433308 79.1864322,66.9383713 C75.0232119,67.4434346 75.4455847,73.6252911 75.4455847,73.6252911 L72.6212627,74.4109451 C72.6212627,74.4109451 71.1595678,67.7080759 65.1229576,70.3290886 C60.695161,72.2512827 62.035839,78.0202278 63.0656695,80.9614093 C62.1254153,84.0295949 59.0371102,83.7879916 57.6946525,83.8098481 C56.314822,83.4252911 55.1877034,82.5817468 54.8400763,80.8751646 C54.1596525,77.5311139 51.2552458,78.3894262 50.4603305,79.0220844 C49.664822,79.6547426 48.7138898,79.8809873 47.7160932,79.8809873 C46.7171102,79.8809873 45.855161,79.1579494 44.0849915,75.949173 C42.3154153,72.7409873 38.8207542,76.3555865 38.8207542,76.3555865 C38.8207542,76.3555865 36.5516864,78.6605654 34.5549068,76.1754177 C32.5581271,73.6896793 29.8803305,76.5818312 29.8803305,76.5818312 C29.8803305,76.5818312 27.7933814,78.2541519 25.3427881,75.4972743 C22.8921949,72.7409873 20.986178,76.1754177 20.986178,76.1754177 C20.986178,76.1754177 19.5339746,78.4349114 18.1725339,78.9317046 C16.8110932,79.4290886 16.4480424,78.2996371 13.7702458,78.1182869 C11.0924492,77.9375274 9.0055,79.8355021 9.0055,79.8355021 C5.55592373,82.0501013 4.69397458,80.3777806 2.1075339,79.5194684 C-0.48009322,78.6605654 -1.06975424,79.7451224 -1.97738136,82.863519 C-2.88441525,85.9813249 -6.06170339,84.3544895 -6.06170339,84.3544895 C-11.8705169,82.9987932 -11.5068729,87.2921266 -11.5068729,87.2921266 C-11.5068729,87.2921266 -12.0514492,90.1842785 -12.8683136,90.7714515 C-13.685178,91.3592152 -14.9671271,91.3025063 -17.2824661,90.6922954 C-19.5966186,90.0826751 -20.0842458,93.3475696 -20.2657712,94.8391308 C-20.4478898,96.3301013 -20.0842458,96.058962 -23.2609407,98.2280759 C-26.4376356,100.39719 -26.0295,102.566304 -26.0295,102.566304 C-26.0295,102.566304 -25.1669576,105.006557 -29.6143305,104.825797 C-34.0617034,104.645038 -31.974161,108.169848 -31.974161,108.169848 L-31.338822,109.435165 C-31.338822,109.435165 -29.750178,111.694658 -32.5187373,113.863772 C-35.2867034,116.032886 -32.5644153,117.478962 -32.5644153,117.478962 C-32.5644153,117.478962 -31.7475508,117.840481 -30.4768729,118.428245 C-29.2056017,119.015418 -29.8415339,121.455671 -32.1556864,123.895924 C-34.469839,126.336177 -30.4311949,128.007907 -30.4311949,128.007907 C-27.9806017,129.906473 -28.9795847,132.255755 -29.4328051,133.069764 C-29.8866186,133.883181 -29.9322966,136.277949 -26.3468729,135.826051 C-22.7620424,135.374152 -23.3190763,137.949679 -23.3190763,137.949679 L-23.3066186,140.661662 C-23.5789068,144.321747 -19.2217034,142.17508 -18.4736525,142.921156 C-17.7244153,143.666641 -17.3156864,145.496684 -17.7244153,147.869004 C-18.1325508,150.241916 -16.3629746,151.122675 -12.5509407,150.445122 C-8.73890678,149.766979 -7.65034746,153.156515 -7.65034746,153.156515 C-7.65034746,153.156515 -5.53966949,158.037021 -2.88441525,155.6647 C-0.230347458,153.29238 1.0634661,155.393561 1.0634661,155.393561 C1.0634661,155.393561 1.53982203,155.93584 3.30999153,158.240228 C5.0795678,160.545207 6.64507627,160.748414 9.84490678,158.172295 C13.0441441,155.596768 13.725161,158.714574 13.725161,158.714574 C13.725161,158.714574 13.9974492,161.019553 16.4480424,161.493899 C18.8980424,161.968835 20.2594831,159.527992 20.2594831,159.527992 C20.2594831,159.527992 21.0087203,156.681325 24.6843136,159.698118 C28.3605,162.715502 30.6746525,159.698118 30.6746525,159.698118 C33.3299068,156.818371 34.8271949,158.647232 34.8271949,158.647232 C38.435161,161.358624 40.4995678,157.969089 40.4995678,157.969089 C41.6800763,156.432633 45.5828729,156.071114 45.5828729,156.071114 C55.0221949,153.902 69.3627034,150.648329 72.8116864,143.14681 C76.2606695,135.645291 67.0936356,141.881494 67.0936356,141.881494 C67.0936356,141.881494 63.9169407,143.779468 52.0270254,146.129342 C47.4485508,147.034321 42.1997373,146.972886 37.4729576,146.557021 C29.9230424,145.892464 23.7090593,144.321747 23.7090593,144.321747 C23.7090593,144.321747 7.73422881,139.350861 7.37177119,125.974658 C7.00812712,112.598456 27.1349068,110.112717 27.1349068,110.112717 C27.1349068,110.112717 41.0216017,109.028751 47.8288051,112.756768 C48.8479576,113.314405 49.715839,113.921072 50.4603305,114.547823 C54.6899915,118.11162 54.8400763,122.359468 54.8400763,122.359468 C61.8293983,125.342 72.4486356,121.274911 72.4486356,121.274911 C72.630161,117.840481 70.8795678,115.472295 69.245839,113.212802 C69.1420254,113.068667 64.1571949,109.679131 77.7027881,104.809257 C77.7027881,104.809257 82.5339746,103.785544 115.323042,90.0407342 C116.062788,89.5864726 116.763975,89.1528861 117.410585,88.7494262 C120.682788,86.7073165 122.684907,85.3770211 122.684907,85.3770211 C123.607364,81.6436878 118.478381,82.5155865 115.418551,83.3372743 L114.071347,83.7312827 C113.56889,83.8901857 113.258042,84.0018312 113.258042,84.0018312 L112.473212,84.1979494 L109.637619,84.9056287 L106.648975,85.6511139 L104.114737,86.2831814 L101.724653,86.8792152 C101.724653,86.8792152 101.589398,86.9099325 101.350331,86.9636878 L101.156941,87.0109451 C101.156941,87.0109451 101.155754,87.0074008 101.155754,87.0068101 C100.579144,87.1349958 98.3041441,87.6323797 98.3041441,87.6323797 C97.4338898,87.8214093 86.5275339,90.8269789 86.5275339,90.8269789 C86.5174492,90.8287511 77.3516017,92.3427595 76.0530424,92.3971055 C75.1056695,92.4366835 74.4347373,92.1301013 73.9702458,91.7532236 C73.4440593,91.3243629 73.6760085,90.4690042 74.3433814,90.3390464 C76.1082119,89.9952489 80.2566017,88.9910295 89.9272797,86.0976962 L89.3168559,86.3942363 L108.273805,78.1690886 C112.006941,76.7241941 115.008042,75.4216624 117.438466,74.237865 L117.514398,74.2012405 C124.827619,70.6297637 126.928212,68.1481603 128.207195,66.1397215 C129.91389,63.4602278 130.119144,59.4823376 128.524568,57.3557553" id="Fill-121" fill="#7565C9" mask="url(#mask-82)"></path>
                </g>
                <g id="Group-126" transform="translate(0.000000, 0.420000)">
                    <mask id="mask-84" fill="white">
                        <use xlink:href="#path-83"></use>
                    </mask>
                    <g id="Clip-125"></g>
                    <path d="M66.9844831,86.9521688 C67.3338898,87.6356287 66.4772797,88.7680338 65.070161,89.482211 C63.6630424,90.1957975 62.2393136,90.2206076 61.8893136,89.5371477 C61.5399068,88.8542785 62.3971102,87.7212827 63.8036356,87.0076962 C65.2107542,86.293519 66.6344831,86.2687089 66.9844831,86.9521688" id="Fill-124" fill="#CC99CC" mask="url(#mask-84)"></path>
                </g>
                <g id="Group-129" transform="translate(0.000000, 0.420000)">
                    <mask id="mask-86" fill="white">
                        <use xlink:href="#path-85"></use>
                    </mask>
                    <g id="Clip-128"></g>
                    <path d="M83.2290508,119.65162 C78.8724407,126.339722 73.7897288,119.65162 73.7897288,119.65162 C71.6114237,125.074405 66.8917627,119.65162 66.8917627,119.65162 C63.1704915,126.249342 59.4492203,119.65162 59.4492203,119.65162 C55.2741356,125.255165 51.8251525,119.65162 51.8251525,119.65162 C46.4701525,127.243519 43.1119322,119.65162 43.1119322,119.65162 L43.1119322,127.526473 L83.2290508,127.526473 L83.2290508,119.65162 Z" id="Fill-127" fill="#2EAA7B" mask="url(#mask-86)"></path>
                </g>
                <g id="Group-132" transform="translate(0.000000, 0.420000)">
                    <mask id="mask-88" fill="white">
                        <use xlink:href="#path-87"></use>
                    </mask>
                    <g id="Clip-131"></g>
                    <path d="M42.9375847,119.65162 C42.9375847,119.65162 46.2952119,127.243519 51.6508051,119.65162 C51.6508051,119.65162 55.0997881,125.255165 59.2748729,119.65162 C59.2748729,119.65162 62.9961441,126.249342 66.7174153,119.65162 C66.7174153,119.65162 71.4370763,125.074405 73.6153814,119.65162 C73.6153814,119.65162 78.6980932,126.339722 83.0547034,119.65162" id="Stroke-130" stroke="#319DA8" stroke-width="0.6132" stroke-linecap="round" mask="url(#mask-88)"></path>
                </g>
                <g id="Group-135" transform="translate(0.000000, 0.420000)">
                    <mask id="mask-90" fill="white">
                        <use xlink:href="#path-89"></use>
                    </mask>
                    <g id="Clip-134"></g>
                    <path d="M93.1974068,41.0663122 C93.6874068,41.5542447 93.6874068,42.3458059 93.1974068,42.8337384 C92.7074068,43.3216709 91.9124915,43.3216709 91.4224915,42.8337384 C90.9324915,42.3458059 90.9324915,41.5542447 91.4224915,41.0663122 C91.9124915,40.5783797 92.7074068,40.5783797 93.1974068,41.0663122" id="Fill-133" fill="#A375FC" mask="url(#mask-90)"></path>
                </g>
                <g id="Group-138" transform="translate(0.000000, 0.420000)">
                    <mask id="mask-92" fill="white">
                        <use xlink:href="#path-91"></use>
                    </mask>
                    <g id="Clip-137"></g>
                    <path d="M84.1600508,55.6980844 C84.6500508,56.1860169 84.6500508,56.9775781 84.1600508,57.4655105 C83.6700508,57.953443 82.8751356,57.953443 82.3851356,57.4655105 C81.8951356,56.9775781 81.8951356,56.1860169 82.3851356,55.6980844 C82.8751356,55.2101519 83.6700508,55.2101519 84.1600508,55.6980844" id="Fill-136" fill="#A375FC" mask="url(#mask-92)"></path>
                </g>
            </g>
        </g>
    </g>
</svg>