<?xml version="1.0" encoding="UTF-8"?>
<svg width="140px" height="140px" viewBox="0 0 140 140" version="1.1" xmlns="http://www.w3.org/2000/svg" xmlns:xlink="http://www.w3.org/1999/xlink">
    <!-- Generator: Sketch 52.5 (67469) - http://www.bohemiancoding.com/sketch -->
    <title>Group 220</title>
    <desc>Created with Sketch.</desc>
    <defs>
        <path d="M0.404576271,69.774346 C0.404576271,108.065232 31.5771186,139.107426 70.0308475,139.107426 C108.484576,139.107426 139.657712,108.065232 139.657712,69.774346 C139.657712,31.4822785 108.484576,0.441265823 70.0308475,0.441265823 C31.5771186,0.441265823 0.404576271,31.4822785 0.404576271,69.774346" id="path-1"></path>
        <path d="M0.404576271,69.774346 C0.404576271,108.065232 31.5771186,139.107426 70.0308475,139.107426 C108.484576,139.107426 139.657712,108.065232 139.657712,69.774346 C139.657712,31.4822785 108.484576,0.441265823 70.0308475,0.441265823 C31.5771186,0.441265823 0.404576271,31.4822785 0.404576271,69.774346" id="path-3"></path>
        <path d="M0.404576271,69.774346 C0.404576271,108.065232 31.5771186,139.107426 70.0308475,139.107426 C108.484576,139.107426 139.657712,108.065232 139.657712,69.774346 C139.657712,31.4822785 108.484576,0.441265823 70.0308475,0.441265823 C31.5771186,0.441265823 0.404576271,31.4822785 0.404576271,69.774346" id="path-5"></path>
        <path d="M0.404576271,69.774346 C0.404576271,108.065232 31.5771186,139.107426 70.0308475,139.107426 C108.484576,139.107426 139.657712,108.065232 139.657712,69.774346 C139.657712,31.4822785 108.484576,0.441265823 70.0308475,0.441265823 C31.5771186,0.441265823 0.404576271,31.4822785 0.404576271,69.774346" id="path-7"></path>
        <path d="M0.404576271,69.774346 C0.404576271,108.065232 31.5771186,139.107426 70.0308475,139.107426 C108.484576,139.107426 139.657712,108.065232 139.657712,69.774346 C139.657712,31.4822785 108.484576,0.441265823 70.0308475,0.441265823 C31.5771186,0.441265823 0.404576271,31.4822785 0.404576271,69.774346" id="path-9"></path>
        <path d="M0.404576271,69.774346 C0.404576271,108.065232 31.5771186,139.107426 70.0308475,139.107426 C108.484576,139.107426 139.657712,108.065232 139.657712,69.774346 C139.657712,31.4822785 108.484576,0.441265823 70.0308475,0.441265823 C31.5771186,0.441265823 0.404576271,31.4822785 0.404576271,69.774346" id="path-11"></path>
        <path d="M0.404576271,69.774346 C0.404576271,108.065232 31.5771186,139.107426 70.0308475,139.107426 C108.484576,139.107426 139.657712,108.065232 139.657712,69.774346 C139.657712,31.4822785 108.484576,0.441265823 70.0308475,0.441265823 C31.5771186,0.441265823 0.404576271,31.4822785 0.404576271,69.774346" id="path-13"></path>
        <path d="M0.404576271,69.774346 C0.404576271,108.065232 31.5771186,139.107426 70.0308475,139.107426 C108.484576,139.107426 139.657712,108.065232 139.657712,69.774346 C139.657712,31.4822785 108.484576,0.441265823 70.0308475,0.441265823 C31.5771186,0.441265823 0.404576271,31.4822785 0.404576271,69.774346" id="path-15"></path>
        <path d="M0.404576271,69.774346 C0.404576271,108.065232 31.5771186,139.107426 70.0308475,139.107426 C108.484576,139.107426 139.657712,108.065232 139.657712,69.774346 C139.657712,31.4822785 108.484576,0.441265823 70.0308475,0.441265823 C31.5771186,0.441265823 0.404576271,31.4822785 0.404576271,69.774346" id="path-17"></path>
        <path d="M0.404576271,69.774346 C0.404576271,108.065232 31.5771186,139.107426 70.0308475,139.107426 C108.484576,139.107426 139.657712,108.065232 139.657712,69.774346 C139.657712,31.4822785 108.484576,0.441265823 70.0308475,0.441265823 C31.5771186,0.441265823 0.404576271,31.4822785 0.404576271,69.774346 Z" id="path-19"></path>
        <path d="M0.404576271,69.774346 C0.404576271,108.065232 31.5771186,139.107426 70.0308475,139.107426 C108.484576,139.107426 139.657712,108.065232 139.657712,69.774346 C139.657712,31.4822785 108.484576,0.441265823 70.0308475,0.441265823 C31.5771186,0.441265823 0.404576271,31.4822785 0.404576271,69.774346 Z" id="path-21"></path>
        <path d="M0.404576271,69.774346 C0.404576271,108.065232 31.5771186,139.107426 70.0308475,139.107426 C108.484576,139.107426 139.657712,108.065232 139.657712,69.774346 C139.657712,31.4822785 108.484576,0.441265823 70.0308475,0.441265823 C31.5771186,0.441265823 0.404576271,31.4822785 0.404576271,69.774346" id="path-23"></path>
        <path d="M0.404576271,69.774346 C0.404576271,108.065232 31.5771186,139.107426 70.0308475,139.107426 C108.484576,139.107426 139.657712,108.065232 139.657712,69.774346 C139.657712,31.4822785 108.484576,0.441265823 70.0308475,0.441265823 C31.5771186,0.441265823 0.404576271,31.4822785 0.404576271,69.774346" id="path-25"></path>
        <path d="M0.404576271,69.774346 C0.404576271,108.065232 31.5771186,139.107426 70.0308475,139.107426 C108.484576,139.107426 139.657712,108.065232 139.657712,69.774346 C139.657712,31.4822785 108.484576,0.441265823 70.0308475,0.441265823 C31.5771186,0.441265823 0.404576271,31.4822785 0.404576271,69.774346" id="path-27"></path>
        <path d="M0.404576271,69.774346 C0.404576271,108.065232 31.5771186,139.107426 70.0308475,139.107426 C108.484576,139.107426 139.657712,108.065232 139.657712,69.774346 C139.657712,31.4822785 108.484576,0.441265823 70.0308475,0.441265823 C31.5771186,0.441265823 0.404576271,31.4822785 0.404576271,69.774346" id="path-29"></path>
        <path d="M0.404576271,69.774346 C0.404576271,108.065232 31.5771186,139.107426 70.0308475,139.107426 C108.484576,139.107426 139.657712,108.065232 139.657712,69.774346 C139.657712,31.4822785 108.484576,0.441265823 70.0308475,0.441265823 C31.5771186,0.441265823 0.404576271,31.4822785 0.404576271,69.774346" id="path-31"></path>
        <path d="M0.404576271,69.774346 C0.404576271,108.065232 31.5771186,139.107426 70.0308475,139.107426 C108.484576,139.107426 139.657712,108.065232 139.657712,69.774346 C139.657712,31.4822785 108.484576,0.441265823 70.0308475,0.441265823 C31.5771186,0.441265823 0.404576271,31.4822785 0.404576271,69.774346" id="path-33"></path>
        <path d="M0.404576271,69.774346 C0.404576271,108.065232 31.5771186,139.107426 70.0308475,139.107426 C108.484576,139.107426 139.657712,108.065232 139.657712,69.774346 C139.657712,31.4822785 108.484576,0.441265823 70.0308475,0.441265823 C31.5771186,0.441265823 0.404576271,31.4822785 0.404576271,69.774346" id="path-35"></path>
        <path d="M0.404576271,69.774346 C0.404576271,108.065232 31.5771186,139.107426 70.0308475,139.107426 C108.484576,139.107426 139.657712,108.065232 139.657712,69.774346 C139.657712,31.4822785 108.484576,0.441265823 70.0308475,0.441265823 C31.5771186,0.441265823 0.404576271,31.4822785 0.404576271,69.774346" id="path-37"></path>
        <path d="M0.404576271,69.774346 C0.404576271,108.065232 31.5771186,139.107426 70.0308475,139.107426 C108.484576,139.107426 139.657712,108.065232 139.657712,69.774346 C139.657712,31.4822785 108.484576,0.441265823 70.0308475,0.441265823 C31.5771186,0.441265823 0.404576271,31.4822785 0.404576271,69.774346" id="path-39"></path>
        <path d="M0.404576271,69.774346 C0.404576271,108.065232 31.5771186,139.107426 70.0308475,139.107426 C108.484576,139.107426 139.657712,108.065232 139.657712,69.774346 C139.657712,31.4822785 108.484576,0.441265823 70.0308475,0.441265823 C31.5771186,0.441265823 0.404576271,31.4822785 0.404576271,69.774346" id="path-41"></path>
        <path d="M0.404576271,69.774346 C0.404576271,108.065232 31.5771186,139.107426 70.0308475,139.107426 C108.484576,139.107426 139.657712,108.065232 139.657712,69.774346 C139.657712,31.4822785 108.484576,0.441265823 70.0308475,0.441265823 C31.5771186,0.441265823 0.404576271,31.4822785 0.404576271,69.774346" id="path-43"></path>
        <path d="M0.404576271,69.774346 C0.404576271,108.065232 31.5771186,139.107426 70.0308475,139.107426 C108.484576,139.107426 139.657712,108.065232 139.657712,69.774346 C139.657712,31.4822785 108.484576,0.441265823 70.0308475,0.441265823 C31.5771186,0.441265823 0.404576271,31.4822785 0.404576271,69.774346" id="path-45"></path>
        <path d="M0.404576271,69.774346 C0.404576271,108.065232 31.5771186,139.107426 70.0308475,139.107426 C108.484576,139.107426 139.657712,108.065232 139.657712,69.774346 C139.657712,31.4822785 108.484576,0.441265823 70.0308475,0.441265823 C31.5771186,0.441265823 0.404576271,31.4822785 0.404576271,69.774346 Z" id="path-47"></path>
        <path d="M0.404576271,69.774346 C0.404576271,108.065232 31.5771186,139.107426 70.0308475,139.107426 C108.484576,139.107426 139.657712,108.065232 139.657712,69.774346 C139.657712,31.4822785 108.484576,0.441265823 70.0308475,0.441265823 C31.5771186,0.441265823 0.404576271,31.4822785 0.404576271,69.774346 Z" id="path-49"></path>
        <path d="M0.404576271,69.774346 C0.404576271,108.065232 31.5771186,139.107426 70.0308475,139.107426 C108.484576,139.107426 139.657712,108.065232 139.657712,69.774346 C139.657712,31.4822785 108.484576,0.441265823 70.0308475,0.441265823 C31.5771186,0.441265823 0.404576271,31.4822785 0.404576271,69.774346" id="path-51"></path>
        <path d="M0.404576271,69.774346 C0.404576271,108.065232 31.5771186,139.107426 70.0308475,139.107426 C108.484576,139.107426 139.657712,108.065232 139.657712,69.774346 C139.657712,31.4822785 108.484576,0.441265823 70.0308475,0.441265823 C31.5771186,0.441265823 0.404576271,31.4822785 0.404576271,69.774346" id="path-53"></path>
        <path d="M0.404576271,69.774346 C0.404576271,108.065232 31.5771186,139.107426 70.0308475,139.107426 C108.484576,139.107426 139.657712,108.065232 139.657712,69.774346 C139.657712,31.4822785 108.484576,0.441265823 70.0308475,0.441265823 C31.5771186,0.441265823 0.404576271,31.4822785 0.404576271,69.774346" id="path-55"></path>
        <path d="M0.404576271,69.774346 C0.404576271,108.065232 31.5771186,139.107426 70.0308475,139.107426 C108.484576,139.107426 139.657712,108.065232 139.657712,69.774346 C139.657712,31.4822785 108.484576,0.441265823 70.0308475,0.441265823 C31.5771186,0.441265823 0.404576271,31.4822785 0.404576271,69.774346" id="path-57"></path>
        <path d="M0.404576271,69.774346 C0.404576271,108.065232 31.5771186,139.107426 70.0308475,139.107426 C108.484576,139.107426 139.657712,108.065232 139.657712,69.774346 C139.657712,31.4822785 108.484576,0.441265823 70.0308475,0.441265823 C31.5771186,0.441265823 0.404576271,31.4822785 0.404576271,69.774346" id="path-59"></path>
        <path d="M0.404576271,69.774346 C0.404576271,108.065232 31.5771186,139.107426 70.0308475,139.107426 C108.484576,139.107426 139.657712,108.065232 139.657712,69.774346 C139.657712,31.4822785 108.484576,0.441265823 70.0308475,0.441265823 C31.5771186,0.441265823 0.404576271,31.4822785 0.404576271,69.774346" id="path-61"></path>
        <path d="M0.404576271,69.774346 C0.404576271,108.065232 31.5771186,139.107426 70.0308475,139.107426 C108.484576,139.107426 139.657712,108.065232 139.657712,69.774346 C139.657712,31.4822785 108.484576,0.441265823 70.0308475,0.441265823 C31.5771186,0.441265823 0.404576271,31.4822785 0.404576271,69.774346" id="path-63"></path>
        <path d="M0.404576271,69.774346 C0.404576271,108.065232 31.5771186,139.107426 70.0308475,139.107426 C108.484576,139.107426 139.657712,108.065232 139.657712,69.774346 C139.657712,31.4822785 108.484576,0.441265823 70.0308475,0.441265823 C31.5771186,0.441265823 0.404576271,31.4822785 0.404576271,69.774346" id="path-65"></path>
        <path d="M0.404576271,69.774346 C0.404576271,108.065232 31.5771186,139.107426 70.0308475,139.107426 C108.484576,139.107426 139.657712,108.065232 139.657712,69.774346 C139.657712,31.4822785 108.484576,0.441265823 70.0308475,0.441265823 C31.5771186,0.441265823 0.404576271,31.4822785 0.404576271,69.774346" id="path-67"></path>
        <path d="M0.404576271,69.774346 C0.404576271,108.065232 31.5771186,139.107426 70.0308475,139.107426 C108.484576,139.107426 139.657712,108.065232 139.657712,69.774346 C139.657712,31.4822785 108.484576,0.441265823 70.0308475,0.441265823 C31.5771186,0.441265823 0.404576271,31.4822785 0.404576271,69.774346" id="path-69"></path>
        <path d="M0.404576271,69.774346 C0.404576271,108.065232 31.5771186,139.107426 70.0308475,139.107426 C108.484576,139.107426 139.657712,108.065232 139.657712,69.774346 C139.657712,31.4822785 108.484576,0.441265823 70.0308475,0.441265823 C31.5771186,0.441265823 0.404576271,31.4822785 0.404576271,69.774346" id="path-71"></path>
        <path d="M0.404576271,69.774346 C0.404576271,108.065232 31.5771186,139.107426 70.0308475,139.107426 C108.484576,139.107426 139.657712,108.065232 139.657712,69.774346 C139.657712,31.4822785 108.484576,0.441265823 70.0308475,0.441265823 C31.5771186,0.441265823 0.404576271,31.4822785 0.404576271,69.774346" id="path-73"></path>
        <path d="M0.404576271,69.774346 C0.404576271,108.065232 31.5771186,139.107426 70.0308475,139.107426 C108.484576,139.107426 139.657712,108.065232 139.657712,69.774346 C139.657712,31.4822785 108.484576,0.441265823 70.0308475,0.441265823 C31.5771186,0.441265823 0.404576271,31.4822785 0.404576271,69.774346" id="path-75"></path>
        <path d="M0.404576271,69.774346 C0.404576271,108.065232 31.5771186,139.107426 70.0308475,139.107426 C108.484576,139.107426 139.657712,108.065232 139.657712,69.774346 C139.657712,31.4822785 108.484576,0.441265823 70.0308475,0.441265823 C31.5771186,0.441265823 0.404576271,31.4822785 0.404576271,69.774346" id="path-77"></path>
        <path d="M0.404576271,69.774346 C0.404576271,108.065232 31.5771186,139.107426 70.0308475,139.107426 C108.484576,139.107426 139.657712,108.065232 139.657712,69.774346 C139.657712,31.4822785 108.484576,0.441265823 70.0308475,0.441265823 C31.5771186,0.441265823 0.404576271,31.4822785 0.404576271,69.774346" id="path-79"></path>
        <path d="M0.404576271,69.774346 C0.404576271,108.065232 31.5771186,139.107426 70.0308475,139.107426 C108.484576,139.107426 139.657712,108.065232 139.657712,69.774346 C139.657712,31.4822785 108.484576,0.441265823 70.0308475,0.441265823 C31.5771186,0.441265823 0.404576271,31.4822785 0.404576271,69.774346" id="path-81"></path>
        <path d="M0.404576271,69.774346 C0.404576271,108.065232 31.5771186,139.107426 70.0308475,139.107426 C108.484576,139.107426 139.657712,108.065232 139.657712,69.774346 C139.657712,31.4822785 108.484576,0.441265823 70.0308475,0.441265823 C31.5771186,0.441265823 0.404576271,31.4822785 0.404576271,69.774346" id="path-83"></path>
        <path d="M0.404576271,69.774346 C0.404576271,108.065232 31.5771186,139.107426 70.0308475,139.107426 C108.484576,139.107426 139.657712,108.065232 139.657712,69.774346 C139.657712,31.4822785 108.484576,0.441265823 70.0308475,0.441265823 C31.5771186,0.441265823 0.404576271,31.4822785 0.404576271,69.774346" id="path-85"></path>
        <path d="M0.404576271,69.774346 C0.404576271,108.065232 31.5771186,139.107426 70.0308475,139.107426 C108.484576,139.107426 139.657712,108.065232 139.657712,69.774346 C139.657712,31.4822785 108.484576,0.441265823 70.0308475,0.441265823 C31.5771186,0.441265823 0.404576271,31.4822785 0.404576271,69.774346" id="path-87"></path>
        <path d="M0.404576271,69.774346 C0.404576271,108.065232 31.5771186,139.107426 70.0308475,139.107426 C108.484576,139.107426 139.657712,108.065232 139.657712,69.774346 C139.657712,31.4822785 108.484576,0.441265823 70.0308475,0.441265823 C31.5771186,0.441265823 0.404576271,31.4822785 0.404576271,69.774346" id="path-89"></path>
        <path d="M0.404576271,69.774346 C0.404576271,108.065232 31.5771186,139.107426 70.0308475,139.107426 C108.484576,139.107426 139.657712,108.065232 139.657712,69.774346 C139.657712,31.4822785 108.484576,0.441265823 70.0308475,0.441265823 C31.5771186,0.441265823 0.404576271,31.4822785 0.404576271,69.774346" id="path-91"></path>
        <path d="M0.404576271,69.774346 C0.404576271,108.065232 31.5771186,139.107426 70.0308475,139.107426 C108.484576,139.107426 139.657712,108.065232 139.657712,69.774346 C139.657712,31.4822785 108.484576,0.441265823 70.0308475,0.441265823 C31.5771186,0.441265823 0.404576271,31.4822785 0.404576271,69.774346" id="path-93"></path>
        <path d="M0.404576271,69.774346 C0.404576271,108.065232 31.5771186,139.107426 70.0308475,139.107426 C108.484576,139.107426 139.657712,108.065232 139.657712,69.774346 C139.657712,31.4822785 108.484576,0.441265823 70.0308475,0.441265823 C31.5771186,0.441265823 0.404576271,31.4822785 0.404576271,69.774346" id="path-95"></path>
        <path d="M0.404576271,69.774346 C0.404576271,108.065232 31.5771186,139.107426 70.0308475,139.107426 C108.484576,139.107426 139.657712,108.065232 139.657712,69.774346 C139.657712,31.4822785 108.484576,0.441265823 70.0308475,0.441265823 C31.5771186,0.441265823 0.404576271,31.4822785 0.404576271,69.774346" id="path-97"></path>
        <path d="M0.404576271,69.774346 C0.404576271,108.065232 31.5771186,139.107426 70.0308475,139.107426 C108.484576,139.107426 139.657712,108.065232 139.657712,69.774346 C139.657712,31.4822785 108.484576,0.441265823 70.0308475,0.441265823 C31.5771186,0.441265823 0.404576271,31.4822785 0.404576271,69.774346" id="path-99"></path>
        <path d="M0.404576271,69.774346 C0.404576271,108.065232 31.5771186,139.107426 70.0308475,139.107426 C108.484576,139.107426 139.657712,108.065232 139.657712,69.774346 C139.657712,31.4822785 108.484576,0.441265823 70.0308475,0.441265823 C31.5771186,0.441265823 0.404576271,31.4822785 0.404576271,69.774346" id="path-101"></path>
        <path d="M0.404576271,69.774346 C0.404576271,108.065232 31.5771186,139.107426 70.0308475,139.107426 C108.484576,139.107426 139.657712,108.065232 139.657712,69.774346 C139.657712,31.4822785 108.484576,0.441265823 70.0308475,0.441265823 C31.5771186,0.441265823 0.404576271,31.4822785 0.404576271,69.774346" id="path-103"></path>
        <path d="M0.404576271,69.774346 C0.404576271,108.065232 31.5771186,139.107426 70.0308475,139.107426 C108.484576,139.107426 139.657712,108.065232 139.657712,69.774346 C139.657712,31.4822785 108.484576,0.441265823 70.0308475,0.441265823 C31.5771186,0.441265823 0.404576271,31.4822785 0.404576271,69.774346" id="path-105"></path>
        <path d="M0.404576271,69.774346 C0.404576271,108.065232 31.5771186,139.107426 70.0308475,139.107426 C108.484576,139.107426 139.657712,108.065232 139.657712,69.774346 C139.657712,31.4822785 108.484576,0.441265823 70.0308475,0.441265823 C31.5771186,0.441265823 0.404576271,31.4822785 0.404576271,69.774346" id="path-107"></path>
        <path d="M0.404576271,69.774346 C0.404576271,108.065232 31.5771186,139.107426 70.0308475,139.107426 C108.484576,139.107426 139.657712,108.065232 139.657712,69.774346 C139.657712,31.4822785 108.484576,0.441265823 70.0308475,0.441265823 C31.5771186,0.441265823 0.404576271,31.4822785 0.404576271,69.774346" id="path-109"></path>
        <path d="M0.404576271,69.774346 C0.404576271,108.065232 31.5771186,139.107426 70.0308475,139.107426 C108.484576,139.107426 139.657712,108.065232 139.657712,69.774346 C139.657712,31.4822785 108.484576,0.441265823 70.0308475,0.441265823 C31.5771186,0.441265823 0.404576271,31.4822785 0.404576271,69.774346" id="path-111"></path>
        <path d="M0.404576271,69.774346 C0.404576271,108.065232 31.5771186,139.107426 70.0308475,139.107426 C108.484576,139.107426 139.657712,108.065232 139.657712,69.774346 C139.657712,31.4822785 108.484576,0.441265823 70.0308475,0.441265823 C31.5771186,0.441265823 0.404576271,31.4822785 0.404576271,69.774346" id="path-113"></path>
        <path d="M0.404576271,69.774346 C0.404576271,108.065232 31.5771186,139.107426 70.0308475,139.107426 C108.484576,139.107426 139.657712,108.065232 139.657712,69.774346 C139.657712,31.4822785 108.484576,0.441265823 70.0308475,0.441265823 C31.5771186,0.441265823 0.404576271,31.4822785 0.404576271,69.774346" id="path-115"></path>
        <path d="M0.404576271,69.774346 C0.404576271,108.065232 31.5771186,139.107426 70.0308475,139.107426 C108.484576,139.107426 139.657712,108.065232 139.657712,69.774346 C139.657712,31.4822785 108.484576,0.441265823 70.0308475,0.441265823 C31.5771186,0.441265823 0.404576271,31.4822785 0.404576271,69.774346" id="path-117"></path>
        <path d="M0.404576271,69.774346 C0.404576271,108.065232 31.5771186,139.107426 70.0308475,139.107426 C108.484576,139.107426 139.657712,108.065232 139.657712,69.774346 C139.657712,31.4822785 108.484576,0.441265823 70.0308475,0.441265823 C31.5771186,0.441265823 0.404576271,31.4822785 0.404576271,69.774346 Z" id="path-119"></path>
        <path d="M0.404576271,69.774346 C0.404576271,108.065232 31.5771186,139.107426 70.0308475,139.107426 C108.484576,139.107426 139.657712,108.065232 139.657712,69.774346 C139.657712,31.4822785 108.484576,0.441265823 70.0308475,0.441265823 C31.5771186,0.441265823 0.404576271,31.4822785 0.404576271,69.774346 Z" id="path-121"></path>
        <path d="M0.404576271,69.774346 C0.404576271,108.065232 31.5771186,139.107426 70.0308475,139.107426 C108.484576,139.107426 139.657712,108.065232 139.657712,69.774346 C139.657712,31.4822785 108.484576,0.441265823 70.0308475,0.441265823 C31.5771186,0.441265823 0.404576271,31.4822785 0.404576271,69.774346" id="path-123"></path>
        <path d="M0.404576271,69.774346 C0.404576271,108.065232 31.5771186,139.107426 70.0308475,139.107426 C108.484576,139.107426 139.657712,108.065232 139.657712,69.774346 C139.657712,31.4822785 108.484576,0.441265823 70.0308475,0.441265823 C31.5771186,0.441265823 0.404576271,31.4822785 0.404576271,69.774346" id="path-125"></path>
        <path d="M0.404576271,69.774346 C0.404576271,108.065232 31.5771186,139.107426 70.0308475,139.107426 C108.484576,139.107426 139.657712,108.065232 139.657712,69.774346 C139.657712,31.4822785 108.484576,0.441265823 70.0308475,0.441265823 C31.5771186,0.441265823 0.404576271,31.4822785 0.404576271,69.774346" id="path-127"></path>
        <path d="M0.404576271,69.774346 C0.404576271,108.065232 31.5771186,139.107426 70.0308475,139.107426 C108.484576,139.107426 139.657712,108.065232 139.657712,69.774346 C139.657712,31.4822785 108.484576,0.441265823 70.0308475,0.441265823 C31.5771186,0.441265823 0.404576271,31.4822785 0.404576271,69.774346" id="path-129"></path>
        <path d="M0.404576271,69.774346 C0.404576271,108.065232 31.5771186,139.107426 70.0308475,139.107426 C108.484576,139.107426 139.657712,108.065232 139.657712,69.774346 C139.657712,31.4822785 108.484576,0.441265823 70.0308475,0.441265823 C31.5771186,0.441265823 0.404576271,31.4822785 0.404576271,69.774346" id="path-131"></path>
        <path d="M0.404576271,69.774346 C0.404576271,108.065232 31.5771186,139.107426 70.0308475,139.107426 C108.484576,139.107426 139.657712,108.065232 139.657712,69.774346 C139.657712,31.4822785 108.484576,0.441265823 70.0308475,0.441265823 C31.5771186,0.441265823 0.404576271,31.4822785 0.404576271,69.774346" id="path-133"></path>
        <path d="M0.404576271,69.774346 C0.404576271,108.065232 31.5771186,139.107426 70.0308475,139.107426 C108.484576,139.107426 139.657712,108.065232 139.657712,69.774346 C139.657712,31.4822785 108.484576,0.441265823 70.0308475,0.441265823 C31.5771186,0.441265823 0.404576271,31.4822785 0.404576271,69.774346" id="path-135"></path>
        <path d="M0.404576271,69.774346 C0.404576271,108.065232 31.5771186,139.107426 70.0308475,139.107426 C108.484576,139.107426 139.657712,108.065232 139.657712,69.774346 C139.657712,31.4822785 108.484576,0.441265823 70.0308475,0.441265823 C31.5771186,0.441265823 0.404576271,31.4822785 0.404576271,69.774346" id="path-137"></path>
        <path d="M0.404576271,69.774346 C0.404576271,108.065232 31.5771186,139.107426 70.0308475,139.107426 C108.484576,139.107426 139.657712,108.065232 139.657712,69.774346 C139.657712,31.4822785 108.484576,0.441265823 70.0308475,0.441265823 C31.5771186,0.441265823 0.404576271,31.4822785 0.404576271,69.774346" id="path-139"></path>
        <path d="M0.404576271,69.774346 C0.404576271,108.065232 31.5771186,139.107426 70.0308475,139.107426 C108.484576,139.107426 139.657712,108.065232 139.657712,69.774346 C139.657712,31.4822785 108.484576,0.441265823 70.0308475,0.441265823 C31.5771186,0.441265823 0.404576271,31.4822785 0.404576271,69.774346" id="path-141"></path>
        <path d="M0.404576271,69.774346 C0.404576271,108.065232 31.5771186,139.107426 70.0308475,139.107426 C108.484576,139.107426 139.657712,108.065232 139.657712,69.774346 C139.657712,31.4822785 108.484576,0.441265823 70.0308475,0.441265823 C31.5771186,0.441265823 0.404576271,31.4822785 0.404576271,69.774346" id="path-143"></path>
        <path d="M0.404576271,69.774346 C0.404576271,108.065232 31.5771186,139.107426 70.0308475,139.107426 C108.484576,139.107426 139.657712,108.065232 139.657712,69.774346 C139.657712,31.4822785 108.484576,0.441265823 70.0308475,0.441265823 C31.5771186,0.441265823 0.404576271,31.4822785 0.404576271,69.774346" id="path-145"></path>
    </defs>
    <g id="Symbols" stroke="none" stroke-width="1" fill="none" fill-rule="evenodd">
        <g id="Mobile/FeaturesofOrchid/IconVer" transform="translate(-118.000000, -700.000000)">
            <g id="Group-220" transform="translate(117.597713, 699.997239)">
                <g id="Group-3" transform="translate(0.000000, 0.339072)">
                    <mask id="mask-2" fill="white">
                        <use xlink:href="#path-1"></use>
                    </mask>
                    <g id="Clip-2"></g>
                    <path d="M-94.3218559,124.784422 C-94.3218559,50.787038 -34.0809237,-9.19971308 40.2294153,-9.19971308 C114.540941,-9.19971308 174.781873,50.787038 174.781873,124.784422" id="Fill-1" fill="#F4F6F1" mask="url(#mask-2)"></path>
                </g>
                <g id="Group-6" transform="translate(0.000000, 0.339072)">
                    <mask id="mask-4" fill="white">
                        <use xlink:href="#path-3"></use>
                    </mask>
                    <g id="Clip-5"></g>
                    <path d="M93.5615254,87.4613671 C79.6849153,79.7347848 66.1209322,92.4145316 66.1209322,92.4145316 L68.8948305,96.9784135 C71.0695763,94.0106498 76.1647458,88.2245738 82.6694068,88.5016203 C91.3986441,88.8731814 95.0540678,91.7700591 97.4411864,96.8963038 C98.6181356,99.4245738 99.0695763,101.499764 99.225,102.955291 L102.885763,103.163814 C101.388475,91.8492152 93.5615254,87.4613671 93.5615254,87.4613671" id="Fill-4" fill="#F9D9A0" mask="url(#mask-4)"></path>
                </g>
                <g id="Group-9" transform="translate(0.000000, 0.339072)">
                    <mask id="mask-6" fill="white">
                        <use xlink:href="#path-5"></use>
                    </mask>
                    <g id="Clip-8"></g>
                    <path d="M82.6692288,88.5015021 C76.1645678,88.2244557 71.0693983,94.0111224 68.8946525,96.9788861 L72.1235508,102.289435 C72.1235508,102.289435 73.7104153,90.724962 85.1862627,91.9991392 C95.8582966,93.1841181 95.6221949,102.749603 95.6221949,102.749603 L99.224822,102.955173 C99.0693983,101.499646 98.6185508,99.4244557 97.4410085,96.8961857 C95.0538898,91.7705316 91.3984661,88.8730633 82.6692288,88.5015021" id="Fill-7" fill="#BEA9D3" mask="url(#mask-6)"></path>
                </g>
                <g id="Group-12" transform="translate(0.000000, 0.339072)">
                    <mask id="mask-8" fill="white">
                        <use xlink:href="#path-7"></use>
                    </mask>
                    <g id="Clip-11"></g>
                    <path d="M86.2031017,82.4832743 C73.2655593,80.6514599 64.2741186,89.3763544 64.2741186,89.3763544 L66.1208136,92.4144135 C66.1208136,92.4144135 79.6853898,79.7352574 93.5614068,87.4612489 C93.5614068,87.4612489 101.388949,91.849097 102.885644,103.163696 L106.097932,103.346819 C104.898441,95.7017553 99.1412373,84.3150886 86.2031017,82.4832743" id="Fill-10" fill="#E29ABB" mask="url(#mask-8)"></path>
                </g>
                <g id="Group-15" transform="translate(0.000000, 0.339072)">
                    <mask id="mask-10" fill="white">
                        <use xlink:href="#path-9"></use>
                    </mask>
                    <g id="Clip-14"></g>
                    <path d="M-6.05197458,146.006118 C-6.05197458,146.006118 5.01455085,146.605105 4.84726271,152.923418 C4.67997458,159.24173 -9.9085,161.365359 -13.7656186,161.365359 C-17.6221441,161.365359 -28.6886695,166.104093 -29.1923136,172.804008 C-29.6947712,179.503333 -24.9994322,184.568734 -11.4176525,184.895401 C2.16472034,185.222068 2.66717797,194.699536 3.50539831,197.640717 C4.34421186,200.581899 10.7165847,219.045949 58.3373475,218.555654 C58.3373475,218.555654 83.6577712,218.065359 105.958703,206.464262 C105.958703,206.464262 116.522771,194.863165 95.8976864,192.575316 C95.8976864,192.575316 71.2493814,193.392278 73.0931102,189.14384 C74.9374322,184.895401 88.5198051,186.529325 88.5198051,186.529325 C88.5198051,186.529325 114.007517,188.817173 116.522771,178.686371 C119.038025,168.554979 112.331076,163.490169 101.096076,163.32654 C89.8616695,163.162911 72.4227712,163.061308 72.4227712,155.84038 C72.4227712,148.620633 84.3275169,145.243502 104.281669,146.931772 L129.9515,146.931772 C129.9515,146.931772 140.347686,145.127722 140.514975,135.272785 C140.682856,125.417257 130.957602,122.490253 123.076669,122.074979 L-7.30960169,124.600886 C-7.30960169,124.600886 -17.1185,126.561477 -17.1185,136.447131 C-17.1185,146.332785 -6.05197458,146.006118 -6.05197458,146.006118" id="Fill-13" fill="#2EBF8B" mask="url(#mask-10)"></path>
                </g>
                <g id="Group-18" transform="translate(0.000000, 0.339072)">
                    <mask id="mask-12" fill="white">
                        <use xlink:href="#path-11"></use>
                    </mask>
                    <g id="Clip-17"></g>
                    <path d="M30.5516186,70.9798228 L106.140347,70.9798228 C106.140347,70.9798228 116.372805,71.6372911 116.372805,63.091384 C116.372805,54.5454768 104.984754,50.437038 98.8787373,56.5178819 C98.8787373,56.5178819 97.2278051,31.5376287 70.8217881,31.5376287 C70.8217881,31.5376287 52.3370424,34.5071646 52.3370424,51.2646329 C52.3370424,51.2646329 30.2668729,36.5847173 23.2900085,54.8739156 C23.2900085,54.8739156 18.9986525,70.9798228 30.5516186,70.9798228" id="Fill-16" fill="#D3E7ED" mask="url(#mask-12)"></path>
                </g>
                <g id="Group-21" transform="translate(0.000000, 0.339072)">
                    <mask id="mask-14" fill="white">
                        <use xlink:href="#path-13"></use>
                    </mask>
                    <g id="Clip-20"></g>
                    <path d="M77.6065678,43.6257131 C77.6065678,44.3115359 77.0483475,44.8674008 76.3590254,44.8674008 C75.6702966,44.8674008 75.1126695,44.3115359 75.1126695,43.6257131 C75.1126695,42.9398903 75.6702966,42.3840253 76.3590254,42.3840253 C77.0483475,42.3840253 77.6065678,42.9398903 77.6065678,43.6257131" id="Fill-19" fill="#333244" mask="url(#mask-14)"></path>
                </g>
                <g id="Group-24" transform="translate(0.000000, 0.339072)">
                    <mask id="mask-16" fill="white">
                        <use xlink:href="#path-15"></use>
                    </mask>
                    <g id="Clip-23"></g>
                    <path d="M87.1421695,48.4463797 C87.1421695,49.0920338 86.6165763,49.6154093 85.9681864,49.6154093 C85.3203898,49.6154093 84.7947966,49.0920338 84.7947966,48.4463797 C84.7947966,47.8013165 85.3203898,47.2779409 85.9681864,47.2779409 C86.6165763,47.2779409 87.1421695,47.8013165 87.1421695,48.4463797" id="Fill-22" fill="#333244" mask="url(#mask-16)"></path>
                </g>
                <g id="Group-27" transform="translate(0.000000, 0.339072)">
                    <mask id="mask-18" fill="white">
                        <use xlink:href="#path-17"></use>
                    </mask>
                    <g id="Clip-26"></g>
                    <path d="M76.7167373,48.6205823 C76.7167373,48.6205823 77.3402119,51.9799916 81.521822,51.4323966 C81.521822,51.4323966 84.3087712,51.2864895 81.8148729,53.2588945 C81.8148729,53.2588945 76.0493644,56.4233671 75.5065678,49.7890211 C75.5065678,49.7890211 75.5919915,46.7946751 76.7167373,48.6205823" id="Fill-25" fill="#D384A8" mask="url(#mask-18)"></path>
                </g>
                <g id="Group-30" transform="translate(0.000000, 0.339072)">
                    <mask id="mask-20" fill="white">
                        <use xlink:href="#path-19"></use>
                    </mask>
                    <g id="Clip-29"></g>
                    <path d="M-25.5147034,127.671376 L37.297839,79.7565232 C37.297839,79.7565232 51.1275847,66.5581266 66.9748729,83.1992236 L70.0406356,86.1569451 L113.075805,127.671376 L31.0547881,127.671376 L-25.5147034,127.671376 Z" id="Fill-28" fill="#87C1A3" mask="url(#mask-20)"></path>
                </g>
                <g id="Group-33" transform="translate(0.000000, 0.339072)">
                    <mask id="mask-22" fill="white">
                        <use xlink:href="#path-21"></use>
                    </mask>
                    <g id="Clip-32"></g>
                    <path d="M89.1715169,104.611485 L100.001347,96.2321603 C100.001347,96.2321603 102.946093,93.9555359 107.219653,94.1303882 C111.492619,94.3058312 119.935331,104.611485 119.935331,104.611485 L136.644568,123.084397 L74.5557542,123.084397 L89.1715169,104.611485 Z" id="Fill-31" fill="#87C1A3" mask="url(#mask-22)"></path>
                </g>
                <g id="Group-36" transform="translate(0.000000, 0.339072)">
                    <mask id="mask-24" fill="white">
                        <use xlink:href="#path-23"></use>
                    </mask>
                    <g id="Clip-35"></g>
                    <path d="M69.2209831,129.627004 C69.2209831,129.627004 68.6348814,110.331814 86.3407288,101.881013 L92.7006441,101.881013 C92.7006441,101.881013 83.8782712,107.033249 80.8884407,121.687173 C80.8884407,121.687173 80.1842881,127.758565 80.5953898,129.860928" id="Fill-34" fill="#86E1E0" mask="url(#mask-24)"></path>
                </g>
                <g id="Group-39" transform="translate(0.000000, 0.339072)">
                    <mask id="mask-26" fill="white">
                        <use xlink:href="#path-25"></use>
                    </mask>
                    <g id="Clip-38"></g>
                    <path d="M68.773161,121.603882 C68.773161,122.612827 67.9515508,123.429789 66.9389237,123.429789 C65.9257034,123.429789 65.1046864,122.612827 65.1046864,121.603882 C65.1046864,120.594937 65.9257034,119.777384 66.9389237,119.777384 C67.9515508,119.777384 68.773161,120.594937 68.773161,121.603882" id="Fill-37" fill="#F4FFFF" mask="url(#mask-26)"></path>
                </g>
                <g id="Group-42" transform="translate(0.000000, 0.339072)">
                    <mask id="mask-28" fill="white">
                        <use xlink:href="#path-27"></use>
                    </mask>
                    <g id="Clip-41"></g>
                    <path d="M77.0568305,125.026439 C77.0568305,125.607114 76.5840339,126.077916 76.0008983,126.077916 C75.4177627,126.077916 74.9449661,125.607114 74.9449661,125.026439 C74.9449661,124.445764 75.4177627,123.974962 76.0008983,123.974962 C76.5840339,123.974962 77.0568305,124.445764 77.0568305,125.026439" id="Fill-40" fill="#F4FFFF" mask="url(#mask-28)"></path>
                </g>
                <g id="Group-45" transform="translate(0.000000, 0.339072)">
                    <mask id="mask-30" fill="white">
                        <use xlink:href="#path-29"></use>
                    </mask>
                    <g id="Clip-44"></g>
                    <path d="M80.3589322,123.365932 C80.3589322,123.785342 80.0172373,124.125595 79.5960508,124.125595 C79.1748644,124.125595 78.8337627,123.785342 78.8337627,123.365932 C78.8337627,122.946523 79.1748644,122.60627 79.5960508,122.60627 C80.0172373,122.60627 80.3589322,122.946523 80.3589322,123.365932" id="Fill-43" fill="#F4FFFF" mask="url(#mask-30)"></path>
                </g>
                <g id="Group-48" transform="translate(0.000000, 0.339072)">
                    <mask id="mask-32" fill="white">
                        <use xlink:href="#path-31"></use>
                    </mask>
                    <g id="Clip-47"></g>
                    <path d="M77.9953051,118.000152 C77.9953051,119.06935 77.1250508,119.935932 76.051322,119.935932 C74.9775932,119.935932 74.1067458,119.06935 74.1067458,118.000152 C74.1067458,116.930954 74.9775932,116.063781 76.051322,116.063781 C77.1250508,116.063781 77.9953051,116.930954 77.9953051,118.000152" id="Fill-46" fill="#F4FFFF" mask="url(#mask-32)"></path>
                </g>
                <g id="Group-51" transform="translate(0.000000, 0.339072)">
                    <mask id="mask-34" fill="white">
                        <use xlink:href="#path-33"></use>
                    </mask>
                    <g id="Clip-50"></g>
                    <path d="M73.8050932,114.64535 C73.8050932,115.336489 73.2427203,115.89708 72.5480593,115.89708 C71.8539915,115.89708 71.2916186,115.336489 71.2916186,114.64535 C71.2916186,113.954211 71.8539915,113.39362 72.5480593,113.39362 C73.2427203,113.39362 73.8050932,113.954211 73.8050932,114.64535" id="Fill-49" fill="#F4FFFF" mask="url(#mask-34)"></path>
                </g>
                <g id="Group-54" transform="translate(0.000000, 0.339072)">
                    <mask id="mask-36" fill="white">
                        <use xlink:href="#path-35"></use>
                    </mask>
                    <g id="Clip-53"></g>
                    <path d="M72.6169322,123.871823 C72.7943051,124.648616 72.3054915,125.421274 71.5248136,125.597308 C70.7447288,125.773342 69.9687966,125.286591 69.7920169,124.509797 C69.6146441,123.733004 70.1040508,122.960346 70.8841356,122.784312 C71.6648136,122.607688 72.4401525,123.09503 72.6169322,123.871823" id="Fill-52" fill="#F4FFFF" mask="url(#mask-36)"></path>
                </g>
                <g id="Group-57" transform="translate(0.000000, 0.339072)">
                    <mask id="mask-38" fill="white">
                        <use xlink:href="#path-37"></use>
                    </mask>
                    <g id="Clip-56"></g>
                    <path d="M64.2041186,129.883435 C64.2041186,126.730776 66.7703898,124.175333 69.9364068,124.175333 C73.1018305,124.175333 75.6681017,126.730776 75.6681017,129.883435" id="Fill-55" fill="#BEFAEB" mask="url(#mask-38)"></path>
                </g>
                <g id="Group-60" transform="translate(0.000000, 0.339072)">
                    <mask id="mask-40" fill="white">
                        <use xlink:href="#path-39"></use>
                    </mask>
                    <g id="Clip-59"></g>
                    <path d="M62.3937288,129.883435 C62.3937288,127.999046 63.9277966,126.471451 65.8201695,126.471451 C67.7125424,126.471451 69.2466102,127.999046 69.2466102,129.883435" id="Fill-58" fill="#F4FFFF" mask="url(#mask-40)"></path>
                </g>
                <g id="Group-63" transform="translate(0.000000, 0.339072)">
                    <mask id="mask-42" fill="white">
                        <use xlink:href="#path-41"></use>
                    </mask>
                    <g id="Clip-62"></g>
                    <path d="M77.7670339,129.883435 C77.7670339,127.421916 79.7709322,125.426473 82.2428814,125.426473 C84.7148305,125.426473 86.7187288,127.421916 86.7187288,129.883435" id="Fill-61" fill="#BEFAEB" mask="url(#mask-42)"></path>
                </g>
                <g id="Group-66" transform="translate(0.000000, 0.339072)">
                    <mask id="mask-44" fill="white">
                        <use xlink:href="#path-43"></use>
                    </mask>
                    <g id="Clip-65"></g>
                    <path d="M76.3535085,129.883435 C76.3535085,128.411958 77.5512203,127.2193 79.0289322,127.2193 C80.5060508,127.2193 81.7043559,128.411958 81.7043559,129.883435" id="Fill-64" fill="#F4FFFF" mask="url(#mask-44)"></path>
                </g>
                <g id="Group-69" transform="translate(0.000000, 0.339072)">
                    <mask id="mask-46" fill="white">
                        <use xlink:href="#path-45"></use>
                    </mask>
                    <g id="Clip-68"></g>
                    <path d="M84.2432203,125.426473 C84.2432203,125.845882 83.9015254,126.186135 83.480339,126.186135 C83.0591525,126.186135 82.7180508,125.845882 82.7180508,125.426473 C82.7180508,125.007063 83.0591525,124.66681 83.480339,124.66681 C83.9015254,124.66681 84.2432203,125.007063 84.2432203,125.426473" id="Fill-67" fill="#F4FFFF" mask="url(#mask-46)"></path>
                </g>
                <g id="Group-72" transform="translate(0.000000, 0.339072)">
                    <mask id="mask-48" fill="white">
                        <use xlink:href="#path-47"></use>
                    </mask>
                    <g id="Clip-71"></g>
                    <polygon id="Fill-70" fill="#58A579" mask="url(#mask-48)" points="96.7338898 110.222177 86.6491441 133.094751 106.819229 133.094751"></polygon>
                </g>
                <g id="Group-75" transform="translate(0.000000, 0.339072)">
                    <mask id="mask-50" fill="white">
                        <use xlink:href="#path-49"></use>
                    </mask>
                    <g id="Clip-74"></g>
                    <polygon id="Fill-73" fill="#62BC8B" mask="url(#mask-50)" points="112.028415 105.963696 101.943076 133.574414 122.113161 133.574414"></polygon>
                </g>
                <g id="Group-78" transform="translate(0.000000, 0.339072)">
                    <mask id="mask-52" fill="white">
                        <use xlink:href="#path-51"></use>
                    </mask>
                    <g id="Clip-77"></g>
                    <path d="M114.763992,131.474709 C113.95128,131.474709 113.204415,131.752346 112.608822,132.213696 C111.969331,129.748633 109.726958,127.925089 107.051534,127.925089 C105.226195,127.925089 103.603144,128.773949 102.551364,130.095384 C102.05128,129.003738 100.949669,128.244667 99.6665339,128.244667 C98.3039068,128.244667 97.1453475,129.101797 96.6968729,130.303316 C96.2572966,129.391249 95.3235678,128.760363 94.2403475,128.760363 C93.1933136,128.760363 92.2850932,129.348717 91.8289068,130.211165 C91.0790763,128.747958 89.5556864,127.744329 87.7932288,127.744329 C86.2508559,127.744329 84.8900085,128.513443 84.0719576,129.686017 C83.4906017,129.336312 82.8119576,129.131333 82.0828898,129.131333 C79.9544153,129.131333 78.2293305,130.849139 78.2293305,132.968633 L77.7974661,132.968633 C76.2912797,132.968633 75.0710254,134.183738 75.0710254,135.68357 C75.0710254,137.18281 76.2912797,138.397916 77.7974661,138.397916 L114.033737,138.397916 C114.269246,138.448127 114.513059,138.4753 114.763992,138.4753 C116.705008,138.4753 118.279415,136.907536 118.279415,134.974709 C118.279415,133.041882 116.705008,131.474709 114.763992,131.474709" id="Fill-76" fill="#5FB280" mask="url(#mask-52)"></path>
                </g>
                <g id="Group-81" transform="translate(0.000000, 0.339072)">
                    <mask id="mask-54" fill="white">
                        <use xlink:href="#path-53"></use>
                    </mask>
                    <g id="Clip-80"></g>
                    <path d="M49.6238898,123.359848 L49.6238898,125.974363" id="Stroke-79" stroke="#86E1E0" stroke-width="0.83272" stroke-linecap="round" mask="url(#mask-54)"></path>
                </g>
                <g id="Group-84" transform="translate(0.000000, 0.339072)">
                    <mask id="mask-56" fill="white">
                        <use xlink:href="#path-55"></use>
                    </mask>
                    <g id="Clip-83"></g>
                    <path d="M63.4220169,123.359848 L63.4220169,125.974363" id="Stroke-82" stroke="#86E1E0" stroke-width="0.83272" stroke-linecap="round" mask="url(#mask-56)"></path>
                </g>
                <g id="Group-87" transform="translate(0.000000, 0.339072)">
                    <mask id="mask-58" fill="white">
                        <use xlink:href="#path-57"></use>
                    </mask>
                    <g id="Clip-86"></g>
                    <path d="M77.2202034,123.359848 L77.2202034,125.974363" id="Stroke-85" stroke="#86E1E0" stroke-width="0.83272" stroke-linecap="round" mask="url(#mask-58)"></path>
                </g>
                <g id="Group-90" transform="translate(0.000000, 0.339072)">
                    <mask id="mask-60" fill="white">
                        <use xlink:href="#path-59"></use>
                    </mask>
                    <g id="Clip-89"></g>
                    <path d="M49.6238898,81.2752574 L49.6238898,83.8897722" id="Stroke-88" stroke="#D3E7ED" stroke-width="0.83272" stroke-linecap="round" mask="url(#mask-60)"></path>
                </g>
                <g id="Group-93" transform="translate(0.000000, 0.339072)">
                    <mask id="mask-62" fill="white">
                        <use xlink:href="#path-61"></use>
                    </mask>
                    <g id="Clip-92"></g>
                    <path d="M63.4220169,81.2752574 L63.4220169,83.8897722" id="Stroke-91" stroke="#D3E7ED" stroke-width="0.83272" stroke-linecap="round" mask="url(#mask-62)"></path>
                </g>
                <g id="Group-96" transform="translate(0.000000, 0.339072)">
                    <mask id="mask-64" fill="white">
                        <use xlink:href="#path-63"></use>
                    </mask>
                    <g id="Clip-95"></g>
                    <path d="M91.0183305,81.2752574 L91.0183305,83.8897722" id="Stroke-94" stroke="#D3E7ED" stroke-width="0.83272" stroke-linecap="round" mask="url(#mask-64)"></path>
                </g>
                <g id="Group-99" transform="translate(0.000000, 0.339072)">
                    <mask id="mask-66" fill="white">
                        <use xlink:href="#path-65"></use>
                    </mask>
                    <g id="Clip-98"></g>
                    <path d="M104.816517,81.2752574 L104.816517,83.8897722" id="Stroke-97" stroke="#D3E7ED" stroke-width="0.83272" stroke-linecap="round" mask="url(#mask-66)"></path>
                </g>
                <g id="Group-102" transform="translate(0.000000, 0.339072)">
                    <mask id="mask-68" fill="white">
                        <use xlink:href="#path-67"></use>
                    </mask>
                    <g id="Clip-101"></g>
                    <path d="M77.2202034,81.2752574 L77.2202034,83.8897722" id="Stroke-100" stroke="#D3E7ED" stroke-width="0.83272" stroke-linecap="round" mask="url(#mask-68)"></path>
                </g>
                <g id="Group-105" transform="translate(0.000000, 0.339072)">
                    <mask id="mask-70" fill="white">
                        <use xlink:href="#path-69"></use>
                    </mask>
                    <g id="Clip-104"></g>
                    <path d="M49.6238898,95.3036709 L49.6238898,97.9181857" id="Stroke-103" stroke="#D3E7ED" stroke-width="0.83272" stroke-linecap="round" mask="url(#mask-70)"></path>
                </g>
                <g id="Group-108" transform="translate(0.000000, 0.339072)">
                    <mask id="mask-72" fill="white">
                        <use xlink:href="#path-71"></use>
                    </mask>
                    <g id="Clip-107"></g>
                    <path d="M63.4220169,95.3036709 L63.4220169,97.9181857" id="Stroke-106" stroke="#D3E7ED" stroke-width="0.83272" stroke-linecap="round" mask="url(#mask-72)"></path>
                </g>
                <g id="Group-111" transform="translate(0.000000, 0.339072)">
                    <mask id="mask-74" fill="white">
                        <use xlink:href="#path-73"></use>
                    </mask>
                    <g id="Clip-110"></g>
                    <path d="M91.0183305,95.3036709 L91.0183305,97.9181857" id="Stroke-109" stroke="#D3E7ED" stroke-width="0.83272" stroke-linecap="round" mask="url(#mask-74)"></path>
                </g>
                <g id="Group-114" transform="translate(0.000000, 0.339072)">
                    <mask id="mask-76" fill="white">
                        <use xlink:href="#path-75"></use>
                    </mask>
                    <g id="Clip-113"></g>
                    <path d="M104.816517,95.3036709 L104.816517,97.9181857" id="Stroke-112" stroke="#D3E7ED" stroke-width="0.83272" stroke-linecap="round" mask="url(#mask-76)"></path>
                </g>
                <g id="Group-117" transform="translate(0.000000, 0.339072)">
                    <mask id="mask-78" fill="white">
                        <use xlink:href="#path-77"></use>
                    </mask>
                    <g id="Clip-116"></g>
                    <path d="M77.2202034,95.3036709 L77.2202034,97.9181857" id="Stroke-115" stroke="#D3E7ED" stroke-width="0.83272" stroke-linecap="round" mask="url(#mask-78)"></path>
                </g>
                <g id="Group-120" transform="translate(0.000000, 0.339072)">
                    <mask id="mask-80" fill="white">
                        <use xlink:href="#path-79"></use>
                    </mask>
                    <g id="Clip-119"></g>
                    <path d="M49.6238898,109.331789 L49.6238898,111.946304" id="Stroke-118" stroke="#D3E7ED" stroke-width="0.83272" stroke-linecap="round" mask="url(#mask-80)"></path>
                </g>
                <g id="Group-123" transform="translate(0.000000, 0.339072)">
                    <mask id="mask-82" fill="white">
                        <use xlink:href="#path-81"></use>
                    </mask>
                    <g id="Clip-122"></g>
                    <path d="M63.4220169,109.331789 L63.4220169,111.946304" id="Stroke-121" stroke="#D3E7ED" stroke-width="0.83272" stroke-linecap="round" mask="url(#mask-82)"></path>
                </g>
                <g id="Group-126" transform="translate(0.000000, 0.339072)">
                    <mask id="mask-84" fill="white">
                        <use xlink:href="#path-83"></use>
                    </mask>
                    <g id="Clip-125"></g>
                    <path d="M91.0183305,109.331789 L91.0183305,111.946304" id="Stroke-124" stroke="#D3E7ED" stroke-width="0.83272" stroke-linecap="round" mask="url(#mask-84)"></path>
                </g>
                <g id="Group-129" transform="translate(0.000000, 0.339072)">
                    <mask id="mask-86" fill="white">
                        <use xlink:href="#path-85"></use>
                    </mask>
                    <g id="Clip-128"></g>
                    <path d="M104.816517,109.331789 L104.816517,111.946304" id="Stroke-127" stroke="#D3E7ED" stroke-width="0.83272" stroke-linecap="round" mask="url(#mask-86)"></path>
                </g>
                <g id="Group-132" transform="translate(0.000000, 0.339072)">
                    <mask id="mask-88" fill="white">
                        <use xlink:href="#path-87"></use>
                    </mask>
                    <g id="Clip-131"></g>
                    <path d="M77.2202034,109.331789 L77.2202034,111.946304" id="Stroke-130" stroke="#D3E7ED" stroke-width="0.83272" stroke-linecap="round" mask="url(#mask-88)"></path>
                </g>
                <g id="Group-135" transform="translate(0.000000, 0.339072)">
                    <mask id="mask-90" fill="white">
                        <use xlink:href="#path-89"></use>
                    </mask>
                    <g id="Clip-134"></g>
                    <path d="M56.5229237,74.2613755 L56.5229237,76.8758903" id="Stroke-133" stroke="#D3E7ED" stroke-width="0.83272" stroke-linecap="round" mask="url(#mask-90)"></path>
                </g>
                <g id="Group-138" transform="translate(0.000000, 0.339072)">
                    <mask id="mask-92" fill="white">
                        <use xlink:href="#path-91"></use>
                    </mask>
                    <g id="Clip-137"></g>
                    <path d="M70.3211102,74.2613755 L70.3211102,76.8758903" id="Stroke-136" stroke="#D3E7ED" stroke-width="0.83272" stroke-linecap="round" mask="url(#mask-92)"></path>
                </g>
                <g id="Group-141" transform="translate(0.000000, 0.339072)">
                    <mask id="mask-94" fill="white">
                        <use xlink:href="#path-93"></use>
                    </mask>
                    <g id="Clip-140"></g>
                    <path d="M84.1192966,74.2613755 L84.1192966,76.8758903" id="Stroke-139" stroke="#D3E7ED" stroke-width="0.83272" stroke-linecap="round" mask="url(#mask-94)"></path>
                </g>
                <g id="Group-144" transform="translate(0.000000, 0.339072)">
                    <mask id="mask-96" fill="white">
                        <use xlink:href="#path-95"></use>
                    </mask>
                    <g id="Clip-143"></g>
                    <path d="M97.9174237,74.2613755 L97.9174237,76.8758903" id="Stroke-142" stroke="#D3E7ED" stroke-width="0.83272" stroke-linecap="round" mask="url(#mask-96)"></path>
                </g>
                <g id="Group-147" transform="translate(0.000000, 0.339072)">
                    <mask id="mask-98" fill="white">
                        <use xlink:href="#path-97"></use>
                    </mask>
                    <g id="Clip-146"></g>
                    <path d="M56.5229237,88.2894937 L56.5229237,90.9040084" id="Stroke-145" stroke="#D3E7ED" stroke-width="0.83272" stroke-linecap="round" mask="url(#mask-98)"></path>
                </g>
                <g id="Group-150" transform="translate(0.000000, 0.339072)">
                    <mask id="mask-100" fill="white">
                        <use xlink:href="#path-99"></use>
                    </mask>
                    <g id="Clip-149"></g>
                    <path d="M70.3211102,88.2894937 L70.3211102,90.9040084" id="Stroke-148" stroke="#D3E7ED" stroke-width="0.83272" stroke-linecap="round" mask="url(#mask-100)"></path>
                </g>
                <g id="Group-153" transform="translate(0.000000, 0.339072)">
                    <mask id="mask-102" fill="white">
                        <use xlink:href="#path-101"></use>
                    </mask>
                    <g id="Clip-152"></g>
                    <path d="M84.1192966,88.2894937 L84.1192966,90.9040084" id="Stroke-151" stroke="#D3E7ED" stroke-width="0.83272" stroke-linecap="round" mask="url(#mask-102)"></path>
                </g>
                <g id="Group-156" transform="translate(0.000000, 0.339072)">
                    <mask id="mask-104" fill="white">
                        <use xlink:href="#path-103"></use>
                    </mask>
                    <g id="Clip-155"></g>
                    <path d="M97.9174237,88.2894937 L97.9174237,90.9040084" id="Stroke-154" stroke="#D3E7ED" stroke-width="0.83272" stroke-linecap="round" mask="url(#mask-104)"></path>
                </g>
                <g id="Group-159" transform="translate(0.000000, 0.339072)">
                    <mask id="mask-106" fill="white">
                        <use xlink:href="#path-105"></use>
                    </mask>
                    <g id="Clip-158"></g>
                    <path d="M56.5229237,102.317553 L56.5229237,104.932068" id="Stroke-157" stroke="#D3E7ED" stroke-width="0.83272" stroke-linecap="round" mask="url(#mask-106)"></path>
                </g>
                <g id="Group-162" transform="translate(0.000000, 0.339072)">
                    <mask id="mask-108" fill="white">
                        <use xlink:href="#path-107"></use>
                    </mask>
                    <g id="Clip-161"></g>
                    <path d="M70.3211102,102.317553 L70.3211102,104.932068" id="Stroke-160" stroke="#D3E7ED" stroke-width="0.83272" stroke-linecap="round" mask="url(#mask-108)"></path>
                </g>
                <g id="Group-165" transform="translate(0.000000, 0.339072)">
                    <mask id="mask-110" fill="white">
                        <use xlink:href="#path-109"></use>
                    </mask>
                    <g id="Clip-164"></g>
                    <path d="M97.9174237,102.317553 L97.9174237,104.932068" id="Stroke-163" stroke="#D3E7ED" stroke-width="0.83272" stroke-linecap="round" mask="url(#mask-110)"></path>
                </g>
                <g id="Group-168" transform="translate(0.000000, 0.339072)">
                    <mask id="mask-112" fill="white">
                        <use xlink:href="#path-111"></use>
                    </mask>
                    <g id="Clip-167"></g>
                    <path d="M56.5229237,116.345671 L56.5229237,118.960186" id="Stroke-166" stroke="#D3E7ED" stroke-width="0.83272" stroke-linecap="round" mask="url(#mask-112)"></path>
                </g>
                <g id="Group-171" transform="translate(0.000000, 0.339072)">
                    <mask id="mask-114" fill="white">
                        <use xlink:href="#path-113"></use>
                    </mask>
                    <g id="Clip-170"></g>
                    <path d="M84.1192966,116.345671 L84.1192966,118.960186" id="Stroke-169" stroke="#D3E7ED" stroke-width="0.83272" stroke-linecap="round" mask="url(#mask-114)"></path>
                </g>
                <g id="Group-174" transform="translate(0.000000, 0.339072)">
                    <mask id="mask-116" fill="white">
                        <use xlink:href="#path-115"></use>
                    </mask>
                    <g id="Clip-173"></g>
                    <path d="M97.9174237,116.345671 L97.9174237,118.960186" id="Stroke-172" stroke="#D3E7ED" stroke-width="0.83272" stroke-linecap="round" mask="url(#mask-116)"></path>
                </g>
                <g id="Group-177" transform="translate(0.000000, 0.339072)">
                    <mask id="mask-118" fill="white">
                        <use xlink:href="#path-117"></use>
                    </mask>
                    <g id="Clip-176"></g>
                    <path d="M17.8095424,128.846194 C17.0407288,128.846194 16.3347966,129.109063 15.7706441,129.545603 C15.1655593,127.213451 13.0447966,125.487966 10.5135254,125.487966 C8.78666102,125.487966 7.25081356,126.291342 6.25598305,127.5413 C5.78377966,126.508726 4.74089831,125.790414 3.52716949,125.790414 C2.23810169,125.790414 1.14183051,126.601468 0.717677966,127.738008 C0.301237288,126.875561 -0.580881356,126.278346 -1.6059661,126.278346 C-2.59664407,126.278346 -3.45622034,126.834802 -3.88749153,127.651173 C-4.59698305,126.266532 -6.03791525,125.317249 -7.70545763,125.317249 C-9.16477966,125.317249 -10.4520678,126.045013 -11.2256271,127.15438 C-11.7755424,126.823578 -12.418,126.629232 -13.107322,126.629232 C-15.1207119,126.629232 -16.7532542,128.254886 -16.7532542,130.259781 L-17.1613898,130.259781 C-18.5863051,130.259781 -19.7407119,131.409316 -19.7407119,132.827629 C-19.7407119,134.246532 -18.5863051,135.395477 -17.1613898,135.395477 L17.1184407,135.395477 C17.3414915,135.442734 17.5728475,135.468726 17.8095424,135.468726 C19.6461525,135.468726 21.1345424,133.986025 21.1345424,132.157165 C21.1345424,130.328895 19.6461525,128.846194 17.8095424,128.846194" id="Fill-175" fill="#8A8ABF" mask="url(#mask-118)"></path>
                </g>
                <g id="Group-180" transform="translate(0.000000, 0.339072)">
                    <mask id="mask-120" fill="white">
                        <use xlink:href="#path-119"></use>
                    </mask>
                    <g id="Clip-179"></g>
                    <polygon id="Fill-178" fill="#58A579" mask="url(#mask-120)" points="119.891492 105.554979 105.893864 137.301308 133.889119 137.301308"></polygon>
                </g>
                <g id="Group-183" transform="translate(0.000000, 0.339072)">
                    <mask id="mask-122" fill="white">
                        <use xlink:href="#path-121"></use>
                    </mask>
                    <g id="Clip-182"></g>
                    <polygon id="Fill-181" fill="#62BC8B" mask="url(#mask-122)" points="133.749356 109.903131 121.695119 142.905916 145.804186 142.905916"></polygon>
                </g>
                <g id="Group-186" transform="translate(0.000000, 0.339072)">
                    <mask id="mask-124" fill="white">
                        <use xlink:href="#path-123"></use>
                    </mask>
                    <g id="Clip-185"></g>
                    <path d="M146.304864,138.783713 C145.351559,138.783713 144.475373,139.109198 143.776559,139.650295 C143.026136,136.758734 140.39639,134.620338 137.257661,134.620338 C135.117322,134.620338 133.212492,135.615696 131.979186,137.165148 C131.392492,135.885654 130.099864,134.994262 128.594864,134.994262 C126.996729,134.994262 125.637661,136.000253 125.110881,137.409114 C124.595373,136.339916 123.501475,135.599156 122.230203,135.599156 C121.001644,135.599156 119.936814,136.289705 119.400542,137.301603 C118.521983,135.584979 116.73461,134.407679 114.667831,134.407679 C112.857915,134.407679 111.262153,135.310295 110.302322,136.685485 C109.620119,136.275527 108.823424,136.035105 107.969186,136.035105 C105.472915,136.035105 103.448847,138.050042 103.448847,140.536371 L102.941644,140.536371 C101.17622,140.536371 99.7441864,141.961772 99.7441864,143.720338 C99.7441864,145.479494 101.17622,146.904895 102.941644,146.904895 L145.447661,146.904895 C145.724102,146.963376 146.010627,146.995274 146.304864,146.995274 C148.581644,146.995274 150.427746,145.156962 150.427746,142.889789 C150.427746,140.622025 148.581644,138.783713 146.304864,138.783713" id="Fill-184" fill="#11C982" mask="url(#mask-124)"></path>
                </g>
                <g id="Group-189" transform="translate(0.000000, 0.339072)">
                    <mask id="mask-126" fill="white">
                        <use xlink:href="#path-125"></use>
                    </mask>
                    <g id="Clip-188"></g>
                    <path d="M-23.0230593,139.885814 C-23.0230593,142.152987 -21.1775508,143.9913 -18.900178,143.9913 C-18.6059407,143.9913 -18.3194153,143.959401 -18.0423814,143.901511 L24.4630424,143.901511 C26.2284661,143.901511 27.6605,142.47611 27.6605,140.716954 C27.6605,138.958388 26.2284661,137.532397 24.4630424,137.532397 L23.955839,137.532397 C23.955839,135.046658 21.9317712,133.031131 19.4355,133.031131 C18.5806695,133.031131 17.7845678,133.271553 17.1029576,133.682101 C16.1425339,132.306321 14.5467712,131.404295 12.7368559,131.404295 C10.6700763,131.404295 8.88270339,132.581595 8.00414407,134.298219 C7.46787288,133.286321 6.40304237,132.595772 5.17448305,132.595772 C3.90380508,132.595772 2.80931356,133.336532 2.29380508,134.40573 C1.76702542,132.996278 0.407957627,131.990878 -1.19017797,131.990878 C-2.69458475,131.990878 -3.98780508,132.88227 -4.57390678,134.161764 C-5.80721186,132.612312 -7.71204237,131.616363 -9.85297458,131.616363 C-12.9917034,131.616363 -15.6214492,133.75535 -16.3724661,136.646911 C-17.0706864,136.105814 -17.9462797,135.780329 -18.900178,135.780329 C-21.1775508,135.780329 -23.0230593,137.618641 -23.0230593,139.885814" id="Fill-187" fill="#11C982" mask="url(#mask-126)"></path>
                </g>
                <g id="Group-192" transform="translate(0.000000, 0.339072)">
                    <mask id="mask-128" fill="white">
                        <use xlink:href="#path-127"></use>
                    </mask>
                    <g id="Clip-191"></g>
                    <path d="M15.7129831,134.411578 C15.7129831,136.678751 17.5590847,138.517063 19.8358644,138.517063 C20.1301017,138.517063 20.4166271,138.485165 20.693661,138.426684 L63.1990847,138.426684 C64.9645085,138.426684 66.3965424,137.001283 66.3965424,135.242717 C66.3965424,133.484152 64.9645085,132.05816 63.1990847,132.05816 L62.6918814,132.05816 C62.6918814,129.572422 60.6678136,127.556895 58.1715424,127.556895 C57.3173051,127.556895 56.5206102,127.797316 55.839,128.207865 C54.8785763,126.832084 53.2828136,125.930059 51.4728983,125.930059 C49.4061186,125.930059 47.6187458,127.107359 46.7401864,128.823392 C46.2039153,127.812084 45.1390847,127.121536 43.9105254,127.121536 C42.6398475,127.121536 41.5453559,127.861705 41.0298475,128.931494 C40.5030678,127.522042 39.144,126.516641 37.5458644,126.516641 C36.0414576,126.516641 34.7482373,127.408034 34.1621356,128.687527 C32.9288305,127.138076 31.0245932,126.142127 28.8830678,126.142127 C25.744339,126.142127 23.1151864,128.281114 22.3641695,131.172675 C21.6653559,130.631578 20.7903559,130.305502 19.8358644,130.305502 C17.5590847,130.305502 15.7129831,132.143814 15.7129831,134.411578" id="Fill-190" fill="#499E78" mask="url(#mask-128)"></path>
                </g>
                <g id="Group-195" transform="translate(0.000000, 0.339072)">
                    <mask id="mask-130" fill="white">
                        <use xlink:href="#path-129"></use>
                    </mask>
                    <g id="Clip-194"></g>
                    <path d="M50.5634915,116.553603 C50.5634915,124.719089 43.9158644,131.338076 35.7157797,131.338076 C27.5156949,131.338076 20.8680678,124.719089 20.8680678,116.553603 C20.8680678,108.388118 27.5156949,101.769131 35.7157797,101.769131 C43.9158644,101.769131 50.5634915,108.388118 50.5634915,116.553603" id="Fill-193" fill="#1BA86F" mask="url(#mask-130)"></path>
                </g>
                <g id="Group-198" transform="translate(0.000000, 0.339072)">
                    <mask id="mask-132" fill="white">
                        <use xlink:href="#path-131"></use>
                    </mask>
                    <g id="Clip-197"></g>
                    <path d="M67.0745932,122.280253 C67.0745932,128.088186 62.3466271,132.796203 56.5140847,132.796203 C50.6815424,132.796203 45.9535763,128.088186 45.9535763,122.280253 C45.9535763,116.472321 50.6815424,111.764304 56.5140847,111.764304 C62.3466271,111.764304 67.0745932,116.472321 67.0745932,122.280253" id="Fill-196" fill="#3E998A" mask="url(#mask-132)"></path>
                </g>
                <g id="Group-201" transform="translate(0.000000, 0.339072)">
                    <mask id="mask-134" fill="white">
                        <use xlink:href="#path-133"></use>
                    </mask>
                    <g id="Clip-200"></g>
                    <path d="M36.8313898,113.846641 L36.8313898,141.541831" id="Stroke-199" stroke="#3F3B39" stroke-width="0.5" stroke-linecap="round" mask="url(#mask-134)"></path>
                </g>
                <g id="Group-204" transform="translate(0.000000, 0.339072)">
                    <mask id="mask-136" fill="white">
                        <use xlink:href="#path-135"></use>
                    </mask>
                    <g id="Clip-203"></g>
                    <path d="M30.5573729,115.512346 L36.8312712,122.731502" id="Stroke-202" stroke="#3F3B39" stroke-width="0.5" stroke-linecap="round" mask="url(#mask-136)"></path>
                </g>
                <g id="Group-207" transform="translate(0.000000, 0.339072)">
                    <mask id="mask-138" fill="white">
                        <use xlink:href="#path-137"></use>
                    </mask>
                    <g id="Clip-206"></g>
                    <path d="M56.5142627,122.280253 L56.5142627,143.2773" id="Stroke-205" stroke="#3F3B39" stroke-width="0.5" stroke-linecap="round" mask="url(#mask-138)"></path>
                </g>
                <g id="Group-210" transform="translate(0.000000, 0.339072)">
                    <mask id="mask-140" fill="white">
                        <use xlink:href="#path-139"></use>
                    </mask>
                    <g id="Clip-209"></g>
                    <polyline id="Stroke-208" stroke="#3F3B39" stroke-width="0.5" stroke-linecap="round" mask="url(#mask-140)" points="52.1664915 124.952599 56.5142034 128.284245 60.6708983 124.952599"></polyline>
                </g>
                <g id="Group-213" transform="translate(0.000000, 0.339072)">
                    <mask id="mask-142" fill="white">
                        <use xlink:href="#path-141"></use>
                    </mask>
                    <g id="Clip-212"></g>
                    <path d="M15.1180424,127.277662 L15.1180424,152.023401" id="Stroke-211" stroke="#3F3B39" stroke-width="0.5" stroke-linecap="round" mask="url(#mask-142)"></path>
                </g>
                <g id="Group-216" transform="translate(0.000000, 0.339072)">
                    <mask id="mask-144" fill="white">
                        <use xlink:href="#path-143"></use>
                    </mask>
                    <g id="Clip-215"></g>
                    <path d="M9.08849153,127.277662 L15.1179831,135.642219" id="Stroke-214" stroke="#3F3B39" stroke-width="0.5" stroke-linecap="round" mask="url(#mask-144)"></path>
                </g>
                <g id="Group-219" transform="translate(0.000000, 0.339072)">
                    <mask id="mask-146" fill="white">
                        <use xlink:href="#path-145"></use>
                    </mask>
                    <g id="Clip-218"></g>
                    <path d="M15.1180424,132.171283 L18.9864322,129.950186" id="Stroke-217" stroke="#3F3B39" stroke-width="0.5" stroke-linecap="round" mask="url(#mask-146)"></path>
                </g>
            </g>
        </g>
    </g>
</svg>