<?xml version="1.0" encoding="UTF-8"?>
<svg width="141px" height="140px" viewBox="0 0 141 140" version="1.1" xmlns="http://www.w3.org/2000/svg" xmlns:xlink="http://www.w3.org/1999/xlink">
    <!-- Generator: Sketch 52.5 (67469) - http://www.bohemiancoding.com/sketch -->
    <title>Group 157</title>
    <desc>Created with Sketch.</desc>
    <defs>
        <path d="M0.0458723404,69.7579661 C0.0458723404,108.211102 31.3510638,139.384831 69.9684255,139.384831 C108.585787,139.384831 139.890979,108.211102 139.890979,69.7579661 C139.890979,31.3036441 108.585787,0.131101695 69.9684255,0.131101695 C31.3510638,0.131101695 0.0458723404,31.3036441 0.0458723404,69.7579661" id="path-1"></path>
        <path d="M0.0458723404,69.7579661 C0.0458723404,108.211102 31.3510638,139.384831 69.9684255,139.384831 C108.585787,139.384831 139.890979,108.211102 139.890979,69.7579661 C139.890979,31.3036441 108.585787,0.131101695 69.9684255,0.131101695 C31.3510638,0.131101695 0.0458723404,31.3036441 0.0458723404,69.7579661" id="path-3"></path>
        <path d="M0.0458723404,69.7579661 C0.0458723404,108.211102 31.3510638,139.384831 69.9684255,139.384831 C108.585787,139.384831 139.890979,108.211102 139.890979,69.7579661 C139.890979,31.3036441 108.585787,0.131101695 69.9684255,0.131101695 C31.3510638,0.131101695 0.0458723404,31.3036441 0.0458723404,69.7579661 Z" id="path-5"></path>
        <path d="M0.0458723404,69.7579661 C0.0458723404,108.211102 31.3510638,139.384831 69.9684255,139.384831 C108.585787,139.384831 139.890979,108.211102 139.890979,69.7579661 C139.890979,31.3036441 108.585787,0.131101695 69.9684255,0.131101695 C31.3510638,0.131101695 0.0458723404,31.3036441 0.0458723404,69.7579661 Z" id="path-7"></path>
        <path d="M0.0458723404,69.7579661 C0.0458723404,108.211102 31.3510638,139.384831 69.9684255,139.384831 C108.585787,139.384831 139.890979,108.211102 139.890979,69.7579661 C139.890979,31.3036441 108.585787,0.131101695 69.9684255,0.131101695 C31.3510638,0.131101695 0.0458723404,31.3036441 0.0458723404,69.7579661 Z" id="path-9"></path>
        <path d="M0.0458723404,69.7579661 C0.0458723404,108.211102 31.3510638,139.384831 69.9684255,139.384831 C108.585787,139.384831 139.890979,108.211102 139.890979,69.7579661 C139.890979,31.3036441 108.585787,0.131101695 69.9684255,0.131101695 C31.3510638,0.131101695 0.0458723404,31.3036441 0.0458723404,69.7579661 Z" id="path-11"></path>
        <path d="M0.0458723404,69.7579661 C0.0458723404,108.211102 31.3510638,139.384831 69.9684255,139.384831 C108.585787,139.384831 139.890979,108.211102 139.890979,69.7579661 C139.890979,31.3036441 108.585787,0.131101695 69.9684255,0.131101695 C31.3510638,0.131101695 0.0458723404,31.3036441 0.0458723404,69.7579661 Z" id="path-13"></path>
        <path d="M0.0458723404,69.7579661 C0.0458723404,108.211102 31.3510638,139.384831 69.9684255,139.384831 C108.585787,139.384831 139.890979,108.211102 139.890979,69.7579661 C139.890979,31.3036441 108.585787,0.131101695 69.9684255,0.131101695 C31.3510638,0.131101695 0.0458723404,31.3036441 0.0458723404,69.7579661 Z" id="path-15"></path>
        <path d="M0.0458723404,69.7579661 C0.0458723404,108.211102 31.3510638,139.384831 69.9684255,139.384831 C108.585787,139.384831 139.890979,108.211102 139.890979,69.7579661 C139.890979,31.3036441 108.585787,0.131101695 69.9684255,0.131101695 C31.3510638,0.131101695 0.0458723404,31.3036441 0.0458723404,69.7579661 Z" id="path-17"></path>
        <path d="M0.0458723404,69.7579661 C0.0458723404,108.211102 31.3510638,139.384831 69.9684255,139.384831 C108.585787,139.384831 139.890979,108.211102 139.890979,69.7579661 C139.890979,31.3036441 108.585787,0.131101695 69.9684255,0.131101695 C31.3510638,0.131101695 0.0458723404,31.3036441 0.0458723404,69.7579661" id="path-19"></path>
        <path d="M0.0458723404,69.7579661 C0.0458723404,108.211102 31.3510638,139.384831 69.9684255,139.384831 C108.585787,139.384831 139.890979,108.211102 139.890979,69.7579661 C139.890979,31.3036441 108.585787,0.131101695 69.9684255,0.131101695 C31.3510638,0.131101695 0.0458723404,31.3036441 0.0458723404,69.7579661" id="path-21"></path>
        <path d="M0.0458723404,69.7579661 C0.0458723404,108.211102 31.3510638,139.384831 69.9684255,139.384831 C108.585787,139.384831 139.890979,108.211102 139.890979,69.7579661 C139.890979,31.3036441 108.585787,0.131101695 69.9684255,0.131101695 C31.3510638,0.131101695 0.0458723404,31.3036441 0.0458723404,69.7579661 Z" id="path-23"></path>
        <path d="M0.0458723404,69.7579661 C0.0458723404,108.211102 31.3510638,139.384831 69.9684255,139.384831 C108.585787,139.384831 139.890979,108.211102 139.890979,69.7579661 C139.890979,31.3036441 108.585787,0.131101695 69.9684255,0.131101695 C31.3510638,0.131101695 0.0458723404,31.3036441 0.0458723404,69.7579661" id="path-25"></path>
        <path d="M0.0458723404,69.7579661 C0.0458723404,108.211102 31.3510638,139.384831 69.9684255,139.384831 C108.585787,139.384831 139.890979,108.211102 139.890979,69.7579661 C139.890979,31.3036441 108.585787,0.131101695 69.9684255,0.131101695 C31.3510638,0.131101695 0.0458723404,31.3036441 0.0458723404,69.7579661" id="path-27"></path>
        <path d="M0.0458723404,69.7579661 C0.0458723404,108.211102 31.3510638,139.384831 69.9684255,139.384831 C108.585787,139.384831 139.890979,108.211102 139.890979,69.7579661 C139.890979,31.3036441 108.585787,0.131101695 69.9684255,0.131101695 C31.3510638,0.131101695 0.0458723404,31.3036441 0.0458723404,69.7579661" id="path-29"></path>
        <path d="M0.0458723404,69.7579661 C0.0458723404,108.211102 31.3510638,139.384831 69.9684255,139.384831 C108.585787,139.384831 139.890979,108.211102 139.890979,69.7579661 C139.890979,31.3036441 108.585787,0.131101695 69.9684255,0.131101695 C31.3510638,0.131101695 0.0458723404,31.3036441 0.0458723404,69.7579661" id="path-31"></path>
        <path d="M0.0458723404,69.7579661 C0.0458723404,108.211102 31.3510638,139.384831 69.9684255,139.384831 C108.585787,139.384831 139.890979,108.211102 139.890979,69.7579661 C139.890979,31.3036441 108.585787,0.131101695 69.9684255,0.131101695 C31.3510638,0.131101695 0.0458723404,31.3036441 0.0458723404,69.7579661" id="path-33"></path>
        <path d="M0.0458723404,69.7579661 C0.0458723404,108.211102 31.3510638,139.384831 69.9684255,139.384831 C108.585787,139.384831 139.890979,108.211102 139.890979,69.7579661 C139.890979,31.3036441 108.585787,0.131101695 69.9684255,0.131101695 C31.3510638,0.131101695 0.0458723404,31.3036441 0.0458723404,69.7579661" id="path-35"></path>
        <path d="M0.0458723404,69.7579661 C0.0458723404,108.211102 31.3510638,139.384831 69.9684255,139.384831 C108.585787,139.384831 139.890979,108.211102 139.890979,69.7579661 C139.890979,31.3036441 108.585787,0.131101695 69.9684255,0.131101695 C31.3510638,0.131101695 0.0458723404,31.3036441 0.0458723404,69.7579661" id="path-37"></path>
        <path d="M0.0458723404,69.7579661 C0.0458723404,108.211102 31.3510638,139.384831 69.9684255,139.384831 C108.585787,139.384831 139.890979,108.211102 139.890979,69.7579661 C139.890979,31.3036441 108.585787,0.131101695 69.9684255,0.131101695 C31.3510638,0.131101695 0.0458723404,31.3036441 0.0458723404,69.7579661" id="path-39"></path>
        <path d="M0.0458723404,69.7579661 C0.0458723404,108.211102 31.3510638,139.384831 69.9684255,139.384831 C108.585787,139.384831 139.890979,108.211102 139.890979,69.7579661 C139.890979,31.3036441 108.585787,0.131101695 69.9684255,0.131101695 C31.3510638,0.131101695 0.0458723404,31.3036441 0.0458723404,69.7579661 Z" id="path-41"></path>
        <path d="M0.0458723404,69.7579661 C0.0458723404,108.211102 31.3510638,139.384831 69.9684255,139.384831 C108.585787,139.384831 139.890979,108.211102 139.890979,69.7579661 C139.890979,31.3036441 108.585787,0.131101695 69.9684255,0.131101695 C31.3510638,0.131101695 0.0458723404,31.3036441 0.0458723404,69.7579661 Z" id="path-43"></path>
        <path d="M0.0458723404,69.7579661 C0.0458723404,108.211102 31.3510638,139.384831 69.9684255,139.384831 C108.585787,139.384831 139.890979,108.211102 139.890979,69.7579661 C139.890979,31.3036441 108.585787,0.131101695 69.9684255,0.131101695 C31.3510638,0.131101695 0.0458723404,31.3036441 0.0458723404,69.7579661 Z" id="path-45"></path>
        <path d="M0.0458723404,69.7579661 C0.0458723404,108.211102 31.3510638,139.384831 69.9684255,139.384831 C108.585787,139.384831 139.890979,108.211102 139.890979,69.7579661 C139.890979,31.3036441 108.585787,0.131101695 69.9684255,0.131101695 C31.3510638,0.131101695 0.0458723404,31.3036441 0.0458723404,69.7579661 Z" id="path-47"></path>
        <path d="M0.0458723404,69.7579661 C0.0458723404,108.211102 31.3510638,139.384831 69.9684255,139.384831 C108.585787,139.384831 139.890979,108.211102 139.890979,69.7579661 C139.890979,31.3036441 108.585787,0.131101695 69.9684255,0.131101695 C31.3510638,0.131101695 0.0458723404,31.3036441 0.0458723404,69.7579661" id="path-49"></path>
        <path d="M0.0458723404,69.7579661 C0.0458723404,108.211102 31.3510638,139.384831 69.9684255,139.384831 C108.585787,139.384831 139.890979,108.211102 139.890979,69.7579661 C139.890979,31.3036441 108.585787,0.131101695 69.9684255,0.131101695 C31.3510638,0.131101695 0.0458723404,31.3036441 0.0458723404,69.7579661" id="path-51"></path>
        <path d="M0.0458723404,69.7579661 C0.0458723404,108.211102 31.3510638,139.384831 69.9684255,139.384831 C108.585787,139.384831 139.890979,108.211102 139.890979,69.7579661 C139.890979,31.3036441 108.585787,0.131101695 69.9684255,0.131101695 C31.3510638,0.131101695 0.0458723404,31.3036441 0.0458723404,69.7579661" id="path-53"></path>
        <path d="M0.0458723404,69.7579661 C0.0458723404,108.211102 31.3510638,139.384831 69.9684255,139.384831 C108.585787,139.384831 139.890979,108.211102 139.890979,69.7579661 C139.890979,31.3036441 108.585787,0.131101695 69.9684255,0.131101695 C31.3510638,0.131101695 0.0458723404,31.3036441 0.0458723404,69.7579661" id="path-55"></path>
        <path d="M0.0458723404,69.7579661 C0.0458723404,108.211102 31.3510638,139.384831 69.9684255,139.384831 C108.585787,139.384831 139.890979,108.211102 139.890979,69.7579661 C139.890979,31.3036441 108.585787,0.131101695 69.9684255,0.131101695 C31.3510638,0.131101695 0.0458723404,31.3036441 0.0458723404,69.7579661" id="path-57"></path>
        <path d="M0.0458723404,69.7579661 C0.0458723404,108.211102 31.3510638,139.384831 69.9684255,139.384831 C108.585787,139.384831 139.890979,108.211102 139.890979,69.7579661 C139.890979,31.3036441 108.585787,0.131101695 69.9684255,0.131101695 C31.3510638,0.131101695 0.0458723404,31.3036441 0.0458723404,69.7579661" id="path-59"></path>
        <path d="M0.0458723404,69.7579661 C0.0458723404,108.211102 31.3510638,139.384831 69.9684255,139.384831 C108.585787,139.384831 139.890979,108.211102 139.890979,69.7579661 C139.890979,31.3036441 108.585787,0.131101695 69.9684255,0.131101695 C31.3510638,0.131101695 0.0458723404,31.3036441 0.0458723404,69.7579661" id="path-61"></path>
        <path d="M0.0458723404,69.7579661 C0.0458723404,108.211102 31.3510638,139.384831 69.9684255,139.384831 C108.585787,139.384831 139.890979,108.211102 139.890979,69.7579661 C139.890979,31.3036441 108.585787,0.131101695 69.9684255,0.131101695 C31.3510638,0.131101695 0.0458723404,31.3036441 0.0458723404,69.7579661" id="path-63"></path>
        <path d="M0.0458723404,69.7579661 C0.0458723404,108.211102 31.3510638,139.384831 69.9684255,139.384831 C108.585787,139.384831 139.890979,108.211102 139.890979,69.7579661 C139.890979,31.3036441 108.585787,0.131101695 69.9684255,0.131101695 C31.3510638,0.131101695 0.0458723404,31.3036441 0.0458723404,69.7579661" id="path-65"></path>
        <path d="M0.0458723404,69.7579661 C0.0458723404,108.211102 31.3510638,139.384831 69.9684255,139.384831 C108.585787,139.384831 139.890979,108.211102 139.890979,69.7579661 C139.890979,31.3036441 108.585787,0.131101695 69.9684255,0.131101695 C31.3510638,0.131101695 0.0458723404,31.3036441 0.0458723404,69.7579661" id="path-67"></path>
        <path d="M0.0458723404,69.7579661 C0.0458723404,108.211102 31.3510638,139.384831 69.9684255,139.384831 C108.585787,139.384831 139.890979,108.211102 139.890979,69.7579661 C139.890979,31.3036441 108.585787,0.131101695 69.9684255,0.131101695 C31.3510638,0.131101695 0.0458723404,31.3036441 0.0458723404,69.7579661" id="path-69"></path>
        <path d="M0.0458723404,69.7579661 C0.0458723404,108.211102 31.3510638,139.384831 69.9684255,139.384831 C108.585787,139.384831 139.890979,108.211102 139.890979,69.7579661 C139.890979,31.3036441 108.585787,0.131101695 69.9684255,0.131101695 C31.3510638,0.131101695 0.0458723404,31.3036441 0.0458723404,69.7579661" id="path-71"></path>
        <path d="M0.0458723404,69.7579661 C0.0458723404,108.211102 31.3510638,139.384831 69.9684255,139.384831 C108.585787,139.384831 139.890979,108.211102 139.890979,69.7579661 C139.890979,31.3036441 108.585787,0.131101695 69.9684255,0.131101695 C31.3510638,0.131101695 0.0458723404,31.3036441 0.0458723404,69.7579661" id="path-73"></path>
        <path d="M0.0458723404,69.7579661 C0.0458723404,108.211102 31.3510638,139.384831 69.9684255,139.384831 C108.585787,139.384831 139.890979,108.211102 139.890979,69.7579661 C139.890979,31.3036441 108.585787,0.131101695 69.9684255,0.131101695 C31.3510638,0.131101695 0.0458723404,31.3036441 0.0458723404,69.7579661" id="path-75"></path>
        <path d="M0.0458723404,69.7579661 C0.0458723404,108.211102 31.3510638,139.384831 69.9684255,139.384831 C108.585787,139.384831 139.890979,108.211102 139.890979,69.7579661 C139.890979,31.3036441 108.585787,0.131101695 69.9684255,0.131101695 C31.3510638,0.131101695 0.0458723404,31.3036441 0.0458723404,69.7579661" id="path-77"></path>
        <path d="M0.0458723404,69.7579661 C0.0458723404,108.211102 31.3510638,139.384831 69.9684255,139.384831 C108.585787,139.384831 139.890979,108.211102 139.890979,69.7579661 C139.890979,31.3036441 108.585787,0.131101695 69.9684255,0.131101695 C31.3510638,0.131101695 0.0458723404,31.3036441 0.0458723404,69.7579661" id="path-79"></path>
        <path d="M0.0458723404,69.7579661 C0.0458723404,108.211102 31.3510638,139.384831 69.9684255,139.384831 C108.585787,139.384831 139.890979,108.211102 139.890979,69.7579661 C139.890979,31.3036441 108.585787,0.131101695 69.9684255,0.131101695 C31.3510638,0.131101695 0.0458723404,31.3036441 0.0458723404,69.7579661" id="path-81"></path>
        <path d="M0.0458723404,69.7579661 C0.0458723404,108.211102 31.3510638,139.384831 69.9684255,139.384831 C108.585787,139.384831 139.890979,108.211102 139.890979,69.7579661 C139.890979,31.3036441 108.585787,0.131101695 69.9684255,0.131101695 C31.3510638,0.131101695 0.0458723404,31.3036441 0.0458723404,69.7579661" id="path-83"></path>
        <path d="M0.0458723404,69.7579661 C0.0458723404,108.211102 31.3510638,139.384831 69.9684255,139.384831 C108.585787,139.384831 139.890979,108.211102 139.890979,69.7579661 C139.890979,31.3036441 108.585787,0.131101695 69.9684255,0.131101695 C31.3510638,0.131101695 0.0458723404,31.3036441 0.0458723404,69.7579661" id="path-85"></path>
        <path d="M0.0458723404,69.7579661 C0.0458723404,108.211102 31.3510638,139.384831 69.9684255,139.384831 C108.585787,139.384831 139.890979,108.211102 139.890979,69.7579661 C139.890979,31.3036441 108.585787,0.131101695 69.9684255,0.131101695 C31.3510638,0.131101695 0.0458723404,31.3036441 0.0458723404,69.7579661" id="path-87"></path>
        <path d="M0.0458723404,69.7579661 C0.0458723404,108.211102 31.3510638,139.384831 69.9684255,139.384831 C108.585787,139.384831 139.890979,108.211102 139.890979,69.7579661 C139.890979,31.3036441 108.585787,0.131101695 69.9684255,0.131101695 C31.3510638,0.131101695 0.0458723404,31.3036441 0.0458723404,69.7579661" id="path-89"></path>
        <path d="M0.0458723404,69.7579661 C0.0458723404,108.211102 31.3510638,139.384831 69.9684255,139.384831 C108.585787,139.384831 139.890979,108.211102 139.890979,69.7579661 C139.890979,31.3036441 108.585787,0.131101695 69.9684255,0.131101695 C31.3510638,0.131101695 0.0458723404,31.3036441 0.0458723404,69.7579661" id="path-91"></path>
        <path d="M0.0458723404,69.7579661 C0.0458723404,108.211102 31.3510638,139.384831 69.9684255,139.384831 C108.585787,139.384831 139.890979,108.211102 139.890979,69.7579661 C139.890979,31.3036441 108.585787,0.131101695 69.9684255,0.131101695 C31.3510638,0.131101695 0.0458723404,31.3036441 0.0458723404,69.7579661" id="path-93"></path>
        <path d="M0.0458723404,69.7579661 C0.0458723404,108.211102 31.3510638,139.384831 69.9684255,139.384831 C108.585787,139.384831 139.890979,108.211102 139.890979,69.7579661 C139.890979,31.3036441 108.585787,0.131101695 69.9684255,0.131101695 C31.3510638,0.131101695 0.0458723404,31.3036441 0.0458723404,69.7579661" id="path-95"></path>
        <path d="M0.0458723404,69.7579661 C0.0458723404,108.211102 31.3510638,139.384831 69.9684255,139.384831 C108.585787,139.384831 139.890979,108.211102 139.890979,69.7579661 C139.890979,31.3036441 108.585787,0.131101695 69.9684255,0.131101695 C31.3510638,0.131101695 0.0458723404,31.3036441 0.0458723404,69.7579661" id="path-97"></path>
        <path d="M0.0458723404,69.7579661 C0.0458723404,108.211102 31.3510638,139.384831 69.9684255,139.384831 C108.585787,139.384831 139.890979,108.211102 139.890979,69.7579661 C139.890979,31.3036441 108.585787,0.131101695 69.9684255,0.131101695 C31.3510638,0.131101695 0.0458723404,31.3036441 0.0458723404,69.7579661" id="path-99"></path>
        <path d="M0.0458723404,69.7579661 C0.0458723404,108.211102 31.3510638,139.384831 69.9684255,139.384831 C108.585787,139.384831 139.890979,108.211102 139.890979,69.7579661 C139.890979,31.3036441 108.585787,0.131101695 69.9684255,0.131101695 C31.3510638,0.131101695 0.0458723404,31.3036441 0.0458723404,69.7579661 Z" id="path-101"></path>
        <path d="M0.0458723404,69.7579661 C0.0458723404,108.211102 31.3510638,139.384831 69.9684255,139.384831 C108.585787,139.384831 139.890979,108.211102 139.890979,69.7579661 C139.890979,31.3036441 108.585787,0.131101695 69.9684255,0.131101695 C31.3510638,0.131101695 0.0458723404,31.3036441 0.0458723404,69.7579661" id="path-103"></path>
    </defs>
    <g id="Symbols" stroke="none" stroke-width="1" fill="none" fill-rule="evenodd">
        <g id="Mobile/FeaturesofOrchid/IconVer" transform="translate(-117.000000, -133.000000)">
            <g id="Group-157" transform="translate(117.597713, 132.938268)">
                <g id="Group-3" transform="translate(0.000000, 0.097881)">
                    <mask id="mask-2" fill="white">
                        <use xlink:href="#path-1"></use>
                    </mask>
                    <g id="Clip-2"></g>
                    <path d="M-26.4302128,90.0520339 C-26.4302128,38.3226271 15.6829787,-3.61271186 67.6331064,-3.61271186 C119.582043,-3.61271186 161.695234,38.3226271 161.695234,90.0520339" id="Fill-1" fill="#F4F6F1" mask="url(#mask-2)"></path>
                </g>
                <g id="Group-6" transform="translate(0.000000, 0.097881)">
                    <mask id="mask-4" fill="white">
                        <use xlink:href="#path-3"></use>
                    </mask>
                    <g id="Clip-5"></g>
                    <path d="M-13.7322128,90.0607542 C-25.2562979,90.2321949 -36.780383,90.4030424 -48.3038723,90.5744831 C-51.8235319,90.6266864 -55.4980851,90.7334661 -58.6090638,93.1259237 C-61.7200426,95.5189746 -64.0225957,100.968297 -62.8281277,105.779314 C-61.3917872,111.564992 -56.2969787,112.95728 -52.0755319,113.436008 C-48.064383,113.890415 -44.053234,114.345415 -40.0420851,114.800415 C-36.4455745,115.207958 -32.715617,115.673042 -29.5814043,118.268381 C-26.4471915,120.86372 -23.2623404,126.469653 -25.0465957,131.296686 C-27.7542553,138.622364 -46.2253191,138.440246 -49.6478723,138.878636 C-63.149234,140.606686 -61.3357872,155.604483 -51.8497447,159.652619 C-48.3586809,161.142788 -12.2351064,162.301347 -4.1472766,160.462364 C-7.69434043,161.804229 -7.78370213,163.98728 -5.00395745,167.458805 C-2.22421277,170.929737 1.80123404,171.025839 5.46685106,170.943381 C48.9484681,169.958042 92.4294894,168.97211 135.911106,167.987364 C144.142511,167.8005 165.315872,167.444568 172.383787,161.313042 C174.262766,159.682873 176.089915,157.446432 176.62966,154.364653 C177.420213,149.854398 175.114681,145.288381 172.336723,142.970669 C166.474,138.078975 153.559447,138.526263 146.82217,137.708212 C140.084894,136.889568 135.699021,132.645076 135.263532,126.224653 C136.160128,118.241093 145.732553,119.981008 155.243021,120.488212 C160.646426,120.775924 166.119532,121.359059 171.410936,119.7455 C176.702936,118.131941 181.913915,113.934907 184.407106,106.963381 C186.899106,99.9924492 185.764809,94.2583814 181.083447,90.3282966 C178.325149,88.0129576 174.956809,89.2278729 171.772553,89.3613475 C145.42634,90.4647373 119.135532,88.9971102 92.7797872,88.730161" id="Fill-4" fill="#2EBF8B" mask="url(#mask-4)"></path>
                </g>
                <g id="Group-9" transform="translate(0.000000, 0.097881)">
                    <mask id="mask-6" fill="white">
                        <use xlink:href="#path-5"></use>
                    </mask>
                    <g id="Clip-8"></g>
                    <path d="M-20.024766,179.331695 C-20.024766,179.331695 -5.63634043,174.221695 -4.56995745,185.163644 C-4.02604255,190.745254 5.28187234,187.657542 11.785617,188.735424 C24.642383,190.866864 32.6754043,195.459576 54.4820426,194.665847 C56.9001702,194.578051 67.4329362,187.930424 70.9382979,191.159322 C70.9382979,191.159322 73.7502128,193.778983 79.123234,190.551271 C84.788766,187.147373 85.6097021,179.51322 106.806894,188.221102 C109.873787,189.481102 113.665106,188.320169 116.956596,187.257712 C127.649021,183.805763 140.156681,189.239068 148.108681,183.719153 C157.927149,176.903644 167.004511,180.852712 172.069532,179.331695 L79.741617,107.556186 L46.811234,110.145 L-20.024766,179.331695 Z" id="Fill-7" fill="#534784" mask="url(#mask-6)"></path>
                </g>
                <g id="Group-12" transform="translate(0.000000, 0.097881)">
                    <mask id="mask-8" fill="white">
                        <use xlink:href="#path-7"></use>
                    </mask>
                    <g id="Clip-11"></g>
                    <polygon id="Fill-10" fill="#5F45BA" mask="url(#mask-8)" points="-38.8198553 176.895102 -26.7756851 192.343746 68.6274638 114.075441 54.9342723 106.43239"></polygon>
                </g>
                <g id="Group-15" transform="translate(0.000000, 0.097881)">
                    <mask id="mask-10" fill="white">
                        <use xlink:href="#path-9"></use>
                    </mask>
                    <g id="Clip-14"></g>
                    <polygon id="Fill-13" fill="#5F45BA" mask="url(#mask-10)" points="68.6277021 111.438992 78.1262553 184.600263 94.4842128 182.742297 83.0381702 101.47111"></polygon>
                </g>
                <g id="Group-18" transform="translate(0.000000, 0.097881)">
                    <mask id="mask-12" fill="white">
                        <use xlink:href="#path-11"></use>
                    </mask>
                    <g id="Clip-17"></g>
                    <polygon id="Fill-16" fill="#8241CE" mask="url(#mask-12)" points="182.3696 171.626475 170.326026 187.075119 74.9228766 108.806814 88.6160681 101.163763"></polygon>
                </g>
                <g id="Group-21" transform="translate(0.000000, 0.097881)">
                    <mask id="mask-14" fill="white">
                        <use xlink:href="#path-13"></use>
                    </mask>
                    <g id="Clip-20"></g>
                    <polygon id="Fill-19" fill="#7565C9" mask="url(#mask-14)" points="56.8896851 112.406712 20.7929191 184.006627 35.395217 191.580864 72.8294298 115.290949"></polygon>
                </g>
                <g id="Group-24" transform="translate(0.000000, 0.097881)">
                    <mask id="mask-16" fill="white">
                        <use xlink:href="#path-15"></use>
                    </mask>
                    <g id="Clip-23"></g>
                </g>
                <g id="Group-27" transform="translate(0.000000, 0.097881)">
                    <mask id="mask-18" fill="white">
                        <use xlink:href="#path-17"></use>
                    </mask>
                    <g id="Clip-26"></g>
                    <polygon id="Fill-25" fill="#5F45BA" mask="url(#mask-18)" points="92.9281872 126.350593 128.317804 191.159322 142.898655 183.544746 102.751421 111.873051"></polygon>
                </g>
                <g id="Group-30" transform="translate(0.000000, 0.097881)">
                    <mask id="mask-20" fill="white">
                        <use xlink:href="#path-19"></use>
                    </mask>
                    <g id="Clip-29"></g>
                    <path d="M141.594809,110.145059 L63.4962553,138.088703 L67.8291064,151.146669 L144.305447,118.187347 C144.305447,118.187347 147.464681,115.032602 145.874043,112.076585 C144.571149,109.656246 143.025787,109.63311 141.594809,110.145059" id="Fill-28" fill="#7565C9" mask="url(#mask-20)"></path>
                </g>
                <g id="Group-33" transform="translate(0.000000, 0.097881)">
                    <mask id="mask-22" fill="white">
                        <use xlink:href="#path-21"></use>
                    </mask>
                    <g id="Clip-32"></g>
                    <path d="M68.477634,143.691254 C69.6744851,147.297441 69.3837617,150.634898 67.8288681,151.146254 C66.2745702,151.658203 64.0441021,149.149475 62.8478468,145.543881 C61.6509957,141.937695 61.9411234,138.600237 63.4966128,138.088881 C65.0509106,137.576932 67.2813787,140.085661 68.477634,143.691254" id="Fill-31" fill="#766AD3" mask="url(#mask-22)"></path>
                </g>
                <g id="Group-36" transform="translate(0.000000, 0.097881)">
                    <mask id="mask-24" fill="white">
                        <use xlink:href="#path-23"></use>
                    </mask>
                    <g id="Clip-35"></g>
                    <path d="M117.348477,97.6532627 C117.348477,97.6532627 118.159881,90.2902119 109.846264,93.5001271 L73.0667745,135.354195 L85.0001362,142.199364 L105.717157,114.738008 C105.717157,114.738008 118.536987,116.875975 123.310094,111.322246 C128.082604,105.767924 121.425753,108.878178 121.425753,108.878178 C121.425753,108.878178 114.41503,113.394364 108.865668,111.117585 L117.348477,97.6532627 Z" id="Fill-34" fill="#B88DFC" mask="url(#mask-24)"></path>
                </g>
                <g id="Group-39" transform="translate(0.000000, 0.097881)">
                    <mask id="mask-26" fill="white">
                        <use xlink:href="#path-25"></use>
                    </mask>
                    <g id="Clip-38"></g>
                    <path d="M73.2924426,134.947364 C71.9865702,137.003466 73.5378894,140.314229 76.7578894,142.342449 C79.9784851,144.370669 83.6476766,144.34872 84.9535489,142.292619 C86.260017,140.236517 84.7081021,136.925754 81.4881021,134.897534 C78.2681021,132.869314 74.5983149,132.891263 73.2924426,134.947364" id="Fill-37" fill="#D7CDF9" mask="url(#mask-26)"></path>
                </g>
                <g id="Group-42" transform="translate(0.000000, 0.097881)">
                    <mask id="mask-28" fill="white">
                        <use xlink:href="#path-27"></use>
                    </mask>
                    <g id="Clip-41"></g>
                    <path d="M76.0239319,55.7101525 C76.0239319,55.8839661 75.8821447,56.0251525 75.7075915,56.0251525 C75.5330383,56.0251525 75.3912511,55.8839661 75.3912511,55.7101525 C75.3912511,55.536339 75.5330383,55.3951525 75.7075915,55.3951525 C75.8821447,55.3951525 76.0239319,55.536339 76.0239319,55.7101525" id="Fill-40" fill="#87766B" mask="url(#mask-28)"></path>
                </g>
                <g id="Group-45" transform="translate(0.000000, 0.097881)">
                    <mask id="mask-30" fill="white">
                        <use xlink:href="#path-29"></use>
                    </mask>
                    <g id="Clip-44"></g>
                    <path d="M79.6903234,57.7727797 C79.6903234,57.9465932 79.5485362,58.0877797 79.373983,58.0877797 C79.1994298,58.0877797 79.0576426,57.9465932 79.0576426,57.7727797 C79.0576426,57.5989661 79.1994298,57.4577797 79.373983,57.4577797 C79.5485362,57.4577797 79.6903234,57.5989661 79.6903234,57.7727797" id="Fill-43" fill="#87766B" mask="url(#mask-30)"></path>
                </g>
                <g id="Group-48" transform="translate(0.000000, 0.097881)">
                    <mask id="mask-32" fill="white">
                        <use xlink:href="#path-31"></use>
                    </mask>
                    <g id="Clip-47"></g>
                    <path d="M75.7074128,58.8564153 C75.7074128,59.0302288 75.5656255,59.1714153 75.3910723,59.1714153 C75.2165191,59.1714153 75.0747319,59.0302288 75.0747319,58.8564153 C75.0747319,58.6826017 75.2165191,58.5414153 75.3910723,58.5414153 C75.5656255,58.5414153 75.7074128,58.6826017 75.7074128,58.8564153" id="Fill-46" fill="#87766B" mask="url(#mask-32)"></path>
                </g>
                <g id="Group-51" transform="translate(0.000000, 0.097881)">
                    <mask id="mask-34" fill="white">
                        <use xlink:href="#path-33"></use>
                    </mask>
                    <g id="Clip-50"></g>
                    <path d="M85.6000511,54.9822119 C85.6000511,55.1560254 85.4582638,55.2972119 85.2837106,55.2972119 C85.1091574,55.2972119 84.9673702,55.1560254 84.9673702,54.9822119 C84.9673702,54.8083983 85.1091574,54.6672119 85.2837106,54.6672119 C85.4582638,54.6672119 85.6000511,54.8083983 85.6000511,54.9822119" id="Fill-49" fill="#87766B" mask="url(#mask-34)"></path>
                </g>
                <g id="Group-54" transform="translate(0.000000, 0.097881)">
                    <mask id="mask-36" fill="white">
                        <use xlink:href="#path-35"></use>
                    </mask>
                    <g id="Clip-53"></g>
                    <path d="M85.2835319,58.1282373 C85.2835319,58.3020508 85.1423404,58.4432373 84.9671915,58.4432373 C84.7926383,58.4432373 84.6508511,58.3020508 84.6508511,58.1282373 C84.6508511,57.9544237 84.7926383,57.8132373 84.9671915,57.8132373 C85.1423404,57.8132373 85.2835319,57.9544237 85.2835319,58.1282373" id="Fill-52" fill="#87766B" mask="url(#mask-36)"></path>
                </g>
                <g id="Group-57" transform="translate(0.000000, 0.097881)">
                    <mask id="mask-38" fill="white">
                        <use xlink:href="#path-37"></use>
                    </mask>
                    <g id="Clip-56"></g>
                    <path d="M39.9487915,70.628161 L39.9487915,78.4776525" id="Stroke-55" stroke="#BCA9FF" stroke-width="0.55" stroke-linecap="round" mask="url(#mask-38)"></path>
                </g>
                <g id="Group-60" transform="translate(0.000000, 0.097881)">
                    <mask id="mask-40" fill="white">
                        <use xlink:href="#path-39"></use>
                    </mask>
                    <g id="Clip-59"></g>
                    <path d="M40.3612851,80.7537203 C40.3612851,80.9803305 40.1760085,81.1642288 39.9490298,81.1642288 C39.7208596,81.1642288 39.5361787,80.9803305 39.5361787,80.7537203 C39.5361787,80.5271102 39.7208596,80.3432119 39.9490298,80.3432119 C40.1760085,80.3432119 40.3612851,80.5271102 40.3612851,80.7537203" id="Fill-58" fill="#BCA9FF" mask="url(#mask-40)"></path>
                </g>
                <g id="Group-63" transform="translate(0.000000, 0.097881)">
                    <mask id="mask-42" fill="white">
                        <use xlink:href="#path-41"></use>
                    </mask>
                    <g id="Clip-62"></g>
                    <path d="M3.41230638,43.8294915 C3.41230638,44.1658475 3.13826383,44.4387288 2.8004766,44.4387288 C2.46209362,44.4387288 2.18805106,44.1658475 2.18805106,43.8294915 C2.18805106,43.4925424 2.46209362,43.219661 2.8004766,43.219661 C3.13826383,43.219661 3.41230638,43.4925424 3.41230638,43.8294915 Z" id="Stroke-61" stroke="#BCA9FF" stroke-width="0.55" stroke-linecap="round" stroke-linejoin="round" mask="url(#mask-42)"></path>
                </g>
                <g id="Group-66" transform="translate(0.000000, 0.097881)">
                    <mask id="mask-44" fill="white">
                        <use xlink:href="#path-43"></use>
                    </mask>
                    <g id="Clip-65"></g>
                    <path d="M127.078774,13.7701864 C127.416562,13.7701864 127.690604,14.0430678 127.690604,14.3794237 C127.690604,14.7163729 127.416562,14.9892542 127.078774,14.9892542 C126.740391,14.9892542 126.466349,14.7163729 126.466349,14.3794237 C126.466349,14.0430678 126.740391,13.7701864 127.078774,13.7701864 Z" id="Stroke-64" stroke="#BCA9FF" stroke-width="0.55" stroke-linecap="round" stroke-linejoin="round" mask="url(#mask-44)"></path>
                </g>
                <g id="Group-69" transform="translate(0.000000, 0.097881)">
                    <mask id="mask-46" fill="white">
                        <use xlink:href="#path-45"></use>
                    </mask>
                    <g id="Clip-68"></g>
                    <path d="M127.078774,7.83798305 C127.416562,7.83798305 127.690604,8.11086441 127.690604,8.44722034 C127.690604,8.78416949 127.416562,9.05705085 127.078774,9.05705085 C126.740391,9.05705085 126.466349,8.78416949 126.466349,8.44722034 C126.466349,8.11086441 126.740391,7.83798305 127.078774,7.83798305 Z" id="Stroke-67" stroke="#BCA9FF" stroke-width="0.55" stroke-linecap="round" stroke-linejoin="round" mask="url(#mask-46)"></path>
                </g>
                <g id="Group-72" transform="translate(0.000000, 0.097881)">
                    <mask id="mask-48" fill="white">
                        <use xlink:href="#path-47"></use>
                    </mask>
                    <g id="Clip-71"></g>
                    <path d="M75.0808681,45.9332881 L77.5484426,44.220661 C77.5484426,44.220661 80.3126979,41.4722712 82.0469106,46.4565085 L83.0459745,49.7340508 L75.0808681,45.9332881 Z" id="Fill-70" fill="#87766B" mask="url(#mask-48)"></path>
                </g>
                <g id="Group-75" transform="translate(0.000000, 0.097881)">
                    <mask id="mask-50" fill="white">
                        <use xlink:href="#path-49"></use>
                    </mask>
                    <g id="Clip-74"></g>
                    <path d="M49.6959489,47.2298305 C49.6959489,47.2298305 44.2562043,50.8057627 48.8452255,58.455339 L34.6331404,78.8045763 C34.6331404,78.8045763 28.5779915,88.3109322 29.020034,102.289576 L29.6020766,116.611102 C29.6020766,116.611102 29.300034,127.213729 46.2870979,120.852627 C46.2870979,120.852627 54.9390979,116.687627 56.2866723,114.298729 C57.6348426,111.909831 66.8468426,115.755678 66.8468426,115.755678 C66.8468426,115.755678 78.0456511,117.592881 82.7776511,110.145 C87.5102468,102.697712 90.6909277,98.1222034 90.6909277,98.1222034 C90.6909277,98.1222034 99.0599489,84.4727966 85.0236085,60.6739831 L86.8829277,54.8366949 C86.8829277,54.8366949 88.7845447,51.7424576 81.7857362,48.394322 C81.7857362,48.394322 67.7470128,40.0352542 57.2356936,50.0369492 C57.2356936,50.0369492 54.082417,47.6421186 49.6959489,47.2298305" id="Fill-73" fill="#C6A893" mask="url(#mask-50)"></path>
                </g>
                <g id="Group-78" transform="translate(0.000000, 0.097881)">
                    <mask id="mask-52" fill="white">
                        <use xlink:href="#path-51"></use>
                    </mask>
                    <g id="Clip-77"></g>
                    <path d="M57.2358723,50.0371864 L54.0659149,53.3687119 C54.0659149,53.3687119 49.8397021,49.7304915 49.6961277,47.2300678 C49.6961277,47.2300678 55.6637021,47.6779492 57.2358723,50.0371864" id="Fill-76" fill="#87766B" mask="url(#mask-52)"></path>
                </g>
                <g id="Group-81" transform="translate(0.000000, 0.097881)">
                    <mask id="mask-54" fill="white">
                        <use xlink:href="#path-53"></use>
                    </mask>
                    <g id="Clip-80"></g>
                    <path d="M46.2872766,120.852568 C46.2872766,120.852568 51.1920426,126.533839 55.514766,126.692229 C59.8380851,126.850619 62.0482979,126.186805 60.2926383,121.904347 C60.2926383,121.904347 57.3925532,117.910788 54.0671064,116.394517 C54.0671064,116.394517 48.5016596,120.08672 46.2872766,120.852568" id="Fill-79" fill="#87766B" mask="url(#mask-54)"></path>
                </g>
                <g id="Group-84" transform="translate(0.000000, 0.097881)">
                    <mask id="mask-56" fill="white">
                        <use xlink:href="#path-55"></use>
                    </mask>
                    <g id="Clip-83"></g>
                    <path d="M77.7052426,114.443593 C77.7052426,114.443593 83.5411574,119.874525 85.7918809,118.777068 C88.0426043,117.67961 86.6342638,114.253169 82.7780085,110.145119 C82.7780085,110.145119 81.3797957,113.308763 77.7052426,114.443593" id="Fill-82" fill="#87766B" mask="url(#mask-56)"></path>
                </g>
                <g id="Group-87" transform="translate(0.000000, 0.097881)">
                    <mask id="mask-58" fill="white">
                        <use xlink:href="#path-57"></use>
                    </mask>
                    <g id="Clip-86"></g>
                    <path d="M83.8279489,52.3248814 C83.9202894,52.921661 82.9623319,53.5647119 81.6868426,53.7610678 C80.4125447,53.9568305 79.3032681,53.632339 79.2109277,53.0349661 C79.1185872,52.4381864 80.0765447,51.7951356 81.352034,51.5987797 C82.6263319,51.4030169 83.7356085,51.7281017 83.8279489,52.3248814" id="Fill-85" fill="#1E1933" mask="url(#mask-58)"></path>
                </g>
                <g id="Group-90" transform="translate(0.000000, 0.097881)">
                    <mask id="mask-60" fill="white">
                        <use xlink:href="#path-59"></use>
                    </mask>
                    <g id="Clip-89"></g>
                    <path d="M79.9608511,61.2440678 L79.7428085,64.1259322 C79.7225532,64.3952542 79.9542979,64.615339 80.2229787,64.5821186 L81.2756596,64.4516102 C81.4942979,64.4249153 81.6634894,64.2475424 81.6801702,64.0292373 L82.0650213,58.9477119 C82.0650213,58.9477119 81.4454468,60.7427966 79.9608511,61.2440678" id="Fill-88" fill="#FFFFFF" mask="url(#mask-60)"></path>
                </g>
                <g id="Group-93" transform="translate(0.000000, 0.097881)">
                    <mask id="mask-62" fill="white">
                        <use xlink:href="#path-61"></use>
                    </mask>
                    <g id="Clip-92"></g>
                    <path d="M82.1471745,64.3535508 L83.1462383,64.2491441 C83.3517702,64.2277881 83.513217,64.0622797 83.5287064,63.8570254 L83.7676,60.7093983 C83.7676,60.7093983 82.0768766,60.1405 82.0649617,58.9475339 C82.0530468,57.7545678 81.8761106,59.3799915 81.8761106,59.3799915 L81.6735574,63.909822 C81.6622383,64.170839 81.8862383,64.380839 82.1471745,64.3535508" id="Fill-91" fill="#F4F1EF" mask="url(#mask-62)"></path>
                </g>
                <g id="Group-96" transform="translate(0.000000, 0.097881)">
                    <mask id="mask-64" fill="white">
                        <use xlink:href="#path-63"></use>
                    </mask>
                    <g id="Clip-95"></g>
                    <path d="M26.5870128,112.400364 C26.5870128,112.400364 17.9761191,118.228754 18.9275234,132.079263 C18.9275234,132.079263 18.7249702,141.361381 27.0731404,138.999771 C35.4213106,136.638754 34.6825872,126.586042 34.6825872,126.586042 C34.6825872,126.586042 34.4371404,122.120873 32.1858213,117.718585 C32.1858213,117.718585 31.0503319,108.502314 26.5870128,112.400364" id="Fill-94" fill="#87766B" mask="url(#mask-64)"></path>
                </g>
                <g id="Group-99" transform="translate(0.000000, 0.097881)">
                    <mask id="mask-66" fill="white">
                        <use xlink:href="#path-65"></use>
                    </mask>
                    <g id="Clip-98"></g>
                    <path d="M26.5870128,112.400364 C26.5870128,112.400364 29.4865021,115.938331 32.1858213,117.718585 C32.1858213,117.718585 25.6677787,117.738161 19.7758638,122.976297 C19.7758638,122.976297 21.8067574,132.032398 28.8109277,138.334771" id="Stroke-97" stroke="#B5A396" stroke-width="0.55" stroke-linecap="round" stroke-linejoin="round" mask="url(#mask-66)"></path>
                </g>
                <g id="Group-102" transform="translate(0.000000, 0.097881)">
                    <mask id="mask-68" fill="white">
                        <use xlink:href="#path-67"></use>
                    </mask>
                    <g id="Clip-101"></g>
                    <path d="M23.5954809,115.366763 C23.5954809,115.366763 23.3893532,123.62439 32.7216936,134.780492" id="Stroke-100" stroke="#B5A396" stroke-width="0.55" stroke-linecap="round" stroke-linejoin="round" mask="url(#mask-68)"></path>
                </g>
                <g id="Group-105" transform="translate(0.000000, 0.097881)">
                    <mask id="mask-70" fill="white">
                        <use xlink:href="#path-69"></use>
                    </mask>
                    <g id="Clip-104"></g>
                    <path d="M24.5431915,139.383169 C21.3595319,137.393508 18.9271064,132.079441 18.9271064,132.079441" id="Stroke-103" stroke="#B5A396" stroke-width="0.55" stroke-linecap="round" stroke-linejoin="round" mask="url(#mask-70)"></path>
                </g>
                <g id="Group-108" transform="translate(0.000000, 0.097881)">
                    <mask id="mask-72" fill="white">
                        <use xlink:href="#path-71"></use>
                    </mask>
                    <g id="Clip-107"></g>
                    <path d="M34.6824681,126.585805 C34.6824681,126.585805 25.533617,134.702246 21.8304681,138.673263" id="Stroke-106" stroke="#B5A396" stroke-width="0.55" stroke-linecap="round" stroke-linejoin="round" mask="url(#mask-72)"></path>
                </g>
                <g id="Group-111" transform="translate(0.000000, 0.097881)">
                    <mask id="mask-74" fill="white">
                        <use xlink:href="#path-73"></use>
                    </mask>
                    <g id="Clip-110"></g>
                    <path d="M33.6632085,122.348966 C33.6632085,122.348966 23.6821021,129.636678 19.7376766,136.136" id="Stroke-109" stroke="#B5A396" stroke-width="0.55" stroke-linecap="round" stroke-linejoin="round" mask="url(#mask-74)"></path>
                </g>
                <g id="Group-114" transform="translate(0.000000, 0.097881)">
                    <mask id="mask-76" fill="white">
                        <use xlink:href="#path-75"></use>
                    </mask>
                    <g id="Clip-113"></g>
                    <path d="M33.1553362,119.920441 C33.1553362,119.920441 23.1378894,124.923068 19.0653787,130.262644" id="Stroke-112" stroke="#B5A396" stroke-width="0.55" stroke-linecap="round" stroke-linejoin="round" mask="url(#mask-76)"></path>
                </g>
                <g id="Group-117" transform="translate(0.000000, 0.097881)">
                    <mask id="mask-78" fill="white">
                        <use xlink:href="#path-77"></use>
                    </mask>
                    <g id="Clip-116"></g>
                    <path d="M31.5606468,114.91022 C31.5606468,114.91022 26.608817,113.09022 21.6778383,118.269627" id="Stroke-115" stroke="#B5A396" stroke-width="0.55" stroke-linecap="round" stroke-linejoin="round" mask="url(#mask-78)"></path>
                </g>
                <g id="Group-120" transform="translate(0.000000, 0.097881)">
                    <mask id="mask-80" fill="white">
                        <use xlink:href="#path-79"></use>
                    </mask>
                    <g id="Clip-119"></g>
                    <path d="M73.8934298,61.6090169 C73.8934298,61.6090169 81.2723234,63.3803729 81.9544511,58.3403729 C81.9544511,58.3403729 82.5579404,55.0657966 82.2910468,53.8277458" id="Stroke-118" stroke="#271C47" stroke-width="0.55" stroke-linecap="round" stroke-linejoin="round" mask="url(#mask-80)"></path>
                </g>
                <g id="Group-123" transform="translate(0.000000, 0.097881)">
                    <mask id="mask-82" fill="white">
                        <use xlink:href="#path-81"></use>
                    </mask>
                    <g id="Clip-122"></g>
                    <path d="M85.0234894,60.6740424 C85.0234894,60.6740424 82.3062979,61.4659915 81.9548085,58.3403136" id="Stroke-121" stroke="#271C47" stroke-width="0.55" stroke-linecap="round" stroke-linejoin="round" mask="url(#mask-82)"></path>
                </g>
                <g id="Group-126" transform="translate(0.000000, 0.097881)">
                    <mask id="mask-84" fill="white">
                        <use xlink:href="#path-83"></use>
                    </mask>
                    <g id="Clip-125"></g>
                    <path d="M60.6631319,63.1216102 C66.8737702,58.9002542 70.9385362,61.0026271 70.9385362,61.0026271 C70.9385362,61.0026271 66.787983,62.9685593 66.4358979,66.1464407" id="Stroke-124" stroke="#6D5E56" stroke-width="0.55" stroke-linecap="round" stroke-linejoin="round" mask="url(#mask-84)"></path>
                </g>
                <g id="Group-129" transform="translate(0.000000, 0.097881)">
                    <mask id="mask-86" fill="white">
                        <use xlink:href="#path-85"></use>
                    </mask>
                    <g id="Clip-128"></g>
                    <path d="M66.7480085,53.7005 C66.3434979,54.6300763 65.456434,55.1432119 64.7665617,54.8460085 C64.0766894,54.5482119 63.8449447,53.5533814 64.2494553,52.6232119 C64.6533702,51.6936356 65.5410298,51.1805 66.2309021,51.4777034 C66.9207745,51.7755 67.1525191,52.7703305 66.7480085,53.7005" id="Fill-127" fill="#271C47" mask="url(#mask-86)"></path>
                </g>
                <g id="Group-132" transform="translate(0.000000, 0.097881)">
                    <mask id="mask-88" fill="white">
                        <use xlink:href="#path-87"></use>
                    </mask>
                    <g id="Clip-131"></g>
                    <path d="M66.2581277,53.8082288 C66.2348936,54.1137373 65.9674043,54.3421271 65.6605957,54.3195847 C65.3537872,54.2964492 65.1244255,54.0300932 65.1476596,53.7245847 C65.1708936,53.4196695 65.4377872,53.1906864 65.7445957,53.213822 C66.0508085,53.2369576 66.280766,53.5027203 66.2581277,53.8082288" id="Fill-130" fill="#FFFFFF" mask="url(#mask-88)"></path>
                </g>
                <g id="Group-135" transform="translate(0.000000, 0.097881)">
                    <mask id="mask-90" fill="white">
                        <use xlink:href="#path-89"></use>
                    </mask>
                    <g id="Clip-134"></g>
                    <path d="M98.3573872,82.5130932 L65.002834,88.0258898 L64.3534723,95.1000424 L97.5036851,91.8147881 C97.5036851,91.8147881 102.465643,90.866822 101.628621,84.3419915 C101.628621,84.3419915 101.99977,81.9109746 98.3573872,82.5130932" id="Fill-133" fill="#5F45BA" mask="url(#mask-90)"></path>
                </g>
                <g id="Group-138" transform="translate(0.000000, 0.097881)">
                    <mask id="mask-92" fill="white">
                        <use xlink:href="#path-91"></use>
                    </mask>
                    <g id="Clip-137"></g>
                    <path d="M65.6321191,91.6498136 C65.4528,93.6026949 64.8802894,95.1474407 64.3536511,95.0999831 C63.8270128,95.0519322 63.5452255,93.4294746 63.7245447,91.476 C63.9038638,89.5231186 64.4763745,87.9783729 65.002417,88.0264237 C65.5296511,88.0738814 65.8114383,89.696339 65.6321191,91.6498136" id="Fill-136" fill="#7565C9" mask="url(#mask-92)"></path>
                </g>
                <g id="Group-141" transform="translate(0.000000, 0.097881)">
                    <mask id="mask-94" fill="white">
                        <use xlink:href="#path-93"></use>
                    </mask>
                    <g id="Clip-140"></g>
                    <path d="M100.95674,73.7196695 L62.9261872,83.2717034 L62.2607404,90.4289068 L101.890272,81.9339915 C103.223549,81.6539915 104.269677,80.6057712 104.503209,79.269839 C104.616996,78.6190763 104.697421,77.8146695 104.7004,76.8400085 C104.709336,73.4633983 100.95674,73.7196695 100.95674,73.7196695" id="Fill-139" fill="#613ABF" mask="url(#mask-94)"></path>
                </g>
                <g id="Group-144" transform="translate(0.000000, 0.097881)">
                    <mask id="mask-96" fill="white">
                        <use xlink:href="#path-95"></use>
                    </mask>
                    <g id="Clip-143"></g>
                    <path d="M64.806,87.2264068 C64.4044681,89.197678 63.1349362,90.6053898 61.9708511,90.3704746 C60.806766,90.1349661 60.188383,88.3464068 60.5899149,86.3751356 C60.9914468,84.4038644 62.260383,82.9961525 63.4250638,83.231661 C64.5891489,83.4665763 65.2075319,85.2551356 64.806,87.2264068" id="Fill-142" fill="#945CE5" mask="url(#mask-96)"></path>
                </g>
                <g id="Group-147" transform="translate(0.000000, 0.097881)">
                    <mask id="mask-98" fill="white">
                        <use xlink:href="#path-97"></use>
                    </mask>
                    <g id="Clip-146"></g>
                    <path d="M71.0805021,93.2458136 C71.0805021,93.2458136 73.7053532,83.8142034 78.8305447,87.1872542 C78.8305447,87.1872542 83.2807574,91.672 78.2175234,95.2758136 C78.2175234,95.2758136 68.8262043,97.9636949 71.0805021,93.2458136" id="Fill-145" fill="#87766B" mask="url(#mask-98)"></path>
                </g>
                <g id="Group-150" transform="translate(0.000000, 0.097881)">
                    <mask id="mask-100" fill="white">
                        <use xlink:href="#path-99"></use>
                    </mask>
                    <g id="Clip-149"></g>
                    <path d="M86.5046894,92.1167373 C86.5046894,92.1167373 89.0914128,88.7875847 89.4196681,86.6543644 C89.7473277,84.5205508 94.3238383,83.5358051 95.390817,89.2609746 C95.390817,89.2609746 95.7822213,95.1006356 88.8447745,94.2475847 C81.9061362,93.3945339 86.5046894,92.1167373 86.5046894,92.1167373" id="Fill-148" fill="#7565C9" mask="url(#mask-100)"></path>
                </g>
                <g id="Group-153" transform="translate(0.000000, 0.097881)">
                    <mask id="mask-102" fill="white">
                        <use xlink:href="#path-101"></use>
                    </mask>
                    <g id="Clip-152"></g>
                    <path d="M94.4826638,66.9801525 L65.3060681,79.1488814 L64.6209617,88.1990508 L103.92343,70.6545593 C103.92343,70.6545593 106.438068,68.2698136 104.961217,65.7628644 C103.483174,63.255322 99.8527064,65.3790508 99.8527064,65.3790508 L100.30726,59.3643898 C100.30726,59.3643898 99.3880255,55.6846441 96.9436851,62.2871864 L94.4826638,66.9801525 Z" id="Fill-151" fill="#B88DFC" mask="url(#mask-102)"></path>
                </g>
                <g id="Group-156" transform="translate(0.000000, 0.097881)">
                    <mask id="mask-104" fill="white">
                        <use xlink:href="#path-103"></use>
                    </mask>
                    <g id="Clip-155"></g>
                    <path d="M66.9929191,83.8261271 C66.8034723,86.3253644 65.7412596,88.2835847 64.6212596,88.1993475 C63.5006638,88.1151102 62.7452596,86.0210424 62.9347064,83.5212119 C63.1241532,81.0219746 64.1857702,79.0643475 65.306366,79.1485847 C66.4269617,79.232822 67.1817702,81.3268898 66.9929191,83.8261271" id="Fill-154" fill="#D7CDF9" mask="url(#mask-104)"></path>
                </g>
            </g>
        </g>
    </g>
</svg>