<svg xmlns="http://www.w3.org/2000/svg" xmlns:xlink="http://www.w3.org/1999/xlink" width="435" height="322" viewBox="0 0 435 322">
    <defs>
        <path id="a" d="M0 .49h418.688V322.2H0z"/>
        <path id="c" d="M.557.131h11.144v9.115H.557z"/>
        <path id="e" d="M0 322.2h433.724V.49H0z"/>
    </defs>
    <g fill="none" fill-rule="evenodd">
        <g transform="translate(.615 -.348)">
            <mask id="b" fill="#fff">
                <use xlink:href="#a"/>
            </mask>
            <path fill="#F4F6F1" d="M62.402 175.572c0-85.654 69.436-155.091 155.09-155.091 85.655 0 155.092 69.437 155.092 155.09" mask="url(#b)"/>
            <path fill="#E0B9A0" d="M194.15 175.291s-31.491 2.49-48.918 0c0 0-49.293-8.962-108.544-6.472-59.25 2.489-34.67 38.338-9.866 42.819 24.804 4.482 40.736 17.614 39.243 27.479-1.495 9.864-24.161 12.354-24.161 12.354s-16.17.995-18.161 18.422c-1.992 17.427 28.38 27.883 40.827 26.389 0 0 17.428 26.887 52.28 25.891 34.854-.996 49.293-15.933 49.293-15.933s11.338-14.36 59.417-1.323l-7.449-99.005-23.96-30.62z" mask="url(#b)"/>
            <path fill="#E8D4CA" d="M168.922 136.647s19.281 3.243 43.225-1.78c8.4-1.762 43.358 25.117 49.475 32.15v13.561l-86.15-25.87-6.55-18.061z" mask="url(#b)"/>
            <path fill="#D6AF9A" d="M261.622 180.579s-87.908-32.4-110.512-58.521c0 0-12.295-17.33-18.204-2.512l-25.75 21.851 43.2 29.89 15.573 9.292h95.693z" mask="url(#b)"/>
            <path fill="#EAC6B2" d="M1.957 180.579s2.66-5.041 14.023-8.778c6.735-2.215 22.134-3.04 29.869-3.28 6.663-.208 7.913-6.026 11.359-12.054 13.781-24.111 78.629-42.697 80.865-42.697 0 0 7.26-1.382 1.107 2.888 0 0-23.233 14.065-20.595 20.972 2.637 6.907 21.6 8.414 21.6 8.414s19.841 1.758 23.735 16.45c0 0 3.014 9.545 2.009 18.085H1.957z" mask="url(#b)"/>
            <path stroke="#BCA9FF" stroke-width=".5" d="M181.998 23.51v8.581M202.93 23.51v8.581M244.798 23.51v8.581M265.732 23.51v8.581M223.865 23.51v8.581M181.998 69.551v8.581M202.93 69.551v8.581M244.798 69.551v8.581M265.732 69.551v8.581M223.865 69.551v8.581M181.998 115.592v8.58M202.93 115.592v8.58M244.798 115.592v8.58M265.732 115.592v8.58M223.865 115.592v8.58M192.465.49v8.581M213.398.49v8.581M234.331.49v8.581M255.265.49v8.581M192.465 46.531v8.58M213.398 46.531v8.58M234.331 46.531v8.58M234.331 91.76v8.58M255.265 46.531v8.58M192.465 92.572v8.58M213.398 92.572v8.58M255.265 92.572v8.58M192.465 138.612v8.581M234.331 138.612v8.581M255.265 138.612v8.581" mask="url(#b)"/>
            <path stroke="#665097" stroke-linecap="round" stroke-width=".9" d="M69.017 139.04h1.34" mask="url(#b)"/>
            <path fill="#F9D9A0" d="M347.45 118.707c-21.054-11.771-41.633 7.546-41.633 7.546l4.21 6.954c3.299-4.52 11.029-13.337 20.898-12.915 13.242.565 18.788 4.98 22.41 12.79 1.786 3.852 2.47 7.013 2.706 9.23l5.555.319c-2.272-17.239-14.147-23.924-14.147-23.924" mask="url(#b)"/>
            <path fill="#BEA9D3" d="M330.924 120.292c-9.868-.423-17.598 8.394-20.898 12.915l4.898 8.092s2.407-17.62 19.818-15.679c16.192 1.806 15.833 16.38 15.833 16.38l5.465.313c-.234-2.218-.918-5.38-2.705-9.232-3.622-7.81-9.168-12.223-22.41-12.79" mask="url(#b)"/>
            <path fill="#E29ABB" d="M336.286 111.123c-19.63-2.791-33.27 10.502-33.27 10.502l2.8 4.628s20.58-19.317 41.633-7.546c0 0 11.876 6.685 14.146 23.924l4.874.279c-1.82-11.648-10.555-28.997-30.183-31.787" mask="url(#b)"/>
            <path fill="#2EBF8B" d="M196.321 207.904s16.79.913 16.536 10.54c-.255 9.625-22.387 12.862-28.238 12.862-5.851 0-22.642 7.219-23.405 17.427-.762 10.206 6.36 17.924 26.966 18.422 20.606.497 21.37 14.937 22.641 19.418 1.272 4.481 10.94 32.612 83.188 31.865 0 0 38.414-.746 72.248-18.422 0 0 16.028-17.676-15.263-21.16 0 0-37.396 1.244-34.598-5.229 2.798-6.472 23.404-3.983 23.404-3.983s38.669 3.486 42.485-11.95c3.815-15.434-6.36-23.152-23.405-23.401-17.044-.25-43.502-.404-43.502-11.405 0-11 18.063-16.146 48.335-13.574h38.945s15.772-2.748 16.026-17.763c.255-15.015-14.5-19.475-26.457-20.108l-197.814 3.849s-14.882 2.987-14.882 18.048c0 15.062 16.79 14.564 16.79 14.564" mask="url(#b)"/>
            <path fill="#D3E7ED" d="M251.854 93.596h114.678s15.524 1.002 15.524-12.018c0-13.02-17.276-19.28-26.54-10.016 0 0-2.505-38.06-42.567-38.06 0 0-28.043 4.525-28.043 30.057 0 0-33.485-22.366-44.069 5.499 0 0-6.51 24.538 11.017 24.538" mask="url(#b)"/>
            <path fill="#333244" d="M323.243 51.92a1.891 1.891 0 1 1-3.783.002 1.891 1.891 0 0 1 3.783-.002M337.71 59.265a1.781 1.781 0 1 1-3.562 0 1.781 1.781 0 0 1 3.562 0" mask="url(#b)"/>
        </g>
        <g transform="translate(.615 -.348)">
            <g transform="translate(319.5 58.5)">
                <mask id="d" fill="#fff">
                    <use xlink:href="#c"/>
                </mask>
                <path fill="#D384A8" fill-opacity=".8" d="M2.393 1.03s.946 5.12 7.29 4.284c0 0 4.229-.222.445 2.783 0 0-8.748 4.821-9.57-5.287 0 0 .13-4.562 1.835-1.78" mask="url(#d)"/>
            </g>
            <mask id="f" fill="#fff">
                <use xlink:href="#e"/>
            </mask>
            <path fill="#87C1A3" d="M166.793 179.97l95.295-73.002s20.983-20.108 45.026 5.246l4.65 4.505 65.291 63.25H166.793z" mask="url(#f)"/>
            <path fill="#87C1A3" d="M340.788 144.836l16.431-12.766s4.467-3.469 10.95-3.201c6.484.266 19.293 15.967 19.293 15.967l25.35 28.145h-94.197l22.173-28.145z" mask="url(#f)"/>
            <path fill="#86E1E0" d="M310.52 182.95s-.889-29.398 25.973-42.274h9.65s-13.385 7.85-17.921 30.177c0 0-1.068 9.25-.445 12.452" mask="url(#f)"/>
            <path fill="#A88C7E" d="M175.696 264.539l3.33-2.801c.708-.596 1.426-1.199 2.262-1.597 1.833-.874 4.04-.651 5.911.139 1.871.79 3.474 2.091 5.031 3.395 1.204 1.006 2.523 2.368 2.165 3.897-.347 1.495-2.071 2.149-3.56 2.521-3.018.756-6.135 1.352-9.225.995-1.92-.222-3.777-.807-5.62-1.39l-2.117-.668c-.222-.07-.457-.15-.598-.333-.177-.232-.15-.557-.094-.843a5.792 5.792 0 0 1 2.837-3.891" mask="url(#f)"/>
            <path stroke="#C6A08B" stroke-width=".5" d="M178.76 232.41l-32.982-16.041-37.343 25.259L81.3 275.83l-17.178 20.452" mask="url(#f)"/>
            <path stroke="#C6A08B" stroke-width=".5" d="M23.884 275.83H81.3l31.031 22.443 33.447 18.959" mask="url(#f)"/>
            <path stroke="#C6A08B" stroke-width=".5" d="M207.305 278.11l-34.142 4.356-3.247 6.347-15.051 15.123-42.533-5.662c-26.85-.623-41.682 5.662-41.682 5.662" mask="url(#f)"/>
            <path fill="#7C7C63" d="M102.636 282.724s-7.505-2.638-7.405 8.318c0 0-1.624 6.29 3.703 1.826 0 0 9.79-4.869 3.702-10.144M125.19 284.153s-5.332 1.217-3.984 7.24c0 0 2.16 4.604 5.203 6.735 0 0 3.45-4.46 3.246-7.963-.204-3.5-.609-6.493-4.464-6.012" mask="url(#f)"/>
            <path stroke="#666651" stroke-linecap="round" stroke-linejoin="round" stroke-width=".545" d="M125.326 291.394s.05-17.727-12.106-9.194M112.674 298.55l.55-16.105c-8.487-10.018-15.66 7.24-15.66 7.24" mask="url(#f)"/>
            <path stroke="#9E86B2" stroke-width=".5" d="M196.696 198.07v-3.521" mask="url(#f)"/>
            <path stroke="#C6A08B" stroke-width=".5" d="M173.163 282.465l-12.003-8.962-48.38-10.495-4.345-21.38h17.303l35.422 3.663" mask="url(#f)"/>
            <path stroke="#C6A18B" stroke-width=".5" d="M108.435 241.628l-30.94-2.511-15.812 5.832" mask="url(#f)"/>
            <path fill="#2F9B6C" d="M260.82 143.441l15.443 35.172h-30.885z" mask="url(#f)"/>
            <path fill="#62BC8B" d="M237.402 136.893l15.442 42.457h-30.886z" mask="url(#f)"/>
            <path fill="#58A579" d="M217.05 136.264l17.33 39.469h-34.66z" mask="url(#f)"/>
            <path fill="#62BC8B" d="M190.77 128.916l17.329 47.644h-34.66z" mask="url(#f)"/>
            <path fill="#5FB280" d="M166.793 176.537a5.928 5.928 0 0 0 7.16 5.796h61.104a4.597 4.597 0 0 0 0-9.194h-.729a6.497 6.497 0 0 0-6.498-6.498 6.462 6.462 0 0 0-3.353.94 7.633 7.633 0 0 0-13.08.888 4.597 4.597 0 0 0-4.068-2.457c-1.826 0-3.4 1.07-4.142 2.613a5.343 5.343 0 0 0-5.008-3.486 5.344 5.344 0 0 0-4.864 3.134 9.66 9.66 0 0 0-7.589-3.675c-4.512 0-8.292 3.088-9.372 7.263a5.9 5.9 0 0 0-3.634-1.252 5.928 5.928 0 0 0-5.927 5.928" mask="url(#f)"/>
            <path fill="#59B277" d="M227.83 181.504a5.382 5.382 0 0 0 6.502 5.264h55.486a4.175 4.175 0 1 0 0-8.349h-.662a5.9 5.9 0 0 0-5.901-5.9 5.867 5.867 0 0 0-3.046.853 6.931 6.931 0 0 0-11.877.807 4.17 4.17 0 0 0-3.694-2.232 4.171 4.171 0 0 0-3.76 2.374 4.854 4.854 0 0 0-4.547-3.167 4.853 4.853 0 0 0-4.418 2.846 8.772 8.772 0 0 0-6.89-3.336c-4.098 0-7.531 2.803-8.511 6.594a5.355 5.355 0 0 0-3.3-1.136 5.382 5.382 0 0 0-5.382 5.382" mask="url(#f)"/>
            <path fill="#F4FFFF" d="M309.841 170.725a2.783 2.783 0 1 1-5.566 0 2.783 2.783 0 0 1 5.566 0M322.41 175.94a1.602 1.602 0 1 1-3.205 0 1.602 1.602 0 0 1 3.204 0M327.418 173.41a1.157 1.157 0 1 1-2.314.001 1.157 1.157 0 0 1 2.314 0M323.833 165.235a2.95 2.95 0 1 1-5.9 0 2.95 2.95 0 0 1 5.9 0M317.476 160.124a1.907 1.907 0 1 1-3.815-.001 1.907 1.907 0 0 1 3.815 0M315.673 174.18a2.197 2.197 0 1 1-4.286.973 2.197 2.197 0 0 1 4.286-.972" mask="url(#f)"/>
            <path fill="#BEFAEB" d="M302.909 183.34a8.696 8.696 0 0 1 8.697-8.697 8.696 8.696 0 0 1 8.696 8.697" mask="url(#f)"/>
            <path fill="#F4FFFF" d="M300.163 183.34a5.198 5.198 0 1 1 10.396 0" mask="url(#f)"/>
            <path fill="#BEFAEB" d="M323.486 183.34a6.79 6.79 0 1 1 13.581 0" mask="url(#f)"/>
            <path fill="#F4FFFF" d="M321.341 183.34a4.06 4.06 0 0 1 8.12 0M333.311 176.55a1.157 1.157 0 1 1-2.314 0 1.157 1.157 0 0 1 2.314 0" mask="url(#f)"/>
            <path fill="#58A579" d="M352.262 153.385l-15.3 34.848h30.6z" mask="url(#f)"/>
            <path fill="#62BC8B" d="M375.465 146.897l-15.3 42.066h30.601z" mask="url(#f)"/>
            <path fill="#5FB280" d="M379.616 185.764a5.306 5.306 0 0 0-3.27 1.126c-.97-3.755-4.371-6.534-8.431-6.534a8.69 8.69 0 0 0-6.828 3.307 4.808 4.808 0 0 0-4.376-2.82 4.81 4.81 0 0 0-4.506 3.137 4.132 4.132 0 0 0-7.385-.14 6.867 6.867 0 0 0-11.769-.8 5.813 5.813 0 0 0-3.016-.846 5.846 5.846 0 0 0-5.847 5.847h-.655a4.136 4.136 0 1 0 0 8.271h54.975a5.332 5.332 0 1 0 1.109-10.548" mask="url(#f)"/>
            <path fill="#0F937A" d="M312.948 263.221a.438.438 0 0 1-.438-.438v-10.724a.438.438 0 1 1 .876 0v10.724a.438.438 0 0 1-.438.438" mask="url(#f)"/>
            <path fill="#0F937A" d="M312.835 251.62s-2.239 5.362-13.097 1.63c0 0 8.483-10.316 13.097-3.326 0 0 1.833-5.836 10.927 0 0 0-4.683 6.38-10.927 1.697" mask="url(#f)"/>
            <path fill="#00896F" d="M332.648 235.682s4.09 4.885 6.134 10.224v6.02s-6.702-5.566-6.134-16.244" mask="url(#f)"/>
            <path stroke="#00896F" stroke-linecap="round" stroke-linejoin="round" stroke-width="1.473" d="M339.081 254.534l-.298-11.24c0-7.726 3.559-8.823 3.559-8.823" mask="url(#f)"/>
            <path fill="#00896F" d="M352.956 245.679s-8.6-.467-11.386 2.152c0 0-2.19 2.713-2.489 5.336 0 0 10.78-4.08 13.875-7.488" mask="url(#f)"/>
            <path fill="#7565C9" d="M353.399 231.081s-5.79 7.052-13.788 3.895c-8-3.158-8.63-9.052-8.946-12.735 0 0-.003-3.467 2.21-3.474 1.394-.004 2.421 1.79 2.421 1.79.437.535.98 2.46 2.105.63 1.327-2.159 3.263-2.499 4.21-2.183.946.315 1.31 1.865 1.499 2.684.189.82.726 1.15 1.974.447.946-.532 1.42-1.552 2.789-.737 1.285.766.369 2.842.369 2.842s-1.132 2.105 1.473 1.052c0 0 3.063-.79 4.526.948 1.684 2-.842 4.841-.842 4.841" mask="url(#f)"/>
            <path fill="#5F45BA" d="M353.057 240.305s-8.44 2.347-12.147-4.566c-3.707-6.914-.519-11.905 1.529-14.98 0 0 2.135-2.73 3.703-1.51.99.768.608 2.748.608 2.748-.02.665-.824 2.48 1.1 1.663 2.268-.965 3.847-.162 4.322.61.474.774-.223 2.195-.596 2.945-.371.75-.194 1.306 1.12 1.444.998.105 1.961-.435 2.425.964.436 1.314-1.49 2.442-1.49 2.442s-2.099 1.03.391 1.643c0 0 2.653 1.073 2.616 3.252-.043 2.506-3.581 3.345-3.581 3.345" mask="url(#f)"/>
            <path fill="#00896F" d="M291.89 274.941s-5.763 6.884-8.644 14.408v8.486s9.444-7.845 8.644-22.894" mask="url(#f)"/>
            <path stroke="#00896F" stroke-linecap="round" stroke-linejoin="round" stroke-width="1.35" d="M282.823 301.508l.422-15.84c0-10.887-5.016-12.434-5.016-12.434" mask="url(#f)"/>
            <path fill="#00896F" d="M263.271 289.03s12.12-.66 16.046 3.033c0 0 3.086 3.824 3.507 7.519 0 0-15.192-5.75-19.553-10.552" mask="url(#f)"/>
            <path fill="#7565C9" d="M262.647 268.458s8.157 9.937 19.43 5.488c11.273-4.45 12.164-12.756 12.608-17.948 0 0 .004-4.885-3.114-4.894-1.966-.006-3.411 2.522-3.411 2.522-.618.754-1.382 3.468-2.968.889-1.87-3.043-4.598-3.523-5.933-3.077-1.334.444-1.848 2.628-2.114 3.782-.266 1.156-1.022 1.62-2.78.63-1.335-.751-2.003-2.187-3.93-1.038-1.812 1.079-.52 4.005-.52 4.005s1.595 2.966-2.077 1.483c0 0-4.315-1.114-6.377 1.335-2.374 2.818 1.186 6.823 1.186 6.823" mask="url(#f)"/>
            <path fill="#5F45BA" d="M263.128 281.457s11.894 3.308 17.119-6.436c5.223-9.744.732-16.776-2.155-21.109 0 0-3.01-3.848-5.22-2.13-1.393 1.083-.857 3.874-.857 3.874.03.936 1.163 3.496-1.548 2.343-3.198-1.36-5.422-.228-6.09.861-.67 1.09.313 3.093.837 4.148.525 1.058.276 1.842-1.578 2.036-1.405.148-2.763-.614-3.417 1.358-.615 1.853 2.103 3.441 2.103 3.441s2.955 1.453-.555 2.318c0 0-3.737 1.51-3.684 4.58.06 3.534 5.045 4.716 5.045 4.716" mask="url(#f)"/>
            <path fill="#00896F" d="M212.292 253.476s4.433 5.294 6.65 11.082v6.526s-7.266-6.034-6.65-17.608" mask="url(#f)"/>
            <path stroke="#00896F" stroke-linecap="round" stroke-linejoin="round" stroke-width="1.997" d="M219.265 273.91l-.324-12.184c0-8.373 3.859-9.564 3.859-9.564" mask="url(#f)"/>
            <path fill="#00896F" d="M234.304 264.312s-9.321-.507-12.342 2.332c0 0-2.373 2.942-2.697 5.785 0 0 11.685-4.423 15.04-8.117" mask="url(#f)"/>
            <path fill="#7565C9" d="M234.784 248.489s-6.275 7.644-14.944 4.22c-8.67-3.422-9.356-9.81-9.698-13.803 0 0-.003-3.758 2.396-3.765 1.512-.004 2.623 1.94 2.623 1.94.476.58 1.063 2.667 2.282.684 1.44-2.34 3.537-2.71 4.564-2.367 1.027.342 1.421 2.02 1.625 2.91.205.888.787 1.245 2.14.483 1.026-.577 1.54-1.683 3.024-.798 1.392.83.398 3.08.398 3.08s-1.226 2.282 1.597 1.141c0 0 3.32-.857 4.907 1.027 1.825 2.167-.914 5.248-.914 5.248" mask="url(#f)"/>
            <path fill="#5F45BA" d="M234.414 258.487s-9.148 2.544-13.166-4.95c-4.019-7.494-.563-12.903 1.657-16.237 0 0 2.315-2.959 4.015-1.637 1.07.834.658 2.98.658 2.98-.022.72-.894 2.688 1.191 1.802 2.46-1.047 4.17-.176 4.686.662.514.838-.242 2.378-.645 3.19-.404.813-.213 1.416 1.213 1.566 1.082.114 2.126-.472 2.628 1.046.474 1.423-1.616 2.645-1.616 2.645s-2.273 1.118.426 1.783c0 0 2.874 1.162 2.834 3.523-.046 2.718-3.88 3.627-3.88 3.627" mask="url(#f)"/>
            <path stroke="#86E1E0" stroke-linecap="round" stroke-width="1.338" d="M280.79 173.4v3.984M301.723 173.4v3.984M322.656 173.4v3.984" mask="url(#f)"/>
            <path stroke="#D3E7ED" stroke-linecap="round" stroke-width="1.338" d="M280.79 109.282v3.984M301.723 109.282v3.984M343.59 109.282v3.984M364.524 109.282v3.984M322.656 109.282v3.984M280.79 130.655v3.983M301.723 130.655v3.983M343.59 130.655v3.983M364.524 130.655v3.983M322.656 130.655v3.983M280.79 152.028v3.983M301.723 152.028v3.983M343.59 152.028v3.983M364.524 152.028v3.983M322.656 152.028v3.983M291.256 98.596v3.983M312.19 98.596v3.983M333.123 98.596v3.983M354.057 98.596v3.983M291.256 119.969v3.983M312.19 119.969v3.983M333.123 119.969v3.983M354.057 119.969v3.983M291.256 141.341v3.984M312.19 141.341v3.984M354.057 141.341v3.984M291.256 162.714v3.984M333.123 162.714v3.984M354.057 162.714v3.984" mask="url(#f)"/>
            <path fill="#8A8ABF" d="M232.523 181.76c-1.168 0-2.239.4-3.094 1.065-.918-3.553-4.135-6.182-7.976-6.182a8.223 8.223 0 0 0-6.46 3.129 4.547 4.547 0 0 0-4.139-2.668 4.55 4.55 0 0 0-4.263 2.967 3.908 3.908 0 0 0-6.987-.133 6.496 6.496 0 0 0-11.133-.756 5.49 5.49 0 0 0-2.854-.8 5.53 5.53 0 0 0-5.531 5.53h-.62a3.913 3.913 0 0 0 0 7.826h52.008a5.045 5.045 0 1 0 1.048-9.978" mask="url(#f)"/>
            <path fill="#58A579" d="M387.396 146.274l-21.238 48.368h42.474z" mask="url(#f)"/>
            <path fill="#62BC8B" d="M408.42 152.899l-18.288 50.282h36.576z" mask="url(#f)"/>
            <path fill="#11C982" d="M427.468 196.9a6.22 6.22 0 0 0-3.835 1.321c-1.139-4.406-5.13-7.665-9.89-7.665a10.196 10.196 0 0 0-8.01 3.878 5.641 5.641 0 0 0-5.134-3.307 5.641 5.641 0 0 0-5.285 3.679 4.848 4.848 0 0 0-4.371-2.758 4.849 4.849 0 0 0-4.292 2.594 8.056 8.056 0 0 0-7.181-4.409 8.051 8.051 0 0 0-6.623 3.47 6.822 6.822 0 0 0-3.54-.99 6.857 6.857 0 0 0-6.857 6.858h-.77a4.85 4.85 0 1 0 0 9.702h64.488a6.255 6.255 0 1 0 1.3-12.373" mask="url(#f)"/>
            <path fill="#0F937A" d="M300.403 236.045a.244.244 0 0 1-.244-.244v-5.957a.244.244 0 0 1 .488 0v5.957c0 .135-.11.244-.244.244" mask="url(#f)"/>
            <path fill="#0F937A" d="M300.34 229.6s-1.243 2.979-7.275.905c0 0 4.712-5.73 7.276-1.847 0 0 1.018-3.242 6.07 0 0 0-2.602 3.544-6.07.943M259.297 250.22a.244.244 0 0 1-.244-.243v-5.957a.244.244 0 0 1 .488 0v5.957c0 .135-.11.244-.244.244" mask="url(#f)"/>
            <path fill="#0F937A" d="M259.234 243.776s-1.243 2.979-7.275.905c0 0 4.711-5.73 7.275-1.847 0 0 1.018-3.243 6.07 0 0 0-2.6 3.543-6.07.942" mask="url(#f)"/>
            <path fill="#00896F" d="M321.847 304.102a.565.565 0 0 1-.565-.565v-13.828a.565.565 0 1 1 1.13 0v13.828a.565.565 0 0 1-.565.565" mask="url(#f)"/>
            <path fill="#00896F" d="M321.703 289.144s-2.888 6.913-16.89 2.1c0 0 10.94-13.302 16.89-4.288 0 0 2.362-7.526 14.088 0 0 0-6.038 8.226-14.088 2.188" mask="url(#f)"/>
            <path stroke="#0C6D5B" stroke-linecap="round" stroke-linejoin="round" stroke-width=".936" d="M328.387 287.287s-3.684-2.487-6.54.993c0 0-4.701-2.73-7.89.864" mask="url(#f)"/>
            <path fill="#00896F" d="M243.317 290.39a.438.438 0 0 1-.438-.438V279.23a.438.438 0 1 1 .877 0v10.723a.438.438 0 0 1-.439.438" mask="url(#f)"/>
            <path fill="#00896F" d="M243.205 278.79s-2.24 5.361-13.098 1.629c0 0 8.484-10.316 13.098-3.325 0 0 1.832-5.837 10.927 0 0 0-4.684 6.379-10.927 1.696" mask="url(#f)"/>
            <path stroke="#0C6D5B" stroke-linecap="round" stroke-linejoin="round" stroke-width=".694" d="M248.226 277.17s-2.73-1.844-4.846.736c0 0-3.485-2.023-5.85.64" mask="url(#f)"/>
            <path fill="#11C982" d="M170.574 198.58a6.255 6.255 0 0 0 7.555 6.118h64.487a4.852 4.852 0 0 0 0-9.704h-.77a6.858 6.858 0 0 0-6.857-6.858 6.809 6.809 0 0 0-3.538.992 8.055 8.055 0 0 0-13.805.938 4.847 4.847 0 0 0-8.664.164 5.64 5.64 0 0 0-5.285-3.679 5.639 5.639 0 0 0-5.133 3.308 10.193 10.193 0 0 0-8.01-3.879c-4.761 0-8.75 3.26-9.89 7.665a6.224 6.224 0 0 0-3.835-1.32 6.254 6.254 0 0 0-6.255 6.255" mask="url(#f)"/>
            <path fill="#499E78" d="M229.342 190.239a6.255 6.255 0 0 0 7.555 6.118h64.487a4.852 4.852 0 0 0 0-9.704h-.77a6.858 6.858 0 0 0-6.856-6.858 6.812 6.812 0 0 0-3.54.992 8.052 8.052 0 0 0-13.803.938 4.846 4.846 0 0 0-8.663.165 5.641 5.641 0 0 0-5.286-3.68 5.64 5.64 0 0 0-5.134 3.308 10.195 10.195 0 0 0-8.01-3.878c-4.761 0-8.75 3.259-9.89 7.664a6.224 6.224 0 0 0-3.835-1.32 6.254 6.254 0 0 0-6.255 6.255" mask="url(#f)"/>
            <path fill="#1BA86F" d="M282.214 163.031c0 12.441-10.084 22.526-22.525 22.526-12.44 0-22.526-10.085-22.526-22.526 0-12.44 10.085-22.526 22.526-22.526 12.44 0 22.525 10.086 22.525 22.526" mask="url(#f)"/>
            <path fill="#3E998A" d="M307.265 171.756c0 8.849-7.174 16.022-16.023 16.022-8.848 0-16.02-7.173-16.02-16.022 0-8.849 7.172-16.022 16.02-16.022 8.849 0 16.023 7.173 16.023 16.022" mask="url(#f)"/>
            <path stroke="#3F3B39" stroke-linecap="round" stroke-width=".569" d="M261.38 158.907v42.195M251.863 161.445l9.518 10.998M291.242 171.756v31.99M284.647 175.828l6.595 5.076 6.307-5.076" mask="url(#f)"/>
            <path fill="#908AE8" d="M302.969 206.88c-1.255 0-2.405.43-3.323 1.143-.987-3.817-4.444-6.64-8.57-6.64a8.834 8.834 0 0 0-6.94 3.36 4.886 4.886 0 0 0-4.447-2.866 4.888 4.888 0 0 0-4.58 3.188 4.2 4.2 0 0 0-7.506-.142 6.981 6.981 0 0 0-6.222-3.82 6.974 6.974 0 0 0-5.739 3.007 5.907 5.907 0 0 0-3.066-.86 5.942 5.942 0 0 0-5.943 5.942h-.666a4.204 4.204 0 0 0 0 8.408h55.875a5.42 5.42 0 1 0 1.127-10.72" mask="url(#f)"/>
            <path fill="#069F98" d="M284.114 221.191s-2.148 2.564-3.22 5.367v3.16s3.518-2.922 3.22-8.527" mask="url(#f)"/>
            <path stroke="#069F98" stroke-linecap="round" stroke-linejoin="round" stroke-width=".766" d="M280.736 231.087l.158-5.9c0-4.055-1.869-4.632-1.869-4.632" mask="url(#f)"/>
            <path fill="#069F98" d="M273.453 226.439s4.515-.245 5.977 1.13c0 0 1.15 1.424 1.306 2.8 0 0-5.658-2.141-7.283-3.93" mask="url(#f)"/>
            <path fill="#A1A1E5" d="M273.22 218.776s3.04 3.702 7.238 2.044c4.199-1.657 4.53-4.751 4.696-6.684 0 0 .002-1.82-1.16-1.824-.732-.002-1.27.939-1.27.939-.23.282-.515 1.292-1.106.332-.696-1.134-1.712-1.312-2.21-1.146-.497.165-.688.978-.787 1.408-.099.431-.38.603-1.036.235-.496-.28-.746-.815-1.463-.386-.675.401-.193 1.491-.193 1.491s.593 1.105-.774.553c0 0-1.608-.415-2.376.497-.884 1.05.441 2.541.441 2.541" mask="url(#f)"/>
            <path fill="#895ACC" d="M273.4 223.618s4.43 1.232 6.376-2.398c1.946-3.628.273-6.247-.803-7.862 0 0-1.12-1.433-1.944-.793-.518.403-.318 1.443-.318 1.443.01.348.432 1.302-.577.873-1.192-.507-2.02-.086-2.269.32-.25.406.116 1.152.311 1.546.197.393.104.685-.586.757-.524.056-1.03-.228-1.274.507-.228.69.783 1.28.783 1.28s1.102.543-.205.865c0 0-1.392.562-1.373 1.706.022 1.316 1.879 1.756 1.879 1.756" mask="url(#f)"/>
            <path fill="#3AD898" d="M250.171 179.37c0 12.003-9.73 21.732-21.732 21.732-12.002 0-21.732-9.73-21.732-21.732 0-12.002 9.73-21.732 21.732-21.732 12.001 0 21.732 9.73 21.732 21.732" mask="url(#f)"/>
            <path stroke="#3F3B39" stroke-linecap="round" stroke-width=".569" d="M228.438 179.37v37.701M219.29 179.37l9.148 12.743M228.438 186.826l5.87-3.384" mask="url(#f)"/>
            <path fill="#069F98" d="M187.163 227.858s2.996 3.579 4.495 7.491v4.412s-4.911-4.079-4.495-11.903" mask="url(#f)"/>
            <path stroke="#069F98" stroke-linecap="round" stroke-linejoin="round" stroke-width="1.069" d="M191.877 241.671l-.219-8.236c0-5.66 2.608-6.465 2.608-6.465" mask="url(#f)"/>
            <path fill="#069F98" d="M202.044 235.183s-6.302-.342-8.344 1.577c0 0-1.604 1.988-1.823 3.91 0 0 7.899-2.99 10.167-5.487" mask="url(#f)"/>
            <path fill="#A97DFF" d="M202.368 224.486s-4.241 5.167-10.103 2.854c-5.86-2.314-6.324-6.633-6.556-9.332 0 0-.001-2.54 1.62-2.545 1.022-.004 1.774 1.311 1.774 1.311.32.393.718 1.804 1.543.463.973-1.582 2.39-1.833 3.084-1.6.695.231.961 1.366 1.099 1.966.139.601.533.842 1.446.328.695-.39 1.042-1.138 2.044-.54.942.561.27 2.082.27 2.082s-.829 1.543 1.08.772c0 0 2.244-.58 3.317.694 1.234 1.465-.618 3.547-.618 3.547" mask="url(#f)"/>
            <path fill="#7565C9" d="M202.118 231.245s-6.184 1.72-8.901-3.346c-2.716-5.066-.38-8.723 1.12-10.976 0 0 1.565-2 2.715-1.107.724.563.444 2.014.444 2.014-.014.487-.604 1.818.806 1.219 1.663-.708 2.82-.12 3.167.447.348.566-.163 1.607-.436 2.157-.272.55-.143.957.82 1.059.732.076 1.438-.32 1.779.705.318.964-1.094 1.79-1.094 1.79s-1.537.755.287 1.204c0 0 1.943.786 1.916 2.383-.03 1.837-2.623 2.451-2.623 2.451" mask="url(#f)"/>
            <path fill="#0F937A" d="M243.478 236.223a.232.232 0 0 1-.232-.233v-5.693c0-.128.104-.232.232-.232.13 0 .233.104.233.232v5.693a.233.233 0 0 1-.233.233" mask="url(#f)"/>
            <path fill="#0F937A" d="M243.42 230.065s-1.19 2.846-6.954.865c0 0 4.504-5.477 6.953-1.766 0 0 .972-3.098 5.8 0 0 0-2.485 3.387-5.8.901" mask="url(#f)"/>
            <path fill="#876C61" d="M208.417 278.324l-.37-.767-40.437.92 5.553 3.988z" mask="url(#f)"/>
            <path fill="#876C61" d="M173.163 282.465l-1.529-1.092-5.272 11.012 3.555-3.571zM164.104 275.701l11.82 4.648-6.026-.061zM163.644 242.633l-36.947-1.005 35.247 4.027zM175.541 233.81l-30.422-17.395 33.64 15.995z" mask="url(#f)"/>
            <path fill="#876C61" d="M157.422 243.176l10.431-4.793-4.21 4.25zM156.042 244.762l-23.317 9.55-24.29-12.683 23.682 8.999 13.002-6.895z" mask="url(#f)"/>
            <path fill="#876C61" d="M147.148 247.113l-10.07 7.198-11.05 7.969-6.755 2.136 6.053-3.91 7.399-6.195z" mask="url(#f)"/>
            <path fill="#0F937A" d="M153.573 245.655v-7.098a.29.29 0 1 1 .582 0v6.876" mask="url(#f)"/>
            <path fill="#0F937A" d="M153.79 239.189s-1.483 3.548-8.671 1.078c0 0 5.615-6.829 8.67-2.202 0 0 1.214-3.863 7.233 0 0 0-3.1 4.223-7.233 1.124M170.261 230.79v-5.247a.218.218 0 1 1 .437 0v5.497" mask="url(#f)"/>
            <path fill="#0F937A" d="M170.424 226.018s-1.116 2.67-6.524.81c0 0 4.225-5.136 6.524-1.655 0 0 .912-2.906 5.44 0 0 0-2.331 3.177-5.44.845" mask="url(#f)"/>
            <path stroke="#C6A18B" stroke-width=".5" d="M86.846 212.951l39.85-11.848 21.447-.584 22.43-1.94M4.367 198.07l44.444 4.44-4.763 10.813" mask="url(#f)"/>
            <path stroke="#C6A18B" stroke-width=".5" d="M48.811 202.51l11.747-10.66 46.598.263 19.541 8.99" mask="url(#f)"/>
            <path fill="#896962" d="M60.558 191.85l-21.266-11.271" mask="url(#f)"/>
            <path stroke="#C6A08B" stroke-width=".5" d="M107.156 192.113l9.495-11.534 31.492 19.94-3.024 15.896-35.423-3.662-75.496.655" mask="url(#f)"/>
            <path fill="#896962" d="M78.312 185l-10.705-10.456s-1.867.125-11.95 0L44.456 185s4.107.057 5.477 0l8.464-7.717 6.472-.25 11.453 13.196-.747 32.659v4.56H81.3v-37.966l5.726-7.22 9.958-5.975-2.987-1.743-10.208 5.228L78.312 185z" mask="url(#f)"/>
            <path fill="#896962" d="M81.3 202.51l12.945-7.053 4.4-10.4-1.914.267-5.643 9.233-9.788 3.513z" mask="url(#f)"/>
            <path fill="#A88C7E" d="M72.073 223.215c-4.724.423-9.007 3.994-10.273 8.565-.099.36-.18.75-.05 1.102.092.25.28.449.475.63 2.464 2.303 6.208 2.573 9.55 2.115 3.34-.458 6.63-1.515 10-1.39 1.049.039 2.256.137 2.987-.618.834-.863.516-2.274.142-3.416l-1.515-4.63c-.17-.517-.345-1.046-.677-1.476-.436-.563-1.097-.902-1.759-1.168-3.603-1.448-7.868-1.14-11.226.812" mask="url(#f)"/>
            <path fill="#876C61" d="M135.632 215.435l7.641-1.023 3.241-5.33-.75 5.545 13.13 8.338-11.699-5.562h-2.076l-9.716 5.984 7.786-6.415zM160.352 269.419l-41.08-5.002 38.15 8.726z" mask="url(#f)"/>
            <path fill="#C6A08B" d="M154.641 272.87c-.144 1.092.342 2.327 1.355 2.757.51.217 1.084.21 1.64.199l15.352-.296c1.258-.024 2.551-.055 3.715-.536 1.163-.48 2.185-1.52 2.262-2.777.05-.824-.301-1.619-.703-2.34-1.798-3.216-4.887-5.762-8.478-6.59-3.59-.826-7.63.197-10.173 2.864-.795.836-1.435 1.804-2.07 2.766-.63.953-1.26 1.906-1.888 2.86" mask="url(#f)"/>
            <path fill="#0F937A" d="M177.235 281.971a.244.244 0 0 1-.244-.244v-5.957a.244.244 0 0 1 .488 0v5.957c0 .135-.11.244-.244.244" mask="url(#f)"/>
            <path fill="#0F937A" d="M177.173 275.527s-1.244 2.978-7.276.904c0 0 4.712-5.73 7.276-1.846 0 0 1.018-3.243 6.07 0 0 0-2.602 3.543-6.07.942" mask="url(#f)"/>
            <path fill="#876C61" d="M142.568 302.299l23.794-9.915-11.497 11.552z" mask="url(#f)"/>
            <path fill="#0F937A" d="M144.535 217.47v-5.248a.218.218 0 1 1 .436 0v5.497" mask="url(#f)"/>
            <path fill="#0F937A" d="M144.697 212.697s-1.115 2.67-6.522.81c0 0 4.224-5.137 6.522-1.655 0 0 .913-2.906 5.442 0 0 0-2.332 3.177-5.442.845" mask="url(#f)"/>
            <path fill="#FFF" d="M89.885 218.779c-1.554-1.645-3.762-.879-3.762-.879 3.832 1.332 1.853 4.009.506 5.357a4.972 4.972 0 0 0-6.697 3.38c-1.87.281-5.325.321-4.072-3.606 0 0-1.937 1.306-1.554 3.537.382 2.23 3.74 2.748 3.74 2.748l2.088.415c.05.126.102.251.164.374a4.976 4.976 0 0 0 3.847 2.712c.012.265.077.53.203.782a1.97 1.97 0 0 0 2.635.88l1.623-.812a1.971 1.971 0 0 0 .878-2.636 1.934 1.934 0 0 0-.456-.59 4.976 4.976 0 0 0-.051-5.225l.863-1.797s1.6-2.996.045-4.64" mask="url(#f)"/>
            <path fill="#231F20" d="M84.25 228.58a.53.53 0 1 1-.948.472.53.53 0 0 1 .948-.472M86.424 227.493a.528.528 0 1 1-.945.473.528.528 0 0 1 .945-.473" mask="url(#f)"/>
            <path fill="#1C1C1C" d="M86.265 233.152a.177.177 0 0 0-.082.236l.57 1.175.318-.155-.569-1.175a.177.177 0 0 0-.237-.081M87.04 232.776a.178.178 0 0 0-.083.236l.57 1.175.32-.155-.57-1.175a.178.178 0 0 0-.237-.081M87.815 232.4a.177.177 0 0 0-.083.237l.57 1.174.32-.155-.57-1.174a.177.177 0 0 0-.237-.082" mask="url(#f)"/>
        </g>
    </g>
</svg>
