<svg xmlns="http://www.w3.org/2000/svg" xmlns:xlink="http://www.w3.org/1999/xlink" width="435" height="326" viewBox="0 0 435 326">
    <defs>
        <path id="a" d="M.05.103h20.156V16H.05z"/>
        <path id="c" d="M0 325.858h435v-325H0z"/>
    </defs>
    <g fill="none" fill-rule="evenodd" transform="translate(0 -1)">
        <path fill="#F4F6F1" d="M55 165.858c0-78.424 63.799-142 142.5-142s142.5 63.576 142.5 142"/>
        <path stroke="#BCA9FF" stroke-linecap="round" stroke-width=".221" d="M74 76.858v89M118 31.858v134"/>
        <path fill="#2EBF8B" d="M74.667 165.88c-17.413.262-34.823.523-52.237.782-5.319.08-10.872.242-15.572 3.878-4.7 3.638-8.178 11.923-6.373 19.235 2.17 8.795 9.866 10.912 16.246 11.64l18.183 2.072c5.435.622 11.069 1.33 15.806 5.273 4.736 3.946 9.548 12.467 6.853 19.804C53.48 239.7 25.571 239.422 20.4 240.091c-20.4 2.627-17.66 25.424-3.328 31.578 5.276 2.264 59.858 4.028 72.08 1.23-5.362 2.041-5.495 5.359-1.295 10.636 4.2 5.278 10.283 5.422 15.82 5.298 65.7-1.497 131.402-2.998 197.1-4.494 12.437-.284 44.43-.824 55.11-10.145 2.841-2.48 5.6-5.879 6.418-10.56 1.193-6.858-2.29-13.8-6.49-17.323-8.856-7.435-28.37-6.756-38.55-8-10.18-1.244-16.807-7.696-17.465-17.457 1.356-12.135 15.816-9.49 30.189-8.72 8.162.437 16.433 1.324 24.43-1.13 7.994-2.45 15.867-8.83 19.635-19.428 3.768-10.6 2.054-19.315-5.022-25.29-4.169-3.517-9.257-1.672-14.07-1.468-39.806 1.676-79.53-.554-119.356-.96"/>
        <path fill="#534784" d="M65 301.33s21.797-7.794 23.412 8.895c.824 8.514 14.924 3.804 24.774 5.449 19.477 3.25 31.648 10.254 64.684 9.045 3.663-.135 19.618-10.275 24.926-5.35 0 0 4.261 3.998 12.402-.927 8.581-5.193 9.826-16.834 41.935-3.554 4.647 1.921 10.392.152 15.378-1.469 16.197-5.266 35.145 3.022 47.192-5.397 14.873-10.396 28.624-4.372 36.297-6.692L216.135 191.858l-49.887 3.949L65 301.33z"/>
        <path fill="#684887" d="M71.582 179.892L45 189.808v7.05l27.643-12.35s1.835-.85 1.237-2.943c-.6-2.09-2.298-1.673-2.298-1.673"/>
        <path fill="#766AD3" d="M47 192.359c0 1.933-.671 3.499-1.499 3.499-.828 0-1.501-1.566-1.501-3.5s.673-3.5 1.501-3.5c.828 0 1.499 1.566 1.499 3.5"/>
        <path fill="#FFF" d="M58.15 185.77l.455.816c.116.213.36.316.592.254l.26-.07a.534.534 0 0 0 .372-.666l-.65-2.246-1.03 1.911z"/>
        <path fill="#FFF" d="M60.865 184.891l.129 1.092c.036.299-.089.59-.307.709l-.202.111c-.269.148-.579-.017-.685-.364l-.8-2.581 1.865 1.033z"/>
        <path fill="#A5978E" d="M46.308 180.961s-1.467-.731-1.294-3.653c0 0 1.38-1.026 4.052.13 0 0 4.742-6.063 12.591-2.41 0 0 .776-.551 2.157-.465 1.379.087.603 2.533.603 2.533s2.242 7.087-2.07 7.318c0 0-3.017.317-3.793-1.085 0 0-.26 2.19-2.76 2.98 0 0-3.538 1.49-5.952-.438 0 0-2.243-1.254-3.534-4.91"/>
        <path fill="#87766B" d="M49 178.28s-1.02.878-1.361 1.566c0 0-2.13-.336-2.639-1.69 0 0 .85-.722 4 .124M62 175.493l1.36 1.172.64-1.614s-1.2.138-2 .442"/>
        <path fill="#1E1933" d="M58.994 180.59c.06.3-.335.664-.887.812-.548.148-1.04.026-1.101-.274-.06-.302.335-.664.885-.814.55-.148 1.043-.024 1.103.276"/>
        <path fill="#271C47" d="M52.565 180.052c-.146.424-.518.68-.83.57-.312-.108-.448-.538-.3-.96.146-.424.516-.678.83-.57.312.106.446.538.3.96M59.559 178.262c.302.33.744.416.988.194.244-.224.198-.672-.106-1.002-.3-.33-.744-.416-.988-.194-.244.222-.196.672.106 1.002"/>
        <path stroke="#271C47" stroke-linecap="round" stroke-linejoin="round" stroke-width=".223" d="M58.51 183.858s.18-1.452-1.03-3"/>
        <path stroke="#6D5E56" stroke-linecap="round" stroke-linejoin="round" stroke-width=".133" d="M51 183.522c2.912-2.415 5-1.49 5-1.49s-1.979 1.174-2.032 2.826M65 179.858c-3.162.16-4 2.264-4 2.264s1.896-.46 2.819.736"/>
        <path fill="#87766B" d="M40.57 169.682s-3.533-8.668 0-9.67c3.531-1 5.044 2.96 4.202 8.983 0 0-.334 3.687-4.202.687"/>
        <path stroke="#AA998D" stroke-linecap="round" stroke-linejoin="round" stroke-width=".111" d="M40.708 158.858s-1.388 2.372-1.416 5M42 158.858s-1.689 3.609-2 8M44 160.858s-3.363 7.34-2.968 9M44 161.858s-1.031 5.669-2 8M44.85 167.858s-.736 1.855-1.7 3M39 160.24s2.88.05 5 1.236M39 161.88s4.24-.126 6 1.958M39 162.858s4.495 1.476 6 2M39 163.858s2.576 1.445 6 3M39 166.858s1.477 1.554 5 2M40 168.208s2.583 1.434 4 1.29"/>
        <path fill="#C6A893" d="M73.223 199.378s1.747-10.79 10.424-14.66c8.682-3.872 16.748-2.862 20.66-2.349 3.909.513 6.21 6.518 5.717 11.138 0 0-2.57 2.68 4.534 5.795 0 0 15.577 9.387 10.381 34.99l-32.392 25.566s-25.759-5.341-26.205-24.249c-.442-18.907 4.785-24.594 4.785-24.594s-15.092-10.819 2.096-11.637"/>
        <path stroke="#271C47" stroke-linecap="round" stroke-linejoin="round" stroke-width=".442" d="M103.788 193.858l-1.576-3"/>
        <path fill="#87766B" d="M73.322 203.776l.678-4.9s-5.4-.41-7.646 2.617c-2.25 3.031 6.968 2.283 6.968 2.283M92 183.858s2.707-6.53 4.932-5.966c2.225.566 4.068 5.843 4.068 5.843s-3.898-1.136-9 .123"/>
        <path fill="#271C47" d="M89.573 194.669c-.683 1.176-1.94 1.542-2.808.815-.868-.722-1.021-2.262-.337-3.436.682-1.176 1.94-1.542 2.807-.82.869.727 1.02 2.264.338 3.44"/>
        <path fill="#1E1933" d="M103.861 188.224c.497.638-.384 1.887-1.963 2.788-1.582.902-3.264 1.116-3.76.48-.496-.638.385-1.884 1.967-2.788 1.579-.902 3.261-1.116 3.756-.48"/>
        <path fill="#613ABF" d="M95.114 211.268L133 216.716l-.182 11.142L88 222.315l1.873-11.457z"/>
        <path fill="#87766B" d="M88.54 228.57s7.468-.549 9.183-5.669c1.715-5.122 9.348-6.895 6.739 3.926 0 0-.778 7.495-9.948 5.774-9.171-1.72-5.975-4.032-5.975-4.032M114.078 214.485s-3.009 5.19 1.028 7.072c4.035 1.883 6.882-5.678 6.882-5.678s.658-8.03-7.91-1.394"/>
        <path fill="#945CE5" d="M91.845 217.36c-.525 3.302-2.223 5.753-3.797 5.477-1.57-.277-2.417-3.18-1.893-6.481.525-3.3 2.223-5.753 3.793-5.477.196.037.383.112.555.225 1.209.786 1.8 3.366 1.342 6.256"/>
        <path fill="#FFF" d="M102 197.832l1.196 1.555c.306.402.885.572 1.407.41l.585-.181c.644-.2.976-.827.732-1.39l-1.902-4.368-2.018 3.974z"/>
        <path fill="#FFF" d="M108.51 195.323l.457 1.882c.128.512-.127 1.042-.613 1.288l-.456.23c-.605.306-1.353.073-1.654-.51L104 193.858l4.51 1.465z"/>
        <path stroke="#271C47" stroke-linecap="round" stroke-linejoin="round" stroke-width=".442" d="M104 193.296c3.685 3.14 8-.218 8-.218M96 199.784s6.174 1.185 8-5.926"/>
        <path fill="#87766B" d="M94.176 258.754s-22.794-23.563-39.138-21.802c-16.343 1.756-12.118 21.379 8.23 23.82 0 0 22.181 3.845 28.106 2.951 5.929-.896 2.802-4.97 2.802-4.97"/>
        <path stroke="#B5A396" stroke-linecap="round" stroke-linejoin="round" stroke-width=".442" d="M49 237.858s4.398 5.803 3.97 19M55 236.858s9.513 5.48 4.582 23M65 237.858s8.424 12.235 3.403 23M76 242.858s5.287 9.266 1.824 20M84 248.858s4.217 6.054 2.652 14M45 243.858s9.046-.615 18-7M46 250.842s15.05.852 25-9.984M55 257.858s15.57-2.022 25-12M71 260.858s8.567-1.331 18-9M82 261.858s10.117-3.445 12-5"/>
        <path fill="#5F45BA" d="M37 297.298l18.158 23.56L199 201.51l-20.646-11.653z"/>
        <path fill="#7565C9" d="M56.16 320.843c-4.48 3.918-12.66 1.947-18.272-4.395-5.61-6.345-6.526-14.66-2.046-18.576 4.479-3.916 12.657-1.948 18.27 4.395 5.61 6.344 6.526 14.66 2.047 18.576"/>
        <path fill="#5F45BA" d="M199 198.087l14.327 111.77L238 307.02l-17.265-124.161z"/>
        <path fill="#945CE5" d="M238.94 306.174c.672 4.88-4.355 9.592-11.225 10.523-6.87.93-12.985-2.273-13.655-7.155-.672-4.88 4.355-9.594 11.227-10.523 6.87-.931 12.983 2.272 13.653 7.155"/>
        <path fill="#613ABF" d="M102 250.858l.155 29L289 273.602l-9.356-21.302z"/>
        <path fill="#945CE5" d="M103.036 280.841c-6.046.387-11.414-6.007-11.986-14.283-.574-8.276 3.865-15.297 9.913-15.684 6.047-.386 11.414 6.01 11.987 14.284.572 8.276-3.866 15.299-9.914 15.683"/>
        <path fill="#8241CE" d="M371 290.298l-18.158 23.56L209 194.51l20.646-11.653z"/>
        <path fill="#945CE5" d="M350.84 312.844c4.48 3.916 12.66 1.946 18.274-4.397 5.608-6.344 6.523-14.659 2.044-18.575-4.477-3.916-12.657-1.948-18.27 4.395-5.61 6.344-6.526 14.66-2.047 18.577"/>
        <path fill="#7565C9" d="M180.801 199.858L126 308.378l22.168 11.48L205 204.229z"/>
        <path fill="#766AD3" d="M148.313 319.532c-2.206 4.547-9.06 5.693-15.308 2.559-6.247-3.132-9.522-9.36-7.318-13.907 2.208-4.547 9.06-5.693 15.308-2.56 6.247 3.135 9.522 9.36 7.318 13.908"/>
        <path fill="#B88DFC" d="M123.15 250.885s-.21-11.272 11.938-5.263L185 314.123l-19.027 8.735-27.573-44.476s-19.716 1.478-26.174-7.598c-6.459-9.073 3.194-3.444 3.194-3.444s9.993 7.81 18.711 5.12l-10.98-21.575z"/>
        <g transform="translate(165 310.858)">
            <mask id="b" fill="#fff">
                <use xlink:href="#a"/>
            </mask>
            <path fill="#D7CDF9" d="M19.7 3.092c1.737 3.43-1.142 8.432-6.43 11.171C7.984 17.003 2.29 16.441.554 13.011-1.18 9.581 1.7 4.58 6.984 1.841 12.273-.9 17.966-.339 19.7 3.09" mask="url(#b)"/>
        </g>
        <path fill="#5F45BA" d="M235 219.951l53.824 98.907L311 307.238l-61.058-109.38z"/>
        <path fill="#945CE5" d="M311.155 307.746c2.438 4.37-.578 10.65-6.74 14.026-6.16 3.375-13.133 2.568-15.57-1.8-2.438-4.374.578-10.651 6.74-14.029 6.16-3.375 13.133-2.568 15.57 1.803"/>
        <path fill="#7565C9" d="M309.809 195.265L191 237.924l6.59 19.934 116.344-50.316s4.804-4.815 2.385-9.33c-1.981-3.693-4.334-3.73-6.51-2.947"/>
        <path fill="#766AD3" d="M198.857 247.454c1.855 5.467 1.404 10.527-1.003 11.304-2.409.773-5.86-3.03-7.714-8.495-1.85-5.47-1.402-10.53 1.007-11.305 2.405-.776 5.859 3.029 7.71 8.496"/>
        <path stroke="#87766B" stroke-width=".442" d="M296 295.858s20.85-2.796 27-15"/>
        <path fill="#C6A893" d="M267.598 226.535s-2.68-5.45-5.026-14.088c0 0-5.765-15.843-10.296 5.663 0 0-8.806 41.13 19.847 64.526 28.651 23.395 20.357 15.849 23.122 21.132 2.766 5.282 9.592 6.038 8.945-1.257-.652-7.298.04-9.31.04-9.31s13.25-3.771 16.71-9.308c0 0 5.514 11.823 10.77 9.308 5.257-2.516-6.115-46.477-23.93-70.282-17.813-23.806-16.304-23.806-22.336-24.056-6.032-.253-3.772 9.307-3.772 9.307s-7.539-2.264-7.79 4.026c0 0-14.827-3.02-6.284 14.339"/>
        <path fill="#87766B" d="M305.446 252.993s-6.683 25.865 8.686 25.865c11.527 0 22.678-19.365 27.535-29.05 1.618-3.226 2.536-5.38 2.536-5.38s7.017-21.031-6.682-28.692c-2.952-1.648-6.122-.86-9.277 1.398-11.489 8.216-22.798 35.859-22.798 35.859"/>
        <path stroke="#B5A396" stroke-linecap="round" stroke-linejoin="round" stroke-width=".442" d="M317 277.858s-10.76-6.035-14-21M307 247.858s8.725 23.226 16 27M312 238.858s10.126 27.374 15 33M316 232.858s15.165 24.154 16 33M320 224.858s11.754 13.764 16 34M327 217.858s14.14 17.48 13.999 32M339 216.858s-10.305 8.908-21 12M343 222.858s-18.232 13.146-32 18M346 230.858s-21.167 16.234-39 20M345 240.858s-16.695 13.857-41 21M338 255.858s-16.04 17.358-34 13.418M305 274.58s13.684 2.368 25-6.722"/>
        <path fill="#B88DFC" d="M273.318 177.477s1.235-11.303-11.405-6.375L206 235.348l18.14 10.51 31.496-42.156s19.49 3.283 26.746-5.244c7.254-8.523-2.867-3.75-2.867-3.75s-10.658 6.931-19.093 3.437l12.896-20.668z"/>
        <path fill="#D7CDF9" d="M206.7 234.24c-1.973 3.143.371 8.21 5.23 11.313 4.861 3.103 10.4 3.068 12.37-.076 1.973-3.146-.37-8.21-5.231-11.314-4.86-3.105-10.397-3.068-12.37.076"/>
        <path stroke="#6D5E56" stroke-linecap="round" stroke-linejoin="round" stroke-width=".442" d="M85 202.468c6.888-9.525 14-8.585 14-8.585s-5.06 5.104-3.877 9.975M117 179.858c-10.586 4.91-11 12-11 12s5.93-3.96 10.463-1.897"/>
        <path fill="#87766B" d="M210.47 113.857a.469.469 0 1 1-.938.002.469.469 0 0 1 .938-.002M216.47 116.859c0 .26-.21.468-.47.468a.469.469 0 1 1 .47-.468M209.47 118.859c0 .26-.21.468-.47.468a.47.47 0 1 1 .47-.468M225.47 112.857a.471.471 0 0 1-.94 0 .47.47 0 0 1 .94 0M224.47 117.858c0 .26-.21.468-.47.468a.468.468 0 1 1 0-.936c.26 0 .47.208.47.468"/>
        <mask id="d" fill="#fff">
            <use xlink:href="#c"/>
        </mask>
        <path stroke="#BCA9FF" stroke-linecap="round" stroke-width=".221" d="M2 141.858h5v-5H2zM7 146.858h5v-5H7zM12 141.858h5v-5h-5zM21 141.858h5v-5h-5zM25 146.858h5v-5h-5zM17 146.858h5v-5h-5zM30 141.858h5v-5h-5zM40 141.858h10v-5H40zM59 141.858h10v-5H59zM78 141.858h20v-5H78zM118 141.858h38v-5h-38zM98 146.858h20v-5H98zM49 146.858h10v-5H49zM69 146.858h10v-5H69zM35 146.858h5v-5h-5zM2 136.858v12M40 136.858v12" mask="url(#d)"/>
        <path stroke="#96BAAA" stroke-linecap="round" stroke-width=".188" d="M79 136.858v12M118 136.858v12" mask="url(#d)"/>
        <path stroke="#BCA9FF" stroke-linecap="round" stroke-width=".221" d="M156 136.858v12" mask="url(#d)"/>
        <path fill="#BCA9FF" d="M2.612 151.859a.612.612 0 1 1-1.224 0 .612.612 0 0 1 1.224 0M40.611 151.859a.612.612 0 1 1-1.224 0 .612.612 0 0 1 1.224 0M79.612 151.859a.612.612 0 1 1-1.224 0 .612.612 0 0 1 1.224 0M118.612 151.859a.614.614 0 0 1-.614.612.61.61 0 0 1-.61-.612.61.61 0 0 1 .61-.614c.338 0 .614.274.614.614M156.612 151.859a.614.614 0 0 1-.614.612.61.61 0 0 1-.61-.612.61.61 0 0 1 .61-.614c.338 0 .614.274.614.614" mask="url(#d)"/>
        <path stroke="#BCA9FF" stroke-linecap="round" stroke-width=".221" d="M204 63.858v102" mask="url(#d)"/>
        <path stroke="#BCA9FF" stroke-linecap="round" stroke-linejoin="round" stroke-width=".325" d="M77 82.858l-2-2 2-2M75 80.858h42M115 78.858l2 2-2 2M121 82.858l-2-2 2-2M119 80.858h83M201 78.858l2 2-2 2" mask="url(#d)"/>
        <path fill="#BCA9FF" d="M118.909 94.858a.909.909 0 1 1-.908-.908c.502 0 .908.406.908.908" mask="url(#d)"/>
        <path stroke="#BCA9FF" stroke-linecap="round" stroke-linejoin="round" stroke-width=".325" d="M109.908 94.858a.907.907 0 1 1-1.815.001.907.907 0 0 1 1.815-.001zM100.909 94.858a.909.909 0 1 1-.908-.908c.502 0 .908.406.908.908zM90.909 94.858a.909.909 0 1 1-1.818-.002.909.909 0 0 1 1.818.002zM64.908 94.858a.907.907 0 1 1-1.815.001.907.907 0 0 1 1.815-.001zM22.908 94.858a.907.907 0 1 1-1.815.001.907.907 0 0 1 1.815-.001z" mask="url(#d)"/>
        <path stroke="#BCA9FF" stroke-linecap="round" stroke-width=".221" d="M265 166.858h5v-5h-5zM270 161.858h5v-5h-5zM265 156.858h5v-5h-5zM265 146.858h5v-5h-5zM270 143.858h5v-5h-5zM270 151.858h5v-5h-5zM265 138.858h5v-5h-5zM265 128.858h5v-10h-5zM265 108.858h5v-10h-5zM265 90.858h5v-20h-5zM265 50.858h5v-38h-5zM270 70.858h5v-20h-5zM270 118.858h5v-10h-5zM270 99.858h5v-10h-5zM270 133.858h5v-5h-5zM265 165.858h12M265 128.858h12" mask="url(#d)"/>
        <path stroke="#96BAAA" stroke-linecap="round" stroke-width=".188" d="M265 89.858h12M265 50.858h12" mask="url(#d)"/>
        <path stroke="#BCA9FF" stroke-linecap="round" stroke-width=".221" d="M265 12.858h12" mask="url(#d)"/>
        <path fill="#BCA9FF" d="M281.001 128.246a.612.612 0 1 1 0 1.225.612.612 0 0 1 0-1.225M281.001 89.246c.338 0 .612.276.612.614a.61.61 0 0 1-.612.61.612.612 0 1 1 0-1.224M281.001 50.246a.612.612 0 1 1 0 1.224.612.612 0 0 1 0-1.224M281.001 12.246a.612.612 0 1 1 0 1.224.612.612 0 0 1 0-1.224" mask="url(#d)"/>
        <path stroke="#BCA9FF" stroke-linecap="round" stroke-linejoin="round" stroke-width=".325" d="M204.908 52.859a.907.907 0 1 1-1.816 0 .909.909 0 1 1 1.816 0zM214.909 52.859a.909.909 0 1 1-.908-.91c.502 0 .908.408.908.91zM232.909 52.859a.909.909 0 1 1-1.817-.001.909.909 0 0 1 1.817 0zM251.908 52.859a.907.907 0 1 1-1.816 0 .909.909 0 1 1 1.816 0zM287.999 97.949a.909.909 0 1 1 0 0zM287.999 88.95a.909.909 0 1 1 .002 1.818.909.909 0 0 1-.002-1.818zM287.999 80.949a.909.909 0 1 1 0 0zM287.999 49.95a.909.909 0 1 1 .002 1.818.909.909 0 0 1-.002-1.818zM287.999 40.949a.91.91 0 0 1 .91.91.909.909 0 1 1-.91-.91z" mask="url(#d)"/>
        <path stroke="#BCA9FF" stroke-dasharray="0.326,1.629" stroke-linecap="round" stroke-width=".884" d="M232 76.358c0 17.95-14.55 32.5-32.5 32.5s-32.5-14.55-32.5-32.5 14.55-32.5 32.5-32.5 32.5 14.55 32.5 32.5z" mask="url(#d)"/>
        <path stroke="#BCA9FF" stroke-dasharray="0.445,1.335" stroke-linecap="round" stroke-width=".884" d="M132 48.858c0 8.837-7.164 16-15.999 16-8.837 0-16.001-7.163-16.001-16 0-8.838 7.164-16 16.001-16 8.835 0 15.999 7.162 15.999 16z" mask="url(#d)"/>
        <path stroke="#BCA9FF" stroke-linecap="round" stroke-width=".884" d="M150 11.359a9.499 9.499 0 0 1-9.499 9.499c-5.248 0-9.501-4.253-9.501-9.5a9.5 9.5 0 0 1 9.501-9.5c5.246 0 9.499 4.253 9.499 9.5z" mask="url(#d)"/>
        <path fill="#87766B" d="M209 98.796l3.718-2.733s4.164-4.383 6.778 3.567l1.504 5.228-12-6.062z" mask="url(#d)"/>
        <path fill="#C6A893" d="M171.288 101.056s-8.22 5.425-1.285 17.034l-21.483 30.879s-9.153 14.424-8.485 35.636l.882 21.734s-.459 16.087 25.22 6.434c0 0 13.079-6.32 15.117-9.945 2.036-3.624 15.96 2.212 15.96 2.212s16.928 2.787 24.082-8.514c7.151-11.3 11.961-18.245 11.961-18.245s12.652-20.712-8.566-56.827l2.808-8.854s2.877-4.698-7.704-9.777c0 0-21.222-12.684-37.108 2.493 0 0-4.767-3.635-11.399-4.26" mask="url(#d)"/>
        <path fill="#87766B" d="M183 104.974l-5.046 4.884s-6.722-5.334-6.954-9c0 0 9.498.657 12 4.116M165 212.77s7.724 8.808 14.529 9.056c6.805.245 10.283-.785 7.518-7.426 0 0-4.564-6.19-9.8-8.542 0 0-8.758 5.726-12.247 6.911M213 202.713s8.916 8.663 12.355 6.91c3.439-1.75 1.288-7.214-4.604-13.765 0 0-2.137 5.045-7.751 6.855" mask="url(#d)"/>
        <path fill="#1E1933" d="M221.99 108.234c.141 1.049-1.31 2.18-3.236 2.522-1.927.347-3.604-.224-3.745-1.275-.14-1.05 1.31-2.179 3.237-2.523 1.927-.344 3.606.226 3.745 1.276" mask="url(#d)"/>
        <path fill="#FFF" d="M216.378 122.524l-.376 4.598c-.035.433.364.784.826.73l1.813-.207c.376-.045.668-.326.696-.675l.663-8.112s-1.067 2.865-3.622 3.666" mask="url(#d)"/>
        <path fill="#F4F1EF" d="M219.678 126.854l1.432-.16a.639.639 0 0 0 .548-.604l.342-4.848s-2.422-.876-2.44-2.71c-.015-1.838-.27.663-.27.663l-.29 6.975c-.015.403.306.727.678.684" mask="url(#d)"/>
        <path fill="#87766B" d="M135.713 200.303s-13.044 8.759-11.602 29.576c0 0-.308 13.949 12.337 10.4 12.647-3.55 11.527-18.657 11.527-18.657s-.372-6.71-3.781-13.326c0 0-1.72-13.852-8.48-7.993" mask="url(#d)"/>
        <path stroke="#B5A396" stroke-linecap="round" stroke-linejoin="round" stroke-width=".442" d="M136.428 200.858s4.439 5.321 8.572 7.998c0 0-9.98.028-19 7.907 0 0 3.108 13.618 13.831 23.095M131 204.858s-.316 12.336 14 29M133 240.858c-5.102-2.997-9-11-9-11M148 220.858s-14.237 12.759-20 19M146 214.858s-15.051 11.102-21 21M146 210.858s-15.641 7.738-22 16M143 203.364s-7.516-2.974-15 5.494" mask="url(#d)"/>
        <path stroke="#271C47" stroke-linecap="round" stroke-linejoin="round" stroke-width=".442" d="M207 123.373s11.333 2.848 12.378-5.258c0 0 .928-5.266.517-7.257M224 121.71s-4.427 1.309-5-3.852" mask="url(#d)"/>
        <path stroke="#6D5E56" stroke-linecap="round" stroke-linejoin="round" stroke-width=".442" d="M187 125.054c9.67-6.703 16-3.365 16-3.365s-6.461 3.123-7.01 8.169" mask="url(#d)"/>
        <path fill="#271C47" d="M195.725 110.12c-.559 1.314-1.783 2.038-2.738 1.619-.95-.421-1.27-1.826-.712-3.142.556-1.314 1.782-2.04 2.735-1.62.953.421 1.275 1.828.715 3.143" mask="url(#d)"/>
        <path fill="#5F45BA" d="M243.864 154.01L192.99 162.7l-.99 11.157 50.563-5.18s7.57-1.496 6.292-11.786c0 0 .565-3.833-4.991-2.883" mask="url(#d)"/>
        <path fill="#7565C9" d="M193.92 168.492c-.267 3.037-1.12 5.437-1.903 5.364-.784-.075-1.203-2.596-.937-5.633.267-3.038 1.12-5.439 1.903-5.363.784.075 1.203 2.596.937 5.632" mask="url(#d)"/>
        <path fill="#613ABF" d="M247.354 140.865l-57.348 14.86L189 166.858l59.762-13.216a5.105 5.105 0 0 0 3.941-4.142c.173-1.014.293-2.264.297-3.781.014-5.25-5.646-4.854-5.646-4.854" mask="url(#d)"/>
        <path fill="#945CE5" d="M193.808 161.01c-.63 3.015-2.621 5.17-4.447 4.808-1.829-.359-2.799-3.094-2.169-6.11.63-3.015 2.621-5.17 4.45-4.811 1.826.359 2.796 3.097 2.166 6.113" mask="url(#d)"/>
        <path fill="#87766B" d="M202.53 170.486s3.973-14.768 11.731-9.488c0 0 6.74 7.023-.926 12.666 0 0-14.22 4.209-10.806-3.178" mask="url(#d)"/>
        <path fill="#7565C9" d="M226.302 168.54s3.985-4.981 4.491-8.173c.504-3.194 7.557-4.668 9.2 3.899 0 0 .603 8.743-10.088 7.464-10.687-1.277-3.603-3.19-3.603-3.19" mask="url(#d)"/>
        <path fill="#B88DFC" d="M238.372 130.877l-44.33 18.34-1.042 13.64 59.717-26.443s3.822-3.592 1.576-7.371c-2.243-3.78-7.762-.579-7.762-.579l.692-9.065s-1.396-5.546-5.111 4.405l-3.74 7.073z" mask="url(#d)"/>
        <path fill="#D7CDF9" d="M195.957 156.093c-.277 3.864-1.824 6.89-3.456 6.76-1.634-.13-2.734-3.367-2.459-7.233.277-3.861 1.825-6.889 3.459-6.758 1.632.128 2.733 3.368 2.456 7.231" mask="url(#d)"/>
        <path stroke="#BCA9FF" stroke-dasharray="0.445,1.335" stroke-width="1.769" d="M381 200.858c0 8.837-7.164 16-15.999 16-8.837 0-16.001-7.163-16.001-16 0-8.838 7.164-16 16.001-16 8.835 0 15.999 7.162 15.999 16z" mask="url(#d)"/>
        <path stroke="#BCA9FF" stroke-linecap="round" stroke-width=".639" d="M435 234.859c0 6.626-5.37 11.999-11.998 11.999-6.628 0-12.002-5.373-12.002-12 0-6.628 5.374-12 12.002-12 6.628 0 11.998 5.372 11.998 12z" mask="url(#d)"/>
    </g>
</svg>
