<?xml version="1.0" encoding="UTF-8"?>
<svg width="27px" height="26px" viewBox="0 0 27 26" version="1.1" xmlns="http://www.w3.org/2000/svg" xmlns:xlink="http://www.w3.org/1999/xlink">
    <!-- Generator: Sketch 52.5 (67469) - http://www.bohemiancoding.com/sketch -->
    <title>Group 6</title>
    <desc>Created with Sketch.</desc>
    <defs>
        <polygon id="path-1" points="0 0 26 0 26 26 0 26"></polygon>
    </defs>
    <g id="Symbols" stroke="none" stroke-width="1" fill="none" fill-rule="evenodd">
        <g id="Component/Footer" transform="translate(-1006.000000, -125.000000)">
            <g id="Group-7" transform="translate(1006.727922, 77.971632)">
                <g id="Group-6" transform="translate(0.000000, 47.000000)">
                    <g id="Group-3">
                        <mask id="mask-2" fill="white">
                            <use xlink:href="#path-1"></use>
                        </mask>
                        <g id="Clip-2"></g>
                        <path d="M24.5654386,0 L1.4345614,0 C0.642245614,0 0,0.642245614 0,1.4345614 L0,24.5654386 C0,25.3577544 0.642245614,26 1.4345614,26 L13.8894737,26 L13.8894737,15.944386 L10.5117544,15.944386 L10.5117544,12.0101754 L13.8894737,12.0101754 L13.8894737,9.12280702 C13.8894737,5.76333333 15.9421053,3.93649123 18.934386,3.93649123 C19.9458772,3.93375439 20.9571404,3.98484211 21.9631579,4.08929825 L21.9631579,7.59017544 L19.8968421,7.59017544 C18.2661404,7.59017544 17.9514035,8.36333333 17.9514035,9.50140351 L17.9514035,12.0101754 L21.8491228,12.0101754 L21.3405263,15.944386 L17.9514035,15.944386 L17.9514035,26 L24.5654386,26 C25.3577544,26 26,25.3577544 26,24.5654386 L26,1.4345614 C26,0.642245614 25.3577544,0 24.5654386,0" id="Fill-1" fill="#898F9C" mask="url(#mask-2)"></path>
                    </g>
                    <path d="M18.1463852,26 L18.1463852,15.9775223 L21.401912,15.9775223 L21.8904601,12.0562762 L18.1463852,12.0562762 L18.1463852,9.55577141 C18.1463852,8.41917834 18.4487154,7.65084142 20.0151364,7.65084142 L22,7.65084142 L22,4.15240794 C21.0321052,4.04806869 20.0593906,3.99737664 19.0862378,4.00010447 C16.2097192,4.00010447 14.2401912,5.81865338 14.2401912,9.16932977 L14.2401912,12.0562762 L11,12.0562762 L11,15.9775223 L14.2445728,15.9775223 L14.2445728,26 L18.1463852,26 Z" id="Fill-4" fill="#FFFFFF"></path>
                </g>
            </g>
        </g>
    </g>
</svg>