<?xml version="1.0" encoding="UTF-8"?>
<svg width="33px" height="26px" viewBox="0 0 33 26" version="1.1" xmlns="http://www.w3.org/2000/svg" xmlns:xlink="http://www.w3.org/1999/xlink">
    <!-- Generator: Sketch 52.5 (67469) - http://www.bohemiancoding.com/sketch -->
    <title>Group 3</title>
    <desc>Created with Sketch.</desc>
    <defs>
        <polygon id="path-1" points="0 0 32 0 32 26 0 26"></polygon>
    </defs>
    <g id="Symbols" stroke="none" stroke-width="1" fill="none" fill-rule="evenodd">
        <g id="Component/Footer" transform="translate(-1055.000000, -125.000000)">
            <g id="Group-7" transform="translate(1006.727922, 77.971632)">
                <g id="Group-3" transform="translate(49.000000, 47.000000)">
                    <mask id="mask-2" fill="white">
                        <use xlink:href="#path-1"></use>
                    </mask>
                    <g id="Clip-2"></g>
                    <path d="M10.0638604,26 C22.1396564,26 28.7434985,15.9978739 28.7434985,7.3250134 C28.7434985,7.04071824 28.7376904,6.75781669 28.7249125,6.47630874 C30.0066503,5.5500268 31.1208817,4.39426478 32,3.07800607 C30.8235055,3.6003752 29.5575658,3.95249241 28.2298276,4.11113096 C29.5849802,3.29889226 30.6257968,2.01306057 31.1166998,0.480328748 C29.8477399,1.23217795 28.4433344,1.77916741 26.9478575,2.07368233 C25.7497568,0.797838128 24.0437933,0 22.1556869,0 C18.5295561,0 15.5894815,2.9393425 15.5894815,6.56294443 C15.5894815,7.07811327 15.6470981,7.57888154 15.7597758,8.05967483 C10.3033876,7.78536716 5.46521657,5.17328926 2.22753343,1.20198321 C1.66298335,2.17169912 1.3381928,3.29889226 1.3381928,4.50087547 C1.3381928,6.77825621 2.49749524,8.7882973 4.25991375,9.96426657 C3.1828544,9.93105235 2.17107842,9.63537609 1.28638429,9.14320172 C1.28475802,9.17060925 1.28475802,9.19824906 1.28475802,9.22681794 C1.28475802,12.4060925 3.54806952,15.0599786 6.55180125,15.6615508 C6.00072602,15.8118278 5.42037782,15.8924245 4.82144361,15.8924245 C4.39837953,15.8924245 3.98693171,15.8508487 3.58710015,15.7742005 C4.42277367,18.3818653 6.84638952,20.279489 9.72025149,20.3331428 C7.47297042,22.0937288 4.64232093,23.1426478 1.56633609,23.1426478 C1.03640245,23.1426478 0.514135533,23.1124531 0,23.0518313 C2.90592284,24.9132214 6.35571883,26 10.0638604,26" id="Fill-1" fill="#898F9C" mask="url(#mask-2)"></path>
                </g>
            </g>
        </g>
    </g>
</svg>