<svg width="303" height="307" viewBox="0 0 303 307" fill="none" xmlns="http://www.w3.org/2000/svg">
<path d="M110.358 220.716C171.307 220.716 220.716 171.307 220.716 110.358C220.716 49.409 171.307 0 110.358 0C49.409 0 0 49.409 0 110.358C0 171.307 49.409 220.716 110.358 220.716Z" fill="url(#paint0_linear)"/>
<path d="M65.9685 69.0448C69.9412 69.0448 73.1617 65.8243 73.1617 61.8516C73.1617 57.8789 69.9412 54.6585 65.9685 54.6585C61.9959 54.6585 58.7754 57.8789 58.7754 61.8516C58.7754 65.8243 61.9959 69.0448 65.9685 69.0448Z" fill="white"/>
<path d="M43.255 64.7857C46.0516 64.7857 48.3186 62.5186 48.3186 59.7221C48.3186 56.9255 46.0516 54.6585 43.255 54.6585C40.4585 54.6585 38.1914 56.9255 38.1914 59.7221C38.1914 62.5186 40.4585 64.7857 43.255 64.7857Z" fill="white"/>
<path d="M115.99 166.484C144.764 163.068 166.186 138.274 165.387 109.308C164.588 80.3429 141.833 56.7667 112.914 54.9424C109.298 54.7104 105.668 54.8373 102.077 55.321V55.321C97.3682 55.7664 92.7557 56.9315 88.4004 58.7756C83.3368 61.2364 80.0715 65.4009 80.0715 70.9377C80.0896 78.1374 85.9188 83.9708 93.1185 83.9942C94.3489 83.9942 98.5134 82.6691 99.5072 82.3379C103.302 81.0085 107.326 80.4612 111.338 80.7289C125.511 81.6151 137.153 92.2542 139.309 106.29C141.465 120.327 133.553 133.969 120.299 139.068C107.045 144.168 92.0295 139.346 84.2217 127.484V127.484C78.2116 119.581 79.584 106.993 79.584 106.804C79.3647 100.336 74.4478 95.0001 68.0188 94.2542C61.5898 93.5083 55.5819 97.5763 53.8875 103.823C53.6216 105.386 53.4949 106.969 53.5089 108.555C52.2603 138.976 75.556 164.816 105.943 166.715C109.287 166.968 112.648 166.889 115.976 166.479" fill="white"/>
<path d="M56.6469 90.0563C61.7957 90.0563 65.9696 85.8824 65.9696 80.7336C65.9696 75.5848 61.7957 71.4109 56.6469 71.4109C51.4981 71.4109 47.3242 75.5848 47.3242 80.7336C47.3242 85.8824 51.4981 90.0563 56.6469 90.0563Z" fill="white"/>
<path d="M240.962 161.879C235.496 153.962 230.994 145.365 225.323 137.594C224.245 136.367 223.075 135.224 221.822 134.173C218.967 132.223 215.933 130.542 212.76 129.153C208.362 127.435 203.826 126.081 199.295 124.755C194.362 123.291 189.334 122.158 184.247 121.363C178.703 120.728 173.107 120.685 167.554 121.235C162.4 122.065 157.352 123.441 152.496 125.34C147.499 127.581 142.754 130.336 138.34 133.56C133.603 137.342 129.286 141.613 125.462 146.299C121.572 151.504 118.272 157.117 115.622 163.035C113.833 167.337 112.495 171.81 111.63 176.383C111.239 180.844 111.316 185.333 111.859 189.778C113.171 197.868 115.411 205.783 118.537 213.37C120.382 217.678 122.686 221.779 125.41 225.604C129.47 230.608 134.066 235.163 139.117 239.188C139.928 239.779 140.775 240.318 141.655 240.802C144.884 241.925 148.251 242.652 151.48 243.765C153.922 244.605 156.455 245.492 158.596 246.95C159.784 247.752 160.882 248.675 161.873 249.706C198.269 234.114 227.368 205.499 243.347 169.589C242.096 167.179 241.288 164.569 240.962 161.879Z" fill="#5F45BA"/>
<g opacity="0.5">
<path d="M154.556 236.928L154.499 236.839L153.821 235.697L144.163 219.471L144.106 219.386C141.365 224 138.624 228.613 135.883 233.225C136.401 234.029 136.825 234.888 137.147 235.787C138.768 236.966 140.338 238.216 142.021 239.292C143.799 239.476 145.532 239.954 147.149 240.708C147.416 240.807 147.678 240.911 147.94 241.024L153.268 237.721L154.556 236.928Z" fill="#B88DFC"/>
<path d="M154.517 239.047L149.934 241.878L151.088 242.392C151.36 242.52 151.622 242.666 151.88 242.812C152.762 241.566 153.644 240.311 154.527 239.037L154.517 239.047Z" fill="#B88DFC"/>
<path d="M181.881 236.928L180.598 237.721L171.851 243.124L171.441 243.374L161 236.928L171.441 219.376L171.493 219.461L181.147 235.702L181.824 236.843L181.881 236.933V236.928Z" fill="#B88DFC"/>
<path d="M167.967 247.71C168.091 247.644 168.215 247.578 168.344 247.516C168.611 246.337 170.157 245.832 171.101 245.369L171.211 245.332L161.037 239.047V239.047L167.5 248.196C167.602 247.991 167.765 247.821 167.967 247.71Z" fill="#B88DFC"/>
<path d="M174.235 243.812C174.309 243.753 174.391 243.702 174.478 243.661L175.27 243.303C177.101 241.887 179.39 240.835 181.36 239.693L181.446 239.651L181.861 239.061V239.061C179.146 240.741 176.427 242.419 173.705 244.095L174.235 243.812Z" fill="#B88DFC"/>
<path d="M194.573 230.941C195.598 230.233 196.619 229.525 197.649 228.836C198.088 228.445 198.531 228.053 198.97 227.643C199.853 226.808 200.878 225.553 202.023 224.835L198.827 219.471L198.775 219.386L190.061 234.05C191.15 233.2 192.297 232.426 193.495 231.734C193.867 231.413 194.272 231.148 194.573 230.941Z" fill="#B88DFC"/>
<path d="M125.52 146.695L125.934 146.441L127.213 145.648V145.648C127.192 145.62 127.175 145.59 127.16 145.558L126.631 144.671L125.968 145.728C125.825 146.04 125.672 146.37 125.52 146.695Z" fill="#B88DFC"/>
<path d="M119.69 154.547C119.542 155.637 119.347 156.736 119.108 157.85C118.962 158.542 118.795 159.23 118.607 159.916C121.469 155.858 124.331 151.804 127.193 147.752V147.752L123.854 149.814C123.619 150.192 123.375 150.564 123.124 150.932C122.184 152.312 121.024 153.533 119.69 154.547Z" fill="#B88DFC"/>
<path d="M154.557 145.629L154.5 145.539C154.275 145.162 154.051 144.78 153.822 144.402L144.192 128.2L143.964 128.332L133.666 145.643L144.111 152.093L144.522 151.838L153.269 146.441L154.547 145.648L154.557 145.629Z" fill="#B88DFC"/>
<path d="M144.111 154.169L154.518 147.752V147.752L144.111 162.511L133.689 147.752V147.752L144.111 154.169Z" fill="#B88DFC"/>
<path d="M181.881 145.648L180.598 146.441L171.851 151.838L171.441 152.093L161 145.643L171.441 128.077C171.46 128.104 171.478 128.132 171.493 128.162C174.714 133.572 177.932 138.986 181.147 144.402L181.824 145.539L181.881 145.629V145.648Z" fill="#B88DFC"/>
<path d="M171.445 154.169L181.847 147.752V147.752L171.431 162.502L161.023 147.752V147.752L171.445 154.169Z" fill="#B88DFC"/>
<path d="M209.215 145.648L207.932 146.441L199.185 151.838L198.775 152.093L188.334 145.643L198.775 128.077C198.794 128.104 198.812 128.132 198.827 128.162L208.481 144.402L209.158 145.539L209.215 145.629V145.648Z" fill="#B88DFC"/>
<path d="M198.774 154.169L209.181 147.752V147.752L198.76 162.502L188.357 147.752V147.752L198.774 154.169Z" fill="#B88DFC"/>
<path d="M226.099 152.093L226.509 151.838L232.92 147.884C231.92 145.625 231.122 143.284 230.535 140.887C228.661 139.585 226.843 138.202 225.036 136.815C224.082 136.079 223.128 135.334 222.217 134.574L215.635 145.643L226.099 152.093Z" fill="#B88DFC"/>
<path d="M215.701 147.752V147.752L226.099 162.511L234.317 150.876C234.088 150.404 233.869 149.965 233.654 149.508L226.099 154.169L215.701 147.752Z" fill="#B88DFC"/>
<path d="M117.187 198.191L125.939 192.793L127.218 192.001V192.001C127.197 191.972 127.18 191.942 127.165 191.911C126.936 191.534 126.712 191.151 126.488 190.774L116.83 174.515C116.83 174.486 116.796 174.463 116.777 174.43C114.659 177.987 112.545 181.545 110.434 185.102C110.403 186.453 110.446 187.805 110.562 189.151C110.979 191.321 111.507 193.47 112.146 195.587L116.777 198.446L117.187 198.191Z" fill="#B88DFC"/>
<path d="M127.199 194.114V194.114L116.791 200.541L112.938 198.158C113.233 199.102 113.529 200.017 113.829 200.942C114.615 203.392 115.451 205.825 116.338 208.241L116.815 208.883L127.199 194.114Z" fill="#B88DFC"/>
<path d="M154.555 192.001L153.277 192.793L144.539 198.191L144.129 198.446L133.684 191.996L144.124 174.43C144.145 174.456 144.165 174.485 144.181 174.515L153.83 190.755C154.059 191.132 154.283 191.515 154.508 191.892L154.565 191.982L154.555 192.001Z" fill="#B88DFC"/>
<path d="M144.111 200.527L154.518 194.1V194.1L144.111 208.869L133.689 194.114V194.114L144.111 200.527Z" fill="#B88DFC"/>
<path d="M181.881 192.001L180.598 192.793L171.851 198.191L171.441 198.446L161 191.996L171.441 174.43C171.46 174.456 171.478 174.485 171.493 174.515L181.147 190.755L181.824 191.892L181.881 191.982V192.001Z" fill="#B88DFC"/>
<path d="M171.446 200.527L181.848 194.1V194.1L171.431 208.854L161.01 194.1V194.1L171.446 200.527Z" fill="#B88DFC"/>
<path d="M209.215 192.001L207.932 192.793L199.185 198.191L198.775 198.446C195.299 196.301 191.819 194.151 188.334 191.996L198.775 174.43C198.794 174.456 198.812 174.485 198.827 174.515L208.481 190.755L209.158 191.892L209.215 191.982V192.001Z" fill="#B88DFC"/>
<path d="M198.775 200.527L209.182 194.1V194.1L198.761 208.854L188.344 194.1V194.1L198.775 200.527Z" fill="#B88DFC"/>
<path d="M226.162 174.515C226.162 174.486 226.129 174.463 226.109 174.43L215.664 191.996L226.1 198.446L226.51 198.191L226.939 197.927C227.015 197.792 227.105 197.666 227.206 197.549L227.545 197.181C227.973 196.376 228.486 195.619 229.076 194.921C229.768 193.831 230.636 192.789 231.237 191.84C231.938 190.741 232.668 189.665 233.316 188.537C233.494 188.204 233.688 187.88 233.898 187.565L226.162 174.515Z" fill="#B88DFC"/>
<path d="M225.388 200.078L215.701 194.1V194.1L222.526 203.763C223.409 202.482 224.364 201.252 225.388 200.078Z" fill="#B88DFC"/>
<path d="M141.058 168.824L139.77 169.617L131.027 175.015L130.617 175.27L120.172 168.82L130.612 151.253L130.67 151.338C133.875 156.749 137.093 162.159 140.323 167.569C140.552 167.947 140.776 168.329 141.001 168.706L141.058 168.796V168.824Z" fill="#B88DFC"/>
<path d="M130.622 177.346L141.025 170.924V170.924L130.622 185.688L120.215 170.938V170.938L130.622 177.346Z" fill="#B88DFC"/>
<path d="M168.388 168.824L167.105 169.617L158.372 175.015L157.962 175.27L147.521 168.82L157.962 151.253C157.982 151.28 158 151.309 158.015 151.338L167.659 167.569L168.336 168.706L168.393 168.796L168.388 168.824Z" fill="#B88DFC"/>
<path d="M157.952 177.346L168.359 170.924V170.924L157.952 185.688L147.535 170.938V170.938L157.952 177.346Z" fill="#B88DFC"/>
<path d="M195.722 168.824L194.444 169.617L185.697 175.015L185.286 175.27L174.846 168.82C178.321 162.966 181.801 157.11 185.286 151.253C185.286 151.286 185.324 151.31 185.339 151.338L194.992 167.569C195.217 167.947 195.441 168.329 195.67 168.706L195.722 168.796V168.824Z" fill="#B88DFC"/>
<path d="M185.287 177.346L195.694 170.924V170.924L185.287 185.688L174.865 170.938V170.938L185.287 177.346Z" fill="#B88DFC"/>
<path d="M223.057 168.824L221.779 169.617L213.031 175.015L212.621 175.27L202.176 168.82L212.621 151.253C212.621 151.286 212.659 151.31 212.674 151.338C215.901 156.749 219.117 162.159 222.323 167.569C222.551 167.947 222.776 168.329 223 168.706L223.057 168.796V168.824Z" fill="#B88DFC"/>
<path d="M212.621 177.346L223.028 170.924V170.924L212.621 185.688L202.199 170.938V170.938L212.621 177.346Z" fill="#B88DFC"/>
<path d="M239.955 175.27L240.361 175.015L242.707 173.571C242.154 169.57 241.496 165.55 240.127 161.775C239.173 159.831 238.147 157.944 237.103 156.057L229.51 168.829L239.955 175.27Z" fill="#B88DFC"/>
<path d="M238.654 179.068C239.021 178.469 239.355 177.822 239.727 177.209L229.549 170.924V170.924L237.137 181.668C237.574 180.763 238.081 179.894 238.654 179.068Z" fill="#B88DFC"/>
<path d="M141.058 214.125L139.77 214.917L131.027 220.315L130.617 220.57L120.172 214.12C123.654 208.263 127.134 202.406 130.612 196.549C130.63 196.578 130.649 196.607 130.67 196.634L140.323 212.865C140.552 213.242 140.776 213.625 141.001 214.002L141.058 214.092V214.125Z" fill="#B88DFC"/>
<path d="M131.791 229.332L141.039 216.239V216.239L130.636 222.66L120.215 216.224V216.224L126.892 225.741C127.608 226.378 128.323 227.006 129.067 227.629C129.964 228.228 130.856 228.803 131.791 229.332Z" fill="#B88DFC"/>
<path d="M168.388 214.125L167.105 214.917L158.372 220.315L157.962 220.57L147.521 214.12C151.003 208.263 154.483 202.406 157.962 196.549L158.015 196.634L167.659 212.865L168.336 214.002L168.393 214.092L168.388 214.125Z" fill="#B88DFC"/>
<path d="M157.953 222.646L168.36 216.224V216.224L157.938 230.974L147.521 216.22V216.22C151.01 218.362 154.487 220.504 157.953 222.646Z" fill="#B88DFC"/>
<path d="M195.722 214.125L194.444 214.917L185.697 220.315L185.286 220.57L174.846 214.12C178.321 208.263 181.801 202.406 185.286 196.549C185.302 196.578 185.32 196.607 185.339 196.634L194.992 212.865C195.217 213.242 195.441 213.625 195.67 214.002L195.722 214.092V214.125Z" fill="#B88DFC"/>
<path d="M185.287 222.646L195.695 216.224V216.224L185.273 230.974L174.852 216.22V216.22L185.287 222.646Z" fill="#B88DFC"/>
<path d="M210.241 217.111C211.157 216.281 211.963 215.356 212.812 214.455C213.933 213.261 215.116 212.124 216.289 210.982L216.685 210.544C217.595 209.631 218.441 208.658 219.218 207.632C217.039 203.962 214.858 200.289 212.674 196.615C212.655 196.588 212.637 196.559 212.621 196.53L202.176 214.101L209.02 218.348C209.388 217.9 209.797 217.486 210.241 217.111V217.111Z" fill="#B88DFC"/>
<path d="M207.693 219.607L202.213 216.224V216.224L205.828 221.358C206.384 220.709 207.009 220.122 207.693 219.607Z" fill="#B88DFC"/>
<path d="M167.657 121.226L166.613 119.466C162.093 120.444 157.659 121.778 153.354 123.453C152.533 123.816 151.727 124.189 150.926 124.576L157.951 128.917L158.362 128.662L167.109 123.264L168.392 122.472V122.472L168.335 122.382L167.657 121.226Z" fill="#B88DFC"/>
<path d="M157.952 130.993L149.052 125.501L148.418 125.831L157.957 139.335C161.455 134.412 164.929 129.496 168.379 124.585V124.585L157.952 130.993Z" fill="#B88DFC"/>
<path d="M195.722 122.472V122.472L195.67 122.382C195.441 122.005 195.217 121.622 194.992 121.245L193.709 119.089C192.495 118.834 191.272 118.61 190.042 118.419C185.868 117.978 181.666 117.859 177.474 118.06L174.846 122.486L185.286 128.936L185.697 128.681L194.444 123.283L195.722 122.472Z" fill="#B88DFC"/>
<path d="M185.287 130.993L195.694 124.571V124.571L185.272 139.321L174.865 124.585V124.585L185.287 130.993Z" fill="#B88DFC"/>
<path d="M212.621 128.917L213.031 128.662L214.295 127.879L213.981 127.615C211.004 125.551 207.841 123.763 204.532 122.273C203.926 122.038 203.32 121.802 202.71 121.599C202.529 121.896 202.352 122.193 202.176 122.491L212.621 128.917Z" fill="#B88DFC"/>
<path d="M202.213 124.571V124.571L212.634 139.321L218.325 131.267L215.735 129.068L212.634 130.979L202.213 124.571Z" fill="#B88DFC"/>
</g>
<g filter="url(#filter0_d)">
<path fill-rule="evenodd" clip-rule="evenodd" d="M108.129 184.55C108.129 222.986 139.737 254.259 178.59 254.259C217.443 254.259 249.051 222.995 249.051 184.555C249.051 146.115 217.443 114.847 178.59 114.847C139.737 114.847 108.129 146.115 108.129 184.55ZM115.922 184.555C115.922 150.376 144.063 122.571 178.59 122.571C213.136 122.571 241.243 150.38 241.243 184.555C241.243 218.73 213.117 246.53 178.59 246.53C144.063 246.53 115.922 218.735 115.922 184.555Z" fill="#766D86"/>
</g>
<path d="M223.906 234.866L250.487 261.157C250.487 261.157 246.982 267.475 250.072 270.532L283.245 303.348C293.738 313.728 309.616 298.049 299.108 287.655L266.966 255.858C263.26 252.192 256.048 255.858 256.048 255.858L229.367 229.464L223.906 234.866Z" fill="url(#paint1_linear)"/>
<defs>
<filter id="filter0_d" x="96.1289" y="106.847" width="164.922" height="163.412" filterUnits="userSpaceOnUse" color-interpolation-filters="sRGB">
<feFlood flood-opacity="0" result="BackgroundImageFix"/>
<feColorMatrix in="SourceAlpha" type="matrix" values="0 0 0 0 0 0 0 0 0 0 0 0 0 0 0 0 0 0 127 0"/>
<feOffset dy="4"/>
<feGaussianBlur stdDeviation="6"/>
<feColorMatrix type="matrix" values="0 0 0 0 0.235294 0 0 0 0 0.235294 0 0 0 0 0.262745 0 0 0 0.5 0"/>
<feBlend mode="normal" in2="BackgroundImageFix" result="effect1_dropShadow"/>
<feBlend mode="normal" in="SourceGraphic" in2="effect1_dropShadow" result="shape"/>
</filter>
<linearGradient id="paint0_linear" x1="0" y1="0" x2="0" y2="220.716" gradientUnits="userSpaceOnUse">
<stop stop-color="#8C61E1"/>
<stop offset="1" stop-color="#5F45BA"/>
</linearGradient>
<linearGradient id="paint1_linear" x1="223.906" y1="229.464" x2="223.906" y2="306.756" gradientUnits="userSpaceOnUse">
<stop stop-color="#766D86"/>
<stop offset="1" stop-color="#766D86"/>
</linearGradient>
</defs>
</svg>
