<svg width="454" height="259" viewBox="0 0 454 259" fill="none" xmlns="http://www.w3.org/2000/svg">
    <path d="M239.996 174.581C180.872 174.581 133.89 181.935 92.1859 181.935C50.4822 181.935 29.8943 184.562 5.61118 202.422C-21.6968 222.51 57.8727 249.699 89.5464 243.396C121.22 237.092 142.679 247.509 158.173 252.851C197.765 266.509 213.074 253.902 228.383 247.073C261.64 233.94 314.429 255.477 352.438 246.547C382.871 239.398 401.004 228.162 410.506 225.535C420.008 222.909 459.87 205.316 453.266 198.745C439.54 185.087 416.841 190.865 384.639 186.663C352.438 182.461 299.121 174.581 239.996 174.581Z" fill="#2BB281"/>
    <path d="M237.659 198.544C258.052 198.544 274.585 195.397 274.585 191.516C274.585 187.634 258.052 184.488 237.659 184.488C217.265 184.488 200.732 187.634 200.732 191.516C200.732 195.397 217.265 198.544 237.659 198.544Z" fill="#22A16E"/>
    <path d="M330.567 200.645C350.961 200.645 367.493 197.499 367.493 193.617C367.493 189.736 350.961 186.589 330.567 186.589C310.173 186.589 293.641 189.736 293.641 193.617C293.641 197.499 310.173 200.645 330.567 200.645Z" fill="#22A16E"/>
    <path d="M415.051 205.373C434.562 205.373 450.378 202.226 450.378 198.345C450.378 194.463 434.562 191.317 415.051 191.317C395.541 191.317 379.725 194.463 379.725 198.345C379.725 202.226 395.541 205.373 415.051 205.373Z" fill="#22A16E"/>
    <path d="M62.9243 204.848C83.318 204.848 99.8505 201.701 99.8505 197.82C99.8505 193.938 83.318 190.791 62.9243 190.791C42.5305 190.791 25.998 193.938 25.998 197.82C25.998 201.701 42.5305 204.848 62.9243 204.848Z" fill="#22A16E"/>
    <path d="M148.971 201.696C169.365 201.696 185.897 198.549 185.897 194.668C185.897 190.786 169.365 187.64 148.971 187.64C128.577 187.64 112.045 190.786 112.045 194.668C112.045 198.549 128.577 201.696 148.971 201.696Z" fill="#22A16E"/>
    <path d="M73.7371 149.022C75.9335 149.12 78.1192 149.386 80.275 149.818C80.6103 150.036 80.957 150.236 81.3136 150.417C83.6245 152.234 84.7514 154.061 86.2002 156.617C88.0824 160.095 88.6713 164.129 87.8619 168.002C86.896 172.687 84.1334 175.81 80.5918 178.83C79.8596 179.449 79.0339 179.6 78.4055 180.36C76.6729 180.426 74.9378 180.372 73.2126 180.199C72.6933 180.147 72.6933 180.298 72.8335 180.719C74.1031 184.528 75.5677 188.269 77.2216 191.927C77.9797 193.635 78.7794 195.311 79.6207 196.992C79.7869 197.341 79.8648 197.445 79.3662 197.513C78.713 197.625 78.0784 197.233 77.8863 196.597C75.4923 191.464 73.2126 186.289 71.5301 180.855C71.4054 180.449 71.5041 179.876 70.7875 179.814C70.4551 179.814 70.3772 179.814 70.3772 180.147C70.3772 183.27 70.4136 186.394 70.6057 189.553C70.7563 192 70.99 194.447 71.1821 196.893C71.1821 197.081 71.2548 197.372 70.9381 197.289C70.6213 197.206 69.9306 197.669 69.832 196.904C69.697 195.899 69.6139 194.884 69.5412 193.869C69.1622 189.21 69.0218 184.534 69.1205 179.86C69.1205 179.434 68.918 179.381 68.6012 179.293C64.7224 178.241 61.1737 176.219 58.288 173.416C58.0491 173.181 57.8258 172.937 57.5039 172.604C58.2517 177.008 59.1968 181.453 60.1575 185.654C59.7317 185.774 59.2903 185.847 58.8696 185.967C57.9245 181.906 57.0106 177.695 56.3199 173.358C55.353 177.951 54.6886 182.603 54.331 187.284L53.0431 187.518C53.1522 184.769 53.5624 181.823 53.9207 179.1C54.0973 177.877 54.3258 176.664 54.5231 175.456C54.5335 175.339 54.5335 175.22 54.5231 175.102C54.417 175.144 54.3146 175.195 54.2167 175.253C50.0052 178.2 45.908 178.158 41.7017 175.118L41.4628 174.962C41.4269 175.066 41.4025 175.175 41.3901 175.285C41.4161 178.416 41.6086 181.544 41.9665 184.655C42.4045 188.828 43.1298 192.966 44.1372 197.039C44.1787 197.195 44.2826 197.476 43.9814 197.424C43.566 197.351 42.9428 197.872 42.7611 197.055C42.3768 195.248 41.9613 193.442 41.6446 191.62C40.6068 185.965 40.0853 180.227 40.0867 174.478C40.0867 174.405 40.0867 174.332 40.0555 174.066C39.3704 175.92 38.7913 177.811 38.3211 179.73C36.9035 185.403 36.2486 191.24 36.3737 197.086C36.3737 197.992 35.8025 197.669 35.3871 197.731C34.8106 197.825 34.9872 197.377 34.9872 197.107C34.877 189.441 36.0531 181.81 38.4665 174.535C38.505 174.379 38.5345 174.221 38.5548 174.061C36.9837 175.832 34.8569 177.013 32.5257 177.408C30.5658 177.841 28.5175 177.595 26.7148 176.711C23.8379 175.248 23.0797 172.182 24.8713 169.501C25.221 168.916 25.6815 168.405 26.2267 167.997C26.8446 167.591 26.8343 167.169 26.6681 166.518C25.4425 161.651 23.1628 157.273 20.4988 153.072C20.2911 152.739 20.1301 152.682 19.7511 152.843C18.488 153.47 16.9568 153.068 16.1627 151.901C16.116 151.573 16.0433 151.422 16.1627 151.177C17.2013 149.673 19.7303 149.516 20.6702 150.917C23.8691 155.68 26.6006 160.672 27.9767 166.305C28.0494 166.607 28.1169 166.69 28.4389 166.523C28.8997 166.298 29.3771 166.108 29.8669 165.956C30.4693 165.763 31.2483 165.784 31.6481 165.399C32.048 165.014 31.726 164.191 31.8403 163.567C31.8426 163.548 31.8426 163.528 31.8403 163.509C31.9701 159.569 31.4975 155.758 29.5865 152.229C29.3944 151.875 29.3061 151.682 28.8543 152.015C28.3362 152.38 27.6928 152.518 27.0713 152.398C26.4498 152.278 25.9033 151.911 25.5568 151.38C25.0375 150.396 25.5049 149.47 26.8758 148.871C26.8758 148.871 26.9018 148.84 26.9121 148.819C27.3045 148.722 27.7142 148.722 28.1065 148.819C29.2386 149.162 29.8514 150.053 30.4174 151C32.8321 155.087 33.3982 159.563 33.1541 164.202C33.0918 165.378 33.0502 165.357 34.1927 165.446C35.4695 165.519 36.7041 165.931 37.7706 166.638C38.0614 166.836 38.1134 166.82 38.1601 166.461C38.7936 162.015 41.198 159.022 45.5393 157.793C48.6551 156.903 51.5995 157.596 54.2064 159.569C54.3777 159.699 54.5439 160.027 54.7256 159.527C56.3978 155.414 59.5759 152.848 63.5121 151.115C65.8423 150.057 68.3478 149.441 70.9017 149.298C71.151 149.298 72.148 149.079 72.3921 149.048C72.4492 149.147 73.3736 149.657 73.4567 149.725C75.8144 151.487 77.7456 153.759 79.1066 156.372C80.8255 159.454 81.298 163.338 80.758 166.841C79.9946 171.823 78.1615 174.826 74.4589 178.044C74.1162 178.34 73.5969 178.819 73.2541 179.116C73.6384 179.392 73.2801 179.09 73.7111 179.189C74.1421 179.288 73.6332 179.517 74.1629 179.111C76.3024 177.461 77.9538 175.295 79.5065 173.077C82.1964 169.241 82.7365 167.351 81.7187 162.666C80.758 158.22 78.8781 153.915 75.4871 151.005C74.8324 150.411 74.2455 149.746 73.7371 149.022Z" fill="#424251"/>
    <path d="M83.3926 150.637C87.869 152.349 92.4492 155.353 94.895 159.58C97.5882 164.012 97.0649 169.69 93.6072 173.552C90.4343 177.274 85.7139 179.278 80.9883 180.116C81.0715 179.723 81.2499 179.357 81.5076 179.049C84.1508 176.967 86.1085 174.036 87.7391 171.038C89.6865 167.482 89.9513 165.598 88.9699 161.615C88.165 158.341 86.7473 154.957 84.4468 152.526C83.9871 151.964 83.6302 151.324 83.3926 150.637Z" fill="#424251"/>
    <path d="M74.6467 149.08C75.103 149.617 75.6267 150.093 76.2046 150.496C79.5697 153.406 82.1194 156.831 83.0749 161.272C84.1135 165.988 82.8049 170.179 80.1149 174.015C78.5243 176.187 76.6141 178.103 74.4494 179.7C73.9301 180.111 73.5147 179.83 73.0629 179.726C72.6184 179.706 72.183 179.593 71.7854 179.393L72.824 178.503C76.5266 175.285 79.31 171.485 80.0942 166.529C80.5917 163.107 79.9064 159.617 78.152 156.639C76.5526 153.851 74.3999 151.422 71.827 149.502C71.752 149.413 71.6923 149.313 71.6504 149.205C72.6373 149.013 73.6473 148.971 74.6467 149.08Z" fill="#5D5D69"/>
    <path d="M84.2189 150.996C84.4267 151.6 84.9823 151.897 85.3822 152.324C87.7053 154.672 89.3647 157.597 90.1908 160.798C91.1723 164.786 90.4505 168.524 88.4979 172.084C86.857 175.078 84.4994 177.415 81.8562 179.497C81.6952 179.622 81.5134 179.721 81.5186 179.961C80.2652 180.261 78.9799 180.406 77.6914 180.393C78.3094 179.633 79.1714 179.164 79.9036 178.539C83.4608 175.515 86.1351 171.923 87.127 167.259C87.8747 163.572 87.2169 159.738 85.2835 156.514C83.8476 153.982 81.9297 151.757 79.6388 149.965C79.5489 149.864 79.4769 149.748 79.4259 149.622C81.0818 149.843 82.6966 150.306 84.2189 150.996Z" fill="#5D5D69"/>
    <path d="M60.655 187.456C61.5223 190.532 62.5297 193.854 63.6566 196.826C63.7812 197.154 63.6566 197.195 63.3606 197.232C63.0687 197.309 62.7578 197.259 62.5053 197.093C62.2527 196.927 62.0823 196.662 62.0364 196.363C61.138 193.526 60.063 190.569 59.3672 187.669C59.8034 187.649 60.2396 187.498 60.655 187.456Z" fill="#424251"/>
    <path d="M54.368 187.414C54.4615 190.017 54.0616 193.811 54.0772 196.903C54.0772 197.57 53.5579 197.2 53.2775 197.263C52.9971 197.325 52.6803 197.361 52.6959 196.862C52.7893 194.368 52.8569 191.88 52.9399 189.387C52.9242 188.78 52.9712 188.173 53.0802 187.575C53.5371 187.534 53.9162 187.461 54.368 187.414Z" fill="#424251"/>
    <path d="M58.8613 185.806L60.1284 185.441L60.3777 186.405C60.0182 186.657 59.5951 186.801 59.1573 186.822L58.8613 185.806Z" fill="#5D5D69"/>
    <path d="M59.1582 186.821C59.4698 186.394 59.932 186.43 60.3786 186.404C60.4357 186.628 60.5188 187.003 60.5759 187.227C60.2255 187.479 59.794 187.591 59.3659 187.54C59.314 187.358 59.1997 187.003 59.1582 186.821Z" fill="#424251"/>
    <path d="M54.3899 187.644L53.0293 187.774L53.1124 187.284L54.4002 187.034L54.3899 187.644Z" fill="#5D5D69"/>
    <path d="M59.3173 187.367C59.7501 187.425 60.1889 187.319 60.548 187.07C60.6807 187.261 60.7481 187.489 60.7402 187.721L59.4368 187.846C59.2758 187.716 59.3173 187.539 59.3173 187.367Z" fill="#5D5D69"/>
    <path d="M31.8579 169.079C32.4239 169.125 32.6265 169.516 32.6524 170.011C32.6823 170.223 32.6197 170.438 32.4805 170.6C32.3413 170.763 32.139 170.857 31.9254 170.86C31.3645 170.86 31.1568 170.422 31.1257 169.933C31.0975 169.72 31.1614 169.504 31.3012 169.341C31.441 169.178 31.6435 169.083 31.8579 169.079Z" fill="#030304"/>
    <path d="M28.9377 170.157C28.891 170.615 28.7248 171.006 28.2004 170.991C27.9866 170.998 27.7793 170.917 27.627 170.766C27.4748 170.615 27.3911 170.408 27.3955 170.193C27.3718 169.989 27.4359 169.785 27.5718 169.632C27.7077 169.479 27.9024 169.391 28.1069 169.391C28.3204 169.373 28.5314 169.446 28.6892 169.592C28.8469 169.737 28.937 169.942 28.9377 170.157Z" fill="#030304"/>
    <path d="M162.514 145.706C164.705 145.804 166.886 146.068 169.036 146.495C169.38 146.712 169.735 146.91 170.101 147.087C172.407 148.885 173.534 150.693 174.982 153.222C176.866 156.661 177.455 160.653 176.644 164.483C175.683 169.12 172.916 172.211 169.374 175.198C168.642 175.817 167.816 175.961 167.188 176.718C165.455 176.784 163.72 176.73 161.995 176.558C161.476 176.507 161.476 176.656 161.621 177.074C162.89 180.843 164.353 184.544 166.004 188.165C166.767 189.849 167.588 191.513 168.403 193.177C168.569 193.517 168.652 193.625 168.148 193.666C167.496 193.78 166.862 193.39 166.674 192.76C164.275 187.675 162 182.56 160.312 177.182C160.188 176.78 160.286 176.213 159.57 176.151C159.237 176.151 159.165 176.151 159.165 176.481C159.165 179.572 159.201 182.689 159.393 185.79C159.539 188.211 159.772 190.632 159.964 193.053C159.964 193.239 160.037 193.527 159.72 193.445C159.404 193.363 158.713 193.821 158.614 193.064C158.479 192.07 158.401 191.06 158.323 190.06C157.944 185.45 157.804 180.823 157.903 176.198C157.903 175.77 157.705 175.724 157.383 175.636C153.501 174.6 149.947 172.602 147.055 169.831C146.821 169.599 146.593 169.357 146.271 169.027C147.018 173.385 147.963 177.785 148.924 181.942C148.504 182.06 148.057 182.127 147.636 182.251C146.691 178.233 145.777 174.065 145.087 169.769C144.119 174.316 143.455 178.921 143.098 183.554C142.672 183.637 142.241 183.704 141.815 183.786C141.919 181.061 142.303 178.15 142.687 175.451C142.864 174.245 143.092 173.045 143.29 171.845C143.303 171.728 143.303 171.611 143.29 171.495C143.183 171.535 143.081 171.585 142.983 171.644C138.772 174.56 134.675 174.513 130.468 171.51L130.23 171.355C130.193 171.459 130.169 171.566 130.157 171.675C130.183 174.774 130.375 177.869 130.733 180.948C131.163 185.084 131.882 189.186 132.883 193.223C132.919 193.378 133.023 193.656 132.722 193.605C132.307 193.533 131.684 194.043 131.507 193.239C131.123 191.446 130.707 189.664 130.39 187.861C129.35 182.265 128.829 176.587 128.833 170.897C128.833 170.825 128.833 170.753 128.801 170.49C128.129 172.327 127.56 174.2 127.098 176.1C125.681 181.715 125.026 187.493 125.151 193.28C125.151 194.171 124.58 193.852 124.164 193.919C123.588 194.012 123.764 193.569 123.764 193.296C123.657 185.711 124.833 178.162 127.244 170.964C127.282 170.81 127.312 170.653 127.332 170.495C125.752 172.244 123.618 173.406 121.282 173.787C119.322 174.215 117.274 173.972 115.471 173.097C112.594 171.649 111.836 168.61 113.628 165.962C113.977 165.383 114.438 164.877 114.983 164.473C115.606 164.071 115.591 163.654 115.43 163.01C114.199 158.188 111.924 153.861 109.255 149.704C109.047 149.374 108.886 149.312 108.507 149.477C107.247 150.1 105.716 149.707 104.919 148.555C104.877 148.236 104.8 148.086 104.919 147.844C105.932 146.355 108.481 146.201 109.421 147.587C112.625 152.3 115.352 157.235 116.728 162.814C116.801 163.113 116.868 163.19 117.19 163.031C117.652 162.809 118.131 162.624 118.623 162.48C119.226 162.289 120.005 162.31 120.41 161.928C120.815 161.547 120.482 160.728 120.597 160.115C120.599 160.094 120.599 160.074 120.597 160.053C120.726 156.159 120.259 152.383 118.343 148.895C118.151 148.545 118.062 148.354 117.611 148.684C117.093 149.047 116.449 149.186 115.827 149.067C115.204 148.949 114.658 148.583 114.313 148.055C113.768 147.087 114.256 146.17 115.632 145.578C115.632 145.578 115.632 145.542 115.663 145.526C116.055 145.428 116.466 145.428 116.858 145.526C117.995 145.861 118.602 146.742 119.169 147.685C121.588 151.728 122.154 156.159 121.905 160.749C121.843 161.913 121.807 161.892 122.944 161.98C124.221 162.051 125.456 162.459 126.522 163.16C126.813 163.355 126.864 163.34 126.916 162.979C127.545 158.585 129.954 155.623 134.29 154.407C137.432 153.526 140.351 154.211 142.963 156.164C143.134 156.293 143.295 156.617 143.482 156.123C145.159 152.048 148.332 149.513 152.274 147.798C154.591 146.748 157.084 146.131 159.627 145.979C159.876 145.979 160.873 145.763 161.117 145.727C161.461 145.97 161.818 146.193 162.187 146.397C164.542 148.144 166.471 150.394 167.832 152.98C169.551 156.03 170.023 159.868 169.483 163.34C168.72 168.27 166.887 171.242 163.189 174.426C162.846 174.719 162.322 175.193 161.979 175.487C162.364 175.76 162.01 175.461 162.436 175.559C162.862 175.657 162.358 175.884 162.888 175.482C165.028 173.849 166.679 171.706 168.232 169.511C170.922 165.709 171.462 163.845 170.444 159.208C169.483 154.809 167.603 150.549 164.212 147.669C163.577 147.077 163.008 146.419 162.514 145.706Z" fill="#424251"/>
    <path d="M172.153 147.31C176.629 149.005 181.215 151.972 183.661 156.16C186.349 160.547 185.826 166.162 182.373 169.987C179.195 173.67 174.474 175.653 169.754 176.483C169.835 176.093 170.013 175.73 170.273 175.426C172.922 173.366 174.874 170.466 176.505 167.498C178.457 163.975 178.717 162.115 177.735 158.174C176.936 154.934 175.513 151.586 173.212 149.18C172.751 148.623 172.392 147.99 172.153 147.31Z" fill="#424251"/>
    <path d="M163.411 145.764C163.866 146.299 164.389 146.772 164.969 147.171C168.334 150.05 170.884 153.435 171.839 157.834C172.878 162.501 171.569 166.643 168.879 170.445C167.29 172.595 165.38 174.492 163.214 176.07C162.694 176.477 162.279 176.199 161.832 176.096C161.386 176.075 160.95 175.963 160.55 175.766L161.588 174.885C165.296 171.702 168.079 167.941 168.858 163.011C169.361 159.624 168.675 156.169 166.916 153.224C165.311 150.46 163.147 148.055 160.56 146.161C160.477 146.094 160.446 145.965 160.389 145.867C161.385 145.684 162.404 145.649 163.411 145.764Z" fill="#5D5D69"/>
    <path d="M172.974 147.665C173.186 148.258 173.737 148.556 174.142 148.979C176.461 151.305 178.118 154.198 178.945 157.365C179.927 161.311 179.205 165.01 177.258 168.529C175.617 171.496 173.254 173.804 170.611 175.869C170.455 175.993 170.268 176.091 170.278 176.328C169.025 176.624 167.74 176.768 166.451 176.755C167.064 176.003 167.926 175.54 168.658 174.921C172.215 171.923 174.921 168.374 175.882 163.758C176.638 160.113 175.988 156.318 174.059 153.126C172.623 150.618 170.705 148.415 168.414 146.64C168.324 146.541 168.252 146.428 168.201 146.305C169.851 146.523 171.459 146.981 172.974 147.665Z" fill="#5D5D69"/>
    <path d="M149.414 183.74C150.281 186.784 151.288 190.076 152.42 193.038C152.545 193.363 152.42 193.404 152.119 193.435C151.828 193.52 151.513 193.475 151.258 193.31C151.003 193.146 150.834 192.879 150.795 192.58C149.896 189.772 148.822 186.846 148.131 183.977C148.562 183.936 148.983 183.781 149.414 183.74Z" fill="#424251"/>
    <path d="M143.129 183.704C143.217 186.279 142.817 190.035 142.833 193.094C142.833 193.754 142.314 193.388 142.033 193.45C141.753 193.512 141.436 193.548 141.452 193.053C141.545 190.586 141.613 188.118 141.696 185.651C141.679 185.052 141.728 184.452 141.841 183.863C142.293 183.827 142.672 183.75 143.129 183.704Z" fill="#424251"/>
    <path d="M147.621 182.112L148.888 181.751L149.137 182.705C148.781 182.955 148.358 183.096 147.922 183.113L147.621 182.112Z" fill="#5D5D69"/>
    <path d="M147.92 183.112C148.226 182.694 148.694 182.73 149.135 182.704C149.192 182.926 149.275 183.297 149.338 183.519C148.987 183.768 148.556 183.878 148.128 183.829C148.096 183.643 147.972 183.313 147.92 183.112Z" fill="#424251"/>
    <path d="M143.146 183.931L141.785 184.06L141.868 183.575L143.156 183.328L143.146 183.931Z" fill="#5D5D69"/>
    <path d="M148.099 183.658C148.533 183.712 148.972 183.608 149.335 183.364C149.465 183.553 149.531 183.779 149.522 184.008L148.218 184.132C148.042 184.003 148.099 183.828 148.099 183.658Z" fill="#5D5D69"/>
    <path d="M120.622 165.534C121.188 165.58 121.386 165.967 121.411 166.456C121.443 166.665 121.382 166.877 121.243 167.038C121.105 167.198 120.902 167.29 120.69 167.291C120.129 167.291 119.916 166.863 119.885 166.379C119.858 166.167 119.923 165.955 120.064 165.793C120.205 165.632 120.407 165.538 120.622 165.534V165.534Z" fill="#030304"/>
    <path d="M117.703 166.627C117.651 167.081 117.485 167.468 116.961 167.452C116.748 167.455 116.544 167.373 116.392 167.225C116.241 167.076 116.156 166.874 116.156 166.663C116.13 166.461 116.194 166.258 116.33 166.106C116.467 165.954 116.662 165.867 116.867 165.869C117.081 165.853 117.292 165.926 117.45 166.069C117.608 166.212 117.7 166.414 117.703 166.627Z" fill="#030304"/>
    <path d="M254.213 141.258C256.403 141.357 258.581 141.623 260.73 142.055C261.074 142.274 261.429 142.473 261.795 142.653C264.106 144.47 265.233 146.297 266.682 148.853C268.565 152.329 269.155 156.362 268.343 160.233C267.377 164.918 264.615 168.041 261.073 171.061C260.341 171.685 259.515 171.831 258.887 172.596C257.154 172.663 255.419 172.609 253.694 172.435C253.175 172.383 253.175 172.534 253.315 172.956C254.584 176.766 256.049 180.509 257.703 184.169C258.461 185.871 259.261 187.552 260.102 189.234C260.268 189.577 260.346 189.687 259.848 189.728C259.194 189.841 258.56 189.448 258.368 188.812C255.974 183.674 253.694 178.505 252.011 173.07C251.887 172.664 251.985 172.091 251.264 172.029C250.936 172.029 250.859 172.029 250.859 172.362C250.859 175.486 250.895 178.635 251.087 181.769C251.238 184.216 251.471 186.662 251.663 189.104C251.663 189.296 251.736 189.588 251.419 189.504C251.103 189.421 250.412 189.885 250.313 189.119C250.178 188.115 250.095 187.094 250.022 186.084C249.644 181.425 249.503 176.75 249.602 172.076C249.602 171.644 249.399 171.597 249.083 171.508C245.203 170.456 241.653 168.433 238.764 165.631C238.53 165.397 238.307 165.152 237.98 164.819C238.733 169.223 239.678 173.669 240.639 177.87C240.213 177.99 239.772 178.057 239.351 178.182C238.406 174.122 237.492 169.91 236.796 165.569C235.833 170.164 235.17 174.817 234.812 179.499L233.524 179.733C233.634 176.98 234.018 174.038 234.402 171.311C234.573 170.093 234.807 168.88 235.004 167.667C235.015 167.549 235.015 167.43 235.004 167.313C234.899 167.353 234.796 167.402 234.698 167.458C230.487 170.41 226.389 170.363 222.183 167.328L221.944 167.172C221.908 167.277 221.883 167.385 221.871 167.495C221.898 170.626 222.09 173.754 222.448 176.865C222.876 181.045 223.593 185.19 224.593 189.27C224.634 189.426 224.738 189.702 224.437 189.655C224.021 189.583 223.398 190.098 223.216 189.286C222.832 187.474 222.417 185.673 222.1 183.851C221.065 178.196 220.543 172.458 220.542 166.709C220.542 166.636 220.542 166.563 220.516 166.298C219.831 168.149 219.252 170.038 218.782 171.956C217.368 177.627 216.718 183.463 216.85 189.307C216.85 190.207 216.279 189.885 215.863 189.952C215.287 190.046 215.463 189.598 215.463 189.322C215.353 181.658 216.529 174.029 218.943 166.756C218.981 166.6 219.009 166.442 219.026 166.282C217.448 168.048 215.315 169.222 212.981 169.608C211.021 170.041 208.973 169.795 207.17 168.911C204.293 167.448 203.535 164.377 205.327 161.701C205.676 161.116 206.137 160.605 206.682 160.197C207.3 159.79 207.29 159.369 207.123 158.718C205.898 153.846 203.618 149.473 200.954 145.267C200.746 144.939 200.58 144.876 200.206 145.043C198.946 145.672 197.415 145.275 196.618 144.111C196.571 143.788 196.493 143.637 196.618 143.393C197.657 141.888 200.186 141.732 201.126 143.132C204.324 147.896 207.056 152.883 208.432 158.52C208.505 158.822 208.572 158.9 208.894 158.739C209.356 158.514 209.835 158.327 210.327 158.182C210.93 157.989 211.709 158.01 212.109 157.625C212.509 157.24 212.187 156.412 212.301 155.793C212.303 155.772 212.303 155.751 212.301 155.73C212.431 151.795 211.958 147.979 210.047 144.449C209.855 144.101 209.767 143.929 209.315 144.241C208.797 144.609 208.152 144.749 207.529 144.629C206.905 144.509 206.358 144.14 206.012 143.606C205.493 142.622 205.96 141.701 207.331 141.102C207.346 141.087 207.358 141.069 207.368 141.05C207.76 140.951 208.17 140.951 208.562 141.05C209.694 141.388 210.307 142.279 210.873 143.231C213.287 147.318 213.854 151.795 213.609 156.433C213.547 157.609 213.506 157.588 214.648 157.677C215.925 157.75 217.159 158.162 218.226 158.869C218.517 159.067 218.564 159.051 218.615 158.687C219.249 154.241 221.653 151.248 225.995 150.025C229.136 149.134 232.05 149.827 234.662 151.795C234.833 151.925 234.999 152.253 235.181 151.758C236.853 147.64 240.031 145.079 243.967 143.346C246.287 142.285 248.781 141.662 251.326 141.508C251.575 141.508 252.567 141.289 252.816 141.253C253.159 141.497 253.514 141.723 253.881 141.93C256.237 143.694 258.167 145.968 259.526 148.583C261.25 151.664 261.722 155.543 261.182 159.051C260.419 164.033 258.586 167.037 254.883 170.254C254.54 170.551 254.021 171.03 253.678 171.326C254.057 171.602 253.704 171.3 254.135 171.399C254.566 171.498 254.057 171.727 254.587 171.321C256.727 169.671 258.378 167.505 259.931 165.288C262.621 161.446 263.155 159.561 262.143 154.876C261.182 150.431 259.302 146.126 255.911 143.216C255.277 142.626 254.708 141.969 254.213 141.258Z" fill="#424251"/>
    <path d="M263.844 142.874C268.326 144.586 272.906 147.585 275.352 151.817C278.045 156.249 277.522 161.927 274.064 165.789C270.891 169.511 266.171 171.515 261.445 172.354C261.529 171.961 261.707 171.594 261.965 171.286C264.608 169.204 266.566 166.273 268.196 163.275C270.144 159.714 270.403 157.835 269.427 153.853C268.622 150.578 267.204 147.194 264.904 144.763C264.444 144.2 264.086 143.56 263.844 142.874Z" fill="#424251"/>
    <path d="M255.1 141.31C255.555 141.851 256.079 142.328 256.658 142.732C260.023 145.642 262.573 149.062 263.528 153.507C264.567 158.224 263.258 162.409 260.568 166.251C258.982 168.421 257.077 170.338 254.918 171.935C254.399 172.347 253.983 172.066 253.532 171.961C253.087 171.94 252.651 171.825 252.254 171.623L253.293 170.738C256.995 167.521 259.779 163.721 260.563 158.739C261.062 155.316 260.376 151.826 258.621 148.848C257.023 146.06 254.87 143.63 252.296 141.711C252.221 141.623 252.161 141.523 252.119 141.414C253.102 141.234 254.107 141.199 255.1 141.31Z" fill="#5D5D69"/>
    <path d="M264.672 143.232C264.88 143.83 265.435 144.132 265.835 144.559C268.158 146.908 269.818 149.832 270.644 153.034C271.625 157.016 270.898 160.759 268.951 164.315C267.31 167.313 264.953 169.645 262.309 171.733C262.148 171.858 261.967 171.957 261.972 172.196C260.718 172.496 259.433 172.641 258.145 172.628C258.762 171.868 259.625 171.4 260.357 170.775C263.914 167.745 266.588 164.159 267.58 159.494C268.328 155.808 267.67 151.974 265.737 148.75C264.306 146.219 262.395 143.993 260.113 142.196C260.02 142.096 259.948 141.98 259.9 141.852C261.549 142.077 263.157 142.542 264.672 143.232Z" fill="#5D5D69"/>
    <path d="M241.106 179.686C241.968 182.763 242.981 186.089 244.108 189.082C244.232 189.41 244.134 189.452 243.812 189.483C243.52 189.569 243.206 189.523 242.951 189.357C242.696 189.191 242.527 188.921 242.488 188.619C241.589 185.782 240.514 182.82 239.818 179.926C240.255 179.884 240.675 179.728 241.106 179.686Z" fill="#424251"/>
    <path d="M234.817 179.65C234.911 182.253 234.511 186.047 234.521 189.139C234.521 189.806 234.002 189.436 233.727 189.499C233.451 189.561 233.129 189.598 233.145 189.098C233.239 186.604 233.306 184.111 233.389 181.618C233.371 181.012 233.418 180.407 233.529 179.811C233.986 179.764 234.365 179.692 234.817 179.65Z" fill="#424251"/>
    <path d="M239.342 178.042L240.609 177.677L240.853 178.641C240.496 178.894 240.074 179.037 239.638 179.053L239.342 178.042Z" fill="#5D5D69"/>
    <path d="M239.611 179.052C239.923 178.629 240.385 178.666 240.827 178.64C240.889 178.859 240.972 179.239 241.029 179.463C240.678 179.714 240.247 179.826 239.819 179.776C239.767 179.588 239.668 179.239 239.611 179.052Z" fill="#424251"/>
    <path d="M234.845 179.88L233.484 180.01L233.567 179.52L234.855 179.27L234.845 179.88Z" fill="#5D5D69"/>
    <path d="M239.77 179.603C240.203 179.659 240.641 179.553 241.001 179.306C241.136 179.496 241.204 179.725 241.193 179.958L239.89 180.083C239.729 179.937 239.77 179.77 239.77 179.603Z" fill="#5D5D69"/>
    <path d="M212.338 161.289C212.904 161.336 213.107 161.726 213.133 162.221C213.165 162.433 213.103 162.648 212.963 162.811C212.823 162.973 212.62 163.066 212.406 163.065C211.845 163.065 211.637 162.632 211.606 162.143C211.578 161.93 211.642 161.715 211.782 161.552C211.921 161.388 212.124 161.293 212.338 161.289Z" fill="#030304"/>
    <path d="M209.394 162.388C209.347 162.852 209.181 163.243 208.651 163.227C208.438 163.231 208.233 163.149 208.083 162.999C207.932 162.848 207.848 162.643 207.851 162.43C207.826 162.226 207.889 162.02 208.026 161.867C208.162 161.713 208.358 161.626 208.563 161.627C208.775 161.611 208.984 161.684 209.141 161.828C209.299 161.972 209.39 162.174 209.394 162.388Z" fill="#030304"/>
    <path d="M342.699 144.617C344.89 144.721 347.07 144.987 349.222 145.414C349.564 145.637 349.919 145.839 350.286 146.018C352.592 147.834 353.719 149.662 355.173 152.218C357.055 155.693 357.642 159.727 356.829 163.597C355.869 168.282 353.101 171.406 349.559 174.425C348.827 175.05 348.001 175.196 347.373 175.987C345.64 176.051 343.905 175.995 342.18 175.82C341.661 175.768 341.661 175.924 341.806 176.341C343.073 180.15 344.536 183.891 346.189 187.549C346.952 189.256 347.773 190.938 348.588 192.619C348.754 192.963 348.838 193.072 348.334 193.14C347.681 193.254 347.047 192.86 346.859 192.223C344.46 187.085 342.185 181.916 340.498 176.481C340.373 176.07 340.472 175.503 339.755 175.44C339.428 175.44 339.35 175.44 339.35 175.773C339.35 178.897 339.386 182.046 339.578 185.175C339.729 187.627 339.958 190.068 340.15 192.515C340.15 192.707 340.222 192.999 339.906 192.916C339.589 192.832 338.903 193.29 338.8 192.53C338.665 191.521 338.587 190.505 338.509 189.49C338.13 184.833 337.989 180.159 338.088 175.487C338.088 175.055 337.891 175.008 337.569 174.92C333.688 173.85 330.142 171.812 327.261 168.996C327.027 168.761 326.799 168.517 326.477 168.183C327.224 172.582 328.17 177.033 329.13 181.234C328.71 181.354 328.268 181.422 327.842 181.541C326.897 177.486 325.983 173.275 325.293 168.933C324.325 173.527 323.662 178.181 323.309 182.863C322.878 182.947 322.447 183.014 322.021 183.098C322.17 180.275 322.463 177.462 322.899 174.67C323.07 173.452 323.299 172.239 323.501 171.026C323.509 170.908 323.509 170.79 323.501 170.672C323.395 170.711 323.292 170.76 323.195 170.818C318.983 173.764 314.886 173.722 310.674 170.687C310.597 170.63 310.519 170.583 310.436 170.531C310.403 170.636 310.38 170.744 310.368 170.854C310.393 173.985 310.583 177.113 310.939 180.224C311.37 184.404 312.088 188.549 313.089 192.629C313.126 192.786 313.229 193.061 312.933 193.009C312.518 192.942 311.895 193.457 311.713 192.645C311.329 190.833 310.913 189.027 310.597 187.21C309.557 181.556 309.035 175.818 309.039 170.068C309.039 169.995 309.039 169.922 309.008 169.657C308.319 171.511 307.739 173.404 307.268 175.326C305.846 180.999 305.19 186.838 305.315 192.687C305.315 193.587 304.744 193.264 304.334 193.332C303.757 193.426 303.934 192.978 303.929 192.702C303.821 185.038 304.997 177.41 307.408 170.136C307.447 169.98 307.476 169.821 307.496 169.662C305.916 171.428 303.782 172.601 301.447 172.988C299.487 173.418 297.439 173.172 295.636 172.291C292.759 170.828 292.001 167.757 293.792 165.081C294.142 164.496 294.602 163.985 295.148 163.576C295.771 163.17 295.76 162.749 295.594 162.093C294.363 157.226 292.089 152.853 289.425 148.647C289.212 148.319 289.051 148.256 288.672 148.423C287.413 149.052 285.884 148.654 285.089 147.491C285.042 147.168 284.964 147.017 285.089 146.773C286.101 145.263 288.651 145.112 289.591 146.512C292.795 151.275 295.521 156.262 296.898 161.895C296.97 162.202 297.043 162.28 297.36 162.119C297.823 161.892 298.304 161.704 298.798 161.557C299.395 161.369 300.18 161.39 300.579 161.005C300.979 160.62 300.657 159.792 300.766 159.172C300.769 159.152 300.769 159.131 300.766 159.11C300.896 155.174 300.429 151.359 298.513 147.829C298.326 147.475 298.237 147.309 297.78 147.621C297.263 147.987 296.619 148.126 295.997 148.006C295.375 147.886 294.828 147.518 294.483 146.986C293.964 146.002 294.426 145.075 295.802 144.477C295.802 144.477 295.802 144.446 295.833 144.43C296.225 144.328 296.636 144.328 297.027 144.43C298.165 144.768 298.777 145.659 299.338 146.611C301.758 150.698 302.324 155.174 302.075 159.813C302.013 160.989 301.976 160.968 303.114 161.052C304.39 161.128 305.625 161.541 306.691 162.249C306.982 162.447 307.034 162.426 307.086 162.067C307.714 157.621 310.124 154.628 314.46 153.405C317.602 152.514 320.52 153.207 323.132 155.174C323.304 155.305 323.465 155.633 323.652 155.138C325.329 151.02 328.502 148.454 332.443 146.726C334.762 145.662 337.257 145.039 339.802 144.888C340.051 144.888 341.043 144.669 341.292 144.633C341.626 144.877 341.973 145.102 342.331 145.31C344.684 147.075 346.613 149.346 347.975 151.957C349.7 155.044 350.167 158.923 349.627 162.431C348.863 167.413 347.03 170.417 343.333 173.634C342.99 173.931 342.466 174.409 342.123 174.701C342.507 174.982 342.154 174.701 342.58 174.779C343.006 174.857 342.507 175.107 343.037 174.696C345.176 173.046 346.823 170.885 348.375 168.668C351.065 164.826 351.605 162.941 350.588 158.256C349.632 153.816 347.747 149.511 344.382 146.601C343.754 146 343.19 145.335 342.699 144.617Z" fill="#424251"/>
    <path d="M352.333 146.232C356.809 147.945 361.394 150.949 363.84 155.181C366.528 159.614 366.005 165.289 362.552 169.153C359.374 172.875 354.654 174.879 349.934 175.717C350.011 175.322 350.19 174.955 350.453 174.65C353.096 172.568 355.049 169.632 356.684 166.639C358.637 163.078 358.897 161.199 357.92 157.211C357.115 153.942 355.693 150.558 353.392 148.127C352.931 147.563 352.573 146.921 352.333 146.232Z" fill="#424251"/>
    <path d="M343.617 144.675C344.07 145.215 344.594 145.692 345.175 146.091C348.54 149.006 351.089 152.427 352.05 156.872C353.063 161.583 351.775 165.774 349.085 169.616C347.498 171.788 345.589 173.705 343.425 175.3C342.905 175.706 342.485 175.431 342.038 175.326C341.593 175.306 341.157 175.191 340.761 174.988L341.799 174.098C345.502 170.881 348.285 167.086 349.069 162.125C349.572 158.702 348.886 155.21 347.127 152.234C345.533 149.442 343.379 147.01 340.802 145.092C340.719 145.029 340.688 144.899 340.631 144.8C341.615 144.612 342.621 144.57 343.617 144.675Z" fill="#5D5D69"/>
    <path d="M353.162 146.596C353.37 147.195 353.92 147.497 354.326 147.924C356.646 150.274 358.305 153.198 359.134 156.399C360.11 160.381 359.389 164.119 357.441 167.679C355.8 170.678 353.438 173.01 350.794 175.092C350.639 175.217 350.452 175.321 350.462 175.561C349.208 175.858 347.923 176.003 346.635 175.993C347.248 175.228 348.11 174.759 348.842 174.14C352.399 171.11 355.104 167.523 356.065 162.854C356.815 159.167 356.157 155.333 354.222 152.109C352.786 149.577 350.868 147.352 348.577 145.56C348.478 145.482 348.437 145.331 348.364 145.217C350.022 145.44 351.638 145.905 353.162 146.596Z" fill="#5D5D69"/>
    <path d="M329.594 183.051C330.457 186.128 331.464 189.454 332.596 192.421C332.721 192.749 332.596 192.791 332.295 192.822C332.004 192.899 331.694 192.849 331.441 192.685C331.189 192.52 331.018 192.256 330.971 191.958C330.072 189.121 328.997 186.159 328.307 183.259C328.738 183.244 329.158 183.093 329.594 183.051Z" fill="#424251"/>
    <path d="M323.308 182.999C323.396 185.602 322.996 189.397 323.012 192.489C323.012 193.15 322.493 192.785 322.212 192.848C321.932 192.91 321.615 192.947 321.636 192.447C321.724 189.954 321.797 187.46 321.875 184.967C321.858 184.361 321.907 183.756 322.02 183.16C322.472 183.129 322.846 183.056 323.308 182.999Z" fill="#424251"/>
    <path d="M327.803 181.407L329.065 181.042L329.314 182.007C328.957 182.259 328.535 182.402 328.099 182.418L327.803 181.407Z" fill="#5D5D69"/>
    <path d="M328.102 182.417C328.408 181.989 328.875 182.031 329.317 182.005C329.374 182.224 329.462 182.604 329.519 182.828C329.169 183.08 328.737 183.19 328.309 183.136C328.252 182.953 328.153 182.599 328.102 182.417Z" fill="#424251"/>
    <path d="M323.329 183.239L321.969 183.37L322.052 182.88L323.34 182.635L323.329 183.239Z" fill="#5D5D69"/>
    <path d="M328.263 182.969C328.696 183.023 329.134 182.915 329.493 182.667C329.624 182.86 329.69 183.09 329.68 183.324L328.382 183.449C328.221 183.319 328.263 183.136 328.263 182.969Z" fill="#5D5D69"/>
    <path d="M300.802 164.655C301.368 164.701 301.565 165.092 301.591 165.582C301.625 165.793 301.564 166.009 301.425 166.173C301.286 166.336 301.083 166.43 300.869 166.43C300.308 166.43 300.096 165.998 300.064 165.503C300.038 165.29 300.103 165.076 300.244 164.914C300.385 164.752 300.588 164.657 300.802 164.655Z" fill="#030304"/>
    <path d="M297.882 165.753C297.83 166.212 297.669 166.608 297.139 166.593C296.926 166.595 296.721 166.512 296.571 166.361C296.42 166.209 296.337 166.004 296.34 165.79C296.314 165.586 296.378 165.381 296.514 165.228C296.651 165.076 296.846 164.989 297.051 164.993C297.263 164.977 297.473 165.049 297.63 165.193C297.787 165.337 297.878 165.54 297.882 165.753Z" fill="#030304"/>
    <path d="M429.255 148.923C431.444 149.022 433.623 149.289 435.772 149.72C436.115 149.94 436.47 150.14 436.837 150.319C439.142 152.135 440.274 153.963 441.723 156.519C443.605 159.994 444.193 164.028 443.38 167.898C442.419 172.583 439.656 175.707 436.11 178.726C435.377 179.351 434.552 179.496 433.918 180.288C432.185 180.354 430.45 180.3 428.725 180.126C428.206 180.069 428.206 180.225 428.346 180.647C429.614 184.458 431.077 188.2 432.729 191.86C433.492 193.562 434.313 195.244 435.128 196.925C435.299 197.269 435.377 197.378 434.874 197.446C434.221 197.56 433.587 197.166 433.399 196.529C431 191.391 428.725 186.222 427.043 180.787C426.918 180.376 427.011 179.809 426.295 179.746C425.968 179.746 425.89 179.746 425.89 180.079C425.89 183.203 425.926 186.352 426.118 189.486C426.269 191.933 426.503 194.374 426.695 196.821C426.695 197.014 426.767 197.305 426.451 197.222C426.134 197.139 425.443 197.602 425.339 196.837C425.209 195.827 425.126 194.812 425.049 193.796C424.672 189.139 424.532 184.465 424.628 179.793C424.628 179.361 424.431 179.314 424.109 179.226C420.231 178.172 416.683 176.15 413.795 173.349C413.562 173.114 413.333 172.87 413.011 172.536C413.759 176.935 414.704 181.386 415.665 185.587C415.244 185.707 414.803 185.774 414.382 185.899C413.437 181.839 412.523 177.628 411.827 173.286C410.859 177.88 410.196 182.534 409.844 187.216L408.556 187.451C408.711 184.611 409.009 181.781 409.449 178.971C409.62 177.753 409.854 176.54 410.051 175.327C410.059 175.209 410.059 175.091 410.051 174.973C409.945 175.013 409.843 175.062 409.745 175.118C405.533 178.065 401.436 178.023 397.225 174.988C397.152 174.931 397.069 174.884 396.991 174.832C396.954 174.937 396.93 175.045 396.918 175.155C396.942 178.286 397.134 181.414 397.495 184.525C397.923 188.705 398.64 192.85 399.639 196.93C399.681 197.086 399.78 197.362 399.484 197.315C399.068 197.243 398.445 197.758 398.263 196.946C397.879 195.134 397.464 193.333 397.147 191.511C396.112 185.856 395.59 180.118 395.589 174.369C395.589 174.296 395.589 174.223 395.558 173.958C394.874 175.809 394.296 177.698 393.828 179.616C392.409 185.29 391.753 191.129 391.876 196.977C391.876 197.878 391.305 197.555 390.894 197.623C390.318 197.716 390.495 197.269 390.495 196.993C390.383 189.328 391.557 181.7 393.969 174.426C394.007 174.27 394.037 174.112 394.057 173.952C392.479 175.719 390.346 176.892 388.012 177.279C386.052 177.712 384.004 177.466 382.201 176.581C379.319 175.118 378.566 172.047 380.358 169.371C380.706 168.785 381.167 168.274 381.713 167.867C382.331 167.461 382.321 167.039 382.155 166.389C380.924 161.516 378.649 157.143 375.985 152.937C375.778 152.609 375.612 152.547 375.238 152.713C373.977 153.343 372.447 152.945 371.649 151.781C371.603 151.459 371.525 151.308 371.649 151.063C372.688 149.559 375.212 149.402 376.157 150.803C379.356 155.566 382.087 160.553 383.458 166.186C383.536 166.493 383.604 166.571 383.92 166.409C384.384 166.183 384.865 165.995 385.359 165.847C385.961 165.66 386.74 165.681 387.14 165.295C387.54 164.91 387.218 164.082 387.332 163.463C387.332 163.463 387.332 163.421 387.332 163.4C387.462 159.465 386.989 155.649 385.078 152.12C384.886 151.766 384.798 151.599 384.341 151.912C383.823 152.277 383.179 152.416 382.558 152.297C381.936 152.177 381.389 151.809 381.043 151.276C380.524 150.293 380.991 149.371 382.362 148.767C382.362 148.767 382.362 148.736 382.394 148.72C382.787 148.622 383.199 148.622 383.593 148.72C384.725 149.059 385.338 149.949 385.899 150.902C388.319 154.988 388.885 159.465 388.641 164.103C388.578 165.28 388.537 165.259 389.679 165.347C390.958 165.42 392.194 165.831 393.262 166.54C393.553 166.737 393.6 166.716 393.652 166.357C394.285 161.912 396.69 158.918 401.026 157.695C404.173 156.805 407.086 157.497 409.698 159.465C409.87 159.595 410.03 159.923 410.217 159.429C411.895 155.311 415.073 152.75 419.009 151.016C421.327 149.953 423.822 149.329 426.368 149.179C426.617 149.179 427.609 148.96 427.858 148.923C428.192 149.167 428.539 149.393 428.896 149.6C431.252 151.366 433.181 153.639 434.541 156.253C436.265 159.335 436.733 163.213 436.198 166.722C435.429 171.704 433.601 174.707 429.899 177.924C429.556 178.221 429.037 178.7 428.694 178.997C429.073 179.273 428.72 178.971 429.146 179.07C429.572 179.168 429.073 179.398 429.603 178.991C431.742 177.336 433.388 175.176 434.946 172.958C437.636 169.116 438.171 167.232 437.153 162.547C436.198 158.101 434.313 153.796 430.922 150.886C430.301 150.291 429.742 149.633 429.255 148.923Z" fill="#424251"/>
    <path d="M438.887 150.533C443.369 152.245 447.949 155.249 450.395 159.481C453.086 163.914 452.563 169.59 449.107 173.453C445.929 177.175 441.209 179.18 436.488 180.018C436.569 179.624 436.748 179.257 437.008 178.951C439.651 176.868 441.609 173.932 443.239 170.939C445.187 167.378 445.446 165.499 444.47 161.512C443.665 158.242 442.247 154.859 439.947 152.428C439.484 151.864 439.126 151.222 438.887 150.533V150.533Z" fill="#424251"/>
    <path d="M430.145 148.976C430.599 149.518 431.123 149.996 431.703 150.397C435.068 153.307 437.613 156.727 438.574 161.173C439.612 165.884 438.298 170.075 435.614 173.917C434.023 176.088 432.113 178.005 429.948 179.601C429.429 180.007 429.013 179.731 428.562 179.627C428.117 179.607 427.681 179.492 427.284 179.289L428.323 178.404C432.025 175.187 434.809 171.387 435.593 166.405C436.094 162.983 435.41 159.492 433.656 156.514C432.057 153.725 429.904 151.294 427.331 149.372C427.243 149.309 427.211 149.179 427.154 149.08C428.141 148.899 429.149 148.863 430.145 148.976Z" fill="#5D5D69"/>
    <path d="M439.707 150.897C439.915 151.496 440.465 151.798 440.87 152.225C443.191 154.575 444.85 157.499 445.679 160.699C446.655 164.682 445.934 168.425 443.986 171.98C442.345 174.979 439.988 177.311 437.344 179.398C437.183 179.523 437.002 179.622 437.007 179.862C435.753 180.159 434.468 180.304 433.18 180.294C433.792 179.534 434.654 179.06 435.387 178.44C438.944 175.411 441.649 171.824 442.61 167.16C443.363 163.473 442.705 159.638 440.767 156.415C439.333 153.88 437.414 151.653 435.122 149.861C435.033 149.76 434.962 149.644 434.914 149.518C436.57 149.741 438.185 150.206 439.707 150.897Z" fill="#5D5D69"/>
    <path d="M416.149 187.352C417.011 190.428 418.024 193.754 419.151 196.721C419.275 197.049 419.151 197.091 418.855 197.122C418.563 197.201 418.251 197.152 417.998 196.987C417.744 196.823 417.572 196.557 417.525 196.258C416.632 193.421 415.557 190.459 414.861 187.565C415.303 187.549 415.713 187.393 416.149 187.352Z" fill="#424251"/>
    <path d="M409.861 187.3C409.954 189.903 409.549 193.698 409.565 196.79C409.565 197.456 409.045 197.086 408.77 197.149C408.495 197.211 408.168 197.248 408.188 196.748C408.282 194.255 408.349 191.761 408.433 189.268C408.414 188.662 408.461 188.057 408.573 187.461C409.025 187.43 409.409 187.357 409.861 187.3Z" fill="#424251"/>
    <path d="M414.355 185.707L415.617 185.342L415.867 186.306C415.51 186.559 415.088 186.703 414.651 186.718L414.355 185.707Z" fill="#5D5D69"/>
    <path d="M414.656 186.717C414.963 186.295 415.43 186.331 415.871 186.305C415.929 186.524 416.017 186.904 416.074 187.128C415.724 187.38 415.292 187.49 414.864 187.436L414.656 186.717Z" fill="#424251"/>
    <path d="M409.883 187.54L408.527 187.675L408.605 187.154L409.893 186.909L409.883 187.54Z" fill="#5D5D69"/>
    <path d="M414.815 187.269C415.248 187.324 415.686 187.219 416.046 186.972C416.179 187.162 416.245 187.391 416.233 187.623L414.935 187.748C414.784 187.618 414.815 187.435 414.815 187.269Z" fill="#5D5D69"/>
    <path d="M387.354 168.954C387.92 169.001 388.123 169.392 388.143 169.881C388.177 170.093 388.116 170.309 387.977 170.472C387.838 170.636 387.635 170.73 387.421 170.73C386.861 170.73 386.653 170.298 386.622 169.803C386.594 169.591 386.657 169.376 386.797 169.214C386.937 169.051 387.14 168.957 387.354 168.954V168.954Z" fill="#030304"/>
    <path d="M384.437 170.053C384.385 170.512 384.224 170.908 383.694 170.892C383.481 170.895 383.276 170.812 383.125 170.66C382.975 170.509 382.891 170.304 382.894 170.09C382.869 169.886 382.932 169.681 383.069 169.528C383.205 169.375 383.401 169.289 383.606 169.292C383.818 169.277 384.027 169.349 384.184 169.493C384.342 169.637 384.433 169.84 384.437 170.053Z" fill="#030304"/>
    <path d="M244.201 150.038C284.963 150.038 318.008 116.659 318.008 75.4835C318.008 34.3082 284.963 0.929077 244.201 0.929077C203.439 0.929077 170.395 34.3082 170.395 75.4835C170.395 116.659 203.439 150.038 244.201 150.038Z" fill="url(#paint0_linear)"/>
    <path d="M214.512 47.5752C217.17 47.5752 219.325 45.3987 219.325 42.7138C219.325 40.0288 217.17 37.8523 214.512 37.8523C211.854 37.8523 209.699 40.0288 209.699 42.7138C209.699 45.3987 211.854 47.5752 214.512 47.5752Z" fill="white"/>
    <path d="M199.318 44.6962C201.187 44.6962 202.702 43.1657 202.702 41.2777C202.702 39.3898 201.187 37.8593 199.318 37.8593C197.449 37.8593 195.934 39.3898 195.934 41.2777C195.934 43.1657 197.449 44.6962 199.318 44.6962Z" fill="white"/>
    <path d="M247.965 113.402C267.206 111.09 281.528 94.3405 280.994 74.7748C280.461 55.209 265.247 39.2818 245.909 38.0436C243.49 37.887 241.062 37.9727 238.661 38.2992C235.512 38.6027 232.427 39.391 229.515 40.6369C226.125 42.2982 223.943 45.1098 223.943 48.8532C223.954 53.7214 227.858 57.6649 232.677 57.6767C233.5 57.6767 236.288 56.7821 236.953 56.5584C239.49 55.6685 242.18 55.3063 244.86 55.4934C254.339 56.0915 262.125 63.2786 263.567 72.7609C265.009 82.2431 259.717 91.4595 250.853 94.9037C241.989 98.3479 231.947 95.0896 226.726 87.0756C222.704 81.7507 223.621 73.2308 223.621 73.1083C223.466 68.7445 220.18 65.1486 215.886 64.6444C211.592 64.1401 207.577 66.8786 206.436 71.0902C206.259 72.1456 206.174 73.2147 206.183 74.2851C205.343 94.8379 220.925 112.297 241.249 113.578C243.486 113.749 245.733 113.695 247.96 113.418" fill="white"/>
    <path d="M208.279 61.7711C211.723 61.7711 214.515 58.9509 214.515 55.472C214.515 51.9931 211.723 49.1729 208.279 49.1729C204.835 49.1729 202.043 51.9931 202.043 55.472C202.043 58.9509 204.835 61.7711 208.279 61.7711Z" fill="white"/>
    <path d="M61.1099 156.96C85.2219 156.96 104.769 137.215 104.769 112.859C104.769 88.5027 85.2219 68.7579 61.1099 68.7579C36.9978 68.7579 17.4512 88.5027 17.4512 112.859C17.4512 137.215 36.9978 156.96 61.1099 156.96Z" fill="url(#paint1_linear)"/>
    <path d="M43.5439 96.3502C45.116 96.3502 46.3905 95.0628 46.3905 93.4748C46.3905 91.8868 45.116 90.5995 43.5439 90.5995C41.9717 90.5995 40.6973 91.8868 40.6973 93.4748C40.6973 95.0628 41.9717 96.3502 43.5439 96.3502Z" fill="white"/>
    <path d="M34.554 94.6476C35.6603 94.6476 36.5572 93.7417 36.5572 92.6242C36.5572 91.5067 35.6603 90.6008 34.554 90.6008C33.4476 90.6008 32.5508 91.5067 32.5508 92.6242C32.5508 93.7417 33.4476 94.6476 34.554 94.6476Z" fill="white"/>
    <path d="M63.3355 135.286C74.8258 134.051 83.4436 124.098 83.1249 112.43C82.8061 100.762 73.658 91.3044 62.1178 90.7113C60.6879 90.6187 59.2523 90.6686 57.8321 90.8604C55.9699 91.0406 54.1459 91.5075 52.4235 92.2449C50.4203 93.2247 49.1288 94.9074 49.1288 97.1013C49.1317 99.983 51.4421 102.319 54.2949 102.325C55.1541 102.178 55.999 101.955 56.8199 101.659C60.6 100.338 64.7835 101.012 67.9692 103.456C71.1548 105.899 72.9212 109.789 72.6767 113.822C72.3423 118.997 68.7731 123.378 63.8099 124.705C58.8468 126.032 53.599 124.009 50.7735 119.679C48.3961 116.516 48.939 111.489 48.939 111.415C48.8598 108.826 46.9142 106.686 44.3669 106.387C41.8197 106.088 39.4403 107.72 38.7755 110.222C38.669 110.846 38.6179 111.479 38.6227 112.112C38.1261 124.27 47.3433 134.598 59.3661 135.356C60.6892 135.454 62.0186 135.422 63.3355 135.26" fill="white"/>
    <path d="M39.8619 104.748C41.8999 104.748 43.552 103.079 43.552 101.021C43.552 98.9621 41.8999 97.2933 39.8619 97.2933C37.824 97.2933 36.1719 98.9621 36.1719 101.021C36.1719 103.079 37.824 104.748 39.8619 104.748Z" fill="white"/>
    <path d="M145.863 153.765C159.447 153.765 170.459 142.641 170.459 128.919C170.459 115.197 159.447 104.073 145.863 104.073C132.278 104.073 121.266 115.197 121.266 128.919C121.266 142.641 132.278 153.765 145.863 153.765Z" fill="url(#paint2_linear)"/>
    <path d="M135.964 119.616C136.849 119.616 137.566 118.891 137.566 117.997C137.566 117.103 136.849 116.378 135.964 116.378C135.079 116.378 134.361 117.103 134.361 117.997C134.361 118.891 135.079 119.616 135.964 119.616Z" fill="white"/>
    <path d="M130.907 118.658C131.53 118.658 132.036 118.147 132.036 117.518C132.036 116.889 131.53 116.379 130.907 116.379C130.284 116.379 129.779 116.889 129.779 117.518C129.779 118.147 130.284 118.658 130.907 118.658Z" fill="white"/>
    <path d="M147.114 141.555C153.518 140.775 158.281 135.197 158.103 128.683C157.925 122.169 152.866 116.864 146.429 116.442C145.623 116.39 144.814 116.419 144.014 116.528C142.964 116.627 141.934 116.889 140.962 117.305C139.856 117.758 139.125 118.836 139.107 120.042C139.107 121.666 140.409 122.984 142.017 122.987C142.502 122.904 142.98 122.779 143.445 122.614C144.291 122.315 145.187 122.192 146.081 122.252C149.24 122.452 151.834 124.848 152.313 128.008C152.793 131.168 151.028 134.239 148.074 135.386C145.119 136.533 141.773 135.445 140.034 132.774C138.695 130.995 138.98 128.163 138.98 128.12C138.928 126.666 137.833 125.469 136.403 125.302C134.973 125.134 133.636 126.046 133.255 127.449C133.196 127.801 133.168 128.157 133.171 128.514C132.891 135.364 138.084 141.182 144.858 141.608C145.603 141.665 146.352 141.647 147.093 141.555" fill="white"/>
    <path d="M133.893 124.35C135.04 124.35 135.97 123.41 135.97 122.252C135.97 121.093 135.04 120.154 133.893 120.154C132.746 120.154 131.816 121.093 131.816 122.252C131.816 123.41 132.746 124.35 133.893 124.35Z" fill="white"/>
    <path d="M411.114 156.348C425.802 156.348 437.709 144.32 437.709 129.484C437.709 114.647 425.802 102.619 411.114 102.619C396.426 102.619 384.52 114.647 384.52 129.484C384.52 144.32 396.426 156.348 411.114 156.348Z" fill="url(#paint3_linear)"/>
    <path d="M400.414 119.424C401.372 119.424 402.148 118.64 402.148 117.672C402.148 116.705 401.372 115.92 400.414 115.92C399.456 115.92 398.68 116.705 398.68 117.672C398.68 118.64 399.456 119.424 400.414 119.424Z" fill="white"/>
    <path d="M394.946 118.391C395.621 118.391 396.169 117.838 396.169 117.156C396.169 116.474 395.621 115.921 394.946 115.921C394.27 115.921 393.723 116.474 393.723 117.156C393.723 117.838 394.27 118.391 394.946 118.391Z" fill="white"/>
    <path d="M412.467 143.147C417.298 142.595 421.461 139.462 423.368 134.945C425.275 130.428 424.63 125.224 421.68 121.321C418.73 117.418 413.931 115.418 409.115 116.086C407.98 116.193 406.869 116.477 405.82 116.927C404.622 117.415 403.83 118.582 403.812 119.888C403.812 121.652 405.228 123.082 406.974 123.082C407.498 122.992 408.013 122.857 408.514 122.678C412.091 121.422 416.025 123.147 417.559 126.645C419.094 130.143 417.717 134.245 414.392 136.078C411.068 137.912 406.907 136.864 404.824 133.668C403.379 131.746 403.706 128.679 403.706 128.636C403.648 127.069 402.471 125.776 400.93 125.585C399.388 125.394 397.938 126.362 397.507 127.87C397.442 128.251 397.41 128.638 397.412 129.025C397.111 136.436 402.734 142.729 410.064 143.184C410.87 143.245 411.68 143.225 412.483 143.126" fill="white"/>
    <path d="M398.164 124.541C399.404 124.541 400.409 123.525 400.409 122.272C400.409 121.019 399.404 120.004 398.164 120.004C396.923 120.004 395.918 121.019 395.918 122.272C395.918 123.525 396.923 124.541 398.164 124.541Z" fill="white"/>
    <path d="M326.005 153.685C333.245 153.685 339.115 147.756 339.115 140.442C339.115 133.128 333.245 127.199 326.005 127.199C318.764 127.199 312.895 133.128 312.895 140.442C312.895 147.756 318.764 153.685 326.005 153.685Z" fill="url(#paint4_linear)"/>
    <path d="M320.731 135.485C321.203 135.485 321.585 135.099 321.585 134.622C321.585 134.145 321.203 133.759 320.731 133.759C320.259 133.759 319.877 134.145 319.877 134.622C319.877 135.099 320.259 135.485 320.731 135.485Z" fill="white"/>
    <path d="M318.031 134.975C318.363 134.975 318.632 134.703 318.632 134.368C318.632 134.032 318.363 133.76 318.031 133.76C317.699 133.76 317.43 134.032 317.43 134.368C317.43 134.703 317.699 134.975 318.031 134.975Z" fill="white"/>
    <path d="M326.672 147.178C330.083 146.759 332.618 143.787 332.524 140.317C332.43 136.848 329.737 134.021 326.309 133.791C325.878 133.764 325.445 133.78 325.017 133.839C324.458 133.893 323.911 134.034 323.394 134.255C322.802 134.495 322.412 135.07 322.403 135.714C322.419 136.573 323.107 137.265 323.958 137.279C324.215 137.233 324.469 137.168 324.717 137.082C325.166 136.921 325.643 136.856 326.119 136.89C327.342 136.967 328.442 137.67 329.034 138.754C329.369 139.357 329.523 140.045 329.477 140.735C329.377 142.289 328.306 143.606 326.815 144.005C325.324 144.405 323.747 143.798 322.898 142.497C322.186 141.549 322.371 140.043 322.371 140.016C322.34 139.243 321.757 138.608 320.996 138.519C320.235 138.43 319.524 138.914 319.319 139.659C319.285 139.847 319.269 140.038 319.271 140.229C319.124 143.88 321.892 146.981 325.502 147.21C325.899 147.239 326.298 147.228 326.694 147.178" fill="white"/>
    <path d="M319.613 138.009C320.224 138.009 320.72 137.509 320.72 136.891C320.72 136.274 320.224 135.773 319.613 135.773C319.001 135.773 318.506 136.274 318.506 136.891C318.506 137.509 319.001 138.009 319.613 138.009Z" fill="white"/>
    <defs>
    <linearGradient id="paint0_linear" x1="170.395" y1="0.929077" x2="170.395" y2="150.038" gradientUnits="userSpaceOnUse">
    <stop stop-color="#8C61E1"/>
    <stop offset="1" stop-color="#5F45BA"/>
    </linearGradient>
    <linearGradient id="paint1_linear" x1="17.4512" y1="68.7579" x2="17.4512" y2="156.96" gradientUnits="userSpaceOnUse">
    <stop stop-color="#8C61E1"/>
    <stop offset="1" stop-color="#5F45BA"/>
    </linearGradient>
    <linearGradient id="paint2_linear" x1="121.266" y1="104.073" x2="121.266" y2="153.765" gradientUnits="userSpaceOnUse">
    <stop stop-color="#8C61E1"/>
    <stop offset="1" stop-color="#5F45BA"/>
    </linearGradient>
    <linearGradient id="paint3_linear" x1="384.52" y1="102.619" x2="384.52" y2="156.348" gradientUnits="userSpaceOnUse">
    <stop stop-color="#8C61E1"/>
    <stop offset="1" stop-color="#5F45BA"/>
    </linearGradient>
    <linearGradient id="paint4_linear" x1="312.895" y1="127.199" x2="312.895" y2="153.685" gradientUnits="userSpaceOnUse">
    <stop stop-color="#8C61E1"/>
    <stop offset="1" stop-color="#5F45BA"/>
    </linearGradient>
    </defs>
    </svg>
