<svg width="180" height="132" viewBox="0 0 180 132" fill="none" xmlns="http://www.w3.org/2000/svg">
<g clip-path="url(#clip0)">
<path d="M52.2992 0H44.1992V131.5H52.2992V0Z" fill="#B80000"/>
<path d="M11.0998 47.9001C11.1998 39.6001 25.5998 39.3 25.5998 47.5L25.6998 54.6H36.6998V48C37.3998 26 -0.300172 26 -0.000172082 47.5V85.4001C-0.300172 106.9 37.4998 107.4 36.7998 85.4001V77.5H25.5998V86C25.5998 94.2 11.2998 94.4 11.0998 86V47.5V47.9001Z" fill="#B80000"/>
<path d="M73.7996 39.3C73.7996 39.3 75.6996 36.5 80.6996 33.7C87.0996 30.2 93.2996 33.7 92.3996 33.3C97.3996 35.5 99.2996 40.9 99.6996 46.9V91.8H106.8V100H88.5996V46.4C88.5996 38.6 75.3996 38.8 75.2996 46.8V46.4V100H58.9996V91.8H64.1996V41.5L58.0996 41.4V33.2H73.7996V39.3Z" fill="#B80000"/>
<path d="M156.1 85.2C156.5 91.2 158.4 96.6 163.4 98.8C162.5 98.4 165.9 100.1 169.3 100C171.1 100 180 100 180 100V91.8C180 91.8 175.5 91.7 173.1 91.8C170.1 91.8 167.5 90.4 167.3 86.1V41.6V41.5H178V33.4H167.3V33.3V16H156.1V85.2Z" fill="#B80000"/>
<path d="M135.901 77.4001V85.9001C135.901 94.1001 121.501 94.3001 121.401 85.9001V68.2H145.001C146.101 68.2 147.001 67.3 147.001 66.2V48C147.701 26 110.001 26 110.301 47.5V85.4001C110.001 106.9 147.801 107.4 147.101 85.4001V77.5H135.901V77.4001ZM121.401 47.4001C121.601 39.2001 135.901 39.2 135.901 47.5V59.9001H121.501V47.4001H121.401Z" fill="#B80000"/>
</g>
<defs>
<clipPath id="clip0">
<rect width="180" height="131.5" fill="white"/>
</clipPath>
</defs>
</svg>