<svg width="304" height="72" viewBox="0 0 304 72" fill="none" xmlns="http://www.w3.org/2000/svg">
	<path d="M43.8139 51.881L31.2174 57.4002V56.8483C28.789 57.4746 26.0975 57.8361 23.5499 57.9522C11.703 57.8361 2.29972 51.5877 2.19069 44.154V41.3944C6.08147 47.0951 14.0027 50.9164 23.5499 50.7771C26.7789 50.9164 30.0837 50.4 32.8604 49.6733L33.9557 46.9137C30.6629 47.9041 27.0685 48.5926 23.5499 48.5694C11.703 48.5926 2.29972 42.3443 2.19069 34.7713V32.5636C6.08147 37.8344 13.9857 41.6558 23.5499 41.3944C27.8521 41.6558 32.0597 40.7435 35.5988 39.1867L36.1464 36.4271C32.69 38.2648 28.2099 39.332 23.5499 39.1867C11.703 39.332 2.29972 33.0836 2.19069 25.3886V23.1809C6.08147 28.5738 14.0027 32.3951 23.5499 32.5636C28.9764 32.3951 34.121 30.9492 38.3371 28.7001L38.8848 25.3886C35.0579 28.2467 29.4704 30.0885 23.5499 30.3559C11.703 30.0885 2.29972 23.8402 2.19069 16.0058C2.29972 8.55492 11.703 2.30656 23.5499 2.2077C30.6118 2.30656 37.1702 4.80246 41.0755 8.83081L41.4558 9.46961L44.2174 9.4806L43.8139 8.83081C39.9299 3.51148 32.162 0 23.5499 0C10.4424 0 0 7.28115 0 16.0058V16.5578V44.706C0.459943 53.223 10.6639 60.1599 23.5499 60.1599C32.0597 60.1599 39.7084 56.7861 43.8139 51.881Z" fill="#253137" />
	<path fill-rule="evenodd" clip-rule="evenodd" d="M43.1119 52.3614L38.6902 71.3006L69.0897 26.7377L51.9554 33.9792L55.2717 25.0666H70.7478L74.6169 8.9126H27.0831L23.2141 25.0666H38.1375L30.3994 57.9318L43.1119 52.3614ZM62.4569 31.7505L44.2172 59.6023L46.4281 48.4615L33.7156 54.0319L40.9009 22.8379H25.9775L28.7411 11.1401H71.8531L69.0895 22.8379H54.1661L47.5335 38.4349L62.4569 31.7505Z" fill="#FABF2C" />
	<path fill-rule="evenodd" clip-rule="evenodd" d="M125.547 18.0309C125.547 20.0159 124.907 21.6523 123.626 22.94C122.346 24.2277 120.679 24.8716 118.626 24.8716C116.58 24.8716 114.921 24.2259 113.648 22.9345C112.375 21.6431 111.739 20.0085 111.739 18.0309V15.1308C111.739 13.1604 112.373 11.5278 113.642 10.2327C114.911 8.93758 116.565 8.29004 118.603 8.29004C120.656 8.29004 122.327 8.93758 123.615 10.2327C124.903 11.5278 125.547 13.1604 125.547 15.1308V18.0309ZM107.323 19.3042L107.346 19.3706C107.376 21.09 106.838 22.4367 105.732 23.4108C104.626 24.3849 103.099 24.8719 101.152 24.8719C99.1667 24.8719 97.5642 24.2502 96.3444 23.0068C95.1246 21.7633 94.5146 20.1565 94.5146 18.1862V14.9872C94.5146 13.0243 95.1094 11.4174 96.2989 10.1666C97.4885 8.91579 99.0492 8.29039 100.981 8.29039C102.997 8.29039 104.573 8.77005 105.709 9.72938C106.846 10.6887 107.399 12.0391 107.368 13.7807L107.346 13.8471H104.118C104.118 12.814 103.862 12.0447 103.351 11.5392C102.839 11.0337 102.05 10.7809 100.981 10.7809C99.9887 10.7809 99.214 11.1702 98.6571 11.9487C98.1003 12.7273 97.8218 13.7327 97.8218 14.9651V18.1862C97.8218 19.4259 98.1154 20.4369 98.7026 21.2191C99.2898 22.0013 100.106 22.3924 101.152 22.3924C102.144 22.3924 102.885 22.1397 103.374 21.6342C103.862 21.1287 104.107 20.352 104.107 19.3042H107.323ZM121.273 12.021C121.917 12.8253 122.239 13.8548 122.239 15.1093V18.0315C122.239 19.3082 121.921 20.3486 121.285 21.153C120.648 21.9574 119.762 22.3595 118.625 22.3595C117.496 22.3595 116.618 21.9574 115.989 21.153C115.36 20.3486 115.045 19.3082 115.045 18.0315V15.1093C115.045 13.8548 115.358 12.8253 115.983 12.021C116.608 11.2166 117.481 10.8145 118.603 10.8145C119.739 10.8145 120.629 11.2166 121.273 12.021ZM134.156 24.639H130.837V8.52239H134.156V24.639ZM149.937 24.639H153.256V8.52239H149.937V19.3701L149.869 19.3812L143.198 8.52239H139.879V24.639H143.198V13.7802L143.266 13.7692L149.937 24.639ZM169.945 11.0129H165.217V24.639H161.899V11.0129H157.239V8.52239H169.945V11.0129ZM177.521 17.5548H183.658V15.0642H177.521V11.0129H184.794V8.52239H174.202V24.639H184.817V22.1595H177.521V17.5548ZM192.904 22.1595H200.314V24.639H189.585V8.52239H192.904V22.1595ZM208.275 17.5548H214.412V15.0642H208.275V11.0129H215.549V8.52239H204.957V24.639H215.572V22.1595H208.275V17.5548ZM233.023 22.4364C232.508 23.0931 231.739 23.6632 230.716 24.1465C229.693 24.6299 228.375 24.8716 226.761 24.8716C224.761 24.8716 223.124 24.2591 221.851 23.0341C220.578 21.8091 219.942 20.2189 219.942 18.2633V14.8983C219.942 12.9501 220.559 11.3617 221.794 10.133C223.029 8.90437 224.617 8.29004 226.556 8.29004C228.579 8.29004 230.129 8.75678 231.205 9.69028C232.28 10.6238 232.799 11.869 232.762 13.4261L232.739 13.4925H229.613C229.613 12.6365 229.36 11.9705 228.852 11.4945C228.344 11.0186 227.606 10.7806 226.636 10.7806C225.621 10.7806 224.802 11.1625 224.181 11.9262C223.56 12.69 223.249 13.6733 223.249 14.8762V18.2633C223.249 19.4809 223.567 20.4734 224.204 21.2409C224.84 22.0084 225.693 22.3921 226.761 22.3921C227.549 22.3921 228.172 22.3146 228.63 22.1596C229.089 22.0047 229.443 21.8091 229.693 21.573V18.4515H226.511V16.2155H233.023V22.4364ZM241.598 24.639V18.1968H244.235C245.06 18.1968 245.699 18.42 246.15 18.8665C246.6 19.3129 246.826 19.9383 246.826 20.7427V21.8828C246.826 22.392 246.869 22.9196 246.956 23.4657C247.044 24.0118 247.239 24.4029 247.542 24.639H250.963V24.4066C250.66 24.1704 250.446 23.807 250.32 23.3163C250.195 22.8255 250.133 22.3551 250.133 21.905V20.7206C250.133 19.7538 249.919 18.9421 249.491 18.2854C249.063 17.6286 248.36 17.16 247.383 16.8796C248.246 16.5106 248.904 16.0254 249.354 15.424C249.805 14.8226 250.031 14.1086 250.031 13.2821C250.031 11.7841 249.498 10.6163 248.434 9.77874C247.369 8.94117 245.894 8.52239 244.007 8.52239H238.279V24.639H241.598ZM241.598 15.7065H243.951C244.883 15.7065 245.576 15.5146 246.03 15.1309C246.485 14.7472 246.712 14.179 246.712 13.4262C246.712 12.6883 246.483 12.1016 246.025 11.6663C245.566 11.2309 244.894 11.0132 244.007 11.0132H241.598V15.7065ZM258.811 21.1633H264.175L265.3 24.639H268.766L263.209 8.52239H259.811L254.231 24.639H257.697L258.811 21.1633ZM259.629 18.6291H263.368L261.538 12.9507H261.47L259.629 18.6291ZM276.115 24.639V18.7945H279.126C281.028 18.7945 282.524 18.3259 283.615 17.3888C284.706 16.4516 285.252 15.2118 285.252 13.6695C285.252 12.1272 284.706 10.8838 283.615 9.93924C282.524 8.99467 281.028 8.52239 279.126 8.52239H272.796V24.639H276.115ZM276.115 16.3042H279.126C280.051 16.3042 280.752 16.0589 281.229 15.5681C281.706 15.0774 281.945 14.452 281.945 13.6919C281.945 12.9171 281.708 12.2769 281.235 11.7714C280.761 11.2659 280.058 11.0132 279.126 11.0132H276.115V16.3042ZM300.123 24.639H303.442V8.52239H300.123V15.4517H293.384V8.52239H290.065V24.639H293.384V17.9422H300.123V24.639Z" fill="#253137" />
	<path fill-rule="evenodd" clip-rule="evenodd" d="M203.938 44.3124H201.508V53.2804H199.385V44.3124H197.747V43.2494L199.385 42.5536V41.8578C199.385 40.595 199.661 39.6593 200.213 39.0504C200.764 38.4416 201.607 38.1372 202.741 38.1372C203.485 38.1372 204.216 38.2693 204.936 38.5334L204.378 40.2536C203.857 40.0732 203.359 39.983 202.885 39.983C202.405 39.983 202.056 40.1425 201.837 40.4614C201.618 40.7803 201.508 41.2586 201.508 41.8964V42.5922H203.938V44.3124ZM112.675 53.281H110.552V46.7096C110.552 45.8849 110.397 45.2697 110.089 44.8638C109.78 44.4579 109.289 44.255 108.617 44.255C107.73 44.255 107.077 44.54 106.66 45.1102C106.244 45.6804 106.035 46.6355 106.035 47.9755V53.281H103.921V38.2441H106.035V42.0613C106.035 42.6733 105.999 43.3272 105.927 44.023H106.062C106.35 43.5076 106.75 43.1082 107.263 42.8247C107.776 42.5412 108.374 42.3995 109.058 42.3995C111.47 42.3995 112.675 43.7041 112.675 46.3134V53.281ZM98.8755 53.2805H96.7251V41.1331H92.8562V39.152H102.744V41.1331H98.8755V53.2805ZM115.719 52.0198C116.591 52.9894 117.801 53.4742 119.349 53.4742C120.027 53.4742 120.63 53.4194 121.157 53.3099C121.685 53.2004 122.207 53.0135 122.723 52.7494V50.9036C122.141 51.1806 121.597 51.3787 121.09 51.4979C120.583 51.6171 120.036 51.6767 119.448 51.6767C118.554 51.6767 117.861 51.3981 117.37 50.8408C116.878 50.2835 116.617 49.4862 116.587 48.449H123.218V47.2217C123.218 45.7206 122.837 44.5416 122.075 43.6847C121.313 42.8279 120.276 42.3994 118.962 42.3994C117.546 42.3994 116.434 42.8987 115.624 43.8973C114.814 44.8959 114.409 46.2682 114.409 48.0141C114.409 49.715 114.846 51.0502 115.719 52.0198ZM118.962 44.1192C118.29 44.1192 117.752 44.3479 117.347 44.8053C116.942 45.2627 116.701 45.9295 116.623 46.8057H121.139C121.127 45.9231 120.93 45.2547 120.546 44.8005C120.162 44.3463 119.634 44.1192 118.962 44.1192ZM129.403 53.2805H131.536V47.4822H136.494V45.5204H131.536V41.1041H136.826V39.152H129.403V53.2805ZM145.39 53.2805L145.093 51.8792H144.985C144.691 52.3753 144.273 52.7651 143.73 53.0486C143.187 53.332 142.567 53.4738 141.872 53.4738C140.666 53.4738 139.766 53.1517 139.172 52.5074C138.579 51.8631 138.282 50.8871 138.282 49.5793V42.5923H140.414V49.183C140.414 50.0012 140.57 50.6149 140.882 51.024C141.194 51.4331 141.683 51.6377 142.349 51.6377C143.236 51.6377 143.889 51.3526 144.306 50.7824C144.722 50.2122 144.931 49.2571 144.931 47.9171V42.5923H147.054V53.2805H145.39ZM154.709 51.3771C154.193 51.551 153.677 51.638 153.161 51.638C152.747 51.638 152.413 51.5075 152.158 51.2466C151.903 50.9857 151.775 50.5814 151.775 50.0338V44.3128H154.61V42.5927H151.775V40.2153H150.471L149.751 42.4767L148.293 43.3078V44.3128H149.652V50.0725C149.652 52.3403 150.654 53.4741 152.657 53.4741C153.053 53.4741 153.435 53.4371 153.804 53.363C154.173 53.2889 154.475 53.1971 154.709 53.0876V51.3771ZM163.101 53.2805L162.804 51.8792H162.696C162.402 52.3753 161.984 52.7651 161.441 53.0486C160.898 53.332 160.279 53.4738 159.583 53.4738C158.377 53.4738 157.478 53.1517 156.884 52.5074C156.29 51.8631 155.993 50.8871 155.993 49.5793V42.5923H158.126V49.183C158.126 50.0012 158.281 50.6149 158.593 51.024C158.905 51.4331 159.394 51.6377 160.06 51.6377C160.948 51.6377 161.6 51.3526 162.017 50.7824C162.434 50.2122 162.642 49.2571 162.642 47.9171V42.5923H164.766V53.2805H163.101ZM173.266 42.4961C172.99 42.4316 172.639 42.3994 172.213 42.3994C171.601 42.3994 171.03 42.5863 170.499 42.9599C169.968 43.3336 169.538 43.8393 169.208 44.4772H169.1L168.821 42.5927H167.165V53.2809H169.28V47.6952C169.28 46.7482 169.542 45.9783 170.067 45.3856C170.592 44.7928 171.277 44.4965 172.123 44.4965C172.447 44.4965 172.759 44.5351 173.059 44.6124L173.266 42.4961ZM178.473 53.4742C176.925 53.4742 175.715 52.9894 174.842 52.0198C173.97 51.0502 173.533 49.715 173.533 48.0141C173.533 46.2682 173.938 44.8959 174.748 43.8973C175.558 42.8987 176.67 42.3994 178.086 42.3994C179.4 42.3994 180.437 42.8279 181.199 43.6847C181.961 44.5416 182.342 45.7206 182.342 47.2217V48.449H175.711C175.741 49.4862 176.001 50.2835 176.493 50.8408C176.985 51.3981 177.678 51.6767 178.572 51.6767C179.16 51.6767 179.707 51.6171 180.214 51.4979C180.721 51.3787 181.265 51.1806 181.847 50.9036V52.7494C181.331 53.0135 180.809 53.2004 180.281 53.3099C179.753 53.4194 179.151 53.4742 178.473 53.4742ZM176.471 44.8053C176.876 44.3479 177.414 44.1192 178.086 44.1192C178.758 44.1192 179.286 44.3463 179.669 44.8005C180.053 45.2547 180.251 45.9231 180.263 46.8057H175.747C175.825 45.9295 176.066 45.2627 176.471 44.8053ZM197.129 47.9175C197.129 49.6634 196.712 51.026 195.878 52.0053C195.044 52.9846 193.883 53.4742 192.396 53.4742C191.466 53.4742 190.644 53.2487 189.931 52.7977C189.217 52.3467 188.668 51.6993 188.284 50.8553C187.9 50.0113 187.708 49.032 187.708 47.9175C187.708 46.1844 188.122 44.8315 188.95 43.8587C189.778 42.8858 190.944 42.3994 192.45 42.3994C193.889 42.3994 195.029 42.8971 195.869 43.8925C196.709 44.8879 197.129 46.2295 197.129 47.9175ZM192.432 51.6183C190.735 51.6183 189.886 50.3845 189.886 47.917C189.886 46.738 190.085 45.8328 190.484 45.2015C190.883 44.5701 191.526 44.2544 192.414 44.2544C194.106 44.2544 194.952 45.4753 194.952 47.917C194.952 50.3845 194.112 51.6183 192.432 51.6183ZM211.284 41.481L215.099 53.2805H216.997L220.947 41.5003H221.019C220.995 41.7387 220.967 42.4216 220.934 43.549C220.901 44.6765 220.884 45.5913 220.884 46.2935V53.2805H222.954V39.152H219.912L216.152 50.391H216.098L212.445 39.152H209.412V53.2805H211.365V46.4095C211.365 44.8762 211.314 43.2333 211.212 41.481H211.284ZM234.405 47.9175C234.405 49.6634 233.988 51.026 233.155 52.0053C232.321 52.9846 231.16 53.4742 229.673 53.4742C228.743 53.4742 227.921 53.2487 227.207 52.7977C226.493 52.3467 225.945 51.6993 225.561 50.8553C225.177 50.0113 224.985 49.032 224.985 47.9175C224.985 46.1844 225.399 44.8315 226.226 43.8587C227.054 42.8858 228.221 42.3994 229.726 42.3994C231.166 42.3994 232.306 42.8971 233.146 43.8925C233.985 44.8879 234.405 46.2295 234.405 47.9175ZM229.708 51.6183C228.011 51.6183 227.162 50.3845 227.162 47.917C227.162 46.738 227.361 45.8328 227.76 45.2015C228.159 44.5701 228.802 44.2544 229.69 44.2544C231.382 44.2544 232.227 45.4753 232.227 47.917C232.227 50.3845 231.388 51.6183 229.708 51.6183ZM244.975 53.2809H242.851V46.7095C242.851 45.8848 242.697 45.2696 242.388 44.8637C242.079 44.4578 241.589 44.2549 240.917 44.2549C240.023 44.2549 239.369 44.5384 238.955 45.1053C238.542 45.6723 238.335 46.6225 238.335 47.9561V53.2809H236.22V42.5927H237.876L238.173 43.994H238.281C238.581 43.485 239.006 43.092 239.558 42.815C240.11 42.5379 240.722 42.3994 241.394 42.3994C243.781 42.3994 244.975 43.704 244.975 46.3133V53.2809ZM248.018 52.0198C248.891 52.9894 250.101 53.4742 251.648 53.4742C252.326 53.4742 252.929 53.4194 253.457 53.3099C253.985 53.2004 254.507 53.0135 255.022 52.7494V50.9036C254.441 51.1806 253.896 51.3787 253.389 51.4979C252.882 51.6171 252.335 51.6767 251.747 51.6767C250.854 51.6767 250.161 51.3981 249.669 50.8408C249.177 50.2835 248.916 49.4862 248.886 48.449H255.517V47.2217C255.517 45.7206 255.136 44.5416 254.375 43.6847C253.613 42.8279 252.575 42.3994 251.261 42.3994C249.846 42.3994 248.733 42.8987 247.923 43.8973C247.114 44.8959 246.709 46.2682 246.709 48.0141C246.709 49.715 247.145 51.0502 248.018 52.0198ZM251.262 44.1192C250.59 44.1192 250.051 44.3479 249.647 44.8053C249.242 45.2627 249 45.9295 248.922 46.8057H253.439C253.427 45.9231 253.229 45.2547 252.845 44.8005C252.461 44.3463 251.933 44.1192 251.262 44.1192ZM257.728 42.5923H255.425L259.42 53.2805L259.051 54.2855C258.637 55.5547 257.92 56.1893 256.901 56.1893C256.493 56.1893 256.13 56.1507 255.812 56.0734V57.8708C256.256 57.9803 256.712 58.0351 257.18 58.0351C258.985 58.0351 260.275 56.9238 261.048 54.7011L265.304 42.5923H263.019C261.639 46.8895 260.877 49.2909 260.734 49.7967C260.59 50.3024 260.491 50.7325 260.437 51.0868H260.365C260.263 50.3266 260.059 49.5148 259.753 48.6515L257.728 42.5923Z" fill="#253137" />
</svg>
