<svg width="309" height="72" viewBox="0 0 309 72" fill="none" xmlns="http://www.w3.org/2000/svg">
<path d="M155.751 32.1699L164.699 18.9101H179.286L166.34 38.0667L179.692 58.1117H165.118L155.751 43.985V58.1117H143.651V1.97949H155.751V32.1699Z" fill="white"/>
<path d="M307.254 31.0997V58.1009H295.166V31.3886C295.166 28.6703 292.936 26.4443 290.214 26.4443C287.47 26.4443 285.252 28.6703 285.252 31.3886V58.1009H273.164V1.97949H285.252V20.1516C287.567 18.4285 290.429 17.4011 293.525 17.4011C301.114 17.3904 307.254 23.5227 307.254 31.0997Z" fill="white"/>
<path d="M124.82 18.9097V20.8468C121.541 18.7277 117.629 17.4863 113.428 17.4863C101.811 17.4863 92.3906 26.8934 92.3906 38.4944C92.3906 50.0954 101.811 59.5024 113.439 59.5024C117.64 59.5024 121.541 58.2611 124.831 56.142V58.1861H136.919V18.9097H124.82ZM115.196 48.7256C109.28 48.7256 104.479 43.931 104.479 38.0236C104.479 32.116 109.28 27.3215 115.196 27.3215C121.112 27.3215 125.913 32.116 125.913 38.0236C125.913 43.931 121.123 48.7256 115.196 48.7256Z" fill="white"/>
<path d="M212.119 18.9097V20.8468C208.839 18.7277 204.928 17.4863 200.727 17.4863C189.11 17.4863 179.689 26.8934 179.689 38.4944C179.689 50.0954 189.11 59.5024 200.727 59.5024C204.928 59.5024 208.829 58.2611 212.119 56.142V58.1861H224.207V18.9097H212.119ZM202.494 48.7256C196.58 48.7256 191.779 43.931 191.779 38.0236C191.779 32.116 196.58 27.3215 202.494 27.3215C208.411 27.3215 213.212 32.116 213.212 38.0236C213.212 43.931 208.411 48.7256 202.494 48.7256Z" fill="white"/>
<path d="M241.849 45.4192C241.903 46.2219 242.117 46.9068 242.481 47.4525C242.867 48.0305 243.371 48.5014 243.971 48.8653C244.625 49.2505 245.386 49.5395 246.254 49.7215C247.165 49.9141 248.108 50.0104 249.084 50.0104C251.258 50.0104 252.898 49.6786 253.959 49.0364C254.849 48.4906 255.245 47.902 255.245 47.1315C255.245 46.7783 255.171 46.4894 255.02 46.2432C254.934 46.1041 254.698 45.8152 254.046 45.4513C253.434 45.1088 252.598 44.7878 251.548 44.4881C250.444 44.1777 249.008 43.846 247.272 43.525C244.979 43.0648 242.846 42.4869 240.927 41.7912C238.966 41.0849 237.263 40.2073 235.848 39.1906C234.391 38.1311 233.222 36.8896 232.398 35.4984C231.54 34.0536 231.1 32.3841 231.1 30.522C231.1 28.7454 231.528 27.0118 232.376 25.3957C233.222 23.7904 234.433 22.3778 235.987 21.1898C237.509 20.0233 239.385 19.0815 241.549 18.4072C243.693 17.733 246.136 17.3906 248.804 17.3906C251.58 17.3906 254.12 17.7223 256.349 18.3752C258.611 19.0387 260.56 19.9804 262.158 21.1578C263.787 22.367 265.051 23.8332 265.919 25.5027C266.788 27.183 267.227 29.0344 267.227 31.0035H254.795C254.795 29.9013 254.366 29.0344 253.456 28.2639C252.492 27.4612 250.926 27.0652 248.794 27.0652C246.789 27.0652 245.3 27.397 244.357 28.0605C243.532 28.6384 243.157 29.2699 243.157 30.0404C243.157 30.4042 243.232 30.7361 243.381 31.0463C243.51 31.3139 243.778 31.5814 244.174 31.8383C244.667 32.1594 245.386 32.4697 246.308 32.748C247.282 33.0477 248.558 33.3152 250.08 33.5293C252.448 33.9145 254.678 34.4175 256.703 35.0169C258.793 35.6376 260.636 36.4616 262.168 37.4462C263.765 38.4843 265.041 39.7578 265.951 41.2454C266.883 42.7758 267.366 44.6059 267.366 46.6714C267.366 48.5869 266.895 50.3742 265.973 51.9902C265.061 53.5849 263.765 54.9654 262.114 56.1105C260.508 57.2235 258.547 58.1011 256.285 58.7112C254.056 59.3104 251.558 59.6208 248.836 59.6208C245.825 59.6208 243.125 59.2141 240.788 58.4221C238.451 57.6195 236.448 56.56 234.852 55.2544C233.222 53.9273 231.979 52.3969 231.132 50.6953C230.286 48.9829 229.846 47.2278 229.846 45.4727L241.849 45.4192Z" fill="white"/>
<path d="M66.4041 69.4884L79.3929 46.9927L53.3938 1.99072H27.3945L66.4041 69.4884Z" fill="white"/>
<path d="M53.4045 46.9927L66.3933 69.4883H40.4048L27.3945 46.9927H53.4045Z" fill="white"/>
<path d="M14.395 24.4863H40.3943L14.4059 69.4884L1.39551 46.9928L14.395 24.4863Z" fill="white"/>
</svg>
