<svg width="309" height="74" viewBox="0 0 309 74" fill="none" xmlns="http://www.w3.org/2000/svg">
<path d="M81.5284 22.468L54.6163 6.67864L53.4595 6L52.2992 6.67511L2.01509 35.9364L0 37.1092L2.02034 38.2766L52.3045 67.3326L53.4595 68L54.611 67.329L81.6547 51.5739C79.4551 50.8232 77.4565 49.7879 75.7389 48.5291L50.0212 63.512L4.20723 36.8627L50.0212 10.4871L75.5466 25.6119C77.2742 24.313 79.296 23.2436 81.5284 22.468Z" fill="white"/>
<path d="M87.3501 51.531L114.696 67.3326L115.851 68L117.003 67.329L166.877 38.2732L168.875 37.1091L166.883 35.9399L117.008 6.67864L115.851 6L114.691 6.67511L87.4731 22.5139C89.6482 23.2831 91.6206 24.3322 93.3118 25.6009L118.821 10.4859L164.635 36.8615L118.821 63.5108L93.1236 48.5401C91.4427 49.77 89.4936 50.7859 87.3501 51.531Z" fill="white"/>
<path d="M71.3323 31.0884L63.8105 36.8202L71.3262 42.8905C70.7854 41.0217 70.4953 39.0449 70.4953 36.9997C70.4953 34.947 70.7875 32.9632 71.3323 31.0884Z" fill="white"/>
<path d="M97.7633 42.85L105.234 36.8163L97.7539 31.1162C98.2934 32.9829 98.5825 34.9571 98.5825 36.9996C98.5825 39.0301 98.2968 40.9931 97.7633 42.85Z" fill="white"/>
<path d="M89.2609 30.8483C85.8276 28.3642 81.0096 29.1048 78.4995 32.5025C75.9893 35.9003 76.7377 40.6685 80.171 43.1527C83.6043 45.6368 88.4224 44.8962 90.9324 41.4985C93.4426 38.1007 92.6942 33.3325 89.2609 30.8483Z" fill="white"/>
<path d="M116.04 37C116.04 19.8792 102.016 6 84.7159 6C67.416 6 53.3916 19.8792 53.3916 37C53.3916 54.1208 67.416 68 84.7159 68C102.016 68 116.04 54.1208 116.04 37Z" stroke="white" stroke-width="11.0592" stroke-linecap="square"/>
<path d="M211.826 62.4495L195.33 36.9996C197.395 36.9996 199.292 36.7501 201.021 36.2511C202.75 35.7521 204.251 34.9798 205.523 33.9342C206.796 32.8887 207.78 31.558 208.476 29.9421C209.173 28.3262 209.521 26.4015 209.521 24.1678C209.521 22.1242 209.149 20.3182 208.405 18.7499C207.66 17.1815 206.664 15.8628 205.415 14.7933C204.167 13.724 202.678 12.9162 200.949 12.3696C199.22 11.8231 197.395 11.5498 195.475 11.5498H183.589V62.4495H186.47V36.9996H192.017L208.369 62.4495H211.826ZM206.496 24.0965C206.496 27.3282 205.547 29.7995 203.65 31.5105C201.753 33.2214 199.268 34.0768 196.195 34.0768H186.47V14.4725H195.402C196.939 14.4725 198.38 14.6745 199.724 15.0786C201.069 15.4825 202.246 16.0765 203.254 16.8607C204.263 17.6449 205.055 18.6429 205.631 19.8548C206.207 21.0667 206.496 22.4806 206.496 24.0965ZM222.127 25.3797C221.743 23.8113 220.95 23.0272 219.75 23.0272C218.165 23.3123 217.373 24.0965 217.373 25.3797C217.421 26.0926 217.661 26.6629 218.093 27.0906C218.669 27.5183 219.222 27.7322 219.75 27.7322C221.335 27.7322 222.127 26.948 222.127 25.3797ZM221.191 62.4495V33.0075H218.237V62.4495H221.191ZM256.343 33.0075H253.03L242.152 56.4613L231.347 33.0075H228.178L242.224 63.7327L256.343 33.0075ZM290.775 47.1226C290.775 42.7978 289.311 39.2809 286.381 36.5719C283.5 33.863 279.85 32.5085 275.432 32.5085C270.966 32.5085 267.268 33.958 264.339 36.8571C261.457 39.7086 260.017 43.3443 260.017 47.7642C260.017 52.1365 261.482 55.7722 264.411 58.6712C267.292 61.5703 270.966 63.0199 275.432 63.0199C277.305 63.0199 278.986 62.7823 280.474 62.307C284.364 61.0713 287.246 58.6951 289.118 55.1781L286.453 53.9662C284.82 56.5801 282.972 58.3148 280.907 59.1703C279.274 59.8357 277.449 60.1683 275.432 60.1683C271.494 60.1683 268.397 58.9802 266.14 56.6039C263.979 54.2751 262.898 51.1147 262.898 47.1226H290.775ZM287.462 44.3423H263.33C265.251 38.3541 269.285 35.36 275.432 35.36C278.361 35.36 280.955 36.1679 283.212 37.7838C285.565 39.4472 286.981 41.6334 287.462 44.3423ZM309 35.9303V33.0075H302.085V20.1043H299.131V33.0075H295.097V35.9303H299.131V62.4495H302.085V35.9303H309Z" fill="white"/>
</svg>
