<svg width="531" height="530" viewBox="0 0 531 530" fill="none" xmlns="http://www.w3.org/2000/svg">
	<g filter="url(#filter0_d)">
		<path fill-rule="evenodd" clip-rule="evenodd" d="M265.816 504C398.917 504 506.816 396.101 506.816 263C506.816 129.899 398.917 22 265.816 22C132.716 22 24.8164 129.899 24.8164 263C24.8164 396.101 132.716 504 265.816 504Z" fill="white" />
	</g>
	<mask id="mask0" mask-type="alpha" maskUnits="userSpaceOnUse" x="24" y="22" width="483" height="482">
		<path fill-rule="evenodd" clip-rule="evenodd" d="M265.816 504C398.917 504 506.816 396.101 506.816 263C506.816 129.899 398.917 22 265.816 22C132.716 22 24.8164 129.899 24.8164 263C24.8164 396.101 132.716 504 265.816 504Z" fill="white" />
	</mask>
	<g mask="url(#mask0)">
		<path d="M81.3553 354.533C60.5439 353.468 39.4029 352.932 17.9321 352.925C12.4455 352.925 6.98178 352.961 1.54102 353.032C1.6958 338.852 7.45761 325.754 16.6508 316.665C19.0014 314.353 21.5273 312.332 24.1928 310.631C29.4359 307.307 35.1218 305.204 40.9709 304.425C50.4619 303.071 60.059 305.344 68.4901 310.942C69.0315 307.17 69.8108 303.457 70.8206 299.838C79.085 270.106 102.545 246.805 132.016 242.807C154.565 239.741 175.643 248.659 190.22 265.015C195.087 249.205 207.789 236.944 223.638 234.79C240.477 232.507 255.819 242.292 262.802 258.037C267.101 244.8 277.911 234.575 291.301 232.753C304.244 230.995 316.163 237.544 322.845 248.605C330.344 227.287 347.965 210.963 369.739 208.005C388.805 205.411 406.538 213.685 418.053 228.369C425.176 222.321 433.389 218.562 441.96 217.426C468.258 213.857 491.632 234.522 494.169 263.589L499.501 262.893C505.993 261.977 512.564 263.227 518.541 266.515C514.992 285.105 510.423 303.368 504.867 321.178C455.918 312.981 406.581 308.907 357.192 308.981C255.139 308.981 160.258 325.765 81.3553 354.533Z" fill="#37DD9E" />
		<path d="M330.715 299.533C223.015 299.533 137.432 321.326 61.4655 321.326C-14.5013 321.326 -52.0039 329.109 -96.2377 382.036C-145.982 441.562 -1.03883 522.135 56.6575 503.455C114.354 484.775 153.443 515.644 181.666 531.475C253.787 571.948 281.673 534.588 309.56 514.352C370.141 475.435 466.301 539.258 535.537 512.795C590.973 491.609 624.004 458.312 641.313 450.529C658.622 442.745 731.233 390.613 719.203 371.139C694.202 330.666 652.853 347.789 594.195 335.336C535.537 322.883 438.415 299.533 330.715 299.533Z" fill="#2BB281" />
		<path d="M81.3136 345.049C109.761 345.049 132.821 340.659 132.821 335.243C132.821 329.827 109.761 325.436 81.3136 325.436C52.8665 325.436 29.8057 329.827 29.8057 335.243C29.8057 340.659 52.8665 345.049 81.3136 345.049Z" fill="#22A16E" />
	</g>
	<path d="M325.046 336.254C353.493 336.254 376.554 331.864 376.554 326.448C376.554 321.032 353.493 316.641 325.046 316.641C296.599 316.641 273.538 321.032 273.538 326.448C273.538 331.864 296.599 336.254 325.046 336.254Z" fill="#22A16E" />
	<path d="M450 338C475.957 338 497 333.971 497 329C497 324.029 475.957 320 450 320C424.043 320 403 324.029 403 329C403 333.971 424.043 338 450 338Z" fill="#22A16E" />
	<path d="M201.339 340.652C229.786 340.652 252.847 336.261 252.847 330.845C252.847 325.429 229.786 321.039 201.339 321.039C172.892 321.039 149.831 325.429 149.831 330.845C149.831 336.261 172.892 340.652 201.339 340.652Z" fill="#22A16E" />
	<path d="M96.4004 267.157C99.4642 267.294 102.513 267.665 105.52 268.269C105.988 268.573 106.471 268.852 106.969 269.104C110.192 271.639 111.764 274.188 113.785 277.754C116.41 282.606 117.232 288.236 116.103 293.639C114.756 300.176 110.902 304.534 105.962 308.746C104.941 309.611 103.789 309.821 102.912 310.882C100.496 310.974 98.0753 310.898 95.6688 310.656C94.9445 310.584 94.9445 310.794 95.14 311.383C96.911 316.697 98.954 321.917 101.261 327.02C102.318 329.403 103.434 331.741 104.607 334.087C104.839 334.574 104.948 334.719 104.252 334.814C103.341 334.971 102.456 334.423 102.188 333.535C98.8488 326.374 95.6688 319.154 93.3219 311.572C93.1481 311.005 93.2857 310.206 92.2861 310.119C91.8225 310.119 91.7138 310.119 91.7138 310.584C91.7138 314.942 91.7645 319.3 92.0325 323.708C92.2426 327.122 92.5686 330.536 92.8366 333.949C92.8366 334.211 92.938 334.618 92.4961 334.501C92.0543 334.385 91.0909 335.032 90.9533 333.964C90.7649 332.562 90.649 331.146 90.5476 329.729C90.019 323.229 89.8232 316.705 89.9609 310.184C89.9609 309.589 89.6784 309.516 89.2365 309.393C83.826 307.925 78.876 305.103 74.8507 301.193C74.5175 300.866 74.2061 300.524 73.757 300.059C74.8 306.204 76.1184 312.407 77.4584 318.268C76.8645 318.435 76.2488 318.537 75.662 318.704C74.3437 313.039 73.0688 307.163 72.1054 301.113C70.7568 307.521 69.83 314.011 69.3311 320.542L67.5347 320.868C67.6868 317.033 68.2591 312.923 68.7589 309.124C69.0052 307.417 69.3239 305.725 69.5991 304.04C69.6136 303.875 69.6136 303.71 69.5991 303.546C69.4512 303.604 69.3082 303.675 69.1718 303.756C63.2972 307.867 57.582 307.809 51.7147 303.568L51.3815 303.35C51.3314 303.496 51.2974 303.647 51.2801 303.8C51.3164 308.169 51.5848 312.533 52.0841 316.874C52.695 322.696 53.7067 328.47 55.112 334.153C55.1699 334.371 55.3148 334.763 54.8947 334.69C54.3152 334.589 53.4459 335.315 53.1924 334.174C52.6564 331.654 52.0769 329.134 51.635 326.592C50.1875 318.702 49.4601 310.696 49.462 302.674C49.462 302.573 49.462 302.471 49.4185 302.1C48.4629 304.686 47.6551 307.325 46.9991 310.003C45.0218 317.917 44.1083 326.061 44.2828 334.218C44.2828 335.482 43.486 335.032 42.9065 335.119C42.1025 335.249 42.3488 334.625 42.3488 334.247C42.195 323.551 43.8356 312.905 47.202 302.754C47.2557 302.536 47.2968 302.316 47.3251 302.093C45.1337 304.564 42.167 306.212 38.9153 306.763C36.1814 307.367 33.3243 307.024 30.8097 305.79C26.7968 303.749 25.7392 299.471 28.2383 295.731C28.7261 294.914 29.3683 294.201 30.1288 293.632C30.9908 293.065 30.9763 292.477 30.7445 291.569C29.035 284.778 25.8551 278.669 22.1391 272.808C21.8494 272.343 21.6249 272.263 21.0961 272.489C19.3342 273.364 17.1984 272.803 16.0908 271.174C16.0256 270.716 15.9241 270.506 16.0908 270.164C17.5395 268.065 21.0671 267.847 22.3782 269.801C26.8402 276.447 30.6504 283.412 32.5699 291.271C32.6713 291.692 32.7655 291.809 33.2146 291.576C33.8573 291.261 34.5233 290.997 35.2066 290.784C36.0468 290.516 37.1334 290.545 37.6911 290.007C38.2489 289.47 37.7998 288.322 37.9591 287.451C37.9624 287.424 37.9624 287.397 37.9591 287.371C38.1402 281.873 37.4811 276.556 34.8154 271.631C34.5474 271.138 34.4243 270.869 33.7941 271.334C33.0714 271.842 32.174 272.035 31.307 271.868C30.4401 271.701 29.6778 271.188 29.1944 270.448C28.47 269.075 29.122 267.782 31.0343 266.947C31.0343 266.947 31.0705 266.903 31.085 266.874C31.6322 266.74 32.2038 266.74 32.751 266.874C34.3301 267.353 35.1849 268.595 35.9744 269.917C39.3427 275.619 40.1322 281.865 39.7918 288.337C39.7049 289.978 39.6469 289.949 41.2405 290.073C43.0215 290.175 44.7436 290.749 46.2313 291.736C46.637 292.012 46.7094 291.99 46.7746 291.489C47.6583 285.286 51.0121 281.11 57.0677 279.396C61.4139 278.154 65.521 279.12 69.1573 281.873C69.3963 282.054 69.6281 282.512 69.8816 281.814C72.2141 276.077 76.6472 272.496 82.1378 270.077C85.3881 268.601 88.8829 267.742 92.4454 267.542C92.7931 267.542 94.1839 267.237 94.5243 267.194C94.604 267.332 95.8934 268.043 96.0093 268.138C99.298 270.596 101.992 273.767 103.89 277.413C106.288 281.713 106.947 287.131 106.194 292.019C105.129 298.97 102.572 303.161 97.4073 307.649C96.9292 308.063 96.2048 308.732 95.7268 309.146C96.2628 309.531 95.763 309.109 96.3642 309.247C96.9654 309.385 96.2556 309.705 96.9944 309.138C99.9788 306.836 102.282 303.814 104.448 300.72C108.2 295.367 108.954 292.731 107.534 286.194C106.194 279.991 103.572 273.985 98.8415 269.925C97.9283 269.096 97.1096 268.167 96.4004 267.157Z" fill="#424251" />
	<path d="M109.866 269.409C116.11 271.799 122.499 275.989 125.911 281.887C129.668 288.071 128.938 295.993 124.115 301.381C119.689 306.575 113.104 309.371 106.513 310.54C106.629 309.992 106.878 309.481 107.237 309.051C110.924 306.146 113.655 302.057 115.929 297.873C118.646 292.913 119.015 290.283 117.646 284.727C116.523 280.158 114.546 275.437 111.337 272.045C110.696 271.26 110.198 270.368 109.866 269.409Z" fill="#424251" />
	<path d="M97.6678 267.237C98.3043 267.987 99.0347 268.651 99.8409 269.213C104.535 273.273 108.091 278.052 109.424 284.247C110.873 290.828 109.048 296.675 105.295 302.028C103.077 305.057 100.412 307.732 97.3926 309.959C96.6682 310.533 96.0887 310.141 95.4585 309.995C94.8385 309.968 94.2312 309.81 93.6766 309.531L95.1253 308.289C100.29 303.8 104.173 298.498 105.266 291.583C105.96 286.808 105.004 281.938 102.557 277.783C100.326 273.894 97.3236 270.505 93.7346 267.825C93.63 267.702 93.5468 267.562 93.4883 267.411C94.8649 267.144 96.2738 267.085 97.6678 267.237Z" fill="#5D5D69" />
	<path d="M111.018 269.91C111.308 270.753 112.083 271.167 112.641 271.762C115.881 275.039 118.196 279.119 119.348 283.587C120.717 289.15 119.711 294.365 116.987 299.333C114.698 303.51 111.409 306.771 107.722 309.676C107.498 309.85 107.244 309.988 107.252 310.322C105.503 310.741 103.71 310.943 101.913 310.925C102.775 309.865 103.978 309.211 104.999 308.34C109.961 304.12 113.691 299.108 115.075 292.6C116.118 287.457 115.2 282.108 112.503 277.609C110.5 274.076 107.825 270.972 104.629 268.472C104.504 268.33 104.404 268.168 104.332 267.993C106.642 268.302 108.895 268.948 111.018 269.91Z" fill="#5D5D69" />
	<path d="M78.147 320.781C79.3567 325.074 80.7619 329.708 82.3338 333.855C82.5076 334.313 82.3338 334.371 81.9209 334.421C81.5138 334.529 81.0802 334.459 80.7279 334.228C80.3756 333.996 80.1379 333.626 80.0738 333.209C78.8207 329.25 77.3212 325.125 76.3506 321.079C76.959 321.05 77.5675 320.839 78.147 320.781Z" fill="#424251" />
	<path d="M69.3742 320.723C69.5046 324.355 68.9469 329.65 68.9686 333.964C68.9686 334.894 68.2442 334.378 67.8531 334.465C67.4619 334.552 67.0201 334.603 67.0418 333.906C67.1722 330.427 67.2663 326.955 67.3822 323.476C67.3603 322.629 67.4258 321.782 67.5778 320.948C68.2152 320.89 68.744 320.789 69.3742 320.723Z" fill="#424251" />
	<path d="M75.6475 318.479L77.4149 317.97L77.7626 319.314C77.2611 319.665 76.671 319.866 76.0603 319.895L75.6475 318.479Z" fill="#5D5D69" />
	<path d="M76.0605 319.895C76.4952 319.299 77.1398 319.35 77.7628 319.314C77.8425 319.626 77.9584 320.149 78.038 320.462C77.5493 320.813 76.9474 320.968 76.3503 320.897C76.2779 320.643 76.1185 320.149 76.0605 319.895Z" fill="#424251" />
	<path d="M69.4105 321.043L67.5127 321.224L67.6286 320.542L69.425 320.193L69.4105 321.043Z" fill="#5D5D69" />
	<path d="M76.285 320.658C76.8887 320.739 77.5008 320.591 78.0018 320.244C78.1868 320.509 78.2808 320.828 78.2698 321.152L76.4516 321.326C76.2271 321.144 76.285 320.897 76.285 320.658Z" fill="#5D5D69" />
	<path d="M37.9806 295.142C38.7702 295.208 39.0527 295.752 39.0889 296.442C39.1306 296.738 39.0432 297.038 38.849 297.264C38.6549 297.491 38.3728 297.623 38.0748 297.626C37.2925 297.626 37.0027 297.016 36.9593 296.333C36.92 296.036 37.0091 295.736 37.2041 295.509C37.3991 295.281 37.6816 295.148 37.9806 295.142Z" fill="#030304" />
	<path d="M33.91 296.646C33.8449 297.285 33.6131 297.83 32.8815 297.808C32.5833 297.818 32.2941 297.704 32.0817 297.494C31.8694 297.284 31.7526 296.996 31.7587 296.697C31.7256 296.412 31.8151 296.128 32.0047 295.914C32.1943 295.7 32.4659 295.578 32.7511 295.578C33.0489 295.554 33.3433 295.655 33.5633 295.858C33.7833 296.061 33.909 296.346 33.91 296.646Z" fill="#030304" />
	<path d="M220.234 262.532C223.29 262.669 226.332 263.036 229.332 263.631C229.81 263.935 230.306 264.211 230.817 264.458C234.033 266.966 235.605 269.489 237.626 273.018C240.254 277.816 241.075 283.386 239.944 288.73C238.604 295.199 234.743 299.511 229.803 303.68C228.781 304.543 227.63 304.744 226.753 305.801C224.336 305.892 221.916 305.817 219.51 305.578C218.785 305.506 218.785 305.714 218.988 306.296C220.758 311.555 222.798 316.72 225.102 321.771C226.166 324.121 227.311 326.443 228.448 328.765C228.68 329.239 228.796 329.39 228.093 329.447C227.183 329.606 226.298 329.061 226.036 328.182C222.69 321.088 219.517 313.951 217.163 306.447C216.989 305.887 217.126 305.096 216.127 305.01C215.663 305.01 215.562 305.01 215.562 305.47C215.562 309.782 215.613 314.131 215.881 318.458C216.083 321.836 216.409 325.214 216.677 328.592C216.677 328.851 216.779 329.253 216.337 329.138C215.895 329.023 214.932 329.663 214.794 328.606C214.606 327.219 214.497 325.811 214.388 324.416C213.86 317.983 213.664 311.527 213.802 305.075C213.802 304.478 213.526 304.413 213.077 304.291C207.661 302.845 202.704 300.058 198.67 296.191C198.344 295.867 198.025 295.53 197.576 295.07C198.619 301.15 199.937 307.288 201.277 313.089C200.691 313.254 200.068 313.347 199.481 313.52C198.163 307.914 196.888 302.099 195.924 296.105C194.575 302.448 193.649 308.874 193.15 315.338C192.556 315.453 191.955 315.547 191.361 315.662C191.506 311.86 192.042 307.799 192.578 304.032C192.824 302.351 193.143 300.676 193.418 299.001C193.436 298.839 193.436 298.675 193.418 298.512C193.27 298.569 193.127 298.638 192.991 298.721C187.116 302.789 181.401 302.724 175.534 298.534L175.201 298.318C175.15 298.463 175.116 298.612 175.099 298.764C175.136 303.088 175.404 307.406 175.903 311.701C176.503 317.473 177.505 323.195 178.902 328.829C178.953 329.045 179.098 329.433 178.677 329.361C178.098 329.261 177.229 329.972 176.982 328.851C176.446 326.35 175.867 323.863 175.425 321.347C173.974 313.54 173.247 305.617 173.252 297.679C173.252 297.578 173.252 297.477 173.209 297.111C172.271 299.674 171.477 302.287 170.833 304.938C168.856 312.772 167.942 320.834 168.116 328.908C168.116 330.152 167.32 329.706 166.74 329.8C165.936 329.929 166.182 329.311 166.182 328.93C166.032 318.348 167.673 307.815 171.036 297.772C171.089 297.557 171.13 297.338 171.159 297.118C168.955 299.558 165.978 301.179 162.72 301.711C159.986 302.308 157.129 301.968 154.614 300.748C150.601 298.728 149.544 294.487 152.043 290.793C152.531 289.985 153.173 289.279 153.933 288.716C154.803 288.155 154.781 287.573 154.556 286.675C152.84 279.947 149.667 273.91 145.944 268.109C145.654 267.649 145.429 267.563 144.901 267.793C143.142 268.662 141.007 268.113 139.895 266.506C139.837 266.061 139.729 265.852 139.895 265.515C141.308 263.437 144.864 263.222 146.176 265.155C150.645 271.732 154.448 278.617 156.367 286.401C156.469 286.818 156.563 286.926 157.012 286.703C157.656 286.393 158.325 286.136 159.011 285.934C159.851 285.668 160.938 285.697 161.503 285.165C162.068 284.633 161.604 283.491 161.764 282.635C161.767 282.607 161.767 282.578 161.764 282.549C161.945 277.115 161.293 271.847 158.62 266.981C158.352 266.492 158.229 266.226 157.599 266.686C156.877 267.193 155.979 267.386 155.11 267.221C154.242 267.055 153.48 266.546 152.999 265.809C152.238 264.458 152.919 263.179 154.839 262.352C154.839 262.352 154.839 262.302 154.882 262.28C155.429 262.144 156.002 262.144 156.548 262.28C158.135 262.747 158.982 263.976 159.772 265.292C163.147 270.934 163.937 277.115 163.589 283.519C163.502 285.144 163.451 285.115 165.038 285.237C166.819 285.337 168.542 285.905 170.029 286.883C170.434 287.156 170.507 287.135 170.579 286.631C171.456 280.501 174.817 276.368 180.865 274.671C185.247 273.442 189.318 274.398 192.962 277.122C193.201 277.302 193.425 277.755 193.686 277.065C196.026 271.38 200.452 267.843 205.95 265.45C209.182 263.985 212.659 263.125 216.207 262.913C216.554 262.913 217.945 262.611 218.285 262.561C218.765 262.899 219.263 263.211 219.778 263.495C223.063 265.933 225.754 269.072 227.651 272.681C230.049 276.936 230.708 282.29 229.955 287.135C228.89 294.013 226.333 298.16 221.176 302.602C220.698 303.012 219.966 303.673 219.488 304.083C220.024 304.464 219.531 304.047 220.125 304.183C220.719 304.32 220.017 304.636 220.756 304.076C223.74 301.797 226.043 298.807 228.209 295.745C231.961 290.441 232.715 287.839 231.295 281.37C229.955 275.232 227.333 269.288 222.603 265.27C221.717 264.444 220.922 263.526 220.234 262.532Z" fill="#424251" />
	<path d="M233.671 264.767C239.915 267.132 246.311 271.272 249.723 277.115C253.472 283.236 252.742 291.071 247.926 296.406C243.493 301.546 236.909 304.313 230.324 305.47C230.437 304.926 230.686 304.419 231.049 303.996C234.743 301.121 237.466 297.075 239.741 292.935C242.464 288.019 242.827 285.424 241.458 279.926C240.342 275.405 238.357 270.733 235.148 267.376C234.505 266.6 234.004 265.716 233.671 264.767Z" fill="#424251" />
	<path d="M221.479 262.611C222.114 263.357 222.844 264.017 223.653 264.573C228.346 268.591 231.903 273.313 233.236 279.451C234.685 285.963 232.859 291.742 229.107 297.046C226.89 300.046 224.225 302.693 221.204 304.895C220.48 305.463 219.9 305.075 219.277 304.931C218.655 304.901 218.046 304.745 217.488 304.471L218.937 303.242C224.109 298.8 227.991 293.553 229.078 286.675C229.779 281.949 228.822 277.128 226.369 273.018C224.13 269.163 221.111 265.808 217.503 263.164C217.387 263.071 217.343 262.891 217.264 262.755C218.654 262.499 220.075 262.451 221.479 262.611Z" fill="#5D5D69" />
	<path d="M234.823 265.263C235.12 266.09 235.887 266.506 236.452 267.096C239.687 270.342 241.998 274.378 243.153 278.797C244.522 284.303 243.515 289.463 240.799 294.372C238.51 298.512 235.214 301.732 231.527 304.615C231.309 304.787 231.049 304.924 231.063 305.254C229.315 305.668 227.522 305.868 225.725 305.851C226.579 304.801 227.782 304.155 228.803 303.292C233.765 299.109 237.539 294.157 238.879 287.717C239.934 282.63 239.027 277.336 236.336 272.882C234.334 269.383 231.659 266.309 228.463 263.833C228.337 263.695 228.237 263.537 228.166 263.365C230.467 263.669 232.71 264.309 234.823 265.263Z" fill="#5D5D69" />
	<path d="M201.951 315.597C203.161 319.845 204.566 324.438 206.145 328.571C206.319 329.023 206.145 329.081 205.725 329.124C205.319 329.243 204.88 329.18 204.524 328.95C204.169 328.721 203.933 328.348 203.878 327.931C202.625 324.014 201.126 319.931 200.162 315.928C200.763 315.87 201.35 315.655 201.951 315.597Z" fill="#424251" />
	<path d="M193.186 315.547C193.309 319.141 192.752 324.38 192.773 328.65C192.773 329.57 192.049 329.059 191.658 329.146C191.267 329.232 190.825 329.282 190.846 328.592C190.977 325.149 191.071 321.707 191.187 318.264C191.164 317.428 191.232 316.591 191.39 315.77C192.02 315.719 192.549 315.612 193.186 315.547Z" fill="#424251" />
	<path d="M199.452 313.326L201.22 312.823L201.567 314.152C201.069 314.5 200.481 314.697 199.872 314.72L199.452 313.326Z" fill="#5D5D69" />
	<path d="M199.872 314.72C200.299 314.138 200.951 314.188 201.567 314.152C201.647 314.461 201.763 314.979 201.85 315.288C201.36 315.634 200.759 315.788 200.162 315.719C200.118 315.46 199.945 315 199.872 314.72Z" fill="#424251" />
	<path d="M193.215 315.863L191.317 316.043L191.433 315.367L193.23 315.022L193.215 315.863Z" fill="#5D5D69" />
	<path d="M200.119 315.482C200.725 315.558 201.338 315.413 201.843 315.072C202.025 315.336 202.117 315.651 202.103 315.971L200.285 316.143C200.039 315.964 200.119 315.719 200.119 315.482Z" fill="#5D5D69" />
	<path d="M161.793 290.197C162.582 290.261 162.857 290.8 162.894 291.483C162.938 291.774 162.852 292.07 162.659 292.294C162.465 292.518 162.184 292.647 161.887 292.647C161.104 292.647 160.807 292.051 160.764 291.375C160.727 291.08 160.818 290.784 161.014 290.559C161.21 290.334 161.493 290.202 161.793 290.197V290.197Z" fill="#030304" />
	<path d="M157.722 291.72C157.649 292.353 157.418 292.892 156.686 292.87C156.39 292.874 156.104 292.76 155.893 292.553C155.682 292.347 155.563 292.065 155.563 291.77C155.528 291.489 155.617 291.206 155.807 290.994C155.997 290.782 156.27 290.661 156.556 290.664C156.854 290.642 157.148 290.743 157.368 290.943C157.589 291.142 157.717 291.424 157.722 291.72Z" fill="#030304" />
	<path d="M348.14 256.324C351.194 256.462 354.233 256.834 357.23 257.436C357.71 257.741 358.205 258.02 358.715 258.271C361.939 260.806 363.51 263.355 365.531 266.921C368.159 271.77 368.981 277.398 367.849 282.799C366.502 289.336 362.648 293.693 357.708 297.906C356.687 298.778 355.535 298.981 354.659 300.049C352.242 300.141 349.822 300.066 347.415 299.824C346.691 299.751 346.691 299.962 346.886 300.55C348.657 305.867 350.7 311.089 353.007 316.195C354.065 318.57 355.18 320.916 356.354 323.262C356.586 323.741 356.694 323.894 355.999 323.952C355.088 324.109 354.202 323.561 353.934 322.673C350.595 315.505 347.415 308.292 345.068 300.71C344.894 300.143 345.032 299.344 344.025 299.257C343.569 299.257 343.46 299.257 343.46 299.722C343.46 304.08 343.511 308.474 343.779 312.846C343.989 316.26 344.315 319.674 344.583 323.08C344.583 323.349 344.684 323.756 344.243 323.639C343.801 323.523 342.837 324.17 342.7 323.102C342.511 321.7 342.395 320.277 342.294 318.868C341.765 312.367 341.57 305.843 341.707 299.322C341.707 298.72 341.425 298.654 340.983 298.531C335.571 297.062 330.619 294.24 326.59 290.331C326.264 290.004 325.952 289.662 325.496 289.198C326.546 295.342 327.865 301.545 329.205 307.406C328.611 307.573 327.995 307.668 327.408 307.842C326.09 302.177 324.815 296.301 323.845 290.243C322.501 296.655 321.577 303.147 321.078 309.68L319.281 310.006C319.433 306.164 319.969 302.061 320.505 298.255C320.744 296.555 321.07 294.863 321.346 293.17C321.36 293.006 321.36 292.841 321.346 292.677C321.198 292.733 321.055 292.801 320.918 292.88C315.044 296.998 309.328 296.933 303.461 292.698L303.128 292.48C303.077 292.626 303.043 292.777 303.026 292.931C303.063 297.3 303.331 301.664 303.831 306.004C304.428 311.836 305.428 317.619 306.822 323.313C306.88 323.53 307.025 323.915 306.605 323.85C306.025 323.748 305.156 324.467 304.903 323.334C304.367 320.807 303.787 318.294 303.345 315.752C301.901 307.861 301.174 299.856 301.172 291.834C301.172 291.732 301.172 291.631 301.136 291.26C300.18 293.844 299.373 296.48 298.717 299.155C296.745 307.068 295.838 315.21 296.022 323.363C296.022 324.62 295.225 324.17 294.646 324.264C293.842 324.395 294.088 323.77 294.088 323.385C293.934 312.691 295.575 302.048 298.941 291.899C298.995 291.682 299.034 291.461 299.057 291.238C296.856 293.703 293.881 295.341 290.625 295.88C287.892 296.483 285.034 296.14 282.52 294.906C278.507 292.865 277.449 288.58 279.948 284.847C280.436 284.03 281.078 283.317 281.839 282.748C282.701 282.181 282.686 281.593 282.455 280.685C280.745 273.887 277.565 267.786 273.849 261.917C273.56 261.46 273.328 261.372 272.806 261.605C271.048 262.483 268.913 261.928 267.801 260.305C267.736 259.854 267.627 259.644 267.801 259.302C269.25 257.203 272.777 256.985 274.088 258.939C278.55 265.585 282.361 272.543 284.28 280.409C284.381 280.83 284.476 280.939 284.925 280.714C285.568 280.4 286.237 280.14 286.924 279.937C287.764 279.668 288.851 279.697 289.409 279.16C289.966 278.622 289.517 277.468 289.677 276.603C289.68 276.574 289.68 276.545 289.677 276.516C289.858 271.025 289.198 265.701 286.533 260.777C286.265 260.29 286.142 260.05 285.511 260.486C284.789 260.999 283.889 261.194 283.02 261.027C282.15 260.86 281.387 260.345 280.905 259.6C280.18 258.227 280.832 256.942 282.744 256.107C282.765 256.085 282.782 256.061 282.795 256.034C283.342 255.896 283.914 255.896 284.461 256.034C286.04 256.506 286.895 257.748 287.685 259.077C291.053 264.779 291.842 271.025 291.502 277.497C291.415 279.138 291.357 279.109 292.951 279.232C294.732 279.335 296.454 279.909 297.941 280.896C298.347 281.172 298.412 281.15 298.485 280.642C299.368 274.439 302.722 270.262 308.778 268.556C313.16 267.314 317.224 268.28 320.867 271.025C321.106 271.207 321.338 271.664 321.592 270.974C323.924 265.229 328.357 261.656 333.848 259.237C337.083 257.756 340.563 256.887 344.112 256.673C344.46 256.673 345.843 256.368 346.191 256.317C346.669 256.658 347.165 256.973 347.676 257.261C350.963 259.723 353.654 262.896 355.55 266.544C357.955 270.844 358.614 276.255 357.86 281.15C356.796 288.101 354.239 292.292 349.074 296.78C348.596 297.194 347.872 297.862 347.393 298.276C347.922 298.661 347.43 298.24 348.031 298.378C348.632 298.516 347.922 298.836 348.661 298.269C351.645 295.967 353.949 292.945 356.115 289.851C359.867 284.491 360.613 281.862 359.201 275.325C357.86 269.122 355.238 263.116 350.508 259.055C349.624 258.232 348.83 257.317 348.14 256.324Z" fill="#424251" />
	<path d="M361.569 258.576C367.82 260.966 374.209 265.149 377.621 271.054C381.378 277.238 380.648 285.16 375.825 290.549C371.399 295.742 364.814 298.538 358.223 299.707C358.339 299.159 358.588 298.648 358.947 298.218C362.634 295.313 365.365 291.224 367.639 287.04C370.356 282.072 370.718 279.45 369.356 273.894C368.233 269.326 366.256 264.605 363.047 261.213C362.406 260.426 361.906 259.534 361.569 258.576Z" fill="#424251" />
	<path d="M349.379 256.397C350.013 257.151 350.744 257.818 351.552 258.38C356.245 262.44 359.802 267.212 361.135 273.415C362.584 279.995 360.758 285.835 357.006 291.195C354.794 294.223 352.137 296.897 349.125 299.126C348.401 299.7 347.821 299.308 347.191 299.163C346.57 299.133 345.963 298.972 345.409 298.69L346.858 297.456C352.022 292.967 355.905 287.665 356.999 280.714C357.695 275.939 356.739 271.069 354.29 266.914C352.061 263.023 349.058 259.634 345.467 256.956C345.362 256.833 345.279 256.693 345.221 256.542C346.592 256.29 347.993 256.241 349.379 256.397Z" fill="#5D5D69" />
	<path d="M362.728 259.077C363.018 259.913 363.793 260.334 364.351 260.929C367.591 264.206 369.906 268.286 371.058 272.754C372.427 278.31 371.413 283.532 368.697 288.493C366.408 292.677 363.119 295.931 359.432 298.843C359.208 299.017 358.954 299.155 358.962 299.49C357.213 299.908 355.42 300.111 353.623 300.092C354.485 299.032 355.687 298.378 356.709 297.507C361.671 293.28 365.401 288.275 366.785 281.767C367.828 276.624 366.91 271.275 364.213 266.776C362.217 263.245 359.552 260.139 356.368 257.632C356.239 257.493 356.138 257.33 356.071 257.153C358.372 257.467 360.614 258.115 362.728 259.077Z" fill="#5D5D69" />
	<path d="M329.857 309.941C331.059 314.234 332.472 318.875 334.044 323.051C334.218 323.509 334.08 323.567 333.631 323.61C333.224 323.731 332.785 323.667 332.43 323.435C332.075 323.203 331.838 322.826 331.784 322.405C330.531 318.446 329.031 314.314 328.061 310.275C328.669 310.217 329.256 309.999 329.857 309.941Z" fill="#424251" />
	<path d="M321.085 309.89C321.216 313.522 320.658 318.817 320.672 323.131C320.672 324.061 319.948 323.545 319.564 323.632C319.18 323.719 318.731 323.77 318.753 323.073C318.883 319.594 318.977 316.115 319.093 312.636C319.068 311.791 319.133 310.946 319.289 310.116C319.926 310.05 320.455 309.948 321.085 309.89Z" fill="#424251" />
	<path d="M327.394 307.646L329.161 307.137L329.501 308.481C329.004 308.834 328.415 309.033 327.806 309.055L327.394 307.646Z" fill="#5D5D69" />
	<path d="M327.771 309.055C328.205 308.467 328.85 308.518 329.466 308.481C329.552 308.786 329.668 309.316 329.748 309.629C329.259 309.979 328.657 310.134 328.06 310.065C327.988 309.803 327.85 309.316 327.771 309.055Z" fill="#424251" />
	<path d="M321.121 310.21L319.224 310.391L319.34 309.709L321.136 309.36L321.121 310.21Z" fill="#5D5D69" />
	<path d="M327.995 309.825C328.598 309.902 329.209 309.755 329.712 309.411C329.9 309.675 329.994 309.995 329.98 310.319L328.162 310.493C327.937 310.29 327.995 310.057 327.995 309.825Z" fill="#5D5D69" />
	<path d="M289.728 284.273C290.517 284.339 290.8 284.883 290.836 285.573C290.88 285.869 290.794 286.169 290.599 286.395C290.404 286.622 290.12 286.751 289.822 286.75C289.04 286.75 288.75 286.147 288.706 285.464C288.667 285.167 288.756 284.867 288.951 284.64C289.146 284.412 289.429 284.279 289.728 284.273Z" fill="#030304" />
	<path d="M285.62 285.806C285.555 286.452 285.323 286.997 284.584 286.975C284.288 286.981 284.002 286.866 283.791 286.656C283.581 286.447 283.465 286.161 283.469 285.864C283.433 285.579 283.522 285.293 283.712 285.079C283.902 284.865 284.175 284.743 284.461 284.745C284.757 284.723 285.049 284.824 285.268 285.025C285.488 285.226 285.615 285.508 285.62 285.806Z" fill="#030304" />
	<path d="M471.567 261.012C474.622 261.157 477.663 261.528 480.665 262.123C481.141 262.435 481.637 262.717 482.149 262.966C485.366 265.501 486.937 268.05 488.966 271.616C491.591 276.466 492.41 282.094 491.276 287.494C489.936 294.03 486.075 298.388 481.135 302.601C480.114 303.473 478.962 303.676 478.086 304.78C475.669 304.87 473.249 304.792 470.842 304.547C470.118 304.475 470.118 304.693 470.321 305.274C472.088 310.589 474.129 315.808 476.434 320.911C477.499 323.294 478.644 325.64 479.781 327.986C480.013 328.465 480.128 328.618 479.426 328.712C478.516 328.872 477.631 328.322 477.369 327.434C474.022 320.265 470.849 313.053 468.495 305.47C468.321 304.896 468.459 304.104 467.459 304.017C467.003 304.017 466.894 304.017 466.894 304.482C466.894 308.84 466.945 313.234 467.213 317.599C467.423 321.02 467.742 324.427 468.01 327.84C468.01 328.109 468.111 328.516 467.67 328.4C467.228 328.283 466.272 328.923 466.127 327.862C465.938 326.453 465.83 325.037 465.721 323.621C465.192 317.122 464.996 310.601 465.134 304.083C465.134 303.48 464.859 303.414 464.41 303.291C458.997 301.799 454.05 298.955 450.031 295.025C449.705 294.699 449.387 294.357 448.938 293.892C449.981 300.03 451.299 306.24 452.639 312.101C452.052 312.268 451.437 312.363 450.843 312.53C449.524 306.872 448.249 300.996 447.286 294.938C445.936 301.348 445.011 307.842 444.519 314.375C443.918 314.491 443.317 314.585 442.723 314.701C442.931 310.763 443.339 306.839 443.947 302.942C444.186 301.243 444.505 299.55 444.787 297.858C444.798 297.694 444.798 297.529 444.787 297.364C444.639 297.419 444.496 297.487 444.36 297.568C438.485 301.679 432.77 301.62 426.895 297.386C426.787 297.306 426.678 297.241 426.562 297.168C426.516 297.315 426.485 297.466 426.468 297.618C426.502 301.987 426.768 306.351 427.265 310.692C427.865 316.524 428.867 322.307 430.264 328C430.314 328.218 430.459 328.603 430.046 328.53C429.467 328.436 428.598 329.155 428.344 328.022C427.808 325.494 427.229 322.974 426.787 320.439C425.336 312.55 424.609 304.544 424.614 296.522C424.614 296.42 424.614 296.318 424.57 295.948C423.61 298.535 422.8 301.176 422.144 303.857C420.161 311.773 419.245 319.92 419.42 328.08C419.42 329.337 418.623 328.886 418.051 328.981C417.247 329.111 417.493 328.487 417.486 328.102C417.336 317.408 418.976 306.765 422.339 296.616C422.393 296.398 422.434 296.178 422.462 295.955C420.257 298.419 417.281 300.056 414.023 300.596C411.289 301.196 408.434 300.853 405.918 299.623C401.905 297.582 400.847 293.297 403.346 289.564C403.834 288.747 404.476 288.034 405.237 287.465C406.106 286.898 406.092 286.31 405.86 285.395C404.143 278.603 400.971 272.502 397.255 266.634C396.958 266.176 396.733 266.089 396.204 266.321C394.448 267.199 392.316 266.644 391.206 265.021C391.141 264.571 391.032 264.36 391.206 264.019C392.619 261.913 396.175 261.702 397.486 263.656C401.956 270.302 405.759 277.26 407.678 285.119C407.78 285.547 407.881 285.656 408.323 285.431C408.969 285.114 409.64 284.852 410.329 284.646C411.162 284.385 412.256 284.414 412.814 283.877C413.372 283.339 412.922 282.184 413.075 281.32C413.078 281.291 413.078 281.262 413.075 281.233C413.256 275.742 412.604 270.418 409.931 265.493C409.67 265 409.547 264.767 408.91 265.203C408.187 265.713 407.289 265.907 406.422 265.74C405.554 265.573 404.792 265.059 404.31 264.317C403.585 262.944 404.23 261.651 406.15 260.816C406.15 260.816 406.15 260.772 406.193 260.751C406.74 260.609 407.313 260.609 407.859 260.751C409.446 261.223 410.3 262.465 411.083 263.794C414.458 269.495 415.248 275.742 414.9 282.213C414.813 283.855 414.762 283.826 416.349 283.942C418.13 284.049 419.851 284.625 421.34 285.612C421.745 285.888 421.818 285.859 421.89 285.358C422.767 279.155 426.128 274.979 432.176 273.272C436.558 272.03 440.629 272.996 444.273 275.742C444.512 275.923 444.736 276.381 444.997 275.691C447.337 269.946 451.763 266.365 457.26 263.954C460.494 262.47 463.975 261.6 467.525 261.39C467.872 261.39 469.256 261.085 469.604 261.034C470.07 261.374 470.553 261.689 471.052 261.978C474.335 264.441 477.026 267.61 478.926 271.253C481.331 275.56 481.983 280.971 481.23 285.867C480.165 292.817 477.608 297.008 472.45 301.497C471.972 301.911 471.241 302.579 470.763 302.986C471.299 303.378 470.806 302.986 471.4 303.095C471.994 303.204 471.299 303.552 472.037 302.979C475.022 300.676 477.318 297.662 479.484 294.568C483.236 289.208 483.989 286.578 482.57 280.042C481.237 273.846 478.607 267.839 473.913 263.779C473.037 262.941 472.251 262.014 471.567 261.012Z" fill="#424251" />
	<path d="M485.004 263.264C491.248 265.653 497.644 269.844 501.056 275.749C504.805 281.934 504.075 289.852 499.259 295.243C494.826 300.437 488.242 303.233 481.657 304.402C481.766 303.851 482.015 303.338 482.382 302.913C486.069 300.008 488.792 295.912 491.074 291.735C493.797 286.767 494.16 284.145 492.798 278.582C491.675 274.02 489.69 269.299 486.481 265.907C485.839 265.119 485.339 264.225 485.004 263.264Z" fill="#424251" />
	<path d="M472.849 261.092C473.481 261.846 474.212 262.51 475.022 263.068C479.716 267.135 483.272 271.907 484.612 278.11C486.025 284.683 484.228 290.53 480.476 295.89C478.262 298.921 475.6 301.596 472.581 303.821C471.856 304.388 471.27 304.003 470.647 303.857C470.026 303.83 469.418 303.669 468.865 303.385L470.313 302.143C475.478 297.655 479.361 292.36 480.454 285.438C481.155 280.663 480.199 275.791 477.745 271.638C475.521 267.742 472.517 264.349 468.923 261.673C468.807 261.586 468.763 261.404 468.684 261.266C470.056 261.003 471.459 260.945 472.849 261.092Z" fill="#5D5D69" />
	<path d="M486.163 263.772C486.453 264.607 487.22 265.029 487.785 265.624C491.023 268.903 493.337 272.983 494.493 277.449C495.855 283.005 494.848 288.22 492.132 293.188C489.843 297.372 486.547 300.625 482.86 303.531C482.642 303.705 482.382 303.85 482.396 304.184C480.647 304.599 478.855 304.801 477.058 304.787C477.912 303.72 479.115 303.066 480.136 302.202C485.098 297.974 488.872 292.97 490.212 286.455C491.258 281.311 490.34 275.962 487.641 271.464C485.638 267.931 482.963 264.826 479.767 262.327C479.629 262.218 479.571 262.007 479.47 261.847C481.782 262.159 484.037 262.807 486.163 263.772Z" fill="#5D5D69" />
	<path d="M453.291 314.636C454.493 318.929 455.898 323.57 457.477 327.71C457.651 328.167 457.477 328.225 457.057 328.269C456.651 328.377 456.219 328.307 455.867 328.078C455.514 327.848 455.276 327.479 455.21 327.063C453.957 323.105 452.458 318.972 451.494 314.927C452.095 314.905 452.682 314.694 453.291 314.636Z" fill="#424251" />
	<path d="M444.519 314.563C444.642 318.195 444.085 323.49 444.106 327.804C444.106 328.727 443.382 328.218 442.991 328.305C442.6 328.393 442.158 328.443 442.187 327.746C442.31 324.267 442.411 320.788 442.52 317.309C442.497 316.464 442.565 315.619 442.723 314.789C443.353 314.745 443.875 314.643 444.519 314.563Z" fill="#424251" />
	<path d="M450.792 312.341L452.552 311.833L452.9 313.176C452.402 313.528 451.813 313.727 451.205 313.75L450.792 312.341Z" fill="#5D5D69" />
	<path d="M451.205 313.75C451.632 313.154 452.284 313.212 452.9 313.176C452.98 313.481 453.103 314.011 453.183 314.324C452.694 314.675 452.091 314.828 451.495 314.752C451.415 314.498 451.278 314.004 451.205 313.75Z" fill="#424251" />
	<path d="M444.548 314.897L442.65 315.079L442.766 314.396L444.563 314.055L444.548 314.897Z" fill="#5D5D69" />
	<path d="M451.43 314.52C452.034 314.595 452.645 314.445 453.146 314.099C453.329 314.368 453.42 314.689 453.407 315.014L451.596 315.188C451.372 315.007 451.43 314.752 451.43 314.52Z" fill="#5D5D69" />
	<path d="M413.126 288.968C413.915 289.033 414.19 289.578 414.227 290.261C414.273 290.556 414.189 290.858 413.995 291.085C413.801 291.313 413.518 291.444 413.22 291.445C412.437 291.445 412.14 290.842 412.097 290.152C412.06 289.854 412.151 289.555 412.347 289.329C412.544 289.103 412.827 288.972 413.126 288.968Z" fill="#030304" />
	<path d="M409.055 290.5C408.982 291.14 408.758 291.692 408.019 291.67C407.722 291.674 407.436 291.557 407.226 291.347C407.016 291.136 406.899 290.849 406.903 290.551C406.868 290.267 406.956 289.982 407.147 289.769C407.337 289.556 407.61 289.436 407.896 289.44C408.192 289.418 408.484 289.519 408.703 289.72C408.922 289.92 409.049 290.203 409.055 290.5Z" fill="#030304" />
	<path d="M334.167 268.575C391.026 268.575 437.119 222.003 437.119 164.554C437.119 107.105 391.026 60.5327 334.167 60.5327C277.309 60.5327 231.216 107.105 231.216 164.554C231.216 222.003 277.309 268.575 334.167 268.575Z" fill="url(#paint0_linear)" />
	<path d="M292.754 125.615C296.462 125.615 299.468 122.578 299.468 118.832C299.468 115.086 296.462 112.049 292.754 112.049C289.047 112.049 286.041 115.086 286.041 118.832C286.041 122.578 289.047 125.615 292.754 125.615Z" fill="white" />
	<path d="M271.563 121.596C274.17 121.596 276.283 119.46 276.283 116.826C276.283 114.192 274.17 112.056 271.563 112.056C268.955 112.056 266.842 114.192 266.842 116.826C266.842 119.46 268.955 121.596 271.563 121.596Z" fill="white" />
	<path d="M339.417 217.459C366.256 214.233 386.234 190.864 385.49 163.565C384.745 136.266 363.524 114.044 336.549 112.316C333.176 112.098 329.789 112.217 326.439 112.673C322.047 113.097 317.744 114.196 313.681 115.935C308.953 118.253 305.909 122.175 305.909 127.398C305.925 134.191 311.371 139.693 318.093 139.709C319.24 139.709 323.13 138.461 324.056 138.149C327.596 136.907 331.348 136.402 335.086 136.663C348.308 137.498 359.169 147.525 361.18 160.755C363.192 173.985 355.81 186.844 343.446 191.65C331.081 196.455 317.073 191.909 309.791 180.728C304.181 173.298 305.46 161.411 305.46 161.24C305.245 155.151 300.661 150.134 294.671 149.431C288.682 148.727 283.081 152.548 281.489 158.424C281.242 159.897 281.124 161.388 281.136 162.882C279.965 191.558 301.699 215.918 330.049 217.705C333.169 217.943 336.305 217.868 339.41 217.482" fill="white" />
	<path d="M284.055 145.423C288.859 145.423 292.754 141.488 292.754 136.633C292.754 131.779 288.859 127.844 284.055 127.844C279.251 127.844 275.356 131.779 275.356 136.633C275.356 141.488 279.251 145.423 284.055 145.423Z" fill="white" />
	<path d="M78.7847 278.233C112.418 278.233 139.684 250.685 139.684 216.702C139.684 182.719 112.418 155.17 78.7847 155.17C45.1511 155.17 17.8857 182.719 17.8857 216.702C17.8857 250.685 45.1511 278.233 78.7847 278.233Z" fill="url(#paint1_linear)" />
	<path d="M54.2832 193.67C56.4762 193.67 58.2539 191.874 58.2539 189.658C58.2539 187.442 56.4762 185.646 54.2832 185.646C52.0902 185.646 50.3125 187.442 50.3125 189.658C50.3125 191.874 52.0902 193.67 54.2832 193.67Z" fill="white" />
	<path d="M41.7464 191.293C43.2895 191.293 44.5406 190.029 44.5406 188.469C44.5406 186.91 43.2895 185.646 41.7464 185.646C40.2032 185.646 38.9521 186.91 38.9521 188.469C38.9521 190.029 40.2032 191.293 41.7464 191.293Z" fill="white" />
	<path d="M81.887 247.995C97.9147 246.272 109.936 232.385 109.491 216.105C109.046 199.826 96.2858 186.63 80.1885 185.802C78.1938 185.673 76.1914 185.743 74.2103 186.01C71.6128 186.262 69.0685 186.913 66.666 187.942C63.8718 189.309 62.0703 191.657 62.0703 194.718C62.0743 198.738 65.297 201.998 69.2764 202.006C70.4749 201.8 71.6534 201.49 72.7985 201.077C78.0712 199.234 83.9068 200.175 88.3504 203.584C92.794 206.993 95.2579 212.42 94.9168 218.047C94.4505 225.267 89.4718 231.38 82.5488 233.232C75.6257 235.083 68.3057 232.261 64.3644 226.219C61.0482 221.806 61.8055 214.792 61.8055 214.688C61.6951 211.076 58.9811 208.091 55.428 207.674C51.8749 207.257 48.5559 209.534 47.6286 213.024C47.4801 213.895 47.4087 214.778 47.4154 215.662C46.7227 232.625 59.5796 247.035 76.3501 248.092C78.1957 248.229 80.0501 248.185 81.887 247.958" fill="white" />
	<path d="M49.1433 205.386C51.986 205.386 54.2905 203.058 54.2905 200.186C54.2905 197.314 51.986 194.985 49.1433 194.985C46.3006 194.985 43.9961 197.314 43.9961 200.186C43.9961 203.058 46.3006 205.386 49.1433 205.386Z" fill="white" />
	<path d="M197.001 273.775C215.95 273.775 231.311 258.255 231.311 239.109C231.311 219.963 215.95 204.443 197.001 204.443C178.052 204.443 162.691 219.963 162.691 239.109C162.691 258.255 178.052 273.775 197.001 273.775Z" fill="url(#paint2_linear)" />
	<path d="M183.199 226.13C184.434 226.13 185.435 225.119 185.435 223.871C185.435 222.624 184.434 221.613 183.199 221.613C181.965 221.613 180.964 222.624 180.964 223.871C180.964 225.119 181.965 226.13 183.199 226.13Z" fill="white" />
	<path d="M176.14 224.792C177.009 224.792 177.714 224.081 177.714 223.202C177.714 222.324 177.009 221.613 176.14 221.613C175.271 221.613 174.566 222.324 174.566 223.202C174.566 224.081 175.271 224.792 176.14 224.792Z" fill="white" />
	<path d="M198.751 256.739C207.685 255.651 214.328 247.868 214.08 238.78C213.832 229.692 206.774 222.291 197.795 221.702C196.672 221.629 195.544 221.669 194.428 221.82C192.962 221.96 191.526 222.325 190.17 222.905C188.627 223.538 187.607 225.041 187.582 226.724C187.582 228.99 189.398 230.828 191.641 230.832C192.319 230.717 192.985 230.543 193.633 230.312C194.813 229.895 196.063 229.723 197.31 229.807C201.716 230.086 205.335 233.429 206.004 237.839C206.673 242.248 204.211 246.533 200.09 248.132C195.969 249.732 191.301 248.215 188.876 244.488C187.008 242.007 187.405 238.054 187.405 237.995C187.333 235.967 185.805 234.296 183.81 234.062C181.815 233.829 179.95 235.101 179.42 237.058C179.337 237.549 179.298 238.047 179.302 238.544C178.912 248.101 186.156 256.219 195.604 256.814C196.643 256.893 197.688 256.868 198.722 256.739" fill="white" />
	<path d="M180.301 232.735C181.901 232.735 183.199 231.424 183.199 229.807C183.199 228.191 181.901 226.88 180.301 226.88C178.701 226.88 177.404 228.191 177.404 229.807C177.404 231.424 178.701 232.735 180.301 232.735Z" fill="white" />
	<path d="M448.274 273.664C458.373 273.664 466.561 265.391 466.561 255.187C466.561 244.982 458.373 236.709 448.274 236.709C438.174 236.709 429.986 244.982 429.986 255.187C429.986 265.391 438.174 273.664 448.274 273.664Z" fill="url(#paint3_linear)" />
	<path d="M440.921 248.27C441.579 248.27 442.112 247.731 442.112 247.066C442.112 246.401 441.579 245.863 440.921 245.863C440.263 245.863 439.729 246.401 439.729 247.066C439.729 247.731 440.263 248.27 440.921 248.27Z" fill="white" />
	<path d="M437.156 247.556C437.619 247.556 437.994 247.177 437.994 246.71C437.994 246.242 437.619 245.863 437.156 245.863C436.693 245.863 436.317 246.242 436.317 246.71C436.317 247.177 436.693 247.556 437.156 247.556Z" fill="white" />
	<path d="M449.208 264.585C453.966 264 457.502 259.854 457.37 255.013C457.239 250.172 453.483 246.227 448.7 245.907C448.099 245.869 447.496 245.892 446.899 245.974C446.119 246.05 445.355 246.245 444.634 246.554C443.809 246.889 443.264 247.691 443.252 248.589C443.275 249.788 444.234 250.754 445.421 250.774C445.78 250.71 446.134 250.618 446.48 250.499C447.106 250.274 447.772 250.183 448.436 250.231C450.142 250.339 451.676 251.319 452.502 252.832C452.969 253.673 453.183 254.633 453.12 255.595C452.98 257.764 451.486 259.601 449.406 260.159C447.327 260.716 445.128 259.869 443.943 258.055C442.95 256.732 443.207 254.629 443.207 254.592C443.164 253.514 442.351 252.628 441.289 252.504C440.228 252.38 439.236 253.055 438.95 254.095C438.903 254.357 438.881 254.623 438.884 254.89C438.678 259.984 442.539 264.311 447.575 264.63C448.129 264.671 448.686 264.656 449.237 264.585" fill="white" />
	<path d="M439.369 251.791C440.222 251.791 440.914 251.093 440.914 250.231C440.914 249.369 440.222 248.671 439.369 248.671C438.517 248.671 437.825 249.369 437.825 250.231C437.825 251.093 438.517 251.791 439.369 251.791Z" fill="white" />
	<defs>
		<filter id="filter0_d" x="0.816406" y="0" width="530" height="530" filterUnits="userSpaceOnUse" color-interpolation-filters="sRGB">
			<feFlood flood-opacity="0" result="BackgroundImageFix" />
			<feColorMatrix in="SourceAlpha" type="matrix" values="0 0 0 0 0 0 0 0 0 0 0 0 0 0 0 0 0 0 127 0" />
			<feOffset dy="2" />
			<feGaussianBlur stdDeviation="12" />
			<feColorMatrix type="matrix" values="0 0 0 0 0 0 0 0 0 0 0 0 0 0 0 0 0 0 0.1 0" />
			<feBlend mode="normal" in2="BackgroundImageFix" result="effect1_dropShadow" />
			<feBlend mode="normal" in="SourceGraphic" in2="effect1_dropShadow" result="shape" />
		</filter>
		<linearGradient id="paint0_linear" x1="231.216" y1="60.5327" x2="231.216" y2="268.575" gradientUnits="userSpaceOnUse">
			<stop stop-color="#8C61E1" />
			<stop offset="1" stop-color="#5F45BA" />
		</linearGradient>
		<linearGradient id="paint1_linear" x1="17.8857" y1="155.17" x2="17.8857" y2="278.233" gradientUnits="userSpaceOnUse">
			<stop stop-color="#8C61E1" />
			<stop offset="1" stop-color="#5F45BA" />
		</linearGradient>
		<linearGradient id="paint2_linear" x1="162.691" y1="204.443" x2="162.691" y2="273.775" gradientUnits="userSpaceOnUse">
			<stop stop-color="#8C61E1" />
			<stop offset="1" stop-color="#5F45BA" />
		</linearGradient>
		<linearGradient id="paint3_linear" x1="429.986" y1="236.709" x2="429.986" y2="273.664" gradientUnits="userSpaceOnUse">
			<stop stop-color="#8C61E1" />
			<stop offset="1" stop-color="#5F45BA" />
		</linearGradient>
	</defs>
</svg>
