<?xml version="1.0" encoding="UTF-8"?>
<svg width="654px" height="530px" viewBox="0 0 654 530" version="1.1" xmlns="http://www.w3.org/2000/svg" xmlns:xlink="http://www.w3.org/1999/xlink">
    <!-- Generator: Sketch 60 (88103) - https://sketch.com -->
    <title>Group 9 Copy</title>
    <desc>Created with Sketch.</desc>
    <defs>
        <circle id="path-1" cx="325.275652" cy="241" r="241"></circle>
        <filter x="-7.7%" y="-7.3%" width="115.4%" height="115.4%" filterUnits="objectBoundingBox" id="filter-2">
            <feOffset dx="0" dy="2" in="SourceAlpha" result="shadowOffsetOuter1"></feOffset>
            <feGaussianBlur stdDeviation="12" in="shadowOffsetOuter1" result="shadowBlurOuter1"></feGaussianBlur>
            <feColorMatrix values="0 0 0 0 0   0 0 0 0 0   0 0 0 0 0  0 0 0 0.1 0" type="matrix" in="shadowBlurOuter1"></feColorMatrix>
        </filter>
    </defs>
    <g id="Page-1" stroke="none" stroke-width="1" fill="none" fill-rule="evenodd">
        <g id="Group-9-Copy" transform="translate(-19.000000, 22.000000)">
            <g id="Oval">
                <use fill="black" fill-opacity="1" filter="url(#filter-2)" xlink:href="#path-1"></use>
                <use fill="#FFFFFF" fill-rule="evenodd" xlink:href="#path-1"></use>
            </g>
            <g id="How_Proto" transform="translate(0.000000, 1.000000)">
                <g id="Layer_5" transform="translate(81.000000, 0.000000)" fill-rule="nonzero">
                    <ellipse id="Oval" fill="#FFFFFF" cx="240.402582" cy="240" rx="240.19557" ry="240"></ellipse>
                    <path d="M68.0888987,285.7673 C68.0888987,301.828137 80.8201772,314.853476 96.5287848,314.853476 C98.5155314,314.861549 100.497474,314.657602 102.440823,314.244867 L395.595101,314.244867 C407.772316,314.244867 417.648038,304.146008 417.648038,291.686692 C417.648038,279.227376 407.772316,269.092015 395.595101,269.092015 L392.100241,269.092015 C392.100241,251.479848 378.139063,237.207605 360.920481,237.207605 C355.232593,237.21304 349.659983,238.810542 344.83438,241.819011 C338.103571,231.78011 326.819449,225.74021 314.726215,225.703422 C300.472785,225.703422 288.143354,234.044106 282.08519,246.205323 C278.32526,238.680396 270.56704,233.989184 262.151134,234.151672 C253.735228,234.31416 246.164175,239.301336 242.697987,246.965779 C239.044823,236.98251 229.692722,229.858555 218.672342,229.858555 C208.53271,229.919044 199.382742,235.948861 195.334709,245.238023 C186.661427,233.901154 173.206256,227.237499 158.924835,227.206084 C137.279835,227.206084 119.141873,242.360456 113.960468,262.844106 C109.017701,258.876625 102.868933,256.711395 96.5287848,256.705703 C80.8140886,256.681369 68.0888987,269.70038 68.0888987,285.7673 Z" id="Path" fill="#37DD9E"></path>
                </g>
                <g id="Layer_6" transform="translate(87.000000, 260.000000)" fill="#2EBF8B" fill-rule="nonzero">
                    <path d="M472.695624,13.8624309 C414.894659,5.16574586 350.269588,0.303867403 282.05897,0.303867403 C175.223063,0.303867403 77.1653539,12.2337017 0.371338481,32.1309392 C24.1248263,139.596685 120.094517,220 234.880721,220 C356.089254,220 456.320206,130.359116 472.695624,13.8624309 Z" id="Path"></path>
                </g>
                <g id="Illustration" transform="translate(0.000000, 1.000000)">
                    <path d="M441.721664,372.706534 C441.721664,372.706534 513.366347,416.169205 490.797116,371.15625 L651.197477,344.503523 C651.197477,344.503523 711.676203,307.728352 628.683011,277.628523 L55.9880018,300.122841 L90.0639512,407.894943 L441.484349,373.284091" id="Path" fill="#5F45BA" fill-rule="nonzero"></path>
                    <path d="M667.596528,333.001023 C651.672107,360.176591 650.759358,337.700511 574.544846,355.495341 C569.342179,356.71125 530.982396,360.249545 488.417884,364.456591 C479.028743,345.780227 450.082441,329.243864 469.134548,375.338977 C463.159087,370.183523 452.875452,363.787841 439.086863,364.620739 C374.537278,368.420455 108.227649,400.18 106.584702,400.398864 C100.676175,401.189205 119.302333,356.43767 124.43198,357.842045 C169.953797,370.475341 192.352649,342.898523 230.596817,344.53392 C260.772288,345.828864 399.759566,328.921648 409.002667,331.15892 C419.955651,333.83392 571.423246,318.562102 617.194548,310.014261 C653.753174,303.186932 663.750814,306.895455 667.888608,310.421591 C676.322405,317.65625 668.655316,331.189318 667.596528,333.001023 Z" id="Path" fill="#534784" fill-rule="nonzero"></path>
                    <ellipse id="Oval" fill="#D7CDF9" fill-rule="nonzero" transform="translate(68.617020, 354.977822) rotate(-30.140000) translate(-68.617020, -354.977822) " cx="68.6170197" cy="354.977822" rx="45.2560403" ry="57.6471089"></ellipse>
                    <line x1="174.030741" y1="74.8817614" x2="174.030741" y2="227.587784" id="Path" stroke="#BCA9FF" stroke-width="1.26" stroke-linecap="round"></line>
                    <line x1="248.584051" y1="0.151988636" x2="248.584051" y2="227.587784" id="Path" stroke="#BCA9FF" stroke-width="1.26" stroke-linecap="round"></line>
                    <line x1="396.83877" y1="53.9073295" x2="396.83877" y2="227.587784" id="Path" stroke="#BCA9FF" stroke-width="1.26" stroke-linecap="round"></line>
                    <polyline id="Path" stroke="#BCA9FF" stroke-width="1.86" stroke-linecap="round" stroke-linejoin="round" points="179.263834 85.6182386 175.777134 82.1285795 179.263834 78.645"></polyline>
                    <line x1="175.777134" y1="82.1346591" x2="246.904593" y2="82.1346591" id="Path" stroke="#BCA9FF" stroke-width="1.86" stroke-linecap="round" stroke-linejoin="round"></line>
                    <polyline id="Path" stroke="#BCA9FF" stroke-width="1.86" stroke-linecap="round" stroke-linejoin="round" points="243.417893 78.645 246.904593 82.1285795 243.417893 85.6182386"></polyline>
                    <polyline id="Path" stroke="#BCA9FF" stroke-width="1.86" stroke-linecap="round" stroke-linejoin="round" points="254.176157 85.6182386 250.689458 82.1285795 254.176157 78.645"></polyline>
                    <line x1="250.689458" y1="82.1346591" x2="393.52245" y2="82.1346591" id="Path" stroke="#BCA9FF" stroke-width="1.86" stroke-linecap="round" stroke-linejoin="round"></line>
                    <polyline id="Path" stroke="#BCA9FF" stroke-width="1.86" stroke-linecap="round" stroke-linejoin="round" points="391.319684 78.645 394.806383 82.1285795 391.319684 85.6182386"></polyline>
                    <path d="M387.352269,131.196591 C417.793016,131.196591 442.470118,106.541573 442.470118,76.1280682 C442.470118,45.7145629 417.793016,21.0595455 387.352269,21.0595455 C356.911522,21.0595455 332.234421,45.7145629 332.234421,76.1280682 C332.234421,106.541573 356.911522,131.196591 387.352269,131.196591 Z" id="Oval" stroke="#BCA9FF" stroke-width="5.05" stroke-linecap="round" stroke-dasharray="1.86"></path>
                </g>
                <g id="Layer_7" transform="translate(297.000000, 147.000000)" fill-rule="nonzero">
                    <g id="_1yGvSJ.tif">
                        <path d="M167.257902,0.414915254 C171.915285,0.457627119 181.631865,1.3240678 186.204016,2.31864407 C186.41101,2.65423729 189.034974,3.77694915 189.327202,3.99661017 C196.121503,9.1159322 199.506477,14.3389831 203.865544,21.6610169 C209.59443,31.2711864 211.408679,43.4867797 209.344819,54.5369492 C206.842617,68.1254237 198.995078,77.3755932 188.901036,86.3694915 C186.812824,88.2 184.383679,88.6942373 182.648575,90.939661 C177.632599,91.2387894 172.601985,91.1898591 167.592746,90.7932203 C166.143782,90.6711864 166.125518,91.1166102 166.53342,92.2759322 C170.443466,103.236151 174.913978,113.987332 179.927202,124.48678 C182.240674,129.368136 184.724611,134.200678 187.196373,139.021017 C187.701684,140.015593 187.939119,140.320678 186.484067,140.47322 C184.261917,140.698983 183.147798,139.924068 182.15544,137.904407 C174.886269,123.168814 167.915415,108.32339 162.758808,92.6847458 C162.369171,91.5071186 162.618782,89.8474576 160.536658,89.7681356 C159.580829,89.7315254 159.361658,89.8108475 159.379922,90.7627119 C159.580829,99.8481356 159.873057,108.939661 160.597539,118.000678 C161.206347,125.084746 162.003886,132.15661 162.716192,139.234576 C162.770984,139.783729 162.953627,140.625763 162.028238,140.4 C160.932383,140.131525 159.136399,141.559322 158.795466,139.35661 C158.344948,136.446102 158.05272,133.505085 157.76658,130.570169 C156.390191,117.092729 155.697287,103.553953 155.690544,90.0061017 C155.690544,88.7857627 155.081736,88.6332203 154.21114,88.3952542 C142.90557,85.3016949 132.610622,80.2189831 124.032513,72 C123.338472,71.3349153 122.668782,70.6454237 121.712953,69.6935593 C124.148187,82.4033898 127.192228,95.180339 130.236269,107.347119 C129.018653,107.725424 127.740155,107.957288 126.528627,108.329492 C123.539378,96.6264407 120.629275,84.4779661 118.35842,71.9450847 C115.527461,85.5457627 114.41943,99.3172881 113.457513,112.429831 C112.239896,112.692203 110.979663,112.924068 109.743782,113.192542 C109.883808,105.205424 110.809197,96.6508475 111.765026,88.7308475 C112.191192,85.1857627 112.781736,81.6528814 113.287047,78.1138983 C113.31738,77.7728796 113.31738,77.4298323 113.287047,77.0888136 C112.982291,77.2135221 112.688954,77.3646017 112.410363,77.540339 C100.386399,86.3389831 88.4963731,86.4671186 76.1253886,77.9308475 C75.8940415,77.7722034 75.6566062,77.6379661 75.419171,77.4915254 C75.3262229,77.7955395 75.265014,78.1084026 75.2365285,78.4250847 C75.4717802,87.5023019 76.1952833,96.5601997 77.403886,105.559322 C79.0233161,117.634576 81.1054404,129.624407 84.380829,141.382373 C84.5086788,141.827797 84.819171,142.602712 83.9546632,142.498983 C82.7370466,142.315932 80.9471503,143.853559 80.3992228,141.504407 C79.1816062,136.287458 77.8544041,131.082712 76.8255181,125.823051 C73.6292746,109.458305 71.4862694,92.959322 71.2914508,76.2467797 C71.2914508,76.039322 71.2549223,75.8318644 71.1757772,75.0630508 C69.3075935,80.4610033 67.7485351,85.9614848 66.5062176,91.5376271 C62.7424082,108.078146 61.2047033,125.049187 61.9340674,141.998644 C62.0436528,144.616271 60.3085492,143.719322 59.115285,143.938983 C57.4532383,144.237966 57.9341969,142.932203 57.8976684,142.138983 C57.3436528,119.80678 59.8154145,97.8772881 66.5975389,76.5213559 C66.6973024,76.0684147 66.7704849,75.6100011 66.8167098,75.1484746 C62.0375648,80.7315254 56.180829,83.7457627 49.4900259,85.1613559 C43.7185233,86.3816949 38.0139896,86.0949153 32.607772,83.4955932 C24.1757772,79.4379661 21.740544,70.5905085 26.8240933,62.7132203 C27.9016839,61.0535593 29.0584197,59.3816949 30.6595855,58.2772881 C32.4312176,57.0569492 32.3703368,55.8366102 31.8772021,53.9572881 C28.0112694,39.9233898 21.1439119,27.3844068 13.1624352,15.3701695 C12.5536269,14.4305085 12.0604922,14.259661 10.9829016,14.76 C6.98303109,16.5905085 2.90401554,15.5776271 0.52357513,12.2888136 C0.371373057,11.3491525 0.140025907,10.9159322 0.468782383,10.2020339 C3.32409326,5.77220339 10.6967617,5.16813559 13.509456,9.17084746 C23.0799223,22.7715254 31.2988342,37.0616949 35.6274611,53.3044068 C35.8648964,54.1769492 36.0658031,54.4088136 36.9851036,53.9145763 C38.3116265,53.2364951 39.6898473,52.6652032 41.1067358,52.2061017 C42.8418394,51.5959322 45.1005181,51.6325424 46.2389896,50.4915254 C47.3774611,49.3505085 46.3911917,46.9708475 46.6773316,45.1647458 C46.6833568,45.1059173 46.6833568,45.0466251 46.6773316,44.9877966 C46.8173575,33.5715254 45.2161917,22.5457627 39.4568653,12.4413559 C38.848057,11.4284746 38.6106218,10.879322 37.3138601,11.8738983 C34.2698187,14.2169492 29.4784974,13.2894915 27.7129534,10.2447458 C26.0813472,7.43186441 27.4389896,4.71661017 31.3658031,2.92271186 C31.4084197,2.92271186 31.4266839,2.82508475 31.4571244,2.77627119 C32.8330311,2.34305085 33.7158031,2.53830508 34.9212435,2.67864407 C38.2270725,3.6 40.0595855,6.14440678 41.7459845,8.86576271 C49.0090674,20.5566102 50.9268135,33.4922034 50.4945596,46.9525424 C50.3849741,50.3633898 50.2693005,50.3084746 53.611658,50.4854237 C57.3216801,50.6104262 60.9325222,51.7177848 64.0770725,53.6949153 C64.9294041,54.2501695 65.0694301,54.1952542 65.1972798,53.1457627 C66.755829,40.2284746 73.5501295,31.4054237 86.0428756,27.5857627 C95.101943,24.8155932 103.594819,26.64 111.284067,32.1864407 C111.789378,32.5525424 112.282513,33.4922034 112.836528,32.04 C117.439119,20.0135593 126.48601,12.380339 137.797668,7.12677966 C144.49456,4.00271186 151.550648,1.84881356 159.008549,1.34237288 C159.733031,1.29355932 162.600518,0.634576271 163.312824,0.518644068 C163.489378,0.799322034 166.198575,2.23322034 166.442098,2.41627119 C174.003497,7.97491525 178.44171,13.1979661 183.214767,21.3315254 C188.395725,30.1545763 189.996891,41.3755932 188.651425,51.5715254 C186.739767,66.0508475 181.625777,74.8677966 171.087306,84.4169492 C170.113212,85.3016949 168.652073,86.7172881 167.653627,87.5959322 C168.779922,88.3769492 167.732772,87.5227119 168.980829,87.7789831 C170.228886,88.0352542 168.779922,88.7369492 170.289767,87.5227119 C176.37785,82.6413559 181.041321,76.240678 185.406477,69.7179661 C192.967876,58.4237288 194.410751,52.9871186 191.177979,39.3864407 C188.133938,26.5728814 182.405052,14.2169492 172.475389,5.98576271 C170.541091,4.32258651 168.791775,2.45479581 167.257902,0.414915254 Z" id="Path" fill="#424251"></path>
                        <path d="M195.263083,4.49694915 C208.352461,9.18305085 221.819301,17.6033898 229.167617,29.7152542 C237.19171,42.9376271 236.114119,58.2711864 226.287953,70.279322 C217.308031,81.2623729 203.762047,87.4189831 190.118653,90.079322 C190.082124,89.3776271 191.117098,87.3274576 191.567617,86.9552542 C199.104663,80.7498305 204.596114,72.1342373 209.168264,63.3538983 C214.598834,52.92 215.256347,47.4528814 212.157513,35.9633898 C209.630959,26.5362712 205.30842,16.8101695 198.489767,9.91525424 C197.10354,8.31418744 196.011117,6.47977106 195.263083,4.49694915 Z" id="Path" fill="#424251"></path>
                        <path d="M169.851425,0.524745763 C171.069041,2.24542373 172.938083,3.22779661 174.508808,4.53355932 C184.44456,12.7586441 192.036399,22.5213559 195.086528,35.3410169 C198.325389,48.9355932 194.843005,61.1572881 187.281606,72.4454237 C182.916451,78.9742373 177.315415,84.3620339 171.215155,89.2738983 C169.705311,90.4942373 168.512047,89.7071186 167.203109,89.4325424 C165.894171,89.1579661 164.597409,89.3166102 163.477202,88.5416949 L166.399482,85.899661 C176.944041,76.3444068 184.773316,65.1538983 186.684974,50.6928814 C188.03044,40.4969492 185.637824,30.9722034 180.456865,22.1491525 C175.67772,14.0338983 169.242617,7.40745763 161.681218,1.83050847 C161.437694,1.65355932 161.328109,1.27525424 161.157642,0.994576271 C164.02513,0.231864407 166.941321,0.421016949 169.851425,0.524745763 Z" id="Path" fill="#5D5D69"></path>
                        <path d="M197.698316,5.49152542 C198.337565,7.21830508 199.956995,8.05423729 201.150259,9.26847458 C207.968912,16.1694915 213.076813,24.0955932 215.609456,33.5288136 C218.653497,45.0183051 216.827073,55.8976271 211.390415,66.3254237 C206.824352,75.1118644 200.127461,82.0189831 192.590415,88.2244068 C192.139896,88.5966102 191.610233,88.8955932 191.646762,89.5972881 C188.036528,90.6528814 184.341062,90.9213559 180.584715,91.08 C182.319819,88.8345763 184.785492,87.4189831 186.867617,85.5884746 C196.992098,76.5945763 204.60829,66.0630508 207.110492,52.4501695 C209.15,41.4 206.842617,31.0454237 201.113731,21.4291525 C196.795257,14.1779602 191.098726,7.8467683 184.34715,2.79457627 C184.091235,2.50551485 183.88545,2.17552321 183.738342,1.81830508 C188.545619,2.35320309 193.248837,3.59073792 197.698316,5.49152542 L197.698316,5.49152542 Z" id="Path" fill="#5D5D69"></path>
                        <path d="M131.642617,112.594576 C134.333549,121.454237 137.462824,131.027797 140.920855,139.625085 C141.298316,140.570847 141.006088,140.698983 140.080699,140.814915 C138.041192,141.071186 136.908808,140.509831 136.184326,138.374237 C133.408161,130.210169 130.096244,121.698305 127.928886,113.357288 C129.183031,113.204746 130.388472,112.741017 131.642617,112.594576 Z" id="Path" fill="#424251"></path>
                        <path d="M113.414896,112.881356 C113.834974,120.355932 112.909585,131.442712 113.140933,140.4 C113.189637,142.322034 111.65544,141.290847 110.851813,141.486102 C110.048187,141.681356 109.122798,141.809492 109.14715,140.36339 C109.262824,133.132881 109.30544,125.908475 109.390674,118.677966 C109.390674,117.115932 109.293264,114.974237 109.695078,113.424407 C111.004016,113.253559 112.09987,113.021695 113.414896,112.881356 Z" id="Path" fill="#424251"></path>
                        <path d="M126.345984,107.92678 L129.998834,106.791864 L130.778109,109.568136 C129.603109,110.227119 128.525518,110.91661 127.277461,110.84339 L126.345984,107.92678 Z" id="Path" fill="#5D5D69"></path>
                        <path d="M127.271373,110.84339 C128.135881,109.592542 129.487435,109.677966 130.772021,109.568136 C130.954663,110.208814 131.222539,111.301017 131.380829,111.935593 C130.345855,112.820339 129.152591,112.911864 127.892358,112.911864 C127.746244,112.387119 127.435751,111.368136 127.271373,110.84339 Z" id="Path" fill="#424251"></path>
                        <polygon id="Path" fill="#5D5D69" points="113.494041 113.522034 109.56114 113.985763 109.768135 112.564068 113.487953 111.764746"></polygon>
                        <path d="M127.770596,112.423729 C129.030829,112.423729 130.284974,112.368814 131.319948,111.484068 C131.722406,112.026965 131.936255,112.687092 131.928756,113.36339 L128.166321,113.808814 C127.685363,113.442712 127.776684,112.917966 127.770596,112.423729 Z" id="Path" fill="#5D5D69"></path>
                        <path d="M47.0547927,61.0535593 C48.6985751,61.1450847 49.3073834,62.2738983 49.4047927,63.6955932 C49.5022021,65.1172881 48.7168394,66.1362712 47.3591969,66.1972881 C45.7336788,66.2705085 45.0944301,64.9769492 44.9787565,63.5613559 C44.8630829,62.1457627 45.6119171,61.3037288 47.0547927,61.0535593 Z" id="Path" fill="#030304"></path>
                        <path d="M38.6654145,64.4216949 C38.5436528,65.7518644 38.0931347,66.8989831 36.5650259,66.8623729 C35.9476074,66.8888855 35.3459564,66.6627358 34.8982045,66.2358451 C34.4504525,65.8089544 34.1950642,65.2179951 34.1906736,64.5986441 C34.1065804,64.0097926 34.2795033,63.4131594 34.6652844,62.9611018 C35.0510654,62.5090442 35.6123578,62.245325 36.205829,62.2372881 C37.5817358,62.139661 38.4279793,63.0244068 38.6654145,64.4216949 Z" id="Path" fill="#030304"></path>
                    </g>
                </g>
                <g id="Layer_7_copy" transform="translate(42.000000, 160.000000)" fill-rule="nonzero">
                    <g id="_1yGvSJ.tif-2">
                        <path d="M56.7264,20.840625 C47.89824,30.225 43.75168,43.1803125 42.31072,56.2635938 C40.78464,70.1390625 42.88224,75.3492188 51.7712,85.5989063 C56.90272,91.528125 62.29568,97.2623438 68.9472,101.375625 C70.59488,102.393281 69.01408,101.893594 70.27872,101.467031 C71.54336,101.040469 70.55232,102.03375 71.56768,101.119688 C70.49152,100.370156 68.84992,99.1514063 67.77984,98.3957813 C56.15488,90.23625 49.99584,82.1315625 46.31744,68.0184375 C43.72736,58.0795313 43.928,46.7634375 47.9712,37.3790625 C51.69824,28.7198438 55.4496,22.9917188 62.2592,16.5445313 C62.47808,16.3373438 64.98912,14.5823437 65.12288,14.2776562 C65.8464,14.308125 68.77088,14.6067188 69.48832,14.5640625 C76.9424,14.1375 84.1776,15.3989063 91.22432,17.6657813 C103.08032,21.474375 112.99072,27.9154688 119.03424,39.2559375 C119.76992,40.633125 120.13472,39.6398438 120.5968,39.2132813 C127.528,32.7660938 135.71776,29.9020313 145.0384,31.5229688 C157.89152,33.759375 165.7104,41.6629688 168.84768,54.2709375 C169.10304,55.2946875 169.25504,55.33125 170.03328,54.6792188 C172.895396,52.3215383 176.329478,50.765663 179.98624,50.1698438 C183.26944,49.5604688 183.16,49.651875 182.63104,46.2820313 C180.5456,32.9976563 180.8496,19.93875 186.60128,7.45265625 C187.93888,4.5459375 189.44064,1.79765625 192.60224,0.48140625 C193.78176,0.18890625 194.63296,-0.12796875 196.0496,0.14015625 C196.08608,0.18890625 196.1104,0.26203125 196.15904,0.27421875 C200.28736,1.59046875 201.97152,4.11328125 200.7008,7.09921875 C199.32672,10.335 194.70592,11.8523438 191.39232,9.9084375 C189.98176,9.08578125 189.78112,9.65859375 189.33728,10.7371875 C184.87456,21.4682813 184.6496,32.589375 186.19392,43.8871875 C186.200229,43.9451627 186.212453,44.0023367 186.2304,44.0578125 C186.74112,45.8128125 185.99328,48.2442188 187.3248,49.2801563 C188.65632,50.3160938 190.82688,49.9748438 192.6144,50.3465625 C194.078893,50.6229701 195.518522,51.0183367 196.91904,51.52875 C197.88576,51.9004688 198.056,51.650625 198.18368,50.7548438 C200.47584,34.125 206.84768,18.9454688 214.6544,4.265625 C216.94656,-0.04875 224.33376,-0.365625 227.70816,3.65625 C228.1216,4.3265625 227.94528,4.78359375 227.9088,5.728125 C225.95712,9.286875 222.0416,10.8103125 217.85248,9.47578125 C216.7216,9.11625 216.2656,9.34171875 215.76704,10.3532813 C209.3344,23.2476563 204.08128,36.5564063 201.98368,50.9132813 C201.704,52.8389063 201.7952,54.0576563 203.69824,55.0448438 C205.43104,55.940625 206.7808,57.451875 208.05152,58.9692188 C214.05856,66.1415625 212.7392,75.2090625 204.88384,80.2973438 C199.8496,83.5392188 194.23168,84.5629688 188.3584,84.0389002 C181.55488,83.4660938 175.3776,81.2053125 169.95424,76.269375 C170.059722,76.7209574 170.18962,77.1664585 170.34336,77.6039063 C179.6944,97.9265625 184.85632,119.352188 187.05728,141.551719 C187.13632,142.337813 187.7808,143.56875 186.09056,143.477344 C184.87456,143.410313 183.27552,144.513281 183.05056,141.905156 C181.676988,125.031987 178.05559,108.419091 172.28288,92.5092188 C170.358639,87.1255769 168.125583,81.8578889 165.59488,76.7325 C165.59488,77.5003125 165.59488,77.7135938 165.62528,77.9207813 C167.49792,94.5079688 167.4128,111.119531 166.23328,127.737188 C165.8624,133.075313 165.20576,138.395156 164.63424,143.721094 C164.37888,146.115938 162.40896,144.817969 161.22944,145.147031 C160.38432,145.378594 160.62144,144.537656 160.67008,144.086719 C162.46368,132.033281 163.04736,119.894531 163.16896,107.725313 C163.27547,98.6501846 162.897972,89.5758367 162.03808,80.5410938 C161.971963,80.2304583 161.872059,79.9280259 161.74016,79.6392188 C161.52736,79.8159375 161.3024,79.9804688 161.10176,80.1632813 C149.89024,90.1570313 138.09504,91.50375 125.08992,84.2765625 C124.79158,84.1395791 124.48248,84.0274807 124.16576,83.9414063 C124.169733,84.283043 124.204326,84.6236311 124.26912,84.9590625 C125.20544,88.4020313 126.22688,91.8267188 127.09024,95.3184375 C129.01152,103.045313 130.98752,111.405938 132.11232,119.303438 C130.85376,119.19375 129.60128,119.120625 128.33664,119.010938 C125.7648,106.134844 122.96192,92.625 118.48096,79.4990625 C117.77568,92.1984375 116.39552,104.599219 114.87552,116.567344 C113.62912,116.341875 112.33408,116.274844 111.0816,116.055469 C112.59552,103.618125 114,90.5835938 114.8512,77.6648438 C114.02432,78.7190625 113.44064,79.4929688 112.83264,80.2364063 C105.32992,89.4440625 95.75392,95.7571875 84.86464,100.23 C84.0256,100.577344 83.43584,100.778438 83.59392,102.015469 C85.2635797,115.441811 86.2477956,128.944877 86.54272,142.471875 C86.62176,145.415156 86.69472,148.364531 86.60352,151.301719 C86.54272,153.532031 84.58496,152.331563 83.53312,152.739844 C82.64544,153.075 82.7184,152.221875 82.70624,151.667344 C82.536,144.568125 82.48128,137.456719 82.18336,130.339219 C81.8064,121.265625 80.96736,112.2225 80.04928,103.191563 C79.952,102.247031 79.72704,102.198281 78.78464,102.350625 C76.7296,102.685781 77.17952,104.300625 76.96064,105.519375 C73.7808,121.655625 68.69792,137.206875 63.31712,152.73375 C62.58144,154.854375 61.57216,155.780625 59.3408,155.817188 C57.8816,155.817188 58.08224,155.5125 58.4592,154.470469 C60.3136,149.382188 62.18016,144.3 63.86432,139.162969 C67.5372626,128.135918 70.6421602,116.926906 73.16672,105.580313 C73.42816,104.361563 73.3552,103.941094 71.95072,104.239688 C67.03574,105.255816 62.0564816,105.92977 57.04864,106.256719 C55.0544,104.245781 52.58592,104.075156 50.29376,102.496875 C39.14912,94.843125 30.22976,86.653125 26.10144,73.490625 C22.71488,62.79 23.00672,50.4623437 27.49984,40.2248437 C30.9168,32.4309375 33.6224,26.8185937 39.72672,20.9198437 C39.98816,20.6639062 42.45056,19.2257812 42.61472,18.8723437 C47.02272,17.3123437 56.544,15.2526562 61.15872,14.6067187 C59.9057002,16.8361333 58.4199234,18.9258276 56.7264,20.840625 L56.7264,20.840625 Z" id="Path" fill="#424251"></path>
                        <path d="M33.93248,22.18125 C21.54144,28.445625 9.23552,38.4576563 3.44736,51.3703125 C-2.86976,65.4773438 0.0912,80.535 11.3088,91.2173438 C21.55968,100.967344 35.75648,105.409688 49.6128,106.354219 C49.56416,105.653438 48.28128,103.752188 47.7888,103.441406 C39.55648,98.2251563 33.05088,90.3703125 27.43904,82.2290625 C20.75104,72.564375 19.46208,67.22625 21.0976,55.4592188 C22.4352,45.800625 25.52384,35.6301563 31.4336,27.9459375 C32.5977509,26.1863021 33.4436284,24.23494 33.93248,22.18125 Z" id="Path" fill="#424251"></path>
                        <path d="M58.64768,15.088125 C57.65056,16.9467188 55.92384,18.135 54.52544,19.6401563 C45.69728,29.0245313 39.37408,39.6398438 37.93312,52.723125 C36.40704,66.5985938 41.36224,78.2742188 50.24512,88.53 C55.38272,94.453125 61.59648,99.0965625 68.248,103.209844 C69.8896,104.2275 70.97792,103.307344 72.24256,102.874688 C73.5072,102.442031 74.80832,102.435937 75.82368,101.521875 C74.7495467,100.770312 73.6754133,100.01875 72.60128,99.2671875 C60.97632,91.11375 51.832,80.9859375 48.1536,66.8910938 C45.56352,56.9521875 46.76128,47.2204688 50.80448,37.8360938 C54.53152,29.176875 60.1008,21.8339063 66.90432,15.3867188 C67.0935766,15.1147914 67.2335309,14.8115589 67.31776,14.4909375 C64.3872,14.0826563 61.51744,14.625 58.64768,15.088125 Z" id="Path" fill="#5D5D69"></path>
                        <path d="M31.65248,23.4670312 C31.23296,25.2585937 29.7312,26.2884375 28.69152,27.6351562 C22.78784,35.34375 18.68384,43.8140625 17.36448,53.4726562 C15.72896,65.2396875 18.92096,75.7879687 25.59072,85.4526562 C31.20256,93.5878125 38.68704,99.6084375 46.92544,104.824687 C47.41792,105.135469 47.97728,105.367031 48.02592,106.043437 C51.73472,106.652812 55.45568,106.445625 59.17664,106.140937 C57.17632,104.13 54.56192,103.033125 52.26368,101.460937 C41.12512,93.8010937 32.27264,84.2826562 28.11392,71.1323437 C24.76384,60.4560937 25.73664,49.9017187 30.23584,39.6703125 C33.6199017,31.9471908 38.4848204,24.9656176 44.55424,19.1221875 C44.7797694,18.8035662 44.9503515,18.4492712 45.05888,18.0740625 C40.3507177,19.2040968 35.8337041,21.0211478 31.65248,23.4670312 Z" id="Path" fill="#5D5D69"></path>
                        <path d="M110.33984,121.411787 C108.7712,130.5525 106.84992,140.406094 104.4848,149.351719 C104.22336,150.338906 104.52736,150.430313 105.46368,150.430313 C107.51872,150.430313 108.57056,149.735625 109.02048,147.535781 C110.76544,139.102031 112.97856,130.26 114.11552,121.710469 C112.85696,121.716563 111.60448,121.405781 110.33984,121.411787 Z" id="Path" fill="#424251"></path>
                        <path d="M132.19136,119.504531 C132.79936,120.991406 132.92704,123.130313 133.13984,124.672031 C134.11872,131.826094 135.05504,138.98625 136.06432,146.134219 C136.26496,147.56625 135.32864,147.554063 134.51392,147.456563 C133.6992,147.359063 132.29472,148.577813 132.08192,146.670469 C131.2064,137.761406 128.92032,126.890156 128.43392,119.431406 C129.75936,119.4375 130.87808,119.510625 132.19136,119.504531 Z" id="Path" fill="#424251"></path>
                        <path d="M115.01536,116.134688 L111.264,115.464375 L110.83232,118.310156 C112.04832,118.815938 113.22784,119.364375 114.48032,119.138906 L115.01536,116.134688 Z" id="Path" fill="#5D5D69"></path>
                        <path d="M114.456,119.138906 C113.44672,118.005469 112.1152,118.255313 110.808,118.310156 C110.70464,118.968281 110.57696,120.083438 110.4736,120.747656 C111.60448,121.497188 112.79616,121.43625 114.04864,121.283906 C114.17632,120.729375 114.35872,119.68125 114.456,119.138906 Z" id="Path" fill="#424251"></path>
                        <polygon id="Path" fill="#5D5D69" points="128.44 120.083438 132.392 120.083438 132.01504 118.694063 128.23328 118.365"></polygon>
                        <path d="M114.13984,120.765938 C112.88736,120.918281 111.64096,121.021875 110.49184,120.278438 C110.164802,120.86569 110.040813,121.54489 110.1392,122.210156 L113.92096,122.210156 C114.38304,121.759219 114.2128,121.265625 114.13984,120.765938 Z" id="Path" fill="#5D5D69"></path>
                        <path d="M187.80512,59.8528125 C186.18784,60.1514063 185.72576,61.3335938 185.8048,62.7595313 C185.88384,64.1854688 186.78368,65.0934375 188.13952,64.98375 C189.7568,64.8557813 190.23104,63.5029688 190.17632,62.083125 C190.1216,60.6632813 189.26432,59.9198438 187.80512,59.8528125 Z" id="Path" fill="#030304"></path>
                        <path d="M196.536,62.15625 C196.81568,63.4603125 197.40544,64.5389063 198.91936,64.3378125 C199.533902,64.2874292 200.101683,63.9890781 200.49257,63.5111398 C200.883458,63.0332016 201.063936,62.4166559 200.99264,61.8028125 C201.005185,61.2086807 200.761082,60.6380716 200.32304,60.2375708 C199.884998,59.8370701 199.29571,59.6457124 198.70656,59.7126562 C197.33248,59.7553125 196.5968,60.7364063 196.536,62.15625 Z" id="Path" fill="#030304"></path>
                    </g>
                </g>
            </g>
        </g>
    </g>
</svg>