<svg width="680" height="445" viewBox="0 0 680 445" fill="none" xmlns="http://www.w3.org/2000/svg">
<path fill-rule="evenodd" clip-rule="evenodd" d="M348.643 376C452.472 376 536.643 291.83 536.643 188C536.643 84.1705 452.472 0 348.643 0C244.813 0 160.643 84.1705 160.643 188C160.643 291.83 244.813 376 348.643 376Z" fill="white"/>
<g opacity="0.7">
<path fill-rule="evenodd" clip-rule="evenodd" d="M119.693 255.257V251.103H123.841V255.257H119.693Z" stroke="#B88DFC" stroke-width="0.56" stroke-linecap="round"/>
<path fill-rule="evenodd" clip-rule="evenodd" d="M123.848 251.104V246.95H127.995V251.104H123.848Z" stroke="#B88DFC" stroke-width="0.56" stroke-linecap="round"/>
<rect x="119.693" y="246.949" width="4.1537" height="4.1475" transform="rotate(-90 119.693 246.949)" stroke="#B88DFC" stroke-width="0.56" stroke-linecap="round"/>
<path fill-rule="evenodd" clip-rule="evenodd" d="M119.693 238.635V234.481H123.841V238.635H119.693Z" stroke="#B88DFC" stroke-width="0.56" stroke-linecap="round"/>
<path fill-rule="evenodd" clip-rule="evenodd" d="M123.84 234.481V230.328H127.987V234.481H123.84Z" stroke="#B88DFC" stroke-width="0.56" stroke-linecap="round"/>
<path fill-rule="evenodd" clip-rule="evenodd" d="M123.84 242.796V238.642H127.987V242.796H123.84Z" stroke="#B88DFC" stroke-width="0.56" stroke-linecap="round"/>
<path fill-rule="evenodd" clip-rule="evenodd" d="M119.693 230.327V226.173H123.841V230.327H119.693Z" stroke="#B88DFC" stroke-width="0.56" stroke-linecap="round"/>
<path fill-rule="evenodd" clip-rule="evenodd" d="M119.693 222.02V213.469H123.841V222.02H119.693Z" stroke="#B88DFC" stroke-width="0.56" stroke-linecap="round"/>
<rect x="119.693" y="204.926" width="8.55047" height="4.1475" transform="rotate(-90 119.693 204.926)" stroke="#B88DFC" stroke-width="0.56" stroke-linecap="round"/>
<path fill-rule="evenodd" clip-rule="evenodd" d="M119.693 187.825V170.61H123.841V187.825H119.693Z" stroke="#B88DFC" stroke-width="0.56" stroke-linecap="round"/>
<path fill-rule="evenodd" clip-rule="evenodd" d="M119.693 153.395V119.572H123.841V153.395H119.693Z" stroke="#B88DFC" stroke-width="0.56" stroke-linecap="round"/>
<path fill-rule="evenodd" clip-rule="evenodd" d="M123.84 170.617V153.402H127.987V170.617H123.84Z" stroke="#B88DFC" stroke-width="0.56" stroke-linecap="round"/>
<path fill-rule="evenodd" clip-rule="evenodd" d="M123.84 213.47V204.919H127.987V213.47H123.84Z" stroke="#B88DFC" stroke-width="0.56" stroke-linecap="round"/>
<path fill-rule="evenodd" clip-rule="evenodd" d="M123.84 196.368V187.818H127.987V196.368H123.84Z" stroke="#B88DFC" stroke-width="0.56" stroke-linecap="round"/>
<path fill-rule="evenodd" clip-rule="evenodd" d="M123.848 226.174V222.02H127.995V226.174H123.848Z" stroke="#B88DFC" stroke-width="0.56" stroke-linecap="round"/>
<path d="M119.693 255.257H130.208" stroke="#B88DFC" stroke-width="0.56" stroke-linecap="round"/>
<path d="M119.693 222.02H130.208" stroke="#B88DFC" stroke-width="0.56" stroke-linecap="round"/>
<path d="M119.693 187.768H130.208" stroke="#B88DFC" stroke-width="0.47" stroke-linecap="round"/>
<path d="M119.693 153.395H130.208" stroke="#B88DFC" stroke-width="0.47" stroke-linecap="round"/>
<path d="M119.693 119.579H130.208" stroke="#B88DFC" stroke-width="0.56" stroke-linecap="round"/>
<path d="M133.257 222.571C133.56 222.571 133.806 222.324 133.806 222.02C133.806 221.716 133.56 221.47 133.257 221.47C132.953 221.47 132.707 221.716 132.707 222.02C132.707 222.324 132.953 222.571 133.257 222.571Z" fill="#BCA9FF" stroke="#B88DFC"/>
<path d="M133.257 188.319C133.56 188.319 133.806 188.072 133.806 187.768C133.806 187.464 133.56 187.218 133.257 187.218C132.953 187.218 132.707 187.464 132.707 187.768C132.707 188.072 132.953 188.319 133.257 188.319Z" fill="#BCA9FF" stroke="#B88DFC"/>
<path d="M133.257 153.945C133.56 153.945 133.806 153.698 133.806 153.394C133.806 153.09 133.56 152.844 133.257 152.844C132.953 152.844 132.707 153.09 132.707 153.394C132.707 153.698 132.953 153.945 133.257 153.945Z" fill="#BCA9FF" stroke="#B88DFC"/>
<path d="M133.257 120.129C133.56 120.129 133.806 119.883 133.806 119.579C133.806 119.275 133.56 119.028 133.257 119.028C132.953 119.028 132.707 119.275 132.707 119.579C132.707 119.883 132.953 120.129 133.257 120.129Z" fill="#BCA9FF" stroke="#B88DFC"/>
<path fill-rule="evenodd" clip-rule="evenodd" d="M139.501 197.098C139.951 197.098 140.315 196.733 140.315 196.283C140.315 195.833 139.951 195.468 139.501 195.468C139.052 195.468 138.688 195.833 138.688 196.283C138.688 196.733 139.052 197.098 139.501 197.098Z" stroke="#B88DFC" stroke-width="0.82" stroke-linecap="round" stroke-linejoin="round"/>
<path fill-rule="evenodd" clip-rule="evenodd" d="M139.501 189.141C139.951 189.141 140.315 188.776 140.315 188.326C140.315 187.876 139.951 187.511 139.501 187.511C139.052 187.511 138.688 187.876 138.688 188.326C138.688 188.776 139.052 189.141 139.501 189.141Z" stroke="#B88DFC" stroke-width="0.82" stroke-linecap="round" stroke-linejoin="round"/>
<path fill-rule="evenodd" clip-rule="evenodd" d="M139.501 181.184C139.951 181.184 140.315 180.819 140.315 180.369C140.315 179.919 139.951 179.554 139.501 179.554C139.052 179.554 138.688 179.919 138.688 180.369C138.688 180.819 139.052 181.184 139.501 181.184Z" stroke="#B88DFC" stroke-width="0.82" stroke-linecap="round" stroke-linejoin="round"/>
<path fill-rule="evenodd" clip-rule="evenodd" d="M139.501 154.131C139.951 154.131 140.315 153.766 140.315 153.316C140.315 152.866 139.951 152.501 139.501 152.501C139.052 152.501 138.688 152.866 138.688 153.316C138.688 153.766 139.052 154.131 139.501 154.131Z" stroke="#B88DFC" stroke-width="0.82" stroke-linecap="round" stroke-linejoin="round"/>
<path fill-rule="evenodd" clip-rule="evenodd" d="M139.501 146.174C139.951 146.174 140.315 145.809 140.315 145.359C140.315 144.909 139.951 144.544 139.501 144.544C139.052 144.544 138.688 144.909 138.688 145.359C138.688 145.809 139.052 146.174 139.501 146.174Z" stroke="#B88DFC" stroke-width="0.82" stroke-linecap="round" stroke-linejoin="round"/>
<path d="M140.83 336.837H235.052" stroke="#B88DFC" stroke-width="1.56" stroke-linecap="round"/>
<path d="M189.137 439.592C190.403 439.592 191.429 438.564 191.429 437.297C191.429 436.029 190.403 435.002 189.137 435.002C187.872 435.002 186.846 436.029 186.846 437.297C186.846 438.564 187.872 439.592 189.137 439.592Z" fill="#CDCCCE" stroke="#B88DFC"/>
<path fill-rule="evenodd" clip-rule="evenodd" d="M189.137 417.244C190.403 417.244 191.429 416.217 191.429 414.949C191.429 413.682 190.403 412.654 189.137 412.654C187.872 412.654 186.846 413.682 186.846 414.949C186.846 416.217 187.872 417.244 189.137 417.244Z" stroke="#B88DFC" stroke-width="2.3" stroke-linecap="round" stroke-linejoin="round"/>
<path d="M86.127 380.297C86.5481 380.297 86.9622 380.297 87.3762 380.297" stroke="#B88DFC" stroke-width="1.86" stroke-linecap="round"/>
<path d="M94.7228 379.475C114.434 375.624 129.206 359.152 130.92 339.113C132.635 319.074 120.875 300.325 102.105 293.172C83.3359 286.02 62.106 292.197 50.0852 308.308C38.0644 324.42 38.1665 346.56 50.3352 362.56" stroke="#B88DFC" stroke-width="1.86" stroke-linecap="round" stroke-dasharray="3.45"/>
<path d="M52.6895 365.419C52.9679 365.734 53.2534 366.041 53.5389 366.341" stroke="#B88DFC" stroke-width="1.86" stroke-linecap="round"/>
<path d="M86.1266 343.064C90.4476 343.064 93.9504 339.556 93.9504 335.228C93.9504 330.901 90.4476 327.393 86.1266 327.393C81.8056 327.393 78.3027 330.901 78.3027 335.228C78.3027 339.556 81.8056 343.064 86.1266 343.064Z" fill="#CDCCCE" stroke="#B88DFC"/>
<path d="M2.99805 335.313H87.6613L41.1251 392.586" stroke="#B88DFC" stroke-width="1.65" stroke-linecap="round"/>
<path d="M4.81199 339.131C6.91729 339.131 8.62398 337.422 8.62398 335.314C8.62398 333.205 6.91729 331.496 4.81199 331.496C2.70669 331.496 1 333.205 1 335.314C1 337.422 2.70669 339.131 4.81199 339.131Z" fill="#B88DFC" stroke="#B88DFC"/>
<path d="M233.388 340.311C235.493 340.311 237.2 338.602 237.2 336.493C237.2 334.385 235.493 332.676 233.388 332.676C231.283 332.676 229.576 334.385 229.576 336.493C229.576 338.602 231.283 340.311 233.388 340.311Z" fill="#CDCCCE" stroke="#B88DFC"/>
<path d="M41.1264 396.404C43.2317 396.404 44.9384 394.695 44.9384 392.586C44.9384 390.478 43.2317 388.769 41.1264 388.769C39.0211 388.769 37.3145 390.478 37.3145 392.586C37.3145 394.695 39.0211 396.404 41.1264 396.404Z" fill="#B88DFC" stroke="#B88DFC"/>
</g>
<path d="M353.766 235.319C353.766 235.319 302.789 166.969 269.655 162.156C236.521 157.343 267.615 198.737 267.615 198.737L297.682 235.319H353.766Z" fill="#0E8756"/>
<path d="M259.285 162.178C259.285 162.178 311.282 225.578 321.651 235.341" stroke="#C487F4" stroke-width="1.28" stroke-linecap="round" stroke-linejoin="round"/>
<path d="M288.084 169.681L294.189 204.139" stroke="#C487F4" stroke-width="1.28" stroke-linecap="round" stroke-linejoin="round"/>
<path d="M256.918 180.454L280.666 188.014" stroke="#C487F4" stroke-width="1.28" stroke-linecap="round" stroke-linejoin="round"/>
<path d="M271.039 202.919L299.944 210.931" stroke="#C487F4" stroke-width="1.28" stroke-linecap="round" stroke-linejoin="round"/>
<path d="M309.342 221.863L309.777 186.465" stroke="#C487F4" stroke-width="1.28" stroke-linecap="round" stroke-linejoin="round"/>
<path d="M328.463 235.326L330.082 206.922" stroke="#C487F4" stroke-width="1.28" stroke-linecap="round" stroke-linejoin="round"/>
<path d="M278.77 225.987C278.77 225.987 317.409 171.308 342.519 167.471C367.63 163.633 344.067 196.729 344.067 196.729L321.281 225.987H278.77Z" fill="#0E8756"/>
<path d="M350.351 167.471C350.351 167.471 310.941 218.19 303.082 225.987" stroke="#C487F4" stroke-linecap="round" stroke-linejoin="round"/>
<path d="M328.535 173.475L323.906 201.04" stroke="#C487F4" stroke-linecap="round" stroke-linejoin="round"/>
<path d="M352.147 182.097L334.154 188.136" stroke="#C487F4" stroke-linecap="round" stroke-linejoin="round"/>
<path d="M341.449 200.064L319.541 206.47" stroke="#C487F4" stroke-linecap="round" stroke-linejoin="round"/>
<path d="M312.417 215.221L312.089 186.902" stroke="#C487F4" stroke-linecap="round" stroke-linejoin="round"/>
<path d="M297.926 225.987L296.699 203.271" stroke="#C487F4" stroke-linecap="round" stroke-linejoin="round"/>
<path d="M306.582 227.149C306.582 227.149 266.338 194.513 246.077 196.672C225.816 198.831 250.321 218.556 250.321 218.556L273.498 235.599L306.582 227.149Z" fill="#0E8756"/>
<path d="M239.951 198.235C239.951 198.235 280.06 227.802 287.626 231.984" stroke="#C487F4" stroke-width="0.78" stroke-linecap="round" stroke-linejoin="round"/>
<path d="M258.051 198.329L266.787 217.732" stroke="#C487F4" stroke-width="0.78" stroke-linecap="round" stroke-linejoin="round"/>
<path d="M241.277 209.375L256.404 210.257" stroke="#C487F4" stroke-width="0.78" stroke-linecap="round" stroke-linejoin="round"/>
<path d="M252.953 220.5L271.189 220.873" stroke="#C487F4" stroke-width="0.78" stroke-linecap="round" stroke-linejoin="round"/>
<path d="M278.363 225.902L273.35 204.957" stroke="#C487F4" stroke-width="0.78" stroke-linecap="round" stroke-linejoin="round"/>
<path d="M291.641 230.965L288.367 213.966" stroke="#C487F4" stroke-width="0.78" stroke-linecap="round" stroke-linejoin="round"/>
<path d="M315.512 36.8249C307.824 36.4806 299.024 36.5811 293.953 42.3982C291.436 45.2674 290.302 49.1479 288.005 52.2179C275.653 68.7154 245.85 49.693 229.825 62.597C227.593 64.3973 225.796 66.7357 223.407 68.2922C219.349 70.9174 214.243 70.9174 209.45 70.9174L174.106 70.5301C164.97 70.4369 153.424 72.0221 150.842 80.8447C148.261 89.6673 157.56 97.5574 166.389 99.9388C187.92 105.749 215.077 96.876 230.325 113.23C233.648 116.816 235.916 121.199 239.082 124.9C250.842 138.658 271.367 139.468 289.41 139.21C305.813 138.973 322.544 138.701 338.212 133.701C353.88 128.702 368.628 118.215 374.797 102.901C376.694 98.1958 377.957 92.8592 381.929 89.6959C385.659 86.7479 390.843 86.5399 395.03 84.3163C406.119 78.4202 405.014 60.6459 395.907 51.9094C386.8 43.1729 373.478 41.1502 361.026 39.6726" fill="#8CF28C"/>
<path d="M344.38 101.043L313.329 120.546C313.329 120.546 298.445 122.849 287.976 114.091L265.932 94.3584" stroke="#A58681" stroke-width="5.04" stroke-linecap="round"/>
<path d="M270.703 117.434L287.997 114.041" stroke="#A58681" stroke-width="5.04" stroke-linecap="round"/>
<path d="M311.575 66.9434V66.9434C310.106 66.9434 308.901 67.7754 308.886 68.8155L306.184 214.905C306.235 216.102 307.066 217.122 308.223 217.408C309.771 217.867 311.435 217.705 312.866 216.956C313.863 216.603 314.55 215.68 314.606 214.618L311.575 66.9434Z" fill="#A58681"/>
<path d="M255.391 81.6126C258.881 81.6126 261.71 78.7673 261.71 75.2575C261.71 71.7476 258.881 68.9023 255.391 68.9023C251.901 68.9023 249.072 71.7476 249.072 75.2575C249.072 78.7673 251.901 81.6126 255.391 81.6126Z" fill="#F9879A"/>
<path d="M210.049 94.3226C213.539 94.3226 216.368 91.4773 216.368 87.9674C216.368 84.4576 213.539 81.6123 210.049 81.6123C206.559 81.6123 203.73 84.4576 203.73 87.9674C203.73 91.4773 206.559 94.3226 210.049 94.3226Z" fill="#F9879A"/>
<path d="M253.074 119.234C256.564 119.234 259.393 116.388 259.393 112.879C259.393 109.369 256.564 106.523 253.074 106.523C249.585 106.523 246.756 109.369 246.756 112.879C246.756 116.388 249.585 119.234 253.074 119.234Z" fill="#F9879A"/>
<path d="M334.61 81.6126C338.099 81.6126 340.928 78.7673 340.928 75.2575C340.928 71.7476 338.099 68.9023 334.61 68.9023C331.12 68.9023 328.291 71.7476 328.291 75.2575C328.291 78.7673 331.12 81.6126 334.61 81.6126Z" fill="#F9879A"/>
<path d="M385.515 54.8791C389.54 54.8791 392.804 51.597 392.804 47.5484C392.804 43.4998 389.54 40.2178 385.515 40.2178C381.49 40.2178 378.227 43.4998 378.227 47.5484C378.227 51.597 381.49 54.8791 385.515 54.8791Z" fill="#F9879A"/>
<path d="M198.637 38.0876C192.297 36.3959 185.556 38.5394 181.336 43.5892C179.374 46.0136 178.112 49.4279 179.389 52.2755C181.072 56.0341 186.021 56.8159 190.086 56.4573C194.997 56.0244 199.792 54.7102 204.242 52.5768C206.974 51.2641 209.705 49.4996 210.996 46.7381C212.287 43.9765 211.481 40.0745 208.685 38.9125" fill="#8CF28C"/>
<path d="M140.415 60.0076C137.013 59.8642 133.455 59.6777 130.545 57.906C127.635 56.1343 125.738 52.2036 127.336 49.1838C129.233 45.5974 134.424 45.5974 138.147 47.1539C141.314 48.4665 144.394 50.891 144.922 54.3268C145.45 57.7625 141.934 61.4996 138.803 60.1296" fill="#8CF28C"/>
<path d="M275.817 208.758C275.746 214.868 280.611 219.88 286.686 219.955C287.446 219.956 288.205 219.872 288.947 219.704H401.027C405.793 219.704 409.657 215.818 409.657 211.025C409.657 206.231 405.793 202.346 401.027 202.346H399.694C399.769 195.646 394.431 190.152 387.77 190.073C385.596 190.074 383.466 190.688 381.622 191.845C378.868 187.679 374.103 185.321 369.142 185.668C364.18 186.016 359.786 189.014 357.631 193.523C356.195 190.624 353.227 188.817 350.008 188.88C346.788 188.942 343.893 190.865 342.569 193.817C341.259 190.003 337.751 187.392 333.741 187.245C329.731 187.099 326.044 189.448 324.462 193.157C321.147 188.793 316.002 186.227 310.541 186.214C302.363 186.279 295.277 191.933 293.354 199.928C291.461 198.405 289.11 197.573 286.686 197.569C283.769 197.603 280.985 198.801 278.947 200.899C276.909 202.998 275.783 205.825 275.817 208.758Z" fill="#37DD9E"/>
<path d="M674.819 254.725C673.926 255.819 672.983 256.87 672.147 258C669.961 260.953 667.546 263.785 665.717 266.946C658.141 280.134 647.73 291.47 635.239 300.136C629.624 304.083 624.608 308.875 619.293 313.237C617.707 314.582 616.037 315.825 614.292 316.956C607.796 321.039 601.944 326.069 596.93 331.88C589.415 340.462 581.627 348.808 574.068 357.353C569.682 362.309 564.88 366.757 558.722 369.26C554.417 370.919 550 372.272 545.505 373.308C537.387 375.288 529.114 376.568 520.778 377.134C513.998 377.627 507.096 378.242 500.58 379.995C489.078 383.12 478.847 388.898 470.924 398.073C466.216 403.515 460.314 407.37 454.406 411.232C445.609 416.885 436.128 421.393 426.192 424.647C411.725 429.553 397.25 434.438 382.704 439.115C378.217 440.545 373.502 441.26 368.887 442.34C365.743 443.055 362.599 443.77 359.456 444.435H348.025L346.953 444.092H346.239L345.524 444.428H343.738C343.552 444.314 343.374 444.113 343.181 444.092C339.701 443.713 336.186 443.563 332.75 442.941C327.342 441.975 321.826 441.167 316.639 439.451C304.815 435.539 294.491 428.96 285.346 420.5C278.381 414.064 270.55 409.229 260.92 407.849C256.526 407.22 252.132 405.961 247.738 407.449C238.357 410.638 229.162 409.451 220.253 405.983C210.341 402.059 201.206 396.4 193.276 389.27C185.231 382.119 177.558 374.581 169.892 367.058C163.791 361.094 157.396 355.566 149.966 351.325C144.965 348.464 139.921 345.489 135.034 342.35C132.498 340.719 130.326 338.545 127.89 336.75C120.824 331.523 113.551 326.567 106.671 321.125C100.298 316.119 93.6392 311.993 85.6946 309.819C81.2436 308.603 76.714 307.051 72.9917 303.976C71.1128 302.424 69.148 300.979 67.1904 299.535C63.5468 296.832 60.146 293.885 57.624 290.045C58.8386 288.415 55.0234 284.581 55.0234 282.858C55.0234 280.326 55.9451 275.871 58.4599 276.672C60.5247 277.33 64.7328 275.735 66.6975 276.672C68.8408 277.68 70.1125 278.295 72.1916 279.418C73.2061 279.969 73.6919 283.802 74.2492 282.858C75.1851 281.263 75.0208 281.156 75.6209 279.418C76.8069 275.986 80.0719 267.976 82.2938 264.901L96.5827 267.762C96.7756 268.384 102.105 277.459 102.405 278.031C103.006 279.182 105.178 280.341 105.835 281.463C109.328 287.399 113.808 289.058 118.881 293.835C124.189 298.841 126.589 299.85 131.926 304.834C133.863 306.643 133.198 309.475 135.356 311.013C137.635 312.643 137.242 308.653 139.478 306.894C144.208 303.168 143.993 301.516 146.344 295.895C146.808 294.786 153.488 298.405 153.896 297.275C155.06 299.9 161.976 303.64 162.819 306.207C164.369 310.934 169.649 311.749 171.057 316.512C172.314 320.767 162.14 322.433 164.719 326.052C166.863 329.056 169.249 331.38 173.364 331.416C175.141 331.544 176.839 332.204 178.237 333.311C182.523 336.586 186.617 340.054 190.675 343.587C195.176 347.513 197.82 352.884 200.949 357.79C205.29 364.724 211.581 370.22 219.032 373.587C222.097 374.974 218.396 363.575 219.796 360.493C221.068 357.704 228.277 357.632 229.234 354.722C230.713 350.195 231.377 345.425 234.564 341.492C236.707 338.789 238.465 335.713 240.415 332.824C241.272 331.415 242.227 330.067 243.273 328.791C245.852 325.93 248.588 323.256 251.203 320.445C253.139 318.364 255.011 316.226 256.861 314.074C257.84 312.936 258.648 312.994 259.283 314.317C260.584 317.034 262.091 319.695 263.056 322.534C265.914 330.965 268.771 339.425 273.401 347.063C278.874 356.066 284.511 364.977 290.44 373.68C294.815 380.03 301.014 384.901 308.216 387.646C315.189 390.421 322.133 390.958 328.899 386.931C333.186 384.4 337.387 381.718 341.759 379.38C347.517 376.319 351.711 372.028 353.726 365.742C354.009 365.162 354.362 364.62 354.776 364.126C355.491 365.513 355.955 366.6 356.577 367.594C356.841 368.038 357.405 368.61 357.82 368.595C362.549 368.474 367.315 368.545 372.002 367.98C377.31 367.344 381.418 364.462 384.454 359.971C387.033 356.152 390.098 355.33 394.514 356.874C395.603 357.329 396.732 357.683 397.886 357.933C402.315 358.591 399.2 366.786 403.651 367.229C407.331 367.616 410.925 367.187 413.968 364.834C419.284 360.729 424.335 356.295 428.4 350.946C430.941 347.682 433.125 344.156 434.916 340.426C437.652 334.519 439.845 328.369 442.239 322.305C442.61 321.375 450.355 320.374 450.633 319.401C451.348 319.065 452.012 318.743 452.691 318.393C458.092 315.582 463.529 312.829 468.888 309.94C472.274 308.116 475.589 306.157 478.89 304.147C486.699 299.37 500.102 298.72 508.789 297.912C508.897 304.777 509.354 315.161 508.075 321.961C507.603 324.536 512.776 317.957 514.941 319.902C516.748 321.525 526.222 315.561 528.672 315.776C533.795 316.226 529.994 317.821 534.166 315.06C539.268 311.728 539.225 311.985 544.462 308.875C547.384 307.144 551.056 309.254 553.385 311.628C554.099 312.343 556.136 317.764 556.822 318.493C558.308 320.074 556.757 320.088 558.879 319.873C561.494 319.602 560.551 313.931 563.001 313.001C570.146 310.283 572.161 307.28 578.105 302.689C581.291 300.243 584.178 304.119 588.4 303.404C590.829 302.996 592.687 302.245 593.894 299.971C595.487 296.946 598.945 290.338 600.581 287.335C600.442 287.204 600.288 287.089 600.124 286.991C600.256 286.873 600.405 286.777 600.567 286.705C607.761 284.925 612.977 280.777 616.006 273.94C617.156 271.337 618.15 268.584 619.764 266.288C622.958 261.74 626.423 257.371 629.981 253.094C633.024 249.447 637.275 247.967 641.876 247.373C641.991 248.01 648.656 254.66 648.814 255.282C649.528 258.086 651.671 258.636 652.25 261.468C652.6 263.185 652.05 259.28 653.622 259.409C656.394 259.63 655.508 257.306 657.737 255.969C663.817 252.329 666.067 251.485 672.847 249.097C673.462 248.996 674.255 254.81 674.819 254.725Z" fill="#988976"/>
<path d="M57.6534 290.045C53.5811 284.381 49.0801 278.996 46.3866 272.438C45.2006 269.521 44.1647 266.546 43.0645 263.599V258.594C43.636 257.313 44.2004 256.026 44.7648 254.746C44.4933 258.601 54.5599 253.974 56.3531 256.806C57.9821 259.373 61.3114 260.996 64.6764 261.418C67.5342 261.776 70.4706 261.711 73.3284 262.133C78.8582 262.942 84.3594 263.957 89.8749 264.894C87.653 267.969 79.8727 279.304 78.7081 282.772C78.0301 284.498 77.1855 286.153 76.1862 287.714C75.6289 288.658 74.7573 288.786 73.7142 288.236C71.6423 287.113 69.5561 285.997 67.4271 284.982C65.4895 284.002 63.4895 283.152 61.44 282.436C58.9323 281.635 58.0821 282.372 58.0821 284.903C58.0464 286.62 58.868 288.415 57.6534 290.045Z" fill="#AC967C"/>
<path d="M346.975 444.106L348.046 444.449H346.975V444.106Z" fill="#BAAC9B"/>
<path d="M345.553 444.449L346.267 444.113C346.267 444.221 346.267 444.335 346.267 444.449H345.553Z" fill="#D3C9BD"/>
<path d="M346.268 444.449C346.268 444.334 346.268 444.22 346.268 444.113H346.982V444.456L346.268 444.449Z" fill="#C5B9AB"/>
<path d="M641.963 247.459C645.049 246.987 648.114 246.422 651.251 246.064C659.038 245.177 666.84 244.383 674.634 243.54C675.27 243.468 675.899 250.82 676.535 250.691L674.856 254.731C674.282 254.771 673.713 254.862 673.156 255.003C666.376 257.399 660.71 261.761 654.63 265.401C652.394 266.739 650.129 268.097 647.357 267.876C645.88 267.911 644.619 266.813 644.449 265.344C643.87 262.483 643.02 259.73 642.349 256.927C642.156 256.298 642.077 248.109 641.963 247.459Z" fill="#AC967C"/>
<path d="M506.419 393.367C506.454 396.693 504.48 399.712 501.421 401.011C498.361 402.31 494.821 401.633 492.456 399.296C490.091 396.959 489.368 393.425 490.626 390.346C491.883 387.267 494.873 385.252 498.196 385.243C502.701 385.231 506.372 388.858 506.419 393.367V393.367Z" fill="#AC967C"/>
<path d="M96.6055 267.775C101.142 268.626 105.672 269.556 110.223 270.321C116.996 271.451 123.797 272.367 130.57 273.554C136.45 274.591 142.516 275.291 147.545 278.91C149.45 280.208 151.071 281.879 152.311 283.823C155.34 288.95 159.827 292.204 165.085 294.471C174.271 298.577 184.218 300.699 194.277 300.7C198.907 300.657 203.565 301.072 208.166 300.915C216.518 300.621 224.863 300.099 233.207 299.585C240.352 299.155 247.496 298.619 254.677 298.097C258.756 297.804 262.828 297.225 266.908 297.217C269.617 297.139 272.315 297.598 274.845 298.569C283.128 302.14 291.313 305.93 299.401 309.94C305.624 313.043 311.711 316.476 318.605 317.806C323.649 318.772 328.779 319.387 333.901 319.859C337.922 320.226 341.963 320.328 345.997 320.166C352.091 319.916 358.143 319.108 364.265 318.972C367.812 319.002 371.346 319.383 374.818 320.109C379.819 321.003 384.756 322.326 389.764 323.22C392.863 323.723 395.992 324.019 399.13 324.106C407.261 324.435 415.389 324.688 423.514 324.865C432.439 325.025 441.299 323.32 449.527 319.859C449.916 319.717 450.312 319.597 450.713 319.501C450.435 320.466 450.242 329.027 449.87 329.963C447.477 336.021 445.284 342.171 442.547 348.078C440.757 351.807 438.572 355.334 436.031 358.597C431.966 363.947 426.915 368.38 421.6 372.485C418.556 374.838 414.962 375.267 411.283 374.881C406.832 374.416 402.395 373.78 397.966 373.122C396.812 372.872 395.683 372.518 394.594 372.063C390.178 370.519 387.113 371.348 384.534 375.16C381.498 379.651 377.39 382.533 372.081 383.169C367.395 383.734 362.629 383.663 357.9 383.784C357.485 383.784 356.921 383.227 356.657 382.783C356.035 381.789 355.556 380.702 354.856 379.315C354.441 379.809 354.089 380.351 353.806 380.931C351.791 387.217 347.597 391.508 341.839 394.576C337.445 396.907 333.266 399.582 328.979 402.12C322.213 406.118 315.269 405.582 308.296 402.836C301.095 400.085 294.897 395.212 290.52 388.862C284.59 380.159 278.953 371.248 273.481 362.245C268.837 354.607 266.001 346.147 263.136 337.715C262.171 334.855 260.664 332.216 259.363 329.499C258.727 328.176 257.934 328.118 256.941 329.255C255.091 331.401 253.219 333.546 251.283 335.627C248.668 338.438 245.932 341.134 243.353 343.973C242.307 345.249 241.352 346.597 240.495 348.006C238.544 350.867 236.823 353.97 234.644 356.674C231.486 360.585 230.793 365.377 229.314 369.904C228.431 372.85 227.389 375.746 226.192 378.578C224.763 381.675 222.176 382.597 219.111 381.21C211.636 377.846 205.324 372.342 200.972 365.391C197.814 360.464 195.199 355.115 190.698 351.189C186.64 347.656 182.525 344.187 178.259 340.912C176.862 339.806 175.164 339.146 173.387 339.017C169.272 338.981 166.893 336.657 164.742 333.653C162.256 330.029 160.399 326.011 159.248 321.768C157.819 316.998 156.019 312.357 154.476 307.63C153.723 304.963 152.834 302.338 151.811 299.763C151.411 300.9 151.053 302.059 150.589 303.167C148.246 308.788 144.409 313.244 139.679 316.969C137.443 318.729 135.671 318.857 133.392 317.227C131.224 315.682 129.159 313.995 127.212 312.178C121.883 307.172 116.667 302.095 111.352 297.089C106.286 292.312 102.671 286.476 99.2061 280.548C98.5416 279.425 97.8343 278.324 97.2342 277.172C96.9127 276.629 96.7984 268.398 96.6055 267.775Z" fill="#AC967C"/>
<path d="M504.275 298.462C505.904 298.24 507.525 297.947 509.161 297.826C517.735 297.182 526.308 296.674 534.882 295.938C544.262 295.13 553.614 294.071 562.981 293.213C575.555 292.069 587.986 290.267 600.239 287.056C600.403 287.17 600.711 294.922 600.696 294.958C599.06 297.961 597.353 300.922 595.759 303.947C594.691 306.111 592.635 307.616 590.251 307.98C586.029 308.696 583.164 311.556 579.97 313.98C574.026 318.543 568.396 323.656 561.259 326.367C558.763 327.275 556.16 327.852 553.514 328.083C551.371 328.305 549.513 327.196 548.02 325.616C547.306 324.901 546.741 324.064 546.041 323.356C543.705 320.982 543.476 320.824 540.561 322.562C535.322 325.67 530.149 328.893 525.044 332.231C520.871 334.962 516.527 336.829 511.405 336.386C509.031 336.246 506.77 335.323 504.975 333.761C502.831 331.816 502.539 329.106 503.01 326.531C504.203 319.73 504.396 305.32 504.275 298.462Z" fill="#AC967C"/>
<path d="M97.283 334.562C97.3148 338.915 94.7147 342.856 90.7022 344.536C86.6897 346.216 82.0607 345.302 78.9862 342.223C75.9118 339.143 75.0017 334.509 76.6828 330.494C78.3639 326.479 82.3028 323.879 86.6521 323.913C92.5067 323.96 97.2403 328.701 97.283 334.562Z" fill="#AC967C"/>
<path d="M266.715 419.777C266.749 421.804 265.558 423.652 263.699 424.457C261.839 425.262 259.678 424.864 258.226 423.45C256.774 422.035 256.318 419.884 257.071 418.002C257.824 416.119 259.638 414.877 261.663 414.856C264.404 414.848 266.648 417.034 266.715 419.777Z" fill="#AC967C"/>
<path d="M82.3239 272.459C76.8084 271.523 71.3071 270.507 65.7773 269.699C62.9195 269.277 59.9903 269.341 57.1254 268.984C53.7604 268.562 50.431 266.939 48.8021 264.371C47.0088 261.511 44.5154 258.607 44.7655 254.753C45.8785 251.517 48.2742 248.884 51.3884 247.473C56.8825 244.784 62.7052 243.268 68.5351 241.752C74.056 240.375 79.4866 238.657 84.7959 236.61C93.1192 233.263 101.757 231.168 110.516 229.459C128.52 225.997 146.503 222.343 164.614 219.583C177.474 217.616 190.591 216.779 203.615 215.792C223.284 214.298 242.981 213.268 262.65 211.752C279.082 210.486 295.565 209.063 311.947 207.261C335.635 204.692 359.463 203.651 383.284 204.143C398.288 204.422 413.362 204.357 428.387 204.786C444.662 205.251 460.93 205.995 477.191 206.81C494.457 207.683 511.718 208.689 528.974 209.828C543.977 210.836 558.981 211.909 573.905 213.404C592.295 215.227 610.399 218.81 628.46 222.7C642.333 225.642 655.888 229.924 668.934 235.487C673.185 237.304 676.793 239.971 679.165 243.997C680.765 246.7 679.915 249.003 677.057 250.362C676.85 250.462 676.657 250.598 676.457 250.719C675.821 250.855 675.192 251.063 674.557 251.134C666.762 251.978 658.96 252.772 651.173 253.659C648.072 254.016 645.007 254.581 641.885 255.089C637.284 255.661 633.033 257.141 629.989 260.81C626.417 265.101 622.966 269.456 619.773 274.004C618.158 276.3 617.165 279.053 616.015 281.656C612.986 288.493 607.77 292.641 600.576 294.421C600.414 294.493 600.264 294.589 600.133 294.707C587.909 297.918 575.449 299.713 562.874 300.865C553.508 301.723 544.156 302.781 534.775 303.589C526.202 304.304 517.628 304.834 509.055 305.477C507.419 305.599 505.797 305.892 504.168 306.114C495.474 306.922 486.65 307.086 478.841 311.835C475.562 313.844 472.247 315.804 468.839 317.627C463.481 320.488 458.044 323.27 452.643 326.08C451.928 326.431 451.271 326.752 450.585 327.096C450.183 327.192 449.787 327.312 449.399 327.453C441.17 330.915 432.31 332.62 423.386 332.459C415.256 332.273 407.128 332.021 399.002 331.701C395.864 331.614 392.735 331.318 389.636 330.814C384.634 329.92 379.698 328.597 374.689 327.704C371.218 326.978 367.683 326.597 364.137 326.566C358.043 326.702 351.991 327.51 345.869 327.761C341.834 327.923 337.794 327.82 333.773 327.453C328.65 326.988 323.521 326.366 318.477 325.401C311.582 324.071 305.495 320.638 299.272 317.534C291.199 313.511 283.014 309.72 274.717 306.164C272.186 305.193 269.489 304.734 266.779 304.812C262.7 304.812 258.628 305.399 254.548 305.692C247.404 306.214 240.259 306.75 233.079 307.179C224.734 307.694 216.39 308.216 208.038 308.509C203.415 308.667 198.75 308.252 194.149 308.295C184.089 308.294 174.142 306.172 164.957 302.066C159.698 299.799 155.212 296.545 152.182 291.418C150.942 289.474 149.321 287.803 147.417 286.505C142.416 282.886 136.322 282.214 130.442 281.148C123.676 279.961 116.867 279.046 110.094 277.916C105.543 277.151 101.014 276.221 96.4771 275.37L82.3239 272.459Z" fill="#2EBF8B"/>
<path d="M167.83 261.995C189.437 261.995 206.953 256.64 206.953 250.033C206.953 243.427 189.437 238.071 167.83 238.071C146.223 238.071 128.707 243.427 128.707 250.033C128.707 256.64 146.223 261.995 167.83 261.995Z" fill="url(#paint0_linear)"/>
<path fill-rule="evenodd" clip-rule="evenodd" d="M139.854 259.474C147.342 261.781 157.276 263.045 167.824 263.045C178.378 263.045 188.312 261.781 195.8 259.474C203.78 257.032 208.002 253.768 208.002 250.012C208.002 246.256 203.78 242.985 195.8 240.542C188.312 238.236 178.371 236.972 167.824 236.972C157.276 236.972 147.342 238.257 139.854 240.542C131.874 242.985 127.652 246.263 127.652 250.012C127.652 253.761 131.874 257.032 139.854 259.474ZM140.468 242.578C147.763 240.35 157.476 239.121 167.824 239.121C178.178 239.121 187.891 240.35 195.187 242.578C201.883 244.627 205.884 247.42 205.884 250.033C205.884 252.647 201.898 255.432 195.187 257.482C187.891 259.71 178.171 260.938 167.824 260.938C157.476 260.938 147.763 259.71 140.468 257.482C133.771 255.432 129.77 252.647 129.77 250.033C129.77 247.42 133.757 244.627 140.468 242.578Z" fill="#37DD9E"/>
<path d="M308.834 201.457C308.739 202.878 309.509 204.217 310.784 204.848C312.059 205.48 313.589 205.279 314.659 204.341C315.729 203.402 316.128 201.91 315.671 200.561C315.214 199.212 313.99 198.272 312.571 198.179C310.637 198.057 308.968 199.521 308.834 201.457V201.457Z" fill="white"/>
<path d="M320.643 220.703C320.643 220.703 319.145 209.784 314.695 204.342" stroke="#00896F" stroke-width="2.19" stroke-linecap="round" stroke-linejoin="round"/>
<path d="M340.611 204.985C340.486 206.733 338.97 208.05 337.224 207.927C336.379 207.874 335.59 207.489 335.027 206.856C334.472 206.229 334.19 205.406 334.243 204.57C334.357 202.809 335.875 201.474 337.634 201.589C339.392 201.703 340.725 203.224 340.611 204.985V204.985Z" fill="white"/>
<path d="M327.775 220.703C327.775 220.703 330.407 211.169 335.057 206.855" stroke="#00896F" stroke-width="1.96" stroke-linecap="round" stroke-linejoin="round"/>
<path d="M331.055 286.79C330.885 288.461 332.096 289.956 333.765 290.132C334.557 290.186 335.335 289.901 335.904 289.346C336.496 288.784 336.855 288.019 336.91 287.204C337.081 286.104 336.617 285.001 335.711 284.355C334.806 283.709 333.614 283.631 332.631 284.152C331.649 284.673 331.044 285.705 331.069 286.818L331.055 286.79Z" fill="white"/>
<path d="M340.776 303.994C340.776 303.994 339.578 294.21 335.891 289.347" stroke="#00896F" stroke-width="1.86" stroke-linecap="round" stroke-linejoin="round"/>
<path d="M94.3421 239.957C94.1718 241.628 95.3836 243.123 97.0521 243.299C97.8443 243.353 98.6221 243.068 99.1915 242.513C99.7832 241.951 100.142 241.186 100.197 240.371C100.368 239.271 99.904 238.168 98.9984 237.522C98.0928 236.876 96.9006 236.798 95.9182 237.319C94.9357 237.84 94.3313 238.872 94.3564 239.985L94.3421 239.957Z" fill="white"/>
<path d="M104.063 257.161C104.063 257.161 102.865 247.377 99.1777 242.514" stroke="#00896F" stroke-width="1.86" stroke-linecap="round" stroke-linejoin="round"/>
<path fill-rule="evenodd" clip-rule="evenodd" d="M364.559 208.634C364.559 208.634 366.698 210.32 367.975 210.013C369.251 209.706 367.975 209.063 367.975 209.063C367.975 209.063 371.933 208.62 371.348 207.399C370.763 206.178 367.954 206.685 367.954 206.685C367.954 206.685 370.293 204.864 368.424 204.192C366.556 203.521 365.9 205.806 365.9 205.806C365.9 205.806 366.106 202.743 364.559 202.457C363.011 202.171 363.204 204.599 363.204 204.599C363.204 204.599 360.822 202.378 359.852 203.171C358.882 203.964 361.279 206.028 361.279 206.028C361.279 206.028 359.852 206.392 360.444 207.356C361.036 208.32 364.559 208.634 364.559 208.634Z" fill="#FFFD03"/>
<path d="M364.402 207.113C364.402 207.113 366.706 207.827 365.829 208.634C364.952 209.441 364.595 209.098 364.402 209.705C363.326 210.341 358.177 251.84 359.09 251.84C358.712 251.697 358.626 249.748 358.248 249.605C358.54 240.428 361.814 218.368 363.561 209.32C363.561 209.32 362.135 208.02 362.463 207.334C362.791 206.649 361.521 207.527 364.402 207.113Z" fill="#1E8962"/>
<path d="M354.924 220.353C354.924 220.353 357.37 220.053 356.629 221.025C356.108 222.089 355.445 222.289 355.388 222.917C355.331 223.546 356.443 256.66 356.443 256.66C355.673 255.054 355.63 254.068 355.238 253.99C354.668 244.799 355.067 231.851 354.489 222.667C354.489 222.667 352.849 221.617 353.063 220.889C353.277 220.16 352.172 221.246 354.924 220.353Z" fill="#1E8962"/>
<path fill-rule="evenodd" clip-rule="evenodd" d="M357.064 219.061C357.064 219.061 358.854 216.275 357.356 215.626C355.859 214.976 354.846 218.075 354.846 218.075C354.846 218.075 353.42 214.504 352.15 215.218C350.881 215.933 352.436 218.461 352.436 218.461C352.436 218.461 349.583 217.097 348.449 217.925C347.315 218.753 351.081 220.068 351.081 220.068C351.081 220.068 348.307 220.525 349.975 221.439C351.644 222.353 353.149 220.782 353.149 220.782C353.427 221.631 355.631 222.074 355.966 220.853C356.572 220.482 360.088 221.317 360.166 219.925C360.245 218.532 357.064 219.061 357.064 219.061Z" fill="#FFFD03"/>
<path fill-rule="evenodd" clip-rule="evenodd" d="M356.029 219.561C355.131 218.054 352.998 219.147 353.177 219.733C354.086 219.377 355.084 219.317 356.029 219.561V219.561Z" fill="#FDCA02"/>
<path fill-rule="evenodd" clip-rule="evenodd" d="M309.619 256.653C309.619 256.653 307.572 258.338 306.36 258.031C305.148 257.724 306.36 257.081 306.36 257.081C306.36 257.081 302.588 256.639 303.144 255.418C303.7 254.196 306.382 254.703 306.382 254.703C306.382 254.703 304.149 252.882 305.932 252.211C307.715 251.54 308.336 253.825 308.336 253.825C308.336 253.825 308.136 250.768 309.619 250.476C311.103 250.183 310.91 252.618 310.91 252.618C310.91 252.618 313.178 250.397 314.098 251.19C315.018 251.982 312.75 254.046 312.75 254.046C312.75 254.046 314.091 254.418 313.549 255.375C313.007 256.332 309.619 256.653 309.619 256.653Z" fill="#FFFD03"/>
<path d="M309.768 255.132C309.768 255.132 307.579 255.846 308.442 256.653C309.305 257.46 309.611 257.117 309.768 257.724C310.795 258.36 315.701 299.859 314.831 299.859C315.188 299.716 315.274 297.766 315.63 297.623C315.352 288.447 312.243 266.387 310.574 257.338C310.574 257.338 311.943 256.039 311.615 255.36C311.287 254.682 312.514 255.546 309.768 255.132Z" fill="#1E8962"/>
<path d="M318.804 268.372C318.804 268.372 316.472 268.072 317.178 269.043C317.67 270.107 318.305 270.314 318.362 270.936C318.419 271.557 317.356 304.679 317.356 304.679C318.069 303.072 318.127 302.087 318.504 302.008C319.046 292.824 318.669 279.87 319.218 270.686C319.218 270.686 320.787 269.636 320.58 268.907C320.373 268.179 321.421 269.265 318.804 268.372Z" fill="#1E8962"/>
<path fill-rule="evenodd" clip-rule="evenodd" d="M316.764 267.079C316.764 267.079 315.052 264.294 316.486 263.644C317.919 262.994 318.875 266.094 318.875 266.094C318.875 266.094 320.23 262.523 321.449 263.237C322.669 263.951 321.171 266.479 321.171 266.479C321.171 266.479 323.917 265.122 324.972 265.944C326.028 266.765 322.469 268.086 322.469 268.086C322.469 268.086 325.108 268.543 323.517 269.457C321.927 270.371 320.494 268.8 320.494 268.8C320.23 269.657 318.126 270.093 317.812 268.872C317.228 268.5 313.876 269.336 313.812 267.943C313.747 266.551 316.764 267.079 316.764 267.079Z" fill="#FFFD03"/>
<path fill-rule="evenodd" clip-rule="evenodd" d="M317.748 267.58C318.604 266.073 320.636 267.166 320.487 267.751C319.618 267.391 318.655 267.331 317.748 267.58Z" fill="#FDCA02"/>
<path fill-rule="evenodd" clip-rule="evenodd" d="M108.704 239.193C108.704 239.193 107.2 240.428 106.315 240.2C105.431 239.971 106.315 239.486 106.315 239.486C106.315 239.486 103.548 239.157 103.955 238.265C104.361 237.372 106.33 237.757 106.33 237.757C106.33 237.757 104.697 236.429 106.002 235.936C107.307 235.444 107.763 237.122 107.763 237.122C107.763 237.122 107.613 234.879 108.697 234.665C109.781 234.451 109.646 236.244 109.646 236.244C109.646 236.244 111.307 234.622 111.985 235.215C112.662 235.808 110.994 237.286 110.994 237.286C110.994 237.286 111.978 237.558 111.578 238.257C111.179 238.957 108.704 239.193 108.704 239.193Z" fill="#FFFD03"/>
<path d="M108.839 238.057C108.839 238.057 107.235 238.565 107.862 239.172C108.49 239.779 108.725 239.514 108.839 239.957C109.553 240.421 113.182 270.851 112.555 270.83C112.812 270.723 112.869 269.294 113.132 269.187C112.933 262.467 110.651 246.299 109.424 239.664C109.424 239.664 110.43 238.714 110.194 238.236C109.959 237.758 110.822 238.357 108.839 238.057Z" fill="#1E8962"/>
<path d="M115.43 247.763C115.43 247.763 113.726 247.549 114.239 248.256C114.603 249.041 115.066 249.184 115.109 249.641C115.152 250.098 114.396 274.372 114.396 274.372C114.931 273.194 114.959 272.472 115.237 272.415C115.63 265.681 115.352 256.197 115.751 249.463C115.751 249.463 116.906 248.691 116.749 248.156C116.592 247.62 117.348 248.413 115.43 247.763Z" fill="#1E8962"/>
<path fill-rule="evenodd" clip-rule="evenodd" d="M113.939 246.813C113.939 246.813 112.684 244.771 113.733 244.292C114.781 243.814 115.487 246.092 115.487 246.092C115.487 246.092 116.478 243.457 117.37 244.014C118.261 244.571 117.17 246.385 117.17 246.385C117.17 246.385 119.181 245.392 119.951 245.992C120.721 246.592 118.119 247.577 118.119 247.577C118.119 247.577 120.058 247.92 118.889 248.584C117.719 249.249 116.671 248.106 116.671 248.106C116.478 248.727 114.938 249.056 114.703 248.156C114.282 247.885 111.85 248.499 111.772 247.477C111.693 246.456 113.939 246.813 113.939 246.813Z" fill="#FFFD03"/>
<path fill-rule="evenodd" clip-rule="evenodd" d="M114.658 247.177C115.286 246.07 116.798 246.877 116.669 247.305C116.031 247.042 115.324 246.997 114.658 247.177Z" fill="#FDCA02"/>
<path d="M161.001 258.615C155.972 258.393 150.968 257.79 146.031 256.813V255.744C146.785 255.523 146.498 254.761 146.785 254.319C146.996 253.812 146.996 252.639 147.937 252.796C150.955 253.347 154.101 253.369 157.153 253.049C161.376 252.599 165.486 251.979 169.542 250.729L171.285 250.927C171.673 253.62 171.673 258.263 169.309 258.87L161.001 258.615Z" fill="#CA7C5B"/>
<path d="M174.332 197.972C173.571 195.635 172.666 193.426 171.904 191.089C175.568 188.952 179.051 185.938 180.998 182.091C182.866 178.401 185.502 175.145 187.233 171.369C187.556 170.656 189.445 169.445 190.106 169.061C188.081 173.592 188.943 178.123 189.934 182.832C190.462 185.675 190.462 188.589 189.934 191.431C189.775 192.4 189.111 193.213 188.188 193.569C184.597 195.165 181.099 197.202 176.94 197.216C176.044 197.366 175.168 197.619 174.332 197.972Z" fill="#88889F"/>
<path d="M188.39 231.364C189.732 233.008 191.244 234.508 192.901 235.838C190.294 237.042 187.873 236.131 185.869 234.998C185.438 234.634 185.783 232.055 188.39 231.364Z" fill="#8A8AA1"/>
<path d="M213.546 239.621C214.48 239.655 215.385 239.954 216.153 240.483C218.215 241.823 220.233 241.673 222.575 241.196C223.365 241.025 224.356 241.395 225.175 241.367C221.82 245.05 218.322 249.724 212.612 250.023C211.255 250.23 209.896 249.666 209.092 248.562C208.173 247.365 208.704 246.361 209.229 245.278C210.376 243.19 211.831 241.284 213.546 239.621V239.621Z" fill="#8888A0"/>
<path d="M232.378 224.482C236.357 224.482 239.583 220.938 239.583 216.567C239.583 212.195 236.357 208.651 232.378 208.651C228.399 208.651 225.174 212.195 225.174 216.567C225.174 220.938 228.399 224.482 232.378 224.482Z" fill="white"/>
<path fill-rule="evenodd" clip-rule="evenodd" d="M218.375 98.9363C218.446 97.0841 218.514 95.3103 217.854 93.5485C217.039 93.369 216.555 93.8791 216.095 94.3649C216.08 94.3802 216.066 94.3954 216.051 94.4106C211.819 99.2355 208.885 105.044 207.525 111.296C206.894 114.589 206.495 117.922 206.332 121.27C205.857 125.894 206.202 130.564 207.352 135.07C207.684 135.8 207.511 136.66 206.921 137.207C204.879 139.212 203.432 141.736 202.741 144.503C202.23 146.28 200.971 147.753 199.286 148.542C196.413 150.003 195.184 152.482 194.976 155.581C194.891 156.828 195.316 157.943 195.741 159.058C195.962 159.638 196.184 160.218 196.334 160.818C193.015 163.204 190.939 166.503 188.906 169.83C186.881 174.376 187.369 178.928 188.36 183.637C188.906 186.209 189.467 188.917 188.949 191.645C188.807 192.333 188.549 192.993 188.188 193.597C186.859 198.057 185.853 202.681 186.5 207.319C187.195 211.677 187.361 216.102 186.996 220.499C186.707 224.237 186.991 227.996 187.836 231.649C188.121 231.986 188.401 232.328 188.68 232.67C189.704 233.922 190.729 235.176 192.038 236.166C192.828 236.205 193.431 236.145 194.006 236.088C195.006 235.989 195.918 235.899 197.569 236.351C197.594 236.385 198.254 236.475 198.861 236.558C199.286 236.616 199.686 236.671 199.825 236.7C202.425 237.213 203.459 237.399 205.779 237.669C208.394 237.976 211.001 238.446 213.199 240.07C214.088 240.131 214.936 240.456 215.635 241.004C217.587 242.243 219.977 242.606 222.214 242.001C223.029 241.9 223.851 241.866 224.671 241.901C226.191 241.39 227.6 240.597 228.823 239.564C229.167 239.262 229.563 238.996 229.961 238.729C230.818 238.155 231.685 237.574 232.062 236.601C233.151 234.054 233.802 231.345 233.987 228.586C234.109 225.26 233.321 222.139 232.523 218.975C232.426 218.593 232.33 218.211 232.235 217.828C230.241 210.203 228.758 202.456 227.796 194.638C227.775 194.453 227.755 194.269 227.735 194.085C227.279 189.921 226.828 185.805 227.695 181.65C227.794 181.187 227.696 180.705 227.422 180.317C226.907 179.442 226.697 178.423 226.826 177.418C226.972 174.877 226.563 172.335 225.626 169.966C225.093 168.207 224.297 166.538 223.263 165.014C223.584 164.816 223.889 164.633 224.18 164.457C224.77 164.102 225.308 163.778 225.827 163.425C229.527 160.896 230.777 155.047 227.709 152.276C224.46 149.351 224.276 145.787 224.083 142.024L224.082 142.009C224.055 141.585 224.33 141.199 224.743 141.083C228.234 139.39 230.566 136.493 232.878 133.622C233.563 132.771 234.246 131.923 234.957 131.109C238.556 126.99 240.868 122.063 243.171 117.154C243.736 115.949 244.301 114.745 244.884 113.554C245.953 111.601 246.695 109.488 247.082 107.299C244.734 108.709 242.483 110.273 240.344 111.98C239.471 112.683 238.577 113.364 237.682 114.046C235.514 115.696 233.344 117.348 231.473 119.325C228.181 122.825 225.49 126.837 223.507 131.201C222.647 133.278 221.432 135.191 219.916 136.858C219.421 136.602 218.904 136.39 218.371 136.224C216.928 135.925 216.626 135.248 217.114 133.823C217.823 131.639 218.41 129.417 218.874 127.169C219.614 123.813 220.311 120.344 219.42 117.009C217.937 111.448 218.134 105.821 218.33 100.209C218.339 99.9483 218.348 99.6873 218.357 99.4262C218.363 99.2623 218.369 99.099 218.375 98.9363ZM225.756 175.665V177.09H225.763C225.289 185.098 223.967 192.999 220.44 200.202C218.623 203.963 214.888 206.429 210.721 207.811C209.809 208.071 208.919 208.407 208.064 208.815C206.699 209.521 205.722 210.468 205.621 212.214C205.522 214.517 204.183 216.589 202.116 217.642C199.983 218.825 197.691 219.901 195.249 219.823C192.807 219.744 192.124 218.875 192.735 216.545C194.274 210.22 198.058 204.656 203.395 200.871C205.93 199.069 206.828 196.668 207.173 193.818C207.274 192.959 207.365 192.099 207.457 191.239C207.783 188.183 208.108 185.126 208.854 182.113C210.032 177.368 212.941 173.948 216.69 171.063C218.42 169.607 220.863 169.326 222.882 170.35C225.116 171.39 225.598 173.464 225.756 175.665Z" fill="#D6CCF8"/>
<path d="M169.62 251.134C165.564 252.385 161.395 253.242 157.172 253.692C154.12 254.012 151.038 253.894 148.021 253.343C147.08 253.186 147.202 253.998 146.785 254.297C147.136 249.526 147.789 244.782 148.739 240.091C149.654 234.788 150.134 229.42 150.176 224.04C150.413 215.761 152.144 207.746 154.098 199.774C155.11 195.62 155.656 191.424 156.389 187.235C157.517 181.07 159.399 175.065 161.992 169.352C162.321 168.722 162.708 168.124 163.148 167.564C163.301 167.386 163.475 167.225 163.665 167.087C165.885 168.569 166.769 170.792 167.408 173.171C168.758 178.194 170.353 183.145 171.445 188.232C171.593 189.169 171.933 190.066 172.443 190.868L174.727 197.886C176.028 202.161 177.105 206.535 178.671 210.71C180.691 216.128 181.998 221.781 182.557 227.531C183.168 233.622 183.915 239.699 184.604 245.784C182.859 245.869 181.638 247.294 179.964 247.572C179.468 247.522 179.296 247.223 179.246 246.746C179.03 244.708 178.764 242.685 178.527 240.654C177.924 235.069 176.652 229.597 175.704 224.075C174.986 219.858 173.183 215.925 172.443 211.715C171.344 204.455 170.453 197.159 168.133 190.106V191.139L165.828 184.442C165.339 186.024 166.057 187.42 165.282 188.653V184.378C164.226 185.575 164.664 186.943 164.563 188.232C164.061 193.105 163.622 197.993 163.163 202.873C162.585 204.421 162.522 206.111 162.983 207.696C163.929 211.276 165.271 214.74 166.984 218.027C168.097 220.342 169.139 222.843 168.22 225.508C167.251 228.137 166.612 230.874 166.316 233.658C166.108 236.187 166.855 238.709 167.372 241.217C168.083 244.523 169.254 247.736 169.62 251.134Z" fill="#F38C65"/>
<path d="M179.989 247.109C181.663 246.831 182.787 245.689 184.626 245.792C185.114 249.595 185.402 253.422 185.488 257.255C184.078 257.691 182.611 257.916 181.135 257.925L177.549 258.412L177.293 247.91L179.989 247.109Z" fill="#CA7C5B"/>
<path d="M178.907 257.875L181.127 257.924C178.344 258.451 175.52 258.735 172.687 258.772C168.801 258.943 164.886 259.193 161 258.623L168.183 258.544C169.699 258.423 169.72 256.799 170.668 256.108L171.308 255.345C171.681 256.435 170.589 257.048 170.453 258.195C172.513 258.35 174.583 258.319 176.638 258.103C177.27 258.01 177.866 257.768 177.844 256.87C177.801 254.633 177.844 252.389 177.844 250.145C177.864 249.659 177.578 249.213 177.126 249.026C177.385 248.627 177.801 248.684 178.196 248.648C178.196 250.479 178.132 252.303 178.196 254.127C178.268 255.388 177.773 256.706 178.534 257.903H178.893L178.907 257.875Z" fill="#D39C69"/>
<path d="M169.13 251.156C168.763 247.757 166.797 245.28 166.107 241.953C165.59 239.445 165.487 236.184 165.695 233.655C165.991 230.871 166.856 227.989 167.825 225.359C168.737 222.695 167.451 220.806 166.338 218.491C164.625 215.204 163.485 211.074 162.539 207.495C162.078 205.91 162.3 203.942 162.878 202.395L163.565 202.852C162.847 207.44 164.944 211.316 166.755 215.27C166.838 215.612 166.954 215.946 167.099 216.267C169.254 220.107 169.901 223.969 168.285 228.293C167.137 231.651 166.978 235.264 167.825 238.709C167.947 241.245 168.845 243.632 169.262 246.111C169.534 247.686 169.75 249.367 170.698 250.785C170.698 250.899 170.698 251.013 170.698 251.127H169.98L169.13 251.156Z" fill="#F38B64"/>
<path d="M225.764 177.09C225.29 185.098 223.969 192.999 220.442 200.209C218.603 203.97 214.889 206.435 210.723 207.817C209.81 208.078 208.921 208.414 208.065 208.822C206.7 209.534 205.724 210.475 205.623 212.22C205.523 214.523 204.185 216.596 202.118 217.649C199.963 218.832 197.808 219.915 195.251 219.829C192.693 219.744 192.126 218.882 192.737 216.552C194.275 210.227 198.059 204.663 203.396 200.878C205.932 199.076 206.83 196.71 207.175 193.825C207.634 189.914 207.893 185.988 208.855 182.12C210.033 177.375 212.943 173.955 216.692 171.07C218.422 169.614 220.864 169.333 222.884 170.357C225.125 171.39 225.606 173.47 225.757 175.672C225.793 176.128 225.764 176.612 225.764 177.09Z" fill="#87879F"/>
<path d="M212.503 134.984C211.576 134.906 210.842 134.173 210.772 133.253C209.335 124.703 209.112 116.211 212.144 107.897C212.338 107.377 212.338 106.75 212.862 106.344C214.679 111.459 214.888 131.194 212.503 134.984Z" fill="#5F45B9"/>
<path d="M223.961 140.149C222.589 139.038 222.252 138.161 223.322 136.587C226.971 131.279 230.182 125.651 235.109 121.305C236.553 119.967 238.155 118.807 239.879 117.85C239.714 120.557 227.352 137.748 223.961 140.149Z" fill="#5F45B9"/>
<path d="M209.258 154.484C210.439 154.818 211.687 154.85 212.885 154.577C213.603 154.377 213.891 155.068 213.546 155.809C213.079 156.821 212.411 157.441 211.29 157.355C210.17 157.27 208.783 156.849 208.223 155.581C207.85 154.755 208.36 154.399 209.258 154.484Z" fill="#2C204C"/>
<path d="M221.525 147.381C221.173 148.278 221.353 149.782 219.794 149.96C218.997 150.045 218.796 149.197 218.911 148.535C219.083 147.473 219.069 146.162 220.513 145.942C221.346 145.82 221.561 146.512 221.525 147.381Z" fill="#2E224E"/>
<path d="M205.773 146.804C205.629 147.517 205.773 148.728 204.523 148.578C203.273 148.429 203.546 147.282 203.531 146.405C203.517 145.529 203.747 144.731 204.738 144.824C205.837 144.923 205.758 145.921 205.773 146.804Z" fill="#2F234F"/>
<path d="M166.851 215.822C164.747 211.948 162.645 207.545 163.371 202.964C163.851 201.879 164.164 200.657 164.322 199.483C164.842 195.908 165.316 192.308 165.333 188.696C166.108 187.463 165.207 185.664 165.695 184.082L168.349 189.988C168.68 192.659 168.658 196.568 169.226 199.19C170.177 203.219 170.897 207.298 171.381 211.408C171.628 212.095 171.309 212.898 170.698 213.325C168.924 205.667 168.551 197.547 166.755 189.988C166.528 190.343 166.528 190.701 166.48 191.119C166.157 194.375 166.162 197.701 165.695 200.942C164.977 205.006 165.312 208.584 166.755 212.453C167.071 213.209 167.785 214.803 166.851 215.822Z" fill="#FEB876"/>
<path d="M180.527 247.373L178.916 248.292H178.556L178.219 247.943C177.86 244.647 177.577 241.341 177.371 238.026C177.257 235.714 176.608 233.552 175.845 231.365C175.285 227.019 174.508 222.733 172.828 218.622C172.793 217.812 172.558 216.903 172.264 216.147C171.955 214.722 171.132 212.5 171.628 210.976L173.308 211.528C174.027 215.738 175.31 219.721 176.035 223.938C176.983 229.46 178.312 234.915 178.916 240.5C179.138 242.531 179.547 244.395 179.662 246.578C179.726 247.056 180.032 247.323 180.527 247.373Z" fill="#F38B64"/>
<path d="M172.479 211.75H172.098L171.179 211.497C170.695 207.387 170.177 203.219 169.225 199.19C168.658 196.568 168.507 193.839 168.184 191.168V190.135C170.489 197.167 171.38 204.462 172.479 211.75Z" fill="#F38C64"/>
<path d="M165.695 188.336C165.684 191.948 165.057 195.878 164.542 199.453C164.384 200.628 163.899 202.424 163.419 203.509L162.539 203.086C162.999 198.206 163.36 192.903 163.863 188.03C163.992 186.741 164.331 184.843 165.358 183.646L165.695 188.336Z" fill="#F38B64"/>
<path d="M171.409 211.373L172.127 211.73C171.632 213.283 172.429 214.665 172.738 216.104C173.032 216.86 173.199 217.659 173.234 218.469L173.13 217.799C174.674 222.821 176.035 226.776 176.232 231.731L176.078 231.222C176.84 233.409 177.395 235.658 177.509 237.969C177.839 241.353 178.247 244.53 178.247 247.922C178.247 248.143 178.247 248.371 178.247 248.591C177.852 248.627 177.436 248.591 177.177 248.969L171.467 250.729C171.639 248.969 170.899 247.409 170.396 245.792C169.398 242.543 168.797 240.634 168.079 237.278L167.661 238.568C166.814 235.124 166.931 231.411 168.079 228.052C169.695 223.728 169.08 220.086 166.925 216.246C166.78 215.925 166.895 215.591 166.812 215.249C167.746 214.266 166.776 213.461 166.467 212.677C165.024 208.808 164.643 204.629 165.361 200.565C165.828 197.324 166 194.047 166.323 190.791C166.365 190.393 166.492 190.009 166.697 189.665C168.493 197.224 169.233 204.968 171.007 212.627C171.603 212.171 171.323 211.751 171.409 211.373Z" fill="#FEB676"/>
<path d="M171.301 250.59L177.671 248.648C178.122 248.836 177.858 249.631 177.838 250.116C177.838 252.36 177.996 254.6 177.996 256.837C177.996 257.735 177.586 258.178 176.954 258.271C174.899 258.488 171.859 258.567 169.799 258.412C169.95 257.286 171.064 256.079 171.301 255.317L170.662 256.079C170.662 254.419 171.308 252.766 170.662 251.092C170.662 250.978 170.662 250.864 170.662 250.75L171.301 250.59Z" fill="#D29B68"/>
<path d="M171.911 250.729L170.446 251.149C169.512 249.724 169.541 247.694 169.253 246.119C168.822 243.64 167.768 240.826 167.66 238.29L168.157 235.093C168.875 238.448 169.845 242.284 170.843 245.533C171.353 247.15 172.083 248.969 171.911 250.729Z" fill="#FDB776"/>
<path d="M176.035 231.25L175.985 231.963C174.268 226.976 173.83 221.703 172.264 216.681L173.19 218.497C174.857 222.58 175.489 226.904 176.035 231.25Z" fill="#FDB777"/>
<defs>
<linearGradient id="paint0_linear" x1="134.31" y1="238.87" x2="134.318" y2="259.337" gradientUnits="userSpaceOnUse">
<stop offset="0.27" stop-color="#5E5544"/>
<stop offset="1" stop-color="#383837"/>
</linearGradient>
</defs>
</svg>
