<svg width="25" height="25" viewBox="0 0 25 25" fill="none" xmlns="http://www.w3.org/2000/svg">
	<path fill-rule="evenodd" clip-rule="evenodd" d="M23.7167 20.971C23.4815 21.5684 22.9388 22.4095 22.1692 23.002C21.7249 23.3442 21.1944 23.6713 20.4658 23.8872C19.689 24.1174 18.7323 24.1952 17.5415 24.1952H6.65375C5.46308 24.1952 4.50635 24.1174 3.72952 23.8872C3.00087 23.6713 2.47048 23.3442 2.02606 23.002C1.25654 22.4094 0.71375 21.5684 0.478558 20.971C0.00480768 19.7673 0 18.4016 0 17.5415V6.65365C0 5.79356 0.00480768 4.42788 0.478558 3.22423C0.71375 2.62683 1.25644 1.78567 2.02606 1.19317C2.47038 0.850962 3.00087 0.523846 3.72952 0.307981C4.50625 0.0777885 5.46298 0 6.65375 0H17.5416C18.7323 0 19.689 0.0777885 20.4659 0.307981C21.1945 0.523846 21.7249 0.851058 22.1693 1.19317C22.9388 1.78577 23.4816 2.62683 23.7168 3.22423C24.1906 4.42788 24.1954 5.79356 24.1954 6.65365V17.5415C24.1953 18.4015 24.1905 19.7672 23.7167 20.971Z" fill="url(#paint0_linear)" />
	<path d="M13.8524 13.9069C13.4893 13.5238 12.8516 13.2782 12.0988 13.2782C11.346 13.2782 10.7083 13.5238 10.3452 13.9069C10.1558 14.1068 10.0556 14.3117 10.024 14.6036C9.96288 15.1689 9.99721 15.6557 10.0635 16.4338C10.1265 17.1754 10.2463 18.1642 10.4027 19.1713C10.5139 19.8881 10.6043 20.2749 10.6866 20.5519C10.8201 21.0008 11.3188 21.3934 12.0988 21.3934C12.8787 21.3934 13.3775 21.0007 13.511 20.5519C13.5933 20.2749 13.6837 19.8881 13.7949 19.1713C13.9512 18.1642 14.0711 17.1754 14.1341 16.4338C14.2004 15.6556 14.2347 15.1688 14.1736 14.6036C14.142 14.3118 14.0418 14.1068 13.8524 13.9069ZM10.1206 10.496C10.1206 11.5896 11.0071 12.4761 12.1007 12.4761C13.1943 12.4761 14.0809 11.5896 14.0809 10.496C14.0809 9.40238 13.1943 8.51585 12.1007 8.51585C11.0071 8.51585 10.1206 9.40238 10.1206 10.496ZM12.0762 2.68162C7.44509 2.69479 3.65038 6.45181 3.59307 11.0826C3.54654 14.8338 5.94115 18.0427 9.2849 19.2188C9.36605 19.2474 9.44846 19.18 9.43567 19.0949C9.39182 18.8036 9.35048 18.5109 9.3125 18.2232C9.29904 18.1214 9.23423 18.0337 9.14029 17.9927C6.4974 16.8381 4.65192 14.1875 4.68154 11.1172C4.72038 7.08796 8.01057 3.80315 12.0398 3.77056C16.1589 3.73729 19.5206 7.07844 19.5206 11.19C19.5206 14.2295 17.6832 16.8476 15.0609 17.993C14.9669 18.034 14.9025 18.122 14.8891 18.2236C14.8512 18.5113 14.8098 18.8039 14.7661 19.0949C14.7532 19.18 14.8356 19.2474 14.9167 19.2189C18.2286 18.054 20.6092 14.8951 20.6092 11.1901C20.609 6.49017 16.7789 2.66815 12.0762 2.68162ZM11.9224 6.58498C14.5477 6.48335 16.7158 8.5895 16.7158 11.1926C16.7158 12.5164 16.1549 13.7116 15.2585 14.5533C15.1824 14.6247 15.1415 14.726 15.1474 14.8302C15.1653 15.1468 15.1587 15.4545 15.1377 15.802C15.132 15.8946 15.2359 15.9537 15.3125 15.9015C16.8158 14.8742 17.8045 13.1468 17.8045 11.1926C17.8045 7.97488 15.1243 5.37133 11.8792 5.4971C8.86346 5.61402 6.44394 8.10046 6.40529 11.1183C6.3799 13.1032 7.37471 14.8615 8.8973 15.9017C8.97375 15.9539 9.0773 15.8947 9.07163 15.8022C9.05048 15.4545 9.04404 15.1468 9.06182 14.8302C9.06769 14.7261 9.02692 14.6248 8.95105 14.5535C8.02663 13.6857 7.45894 12.4419 7.49509 11.0688C7.55875 8.65248 9.50692 6.67854 11.9224 6.58498Z" fill="white" />
	<defs>
		<linearGradient id="paint0_linear" x1="12.0977" y1="0" x2="12.0977" y2="24.1952" gradientUnits="userSpaceOnUse">
			<stop stop-color="#F452FF" />
			<stop offset="1" stop-color="#832BC1" />
		</linearGradient>
	</defs>
</svg>
