<?xml version="1.0" encoding="utf-8"?>
<!-- Generator: Adobe Illustrator 24.0.2, SVG Export Plug-In . SVG Version: 6.00 Build 0)  -->
<svg version="1.1" id="Layer_1" xmlns="http://www.w3.org/2000/svg" xmlns:xlink="http://www.w3.org/1999/xlink" x="0px" y="0px"
	 viewBox="0 0 97.8 97.8" style="enable-background:new 0 0 97.8 97.8;" xml:space="preserve">
<style type="text/css">
	.st0{fill:#FFFFFF;stroke:#000000;stroke-miterlimit:10;}
</style>
<rect x="8.8" y="25.9" class="st0" width="79.1" height="46.1"/>
<g>
	<path d="M48.9,0C21.9,0,0,21.9,0,48.9s21.9,48.9,48.9,48.9s48.9-21.9,48.9-48.9S75.9,0,48.9,0z M25.7,69.2H12.4v-4h13.3
		C25.7,65.2,25.7,69.2,25.7,69.2z M25.7,64H12.4v-4h13.3C25.7,60,25.7,64,25.7,64z M25.7,58.8H12.4v-4h13.3
		C25.7,54.7,25.7,58.8,25.7,58.8z M25.7,53.5H12.4v-4h13.3C25.7,49.5,25.7,53.5,25.7,53.5z M25.7,48.3H12.4v-4h13.3
		C25.7,44.2,25.7,48.3,25.7,48.3z M40.6,69.2H27.3v-4h13.3V69.2z M40.6,64H27.3v-4h13.3V64z M40.6,58.8H27.3v-4h13.3V58.8z
		 M55.5,69.2H42.2v-4h13.3L55.5,69.2L55.5,69.2z M55.5,64H42.2v-4h13.3L55.5,64L55.5,64z M55.5,58.8H42.2v-4h13.3L55.5,58.8
		L55.5,58.8z M55.5,53.5H42.2v-4h13.3L55.5,53.5L55.5,53.5z M55.5,48.3H42.2v-4h13.3L55.5,48.3L55.5,48.3z M55.5,43H42.2v-4h13.3
		L55.5,43L55.5,43z M55.5,37.8H42.2v-4h13.3L55.5,37.8L55.5,37.8z M70.5,69.2H57.1v-4h13.3L70.5,69.2L70.5,69.2z M70.5,64H57.1v-4
		h13.3L70.5,64L70.5,64z M70.5,58.8H57.1v-4h13.3L70.5,58.8L70.5,58.8z M70.5,53.5H57.1v-4h13.3L70.5,53.5L70.5,53.5z M70.5,48.3
		H57.1v-4h13.3L70.5,48.3L70.5,48.3z M85.4,69.2H72.1v-4h13.3L85.4,69.2L85.4,69.2z M85.4,64H72.1v-4h13.3L85.4,64L85.4,64z
		 M85.4,58.8H72.1v-4h13.3L85.4,58.8L85.4,58.8z M85.4,53.5H72.1v-4h13.3L85.4,53.5L85.4,53.5z M85.4,48.3H72.1v-4h13.3L85.4,48.3
		L85.4,48.3z M85.4,43H72.1v-4h13.3L85.4,43L85.4,43z M85.4,37.8H72.1v-4h13.3L85.4,37.8L85.4,37.8z M72.1,32.5v-4h13.3v4H72.1z"/>
</g>
</svg>
