<svg width="25" height="25" viewBox="0 0 25 25" fill="none" xmlns="http://www.w3.org/2000/svg">
	<path fill-rule="evenodd" clip-rule="evenodd" d="M10.9375 7.95453V11.7429V13.2571V17.0454H14.0625V13.2571V11.7429V7.95453H10.9375Z" fill="#FAB908" />
	<path d="M1.5625 13.2102C2.42544 13.2102 3.125 12.5106 3.125 11.6477C3.125 10.7848 2.42544 10.0852 1.5625 10.0852C0.699555 10.0852 0 10.7848 0 11.6477C0 12.5106 0.699555 13.2102 1.5625 13.2102Z" fill="#0066D9" />
	<path d="M1.5625 14.9148C2.42544 14.9148 3.125 14.2152 3.125 13.3523C3.125 12.4894 2.42544 11.7898 1.5625 11.7898C0.699555 11.7898 0 12.4894 0 13.3523C0 14.2152 0.699555 14.9148 1.5625 14.9148Z" fill="#0066D9" />
	<path d="M3.125 11.6477H0V13.3523H3.125V11.6477Z" fill="#0066D9" />
	<path d="M23.4375 14.9148C24.3004 14.9148 25 14.2152 25 13.3523C25 12.4894 24.3004 11.7898 23.4375 11.7898C22.5746 11.7898 21.875 12.4894 21.875 13.3523C21.875 14.2152 22.5746 14.9148 23.4375 14.9148Z" fill="#4285F4" />
	<path d="M23.4375 13.2102C24.3004 13.2102 25 12.5106 25 11.6477C25 10.7848 24.3004 10.0852 23.4375 10.0852C22.5746 10.0852 21.875 10.7848 21.875 11.6477C21.875 12.5106 22.5746 13.2102 23.4375 13.2102Z" fill="#4285F4" />
	<path d="M21.875 13.3523H25V11.6477H21.875V13.3523Z" fill="#4285F4" />
	<path d="M6.96022 18.3239C7.82317 18.3239 8.52272 17.6243 8.52272 16.7614C8.52272 15.8984 7.82317 15.1989 6.96022 15.1989C6.09728 15.1989 5.39772 15.8984 5.39772 16.7614C5.39772 17.6243 6.09728 18.3239 6.96022 18.3239Z" fill="#EA4335" />
	<path d="M6.96022 20.0284C7.82317 20.0284 8.52272 19.3288 8.52272 18.4659C8.52272 17.6029 7.82317 16.9034 6.96022 16.9034C6.09728 16.9034 5.39772 17.6029 5.39772 18.4659C5.39772 19.3288 6.09728 20.0284 6.96022 20.0284Z" fill="#EA4335" />
	<path d="M8.52272 16.7614H5.39772V18.4659H8.52272V16.7614Z" fill="#EA4335" />
	<path d="M6.96022 8.09662C7.82317 8.09662 8.52272 7.39706 8.52272 6.53412C8.52272 5.67117 7.82317 4.97162 6.96022 4.97162C6.09728 4.97162 5.39772 5.67117 5.39772 6.53412C5.39772 7.39706 6.09728 8.09662 6.96022 8.09662Z" fill="#EA4335" />
	<path d="M6.96022 13.6364C7.82317 13.6364 8.52272 12.9368 8.52272 12.0739C8.52272 11.2109 7.82317 10.5114 6.96022 10.5114C6.09728 10.5114 5.39772 11.2109 5.39772 12.0739C5.39772 12.9368 6.09728 13.6364 6.96022 13.6364Z" fill="#EA4335" />
	<path d="M8.52272 6.53412H5.39772V12.1094H8.52272V6.53412Z" fill="#EA4335" />
	<path d="M18.0398 9.80115C18.9027 9.80115 19.6023 9.10159 19.6023 8.23865C19.6023 7.3757 18.9027 6.67615 18.0398 6.67615C17.1768 6.67615 16.4773 7.3757 16.4773 8.23865C16.4773 9.10159 17.1768 9.80115 18.0398 9.80115Z" fill="#34A853" />
	<path d="M18.0398 8.09662C18.9027 8.09662 19.6023 7.39706 19.6023 6.53412C19.6023 5.67117 18.9027 4.97162 18.0398 4.97162C17.1768 4.97162 16.4773 5.67117 16.4773 6.53412C16.4773 7.39706 17.1768 8.09662 18.0398 8.09662Z" fill="#34A853" />
	<path d="M16.4773 8.23865H19.6023V6.5341H16.4773V8.23865Z" fill="#34A853" />
	<path d="M12.5 4.82953C13.3629 4.82953 14.0625 4.12997 14.0625 3.26703C14.0625 2.40408 13.3629 1.70453 12.5 1.70453C11.6371 1.70453 10.9375 2.40408 10.9375 3.26703C10.9375 4.12997 11.6371 4.82953 12.5 4.82953Z" fill="#FAB908" />
	<path d="M12.5 3.125C13.3629 3.125 14.0625 2.42544 14.0625 1.5625C14.0625 0.699555 13.3629 0 12.5 0C11.6371 0 10.9375 0.699555 10.9375 1.5625C10.9375 2.42544 11.6371 3.125 12.5 3.125Z" fill="#FAB908" />
	<path d="M10.9375 3.26703L14.0625 3.26703V1.56248L10.9375 1.56248V3.26703Z" fill="#FAB908" />
	<path d="M12.5 25C13.3629 25 14.0625 24.3004 14.0625 23.4375C14.0625 22.5746 13.3629 21.875 12.5 21.875C11.6371 21.875 10.9375 22.5746 10.9375 23.4375C10.9375 24.3004 11.6371 25 12.5 25Z" fill="#FAB908" />
	<path d="M12.5 23.2955C13.3629 23.2955 14.0625 22.5959 14.0625 21.733C14.0625 20.87 13.3629 20.1705 12.5 20.1705C11.6371 20.1705 10.9375 20.87 10.9375 21.733C10.9375 22.5959 11.6371 23.2955 12.5 23.2955Z" fill="#FAB908" />
	<path d="M10.9375 23.4375H14.0625V21.733H10.9375V23.4375Z" fill="#FAB908" />
	<path d="M18.0398 20.0284C18.9027 20.0284 19.6023 19.3288 19.6023 18.4659C19.6023 17.6029 18.9027 16.9034 18.0398 16.9034C17.1768 16.9034 16.4773 17.6029 16.4773 18.4659C16.4773 19.3288 17.1768 20.0284 18.0398 20.0284Z" fill="#34A853" />
	<path d="M18.0398 14.4886C18.9027 14.4886 19.6023 13.7891 19.6023 12.9261C19.6023 12.0632 18.9027 11.3636 18.0398 11.3636C17.1768 11.3636 16.4773 12.0632 16.4773 12.9261C16.4773 13.7891 17.1768 14.4886 18.0398 14.4886Z" fill="#34A853" />
	<path d="M16.4773 18.4659H19.6023V12.9261H16.4773V18.4659Z" fill="#34A853" />
	<path d="M12.5 9.51703C13.3629 9.51703 14.0625 8.81747 14.0625 7.95453C14.0625 7.09158 13.3629 6.39203 12.5 6.39203C11.6371 6.39203 10.9375 7.09158 10.9375 7.95453C10.9375 8.81747 11.6371 9.51703 12.5 9.51703Z" fill="#FAB908" />
	<path d="M12.5 18.608C13.3629 18.608 14.0625 17.9084 14.0625 17.0455C14.0625 16.1825 13.3629 15.483 12.5 15.483C11.6371 15.483 10.9375 16.1825 10.9375 17.0455C10.9375 17.9084 11.6371 18.608 12.5 18.608Z" fill="#FAB908" />
</svg>
