<svg id="Layer_2" data-name="Layer 2" xmlns="http://www.w3.org/2000/svg" viewBox="0 0 141.22 113.26">
	<defs>
		<style>
			.cls-1{fill:#fff;}.cls-2{fill:#81b53b;}
		</style>
	</defs>
	<title>
		podbean
	</title>
	<circle class="cls-1" cx="70.39" cy="87.48" r="25.78" />
	<circle class="cls-1" cx="70.39" cy="87.48" r="25.78" />
	<circle class="cls-1" cx="7199.28" cy="7230.85" r="13.39" transform="translate(-7652.62 6756.06) rotate(-85.93)" />
	<path class="cls-1" d="M7156.65,7205.44a9.14,9.14,0,0,0,12.07-1.33c6-5.92,15.26-15.78,30.56-15.78a34.88,34.88,0,0,1,27.66,13.26c3.71,4.52,6.22,6.37,9.71,6.37s7.77-3.26,7.77-7-5.7-14.5-19.7-21.67-21.06-6.27-25.94-6.27-20.06,1.64-28.13,7.72-15.93,14.66-15.93,17.58C7154.72,7202.25,7155.53,7204.33,7156.65,7205.44Z" transform="translate(-7128.89 -7143.37)" />
	<path class="cls-1" d="M7156.65,7205.44a9.14,9.14,0,0,0,12.07-1.33c6-5.92,15.26-15.78,30.56-15.78a34.88,34.88,0,0,1,27.66,13.26c3.71,4.52,6.22,6.37,9.71,6.37s7.77-3.26,7.77-7-5.7-14.5-19.7-21.67-21.06-6.27-25.94-6.27-20.06,1.64-28.13,7.72-15.93,14.66-15.93,17.58C7154.72,7202.25,7155.53,7204.33,7156.65,7205.44Z" transform="translate(-7128.89 -7143.37)" />
	<path class="cls-1" d="M7252.94,7184.39c4,4.62,7.45,7.33,10.28,7.17s6.94-4.5,6.89-7.17-11.32-20.28-25.24-28.2-30.74-12.82-45.3-12.82-36.18,5.41-45.85,12.85-21.67,17.89-24,23.78.76,9.35,3,10.46,9.07,1.21,15.07-8.27,21.11-23.34,51.74-23.34,39.84,12.7,44.85,17.71S7251.4,7182.6,7252.94,7184.39Z" transform="translate(-7128.89 -7143.37)" />
	<path class="cls-1" d="M7252.94,7184.39c4,4.62,7.45,7.33,10.28,7.17s6.94-4.5,6.89-7.17-11.32-20.28-25.24-28.2-30.74-12.82-45.3-12.82-36.18,5.41-45.85,12.85-21.67,17.89-24,23.78.76,9.35,3,10.46,9.07,1.21,15.07-8.27,21.11-23.34,51.74-23.34,39.84,12.7,44.85,17.71S7251.4,7182.6,7252.94,7184.39Z" transform="translate(-7128.89 -7143.37)" />
	<circle class="cls-2" cx="70.39" cy="87.48" r="25.78" />
	<circle class="cls-1" cx="7199.28" cy="7230.85" r="13.39" transform="translate(-7652.62 6756.06) rotate(-85.93)" />
	<path class="cls-2" d="M7156.65,7205.44a9.14,9.14,0,0,0,12.07-1.33c6-5.92,15.26-15.78,30.56-15.78a34.88,34.88,0,0,1,27.66,13.26c3.71,4.52,6.22,6.37,9.71,6.37s7.77-3.26,7.77-7-5.7-14.5-19.7-21.67-21.06-6.27-25.94-6.27-20.06,1.64-28.13,7.72-15.93,14.66-15.93,17.58C7154.72,7202.25,7155.53,7204.33,7156.65,7205.44Z" transform="translate(-7128.89 -7143.37)" />
	<path class="cls-2" d="M7252.94,7184.39c4,4.62,7.45,7.33,10.28,7.17s6.94-4.5,6.89-7.17-11.32-20.28-25.24-28.2-30.74-12.82-45.3-12.82-36.18,5.41-45.85,12.85-21.67,17.89-24,23.78.76,9.35,3,10.46,9.07,1.21,15.07-8.27,21.11-23.34,51.74-23.34,39.84,12.7,44.85,17.71S7251.4,7182.6,7252.94,7184.39Z" transform="translate(-7128.89 -7143.37)" />
</svg>
