<svg width="24" height="24" viewBox="0 0 24 24" fill="none" xmlns="http://www.w3.org/2000/svg">
	<path fill-rule="evenodd" clip-rule="evenodd" d="M19.3131 10.8229C15.4642 8.24054 9.11539 8.0031 5.4411 9.26295C4.85108 9.46528 4.22711 9.08882 4.04831 8.42225C3.86951 7.75535 4.20231 7.05093 4.79276 6.84828C9.01058 5.40189 16.0221 5.68121 20.4531 8.65276C20.9839 9.00876 21.158 9.7831 20.8433 10.3817C20.5285 10.9813 19.8425 11.1789 19.3131 10.8229ZM18.8673 13.5545C18.607 13.994 18.0545 14.1317 17.6326 13.862C14.5382 11.8837 9.81973 11.3107 6.15887 12.4664C5.6841 12.6156 5.18264 12.3371 5.03854 11.8444C4.89541 11.3506 5.16327 10.83 5.63708 10.6799C9.81919 9.36011 15.0179 9.99933 18.572 12.2709C18.9939 12.5412 19.1268 13.1161 18.8673 13.5545ZM16.8951 16.6711C16.6898 16.9951 16.251 17.0968 15.9154 16.8992C13.2305 15.3208 9.85113 14.9643 5.87134 15.8388C5.48783 15.9234 5.1057 15.6921 5.01819 15.3233C4.93026 14.9544 5.16972 14.5868 5.55405 14.5027C9.90929 13.5449 13.6452 13.9571 16.6588 15.7285C16.9948 15.9258 17.1006 16.3481 16.8951 16.6711ZM12.0001 0C5.37268 0 0 5.37244 0 11.9999C0 18.6277 5.37268 24 12.0001 24C18.6276 24 24 18.6277 24 11.9999C24 5.37244 18.6276 0 12.0001 0Z" fill="#1DD760" />
</svg>
