<svg width="222" height="162" viewBox="0 0 222 162" fill="none" xmlns="http://www.w3.org/2000/svg">
<path d="M219.761 91.4234C218.012 89.9627 215.9 89.4169 213.691 89.117C213.479 89.0901 213.232 89.1977 213.066 88.9709H15.0342C12.6096 89.6129 10.1811 90.2356 7.86845 91.2274C6.3101 91.8723 4.82764 92.6857 3.44776 93.653C1.76643 94.8178 0.546868 96.5311 0 98.4964V99.8572C0.358485 101.342 1.00652 102.742 1.90727 103.978C3.8377 106.45 6.44765 107.922 9.27381 109.106C11.8992 110.205 14.6481 110.966 17.3121 111.966C18.4336 112.351 19.5053 112.867 20.5051 113.503C22.4355 114.814 33.744 121.783 22.0842 139.743C20.6672 141.93 20.0456 147.162 25.559 152.732C31.0723 158.302 46.6856 157.506 52.2453 156.691C57.9285 155.857 59.6273 153.304 70.8045 153.231C75.4491 153.181 79.92 155.103 84.4218 156.257C89.1629 157.49 93.9002 158.778 98.707 159.716C99.8382 159.935 103.919 160.535 104.498 160.589C106.707 160.798 108.927 160.848 111.143 160.739C111.71 160.708 112.274 160.662 112.838 160.604C112.772 160.604 113.807 160.473 113.919 160.454C114.818 160.293 115.706 160.097 116.587 159.858C117.533 159.605 118.463 159.301 119.378 158.955C119.274 158.982 120.351 158.528 120.405 158.501C120.922 158.252 121.432 157.982 121.949 157.702C125.888 155.499 128.374 152.355 132.212 149.345C135.443 146.808 149.802 134.346 187.561 138.882C210.792 141.672 200.147 119.777 212.116 104.885C213.529 103.128 215.332 104.451 218.471 101.737C220.166 100.272 221.483 98.5502 221.753 96.2284C221.996 94.3878 221.237 92.5576 219.761 91.4234Z" fill="#2EBF8B"/>
<path d="M17.6553 90.99C17.6553 41.2844 57.769 0.98999 107.252 0.98999C156.734 0.98999 196.848 41.2844 196.848 90.99" fill="#F4F6F1"/>
<rect x="41.5" y="139.47" width="0.590713" height="7.78028" rx="0.295357" fill="#00896F"/>
<path d="M41.7205 139.47C41.7205 139.47 40.2109 143.064 32.8984 140.561C32.8984 140.561 38.6125 133.642 41.7205 138.332C41.7205 138.332 42.9521 134.419 49.0793 138.332C49.0793 138.332 45.9443 142.61 41.7205 139.47Z" fill="#00896F"/>
<path d="M45.2102 138.505C45.2102 138.505 43.2798 137.209 41.7934 139.02C41.7934 139.02 39.3379 137.602 37.6738 139.47" stroke="#0C6D5B" stroke-width="1.27" stroke-linecap="round" stroke-linejoin="round"/>
<rect x="190.904" y="128.23" width="0.528939" height="6.98457" rx="0.26447" fill="#00896F"/>
<path d="M191.113 128.23C191.113 128.23 189.762 131.459 183.194 129.21C183.194 129.21 188.325 123.002 191.113 127.207C191.113 127.207 192.221 123.694 197.723 127.207C197.711 127.207 194.877 131.051 191.113 128.23Z" fill="#00896F"/>
<path d="M194.236 127.365C194.236 127.365 192.51 126.212 191.17 127.826C191.17 127.826 188.966 126.554 187.468 128.23" stroke="#0C6D5B" stroke-width="1.14" stroke-linecap="round" stroke-linejoin="round"/>
<rect x="195.379" y="97.3547" width="0.447861" height="5.88518" rx="0.22393" fill="#00896F"/>
<path d="M195.545 97.3548C195.545 97.3548 194.386 100.073 188.869 98.1812C188.869 98.1812 193.193 92.9457 195.545 96.4937C195.545 96.4937 196.479 93.53 201.112 96.4937C201.112 96.4937 198.726 99.7496 195.545 97.3548Z" fill="#00896F"/>
<path d="M198.186 96.6243C198.186 96.6243 196.73 95.6441 195.603 97.0087C195.603 97.0087 193.742 95.9362 192.483 97.3508" stroke="#0C6D5B" stroke-width="0.96" stroke-linecap="round" stroke-linejoin="round"/>
<rect x="14.2041" y="96.855" width="0.374504" height="4.92418" rx="0.187252" fill="#00896F"/>
<path d="M14.3426 96.8512C14.3426 96.8512 13.389 99.1268 8.76367 97.5431C8.76367 97.5431 12.3774 93.1686 14.3426 96.1323C14.3426 96.1323 15.1148 93.6568 18.9988 96.1323C18.9988 96.1323 17.0066 98.8385 14.3426 96.8512Z" fill="#00896F"/>
<path d="M16.5552 96.2439C15.8599 95.775 14.9197 95.9155 14.3932 96.5668C14.3932 96.5668 12.8488 95.6711 11.7832 96.8512" stroke="#0C6D5B" stroke-width="0.8" stroke-linecap="round" stroke-linejoin="round"/>
<rect x="99.2197" y="131.032" width="0.548243" height="7.23059" rx="0.274122" fill="#00896F"/>
<path d="M99.4251 131.032C99.4251 131.032 98.0236 134.373 91.2246 132.047C91.2246 132.047 96.5372 125.616 99.4251 129.975C99.4251 129.975 100.583 126.335 106.267 129.975C106.267 129.975 103.336 133.961 99.4251 131.032Z" fill="#00896F"/>
<path d="M102.672 130.117C102.672 130.117 100.884 128.918 99.494 130.598C99.494 130.598 97.2123 129.279 95.6641 131.017" stroke="#0C6D5B" stroke-width="1.18" stroke-linecap="round" stroke-linejoin="round"/>
<rect x="68.418" y="121.795" width="0.49033" height="6.46178" rx="0.245165" fill="#00896F"/>
<path d="M68.5993 121.795C68.5993 121.795 67.3445 124.782 61.2637 122.702C61.2637 122.702 66.0087 116.936 68.5993 120.849C68.5993 120.849 69.6263 117.601 74.7111 120.849C74.7111 120.849 72.0934 124.405 68.5993 121.795Z" fill="#00896F"/>
<path d="M71.4987 120.995C71.4987 120.995 69.9003 119.919 68.6609 121.422C68.6609 121.422 66.6224 120.242 65.2363 121.806" stroke="#0C6D5B" stroke-width="1.05" stroke-linecap="round" stroke-linejoin="round"/>
<path d="M0.617188 58.388C0.617188 58.388 16.1456 59.2183 29.3228 76.9046L34.1566 82.7244C34.1566 82.7244 13.7828 74.7558 7.19997 66.5796L0.617188 58.388Z" fill="#2A8693"/>
<path d="M1.07715 80.6371C1.07715 80.6371 12.7949 71.3846 33.9911 82.7898C33.9911 82.7898 29.0376 86.7184 18.3931 83.5586C7.74873 80.3988 6.40129 77.6388 1.07715 80.6371Z" fill="#2A8693"/>
<path d="M29.647 45.3645C29.647 45.3645 21.7283 66.1529 33.9325 82.8359C33.9325 82.8359 41.94 60.1101 29.647 45.3645Z" fill="#2A8693"/>
<path d="M6.85254 62.2012C6.85254 62.2012 22.574 75.8398 28.6163 78.4076L6.85254 62.2012Z" fill="#2EBF8B"/>
<path d="M31.4428 53.5215C31.4428 53.5215 28.3541 69.6971 33.7864 79.3148" stroke="#2EBF8B" stroke-width="0.85" stroke-linecap="round" stroke-linejoin="round"/>
<path d="M13.1807 79.7376C13.1807 79.7376 24.798 79.9337 32.4271 81.4597L13.1807 79.7376Z" fill="#2EBF8B"/>
<path d="M114.258 54.2403C114.258 54.2403 119.408 62.897 114.559 76.3703L113.146 81.0753C113.146 81.0753 110.119 67.2369 112.188 60.7367L114.258 54.2403Z" fill="#2A8693"/>
<path d="M102.34 62.5126C102.34 62.5126 111.606 65.4841 113.05 81.01C113.05 81.01 109.127 79.7607 106.992 72.8953C104.857 66.0299 105.892 64.2963 102.34 62.5126Z" fill="#2A8693"/>
<path d="M131.806 65.1534C131.806 65.1534 117.66 68.3939 112.996 80.9869C112.996 80.9985 128.231 77.1045 131.806 65.1534Z" fill="#2A8693"/>
<path d="M114.436 58.9684C114.436 58.9684 112.706 72.3533 113.49 76.5356L114.436 58.9684Z" fill="#2EBF8B"/>
<path d="M128.022 69.0743C128.022 69.0743 118.142 73.2489 114.864 79.6454" stroke="#2EBF8B" stroke-width="0.55" stroke-linecap="round" stroke-linejoin="round"/>
<path d="M107.196 68.7053C107.196 68.7053 111.285 75.0287 113.208 79.6877L107.196 68.7053Z" fill="#2EBF8B"/>
<path d="M125.706 91.5964H209.58C209.58 91.5964 202.808 73.9601 186.658 80.7063C186.658 80.7063 174.689 60.5137 154.879 79.1687C154.879 79.1687 134.042 64.6268 125.706 91.5964Z" fill="url(#paint0_linear)"/>
<path d="M136.675 81.7557C136.675 87.2296 132.011 91.6694 126.25 91.6694C125.524 91.6691 124.8 91.5957 124.088 91.4503H16.7058C12.2427 91.4503 8.62891 88.0099 8.62891 83.7623C8.62891 79.5146 12.2427 76.0742 16.7058 76.0742H17.9877C17.9877 70.0737 23.0994 65.2072 29.4042 65.2072C31.473 65.205 33.5056 65.7474 35.2959 66.7794C38.0729 63.0581 42.5551 60.9918 47.2017 61.2907C51.8484 61.5897 56.0261 64.2132 58.299 68.2594C59.7964 65.6708 62.5888 64.0972 65.5886 64.1516C68.5884 64.206 71.3214 65.8796 72.7232 68.5208C74.1654 65.0951 77.4788 62.8189 81.2074 62.6925C84.9359 62.5661 88.3972 64.6126 90.0701 67.9326C93.3729 64.0068 98.262 61.7518 103.406 61.7822C111.336 61.7822 117.976 66.9447 119.876 73.9293C121.719 72.5669 123.955 71.8334 126.25 71.8381C131.995 71.8381 136.675 76.278 136.675 81.7557Z" fill="#00896F"/>
<path d="M158.296 127.042C175.355 127.042 189.183 124.461 189.183 121.276C189.183 118.092 175.355 115.51 158.296 115.51C141.238 115.51 127.409 118.092 127.409 121.276C127.409 124.461 141.238 127.042 158.296 127.042Z" fill="#2FA578"/>
<path d="M123.826 102.44C124.008 101.369 124.393 100.342 124.961 99.4151C126.425 96.9857 131.803 97.1779 134.667 98.1542C135.073 99.6726 134.351 102.971 134.305 103.048C136.416 104.943 133.918 104.37 133.884 106.834C131.343 110.624 125.367 108.618 124.154 104.766C124.023 104.347 123.934 103.916 123.826 103.494L123.826 102.44Z" fill="#7261C8"/>
<path fill-rule="evenodd" clip-rule="evenodd" d="M132.184 103.305C132.234 100.841 132.57 98.4464 133.895 96.286C133.95 96.2107 133.971 96.116 133.952 96.0247C135.238 94.6661 134.837 91.7712 134.525 89.5118C134.395 88.5747 134.281 87.7469 134.308 87.1834C134.47 83.8276 134.752 81.1791 135.852 78.0039C137.23 74.0062 138.906 70.5696 141.489 67.2945C143.033 65.2533 150.342 58.3572 152.369 57.7767C152.469 57.7496 152.551 57.6789 152.593 57.5845C153.322 54.0173 154.137 50.477 155.438 47.0635C155.492 46.9213 155.523 46.8175 155.373 46.7175C153.019 45.1387 151.333 42.9502 149.642 40.7553C149.274 40.2782 148.906 39.8008 148.531 39.3293C144.67 34.4667 141.836 29.0581 139.52 23.3498C139.379 23.0045 139.555 23.0125 139.733 23.0207C139.766 23.0222 139.798 23.0236 139.829 23.023C144.118 22.9116 147.674 24.6837 150.871 27.3245C155.214 30.9186 158.353 35.4238 160.604 40.5402C160.99 41.4435 161.403 41.4474 162.148 41.236C162.968 41.0074 163.801 40.8267 164.632 40.6464L164.632 40.6464L164.632 40.6463C164.905 40.5871 165.178 40.528 165.449 40.4672C165.558 40.4403 165.72 40.3903 165.751 40.3134C166.587 38.0688 168.122 36.3156 169.652 34.5678C170.092 34.0647 170.532 33.562 170.955 33.0482C173.928 29.4425 177.38 26.3827 181.708 24.4299C181.778 24.3981 181.855 24.3601 181.935 24.3206L181.935 24.3206C182.251 24.1645 182.611 23.9866 182.762 24.0878C182.995 24.2467 182.884 24.5502 182.779 24.8374C182.741 24.9392 182.705 25.039 182.684 25.1296C181.709 28.7832 180.245 32.2511 178.78 35.72L178.78 35.7201C178.18 37.1417 177.58 38.5635 177.013 39.9982C176.351 41.5553 175.4 42.9741 174.21 44.1805C174.194 44.1969 174.177 44.2135 174.16 44.2306C174.059 44.3293 173.945 44.441 174.067 44.5918C174.958 45.7346 175.368 47.0752 175.778 48.4157C176.014 49.1898 176.251 49.9639 176.58 50.6999C176.866 51.4253 177.247 52.1092 177.715 52.7334C180.117 55.6971 180.032 59.0414 179.036 62.4318C178.472 64.3269 176.306 65.78 174.26 66.2759C173.865 66.5329 174.563 67.3891 175.082 68.0256L175.082 68.0256C175.253 68.2361 175.405 68.4226 175.492 68.5554L175.602 68.7244C177.261 71.2628 178.924 73.8078 179.619 76.82C180.136 79.0702 179.739 81.2744 179.343 83.4763L179.343 83.4764C179.254 83.9714 179.165 84.4663 179.086 84.9616C178.727 87.5615 178.047 90.1075 177.063 92.542C176.913 92.8735 177.091 93.1079 177.264 93.3362C177.291 93.3726 177.319 93.4089 177.345 93.4453C178.484 95.0291 178.758 96.8819 178.843 98.7308L178.851 98.9075C179.027 102.574 179.203 106.259 177.573 109.725C177.303 110.371 176.967 110.988 176.569 111.566C176.16 112.104 176.314 112.147 176.772 112.273C176.812 112.284 176.853 112.295 176.897 112.308C177.472 112.473 178.071 112.566 178.669 112.659L178.669 112.659C179.825 112.84 180.98 113.02 181.97 113.719C183.955 115.118 185.341 116.901 185.31 119.485C185.307 119.766 185.328 120.048 185.372 120.326C185.565 121.591 184.931 122.195 183.735 121.818C178.905 120.28 174.082 118.743 169.685 116.156C169.098 115.85 168.493 115.579 167.874 115.345C168.534 113.534 159.959 112.823 159.967 113.596C159.628 113.47 158.027 113.524 155.899 113.595H155.899C154.251 113.651 152.287 113.717 150.346 113.719C148.339 113.666 146.338 113.475 144.358 113.146C143.319 112.996 141.798 114.038 142.08 115.014C143.071 118.461 140.882 120.052 138.676 121.655L138.676 121.656C138.51 121.776 138.345 121.897 138.18 122.018C136.35 123.363 135.049 123.49 133.783 122.506C131.655 120.822 131.339 117.048 133.2 115.053C133.594 114.593 134.04 114.179 134.528 113.819C135.258 113.318 134.983 112.739 134.729 112.202L134.713 112.17C133.441 109.626 132.607 106.888 132.246 104.07C132.207 103.856 132.198 103.639 132.189 103.424C132.188 103.384 132.186 103.345 132.184 103.305ZM144.952 27.8665C144.967 27.9606 144.99 28.0532 145.022 28.1433C145.281 28.7303 145.536 29.3203 145.791 29.9102C148.096 35.2428 150.397 40.5677 156.06 43.5616C157.025 44.0728 157.581 44.119 157.797 43.1464C157.841 42.9493 158.021 42.8447 158.202 42.7401C158.518 42.5569 158.834 42.3734 158.419 41.6934C156.874 39.1525 155.253 36.6962 153.191 34.5589C152.813 34.1696 152.44 33.7743 152.066 33.3787C150.048 31.2427 148.02 29.0962 145.261 27.8281C145.238 27.8168 145.212 27.7905 145.184 27.7627C145.097 27.6764 144.996 27.5758 144.952 27.8665ZM172.889 42.5929C172.764 42.8975 172.443 43.0748 172.117 43.0196V43.0081C171.828 42.8351 171.491 42.7176 171.146 42.597C170.523 42.3797 169.873 42.1526 169.418 41.5742C169.373 41.5063 169.357 41.4236 169.372 41.3436C171.11 35.8159 174.634 31.5452 178.982 27.8627C179.122 27.7667 179.272 27.6868 179.43 27.6243C179.454 27.7513 179.454 27.8818 179.43 28.0087C178.489 29.916 177.721 31.9003 176.953 33.8846C175.796 36.8754 174.639 39.8661 172.889 42.5929Z" fill="#D6CCF8"/>
<path d="M144.952 27.8665C145.01 27.4821 145.184 27.7935 145.261 27.8281C148.531 29.3311 150.774 32.0565 153.191 34.559C155.253 36.6847 156.882 39.1526 158.419 41.6935C159.071 42.7659 157.917 42.6045 157.797 43.1465C157.581 44.119 157.025 44.0729 156.06 43.5616C149.771 40.2366 147.628 34.0362 145.022 28.1433C144.99 28.0533 144.967 27.9607 144.952 27.8665Z" fill="#7261C8"/>
<path d="M172.118 43.0081C171.307 42.5237 170.126 42.4853 169.415 41.555C169.37 41.4871 169.353 41.4043 169.369 41.3244C171.106 35.7967 174.631 31.526 178.979 27.8434C179.118 27.7475 179.269 27.6675 179.426 27.6051C179.451 27.7321 179.451 27.8625 179.426 27.9895C177.067 32.7715 175.797 38.0377 172.886 42.5737C172.764 42.8797 172.445 43.0602 172.118 43.0081Z" fill="#7261C8"/>
<path d="M166.759 52.9602C166.798 53.5425 166.601 54.116 166.211 54.5516C165.912 54.9807 165.409 55.2217 164.886 55.1859C164.354 55.1475 163.908 54.7716 163.782 54.2556C163.503 53.4898 163.631 52.6355 164.122 51.9838C164.442 51.5379 164.875 51.1035 165.624 51.2342C166.442 51.3765 166.624 51.9531 166.755 52.5181C166.774 52.6648 166.775 52.8132 166.759 52.9602Z" fill="#2B214B"/>
<path d="M174.654 59.1875C174.322 59.2221 173.917 59.1875 173.801 58.734C173.662 58.1881 174.056 57.8691 174.457 57.6423C175.203 57.2368 176.075 57.1283 176.897 57.3386C177.093 57.4171 177.242 57.5797 177.303 57.7806C177.349 58.0752 177.191 58.3639 176.917 58.4841C176.252 58.9417 175.463 59.187 174.654 59.1875Z" fill="#2B214B"/>
<path d="M148.71 85.2269C146.779 92.3537 147.501 98.4926 149.447 104.22C150.605 107.626 159.335 103.155 160.477 98.4541C161.109 96.1312 160.644 93.6484 159.215 91.7079C157.806 89.8166 156.995 87.4795 156.559 84.8194C156.042 81.9941 155.379 79.1971 154.574 76.4395C154.084 74.6136 153.184 74.4906 152.038 76.1166C150.814 77.8579 150.061 79.9606 149.443 82.0902C149.126 83.1972 148.914 84.3351 148.71 85.2269Z" fill="#B1B1C4"/>
<path fill-rule="evenodd" clip-rule="evenodd" d="M144 89.2772C143.914 89.456 143.828 89.6349 143.74 89.8127C143.559 90.4796 143.744 91.0999 143.934 91.7405C143.956 91.8126 143.977 91.885 143.998 91.9577C144.214 92.4826 144.399 93.019 144.554 93.5645C145.06 95.7287 146.35 97.247 148.454 97.8852C149.774 98.2824 151.182 98.2672 152.567 98.2522C152.83 98.2493 153.092 98.2465 153.353 98.2465C155.905 98.1965 158.457 98.0504 161.002 97.8621C161.734 97.8064 162.47 97.7674 163.208 97.7284C165.32 97.6166 167.441 97.5044 169.496 96.9972C171.526 96.4957 173.544 95.9247 175.565 95.353C177.975 94.6714 180.387 93.9888 182.827 93.4223C183.15 93.3489 183.481 93.2911 183.814 93.2329C184.999 93.026 186.208 92.8149 187.14 91.8847C187.348 91.6963 187.348 91.6156 187.14 91.4541C186.305 90.891 185.395 90.446 184.437 90.1318C182.782 89.4811 181.06 89.1126 179.33 88.7425C178.741 88.6162 178.15 88.4898 177.561 88.352C176.768 88.1601 175.98 87.9496 175.192 87.7391C173.155 87.1952 171.12 86.6517 169.013 86.43C168.489 86.3744 167.966 86.322 167.442 86.2697C165.36 86.0616 163.281 85.8537 161.214 85.4421C160.78 85.3548 160.346 85.2633 159.911 85.1717C157.187 84.5979 154.439 84.019 151.639 84.4234C149.442 84.7425 147.168 85.0846 145.489 86.8682C144.816 87.5827 144.409 88.4283 144 89.2772ZM164.766 95.2558C161.77 95.6403 158.793 95.9593 155.979 95.721C155.443 95.7044 154.915 95.6933 154.393 95.6823C152.254 95.6373 150.225 95.5946 148.211 95.1867C147.003 94.9328 146.502 94.0442 145.979 93.1163C145.964 93.0889 145.948 93.0615 145.933 93.034C145.554 92.3358 145.402 91.5827 145.247 90.8187C145.219 90.6784 145.19 90.5378 145.16 90.397C144.798 88.721 146.489 86.6991 148.272 86.799C148.952 86.8336 149.365 87.0681 149.338 87.883C149.28 89.5091 150.527 91.4772 151.786 91.7001C152.231 91.7789 152.692 91.772 153.153 91.7651C153.48 91.7603 153.805 91.7554 154.125 91.7809C154.474 91.7897 154.811 91.9096 155.087 92.123C156.473 93.4761 158.056 93.1762 159.674 92.7611C159.713 92.751 159.752 92.741 159.791 92.7309C161.816 92.2094 163.894 91.6742 165.905 92.5189C167.554 93.1955 168.967 92.8572 170.411 92.1345C172.414 91.1312 174.468 91.1774 176.611 91.6079C177.566 91.799 178.542 91.876 179.519 91.9531C179.976 91.9891 180.434 92.0252 180.889 92.073C181.027 92.0977 181.164 92.1298 181.298 92.1691C181.256 92.1865 181.215 92.2054 181.174 92.2241C181.097 92.2592 181.021 92.294 180.943 92.319C179.041 92.9318 177.072 93.1661 175.106 93.4C173.939 93.5388 172.773 93.6775 171.623 93.8951C170.775 94.0559 169.932 94.2432 169.09 94.4304C167.657 94.7488 166.225 95.0671 164.766 95.2558Z" fill="#E1805A"/>
<path d="M143.74 89.8128C143.539 90.5547 143.79 91.2389 144.01 91.927C142.307 91.8347 140.601 91.7425 138.898 91.6617C138.781 91.6721 138.667 91.7007 138.558 91.7463C138.611 91.8406 138.669 91.9317 138.732 92.0192C139.809 93.3262 140.578 94.6716 139.751 96.4398C139.277 97.4585 138.528 97.7583 137.582 97.1587C137.346 97.0087 137.365 97.2471 137.315 97.3509C136.817 98.3695 136.543 99.5343 135.605 100.272C134.061 101.479 131.509 101.149 129.841 99.5035C128.727 98.3919 127.776 97.1303 127.014 95.7556C126.428 94.7331 126.69 93.872 127.505 93.1109C127.574 93.0456 127.74 92.9648 127.582 92.8495C126.215 91.8116 126.235 90.2625 126.065 88.7864C125.976 87.7406 126.069 86.6873 126.339 85.6728C126.748 83.8891 128.308 83.3664 129.744 84.6041C130.13 84.9232 130.192 84.9078 130.404 84.4542C131.134 82.9166 131.717 81.2214 133.667 80.7101C134.995 80.3603 136.246 80.4526 137.261 81.452C138.277 82.4515 138.246 83.5586 137.69 84.7502C137.597 84.9501 137.609 85.0116 137.867 85.0154C139.026 85.0154 139.968 85.6651 140.219 86.6684C140.497 87.7831 139.674 88.3905 138.987 89.0401C138.863 89.1554 138.751 89.2784 138.636 89.3976C138.794 89.4407 138.955 89.4728 139.118 89.4937L143.74 89.8128Z" fill="#8CF18C"/>
<path d="M155.979 95.721C153.254 95.6364 150.725 95.6941 148.227 95.1713C146.984 94.9099 146.489 93.9758 145.949 93.0187C145.486 92.1922 145.354 91.2889 145.177 90.3817C144.821 88.6903 146.505 86.6837 148.289 86.7837C148.956 86.8183 149.381 87.0528 149.354 87.8677C149.296 89.4937 150.543 91.4618 151.802 91.6848C152.574 91.8193 153.346 91.704 154.142 91.7655C154.491 91.7743 154.827 91.8942 155.103 92.1076C156.489 93.4607 158.072 93.1609 159.69 92.7457C161.751 92.2153 163.871 91.6425 165.921 92.5036C167.57 93.1955 168.983 92.8572 170.427 92.1192C172.431 91.1159 174.485 91.162 176.627 91.5925C178.029 91.8732 179.477 91.9077 180.905 92.0577C181.043 92.0824 181.18 92.1145 181.314 92.1538C181.195 92.2037 181.079 92.2652 180.959 92.3037C177.928 93.2801 174.736 93.2954 171.639 93.8797C169.35 94.3141 167.103 94.9407 164.782 95.2405C161.771 95.6403 158.786 95.9593 155.979 95.721Z" fill="#EFAA6C"/>
<path fill-rule="evenodd" clip-rule="evenodd" d="M183.028 81.0446C183.479 81.779 183.826 82.5719 184.059 83.4009C184.11 83.9602 184.01 84.5231 183.769 85.0308C183.72 85.1583 183.668 85.2843 183.617 85.4101C183.504 85.6825 183.393 85.9538 183.313 86.2378C182.866 87.8792 181.92 88.9863 180.468 89.3707C179.508 89.6234 178.505 89.5303 177.521 89.4389C177.398 89.4275 177.274 89.416 177.151 89.4053C175.437 89.2515 173.727 89.0132 172.02 88.7364C171.484 88.6455 170.944 88.5722 170.405 88.4989C169.028 88.3121 167.651 88.1252 166.333 87.6447C164.97 87.1507 163.622 86.6025 162.273 86.054C160.705 85.416 159.135 84.7775 157.538 84.2236C157.322 84.1492 157.099 84.0871 156.875 84.0246C156.091 83.8058 155.292 83.5829 154.712 82.8205C154.596 82.6667 154.6 82.6052 154.751 82.4899C155.332 82.1013 155.97 81.8044 156.643 81.6096C157.783 81.193 158.958 80.9945 160.136 80.7957C160.544 80.7267 160.953 80.6577 161.361 80.5794C161.943 80.469 162.523 80.34 163.104 80.2109C164.463 79.9087 165.823 79.6062 167.214 79.5416C168.986 79.5073 170.756 79.3789 172.515 79.1572C172.819 79.1109 173.125 79.0613 173.43 79.0115C175.286 78.7096 177.156 78.4052 179.012 78.8573C180.476 79.211 181.989 79.5877 183.028 81.0446ZM169.63 86.5377C171.623 86.9836 173.615 87.3795 175.522 87.3372C175.89 87.351 176.253 87.369 176.611 87.3868C178.045 87.4579 179.411 87.5256 180.792 87.3103C181.62 87.1791 182.004 86.5145 182.402 85.8259C182.413 85.8082 182.423 85.7904 182.433 85.7727C182.746 85.1428 182.97 84.4727 183.097 83.7815C183.406 82.4938 182.371 80.8524 181.167 80.8524C180.715 80.8331 180.395 80.9946 180.395 81.6212C180.352 82.8782 179.41 84.3312 178.549 84.4388C178.023 84.4496 177.498 84.4316 176.974 84.385C176.733 84.3756 176.497 84.4504 176.306 84.5964C175.306 85.5728 174.256 85.2422 173.186 84.8578C173.128 84.8364 173.069 84.8148 173.01 84.7933C171.706 84.3155 170.368 83.825 169.001 84.3619C167.858 84.8117 166.924 84.4811 165.99 83.8507C164.692 82.9781 163.303 82.9089 161.839 83.1319C160.875 83.2326 159.906 83.2813 158.936 83.2779C158.842 83.2884 158.749 83.3064 158.658 83.3317C158.731 83.3804 158.807 83.4241 158.886 83.4624C160.142 84.0394 161.461 84.3182 162.78 84.5969C163.552 84.7601 164.324 84.9232 165.082 85.1461C165.645 85.3126 166.203 85.4991 166.761 85.6855C167.71 86.0027 168.658 86.3198 169.63 86.5377Z" fill="#E1805A"/>
<path d="M184.059 83.401C184.108 83.9552 184.008 84.5124 183.77 85.0155L187.225 85.0654C187.304 85.081 187.38 85.1096 187.449 85.15C187.41 85.2207 187.366 85.2888 187.318 85.3537C186.545 86.3032 185.943 87.3026 186.41 88.7019C186.677 89.5091 187.183 89.782 187.835 89.3669C188.001 89.2631 187.978 89.4476 188.005 89.5283C188.287 90.3356 188.414 91.2466 189.009 91.8616C189.978 92.8688 191.711 92.7458 192.928 91.5772C193.745 90.7576 194.448 89.8333 195.02 88.8287C195.443 88.1798 195.362 87.3261 194.823 86.7683C194.781 86.7145 194.673 86.6453 194.785 86.5646C195.758 85.8342 195.823 84.6426 196.012 83.5125C196.125 82.7123 196.116 81.8997 195.985 81.1023C195.8 79.7069 194.777 79.2341 193.746 80.1067C193.476 80.3335 193.429 80.3181 193.31 79.9606C192.897 78.7343 192.588 77.4005 191.302 76.9084C190.426 76.574 189.58 76.5817 188.847 77.2928C188.113 78.004 188.074 78.8689 188.387 79.8107C188.441 79.9721 188.43 80.0182 188.256 80.0067C187.493 79.9387 186.79 80.4243 186.588 81.1599C186.345 82.0056 186.866 82.513 187.298 83.0473C187.376 83.1434 187.445 83.2434 187.518 83.3395C187.409 83.3652 187.298 83.3819 187.186 83.3894L184.059 83.401Z" fill="#8CF18C"/>
<path d="M175.522 87.3372C177.364 87.4064 179.067 87.5794 180.773 87.3026C181.622 87.1642 182.005 86.4685 182.414 85.765C182.727 85.1351 182.95 84.465 183.078 83.7738C183.406 82.4861 182.371 80.86 181.148 80.8447C180.696 80.8447 180.375 80.9984 180.375 81.6135C180.333 82.8705 179.391 84.3043 178.53 84.4311C178.004 84.4419 177.478 84.4239 176.955 84.3773C176.714 84.368 176.478 84.4428 176.287 84.5887C175.287 85.5651 174.237 85.2537 173.167 84.8501C171.808 84.3427 170.41 83.793 168.982 84.3542C167.824 84.804 166.905 84.4734 165.97 83.843C164.673 82.9704 163.268 82.9012 161.82 83.1242C160.856 83.2249 159.886 83.2736 158.917 83.2702C158.823 83.2807 158.73 83.2987 158.639 83.3241C158.712 83.3727 158.788 83.4164 158.866 83.4547C160.859 84.3619 163.009 84.5349 165.063 85.1384C166.584 85.5882 168.067 86.184 169.611 86.53C171.623 86.9836 173.615 87.3795 175.522 87.3372Z" fill="#EFAA6C"/>
<path fill-rule="evenodd" clip-rule="evenodd" d="M144.052 74.6067C143.985 74.7434 143.919 74.8794 143.852 75.0133C143.754 75.5627 143.823 76.1289 144.049 76.6393C144.214 77.0439 144.357 77.4571 144.478 77.8771C144.868 79.5492 145.868 80.7217 147.501 81.2137C148.525 81.5212 149.615 81.5098 150.69 81.4985C150.891 81.4964 151.092 81.4943 151.292 81.4943C153.269 81.4712 155.246 81.3598 157.219 81.2099C157.775 81.169 158.335 81.1402 158.895 81.1114C160.548 81.0263 162.206 80.9411 163.809 80.5448C165.444 80.1506 167.064 79.6928 168.685 79.2348C170.494 78.7238 172.304 78.2124 174.137 77.7887C174.389 77.7308 174.648 77.6853 174.909 77.6396C175.825 77.479 176.758 77.3152 177.477 76.597C177.639 76.4548 177.639 76.3895 177.477 76.2665C176.828 75.83 176.121 75.4858 175.376 75.2439C174.113 74.7493 172.795 74.4666 171.475 74.1835C171 74.0816 170.525 73.9797 170.052 73.8678C169.398 73.7146 168.747 73.5435 168.097 73.3723C166.559 72.9677 165.02 72.563 163.431 72.3955C163.035 72.3526 162.639 72.3117 162.243 72.2708C160.62 72.1032 158.999 71.9358 157.388 71.6267C157.018 71.5551 156.648 71.4792 156.277 71.4031C154.198 70.9772 152.104 70.5481 149.972 70.8579C148.269 71.1039 146.508 71.3653 145.207 72.7415C144.688 73.2938 144.365 73.9589 144.052 74.6067ZM160.133 79.2148C157.821 79.5108 155.508 79.7607 153.331 79.5761C152.93 79.5638 152.536 79.5553 152.146 79.5469C150.476 79.5108 148.894 79.4767 147.339 79.1495C146.397 78.9544 146.01 78.2654 145.605 77.543C145.594 77.5249 145.584 77.5069 145.574 77.4889C145.266 76.8466 145.06 76.1606 144.964 75.4554C144.671 74.1484 145.991 72.5993 147.373 72.6761C147.891 72.7031 148.219 72.8837 148.2 73.5141C148.165 74.7673 149.122 76.2857 150.095 76.4587C150.439 76.519 150.791 76.5144 151.144 76.5097C151.399 76.5064 151.654 76.5031 151.906 76.524C152.176 76.5281 152.438 76.6199 152.651 76.7854C153.724 77.831 154.952 77.6003 156.203 77.2774C156.237 77.2688 156.271 77.2601 156.305 77.2514C157.871 76.8517 159.476 76.442 161.033 77.0929C162.296 77.6272 163.388 77.3658 164.508 76.8085C166.056 76.0166 167.651 76.0704 169.311 76.401C170.054 76.551 170.814 76.6109 171.575 76.6708C171.925 76.6984 172.275 76.726 172.623 76.7623C172.731 76.7802 172.836 76.8059 172.94 76.8392C172.851 76.8813 172.759 76.9185 172.666 76.9507C171.188 77.4249 169.661 77.6067 168.133 77.7885C167.234 77.8955 166.335 78.0026 165.446 78.1692C164.794 78.2924 164.145 78.4353 163.496 78.5782C162.382 78.8236 161.268 79.0691 160.133 79.2148Z" fill="#E1805A"/>
<path d="M143.852 75.0133C143.757 75.5668 143.831 76.1358 144.064 76.647L140.103 76.4394C140.012 76.4475 139.923 76.4709 139.84 76.5086C139.88 76.5822 139.925 76.6528 139.975 76.72C140.809 77.7233 141.404 78.7651 140.748 80.1297C140.361 80.8985 139.802 81.1445 139.068 80.6832C138.883 80.5679 138.898 80.7524 138.86 80.8331C138.474 81.6019 138.261 82.5168 137.535 83.0857C136.346 84.0198 134.366 83.7623 133.072 82.5091C132.211 81.6496 131.473 80.6755 130.879 79.6146C130.424 78.8227 130.628 78.1615 131.265 77.5734C131.319 77.5234 131.447 77.4619 131.327 77.3697C130.265 76.5701 130.281 75.3746 130.169 74.2368C130.098 73.4298 130.17 72.6167 130.381 71.8343C130.698 70.4543 131.902 70.0622 133.018 71.0078C133.308 71.2539 133.366 71.2423 133.528 70.8925C134.095 69.7009 134.547 68.3978 136.057 68.0018C137.084 67.7327 138.053 67.8019 138.84 68.5746C139.628 69.3472 139.612 70.2006 139.172 71.1193C139.103 71.2769 139.111 71.323 139.311 71.3269C140.142 71.2802 140.897 71.8085 141.134 72.6031C141.346 73.4642 140.709 73.9331 140.176 74.4329C140.084 74.5213 139.995 74.6174 139.906 74.7096C140.032 74.7441 140.162 74.7686 140.292 74.7827L143.852 75.0133Z" fill="#8CF18C"/>
<path d="M153.331 79.5762C151.215 79.5108 149.258 79.5531 147.323 79.1495C146.358 78.9496 145.976 78.2307 145.559 77.4889C145.251 76.8466 145.045 76.1606 144.949 75.4554C144.671 74.1484 145.976 72.5993 147.358 72.6762C147.875 72.7031 148.204 72.8837 148.184 73.5141C148.138 74.7673 149.107 76.2857 150.08 76.4587C150.671 76.5624 151.288 76.4587 151.891 76.524C152.161 76.5282 152.423 76.6199 152.636 76.7854C153.709 77.831 154.952 77.6003 156.188 77.2774C157.786 76.87 159.427 76.4279 161.018 77.0929C162.296 77.6272 163.388 77.3658 164.493 76.8085C166.037 76.0397 167.635 76.0704 169.295 76.401C170.38 76.6201 171.504 76.647 172.608 76.7623C172.715 76.7802 172.821 76.8059 172.925 76.8392C172.835 76.8813 172.744 76.9185 172.651 76.9507C170.303 77.7195 167.828 77.7195 165.431 78.1692C163.659 78.5037 161.913 78.9842 160.118 79.2148C157.821 79.5108 155.508 79.7607 153.331 79.5762Z" fill="#EFAA6C"/>
<path fill-rule="evenodd" clip-rule="evenodd" d="M151.18 65.1534C151.075 64.3882 151.075 63.6123 151.18 62.847C151.339 62.382 151.612 61.9642 151.976 61.6323C152.06 61.5437 152.146 61.4574 152.233 61.3711C152.42 61.1841 152.607 60.997 152.771 60.7866C153.717 59.5835 154.871 58.9915 156.184 59.1721C157.048 59.2869 157.817 59.7008 158.572 60.1071C158.677 60.1636 158.782 60.22 158.887 60.2754C160.222 60.9904 161.524 61.7745 162.805 62.5818C163.179 62.8186 163.56 63.0455 163.942 63.2725C165.021 63.9149 166.101 64.5582 167.025 65.4302C167.938 66.2915 168.82 67.19 169.702 68.0891C170.762 69.1684 171.822 70.2483 172.936 71.2654C173.086 71.402 173.245 71.5308 173.405 71.6602C173.96 72.1097 174.526 72.5673 174.724 73.3911C174.766 73.5603 174.739 73.6103 174.577 73.6525C173.971 73.7742 173.35 73.8027 172.736 73.7371C171.665 73.6887 170.645 73.45 169.623 73.2108C169.266 73.1273 168.91 73.0438 168.55 72.9683C167.984 72.8407 167.411 72.7368 166.84 72.633C165.689 72.4242 164.54 72.2157 163.446 71.8151C162.002 71.2326 160.526 70.7296 159.026 70.3082C158.761 70.2421 158.494 70.1786 158.227 70.115C156.614 69.7311 154.98 69.342 153.655 68.3363C152.597 67.5406 151.505 66.7141 151.18 65.1534ZM163.971 65.1803C162.591 64.1103 161.085 63.213 159.485 62.5087V62.5011C159.187 62.3611 158.894 62.2196 158.606 62.0798C157.476 61.5326 156.404 61.013 155.238 60.7251C154.528 60.554 153.961 60.9848 153.381 61.4257C153.374 61.4305 153.368 61.4353 153.362 61.4401C152.887 61.8571 152.47 62.3355 152.122 62.8624C151.404 63.8119 151.663 65.5148 152.636 65.9376C152.999 66.0952 153.296 66.0645 153.535 65.5532C154.014 64.5307 155.288 63.6504 156.022 63.8542C156.452 64.0253 156.872 64.2203 157.28 64.4384C157.473 64.5272 157.69 64.5449 157.894 64.4884C159.053 64.0233 159.79 64.6422 160.516 65.3379C160.532 65.3537 160.548 65.3694 160.565 65.3851C161.468 66.2586 162.397 67.1566 163.728 67.1792C164.828 67.1984 165.45 67.7904 165.987 68.6323C166.713 69.797 167.813 70.3275 169.075 70.6427C169.891 70.8917 170.692 71.183 171.477 71.5153C171.557 71.5396 171.64 71.5564 171.724 71.5652C171.68 71.5 171.632 71.4371 171.581 71.3769C170.772 70.4824 169.81 69.8041 168.848 69.1258C168.276 68.7227 167.704 68.3196 167.164 67.8711C166.745 67.529 166.339 67.1681 165.931 66.8067C165.296 66.2425 164.659 65.6771 163.971 65.1803Z" fill="#E1805A"/>
<path d="M151.181 62.847C151.339 62.3725 151.617 61.9463 151.987 61.6092L149.208 60.3868C149.146 60.3599 149.107 60.2907 149.057 60.2408C149.114 60.1963 149.173 60.1552 149.235 60.1178C150.211 59.6027 151.038 58.9646 151.165 57.6576C151.231 56.8888 150.93 56.5044 150.242 56.6197C150.072 56.6505 150.157 56.5082 150.165 56.4275C150.219 55.6587 150.439 54.8668 150.165 54.1557C149.737 53.0025 148.281 52.4989 146.891 53.0525C145.937 53.4523 145.04 53.9758 144.223 54.6093C143.656 55.0062 143.424 55.7308 143.656 56.3814C143.656 56.439 143.733 56.5351 143.617 56.5659C142.571 56.835 142.073 57.8037 141.54 58.6686C141.166 59.2931 140.886 59.9693 140.71 60.6751C140.366 61.8898 141.03 62.6279 142.169 62.2627C142.47 62.1628 142.501 62.1935 142.474 62.5318C142.374 63.685 142.154 64.892 143.019 65.7377C143.609 66.3181 144.3 66.5988 145.146 66.2566C145.992 65.9145 146.327 65.2188 146.409 64.3346C146.409 64.1847 146.447 64.1501 146.586 64.2155C147.187 64.5327 147.931 64.37 148.343 63.8311C148.837 63.2199 148.594 62.6202 148.435 62.0282C148.408 61.9244 148.385 61.8168 148.362 61.713C148.459 61.7292 148.555 61.7536 148.648 61.7861L151.181 62.847Z" fill="#8CF18C"/>
<path d="M159.486 62.501C158.019 61.813 156.702 61.0864 155.239 60.7328C154.501 60.5598 153.949 61.0019 153.362 61.4478C152.887 61.8648 152.471 62.3431 152.123 62.8701C151.405 63.8195 151.664 65.5224 152.636 65.9453C152.999 66.1029 153.297 66.0721 153.536 65.5609C154.015 64.5384 155.289 63.6581 156.022 63.8618C156.453 64.0329 156.873 64.228 157.281 64.4461C157.473 64.5348 157.691 64.5525 157.895 64.4961C159.053 64.031 159.791 64.6498 160.516 65.3456C161.435 66.2336 162.374 67.1638 163.729 67.1869C164.814 67.1869 165.451 67.7981 165.987 68.6399C166.729 69.7931 167.829 70.3351 169.076 70.6503C169.891 70.8994 170.693 71.1906 171.478 71.5229C171.558 71.5473 171.641 71.564 171.725 71.5729C171.68 71.5076 171.633 71.4447 171.582 71.3845C170.292 69.9584 168.613 69.0781 167.165 67.8788C166.092 66.987 165.099 65.9876 163.972 65.188C162.593 64.1126 161.086 63.2101 159.486 62.501Z" fill="#EFAA6C"/>
<path d="M161.206 96.7269C162.336 92.5774 161.386 88.7105 159.085 88.0898C156.784 87.4691 154.003 90.3297 152.874 94.4791C151.745 98.6285 152.695 102.496 154.996 103.116C157.297 103.737 160.077 100.876 161.206 96.7269Z" fill="#B1B1C4"/>
<path d="M179.33 101.848C181.445 101.848 183.16 99.3959 183.16 96.3707C183.16 93.3454 181.445 90.8929 179.33 90.8929C177.215 90.8929 175.5 93.3454 175.5 96.3707C175.5 99.3959 177.215 101.848 179.33 101.848Z" fill="#B1B1C4"/>
<path d="M33.3961 105.131C36.4879 105.131 38.9944 104.443 38.9944 103.594C38.9944 102.744 36.4879 102.056 33.3961 102.056C30.3043 102.056 27.7979 102.744 27.7979 103.594C27.7979 104.443 30.3043 105.131 33.3961 105.131Z" fill="#00896F"/>
<path d="M52.8814 108.164C56.2953 108.164 59.0627 107.403 59.0627 106.465C59.0627 105.527 56.2953 104.766 52.8814 104.766C49.4676 104.766 46.7002 105.527 46.7002 106.465C46.7002 107.403 49.4676 108.164 52.8814 108.164Z" fill="#00896F"/>
<path d="M71.4137 109.702C74.8275 109.702 77.5949 108.941 77.5949 108.003C77.5949 107.064 74.8275 106.304 71.4137 106.304C67.9999 106.304 65.2324 107.064 65.2324 108.003C65.2324 108.941 67.9999 109.702 71.4137 109.702Z" fill="#00896F"/>
<path d="M93.2169 111.239C96.8844 111.239 99.8576 110.479 99.8576 109.54C99.8576 108.602 96.8844 107.841 93.2169 107.841C89.5493 107.841 86.5762 108.602 86.5762 109.54C86.5762 110.479 89.5493 111.239 93.2169 111.239Z" fill="#00896F"/>
<path d="M111.362 113.93C115.03 113.93 118.003 113.169 118.003 112.231C118.003 111.293 115.03 110.532 111.362 110.532C107.695 110.532 104.722 111.293 104.722 112.231C104.722 113.169 107.695 113.93 111.362 113.93Z" fill="#00896F"/>
<path d="M108.182 112.331C108.328 111.323 108.561 110.329 108.877 109.36C109.162 108.545 109.834 108.295 110.533 108.014C111.132 107.817 111.759 107.715 112.39 107.711C113.568 107.614 114.784 108.918 114.568 110.109C114.486 110.555 114.29 110.824 113.737 110.732C112.641 110.555 111.197 111.228 110.938 112.054C110.89 112.218 110.854 112.385 110.83 112.554C111.324 112.554 111.819 112.523 112.328 112.477C113.521 112.312 114.699 112.162 115.865 112.066C115.826 110.724 115.691 109.375 114.745 108.222C114.204 107.655 113.581 107.173 112.896 106.792C112.42 106.648 111.912 106.648 111.436 106.792C111.063 106.892 110.684 106.971 110.301 107.03C108.871 107.101 107.605 107.974 107.035 109.283C106.701 110.122 106.501 111.008 106.44 111.908C107.023 112.074 107.603 112.208 108.182 112.331Z" fill="#E1805A"/>
<path d="M112.904 106.796C112.428 106.651 111.92 106.651 111.444 106.796C111.653 105.658 111.86 104.519 112.066 103.378C112.067 103.299 112.056 103.22 112.035 103.144C111.966 103.17 111.899 103.201 111.834 103.236C110.857 103.851 109.877 104.251 108.746 103.544C108.093 103.159 107.954 102.609 108.441 102.006C108.564 101.86 108.398 101.852 108.332 101.81C107.684 101.391 106.919 101.103 106.498 100.411C105.807 99.2575 106.251 97.5815 107.498 96.5975C108.348 95.9419 109.287 95.4088 110.286 95.0137C111.031 94.7062 111.591 94.9599 112.039 95.5711C112.074 95.6249 112.116 95.7441 112.209 95.648C113.027 94.8138 114.081 94.9599 115.097 94.9714C115.814 95.0016 116.52 95.1537 117.185 95.4212C118.363 95.8517 118.575 96.9588 117.622 97.8045C117.371 98.0313 117.375 98.0812 117.664 98.2619C118.649 98.8846 119.749 99.4151 119.927 100.78C120.05 101.702 119.884 102.536 119.116 103.132C118.347 103.728 117.602 103.617 116.842 103.132C116.714 103.052 116.672 103.055 116.645 103.228C116.595 103.957 116.045 104.555 115.321 104.67C114.548 104.762 114.201 104.155 113.819 103.64C113.749 103.547 113.676 103.459 113.606 103.371C113.563 103.474 113.527 103.581 113.498 103.69C113.301 104.747 113.124 105.765 112.904 106.796Z" fill="#8CF18C"/>
<path d="M108.942 112.489C109.583 112.535 110.209 112.554 110.838 112.542C110.862 112.374 110.898 112.207 110.946 112.043C111.205 111.216 112.649 110.544 113.745 110.72C114.297 110.813 114.494 110.544 114.575 110.098C114.791 108.906 113.575 107.603 112.398 107.699C111.767 107.703 111.14 107.806 110.541 108.003C109.842 108.283 109.17 108.533 108.884 109.348C108.565 110.321 108.33 111.319 108.182 112.331C108.436 112.385 108.687 112.435 108.942 112.489Z" fill="#EFAA6C"/>
<path d="M90.68 109.294C90.5875 108.057 90.6095 106.814 90.7456 105.581C90.8614 104.728 91.4714 104.347 92.1008 103.936C92.6486 103.626 93.2411 103.401 93.8575 103.271C94.9964 102.944 96.4481 103.982 96.4713 105.193C96.4713 105.642 96.34 105.961 95.784 105.961C94.6721 106.004 93.3942 106.946 93.3054 107.81C93.2513 108.329 93.3671 108.868 93.3633 109.394C93.3633 109.425 93.3633 109.46 93.3633 109.49C94.0891 109.49 94.815 109.444 95.5447 109.383C96.5137 109.214 97.4751 109.021 98.448 108.818C98.4223 108.325 98.3565 107.835 98.2511 107.353C97.923 105.881 97.5793 104.359 96.2782 103.313C95.6351 102.866 94.9284 102.518 94.1818 102.279C93.6873 102.23 93.1896 102.331 92.7533 102.567C92.4049 102.738 92.0479 102.891 91.6838 103.025C90.2959 103.377 89.2289 104.482 88.931 105.877C88.7675 106.842 88.7545 107.826 88.8924 108.795C89.4831 108.975 90.0777 109.152 90.68 109.294Z" fill="#E1805A"/>
<path d="M94.1775 102.287C93.6831 102.238 93.1854 102.338 92.749 102.575C92.7258 101.419 92.7014 100.266 92.6757 99.1153C92.661 99.0376 92.635 98.9625 92.5984 98.8923C92.5355 98.9305 92.476 98.9743 92.4208 99.023C91.583 99.8149 90.7027 100.399 89.4557 99.9302C88.7376 99.6611 88.4943 99.1614 88.8573 98.5002C88.9461 98.3311 88.7839 98.358 88.7105 98.3272C87.9924 98.0428 87.1662 97.9159 86.6334 97.3201C85.7299 96.3399 85.8265 94.5947 86.8535 93.3838C87.5572 92.5747 88.3706 91.867 89.2704 91.2812C89.9383 90.8353 90.5406 90.9698 91.1004 91.4849C91.1467 91.5272 91.2124 91.6348 91.2819 91.5233C91.9189 90.5431 92.9807 90.4816 93.9845 90.2894C94.694 90.1785 95.4174 90.1889 96.1234 90.3202C97.3627 90.5085 97.7874 91.5387 97.023 92.5689C96.8222 92.8418 96.8377 92.888 97.1581 93.011C98.2507 93.4261 99.4322 93.7375 99.88 95.0291C100.185 95.9093 100.185 96.7589 99.5519 97.4969C98.9187 98.235 98.1619 98.2657 97.3241 97.9544C97.1813 97.9005 97.1427 97.9121 97.1504 98.0889C97.2389 98.8097 96.8188 99.4968 96.135 99.7495C95.3898 99.9917 94.9343 99.4651 94.4555 99.0345C94.3706 98.9577 94.2818 98.8846 94.193 98.8116C94.1744 98.9223 94.1615 99.0339 94.1544 99.146C94.1544 100.192 94.1659 101.237 94.1775 102.287Z" fill="#8CF18C"/>
<path d="M91.4134 109.463C92.062 109.498 92.7107 109.506 93.3438 109.498C93.3438 109.467 93.3438 109.433 93.3438 109.402C93.3438 108.875 93.2319 108.337 93.2859 107.818C93.3747 106.953 94.6527 106.011 95.7646 105.969C96.3206 105.946 96.4596 105.646 96.4518 105.2C96.4287 103.986 94.977 102.948 93.838 103.278C93.2217 103.409 92.6291 103.633 92.0813 103.943C91.452 104.355 90.842 104.735 90.7262 105.589C90.5901 106.822 90.5681 108.065 90.6605 109.302L91.4134 109.463Z" fill="#EFAA6C"/>
<path d="M67.5924 107.795L67.7816 107.991C67.9708 107.991 68.1677 107.991 68.353 107.991C68.353 107.91 68.353 107.83 68.38 107.749C68.5151 106.011 68.5499 104.393 68.9591 102.813C69.1638 102.044 69.7776 101.737 70.4108 101.422C70.958 101.192 71.5375 101.048 72.1289 100.995C73.2331 100.814 74.4763 101.948 74.3605 103.086C74.318 103.509 74.1559 103.774 73.6308 103.732C72.5845 103.647 71.2834 104.389 71.1019 105.189C70.9938 105.669 71.044 106.184 70.9822 106.68C70.9668 106.903 70.8802 107.114 70.7351 107.284C70.5086 107.487 70.3282 107.736 70.2062 108.014C71.5575 108.014 72.9088 107.926 74.2563 107.795C74.5149 107.745 74.7698 107.691 75.0284 107.63C75.2871 107.568 75.4956 107.518 75.7272 107.476C75.8284 106.758 75.8465 106.03 75.7813 105.308C75.6384 103.893 75.484 102.433 74.3837 101.31C73.8321 100.82 73.2101 100.414 72.5382 100.107C72.0802 100.009 71.6034 100.048 71.1676 100.218C70.8241 100.343 70.4734 100.447 70.1174 100.53C68.7791 100.705 67.6567 101.622 67.2218 102.894C66.8704 103.886 66.882 104.966 66.8357 106.011C66.8357 106.369 66.8164 106.73 66.8125 107.088C67.0943 107.326 67.353 107.557 67.5924 107.795Z" fill="#E1805A"/>
<path d="M72.538 100.134C72.08 100.036 71.6032 100.075 71.1674 100.245C71.2755 99.1614 71.3836 98.0735 71.4878 96.9895C71.4835 96.9146 71.4679 96.8407 71.4415 96.7704C71.3785 96.8004 71.3178 96.8351 71.26 96.8742C70.3875 97.5238 69.4995 97.9736 68.3837 97.397C67.7428 97.0664 67.569 96.5782 67.9976 95.9901C68.1018 95.844 67.9474 95.8478 67.8818 95.8132C67.2409 95.4673 66.4996 95.2559 66.0517 94.637C65.3143 93.6222 65.6038 91.9961 66.6965 90.9775C67.4464 90.3001 68.2871 89.7296 69.1945 89.2823C69.7716 88.9456 70.5123 89.114 70.8855 89.6667C70.9241 89.7128 70.9705 89.8204 71.0515 89.7243C71.7581 88.8787 72.758 88.9555 73.7117 88.871C74.3873 88.8456 75.0624 88.9353 75.7077 89.1362C76.8467 89.4476 77.1324 90.4585 76.3023 91.3427C76.0822 91.5733 76.09 91.6194 76.3757 91.7693C77.3525 92.2768 78.4219 92.6996 78.6922 93.9604C78.8814 94.8176 78.7849 95.6134 78.1131 96.2322C77.4413 96.8511 76.7232 96.8012 75.9741 96.4129C75.8467 96.3476 75.8081 96.3514 75.7965 96.5205C75.804 97.2076 75.3355 97.8094 74.6653 97.9736C73.9395 98.1158 73.5727 97.5892 73.1712 97.1164C73.1017 97.0356 73.0244 96.9588 72.9511 96.8819C72.9194 96.9825 72.8948 97.0853 72.8777 97.1894C72.7568 98.1658 72.6435 99.1473 72.538 100.134Z" fill="#8CF18C"/>
<path d="M70.2058 108.03C70.3278 107.751 70.5081 107.502 70.7347 107.299C70.8798 107.13 70.9664 106.918 70.9818 106.696C71.0436 106.2 70.9818 105.685 71.1015 105.204C71.2829 104.405 72.5841 103.667 73.6303 103.747C74.1554 103.79 74.3176 103.524 74.3601 103.102C74.4759 101.948 73.2327 100.83 72.1285 101.01C71.5371 101.064 70.9575 101.207 70.4104 101.437C69.7772 101.752 69.1633 102.041 68.9587 102.829C68.5494 104.408 68.5147 106.027 68.3796 107.764C68.3796 107.845 68.3796 107.926 68.3525 108.006C68.9703 108.03 69.588 108.033 70.2058 108.03Z" fill="#EFAA6C"/>
<path d="M50.3915 106.419C50.2684 105.368 50.2412 104.308 50.3104 103.251C50.3799 102.444 50.9397 102.056 51.5073 101.641C52.0091 101.323 52.5574 101.084 53.1327 100.933C54.1906 100.572 55.6075 101.483 55.6848 102.625C55.7118 103.048 55.596 103.34 55.0709 103.394C54.0284 103.486 52.8663 104.435 52.8238 105.25C52.7968 105.742 52.932 106.242 52.9551 106.738C52.9551 106.776 52.9551 106.819 52.9551 106.861C53.2292 106.919 53.4956 106.976 53.7659 107.042L54.4454 106.992L54.6307 106.953C55.5942 106.43 56.6221 106.035 57.6885 105.777C57.6406 105.376 57.5645 104.979 57.4608 104.589C57.0747 103.221 56.6886 101.806 55.4145 100.88C54.7874 100.489 54.1056 100.194 53.3914 100.003C52.9234 99.9811 52.4595 100.099 52.0594 100.342C51.7405 100.519 51.4118 100.678 51.0749 100.818C49.7861 101.217 48.834 102.306 48.6155 103.632C48.5075 104.497 48.5348 105.374 48.6966 106.231C49.2603 106.284 49.8278 106.342 50.3915 106.419Z" fill="#E1805A"/>
<path d="M53.388 99.9917C52.9201 99.9696 52.4562 100.087 52.056 100.33C51.9788 99.2421 51.9054 98.1504 51.8244 97.0626C51.8076 96.9898 51.7803 96.9199 51.7433 96.855C51.6867 96.8968 51.6326 96.9417 51.5811 96.9895C50.8321 97.7583 50.0368 98.3657 48.8322 97.9813C48.1449 97.7622 47.894 97.3086 48.2029 96.6589C48.2801 96.4975 48.1295 96.5282 48.06 96.5052C47.3689 96.2707 46.6006 96.1861 46.0562 95.6518C45.1605 94.7715 45.1721 93.1225 46.0794 91.9347C46.7052 91.1423 47.438 90.4399 48.2569 89.8474C48.772 89.4218 49.5303 89.4672 49.9904 89.9511C50.0368 89.9896 50.0985 90.0895 50.1642 89.9819C50.7163 89.0286 51.7085 88.9209 52.6429 88.698C53.3054 88.5584 53.9872 88.5337 54.6582 88.625C55.8165 88.7441 56.2798 89.6936 55.6119 90.7007C55.4343 90.966 55.4497 91.0121 55.7547 91.112C56.801 91.4503 57.9323 91.6886 58.411 92.8841C58.7392 93.7029 58.7778 94.5025 58.218 95.2251C57.6581 95.9478 56.9477 96.017 56.1408 95.7556C56.0057 95.7133 55.9671 95.7248 55.9864 95.8901C56.109 96.568 55.7457 97.2405 55.11 97.5123C54.4189 97.7737 53.9517 97.3009 53.4961 96.9165C53.415 96.8473 53.3262 96.7858 53.2413 96.7204C53.224 96.8246 53.2162 96.9301 53.2181 97.0357C53.2722 98.0197 53.3288 99.0051 53.388 99.9917Z" fill="#8CF18C"/>
<path d="M52.9515 106.849C52.9515 106.807 52.9515 106.765 52.9515 106.726C52.9284 106.231 52.7932 105.731 52.8203 105.239C52.8627 104.424 54.0248 103.474 55.0673 103.382C55.5924 103.34 55.7082 103.048 55.6812 102.613C55.6039 101.46 54.187 100.561 53.1291 100.922C52.5538 101.073 52.0055 101.311 51.5037 101.629C50.9361 102.044 50.3763 102.433 50.3068 103.24C50.2376 104.296 50.2648 105.356 50.3879 106.407C51.2527 106.528 52.1073 106.675 52.9515 106.849Z" fill="#EFAA6C"/>
<path d="M29.4385 103.497H29.7281C30.0408 103.432 30.3536 103.382 30.6702 103.344C30.9211 101.921 31.0794 100.591 31.5427 99.3229C31.7744 98.6925 32.3149 98.5041 32.8477 98.2927C33.3176 98.1476 33.8074 98.0763 34.2994 98.0813C34.7807 98.0913 35.2356 98.3023 35.5528 98.6628C35.8701 99.0233 36.0205 99.5 35.9673 99.9764C35.8978 100.322 35.7433 100.53 35.3148 100.453C34.4615 100.303 33.3303 100.807 33.118 101.452C32.9905 101.837 32.9905 102.267 32.8979 102.667C32.8678 102.85 32.7799 103.018 32.6469 103.148C32.6053 103.179 32.5654 103.212 32.5272 103.248C33.5864 103.265 34.6393 103.412 35.6623 103.686L35.7974 103.744C36.1256 103.655 36.4537 103.571 36.7858 103.497C36.8981 102.98 36.9563 102.451 36.9595 101.921C36.9595 100.745 36.9595 99.5305 36.1294 98.5195C35.7167 98.0663 35.2377 97.6775 34.7086 97.3663C34.3376 97.2523 33.9407 97.2523 33.5697 97.3663C33.2759 97.4397 32.9781 97.4961 32.6778 97.5354C31.5631 97.5773 30.5677 98.2424 30.1065 99.2537C29.7921 100.066 29.6033 100.922 29.5466 101.791C29.4733 102.36 29.4154 102.944 29.3613 103.497H29.4385Z" fill="#E1805A"/>
<path d="M34.6964 97.3663C34.3253 97.2522 33.9284 97.2522 33.5574 97.3663C33.7311 96.4822 33.9087 95.5942 34.0825 94.7101C34.0823 94.6479 34.0745 94.5859 34.0593 94.5256C34.0091 94.5486 33.9512 94.5678 33.901 94.5948C33.1288 95.0637 32.3567 95.3636 31.4918 94.7985C30.9899 94.4756 30.8895 94.0604 31.2756 93.6068C31.3722 93.4954 31.2447 93.4877 31.1946 93.4531C30.6926 93.1187 30.0981 92.8842 29.7815 92.3422C29.2564 91.4465 29.6232 90.1319 30.6038 89.3784C31.276 88.8802 32.0139 88.4767 32.7968 88.1791C33.3 87.9497 33.8956 88.1502 34.1558 88.6365C34.1867 88.675 34.2176 88.7672 34.291 88.6942C34.9396 88.0561 35.7581 88.1829 36.5496 88.2022C37.1081 88.2375 37.6565 88.3675 38.1711 88.5866C39.0862 88.9364 39.2367 89.7897 38.4839 90.4509C38.2831 90.6239 38.287 90.6623 38.5109 90.8084C39.2831 91.3043 40.1209 91.7387 40.2444 92.7958C40.3886 93.4797 40.1332 94.1862 39.5842 94.6217C39.0599 95.0235 38.3274 95.0156 37.8121 94.6024C37.7117 94.5371 37.6808 94.5371 37.6576 94.6755C37.6077 95.2415 37.1725 95.6987 36.6075 95.7787C35.9975 95.8402 35.7388 95.3674 35.4492 94.9561L35.2832 94.7485C35.2562 94.8292 35.2176 94.91 35.1983 94.9945C35.0284 95.7736 34.8611 96.5642 34.6964 97.3663Z" fill="#8CF18C"/>
<path d="M32.5153 103.232C32.5534 103.197 32.5934 103.164 32.635 103.132C32.7679 103.003 32.8558 102.835 32.8859 102.652C32.9786 102.267 32.9786 101.822 33.106 101.437C33.3183 100.791 34.4496 100.284 35.3028 100.438C35.7314 100.515 35.8858 100.307 35.9553 99.961C36.0085 99.4847 35.8581 99.008 35.5409 98.6475C35.2236 98.287 34.7687 98.0759 34.2874 98.0659C33.7954 98.0609 33.3057 98.1322 32.8357 98.2773C32.2914 98.4888 31.7624 98.6617 31.5308 99.3075C31.0675 100.576 30.9092 101.906 30.6582 103.328C31.2738 103.249 31.8947 103.216 32.5153 103.232Z" fill="#EFAA6C"/>
<defs>
<linearGradient id="paint0_linear" x1="125.706" y1="91.5981" x2="209.58" y2="91.5981" gradientUnits="userSpaceOnUse">
<stop stop-color="#01BC86"/>
<stop offset="0.37" stop-color="#01B26E"/>
<stop offset="1" stop-color="#00A347"/>
</linearGradient>
</defs>
</svg>