<svg width="750" height="475" viewBox="0 0 750 475" fill="none" xmlns="http://www.w3.org/2000/svg">
<g opacity="0.5">
<path d="M316.24 235.691H289.6V174.111V131.921H146.6V114.521" stroke="#B88DFC" stroke-width="0.95" stroke-linecap="round"/>
<path d="M271.44 279.411V174.111V152.121H131.18V114.431" stroke="#B88DFC" stroke-width="0.95" stroke-linecap="round"/>
<path d="M85.1504 208.391L85.2104 208.471H254.56V174.111H112.64V114.431" stroke="#B88DFC" stroke-width="0.95" stroke-linecap="round"/>
<path fill-rule="evenodd" clip-rule="evenodd" d="M69.19 68.6408C67.88 68.7708 66.5 68.8608 65.13 69.0508C53.25 70.6708 44.03 78.3508 42.27 88.0508C40.58 97.3508 45.83 106.531 55.69 111.351C60.0284 113.452 64.7898 114.533 69.61 114.511H219.88C224.816 114.538 229.682 113.35 234.05 111.051C239.7 108.051 243.66 103.981 245.84 98.8108C248.207 93.532 247.917 87.4412 245.06 82.4108C241.18 75.2508 234.35 70.9008 225.06 69.1308C222.2 68.6087 219.279 68.511 216.39 68.8408C215.66 68.9208 215.31 68.7808 215 68.2308C211.06 61.3808 204.92 56.2308 196.65 52.8708C189.629 49.9972 182.001 48.9247 174.46 49.7508C172.67 49.9308 172.67 49.9608 171.82 48.6908C166.01 39.9308 157.51 33.4608 146.41 29.3208C137.982 26.182 128.984 24.8664 120.01 25.4608C105.97 26.3408 94.08 30.9141 84.34 39.1808C77.04 45.4108 72.41 52.7808 70.41 61.2408C69.86 63.6608 69.6 66.1308 69.19 68.6408Z" stroke="#B88DFC" stroke-width="0.95" stroke-linecap="round"/>
<path fill-rule="evenodd" clip-rule="evenodd" d="M84.6495 236.721C100.185 236.721 112.78 224.297 112.78 208.971C112.78 193.645 100.185 181.221 84.6495 181.221C69.1138 181.221 56.5195 193.645 56.5195 208.971C56.5195 224.297 69.1138 236.721 84.6495 236.721Z" stroke="#B88DFC" stroke-width="1.56" stroke-linecap="round" stroke-dasharray="0.57"/>
<path fill-rule="evenodd" clip-rule="evenodd" d="M15.06 274.041C22.8251 274.041 29.12 267.831 29.12 260.171C29.12 252.511 22.8251 246.301 15.06 246.301C7.29488 246.301 1 252.511 1 260.171C1 267.831 7.29488 274.041 15.06 274.041Z" stroke="#B88DFC" stroke-width="1.56" stroke-linecap="round" stroke-dasharray="0.78"/>
<path fill-rule="evenodd" clip-rule="evenodd" d="M36.66 300.021C41.1887 300.021 44.86 296.399 44.86 291.931C44.86 287.463 41.1887 283.841 36.66 283.841C32.1312 283.841 28.46 287.463 28.46 291.931C28.46 296.399 32.1312 300.021 36.66 300.021Z" stroke="#B88DFC" stroke-width="1.56" stroke-linecap="round"/>
<path d="M289.6 239.321C291.804 239.321 293.59 237.557 293.59 235.381C293.59 233.205 291.804 231.441 289.6 231.441C287.397 231.441 285.61 233.205 285.61 235.381C285.61 237.557 287.397 239.321 289.6 239.321Z" fill="#A38CC2" stroke="#B88DFC" stroke-width="0.27"/>
<path d="M289.6 134.971C291.306 134.971 292.69 133.605 292.69 131.921C292.69 130.236 291.306 128.871 289.6 128.871C287.893 128.871 286.51 130.236 286.51 131.921C286.51 133.605 287.893 134.971 289.6 134.971Z" fill="#A38CC2" stroke="#B88DFC" stroke-width="0.27"/>
<path d="M85.3699 213.071C87.5735 213.071 89.3599 211.307 89.3599 209.131C89.3599 206.955 87.5735 205.191 85.3699 205.191C83.1663 205.191 81.3799 206.955 81.3799 209.131C81.3799 211.307 83.1663 213.071 85.3699 213.071Z" fill="#A38CC2" stroke="#B88DFC" stroke-width="0.27"/>
<path d="M271.44 155.171C273.146 155.171 274.53 153.805 274.53 152.121C274.53 150.436 273.146 149.071 271.44 149.071C269.733 149.071 268.35 150.436 268.35 152.121C268.35 153.805 269.733 155.171 271.44 155.171Z" fill="#A38CC2" stroke="#B88DFC" stroke-width="0.27"/>
<path d="M252.31 155.171C254.016 155.171 255.4 153.805 255.4 152.121C255.4 150.436 254.016 149.071 252.31 149.071C250.603 149.071 249.22 150.436 249.22 152.121C249.22 153.805 250.603 155.171 252.31 155.171Z" fill="#A38CC2" stroke="#B88DFC" stroke-width="0.27"/>
<path d="M131.34 155.171C133.047 155.171 134.43 153.805 134.43 152.121C134.43 150.436 133.047 149.071 131.34 149.071C129.633 149.071 128.25 150.436 128.25 152.121C128.25 153.805 129.633 155.171 131.34 155.171Z" fill="#A38CC2" stroke="#B88DFC" stroke-width="0.27"/>
<path d="M144.69 212.021C146.396 212.021 147.78 210.655 147.78 208.971C147.78 207.286 146.396 205.921 144.69 205.921C142.983 205.921 141.6 207.286 141.6 208.971C141.6 210.655 142.983 212.021 144.69 212.021Z" fill="#A38CC2" stroke="#B88DFC" stroke-width="0.27"/>
<path d="M146.6 134.971C148.306 134.971 149.69 133.605 149.69 131.921C149.69 130.236 148.306 128.871 146.6 128.871C144.893 128.871 143.51 130.236 143.51 131.921C143.51 133.605 144.893 134.971 146.6 134.971Z" fill="#A38CC2" stroke="#B88DFC" stroke-width="0.27"/>
<path d="M112.78 176.261C114.487 176.261 115.87 174.895 115.87 173.211C115.87 171.526 114.487 170.161 112.78 170.161C111.074 170.161 109.69 171.526 109.69 173.211C109.69 174.895 111.074 176.261 112.78 176.261Z" fill="#A38CC2" stroke="#B88DFC" stroke-width="0.27"/>
</g>
<g opacity="0.5">
<path d="M237.65 275.721V338.241H208.87V392.741H181.41V329.381H128.93V420.201" stroke="#B88DFC" stroke-width="0.49"/>
<path fill-rule="evenodd" clip-rule="evenodd" d="M185.881 342.982C193.392 340.504 197.471 332.407 194.993 324.896C192.515 317.386 184.418 313.306 176.908 315.784C169.397 318.262 165.317 326.36 167.795 333.87C170.274 341.381 178.371 345.46 185.881 342.982Z" stroke="#B88DFC" stroke-width="0.98"/>
<path fill-rule="evenodd" clip-rule="evenodd" d="M106.372 459.875C113.883 457.397 117.963 449.3 115.485 441.79C113.006 434.279 104.909 430.2 97.3987 432.678C89.8882 435.156 85.8086 443.253 88.2867 450.763C90.7647 458.274 98.862 462.353 106.372 459.875Z" stroke="#B88DFC" stroke-width="0.98"/>
<path d="M128.899 420.201H101.899V446.281H154.389V420.201H181.389H230.599" stroke="#B88DFC" stroke-width="0.49" stroke-linecap="round" stroke-linejoin="round"/>
<path d="M154.39 448.361C155.538 448.361 156.47 447.43 156.47 446.281C156.47 445.132 155.538 444.201 154.39 444.201C153.241 444.201 152.31 445.132 152.31 446.281C152.31 447.43 153.241 448.361 154.39 448.361Z" fill="#B4A7D1" stroke="#B88DFC"/>
<path d="M153.609 422.281C154.758 422.281 155.689 421.35 155.689 420.201C155.689 419.052 154.758 418.121 153.609 418.121C152.461 418.121 151.529 419.052 151.529 420.201C151.529 421.35 152.461 422.281 153.609 422.281Z" fill="#B4A7D1" stroke="#B88DFC"/>
<path opacity="0.3" fill-rule="evenodd" clip-rule="evenodd" d="M237.92 286.491C244.685 286.491 250.17 281.006 250.17 274.241C250.17 267.475 244.685 261.991 237.92 261.991C231.154 261.991 225.67 267.475 225.67 274.241C225.67 281.006 231.154 286.491 237.92 286.491Z" stroke="#B88DFC" stroke-width="0.98"/>
<path d="M238.13 276.321C239.279 276.321 240.21 275.39 240.21 274.241C240.21 273.092 239.279 272.161 238.13 272.161C236.981 272.161 236.05 273.092 236.05 274.241C236.05 275.39 236.981 276.321 238.13 276.321Z" fill="#8A76B5" stroke="#B88DFC"/>
<path d="M230.38 422.061C231.529 422.061 232.46 421.13 232.46 419.981C232.46 418.832 231.529 417.901 230.38 417.901C229.231 417.901 228.3 418.832 228.3 419.981C228.3 421.13 229.231 422.061 230.38 422.061Z" fill="#A38CC2" stroke="#B88DFC" stroke-width="0.27"/>
<path d="M128.14 422.961C129.664 422.961 130.9 421.725 130.9 420.201C130.9 418.677 129.664 417.441 128.14 417.441C126.616 417.441 125.38 418.677 125.38 420.201C125.38 421.725 126.616 422.961 128.14 422.961Z" fill="#A38CC2" stroke="#B88DFC" stroke-width="0.27"/>
<path d="M101.9 448.951C103.424 448.951 104.66 447.715 104.66 446.191C104.66 444.667 103.424 443.431 101.9 443.431C100.375 443.431 99.1396 444.667 99.1396 446.191C99.1396 447.715 100.375 448.951 101.9 448.951Z" fill="#A38CC2" stroke="#B88DFC" stroke-width="0.27"/>
<path d="M181.89 394.721C183.038 394.721 183.97 393.79 183.97 392.641C183.97 391.492 183.038 390.561 181.89 390.561C180.741 390.561 179.81 391.492 179.81 392.641C179.81 393.79 180.741 394.721 181.89 394.721Z" fill="#A38CC2" stroke="#B88DFC" stroke-width="0.27"/>
<path d="M209.37 394.721C210.519 394.721 211.45 393.79 211.45 392.641C211.45 391.492 210.519 390.561 209.37 390.561C208.221 390.561 207.29 391.492 207.29 392.641C207.29 393.79 208.221 394.721 209.37 394.721Z" fill="#A38CC2" stroke="#B88DFC" stroke-width="0.27"/>
</g>
<g opacity="0.5">
<path opacity="0.3" fill-rule="evenodd" clip-rule="evenodd" d="M484.52 316.681C489.86 316.681 494.19 312.351 494.19 307.011C494.19 301.67 489.86 297.341 484.52 297.341C479.179 297.341 474.85 301.67 474.85 307.011C474.85 312.351 479.179 316.681 484.52 316.681Z" stroke="#B88DFC" stroke-width="2.44"/>
<path d="M523.14 288.691V306.561H484.52V337.701" stroke="#B88DFC" stroke-width="0.61" stroke-linecap="round" stroke-linejoin="round"/>
<path d="M523.14 204.641V296.001" stroke="#B88DFC" stroke-width="0.61" stroke-linecap="round" stroke-linejoin="round"/>
<path fill-rule="evenodd" clip-rule="evenodd" d="M545.891 215.171C551.457 203.014 546.114 188.646 533.957 183.08C521.8 177.514 507.432 182.857 501.866 195.015C496.3 207.172 501.643 221.539 513.801 227.105C525.958 232.671 540.325 227.328 545.891 215.171Z" stroke="#B88DFC" stroke-width="1.22"/>
<path d="M484.519 309.591C485.944 309.591 487.099 308.436 487.099 307.011C487.099 305.586 485.944 304.431 484.519 304.431C483.095 304.431 481.939 305.586 481.939 307.011C481.939 308.436 483.095 309.591 484.519 309.591Z" fill="#B4A7D1" stroke="#B88DFC"/>
<path d="M585.47 205.101H442.34V165.911" stroke="#B88DFC" stroke-width="0.61" stroke-linecap="round" stroke-linejoin="round"/>
<path d="M522.67 207.681C524.095 207.681 525.25 206.526 525.25 205.101C525.25 203.676 524.095 202.521 522.67 202.521C521.245 202.521 520.09 203.676 520.09 205.101C520.09 206.526 521.245 207.681 522.67 207.681Z" fill="#8A76B5" stroke="#B88DFC"/>
<path opacity="0.3" fill-rule="evenodd" clip-rule="evenodd" d="M585.47 214.311C590.81 214.311 595.14 209.981 595.14 204.641C595.14 199.3 590.81 194.971 585.47 194.971C580.129 194.971 575.8 199.3 575.8 204.641C575.8 209.981 580.129 214.311 585.47 214.311Z" stroke="#B88DFC" stroke-width="2.44"/>
<path d="M585.47 204.641V166.801" stroke="#B88DFC" stroke-width="0.61" stroke-linecap="round" stroke-linejoin="round"/>
<path d="M585.47 207.681C586.895 207.681 588.05 206.526 588.05 205.101C588.05 203.676 586.895 202.521 585.47 202.521C584.045 202.521 582.89 203.676 582.89 205.101C582.89 206.526 584.045 207.681 585.47 207.681Z" fill="#8A76B5" stroke="#B88DFC"/>
<path d="M585.47 166.341C586.895 166.341 588.05 165.186 588.05 163.761C588.05 162.336 586.895 161.181 585.47 161.181C584.045 161.181 582.89 162.336 582.89 163.761C582.89 165.186 584.045 166.341 585.47 166.341Z" fill="#8A76B5" stroke="#B88DFC"/>
<path opacity="0.5" fill-rule="evenodd" clip-rule="evenodd" d="M442.34 185.441C452.121 185.441 460.05 177.512 460.05 167.731C460.05 157.95 452.121 150.021 442.34 150.021C432.559 150.021 424.63 157.95 424.63 167.731C424.63 177.512 432.559 185.441 442.34 185.441Z" stroke="#B88DFC" stroke-width="1.22"/>
<path d="M442.34 233.581V205.101" stroke="#B88DFC" stroke-width="0.61" stroke-linecap="round" stroke-linejoin="round"/>
<path d="M442.34 238.741C443.765 238.741 444.92 237.586 444.92 236.161C444.92 234.736 443.765 233.581 442.34 233.581C440.915 233.581 439.76 234.736 439.76 236.161C439.76 237.586 440.915 238.741 442.34 238.741Z" fill="#B4A7D1" stroke="#B88DFC"/>
</g>
<path d="M477.63 184.981L426.54 252.911C425.504 254.283 425.334 256.123 426.101 257.662C426.868 259.201 428.441 260.173 430.16 260.171H532.34C534.06 260.173 535.632 259.201 536.399 257.662C537.166 256.123 536.996 254.283 535.96 252.911L484.87 184.981C484.014 183.843 482.674 183.174 481.25 183.174C479.827 183.174 478.486 183.843 477.63 184.981V184.981Z" fill="#89CCA7"/>
<path d="M551.79 199.991L508.14 270.061C507.268 271.457 507.222 273.216 508.02 274.656C508.818 276.096 510.334 276.99 511.98 276.991H599.29C600.938 276.994 602.458 276.101 603.258 274.661C604.058 273.22 604.013 271.459 603.14 270.061L559.49 199.991C558.661 198.663 557.206 197.857 555.64 197.857C554.075 197.857 552.62 198.663 551.79 199.991Z" fill="#8ACDA8"/>
<path d="M402.499 133.231L481.059 255.731C482.547 258.05 482.65 260.996 481.33 263.415C480.009 265.833 477.475 267.338 474.719 267.341H317.599C314.844 267.338 312.309 265.833 310.989 263.415C309.668 260.996 309.772 258.05 311.259 255.731L389.819 133.231C391.2 131.066 393.591 129.755 396.159 129.755C398.727 129.755 401.118 131.066 402.499 133.231V133.231Z" fill="#57A479"/>
<path d="M311.41 155.591L378.41 281.691C379.653 284.025 379.581 286.841 378.218 289.108C376.856 291.376 374.405 292.762 371.76 292.761H237.76C235.115 292.762 232.663 291.376 231.301 289.108C229.939 286.841 229.866 284.025 231.11 281.691L298.11 155.591C299.416 153.131 301.974 151.593 304.76 151.593C307.545 151.593 310.103 153.131 311.41 155.591Z" fill="#61BB8A"/>
<path d="M414.88 237.701C413.751 244.838 418.607 251.545 425.74 252.701C426.636 252.837 427.545 252.874 428.45 252.811L560.64 272.541C566.122 273.102 571.075 269.248 571.879 263.796C572.682 258.343 569.051 253.225 563.64 252.181L562.06 251.941C563.32 244.101 557.989 236.724 550.15 235.461C547.586 235.081 544.967 235.428 542.59 236.461C540.069 231.093 534.861 227.49 528.949 227.025C523.036 226.559 517.329 229.303 514 234.211C512.807 230.567 509.626 227.932 505.823 227.439C502.021 226.946 498.273 228.681 496.19 231.901C495.326 227.189 491.65 223.496 486.943 222.61C482.236 221.723 477.468 223.826 474.95 227.901C471.781 222.252 466.183 218.381 459.78 217.411C450.138 216.044 440.799 221.399 437.11 230.411C435.147 228.287 432.519 226.894 429.66 226.461C422.474 225.483 415.857 230.516 414.88 237.701Z" fill="#489E78"/>
<path d="M355.88 474.931C354.88 474.701 353.82 474.521 352.81 474.231C348.01 472.801 343.27 471.141 338.41 469.951C332.63 468.551 326.77 467.481 320.92 466.391C308.036 464.128 295.399 460.639 283.18 455.971C275.64 452.971 268.07 450.071 260.33 447.701C253.67 445.701 246.75 444.461 239.95 442.871C234.903 441.791 230.057 439.925 225.59 437.341C222.954 435.784 219.969 434.917 216.91 434.821C210.86 434.541 204.81 434.311 198.76 433.971C191.76 433.571 184.76 432.641 178.65 428.861C176.303 427.382 174.139 425.634 172.2 423.651C161.027 412.286 150.925 399.917 142.02 386.701C138.39 381.321 134.31 376.241 130.5 370.971C128.58 368.331 127.02 365.411 124.93 362.921C122.06 359.42 118.24 356.822 113.93 355.441C105.537 352.666 98.0131 347.751 92.0996 341.181C88.9196 337.771 85.6696 334.431 82.4596 331.051C81.9496 329.491 72.5596 313.111 72.0596 311.541C73.0761 312.393 74.038 313.308 74.9396 314.281C80.3996 319.281 91.8196 327.141 97.3196 332.071C98.3196 332.981 99.0196 332.751 99.3196 331.401C99.4395 330.696 99.4395 329.976 99.3196 329.271C99.1396 328.121 98.8796 326.981 98.5996 325.851C98.3696 324.961 101.28 324.091 102.13 323.561C102.966 323.029 104.062 323.167 104.74 323.891C106.09 325.131 107.44 326.371 108.68 327.721C110.543 329.85 112.842 331.555 115.42 332.721C115.684 332.904 116.02 332.949 116.323 332.842C116.626 332.735 116.859 332.489 116.95 332.181C117.79 330.621 123.95 336.501 125.19 337.841C126.85 339.601 128.45 341.411 130.05 343.221C132.33 345.811 134.64 348.361 136.81 351.041C139.32 354.141 141.62 357.411 144.13 360.501C147.61 364.781 151.32 368.871 154.7 373.211C158.45 378.011 160.11 382.271 163.83 387.101C166.98 391.171 164.71 388.101 168.14 391.951C170.7 394.801 165.84 394.211 168.68 396.801C170.06 398.051 169.53 396.731 170.03 394.911C159.38 377.051 170.03 395.401 170.03 394.911C170.1 389.441 168.72 395.311 167.33 390.061C166.39 386.471 168.71 388.231 167.6 384.681C167.27 383.611 169.6 367.201 170.6 366.841C170.927 366.782 171.263 366.869 171.52 367.081C171.858 367.439 172.163 367.827 172.43 368.241C176.6 373.731 180.65 379.341 185.85 383.941C186.85 384.801 187.85 385.641 188.85 386.401C189.73 387.041 190.63 386.941 191.08 385.881C191.944 384.119 192.615 382.268 193.08 380.361C193.82 376.191 200.16 369.001 200.7 364.801C203.43 365.261 206.14 365.801 208.88 366.181C212.54 366.731 216.21 367.181 219.88 367.711C220.41 367.791 220.93 367.921 221.46 368.021C223.834 369.665 226.673 370.507 229.56 370.421C232.34 370.231 232.56 370.491 233.18 373.181C233.24 373.441 233.29 373.711 233.33 373.981C234.036 378.553 235.334 383.013 237.19 387.251C238.65 390.571 240.14 393.891 241.75 397.151C244.22 402.151 246.37 407.381 249.75 411.911C251.989 415.077 255.049 417.573 258.6 419.131C259.216 419.484 259.96 419.533 260.617 419.263C261.274 418.993 261.77 418.435 261.96 417.751C262.347 416.705 262.57 415.605 262.62 414.491C262.72 412.291 262.62 410.091 262.67 407.891C262.675 407.391 262.889 406.916 263.26 406.581C264.7 405.711 266.26 405.051 267.7 404.181C270.47 402.511 272.06 409.291 272.07 405.951C272.53 405.764 273.005 405.617 273.49 405.511C276.05 408.961 278.6 412.431 281.2 415.851C282.65 417.741 286.07 418.961 288.2 417.381C288.879 417.051 289.649 416.952 290.39 417.101C291.497 417.251 292.591 417.492 293.66 417.821C300.86 419.911 310.66 425.671 316.66 430.301C317.177 430.766 317.768 431.141 318.41 431.411C320.5 432.161 322.64 432.811 324.76 433.491C324.76 433.581 324.93 429.671 324.66 433.491C323.58 433.601 322.59 434.031 321.26 434.171C321.618 434.482 321.999 434.766 322.4 435.021C325.69 436.671 329 438.261 332.27 439.951C334.05 440.861 335.75 441.951 337.51 442.951C338.392 443.562 339.35 444.056 340.36 444.421C346.01 445.851 351.64 447.421 357.36 448.421C360.67 449.011 363.36 448.101 364.73 444.711C365.274 443.525 365.888 442.373 366.57 441.261C367.48 439.591 367.77 439.361 369.57 439.961C373.52 441.281 376.96 440.121 380.03 437.761C383.1 435.401 385.74 432.871 388.63 430.461C392.31 427.391 396.21 424.561 399.68 421.271C403.15 417.981 406.41 414.101 409.71 410.411C412.711 406.821 416.517 403.991 420.82 402.151C422.59 401.441 423.23 401.501 424.01 403.281C425.53 406.771 426.16 410.381 424.95 414.131C424.681 414.895 424.48 415.681 424.35 416.481C424.03 418.651 424.81 419.821 426.96 420.281C429.6 420.851 431.91 419.941 434.03 418.451C438.54 415.281 443.03 412.131 447.51 408.871C450.57 406.631 453.66 404.371 456.51 401.871C459.62 399.091 462.45 396.011 465.4 393.051C467.061 391.342 469.094 390.039 471.34 389.241C473.019 388.616 474.653 387.874 476.23 387.021C478.16 386.021 480.45 386.401 482.37 385.291C482.81 385.041 483.6 385.291 484.21 385.421C485.01 385.551 485.79 385.781 486.58 385.921C488.52 386.261 487.35 389.181 488.69 387.341C489.04 386.851 490 386.291 490.45 386.451C492.469 386.993 494.397 387.832 496.17 388.941C498.582 390.875 500.876 392.952 503.04 395.161C504.746 396.839 506.91 397.976 509.26 398.431C513.898 399.228 518.671 398.476 522.84 396.291C527.51 393.981 532.15 391.631 536.67 389.061C538.992 387.795 541.117 386.199 542.98 384.321C547.711 379.14 551.474 373.152 554.09 366.641C555.02 364.491 555.9 362.581 558.32 361.861C558.602 361.725 558.862 361.547 559.09 361.331C562.661 358.46 565.803 355.092 568.42 351.331L575.42 350.331L584.57 349.011C585.115 349.876 585.558 350.803 585.89 351.771C586.373 353.865 586.736 355.985 586.98 358.121C587.214 361.227 588.382 364.19 590.33 366.621C591.62 368.131 592.67 368.281 594.13 366.931C598.13 363.261 602.06 359.551 605.87 355.701C608.857 352.75 611.098 349.13 612.41 345.141C613.7 341.201 618.85 337.891 622.12 335.301C622.326 335.044 622.479 334.748 622.57 334.431C625 332.791 627.4 331.111 629.87 329.531C631.55 328.461 633.32 327.531 635.06 326.531C635.44 326.321 635.86 326.171 636.27 325.991C637.404 326.348 638.484 326.86 639.48 327.511C641.85 329.611 642.36 332.351 641.6 335.371C640.802 338.172 641.289 341.184 642.93 343.591C643.195 344.238 643.779 344.7 644.47 344.808C645.161 344.916 645.859 344.656 646.31 344.121C647.323 343.178 648.421 342.331 649.59 341.591C652.83 339.831 654.44 340.591 655.3 344.151C655.76 346.061 656.58 346.921 658.49 346.651C660.8 346.387 663.066 345.823 665.23 344.971C671.162 342.278 676.691 338.775 681.66 334.561C685.35 331.561 688.9 328.431 692.5 325.341C695.32 322.921 698.19 320.551 700.9 318.011C704.9 314.291 708.62 310.381 712.58 306.681C715.82 303.681 719.12 300.681 722.58 297.931C726.73 294.661 731.13 291.701 735.36 288.531C737.91 286.621 740.36 284.531 742.84 282.611C743.72 281.921 741.7 293.071 742.94 293.661C742.174 294.707 741.349 295.708 740.47 296.661C732.74 304.161 726.7 312.941 721.07 322.051C712.82 335.411 701.64 345.921 689.07 355.051C683.106 359.278 676.694 362.833 669.95 365.651C660.95 369.561 652.03 373.871 642.84 377.401C628.996 382.702 614.624 386.5 599.97 388.731C594.44 389.581 588.97 390.671 583.46 391.731C576.71 393.031 570.75 396.231 564.9 399.661C553.61 406.271 542.37 412.991 531.01 419.501C525.448 422.777 519.48 425.308 513.26 427.031C509.26 428.091 505.26 427.581 501.26 427.121C495.39 426.441 489.52 425.651 483.63 425.211C481.35 425.041 479.02 425.681 476.71 425.991C476.405 426.057 476.133 426.227 475.94 426.471C473.53 429.621 470.17 431.531 466.83 433.471C460.19 437.301 453 439.801 445.83 442.301C434.51 446.293 423.443 450.968 412.69 456.301C411.683 456.793 410.708 457.348 409.77 457.961C404.592 461.156 399.136 463.877 393.47 466.091C383.33 470.371 372.62 472.151 362.01 474.491C361.33 474.641 360.64 474.751 359.96 474.881L355.88 474.931Z" fill="#988976"/>
<path d="M577.29 355.111C574.56 358.791 562.75 370.381 559.07 373.171C558.843 373.387 558.583 373.565 558.3 373.701C555.88 374.421 555 376.341 554.07 378.491C551.452 384.997 547.69 390.982 542.96 396.161C541.098 398.039 538.972 399.635 536.65 400.901C532.13 403.471 527.49 405.831 522.82 408.131C518.651 410.316 513.879 411.068 509.24 410.271C506.89 409.816 504.727 408.679 503.02 407.001C500.856 404.795 498.562 402.722 496.15 400.791C494.38 399.675 492.452 398.832 490.43 398.291C489.98 398.131 489.02 398.691 488.67 399.181C487.33 401.021 485.54 401.061 483.6 400.721C482.8 400.581 482.02 400.351 481.23 400.221C480.61 400.121 479.83 399.841 479.39 400.101C477.47 401.201 475.18 400.831 473.25 401.821C471.671 402.671 470.038 403.416 468.36 404.051C466.115 404.851 464.081 406.15 462.41 407.851C459.47 410.851 456.64 413.901 453.53 416.671C450.69 419.201 447.61 421.451 444.53 423.671C440.08 426.921 435.53 430.081 431.04 433.251C428.93 434.731 426.62 435.651 423.98 435.071C421.83 434.611 421.05 433.451 421.36 431.271C421.496 430.476 421.697 429.693 421.96 428.931C423.17 425.171 422.54 421.571 421.02 418.071C420.25 416.291 419.61 416.241 417.84 416.951C413.537 418.784 409.729 421.611 406.73 425.201C403.46 428.891 400.23 432.641 396.66 436.021C393.09 439.401 389.28 442.131 385.66 445.201C382.77 447.621 380.04 450.201 377.06 452.511C374.08 454.821 370.55 456.031 366.6 454.701C364.82 454.111 364.53 454.331 363.6 456.011C362.924 457.121 362.313 458.269 361.77 459.451C360.42 462.851 357.7 463.751 354.4 463.161C348.67 462.161 343.04 460.571 337.4 459.161C336.391 458.793 335.43 458.303 334.54 457.701C332.79 456.701 331.09 455.641 329.31 454.701C326.04 453.021 322.72 451.421 319.44 449.781C319.04 449.526 318.659 449.242 318.3 448.931L321.78 448.561V448.301C319.66 447.611 317.53 446.971 315.43 446.221C314.821 445.937 314.258 445.563 313.76 445.111C307.76 440.481 300.89 437.691 293.69 435.601C292.623 435.267 291.529 435.027 290.42 434.881C289.679 434.727 288.908 434.826 288.23 435.161C286.12 436.741 282.7 435.521 281.23 433.621C278.63 430.211 276.08 426.741 273.52 423.291C273.46 423.221 273.42 423.141 273.36 423.071C271.36 420.421 270.5 420.291 267.73 421.961C266.29 422.821 264.73 423.491 263.29 424.361C262.919 424.696 262.705 425.171 262.7 425.671C262.64 427.871 262.75 430.071 262.65 432.261C262.602 433.379 262.379 434.482 261.99 435.531C261.8 436.215 261.305 436.773 260.648 437.043C259.991 437.313 259.246 437.264 258.63 436.911C255.079 435.353 252.02 432.857 249.78 429.691C246.39 425.161 244.24 419.951 241.78 414.921C240.17 411.671 238.68 408.351 237.22 405.031C235.382 400.794 234.101 396.337 233.41 391.771C233.41 391.511 233.32 391.241 233.26 390.981C232.65 388.281 226.91 391.981 220.26 384.441C217.26 384.651 224.06 379.261 221.58 377.741C224.46 378.011 227.35 378.271 230.23 378.561C233.39 378.881 236.54 379.211 239.68 379.561C248.22 380.561 256.78 381.781 264.36 386.131C269.501 389.2 274.46 392.566 279.21 396.211C285.49 400.871 291.37 406.091 297.81 410.511C302.02 413.279 306.512 415.592 311.21 417.411C314.14 418.601 317.47 418.831 320.62 419.461C323.11 419.971 325.62 420.461 328.11 420.921C328.81 421.041 329.53 421.061 330.24 421.121L338.64 421.371C340.15 421.471 341.64 421.651 343.18 421.671C346.67 421.671 350.18 421.671 353.65 421.671H361.89C365.22 421.301 368.57 421.041 371.89 420.531C377.24 419.711 382.55 418.641 387.89 417.821C392.22 417.141 395.59 414.821 398.89 412.191C402.6 409.281 406.45 406.531 410.39 403.931C414.651 401.246 419.515 399.668 424.54 399.341C428.54 398.961 432.54 398.511 436.54 397.941C442.12 397.127 447.69 396.227 453.25 395.241C454.834 394.983 456.354 394.427 457.73 393.601C460.83 391.762 464.315 390.67 467.91 390.411C472.444 389.88 476.901 388.823 481.19 387.261C488.87 384.511 496.63 382.201 504.87 381.681C511.49 381.261 517.94 379.591 524.37 377.941C530.22 376.441 536.04 374.851 541.92 373.441C545.891 372.463 549.355 370.042 551.64 366.651C555.09 361.921 559.3 358.031 564.9 355.931C566.01 355.501 576.12 355.411 577.29 355.111Z" fill="#AC967C"/>
<path d="M203.7 373.711C203.15 377.911 199.77 391.021 199.04 395.191C198.575 397.098 197.905 398.949 197.04 400.711C196.905 401.161 196.54 401.505 196.083 401.614C195.625 401.724 195.144 401.581 194.82 401.241C193.77 400.481 192.82 399.631 191.82 398.781C186.61 394.171 182.57 388.571 178.4 383.081C178.135 382.663 177.827 382.274 177.48 381.921C177.224 381.708 176.887 381.62 176.56 381.681C175.449 382.23 174.868 383.476 175.16 384.681C176.27 388.231 177.57 391.681 178.51 395.321C180.007 400.544 180.784 405.947 180.82 411.381C180.846 411.874 180.805 412.368 180.7 412.851C180.21 414.661 179.16 415.111 177.78 413.851C174.888 411.327 172.128 408.657 169.51 405.851C166.08 402.011 162.81 398.021 159.67 393.941C155.95 389.121 152.54 384.051 148.8 379.241C145.41 374.901 141.7 370.811 138.23 366.541C135.71 363.451 133.42 360.181 130.91 357.081C128.74 354.401 126.42 351.851 124.14 349.261C122.55 347.441 120.94 345.631 119.28 343.871C118.02 342.541 117.81 342.581 116.97 344.141C116.88 344.449 116.646 344.695 116.343 344.802C116.04 344.909 115.704 344.864 115.44 344.681C112.862 343.515 110.564 341.81 108.7 339.681C107.46 338.341 106.11 337.091 104.76 335.851C104.081 335.131 102.987 334.993 102.15 335.521C101.3 336.051 101.36 336.921 101.58 337.811C101.86 338.941 102.12 340.091 102.3 341.241C102.426 341.942 102.426 342.66 102.3 343.361C102.03 344.711 101.3 344.941 100.3 344.031C94.8002 339.111 89.3168 334.167 83.8502 329.201C82.96 328.212 82.0081 327.28 81.0002 326.411C81.5002 327.971 82.0002 329.541 82.5102 331.101C80.8702 328.981 79.1002 326.961 77.6402 324.731C74.9302 320.571 72.4002 316.291 69.8002 312.061C69.6902 311.881 67.4902 302.761 67.4102 302.561C72.6602 304.731 80.0002 307.061 85.3202 309.041C91.7702 311.441 98.3202 313.551 104.84 315.781C113.317 318.59 120.84 323.713 126.56 330.571C128.36 332.731 130.51 334.571 132.5 336.621C138.436 342.838 144.805 348.626 151.56 353.941C154.287 355.881 157.194 357.555 160.24 358.941C164.49 361.031 168.84 362.941 173.24 364.761C181.134 368.154 189.291 370.9 197.63 372.971C198.65 373.211 202.65 373.461 203.7 373.711Z" fill="#AC967C"/>
<path d="M742.96 293.661C741.72 293.071 740.78 293.781 739.9 294.461C737.39 296.411 734.96 298.461 732.42 300.381C728.18 303.551 723.79 306.511 719.64 309.781C716.17 312.521 712.87 315.501 709.64 318.531C705.64 322.231 701.91 326.141 697.96 329.861C695.25 332.401 692.38 334.771 689.56 337.191C685.96 340.281 682.41 343.441 678.71 346.411C673.744 350.627 668.214 354.13 662.28 356.821C660.119 357.67 657.857 358.238 655.55 358.511C653.64 358.771 652.82 357.911 652.35 356.001C651.49 352.461 649.89 351.681 646.64 353.441C645.474 354.184 644.376 355.031 643.36 355.971C642.909 356.501 642.215 356.758 641.527 356.65C640.839 356.542 640.257 356.084 639.99 355.441C638.345 353.036 637.854 350.024 638.65 347.221C639.42 344.221 638.91 341.461 636.53 339.361C635.68 338.611 634.41 326.491 633.32 325.991C636.91 324.241 640.47 322.411 644.1 320.751C648.81 318.621 653.53 316.511 658.34 314.611C662.53 312.961 666.88 311.711 671.09 310.091C673.734 309.013 676.32 307.802 678.84 306.461C686.694 302.628 694.807 299.353 703.12 296.661C713.12 293.261 723 289.731 732.42 284.921C735.29 283.461 738.42 285.411 741.36 284.171C742.43 283.731 743.49 289.171 744.55 288.691C744.02 289.411 743.49 292.991 742.96 293.661Z" fill="#AC967C"/>
<path d="M619.62 337.411C619.47 337.701 619.4 346.981 619.17 347.161C615.982 349.688 613.63 353.117 612.42 357.001C611.098 360.981 608.85 364.59 605.86 367.531C602.05 371.381 598.1 375.091 594.12 378.761C592.66 380.121 591.61 379.961 590.32 378.451C588.372 376.02 587.204 373.057 586.97 369.951C586.726 367.815 586.363 365.695 585.88 363.601C585.66 362.601 585.02 352.871 584.56 351.951C587.77 351.651 590.97 351.181 594.18 351.101C596.184 350.963 598.126 350.353 599.85 349.321C606.69 345.751 613.15 341.561 619.62 337.411Z" fill="#AC967C"/>
<path d="M105.92 387.031C105.898 392.457 101.483 396.839 96.0564 396.821C90.6301 396.802 86.2451 392.391 86.2598 386.964C86.2745 381.538 90.6834 377.15 96.1097 377.161C98.7211 377.163 101.224 378.206 103.065 380.058C104.906 381.91 105.933 384.419 105.92 387.031V387.031Z" fill="#AC967C"/>
<path d="M129.72 391.971C131.748 391.946 133.589 393.149 134.382 395.015C135.175 396.882 134.762 399.042 133.337 400.485C131.912 401.927 129.757 402.366 127.881 401.596C126.005 400.825 124.78 398.999 124.78 396.971C124.78 394.233 126.982 392.004 129.72 391.971Z" fill="#AC967C"/>
<path d="M382.82 250.021H393.59C393.911 250.147 394.247 250.231 394.59 250.271C398.69 250.271 402.79 250.271 406.89 250.271C407.233 250.231 407.569 250.147 407.89 250.021H413.01C413.457 250.141 413.911 250.231 414.37 250.291C425.79 251.041 437.21 251.631 448.61 252.551C460.61 253.551 472.61 254.791 484.61 255.961C487.24 256.221 489.87 256.501 492.46 256.961C495.27 257.481 498 258.621 500.81 258.831C508.64 259.411 516.49 259.631 524.33 260.021C529.62 260.281 534.93 260.341 540.18 260.911C556.61 262.701 573.06 263.911 589.58 264.381C598.58 264.641 607.58 265.381 616.58 266.081C626.5 266.891 636.41 267.981 646.33 268.881C655.17 269.691 664.03 270.341 672.88 271.191C684.76 272.331 696.63 273.544 708.49 274.831C719.55 276.031 730.6 277.331 741.66 278.611C744.11 278.891 746.58 279.181 748.66 280.611C749.12 280.858 749.488 281.248 749.71 281.721C750.295 283.601 749.868 285.651 748.58 287.141C747.28 288.691 745.86 290.141 744.49 291.611C743.43 292.081 742.37 292.611 741.3 293.021C738.3 294.261 735.23 295.271 732.36 296.731C722.94 301.541 713.03 305.071 703.06 308.471C694.746 311.167 686.633 314.445 678.78 318.281C676.23 319.561 673.69 320.881 671.03 321.901C666.82 323.521 662.47 324.771 658.28 326.431C653.47 328.321 648.75 330.431 644.04 332.571C640.41 334.221 636.85 336.051 633.26 337.811C632.849 337.966 632.448 338.146 632.06 338.351C630.32 339.351 628.55 340.271 626.87 341.351C624.4 342.921 622 344.611 619.57 346.241C613.1 350.411 606.64 354.601 599.8 358.161C598.077 359.193 596.134 359.803 594.13 359.941C590.92 360.021 587.72 360.491 584.51 360.791L575.41 362.151L568.41 363.151C567.226 363.343 566.057 363.613 564.91 363.961C559.31 366.061 555.1 369.961 551.65 374.681C549.368 378.075 545.902 380.496 541.93 381.471C536.05 382.881 530.23 384.471 524.38 385.981C517.95 387.621 511.5 389.291 504.88 389.711C496.64 390.231 488.88 392.541 481.2 395.291C476.912 396.858 472.455 397.915 467.92 398.441C464.342 398.694 460.871 399.772 457.78 401.591C456.402 402.415 454.883 402.975 453.3 403.241C447.747 404.234 442.177 405.131 436.59 405.931C432.59 406.501 428.59 406.931 424.59 407.331C419.551 407.665 414.675 409.257 410.41 411.961C406.47 414.561 402.62 417.311 398.91 420.221C395.57 422.841 392.2 425.221 387.91 425.851C382.56 426.681 377.25 427.741 371.91 428.561C368.59 429.071 365.24 429.331 361.91 429.701H353.67C350.18 429.701 346.67 429.701 343.2 429.701C341.68 429.701 340.2 429.501 338.66 429.401C338.191 429.278 337.713 429.194 337.23 429.151C334.91 429.151 332.58 429.151 330.23 429.151C329.52 429.081 328.8 429.071 328.1 428.941C325.6 428.481 323.1 427.941 320.61 427.491C317.46 426.851 314.13 426.621 311.2 425.431C306.473 423.64 301.951 421.35 297.71 418.601C291.27 414.181 285.39 408.961 279.11 404.301C274.359 400.656 269.401 397.29 264.26 394.221C256.68 389.871 248.12 388.671 239.58 387.651C236.44 387.281 233.29 386.961 230.13 386.651C227.25 386.361 224.36 386.101 221.48 385.831C220.95 385.721 220.43 385.601 219.9 385.521C216.23 385.011 212.56 384.521 208.9 383.991C206.16 383.581 203.45 383.071 200.72 382.611C199.72 382.361 198.64 382.101 197.59 381.861C189.251 379.79 181.094 377.044 173.2 373.651C168.83 371.821 164.48 369.921 160.2 367.831C157.153 366.445 154.247 364.771 151.52 362.831C144.775 357.482 138.419 351.66 132.5 345.411C130.5 343.411 128.36 341.531 126.56 339.411C120.84 332.553 113.317 327.43 104.84 324.621C98.3298 322.391 91.7698 320.281 85.3198 317.881C79.9998 315.881 74.8098 313.571 69.5698 311.401C68.4398 310.681 67.0398 310.191 66.2498 309.211C64.2954 306.705 62.4697 304.102 60.7798 301.411C60.2708 300.389 59.8719 299.317 59.5898 298.211V295.811C61.0798 292.641 63.9298 291.661 67.0698 291.161L77.1598 289.561C100.193 285.921 123.113 281.691 145.92 276.871C157.79 274.361 169.79 272.391 181.79 270.511C190.2 269.191 198.69 268.391 207.16 267.451C217.16 266.341 227.16 265.331 237.16 264.281C245.95 263.361 254.74 262.471 263.52 261.481C273.01 260.411 282.52 259.231 291.98 258.121C303.21 256.801 314.42 255.431 325.66 254.241C334.85 253.241 344.05 252.331 353.26 251.691C362.84 251.031 372.44 250.741 382.03 250.281C382.302 250.225 382.568 250.138 382.82 250.021V250.021Z" fill="#2EBF8B"/>
<path d="M173.78 264.331C173.727 268.911 175.496 273.325 178.697 276.601C181.898 279.878 186.27 281.748 190.85 281.801C192.048 281.799 193.241 281.669 194.41 281.411H370.41C377.753 281.211 383.602 275.201 383.602 267.856C383.602 260.51 377.753 254.5 370.41 254.301H368.31C368.369 249.278 366.43 244.437 362.919 240.843C359.408 237.25 354.614 235.199 349.59 235.141C346.175 235.143 342.828 236.103 339.93 237.911C335.605 231.406 328.121 227.724 320.329 228.266C312.536 228.808 305.634 233.49 302.25 240.531C299.999 236.004 295.34 233.18 290.285 233.279C285.23 233.377 280.684 236.38 278.61 240.991C276.55 235.032 271.035 230.955 264.734 230.734C258.432 230.512 252.644 234.191 250.17 239.991C244.963 233.178 236.885 229.172 228.31 229.151C215.462 229.25 204.33 238.081 201.31 250.571C198.343 248.183 194.649 246.881 190.84 246.881C181.314 246.996 173.68 254.804 173.78 264.331Z" fill="#8989BE"/>
<path d="M207.67 146.861L218.34 160.861L200.49 151.411C200.49 151.411 202.58 146.971 199.22 145.271C199.22 145.291 204.23 143.161 207.67 146.861Z" fill="#5F4FA0"/>
<path d="M201.41 160.541C201.41 160.541 208.98 164.281 213.51 158.291L199.89 151.041L197.23 154.921C197.778 157.295 199.294 159.333 201.41 160.541V160.541Z" fill="#D7D2E1"/>
<path d="M207.79 167.301C207.669 167.301 207.57 167.202 207.57 167.081V161.601C207.57 161.479 207.669 161.381 207.79 161.381C207.912 161.381 208.01 161.479 208.01 161.601V167.081C208.01 167.202 207.912 167.301 207.79 167.301V167.301Z" fill="#271C47"/>
<path d="M204.22 165.931C204.098 165.931 204 165.832 204 165.711V161.411C204 161.289 204.098 161.191 204.22 161.191C204.341 161.191 204.44 161.289 204.44 161.411V165.681C204.448 165.744 204.429 165.808 204.387 165.856C204.345 165.904 204.284 165.931 204.22 165.931V165.931Z" fill="#271C47"/>
<path d="M197 147.471L197.22 154.921C198.757 154.238 199.979 152.998 200.64 151.451C201.64 148.971 201.93 146.521 199.22 145.291L197 147.471Z" fill="#958ABA"/>
<path d="M198.13 148.861L197 147.461L194.91 147.161L198.13 148.861V148.861Z" fill="#271C47"/>
<path d="M201.23 148.301C201.617 148.301 201.93 147.987 201.93 147.601C201.93 147.214 201.617 146.901 201.23 146.901C200.844 146.901 200.53 147.214 200.53 147.601C200.53 147.987 200.844 148.301 201.23 148.301Z" fill="#271C47"/>
<path d="M268.41 290.061L272.28 24.7108L279.47 24.6508L287.21 289.931C287.283 292.451 286.338 294.895 284.588 296.71C282.838 298.526 280.431 299.56 277.91 299.581V299.581C275.378 299.611 272.941 298.617 271.152 296.824C269.364 295.032 268.375 292.593 268.41 290.061Z" fill="#7E6D73"/>
<path d="M232.061 176.911L277.211 222.071C277.211 222.071 284.551 218.071 277.121 211.281L242.051 176.821L232.061 176.911Z" fill="#7E6D73"/>
<path d="M279.841 147.721L318.221 114.211L327.411 114.131L279.931 158.131C279.931 158.131 274.461 152.411 279.841 147.721Z" fill="#7E6D73"/>
<path d="M257.49 24.8408L273.71 51.0708C273.71 51.0708 277.23 43.0708 273.59 37.8808L261.89 24.8008L257.49 24.8408Z" fill="#7E6D73"/>
<path d="M313.291 79.4608C310.691 73.6408 305.161 69.4608 299.141 67.3608C293.121 65.2608 286.621 64.9308 280.241 65.1008C276.941 65.1908 273.511 65.4408 270.681 67.1008C263.391 71.4708 263.441 83.1008 256.241 87.6008C254.491 88.5626 252.639 89.3273 250.721 89.8808C245.218 91.8226 240.105 94.7279 235.621 98.4608C233.668 100.059 232.268 102.232 231.621 104.671C229.621 112.511 237.411 117.211 244.301 118.671C258.701 121.801 273.551 117.991 288.151 115.991C307.976 113.273 328.116 113.909 347.731 117.871C352.211 118.781 356.731 119.871 361.311 119.561C365.891 119.251 370.601 117.301 372.991 113.401C375.381 109.501 374.501 103.541 370.451 101.401C366.671 99.4008 361.211 100.931 358.451 97.6408C356.761 95.5708 357.041 92.6408 356.451 89.9808C355.611 86.0508 352.731 82.7908 349.311 80.7008C345.797 78.7378 341.976 77.3853 338.011 76.7008C333.281 75.7008 327.451 74.0708 322.681 74.8408" fill="#238862"/>
<path d="M274.54 162.601C274.81 157.601 272.24 152.601 268.46 149.311C264.554 146.079 259.855 143.949 254.85 143.141C246.85 141.601 237.99 142.551 231.65 147.631C226.03 152.141 222.75 159.541 216.19 162.541C212.11 164.411 207.42 164.231 203 165.021C197.83 165.941 192.2 169.021 192.53 174.921C192.638 176.447 193.156 177.915 194.03 179.171C196.65 182.971 201.03 184.441 205.4 184.941C222.62 186.881 239.18 174.811 256.4 176.941C268.06 178.391 279.68 186.281 290.68 180.881C292.315 180.129 293.549 178.713 294.07 176.991C294.92 173.901 292.87 172.131 290.87 170.751" fill="#238862"/>
<path d="M259.971 9.69081C263.033 2.91248 270.257 -0.972536 277.601 0.210811C286.471 1.85081 292.471 10.5208 301.071 13.2608C303.641 14.0808 306.391 14.3408 308.901 15.3408C311.411 16.3408 313.801 18.3408 314.111 21.0408C314.401 23.4808 312.911 25.8108 311.111 27.4508C304.791 33.1408 295.111 32.6608 286.831 30.6608C278.551 28.6608 270.211 25.4308 261.831 26.7908C254.701 27.9508 248.341 32.3308 240.831 31.8608C238.066 31.755 235.433 30.6582 233.411 28.7708C228.091 23.5708 231.531 16.4108 236.701 13.3208C240.701 10.9408 245.461 10.3908 250.071 9.83081C254.681 9.27081 259.471 8.56081 263.291 5.93081" fill="#238862"/>
<path d="M288.35 281.831C288.35 281.831 240.69 252.031 219.1 256.991C197.51 261.951 226.5 279.921 226.5 279.921L253.73 295.201L288.35 281.831Z" fill="#146C47"/>
<path d="M268.519 289.791H268.409C259.789 286.321 213.019 260.011 212.549 259.791C212.479 259.753 212.426 259.688 212.404 259.611C212.381 259.534 212.39 259.451 212.429 259.381C212.513 259.232 212.7 259.179 212.849 259.261C213.319 259.531 260.049 285.811 268.639 289.261C268.792 289.329 268.866 289.504 268.809 289.661C268.741 289.751 268.632 289.8 268.519 289.791Z" fill="#AC88BE"/>
<path d="M244.18 277.191C244.075 277.191 243.977 277.138 243.92 277.051L231.99 257.351C231.924 257.212 231.974 257.046 232.105 256.966C232.237 256.886 232.407 256.918 232.5 257.041L244.41 276.741C244.495 276.882 244.45 277.065 244.31 277.151C244.27 277.174 244.226 277.188 244.18 277.191V277.191Z" fill="#AC88BE"/>
<path d="M215.569 271.541C215.409 271.542 215.275 271.42 215.259 271.261C215.254 271.18 215.282 271.1 215.336 271.039C215.391 270.979 215.468 270.943 215.549 270.941L231.989 269.941C232.137 269.968 232.244 270.096 232.244 270.246C232.244 270.396 232.137 270.524 231.989 270.551L215.539 271.551L215.569 271.541Z" fill="#AC88BE"/>
<path d="M229.609 281.961C229.453 281.962 229.32 281.846 229.299 281.691C229.291 281.61 229.316 281.528 229.369 281.466C229.422 281.404 229.498 281.366 229.579 281.361L249.309 279.361C249.39 279.35 249.471 279.372 249.534 279.424C249.596 279.475 249.635 279.55 249.639 279.631C249.648 279.71 249.624 279.79 249.573 279.852C249.523 279.914 249.449 279.953 249.369 279.961L229.639 281.961H229.609Z" fill="#AC88BE"/>
<path d="M257.74 284.461C257.611 284.461 257.496 284.381 257.45 284.261L249.33 262.411C249.301 262.337 249.304 262.254 249.338 262.182C249.372 262.11 249.435 262.056 249.51 262.031C249.584 262.001 249.667 262.003 249.74 262.035C249.814 262.067 249.871 262.126 249.9 262.201L258.02 284.031C258.049 284.106 258.046 284.19 258.012 284.264C257.978 284.337 257.916 284.394 257.84 284.421L257.74 284.461Z" fill="#AC88BE"/>
<path d="M272.73 287.861L266.99 270.041" stroke="#AC88BE" stroke-width="0.6" stroke-linecap="round" stroke-linejoin="round"/>
<path d="M392.11 282.091C392.11 282.091 415.89 256.751 429.19 257.331C442.49 257.911 428.02 273.231 428.02 273.231L414.2 286.571L392.11 282.091Z" fill="#77CEDF"/>
<path d="M404.761 284.841C404.702 284.845 404.645 284.819 404.611 284.771C404.572 284.737 404.55 284.687 404.55 284.636C404.55 284.584 404.572 284.535 404.611 284.501C409.151 281.181 432.861 258.251 433.101 258.021C433.178 257.946 433.301 257.948 433.376 258.026C433.45 258.103 433.448 258.226 433.371 258.301C433.131 258.531 409.371 281.471 404.831 284.811C404.81 284.825 404.786 284.835 404.761 284.841V284.841Z" fill="#AC88BE"/>
<path d="M417.26 273.621H417.21C417.112 273.592 417.055 273.49 417.08 273.391L421.35 259.051C421.384 258.951 421.489 258.894 421.59 258.921C421.64 258.935 421.682 258.968 421.706 259.013C421.731 259.059 421.736 259.112 421.72 259.161L417.41 273.481C417.39 273.552 417.332 273.605 417.26 273.621Z" fill="#AC88BE"/>
<path d="M423.461 267.761C423.356 267.761 423.271 267.676 423.271 267.571C423.271 267.466 423.356 267.381 423.461 267.381L433.221 266.021C433.328 266.009 433.425 266.084 433.441 266.191C433.446 266.241 433.431 266.292 433.399 266.331C433.367 266.371 433.321 266.396 433.271 266.401L423.521 267.761H423.461Z" fill="#AC88BE"/>
<path d="M414.631 276.081C414.533 276.081 414.451 276.008 414.441 275.911C414.435 275.86 414.45 275.81 414.482 275.77C414.514 275.731 414.56 275.706 414.611 275.701L426.411 274.561C426.461 274.555 426.512 274.57 426.551 274.602C426.591 274.634 426.616 274.68 426.621 274.731C426.626 274.781 426.611 274.832 426.579 274.871C426.548 274.911 426.501 274.936 426.451 274.941L414.641 276.081H414.631Z" fill="#AC88BE"/>
<path d="M410.34 280.041V280.041C410.291 280.036 410.245 280.011 410.215 279.971C410.184 279.931 410.172 279.88 410.18 279.831L411.92 264.571C411.936 264.468 412.027 264.394 412.13 264.401C412.181 264.406 412.227 264.431 412.259 264.47C412.291 264.51 412.306 264.56 412.3 264.611L410.56 279.881C410.536 279.981 410.443 280.049 410.34 280.041V280.041Z" fill="#AC88BE"/>
<path d="M402.07 284.111L402.98 271.761" stroke="#AC88BE" stroke-width="0.38" stroke-linecap="round" stroke-linejoin="round"/>
<path d="M308.99 281.561C308.99 281.561 264.34 222.041 235.32 217.871C206.3 213.701 233.53 249.721 233.53 249.721L259.87 281.561H308.99Z" fill="#088656"/>
<path d="M280.86 281.961C280.76 281.963 280.664 281.927 280.59 281.861C271.59 273.451 226.38 218.671 225.93 218.121C225.777 217.965 225.777 217.716 225.93 217.561C226.089 217.407 226.341 217.407 226.5 217.561C226.95 218.111 272.13 272.851 281.09 281.221C281.166 281.296 281.209 281.399 281.209 281.506C281.209 281.613 281.166 281.716 281.09 281.791C281.038 281.875 280.956 281.936 280.86 281.961V281.961Z" fill="#AC88BE"/>
<path d="M256.801 254.811C256.608 254.809 256.444 254.67 256.411 254.481L251.061 224.481C251.024 224.264 251.165 224.056 251.381 224.011C251.601 223.974 251.81 224.121 251.851 224.341L257.201 254.341C257.237 254.556 257.095 254.76 256.881 254.801L256.801 254.811Z" fill="#AC88BE"/>
<path d="M244.961 240.761C244.921 240.771 244.88 240.771 244.841 240.761L224.041 234.181C223.938 234.151 223.853 234.081 223.804 233.986C223.755 233.892 223.746 233.782 223.781 233.681C223.852 233.475 224.071 233.361 224.281 233.421L245.081 240.001C245.266 240.062 245.381 240.248 245.351 240.442C245.321 240.635 245.156 240.778 244.961 240.781V240.761Z" fill="#AC88BE"/>
<path d="M261.84 260.721H261.74L236.43 253.721C236.327 253.695 236.238 253.628 236.185 253.536C236.132 253.443 236.12 253.333 236.15 253.231C236.176 253.127 236.243 253.039 236.335 252.986C236.428 252.933 236.538 252.92 236.64 252.951L261.95 259.951C262.154 259.995 262.29 260.19 262.261 260.397C262.232 260.604 262.049 260.754 261.84 260.741V260.721Z" fill="#AC88BE"/>
<path d="M270.081 270.241V270.241C269.975 270.241 269.875 270.198 269.801 270.123C269.728 270.048 269.688 269.946 269.691 269.841L270.071 239.011C270.071 238.79 270.25 238.611 270.471 238.611C270.691 238.621 270.866 238.8 270.871 239.021L270.491 269.851C270.491 269.958 270.447 270.06 270.369 270.134C270.292 270.208 270.187 270.246 270.081 270.241Z" fill="#AC88BE"/>
<path d="M286.83 281.961V281.961C286.725 281.956 286.626 281.908 286.556 281.829C286.487 281.75 286.452 281.646 286.46 281.541L287.87 256.811C287.891 256.591 288.079 256.425 288.3 256.431C288.406 256.438 288.505 256.488 288.575 256.569C288.644 256.65 288.678 256.755 288.67 256.861L287.26 281.591C287.253 281.697 287.203 281.796 287.122 281.865C287.041 281.935 286.936 281.969 286.83 281.961Z" fill="#AC88BE"/>
<path d="M425.621 301.611H238.771C238.771 301.611 253.861 258.081 289.831 274.731C289.831 274.731 316.531 224.891 360.631 270.931C360.631 270.931 407.051 235.031 425.621 301.611Z" fill="url(#paint0_linear)"/>
<path d="M189.511 280.411C189.511 280.411 206.341 285.311 219.571 308.091L224.471 315.711C224.471 315.711 202.811 301.711 196.161 291.081L189.511 280.411Z" fill="#2A8592"/>
<path d="M188.641 304.961C188.641 304.961 201.951 297.821 224.281 315.771C224.281 315.771 218.651 318.771 207.281 312.641C195.911 306.511 194.611 303.041 188.641 304.961Z" fill="#2A8592"/>
<path d="M221.86 273.601C221.86 273.601 211.98 294.381 224.21 315.821C224.21 315.821 234.31 292.931 221.86 273.601Z" fill="#2A8592"/>
<path d="M196.051 286.221C196.051 286.221 212.301 305.221 218.711 309.591Z" fill="#3CB889"/>
<path d="M223.31 283.011C223.31 283.011 218.96 299.961 224.31 311.911" stroke="#3CB889" stroke-width="0.36" stroke-linecap="round" stroke-linejoin="round"/>
<path d="M201.851 307.091C201.851 307.091 214.471 310.281 222.661 313.911Z" fill="#3CB889"/>
<path d="M437.24 284.881C437.24 284.881 408.24 294.001 389.46 337.621L382.32 352.211C382.32 352.211 418 325.711 427.62 305.291L437.24 284.881Z" fill="#836CE1"/>
<path d="M443.93 332.111C443.93 332.111 418.71 318.111 382.66 352.271C382.66 352.271 393.32 358.221 412.31 346.541C431.3 334.861 432.88 328.301 443.93 332.111Z" fill="#836CE1"/>
<path d="M378.15 271.121C378.15 271.121 400.15 311.301 382.79 352.361C382.79 352.411 360 308.111 378.15 271.121Z" fill="#836CE1"/>
<path d="M426.79 295.891C426.79 295.891 401.79 332.161 391.29 340.461Z" fill="#3CB889"/>
<path d="M381.86 345.161H381.77C381.591 345.108 381.488 344.92 381.54 344.741C388.41 322.201 377.33 289.661 377.22 289.331C377.181 289.218 377.204 289.093 377.282 289.003C377.36 288.913 377.48 288.871 377.597 288.893C377.714 288.915 377.811 288.998 377.85 289.111C379.901 295.423 381.501 301.872 382.64 308.411C384.43 318.521 385.81 333.071 382.18 344.971C382.125 345.096 381.996 345.172 381.86 345.161Z" fill="#3CB889"/>
<path d="M420.82 335.951C420.82 335.951 399 341.871 385.15 348.711Z" fill="#3CB889"/>
<path d="M588.06 314.461C591.128 318.41 593.629 322.769 595.49 327.411V335.031C595.49 335.031 587.41 327.971 588.06 314.461Z" fill="#009F97"/>
<path d="M595.85 339.221C595.361 339.221 594.961 338.83 594.95 338.341L594.58 324.111C594.58 313.771 599.32 312.111 599.52 312.061C599.992 311.91 600.497 312.169 600.65 312.641C600.728 312.869 600.711 313.119 600.602 313.334C600.492 313.549 600.301 313.71 600.07 313.781C600.07 313.781 596.41 315.231 596.41 324.091L596.77 338.291C596.781 338.79 596.389 339.204 595.89 339.221H595.85Z" fill="#009F97"/>
<path d="M612.64 327.111C612.64 327.111 602.23 326.521 598.86 329.831C598.86 329.831 596.21 333.261 595.86 336.581C595.85 336.581 608.9 331.411 612.64 327.111Z" fill="#009F97"/>
<path opacity="0.8" d="M613.18 308.631C613.18 308.631 606.18 317.561 596.49 313.561C586.8 309.561 586.04 302.111 585.66 297.411C585.66 297.411 585.66 293.031 588.34 293.021C590.02 293.021 591.27 295.281 591.27 295.281C591.8 295.961 592.45 298.401 593.81 296.081C595.42 293.351 597.81 292.921 598.91 293.321C600.01 293.721 600.5 295.681 600.73 296.711C600.96 297.741 601.6 298.171 603.11 297.281C604.26 296.611 604.83 295.281 606.49 296.351C608.15 297.421 606.94 299.941 606.94 299.941C606.94 299.941 605.57 302.611 608.72 301.281C608.72 301.281 612.43 300.281 614.2 302.481C616.24 305.041 613.18 308.631 613.18 308.631Z" fill="#9089E8"/>
<path d="M612.76 320.311C612.76 320.311 602.55 323.311 598.06 314.531C593.57 305.751 597.43 299.461 599.91 295.531C599.91 295.531 602.5 292.071 604.4 293.621C605.59 294.621 605.13 297.101 605.13 297.101C605.13 297.941 604.13 300.241 606.46 299.201C609.21 297.981 611.12 299.001 611.69 299.971C612.26 300.941 611.42 302.751 610.97 303.701C610.52 304.651 610.74 305.351 612.33 305.531C613.54 305.661 614.7 304.981 615.26 306.751C615.82 308.521 613.46 309.841 613.46 309.841C613.46 309.841 610.92 311.141 613.93 311.921C613.93 311.921 617.14 313.281 617.1 316.031C617.05 319.241 612.76 320.311 612.76 320.311Z" fill="#7460CE"/>
<rect x="469.91" y="375.101" width="0.95" height="12.63" rx="0.475" fill="#00886F"/>
<path d="M470.27 375.101C470.27 375.101 467.83 380.941 456.01 376.881C456.01 376.881 465.24 365.651 470.27 373.261C470.27 373.261 472.27 366.901 482.16 373.261C482.16 373.261 477.06 380.201 470.27 375.101Z" fill="#00886F"/>
<path d="M463.73 375.501C463.633 375.505 463.539 375.469 463.47 375.401C463.317 375.245 463.317 374.996 463.47 374.841C465.91 372.101 469.32 373.401 470.33 373.841C472.91 371.021 476.14 373.151 476.17 373.171C476.35 373.293 476.399 373.538 476.28 373.721C476.221 373.808 476.13 373.868 476.026 373.887C475.922 373.906 475.816 373.882 475.73 373.821C474.121 372.728 471.941 373.059 470.73 374.581C470.609 374.73 470.399 374.772 470.23 374.681C469.544 374.312 468.8 374.065 468.03 373.951C466.545 373.657 465.017 374.184 464.03 375.331C463.962 375.431 463.851 375.494 463.73 375.501Z" fill="#0D6D5C"/>
<rect x="339.91" y="401.921" width="0.95" height="12.63" rx="0.475" fill="#00886F"/>
<path d="M340.26 401.921C340.26 401.921 337.83 407.761 326.01 403.691C326.01 403.691 335.24 392.471 340.26 400.071C340.26 400.071 342.26 393.721 352.16 400.071C352.16 400.071 347.06 407.021 340.26 401.921Z" fill="#00886F"/>
<path d="M333.72 402.321C333.625 402.317 333.534 402.281 333.46 402.221C333.308 402.065 333.308 401.816 333.46 401.661C335.89 398.921 339.31 400.221 340.32 400.661C342.9 397.841 346.12 399.961 346.16 399.991C346.34 400.112 346.387 400.356 346.265 400.536C346.144 400.715 345.9 400.762 345.72 400.641C344.112 399.543 341.929 399.875 340.72 401.401C340.598 401.55 340.386 401.588 340.22 401.491C339.527 401.132 338.781 400.889 338.01 400.771C336.527 400.472 334.998 400.996 334.01 402.141C333.944 402.24 333.838 402.306 333.72 402.321V402.321Z" fill="#0D6D5C"/>
<rect x="154.98" y="311.171" width="0.79" height="10.46" rx="0.395" fill="#00886F"/>
<path d="M155.281 311.181C155.281 311.181 153.281 316.011 143.471 312.641C143.471 312.641 151.121 303.341 155.281 309.641C155.281 309.641 156.931 304.371 165.131 309.641C165.131 309.651 160.911 315.411 155.281 311.181Z" fill="#00886F"/>
<path d="M149.86 311.501C149.782 311.503 149.707 311.475 149.65 311.421C149.588 311.361 149.553 311.278 149.553 311.191C149.553 311.104 149.588 311.021 149.65 310.961C151.65 308.691 154.49 309.771 155.33 310.161C156.593 308.82 158.639 308.587 160.17 309.611C160.243 309.658 160.293 309.732 160.31 309.817C160.327 309.902 160.309 309.99 160.26 310.061C160.155 310.209 159.953 310.248 159.8 310.151V310.151C158.472 309.242 156.667 309.518 155.67 310.781C155.564 310.9 155.389 310.929 155.25 310.851C154.677 310.554 154.059 310.351 153.42 310.251C152.188 310.013 150.924 310.456 150.11 311.411C150.044 311.476 149.953 311.508 149.86 311.501Z" fill="#0D6D5C"/>
<rect x="543.61" y="301.311" width="0.79" height="10.46" rx="0.395" fill="#00886F"/>
<path d="M543.911 301.311C543.911 301.311 541.911 306.151 532.101 302.781C532.101 302.781 539.751 293.481 543.911 299.781C543.911 299.781 545.561 294.521 553.761 299.781C553.761 299.781 549.541 305.541 543.911 301.311Z" fill="#00886F"/>
<path d="M538.49 301.641C538.41 301.639 538.333 301.611 538.27 301.561C538.146 301.433 538.146 301.229 538.27 301.101C540.27 298.831 543.11 299.911 543.95 300.301C545.213 298.96 547.259 298.727 548.79 299.751C548.914 299.861 548.936 300.047 548.843 300.184C548.749 300.32 548.568 300.366 548.42 300.291V300.291C547.09 299.376 545.278 299.652 544.28 300.921C544.179 301.042 544.005 301.072 543.87 300.991C543.296 300.694 542.678 300.491 542.04 300.391C540.819 300.16 539.567 300.594 538.75 301.531C538.685 301.606 538.589 301.646 538.49 301.641Z" fill="#0D6D5C"/>
<rect x="670.4" y="285.781" width="0.79" height="10.46" rx="0.395" fill="#00886F"/>
<path d="M670.701 285.781C670.701 285.781 668.701 290.621 658.891 287.251C658.891 287.251 666.541 277.951 670.701 284.251C670.701 284.251 672.351 278.991 680.551 284.251C680.551 284.251 676.331 290.011 670.701 285.781Z" fill="#00886F"/>
<path d="M665.28 286.111C665.2 286.11 665.122 286.082 665.06 286.031C664.936 285.903 664.936 285.699 665.06 285.571C667.06 283.301 669.91 284.381 670.75 284.771C672.011 283.436 674.048 283.2 675.58 284.211C675.728 284.316 675.768 284.518 675.67 284.671C675.623 284.743 675.549 284.794 675.464 284.811C675.379 284.828 675.291 284.81 675.22 284.761C673.89 283.846 672.078 284.122 671.08 285.391C670.976 285.513 670.798 285.543 670.66 285.461C670.091 285.16 669.476 284.958 668.84 284.861C667.619 284.63 666.367 285.064 665.55 286.001C665.483 286.079 665.383 286.12 665.28 286.111Z" fill="#0D6D5C"/>
<path fill-rule="evenodd" clip-rule="evenodd" d="M458.91 289.081C458.91 289.081 460.91 290.651 462.1 290.361C463.29 290.071 462.1 289.481 462.1 289.481C462.1 289.481 465.8 289.071 465.25 287.931C464.7 286.791 462.08 287.291 462.08 287.291C462.08 287.291 464.27 285.591 462.52 284.971C460.77 284.351 460.17 286.481 460.17 286.481C460.17 286.481 460.36 283.621 458.92 283.361C457.48 283.101 457.65 285.361 457.65 285.361C457.65 285.361 455.43 283.301 454.53 284.061C453.63 284.821 455.85 286.691 455.85 286.691C455.85 286.691 454.54 287.031 455.07 287.921C455.6 288.811 458.91 289.081 458.91 289.081Z" fill="#F6EB1D"/>
<path d="M458.759 287.671C458.759 287.671 460.909 288.311 460.069 289.081C459.229 289.851 458.919 289.521 458.759 290.081C457.759 290.671 452.959 329.341 453.759 329.311C453.409 329.181 453.329 327.361 452.979 327.231C453.249 318.691 456.299 298.141 457.929 289.711C457.929 289.711 456.589 288.501 456.929 287.871C457.269 287.241 456.079 288.051 458.759 287.671Z" fill="#1E8862"/>
<path d="M449.93 300.001C449.93 300.001 452.21 299.721 451.52 300.621C451.03 301.621 450.41 301.801 450.36 302.381C450.31 302.961 451.36 333.811 451.36 333.811C450.65 332.321 450.6 331.401 450.24 331.321C449.71 322.771 450.08 310.711 449.54 302.151C449.54 302.151 448.01 301.151 448.21 300.501C448.41 299.851 447.41 300.821 449.93 300.001Z" fill="#1E8862"/>
<path fill-rule="evenodd" clip-rule="evenodd" d="M451.92 298.791C451.92 298.791 453.59 296.201 452.19 295.591C450.79 294.981 449.85 297.871 449.85 297.871C449.85 297.871 448.53 294.531 447.34 295.231C446.15 295.931 447.61 298.231 447.61 298.231C447.61 298.231 444.92 296.971 443.89 297.731C442.86 298.491 446.34 299.731 446.34 299.731C446.34 299.731 443.75 300.161 445.34 301.011C446.367 301.474 447.575 301.228 448.34 300.401C448.6 301.191 450.65 301.601 450.97 300.461C451.53 300.111 454.81 300.901 454.88 299.601C454.95 298.301 451.92 298.791 451.92 298.791Z" fill="#F6EB1D"/>
<path fill-rule="evenodd" clip-rule="evenodd" d="M450.96 299.261C450.12 297.851 448.13 298.871 448.27 299.421C449.127 299.085 450.069 299.029 450.96 299.261V299.261Z" fill="#FBC90B"/>
<path d="M189.15 340.011C189.06 341.343 189.781 342.598 190.978 343.191C192.174 343.783 193.61 343.597 194.615 342.718C195.62 341.839 195.996 340.44 195.568 339.176C195.14 337.911 193.992 337.029 192.66 336.941C190.844 336.821 189.273 338.194 189.15 340.011Z" fill="white"/>
<path d="M200.19 358.771C199.825 358.774 199.516 358.503 199.47 358.141C199.47 358.041 198.04 348.051 194.05 343.141C193.866 342.941 193.808 342.656 193.899 342.4C193.99 342.144 194.216 341.96 194.485 341.923C194.754 341.885 195.022 342 195.18 342.221C199.44 347.421 200.86 357.491 200.92 357.911C200.968 358.312 200.69 358.679 200.29 358.741L200.19 358.771Z" fill="#00886F"/>
<path d="M303.51 294.791C303.341 296.645 301.705 298.013 299.85 297.851C298.942 297.798 298.09 297.397 297.47 296.731C296.864 296.084 296.553 295.215 296.61 294.331C296.802 292.479 298.425 291.112 300.282 291.235C302.139 291.359 303.566 292.93 303.51 294.791V294.791Z" fill="white"/>
<path d="M289.611 311.921H289.411C289.018 311.805 288.791 311.395 288.901 311.001C289.021 310.591 291.851 300.791 296.971 296.201C297.278 295.931 297.746 295.958 298.021 296.261C298.153 296.408 298.221 296.601 298.21 296.798C298.198 296.996 298.109 297.18 297.961 297.311C293.161 301.611 290.361 311.311 290.331 311.411C290.227 311.719 289.936 311.925 289.611 311.921Z" fill="#00886F"/>
<path d="M583.19 278.121C583.355 279.435 582.424 280.635 581.11 280.801C580.475 280.899 579.827 280.748 579.3 280.381C578.771 280.029 578.41 279.476 578.3 278.851C578.099 277.512 579.021 276.262 580.36 276.061C581.699 275.859 582.949 276.782 583.15 278.121H583.19Z" fill="white"/>
<path d="M576.04 292.091V292.091C575.751 292.069 575.533 291.82 575.55 291.531C575.55 291.231 576.05 284.021 578.91 280.071C578.992 279.957 579.116 279.88 579.255 279.858C579.394 279.835 579.536 279.869 579.65 279.951C579.879 280.128 579.928 280.455 579.76 280.691C577.08 284.391 576.61 291.531 576.6 291.601C576.592 291.741 576.528 291.872 576.423 291.964C576.318 292.056 576.179 292.102 576.04 292.091Z" fill="#00886F"/>
<path d="M500.621 305.691C500.786 307.005 499.855 308.205 498.541 308.371C497.906 308.469 497.258 308.318 496.731 307.951C496.202 307.599 495.841 307.046 495.731 306.421C495.529 305.082 496.451 303.832 497.791 303.631C499.13 303.429 500.379 304.352 500.581 305.691H500.621Z" fill="white"/>
<path d="M493.47 319.661V319.661C493.181 319.639 492.963 319.39 492.98 319.101C492.98 318.801 493.48 311.591 496.34 307.641C496.449 307.489 496.631 307.407 496.817 307.425C497.003 307.444 497.165 307.56 497.242 307.73C497.319 307.901 497.299 308.099 497.19 308.251C494.51 311.961 494.03 319.101 494.03 319.171C494.023 319.311 493.959 319.442 493.854 319.534C493.748 319.626 493.61 319.672 493.47 319.661V319.661Z" fill="#00886F"/>
<path d="M555.36 264.951C557.133 264.951 558.57 263.541 558.57 261.801C558.57 260.061 557.133 258.651 555.36 258.651C553.588 258.651 552.15 260.061 552.15 261.801C552.15 263.541 553.588 264.951 555.36 264.951Z" fill="white"/>
<path d="M561.771 273.221C563.543 273.221 564.981 271.811 564.981 270.071C564.981 268.331 563.543 266.921 561.771 266.921C559.998 266.921 558.561 268.331 558.561 270.071C558.561 271.811 559.998 273.221 561.771 273.221Z" fill="white"/>
<path d="M545.26 270.571C546.514 270.571 547.53 269.572 547.53 268.341C547.53 267.109 546.514 266.111 545.26 266.111C544.007 266.111 542.99 267.109 542.99 268.341C542.99 269.572 544.007 270.571 545.26 270.571Z" fill="white"/>
<path d="M550.911 289.521C550.518 289.521 550.201 289.203 550.201 288.811C550.071 269.811 552.951 264.371 553.071 264.151C553.261 263.806 553.695 263.68 554.041 263.871C554.386 264.061 554.511 264.496 554.321 264.841C554.321 264.921 551.501 270.371 551.621 288.841C551.626 289.03 551.555 289.213 551.423 289.349C551.291 289.484 551.11 289.561 550.921 289.561L550.911 289.521Z" fill="#00886F"/>
<path d="M550.91 282.261C550.827 282.275 550.743 282.275 550.66 282.261C548.09 281.311 546.22 278.981 545.24 275.501C544.801 273.904 544.569 272.257 544.55 270.601C544.555 270.213 544.872 269.901 545.26 269.901V269.901C545.654 269.906 545.97 270.227 545.97 270.621C545.97 270.701 545.97 279.021 551.14 280.921C551.467 281.036 551.664 281.37 551.604 281.712C551.545 282.054 551.247 282.303 550.9 282.301L550.91 282.261Z" fill="#00886F"/>
<path d="M552.67 274.871C552.276 274.871 551.882 274.85 551.49 274.811C551.101 274.769 550.82 274.42 550.86 274.031C550.902 273.641 551.249 273.356 551.64 273.391C554.253 273.537 556.855 272.948 559.15 271.691C559.484 271.524 559.89 271.644 560.08 271.965C560.269 272.286 560.178 272.699 559.87 272.911C557.663 274.133 555.193 274.805 552.67 274.871Z" fill="#00886F"/>
<path d="M153.41 280.651C146.653 278.859 139.469 281.131 134.97 286.481C132.88 289.051 131.53 292.671 132.89 295.691C134.69 299.691 139.96 300.501 144.31 300.121C149.547 299.658 154.661 298.266 159.41 296.011C162.32 294.621 165.23 292.741 166.6 289.821C167.97 286.901 167.12 282.761 164.14 281.531" fill="#5FF4B4"/>
<path d="M174.831 267.411C180.066 267.411 184.311 263.166 184.311 257.931C184.311 252.695 180.066 248.451 174.831 248.451C169.595 248.451 165.351 252.695 165.351 257.931C165.351 263.166 169.595 267.411 174.831 267.411Z" fill="#5FF4B4"/>
<path d="M134.85 252.061C133.761 251.544 132.931 250.604 132.553 249.459C132.175 248.314 132.283 247.064 132.85 246.001C134.232 243.898 137.056 243.312 139.16 244.691C141.139 246.23 141.577 249.043 140.16 251.111C138.606 253.072 135.832 253.562 133.7 252.251" fill="#5FF4B4"/>
<path d="M286.64 364.231C322.086 364.231 350.82 355.46 350.82 344.641C350.82 333.822 322.086 325.051 286.64 325.051C251.194 325.051 222.46 333.822 222.46 344.641C222.46 355.46 251.194 364.231 286.64 364.231Z" fill="url(#paint1_linear)"/>
<path fill-rule="evenodd" clip-rule="evenodd" d="M240.76 360.151C253.04 363.901 269.34 365.961 286.65 365.961C303.95 365.961 320.25 363.901 332.53 360.151C345.6 356.151 352.53 350.801 352.53 344.651C352.53 338.501 345.62 333.141 332.53 329.141C320.25 325.391 303.96 323.331 286.65 323.331C269.34 323.331 253.04 325.391 240.76 329.141C227.68 333.141 220.76 338.511 220.76 344.651C220.76 350.791 227.67 356.151 240.76 360.151ZM241.77 332.441C253.73 328.781 269.65 326.781 286.65 326.781C303.62 326.781 319.56 328.791 331.52 332.441C342.53 335.801 349.1 340.371 349.1 344.651C349.1 348.931 342.52 353.491 331.52 356.851C319.56 360.521 303.63 362.521 286.65 362.521C269.67 362.521 253.77 360.501 241.77 356.851C230.76 353.491 224.19 348.941 224.19 344.651C224.19 340.361 230.77 335.801 241.77 332.441Z" fill="#37DD9E"/>
<defs>
<linearGradient id="paint0_linear" x1="433.052" y1="251.515" x2="246.98" y2="251.515" gradientUnits="userSpaceOnUse">
<stop stop-color="#1FB583"/>
<stop offset="0.29" stop-color="#15AF72"/>
<stop offset="1" stop-color="#00A34B"/>
</linearGradient>
<linearGradient id="paint1_linear" x1="231.635" y1="326.354" x2="231.649" y2="359.884" gradientUnits="userSpaceOnUse">
<stop offset="0.27" stop-color="#5E5544"/>
<stop offset="1" stop-color="#383837"/>
</linearGradient>
</defs>
</svg>
