<?xml version="1.0" encoding="UTF-8"?>
<svg width="294px" height="277px" viewBox="0 0 294 277" version="1.1" xmlns="http://www.w3.org/2000/svg" xmlns:xlink="http://www.w3.org/1999/xlink">
    <!-- Generator: Sketch 60 (88103) - https://sketch.com -->
    <title>Satellite 01</title>
    <desc>Created with Sketch.</desc>
    <defs>
        <linearGradient x1="49.9396864%" y1="45.6148248%" x2="50.0482509%" y2="53.64381%" id="linearGradient-1">
            <stop stop-color="#5E5544" offset="27%"></stop>
            <stop stop-color="#383837" offset="100%"></stop>
        </linearGradient>
    </defs>
    <g id="Page-1" stroke="none" stroke-width="1" fill="none" fill-rule="evenodd">
        <g id="Home-Refresh" transform="translate(-1146.000000, -131.000000)">
            <g id="Hero-section">
                <g id="Group-4" transform="translate(54.000000, 120.000000)">
                    <g id="Satellite-01" transform="translate(1092.000000, 11.000000)">
                        <g id="Layer_16" opacity="0.6" transform="translate(0.000000, 16.000000)" fill-rule="nonzero">
                            <g id="Illustration">
                                <polygon id="Path" fill="#A38CC2" points="241.784333 117.374089 201.543417 117.374089 201.543417 98.8785074 166.607917 98.8785074 166.607917 80.910349 207.223333 80.910349 207.223333 47.494938 149.158 47.494938 149.158 47.1820597 207.535417 47.1820597 207.535417 81.2232274 166.92 81.2232274 166.92 98.565629 201.8555 98.565629 201.8555 117.052272 241.784333 117.052272"></polygon>
                                <path d="M207.383833,90.5738213 C202.139199,90.5738213 197.887583,86.3113741 197.887583,81.0533791 C197.887583,75.7953841 202.139199,71.532937 207.383833,71.532937 C212.628467,71.532937 216.880083,75.7953841 216.880083,81.0533791 C216.880083,83.5783574 215.879588,85.9999191 214.098696,87.7853483 C212.317804,89.5707775 209.902395,90.5738213 207.383833,90.5738213 Z M207.383833,72.1676331 C202.488842,72.1676331 198.520667,76.1459171 198.520667,81.0533791 C198.520667,85.9608411 202.488842,89.9391251 207.383833,89.9391251 C212.278825,89.9391251 216.247,85.9608411 216.247,81.0533791 C216.21779,76.1580985 212.266675,72.1969178 207.383833,72.1676331 L207.383833,72.1676331 Z" id="Shape" fill="#A38CC2"></path>
                                <path d="M132.43925,39.4852558 C128.597566,39.4888679 125.132153,37.171581 123.659504,33.6143233 C122.186855,30.0570657 122.997112,25.9606884 125.712317,23.2360072 C128.427523,20.511326 132.512728,19.6951575 136.062328,21.1682158 C139.611929,22.641274 141.926583,26.1133369 141.926583,29.9648094 C141.921678,35.2172773 137.678364,39.4753993 132.43925,39.4852558 Z M132.43925,21.0790634 C127.544258,21.0790634 123.576083,25.0573474 123.576083,29.9648094 C123.576083,34.8722714 127.544258,38.8505554 132.43925,38.8505554 C137.334242,38.8505554 141.302417,34.8722714 141.302417,29.9648094 C141.273206,25.0695288 137.322091,21.108348 132.43925,21.0790634 Z" id="Shape" fill="#A38CC2"></path>
                                <g id="Group" opacity="0.3" transform="translate(75.791667, 78.666564)" fill="#A38CC2">
                                    <path d="M5.885,11.7374089 C3.60211397,11.7374089 1.54401561,10.3587282 0.670392949,8.24424351 C-0.203229711,6.12975878 0.279668361,3.69588157 1.89391255,2.07752502 C3.50815674,0.459168475 5.93584929,-0.0249598025 8.04496096,0.850888451 C10.1540726,1.7267367 11.52925,3.79007817 11.52925,6.07877995 C11.5243403,9.20191333 9.00019727,11.7324867 5.885,11.7374089 L5.885,11.7374089 Z M5.885,1.68954325 C3.46705134,1.68954325 1.50691667,3.65467146 1.50691667,6.07877995 C1.50691667,8.50288844 3.46705134,10.4680166 5.885,10.4680166 C8.30294866,10.4680166 10.2630833,8.50288844 10.2630833,6.07877995 C10.2532626,3.66165647 8.2960014,1.70740196 5.885,1.70742202 L5.885,1.68954325 Z" id="Shape"></path>
                                </g>
                                <g id="Group" opacity="0.4" transform="translate(102.541667, 0.000000)" fill="#A38CC2">
                                    <path d="M6.03658333,11.6748404 C3.75288934,11.6784502 1.69205597,10.3020651 0.815623147,8.18786919 C-0.0608096779,6.07367332 0.419884973,3.63833133 2.03342546,2.01812071 C3.64696594,0.397910082 6.07535652,-0.0878588991 8.1855631,0.78746298 C10.2957697,1.66278486 11.6719167,3.72668961 11.6719167,6.01620427 C11.667024,9.13585769 9.14829787,11.6649959 6.03658333,11.6748404 Z M6.03658333,1.62696757 C3.61863467,1.62696757 1.6585,3.59209578 1.6585,6.01620427 C1.6585,8.44031277 3.61863467,10.405441 6.03658333,10.405441 C8.45453199,10.405441 10.4146667,8.44031277 10.4146667,6.01620427 C10.4097612,3.59413578 8.45249718,1.6318855 6.03658333,1.62696757 L6.03658333,1.62696757 Z" id="Shape"></path>
                                </g>
                                <path d="M97.584,84.9062529 L81.4448333,84.9062529 C81.3561916,84.9062529 81.2843333,84.8342115 81.2843333,84.745344 L81.2843333,64.8373397 L72.1536667,64.8373397 C72.1110994,64.8373397 72.0702756,64.8203868 72.040176,64.7902105 C72.0100764,64.7600343 71.9931667,64.7191065 71.9931667,64.6764308 C71.997904,64.5910723 72.0683935,64.5243293 72.1536667,64.5244613 L81.4448333,64.5244613 C81.5301065,64.5243293 81.600596,64.5910723 81.6053333,64.6764308 L81.6053333,84.5844351 L97.4235,84.5844351 L97.4235,63.7020381 C97.4235,63.6593624 97.4404098,63.6184346 97.4705094,63.5882584 C97.500609,63.5580821 97.5414328,63.5411292 97.584,63.5411292 L108.934917,63.5411292 L108.934917,6.06090119 L88.9080833,6.06090119 L88.9080833,44.0532759 C88.9080833,44.1421434 88.836225,44.2141848 88.7475833,44.2141848 C88.7057872,44.2142573 88.665816,44.1970251 88.6371178,44.1665613 C88.6084195,44.1360976 88.5935413,44.0951059 88.596,44.0532759 L88.596,5.90893169 C88.5935413,5.86710162 88.6084195,5.82611001 88.6371178,5.79564624 C88.665816,5.76518248 88.7057872,5.74802258 88.7475833,5.74802258 L109.0865,5.74802258 C109.175142,5.74802258 109.247,5.82006417 109.247,5.90893169 L109.247,63.7020381 C109.242263,63.7873966 109.171773,63.8541396 109.0865,63.8540076 L97.7445,63.8540076 L97.7445,84.745344 C97.7445,84.8342115 97.6726417,84.9062529 97.584,84.9062529 L97.584,84.9062529 Z" id="Path" fill="#A38CC2"></path>
                                <path d="M75.97,64.8373397 L28.6225,64.8373397 C28.5338583,64.8373397 28.462,64.7652983 28.462,64.6764308 C28.4667373,64.5910723 28.5372269,64.5243293 28.6225,64.5244613 L75.97,64.5244613 C76.0552731,64.5243293 76.1257627,64.5910723 76.1305,64.6764308 C76.1305,64.7652983 76.0586417,64.8373397 75.97,64.8373397 L75.97,64.8373397 Z" id="Path" fill="#A38CC2"></path>
                                <path d="M149.149083,112.841823 C149.063942,112.837073 148.997368,112.766404 148.9975,112.680914 L148.9975,63.8540076 L132.43925,63.8540076 C132.353977,63.8541396 132.283487,63.7873966 132.27875,63.7020381 L132.27875,29.9648094 C132.27875,29.8759419 132.350608,29.8039005 132.43925,29.8039005 L149.149083,29.8039005 C149.191651,29.8039005 149.232474,29.8208534 149.262574,29.8510296 C149.292674,29.8812059 149.309583,29.9221337 149.309583,29.9648094 L149.309583,47.2982716 C149.309583,47.3409473 149.292674,47.3818751 149.262574,47.4120514 C149.232474,47.4422277 149.191651,47.4591805 149.149083,47.4591805 C149.063942,47.4544311 148.997368,47.383762 148.9975,47.2982716 L148.9975,30.1167789 L132.590833,30.1167789 L132.590833,63.5411292 L149.149083,63.5411292 C149.237725,63.5411292 149.309583,63.6131706 149.309583,63.7020381 L149.309583,112.680914 C149.309583,112.769781 149.237725,112.841823 149.149083,112.841823 L149.149083,112.841823 Z" id="Path" fill="#A38CC2"></path>
                                <g id="Group" opacity="0.5" transform="translate(98.975000, 53.636294)" fill="#A38CC2">
                                    <path d="M10.2006667,19.5861866 C4.95603261,19.5861866 0.704416667,15.3237394 0.704416667,10.0657444 C0.704416667,4.80774945 4.95603261,0.545302319 10.2006667,0.545302319 C15.4453007,0.545302319 19.6969167,4.80774945 19.6969167,10.0657444 C19.6871029,15.3196587 15.4412303,19.5763478 10.2006667,19.5861866 L10.2006667,19.5861866 Z M10.2006667,1.17999846 C5.30567488,1.17999846 1.3375,5.15828245 1.3375,10.0657444 C1.3375,14.9732064 5.30567488,18.9514904 10.2006667,18.9514904 C15.0956585,18.9514904 19.0638333,14.9732064 19.0638333,10.0657444 C19.0589183,5.16032498 15.0936211,1.18492606 10.2006667,1.17999846 L10.2006667,1.17999846 Z" id="Shape"></path>
                                </g>
                                <path d="M28.86325,77.1826297 C23.6583255,77.1862428 18.9639057,74.0456673 16.9695675,69.2257312 C14.9752292,64.405795 16.0738517,58.8560122 19.7530141,55.1649191 C23.4321764,51.473826 28.9670939,50.3685576 33.7761637,52.3646346 C38.5852334,54.3607117 41.7210833,59.0649124 41.7210833,64.283098 C41.7161728,71.4017814 35.9638393,77.1727686 28.86325,77.1826297 Z M28.86325,52.0272049 C23.9143826,52.0272049 19.4529807,55.0164048 17.5599652,59.6005562 C15.6669497,64.1847076 16.7152456,69.4607314 20.2158988,72.9677447 C23.7165521,76.474758 28.979932,77.5218773 33.5510533,75.6206973 C38.1221745,73.7195173 41.1005237,69.2445715 41.0969199,64.283098 C41.0870846,57.5149525 35.6142025,52.0321271 28.86325,52.0272049 L28.86325,52.0272049 Z" id="Shape" fill="#A38CC2"></path>
                                <ellipse id="Oval" stroke="#A38CC2" fill="#B4A7D1" cx="81.6766667" cy="84.745344" rx="1.3375" ry="1.34090734"></ellipse>
                                <ellipse id="Oval" stroke="#A38CC2" fill="#B4A7D1" cx="132.43925" cy="63.7020381" rx="1.3375" ry="1.34090734"></ellipse>
                                <ellipse id="Oval" stroke="#A38CC2" fill="#B4A7D1" cx="149.158" cy="63.2014327" rx="1.3375" ry="1.34090734"></ellipse>
                                <ellipse id="Oval" stroke="#A38CC2" fill="#B4A7D1" cx="88.7654167" cy="43.9370639" rx="1.77441667" ry="1.77893707"></ellipse>
                                <ellipse id="Oval" stroke="#A38CC2" fill="#B4A7D1" cx="88.7654167" cy="6.02514366" rx="1.77441667" ry="1.77893707"></ellipse>
                                <ellipse id="Oval" stroke="#A38CC2" fill="#B4A7D1" cx="108.542583" cy="6.02514366" rx="1.77441667" ry="1.77893707"></ellipse>
                                <ellipse id="Oval" stroke="#A38CC2" fill="#B4A7D1" cx="108.926" cy="63.7020381" rx="1.77441667" ry="1.77893707"></ellipse>
                                <g id="Group" opacity="0.3" transform="translate(234.508333, 109.060464)" fill="#A38CC2">
                                    <path d="M8.22116667,16.5199785 C3.71028892,16.5199785 0.0535,12.8538737 0.0535,8.33150428 C0.0535,3.80913488 3.71028892,0.143030116 8.22116667,0.143030116 C12.7320444,0.143030116 16.3888333,3.80913488 16.3888333,8.33150428 C16.3839191,12.8518314 12.7300073,16.5150517 8.22116667,16.5199785 Z M8.22116667,0.777726258 C4.0599312,0.777726258 0.686583333,4.15966788 0.686583333,8.33150428 C0.686583333,12.5033407 4.0599312,15.8852823 8.22116667,15.8852823 C12.3824021,15.8852823 15.75575,12.5033407 15.75575,8.33150428 C15.7264106,4.17771712 12.3644913,0.823188124 8.22116667,0.813483787 L8.22116667,0.777726258 Z" id="Shape"></path>
                                </g>
                                <ellipse id="Oval" stroke="#A38CC2" fill="#8A76B5" cx="242.7295" cy="117.526059" rx="1.3375" ry="1.34090734"></ellipse>
                                <ellipse id="Oval" stroke="#A38CC2" fill="#8A76B5" cx="149.29175" cy="112.546823" rx="1.3375" ry="1.34090734"></ellipse>
                                <ellipse id="Oval" stroke="#A38CC2" fill="#B4A7D1" cx="149.158" cy="46.8334238" rx="1.77441667" ry="1.77893707"></ellipse>
                                <ellipse id="Oval" stroke="#A38CC2" fill="#B4A7D1" cx="132.49275" cy="29.9648094" rx="1.77441667" ry="1.77893707"></ellipse>
                                <path d="M28.86325,106.816682 L8.55108333,106.816682 C8.46581018,106.816682 8.39532063,106.750068 8.39058333,106.664709 C8.39058333,106.575842 8.46244163,106.5038 8.55108333,106.5038 L28.70275,106.5038 L28.70275,32.3069276 C28.70275,32.21806 28.7746083,32.1460187 28.86325,32.1460187 C28.9518917,32.1460187 29.02375,32.21806 29.02375,32.3069276 L29.02375,106.673649 C29.0146269,106.75547 28.94537,106.816682 28.86325,106.816682 L28.86325,106.816682 Z" id="Path" fill="#A38CC2"></path>
                                <ellipse id="Oval" stroke="#A38CC2" fill="#8A76B5" cx="28.86325" cy="64.9267335" rx="1.3375" ry="1.34090734"></ellipse>
                                <g id="Group" opacity="0.3" transform="translate(22.291667, 25.924209)" fill="#A38CC2">
                                    <path d="M6.33083333,12.0234692 C4.04713649,12.0234692 1.98847627,10.6438164 1.11537865,8.52823395 C0.242281023,6.41265153 0.72681563,3.97807451 2.34290918,2.36042346 C3.95900273,0.742772411 6.38815635,0.260853169 8.49697989,1.13951875 C10.6058034,2.01818432 11.9786911,4.08426776 11.9750904,6.37377956 C11.965271,9.49342133 9.44255949,12.0185641 6.33083333,12.0234692 L6.33083333,12.0234692 Z M6.33083333,1.97559433 C4.55565049,1.97198619 2.95325655,3.0412709 2.27142193,4.68446703 C1.58958732,6.32766316 1.96271629,8.22086147 3.2166851,9.48058524 C4.47065391,10.740309 6.3582784,11.1182396 7.9986829,10.4380127 C9.63908741,9.75778568 10.7089167,8.15348844 10.7089167,6.37377956 C10.7089167,3.94822076 8.75022363,1.98053348 6.33083333,1.97559433 L6.33083333,1.97559433 Z" id="Shape"></path>
                                </g>
                                <path d="M28.6225,32.4499577 L9.00583333,32.4499577 C8.92056018,32.4500897 8.85007063,32.3833466 8.84533333,32.2979882 C8.84533333,32.2091207 8.91719163,32.1370793 9.00583333,32.1370793 L28.6225,32.1370793 C28.7111417,32.1370793 28.783,32.2091207 28.783,32.2979882 C28.7782627,32.3833466 28.7077731,32.4500897 28.6225,32.4499577 L28.6225,32.4499577 Z" id="Path" fill="#A38CC2"></path>
                                <ellipse id="Oval" stroke="#A38CC2" fill="#8A76B5" cx="28.86325" cy="32.2979882" rx="1.3375" ry="1.34090734"></ellipse>
                                <ellipse id="Oval" stroke="#A38CC2" fill="#8A76B5" cx="7.4365" cy="32.2979882" rx="1.3375" ry="1.34090734"></ellipse>
                                <g id="Group" opacity="0.5" transform="translate(0.000000, 96.545329)" fill="#A38CC2">
                                    <path d="M9.49625,19.6308835 C5.65456434,19.6308835 2.19132423,17.3103321 0.722009151,13.7516891 C-0.747305929,10.1930461 0.0667885322,6.09743373 2.78454615,3.37531088 C5.50230378,0.653188033 9.58827185,-0.159132561 13.1364902,1.31726803 C16.6847086,2.79366863 18.9961072,6.26790991 18.9925042,10.1193807 C18.9826728,15.3718417 14.735371,19.6259655 9.49625,19.6308835 L9.49625,19.6308835 Z M9.49625,1.22469085 C5.90701803,1.22107891 2.66919893,3.38590502 1.29315908,6.70933327 C-0.0828807587,10.0327615 0.673974515,13.8599896 3.21066974,16.4057057 C5.74736496,18.9514217 9.56410479,19.7140531 12.8804699,18.3378503 C16.1968351,16.9616474 18.3594167,13.7177583 18.3594167,10.1193807 C18.3350723,5.22060947 14.3825462,1.25402757 9.49625,1.22469085 Z" id="Shape"></path>
                                </g>
                                <path d="M43.6203333,106.816679 L28.86325,106.816679 C28.7779769,106.816811 28.7074873,106.750068 28.70275,106.664709 C28.70275,106.575842 28.7746083,106.5038 28.86325,106.5038 L43.6203333,106.5038 C43.708975,106.5038 43.7808333,106.575842 43.7808333,106.664709 C43.776096,106.750068 43.7056065,106.816811 43.6203333,106.816679 L43.6203333,106.816679 Z" id="Path" fill="#A38CC2"></path>
                                <ellipse id="Oval" stroke="#A38CC2" fill="#B4A7D1" cx="44.9578333" cy="106.664709" rx="1.3375" ry="1.34090734"></ellipse>
                                <ellipse id="Oval" stroke="#A38CC2" fill="#8A76B5" cx="166.821917" cy="81.3841363" rx="1.3375" ry="1.34090734"></ellipse>
                                <ellipse id="Oval" stroke="#A38CC2" fill="#8A76B5" cx="166.821917" cy="99.0394163" rx="1.3375" ry="1.34090734"></ellipse>
                            </g>
                            <g id="Illustration-2" transform="translate(199.733333, 16.984826)" fill="#A38CC2">
                                <polygon id="Path" points="111.984417 67.3224879 57.4679167 67.3224879 57.4679167 50.1767527 22.2025 50.1767527 22.2025 33.5048048 62.7376667 33.5048048 62.7376667 2.5209058 2.00625 2.5209058 2.00625 2.22590619 63.0319167 2.22590619 63.0319167 33.7998044 22.49675 33.7998044 22.49675 49.8817531 57.7621667 49.8817531 57.7621667 67.0364277 111.984417 67.0364277"></polygon>
                                <path d="M62.88925,42.4710098 C59.3244522,42.4746207 56.1088289,40.3240725 54.7429734,37.022929 C53.377118,33.7217856 54.1302688,29.920771 56.6509628,27.3936554 C59.1716568,24.8665398 62.9630128,24.1114703 66.2557678,25.4808053 C69.5485228,26.8501404 71.6936063,30.0739556 71.6900045,33.6478349 C71.680189,38.5166573 67.7457003,42.4611692 62.88925,42.4710098 Z M62.88925,25.4057244 C58.348825,25.4057244 54.6680833,29.095843 54.6680833,33.6478349 C54.6680833,38.1998268 58.348825,41.8899454 62.88925,41.8899454 C67.429675,41.8899454 71.1104167,38.1998268 71.1104167,33.6478349 C71.1104167,29.095843 67.429675,25.4057244 62.88925,25.4057244 L62.88925,25.4057244 Z" id="Shape"></path>
                                <ellipse id="Oval" cx="62.88925" cy="34.023289" rx="1.23941667" ry="1.24257414"></ellipse>
                                <path d="M62.88925,35.3194994 C62.1722904,35.3146261 61.5922776,34.7331356 61.5874167,34.0143496 C61.5936336,33.6775537 61.7312848,33.356619 61.9708333,33.1204113 C62.2084176,32.8843297 62.5280227,32.7497536 62.8625,32.7449573 C63.1965932,32.7515844 63.5155474,32.8858864 63.7541667,33.1204113 L63.7541667,33.1204113 C64.1215283,33.4901171 64.2339139,34.0436711 64.0399281,34.5279261 C63.8459424,35.0121812 63.382878,35.3340419 62.8625,35.3463175 L62.88925,35.3194994 Z M62.88925,32.8343511 C62.4095127,32.8294852 61.9748423,33.1170268 61.7905969,33.5611283 C61.6063515,34.0052298 61.7094102,34.5169985 62.0510833,34.8546515 C62.5130787,35.3124997 63.2565047,35.3124997 63.7185,34.8546515 C64.0499771,34.5150157 64.1479093,34.0101258 63.9675443,33.5707027 C63.7871792,33.1312797 63.3631593,32.8417226 62.88925,32.8343511 L62.88925,32.8343511 Z" id="Shape"></path>
                                <ellipse id="Oval" cx="62.88925" cy="2.3689363" rx="1.64066667" ry="1.64484634"></ellipse>
                                <path d="M62.88925,4.07635832 C62.2004171,4.07635832 61.5794111,3.6603583 61.3158062,3.02233842 C61.0522012,2.38431854 61.1979098,1.64992589 61.6849882,1.16160662 C62.1720666,0.673287344 62.9045932,0.527207564 63.5409918,0.791484051 C64.1773904,1.05576054 64.5923333,1.67834856 64.5923333,2.3689363 C64.5923333,3.31191944 63.829837,4.07635832 62.88925,4.07635832 L62.88925,4.07635832 Z M62.88925,0.777700972 C62.2465019,0.774106058 61.6650324,1.15948821 61.4165572,1.75378689 C61.168082,2.34808556 61.3016635,3.03395441 61.7548801,3.4908927 C62.2080967,3.94783099 62.8914593,4.08561466 63.4856383,3.83985856 C64.0798172,3.59410246 64.4675,3.01333199 64.4675,2.3689363 C64.4482007,1.5075939 63.748608,0.818106723 62.88925,0.813483787 L62.88925,0.777700972 Z" id="Shape"></path>
                                <ellipse id="Oval" cx="62.88925" cy="2.3689363" rx="1.64066667" ry="1.64484634"></ellipse>
                                <path d="M62.88925,4.07635832 C62.2004171,4.07635832 61.5794111,3.6603583 61.3158062,3.02233842 C61.0522012,2.38431854 61.1979098,1.64992589 61.6849882,1.16160662 C62.1720666,0.673287344 62.9045932,0.527207564 63.5409918,0.791484051 C64.1773904,1.05576054 64.5923333,1.67834856 64.5923333,2.3689363 C64.5923333,3.31191944 63.829837,4.07635832 62.88925,4.07635832 L62.88925,4.07635832 Z M62.88925,0.777700972 C62.2465019,0.774106058 61.6650324,1.15948821 61.4165572,1.75378689 C61.168082,2.34808556 61.3016635,3.03395441 61.7548801,3.4908927 C62.2080967,3.94783099 62.8914593,4.08561466 63.4856383,3.83985856 C64.0798172,3.59410246 64.4675,3.01333199 64.4675,2.3689363 C64.4482007,1.5075939 63.748608,0.818106723 62.88925,0.813483787 L62.88925,0.777700972 Z" id="Shape"></path>
                                <ellipse id="Oval" cx="1.73875" cy="2.3689363" rx="1.64066667" ry="1.64484634"></ellipse>
                                <path d="M1.712,4.07635832 C1.02316709,4.07635832 0.402161108,3.6603583 0.138556166,3.02233842 C-0.125048775,2.38431854 0.0206598057,1.64992589 0.507738226,1.16160662 C0.994816646,0.673287344 1.72734315,0.527207564 2.36374178,0.791484051 C3.0001404,1.05576054 3.41508333,1.67834856 3.41508333,2.3689363 C3.4102076,3.30988727 2.65055994,4.07147016 1.712,4.07635832 L1.712,4.07635832 Z M1.712,0.813483787 C0.835432055,0.813483787 0.124833333,1.52589279 0.124833333,2.40469383 C0.124833333,3.28349488 0.835432055,3.99590388 1.712,3.99590388 C2.58856795,3.99590388 3.29916667,3.28349488 3.29916667,2.40469383 C3.29916667,1.52589279 2.58856795,0.813483787 1.712,0.813483787 L1.712,0.813483787 Z" id="Shape"></path>
                                <ellipse id="Oval" cx="22.4075833" cy="33.9428345" rx="1.23941667" ry="1.24257414"></ellipse>
                                <path d="M22.3986667,35.2479843 C22.0639202,35.2363074 21.7457277,35.0991361 21.507,34.8635909 C21.273071,34.6243637 21.1391102,34.3045969 21.1325,33.9696527 C21.1301245,33.62433 21.2652926,33.2923326 21.5080195,33.0473092 C21.7507464,32.8022857 22.0809633,32.6645028 22.4254167,32.6645028 C22.7617697,32.6688015 23.082592,32.8071066 23.3170833,33.0488963 L23.3170833,33.0488963 C23.6844449,33.4186021 23.7968305,33.972156 23.6028448,34.456411 C23.408859,34.9406661 22.9457946,35.2625269 22.4254167,35.2748025 L22.3986667,35.2479843 Z M22.3986667,32.7628361 C22.0880132,32.7600875 21.7892602,32.8824696 21.5694167,33.1025326 C21.3469651,33.3253365 21.2218804,33.6275906 21.2216667,33.9428345 C21.2180616,34.4253228 21.505671,34.8621503 21.949619,35.0484641 C22.3935669,35.2347778 22.9058064,35.1336269 23.2461198,34.7924466 C23.5864332,34.4512662 23.6873271,33.9377217 23.5014867,33.4926428 C23.3156464,33.0475639 22.879929,32.7592218 22.3986667,32.7628361 L22.3986667,32.7628361 Z" id="Shape"></path>
                                <rect id="Rectangle" x="21.85475" y="49.4437234" width="1" height="48.6481184"></rect>
                                <ellipse id="Oval" cx="22.4075833" cy="50.3197828" rx="1.23941667" ry="1.24257414"></ellipse>
                                <path d="M22.3986667,51.6249327 C22.0629302,51.6177562 21.7431506,51.4799007 21.507,51.2405392 C21.0062505,50.7293466 21.0062505,49.9102191 21.507,49.3990265 C21.7498012,49.1533619 22.080457,49.0151587 22.4254167,49.0151587 C22.7703763,49.0151587 23.1010322,49.1533619 23.3438333,49.3990265 L23.3438333,49.3990265 C23.5888736,49.6424462 23.7267256,49.9739444 23.7267256,50.3197828 C23.7267256,50.6656213 23.5888736,50.9971195 23.3438333,51.2405392 C23.0964652,51.4958517 22.7535432,51.635316 22.3986667,51.6249327 L22.3986667,51.6249327 Z M22.3986667,49.1397844 C22.0871195,49.1413856 21.7889146,49.2667579 21.5694167,49.4884203 C21.345781,49.7067545 21.2202603,50.0068357 21.2216667,50.3197828 C21.2192689,50.6334686 21.3425038,50.9350046 21.5637561,51.1568204 C21.7850083,51.3786363 22.085778,51.5021851 22.3986667,51.4997813 C22.7114674,51.5000285 23.0120802,51.3781946 23.2368333,51.1600848 C23.5693704,50.8192792 23.6666877,50.3122845 23.484063,49.8720895 C23.3014383,49.4318946 22.8741928,49.1436367 22.3986667,49.1397844 L22.3986667,49.1397844 Z" id="Shape"></path>
                                <ellipse id="Oval" cx="22.4075833" cy="98.0918417" rx="1.23941667" ry="1.24257414"></ellipse>
                                <path d="M22.3986667,99.3880522 C22.0629302,99.3808757 21.7431506,99.2430202 21.507,99.0036587 C21.1370487,98.6362579 21.0230527,98.082211 21.2177901,97.5980319 C21.4125275,97.1138527 21.877986,96.7940521 22.3986667,96.7866919 C22.733144,96.7914883 23.052749,96.9260644 23.2903333,97.162146 C23.5298819,97.3983537 23.6675331,97.7192883 23.67375,98.0560842 C23.6688891,98.7748703 23.0888763,99.3563607 22.3719167,99.361234 L22.3986667,99.3880522 Z M22.3986667,96.9029003 C21.8328743,96.9025183 21.3456071,97.3028917 21.2348769,97.8591565 C21.1241466,98.4154214 21.4207957,98.9726375 21.9433941,99.1900126 C22.4659925,99.4073877 23.0689774,99.2243749 23.3835644,98.7529044 C23.6981515,98.2814339 23.6367166,97.6528276 23.2368333,97.2515398 L23.2368333,97.2515398 C23.0151561,97.0276829 22.7133058,96.9021281 22.3986667,96.9029003 Z" id="Shape"></path>
                                <rect id="Rectangle" x="2.31833333" y="180.083856" width="16.9505833" height="1"></rect>
                                <ellipse id="Oval" cx="18.3950833" cy="180.235826" rx="1.23941667" ry="1.24257414"></ellipse>
                                <path d="M18.3950833,181.532036 C17.6781237,181.527163 17.0981109,180.945672 17.09325,180.226886 C17.0994669,179.89009 17.2371181,179.569156 17.4766667,179.332948 C17.714251,179.096866 18.033856,178.96229 18.3683333,178.957494 C18.889014,178.964854 19.3544725,179.284655 19.5492099,179.768834 C19.7439473,180.253013 19.6299513,180.80706 19.26,181.174461 C19.0263256,181.397716 18.7178035,181.525266 18.3950833,181.532036 Z M18.3950833,179.046888 C17.915346,179.042022 17.4806757,179.329563 17.2964303,179.773665 C17.1121848,180.217766 17.2152435,180.729535 17.5569167,181.067188 C18.018912,181.525036 18.762338,181.525036 19.2243333,181.067188 C19.5558104,180.727552 19.6537426,180.222662 19.4733776,179.783239 C19.2930126,179.343816 18.8689926,179.054259 18.3950833,179.046888 L18.3950833,179.046888 Z" id="Shape"></path>
                                <rect id="Rectangle" x="57.4679167" y="67.1794578" width="1" height="55.7370485"></rect>
                                <g id="Group" opacity="0.3" transform="translate(51.716667, 117.999846)">
                                    <path d="M5.80475,10.8702889 C3.68695014,10.8702889 1.77785174,9.59082417 0.968240327,7.62890097 C0.158628913,5.66697776 0.608071578,3.40927031 2.10685833,1.90922513 C3.60564507,0.409179963 5.85837858,-0.0375575671 7.81393313,0.777460325 C9.76948769,1.59247822 11.0424412,3.50861886 11.038841,5.63181084 C11.0290239,8.52434698 8.68994853,10.8653863 5.80475,10.8702889 Z M5.80475,1.55545252 C3.55916021,1.55545252 1.73875,3.3805003 1.73875,5.63181084 C1.73875,7.88312137 3.55916021,9.70816915 5.80475,9.70816915 C8.05033979,9.70816915 9.87075,7.88312137 9.87075,5.63181084 C9.87075,3.3805003 8.05033979,1.55545252 5.80475,1.55545252 Z" id="Shape"></path>
                                </g>
                                <ellipse id="Oval" cx="57.5214167" cy="123.631657" rx="1.23941667" ry="1.24257414"></ellipse>
                                <path d="M57.5214167,124.927867 C56.9940655,124.927855 56.5188154,124.608889 56.31785,124.12009 C56.1168846,123.631291 56.229908,123.069228 56.6040808,122.696671 C56.9782536,122.324115 57.5396515,122.214669 58.0258162,122.419501 C58.5119808,122.624333 58.826862,123.102975 58.82325,123.631657 C58.8232807,123.976988 58.6858173,124.308046 58.4414164,124.551391 C58.1970156,124.794736 57.8658618,124.930249 57.5214167,124.927867 Z M57.5214167,122.442719 C57.0409632,122.439097 56.6058059,122.726465 56.4194357,123.170442 C56.2330656,123.614418 56.3323148,124.127261 56.6707719,124.469151 C57.0092289,124.811041 57.5200048,124.91441 57.9642471,124.730922 C58.4084895,124.547433 58.6984167,124.113348 58.6984167,123.631657 C58.6984167,122.9785 58.1728955,122.44763 57.5214167,122.442719 L57.5214167,122.442719 Z" id="Shape"></path>
                            </g>
                            <g id="Illustration-3" transform="translate(161.391667, 92.075637)">
                                <line x1="39.5008333" y1="0.572120466" x2="39.5008333" y2="139.382848" id="Path" fill="#A38CC2"></line>
                                <path d="M39.5008333,139.516939 C39.4220407,139.516939 39.3581667,139.452902 39.3581667,139.373909 L39.3581667,0.563181084 C39.3581667,0.484187731 39.4220407,0.420150967 39.5008333,0.420150967 C39.579626,0.420150967 39.6435,0.484187731 39.6435,0.563181084 L39.6435,139.373909 C39.6435,139.452902 39.579626,139.516939 39.5008333,139.516939 Z" id="Path" fill="#A38CC2"></path>
                                <line x1="20.972" y1="125.821806" x2="20.972" y2="160.560245" id="Path" fill="#A38CC2"></line>
                                <path d="M20.972,160.694336 C20.8932074,160.694336 20.8293333,160.630299 20.8293333,160.551306 L20.8293333,125.821806 C20.8293333,125.742812 20.8932074,125.678775 20.972,125.678775 C21.0507926,125.678775 21.1146667,125.742812 21.1146667,125.821806 L21.1146667,160.551306 C21.1146667,160.630299 21.0507926,160.694336 20.972,160.694336 Z" id="Path" fill="#A38CC2"></path>
                                <g id="Group" opacity="0.3" transform="translate(15.158333, 119.787723)" fill="#CCCBCD">
                                    <path d="M5.59075,11.201046 C2.74436645,11.201046 0.436916667,8.88771788 0.436916667,6.03408304 C0.436916667,3.18044819 2.74436645,0.867120081 5.59075,0.867120081 C8.43713355,0.867120081 10.7445833,3.18044819 10.7445833,6.03408304 C10.739675,8.88567714 8.43509799,11.1961252 5.59075,11.201046 L5.59075,11.201046 Z M5.59075,2.0203004 C3.37963198,2.0203004 1.58716667,3.8173321 1.58716667,6.03408304 C1.58716667,8.25083398 3.37963198,10.0478657 5.59075,10.0478657 C7.80186802,10.0478657 9.59433333,8.25083398 9.59433333,6.03408304 C9.59433333,3.8173321 7.80186802,2.0203004 5.59075,2.0203004 L5.59075,2.0203004 Z" id="Shape"></path>
                                </g>
                                <line x1="20.7490833" y1="125.821806" x2="2.84441667" y2="125.821806" id="Path" fill="#A38CC2"></line>
                                <path d="M20.7490833,125.964836 L2.84441667,125.964836 C2.76562404,125.964836 2.70175,125.900799 2.70175,125.821806 C2.70175,125.742812 2.76562404,125.678775 2.84441667,125.678775 L20.7490833,125.678775 C20.827876,125.678775 20.89175,125.742812 20.89175,125.821806 C20.89175,125.900799 20.827876,125.964836 20.7490833,125.964836 L20.7490833,125.964836 Z" id="Path" fill="#A38CC2"></path>
                                <ellipse id="Oval" fill="#A38CC2" cx="1.40883333" cy="125.821806" rx="1.22158333" ry="1.22469537"></ellipse>
                                <line x1="20.972" y1="125.821806" x2="39.5008333" y2="125.821806" id="Path" fill="#A38CC2"></line>
                                <path d="M39.5008333,125.964836 L20.972,125.964836 C20.8932074,125.964836 20.8293333,125.900799 20.8293333,125.821806 C20.8293333,125.742812 20.8932074,125.678775 20.972,125.678775 L39.5008333,125.678775 C39.579626,125.678775 39.6435,125.742812 39.6435,125.821806 C39.6435,125.900799 39.579626,125.964836 39.5008333,125.964836 Z" id="Path" fill="#A38CC2"></path>
                                <ellipse id="Oval" fill="#A38CC2" cx="20.972" cy="125.821806" rx="1.22158333" ry="1.22469537"></ellipse>
                                <ellipse id="Oval" fill="#A38CC2" cx="39.5008333" cy="141.000877" rx="1.61391667" ry="1.61802819"></ellipse>
                                <g id="Group" opacity="0.3" transform="translate(12.483333, 153.757375)" fill="#CCCBCD">
                                    <path d="M8.26575,14.9645259 C5.24633619,14.9645259 2.52440201,13.1405602 1.36975712,10.3435325 C0.21511223,7.5465048 0.855272206,4.32754989 2.99159599,2.18834259 C5.12791977,0.0491352907 8.33945806,-0.588806942 11.127996,0.572122358 C13.9165339,1.73305166 15.7326074,4.4640986 15.7290054,7.49120235 C15.7240796,11.6200506 12.3841095,14.9645259 8.26575,14.9645259 L8.26575,14.9645259 Z M8.26575,0.58999923 C4.46400588,0.58999923 1.38208333,3.67977311 1.38208333,7.49120235 C1.38208333,11.3026316 4.46400588,14.3924055 8.26575,14.3924055 C12.0674941,14.3924055 15.1494167,11.3026316 15.1494167,7.49120235 C15.1445043,3.68181493 12.0654575,0.594924107 8.26575,0.58999923 L8.26575,0.58999923 Z" id="Shape"></path>
                                </g>
                                <ellipse id="Oval" fill="#A38CC2" cx="20.7490833" cy="161.373729" rx="1.22158333" ry="1.22469537"></ellipse>
                                <path d="M20.7490833,162.616303 C20.0837145,162.560569 19.5719904,162.00289 19.5719904,161.333502 C19.5719904,160.664114 20.0837145,160.106434 20.7490833,160.0507 C21.0833677,160.056419 21.4026436,160.190857 21.64075,160.426154 C22.1208867,160.924914 22.1208867,161.715271 21.64075,162.214031 C21.4069556,162.459183 21.0871517,162.603461 20.7490833,162.616303 L20.7490833,162.616303 Z M20.7490833,160.166912 C20.2801182,160.171405 19.8593051,160.45666 19.6804453,160.891305 C19.5015854,161.32595 19.599364,161.825698 19.92875,162.160395 C20.1475008,162.376611 20.4418997,162.49852 20.7490833,162.500091 C21.0565134,162.500091 21.351352,162.377654 21.5687379,162.159714 C21.7861239,161.941774 21.90825,161.646185 21.90825,161.337971 C21.9126794,161.028827 21.7901614,160.731449 21.5694167,160.515548 L21.5694167,160.515548 C21.3490436,160.304938 21.0533626,160.192164 20.7490833,160.20267 L20.7490833,160.166912 Z" id="Shape" fill="#A38CC2"></path>
                            </g>
                        </g>
                        <g id="Layer_3" transform="translate(55.000000, 0.000000)" fill-rule="nonzero">
                            <g id="Illustration-4" transform="translate(0.000000, 66.060995)">
                                <path d="M31.4589588,0.383867943 C31.4589588,0.383867943 28.9072679,26.5047424 57.189996,56.2232629 L66.3707302,66.8733666 C66.3707302,66.8733666 57.38628,29.5399773 44.4226194,14.9797769 L31.4589588,0.383867943 Z" id="Path" fill="#836CE1"></path>
                                <path d="M71.2421401,11.0607531 C71.2421401,11.0607531 51.6137484,26.370835 66.5313261,66.5876974 C66.5313261,66.5876974 74.8644706,60.1244325 72.0094318,41.0827971 C69.154393,22.0411617 64.470345,18.5506415 71.2421401,11.0607531 Z" id="Path" fill="#836CE1"></path>
                                <path d="M0.535319776,42.7075405 C0.535319776,42.7075405 39.8902453,38.8420795 66.6562341,66.5162801 C66.6562341,66.5162801 23.786042,69.6586409 0.535319776,42.7075405 Z" id="Path" fill="#836CE1"></path>
                                <path d="M36.6694046,12.4176816 C36.6694046,12.4176816 57.0383221,44.5554629 60.0718008,55.7233419" id="Path" fill="#3CB889"></path>
                                <path d="M60.3573047,64.9897355 C60.289293,64.9926865 60.2225826,64.9704368 60.1699428,64.9272454 C52.0330822,58.0890397 40.0954512,54.2949961 31.5214128,52.304239 C25.9766588,51.0151243 20.347694,50.1201735 14.6766838,49.6260906 C14.53594,49.6012934 14.4333164,49.4789497 14.4333164,49.3359579 C14.4333164,49.192966 14.53594,49.0706223 14.6766838,49.0458251 C20.3823615,49.5453717 26.0465473,50.4402346 31.6284767,51.7239735 C40.2649691,53.7236577 52.2828981,57.55341 60.5089786,64.463033 C60.6037624,64.5388089 60.6403321,64.6662468 60.6001635,64.7807936 C60.5599949,64.8953405 60.4518619,64.9719761 60.3305387,64.9718812 L60.3573047,64.9897355 Z" id="Path" fill="#3CB889"></path>
                                <path d="M66.4777941,30.7272898 C66.4777941,30.7272898 63.8011953,50.0724487 64.550643,63.4007008" id="Path" fill="#3CB889"></path>
                            </g>
                            <g id="Illustration-5" transform="translate(71.375970, 0.000000)">
                                <path d="M44.9044072,88.2985541 C41.5586586,93.654851 34.8225514,95.7527339 28.55931,96.475834 C20.9845352,97.3685501 12.7406107,96.6186686 6.74502917,91.9051273 C0.749447686,87.1915861 -1.73086727,77.5591788 3.17623067,71.7118881 C5.68331162,68.7123618 9.546536,67.2483073 12.4372628,64.5701589 C15.3279896,61.8920105 16.9964029,56.9731445 14.1502861,54.2949961 C13.0707245,53.2862268 11.5896731,52.8577231 10.2335297,52.2596032 C6.66473121,50.6794957 3.50634453,46.4301668 5.46918371,43.0467726 C7.03053305,40.3686242 10.7420835,40.0204649 13.3294624,38.2885955 C17.4335807,35.5568841 17.7904605,28.7276056 14.0699881,25.540609 C13.0171925,24.6478928 11.6967371,23.9872829 11.0811194,22.7553346 C9.95694783,20.5235442 11.812723,17.8900316 13.9093922,16.5063216 C16.0060613,15.1226115 18.5488302,14.2120411 19.8960517,12.105231 C21.3146491,9.86451342 20.9488472,6.95425878 21.6804509,4.41894493 C22.4120546,1.88363107 25.7845692,-0.321377813 27.6046564,1.60688906 C28.728828,2.79420154 28.4076361,4.72246842 29.0232538,6.24008587 C30.8076531,10.5786863 39.0158897,9.71275168 39.7296494,14.3459485 C40.1579052,17.0687327 37.4277743,19.0951984 35.1883533,20.7110146 C32.9489322,22.3268308 30.7273551,25.2549398 32.2440945,27.5492203 C32.7897946,28.2530153 33.5181257,28.793404 34.3496856,29.1114735 C36.9281425,30.2720045 39.8545573,30.5933824 42.3081063,31.9949467 C44.7616552,33.3965111 46.6798844,36.5299447 45.341585,39.0206228 C43.3341358,42.7432491 36.5088087,41.3773934 34.7868634,45.2696358 C33.8946638,47.2068298 34.9474594,49.5278918 36.5177307,50.9473105 C38.088002,52.3667292 40.0865292,53.1523194 41.9512264,54.2057244 C48.0089832,57.7740793 51.8753543,64.1435404 52.2472101,71.1673312 C52.541636,78.0501727 50.5074208,84.3973845 44.8597972,88.3342627" id="Path" fill="#B88DFC"></path>
                                <path d="M25.0708095,17.193713 L22.6351045,111.821625 C22.6351045,111.821625 23.857418,114.25874 26.4358749,111.821625 L25.0708095,17.193713 Z" id="Path" fill="#7E50D7"></path>
                                <path d="M25.1421855,21.9965259 C25.076765,21.9989519 25.0131753,21.9746325 24.9660504,21.9291644 C24.9189255,21.8836962 24.8923695,21.8209957 24.8923695,21.7554925 C24.8969733,21.6243289 25.0021757,21.5190656 25.1332635,21.5144591 L25.1332635,21.5144591 C29.2730697,21.5144591 32.3333145,17.1044414 32.3600804,17.0508784 C32.3944938,16.9948409 32.451052,16.9560429 32.5156975,16.9441276 C32.580343,16.9322123 32.6470056,16.9482986 32.6991163,16.9883883 C32.8058941,17.063401 32.833582,17.2098359 32.7615703,17.3186932 C32.1419304,18.1769595 31.4231972,18.9590344 30.6202912,19.6486824 C29.1371381,21.0669393 27.1915068,21.9008111 25.1421855,21.9965259 L25.1421855,21.9965259 Z" id="Path" fill="#7E50D7"></path>
                                <path d="M25.1511075,42.073712 C25.0349363,42.0722586 24.9351003,41.9908636 24.9102136,41.8773144 C24.9000134,41.8132795 24.9160292,41.7478332 24.9546434,41.6957578 C24.9932577,41.6436824 25.0512131,41.6093706 25.1154195,41.6005724 C25.1867954,41.6005724 31.9585906,40.6096575 33.2790461,35.2979964 C33.2917047,35.2355644 33.3294522,35.1810823 33.3834418,35.1473193 C33.4374313,35.1135563 33.5029167,35.1034805 33.5645499,35.1194532 C33.6289849,35.1318379 33.6851643,35.1709464 33.7191716,35.227091 C33.753179,35.2832356 33.7618329,35.3511641 33.7429899,35.4140495 C33.0510556,37.8777459 31.2788392,39.8939882 28.9251119,40.8953267 C27.7409107,41.4647803 26.4824403,41.8644783 25.1867954,42.0826392 L25.1511075,42.073712 Z" id="Path" fill="#7E50D7"></path>
                                <path d="M24.7050076,70.5781386 L24.6247097,70.5781386 C24.4916677,70.5781386 24.3838158,70.4702243 24.3838158,70.3371052 C24.3838158,70.2039862 24.4916677,70.0960719 24.6247097,70.0960719 L24.7050076,70.0960719 C27.8990823,70.0960719 32.2976265,69.5782965 35.2418852,67.1411814 C36.2279407,66.3856013 36.9771719,65.3633309 37.4010083,64.1952181 C37.4358126,64.0672698 37.5673708,63.9914802 37.6954342,64.0256021 C37.8238405,64.060571 37.902309,64.1901191 37.8738741,64.3201984 C37.4427142,65.5723209 36.65879,66.6729304 35.6166091,67.4893407 C32.5295984,70.0425089 27.9972243,70.5781386 24.7050076,70.5781386 Z" id="Path" fill="#7E50D7"></path>
                                <path d="M23.4113182,85.2008291 C17.2870409,85.0778149 11.6786645,81.7413573 8.64541438,76.4165022 C8.58580001,76.3004553 8.62929888,76.158013 8.74355634,76.0951244 C8.86216592,76.0346097 9.00736526,76.0778021 9.0736702,76.1933231 C9.0736702,76.2647404 12.6424687,82.8619128 20.1458676,84.3973845 C26.6946128,85.7364587 34.2336997,82.9511844 42.5490002,76.1219058 C42.5928687,76.0749161 42.6542536,76.048241 42.7185181,76.048241 C42.7827826,76.048241 42.8441675,76.0749161 42.888036,76.1219058 C42.9810231,76.2158445 42.9810231,76.3671993 42.888036,76.461138 C35.803971,82.2816473 29.2819917,85.2008291 23.4113182,85.2008291 Z" id="Path" fill="#7E50D7"></path>
                            </g>
                        </g>
                        <g id="Layer_2" transform="translate(20.000000, 126.000000)" fill-rule="nonzero">
                            <path d="M260.431565,23.1266129 C260.69,23.1266129 260.672177,23.658871 261.14449,23.7209677 C258.943333,26.4354839 257.428367,30.0282258 255.289592,32.5919355 C254.220204,33.8604839 252.936939,34.9516129 251.840816,36.2024194 C251.072466,37.0283595 250.41905,37.9532964 249.898095,38.9524194 C248.49898,41.8887097 247.117687,44.8427419 245.941361,47.8677419 C244.762503,51.2557105 242.616234,54.2276848 239.765646,56.4193548 C239.391361,56.7032258 239.025986,57.0048387 238.669524,57.3064516 C237.212656,58.6013205 235.530481,59.6204581 233.705782,60.3137097 C231.495714,61.1298387 229.374762,62.1854839 227.218163,63.1524194 C223.995791,64.7323944 221.057153,66.8304226 218.520476,69.3620968 C214.574865,72.964383 210.436854,76.3521038 206.12449,79.5104839 C204.463033,80.8675716 202.512383,81.8293515 200.421088,82.3225806 C197.821208,82.8711471 195.395282,84.0435639 193.354218,85.7379032 C190.680748,87.9024194 187.90034,89.9870968 185.16449,92.0983871 C184.80472,92.4027806 184.398634,92.6483168 183.961429,92.8258065 C179.505646,94.2362903 174.960748,95.4870968 170.18415,95.3451613 C168.357279,95.2830645 166.530408,95.1145161 164.712449,95.1233871 C160.507231,95.1484756 156.430507,96.568829 153.127415,99.1596774 C150.457654,101.209863 147.560245,102.948128 144.492109,104.340323 C142.565066,105.267878 140.696164,106.310644 138.895646,107.462903 C136.403764,109.022906 133.524771,109.861475 130.581156,109.884677 C129.953495,109.879021 129.328562,109.801633 128.718639,109.654032 C125.182601,108.809288 121.887466,107.170743 119.085238,104.86371 C115.791858,102.073989 111.777915,100.260575 107.500204,99.6298387 C106.619077,99.4621317 105.72382,99.378955 104.826735,99.3814516 C100.854569,99.5396003 96.9470393,98.3442049 93.7496599,95.9927419 C91.4772109,94.4137097 89.1512925,92.8879032 87.0481633,91.1048387 C85.7376954,89.8836857 84.5824674,88.5073024 83.6082993,87.0064516 C79.3485714,81.0540323 73.8055782,76.7782258 66.6763265,74.9951613 C63.5572789,74.2233871 60.2778231,74.1080645 57.087483,73.5491935 C54.877415,73.1854839 52.7029932,72.6620968 50.5107483,72.2451613 C50.3236054,72.041129 49.2453061,72.1387097 49.1829252,71.8991935 C48.6304082,70.0096774 50.2790476,72.4935484 49.1829252,71.3048387 C49.1027211,71.3935484 49.2631293,70.9766129 49.1829252,71.0653226 C50.0740816,72.058871 48.2917687,70.941129 49.2987755,72.0233871 C48.937103,71.9948148 48.5771787,71.9474383 48.2204762,71.8814516 C43.689437,71.6673064 39.37652,69.8815826 36.0294558,66.833871 C35.7535511,66.5452433 35.4556083,66.2783163 35.1382993,66.0354839 C31.0122449,63.4806452 28.1961905,59.6040323 25.0682313,56.0733871 C21.8227607,52.3204921 17.4840611,49.6665022 12.6544218,48.4798387 C10.6054129,48.0819187 8.79998093,46.8880368 7.63721088,45.1620968 L3.00319728,37.8879032 C2.76258503,36.841129 1.80013605,33.8959677 1.55952381,32.8491935 C2.70020408,33.7362903 4.53598639,34.2685484 5.67666667,35.1556452 C5.67666667,36.0427419 7.77979592,39.0854839 8.54619048,39.325 C9.21427728,39.4873622 9.86048811,39.7285873 10.4710884,40.0435484 C12.2534014,41.2056452 15.0338095,40.9306452 16.9408844,41.9508065 C19.5430612,43.3258065 22.0382993,44.55 24.7295918,45.7653226 C27.1713605,46.8741935 27.9110204,48.5330645 29.7557143,50.4225806 C30.7181633,51.3895161 29.8893878,50.041129 30.7181633,51.1322581 C31.1280952,51.6822581 29.7378912,52.6846774 30.7181633,52.3298387 C29.8270068,49.9080645 30.8518367,51.9040323 29.1586395,49.6685484 C27.8040816,47.8943548 26.1554422,43.7782258 25.0860544,41.8 C28.6506803,42.35 33.997619,43.3169355 36.4215646,46.3596774 C37.6602721,47.9209677 39.157415,49.2693548 40.5387075,50.7153226 C41.1803401,51.9483871 42.472517,51.2032258 43.2121769,52.3919355 C44.3528571,54.2370968 45.154898,56.3483871 47.0887075,57.6346774 C47.6946939,58.025 48.2115646,58.5217742 48.817551,58.9387097 C50.7602721,60.1983871 52.5871429,61.8217742 54.7170068,62.5669355 C57.8121854,63.5108829 60.9764176,64.2138083 64.1810884,64.6693548 C66.6495918,65.1129032 69.2339456,65.1040323 71.4172789,66.541129 C73.4669388,67.8806452 75.4542177,69.3177419 77.4682313,70.7104839 C77.7890476,70.9322581 77.9405442,69.2201613 78.2880952,69.4685484 C78.742585,67.8983871 79.3218367,68.3774194 79.7941497,66.7451613 C80.2123998,67.0008343 80.6035374,67.2980524 80.9615646,67.6322581 C81.977483,68.8298387 82.9310204,70.0717742 83.9291156,71.2782258 C84.1733186,71.5552556 84.4384698,71.8132676 84.7222449,72.05 C85.1428807,72.3558309 85.5310601,72.7036008 85.8807483,73.0879032 C88.9908844,77.5233871 92.2792517,81.8612903 96.5746259,85.3387097 C98.3569388,86.7669355 100.094694,88.1774194 102.438435,88.6120968 C104.104898,88.9225806 103.071156,88.4701613 103.142449,86.7669355 C103.142449,85.7024194 103.748435,85.8798387 103.855374,84.8596774 C103.855374,84.5580645 105.521837,82.8370968 105.637687,82.5443548 C105.915062,82.6587603 106.173451,82.8142839 106.404082,83.0056452 C107.295238,84.0701613 108.266599,85.1258065 109.13102,86.2435484 C112.392653,90.4927419 116.30483,94.1387097 120.029864,97.9443548 C122.943946,100.916129 126.722449,101.492742 130.723741,101.031452 C131.436667,100.960484 131.008912,98.45 131.16932,97.7403226 C131.721837,95.2387097 132.167415,96.3032258 132.728844,93.8016129 C132.826871,93.3403226 133.682381,91.3177419 134.413129,91.2201613 C135.015316,91.1154391 135.61756,91.404484 135.910272,91.9387097 C137.006395,93.5 138.155986,95.0346774 139.31449,96.5516129 C139.530144,96.9240108 139.891256,97.1907333 140.311807,97.2882468 C140.732358,97.3857602 141.174701,97.3053351 141.533469,97.066129 C142.655804,96.206676 143.72145,95.2762612 144.72381,94.2806452 C147.263605,91.6193548 149.732109,88.833871 152.227347,86.1016129 C152.391772,85.9553868 152.51989,85.7731947 152.601633,85.5693548 C152.980531,84.2359594 153.765056,83.0521361 154.847347,82.1806452 C155.259171,81.8415471 155.622025,81.4475092 155.925646,81.0096774 C156.709864,79.5548387 157.413878,78.0556452 158.144626,76.5741935 L164.177755,76.2193548 C164.061905,76.5653226 165.478844,78.3040323 165.443197,78.658871 C165.34517,79.4927419 165.559048,82.1185484 165.443197,82.9524194 C165.068912,85.6137097 165.371905,84.5314516 167.22551,86.2879032 C167.475034,86.5185484 167.537415,88.3814516 167.831497,88.3193548 C170.005918,87.8403226 170.611905,87.4322581 172.287279,85.6580645 C173.329932,84.5758065 175.183537,83.058871 176.333129,82.1096774 C178.122939,80.5359607 179.731003,78.768603 181.127551,76.8403226 C181.419725,76.4595632 181.867454,76.2285854 182.348435,76.2104839 C182.799636,76.3429209 183.168515,76.6678749 183.355442,77.0975806 C183.97034,78.7919355 185.191224,79.758871 185.708095,81.4443548 C185.966531,82.3314516 185.859592,82.0475806 186.545782,81.4443548 C186.804218,81.2225806 186.92898,79.9185484 187.142857,79.6701613 C188.595442,77.9403226 189.994558,77.1508065 191.464966,75.4475806 C193.338674,73.3328614 194.921027,70.979094 196.170272,68.4483871 C196.740612,67.2685484 197.426803,66.1508065 198.032789,64.9887097 C198.451633,64.1903226 198.825918,63.3741935 199.218027,62.5580645 C199.963164,61.8919088 201.092891,61.8919088 201.838027,62.5580645 C203.486667,63.9951613 206.160136,67.2951613 205.964082,69.5572581 C205.883878,70.4443548 204.921429,72.9903226 205.001633,73.8508065 C205.081837,74.7112903 204.520408,74.3475806 205.242245,73.7266129 C205.456122,73.5403226 205.732381,72.9370968 205.964082,72.7774194 C208.076122,71.216129 209.270272,69.6637097 211.471429,68.2443548 C212.291293,67.7120968 213.405238,65.2903226 213.81517,64.4209677 C215.330136,61.2392473 216.815397,58.0427419 218.270952,54.8314516 C218.333333,54.6895161 218.270952,54.4766129 218.226395,54.2991935 L219.117551,53.7403226 C219.358163,54.8846774 220.516667,56.0733871 221.630612,55.9580645 C221.871791,55.9179749 222.095319,55.8067195 222.272245,55.6387097 C223.406471,54.4714329 224.615001,53.3780434 225.89034,52.3653226 C227.466293,51.2843026 229.139987,50.3517789 230.889728,49.5798387 C232.101701,49.0209677 233.491905,48.8524194 234.766259,48.408871 C237.386259,47.5217742 239.427007,45.9604839 240.113197,43.0862903 C240.30034,42.2967742 240.612245,41.533871 240.808299,40.7443548 C241.102381,39.5733871 241.342993,38.3935484 241.601429,37.1959677 C244.194694,32.3612903 248.222721,30.2766129 252.758707,26.95 C253.418163,26.4709677 254.478639,26.4443548 255.155918,26.0008065 C254.959864,26.5774194 256.047075,24.9451613 255.877755,25.5217742 C256.768912,25.0072581 255.966871,25.3620968 256.715442,24.6879032 C257.028137,24.1890273 257.307955,23.6704629 257.553129,23.1354839 C258.702721,22.6564516 259.255238,23.7120968 260.431565,23.1266129 Z" id="Path" fill="#988976"></path>
                            <path d="M158.10898,79.3685484 C157.378231,80.85 156.674218,83.5467742 155.89,85.0016129 C155.586379,85.4394447 155.223524,85.8334825 154.811701,86.1725806 C153.727648,87.0424784 152.942719,88.2269092 152.565986,89.5612903 C152.484244,89.7651302 152.356125,89.9473222 152.191701,90.0935484 C149.696463,92.8258065 147.227959,95.5846774 144.688163,98.2725806 C143.685803,99.2681967 142.620157,100.198612 141.497823,101.058065 C141.138302,101.294644 140.696827,101.373537 140.27709,101.276212 C139.857352,101.178887 139.496339,100.913921 139.278844,100.543548 C138.12034,99.0266129 136.970748,97.4919355 135.874626,95.9306452 C135.581913,95.3964195 134.979669,95.1073746 134.377483,95.2120968 C133.646735,95.3096774 133.771497,95.8951613 133.673469,96.3564516 C133.112041,98.8580645 132.541701,101.359677 131.989184,103.870161 C131.897707,104.519868 131.346974,105.008014 130.688095,105.023387 C126.713537,105.440323 122.935034,104.899194 119.994218,101.93629 C116.269184,98.1217742 112.357007,94.4758065 109.095374,90.2354839 C108.204218,89.1177419 107.313061,88.0532258 106.368435,86.9975806 C106.137805,86.8062194 105.879416,86.6506958 105.602041,86.5362903 C105.405301,86.8029505 105.260237,87.1037908 105.174286,87.4233871 C105.058435,88.4790323 104.996054,89.5435484 104.960408,90.6080645 C104.889116,92.3112903 104.069252,92.9233871 102.367143,92.6217742 C100.023401,92.1782258 98.2589116,90.7766129 96.5033333,89.3483871 C92.252517,85.8709677 88.9641497,81.5596774 85.8094558,77.0975806 C85.4599519,76.7104466 85.0717852,76.3597158 84.6509524,76.0508065 C84.3651567,75.8195389 84.0998084,75.5643029 83.8578231,75.2879032 C82.8597279,74.0725806 81.9061905,72.8395161 80.8902721,71.6419355 C80.5345873,71.3049865 80.1431481,71.0075392 79.7228571,70.7548387 L78.3861224,75.4120968 L77.3969388,74.7112903 C75.3829252,73.3185484 73.3956463,71.8903226 71.3459864,70.5508065 C69.1626531,69.1137097 66.5782993,69.1137097 64.1097959,68.6701613 C60.9043497,68.2188473 57.739787,67.5158485 54.6457143,66.5677419 C52.5158503,65.8314516 50.6889796,64.2080645 48.7462585,62.9483871 C48.1402721,62.5580645 47.6234014,62.0612903 47.017415,61.6354839 C45.0836054,60.3580645 44.2815646,58.2467742 43.1408844,56.3927419 C42.4012245,55.2129032 41.5902721,52.0193548 40.9397279,50.7862903 C45.707415,53.9532258 51.0989116,54.9467742 56.6864626,55.3459677 C58.6559184,55.4879032 60.6164626,55.825 62.5859184,56.091129 C65.1819046,56.3486275 67.7424369,56.8839789 70.2231293,57.6879032 C73.5471429,58.8943548 76.5859864,60.4467742 78.4663265,63.5870968 C80.3466667,66.7274194 84.454898,70.116129 87.4491837,72.2806452 C92.109932,75.6782258 97.9826531,76.716129 103.258299,78.9604839 C106.660235,80.4588162 110.140788,81.7736246 113.68483,82.8991935 C114.42449,83.1298387 116.144422,79.5193548 116.919728,79.5637097 C119.406054,79.6967742 119.994218,84.4870968 122.471633,84.6290323 C125.906865,84.7725372 129.344674,84.4138841 132.675374,83.5645161 C136.712313,82.5975806 140.695782,81.4887097 144.812925,80.8233871 C149.250884,80.0959677 153.697755,79.8298387 158.10898,79.3685484 Z" id="Path" fill="#AC967C"></path>
                            <path d="M199.164558,66.6120968 C198.772449,67.4193548 198.398163,68.2443548 197.97932,69.0427419 C197.373333,70.1959677 196.687143,71.3225806 196.116803,72.5024194 C194.863294,75.0306757 193.281303,77.3839052 191.411497,79.5016129 C189.941088,81.2048387 188.506327,82.9435484 187.053741,84.6733871 C186.843291,84.9461007 186.610817,85.2012499 186.358639,85.4362903 C185.672449,86.0395161 185.209048,85.8620968 184.950612,85.0016129 C184.433741,83.2717742 183.916871,81.5419355 183.301973,79.8475806 C183.115045,79.4178749 182.746167,79.0929209 182.294966,78.9604839 C181.813985,78.9785854 181.366256,79.2095632 181.074082,79.5903226 C179.675198,81.5167209 178.067358,83.2838334 176.27966,84.8596774 C175.178753,85.8847929 174.134564,86.9686457 173.151701,88.1064516 C171.49415,89.8096774 169.266259,90.208871 167.091837,90.6879032 C166.722199,90.6850914 166.369115,90.5349158 166.111565,90.2709677 C164.210891,88.6913652 163.269654,86.2432074 163.625238,83.8040323 C163.741088,82.9701613 163.723265,82.1185484 163.812381,81.2846774 C163.812381,80.9298387 164.026259,77.9758065 164.142109,77.6298387 C165.639252,77.4258065 167.127483,76.7427419 168.597891,76.5564516 C170.068299,76.3701613 171.77932,76.8048387 173.356667,76.6185484 C176.608134,76.2305505 179.759425,75.2470627 182.651429,73.7177419 C184.807628,72.6741233 186.891606,71.488704 188.889524,70.1693548 C196.678231,64.3322581 196.802993,64.8467742 197.542653,64.8467742 C197.991006,64.6232573 198.459429,64.4420877 198.941769,64.3056452 C199.013061,64.3233871 199.093265,66.541129 199.164558,66.6120968 Z" id="Path" fill="#AC967C"></path>
                            <path d="M199.164558,66.6120968 L198.594218,66.0620968 C200.333104,64.7841185 202.280695,63.814759 204.351088,63.1967742 C208.967279,62.0612903 212.478435,61.0943548 216.452993,58.4330645 C217.050068,58.025 217.736259,57.7056452 218.36898,57.3596774 C218.36898,57.5370968 218.787823,58.3620968 218.725442,58.4951613 C217.237211,61.6975806 215.757891,64.9 214.26966,68.0846774 C213.790872,68.8834502 213.096049,69.5320712 212.264558,69.9564516 C210.05449,71.3758065 207.987007,72.9991935 205.866054,74.5604839 C205.643265,74.7201613 205.473946,74.9596774 205.260068,75.1459677 C204.538231,75.7669355 204.101565,75.6604839 204.012449,74.7290323 C203.968093,73.8612025 204.003889,72.9911514 204.119388,72.1298387 C204.332435,70.0108553 203.466044,67.9263375 201.811293,66.5766129 C201.051385,65.9085297 199.906116,65.923884 199.164558,66.6120968 Z" id="Path" fill="#AC967C"></path>
                            <path d="M27.3495918,42.5008065 C28.4189796,44.4790323 29.7378912,48.0717742 31.092449,49.8370968 C32.7856463,52.0370968 32.8747619,54.6540323 33.7659184,57.0758065 C32.7856463,57.4306452 32.3757143,56.8451613 31.9836054,56.3040323 C31.2245719,55.1570083 30.3910499,54.0605861 29.4883673,53.0217742 C27.6685159,51.0890305 25.5013404,49.5124242 23.0987755,48.3733871 C20.4253061,47.1580645 17.6894558,46.0048387 15.0783673,44.6298387 C13.1712925,43.6274194 11.4513605,42.2967742 9.6244898,41.1346774 C9.11747944,40.7855678 8.56606674,40.5051511 7.9847619,40.3008065 C7.20945578,40.0612903 5.23108844,36.8854839 5.19544218,36.0072581 C8.66204082,37.2314516 12.0573469,38.7572581 15.6130612,39.5556452 C17.7518367,40.0524194 19.6767347,41.0193548 21.7620408,41.516129 C23.6067347,41.9774194 25.4870748,42.1725806 27.3495918,42.5008065 Z" id="Path" fill="#AC967C"></path>
                            <path d="M242.92034,40.5225806 C242.661905,41.7024194 242.421293,43.6008065 242.127211,44.7717742 C241.931156,45.5612903 241.619252,46.3153226 241.432109,47.1137097 C240.745918,49.9879032 238.70517,51.5491935 236.08517,52.4362903 C234.810816,52.8798387 233.411701,53.0483871 232.199728,53.6072581 C230.455788,54.3816178 228.785535,55.3109172 227.209252,56.383871 C225.938187,57.4015777 224.729961,58.4946925 223.591156,59.6572581 C223.414729,59.8276117 223.191378,59.9418665 222.949524,59.9854839 C221.835578,60.1008065 219.839388,57.8387097 219.598776,56.6943548 C221.612789,55.5677419 223.564422,54.2814516 225.667551,53.3322581 C230.925374,50.9637097 235.407891,47.5129032 239.667619,43.7427419 C240.808299,42.7314516 241.842041,41.6137097 242.92034,40.5225806 Z" id="Path" fill="#AC967C"></path>
                            <path d="M257.223401,25.8677419 C257.089728,26.0983871 257.009524,26.8524194 256.831293,27.0209677 C256.09021,27.7273671 255.267569,28.3437699 254.380612,28.8572581 C254.576667,28.2806452 254.772721,27.225 254.968776,26.6483871 L257.223401,25.8677419 Z" id="Path" fill="#AA957C"></path>
                            <path d="M2.60217687,33.8604839 C2.84278912,34.8983871 2.80714286,36.858871 3.0477551,37.9056452 C2.50414966,36.3532258 1.71993197,34.091129 1.17632653,32.5830645 C1.4347619,33.0532258 2.25462585,33.3548387 2.60217687,33.8604839 Z" id="Path" fill="#AC9980"></path>
                            <path d="M66.7119728,98.2104839 C63.8029876,98.1850145 61.1966913,96.4153984 60.1111935,93.7287043 C59.0256956,91.0420102 59.6753773,87.9688484 61.7565955,85.9455282 C63.8378138,83.922208 66.9395371,83.3483263 69.6121074,84.4920992 C72.2846776,85.6358721 74.0002739,88.2714096 73.9570748,91.1669355 C73.9430633,93.0600241 73.1697908,94.869071 71.8092079,96.1918034 C70.448625,97.5145359 68.6135246,98.2412988 66.7119728,98.2104839 Z" id="Path" fill="#AC967C"></path>
                            <path d="M203.246054,100.08227 C201.531888,100.087035 200.137012,98.7102497 200.12721,97.0039129 C200.117511,95.2975762 201.496562,93.9050837 203.210672,93.8904486 C204.924783,93.8758135 206.327626,95.2445543 206.347279,96.9508065 C206.354396,97.7757961 206.031373,98.5696836 205.449521,99.157207 C204.867668,99.7447304 204.074837,100.077574 203.246054,100.08227 L203.246054,100.08227 Z" id="Path" fill="#AC967C"></path>
                            <path d="M48.2115646,71.8903226 L48.9423129,71.775 L46.1262585,68.7145161 L46.3668707,68.4572581 C47.4629932,69.6459677 49.4413605,69.7435484 49.9938776,71.6330645 C50.0562585,71.8725806 50.3503401,72.041129 50.537483,72.2451613 L48.2115646,71.8903226 Z" id="Path" fill="#AC967C"></path>
                            <path d="M148.511224,0.700806452 C148.511224,0.700806452 150.810408,0.594354839 152.824422,0.594354839 L155.854354,0.762903226 L162.092449,0.762903226 C162.636603,0.73634894 163.182027,0.754150239 163.723265,0.816129032 L165.042177,0.816129032 L165.844218,0.887096774 L173.632925,0.975806452 L174.951837,1.02903226 C179.960136,1.17096774 184.986259,1.10887097 189.976735,1.49919355 C195.626667,1.9516129 201.249864,2.71451613 206.86415,3.52177419 C213.726054,4.49758065 220.552313,5.71290323 227.405306,6.73306452 C232.698776,7.51370968 238.036803,8.0016129 243.223333,9.39435484 C249.592681,11.034529 255.40312,14.3462189 260.048367,18.983871 C261.982177,20.9266129 262.098027,22.3548387 260.663265,24.5637097 L257.223401,26.3379032 L254.968776,27.1096774 C254.282585,27.5620968 253.587483,27.9967742 252.928027,28.4669355 C248.392041,31.7935484 245.513605,36.3975806 242.92034,41.2322581 C241.842041,42.3056452 240.808299,43.4322581 239.667619,44.4435484 C235.407891,48.2225806 230.925374,51.6733871 225.667551,54.0419355 C223.564422,54.991129 221.612789,56.2685484 219.598776,57.4040323 L218.707619,57.9629032 C218.074898,58.308871 217.415442,58.6282258 216.818367,59.0274194 C212.859066,61.6133207 208.472802,63.4841557 203.860952,64.5540323 C202.149932,64.9709677 200.403265,65.2725806 198.968503,66.3903226 C198.485852,66.5296192 198.01742,66.7137622 197.569388,66.9403226 C194.720013,68.4641448 191.980527,70.1833445 189.370748,72.0854839 C187.236068,73.6197053 185.010047,75.0238863 182.704898,76.2903226 C179.812894,77.8196434 176.661604,78.8031311 173.410136,79.191129 C171.832789,79.3774194 170.237619,79.4306452 168.651361,79.5991935 C167.065102,79.7677419 165.665986,79.9983871 164.195578,80.2024194 L158.162449,80.5572581 C153.751224,81.0185484 149.304354,81.2846774 144.937687,81.9943548 C140.85619,82.6596774 136.837075,83.7685484 132.800136,84.7354839 C129.469793,85.5863213 126.031327,85.9420536 122.596395,85.791129 C120.11898,85.6580645 117.632653,85.5693548 115.155238,85.4274194 C114.368192,85.4202808 113.584651,85.3220401 112.820408,85.1346774 C108.997347,83.9637097 105.094082,82.9967742 101.422517,81.4709677 C96.1117293,79.3120144 91.0722917,76.5432745 86.4065306,73.2209677 C83.3750993,71.179903 80.7969261,68.5410109 78.8317007,65.4677419 C76.9513605,62.3274194 73.912517,60.775 70.5885034,59.5774194 C68.1092449,58.7664196 65.5482569,58.2279982 62.9512925,57.9717742 C60.9818367,57.7056452 59.0212925,57.3685484 57.0518367,57.2266129 C51.4642857,56.8362903 46.0727891,55.833871 41.305102,52.6669355 C39.9327211,51.2209677 38.4266667,49.8725806 37.1968707,48.3112903 C34.7996599,45.2685484 31.4221769,44.4435484 27.8842857,43.8758065 C26.0217687,43.5741935 24.1414286,43.3790323 22.3145578,42.9443548 C20.2381633,42.4387097 18.3132653,41.4717742 16.1744898,40.983871 C12.6098639,40.158871 9.21455782,38.6330645 5.75687075,37.4354839 L2.32591837,34.7741935 L1.4347619,33.2572581 L0.82877551,31.625 L0.82877551,29.3717742 C0.969562663,29.1859916 1.08632852,28.9833273 1.17632653,28.7685484 C1.62370292,27.0267161 2.49960448,25.4231309 3.72503401,24.1024194 C5.76947548,21.79271 8.15543625,19.8064874 10.8008163,18.2120968 C16.3824855,14.9572672 22.4458585,12.6010489 28.7665306,11.2306452 C35.2547777,9.756317 41.8210475,8.64569903 48.4343537,7.90403226 C57.6756463,6.91935484 66.8812925,5.62419355 76.122585,4.76370968 C84.9004762,3.94758065 93.7140136,3.43306452 102.527551,2.98951613 C110.770748,2.55483871 119.022857,2.35080645 127.274966,2.04032258 C127.604694,2.04032258 129.244422,1.8983871 129.57415,1.82741935 C130.982177,1.70322581 131.071293,1.61451613 132.470408,1.48145161 C133.869524,1.3483871 135.072585,1.18870968 136.373673,1.04677419 L146.051633,0.940322581 C146.292245,0.878225806 148.511224,0.700806452 148.511224,0.700806452 Z" id="Path" fill="#2EBF8B"></path>
                        </g>
                        <g id="Layer_9" transform="translate(70.000000, 25.000000)">
                            <g id="Illustration-6" transform="translate(31.164505, 72.372335)" fill="#37DD9E" fill-rule="nonzero">
                                <path d="M0.088164735,25.8306692 C0.0510314649,29.0179434 1.27648222,32.0898032 3.49576233,34.3703586 C5.71504245,36.6509141 8.74632544,37.9533184 11.9226494,37.9910085 C12.7489467,37.9886583 13.5726897,37.8988122 14.3801932,37.7229628 L136.366972,37.7229628 C141.44493,37.5661047 145.480432,33.390109 145.480432,28.2922221 C145.480432,23.1943351 141.44493,19.0183394 136.366972,18.8614814 L134.906692,18.8614814 C134.975882,11.5912257 129.16077,5.64007223 121.915545,5.5664154 C119.548707,5.56754675 117.229365,6.23294384 115.219629,7.48740948 C112.225655,2.96361551 107.043692,0.398747464 101.644379,0.768194231 C96.2450648,1.137641 91.4580477,4.38463415 89.1037732,9.27438071 C87.5432407,6.12601463 84.314023,4.16224845 80.8104895,4.23103227 C77.306956,4.2998161 74.1567592,6.38882742 72.7201475,9.59603553 C71.2921153,5.45464644 67.4745737,2.61959627 63.1102661,2.45937576 C58.7459585,2.29915524 54.7321694,4.84670508 53.0063717,8.87231218 C49.3965973,4.14337139 43.8056078,1.36133567 37.8693262,1.34022843 C28.9731684,1.42359541 21.2700155,7.55952252 19.1706229,16.2346337 C17.1116796,14.5784081 14.552588,13.6741228 11.9137452,13.6703299 C5.30283682,13.753707 0.00987030712,19.1969105 0.088164735,25.8306692 Z" id="Path"></path>
                            </g>
                            <g id="Illustration_copy" transform="translate(98.836003, 92.922504)" fill="#38B8CA" fill-rule="nonzero">
                                <path d="M0.60548182,18.387934 C0.590698535,23.0772577 4.3645194,26.8920864 9.03770659,26.9117868 C9.63680058,26.9052584 10.2336038,26.8363893 10.8185355,26.7062851 L97.04627,25.9468223 C100.714817,25.9147475 103.662849,22.9045433 103.631142,19.2233431 C103.59892,15.5421428 100.599063,12.5839421 96.9305161,12.6160169 L95.9065395,12.6160169 C95.9163893,7.47272165 91.7718339,3.2938765 86.6462293,3.27909222 C84.9741974,3.30004783 83.3406696,3.78561093 81.9270328,4.68186464 C79.7629178,1.50985795 76.0721,-0.256842946 72.2535125,0.0513958042 C68.4349251,0.359634555 65.0730072,2.69563665 63.442029,6.17398562 C62.3182137,3.96214797 60.02631,2.59664101 57.553069,2.66536699 C55.0798279,2.73409298 52.8667471,4.22478365 51.8666412,6.49564044 C50.8306475,3.57621743 48.1130164,1.59592375 45.0258435,1.51086226 C41.9386707,1.42580076 39.1168382,3.25346448 37.9227511,6.11144162 C35.3568739,2.75888341 31.3791512,0.799508061 27.1665446,0.813071912 C20.8523382,0.930838993 15.43251,5.35539933 14.0329316,11.5348993 C12.5706615,10.3740546 10.7597865,9.74420323 8.89524027,9.74792809 C4.23230274,9.84567197 0.525996295,13.7085722 0.60548182,18.387934 L0.60548182,18.387934 Z" id="Path"></path>
                            </g>
                            <g id="Illustration-7" transform="translate(75.685228, 102.750846)" fill-rule="nonzero">
                                <rect id="Rectangle" stroke="#00886E" fill="#00886F" x="10.5692194" y="3.91346701" width="1" height="9.46201269" rx="0.4"></rect>
                                <path d="M10.8363438,3.91346701 C10.8363438,3.91346701 9.01099415,8.28261168 0.151370455,5.23582572 C0.151370455,5.23582572 7.04317824,-3.17187394 10.8363438,2.55536887 C10.8363438,2.55536887 12.3233359,-2.20690948 19.7404882,2.55536887 C19.7137757,2.5285643 15.9562268,7.72865059 10.8363438,3.91346701 Z" id="Path" fill="#00886E"></path>
                                <path d="M5.94796847,4.20831726 C5.87498393,4.20686019 5.80515302,4.17819447 5.75207729,4.12790355 C5.69658285,4.07403695 5.66524938,3.99987783 5.66524938,3.92240186 C5.66524938,3.8449259 5.69658285,3.77076678 5.75207729,3.71690017 C7.53290618,1.66188325 10.1151081,2.63578257 10.8719603,2.99317682 C12.0050688,1.77830836 13.8486084,1.56645906 15.226087,2.49282487 C15.2933414,2.53473952 15.3401845,2.60284304 15.3553862,2.6808082 C15.3705878,2.75877336 15.3527772,2.83957015 15.3062243,2.90382826 C15.2627615,2.96927253 15.1950446,3.01458152 15.1181284,3.02968225 C15.0412121,3.04478299 14.9614713,3.02842392 14.8966336,2.98424196 C13.7009827,2.15511665 12.0683512,2.40595112 11.1747012,3.55607276 C11.0771369,3.66379911 10.9184006,3.68972902 10.791823,3.61861675 C10.2776904,3.34409239 9.72058069,3.15976317 9.14455632,3.07359052 C8.04559254,2.86687213 6.91992127,3.26153554 6.18838037,4.11003384 C6.12701721,4.17735914 6.03874796,4.21344472 5.94796847,4.20831726 L5.94796847,4.20831726 Z" id="Path" fill="#0D6D5C"></path>
                            </g>
                            <g id="Illustration_copy_2" transform="translate(48.082380, 162.614382)" fill-rule="nonzero">
                                <rect id="Rectangle" stroke="#00886E" fill="#00886F" x="11.2014137" y="3.78837902" width="1" height="9.46201269" rx="0.4"></rect>
                                <path d="M11.5041546,3.77944416 C11.5041546,3.77944416 9.72332571,8.15752369 0.819181287,5.11073773 C0.819181287,5.11073773 7.71098907,-3.29696193 11.5041546,2.43028088 C11.5041546,2.43028088 12.9911467,-2.33199746 20.408299,2.43028088 C20.34597,2.40347631 16.5439003,7.60356261 11.5041546,3.77944416 Z" id="Path" fill="#00886E"></path>
                                <path d="M6.58906687,4.08322927 C6.51571571,4.08360741 6.44523108,4.05467333 6.39317569,4.00281557 C6.33716362,3.94740466 6.30562895,3.871773 6.30562895,3.79284645 C6.30562895,3.71391989 6.33716362,3.63828823 6.39317569,3.58287733 C8.17400458,1.53679526 10.7562065,2.51069459 11.5130587,2.86808883 C12.6491474,1.65185542 14.4958268,1.4400784 15.8760895,2.36773689 C15.963571,2.42679104 16.0130105,2.52819112 16.0057846,2.6337407 C15.9985587,2.73929028 15.9357653,2.83295385 15.8410579,2.87944926 C15.7463506,2.92594467 15.6341176,2.91820815 15.5466362,2.85915398 C14.3493517,2.03161256 12.7176288,2.27780136 11.8157996,3.42204992 C11.7254565,3.53464301 11.5670913,3.56491185 11.4418256,3.49352876 C10.9259889,3.22302747 10.3695684,3.03892629 9.79455886,2.94850254 C8.69681537,2.73393544 7.56866015,3.12605995 6.83838291,3.976011 C6.77767186,4.05040558 6.68462333,4.09042107 6.58906687,4.08322927 L6.58906687,4.08322927 Z" id="Path" fill="#0D6D5C"></path>
                            </g>
                            <g id="Illustration-8" transform="translate(0.000000, 113.472673)" fill-rule="nonzero">
                                <path d="M0.0712331554,3.37737563 C-0.00948623909,4.70015851 0.709082653,5.94226526 1.89383819,6.52790168 C3.07859373,7.1135381 4.49791473,6.92821156 5.49385711,6.05783249 C6.14886686,5.4869887 6.54689955,4.67529351 6.59797101,3.80624873 C6.67431853,2.63633795 6.12287191,1.5144244 5.15135576,0.863122097 C4.17983962,0.21181979 2.93585037,0.130077037 1.88798676,0.648685544 C0.840123142,1.16729405 0.147580577,2.20746484 0.0712331554,3.37737563 L0.0712331554,3.37737563 Z" id="Path" fill="#FFFFFF"></path>
                                <path d="M11.0233308,22.0333553 C10.6617504,22.0328367 10.355009,21.7668372 10.3020951,21.4079154 C10.3020951,21.309632 8.88633613,11.3740719 4.95960844,6.52244501 C4.70546727,6.21108345 4.74919925,5.75230856 5.05755403,5.49493655 C5.36932668,5.2448554 5.8226562,5.28836691 6.08153064,5.59321997 C7.86235952,7.78225973 9.35825578,11.0792217 10.5336028,15.4215618 C11.064212,17.3326832 11.4746114,19.2753753 11.7623748,21.2381531 C11.8152025,21.6325863 11.5407368,21.9958113 11.1479888,22.051225 L11.0233308,22.0333553 Z" id="Path" fill="#00886E"></path>
                            </g>
                            <g id="Illustration_copy_3" transform="translate(16.027460, 117.940102)" fill-rule="nonzero">
                                <path d="M10.2664785,2.48389002 C10.2087633,3.72119361 9.17652317,4.68555962 7.94249682,4.65506007 C7.35249522,4.61721214 6.8044817,4.33579083 6.42879227,3.87772758 C6.04188021,3.40725758 5.84771009,2.80676756 5.88563946,2.19797462 C5.96432143,0.964328417 7.02473608,0.0282649172 8.25414188,0.107218274 C9.48354767,0.186171631 10.4163936,1.25024381 10.3377117,2.48389002 L10.2664785,2.48389002 Z" id="Path" fill="#FFFFFF"></path>
                                <path d="M1.31781337,14.5817392 L1.18425121,14.5817392 C1.05666942,14.5462336 0.948373529,14.4613278 0.883233414,14.3456824 C0.818093298,14.230037 0.80145635,14.0931454 0.836989575,13.9651802 C1.21066051,12.6214876 1.65954842,11.3000093 2.18151538,10.0070389 C3.03058496,7.61550773 4.34407581,5.416781 6.04591406,3.53820305 C6.24044074,3.34396782 6.55481479,3.34396782 6.74934147,3.53820305 C6.94290905,3.73340068 6.94290905,4.04885905 6.74934147,4.24405668 C3.65960336,7.29084264 1.82534961,14.1438773 1.79863717,14.2153562 C1.74134653,14.4338632 1.5429553,14.5850132 1.31781337,14.5817392 L1.31781337,14.5817392 Z" id="Path" fill="#00886E"></path>
                            </g>
                            <g id="Illustration-9" transform="translate(152.260870, 100.070389)">
                                <path d="M14.8254005,6.17398562 C14.8254005,6.17398562 16.6685584,7.62143232 17.7637681,7.35338663 C18.8589779,7.08534095 17.7637681,6.54031472 17.7637681,6.54031472 C17.7637681,6.54031472 21.1651513,6.15611591 20.6665192,5.10180288 C20.1678871,4.04748985 17.7459598,4.51210237 17.7459598,4.51210237 C17.7459598,4.51210237 19.7582965,2.94850254 18.1466463,2.36773689 C16.5349962,1.78697124 15.9829392,3.76157445 15.9829392,3.76157445 C15.9829392,3.76157445 16.1610221,1.0811176 14.8254005,0.875615905 C13.4897788,0.670114213 13.6589575,2.73406599 13.6589575,2.73406599 C13.6589575,2.73406599 11.6110043,0.822006768 10.7829189,1.52786041 C9.95483346,2.23371404 12.0027867,3.95814129 12.0027867,3.95814129 C12.0027867,3.95814129 10.791823,4.27086125 11.281551,5.10180288 C11.7712789,5.9327445 14.8254005,6.17398562 14.8254005,6.17398562 Z" id="Path" fill="#FFFC03"></path>
                                <path d="M14.6829341,4.83375719 C14.6829341,4.83375719 16.6685584,5.43239255 15.8849936,6.13824619 C15.1014289,6.84409983 14.8343046,6.54031472 14.6829341,7.03173181 C13.7925197,7.57675804 9.3404475,43.3429873 10.1240122,43.3161978 C9.80346301,43.1910948 9.72332571,41.5292115 9.40277651,41.3862538 C9.65209255,33.4878409 12.456898,14.4834019 13.9616984,6.69220728 C13.9616984,6.69220728 12.7240224,5.5664154 13.0178591,4.98564975 C13.3116959,4.40488409 12.2164861,5.19115144 14.6829341,4.83375719 Z" id="Path" fill="#1E8862" fill-rule="nonzero"></path>
                                <path d="M6.54454615,16.2346337 C6.54454615,16.2346337 8.64592423,15.9755228 8.00482583,16.8153993 C7.55961861,17.7088849 6.98975337,17.9054518 6.9363285,18.4415431 C6.88290364,18.9776345 7.82674294,47.5066303 7.82674294,47.5066303 C7.16783626,46.1217276 7.13221968,45.2729162 6.79386219,45.2103723 C6.30413425,37.2940897 6.64249174,26.1433892 6.15276379,18.2271066 C6.15276379,18.2271066 4.73700483,17.333621 4.92399186,16.6992462 C5.1109789,16.0648714 4.17604373,17.0030313 6.54454615,16.2346337 Z" id="Path" fill="#1E8862" fill-rule="nonzero"></path>
                                <path d="M8.3787999,15.1088418 C8.3787999,15.1088418 9.91921688,12.7143003 8.62811594,12.1514044 C7.337015,11.5885085 6.47331299,14.2689653 6.47331299,14.2689653 C6.47331299,14.2689653 5.25344521,11.1685702 4.15823544,11.8208147 C3.06302568,12.4730592 4.39864734,14.6174247 4.39864734,14.6174247 C4.39864734,14.6174247 1.93219934,13.4469585 0.979455886,14.1528122 C0.0267124333,14.8586658 3.23220442,16.0112623 3.23220442,16.0112623 C3.23220442,16.0112623 0.854797864,16.4133308 2.28836512,17.1995981 C3.22292956,17.6175005 4.31898761,17.3910632 5.01303331,16.6367022 C5.25344521,17.3693604 7.15002797,17.7446244 7.43496059,16.6992462 C7.96030511,16.3775914 10.9966184,17.1013147 11.0411391,15.8951091 C11.0856598,14.6889036 8.3787999,15.1088418 8.3787999,15.1088418 Z" id="Path" fill="#FFFC03"></path>
                                <path d="M7.48838546,15.5555846 C6.72262904,14.2510956 4.88837529,15.1981904 5.02193745,15.7074772 C5.80706823,15.394932 6.67105926,15.3417244 7.48838546,15.5555846 Z" id="Path" fill="#FBC90B"></path>
                            </g>
                            <g id="Illustration-10" transform="translate(21.369947, 59.863536)" fill="#FCF806" fill-rule="nonzero">
                                <ellipse id="Oval" transform="translate(28.911317, 30.613032) rotate(-65.560000) translate(-28.911317, -30.613032) " cx="28.9113172" cy="30.6130316" rx="2.00916175" ry="2.15607681"></ellipse>
                                <ellipse id="Oval" cx="34.1295856" cy="19.9157944" rx="2.15480295" ry="2.16223519"></ellipse>
                                <ellipse id="Oval" transform="translate(62.964959, 5.083739) rotate(-5.600000) translate(-62.964959, -5.083739) " cx="62.9649594" cy="5.08373914" rx="1.78979197" ry="2.24257558"></ellipse>
                                <ellipse id="Oval" transform="translate(77.222825, 17.423132) rotate(-34.260000) translate(-77.222825, -17.423132) " cx="77.2228253" cy="17.4231315" rx="1.79169301" ry="2.24020782"></ellipse>
                                <ellipse id="Oval" transform="translate(3.764754, 37.351490) rotate(-52.470000) translate(-3.764754, -37.351490) " cx="3.76475416" cy="37.3514899" rx="2.65027004" ry="2.23780533"></ellipse>
                                <ellipse id="Oval" transform="translate(92.559564, 30.740698) rotate(-65.560000) translate(-92.559564, -30.740698) " cx="92.5595645" cy="30.7406984" rx="2.20561312" ry="2.36990261"></ellipse>
                                <ellipse id="Oval" cx="98.2928502" cy="18.9686997" rx="2.36850242" ry="2.37667174"></ellipse>
                                <ellipse id="Oval" transform="translate(130.000898, 2.667680) rotate(-5.600000) translate(-130.000898, -2.667680) " cx="130.000898" cy="2.66768007" rx="1.96788072" ry="2.46593968"></ellipse>
                                <ellipse id="Oval" transform="translate(145.686978, 16.230867) rotate(-34.260000) translate(-145.686978, -16.230867) " cx="145.686978" cy="16.2308673" rx="1.96997093" ry="2.46333609"></ellipse>
                                <ellipse id="Oval" transform="translate(61.062833, 32.035001) rotate(-52.470000) translate(-61.062833, -32.035001) " cx="61.0628333" cy="32.0350012" rx="2.91797408" ry="2.46069432"></ellipse>
                            </g>
                            <g id="Illustration-11" transform="translate(146.027968, 0.000000)" fill-rule="nonzero">
                                <path d="M15.9562268,13.1967826 L24.3083143,0.687983926 C24.3083143,0.687983926 29.161073,8.72935448 23.4178998,14.9837538 L15.9562268,13.1967826 Z" id="Path" fill="#C2B9EA"></path>
                                <path d="M0.819181287,21.4883291 L10.0260666,17.9858655 L14.9945792,21.6670262 C14.9945792,21.6670262 6.35755912,26.1969983 0.819181287,21.4883291 Z" id="Path" fill="#C2B9EA"></path>
                                <path d="M9.37606407,16.895813 C9.37606407,16.895813 14.9767709,27.6176404 25.4836613,17.6999501 L33.4439664,19.2992893 C33.4439664,19.2992893 33.5775286,18.63811 32.5090313,17.8875821 L33.9336944,17.3425558 L13.9706026,12.6874958 C13.9706026,12.6874958 9.11784389,11.1238959 8.68154081,15.0016235 L9.37606407,16.895813 Z" id="Path" fill="#D7CDF9"></path>
                                <polygon id="Path" fill="#20115B" points="7.23906941 16.7171159 8.68154081 15.0373629 10.1240122 15.2786041 9.37606407 16.9404873"></polygon>
                                <ellipse id="Oval" fill="#20115B" cx="10.8808645" cy="14.3315093" rx="1" ry="1"></ellipse>
                            </g>
                            <g id="Layer_1" transform="translate(70.342741, 131.342386)" fill-rule="nonzero">
                                <g id="Layer_35">
                                    <ellipse id="Oval" fill="url(#linearGradient-1)" cx="38.2165878" cy="12.5177335" rx="36.9076786" ry="11.3025931"></ellipse>
                                    <path d="M38.2165878,24.8120956 C28.2617544,24.8120956 18.8945945,23.6237597 11.8336079,21.4525897 C4.30070175,19.1473968 0.320549199,16.091676 0.320549199,12.5177335 C0.320549199,8.94379103 4.30070175,5.87913536 11.8336079,3.58287733 C18.8945945,1.42064213 28.2617544,0.232306261 38.2165878,0.232306261 C48.1714213,0.232306261 57.5385812,1.42064213 64.5995678,3.58287733 C72.1324739,5.88807022 76.1126265,8.94379103 76.1126265,12.5177335 C76.1126265,16.091676 72.1324739,19.1563316 64.5995678,21.4525897 C57.5385812,23.6237597 48.1714213,24.8120956 38.2165878,24.8120956 Z M38.2165878,2.19797462 C28.422029,2.19797462 19.2863768,3.35950592 12.394569,5.46813198 C6.06372235,7.40699577 2.27946097,10.0427783 2.27946097,12.5087986 C2.27946097,14.974819 6.06372235,17.6195364 12.394569,19.5584002 C19.2685685,21.6580914 28.422029,22.8196227 38.2165878,22.8196227 C48.0111467,22.8196227 57.1378947,21.6580914 64.0386067,19.5584002 C70.3694533,17.6195364 74.1448106,14.9837538 74.1448106,12.5087986 C74.1448106,10.0338435 70.3694533,7.40699577 64.0386067,5.46813198 C57.1378947,3.35950592 48.0111467,2.19797462 38.2165878,2.19797462 Z" id="Shape" fill="#37DD9E"></path>
                                </g>
                            </g>
                        </g>
                    </g>
                </g>
            </g>
        </g>
    </g>
</svg>