<svg width="168" height="484" viewBox="0 0 168 484" fill="none" xmlns="http://www.w3.org/2000/svg">
<path fill-rule="evenodd" clip-rule="evenodd" d="M48.8061 212.736L2.244 186.04C0.855362 185.244 -0.000679016 183.769 -0.000679016 182.171V128.802C-0.000679016 127.205 0.85537 125.73 2.24402 124.933L48.8061 98.2376C50.1875 97.4456 51.887 97.4456 53.2684 98.2376L99.8305 124.933C101.219 125.73 102.075 127.205 102.075 128.802V182.171C102.075 183.769 101.219 185.244 99.8305 186.04L53.2684 212.736C51.887 213.528 50.1875 213.528 48.8061 212.736ZM49.4436 211.631C50.4303 212.196 51.6442 212.196 52.6309 211.631L99.193 184.935C100.185 184.366 100.796 183.312 100.796 182.171V128.802C100.796 127.661 100.185 126.607 99.193 126.039L52.6309 99.343C51.6442 98.7773 50.4303 98.7773 49.4436 99.343L2.88148 126.039C1.8896 126.607 1.27813 127.661 1.27813 128.802V182.171C1.27813 183.312 1.8896 184.366 2.88148 184.935L49.4436 211.631Z" fill="#EB53E2"/>
<path fill-rule="evenodd" clip-rule="evenodd" d="M106.01 100.848L65.1918 77.4212C64 76.7372 63.2652 75.469 63.2652 74.0962V27.2623C63.2652 25.8895 64 24.6213 65.1918 23.9373L106.01 0.510078C107.195 -0.169861 108.652 -0.169861 109.837 0.510078L150.655 23.9373C151.847 24.6213 152.582 25.8895 152.582 27.2623V74.0962C152.582 75.469 151.847 76.7372 150.655 77.4212L109.837 100.848C108.652 101.528 107.195 101.528 106.01 100.848ZM106.648 99.74C107.438 100.193 108.409 100.193 109.199 99.74L150.017 76.3129C150.812 75.8568 151.302 75.0114 151.302 74.0962V27.2623C151.302 26.3471 150.812 25.5016 150.017 25.0456L109.199 1.61844C108.409 1.16515 107.438 1.16515 106.648 1.61844L65.8296 25.0456C65.035 25.5016 64.5451 26.3471 64.5451 27.2623V74.0962C64.5451 75.0114 65.035 75.8568 65.8296 76.3129L106.648 99.74Z" fill="#EB53E2"/>
<path fill-rule="evenodd" clip-rule="evenodd" d="M107.89 283.932L74.213 264.48C73.0315 263.797 72.3029 262.531 72.3029 261.161V222.281C72.3029 220.91 73.0315 219.644 74.213 218.962L107.89 199.51C109.063 198.832 110.505 198.832 111.678 199.51L145.355 218.962C146.536 219.644 147.265 220.91 147.265 222.281V261.161C147.265 262.531 146.536 263.797 145.355 264.48L111.678 283.932C110.505 284.609 109.063 284.609 107.89 283.932ZM108.521 282.825C109.303 283.277 110.265 283.277 111.047 282.825L144.723 263.373C145.511 262.918 145.997 262.074 145.997 261.161V222.281C145.997 221.367 145.511 220.523 144.723 220.068L111.047 200.616C110.265 200.165 109.303 200.165 108.521 200.616L74.8445 220.068C74.0568 220.523 73.5711 221.367 73.5711 222.281V261.161C73.5711 262.074 74.0568 262.918 74.8445 263.373L108.521 282.825Z" fill="#EB53E2"/>
<path fill-rule="evenodd" clip-rule="evenodd" d="M40.9884 313.283L23.0734 302.891C22.2834 302.433 21.7967 301.586 21.7967 300.669V279.885C21.7967 278.969 22.2834 278.122 23.0734 277.664L40.9884 267.271C41.7784 266.813 42.7517 266.813 43.5417 267.271L61.4567 277.664C62.2467 278.122 62.7334 278.969 62.7334 279.885V300.669C62.7334 301.586 62.2467 302.433 61.4567 302.891L43.5417 313.283C42.7517 313.741 41.7784 313.741 40.9884 313.283ZM41.3076 312.728C41.9001 313.071 42.63 313.071 43.2225 312.728L61.1376 302.336C61.7301 301.992 62.0951 301.357 62.0951 300.669V279.885C62.0951 279.198 61.7301 278.563 61.1376 278.219L43.2225 267.827C42.63 267.483 41.9001 267.483 41.3076 267.827L23.3925 278.219C22.8 278.563 22.435 279.198 22.435 279.885V300.669C22.435 301.357 22.8 301.992 23.3925 302.336L41.3076 312.728Z" fill="#EB53E2"/>
<path fill-rule="evenodd" clip-rule="evenodd" d="M139.886 175.311L115.569 161.195C114.786 160.74 114.303 159.9 114.303 158.99V130.757C114.303 129.847 114.786 129.007 115.569 128.552L139.886 114.436C140.669 113.981 141.634 113.981 142.417 114.436L166.734 128.552C167.517 129.007 168 129.847 168 130.757V158.99C168 159.9 167.517 160.74 166.734 161.195L142.417 175.311C141.634 175.766 140.669 175.766 139.886 175.311ZM140.202 174.76C140.79 175.101 141.513 175.101 142.101 174.76L166.417 160.643C167.005 160.302 167.367 159.672 167.367 158.99V130.757C167.367 130.075 167.005 129.444 166.417 129.103L142.101 114.987C141.513 114.646 140.79 114.646 140.202 114.987L115.886 129.103C115.298 129.444 114.936 130.075 114.936 130.757V158.99C114.936 159.672 115.298 160.302 115.886 160.643L140.202 174.76Z" fill="#EB53E2"/>
<path fill-rule="evenodd" clip-rule="evenodd" d="M28.8171 94.7309L12.1185 84.9529C11.5279 84.607 11.164 83.9678 11.164 83.2761V63.7201C11.164 63.0284 11.5279 62.3892 12.1185 62.0433L28.8171 52.2653C29.4077 51.9195 30.1354 51.9195 30.7261 52.2653L47.4246 62.0433C48.0153 62.3892 48.3792 63.0284 48.3792 63.7201V83.2761C48.3792 83.9678 48.0153 84.607 47.4246 84.9529L30.7261 94.7309C30.1354 95.0768 29.4077 95.0768 28.8171 94.7309ZM29.1352 94.172C29.529 94.4025 30.0141 94.4025 30.4079 94.172L47.1065 84.394C47.5002 84.1634 47.7428 83.7373 47.7428 83.2761V63.7201C47.7428 63.259 47.5002 62.8328 47.1065 62.6023L30.4079 52.8242C30.0141 52.5937 29.529 52.5937 29.1352 52.8242L12.4367 62.6023C12.0429 62.8328 11.8003 63.259 11.8003 63.7201V83.2761C11.8003 83.7373 12.0429 84.1634 12.4367 84.394L29.1352 94.172Z" fill="#EB53E2"/>
<path d="M77.637 323.304C76.933 322.899 76.067 322.899 75.363 323.304L42.1439 342.417C41.4362 342.824 41 343.578 41 344.395V382.605C41 383.422 41.4362 384.176 42.1439 384.583L75.363 403.696C76.067 404.101 76.933 404.101 77.637 403.696L110.856 384.583C111.564 384.176 112 383.422 112 382.605V344.395C112 343.578 111.564 342.824 110.856 342.417L77.637 323.304Z" fill="#60EBFF"/>
<path d="M124.073 400.75C124.647 400.417 125.353 400.417 125.927 400.75L147.57 413.317C148.147 413.652 148.5 414.271 148.5 414.938V440.062C148.5 440.729 148.147 441.348 147.57 441.683L125.927 454.25C125.353 454.583 124.647 454.583 124.073 454.25L102.43 441.683C101.853 441.348 101.5 440.729 101.5 440.062V414.938C101.5 414.271 101.853 413.652 102.43 413.317L124.073 400.75Z" stroke="#EB53E2"/>
<path fill-rule="evenodd" clip-rule="evenodd" d="M112.667 296.137L130.328 285.818C131.053 285.394 131.947 285.394 132.672 285.818L150.333 296.137C151.057 296.56 151.5 297.34 151.5 298.18V318.82C151.5 319.66 151.057 320.44 150.333 320.863L132.672 331.182C131.947 331.606 131.053 331.606 130.328 331.182L112.667 320.863C111.943 320.44 111.5 319.66 111.5 318.82V298.18C111.5 297.34 111.943 296.56 112.667 296.137ZM131.937 287.084C131.666 286.926 131.334 286.926 131.063 287.084L113.401 297.403C113.13 297.562 112.96 297.858 112.96 298.18V318.82C112.96 319.142 113.13 319.438 113.401 319.597L131.063 329.916C131.334 330.074 131.666 330.074 131.937 329.916L149.599 319.597C149.87 319.438 150.04 319.142 150.04 318.82V298.18C150.04 297.858 149.87 297.562 149.599 297.403L131.937 287.084Z" fill="#60EBFF"/>
<path fill-rule="evenodd" clip-rule="evenodd" d="M78.9471 460.07L91.0621 453.245C91.643 452.918 92.357 452.918 92.9379 453.245L105.053 460.07C105.635 460.398 106 461.008 106 461.676V475.324C106 475.992 105.635 476.602 105.053 476.93L92.9379 483.755C92.357 484.082 91.643 484.082 91.0621 483.755L78.9471 476.93C78.365 476.602 78 475.992 78 475.324V461.676C78 461.008 78.365 460.398 78.9471 460.07ZM92.2163 454.507C92.0829 454.432 91.9171 454.432 91.7837 454.507L79.6687 461.331C79.5367 461.406 79.4617 461.539 79.4617 461.676V475.324C79.4617 475.461 79.5367 475.594 79.6687 475.669L91.7837 482.493C91.9171 482.568 92.0829 482.568 92.2163 482.493L104.331 475.669C104.463 475.594 104.538 475.461 104.538 475.324V461.676C104.538 461.539 104.463 461.406 104.331 461.331L92.2163 454.507ZM79.4233 460.895L79.4149 460.9C79.4177 460.899 79.4205 460.897 79.4233 460.895ZM79.4149 476.1L79.4233 476.105C79.4205 476.103 79.4177 476.101 79.4149 476.1ZM104.585 460.9L104.577 460.895C104.579 460.897 104.582 460.899 104.585 460.9Z" fill="#60EBFF"/>
</svg>
