<svg xmlns="http://www.w3.org/2000/svg" xmlns:xlink="http://www.w3.org/1999/xlink" width="1095.05" height="1245.42" viewBox="0 0 1095.05 1245.42"><defs><style>.a,.aa,.ab,.ac,.ad,.ae,.b,.c,.d,.e,.f,.g,.h,.i,.j,.k,.l,.m,.n,.o,.p,.q,.r,.s,.t,.u,.v,.w,.x,.y,.z{fill:none;stroke-miterlimit:10;stroke-width:2px;}.a{stroke:url(#a);}.b{stroke:url(#b);}.c{stroke:url(#c);}.d{stroke:url(#d);}.e{stroke:url(#e);}.f{stroke:url(#f);}.g{stroke:url(#g);}.h{stroke:url(#h);}.i{stroke:url(#i);}.j{stroke:url(#j);}.k{stroke:url(#k);}.l{stroke:url(#l);}.m{stroke:url(#m);}.n{stroke:url(#n);}.o{stroke:url(#o);}.p{stroke:url(#p);}.q{stroke:url(#q);}.r{stroke:url(#r);}.s{stroke:url(#s);}.t{stroke:url(#t);}.u{stroke:url(#u);}.v{stroke:url(#v);}.w{stroke:url(#w);}.x{stroke:url(#x);}.y{stroke:url(#y);}.z{stroke:url(#z);}.aa{stroke:url(#aa);}.ab{stroke:url(#ab);}.ac{stroke:url(#ac);}.ad{stroke:url(#ad);}.ae{stroke:url(#ae);}</style><linearGradient id="a" x1="389.07" y1="758.69" x2="1437.81" y2="1489.62" gradientTransform="matrix(1, 0, 0, -1, 0, 2234)" gradientUnits="userSpaceOnUse"><stop offset="0.61" stop-color="#b88dfc"/><stop offset="0.95" stop-color="#95dde8"/></linearGradient><linearGradient id="b" x1="402.02" y1="766.4" x2="1422.35" y2="1477.52" xlink:href="#a"/><linearGradient id="c" x1="415" y1="774.08" x2="1406.94" y2="1465.42" xlink:href="#a"/><linearGradient id="d" x1="427.96" y1="781.81" x2="1391.48" y2="1453.35" xlink:href="#a"/><linearGradient id="e" x1="440.9" y1="789.54" x2="1376.06" y2="1441.31" xlink:href="#a"/><linearGradient id="f" x1="453.87" y1="797.24" x2="1360.62" y2="1429.21" xlink:href="#a"/><linearGradient id="g" x1="466.83" y1="804.92" x2="1345.2" y2="1417.12" xlink:href="#a"/><linearGradient id="h" x1="479.79" y1="812.63" x2="1329.77" y2="1405.02" xlink:href="#a"/><linearGradient id="i" x1="492.74" y1="820.35" x2="1314.33" y2="1392.96" xlink:href="#a"/><linearGradient id="j" x1="506.53" y1="828.6" x2="1299.74" y2="1381.44" xlink:href="#a"/><linearGradient id="k" x1="519.49" y1="836.32" x2="1284.33" y2="1369.37" xlink:href="#a"/><linearGradient id="l" x1="532.48" y1="844.01" x2="1268.89" y2="1357.26" xlink:href="#a"/><linearGradient id="m" x1="545.47" y1="851.71" x2="1253.52" y2="1345.19" xlink:href="#a"/><linearGradient id="n" x1="558.44" y1="859.41" x2="1238.12" y2="1333.12" xlink:href="#a"/><linearGradient id="o" x1="571.43" y1="867.05" x2="1222.75" y2="1321" xlink:href="#a"/><linearGradient id="p" x1="584.38" y1="874.74" x2="1207.35" y2="1308.93" xlink:href="#a"/><linearGradient id="q" x1="597.37" y1="882.4" x2="1191.99" y2="1296.83" xlink:href="#a"/><linearGradient id="r" x1="610.39" y1="889.96" x2="1176.67" y2="1284.64" xlink:href="#a"/><linearGradient id="s" x1="623.48" y1="897.52" x2="1161.44" y2="1272.46" xlink:href="#a"/><linearGradient id="t" x1="636.54" y1="905.06" x2="1146.2" y2="1260.28" xlink:href="#a"/><linearGradient id="u" x1="649.62" y1="912.49" x2="1131" y2="1248" xlink:href="#a"/><linearGradient id="v" x1="662.75" y1="919.91" x2="1115.85" y2="1235.71" xlink:href="#a"/><linearGradient id="w" x1="675.83" y1="927.36" x2="1100.73" y2="1223.49" xlink:href="#a"/><linearGradient id="x" x1="688.99" y1="934.74" x2="1085.6" y2="1211.16" xlink:href="#a"/><linearGradient id="y" x1="702.15" y1="942.06" x2="1070.65" y2="1198.88" xlink:href="#a"/><linearGradient id="z" x1="715.36" y1="949.33" x2="1055.74" y2="1186.56" xlink:href="#a"/><linearGradient id="aa" x1="728.54" y1="956.6" x2="1040.84" y2="1174.26" xlink:href="#a"/><linearGradient id="ab" x1="741.79" y1="963.78" x2="1026.01" y2="1161.86" xlink:href="#a"/><linearGradient id="ac" x1="755.06" y1="970.88" x2="1011.22" y2="1149.4" xlink:href="#a"/><linearGradient id="ad" x1="768.33" y1="977.85" x2="996.46" y2="1136.85" xlink:href="#a"/><linearGradient id="ae" x1="781.75" y1="984.82" x2="981.84" y2="1124.27" xlink:href="#a"/></defs><path class="a" d="M327.41,1267.53c21.48,115.72,59.45,192,86.09,236,38.78,64,70,115.51,127.49,131,38.4,10.38,43.84-7.4,171.46-23,103-12.58,124.37-4,134.26.61,38.45,18,37.86,39.83,98.95,78,37,23.13,58.88,36.31,90.25,33.48,8.26-.74,34.94-4.19,96.65-53.34,60.89-48.48,106.28-84.64,146.11-158.82,15.08-28.08,51.23-95.39,55.87-179.31,3.23-58.21-12.17-62-18.61-177.2-4.85-86.82,2.21-114.69,8.37-132.44,11.82-34.08,21.71-35,51.72-95.33,23-46.17,35.49-71.32,41.35-107.59,9.25-57.23-5-99.27-7.83-107.24-5.52-15.55-24.88-62.88-68.56-75.89-26.11-7.77-49.57.09-61.52,4.27-40.18,14.07-45.45,37.64-76.45,47.74-28,9.11-49.3-2-90.73-24.66-37.86-20.7-64-42.65-83.7-59.55C909.64,502.39,909.71,487.72,876,482.22c-51.94-8.49-103.07,18-123.06,28.42-15.23,7.9-41.44,21.78-71,51.18-38.68,38.42-60.2,80.56-74.32,108.73-14.53,29-52.87,107.21-60.12,205.22-3.3,44.66,2.32,60.08-6.31,112-7.07,42.61-12.31,74.24-31.5,102.71-25.5,37.86-63.51,52.09-97.65,64.88-32.34,12.11-44.58,9.47-59.18,26.66C333.46,1204.86,328.52,1240.71,327.41,1267.53Z" transform="translate(-326.41 -479.57)"/><path class="b" d="M550.23,1622.76c37.45,10.1,43-7.19,166.89-22.38,62.79-7.73,94.43-7.45,111.64-5,10.25,1.46,15.4,3.66,19,5.33,37.41,17.45,37,38.53,96.41,75.51,31.76,19.77,52.09,32,77.4,32.8a88.76,88.76,0,0,0,10.48-.32c8.15-.68,34.13-4,94.06-51.58,59.24-46.89,103.38-81.81,142.26-153.79,14.71-27.24,49.86-92.56,54.47-174,3.22-56.51-11.62-60.2-17.78-172-4.65-84.26,2.25-111.35,8.27-128.65,11.49-33.08,21.13-34.1,50.25-92.64,22.36-45,34.5-69.66,40.14-105.06,7.6-47.57-1.43-84.37-6-99-.78-2.5-1.43-4.36-1.84-5.5-5.53-15.22-24.42-61-67.09-73.77-25.36-7.57-48.2,0-59.88,4-39,13.43-44.23,36.34-74.36,46-16.87,5.41-31.24,3.28-49.27-4.39-11.11-4.75-23.59-11.56-38.89-20-36.73-20.2-62-41.62-81.21-58.31l-11.77-10.19C909.68,519.56,908.58,505.89,876.9,500.62c-50.62-8.43-100.6,17.5-120.23,27.72-6.35,3.31-14.6,7.65-24.19,13.73a267,267,0,0,0-45.2,36.34c-37.71,37.49-58.73,78.6-72.62,106.26C600.45,713,563.17,789,556.05,884.16c-3.25,43.4,2.15,58.43-6.26,108.92-6.91,41.39-12,72.16-30.69,99.86-24.79,36.84-61.68,50.74-94.84,63.27-31.38,11.81-43.27,9.33-57.44,26.07-18.82,22.22-23.6,57-24.67,83.11,20.83,112.63,57.76,187,83.8,229.88C463.73,1557.51,494.25,1607.67,550.23,1622.76Z" transform="translate(-326.41 -479.57)"/><path class="c" d="M559.46,1611c36.53,9.83,42.08-7,162.33-21.76,61-7.58,91.86-7.46,108.58-5.14,10,1.4,15,3.51,18.5,5.13,36.42,16.73,36.14,37.22,93.88,73,30.87,19.12,50.67,31,75.28,31.81a90.52,90.52,0,0,0,10.2-.3c8-.67,33.3-3.77,91.46-49.82,57.59-45.3,100.48-79,138.41-148.76,14.35-26.41,48.51-89.73,53.06-168.65,3.21-54.78-11.07-58.44-17-166.89-4.42-81.71,2.32-108,8.21-124.88,11.16-32.12,20.53-33.17,48.77-90,21.76-43.86,33.52-68,38.94-102.49,7.31-46.32-1.57-82.13-6.12-96.46-.77-2.44-1.4-4.24-1.8-5.35-5.5-14.93-24-59.12-65.59-71.7-24.61-7.36-46.82-.16-58.23,3.69-37.91,12.79-43,35-72.29,44.27-16.38,5.17-30.33,3-47.84-4.5-10.8-4.7-22.9-11.38-37.73-19.62-35.6-19.72-60-40.73-78.74-57.07l-11.41-10C909.79,537.79,908.68,524.29,877.82,519.05c-49.29-8.37-98.12,17-117.4,27-6.23,3.26-14.29,7.52-23.63,13.45A262,262,0,0,0,692.67,595c-36.73,36.56-57.27,76.67-70.93,103.79-13.89,27.63-50.09,101.4-57.07,193.77-3.2,42.12,2,56.8-6.24,105.79-6.74,40.2-11.76,70.09-29.86,97-24.08,35.84-59.87,49.44-92,61.68-30.44,11.53-42,9.2-55.71,25.49-18.24,21.61-22.89,55.43-23.94,80.79,20.18,109.48,56.09,181.93,81.53,223.75C475.17,1547.57,505,1596.31,559.46,1611Z" transform="translate(-326.41 -479.57)"/><path class="d" d="M568.71,1599.25c35.6,9.56,41.21-6.75,157.75-21.17,59.28-7.43,89.25-7.42,105.5-5.25,9.67,1.35,14.56,3.37,18,4.93,35.41,16.09,35.28,35.91,91.34,70.56,30,18.5,49.26,30,73.21,30.8a87.66,87.66,0,0,0,9.91-.29c7.92-.63,32.42-3.74,88.87-48.07,55.87-43.89,97.59-76.16,134.57-143.72,14-25.57,47.14-86.89,51.66-163.34,3.21-53.08-10.51-56.69-16.12-161.73-4.24-79.12,2.34-104.67,8.07-121,10.85-31.15,20-32.25,47.31-87.28,21.14-42.72,32.52-66.34,37.71-100,7-45-1.69-79.89-6.2-93.89-.75-2.36-1.36-4.12-1.77-5.2C1363,740,1345,697.34,1304.42,685c-23.87-7.16-45.46-.28-56.59,3.4-36.78,12.16-41.8,33.72-70.21,42.53-15.9,4.93-29.47,2.83-46.42-4.61-10.49-4.58-22.21-11.18-36.57-19.23-34.47-19.23-58.08-39.74-76.27-55.85-3.79-3.37-7.5-6.58-11.05-9.73-97.43-85.48-98.56-98.82-128.6-104-48-8.3-95.64,16.41-114.55,26.33-6.12,3.21-14,7.36-23.06,13.15a255.32,255.32,0,0,0-43.05,34.69c-35.76,35.62-55.82,74.73-69.25,101.31-13.54,26.92-48.7,98.5-55.56,188.05-3.16,40.88,1.79,55.16-6.2,102.68-6.58,39-11.48,68-29,94.15-23.38,34.79-58.07,48.09-89.22,60.06-29.47,11.23-40.66,9.05-54,24.89-17.67,21-22.17,53.81-23.19,78.45,19.54,106.35,54.41,176.85,79.27,217.63C486.62,1537.64,515.7,1585,568.71,1599.25Z" transform="translate(-326.41 -479.57)"/><path class="e" d="M577.93,1587.47c34.67,9.29,40.33-6.55,153.18-20.56,57.53-7.29,86.66-7.41,102.44-5.36,9.35,1.3,14.12,3.22,17.47,4.73,34.39,15.43,34.42,34.6,88.8,68.08,29.1,17.88,47.85,29,71.12,29.79a84.81,84.81,0,0,0,9.62-.26c7.81-.6,31.58-3.6,86.26-46.31,54.22-42.36,94.71-73.33,130.73-138.69,13.61-24.73,45.77-84,50.25-158,3.2-51.37-10-54.94-15.29-156.58-4-76.55,2.39-101.33,8-117.25,10.53-30.19,19.36-31.32,45.83-84.6,20.53-41.57,31.54-64.68,36.5-97.44,6.74-43.78-1.82-77.66-6.27-91.32-.75-2.29-1.35-4-1.74-5.07-5.48-14.32-23-55.46-62.59-67.51-23.11-7-44.09-.4-55,3.11-35.65,11.52-40.59,32.42-68.13,40.8-15.41,4.69-28.58,2.59-45-4.72-10.19-4.53-21.52-11-35.41-18.85-33.34-18.75-56.12-38.77-73.78-54.62-3.68-3.29-7.26-6.43-10.71-9.5C910.16,573.8,908.81,561,879.59,555.82c-46.65-8.27-93.16,15.85-111.73,25.64-6,3.16-13.65,7.23-22.48,12.86a249.59,249.59,0,0,0-42,33.87C668.6,662.87,649.05,701,635.86,727c-13.21,26.24-47.31,95.6-54,182.33-3.13,39.62,1.6,53.52-6.16,99.53-6.42,37.8-11.21,66-28.23,91.31C524.77,1134,491.18,1147,461,1158.65c-28.53,10.95-39.35,8.92-52.23,24.31-17.1,20.39-21.47,52.23-22.44,76.11,18.87,103.25,52.72,171.83,77,211.54C498.07,1527.71,526.42,1573.63,577.93,1587.47Z" transform="translate(-326.41 -479.57)"/><path class="f" d="M587.17,1575.7c33.74,9,39.44-6.33,148.61-20,55.77-7.13,84.07-7.39,99.37-5.47,9.06,1.23,13.69,3.08,17,4.53,33.37,14.79,33.56,33.3,86.26,65.6,28.22,17.26,46.44,28,69,28.79a89.56,89.56,0,0,0,9.34-.25c7.69-.56,30.75-3.45,83.66-44.55,52.55-40.82,91.82-70.5,126.88-133.65,13.25-23.9,44.42-81.21,48.87-152.67,3.2-49.67-9.42-53.2-14.47-151.43-3.82-74,2.46-98,7.89-113.45,10.25-29.2,18.77-30.39,44.35-81.93,19.93-40.42,30.51-63,35.29-94.89,6.38-42.53-1.94-75.44-6.35-88.76-.74-2.22-1.32-3.89-1.72-4.91-5.46-14-22.49-53.63-61.11-65.42-22.36-6.82-42.71-.52-53.3,2.82-34.52,10.9-39.37,31.13-66,39.06-14.94,4.45-27.7,2.37-43.58-4.82-9.88-4.47-20.84-10.8-34.25-18.46-32.21-18.26-54.16-37.8-71.31-53.38-3.54-3.22-7-6.28-10.35-9.27-90.9-81.3-92.3-93.82-120.69-99-45.34-8.22-90.69,15.31-108.89,24.93-5.87,3.1-13.35,7.1-21.91,12.55a243.94,243.94,0,0,0-40.9,33.07c-33.83,33.73-52.9,70.81-65.86,96.34S597,833.85,590.42,917.76c-3.08,38.37,1.43,51.89-6.12,96.41-6.25,36.6-10.94,63.89-27.41,88.46-22,32.77-54.44,45.51-83.6,56.85-27.55,10.72-38,8.77-50.49,23.73-16.53,19.77-20.75,50.59-21.7,73.77,18.22,100.13,51,166.78,74.69,205.43C509.52,1517.77,537.14,1562.29,587.17,1575.7Z" transform="translate(-326.41 -479.57)"/><path class="g" d="M596.39,1564c32.82,8.75,38.56-6.14,144.05-19.35,54-7,81.47-7.38,96.3-5.59,8.77,1.18,13.27,3,16.44,4.33,32.35,14.14,32.7,32,83.72,63.13,27.33,16.63,45,27,66.94,27.78a89.44,89.44,0,0,0,9-.22c7.58-.53,29.9-3.29,81.06-42.8,50.88-39.29,88.92-67.67,123-128.61,12.86-23.06,43-78.35,47.46-147.37,3.18-47.94-8.86-51.43-13.64-146.26-3.62-71.42,2.5-94.64,7.79-109.66,9.93-28.23,18.26-29.41,42.88-79.24,19.38-39.22,29.51-61.36,34.08-92.36,6.08-41.26-2.07-73.18-6.43-86.19-.72-2.15-1.28-3.77-1.67-4.75-5.45-13.67-22-51.78-59.61-63.32-21.61-6.63-41.33-.63-51.66,2.53-33.38,10.27-38.16,29.82-64,37.33-14.45,4.21-26.83,2.16-42.15-4.92-9.58-4.41-20.15-10.62-33.11-18.09-31.07-17.77-52.2-36.84-68.83-52.15-3.41-3.16-6.77-6.12-10-9-87.69-79-89.17-91.33-116.74-96.45-44-8.16-88.21,14.76-106,24.24-5.75,3.05-13,7-21.33,12.26a238.17,238.17,0,0,0-39.85,32.24c-32.85,32.8-51.43,68.87-64.16,93.89-12.56,24.83-44.53,89.8-51,170.89-3,37.1,1.26,50.24-6.09,93.27-6.08,35.39-10.66,61.82-26.59,85.61-21.25,31.75-52.63,44.2-80.78,55.26-26.6,10.44-36.74,8.63-48.76,23.14-16,19.17-20,49-20.94,71.43,17.57,97,49.35,161.73,72.4,199.33C521,1507.84,547.86,1551,596.39,1564Z" transform="translate(-326.41 -479.57)"/><path class="h" d="M605.64,1552.18c31.87,8.48,37.7-5.9,139.48-18.75,52.24-6.83,78.86-7.35,93.22-5.69a55.83,55.83,0,0,1,15.92,4.14c31.33,13.48,31.84,30.67,81.19,60.65,26.42,16,43.61,26,64.85,26.78a86.55,86.55,0,0,0,8.76-.21c7.48-.5,29.06-3.13,78.46-41,49.22-37.77,86-64.84,119.19-123.58,12.52-22.23,41.59-75.51,46.06-142,3.11-46.23-8.31-49.68-12.81-141.11-3.41-68.85,2.55-91.29,7.7-105.86,9.61-27.25,17.69-28.46,41.41-76.56,18.78-38.06,28.51-59.7,32.86-89.81,5.78-40-2.19-71-6.52-83.63-.7-2.07-1.25-3.64-1.65-4.6-5.44-13.38-21.53-49.93-58.11-61.23-20.86-6.43-40-.77-50,2.24-32.25,9.65-36.94,28.51-61.89,35.6-14,4-25.94,1.88-40.73-5-9.27-4.34-19.45-10.45-32-17.72-29.9-17.37-50.24-35.86-66.34-50.9-3.29-3.08-6.54-6-9.66-8.81-84.49-76.8-86-88.84-112.79-93.92-42.69-8.11-85.72,14.23-103.2,23.54-5.64,3-12.73,6.83-20.77,12A233.77,233.77,0,0,0,719.53,678c-31.88,31.87-50,66.89-62.47,91.38-12.27,24.1-43.13,86.88-49.46,165.16-3,35.84,1.08,48.62-6,90.15-5.94,34.19-10.39,59.74-25.78,82.76-20.54,30.74-50.82,42.87-78,53.64-25.64,10.16-35.42,8.49-47,22.55-15.39,18.57-19.31,47.37-20.2,69.09,16.9,93.88,47.67,156.68,70.12,193.22C532.41,1497.9,558.58,1539.61,605.64,1552.18Z" transform="translate(-326.41 -479.57)"/><path class="i" d="M614.86,1540.39c31,8.23,36.8-5.42,134.91-18.13,50.48-6.54,76.27-7.33,90.15-5.8a53.82,53.82,0,0,1,15.4,3.93c30.31,12.83,31,29.38,78.64,58.17,25.55,15.39,42.21,25,62.77,25.78,2.74.1,5.56,0,8.46-.2,7.37-.44,28.23-3,75.87-39.27s83.14-62,115.35-118.54c12.15-21.4,40.21-72.68,44.65-136.72,3.09-44.52-7.75-47.93-12-135.95-3.21-66.29,2.6-88,7.61-102.05,9.31-26.28,17.11-27.53,39.94-73.88,18.18-36.9,27.51-58,31.65-87.27,5.48-38.74-2.31-68.72-6.59-81.06-.7-2-1.24-3.51-1.62-4.46-5.44-13.07-21.06-48.1-56.63-59.13-20.1-6.24-38.59-.89-48.37,2-31.1,9-35.72,27.21-59.81,33.87-13.48,3.72-25,1.66-39.31-5.15-9-4.28-18.76-10.27-30.78-17.36-28.77-16.89-48.29-34.89-63.87-49.68-3.17-3-6.29-5.81-9.31-8.57-81.29-74.56-82.91-86.33-108.83-91.39-41.38-8.06-83.25,13.67-100.37,22.85-5.51,2.95-12.42,6.66-20.2,11.67a225.23,225.23,0,0,0-37.7,30.61c-30.9,30.92-48.56,64.94-60.78,88.9-11.94,23.4-41.63,84-48,159.44-2.89,34.58.9,47-6,87-5.76,33-10.1,57.67-25,79.91-19.82,29.71-49,41.56-75.17,52-24.68,9.88-34.1,8.36-45.28,22-14.79,18-18.59,45.76-19.44,66.75,16.25,90.78,46,151.61,67.84,187.12C543.85,1488,569.3,1528.27,614.86,1540.39Z" transform="translate(-326.41 -479.57)"/><path class="j" d="M624.11,1528.65c30,7.94,35.91-5.18,130.34-17.53,48.73-6.37,73.69-7.34,87.07-5.91,7.89,1,12,2.5,14.9,3.73,29.29,12.18,30.11,28.07,76.09,55.7,24.68,14.77,40.8,24,60.68,24.77,2.64.09,5.37,0,8.17-.17,7.25-.4,27.4-2.83,73.27-37.52s80.25-59.21,111.51-113.52c11.79-20.55,38.84-69.83,43.26-131.39,3.07-42.8-7.21-46.18-11.16-130.8-3-63.71,2.66-84.61,7.51-98.26,9-25.31,16.52-26.6,38.47-71.2,17.58-35.74,26.51-56.38,30.43-84.74,5.18-37.47-2.43-66.47-6.68-78.48-.68-1.93-1.18-3.43-1.58-4.32-5.43-12.75-20.57-46.23-55.13-57-19.36-6.05-37.23-1-46.73,1.66-30,8.41-34.52,25.9-57.73,32.13-13,3.49-24.16,1.43-37.89-5.25-8.66-4.21-18.07-10.1-29.63-17-27.63-16.42-46.33-33.91-61.39-48.44-3-2.93-6-5.66-8.95-8.34-78.12-72.3-79.78-83.84-104.89-88.87-40-8-80.77,13.12-97.53,22.15-5.39,2.9-12.1,6.52-19.62,11.36a220,220,0,0,0-36.64,29.8c-29.93,30-47.11,63-59.08,86.42-11.62,22.7-40.22,81.08-46.43,153.71-2.84,33.32.72,45.34-6,83.9-5.6,31.81-9.83,55.6-24.15,77.06-19.11,28.69-47.17,40.24-72.35,50.43-23.72,9.6-32.8,8.22-43.54,21.38-14.23,17.34-17.88,44.15-18.7,64.41,15.6,87.65,44.29,146.59,65.57,181C555.3,1478,580,1516.93,624.11,1528.65Z" transform="translate(-326.41 -479.57)"/><path class="k" d="M633.34,1516.88c29.09,7.67,35-4.93,125.78-16.92,47-6.2,71.08-7.3,84-6a52,52,0,0,1,14.37,3.54c28.28,11.54,29.26,26.76,73.56,53.22,23.78,14.13,39.39,23,58.6,23.76,2.56.1,5.18,0,7.88-.15,7.14-.37,26.57-2.67,70.67-35.77s77.36-56.36,107.66-108.47c11.42-19.72,37.46-67,41.87-126,3-41.09-6.66-44.42-10.33-125.64-2.8-61.15,2.7-81.26,7.41-94.47,8.68-24.34,16-25.65,37-68.53,17-34.58,25.51-54.71,29.21-82.19,4.9-36.23-2.56-64.23-6.75-75.93-.68-1.83-1.17-3.28-1.55-4.16-5.42-12.44-20.09-44.39-53.65-55-18.61-5.86-35.84-1.13-45.09,1.36-28.84,7.8-33.3,24.59-55.64,30.41-12.52,3.24-23.28,1.19-36.47-5.36-8.33-4.17-17.38-9.9-28.48-16.58C1026.9,792,1009,775,994.47,760.76c-2.91-2.85-5.81-5.5-8.6-8.11-74.91-70.07-76.65-81.34-100.93-86.34-38.74-7.95-78.3,12.57-94.7,21.44-5.26,2.83-11.79,6.39-19,11.07a213.31,213.31,0,0,0-35.57,29c-29,29.05-45.64,61-57.39,83.94-11.29,22-38.82,78.18-44.9,148-2.79,32.06.55,43.7-5.93,80.76-5.44,30.61-9.56,53.54-23.33,74.22-18.4,27.66-45.36,38.91-69.55,48.82-22.76,9.33-31.49,8.08-41.8,20.79-13.65,16.73-17.17,42.54-18,62.07,14.93,84.56,42.62,141.52,63.28,174.92C566.75,1468.1,590.73,1505.59,633.34,1516.88Z" transform="translate(-326.41 -479.57)"/><path class="l" d="M642.57,1505.12c28.16,7.4,34.15-4.7,121.21-16.31,45.22-6,68.48-7.27,80.94-6.14a49.44,49.44,0,0,1,13.84,3.35c27.25,10.89,28.4,25.46,71,50.74,22.89,13.51,38,22,56.51,22.75,2.47.09,5,0,7.59-.13,7-.31,25.72-2.53,68.08-34,42.57-31.64,74.46-53.53,103.8-103.45,11-18.88,36.08-64.15,40.45-120.74,3-39.39-6.11-42.67-9.5-120.49-2.59-58.58,2.76-77.92,7.33-90.68,8.37-23.37,15.37-24.73,35.51-65.82,16.38-33.42,24.51-53.06,28-79.66,4.58-34.95-2.67-62-6.83-73.36-.64-1.79-1.14-3.16-1.52-4-5.43-12.12-19.61-42.52-52.15-52.84-17.85-5.66-34.46-1.25-43.44,1.08-27.69,7.19-32.08,23.3-53.57,28.66-12,3-22.39.95-35-5.47-8-4.09-16.69-9.71-27.32-16.2-25.35-15.46-42.41-32-56.43-46-2.79-2.77-5.56-5.32-8.25-7.87-71.71-67.82-73.52-78.85-97-83.8-37.42-7.91-75.82,12-91.86,20.75-5.15,2.8-11.48,6.25-18.48,10.78A207.43,207.43,0,0,0,741,744.44c-28,28.13-44.19,59.08-55.7,81.46-11,21.3-37.42,75.28-43.38,142.27-2.74,30.81.43,42.08-5.89,77.65-5.23,29.42-9.28,51.46-22.52,71.36-17.69,26.65-43.54,37.6-66.73,47.22-21.8,9-30.17,8-40.06,20.21-13.07,16.15-16.46,40.92-17.21,59.73,14.29,81.42,41,136.4,61,168.82C578.27,1458.07,601.46,1494.24,642.57,1505.12Z" transform="translate(-326.41 -479.57)"/><path class="m" d="M651.81,1493.35c27.23,7.13,33.28-4.43,116.64-15.7,43.45-5.87,65.9-7.27,77.86-6.25a50.14,50.14,0,0,1,13.34,3.13c26.24,10.25,27.54,24.15,68.48,48.27,22,12.88,36.56,21,54.42,21.75,2.37.1,4.81,0,7.31-.12,6.92-.29,24.88-2.36,65.47-32.24,40.91-30.11,71.58-50.71,100-98.4,10.69-18,34.71-61.32,39-115.42,3-37.68-5.55-40.93-8.65-115.35-2.39-56,2.8-74.58,7.22-86.87,8-22.4,14.78-23.76,34-63.16,15.78-32.26,23.52-51.39,26.79-77.1,4.28-33.7-2.79-59.78-6.91-70.8-.64-1.71-1.12-3.05-1.49-3.86-5.42-11.83-19.13-40.68-50.66-50.75-17.09-5.49-33.08-1.38-41.8.79-26.54,6.58-30.87,22-51.49,26.93-11.55,2.76-21.51.71-33.61-5.57-7.74-4-16-9.53-26.16-15.82-24.22-15-40.45-31-54-44.74-2.65-2.71-5.33-5.19-7.9-7.65-68.52-65.57-70.38-76.33-93-81.29-36.1-7.84-73.34,11.48-89,20.06-5,2.75-11.16,6.11-17.9,10.48A201.71,201.71,0,0,0,746.4,761c-27,27.19-42.74,57.14-54,79-10.64,20.61-36,72.38-41.86,136.56-2.69,29.55.25,40.44-5.86,74.51-5.06,28.21-9,49.38-21.7,68.51-17,25.63-41.73,36.28-63.91,45.63-20.85,8.77-28.86,7.83-38.33,19.61-12.49,15.55-15.74,39.32-16.45,57.4,13.63,78.3,39.31,131.34,58.71,162.7C589.72,1448.12,612.17,1482.91,651.81,1493.35Z" transform="translate(-326.41 -479.57)"/><path class="n" d="M661,1481.6c26.3,6.85,32.41-4.2,112.08-15.11,41.69-5.7,63.3-7.25,74.78-6.35a48.73,48.73,0,0,1,12.83,2.93c25.21,9.6,26.68,22.84,65.94,45.79,21.12,12.26,35.15,20,52.33,20.74,2.28.09,4.62,0,7-.1,6.81-.25,24.05-2.23,62.88-30.49,39.25-28.57,68.68-47.87,96.12-93.36,10.32-17.21,33.34-58.46,37.64-110.1,3-36-5-39.17-7.83-110.18-2.19-53.43,2.85-71.24,7.12-83.07,7.75-21.41,14.22-22.85,32.59-60.49,15.17-31.1,22.52-49.73,25.58-74.57,4-32.42-2.92-57.53-7-68.22-.62-1.64-1.08-2.93-1.45-3.72-5.42-11.51-18.65-38.81-49.17-48.65-16.34-5.29-31.7-1.5-40.15.49-25.41,6-29.66,20.68-49.41,25.2-11.07,2.52-20.63.48-32.2-5.68-7.43-4-15.31-9.34-25-15.44-23.08-14.51-38.49-30-51.47-43.51-2.53-2.63-5.09-5-7.55-7.42-65.33-63.31-67.26-73.85-89.08-78.78-34.79-7.79-70.87,10.94-86.2,19.37-4.9,2.7-10.84,6-17.32,10.2a195,195,0,0,0-32.35,26.52c-26,26.24-41.28,55.18-52.32,76.5-10.31,19.91-34.6,69.47-40.33,130.84-2.64,28.28.08,38.79-5.82,71.39-4.9,27-8.74,47.3-20.88,65.66-16.27,24.61-39.92,35-61.11,44-19.89,8.49-27.54,7.69-36.58,19-11.91,14.93-15,37.71-15.72,55,13,75.18,37.64,126.29,56.44,156.6C601.18,1438.19,622.89,1471.57,661,1481.6Z" transform="translate(-326.41 -479.57)"/><path class="o" d="M670.28,1469.85c25.37,6.58,31.53-3.95,107.51-14.5,39.94-5.54,60.72-7.24,71.72-6.47a48.3,48.3,0,0,1,12.31,2.73c24.18,9,25.83,21.55,63.42,43.34,20.23,11.63,33.73,19,50.24,19.73,2.18.1,4.43,0,6.73-.08,6.69-.21,23.22-2.07,60.28-28.73,37.58-27,65.78-45,92.27-88.33,10-16.37,32-55.63,36.24-104.77,3-34.25-4.44-37.41-7-105-2-50.88,2.89-67.9,7-79.28,7.44-20.46,13.65-21.93,31.11-57.79,14.57-30,21.52-48.07,24.36-72,3.69-31.17-3-55.3-7.07-65.66-.61-1.57-1-2.79-1.42-3.57-5.4-11.21-18.18-37-47.68-46.56-15.6-5.08-30.32-1.62-38.51.21-24.25,5.4-28.44,19.37-47.33,23.46-10.58,2.28-19.73.23-30.77-5.79-7.12-3.89-14.63-9.16-23.85-15.06-21.94-14-36.52-29-49-42.27-2.39-2.57-4.84-4.87-7.2-7.19-62.14-61.06-64.13-71.36-85.12-76.24-33.46-7.74-68.39,10.39-83.35,18.67-4.79,2.64-10.54,5.83-16.77,9.89a189.75,189.75,0,0,0-31.27,25.72c-25.08,25.3-39.82,53.22-50.62,74-10,19.21-33.19,66.55-38.8,125.1-2.59,27-.1,37.16-5.8,68.25-4.72,25.82-8.44,45.25-20,62.81-15.56,23.59-38.11,33.65-58.3,42.41-18.93,8.21-26.24,7.56-34.85,18.45-11.34,14.33-14.32,36.08-15,52.71,12.28,72,35.93,121.21,54.14,150.47C612.63,1428.25,633.61,1460.22,670.28,1469.85Z" transform="translate(-326.41 -479.57)"/><path class="p" d="M679.51,1458.07c24.44,6.31,30.65-3.71,102.94-13.89,38.18-5.37,58.12-7.22,68.64-6.58a47.84,47.84,0,0,1,11.8,2.53c23.15,8.33,25,20.23,60.86,40.84,19.34,11,32.33,18,48.16,18.74,2.1.1,4.23,0,6.44-.06,6.59-.17,22.4-1.91,57.69-27,35.93-25.51,63-42.16,88.43-83.3,9.6-15.53,30.58-52.79,34.84-99.44,3-32.54-3.9-35.66-6.18-99.86-1.78-48.31,2.94-64.56,6.93-75.48,7.11-19.48,13.06-21,29.63-55.12,14-28.79,20.53-46.42,23.15-69.49,3.4-29.9-3.15-53.06-7.15-63.09-.59-1.5-1-2.7-1.39-3.42-5.41-10.89-17.7-35.12-46.18-44.47-14.85-4.87-28.94-1.74-36.88-.09C1098.13,883.73,1094,897,1076,900.65c-10.09,2-18.85,0-29.35-5.9-6.82-3.82-13.93-9-22.69-14.68-20.81-13.55-34.57-28-46.52-41-2.28-2.47-4.6-4.72-6.84-6.95-59-58.8-61-68.87-81.17-73.7-32.14-7.69-65.92,9.82-80.52,18-4.68,2.6-10.23,5.69-16.2,9.59a184,184,0,0,0-30.21,24.9c-24.11,24.36-38.36,51.27-48.93,71.53-9.66,18.49-31.8,63.7-37.28,119.41-2.53,25.78-.27,35.52-5.75,65.13-4.55,24.61-8.18,43.18-19.24,60-14.85,22.57-36.29,32.33-55.49,40.8-18,7.94-24.92,7.42-33.11,17.86-10.77,13.74-13.6,34.48-14.22,50.37,11.68,68.95,34.28,116.18,51.88,144.39C624.09,1418.31,644.33,1448.88,679.51,1458.07Z" transform="translate(-326.41 -479.57)"/><path class="q" d="M688.74,1446.3c23.51,6,29.78-3.47,98.38-13.28,36.42-5.21,55.52-7.2,65.57-6.69a45.19,45.19,0,0,1,11.27,2.34c22.14,7.7,24.1,18.92,58.32,38.37,18.46,10.37,30.92,17,46.07,17.71,2,.1,4,0,6.15,0,6.48-.12,21.56-1.75,55.08-25.21,34.28-24,60.07-39.33,84.59-78.26,9.25-14.68,29.2-50,33.44-94.12,3-30.84-3.35-33.91-5.35-94.71-1.57-45.74,3-61.21,6.83-71.68,6.8-18.51,12.48-20,28.16-52.44,13.38-27.63,19.54-44.75,21.94-66.95,3.1-28.63-3.27-50.82-7.22-60.53-.59-1.42-1-2.57-1.36-3.27-5.41-10.57-17.22-33.27-44.69-42.37-14.11-4.68-27.56-1.85-35.23-.38-22,4.25-26,16.77-43.17,20-9.6,1.79-18-.24-27.92-6-6.52-3.77-13.25-8.79-21.55-14.3-19.66-13.08-32.6-27.06-44-39.82-2.15-2.4-4.38-4.55-6.5-6.72-55.76-56.54-57.87-66.37-77.21-71.19-30.83-7.63-63.44,9.31-77.68,17.28-4.55,2.54-9.91,5.55-15.62,9.29a178.28,178.28,0,0,0-29.14,24.08c-23.15,23.43-36.91,49.33-47.24,69.06-9.33,17.81-30.39,60.77-35.76,113.67-2.5,24.52-.44,33.89-5.72,62-4.4,23.43-7.9,41.12-18.43,57.11-14.14,21.56-34.46,31-52.68,39.2-17,7.65-23.62,7.28-31.36,17.27-10.2,13.13-12.89,32.87-13.47,48,11,65.83,32.6,111.12,49.59,138.28C635.53,1408.37,655.05,1437.54,688.74,1446.3Z" transform="translate(-326.41 -479.57)"/><path class="r" d="M698,1434.54c22.58,5.78,28.89-3.23,93.8-12.67,34.67-5,52.93-7.19,62.5-6.81a46.63,46.63,0,0,1,10.76,2.13c21.11,7.06,23.24,17.62,55.78,35.91,17.57,9.75,29.5,16,44,16.71,1.91.09,3.87,0,5.87,0,6.36-.09,20.73-1.6,52.48-23.46,32.62-22.45,57.16-36.48,80.75-73.22,8.88-13.84,27.82-47.12,32-88.8,2.94-29.12-2.8-32.15-4.54-89.54-1.36-43.16,3-57.86,6.74-67.88,6.47-17.53,11.9-19.11,26.69-49.75,12.78-26.48,18.54-43.09,20.73-64.42,2.8-27.37-3.39-48.58-7.31-58-.57-1.35-1-2.45-1.33-3.12-5.41-10.26-16.74-31.42-43.2-40.28-13.36-4.47-26.18-2-33.58-.66-20.8,3.67-24.8,15.45-41.1,18.25-9.15,1.58-17.09-.49-26.51-6.12-6.2-3.71-12.55-8.6-20.38-13.92-18.53-12.59-30.65-26.07-41.56-38.58-2-2.31-4.12-4.39-6.14-6.48-52.57-54.27-54.75-63.85-73.26-68.66-29.51-7.58-61,8.75-74.85,16.58-4.43,2.5-9.59,5.42-15,9A171.13,171.13,0,0,0,773.21,844c-22.18,22.48-35.46,47.38-45.55,66.58-9,17.11-29,57.87-34.25,108-2.44,23.26-.6,32.26-5.67,58.88-4.22,22.23-7.62,39-17.6,54.26-13.43,20.53-32.66,29.69-49.87,37.59-16,7.38-22.31,7.15-29.63,16.69-9.62,12.52-12.18,31.25-12.73,45.69,10.37,62.71,30.93,106.06,47.32,132.18C647,1398.43,665.77,1426.2,698,1434.54Z" transform="translate(-326.41 -479.57)"/><path class="s" d="M707.21,1422.77c21.65,5.5,28-3,89.25-12.07,32.9-4.88,50.33-7.17,59.42-6.91a45.47,45.47,0,0,1,10.25,1.92c20.07,6.44,22.34,16.4,53.25,33.42,16.65,9.19,28.09,15,41.88,15.7,1.81.09,3.67,0,5.57,0,6.25,0,19.91-1.43,49.89-21.7,31-20.92,54.29-33.68,76.91-68.17,8.51-13,26.44-44.29,30.63-83.47,2.92-27.41-2.25-30.4-3.69-84.38-1.16-40.6,3.1-54.53,6.65-64.09,6.16-16.57,11.32-18.18,25.22-47.08,12.17-25.31,17.54-41.42,19.51-61.86,2.5-26.11-3.5-46.35-7.4-55.4-.55-1.28-.94-2.33-1.29-3-5.41-9.94-16.26-29.55-41.69-38.2-12.62-4.26-24.79-2.09-31.94-1-19.65,3.12-23.58,14.16-39,16.53-8.65,1.32-16.19-.74-25.08-6.22-5.9-3.64-11.87-8.42-19.23-13.54-17.39-12.12-28.69-25.08-39.08-37.34-1.9-2.24-3.88-4.25-5.79-6.26-49.39-52-51.62-61.37-69.31-66.12-28.17-7.55-58.48,8.19-72,15.88-4.32,2.45-9.28,5.27-14.47,8.7a165.31,165.31,0,0,0-27,22.45c-21.2,21.55-34,45.42-43.86,64.09-8.68,16.42-27.58,55-32.72,102.23-2.39,22-.78,30.62-5.64,55.73-4.06,21-7.35,37-16.79,51.42-12.72,19.51-30.86,28.39-47,36-15.1,7.09-21,7-27.9,16.1-9.05,11.92-11.46,29.65-12,43.36,9.71,59.59,29.24,101,45.06,126.06C658.44,1388.49,676.48,1414.86,707.21,1422.77Z" transform="translate(-326.41 -479.57)"/><path class="t" d="M716.44,1411c20.72,5.23,27.14-2.75,84.67-11.46,31.15-4.71,47.74-7.15,56.36-7a45.62,45.62,0,0,1,9.73,1.72c19,5.81,21.48,15.11,50.71,31,15.77,8.55,26.68,13.95,39.79,14.71,1.72.09,3.48,0,5.28,0,6.15,0,19.08-1.27,47.29-19.94,29.3-19.37,51.39-30.83,73-63.15,8.15-12.17,25.08-41.45,29.23-78.15,2.91-25.71-1.7-28.67-2.87-79.25-1-38,3.13-51.19,6.55-60.29,5.85-15.6,10.73-17.25,23.74-44.4,11.57-24.16,16.56-39.76,18.31-59.36,2.21-24.85-3.62-44.11-7.48-52.83-.53-1.21-.93-2.2-1.26-2.82-5.4-9.62-15.78-27.7-40.22-36.09-11.86-4.05-23.4-2.2-30.29-1.24-18.49,2.58-22.38,12.87-36.93,14.8-8.16,1.08-15.32-1-23.66-6.33-5.59-3.58-11.16-8.24-18.07-13.16-16.25-11.64-26.73-24.08-36.61-36.1-1.77-2.16-3.64-4.09-5.42-6-46.2-49.7-48.49-58.88-65.36-63.6-26.86-7.48-56,7.64-69.17,15.18-4.19,2.39-9,5.14-13.9,8.4A161,161,0,0,0,784,877.14c-20.22,20.62-32.53,43.47-42.16,61.62-8.34,15.71-26.18,52.07-31.19,96.5-2.34,20.76-1,29-5.6,52.63-3.9,19.84-7.06,34.92-16,48.56-12,18.49-29,27-44.24,34.39-14.14,6.81-19.69,6.86-26.16,15.51-8.46,11.31-10.74,28-11.21,41,9.06,56.48,27.56,96,42.76,120C669.9,1378.57,687.2,1403.52,716.44,1411Z" transform="translate(-326.41 -479.57)"/><path class="u" d="M725.68,1399.25c19.79,5,26.26-2.53,80.1-10.86,29.39-4.54,45.15-7.13,53.29-7.13a45.31,45.31,0,0,1,9.21,1.52c18,5.19,20.62,13.8,48.17,28.47,14.9,7.93,25.29,12.92,37.72,13.68,1.63.1,3.3,0,5,0,6,0,18.26-1.11,44.69-18.18,27.67-17.87,48.5-28,69.2-58.13,7.78-11.32,23.72-38.62,27.83-72.82,2.89-24-1.14-26.9-2-74.09-.76-35.46,3.18-47.84,6.45-56.48,5.53-14.63,10.15-16.31,22.27-41.72,11-23,15.56-38.1,17.08-56.79,1.92-23.58-3.72-41.88-7.54-50.26-.53-1.14-.9-2.09-1.25-2.65-5.42-9.32-15.31-25.85-38.73-34-11.12-3.85-22-2.31-28.66-1.54-17.32,2-21.15,11.54-34.85,13.06-7.67.84-14.43-1.22-22.23-6.44-5.29-3.53-10.48-8-16.92-12.78-15.11-11.15-24.77-23.08-34.12-34.87-1.65-2.08-3.4-3.94-5.09-5.8-43-47.41-45.36-56.38-61.4-61.07-25.55-7.42-53.53,7.1-66.34,14.49-4.07,2.34-8.65,5-13.33,8.11a153.37,153.37,0,0,0-24.86,20.81c-19.26,19.68-31.08,41.52-40.47,59.13-8,15-24.8,49.19-29.68,90.79-2.29,19.49-1.13,27.35-5.56,49.5-3.72,18.64-6.79,32.83-15.16,45.71-11.29,17.47-27.19,25.73-41.42,32.78-13.18,6.53-18.38,6.73-24.43,14.93-7.89,10.69-10,26.42-10.47,38.67,8.4,53.35,25.88,90.89,40.47,113.86C681.34,1368.62,697.92,1392.18,725.68,1399.25Z" transform="translate(-326.41 -479.57)"/><path class="v" d="M734.92,1387.48c18.85,4.69,25.38-2.28,75.53-10.24,27.64-4.39,42.55-7.12,50.21-7.25a43.89,43.89,0,0,1,8.71,1.35c17,4.57,19.76,12.49,45.63,26,14,7.3,23.86,11.94,35.62,12.68,1.55.11,3.12,0,4.71,0,5.91.08,17.44-.94,42.1-16.42,26-16.33,45.61-25.17,65.36-53.09,7.41-10.48,22.33-35.76,26.42-67.49,2.88-22.29-.59-25.15-1.21-68.93-.53-32.89,3.24-44.5,6.36-52.69,5.21-13.66,9.57-15.39,20.8-39,10.37-21.84,14.57-36.44,15.86-54.23,1.63-22.32-3.85-39.67-7.63-47.69-.5-1.08-.86-2-1.2-2.53-5.43-9-14.82-24-37.23-31.9-10.38-3.64-20.63-2.42-27-1.82-16.16,1.53-19.93,10.24-32.77,11.33-7.19.6-13.54-1.47-20.82-6.53-5-3.47-9.8-7.85-15.76-12.4C974.62,956,966.85,943,957,933c-1.72-1.73-3.16-3.77-4.74-5.56-39.84-45.11-42.23-53.89-57.45-58.55-24.23-7.37-51,6.55-63.5,13.8-3.95,2.28-8.34,4.85-12.76,7.8a147.21,147.21,0,0,0-23.79,20c-18.29,18.74-29.62,39.58-38.78,56.65-7.7,14.34-23.38,46.28-28.14,85.05-2.24,18.23-1.3,25.71-5.52,46.37-3.56,17.44-6.52,30.77-14.34,42.87-10.58,16.45-25.38,24.4-38.62,31.17-12.22,6.24-17.07,6.59-22.68,14.33-7.32,10.1-9.31,24.81-9.73,36.34,7.72,50.18,24.18,85.81,38.18,107.72C692.78,1358.68,708.64,1380.83,734.92,1387.48Z" transform="translate(-326.41 -479.57)"/><path class="w" d="M744.15,1375.72c17.92,4.41,24.5-2,71-9.64,25.88-4.22,40-7.1,47.13-7.36a44,44,0,0,1,8.19,1.13c15.92,4,18.89,11.19,43.08,23.51,13.11,6.69,22.45,10.93,33.54,11.68,1.44.09,2.92,0,4.42.07,5.81.14,16.62-.78,39.5-14.66,24.38-14.81,42.71-22.34,61.5-48.07,7-9.65,21-32.94,25-62.17,2.86-20.59,0-23.4-.38-63.78-.34-30.33,3.29-41.13,6.27-48.9,4.88-12.68,9-14.45,19.32-36.35,9.77-20.68,13.58-34.77,14.66-51.71,1.33-21-3.95-37.41-7.71-45.12-.49-1-.84-1.85-1.17-2.38-5.44-8.67-14.35-22.13-35.74-29.81-9.63-3.43-19.24-2.52-25.36-2.11-15,1-18.72,8.93-30.69,9.59-6.71.36-12.66-1.73-19.39-6.65-4.67-3.41-9.12-7.68-14.6-12-12.84-10.19-19.76-22.66-29.17-32.4-1.58-1.65-2.91-3.62-4.38-5.33-36.67-42.81-39.1-51.39-53.51-56-22.9-7.32-48.56,6-60.66,13.09-3.83,2.24-8,4.72-12.18,7.51A141.55,141.55,0,0,0,800.08,927c-17.31,17.8-28.16,37.62-37.09,54.17-7.36,13.65-22,43.37-26.62,79.34-2.2,17-1.48,24.08-5.5,43.23-3.4,16.24-6.24,28.69-13.53,40-9.87,15.44-23.56,23.09-35.8,29.57-11.26,6-15.76,6.45-20.95,13.75-6.74,9.49-8.6,23.18-9,34,7.09,47.11,22.53,80.76,35.9,101.67C704.23,1348.74,719.36,1369.5,744.15,1375.72Z" transform="translate(-326.41 -479.57)"/><path class="x" d="M753.39,1364c17,4.13,23.63-1.83,66.39-9,24.12-4.06,37.36-7.09,44.07-7.47a44.78,44.78,0,0,1,7.67.93c14.88,3.35,18,9.89,40.54,21,12.23,6,21,9.93,31.45,10.67,1.35.09,2.73,0,4.13.09,5.7.19,15.81-.61,36.9-12.91,22.75-13.27,39.83-19.51,57.67-43a132.23,132.23,0,0,0,23.62-56.84c2.85-18.88.58-21.67.45-58.63-.08-27.78,3.33-37.81,6.17-45.09,4.57-11.72,8.39-13.52,17.85-33.67,9.17-19.53,12.59-33.11,13.44-49.17,1-19.8-4-35.2-7.78-42.56a22.21,22.21,0,0,0-1.14-2.23c-5.86-7.82-13.87-20.26-34.25-27.71-8.87-3.2-17.84-2.64-23.72-2.4-13.83.56-17.5,7.63-28.61,7.87-6.23.11-11.77-2-18-6.78-4.39-3.38-8.42-7.47-13.45-11.64-11.7-9.71-17.77-21.65-26.69-31.18-1.47-1.57-2.68-3.46-4-5.09-33.49-40.48-36-48.9-49.55-53.5-21.59-7.26-46.09,5.46-57.82,12.4-3.71,2.19-7.72,4.59-11.62,7.22a135.8,135.8,0,0,0-21.64,18.38c-16.34,16.87-26.69,35.69-35.39,51.69-7,13-20.59,40.48-25.11,73.63-2.14,15.71-1.66,22.44-5.45,40.11-3.24,15-6,26.62-12.69,37.15-9.16,14.42-21.75,21.76-33,28-10.29,5.68-14.45,6.32-19.21,13.16-6.17,8.88-7.87,21.57-8.23,31.67,6.44,44,20.83,75.73,33.63,95.54C715.68,1338.81,730.09,1358.17,753.39,1364Z" transform="translate(-326.41 -479.57)"/><path class="y" d="M762.62,1352.19c16.06,3.87,22.76-1.61,61.83-8.43,22.37-3.9,34.77-7.06,41-7.58a48.54,48.54,0,0,1,7.14.74c13.83,2.76,17.18,8.59,38,18.56,11.34,5.43,19.63,8.93,29.36,9.67,1.26.08,2.54,0,3.84.11,5.59.23,15-.43,34.3-11.15,21.12-11.74,36.93-16.68,53.82-38,6.33-8,18.22-27.27,22.22-51.52,2.84-17.18,1.13-19.91,1.28-53.47.11-25.2,3.38-34.47,6.07-41.3,4.25-10.75,7.82-12.59,16.38-31s11.6-31.44,12.23-46.62c.76-18.52-4.15-33-7.87-40a18.45,18.45,0,0,0-1.1-2.07c-5.87-7.51-13.41-18.38-32.76-25.62-8.13-3-16.45-2.74-22.07-2.69-12.67.1-16.3,6.32-26.53,6.13-5.75-.13-10.88-2.26-16.55-6.87-4.06-3.31-7.73-7.29-12.29-11.26-10.56-9.23-15.79-20.62-24.21-29.94-1.34-1.49-2.44-3.3-3.68-4.87-30.33-38.15-32.84-46.4-45.59-51-20.28-7.21-43.61,4.9-55,11.71-3.6,2.13-7.41,4.44-11.05,6.92a129.48,129.48,0,0,0-20.58,17.55c-15.36,15.93-25.24,33.72-33.7,49.21-6.7,12.25-19.19,37.57-23.59,67.9-2.09,14.45-1.83,20.8-5.41,37-3.06,13.85-5.7,24.54-11.89,34.31-8.46,13.38-19.92,20.44-30.18,26.36-9.34,5.39-13.14,6.18-17.47,12.58-5.6,8.26-7.17,20-7.5,29.31,5.79,40.87,19.16,70.67,31.36,89.43C727.12,1328.88,740.8,1346.81,762.62,1352.19Z" transform="translate(-326.41 -479.57)"/><path class="z" d="M771.86,1340.44c15.13,3.6,21.88-1.39,57.26-7.8,20.61-3.74,32.17-7.05,37.93-7.69a51,51,0,0,1,6.64.54c12.78,2.17,16.31,7.28,35.47,16.08,10.45,4.81,18.21,7.92,27.27,8.66,1.16.09,2.35.06,3.55.13,5.48.29,14.21-.24,31.7-9.39,19.51-10.2,34-13.85,50-33,5.95-7.13,16.85-24.44,20.82-46.19,2.82-15.48,1.68-18.15,2.1-48.31.32-22.64,3.42-31.13,6-37.5,3.92-9.79,7.21-11.68,14.91-28.32,8-17.22,10.6-29.76,11-44.09.49-17.25-4.25-30.72-7.94-37.42a17.8,17.8,0,0,0-1.07-1.93c-5.86-7.18-12.92-16.53-31.27-23.52-7.38-2.81-15-2.83-20.44-3-11.5-.33-15.08,5-24.45,4.4-5.26-.37-10-2.52-15.11-7-3.76-3.26-7-7.1-11.14-10.88-9.42-8.74-13.82-19.56-21.73-28.71-1.22-1.41-2.19-3.14-3.32-4.63-27.18-35.79-29.72-43.91-41.65-48.45-19-7.16-41.13,4.36-52.15,11-3.47,2.09-7.09,4.31-10.46,6.61a123.26,123.26,0,0,0-19.51,16.73c-14.4,15-23.78,31.78-32,46.73-6.37,11.56-17.79,34.68-22.06,62.18-2.06,13.2-2,19.17-5.38,33.87-2.9,12.65-5.43,22.48-11.07,31.46-7.76,12.36-18.1,19.11-27.36,24.74-8.39,5.09-11.83,6-15.75,12-5,7.66-6.45,18.36-6.74,27,5.14,37.76,17.48,65.63,29.08,83.33C738.57,1319,751.52,1335.47,771.86,1340.44Z" transform="translate(-326.41 -479.57)"/><path class="aa" d="M781.09,1328.66c14.18,3.36,21-1.18,52.69-7.21,18.86-3.59,29.58-7,34.86-7.8a51.76,51.76,0,0,1,6.12.33c11.72,1.59,15.45,6,32.92,13.61,9.56,4.19,16.8,6.9,25.19,7.65,1.07.09,2.17.07,3.26.14,5.36.36,13.42,0,29.11-7.63,17.89-8.66,31.14-11,46.13-27.91,5.59-6.29,15.48-21.61,19.4-40.89,2.81-13.78,2.23-16.4,2.94-43.15.52-20.07,3.46-27.79,5.88-33.71,3.6-8.81,6.62-10.75,13.43-25.63,7.36-16.06,9.63-28.11,9.8-41.55.2-16-4.34-28.5-8-34.86-.42-.72-.73-1.37-1-1.78-5.5-7.36-12.43-14.65-29.77-21.43-6.63-2.6-13.65-2.92-18.79-3.27-10.33-.72-13.86,3.71-22.37,2.66-4.77-.61-9.1-2.79-13.7-7.08-3.43-3.2-6.35-6.91-10-10.51-8.29-8.23-13.09-17-19.26-27.47a30,30,0,0,0-3-4.4c-26.11-30.55-26.58-41.41-37.68-45.91-17.63-7.13-38.66,3.81-49.32,10.31-3.35,2-6.77,4.17-9.91,6.32a117.49,117.49,0,0,0-18.44,15.91c-13.43,14.06-22.32,29.84-30.32,44.26-6,10.85-16.41,31.81-20.54,56.45-2,12-2.18,17.54-5.34,30.74-2.73,11.46-5.14,20.4-10.25,28.61-7,11.34-16.28,17.78-24.56,23.15-7.41,4.81-10.52,5.9-14,11.4-4.45,7-5.74,16.75-6,24.67,4.48,34.63,15.79,60.57,26.8,77.22C750,1309,762.22,1324.19,781.09,1328.66Z" transform="translate(-326.41 -479.57)"/><path class="ab" d="M790.32,1316.9c13.26,3.1,20.14-1,48.13-6.61,17.1-3.44,27-7,31.78-7.91,2.57,0,4.22,0,5.61.13,10.66,1,14.59,4.66,30.38,11.14,8.68,3.55,15.4,5.93,23.1,6.64,1,.09,2,.08,3,.16,5.25.42,12.64.18,26.51-5.87,16.3-7.11,28.23-8.19,42.29-22.88,5.23-5.47,14.12-18.79,18-35.55,2.8-12.08,2.78-14.65,3.76-38,.73-17.5,3.51-24.45,5.79-29.9,3.28-7.85,6-9.83,12-23,6.75-14.92,8.65-26.45,8.58-39-.07-14.72-4.44-26.28-8.1-32.3-.4-.65-.71-1.24-1-1.62-5.51-7-12-12.78-28.28-19.34-5.88-2.38-12.25-3-17.14-3.56-9.18-1.07-12.65,2.41-20.3.93-4.29-.85-8.2-3.07-12.26-7.21-3.14-3.18-5.66-6.71-8.82-10.12-7.15-7.74-11.15-15.89-16.77-26.24a26.46,26.46,0,0,0-2.63-4.16c-22.95-28.31-23.45-38.92-33.74-43.4-16.31-7-36.18,3.26-46.48,9.62-3.21,2-6.46,4-9.32,6A111.4,111.4,0,0,0,827,1010c-12.45,13.12-20.85,27.89-28.62,41.77-5.7,10.17-15,28.89-19,50.74-2,10.69-2.36,15.9-5.29,27.6-2.58,10.27-4.88,18.33-9.44,25.77-6.34,10.32-14.46,16.44-21.76,21.54-6.45,4.51-9.21,5.76-12.25,10.82-3.88,6.44-5,15.14-5.25,22.3,3.82,31.53,14.1,55.51,24.52,71.14C761.44,1299.1,772.94,1312.84,790.32,1316.9Z" transform="translate(-326.41 -479.57)"/><path class="ac" d="M799.56,1305.14c12.33,2.82,19.26-.8,43.56-6,15.35-3.29,24.39-7,28.7-8,2.28-.07,3.81-.14,5.09-.07,9.61.5,13.74,3.36,27.85,8.66,7.79,2.93,14,4.92,21,5.64.89.09,1.79.09,2.69.18,5.15.47,11.87.42,23.91-4.11,14.71-5.54,25.34-5.36,38.44-17.84,4.85-4.63,12.76-16,16.61-30.23,2.8-10.38,3.33-12.89,4.59-32.84.94-14.93,3.55-21.11,5.69-26.11,2.94-6.88,5.43-8.9,10.49-20.27,6.14-13.76,7.68-24.78,7.37-36.47-.33-13.46-5-23.53-8.18-29.73a7.84,7.84,0,0,0-1-1.49c-5.56-6.7-11.49-10.87-26.8-17.24-5.14-2.14-10.85-3-15.49-3.86-8-1.4-11.44,1.11-18.21-.8-3.8-1.11-7.31-3.35-10.86-7.3-2.82-3.14-5-6.51-7.66-9.75-6-7.23-9.24-14.81-14.3-25-.68-1.38-1.47-2.65-2.27-3.94C913,1010,910.48,1002.13,901,997.68c-15-7-33.69,2.7-43.64,8.92-3.11,1.93-6.15,3.9-8.76,5.74a104.6,104.6,0,0,0-16.3,14.28c-11.49,12.18-19.39,25.94-26.93,39.29-5.36,9.48-13.63,26-17.5,45-1.92,9.44-2.54,14.27-5.25,24.47-2.41,9.07-4.59,16.26-8.62,22.92-5.62,9.3-12.63,15.09-18.94,19.94-5.51,4.2-7.9,5.61-10.52,10.22-3.3,5.83-4.31,13.53-4.5,20,3.17,28.4,12.42,50.47,22.24,65C772.89,1289.16,783.66,1301.5,799.56,1305.14Z" transform="translate(-326.41 -479.57)"/><path class="ad" d="M808.79,1293.37c11.42,2.54,18.39-.62,39-5.39,13.6-3.15,21.8-7,25.64-8.13,2-.14,3.36-.28,4.57-.29,8.53,0,12.88,2,25.31,6.19,6.91,2.3,12.57,3.92,18.91,4.64.79.09,1.6.11,2.39.2,5,.57,11.12.71,21.31-2.35,13.15-4,22.45-2.53,34.61-12.8,4.48-3.79,11.42-13.16,15.2-24.9,2.81-8.7,3.89-11.13,5.42-27.68,1.14-12.36,3.59-17.76,5.59-22.31,2.61-5.92,4.82-8,9-17.59a71,71,0,0,0,6.15-33.93,61.28,61.28,0,0,0-8.26-27.16,7.64,7.64,0,0,0-.94-1.34c-5.57-6.33-11-9-25.3-15.15a89.11,89.11,0,0,0-13.85-4.14c-6.85-1.68-10.22-.2-16.13-2.53a23.13,23.13,0,0,1-9.43-7.41c-2.51-3.11-4.15-6.5-6.52-9.36-5.19-6.31-7.35-13.73-11.82-23.77-.57-1.28-1.23-2.49-1.93-3.72-14.71-26.1-17.2-33.92-25.83-38.34-13.68-7-31.23,2.17-40.81,8.22-3,1.89-5.82,3.76-8.19,5.44a99,99,0,0,0-15.23,13.47c-10.52,11.24-17.92,24-25.24,36.81-5,8.79-12.26,23.11-16,39.3-1.88,8.19-2.73,12.63-5.22,21.35-2.26,7.88-4.32,14.2-7.81,20.07-4.92,8.26-10.8,13.75-16.14,18.35-4.52,3.9-6.59,5.47-8.78,9.65-2.73,5.21-3.6,11.91-3.75,17.62,2.26,22.55,9.14,42.88,20,58.9C784.33,1279.24,794.38,1290.14,808.79,1293.37Z" transform="translate(-326.41 -479.57)"/><path class="ae" d="M818,1281.61c10.47,2.27,17.51-.47,34.42-4.78,11.85-3,19.2-7,22.57-8.27,1.69-.18,2.94-.39,4.06-.47,7.47-.52,12,.73,22.77,3.71a116,116,0,0,0,16.83,3.63c.71.09,1.41.12,2.11.21a52.76,52.76,0,0,0,18.71-.6c11.6-2.29,19.54.3,30.76-7.77,4.11-3,10.1-10.36,13.8-19.58,2.83-7,4.44-9.37,6.25-22.52a56.59,56.59,0,0,1,5.5-18.52c2.27-5,4.2-7.09,7.55-14.91a63.28,63.28,0,0,0,4.95-31.39,54.73,54.73,0,0,0-8.35-24.59,6.72,6.72,0,0,0-.91-1.18c-5.59-6-10.57-7-23.8-13-3.68-1.67-8.09-3.06-12.22-4.46-5.73-1.9-9-1.5-14.06-4.27a19.2,19.2,0,0,1-8-7.51c-1.93-3.39-3.6-6.11-5.36-9-3.77-6.21-5.48-12.62-9.33-22.54-.46-1.18-1-2.32-1.58-3.49-11.67-23.57-14.07-31.43-21.89-35.81-12.35-6.9-28.74,1.62-38,7.53-2.87,1.83-5.51,3.63-7.61,5.14a91.71,91.71,0,0,0-14.16,12.65c-9.55,10.31-16.44,22.08-23.55,34.32-4.69,8.1-10.89,20.23-14.45,33.58-1.85,6.94-2.91,11-5.18,18.22-2.1,6.68-4,12.13-7,17.22a79,79,0,0,1-13.32,16.73c-3.55,3.55-5.3,5.31-7,9.06-2.16,4.59-2.88,10.3-3,15.28,1.75,20.3,7.87,38.59,17.67,52.8C795.76,1269.32,805.1,1278.8,818,1281.61Z" transform="translate(-326.41 -479.57)"/></svg>