<svg xmlns="http://www.w3.org/2000/svg" width="100" height="100" viewBox="0 0 100 100"><defs><style>.a{fill:#fff;}.b{fill:none;stroke:#a29ec0;stroke-linecap:round;stroke-linejoin:round;stroke-width:2px;}.c{fill:#b88dfc;}</style></defs><circle class="a" cx="50" cy="50" r="50"/><path class="b" d="M78.35,47.35V52.7H61.65V47.35" transform="translate(-20 -16)"/><path class="b" d="M61.65,41.35V36h16.7v5.35" transform="translate(-20 -16)"/><path class="b" d="M78.35,90.65V96H61.65V90.65" transform="translate(-20 -16)"/><path class="b" d="M61.65,84.65V79.3h16.7v5.35" transform="translate(-20 -16)"/><path class="b" d="M88.65,74.35H83.3V57.65h5.35" transform="translate(-20 -16)"/><path class="b" d="M94.65,57.65H100v16.7H94.65" transform="translate(-20 -16)"/><path class="b" d="M51.35,57.65H56.7v16.7H51.35" transform="translate(-20 -16)"/><path class="b" d="M45.35,74.35H40V57.65H51.35" transform="translate(-20 -16)"/><path class="b" d="M76.07,87.65H91.65v-16" transform="translate(-20 -16)"/><path class="b" d="M48.35,79.07v8.58H64.07" transform="translate(-20 -16)"/><path class="b" d="M64.07,44.35H40" transform="translate(-20 -16)"/><path class="b" d="M91.65,60.05V44.35H76.07" transform="translate(-20 -16)"/><path class="c" d="M91.65,69a3,3,0,1,0-3-3A3,3,0,0,0,91.65,69Z" transform="translate(-20 -16)"/><path class="c" d="M70,90.65a3,3,0,1,0-3-3A3,3,0,0,0,70,90.65Z" transform="translate(-20 -16)"/><path class="c" d="M73,44.35A3,3,0,0,1,72.5,46a3,3,0,0,1-4.62.45,3,3,0,0,1-.65-3.27,3,3,0,0,1,1.1-1.35,3,3,0,0,1,1.67-.5,3,3,0,0,1,3,3Z" transform="translate(-20 -16)"/><path class="b" d="M78.35,38.67h19v19" transform="translate(-20 -16)"/><path class="b" d="M61.24,38.67H40" transform="translate(-20 -16)"/><path class="b" d="M78.35,93.33h19v-19" transform="translate(-20 -16)"/><path class="b" d="M61.24,93.33h-19v-19" transform="translate(-20 -16)"/><path class="b" d="M43.8,66.14l4.55,4.55,4.55-8.51" transform="translate(-20 -16)"/><path class="b" d="M45.68,78.31l2.65-2.66L51,78.33" transform="translate(-20 -16)"/></svg>