<svg xmlns="http://www.w3.org/2000/svg" width="100" height="100" viewBox="0 0 100 100"><defs><style>.a{fill:#fff;}.b,.d{fill:none;stroke:#a29ec0;stroke-linecap:round;stroke-width:2px;}.b{stroke-miterlimit:10;}.c{fill:#b88dfc;}.d{stroke-linejoin:round;}</style></defs><circle class="a" cx="50" cy="50" r="50"/><path class="b" d="M100,78.38V81a2.25,2.25,0,0,1-.45,1.34,2.21,2.21,0,0,1-1.18.78h0a48.13,48.13,0,0,1-24.82,0h0a2.14,2.14,0,0,1-1.17-.78A2.2,2.2,0,0,1,71.92,81V78.38" transform="translate(-20 -16)"/><path class="b" d="M100,85.63v2.62a2.25,2.25,0,0,1-.45,1.34,2.21,2.21,0,0,1-1.18.78h0a48.13,48.13,0,0,1-24.82,0h0a2.2,2.2,0,0,1-1.63-2.12V85.63" transform="translate(-20 -16)"/><path class="b" d="M86,77.58c7.76,0,14-1.78,14-4s-6.28-4-14-4-14,1.78-14,4S78.2,77.58,86,77.58Z" transform="translate(-20 -16)"/><path class="c" d="M86,75.08A31.3,31.3,0,0,1,75.5,73.6,31.51,31.51,0,0,1,86,72.13,31.37,31.37,0,0,1,96.4,73.6,31.3,31.3,0,0,1,86,75.08Z" transform="translate(-20 -16)"/><path class="d" d="M57.05,68.38a7.89,7.89,0,0,0,3.17,2.52,8.06,8.06,0,1,0,3.24-15.45" transform="translate(-20 -16)"/><path class="c" d="M51,69a1.09,1.09,0,0,1-.6-.19A1,1,0,0,1,50,68.3a14.1,14.1,0,0,1-.79-5.76,14.28,14.28,0,0,1,10.4-12.79,1,1,0,0,1,.79.1,1,1,0,0,1,.5.63,1.11,1.11,0,0,1-.1.8,1.06,1.06,0,0,1-.63.49,12.14,12.14,0,0,0-4.41,2.28A12.25,12.25,0,0,0,52,67.6.93.93,0,0,1,52,68a1.06,1.06,0,0,1-.09.4,1,1,0,0,1-.25.33,1.13,1.13,0,0,1-.35.21A.88.88,0,0,1,51,69Z" transform="translate(-20 -16)"/><path class="d" d="M64.08,63.52a.67.67,0,0,1-.1.34.62.62,0,0,1-.28.23.63.63,0,0,1-.36,0A.76.76,0,0,1,63,64a.65.65,0,0,1-.16-.32.56.56,0,0,1,0-.36.7.7,0,0,1,.23-.28.67.67,0,0,1,.34-.1.61.61,0,0,1,.62.62Z" transform="translate(-20 -16)"/><path class="d" d="M63.46,48.32v15.2l-12,9.08" transform="translate(-20 -16)"/><path class="d" d="M67.51,86.69A23.55,23.55,0,1,1,86.92,63.52a23.09,23.09,0,0,1-.2,3.11" transform="translate(-20 -16)"/><path class="d" d="M40,63.52h3.18" transform="translate(-20 -16)"/><path class="d" d="M83.75,63.52h3.17" transform="translate(-20 -16)"/><path class="d" d="M63.46,40v3.18" transform="translate(-20 -16)"/><path class="d" d="M63.46,83.85V87" transform="translate(-20 -16)"/></svg>