<svg xmlns="http://www.w3.org/2000/svg" width="100" height="100" viewBox="0 0 100 100"><defs><style>.a{fill:#fff;}.b{fill:none;stroke:#a29ec0;stroke-linecap:round;stroke-linejoin:round;stroke-width:2px;}.c{fill:#b88dfc;}</style></defs><circle class="a" cx="50" cy="50" r="50"/><path class="b" d="M87.08,79.53,99.33,92a2.57,2.57,0,0,1,.5.76,2.43,2.43,0,0,1,.17.89,2.28,2.28,0,0,1-.67,1.64,2.25,2.25,0,0,1-3.22,0L84,83.1" transform="translate(-20 -16)"/><path class="b" d="M42.87,47V36.48L40,39.42" transform="translate(-20 -16)"/><path class="b" d="M50.75,47a3,3,0,0,1-2.13-.9,3.1,3.1,0,0,1-.88-2.18v-4.8A3,3,0,0,1,48,37.89a3,3,0,0,1,.65-1,2.91,2.91,0,0,1,2.13-.9h0a3,3,0,0,1,2.12.9,3.1,3.1,0,0,1,.88,2.17V43.9a3,3,0,0,1-.89,2.15,2.93,2.93,0,0,1-2.11.9Z" transform="translate(-20 -16)"/><path class="b" d="M61.26,47V36.48l-2.87,2.94" transform="translate(-20 -16)"/><path class="b" d="M69.13,47a3,3,0,0,1-2.12-.9,3.1,3.1,0,0,1-.89-2.18v-4.8a3.14,3.14,0,0,1,.23-1.18,3,3,0,0,1,.66-1,2.91,2.91,0,0,1,2.12-.9h0a3,3,0,0,1,2.12.9,3.13,3.13,0,0,1,.88,2.17V43.9a3.11,3.11,0,0,1-.88,2.15,3,3,0,0,1-2.12.9Z" transform="translate(-20 -16)"/><path class="b" d="M42.87,65.3V54.84L40,57.77" transform="translate(-20 -16)"/><path class="b" d="M50.75,65.3a3,3,0,0,1-2.13-.9,3.07,3.07,0,0,1-.88-2.17V57.42A2.94,2.94,0,0,1,48,56.25a3.14,3.14,0,0,1,.65-1,3,3,0,0,1,1-.66,2.89,2.89,0,0,1,1.16-.23h0a3,3,0,0,1,2.12.89,3.13,3.13,0,0,1,.88,2.17v4.83a3.06,3.06,0,0,1-.89,2.16,3,3,0,0,1-2.11.89Z" transform="translate(-20 -16)"/><path class="c" d="M80.15,62.91a9.49,9.49,0,0,0-4.75-2.69,9.23,9.23,0,0,0-5.4.42,9.52,9.52,0,0,1,3.44,2.27,9.65,9.65,0,0,1,.27,13.43,8.75,8.75,0,0,1-3,2,8.86,8.86,0,0,0,5.14.46,9,9,0,0,0,4.56-2.47A9.66,9.66,0,0,0,80.15,62.91Z" transform="translate(-20 -16)"/><path class="b" d="M85.05,58.24l5.9-6" transform="translate(-20 -16)"/><path class="b" d="M79.14,54.32l4-4.06" transform="translate(-20 -16)"/><path class="b" d="M88.87,64.22l3.88-4" transform="translate(-20 -16)"/><path class="b" d="M94.22,48.88a2.34,2.34,0,0,1,.64,1.21,2.38,2.38,0,0,1-.14,1.37,2.33,2.33,0,0,1-.85,1.06,2.26,2.26,0,0,1-2.57,0,2.33,2.33,0,0,1-.85-1.06,2.37,2.37,0,0,1-.13-1.37,2.33,2.33,0,0,1,1.38-1.72,2.29,2.29,0,0,1,2.52.51Z" transform="translate(-20 -16)"/><path class="b" d="M86.39,46.92a2.41,2.41,0,0,1,.63,1.2,2.37,2.37,0,0,1-.13,1.37,2.25,2.25,0,0,1-.85,1,2.28,2.28,0,0,1-1.28.4,2.23,2.23,0,0,1-1.28-.4,2.33,2.33,0,0,1-.86-1,2.46,2.46,0,0,1-.13-1.37,2.35,2.35,0,0,1,.64-1.2,2.27,2.27,0,0,1,3.26,0Z" transform="translate(-20 -16)"/><path class="b" d="M94.38,60.94a2.36,2.36,0,1,0-2.31-2.36A2.33,2.33,0,0,0,94.38,60.94Z" transform="translate(-20 -16)"/><path class="b" d="M62.64,81.12l-5.9,6" transform="translate(-20 -16)"/><path class="b" d="M58.79,75.09l-4,4.07" transform="translate(-20 -16)"/><path class="b" d="M68.49,85l-3.88,4" transform="translate(-20 -16)"/><path class="b" d="M55.1,91.18a2.36,2.36,0,1,0-2.31-2.36A2.33,2.33,0,0,0,55.1,91.18Z" transform="translate(-20 -16)"/><path class="b" d="M51.55,82.49a2.2,2.2,0,0,0,1.18.65A2.28,2.28,0,0,0,54.07,83a2.37,2.37,0,0,0,1-.87,2.41,2.41,0,0,0,0-2.63,2.37,2.37,0,0,0-1-.87,2.28,2.28,0,0,0-2.52.52,2.38,2.38,0,0,0,0,3.33Z" transform="translate(-20 -16)"/><path class="b" d="M63,93a2.36,2.36,0,1,0-2.31-2.36A2.33,2.33,0,0,0,63,93Z" transform="translate(-20 -16)"/><path class="b" d="M68.49,85a15.6,15.6,0,0,0,17-3.45,16.31,16.31,0,0,0,4.23-8.16,16.51,16.51,0,0,0-.85-9.2" transform="translate(-20 -16)"/><path class="b" d="M73.8,82.3c6.39,0,11.57-5.5,11.57-12.28S80.19,57.74,73.8,57.74,62.24,63.24,62.24,70,67.42,82.3,73.8,82.3Z" transform="translate(-20 -16)"/><path class="b" d="M58.79,75.09a17.38,17.38,0,0,0,3.85,6" transform="translate(-20 -16)"/><path class="b" d="M75.35,53.33a15.24,15.24,0,0,0-7.09.65,15.55,15.55,0,0,0-6.07,3.81h0A15.88,15.88,0,0,0,58.47,64a16.3,16.3,0,0,0-.65,7.24" transform="translate(-20 -16)"/><path class="b" d="M85.05,58.25a16.92,16.92,0,0,0-5.9-3.93" transform="translate(-20 -16)"/></svg>