<svg xmlns="http://www.w3.org/2000/svg" xmlns:xlink="http://www.w3.org/1999/xlink" viewBox="0 0 908.39 759.81"><defs><style>.cls-1{fill:#fff;}.cls-2{opacity:0.6;}.cls-3{fill:#bca9ff;}.cls-4{fill:#96baaa;}.cls-5{fill:#2ebf8b;}.cls-6{fill:#36b27f;}.cls-7{stroke:#4dd68e;stroke-miterlimit:10;stroke-width:13.2px;fill:url(#linear-gradient);}.cls-8{fill:#88889f;}.cls-9{fill:#7f7f92;}.cls-10{fill:#d6cbe4;}.cls-11{fill:#c7bcdc;}.cls-12{fill:#6f63ac;}.cls-13{fill:#2e234c;}.cls-14{fill:#424251;}.cls-15{fill:#5d5d69;}.cls-16{fill:#030304;}.cls-17{fill:url(#linear-gradient-2);}</style><linearGradient id="linear-gradient" x1="459.18" y1="412.74" x2="459.18" y2="262.57" gradientTransform="matrix(1, 0, 0, -1, -54.63, 944.2)" gradientUnits="userSpaceOnUse"><stop offset="0" stop-color="#5e5544"/><stop offset="1" stop-color="#383837"/></linearGradient><linearGradient id="linear-gradient-2" x1="648.65" y1="160.56" x2="648.65" y2="338.64" gradientUnits="userSpaceOnUse"><stop offset="0" stop-color="#8c61e1"/><stop offset="1" stop-color="#5f45ba"/></linearGradient></defs><title>HelpBunny</title><g id="Layer_7" data-name="Layer 7"><circle class="cls-1" cx="445.37" cy="442.64" r="295.57"/></g><g id="Illustration" class="cls-2"><path class="cls-3" d="M296.72,601.56a.8.8,0,0,1-.8-.81V252.29a.8.8,0,1,1,1.6,0V600.75A.8.8,0,0,1,296.72,601.56Z" transform="translate(-54.63 -57.8)"/><path class="cls-3" d="M523.91,544.53a.74.74,0,0,1-.73-.74V109.64a.73.73,0,1,1,1.46,0V543.79A.73.73,0,0,1,523.91,544.53Z" transform="translate(-54.63 -57.8)"/><path class="cls-3" d="M446.91,612.08H430.16V595.32h16.75Zm-15.29-1.47h13.83V596.79H431.62Z" transform="translate(-54.63 -57.8)"/><path class="cls-3" d="M462.2,627.37H445.45V610.61H462.2Zm-15.29-1.47h13.83V612.08H446.91Z" transform="translate(-54.63 -57.8)"/><path class="cls-3" d="M477.49,612.08H460.74V595.32h16.75Zm-15.29-1.47H476V596.79H462.2Z" transform="translate(-54.63 -57.8)"/><path class="cls-3" d="M508.08,612.08H491.32V595.32h16.76Zm-15.3-1.47h13.83V596.79H492.78Z" transform="translate(-54.63 -57.8)"/><path class="cls-3" d="M523.37,627.37H506.61V610.61h16.76Zm-15.29-1.47H521.9V612.08H508.08Z" transform="translate(-54.63 -57.8)"/><path class="cls-3" d="M492.78,627.37H476V610.61h16.75Zm-15.29-1.47h13.83V612.08H477.49Z" transform="translate(-54.63 -57.8)"/><path class="cls-3" d="M538.66,612.08H521.9V595.32h16.76Zm-15.29-1.47h13.82V596.79H523.37Z" transform="translate(-54.63 -57.8)"/><path class="cls-3" d="M585.4,612.08H552.48V595.32H585.4ZM554,610.61h30V596.79H554Z" transform="translate(-54.63 -57.8)"/><path class="cls-3" d="M648.32,612.08H615.4V595.32h32.92Zm-31.46-1.47h30V596.79h-30Z" transform="translate(-54.63 -57.8)"/><path class="cls-3" d="M743.13,612.08H678.31V595.32h64.82Zm-63.35-1.47h61.89V596.79H679.78Z" transform="translate(-54.63 -57.8)"/><path class="cls-3" d="M930.94,612.08H805V595.32H930.94Zm-124.46-1.47h123V596.79h-123Z" transform="translate(-54.63 -57.8)"/><path class="cls-3" d="M806.48,627.37H741.67V610.61h64.81Zm-63.35-1.47H805V612.08H743.13Z" transform="translate(-54.63 -57.8)"/><path class="cls-3" d="M616.86,627.37H583.94V610.61h32.92ZM585.4,625.9h30V612.08h-30Z" transform="translate(-54.63 -57.8)"/><path class="cls-3" d="M679.78,627.37H646.85V610.61h32.93Zm-31.46-1.47h30V612.08h-30Z" transform="translate(-54.63 -57.8)"/><path class="cls-3" d="M554,627.37H537.19V610.61H554Zm-15.29-1.47h13.82V612.08H538.66Z" transform="translate(-54.63 -57.8)"/><path class="cls-3" d="M430.89,635.54a.74.74,0,0,1-.73-.74V596.06a.73.73,0,1,1,1.46,0V634.8A.74.74,0,0,1,430.89,635.54Z" transform="translate(-54.63 -57.8)"/><path class="cls-3" d="M553.21,635.54a.74.74,0,0,1-.73-.74V596.06a.74.74,0,1,1,1.47,0V634.8A.74.74,0,0,1,553.21,635.54Z" transform="translate(-54.63 -57.8)"/><path class="cls-4" d="M679.26,635.43a.63.63,0,0,1-.62-.63V596.06a.63.63,0,1,1,1.25,0V634.8A.63.63,0,0,1,679.26,635.43Z" transform="translate(-54.63 -57.8)"/><path class="cls-4" d="M805.75,635.43a.63.63,0,0,1-.62-.63V596.06a.62.62,0,1,1,1.24,0V634.8A.63.63,0,0,1,805.75,635.43Z" transform="translate(-54.63 -57.8)"/><path class="cls-3" d="M930.21,635.54a.74.74,0,0,1-.73-.74V596.06a.73.73,0,1,1,1.46,0V634.8A.74.74,0,0,1,930.21,635.54Z" transform="translate(-54.63 -57.8)"/><circle class="cls-3" cx="376.27" cy="588.24" r="2.03"/><circle class="cls-3" cx="498.59" cy="588.24" r="2.03"/><circle class="cls-3" cx="624.64" cy="588.24" r="2.03"/><circle class="cls-3" cx="751.12" cy="588.24" r="2.03"/><circle class="cls-3" cx="875.59" cy="588.24" r="2.03"/><path class="cls-3" d="M806.66,643.53a.74.74,0,0,1-.73-.74V212.25a.73.73,0,0,1,1.46,0V642.79A.73.73,0,0,1,806.66,643.53Z" transform="translate(-54.63 -57.8)"/><path class="cls-3" d="M317.71,274.13a1.26,1.26,0,0,1-.72-.21l-10.48-6.65a1.36,1.36,0,0,1,0-2.28L317,258.33a1.35,1.35,0,0,1,1.45,2.28l-8.68,5.52,8.68,5.51a1.35,1.35,0,0,1-.73,2.49Z" transform="translate(-54.63 -57.8)"/><path class="cls-3" d="M520.71,267.48H307.24a1.35,1.35,0,0,1,0-2.7H520.71a1.35,1.35,0,1,1,0,2.7Z" transform="translate(-54.63 -57.8)"/><path class="cls-3" d="M510.24,274.13a1.35,1.35,0,0,1-.72-2.49l8.68-5.51-8.68-5.52a1.35,1.35,0,0,1,1.44-2.28L521.44,265a1.36,1.36,0,0,1,0,2.28L511,273.92A1.26,1.26,0,0,1,510.24,274.13Z" transform="translate(-54.63 -57.8)"/><path class="cls-3" d="M534.58,273.86a1.07,1.07,0,0,1-.76-.31l-6.65-6.66a1.07,1.07,0,0,1,0-1.52l6.65-6.66a1.07,1.07,0,0,1,1.52,1.52l-5.89,5.9,5.89,5.89a1.09,1.09,0,0,1,0,1.53A1.06,1.06,0,0,1,534.58,273.86Z" transform="translate(-54.63 -57.8)"/><path class="cls-3" d="M800.35,267.21H527.93a1.08,1.08,0,1,1,0-2.16H800.35a1.08,1.08,0,0,1,0,2.16Z" transform="translate(-54.63 -57.8)"/><path class="cls-3" d="M796.14,273.86a1.06,1.06,0,0,1-.76-.31,1.09,1.09,0,0,1,0-1.53l5.89-5.89-5.89-5.9a1.07,1.07,0,0,1,1.52-1.52l6.65,6.66a1,1,0,0,1,.32.76,1.05,1.05,0,0,1-.32.76l-6.65,6.66A1.07,1.07,0,0,1,796.14,273.86Z" transform="translate(-54.63 -57.8)"/><circle class="cls-3" cx="469.38" cy="257.88" r="3.01"/><path class="cls-3" d="M494.72,319.76a4.09,4.09,0,1,1,4.09-4.09A4.09,4.09,0,0,1,494.72,319.76Zm0-6a1.94,1.94,0,1,0,1.93,1.93A1.93,1.93,0,0,0,494.72,313.74Z" transform="translate(-54.63 -57.8)"/><path class="cls-3" d="M465.44,319.76a4.09,4.09,0,1,1,4.08-4.09A4.09,4.09,0,0,1,465.44,319.76Zm0-6a1.94,1.94,0,1,0,1.93,1.93A1.94,1.94,0,0,0,465.44,313.74Z" transform="translate(-54.63 -57.8)"/><path class="cls-3" d="M436.15,319.76a4.09,4.09,0,1,1,4.09-4.09A4.09,4.09,0,0,1,436.15,319.76Zm0-6a1.94,1.94,0,1,0,1.94,1.93A1.94,1.94,0,0,0,436.15,313.74Z" transform="translate(-54.63 -57.8)"/><path class="cls-3" d="M348.3,319.76a4.09,4.09,0,1,1,4.09-4.09A4.09,4.09,0,0,1,348.3,319.76Zm0-6a1.94,1.94,0,1,0,1.94,1.93A1.94,1.94,0,0,0,348.3,313.74Z" transform="translate(-54.63 -57.8)"/><path class="cls-3" d="M210.67,319.76a4.09,4.09,0,1,1,4.09-4.09A4.09,4.09,0,0,1,210.67,319.76Zm0-6a1.94,1.94,0,1,0,1.94,1.93A1.94,1.94,0,0,0,210.67,313.74Z" transform="translate(-54.63 -57.8)"/><path class="cls-3" d="M556.7,612.75H540V596H556.7Zm-15.29-1.46h13.83V597.46H541.41Z" transform="translate(-54.63 -57.8)"/><path class="cls-3" d="M541.41,628H524.66V611.29h16.75Zm-15.29-1.46H540V612.75H526.12Z" transform="translate(-54.63 -57.8)"/><path class="cls-3" d="M526.12,612.75H509.37V596h16.75Zm-15.29-1.46h13.83V597.46H510.83Z" transform="translate(-54.63 -57.8)"/><path class="cls-3" d="M495.54,612.75H478.79V596h16.75Zm-15.29-1.46h13.83V597.46H480.25Z" transform="translate(-54.63 -57.8)"/><path class="cls-3" d="M480.25,628H463.5V611.29h16.75ZM465,626.58h13.83V612.75H465Z" transform="translate(-54.63 -57.8)"/><path class="cls-3" d="M510.83,628H494.08V611.29h16.75Zm-15.29-1.46h13.83V612.75H495.54Z" transform="translate(-54.63 -57.8)"/><path class="cls-3" d="M465,612.75H448.21V596H465Zm-15.29-1.46H463.5V597.46H449.67Z" transform="translate(-54.63 -57.8)"/><path class="cls-3" d="M434.38,612.75H401.46V596h32.92Zm-31.46-1.46h30V597.46h-30Z" transform="translate(-54.63 -57.8)"/><path class="cls-3" d="M371.47,612.75H338.54V596h32.93ZM340,611.29h30V597.46H340Z" transform="translate(-54.63 -57.8)"/><path class="cls-3" d="M308.55,612.75H243.73V596h64.82Zm-63.35-1.46h61.89V597.46H245.2Z" transform="translate(-54.63 -57.8)"/><path class="cls-3" d="M56.65,612.75h-.73V596H181.85v16.75Zm.73-15.29v13.83h123V597.46Z" transform="translate(-54.63 -57.8)"/><path class="cls-3" d="M245.2,628H180.38V611.29H245.2Zm-63.35-1.46h61.88V612.75H181.85Z" transform="translate(-54.63 -57.8)"/><path class="cls-3" d="M402.92,628H370V611.29h32.92Zm-31.45-1.46h30V612.75h-30Z" transform="translate(-54.63 -57.8)"/><path class="cls-3" d="M340,628H307.09V611.29H340Zm-31.46-1.46h30V612.75h-30Z" transform="translate(-54.63 -57.8)"/><path class="cls-3" d="M449.67,628H432.92V611.29h16.75Zm-15.29-1.46h13.83V612.75H434.38Z" transform="translate(-54.63 -57.8)"/><path class="cls-3" d="M556,636.21a.74.74,0,0,1-.73-.74V596.73a.73.73,0,0,1,1.46,0v38.74A.73.73,0,0,1,556,636.21Z" transform="translate(-54.63 -57.8)"/><path class="cls-3" d="M433.65,636.21a.73.73,0,0,1-.73-.74V596.73a.73.73,0,1,1,1.46,0v38.74A.74.74,0,0,1,433.65,636.21Z" transform="translate(-54.63 -57.8)"/><path class="cls-4" d="M307.6,636.1a.63.63,0,0,1-.62-.63V596.73a.62.62,0,1,1,1.24,0v38.74A.63.63,0,0,1,307.6,636.1Z" transform="translate(-54.63 -57.8)"/><path class="cls-4" d="M181.11,636.1a.63.63,0,0,1-.62-.63V596.73a.63.63,0,1,1,1.25,0v38.74A.63.63,0,0,1,181.11,636.1Z" transform="translate(-54.63 -57.8)"/><path class="cls-3" d="M56.65,636.21a.74.74,0,0,1-.73-.74V596.73a.73.73,0,0,1,1.46,0v38.74A.73.73,0,0,1,56.65,636.21Z" transform="translate(-54.63 -57.8)"/><circle class="cls-3" cx="379.02" cy="588.92" r="2.03"/><circle class="cls-3" cx="252.97" cy="588.92" r="2.03"/><circle class="cls-3" cx="126.49" cy="588.92" r="2.03"/><circle class="cls-3" cx="2.03" cy="588.92" r="2.03"/><path class="cls-3" d="M806.66,182.21a4.09,4.09,0,1,1,4.09-4.08A4.08,4.08,0,0,1,806.66,182.21Zm0-6a1.94,1.94,0,1,0,1.93,1.94A1.94,1.94,0,0,0,806.66,176.19Z" transform="translate(-54.63 -57.8)"/><path class="cls-3" d="M836,182.21a4.09,4.09,0,1,1,4.08-4.08A4.09,4.09,0,0,1,836,182.21Zm0-6a1.94,1.94,0,1,0,1.93,1.94A1.94,1.94,0,0,0,836,176.19Z" transform="translate(-54.63 -57.8)"/><path class="cls-3" d="M894.51,182.21a4.09,4.09,0,1,1,4.09-4.08A4.08,4.08,0,0,1,894.51,182.21Zm0-6a1.94,1.94,0,1,0,1.93,1.94A1.94,1.94,0,0,0,894.51,176.19Z" transform="translate(-54.63 -57.8)"/><path class="cls-3" d="M958.93,182.21a4.09,4.09,0,1,1,4.09-4.08A4.08,4.08,0,0,1,958.93,182.21Zm0-6a1.94,1.94,0,1,0,1.94,1.94A1.94,1.94,0,0,0,958.93,176.19Z" transform="translate(-54.63 -57.8)"/><path class="cls-3" d="M165,462.71a4.09,4.09,0,1,1,4.09-4.09A4.09,4.09,0,0,1,165,462.71Zm0-6a1.94,1.94,0,1,0,1.93,1.93A1.93,1.93,0,0,0,165,456.69Z" transform="translate(-54.63 -57.8)"/><path class="cls-3" d="M165,433.43a4.09,4.09,0,1,1,4.09-4.09A4.1,4.1,0,0,1,165,433.43Zm0-6a1.93,1.93,0,1,0,1.93,1.93A1.92,1.92,0,0,0,165,427.41Z" transform="translate(-54.63 -57.8)"/><path class="cls-3" d="M165,404.14a4.09,4.09,0,1,1,4.09-4.08A4.09,4.09,0,0,1,165,404.14Zm0-6a1.94,1.94,0,1,0,1.93,1.94A1.93,1.93,0,0,0,165,398.12Z" transform="translate(-54.63 -57.8)"/><path class="cls-3" d="M165,304.58a4.09,4.09,0,1,1,4.09-4.09A4.09,4.09,0,0,1,165,304.58Zm0-6a1.94,1.94,0,1,0,1.93,1.93A1.93,1.93,0,0,0,165,298.56Z" transform="translate(-54.63 -57.8)"/><path class="cls-3" d="M165,275.3a4.09,4.09,0,1,1,4.09-4.09A4.1,4.1,0,0,1,165,275.3Zm0-6a1.93,1.93,0,1,0,1.93,1.93A1.93,1.93,0,0,0,165,269.28Z" transform="translate(-54.63 -57.8)"/><path class="cls-3" d="M801.09,400.23H801l-2.79-.11a3.68,3.68,0,0,1,.37-7.36c.88.05,1.76.08,2.64.11a3.68,3.68,0,0,1-.11,7.36Zm13.55-.28a3.68,3.68,0,0,1-.26-7.36c.88-.06,1.76-.13,2.63-.21a3.68,3.68,0,1,1,.68,7.33c-.93.09-1.85.16-2.78.23Zm-29.75-1.2a3.6,3.6,0,0,1-.56,0c-.92-.14-1.84-.29-2.75-.45a3.68,3.68,0,1,1,1.26-7.25q1.3.23,2.61.42a3.68,3.68,0,0,1-.56,7.32Zm45.88-.95a3.69,3.69,0,0,1-.71-7.3l2.58-.54a3.68,3.68,0,0,1,1.57,7.2c-.9.2-1.82.39-2.73.57A4.38,4.38,0,0,1,830.77,397.8ZM769,395.3a3.83,3.83,0,0,1-1-.14l-2.68-.79a3.68,3.68,0,1,1,2.16-7c.84.26,1.68.5,2.53.74a3.69,3.69,0,0,1-1,7.23Zm77.51-1.63a3.68,3.68,0,0,1-1.15-7.18c.84-.27,1.67-.56,2.5-.85a3.68,3.68,0,0,1,2.45,6.94l-2.64.9A3.57,3.57,0,0,1,846.5,393.67Zm-92.86-3.77a3.62,3.62,0,0,1-1.43-.29c-.86-.36-1.72-.74-2.57-1.12a3.68,3.68,0,0,1,3-6.72c.8.36,1.61.72,2.42,1.06a3.68,3.68,0,0,1-1.44,7.07Zm108-2.27a3.68,3.68,0,0,1-1.58-7l2.37-1.15a3.68,3.68,0,1,1,3.29,6.58c-.83.42-1.66.82-2.5,1.22A3.71,3.71,0,0,1,861.61,387.63Zm-122.54-5a3.6,3.6,0,0,1-1.84-.49c-.81-.47-1.61-.94-2.4-1.42a3.68,3.68,0,1,1,3.81-6.3l2.27,1.34a3.68,3.68,0,0,1-1.84,6.87Zm136.78-2.87a3.68,3.68,0,0,1-2-6.79l2.21-1.43a3.68,3.68,0,1,1,4.07,6.13l-2.33,1.52A3.65,3.65,0,0,1,875.85,379.77ZM725.5,373.65a3.65,3.65,0,0,1-2.21-.74c-.75-.56-1.48-1.13-2.21-1.71a3.68,3.68,0,1,1,4.56-5.78l2.09,1.61a3.68,3.68,0,0,1-2.23,6.62ZM889,370.23a3.69,3.69,0,0,1-2.34-6.53l2-1.69a3.68,3.68,0,0,1,4.8,5.58c-.71.61-1.42,1.21-2.14,1.8A3.67,3.67,0,0,1,889,370.23Zm-175.86-7.16a3.68,3.68,0,0,1-2.56-1l-2-2a3.68,3.68,0,1,1,5.23-5.18l1.88,1.85a3.68,3.68,0,0,1-2.56,6.33Zm187.77-3.93a3.68,3.68,0,0,1-2.67-6.22c.6-.63,1.2-1.28,1.8-1.93a3.68,3.68,0,1,1,5.44,5c-.63.69-1.26,1.37-1.9,2A3.66,3.66,0,0,1,900.92,359.14Zm-198.74-8.09a3.66,3.66,0,0,1-2.87-1.37c-.58-.72-1.16-1.45-1.73-2.18a3.68,3.68,0,1,1,5.83-4.5c.54.69,1.08,1.38,1.63,2.06a3.67,3.67,0,0,1-2.86,6Zm209.2-4.37a3.68,3.68,0,0,1-3-5.87c.53-.71,1-1.42,1.55-2.14a3.68,3.68,0,0,1,6,4.26c-.54.76-1.09,1.51-1.64,2.26A3.67,3.67,0,0,1,911.38,346.68Zm-218.62-8.89a3.68,3.68,0,0,1-3.13-1.73c-.49-.79-1-1.58-1.44-2.38a3.68,3.68,0,1,1,6.33-3.76c.45.75.9,1.5,1.37,2.25a3.68,3.68,0,0,1-3.13,5.62ZM920.24,333a3.67,3.67,0,0,1-3.2-5.49c.43-.77.85-1.54,1.27-2.32a3.68,3.68,0,0,1,6.49,3.49c-.45.82-.89,1.64-1.35,2.45A3.69,3.69,0,0,1,920.24,333Zm-235.19-9.55a3.68,3.68,0,0,1-3.35-2.14c-.39-.84-.77-1.68-1.14-2.53a3.68,3.68,0,0,1,6.75-2.95c.35.8.71,1.6,1.08,2.39a3.69,3.69,0,0,1-3.34,5.23Zm242.3-5.09a3.77,3.77,0,0,1-1.39-.27,3.69,3.69,0,0,1-2-4.81c.34-.81.66-1.63,1-2.46a3.68,3.68,0,0,1,6.87,2.66c-.34.87-.69,1.74-1,2.6A3.69,3.69,0,0,1,927.35,318.39Zm-248.2-10.06a3.67,3.67,0,0,1-3.5-2.57c-.29-.88-.56-1.77-.82-2.66a3.68,3.68,0,1,1,7-2.1c.26.85.51,1.69.78,2.52a3.68,3.68,0,0,1-2.39,4.63A3.64,3.64,0,0,1,679.15,308.33ZM932.61,303a3.72,3.72,0,0,1-1-.13,3.68,3.68,0,0,1-2.58-4.52c.23-.85.46-1.69.67-2.55a3.68,3.68,0,1,1,7.14,1.79c-.22.9-.46,1.81-.7,2.7A3.69,3.69,0,0,1,932.61,303ZM675.18,292.55a3.69,3.69,0,0,1-3.62-3c-.17-.91-.33-1.82-.48-2.74a3.68,3.68,0,1,1,7.26-1.2c.15.86.3,1.73.46,2.59a3.69,3.69,0,0,1-2.94,4.3A4,4,0,0,1,675.18,292.55Zm260.73-5.5-.53,0a3.69,3.69,0,0,1-3.12-4.17c.12-.87.24-1.74.35-2.62a3.68,3.68,0,0,1,7.31.9c-.12.92-.24,1.85-.37,2.76A3.68,3.68,0,0,1,935.91,287.05ZM673.18,276.41a3.69,3.69,0,0,1-3.67-3.46c-.06-.93-.11-1.85-.14-2.78a3.68,3.68,0,0,1,7.35-.31c0,.88.08,1.76.14,2.64a3.69,3.69,0,0,1-3.45,3.9Zm264-5.57h-.07a3.68,3.68,0,0,1-3.61-3.76c0-.87,0-1.75,0-2.63v-.28a3.68,3.68,0,1,1,7.36,0v.28q0,1.4,0,2.79A3.68,3.68,0,0,1,937.22,270.84Zm-264.05-10.7H673a3.68,3.68,0,0,1-3.46-3.89c.06-.93.12-1.86.2-2.78A3.68,3.68,0,0,1,677,254c-.07.88-.14,1.76-.19,2.63A3.68,3.68,0,0,1,673.17,260.14Zm263.36-5.83a3.69,3.69,0,0,1-3.66-3.3c-.09-.88-.19-1.75-.3-2.62a3.68,3.68,0,0,1,7.31-.91c.11.92.22,1.84.32,2.77a3.68,3.68,0,0,1-3.28,4ZM675.13,244a3.88,3.88,0,0,1-.67-.06,3.68,3.68,0,0,1-3-4.29c.17-.91.34-1.83.53-2.74a3.68,3.68,0,1,1,7.21,1.49c-.17.86-.34,1.72-.5,2.59A3.69,3.69,0,0,1,675.13,244Zm258.73-5.73a3.69,3.69,0,0,1-3.59-2.85c-.19-.86-.4-1.71-.62-2.56a3.68,3.68,0,0,1,7.14-1.81c.23.9.45,1.81.66,2.72a3.69,3.69,0,0,1-2.76,4.41A4,4,0,0,1,933.86,238.26ZM679.07,228.2A3.57,3.57,0,0,1,678,228a3.67,3.67,0,0,1-2.4-4.62c.28-.89.57-1.78.87-2.66a3.68,3.68,0,1,1,7,2.37c-.28.83-.56,1.67-.82,2.51A3.69,3.69,0,0,1,679.07,228.2Zm250.15-5.53a3.7,3.7,0,0,1-3.46-2.42c-.3-.82-.61-1.65-.93-2.46a3.68,3.68,0,0,1,6.86-2.68c.34.87.67,1.74,1,2.62a3.68,3.68,0,0,1-2.19,4.72A3.77,3.77,0,0,1,929.22,222.67ZM684.93,213a3.62,3.62,0,0,1-1.53-.34,3.68,3.68,0,0,1-1.81-4.88c.39-.85.79-1.69,1.19-2.53a3.68,3.68,0,1,1,6.63,3.21c-.39.79-.76,1.59-1.13,2.39A3.69,3.69,0,0,1,684.93,213Zm237.77-5.25a3.68,3.68,0,0,1-3.28-2c-.4-.78-.81-1.55-1.23-2.33a3.68,3.68,0,0,1,6.48-3.5c.44.82.87,1.64,1.3,2.46a3.69,3.69,0,0,1-1.59,5A3.65,3.65,0,0,1,922.7,207.77Zm-230.08-9.1a3.61,3.61,0,0,1-1.93-.55,3.67,3.67,0,0,1-1.19-5.06c.49-.8,1-1.59,1.49-2.37a3.68,3.68,0,0,1,6.18,4c-.48.74-.95,1.48-1.41,2.23A3.69,3.69,0,0,1,692.62,198.67Zm221.76-4.87a3.69,3.69,0,0,1-3-1.62c-.49-.72-1-1.44-1.5-2.15a3.68,3.68,0,1,1,6-4.27q.81,1.13,1.59,2.28a3.69,3.69,0,0,1-3,5.76ZM702,185.39a3.68,3.68,0,0,1-2.87-6q.87-1.1,1.77-2.16a3.68,3.68,0,0,1,5.64,4.73l-1.67,2A3.67,3.67,0,0,1,702,185.39Zm202.38-4.45a3.64,3.64,0,0,1-2.76-1.25c-.58-.66-1.17-1.32-1.76-2a3.68,3.68,0,0,1,5.43-5c.63.69,1.25,1.38,1.86,2.08a3.68,3.68,0,0,1-2.77,6.11ZM713,173.35a3.68,3.68,0,0,1-2.57-6.32c.67-.65,1.34-1.29,2-1.92a3.68,3.68,0,1,1,5,5.39c-.64.59-1.27,1.2-1.9,1.81A3.67,3.67,0,0,1,713,173.35Zm180-3.95a3.7,3.7,0,0,1-2.45-.93c-.66-.59-1.32-1.17-2-1.74a3.68,3.68,0,1,1,4.79-5.59q1.05.9,2.1,1.83A3.68,3.68,0,0,1,893,169.4Zm-167.63-6.65a3.68,3.68,0,0,1-2.23-6.62c.74-.56,1.49-1.11,2.24-1.66a3.68,3.68,0,0,1,4.33,6c-.71.52-1.42,1-2.12,1.57A3.63,3.63,0,0,1,725.32,162.75Zm154.83-3.41a3.68,3.68,0,0,1-2.09-.65c-.72-.5-1.45-1-2.18-1.48a3.68,3.68,0,0,1,4.06-6.14q1.17.77,2.31,1.56a3.68,3.68,0,0,1-2.1,6.71Zm-141.29-5.6a3.68,3.68,0,0,1-1.85-6.87l2.42-1.37a3.68,3.68,0,1,1,3.56,6.44l-2.29,1.3A3.61,3.61,0,0,1,738.86,153.74Zm127.36-2.81a3.75,3.75,0,0,1-1.7-.42c-.78-.41-1.56-.81-2.35-1.2a3.68,3.68,0,1,1,3.27-6.59c.84.41,1.67.83,2.49,1.27a3.68,3.68,0,0,1-1.71,6.94ZM753.4,146.46a3.68,3.68,0,0,1-1.45-7.07c.85-.36,1.71-.72,2.57-1.06a3.68,3.68,0,1,1,2.74,6.83c-.81.33-1.62.66-2.42,1A3.67,3.67,0,0,1,753.4,146.46Zm98-2.16a3.62,3.62,0,0,1-1.28-.24l-2.49-.9a3.68,3.68,0,0,1,2.43-6.95l2.64,1a3.68,3.68,0,0,1-1.3,7.13ZM768.72,141a3.69,3.69,0,0,1-1-7.23c.89-.25,1.79-.5,2.69-.73a3.68,3.68,0,1,1,1.88,7.12c-.86.22-1.7.45-2.55.69A3.53,3.53,0,0,1,768.72,141Zm67.07-1.49a3.53,3.53,0,0,1-.85-.1l-2.57-.58a3.68,3.68,0,1,1,1.55-7.2c.91.2,1.82.4,2.72.62a3.68,3.68,0,0,1-.85,7.26Zm-51.19-2a3.68,3.68,0,0,1-.56-7.32c.92-.15,1.84-.28,2.76-.4a3.68,3.68,0,1,1,1,7.29l-2.62.38A3.66,3.66,0,0,1,784.6,137.55Zm35.17-.78a2.82,2.82,0,0,1-.41,0l-2.63-.26a3.68,3.68,0,0,1,.66-7.34l2.78.28a3.68,3.68,0,0,1-.4,7.34Zm-19-.73a3.69,3.69,0,0,1-.11-7.37c.92,0,1.85,0,2.78-.06a3.69,3.69,0,0,1,.09,7.37l-2.64.05Z" transform="translate(-54.63 -57.8)"/><path class="cls-3" d="M523.91,168.77h-.19c-.92,0-1.92,0-2.92-.08a2.93,2.93,0,0,1,.32-5.85c.91,0,1.83.08,2.73.08a3,3,0,0,1,3,2.92A2.91,2.91,0,0,1,523.91,168.77Zm8.79-.74a2.93,2.93,0,0,1-.48-5.82q1.37-.22,2.73-.54a2.93,2.93,0,0,1,1.3,5.71c-1,.23-2,.43-3,.61A4.21,4.21,0,0,1,532.7,168Zm-20.48-.55a2.94,2.94,0,0,1-.65-.07c-1-.23-2-.49-3-.77a2.93,2.93,0,0,1,1.61-5.63c.88.25,1.79.48,2.69.68a2.93,2.93,0,0,1-.64,5.79ZM544,164.77a2.93,2.93,0,0,1-1.12-5.64c.84-.35,1.7-.73,2.53-1.13a2.93,2.93,0,1,1,2.55,5.27c-.93.45-1.89.88-2.84,1.27A2.81,2.81,0,0,1,544,164.77Zm-42.91-1.16a2.86,2.86,0,0,1-1.26-.29c-.94-.45-1.87-.93-2.77-1.43a2.93,2.93,0,1,1,2.83-5.13c.81.45,1.64.88,2.48,1.28a2.93,2.93,0,0,1-1.28,5.57Zm53.19-4.54a2.93,2.93,0,0,1-1.7-5.32c.76-.53,1.5-1.1,2.22-1.67a2.93,2.93,0,1,1,3.66,4.57c-.81.65-1.64,1.27-2.48,1.87A2.92,2.92,0,0,1,554.29,159.07Zm-63.16-1.72a2.93,2.93,0,0,1-1.82-.64c-.8-.64-1.6-1.31-2.38-2a2.93,2.93,0,0,1,3.9-4.37c.69.62,1.41,1.22,2.13,1.79a2.93,2.93,0,0,1-1.83,5.22Zm71.92-6.13a2.92,2.92,0,0,1-2.18-4.88c.62-.69,1.22-1.4,1.8-2.12a2.93,2.93,0,1,1,4.58,3.65c-.65.8-1.32,1.6-2,2.38A3,3,0,0,1,563.05,151.22ZM482.81,149a2.93,2.93,0,0,1-2.29-1.09c-.64-.81-1.28-1.64-1.87-2.48a2.92,2.92,0,1,1,4.76-3.4c.54.75,1.1,1.5,1.68,2.22a2.92,2.92,0,0,1-2.28,4.75Zm87.06-7.41a2.93,2.93,0,0,1-2.56-4.35c.45-.81.88-1.64,1.28-2.47a2.93,2.93,0,1,1,5.27,2.54c-.44.93-.93,1.86-1.43,2.77A2.93,2.93,0,0,1,569.87,141.63Zm-93.34-2.53a2.94,2.94,0,0,1-2.64-1.65c-.45-.93-.88-1.88-1.28-2.83a2.93,2.93,0,0,1,5.41-2.25c.36.85.74,1.7,1.14,2.53a2.92,2.92,0,0,1-1.36,3.91A2.87,2.87,0,0,1,476.53,139.1Zm97.85-8.34a2.84,2.84,0,0,1-.81-.12,2.92,2.92,0,0,1-2-3.62c.26-.89.49-1.8.69-2.7a2.93,2.93,0,0,1,5.71,1.3c-.22,1-.49,2-.77,3A2.93,2.93,0,0,1,574.38,130.76ZM472.62,128a2.92,2.92,0,0,1-2.85-2.27c-.23-1-.44-2-.61-3a2.93,2.93,0,1,1,5.77-1c.16.91.34,1.83.55,2.73a2.91,2.91,0,0,1-2.86,3.58Zm103.71-8.85h-.16a2.93,2.93,0,0,1-2.76-3.08c.05-.92.07-1.86.07-2.79v-.22a2.93,2.93,0,0,1,5.86,0v.19c0,1.06,0,2.11-.09,3.14A2.92,2.92,0,0,1,576.33,119.16Zm-105-2.89a2.88,2.88,0,0,1-2.93-2.87v-.15c0-1,0-2,.08-3a2.93,2.93,0,0,1,5.85.32c-.05.88-.07,1.78-.07,2.67A3,3,0,0,1,471.29,116.27Zm104.35-9.08a2.94,2.94,0,0,1-2.89-2.43c-.15-.9-.33-1.81-.54-2.72a2.93,2.93,0,1,1,5.7-1.33c.24,1,.44,2.05.62,3.06a2.94,2.94,0,0,1-2.39,3.38A2.89,2.89,0,0,1,575.64,107.19Zm-103.07-2.56a2.85,2.85,0,0,1-.64-.07,2.93,2.93,0,0,1-2.22-3.5c.23-1,.49-2,.77-3a2.93,2.93,0,1,1,5.64,1.6c-.26.89-.49,1.8-.69,2.7A2.93,2.93,0,0,1,472.57,104.63Zm99.77-8.73a2.92,2.92,0,0,1-2.7-1.8c-.35-.84-.74-1.69-1.14-2.52A2.93,2.93,0,1,1,573.76,89c.46.93.89,1.88,1.28,2.83a2.92,2.92,0,0,1-1.56,3.83A2.87,2.87,0,0,1,572.34,95.9Zm-95.91-2.38a3,3,0,0,1-1.27-.29,2.94,2.94,0,0,1-1.37-3.91c.45-.93.93-1.86,1.43-2.77a2.93,2.93,0,0,1,5.13,2.83c-.45.81-.88,1.64-1.28,2.47A2.93,2.93,0,0,1,476.43,93.52Zm90.18-7.88a2.94,2.94,0,0,1-2.38-1.22c-.54-.76-1.11-1.5-1.68-2.22a2.93,2.93,0,1,1,4.56-3.67c.64.8,1.27,1.63,1.88,2.47a2.93,2.93,0,0,1-2.38,4.64Zm-83.93-2.1a2.89,2.89,0,0,1-1.82-.64,2.93,2.93,0,0,1-.48-4.11c.65-.81,1.32-1.61,2-2.38a2.93,2.93,0,0,1,4.37,3.89c-.61.69-1.21,1.41-1.79,2.13A2.92,2.92,0,0,1,482.68,83.54Zm76.06-6.64a3,3,0,0,1-2-.74c-.69-.61-1.4-1.22-2.13-1.79a2.93,2.93,0,1,1,3.64-4.59c.81.64,1.61,1.32,2.38,2a2.93,2.93,0,0,1-1.94,5.12ZM491,75.2A2.93,2.93,0,0,1,489.14,70c.81-.65,1.64-1.28,2.48-1.88A2.93,2.93,0,1,1,495,72.88c-.76.53-1.5,1.1-2.22,1.68A2.94,2.94,0,0,1,491,75.2Zm58.14-5.09a2.87,2.87,0,0,1-1.41-.36c-.81-.44-1.64-.87-2.48-1.27a2.93,2.93,0,0,1,2.53-5.28c.93.44,1.86.92,2.77,1.42a2.92,2.92,0,0,1-1.41,5.49Zm-48.21-1.2a2.93,2.93,0,0,1-1.28-5.56c.93-.45,1.88-.88,2.83-1.28a2.93,2.93,0,0,1,2.26,5.4c-.85.36-1.7.74-2.53,1.14A2.93,2.93,0,0,1,500.91,68.91Zm37.33-3.27a2.82,2.82,0,0,1-.81-.11c-.88-.25-1.79-.48-2.69-.68A2.93,2.93,0,1,1,536,59.13c1,.23,2,.49,3,.77a2.93,2.93,0,0,1-.79,5.74ZM512,65a2.93,2.93,0,0,1-.65-5.78c1-.23,2-.44,3.05-.61a2.93,2.93,0,0,1,1,5.77c-.91.16-1.83.34-2.72.55A3.11,3.11,0,0,1,512,65Zm14.64-1.27h-.15c-.87,0-1.76-.07-2.63-.07h-.17a2.93,2.93,0,1,1,0-5.85h.15c1,0,2,0,2.95.07a2.93,2.93,0,0,1-.15,5.85Z" transform="translate(-54.63 -57.8)"/><path class="cls-3" d="M525.23,119a4.09,4.09,0,1,1,4.09-4.09A4.09,4.09,0,0,1,525.23,119Zm0-6a1.93,1.93,0,1,0,1.94,1.93A1.94,1.94,0,0,0,525.23,113Z" transform="translate(-54.63 -57.8)"/><path class="cls-3" d="M121.93,386.34h0c-.68,0-1.35,0-2,0l.4-7.36c.53,0,1.07,0,1.62,0Zm6.15-.52-1.23-7.26c.54-.09,1.08-.2,1.62-.32l1.63,7.18C129.44,385.57,128.76,385.71,128.08,385.82Zm-14.31-.38c-.67-.15-1.34-.32-2-.51l2-7.09c.52.16,1,.29,1.59.41Zm22.22-1.9-2.83-6.8c.51-.21,1-.44,1.5-.68l3.21,6.64C137.25,383,136.62,383.28,136,383.54Zm-30-.81c-.62-.3-1.23-.61-1.83-1l3.56-6.44q.72.39,1.47.75Zm37.19-3.17-4.27-6c.45-.32.88-.65,1.31-1l4.6,5.76C144.29,378.74,143.74,379.16,143.18,379.56ZM99,378.36c-.54-.43-1.07-.87-1.58-1.33l4.91-5.5c.41.37.83.72,1.26,1.06Zm50.27-4.28-5.49-4.91c.37-.41.72-.83,1.06-1.26l5.76,4.59C150.2,373,149.76,373.56,149.3,374.08Zm-56.1-1.53c-.42-.53-.84-1.08-1.24-1.64l6-4.28c.32.45.65.89,1,1.32Zm60.86-5.18-6.44-3.57c.27-.48.52-1,.76-1.46l6.63,3.2C154.71,366.16,154.4,366.77,154.06,367.37ZM88.82,365.6c-.3-.61-.59-1.24-.85-1.87l6.8-2.84c.21.51.44,1,.67,1.5Zm68.4-5.83-7.08-2c.15-.53.28-1.06.4-1.59l7.19,1.63C157.58,358.44,157.41,359.11,157.22,359.77Zm-71.14-1.92c-.15-.67-.28-1.35-.4-2l7.26-1.24c.1.55.2,1.08.33,1.62Zm72.5-6.2-7.35-.4c0-.55,0-1.1,0-1.65v-.14h7.37v.1C158.64,350.29,158.62,351,158.58,351.65Zm-73.43-2v-.07q0-1,.06-2l7.35.39c0,.53,0,1.06,0,1.59Zm65.69-5.12c-.09-.54-.2-1.08-.32-1.61l7.17-1.66c.16.66.29,1.34.41,2Zm-57.6-1.43-7.19-1.61c.15-.68.32-1.34.51-2l7.08,2C93.49,342.05,93.36,342.59,93.24,343.12ZM149,338.25c-.21-.51-.44-1-.68-1.5l6.63-3.23c.3.62.58,1.24.85,1.88Zm-53.61-1.33-6.64-3.19c.3-.62.61-1.23.94-1.83l6.46,3.55C95.88,335.93,95.63,336.42,95.39,336.92Zm50.41-4.41c-.32-.44-.66-.88-1-1.31l5.74-4.62c.43.54.85,1.08,1.25,1.64Zm-46.92-1.17-5.76-4.58c.42-.54.87-1.07,1.32-1.58l5.5,4.9C99.58,330.49,99.23,330.91,98.88,331.34Zm42.51-3.72c-.41-.36-.83-.71-1.26-1.06l4.58-5.77c.54.43,1.06.87,1.58,1.33Zm-37.87-.94-4.61-5.75c.54-.43,1.08-.84,1.64-1.24l4.29,6C104.39,326,104,326.33,103.52,326.68Zm32.5-2.85q-.72-.39-1.47-.75l3.18-6.65c.62.3,1.23.61,1.84.95Zm-26.94-.67-3.22-6.63c.61-.3,1.24-.58,1.87-.84l2.85,6.79C110.07,322.69,109.57,322.92,109.08,323.16Zm20.86-1.83c-.53-.14-1.06-.28-1.6-.4l1.61-7.19c.68.15,1.34.32,2,.51ZM115.27,321l-1.66-7.18c.67-.15,1.35-.29,2-.4l1.24,7.26C116.34,320.74,115.8,320.85,115.27,321Zm8.18-.71c-.51,0-1,0-1.55,0h-.11v-7.36h.08c.69,0,1.33,0,2,.05Z" transform="translate(-54.63 -57.8)"/><path class="cls-3" d="M221.73,540.65a25.21,25.21,0,1,1,25.21-25.21A25.24,25.24,0,0,1,221.73,540.65Zm0-47.76a22.55,22.55,0,1,0,22.55,22.55A22.58,22.58,0,0,0,221.73,492.89Z" transform="translate(-54.63 -57.8)"/></g><g id="Layer_6" data-name="Layer 6"><ellipse class="cls-5" cx="498.71" cy="694.41" rx="355.33" ry="123.2" transform="translate(-55.4 -57.24) rotate(-0.06)"/><ellipse class="cls-6" cx="477.7" cy="685.83" rx="280.89" ry="78.2" transform="translate(-55.39 -57.26) rotate(-0.06)"/></g><g id="Layer_1" data-name="Layer 1"><ellipse class="cls-7" cx="404.56" cy="606.55" rx="245.87" ry="75.09"/></g><g id="Layer_2" data-name="Layer 2"><path class="cls-8" d="M535,571c2.93.1,20.51,3.34,23.43,3.5,6.28.36,12.43-.6,18.58-1.66a277.59,277.59,0,0,0,30.66-7,40,40,0,0,0,16-9c6.26-5.71,12.77-11.13,19-16.85a67.35,67.35,0,0,0,8-8.54,39.89,39.89,0,0,0,5.32-9.06,57.92,57.92,0,0,0,4.55-19.68A22.91,22.91,0,0,0,658,491.14c-2.39-4.68-4.93-9.31-7-14.13a35.41,35.41,0,0,1-2.16-8.61c-.47-3.08,2-6.32,5.83-7.75a15.3,15.3,0,0,1,4.73-.94c5.48-.22,11-.06,16.45-.44a86.77,86.77,0,0,0,23.57-5.06c9.68-3.5,19.32-7.09,29.08-10.33a34.19,34.19,0,0,1,22.05-.2,17.39,17.39,0,0,1,8.4,6.44,15.44,15.44,0,0,1,1.38,3,39,39,0,0,1-1.69,7.31c-1.29,3-3,5.8-4.5,8.69-.29,0-24.46,22.81-28.17,26.85-5,5.45-24.6,53.49-31,65-2.29,4.11-28.71,39.61-34,42-5.9,2.67-86.92,54-92,51-1.48-.87-27.47-18.22-29-19C538,632,536.29,572.79,535,571Z" transform="translate(-54.63 -57.8)"/><path class="cls-9" d="M580,664.2c-7,2.8-29.81,15.64-31,12.8-2.52-6.13-12.7-25.47-15-34-1.76-6.51,7.26-62.46,7-63,1.53.78,22.75,11.66,24.23,12.54,5.08,3,10,6.33,15.23,9A50.13,50.13,0,0,0,601,606.91c8.29.42,16.13-1.28,23.85-3.71a160.55,160.55,0,0,0,18.17-7c5.29-2.39,9.83-6,14.16-10a63.48,63.48,0,0,0,10.24-11.68c2.61-3.92,5.09-7.94,7.38-12.05,6.4-11.51,12.43-23.24,19.09-34.6a169.18,169.18,0,0,1,12.35-17.48c4.51-5.87,9.18-11.64,14.18-17.09a113.93,113.93,0,0,1,12.15-11.18c4.45-3.6,9.17-6.88,13.94-10.05,2-1.35,4.51-2.08,6.79-3.06.23-.1.56.05.85.08-1.36,1.69-2.62,3.48-4.11,5-4.51,4.71-9,9.43-13.71,13.95a60,60,0,0,0-16,25.16,317.75,317.75,0,0,1-12.39,32c-3.53,8-6.88,16.13-11.44,23.51-7.41,12-15.24,23.78-24.54,34.47a131.08,131.08,0,0,1-27,23.13c-13.29,8.78-27.49,16-41.32,23.81C595.66,654.69,587.86,659.51,580,664.2Z" transform="translate(-54.63 -57.8)"/><path class="cls-10" d="M541,565c3,2.58,18.86,21.49,19.64,25.19.26.53.48,1.09.77,1.6a78.8,78.8,0,0,1,7.19,18.77c2.31,8.53,2.3,17.36,3.58,26,1,6.47,1.66,13,4.18,19.15,1.16,2.84,2.41,5.65,3.62,8.47.86,2.49,1.72,5,2.6,7.47q3.88,10.94,7.78,21.88c.08.19,6.61,23.23,6.64,23.45-1.34,5.24-117.15,19.56-123,14-1.29,3.69-174.94-16.3-173-29-35.35,3.08,12.78-112.86,34.35-122L346.43,568c.51.37,1.17-2.43,1.57-2C351.6,570.18,539.9,566.16,541,565Z" transform="translate(-54.63 -57.8)"/><path class="cls-11" d="M554.54,581c-1.1,1.15-2.27,2.26-3.28,3.48a108.39,108.39,0,0,1-17.5,16.89C521.21,611,507,617.22,491.79,621a108.84,108.84,0,0,1-17.39,2.72,145.25,145.25,0,0,1-20.33.32c-15.57-1-30.88-3.51-45.67-8.73a112.67,112.67,0,0,1-32-17.39,150.68,150.68,0,0,1-17.73-16.23c-3.76-4-7.17-8.37-10.77-12.55a8.57,8.57,0,0,0-1.51-1.12c.65-.76,2.91-3.21,3.57-4,1.34,1.07,183.7-2.49,188-5,.37-.21,4,5.24,4.42,5.08,2.13,3.12,4.26,6.25,6.4,9.35a5.1,5.1,0,0,0,.84.76c1.29,1.79,2.59,3.57,3.87,5.36C553.88,580,554.21,580.53,554.54,581Z" transform="translate(-54.63 -57.8)"/><path class="cls-10" d="M348.39,565.69c-.52-.58-1-1.2-1.56-1.74-7.15-6.91-14.14-14-19.07-22.73a56.2,56.2,0,0,1-6.5-19.12c-1.37-8.68-1.4-17.39-1.19-26.11a171,171,0,0,1,1.3-17.95c.87-6.57,2.23-13.08,3.58-19.57a49.33,49.33,0,0,1,2.51-7.72c.56-1.41.14-2.07-1-2.71q-6.21-3.39-12.38-6.86c-8.12-4.59-16.39-8.93-24.28-13.89-4.63-2.92-8.74-6.73-12.9-10.35-3.85-3.34-7.51-6.9-11.15-10.47a129.64,129.64,0,0,1-16.83-20.41c-9-13.35-17.71-26.94-24.53-41.58-4-8.64-7.51-17.54-11-26.41q-4.64-11.81-8.72-23.82a208.42,208.42,0,0,1-8.89-36c-1.1-7.37-2.24-14.74-2.87-22.15-.65-7.71-.79-15.47-1-23.21-.14-4.7-.18-9.42,0-14.12.23-5.29.64-10.58,1.25-15.83.85-7.24,1.76-14.47,3-21.65,2.3-13.38,4.8-26.74,10.15-39.34a98.56,98.56,0,0,1,14.46-24,59.9,59.9,0,0,1,4.2-4.53c1.65-1.62,3.88-1.28,4.79.87a19.47,19.47,0,0,1,1.52,5.6c.68,6.5,1.3,13,1.67,19.54a109.13,109.13,0,0,0,5.62,30,191.76,191.76,0,0,0,12.88,28.25c.52,1,1,1.94,1.48,2.91,4.57,8.94,9.18,17.87,13.72,26.83a100.23,100.23,0,0,1,9,27.71c1.52,8.44,2.9,16.91,4.2,25.39,1.11,7.2,2,14.43,3,21.64.91,6.36,1.95,12.69,2.85,19.05.84,6,1.56,12,2.35,18,2,15.35,5,30.43,12.36,44.3,3.39,6.37,6.48,12.9,9.71,19.36A156.09,156.09,0,0,0,328.39,411c3.8,4.72,8,9.07,12.11,13.6,1.3-1,1.68-1.84,1.09-3-4.93-10-8-20.59-10.14-31.46-1.53-7.61-2.87-15.27-4.24-22.92-1-5.73-2.3-11.46-2.85-17.24a212.87,212.87,0,0,1-1-21.57c0-6.7.67-13.4,1.23-20.08.52-6.18,1.16-12.37,2-18.52a139.38,139.38,0,0,1,8.2-32.16q6.48-16.48,13.49-32.77c5.41-12.51,11.32-24.79,19.05-36.07,8.06-11.75,16.46-23.27,24.46-35.05,5.05-7.44,9.78-15.1,14.42-22.8,3.86-6.41,7.29-13.07,11.08-19.52,2.16-3.66,6.72-9.44,9.35-8.79a18.49,18.49,0,0,1,2.25,3.84,29.3,29.3,0,0,1,1.33,7c.27,6.45.55,12.93.29,19.37s-1.13,13-1.81,19.51q-.75,7.33-1.7,14.64c-.6,4.6-1.23,9.2-2,13.78-1.44,8.45-2.88,16.92-4.56,25.33-1.78,8.95-3.84,17.84-5.78,26.76-2.18,10-4.22,20.09-6.57,30.08-3,12.84-6.06,25.69-9.56,38.4a137.17,137.17,0,0,1-7.06,19.2c-5.11,11.5-10.57,22.85-16.05,34.18-2.79,5.77-6.1,11.28-8.91,17-4.69,9.59-9.2,19.29-11.65,29.77-.63,2.7-.95,5.49-1.46,8.53,3.27-2.38,6.1-4.61,9.1-6.6a116.18,116.18,0,0,1,22.68-11.29,197.52,197.52,0,0,1,26.08-7.94,93.07,93.07,0,0,1,18.38-2.82c5.32-.16,10.64-.42,15.95-.26,4.8.14,9.59.68,14.37,1.24,5.62.65,11.3,1.16,16.82,2.35,13,2.81,25.66,6.51,36.76,14.18a100.58,100.58,0,0,1,8.09,6.51q6.42,5.49,12.73,11.12c6.4,5.7,11.67,12.18,14.37,20.51a50.86,50.86,0,0,0,7,14.59,26.65,26.65,0,0,0,9.85,7.82c8.57,4.3,14,11.19,17.09,20.14,1.88,5.38,2.19,10.89,2.19,16.48,0,1.33-3.14,11.84-4.76,15.72A123.47,123.47,0,0,1,569.59,532c-3.49,5.35-7,10.71-10.73,15.89a69.64,69.64,0,0,1-15.37,15.09,8.91,8.91,0,0,0-1.07,1.14,8.34,8.34,0,0,0-1.2.48c-4.3,2.51-8.56,5.09-12.9,7.54-4.15,2.35-8.35,4.61-12.58,6.82-7,3.63-13.8,7.59-21,10.69a134.07,134.07,0,0,1-46.14,10.93c-6.32.34-12.67.23-19,0a115.3,115.3,0,0,1-15-1.33,179.63,179.63,0,0,1-18.17-4,81.75,81.75,0,0,1-19-8.43A155.54,155.54,0,0,1,352.4,568.9C351.12,567.77,349.73,566.76,348.39,565.69Z" transform="translate(-54.63 -57.8)"/><path class="cls-11" d="M388,704c-5.16-.54-30.88,5.8-36,5-6.19-1-15.88,1.34-22,0-5.26-1.15-16.38-12.16-21-15-.47-.29-6-19.53-6-20-1-57,21-75,32-94,1.33-.65,12.67,11.44,13.54,12.44A38.06,38.06,0,0,1,357.32,611a51,51,0,0,1,.58,15.5c-.59,4.87-1.11,9.75-1.68,14.63-.52,4.5-1.25,9-1.55,13.49-.57,8.41,0,16.7,3.79,24.45,1.66,3.43,4.37,6,7.05,8.65C366.19,688.38,387.4,703.25,388,704Z" transform="translate(-54.63 -57.8)"/><path class="cls-11" d="M473.56,733.91c1.12-2.14-9.74.2-8.56-1.91s1.72-17.81,1-19c0-.31,12,5.31,12,5,6,1.74,8.47,2.37,14.48,3.91a97.42,97.42,0,0,0,11.28,2c4.11.56,8.24,1.06,12.38,1.25,5.12.22,10.26.24,15.39.09,7.49-.22,14.13-3.31,20.72-6.51,7.37-3.58,14.77-7.07,22.15-10.6a35.69,35.69,0,0,0,12.39-10c1.12-1.38,2.44-2.59,3.67-3.88,1.72,5.12,3.5,10.23,5.16,15.37.84,2.62,1.46,5.32,2.19,8,.33,1.2.08,1.86-1.33,2.15-7.77,1.61-15.5,3.44-23.29,5-6.35,1.23-12.76,2.19-19.16,3.16q-8.24,1.25-16.52,2.22c-4.72.56-9.45,1-14.19,1.37-6.62.57-13.25,1.08-19.88,1.59q-3.24.25-6.48.35c-4.88.15-9.76.25-14.64.37Z" transform="translate(-54.63 -57.8)"/><path class="cls-8" d="M335.35,580.05a37,37,0,0,1,10.14,11.41,63.73,63.73,0,0,1,5.13,29.5,23.59,23.59,0,0,1-3.3,10.62c-2.88,4.89-5.46,9.39-9.32,13.42a165.72,165.72,0,0,0-11,13c-4.86,6.38-8.95,13.66-7.48,25.33s28.48,14.67,67,6.19c7.47-2.23,28.91-7.31,32.13-7.67,2.2-.26,4.42-.35,6.6-.69,10.09-1.61,18.88,1.42,26.74,7.56a78.59,78.59,0,0,1,21.1,25.54c.45.85,2.42,5.91,2.93,6.74,0,.31.66,4.37.69,4.67-.32.06-3.39,5.23-3.69,5.33-2.47.85-38.18-8.45-71-4-30.49,4.13-97,30.68-102,30-4.77-.65-42.72-21.67-48-26-1.58-1.29-6.32-15.63-7.94-16.88-1.16-9.08-2.6-18.13-2.33-27.35.5-17.22,2.79-34.1,9.48-50.16a73.17,73.17,0,0,1,13-20.12A204.94,204.94,0,0,1,291.4,591.2c4.48-3.54,9.78-5.58,15.07-7.54,4-1.48,21.92-7.46,26.46-4.92C333.73,579.19,334.55,579.61,335.35,580.05Z" transform="translate(-54.63 -57.8)"/><path class="cls-9" d="M244.06,714.12c1.62,1.25,3.26,2.45,4.84,3.75a72.23,72.23,0,0,0,17.4,10.36c3.48,1.51,6.87,3.22,10.34,4.75a51.4,51.4,0,0,0,13.94,3.6,130.76,130.76,0,0,0,15.11,1.58,61.74,61.74,0,0,0,16.53-1.95c7.9-2.06,15.37-5.2,22.82-8.46q12-5.26,24.31-10.07c6.55-2.59,13.18-5,19.83-7.29,4.61-1.6,9.37-3,14.29-2.4A93.6,93.6,0,0,1,417,710.57c7.72,2.11,15.29,4.78,23,6.88A62,62,0,0,0,459,720c5-.21,9.94-.49,14.7-2.13a7.71,7.71,0,0,1,1-.17c.73,1.19,1.43,2.38,2.18,3.56a5.68,5.68,0,0,1,.07,6.25c-1.18,2.11-2.26,4.29-3.38,6.43-1.21,1.82-3.16,2-5,2-7.92.1-15.84.1-23.77.1-1.62,0-22-1.4-30.24-4.21C411,731,403,731,398.9,733c-6.27,3.1-12.36,6.57-18.44,10q-9.82,5.6-19.5,11.46a87.24,87.24,0,0,1-29.41,10.86c-6.17,1.16-12.34,2.37-18.56,3.15-5.37.67-10.82.78-16.24,1.09-2.87.17-12,1.21-13.63,1.66-6.94,1.87-12.54-.74-17.5-5.32-3.87-3.59-6.39-8.19-9.29-12.52-6.69-10-9.93-21.09-11.61-32.8C244.41,718.44,244.28,716.28,244.06,714.12Z" transform="translate(-54.63 -57.8)"/><path class="cls-12" d="M232.86,214.83c2.14.17,1.66,1.79,2,2.68,2.75,6.26,5.62,12.48,8.05,18.86,5.25,13.74,10.19,27.59,15.37,41.35,3.9,10.37,8.07,20.62,11.93,31,3.11,8.34,5.94,16.78,8.88,25.18,3.82,10.94,8.77,21.39,13.8,31.81,4.62,9.58,9.22,19.18,14,28.7,5.49,10.93,12.69,20.72,20.62,30,2.94,3.45,5.47,7.25,8.16,10.92.31.41-.46,1.67-.78,1.44-3.47-2.58-7-5.12-10.36-7.83a203.63,203.63,0,0,1-25.46-24.72c-10.62-12.1-18.74-25.82-26.11-40-5.31-10.22-10.59-20.46-15.46-30.88a323.88,323.88,0,0,1-16.16-43.63,324,324,0,0,1-8.3-34.62c-1.86-10-3.24-20-2.77-30.25C230.46,221.52,231,215,232.86,214.83Z" transform="translate(-54.63 -57.8)"/><path class="cls-12" d="M351,414c-2,1-3.32.23-3.67-2.74-.9-7.64-1.95-15.28-2.47-22.95-.53-7.84-.83-15.74-.61-23.59a186.33,186.33,0,0,1,2-20.39q1.75-12.79,4.15-25.5a298.23,298.23,0,0,1,12.68-45.39c7.53-21.1,14.6-41.57,24.94-61.44,1.06-2,3-6,4.62-6.45,1.38.45.6,5.71.7,8.55.28,8,.85,16.09-.33,24.07-1.29,8.68-2.76,17.34-4.51,25.93-2.05,10.09-4.4,20.12-6.77,30.14-2.32,9.8-6.22,19.07-9.84,28.43-6.06,15.63-12.19,31.24-16.43,47.5-3.16,12.12-5.34,24.37-4.77,37,.07,1.67.37,3.34.5,5C351.24,413,351,413,351,414Z" transform="translate(-54.63 -57.8)"/><path class="cls-13" d="M459.68,489.68a11.22,11.22,0,0,0-.9-3c-3.95-6-5-12.76-5.61-19.64a40.92,40.92,0,0,1,.3-9.05c2.53-8,11-8.93,13.56-7.9,3.37,1.34,6.25,3.09,8.05,6.43,3.11,5.76,4.45,12,5.05,18.37.33,3.51.34,7.05.51,10.57.06,1.23-.36,1.84-1.69,1.6-6.74-1.24-13.15,0-19.37,2.59C459.51,489.68,459.39,489.61,459.68,489.68Z" transform="translate(-54.63 -57.8)"/><path class="cls-13" d="M519.36,498.06c-.36-.06,4.08-.94,6.1-1.5,4.75-1.31,9.49-2.68,14.23-4l16.58-4.67a5.51,5.51,0,0,1,1.27-.26c1.64-.06,3.79-.78,4.63.87a5.68,5.68,0,0,1-.34,6.33c-3.22,3.95-6.56,7.81-9.85,11.7-1.74,2.05-3.73,2.52-6.38,1.57a65.51,65.51,0,0,0-15.56-4,9.74,9.74,0,0,1-3.42-1.38C524.49,501.59,519,500,519.36,498.06Z" transform="translate(-54.63 -57.8)"/><path class="cls-13" d="M548.77,464.81c-2.59.4-3.88,2.11-4.93,3.95a2.5,2.5,0,0,1-2.39,1.59c-1.6-1.77-3.45-3.35-4.47-5-2-3.4-4.12-11.36-5.05-16a18.11,18.11,0,0,1,.39-6.57,4.26,4.26,0,0,1,4.07-3.62c1.78-.15,3.06,1,4,2.38,2.73,4.24,4.32,9,5.78,13.74C547.09,458.42,547.86,461.52,548.77,464.81Z" transform="translate(-54.63 -57.8)"/></g><g id="Layer_7_copy_2" data-name="Layer 7 copy 2"><g id="_1yGvSJ.tif" data-name="1yGvSJ.tif"><path class="cls-14" d="M724.55,389.62a65.11,65.11,0,0,1,9.74,1.19,16.34,16.34,0,0,0,1.59.9c3.45,2.7,5.13,5.42,7.3,9.23a24.81,24.81,0,0,1,2.48,17c-1.44,7-5.57,11.63-10.88,16.14-1.1.93-2.35,1.14-3.27,2.28a57.4,57.4,0,0,1-7.76-.24c-.74-.08-.76.15-.56.75a172,172,0,0,0,6.55,16.7c1.14,2.55,2.36,5.05,3.58,7.56.25.51.37.67-.38.73a1.94,1.94,0,0,1-2.2-1.37,181.75,181.75,0,0,1-9.5-23.45c-.19-.61,0-1.46-1.11-1.52-.49,0-.61,0-.61.49,0,4.68.06,9.35.34,14,.23,3.65.57,7.29.86,10.93,0,.29.11.72-.37.6s-1.5.56-1.65-.57c-.2-1.51-.32-3-.43-4.53a204.81,204.81,0,0,1-.63-20.87c0-.64-.3-.72-.75-.85a35.44,35.44,0,0,1-15.4-8.76c-.35-.35-.69-.71-1.17-1.21,1.11,6.56,2.53,13.16,4,19.45-.63.18-1.29.28-1.92.46-1.41-6-2.78-12.32-3.81-18.79a158.18,158.18,0,0,0-3,20.76l-1.92.35A125.88,125.88,0,0,1,695,434.41c.26-1.82.6-3.63.9-5.44a3.13,3.13,0,0,0,0-.53,3.25,3.25,0,0,0-.46.22c-6.29,4.39-12.42,4.33-18.7-.19-.11-.09-.23-.16-.35-.24a2.08,2.08,0,0,0-.11.48,130.49,130.49,0,0,0,.86,14,136.44,136.44,0,0,0,3.21,18.49c.06.23.21.64-.24.57-.62-.11-1.56.66-1.82-.55-.57-2.7-1.19-5.39-1.67-8.1a141.14,141.14,0,0,1-2.31-25.54c0-.11,0-.22,0-.61a75.18,75.18,0,0,0-2.59,8.43,97.62,97.62,0,0,0-2.91,25.87c0,1.34-.86.86-1.47,1-.86.14-.6-.53-.6-.94a101.9,101.9,0,0,1,5.19-33.63,3.8,3.8,0,0,0,.13-.7,15.45,15.45,0,0,1-9,4.95,13.22,13.22,0,0,1-8.68-1c-4.3-2.17-5.46-6.75-2.75-10.74a7.76,7.76,0,0,1,2-2.24c.93-.61.91-1.24.66-2.21-1.83-7.25-5.23-13.77-9.21-20-.32-.5-.56-.59-1.12-.34a4.22,4.22,0,0,1-5.36-1.39c-.07-.48-.18-.71,0-1.07,1.52-2.25,5.33-2.47,6.73-.39,4.79,7.1,8.86,14.53,10.92,22.93.11.45.21.57.69.33a14.62,14.62,0,0,1,2.14-.84c.9-.28,2.06-.25,2.66-.82s.12-1.81.29-2.74a.25.25,0,0,1,0-.08c.19-5.87-.51-11.56-3.37-16.81-.29-.53-.42-.81-1.1-.32a3.49,3.49,0,0,1-4.93-.94c-.81-1.47-.08-2.84,2-3.74,0,0,0-.05.05-.07a3.62,3.62,0,0,1,1.79,0c1.69.51,2.61,1.83,3.45,3.25,3.61,6.09,4.46,12.76,4.09,19.67-.09,1.76-.15,1.73,1.56,1.85a11,11,0,0,1,5.35,1.78c.43.3.51.27.59-.27.94-6.62,4.53-11.08,11-12.91a14.28,14.28,0,0,1,13,2.64c.26.2.5.69.81-.06,2.5-6.13,7.24-9.95,13.13-12.53a30.93,30.93,0,0,1,11-2.74c.37,0,1.85-.32,2.22-.38a17.74,17.74,0,0,0,1.59,1,29.25,29.25,0,0,1,8.44,9.91A24.94,24.94,0,0,1,735,416.16c-1.14,7.42-3.87,11.89-9.41,16.69-.51.44-1.29,1.15-1.8,1.59.57.42,0,0,.68.11s-.11.49.68-.11a39.85,39.85,0,0,0,8-9c4-5.72,4.82-8.5,3.3-15.53-1.43-6.62-4.24-13-9.27-17.37A18.83,18.83,0,0,1,724.55,389.62Z" transform="translate(-54.63 -57.8)"/><path class="cls-14" d="M738.94,392c6.69,2.55,13.53,7,17.19,13.33a17.53,17.53,0,0,1-1.93,20.82c-4.74,5.54-11.79,8.56-18.85,9.78a3.56,3.56,0,0,1,.79-1.59c4-3.11,6.87-7.48,9.32-11.94,2.91-5.3,3.3-8.11,1.84-14-1.2-4.88-3.32-9.92-6.76-13.54A9.4,9.4,0,0,1,738.94,392Z" transform="translate(-54.63 -57.8)"/><path class="cls-15" d="M725.88,389.71a12.17,12.17,0,0,0,2.36,2.11c5,4.34,8.83,9.44,10.26,16.06,1.52,7-.41,13.26-4.42,19a40,40,0,0,1-8.46,8.47c-.79.61-1.4.19-2.07,0a4.88,4.88,0,0,1-1.91-.5l1.53-1.33c5.54-4.79,9.69-10.45,10.84-17.87a22.57,22.57,0,0,0-2.9-14.74,34.9,34.9,0,0,0-9.45-10.64,1.28,1.28,0,0,1-.26-.44A14.63,14.63,0,0,1,725.88,389.71Z" transform="translate(-54.63 -57.8)"/><path class="cls-15" d="M740.18,392.57c.31.89,1.13,1.34,1.74,2a28,28,0,0,1,7.18,12.63A22.64,22.64,0,0,1,746.57,424a36.7,36.7,0,0,1-9.92,11c-.24.19-.52.34-.51.7a23.87,23.87,0,0,1-5.71.64,22.36,22.36,0,0,1,3.3-2.76c5.31-4.51,9.35-9.86,10.79-16.81a22.4,22.4,0,0,0-2.76-16,33.15,33.15,0,0,0-8.43-9.76c-.15-.11-.21-.33-.32-.51A25.29,25.29,0,0,1,740.18,392.57Z" transform="translate(-54.63 -57.8)"/><path class="cls-14" d="M705,446.89c1.29,4.59,2.79,9.54,4.48,14,.19.49,0,.55-.45.6a1.59,1.59,0,0,1-2-1.29c-1.34-4.23-2.94-8.64-4-13C703.7,447.18,704.33,447,705,446.89Z" transform="translate(-54.63 -57.8)"/><path class="cls-14" d="M695.58,446.83c.14,3.85-.46,9.54-.44,14.15,0,1-.77.44-1.19.53s-.89.15-.87-.6c.14-3.71.24-7.43.37-11.14a12.3,12.3,0,0,1,.21-2.7C694.34,447,694.91,446.9,695.58,446.83Z" transform="translate(-54.63 -57.8)"/><path class="cls-15" d="M702.3,444.44l1.89-.55.37,1.44a3.36,3.36,0,0,1-1.82.61Z" transform="translate(-54.63 -57.8)"/><path class="cls-14" d="M702.74,445.94c.46-.63,1.16-.57,1.82-.61.09.33.21.89.3,1.22a2.55,2.55,0,0,1-1.81.47Z" transform="translate(-54.63 -57.8)"/><path class="cls-15" d="M695.62,447.17l-2,.2.12-.73,1.92-.37Z" transform="translate(-54.63 -57.8)"/><path class="cls-15" d="M703,446.76a2.61,2.61,0,0,0,1.84-.44,1.6,1.6,0,0,1,.28,1l-1.94.19C702.92,447.28,703,447,703,446.76Z" transform="translate(-54.63 -57.8)"/><path class="cls-16" d="M662,419.48c.85.06,1.15.65,1.18,1.38a1.08,1.08,0,0,1-1.08,1.26c-.83,0-1.15-.65-1.19-1.38A1.11,1.11,0,0,1,662,419.48Z" transform="translate(-54.63 -57.8)"/><path class="cls-16" d="M657.6,421.11c-.07.69-.32,1.27-1.1,1.25a1.18,1.18,0,0,1-1.2-1.19,1.06,1.06,0,0,1,1.06-1.19A1.15,1.15,0,0,1,657.6,421.11Z" transform="translate(-54.63 -57.8)"/></g></g><g id="Layer_8" data-name="Layer 8"><g id="Layer_1-2" data-name="Layer 1"><g id="Layer_3" data-name="Layer 3"><circle class="cls-17" cx="648.65" cy="249.6" r="89.04"/></g><g id="Layer_4" data-name="Layer 4"><circle class="cls-1" cx="612.83" cy="210.46" r="5.8"/><circle class="cls-1" cx="594.51" cy="208.74" r="4.09"/><path class="cls-1" d="M707.82,352.68a45.2,45.2,0,0,0-2.48-90,44.55,44.55,0,0,0-8.75.31h0a37.39,37.39,0,0,0-11,2.79c-4.09,2-6.72,5.34-6.72,9.81a10.56,10.56,0,0,0,10.54,10.54,30.58,30.58,0,0,0,5.15-1.34,24.06,24.06,0,0,1,9.55-1.3,24.37,24.37,0,1,1-21.88,37.73h0c-4.85-6.38-3.74-16.54-3.74-16.69a10.56,10.56,0,0,0-20.74-2.41,21.36,21.36,0,0,0-.3,3.82,45.16,45.16,0,0,0,42.3,46.93,41.34,41.34,0,0,0,8.1-.19m-25.66-30.59Z" transform="translate(-54.63 -57.8)"/><circle class="cls-1" cx="605.31" cy="225.7" r="7.52"/></g></g></g></svg>