<svg width="550" height="421" viewBox="0 0 550 421" fill="none" xmlns="http://www.w3.org/2000/svg">
<path d="M266.75 182.216H289.319V129.302V93.0776H410.603V78.0948" stroke="#CDCCCE" stroke-width="0.8556" stroke-linecap="round"/>
<path d="M304.776 219.862V129.302V110.431H423.69V78" stroke="#CDCCCE" stroke-width="0.8556" stroke-linecap="round"/>
<path d="M462.664 185.629V158.888H319.095V129.302H439.431V78" stroke="#CDCCCE" stroke-width="0.8556" stroke-linecap="round"/>
<path fill-rule="evenodd" clip-rule="evenodd" d="M476.224 38.6466C477.362 38.7414 478.5 38.8362 479.638 39.0259C489.69 40.4483 497.561 46.9914 498.983 55.3362C500.405 63.3017 495.948 71.2673 487.604 75.3448C484 77.1466 480.017 78.0948 475.845 78.0948C433.362 78.0948 390.88 78.0948 348.397 78.0948C344.035 78.0948 340.052 77.0517 336.354 75.1552C331.612 72.5948 328.198 69.0862 326.397 64.6293C324.405 59.888 324.595 55.1466 327.061 50.5C330.38 44.3362 336.164 40.6379 344.035 39.1207C346.405 38.6466 348.966 38.6466 351.431 38.8362C352.095 38.9311 352.38 38.7414 352.569 38.2673C355.888 32.3879 361.104 27.9311 368.121 25.0862C374 22.6207 380.354 21.6724 386.897 22.4311C388.414 22.6207 388.414 22.6207 389.173 21.4828C394.104 13.8966 401.311 8.39657 410.698 4.79312C417.811 2.13795 425.302 1.00002 433.078 1.47416C444.931 2.23278 455.078 6.12071 463.328 13.2328C469.492 18.5431 473.474 24.8966 475.181 32.1983C475.655 34.3793 475.94 36.4655 476.224 38.6466Z" stroke="#CDCCCE" stroke-width="0.8556" stroke-linecap="round"/>
<path fill-rule="evenodd" clip-rule="evenodd" d="M486.736 163.099C488.851 150.072 480.004 137.797 466.976 135.683C453.949 133.569 441.674 142.416 439.56 155.443C437.445 168.47 446.292 180.745 459.32 182.86C472.347 184.974 484.622 176.127 486.736 163.099Z" stroke="#CDCCCE" stroke-width="1.40132" stroke-linecap="round" stroke-dasharray="0.52 2.58"/>
<path fill-rule="evenodd" clip-rule="evenodd" d="M533.927 205.215C534.984 198.701 530.561 192.564 524.047 191.507C517.533 190.45 511.396 194.873 510.339 201.387C509.282 207.9 513.705 214.038 520.219 215.095C526.733 216.152 532.87 211.729 533.927 205.215Z" stroke="#CDCCCE" stroke-width="1.40132" stroke-linecap="round" stroke-dasharray="0.71 2.12"/>
<path fill-rule="evenodd" clip-rule="evenodd" d="M503.82 237.5C507.643 237.5 510.742 234.401 510.742 230.578C510.742 226.754 507.643 223.655 503.82 223.655C499.997 223.655 496.897 226.754 496.897 230.578C496.897 234.401 499.997 237.5 503.82 237.5Z" stroke="#CDCCCE" stroke-width="1.4013" stroke-linecap="round"/>
<path d="M289.319 185.345C291.204 185.345 292.733 183.816 292.733 181.931C292.733 180.046 291.204 178.517 289.319 178.517C287.434 178.517 285.905 180.046 285.905 181.931C285.905 183.816 287.434 185.345 289.319 185.345Z" fill="#CDCCCE"/>
<path d="M289.319 95.7328C290.786 95.7328 291.974 94.544 291.974 93.0776C291.974 91.6112 290.786 90.4224 289.319 90.4224C287.853 90.4224 286.664 91.6112 286.664 93.0776C286.664 94.544 287.853 95.7328 289.319 95.7328Z" fill="#CDCCCE"/>
<path d="M462.569 162.871C464.454 162.871 465.983 161.342 465.983 159.457C465.983 157.571 464.454 156.043 462.569 156.043C460.684 156.043 459.155 157.571 459.155 159.457C459.155 161.342 460.684 162.871 462.569 162.871Z" fill="#CDCCCE"/>
<path d="M304.776 113.086C306.243 113.086 307.431 111.897 307.431 110.431C307.431 108.965 306.243 107.776 304.776 107.776C303.31 107.776 302.121 108.965 302.121 110.431C302.121 111.897 303.31 113.086 304.776 113.086Z" fill="#CDCCCE"/>
<path d="M320.991 113.086C322.458 113.086 323.646 111.897 323.646 110.431C323.646 108.965 322.458 107.776 320.991 107.776C319.525 107.776 318.336 108.965 318.336 110.431C318.336 111.897 319.525 113.086 320.991 113.086Z" fill="#CDCCCE"/>
<path d="M423.595 113.086C425.061 113.086 426.25 111.897 426.25 110.431C426.25 108.965 425.061 107.776 423.595 107.776C422.128 107.776 420.939 108.965 420.939 110.431C420.939 111.897 422.128 113.086 423.595 113.086Z" fill="#CDCCCE"/>
<path d="M412.216 161.922C413.682 161.922 414.871 160.734 414.871 159.267C414.871 157.801 413.682 156.612 412.216 156.612C410.749 156.612 409.561 157.801 409.561 159.267C409.561 160.734 410.749 161.922 412.216 161.922Z" fill="#CDCCCE"/>
<path d="M410.603 95.7328C412.07 95.7328 413.259 94.544 413.259 93.0776C413.259 91.6112 412.07 90.4224 410.603 90.4224C409.137 90.4224 407.948 91.6112 407.948 93.0776C407.948 94.544 409.137 95.7328 410.603 95.7328Z" fill="#CDCCCE"/>
<path d="M439.241 131.198C440.708 131.198 441.896 130.01 441.896 128.543C441.896 127.077 440.708 125.888 439.241 125.888C437.775 125.888 436.586 127.077 436.586 128.543C436.586 130.01 437.775 131.198 439.241 131.198Z" fill="#CDCCCE"/>
<path fill-rule="evenodd" clip-rule="evenodd" d="M463.043 193.026C468.857 193.026 473.569 188.313 473.569 182.5C473.569 176.687 468.857 171.974 463.043 171.974C457.23 171.974 452.518 176.687 452.518 182.5C452.518 188.313 457.23 193.026 463.043 193.026Z" stroke="#D1B8F4" stroke-width="1.2404" stroke-linecap="round"/>
<path d="M5.31055 256.086C5.31055 254.948 5.31055 253.81 5.31055 252.767C6.73296 247.741 9.57779 243.853 13.7502 240.819C17.164 238.353 20.7674 236.457 24.5605 234.845C30.2502 232.379 36.2243 230.862 42.1985 229.25C204.354 229.25 366.414 229.25 528.569 229.25C528.948 229.819 529.612 229.534 530.086 229.629C535.492 230.293 540.707 231.716 544.974 235.319C548.673 238.353 550.38 242.336 549.905 247.172C549.242 252.862 546.017 257.129 541.845 260.733C534.164 267.466 524.871 270.784 515.104 272.871C509.793 274.009 504.483 275.336 499.742 278.181C493.198 282.164 490.638 288.233 492.345 295.629C494.147 303.121 498.509 309.19 503.345 314.974C505.147 317.155 507.233 319.052 509.888 320.379C512.828 321.802 515.293 323.888 517.664 326.069C527.242 334.793 529.423 346.362 523.733 358.026C521.552 362.578 518.612 366.655 515.198 370.448C505.431 381.353 493.673 389.509 480.871 396.336C456.026 409.612 429.474 416.914 401.5 419.569C388.698 420.802 375.897 421.086 363 419.569C351.431 418.147 340.242 415.207 329.526 410.75C317.957 405.914 307.242 399.371 296.526 392.922C286.664 387.043 276.612 381.353 265.707 377.371C249.871 371.586 233.466 369.879 216.776 369.026C206.724 368.552 197.526 370.733 188.992 376.328C178.561 383.155 166.992 387.422 154.948 390.457C143.948 393.207 132.854 394.914 121.569 395.767C111.612 396.526 101.561 396.431 91.6037 395.957C83.0692 395.483 74.5347 394.534 66.0002 393.491C58.0347 392.543 50.4485 390.552 43.4312 386.569C24.9399 375.853 14.5088 359.164 8.53468 339.25C7.68124 336.5 8.62951 333.845 10.7157 331.759C12.0433 330.431 13.6554 329.483 15.2674 328.629C18.6812 326.922 22.3795 325.69 25.983 324.552C33.1899 322.181 40.4916 320 47.1295 316.017C52.5347 312.793 56.8968 308.526 59.2674 302.552C61.4485 297.241 60.1209 293.164 55.3795 289.94C52.914 288.328 50.2588 287.19 47.5088 286.147C40.9657 283.681 34.233 281.784 27.7847 279.129C20.8623 276.19 14.414 272.586 9.67262 266.517C7.58641 263.198 6.35365 259.69 5.31055 256.086Z" fill="#2EBE8B"/>
<path d="M182.828 51.2586C175.905 50.9741 167.845 51.069 163.293 56.2845C161.017 58.8448 159.974 62.3534 157.888 65.1034C146.698 79.9914 119.673 62.8276 105.164 74.4914C103.173 76.1034 101.466 78.1896 99.2847 79.6121C95.5864 81.9828 91.0347 81.9828 86.6726 81.9828C75.9571 81.8879 65.3364 81.7931 54.6209 81.6034C46.3709 81.5086 35.845 82.931 33.5692 90.8965C31.1985 98.8621 39.6381 105.974 47.6985 108.155C67.233 113.371 91.8881 105.405 105.638 120.103C108.673 123.328 110.664 127.31 113.604 130.629C124.224 143.052 142.905 143.716 159.216 143.526C174.104 143.336 189.276 143.052 203.5 138.595C217.724 134.138 231.095 124.655 236.69 110.81C238.397 106.543 239.535 101.707 243.138 98.8621C246.552 96.2069 251.198 96.0172 254.992 94.0259C265.043 88.7155 264 72.6896 255.75 64.819C247.5 56.9483 235.457 55.1465 224.078 53.819" fill="#8CF28C"/>
<path d="M209.001 109.103L180.837 126.647C180.837 126.647 167.371 128.733 157.889 120.767L137.88 103.034" stroke="#A58681" stroke-width="3.4402" stroke-linecap="round"/>
<path d="M142.242 123.897L157.889 120.862" stroke="#A58681" stroke-width="3.4402" stroke-linecap="round"/>
<path d="M179.224 78.3793V78.3793C177.896 78.3793 176.758 79.138 176.758 80.0862L174.293 211.802C174.293 212.75 174.957 213.603 176.19 214.078C177.138 214.457 178.56 214.457 180.362 213.698C181.405 213.224 181.974 212.466 181.974 211.612L179.224 78.3793Z" fill="#A58681"/>
<path d="M128.302 91.5603C131.444 91.5603 133.992 89.013 133.992 85.8707C133.992 82.7284 131.444 80.181 128.302 80.181C125.16 80.181 122.612 82.7284 122.612 85.8707C122.612 89.013 125.16 91.5603 128.302 91.5603Z" fill="#F9879A"/>
<path d="M87.2414 103.034C90.3837 103.034 92.9311 100.487 92.9311 97.3448C92.9311 94.2025 90.3837 91.6552 87.2414 91.6552C84.0991 91.6552 81.5518 94.2025 81.5518 97.3448C81.5518 100.487 84.0991 103.034 87.2414 103.034Z" fill="#F9879A"/>
<path d="M126.216 125.509C129.358 125.509 131.906 122.961 131.906 119.819C131.906 116.677 129.358 114.129 126.216 114.129C123.074 114.129 120.526 116.677 120.526 119.819C120.526 122.961 123.074 125.509 126.216 125.509Z" fill="#F9879A"/>
<path d="M200.181 91.5603C203.323 91.5603 205.871 89.013 205.871 85.8707C205.871 82.7284 203.323 80.181 200.181 80.181C197.039 80.181 194.491 82.7284 194.491 85.8707C194.491 89.013 197.039 91.5603 200.181 91.5603Z" fill="#F9879A"/>
<path d="M246.268 67.569C249.934 67.569 252.906 64.597 252.906 60.931C252.906 57.265 249.934 54.2931 246.268 54.2931C242.602 54.2931 239.63 57.265 239.63 60.931C239.63 64.597 242.602 67.569 246.268 67.569Z" fill="#F9879A"/>
<path d="M76.8105 52.3966C71.2157 50.7845 64.7674 52.8707 61.164 57.3276C59.3623 59.5086 58.2243 62.5431 59.3623 65.1983C60.8795 68.6121 65.3364 69.2759 69.0347 68.9914C73.4916 68.6121 77.8536 67.3793 81.8364 65.4828C84.3019 64.3448 86.7674 62.7328 88.0002 60.2673C89.1381 57.8017 88.4743 54.2931 85.914 53.25" fill="#8CF28C"/>
<path d="M23.9916 72.1207C20.9571 72.0259 17.6382 71.8362 15.0778 70.2241C12.4227 68.6121 10.7158 65.1034 12.1382 62.3534C13.8451 59.1293 18.5865 59.1293 21.9054 60.5517C24.7502 61.6896 27.5951 63.9655 28.0692 67C28.5433 70.0345 25.3192 73.4483 22.5692 72.2155" fill="#8CF28C"/>
<path d="M313.975 223.466C313.975 230.293 319.38 235.793 326.018 235.793C326.871 235.793 327.725 235.698 328.483 235.509H452.802C457.923 235.509 462.19 231.241 462.19 225.931C462.19 220.621 458.018 216.353 452.802 216.353H451.38C451.38 208.862 445.5 202.793 438.199 202.793C435.733 202.793 433.363 203.552 431.371 204.784C428.526 200.612 423.88 197.957 418.569 197.957C412.5 197.957 407.285 201.466 404.725 206.681C403.113 203.647 400.078 201.56 396.475 201.56C392.776 201.56 389.552 203.741 388.035 206.966C386.518 202.698 382.535 199.664 377.888 199.664C373.526 199.664 369.733 202.319 368.026 206.207C364.423 201.56 358.828 198.526 352.569 198.526C343.371 198.526 335.69 204.974 333.509 213.603C331.423 211.991 328.863 211.043 326.113 211.043C319.38 211.138 313.975 216.638 313.975 223.466Z" fill="#8A8ABF"/>
<path d="M232.802 103.319C216.018 120.103 223.604 156.897 224.931 162.966C226.069 168.086 228.819 178.707 235.836 175.957C241.621 173.681 247.595 172.733 251.578 175.103C255.845 177.664 262.957 188.948 266.276 185.25C280.88 169.035 312.457 177.095 322.414 160.31C327.345 151.966 329.431 140.776 323.742 132.905C316.914 123.517 294.63 122.379 289.604 111.853C287.897 108.345 287.707 104.172 285.905 100.664C283.63 96.2069 279.078 92.0345 274.052 92.0345C274.147 92.0345 247.026 89.0949 232.802 103.319Z" fill="#4C969B"/>
<path d="M266.371 117.164V168.086V205.353" stroke="#1D6058" stroke-width="2.6886" stroke-linecap="round"/>
<path d="M265.802 152.629C265.802 152.629 255.371 136.035 242.475 131.767" stroke="#1D6058" stroke-width="2.6886" stroke-linecap="round"/>
<path d="M266.371 168.086L279.742 166.284C279.742 166.284 289.699 162.586 292.923 156.328L299.466 142.672" stroke="#1D6058" stroke-width="2.6886" stroke-linecap="round"/>
<path d="M326.017 313.647V225.078" stroke="#BCA9FF" stroke-width="0.5328" stroke-linecap="round"/>
<path d="M322.13 360.681L324.69 363.336L322.13 365.897" stroke="#70E57B" stroke-width="0.8772" stroke-linecap="round" stroke-linejoin="round"/>
<path d="M324.69 363.336H272.63" stroke="#70E57B" stroke-width="0.8772" stroke-linecap="round" stroke-linejoin="round"/>
<path d="M327.156 374.716V287" stroke="#70E57B" stroke-width="1.1383" stroke-linecap="round" stroke-linejoin="round"/>
<path d="M162.156 372.724V307.862" stroke="#70E57B" stroke-width="0.9784" stroke-linecap="round" stroke-linejoin="round"/>
<path d="M275.19 365.897L272.63 363.336L275.19 360.681" stroke="#70E57B" stroke-width="0.8772" stroke-linecap="round" stroke-linejoin="round"/>
<path d="M267.319 360.681L269.88 363.336L267.319 365.897" stroke="#8DFF9D" stroke-width="0.8772" stroke-linecap="round" stroke-linejoin="round"/>
<path d="M269.88 363.336H165.38" stroke="#8DFF9D" stroke-width="0.8772" stroke-linecap="round" stroke-linejoin="round"/>
<path d="M166.992 365.897L164.432 363.336L166.992 360.681" stroke="#8DFF9D" stroke-width="0.8772" stroke-linecap="round" stroke-linejoin="round"/>
<path d="M270.259 290.129C270.887 290.129 271.397 289.62 271.397 288.991C271.397 288.363 270.887 287.853 270.259 287.853C269.631 287.853 269.121 288.363 269.121 288.991C269.121 289.62 269.631 290.129 270.259 290.129Z" fill="#BCA9FF"/>
<path fill-rule="evenodd" clip-rule="evenodd" d="M281.733 290.129C282.361 290.129 282.871 289.62 282.871 288.991C282.871 288.363 282.361 287.853 281.733 287.853C281.104 287.853 280.595 288.363 280.595 288.991C280.595 289.62 281.104 290.129 281.733 290.129Z" stroke="#BCA9FF" stroke-width="0.8863" stroke-linecap="round" stroke-linejoin="round"/>
<path fill-rule="evenodd" clip-rule="evenodd" d="M293.207 290.129C293.836 290.129 294.345 289.62 294.345 288.991C294.345 288.363 293.836 287.853 293.207 287.853C292.579 287.853 292.069 288.363 292.069 288.991C292.069 289.62 292.579 290.129 293.207 290.129Z" stroke="#BCA9FF" stroke-width="0.8863" stroke-linecap="round" stroke-linejoin="round"/>
<path fill-rule="evenodd" clip-rule="evenodd" d="M304.681 290.129C305.309 290.129 305.819 289.62 305.819 288.991C305.819 288.363 305.309 287.853 304.681 287.853C304.052 287.853 303.543 288.363 303.543 288.991C303.543 289.62 304.052 290.129 304.681 290.129Z" stroke="#BCA9FF" stroke-width="0.8863" stroke-linecap="round" stroke-linejoin="round"/>
<path fill-rule="evenodd" clip-rule="evenodd" d="M339.104 290.129C339.732 290.129 340.242 289.62 340.242 288.991C340.242 288.363 339.732 287.853 339.104 287.853C338.475 287.853 337.966 288.363 337.966 288.991C337.966 289.62 338.475 290.129 339.104 290.129Z" stroke="#BCA9FF" stroke-width="0.8863" stroke-linecap="round" stroke-linejoin="round"/>
<path fill-rule="evenodd" clip-rule="evenodd" d="M393.061 290.129C393.689 290.129 394.199 289.62 394.199 288.991C394.199 288.363 393.689 287.853 393.061 287.853C392.432 287.853 391.923 288.363 391.923 288.991C391.923 289.62 392.432 290.129 393.061 290.129Z" stroke="#BCA9FF" stroke-width="0.8863" stroke-linecap="round" stroke-linejoin="round"/>
<path fill-rule="evenodd" clip-rule="evenodd" d="M159.5 343.707C160.129 343.707 160.638 343.197 160.638 342.569C160.638 341.94 160.129 341.431 159.5 341.431C158.872 341.431 158.362 341.94 158.362 342.569C158.362 343.197 158.872 343.707 159.5 343.707Z" stroke="#BCA9FF" stroke-width="0.8863" stroke-linecap="round" stroke-linejoin="round"/>
<path fill-rule="evenodd" clip-rule="evenodd" d="M148.027 343.707C148.655 343.707 149.165 343.197 149.165 342.569C149.165 341.94 148.655 341.431 148.027 341.431C147.398 341.431 146.889 341.94 146.889 342.569C146.889 343.197 147.398 343.707 148.027 343.707Z" stroke="#BCA9FF" stroke-width="0.8863" stroke-linecap="round" stroke-linejoin="round"/>
<path fill-rule="evenodd" clip-rule="evenodd" d="M125.077 343.707C125.706 343.707 126.215 343.197 126.215 342.569C126.215 341.94 125.706 341.431 125.077 341.431C124.449 341.431 123.939 341.94 123.939 342.569C123.939 343.197 124.449 343.707 125.077 343.707Z" stroke="#BCA9FF" stroke-width="0.8863" stroke-linecap="round" stroke-linejoin="round"/>
<path fill-rule="evenodd" clip-rule="evenodd" d="M166.612 353.664C189.342 353.664 207.767 335.365 207.767 312.793C207.767 290.221 189.342 271.922 166.612 271.922C143.883 271.922 125.457 290.221 125.457 312.793C125.457 335.365 143.883 353.664 166.612 353.664Z" stroke="#70E57B" stroke-width="2.4111" stroke-linecap="round" stroke-dasharray="0.89 4.44"/>
<path fill-rule="evenodd" clip-rule="evenodd" d="M325.923 310.802C342.525 310.802 355.983 297.471 355.983 281.026C355.983 264.581 342.525 251.25 325.923 251.25C309.321 251.25 295.862 264.581 295.862 281.026C295.862 297.471 309.321 310.802 325.923 310.802Z" stroke="#70E57B" stroke-width="3.5145" stroke-linecap="round" stroke-dasharray="1.77 5.31"/>
<path fill-rule="evenodd" clip-rule="evenodd" d="M240.768 407.621C247.419 407.621 252.811 402.271 252.811 395.672C252.811 389.074 247.419 383.724 240.768 383.724C234.116 383.724 228.725 389.074 228.725 395.672C228.725 402.271 234.116 407.621 240.768 407.621Z" stroke="#BCA9FF" stroke-width="2.4111" stroke-linecap="round"/>
<path fill-rule="evenodd" clip-rule="evenodd" d="M399.265 352.069L387.127 352.069L387.127 345.526L399.265 345.526L399.265 352.069Z" stroke="#64E887" stroke-width="0.9015" stroke-linecap="round"/>
<path fill-rule="evenodd" clip-rule="evenodd" d="M387.182 345.597L375.044 345.597L375.044 339.054L387.182 339.054L387.182 345.597Z" stroke="#64E887" stroke-width="0.9015" stroke-linecap="round"/>
<path fill-rule="evenodd" clip-rule="evenodd" d="M375.003 352.069L362.865 352.069L362.865 345.526L375.003 345.526L375.003 352.069Z" stroke="#64E887" stroke-width="0.9015" stroke-linecap="round"/>
<path fill-rule="evenodd" clip-rule="evenodd" d="M350.646 352.069L338.508 352.069L338.508 345.526L350.646 345.526L350.646 352.069Z" stroke="#64E887" stroke-width="0.9015" stroke-linecap="round"/>
<path fill-rule="evenodd" clip-rule="evenodd" d="M338.467 345.597L326.329 345.597L326.329 339.054L338.467 339.054L338.467 345.597Z" stroke="#64E887" stroke-width="0.9015" stroke-linecap="round"/>
<path fill-rule="evenodd" clip-rule="evenodd" d="M362.824 345.597L350.686 345.597L350.686 339.054L362.824 339.054L362.824 345.597Z" stroke="#64E887" stroke-width="0.9015" stroke-linecap="round"/>
<path fill-rule="evenodd" clip-rule="evenodd" d="M326.383 352.069L314.245 352.069L314.245 345.526L326.383 345.526L326.383 352.069Z" stroke="#64E887" stroke-width="0.9015" stroke-linecap="round"/>
<path fill-rule="evenodd" clip-rule="evenodd" d="M302.066 352.069L277.032 352.069L277.032 345.526L302.066 345.526L302.066 352.069Z" stroke="#64E887" stroke-width="0.9015" stroke-linecap="round"/>
<path fill-rule="evenodd" clip-rule="evenodd" d="M251.984 352.069L226.95 352.069L226.95 345.526L251.984 345.526L251.984 352.069Z" stroke="#64E887" stroke-width="0.9015" stroke-linecap="round"/>
<path fill-rule="evenodd" clip-rule="evenodd" d="M201.956 352.069L151.603 352.069L151.603 345.526L201.956 345.526L201.956 352.069Z" stroke="#64E887" stroke-width="0.9015" stroke-linecap="round"/>
<path fill-rule="evenodd" clip-rule="evenodd" d="M101.219 352.069L2.21875 352.069L2.21875 345.526L101.219 345.526L101.219 352.069Z" stroke="#64E887" stroke-width="0.9015" stroke-linecap="round"/>
<path fill-rule="evenodd" clip-rule="evenodd" d="M151.56 345.597L101.206 345.597L101.206 339.054L151.56 339.054L151.56 345.597Z" stroke="#64E887" stroke-width="0.9015" stroke-linecap="round"/>
<path fill-rule="evenodd" clip-rule="evenodd" d="M276.979 345.597L251.944 345.597L251.944 339.054L276.979 339.054L276.979 345.597Z" stroke="#64E887" stroke-width="0.9015" stroke-linecap="round"/>
<path fill-rule="evenodd" clip-rule="evenodd" d="M226.991 345.597L201.957 345.597L201.957 339.054L226.991 339.054L226.991 345.597Z" stroke="#64E887" stroke-width="0.9015" stroke-linecap="round"/>
<path fill-rule="evenodd" clip-rule="evenodd" d="M314.205 345.597L302.067 345.597L302.067 339.054L314.205 339.054L314.205 345.597Z" stroke="#64E887" stroke-width="0.9015" stroke-linecap="round"/>
<path d="M399.319 352.147V335.457" stroke="#64E887" stroke-width="0.9015" stroke-linecap="round"/>
<path d="M302.026 352.147V335.457" stroke="#64E887" stroke-width="0.9015" stroke-linecap="round"/>
<path d="M201.793 352.147V335.457" stroke="#64E887" stroke-width="0.7667" stroke-linecap="round"/>
<path d="M101.276 352.147V335.457" stroke="#64E887" stroke-width="0.7667" stroke-linecap="round"/>
<path d="M2.2759 352.147V335.457" stroke="#64E887" stroke-width="0.9015" stroke-linecap="round"/>
<path d="M302.026 331.569C302.916 331.569 303.638 331.187 303.638 330.715C303.638 330.244 302.916 329.862 302.026 329.862C301.136 329.862 300.414 330.244 300.414 330.715C300.414 331.187 301.136 331.569 302.026 331.569Z" fill="#BCA9FF" stroke="#64E887"/>
<path d="M201.794 331.569C202.684 331.569 203.406 331.187 203.406 330.715C203.406 330.244 202.684 329.862 201.794 329.862C200.903 329.862 200.182 330.244 200.182 330.715C200.182 331.187 200.903 331.569 201.794 331.569Z" fill="#BCA9FF" stroke="#64E887"/>
<path d="M101.276 331.569C102.166 331.569 102.888 331.187 102.888 330.715C102.888 330.244 102.166 329.862 101.276 329.862C100.386 329.862 99.6641 330.244 99.6641 330.715C99.6641 331.187 100.386 331.569 101.276 331.569Z" fill="#BCA9FF" stroke="#64E887"/>
<path d="M2.27613 331.569C3.16645 331.569 3.8882 331.187 3.8882 330.715C3.8882 330.244 3.16645 329.862 2.27613 329.862C1.38581 329.862 0.664062 330.244 0.664062 330.715C0.664062 331.187 1.38581 331.569 2.27613 331.569Z" fill="#BCA9FF" stroke="#64E887"/>
<path fill-rule="evenodd" clip-rule="evenodd" d="M297.948 322.181C298.733 322.181 299.37 321.587 299.37 320.853C299.37 320.12 298.733 319.526 297.948 319.526C297.162 319.526 296.525 320.12 296.525 320.853C296.525 321.587 297.162 322.181 297.948 322.181Z" stroke="#7BFFA3" stroke-width="1.0157" stroke-linecap="round" stroke-linejoin="round"/>
<path fill-rule="evenodd" clip-rule="evenodd" d="M284.294 322.181C285.079 322.181 285.716 321.587 285.716 320.853C285.716 320.12 285.079 319.526 284.294 319.526C283.508 319.526 282.871 320.12 282.871 320.853C282.871 321.587 283.508 322.181 284.294 322.181Z" stroke="#7BFFA3" stroke-width="1.0157" stroke-linecap="round" stroke-linejoin="round"/>
<path fill-rule="evenodd" clip-rule="evenodd" d="M270.638 322.181C271.424 322.181 272.061 321.587 272.061 320.853C272.061 320.12 271.424 319.526 270.638 319.526C269.853 319.526 269.216 320.12 269.216 320.853C269.216 321.587 269.853 322.181 270.638 322.181Z" stroke="#7BFFA3" stroke-width="1.0157" stroke-linecap="round" stroke-linejoin="round"/>
<path fill-rule="evenodd" clip-rule="evenodd" d="M224.172 322.181C224.958 322.181 225.595 321.587 225.595 320.853C225.595 320.12 224.958 319.526 224.172 319.526C223.387 319.526 222.75 320.12 222.75 320.853C222.75 321.587 223.387 322.181 224.172 322.181Z" stroke="#7BFFA3" stroke-width="1.0157" stroke-linecap="round" stroke-linejoin="round"/>
<path fill-rule="evenodd" clip-rule="evenodd" d="M210.422 322.181C211.208 322.181 211.845 321.587 211.845 320.853C211.845 320.12 211.208 319.526 210.422 319.526C209.637 319.526 209 320.12 209 320.853C209 321.587 209.637 322.181 210.422 322.181Z" stroke="#7BFFA3" stroke-width="1.0157" stroke-linecap="round" stroke-linejoin="round"/>
<path d="M65.6211 241.103H329.242C329.242 241.103 307.906 185.44 257.173 206.681C257.173 206.681 219.526 142.957 157.319 201.845C157.319 201.845 91.7935 155.948 65.6211 241.103Z" fill="url(#paint0_linear)"/>
<path d="M204.354 224.698C203.88 226.974 205.302 229.25 207.483 229.724C208.621 230.009 209.759 229.724 210.613 229.155C211.561 228.586 212.225 227.638 212.414 226.5C212.888 224.224 211.466 221.948 209.285 221.474C207.009 220.905 204.828 222.328 204.354 224.698Z" fill="white"/>
<path d="M214.595 249.638C214.595 249.638 214.88 236.362 210.612 229.06" stroke="#00896F" stroke-width="1.8938" stroke-linecap="round" stroke-linejoin="round"/>
<path d="M193.448 235.509C193.448 237.121 194.681 238.448 196.293 238.448C197.052 238.448 197.81 238.164 198.284 237.595C198.759 237.026 199.138 236.362 199.138 235.509C199.138 233.897 197.905 232.569 196.293 232.569C194.681 232.569 193.448 233.897 193.448 235.509Z" fill="white"/>
<path d="M203.974 250.871C203.974 250.871 202.267 241.862 198.379 237.595" stroke="#00896F" stroke-width="1.3034" stroke-linecap="round" stroke-linejoin="round"/>
<path d="M88.6635 343.422C88.4738 345.888 90.3704 347.974 92.7411 348.069C93.9738 348.164 95.1118 347.69 95.9652 347.026C96.8186 346.267 97.3876 345.224 97.4824 343.991C97.6721 341.526 95.7755 339.44 93.4049 339.345C90.9393 339.155 88.7583 340.957 88.6635 343.422Z" fill="white"/>
<path d="M103.456 367.509C103.456 367.509 101.56 353.853 95.9648 347.026" stroke="#00896F" stroke-width="2.0625" stroke-linecap="round" stroke-linejoin="round"/>
<path d="M408.992 370.353C409.561 372.724 408.138 375.095 405.862 375.664C404.724 375.948 403.586 375.664 402.638 375.095C401.69 374.526 401.026 373.578 400.742 372.345C400.173 369.974 401.595 367.603 403.871 367.035C406.147 366.56 408.423 367.983 408.992 370.353Z" fill="white"/>
<path d="M399.13 396.431C399.13 396.431 398.561 382.681 402.733 375" stroke="#00896F" stroke-width="2.005" stroke-linecap="round" stroke-linejoin="round"/>
<path d="M377.414 306.914C377.604 308.716 376.371 310.328 374.664 310.517C373.811 310.612 372.958 310.328 372.389 309.853C371.725 309.379 371.346 308.526 371.251 307.672C371.061 305.871 372.294 304.259 374.001 304.069C375.708 303.879 377.225 305.112 377.414 306.914Z" fill="white"/>
<path d="M367.932 325.216C367.932 325.216 368.69 315.069 372.389 309.853" stroke="#00896F" stroke-width="1.4767" stroke-linecap="round" stroke-linejoin="round"/>
<path d="M54.3364 220.526C54.3364 220.526 49.1209 226.785 46.5605 233.517V241.198C46.5605 241.198 55.095 234.086 54.3364 220.526Z" fill="#069F98"/>
<path d="M46.1812 244.517L46.5605 230.198C46.5605 220.336 42.0088 219.009 42.0088 219.009" stroke="#069F98" stroke-width="1.9584" stroke-linecap="round" stroke-linejoin="round"/>
<path d="M28.543 233.233C28.543 233.233 39.4481 232.664 43.0516 235.983C43.0516 235.983 45.8016 239.397 46.1809 242.81C46.1809 242.81 32.4309 237.595 28.543 233.233Z" fill="#069F98"/>
<path opacity="0.8" d="M27.9741 214.647C27.9741 214.647 35.3707 223.655 45.5172 219.578C55.6638 215.5 56.5172 208.103 56.8966 203.362C56.8966 203.362 56.8966 198.905 54.0517 198.905C52.25 198.905 51.0172 201.181 51.0172 201.181C50.4483 201.845 49.7845 204.31 48.3621 201.94C46.6552 199.19 44.1897 198.716 42.9569 199.19C41.7241 199.664 41.25 201.56 41.0604 202.603C40.7759 203.647 40.1121 204.026 38.5948 203.172C37.3621 202.509 36.7931 201.181 35.0862 202.224C33.4741 203.172 34.6121 205.828 34.6121 205.828C34.6121 205.828 36.0345 208.483 32.7155 207.155C32.7155 207.155 28.8276 206.112 26.931 208.388C24.75 211.043 27.9741 214.647 27.9741 214.647Z" fill="#A97DFF"/>
<path d="M28.3536 226.405C28.3536 226.405 39.0691 229.44 43.8105 220.621C48.5518 211.802 44.4743 205.448 41.8191 201.56C41.8191 201.56 39.0691 198.052 37.0777 199.664C35.8449 200.612 36.3191 203.172 36.3191 203.172C36.3191 204.026 37.3622 206.302 34.8967 205.259C32.0518 204.026 29.9656 205.069 29.3967 206.017C28.8277 206.966 29.6812 208.767 30.1553 209.81C30.6294 210.759 30.4398 211.517 28.7329 211.612C27.5001 211.707 26.2674 211.043 25.6036 212.845C25.0346 214.552 27.5001 215.974 27.5001 215.974C27.5001 215.974 30.1553 217.302 27.026 218.06C27.026 218.06 23.6122 219.388 23.707 222.233C23.8967 225.362 28.3536 226.405 28.3536 226.405Z" fill="#7461CE"/>
<path d="M491.207 241.388C491.207 241.388 496.232 247.647 498.793 254.379V262.06C498.698 262.06 490.448 254.948 491.207 241.388Z" fill="#069F98"/>
<path d="M499.078 265.379L498.698 251.06C498.698 241.198 503.06 239.871 503.06 239.871" stroke="#069F98" stroke-width="1.9251" stroke-linecap="round" stroke-linejoin="round"/>
<path d="M516.146 254.095C516.146 254.095 505.525 253.526 502.112 256.845C502.112 256.845 499.456 260.259 499.077 263.672C499.077 263.672 512.353 258.457 516.146 254.095Z" fill="#069F98"/>
<path opacity="0.8" d="M516.715 235.509C516.715 235.509 509.603 244.517 499.741 240.44C489.879 236.457 489.121 228.966 488.741 224.224C488.741 224.224 488.741 219.767 491.491 219.767C493.198 219.767 494.431 222.043 494.431 222.043C495 222.707 495.664 225.172 496.991 222.802C498.603 220.052 500.974 219.578 502.207 220.052C503.345 220.431 503.819 222.422 504.008 223.466C504.198 224.509 504.862 224.888 506.474 224.035C507.612 223.371 508.181 222.043 509.888 223.086C511.5 224.035 510.362 226.69 510.362 226.69C510.362 226.69 508.939 229.345 512.164 228.017C512.164 228.017 515.957 226.974 517.758 229.25C519.75 231.905 516.715 235.509 516.715 235.509Z" fill="#A97DFF"/>
<path d="M516.241 247.267C516.241 247.267 505.905 250.302 501.259 241.483C496.612 232.664 500.595 226.31 503.155 222.422C503.155 222.422 505.81 218.914 507.707 220.526C508.94 221.474 508.466 224.035 508.466 224.035C508.466 224.888 507.422 227.164 509.793 226.121C512.543 224.888 514.534 225.931 515.103 226.879C515.672 227.828 514.819 229.629 514.345 230.672C513.871 231.621 514.06 232.379 515.767 232.474C517 232.569 518.138 231.905 518.707 233.707C519.276 235.414 516.905 236.836 516.905 236.836C516.905 236.836 514.345 238.164 517.379 238.922C517.379 238.922 520.603 240.25 520.603 243.095C520.603 246.224 516.241 247.267 516.241 247.267Z" fill="#7461CE"/>
<path d="M427.578 339.819C427.578 339.819 434.975 348.922 438.673 358.879V370.069C438.673 370.164 426.535 359.733 427.578 339.819Z" fill="#069F98"/>
<path d="M439.147 375L438.578 354.043C438.578 339.629 445.026 337.543 445.026 337.543" stroke="#069F98" stroke-width="2.8216" stroke-linecap="round" stroke-linejoin="round"/>
<path d="M464.181 358.5C464.181 358.5 448.724 357.647 443.698 362.483C443.698 362.483 439.716 367.509 439.242 372.44C439.147 372.44 458.586 364.853 464.181 358.5Z" fill="#069F98"/>
<path opacity="0.8" d="M465.035 331.285C465.035 331.285 454.604 344.466 440.19 338.586C425.776 332.707 424.638 321.707 424.069 314.785C424.069 314.785 424.069 308.336 428.052 308.336C430.612 308.336 432.414 311.655 432.414 311.655C433.173 312.698 434.216 316.207 436.207 312.793C438.578 308.81 442.087 308.147 443.793 308.716C445.5 309.285 446.164 312.224 446.543 313.741C446.923 315.259 447.871 315.922 450.147 314.595C451.854 313.647 452.707 311.655 455.173 313.267C457.449 314.69 455.837 318.578 455.837 318.578C455.837 318.578 453.75 322.466 458.492 320.569C458.492 320.569 463.992 319.052 466.647 322.371C469.587 325.974 465.035 331.285 465.035 331.285Z" fill="#A97DFF"/>
<path d="M464.371 348.448C464.371 348.448 449.199 352.81 442.466 339.914C435.828 327.017 441.518 317.724 445.216 311.94C445.216 311.94 449.104 306.819 451.854 309.095C453.656 310.517 452.992 314.216 452.992 314.216C452.992 315.448 451.475 318.862 454.984 317.345C459.061 315.543 461.906 317.06 462.759 318.483C463.613 319.905 462.38 322.56 461.716 323.983C461.053 325.405 461.337 326.448 463.708 326.638C465.509 326.828 467.216 325.785 468.07 328.44C468.828 330.905 465.415 332.991 465.415 332.991C465.415 332.991 461.621 334.888 466.078 336.026C466.078 336.026 470.82 338.017 470.82 342.095C470.725 346.836 464.371 348.448 464.371 348.448Z" fill="#7461CE"/>
<path d="M156.182 337.069C154.001 336.121 151.63 336.405 149.354 336.026C144.897 335.267 140.345 334.414 136.173 332.612C134.751 332.043 133.423 331.284 132.38 330.241C130.768 328.629 130.768 327.017 132.38 325.405C133.423 324.362 134.656 323.698 135.983 323.129C139.492 321.612 144.044 320.379 147.837 319.716C148.406 321.043 147.363 322.75 147.552 324.172C147.458 324.267 147.647 328.819 147.837 331C147.837 331.379 148.027 331.664 148.406 331.853C149.449 332.422 150.492 333.086 151.725 333.181C158.837 333.845 165.854 333.94 172.966 333.181C175.052 332.991 177.139 332.991 179.13 332.233C182.259 331 183.492 328.44 182.449 325.026C182.544 323.319 182.544 321.707 182.639 320C186.621 320.759 190.509 321.517 194.302 323.224C195.725 323.793 197.052 324.552 198.095 325.69C199.613 327.302 199.613 328.819 198.095 330.431C196.389 332.138 194.208 332.991 192.027 333.75C186.432 335.741 180.552 336.405 174.673 336.974C174.294 336.974 173.82 336.784 173.63 337.353C167.751 337.069 161.966 337.069 156.182 337.069Z" fill="#4E332F"/>
<path fill-rule="evenodd" clip-rule="evenodd" d="M90.1717 279.303C88.8541 280.444 87.5225 281.596 85.819 282.164C80.0345 284.914 78.7069 290.319 77.8534 296.103C77.806 296.388 77.7349 296.672 77.6638 296.957L77.6638 296.957C77.5927 297.241 77.5215 297.526 77.4741 297.81C77.3793 301.224 77.9483 304.543 78.8965 307.862C80.6983 314.31 85.4397 318.198 90.4655 321.802C92.4569 323.224 94.6379 324.172 97.1983 323.793C98.5078 321.01 103.985 320.206 106.375 319.854C106.754 319.799 107.055 319.754 107.25 319.716C107.724 319.621 109.716 319.526 110.095 319.716C112.939 320.743 118.351 320.124 120.406 319.889C120.818 319.842 121.095 319.81 121.19 319.81C123.874 319.765 126.472 319.217 129.066 318.67C131.877 318.077 134.685 317.485 137.595 317.534C137.31 316.302 137.879 315.259 138.733 314.5C140.534 312.793 141.767 310.802 142.716 308.621C143 307.957 143.379 307.483 143.948 307.103C144.544 304.191 145.371 301.325 146.203 298.441L146.203 298.441C146.563 297.193 146.924 295.941 147.267 294.681C148.216 291.552 148.69 288.422 149.069 285.198C149.116 285.056 149.188 284.938 149.259 284.819C149.33 284.7 149.401 284.582 149.448 284.44C149.448 284.06 149.33 283.349 149.211 282.638C149.093 281.927 148.974 281.216 148.974 280.836C147.848 280.983 146.824 281.484 145.796 281.986C144.832 282.456 143.866 282.929 142.81 283.112C141.767 283.302 140.724 283.397 139.776 283.017C138.968 282.724 138.15 282.455 137.332 282.186C133.924 281.067 130.522 279.949 127.922 277.043C124.034 272.871 122.043 268.034 121.948 262.44C121.853 260.638 122.612 260.164 124.224 261.112C125.267 261.776 126.31 262.534 127.259 263.388C131.241 266.897 135.888 268.319 141.103 268.603C141.293 265.759 141.672 263.198 144.707 261.871C145.371 261.491 145.655 260.733 145.56 259.974C145.466 258.552 146.034 257.509 147.078 256.655C147.931 256.086 148.405 255.138 148.595 254.095C148.026 253.716 147.457 253.336 147.267 252.578C147.4 252.18 147.718 252.014 148.027 251.852C148.16 251.783 148.291 251.715 148.405 251.629C150.586 250.302 152.767 248.879 154.379 246.793C156.56 244.138 157.034 240.819 157.319 237.5C157.888 231.431 156.086 225.931 153.431 220.716C151.534 217.112 149.448 213.603 146.224 210.948C145.537 210.353 144.806 209.802 144.062 209.241L144.062 209.241C143.266 208.641 142.457 208.031 141.672 207.345C144.276 204.859 146.474 202.116 148.657 199.39L148.657 199.39C149.972 197.747 151.282 196.112 152.672 194.543C158.078 188.474 162.819 181.931 165.759 174.25C165.881 173.931 166.006 173.613 166.13 173.295C166.966 171.161 167.799 169.033 168.129 166.474C167.662 166.622 167.201 166.756 166.75 166.888C165.462 167.265 164.252 167.619 163.198 168.181C157.603 170.931 152.483 174.44 148.121 178.897C146.71 180.257 145.407 181.724 144.096 183.199L144.096 183.199C142.94 184.5 141.779 185.807 140.534 187.052C134.94 192.552 130.388 198.81 127.259 206.017C126.595 207.534 125.362 208.198 123.75 208.862C123.655 206.397 123.466 204.121 123.181 201.94C123.053 200.985 122.926 200.03 122.8 199.075L122.799 199.074L122.799 199.073L122.799 199.072L122.799 199.071L122.799 199.071C121.895 192.253 120.991 185.443 119.578 178.707C119.338 177.56 119.106 176.412 118.873 175.264L118.873 175.263C117.354 167.77 115.837 160.282 112.466 153.293C112.265 152.862 112.098 152.397 111.93 151.926C111.543 150.84 111.144 149.724 110.284 148.931C109.526 149.31 109.336 149.879 109.147 150.448C106.776 157.56 105.638 164.957 105.259 172.448C104.93 179.257 106.377 185.854 107.817 192.421C108.041 193.445 108.265 194.468 108.483 195.491C110.095 203.078 113.224 210.19 117.586 216.733C118.06 217.397 118.25 217.966 118.06 218.819C117.017 223.75 117.112 228.681 118.25 233.612C119.198 237.879 118.534 242.052 115.879 245.56C113.603 248.595 112.086 252.009 110.759 255.422C108.388 261.397 105.448 266.802 100.802 271.353C98.9634 273.13 96.8876 274.511 94.83 275.88C93.7034 276.63 92.5823 277.376 91.5086 278.181C91.0556 278.539 90.6146 278.92 90.172 279.303L90.1717 279.303ZM110.612 165.301C110.657 164.88 110.708 164.403 111.233 164.103C112.56 165.431 113.034 167.138 113.509 168.94C114.402 172.513 114.966 176.184 115.531 179.858C115.926 182.424 116.321 184.991 116.828 187.526C117.346 189.964 117.795 192.422 118.246 194.884L118.246 194.885C119.196 200.082 120.15 205.296 121.759 210.379C122.233 212.086 121.474 212.845 120.147 213.603C117.491 210.284 116.164 206.491 115.405 202.414C114.831 199.408 114.197 196.415 113.563 193.421L113.563 193.421L113.562 193.421C112.415 188.007 111.268 182.59 110.474 177.095C109.905 173.302 109.716 169.414 110.569 165.621C110.589 165.521 110.6 165.413 110.612 165.301V165.301L110.612 165.301L110.612 165.301L110.612 165.301ZM160.543 175.862C159.026 176.336 157.983 177.095 157.034 177.853C152.293 181.741 147.647 185.819 143.948 190.655C143.267 191.537 142.577 192.406 141.89 193.272L141.889 193.272C139.324 196.505 136.789 199.698 134.845 203.362L134.81 203.423C134.788 203.461 134.766 203.499 134.744 203.536L134.744 203.536C134.39 204.141 134.041 204.739 134.56 205.259C137.026 206.017 138.448 204.784 139.776 203.172C141.056 201.56 142.36 199.996 143.664 198.431C144.968 196.866 146.272 195.302 147.552 193.69C148.85 192.021 150.292 190.468 151.733 188.918C153.976 186.504 156.213 184.097 157.888 181.267C158.071 180.956 158.261 180.648 158.453 180.338C159.254 179.041 160.084 177.699 160.543 175.862ZM125.457 229.629C125.457 227.733 126.69 226.405 128.397 226.405C130.103 226.405 131.526 227.828 131.621 229.629C131.621 231.431 130.293 232.853 128.586 232.853C126.784 232.948 125.457 231.526 125.457 229.629ZM146.983 245.276C149.828 244.707 150.112 244.422 149.828 243.379C149.543 242.336 148.5 242.336 147.552 242.431C146.983 242.431 146.319 242.431 145.75 242.526C144.897 242.621 144.233 243 144.233 244.043C144.328 244.991 144.991 245.371 145.845 245.371C146.224 245.371 146.603 245.371 146.983 245.276ZM149.604 228.207C149.462 227.581 149.332 227.012 149.259 226.5C149.266 226.416 149.273 226.332 149.28 226.25C149.359 225.322 149.423 224.573 150.207 224.224C150.776 223.845 151.25 224.034 151.724 224.414C152.217 224.852 152.235 225.384 152.254 225.92C152.268 226.313 152.282 226.708 152.483 227.069C151.743 227.217 151.811 227.71 151.877 228.19C151.895 228.326 151.914 228.461 151.914 228.586C151.914 229.155 151.44 229.534 150.871 229.629C150.207 229.724 149.922 229.345 149.733 228.776C149.689 228.581 149.646 228.392 149.604 228.207Z" fill="#D6CCF8"/>
<path d="M148.879 281.69C149.543 280.647 151.155 281.405 152.009 281.026C155.422 279.793 158.647 278.276 160.164 274.578C160.638 273.25 160.733 271.922 161.017 270.5C161.586 267.466 160.638 266.517 157.698 267.181C154.19 267.94 150.681 268.888 147.078 269.078C144.991 269.267 143 269.172 141.104 268.414C141.293 265.664 141.767 263.009 144.707 261.681C143.19 256.94 146.035 255.991 147.078 256.56C146.888 256.086 145.94 253.241 152.104 251.914C154.759 251.345 156.466 251.724 158.078 253.431C163.198 249.069 169.078 248.879 175.241 249.543C176.095 249.638 177.043 249.828 177.897 249.922C180.647 250.397 182.069 252.483 181.405 255.233C181.026 256.75 180.362 258.078 179.509 259.5C181.31 260.353 182.922 261.207 184.629 261.776C188.612 263.293 191.836 268.034 190.793 273.155C189.94 277.517 186.621 280.267 181.69 279.319C181.216 279.224 180.647 279.034 179.888 278.75C179.698 281.784 178.56 284.345 175.526 285.293C172.207 286.336 170.69 283.491 168.414 281.595C168.509 286.052 168.414 290.224 168.035 294.397C165.948 294.112 164.147 294.966 162.25 295.345C162.629 290.888 162.345 286.336 162.44 281.405C160.259 285.483 154.569 287.379 148.879 281.69Z" fill="#377267"/>
<path d="M97.1035 323.698C98.6208 320.379 100.991 317.914 104.31 316.586C105.638 316.017 107.25 315.828 108.672 315.543C109.147 315.448 109.716 315.353 110.095 315.448C113.509 316.681 117.112 317.629 119.672 320.379C120.431 321.138 121.474 321.517 122.043 322.466C123.276 324.267 122.991 325.69 121 326.543C115.595 328.629 110.095 329.672 104.405 327.681C102.888 327.112 101.276 326.733 99.7587 326.259C98.5259 325.879 97.388 325.216 97.1035 323.698Z" fill="#8B8BBF"/>
<path d="M85.8194 282.164C80.0349 284.914 78.8021 290.319 77.8539 295.914C77.759 296.483 77.5694 297.052 77.4746 297.621C76.6211 297.526 75.7677 297.526 75.009 297.336C70.1728 296.388 68.2763 294.302 68.1815 289.371C68.0866 284.25 70.4573 280.362 74.7246 277.707C78.1383 275.621 84.397 277.897 85.8194 282.164Z" fill="#6147BA"/>
<path d="M147.552 309C146.983 312.034 148.121 317.629 147.932 317.724C145.561 317.914 142.811 317.534 140.44 317.819C139.397 317.914 138.449 318.009 137.501 317.44C137.311 316.207 137.88 315.164 138.639 314.405C140.44 312.793 141.673 310.707 142.621 308.526C142.906 307.862 143.285 307.388 143.854 307.009C145.371 307.293 146.035 308.81 147.552 309Z" fill="#8F8DC0"/>
<path d="M162.345 295.44C164.242 295.06 166.138 294.112 168.129 294.491C170.5 295.629 172.966 296.578 175.147 298.19C179.224 301.224 179.983 305.871 181.595 310.233C182.733 313.362 182.733 316.586 182.828 319.81C182.733 321.517 182.733 323.129 182.638 324.836C180.267 327.397 177.328 328.914 174.009 329.957C169.552 331.379 165.19 331.569 160.733 330.241C160.733 328.155 161.112 326.259 162.44 324.552C163.673 323.129 164.052 321.422 163.957 319.526C163.862 318.293 163.957 317.155 163.957 315.922C163.862 313.741 164.905 312.319 166.517 311.086C168.509 309.569 170.879 308.905 173.25 308.336C175.81 307.672 176.664 306.345 176 303.784C175.242 300.94 172.681 299.802 170.5 298.379C168.983 297.431 167.56 297.716 165.759 298.19C162.914 299.043 160.259 300.086 157.793 301.698C156.276 302.741 155.233 304.069 154.948 305.871C154.569 308.431 154.095 311.086 154.19 313.741C154.19 318.388 154.19 323.129 154.19 327.776C152.009 326.733 149.828 325.595 147.836 324.078C147.647 322.655 147.173 312.034 147.647 309C148.69 303.595 151.345 299.612 156.655 297.621C158.457 296.957 160.354 296.198 162.345 295.44Z" fill="#F38D65"/>
<path d="M160.544 330.241C165.001 331.664 169.363 331.379 173.82 329.957C177.139 328.914 180.078 327.397 182.449 324.836C183.492 328.25 182.354 330.81 179.13 332.043C177.139 332.802 174.958 332.802 172.966 332.991C165.854 333.75 158.837 333.655 151.725 332.991C150.492 332.897 149.449 332.233 148.406 331.664C148.027 331.474 147.932 331.19 147.837 330.81C147.647 328.629 147.458 324.078 147.553 323.983C149.449 325.5 151.725 326.543 153.906 327.681C155.992 329.009 158.363 329.293 160.544 330.241Z" fill="#AC6245"/>
<path d="M147.172 269.078C150.776 268.793 154.284 267.845 157.793 267.181C160.733 266.517 161.681 267.56 161.112 270.5C160.828 271.828 160.828 273.25 160.259 274.578C158.741 278.276 155.612 279.793 152.103 281.026C151.155 281.31 144.991 282.638 142.81 283.017C141.767 283.207 140.819 283.207 139.776 282.922C135.603 281.405 131.147 280.552 127.922 276.948C124.129 272.776 122.043 267.94 121.948 262.345C121.948 260.448 122.612 260.069 124.224 261.017C125.267 261.681 126.31 262.44 127.259 263.293C131.241 266.707 145.086 269.267 147.172 269.078Z" fill="#8A8ABE"/>
<path d="M111.233 164.103C112.561 165.431 113.035 167.138 113.509 168.845C115.027 175.009 115.596 181.267 116.828 187.431C118.346 195.112 119.389 202.888 121.759 210.284C122.233 211.897 121.475 212.75 120.147 213.509C117.587 210.19 116.259 206.397 115.406 202.319C113.794 193.879 111.708 185.534 110.475 177C109.906 173.207 109.716 169.319 110.57 165.526C110.665 165.052 110.665 164.483 111.233 164.103Z" fill="#6349BB"/>
<path d="M160.544 175.862C159.975 178.138 158.837 179.655 157.889 181.362C155.139 186.103 150.871 189.612 147.552 193.784C144.992 197.009 142.337 200.043 139.777 203.267C138.449 204.879 137.027 206.207 134.561 205.353C134.087 204.784 134.466 204.121 134.846 203.457C137.311 198.81 140.725 194.828 143.949 190.75C147.742 185.914 152.294 181.836 157.035 177.948C157.984 177 159.027 176.336 160.544 175.862Z" fill="#6349BB"/>
<path d="M128.397 226.405C130.104 226.405 131.526 227.828 131.526 229.629C131.526 231.336 130.199 232.759 128.492 232.853C126.69 232.853 125.362 231.526 125.362 229.629C125.362 227.828 126.69 226.5 128.397 226.405Z" fill="#2E224E"/>
<path d="M146.984 245.276C146.604 245.276 146.225 245.371 145.846 245.371C144.992 245.371 144.328 244.991 144.234 244.043C144.139 243 144.897 242.715 145.751 242.526C146.32 242.431 146.984 242.431 147.553 242.431C148.501 242.431 149.544 242.336 149.828 243.379C150.113 244.517 149.828 244.707 146.984 245.276Z" fill="#352956"/>
<path d="M149.259 226.5C149.259 225.457 149.354 224.603 150.207 224.129C150.776 223.845 151.25 224.034 151.724 224.319C152.578 224.983 152.673 225.647 152.483 226.974C151.629 229.534 152.578 226.69 151.914 228.491C151.724 229.06 151.44 229.44 150.871 229.534C150.207 229.724 149.828 229.25 149.733 228.681C149.543 228.017 149.448 227.164 149.259 226.5Z" fill="#352956"/>
<path d="M160.543 330.241C158.362 329.388 155.991 329.103 154 327.776C154 323.129 154.095 318.388 154 313.741C154 311.086 154.379 308.526 154.759 305.871C155.043 304.069 156.181 302.741 157.603 301.698C160.069 299.991 162.724 298.948 165.569 298.19C167.276 297.716 168.793 297.431 170.31 298.379C172.491 299.802 174.957 300.94 175.81 303.784C176.569 306.345 175.716 307.767 173.06 308.336C170.69 308.905 168.319 309.569 166.328 311.086C164.716 312.319 163.672 313.741 163.767 315.922C163.862 317.155 163.767 318.293 163.767 319.526C163.862 321.422 163.388 323.129 162.25 324.552C160.922 326.164 160.543 328.155 160.543 330.241Z" fill="#FEB675"/>
<path d="M286.475 278.75C288.561 275.526 291.785 274.009 295.199 272.871C301.457 270.69 308.001 269.552 314.639 269.078C314.259 273.06 312.837 276.853 312.932 280.836C312.173 285.103 312.078 286.526 317.009 287.379C320.802 288.043 324.785 288.233 328.578 287.948C333.32 287.664 338.156 287.664 342.897 286.526C346.311 285.672 347.07 284.914 346.026 281.595C346.216 278.75 344.983 276.19 344.035 273.534C343.845 272.017 342.802 270.69 342.802 269.078C348.113 269.836 353.328 270.31 358.449 272.207C360.914 273.155 363.57 273.724 365.94 275.052C366.32 275.241 366.699 275.526 367.078 275.81C370.682 278.466 370.682 281.31 366.983 283.776C362.906 286.621 358.164 287.853 353.328 288.802C339.863 291.457 326.397 292.216 312.742 290.414C306.578 289.655 300.414 288.707 294.535 286.431C291.311 285.198 288.276 283.776 286.38 280.741C286.475 280.078 286.475 279.414 286.475 278.75Z" fill="#4D322E"/>
<path fill-rule="evenodd" clip-rule="evenodd" d="M425.777 251.534C427.768 248.405 429.475 244.991 429.854 241.198C430.139 236.836 430.234 232.474 427.579 228.681C426.63 227.353 425.587 226.216 424.165 225.457C423.501 225.172 421.794 222.422 421.51 221.474C419.518 215.595 416.579 210.474 411.458 206.776C407.228 203.766 402.37 202.222 397.602 200.706L397.601 200.706L397.601 200.706C396.811 200.455 396.024 200.204 395.242 199.948C389.837 198.147 383.958 197.957 378.173 198.147C378.051 198.147 377.93 198.148 377.808 198.15C377.076 198.162 376.345 198.174 375.613 197.767C371.251 195.302 367.742 191.983 365.087 187.526C369.956 182.397 373.15 176.231 376.352 170.053L376.352 170.053C376.642 169.492 376.933 168.931 377.225 168.371C380.734 161.353 381.872 154.052 381.587 146.371C381.587 146.31 381.588 146.25 381.589 146.189V146.189C381.597 145.588 381.604 145.008 380.829 144.664C375.356 146.561 372.242 150.928 369.152 155.261L369.152 155.261L369.152 155.261C368.227 156.559 367.304 157.853 366.32 159.078C361.863 164.483 359.208 170.836 357.88 177.759C357.596 177.569 357.406 177.379 357.406 177.19C355.984 169.319 353.708 161.638 350.863 154.241C348.682 148.552 344.889 143.905 340.148 139.543C339.294 155.19 342.518 169.414 352.096 182.121C351.695 182.121 351.413 182.138 351.206 182.15C350.924 182.167 350.783 182.175 350.673 182.121C348.113 180.603 345.648 181.362 343.372 182.405C340.148 183.922 337.113 185.914 334.363 188.095C331.898 190.086 330.001 192.457 329.432 195.681C329.242 197.009 328.958 198.336 328.579 199.569C328.01 201.466 328.579 202.983 329.622 204.405C329.432 206.491 330.854 207.724 331.613 208.293C332.022 208.581 332.427 208.871 332.831 209.16L332.832 209.161L332.833 209.162C335.62 211.154 338.353 213.108 341.665 214.267C344.604 215.31 345.268 216.733 344.699 219.672C344.32 221.569 344.13 223.56 344.32 225.552C345.079 233.897 350.01 239.871 355.225 245.75C355.3 245.806 355.499 245.969 355.786 246.202C356.957 247.156 359.581 249.293 361.104 250.207C363.343 251.55 365.711 252.462 368.091 253.378L368.092 253.378L368.092 253.378C369.241 253.821 370.393 254.265 371.535 254.759C371.657 254.759 371.779 254.752 371.897 254.746C372.24 254.729 372.557 254.712 372.768 254.853C376.277 256.94 380.354 260.922 380.354 266.138C380.354 267.134 380.236 268.129 380.117 269.125C379.999 270.121 379.88 271.116 379.88 272.112C379.785 275.241 381.967 276.474 384.717 275.052C385.096 274.862 385.475 274.662 385.854 274.462C386.613 274.061 387.372 273.661 388.13 273.345C389.932 272.586 391.165 271.259 391.923 269.457C393.061 266.707 393.535 263.862 393.915 260.922C393.923 260.853 393.931 260.782 393.939 260.712C394.018 260.014 394.097 259.31 394.958 259.31C395.583 259.31 396.208 259.279 396.831 259.248H396.832H396.832C398.382 259.171 399.918 259.094 401.406 259.5C402.354 259.784 403.208 260.259 403.492 261.207C403.773 261.977 403.225 262.282 402.691 262.58C402.501 262.685 402.314 262.79 402.165 262.914C401.217 263.862 400.458 264.905 400.932 266.138C401.331 267.255 402.334 267.298 403.321 267.34L403.321 267.34C403.507 267.348 403.691 267.356 403.872 267.371C405.821 267.501 407.637 266.963 409.442 266.428L409.442 266.428C410.27 266.182 411.096 265.938 411.932 265.759C412.882 265.586 413.85 265.431 414.824 265.274L414.825 265.274L414.825 265.274C417.06 264.915 419.331 264.551 421.51 263.957C423.406 263.483 423.975 262.06 423.691 260.638C423.027 257.224 423.975 254.379 425.777 251.534ZM376.651 152.5C376.865 152.218 377.111 151.892 377.699 151.966C378.079 153.388 377.794 154.905 377.225 156.138C373.527 166.284 369.165 176.052 362.527 184.586C361.484 186.009 360.441 185.724 359.303 184.966C358.544 184.397 358.26 183.733 358.639 182.595C359.979 178.927 361.896 175.47 363.805 172.027L363.805 172.027C364.462 170.841 365.119 169.656 365.751 168.466C368.785 162.871 372.389 157.655 376.467 152.724C376.53 152.66 376.589 152.582 376.651 152.5ZM344.984 151.491C343.751 159.647 350.294 180.319 354.561 181.931C354.215 180.261 353.893 178.587 353.571 176.914C351.865 168.044 350.17 159.23 344.984 151.491ZM347.639 191.224C347.639 189.612 348.967 188.19 350.484 188.19C352.001 188.19 353.329 189.517 353.329 191.224C353.423 192.931 352.191 194.164 350.579 194.164C348.967 194.164 347.639 192.836 347.639 191.224Z" fill="#D6CCF8"/>
<path d="M312.931 280.741C312.836 276.759 314.259 272.966 314.638 268.983C316.345 260.922 318.526 253.052 319.569 244.802C320.423 238.733 322.604 232.853 324.974 227.259C325.449 226.121 326.112 225.172 327.061 224.224C329.147 225.552 330.19 227.448 330.759 229.724C334.267 242.905 338.345 255.897 342.423 268.888C341.664 270.215 340.336 271.069 339.388 272.207C339.009 272.586 338.63 273.06 338.914 273.629C339.293 274.293 339.767 274.198 340.431 274.009C341.569 273.724 342.707 273.629 343.94 273.44C344.983 276 346.121 278.56 345.931 281.5C343.466 282.164 341.474 284.25 338.819 284.44C337.966 281.405 337.017 278.371 336.354 275.336C334.552 267.845 333.699 260.259 332.276 252.672C331.707 249.353 330.569 246.224 329.336 243.095C329.147 243.379 329.052 243.569 329.052 243.853C328.957 249.922 328.104 255.991 327.535 261.965C327.25 264.81 327.061 267.75 328.104 270.5C329.147 273.155 330.095 275.905 331.423 278.465C332.655 280.741 333.414 283.207 333.13 285.767C330.095 285.767 327.155 285.483 324.216 284.819C320.328 284.06 316.535 282.733 312.931 280.741Z" fill="#EB906D"/>
<path d="M429.854 241.198C430.139 236.836 430.139 232.474 427.389 228.681C426.44 227.353 425.397 226.215 423.975 225.457C423.311 225.078 422.552 224.034 422.837 223.75C425.113 221 427.673 220.431 431.182 222.043C434.595 223.655 437.44 225.457 438.199 229.345C439.432 235.319 435.828 240.534 429.854 241.198Z" fill="#6248BB"/>
<path d="M360.63 249.828C363.949 251.819 368.121 253.431 371.63 254.948C370.587 255.897 370.018 257.034 369.733 258.362C368.595 262.534 365.371 265.664 360.914 266.802C360.156 264.716 359.587 262.534 359.587 260.259C359.587 258.078 359.492 255.897 359.302 253.716C358.923 248.974 358.733 248.69 360.63 249.828Z" fill="#8C8BC0"/>
<path d="M331.802 198.716C331.139 198.336 330.949 197.672 331.233 196.914C331.423 196.25 331.992 195.966 332.656 195.966C333.225 195.966 333.889 195.966 334.458 196.06C335.311 196.155 336.354 196.25 336.449 197.293C336.544 198.336 335.88 198.905 334.932 199.095C334.363 199.379 333.983 199.853 331.802 198.716Z" fill="#332854"/>
<path d="M344.035 273.534C342.897 273.724 341.665 273.819 340.527 274.103C339.863 274.293 339.389 274.388 339.009 273.724C338.725 273.155 339.104 272.776 339.484 272.302C340.527 271.164 341.759 270.31 342.518 268.983C342.613 268.983 342.708 268.983 342.803 269.078C342.803 270.69 343.751 272.017 344.035 273.534Z" fill="#DD8767"/>
<path d="M338.915 284.44C341.57 284.155 343.561 282.164 346.027 281.5C347.07 284.724 346.311 285.578 342.898 286.431C338.156 287.569 333.415 287.664 328.579 287.853C324.691 288.043 320.803 287.853 317.01 287.284C312.079 286.431 312.173 285.103 312.932 280.741C316.536 282.733 320.329 284.06 324.311 285.009C327.251 285.672 330.191 285.957 333.225 285.957C335.217 285.862 337.208 285.578 338.915 284.44Z" fill="#AB6245"/>
<path d="M377.699 151.966C378.078 153.388 377.794 154.905 377.319 156.233C373.621 166.379 369.259 176.052 362.621 184.681C361.578 186.103 360.535 185.819 359.397 185.06C358.544 184.491 358.259 183.828 358.733 182.69C360.535 177.664 363.38 173.207 365.845 168.56C368.88 162.966 372.483 157.75 376.561 152.819C376.845 152.44 376.94 151.871 377.699 151.966Z" fill="#6248BB"/>
<path d="M344.983 151.491C351.242 160.595 352.474 171.31 354.561 181.931C350.293 180.319 343.655 159.647 344.983 151.491Z" fill="#634ABC"/>
<path d="M350.483 188.19C352.001 188.19 353.328 189.517 353.328 191.129C353.328 192.836 352.19 194.069 350.578 194.069C348.966 194.069 347.639 192.741 347.639 191.129C347.639 189.612 348.871 188.284 350.483 188.19Z" fill="#312551"/>
<path d="M338.915 284.44C337.208 285.483 335.216 285.767 333.225 285.957C333.415 283.302 332.656 280.931 331.518 278.655C330.191 276.095 329.242 273.345 328.199 270.69C327.156 267.94 327.346 265 327.63 262.155C328.199 256.086 329.147 250.112 329.147 244.043C329.147 243.759 329.242 243.569 329.432 243.284C330.665 246.414 331.803 249.543 332.372 252.862C333.699 260.448 334.647 268.034 336.449 275.526C337.113 278.466 338.061 281.405 338.915 284.44Z" fill="#F7B77C"/>
<defs>
<linearGradient id="paint0_linear" x1="65.628" y1="241.082" x2="329.289" y2="241.082" gradientUnits="userSpaceOnUse">
<stop stop-color="#01BC86"/>
<stop offset="0.366" stop-color="#01B26E"/>
<stop offset="1" stop-color="#00A347"/>
</linearGradient>
</defs>
</svg>
