<svg width="607" height="768" viewBox="0 0 607 768" fill="none" xmlns="http://www.w3.org/2000/svg">
<mask id="mask0" mask-type="alpha" maskUnits="userSpaceOnUse" x="1" y="1" width="385" height="5">
<path fill-rule="evenodd" clip-rule="evenodd" d="M385.117 1.49997V5.67752L1.00012 5.67752V1.49997L385.117 1.49997Z" fill="white"/>
</mask>
<g mask="url(#mask0)">
<path d="M385.117 2.42749L1.00012 2.42749" stroke="url(#paint0_linear)" stroke-width="0.286" stroke-linecap="round"/>
</g>
<path d="M573.04 190.5L1.04004 190.5" stroke="url(#paint1_linear)" stroke-width="0.286" stroke-linecap="round"/>
<path fill-rule="evenodd" clip-rule="evenodd" d="M224.54 587.624C223.364 587.624 222.412 586.673 222.412 585.497C222.412 584.321 223.364 583.375 224.54 583.375C225.716 583.375 226.668 584.321 226.668 585.497C226.668 586.673 225.716 587.624 224.54 587.624" fill="#A29EC0"/>
<path fill-rule="evenodd" clip-rule="evenodd" d="M210.54 610.624C209.364 610.624 208.412 609.673 208.412 608.497C208.412 607.321 209.364 606.375 210.54 606.375C211.716 606.375 212.668 607.321 212.668 608.497C212.668 609.673 211.716 610.624 210.54 610.624" fill="#A29EC0"/>
<path fill-rule="evenodd" clip-rule="evenodd" d="M203.537 584.624C202.368 584.624 201.409 583.673 201.409 582.497C201.409 581.321 202.368 580.375 203.537 580.375C204.713 580.375 205.672 581.321 205.672 582.497C205.672 583.673 204.713 584.624 203.537 584.624" fill="#A29EC0"/>
<path fill-rule="evenodd" clip-rule="evenodd" d="M229.537 649.628C228.361 649.628 227.409 648.669 227.409 647.493C227.409 646.324 228.361 645.372 229.537 645.372C230.713 645.372 231.672 646.324 231.672 647.493C231.672 648.669 230.713 649.628 229.537 649.628" fill="#A29EC0"/>
<path fill-rule="evenodd" clip-rule="evenodd" d="M208.54 646.624C207.364 646.624 206.412 645.673 206.412 644.497C206.412 643.321 207.364 642.375 208.54 642.375C209.716 642.375 210.668 643.321 210.668 644.497C210.668 645.673 209.716 646.624 208.54 646.624" fill="#A29EC0"/>
<path d="M438.04 562.5H1.04004" stroke="url(#paint2_linear)" stroke-width="0.286" stroke-linecap="round"/>
<path d="M358.04 16L367.04 7L376.04 16" stroke="#8C61E1" stroke-width="0.421" stroke-linecap="round" stroke-linejoin="round"/>
<path d="M366.54 7V186" stroke="#8C61E1" stroke-width="0.421" stroke-linecap="round" stroke-linejoin="round"/>
<path d="M376.04 177L367.04 186L358.04 177" stroke="#8C61E1" stroke-width="0.421" stroke-linecap="round" stroke-linejoin="round"/>
<path d="M358.04 204L367.04 195L376.04 204" stroke="#8C61E1" stroke-width="0.421" stroke-linecap="round" stroke-linejoin="round"/>
<path d="M366.54 195V554" stroke="#8C61E1" stroke-width="0.421" stroke-linecap="round" stroke-linejoin="round"/>
<path d="M376.04 548L367.04 557L358.04 548" stroke="#8C61E1" stroke-width="0.421" stroke-linecap="round" stroke-linejoin="round"/>
<path fill-rule="evenodd" clip-rule="evenodd" d="M302.037 194C299.834 194 298.04 192.211 298.04 190C298.04 187.796 299.834 186 302.037 186C304.246 186 306.04 187.796 306.04 190C306.04 192.211 304.246 194 302.037 194" fill="#A29EC0"/>
<path fill-rule="evenodd" clip-rule="evenodd" d="M302.037 156C299.834 156 298.04 154.211 298.04 152C298.04 149.789 299.834 148 302.037 148C304.246 148 306.04 149.789 306.04 152C306.04 154.211 304.246 156 302.037 156Z" stroke="#8C61E1" stroke-width="0.421" stroke-linecap="round" stroke-linejoin="round"/>
<path fill-rule="evenodd" clip-rule="evenodd" d="M302.037 117C299.834 117 298.04 115.204 298.04 113C298.04 110.789 299.834 109 302.037 109C304.246 109 306.04 110.789 306.04 113C306.04 115.204 304.246 117 302.037 117Z" stroke="#8C61E1" stroke-width="0.421" stroke-linecap="round" stroke-linejoin="round"/>
<path fill-rule="evenodd" clip-rule="evenodd" d="M302.037 78C299.834 78 298.04 76.2056 298.04 74.0034C298.04 71.7944 299.834 70 302.037 70C304.246 70 306.04 71.7944 306.04 74.0034C306.04 76.2056 304.246 78 302.037 78Z" stroke="#8C61E1" stroke-width="0.421" stroke-linecap="round" stroke-linejoin="round"/>
<path fill-rule="evenodd" clip-rule="evenodd" d="M483.043 566C480.834 566 479.04 564.206 479.04 562.003C479.04 559.794 480.834 558 483.043 558C485.246 558 487.04 559.794 487.04 562.003C487.04 564.206 485.246 566 483.043 566Z" stroke="#8C61E1" stroke-width="0.421" stroke-linecap="round" stroke-linejoin="round"/>
<path fill-rule="evenodd" clip-rule="evenodd" d="M483.043 605C480.834 605 479.04 603.204 479.04 601C479.04 598.789 480.834 597 483.043 597C485.246 597 487.04 598.789 487.04 601C487.04 603.204 485.246 605 483.043 605Z" stroke="#8C61E1" stroke-width="0.421" stroke-linecap="round" stroke-linejoin="round"/>
<path fill-rule="evenodd" clip-rule="evenodd" d="M483.043 682C480.834 682 479.04 680.211 479.04 678C479.04 675.796 480.834 674 483.043 674C485.246 674 487.04 675.796 487.04 678C487.04 680.211 485.246 682 483.043 682Z" stroke="#8C61E1" stroke-width="0.421" stroke-linecap="round" stroke-linejoin="round"/>
<path fill-rule="evenodd" clip-rule="evenodd" d="M483.043 767C480.834 767 479.04 765.204 479.04 763C479.04 760.789 480.834 759 483.043 759C485.246 759 487.04 760.789 487.04 763C487.04 765.204 485.246 767 483.043 767Z" stroke="#8C61E1" stroke-width="0.421" stroke-linecap="round" stroke-linejoin="round"/>
<path fill-rule="evenodd" clip-rule="evenodd" d="M381.54 677C305.047 677 243.04 614.993 243.04 538.5C243.04 462.007 305.047 400 381.54 400C458.033 400 520.04 462.007 520.04 538.5C520.04 614.993 458.033 677 381.54 677Z" stroke="#8C61E1" stroke-width="1.145" stroke-linecap="round" stroke-dasharray="0.42 2.11"/>
<path fill-rule="evenodd" clip-rule="evenodd" d="M504.54 252C466.154 252 435.04 221.105 435.04 183.003C435.04 144.895 466.154 114 504.54 114C542.926 114 574.04 144.895 574.04 183.003C574.04 221.105 542.926 252 504.54 252Z" stroke="#8C61E1" stroke-width="1.145" stroke-linecap="round" stroke-dasharray="0.58 1.73"/>
<path fill-rule="evenodd" clip-rule="evenodd" d="M579.188 200.302C579.188 200.302 600.746 204.31 593.916 219.098C587.084 233.887 552.025 255.709 510.331 216.758L481.332 203.637C481.332 203.637 484.871 200.069 488.095 200.821L487.382 194.878C487.382 194.878 502.854 203.719 507.542 207.192C507.542 207.192 515.918 209.707 519.76 208.179C519.76 208.179 499.462 167.072 526.608 131.114L562.706 203.299C562.706 203.299 572.33 198.078 579.188 200.302" fill="#7B72CE"/>
<path fill-rule="evenodd" clip-rule="evenodd" d="M586.191 140.881L550.678 178.209L563.294 203.64C563.294 203.64 593.929 191.028 586.191 140.881" fill="#8884D8"/>
<path fill-rule="evenodd" clip-rule="evenodd" d="M580.548 209.668C579.812 210.492 579.885 211.757 580.71 212.493C581.533 213.228 582.796 213.156 583.532 212.331C584.268 211.508 584.196 210.243 583.372 209.507C582.547 208.773 581.284 208.845 580.548 209.668" fill="#271C47"/>
<path fill-rule="evenodd" clip-rule="evenodd" d="M589.513 214.194L590.877 224.749L602.586 226.571L595.943 214.687L589.513 214.194Z" fill="#271C47"/>
<path d="M525.939 228.328C525.939 228.328 527.361 235.125 521.143 238.672" stroke="#271C47" stroke-width="1.356" stroke-linecap="round"/>
<path d="M530.747 230.59C530.747 230.59 533.586 237.265 528.229 241.434" stroke="#271C47" stroke-width="1.356" stroke-linecap="round"/>
<path fill-rule="evenodd" clip-rule="evenodd" d="M572.922 151.007C572.373 151.073 571.982 151.57 572.047 152.119C572.113 152.667 572.611 153.059 573.16 152.993C573.707 152.928 574.099 152.43 574.033 151.881C573.968 151.334 573.471 150.941 572.922 151.007" fill="#F4F6F1"/>
<defs>
<linearGradient id="paint0_linear" x1="385.117" y1="2.42749" x2="1.00012" y2="2.42749" gradientUnits="userSpaceOnUse">
<stop offset="0.328125" stop-color="#BCA9FF"/>
<stop offset="1" stop-color="#BCA9FF" stop-opacity="0"/>
</linearGradient>
<linearGradient id="paint1_linear" x1="573.04" y1="190.5" x2="1.04004" y2="190.5" gradientUnits="userSpaceOnUse">
<stop offset="0.552083" stop-color="#8C61E1"/>
<stop offset="1" stop-color="#8C61E1" stop-opacity="0"/>
</linearGradient>
<linearGradient id="paint2_linear" x1="438.04" y1="562.5" x2="1.04004" y2="562.5" gradientUnits="userSpaceOnUse">
<stop offset="0.572917" stop-color="#8C61E1"/>
<stop offset="1" stop-color="#8C61E1" stop-opacity="0"/>
</linearGradient>
</defs>
</svg>
