<?xml version="1.0" encoding="UTF-8"?>
<svg width="122px" height="112px" viewBox="0 0 122 112" version="1.1" xmlns="http://www.w3.org/2000/svg" xmlns:xlink="http://www.w3.org/1999/xlink">
    <!-- Generator: Sketch 60 (88103) - https://sketch.com -->
    <title>Bird</title>
    <desc>Created with Sketch.</desc>
    <g id="Page-1" stroke="none" stroke-width="1" fill="none" fill-rule="evenodd">
        <g id="Home-Refresh" transform="translate(-233.000000, -2305.000000)">
            <g id="Bird" transform="translate(288.937850, 2360.735409) rotate(-13.000000) translate(-288.937850, -2360.735409) translate(230.437850, 2303.735409)">
                <path d="M96.5758351,79.7137909 C96.5758351,79.7137909 116.679672,88.4685565 106.697872,101.341607 C96.7145554,114.214658 57.6454496,127.590752 25.7822211,80.2585015 L0.478266495,60.9504403 C0.478266495,60.9504403 4.72932481,58.2700698 7.70082063,59.7276823 L8.34363402,53.776775 C8.34363402,53.776775 21.4295862,65.8717761 25.2159692,70.3105241 C25.2159692,70.3105241 32.8122345,74.6454816 36.8995573,74.0204659 C36.8995573,74.0204659 26.3689399,29.4011621 60.9072727,0.471646777 L79.8422202,78.9266499 C79.8422202,78.9266499 90.3940625,76.0046067 96.5758351,79.7137909" id="Fill-1" fill="#7B72CE"></path>
                <path d="M116.766119,23.3914209 L73.7661192,51.7736918 L80.3384819,79.3914209 C80.3384819,79.3914209 113.025707,73.9936644 116.766119,23.3914209" id="Fill-3" fill="#8884D8"></path>
                <path d="M95.7947464,89.1460313 C94.8921877,89.7835939 94.6782094,91.0320613 95.3164421,91.9347195 C95.953194,92.8358968 97.2007834,93.0498986 98.1033422,92.4123361 C99.0051605,91.775514 99.2191387,90.5270466 98.5823869,89.6243883 C97.9441542,88.7232111 96.6965648,88.5092093 95.7947464,89.1460313" id="Fill-5" fill="#271C47"></path>
                <polygon id="Fill-7" fill="#271C47" points="103.511401 95.5728243 102.465826 106.164205 113.465826 110.572824 109.666249 97.4988823"></polygon>
                <path d="M38.3868173,95.0431592 C38.3868173,95.0431592 38.2437517,101.98544 31.3868173,104.043159" id="Stroke-9" stroke="#271C47" stroke-width="1.356" stroke-linecap="round"></path>
                <path d="M42.5633589,98.3287907 C42.5633589,98.3287907 43.828472,105.471969 37.6706601,108.328791" id="Stroke-11" stroke="#271C47" stroke-width="1.356" stroke-linecap="round"></path>
                <path d="M101.560238,30.2729 C101.010254,30.2138731 100.517423,30.6101968 100.457459,31.159241 C100.398431,31.7082852 100.795694,32.2020502 101.344742,32.2610771 C101.892852,32.321041 102.38662,31.9247173 102.445647,31.3747362 C102.505611,30.8266289 102.109285,30.331927 101.560238,30.2729" id="Fill-13" fill="#F4F6F1"></path>
            </g>
        </g>
    </g>
</svg>