<svg width="452px" height="391px" viewBox="0 0 452 391" version="1.1" xmlns="http://www.w3.org/2000/svg" xmlns:xlink="http://www.w3.org/1999/xlink">
    <defs>
        <polygon id="path-1" points="0.144394107 0.148225339 418.455528 0.148225339 418.455528 182.780384 0.144394107 182.780384"></polygon>
    </defs>
    <g id="Page-1" stroke="none" stroke-width="1" fill="none" fill-rule="evenodd">
        <g id="Home" transform="translate(-83.000000, -1802.000000)">
            <g id="Group-7" transform="translate(84.000000, 918.000000)">
                <g id="Group-4" transform="translate(0.000000, 885.000000)">
                    <g id="Group-264">
                        <path d="M57.424594,206.802949 C57.424594,114.509248 132.217466,39.6894549 224.475712,39.6894549 C316.738451,39.6894549 391.531323,114.509248 391.531323,206.802949" id="Fill-1" fill="#F4F6F1"></path>
                        <path d="M227.243735,186.957177 C227.243735,187.333183 226.938863,187.636076 226.565081,187.636076 C226.191299,187.636076 225.888515,187.333183 225.888515,186.957177 C225.888515,186.583261 226.191299,186.280368 226.565081,186.280368 C226.938863,186.280368 227.243735,186.583261 227.243735,186.957177" id="Fill-3" fill="#F4F6F1"></path>
                        <polyline id="Stroke-5" stroke="#BCA9FF" stroke-width="0.52" points="419.721578 178.602547 357.824641 178.602547 357.824641 150.131494 303.874464 150.131494 303.874464 122.954273 366.597594 122.954273 366.597594 71.023235 276.682135 71.023235"></polyline>
                        <path d="M381.090487,122.723972 C381.090487,130.511887 374.780472,136.824173 366.99536,136.824173 C359.212485,136.824173 352.900232,130.511887 352.900232,122.723972 C352.900232,114.936058 359.212485,108.623771 366.99536,108.623771 C374.780472,108.623771 381.090487,114.936058 381.090487,122.723972 Z" id="Stroke-7" stroke="#BCA9FF" stroke-width="0.90064"></path>
                        <path d="M265.197216,44.3895219 C265.197216,52.1774367 258.887201,58.489723 251.102088,58.489723 C243.319214,58.489723 237.006961,52.1774367 237.006961,44.3895219 C237.006961,36.6016071 243.319214,30.2893208 251.102088,30.2893208 C258.887201,30.2893208 265.197216,36.6016071 265.197216,44.3895219 Z" id="Stroke-9" stroke="#BCA9FF" stroke-width="0.90064"></path>
                        <path d="M180.62645,128.991868 C180.62645,133.317069 177.122376,136.824173 172.795824,136.824173 C168.47155,136.824173 164.965197,133.317069 164.965197,128.991868 C164.965197,124.666667 168.47155,121.157283 172.795824,121.157283 C177.122376,121.157283 180.62645,124.666667 180.62645,128.991868 Z" id="Stroke-11" stroke="#BCA9FF" stroke-width="1.80128"></path>
                        <path d="M222.389791,7.83458445 C222.389791,12.1575067 218.885717,15.6668901 214.559165,15.6668901 C210.234891,15.6668901 206.728538,12.1575067 206.728538,7.83458445 C206.728538,3.50938338 210.234891,0 214.559165,0 C218.885717,0 222.389791,3.50938338 222.389791,7.83458445 Z" id="Stroke-13" stroke="#BCA9FF" stroke-width="1.80128"></path>
                        <polyline id="Stroke-15" stroke="#BCA9FF" stroke-width="0.52" stroke-linecap="round" stroke-linejoin="round" points="158.700696 97.6322608 173.111853 97.6322608 173.111853 128.468499 198.220794 128.468499 198.220794 96.1229046 216.12529 96.1229046 216.12529 7.31121537 184.474278 7.31121537 184.474278 65.9335337"></polyline>
                        <path d="M90.8352668,98.1791778 L163.921114,98.1791778" id="Stroke-17" stroke="#BCA9FF" stroke-width="0.52" stroke-linecap="round" stroke-linejoin="round"></path>
                        <polyline id="Stroke-19" stroke="#BCA9FF" stroke-width="0.52" stroke-linecap="round" stroke-linejoin="round" points="277.726218 71.650538 277.726218 44.9117516 251.62413 44.9117516 251.62413 96.8786968 277.726218 96.8786968 277.726218 123.617483 277.726218 172.335791"></polyline>
                        <path d="M229.698376,96.6124888 C229.698376,104.400404 223.388361,110.71269 215.603248,110.71269 C207.820374,110.71269 201.508121,104.400404 201.508121,96.6124888 C201.508121,88.8245741 207.820374,82.5122878 215.603248,82.5122878 C223.388361,82.5122878 229.698376,88.8245741 229.698376,96.6124888 Z" id="Stroke-21" stroke="#BCA9FF" stroke-width="0.90064"></path>
                        <path d="M110.672854,97.6558254 C110.672854,108.329291 102.024571,116.979446 91.3584309,116.979446 C80.6900459,116.979446 72.0417633,108.329291 72.0417633,97.6558254 C72.0417633,86.9846057 80.6900459,78.3344504 91.3584309,78.3344504 C102.024571,78.3344504 110.672854,86.9846057 110.672854,97.6558254 Z" id="Stroke-23" stroke="#BCA9FF" stroke-width="0.90064"></path>
                        <path d="M175.406032,128.469638 C175.406032,129.622931 174.471373,130.557417 173.317865,130.557417 C172.164358,130.557417 171.229698,129.622931 171.229698,128.469638 C171.229698,127.316345 172.164358,126.37958 173.317865,126.37958 C174.471373,126.37958 175.406032,127.316345 175.406032,128.469638" id="Fill-25" fill="#BCA9FF"></path>
                        <path d="M253.712297,96.0891195 C253.712297,97.2446916 252.777637,98.1791778 251.62413,98.1791778 C250.470623,98.1791778 249.535963,97.2446916 249.535963,96.0891195 C249.535963,94.9358267 250.470623,94.0013405 251.62413,94.0013405 C252.777637,94.0013405 253.712297,94.9358267 253.712297,96.0891195" id="Fill-27" fill="#BCA9FF"></path>
                        <path d="M279.814385,96.0891195 C279.814385,97.2446916 278.880235,98.1791778 277.725079,98.1791778 C276.572201,98.1791778 275.638051,97.2446916 275.638051,96.0891195 C275.638051,94.9358267 276.572201,94.0013405 277.725079,94.0013405 C278.880235,94.0013405 279.814385,94.9358267 279.814385,96.0891195" id="Fill-29" fill="#BCA9FF"></path>
                        <path d="M186.890951,66.323168 C186.890951,67.7652096 185.721784,68.9343164 184.279668,68.9343164 C182.837552,68.9343164 181.670534,67.7652096 181.670534,66.323168 C181.670534,64.8811264 182.837552,63.7120197 184.279668,63.7120197 C185.721784,63.7120197 186.890951,64.8811264 186.890951,66.323168" id="Fill-31" fill="#BCA9FF"></path>
                        <path d="M186.890951,7.83452003 C186.890951,9.2771553 185.721784,10.4445934 184.279668,10.4445934 C182.837552,10.4445934 181.670534,9.2771553 181.670534,7.83452003 C181.670534,6.39188475 182.837552,5.22229669 184.279668,5.22229669 C185.721784,5.22229669 186.890951,6.39188475 186.890951,7.83452003" id="Fill-33" fill="#BCA9FF"></path>
                        <path d="M217.169374,7.83452003 C217.169374,9.2771553 216.002356,10.4445934 214.560239,10.4445934 C213.118123,10.4445934 211.948956,9.2771553 211.948956,7.83452003 C211.948956,6.39188475 213.118123,5.22229669 214.560239,5.22229669 C216.002356,5.22229669 217.169374,6.39188475 217.169374,7.83452003" id="Fill-35" fill="#BCA9FF"></path>
                        <path d="M218.213457,96.6114138 C218.213457,98.0540491 217.044771,99.2236372 215.603248,99.2236372 C214.161726,99.2236372 212.993039,98.0540491 212.993039,96.6114138 C212.993039,95.1687786 214.161726,94.0013405 215.603248,94.0013405 C217.044771,94.0013405 218.213457,95.1687786 218.213457,96.6114138" id="Fill-37" fill="#BCA9FF"></path>
                        <path d="M198.809408,149.96991 C199.623469,150.78393 199.623469,152.106428 198.809408,152.925008 C197.995348,153.739028 196.672785,153.739028 195.854165,152.925008 C195.040104,152.106428 195.040104,150.78393 195.854165,149.96991 C196.672785,149.15361 197.995348,149.15361 198.809408,149.96991" id="Fill-39" fill="#A375FC"></path>
                        <path d="M433.294664,179.124777 C433.294664,185.759304 427.917614,191.136059 421.285474,191.136059 C414.655563,191.136059 409.280742,185.759304 409.280742,179.124777 C409.280742,172.490249 414.655563,167.113494 421.285474,167.113494 C427.917614,167.113494 433.294664,172.490249 433.294664,179.124777 Z" id="Stroke-41" stroke="#BCA9FF" stroke-width="0.90064"></path>
                        <path d="M423.287617,178.168852 C424.101344,178.983206 424.101344,180.308526 423.287617,181.12516 C422.47161,181.939513 421.149589,181.939513 420.333582,181.12516 C419.517576,180.308526 419.517576,178.983206 420.333582,178.168852 C421.149589,177.354499 422.47161,177.354499 423.287617,178.168852" id="Fill-43" fill="#A375FC"></path>
                        <path d="M253.102002,149.96991 C253.915729,150.78393 253.915729,152.106428 253.102002,152.925008 C252.285995,153.739028 250.963974,153.739028 250.147968,152.925008 C249.331961,152.106428 249.331961,150.78393 250.147968,149.96991 C250.963974,149.15361 252.285995,149.15361 253.102002,149.96991" id="Fill-45" fill="#A375FC"></path>
                        <path d="M368.995273,122.813968 C369.809,123.627988 369.809,124.950485 368.995273,125.769065 C368.179267,126.583085 366.857245,126.583085 366.041239,125.769065 C365.225233,124.950485 365.225233,123.627988 366.041239,122.813968 C366.857245,121.997668 368.179267,121.997668 368.995273,122.813968" id="Fill-47" fill="#A375FC"></path>
                        <path d="M279.814385,70.5010054 C279.814385,71.943047 278.645218,73.1121537 277.203102,73.1121537 C275.760986,73.1121537 274.593968,71.943047 274.593968,70.5010054 C274.593968,69.0589638 275.760986,67.889857 277.203102,67.889857 C278.645218,67.889857 279.814385,69.0589638 279.814385,70.5010054" id="Fill-49" fill="#BCA9FF"></path>
                        <path d="M253.712297,44.3895219 C253.712297,45.8315635 252.543611,47.0006702 251.102088,47.0006702 C249.660565,47.0006702 248.491879,45.8315635 248.491879,44.3895219 C248.491879,42.9474803 249.660565,41.7783735 251.102088,41.7783735 C252.543611,41.7783735 253.712297,42.9474803 253.712297,44.3895219" id="Fill-51" fill="#BCA9FF"></path>
                        <polyline id="Stroke-53" stroke="#BCA9FF" stroke-width="0.52" stroke-linecap="round" stroke-linejoin="round" points="91.8793503 48.0451296 91.8793503 162.935657 60.5568445 162.935657"></polyline>
                        <path d="M93.3572222,96.7007741 C94.1709491,97.5170741 94.1709491,98.8395714 93.3572222,99.6558715 C92.5412158,100.472172 91.2191944,100.472172 90.403188,99.6558715 C89.5871817,98.8395714 89.5871817,97.5170741 90.403188,96.7007741 C91.2191944,95.8867542 92.5412158,95.8867542 93.3572222,96.7007741" id="Fill-55" fill="#A375FC"></path>
                        <path d="M99.187935,48.5684987 C99.187935,52.8936997 95.6815824,56.4008043 91.3550303,56.4008043 C87.0330348,56.4008043 83.5266821,52.8936997 83.5266821,48.5684987 C83.5266821,44.2432976 87.0330348,40.7339142 91.3550303,40.7339142 C95.6815824,40.7339142 99.187935,44.2432976 99.187935,48.5684987 Z" id="Stroke-57" stroke="#BCA9FF" stroke-width="1.80128"></path>
                        <path d="M369.605568,71.5454647 C369.605568,72.9875063 368.436882,74.156613 366.99536,74.156613 C365.553837,74.156613 364.385151,72.9875063 364.385151,71.5454647 C364.385151,70.1034231 365.553837,68.9343164 366.99536,68.9343164 C368.436882,68.9343164 369.605568,70.1034231 369.605568,71.5454647" id="Fill-59" fill="#BCA9FF"></path>
                        <path d="M90.8352668,48.0451296 L60.5568445,48.0451296" id="Stroke-61" stroke="#BCA9FF" stroke-width="0.52" stroke-linecap="round" stroke-linejoin="round"></path>
                        <path d="M93.3572222,46.5667258 C94.1709491,47.3830259 94.1709491,48.7055232 93.3572222,49.5218232 C92.5412158,50.3381233 91.2191944,50.3381233 90.403188,49.5218232 C89.5871817,48.7055232 89.5871817,47.3830259 90.403188,46.5667258 C91.2191944,45.7527059 92.5412158,45.7527059 93.3572222,46.5667258" id="Fill-63" fill="#A375FC"></path>
                        <path d="M59.9448398,46.5667258 C60.7608461,47.3830259 60.7608461,48.7055232 59.9448398,49.5218232 C59.1311128,50.3381233 57.8090914,50.3381233 56.9908057,49.5218232 C56.1770787,48.7055232 56.1770787,47.3830259 56.9908057,46.5667258 C57.8090914,45.7527059 59.1311128,45.7527059 59.9448398,46.5667258" id="Fill-65" fill="#A375FC"></path>
                        <path d="M63.0787999,160.414504 C63.8925269,161.228524 63.8925269,162.551021 63.0787999,163.369601 C62.2627935,164.183621 60.9407721,164.183621 60.1247658,163.369601 C59.3087594,162.551021 59.3087594,161.228524 60.1247658,160.414504 C60.9407721,159.598204 62.2627935,159.598204 63.0787999,160.414504" id="Fill-67" fill="#A375FC"></path>
                        <path d="M76.2180974,162.413427 C76.2180974,170.201342 69.9080824,176.513628 62.1229698,176.513628 C54.3400957,176.513628 48.0278422,170.201342 48.0278422,162.413427 C48.0278422,154.625512 54.3400957,148.313226 62.1229698,148.313226 C69.9080824,148.313226 76.2180974,154.625512 76.2180974,162.413427 Z" id="Stroke-69" stroke="#BCA9FF" stroke-width="0.90064"></path>
                        <path d="M114.849188,162.935657 L91.8793503,162.935657" id="Stroke-71" stroke="#BCA9FF" stroke-width="0.52" stroke-linecap="round" stroke-linejoin="round"></path>
                        <path d="M119.025522,162.935657 C119.025522,164.089579 118.091372,165.024576 116.936216,165.024576 C115.783338,165.024576 114.849188,164.089579 114.849188,162.935657 C114.849188,161.781735 115.783338,160.846738 116.936216,160.846738 C118.091372,160.846738 119.025522,161.781735 119.025522,162.935657" id="Fill-73" fill="#BCA9FF"></path>
                        <g id="Group-77" transform="translate(20.881671, 206.802949)">
                            <mask id="mask-2" fill="white">
                                <use xlink:href="#path-1"></use>
                            </mask>
                            <g id="Clip-76"></g>
                            <path d="M370.182935,0.148225339 C432.640164,1.05228132 421.943629,54.4727464 406.832973,76.4676844 C387.497276,104.612909 348.855144,130.735843 324.128411,154.270607 C314.235467,163.687669 303.682993,172.856735 291.034881,177.994749 C261.013904,190.182596 226.891688,177.126765 198.856053,160.874048 C170.818167,144.621331 143.183201,124.479595 110.922525,121.539722 C84.908246,119.167984 57.1607327,128.199526 33.3501385,117.434271 C7.36287142,105.688307 -4.06747437,72.7815709 1.53965272,44.780635 C4.55368049,29.7115323 10.9914097,10.8120278 35.4345221,0.148225339" id="Fill-75" fill="#2EBF8B" mask="url(#mask-2)"></path>
                        </g>
                        <path d="M359.164733,257.981457 C359.164733,267.211443 306.107869,274.692806 240.662377,274.692806 C175.214637,274.692806 122.157773,267.211443 122.157773,257.981457 C122.157773,248.753756 175.214637,241.270107 240.662377,241.270107 C306.107869,241.270107 359.164733,248.753756 359.164733,257.981457" id="Fill-78" fill="#2EAA7B"></path>
                        <path d="M299.651972,321.693476 C299.651972,321.693476 305.158488,333.443644 313.937024,321.693476 C313.937024,321.693476 319.594003,330.365716 326.438971,321.693476 C326.438971,321.693476 332.542849,331.906791 338.642236,321.693476 C338.642236,321.693476 346.381002,330.089167 349.951703,321.693476 C349.951703,321.693476 358.285586,332.046121 365.429234,321.693476" id="Stroke-80" stroke="#319DA8" stroke-width="0.98592" stroke-linecap="round"></path>
                        <path d="M0,242.314567 C0,242.314567 5.50651577,254.064734 14.2850517,242.314567 C14.2850517,242.314567 19.942031,250.986807 26.7869984,242.314567 C26.7869984,242.314567 32.8908768,252.52577 38.9902638,242.314567 C38.9902638,242.314567 46.7290294,250.708147 50.2997309,242.314567 C50.2997309,242.314567 58.6336135,252.6651 65.7772622,242.314567" id="Stroke-82" stroke="#319DA8" stroke-width="0.98592" stroke-linecap="round"></path>
                        <path d="M384.222738,239.181189 C384.222738,239.181189 389.727008,250.931356 398.50779,239.181189 C398.50779,239.181189 404.164769,247.853429 411.009736,239.181189 C411.009736,239.181189 417.111369,249.392392 423.213002,239.181189 C423.213002,239.181189 430.951767,247.574769 434.522469,239.181189 C434.522469,239.181189 442.856351,249.531722 450,239.181189" id="Stroke-84" stroke="#319DA8" stroke-width="0.98592" stroke-linecap="round"></path>
                        <path d="M151.392111,341.538204 C151.392111,341.538204 156.898627,353.288371 165.677163,341.538204 C165.677163,341.538204 171.334142,350.210444 178.17911,341.538204 C178.17911,341.538204 184.280742,351.751519 190.382375,341.538204 C190.382375,341.538204 198.121141,349.933895 201.691842,341.538204 C201.691842,341.538204 210.025725,351.890849 217.169374,341.538204" id="Stroke-86" stroke="#319DA8" stroke-width="0.98592" stroke-linecap="round"></path>
                        <path d="M274.593968,185.391533 C274.593968,186.256004 273.892003,186.958222 273.027842,186.958222 C272.163681,186.958222 271.461717,186.256004 271.461717,185.391533 C271.461717,184.527061 272.163681,183.824844 273.027842,183.824844 C273.892003,183.824844 274.593968,184.527061 274.593968,185.391533" id="Fill-88" fill="#F4F6F1"></path>
                        <path d="M296.519722,177.035858 C296.519722,177.90033 295.817757,178.602547 294.953596,178.602547 C294.089435,178.602547 293.387471,177.90033 293.387471,177.035858 C293.387471,176.171386 294.089435,175.469169 294.953596,175.469169 C295.817757,175.469169 296.519722,176.171386 296.519722,177.035858" id="Fill-90" fill="#F4F6F1"></path>
                        <path d="M211.974454,147.035949 L231.786543,172.335791 L198.633662,155.311018 C198.633662,155.311018 202.51553,147.273267 196.287703,144.199227 C196.287703,144.199227 205.587348,140.335606 211.974454,147.035949" id="Fill-92" fill="#5F45BA"></path>
                        <path d="M199.887221,172.272179 C199.887221,172.272179 213.957595,179.245362 222.389791,168.090096 L197.05218,154.579982 L192.111369,161.802126 C192.111369,161.802126 193.487868,168.944329 199.887221,172.272179" id="Fill-94" fill="#D7D3E2"></path>
                        <path d="M211.948956,173.38025 L211.948956,183.824844" id="Stroke-96" stroke="#271C47" stroke-width="0.74048" stroke-linecap="round"></path>
                        <path d="M205.684455,173.38025 L205.684455,181.735925" id="Stroke-98" stroke="#271C47" stroke-width="0.74048" stroke-linecap="round"></path>
                        <path d="M192.111369,148.153226 L192.530924,161.891197 C192.530924,161.891197 197.204961,160.118556 199.107103,155.490243 C200.985674,150.920717 201.591437,146.400933 196.382349,144.135389 L192.111369,148.153226 Z" id="Fill-100" fill="#968BBC"></path>
                        <polygon id="Fill-102" fill="#271C47" points="194.199536 150.402145 191.997787 147.83169 187.935035 147.268767"></polygon>
                        <path d="M199.419954,148.31414 C199.419954,148.889826 199.887236,149.357685 200.464037,149.357685 C201.040839,149.357685 201.508121,148.889826 201.508121,148.31414 C201.508121,147.736626 201.040839,147.268767 200.464037,147.268767 C199.887236,147.268767 199.419954,147.736626 199.419954,148.31414" id="Fill-104" fill="#271C47"></path>
                        <path d="M140.922042,193.224978 L140.98051,208.891868" id="Stroke-106" stroke="#231A4C" stroke-width="0.77168"></path>
                        <path d="M147.185499,192.180518 L147.246056,208.891868" id="Stroke-108" stroke="#231A4C" stroke-width="0.77168"></path>
                        <path d="M172.706627,175.903739 C172.706627,175.903739 178.731605,168.269271 167.792462,159.700468 C167.792462,159.700468 159.421933,153.155688 149.357019,159.298771 C149.357019,159.298771 130.984665,152.962607 112.761021,176.647211 C112.761021,176.647211 114.935331,186.518756 126.002905,190.92411 C126.002905,190.92411 133.952091,194.461709 143.47399,192.763928 C152.998143,191.063927 155.465365,188.627112 157.6577,184.792123 C159.850035,180.952696 160.767075,179.776455 163.565513,179.836377 C166.368458,179.896299 170.401633,178.908701 172.706627,175.903739" id="Fill-110" fill="#D7CDF9"></path>
                        <path d="M170.691737,170.996794 C170.27828,171.276709 169.714475,171.168085 169.434661,170.754479 C169.156934,170.340874 169.265519,169.776866 169.681064,169.49695 C170.094521,169.217035 170.65415,169.325659 170.933965,169.739265 C171.215867,170.15496 171.105194,170.716879 170.691737,170.996794" id="Fill-112" fill="#20115B"></path>
                        <polygon id="Fill-114" fill="#20115B" points="169.579692 176.513628 172.629124 177.039944 174.361949 185.913762 168.097448 179.912845"></polygon>
                        <path d="M127.999055,165.771947 C127.999055,165.771947 143.906567,162.161937 153.920729,170.809995 C163.93489,179.460271 151.082854,184.78437 147.129776,185.757831 C147.129776,185.757831 115.498353,187.824495 97.099768,176.910202 C97.099768,176.910202 117.667559,166.4394 127.999055,165.771947" id="Fill-116" fill="#C2B9EA"></path>
                        <path d="M250.580046,179.647006 L250.580046,188.002681" id="Stroke-118" stroke="#271C47" stroke-width="0.74048" stroke-linecap="round"></path>
                        <path d="M257.888631,179.647006 L257.888631,193.224978" id="Stroke-120" stroke="#271C47" stroke-width="0.74048" stroke-linecap="round"></path>
                        <path d="M237.815628,184.869303 L236.135397,190.930635 C236.135397,190.930635 235.396979,193.04614 236.975512,193.221458 C238.554046,193.396776 240.139211,186.96377 240.139211,186.96377 L237.815628,184.869303 Z" id="Fill-122" fill="#8F4BD1"></path>
                        <path d="M243.271462,185.924333 L242.230758,191.733746 C242.230758,191.733746 242.056899,193.737867 239.608184,193.099423 C239.608184,193.099423 238.47198,192.843623 239.581248,190.60907 C241.033336,187.689565 241.008849,185.913762 241.008849,185.913762 L243.271462,185.924333 Z" id="Fill-124" fill="#A99BCE"></path>
                        <path d="M244.140617,189.857921 C245.318173,187.850352 247.19934,184.261388 247.447796,181.43608 L243.720956,179.647006 L243.272065,189.576689 C243.249098,190.082908 243.887985,190.288424 244.140617,189.857921" id="Fill-126" fill="#C1B0FF"></path>
                        <path d="M245.40025,151.256406 C245.40025,151.256406 244.63592,142.228329 249.738215,142.060521 C254.840511,141.888238 258.344252,143.194904 259.958589,151.885127 C259.958589,151.885127 269.371794,162.54206 262.961796,178.087803 C262.961796,178.087803 260.48167,183.448713 248.64696,181.173235 C247.842046,181.021089 247.032624,180.680998 246.166834,180.365518 L245.40025,151.256406 Z" id="Fill-128" fill="#D7D3E2"></path>
                        <path d="M246.460669,152.692061 C246.460669,152.692061 250.423494,154.041362 249.35222,167.351303 C249.35222,167.351303 247.718638,186.528556 240.846482,186.953462 C233.974325,187.380627 241.935536,158.914215 241.935536,158.914215 C241.935536,158.914215 243.529112,151.157429 246.460669,152.692061" id="Fill-130" fill="#C2BCD3"></path>
                        <path d="M242.227378,147.437569 L245.42401,146.553956 C245.568604,146.516356 245.722095,146.551867 245.828872,146.650047 L246.280449,147.072008 C246.491779,147.268366 246.420594,147.596327 246.149203,147.704951 C245.435133,147.991132 244.04036,148.289848 242.227378,147.437569" id="Fill-132" fill="#271C47"></path>
                        <path d="M251.309861,146.224307 C251.309861,146.627469 250.982019,146.955429 250.579002,146.955429 C250.175986,146.955429 249.850232,146.627469 249.850232,146.224307 C249.850232,145.821146 250.175986,145.493186 250.579002,145.493186 C250.982019,145.493186 251.309861,145.821146 251.309861,146.224307" id="Fill-134" fill="#271C47"></path>
                        <path d="M253.712297,149.35871 C253.712297,149.934752 253.243023,150.402145 252.667189,150.402145 C252.091355,150.402145 251.62413,149.934752 251.62413,149.35871 C251.62413,148.782669 252.091355,148.313226 252.667189,148.313226 C253.243023,148.313226 253.712297,148.782669 253.712297,149.35871" id="Fill-136" fill="#CC99CC"></path>
                        <path d="M277.602121,204.538605 C278.157622,205.735282 276.796101,207.720188 274.558851,208.969413 C272.319422,210.221026 270.053852,210.261632 269.498351,209.067344 C268.940672,207.870668 270.304371,205.885762 272.5438,204.636537 C274.781051,203.387312 277.044442,203.341929 277.602121,204.538605" id="Fill-138" fill="#C2B9EA"></path>
                        <path d="M92.3384398,75.2010724 L100.232019,66.9265277 C100.232019,66.9265277 93.9298871,65.4947151 85.6148492,74.6611696 L92.3384398,75.2010724 Z" id="Fill-140" fill="#9C9CEF"></path>
                        <path d="M82.4331265,75.0477002 C82.4331265,75.0477002 82.8310836,71.8243627 81.3696206,66.5267584 C79.9081576,61.2245853 79.8464056,54.3118856 79.8464056,54.3118856 C79.8464056,54.3118856 62.7914298,66.3691324 69.3783053,84.6012064 L82.4331265,75.0477002 Z" id="Fill-142" fill="#9C9CEF"></path>
                        <path d="M94.9293985,77.9141403 C94.9293985,77.9141403 95.9010596,82.9357608 91.1630977,84.2058029 C91.1630977,84.2058029 88.4108009,84.8295647 86.1777634,87.5407894 C83.9447259,90.252014 81.0587143,91.9634183 78.5849901,92.515121 C76.1090373,93.0690755 71.4513043,93.5509709 68.6165501,92.4813433 C65.7817959,91.4072119 57.1014753,92.5714172 54.5920938,94.0013405 L53.2482599,89.2589492 L64.7633346,90.0696144 C64.7633346,90.0696144 65.7349957,90.4141471 67.5490601,87.4394562 C69.3608959,84.4670172 71.6808481,81.4855708 76.0867515,78.5536651 C80.4904263,75.6240112 83.3697521,73.6266223 87.1672531,73.171749 C90.9669826,72.7146239 94.0602522,74.9439532 94.9293985,77.9141403" id="Fill-144" fill="#B9B9ED"></path>
                        <polygon id="Fill-146" fill="#20115B" points="93.7160228 83.5567471 95.0116009 87.7345845 91.8793503 84.7438164"></polygon>
                        <path d="M90.3074066,81.0719783 C90.0902372,81.3644269 90.1487059,81.7780328 90.4389611,81.9952804 C90.7313045,82.2146168 91.1426734,82.1561271 91.3640191,81.8636785 C91.5811885,81.5712299 91.5206317,81.157624 91.2282883,80.9403765 C90.9380331,80.72104 90.524576,80.7795297 90.3074066,81.0719783" id="Fill-148" fill="#20115B"></path>
                        <path d="M79.350348,91.1112171 C79.350348,91.1112171 81.4058098,90.5430313 84.5707657,92.7781742" id="Stroke-150" stroke="#271C47" stroke-width="0.52" stroke-linecap="round"></path>
                        <path d="M77.262181,92.9568811 C77.262181,92.9568811 80.2099284,94.1908038 81.4385151,96.0902592" id="Stroke-152" stroke="#271C47" stroke-width="0.52" stroke-linecap="round"></path>
                        <path d="M325.75406,84.6012064 L330.797093,57.4452636 C330.797093,57.4452636 344.350106,67.5901426 339.205817,82.1944088 L325.75406,84.6012064 Z" id="Fill-154" fill="#C2B9EA"></path>
                        <path d="M305.916473,108.930827 L318.946985,96.0902592 L329.930394,98.8318182 C329.930394,98.8318182 318.635175,113.010527 305.916473,108.930827" id="Fill-156" fill="#C2B9EA"></path>
                        <path d="M317.058038,95.1384402 C317.058038,95.1384402 334.05375,109.268759 344.667067,84.969872 L359.164733,81.9787165 C359.164733,81.9787165 358.91943,80.7768117 356.594672,80.2688368 L358.60211,78.3344504 L321.793072,84.7612395 C321.793072,84.7612395 312.543552,85.5935019 314.555492,92.4307528 L317.058038,95.1384402 Z" id="Fill-158" fill="#D7CDF9"></path>
                        <polygon id="Fill-160" fill="#20115B" points="313.225058 96.0902592 314.580276 92.4935575 317.401392 91.9124218 317.315307 95.016743"></polygon>
                        <path d="M317.723214,89.3352089 C317.994676,89.512767 318.067762,89.8762388 317.890268,90.1457093 C317.712774,90.4172688 317.347344,90.4903809 317.077971,90.3128228 C316.810685,90.1331758 316.733423,89.769704 316.913006,89.5002335 C317.0905,89.2307629 317.453841,89.1555619 317.723214,89.3352089" id="Fill-162" fill="#20115B"></path>
                        <path d="M158.743799,94.2450467 C158.743799,94.2450467 163.555949,96.3470508 161.168136,99.4428129 C158.775759,102.536285 149.42083,105.748825 141.789419,94.3755633 L135.730858,89.7342099 C135.730858,89.7342099 136.748989,89.090786 137.461223,89.44112 L137.614171,88.010017 C137.614171,88.010017 140.74846,90.9180184 141.657016,91.9850488 C141.657016,91.9850488 143.474128,93.0268918 144.45345,92.8757673 C144.45345,92.8757673 141.930952,82.1527985 150.201549,75.2010724 L154.735197,94.0549962 C154.735197,94.0549962 157.26226,93.3520384 158.743799,94.2450467" id="Fill-164" fill="#7B72CE"></path>
                        <path d="M163.921114,81.4678284 L153.480278,88.350262 L155.075374,95.0457998 C155.075374,95.0457998 163.013918,93.73753 163.921114,81.4678284" id="Fill-166" fill="#8884D8"></path>
                        <path d="M158.442807,96.7675969 C158.238167,96.9096434 158.192227,97.1916474 158.334223,97.3942725 C158.478306,97.5948087 158.756032,97.6449428 158.958585,97.5008074 C159.163225,97.356672 159.209165,97.0767569 159.067169,96.8762207 C158.923086,96.6735956 158.64536,96.6255505 158.442807,96.7675969" id="Fill-168" fill="#271C47"></path>
                        <polygon id="Fill-170" fill="#271C47" points="160.041848 98.1791778 159.74478 100.392291 162.87703 101.312556 161.795596 98.5823025"></polygon>
                        <path d="M144.822738,98.2230451 C144.822738,98.2230451 144.791415,99.7646671 143.344316,100.224229" id="Stroke-172" stroke="#271C47" stroke-width="0.52" stroke-linecap="round"></path>
                        <path d="M145.669917,99.2236372 C145.669917,99.2236372 145.955996,100.71544 144.5611,101.312556" id="Stroke-174" stroke="#271C47" stroke-width="0.52" stroke-linecap="round"></path>
                        <path d="M212.151712,239.424016 C212.151712,239.424016 178.994581,243.540182 179.590299,265.685742 C180.188273,287.826787 206.505928,296.059119 206.505928,296.059119 C206.505928,296.059119 216.745963,298.657971 229.183836,299.75983 C189.01122,291.672004 193.048114,272.567846 193.048114,272.567846 C202.617965,238.450857 250.580046,246.76899 250.580046,246.76899 L250.580046,246.766732 C249.352506,245.728094 247.924136,244.725583 246.245294,243.799841 C235.030448,237.628979 212.151712,239.424016 212.151712,239.424016" id="Fill-176" fill="#8279D8"></path>
                        <path d="M164.641212,221.096471 C167.195977,218.498886 169.630169,215.151997 169.056883,211.557611 C168.965885,210.989957 168.790714,210.415491 168.419898,209.977262 C167.933059,209.402796 167.173227,209.128051 166.431595,208.998626 C164.049726,208.576291 161.481312,209.427772 159.822876,211.18523 L159.133567,211.646165 C155.104637,213.115254 152.031185,216.925348 151.455623,221.169131 C151.373725,221.779927 151.339601,222.415699 151.551171,222.996977 C151.728617,223.489701 152.076684,223.907494 152.467974,224.254899 C154.212858,225.783024 156.863171,225.921531 159.042569,225.124545 C161.221968,224.329829 163.014625,222.747209 164.641212,221.096471" id="Fill-178" fill="#8279D8"></path>
                        <path d="M204.662116,198.154052 C202.942514,197.787324 201.196183,197.536171 199.443169,197.402815 L199.456534,197.922902 C197.082058,198.080706 194.720947,198.465215 192.41775,199.067538 C191.898751,199.203116 191.366387,199.356475 190.938714,199.680974 C189.726974,200.59446 189.811618,202.530339 190.646917,203.794995 C192.40884,206.459885 196.144296,206.757713 199.342933,206.782161 C200.231691,206.788829 201.115994,206.795497 202.004752,206.799942 C203.755538,206.813277 205.568693,206.813277 207.165785,206.09538 C208.762876,205.377482 210.081534,203.73054 209.829831,201.999139 C209.500166,199.734316 206.905171,198.631909 204.662116,198.154052" id="Fill-180" fill="#8279D8"></path>
                        <path d="M252.579688,212.787448 C249.610447,211.342639 245.710286,211.961843 243.594757,214.560206 L243.910211,214.278124 C242.595451,215.67248 241.245395,217.114995 240.552719,218.929033 C239.857837,220.743071 239.983578,223.041005 241.353487,224.378027 C242.648394,225.639368 244.629358,225.712755 246.394137,225.526994 C249.109691,225.238032 251.911278,224.42848 253.848123,222.430975 C255.784968,220.431176 256.530587,216.991154 254.924638,214.697807 C254.335643,213.853855 253.488549,213.230064 252.579688,212.787448" id="Fill-182" fill="#8279D8"></path>
                        <path d="M168.142161,238.334218 C167.009574,237.848358 165.554032,238.289644 164.887937,239.321538 L163.513133,239.76951 C161.169464,242.049484 159.543473,245.049333 158.915504,248.249766 C158.655346,249.580309 158.565636,250.991084 159.027642,252.265909 C159.485162,253.542962 160.584107,254.659548 161.938726,254.824472 C164.107461,255.091918 165.778307,253.037044 166.917622,251.184983 C168.579496,248.488239 170.158389,245.559709 170.185302,242.397164 C170.201001,240.792489 169.626859,238.969401 168.142161,238.334218" id="Fill-184" fill="#8279D8"></path>
                        <path d="M148.304974,282.274641 L147.611946,281.428128 C145.659292,280.91509 143.268813,280.511656 141.882756,281.976146 C141.089052,282.810999 140.883016,284.05395 140.969645,285.198958 C141.222506,288.545365 143.858823,291.576954 147.148366,292.304535 C148.829428,292.677654 150.842956,292.360503 151.819283,290.947316 C152.376515,290.133451 152.502945,289.093383 152.406952,288.113947 C152.165797,285.639704 150.554974,283.345025 148.304974,282.274641" id="Fill-186" fill="#8279D8"></path>
                        <path d="M198.554179,308.884186 C200.179058,309.775064 202.004055,310.411071 203.809476,310.142171 C205.614897,309.873271 207.365937,308.500711 207.720496,306.57866 C208.075054,304.654271 206.569812,302.453967 204.75569,302.645705 L203.520174,302.739235 C201.888769,301.827313 199.859302,301.467221 198.225723,302.376805 C196.592144,303.281712 195.693784,305.734548 196.731357,307.366654 C197.168573,308.056442 197.862464,308.503049 198.554179,308.884186" id="Fill-188" fill="#8279D8"></path>
                        <path d="M278.694462,179.64742 C276.964607,179.677486 275.598045,181.337571 275.638946,183.356304 C275.684658,185.375036 277.120991,186.987874 278.848441,186.957808 C280.578296,186.929889 281.944857,185.269804 281.901551,183.251072 C281.858244,181.230192 280.424317,179.617354 278.694462,179.64742" id="Fill-190" fill="#271C47"></path>
                        <path d="M301.492123,180.648393 C303.165938,180.341106 304.165478,178.475744 303.723876,176.480543 C303.287022,174.485342 301.572846,173.117698 299.899032,173.422821 C298.227592,173.730108 297.228052,175.59547 297.66728,177.590671 C298.106507,179.585872 299.818309,180.95568 301.492123,180.648393" id="Fill-192" fill="#271C47"></path>
                        <path d="M362.908796,162.935041 C364.928096,162.893489 366.522836,160.520417 366.472142,157.637182 C366.421448,154.751638 364.746443,152.447819 362.727143,152.491679 C360.709955,152.530923 359.115215,154.903994 359.165909,157.789539 C359.216603,160.675083 360.891608,162.978901 362.908796,162.935041" id="Fill-194" fill="#521E8E"></path>
                        <path d="M374.586151,162.895757 C376.164154,163.230929 378.016167,161.41756 378.725656,158.843608 C379.435146,156.269655 378.732996,153.910556 377.15744,153.575384 C375.579437,153.240211 373.724978,155.055729 373.015488,157.629682 C372.303552,160.201486 373.008148,162.560584 374.586151,162.895757" id="Fill-196" fill="#521E8E"></path>
                        <path d="M318.892804,202.345107 C320.410664,200.987864 318.554128,198.447274 318.554128,198.447274 L315.313225,199.696362 C315.313225,199.696362 317.372472,203.700229 318.892804,202.345107" id="Fill-198" fill="#E5E4EA"></path>
                        <path d="M326.288239,199.160839 C327.479156,197.680356 326.210655,195.313896 326.210655,195.313896 L323.665893,196.685656 C323.665893,196.685656 325.095382,200.639009 326.288239,199.160839" id="Fill-200" fill="#E5E4EA"></path>
                        <path d="M329.930394,193.562514 C329.930394,193.562514 331.35374,197.508752 332.549583,196.024558 C333.743482,194.540364 332.479582,192.180518 332.479582,192.180518 L329.930394,193.562514 Z" id="Fill-202" fill="#E5E4EA"></path>
                        <path d="M342.459397,187.386497 C342.459397,187.386497 344.207879,191.516778 345.20385,189.570119 C346.133422,187.758502 345.099826,185.913762 345.099826,185.913762 L343.110098,187.024683 L343.03042,187.067999 L342.459397,187.386497 Z" id="Fill-204" fill="#E5E4EA"></path>
                        <path d="M311.113921,209.941549 L311.113921,209.941549 C311.130626,209.937372 311.147332,209.935283 311.159861,209.931105 L311.113921,209.941549 Z" id="Fill-206" fill="#E5E4EA"></path>
                        <path d="M324.740255,207.840097 C324.719374,207.844275 324.698492,207.850542 324.679698,207.85472 L324.740255,207.840097 Z" id="Fill-208" fill="#E5E4EA"></path>
                        <path d="M335.299072,205.721934 C335.209281,205.742823 335.113225,205.765801 335.002552,205.788779 L335.00464,205.795046 L335.299072,205.721934 Z" id="Fill-210" fill="#E5E4EA"></path>
                        <path d="M357.076566,205.569443 C356.265306,205.698956 355.551314,205.832646 354.988399,205.947537 L357.076566,205.569443 Z" id="Fill-212" fill="#E5E4EA"></path>
                        <polygon id="Fill-214" fill="#2EBF8B" points="274.593968 212.525668 277.726218 216.203083 275.877235 210.980786"></polygon>
                        <path d="M368.554602,198.447274 C368.554602,198.447274 365.387017,200.506207 360.208817,203.669571 C369.111421,199.912812 368.554602,198.447274 368.554602,198.447274" id="Fill-216" fill="#2EBF8B"></path>
                        <path d="M375.701892,163.198252 C374.250934,162.846419 373.603064,160.370058 374.257683,157.670418 C374.910051,154.968522 376.615208,153.062761 378.066166,153.414594 C379.514875,153.766427 380.160495,156.242788 379.508126,158.944684 C378.855758,161.646579 377.15285,163.550085 375.701892,163.198252 M363.365374,163.238848 C361.217057,163.279444 359.433165,161.028616 359.376927,158.209444 C359.325187,155.390271 361.023595,153.074038 363.171913,153.033442 C365.320231,152.992846 367.106372,155.243674 367.158111,158.062847 C367.21435,160.879764 365.515942,163.198252 363.365374,163.238848 M302.357649,181.383045 C300.771718,181.698792 299.152044,180.273418 298.733628,178.193996 C298.319712,176.11683 299.264522,174.170473 300.850453,173.85247 C302.436383,173.532212 304.058307,174.959841 304.474473,177.039263 C304.89064,179.118685 303.94583,181.062787 302.357649,181.383045 M279.484251,187.837823 C277.866827,187.867143 276.523847,186.175639 276.483355,184.053365 C276.442863,181.935603 277.720606,180.189971 279.338031,180.160651 C280.953206,180.129077 282.298435,181.822836 282.336678,183.942854 C282.377169,186.065127 281.099426,187.806248 279.484251,187.837823 M254.664995,222.694077 C252.689893,224.658477 249.832967,225.454611 247.063775,225.736528 C245.264137,225.921466 243.244043,225.849295 241.923559,224.608859 C240.52659,223.293997 240.400615,221.034148 241.106973,219.250175 C241.813331,217.466203 243.190054,216.047595 244.530784,214.676349 L244.209099,214.953756 C246.366415,212.396202 250.343615,211.789516 253.371505,213.210379 C254.298319,213.64566 255.162145,214.259112 255.765024,215.089076 C257.400445,217.344415 256.640098,220.727422 254.664995,222.694077 M207.714692,206.279725 C206.101766,207.008199 204.270635,207.008199 202.50249,206.992412 C201.604921,206.987901 200.711851,206.981135 199.814281,206.974369 C196.583931,206.94956 192.81144,206.6496 191.032048,203.943194 C190.188468,202.659907 190.102985,200.695507 191.326739,199.768563 C191.758652,199.439284 192.296294,199.283665 192.820438,199.14609 C195.14647,198.534893 197.530991,198.144719 199.929008,197.986846 L199.915511,197.456841 C201.688154,197.592161 203.44955,197.847015 205.1862,198.219146 C207.451495,198.704043 210.072217,199.822691 210.4074,202.123136 C210.659349,203.877789 209.327617,205.548995 207.714692,206.279725 M198.894216,303.491573 C200.583626,302.614246 202.684704,302.963824 204.371864,303.84115 L205.647358,303.750937 C207.52348,303.565999 209.082417,305.690528 208.71574,307.544416 C208.346815,309.398304 206.538178,310.722187 204.671054,310.981551 C202.80393,311.243171 200.91656,310.627463 199.236148,309.768179 C198.518542,309.400559 197.803186,308.96979 197.351027,308.304465 C196.275743,306.732494 197.204806,304.366644 198.894216,303.491573 M167.600763,252.1082 C166.457993,253.982386 164.78208,256.061808 162.606768,255.793422 C161.248041,255.624272 160.145763,254.494348 159.686855,253.202039 C159.225698,251.911985 159.31343,250.484356 159.574378,249.137919 C160.204251,245.899253 161.835173,242.863568 164.18595,240.556357 L165.564922,240.105289 C166.233038,239.061067 167.692994,238.612255 168.829016,239.103919 C170.318216,239.74669 170.8941,241.591557 170.878353,243.215401 C170.851359,246.415726 169.267677,249.37924 167.600763,252.1082 M153.194661,224.378815 C152.80549,224.036003 152.463558,223.618766 152.288094,223.129357 C152.078886,222.551991 152.110379,221.920496 152.193613,221.316065 C152.762748,217.098583 155.799637,213.31638 159.785835,211.854921 L160.465198,211.397087 C162.107368,209.653711 164.647107,208.807959 167.002383,209.225197 C167.735736,209.356006 168.487084,209.626647 168.968488,210.197247 C169.335164,210.632528 169.508379,211.203128 169.598361,211.766963 C170.165247,215.337163 167.758231,218.663787 165.22974,221.241639 C163.623563,222.88127 161.85092,224.453241 159.695853,225.244865 C157.540787,226.034233 154.917815,225.898913 153.194661,224.378815 M151.784195,291.4413 C150.846134,292.81029 148.911523,293.114761 147.296348,292.753907 C144.135734,292.052497 141.602744,289.120557 141.359793,285.881891 C141.276559,284.77452 141.474519,283.57468 142.237116,282.767269 C143.568848,281.350916 145.865636,281.74109 147.741758,282.235009 L148.407624,283.055952 C150.56944,284.091152 152.117128,286.310405 152.348831,288.701064 C152.441063,289.648306 152.319587,290.656442 151.784195,291.4413 M379.305667,152.519225 C376.684944,149.000897 373.686298,150.403718 373.281379,152.765057 C372.874211,155.126396 373.065423,156.123256 371.544729,156.335257 C370.024035,156.545004 368.784534,152.05237 368.784534,152.05237 C368.784534,152.05237 367.763239,148.331062 361.772695,149.634647 C355.7844,150.938233 356.151076,158.644724 356.151076,158.644724 C356.151076,158.644724 356.999155,161.894666 353.440371,160.830147 C349.879338,159.767882 349.674629,162.377309 349.674629,162.377309 C349.674629,162.377309 349.845595,164.95065 347.245118,164.743159 C344.642391,164.535668 346.246319,164.258261 340.917141,162.927611 C335.587963,161.596962 334.465439,166.436918 333.819819,168.944854 C333.174199,171.45279 330.706445,170.685975 328.519885,168.71932 C326.335575,166.75492 323.555134,171.637728 323.555134,171.637728 C323.555134,171.637728 321.105377,175.582315 319.323736,173.358551 C317.539845,171.134787 315.764952,172.972888 315.764952,172.972888 C315.764952,172.972888 314.635679,175.104183 312.687571,176.470918 C310.739463,177.837653 308.836346,176.728027 308.411181,174.427581 C307.983767,172.127136 305.106596,167.528502 298.270222,168.362977 C291.431598,169.199707 292.126708,179.420901 292.126708,179.420901 L287.485891,180.722231 C287.485891,180.722231 285.087874,169.637243 275.171869,173.972003 C267.899082,177.15203 270.101389,186.689856 271.793049,191.552365 C270.24761,196.626877 265.17713,196.227682 262.970324,196.263767 C260.70503,195.627762 258.855902,194.233963 258.284517,191.410279 C257.166492,185.882445 252.395202,187.301053 251.088215,188.345274 C249.781228,189.391751 248.220042,189.766137 246.582371,189.766137 C244.940202,189.766137 243.525237,188.570808 240.618821,183.263997 C237.710157,177.959441 231.971561,183.936088 231.971561,183.936088 C231.971561,183.936088 228.244061,187.749865 224.964221,183.638383 C221.686631,179.529157 217.288765,184.310474 217.288765,184.310474 C217.288765,184.310474 213.860455,187.077774 209.836015,182.51748 C205.811575,177.959441 202.680205,183.638383 202.680205,183.638383 C202.680205,183.638383 200.293435,187.375479 198.057385,188.196422 C195.821335,189.01962 195.225205,187.1522 190.827339,186.85224 C186.429474,186.55228 183.001164,189.691711 183.001164,189.691711 C177.336804,193.352125 175.919589,190.589336 171.672444,189.170728 C167.423049,187.749865 166.453494,189.542859 164.964293,194.698562 C163.472843,199.854266 158.256143,197.165903 158.256143,197.165903 C148.715812,194.921841 149.311943,202.021646 149.311943,202.021646 C149.311943,202.021646 148.416623,206.805219 147.075892,207.777269 C145.732913,208.747065 143.627336,208.652341 139.827851,207.644204 C136.026116,206.636068 135.225277,212.035348 134.926087,214.502688 C134.629147,216.967773 135.225277,216.521216 130.006327,220.104949 C124.789626,223.693192 125.459992,227.27918 125.459992,227.27918 C125.459992,227.27918 126.877206,231.31398 119.572926,231.016276 C112.268646,230.716316 115.696956,236.54411 115.696956,236.54411 L116.740746,238.639319 C116.740746,238.639319 119.347971,242.374159 114.801636,245.962403 C110.255301,249.548391 114.725151,251.941305 114.725151,251.941305 C114.725151,251.941305 116.068131,252.536714 118.155711,253.508765 C120.241042,254.483071 119.199501,258.517871 115.397766,262.552671 C111.596031,266.587472 118.229946,269.350261 118.229946,269.350261 C122.254387,272.489692 120.614467,276.377895 119.869866,277.719822 C119.123017,279.066259 119.048782,283.026633 124.938097,282.280116 C130.827412,281.533599 129.911846,285.791678 129.911846,285.791678 L129.932092,290.277545 C129.484432,296.328618 136.640242,292.778716 137.868495,294.012386 C139.098997,295.246056 139.771612,298.27272 139.098997,302.194753 C138.428632,306.116787 141.335047,307.57599 147.597787,306.455087 C153.858278,305.331929 155.648918,310.9387 155.648918,310.9387 C155.648918,310.9387 159.11322,319.0083 163.472843,315.086267 C167.834716,311.161978 169.958288,314.635199 169.958288,314.635199 C169.958288,314.635199 170.741131,315.532824 173.647546,319.344346 C176.556211,323.155868 179.125194,323.491913 184.380137,319.233834 C189.635079,314.9735 190.753104,320.129204 190.753104,320.129204 C190.753104,320.129204 191.200764,323.940725 195.225205,324.725583 C199.251894,325.510441 201.487945,321.475641 201.487945,321.475641 C201.487945,321.475641 202.718447,316.766494 208.753983,321.757558 C214.791768,326.746366 218.593503,321.757558 218.593503,321.757558 C222.953126,316.992028 225.411881,320.016437 225.411881,320.016437 C231.337189,324.502305 234.729506,318.895534 234.729506,318.895534 C236.666367,316.356023 243.077577,315.758358 243.077577,315.758358 C258.581457,312.17237 282.134218,306.791133 287.800828,294.386772 C293.462939,281.980156 278.408968,292.293818 278.408968,292.293818 C278.408968,292.293818 273.192267,295.433249 253.661697,299.316942 C246.14146,300.814486 237.521195,300.712996 229.758007,300.025118 C217.358501,298.926768 207.150055,296.328618 207.150055,296.328618 C207.150055,296.328618 180.913584,288.10791 180.319704,265.989807 C179.723574,243.871704 212.778423,239.757967 212.778423,239.757967 C212.778423,239.757967 235.586584,237.964973 246.769084,244.131068 C248.440498,245.053501 249.866711,246.054872 251.088215,247.092327 C258.034817,252.987782 258.284517,260.010905 258.284517,260.010905 C269.761708,264.94333 287.202449,258.217911 287.202449,258.217911 C287.501638,252.536714 284.626717,248.621447 281.943007,244.886606 C281.772041,244.645285 273.585938,239.043025 295.833962,230.991467 C295.833962,230.991467 303.765866,229.297708 357.62228,206.566153 C358.837035,205.815125 359.988804,205.097927 361.048341,204.432603 C366.424759,201.054106 369.713597,198.857406 369.713597,198.857406 C371.229792,192.680035 362.805237,194.123451 357.779748,195.481165 L355.566194,196.135213 C354.74061,196.396832 354.229962,196.58177 354.229962,196.58177 L352.940972,196.904283 L348.284409,198.074804 L343.375896,199.308474 L339.211984,200.354951 L335.286524,201.340534 C335.286524,201.340534 335.066068,201.392407 334.672397,201.480365 L334.355211,201.557046 L334.352962,201.55028 C333.405902,201.762282 329.669404,202.585481 329.669404,202.585481 C328.238692,202.898973 310.325546,207.867483 310.325546,207.867483 C310.312049,207.871994 295.255828,210.373164 293.123257,210.463377 C291.56882,210.528782 290.464292,210.023586 289.703945,209.398858 C288.837869,208.690681 289.220293,207.276584 290.315822,207.060072 C293.213239,206.491727 300.027118,204.831797 315.911172,200.04597 L314.910124,200.537633 L346.04161,186.935688 C352.176126,184.547285 357.102634,182.393436 361.095581,180.435803 L361.221556,180.374909 C373.231889,174.468178 376.682695,170.365717 378.783772,167.043604 C381.586708,162.611864 381.92414,156.035297 379.305667,152.519225" id="Fill-218" fill="#7565C9"></path>
                        <path d="M114.946288,283.048481 L116.840255,294.537534" id="Stroke-220" stroke="#271C47" stroke-width="0.73424" stroke-linecap="round"></path>
                        <path d="M96.0556845,290.359696 C96.0556845,290.359696 101.636034,302.109864 110.532277,290.359696 C110.532277,290.359696 116.265108,299.031936 123.201856,290.359696" id="Stroke-222" stroke="#319DA8" stroke-width="0.98592" stroke-linecap="round"></path>
                        <path d="M118.539912,242.334391 C118.198362,241.17457 118.364701,239.915849 119.036713,238.915616 C119.948254,237.549005 121.054966,235.501336 120.779952,233.909953 C120.779952,233.909953 120.941856,232.433204 119.91055,231.149759 C119.134299,230.185489 117.905604,229.708973 116.676909,229.789891 C114.441305,229.933745 109.901344,230.895767 108.712571,236.207119 C108.521835,237.06125 108.033905,237.816483 107.368547,238.376164 C103.323169,241.770214 90.4218723,255.537471 101.469037,286.142365 C101.604327,286.524476 103.010451,290.413024 102.362835,294.12625 C102.362835,294.12625 101.664209,297.230345 99.3154944,298.617186 C98.858615,298.884664 99.0094296,299.594942 99.5306269,299.68485 L112.057105,301.84041 C112.494024,301.914584 112.846663,301.480775 112.682542,301.0627 C111.904073,299.053242 108.761364,295.056804 113.301325,287.473012 C116.867645,281.941385 125.359834,265.488108 118.539912,242.334391" id="Fill-224" fill="#7565C9"></path>
                        <polygon id="Fill-226" fill="#20115B" points="116.937355 235.003351 118.049862 229.61523 135.730858 221.42538 120.931143 233.910279"></polygon>
                        <path d="M99.3130864,281.011895 C99.3130864,281.011895 107.292352,280.31203 107.163547,261.56194 C107.163547,261.56194 107.616586,280.935383 115.413748,283.048481 C115.413748,283.048481 126.28447,267.829223 118.000957,240.552478 C118.000957,240.552478 120.721414,238.007309 120.363868,233.958892 C120.363868,233.958892 118.711607,239.95838 112.258018,239.071734 C112.258018,239.071734 110.607978,237.744016 110.705692,235.729934 C110.705692,235.729934 87.745039,246.824262 99.3130864,281.011895" id="Fill-228" fill="#A99BCE"></path>
                        <path d="M114.849188,229.781055 C114.849188,229.781055 110.540426,230.864971 110.675987,235.732152 C110.675987,235.732152 110.63219,237.72823 112.133792,239.181189 C112.133792,239.181189 110.133742,232.283115 114.849188,229.781055" id="Fill-230" fill="#20115B"></path>
                        <path d="M117.913924,229.959484 C117.913924,229.959484 112.738121,228.397282 111.826018,234.517782 C111.826018,234.517782 111.423046,237.624177 112.166161,239.076079 C112.166161,239.076079 117.939922,240.359156 120.069606,233.959531 L117.913924,229.959484 Z" id="Fill-232" fill="#DEDAEA"></path>
                        <path d="M115.373318,232.395075 C115.083063,232.683346 114.615313,232.683346 114.325058,232.395075 C114.034803,232.104715 114.034803,231.636798 114.325058,231.346438 C114.615313,231.056078 115.083063,231.056078 115.373318,231.346438 C115.663573,231.636798 115.663573,232.104715 115.373318,232.395075" id="Fill-234" fill="#20115B"></path>
                        <polyline id="Fill-236" fill="#20115B" points="209.405254 233.958892 206.728538 230.825514 210.904872 230.825514"></polyline>
                        <path d="M218.688515,261.114835 L217.738399,268.42605" id="Stroke-238" stroke="#271C47" stroke-width="0.73424" stroke-linecap="round"></path>
                        <path d="M227.610209,259.025916 L231.786543,267.381591" id="Stroke-240" stroke="#271C47" stroke-width="0.73424" stroke-linecap="round"></path>
                        <path d="M207.772622,264.248213 C207.772622,264.248213 213.352504,275.99838 222.250277,264.248213 C222.250277,264.248213 227.980351,272.920453 234.918794,264.248213" id="Stroke-242" stroke="#319DA8" stroke-width="0.98592" stroke-linecap="round"></path>
                        <path d="M212.075711,228.114741 C212.075711,228.114741 207.975778,230.123553 207.975778,234.927528 L207.975778,239.731504 C207.975778,239.731504 207.378378,243.267827 208.232439,246.413233 C209.086499,249.55638 212.204041,258.857022 219.890585,260.691842 L220.361867,269.470509 L223.052378,266.58722 L227.705458,268.596032 L225.399938,259.600441 C225.399938,259.600441 230.652631,255.058582 230.741134,248.550844 C230.825213,242.045366 226.880162,238.100051 226.880162,238.100051 C226.880162,238.100051 223.864399,234.48916 223.008126,232.276981 C222.156278,230.064802 216.458855,226.456171 212.075711,228.114741" id="Fill-244" fill="#9C9CEF"></path>
                        <path d="M208.571223,231.869973 C208.571223,231.869973 211.938632,233.047028 214.138852,232.177227 C216.341308,231.302908 217.161918,233.573427 217.161918,233.573427 C217.161918,233.573427 217.463777,235.624801 214.226056,236.542046 C210.988334,237.45929 208.875319,237.066185 207.795333,236.542046 C207.795333,236.542046 207.565025,233.392689 208.571223,231.869973" id="Fill-246" fill="#B9B9ED"></path>
                        <path d="M214.65522,233.958892 C214.65522,234.301475 214.377494,234.579301 214.037123,234.579301 C213.694664,234.579301 213.419026,234.301475 213.419026,233.958892 C213.419026,233.616309 213.694664,233.338483 214.037123,233.338483 C214.377494,233.338483 214.65522,233.616309 214.65522,233.958892" id="Fill-248" fill="#20115B"></path>
                        <path d="M209.700828,240.902357 C209.700828,240.902357 213.632383,237.985437 217.262565,244.263591 C220.890464,250.539523 223.433875,259.025916 223.433875,259.025916 C223.433875,259.025916 216.837902,258.681573 213.283064,256.644394 C209.730508,254.607216 207.570664,246.82506 207.787562,243.466048 C207.787562,243.466048 208.038707,241.533283 209.700828,240.902357" id="Fill-250" fill="#B9B9ED"></path>
                        <path d="M226.831196,237.09227 C226.831196,237.09227 224.965212,238.810553 224.965212,243.588606 C224.965212,248.366659 224.477958,259.025916 224.477958,259.025916 C224.477958,259.025916 229.905482,257.377998 231.498342,252.550009 C231.498342,252.550009 232.669499,245.738162 230.290041,242.104118 C227.908398,238.472344 226.831196,237.09227 226.831196,237.09227" id="Fill-252" fill="#B9B9ED"></path>
                        <path d="M277.602121,201.405227 C278.157622,202.601904 276.796101,204.58681 274.558851,205.836035 C272.319422,207.087648 270.053852,207.128254 269.498351,205.933966 C268.940672,204.73729 270.304371,202.752384 272.5438,201.503159 C274.781051,200.253934 277.044442,200.208551 277.602121,201.405227" id="Fill-254" fill="#CC99CC"></path>
                        <path d="M303.828306,254.848079 C296.684658,265.493098 288.350775,254.848079 288.350775,254.848079 C284.780073,263.480877 277.041308,254.848079 277.041308,254.848079 C270.939675,265.349833 264.838042,254.848079 264.838042,254.848079 C257.993075,263.765236 252.336096,254.848079 252.336096,254.848079 C243.55756,266.930089 238.051044,254.848079 238.051044,254.848079 L238.051044,267.381591 L303.828306,267.381591 L303.828306,254.848079 Z" id="Fill-256" fill="#2EAA7B"></path>
                        <path d="M238.051044,254.848079 C238.051044,254.848079 243.557372,266.598246 252.337854,254.848079 C252.337854,254.848079 257.992394,263.520319 264.839374,254.848079 C264.839374,254.848079 270.940798,265.061394 277.039977,254.848079 C277.039977,254.848079 284.780724,263.24377 288.351303,254.848079 C288.351303,254.848079 296.684901,265.200724 303.828306,254.848079" id="Stroke-258" stroke="#319DA8" stroke-width="0.98592" stroke-linecap="round"></path>
                        <path d="M306.350012,121.769508 C307.164072,122.583528 307.164072,123.906026 306.350012,124.724606 C305.535951,125.538626 304.211108,125.538626 303.394768,124.724606 C302.580708,123.906026 302.580708,122.583528 303.394768,121.769508 C304.211108,120.953208 305.535951,120.953208 306.350012,121.769508" id="Fill-260" fill="#A375FC"></path>
                        <path d="M306.350012,149.9682 C307.164072,150.7845 307.164072,152.106998 306.350012,152.923298 C305.535951,153.739598 304.211108,153.739598 303.394768,152.923298 C302.580708,152.106998 302.580708,150.7845 303.394768,149.9682 C304.211108,149.15418 305.535951,149.15418 306.350012,149.9682" id="Fill-262" fill="#A375FC"></path>
                    </g>
                </g>
            </g>
        </g>
    </g>
</svg>
