<svg width="222" height="160" viewBox="0 0 222 160" fill="none" xmlns="http://www.w3.org/2000/svg">
<path d="M16.5352 86.38C16.6646 86.3 16.8736 86.23 16.8935 86.12C17.0078 85.6498 17.0876 85.1719 17.1325 84.69C17.4136 81.504 17.9058 78.3403 18.6058 75.22C19.2479 71.9713 20.0991 68.7679 21.1543 65.63C22.1499 62.81 23.2051 60.03 24.33 57.27C25.1165 55.35 25.9926 53.46 26.9483 51.62C29.0298 47.5232 31.4298 43.5977 34.1259 39.88C35.43 38.12 36.7143 36.33 38.108 34.61C39.1035 33.32 40.2683 32.12 41.3832 30.9C42.4982 29.68 43.4539 28.58 44.5788 27.51C46.7291 25.45 48.9193 23.45 51.209 21.51C54.167 19.0546 57.2794 16.7933 60.527 14.74C62.372 13.5867 64.2569 12.49 66.1815 11.45C68.1062 10.41 70.0972 9.41 72.1546 8.45C75.2728 7.03351 78.4666 5.79161 81.7215 4.73C85.9223 3.342 90.2131 2.24608 94.5637 1.45C96.6443 1.06 98.7647 0.899996 100.865 0.609996C102.458 0.379996 104.071 0.339996 105.674 0.189996C108.932 -0.0149014 112.198 -0.054952 115.46 0.0699957C117.451 0.0699957 119.362 0.459996 121.313 0.599996C124.424 0.858999 127.514 1.33008 130.562 2.01C132.791 2.48 135.002 3.08 137.212 3.7C144.339 5.7087 151.195 8.58327 157.63 12.26C160.258 13.79 162.856 15.37 165.325 17.14C166.848 18.22 168.311 19.4 169.775 20.54C167.963 20.61 166.151 20.62 164.359 20.77C163.491 20.8333 162.641 21.0535 161.851 21.42C158.787 22.9466 156.561 25.7659 155.778 29.11C155.449 30.29 155.161 31.49 154.782 32.67C154.629 33.0269 154.432 33.3629 154.195 33.67C152.601 32.3285 150.715 31.383 148.69 30.91C146.548 30.4027 144.366 30.0881 142.169 29.97C139.81 29.8 137.46 29.58 135.101 29.44C133.11 29.31 131.119 29.16 129.128 29.2C127.048 29.1418 125.163 30.4265 124.449 32.39C124.158 33.1185 123.826 33.8297 123.454 34.52C122.659 36.099 121.072 37.1184 119.312 37.18C118.028 37.25 116.734 37.18 115.44 37.08C113.638 37 111.826 36.79 110.024 36.81C108.373 36.8391 106.822 37.6142 105.803 38.92C105.514 39.27 105.216 39.61 104.917 39.92C104.252 40.6908 103.319 41.1773 102.309 41.28C101.648 41.3616 100.983 41.405 100.318 41.41L89.5363 41.26C88.3025 41.2293 87.0737 41.4294 85.9126 41.85C84.7589 42.2395 83.8173 43.0917 83.3117 44.204C82.8062 45.3162 82.7819 46.5891 83.2447 47.72C83.6808 48.8732 84.429 49.8811 85.4049 50.63C86.7225 51.6525 88.3131 52.2582 89.9743 52.37C91.9654 52.57 94.046 52.61 96.0769 52.76C97.6264 52.8263 99.1715 52.9732 100.706 53.2C103.344 53.6064 105.658 55.191 106.998 57.51C107.416 58.2 107.834 58.9 108.222 59.62C109.79 62.522 112.537 64.5953 115.748 65.3C118.47 65.8957 121.259 66.1243 124.041 65.98C125.723 65.98 127.406 65.88 129.098 65.83C129.098 66.22 129.098 66.61 129.098 66.99C129.045 70.69 128.989 74.3867 128.929 78.08L128.869 81.68L125.455 81.16L122.11 74.77C121.041 76.3386 120.137 78.0142 119.412 79.77C119.299 80.0333 119.166 80.2875 119.014 80.53C118.905 80.3726 118.805 80.209 118.715 80.04C115.742 73.895 109.081 70.466 102.378 71.63C98.9707 72.2372 95.8743 74.0025 93.608 76.63C93.4387 76.8165 93.2592 76.9934 93.0704 77.16C91.2884 73.98 88.7598 72.16 85.1063 72.24C81.4527 72.32 79.0336 74.44 77.4607 77.73C75.9674 75.19 73.9167 73.73 71.0396 73.64C68.2753 73.6083 65.7325 75.1548 64.4792 77.63C62.2293 73.63 59.0138 71.27 54.524 70.98C50.0343 70.69 46.4404 72.63 43.7824 76.19C41.2652 74.6634 38.2135 74.3055 35.4139 75.2084C32.6142 76.1113 30.3403 78.1868 29.1782 80.9C28.918 80.9055 28.658 80.8854 28.4017 80.84C27.2907 80.6183 26.1414 80.6907 25.0667 81.05C22.2575 81.783 19.9979 83.8764 19.0439 86.63C18.9497 86.8752 18.8434 87.1155 18.7253 87.35L16.5352 86.38Z" fill="#F3F5F0"/>
<path d="M212.692 97.1399C212.911 97.2099 213.12 97.2899 213.339 97.3399C215.685 97.8628 217.726 99.3021 219.013 101.34C220.368 103.088 221.258 105.152 221.602 107.34C221.841 109.053 221.791 110.794 221.452 112.49C220.999 114.411 219.853 116.096 218.237 117.22C216.355 118.61 214.424 119.93 212.563 121.34C209.038 123.99 205.524 126.65 202.05 129.34C200.238 130.76 198.566 132.34 196.784 133.81C193.544 136.314 190.157 138.618 186.639 140.71C183.351 142.67 179.876 144.294 176.266 145.56C173.094 146.787 169.833 147.763 166.51 148.48C162.881 149.185 159.183 149.464 155.49 149.31C152.832 149.23 150.183 149.07 147.525 148.95C139.983 148.575 132.425 149.227 125.057 150.89C118.765 152.33 112.623 154.24 106.47 156.17C102.39 157.442 98.1899 158.29 93.9369 158.7C89.7148 159.15 85.4693 159.34 81.2241 159.27C76.561 159.177 71.9309 158.461 67.4561 157.14C64.0102 156.234 60.6253 155.108 57.3218 153.77C52.1376 151.504 47.431 148.267 43.4543 144.23C42.2923 143.031 41.2886 141.686 40.4677 140.23C37.5468 135.328 33.419 131.265 28.4817 128.43C26.9179 127.501 25.2179 126.826 23.4444 126.43C19.9369 125.635 16.5423 124.402 13.3399 122.76C11.2394 121.66 9.09901 120.66 7.04825 119.48C5.43194 118.577 3.97817 117.407 2.74762 116.02C1.07765 114.083 0.118492 111.631 0.0298655 109.07C-0.00995515 108.19 -0.00995515 107.31 0.0298655 106.43C0.0352247 105.31 0.470247 104.236 1.24439 103.43C2.95668 101.7 4.6391 99.9299 6.44099 98.2999C7.37618 97.5466 8.37555 96.8773 9.42753 96.2999C9.56725 96.2299 9.71965 96.1891 9.87552 96.1799L11.757 95.9399C11.9019 96.0136 12.0416 96.0971 12.1752 96.1899C13.2879 97.0607 14.6959 97.4592 16.0975 97.2999C16.645 97.2999 17.1926 97.2999 17.7401 97.2999H27.6952C27.755 97.5199 27.8346 97.7299 27.8744 97.9499C28.0704 99.4353 28.5433 100.87 29.2682 102.18C29.7858 103.04 30.403 103.83 30.9506 104.68C31.1763 104.971 31.3237 105.315 31.3787 105.68C31.5081 107.12 31.5678 108.58 31.6474 109.93C31.0999 110.6 30.5325 111.19 30.0845 111.85C29.5569 112.66 29.089 113.54 28.641 114.38C27.072 114.655 25.5889 115.296 24.3105 116.25C23.4263 116.839 22.8947 117.834 22.8947 118.9C22.8947 119.966 23.4263 120.961 24.3105 121.55C25.3181 122.317 26.4642 122.881 27.6853 123.21C31.4366 124.27 35.3692 124.519 39.2233 123.94C40.9414 123.742 42.6197 123.284 44.2009 122.58C45.155 122.18 45.9669 121.501 46.5304 120.63C46.826 120.547 47.1298 120.497 47.4363 120.48C48.2427 120.54 49.0391 120.67 49.8455 120.77L58.3173 121.83L66.8887 122.91C69.706 123.27 72.5333 123.61 75.3605 123.91L84.1211 125.02L92.5033 126.02L101.264 127.12L107.516 127.9C107.765 127.9 107.874 127.98 107.854 128.29C106.404 129.993 106.301 132.472 107.605 134.29C108.496 135.539 109.661 136.566 111.01 137.29C113.104 138.467 115.357 139.329 117.7 139.85C122.867 141.107 128.191 141.592 133.499 141.29C137.089 141.119 140.653 140.573 144.131 139.66C146.756 139.047 149.24 137.933 151.448 136.38C152.356 135.744 153.116 134.918 153.678 133.96C154.186 133.12 154.419 132.14 154.345 131.16C154.234 129.848 153.633 128.626 152.662 127.74C152.613 127.22 153.08 127.22 153.359 127.08C161.137 123.28 168.919 119.493 176.704 115.72C177.7 115.21 178.824 114.72 179.88 114.29C180.022 114.358 180.168 114.419 180.318 114.47C183.167 115.239 186.133 115.48 189.068 115.18C190.81 115.062 192.527 114.695 194.165 114.09C195.221 113.762 196.165 113.145 196.893 112.31C197.689 111.391 197.731 110.036 196.993 109.07C196.619 108.585 196.164 108.169 195.649 107.84C194.459 107.111 193.129 106.644 191.746 106.47L190.193 104.47C190.588 103.465 190.675 102.365 190.442 101.31C190.303 100.88 190.542 100.66 190.98 100.59C191.809 100.411 192.574 100.006 193.19 99.4199C194.016 98.6899 194.822 97.9399 195.639 97.1999H203.991H211.955C212.202 97.1985 212.448 97.1785 212.692 97.1399Z" fill="#2EBF8B"/>
<path d="M154.225 33.63C154.462 33.3229 154.66 32.9869 154.813 32.63C155.161 31.45 155.45 30.25 155.808 29.07C156.591 25.7259 158.817 22.9066 161.881 21.38C162.671 21.0135 163.521 20.7933 164.389 20.73C166.181 20.58 167.993 20.57 169.805 20.5C174.554 20.78 179.252 21.27 183.742 22.99C186.67 24.0491 189.372 25.6539 191.706 27.72C194.215 30.0824 196.112 33.0242 197.231 36.29C198.127 38.6889 198.716 41.1922 198.984 43.74C199.123 45.19 199.272 46.64 199.362 48.09C199.451 49.54 199.551 51.27 199.521 52.86C199.491 54.45 199.302 55.86 199.203 57.31C199.203 57.93 199.203 58.55 199.153 59.16C199.103 59.77 198.914 60.61 198.784 61.34C198.326 63.95 197.948 66.58 197.381 69.16C196.98 71.4689 196.113 73.6708 194.832 75.63C193.891 77.1933 191.966 77.8479 190.273 77.18C188.625 76.5103 186.904 76.037 185.146 75.77C182.528 75.43 180.168 75.77 178.177 77.84C177.182 78.84 176.186 79.84 175.191 80.84C174.168 82.0703 172.917 83.0891 171.507 83.84V95.09C171.456 95.1101 171.399 95.1101 171.348 95.09V63.84C171.328 63.6773 171.328 63.5127 171.348 63.35C171.397 63.1357 171.485 62.9323 171.607 62.75C171.975 62.22 172.403 61.75 172.772 61.2C174.754 58.3064 177.07 55.6581 179.671 53.31C180.764 52.3947 181.904 51.5369 183.085 50.74C184.272 49.9521 185.553 49.3171 186.898 48.85C187.275 48.7236 187.582 48.4432 187.743 48.0778C187.904 47.7124 187.905 47.2957 187.744 46.93C187.456 46.1647 186.607 45.7763 185.843 46.06L185.206 46.29C182.224 47.4948 179.5 49.2634 177.182 51.5C175.261 53.2476 173.508 55.1727 171.945 57.25C171.751 57.4593 171.542 57.6532 171.318 57.83V38.33C171.318 38.04 171.318 37.75 171.318 37.46C171.331 36.916 170.987 36.4279 170.472 36.26C169.924 36.0183 169.285 36.1285 168.849 36.54C168.454 36.9793 168.282 37.5765 168.381 38.16V70.16C166.201 69.86 164.15 69.58 162.12 69.28C161.605 69.2288 161.101 69.0972 160.626 68.89C159.347 68.2651 158.101 67.5742 156.893 66.82C155.574 66.0456 154.471 64.9482 153.688 63.63C152.752 61.89 151.945 60.07 151.079 58.29C150.392 56.88 149.735 55.47 149.019 54.08C148.873 53.7296 148.586 53.4573 148.23 53.3298C147.874 53.2023 147.481 53.2314 147.147 53.41C146.777 53.5512 146.482 53.8397 146.331 54.207C146.18 54.5744 146.187 54.988 146.351 55.35C146.42 55.53 146.52 55.7 146.599 55.88C147.396 57.55 148.202 59.22 148.989 60.88C149.108 61.14 149.208 61.4 149.367 61.76C149.039 61.76 148.81 61.76 148.6 61.69C147.874 61.54 147.157 61.36 146.42 61.23C145.675 61.1215 144.966 61.5872 144.766 62.3164C144.566 63.0456 144.938 63.8102 145.634 64.1C145.877 64.1865 146.127 64.2534 146.38 64.3C147.515 64.55 148.65 64.84 149.795 65C150.679 65.0331 151.478 65.5411 151.886 66.33C151.975 66.4638 152.082 66.5849 152.204 66.69C154.016 68.6081 156.179 70.1565 158.576 71.25C159.382 71.6557 160.239 71.9516 161.124 72.13C162.936 72.47 164.768 72.67 166.589 72.93C167.177 73.01 167.774 73.13 168.361 73.23V81.9C168.063 81.65 167.784 81.37 167.475 81.14C165.529 79.7391 163.389 78.6308 161.124 77.85C157.406 76.6425 153.602 75.7198 149.745 75.09C146.562 74.554 143.426 73.7648 140.368 72.73C136.897 71.6557 133.953 69.3155 132.115 66.17C131.954 65.8455 131.619 65.6458 131.259 65.66L131.687 65.34C131.358 64.71 131.03 64.1 130.691 63.48L129.307 58.58C129.103 56.5318 129.103 54.4682 129.307 52.42C129.397 52.33 129.526 52.26 129.566 52.16C129.875 51.33 130.164 50.5 130.462 49.67C131.121 48.5464 131.935 47.5228 132.881 46.63C134.42 45.3991 136.122 44.3894 137.939 43.63C140.019 42.74 142.13 41.92 144.22 41.06C146.528 40.2036 148.74 39.1076 150.82 37.79C152.11 36.9698 153.194 35.8608 153.986 34.55C154.185 34.24 154.394 33.98 154.225 33.63Z" fill="#C7B8FB"/>
<path d="M27.6555 97.24H17.7502C17.2026 97.24 16.6551 97.24 16.1076 97.24C14.7059 97.3992 13.298 97.0008 12.1852 96.13C12.0517 96.0372 11.912 95.9536 11.7671 95.88C11.3813 95.3645 11.0256 94.8269 10.7019 94.27C9.92948 92.7802 9.87985 91.017 10.5672 89.4858C11.2546 87.9546 12.6031 86.8247 14.226 86.42C14.9902 86.3045 15.7637 86.2643 16.5356 86.3L18.7258 87.24C18.8439 87.0055 18.9502 86.7652 19.0443 86.52C20.0067 83.778 22.2648 81.6971 25.0672 80.97C26.1419 80.6106 27.2912 80.5383 28.4022 80.76C28.6584 80.8054 28.9185 80.8255 29.1787 80.82C30.5506 81.2196 31.8251 81.9006 32.9218 82.82C33.33 83.18 33.7083 83.57 34.1563 84C35.0007 82.2382 36.8052 81.1476 38.7503 81.2236C40.6954 81.2996 42.4103 82.5276 43.1159 84.35C43.8345 82.9619 45.2426 82.0712 46.7993 82.02C48.3477 82.023 49.7806 82.8433 50.5723 84.18C51.6984 82.0085 53.8721 80.5858 56.3046 80.4284C58.737 80.271 61.0745 81.4016 62.4687 83.41C64.2847 82.3249 66.5462 82.3249 68.3622 83.41C70.1699 84.4711 71.3201 86.3791 71.4184 88.48C72.2428 88.6551 73.057 88.8754 73.8574 89.14C74.8936 89.637 75.6841 90.5358 76.0476 91.63C76.0476 91.82 76.0476 92.01 76.1172 92.21C76.4497 93.936 75.695 95.6903 74.2158 96.63C73.3447 97.1371 72.3436 97.3737 71.3388 97.31H48.641H39.323C40.6669 94.92 42.1602 91.17 42.0606 90.31C40.5097 91.0444 39.1242 92.0891 37.989 93.38C36.9185 94.5992 35.9961 95.9419 35.2414 97.38H32.3544C31.4385 94.97 29.7859 93.08 28.0139 90.98C27.6129 92.4956 27.4384 94.0628 27.4963 95.63C27.556 96.15 27.6058 96.7 27.6555 97.24Z" fill="#8989BE"/>
<path d="M171.508 95.09V83.81C172.918 83.0591 174.168 82.0403 175.191 80.81C176.187 79.81 177.182 78.81 178.178 77.81C180.109 75.81 182.508 75.4 185.146 75.74C186.904 76.007 188.625 76.4803 190.273 77.15C191.959 77.8234 193.882 77.1821 194.833 75.63C196.093 73.6924 196.949 71.5188 197.351 69.24C197.919 66.66 198.347 64.03 198.755 61.42C198.884 60.69 199.004 59.97 199.123 59.24C199.12 59.8229 199.231 60.4008 199.452 60.94C201.156 65.3237 202.53 69.8297 203.563 74.42C203.991 76.27 204.24 78.16 204.559 80.03C204.559 80.28 204.828 80.49 204.967 80.73L202.976 81.85L202.379 82.22L201.801 82.65C201.569 82.7594 201.349 82.8935 201.144 83.05C199.372 84.57 197.531 86.05 195.868 87.66C193.877 89.66 192.075 91.75 190.184 93.81C190.134 93.64 190.004 93.45 190.034 93.3C190.429 91.4645 190.466 89.5697 190.144 87.72C190.056 87.4082 189.936 87.1066 189.785 86.82C189.506 86.9905 189.251 87.1992 189.029 87.44C188.446 88.33 187.917 89.2551 187.446 90.21C186.769 91.71 186.918 93.38 186.66 94.97L174.176 95.1C173.31 95.11 172.404 95.09 171.508 95.09Z" fill="#F3F5F0"/>
<path d="M203.005 81.85L204.996 80.73L206.828 80.3H208.282C208.56 80.3 208.799 80.3 208.849 80.67L208.292 81.47L207.475 82.47V82.8C206.958 82.86 206.719 83.25 206.48 83.64V83.97C205.962 84.03 205.733 84.42 205.484 84.81V85.14L204.688 85.75C204.564 85.7814 204.465 85.8748 204.427 85.997C204.388 86.1193 204.415 86.2528 204.499 86.35C203.961 86.35 203.742 86.78 203.503 87.17C203.508 87.2032 203.508 87.2368 203.503 87.27L202.508 88.27L202.318 88.83L201.542 89.22L201.721 87.88L201.93 86.52L202.299 84.52C202.428 83.87 202.557 83.22 202.677 82.52L203.005 81.85Z" fill="#5F45B9"/>
<path d="M202.448 88.88L202.637 88.32C203.167 88.2735 203.587 87.8519 203.633 87.32C203.637 87.2868 203.637 87.2532 203.633 87.22C204.141 87.15 204.37 86.76 204.628 86.4L205.206 86.18L205.445 86H205.554L206.729 85.61L207.495 85.21C207.899 85.3666 208.355 85.2941 208.69 85.02H209.058L209.676 85.26C209.002 86.8099 208.081 88.2387 206.948 89.49L206.161 89.9L205.166 90.1L204.17 90.5C203.77 90.3451 203.318 90.4177 202.986 90.69C202.647 90.62 202.438 91.18 202.05 90.88L201.054 91.1L200.656 90.88L201.443 90.1L201.861 89.53L202.448 88.88Z" fill="#5F45B9"/>
<path d="M212.692 97.14C212.447 97.2059 212.197 97.2527 211.945 97.28H204.628V96.93L206.002 95.76C206.44 95.98 206.559 95.55 206.788 95.37L207.784 94.37H213.518C213.249 95.32 212.97 96.23 212.692 97.14Z" fill="#7564C8"/>
<path d="M206.032 95.75L204.658 96.92L204.419 96.71L204.598 95.36C204.718 94.78 204.847 94.19 204.966 93.6V93.05C205.056 92.65 205.385 92.26 204.966 91.86C205.365 91.43 205.773 91.02 206.141 90.57C206.211 90.48 206.141 90.26 206.141 90.1C206.141 89.94 206.141 89.97 206.141 89.91L206.928 89.5H207.853H209.237L209.068 90.45V90.65C208.879 91.04 208.59 91.42 208.879 91.89V92.04C208.401 92.37 208.311 92.64 208.491 93.26L208.311 93.84L207.804 94.38L206.808 95.38C206.38 95.13 206.261 95.55 206.032 95.75Z" fill="#7564C8"/>
<path d="M207.476 85.2L206.719 85.6C206.285 85.3818 205.756 85.5557 205.534 85.99H205.395C205.057 85.64 205.485 85.45 205.564 85.18C205.564 85.07 205.564 84.96 205.564 84.85C206.072 84.78 206.311 84.39 206.56 84.01C206.56 83.9 206.56 83.79 206.56 83.68C207.068 83.61 207.307 83.22 207.555 82.84C207.555 82.73 207.555 82.62 207.555 82.51C208.057 82.4078 208.449 82.014 208.551 81.51L209.148 80.96L208.919 80.71C208.919 80.37 208.631 80.34 208.352 80.34H206.898C207.733 80.07 208.632 80.07 209.467 80.34C210.192 80.4967 210.708 81.1445 210.701 81.89C210.755 82.8027 210.547 83.7116 210.104 84.51L208.541 84.91L207.476 85.2Z" fill="#6050A0"/>
<path d="M212.622 90.84C213.08 90.84 213.18 91.22 213.309 91.52C213.675 92.3097 213.78 93.1962 213.608 94.05C212.075 94.05 210.541 94.12 208.998 94.13C208.889 94.13 208.779 93.89 208.67 93.77C208.69 93.7085 208.72 93.651 208.76 93.6C209.327 93.82 209.417 93.31 209.636 93.01L210.512 92.23C211.059 92.4 211.169 92.04 211.228 91.63L212.622 90.84Z" fill="#7564C8"/>
<path d="M208.76 93.63C208.72 93.6811 208.69 93.7386 208.67 93.8L208.292 93.87L208.471 93.29L208.859 92.07V91.92C209.039 91.52 209.347 91.15 209.049 90.68V90.48C209.686 90.33 209.417 89.74 209.586 89.36C210.428 89.3473 211.253 89.599 211.946 90.08C212.203 90.3085 212.424 90.5749 212.603 90.87L211.209 91.66L210.492 92.26L209.616 93.04L208.76 93.63Z" fill="#7564C8"/>
<path d="M208.292 93.84L208.67 93.77C208.78 93.89 208.889 94.13 208.999 94.13C210.542 94.13 212.075 94.13 213.608 94.05L213.518 94.4H207.784L208.292 93.84Z" fill="#7FB4A7"/>
<path d="M208.48 84.83L210.043 84.43L209.884 84.84C209.546 84.62 209.287 84.84 209.038 85H208.67L208.48 84.83Z" fill="#9D7DB7"/>
<path d="M209.605 89.33C209.436 89.71 209.705 90.33 209.068 90.45C209.118 90.13 209.177 89.81 209.237 89.5C209.266 89.4433 209.286 89.3827 209.297 89.32L209.605 89.33Z" fill="#7AA6AB"/>
<path d="M209.297 89.32C209.286 89.3827 209.266 89.4433 209.237 89.5H207.854L209.297 89.32Z" fill="#7166AD"/>
<path d="M209.039 85C209.287 84.8 209.546 84.62 209.885 84.84L209.656 85.24L209.039 85Z" fill="#6050A0"/>
<path fill-rule="evenodd" clip-rule="evenodd" d="M119.024 80.52C119.176 80.2775 119.309 80.0234 119.422 79.76C120.147 78.0042 121.051 76.3286 122.12 74.76L125.465 81.15C125.515 81.5191 125.569 81.887 125.623 82.2546L125.623 82.2546C125.728 82.9726 125.834 83.6891 125.913 84.41C126.156 85.9406 126.216 87.495 126.092 89.04C125.968 89.906 125.929 90.7768 125.891 91.6491L125.891 91.6492L125.891 91.6492C125.874 92.036 125.857 92.423 125.833 92.81C124.907 95.9 124.589 99 125.066 100.13C125.126 100.111 125.183 100.085 125.236 100.05C125.32 99.9515 125.393 99.8443 125.455 99.73C126.421 98.1123 127.68 96.6911 129.168 95.54C129.676 95.12 130.173 94.6892 130.67 94.2584C131.001 93.9712 131.332 93.684 131.667 93.4L135.022 90.84C135.13 90.7705 135.238 90.7048 135.345 90.6396C135.485 90.5546 135.623 90.4705 135.758 90.38C139.318 87.9496 143.198 86.031 147.286 84.68C147.726 84.5398 148.18 84.4389 148.721 84.3188C148.952 84.2675 149.199 84.2128 149.466 84.15C149.196 84.6388 148.946 85.1097 148.705 85.5649C148.2 86.516 147.732 87.3981 147.187 88.23C145.988 90.1638 144.601 91.9727 143.045 93.63C142.975 93.7005 142.964 93.8255 142.954 93.9492C142.949 94.0011 142.945 94.0527 142.936 94.1C142.555 94.2409 142.188 94.4184 141.841 94.63C139.501 96.4705 136.939 98.006 134.215 99.2C134.163 99.2 134.124 99.2506 134.084 99.3025C134.063 99.3305 134.041 99.359 134.016 99.38C134.313 99.4221 134.608 99.4558 134.902 99.4893L134.902 99.4893L134.902 99.4893C135.515 99.5592 136.118 99.6281 136.704 99.77C138.227 100.16 139.75 100.62 141.244 101.12C141.82 101.324 142.361 101.617 142.846 101.99C144.258 103.031 145.427 104.369 146.271 105.91C146.41 106.47 146.54 107.02 146.669 107.57C146.802 109.323 146.596 111.086 146.062 112.76L145.066 113.94L144.688 114.35L142.289 116.8C143.615 117.628 144.593 118.916 145.036 120.42C145.396 121.434 145.652 122.485 145.907 123.529C145.948 123.699 145.99 123.87 146.032 124.04C146.097 124.28 146.159 124.53 146.22 124.775C146.281 125.02 146.341 125.26 146.4 125.48V126.26C146.434 126.691 146.475 127.123 146.517 127.555C146.587 128.289 146.658 129.024 146.689 129.76C146.873 131.341 146.873 132.939 146.689 134.52C146.618 135.181 146.165 135.738 145.534 135.94C144.812 136.221 144.07 136.448 143.314 136.62C142.717 136.745 142.11 136.838 141.502 136.93C140.895 137.023 140.288 137.115 139.691 137.24C137.559 137.65 135.389 137.828 133.22 137.77C130.644 137.77 128.068 137.615 125.492 137.46L125.492 137.46C124.932 137.426 124.372 137.392 123.812 137.36C121.552 137.191 119.312 136.809 117.122 136.22C116.485 136.06 116.047 135.73 116.057 135.03C116.057 133.77 116.057 132.5 116.216 131.25C116.592 128.972 117.138 126.726 117.849 124.53L118.446 122.97C118.744 122.531 119.037 122.086 119.33 121.641L119.33 121.641C120.652 119.632 121.985 117.607 123.892 115.97L122.538 115.21C122.147 114.576 121.598 114.056 120.945 113.7C120.9 113.585 120.858 113.468 120.816 113.35L120.815 113.35C120.773 113.232 120.731 113.115 120.686 113C120.264 112.097 119.888 111.172 119.561 110.23C119.22 109.259 119.22 108.201 119.561 107.23C119.91 106.37 120.238 105.49 120.557 104.63C120.865 103.98 120.796 103.63 120.198 103C120.109 102.501 119.982 102.01 119.82 101.53C119.093 99.8269 118.566 98.0451 118.247 96.22C118.153 95.6301 118.055 95.0377 117.958 94.4453L117.958 94.445L117.958 94.4448C117.861 93.8524 117.764 93.26 117.67 92.67V91.41C117.476 88.2626 117.812 85.1048 118.665 82.07C118.703 81.9129 118.742 81.7584 118.781 81.6059L118.781 81.6059L118.781 81.6059C118.876 81.2341 118.967 80.8746 119.024 80.52ZM141.92 110.52C141.92 110.29 141.92 109.92 141.841 109.81C141.614 109.652 141.328 109.608 141.064 109.69L141.92 110.52ZM137.418 102.736C137.594 102.564 137.832 102.472 138.078 102.48L138.138 104.39C137.604 104.352 137.18 103.926 137.142 103.39C137.142 103.143 137.241 102.907 137.418 102.736Z" fill="#D6CCF8"/>
<path d="M129.357 52.4C129.153 54.4482 129.153 56.5118 129.357 58.56C128.975 58.6146 128.588 58.6347 128.202 58.62C126.514 58.4383 124.943 57.6668 123.762 56.44C121.771 54.33 119.84 52.2 117.879 50.07C117.71 49.8364 117.516 49.6218 117.302 49.43C117.089 49.3213 116.837 49.3213 116.625 49.43C116.462 49.6157 116.402 49.8708 116.465 50.11C116.612 50.3956 116.804 50.6555 117.033 50.88C118.606 52.61 120.189 54.32 121.761 56.05C121.898 56.2237 122.021 56.4076 122.13 56.6L118.476 57.5C117.939 57.64 117.75 57.96 117.879 58.41C118.008 58.86 118.347 58.84 118.735 58.74C119.989 58.43 121.264 58.19 122.508 57.83C122.967 57.6676 123.478 57.7843 123.822 58.13C124.686 58.8656 125.709 59.3894 126.809 59.66C127.555 59.85 128.312 59.97 129.108 60.13V65.83C127.416 65.83 125.734 65.95 124.051 65.98C121.269 66.1243 118.48 65.8957 115.759 65.3C112.545 64.6002 109.795 62.5305 108.222 59.63C107.834 58.91 107.416 58.21 106.998 57.52C105.658 55.2011 103.345 53.6164 100.706 53.21C99.1622 52.9788 97.6071 52.8286 96.0473 52.76C94.0563 52.61 91.9757 52.57 89.9448 52.37C88.2939 52.2523 86.7145 51.647 85.4053 50.63C84.4168 49.8825 83.6578 48.8706 83.2151 47.71C82.7524 46.5791 82.7767 45.3062 83.2822 44.194C83.7877 43.0817 84.7293 42.2295 85.8831 41.84C87.0441 41.4194 88.2729 41.2193 89.5068 41.25L100.288 41.4C100.954 41.395 101.619 41.3516 102.279 41.27C103.289 41.1673 104.223 40.6808 104.888 39.91C105.186 39.57 105.485 39.23 105.774 38.91C106.792 37.6042 108.343 36.8291 109.995 36.8C111.796 36.8 113.608 36.99 115.41 37.07C116.704 37.13 117.998 37.24 119.283 37.17C121.043 37.1084 122.63 36.089 123.424 34.51C123.796 33.8197 124.129 33.1086 124.42 32.38C125.134 30.4165 127.018 29.1318 129.098 29.19C131.089 29.19 133.081 29.3 135.072 29.43C137.431 29.57 139.78 29.79 142.14 29.96C144.337 30.0781 146.519 30.3927 148.66 30.9C150.704 31.3553 152.611 32.2909 154.225 33.63C154.395 33.98 154.225 34.24 154.026 34.52C153.234 35.8309 152.15 36.9398 150.86 37.76C148.78 39.0776 146.567 40.1736 144.26 41.03C142.17 41.89 140.059 42.71 137.978 43.6C136.147 44.3654 134.431 45.3853 132.881 46.63C131.942 47.5112 131.131 48.5212 130.472 49.63C130.413 48.57 130.333 47.5 130.303 46.43C130.273 45.36 130.303 44.29 130.303 43.22C130.331 42.1588 130.294 41.0968 130.194 40.04C129.497 40.14 129.497 40.57 129.487 41.04C129.487 42.54 129.487 44.04 129.487 45.52C129.447 47.79 129.397 50.09 129.357 52.4Z" fill="#6953D1"/>
<path d="M119.024 80.52C118.905 81.02 118.795 81.52 118.646 82.02C117.793 85.0548 117.456 88.2126 117.65 91.36C117.65 91.78 117.65 92.2 117.65 92.62C117.476 92.5362 117.292 92.4756 117.103 92.44C115.022 92.3 112.941 92.16 110.851 92.04C109.507 91.96 108.153 91.91 106.809 91.85C105.296 91.78 103.822 91.7 102.279 91.65C99.482 91.57 96.6747 91.52 93.8773 91.45C93.6483 91.45 93.4293 91.38 93.2103 91.37C92.9913 91.36 92.7723 91.42 92.5632 91.44C92.5938 90.8917 92.5637 90.3417 92.4736 89.8C92.3022 89.2955 92.4952 88.7385 92.9415 88.45C93.7711 87.7833 94.5874 87.0933 95.3905 86.38C95.7222 86.1226 96.0054 85.8076 96.2267 85.45C97.0331 83.97 97.7797 82.45 98.5462 80.96C98.5462 80.96 98.5462 80.83 98.5462 80.74C97.8075 80.6233 97.0524 80.7951 96.4358 81.22C93.8143 82.5573 91.8275 84.8839 90.9106 87.69L88.9196 87.42C89.2369 85.359 88.7906 83.2526 87.6653 81.5C86.7187 79.6669 85.2111 78.1877 83.3646 77.28C83.4599 78.5976 83.7974 79.886 84.3601 81.08C85.1146 82.9388 86.0272 84.7288 87.0879 86.43C87.2823 86.7719 87.4392 87.1341 87.5558 87.51C85.7439 88.72 85.6245 88.86 85.1765 90.29L83.6334 91.63C83.3378 91.5412 83.0345 91.481 82.7275 91.45C81.0053 91.45 79.293 91.45 77.5807 91.45C77.0664 91.4837 76.5546 91.5472 76.0476 91.64C75.6818 90.5496 74.8916 89.6548 73.8575 89.16C73.0571 88.8954 72.2428 88.6751 71.4184 88.5C71.3201 86.3992 70.1699 84.4911 68.3622 83.43C66.5462 82.3449 64.2847 82.3449 62.4688 83.43C61.0745 81.4216 58.737 80.291 56.3046 80.4484C53.8722 80.6059 51.6984 82.0285 50.5723 84.2C49.7806 82.8633 48.3477 82.043 46.7993 82.04C45.2426 82.0912 43.8345 82.9819 43.1159 84.37C42.4103 82.5477 40.6955 81.3196 38.7504 81.2436C36.8053 81.1676 35.0007 82.2582 34.1563 84.02C33.7083 83.59 33.33 83.2 32.9218 82.84C31.8252 81.9206 30.5506 81.2396 29.1787 80.84C30.3526 78.1372 32.6315 76.0754 35.4298 75.1844C38.2282 74.2934 41.2734 74.66 43.7829 76.19C46.441 72.63 49.9651 70.63 54.5046 70.94C59.0442 71.25 62.2 73.63 64.4797 77.63C65.7605 75.1936 68.2978 73.6891 71.0401 73.74C73.9172 73.79 76.0177 75.29 77.4612 77.83C79.0341 74.54 81.4433 72.47 85.1068 72.34C88.7703 72.21 91.2889 74.08 93.0709 77.26C93.2597 77.0934 93.4392 76.9165 93.6085 76.73C95.8748 74.1025 98.9712 72.3372 102.379 71.73C109.077 70.5563 115.741 73.9726 118.725 80.11C118.818 80.2517 118.918 80.3886 119.024 80.52Z" fill="#37DD9E"/>
<path d="M125.833 92.82C125.913 91.56 125.913 90.3 126.092 89.05C126.217 87.5051 126.157 85.9506 125.913 84.42C125.793 83.33 125.614 82.25 125.465 81.16L128.879 81.68L131 82.84C131.338 83.13 131.687 83.42 131.995 83.73C133.928 85.5869 135.009 88.1641 134.982 90.85L131.627 93.41C131.466 93.319 131.291 93.2549 131.109 93.22L126.719 93.01C126.42 92.9653 126.124 92.9018 125.833 92.82Z" fill="#37DD9E"/>
<path d="M130.999 82.84L128.899 81.68L128.959 78.08C129.018 74.3934 129.075 70.6967 129.128 66.99C129.128 66.61 129.128 66.22 129.128 65.83V60.09C128.331 59.93 127.575 59.81 126.828 59.62C125.728 59.3494 124.706 58.8256 123.842 58.09C123.498 57.7443 122.987 57.6277 122.528 57.79C121.283 58.15 120.009 58.39 118.755 58.7C118.366 58.8 118.048 58.84 117.898 58.37C117.749 57.9 117.958 57.6 118.496 57.46L122.149 56.56C122.041 56.3676 121.917 56.1837 121.781 56.01C120.208 54.28 118.625 52.57 117.052 50.84C116.823 50.6156 116.632 50.3556 116.485 50.07C116.421 49.8309 116.481 49.5757 116.644 49.39C116.857 49.2814 117.108 49.2814 117.321 49.39C117.536 49.5818 117.73 49.7964 117.898 50.03C119.889 52.16 121.811 54.29 123.782 56.4C124.942 57.6348 126.495 58.4236 128.172 58.63C128.558 58.6447 128.945 58.6247 129.327 58.57C129.785 60.2 130.243 61.84 130.711 63.47V65.68C130.711 66.04 130.711 66.4 130.711 66.75C130.77 70.59 130.837 74.4267 130.91 78.26C130.94 79.78 130.97 81.31 130.999 82.84Z" fill="#A46C67"/>
<path d="M35.2411 97.3C35.9958 95.8619 36.9182 94.5192 37.9887 93.3C39.1239 92.0091 40.5094 90.9644 42.0604 90.23C42.1599 91.07 40.6666 94.82 39.3227 97.23C38.2575 98.73 37.2022 100.23 36.0972 101.76C36.5054 101.83 36.8837 101.89 37.262 101.97C38.8262 102.165 40.2233 103.048 41.0748 104.38C41.4314 105.008 41.8376 105.607 42.2893 106.17C43.5138 107.71 42.9264 110.92 41.1246 111.7C40.6666 111.91 40.2286 112.17 39.7607 112.41L40.6666 114.09C40.8558 114.56 41.0549 115.02 41.244 115.48C41.244 115.7 41.244 115.92 41.3535 116.14C41.5825 117.05 41.8513 117.95 42.0803 118.87C42.3789 120.06 42.14 120.52 40.9752 120.95C40.7053 121.054 40.4249 121.127 40.139 121.17C37.406 121.476 34.6529 121.563 31.9061 121.43C30.582 121.383 29.2727 121.134 28.0236 120.69C27.0977 120.37 27.0281 120.13 27.2371 119.19C27.5358 118.03 27.7647 116.86 28.0236 115.69L28.601 114.27C29.0788 113.43 29.5169 112.55 30.0445 111.74C30.4925 111.08 31.04 110.49 31.6074 109.82C31.5278 108.47 31.4681 107.01 31.3386 105.57C31.2837 105.205 31.1363 104.861 30.9106 104.57C30.363 103.72 29.7458 102.93 29.2282 102.07C28.5033 100.76 28.0304 99.3254 27.8344 97.84C27.8344 97.62 27.715 97.41 27.6552 97.19C27.6055 96.65 27.5557 96.1 27.496 95.55C27.4351 93.9728 27.6096 92.3953 28.0136 90.87C29.7856 92.97 31.4382 94.87 32.3541 97.27C32.7423 98.84 33.1405 100.42 33.5586 102.1L35.2411 97.3Z" fill="#D6CCF8"/>
<path d="M178.994 101.03C180.099 100.25 181.164 99.39 182.329 98.72C183.469 98.0076 184.835 97.7574 186.152 98.02C186.394 98.0458 186.637 98.0458 186.879 98.02L186.69 94.96C186.948 93.37 186.799 91.7 187.476 90.2C187.947 89.2451 188.476 88.32 189.059 87.43C189.281 87.1892 189.536 86.9805 189.815 86.81C189.966 87.0966 190.086 87.3982 190.174 87.71C190.496 89.5597 190.459 91.4545 190.064 93.29C190.064 93.44 190.164 93.63 190.214 93.8C189.602 94.8494 189.26 96.0349 189.218 97.25L188.979 97.85C189.577 97.99 189.766 97.61 189.975 97.31C191.827 95.7286 193.896 94.4219 196.117 93.43C196.535 93.26 196.923 93.03 197.332 92.83C197.78 92.83 198.327 92.54 198.676 93.19C198.428 93.6631 198.152 94.1206 197.849 94.56C197.242 95.35 196.575 96.11 195.938 96.87L195.579 97.24C194.763 97.98 193.957 98.73 193.131 99.46C192.515 100.046 191.75 100.451 190.92 100.63C190.482 100.7 190.244 100.92 190.383 101.35C190.615 102.405 190.529 103.505 190.134 104.51L191.687 106.51L192.284 107.9C192.384 108.27 192.473 108.65 192.583 109.02C192.98 110.148 193.13 111.349 193.021 112.54C190.582 113.85 182.897 113.6 180.507 112.13C180.497 112.01 180.497 111.89 180.507 111.77C180.716 110.65 180.945 109.55 181.154 108.43C181.154 108.22 181.463 107.93 181.005 107.82C181.286 107.54 181.548 107.243 181.792 106.93C181.861 106.83 181.792 106.62 181.792 106.47L182.419 106.03V105.81C182.031 105.71 181.632 105.62 181.254 105.5C180.623 105.405 180.017 105.184 179.472 104.85C178.586 104.128 178.166 102.976 178.377 101.85" fill="#D6CCF8"/>
<path d="M107.994 128.37C107.994 128.06 107.815 128.01 107.566 127.98L101.314 127.2L92.5534 126.1L84.1712 125.1L75.4106 123.99C72.5833 123.64 69.7561 123.3 66.9388 122.99L58.3674 121.91L49.8955 120.85C49.0892 120.75 48.2928 120.62 47.4864 120.56C47.1799 120.577 46.8761 120.627 46.5805 120.71L45.585 120.07C45.9509 119.562 46.0947 118.927 45.9832 118.31H46.1823C46.5805 118.92 46.8692 118.96 47.1778 118.46C47.3134 118.755 47.6112 118.94 47.9344 118.93C49.8259 119.16 51.7173 119.42 53.6088 119.66L63.8129 120.91C67.1777 121.33 70.5425 121.78 73.9074 122.2L85.5549 123.64C89.4275 124.12 93.31 124.64 97.1925 125.13C100.746 125.58 104.3 126.05 107.864 126.45C108.601 126.699 109.395 126.72 110.144 126.51L110.791 127.01C110.496 127.202 110.214 127.413 109.945 127.64C109.875 127.71 109.945 127.94 109.945 128.09L109.527 128.48C109.079 128.153 108.484 128.11 107.994 128.37Z" fill="#F3F5F0"/>
<path d="M107.993 128.37C108.467 128.069 109.072 128.069 109.546 128.37L108.999 129.04C107.648 130.431 107.648 132.649 108.999 134.04C109.618 134.747 110.328 135.369 111.109 135.89C112.641 136.897 114.321 137.656 116.087 138.14C120.464 139.453 125.007 140.127 129.576 140.14C134.373 140.277 139.165 139.735 143.812 138.53C146.119 137.99 148.312 137.045 150.293 135.74C151.111 135.158 151.839 134.457 152.453 133.66C153.433 132.411 153.433 130.649 152.453 129.4C152.184 129 151.846 128.64 151.547 128.27C151.816 127.77 152.164 127.49 152.742 127.79C153.712 128.676 154.313 129.898 154.424 131.21C154.499 132.19 154.265 133.17 153.757 134.01C153.196 134.968 152.435 135.794 151.527 136.43C149.319 137.983 146.835 139.097 144.21 139.71C140.732 140.623 137.169 141.169 133.578 141.34C128.27 141.642 122.946 141.157 117.779 139.9C115.398 139.387 113.107 138.52 110.98 137.33C109.63 136.606 108.465 135.579 107.575 134.33C106.335 132.483 106.508 130.024 107.993 128.37Z" fill="white"/>
<path d="M152.663 127.78C152.085 127.48 151.737 127.78 151.468 128.26L149.865 127.04L150.94 126.36C151.249 126.24 151.558 126.15 151.846 126.01L158.118 123.01L177.56 113.57L178.178 113.3C178.576 113.5 178.924 113.65 179.243 113.85C179.466 114.013 179.679 114.19 179.88 114.38C178.825 114.85 177.75 115.3 176.704 115.81C168.919 119.59 161.138 123.377 153.359 127.17C153.081 127.26 152.613 127.26 152.663 127.78Z" fill="#F3F6F1"/>
<path fill-rule="evenodd" clip-rule="evenodd" d="M60.1096 133.61V128.14C63.1957 129.18 65.0772 128.7 66.2918 126.53C66.0153 126.406 65.7406 126.279 65.4663 126.152C64.8322 125.857 64.2004 125.564 63.5541 125.32C62.8121 124.959 61.9467 124.959 61.2047 125.32C60.677 125.667 60.1746 126.051 59.7015 126.47C59.6213 126.419 59.5477 126.359 59.4824 126.29C58.5467 125.172 56.9452 124.893 55.6895 125.63C54.372 126.293 53.1901 127.199 52.2052 128.3C52.204 128.301 52.2027 128.302 52.2014 128.303C52.1095 128.385 51.901 128.571 52.2052 128.67C53.2069 129.194 54.312 129.488 55.4406 129.53C56.9574 129.737 58.4847 129.232 59.582 128.16V130.47V132.71C59.4835 133.442 59.5516 134.188 59.7811 134.89C59.8394 134.82 59.8991 134.764 59.9513 134.715C60.0416 134.63 60.1096 134.566 60.1096 134.49C60.1346 134.197 60.1346 133.903 60.1096 133.61ZM62.6581 126.96C61.721 126.465 60.5684 126.68 59.8707 127.48C59.2045 127.278 58.5152 127.164 57.8199 127.14C57.1822 127.288 56.5687 127.528 55.9981 127.85C56.4262 126.64 57.7403 126.34 59.7313 126.94C61.1649 126.01 61.8816 125.96 63.0364 126.77C62.9923 126.794 62.9474 126.82 62.9041 126.845C62.8008 126.905 62.7072 126.96 62.6581 126.96Z" fill="#01876E"/>
<path d="M45.5151 119.97L46.5107 120.61C45.9074 121.463 45.0603 122.112 44.0816 122.47C42.5005 123.174 40.8222 123.632 39.104 123.83C35.2499 124.409 31.3173 124.16 27.566 123.1C26.3449 122.771 25.1988 122.207 24.1912 121.44C23.307 120.851 22.7754 119.856 22.7754 118.79C22.7754 117.724 23.307 116.729 24.1912 116.14C25.4696 115.186 26.9527 114.545 28.5217 114.27C28.3226 114.74 28.1334 115.27 27.9443 115.69C27.0676 116.013 26.2157 116.401 25.3958 116.85C23.5441 118.02 23.5541 119.52 25.3958 120.75C26.4075 121.394 27.5222 121.857 28.6909 122.12C31.9054 122.905 35.237 123.085 38.5167 122.65C40.2591 122.475 41.9628 122.022 43.5639 121.31C44.3182 121.039 44.9902 120.578 45.5151 119.97Z" fill="white"/>
<path d="M179.879 114.33C179.679 114.14 179.466 113.963 179.242 113.8C178.924 113.6 178.575 113.45 178.177 113.25L177.56 113.52C177.55 113.47 177.55 113.42 177.56 113.37L178.555 112.7C179.262 112.91 179.969 113.14 180.686 113.32C183.796 114.146 187.044 114.313 190.223 113.81C191.399 113.606 192.559 113.322 193.697 112.96C194.281 112.765 194.831 112.482 195.33 112.12C196.594 111.22 196.604 110.12 195.33 109.2C194.994 108.945 194.63 108.73 194.245 108.56C193.617 108.31 192.96 108.12 192.323 107.9L191.726 106.51C193.109 106.684 194.439 107.151 195.628 107.88C196.144 108.209 196.599 108.625 196.972 109.11C197.711 110.076 197.669 111.431 196.873 112.35C196.145 113.185 195.201 113.802 194.145 114.13C192.506 114.735 190.79 115.102 189.048 115.22C186.112 115.52 183.147 115.279 180.297 114.51C180.155 114.458 180.015 114.398 179.879 114.33Z" fill="white"/>
<path fill-rule="evenodd" clip-rule="evenodd" d="M15.1116 105.52C17.0827 106.03 18.0185 105.94 18.8348 104.71C17.4012 103.57 16.0374 103.03 14.6636 104.44C14.1979 103.878 13.4712 103.604 12.7522 103.72C11.5455 103.91 10.7493 104.686 9.87241 105.539C9.7365 105.672 9.59865 105.806 9.45703 105.94C11.2987 106.53 12.9314 106.83 14.6437 105.69V109.81H14.8229C14.8574 109.282 14.8963 108.729 14.9357 108.17C14.9986 107.277 15.0626 106.368 15.1116 105.52ZM15.3306 104.45C15.8405 104.142 16.5009 104.281 16.8438 104.77H16.8139C16.1553 104.616 15.4629 104.735 14.8925 105.1C14.776 105.156 14.6407 105.156 14.5242 105.1C13.7622 104.783 12.8861 104.943 12.2843 105.51C12.6526 104.72 13.2101 104.4 13.8771 104.59C14.3604 104.744 14.8853 104.693 15.3306 104.45Z" fill="#00886F"/>
<path fill-rule="evenodd" clip-rule="evenodd" d="M178.854 125C177.042 123.62 175.828 123.53 174.693 124.84C174.271 124.264 173.563 123.974 172.861 124.09C172.573 124.115 172.291 124.186 172.025 124.3C171.067 124.824 170.238 125.555 169.596 126.44L172.144 126.83C173.047 126.847 173.934 126.593 174.693 126.1V130.17H174.912C175.044 129.444 175.027 128.707 175.011 127.968C174.997 127.312 174.982 126.654 175.071 126C177.022 126.52 178.097 126.24 178.854 125ZM175.419 124.73C175.921 124.475 176.533 124.623 176.863 125.08C176.725 125.076 176.588 125.065 176.453 125.054C175.911 125.012 175.389 124.97 174.912 125.37C174.802 125.441 174.667 125.459 174.543 125.42C173.784 125.106 172.913 125.257 172.304 125.81C172.612 125.09 173.16 124.73 173.767 124.89C174.317 125.058 174.911 125 175.419 124.73Z" fill="#00886F"/>
<path d="M195.599 97.25L195.957 96.88C196.086 96.96 196.226 97.1 196.365 97.1C197.689 97.1 199.013 97.1 200.347 97.1C200.59 97.0533 200.806 96.9179 200.955 96.72C202.288 95.1 203.603 93.46 204.937 91.83C205.006 92.23 204.489 92.62 204.937 93.02V93.63C204.638 93.63 204.578 93.83 204.558 94.07C204.508 94.51 204.449 94.95 204.389 95.39L204.19 96.76L203.961 97.31L195.599 97.25Z" fill="#7564C8"/>
<path d="M207.883 101.43C206.818 102.34 205.753 101.96 204.578 101.62C204.993 100.708 205.872 100.097 206.868 100.03C207.359 99.9485 207.85 100.179 208.102 100.61H207.883C207.366 100.61 206.788 100.46 206.34 101.09L207.684 100.8C207.883 100.8 208.182 101.02 208.271 100.94C208.7 100.56 209.187 100.68 209.685 100.71C209.227 100.2 208.69 100.44 208.242 100.58C208.503 100.013 209.138 99.7233 209.735 99.9C210.217 100.062 210.689 100.253 211.149 100.47C210.611 101.56 209.884 101.81 208.66 101.37C208.563 101.246 208.412 101.179 208.255 101.191C208.099 101.203 207.96 101.293 207.883 101.43Z" fill="#00886F"/>
<path d="M207.884 101.43C207.971 101.3 208.116 101.222 208.272 101.222C208.428 101.222 208.573 101.3 208.66 101.43C208.252 101.49 208.282 101.8 208.282 102.09V104.37H208.073C208.073 103.7 208.073 103.03 208.073 102.37C208.042 102.051 207.978 101.736 207.884 101.43Z" fill="#008B70"/>
<path d="M208.242 100.63C208.73 100.49 209.238 100.25 209.686 100.76C209.188 100.76 208.69 100.61 208.272 100.99C208.182 101.07 207.884 100.9 207.685 100.85L207.884 100.66H208.103L208.242 100.63Z" fill="#057763"/>
<path d="M203.991 97.28L204.22 96.73H204.419L204.658 96.94V97.29L203.991 97.28Z" fill="#7CB3A6"/>
<path fill-rule="evenodd" clip-rule="evenodd" d="M130.956 80.086C130.978 81.004 130.999 81.922 130.999 82.84C131.054 82.887 131.109 82.9339 131.164 82.9809C131.45 83.2242 131.736 83.4686 131.995 83.72C133.927 85.5769 135.008 88.1541 134.982 90.84C135.09 90.7705 135.198 90.7048 135.305 90.6396C135.445 90.5547 135.583 90.4705 135.718 90.38C139.278 87.9496 143.158 86.031 147.246 84.68C147.686 84.5398 148.14 84.4389 148.681 84.3188C148.912 84.2675 149.159 84.2128 149.426 84.15C149.156 84.6388 148.906 85.1098 148.664 85.5649C148.16 86.516 147.692 87.3982 147.147 88.23C145.947 90.1534 144.559 91.9522 143.005 93.6C142.896 93.7 142.896 93.91 142.896 94.07C143.442 94.1146 143.985 94.16 144.527 94.2052C145.928 94.3224 147.323 94.439 148.759 94.54C149.666 94.607 150.568 94.656 151.472 94.7051C151.918 94.7294 152.364 94.7536 152.811 94.78L154.165 94.59C152.464 93.7873 150.93 92.6675 149.645 91.29C149.836 91.2657 150.012 91.2395 150.178 91.2149C150.557 91.1585 150.883 91.11 151.208 91.11C156.012 90.8956 160.765 92.166 164.827 94.75C164.983 94.8648 165.133 94.9884 165.275 95.12H165.484C165.361 94.9772 165.239 94.8315 165.117 94.6857C164.846 94.3616 164.575 94.0365 164.28 93.74C161.592 91.173 159.508 88.0371 158.177 84.56C157.573 83.0739 157.259 81.4851 157.251 79.88C157.457 80.0165 157.653 80.1669 157.839 80.33C158.834 81.39 159.83 82.39 160.825 83.39C162.356 85.1762 163.583 87.2033 164.459 89.39C164.641 89.7818 164.812 90.1775 164.983 90.5748C165.082 90.8062 165.182 91.0381 165.285 91.27L165.474 90.65C165.299 88.9371 165.43 87.2064 165.862 85.54C166.119 84.7747 166.453 84.0376 166.858 83.34C166.93 84.5695 167.277 85.7127 167.623 86.8515C167.854 87.6115 168.084 88.3696 168.232 89.15C168.287 88.9984 168.324 88.8406 168.341 88.68V81.91C168.227 81.814 168.115 81.7136 168.003 81.6133C167.824 81.4524 167.645 81.2917 167.455 81.15C165.509 79.7491 163.369 78.6408 161.104 77.86C157.386 76.6525 153.582 75.7298 149.725 75.1C146.542 74.564 143.406 73.7748 140.347 72.74C136.877 71.6657 133.933 69.3255 132.095 66.18C131.934 65.8555 131.599 65.6558 131.238 65.67H130.721V66.74L130.92 78.25C130.928 78.862 130.942 79.474 130.956 80.086ZM167.286 82.99L167.067 82.84L167.465 82.33L167.605 82.41L167.286 82.99Z" fill="#F3F5F0"/>
<path d="M142.936 94.08C144.927 94.24 146.849 94.41 148.8 94.55C150.154 94.65 151.498 94.71 152.852 94.79L154.843 94.94L163.185 95.15L163.394 94.96L165.385 95.13H165.594H166.53H166.938H168.332H171.418C171.469 95.15 171.526 95.15 171.577 95.13C172.473 95.13 173.379 95.13 174.275 95.13L186.759 95C186.819 96 186.879 97 186.948 98.06C186.707 98.0858 186.463 98.0858 186.221 98.06C184.905 97.7973 183.538 98.0476 182.399 98.76C181.234 99.43 180.169 100.29 179.064 101.07C178.556 101.07 178.347 101.33 178.456 101.84C178.245 102.966 178.666 104.118 179.552 104.84C180.097 105.174 180.702 105.394 181.333 105.49C181.712 105.61 182.11 105.7 182.498 105.8V106.02L181.871 106.46C180.521 106.596 179.214 107.008 178.028 107.67C177.454 108.066 176.918 108.515 176.426 109.01C176.251 109.085 176.067 109.136 175.878 109.16C174.076 108.97 172.274 108.76 170.482 108.56L160.846 107.47L152.882 106.56L146.321 105.87C145.477 104.329 144.308 102.991 142.897 101.95C142.411 101.577 141.87 101.284 141.294 101.08C139.801 100.58 138.307 100.08 136.754 99.73C135.888 99.52 134.982 99.47 134.066 99.34C134.136 99.28 134.186 99.19 134.266 99.16C136.97 97.9748 139.515 96.4528 141.841 94.63C142.188 94.4114 142.555 94.2272 142.936 94.08V94.08Z" fill="#2EBF8B"/>
<path d="M171.348 95.09H168.262C168.328 94.76 168.371 94.4259 168.391 94.09C168.391 92.86 168.391 91.63 168.391 90.39C168.391 89.98 168.312 89.56 168.272 89.15C168.327 88.9983 168.364 88.8405 168.381 88.68C168.381 86.4333 168.381 84.1766 168.381 81.91V73.21C167.794 73.11 167.197 72.99 166.609 72.91C164.788 72.65 162.956 72.45 161.144 72.11C160.259 71.9316 159.402 71.6356 158.595 71.23C156.199 70.1365 154.036 68.5881 152.224 66.67C152.102 66.5648 151.995 66.4438 151.906 66.31C151.498 65.521 150.699 65.0131 149.815 64.98C148.67 64.82 147.535 64.53 146.4 64.28C146.147 64.2333 145.897 64.1664 145.654 64.08C144.958 63.7902 144.586 63.0256 144.786 62.2964C144.986 61.5671 145.695 61.1014 146.44 61.21C147.177 61.34 147.894 61.52 148.62 61.67C148.829 61.67 149.058 61.67 149.387 61.74C149.228 61.38 149.128 61.12 149.009 60.86C148.222 59.19 147.416 57.52 146.619 55.86C146.54 55.68 146.44 55.51 146.371 55.33C146.207 54.968 146.2 54.5544 146.351 54.187C146.502 53.8196 146.797 53.5312 147.167 53.39C147.501 53.2114 147.894 53.1823 148.25 53.3098C148.606 53.4373 148.892 53.7096 149.039 54.06C149.755 55.45 150.412 56.86 151.099 58.27C151.965 60.05 152.772 61.87 153.708 63.61C154.496 64.9306 155.606 66.0283 156.933 66.8C158.141 67.5541 159.387 68.2451 160.666 68.87C161.141 69.0771 161.645 69.2087 162.159 69.26C164.15 69.56 166.241 69.84 168.421 70.14V38.14C168.322 37.5565 168.494 36.9593 168.889 36.52C169.325 36.1085 169.964 35.9983 170.512 36.24C171.027 36.4079 171.371 36.896 171.358 37.44C171.358 37.73 171.358 38.02 171.358 38.31V57.83C171.582 57.6532 171.791 57.4592 171.985 57.25C173.547 55.1727 175.301 53.2476 177.222 51.5C179.54 49.2634 182.263 47.4947 185.245 46.29L185.883 46.06C186.647 45.7763 187.496 46.1647 187.784 46.93C187.945 47.2956 187.944 47.7123 187.783 48.0778C187.622 48.4432 187.315 48.7235 186.938 48.85C185.593 49.317 184.312 49.952 183.125 50.74C181.93 51.5357 180.777 52.3935 179.671 53.31C177.063 55.6569 174.74 58.3053 172.752 61.2C172.383 61.73 171.955 62.2 171.587 62.75C171.465 62.9323 171.377 63.1357 171.328 63.35C171.308 63.5127 171.308 63.6773 171.328 63.84L171.348 95.09Z" fill="#A48581"/>
<path d="M129.357 52.4C129.357 50.09 129.447 47.79 129.477 45.49C129.477 44 129.477 42.49 129.477 41.01C129.477 40.59 129.477 40.16 130.184 40.01C130.284 41.0668 130.321 42.1288 130.293 43.19C130.293 44.26 130.293 45.33 130.293 46.4C130.293 47.47 130.403 48.54 130.462 49.6C130.164 50.43 129.875 51.26 129.566 52.09C129.576 52.24 129.447 52.31 129.357 52.4Z" fill="#A46C67"/>
<path d="M131.259 65.63H130.741V63.42C131.06 64.04 131.388 64.65 131.737 65.28L131.259 65.63Z" fill="#7063A8"/>
<path fill-rule="evenodd" clip-rule="evenodd" d="M39.7612 112.41L40.6671 114.09L43.8727 115.03L44.7388 114.89L46.3615 114.32L48.4222 113.52L49.4675 113.17L49.9951 112.94L51.6078 112.37L53.6785 111.57L54.674 111.22L55.2016 110.98L56.8243 110.41L58.885 109.61L59.8806 109.26L60.4082 109.03L61.4037 108.66L62.4988 108.25L63.4943 107.9L64.002 107.66L64.9975 107.31L65.5152 107.08L67.1379 106.52L67.6456 106.29L68.6411 105.94L69.1488 105.71L70.7715 105.11L71.767 104.75L72.8521 104.33L73.8974 103.98L74.4051 103.74L76.0378 103.15L77.0333 102.79L77.6206 102.39C76.6251 100.73 76.9238 99.49 78.6162 98.49C79.7732 97.9053 81.0173 97.5135 82.2996 97.33C82.6872 97.2592 83.0399 97.2235 83.3965 97.1874C83.5436 97.1725 83.6914 97.1575 83.8426 97.14C83.9708 96.9585 84.0991 96.7762 84.2276 96.5934C84.538 96.152 84.8498 95.7085 85.1667 95.27C83.3449 94.14 83.0064 93.31 83.6535 91.64C83.3579 91.5513 83.0545 91.491 82.7476 91.46H77.6007C77.0865 91.4938 76.5746 91.5572 76.0676 91.65C76.1373 91.84 76.1373 92.03 76.1373 92.23V92.23C76.457 93.9538 75.6951 95.6988 74.216 96.63C73.353 97.1067 72.371 97.3221 71.3887 97.25H48.691H39.3729C38.4784 98.5349 37.5908 99.7705 36.6749 101.046C36.5002 101.289 36.3245 101.533 36.1475 101.78C36.2284 101.794 36.3082 101.807 36.3871 101.821C36.7057 101.875 37.009 101.926 37.3122 101.99C38.8582 102.199 40.2346 103.08 41.0753 104.4C41.4328 105.021 41.8389 105.613 42.2898 106.17C43.5143 107.7 42.9269 110.92 41.125 111.7C40.838 111.832 40.5587 111.983 40.275 112.137C40.1062 112.228 39.9358 112.32 39.7612 112.41ZM81.8018 93.9L81.9611 93.84L82.2398 94.58L82.0507 94.65L81.8018 93.9Z" fill="#2EBF8B"/>
<path d="M35.2415 97.3L33.5591 102.15C33.1409 100.47 32.7427 98.89 32.3545 97.32L35.2415 97.3Z" fill="#3BB88A"/>
<path d="M189.247 97.26C189.289 96.0449 189.631 94.8594 190.243 93.81C192.134 91.75 193.946 89.63 195.927 87.66C197.589 86.02 199.431 84.57 201.203 83.05C201.407 82.8935 201.628 82.7594 201.86 82.65C202.059 82.74 202.428 82.33 202.477 82.87C202.527 83.41 202.328 83.68 202.268 84.08C202.253 84.2563 202.253 84.4337 202.268 84.61C201.875 85.1963 201.734 85.918 201.88 86.61C201.793 86.8828 201.72 87.1598 201.661 87.44C201.636 87.6158 201.636 87.7942 201.661 87.97C201.502 88.69 201.353 89.4 201.203 90.11L200.496 90.92L199.859 91.68L199.322 92.08C198.885 92.5143 198.282 92.7368 197.669 92.69C197.57 92.69 197.46 92.82 197.361 92.88C196.952 93.08 196.564 93.31 196.146 93.48C193.925 94.472 191.856 95.7786 190.004 97.36L189.247 97.26Z" fill="#5F45B9"/>
<path d="M202.448 82.87C202.448 82.33 202.03 82.74 201.831 82.65L202.408 82.22L202.637 82.66L202.448 82.87Z" fill="#5F45B9"/>
<path d="M202.637 82.63L202.408 82.19L203.005 81.82C202.936 82.09 202.876 82.36 202.806 82.63H202.637Z" fill="#9B7FB9"/>
<path d="M201.881 86.57C201.735 85.878 201.875 85.1563 202.269 84.57H202.429C202.309 85.23 202.18 85.88 202.06 86.57H201.881Z" fill="#997AB6"/>
<path d="M201.234 90.07C201.383 89.36 201.532 88.65 201.692 87.93H201.851L201.672 89.27L201.881 89.51L201.463 90.08L201.234 90.07Z" fill="#997AB6"/>
<path d="M202.428 84.63H202.269C202.253 84.4537 202.253 84.2763 202.269 84.1C202.328 83.7 202.408 83.29 202.478 82.89L202.667 82.68H202.836C202.687 83.31 202.567 83.96 202.428 84.63Z" fill="#997AB6"/>
<path d="M201.851 87.93H201.692C201.667 87.7542 201.667 87.5758 201.692 87.4C201.751 87.1198 201.824 86.8428 201.911 86.57H202.09L201.851 87.93Z" fill="#997AB6"/>
<path d="M208.54 81.49C208.439 81.9939 208.047 82.3878 207.545 82.49L208.361 81.49H208.54Z" fill="#9073B2"/>
<path d="M205.554 85.17C205.475 85.44 205.046 85.63 205.385 85.98L205.146 86.16L204.758 85.78L205.554 85.17Z" fill="#9173B2"/>
<path d="M203.613 87.29C203.566 87.8218 203.147 88.2435 202.617 88.29L203.613 87.29Z" fill="#9173B2"/>
<path d="M208.541 81.49H208.352L208.909 80.69L209.138 80.94L208.541 81.49Z" fill="#9073B2"/>
<path d="M206.549 84C206.31 84.38 206.071 84.77 205.554 84.84C205.783 84.45 206.012 84.06 206.549 84Z" fill="#9073B2"/>
<path d="M207.545 82.83C207.306 83.21 207.067 83.6 206.55 83.67C206.749 83.28 206.988 82.89 207.545 82.83Z" fill="#9073B2"/>
<path d="M204.559 86.37C204.3 86.73 204.071 87.12 203.563 87.19C203.832 86.8 204.051 86.4 204.559 86.37Z" fill="#9073B2"/>
<path d="M204.768 85.78L205.156 86.16L204.579 86.38C204.496 86.2828 204.468 86.1493 204.507 86.0271C204.545 85.9049 204.644 85.8114 204.768 85.78Z" fill="#9677B4"/>
<path d="M201.881 89.51L201.672 89.27L202.449 88.88L201.881 89.51Z" fill="#9174B3"/>
<path d="M197.391 92.84C197.491 92.78 197.6 92.64 197.7 92.65C198.313 92.6969 198.916 92.4743 199.352 92.04C199.472 92.04 199.641 92.17 199.701 92.12C199.861 91.984 200.005 91.8297 200.129 91.66L201.075 91.43C201.363 91.17 201.971 91.43 202.07 90.86C202.458 91.16 202.667 90.6 203.006 90.67C203.405 90.8315 203.861 90.7585 204.191 90.48L205.186 90.08H206.182C206.182 90.24 206.251 90.46 206.182 90.55C205.813 91 205.405 91.41 205.007 91.84C203.693 93.47 202.379 95.11 201.025 96.73C200.876 96.9279 200.66 97.0633 200.418 97.11C199.084 97.11 197.76 97.11 196.436 97.11C196.296 97.11 196.157 96.97 196.027 96.89C196.664 96.13 197.331 95.37 197.939 94.58C198.242 94.1406 198.518 93.6831 198.765 93.21C198.357 92.55 197.839 92.87 197.391 92.84Z" fill="#5F45B9"/>
<path d="M201.074 91.43L200.129 91.66H199.89L200.527 90.9H200.676L201.074 91.12V91.43Z" fill="#9A7AB6"/>
<path d="M208.481 84.83L208.67 85.01C208.335 85.2841 207.879 85.3566 207.476 85.2L208.481 84.83Z" fill="#8F72B2"/>
<path d="M205.554 85.99C205.775 85.5557 206.304 85.3817 206.738 85.6L205.554 85.99Z" fill="#8F72B2"/>
<path d="M204.191 90.48C203.861 90.7585 203.405 90.8315 203.006 90.67C203.338 90.3977 203.79 90.3251 204.191 90.48Z" fill="#9173B2"/>
<path d="M206.131 90.07H205.136L206.131 89.87C206.141 89.94 206.131 90.01 206.131 90.07Z" fill="#8F73B2"/>
<path d="M200.676 90.86H200.527L201.234 90.05H201.463L200.676 90.86Z" fill="#9173B2"/>
<path d="M201.074 91.43V91.08L202.07 90.86C201.97 91.47 201.363 91.17 201.074 91.43Z" fill="#8F73B2"/>
<path d="M206.032 95.75C206.261 95.55 206.381 95.13 206.819 95.36C206.55 95.54 206.47 95.97 206.032 95.75Z" fill="#79A7AA"/>
<path d="M204.419 95.36C204.479 94.92 204.539 94.48 204.589 94.04C204.589 93.8 204.668 93.59 204.967 93.6C204.847 94.19 204.718 94.78 204.598 95.36H204.419Z" fill="#7CB2A6"/>
<path d="M209.048 90.63C209.347 91.1 209.048 91.47 208.859 91.87C208.54 91.42 208.859 91.04 209.048 90.63Z" fill="#7AA6AA"/>
<path d="M208.86 92.04L208.471 93.26C208.292 92.63 208.382 92.37 208.86 92.04Z" fill="#7AA6AB"/>
<path d="M204.977 93.05C204.529 92.65 205.046 92.26 204.977 91.86C205.395 92.26 205.066 92.63 204.977 93.05Z" fill="#7BB0A6"/>
<path d="M204.42 95.36H204.559L204.38 96.71H204.181C204.28 96.27 204.35 95.81 204.42 95.36Z" fill="#7CB2A6"/>
<path d="M208.76 93.63L209.636 93.04C209.417 93.31 209.327 93.82 208.76 93.63Z" fill="#7AA8AA"/>
<path d="M210.532 92.23L211.249 91.63C211.169 92.04 211.06 92.4 210.532 92.23Z" fill="#79A7AA"/>
<path d="M92.5628 91.44C92.7718 91.44 92.9908 91.37 93.2099 91.37C93.4289 91.37 93.6479 91.44 93.8769 91.45C96.6743 91.52 99.4816 91.57 102.279 91.65C103.792 91.65 105.266 91.78 106.809 91.85C108.153 91.91 109.506 91.96 110.85 92.04C112.941 92.16 115.022 92.3 117.102 92.44C117.292 92.4756 117.476 92.5361 117.65 92.62C117.839 93.8 118.038 94.99 118.227 96.17C118.546 97.9951 119.073 99.7769 119.8 101.48C119.962 101.96 120.089 102.451 120.178 102.95C119.89 102.95 119.611 102.83 119.322 102.8C117.331 102.58 115.27 102.37 113.25 102.14L103.135 101C100.985 100.75 98.8345 100.49 96.6842 100.27C96.3653 100.248 96.0764 100.073 95.9077 99.8C95.7086 99.52 95.5593 99.15 95.2905 98.98C94.6135 98.56 93.8868 98.24 93.18 97.88C93.0614 96.6247 92.6815 95.4084 92.065 94.31C91.9712 94.1468 91.9394 93.955 91.9754 93.77C92.1247 92.99 92.3537 92.22 92.5628 91.44Z" fill="#2EBF8B"/>
<path d="M177.53 113.37C177.521 113.42 177.521 113.47 177.53 113.52L158.088 122.96L151.816 125.96C151.527 126.1 151.219 126.19 150.91 126.31C149.437 125.247 147.789 124.451 146.042 123.96C145.713 122.75 145.435 121.52 145.046 120.34C144.603 118.836 143.625 117.548 142.299 116.72L144.698 114.27C145.315 114.27 145.923 114.27 146.54 114.27L161.263 113.69C162.159 113.69 163.055 113.58 163.951 113.53H164.041H164.121C166.54 113.46 168.959 113.39 171.378 113.3C172.373 113.3 173.299 113.19 174.265 113.13H177.351L177.53 113.37Z" fill="#2EBF8B"/>
<path d="M61.274 108.63L62.3691 108.22L63.3646 107.87L63.8723 107.63L64.8678 107.28L65.3855 107.05C65.9772 107.074 66.5564 106.875 67.0082 106.49L67.5159 106.26L68.5114 105.91L69.0191 105.68C69.6228 105.739 70.2201 105.518 70.6418 105.08L71.6373 104.72L72.7224 104.3C73.1081 104.379 73.5062 104.245 73.7677 103.95L74.2754 103.71C74.8808 103.774 75.4823 103.557 75.9081 103.12L76.9036 102.76L77.491 102.36L78.3471 102.23C78.7453 102.49 79.1734 102.73 79.5517 103.03C79.6413 103.1 79.5517 103.35 79.6313 103.52C79.3227 103.59 79.0141 103.64 78.7154 103.74L76.3959 104.53C76.0205 104.471 75.6421 104.616 75.4004 104.91L74.8827 105.12C74.5113 105.06 74.1355 105.196 73.8872 105.48L73.3695 105.7C72.9964 105.643 72.6202 105.783 72.374 106.07L71.2889 106.49C70.8958 106.403 70.4876 106.546 70.2337 106.86L69.7359 107.07C69.1318 107.025 68.5362 107.235 68.0933 107.65L66.0425 108.44C65.6497 108.358 65.2439 108.5 64.9873 108.81L64.4796 109.03C64.1078 108.966 63.7301 109.103 63.4841 109.39L62.9664 109.61C62.3692 109.563 61.781 109.778 61.3537 110.2C60.5713 110.235 59.8195 110.515 59.2033 111L58.2078 111.34L57.6802 111.58C57.0835 111.537 56.4969 111.752 56.0675 112.17L55.0719 112.52L53.9669 112.96L52.9714 113.31L52.4338 113.54C51.8413 113.513 51.2621 113.722 50.8211 114.12L48.7504 114.91L47.7549 115.26L47.2273 115.5L46.2318 115.85L45.8734 116.16C46.2815 116.64 46.7594 116.49 47.1875 116.48L61.2541 115.92L71.2093 115.53L82.4685 115.11C85.6442 114.99 88.81 114.85 91.9857 114.74C96.0573 114.58 100.139 114.44 104.211 114.29C104.41 114.29 104.609 114.23 104.947 114.18C104.589 113.87 104.36 113.65 104.111 113.44C100.388 110.42 96.658 107.4 92.9215 104.38C92.6556 104.204 92.372 104.056 92.0753 103.94L91.8363 103.26C92.135 103.12 92.4436 102.98 92.7423 102.82C92.802 102.82 92.802 102.66 92.8219 102.57L93.25 102.41C93.4286 102.654 93.6321 102.879 93.8572 103.08C94.0337 103.152 94.2245 103.183 94.4147 103.17C94.5705 103.432 94.7578 103.674 94.9722 103.89L105.405 112.36C106.054 113.038 106.811 113.603 107.645 114.03C108.568 114.186 109.51 114.186 110.433 114.03L121.015 113.65C121.667 114.006 122.216 114.526 122.608 115.16C120.965 115.24 119.323 115.33 117.68 115.4C115.291 115.5 112.901 115.57 110.512 115.65L109.746 115.71C109.837 115.846 109.94 115.973 110.054 116.09L118.516 122.91L117.919 124.47H117.551C117.337 123.98 116.859 123.66 116.326 123.65C116.235 123.432 116.111 123.229 115.958 123.05C113.16 120.77 110.353 118.51 107.565 116.24C107.248 115.96 106.832 115.82 106.411 115.85C105.286 115.92 104.151 115.97 103.016 116.01L87.8941 116.63L77.3118 117.05L61.9709 117.63C57.501 117.79 53.0112 117.94 48.5712 118.11C48.0834 118.11 47.5757 118.21 47.1277 118.27C46.7893 117.97 46.4508 118.27 46.1322 118.27H45.9331L43.9421 116.5C44.191 115.69 43.3647 115.94 43.0859 115.61L43.5937 115.07L44.4597 114.93C45.0543 114.962 45.6374 114.757 46.0824 114.36L48.1432 113.56L49.1884 113.21L49.7161 112.98C50.3069 113.007 50.8852 112.803 51.3288 112.41L53.3995 111.61L54.395 111.26L54.9226 111.02C55.5178 111.057 56.1026 110.851 56.5453 110.45L58.606 109.65L59.6015 109.3L60.1292 109.07L61.274 108.63Z" fill="#F3F5F0"/>
<path d="M120.935 113.68L110.353 114.06C109.43 114.215 108.488 114.215 107.565 114.06C106.731 113.633 105.974 113.068 105.325 112.39L94.8924 103.92C94.678 103.704 94.4908 103.462 94.335 103.2C94.9151 103.006 95.4086 102.613 95.7287 102.09C96.0252 102.016 96.3291 101.975 96.6346 101.97C99.2893 102.25 101.944 102.54 104.599 102.84C107.167 103.13 109.736 103.44 112.304 103.72C115.032 104.03 117.769 104.31 120.497 104.61C120.169 105.47 119.84 106.35 119.502 107.21C119.16 108.181 119.16 109.239 119.502 110.21C119.828 111.152 120.204 112.077 120.627 112.98C120.766 113.21 120.846 113.45 120.935 113.68Z" fill="#2EBF8B"/>
<path d="M117.471 124.47H117.839C117.128 126.666 116.582 128.912 116.206 131.19C116.087 132.44 116.077 133.71 116.047 134.97C116.047 135.67 116.475 135.97 117.112 136.16C119.302 136.749 121.542 137.131 123.802 137.3C126.938 137.48 130.074 137.69 133.21 137.71C135.379 137.768 137.549 137.59 139.681 137.18C140.875 136.93 142.11 136.81 143.304 136.56C144.06 136.388 144.802 136.161 145.524 135.88C146.155 135.678 146.608 135.121 146.679 134.46C146.863 132.879 146.863 131.281 146.679 129.7C146.679 128.53 146.48 127.36 146.39 126.2C146.39 125.94 146.39 125.68 146.39 125.42L149.815 127.01L151.418 128.23C151.716 128.6 152.055 128.96 152.324 129.36C153.304 130.609 153.304 132.371 152.324 133.62C151.71 134.417 150.982 135.118 150.163 135.7C148.183 137.005 145.989 137.95 143.683 138.49C139.036 139.695 134.244 140.237 129.447 140.1C124.878 140.087 120.335 139.413 115.957 138.1C114.191 137.616 112.512 136.857 110.98 135.85C110.198 135.329 109.489 134.707 108.869 134C107.519 132.609 107.519 130.391 108.869 129L109.417 128.33L109.835 127.94C111.419 126.779 113.167 125.862 115.022 125.22L117.471 124.47Z" fill="#443D32"/>
<path d="M146.042 112.73C146.576 111.056 146.782 109.293 146.649 107.54L148.391 107.73L158.217 108.84L167.655 109.91C170.352 110.22 173.05 110.51 175.748 110.81V111.47C175.604 111.504 175.458 111.528 175.31 111.54L169.397 111.76L154.374 112.34L146.998 112.6C146.779 112.625 146.563 112.665 146.351 112.72L146.042 112.73Z" fill="#2EBF8B"/>
<path d="M118.437 122.94L109.975 116.12C109.861 116.003 109.757 115.876 109.666 115.74L110.433 115.68C112.822 115.6 115.211 115.53 117.6 115.43C119.243 115.36 120.885 115.27 122.528 115.19L123.882 115.95C121.552 117.96 120.079 120.52 118.437 122.94Z" fill="#2EBF8B"/>
<path d="M175.748 110.81C173.05 110.51 170.352 110.22 167.655 109.91L158.217 108.84L148.391 107.73L146.649 107.54C146.52 106.99 146.39 106.44 146.251 105.88L152.811 106.57L160.776 107.48L170.412 108.57C172.204 108.77 174.006 108.98 175.808 109.17C175.996 109.146 176.181 109.095 176.355 109.02C176.465 109.18 176.674 109.33 176.664 109.48C176.627 109.889 176.54 110.292 176.405 110.68C176.405 110.76 176.116 110.76 175.967 110.79L175.748 110.81Z" fill="#F3F6F1"/>
<path d="M120.537 104.63C117.81 104.33 115.072 104.05 112.344 103.74C109.776 103.46 107.208 103.15 104.639 102.86C102.071 102.57 99.3031 102.27 96.6749 101.99C96.3694 101.995 96.0655 102.036 95.769 102.11C95.5301 101.52 95.0124 101.68 94.5645 101.66C94.9106 101.308 95.0334 100.791 94.883 100.32C95.2514 100.2 95.8188 100.53 95.9482 99.85C96.1169 100.123 96.4058 100.298 96.7247 100.32C98.875 100.54 101.025 100.8 103.176 101.05L113.29 102.19C115.281 102.42 117.342 102.63 119.363 102.85C119.651 102.85 119.93 102.95 120.219 103C120.776 103.63 120.846 103.93 120.537 104.63Z" fill="#F3F6F1"/>
<path d="M146.042 112.73H146.381C148.446 112.798 150.513 112.751 152.573 112.59C154.126 112.38 155.719 112.42 157.302 112.36C159.238 112.403 161.175 112.346 163.105 112.19C164.548 112.045 165.996 111.975 167.446 111.98L175.002 111.77C175.339 111.732 175.672 111.665 175.997 111.57C176.47 111.48 176.956 111.634 177.291 111.98C177.291 111.98 177.481 111.92 177.58 111.89L178.576 112.71L177.58 113.38L177.391 113.22C177.222 113.101 177.033 113.013 176.834 112.96C176.157 112.96 175.48 112.96 174.843 112.96C174.665 112.998 174.496 113.069 174.345 113.17C173.937 113.17 173.528 113.02 173.12 113.01C172.712 113 172.294 113.13 171.886 113.15C169.526 113.22 167.167 113.28 164.808 113.36C164.597 113.404 164.393 113.475 164.2 113.57H164.121H164.031C163.842 113.48 163.641 113.416 163.434 113.38C163.185 113.38 162.936 113.52 162.687 113.53L157.371 113.73C155.987 113.79 154.604 113.87 153.22 113.92C150.771 114 148.322 114.063 145.873 114.11C145.626 114.084 145.384 114.02 145.156 113.92L146.042 112.73Z" fill="#F3F6F1"/>
<path d="M144.758 88.39C144.635 88.5775 144.502 88.7578 144.359 88.93C142.816 90.45 141.283 91.99 139.71 93.48C137.561 95.3609 135.279 97.0821 132.881 98.63C132.58 98.8098 132.236 98.9064 131.886 98.91C131.129 98.91 130.472 98.8 129.715 98.8C129.715 98.74 129.566 98.8 129.536 98.72C130.133 98.16 130.701 97.54 131.348 97.03C134.109 94.8833 136.876 92.75 139.651 90.63C140.996 89.553 142.575 88.8096 144.26 88.46L144.758 88.39Z" fill="#6252A1"/>
<path d="M123.056 82.9C123.165 83.5624 123.241 84.2299 123.285 84.9C123.285 87.63 123.285 90.35 123.355 93.08C123.355 94.51 123.414 95.94 123.454 97.37C123.454 97.92 123.454 98.47 123.514 99.02C123.693 100.068 123.406 101.143 122.727 101.96C122.618 101.815 122.528 101.657 122.459 101.49C121.619 98.8561 121.199 96.1055 121.214 93.34C121.314 91.47 121.682 89.61 121.961 87.75C122.18 86.28 122.449 84.81 122.698 83.34C122.738 83.1707 122.788 83.0038 122.847 82.84L123.056 82.9Z" fill="#6252A1"/>
<path d="M125.834 92.82C126.138 92.9034 126.447 92.9669 126.759 93.01L131.15 93.22C131.331 93.2548 131.506 93.319 131.667 93.41C130.831 94.12 130.015 94.85 129.169 95.55C127.681 96.7011 126.421 98.1223 125.455 99.74C125.394 99.8543 125.321 99.9615 125.236 100.06C125.184 100.095 125.127 100.121 125.067 100.14C124.589 99.01 124.918 95.91 125.834 92.82Z" fill="#2EBF8B"/>
<path d="M131.279 107.28C131.279 108.28 131.03 108.69 130.473 108.83C129.859 109.016 129.201 108.734 128.91 108.16C128.583 107.547 128.505 106.83 128.691 106.16C128.804 105.713 129.165 105.373 129.617 105.29C130.075 105.171 130.554 105.392 130.761 105.82C131.016 106.273 131.191 106.767 131.279 107.28Z" fill="#2D234D"/>
<path d="M149.865 127.04L146.441 125.45C146.321 124.97 146.202 124.45 146.072 124.01C147.819 124.501 149.467 125.297 150.94 126.36L149.865 127.04Z" fill="#FAFBFA"/>
<path d="M145.077 113.91C145.304 114.01 145.546 114.074 145.793 114.1C148.242 114.053 150.691 113.99 153.14 113.91C154.524 113.91 155.908 113.78 157.292 113.72L162.608 113.52C162.856 113.52 163.105 113.37 163.354 113.37C163.561 113.406 163.762 113.47 163.952 113.56C163.056 113.56 162.16 113.68 161.264 113.72L146.54 114.3C145.923 114.3 145.315 114.3 144.698 114.3L145.077 113.91Z" fill="#F3F6F1"/>
<path d="M139.452 111.09C139.353 110.7 140.378 109.99 141.035 109.73C141.298 109.648 141.585 109.692 141.811 109.85C141.941 109.96 141.941 110.33 141.891 110.56C141.662 111.48 140.507 111.72 139.452 111.09Z" fill="#332952"/>
<path d="M138.127 104.4C137.594 104.362 137.17 103.936 137.132 103.4C137.132 103.153 137.231 102.917 137.408 102.746C137.584 102.574 137.822 102.482 138.068 102.49C138.594 102.522 139.004 102.96 139.003 103.49C139.027 103.733 138.944 103.973 138.775 104.149C138.606 104.324 138.37 104.416 138.127 104.4Z" fill="#322751"/>
<path fill-rule="evenodd" clip-rule="evenodd" d="M92.3707 92.1433C92.4354 91.9094 92.5002 91.6752 92.5633 91.44C92.5741 90.8895 92.5241 90.3394 92.4139 89.8C92.2425 89.2955 92.4356 88.7386 92.8818 88.45C93.7048 87.7767 94.5211 87.0867 95.3308 86.38C95.6625 86.1226 95.9457 85.8076 96.167 85.45C96.7839 84.3102 97.3658 83.1645 97.9484 82.0174C98.1274 81.6651 98.3064 81.3125 98.4866 80.96V80.74C97.7479 80.6233 96.9927 80.7951 96.3761 81.22C93.7547 82.5574 91.7679 84.884 90.851 87.69L88.8599 87.42C89.1772 85.359 88.7309 83.2526 87.6056 81.5C86.659 79.667 85.1515 78.1877 83.305 77.28C83.4002 78.5976 83.7377 79.886 84.3005 81.08C85.0741 82.9409 86.0067 84.7309 87.0879 86.43C87.3016 86.7793 87.4752 87.1516 87.6056 87.54C85.7938 88.75 85.6743 88.89 85.2263 90.32C85.2802 90.32 85.3386 90.3109 85.3961 90.3019C85.5088 90.2842 85.6184 90.2671 85.6842 90.32C85.8136 90.4308 85.8926 90.5896 85.9033 90.76C85.9033 90.86 85.6942 91.03 85.5946 91.03C85.4303 90.9927 85.2893 90.8874 85.2064 90.74C85.1398 90.6597 85.1623 90.5481 85.1845 90.4381C85.1955 90.3837 85.2064 90.3297 85.2064 90.28L83.6335 91.64C82.9864 93.27 83.3249 94.14 85.1467 95.27C84.8298 95.7085 84.518 96.152 84.2076 96.5934C84.0791 96.7762 83.9509 96.9585 83.8226 97.14L83.0362 98.52C82.4876 99.5843 82.2202 100.772 82.2597 101.97C84.0555 102.46 85.9318 102.58 87.7748 102.32C89.065 102.18 90.3504 101.951 91.6685 101.717C92.2319 101.617 92.8013 101.516 93.3796 101.42V99.32C93.3099 98.88 93.2402 98.36 93.1805 97.88C93.0527 96.6225 92.6626 95.4061 92.0356 94.31C91.9418 94.1468 91.91 93.955 91.946 93.77C92.0712 93.2252 92.2207 92.6852 92.3707 92.1433ZM96.3263 81.93L96.4756 82.08L92.0655 87.25C92.7371 85.3051 93.954 83.5965 95.5697 82.33C95.7087 82.2329 95.866 82.1579 96.0238 82.0827C96.126 82.0339 96.2285 81.9851 96.3263 81.93Z" fill="#D6CCF8"/>
<path d="M43.9717 116.44L45.9628 118.21C46.0743 118.827 45.9305 119.462 45.5646 119.97C45.0507 120.572 44.393 121.033 43.6532 121.31C42.0352 122.021 40.3144 122.466 38.5561 122.63C35.2764 123.065 31.9449 122.885 28.7304 122.1C27.5617 121.837 26.4469 121.374 25.4352 120.73C23.6333 119.5 23.6234 118 25.4352 116.83C26.2552 116.381 27.107 115.993 27.9837 115.67C27.7249 116.84 27.4959 118.01 27.1973 119.17C26.9484 120.11 27.0579 120.35 27.9837 120.67C29.2329 121.114 30.5421 121.363 31.8663 121.41C34.6131 121.543 37.3661 121.456 40.0992 121.15C40.385 121.107 40.6654 121.034 40.9354 120.93C42.1002 120.5 42.3391 120.04 42.0404 118.85C41.8115 117.93 41.5427 117.03 41.3137 116.12C41.254 115.9 41.244 115.68 41.2042 115.46L43.9717 116.44Z" fill="#443D32"/>
<path d="M32.1252 102.69C30.481 100.188 29.6211 97.248 29.6563 94.25C30.6775 95.7274 31.3577 97.4151 31.6473 99.19C32.0595 100.308 32.2226 101.502 32.1252 102.69Z" fill="#6249BB"/>
<path d="M39.4421 93.7C38.5891 96.0244 37.4306 98.2238 35.9976 100.24C35.7089 100.6 35.4999 101.05 34.9424 101.13C35.1714 99.63 38.2276 94.55 39.4421 93.7Z" fill="#6454A2"/>
<path d="M43.9721 116.44L41.2444 115.44L40.667 114.05L43.6535 114.97L43.1458 115.51C43.3947 115.88 44.221 115.63 43.9721 116.44Z" fill="#F8FAF8"/>
<path d="M37.471 107.18C37.471 107.38 37.1724 107.62 36.9235 107.68C36.6746 107.74 36.1569 107.2 36.2167 106.68C36.2764 106.16 36.4158 106.06 36.8239 106.06C37.2321 106.06 37.5009 106.52 37.471 107.18Z" fill="#332952"/>
<path d="M41.7025 108.12C42.021 109.06 41.7622 109.33 40.707 109.18C40.488 108.84 41.2943 108.06 41.7025 108.12Z" fill="#382D56"/>
<path d="M40.3882 105.52C40.1991 105.52 40.0796 105.15 40.0597 104.94C40.1036 104.759 40.254 104.624 40.438 104.6C40.5873 104.6 40.7566 104.96 40.8163 105.16C40.876 105.36 40.4878 105.52 40.3882 105.52Z" fill="#433860"/>
<path d="M178.536 112.7L177.541 111.88C176.545 110.63 176.963 109.88 178.078 109.06C178.368 108.848 178.682 108.673 179.014 108.54C179.671 108.28 180.348 108.06 181.005 107.82C181.463 107.93 181.194 108.22 181.154 108.43C180.945 109.55 180.716 110.65 180.507 111.77C180.497 111.89 180.497 112.01 180.507 112.13C182.897 113.6 190.582 113.85 193.021 112.54C193.13 111.349 192.98 110.148 192.583 109.02C192.473 108.65 192.384 108.27 192.284 107.9C192.921 108.12 193.579 108.31 194.206 108.56C194.591 108.73 194.955 108.945 195.291 109.2C196.525 110.13 196.515 111.2 195.291 112.12C194.792 112.482 194.242 112.765 193.658 112.96C192.521 113.322 191.36 113.606 190.184 113.81C187.005 114.313 183.757 114.146 180.647 113.32C179.95 113.14 179.243 112.91 178.536 112.7Z" fill="#453E33"/>
<path d="M181.065 107.82C180.398 108.06 179.721 108.28 179.074 108.54C178.742 108.674 178.427 108.848 178.138 109.06C177.023 109.85 176.575 110.63 177.6 111.88C177.501 111.88 177.332 112 177.312 111.97C176.976 111.624 176.49 111.47 176.018 111.56C176.018 111.31 176.018 111.05 176.018 110.79C176.167 110.79 176.436 110.79 176.456 110.68C176.59 110.292 176.677 109.889 176.714 109.48C176.714 109.33 176.515 109.18 176.406 109.02C176.898 108.525 177.434 108.076 178.009 107.68C179.194 107.018 180.502 106.606 181.851 106.47C181.851 106.62 181.941 106.83 181.851 106.93C181.608 107.243 181.345 107.54 181.065 107.82Z" fill="#FCFDFC"/>
<path d="M188.63 90.63C188.935 91.0621 189.057 91.5979 188.969 92.12C188.809 93.93 188.61 95.73 188.421 97.54C188.41 97.7033 188.358 97.8613 188.272 98C188.192 98.11 188.013 98.24 187.903 98.21C187.772 98.1891 187.654 98.1173 187.575 98.01C187.496 97.897 187.445 97.7668 187.426 97.63C187.313 95.4912 187.538 93.3481 188.093 91.28C188.159 91.1025 188.243 90.9317 188.342 90.77C188.342 90.77 188.441 90.7 188.63 90.63Z" fill="#6249BB"/>
<path d="M189.805 99.1701C189.846 98.666 190.148 98.2212 190.601 98.0001C192.061 96.8059 193.62 95.7387 195.26 94.8101C194.275 96.7801 191.398 99.0501 189.805 99.1701Z" fill="#6554A2"/>
<path d="M184.459 99.86C184.399 100.54 183.852 101.1 183.414 101.03C183.266 101.019 183.131 100.944 183.043 100.825C182.955 100.706 182.923 100.555 182.956 100.41C182.956 99.95 183.633 99.41 184.031 99.49C184.225 99.5367 184.384 99.6745 184.459 99.86Z" fill="#362B54"/>
<path d="M178.387 101.8C178.277 101.29 178.486 101.04 178.994 101.03L179.691 101.42C179.074 102.21 178.855 102.28 178.387 101.8Z" fill="#393559"/>
<path d="M189.247 97.26L190.034 97.32C189.795 97.62 189.606 98 189.038 97.86L189.247 97.26Z" fill="#44B98E"/>
<path d="M47.1273 118.23C47.6052 118.17 48.1228 118.09 48.5708 118.07C53.0307 117.9 57.5305 117.75 61.9705 117.59L77.3114 117L87.8937 116.63L102.936 116.06C104.071 116.06 105.206 115.97 106.331 115.9C106.752 115.87 107.168 116.01 107.485 116.29C110.273 118.56 113.08 120.82 115.878 123.1C116.031 123.279 116.155 123.482 116.246 123.7C114.027 124.202 111.93 125.14 110.074 126.46C109.325 126.67 108.531 126.649 107.794 126.4C104.23 126 100.676 125.53 97.1221 125.08C93.2396 124.58 89.3571 124.08 85.4846 123.59L73.837 122.15C70.4722 121.73 67.1073 121.28 63.7425 120.86L53.5385 119.56C51.647 119.32 49.7555 119.06 47.864 118.83C47.5408 118.84 47.243 118.655 47.1074 118.36C47.1293 118.32 47.1363 118.274 47.1273 118.23Z" fill="#2EBF8B"/>
<path d="M110.074 126.41C111.93 125.09 114.028 124.152 116.246 123.65C116.779 123.66 117.257 123.98 117.471 124.47L115.102 125.27C113.247 125.912 111.499 126.829 109.915 127.99C109.915 127.84 109.805 127.61 109.915 127.54C110.184 127.313 110.466 127.102 110.761 126.91L110.074 126.41Z" fill="#FCFDFC"/>
<path d="M47.1274 118.23C47.1426 118.272 47.1426 118.318 47.1274 118.36C46.8187 118.86 46.53 118.82 46.1318 118.21C46.4504 118.18 46.7889 117.93 47.1274 118.23Z" fill="#FCFDFC"/>
<path d="M59.8608 127.48C59.1945 127.279 58.5053 127.165 57.8101 127.14C57.1723 127.288 56.5589 127.528 55.9883 127.85C56.4164 126.64 57.6906 126.34 59.7115 126.94C61.155 126.01 61.8718 125.94 63.0266 126.77C62.8772 126.85 62.718 126.99 62.6483 126.96C61.7112 126.465 60.5586 126.68 59.8608 127.48Z" fill="#056F5E"/>
<path d="M16.8141 104.77C16.1392 104.585 15.4179 104.69 14.8231 105.06C14.7066 105.116 14.5713 105.116 14.4548 105.06C13.6927 104.743 12.8166 104.903 12.2148 105.47C12.5832 104.68 13.1407 104.36 13.8077 104.55C14.2909 104.704 14.8158 104.654 15.2611 104.41C15.7897 104.083 16.4815 104.244 16.8141 104.77Z" fill="#097461"/>
<path d="M176.863 125.08C176.176 125.08 175.509 124.87 174.872 125.37C174.763 125.441 174.628 125.459 174.504 125.42C173.745 125.106 172.873 125.257 172.264 125.81C172.572 125.09 173.12 124.73 173.727 124.89C174.277 125.058 174.871 125 175.38 124.73C175.891 124.451 176.529 124.602 176.863 125.08Z" fill="#097461"/>
<path d="M207.884 100.63L207.685 100.82L206.341 101.11C206.789 100.49 207.366 100.63 207.884 100.63Z" fill="#067662"/>
<path fill-rule="evenodd" clip-rule="evenodd" d="M168.272 89.12C168.272 89.325 168.302 89.5325 168.332 89.74C168.362 89.9475 168.391 90.155 168.391 90.36V94.06C168.371 94.3959 168.328 94.73 168.262 95.06H166.868V94.06V88.93H166.689V92.22C166.633 92.5878 166.596 92.9583 166.58 93.33C166.597 93.6188 166.634 93.9061 166.689 94.19L166.49 95.19H165.554C165.426 95.0425 165.301 94.8867 165.175 94.7306C164.908 94.4001 164.64 94.0681 164.35 93.81C161.662 91.243 159.578 88.1071 158.247 84.63C157.643 83.1438 157.329 81.5551 157.321 79.95C157.527 80.0865 157.723 80.2369 157.909 80.4L157.909 80.4C158.904 81.4 159.9 82.4 160.895 83.46C162.426 85.2462 163.654 87.2733 164.529 89.46C164.711 89.8518 164.882 90.2475 165.053 90.6447L165.053 90.6447C165.153 90.8762 165.252 91.1081 165.355 91.34L165.594 91.87L165.783 91.81L165.524 90.63C165.349 88.9171 165.48 87.1864 165.913 85.52C166.169 84.7547 166.503 84.0175 166.908 83.32C166.974 84.5475 167.321 85.6918 167.667 86.8334C167.896 87.5889 168.125 88.3434 168.272 89.12ZM161.214 86.37C160.948 85.964 160.844 85.804 160.701 85.6943C160.608 85.6229 160.498 85.5728 160.318 85.49L161.015 86.58L161.403 87.17L162.398 88.74L162.986 89.74L163.394 90.49L163.971 91.49L164.818 92.93C164.796 92.3237 164.571 91.7425 164.18 91.28L163.593 90.28L163.185 89.53L162.598 88.53L161.602 86.97L161.214 86.37L161.214 86.37ZM159.75 84.09L159.531 84.21L159.093 83.47L159.253 83.36L159.75 84.09Z" fill="#2A8592"/>
<path fill-rule="evenodd" clip-rule="evenodd" d="M163.324 94.96L165.316 95.13C165.167 94.9977 165.011 94.8742 164.848 94.76C160.786 92.176 156.032 90.9055 151.229 91.12C150.897 91.1271 150.565 91.1745 150.176 91.23L150.176 91.23L150.176 91.23L150.176 91.23C150.017 91.2527 149.848 91.2767 149.666 91.3C150.951 92.6775 152.485 93.7973 154.186 94.6L154.783 94.94L163.086 95.15L162.249 94.56L162.329 94.4L163.324 94.96ZM153.628 92.84H155.36L157.351 93.12C156.691 93.2749 156 93.2367 155.36 93.01H153.628V92.84ZM158.058 93.27V93.49L159.293 93.7V93.52L158.058 93.27ZM160.876 93.94L160.826 94.13L159.82 93.87L159.88 93.66L160.876 93.94Z" fill="#2A8592"/>
<path d="M154.205 94.63L154.803 94.97L152.812 94.82L154.205 94.63Z" fill="#99CBBD"/>
<path d="M167.068 82.87L167.466 82.36L167.605 82.44L167.287 83.02L167.068 82.87Z" fill="#B5CED1"/>
<path d="M165.525 90.63L165.764 91.72L165.574 91.78L165.335 91.25L165.525 90.63Z" fill="#CADADB"/>
<path d="M163.145 95.15L162.309 94.56L162.388 94.4L163.384 94.96L163.145 95.15Z" fill="#2DA08E"/>
<path d="M166.848 94.1801C166.848 94.5001 166.848 94.8201 166.848 95.1801H166.44C166.51 94.8601 166.58 94.5401 166.639 94.1801H166.848Z" fill="#2A9C8E"/>
<path d="M83.8219 97.14C83.5532 97.6 83.2943 98.06 83.0355 98.52C81.8116 98.6081 80.6139 98.9199 79.5014 99.44C79.2399 99.5659 78.9929 99.7202 78.7647 99.9C78.048 100.49 78.028 101.13 78.7647 101.65C79.3479 102.056 79.9937 102.364 80.6761 102.56C83.0983 103.266 85.632 103.504 88.1425 103.26C89.6756 103.12 91.1987 102.81 92.7219 102.57C92.7219 102.66 92.7219 102.79 92.6422 102.82C92.3436 102.98 92.035 103.12 91.7363 103.26L91.9752 103.94C91.8904 103.99 91.8002 104.03 91.7064 104.06C89.1405 104.622 86.4988 104.747 83.8916 104.43C82.488 104.27 81.1141 103.85 79.7304 103.55C79.7304 103.38 79.7304 103.13 79.6507 103.06C79.2724 102.76 78.8444 102.52 78.4462 102.26L77.59 102.39C76.5945 100.73 76.8832 99.47 78.5855 98.49C79.7426 97.9053 80.9867 97.5135 82.2689 97.33C82.7866 97.23 83.3043 97.2 83.8219 97.14Z" fill="white"/>
<path d="M76.0477 103.14C75.6219 103.577 75.0204 103.794 74.415 103.73L76.0477 103.14Z" fill="#F3F6F1"/>
<path d="M51.3588 112.35C50.9152 112.743 50.3369 112.947 49.7461 112.92L51.3588 112.35Z" fill="#F3F6F1"/>
<path d="M70.7907 105.09C70.369 105.528 69.7716 105.749 69.168 105.69L70.7907 105.09Z" fill="#F3F6F1"/>
<path d="M56.6149 110.39C56.1721 110.791 55.5873 110.997 54.9922 110.96L56.6149 110.39Z" fill="#F3F6F1"/>
<path d="M46.1119 114.3C45.6669 114.697 45.0838 114.902 44.4893 114.87L46.1119 114.3Z" fill="#F3F6F1"/>
<path d="M67.108 106.5C66.6563 106.885 66.077 107.085 65.4854 107.06L67.108 106.5Z" fill="#F3F6F1"/>
<path d="M81.9605 93.84L82.2392 94.58L82.0501 94.65L81.8012 93.9L81.9605 93.84Z" fill="#3EB98E"/>
<path d="M73.9066 103.97C73.6451 104.265 73.2469 104.399 72.8613 104.32L73.9066 103.97Z" fill="#F3F6F1"/>
<path d="M49.2582 113.15L48.2129 113.5L49.2582 113.15Z" fill="#F3F6F1"/>
<path d="M77.0229 102.79L76.0273 103.15L77.0229 102.79Z" fill="#F3F6F1"/>
<path d="M71.7768 104.74L70.7812 105.1L71.7768 104.74Z" fill="#F3F6F1"/>
<path d="M54.4643 111.2L53.4688 111.55L54.4643 111.2Z" fill="#F3F6F1"/>
<path d="M68.6606 105.92L67.665 106.27L68.6606 105.92Z" fill="#F3F6F1"/>
<path d="M59.7113 109.24L58.7158 109.59L59.7113 109.24Z" fill="#F3F6F1"/>
<path d="M61.2738 108.63L60.2783 109L61.2738 108.63Z" fill="#F3F6F1"/>
<path d="M64.9672 107.29L63.9717 107.64L64.9672 107.29Z" fill="#F3F6F1"/>
<path d="M63.4145 107.88L62.4189 108.23L63.4145 107.88Z" fill="#F3F6F1"/>
<path d="M199.889 91.63H200.128C200.004 91.7996 199.86 91.954 199.7 92.09C199.64 92.14 199.471 92.09 199.352 92.01L199.889 91.63Z" fill="#9174B3"/>
<path d="M93.3798 99.32C93.3101 98.84 93.2404 98.32 93.1807 97.88C93.8875 98.24 94.6142 98.56 95.2912 98.98C95.5599 99.15 95.7093 99.52 95.9084 99.8C95.779 100.48 95.2115 100.15 94.8432 100.27L93.3798 99.32Z" fill="#F9FAFA"/>
<path d="M164.121 113.55C164.314 113.455 164.518 113.384 164.728 113.34C167.088 113.26 169.447 113.2 171.806 113.13C172.215 113.13 172.633 112.99 173.041 112.99C173.449 112.99 173.857 113.1 174.265 113.15C173.27 113.21 172.344 113.29 171.378 113.32C168.959 113.41 166.54 113.48 164.121 113.55Z" fill="#F3F6F1"/>
<path d="M174.255 113.16C174.406 113.059 174.575 112.988 174.753 112.95C175.43 112.95 176.107 112.95 176.744 112.95C176.943 113.003 177.132 113.091 177.301 113.21L174.255 113.16Z" fill="#F3F6F1"/>
<path d="M79.7504 103.55C81.1342 103.85 82.508 104.27 83.9117 104.43C86.5189 104.747 89.1606 104.622 91.7265 104.06C91.8203 104.03 91.9105 103.99 91.9953 103.94C92.292 104.056 92.5756 104.204 92.8414 104.38C96.578 107.393 100.308 110.413 104.031 113.44C104.28 113.65 104.509 113.87 104.867 114.18C104.529 114.18 104.33 114.28 104.131 114.29C100.059 114.44 95.9773 114.58 91.9057 114.74C88.73 114.85 85.5642 114.99 82.3885 115.11L71.1591 115.53L61.204 115.92L47.1373 116.48C46.7093 116.48 46.2314 116.64 45.8232 116.16L46.1816 115.85L47.1771 115.5L47.7048 115.26L48.7003 114.91L50.771 114.12L52.3837 113.54L52.9213 113.31L53.9168 112.96L55.0218 112.52L56.0173 112.17L57.6301 111.58L58.1577 111.34L59.1532 111L61.3035 110.2L62.8963 109.63L63.414 109.41L64.4095 109.05L64.9172 108.83L65.9725 108.46L68.0232 107.67L69.6658 107.09L70.1636 106.88L71.2188 106.51L72.304 106.09L73.2995 105.72L73.8171 105.5L74.8127 105.14L75.3303 104.93L76.3258 104.55L78.6454 103.76C79.1232 103.63 79.4418 103.63 79.7504 103.55Z" fill="#2EBF8B"/>
<path d="M93.3798 99.3199L94.8433 100.32C94.9936 100.791 94.8709 101.308 94.5247 101.66L93.1708 102.46L92.7427 102.62C91.2196 102.86 89.6964 103.17 88.1633 103.31C85.6529 103.554 83.1192 103.316 80.697 102.61C80.0145 102.414 79.3688 102.106 78.7856 101.7C78.029 101.18 78.0489 100.54 78.7856 99.9499C79.0137 99.7701 79.2608 99.6159 79.5223 99.4899C80.6348 98.9699 81.8324 98.6581 83.0564 98.5699C82.5078 99.6342 82.2404 100.822 82.2798 102.02C84.0757 102.51 85.952 102.629 87.795 102.37C89.6367 102.17 91.4685 101.79 93.3998 101.47L93.3798 99.3199Z" fill="#453E33"/>
<path d="M93.1699 102.41L94.5238 101.61C94.9718 101.61 95.5193 101.47 95.7284 102.06C95.4083 102.583 94.9148 102.976 94.3347 103.17C94.1444 103.183 93.9537 103.152 93.7772 103.08C93.552 102.879 93.3485 102.654 93.1699 102.41H93.1699Z" fill="#F9FAFA"/>
<path d="M61.2939 110.22L59.1436 111.02C59.7597 110.535 60.5116 110.255 61.2939 110.22Z" fill="#F3F6F1"/>
<path d="M62.8969 109.63L61.2842 110.22C61.7115 109.798 62.2997 109.583 62.8969 109.63Z" fill="#F3F6F1"/>
<path d="M52.3842 113.54L50.7715 114.12C51.2125 113.722 51.7917 113.513 52.3842 113.54Z" fill="#F3F6F1"/>
<path d="M69.7158 107.1L68.0732 107.68C68.5162 107.265 69.1117 107.055 69.7158 107.1Z" fill="#F3F6F1"/>
<path d="M57.6401 111.63L56.0273 112.22C56.4568 111.802 57.0434 111.587 57.6401 111.63Z" fill="#F3F6F1"/>
<path d="M76.515 104.56L75.5195 104.94C75.7612 104.646 76.1397 104.501 76.515 104.56Z" fill="#F3F6F1"/>
<path d="M53.9574 112.96L52.9619 113.31L53.9574 112.96Z" fill="#F3F6F1"/>
<path d="M56.0473 112.17L55.0518 112.52L56.0473 112.17Z" fill="#F3F6F1"/>
<path d="M59.2133 111.01L58.2178 111.35L59.2133 111.01Z" fill="#F3F6F1"/>
<path d="M74.9525 105.15L73.957 105.51C74.2053 105.226 74.5812 105.09 74.9525 105.15Z" fill="#F3F6F1"/>
<path d="M48.7006 114.91L47.7051 115.26L48.7006 114.91Z" fill="#F3F6F1"/>
<path d="M73.3998 105.73L72.4043 106.1C72.6505 105.813 73.0267 105.673 73.3998 105.73Z" fill="#F3F6F1"/>
<path d="M47.1381 115.5L46.1426 115.85L47.1381 115.5Z" fill="#F3F6F1"/>
<path d="M64.4594 109.06L63.4639 109.42C63.7099 109.133 64.0877 108.996 64.4594 109.06Z" fill="#F3F6F1"/>
<path d="M66.023 108.47L64.9678 108.84C65.2244 108.53 65.6302 108.388 66.023 108.47Z" fill="#F3F6F1"/>
<path d="M71.2691 106.52L70.2139 106.89C70.4678 106.576 70.876 106.433 71.2691 106.52Z" fill="#F3F6F1"/>
<path d="M175.997 110.79C175.997 111.05 175.997 111.31 175.997 111.56C175.672 111.655 175.339 111.722 175.002 111.76L167.446 111.97C165.997 111.965 164.548 112.035 163.106 112.18C161.175 112.336 159.238 112.393 157.302 112.35C155.719 112.41 154.126 112.35 152.573 112.58C150.513 112.742 148.446 112.788 146.381 112.72C146.593 112.665 146.81 112.625 147.028 112.6L154.405 112.34L169.427 111.76L175.34 111.54C175.488 111.528 175.634 111.504 175.778 111.47V110.81L175.997 110.79Z" fill="#F3F6F1"/>
<path d="M96.4758 82.08C95.1318 84.08 93.7879 86.08 92.3941 88.14C92.0159 87.82 91.9263 87.56 92.0557 87.25C92.73 85.3038 93.9505 83.5951 95.5698 82.33C95.7988 82.17 96.0776 82.07 96.3264 81.93L96.4758 82.08Z" fill="#6454A2"/>
<path d="M85.6147 80.7C87.2172 82.0081 88.0801 84.0218 87.9243 86.09C87.0781 84.36 86.2419 82.56 85.3857 80.84L85.6147 80.7Z" fill="#6858A4"/>
<path d="M88.7002 90.68C88.8378 90.8117 88.9316 90.9828 88.969 91.17C88.969 91.55 88.6405 91.92 88.3319 91.8C88.1183 91.703 87.958 91.5164 87.8939 91.29C87.8242 90.96 88.2124 90.63 88.7002 90.68Z" fill="#392E57"/>
<path d="M84.5196 92.24C84.9156 92.2128 85.3071 92.3379 85.6146 92.59C85.5051 93.02 85.3259 93.27 84.9476 93.19C84.5693 93.11 84.4399 92.84 84.5196 92.24Z" fill="#41375E"/>
<path d="M85.1864 90.29C85.3457 90.29 85.5448 90.29 85.6444 90.29C85.7737 90.4008 85.8527 90.5596 85.8634 90.73C85.8634 90.83 85.6543 91.01 85.5548 91C85.3904 90.9627 85.2494 90.8573 85.1665 90.71C85.1068 90.59 85.1665 90.4 85.1665 90.25L85.1864 90.29Z" fill="#4B4067"/>
<path d="M161.592 86.96L162.587 88.52L162.388 88.74L161.393 87.17L161.592 86.96Z" fill="#33AB8C"/>
<path d="M166.848 94.18H166.659C166.604 93.8961 166.567 93.6088 166.55 93.32C166.566 92.9483 166.603 92.5778 166.659 92.21L166.838 92.6L166.848 94.18Z" fill="#2DA28C"/>
<path d="M164.151 91.24C164.542 91.7025 164.766 92.2837 164.788 92.89C164.509 92.41 164.231 91.89 163.942 91.45L164.151 91.24Z" fill="#32AA8C"/>
<path d="M166.838 92.63L166.659 92.24C166.659 91.53 166.659 90.82 166.659 90.1H166.838V92.63Z" fill="#2DA78B"/>
<path d="M164.151 91.24L163.942 91.45L163.364 90.45L163.563 90.23L164.151 91.24Z" fill="#33AB8C"/>
<path d="M162.368 88.74L162.567 88.52L163.155 89.52L162.956 89.74L162.368 88.74Z" fill="#35AC8B"/>
<path d="M161.014 86.63L160.317 85.54C160.775 85.75 160.775 85.75 161.213 86.42L161.014 86.63Z" fill="#2FA38C"/>
<path d="M162.956 89.72L163.155 89.5C163.294 89.75 163.434 90 163.563 90.25L163.364 90.47C163.225 90.22 163.085 89.97 162.956 89.72Z" fill="#37AD8A"/>
<path d="M159.531 84.21L159.093 83.47L159.252 83.36L159.75 84.09L159.531 84.21Z" fill="#299490"/>
<path d="M166.848 90.09H166.669V88.93H166.848V90.09Z" fill="#30A28D"/>
<path d="M161.015 86.63L161.214 86.42L161.592 87.01L161.403 87.22L161.015 86.63Z" fill="#30A88C"/>
<path d="M155.39 92.84L157.381 93.12C156.72 93.2749 156.029 93.2367 155.39 93.01V92.84Z" fill="#2EA48D"/>
<path d="M158.088 93.27L159.332 93.52V93.7L158.098 93.49L158.088 93.27Z" fill="#30A68C"/>
<path d="M155.39 92.84V93.01H153.658V92.84H155.39Z" fill="#2EA58D"/>
<path d="M160.856 94.13L159.86 93.87L159.92 93.66L160.916 93.94L160.856 94.13Z" fill="#2FA68C"/>
</svg>
