<svg width="431" height="388" viewBox="0 0 431 388" fill="none" xmlns="http://www.w3.org/2000/svg">
<g opacity="0.7">
<path d="M174.08 137.55H115.7V163.7H64.8199V188.66H123.98V236.35H39.1699" stroke="#B88DFC" stroke-width="0.45"/>
<path fill-rule="evenodd" clip-rule="evenodd" d="M123.98 201.68C131.364 201.68 137.35 195.855 137.35 188.67C137.35 181.485 131.364 175.66 123.98 175.66C116.596 175.66 110.61 181.485 110.61 188.67C110.61 195.855 116.596 201.68 123.98 201.68Z" stroke="#B88DFC" stroke-width="0.91"/>
<path fill-rule="evenodd" clip-rule="evenodd" d="M14.8202 273.93C22.2042 273.93 28.1902 268.105 28.1902 260.92C28.1902 253.735 22.2042 247.91 14.8202 247.91C7.43615 247.91 1.4502 253.735 1.4502 260.92C1.4502 268.105 7.43615 273.93 14.8202 273.93Z" stroke="#B88DFC" stroke-width="0.91"/>
<path opacity="0.3" fill-rule="evenodd" clip-rule="evenodd" d="M312.31 181.67C316.331 181.67 319.59 178.473 319.59 174.53C319.59 170.587 316.331 167.39 312.31 167.39C308.29 167.39 305.03 170.587 305.03 174.53C305.03 178.473 308.29 181.67 312.31 181.67Z" stroke="#B4A7D1" stroke-width="1.82"/>
<path opacity="0.4" fill-rule="evenodd" clip-rule="evenodd" d="M273.25 69.74C277.27 69.74 280.53 66.5433 280.53 62.6C280.53 58.6567 277.27 55.46 273.25 55.46C269.229 55.46 265.97 58.6567 265.97 62.6C265.97 66.5433 269.229 69.74 273.25 69.74Z" stroke="#B4A7D1" stroke-width="1.82"/>
<path d="M389.34 146H320.59" stroke="#B88DFC" stroke-width="0.45" stroke-linecap="round" stroke-linejoin="round"/>
<path d="M39.1703 236.37V260.92H14.8203V213.21H39.1703V188.67V143.95" stroke="#B88DFC" stroke-width="0.45" stroke-linecap="round" stroke-linejoin="round"/>
<path opacity="0.5" fill-rule="evenodd" clip-rule="evenodd" d="M272.38 157.68C279.742 157.68 285.71 151.824 285.71 144.6C285.71 137.376 279.742 131.52 272.38 131.52C265.018 131.52 259.05 137.376 259.05 144.6C259.05 151.824 265.018 157.68 272.38 157.68Z" stroke="#B4A7D1" stroke-width="0.91"/>
<path fill-rule="evenodd" clip-rule="evenodd" d="M388.99 163.32C399.047 163.32 407.2 155.315 407.2 145.44C407.2 135.565 399.047 127.56 388.99 127.56C378.933 127.56 370.78 135.565 370.78 145.44C370.78 155.315 378.933 163.32 388.99 163.32Z" stroke="#B88DFC" stroke-width="0.91"/>
<path d="M312.31 176.43C313.382 176.43 314.25 175.579 314.25 174.53C314.25 173.481 313.382 172.63 312.31 172.63C311.239 172.63 310.37 173.481 310.37 174.53C310.37 175.579 311.239 176.43 312.31 176.43Z" fill="#B4A7D1"/>
<path d="M16.77 213.21C16.7321 212.169 15.8713 211.348 14.83 211.36C13.7073 211.507 12.8704 212.468 12.88 213.6C12.88 214.65 13.75 215.15 14.83 215.15C15.3461 215.155 15.8427 214.953 16.2077 214.588C16.5727 214.223 16.7754 213.726 16.77 213.21V213.21Z" fill="#B88DFC"/>
<path d="M41.1205 213.91C41.1041 212.854 40.2371 212.009 39.1805 212.02C38.0579 212.167 37.221 213.128 37.2305 214.26C37.2305 215.26 38.1005 215.81 39.1805 215.81C39.6898 215.815 40.1803 215.618 40.5441 215.262C40.9079 214.905 41.1153 214.419 41.1205 213.91V213.91Z" fill="#B88DFC"/>
<path d="M302.01 119.02C303.43 119.02 304.58 117.892 304.58 116.5C304.58 115.108 303.43 113.98 302.01 113.98C300.591 113.98 299.44 115.108 299.44 116.5C299.44 117.892 300.591 119.02 302.01 119.02Z" fill="#B4A7D1"/>
<path d="M302.01 65.12C303.43 65.12 304.58 63.9917 304.58 62.6C304.58 61.2082 303.43 60.08 302.01 60.08C300.591 60.08 299.44 61.2082 299.44 62.6C299.44 63.9917 300.591 65.12 302.01 65.12Z" fill="#B4A7D1"/>
<path d="M273.3 65.12C274.72 65.12 275.87 63.9917 275.87 62.6C275.87 61.2082 274.72 60.08 273.3 60.08C271.881 60.08 270.73 61.2082 270.73 62.6C270.73 63.9917 271.881 65.12 273.3 65.12Z" fill="#B4A7D1"/>
<path d="M272.75 147.12C274.169 147.12 275.32 145.992 275.32 144.6C275.32 143.208 274.169 142.08 272.75 142.08C271.33 142.08 270.18 143.208 270.18 144.6C270.18 145.992 271.33 147.12 272.75 147.12Z" fill="#B4A7D1"/>
<path opacity="0.3" fill-rule="evenodd" clip-rule="evenodd" d="M175.461 148.43C181.779 148.43 186.901 143.447 186.901 137.3C186.901 131.153 181.779 126.17 175.461 126.17C169.142 126.17 164.021 131.153 164.021 137.3C164.021 143.447 169.142 148.43 175.461 148.43Z" stroke="#B88DFC" stroke-width="0.91"/>
<path d="M175.46 139C176.537 139 177.41 138.154 177.41 137.11C177.41 136.066 176.537 135.22 175.46 135.22C174.383 135.22 173.51 136.066 173.51 137.11C173.51 138.154 174.383 139 175.46 139Z" fill="#8A76B5"/>
<path d="M40.7605 145.49C41.1185 145.209 41.3277 144.78 41.3277 144.325C41.3277 143.87 41.1185 143.441 40.7605 143.16C40.0864 142.324 38.8724 142.169 38.0105 142.81C37.6462 143.161 37.4404 143.644 37.4404 144.15C37.4404 144.656 37.6462 145.139 38.0105 145.49C38.7817 146.22 39.9892 146.22 40.7605 145.49V145.49Z" fill="#B88DFC"/>
<path d="M41.7606 237.06C41.7606 235.68 40.6006 234.9 39.1806 234.9C37.7606 234.9 36.6006 235.68 36.6006 237.06C36.6006 238.485 37.7557 239.64 39.1806 239.64C40.6055 239.64 41.7606 238.485 41.7606 237.06Z" fill="#B88DFC"/>
<path d="M17.4901 260.92C17.4901 259.53 16.3301 258.75 14.9101 258.75C13.4901 258.75 12.3301 259.53 12.3301 260.92C12.3301 262.345 13.4852 263.5 14.9101 263.5C16.335 263.5 17.4901 262.345 17.4901 260.92Z" fill="#B88DFC"/>
<path d="M388.99 99.95V205.69H418.49" stroke="#B88DFC" stroke-width="0.45" stroke-linecap="round" stroke-linejoin="round"/>
<path d="M387.63 145C387.266 145.352 387.06 145.838 387.06 146.345C387.06 146.852 387.266 147.338 387.63 147.69C388.304 148.52 389.51 148.674 390.37 148.04C391.108 147.176 391.108 145.904 390.37 145.04C389.611 144.305 388.411 144.287 387.63 145Z" fill="#B88DFC"/>
<path opacity="0.3" fill-rule="evenodd" clip-rule="evenodd" d="M389.341 107.09C393.361 107.09 396.621 103.893 396.621 99.95C396.621 96.0067 393.361 92.81 389.341 92.81C385.32 92.81 382.061 96.0067 382.061 99.95C382.061 103.893 385.32 107.09 389.341 107.09Z" stroke="#B88DFC" stroke-width="1.82"/>
<path d="M389.34 99.95H417.81" stroke="#B88DFC" stroke-width="0.45" stroke-linecap="round" stroke-linejoin="round"/>
<path d="M387.63 98.61C387.266 98.9624 387.06 99.4478 387.06 99.955C387.06 100.462 387.266 100.948 387.63 101.3C388.304 102.13 389.51 102.284 390.37 101.65C391.108 100.786 391.108 99.514 390.37 98.65C389.611 97.9148 388.411 97.8972 387.63 98.61Z" fill="#B88DFC"/>
<path d="M418.74 98.61C418.375 98.9624 418.169 99.4478 418.169 99.955C418.169 100.462 418.375 100.948 418.74 101.3C419.413 102.13 420.62 102.284 421.48 101.65C422.217 100.786 422.217 99.514 421.48 98.65C420.72 97.9148 419.52 97.8972 418.74 98.61Z" fill="#B88DFC"/>
<path opacity="0.5" fill-rule="evenodd" clip-rule="evenodd" d="M417.12 218.76C424.482 218.76 430.45 212.904 430.45 205.68C430.45 198.456 424.482 192.6 417.12 192.6C409.758 192.6 403.79 198.456 403.79 205.68C403.79 212.904 409.758 218.76 417.12 218.76Z" stroke="#B88DFC" stroke-width="0.91"/>
<path d="M367.561 205.68H388.991" stroke="#B4A7D1" stroke-width="0.45" stroke-linecap="round" stroke-linejoin="round"/>
<path d="M363.69 205.68C363.69 206.751 364.559 207.62 365.63 207.62C366.702 207.62 367.57 206.751 367.57 205.68C367.57 204.68 366.7 204.13 365.63 204.13C364.56 204.13 363.69 204.63 363.69 205.68Z" fill="#B88DFC"/>
<path d="M66.2902 189.9C67.0364 189.039 67.0364 187.761 66.2902 186.9C65.5176 186.163 64.3028 186.163 63.5302 186.9C63.1665 187.249 62.9609 187.731 62.9609 188.235C62.9609 188.739 63.1665 189.221 63.5302 189.57C64.2109 190.406 65.4316 190.552 66.2902 189.9Z" fill="#B88DFC"/>
<path d="M66.2901 164.59C66.6543 164.239 66.8601 163.756 66.8601 163.25C66.8601 162.744 66.6543 162.261 66.2901 161.91C65.4264 161.263 64.205 161.418 63.5301 162.26C63.1721 162.541 62.9629 162.97 62.9629 163.425C62.9629 163.88 63.1721 164.309 63.5301 164.59C64.3027 165.327 65.5175 165.327 66.2901 164.59Z" fill="#B88DFC"/>
<path d="M418.57 206.68C418.934 206.329 419.14 205.846 419.14 205.34C419.14 204.834 418.934 204.351 418.57 204C417.706 203.353 416.485 203.508 415.81 204.35C415.456 204.633 415.249 205.061 415.249 205.515C415.249 205.968 415.456 206.397 415.81 206.68C416.583 207.416 417.798 207.416 418.57 206.68Z" fill="#B88DFC"/>
</g>
<path d="M253.51 163.6C298.687 163.6 335.31 126.977 335.31 81.8C335.31 36.6231 298.687 0 253.51 0C208.333 0 171.71 36.6231 171.71 81.8C171.71 126.977 208.333 163.6 253.51 163.6Z" fill="#3D9989"/>
<path d="M253.51 81.8V223.7" stroke="#3F3B39" stroke-width="2.14" stroke-linecap="round"/>
<path d="M219.08 81.8L253.51 129.76" stroke="#3F3B39" stroke-width="2.14" stroke-linecap="round"/>
<path d="M253.51 109.86L275.6 97.12" stroke="#3F3B39" stroke-width="2.14" stroke-linecap="round"/>
<path d="M315.07 182.64C344.91 182.64 369.1 158.45 369.1 128.61C369.1 98.7701 344.91 74.58 315.07 74.58C285.23 74.58 261.04 98.7701 261.04 128.61C261.04 158.45 285.23 182.64 315.07 182.64Z" fill="#39D797"/>
<path d="M315.07 128.61V222.34" stroke="#3F3B39" stroke-width="1.41" stroke-linecap="round"/>
<path d="M337.81 128.61L315.07 160.29" stroke="#3F3B39" stroke-width="1.41" stroke-linecap="round"/>
<path d="M315.07 147.15L300.48 138.73" stroke="#3F3B39" stroke-width="1.41" stroke-linecap="round"/>
<path d="M276.51 315.28C276.735 315.204 276.947 315.097 277.14 314.96C276.88 314.895 276.612 315.032 276.51 315.28V315.28Z" fill="#988976"/>
<path d="M411.62 253.36C410.62 255.16 410.15 256.22 408.83 258.25C406.83 261.25 410.19 257.25 408.13 260.17C407.988 259.391 407.965 258.596 408.06 257.81C407.95 257.94 407.84 258.07 407.72 258.19C407.64 259.19 407.54 260.34 407.43 261.74C407.32 263.14 405.93 265.08 405.86 263.66C405.79 262.24 405.21 263.04 405.51 261.74C405.7 260.89 405.05 261.26 404.51 261.45C403.44 262.45 402.32 263.39 401.17 264.29C397.877 267.061 394.269 269.434 390.42 271.36C387.51 272.686 384.532 273.861 381.5 274.88C381.06 275.39 380.63 275.88 380.2 276.42C379.547 277.058 378.845 277.643 378.1 278.17C377.86 277.6 377.65 277.17 377.49 276.74C377.43 276.55 377.36 276.39 377.3 276.24C374.85 276.99 372.39 277.68 369.93 278.37C369.38 278.7 368.83 279.05 368.29 279.37C365.61 281.18 363.17 283.37 360.49 285.18C359.11 286.18 357.41 286.1 355.7 286.1C353.29 286.1 354.51 283.79 352.11 284.1C351.341 284.291 350.583 284.524 349.84 284.8C348.99 284.99 348.7 285.86 348.64 286.64C348.04 285.17 346.16 287.94 346.84 285.64C335.25 290.9 324.35 297.52 313.13 303.51C307.21 306.67 301.02 310.2 294.53 312C291.256 312.878 287.909 313.46 284.53 313.74C282.04 314.74 281.71 315.74 278.23 315.74C276.92 315.74 277.45 317.74 276.23 317.83C276.82 317.72 276.23 315.93 276.54 315.19C275.23 315.65 272.74 315.79 272.28 316.27C270.68 317.9 269.21 314.88 267.7 313.65L265.78 313.52C265.729 313.558 265.682 313.602 265.64 313.65C264.72 314.65 263.45 314.21 262.02 313.24C260.8 313.14 259.57 313.06 258.35 312.98C252.79 312.63 247.22 312.76 241.66 312.38C233.41 311.85 225.207 310.744 217.11 309.07C215.24 309.81 213.62 311.51 212.04 309.76C211.383 309.029 210.782 308.25 210.24 307.43C207.74 306.76 205.24 306.03 202.83 305.21C197.543 303.397 192.359 301.297 187.3 298.92C186.928 299.529 186.306 299.942 185.6 300.05C184.332 300.472 182.934 300.148 181.98 299.21C180.26 297.44 178.51 295.69 176.76 293.95C173.88 292.58 170.99 291.24 168.08 289.95C159.034 286.507 149.719 283.814 140.23 281.9C122.51 278.01 104.49 275.06 86.5403 272.53C82.0703 271.9 77.6103 271.24 73.1903 270.32C67.8848 269.153 62.7286 267.388 57.8203 265.06L57.3103 264.82C55.8929 265.975 54.5902 267.265 53.4203 268.67C52.4203 272.67 55.8503 278.81 56.2003 279.14C59.0603 281.86 61.9303 284.567 64.8103 287.26C69.1233 291.351 74.2281 294.516 79.8103 296.56C82.4906 297.516 85.0457 298.792 87.4203 300.36C92.4392 303.701 97.8847 306.351 103.61 308.24C105.53 308.88 107.47 309.47 109.4 310.08H110.13L122.13 311.7V311.7C126.468 311.884 130.729 312.903 134.68 314.7C135.144 314.954 135.594 315.231 136.03 315.53C137.71 316.53 139.36 317.53 141.03 318.4C145.15 320.62 149.29 322.78 153.41 324.99C157.77 327.33 162.06 329.81 166.48 331.99C170.071 333.64 173.468 335.683 176.61 338.08L180.96 341.63L188.87 347.05L194.87 350.62C196.61 351.84 198.41 352.96 200.06 354.29C204.375 357.763 209.133 360.645 214.21 362.86L219.97 364.5V364.5L232.57 365.16C233.01 365.16 233.45 365.27 233.89 365.33H247.76V365.33C249.27 365.16 250.76 365.04 252.3 364.8C256.07 364.2 259.83 363.53 263.6 362.89C263.826 362.894 264.052 362.867 264.27 362.81C268.89 360.9 273.53 359.04 278.12 357.05C281.76 355.47 285.31 353.7 288.95 352.11C292.08 350.74 295.3 349.56 298.45 348.21C301.22 347.02 303.94 345.7 306.69 344.45C309.69 343.1 312.69 341.88 315.55 340.45C320.15 338.11 324.75 335.74 329.21 333.14C331.282 331.97 333.13 330.443 334.67 328.63C336.76 326.06 338.67 323.4 341.55 321.63C344.76 319.63 348.03 317.74 351.27 315.8C354.987 313.87 358.965 312.496 363.08 311.72V311.72L372.92 310.07L373.65 309.8L378.36 308.22C380.77 306.98 383.17 305.72 385.6 304.5C388.35 303.12 391.12 301.77 392.99 299.18L397.99 293.93C399.63 292 401.29 290.09 402.9 288.13C404.27 286.48 405.58 284.79 406.9 283.13C407.9 281.84 408.9 280.54 409.97 279.25L412.89 275.51C414.144 272.697 415.387 269.883 416.62 267.07C416.75 266.79 416.92 266.52 417.07 266.25V266.25C417.27 264.99 417.48 263.74 417.68 262.48V260.58C417.63 260.58 415.1 254.24 413.35 250.83C412.79 251.683 412.214 252.527 411.62 253.36Z" fill="#988976"/>
<path d="M301.74 387.45C300.472 387.625 299.187 387.625 297.92 387.45C296.851 387.307 295.813 386.986 294.85 386.5C292.114 385.344 289.893 383.233 288.6 380.56C287.326 377.882 286.975 374.858 287.6 371.96V371.96C287.71 371.72 287.85 371.49 287.94 371.24C289.323 367.012 292.906 363.878 297.28 363.07C300.193 362.547 303.197 362.997 305.83 364.35V364.35C306.25 364.69 306.66 365.04 307.09 365.35C309.937 367.493 311.711 370.77 311.949 374.326C312.187 377.882 310.866 381.366 308.33 383.87C306.47 385.6 304.203 386.831 301.74 387.45V387.45Z" fill="#AC967C"/>
<path d="M417.66 262.5V261.63L416.83 261.4C415.56 263.48 414.32 265.58 412.99 267.61C410.99 270.61 408.99 273.61 406.92 276.54C406.469 277.046 405.947 277.484 405.37 277.84C404.22 278.71 403.32 278.41 403.24 277C403.166 275.658 403.277 274.312 403.57 273C403.91 271.54 405.16 268.63 405.16 267.12C405.091 266.472 404.974 265.83 404.81 265.2C407.23 262.68 408.28 261.03 410.57 258.39C413.09 255.5 417.77 252.39 418.96 248.78C419.016 249.699 419.016 250.621 418.96 251.54C418.96 252.81 418.89 254.08 418.86 255.35C418.86 255.7 418.81 256.04 418.77 256.35C418.726 256.736 418.636 257.116 418.5 257.48C418.381 257.784 418.291 258.099 418.23 258.42C418 259.79 417.84 261.15 417.66 262.5Z" fill="#AC967C"/>
<path d="M255.17 212.59L241.87 212.52C241.646 212.497 241.424 212.45 241.21 212.38L254.36 212.33L255.17 212.59Z" fill="#E1F1E8"/>
<path d="M404.01 233.04L396.42 230.58L404.01 233.04Z" fill="#83CBA8"/>
<path d="M81.2703 311.67C81.2499 313.601 80.0673 315.329 78.2748 316.047C76.4823 316.766 74.4336 316.332 73.0855 314.95C71.7373 313.567 71.3558 311.508 72.1189 309.734C72.8821 307.96 74.6395 306.822 76.5703 306.85C79.1946 306.894 81.2927 309.045 81.2703 311.67Z" fill="#AC967C"/>
<path d="M269.421 323.24L272.941 323.64C272.081 324.37 271.431 324.85 270.871 325.42C268.561 327.78 266.261 330.17 263.981 332.56C260.861 335.731 257.293 338.426 253.391 340.56C251.711 341.574 249.66 341.758 247.826 341.061C245.993 340.364 244.582 338.863 244.001 336.99C243.101 333.92 242.421 330.8 241.561 327.72C241.252 326.645 240.808 325.613 240.241 324.65C239.451 323.3 238.641 323.31 237.791 324.59C237.191 325.49 236.701 326.47 236.111 327.38C233.481 331.44 232.651 336.17 231.181 340.67C230.043 344.183 227.935 347.303 225.101 349.67C224.182 350.596 222.743 350.758 221.641 350.06C218.655 348.332 216.003 346.083 213.811 343.42C210.051 339.25 208.641 333.95 206.731 328.88C205.411 325.42 204.231 321.88 202.781 318.49C201.941 316.887 200.992 315.343 199.941 313.87C199.701 313.395 199.504 312.9 199.351 312.39C202.811 312.74 206.291 312.95 209.721 313.47C216.831 314.55 223.931 315.62 230.981 317.02C238.381 318.49 245.701 320.37 253.071 322.02C254.934 322.387 256.823 322.615 258.721 322.7C262.231 322.88 265.801 323.04 269.421 323.24Z" fill="#AC967C"/>
<path d="M400.49 270.64C400.54 270.81 400.69 271.05 400.62 271.14C399.62 272.57 398.62 274.03 397.46 275.37C394.54 278.81 391.52 282.17 388.59 285.6C385.66 289.03 382.99 292.33 380.15 295.66C379.497 296.298 378.795 296.883 378.05 297.41C377.81 296.85 377.6 296.41 377.44 295.98C376.91 294.49 376.44 294.12 375.06 294.81C372.698 295.93 370.419 297.216 368.24 298.66C365.56 300.48 363.12 302.66 360.44 304.48C359.06 305.42 357.36 305.39 355.65 305.39C353.231 305.479 350.821 305.743 348.44 306.18C347.29 306.35 346.17 306.76 345.03 307.02C343.03 307.47 341.73 306.42 341.57 304.33C341.33 301.26 342.38 298.47 343.25 295.62L343.49 294.85C346.8 293.14 350.49 292.66 354.02 291.85C358.57 290.85 363.11 289.79 367.61 288.58C369.108 288.063 370.536 287.361 371.86 286.49C377.67 283.23 383.45 279.92 389.26 276.65C392.57 274.78 395.9 272.94 399.26 271.1C399.658 270.917 400.069 270.763 400.49 270.64V270.64Z" fill="#AC967C"/>
<path d="M191.42 308.36C191.51 311.93 190.42 318.92 190.3 322.49C190.23 325.41 189.84 328.32 189.49 331.22C189.466 332.455 188.575 333.501 187.36 333.72C186.089 334.139 184.691 333.811 183.74 332.87C180.29 329.35 176.74 325.87 173.29 322.4C168.886 317.79 165.18 312.562 162.29 306.88C161.16 304.78 159.98 300.83 158.8 298.76C163.01 300.54 167.37 302.13 171.55 304C176.4 306.16 180.83 305.67 186.05 306.79C187.19 307.01 190.12 308.19 191.42 308.36Z" fill="#AC967C"/>
<path d="M330.67 299.75C328.92 301.92 327.16 304.09 325.41 306.27C322.51 309.89 318.75 312.46 314.86 314.87C310.407 317.817 306.491 321.504 303.28 325.77C300.86 328.692 298.233 331.435 295.42 333.98C293.87 335.42 293.19 335.17 291.82 333.54C290.6 332.09 289.38 330.64 288.27 329.11C286.61 326.82 286.59 324.24 287.19 321.61C287.38 320.78 287.65 319.96 287.88 319.14C290.287 318.502 292.649 317.703 294.95 316.75C298.04 315.25 300.95 313.31 303.95 311.63C311.43 307.42 318.95 303.42 327.25 300.87C328.36 300.52 329.52 300.13 330.67 299.75Z" fill="#AC967C"/>
<path d="M114.25 288.61C114.07 290.21 113.92 291.83 113.69 293.43C113.38 295.55 113.46 297.78 112.31 299.71C111.611 301.011 110.776 302.235 109.82 303.36C108.73 304.379 107.141 304.658 105.77 304.07C103.77 303.43 101.77 302.81 99.77 302C96 300.45 93.28 297.56 90.88 294.42C88.48 291.28 86.39 287.99 84.18 284.74C83.8045 283.881 83.4936 282.995 83.25 282.09C87.44 282.65 91.65 283.17 95.84 283.77C101.24 284.54 106.63 285.37 112.03 286.18C112.42 286.28 113.86 288.51 114.25 288.61Z" fill="#AC967C"/>
<path d="M143.52 293.13C142.39 295.67 139.02 300.22 137.82 302.74C137.18 304.09 136.59 304.2 135.55 303.19C132.07 299.81 128.29 293.64 125.65 289.56C125.53 289.36 125.78 288.92 125.85 288.56C128.85 289.26 131.93 289.89 134.93 290.69C136.84 291.23 141.65 292.47 143.52 293.13Z" fill="#AC967C"/>
<path d="M75.7803 281.36C75.6803 282.25 77.0503 285.25 76.8603 286.12C76.6956 287.038 76.0961 287.82 75.2518 288.218C74.4075 288.615 73.423 288.579 72.6103 288.12C69.7003 286.52 65.9703 282.17 64.0703 279.46L71.6503 280.71C73.0303 280.88 74.4203 281.12 75.7803 281.36Z" fill="#AC967C"/>
<path d="M55.2502 277.99C54.0302 276.2 52.4602 274.56 51.6502 272.61C50.2022 269.148 49.0416 265.573 48.1802 261.92C47.0802 257.09 48.6602 252.65 51.3102 248.63C54.2246 243.953 58.1467 239.987 62.7902 237.02C66.6547 234.727 70.7593 232.866 75.0302 231.47C80.4602 229.62 85.9002 227.77 91.6202 227.25C102.02 226.31 111.92 222.91 122.21 221.45C127.21 220.75 132.12 219.66 137.12 219.07C143.19 218.36 149.3 218.07 155.39 217.47C159.86 217.05 164.32 216.47 168.78 216.03C169.1 216.03 169.41 215.94 169.73 215.93C175.85 215.72 181.97 215.58 188.09 215.28C194.56 214.96 201.03 214.46 207.5 214.08C212.71 213.77 217.93 213.5 223.14 213.24C229.14 212.94 235.164 212.653 241.21 212.38C241.424 212.45 241.646 212.497 241.87 212.52L255.17 212.59C260.57 212.78 265.97 212.91 271.36 213.18C275.98 213.42 280.6 213.7 285.2 214.18C293.63 215.04 302.05 216.04 310.48 216.98C321.42 218.17 332.42 218.89 343.42 219.52C351.117 220.089 358.747 221.344 366.22 223.27C376.06 225.623 385.894 227.99 395.72 230.37C395.94 230.43 396.15 230.51 396.36 230.58L404 233.04C408 234.51 411.86 236.31 415 239.34C417.556 241.828 418.998 245.243 419 248.81C418.23 253.66 415.46 257.45 412.36 261.01C410.05 263.66 407.51 266.11 405.07 268.65L400.48 270.65C400.049 270.772 399.628 270.926 399.22 271.11C395.89 272.95 392.56 274.79 389.22 276.66C383.41 279.93 377.63 283.24 371.82 286.5C370.496 287.371 369.068 288.073 367.57 288.59C363.07 289.8 358.57 290.83 353.98 291.86C350.41 292.67 346.76 293.15 343.45 294.86C341.51 295.68 339.58 296.56 337.61 297.31C335.31 298.18 332.96 298.95 330.61 299.76C329.46 300.14 328.3 300.53 327.14 300.88C318.89 303.43 311.32 307.43 303.84 311.64C300.84 313.32 297.98 315.26 294.84 316.76C292.539 317.713 290.177 318.512 287.77 319.15C286.67 319.51 285.56 319.88 284.45 320.23C280.78 321.38 277.28 323.23 273.31 323.23C271.96 323.23 270.61 323.23 269.26 323.23C265.69 323.03 262.12 322.87 258.56 322.61C256.663 322.525 254.774 322.297 252.91 321.93C245.54 320.32 238.22 318.44 230.82 316.93C223.82 315.53 216.67 314.46 209.56 313.38C206.13 312.86 202.65 312.65 199.19 312.3L189.92 311.68C188.657 311.623 187.398 311.489 186.15 311.28C180.996 310.021 175.989 308.224 171.21 305.92C167.03 304.06 162.79 302.34 158.57 300.56L141.14 295.06C139.27 294.4 137.43 293.63 135.52 293.11C132.52 292.31 129.47 291.69 126.44 290.98C124.65 290.6 122.85 290.18 121.05 289.83C118.75 289.38 116.44 288.98 114.14 288.56C113.752 288.443 113.358 288.347 112.96 288.27C107.57 287.46 102.18 286.63 96.7802 285.86C92.5902 285.26 88.3802 284.73 84.1802 284.17L77.0602 283.4L72.9402 282.7L65.3602 281.45L55.2502 277.99Z" fill="#2EBF8B"/>
<path d="M295.3 184.49C295.3 184.49 281.57 188.88 272.73 209.62L269.42 216.56C269.42 216.56 286.3 203.91 290.82 194.2L295.3 184.49Z" fill="#258864"/>
<path d="M298.56 206.89C298.56 206.89 286.56 200.3 269.56 216.58C269.56 216.58 274.63 219.39 283.62 213.8C292.61 208.21 293.31 205.11 298.56 206.89Z" fill="#258864"/>
<path d="M267.23 178.08C267.23 178.08 277.73 197.08 269.59 216.63C269.59 216.63 258.68 195.67 267.23 178.08Z" fill="#258864"/>
<path d="M290.36 189.74C290.36 189.74 278.57 207 273.6 210.96Z" fill="#3CB889"/>
<path d="M266.97 186.67C266.97 186.67 272.4 202.17 269.14 213.05" stroke="#3CB889" stroke-width="0.32" stroke-linecap="round" stroke-linejoin="round"/>
<path d="M287.61 208.76C287.61 208.76 277.26 211.62 270.7 214.89Z" fill="#3CB889"/>
<path d="M74.8 197.49C73.9226 196.409 72.8551 195.497 71.65 194.8C70.6313 194.062 69.4253 193.625 68.17 193.54C66.8144 193.52 65.5894 194.346 65.1 195.61C64.8734 196.554 65.0279 197.549 65.53 198.38C66.9513 201.011 69.8284 202.515 72.8 202.18C73.71 202.07 75.74 202.02 76.18 200.95C76.62 199.88 75.34 198.2 74.8 197.49Z" fill="#EE9EAF"/>
<path d="M73.36 205.54C72.9038 205.589 72.4564 205.7 72.03 205.87C71.4729 206.132 71.0595 206.626 70.9 207.22C70.7422 207.797 70.9108 208.414 71.34 208.83C72.1267 209.307 73.1132 209.307 73.9 208.83C74.6109 208.497 75.2818 208.084 75.9 207.6C76.52 207.14 80.44 203.75 78.96 203.07C78.42 202.82 74.36 205.36 73.36 205.54Z" fill="#EE9EAF"/>
<path d="M77.7596 199C77.365 197.555 77.4528 196.021 78.0096 194.63C78.1802 194.239 78.471 193.914 78.8396 193.7C79.5413 193.404 80.3515 193.718 80.6696 194.41C80.9623 195.116 80.9907 195.904 80.7496 196.63C80.5496 197.38 80.2296 198.09 80.0196 198.83C79.7981 199.657 79.7336 200.519 79.8296 201.37C79.9696 202.55 79.8296 203.93 78.7596 202.9C78.1196 202.26 77.9396 199.91 77.7596 199Z" fill="#EE9EAF"/>
<path d="M86.2003 208.97C85.8103 209.09 85.4103 209.13 85.0303 209.27C84.2245 209.707 83.4433 210.187 82.6903 210.71C81.7644 211.046 80.8194 211.326 79.8603 211.55C78.8621 211.828 78.1361 212.689 78.0303 213.72C78.1328 214.623 78.902 215.301 79.8103 215.29C80.7116 215.239 81.5824 214.946 82.3303 214.44C83.5527 213.802 84.6289 212.917 85.4903 211.84C85.8912 211.185 86.3251 210.551 86.7903 209.94C87.4603 209.2 88.3703 208.73 88.7903 207.78C88.0203 207.23 87.0703 208.71 86.2003 208.97Z" fill="#EE9EAF"/>
<path d="M86.1501 196.74C86.2448 196.296 86.5203 195.912 86.9101 195.68C87.1328 195.598 87.3774 195.598 87.6001 195.68C88.2536 195.941 88.7336 196.512 88.8801 197.2C89.0385 197.906 89.0622 198.635 88.9501 199.35C88.8408 200.447 88.6604 201.536 88.4101 202.61C88.0001 204.41 87.6001 206.07 88.1901 207.79C85.7501 205.28 85.0001 200.23 86.1501 196.74Z" fill="#EE9EAF"/>
<path d="M96.4804 211.58C94.4804 212.707 92.5471 213.933 90.6804 215.26C90.1631 215.597 89.6866 215.993 89.2604 216.44C88.6865 217.096 88.3179 217.906 88.2004 218.77C88.1151 219.158 88.1948 219.563 88.4204 219.89C88.7159 220.186 89.1551 220.287 89.5504 220.15C89.9539 220.005 90.3293 219.792 90.6604 219.52C92.1057 218.58 93.3947 217.419 94.4804 216.08C95.4804 214.72 96.1904 212.94 97.7004 212.35C97.9245 212.284 98.1395 212.19 98.3404 212.07C99.6504 211.15 97.0204 211.27 96.4804 211.58Z" fill="#EE9EAF"/>
<path d="M95.2996 203.94C95.0696 202.37 94.9496 200.57 95.9696 199.29C97.3896 198.65 98.9696 199.76 99.4196 201.24C99.7258 202.798 99.5261 204.413 98.8496 205.85C98.3496 207.17 96.7396 209.97 97.6996 211.19C95.7596 212.19 95.4796 205.19 95.2996 203.94Z" fill="#EE9EAF"/>
<path d="M100.63 219.13C99.8892 219.687 99.318 220.438 98.9796 221.3C98.6413 222.152 99.0048 223.121 99.8196 223.54C100.608 223.658 101.406 223.395 101.97 222.83C103.4 221.699 104.587 220.291 105.46 218.69C105.805 217.97 106.217 217.283 106.69 216.64C107.195 216.052 107.916 215.691 108.69 215.64C107.1 214.39 106.51 213.91 105.87 211.75C105.23 209.59 104.71 207.31 105.55 205.07C105.83 204.32 106.44 203.52 107.18 203.6C107.684 203.735 108.091 204.109 108.27 204.6C108.987 206.203 109.069 208.019 108.5 209.68C107.93 210.951 107.553 212.299 107.38 213.68C107.42 214.071 107.4 214.465 107.32 214.85C107.06 215.72 104.45 216.47 103.68 216.95C102.614 217.606 101.595 218.334 100.63 219.13V219.13Z" fill="#EE9EAF"/>
<path d="M114.6 220.02C114.233 220.274 113.882 220.551 113.55 220.85C112.634 221.462 111.651 221.969 110.62 222.36C109.57 222.766 108.655 223.459 107.98 224.36C107.287 225.262 107.287 226.518 107.98 227.42C108.136 227.578 108.34 227.68 108.56 227.71C108.823 227.701 109.079 227.622 109.3 227.48C110.961 226.598 112.426 225.391 113.61 223.93C114.084 223.291 114.602 222.686 115.16 222.12C115.69 221.64 117.3 220.83 116.88 219.98C116.46 219.13 115.12 219.7 114.6 220.02Z" fill="#EE9EAF"/>
<path d="M115.49 213.77C115.299 212.478 115.458 211.159 115.95 209.95C115.999 209.786 116.115 209.651 116.269 209.577C116.423 209.503 116.601 209.497 116.76 209.56C117.299 209.612 117.812 209.817 118.24 210.15C118.83 210.847 119.143 211.737 119.12 212.65C119.293 213.823 119.266 215.016 119.04 216.18C118.74 217.34 117.88 220.47 116.38 219.23C115.33 218.36 115.58 215.09 115.49 213.77Z" fill="#EE9EAF"/>
<path d="M124.31 224.49C123.558 224.425 122.8 224.524 122.09 224.78C121.09 225 120.16 224.97 119.2 225.17C118.188 225.334 117.306 225.948 116.8 226.84C116.36 227.77 116.8 229.08 117.8 229.13C118.188 229.117 118.566 229.007 118.9 228.81C120.327 228.115 121.707 227.327 123.03 226.45C123.319 226.209 123.662 226.044 124.03 225.97C125.66 225.85 124.32 224.55 124.03 223.97C123.561 222.457 123.404 220.865 123.57 219.29C123.577 218.73 123.721 218.181 123.99 217.69C124.261 217.199 124.824 216.947 125.37 217.07C125.87 217.27 126.06 217.89 126.13 218.46C126.402 220.869 125.759 223.292 124.33 225.25" fill="#EE9EAF"/>
<path d="M105.36 213.36C95.0097 209.05 84.0897 205.79 74.6797 199.69C75.4506 201.232 76.7189 202.468 78.2797 203.2C87.1997 208.43 97.3497 211.15 106.88 215.2C111.829 217.21 116.503 219.841 120.79 223.03C122.89 224.635 124.823 226.448 126.56 228.44C128.16 230.29 129.27 232.88 130.91 234.53C133.91 231 124.28 224.13 122.13 222.53C116.941 218.791 111.308 215.711 105.36 213.36V213.36Z" fill="#EE9EAF"/>
<path d="M77.9003 147.76C77.2834 146.146 76.3825 144.656 75.2403 143.36C74.3265 142.094 73.0757 141.11 71.6303 140.52C70.0499 139.963 68.2896 140.45 67.2203 141.74C66.585 142.763 66.3835 143.998 66.6603 145.17C67.3176 148.818 70.1152 151.706 73.7403 152.48C74.8603 152.7 77.2603 153.48 78.1903 152.36C79.1203 151.24 78.2603 148.8 77.9003 147.76Z" fill="#CC4EEA"/>
<path d="M73.1001 156.64C72.545 156.522 71.9767 156.478 71.4101 156.51C70.657 156.603 69.9817 157.019 69.5601 157.65C69.144 158.268 69.1055 159.065 69.4601 159.72C70.0201 160.66 71.3301 160.84 72.4601 160.72C73.4411 160.615 74.4072 160.401 75.3401 160.08C76.2501 159.78 82.1501 157.35 80.6801 155.96C80.1301 155.45 74.3501 156.81 73.1001 156.64Z" fill="#CC4EEA"/>
<path d="M80.8001 150.7C80.8977 148.859 81.6008 147.101 82.8001 145.7C83.1533 145.307 83.6228 145.037 84.1401 144.93C85.0755 144.87 85.8955 145.55 86.0101 146.48C86.0844 147.423 85.8144 148.361 85.2501 149.12C84.7301 149.92 84.0701 150.63 83.5401 151.43C82.9555 152.311 82.5448 153.295 82.3301 154.33C82.0501 155.77 81.3301 157.33 80.4901 155.7C79.9701 154.66 80.6601 151.84 80.8001 150.7Z" fill="#CC4EEA"/>
<path d="M86.8701 165.71C86.3701 165.71 85.8701 165.6 85.3801 165.61C84.2654 165.799 83.1633 166.056 82.0801 166.38C80.8588 166.411 79.6368 166.37 78.4201 166.26C77.1901 166.26 75.7601 166.89 75.4201 168.08C75.203 169.182 75.8426 170.272 76.9101 170.62C77.9862 170.92 79.124 170.92 80.2001 170.62C81.8849 170.356 83.494 169.735 84.9201 168.8C85.6901 168.25 86.3601 167.55 87.1801 167.08C88.2601 166.48 89.5101 166.29 90.3801 165.34C89.6801 164.36 88.0001 165.75 86.8701 165.71Z" fill="#CC4EEA"/>
<path d="M91.5404 151.36C91.8214 150.881 92.2886 150.541 92.8304 150.42C93.1268 150.412 93.4166 150.508 93.6504 150.69C94.3112 151.258 94.6544 152.112 94.5704 152.98C94.4779 153.869 94.2237 154.733 93.8204 155.53C93.2683 156.776 92.637 157.985 91.9304 159.15C90.7504 161.09 89.6404 162.89 89.6704 165.15C87.7704 161.2 88.8304 154.98 91.5404 151.36Z" fill="#CC4EEA"/>
<path d="M97.9504 172.81C95.1771 173.363 92.4304 174.047 89.7104 174.86C88.9742 175.054 88.2629 175.333 87.5904 175.69C86.6481 176.225 85.8911 177.034 85.4204 178.01C85.1733 178.433 85.1049 178.937 85.2304 179.41C85.466 179.876 85.9488 180.164 86.4704 180.15C87.0013 180.148 87.5271 180.046 88.0204 179.85C90.0872 179.336 92.0587 178.496 93.8604 177.36C95.5504 176.15 97.0804 174.36 99.0904 174.25C99.3793 174.259 99.6681 174.232 99.9504 174.17C101.84 173.55 98.7004 172.67 97.9504 172.81Z" fill="#CC4EEA"/>
<path d="M99.51 163.36C99.84 161.42 100.4 159.25 102.1 158.15C104.02 157.96 105.46 159.89 105.4 161.79C105.34 163.69 104.19 165.46 102.95 166.99C101.85 168.34 98.88 170.99 99.53 172.8C96.87 173.25 99.25 164.92 99.51 163.36Z" fill="#CC4EEA"/>
<path d="M99.9105 183.36C98.8297 183.726 97.871 184.383 97.1405 185.26C96.3859 186.136 96.4383 187.447 97.2605 188.26C98.1366 188.722 99.1844 188.722 100.06 188.26C102.179 187.496 104.121 186.312 105.77 184.78C106.445 184.061 107.197 183.417 108.01 182.86C108.814 182.384 109.774 182.244 110.68 182.47C109.29 180.36 108.79 179.57 108.87 176.79C108.95 174.01 109.21 171.11 111.07 168.79C111.69 168.03 112.71 167.33 113.55 167.72C114.089 168.051 114.427 168.628 114.45 169.26C114.668 171.4 114.068 173.544 112.77 175.26C111.77 176.66 110.45 177.89 109.92 179.49C109.818 179.963 109.646 180.418 109.41 180.84C108.75 181.76 105.41 181.61 104.31 181.84C102.81 182.242 101.339 182.75 99.9105 183.36V183.36Z" fill="#CC4EEA"/>
<path d="M116 189.84C115.463 189.978 114.935 190.152 114.42 190.36C113.118 190.737 111.775 190.958 110.42 191.02C109.034 191.082 107.693 191.532 106.55 192.32C105.392 193.118 104.915 194.596 105.39 195.92C105.513 196.167 105.713 196.368 105.96 196.49C106.287 196.586 106.634 196.586 106.96 196.49C109.25 196.104 111.439 195.264 113.4 194.02C114.199 193.447 115.041 192.939 115.92 192.5C116.72 192.14 118.92 191.82 118.76 190.67C118.58 189.75 116.73 189.67 116 189.84Z" fill="#CC4EEA"/>
<path d="M119.42 182.85C119.69 181.264 120.381 179.779 121.42 178.55C121.541 178.405 121.7 178.298 121.88 178.24C122.11 178.22 122.339 178.28 122.53 178.41C123.142 178.684 123.665 179.124 124.04 179.68C124.465 180.728 124.489 181.895 124.11 182.96C123.862 184.404 123.368 185.794 122.65 187.07C121.85 188.32 119.65 191.66 118.35 189.61C117.49 188.17 119.05 184.43 119.42 182.85Z" fill="#CC4EEA"/>
<path d="M125.69 198.9C124.832 198.529 123.904 198.351 122.97 198.38C121.76 198.25 120.62 197.83 119.41 197.7C118.164 197.488 116.89 197.856 115.95 198.7C115.08 199.62 115.11 201.35 116.22 201.78C116.687 201.891 117.173 201.891 117.64 201.78C119.587 201.53 121.515 201.146 123.41 200.63C123.853 200.463 124.331 200.412 124.8 200.48C126.8 200.98 125.69 198.92 125.65 198.1C125.677 196.14 126.106 194.207 126.91 192.42C127.129 191.765 127.511 191.177 128.02 190.71C128.528 190.238 129.29 190.164 129.88 190.53C130.325 191.064 130.462 191.791 130.24 192.45C129.628 195.382 127.936 197.978 125.5 199.72" fill="#CC4EEA"/>
<path d="M107.7 178.43C97.1904 169.3 85.6104 161.18 76.9004 150.33C77.0104 152.5 78.3904 154.28 79.7704 155.86C88.2404 165.5 99.1304 172.69 108.77 181.18C113.814 185.482 118.293 190.404 122.1 195.83C123.963 198.533 125.542 201.422 126.81 204.45C127.96 207.24 128.28 210.72 129.57 213.3C134.44 210.3 125.79 198.49 123.88 195.75C119.219 189.334 113.784 183.517 107.7 178.43V178.43Z" fill="#CC4EEA"/>
<path d="M355.64 225.46C355.64 225.46 390.11 210.3 404.7 215.54C419.29 220.78 398.33 229.91 398.33 229.91L378.74 237.42L355.64 225.46Z" fill="#28818F"/>
<path d="M408.969 217.75C408.969 217.75 375.049 230.81 368.859 232.36" stroke="#AC88BE" stroke-width="0.41" stroke-linecap="round" stroke-linejoin="round"/>
<path d="M395.629 214.47L386.319 226.29" stroke="#AC88BE" stroke-width="0.41" stroke-linecap="round" stroke-linejoin="round"/>
<path d="M406.339 225.22L395.069 223.04" stroke="#AC88BE" stroke-width="0.41" stroke-linecap="round" stroke-linejoin="round"/>
<path d="M396.089 230.76L382.609 227.65" stroke="#AC88BE" stroke-width="0.41" stroke-linecap="round" stroke-linejoin="round"/>
<path d="M376.58 229.81L383.39 216.24" stroke="#AC88BE" stroke-width="0.41" stroke-linecap="round" stroke-linejoin="round"/>
<path d="M366.06 230.86L370.99 219.7" stroke="#AC88BE" stroke-width="0.41" stroke-linecap="round" stroke-linejoin="round"/>
<path d="M344.54 231.05C344.54 231.05 375.67 192.46 395.9 189.75C416.13 187.04 397.15 210.36 397.15 210.36L378.79 231.01L344.54 231.05Z" fill="#0E8655"/>
<path d="M402.23 189.75C402.23 189.75 370.48 225.55 364.15 231.05" stroke="#AC88BE" stroke-width="0.54" stroke-linecap="round" stroke-linejoin="round"/>
<path d="M384.65 193.99L380.92 213.45" stroke="#AC88BE" stroke-width="0.54" stroke-linecap="round" stroke-linejoin="round"/>
<path d="M403.67 200.08L389.17 204.34" stroke="#AC88BE" stroke-width="0.54" stroke-linecap="round" stroke-linejoin="round"/>
<path d="M395.05 212.76L377.41 217.28" stroke="#AC88BE" stroke-width="0.54" stroke-linecap="round" stroke-linejoin="round"/>
<path d="M371.66 223.46L371.4 203.47" stroke="#AC88BE" stroke-width="0.54" stroke-linecap="round" stroke-linejoin="round"/>
<path d="M359.99 231.06L359 215.02" stroke="#AC88BE" stroke-width="0.54" stroke-linecap="round" stroke-linejoin="round"/>
<path d="M180.69 217.89H282.47C282.47 217.89 274.25 196.39 254.65 204.61C254.65 204.61 240.11 180.01 216.09 202.74C216.09 202.74 190.8 185.01 180.69 217.89Z" fill="url(#paint0_linear)"/>
<path d="M206.42 221.82L145.65 222.89C139.97 222.99 134.17 223.07 128.74 221.29C123.31 219.51 118.22 215.51 116.46 209.79C113.62 200.6 120.9 190.44 129.77 188.12C131.25 187.74 132.89 187.45 133.91 186.24C134.93 185.03 135.01 182.9 134.91 181.12C134.58 175.95 134.15 170.34 136.8 165.98C140.33 160.16 147.8 158.91 153.07 154.77C157.79 151.05 160.52 145.11 164.96 141.01C171.563 134.995 181.259 133.842 189.09 138.14C196.67 142.47 201.25 152.03 200.09 161.06C199.7 162.966 199.492 164.905 199.47 166.85C199.89 173.8 207.18 177.43 213.15 180.36C219.12 183.29 225.7 189.36 223.32 195.86C222.07 199.27 218.47 201.78 218.6 205.44C218.67 207.32 219.76 208.99 220.14 210.84C220.97 214.96 217.92 219.07 214.23 220.65C210.54 222.23 206.39 221.92 202.42 221.58" fill="#8B99D1"/>
<path d="M174.06 163.83V222.52" stroke="#9BFAEB" stroke-width="0.95" stroke-linecap="round" stroke-linejoin="round"/>
<path d="M185.55 172.61L174.06 186.67L159.51 172.61" stroke="#9BFAEB" stroke-width="0.95" stroke-linecap="round" stroke-linejoin="round"/>
<path d="M185.549 196.51L174.059 210.29L158.449 196.51" stroke="#9BFAEB" stroke-width="0.95" stroke-linecap="round" stroke-linejoin="round"/>
<path d="M176.42 238.76L214.99 239.4C218.59 239.46 222.27 239.51 225.71 238.45C229.15 237.39 232.39 235.03 233.51 231.64C235.31 226.2 230.69 220.19 225.06 218.82C224.096 218.712 223.185 218.323 222.44 217.7C221.84 216.823 221.614 215.744 221.81 214.7C222.02 211.64 222.3 208.32 220.62 205.7C218.37 202.25 213.62 201.51 210.29 199.06C207.29 196.86 205.56 193.34 202.74 190.91C198.429 187.337 192.403 186.676 187.42 189.23C182.542 191.902 179.773 197.266 180.42 202.79C180.667 203.917 180.801 205.066 180.82 206.22C180.55 210.33 175.92 212.49 172.13 214.22C168.34 215.95 164.13 219.55 165.68 223.39C166.47 225.39 168.76 226.9 168.68 229.06C168.68 230.18 167.94 231.17 167.68 232.26C167.15 234.7 169.09 237.14 171.43 238.07C173.77 239 176.43 238.82 178.92 238.62" fill="#78CEDF"/>
<path d="M196.881 204.43V239.18" stroke="#766BA8" stroke-width="0.58" stroke-linecap="round" stroke-linejoin="round"/>
<path d="M189.591 209.63L196.881 217.96L206.121 209.63" stroke="#766BA8" stroke-width="0.58" stroke-linecap="round" stroke-linejoin="round"/>
<path d="M189.591 223.78L196.881 231.94L206.791 223.78" stroke="#766BA8" stroke-width="0.58" stroke-linecap="round" stroke-linejoin="round"/>
<path d="M67.5303 245.71H210.95C210.95 245.71 199.37 215.43 171.75 227.01C171.75 227.01 151.27 192.33 117.42 224.37C117.42 224.36 81.7803 199.36 67.5303 245.71Z" fill="url(#paint1_linear)"/>
<path d="M101.98 266.04L161.63 267.04C167.21 267.13 172.89 267.21 178.22 265.57C183.55 263.93 188.55 260.28 190.28 255.04C193.07 246.63 185.92 237.33 177.21 235.21C175.76 234.85 174.15 234.59 173.15 233.48C172.15 232.37 172.07 230.48 172.15 228.79C172.48 224.06 172.9 218.93 170.31 214.94C166.83 209.6 159.48 208.46 154.31 204.67C149.68 201.26 147 195.82 142.64 192.07C135.978 186.539 126.663 185.505 118.95 189.44C111.413 193.589 107.149 201.897 108.17 210.44C108.547 212.182 108.751 213.958 108.78 215.74C108.42 222.07 101.25 225.36 95.4204 228.08C89.5904 230.8 83.0804 236.36 85.4204 242.27C86.6504 245.39 90.1904 247.69 90.0604 251.04C89.9904 252.77 88.9104 254.3 88.5504 255.99C87.7304 259.76 90.7304 263.52 94.3504 264.99C97.9704 266.46 102.04 266.15 105.93 265.84" fill="#766AA8"/>
<path d="M133.69 212.94V266.68" stroke="#9BFAEB" stroke-width="0.9" stroke-linecap="round" stroke-linejoin="round"/>
<path d="M122.421 220.99L133.691 233.86L147.971 220.99" stroke="#9BFAEB" stroke-width="0.9" stroke-linecap="round" stroke-linejoin="round"/>
<path d="M122.421 242.87L133.691 255.48L149.021 242.87" stroke="#9BFAEB" stroke-width="0.9" stroke-linecap="round" stroke-linejoin="round"/>
<path d="M323.95 242L361.95 242.63C365.5 242.69 369.12 242.73 372.51 241.69C375.9 240.65 379.09 238.32 380.19 234.99C381.97 229.63 377.42 223.71 371.87 222.36C370.921 222.253 370.024 221.87 369.29 221.26C368.693 220.382 368.47 219.303 368.67 218.26C368.88 215.26 369.15 211.98 367.49 209.44C365.28 206.04 360.6 205.31 357.32 202.9C354.37 200.73 352.66 197.27 349.89 194.9C345.65 191.377 339.718 190.72 334.81 193.23C330.008 195.864 327.289 201.152 327.94 206.59C328.178 207.698 328.309 208.827 328.33 209.96C328.06 213.96 323.5 216.13 319.77 217.84C316.04 219.55 311.93 223.09 313.42 226.84C314.2 228.84 316.42 230.29 316.37 232.42C316.32 233.52 315.64 234.5 315.37 235.57C314.84 237.98 316.75 240.37 319.06 241.29C321.37 242.21 323.96 242.03 326.44 241.84" fill="#9886C4"/>
<path d="M344.149 208.19V242.41" stroke="#77CEDF" stroke-width="0.57" stroke-linecap="round" stroke-linejoin="round"/>
<path d="M336.97 213.31L344.15 221.51L353.24 213.31" stroke="#77CEDF" stroke-width="0.57" stroke-linecap="round" stroke-linejoin="round"/>
<path d="M336.97 227.25L344.15 235.28L353.91 227.25" stroke="#77CEDF" stroke-width="0.57" stroke-linecap="round" stroke-linejoin="round"/>
<rect x="212.54" y="282.52" width="1.19" height="15.78" rx="0.595" fill="#00886F"/>
<path d="M212.98 282.52C212.98 282.52 209.98 289.81 195.17 284.73C195.17 284.73 206.71 270.73 212.98 280.21C212.98 280.21 215.48 272.27 227.84 280.21C227.84 280.21 221.48 288.89 212.98 282.52Z" fill="#00886F"/>
<path d="M220.03 280.56C220.03 280.56 216.15 277.94 213.14 281.61C213.14 281.61 208.14 278.73 204.81 282.52" stroke="#0D6D5C" stroke-width="0.99" stroke-linecap="round" stroke-linejoin="round"/>
<rect x="352.71" y="256.08" width="1.19" height="15.78" rx="0.595" fill="#00886F"/>
<path d="M353.16 256.08C353.16 256.08 350.11 263.37 335.35 258.29C335.35 258.29 346.88 244.29 353.16 253.77C353.16 253.77 355.65 245.84 368.02 253.77C368.02 253.77 361.65 262.45 353.16 256.08Z" fill="#00886F"/>
<path d="M360.209 254.12C360.209 254.12 356.319 251.5 353.309 255.17C353.309 255.17 348.309 252.29 344.989 256.08" stroke="#0D6D5C" stroke-width="0.99" stroke-linecap="round" stroke-linejoin="round"/>
<rect x="219.76" y="244.42" width="0.88" height="11.63" rx="0.44" fill="#00886F"/>
<path d="M220.09 244.42C220.09 244.42 217.85 249.8 206.95 246.05C206.95 246.05 215.46 235.71 220.09 242.72C220.09 242.72 221.93 236.86 231.09 242.72C231.05 242.72 226.35 249.12 220.09 244.42Z" fill="#00886F"/>
<path d="M225.29 242.97C223.649 241.866 221.435 242.205 220.2 243.75C220.2 243.75 216.55 241.62 214.07 244.42" stroke="#0D6D5C" stroke-width="0.73" stroke-linecap="round" stroke-linejoin="round"/>
<rect x="83.8398" y="259.97" width="0.88" height="11.63" rx="0.44" fill="#00886F"/>
<path d="M84.17 259.97C84.17 259.97 81.93 265.35 71.04 261.6C71.04 261.6 79.54 251.26 84.17 258.27C84.17 258.27 86.01 252.41 95.17 258.27C95.13 258.27 90.42 264.67 84.17 259.97Z" fill="#00886F"/>
<path d="M89.4202 258.52C87.7791 257.416 85.5652 257.755 84.3302 259.3C84.3302 259.3 80.6802 257.17 78.2002 259.97" stroke="#0D6D5C" stroke-width="0.73" stroke-linecap="round" stroke-linejoin="round"/>
<path d="M269.89 294.58C269.844 295.297 270.084 296.004 270.559 296.544C271.033 297.084 271.703 297.414 272.42 297.46C273.134 297.508 273.837 297.266 274.37 296.79C275.292 295.986 275.557 294.663 275.018 293.565C274.479 292.468 273.269 291.87 272.07 292.108C270.87 292.345 269.98 293.36 269.9 294.58H269.89Z" fill="white"/>
<path d="M278.93 309.36C278.93 309.36 277.78 300.98 274.36 296.8" stroke="#00886F" stroke-width="1.2" stroke-linecap="round" stroke-linejoin="round"/>
<path d="M259.57 291.87C259.442 293.876 260.963 295.606 262.969 295.735C264.974 295.864 266.705 294.343 266.835 292.338C266.965 290.333 265.445 288.601 263.44 288.47C262.476 288.407 261.526 288.73 260.8 289.368C260.074 290.005 259.632 290.906 259.57 291.87V291.87Z" fill="white"/>
<path d="M271.77 311.79C271.77 311.79 270.22 300.49 265.61 294.85" stroke="#00886F" stroke-width="1.62" stroke-linecap="round" stroke-linejoin="round"/>
<path d="M155.16 262.97C155.062 264.443 155.862 265.831 157.186 266.485C158.51 267.139 160.097 266.931 161.208 265.957C162.319 264.984 162.733 263.438 162.259 262.039C161.784 260.641 160.514 259.666 159.04 259.57C157.031 259.439 155.294 260.96 155.16 262.97V262.97Z" fill="white"/>
<path d="M167.42 282.89C167.42 282.89 165.87 271.59 161.25 265.95" stroke="#00886F" stroke-width="1.62" stroke-linecap="round" stroke-linejoin="round"/>
<path d="M287.64 223.23C287.517 225.12 288.949 226.751 290.839 226.875C292.729 226.999 294.361 225.568 294.486 223.678C294.61 221.788 293.18 220.155 291.29 220.03C290.382 219.97 289.486 220.273 288.802 220.873C288.117 221.474 287.699 222.321 287.64 223.23V223.23Z" fill="white"/>
<path d="M299.14 241.99C299.14 241.99 297.68 231.34 293.33 226.04" stroke="#00886F" stroke-width="1.52" stroke-linecap="round" stroke-linejoin="round"/>
<path d="M312.249 223.16C312.162 224.183 311.474 225.056 310.5 225.38C309.525 225.704 308.452 225.417 307.769 224.65C307.322 224.149 307.095 223.49 307.139 222.82C307.233 221.409 308.453 220.341 309.864 220.435C311.275 220.529 312.343 221.749 312.249 223.16V223.16Z" fill="white"/>
<path d="M301.93 235.7C301.93 235.7 304.04 228.09 307.77 224.65" stroke="#00886F" stroke-width="1.12" stroke-linecap="round" stroke-linejoin="round"/>
<path d="M184.64 269.79C184.592 270.462 184.278 271.088 183.768 271.529C183.257 271.97 182.593 272.19 181.92 272.14C181.244 272.093 180.613 271.784 180.16 271.28C179.426 270.407 179.364 269.152 180.008 268.211C180.652 267.27 181.845 266.873 182.924 267.241C184.003 267.609 184.705 268.651 184.64 269.79V269.79Z" fill="white"/>
<path d="M174.33 282.36C174.33 282.36 176.44 274.74 180.16 271.3" stroke="#00886F" stroke-width="1.12" stroke-linecap="round" stroke-linejoin="round"/>
<path d="M278.389 275.1C298.702 275.1 315.169 270.072 315.169 263.87C315.169 257.668 298.702 252.64 278.389 252.64C258.076 252.64 241.609 257.668 241.609 263.87C241.609 270.072 258.076 275.1 278.389 275.1Z" fill="url(#paint2_linear)"/>
<path fill-rule="evenodd" clip-rule="evenodd" d="M252.12 272.76C259.16 274.9 268.5 276.09 278.42 276.09C288.32 276.09 297.66 274.9 304.71 272.76C312.19 270.46 316.19 267.39 316.19 263.87C316.19 260.35 312.22 257.28 304.71 254.98C297.68 252.84 288.34 251.65 278.42 251.65C268.5 251.65 259.12 252.84 252.12 254.98C244.64 257.28 240.64 260.35 240.64 263.87C240.64 267.39 244.61 270.46 252.12 272.76ZM252.69 256.87C259.55 254.78 268.69 253.63 278.42 253.63C288.13 253.63 297.26 254.78 304.14 256.87C310.45 258.8 314.21 261.41 314.21 263.87C314.21 266.33 310.45 268.94 304.14 270.87C297.28 272.96 288.15 274.11 278.42 274.11C268.69 274.11 259.55 272.96 252.69 270.87C246.39 268.94 242.62 266.32 242.62 263.87C242.62 261.42 246.39 258.8 252.69 256.87Z" fill="#37DD9E"/>
<defs>
<linearGradient id="paint0_linear" x1="180.69" y1="217.885" x2="282.47" y2="217.885" gradientUnits="userSpaceOnUse">
<stop stop-color="#1FB583"/>
<stop offset="0.29" stop-color="#15AF72"/>
<stop offset="1" stop-color="#00A34B"/>
</linearGradient>
<linearGradient id="paint1_linear" x1="67.5303" y1="245.713" x2="210.95" y2="245.713" gradientUnits="userSpaceOnUse">
<stop stop-color="#1FB583"/>
<stop offset="0.29" stop-color="#15AF72"/>
<stop offset="1" stop-color="#00A34B"/>
</linearGradient>
<linearGradient id="paint2_linear" x1="246.875" y1="253.392" x2="246.883" y2="272.612" gradientUnits="userSpaceOnUse">
<stop offset="0.27" stop-color="#5E5544"/>
<stop offset="1" stop-color="#383837"/>
</linearGradient>
</defs>
</svg>
