<?xml version="1.0" encoding="UTF-8"?>
<svg width="430px" height="388px" viewBox="0 0 430 388" version="1.1" xmlns="http://www.w3.org/2000/svg" xmlns:xlink="http://www.w3.org/1999/xlink">
    <!-- Generator: Sketch 60 (88103) - https://sketch.com -->
    <title>Satellite 03</title>
    <desc>Created with Sketch.</desc>
    <defs>
        <linearGradient x1="0%" y1="49.9782193%" x2="100%" y2="49.9782193%" id="linearGradient-1">
            <stop stop-color="#1FB583" offset="0%"></stop>
            <stop stop-color="#15AF72" offset="29%"></stop>
            <stop stop-color="#00A34B" offset="100%"></stop>
        </linearGradient>
        <linearGradient x1="0%" y1="50.0091177%" x2="100%" y2="50.0091177%" id="linearGradient-2">
            <stop stop-color="#1FB583" offset="0%"></stop>
            <stop stop-color="#15AF72" offset="29%"></stop>
            <stop stop-color="#00A34B" offset="100%"></stop>
        </linearGradient>
        <linearGradient x1="49.9456226%" y1="45.6458659%" x2="50.0543774%" y2="53.6236025%" id="linearGradient-3">
            <stop stop-color="#5E5544" offset="27%"></stop>
            <stop stop-color="#383837" offset="100%"></stop>
        </linearGradient>
    </defs>
    <g id="Page-1" stroke="none" stroke-width="1" fill="none" fill-rule="evenodd">
        <g id="Home-Refresh" transform="translate(-54.000000, -773.000000)">
            <g id="Hero-section">
                <g id="Group-4" transform="translate(54.000000, 120.000000)">
                    <g id="Satellite-03" transform="translate(0.000000, 653.000000)">
                        <g id="Layer_27" opacity="0.7" transform="translate(0.000000, 55.000000)">
                            <g id="Illustration">
                                <polyline id="Path" stroke="#B88DFC" stroke-width="0.45" points="173.08 82.55 114.7 82.55 114.7 108.7 63.82 108.7 63.82 133.66 122.98 133.66 122.98 181.35 38.17 181.35"></polyline>
                                <ellipse id="Oval" stroke="#B88DFC" stroke-width="0.91" cx="122.98" cy="133.67" rx="13.37" ry="13.01"></ellipse>
                                <ellipse id="Oval" stroke="#B88DFC" stroke-width="0.91" cx="13.82" cy="205.92" rx="13.37" ry="13.01"></ellipse>
                                <ellipse id="Oval" stroke="#B4A7D1" stroke-width="1.82" opacity="0.3" cx="311.31" cy="119.53" rx="7.28" ry="7.14"></ellipse>
                                <ellipse id="Oval" stroke="#B4A7D1" stroke-width="1.82" opacity="0.4" cx="272.25" cy="7.6" rx="7.28" ry="7.14"></ellipse>
                                <line x1="388.34" y1="91" x2="319.59" y2="91" id="Path" stroke="#B88DFC" stroke-width="0.45" stroke-linecap="round" stroke-linejoin="round"></line>
                                <polyline id="Path" stroke="#B88DFC" stroke-width="0.45" stroke-linecap="round" stroke-linejoin="round" points="38.17 181.37 38.17 205.92 13.82 205.92 13.82 158.21 38.17 158.21 38.17 133.67 38.17 88.95"></polyline>
                                <ellipse id="Oval" stroke="#B4A7D1" stroke-width="0.91" opacity="0.5" cx="271.38" cy="89.6" rx="13.33" ry="13.08"></ellipse>
                                <ellipse id="Oval" stroke="#B88DFC" stroke-width="0.91" cx="387.99" cy="90.44" rx="18.21" ry="17.88"></ellipse>
                                <ellipse id="Oval" fill="#B4A7D1" fill-rule="nonzero" cx="311.31" cy="119.53" rx="1.94" ry="1.9"></ellipse>
                                <path d="M15.77,158.21 C15.7320945,157.169243 14.871383,156.348462 13.83,156.36 C12.7073009,156.506542 11.8704765,157.467817 11.88,158.6 C11.88,159.65 12.75,160.15 13.83,160.15 C14.3461581,160.155405 14.8427514,159.952749 15.2077503,159.58775 C15.5727492,159.222751 15.7754052,158.726158 15.77,158.21 L15.77,158.21 Z" id="Path" fill="#B88DFC" fill-rule="nonzero"></path>
                                <path d="M40.12,158.91 C40.103549,157.853512 39.236557,157.008866 38.18,157.02 C37.0573009,157.166542 36.2204765,158.127817 36.23,159.26 C36.23,160.26 37.1,160.81 38.18,160.81 C38.6892238,160.815332 39.1797065,160.618143 39.5435331,160.261818 C39.9073597,159.905493 40.1147232,159.419224 40.12,158.91 L40.12,158.91 Z" id="Path" fill="#B88DFC" fill-rule="nonzero"></path>
                                <ellipse id="Oval" fill="#B4A7D1" fill-rule="nonzero" cx="301.01" cy="61.5" rx="2.57" ry="2.52"></ellipse>
                                <ellipse id="Oval" fill="#B4A7D1" fill-rule="nonzero" cx="301.01" cy="7.6" rx="2.57" ry="2.52"></ellipse>
                                <ellipse id="Oval" fill="#B4A7D1" fill-rule="nonzero" cx="272.3" cy="7.6" rx="2.57" ry="2.52"></ellipse>
                                <ellipse id="Oval" fill="#B4A7D1" fill-rule="nonzero" cx="271.75" cy="89.6" rx="2.57" ry="2.52"></ellipse>
                                <ellipse id="Oval" stroke="#B88DFC" stroke-width="0.91" opacity="0.3" cx="174.46" cy="82.3" rx="11.44" ry="11.13"></ellipse>
                                <ellipse id="Oval" fill="#8A76B5" fill-rule="nonzero" cx="174.46" cy="82.11" rx="1.95" ry="1.89"></ellipse>
                                <path d="M39.76,90.49 C40.118052,90.2094642 40.3272158,89.7798644 40.3272158,89.325 C40.3272158,88.8701356 40.118052,88.4405358 39.76,88.16 C39.0859737,87.3239271 37.8719643,87.1694168 37.01,87.81 C36.6457678,88.1606309 36.4399612,88.644424 36.4399612,89.15 C36.4399612,89.655576 36.6457678,90.1393691 37.01,90.49 C37.7812606,91.220175 38.9887394,91.220175 39.76,90.49 L39.76,90.49 Z" id="Path" fill="#B88DFC" fill-rule="nonzero"></path>
                                <path d="M40.76,182.06 C40.76,180.68 39.6,179.9 38.18,179.9 C36.76,179.9 35.6,180.68 35.6,182.06 C35.6,183.484895 36.7551053,184.64 38.18,184.64 C39.6048947,184.64 40.76,183.484895 40.76,182.06 Z" id="Path" fill="#B88DFC" fill-rule="nonzero"></path>
                                <path d="M16.49,205.92 C16.49,204.53 15.33,203.75 13.91,203.75 C12.49,203.75 11.33,204.53 11.33,205.92 C11.33,207.344895 12.4851054,208.5 13.91,208.5 C15.3348946,208.5 16.49,207.344895 16.49,205.92 Z" id="Path" fill="#B88DFC" fill-rule="nonzero"></path>
                                <polyline id="Path" stroke="#B88DFC" stroke-width="0.45" stroke-linecap="round" stroke-linejoin="round" points="387.99 44.95 387.99 150.69 417.49 150.69"></polyline>
                                <path d="M386.63,90 C386.265202,90.3523714 386.059182,90.8378083 386.059182,91.345 C386.059182,91.8521917 386.265202,92.3376286 386.63,92.69 C387.303162,93.519932 388.50983,93.6740685 389.37,93.04 C390.107693,92.1760479 390.107693,90.9039521 389.37,90.04 C388.610711,89.3047702 387.410427,89.2872478 386.63,90 Z" id="Path" fill="#B88DFC" fill-rule="nonzero"></path>
                                <ellipse id="Oval" stroke="#B88DFC" stroke-width="1.82" opacity="0.3" cx="388.34" cy="44.95" rx="7.28" ry="7.14"></ellipse>
                                <line x1="388.34" y1="44.95" x2="416.81" y2="44.95" id="Path" stroke="#B88DFC" stroke-width="0.45" stroke-linecap="round" stroke-linejoin="round"></line>
                                <path d="M386.63,43.61 C386.265202,43.9623714 386.059182,44.4478083 386.059182,44.955 C386.059182,45.4621917 386.265202,45.9476286 386.63,46.3 C387.303162,47.129932 388.50983,47.2840685 389.37,46.65 C390.107693,45.7860479 390.107693,44.5139521 389.37,43.65 C388.610711,42.9147702 387.410427,42.8972478 386.63,43.61 Z" id="Path" fill="#B88DFC" fill-rule="nonzero"></path>
                                <path d="M417.74,43.61 C417.375202,43.9623714 417.169182,44.4478083 417.169182,44.955 C417.169182,45.4621917 417.375202,45.9476286 417.74,46.3 C418.413162,47.129932 419.61983,47.2840685 420.48,46.65 C421.217693,45.7860479 421.217693,44.5139521 420.48,43.65 C419.720711,42.9147702 418.520427,42.8972478 417.74,43.61 Z" id="Path" fill="#B88DFC" fill-rule="nonzero"></path>
                                <ellipse id="Oval" stroke="#B88DFC" stroke-width="0.91" opacity="0.5" cx="416.12" cy="150.68" rx="13.33" ry="13.08"></ellipse>
                                <line x1="366.56" y1="150.68" x2="387.99" y2="150.68" id="Path" stroke="#B4A7D1" stroke-width="0.45" stroke-linecap="round" stroke-linejoin="round"></line>
                                <path d="M362.69,150.68 C362.69,151.751432 363.558568,152.62 364.63,152.62 C365.701432,152.62 366.57,151.751432 366.57,150.68 C366.57,149.68 365.7,149.13 364.63,149.13 C363.56,149.13 362.69,149.63 362.69,150.68 Z" id="Path" fill="#B88DFC" fill-rule="nonzero"></path>
                                <path d="M65.29,134.9 C66.0362043,134.039205 66.0362043,132.760795 65.29,131.9 C64.5174034,131.163492 63.3025966,131.163492 62.53,131.9 C62.1663298,132.248887 61.9607322,132.731038 61.9607322,133.235 C61.9607322,133.738962 62.1663298,134.221113 62.53,134.57 C63.2107364,135.405815 64.4314009,135.551764 65.29,134.9 Z" id="Path" fill="#B88DFC" fill-rule="nonzero"></path>
                                <path d="M65.29,109.59 C65.6542322,109.239369 65.8600388,108.755576 65.8600388,108.25 C65.8600388,107.744424 65.6542322,107.260631 65.29,106.91 C64.426264,106.262856 63.2048629,106.417744 62.53,107.26 C62.171948,107.540536 61.9627842,107.970136 61.9627842,108.425 C61.9627842,108.879864 62.171948,109.309464 62.53,109.59 C63.3025966,110.326508 64.5174034,110.326508 65.29,109.59 Z" id="Path" fill="#B88DFC" fill-rule="nonzero"></path>
                                <path d="M417.57,151.68 C417.934232,151.329369 418.140039,150.845576 418.140039,150.34 C418.140039,149.834424 417.934232,149.350631 417.57,149 C416.706264,148.352856 415.484863,148.507744 414.81,149.35 C414.455431,149.632715 414.248911,150.061516 414.248911,150.515 C414.248911,150.968484 414.455431,151.397285 414.81,151.68 C415.582597,152.416508 416.797403,152.416508 417.57,151.68 Z" id="Path" fill="#B88DFC" fill-rule="nonzero"></path>
                            </g>
                        </g>
                        <g id="Layer_3" transform="translate(170.000000, 0.000000)">
                            <g id="Illustration-2">
                                <circle id="Oval" fill="#3D9989" fill-rule="nonzero" cx="82.51" cy="81.8" r="81.8"></circle>
                                <line x1="82.51" y1="81.8" x2="82.51" y2="223.7" id="Path" stroke="#3F3B39" stroke-width="2.14" stroke-linecap="round"></line>
                                <line x1="48.08" y1="81.8" x2="82.51" y2="129.76" id="Path" stroke="#3F3B39" stroke-width="2.14" stroke-linecap="round"></line>
                                <line x1="82.51" y1="109.86" x2="104.6" y2="97.12" id="Path" stroke="#3F3B39" stroke-width="2.14" stroke-linecap="round"></line>
                            </g>
                            <g id="Illustration-3" transform="translate(90.000000, 74.000000)">
                                <circle id="Oval" fill="#39D797" fill-rule="nonzero" cx="54.07" cy="54.61" r="54.03"></circle>
                                <line x1="54.07" y1="54.61" x2="54.07" y2="148.34" id="Path" stroke="#3F3B39" stroke-width="1.41" stroke-linecap="round"></line>
                                <line x1="76.81" y1="54.61" x2="54.07" y2="86.29" id="Path" stroke="#3F3B39" stroke-width="1.41" stroke-linecap="round"></line>
                                <line x1="54.07" y1="73.15" x2="39.48" y2="64.73" id="Path" stroke="#3F3B39" stroke-width="1.41" stroke-linecap="round"></line>
                            </g>
                        </g>
                        <g id="Layer_1" transform="translate(46.000000, 211.000000)" fill-rule="nonzero">
                            <path d="M229.51,104.28 C229.73436,104.204336 229.946566,104.096549 230.14,103.96 C229.87967,103.895398 229.611381,104.031672 229.51,104.28 L229.51,104.28 Z" id="Path" fill="#988976"></path>
                            <path d="M364.62,42.36 C363.62,44.16 363.15,45.22 361.83,47.25 C359.83,50.25 363.19,46.25 361.13,49.17 C360.987974,48.391345 360.964374,47.595704 361.06,46.81 C360.95,46.94 360.84,47.07 360.72,47.19 C360.64,48.19 360.54,49.34 360.43,50.74 C360.32,52.14 358.93,54.08 358.86,52.66 C358.79,51.24 358.21,52.04 358.51,50.74 C358.7,49.89 358.05,50.26 357.51,50.45 C356.44,51.45 355.32,52.39 354.17,53.29 C350.876664,56.0605418 347.268476,58.4335548 343.42,60.36 C340.509352,61.6863575 337.53204,62.8612607 334.5,63.88 C334.06,64.39 333.63,64.88 333.2,65.42 C332.54717,66.0577176 331.844987,66.6428708 331.1,67.17 C330.86,66.6 330.65,66.17 330.49,65.74 C330.43,65.55 330.36,65.39 330.3,65.24 C327.85,65.99 325.39,66.68 322.93,67.37 C322.38,67.7 321.83,68.05 321.29,68.37 C318.61,70.18 316.17,72.37 313.49,74.18 C312.11,75.18 310.41,75.1 308.7,75.1 C306.29,75.1 307.51,72.79 305.11,73.1 C304.340823,73.290643 303.582962,73.5243445 302.84,73.8 C301.99,73.99 301.7,74.86 301.64,75.64 C301.04,74.17 299.16,76.94 299.84,74.64 C288.25,79.9 277.35,86.52 266.13,92.51 C260.21,95.67 254.02,99.2 247.53,101 C244.255401,101.877847 240.908656,102.460181 237.53,102.74 C235.04,103.74 234.71,104.74 231.23,104.74 C229.92,104.74 230.45,106.74 229.23,106.83 C229.82,106.72 229.23,104.93 229.54,104.19 C228.23,104.65 225.74,104.79 225.28,105.27 C223.68,106.9 222.21,103.88 220.7,102.65 L218.78,102.52 C218.72865,102.557999 218.681694,102.601602 218.64,102.65 C217.72,103.65 216.45,103.21 215.02,102.24 C213.8,102.14 212.57,102.06 211.35,101.98 C205.79,101.63 200.22,101.76 194.66,101.38 C186.409539,100.85004 178.206213,99.7440115 170.11,98.07 C168.24,98.81 166.62,100.51 165.04,98.76 C164.383176,98.0289403 163.781523,97.2501339 163.24,96.43 C160.74,95.76 158.24,95.03 155.83,94.21 C150.542844,92.3971929 145.35848,90.2974087 140.3,87.92 C139.927693,88.5289257 139.305575,88.9424512 138.6,89.05 C137.331333,89.4719855 135.933193,89.1475553 134.98,88.21 C133.26,86.44 131.51,84.69 129.76,82.95 C126.88,81.58 123.99,80.24 121.08,78.95 C112.033444,75.5065359 102.718617,72.8140993 93.23,70.9 C75.51,67.01 57.49,64.06 39.54,61.53 C35.07,60.9 30.61,60.24 26.19,59.32 C20.8845003,58.1526089 15.7283007,56.3880279 10.82,54.06 L10.31,53.82 C8.8925772,54.9752917 7.58987994,56.2645936 6.42,57.67 C5.42,61.67 8.85,67.81 9.2,68.14 C12.06,70.86 14.93,73.5666667 17.81,76.26 C22.1230313,80.3510532 27.2277925,83.5160052 32.81,85.56 C35.4902933,86.5159273 38.0454319,87.7918178 40.42,89.36 C45.4389192,92.7007334 50.8844125,95.351165 56.61,97.24 C58.53,97.88 60.47,98.47 62.4,99.08 L63.13,99.08 L75.13,100.7 L75.13,100.7 C79.4672392,100.884294 83.7282984,101.902874 87.68,103.7 C88.1436172,103.953882 88.5941852,104.230898 89.03,104.53 C90.71,105.53 92.36,106.53 94.03,107.4 C98.15,109.62 102.29,111.78 106.41,113.99 C110.77,116.33 115.06,118.81 119.48,120.99 C123.070812,122.640421 126.468121,124.682831 129.61,127.08 L133.96,130.63 L141.87,136.05 L147.87,139.62 C149.61,140.84 151.41,141.96 153.06,143.29 C157.37453,146.763266 162.133179,149.645359 167.21,151.86 L172.97,153.5 L172.97,153.5 L185.57,154.16 C186.01,154.16 186.45,154.27 186.89,154.33 L200.76,154.33 L200.76,154.33 C202.27,154.16 203.76,154.04 205.3,153.8 C209.07,153.2 212.83,152.53 216.6,151.89 C216.825948,151.894235 217.051401,151.867315 217.27,151.81 C221.89,149.9 226.53,148.04 231.12,146.05 C234.76,144.47 238.31,142.7 241.95,141.11 C245.08,139.74 248.3,138.56 251.45,137.21 C254.22,136.02 256.94,134.7 259.69,133.45 C262.69,132.1 265.69,130.88 268.55,129.45 C273.15,127.11 277.75,124.74 282.21,122.14 C284.281497,120.97009 286.129926,119.443274 287.67,117.63 C289.76,115.06 291.67,112.4 294.55,110.63 C297.76,108.63 301.03,106.74 304.27,104.8 C307.986227,102.870396 311.965166,101.495793 316.08,100.72 L316.08,100.72 L325.92,99.07 L326.65,98.8 L331.36,97.22 C333.77,95.98 336.17,94.72 338.6,93.5 C341.35,92.12 344.12,90.77 345.99,88.18 L350.99,82.93 C352.63,81 354.29,79.09 355.9,77.13 C357.27,75.48 358.58,73.79 359.9,72.13 C360.9,70.84 361.9,69.54 362.97,68.25 L365.89,64.51 C367.143333,61.6966667 368.386667,58.8833333 369.62,56.07 C369.75,55.79 369.92,55.52 370.07,55.25 L370.07,55.25 C370.27,53.99 370.48,52.74 370.68,51.48 L370.68,49.58 C370.63,49.58 368.1,43.24 366.35,39.83 C365.79,40.6833333 365.213333,41.5266667 364.62,42.36 Z" id="Path" fill="#988976"></path>
                            <path d="M254.74,176.45 C253.472648,176.624535 252.187352,176.624535 250.92,176.45 C249.850842,176.306782 248.813183,175.985682 247.85,175.5 C245.114634,174.344409 242.893132,172.233093 241.6,169.56 C240.326441,166.882326 239.974828,163.858457 240.6,160.96 L240.6,160.96 C240.71,160.72 240.85,160.49 240.94,160.24 C242.323055,156.012268 245.905845,152.878286 250.28,152.07 C253.193247,151.54715 256.197593,151.996924 258.83,153.35 L258.83,153.35 C259.25,153.69 259.66,154.04 260.09,154.35 C262.937579,156.493444 264.711438,159.76997 264.94954,163.326143 C265.187643,166.882316 263.866416,170.366072 261.33,172.87 C259.470362,174.599944 257.203406,175.831462 254.74,176.45 L254.74,176.45 Z" id="Path" fill="#AC967C"></path>
                            <path d="M370.66,51.5 L370.66,50.63 L369.83,50.4 C368.56,52.48 367.32,54.58 365.99,56.61 C363.99,59.61 361.99,62.61 359.92,65.54 C359.469006,66.0460993 358.946888,66.4840045 358.37,66.84 C357.22,67.71 356.32,67.41 356.24,66 C356.165971,64.6578413 356.277013,63.3118798 356.57,62 C356.91,60.54 358.16,57.63 358.16,56.12 C358.091199,55.472193 357.974208,54.8304151 357.81,54.2 C360.23,51.68 361.28,50.03 363.57,47.39 C366.09,44.5 370.77,41.39 371.96,37.78 C372.015589,38.6991603 372.015589,39.6208397 371.96,40.54 C371.96,41.81 371.89,43.08 371.86,44.35 C371.86,44.7 371.81,45.04 371.77,45.35 C371.726281,45.7362438 371.635611,46.1157127 371.5,46.48 C371.381167,46.7843237 371.29078,47.0990015 371.23,47.42 C371,48.79 370.84,50.15 370.66,51.5 Z" id="Path" fill="#AC967C"></path>
                            <path d="M208.17,1.59 L194.87,1.52 C194.645574,1.49740548 194.424272,1.45046266 194.21,1.38 L207.36,1.33 L208.17,1.59 Z" id="Path" fill="#E1F1E8"></path>
                            <path d="M357.01,22.04 L349.42,19.58 L357.01,22.04 Z" id="Path" fill="#83CBA8"></path>
                            <path d="M34.27,100.67 C34.2495522,102.600926 33.0669326,104.329031 31.2744398,105.047268 C29.4819469,105.765504 27.4332528,105.332159 26.0851238,103.94961 C24.7369949,102.56706 24.3554268,100.508094 25.1186168,98.7342747 C25.8818068,96.9604553 27.6391719,95.8217702 29.57,95.85 C32.1942737,95.893832 34.2923295,98.0454553 34.27,100.67 Z" id="Path" fill="#AC967C"></path>
                            <path d="M222.42,112.24 L225.94,112.64 C225.08,113.37 224.43,113.85 223.87,114.42 C221.56,116.78 219.26,119.17 216.98,121.56 C213.860658,124.730702 210.292591,127.426125 206.39,129.56 C204.710907,130.573535 202.658953,130.758466 200.8257,130.061478 C198.992447,129.364491 197.581639,127.863047 197,125.99 C196.1,122.92 195.42,119.8 194.56,116.72 C194.251428,115.645023 193.807896,114.613476 193.24,113.65 C192.45,112.3 191.64,112.31 190.79,113.59 C190.19,114.49 189.7,115.47 189.11,116.38 C186.48,120.44 185.65,125.17 184.18,129.67 C183.042105,133.183087 180.934422,136.303012 178.1,138.67 C177.180977,139.595607 175.742008,139.757803 174.64,139.06 C171.654262,137.332236 169.00234,135.083352 166.81,132.42 C163.05,128.25 161.64,122.95 159.73,117.88 C158.41,114.42 157.23,110.88 155.78,107.49 C154.94021,105.886803 153.991311,104.343171 152.94,102.87 C152.700581,102.394802 152.503163,101.899584 152.35,101.39 C155.81,101.74 159.29,101.95 162.72,102.47 C169.83,103.55 176.93,104.62 183.98,106.02 C191.38,107.49 198.7,109.37 206.07,111.02 C207.933731,111.387308 209.822339,111.61461 211.72,111.7 C215.23,111.88 218.8,112.04 222.42,112.24 Z" id="Path" fill="#AC967C"></path>
                            <path d="M353.49,59.64 C353.54,59.81 353.69,60.05 353.62,60.14 C352.62,61.57 351.62,63.03 350.46,64.37 C347.54,67.81 344.52,71.17 341.59,74.6 C338.66,78.03 335.99,81.33 333.15,84.66 C332.49717,85.2977176 331.794987,85.8828708 331.05,86.41 C330.81,85.85 330.6,85.41 330.44,84.98 C329.91,83.49 329.44,83.12 328.06,83.81 C325.698069,84.929643 323.41896,86.2162372 321.24,87.66 C318.56,89.48 316.12,91.66 313.44,93.48 C312.06,94.42 310.36,94.39 308.65,94.39 C306.230749,94.4789643 303.821115,94.742988 301.44,95.18 C300.29,95.35 299.17,95.76 298.03,96.02 C296.03,96.47 294.73,95.42 294.57,93.33 C294.33,90.26 295.38,87.47 296.25,84.62 L296.49,83.85 C299.8,82.14 303.49,81.66 307.02,80.85 C311.57,79.85 316.11,78.79 320.61,77.58 C322.108089,77.0628327 323.535786,76.3607415 324.86,75.49 C330.67,72.23 336.45,68.92 342.26,65.65 C345.57,63.78 348.9,61.94 352.26,60.1 C352.658252,59.9169195 353.069346,59.763177 353.49,59.64 L353.49,59.64 Z" id="Path" fill="#AC967C"></path>
                            <path d="M144.42,97.36 C144.51,100.93 143.42,107.92 143.3,111.49 C143.23,114.41 142.84,117.32 142.49,120.22 C142.466685,121.454519 141.575149,122.500923 140.36,122.72 C139.089478,123.139436 137.691064,122.81108 136.74,121.87 C133.29,118.35 129.74,114.87 126.29,111.4 C121.886525,106.790427 118.180666,101.561796 115.29,95.88 C114.16,93.78 112.98,89.83 111.8,87.76 C116.01,89.54 120.37,91.13 124.55,93 C129.4,95.16 133.83,94.67 139.05,95.79 C140.19,96.01 143.12,97.19 144.42,97.36 Z" id="Path" fill="#AC967C"></path>
                            <path d="M283.67,88.75 C281.92,90.92 280.16,93.09 278.41,95.27 C275.51,98.89 271.75,101.46 267.86,103.87 C263.407284,106.817176 259.490922,110.503561 256.28,114.77 C253.86026,117.691604 251.233481,120.435352 248.42,122.98 C246.87,124.42 246.19,124.17 244.82,122.54 C243.6,121.09 242.38,119.64 241.27,118.11 C239.61,115.82 239.59,113.24 240.19,110.61 C240.38,109.78 240.65,108.96 240.88,108.14 C243.287241,107.5016 245.649162,106.703157 247.95,105.75 C251.04,104.25 253.95,102.31 256.95,100.63 C264.43,96.42 271.95,92.42 280.25,89.87 C281.36,89.52 282.52,89.13 283.67,88.75 Z" id="Path" fill="#AC967C"></path>
                            <path d="M67.25,77.61 C67.07,79.21 66.92,80.83 66.69,82.43 C66.38,84.55 66.46,86.78 65.31,88.71 C64.611107,90.011113 63.7764574,91.2345954 62.82,92.36 C61.7304299,93.3792304 60.1412997,93.6578187 58.77,93.07 C56.77,92.43 54.77,91.81 52.77,91 C49,89.45 46.28,86.56 43.88,83.42 C41.48,80.28 39.39,76.99 37.18,73.74 C36.8045014,72.8810347 36.493638,71.9952409 36.25,71.09 C40.44,71.65 44.65,72.17 48.84,72.77 C54.24,73.54 59.63,74.37 65.03,75.18 C65.42,75.28 66.86,77.51 67.25,77.61 Z" id="Path" fill="#AC967C"></path>
                            <path d="M96.52,82.13 C95.39,84.67 92.02,89.22 90.82,91.74 C90.18,93.09 89.59,93.2 88.55,92.19 C85.07,88.81 81.29,82.64 78.65,78.56 C78.53,78.36 78.78,77.92 78.85,77.56 C81.85,78.26 84.93,78.89 87.93,79.69 C89.84,80.23 94.65,81.47 96.52,82.13 Z" id="Path" fill="#AC967C"></path>
                            <path d="M28.78,70.36 C28.68,71.25 30.05,74.25 29.86,75.12 C29.695308,76.0384837 29.0958219,76.8202511 28.2515064,77.217576 C27.4071909,77.614901 26.4227005,77.5785344 25.61,77.12 C22.7,75.52 18.97,71.17 17.07,68.46 L24.65,69.71 C26.03,69.88 27.42,70.12 28.78,70.36 Z" id="Path" fill="#AC967C"></path>
                            <path d="M8.25,66.99 C7.03,65.2 5.46,63.56 4.65,61.61 C3.2020007,58.1479049 2.04141603,54.5725014 1.18,50.92 C0.08,46.09 1.66,41.65 4.31,37.63 C7.22439539,32.9534332 11.1465456,28.9868684 15.79,26.02 C19.6545192,23.7274891 23.7591251,21.866332 28.03,20.47 C33.46,18.62 38.9,16.77 44.62,16.25 C55.02,15.31 64.92,11.91 75.21,10.45 C80.21,9.75 85.12,8.66 90.12,8.07 C96.19,7.36 102.3,7.07 108.39,6.47 C112.86,6.05 117.32,5.47 121.78,5.03 C122.1,5.03 122.41,4.94 122.73,4.93 C128.85,4.72 134.97,4.58 141.09,4.28 C147.56,3.96 154.03,3.46 160.5,3.08 C165.71,2.77 170.93,2.5 176.14,2.24 C182.14,1.94 188.163333,1.65333333 194.21,1.38 C194.424272,1.45046266 194.645574,1.49740548 194.87,1.52 L208.17,1.59 C213.57,1.78 218.97,1.91 224.36,2.18 C228.98,2.42 233.6,2.7 238.2,3.18 C246.63,4.04 255.05,5.04 263.48,5.98 C274.42,7.17 285.42,7.89 296.42,8.52 C304.116406,9.08939578 311.746659,10.3443716 319.22,12.27 C329.06,14.6233333 338.893333,16.99 348.72,19.37 C348.94,19.43 349.15,19.51 349.36,19.58 L357,22.04 C361,23.51 364.86,25.31 368,28.34 C370.555376,30.828407 372,34.2431932 372,37.81 C371.23,42.66 368.46,46.45 365.36,50.01 C363.05,52.66 360.51,55.11 358.07,57.65 L353.48,59.65 C353.049143,59.7717783 352.627973,59.9255386 352.22,60.11 C348.89,61.95 345.56,63.79 342.22,65.66 C336.41,68.93 330.63,72.24 324.82,75.5 C323.495786,76.3707415 322.068089,77.0728327 320.57,77.59 C316.07,78.8 311.57,79.83 306.98,80.86 C303.41,81.67 299.76,82.15 296.45,83.86 C294.51,84.68 292.58,85.56 290.61,86.31 C288.31,87.18 285.96,87.95 283.61,88.76 C282.46,89.14 281.3,89.53 280.14,89.88 C271.89,92.43 264.32,96.43 256.84,100.64 C253.84,102.32 250.98,104.26 247.84,105.76 C245.539162,106.713157 243.177241,107.5116 240.77,108.15 C239.67,108.51 238.56,108.88 237.45,109.23 C233.78,110.38 230.28,112.23 226.31,112.23 C224.96,112.23 223.61,112.23 222.26,112.23 C218.69,112.03 215.12,111.87 211.56,111.61 C209.662339,111.52461 207.773731,111.297308 205.91,110.93 C198.54,109.32 191.22,107.44 183.82,105.93 C176.82,104.53 169.67,103.46 162.56,102.38 C159.13,101.86 155.65,101.65 152.19,101.3 L142.92,100.68 C141.656439,100.622527 140.397489,100.488952 139.15,100.28 C133.996293,99.0206015 128.988898,97.2241064 124.21,94.92 C120.03,93.06 115.79,91.34 111.57,89.56 L94.14,84.06 C92.27,83.4 90.43,82.63 88.52,82.11 C85.52,81.31 82.47,80.69 79.44,79.98 C77.65,79.6 75.85,79.18 74.05,78.83 C71.75,78.38 69.44,77.98 67.14,77.56 C66.7518436,77.4433686 66.3580004,77.3465766 65.96,77.27 C60.57,76.46 55.18,75.63 49.78,74.86 C45.59,74.26 41.38,73.73 37.18,73.17 L30.06,72.4 L25.94,71.7 L18.36,70.45 L8.25,66.99 Z" id="Path" fill="#2EBF8B"></path>
                        </g>
                        <g id="Layer_6" transform="translate(63.000000, 135.000000)">
                            <g id="Illustration-4" transform="translate(199.000000, 43.000000)">
                                <path d="M32.3,6.49 C32.3,6.49 18.57,10.88 9.73,31.62 L6.42,38.56 C6.42,38.56 23.3,25.91 27.82,16.2 L32.3,6.49 Z" id="Path" fill="#258864" fill-rule="nonzero"></path>
                                <path d="M35.56,28.89 C35.56,28.89 23.56,22.3 6.56,38.58 C6.56,38.58 11.63,41.39 20.62,35.8 C29.61,30.21 30.31,27.11 35.56,28.89 Z" id="Path" fill="#258864" fill-rule="nonzero"></path>
                                <path d="M4.23,0.08 C4.23,0.08 14.73,19.08 6.59,38.63 C6.59,38.63 -4.32,17.67 4.23,0.08 Z" id="Path" fill="#258864" fill-rule="nonzero"></path>
                                <path d="M27.36,11.74 C27.36,11.74 15.57,29 10.6,32.96" id="Path" fill="#3CB889" fill-rule="nonzero"></path>
                                <path d="M3.97,8.67 C3.97,8.67 9.4,24.17 6.14,35.05" id="Path" stroke="#3CB889" stroke-width="0.32" stroke-linecap="round" stroke-linejoin="round"></path>
                                <path d="M24.61,30.76 C24.61,30.76 14.26,33.62 7.7,36.89" id="Path" fill="#3CB889" fill-rule="nonzero"></path>
                            </g>
                            <g id="Illustration-5" transform="translate(0.000000, 5.000000)" fill-rule="nonzero">
                                <path d="M10.8,57.49 C9.92259802,56.4089663 8.855071,55.4973321 7.65,54.8 C6.63131449,54.0615837 5.42529562,53.6249217 4.17,53.54 C2.81436088,53.519711 1.58943936,54.3456353 1.1,55.61 C0.873385674,56.553949 1.0278794,57.549176 1.53,58.38 C2.9513176,61.0110442 5.82840288,62.5148852 8.8,62.18 C9.71,62.07 11.74,62.02 12.18,60.95 C12.62,59.88 11.34,58.2 10.8,57.49 Z" id="Path" fill="#EE9EAF"></path>
                                <path d="M9.36,65.54 C8.90379708,65.5894262 8.45639426,65.7004359 8.03,65.87 C7.47293301,66.1316684 7.05951948,66.6255696 6.9,67.22 C6.74219422,67.7967495 6.9107952,68.4136758 7.34,68.83 C8.12675381,69.306716 9.11324619,69.306716 9.9,68.83 C10.6108781,68.4966599 11.281803,68.084041 11.9,67.6 C12.52,67.14 16.44,63.75 14.96,63.07 C14.42,62.82 10.36,65.36 9.36,65.54 Z" id="Path" fill="#EE9EAF"></path>
                                <path d="M13.76,59 C13.3653802,57.5549597 13.4531577,56.0206088 14.01,54.63 C14.1805307,54.2394967 14.4713261,53.9136658 14.84,53.7 C15.5416413,53.4035133 16.3519157,53.717882 16.67,54.41 C16.9626734,55.1163216 16.9910742,55.9044443 16.75,56.63 C16.55,57.38 16.23,58.09 16.02,58.83 C15.7984275,59.6573425 15.7339803,60.5189006 15.83,61.37 C15.97,62.55 15.83,63.93 14.76,62.9 C14.12,62.26 13.94,59.91 13.76,59 Z" id="Path" fill="#EE9EAF"></path>
                                <path d="M22.2,68.97 C21.81,69.09 21.41,69.13 21.03,69.27 C20.224193,69.7067424 19.4430136,70.1874682 18.69,70.71 C17.7641239,71.0457662 16.8191276,71.3262598 15.86,71.55 C14.8618734,71.8283011 14.1358442,72.6892211 14.03,73.72 C14.1325735,74.6225488 14.9017071,75.3009419 15.81,75.29 C16.7113312,75.2393558 17.5821368,74.9456317 18.33,74.44 C19.5524222,73.8021253 20.6286035,72.9166597 21.49,71.84 C21.8909758,71.1851237 22.3248651,70.5509779 22.79,69.94 C23.46,69.2 24.37,68.73 24.79,67.78 C24.02,67.23 23.07,68.71 22.2,68.97 Z" id="Path" fill="#EE9EAF"></path>
                                <path d="M22.15,56.74 C22.2447654,56.2962918 22.5201806,55.91216 22.91,55.68 C23.1327157,55.5981369 23.3772843,55.5981369 23.6,55.68 C24.253479,55.9414651 24.7335568,56.5115574 24.88,57.2 C25.0383757,57.905882 25.0621246,58.635311 24.95,59.35 C24.840727,60.4472061 24.6603478,61.5361621 24.41,62.61 C24,64.41 23.6,66.07 24.19,67.79 C21.75,65.28 21,60.23 22.15,56.74 Z" id="Path" fill="#EE9EAF"></path>
                                <path d="M32.48,71.58 C30.48,72.7066667 28.5466667,73.9333333 26.68,75.26 C26.1627128,75.5972126 25.6862069,75.9931823 25.26,76.44 C24.6860894,77.096086 24.317504,77.9062784 24.2,78.77 C24.1147022,79.1576864 24.1943928,79.5633842 24.42,79.89 C24.7155022,80.1864423 25.1546558,80.2874865 25.55,80.15 C25.9534475,80.0053327 26.3289435,79.7922134 26.66,79.52 C28.1053348,78.58008 29.3943272,77.419312 30.48,76.08 C31.48,74.72 32.19,72.94 33.7,72.35 C33.9241137,72.283553 34.1390961,72.1894982 34.34,72.07 C35.65,71.15 33.02,71.27 32.48,71.58 Z" id="Path" fill="#EE9EAF"></path>
                                <path d="M31.3,63.94 C31.07,62.37 30.95,60.57 31.97,59.29 C33.39,58.65 34.97,59.76 35.42,61.24 C35.7261567,62.7981437 35.5264458,64.4133495 34.85,65.85 C34.35,67.17 32.74,69.97 33.7,71.19 C31.76,72.19 31.48,65.19 31.3,63.94 Z" id="Path" fill="#EE9EAF"></path>
                                <path d="M36.63,79.13 C35.8896253,79.6865437 35.3183924,80.4378015 34.98,81.3 C34.6417094,82.1515749 35.0051839,83.1208401 35.82,83.54 C36.6087683,83.6583784 37.4068482,83.3948265 37.97,82.83 C39.4004111,81.6992615 40.5875131,80.2910659 41.46,78.69 C41.8051484,77.9697908 42.2169441,77.2834647 42.69,76.64 C43.195483,76.0518134 43.9161609,75.6914744 44.69,75.64 C43.1,74.39 42.51,73.91 41.87,71.75 C41.23,69.59 40.71,67.31 41.55,65.07 C41.83,64.32 42.44,63.52 43.18,63.6 C43.6848587,63.7352896 44.091811,64.1086404 44.27,64.6 C44.9876235,66.2030095 45.0698299,68.0187003 44.5,69.68 C43.9306816,70.9505269 43.55323,72.2985683 43.38,73.68 C43.4202783,74.0707651 43.4000404,74.4654051 43.32,74.85 C43.06,75.72 40.45,76.47 39.68,76.95 C38.6144053,77.6056547 37.5953187,78.334051 36.63,79.13 L36.63,79.13 Z" id="Path" fill="#EE9EAF"></path>
                                <path d="M50.6,80.02 C50.2324423,80.2737002 49.8817078,80.5509475 49.55,80.85 C48.633378,81.4621752 47.6504659,81.9687271 46.62,82.36 C45.569783,82.765769 44.6549239,83.4588441 43.98,84.36 C43.2863651,85.2620761 43.2863651,86.5179239 43.98,87.42 C44.135754,87.5784077 44.3398214,87.6804415 44.56,87.71 C44.8228811,87.7013892 45.0785539,87.6219233 45.3,87.48 C46.960467,86.5980791 48.4262834,85.3907362 49.61,83.93 C50.0836923,83.2911529 50.6016311,82.686334 51.16,82.12 C51.69,81.64 53.3,80.83 52.88,79.98 C52.46,79.13 51.12,79.7 50.6,80.02 Z" id="Path" fill="#EE9EAF"></path>
                                <path d="M51.49,73.77 C51.2989699,72.4784421 51.4578211,71.1592867 51.95,69.95 C51.9994628,69.786412 52.1152823,69.6510762 52.2692655,69.5769361 C52.4232488,69.502796 52.6012718,69.4966521 52.76,69.56 C53.2993914,69.6119664 53.8127891,69.8166316 54.24,70.15 C54.8303121,70.847034 55.1435413,71.7368897 55.12,72.65 C55.2933661,73.8227106 55.2663149,75.0163473 55.04,76.18 C54.74,77.34 53.88,80.47 52.38,79.23 C51.33,78.36 51.58,75.09 51.49,73.77 Z" id="Path" fill="#EE9EAF"></path>
                                <path d="M60.31,84.49 C59.5577283,84.424648 58.8002409,84.523599 58.09,84.78 C57.09,85 56.16,84.97 55.2,85.17 C54.1881599,85.3339503 53.3053871,85.9482131 52.8,86.84 C52.36,87.77 52.8,89.08 53.8,89.13 C54.187584,89.1165405 54.5656785,89.0065493 54.9,88.81 C56.3271897,88.1152435 57.7068673,87.3268563 59.03,86.45 C59.318283,86.2094123 59.6619678,86.0444436 60.03,85.97 C61.66,85.85 60.32,84.55 60.03,83.97 C59.5604143,82.4574309 59.4038983,80.8650512 59.57,79.29 C59.576556,78.7302785 59.7208,78.1807775 59.99,77.69 C60.2609368,77.1994403 60.8233075,76.946781 61.37,77.07 C61.87,77.27 62.06,77.89 62.13,78.46 C62.4013571,80.8688747 61.7590262,83.2918897 60.33,85.25" id="Path" fill="#EE9EAF"></path>
                                <path d="M41.36,73.36 C31.01,69.05 20.09,65.79 10.68,59.69 C11.4508953,61.2317247 12.7192561,62.4683765 14.28,63.2 C23.2,68.43 33.35,71.15 42.88,75.2 C47.829569,77.2103526 52.5036608,79.8414193 56.79,83.03 C58.8901076,84.6350177 60.8231988,86.4475002 62.56,88.44 C64.16,90.29 65.27,92.88 66.91,94.53 C69.91,91 60.28,84.13 58.13,82.53 C52.9409901,78.7911688 47.3079173,75.7109495 41.36,73.36 L41.36,73.36 Z" id="Path" fill="#EE9EAF"></path>
                                <path d="M13.9,7.76 C13.2831038,6.14630255 12.3822184,4.65611628 11.24,3.36 C10.3262125,2.09409673 9.07543808,1.11010802 7.63,0.52 C6.0495728,-0.0372663394 4.28930909,0.449700039 3.22,1.74 C2.58473189,2.76340806 2.38321718,3.99768566 2.66,5.17 C3.31729184,8.81795698 6.11491246,11.7064608 9.74,12.48 C10.86,12.7 13.26,13.48 14.19,12.36 C15.12,11.24 14.26,8.8 13.9,7.76 Z" id="Path" fill="#CC4EEA"></path>
                                <path d="M9.1,16.64 C8.54492176,16.5219311 7.97660551,16.4782144 7.41,16.51 C6.65693958,16.6030166 5.98163783,17.0191485 5.56,17.65 C5.14389663,18.2675753 5.10536447,19.0651909 5.46,19.72 C6.02,20.66 7.33,20.84 8.46,20.72 C9.44096762,20.6153729 10.4070461,20.4006888 11.34,20.08 C12.25,19.78 18.15,17.35 16.68,15.96 C16.13,15.45 10.35,16.81 9.1,16.64 Z" id="Path" fill="#CC4EEA"></path>
                                <path d="M16.8,10.7 C16.8976675,8.85852123 17.6007394,7.1008415 18.8,5.7 C19.1532489,5.30715644 19.6227195,5.03738604 20.14,4.93 C21.0754198,4.87001289 21.8954158,5.54968869 22.01,6.48 C22.0843327,7.42295875 21.8143205,8.36089594 21.25,9.12 C20.73,9.92 20.07,10.63 19.54,11.43 C18.9554731,12.3106863 18.544763,13.2950329 18.33,14.33 C18.05,15.77 17.33,17.33 16.49,15.7 C15.97,14.66 16.66,11.84 16.8,10.7 Z" id="Path" fill="#CC4EEA"></path>
                                <path d="M22.87,25.71 C22.37,25.71 21.87,25.6 21.38,25.61 C20.2652869,25.7989321 19.1632163,26.0560819 18.08,26.38 C16.8587071,26.4105146 15.6366712,26.3704478 14.42,26.26 C13.19,26.26 11.76,26.89 11.42,28.08 C11.2028524,29.1816426 11.8424569,30.2719752 12.91,30.62 C13.9861089,30.9202997 15.1238911,30.9202997 16.2,30.62 C17.8847852,30.3556214 19.4938675,29.7351702 20.92,28.8 C21.69,28.25 22.36,27.55 23.18,27.08 C24.26,26.48 25.51,26.29 26.38,25.34 C25.68,24.36 24,25.75 22.87,25.71 Z" id="Path" fill="#CC4EEA"></path>
                                <path d="M27.54,11.36 C27.8209172,10.8812226 28.2881832,10.5407343 28.83,10.42 C29.1263526,10.4123272 29.4161802,10.5077583 29.65,10.69 C30.3107915,11.258323 30.6539466,12.1124809 30.57,12.98 C30.4774905,13.8686035 30.2233124,14.7328091 29.82,15.53 C29.2678631,16.7757469 28.6365731,17.9848842 27.93,19.15 C26.75,21.09 25.64,22.89 25.67,25.15 C23.77,21.2 24.83,14.98 27.54,11.36 Z" id="Path" fill="#CC4EEA"></path>
                                <path d="M33.95,32.81 C31.1766667,33.3633333 28.43,34.0466667 25.71,34.86 C24.9738493,35.0544738 24.2625085,35.3329704 23.59,35.69 C22.6476703,36.2247931 21.8907091,37.034079 21.42,38.01 C21.1728878,38.4327889 21.1045075,38.9366433 21.23,39.41 C21.4655914,39.8755751 21.9483911,40.1636975 22.47,40.15 C23.0009152,40.1481584 23.5267386,40.0463862 24.02,39.85 C26.0868254,39.3362337 28.0583252,38.4956456 29.86,37.36 C31.55,36.15 33.08,34.36 35.09,34.25 C35.3788606,34.2586366 35.6676887,34.2317688 35.95,34.17 C37.84,33.55 34.7,32.67 33.95,32.81 Z" id="Path" fill="#CC4EEA"></path>
                                <path d="M35.51,23.36 C35.84,21.42 36.4,19.25 38.1,18.15 C40.02,17.96 41.46,19.89 41.4,21.79 C41.34,23.69 40.19,25.46 38.95,26.99 C37.85,28.34 34.88,30.99 35.53,32.8 C32.87,33.25 35.25,24.92 35.51,23.36 Z" id="Path" fill="#CC4EEA"></path>
                                <path d="M35.91,43.36 C34.8291921,43.7259154 33.8705604,44.3834606 33.14,45.26 C32.3853865,46.1361432 32.437818,47.4469287 33.26,48.26 C34.1360948,48.7222669 35.1839052,48.7222669 36.06,48.26 C38.1781248,47.4960713 40.1202451,46.3124322 41.77,44.78 C42.4449438,44.0607809 43.1960156,43.4170051 44.01,42.86 C44.8139771,42.3836413 45.7733592,42.2435068 46.68,42.47 C45.29,40.36 44.79,39.57 44.87,36.79 C44.95,34.01 45.21,31.11 47.07,28.79 C47.69,28.03 48.71,27.33 49.55,27.72 C50.0885984,28.0505834 50.4263321,28.6284833 50.45,29.26 C50.6676251,31.4003778 50.0674545,33.5438445 48.77,35.26 C47.77,36.66 46.45,37.89 45.92,39.49 C45.8177023,39.9627464 45.6458312,40.4176995 45.41,40.84 C44.75,41.76 41.41,41.61 40.31,41.84 C38.8092044,42.2418818 37.3388401,42.7498258 35.91,43.36 L35.91,43.36 Z" id="Path" fill="#CC4EEA"></path>
                                <path d="M52,49.84 C51.462471,49.9783985 50.9346581,50.152109 50.42,50.36 C49.1173054,50.7367326 47.7746697,50.9582675 46.42,51.02 C45.0336221,51.0818808 43.6925826,51.5323592 42.55,52.32 C41.3912697,53.1177796 40.915018,54.595802 41.39,55.92 C41.5124565,56.1672911 41.7127089,56.3675435 41.96,56.49 C42.2864041,56.5861194 42.6335959,56.5861194 42.96,56.49 C45.2496957,56.1036076 47.4391753,55.2638538 49.4,54.02 C50.1983737,53.447325 51.0410306,52.9390557 51.92,52.5 C52.72,52.14 54.92,51.82 54.76,50.67 C54.58,49.75 52.73,49.67 52,49.84 Z" id="Path" fill="#CC4EEA"></path>
                                <path d="M55.42,42.85 C55.6902543,41.2636408 56.3808985,39.7787558 57.42,38.55 C57.541032,38.4053558 57.7005013,38.2978873 57.88,38.24 C58.1097884,38.2200075 58.3394232,38.2800658 58.53,38.41 C59.1417842,38.6844487 59.6647616,39.1243039 60.04,39.68 C60.4647459,40.7277605 60.4896581,41.8950724 60.11,42.96 C59.8624357,44.4035383 59.3685784,45.7937805 58.65,47.07 C57.85,48.32 55.65,51.66 54.35,49.61 C53.49,48.17 55.05,44.43 55.42,42.85 Z" id="Path" fill="#CC4EEA"></path>
                                <path d="M61.69,58.9 C60.8326306,58.5286695 59.9038813,58.3511145 58.97,58.38 C57.76,58.25 56.62,57.83 55.41,57.7 C54.1644983,57.4879161 52.8903255,57.8561742 51.95,58.7 C51.08,59.62 51.11,61.35 52.22,61.78 C52.6868724,61.8906019 53.1731276,61.8906019 53.64,61.78 C55.5874965,61.5298477 57.5154093,61.1456016 59.41,60.63 C59.853196,60.4632698 60.3314369,60.4116611 60.8,60.48 C62.8,60.98 61.69,58.92 61.65,58.1 C61.6774677,56.1404601 62.1062924,54.2073458 62.91,52.42 C63.1297322,51.7654451 63.5115946,51.1771705 64.02,50.71 C64.5285982,50.2377111 65.2902771,50.1640003 65.88,50.53 C66.3256491,51.0638834 66.4619718,51.7909377 66.24,52.45 C65.6287451,55.3824771 63.9366804,57.9776903 61.5,59.72" id="Path" fill="#CC4EEA"></path>
                                <path d="M43.7,38.43 C33.19,29.3 21.61,21.18 12.9,10.33 C13.01,12.5 14.39,14.28 15.77,15.86 C24.24,25.5 35.13,32.69 44.77,41.18 C49.8134571,45.4815525 54.2923614,50.4039792 58.1,55.83 C59.9627616,58.5334042 61.5411461,61.4220824 62.81,64.45 C63.96,67.24 64.28,70.72 65.57,73.3 C70.44,70.3 61.79,58.49 59.88,55.75 C55.2181503,49.3343268 49.7839142,43.5172088 43.7,38.43 L43.7,38.43 Z" id="Path" fill="#CC4EEA"></path>
                            </g>
                            <g id="Illustration_copy_4" transform="translate(291.000000, 79.000000)">
                                <path d="M0.64,11.46 C0.64,11.46 35.11,-3.7 49.7,1.54 C64.29,6.78 43.33,15.91 43.33,15.91 L23.74,23.42 L0.64,11.46 Z" id="Path" fill="#28818F" fill-rule="nonzero"></path>
                                <path d="M53.97,3.75 C53.97,3.75 20.05,16.81 13.86,18.36" id="Path" stroke="#AC88BE" stroke-width="0.41" stroke-linecap="round" stroke-linejoin="round"></path>
                                <line x1="40.63" y1="0.47" x2="31.32" y2="12.29" id="Path" stroke="#AC88BE" stroke-width="0.41" stroke-linecap="round" stroke-linejoin="round"></line>
                                <line x1="51.34" y1="11.22" x2="40.07" y2="9.04" id="Path" stroke="#AC88BE" stroke-width="0.41" stroke-linecap="round" stroke-linejoin="round"></line>
                                <line x1="41.09" y1="16.76" x2="27.61" y2="13.65" id="Path" stroke="#AC88BE" stroke-width="0.41" stroke-linecap="round" stroke-linejoin="round"></line>
                                <line x1="21.58" y1="15.81" x2="28.39" y2="2.24" id="Path" stroke="#AC88BE" stroke-width="0.41" stroke-linecap="round" stroke-linejoin="round"></line>
                                <line x1="11.06" y1="16.86" x2="15.99" y2="5.7" id="Path" stroke="#AC88BE" stroke-width="0.41" stroke-linecap="round" stroke-linejoin="round"></line>
                            </g>
                            <g id="Illustration-6" transform="translate(280.000000, 54.000000)">
                                <path d="M0.54,42.05 C0.54,42.05 31.67,3.46 51.9,0.75 C72.13,-1.96 53.15,21.36 53.15,21.36 L34.79,42.01 L0.54,42.05 Z" id="Path" fill="#0E8655" fill-rule="nonzero"></path>
                                <path d="M58.23,0.75 C58.23,0.75 26.48,36.55 20.15,42.05" id="Path" stroke="#AC88BE" stroke-width="0.54" stroke-linecap="round" stroke-linejoin="round"></path>
                                <line x1="40.65" y1="4.99" x2="36.92" y2="24.45" id="Path" stroke="#AC88BE" stroke-width="0.54" stroke-linecap="round" stroke-linejoin="round"></line>
                                <line x1="59.67" y1="11.08" x2="45.17" y2="15.34" id="Path" stroke="#AC88BE" stroke-width="0.54" stroke-linecap="round" stroke-linejoin="round"></line>
                                <line x1="51.05" y1="23.76" x2="33.41" y2="28.28" id="Path" stroke="#AC88BE" stroke-width="0.54" stroke-linecap="round" stroke-linejoin="round"></line>
                                <line x1="27.66" y1="34.46" x2="27.4" y2="14.47" id="Path" stroke="#AC88BE" stroke-width="0.54" stroke-linecap="round" stroke-linejoin="round"></line>
                                <line x1="15.99" y1="42.06" x2="15" y2="26.02" id="Path" stroke="#AC88BE" stroke-width="0.54" stroke-linecap="round" stroke-linejoin="round"></line>
                            </g>
                            <g id="Names_copy" transform="translate(116.000000, 58.000000)" fill="url(#linearGradient-1)" fill-rule="nonzero">
                                <path d="M0.69,24.89 L102.47,24.89 C102.47,24.89 94.25,3.39 74.65,11.61 C74.65,11.61 60.11,-12.99 36.09,9.74 C36.09,9.74 10.8,-7.99 0.69,24.89 Z" id="Path"></path>
                            </g>
                            <g id="Illustration-7" transform="translate(51.000000, 0.000000)">
                                <path d="M91.42,86.82 L30.65,87.89 C24.97,87.99 19.17,88.07 13.74,86.29 C8.31,84.51 3.22,80.51 1.46,74.79 C-1.38,65.6 5.9,55.44 14.77,53.12 C16.25,52.74 17.89,52.45 18.91,51.24 C19.93,50.03 20.01,47.9 19.91,46.12 C19.58,40.95 19.15,35.34 21.8,30.98 C25.33,25.16 32.8,23.91 38.07,19.77 C42.79,16.05 45.52,10.11 49.96,6.01 C56.5636486,-0.00471756908 66.2597704,-1.15796538 74.09,3.14 C81.67,7.47 86.25,17.03 85.09,26.06 C84.7003479,27.9659963 84.4927476,29.9047151 84.47,31.85 C84.89,38.8 92.18,42.43 98.15,45.36 C104.12,48.29 110.7,54.36 108.32,60.86 C107.07,64.27 103.47,66.78 103.6,70.44 C103.67,72.32 104.76,73.99 105.14,75.84 C105.97,79.96 102.92,84.07 99.23,85.65 C95.54,87.23 91.39,86.92 87.42,86.58" id="Path" fill="#8B99D1" fill-rule="nonzero"></path>
                                <line x1="59.06" y1="28.83" x2="59.06" y2="87.52" id="Path" stroke="#9BFAEB" stroke-width="0.95" stroke-linecap="round" stroke-linejoin="round"></line>
                                <polyline id="Path" stroke="#9BFAEB" stroke-width="0.95" stroke-linecap="round" stroke-linejoin="round" points="70.55 37.61 59.06 51.67 44.51 37.61"></polyline>
                                <polyline id="Path" stroke="#9BFAEB" stroke-width="0.95" stroke-linecap="round" stroke-linejoin="round" points="70.55 61.51 59.06 75.29 43.45 61.51"></polyline>
                            </g>
                            <g id="Illustration_copy_2" transform="translate(101.000000, 52.000000)">
                                <path d="M11.42,51.76 L49.99,52.4 C53.59,52.46 57.27,52.51 60.71,51.45 C64.15,50.39 67.39,48.03 68.51,44.64 C70.31,39.2 65.69,33.19 60.06,31.82 C59.095618,31.7121026 58.1843725,31.3225625 57.44,30.7 C56.8399492,29.8233377 56.6132847,28.7439832 56.81,27.7 C57.02,24.64 57.3,21.32 55.62,18.7 C53.37,15.25 48.62,14.51 45.29,12.06 C42.29,9.86 40.56,6.34 37.74,3.91 C33.4288354,0.3366313 27.4031122,-0.324152964 22.42,2.23 C17.5420219,4.90180219 14.772887,10.2660121 15.42,15.79 C15.6664778,16.9172849 15.8004678,18.0662492 15.82,19.22 C15.55,23.33 10.92,25.49 7.13,27.22 C3.34,28.95 -0.87,32.55 0.68,36.39 C1.47,38.39 3.76,39.9 3.68,42.06 C3.68,43.18 2.94,44.17 2.68,45.26 C2.15,47.7 4.09,50.14 6.43,51.07 C8.77,52 11.43,51.82 13.92,51.62" id="Path" fill="#78CEDF" fill-rule="nonzero"></path>
                                <line x1="31.88" y1="17.43" x2="31.88" y2="52.18" id="Path" stroke="#766BA8" stroke-width="0.58" stroke-linecap="round" stroke-linejoin="round"></line>
                                <polyline id="Path" stroke="#766BA8" stroke-width="0.58" stroke-linecap="round" stroke-linejoin="round" points="24.59 22.63 31.88 30.96 41.12 22.63"></polyline>
                                <polyline id="Path" stroke="#766BA8" stroke-width="0.58" stroke-linecap="round" stroke-linejoin="round" points="24.59 36.78 31.88 44.94 41.79 36.78"></polyline>
                            </g>
                            <g id="Names" transform="translate(3.000000, 75.000000)" fill="url(#linearGradient-2)" fill-rule="nonzero">
                                <path d="M0.53,35.71 L143.95,35.71 C143.95,35.71 132.37,5.43 104.75,17.01 C104.75,17.01 84.27,-17.67 50.42,14.37 C50.42,14.36 14.78,-10.64 0.53,35.71 Z" id="Path"></path>
                            </g>
                            <g id="Illustration_copy" transform="translate(20.000000, 52.000000)">
                                <path d="M17.98,79.04 L77.63,80.04 C83.21,80.13 88.89,80.21 94.22,78.57 C99.55,76.93 104.55,73.28 106.28,68.04 C109.07,59.63 101.92,50.33 93.21,48.21 C91.76,47.85 90.15,47.59 89.15,46.48 C88.15,45.37 88.07,43.48 88.15,41.79 C88.48,37.06 88.9,31.93 86.31,27.94 C82.83,22.6 75.48,21.46 70.31,17.67 C65.68,14.26 63,8.82 58.64,5.07 C51.9779482,-0.460860566 42.6629249,-1.49498936 34.95,2.44 C27.4130225,6.58920848 23.1482075,14.8972896 24.17,23.44 C24.5467086,25.1823777 24.7510267,26.9576 24.78,28.74 C24.42,35.07 17.25,38.36 11.42,41.08 C5.59,43.8 -0.92,49.36 1.42,55.27 C2.65,58.39 6.19,60.69 6.06,64.04 C5.99,65.77 4.91,67.3 4.55,68.99 C3.73,72.76 6.73,76.52 10.35,77.99 C13.97,79.46 18.04,79.15 21.93,78.84" id="Path" fill="#766AA8" fill-rule="nonzero"></path>
                                <line x1="49.69" y1="25.94" x2="49.69" y2="79.68" id="Path" stroke="#9BFAEB" stroke-width="0.9" stroke-linecap="round" stroke-linejoin="round"></line>
                                <polyline id="Path" stroke="#9BFAEB" stroke-width="0.9" stroke-linecap="round" stroke-linejoin="round" points="38.42 33.99 49.69 46.86 63.97 33.99"></polyline>
                                <polyline id="Path" stroke="#9BFAEB" stroke-width="0.9" stroke-linecap="round" stroke-linejoin="round" points="38.42 55.87 49.69 68.48 65.02 55.87"></polyline>
                            </g>
                            <g id="Illustration_copy_3" transform="translate(249.000000, 56.000000)">
                                <path d="M10.95,51 L48.95,51.63 C52.5,51.69 56.12,51.73 59.51,50.69 C62.9,49.65 66.09,47.32 67.19,43.99 C68.97,38.63 64.42,32.71 58.87,31.36 C57.9211908,31.2525509 57.0244498,30.8702195 56.29,30.26 C55.6934254,29.3818933 55.4703824,28.3026531 55.67,27.26 C55.88,24.26 56.15,20.98 54.49,18.44 C52.28,15.04 47.6,14.31 44.32,11.9 C41.37,9.73 39.66,6.27 36.89,3.9 C32.6498846,0.377077367 26.718197,-0.279813767 21.81,2.23 C17.0084015,4.86429163 14.2893302,10.1520345 14.94,15.59 C15.178833,16.698052 15.3094466,17.8266872 15.33,18.96 C15.06,22.96 10.5,25.13 6.77,26.84 C3.04,28.55 -1.07,32.09 0.42,35.84 C1.2,37.84 3.42,39.29 3.37,41.42 C3.32,42.52 2.64,43.5 2.37,44.57 C1.84,46.98 3.75,49.37 6.06,50.29 C8.37,51.21 10.96,51.03 13.44,50.84" id="Path" fill="#9886C4" fill-rule="nonzero"></path>
                                <line x1="31.15" y1="17.19" x2="31.15" y2="51.41" id="Path" stroke="#77CEDF" stroke-width="0.57" stroke-linecap="round" stroke-linejoin="round"></line>
                                <polyline id="Path" stroke="#77CEDF" stroke-width="0.57" stroke-linecap="round" stroke-linejoin="round" points="23.97 22.31 31.15 30.51 40.24 22.31"></polyline>
                                <polyline id="Path" stroke="#77CEDF" stroke-width="0.57" stroke-linecap="round" stroke-linejoin="round" points="23.97 36.25 31.15 44.28 40.91 36.25"></polyline>
                            </g>
                            <g id="Illustration-8" transform="translate(131.000000, 141.000000)">
                                <rect id="Rectangle" fill="#00886F" fill-rule="nonzero" x="17.54" y="6.52" width="1.19" height="15.78" rx="0.595"></rect>
                                <path d="M17.98,6.52 C17.98,6.52 14.98,13.81 0.17,8.73 C0.17,8.73 11.71,-5.27 17.98,4.21 C17.98,4.21 20.48,-3.73 32.84,4.21 C32.84,4.21 26.48,12.89 17.98,6.52 Z" id="Path" fill="#00886F" fill-rule="nonzero"></path>
                                <path d="M25.03,4.56 C25.03,4.56 21.15,1.94 18.14,5.61 C18.14,5.61 13.14,2.73 9.81,6.52" id="Path" stroke="#0D6D5C" stroke-width="0.99" stroke-linecap="round" stroke-linejoin="round"></path>
                            </g>
                            <g id="Illustration_copy_5" transform="translate(271.000000, 115.000000)">
                                <rect id="Rectangle" fill="#00886F" fill-rule="nonzero" x="17.71" y="6.08" width="1.19" height="15.78" rx="0.595"></rect>
                                <path d="M18.16,6.08 C18.16,6.08 15.11,13.37 0.35,8.29 C0.35,8.29 11.88,-5.71 18.16,3.77 C18.16,3.77 20.65,-4.16 33.02,3.77 C33.02,3.77 26.65,12.45 18.16,6.08 Z" id="Path" fill="#00886F" fill-rule="nonzero"></path>
                                <path d="M25.21,4.12 C25.21,4.12 21.32,1.5 18.31,5.17 C18.31,5.17 13.31,2.29 9.99,6.08" id="Path" stroke="#0D6D5C" stroke-width="0.99" stroke-linecap="round" stroke-linejoin="round"></path>
                            </g>
                            <g id="Illustration_copy_6" transform="translate(142.000000, 105.000000)">
                                <rect id="Rectangle" fill="#00886F" fill-rule="nonzero" x="13.76" y="4.42" width="1" height="11.63" rx="0.44"></rect>
                                <path d="M14.09,4.42 C14.09,4.42 11.85,9.8 0.95,6.05 C0.95,6.05 9.46,-4.29 14.09,2.72 C14.09,2.72 15.93,-3.14 25.09,2.72 C25.05,2.72 20.35,9.12 14.09,4.42 Z" id="Path" fill="#00886F" fill-rule="nonzero"></path>
                                <path d="M19.29,2.97 C17.6489303,1.86556041 15.4350378,2.20482095 14.2,3.75 C14.2,3.75 10.55,1.62 8.07,4.42" id="Path" stroke="#0D6D5C" stroke-width="0.73" stroke-linecap="round" stroke-linejoin="round"></path>
                            </g>
                            <g id="Illustration_copy_7" transform="translate(7.000000, 120.000000)">
                                <rect id="Rectangle" fill="#00886F" fill-rule="nonzero" x="12.84" y="4.97" width="1" height="11.63" rx="0.44"></rect>
                                <path d="M13.17,4.97 C13.17,4.97 10.93,10.35 0.04,6.6 C0.04,6.6 8.54,-3.74 13.17,3.27 C13.17,3.27 15.01,-2.59 24.17,3.27 C24.13,3.27 19.42,9.67 13.17,4.97 Z" id="Path" fill="#00886F" fill-rule="nonzero"></path>
                                <path d="M18.42,3.52 C16.7789303,2.41556041 14.5650378,2.75482095 13.33,4.3 C13.33,4.3 9.68,2.17 7.2,4.97" id="Path" stroke="#0D6D5C" stroke-width="0.73" stroke-linecap="round" stroke-linejoin="round"></path>
                            </g>
                            <g id="Illustration-9" transform="translate(205.000000, 157.000000)">
                                <path d="M0.89,2.58 C0.843410272,3.29745253 1.08382639,4.00401447 1.55832859,4.54415926 C2.03283079,5.08430406 2.70252503,5.41375708 3.42,5.46 C4.13364292,5.5079183 4.836514,5.26641901 5.37,4.79 C6.29115184,3.98576087 6.55678688,2.66283781 6.01749053,1.56534943 C5.47819419,0.467861054 4.26862425,-0.130158982 3.0691404,0.107664022 C1.86965655,0.345487025 0.979759861,1.35977065 0.9,2.58 L0.89,2.58 Z" id="Path" fill="#FFFFFF" fill-rule="nonzero"></path>
                                <path d="M9.93,17.36 C9.93,17.36 8.78,8.98 5.36,4.8" id="Path" stroke="#00886F" stroke-width="1.2" stroke-linecap="round" stroke-linejoin="round"></path>
                            </g>
                            <g id="Illustration_copy_8" transform="translate(195.000000, 153.000000)">
                                <path d="M0.57,3.87 C0.441775395,5.87554757 1.96312491,7.60554599 3.96861145,7.73472167 C5.97409798,7.86389735 7.70481768,6.34336841 7.8349444,4.33794336 C7.96507112,2.33251832 6.44536311,0.601077736 4.44,0.47 C3.47577229,0.406974613 2.52605261,0.729927516 1.80012846,1.36769033 C1.07420431,2.00545315 0.631653531,2.9056836 0.57,3.87 L0.57,3.87 Z" id="Path" fill="#FFFFFF" fill-rule="nonzero"></path>
                                <path d="M12.77,23.79 C12.77,23.79 11.22,12.49 6.61,6.85" id="Path" stroke="#00886F" stroke-width="1.62" stroke-linecap="round" stroke-linejoin="round"></path>
                            </g>
                            <g id="Illustration_copy_9" transform="translate(91.000000, 124.000000)">
                                <path d="M0.16,3.97 C0.0620021017,5.4434133 0.861445022,6.83071362 2.18538706,7.48472265 C3.50932911,8.13873167 5.09690135,7.93058376 6.20749822,6.95738032 C7.31809508,5.98417688 7.73288508,4.43767746 7.25836787,3.0393271 C6.78385065,1.64097673 5.51352487,0.666305717 4.04,0.57 C2.03008565,0.438637275 0.293670891,1.96023783 0.16,3.97 L0.16,3.97 Z" id="Path" fill="#FFFFFF" fill-rule="nonzero"></path>
                                <path d="M12.42,23.89 C12.42,23.89 10.87,12.59 6.25,6.95" id="Path" stroke="#00886F" stroke-width="1.62" stroke-linecap="round" stroke-linejoin="round"></path>
                            </g>
                            <g id="Illustration_copy_10" transform="translate(223.000000, 85.000000)">
                                <path d="M0.64,3.23 C0.517175936,5.1197289 1.94905512,6.75144061 3.83872692,6.87514006 C5.72839872,6.99883952 7.36077356,5.56771637 7.48534838,3.67810207 C7.6099232,1.78848777 6.17955639,0.155450152 4.29,0.03 C3.3814816,-0.0303177403 2.48626062,0.273072968 1.80160694,0.87331729 C1.11695326,1.47356161 0.699055089,2.32139865 0.64,3.23 L0.64,3.23 Z" id="Path" fill="#FFFFFF" fill-rule="nonzero"></path>
                                <path d="M12.14,21.99 C12.14,21.99 10.68,11.34 6.33,6.04" id="Path" stroke="#00886F" stroke-width="1.52" stroke-linecap="round" stroke-linejoin="round"></path>
                            </g>
                            <g id="Illustration_copy_11" transform="translate(237.000000, 85.000000)">
                                <path d="M11.25,3.16 C11.162482,4.18289718 10.4745955,5.05557593 9.50042744,5.37957379 C8.52625938,5.70357165 7.45272624,5.41672219 6.77,4.65 C6.32282099,4.14932436 6.0957866,3.48984352 6.14,2.82 C6.23388841,1.40891246 7.45391246,0.341111593 8.865,0.435 C10.2760875,0.528888407 11.3438884,1.74891246 11.25,3.16 L11.25,3.16 Z" id="Path" fill="#FFFFFF" fill-rule="nonzero"></path>
                                <path d="M0.93,15.7 C0.93,15.7 3.04,8.09 6.77,4.65" id="Path" stroke="#00886F" stroke-width="1.12" stroke-linecap="round" stroke-linejoin="round"></path>
                            </g>
                            <g id="Illustration_copy_12" transform="translate(110.000000, 132.000000)">
                                <path d="M10.64,2.79 C10.5913859,3.46249875 10.2773794,4.08807373 9.76717309,4.52887694 C9.25696682,4.96968015 8.59243143,5.18953659 7.92,5.14 C7.24392812,5.09271027 6.6127606,4.78429886 6.16,4.28 C5.42608952,3.40713214 5.36389664,2.15212667 6.00791179,1.21097452 C6.65192693,0.269822367 7.84425658,-0.126733696 8.92366804,0.24122523 C10.0030795,0.609184157 10.7049329,1.65144539 10.64,2.79 L10.64,2.79 Z" id="Path" fill="#FFFFFF" fill-rule="nonzero"></path>
                                <path d="M0.33,15.36 C0.33,15.36 2.44,7.74 6.16,4.3" id="Path" stroke="#00886F" stroke-width="1.12" stroke-linecap="round" stroke-linejoin="round"></path>
                            </g>
                            <g id="Layer_35" transform="translate(176.000000, 116.000000)" fill-rule="nonzero">
                                <ellipse id="Oval" fill="url(#linearGradient-3)" cx="38.39" cy="12.87" rx="36.78" ry="11.23"></ellipse>
                                <path d="M38.42,25.09 C28.5,25.09 19.16,23.9 12.12,21.76 C4.61,19.46 0.64,16.39 0.64,12.87 C0.64,9.35 4.64,6.28 12.12,3.98 C19.12,1.84 28.5,0.65 38.42,0.65 C48.34,0.65 57.68,1.84 64.71,3.98 C72.22,6.28 76.19,9.35 76.19,12.87 C76.19,16.39 72.19,19.46 64.71,21.76 C57.66,23.9 48.32,25.09 38.42,25.09 Z M38.42,2.63 C28.69,2.63 19.55,3.78 12.69,5.87 C6.39,7.8 2.62,10.42 2.62,12.87 C2.62,15.32 6.39,17.94 12.69,19.87 C19.55,21.96 28.69,23.11 38.42,23.11 C48.15,23.11 57.28,21.96 64.14,19.87 C70.45,17.94 74.21,15.33 74.21,12.87 C74.21,10.41 70.45,7.8 64.14,5.87 C57.26,3.78 48.13,2.63 38.42,2.63 L38.42,2.63 Z" id="Shape" fill="#37DD9E"></path>
                            </g>
                        </g>
                    </g>
                </g>
            </g>
        </g>
    </g>
</svg>