<?xml version="1.0" encoding="UTF-8"?>
<svg width="459px" height="475px" viewBox="0 0 459 475" version="1.1" xmlns="http://www.w3.org/2000/svg" xmlns:xlink="http://www.w3.org/1999/xlink">
    <!-- Generator: Sketch 60 (88103) - https://sketch.com -->
    <title>Vignette_HomeSmall04SM</title>
    <desc>Created with Sketch.</desc>
    <defs>
        <linearGradient x1="103.977201%" y1="50.0014558%" x2="4.39336366%" y2="50.0014558%" id="linearGradient-1">
            <stop stop-color="#1FB583" offset="0%"></stop>
            <stop stop-color="#15AF72" offset="29%"></stop>
            <stop stop-color="#00A34B" offset="100%"></stop>
        </linearGradient>
        <linearGradient x1="49.9376753%" y1="45.6459505%" x2="50.0545341%" y2="53.619259%" id="linearGradient-2">
            <stop stop-color="#5E5544" offset="27%"></stop>
            <stop stop-color="#383837" offset="100%"></stop>
        </linearGradient>
    </defs>
    <g id="Page-1" stroke="none" stroke-width="1" fill="none" fill-rule="evenodd">
        <g id="Home-Refresh" transform="translate(-981.000000, -1110.000000)">
            <g id="Hero-section">
                <g id="Vignette_HomeSmall04SM" transform="translate(978.000000, 1103.000000)">
                    <g id="Layer_29" transform="translate(3.000000, 32.000000)" opacity="0.5" stroke="#B88DFC">
                        <g id="Illustration">
                            <polyline id="Path" stroke-width="0.95" stroke-linecap="round" points="316.02 210.73 289.38 210.73 289.38 149.15 289.38 106.96 146.38 106.96 146.38 89.56"></polyline>
                            <polyline id="Path" stroke-width="0.95" stroke-linecap="round" points="271.22 254.45 271.22 149.15 271.22 127.16 130.96 127.16 130.96 89.47"></polyline>
                            <polyline id="Path" stroke-width="0.95" stroke-linecap="round" points="84.93 183.43 84.99 183.51 254.34 183.51 254.34 149.15 112.42 149.15 112.42 89.47"></polyline>
                            <g id="h7dm3S.tif" transform="translate(41.000000, 0.000000)" stroke-linecap="round" stroke-width="0.95">
                                <path d="M27.97,43.68 C26.66,43.81 25.28,43.9 23.91,44.09 C12.03,45.71 2.81,53.39 1.05,63.09 C-0.64,72.39 4.61,81.57 14.47,86.39 C18.8083685,88.4909046 23.5697545,89.571794 28.39,89.5504671 L178.66,89.5504671 C183.595765,89.5775126 188.462366,88.3891967 192.83,86.09 C198.48,83.09 202.44,79.02 204.62,73.85 C206.987137,68.5711669 206.697451,62.4803466 203.84,57.45 C199.96,50.29 193.13,45.94 183.84,44.17 C180.97994,43.6479297 178.058553,43.5502132 175.17,43.88 C174.44,43.96 174.09,43.82 173.78,43.27 C169.84,36.42 163.7,31.27 155.43,27.91 C148.409093,25.0363914 140.781105,23.9638667 133.24,24.79 C131.45,24.97 131.45,25 130.6,23.73 C124.79,14.97 116.29,8.5 105.19,4.36 C96.7619015,1.22120942 87.7639366,-0.0944021134 78.79,0.5 C64.75,1.38 52.86,5.95333333 43.12,14.22 C35.82,20.45 31.19,27.82 29.19,36.28 C28.64,38.7 28.38,41.17 27.97,43.68 Z" id="Path"></path>
                            </g>
                            <path d="M84.43,211.76 C99.96577,211.76 112.56,199.335902 112.56,184.01 C112.56,168.684098 99.96577,156.26 84.43,156.26 C68.89423,156.26 56.3,168.684098 56.3,184.01 C56.3,199.335902 68.89423,211.76 84.43,211.76 Z" id="Oval" stroke-width="1.56" stroke-linecap="round" stroke-dasharray="0.57"></path>
                            <path d="M14.84,249.08 C22.6051236,249.08 28.9,242.870189 28.9,235.21 C28.9,227.549811 22.6051236,221.34 14.84,221.34 C7.07487642,221.34 0.78,227.549811 0.78,235.21 C0.78,242.870189 7.07487642,249.08 14.84,249.08 Z" id="Oval" stroke-width="1.56" stroke-linecap="round" stroke-dasharray="0.78"></path>
                            <ellipse id="Oval" stroke-width="1.56" stroke-linecap="round" cx="36.44" cy="266.97" rx="8.2" ry="8.09"></ellipse>
                            <ellipse id="Oval" stroke-width="0.27" fill="#A38CC2" fill-rule="nonzero" cx="289.38" cy="210.42" rx="3.99" ry="3.94"></ellipse>
                            <ellipse id="Oval" stroke-width="0.27" fill="#A38CC2" fill-rule="nonzero" cx="289.38" cy="106.96" rx="3.09" ry="3.05"></ellipse>
                            <ellipse id="Oval" stroke-width="0.27" fill="#A38CC2" fill-rule="nonzero" cx="85.15" cy="184.17" rx="3.99" ry="3.94"></ellipse>
                            <ellipse id="Oval" stroke-width="0.27" fill="#A38CC2" fill-rule="nonzero" cx="271.22" cy="127.16" rx="3.09" ry="3.05"></ellipse>
                            <ellipse id="Oval" stroke-width="0.27" fill="#A38CC2" fill-rule="nonzero" cx="252.09" cy="127.16" rx="3.09" ry="3.05"></ellipse>
                            <ellipse id="Oval" stroke-width="0.27" fill="#A38CC2" fill-rule="nonzero" cx="131.12" cy="127.16" rx="3.09" ry="3.05"></ellipse>
                            <ellipse id="Oval" stroke-width="0.27" fill="#A38CC2" fill-rule="nonzero" cx="144.47" cy="184.01" rx="3.09" ry="3.05"></ellipse>
                            <ellipse id="Oval" stroke-width="0.27" fill="#A38CC2" fill-rule="nonzero" cx="146.38" cy="106.96" rx="3.09" ry="3.05"></ellipse>
                            <ellipse id="Oval" stroke-width="0.27" fill="#A38CC2" fill-rule="nonzero" cx="112.56" cy="148.25" rx="3.09" ry="3.05"></ellipse>
                        </g>
                        <g id="Illustration-2" transform="translate(83.000000, 237.000000)">
                            <polyline id="Path" stroke-width="0.49" points="154.43 13.76 154.43 76.28 125.65 76.28 125.65 130.78 98.19 130.78 98.19 67.42 45.71 67.42 45.71 158.24"></polyline>
                            <circle id="Oval" stroke-width="0.98" transform="translate(98.174414, 67.422542) rotate(-18.260000) translate(-98.174414, -67.422542) " cx="98.1744139" cy="67.4225424" r="14.32"></circle>
                            <circle id="Oval" stroke-width="0.98" transform="translate(18.665905, 184.315679) rotate(-18.260000) translate(-18.665905, -184.315679) " cx="18.6659048" cy="184.315679" r="14.32"></circle>
                            <polyline id="Path" stroke-width="0.49" stroke-linecap="round" stroke-linejoin="round" points="45.68 158.24 18.68 158.24 18.68 184.32 71.17 184.32 71.17 158.24 98.17 158.24 147.38 158.24"></polyline>
                            <circle id="Oval" fill="#B4A7D1" fill-rule="nonzero" cx="71.17" cy="184.32" r="2.08"></circle>
                            <circle id="Oval" fill="#B4A7D1" fill-rule="nonzero" cx="70.39" cy="158.24" r="2.08"></circle>
                            <circle id="Oval" stroke-width="0.98" opacity="0.3" cx="154.7" cy="12.28" r="12.25"></circle>
                            <circle id="Oval" fill="#8A76B5" fill-rule="nonzero" cx="154.91" cy="12.28" r="2.08"></circle>
                            <circle id="Oval" stroke-width="0.27" fill="#A38CC2" fill-rule="nonzero" cx="147.16" cy="158.02" r="2.08"></circle>
                            <circle id="Oval" stroke-width="0.27" fill="#A38CC2" fill-rule="nonzero" cx="44.92" cy="158.24" r="2.76"></circle>
                            <circle id="Oval" stroke-width="0.27" fill="#A38CC2" fill-rule="nonzero" cx="18.68" cy="184.23" r="2.76"></circle>
                            <circle id="Oval" stroke-width="0.27" fill="#A38CC2" fill-rule="nonzero" cx="98.67" cy="130.68" r="2.08"></circle>
                            <circle id="Oval" stroke-width="0.27" fill="#A38CC2" fill-rule="nonzero" cx="126.15" cy="130.68" r="2.08"></circle>
                        </g>
                        <g id="Illustration-3" transform="translate(424.000000, 125.000000)">
                            <polyline id="Path" stroke-width="0.61" stroke-linecap="round" stroke-linejoin="round" points="161.25 55.14 18.12 55.14 18.12 15.95"></polyline>
                            <circle id="Oval" stroke-width="1.22" cx="18.12" cy="17.77" r="17.71"></circle>
                            <line x1="18.12" y1="83.62" x2="18.12" y2="55.14" id="Path" stroke-width="0.61" stroke-linecap="round" stroke-linejoin="round"></line>
                            <circle id="Oval" fill="#B4A7D1" fill-rule="nonzero" cx="18.12" cy="86.2" r="2.58"></circle>
                        </g>
                    </g>
                    <g id="Layer_3" transform="translate(233.000000, 136.000000)" fill-rule="nonzero">
                        <g id="Illustration-4" transform="translate(195.000000, 54.000000)" fill="#89CCA7">
                            <path d="M52.41,2.02 L1.32,69.95 C0.283773915,71.3221315 0.113714978,73.162642 0.880980454,74.7014119 C1.64824593,76.2401819 3.22055075,77.2119105 4.94,77.2100028 L107.12,77.2100028 C108.839449,77.2119105 110.411754,76.2401819 111.17902,74.7014119 C111.946285,73.162642 111.776226,71.3221315 110.74,69.95 L59.65,2.02 C58.7942224,0.882451343 57.453507,0.213325173 56.03,0.213325173 C54.606493,0.213325173 53.2657776,0.882451343 52.41,2.02 L52.41,2.02 Z" id="Path"></path>
                        </g>
                        <g id="Illustration_copy">
                            <path d="M172.28,4.27 L250.84,126.77 C252.327301,129.089449 252.43098,132.035477 251.110411,134.453743 C249.789842,136.872009 247.255341,138.377377 244.5,138.38 L87.38,138.38 C84.6246589,138.377377 82.090158,136.872009 80.7695891,134.453743 C79.4490202,132.035477 79.5526986,129.089449 81.04,126.77 L159.6,4.27 C160.981141,2.10476751 163.371775,0.794106824 165.94,0.794106824 C168.508225,0.794106824 170.898859,2.10476751 172.28,4.27 L172.28,4.27 Z" id="Path" fill="#57A479"></path>
                            <path d="M81.19,26.63 L148.19,152.73 C149.433471,155.064493 149.360916,157.880229 147.998865,160.147584 C146.636814,162.414938 144.18501,163.800001 141.54,163.800001 L7.54,163.800001 C4.89499047,163.800001 2.44318639,162.414938 1.08113539,160.147584 C-0.280915607,157.880229 -0.353471167,155.064493 0.89,152.73 L67.89,26.63 C69.1966945,24.1701068 71.7545871,22.6324779 74.54,22.6324779 C77.3254129,22.6324779 79.8833055,24.1701068 81.19,26.63 Z" id="Path" fill="#61BB8A"></path>
                        </g>
                        <g id="Illustration-5" transform="translate(184.000000, 88.000000)" fill="#489E78">
                            <path d="M0.66,20.74 C-0.468540181,27.8775336 4.3868768,34.5839107 11.52,35.74 C12.4165785,35.8758065 13.3253642,35.9126945 14.23,35.85 L146.42,55.58 C151.902674,56.1414271 156.855801,52.2875226 157.659211,46.8350507 C158.46262,41.3825787 154.831595,36.2638189 149.42,35.22 L147.84,34.98 C149.100653,27.1406308 143.768972,19.7631232 135.93,18.5 C133.366065,18.1204188 130.747066,18.4668473 128.37,19.5 C125.849289,14.1316966 120.64145,10.5291651 114.729076,10.0638681 C108.816703,9.59857115 103.109436,12.3420964 99.78,17.25 C98.5871058,13.6057219 95.406233,10.9712279 91.6035373,10.4780091 C87.8008416,9.98479029 84.053126,11.7206296 81.97,14.94 C81.105943,10.228585 77.4303282,6.53542182 72.723082,5.64893477 C68.0158358,4.76244773 63.2486312,6.86562606 60.73,10.94 C57.56157,5.29105464 51.9637687,1.42019529 45.56,0.45 C35.9184063,-0.917081376 26.5798119,4.43808964 22.89,13.45 C20.9270328,11.325842 18.2997104,9.93283217 15.44,9.5 C8.25479801,8.52254185 1.6376207,13.5548201 0.66,20.74 Z" id="Path"></path>
                        </g>
                    </g>
                    <g id="Layer_1" transform="translate(62.000000, 257.000000)" fill-rule="nonzero">
                        <path d="M296.66,224.97 C295.66,224.74 294.6,224.56 293.59,224.27 C288.79,222.84 284.05,221.18 279.19,219.99 C273.41,218.59 267.55,217.52 261.7,216.43 C248.816601,214.167657 236.179076,210.678441 223.96,206.01 C216.42,203.01 208.85,200.11 201.11,197.74 C194.45,195.74 187.53,194.5 180.73,192.91 C175.683245,191.830143 170.837492,189.964055 166.37,187.38 C163.734765,185.823097 160.749269,184.956341 157.69,184.86 C151.64,184.58 145.59,184.35 139.54,184.01 C132.54,183.61 125.54,182.68 119.43,178.9 C117.08377,177.421383 114.918992,175.672779 112.98,173.69 C101.807834,162.325202 91.7052347,149.956381 82.8,136.74 C79.17,131.36 75.09,126.28 71.28,121.01 C69.36,118.37 67.8,115.45 65.71,112.96 C62.8406558,109.458856 59.0208013,106.861355 54.71,105.48 C46.3175971,102.704834 38.7935627,97.7899125 32.88,91.22 C29.7,87.81 26.45,84.47 23.24,81.09 C22.73,79.53 13.34,63.15 12.84,61.58 C13.8565703,62.4319663 14.8184743,63.347111 15.72,64.32 C21.18,69.32 32.6,77.18 38.1,82.11 C39.1,83.02 39.8,82.79 40.1,81.44 C40.2199281,80.7350643 40.2199281,80.0149357 40.1,79.31 C39.92,78.16 39.66,77.02 39.38,75.89 C39.15,75 42.06,74.13 42.91,73.6 C43.746106,73.0678159 44.8426636,73.2064611 45.52,73.93 C46.87,75.17 48.22,76.41 49.46,77.76 C51.3238092,79.88888 53.6220382,81.5937977 56.2,82.76 C56.4640265,82.9433536 56.800098,82.9886074 57.1032199,82.8816232 C57.4063419,82.7746389 57.6395552,82.5284612 57.73,82.22 C58.57,80.66 64.73,86.54 65.97,87.88 C67.63,89.64 69.23,91.45 70.83,93.26 C73.11,95.85 75.42,98.4 77.59,101.08 C80.1,104.18 82.4,107.45 84.91,110.54 C88.39,114.82 92.1,118.91 95.48,123.25 C99.23,128.05 100.89,132.31 104.61,137.14 C107.76,141.21 105.49,138.14 108.92,141.99 C111.48,144.84 106.62,144.25 109.46,146.84 C110.84,148.09 110.31,146.77 110.81,144.95 C100.16,127.09 110.81,145.44 110.81,144.95 C110.88,139.48 109.5,145.35 108.11,140.1 C107.17,136.51 109.49,138.27 108.38,134.72 C108.05,133.65 110.38,117.24 111.38,116.88 C111.707039,116.820814 112.043549,116.908599 112.3,117.12 C112.638393,117.477832 112.943019,117.866147 113.21,118.28 C117.38,123.77 121.43,129.38 126.63,133.98 C127.63,134.84 128.63,135.68 129.63,136.44 C130.51,137.08 131.41,136.98 131.86,135.92 C132.724749,134.15792 133.395356,132.307045 133.86,130.4 C134.6,126.23 140.94,119.04 141.48,114.84 C144.21,115.3 146.92,115.84 149.66,116.22 C153.32,116.77 156.99,117.22 160.66,117.75 C161.19,117.83 161.71,117.96 162.24,118.06 C164.614326,119.704676 167.452955,120.545751 170.34,120.46 C173.12,120.27 173.34,120.53 173.96,123.22 C174.02,123.48 174.07,123.75 174.11,124.02 C174.816878,128.59176 176.114392,133.052384 177.97,137.29 C179.43,140.61 180.92,143.93 182.53,147.19 C185,152.19 187.15,157.42 190.53,161.95 C192.76957,165.115723 195.829055,167.61171 199.38,169.17 C199.99609,169.523173 200.740777,169.571948 201.39767,169.302153 C202.054563,169.032357 202.549994,168.474249 202.74,167.79 C203.127798,166.744155 203.350462,165.644327 203.4,164.53 C203.5,162.33 203.4,160.13 203.45,157.93 C203.455105,157.430103 203.669029,156.955118 204.04,156.62 C205.48,155.75 207.04,155.09 208.48,154.22 C211.25,152.55 212.84,159.33 212.85,155.99 C213.309946,155.80318 213.785005,155.655978 214.27,155.55 C216.83,159 219.38,162.47 221.98,165.89 C223.43,167.78 226.85,169 228.98,167.42 C229.659835,167.090015 230.429011,166.991673 231.17,167.14 C232.277778,167.290609 233.371411,167.531409 234.44,167.86 C241.64,169.95 251.44,175.71 257.44,180.34 C257.957387,180.804955 258.548875,181.180128 259.19,181.45 C261.28,182.2 263.42,182.85 265.54,183.53 C265.54,183.62 265.71,179.71 265.44,183.53 C264.36,183.64 263.37,184.07 262.04,184.21 C262.398487,184.521098 262.77953,184.805209 263.18,185.06 C266.47,186.71 269.78,188.3 273.05,189.99 C274.83,190.9 276.53,191.99 278.29,192.99 C279.172601,193.600906 280.130558,194.09501 281.14,194.46 C286.79,195.89 292.42,197.46 298.14,198.46 C301.45,199.05 304.14,198.14 305.51,194.75 C306.054012,193.564349 306.668442,192.412293 307.35,191.3 C308.26,189.63 308.55,189.4 310.35,190 C314.3,191.32 317.74,190.16 320.81,187.8 C323.88,185.44 326.52,182.91 329.41,180.5 C333.09,177.43 336.99,174.6 340.46,171.31 C343.93,168.02 347.19,164.14 350.49,160.45 C353.491221,156.860213 357.297893,154.03005 361.6,152.19 C363.37,151.48 364.01,151.54 364.79,153.32 C366.31,156.81 366.94,160.42 365.73,164.17 C365.461069,164.9341 365.260286,165.720501 365.13,166.52 C364.81,168.69 365.59,169.86 367.74,170.32 C370.38,170.89 372.69,169.98 374.81,168.49 C379.32,165.32 383.81,162.17 388.29,158.91 C391.35,156.67 394.44,154.41 397.29,151.91 C400.4,149.13 403.23,146.05 406.18,143.09 C407.841852,141.381564 409.874181,140.078 412.12,139.28 C413.799836,138.655087 415.433835,137.913271 417.01,137.06 C418.94,136.06 421.23,136.44 423.15,135.33 C423.59,135.08 424.38,135.33 424.99,135.46 C425.79,135.59 426.57,135.82 427.36,135.96 C429.3,136.3 428.13,139.22 429.47,137.38 C429.82,136.89 430.78,136.33 431.23,136.49 C433.249414,137.032274 435.177105,137.871426 436.95,138.98 C439.362134,140.914308 441.656242,142.991361 443.82,145.2 C445.526689,146.8779 447.690232,148.015325 450.04,148.47 C454.678846,149.267377 459.451183,148.51533 463.62,146.33 C468.29,144.02 472.93,141.67 477.45,139.1 C479.772198,137.834563 481.897818,136.237821 483.76,134.36 C488.491577,129.179054 492.254598,123.190736 494.87,116.68 C495.8,114.53 496.68,112.62 499.1,111.9 C499.382783,111.764652 499.642603,111.585815 499.87,111.37 C503.441373,108.499089 506.583258,105.131582 509.2,101.37 L516.2,100.37 L525.35,99.05 C525.895887,99.915508 526.338884,100.841775 526.67,101.81 C527.152933,103.904389 527.516849,106.024451 527.76,108.16 C527.994232,111.266263 529.161968,114.229175 531.11,116.66 C532.4,118.17 533.45,118.32 534.91,116.97 C538.91,113.3 542.84,109.59 546.65,105.74 C549.637022,102.788793 551.878785,99.169065 553.19,95.18 C554.48,91.24 559.63,87.93 562.9,85.34 C563.106573,85.0829475 563.259581,84.7871321 563.35,84.47 C565.78,82.83 568.18,81.15 570.65,79.57 C572.33,78.5 574.1,77.57 575.84,76.57 C576.22,76.36 576.64,76.21 577.05,76.03 C578.1845,76.3874267 579.264577,76.8988653 580.26,77.55 C582.63,79.65 583.14,82.39 582.38,85.41 C581.582192,88.2116424 582.069413,91.2228911 583.71,93.63 C583.975359,94.2772491 584.559605,94.7388162 585.250693,94.8471822 C585.941782,94.9555482 586.639265,94.6949621 587.09,94.16 C588.10299,93.2173411 589.201,92.3704001 590.37,91.63 C593.61,89.87 595.22,90.63 596.08,94.19 C596.54,96.1 597.36,96.96 599.27,96.69 C601.580359,96.4265578 603.846283,95.8617578 606.01,95.01 C611.942191,92.3173669 617.471679,88.8138999 622.44,84.6 C626.13,81.6 629.68,78.47 633.28,75.38 C636.1,72.96 638.97,70.59 641.68,68.05 C645.68,64.33 649.4,60.42 653.36,56.72 C656.6,53.72 659.9,50.72 663.36,47.97 C667.51,44.7 671.91,41.74 676.14,38.57 C678.69,36.66 681.14,34.57 683.62,32.65 C684.5,31.96 682.48,43.11 683.72,43.7 C682.954123,44.7459525 682.129462,45.7475651 681.25,46.7 C673.52,54.2 667.48,62.98 661.85,72.09 C653.6,85.45 642.42,95.96 629.85,105.09 C623.886789,109.317173 617.474503,112.872101 610.73,115.69 C601.73,119.6 592.81,123.91 583.62,127.44 C569.77689,132.740734 555.404451,136.539188 540.75,138.77 C535.22,139.62 529.75,140.71 524.24,141.77 C517.49,143.07 511.53,146.27 505.68,149.7 C494.39,156.31 483.15,163.03 471.79,169.54 C466.228243,172.815736 460.260617,175.347355 454.04,177.07 C450.04,178.13 446.04,177.62 442.04,177.16 C436.17,176.48 430.3,175.69 424.41,175.25 C422.13,175.08 419.8,175.72 417.49,176.03 C417.185641,176.096369 416.9136,176.265954 416.72,176.51 C414.31,179.66 410.95,181.57 407.61,183.51 C400.97,187.34 393.78,189.84 386.61,192.34 C375.290292,196.331964 364.223282,201.007224 353.47,206.34 C352.463279,206.832424 351.488073,207.386822 350.55,208 C345.372228,211.194696 339.91678,213.915726 334.25,216.13 C324.11,220.41 313.4,222.19 302.79,224.53 C302.11,224.68 301.42,224.79 300.74,224.92 L296.66,224.97 Z" id="Path" fill="#988976"></path>
                        <path d="M518.07,105.15 C515.34,108.83 503.53,120.42 499.85,123.21 C499.622603,123.425815 499.362783,123.604652 499.08,123.74 C496.66,124.46 495.78,126.38 494.85,128.53 C492.232185,135.036504 488.469358,141.021127 483.74,146.2 C481.877818,148.077821 479.752198,149.674563 477.43,150.94 C472.91,153.51 468.27,155.87 463.6,158.17 C459.431183,160.35533 454.658846,161.107377 450.02,160.31 C447.670232,159.855325 445.506689,158.7179 443.8,157.04 C441.636148,154.834581 439.342033,152.760861 436.93,150.83 C435.159736,149.714075 433.23142,148.871279 431.21,148.33 C430.76,148.17 429.8,148.73 429.45,149.22 C428.11,151.06 426.32,151.1 424.38,150.76 C423.58,150.62 422.8,150.39 422.01,150.26 C421.39,150.16 420.61,149.88 420.17,150.14 C418.25,151.24 415.96,150.87 414.03,151.86 C412.451069,152.710575 410.817487,153.455542 409.14,154.09 C406.894825,154.890421 404.860453,156.189684 403.19,157.89 C400.25,160.89 397.42,163.94 394.31,166.71 C391.47,169.24 388.39,171.49 385.31,173.71 C380.86,176.96 376.31,180.12 371.82,183.29 C369.71,184.77 367.4,185.69 364.76,185.11 C362.61,184.65 361.83,183.49 362.14,181.31 C362.276293,180.515037 362.476954,179.732462 362.74,178.97 C363.95,175.21 363.32,171.61 361.8,168.11 C361.03,166.33 360.39,166.28 358.62,166.99 C354.316456,168.822884 350.508939,171.650248 347.51,175.24 C344.24,178.93 341.01,182.68 337.44,186.06 C333.87,189.44 330.06,192.17 326.44,195.24 C323.55,197.66 320.82,200.24 317.84,202.55 C314.86,204.86 311.33,206.07 307.38,204.74 C305.6,204.15 305.31,204.37 304.38,206.05 C303.703518,207.160044 303.092476,208.308668 302.55,209.49 C301.2,212.89 298.48,213.79 295.18,213.2 C289.45,212.2 283.82,210.61 278.18,209.2 C277.170402,208.832459 276.209854,208.342109 275.32,207.74 C273.57,206.74 271.87,205.68 270.09,204.74 C266.82,203.06 263.5,201.46 260.22,199.82 C259.81953,199.565209 259.438487,199.281098 259.08,198.97 L262.56,198.6 L262.56,198.34 C260.44,197.65 258.31,197.01 256.21,196.26 C255.600428,195.976538 255.037361,195.602284 254.54,195.15 C248.54,190.52 241.67,187.73 234.47,185.64 C233.402659,185.306689 232.308627,185.065802 231.2,184.92 C230.459207,184.766343 229.688304,184.864906 229.01,185.2 C226.9,186.78 223.48,185.56 222.01,183.66 C219.41,180.25 216.86,176.78 214.3,173.33 C214.24,173.26 214.2,173.18 214.14,173.11 C212.14,170.46 211.28,170.33 208.51,172 C207.07,172.86 205.51,173.53 204.07,174.4 C203.699029,174.735118 203.485105,175.210103 203.48,175.71 C203.42,177.91 203.53,180.11 203.43,182.3 C203.381495,183.417703 203.158814,184.520984 202.77,185.57 C202.579994,186.254249 202.084563,186.812357 201.42767,187.082153 C200.770777,187.351948 200.02609,187.303173 199.41,186.95 C195.859055,185.39171 192.79957,182.895723 190.56,179.73 C187.17,175.2 185.02,169.99 182.56,164.96 C180.95,161.71 179.46,158.39 178,155.07 C176.161855,150.833383 174.881165,146.376179 174.19,141.81 C174.19,141.55 174.1,141.28 174.04,141.02 C173.43,138.32 167.69,142.02 161.04,134.48 C158.04,134.69 164.84,129.3 162.36,127.78 C165.24,128.05 168.13,128.31 171.01,128.6 C174.17,128.92 177.32,129.25 180.46,129.6 C189,130.6 197.56,131.82 205.14,136.17 C210.281254,139.239231 215.239628,142.604915 219.99,146.25 C226.27,150.91 232.15,156.13 238.59,160.55 C242.799884,163.317753 247.291726,165.630716 251.99,167.45 C254.92,168.64 258.25,168.87 261.4,169.5 C263.89,170.01 266.4,170.5 268.89,170.96 C269.59,171.08 270.31,171.1 271.02,171.16 L279.42,171.41 C280.93,171.51 282.42,171.69 283.96,171.71 C287.45,171.71 290.96,171.71 294.43,171.71 L302.67,171.71 C306,171.34 309.35,171.08 312.67,170.57 C318.02,169.75 323.33,168.68 328.67,167.86 C333,167.18 336.37,164.86 339.67,162.23 C343.38,159.32 347.23,156.57 351.17,153.97 C355.430531,151.284873 360.294559,149.707072 365.32,149.38 C369.32,149 373.32,148.55 377.32,147.98 C382.9,147.166667 388.47,146.266667 394.03,145.28 C395.613833,145.022423 397.134199,144.465861 398.51,143.64 C401.609918,141.80134 405.095147,140.70921 408.69,140.45 C413.223965,139.919233 417.680668,138.862108 421.97,137.3 C429.65,134.55 437.41,132.24 445.65,131.72 C452.27,131.3 458.72,129.63 465.15,127.98 C471,126.48 476.82,124.89 482.7,123.48 C486.670586,122.501829 490.135288,120.081528 492.42,116.69 C495.87,111.96 500.08,108.07 505.68,105.97 C506.79,105.54 516.9,105.45 518.07,105.15 Z" id="Path" fill="#AC967C"></path>
                        <path d="M144.48,123.75 C143.93,127.95 140.55,141.06 139.82,145.23 C139.355053,147.136954 138.684458,148.987797 137.82,150.75 C137.684553,151.200263 137.319817,151.544485 136.862475,151.65367 C136.405133,151.762855 135.924238,151.620519 135.6,151.28 C134.55,150.52 133.6,149.67 132.6,148.82 C127.39,144.21 123.35,138.61 119.18,133.12 C118.915202,132.701898 118.606811,132.313057 118.26,131.96 C118.004193,131.747343 117.667091,131.659403 117.34,131.72 C116.22926,132.269622 115.647776,133.515661 115.94,134.72 C117.05,138.27 118.35,141.72 119.29,145.36 C120.787145,150.583292 121.564318,155.986498 121.6,161.42 C121.625576,161.913157 121.58522,162.407521 121.48,162.89 C120.99,164.7 119.94,165.15 118.56,163.89 C115.66824,161.366621 112.90794,158.69644 110.29,155.89 C106.86,152.05 103.59,148.06 100.45,143.98 C96.73,139.16 93.32,134.09 89.58,129.28 C86.19,124.94 82.48,120.85 79.01,116.58 C76.49,113.49 74.2,110.22 71.69,107.12 C69.52,104.44 67.2,101.89 64.92,99.3 C63.33,97.48 61.72,95.67 60.06,93.91 C58.8,92.58 58.59,92.62 57.75,94.18 C57.6595552,94.4884612 57.4263419,94.7346389 57.1232199,94.8416232 C56.820098,94.9486074 56.4840265,94.9033536 56.22,94.72 C53.6420382,93.5537977 51.3438092,91.84888 49.48,89.72 C48.24,88.38 46.89,87.13 45.54,85.89 C44.8607521,85.1702142 43.7670232,85.0319266 42.93,85.56 C42.08,86.09 42.14,86.96 42.36,87.85 C42.64,88.98 42.9,90.13 43.08,91.28 C43.2058341,91.9810649 43.2058341,92.6989351 43.08,93.4 C42.81,94.75 42.08,94.98 41.08,94.07 C35.58,89.15 30.0966667,84.2066667 24.63,79.24 C23.7398492,78.2507692 22.7879441,77.3189043 21.78,76.45 C22.28,78.01 22.78,79.58 23.29,81.14 C21.65,79.02 19.88,77 18.42,74.77 C15.71,70.61 13.18,66.33 10.58,62.1 C10.47,61.92 8.27,52.8 8.19,52.6 C13.44,54.77 20.78,57.1 26.1,59.08 C32.55,61.48 39.1,63.59 45.62,65.82 C54.0969168,68.6293689 61.6199081,73.7520688 67.34,80.61 C69.14,82.77 71.29,84.61 73.28,86.66 C79.2156915,92.8768658 85.585018,98.6647323 92.34,103.98 C95.0669243,105.920186 97.9735506,107.59451 101.02,108.98 C105.27,111.07 109.62,112.98 114.02,114.8 C121.914119,118.192997 130.070978,120.938704 138.41,123.01 C139.43,123.25 143.43,123.5 144.48,123.75 Z" id="Path" fill="#AC967C"></path>
                        <path d="M46.7001275,137.07 C46.6779081,142.496298 42.2630732,146.878316 36.8367618,146.859981 C31.4104505,146.84153 27.0254233,142.429683 27.0400807,137.003361 C27.0548117,131.577038 31.4636686,127.189005 36.89,127.199979 C39.5013787,127.202625 42.0041673,128.245263 43.8450536,130.097409 C45.68594,131.949554 46.7132976,134.458654 46.7001275,137.07 L46.7001275,137.07 Z" id="Path" fill="#AC967C"></path>
                        <path d="M70.5,142.01 C72.5275939,141.985667 74.3691091,143.188329 75.1619544,145.054642 C75.9547997,146.920956 75.5419581,149.081311 74.1168103,150.523769 C72.6916626,151.966226 70.5364483,152.405117 68.6606997,151.63486 C66.7849511,150.864602 65.560146,149.03774 65.56,147.01 C65.5598028,144.271839 67.7620362,142.042858 70.5,142.01 Z" id="Path" fill="#AC967C"></path>
                        <path d="M323.6,0.06 L334.37,0.06 C334.691156,0.186113334 335.02728,0.270144201 335.37,0.31 C339.47,0.31 343.57,0.31 347.67,0.31 C348.01272,0.270144201 348.348844,0.186113334 348.67,0.06 L353.79,0.06 C354.236922,0.179724713 354.691237,0.269919453 355.15,0.33 C366.57,1.08 377.99,1.67 389.39,2.59 C401.39,3.59 413.39,4.83 425.39,6 C428.02,6.26 430.65,6.54 433.24,7 C436.05,7.52 438.78,8.66 441.59,8.87 C449.42,9.45 457.27,9.67 465.11,10.06 C470.4,10.32 475.71,10.38 480.96,10.95 C497.39,12.74 513.84,13.95 530.36,14.42 C539.36,14.68 548.36,15.42 557.36,16.12 C567.28,16.93 577.19,18.02 587.11,18.92 C595.95,19.73 604.81,20.38 613.66,21.23 C625.54,22.37 637.41,23.5833333 649.27,24.87 C660.33,26.07 671.38,27.37 682.44,28.65 C684.89,28.93 687.36,29.22 689.44,30.65 C689.900246,30.8974761 690.268455,31.2867255 690.49,31.76 C691.074977,33.6405619 690.647723,35.6898718 689.36,37.18 C688.06,38.73 686.64,40.18 685.27,41.65 C684.21,42.12 683.15,42.65 682.08,43.06 C679.08,44.3 676.01,45.31 673.14,46.77 C663.72,51.58 653.81,55.11 643.84,58.51 C635.526445,61.2060624 627.413047,64.4841689 619.56,68.32 C617.01,69.6 614.47,70.92 611.81,71.94 C607.6,73.56 603.25,74.81 599.06,76.47 C594.25,78.36 589.53,80.47 584.82,82.61 C581.19,84.26 577.63,86.09 574.04,87.85 C573.629339,88.0053031 573.228587,88.1856415 572.84,88.39 C571.1,89.39 569.33,90.31 567.65,91.39 C565.18,92.96 562.78,94.65 560.35,96.28 C553.88,100.45 547.42,104.64 540.58,108.2 C538.856905,109.232363 536.913965,109.842316 534.91,109.98 C531.7,110.06 528.5,110.53 525.29,110.83 L516.19,112.19 L509.19,113.19 C508.006645,113.381999 506.83739,113.652597 505.69,114 C500.09,116.1 495.88,120 492.43,124.72 C490.148076,128.114267 486.682199,130.535389 482.71,131.51 C476.83,132.92 471.01,134.51 465.16,136.02 C458.73,137.66 452.28,139.33 445.66,139.75 C437.42,140.27 429.66,142.58 421.98,145.33 C417.692065,146.896767 413.234809,147.954023 408.7,148.48 C405.122141,148.733092 401.651487,149.811254 398.56,151.63 C397.182641,152.45459 395.66317,153.014217 394.08,153.28 C388.526667,154.273333 382.956667,155.17 377.37,155.97 C373.37,156.54 369.37,156.97 365.37,157.37 C360.330707,157.704207 355.455528,159.296033 351.19,162 C347.25,164.6 343.4,167.35 339.69,170.26 C336.35,172.88 332.98,175.26 328.69,175.89 C323.34,176.72 318.03,177.78 312.69,178.6 C309.37,179.11 306.02,179.37 302.69,179.74 L294.45,179.74 C290.96,179.74 287.45,179.74 283.98,179.74 C282.46,179.74 280.98,179.54 279.44,179.44 C278.971091,179.317156 278.492775,179.233534 278.01,179.19 C275.69,179.19 273.36,179.19 271.01,179.19 C270.3,179.12 269.58,179.11 268.88,178.98 C266.38,178.52 263.88,177.98 261.39,177.53 C258.24,176.89 254.91,176.66 251.98,175.47 C247.25359,173.67875 242.731415,171.389168 238.49,168.64 C232.05,164.22 226.17,159 219.89,154.34 C215.139628,150.694915 210.181254,147.329231 205.04,144.26 C197.46,139.91 188.9,138.71 180.36,137.69 C177.22,137.32 174.07,137 170.91,136.69 C168.03,136.4 165.14,136.14 162.26,135.87 C161.73,135.76 161.21,135.64 160.68,135.56 C157.01,135.05 153.34,134.56 149.68,134.03 C146.94,133.62 144.23,133.11 141.5,132.65 C140.5,132.4 139.42,132.14 138.37,131.9 C130.030978,129.828704 121.874119,127.082997 113.98,123.69 C109.61,121.86 105.26,119.96 100.98,117.87 C97.9335506,116.48451 95.0269243,114.810186 92.3,112.87 C85.5556046,107.520923 79.1996156,101.699612 73.28,95.45 C71.28,93.45 69.14,91.57 67.34,89.45 C61.6199081,82.5920688 54.0969168,77.4693689 45.62,74.66 C39.11,72.43 32.55,70.32 26.1,67.92 C20.78,65.92 15.59,63.61 10.35,61.44 C9.22,60.72 7.82,60.23 7.03,59.25 C5.07558457,56.7444348 3.24989208,54.1410707 1.56,51.45 C1.05096874,50.428555 0.652057,49.3558511 0.37,48.25 L0.37,45.85 C1.86,42.68 4.71,41.7 7.85,41.2 L17.94,39.6 C40.9733333,35.96 63.8933333,31.73 86.7,26.91 C98.57,24.4 110.57,22.43 122.57,20.55 C130.98,19.23 139.47,18.43 147.94,17.49 C157.94,16.38 167.94,15.37 177.94,14.32 C186.73,13.4 195.52,12.51 204.3,11.52 C213.79,10.45 223.3,9.27 232.76,8.16 C243.99,6.84 255.2,5.47 266.44,4.28 C275.63,3.28 284.83,2.37 294.04,1.73 C303.62,1.07 313.22,0.78 322.81,0.32 C323.082611,0.264585771 323.347763,0.177320392 323.6,0.06 L323.6,0.06 Z" id="Path" fill="#2EBF8B"></path>
                    </g>
                    <g id="Layer_6">
                        <g id="Illustration-6" transform="translate(176.000000, 235.000000)" fill="#8989BE" fill-rule="nonzero">
                            <path d="M0.558827033,36.37 C0.506648464,40.9503794 2.27518961,45.3643201 5.47650141,48.640648 C8.6778132,51.9169759 13.0496135,53.7872628 17.63,53.84 C18.8272414,53.8384489 20.020819,53.7076918 21.19,53.45 L197.19,53.45 C204.532863,53.25054 210.381795,47.2405716 210.381795,39.895 C210.381795,32.5494284 204.532863,26.53946 197.19,26.34 L195.09,26.34 C195.148688,21.3166997 193.209298,16.4758625 189.698545,12.8825912 C186.187791,9.28931984 181.393308,7.23800996 176.37,7.18 C172.954376,7.1821993 169.607765,8.14183828 166.71,9.95 C162.38458,3.44553547 154.90081,-0.236843257 147.108267,0.304994923 C139.315724,0.846833103 132.413599,5.52950495 129.03,12.57 C126.778259,8.04325337 122.119318,5.2195809 117.06441,5.31794206 C112.009502,5.41630322 107.463935,8.419082 105.39,13.03 C103.329611,7.07093711 97.8143948,2.9943153 91.5130819,2.77275015 C85.2117691,2.551185 79.4238456,6.23036872 76.95,12.03 C71.7429003,5.21704069 63.6649547,1.21132567 55.09,1.19 C42.2413183,1.28915436 31.1091475,10.1206765 28.09,22.61 C25.1228866,20.2220713 21.4286697,18.920098 17.62,18.92 C8.09358936,19.0353231 0.460003818,26.8434161 0.558827033,36.37 Z" id="Path"></path>
                        </g>
                        <g id="Illustration-7">
                            <g id="Group" stroke-linecap="round" transform="translate(0.190000, 0.450000)"></g>
                            <path d="M210.45,153.9 L221.12,167.9 L203.27,158.45 C203.27,158.45 205.36,154.01 202,152.31 C202,152.33 207.01,150.2 210.45,153.9 Z" id="Path" fill="#5F4FA0" fill-rule="nonzero"></path>
                            <path d="M204.19,167.58 C204.19,167.58 211.76,171.32 216.29,165.33 L202.67,158.08 L200.01,161.96 C200.557832,164.334651 202.073316,166.372217 204.19,167.58 L204.19,167.58 Z" id="Path" fill="#D7D2E1" fill-rule="nonzero"></path>
                            <path d="M210.57,174.34 C210.448497,174.34 210.35,174.241503 210.35,174.12 L210.35,168.64 C210.35,168.518497 210.448497,168.42 210.57,168.42 C210.691503,168.42 210.79,168.518497 210.79,168.64 L210.79,174.12 C210.79,174.241503 210.691503,174.34 210.57,174.34 L210.57,174.34 Z" id="Path" fill="#271C47" fill-rule="nonzero"></path>
                            <path d="M207,172.97001 C206.878497,172.97001 206.78,172.871503 206.78,172.75 L206.78,168.45 C206.78,168.328497 206.878497,168.23 207,168.23 C207.121503,168.23 207.22,168.328497 207.22,168.45 L207.22,172.72 C207.228722,172.783343 207.209454,172.847347 207.167213,172.895348 C207.124972,172.943349 207.063938,172.970598 207,172.97001 L207,172.97001 Z" id="Path" fill="#271C47" fill-rule="nonzero"></path>
                            <path d="M199.78,154.51 L200,161.96 C201.537346,161.276795 202.759178,160.037099 203.42,158.49 C204.42,156.01 204.71,153.56 202,152.33 L199.78,154.51 Z" id="Path" fill="#958ABA" fill-rule="nonzero"></path>
                            <polygon id="Path" fill="#271C47" fill-rule="nonzero" points="200.91 155.9 199.78 154.5 197.69 154.2"></polygon>
                            <circle id="Oval" fill="#271C47" fill-rule="nonzero" cx="204.01" cy="154.64" r="1"></circle>
                        </g>
                        <g id="Illustration-8" transform="translate(195.000000, 7.000000)" fill-rule="nonzero">
                            <path d="M76.19,290.1 L80.06,24.75 L87.25,24.69 L94.99,289.97 C95.0626607,292.490355 94.1175811,294.933837 92.3679083,296.749357 C90.6182355,298.564878 88.2113195,299.599543 85.69,299.620656 L85.69,299.620656 C83.1579121,299.64991 80.7210778,298.655865 78.9323801,296.863402 C77.1436825,295.070939 76.1547654,292.632019 76.19,290.1 Z" id="Path" fill="#7E6D73"></path>
                            <path d="M39.84,176.95 L84.99,222.11 C84.99,222.11 92.33,218.11 84.9,211.32 L49.83,176.86 L39.84,176.95 Z" id="Path" fill="#7E6D73"></path>
                            <path d="M87.62,147.76 L126,114.25 L135.19,114.17 L87.71,158.17 C87.71,158.17 82.24,152.45 87.62,147.76 Z" id="Path" fill="#7E6D73"></path>
                            <path d="M65.27,24.88 L81.49,51.11 C81.49,51.11 85.01,43.11 81.37,37.92 L69.67,24.84 L65.27,24.88 Z" id="Path" fill="#7E6D73"></path>
                            <path d="M121.07,79.5 C118.47,73.68 112.94,69.5 106.92,67.4 C100.9,65.3 94.4,64.97 88.02,65.14 C84.72,65.23 81.29,65.48 78.46,67.14 C71.17,71.51 71.22,83.14 64.02,87.64 C62.2699752,88.6017896 60.4186523,89.3664664 58.5,89.92 C52.9976221,91.8617773 47.8846124,94.7670503 43.4,98.5 C41.4468781,100.097925 40.0472109,102.270908 39.4,104.71 C37.4,112.55 45.19,117.25 52.08,118.71 C66.48,121.84 81.33,118.03 95.93,116.03 C115.754967,113.312315 135.89581,113.947843 155.51,117.91 C159.99,118.82 164.51,119.91 169.09,119.6 C173.67,119.29 178.38,117.34 180.77,113.44 C183.16,109.54 182.28,103.58 178.23,101.44 C174.45,99.44 168.99,100.97 166.23,97.68 C164.54,95.61 164.82,92.68 164.23,90.02 C163.39,86.09 160.51,82.83 157.09,80.74 C153.57674,78.7770148 149.755828,77.4244798 145.79,76.74 C141.06,75.74 135.23,74.11 130.46,74.88" id="Path" fill="#238862"></path>
                            <path d="M82.32,162.64 C82.59,157.64 80.02,152.64 76.24,149.35 C72.3333781,146.1186 67.6349764,143.988612 62.63,143.18 C54.63,141.64 45.77,142.59 39.43,147.67 C33.81,152.18 30.53,159.58 23.97,162.58 C19.89,164.45 15.2,164.27 10.78,165.06 C5.61,165.98 -0.02,169.06 0.31,174.96 C0.417490825,176.486034 0.935797474,177.95457 1.81,179.21 C4.43,183.01 8.81,184.48 13.18,184.98 C30.4,186.92 46.96,174.85 64.18,176.98 C75.84,178.43 87.46,186.32 98.46,180.92 C100.09432,180.167819 101.328322,178.75181 101.85,177.03 C102.7,173.94 100.65,172.17 98.65,170.79" id="Path" fill="#238862"></path>
                            <path d="M67.75,9.73 C70.8119362,2.95166433 78.0369095,-0.933346821 85.38,0.25 C94.25,1.89 100.25,10.56 108.85,13.3 C111.42,14.12 114.17,14.38 116.68,15.38 C119.19,16.38 121.58,18.38 121.89,21.08 C122.18,23.52 120.69,25.85 118.89,27.49 C112.57,33.18 102.89,32.7 94.61,30.7 C86.33,28.7 77.99,25.47 69.61,26.83 C62.48,27.99 56.12,32.37 48.61,31.9 C45.8459021,31.7942293 43.2121436,30.6974215 41.19,28.81 C35.87,23.61 39.31,16.45 44.48,13.36 C48.48,10.98 53.24,10.43 57.85,9.87 C62.46,9.31 67.25,8.6 71.07,5.97" id="Path" fill="#238862"></path>
                        </g>
                        <g id="Illustration_copy_2" transform="translate(213.000000, 263.000000)">
                            <path d="M78.13,25.87 C78.13,25.87 30.47,-3.93 8.88,1.03 C-12.71,5.99 16.28,23.96 16.28,23.96 L43.51,39.24 L78.13,25.87 Z" id="Path" fill="#146C47" fill-rule="nonzero"></path>
                            <path d="M58.3,33.83 L58.19,33.83 C49.57,30.36 2.8,4.05 2.33,3.83 C2.25930118,3.79195131 2.20680361,3.72715182 2.18425106,3.65009725 C2.1616985,3.57304268 2.17097306,3.49016354 2.21,3.42 C2.29325988,3.27140958 2.48080705,3.21782467 2.63,3.3 C3.1,3.57 49.83,29.85 58.42,33.3 C58.5724102,33.3684987 58.6464593,33.5427318 58.59,33.7 C58.521939,33.7900922 58.412541,33.8391326 58.3,33.83 Z" id="Path" fill="#AC88BE" fill-rule="nonzero"></path>
                            <path d="M33.96,21.230001 C33.8552458,21.2302601 33.7574457,21.1775985 33.7,21.09 L21.77,1.39 C21.70406,1.25110591 21.7538005,1.08484266 21.8851849,1.00498155 C22.0165693,0.925120446 22.187063,0.957515805 22.28,1.08 L34.19,20.78 C34.274675,20.9209751 34.2300734,21.1038416 34.09,21.19 C34.0504504,21.2134505 34.0058916,21.2271609 33.96,21.230001 L33.96,21.230001 Z" id="Path" fill="#AC88BE" fill-rule="nonzero"></path>
                            <path d="M5.35,15.58 C5.18985448,15.5807515 5.05549636,15.4593958 5.04,15.3 C5.03453106,15.2187398 5.06233553,15.1387483 5.11702679,15.0783993 C5.17171805,15.0180503 5.24859529,14.982531 5.33,14.98 L21.77,13.98 C21.917403,14.0067996 22.0245473,14.1351806 22.0245473,14.285 C22.0245473,14.4348194 21.917403,14.5632004 21.77,14.59 L5.32,15.59 L5.35,15.58 Z" id="Path" fill="#AC88BE" fill-rule="nonzero"></path>
                            <path d="M19.39,26.000011 C19.2332692,26.0013095 19.1002186,25.8854268 19.08,25.73 C19.071678,25.6487494 19.0968436,25.567618 19.1496859,25.5053396 C19.2025283,25.4430611 19.2784787,25.40502 19.36,25.4 L39.09,23.4 C39.1701943,23.3886874 39.2514655,23.4114245 39.3141469,23.4627093 C39.3768284,23.5139941 39.4152086,23.5891536 39.42,23.67 C39.4283671,23.7496466 39.4045418,23.8293324 39.353829,23.8913147 C39.3031163,23.9532969 39.2297263,23.9924298 39.15,24 L19.42,26.000011 L19.39,26.000011 Z" id="Path" fill="#AC88BE" fill-rule="nonzero"></path>
                            <path d="M47.52,28.5 C47.3911654,28.5 47.2757155,28.420451 47.23,28.3 L39.11,6.45 C39.0813603,6.37585262 39.0844105,6.29319988 39.1184375,6.22136514 C39.1524645,6.14953041 39.2144853,6.09481108 39.29,6.07 C39.3642426,6.04059494 39.4471449,6.04200247 39.5203465,6.07391087 C39.5935482,6.10581927 39.6510079,6.16559518 39.68,6.24 L47.8,28.07 C47.828902,28.145524 47.8260907,28.2295176 47.7922034,28.30294 C47.7583161,28.3763625 47.696223,28.4329952 47.62,28.46 L47.52,28.5 Z" id="Path" fill="#AC88BE" fill-rule="nonzero"></path>
                            <line x1="62.51" y1="31.9" x2="56.77" y2="14.08" id="Path" stroke="#AC88BE" stroke-width="0.6" stroke-linecap="round" stroke-linejoin="round"></line>
                        </g>
                        <g id="Illustration_copy_3" transform="translate(394.000000, 264.000000)">
                            <path d="M0.89,25.13 C0.89,25.13 24.67,-0.21 37.97,0.37 C51.27,0.95 36.8,16.27 36.8,16.27 L22.98,29.61 L0.89,25.13 Z" id="Path" fill="#77CEDF" fill-rule="nonzero"></path>
                            <path d="M13.54,27.88 C13.4812495,27.8842288 13.4244965,27.8577441 13.39,27.81 C13.3512549,27.7758301 13.3290588,27.7266601 13.3290588,27.675 C13.3290588,27.6233399 13.3512549,27.5741699 13.39,27.54 C17.93,24.22 41.64,1.29 41.88,1.06 C41.9573199,0.985441594 42.0804415,0.987680186 42.155,1.06500004 C42.2295584,1.14231989 42.2273198,1.26544155 42.15,1.34 C41.91,1.57 18.15,24.51 13.61,27.85 C13.5888036,27.8643912 13.5650395,27.8745758 13.54,27.88 L13.54,27.88 Z" id="Path" fill="#AC88BE" fill-rule="nonzero"></path>
                            <path d="M26.04,16.66 L25.99,16.66 C25.8917325,16.6309355 25.8342181,16.5291793 25.86,16.43 L30.13,2.09 C30.1634042,1.99032816 30.2682674,1.93352725 30.37,1.96 C30.4195352,1.97387177 30.4613288,2.00723601 30.4858292,2.05246752 C30.5103296,2.09769903 30.5154427,2.15093187 30.5,2.2 L26.19,16.52 C26.1695711,16.5907132 26.1119524,16.6444906 26.04,16.66 Z" id="Path" fill="#AC88BE" fill-rule="nonzero"></path>
                            <path d="M32.24,10.8 C32.1350659,10.8 32.05,10.7149341 32.05,10.61 C32.05,10.5050659 32.1350659,10.42 32.24,10.42 L42,9.06 C42.1071703,9.04809499 42.2044848,9.12329252 42.22,9.23 C42.225593,9.28044691 42.2107692,9.33103449 42.1788336,9.37048433 C42.146898,9.40993417 42.1005058,9.43496636 42.05,9.44 L32.3,10.8 L32.24,10.8 Z" id="Path" fill="#AC88BE" fill-rule="nonzero"></path>
                            <path d="M23.41,19.120003 C23.3124048,19.120542 23.2302718,19.0470547 23.22,18.95 C23.214407,18.8995531 23.2292308,18.8489655 23.2611664,18.8095157 C23.293102,18.7700658 23.3394942,18.7450336 23.39,18.74 L35.19,17.6 C35.2404469,17.594407 35.2910345,17.6092308 35.3304843,17.6411664 C35.3699342,17.673102 35.3949664,17.7194942 35.4,17.77 C35.405593,17.8204469 35.3907692,17.8710345 35.3588336,17.9104843 C35.326898,17.9499342 35.2805058,17.9749664 35.23,17.98 L23.42,19.120003 L23.41,19.120003 Z" id="Path" fill="#AC88BE" fill-rule="nonzero"></path>
                            <path d="M19.12,23.08 L19.12,23.08 C19.070129,23.0751736 19.0245264,23.0497792 18.9941612,23.0099248 C18.963796,22.9700705 18.9514163,22.9193633 18.96,22.87 L20.7,7.61 C20.7153579,7.50746936 20.8065188,7.43367244 20.91,7.44 C20.9605058,7.44503364 21.006898,7.47006583 21.0388336,7.50951567 C21.0707692,7.54896551 21.085593,7.59955309 21.08,7.65 L19.34,22.92 C19.315788,23.0200419 19.2226349,23.0877896 19.12,23.08 L19.12,23.08 Z" id="Path" fill="#AC88BE" fill-rule="nonzero"></path>
                            <line x1="10.85" y1="27.15" x2="11.76" y2="14.8" id="Path" stroke="#AC88BE" stroke-width="0.38" stroke-linecap="round" stroke-linejoin="round"></line>
                        </g>
                        <g id="Illustration-9" transform="translate(224.000000, 224.000000)" fill-rule="nonzero">
                            <path d="M87.77,64.6 C87.77,64.6 43.12,5.08 14.1,0.91 C-14.92,-3.26 12.31,32.76 12.31,32.76 L38.65,64.6 L87.77,64.6 Z" id="Path" fill="#088656"></path>
                            <path d="M59.64,65.0001066 C59.5405396,65.0023248 59.4439508,64.9665512 59.37,64.9 C50.37,56.49 5.16,1.71 4.71,1.16 C4.55754285,1.0044626 4.55754285,0.755537404 4.71,0.6 C4.86892733,0.446327537 5.12107267,0.446327537 5.28,0.6 C5.73,1.15 50.91,55.89 59.87,64.26 C59.9463431,64.335183 59.9893312,64.4378517 59.9893312,64.545 C59.9893312,64.6521483 59.9463431,64.754817 59.87,64.83 C59.8183977,64.9144569 59.73588,64.9754482 59.64,65.0001066 L59.64,65.0001066 Z" id="Path" fill="#AC88BE"></path>
                            <path d="M35.58,37.85 C35.3875361,37.8481568 35.2236739,37.7095042 35.19,37.52 L29.84,7.52 C29.8030631,7.30280263 29.9443798,7.09524361 30.16,7.05 C30.380407,7.01358749 30.5893984,7.16032609 30.63,7.38 L35.98,37.38 C36.0164978,37.5949134 35.8741912,37.799479 35.66,37.84 L35.58,37.85 Z" id="Path" fill="#AC88BE"></path>
                            <path d="M23.74,23.8 C23.7005932,23.8097424 23.6594068,23.8097424 23.62,23.8 L2.82,17.22 C2.71784295,17.1901984 2.63230012,17.1199467 2.58320516,17.0255333 C2.5341102,16.9311199 2.52572727,16.8207451 2.56,16.72 C2.631251,16.5143705 2.85074357,16.4002344 3.06,16.46 L23.86,23.04 C24.0458405,23.1010351 24.1602802,23.2875197 24.1305368,23.4808518 C24.1007934,23.6741839 23.9355925,23.8176469 23.74,23.82 L23.74,23.8 Z" id="Path" fill="#AC88BE"></path>
                            <path d="M40.62,43.76 L40.52,43.76 L15.21,36.76 C15.1065098,36.7343736 15.0180227,36.6674962 14.9651265,36.5749277 C14.9122302,36.4823593 14.899537,36.3721711 14.93,36.27 C14.9556264,36.1665098 15.0225038,36.0780227 15.1150723,36.0251265 C15.2076407,35.9722302 15.3178289,35.959537 15.42,35.99 L40.73,42.99 C40.9341267,43.0346794 41.0694679,43.2289508 41.0406503,43.4359133 C41.0118328,43.6428759 40.8285677,43.7927844 40.62,43.78 L40.62,43.76 Z" id="Path" fill="#AC88BE"></path>
                            <path d="M48.86,53.28 L48.86,53.28 C48.7548094,53.2800346 48.6540653,53.2375756 48.5806317,53.1622591 C48.5071982,53.0869426 48.4673028,52.985156 48.47,52.88 L48.85,22.05 C48.85,21.8290861 49.0290861,21.65 49.25,21.65 C49.4703011,21.6604455 49.6449963,21.8395082 49.65,22.06 L49.27,52.89 C49.2701408,52.9969948 49.2263177,53.0993485 49.1487937,53.1730908 C49.0712697,53.2468331 48.9668541,53.285487 48.86,53.28 Z" id="Path" fill="#AC88BE"></path>
                            <path d="M65.61,65 L65.61,65 C65.5046651,64.9949139 65.4058799,64.9473868 65.3361692,64.8682557 C65.2664584,64.7891247 65.2317652,64.6851356 65.24,64.58 L66.65,39.85 C66.6709685,39.6298965 66.8589886,39.4637392 67.08,39.4698288 C67.1862003,39.4776647 67.2849619,39.5273552 67.3544103,39.6080655 C67.4238588,39.6887759 67.458262,39.7938445 67.45,39.9 L66.04,64.63 C66.0323353,64.7362003 65.9826448,64.8349619 65.9019345,64.9044103 C65.8212241,64.9738588 65.7161555,65.008262 65.61,65 Z" id="Path" fill="#AC88BE"></path>
                        </g>
                        <g id="Names" transform="translate(241.000000, 258.000000)" fill="url(#linearGradient-1)" fill-rule="nonzero">
                            <path d="M187.4,50.65 L0.55,50.65 C0.55,50.65 15.64,7.12 51.61,23.77 C51.61,23.77 78.31,-26.07 122.41,19.97 C122.41,19.97 168.83,-15.93 187.4,50.65 Z" id="Path"></path>
                        </g>
                        <g id="Illustration-10" transform="translate(191.000000, 280.000000)">
                            <path d="M1.29,7.45 C1.29,7.45 18.12,12.35 31.35,35.13 L36.25,42.75 C36.25,42.75 14.59,28.75 7.94,18.12 L1.29,7.45 Z" id="Path" fill="#2A8592" fill-rule="nonzero"></path>
                            <path d="M0.42,32 C0.42,32 13.73,24.86 36.06,42.81 C36.06,42.81 30.43,45.81 19.06,39.68 C7.69,33.55 6.39,30.08 0.42,32 Z" id="Path" fill="#2A8592" fill-rule="nonzero"></path>
                            <path d="M33.64,0.64 C33.64,0.64 23.76,21.42 35.99,42.86 C35.99,42.86 46.09,19.97 33.64,0.64 Z" id="Path" fill="#2A8592" fill-rule="nonzero"></path>
                            <path d="M7.83,13.26 C7.83,13.26 24.08,32.26 30.49,36.63" id="Path" fill="#3CB889" fill-rule="nonzero"></path>
                            <path d="M35.09,10.05 C35.09,10.05 30.74,27 36.09,38.95" id="Path" stroke="#3CB889" stroke-width="0.36" stroke-linecap="round" stroke-linejoin="round"></path>
                            <path d="M13.63,34.13 C13.63,34.13 26.25,37.32 34.44,40.95" id="Path" fill="#3CB889" fill-rule="nonzero"></path>
                        </g>
                        <g id="Illustration-11" transform="translate(373.000000, 278.000000)" fill-rule="nonzero">
                            <path d="M67.02,13.92 C67.02,13.92 38.02,23.04 19.24,66.66 L12.1,81.25 C12.1,81.25 47.78,54.75 57.4,34.33 L67.02,13.92 Z" id="Path" fill="#836CE1"></path>
                            <path d="M73.71,61.15 C73.71,61.15 48.49,47.15 12.44,81.31 C12.44,81.31 23.1,87.26 42.09,75.58 C61.08,63.9 62.66,57.34 73.71,61.15 Z" id="Path" fill="#836CE1"></path>
                            <path d="M7.93,0.16 C7.93,0.16 29.93,40.34 12.57,81.4000423 C12.57,81.45 -10.22,37.15 7.93,0.16 Z" id="Path" fill="#836CE1"></path>
                            <path d="M56.57,24.93 C56.57,24.93 31.57,61.2 21.07,69.5" id="Path" fill="#3CB889"></path>
                            <path d="M11.64,74.2 L11.55,74.2 C11.3710285,74.1468861 11.2683586,73.9594019 11.32,73.78 C18.19,51.24 7.11,18.7 7,18.37 C6.96070074,18.2574613 6.9844254,18.1325054 7.06223714,18.0422019 C7.14004888,17.9518984 7.26012623,17.9099667 7.37723721,17.9322019 C7.49434818,17.9544371 7.59070082,18.0374613 7.63,18.15 C9.68092121,24.4620055 11.2816034,30.9115182 12.42,37.45 C14.21,47.56 15.59,62.11 11.96,74.01 C11.9049138,74.1352249 11.7763146,74.2115807 11.64,74.2 Z" id="Path" fill="#3CB889"></path>
                            <path d="M50.6,64.99 C50.6,64.99 28.78,70.91 14.93,77.75" id="Path" fill="#3CB889"></path>
                        </g>
                        <g id="Illustration-13" transform="translate(458.000000, 377.000000)" fill="#00886F" fill-rule="nonzero">
                            <path d="M15.05,5.14 C15.05,5.14 12.61,10.98 0.79,6.92 C0.79,6.92 10.02,-4.31 15.05,3.3 C15.05,3.3 17.05,-3.06 26.94,3.3 C26.94,3.3 21.84,10.24 15.05,5.14 Z" id="Path"></path>
                        </g>
                        <g id="Illustration_copy_4" transform="translate(328.000000, 404.000000)" fill-rule="nonzero">
                            <rect id="Rectangle" fill="#00886F" x="14.69" y="4.96" width="1" height="12.63" rx="0.48"></rect>
                            <path d="M15.04,4.96 C15.04,4.96 12.61,10.8 0.79,6.73 C0.79,6.73 10.02,-4.49 15.04,3.11 C15.04,3.11 17.04,-3.24 26.94,3.11 C26.94,3.11 21.84,10.06 15.04,4.96 Z" id="Path" fill="#00886F"></path>
                            <path d="M8.5,5.36 C8.4047903,5.35570512 8.31354913,5.32061236 8.24,5.26 C8.08754285,5.1044626 8.08754285,4.8555374 8.24,4.7 C10.67,1.96 14.09,3.26 15.1,3.7 C17.68,0.88 20.9,3 20.94,3.03 C21.1194925,3.15150266 21.1665026,3.39550744 21.0449999,3.57499996 C20.9234973,3.75449248 20.6794925,3.8015026 20.5,3.68 C18.8921041,2.58211658 16.7090565,2.91393983 15.5,4.44 C15.3784097,4.58932764 15.1660294,4.6275561 15,4.53 C14.3073962,4.17139855 13.5609234,3.92820378 12.79,3.81 C11.3071187,3.51113364 9.77827569,4.03476236 8.79,5.18 C8.7240897,5.27929768 8.61823382,5.34500133 8.5,5.36 L8.5,5.36 Z" id="Path" fill="#0D6D5C"></path>
                        </g>
                        <g id="Illustration_copy_5" transform="translate(146.000000, 314.000000)" fill-rule="nonzero">
                            <rect id="Rectangle" fill="#00886F" x="11.76" y="4.21" width="1" height="10.46" rx="0.4"></rect>
                            <path d="M12.06,4.22 C12.06,4.22 10.06,9.05 0.25,5.68 C0.25,5.68 7.9,-3.62 12.06,2.68 C12.06,2.68 13.71,-2.59 21.91,2.68 C21.91,2.69 17.69,8.45 12.06,4.22 Z" id="Path" fill="#00886F"></path>
                            <path d="M6.64,4.54 C6.56209299,4.54264104 6.48640307,4.51380678 6.43,4.46 C6.36767572,4.39971184 6.33248595,4.31671205 6.33248595,4.23 C6.33248595,4.14328795 6.36767572,4.06028816 6.43,4 C8.43,1.73 11.27,2.81 12.11,3.2 C13.3724273,1.85908619 15.4188931,1.62653327 16.95,2.65 C17.0225949,2.69692536 17.0731177,2.77122381 17.0900702,2.85598597 C17.1070226,2.94074812 17.0889625,3.02876317 17.04,3.1 C16.9351476,3.2477855 16.732818,3.28737173 16.58,3.19 L16.58,3.19 C15.2518409,2.28136177 13.4468465,2.5566999 12.45,3.82 C12.3437501,3.9389602 12.1690884,3.96807048 12.03,3.89 C11.4562861,3.59276865 10.8383277,3.39015931 10.2,3.29 C8.96823095,3.05174136 7.70356892,3.49494618 6.89,4.45 C6.82364862,4.51481448 6.73243862,4.54765008 6.64,4.54 Z" id="Path" fill="#0D6D5C"></path>
                        </g>
                        <g id="Illustration-14" transform="translate(446.000000, 290.000000)">
                            <path d="M15.69,6.12 C15.69,6.12 17.69,7.69 18.88,7.4 C20.07,7.11 18.88,6.52 18.88,6.52 C18.88,6.52 22.58,6.11 22.03,4.97 C21.48,3.83 18.86,4.33 18.86,4.33 C18.86,4.33 21.05,2.63 19.3,2.01 C17.55,1.39 16.95,3.52 16.95,3.52 C16.95,3.52 17.14,0.66 15.7,0.4 C14.26,0.14 14.43,2.4 14.43,2.4 C14.43,2.4 12.21,0.34 11.31,1.1 C10.41,1.86 12.63,3.73 12.63,3.73 C12.63,3.73 11.32,4.07 11.85,4.96 C12.38,5.85 15.69,6.12 15.69,6.12 Z" id="Path" fill="#F6EB1D"></path>
                            <path d="M15.54,4.71 C15.54,4.71 17.69,5.35 16.85,6.12 C16.01,6.89 15.7,6.56 15.54,7.12 C14.54,7.71 9.74,46.38 10.54,46.3500174 C10.19,46.22 10.11,44.4 9.76,44.27 C10.03,35.73 13.08,15.18 14.71,6.75 C14.71,6.75 13.37,5.54 13.71,4.91 C14.05,4.28 12.86,5.09 15.54,4.71 Z" id="Path" fill="#1E8862" fill-rule="nonzero"></path>
                            <path d="M6.71,17.04 C6.71,17.04 8.99,16.76 8.3,17.66 C7.81,18.66 7.19,18.84 7.14,19.42 C7.09,20 8.14,50.85 8.14,50.85 C7.43,49.36 7.38,48.44 7.02,48.36 C6.49,39.81 6.86,27.75 6.32,19.19 C6.32,19.19 4.79,18.19 4.99,17.54 C5.19,16.89 4.19,17.86 6.71,17.04 Z" id="Path" fill="#1E8862" fill-rule="nonzero"></path>
                            <path d="M8.7,15.83 C8.7,15.83 10.37,13.24 8.97,12.63 C7.57,12.02 6.63,14.91 6.63,14.91 C6.63,14.91 5.31,11.57 4.12,12.27 C2.93,12.97 4.39,15.27 4.39,15.27 C4.39,15.27 1.7,14.01 0.67,14.77 C-0.36,15.53 3.12,16.77 3.12,16.77 C3.12,16.77 0.53,17.2 2.12,18.05 C3.14714397,18.5128126 4.35515528,18.2671837 5.12,17.44 C5.38,18.23 7.43,18.64 7.75,17.5 C8.31,17.15 11.59,17.94 11.66,16.64 C11.73,15.34 8.7,15.83 8.7,15.83 Z" id="Path" fill="#F6EB1D"></path>
                            <path d="M7.74,16.3 C6.9,14.89 4.91,15.91 5.05,16.46 C5.90727584,16.1239546 6.84893382,16.0679452 7.74,16.3 L7.74,16.3 Z" id="Path" fill="#FBC90B"></path>
                        </g>
                        <g id="Illustration-15" transform="translate(191.000000, 343.000000)" fill-rule="nonzero">
                            <path d="M0.93,4.05 C0.839844118,5.38216078 1.56132913,6.63737673 2.75782222,7.22998513 C3.95431531,7.82259352 5.39000907,7.63580184 6.39503285,6.75676394 C7.40005663,5.87772605 7.77633821,4.4796846 7.3483109,3.21494232 C6.92028359,1.95020003 5.77230394,1.06801501 4.44,0.98 C2.62349045,0.859997271 1.05292167,2.23368564 0.93,4.05 Z" id="Path" fill="#FFFFFF"></path>
                            <path d="M11.97,22.8100225 C11.605005,22.8128614 11.2956146,22.5421448 11.25,22.18 C11.25,22.08 9.82,12.09 5.83,7.18 C5.64565011,6.98042242 5.58738816,6.69497753 5.67877925,6.43911867 C5.77017034,6.1832598 5.99609214,5.99932346 6.26516652,5.96170602 C6.53424089,5.92408858 6.80194458,6.03901454 6.96,6.26 C11.22,11.46 12.64,21.53 12.7,21.95 C12.7478526,22.3511985 12.4692875,22.7181969 12.07,22.78 L11.97,22.8100225 Z" id="Path" fill="#00886F"></path>
                        </g>
                        <g id="Illustration_copy_8" transform="translate(291.000000, 298.000000)" fill-rule="nonzero">
                            <path d="M15.29,3.83 C15.1208137,5.68384419 13.4844934,7.05191527 11.63,6.89 C10.7220041,6.8372196 9.86942028,6.4360037 9.25,5.77 C8.64431717,5.12301999 8.33306779,4.25441707 8.39,3.37 C8.5820538,1.51855871 10.2044362,0.150843801 12.0616893,0.274660671 C13.9189423,0.398477541 15.3454123,1.96944927 15.29,3.83 L15.29,3.83 Z" id="Path" fill="#FFFFFF"></path>
                            <path d="M1.39,20.9600596 L1.19,20.9600596 C0.797392365,20.8439322 0.570404119,20.4344632 0.68,20.04 C0.8,19.63 3.63,9.83 8.75,5.24 C9.05773742,4.97013858 9.52500668,4.99683968 9.8,5.3 C9.93221527,5.44676452 10.0002635,5.64029909 9.98899412,5.83751395 C9.9777247,6.03472881 9.88807313,6.21925196 9.74,6.35 C4.94,10.65 2.14,20.35 2.11,20.45 C2.00595676,20.7581233 1.71518959,20.9640833 1.39,20.9600596 Z" id="Path" fill="#00886F"></path>
                        </g>
                        <g id="Illustration-16" transform="translate(135.000000, 250.000000)" fill="#5FF4B4" fill-rule="nonzero">
                            <path d="M21.19,37.69 C14.4329876,35.8986412 7.24915994,38.1698839 2.75,43.52 C0.66,46.09 -0.69,49.71 0.67,52.73 C2.47,56.73 7.74,57.54 12.09,57.16 C17.3274261,56.6973545 22.4405965,55.305624 27.19,53.05 C30.1,51.66 33.01,49.78 34.38,46.86 C35.75,43.94 34.9,39.8 31.92,38.57" id="Path"></path>
                            <circle id="Oval" cx="42.61" cy="14.97" r="9.48"></circle>
                            <path d="M2.63,9.1 C1.54087755,8.5831031 0.710845933,7.64286832 0.333017161,6.49804714 C-0.0448116107,5.35322596 0.0625053197,4.10363523 0.63,3.04 C2.01172467,0.937284325 4.8354588,0.351057429 6.94,1.73 C8.91831224,3.26901877 9.35650154,6.08219404 7.94,8.15 C6.38612494,10.1111867 3.61129551,10.6008625 1.48,9.29" id="Path"></path>
                        </g>
                        <g id="Layer_35" transform="translate(223.000000, 330.000000)" fill-rule="nonzero">
                            <ellipse id="Oval" fill="url(#linearGradient-2)" cx="66.42" cy="21.68" rx="64.18" ry="19.59"></ellipse>
                            <path d="M66.43,43 C49.12,43 32.82,40.94 20.54,37.19 C7.45,33.19 0.54,27.83 0.54,21.69 C0.54,15.55 7.46,10.18 20.54,6.18 C32.82,2.43 49.12,0.37 66.43,0.37 C83.74,0.37 100.03,2.43 112.31,6.18 C125.4,10.18 132.31,15.54 132.31,21.69 C132.31,27.84 125.38,33.19 112.31,37.19 C100.03,40.94 83.73,43 66.43,43 Z M66.43,3.82 C49.43,3.82 33.51,5.82 21.55,9.48 C10.55,12.84 3.97,17.4 3.97,21.69 C3.97,25.98 10.54,30.53 21.55,33.89 C33.55,37.54 49.45,39.56 66.43,39.56 C83.41,39.56 99.34,37.56 111.3,33.89 C122.3,30.53 128.88,25.97 128.88,21.69 C128.88,17.41 122.31,12.84 111.3,9.48 C99.34,5.83 83.4,3.82 66.43,3.82 Z" id="Shape" fill="#37DD9E"></path>
                        </g>
                    </g>
                </g>
            </g>
        </g>
    </g>
</svg>