<?xml version="1.0" encoding="UTF-8"?>
<svg width="222px" height="179px" viewBox="0 0 222 179" version="1.1" xmlns="http://www.w3.org/2000/svg" xmlns:xlink="http://www.w3.org/1999/xlink">
    <!-- Generator: Sketch 60 (88103) - https://sketch.com -->
    <title>Approach_P2PSM</title>
    <desc>Created with Sketch.</desc>
    <defs>
        <linearGradient x1="0%" y1="50.042179%" x2="100%" y2="50.042179%" id="linearGradient-1">
            <stop stop-color="#01BC86" offset="0%"></stop>
            <stop stop-color="#01B26E" offset="37%"></stop>
            <stop stop-color="#00A347" offset="100%"></stop>
        </linearGradient>
    </defs>
    <g id="Page-1" stroke="none" stroke-width="1" fill="none" fill-rule="evenodd">
        <g id="Home-Refresh" transform="translate(-1025.000000, -1675.000000)">
            <g id="Approach" transform="translate(0.000000, 1415.000000)">
                <g id="Approach_P2PSM" transform="translate(1025.000000, 261.000000)">
                    <g id="Layer_4" transform="translate(17.919283, 17.000000)" fill="#F4F6F1" fill-rule="nonzero">
                        <path d="M0.736681614,90.99 C0.736681614,41.2843725 40.8503619,0.99 90.3330942,0.99 C139.815826,0.99 179.929507,41.2843725 179.929507,90.99" id="Path"></path>
                    </g>
                    <g id="Layer_1">
                        <g id="Layer_9" transform="translate(2.986547, 42.000000)">
                            <polyline id="Path" stroke="#CDCCCE" stroke-width="0.22" points="128.45139 117.15 128.45139 77.14 140.984933 77.14 140.984933 51.19 152.941076 51.19 152.941076 81.02"></polyline>
                            <ellipse id="Oval" stroke="#CDCCCE" stroke-width="0.43" cx="152.951031" cy="81.02" rx="6.24188341" ry="6.27"></ellipse>
                            <ellipse id="Oval" fill="#CDCCCE" fill-rule="nonzero" cx="164.718027" cy="21.43" rx="1" ry="1"></ellipse>
                            <ellipse id="Oval" fill="#CDCCCE" fill-rule="nonzero" cx="165.056502" cy="36.22" rx="1" ry="1"></ellipse>
                            <ellipse id="Oval" stroke="#CDCCCE" stroke-width="0.43" opacity="0.3" cx="128.331928" cy="117.79" rx="5.33596413" ry="5.36"></ellipse>
                            <ellipse id="Oval" fill="#CDCCCE" fill-rule="nonzero" cx="128.232377" cy="117.79" rx="1" ry="1"></ellipse>
                            <ellipse id="Oval" fill="#CDCCCE" fill-rule="nonzero" cx="152.682242" cy="81.02" rx="1" ry="1"></ellipse>
                            <path d="M124.558924,61.58 C124.558924,61.58 122.956143,62.37 123.712735,62.82 C124.153738,63.0734 124.69532,63.0734 125.136323,62.82 L124.698296,61.93 L124.698296,61.93 L124.558924,61.58 Z" id="Path" fill="#E5E4EA" fill-rule="nonzero"></path>
                            <ellipse id="Oval" fill="#CDCCCE" fill-rule="nonzero" cx="152.732018" cy="51.23" rx="1" ry="1"></ellipse>
                            <line x1="120.178655" y1="36.1" x2="120.178655" y2="3.57" id="Path" stroke="#CDCCCE" stroke-width="0.22" stroke-linecap="round" stroke-linejoin="round"></line>
                            <ellipse id="Oval" stroke="#CDCCCE" stroke-width="0.86" opacity="0.4" cx="120.178655" cy="4.18" rx="3.40466368" ry="3.42"></ellipse>
                            <ellipse id="Oval" fill="#CDCCCE" fill-rule="nonzero" cx="120.178655" cy="4.16" rx="1.20457399" ry="1.21"></ellipse>
                            <line x1="141.413004" y1="50.93" x2="105.863139" y2="50.93" id="Path" stroke="#CDCCCE" stroke-width="0.22"></line>
                            <ellipse id="Oval" fill="#CDCCCE" fill-rule="nonzero" cx="140.765919" cy="51.23" rx="1" ry="1"></ellipse>
                            <ellipse id="Oval" fill="#CDCCCE" fill-rule="nonzero" cx="105.863139" cy="51.23" rx="1" ry="1"></ellipse>
                            <line x1="45.8434978" y1="36.44" x2="45.8434978" y2="48.92" id="Path" stroke="#CDCCCE" stroke-width="0.22"></line>
                            <ellipse id="Oval" fill="#CDCCCE" fill-rule="nonzero" cx="45.8434978" cy="48.27" rx="1" ry="1"></ellipse>
                            <polyline id="Path" stroke="#CDCCCE" stroke-width="0.22" stroke-linecap="round" stroke-linejoin="round" points="164.718027 21.43 164.718027 36.22 152.951031 36.22 21.7022422 36.22"></polyline>
                            <line x1="31.7569507" y1="22.37" x2="5.98304933" y2="22.37" id="Path" stroke="#CDCCCE" stroke-width="0.22" stroke-linecap="round" stroke-linejoin="round"></line>
                            <ellipse id="Oval" stroke="#CDCCCE" stroke-width="0.86" opacity="0.3" cx="31.7569507" cy="22.2" rx="3.40466368" ry="3.42"></ellipse>
                            <line x1="31.7569507" y1="22.2" x2="31.7569507" y2="8.82" id="Path" stroke="#CDCCCE" stroke-width="0.22" stroke-linecap="round" stroke-linejoin="round"></line>
                            <ellipse id="Oval" fill="#CDCCCE" fill-rule="nonzero" cx="31.7569507" cy="7.74" rx="1" ry="1"></ellipse>
                            <line x1="31.7569507" y1="22.37" x2="31.7569507" y2="36.22" id="Path" stroke="#CDCCCE" stroke-width="0.22" stroke-linecap="round" stroke-linejoin="round"></line>
                            <ellipse id="Oval" fill="#CDCCCE" fill-rule="nonzero" cx="31.7569507" cy="22.37" rx="1" ry="1"></ellipse>
                            <ellipse id="Oval" fill="#CDCCCE" fill-rule="nonzero" cx="20.4976682" cy="36.22" rx="1.20457399" ry="1.21"></ellipse>
                            <ellipse id="Oval" stroke="#CDCCCE" stroke-width="0.43" opacity="0.3" cx="5.46538117" cy="22.2" rx="5.33596413" ry="5.36"></ellipse>
                            <ellipse id="Oval" fill="#CDCCCE" fill-rule="nonzero" cx="5.37578475" cy="22.2" rx="1" ry="1"></ellipse>
                            <line x1="128.45139" y1="77.14" x2="87.724843" y2="77.14" id="Path" stroke="#CDCCCE" stroke-width="0.22"></line>
                            <ellipse id="Oval" stroke="#CDCCCE" stroke-width="0.86" opacity="0.3" cx="87.1972197" cy="77.07" rx="3.40466368" ry="3.42"></ellipse>
                            <ellipse id="Oval" fill="#CDCCCE" fill-rule="nonzero" cx="87.1972197" cy="77.07" rx="1" ry="1"></ellipse>
                        </g>
                        <g id="Layer_9_copy" transform="translate(54.753363, 0.000000)">
                            <polyline id="Path" stroke="#CDCCCE" stroke-width="0.22" points="38.058565 6.22 38.058565 46.23 25.5250224 46.23 25.5250224 72.18 13.5589238 72.18 13.5589238 42.35"></polyline>
                            <ellipse id="Oval" stroke="#CDCCCE" stroke-width="0.43" cx="13.5589238" cy="42.35" rx="6.24188341" ry="6.27"></ellipse>
                            <ellipse id="Oval" fill="#CDCCCE" fill-rule="nonzero" cx="1.79192825" cy="101.93" rx="1" ry="1"></ellipse>
                            <ellipse id="Oval" fill="#CDCCCE" fill-rule="nonzero" cx="1.45345291" cy="87.15" rx="1" ry="1"></ellipse>
                            <ellipse id="Oval" stroke="#CDCCCE" stroke-width="0.43" opacity="0.3" cx="38.1780269" cy="5.57" rx="5.33596413" ry="5.36"></ellipse>
                            <ellipse id="Oval" fill="#CDCCCE" fill-rule="nonzero" cx="38.2676233" cy="5.57" rx="1" ry="1"></ellipse>
                            <ellipse id="Oval" fill="#CDCCCE" fill-rule="nonzero" cx="13.827713" cy="42.35" rx="1" ry="1"></ellipse>
                            <path d="M41.9510314,61.77 C41.9510314,61.77 43.5538117,60.99 42.7972197,60.54 C42.3474376,60.3019091 41.8057612,60.3209341 41.3736323,60.59 L41.8116592,61.48 L41.8116592,61.48 L41.9510314,61.77 Z" id="Path" fill="#E5E4EA" fill-rule="nonzero"></path>
                            <ellipse id="Oval" fill="#CDCCCE" fill-rule="nonzero" cx="13.7779372" cy="72.14" rx="1" ry="1"></ellipse>
                            <line x1="46.3213453" y1="87.27" x2="46.3213453" y2="119.79" id="Path" stroke="#CDCCCE" stroke-width="0.22" stroke-linecap="round" stroke-linejoin="round"></line>
                            <ellipse id="Oval" stroke="#CDCCCE" stroke-width="0.86" opacity="0.4" cx="46.3213453" cy="119.19" rx="3.40466368" ry="3.42"></ellipse>
                            <ellipse id="Oval" fill="#CDCCCE" fill-rule="nonzero" cx="46.3213453" cy="119.21" rx="1.20457399" ry="1.21"></ellipse>
                            <line x1="25.0969507" y1="72.44" x2="60.6468161" y2="72.44" id="Path" stroke="#CDCCCE" stroke-width="0.22"></line>
                            <ellipse id="Oval" fill="#CDCCCE" fill-rule="nonzero" cx="25.7440359" cy="72.14" rx="1" ry="1"></ellipse>
                            <ellipse id="Oval" fill="#CDCCCE" fill-rule="nonzero" cx="60.6468161" cy="72.14" rx="1" ry="1"></ellipse>
                            <line x1="120.666457" y1="86.92" x2="120.666457" y2="74.45" id="Path" stroke="#CDCCCE" stroke-width="0.22"></line>
                            <ellipse id="Oval" fill="#CDCCCE" fill-rule="nonzero" cx="120.666457" cy="75.09" rx="1" ry="1"></ellipse>
                            <polyline id="Path" stroke="#CDCCCE" stroke-width="0.22" stroke-linecap="round" stroke-linejoin="round" points="1.79192825 101.93 1.79192825 87.15 13.5589238 87.15 144.807713 87.15"></polyline>
                            <line x1="134.753004" y1="101" x2="160.526906" y2="101" id="Path" stroke="#CDCCCE" stroke-width="0.22" stroke-linecap="round" stroke-linejoin="round"></line>
                            <ellipse id="Oval" stroke="#CDCCCE" stroke-width="0.86" opacity="0.3" cx="134.753004" cy="101.16" rx="3.40466368" ry="3.42"></ellipse>
                            <line x1="134.753004" y1="101.16" x2="134.753004" y2="114.55" id="Path" stroke="#CDCCCE" stroke-width="0.22" stroke-linecap="round" stroke-linejoin="round"></line>
                            <ellipse id="Oval" fill="#CDCCCE" fill-rule="nonzero" cx="134.753004" cy="115.62" rx="1" ry="1"></ellipse>
                            <line x1="134.753004" y1="101" x2="134.753004" y2="87.15" id="Path" stroke="#CDCCCE" stroke-width="0.22" stroke-linecap="round" stroke-linejoin="round"></line>
                            <ellipse id="Oval" fill="#CDCCCE" fill-rule="nonzero" cx="134.753004" cy="101" rx="1" ry="1"></ellipse>
                            <ellipse id="Oval" fill="#CDCCCE" fill-rule="nonzero" cx="146.012287" cy="87.15" rx="1.20457399" ry="1.21"></ellipse>
                            <ellipse id="Oval" stroke="#CDCCCE" stroke-width="0.43" opacity="0.3" cx="161.044574" cy="101.16" rx="5.33596413" ry="5.36"></ellipse>
                            <ellipse id="Oval" fill="#CDCCCE" fill-rule="nonzero" cx="161.13417" cy="101.16" rx="1" ry="1"></ellipse>
                            <line x1="38.058565" y1="46.23" x2="78.7851121" y2="46.23" id="Path" stroke="#CDCCCE" stroke-width="0.22"></line>
                            <ellipse id="Oval" stroke="#CDCCCE" stroke-width="0.86" opacity="0.3" cx="79.3027803" cy="46.3" rx="3.40466368" ry="3.42"></ellipse>
                            <ellipse id="Oval" fill="#CDCCCE" fill-rule="nonzero" cx="79.3027803" cy="46.3" rx="1" ry="1"></ellipse>
                        </g>
                        <g id="_6Vhgen.tif" transform="translate(0.000000, 106.000000)" fill="#2EBE8B" fill-rule="nonzero">
                            <path d="M215.240448,3.28 C213.512629,1.95548793 211.435717,1.1696606 209.267354,1.02 C209.058296,1.02 208.809417,1.1 208.650135,0.87 L14.7236771,0.87 C12.3509202,1.44574489 10.0221264,2.19097389 7.75506726,3.1 C6.23277849,3.74081253 4.7841357,4.54551385 3.43452915,5.5 C1.76968327,6.64442992 0.557677446,8.33967957 0.00995515695,10.29 L0.00995515695,11.63 C0.362698886,13.0966062 0.9985737,14.4794084 1.88152466,15.7 C3.80205777,17.9909205 6.28728815,19.7356596 9.0890583,20.76 C11.6674439,21.85 14.3553363,22.6 16.9635874,23.59 C18.0655096,23.9734544 19.1181781,24.4870537 20.0994619,25.12 C22.0008969,26.41 33.0411659,33.29 21.6425112,51.04 C20.2487892,53.2 19.6514798,58.37 25.0272646,63.88 C30.4030493,69.39 45.7240359,68.59 51.1695067,67.79 C56.6149776,66.99 58.3969507,64.44 69.3476233,64.35 C73.9070852,64.35 78.3072646,66.2 82.6974888,67.35 C87.3365919,68.56 91.9756951,69.84 96.6944395,70.77 C97.7994619,70.98 101.801435,71.58 102.348969,71.63 C104.512616,71.8399524 106.688687,71.8900871 108.859641,71.78 C109.41713,71.78 109.964664,71.7 110.522152,71.65 C110.452466,71.65 111.517668,71.52 111.577399,71.5 C112.453453,71.34 113.329507,71.14 114.195605,70.91 C115.061704,70.68 116.027354,70.36 116.923318,70.02 C116.823767,70.02 117.918834,69.59 117.918834,69.57 C118.426547,69.32 118.91435,69.06 119.422063,68.78 C123.274709,66.6 125.713722,63.49 129.466816,60.52 C132.652466,58 146.719103,45.68 183.702511,50.17 C206.450045,52.92 196.026996,31.29 207.75417,16.57 C209.127982,14.84 210.9,16.14 213.976143,13.46 C215.707481,12.1337001 216.857111,10.1827197 217.181704,8.02 C217.423039,6.2052298 216.683227,4.39881775 215.240448,3.28 Z" id="Path"></path>
                        </g>
                        <line x1="113.150314" y1="28.4" x2="92.8119283" y2="28.4" id="Path" stroke="#CDCCCE" stroke-width="0.11"></line>
                        <ellipse id="Oval" stroke="#CDCCCE" stroke-width="0.22" opacity="0.3" cx="113.478834" cy="28.47" rx="2.727713" ry="2.74"></ellipse>
                        <ellipse id="Oval" fill="#CDCCCE" fill-rule="nonzero" cx="113.478834" cy="28.51" rx="1" ry="1"></ellipse>
                    </g>
                    <g id="Illustration" transform="translate(0.000000, 66.000000)">
                        <ellipse id="Oval" fill="#309E74" fill-rule="nonzero" cx="67.7348879" cy="76.23" rx="29.9152466" ry="8.11"></ellipse>
                        <ellipse id="Oval" fill="#309E74" fill-rule="nonzero" cx="153.418924" cy="75.11" rx="30.5324664" ry="8.28"></ellipse>
                        <rect id="Rectangle" fill="#00896F" fill-rule="nonzero" x="40.6469058" y="90.76" width="1" height="7.69" rx="0.29"></rect>
                        <path d="M40.8260987,90.76 C40.8260987,90.76 39.3427803,94.31 32.1850224,91.84 C32.1850224,91.84 37.7798206,85 40.8260987,89.63 C40.8260987,89.63 42.0306726,85.76 48.0336323,89.63 C48.0734529,89.63 44.9773991,93.86 40.8260987,90.76 Z" id="Path" fill="#00896F" fill-rule="nonzero"></path>
                        <path d="M44.2805381,89.8 C43.204262,89.0655675 41.7464514,89.287839 40.9356054,90.31 C40.9356054,90.31 38.5264574,88.91 36.9535426,90.76" id="Path" stroke="#0C6D5B" stroke-width="0.48" stroke-linecap="round" stroke-linejoin="round"></path>
                        <rect id="Rectangle" fill="#00896F" fill-rule="nonzero" x="107.81435" y="62.98" width="1" height="6.48" rx="0.24"></rect>
                        <path d="M108.003498,62.99 C108.003498,62.99 106.759103,65.99 100.716323,63.9 C100.716323,63.9 105.435067,58.14 108.003498,62.05 C108.003498,62.05 108.999013,58.79 114.076143,62.05 C114.076143,61.99 111.507713,65.59 108.003498,62.99 Z" id="Path" fill="#00896F" fill-rule="nonzero"></path>
                        <path d="M110.880538,62.17 C109.974574,61.5486336 108.744569,61.7363666 108.063229,62.6 C108.063229,62.6 106.072197,61.42 104.658565,62.97" id="Path" stroke="#0C6D5B" stroke-width="0.41" stroke-linecap="round" stroke-linejoin="round"></path>
                        <rect id="Rectangle" fill="#00896F" fill-rule="nonzero" x="189.038475" y="80.3" width="1" height="6.67" rx="0.25"></rect>
                        <path d="M189.227623,80.3 C189.227623,80.3 187.953363,83.38 181.73139,81.23 C181.73139,81.23 186.589507,75.3 189.227623,79.32 C189.227623,79.32 190.28287,75.97 195.479462,79.32 C195.479462,79.32 192.801525,82.99 189.227623,80.3 Z" id="Path" fill="#00896F" fill-rule="nonzero"></path>
                        <path d="M192.19426,79.47 C191.261998,78.8359821 190.001293,79.0274628 189.297309,79.91 C189.297309,79.91 187.206726,78.7 185.793094,80.3" id="Path" stroke="#0C6D5B" stroke-width="0.42" stroke-linecap="round" stroke-linejoin="round"></path>
                        <rect id="Rectangle" fill="#00896F" fill-rule="nonzero" x="191.358027" y="49.15" width="1" height="5.82" rx="0.22"></rect>
                        <path d="M191.517309,49.14 C191.517309,49.14 190.402332,51.83 184.986726,49.96 C184.986726,49.96 189.217668,44.79 191.517309,48.29 C191.517309,48.29 192.433184,45.36 196.972735,48.29 C196.972735,48.29 194.633274,51.49 191.517309,49.14 Z" id="Path" fill="#00896F" fill-rule="nonzero"></path>
                        <path d="M194.135516,48.42 C193.323259,47.8636104 192.221495,48.0291837 191.606906,48.8 C191.606906,48.8 189.785112,47.74 188.550673,49.14" id="Path" stroke="#0C6D5B" stroke-width="0.36" stroke-linecap="round" stroke-linejoin="round"></path>
                        <rect id="Rectangle" fill="#00896F" fill-rule="nonzero" x="20.8162332" y="50.66" width="1" height="5.82" rx="0.22"></rect>
                        <path d="M20.9854709,50.66 C20.9854709,50.66 19.8605381,53.35 14.4449327,51.48 C14.4449327,51.48 18.6758744,46.3 20.9854709,49.81 C20.9854709,49.81 21.8913901,46.88 26.4309417,49.81 C26.4309417,49.81 24.101435,52.99 20.9854709,50.66 Z" id="Path" fill="#00896F" fill-rule="nonzero"></path>
                        <path d="M23.5638565,49.99 C22.7515996,49.4336104 21.6498355,49.5991837 21.0352466,50.37 C21.0352466,50.37 19.2134529,49.31 17.9790135,50.71" id="Path" stroke="#0C6D5B" stroke-width="0.36" stroke-linecap="round" stroke-linejoin="round"></path>
                        <path d="M0.22896861,14.99 C0.22896861,14.99 12.3742601,14.72 24.6589238,30.42 L29.0989238,35.56 C29.0989238,35.56 12.3543498,29.49 6.29165919,22.25 L0.22896861,14.99 Z" id="Path" fill="#836DE2" fill-rule="nonzero"></path>
                        <path d="M3.18565022,35.86 C3.18565022,35.86 11.1995516,26.39 28.9695067,35.66 C28.9695067,35.66 25.5847534,39.66 16.9635874,37.45 C8.34242152,35.24 6.97856502,32.69 3.18565022,35.86 Z" id="Path" fill="#836DE2" fill-rule="nonzero"></path>
                        <path d="M21.2343498,0.83 C21.2343498,0.83 17.5210762,20.83 28.9296861,35.72 C28.9296861,35.72 32.4936323,13.84 21.2343498,0.83 Z" id="Path" fill="#836DE2" fill-rule="nonzero"></path>
                        <path d="M5.51515695,18.17 C5.51515695,18.17 19.3030493,29.91 24.290583,31.91" id="Path" fill="#2EBF8B" fill-rule="nonzero"></path>
                        <path d="M23.5837668,8.37 C23.5837668,8.37 23.0660987,23.75 28.4120179,32.37" id="Path" stroke="#2EBF8B" stroke-width="0.28" stroke-linecap="round" stroke-linejoin="round"></path>
                        <path d="M12.4738117,34.2 C12.4738117,34.2 21.503139,33.6 27.6056502,34.52" id="Path" fill="#2EBF8B" fill-rule="nonzero"></path>
                    </g>
                    <g id="Names" transform="translate(7.964126, 79.000000)" fill-rule="nonzero">
                        <path d="M115.1513,30.45 L197.301256,30.45 C197.301256,30.45 190.671121,12.99 174.852377,19.69 C174.852377,19.69 163.115247,-0.31 143.732556,18.17 C143.732556,18.17 123.314529,3.8 115.1513,30.45 Z" id="Path" fill="url(#linearGradient-1)"></path>
                        <g id="Names_copy" fill="#00896F">
                            <path d="M125.88296,20.73 C125.828192,23.3894508 124.720858,25.9173928 122.805898,27.7546521 C120.890938,29.5919114 118.326173,30.5870695 115.678924,30.52 C114.966894,30.5214325 114.256518,30.45108 113.558475,30.31 L8.40215247,30.31 C5.60650409,30.4541071 2.95958223,29.0378971 1.51869347,26.6270715 C0.0778047164,24.2162459 0.0778047164,21.2037541 1.51869347,18.7929285 C2.95958223,16.3821029 5.60650409,14.9658929 8.40215247,15.11 L9.65650224,15.11 C9.79787213,9.04610483 14.7991405,4.24151215 20.8361435,4.37 C22.8631738,4.36638973 24.8551304,4.90112084 26.6101345,5.92 C29.3333288,2.25438686 33.7179441,0.221708454 38.2616212,0.518448474 C42.8052983,0.815188495 46.8909836,3.40104819 49.1187444,7.39 C50.5832447,4.8293557 53.3190207,3.27224988 56.2584229,3.32635045 C59.1978251,3.38045102 61.8749788,5.03718343 63.2451121,7.65 C64.6585994,4.26481343 67.9045285,2.0158752 71.556855,1.89121841 C75.2091815,1.76656161 78.5995913,3.78899634 80.238565,7.07 C83.4744435,3.19164657 88.2621512,0.962958656 93.2997309,0.99 C100.752691,0.884331418 107.35586,5.79759974 109.427085,12.99 C111.235045,11.6423105 113.427542,10.9163688 115.678924,10.92 C118.329557,10.8529497 120.897303,11.8508345 122.812841,13.6924024 C124.728379,15.5339703 125.833422,18.0670482 125.88296,20.73 L125.88296,20.73 Z" id="Path"></path>
                        </g>
                    </g>
                    <g id="Layer_2" transform="translate(125.434978, 40.000000)" fill-rule="nonzero">
                        <g id="ZSiS0w.tif">
                            <path d="M48.5313901,100.85 C46.0127354,99.94 43.5040359,98.98 40.9555157,98.16 C39.96,97.83 38.9644843,97.03 37.7997309,97.44 C35.9517336,98.1308071 34.0312042,98.6072308 32.0755157,98.86 C30.5453912,99.2242041 28.9919861,99.4814868 27.4264574,99.63 C23.2869317,99.7988916 19.1528653,99.1814166 15.2413453,97.81 C14.6130827,97.5019997 13.8785765,97.5019997 13.2503139,97.81 C10.3533632,99.34 7.13784753,99.81 4.01192825,100.56 C3.19560538,100.77 4.81829596,100.85 1.85165919,100.01 C-1.11497758,99.17 1.97112108,95.28 2.69784753,94.75 C3.89808353,93.9217876 5.16321811,93.1927306 6.48080717,92.57 C8.18313901,91.73 8.62116592,90.84 7.89443946,89.07 C7.167713,87.3 6.41112108,85.75 5.74412556,84.07 C4.69883408,81.47 5.64457399,79.23 7.98403587,77.78 C10.0185895,76.7288073 11.3939469,74.7240543 11.6475336,72.44 C11.8068161,70.7 11.7570404,68.96 11.8964126,67.22 C12.1253812,64.33 12.7724664,61.61 15.0621525,59.55 C15.7806268,58.9349611 16.557546,58.3923523 17.381704,57.93 C17.8097758,57.68 18.3174888,57.32 18.1084305,56.71 C17.8993722,56.1 17.3518386,56.35 16.9635874,56.39 C15.9083408,56.51 14.8630493,56.69 13.8177578,56.89 C12.1582108,57.2754436 10.4254301,56.6732319 9.35784753,55.34 C7.62565022,53.23 6.61022422,50.82 7.36681614,47.98 C7.55596413,47.25 7.73515695,46.52 7.87452915,45.79 C8.47333543,41.7343093 10.2736889,37.9536107 13.0412556,34.94 C13.9444194,34.1271548 14.948223,33.4347715 16.0278027,32.88 C16.4857399,32.6 17.0233184,32.33 16.6450224,31.58 C15.0043653,28.0311187 14.0387167,24.2053907 13.7978475,20.3 C13.3956763,15.4467631 13.7110233,10.5604558 14.7336323,5.8 C15.2786401,4.02314106 15.9438663,2.28576214 16.7246637,0.6 L17.1925561,0.6 C18.1987455,4.01330044 19.0064768,7.48249008 19.6116592,10.99 C20.8750107,17.225122 21.5417241,23.5673383 21.6026906,29.93 C21.5810852,30.2955348 21.7601007,30.6436992 22.0693436,30.837586 C22.3785864,31.0314728 22.7685954,31.0400712 23.086009,30.86 C23.6335426,30.58 23.4941704,30.05 23.5041256,29.6 C23.7108974,25.9971496 24.5500877,22.4593823 25.9829596,19.15 C27.8161044,14.9458183 30.2326468,11.0235529 33.1606278,7.5 C34.3466449,5.96343231 35.7367086,4.59738886 37.2920179,3.44 C38.1282511,2.82 38.7255605,2.94 38.7355157,3.77 C38.9163381,5.5750656 38.8728651,7.39571829 38.6060987,9.19 C37.2721076,15.01 34.8629596,20.43 32.6330045,25.93 C31.8904333,27.7681847 30.9204778,29.5051703 29.746009,31.1 C29.0790135,32.02 29.1088789,32.74 30.1541704,33.3 C30.5797671,33.5671771 30.9568411,33.9053668 31.269148,34.3 C32.9052703,36.3158546 33.845092,38.8111079 33.9470852,41.41 C34.2316402,43.5035928 35.3901414,45.3764541 37.1327354,46.56 C39.3925598,48.3026622 41.2190966,50.5481949 42.4686996,53.12 C43.8615426,56.2743292 44.7711245,59.6222382 45.1665471,63.05 C45.5919115,65.6767765 45.5480881,68.3586617 45.03713,70.97 C44.2385542,73.6198424 45.1875587,76.4876909 47.4064574,78.13 C48.6848927,79.2812283 49.505292,80.8583752 49.7160538,82.57 C50.000965,85.0051427 49.890012,87.470612 49.3875336,89.87 C49.1784753,91.33 48.7404484,92.72 47.2770404,93.4 C47.3566816,93.76 47.5856502,93.82 47.8146188,93.88 C49.6861883,94.38 52.3641256,96.25 52.7921973,97.53 C53.2202691,98.81 52.7921973,98.96 52.7921973,99.67 C51.4600066,100.333123 50.0136583,100.733678 48.5313901,100.85 Z M42.150238,79.04 C42.12879,77.8105723 41.8256045,76.6026331 41.2641256,75.51 C40.6867265,74.51 39.9699552,74.43 39.2730942,75.34 C38.1691195,76.6858348 37.1484546,78.0984929 36.216861,79.57 C35.4186721,80.9437383 34.284449,82.0899547 32.921704,82.9 C31.6123816,83.5523724 30.7640551,84.8728177 30.7116592,86.34 C30.7216143,88.99 42.1899552,79.68 42.150238,79.04 L42.150238,79.04 Z M23.1059193,84.78 C23.1556951,81.91 23.215426,81.84 21.4931839,80.41 C20.4454752,79.4564536 19.5372081,78.3589303 18.7953363,77.15 C17.9591031,75.95 17.5111211,74.51 16.4459193,73.46 C15.9481614,72.97 15.5101345,72.26 14.6639462,72.58 C13.8177578,72.9 13.6684305,73.64 13.4991928,74.39 C13.185768,75.8242989 13.1654474,77.3075807 13.4394619,78.75 C13.9670852,81.65 14.0467265,84.69 15.5200897,87.33 C16.6052018,89.29 23.2552466,86.33 23.1059193,84.78 L23.1059193,84.78 Z M36.4159641,8.41 C33.1606278,10.11 24.798296,26.99 25.1367713,31.05 C25.435426,31.14 25.7241256,31.25 26.0227803,31.33 C26.5088953,31.5602084 27.0760926,31.5385872 27.5434408,31.2720331 C28.0107889,31.0054791 28.3199102,30.5272884 28.3721973,29.99 C28.7126332,28.8525134 29.1386125,27.7426526 29.6464574,26.67 C31.7901345,21.55 33.910583,16.4133333 36.0078027,11.26 C36.4739126,10.387986 36.6184665,9.37863356 36.4159641,8.41 L36.4159641,8.41 Z M18.7455605,31.23 C19.7410762,31.23 19.850583,30.81 19.7410762,29.95 C19.2731839,24.38 18.7455605,18.82 18.0885202,13.28 C17.9547495,11.0883703 17.5123199,8.92686072 16.7744395,6.86 C15.2712108,8.78 15.6096861,23.99 18.7455605,31.23 Z M21.503139,45.92 C21.9618756,45.9614855 22.4180407,45.8166651 22.7697212,45.5178934 C23.1214017,45.2191217 23.3392905,44.7912967 23.3747085,44.33 C23.3908568,43.9120695 23.2381802,43.505321 22.9513565,43.2021405 C22.6645329,42.89896 22.2679084,42.725082 21.8515695,42.72 C20.8635759,42.814468 20.1185163,43.6635478 20.1492377,44.66 C20.109417,45.63 20.7166816,45.86 21.503139,45.92 L21.503139,45.92 Z M9.37775785,51.13 C9.93769163,51.6485303 10.6897189,51.905182 11.4482262,51.8366088 C12.2067335,51.7680356 12.9010552,51.3806262 13.3598206,50.77 C12.1050591,49.9678703 10.4697746,50.1157088 9.37775785,51.13 L9.37775785,51.13 Z" id="Shape" fill="#D6CCF8"></path>
                            <path d="M43.3746188,78.11 C42.309417,82.04 39.7310314,84.56 36.4657399,86.45 C34.4747085,87.58 32.4836771,88.6 30.4926457,89.66 C29.7819019,90.1949918 28.7939102,90.1511397 28.1329108,89.5552631 C27.4719115,88.9593865 27.3220117,87.9774539 27.7748879,87.21 C28.7704036,84.75 29.9749776,82.4 30.761435,79.86 C31.2427187,78.4700417 32.4567461,77.4666589 33.9072646,77.26 C35.452508,76.9094365 36.8820492,76.1656192 38.058565,75.1 C39.3932018,73.9902864 40.7927429,72.961782 42.2496861,72.02 C43.2452018,71.37 43.8723767,71.64 44.1113004,72.79 C44.3097039,74.0051287 44.231421,75.2496215 43.8823318,76.43 C43.8126457,77.04 43.5339013,77.64 43.3746188,78.11 Z" id="Path" fill="#B1B1C4"></path>
                            <path d="M36.4159641,8.41 C36.6184665,9.37863356 36.4739126,10.387986 36.0078027,11.26 C33.910583,16.4133333 31.7901345,21.5366667 29.6464574,26.63 C29.1367251,27.7155912 28.7107198,28.8388922 28.3721973,29.99 C28.3319014,30.5345196 28.0276049,31.0243116 27.5583663,31.2999329 C27.0891277,31.5755541 26.5149626,31.6017526 26.0227803,31.37 C25.7241256,31.29 25.435426,31.18 25.1367713,31.09 C24.798296,26.99 33.1606278,10.11 36.4159641,8.41 Z" id="Path" fill="#6249BB"></path>
                            <path d="M18.7455605,31.2301705 C15.6096861,24.01 15.2712108,8.78 16.8142601,6.86 C17.5521405,8.92686072 17.9945701,11.0883703 18.1283408,13.28 C18.7953363,18.82 19.3130045,24.38 19.7808969,29.95 C19.850583,30.81 19.7211659,31.24 18.7455605,31.2301705 Z" id="Path" fill="#6249BB"></path>
                            <path d="M21.503139,45.92 C20.7166816,45.86 20.109417,45.63 20.1492377,44.66 C20.1185163,43.6635478 20.8635759,42.814468 21.8515695,42.72 C22.2679084,42.725082 22.6645329,42.89896 22.9513565,43.2021405 C23.2381802,43.505321 23.3908568,43.9120695 23.3747085,44.33 C23.3392905,44.7912967 23.1214017,45.2191217 22.7697212,45.5178934 C22.4180407,45.8166651 21.9618756,45.9614855 21.503139,45.92 Z" id="Path" fill="#2B214B"></path>
                            <path d="M9.37775785,51.13 C10.4697746,50.1157088 12.1050591,49.9678703 13.3598206,50.77 C12.9010552,51.3806262 12.2067335,51.7680356 11.4482262,51.8366088 C10.6897189,51.905182 9.93769163,51.6485303 9.37775785,51.13 Z" id="Path" fill="#2B214B"></path>
                        </g>
                        <g id="Soseto.tif" transform="translate(2.986547, 10.000000)">
                            <path d="M53.5487892,32.1 C54.6131296,33.973758 55.3948239,35.995772 55.8683408,38.1 C56.5652018,42.65 54.4447534,46.4 52.3840359,50.02 C49.3377578,55.35 44.4199103,59.02 39.8405381,62.96 C36.0973991,66.17 32.8022422,69.79 29.3876233,73.32 C25.564843,77.27 20.9854709,80.32 16.7147085,83.72 C13.2503139,86.49 10.0049327,89.53 6.16224215,91.79 C4.59219395,92.8435437 2.88329513,93.6715491 1.08511211,94.25 C0.607264574,94.37 0.487802691,94.25 0.428071749,93.78 C0.0398206278,90.63 1.93130045,88.19 3.11596413,85.62 C6.75955157,77.79 9.69632287,69.62 13.2204484,61.79 C15.410583,56.9 18.7953363,52.67 21.7619731,48.22 C24.42,44.22 27.147713,40.31 30.0446637,36.51 C31.906278,34.08 33.7181166,31.51 36.2268161,29.71 C39.4200158,27.4148128 43.6322906,27.1358293 47.0978475,28.99 C48.0757433,29.3742522 49.0725606,29.7080214 50.0843946,29.99 C51.424113,30.3274665 52.6314374,31.0627911 53.5487892,32.1 L53.5487892,32.1 Z M30.7216143,43.27 C27.1178475,47.15 24.1512108,51.93 21.2741704,56.78 C19.0442152,60.55 17.3717489,64.6 15.3707623,68.48 C12.6629596,73.73 8.99946188,78.48 6.94869955,84.07 C6.8690583,84.3 6.81928251,84.53 6.75955157,84.77 C6.96860987,84.6 7.18762332,84.46 7.3767713,84.28 C9.23838565,82.35 10.9606278,80.28 12.9914798,78.51 C16.0974888,75.85 18.5365022,72.86 19.3627803,68.74 C19.9600897,65.74 21.0949776,63.29 24.0217937,61.67 C27.655426,59.67 29.2582063,55.85 30.8510314,52.19 C32.1053812,49.32 33.489148,46.63 37.0829596,46.19 C37.7143645,46.0413925 38.2804585,45.6903776 38.6956951,45.19 C39.6912108,44.11 40.4378475,42.8 41.5130045,41.83 C43.2949776,40.24 47.635426,40.68 49.9649327,42.66 C51.1396413,43.66 51.9559641,43.29 52.7921973,42.35 C55.0022422,39.83 53.9868161,35.01 51.0699552,33.57 C49.5777443,32.6893505 47.9592637,32.0451134 46.2715695,31.66 C44.2805381,31.34 42.2895067,30.99 40.4776682,32.52 C36.8440359,35.55 33.9869058,39.35 30.7216143,43.27 Z" id="Shape" fill="#E1805A"></path>
                            <path d="M53.5487892,32.1 C52.6327503,31.0862725 51.4372023,30.3691935 50.1142601,30.04 C52.2114798,27.6333333 54.3086996,25.22 56.4059193,22.8 C56.5159035,22.6111833 56.6028094,22.4097279 56.6647534,22.2 C56.4656502,22.2 56.2565919,22.14 56.0574888,22.14 C52.8917489,22.21 50.0246637,21.77 48.3621525,18.5 C47.4164126,16.62 47.8345291,15.16 49.8056502,14.5 C50.3034081,14.33 49.9251121,14.08 49.8056502,13.88 C48.8698655,11.97 47.4761435,10.2 47.4661883,7.96 C47.4661883,4.29 50.8907623,0.9 55.2113004,0.33 C58.1393358,-0.0168125783 61.1011624,0.0471333427 64.0116592,0.52 C66.1918386,0.84 67.1574888,2.23 67.3466368,4.32 C67.3466368,4.5 67.2869058,4.83 67.6452915,4.74 C70.7513004,3.92 73.0111211,5.74 75.3904036,7.22 C77.0281191,8.30218141 78.4720301,9.6545498 79.6611659,11.22 C81.8313901,13.9 80.7761435,16.8 77.3117489,17.49 C76.4058296,17.67 76.3162332,17.8 76.7741704,18.64 C78.207713,21.51 80.0295067,24.34 78.5362332,27.81 C77.5407175,30.18 75.9379372,31.92 73.2998206,32.25 C70.661704,32.58 69.0489686,31.25 67.933991,29.05 C67.744843,28.68 67.6452915,28.62 67.3366816,29.05 C66.1849802,30.7073383 64.0485723,31.3494905 62.1799103,30.6 C60.1888789,29.71 60.2685202,27.79 60.1092377,26.02 C60.1092377,25.71 60.0295964,25.4 59.9798206,25.08 C59.7359729,25.2696099 59.5032941,25.4732862 59.2829596,25.69 L53.5487892,32.1 Z" id="Path" fill="#8CF18C"></path>
                            <path d="M30.7216143,43.27 C33.9869058,39.35 36.8241256,35.55 40.4776682,32.47 C42.2994619,30.94 44.2407175,31.29 46.2715695,31.61 C47.9592637,31.9951134 49.5777443,32.6393505 51.0699552,33.52 C53.9868161,34.96 55.0520179,39.78 52.7921973,42.3 C51.9758744,43.24 51.1396413,43.6 49.9649327,42.61 C47.635426,40.61 43.2949776,40.19 41.5130045,41.78 C40.4378475,42.78 39.6812556,44.06 38.6956951,45.14 C38.2804585,45.6403776 37.7143645,45.9913925 37.0829596,46.14 C33.489148,46.61 32.1053812,49.3 30.8510314,52.14 C29.2582063,55.8 27.655426,59.59 24.0217937,61.62 C21.0949776,63.24 19.9600897,65.72 19.3627803,68.69 C18.5365022,72.81 16.0974888,75.8 12.9914798,78.46 C11.0004484,80.2 9.23838565,82.3 7.3767713,84.23 C7.18762332,84.41 6.96860987,84.55 6.75955157,84.72 C6.81928251,84.48 6.8690583,84.25 6.94869955,84.02 C8.99946188,78.41 12.6629596,73.68 15.3707623,68.43 C17.3617937,64.55 19.0442152,60.5 21.2741704,56.73 C24.1512108,51.93 27.1178475,47.15 30.7216143,43.27 Z" id="Path" fill="#EFAA6C"></path>
                        </g>
                        <path d="M20.3184753,78.99 C20.5031899,80.9274346 20.5597266,82.8750456 20.487713,84.82 C20.3981166,87.03 18.6957848,88.01 16.8242152,86.82 C14.9526457,85.63 13.8376682,83.49 12.7326457,81.54 C11.2592825,78.89 11.1895964,75.85 10.6520179,72.95 C10.382096,71.5072234 10.4024053,70.0247692 10.7117489,68.59 C10.8809865,67.84 11.1,67.08 11.8864574,66.78 C12.6729148,66.48 13.1607175,67.17 13.6584753,67.66 C14.7236771,68.66 15.1716592,70.16 16.0078924,71.36 C16.7534758,72.5661278 17.665101,73.6602925 18.7156951,74.61 C20.4279821,76.07 20.3682511,76.15 20.3184753,78.99 Z" id="Path" fill="#B1B1C4"></path>
                        <ellipse id="Oval" fill="#B1B1C4" transform="translate(29.236350, 86.486039) rotate(-18.070000) translate(-29.236350, -86.486039) " cx="29.2363504" cy="86.4860393" rx="6.09519865" ry="3.86833898"></ellipse>
                    </g>
                    <g id="Layer_7" transform="translate(33.847534, 46.000000)" fill-rule="nonzero">
                        <g id="WmWPZh.tif">
                            <path d="M0.836233184,79.11 C1.01461247,78.0478818 1.39303349,77.0296882 1.95121076,76.11 C3.38475336,73.71 8.65103139,73.9 11.4583857,74.87 C11.8565919,76.36 11.1398206,79.62 11.1,79.7 C13.1706726,81.57 10.7416143,81.01 10.6818834,83.44 C8.20304933,87.19 2.34941704,85.2 1.15479821,81.44 C1.02538117,81.02 0.94573991,80.6 0.836233184,80.18 L0.836233184,79.11 Z" id="Path" fill="#7261C8"></path>
                            <path d="M9.0193722,79.99 C8.9393799,77.5467405 9.52084392,75.1274608 10.7017937,72.99 C10.7331058,72.9061871 10.7331058,72.8138129 10.7017937,72.73 C12.4837668,70.84 10.9606278,65.87 11.0502242,63.97 C11.116778,60.9145589 11.6437431,57.8868757 12.6131839,54.99 C13.820176,51.1506221 15.6867133,47.5530288 18.1283408,44.36 C19.6315695,42.36 26.7992825,35.53 28.7903139,34.95 C28.8872868,34.9215546 28.9671955,34.8522317 29.0093274,34.76 C29.6536508,31.225832 30.5859344,27.7508107 31.7967713,24.37 C31.7967713,24.23 31.8764126,24.12 31.7270852,24.03 C28.9197309,22.12 27.0780269,19.34 25.0272646,16.72 C21.3434265,11.9104864 18.3694027,6.59240667 16.1970404,0.93 C16.0377578,0.53 16.3065471,0.62 16.5056502,0.61 C20.7067265,0.5 24.1910314,2.25 27.3169507,4.86 C31.4709474,8.4001203 34.7350301,12.8746179 36.8440359,17.92 C37.232287,18.81 37.6205381,18.82 38.3671749,18.61 C39.4323767,18.31 40.5274439,18.09 41.6026009,17.83 C41.7021525,17.83 41.861435,17.76 41.8913004,17.68 C42.9465471,14.83 45.1366816,12.77 46.998296,10.5 C49.8018804,6.87850101 53.4084476,3.96449926 57.530852,1.99 C57.8792825,1.83 58.3770404,1.52 58.5263677,1.65 C58.6756951,1.78 58.5263677,2.33 58.4467265,2.65 C57.1027803,7.74 54.803139,12.46 52.901704,17.34 C52.2462024,18.87454 51.3147718,20.2745893 50.1540807,21.47 C50.0545291,21.58 49.8753363,21.7 50.0147085,21.88 C51.3885202,23.66 51.5876233,25.88 52.4736323,27.88 C52.7531609,28.5924142 53.1246826,29.2648381 53.5786547,29.88 C55.9380269,32.81 55.8683408,36.12 54.8827803,39.47 C54.3252915,41.34 52.204843,42.77 50.1939013,43.28 C49.6861883,43.61 51.0699552,45 51.4084305,45.53 C53.0709417,48.09 54.7533632,50.65 55.4502242,53.69 C56.0674439,56.42 55.3506726,59.08 54.9325561,61.69 C54.5758513,64.2589695 53.9071941,66.7743704 52.9415247,69.18 C52.772287,69.58 53.0410762,69.81 53.2202691,70.07 C54.2568976,71.6576305 54.7945069,73.5216084 54.7633184,75.42 C54.9325561,79.1 55.1316592,82.8 53.5189238,86.28 C53.2491545,86.9188956 52.9156112,87.5286788 52.5234081,88.1 C52.0853812,88.68 52.3043946,88.68 52.8419731,88.83 C54.4945291,89.31 56.3362332,89.18 57.8195516,90.23 C59.810583,91.61 61.1246637,93.37 61.0947982,95.92 C61.0895383,96.1979156 61.1095315,96.4757338 61.1545291,96.75 C61.3436771,98 60.7264574,98.6 59.5517489,98.23 C54.7740855,96.888334 50.1622614,95.0098004 45.8036771,92.63 C45.2265253,92.326992 44.6314172,92.0598238 44.021704,91.83 C44.6687892,90.04 36.2765919,89.34 36.2765919,90.1 C35.6892377,89.88 31.209417,90.22 26.8590135,90.22 C24.8940028,90.1687868 22.9348372,89.9816774 20.995426,89.66 C19.9999103,89.51 18.4867265,90.54 18.7654709,91.5 C19.8107623,95.17 17.252287,96.71 14.9426906,98.42 C13.1507623,99.75 11.8765022,99.88 10.6321076,98.9 C8.5228384,97.0056608 8.26028458,93.7836798 10.0347982,91.57 C10.422334,91.1152518 10.8598223,90.7059848 11.3389238,90.35 C12.0756054,89.84 11.7769507,89.26 11.5181166,88.72 C10.2771827,86.2066979 9.46292761,83.5028206 9.10896861,80.72 C9.03928251,80.46 9.03928251,80.21 9.0193722,79.99 Z M21.5330045,5.41 C21.5481501,5.5009972 21.5680884,5.59112372 21.5927354,5.68 C24.1512108,11.5 26.2417937,17.68 32.4040359,20.91 C33.3497758,21.42 33.8973094,21.46 34.1063677,20.5 C34.2258296,19.97 35.3607175,20.13 34.7235874,19.07 C33.2795662,16.5520934 31.5599242,14.2041873 29.5966816,12.07 C27.2273543,9.6 25.0372197,6.9 21.8316592,5.42 C21.7520179,5.33 21.5827803,4.99 21.5330045,5.41 Z M48.1331839,20.41 C48.4449917,20.4531877 48.7469124,20.2810554 48.8698655,19.99 C51.7170404,15.5 52.961435,10.3 55.2809865,5.58 C55.3064674,5.45125988 55.3064674,5.31874012 55.2809865,5.19 C55.128008,5.25245558 54.9813305,5.3294733 54.8429596,5.42 C50.5821525,9.06 47.1376682,13.28 45.4353363,18.74 C45.4059755,18.8138302 45.4059755,18.8961698 45.4353363,18.97 C46.1819731,19.86 47.3367713,19.9 48.1331839,20.38 L48.1331839,20.41 Z" id="Shape" fill="#D6CCF8"></path>
                            <path d="M21.5330045,5.41 C21.5827803,5.03 21.7520179,5.33 21.8316592,5.41 C25.0372197,6.89 27.2273543,9.59 29.5966816,12.06 C31.5599242,14.1941873 33.2795662,16.5420934 34.7235874,19.06 C35.3607175,20.12 34.2258296,19.96 34.1063677,20.49 C33.8973094,21.49 33.3497758,21.41 32.4040359,20.9 C26.2417937,17.62 24.1512108,11.49 21.5927354,5.67 C21.5684249,5.58441304 21.5484886,5.497633 21.5330045,5.41 Z" id="Path" fill="#7261C8"></path>
                            <path d="M48.1331839,20.38 C47.3367713,19.9 46.1421525,19.86 45.4851121,18.94 C45.4557513,18.8661698 45.4557513,18.7838302 45.4851121,18.71 C47.1874439,13.25 50.6319283,9.03 54.8927354,5.39 C55.0311062,5.2994733 55.1777838,5.22245558 55.3307623,5.16 C55.3562432,5.28874012 55.3562432,5.42125988 55.3307623,5.55 C53.0112108,10.27 51.7668161,15.47 48.9196413,19.96 C48.7923894,20.2719816 48.4618201,20.448519 48.1331839,20.38 L48.1331839,20.38 Z" id="Path" fill="#7261C8"></path>
                            <path d="M42.8868161,30.21 C42.9212817,30.7871647 42.7281642,31.3547576 42.3492377,31.79 C42.0577464,32.2124848 41.5653654,32.4483705 41.0550673,32.41 C40.5327434,32.3728433 40.0941456,32.0009831 39.9699552,31.49 C39.696233,30.735477 39.8197657,29.8931743 40.2984753,29.25 C40.5916971,28.6965809 41.2076704,28.3973172 41.8216143,28.51 C42.6279821,28.65 42.81713,29.22 42.9365919,29.78 C42.9350805,29.9246916 42.9183964,30.0688205 42.8868161,30.21 Z" id="Path" fill="#2B214B"></path>
                            <path d="M50.6120179,36.37 C50.2934529,36.37 49.8952466,36.37 49.7857399,35.92 C49.6762332,35.47 50.0346188,35.06 50.42287,34.84 C51.152473,34.4388964 52.0066634,34.3316417 52.8121076,34.54 C53.0077642,34.6135049 53.1560615,34.7773668 53.2103139,34.98 C53.2999103,35.28 53.090852,35.51 52.8519283,35.67 C52.1922001,36.1239616 51.411689,36.3678811 50.6120179,36.37 Z" id="Path" fill="#2B214B"></path>
                            <path d="M25.2064574,62.09 C23.497579,68.2674757 23.7375663,74.8252327 25.8933632,80.86 C27.0282511,84.23 35.5797309,79.81 36.6947085,75.17 C37.3117708,72.873678 36.8576843,70.4201294 35.4602691,68.5 C34.0579705,66.4776194 33.1631405,64.1446981 32.8520179,61.7 C32.335226,58.9031412 31.6706089,56.1358939 30.8609865,53.41 C30.383139,51.61 29.49713,51.49 28.3821525,53.1 C27.2363233,54.9127965 26.3954789,56.9027497 25.8933632,58.99 C25.6146188,60.09 25.4055605,61.22 25.2064574,62.09 Z" id="Path" fill="#B1B1C4"></path>
                        </g>
                        <g id="Soseto.tif-2" transform="translate(2.986547, 57.000000)">
                            <path d="M17.3518386,9.63 C17.777326,8.57869827 18.3579093,7.59771114 19.0740807,6.72 C20.7166816,4.96 22.9366816,4.62 25.0969507,4.3 C28.2726457,3.84 31.3786547,4.68 34.4747085,5.3 C37.0033184,5.81 39.5518386,6 42.1103139,6.3 C44.9373328,6.7553078 47.7334762,7.38652254 50.4826009,8.19 C52.7656984,8.61038246 55.014977,9.19863136 57.212287,9.95 C58.153566,10.2585583 59.0479972,10.6960108 59.8703139,11.25 C60.069417,11.41 60.069417,11.49 59.8703139,11.68 C58.6956054,12.86 57.08287,12.87 55.6493274,13.2 C51.249148,14.2 46.9584753,15.65 42.5881614,16.74 C39.8387172,17.2533642 37.0517483,17.5376646 34.2556951,17.59 C31.7569507,17.78 29.2781166,17.92 26.7594619,17.95 C25.151083,18.0766474 23.5328813,17.9552415 21.9610762,17.59 C19.9843656,17.0121145 18.5060381,15.356529 18.1482511,13.32 C17.9956246,12.7833585 17.8128198,12.2558447 17.6007175,11.74 C17.3071007,11.0781722 17.2203179,10.3424264 17.3518386,9.63 Z M29.2980269,15.47 C32.1871673,15.6128494 35.0832593,15.4519755 37.9391031,14.99 C40.2088789,14.7 42.4189238,14.08 44.6588341,13.65 C47.6453812,13.08 50.8210762,13.06 53.787713,12.09 L54.1261883,11.95 C53.9962975,11.9061305 53.8631435,11.872692 53.7279821,11.85 C52.3342601,11.7 50.9106726,11.67 49.5468161,11.39 C47.5208197,10.8470266 45.3697288,11.0309229 43.4642152,11.91 C42.136091,12.7298772 40.4991998,12.8672085 39.0540807,12.28 C37.0630493,11.42 34.9724664,11.99 32.9515695,12.51 C31.3686996,12.92 29.8156951,13.22 28.4617937,11.88 C28.1765293,11.6603168 27.8256791,11.5440147 27.466278,11.55 C26.7096861,11.49 25.9232287,11.6 25.1765919,11.47 C23.9421525,11.25 22.7176682,9.3 22.7773991,7.7 C22.7773991,6.89 22.389148,6.7 21.7818834,6.62 C20.893764,6.65053755 20.0587091,7.05231702 19.4783689,7.72831617 C18.8980287,8.40431531 18.6251581,9.29308358 18.7256502,10.18 C18.8486833,11.0850748 19.1106267,11.9655258 19.5021525,12.79 C20.0297758,13.73 20.4976682,14.65 21.7321076,14.91 C24.2462427,15.3191328 26.7911937,15.506514 29.3378475,15.47 L29.2980269,15.47 Z" id="Shape" fill="#E1805A"></path>
                            <path d="M17.3518386,9.63 C17.2306554,10.3379771 17.3243104,11.0662013 17.6206278,11.72 L12.6430493,11.45 C12.5301867,11.4658868 12.4197941,11.4961295 12.3145291,11.54 C12.3614199,11.6356787 12.4181408,11.7261706 12.4837668,11.81 C13.5390135,13.1 14.2856502,14.43 13.4792825,16.18 C13.0113901,17.18 12.2846637,17.48 11.3488789,16.89 C11.1199103,16.74 11.1398206,16.98 11.0900448,17.08 C10.6022422,18.08 10.3334529,19.23 9.41757848,19.96 C7.91434978,21.16 5.4355157,20.83 3.77300448,19.22 C2.68232964,18.1231329 1.75068971,16.8775951 1.00547085,15.52 C0.478432176,14.6516514 0.684049788,13.5242664 1.48331839,12.9 C1.55300448,12.84 1.712287,12.76 1.56295964,12.65 C0.219013453,11.65 0.238923767,10.09 0.0696860987,8.65 C-0.0155215009,7.61875763 0.0753840165,6.58047224 0.338475336,5.58 C0.746636771,3.81 2.26977578,3.31 3.67345291,4.52 C4.04179372,4.84 4.11147982,4.82 4.32053812,4.37 C5.03730942,2.85 5.61470852,1.18 7.5161435,0.67 C8.73390185,0.226269881 10.0966106,0.508546246 11.0402691,1.4 C11.914748,2.2580997 12.0877888,3.60727587 11.4583857,4.66 C11.3687892,4.86 11.3787444,4.92 11.6375785,4.93 C12.6854695,4.86554128 13.6406281,5.5313742 13.9471749,6.54 C14.2159641,7.64 13.4095964,8.24 12.7426009,8.88 L12.3941704,9.24 C12.5514794,9.27974841 12.7110592,9.30980441 12.8720179,9.33 L17.3518386,9.63 Z" id="Path" fill="#8CF18C"></path>
                            <path d="M29.3378475,15.47 C26.7948049,15.5092363 24.2532121,15.3252032 21.7420628,14.92 C20.5175785,14.66 20.0397309,13.74 19.5121076,12.8 C19.1205819,11.9755258 18.8586385,11.0950748 18.7356054,10.19 C18.6351133,9.30308358 18.9079839,8.41431531 19.4883241,7.73831617 C20.0686642,7.06231702 20.9037191,6.66053755 21.7918386,6.63 C22.4389238,6.63 22.8570404,6.9 22.7873543,7.71 C22.7276233,9.31 23.9521076,11.26 25.1865471,11.48 C25.9331839,11.61 26.7196413,11.48 27.4762332,11.56 C27.8356342,11.5540147 28.1864845,11.6703168 28.4717489,11.89 C29.8256502,13.23 31.3786547,12.89 32.9615247,12.52 C34.9525561,12 37.0530942,11.43 39.0640359,12.29 C40.509155,12.8772085 42.1460462,12.7398772 43.4741704,11.92 C45.379684,11.0409229 47.5307749,10.8570266 49.5567713,11.4 C50.9206278,11.68 52.3442152,11.71 53.7379372,11.86 C53.8730987,11.882692 54.0062527,11.9161305 54.1361435,11.96 L53.7976682,12.1 C50.8111211,13.1 47.695157,13.1 44.6687892,13.66 C42.4288789,14.09 40.2188341,14.66 37.9490583,15 C35.1026829,15.4565459 32.2167108,15.6140623 29.3378475,15.47 L29.3378475,15.47 Z" id="Path" fill="#EFAA6C"></path>
                        </g>
                        <g id="Soseto.tif-3" transform="translate(30.860987, 53.000000)">
                            <path d="M28.9695067,7.29 C28.7409124,6.47280931 28.4061972,5.68941001 27.973991,4.96 C26.9784753,3.52 25.4752466,3.15 23.9919283,2.8 C21.881435,2.28 19.7410762,2.8 17.630583,3.1 C15.9090155,3.30949421 14.1778369,3.42965383 12.4439462,3.46 C10.5110371,3.6538991 8.59463824,3.98810593 6.70977578,4.46 C5.14501867,4.66359687 3.59991931,4.9980924 2.09058296,5.46 C1.42854947,5.65036724 0.800366192,5.94394011 0.22896861,6.33 C0.0895964126,6.44 0.0796412556,6.5 0.22896861,6.65 C0.955695067,7.65 2.04080717,7.71 2.99650224,8.04 C5.90340807,9.04 8.72071749,10.36 11.607713,11.42 C13.4271146,11.9592287 15.2940566,12.3209037 17.1826009,12.5 C18.8451121,12.77 20.5275336,13.01 22.1601794,13.16 C23.2341283,13.3450738 24.3316116,13.3450738 25.4055605,13.16 C26.8407264,12.7347957 27.9174629,11.5373249 28.1930045,10.06 C28.3181612,9.65589981 28.4643717,9.25868544 28.6310314,8.87 C28.8856188,8.38435202 29.0026925,7.8378528 28.9695067,7.29 L28.9695067,7.29 Z M20.6071749,11.18 C18.6614355,11.1472695 16.726486,10.8820716 14.843139,10.39 C13.32,10.05 11.8565919,9.46 10.3832287,9.02 C8.39219731,8.42 6.26179372,8.25 4.32053812,7.35 C4.23882747,7.31702949 4.1618328,7.27331474 4.09156951,7.22 C4.18110354,7.2152506 4.27082471,7.2152506 4.36035874,7.22 C5.31120915,7.22372914 6.26159179,7.17699736 7.20753363,7.08 C8.60153877,6.76391143 10.0634786,7.0194636 11.2692377,7.79 C12.1006388,8.488778 13.2437098,8.680148 14.2557848,8.29 C15.6495067,7.74 17.0133632,8.29 18.3473543,8.78 C19.4026009,9.18 20.4279821,9.49 21.4035874,8.52 C21.5937111,8.3794423 21.8246026,8.30564591 22.0606278,8.31 C22.578296,8.31 23.0561435,8.43 23.6036771,8.37 C24.4498655,8.26 25.3657399,6.82 25.4055605,5.58 C25.4055605,4.96 25.7241256,4.81 26.1621525,4.81 C27.3468161,4.81 28.3622422,6.43 28.033722,7.71 C27.9137792,8.40417805 27.6958904,9.07762512 27.3866368,9.71 C26.9884305,10.41 26.6101345,11.1 25.7838565,11.24 C24.060585,11.3924968 22.3264847,11.3723978 20.6071749,11.18 L20.6071749,11.18 Z" id="Shape" fill="#E1805A"></path>
                            <path d="M28.9695067,7.29 C29.0217437,7.83986067 28.9218404,8.39353401 28.6808072,8.89 L32.0755157,8.89 C32.1522834,8.90482504 32.2262127,8.93182952 32.2945291,8.97 C32.2447534,9.04 32.2148879,9.11 32.1651121,9.17 C31.2597192,10.0097261 30.9117183,11.2953616 31.269148,12.48 C31.5379372,13.28 32.0157848,13.55 32.66287,13.14 C32.8321076,13.03 32.8022422,13.22 32.8321076,13.3 C32.9951207,14.1297549 33.3347091,14.9143265 33.8276233,15.6 C34.3717661,16.0758492 35.0824535,16.3138977 35.8020083,16.2613307 C36.521563,16.2087637 37.1904834,15.8699281 37.6603587,15.32 C38.4629281,14.5140904 39.15282,13.602426 39.7111211,12.61 C40.1059398,11.9771616 40.0283585,11.1568383 39.5219731,10.61 C39.5219731,10.61 39.3726457,10.49 39.5219731,10.41 C40.5174888,9.69 40.5174888,8.5 40.7265471,7.41 C40.8460429,6.62120706 40.8460429,5.81879294 40.7265471,5.03 C40.5473543,3.65 39.5418834,3.19 38.5364126,4.03 C38.2676233,4.25 38.2278027,4.24 38.1083408,3.88 C37.7001794,2.67 37.4015247,1.35 36.1173094,0.88 C35.316271,0.474327475 34.3468703,0.627233093 33.7081614,1.26 C33.0643536,1.91904013 32.8867349,2.90629099 33.2601794,3.75 C33.3099552,3.91 33.2601794,3.96 33.1307623,3.95 C32.3817527,3.87592862 31.689984,4.35895827 31.4981166,5.09 C31.2591928,5.92 31.7669058,6.43 32.1949776,6.95 L32.4040359,7.24 C32.2980325,7.24890437 32.1914742,7.24890437 32.0854709,7.24 L28.9695067,7.29 Z" id="Path" fill="#8CF18C"></path>
                            <path d="M20.6071749,11.18 C22.3185846,11.350447 24.0425813,11.350447 25.753991,11.18 C26.5802691,11.04 26.958565,10.35 27.3567713,9.65 C27.6660249,9.01762512 27.8839137,8.34417805 28.0038565,7.65 C28.3323767,6.37 27.3169507,4.77 26.132287,4.75 C25.6942601,4.75 25.3956054,4.9 25.3756951,5.52 C25.3756951,6.76 24.3801794,8.2 23.5738117,8.31 C23.0660987,8.37 22.578296,8.24 22.0307623,8.25 C21.7947371,8.24564591 21.5638457,8.3194423 21.373722,8.46 C20.3782063,9.46 19.3826906,9.12 18.3174888,8.72 C16.9834978,8.22 15.6196413,7.72 14.2259193,8.23 C13.2138443,8.620148 12.0707733,8.428778 11.2393722,7.73 C10.0336132,6.9594636 8.5716733,6.70391143 7.17766816,7.02 C6.23172632,7.11699736 5.28134368,7.16372914 4.33049327,7.16 C4.24095924,7.1552506 4.15123807,7.1552506 4.06170404,7.16 C4.13196733,7.21331474 4.208962,7.25702949 4.29067265,7.29 C6.28170404,8.19 8.34242152,8.36 10.3533632,8.96 C11.8466368,9.4 13.3399103,9.96 14.8132735,10.33 C16.7038606,10.8446935 18.6490159,11.1300594 20.6071749,11.18 Z" id="Path" fill="#EFAA6C"></path>
                        </g>
                        <g id="Soseto.tif-4" transform="translate(6.968610, 44.000000)">
                            <path d="M13.4792825,7.99 C13.8108867,7.18100628 14.2604725,6.42607457 14.8132735,5.75 C16.0875336,4.39 17.7998206,4.13 19.472287,3.89 C21.9411659,3.53 24.3503139,4.18 26.7395516,4.66 C28.730583,5.06 30.7216143,5.21 32.6529148,5.42 C34.8452009,5.76310966 37.0132596,6.24744186 39.1436771,6.87 C40.9127239,7.19710992 42.6560563,7.651616 44.3601794,8.23 C45.0879679,8.46282579 45.7786289,8.79960834 46.4109417,9.23 C46.5702242,9.35 46.5702242,9.41 46.4109417,9.56 C45.5050224,10.47 44.2506726,10.47 43.1356951,10.73 C39.7310314,11.53 36.4159641,12.62 33.0212556,13.46 C30.8923787,13.8557918 28.7349138,14.0765234 26.5703139,14.12 C24.6390135,14.26 22.6977578,14.37 20.7664574,14.39 C19.5222392,14.4917531 18.2698427,14.4006887 17.0531839,14.12 C15.5143553,13.6793237 14.3571284,12.40064 14.0666368,10.82 C13.9511486,10.4054657 13.8115363,9.99809847 13.6485202,9.6 C13.4366656,9.09148421 13.377828,8.53174714 13.4792825,7.99 Z M22.7674439,12.5 C24.9935196,12.614664 27.2254321,12.4973713 29.4274439,12.15 C31.1895067,11.92 32.8918386,11.44 34.633991,11.15 C36.9834081,10.71 39.4025112,10.69 41.7021525,9.95 L41.9709417,9.84 C41.8706888,9.80402347 41.7673964,9.7772473 41.6623318,9.76 C40.5772197,9.65 39.4821525,9.62 38.4169507,9.41 C36.8488824,8.9883574 35.183471,9.12982999 33.7081614,9.81 C32.6781339,10.4406649 31.4117585,10.5445082 30.2935426,10.09 C28.7405381,9.43 27.1278027,9.87 25.564843,10.27 C24.3403587,10.59 23.1357848,10.82 22.0904933,9.79 C21.8820281,9.62077163 21.6218388,9.52894198 21.3538117,9.53 C20.7664574,9.48 20.1591928,9.53 19.5817937,9.46 C18.586278,9.29 17.6803587,7.79 17.7201794,6.55 C17.7201794,5.93 17.4215247,5.75 16.9138117,5.72 C16.227821,5.74342417 15.5828005,6.05379965 15.1347061,6.57608246 C14.6866118,7.09836527 14.4762342,7.78501124 14.5544395,8.47 C14.6537551,9.16272095 14.8550594,9.8367579 15.1517489,10.47 C15.5599103,11.2 15.9382063,11.91 16.8839462,12.11 C18.8293949,12.418579 20.798344,12.5524415 22.7674439,12.51 L22.7674439,12.5 Z" id="Shape" fill="#E1805A"></path>
                            <path d="M13.4792825,7.99 C13.3883296,8.53889203 13.4610681,9.10254527 13.6883408,9.61 L9.8058296,9.4 C9.7205417,9.4139869 9.63706831,9.43746474 9.55695067,9.47 C9.59418959,9.54349978 9.6374793,9.6137443 9.68636771,9.68 C10.5026906,10.68 11.0800897,11.68 10.46287,13.05 C10.0945291,13.82 9.5270852,14.05 8.8103139,13.6 C8.63112108,13.48 8.65103139,13.67 8.61121076,13.74 C8.35591109,14.573251 7.91308739,15.3362857 7.31704036,15.97 C5.91093808,16.8649285 4.06943978,16.6252962 2.9367713,15.4 C2.09617197,14.5497344 1.37597219,13.5873857 0.796412556,12.54 C0.381785635,11.8787381 0.542059013,11.0084931 1.16475336,10.54 C1.21452915,10.49 1.34394619,10.43 1.2244843,10.34 C0.22896861,9.55 0.22896861,8.34 0.0696860987,7.25 C0.00425753711,6.45049741 0.074955807,5.64564113 0.278744395,4.87 C0.328912441,4.2741895 0.733356101,3.76827171 1.30167191,3.59042194 C1.86998772,3.41257218 2.48891865,3.5982333 2.8670852,4.06 C3.1458296,4.3 3.20556054,4.29 3.36484305,3.94 C3.92233184,2.76 4.36035874,1.48 5.84367713,1.09 C6.78206045,0.744470321 7.83425464,0.961277255 8.56143498,1.65 C9.25648724,2.30315047 9.39414605,3.35909838 8.88995516,4.17 C8.82026906,4.32 8.83022422,4.37 9.02932735,4.37 C9.84164971,4.32645979 10.5780641,4.84716469 10.8113004,5.63 C11.0203587,6.48 10.403139,6.94 9.8755157,7.44 L9.60672646,7.71 C9.72752388,7.74516464 9.85059779,7.77189508 9.97506726,7.79 L13.4792825,7.99 Z" id="Path" fill="#8CF18C"></path>
                            <path d="M22.7674439,12.51 C20.8143506,12.5428685 18.8621856,12.402322 16.933722,12.09 C15.9382063,11.89 15.6096861,11.18 15.2015247,10.45 C14.9048352,9.8167579 14.7035309,9.14272095 14.6042152,8.45 C14.5232725,7.76839777 14.7283508,7.0837018 15.1702674,6.56011901 C15.6121839,6.03653623 16.2510761,5.72129575 16.933722,5.69 C17.441435,5.69 17.7699552,5.9 17.7400897,6.52 C17.7400897,7.76 18.646009,9.26 19.601704,9.43 C20.1791031,9.53 20.7863677,9.43 21.373722,9.5 C21.6417492,9.49894198 21.9019385,9.59077163 22.1104036,9.76 C23.1059193,10.76 24.3602691,10.56 25.5847534,10.24 C27.147713,9.84 28.7604484,9.4 30.3134529,10.06 C31.4316688,10.5145082 32.6980442,10.4106649 33.7280717,9.78 C35.2033813,9.09982999 36.8687927,8.9583574 38.436861,9.38 C39.5020628,9.59 40.59713,9.62 41.6822422,9.73 C41.7873067,9.7472473 41.8905991,9.77402347 41.990852,9.81 L41.7220628,9.92 C39.4224215,10.66 37.0033184,10.68 34.6539013,11.12 C32.9117489,11.45 31.209417,11.93 29.4473543,12.12 C27.240183,12.4821283 25.0015184,12.6128305 22.7674439,12.51 Z" id="Path" fill="#EFAA6C"></path>
                        </g>
                        <g id="Soseto.tif-5" transform="translate(16.923767, 30.000000)">
                            <path d="M10.7017937,9.99 C10.6022248,10.7467094 10.6022248,11.5132906 10.7017937,12.27 C11.0769731,13.5927193 11.9475399,14.7180852 13.130852,15.41 C14.6639462,16.57 16.5653812,16.9 18.3871749,17.36 C19.8561798,17.778455 21.3017583,18.2758376 22.7176682,18.85 C24.3478646,19.3431813 26.0113821,19.7174877 27.6952466,19.97 C29.0351806,20.3394235 30.4039724,20.5936735 31.7868161,20.73 C32.391758,20.7944313 33.0029926,20.7640692 33.5986547,20.64 C33.7479821,20.64 33.7778475,20.55 33.7380269,20.39 C33.489148,19.39 32.6429596,18.89 31.9859193,18.29 C29.9948879,16.44 28.163139,14.39 26.1920179,12.52 C24.9087084,11.4511767 23.525082,10.5100915 22.0606278,9.71 C20.806278,8.91 19.5320179,8.13 18.2278924,7.43 C17.4201909,6.91168899 16.526773,6.54255233 15.5897758,6.34 C14.2643531,6.20122255 12.9730205,6.81891276 12.244843,7.94 C12.0059193,8.24 11.7271749,8.49 11.4683408,8.77 C11.1142612,9.10503428 10.8505284,9.524779 10.7017937,9.99 Z M18.835157,9.66 C20.4049206,10.3538372 21.8829336,11.2406088 23.2353363,12.3 C24.3403587,13.11 25.306009,14.09 26.3612556,14.97 C27.7748879,16.16 29.4174888,17.03 30.6817937,18.44 C30.7368207,18.496515 30.7837302,18.5604646 30.8211659,18.63 L30.5822422,18.58 C29.8154136,18.2473552 29.0311122,17.9569247 28.2328251,17.71 C26.9890342,17.486839 25.8892349,16.764778 25.1865471,15.71 C24.7713661,14.856649 23.9214862,14.3028923 22.9765022,14.27 C21.6524664,14.27 20.7365919,13.33 19.8306726,12.45 C19.1238565,11.76 18.39713,11.15 17.2622422,11.61 C17.0643743,11.6731872 16.8496597,11.6552138 16.6649327,11.56 C16.2649971,11.3457252 15.8527979,11.1553931 15.4304933,10.99 C14.713722,10.78 13.4394619,11.65 12.9914798,12.66 C12.7625112,13.17 12.4638565,13.2 12.115426,13.04 C11.1199103,12.62 10.910852,10.94 11.607713,10.04 C11.9501586,9.52221424 12.358454,9.05156803 12.8222422,8.64 C13.3996413,8.2 13.9372197,7.76 14.6639462,7.93 C16.1090314,8.35485418 17.506788,8.92786859 18.835157,9.64 L18.835157,9.66 Z" id="Shape" fill="#E1805A"></path>
                            <path d="M10.7017937,9.99 C10.85903,9.52160956 11.1332378,9.10155899 11.4982063,8.77 L8.77049327,7.54 C8.71076233,7.54 8.6709417,7.45 8.62116592,7.4 C8.67855435,7.35657817 8.73838432,7.31651186 8.80035874,7.28 C9.82499336,6.8796249 10.5477855,5.94613473 10.6818834,4.85 C10.7515695,4.1 10.4529148,3.71 9.77596413,3.85 C9.61668161,3.85 9.69632287,3.74 9.69632287,3.66 C9.85550269,2.92189371 9.85550269,2.15810629 9.69632287,1.42 C9.42426453,0.839901926 8.92892155,0.39598443 8.32425461,0.19037703 C7.71958767,-0.0152303689 7.05766176,0.0351762034 6.49076233,0.33 C5.55509165,0.722626972 4.67482473,1.23702814 3.87255605,1.86 C3.31541851,2.25513026 3.0876743,2.97412197 3.31506726,3.62 C3.31506726,3.67 3.39470852,3.77 3.31506726,3.8 C2.31955157,4.06 1.83174888,5.02 1.32403587,5.88 C0.958233608,6.50292665 0.686484458,7.17693466 0.517668161,7.88 C0.179192825,9.08 0.826278027,9.81 1.94125561,9.45 C2.23991031,9.35 2.26977578,9.38 2.23991031,9.71 C2.14035874,10.85 1.92134529,12.05 2.77748879,12.88 C3.28429924,13.4904957 4.12833052,13.6973832 4.85811659,13.39 C5.61101063,13.0618469 6.09663057,12.3144 6.09255605,11.49 C6.09255605,11.34 6.09255605,11.31 6.27174888,11.37 C6.85508586,11.6805284 7.57657418,11.5194755 7.97408072,10.99 C8.46188341,10.38 8.22295964,9.79 8.07363229,9.21 C8.07363229,9.11 8.07363229,9 7.99399103,8.9 C8.08946358,8.91148226 8.18311575,8.93500077 8.27273543,8.97 L10.7017937,9.99 Z" id="Path" fill="#8CF18C"></path>
                            <path d="M18.835157,9.64 C17.5083806,8.91409389 16.110574,8.32765468 14.6639462,7.89 C13.9372197,7.72 13.3996413,8.16 12.8222422,8.6 C12.3591195,9.00848214 11.9508523,9.47573436 11.607713,9.99 C10.910852,10.93 11.1597309,12.61 12.115426,12.99 C12.4638565,13.15 12.7625112,13.12 12.9914798,12.61 C13.4693274,11.61 14.713722,10.73 15.4304933,10.94 C15.8527979,11.1053931 16.2649971,11.2957252 16.6649327,11.51 C16.8496597,11.6052138 17.0643743,11.6231872 17.2622422,11.56 C18.39713,11.1 19.1238565,11.71 19.8306726,12.4 C20.7365919,13.28 21.6524664,14.2 22.9765022,14.22 C23.9214862,14.2528923 24.7713661,14.806649 25.1865471,15.66 C25.8892349,16.714778 26.9890342,17.436839 28.2328251,17.66 C29.0311122,17.9069247 29.8154136,18.1973552 30.5822422,18.53 L30.8211659,18.58 C30.7837302,18.5104646 30.7368207,18.446515 30.6817937,18.39 C29.4174888,16.99 27.7748879,16.14 26.3612556,14.99 C25.306009,14.11 24.3702242,13.13 23.2353363,12.32 C21.8850713,11.2466166 20.406967,10.3463535 18.835157,9.64 L18.835157,9.64 Z" id="Path" fill="#EFAA6C"></path>
                        </g>
                        <ellipse id="Oval" fill="#B1B1C4" transform="translate(33.365396, 72.363922) rotate(-74.840000) translate(-33.365396, -72.363922) " cx="33.365396" cy="72.3639221" rx="7.68764315" ry="4.23225425"></ellipse>
                        <ellipse id="Oval" fill="#B1B1C4" cx="55.1913901" cy="73.11" rx="3.75309417" ry="5.41"></ellipse>
                    </g>
                </g>
            </g>
        </g>
    </g>
</svg>