<svg width="222" height="162" viewBox="0 0 222 162" fill="none" xmlns="http://www.w3.org/2000/svg">
<path d="M18.9111 91.535C18.9111 41.5207 59.5718 0.976013 109.729 0.976013C159.887 0.976013 200.548 41.5207 200.548 91.535" fill="#F4F6F1"/>
<path d="M68.6581 134.138C85.4052 134.138 98.9813 130.484 98.9813 125.978C98.9813 121.471 85.4052 117.817 68.6581 117.817C51.9111 117.817 38.335 121.471 38.335 125.978C38.335 130.484 51.9111 134.138 68.6581 134.138Z" fill="#309E74"/>
<path d="M155.511 133.182C172.604 133.182 186.46 129.452 186.46 124.851C186.46 120.249 172.604 116.519 155.511 116.519C138.419 116.519 124.562 120.249 124.562 124.851C124.562 129.452 138.419 133.182 155.511 133.182Z" fill="#309E74"/>
<rect x="109.284" y="112.645" width="0.494455" height="6.52025" rx="0.24" fill="#00896F"/>
<path d="M109.476 112.665C109.476 112.665 108.215 115.684 102.09 113.581C102.09 113.581 106.873 107.785 109.476 111.72C109.476 111.72 110.485 108.439 115.632 111.72C115.632 111.659 113.028 115.282 109.476 112.665Z" fill="#00896F"/>
<path d="M112.393 111.84C111.474 111.215 110.228 111.404 109.537 112.273C109.537 112.273 107.519 111.086 106.086 112.645" stroke="#0C6D5B" stroke-width="0.41" stroke-linecap="round" stroke-linejoin="round"/>
<rect x="105.844" y="140.145" width="0.504545" height="6.71143" rx="0.25" fill="#00896F"/>
<path d="M106.035 140.145C106.035 140.145 104.743 143.244 98.4365 141.081C98.4365 141.081 103.361 135.114 106.035 139.159C106.035 139.159 107.105 135.788 112.372 139.159C112.372 139.159 109.658 142.852 106.035 140.145Z" fill="#00896F"/>
<path d="M109.042 139.31C108.097 138.672 106.819 138.865 106.106 139.753C106.106 139.753 103.987 138.535 102.554 140.145" stroke="#0C6D5B" stroke-width="0.42" stroke-linecap="round" stroke-linejoin="round"/>
<rect x="193.968" y="98.7295" width="0.444" height="5.85615" rx="0.22" fill="#00896F"/>
<path d="M194.129 98.7294C194.129 98.7294 192.999 101.436 187.51 99.5545C187.51 99.5545 191.798 94.3524 194.129 97.8742C194.129 97.8742 195.058 94.926 199.659 97.8742C199.659 97.8742 197.288 101.094 194.129 98.7294Z" fill="#00896F"/>
<path d="M196.783 98.005C195.96 97.4451 194.843 97.6117 194.22 98.3873C194.22 98.3873 192.373 97.3207 191.122 98.7294" stroke="#0C6D5B" stroke-width="0.36" stroke-linecap="round" stroke-linejoin="round"/>
<rect x="21.0996" y="100.259" width="0.444" height="5.85615" rx="0.22" fill="#00896F"/>
<path d="M21.2713 100.259C21.2713 100.259 20.1311 102.966 14.6416 101.084C14.6416 101.084 18.9302 95.8718 21.2713 99.4036C21.2713 99.4036 22.1896 96.4554 26.7911 99.4036C26.7911 99.4036 24.4298 102.603 21.2713 100.259Z" fill="#00896F"/>
<path d="M23.8856 99.5848C23.0623 99.0249 21.9455 99.1916 21.3225 99.9672C21.3225 99.9672 19.4759 98.9006 18.2246 100.309" stroke="#0C6D5B" stroke-width="0.36" stroke-linecap="round" stroke-linejoin="round"/>
<path d="M194.765 89.3214C227.641 89.6736 222.01 110.885 214.058 119.618C203.887 130.787 183.543 141.161 170.526 150.509C165.319 154.242 159.769 157.885 153.109 159.927C137.307 164.767 119.345 159.585 104.582 153.125C89.8191 146.665 75.3184 138.676 58.3052 137.509C44.6118 136.573 30.0002 140.155 17.4673 135.879C3.80416 131.22 -2.21002 118.149 0.736526 107.041C2.3208 101.004 5.71134 93.5475 18.5773 89.3214" fill="#2EBF8B"/>
<path d="M70.2626 129.037C87.0097 129.037 100.586 125.383 100.586 120.876C100.586 116.369 87.0097 112.716 70.2626 112.716C53.5156 112.716 39.9395 116.369 39.9395 120.876C39.9395 125.383 53.5156 129.037 70.2626 129.037Z" fill="#32A579"/>
<path d="M142.988 128.081C160.08 128.081 173.937 124.351 173.937 119.749C173.937 115.148 160.08 111.418 142.988 111.418C125.895 111.418 112.039 115.148 112.039 119.749C112.039 124.351 125.895 128.081 142.988 128.081Z" fill="#32A579"/>
<path d="M25.2378 40.9427C25.2378 40.9427 21.5647 57.7163 37.7202 79.1788L42.8868 86.7857C42.8868 86.7857 39.8595 61.8418 32.5739 51.3772L25.2378 40.9427Z" fill="#568291"/>
<path d="M50.3641 50.9344C50.3641 50.9344 36.3378 59.3363 43.0079 86.6549C43.0079 86.6549 48.9413 83.093 48.5478 70.5053C48.1542 57.9176 45.4196 55.3115 50.3641 50.9344Z" fill="#568291"/>
<path d="M1.81641 66.0679C1.81641 66.0679 27.7803 66.581 43.0983 86.6147C43.0983 86.6147 14.9043 85.367 1.81641 66.0679Z" fill="#568291"/>
<path d="M27.71 49.1635C27.71 49.1635 38.5173 71.6121 39.6374 79.0983L27.71 49.1635Z" fill="#76B98C"/>
<path d="M10.5449 71.4108C10.5449 71.4108 29.8286 75.0533 39.1325 84.9142" stroke="#76B98C" stroke-width="0.38" stroke-linecap="round" stroke-linejoin="round"/>
<path d="M45.7418 63.3611C45.7418 63.3611 42.5026 75.7275 41.9678 84.4916L45.7418 63.3611Z" fill="#76B98C"/>
<path d="M197.792 49.9081C197.792 49.9081 203.15 62.7171 192.101 82.1068L188.71 88.8384C188.71 88.8384 188.004 68.5934 192.918 59.2558L197.792 49.9081Z" fill="#568291"/>
<path d="M221.233 66.571C221.233 66.571 199.033 70.5958 188.488 88.7076C188.488 88.7177 212.525 83.747 221.233 66.571Z" fill="#568291"/>
<path d="M196.783 56.7906C196.783 56.7906 190.445 76.1501 190.476 82.2578L196.783 56.7906Z" fill="#76B98C"/>
<path d="M214.442 72.075C214.442 72.075 198.367 77.6997 191.677 86.8361" stroke="#76B98C" stroke-width="0.31" stroke-linecap="round" stroke-linejoin="round"/>
<path fill-rule="evenodd" clip-rule="evenodd" d="M179.437 54.1442C179.437 54.1442 181.062 55.402 182.01 55.1504C182.959 54.8989 182.01 54.436 182.01 54.436C182.01 54.436 184.987 54.104 184.543 53.1883C184.099 52.2727 181.99 52.6752 181.99 52.6752C181.99 52.6752 183.756 51.3067 182.343 50.8036C180.93 50.3005 180.446 52.0211 180.446 52.0211C180.446 52.0211 180.597 49.727 179.437 49.5056C178.276 49.2842 178.428 51.1256 178.428 51.1256C178.428 51.1256 176.642 49.4653 175.905 50.1194C175.168 50.7734 176.975 52.2324 176.975 52.2324C176.975 52.2324 175.915 52.5041 176.349 53.2386C176.783 53.9732 179.437 54.1442 179.437 54.1442Z" fill="#FCFA3D"/>
<path d="M179.316 52.9971C179.316 52.9971 181.051 53.5204 180.375 54.1342C179.699 54.7479 179.447 54.4863 179.316 54.9391C178.508 55.4221 174.633 86.5543 175.279 86.5342C174.997 86.4235 174.936 84.9645 174.644 84.8538C174.866 77.9713 177.328 61.4292 178.68 54.6675C178.68 54.6675 177.59 53.6612 177.852 53.1783C178.115 52.6953 177.156 53.299 179.316 52.9971Z" fill="#538463"/>
<path d="M172.181 62.9285C172.181 62.9285 174.028 62.7071 173.463 63.4316C173.079 64.2265 172.575 64.3774 172.534 64.8503C172.494 65.3232 173.321 90.1465 173.321 90.1465C172.746 88.9491 172.716 88.2045 172.423 88.134C171.989 81.2516 172.292 71.5416 171.858 64.6491C171.858 64.6491 170.617 63.8642 170.778 63.3209C170.94 62.7775 170.112 63.5926 172.181 62.9285Z" fill="#538463"/>
<path fill-rule="evenodd" clip-rule="evenodd" d="M173.795 61.9525C173.795 61.9525 175.148 59.8696 174.017 59.3766C172.887 58.8835 172.12 61.2179 172.12 61.2179C172.12 61.2179 171.051 58.5213 170.102 59.0948C169.154 59.6684 170.314 61.5198 170.314 61.5198C170.314 61.5198 168.155 60.5136 167.287 61.1173C166.419 61.721 169.305 62.7373 169.305 62.7373C169.305 62.7373 167.216 63.0895 168.477 63.7435C169.299 64.0998 170.257 63.9024 170.869 63.2505C171.081 63.8844 172.736 64.2567 172.988 63.2505C173.442 62.9687 176.096 63.6026 176.147 62.5562C176.197 61.5097 173.795 61.9525 173.795 61.9525Z" fill="#FCFA3D"/>
<path fill-rule="evenodd" clip-rule="evenodd" d="M173.019 62.355C172.343 61.228 170.738 62.0531 170.849 62.4958C171.539 62.2219 172.299 62.1726 173.019 62.355Z" fill="#ECCB32"/>
<rect x="103.795" y="97.8138" width="0.494455" height="6.03727" rx="0.23" fill="#4F8470"/>
<path d="M103.946 97.8139C103.946 97.8139 102.695 100.601 96.6201 98.6591C96.6201 98.6591 101.373 93.2859 103.946 96.9284C103.946 96.9284 104.955 93.9098 110.061 96.9284C110.091 96.9284 107.478 100.249 103.946 97.8139Z" fill="#4F8470"/>
<path d="M106.883 97.0592C105.965 96.4862 104.768 96.6562 104.047 97.4617C104.047 97.4617 102.029 96.3649 100.616 97.8139" stroke="#406A5B" stroke-width="0.39" stroke-linecap="round" stroke-linejoin="round"/>
<rect x="187.55" y="107.876" width="0.494455" height="6.03727" rx="0.23" fill="#4F8470"/>
<path d="M187.701 107.876C187.701 107.876 186.45 110.663 180.375 108.721C180.375 108.721 185.128 103.348 187.701 106.99C187.701 106.99 188.71 103.972 193.816 106.99C193.846 106.99 191.233 110.311 187.701 107.876Z" fill="#4F8470"/>
<path d="M190.638 107.121C189.72 106.548 188.522 106.718 187.802 107.524C187.802 107.524 185.784 106.427 184.371 107.876" stroke="#406A5B" stroke-width="0.39" stroke-linecap="round" stroke-linejoin="round"/>
<rect x="109.85" y="138.062" width="0.494455" height="6.03727" rx="0.23" fill="#4F8470"/>
<path d="M110.001 138.062C110.001 138.062 108.75 140.849 102.675 138.908C102.675 138.908 107.428 133.534 110.001 137.177C110.001 137.177 111.01 134.158 116.116 137.177C116.146 137.177 113.533 140.497 110.001 138.062Z" fill="#4F8470"/>
<path d="M112.937 137.308C112.02 136.735 110.822 136.905 110.102 137.71C110.102 137.71 108.084 136.613 106.671 138.062" stroke="#406A5B" stroke-width="0.39" stroke-linecap="round" stroke-linejoin="round"/>
<rect x="19.0312" y="105.864" width="0.494455" height="6.03727" rx="0.23" fill="#4F8470"/>
<path d="M19.1824 105.864C19.1824 105.864 17.9312 108.651 11.8564 106.709C11.8564 106.709 16.6093 101.336 19.1824 104.978C19.1824 104.978 20.1915 101.959 25.2975 104.978C25.3278 104.978 22.7143 108.299 19.1824 105.864Z" fill="#4F8470"/>
<path d="M22.119 105.109C21.2018 104.536 20.0039 104.706 19.2834 105.511C19.2834 105.511 17.2653 104.415 15.8525 105.864" stroke="#406A5B" stroke-width="0.39" stroke-linecap="round" stroke-linejoin="round"/>
<path d="M13.6631 92.2696H115.046C115.046 92.2696 106.853 70.9178 87.3267 79.0781C87.3267 79.0781 72.8362 54.6373 48.9005 77.2267C48.9409 77.2267 23.7439 59.6079 13.6631 92.2696Z" fill="url(#paint0_linear)"/>
<path d="M209.901 92.5412H108.518C108.518 92.5412 116.711 71.1894 136.237 79.3498C136.237 79.3498 150.728 54.8989 174.663 77.4883C174.663 77.448 199.86 59.8796 209.901 92.5412Z" fill="url(#paint1_linear)"/>
<path d="M159.446 93.5475C160.808 91.535 163.815 91.535 165.5 91.535C167.186 91.535 170.122 91.535 171.555 93.5475C172.988 95.5599 171.999 98.3672 171.555 99.5847C171.111 100.802 170.405 102.744 168.528 103.61C165.823 104.857 162.897 102.895 162.473 102.603C159.557 100.591 157.7 96.0932 159.446 93.5475Z" fill="white"/>
<path d="M136.237 110.653C133.946 108.641 130.334 109.295 123.119 110.653C120.646 111.116 119.284 111.549 118.073 112.665C116.126 114.457 115.046 117.576 116.055 118.703C116.842 119.578 118.709 119.045 120.091 118.703C130.495 116.167 136.671 119.709 138.255 116.69C139.203 114.899 137.811 112.062 136.237 110.653Z" fill="#767687"/>
<path d="M122.11 83.4854C121.757 84.6324 123.613 86.3028 124.128 86.504C129.173 88.5164 136.237 88.5164 140.273 85.4978C142.483 83.8476 139.446 78.9071 137.246 78.4543C135.985 78.1927 135.339 79.2693 133.21 80.4667C127.781 83.4854 122.655 81.7245 122.11 83.4854Z" fill="#767687"/>
<path d="M159.446 115.684C153.291 121.007 145.571 120.001 143.301 119.709C141.03 119.417 129.587 117.556 127.155 109.647C125.016 102.684 130.576 93.5475 134.219 91.5351C135.111 91.1264 135.827 90.4125 136.237 89.5226C136.843 87.9429 135.702 86.7757 135.228 84.4916C134.796 82.0967 135.15 79.6266 136.237 77.4481C137.176 75.4961 138.679 74.0572 141.283 72.4171C147.418 68.5532 153.523 64.7095 158.437 67.386C163.14 69.9518 165.38 77.7299 163.483 82.4792C162.827 84.1193 161.565 85.6689 161.464 88.5164C161.464 90.2434 161.807 91.9533 162.474 93.5475C164.421 99.3835 165.39 102.291 165.501 103.61C166.036 109.858 160.213 115.02 159.446 115.684Z" fill="#D3CCF5"/>
<path d="M140.819 78.4543C142.695 79.3499 144.542 78.9977 147.337 78.4543C150.132 77.911 152.544 77.4481 154.774 75.4357C158.155 72.4171 160.344 66.2993 158.498 63.3612C155.228 58.159 138.104 60.906 136.167 68.3922C135.228 71.8636 137.509 76.8544 140.819 78.4543Z" fill="#C4BEE9"/>
<path d="M154.4 48.268C146.519 45.2493 139.163 53.299 138.255 54.3052C135.147 57.8068 131.494 64.639 134.219 70.4046C135.096 72.2025 136.455 73.7241 138.144 74.8017C138.501 75.0411 138.875 75.253 139.264 75.4357C143.755 77.5688 148.346 75.6771 151.373 74.4294C154.794 73.0207 159.446 71.0888 161.464 66.3798C164.068 60.1815 161.262 50.8942 154.4 48.268Z" fill="#D3CCF5"/>
<path d="M158.437 53.299C159.567 53.4801 163.24 44.9072 163.482 35.1872C163.795 22.4385 158.134 10.7061 156.419 11.0381C156.197 11.0381 155.964 11.3501 155.409 16.0692C154.562 23.2938 154.128 26.9161 154.4 30.1561C154.885 35.972 156.328 35.7306 157.428 43.2369C158.437 49.8276 157.74 53.1883 158.437 53.299Z" fill="#D3CCF5"/>
<path d="M126.146 27.1375C125.137 29.0896 130.535 35.0363 136.237 38.2059C141.565 41.2245 142.887 41.0132 147.337 43.2369C150.404 44.7468 152.886 47.2223 154.4 50.2804C154.764 51.0049 160.102 52.5846 159.446 51.2866C158.437 49.2742 156.721 40.9126 150.364 35.1872C141.141 26.886 127.538 24.5818 126.146 27.1375Z" fill="#D3CCF5"/>
<path d="M123.119 93.5475C123.401 94.7046 125.51 95.6505 128.164 96.5661C134.885 98.8804 139.264 97.5723 139.264 97.5723C144.677 96.3651 149.6 93.5601 153.391 89.5226C155.359 87.3895 158.558 83.9382 157.428 81.473C156.509 79.4605 152.927 78.5952 150.364 79.4605C148.295 80.1649 146.762 80.6982 143.3 84.4916C141.749 86.294 140.062 87.9759 138.255 89.5226C135.228 91.5351 132.998 92.2897 129.173 91.5351C126.146 90.9313 124.481 89.5226 123.119 90.5289C122.22 91.1628 122.866 92.5413 123.119 93.5475Z" fill="#87879E"/>
<path d="M153.392 115.684C151.06 116.145 148.66 116.145 146.328 115.684C143.775 115.201 143.765 114.678 142.292 114.678C139.325 114.738 136.51 117.043 135.228 119.709C134.473 121.275 134.125 123.005 134.219 124.74C135.016 125.153 137.065 126.441 138.255 125.746C140.647 124.358 143.886 123.482 150.364 121.721C156.419 120.091 157.892 120.574 159.446 118.703C161.192 116.6 161.464 113.34 160.455 112.666C159.446 111.991 157.812 114.678 153.392 115.684Z" fill="#87879E"/>
<path d="M145.319 62.355C145.047 63.663 144.754 65.0415 145.319 65.3736C145.884 65.7056 146.813 65.0617 147.337 64.3674C148.528 62.7876 147.408 60.4834 147.337 60.3425C147.012 60.2214 146.654 60.2214 146.328 60.3425C146.137 60.423 145.672 60.6846 145.319 62.355Z" fill="#29234A"/>
<path d="M139.607 59.8394C139.244 59.7187 138.598 60.4331 138.326 61.0167C137.841 62.0229 137.912 63.2303 138.326 63.3611C138.739 63.492 139.335 62.7574 139.607 62.1839C140.112 61.228 140.041 59.9702 139.607 59.8394Z" fill="#29234A"/>
<path d="M136.237 66.9432C136.499 66.4703 139.96 67.8689 139.87 68.3922C139.809 68.694 138.487 68.9154 137.418 68.3016C136.792 67.9293 136.136 67.1847 136.237 66.9432Z" fill="#29234A"/>
<path d="M159.447 48.268C159.245 46.4366 158.912 43.6394 158.438 40.2183C157.842 35.9217 157.661 35.1872 157.428 33.1748C156.833 27.9525 156.722 21.1606 157.428 21.1002C158.387 21.0198 160.032 27.9022 160.456 34.181C160.766 38.9006 160.426 43.6402 159.447 48.268Z" fill="#6F65C4"/>
<path d="M134.986 30.1561C128.164 28.1437 138.437 33.2855 140.96 35.6601C144.108 38.6788 150.909 43.8004 152.382 45.2694C153.392 46.2756 154.966 48.8012 155.41 48.2881C156.015 47.5837 153.21 41.2446 148.346 37.2197C143.785 33.4465 138.074 31.5347 134.986 30.1561Z" fill="#6F65C4"/>
<path d="M52.4831 96.5661C52.6647 94.1411 52.8262 92.1086 51.474 90.5288C49.6778 88.4258 45.9442 88.0133 43.4013 89.5226C39.8997 91.6055 40.2731 96.3648 40.374 97.5723C40.4749 98.7798 40.6565 101.104 42.3922 102.603C44.7555 104.476 48.1016 104.476 50.4649 102.603C52.1299 101.164 52.2913 99.0716 52.4831 96.5661Z" fill="white"/>
<path d="M78.7191 83.4854C80.0814 85.7795 85.147 84.8035 86.7918 84.4916C89.2036 84.0287 90.7576 83.1734 93.8555 81.4729C97.1552 79.6618 99.0321 78.6254 98.9009 77.4481C98.7698 76.2708 96.6305 75.1741 94.8646 75.4357C93.4115 75.657 93.0886 76.6633 91.8373 77.4481C88.1743 79.7523 84.0067 75.4357 80.7373 77.4481C78.7191 78.6757 77.71 81.8553 78.7191 83.4854Z" fill="#767687"/>
<path d="M110.97 89.6434C119.552 89.6434 126.51 82.7058 126.51 74.1478C126.51 65.5897 119.552 58.6521 110.97 58.6521C102.387 58.6521 95.4297 65.5897 95.4297 74.1478C95.4297 82.7058 102.387 89.6434 110.97 89.6434Z" fill="#5A4BB6"/>
<path d="M104.714 68.3419C105.271 68.3419 105.723 67.8914 105.723 67.3357C105.723 66.78 105.271 66.3295 104.714 66.3295C104.157 66.3295 103.705 66.78 103.705 67.3357C103.705 67.8914 104.157 68.3419 104.714 68.3419Z" fill="white"/>
<path d="M101.515 67.7583C101.911 67.7583 102.232 67.4384 102.232 67.0439C102.232 66.6493 101.911 66.3295 101.515 66.3295C101.12 66.3295 100.799 66.6493 100.799 67.0439C100.799 67.4384 101.12 67.7583 101.515 67.7583Z" fill="white"/>
<path d="M111.767 82.0364C115.796 81.5317 118.783 78.0598 118.671 74.0119C118.559 69.964 115.384 66.6619 111.333 66.3798C110.825 66.3508 110.315 66.3676 109.809 66.4301C109.145 66.495 108.495 66.6613 107.882 66.9232C107.184 67.2029 106.722 67.8734 106.711 68.6237C106.709 69.1111 106.901 69.5795 107.246 69.9251C107.59 70.2707 108.059 70.465 108.548 70.465C108.853 70.4105 109.153 70.3331 109.446 70.2336C109.979 70.0439 110.546 69.9652 111.111 70.0022C112.562 70.0885 113.866 70.9136 114.562 72.1856C114.961 72.8892 115.143 73.6939 115.087 74.4999C114.977 76.3213 113.71 77.8678 111.942 78.3382C110.174 78.8086 108.302 78.0973 107.297 76.5727C106.767 75.7003 106.536 74.6794 106.641 73.6648C106.603 72.7603 105.912 72.0173 105.01 71.9121C104.109 71.8069 103.264 72.3708 103.018 73.2422C102.997 73.463 102.997 73.6854 103.018 73.9063C102.84 78.1805 106.123 81.812 110.405 82.0767C110.874 82.1221 111.348 82.1221 111.817 82.0767" fill="white"/>
<path d="M103.402 71.3002C104.126 71.3002 104.713 70.7145 104.713 69.9921C104.713 69.2697 104.126 68.684 103.402 68.684C102.677 68.684 102.09 69.2697 102.09 69.9921C102.09 70.7145 102.677 71.3002 103.402 71.3002Z" fill="white"/>
<path d="M73.6732 113.672C74.1071 115.734 78.8095 116.258 82.755 116.69C86.7006 117.123 90.8278 117.586 91.8369 115.684C92.4726 114.447 91.4635 112.736 90.8278 111.659C89.6734 109.767 87.8868 108.342 85.7823 107.634C81.302 106.236 77.5179 109.043 76.7005 109.647C75.5804 110.472 73.3503 112.132 73.6732 113.672Z" fill="#767687"/>
<path d="M46.4279 111.659C48.7286 117.395 56.5188 118.914 60.5552 119.709C65.26 120.78 70.178 120.43 74.6825 118.703C77.1951 117.697 81.5342 115.936 83.7643 111.659C85.4797 108.359 85.2073 104.998 84.7734 99.5847C84.4 94.936 83.6129 94.3625 83.7643 90.5288C83.9257 86.3732 84.9045 85.7091 84.7734 82.4791C84.6014 79.2436 83.5554 76.1146 81.7461 73.4232C81.2819 72.729 76.8419 66.3093 68.6279 65.3735C66.3474 65.1119 61.7661 64.5988 58.537 67.386C54.6924 70.7065 54.0465 77.599 54.5006 81.4729C54.7876 83.1377 54.7876 84.8392 54.5006 86.504C54.1094 88.2801 53.4276 89.9799 52.4825 91.535C50.323 95.5599 49.1827 97.2302 48.4461 98.5785C47.9113 99.5847 44.2685 106.266 46.4279 111.659Z" fill="#D3CCF5"/>
<path d="M60.5551 62.3549C58.9708 63.8844 59.2736 66.8024 59.546 69.3984C59.7378 71.2599 60.2928 76.5727 64.5915 79.4605C69.6369 82.8917 76.0043 80.195 77.7097 79.4605C79.7278 78.5952 84.5513 76.5324 84.7733 73.4232C85.2274 66.903 65.2676 57.7968 60.5551 62.3549Z" fill="#C4BEE9"/>
<path d="M70.6467 19.0879C68.5579 17.9106 61.8272 24.0284 58.5376 31.1624C56.3919 35.8863 55.6899 41.1361 56.5194 46.2556C57.3872 51.2866 59.7586 55.5127 60.5558 55.3115C61.3529 55.1102 60.2127 51.8501 61.5649 47.2618C62.2006 45.1186 62.8363 44.4243 64.5921 41.2245C66.6207 37.7022 68.31 33.9962 69.6376 30.1562C70.021 28.9487 72.7658 20.2752 70.6467 19.0879Z" fill="#D3CCF5"/>
<path d="M64.5922 53.299C63.3207 52.8764 63.1189 48.6 64.5922 45.2493C65.2978 43.7054 66.3306 42.3323 67.6195 41.2245C72.786 36.5054 77.1655 32.5007 84.774 30.1562C85.2281 30.0153 93.9971 27.3489 94.8649 29.15C95.6217 30.7197 90.0314 35.0363 86.7922 37.1997C79.3653 42.1402 76.5701 40.8623 71.6558 45.2493C66.9938 49.405 65.9343 53.7518 64.5922 53.299Z" fill="#D3CCF5"/>
<path d="M59.5466 52.2928C56.2368 56.8107 57.256 61.9927 57.5284 63.3611C58.8403 70.0223 64.138 73.4233 65.6012 74.4295C69.1564 76.8232 73.4436 77.8919 77.7103 77.4481C79.6275 77.1965 82.6649 76.8041 84.7739 74.4295C86.8829 72.0548 86.8829 68.8249 86.7921 65.3736C86.6811 61.0569 86.5802 57.0623 83.7648 53.299C79.9819 48.3758 73.7159 46.0328 67.6193 47.2618C64.4075 47.9119 61.5401 49.6989 59.5466 52.2928Z" fill="#D3CCF5"/>
<path d="M61.5649 85.4978C61.7263 89.3516 67.8616 91.5351 70.6467 92.5413C76.1993 94.4817 82.2486 94.4817 87.8013 92.5413C91.5248 91.1426 92.4935 91.1527 96.8831 87.5102C102.938 82.4792 101.929 83.8979 101.929 82.4792C101.929 80.4667 102.292 80.1146 100.919 79.4605C98.9013 78.4543 96.3483 80.3661 94.8649 81.4729C93.1494 82.7408 93.1494 83.8375 91.8376 84.4916C87.8013 86.504 82.0192 85.5582 81.7467 85.4978C75.0262 84.079 74.6023 78.5952 69.6376 78.4543C65.7526 78.3436 61.4236 82.1773 61.5649 85.4978Z" fill="#87879E"/>
<path d="M52.4826 113.672C51.4735 114.436 53.2899 120.132 57.5281 123.734C60.2526 126.048 63.0276 126.692 67.619 127.759C70.9792 128.533 73.4919 129.087 74.6826 127.759C75.8733 126.43 75.0761 123.965 74.6826 122.728C74.4808 122.094 73.1488 117.958 69.6371 116.69C66.3071 115.493 64.8339 118.23 60.5553 117.697C55.6612 117.083 53.3908 112.977 52.4826 113.672Z" fill="#87879E"/>
<path d="M74.6824 62.3549C74.2204 62.536 73.8548 62.9005 73.6733 63.3612C73.4357 64.0111 73.4357 64.7237 73.6733 65.3736C73.9256 66.4502 74.087 67.1646 74.6824 67.386C75.5053 67.5398 76.3302 67.1285 76.7006 66.3798C76.9932 65.8364 76.8923 65.3736 76.7006 64.3674C76.5088 63.3612 76.3575 62.6367 75.6915 62.3549C75.3656 62.2365 75.0083 62.2365 74.6824 62.3549Z" fill="#29234A"/>
<path d="M84.4609 61.1173C84.0774 61.1173 83.7848 62.0631 83.7444 62.7071C83.6738 63.7737 84.2288 64.9107 84.6728 64.8604C85.1168 64.8101 85.3489 63.9246 85.3892 63.2706C85.4699 62.204 84.9049 61.067 84.4609 61.1173Z" fill="#29234A"/>
<path d="M81.7461 70.4046C82.6744 69.7808 84.3899 68.9456 84.7733 69.3984C85.1568 69.8512 84.5614 70.8474 83.7643 71.4108C82.6038 72.2259 80.8581 71.8838 80.737 71.4108C80.6663 71.1291 81.181 70.787 81.7461 70.4046Z" fill="#29234A"/>
<path d="M59.5461 51.2866C58.759 51.2866 57.0839 45.2493 58.537 39.212C60.2827 31.9069 66.0244 26.7551 66.6097 27.1375C66.7913 27.2482 66.4785 27.872 65.6006 30.1561C65.6006 30.1561 63.1182 36.5959 61.5642 42.2307C59.8791 48.3484 60.1011 51.2866 59.5461 51.2866Z" fill="#6F65C4"/>
<path d="M65.6005 47.2617C65.3281 47.0404 66.983 43.9714 69.6369 41.2245C74.9548 35.7104 82.3312 33.4565 82.7551 34.181C83.0174 34.6338 80.6763 36.4651 79.7278 37.1996C76.8519 39.4435 75.2171 39.7252 72.6641 41.2245C67.9517 43.9915 65.8931 47.5032 65.6005 47.2617Z" fill="#6F65C4"/>
<defs>
<linearGradient id="paint0_linear" x1="13.6631" y1="92.2705" x2="115.087" y2="92.2705" gradientUnits="userSpaceOnUse">
<stop stop-color="#6EB587"/>
<stop offset="0.32" stop-color="#69AD74"/>
<stop offset="1" stop-color="#5E9D4D"/>
</linearGradient>
<linearGradient id="paint1_linear" x1="209.941" y1="67.9044" x2="108.518" y2="67.9044" gradientUnits="userSpaceOnUse">
<stop stop-color="#6EB587"/>
<stop offset="0.32" stop-color="#69AD74"/>
<stop offset="1" stop-color="#5E9D4D"/>
</linearGradient>
</defs>
</svg>
