<svg xmlns="http://www.w3.org/2000/svg" xmlns:xlink="http://www.w3.org/1999/xlink" width="972.64" height="1075.48" viewBox="0 0 972.64 1075.48"><defs><style>.a,.aa,.ab,.ac,.b,.c,.d,.e,.f,.g,.h,.i,.j,.k,.l,.m,.n,.o,.p,.q,.r,.s,.t,.u,.v,.w,.x,.y,.z{fill:none;stroke-miterlimit:10;stroke-width:2px;}.a{stroke:url(#a);}.b{stroke:url(#b);}.c{stroke:url(#c);}.d{stroke:url(#d);}.e{stroke:url(#e);}.f{stroke:url(#f);}.g{stroke:url(#g);}.h{stroke:url(#h);}.i{stroke:url(#i);}.j{stroke:url(#j);}.k{stroke:url(#k);}.l{stroke:url(#l);}.m{stroke:url(#m);}.n{stroke:url(#n);}.o{stroke:url(#o);}.p{stroke:url(#p);}.q{stroke:url(#q);}.r{stroke:url(#r);}.s{stroke:url(#s);}.t{stroke:url(#t);}.u{stroke:url(#u);}.v{stroke:url(#v);}.w{stroke:url(#w);}.x{stroke:url(#x);}.y{stroke:url(#y);}.z{stroke:url(#z);}.aa{stroke:url(#aa);}.ab{stroke:url(#ab);}.ac{stroke:url(#ac);}</style><linearGradient id="a" x1="1207.62" y1="496.31" x2="655.61" y2="1361.06" gradientTransform="matrix(1, 0, 0, -1, 0, 1858)" gradientUnits="userSpaceOnUse"><stop offset="0.61" stop-color="#b88dfc"/><stop offset="0.95" stop-color="#95dde8"/></linearGradient><linearGradient id="b" x1="1201.02" y1="507.61" x2="663.97" y2="1348.93" xlink:href="#a"/><linearGradient id="c" x1="1194.98" y1="518.07" x2="672.87" y2="1335.99" xlink:href="#a"/><linearGradient id="d" x1="1188.92" y1="528.53" x2="681.76" y2="1323.02" xlink:href="#a"/><linearGradient id="e" x1="1182.84" y1="538.97" x2="690.62" y2="1310.07" xlink:href="#a"/><linearGradient id="f" x1="1176.8" y1="549.43" x2="699.52" y2="1297.11" xlink:href="#a"/><linearGradient id="g" x1="1170.76" y1="559.88" x2="708.41" y2="1284.16" xlink:href="#a"/><linearGradient id="h" x1="1164.71" y1="570.34" x2="717.32" y2="1271.2" xlink:href="#a"/><linearGradient id="i" x1="1158.64" y1="580.78" x2="726.19" y2="1258.24" xlink:href="#a"/><linearGradient id="j" x1="1152.6" y1="591.25" x2="735.09" y2="1245.3" xlink:href="#a"/><linearGradient id="k" x1="1146.56" y1="601.7" x2="743.98" y2="1232.36" xlink:href="#a"/><linearGradient id="l" x1="1140.51" y1="612.18" x2="752.9" y2="1219.4" xlink:href="#a"/><linearGradient id="m" x1="1134.47" y1="622.67" x2="761.79" y2="1206.51" xlink:href="#a"/><linearGradient id="n" x1="1128.44" y1="633.13" x2="770.68" y2="1193.58" xlink:href="#a"/><linearGradient id="o" x1="1122.45" y1="643.62" x2="779.62" y2="1180.68" xlink:href="#a"/><linearGradient id="p" x1="1116.41" y1="654.07" x2="788.51" y2="1167.76" xlink:href="#a"/><linearGradient id="q" x1="1110.39" y1="664.55" x2="797.41" y2="1154.85" xlink:href="#a"/><linearGradient id="r" x1="1104.39" y1="675" x2="806.32" y2="1141.93" xlink:href="#a"/><linearGradient id="s" x1="1098.39" y1="685.51" x2="815.23" y2="1129.1" xlink:href="#a"/><linearGradient id="t" x1="1092.36" y1="695.97" x2="824.1" y2="1116.22" xlink:href="#a"/><linearGradient id="u" x1="1086.43" y1="706.44" x2="833.05" y2="1103.37" xlink:href="#a"/><linearGradient id="v" x1="1080.48" y1="716.94" x2="841.99" y2="1090.56" xlink:href="#a"/><linearGradient id="w" x1="1074.51" y1="727.4" x2="850.87" y2="1077.75" xlink:href="#a"/><linearGradient id="x" x1="1068.58" y1="737.92" x2="859.83" y2="1064.95" xlink:href="#a"/><linearGradient id="y" x1="1062.69" y1="748.42" x2="868.73" y2="1052.27" xlink:href="#a"/><linearGradient id="z" x1="1056.82" y1="758.95" x2="877.66" y2="1039.62" xlink:href="#a"/><linearGradient id="aa" x1="1050.92" y1="769.44" x2="886.54" y2="1026.95" xlink:href="#a"/><linearGradient id="ab" x1="1045.09" y1="779.97" x2="895.49" y2="1014.33" xlink:href="#a"/><linearGradient id="ac" x1="1039.27" y1="790.49" x2="904.44" y2="1001.7" xlink:href="#a"/></defs><path class="a" d="M887.05,1501.13c90.74-11.71,156.81-42,196.09-64,57.19-32,103.29-57.77,129.75-111.08,17.67-35.62,6-42.11,27.95-164.28,17.7-98.62,29.56-118.23,35.58-127.25,23.33-35.11,39.2-32.92,83.25-88,26.7-33.38,42.11-53.1,48.24-83.06,1.62-7.89,6.06-33.44-13.94-95.64-19.74-61.35-34.46-107.1-78.6-150.42-16.71-16.4-56.76-55.72-117.27-66.4-42-7.42-48.75,6.9-135.21,4.38-65.14-1.9-83.79-10.69-95.23-17.85-22-13.76-20.09-23.21-56.59-56.17-28-25.25-43.17-39-68.32-47.27-39.68-13.05-74.33-2.69-80.93-.61-12.88,4.07-52.76,18.89-73.76,59.33-12.55,24.18-12.9,47-13,58.65-.16,39.15,15.8,45.91,15.11,76.06-.62,27.24-14.38,46.6-41.87,84.18-25.14,34.35-48.11,57.45-65.71,74.9-106,105.15-116.81,104-129.68,135.52-19.84,48.62-13.69,99.08-11.29,118.81,1.82,15,5.17,40.92,19.06,71.18,18.14,39.55,43.5,63.11,60.54,78.6,17.52,16,65,58.17,135.21,72.38,32,6.47,44.8,2.29,80.77,14.36,29.49,9.9,51.38,17.24,67.3,37.56,21.18,27,21.7,64.12,22.17,97.45.45,31.57-4.7,43,4.13,58.11C842.54,1490.69,867.62,1498.06,887.05,1501.13Z" transform="translate(-437.85 -426.66)"/><path class="b" d="M1206.65,1316.46c17.23-34.76,5.95-41.27,27.2-159.91,10.75-60.12,19.23-90.1,25.52-106.23a86.28,86.28,0,0,1,8.9-17.63c22.62-34.17,38-32.2,80.77-85.77,22.85-28.63,37.19-47,44.38-70.93,1-3.2,1.8-6.51,2.51-10,1.63-7.78,6-32.65-13.34-93-19-59.68-33.12-104.15-75.9-146.4-16.18-16-55-54.21-113.72-64.67-40.72-7.29-47.32,6.5-131.2,4-63.19-1.9-81.31-10.47-92.47-17.47-21.33-13.37-19.55-22.58-55-54.58-27.27-24.58-42.21-37.93-66.77-45.92-33-10.77-62.44-5-74.42-1.69-2,.55-3.58,1-4.53,1.33-12.64,4.1-51.25,18.59-71.81,58.09-12.21,23.48-12.64,45.7-12.75,57.07-.33,38,15.16,44.66,14.38,73.95-.43,16.4-5.76,29.86-16.12,46.39-6.4,10.17-14.67,21.49-24.88,35.37-24.48,33.31-46.85,55.69-64.14,72.64l-10.58,10.39c-93.46,91.59-103.81,91.61-116,121.25-19.44,47.36-13.45,96.69-11.07,116.07.77,6.27,1.81,14.42,3.77,24a210.75,210.75,0,0,0,14.91,45.58c17.7,38.56,42.45,61.57,59.15,76.81,17.11,15.59,63.25,56.63,131.41,70.5,31.07,6.34,43.54,2.35,78.47,14.1,28.65,9.65,49.93,16.82,65.43,36.57,20.61,26.27,21.18,62.29,21.72,94.66.48,30.64-4.45,41.72,4.15,56.42,11.42,19.5,35.79,26.65,54.68,29.61,88.29-11.32,152.68-40.76,191-62.25C1136,1393.59,1180.91,1368.4,1206.65,1316.46Z" transform="translate(-437.85 -426.66)"/><path class="c" d="M1200.41,1306.82c16.8-33.9,5.88-40.42,26.47-155.54,10.4-58.43,18.55-87.66,24.63-103.33a83.41,83.41,0,0,1,8.62-17.16c21.83-33.28,36.83-31.48,78.28-83.55,22.13-27.83,36.08-45.71,43.09-69,.94-3.12,1.74-6.34,2.45-9.69,1.6-7.67,5.94-31.86-12.72-90.45-18.26-58-31.8-101.19-73.21-142.38-15.67-15.58-53.3-52.7-110.16-62.93-39.46-7.15-45.89,6.12-127.2,3.58-61.26-1.92-78.86-10.29-89.71-17.12-20.71-13-19-22-53.41-53-26.57-23.92-41.25-36.88-65.2-44.6-32.15-10.4-60.83-4.66-72.55-1.42-2,.55-3.49,1-4.41,1.31-12.42,4.09-49.75,18.28-69.9,56.81-11.86,22.79-12.37,44.39-12.52,55.49-.51,36.91,14.52,43.41,13.64,71.86-.48,15.92-5.71,29-15.82,45-6.28,9.88-14.36,20.85-24.3,34.3-23.83,32.28-45.68,53.89-62.59,70.38l-10.32,10.08c-90.9,88.78-101.12,88.82-113.06,117.7-19.05,46.11-13.2,94.3-10.83,113.33.77,6.15,1.79,14.12,3.71,23.41A206,206,0,0,0,488,1104.45c17.28,37.57,41.41,60,57.78,75,16.7,15.25,61.49,55.09,127.6,68.63,30.15,6.19,42.3,2.4,76.19,13.83,27.8,9.4,48.48,16.4,63.54,35.58,20.06,25.52,20.7,60.47,21.29,91.89.51,29.72-4.22,40.47,4.17,54.73,11.13,18.91,34.78,25.85,53.16,28.74,85.81-10.93,148.5-39.56,185.92-60.55C1131.71,1382,1175.36,1357.38,1200.41,1306.82Z" transform="translate(-437.85 -426.66)"/><path class="d" d="M1194.19,1297.18c16.35-33,5.82-39.59,25.7-151.16,10-56.76,17.9-85.18,23.75-100.43a83.43,83.43,0,0,1,8.33-16.69c21.1-32.36,35.65-30.75,75.8-81.31,21.46-27.05,35-44.46,41.81-67.11.92-3,1.69-6.16,2.39-9.42,1.61-7.56,5.72-31-12.11-87.86-17.67-56.27-30.48-98.24-70.51-138.35-15.15-15.17-51.57-51.2-106.63-61.22-38.2-7-44.45,5.73-123.18,3.18-59.31-1.9-76.38-10.06-86.93-16.72-20.07-12.61-18.49-21.33-51.82-51.38-25.89-23.25-40.29-35.81-63.67-43.25-31.29-10-59.21-4.37-70.68-1.15-1.93.54-3.39,1-4.29,1.29-12.19,4.11-48.24,18-68,55.56-11.51,22.1-12.1,43.08-12.3,53.91-.69,35.78,13.86,42.16,12.91,69.75-.54,15.44-5.63,28.15-15.53,43.67-6.12,9.6-14,20.22-23.72,33.24-23.17,31.24-44.43,52.09-61,68.12-3.47,3.35-6.8,6.62-10,9.76-88.36,86-98.47,86-110.16,114.14-18.67,44.87-13,91.91-10.61,110.59.76,6,1.75,13.81,3.64,22.84a201.86,201.86,0,0,0,14.25,43.42c16.84,36.57,40.36,58.52,56.4,73.24,16.26,14.86,59.71,53.55,123.79,66.75,29.24,6.07,41,2.44,73.9,13.57,27,9.16,47,16,61.65,34.6,19.48,24.77,20.18,58.66,20.83,89.09.56,28.79-4,39.22,4.19,53,10.82,18.33,33.78,25,51.64,27.86,83.34-10.56,144.32-38.34,180.82-58.86C1127.39,1370.39,1169.82,1346.37,1194.19,1297.18Z" transform="translate(-437.85 -426.66)"/><path class="e" d="M1187.94,1287.55c15.91-32.18,5.73-38.73,25-146.78,9.69-55.08,17.22-82.72,22.86-97.53a80.94,80.94,0,0,1,8-16.21c20.34-31.45,34.46-30,73.31-79.09,20.77-26.26,33.86-43.2,40.52-65.21.9-2.93,1.64-6,2.32-9.14,1.61-7.45,5.62-30.21-11.49-85.25-17-54.58-29.15-95.29-67.8-134.33-14.64-14.77-49.84-49.69-103.1-59.49-37-6.88-43,5.33-119.18,2.78-57.36-1.91-73.9-9.85-84.15-16.34-19.45-12.24-18-20.7-50.24-49.79-25.2-22.59-39.32-34.75-62.12-41.9-30.44-9.67-57.6-4.09-68.81-.89-1.88.53-3.3,1-4.19,1.26-12,4.12-46.81,17.63-66,54.29-11.21,21.39-11.83,41.77-12.09,52.33-.85,34.67,13.23,40.91,12.18,67.65-.58,15-5.57,27.3-15.24,42.32-6,9.32-13.72,19.58-23.14,32.16-22.51,30.21-43.2,50.31-59.47,65.87-3.39,3.24-6.64,6.4-9.79,9.44C529.25,896.65,519.48,897,508,924.29c-18.28,43.61-12.71,89.52-10.37,107.85.76,5.92,1.75,13.49,3.58,22.28a196.53,196.53,0,0,0,13.93,42.34c16.4,35.59,39.3,57,55,71.44s57.94,52,120,64.88c28.33,5.94,39.79,2.49,71.6,13.3,26.13,8.91,45.58,15.56,59.78,33.6,18.92,24,19.67,56.84,20.38,86.3.6,27.88-3.73,38,4.22,51.35,10.52,17.74,32.8,24.26,50.11,27,80.89-10.16,140.19-37.12,175.74-57.14C1123.08,1358.8,1164.28,1335.36,1187.94,1287.55Z" transform="translate(-437.85 -426.66)"/><path class="f" d="M1181.7,1277.91c15.47-31.31,5.66-37.87,24.21-142.4,9.35-53.41,16.56-80.26,22-94.62a80.3,80.3,0,0,1,7.77-15.74c19.61-30.53,33.28-29.33,70.82-76.88,20.08-25.46,32.77-41.93,39.25-63.3.86-2.85,1.59-5.8,2.25-8.86,1.61-7.34,5.51-29.42-10.88-82.66-16.27-52.88-27.83-92.34-65.1-130.31-14.12-14.35-48.11-48.2-99.52-57.77-35.69-6.75-41.59,5-115.16,2.38-55.43-1.91-71.43-9.66-81.4-16-18.79-11.9-17.44-20.07-48.65-48.19C902.74,521.67,888.88,510,866.69,503c-29.61-9.23-56-3.81-67-.62-1.82.53-3.2,1-4.06,1.26-11.72,4.13-45.33,17.3-64.11,53C720.71,577.4,720,597.17,719.7,607.46c-1,33.55,12.59,39.66,11.45,65.55-.64,14.5-5.51,26.44-14.95,41-5.87,9-13.4,18.94-22.54,31.09-21.86,29.17-42,48.53-57.92,63.61-3.3,3.12-6.46,6.18-9.53,9.13-83.58,80.09-93.16,80.49-104.38,107-17.91,42.37-12.46,87.13-10.15,105.11.75,5.8,1.73,13.19,3.5,21.71a191.42,191.42,0,0,0,13.62,41.26c16,34.6,38.25,55.45,53.63,69.66s56.17,50.47,116.17,63c27.41,5.79,38.54,2.53,69.31,13,25.29,8.66,44.13,15.15,57.89,32.61,18.36,23.27,19.23,55,20,83.52.67,26.93-3.5,36.72,4.24,49.65,10.22,17.15,31.79,23.46,48.58,26.1,78.42-9.78,136-35.91,170.66-55.44C1118.77,1347.2,1158.74,1324.34,1181.7,1277.91Z" transform="translate(-437.85 -426.66)"/><path class="g" d="M1175.47,1268.28c15-30.45,5.57-37,23.46-138,9-51.73,15.89-77.79,21.08-91.72a77.8,77.8,0,0,1,7.49-15.26c18.86-29.62,32.09-28.61,68.34-74.65,19.38-24.67,31.65-40.67,38-61.4.84-2.76,1.54-5.63,2.2-8.59,1.6-7.23,5.41-28.6-10.27-80.06-15.58-51.19-26.51-89.38-62.41-126.29-13.59-13.92-46.37-46.68-96-56-34.44-6.61-40.15,4.55-111.16,2-53.48-1.91-69-9.46-78.62-15.6-18.17-11.53-16.85-19.51-47.07-46.59-23.77-21.31-37.41-32.57-59-39.22-28.76-8.86-54.37-3.52-65.08-.37-1.77.52-3.11.94-3.93,1.23-11.48,4.14-43.84,17-62.17,51.78-10.53,20-11.28,39.15-11.66,49.18-1.17,32.41,12,38.4,10.72,63.44-.68,14-5.43,25.6-14.65,39.6-5.75,8.75-13.08,18.31-22,30-21.2,28.13-40.75,46.73-56.36,61.35-3.22,3-6.28,6-9.27,8.81C556,899.11,546.59,899.59,535.61,925.35c-17.52,41.12-12.22,84.74-9.91,102.36.74,5.68,1.71,12.88,3.43,21.15a188,188,0,0,0,13.29,40.19c15.53,33.6,37.2,53.92,52.28,67.87,15,13.76,54.4,48.94,112.36,61.14,26.49,5.65,37.28,2.56,67,12.75,24.44,8.41,42.68,14.73,56,31.63,17.79,22.52,18.73,53.2,19.5,80.73.72,26-3.26,35.47,4.26,48,9.93,16.56,30.8,22.65,47.07,25.2,76-9.4,131.87-34.69,165.56-53.72C1114.46,1335.6,1153.21,1313.33,1175.47,1268.28Z" transform="translate(-437.85 -426.66)"/><path class="h" d="M1169.23,1258.64c14.58-29.59,5.52-36.19,22.7-133.66,8.65-50,15.23-75.32,20.21-88.81a77.11,77.11,0,0,1,7.21-14.78c18.11-28.7,30.89-27.9,65.86-72.44,18.68-23.86,30.54-39.41,36.66-59.49.82-2.68,1.5-5.45,2.14-8.31,1.59-7.14,5.3-27.8-9.65-77.47-14.9-49.5-25.18-86.43-59.71-122.27-13.08-13.53-44.67-45.08-92.43-54.3-33.19-6.41-38.72,4.16-107.15,1.58-51.53-1.92-66.48-9.26-75.85-15.22-17.53-11.16-16.31-18.91-45.48-45-23.08-20.66-36.46-31.5-57.47-37.88-27.91-8.48-52.76-3.24-63.21-.09-1.71.52-3,.92-3.82,1.22C798,535.89,766.88,548.4,749,582.24c-10.19,19.3-11,37.84-11.44,47.6-1.34,31.29,11.3,37.16,10,61.34-.74,13.54-5.4,24.74-14.36,38.24-5.62,8.47-12.78,17.66-21.39,29-20.61,27.05-39.53,45-54.81,59.09-3.13,2.89-6.1,5.75-9,8.5-78.61,74.36-87.86,74.92-98.6,99.9-17.13,39.88-12,82.35-9.69,99.62.73,5.57,1.7,12.58,3.37,20.59a183.38,183.38,0,0,0,13,39.11c15.1,32.61,36.12,52.43,50.87,66.07,14.52,13.44,52.62,47.4,108.54,59.27,25.58,5.51,36,2.61,64.73,12.47,23.6,8.19,41.23,14.32,54.13,30.64,17.24,21.78,18.24,51.4,19.05,78,.76,25.07-3,34.22,4.29,46.26,9.63,16,29.79,21.86,45.53,24.33,73.48-9,127.72-33.47,160.47-52C1110.15,1324,1147.67,1302.32,1169.23,1258.64Z" transform="translate(-437.85 -426.66)"/><path class="i" d="M1163,1249c14.16-28.74,5.64-35.29,22-129.27,8.4-48.36,14.56-72.87,19.31-85.91a75.38,75.38,0,0,1,6.93-14.31c17.37-27.78,29.71-27.17,63.36-70.21,18-23.07,29.44-38.14,35.39-57.58.79-2.6,1.44-5.27,2.07-8,1.6-7,5.19-27-9-74.88s-23.86-83.47-57-118.24C1233.39,677.45,1203,647,1157.07,638c-31.94-6.27-37.29,3.76-103.14,1.18-49.6-1.92-64-9-73.07-14.86C964,613.53,965.09,606,937,580.92c-22.39-20-35.5-30.43-55.92-36.54a108.83,108.83,0,0,0-61.35.18c-1.65.51-2.9.92-3.7,1.2-11,4.18-40.89,16.37-58.31,49.27-9.85,18.59-10.75,36.52-11.22,46-1.51,30.16,10.67,35.9,9.26,59.24-.79,13.06-5.33,23.87-14.07,36.89-5.49,8.17-12.46,17-20.82,27.88-20,26-38.3,43.17-53.26,56.84-3,2.78-5.92,5.53-8.74,8.18-76.11,71.5-85.19,72.15-95.7,96.35-16.75,38.63-11.73,80-9.46,96.88.73,5.44,1.66,12.27,3.3,20a176.87,176.87,0,0,0,12.66,38c14.65,31.62,35.06,50.9,49.48,64.29,14.1,13.07,50.88,45.76,104.74,57.39,24.68,5.34,34.79,2.67,62.43,12.22,22.77,7.93,39.78,13.9,52.25,29.65,16.67,21,17.75,49.56,18.61,75.16.81,24.15-2.78,33,4.31,44.58,9.34,15.37,28.79,21.06,44,23.44,71-8.61,123.55-32.25,155.39-50.32C1105.83,1312.41,1142.13,1291.3,1163,1249Z" transform="translate(-437.85 -426.66)"/><path class="j" d="M1156.75,1239.36c13.7-27.86,5.59-34.44,21.22-124.89,8.06-46.68,13.88-70.43,18.43-83a73.36,73.36,0,0,1,6.64-13.85c16.63-26.86,28.53-26.45,60.88-68,17.33-22.29,28.33-36.88,34.1-55.67.76-2.5,1.39-5.09,2-7.77,1.6-6.9,5.09-26.18-8.42-72.28s-22.56-80.52-54.33-114.22c-12-12.72-41.2-42.05-85.33-50.85-30.68-6.12-35.85,3.37-99.12.78-47.66-1.92-61.54-8.85-70.32-14.47-16.26-10.43-15.24-17.66-42.31-41.81C918.52,574,905.67,564,885.84,558.15a105.31,105.31,0,0,0-59.48.46c-1.6.5-2.83.86-3.59,1.17-10.8,4.2-39.38,16.05-56.37,48-9.52,17.9-10.49,35.22-11,44.43-1.66,29,10,34.66,8.53,57.14-.84,12.59-5.27,23-13.78,35.53-5.36,7.89-12.15,16.38-20.23,26.83-19.3,25-37.06,41.39-51.69,54.58-3,2.66-5.74,5.31-8.48,7.86-73.62,68.66-82.54,69.37-92.81,92.79-16.37,37.38-11.48,77.57-9.23,94.14.73,5.32,1.64,12,3.23,19.45a172.7,172.7,0,0,0,12.33,37c14.23,30.63,34,49.39,48.11,62.49,13.66,12.71,49.11,44.21,100.91,55.53,23.77,5.19,33.54,2.71,60.15,11.94,21.94,7.69,38.33,13.48,50.37,28.67,16.1,20.26,17.25,47.74,18.16,72.37.86,23.21-2.53,31.72,4.33,42.88,9,14.8,27.8,20.27,42.49,22.56,68.56-8.22,119.41-31,150.31-48.61C1101.52,1300.81,1136.59,1280.29,1156.75,1239.36Z" transform="translate(-437.85 -426.66)"/><path class="k" d="M1150.52,1229.73c13.25-27,5.54-33.59,20.46-120.52,7.72-45,13.23-68,17.54-80.1a72.3,72.3,0,0,1,6.37-13.37c15.88-25.94,27.34-25.73,58.39-65.76,16.62-21.49,27.22-35.62,32.81-53.77.74-2.42,1.34-4.92,2-7.49,1.6-6.8,5-25.39-7.81-69.69s-21.22-77.56-51.62-110.19c-11.52-12.31-39.48-40.54-81.77-49.14-29.43-6-34.41,3-95.12.39-45.71-1.93-59.06-8.65-67.54-14.1-15.64-10.06-14.7-17-40.74-40.2-21-18.69-33.57-28.29-52.81-33.86a102,102,0,0,0-57.61.72c-1.53.51-2.73.86-3.47,1.16C819,578,791.64,589.53,775.09,620.57c-9.18,17.2-10.21,33.89-10.8,42.85-1.81,27.92,9.38,33.42,7.81,55-.89,12.12-5.21,22.17-13.48,34.18-5.25,7.59-11.83,15.73-19.65,25.76-18.64,23.91-35.84,39.59-50.14,52.32-2.86,2.54-5.56,5.09-8.21,7.55-71.15,65.77-79.89,66.58-89.92,89.23-16,36.13-11.24,75.18-9,91.4.71,5.2,1.61,11.65,3.16,18.89a167,167,0,0,0,12,35.89c13.79,29.64,32.95,47.84,46.72,60.7,13.24,12.35,47.35,42.66,97.12,53.65,22.86,5,32.29,2.76,57.85,11.68,21.1,7.45,36.88,13.06,48.49,27.67,15.53,19.52,16.75,45.92,17.72,69.6.9,22.28-2.3,30.46,4.35,41.19,8.73,14.2,26.8,19.46,41,21.67,66.1-7.83,115.25-29.82,145.22-46.91C1097.21,1289.21,1131.06,1269.28,1150.52,1229.73Z" transform="translate(-437.85 -426.66)"/><path class="l" d="M1144.28,1220.09c12.81-26.14,5.48-32.73,19.71-116.14,7.39-43.33,12.58-65.48,16.67-77.2a69.38,69.38,0,0,1,6.08-12.88c15.15-25,26.16-25,55.91-63.53,15.93-20.7,26.11-34.36,31.52-51.87.71-2.34,1.3-4.74,1.89-7.22,1.61-6.68,4.87-24.58-7.2-67.09-12.13-42.73-19.89-74.61-48.93-106.17-11-11.89-37.74-39-78.23-47.39-28.18-5.83-33,2.6-91.11,0-43.77-1.93-56.6-8.45-64.79-13.74-15-9.69-14.16-16.43-39.12-38.6-20.3-18-32.61-27.21-51.27-32.51a98.52,98.52,0,0,0-55.74,1c-1.49.48-2.63.85-3.35,1.14-10.34,4.24-36.41,15.41-52.52,45.49-8.83,16.51-9.93,32.58-10.57,41.27-2,26.8,8.75,32.16,7.07,52.94-.94,11.63-5.16,21.3-13.19,32.81-5.11,7.32-11.52,15.1-19.07,24.69-18,22.88-34.61,37.82-48.58,50.07-2.77,2.43-5.37,4.87-8,7.23-68.64,62.91-77.23,63.81-87,85.68-15.61,34.89-11,72.8-8.77,88.66.71,5.09,1.59,11.35,3.09,18.32a162.67,162.67,0,0,0,11.69,34.82c13.36,28.66,31.9,46.32,45.34,58.91,12.8,12,45.59,41.11,93.31,51.78,21.94,4.91,31.06,2.75,55.57,11.4,20.27,7.16,35.42,12.65,46.6,26.69,15,18.77,16.26,44.1,17.27,66.8.95,21.36-2,29.21,4.38,39.5,8.46,13.6,25.8,18.67,39.44,20.79,63.62-7.45,111.05-28.66,140.13-45.19C1092.85,1277.54,1125.52,1258.26,1144.28,1220.09Z" transform="translate(-437.85 -426.66)"/><path class="m" d="M1138,1210.46c12.37-25.29,5.45-31.89,19-111.77,7-41.64,11.89-63,15.78-74.29a69.09,69.09,0,0,1,5.79-12.42c14.41-24.11,25-24.3,53.42-61.32,15.24-19.9,25-33.09,30.24-50,.69-2.25,1.24-4.57,1.82-6.94,1.6-6.59,4.77-23.77-6.58-64.5-11.44-41-18.57-71.65-46.23-102.15-10.47-11.48-36-37.5-74.68-45.66-26.92-5.68-31.56,2.21-87.11-.43-41.82-1.93-54.12-8.24-62-13.35-14.37-9.31-13.62-15.79-37.55-37-19.6-17.38-31.65-26.15-49.71-31.18a95.08,95.08,0,0,0-53.88,1.26c-1.43.48-2.54.83-3.23,1.12C833,606.11,808.16,617,792.5,646.09c-8.51,15.79-9.67,31.27-10.35,39.69-2.11,25.66,8.09,30.92,6.33,50.84-1,11.16-5.1,20.45-12.89,31.45-5,7-11.2,14.46-18.48,23.62-17.36,21.84-33.38,36-47,47.81-2.68,2.31-5.21,4.66-7.69,6.92-66.16,60.06-74.56,61-84.13,82.11-15.22,33.64-10.75,70.4-8.54,85.92.7,5,1.57,11,3,17.75a157.52,157.52,0,0,0,11.37,33.74c12.92,27.66,30.84,44.79,44,57.13,12.38,11.62,43.82,39.56,89.5,49.9,21,4.76,29.81,2.79,53.27,11.14,19.42,6.91,34,12.22,44.71,25.7,14.42,18,15.77,42.28,16.84,64,1,20.43-1.79,28,4.4,37.81,8.18,13,24.81,17.87,37.92,19.9,61.16-7.06,106.89-27.44,135-43.49C1088.53,1265.94,1120,1247.26,1138,1210.46Z" transform="translate(-437.85 -426.66)"/><path class="n" d="M1131.81,1200.82c11.92-24.42,5.39-31,18.22-107.39,6.71-40,11.22-60.57,14.89-71.39a68,68,0,0,1,5.51-11.94c13.66-23.18,23.78-23.59,50.93-59.1,14.55-19.1,23.9-31.83,29-48.06.67-2.16,1.2-4.38,1.77-6.66,1.6-6.47,4.65-23-6-61.9-10.74-39.35-17.24-68.71-43.52-98.13-10-11.07-34.28-36-71.13-43.93-25.68-5.54-30.12,1.8-83.1-.82-39.88-1.93-51.65-8-59.24-13-13.72-8.95-13.08-15.19-36-35.43C934.24,626.38,922.45,618,905,613.26a91.72,91.72,0,0,0-52,1.52c-1.37.47-2.44.81-3.11,1.11-9.89,4.27-33.43,14.77-48.65,43C793,674,791.81,688.81,791.06,697c-2.23,24.53,7.46,29.66,5.61,48.73-1,10.69-5,19.6-12.6,30.11-4.86,6.74-10.88,13.82-17.9,22.55-16.71,20.8-32.14,34.25-45.48,45.55-2.59,2.2-5,4.44-7.42,6.6-63.67,57.2-71.93,58.25-81.26,78.57-14.83,32.39-10.5,68-8.31,83.17.7,4.86,1.55,10.73,3,17.19a152.35,152.35,0,0,0,11,32.66c12.49,26.67,29.79,43.27,42.58,55.33,12,11.27,42.05,38,85.69,48,20.12,4.62,28.56,2.83,51,10.86,18.59,6.67,32.51,11.83,42.83,24.71,13.85,17.27,15.28,40.47,16.39,61.24,1,19.49-1.55,26.69,4.42,36.11,7.87,12.41,23.8,17.07,36.38,19,58.7-6.68,102.75-26.23,130-41.79C1084.22,1254.33,1114.45,1236.24,1131.81,1200.82Z" transform="translate(-437.85 -426.66)"/><path class="o" d="M1125.58,1191.18c11.48-23.56,5.35-30.19,17.47-103,6.38-38.28,10.56-58.11,14-68.48a67.15,67.15,0,0,1,5.23-11.47c12.92-22.26,22.61-22.88,48.47-56.89,13.84-18.3,22.79-30.55,27.66-46.16.64-2.06,1.15-4.2,1.7-6.38,1.59-6.36,4.56-22.17-5.36-59.31-10.06-37.66-15.92-65.75-40.83-94.1-9.44-10.66-32.56-34.46-67.58-42.21-24.41-5.39-28.68,1.42-79.09-1.22-37.93-1.93-49.18-7.82-56.47-12.59-13.11-8.59-12.56-14.59-34.37-33.82-18.21-16.07-29.73-24-46.61-28.5a88.32,88.32,0,0,0-50.15,1.79c-1.31.46-2.32.78-3,1.08-9.66,4.29-31.95,14.47-46.72,41.72-7.82,14.41-9.13,28.63-9.93,36.53-2.37,23.4,6.81,28.42,4.88,46.63-1.1,10.21-5,18.73-12.31,28.75C787.86,790,782,796.71,775.27,805c-16.07,19.75-30.92,32.44-43.92,43.29-2.51,2.07-4.84,4.22-7.17,6.28-61.17,54.35-69.27,55.47-78.35,75-14.45,31.15-10.25,65.62-8.08,80.43.69,4.74,1.54,10.43,2.89,16.64a147.91,147.91,0,0,0,10.74,31.57c12,25.68,28.73,41.74,41.19,53.55,11.52,10.9,40.28,36.44,81.87,46.15,19.21,4.48,27.31,2.87,48.69,10.6,17.76,6.42,31.08,11.4,41,23.72,13.29,16.52,14.78,38.65,15.94,58.45,1.09,18.57-1.3,25.44,4.45,34.43,7.58,11.82,22.8,16.27,34.86,18.13,56.21-6.24,98.57-25,124.85-40.06C1079.9,1242.72,1108.91,1225.23,1125.58,1191.18Z" transform="translate(-437.85 -426.66)"/><path class="p" d="M1119.33,1181.55c11-22.7,5.3-29.34,16.72-98.64,6-36.61,9.9-55.65,13.12-65.58a65.79,65.79,0,0,1,4.95-11c12.19-21.33,21.41-22.15,46-54.65,13.15-17.52,21.67-29.31,26.38-44.26.62-2,1.12-4,1.64-6.12,1.61-6.26,4.46-21.37-4.74-56.71-9.37-36-14.54-62.84-38.13-90.08-8.91-10.27-30.84-32.95-64-40.48-23.16-5.26-27.25,1-75.08-1.62-36-1.93-46.71-7.62-53.7-12.22-12.47-8.2-12-14-32.79-32.23-17.52-15.4-28.78-22.93-45.06-27.15a84.94,84.94,0,0,0-48.28,2.06c-1.25.45-2.25.77-2.88,1.06C854,648.26,833,658.09,818.63,684.4c-7.47,13.72-8.85,27.31-9.71,35-2.51,22.27,6.16,27.17,4.14,44.53-1.14,9.72-4.94,17.88-12,27.38-4.6,6.18-10.24,12.55-16.73,20.43-15.42,18.71-29.68,30.67-42.36,41-2.42,2-4.68,4-6.91,6-58.67,51.49-66.62,52.68-75.45,71.43-14.06,29.9-10,63.24-7.86,77.7.69,4.62,1.51,10.12,2.82,16.07A143.09,143.09,0,0,0,665,1054.41c11.61,24.69,27.67,40.21,39.81,51.75,11.07,10.54,38.53,34.92,78.07,44.29,18.31,4.32,26.06,2.91,46.41,10.32,16.91,6.16,29.62,11,39.07,22.74,12.72,15.77,14.28,36.82,15.49,55.66,1.14,17.64-1.06,24.19,4.47,32.73,7.29,11.24,21.81,15.48,33.34,17.26,53.77-5.91,94.42-23.81,119.78-38.38C1075.59,1231.12,1103.37,1214.22,1119.33,1181.55Z" transform="translate(-437.85 -426.66)"/><path class="q" d="M1113.1,1171.91c10.59-21.83,5.24-28.49,16-94.26,5.7-34.93,9.23-53.19,12.23-62.67a62.58,62.58,0,0,1,4.67-10.52c11.46-20.41,20.23-21.43,43.48-52.43,12.47-16.72,20.57-28,25.09-42.35.59-1.89,1.06-3.84,1.58-5.83,1.6-6.15,4.35-20.57-4.13-54.12-8.68-34.29-13.22-59.89-35.44-86.06-8.38-9.86-29.1-31.43-60.48-38.75-21.91-5.11-25.82.63-71.06-2-34.06-1.93-44.25-7.42-50.94-11.84-11.84-7.83-11.48-13.34-31.21-30.63-16.82-14.75-27.8-21.88-43.5-25.81a81.68,81.68,0,0,0-46.42,2.31c-1.2.45-2.15.76-2.76,1.05-9.19,4.33-29,13.83-42.86,39.2-7.13,13-8.57,26-9.49,33.37-2.62,21.13,5.53,25.92,3.42,42.43-1.2,9.24-4.88,17-11.73,26-4.47,5.89-9.93,11.9-16.15,19.35-14.77,17.67-28.44,28.89-40.81,38.77-2.33,1.85-4.49,3.8-6.65,5.65-56.17,48.63-63.95,49.9-72.56,67.88-13.68,28.66-9.76,60.85-7.62,74.94.68,4.51,1.49,9.82,2.75,15.51a138.5,138.5,0,0,0,10.09,29.43c11.18,23.7,26.62,38.69,38.43,50,10.66,10.19,36.75,33.37,74.26,42.42,17.38,4.2,24.82,3,44.1,10.07,16.09,5.92,28.18,10.57,37.19,21.75,12.16,15,13.78,35,15.05,52.87,1.18,16.71-.82,22.94,4.49,31,7,10.65,20.81,14.68,31.81,16.37,51.3-5.52,90.26-22.59,114.69-36.68C1071.27,1219.52,1097.83,1203.21,1113.1,1171.91Z" transform="translate(-437.85 -426.66)"/><path class="r" d="M1106.86,1162.28c10.16-21,5.18-27.64,15.22-89.89,5.36-33.25,8.57-50.73,11.35-59.77a65.9,65.9,0,0,1,4.38-10c10.72-19.48,19-20.71,41-50.19,11.77-15.93,19.46-26.78,23.8-40.44.57-1.81,1-3.67,1.51-5.57,1.61-6,4.25-19.77-3.51-51.52-8-32.61-11.88-56.92-32.74-82-7.86-9.46-27.37-29.91-56.93-37-20.65-5-24.39.25-67-2.4-32.11-1.94-41.77-7.22-48.17-11.47-11.2-7.45-10.94-12.71-29.61-29-16.13-14.1-26.84-20.81-42-24.48a78.23,78.23,0,0,0-44.55,2.6c-1.13.43-2.05.74-2.64,1-9,4.36-27.48,13.52-40.93,38-6.78,12.33-8.3,24.67-9.27,31.79-2.74,20,4.88,24.66,2.67,40.33-1.23,8.79-4.83,16.17-11.43,24.68-4.35,5.6-9.61,11.25-15.57,18.28-14.12,16.62-27.2,27.11-39.26,36.52-2.23,1.74-4.31,3.57-6.37,5.33-53.67,45.79-61.29,47.13-69.67,64.32-13.3,27.41-9.52,58.46-7.39,72.21.67,4.39,1.47,9.5,2.68,14.94a133.62,133.62,0,0,0,9.77,28.36c10.73,22.71,25.57,37.16,37,48.17,10.23,9.82,35,31.82,70.44,40.55,16.47,4,23.58,3,41.83,9.78,15.25,5.68,26.73,10.15,35.31,20.76,11.58,14.27,13.29,33.18,14.6,50.1,1.22,15.77-.58,21.68,4.52,29.34,6.69,10.06,19.81,13.88,30.28,15.49,48.84-5.14,86.1-21.38,109.6-35C1067,1207.92,1092.3,1192.19,1106.86,1162.28Z" transform="translate(-437.85 -426.66)"/><path class="s" d="M1100.62,1152.64c9.71-20.11,5.13-26.79,14.47-85.52,5-31.57,7.9-48.26,10.47-56.87a64.5,64.5,0,0,1,4.09-9.57c10-18.54,17.91-19.95,38.52-48,11.11-15.1,18.35-25.51,22.5-38.53.54-1.71,1-3.49,1.45-5.29,1.61-5.93,4.16-19-2.9-48.93-7.29-30.92-10.57-54-30-78-7.34-9-25.66-28.39-53.39-35.29-19.4-4.83-23-.15-63-2.83-30.16-1.93-39.3-7-45.4-11.1-10.58-7.08-10.41-12.09-28-27.43-15.43-13.44-25.88-19.74-40.4-23.13A74.87,74.87,0,0,0,886.27,685c-1.09.43-2,.72-2.53,1-8.73,4.38-26,13.2-39,36.67-6.44,11.64-8,23.35-9.06,30.21-2.84,18.86,4.24,23.42,2,38.22-1.29,8.3-4.78,15.3-11.14,23.32-4.22,5.32-9.29,10.62-15,17.21-13.46,15.58-26,25.33-37.69,34.27-2.15,1.62-4.14,3.36-6.12,5-51.16,42.94-58.65,44.35-66.77,60.77-12.93,26.14-9.28,56.06-7.16,69.46.67,4.28,1.45,9.2,2.61,14.38a129,129,0,0,0,9.45,27.28c10.3,21.71,24.51,35.63,35.67,46.38,9.8,9.46,33.21,30.27,66.63,38.68,15.56,3.91,22.32,3,39.52,9.52,14.41,5.43,25.28,9.73,33.43,19.77,11,13.52,12.81,31.38,14.17,47.3,1.27,14.85-.34,20.43,4.55,27.66,6.39,9.46,18.8,13.08,28.76,14.6,46.37-4.74,81.94-20.16,104.51-33.28C1062.64,1196.32,1086.76,1181.18,1100.62,1152.64Z" transform="translate(-437.85 -426.66)"/><path class="t" d="M1094.36,1143c9.27-19.25,5.08-25.93,13.73-81.13,4.68-29.89,7.23-45.8,9.58-54a62.49,62.49,0,0,1,3.81-9.1c9.26-17.61,16.73-19.24,36-45.76,10.42-14.32,17.24-24.26,21.23-36.63.52-1.62.92-3.3,1.39-5,1.61-5.82,4.06-18.18-2.29-46.33-6.58-29.23-9.23-51-27.34-74-6.81-8.64-23.92-26.88-49.83-33.56-18.15-4.69-21.54-.54-59-3.22-28.23-1.94-36.84-6.8-42.64-10.72-9.94-6.71-9.88-11.47-26.44-25.83C957.8,705,947.63,699.08,933.67,696a71.44,71.44,0,0,0-40.81,3.13c-1,.41-1.86.71-2.41,1C882,704.48,865.94,713,853.38,735.5c-6.08,11-7.74,22-8.83,28.63-2.95,17.72,3.6,22.18,1.22,36.13-1.35,7.82-4.73,14.44-10.85,22-4.1,5-9,10-14.41,16.15-12.81,14.54-24.7,23.54-36.13,32-2.06,1.52-4,3.15-5.87,4.69-48.64,40.08-56,41.56-63.88,57.21-12.53,24.91-9,53.67-6.93,66.72.67,4.15,1.44,8.88,2.54,13.81a124.24,124.24,0,0,0,9.12,26.2c9.88,20.72,23.47,34.1,34.29,44.59,9.38,9.08,31.45,28.72,62.83,36.8,14.65,3.77,21.07,3.08,37.24,9.25,13.58,5.18,23.84,9.3,31.54,18.78,10.46,12.76,12.31,29.54,13.72,44.52,1.31,13.92-.1,19.18,4.56,26,6.11,8.87,17.81,12.28,27.23,13.7,43.9-4.36,77.78-18.95,99.43-31.56C1058.34,1184.71,1081.22,1170.17,1094.36,1143Z" transform="translate(-437.85 -426.66)"/><path class="u" d="M1088.15,1133.37c8.82-18.39,5-25.09,13-76.77,4.35-28.2,6.57-43.33,8.7-51a62.13,62.13,0,0,1,3.53-8.62c8.53-16.68,15.55-18.52,33.54-43.54,9.73-13.54,16.12-23,19.94-34.74.49-1.54.87-3.12,1.33-4.74,1.6-5.73,4-17.39-1.68-43.73-5.9-27.57-7.9-48.09-24.64-70-6.3-8.23-22.21-25.38-46.29-31.84-16.89-4.54-20.09-.93-55-3.61-26.28-2-34.36-6.6-39.86-10.35-9.31-6.34-9.34-10.84-24.86-24.24-14-12.13-23.95-17.6-37.3-20.45a68.17,68.17,0,0,0-38.94,3.39c-1,.41-1.78.69-2.28,1-8.27,4.45-23,12.58-35.14,34.18-5.74,10.26-7.46,20.7-8.63,27.06-3,16.58,3,20.91.49,34-1.4,7.34-4.68,13.59-10.56,20.6-4,4.75-8.64,9.33-13.83,15.08-12.15,13.5-23.45,21.76-34.58,29.74-2,1.41-3.78,2.93-5.59,4.39-46.13,37.24-53.34,38.79-61,53.65-12.14,23.67-8.78,51.28-6.7,64,.66,4,1.41,8.58,2.48,13.25a119,119,0,0,0,8.8,25.13c9.44,19.73,22.42,32.57,32.91,42.8,8.95,8.73,29.69,27.19,59,34.93,13.74,3.63,19.83,3.12,35,9,12.73,4.93,22.37,8.9,29.66,17.79,9.89,12,11.81,27.72,13.27,41.74,1.35,13,.14,17.93,4.59,24.27,5.8,8.29,16.81,11.49,25.71,12.83,41.43-4,73.62-17.73,94.33-29.85C1054,1173.12,1075.69,1159.16,1088.15,1133.37Z" transform="translate(-437.85 -426.66)"/><path class="v" d="M1081.91,1123.73c8.38-17.53,5-24.24,12.23-72.39,4-26.53,5.9-40.87,7.81-48.14a59.36,59.36,0,0,1,3.27-8.16c7.8-15.75,14.36-17.8,31-41.32,9-12.73,15-21.73,18.65-32.82.49-1.47.83-2.95,1.27-4.47,1.61-5.6,3.87-16.59-1.06-41.14-5.21-25.9-6.58-45.13-22-65.94-5.77-7.82-20.46-23.85-42.73-30.11-15.65-4.4-18.65-1.33-51-4-24.33-2-31.88-6.4-37.09-10-8.69-6-8.82-10.22-23.28-22.65-13.35-11.46-23-16.54-35.74-19.09a64.91,64.91,0,0,0-37.07,3.66c-.93.4-1.68.67-2.17,1-8,4.47-21.52,12.26-33.21,32.91-5.39,9.57-7.18,19.38-8.41,25.47-3.1,15.45,2.32,19.67-.24,31.92-1.44,6.86-4.63,12.73-10.25,19.26-3.86,4.46-8.34,8.7-13.25,14-11.5,12.46-23.08,18.85-33,27.48-1.72,1.5-3.6,2.72-5.33,4.08-43.61,34.4-50.69,36-58.1,50.09-11.76,22.42-8.54,48.89-6.47,61.24.66,3.92,1.4,8.27,2.41,12.68a113.58,113.58,0,0,0,8.49,24.06c9,18.74,21.35,31,31.52,41,8.53,8.36,27.92,25.63,55.19,33,12.82,3.49,18.58,3.16,32.67,8.71,11.9,4.68,20.92,8.48,27.78,16.81,9.33,11.26,11.31,25.89,12.82,38.95,1.4,12.05.38,16.67,4.61,22.57,5.51,7.7,15.81,10.69,24.18,11.95,38.94-3.57,69.45-16.5,89.23-28.14C1049.7,1161.52,1070.15,1148.15,1081.91,1123.73Z" transform="translate(-437.85 -426.66)"/><path class="w" d="M1075.68,1114.09c7.93-16.66,4.9-23.38,11.47-68,3.67-24.85,5.23-38.41,6.92-45.24a62,62,0,0,1,3-7.67c7.08-14.8,13.18-17.08,28.57-39.09,8.35-11.93,13.92-20.47,17.37-30.93.44-1.36.79-2.76,1.21-4.18,1.62-5.5,3.77-15.82-.46-38.55-4.5-24.23-5.25-42.17-19.26-61.91-5.25-7.41-18.74-22.34-39.18-28.38-14.4-4.26-17.23-1.72-47-4.42-22.39-1.94-29.39-6.19-34.32-9.6-8.05-5.58-8.29-9.59-21.69-21-12.65-10.81-22-15.48-34.2-17.77a61.79,61.79,0,0,0-35.21,3.93c-.86.39-1.57.66-2.05.93-7.8,4.51-20,12-31.27,31.66-5,8.87-6.89,18-8.19,23.88-3.17,14.31,1.67,18.42-1,29.82-1.49,6.39-4.58,11.87-10,17.89-3.74,4.17-8,8.07-12.67,12.94-10.85,11.41-21.83,17-31.47,25.23-1.62,1.38-3.42,2.49-5.06,3.75-41.08,31.56-48,33.22-55.2,46.54-11.38,21.17-8.29,46.5-6.24,58.5.64,3.8,1.37,8,2.33,12.12a109.55,109.55,0,0,0,8.17,23c8.57,17.75,20.31,29.51,30.14,39.22,8.12,8,26.16,24.09,51.4,31.18,11.91,3.36,17.32,3.21,30.36,8.45,11.06,4.44,19.47,8.07,25.89,15.82,8.77,10.52,10.82,24.07,12.38,36.17,1.44,11.11.62,15.42,4.63,20.88,5.22,7.11,14.8,9.9,22.66,11.07a201.71,201.71,0,0,0,84.18-26.43C1045.39,1149.92,1064.61,1137.13,1075.68,1114.09Z" transform="translate(-437.85 -426.66)"/><path class="x" d="M1069.44,1104.46c7.49-15.8,4.84-22.55,10.72-63.63,3.33-23.18,4.57-36,6-42.35a63.39,63.39,0,0,1,2.69-7.19c6.36-13.86,12-16.37,26.08-36.87,7.66-11.14,12.81-19.21,16.08-29,.42-1.28.75-2.59,1.15-3.91,1.63-5.39,3.69-15,.16-36-3.81-22.57-3.93-39.23-16.55-57.9-4.73-7-17-20.83-35.64-26.66-13.14-4.11-15.78-2.16-43-4.81-20.46-2-26.94-6-31.55-9.23-7.43-5.21-7.76-9-20.1-19.45-12-10.15-21.06-14.41-32.65-16.42a58.41,58.41,0,0,0-33.35,4.2,16.13,16.13,0,0,0-1.93.91c-7.29,5-18.53,11.63-29.34,30.4-4.68,8.16-6.61,16.71-8,22.3-3.21,13.16,1,17.17-1.7,27.72-1.54,5.91-4.54,11-9.69,16.54-3.63,3.91-7.7,7.43-12.08,11.88-10.2,10.37-20.57,15.23-29.91,23-1.54,1.28-3.25,2.29-4.81,3.44-38.54,28.73-45.38,30.45-52.31,43-11,19.92-8,44.11-6,55.75.64,3.69,1.35,7.66,2.27,11.56a104.63,104.63,0,0,0,7.86,21.9c8.13,16.75,19.27,28,28.76,37.42,7.69,7.63,24.38,22.55,47.59,29.32,11,3.21,16.07,3.25,28.08,8.17,10.21,4.2,18,7.65,24,14.81,8.21,9.77,10.32,22.25,11.94,33.38,1.48,10.19.86,14.18,4.65,19.2,4.92,6.52,13.81,9.08,21.13,10.18a185.72,185.72,0,0,0,79.08-24.74C1041.08,1138.33,1059.09,1126.11,1069.44,1104.46Z" transform="translate(-437.85 -426.66)"/><path class="y" d="M1063.2,1094.82c7-14.94,4.77-21.7,10-59.26,3-21.5,3.9-33.49,5.15-39.43a66.33,66.33,0,0,1,2.41-6.72c5.65-12.91,10.81-15.64,23.6-34.65,7-10.34,11.7-17.94,14.79-27.11.4-1.2.71-2.41,1.09-3.64,1.63-5.28,3.61-14.26.77-33.35-3.1-20.91-2.6-36.27-13.85-53.88-4.21-6.59-15.29-19.31-32.08-24.93-11.9-4-14.35-2.55-39-5.21-18.51-2-24.47-5.78-28.79-8.85-6.79-4.83-7.21-8.35-18.51-17.85s-20.09-13.35-31.09-15.08a55.41,55.41,0,0,0-31.48,4.46,16.87,16.87,0,0,0-1.81.89c-7.06,5-17,11.34-27.42,29.15-4.35,7.48-6.31,15.38-7.75,20.72-3.24,12,.38,15.93-2.44,25.62-1.59,5.43-4.5,10.14-9.38,15.17-3.5,3.6-7.38,6.79-11.5,10.81-9.55,9.33-19.3,13.43-28.36,20.71-1.44,1.16-3.06,2.07-4.54,3.13-36,25.9-42.72,27.66-49.42,39.41-10.61,18.68-7.81,41.72-5.78,53,.63,3.56,1.33,7.35,2.2,11a99.53,99.53,0,0,0,7.53,20.83c7.7,15.76,18.2,26.45,27.37,35.63,7.26,7.27,22.63,21,43.78,27.45,10.08,3.07,14.82,3.3,25.79,7.9,9.39,3.94,16.56,7.24,22.13,13.84,7.63,9,9.82,20.42,11.49,30.59,1.52,9.26,1.11,12.92,4.68,17.51,4.62,5.92,12.83,8.29,19.6,9.3a170.79,170.79,0,0,0,74-23C1036.77,1126.73,1053.54,1115.11,1063.2,1094.82Z" transform="translate(-437.85 -426.66)"/><path class="z" d="M1057,1085.18c6.6-14.08,4.7-20.85,9.24-54.88,2.64-19.82,3.24-31,4.27-36.53.91-3,1.53-4.81,2.13-6.26,4.94-12,9.62-14.92,21.11-32.42,6.27-9.55,10.59-16.68,13.51-25.21.37-1.1.66-2.23,1-3.36,1.65-5.17,3.54-13.49,1.39-30.76-2.4-19.26-1.28-33.31-11.16-49.86A58.29,58.29,0,0,0,1070,822.71c-10.65-3.84-12.91-3-35-5.62-16.56-2-22-5.57-26-8.47-6.16-4.45-6.69-7.71-16.92-16.26-10.58-8.84-19.12-12.28-29.55-13.74a52.22,52.22,0,0,0-29.61,4.73,18.13,18.13,0,0,0-1.7.87c-6.81,5-15.53,11-25.48,27.88-4,6.79-6,14.06-7.55,19.16-3.25,10.88-.25,14.67-3.17,23.51-1.64,5-4.46,9.29-9.08,13.81-3.38,3.32-7.06,6.15-10.92,9.74-8.89,8.28-18,11.64-26.8,18.46-1.36,1.05-2.89,1.84-4.28,2.8-33.44,23.09-40.07,24.89-46.53,35.86-10.23,17.43-7.56,39.33-5.55,50.27.63,3.45,1.32,7,2.13,10.42a94,94,0,0,0,7.2,19.75c7.26,14.77,17.15,24.93,26,33.85,6.83,6.9,20.85,19.46,40,25.57,9.17,2.94,13.58,3.34,23.5,7.63,8.55,3.7,15.12,6.83,20.25,12.85,7.06,8.29,9.32,18.6,11,27.8,1.55,8.33,1.34,11.67,4.71,15.83,4.32,5.33,11.82,7.49,18.08,8.41a155.94,155.94,0,0,0,68.91-21.33C1032.45,1115.14,1048,1104.1,1057,1085.18Z" transform="translate(-437.85 -426.66)"/><path class="aa" d="M1050.73,1075.55c6.18-13.2,4.63-20,8.48-50.51,2.29-18.14,2.56-28.57,3.38-33.63.78-2.71,1.32-4.41,1.84-5.77,4.25-11,8.44-14.21,18.63-30.2,5.59-8.75,9.47-15.41,12.22-23.31.35-1,.62-2,1-3.08,1.66-5.06,3.48-12.72,2-28.17-1.69-17.61,0-30.35-8.46-45.83a51.91,51.91,0,0,0-25-21.46c-9.4-3.7-11.48-3.34-31-6-14.63-2-19.54-5.37-23.26-8.1-5.54-4.07-6.17-7.08-15.34-14.66-9.89-8.18-18.15-11.24-28-12.4a49.21,49.21,0,0,0-27.75,5c-.64.35-1.19.59-1.58.86-6.85,4.66-14,10.69-23.55,26.62-3.64,6.09-5.72,12.72-7.32,17.57-3.24,9.74-.9,13.42-3.9,21.41a32.25,32.25,0,0,1-8.79,12.46c-3.25,3-6.74,5.5-10.34,8.67-8.23,7.24-15.89,11.14-25.24,16.2a29.6,29.6,0,0,0-4,2.49c-29.31,22.47-37.41,22.1-43.63,32.3-9.85,16.18-7.32,36.94-5.32,47.53.62,3.33,1.29,6.74,2.05,9.87a90.06,90.06,0,0,0,6.88,18.68c6.83,13.78,16.11,23.39,24.62,32.06,6.41,6.53,19.11,17.94,36.16,23.7,8.26,2.79,12.33,3.38,21.21,7.36,7.71,3.45,13.66,6.41,18.36,11.86,6.5,7.53,8.82,16.77,10.6,25,1.6,7.39,1.59,10.42,4.73,14.12,4,4.75,10.82,6.7,16.57,7.52a140.94,140.94,0,0,0,63.82-19.62C1028.14,1103.54,1042.5,1093.1,1050.73,1075.55Z" transform="translate(-437.85 -426.66)"/><path class="ab" d="M1044.49,1065.91c5.75-12.34,4.55-19.16,7.73-46.12,2-16.48,1.9-26.12,2.5-30.73.66-2.44,1.11-4,1.56-5.3,3.56-10,7.25-13.49,16.14-28,4.89-8,8.39-14.15,10.94-21.4.32-.92.57-1.87.89-2.81,1.68-5,3.44-12,2.62-25.57-1-16,1.36-27.39-5.77-41.81-2.65-5.37-10.12-14.8-21.43-19.75-8.16-3.56-10.05-3.73-27-6.41-12.68-2-17.06-5.16-20.48-7.73-4.91-3.69-5.65-6.45-13.75-13.07-9.2-7.51-17.19-10.18-26.45-11.06a46.15,46.15,0,0,0-25.87,5.27c-.59.33-1.1.58-1.46.84-6.62,4.69-12.53,10.38-21.62,25.36-3.29,5.4-5.41,11.39-7.11,16-3.19,8.63-1.54,12.18-4.63,19.32A30.57,30.57,0,0,1,902.82,884c-3.16,2.74-6.42,4.86-9.75,7.6-7.56,6.2-14.61,9.39-23.69,13.94a26,26,0,0,0-3.75,2.18c-26.82,19.64-34.76,19.32-40.74,28.74-9.46,14.93-7.07,34.55-5.09,44.79.63,3.2,1.27,6.42,2,9.29a85,85,0,0,0,6.56,17.61c6.39,12.79,15.06,21.85,23.24,30.26,6,6.17,17.33,16.4,32.34,21.83,7.35,2.66,11.08,3.43,18.92,7.09,6.88,3.21,12.21,6,16.49,10.88,5.93,6.78,8.31,14.94,10.15,22.24,1.63,6.45,1.83,9.16,4.75,12.43,3.72,4.15,9.82,5.9,15,6.64a126.06,126.06,0,0,0,58.74-17.92C1023.84,1092,1037,1082.09,1044.49,1065.91Z" transform="translate(-437.85 -426.66)"/><path class="ac" d="M1038.25,1056.27c5.3-11.47,4.46-18.31,7-41.74,1.6-14.81,1.23-23.66,1.61-27.82.54-2.17.89-3.62,1.28-4.84,2.87-9.06,6.06-12.77,13.65-25.75,4.2-7.17,7.28-12.89,9.65-19.5.3-.83.53-1.69.83-2.53,1.69-4.85,3.42-11.22,3.23-23-.22-14.37,2.7-24.43-3.06-37.78-2.13-5-8.41-13.3-17.89-18-6.9-3.44-8.61-4.13-23-6.82-10.74-2-14.6-5-17.72-7.35-4.29-3.3-5.12-5.81-12.17-11.47A41.3,41.3,0,0,0,976.81,820c-10-.69-18.62,3-24,5.53a8.19,8.19,0,0,0-1.36.82c-6.37,4.77-11,10.08-19.69,24.11a102.12,102.12,0,0,0-6.89,14.41c-3.12,7.48-2.17,10.92-5.35,17.2a29.87,29.87,0,0,1-8.21,9.75c-3,2.44-6.09,4.23-9.18,6.54C895.23,903.49,888.81,906,880,910c-1.19.55-2.34,1.2-3.49,1.86-25.67,14.73-32.1,16.55-37.85,25.18-9.07,13.69-6.83,32.15-4.86,42.05.61,3.1,1.26,6.12,1.93,8.73a79.28,79.28,0,0,0,6.24,16.53c5.95,11.8,14,20.32,21.85,28.48,5.58,5.78,15.56,14.87,28.53,20,6.45,2.53,9.84,3.48,16.63,6.81,6,3,10.76,5.58,14.6,9.89,5.37,6,7.8,13.11,9.71,19.46,1.65,5.53,2.06,7.91,4.77,10.73,3.42,3.57,8.82,5.1,13.51,5.77a111.61,111.61,0,0,0,53.64-16.22C1019.52,1080.37,1031.42,1071.07,1038.25,1056.27Z" transform="translate(-437.85 -426.66)"/></svg>