<svg width="1203" height="1530" viewBox="0 0 1203 1530" fill="none"
    xmlns="http://www.w3.org/2000/svg">
    <path d="M1481.36 634.297C1465.41 544.523 1432.14 480.193 1408.42 442.137C1373.88 386.726 1346.04 342.061 1291.73 318.265C1255.43 302.363 1249.53 314.277 1126.9 298.259C1027.91 285.329 1007.83 274.455 998.565 268.895C962.517 247.339 963.949 231.437 907.052 190.207C872.568 165.218 852.206 150.816 822.097 146.135C814.17 144.902 788.527 141.699 727.576 164.57C667.442 187.136 622.612 203.968 581.585 249.971C566.056 267.389 528.816 309.13 521.05 369.879C515.655 412.015 530.226 418.078 531.808 504.271C533.001 569.2 525.144 588.182 518.554 599.922C505.902 622.448 496.403 621.019 465.325 658.923C441.521 687.951 428.56 703.759 421.517 729.187C410.404 769.308 422.357 803.309 424.745 809.781C429.404 822.409 446.038 861.404 487.282 880.382C511.94 891.728 534.681 890.991 546.273 890.488C585.237 888.79 591.213 872.579 621.253 871.827C648.395 871.155 668.312 883.928 707.018 909.51C742.396 932.893 766.478 954.664 784.675 971.348C894.348 1071.91 893.7 1082.69 925.695 1094C975.018 1111.43 1024.95 1102.91 1044.48 1099.58C1059.35 1097.05 1084.96 1092.48 1114.42 1077.22C1152.92 1057.28 1175.17 1030.91 1189.78 1013.22C1204.83 995.005 1244.59 945.721 1255.41 875.163C1260.34 843.015 1255.58 830.457 1265.89 794.079C1274.34 764.253 1280.61 742.111 1300.08 725.289C1325.97 702.922 1362.87 700.637 1396.02 698.582C1427.42 696.635 1439.01 701.213 1453.66 691.71C1473.08 679.104 1479.23 653.786 1481.36 634.297Z" stroke="url(#paint0_linear)" stroke-width="2" stroke-miterlimit="10"/>
    <path d="M1282.43 324.932C1247.02 309.438 1241.08 320.975 1121.99 305.462C1061.65 297.629 1031.41 290.609 1015.06 285.114C1005.32 281.831 1000.47 279.102 997.087 277.094C962.007 256.201 963.242 240.782 907.904 200.776C878.324 179.391 859.372 165.989 835.212 159.971C831.973 159.167 828.641 158.491 825.173 157.95C817.358 156.697 792.392 153.527 733.204 175.651C674.71 197.399 631.115 213.585 591.09 258.176C575.943 275.052 539.745 315.547 532.108 374.464C526.786 415.347 540.827 421.257 542.277 504.887C543.376 567.881 535.703 586.33 529.266 597.764C516.97 619.635 507.715 618.305 477.551 655.111C454.378 683.421 441.796 698.937 435.003 723.767C425.847 757.132 433.022 786.159 436.844 797.926C437.492 799.939 438.038 801.443 438.384 802.371C443.064 814.761 459.311 852.504 499.596 871.099C523.548 882.131 545.679 881.505 557.005 881.064C594.861 879.594 600.731 863.85 629.926 863.232C646.269 862.884 659.917 867.546 676.857 877.07C687.287 882.958 698.944 890.657 713.238 900.159C747.553 922.937 770.886 944.143 788.571 960.555C792.308 964.011 795.922 967.356 799.415 970.59C894.989 1059.27 895.498 1069.57 925.576 1080.27C973.632 1097.37 1022.45 1089.05 1041.62 1085.76C1047.82 1084.69 1055.89 1083.27 1065.29 1080.86C1080.77 1076.92 1095.76 1071.21 1109.95 1063.86C1147.49 1044.4 1169.22 1018.67 1183.6 1001.31C1198.3 983.542 1236.96 935.65 1247.54 867.141C1252.38 835.913 1247.82 823.687 1257.86 788.351C1266.1 759.379 1272.23 737.845 1291.16 721.483C1316.33 699.713 1352.15 697.425 1384.34 695.351C1414.82 693.414 1426.08 697.798 1440.3 688.534C1459.17 676.242 1465.13 651.643 1467.18 632.697C1451.74 545.337 1419.39 482.643 1396.19 445.5C1362.54 391.573 1335.35 348.087 1282.43 324.932Z" stroke="url(#paint1_linear)" stroke-width="2" stroke-miterlimit="10"/>
    <path d="M1273.14 331.6C1238.6 316.496 1232.63 327.672 1117.08 312.654C1058.43 305.088 1028.96 298.359 1013.07 293.056C1003.6 289.877 998.885 287.246 995.581 285.295C961.425 265.139 962.508 250.128 908.727 211.346C879.976 190.631 861.521 177.603 838.022 171.733C834.868 170.946 831.625 170.299 828.257 169.756C820.546 168.52 796.266 165.36 738.842 186.724C681.984 207.655 639.637 223.195 600.602 266.371C585.839 282.714 550.669 321.949 543.183 379.039C537.938 418.66 551.447 424.423 552.77 505.487C553.754 566.566 546.264 584.478 539.971 595.611C528.021 616.84 519.02 615.596 489.772 651.299C467.224 678.89 455.026 694.12 448.475 718.332C439.643 750.833 446.717 779.103 450.491 790.623C451.139 792.587 451.661 794.045 452.006 794.95C456.668 807.116 472.553 843.602 511.861 861.828C535.106 872.545 556.625 872.028 567.682 871.652C604.436 870.404 610.194 855.132 638.549 854.648C654.42 854.372 667.675 858.959 684.117 868.259C694.247 874.039 705.552 881.561 719.406 890.817C752.657 912.995 775.202 933.717 792.421 949.771C796.04 953.147 799.539 956.409 802.937 959.563C895.605 1045.83 896.13 1056 925.432 1066.51C972.224 1083.28 1019.91 1075.16 1038.74 1071.89C1044.83 1070.84 1052.7 1069.44 1061.86 1067.09C1076.98 1063.22 1091.6 1057.64 1105.45 1050.46C1142.03 1031.48 1163.25 1006.39 1177.38 989.374C1191.77 972.032 1229.3 925.548 1239.65 859.084C1244.38 828.784 1240.03 816.87 1249.81 782.586C1257.84 754.462 1263.83 733.545 1282.21 717.637C1306.65 696.456 1341.41 694.15 1372.65 692.072C1402.21 690.144 1413.14 694.344 1426.93 685.316C1445.22 673.338 1451.01 649.458 1453.02 631.024C1438.07 546.122 1406.61 485.079 1383.95 448.829C1351.21 396.418 1324.64 354.135 1273.14 331.6Z" stroke="url(#paint2_linear)" stroke-width="2" stroke-miterlimit="10"/>
    <path d="M1263.83 338.254C1230.18 323.55 1224.16 334.344 1112.17 319.86C1055.21 312.565 1026.55 306.101 1011.1 301.003C1001.91 297.932 997.318 295.387 994.094 293.501C960.886 274.041 961.792 259.479 909.573 221.918C881.637 201.842 863.668 189.213 840.805 183.489C837.738 182.722 834.588 182.097 831.317 181.562C823.718 180.32 800.174 177.337 744.448 197.8C689.282 218.061 648.116 232.818 610.085 274.572C595.707 290.376 561.569 328.351 554.208 383.632C549.034 421.997 562.01 427.608 563.204 506.108C564.113 565.238 556.808 582.617 550.677 593.437C539.075 614.022 530.326 612.867 501.989 647.473C480.074 674.35 468.257 689.282 461.964 712.914C453.456 744.545 460.412 772.065 464.161 783.331C464.792 785.23 465.305 786.661 465.653 787.543C470.315 799.477 485.819 834.711 524.159 852.555C546.7 862.962 567.611 862.551 578.401 862.242C614.047 861.216 619.702 846.429 647.211 846.064C662.607 845.863 675.497 850.325 691.41 859.451C701.253 865.086 712.197 872.461 725.612 881.48C757.801 903.054 779.56 923.226 796.306 938.995C799.805 942.291 803.216 945.45 806.49 948.537C896.247 1032.41 896.795 1042.47 925.309 1052.77C970.855 1069.21 1017.4 1061.3 1035.87 1058.07C1041.84 1057.03 1049.54 1055.66 1058.43 1053.36C1073.18 1049.57 1087.46 1044.12 1100.97 1037.1C1136.58 1018.6 1157.31 994.137 1171.2 977.469C1185.22 960.581 1221.67 915.477 1231.78 851.063C1236.43 821.666 1232.26 810.092 1241.78 776.849C1249.62 749.57 1255.47 729.27 1273.3 713.831C1297.03 693.262 1330.73 690.948 1360.98 688.851C1389.61 686.932 1400.21 690.942 1413.57 682.162C1431.3 670.519 1436.9 647.337 1438.86 629.432C1424.4 546.966 1393.86 487.583 1371.71 452.226C1339.87 401.265 1313.94 360.173 1263.83 338.254Z" stroke="url(#paint3_linear)" stroke-width="2" stroke-miterlimit="10"/>
    <path d="M1254.55 344.936C1221.77 330.63 1215.73 341.071 1107.28 327.076C1052 320.05 1024.14 313.864 1009.13 308.962C1000.24 305.99 995.759 303.547 992.616 301.72C960.354 282.961 961.083 268.846 910.425 232.506C883.311 213.079 865.83 200.846 843.612 195.266C840.655 194.509 837.575 193.916 834.403 193.39C826.912 192.144 804.067 189.232 750.097 208.889C696.581 228.379 656.637 242.446 619.61 282.782C605.612 298.05 572.515 334.756 565.29 388.244C560.192 425.352 572.63 430.812 573.698 506.75C574.512 563.945 567.392 580.791 561.413 591.304C550.151 611.247 541.662 610.179 514.237 643.684C492.955 669.847 481.515 684.482 475.478 707.517C467.294 738.284 474.135 765.052 477.848 776.062C478.471 777.909 478.974 779.298 479.301 780.171C483.974 791.888 499.07 825.928 536.466 843.321C558.28 853.462 578.599 853.111 589.123 852.864C623.664 852.063 629.213 837.749 655.876 837.517C670.803 837.387 683.307 841.763 698.712 850.677C708.275 856.209 718.853 863.397 731.818 872.178C762.95 893.147 783.938 912.79 800.194 928.251C803.576 931.464 806.876 934.547 810.054 937.547C896.686 1019.26 897.467 1028.97 925.192 1039.07C969.47 1055.2 1014.89 1047.46 1033.03 1044.26C1038.88 1043.23 1046.37 1041.88 1055.03 1039.64C1069.42 1035.94 1083.33 1030.61 1096.51 1023.76C1131.16 1005.74 1151.36 981.924 1165.01 965.583C1178.68 949.123 1214.03 905.43 1223.91 843.058C1228.47 814.577 1224.49 803.332 1233.75 771.149C1241.38 744.718 1247.08 725.035 1264.36 710.043C1287.37 690.063 1320 687.751 1349.29 685.639C1377 683.72 1387.26 687.549 1400.19 678.998C1417.35 667.678 1422.79 645.191 1424.66 627.827C1410.72 547.794 1381.08 490.04 1359.48 455.6C1328.53 406.105 1303.25 366.208 1254.55 344.936Z" stroke="url(#paint4_linear)" stroke-width="2" stroke-miterlimit="10"/>
    <path d="M1245.25 351.603C1213.35 337.697 1207.29 347.771 1102.37 334.28C1048.78 327.519 1021.71 321.616 1007.16 316.91C998.541 314.048 994.19 311.691 991.133 309.924C959.818 291.861 960.367 278.197 911.265 243.083C884.975 224.308 867.978 212.464 846.408 207.032C843.521 206.308 840.551 205.725 837.476 205.207C830.094 203.957 807.939 201.123 755.722 219.971C703.861 238.692 665.141 252.072 629.11 290.986C615.496 305.72 583.421 341.174 576.331 392.803C571.303 428.655 583.221 433.969 584.15 507.334C584.873 562.598 577.914 578.898 572.107 589.12C561.152 608.394 552.956 607.439 526.453 639.851C505.794 665.296 494.787 679.654 488.951 702.076C481.159 731.994 487.807 757.996 491.499 768.75C492.115 770.539 492.604 771.894 492.943 772.73C497.612 784.208 512.314 817.034 548.768 834.027C569.875 843.859 589.587 843.608 599.846 843.433C633.28 842.848 638.717 829.006 664.542 828.912C678.999 828.857 691.12 833.136 706.016 841.844C715.283 847.26 725.505 854.279 738.025 862.807C768.091 883.174 788.307 902.282 804.08 917.435C807.339 920.571 810.535 923.568 813.613 926.488C897.285 1005.88 898.13 1015.4 925.07 1025.3C968.088 1041.11 1012.38 1033.56 1030.16 1030.4C1035.9 1029.38 1043.21 1028.05 1051.61 1025.89C1065.62 1022.26 1079.18 1017.05 1092.03 1010.36C1125.71 992.824 1145.4 969.649 1158.81 953.659C1172.22 937.669 1206.39 895.342 1216.02 835.018C1220.5 807.455 1216.72 796.53 1225.7 765.398C1233.13 739.814 1238.69 720.746 1255.42 706.215C1277.72 686.831 1309.27 684.452 1337.6 682.382C1364.37 680.428 1374.32 684.119 1386.82 675.799C1403.4 664.806 1408.66 643.037 1410.49 626.19C1397.05 548.593 1368.31 492.481 1347.24 458.947C1317.19 410.952 1292.55 372.245 1245.25 351.603Z" stroke="url(#paint5_linear)" stroke-width="2" stroke-miterlimit="10"/>
    <path d="M1235.96 358.265C1204.94 344.76 1198.86 354.48 1097.48 341.478C1045.56 334.992 1019.29 329.365 1005.19 324.857C996.85 322.103 992.623 319.832 989.646 318.13C959.276 300.765 959.651 287.549 912.111 253.656C886.644 235.53 870.135 224.082 849.209 218.794C846.415 218.091 843.536 217.527 840.556 217.014C833.282 215.765 811.835 212.993 761.357 231.046C711.148 249 673.652 261.693 638.621 299.186C625.408 313.384 594.355 347.568 587.396 397.397C582.447 431.991 593.827 437.148 594.63 507.957C595.258 561.286 588.479 577.052 582.829 586.969C572.211 605.597 564.207 604.671 538.683 636.036C518.599 660.72 508.04 674.834 502.443 696.656C494.989 725.709 501.515 750.95 505.163 761.463C505.766 763.199 506.241 764.515 506.57 765.315C511.237 776.551 525.558 808.153 561.049 824.743C581.444 834.274 600.543 834.109 610.542 834.006C642.864 833.636 648.203 820.285 673.179 820.312C687.162 820.326 698.917 824.506 713.287 833.013C722.264 838.32 732.128 845.161 744.22 853.454C773.222 873.222 792.664 891.802 807.953 906.643C811.087 909.703 814.184 912.61 817.16 915.447C897.858 992.489 898.787 1001.85 924.943 1011.55C966.701 1027.04 1009.86 1019.69 1027.29 1016.55C1032.91 1015.55 1040.03 1014.24 1048.17 1012.13C1061.83 1008.58 1075.03 1003.5 1087.54 996.984C1120.25 979.924 1139.45 957.386 1152.62 941.715C1165.61 926.151 1198.76 885.229 1208.15 826.953C1212.52 800.307 1208.94 789.714 1217.67 759.633C1224.88 734.901 1230.31 716.446 1246.49 702.367C1268.07 683.583 1298.56 681.183 1325.92 679.106C1351.76 677.153 1361.38 680.665 1373.45 672.58C1389.47 661.91 1394.54 640.848 1396.31 624.53C1383.36 549.366 1355.54 494.9 1335 462.268C1305.85 415.796 1281.85 378.28 1235.96 358.265Z" stroke="url(#paint6_linear)" stroke-width="2" stroke-miterlimit="10"/>
    <path d="M1226.66 364.937C1196.52 351.827 1190.38 361.161 1092.56 348.694C1042.34 342.467 1016.87 337.119 1003.22 332.807C995.157 330.155 991.071 327.968 988.158 326.336C958.736 309.667 958.935 296.906 912.946 264.221C888.313 246.761 872.279 235.689 852.003 230.552C849.294 229.867 846.507 229.324 843.625 228.819C836.447 227.575 815.712 224.866 766.978 242.116C718.421 259.303 682.154 271.301 648.12 307.381C635.271 321.04 605.363 353.987 598.45 401.976C593.644 435.32 604.422 440.317 605.093 508.563C605.627 559.957 599.03 575.187 593.535 584.795C583.257 602.781 575.493 601.927 550.903 632.214C531.437 656.17 521.28 670.004 515.925 691.223C508.81 719.411 515.201 743.899 518.831 754.155C519.426 755.832 519.889 757.109 520.227 757.902C524.901 768.915 538.831 799.273 573.357 815.465C593.044 824.693 611.536 824.636 621.268 824.586C652.48 824.435 657.719 811.567 681.85 811.722C695.358 811.81 706.727 815.924 720.59 824.199C729.281 829.389 738.767 836.081 750.429 844.116C778.328 863.336 797.043 881.321 811.839 895.862C814.863 898.835 817.849 901.66 820.722 904.42C898.451 979.128 899.446 988.316 924.824 997.815C965.32 1012.98 1007.34 1005.81 1024.43 1002.72C1029.94 1001.73 1036.87 1000.43 1044.76 998.388C1058.04 994.921 1070.9 989.965 1083.07 983.613C1114.82 967.032 1133.54 945.163 1146.42 929.829C1159.11 914.734 1191.11 875.186 1200.27 818.956C1204.55 793.225 1201.16 782.943 1209.62 753.923C1216.66 730.043 1221.92 712.198 1237.55 698.579C1258.41 680.385 1287.84 677.973 1314.25 675.906C1339.16 673.95 1348.45 677.28 1360.09 669.435C1375.54 659.085 1380.44 638.736 1382.14 622.949C1369.71 550.231 1342.79 497.398 1322.78 465.678C1294.52 420.641 1271.15 384.315 1226.66 364.937Z" stroke="url(#paint7_linear)" stroke-width="2" stroke-miterlimit="10"/>
    <path d="M1217.37 371.62C1188.1 358.899 1181.98 367.686 1087.67 355.912C1039.15 349.85 1014.46 344.88 1001.26 340.771C993.478 338.226 989.5 336.137 986.686 334.556C958.214 318.587 958.234 306.272 913.81 274.82C889.993 257.999 874.452 247.329 854.826 242.338C852.204 241.673 849.507 241.155 846.723 240.658C839.664 239.397 819.619 236.772 772.631 253.217C725.726 269.637 690.683 280.948 657.647 315.604C645.183 328.73 616.318 360.419 609.53 406.585C604.808 438.678 615.041 443.522 615.587 509.2C616.026 558.664 609.61 573.355 604.259 582.648C594.317 599.984 586.815 599.221 563.142 628.408C544.297 651.644 534.538 665.191 529.424 685.812C522.647 713.136 528.904 736.866 532.508 746.873C533.093 748.495 533.555 749.723 533.879 750.502C538.558 761.289 552.106 790.429 585.668 806.204C604.641 815.128 622.532 815.167 631.994 815.187C662.082 815.255 667.224 802.853 690.517 803.145C703.556 803.309 714.531 807.318 727.897 815.398C736.294 820.475 745.421 826.995 756.638 834.797C783.47 853.421 801.417 870.868 815.729 885.107C818.634 887.995 821.513 890.736 824.282 893.419C899.048 965.786 900.124 974.795 924.706 984.1C963.947 998.937 1004.84 991.97 1021.58 988.905C1026.96 987.92 1033.71 986.672 1041.35 984.666C1054.28 981.291 1066.78 976.458 1078.61 970.258C1109.38 954.165 1127.61 932.936 1140.25 917.937C1152.59 903.286 1183.38 865.112 1192.41 810.943C1196.55 786.119 1193.42 776.182 1201.61 748.209C1208.43 725.163 1213.56 707.946 1228.65 694.786C1248.78 677.194 1277.14 674.758 1302.58 672.684C1326.57 670.728 1335.52 673.877 1346.74 666.271C1361.6 656.237 1366.34 636.604 1367.98 621.341C1356.05 551.047 1330.04 499.889 1310.55 469.049C1283.18 425.487 1260.45 390.353 1217.37 371.62Z" stroke="url(#paint8_linear)" stroke-width="2" stroke-miterlimit="10"/>
    <path d="M1208.07 378.271C1179.68 365.967 1173.52 374.345 1082.75 363.099C1035.92 357.298 1012.01 352.629 999.274 348.702C991.77 346.258 987.907 344.277 985.184 342.749C957.66 327.475 957.503 315.609 914.641 285.379C891.632 269.192 876.593 258.933 857.619 254.082C855.091 253.447 852.483 252.938 849.794 252.452C842.847 251.185 823.493 248.633 778.253 264.276C733.014 279.92 699.183 290.566 667.138 323.794C655.055 336.378 627.24 366.811 620.57 411.158C615.936 441.992 625.628 446.686 626.042 509.801C626.386 557.331 620.147 571.484 614.965 580.488C605.364 597.176 598.111 596.498 575.363 624.595C557.138 647.105 547.779 660.369 542.905 680.39C536.466 706.85 542.591 729.825 546.171 739.577C546.745 741.143 547.165 742.353 547.513 743.091C552.198 753.646 565.347 781.537 597.961 796.931C616.225 805.552 633.508 805.697 642.703 805.77C671.692 806.039 676.727 794.149 699.168 794.559C711.735 794.796 722.325 798.714 735.185 806.585C743.293 811.547 752.062 817.903 762.842 825.443C788.603 843.472 805.787 860.374 819.612 874.309C822.397 877.116 825.171 879.771 827.836 882.373C899.652 952.393 900.784 961.241 924.583 970.35C962.562 984.863 1002.33 978.086 1018.71 975.054C1023.98 974.08 1030.54 972.857 1037.92 970.914C1050.48 967.621 1062.63 962.913 1074.13 956.88C1103.94 941.259 1121.67 920.664 1134.04 906.018C1146.05 891.814 1175.72 855.017 1184.54 802.912C1188.58 779.008 1185.65 769.397 1193.57 742.466C1200.19 720.266 1205.18 703.67 1219.72 690.965C1239.13 673.97 1266.42 671.516 1290.89 669.436C1313.95 667.477 1322.58 670.45 1333.36 663.082C1347.66 653.387 1352.22 634.446 1353.8 619.715C1342.37 551.859 1317.28 502.318 1298.3 472.402C1271.84 430.332 1249.76 396.391 1208.07 378.271Z" stroke="url(#paint9_linear)" stroke-width="2" stroke-miterlimit="10"/>
    <path d="M1198.77 384.939C1171.27 373.035 1165.08 381.023 1077.85 370.303C1032.7 364.757 1009.6 360.368 997.3 356.652C990.082 354.317 986.352 352.415 983.697 350.956C957.124 336.376 956.788 324.962 915.484 295.955C893.31 280.437 878.745 270.551 860.407 265.854C857.966 265.231 855.452 264.752 852.862 264.269C846.022 263.003 827.358 260.51 783.877 275.365C740.268 290.237 707.681 300.178 676.646 331.997C664.945 344.045 638.176 373.224 631.617 415.728C627.067 445.31 636.218 449.849 636.5 510.402C636.75 555.997 630.693 569.613 625.666 578.314C616.402 594.356 609.399 593.758 587.585 620.777C569.983 642.565 561.022 655.543 556.392 674.964C550.276 700.565 556.294 722.773 559.833 732.283C560.408 733.78 560.82 734.952 561.15 735.679C565.843 746.005 578.593 772.667 610.266 787.669C627.819 795.984 644.483 796.219 653.428 796.377C681.304 796.847 686.24 785.454 707.83 785.982C719.929 786.292 730.136 790.118 742.481 797.776C750.283 802.641 758.704 808.806 769.05 816.111C793.735 833.535 810.157 849.901 823.497 863.534C826.165 866.259 828.832 868.83 831.397 871.353C900.232 939.042 901.452 947.712 924.466 956.616C961.186 970.809 999.821 964.226 1015.86 961.235C1021 960.281 1027.38 959.073 1034.51 957.189C1046.71 953.979 1058.5 949.394 1069.66 943.524C1098.51 928.385 1115.72 908.446 1127.86 894.123C1139.53 880.364 1168.08 844.956 1176.66 794.889C1180.61 771.898 1177.88 762.618 1185.55 736.743C1191.96 715.391 1196.8 699.41 1210.8 687.161C1229.49 670.767 1255.71 668.294 1279.22 666.211C1301.35 664.249 1309.65 667.044 1320.01 659.915C1333.73 650.543 1338.11 632.309 1339.64 618.106C1328.72 552.675 1304.51 504.797 1286.08 475.778C1260.5 435.176 1239.06 402.427 1198.77 384.939Z" stroke="url(#paint10_linear)" stroke-width="2" stroke-miterlimit="10"/>
    <path d="M1189.48 391.608C1162.85 380.101 1156.64 387.709 1072.95 377.51C1029.48 372.223 1007.19 368.109 995.327 364.596C988.379 362.375 984.786 360.556 982.223 359.152C956.6 345.266 956.085 334.304 916.34 306.52C894.988 291.651 880.911 282.161 863.221 277.612C860.86 277.014 858.444 276.544 855.951 276.074C849.23 274.792 831.26 272.395 789.518 286.435C747.566 300.547 716.203 309.786 686.169 340.199C674.855 351.711 649.135 379.628 642.707 420.329C638.238 448.656 646.85 453.044 647.004 511.031C647.16 554.691 641.279 567.776 636.399 576.179C627.471 591.571 620.72 591.062 599.84 616.964C582.853 638.026 574.298 650.721 569.904 669.544C564.139 694.271 569.997 715.739 573.523 724.991C574.069 726.447 574.489 727.569 574.815 728.269C579.529 738.358 591.88 763.785 622.581 778.385C639.423 786.394 655.477 786.726 664.156 786.946C690.914 787.616 695.745 776.705 716.505 777.389C728.129 777.774 737.954 781.512 749.787 788.96C757.315 793.698 765.362 799.703 775.264 806.764C798.889 823.6 814.542 839.415 827.392 852.745C829.945 855.388 832.492 857.859 834.968 860.318C900.832 925.657 902.128 934.167 924.365 942.864C959.828 956.736 997.334 950.346 1013.01 947.375C1018.05 946.424 1024.23 945.25 1031.11 943.424C1042.94 940.295 1054.37 935.835 1065.2 930.129C1093.1 915.461 1109.79 896.173 1121.69 882.189C1133.02 868.873 1160.45 834.852 1168.81 786.841C1172.65 764.762 1170.07 755.791 1177.52 730.978C1183.69 710.457 1188.44 695.109 1201.88 683.317C1219.85 667.518 1245.01 665.03 1267.55 662.943C1288.76 660.979 1296.71 663.576 1306.66 656.702C1319.79 647.627 1324.02 630.132 1325.48 616.455C1315.05 553.469 1291.7 507.263 1273.87 479.103C1249.08 440.071 1228.35 408.469 1189.48 391.608Z" stroke="url(#paint11_linear)" stroke-width="2" stroke-miterlimit="10"/>
    <path d="M1180.18 398.275C1154.43 387.169 1148.19 394.372 1068.04 384.713C1026.27 379.677 1004.75 375.872 993.357 372.543C986.697 370.423 983.218 368.703 980.723 367.367C956.051 354.175 955.353 343.667 917.169 317.104C896.643 302.887 883.049 293.786 866.006 289.385C863.743 288.802 861.406 288.362 859.014 287.898C852.387 286.618 835.136 284.278 795.137 297.521C754.831 310.865 724.698 319.418 695.658 348.4C684.725 359.376 660.043 386.04 653.748 424.917C649.363 451.987 657.438 456.231 657.444 511.653C657.506 553.378 651.808 565.926 647.094 574.017C638.504 588.764 632.019 588.322 612.031 613.157C595.667 633.497 587.504 645.91 583.359 664.125C577.927 687.996 583.657 708.707 587.157 717.702C587.7 719.101 588.101 720.188 588.428 720.869C593.134 730.735 605.105 754.919 634.844 769.119C650.962 776.835 666.419 777.255 674.837 777.539C700.478 778.409 705.223 768.014 725.132 768.81C736.285 769.268 745.727 772.917 757.048 780.147C764.286 784.771 771.969 790.605 781.434 797.424C803.992 813.663 818.876 828.931 831.242 841.96C833.671 844.525 836.129 846.924 838.488 849.287C901.398 912.292 902.747 920.609 924.197 929.131C958.401 942.677 994.774 936.479 1010.11 933.543C1015.03 932.603 1021.02 931.451 1027.64 929.689C1039.11 926.642 1050.19 922.307 1060.68 916.767C1087.6 902.586 1103.8 883.929 1115.45 870.284C1126.44 857.412 1152.75 824.783 1160.89 778.817C1164.63 757.657 1162.25 749.01 1169.45 725.258C1175.4 705.589 1180.01 690.86 1192.91 679.519C1210.16 664.314 1234.25 661.81 1255.83 659.708C1276.11 657.744 1283.73 660.159 1293.25 653.528C1305.81 644.774 1309.86 627.987 1311.26 614.839C1301.33 554.289 1278.88 509.731 1261.58 482.479C1237.75 444.926 1217.66 414.499 1180.18 398.275Z" stroke="url(#paint12_linear)" stroke-width="2" stroke-miterlimit="10"/>
    <path d="M1170.89 404.94C1146.02 394.236 1139.74 401.048 1063.14 391.917C1023.05 387.138 1002.33 383.622 991.386 380.491C985.004 378.475 981.651 376.845 979.239 375.571C955.521 363.076 954.637 353.019 918.012 327.679C898.308 314.112 885.202 305.406 868.804 301.15C866.628 300.587 864.391 300.164 862.088 299.71C855.574 298.426 839.013 296.171 800.765 308.601C762.109 321.175 733.203 329.038 705.161 356.602C694.617 367.04 670.967 392.436 664.803 429.504C660.508 455.324 668.024 459.402 667.924 512.262C667.89 552.052 662.372 564.067 657.816 571.852C649.557 585.937 643.317 585.604 624.257 609.345C608.514 628.96 600.752 641.089 596.845 658.704C591.742 681.703 597.348 701.663 600.821 710.41C601.355 711.753 601.743 712.801 602.067 713.459C606.785 723.094 618.355 746.034 647.143 759.847C662.556 767.253 677.392 767.773 685.551 768.129C710.075 769.189 714.721 759.298 733.789 760.226C744.469 760.756 753.529 764.317 764.346 771.342C771.291 775.852 778.616 781.515 787.64 788.088C809.128 803.732 823.247 818.452 835.128 831.188C837.443 833.665 839.789 835.983 842.046 838.268C901.995 898.924 903.425 907.096 924.09 915.418C957.033 928.64 992.277 922.635 1007.26 919.73C1012.06 918.804 1017.87 917.673 1024.23 915.958C1035.33 912.994 1046.06 908.783 1056.22 903.406C1082.16 889.708 1097.87 871.696 1109.27 858.387C1119.92 845.958 1145.11 814.718 1153.02 770.799C1156.67 750.554 1154.48 742.236 1161.42 719.525C1167.17 700.696 1171.65 686.596 1183.99 675.708C1200.52 661.101 1223.54 658.576 1244.15 656.482C1263.51 654.518 1270.8 656.755 1279.89 650.357C1291.86 641.937 1295.75 625.849 1297.1 613.233C1287.67 555.119 1266.12 512.205 1249.35 485.856C1226.39 449.768 1206.96 420.535 1170.89 404.94Z" stroke="url(#paint13_linear)" stroke-width="2" stroke-miterlimit="10"/>
    <path d="M1161.58 411.594C1137.59 401.288 1131.28 407.712 1058.22 399.107C1019.82 394.586 999.893 391.36 989.403 388.427C983.307 386.514 980.074 384.978 977.742 383.764C954.978 371.96 953.906 362.348 918.831 338.222C899.954 325.31 887.339 316.989 871.582 312.885C869.498 312.344 867.346 311.938 865.147 311.493C858.741 310.211 842.864 308.014 806.375 319.65C769.366 331.455 741.69 338.632 714.649 364.775C704.483 374.679 681.889 398.829 675.841 434.06C671.625 458.622 678.608 462.548 678.373 512.848C678.247 550.707 672.909 562.182 668.507 569.664C660.585 583.123 654.586 582.862 636.474 605.491C621.351 624.386 613.986 636.229 610.321 653.247C605.558 675.384 611.03 694.586 614.475 703.081C614.998 704.369 615.365 705.36 615.696 706.012C620.415 715.424 631.604 737.132 659.43 750.539C674.139 757.634 688.356 758.258 696.254 758.678C719.659 759.928 724.215 750.548 742.435 751.605C752.643 752.207 761.314 755.691 771.629 762.493C778.282 766.891 785.247 772.382 793.833 778.712C814.251 793.762 827.591 807.942 838.998 820.37C841.183 822.773 843.428 824.989 845.591 827.204C902.578 885.513 904.075 893.521 923.95 901.631C955.635 914.532 989.745 908.719 1004.38 905.848C1009.06 904.933 1014.68 903.824 1020.8 902.18C1031.53 899.294 1041.91 895.204 1051.72 889.988C1076.7 876.773 1091.9 859.4 1103.06 846.43C1113.37 834.445 1137.43 804.603 1145.12 762.732C1148.67 743.401 1146.68 735.409 1153.36 713.76C1158.91 695.781 1163.24 682.282 1175.03 671.863C1190.85 657.854 1212.8 655.311 1232.45 653.214C1250.88 651.248 1257.84 653.302 1266.5 647.144C1277.92 639.037 1281.62 623.672 1282.9 611.579C1274.03 555.921 1253.36 514.651 1237.12 489.202C1215.05 454.617 1196.27 426.575 1161.58 411.594Z" stroke="url(#paint14_linear)" stroke-width="2" stroke-miterlimit="10"/>
    <path d="M1152.3 418.274C1129.18 408.368 1122.84 414.403 1053.33 406.327C1016.61 402.057 997.481 399.121 987.442 396.388C981.623 394.579 978.516 393.133 976.264 391.984C954.458 380.868 953.212 371.723 919.698 348.824C901.642 336.566 889.507 328.643 874.397 324.667C872.396 324.145 870.355 323.747 868.234 323.324C861.93 322.028 846.753 319.908 812.015 330.746C776.652 341.783 750.159 348.214 724.165 372.996C714.369 382.353 692.836 405.257 686.911 438.662C682.776 461.968 689.22 465.743 688.855 513.475C688.634 549.404 683.476 560.339 679.234 567.52C671.662 580.323 665.916 580.145 648.712 601.695C634.206 619.867 627.244 631.43 623.822 647.84C619.391 669.112 624.728 687.561 628.155 695.803C628.662 697.034 629.032 698.008 629.347 698.618C634.087 707.792 644.873 728.273 671.737 741.285C685.742 748.07 699.336 748.795 706.989 749.291C729.273 750.724 733.735 741.861 751.113 743.045C760.846 743.721 769.139 747.109 778.936 753.706C785.305 757.99 791.905 763.307 800.053 769.395C819.404 783.847 831.988 797.473 842.9 809.611C844.975 811.922 847.113 814.074 849.163 816.199C903.19 872.158 904.754 880.008 923.834 887.905C954.26 900.486 987.251 894.878 1001.54 892.037C1006.11 891.134 1011.54 890.052 1017.4 888.468C1027.77 885.667 1037.79 881.704 1047.27 876.655C1071.29 863.918 1085.98 847.189 1096.89 834.557C1106.86 823.035 1129.82 794.538 1137.27 754.727C1140.71 736.3 1138.94 728.647 1145.35 708.039C1150.68 690.908 1154.88 678.03 1166.13 668.064C1181.22 654.653 1202.1 652.091 1220.8 649.988C1238.3 648.02 1244.92 649.898 1253.16 643.981C1264 636.191 1267.53 621.537 1268.75 609.976C1260.33 556.731 1240.59 517.113 1224.89 492.564C1203.71 459.466 1185.57 432.61 1152.3 418.274Z" stroke="url(#paint15_linear)" stroke-width="2" stroke-miterlimit="10"/>
    <path d="M1143 424.941C1120.77 415.434 1114.4 421.083 1048.42 413.531C1013.4 409.52 995.058 406.875 985.47 404.335C979.915 402.646 976.951 401.278 974.785 400.189C953.927 389.75 952.493 381.072 920.546 359.395C903.313 347.786 891.664 340.255 877.211 336.44C875.301 335.94 873.333 335.568 871.326 335.148C865.131 333.843 850.645 331.79 817.663 341.835C783.942 352.104 758.677 357.84 733.686 381.204C724.264 390.015 703.785 411.674 697.983 443.261C693.933 465.311 699.836 468.93 699.339 514.099C699.027 548.091 694.046 558.495 689.96 565.37C682.726 577.528 677.232 577.432 660.956 597.89C647.068 615.339 640.499 626.609 637.323 642.427C633.229 662.832 638.434 680.526 641.828 688.524C642.328 689.697 642.685 690.632 642.995 691.222C647.749 700.168 658.137 719.409 684.042 732.023C697.344 738.5 710.318 739.321 717.704 739.885C738.863 741.489 743.236 733.15 759.771 734.464C769.026 735.217 776.943 738.512 786.232 744.897C792.31 749.072 798.545 754.216 806.259 760.059C824.54 773.917 836.359 786.988 846.772 798.839C848.731 801.068 850.774 803.127 852.712 805.182C903.779 858.786 905.41 866.477 923.708 874.187C952.876 886.441 984.732 881.002 998.657 878.202C1003.11 877.31 1008.35 876.253 1013.96 874.727C1023.97 872.009 1033.63 868.171 1042.78 863.287C1065.83 851.029 1080.02 834.94 1090.68 822.649C1100.31 811.548 1122.15 784.474 1129.39 746.71C1132.74 729.204 1131.15 721.862 1137.31 702.326C1142.44 686.03 1146.5 673.773 1157.2 664.27C1171.57 651.453 1191.37 648.883 1209.11 646.77C1225.68 644.803 1231.99 646.499 1239.79 640.82C1250.06 633.354 1253.41 619.408 1254.57 608.376C1246.66 557.57 1227.82 519.597 1212.65 495.949C1192.37 464.313 1174.87 438.646 1143 424.941Z" stroke="url(#paint16_linear)" stroke-width="2" stroke-miterlimit="10"/>
    <path d="M1133.7 431.608C1112.34 422.493 1105.95 427.765 1043.52 420.734C1010.18 416.983 992.633 414.625 983.497 412.285C978.233 410.679 975.381 409.422 973.292 408.399C953.396 398.656 951.774 390.431 921.396 369.965C904.987 359.008 893.821 351.867 880.015 348.199C878.194 347.72 876.319 347.365 874.406 346.955C868.32 345.645 854.526 343.665 823.298 352.91C791.221 362.407 767.202 367.446 743.198 389.404C734.159 397.673 714.725 418.078 709.048 447.841C705.079 468.636 710.444 472.104 709.828 514.701C709.422 546.758 704.623 556.625 700.692 563.198C693.811 574.703 688.557 574.694 673.2 594.06C659.935 610.788 653.764 621.771 650.829 636.992C647.067 656.531 652.138 673.467 655.519 681.213C656.004 682.324 656.355 683.224 656.666 683.794C661.429 692.506 671.424 710.513 696.366 722.733C708.962 728.896 721.317 729.82 728.444 730.451C748.479 732.225 752.764 724.419 768.464 725.873C777.272 726.681 784.78 729.912 793.561 736.079C799.343 740.144 805.223 745.113 812.496 750.71C829.71 763.971 840.763 776.494 850.699 788.048C852.543 790.189 854.463 792.169 856.313 794.141C904.421 845.391 906.121 852.912 923.628 860.435C951.534 872.365 982.255 867.129 995.842 864.351C1000.18 863.473 1005.23 862.437 1010.58 860.973C1020.22 858.337 1029.54 854.623 1038.35 849.902C1060.44 838.139 1074.12 822.677 1084.54 810.724C1093.82 800.068 1114.55 774.384 1121.56 738.667C1124.81 722.078 1123.42 715.056 1129.31 696.564C1134.24 681.113 1138.15 669.47 1148.3 660.427C1161.95 648.213 1180.7 645.615 1197.47 643.506C1213.11 641.537 1219.08 643.05 1226.46 637.611C1236.16 630.47 1239.34 617.233 1240.44 606.727C1233.02 558.356 1215.09 522.031 1200.45 499.283C1181.02 469.158 1164.17 444.683 1133.7 431.608Z" stroke="url(#paint17_linear)" stroke-width="2" stroke-miterlimit="10"/>
    <path d="M1124.41 438.278C1103.93 429.571 1097.51 434.444 1038.61 427.942C1006.95 424.447 990.202 422.38 981.518 420.234C978.185 419.294 974.934 418.082 971.799 416.611C952.866 407.552 951.09 399.731 922.219 380.554C906.665 370.209 895.956 363.501 882.802 359.988C881.073 359.53 879.289 359.193 877.473 358.791C871.494 357.474 858.386 355.561 828.914 364.014C798.481 372.74 775.671 377.103 752.683 397.614C744.025 405.347 725.644 424.507 720.083 452.434C716.198 471.977 721.022 475.29 720.256 515.318C719.758 545.438 715.136 554.773 711.358 561.043C704.808 571.907 699.816 571.98 685.381 590.252C672.736 606.254 666.961 616.953 664.273 631.572C660.844 650.246 665.78 666.429 669.142 673.922C669.618 674.986 669.951 675.841 670.261 676.387C675.039 684.869 684.633 701.638 708.606 713.474C720.498 719.326 732.225 720.35 739.102 721.051C758.009 722.984 762.208 715.714 777.053 717.289C785.375 718.184 792.504 721.324 800.788 727.267C806.282 731.22 811.797 736.016 818.629 741.373C834.774 754.033 845.066 766 854.515 777.263C856.237 779.321 858.054 781.224 859.796 783.112C904.952 831.998 906.711 839.389 923.439 846.694C950.07 858.315 979.673 853.259 992.911 850.515C997.138 849.641 1002 848.634 1007.1 847.231C1016.37 844.676 1025.33 841.086 1033.8 836.528C1054.92 825.233 1068.1 810.427 1078.28 798.813C1087.23 788.601 1106.83 764.306 1113.61 730.636C1116.77 714.965 1115.58 708.275 1121.22 690.841C1125.94 676.237 1129.71 665.218 1139.32 656.625C1152.25 645.007 1169.94 642.381 1185.72 640.261C1200.43 638.298 1206.07 639.63 1213.03 634.424C1222.15 627.605 1225.16 615.079 1226.2 605.099C1219.28 559.162 1202.25 524.484 1188.13 502.642C1169.68 474.008 1153.47 450.719 1124.41 438.278Z" stroke="url(#paint18_linear)" stroke-width="2" stroke-miterlimit="10"/>
    <path d="M1115.12 444.968C1095.52 436.661 1089.06 441.149 1033.71 435.17C1003.74 431.929 987.787 430.152 979.555 428.2C976.394 427.321 973.305 426.196 970.32 424.835C952.351 416.461 950.383 409.096 923.07 391.148C908.328 381.458 898.115 375.136 885.61 371.754C883.969 371.317 882.279 370.996 880.56 370.608C874.687 369.284 862.269 367.434 834.556 375.093C805.775 383.037 784.2 386.715 762.208 405.833C753.934 413.027 736.59 430.926 731.163 457.037C727.362 475.329 731.651 478.501 730.759 515.968C730.163 544.161 725.736 552.964 722.108 558.925C715.897 569.137 711.162 569.3 697.646 586.475C685.628 601.767 680.241 612.166 677.791 626.216C674.692 644.021 679.496 659.449 682.838 666.695C683.301 667.7 683.639 668.512 683.931 669.042C688.72 677.285 697.92 692.825 720.952 704.255C732.137 709.793 743.241 710.915 749.861 711.691C767.64 713.778 771.769 707.046 785.76 708.756C793.604 709.722 800.362 712.776 808.123 718.507C813.333 722.352 818.474 726.976 824.88 732.087C839.956 744.147 849.48 755.556 858.449 766.53C860.058 768.503 861.767 770.323 863.39 772.145C905.588 818.665 907.41 825.91 923.351 833.015C948.74 844.304 977.196 839.449 990.085 836.739C994.187 835.88 998.863 834.887 1003.71 833.55C1012.62 831.078 1021.22 827.615 1029.36 823.226C1049.51 812.411 1062.18 798.245 1072.11 786.968C1080.71 777.204 1099.21 754.292 1105.76 722.675C1108.82 707.909 1107.83 701.555 1113.2 685.159C1117.72 671.4 1121.34 660.985 1130.41 652.865C1142.62 641.844 1159.22 639.211 1174.07 637.093C1187.86 635.127 1193.16 636.28 1199.69 631.314C1208.24 624.816 1211.07 612.998 1212.04 603.561C1205.62 560.058 1189.5 527.028 1175.92 506.083C1158.33 478.841 1142.78 456.757 1115.12 444.968Z" stroke="url(#paint19_linear)" stroke-width="2" stroke-miterlimit="10"/>
    <path d="M1105.82 451.612C1087.1 443.705 1080.61 447.813 1028.81 442.35C1000.53 439.362 985.364 437.877 977.58 436.126C974.59 435.309 971.666 434.271 968.831 433.018C951.827 425.323 949.666 418.424 923.907 401.702C909.981 392.658 900.247 386.747 888.393 383.51C886.84 383.088 885.24 382.785 883.617 382.408C877.838 381.089 866.113 379.287 840.166 386.162C813.005 393.347 792.685 396.32 771.696 414.026C763.806 420.682 747.486 437.337 742.198 461.615C738.481 478.65 742.222 481.658 741.205 516.571C740.515 542.829 736.264 551.087 732.797 556.74C726.929 566.316 722.445 566.558 709.848 582.642C698.444 597.199 693.461 607.326 691.26 620.749C688.488 637.687 693.154 652.366 696.48 659.356C696.935 660.308 697.25 661.089 697.566 661.577C702.382 669.597 711.174 683.89 733.243 694.931C743.723 700.158 754.198 701.376 760.579 702.239C777.227 704.467 781.26 698.298 794.418 700.132C801.791 701.17 808.165 704.141 815.419 709.656C820.335 713.393 825.119 717.814 831.083 722.705C845.093 734.167 853.855 745.021 862.324 755.713C863.818 757.598 865.418 759.34 866.957 761.071C906.205 805.22 908.087 812.326 923.239 819.233C947.37 830.196 974.695 825.536 987.233 822.856C991.219 822.012 995.709 821.044 1000.3 819.762C1008.85 817.371 1017.1 814.03 1024.9 809.801C1044.09 799.467 1056.26 785.938 1065.94 775.006C1074.2 765.676 1091.59 744.152 1097.91 714.595C1100.87 700.749 1100.08 694.712 1105.19 679.369C1109.49 666.457 1112.99 656.673 1121.5 648.998C1132.99 638.574 1148.52 635.922 1162.41 633.802C1175.27 631.835 1180.25 632.807 1186.35 628.077C1194.32 621.906 1196.98 610.797 1197.9 601.874C1191.99 560.813 1176.77 529.425 1163.72 509.383C1147 483.701 1132.08 462.79 1105.82 451.612Z" stroke="url(#paint20_linear)" stroke-width="2" stroke-miterlimit="10"/>
    <path d="M1096.52 458.279C1078.68 450.773 1072.16 454.495 1023.9 449.553C997.307 446.828 982.939 445.627 975.61 444.074C972.787 443.317 970.022 442.358 967.336 441.206C951.297 434.19 948.942 427.758 924.745 412.256C911.651 403.868 902.406 398.334 891.19 395.251C889.714 394.842 888.215 394.566 886.688 394.202C881.04 392.868 869.986 391.139 845.792 397.218C820.261 403.633 801.189 405.917 781.2 422.208C773.691 428.327 758.431 443.713 753.257 466.18C749.619 481.962 752.82 484.81 751.677 517.161C750.883 541.471 746.81 549.2 743.503 554.56C737.983 563.489 733.746 563.822 722.067 578.806C711.286 592.64 706.694 602.478 704.755 615.293C702.313 631.362 706.858 645.307 710.154 652.028C710.596 652.927 710.904 653.664 711.204 654.144C716.034 661.931 724.423 674.982 745.532 685.632C755.308 690.548 765.156 691.86 771.279 692.79C786.796 695.145 790.745 689.548 803.058 691.51C809.959 692.621 815.948 695.512 822.709 700.797C827.335 704.425 831.767 708.684 837.284 713.319C850.224 724.181 857.139 735.402 866.201 744.885C867.768 746.524 869.071 748.34 870.508 749.993C906.808 791.77 908.744 798.741 923.111 805.448C945.983 816.09 972.177 811.62 984.369 808.971C988.237 808.138 992.536 807.194 996.876 805.974C1005.06 803.668 1012.95 800.451 1020.42 796.383C1038.64 786.531 1050.31 773.642 1059.74 763.048C1067.66 754.159 1083.93 734.034 1090.02 706.53C1092.88 693.601 1092.28 687.89 1097.14 673.599C1101.23 661.53 1104.59 652.364 1112.55 645.145C1123.32 635.316 1137.78 632.654 1150.71 630.528C1162.63 628.561 1167.29 629.35 1172.96 624.863C1180.36 619.012 1182.85 608.613 1183.71 600.22C1178.31 561.632 1163.99 531.871 1151.47 512.736C1135.66 488.547 1121.38 468.83 1096.52 458.279Z" stroke="url(#paint21_linear)" stroke-width="2" stroke-miterlimit="10"/>
    <path d="M1087.23 464.946C1070.27 457.843 1063.73 461.176 1019 456.757C994.088 454.293 980.516 453.381 973.641 452.024C970.993 451.334 968.395 450.468 965.862 449.432C950.794 443.09 948.24 437.129 925.601 422.851C913.339 415.105 904.573 409.973 894.002 407.035C892.625 406.657 891.211 406.384 889.781 406.034C884.23 404.68 873.856 403.028 851.434 408.318C827.536 413.959 809.711 415.555 790.731 430.443C783.604 436.025 769.388 450.163 764.34 470.801C760.786 485.332 763.443 488.026 762.171 517.812C761.292 540.201 757.396 547.364 754.24 552.438C749.063 560.721 745.081 561.14 734.322 575.027C724.16 588.142 719.961 597.686 718.256 609.919C716.142 625.117 720.543 638.297 723.836 644.782C724.262 645.624 724.562 646.322 724.858 646.782C729.715 654.332 737.696 666.15 757.845 676.408C766.912 681.007 776.14 682.409 782.004 683.425C796.393 685.895 800.261 680.884 811.726 682.976C818.155 684.16 823.759 686.973 830.002 692.044C834.333 695.565 838.416 699.659 843.484 704.035C855.355 714.297 861.474 724.962 870.083 734.16C871.534 735.711 872.724 737.447 874.06 739.022C907.417 778.418 909.399 785.255 922.992 791.758C944.603 802.077 969.665 797.801 981.508 795.187C985.258 794.364 989.371 793.44 993.457 792.283C1001.27 790.058 1008.82 786.965 1015.95 783.063C1033.2 773.69 1044.36 761.44 1053.55 751.188C1061.14 742.732 1076.29 724.006 1082.16 698.542C1084.93 686.528 1084.53 681.144 1089.13 667.919C1093.02 656.696 1096.23 648.147 1103.65 641.387C1113.7 632.156 1127.09 629.475 1139.05 627.343C1150.05 625.375 1154.38 625.988 1159.62 621.736C1166.45 616.207 1168.77 606.535 1169.56 598.654C1164.65 562.459 1151.23 534.376 1139.28 516.114C1124.32 493.394 1110.68 474.865 1087.23 464.946Z" stroke="url(#paint22_linear)" stroke-width="2" stroke-miterlimit="10"/>
    <path d="M1077.93 471.613C1061.85 464.91 1055.26 467.872 1014.1 463.967C990.872 461.76 978.094 461.134 971.667 459.974C969.191 459.346 966.755 458.566 964.375 457.638C950.28 451.965 947.522 446.477 926.444 433.426C914.997 426.339 906.724 421.589 896.8 418.799C895.513 418.446 894.19 418.185 892.857 417.849C887.417 416.48 877.716 414.889 857.068 419.398C834.787 424.263 818.216 425.174 800.225 438.631C793.482 443.675 780.304 456.56 775.384 475.372C771.913 488.651 773.975 491.19 772.629 518.411C771.6 538.875 767.946 545.518 764.941 550.263C760.106 557.901 756.379 558.407 746.535 571.195C736.996 583.588 733.184 592.844 731.734 604.479C729.954 618.826 734.194 631.246 737.49 637.473C737.784 638.12 738.117 638.748 738.487 639.355C743.782 646.376 750.941 657.25 770.132 667.119C778.481 671.388 787.083 672.904 792.71 673.996C805.96 676.564 809.752 672.15 820.376 674.367C826.335 675.626 831.549 678.367 837.302 683.227C841.36 686.656 845.057 690.539 849.697 694.689C860.5 704.35 865.826 714.442 873.975 723.374C875.318 724.847 876.402 726.503 877.625 727.992C908.041 764.992 910.076 771.718 922.874 778.023C943.224 788.018 967.156 783.932 978.65 781.351C982.285 780.538 986.209 779.64 990.044 778.54C997.493 776.396 1004.68 773.423 1011.47 769.679C1027.76 760.784 1038.39 749.164 1047.35 739.266C1054.58 731.243 1068.64 713.916 1074.28 690.499C1076.95 679.399 1076.75 674.344 1081.08 662.154C1084.77 651.786 1087.84 643.849 1094.69 637.556C1104.02 628.919 1116.34 626.225 1127.35 624.085C1137.41 622.126 1141.41 622.549 1146.23 618.536C1152.48 613.331 1154.62 604.362 1155.36 597.014C1150.95 563.257 1138.45 536.803 1127 519.471C1112.98 498.235 1099.97 480.889 1077.93 471.613Z" stroke="url(#paint23_linear)" stroke-width="2" stroke-miterlimit="10"/>
    <path d="M1068.63 478.28C1053.43 471.978 1046.81 474.565 1009.19 471.168C987.647 469.223 975.667 468.882 969.694 467.919C967.39 467.35 965.119 466.655 962.892 465.837C949.775 460.828 946.81 455.821 927.291 443.994C916.666 437.556 908.88 433.199 899.605 430.56C898.399 430.226 897.174 429.973 895.935 429.653C890.601 428.277 881.573 426.733 862.7 430.471C842.039 434.558 826.729 434.785 809.737 446.826C803.374 451.33 791.237 462.969 786.446 479.95C783.056 491.98 784.582 494.356 783.104 519.014C781.996 537.537 778.508 543.655 775.66 548.095C771.171 555.091 767.689 555.676 758.772 567.372C749.854 579.068 746.434 588.007 745.231 599.046C743.767 612.505 747.893 624.187 751.165 630.169C751.452 630.776 751.777 631.366 752.137 631.933C757.445 638.718 764.227 648.341 782.441 657.836C790.095 661.806 798.052 663.391 803.434 664.569C815.55 667.223 819.264 663.426 829.043 665.771C834.53 667.103 839.356 669.774 844.587 674.388C848.341 677.702 851.691 681.418 855.892 685.323C865.625 694.384 870.171 703.893 877.848 712.568C879.075 713.953 880.047 715.519 881.172 716.938C908.656 751.539 910.733 758.153 922.742 764.261C941.836 773.932 964.627 770.048 975.779 767.491C979.298 766.692 983.032 765.813 986.615 764.775C993.701 762.717 1000.53 759.873 1006.99 756.296C1022.31 747.877 1032.46 736.914 1041.16 727.344C1048.05 719.774 1061 703.826 1066.41 682.461C1068.98 672.276 1068.98 667.55 1073.05 656.408C1076.53 646.874 1079.47 639.579 1085.77 633.722C1094.4 625.7 1105.63 622.975 1115.68 620.827C1124.82 618.871 1128.48 619.107 1132.88 615.332C1138.56 610.455 1140.52 602.167 1141.21 595.381C1137.3 564.059 1125.7 539.254 1114.78 522.823C1101.65 503.08 1089.28 486.938 1068.63 478.28Z" stroke="url(#paint24_linear)" stroke-width="2" stroke-miterlimit="10"/>
    <path d="M1059.33 484.937C1045.01 479.032 1038.36 481.248 1004.28 478.344C984.425 476.66 973.241 476.604 967.717 475.836C964.69 475.071 962.854 474.543 961.39 474.014C949.253 469.664 946.08 465.144 928.118 454.54C918.318 448.754 911.018 444.79 902.388 442.296C901.276 441.978 900.138 441.746 898.996 441.439C893.773 440.042 885.405 438.555 868.316 441.52C849.264 444.827 835.225 444.377 819.225 454.999C813.251 458.965 802.149 469.353 797.492 484.51C794.177 495.289 795.166 497.502 793.559 519.601C792.354 536.186 789.054 541.769 786.357 545.908C782.216 552.26 778.998 552.943 770.977 563.53C762.681 574.487 759.66 583.148 758.699 593.599C757.551 606.189 761.541 617.124 764.812 622.85C765.091 623.419 765.407 623.97 765.755 624.499C771.073 631.044 777.449 639.442 794.712 648.539C801.659 652.195 808.987 653.862 814.135 655.147C825.116 657.863 828.751 654.699 837.688 657.175C842.702 658.579 847.14 661.182 851.857 665.563C855.32 668.773 858.311 672.303 862.072 675.97C870.737 684.425 874.512 693.337 881.708 701.771C882.819 703.073 883.677 704.554 884.705 705.897C909.265 738.084 911.37 744.601 922.593 750.509C940.429 759.86 962.096 756.161 972.892 753.642C976.296 752.851 979.839 751.997 983.157 751.029C989.878 749.055 996.358 746.335 1002.47 742.92C1016.84 734.989 1026.47 724.657 1034.93 715.429C1041.48 708.299 1053.32 693.74 1058.49 674.429C1060.98 665.157 1061.17 660.754 1064.97 650.667C1068.25 641.981 1071.06 635.296 1076.81 629.9C1084.72 622.479 1094.88 619.738 1103.95 617.588C1112.17 615.65 1115.5 615.692 1119.48 612.146C1124.58 607.59 1126.38 600.024 1127 593.741C1123.59 564.853 1112.89 541.688 1102.51 526.166C1090.31 507.924 1078.59 492.976 1059.33 484.937Z" stroke="url(#paint25_linear)" stroke-width="2" stroke-miterlimit="10"/>
    <path d="M1050.04 491.617C1036.62 486.093 1029.91 487.962 999.379 485.575C981.21 484.156 970.823 484.384 965.748 483.812C963.013 483.165 961.291 482.711 959.911 482.253C948.761 478.552 945.373 474.529 928.973 465.146C920.005 460.002 913.185 456.45 905.195 454.093C904.176 453.797 903.127 453.574 902.085 453.285C896.97 451.87 889.256 450.423 873.953 452.632C856.505 455.153 843.742 454.028 828.742 463.234C823.15 466.664 813.082 475.802 808.571 489.144C805.333 498.677 805.784 500.732 804.049 520.266C802.749 534.916 799.635 539.966 797.089 543.798C793.297 549.507 790.333 550.282 783.224 559.767C775.55 570.002 772.902 578.375 772.206 588.227C771.387 599.954 775.228 610.137 778.493 615.609C778.864 616.229 779.137 616.773 779.417 617.141C784.38 623.739 790.724 630.599 807.028 639.318C813.266 642.658 819.961 644.404 824.86 645.773C834.711 648.528 838.26 646.025 846.352 648.629C850.895 650.106 854.941 652.641 859.17 656.791C862.329 659.887 864.969 663.243 868.292 666.673C875.89 674.517 880.126 681.958 885.607 691.029C886.394 692.391 887.288 693.689 888.28 694.91C912.036 723.014 912.05 731.103 922.491 736.808C939.057 745.845 959.6 742.331 970.051 739.844C973.333 739.067 976.691 738.231 979.772 737.326C986.129 735.432 992.255 732.836 998.038 729.587C1011.44 722.135 1020.56 712.438 1028.78 703.553C1034.98 696.863 1045.73 683.682 1050.66 666.434C1053.05 658.076 1053.44 654 1056.98 644.967C1060.05 637.126 1062.71 631.067 1067.92 626.121C1075.1 619.294 1084.19 616.544 1092.32 614.379C1099.6 612.437 1102.61 612.304 1106.15 609.002C1110.68 604.771 1112.3 597.914 1112.85 592.143C1109.94 565.692 1100.16 544.176 1090.3 529.55C1078.98 512.766 1067.9 498.974 1050.04 491.617Z" stroke="url(#paint26_linear)" stroke-width="2" stroke-miterlimit="10"/>
    <path d="M1040.75 498.284C1028.2 493.151 1021.46 494.671 994.476 492.781C977.987 491.628 968.397 492.134 963.777 491.76C961.321 491.22 959.74 490.847 958.424 490.46C948.268 487.397 944.654 483.883 929.815 475.721C921.657 471.235 915.331 468.04 907.996 465.855C907.065 465.579 906.11 465.373 905.16 465.1C900.155 463.661 893.082 462.245 879.584 463.71C863.723 465.432 852.265 463.659 838.247 471.439C833.03 474.337 824.001 482.225 819.608 493.72C816.447 502.005 816.365 503.896 814.503 520.868C813.106 533.585 810.177 538.102 807.778 541.622C804.337 546.689 801.63 547.554 795.425 555.934C788.379 565.453 786.108 573.53 785.67 582.788C785.156 593.63 788.878 603.078 792.139 608.297C792.496 608.863 792.762 609.363 793.037 609.711C798.023 616.074 803.969 621.685 819.307 630.026C824.834 633.045 830.901 634.862 835.551 636.34C844.289 639.102 847.745 637.291 854.995 640.025C859.062 641.577 862.716 644.05 866.431 647.973C869.307 650.984 871.58 654.129 874.459 657.316C880.992 664.552 884.497 671.41 889.455 680.235C890.134 681.508 890.918 682.722 891.799 683.864C912.624 709.633 912.678 717.552 922.333 723.058C937.646 731.761 957.054 728.45 967.153 725.993C970.308 725.214 973.489 724.416 976.311 723.563C982.304 721.754 988.076 719.283 993.521 716.194C1005.95 709.224 1014.56 700.163 1022.54 691.625C1028.4 685.37 1038.04 673.594 1042.74 658.385C1045.04 650.942 1045.63 647.195 1048.9 639.214C1051.77 632.216 1054.28 626.774 1058.95 622.288C1065.41 616.059 1073.42 613.301 1080.6 611.119C1086.94 609.189 1089.63 608.866 1092.74 605.8C1096.7 601.897 1098.15 595.742 1098.65 590.519C1096.25 566.502 1087.37 546.638 1078.03 532.898C1067.65 517.602 1057.21 505.015 1040.75 498.284Z" stroke="url(#paint27_linear)" stroke-width="2" stroke-miterlimit="10"/>
    <path d="M1031.45 504.951C1019.78 500.221 1013.01 501.386 989.571 499.985C974.764 499.1 965.972 499.885 961.806 499.707C959.628 499.272 958.166 498.993 956.937 498.666C947.777 496.231 943.934 493.237 930.658 486.296C923.324 482.463 917.487 479.663 910.797 477.623C909.95 477.365 909.09 477.169 908.234 476.912C903.33 475.459 896.904 474.046 885.211 474.79C870.924 475.694 860.769 473.271 847.753 479.638C842.935 481.997 834.913 488.644 830.672 498.3C827.578 505.337 826.972 507.07 824.979 521.479C823.488 532.262 820.746 536.242 818.504 539.463C815.416 543.893 812.958 544.842 807.666 552.121C801.247 560.925 799.345 568.702 799.17 577.366C798.96 587.344 803.038 595.76 805.816 601.001C806.063 601.468 806.359 601.909 806.697 602.315C811.744 608.437 817.245 612.782 831.625 620.769C836.464 623.451 841.88 625.341 846.288 626.942C853.886 629.697 857.265 628.59 863.67 631.453C867.249 633.087 870.52 635.493 873.753 639.16C876.332 642.08 878.257 645.027 880.698 647.985C886.165 654.604 888.944 660.876 893.374 669.46C893.972 670.621 894.676 671.732 895.387 672.847C911.261 697.7 913.377 704.02 922.243 709.328C936.301 717.708 954.558 714.6 964.324 712.166C967.376 711.411 970.355 710.616 972.924 709.83C978.552 708.105 983.97 705.757 989.078 702.831C1000.54 696.342 1008.64 687.914 1016.39 679.722C1021.88 673.894 1030.45 663.523 1034.9 650.369C1037.11 643.833 1037.9 640.415 1040.89 633.494C1043.56 627.34 1045.93 622.516 1050.04 618.486C1055.79 612.857 1062.72 610.099 1068.94 607.896C1074.37 605.988 1076.72 605.464 1079.4 602.634C1082.79 599.059 1084.06 593.612 1084.5 588.913C1082.59 567.334 1074.63 549.101 1065.82 536.29C1056.32 522.449 1046.5 511.052 1031.45 504.951Z" stroke="url(#paint28_linear)" stroke-width="2" stroke-miterlimit="10"/>
    <path d="M1022.16 511.618C1011.35 507.297 1004.55 508.117 984.666 507.188C971.54 506.577 963.55 507.638 959.836 507.655C957.937 507.326 956.606 507.13 955.454 506.878C947.299 505.056 943.22 502.597 931.505 496.878C924.99 493.695 919.643 491.286 913.609 489.387C912.855 489.15 912.084 488.964 911.325 488.726C906.55 487.23 900.726 485.812 890.859 485.87C878.13 485.943 869.299 482.898 857.268 487.836C852.834 489.656 845.823 495.06 841.746 502.879C838.716 508.678 837.584 510.236 835.465 522.083C833.882 530.929 831.328 534.379 829.232 537.293C826.503 541.086 824.308 542.14 819.906 548.295C814.12 556.389 812.585 563.863 812.673 571.933C812.772 581.033 816.648 588.739 819.497 593.697C819.738 594.119 820.02 594.517 820.337 594.885C825.415 600.742 830.525 603.863 843.925 611.477C848.062 613.827 852.848 615.77 857.003 617.507C863.49 620.219 866.767 619.858 872.327 622.848C875.46 624.537 878.3 626.908 881.048 630.328C883.322 633.159 884.76 636.008 886.91 638.615C891.623 644.381 893.388 650.301 897.264 658.651C897.757 659.717 898.347 660.749 898.965 661.809C911.991 684.175 914.06 690.47 922.14 695.578C934.939 703.638 952.082 700.708 961.482 698.319C964.416 697.575 967.195 696.806 969.524 696.078C974.788 694.436 979.852 692.213 984.624 689.451C995.122 683.441 1002.7 675.646 1010.22 667.8C1015.37 662.416 1022.85 653.431 1027.04 642.321C1029.16 636.701 1030.15 633.612 1032.88 627.734C1035.35 622.427 1037.58 618.221 1041.14 614.648C1046.17 609.629 1052.02 606.861 1057.3 604.622C1061.78 602.729 1063.82 602.014 1066.08 599.415C1068.89 596.171 1069.99 591.426 1070.36 587.258C1069.1 570.176 1063.32 553.736 1053.62 539.619C1044.99 527.286 1035.8 517.098 1022.16 511.618Z" stroke="url(#paint29_linear)" stroke-width="2" stroke-miterlimit="10"/>
    <path d="M1012.86 518.285C1002.94 514.361 996.096 514.86 979.762 514.392C968.317 514.069 961.125 515.389 957.852 515.611C956.237 515.383 955.034 515.27 953.956 515.083C946.789 513.855 942.481 511.956 932.333 507.453C926.64 504.925 921.782 502.907 916.384 501.159C915.717 500.943 915.044 500.765 914.38 500.546C908.594 498.559 902.569 497.352 896.463 496.957C885.284 496.146 877.796 492.533 866.754 496.054C862.706 497.345 856.686 501.499 852.775 507.485C849.796 512.041 848.163 513.43 845.909 522.717C844.232 529.628 841.867 532.552 839.915 535.155C837.547 538.314 835.619 539.466 832.104 544.503C826.955 551.889 825.77 559.057 826.13 566.533C826.527 574.758 830.187 581.768 833.133 586.425C833.375 586.804 833.651 587.16 833.958 587.489C839.067 593.082 843.783 594.954 856.198 602.218C859.644 604.233 863.805 606.212 867.705 608.129C873.099 610.762 876.258 611.172 880.973 614.296C883.629 616.065 886.358 618.19 888.331 621.548C890.041 624.458 891.534 626.823 893.098 629.322C896.456 634.699 897.835 639.786 901.128 647.914C901.522 648.881 902.003 649.835 902.501 650.82C912.722 670.674 914.704 676.977 922.002 681.883C933.54 689.618 949.549 686.88 958.604 684.523C961.421 683.793 964.02 683.035 966.084 682.378C970.983 680.82 975.693 678.721 980.128 676.122C989.661 670.591 996.715 663.412 1004 655.933C1008.81 650.983 1015.22 643.399 1019.15 634.34C1021.19 629.634 1022.37 626.873 1024.83 622.046C1027.1 617.588 1029.18 613.996 1032.19 610.882C1036.5 606.442 1041.27 603.706 1045.59 601.443C1049.13 599.591 1050.87 598.678 1052.68 596.295C1054.93 593.381 1055.84 589.335 1056.16 585.696C1055.28 570.377 1050.16 555.604 1041.36 543.036C1033.66 532.121 1025.11 523.134 1012.86 518.285Z" stroke="url(#paint30_linear)" stroke-width="2" stroke-miterlimit="10"/>
    <path d="M1003.57 524.953C994.523 521.445 987.649 521.624 974.862 521.596C965.095 521.569 958.707 523.135 955.895 523.55C954.556 523.431 953.485 523.389 952.482 523.28C946.337 522.613 941.773 521.312 933.196 518.029C928.316 516.152 923.947 514.543 919.195 512.914C918.618 512.722 918.037 512.551 917.467 512.349C912.945 510.751 908.311 509.18 902.108 508.026C892.461 506.232 886.329 502.158 876.274 504.245C872.614 505.003 867.555 507.9 863.871 512.054C860.921 515.363 858.816 516.601 856.415 523.316C854.647 528.29 852.474 530.691 850.657 532.985C848.656 535.512 846.994 536.765 844.364 540.677C839.859 547.365 839.006 554.221 839.651 561.098C840.335 568.455 843.481 575.006 846.831 579.119C847.122 579.475 847.375 579.805 847.63 580.071C852.799 585.412 857.106 585.994 868.527 592.935C871.28 594.607 874.842 596.588 878.441 598.689C882.77 601.213 885.779 602.432 889.652 605.681C892.01 607.689 894.033 610.062 895.641 612.71C897.285 615.371 898.194 617.689 899.308 619.949C901.62 624.691 902.344 629.194 905.02 637.1C905.313 637.974 905.67 638.855 906.061 639.756C913.535 657.07 915.368 663.402 921.88 668.108C932.159 675.522 947.04 672.977 955.744 670.65C958.443 669.932 960.851 669.192 962.666 668.601C967.2 667.126 971.556 665.151 975.653 662.714C984.205 657.679 990.768 651.128 997.813 643.985C1002.27 639.469 1007.63 633.289 1011.28 626.275C1013.25 622.486 1014.61 620.035 1016.8 616.274C1018.88 612.663 1020.79 609.684 1023.27 607.031C1026.85 603.185 1030.56 600.488 1033.91 598.166C1036.52 596.366 1037.93 595.212 1039.32 593.074C1041 590.493 1041.74 587.151 1041.99 584.038C1041.6 569.779 1036.39 556.443 1029.13 546.362C1022.35 536.952 1014.4 529.196 1003.57 524.953Z" stroke="url(#paint31_linear)" stroke-width="2" stroke-miterlimit="10"/>
    <path d="M994.27 531.622C986.103 528.514 979.179 528.452 969.951 528.804C961.869 529.111 956.281 530.89 953.925 531.491C952.868 531.483 951.927 531.51 951.008 531.477C945.865 531.337 941.059 530.672 934.048 528.583C929.99 527.374 926.107 526.138 922.006 524.669C921.519 524.495 921.033 524.335 920.556 524.154C916.147 522.496 912.156 520.717 907.765 519.085C899.724 516.129 894.857 511.796 885.811 512.426C882.534 512.657 878.384 514.256 874.937 516.623C871.983 518.652 869.432 519.745 866.893 523.916C865.043 526.951 863.066 528.835 861.387 530.804C859.759 532.708 858.366 534.067 856.603 536.842C852.782 542.851 852.218 549.377 853.152 555.656C854.118 562.145 857.112 567.994 860.511 571.806C860.778 572.102 861.039 572.402 861.285 572.64C866.505 577.712 870.445 576.974 880.841 583.642C882.906 584.967 885.915 586.898 889.17 589.253C892.477 591.647 895.293 593.696 898.323 597.076C900.155 599.132 901.711 601.418 902.95 603.878C904.007 606.033 904.871 608.277 905.533 610.584C906.826 614.686 906.925 618.594 908.924 626.296C909.124 627.072 909.365 627.87 909.649 628.691C914.474 643.451 916.071 649.833 921.787 654.331C930.808 661.42 944.551 659.06 952.912 656.777C955.496 656.067 957.714 655.346 959.279 654.819C963.446 653.421 967.446 651.565 971.205 649.287C978.802 644.718 984.828 638.805 991.645 632.017C995.749 627.935 1000.09 623.175 1003.42 618.189C1005.34 615.327 1006.9 613.224 1008.79 610.482C1010.5 607.932 1012.36 605.484 1014.35 603.15C1017.21 599.896 1019.88 597.269 1022.25 594.861C1023.76 593.403 1025.01 591.698 1025.95 589.819C1027.04 587.468 1027.68 584.93 1027.82 582.342C1027.92 570.501 1023.64 558.81 1016.89 549.647C1011.03 541.782 1003.7 535.233 994.27 531.622Z" stroke="url(#paint32_linear)" stroke-width="2" stroke-miterlimit="10"/>
    <path d="M955.801 641.093C968.162 636.793 975.571 629.732 985.404 620.14C1003.67 602.333 1012.8 593.43 1013.62 580.781C1014.71 563.98 1003.21 545.054 984.97 538.282C969.492 532.531 955.552 537.915 951.94 539.439C945.094 540.261 935.209 540.444 924.789 536.44C910.039 530.793 907.31 521.859 895.277 520.644C886.343 519.741 874.285 523.303 868.792 533.046C862.734 543.784 867.192 557.539 874.139 564.53C879.837 570.263 883.376 567.588 893.095 574.377C896.311 576.628 905.8 583.433 910.198 595.069C913.131 602.831 910.614 604.322 913.141 617.675C915.458 629.91 916.666 636.296 921.606 640.602C931.766 649.478 950.237 643.049 955.801 641.093Z" stroke="url(#paint33_linear)" stroke-width="2" stroke-miterlimit="10"/>
    <defs>
        <linearGradient id="paint0_linear" x1="1326.59" y1="322.388" x2="491.883" y2="912.817" gradientUnits="userSpaceOnUse">
            <stop offset="0.0729167" stop-color="#CCACFF"/>
            <stop offset="0.364583" stop-color="#D5D7E2"/>
            <stop offset="0.8125" stop-color="#E6FAFF"/>
            <stop offset="0.947917" stop-color="#BCF0F8"/>
        </linearGradient>
        <linearGradient id="paint1_linear" x1="1316.47" y1="328.917" x2="504.388" y2="903.347" gradientUnits="userSpaceOnUse">
            <stop offset="0.0729167" stop-color="#CCACFF"/>
            <stop offset="0.364583" stop-color="#D5D7E2"/>
            <stop offset="0.8125" stop-color="#E6FAFF"/>
            <stop offset="0.947917" stop-color="#BCF0F8"/>
        </linearGradient>
        <linearGradient id="paint2_linear" x1="1306.35" y1="335.427" x2="516.852" y2="893.879" gradientUnits="userSpaceOnUse">
            <stop offset="0.0729167" stop-color="#CCACFF"/>
            <stop offset="0.364583" stop-color="#D5D7E2"/>
            <stop offset="0.8125" stop-color="#E6FAFF"/>
            <stop offset="0.947917" stop-color="#BCF0F8"/>
        </linearGradient>
        <linearGradient id="paint3_linear" x1="1296.23" y1="341.962" x2="529.345" y2="884.417" gradientUnits="userSpaceOnUse">
            <stop offset="0.0729167" stop-color="#CCACFF"/>
            <stop offset="0.364583" stop-color="#D5D7E2"/>
            <stop offset="0.8125" stop-color="#E6FAFF"/>
            <stop offset="0.947917" stop-color="#BCF0F8"/>
        </linearGradient>
        <linearGradient id="paint4_linear" x1="1286.12" y1="348.508" x2="541.816" y2="874.995" gradientUnits="userSpaceOnUse">
            <stop offset="0.0729167" stop-color="#CCACFF"/>
            <stop offset="0.364583" stop-color="#D5D7E2"/>
            <stop offset="0.8125" stop-color="#E6FAFF"/>
            <stop offset="0.947917" stop-color="#BCF0F8"/>
        </linearGradient>
        <linearGradient id="paint5_linear" x1="1276" y1="355.022" x2="554.299" y2="865.518" gradientUnits="userSpaceOnUse">
            <stop offset="0.0729167" stop-color="#CCACFF"/>
            <stop offset="0.364583" stop-color="#D5D7E2"/>
            <stop offset="0.8125" stop-color="#E6FAFF"/>
            <stop offset="0.947917" stop-color="#BCF0F8"/>
        </linearGradient>
        <linearGradient id="paint6_linear" x1="1265.88" y1="361.534" x2="566.768" y2="856.055" gradientUnits="userSpaceOnUse">
            <stop offset="0.0729167" stop-color="#CCACFF"/>
            <stop offset="0.364583" stop-color="#D5D7E2"/>
            <stop offset="0.8125" stop-color="#E6FAFF"/>
            <stop offset="0.947917" stop-color="#BCF0F8"/>
        </linearGradient>
        <linearGradient id="paint7_linear" x1="1255.76" y1="368.054" x2="579.253" y2="846.583" gradientUnits="userSpaceOnUse">
            <stop offset="0.0729167" stop-color="#CCACFF"/>
            <stop offset="0.364583" stop-color="#D5D7E2"/>
            <stop offset="0.8125" stop-color="#E6FAFF"/>
            <stop offset="0.947917" stop-color="#BCF0F8"/>
        </linearGradient>
        <linearGradient id="paint8_linear" x1="1245.65" y1="374.595" x2="591.739" y2="837.142" gradientUnits="userSpaceOnUse">
            <stop offset="0.0729167" stop-color="#CCACFF"/>
            <stop offset="0.364583" stop-color="#D5D7E2"/>
            <stop offset="0.8125" stop-color="#E6FAFF"/>
            <stop offset="0.947917" stop-color="#BCF0F8"/>
        </linearGradient>
        <linearGradient id="paint9_linear" x1="1235.52" y1="381.099" x2="604.196" y2="827.67" gradientUnits="userSpaceOnUse">
            <stop offset="0.0729167" stop-color="#CCACFF"/>
            <stop offset="0.364583" stop-color="#D5D7E2"/>
            <stop offset="0.8125" stop-color="#E6FAFF"/>
            <stop offset="0.947917" stop-color="#BCF0F8"/>
        </linearGradient>
        <linearGradient id="paint10_linear" x1="1225.4" y1="387.616" x2="616.66" y2="818.213" gradientUnits="userSpaceOnUse">
            <stop offset="0.0729167" stop-color="#CCACFF"/>
            <stop offset="0.364583" stop-color="#D5D7E2"/>
            <stop offset="0.8125" stop-color="#E6FAFF"/>
            <stop offset="0.947917" stop-color="#BCF0F8"/>
        </linearGradient>
        <linearGradient id="paint11_linear" x1="1215.26" y1="394.138" x2="629.14" y2="808.728" gradientUnits="userSpaceOnUse">
            <stop offset="0.0729167" stop-color="#CCACFF"/>
            <stop offset="0.364583" stop-color="#D5D7E2"/>
            <stop offset="0.8125" stop-color="#E6FAFF"/>
            <stop offset="0.947917" stop-color="#BCF0F8"/>
        </linearGradient>
        <linearGradient id="paint12_linear" x1="1205.11" y1="400.643" x2="641.557" y2="799.273" gradientUnits="userSpaceOnUse">
            <stop offset="0.0729167" stop-color="#CCACFF"/>
            <stop offset="0.364583" stop-color="#D5D7E2"/>
            <stop offset="0.8125" stop-color="#E6FAFF"/>
            <stop offset="0.947917" stop-color="#BCF0F8"/>
        </linearGradient>
        <linearGradient id="paint13_linear" x1="1194.98" y1="407.151" x2="654.007" y2="789.809" gradientUnits="userSpaceOnUse">
            <stop offset="0.0729167" stop-color="#CCACFF"/>
            <stop offset="0.364583" stop-color="#D5D7E2"/>
            <stop offset="0.8125" stop-color="#E6FAFF"/>
            <stop offset="0.947917" stop-color="#BCF0F8"/>
        </linearGradient>
        <linearGradient id="paint14_linear" x1="1184.83" y1="413.612" x2="666.428" y2="780.303" gradientUnits="userSpaceOnUse">
            <stop offset="0.0729167" stop-color="#CCACFF"/>
            <stop offset="0.364583" stop-color="#D5D7E2"/>
            <stop offset="0.8125" stop-color="#E6FAFF"/>
            <stop offset="0.947917" stop-color="#BCF0F8"/>
        </linearGradient>
        <linearGradient id="paint15_linear" x1="1174.71" y1="420.118" x2="678.875" y2="770.846" gradientUnits="userSpaceOnUse">
            <stop offset="0.0729167" stop-color="#CCACFF"/>
            <stop offset="0.364583" stop-color="#D5D7E2"/>
            <stop offset="0.8125" stop-color="#E6FAFF"/>
            <stop offset="0.947917" stop-color="#BCF0F8"/>
        </linearGradient>
        <linearGradient id="paint16_linear" x1="1164.57" y1="426.609" x2="691.298" y2="761.377" gradientUnits="userSpaceOnUse">
            <stop offset="0.0729167" stop-color="#CCACFF"/>
            <stop offset="0.364583" stop-color="#D5D7E2"/>
            <stop offset="0.8125" stop-color="#E6FAFF"/>
            <stop offset="0.947917" stop-color="#BCF0F8"/>
        </linearGradient>
        <linearGradient id="paint17_linear" x1="1154.45" y1="433.083" x2="703.744" y2="751.893" gradientUnits="userSpaceOnUse">
            <stop offset="0.0729167" stop-color="#CCACFF"/>
            <stop offset="0.364583" stop-color="#D5D7E2"/>
            <stop offset="0.8125" stop-color="#E6FAFF"/>
            <stop offset="0.947917" stop-color="#BCF0F8"/>
        </linearGradient>
        <linearGradient id="paint18_linear" x1="1144.27" y1="439.551" x2="716.096" y2="742.422" gradientUnits="userSpaceOnUse">
            <stop offset="0.0729167" stop-color="#CCACFF"/>
            <stop offset="0.364583" stop-color="#D5D7E2"/>
            <stop offset="0.8125" stop-color="#E6FAFF"/>
            <stop offset="0.947917" stop-color="#BCF0F8"/>
        </linearGradient>
        <linearGradient id="paint19_linear" x1="1134.15" y1="446.053" x2="728.496" y2="732.991" gradientUnits="userSpaceOnUse">
            <stop offset="0.0729167" stop-color="#CCACFF"/>
            <stop offset="0.364583" stop-color="#D5D7E2"/>
            <stop offset="0.8125" stop-color="#E6FAFF"/>
            <stop offset="0.947917" stop-color="#BCF0F8"/>
        </linearGradient>
        <linearGradient id="paint20_linear" x1="1124.01" y1="452.462" x2="740.87" y2="723.476" gradientUnits="userSpaceOnUse">
            <stop offset="0.0729167" stop-color="#CCACFF"/>
            <stop offset="0.364583" stop-color="#D5D7E2"/>
            <stop offset="0.8125" stop-color="#E6FAFF"/>
            <stop offset="0.947917" stop-color="#BCF0F8"/>
        </linearGradient>
        <linearGradient id="paint21_linear" x1="1113.83" y1="458.876" x2="753.205" y2="713.969" gradientUnits="userSpaceOnUse">
            <stop offset="0.0729167" stop-color="#CCACFF"/>
            <stop offset="0.364583" stop-color="#D5D7E2"/>
            <stop offset="0.8125" stop-color="#E6FAFF"/>
            <stop offset="0.947917" stop-color="#BCF0F8"/>
        </linearGradient>
        <linearGradient id="paint22_linear" x1="1103.71" y1="465.323" x2="765.534" y2="704.532" gradientUnits="userSpaceOnUse">
            <stop offset="0.0729167" stop-color="#CCACFF"/>
            <stop offset="0.364583" stop-color="#D5D7E2"/>
            <stop offset="0.8125" stop-color="#E6FAFF"/>
            <stop offset="0.947917" stop-color="#BCF0F8"/>
        </linearGradient>
        <linearGradient id="paint23_linear" x1="1093.52" y1="471.722" x2="777.854" y2="695.009" gradientUnits="userSpaceOnUse">
            <stop offset="0.0729167" stop-color="#CCACFF"/>
            <stop offset="0.364583" stop-color="#D5D7E2"/>
            <stop offset="0.8125" stop-color="#E6FAFF"/>
            <stop offset="0.947917" stop-color="#BCF0F8"/>
        </linearGradient>
        <linearGradient id="paint24_linear" x1="1083.35" y1="478.088" x2="790.061" y2="685.548" gradientUnits="userSpaceOnUse">
            <stop offset="0.0729167" stop-color="#CCACFF"/>
            <stop offset="0.364583" stop-color="#D5D7E2"/>
            <stop offset="0.8125" stop-color="#E6FAFF"/>
            <stop offset="0.947917" stop-color="#BCF0F8"/>
        </linearGradient>
        <linearGradient id="paint25_linear" x1="1073.14" y1="484.431" x2="802.229" y2="676.063" gradientUnits="userSpaceOnUse">
            <stop offset="0.0729167" stop-color="#CCACFF"/>
            <stop offset="0.364583" stop-color="#D5D7E2"/>
            <stop offset="0.8125" stop-color="#E6FAFF"/>
            <stop offset="0.947917" stop-color="#BCF0F8"/>
        </linearGradient>
        <linearGradient id="paint26_linear" x1="1062.99" y1="490.802" x2="814.42" y2="666.629" gradientUnits="userSpaceOnUse">
            <stop offset="0.0729167" stop-color="#CCACFF"/>
            <stop offset="0.364583" stop-color="#D5D7E2"/>
            <stop offset="0.8125" stop-color="#E6FAFF"/>
            <stop offset="0.947917" stop-color="#BCF0F8"/>
        </linearGradient>
        <linearGradient id="paint27_linear" x1="1052.78" y1="497.11" x2="826.568" y2="657.121" gradientUnits="userSpaceOnUse">
            <stop offset="0.0729167" stop-color="#CCACFF"/>
            <stop offset="0.364583" stop-color="#D5D7E2"/>
            <stop offset="0.8125" stop-color="#E6FAFF"/>
            <stop offset="0.947917" stop-color="#BCF0F8"/>
        </linearGradient>
        <linearGradient id="paint28_linear" x1="1042.59" y1="503.409" x2="838.715" y2="647.621" gradientUnits="userSpaceOnUse">
            <stop offset="0.0729167" stop-color="#CCACFF"/>
            <stop offset="0.364583" stop-color="#D5D7E2"/>
            <stop offset="0.8125" stop-color="#E6FAFF"/>
            <stop offset="0.947917" stop-color="#BCF0F8"/>
        </linearGradient>
        <linearGradient id="paint29_linear" x1="1032.42" y1="509.635" x2="850.843" y2="638.073" gradientUnits="userSpaceOnUse">
            <stop offset="0.0729167" stop-color="#CCACFF"/>
            <stop offset="0.364583" stop-color="#D5D7E2"/>
            <stop offset="0.8125" stop-color="#E6FAFF"/>
            <stop offset="0.947917" stop-color="#BCF0F8"/>
        </linearGradient>
        <linearGradient id="paint30_linear" x1="1022.14" y1="515.866" x2="862.893" y2="628.512" gradientUnits="userSpaceOnUse">
            <stop offset="0.0729167" stop-color="#CCACFF"/>
            <stop offset="0.364583" stop-color="#D5D7E2"/>
            <stop offset="0.8125" stop-color="#E6FAFF"/>
            <stop offset="0.947917" stop-color="#BCF0F8"/>
        </linearGradient>
        <linearGradient id="paint31_linear" x1="1011.84" y1="521.921" x2="874.845" y2="618.828" gradientUnits="userSpaceOnUse">
            <stop offset="0.0729167" stop-color="#CCACFF"/>
            <stop offset="0.364583" stop-color="#D5D7E2"/>
            <stop offset="0.8125" stop-color="#E6FAFF"/>
            <stop offset="0.947917" stop-color="#BCF0F8"/>
        </linearGradient>
        <linearGradient id="paint32_linear" x1="1001.32" y1="527.605" x2="886.497" y2="608.822" gradientUnits="userSpaceOnUse">
            <stop offset="0.0729167" stop-color="#CCACFF"/>
            <stop offset="0.364583" stop-color="#D5D7E2"/>
            <stop offset="0.8125" stop-color="#E6FAFF"/>
            <stop offset="0.947917" stop-color="#BCF0F8"/>
        </linearGradient>
        <linearGradient id="paint33_linear" x1="989.906" y1="532.197" x2="892.921" y2="600.8" gradientUnits="userSpaceOnUse">
            <stop offset="0.0729167" stop-color="#CCACFF"/>
            <stop offset="0.364583" stop-color="#D5D7E2"/>
            <stop offset="0.8125" stop-color="#E6FAFF"/>
            <stop offset="0.947917" stop-color="#BCF0F8"/>
        </linearGradient>
    </defs>
</svg>
