<svg xmlns="http://www.w3.org/2000/svg" xmlns:xlink="http://www.w3.org/1999/xlink" width="860.66" height="1325.74" viewBox="0 0 860.66 1325.74"><defs><style>.a,.b,.c,.d,.e,.f,.g,.h,.i,.j,.k,.l,.m,.n,.o,.p,.q,.r,.s,.t,.u,.v,.w,.x,.y{fill:none;stroke-miterlimit:10;stroke-width:2px;}.a{stroke:url(#a);}.b{stroke:url(#b);}.c{stroke:url(#c);}.d{stroke:url(#d);}.e{stroke:url(#e);}.f{stroke:url(#f);}.g{stroke:url(#g);}.h{stroke:url(#h);}.i{stroke:url(#i);}.j{stroke:url(#j);}.k{stroke:url(#k);}.l{stroke:url(#l);}.m{stroke:url(#m);}.n{stroke:url(#n);}.o{stroke:url(#o);}.p{stroke:url(#p);}.q{stroke:url(#q);}.r{stroke:url(#r);}.s{stroke:url(#s);}.t{stroke:url(#t);}.u{stroke:url(#u);}.v{stroke:url(#v);}.w{stroke:url(#w);}.x{stroke:url(#x);}.y{stroke:url(#y);}</style><linearGradient id="a" x1="-684.85" y1="1174.6" x2="288.5" y2="684.55" gradientTransform="matrix(1, 0, 0, -1, 0, 1874)" gradientUnits="userSpaceOnUse"><stop offset="0.61" stop-color="#b88dfc"/><stop offset="0.95" stop-color="#95dde8"/></linearGradient><linearGradient id="b" x1="-673.43" y1="1168.78" x2="273.54" y2="692.01" xlink:href="#a"/><linearGradient id="c" x1="-662.02" y1="1162.94" x2="258.61" y2="699.43" xlink:href="#a"/><linearGradient id="d" x1="-650.6" y1="1157.1" x2="243.66" y2="706.87" xlink:href="#a"/><linearGradient id="e" x1="-638.27" y1="1150.84" x2="229.66" y2="713.87" xlink:href="#a"/><linearGradient id="f" x1="-626.86" y1="1145" x2="214.71" y2="721.3" xlink:href="#a"/><linearGradient id="g" x1="-615.46" y1="1139.16" x2="199.78" y2="728.71" xlink:href="#a"/><linearGradient id="h" x1="-604.04" y1="1133.33" x2="184.84" y2="736.16" xlink:href="#a"/><linearGradient id="i" x1="-592.61" y1="1127.52" x2="169.92" y2="743.61" xlink:href="#a"/><linearGradient id="j" x1="-581.21" y1="1121.65" x2="154.98" y2="751.01" xlink:href="#a"/><linearGradient id="k" x1="-569.8" y1="1115.82" x2="140.06" y2="758.44" xlink:href="#a"/><linearGradient id="l" x1="-558.36" y1="1109.97" x2="125.11" y2="765.87" xlink:href="#a"/><linearGradient id="m" x1="-546.96" y1="1104.09" x2="110.2" y2="773.23" xlink:href="#a"/><linearGradient id="n" x1="-535.55" y1="1098.24" x2="95.28" y2="780.65" xlink:href="#a"/><linearGradient id="o" x1="-524.17" y1="1092.35" x2="80.33" y2="788" xlink:href="#a"/><linearGradient id="p" x1="-512.76" y1="1086.53" x2="65.43" y2="795.43" xlink:href="#a"/><linearGradient id="q" x1="-501.36" y1="1080.67" x2="50.52" y2="802.81" xlink:href="#a"/><linearGradient id="r" x1="-489.98" y1="1074.83" x2="35.59" y2="810.22" xlink:href="#a"/><linearGradient id="s" x1="-478.58" y1="1068.92" x2="20.71" y2="817.54" xlink:href="#a"/><linearGradient id="t" x1="-467.17" y1="1063.1" x2="5.86" y2="824.95" xlink:href="#a"/><linearGradient id="u" x1="-455.83" y1="1057.22" x2="-9.05" y2="832.29" xlink:href="#a"/><linearGradient id="v" x1="-444.47" y1="1051.32" x2="-23.94" y2="839.6" xlink:href="#a"/><linearGradient id="w" x1="-433.1" y1="1045.5" x2="-38.75" y2="846.96" xlink:href="#a"/><linearGradient id="x" x1="-421.74" y1="1039.59" x2="-53.64" y2="854.26" xlink:href="#a"/><linearGradient id="y" x1="-410.4" y1="1033.71" x2="-68.4" y2="861.52" xlink:href="#a"/></defs><path class="a" d="M-381.25,226c-78.57,64-127.08,136.71-154.34,184.67-39.69,69.82-71.68,126.11-74.66,204.54-2,52.42,11.3,53.77,40,212.19,23.14,127.88,20.1,157.9,18.18,172-7.38,54.91-22.81,61-41.23,151.27-11.16,54.69-17.42,86.81-11.08,126.08,1.67,10.33,7.8,43.39,51,106.86,42.6,62.62,74.37,109.3,132.17,136.87,21.88,10.43,74.32,35.46,134.1,14.9,41.46-14.24,42-35.13,122.28-79.75,60.51-33.62,81.12-33.38,94.49-31.1,25.65,4.37,27.69,16.73,74.34,36.1,35.72,14.84,55.18,22.91,81.55,19,41.61-6.23,69.26-37.73,74.48-43.87a190.06,190.06,0,0,0,44-111.7c1.86-35.88-6.94-63.42-11.54-77.4-15.48-47-32.82-46.28-44.23-82.77-10.31-33-5.42-63.75,4.8-123.91,9.33-55,21.18-95.33,30.35-125.93C238.63,729.69,249,725.15,248.18,680.29c-1.22-69.16-27-126.22-37.09-148.53-7.68-17-21.09-46.16-45.91-74.76-32.44-37.37-65.11-51.61-86.92-60.79C55.8,386.76-4.62,362.38-74.69,384c-31.92,9.87-42,21.93-79.82,27.3-31,4.39-54,7.67-76.75-7.9-30.21-20.69-45.51-64.84-59.25-104.5-13-37.57-12.85-54.07-27-67.34C-336.25,214-362.2,219-381.25,226Z" transform="translate(611.44 -218.58)"/><path class="b" d="M-600.68,623.36c-1.92,51.12,11,52.71,38.91,206.53,14.15,77.93,18.34,118.52,19,141.31a149.12,149.12,0,0,1-1.12,26c-7.1,53.39-22,59.51-39.84,147.24-9.52,46.89-15.34,76.78-12.38,109.41.4,4.37,1,8.8,1.68,13.32,1.61,10.21,7.53,42.42,49.39,104.1,41.25,61,72,106.49,128.09,133.53,21.24,10.23,72.14,34.6,130.15,14.79,40.26-13.71,40.81-33.87,118.77-77.06,58.73-32.55,78.77-32.27,91.8-30,24.9,4.26,26.95,16.28,72.24,35.06,34.83,14.42,53.88,22.18,79.6,18.22,34.57-5.29,59.26-28.47,68.94-39,1.65-1.8,2.87-3.21,3.62-4.09a187,187,0,0,0,42.68-109.16c1.82-34.85-6.66-61.7-11.11-75.38-14.87-45.73-31.74-45.14-42.72-80.66-6.15-19.88-6.64-38.94-3.74-64.45,1.81-15.71,4.88-33.83,8.7-56.08,9.15-53.39,20.73-92.52,29.83-122.35q2.87-9.45,5.56-18.28c49.15-161.2,58.64-166.93,58-209.14-1.08-67.44-26.28-123.22-36.2-145.12-3.21-7.09-7.42-16.28-13-26.63a258.45,258.45,0,0,0-31.88-46.38c-31.64-36.43-63.53-50.36-84.94-59.41-21.92-9.24-80.64-33-148.7-12-31,9.53-40.88,21.19-77.62,26.36-30.13,4.23-52.52,7.38-74.62-7.75-29.4-20.1-44.31-62.93-57.73-101.41-12.68-36.44-12.58-52.43-26.34-65.29-18.26-17.08-43.47-12.2-62-5.34-76.48,62.21-123.78,133-150.37,179.82C-566.69,492.05-597.81,547-600.68,623.36Z" transform="translate(611.44 -218.58)"/><path class="c" d="M-591.11,631.46c-1.86,49.87,10.75,51.66,37.84,200.9,13.8,75.72,18,115.21,18.68,137.34A146.3,146.3,0,0,1-535.65,995c-6.74,51.89-21.21,58-38.44,143.2-9.19,45.54-14.84,74.64-12,106.39.39,4.26.94,8.56,1.63,13,1.59,10.07,7.28,41.44,47.79,101.32,39.91,59.41,69.58,103.69,124,130.21,20.6,10,69.95,33.75,126.2,14.67,39.05-13.19,39.64-32.62,115.24-74.39,57-31.45,76.45-31.13,89.14-28.92,24.18,4.15,26.22,15.81,70.15,34,33.93,14,52.57,21.43,77.63,17.48,33.64-5.26,57.65-27.94,67.12-38.27,1.61-1.77,2.79-3.14,3.52-4a183.58,183.58,0,0,0,41.43-106.57c1.77-33.83-6.38-60-10.68-73.37-14.27-44.48-30.65-44-41.21-78.54-5.91-19.34-6.33-37.88-3.47-62.66,1.82-15.3,4.85-32.89,8.6-54.48,9-51.79,20.37-89.72,29.3-118.8q2.82-9.16,5.44-17.75c47.93-156.44,57.29-162.12,56.71-203.29-.94-65.72-25.55-120.22-35.33-141.71-3.16-7-7.28-15.92-12.75-26a252.59,252.59,0,0,0-31.14-45.26c-30.84-35.48-62-49.1-83-58-21.4-9.06-78.4-32.1-144.46-11.88-30.12,9.2-39.75,20.43-75.41,25.41-29.26,4.07-51,7.07-72.5-7.6-28.59-19.51-43.14-61-56.22-98.33-12.34-35.31-12.3-50.81-25.69-63.26-17.75-16.51-42.23-11.79-60.24-5.13-74.35,60.38-120.43,129.22-146.37,175C-558.1,503.56-588.32,557.1-591.11,631.46Z" transform="translate(611.44 -218.58)"/><path class="d" d="M-581.55,639.59c-1.8,48.58,10.47,50.62,36.79,195.22,13.46,73.52,17.6,111.88,18.33,133.38a143.9,143.9,0,0,1-1,24.58c-6.43,50.39-20.42,56.48-37.06,139.17-8.88,44.22-14.33,72.53-11.56,103.42.38,4.14.92,8.32,1.58,12.6,1.54,9.94,7.13,40.31,46.2,98.56,38.67,57.66,67.19,100.88,119.93,126.87,19.95,9.82,67.76,32.9,122.26,14.56,37.84-12.65,38.49-31.35,111.73-71.69,55.16-30.4,74.08-30,86.42-27.87,23.45,4,25.48,15.35,68.06,33,33,13.58,51.25,20.69,75.67,16.71,32.72-5.23,56.07-27.39,65.3-37.57,1.56-1.71,2.72-3,3.42-3.92a180.29,180.29,0,0,0,40.16-104c1.74-32.81-6.1-58.27-10.24-71.36-13.66-43.24-29.56-42.85-39.7-76.43-5.68-18.8-6.08-36.82-3.19-60.87,1.78-14.87,4.8-32,8.48-52.88,8.78-50.19,20-86.88,28.78-115.24,1.85-5.92,3.6-11.67,5.33-17.22,46.72-151.69,56-157.34,55.47-197.43-.8-64-24.82-117.23-34.43-138.31-3.11-6.81-7.13-15.58-12.46-25.35a246.18,246.18,0,0,0-30.42-44.15c-30-34.53-60.4-47.86-81-56.65C30.49,427.88-24.83,405.48-88.88,425c-29.25,8.84-38.62,19.69-73.21,24.47-28.4,3.89-49.53,6.77-70.37-7.47-27.76-18.93-41.94-59.14-54.69-95.23-12-34.18-12-49.18-25-61.23-17.25-16-41-11.38-58.5-4.91C-442.91,339.19-487.75,406.07-513,450.76-549.51,515.08-578.84,567.23-581.55,639.59Z" transform="translate(611.44 -218.58)"/><path class="e" d="M-572,647.67c-1.74,47.31,10.21,49.55,35.73,189.57,13.1,71.32,17.23,108.57,18,129.42a143.64,143.64,0,0,1-.91,23.85c-6.11,48.88-19.62,55-35.67,135.14-8.57,42.89-13.82,70.4-11.13,100.43.34,4,.88,8.08,1.52,12.23,1.5,9.81,6.91,39.29,44.59,95.79,37.36,56,64.8,98.07,115.85,123.54,19.31,9.61,65.56,32,118.33,14.43,36.64-12.12,37.33-30.09,108.21-69,53.39-29.33,71.73-28.93,83.73-26.8,22.73,3.94,24.75,14.89,66,32,32.13,13.16,50,20,73.71,16,31.79-5.2,54.48-26.85,63.49-36.86,1.51-1.67,2.63-3,3.33-3.81a176.6,176.6,0,0,0,38.89-101.43c1.75-31.79-5.83-56.55-9.81-69.34-13.06-42-28.47-41.72-38.19-74.32-5.44-18.25-5.79-35.77-2.92-59.09,1.79-14.47,4.76-31,8.38-51.27,8.59-48.59,19.54-84.07,28.26-111.68,1.81-5.74,3.52-11.32,5.2-16.7,45.81-146.78,54.64-152.54,54.25-191.57-.65-62.33-24.1-114.23-33.57-134.91-3.05-6.67-7-15.19-12.17-24.72a240.72,240.72,0,0,0-29.69-43c-29.26-33.59-58.81-46.6-79-55.25s-73.92-30.37-136-11.6c-28.35,8.5-37.49,18.95-71,23.53-27.52,3.73-48,6.47-68.25-7.3-26.95-18.35-40.75-57.25-53.17-92.15-11.68-33.05-11.74-47.54-24.38-59.17-16.73-15.45-39.77-11-56.74-4.69-70.14,56.74-113.77,121.71-138.39,165.28C-540.93,526.59-569.36,577.38-572,647.67Z" transform="translate(611.44 -218.58)"/><path class="f" d="M-562.4,655.78c-1.68,46,9.93,48.49,34.66,183.91C-515,908.81-510.87,945-510.1,965.14a138.43,138.43,0,0,1-.85,23.13c-5.79,47.37-18.81,53.46-34.26,131.11-8.25,41.56-13.31,68.28-10.72,97.45.35,3.9.86,7.83,1.47,11.86,1.46,9.68,6.7,38.27,43,93,36.06,54.37,62.41,95.26,111.77,120.2,18.68,9.41,63.38,31.22,114.36,14.35,35.44-11.58,36.18-28.84,104.69-66.31,51.61-28.25,69.39-27.79,81.05-25.72,22,3.9,24,14.43,63.88,30.9,31.24,12.75,48.63,19.15,71.76,15.21,30.85-5.26,52.88-26.29,61.66-36.15,1.46-1.64,2.55-2.91,3.22-3.74a173.16,173.16,0,0,0,37.63-98.86c1.7-30.77-5.56-54.84-9.38-67.34-12.46-40.74-27.39-40.56-36.68-72.2-5.21-17.72-5.51-34.71-2.65-57.3,1.78-14.06,4.73-30.08,8.27-49.67,8.39-47,19.12-81.25,27.72-108.11,1.78-5.55,3.46-11,5.1-16.18,44.68-142,53.31-147.75,53-185.71-.5-60.62-23.37-111.24-32.67-131.49-3-6.54-6.85-14.85-11.88-24.09a234.94,234.94,0,0,0-29-41.91c-28.46-32.65-57.23-45.35-77-53.88S-38.28,434.2-98.32,452.25c-27.47,8.16-36.37,18.21-68.79,22.6-26.65,3.55-46.53,6.17-66.13-7.16-26.14-17.76-39.62-55.31-51.65-89.05-11.38-31.88-11.46-45.91-23.72-57.13-16.23-14.91-38.53-10.58-55-4.49C-431.63,371.94-474,435-498,477.46-532.34,538.11-559.88,587.52-562.4,655.78Z" transform="translate(611.44 -218.58)"/><path class="g" d="M-552.84,663.88c-1.61,44.76,9.68,47.41,33.61,178.26,12.41,66.92,16.49,101.94,17.29,121.48a134.77,134.77,0,0,1-.78,22.41c-5.47,45.87-18,52-32.87,127.08-7.93,40.23-12.79,66.15-10.3,94.45.34,3.78.84,7.59,1.42,11.5,1.42,9.55,6.46,37.24,41.39,90.25,34.74,52.72,60,92.45,107.69,116.87,18,9.18,61.18,30.36,110.42,14.23,34.23-11.06,35-27.58,101.17-63.63,49.83-27.18,67-26.67,78.36-24.64,21.26,3.8,23.25,14.08,61.78,29.87,30.32,12.42,47.33,18.39,69.8,14.46,29.92-5.25,51.28-25.75,59.85-35.44,1.41-1.6,2.48-2.83,3.11-3.63a169.86,169.86,0,0,0,36.36-96.29c1.67-29.74-5.29-53.1-8.95-65.32-11.87-39.48-26.3-39.42-35.17-70.08-5-17.17-5.24-33.67-2.38-55.51,1.78-13.65,4.69-29.14,8.16-48.09,8.22-45.38,18.72-78.44,27.2-104.55,1.76-5.36,3.38-10.6,5-15.66,43.54-137.18,52-143,51.78-179.86C170.73,663.13,148.45,613.8,139.3,594c-3-6.4-6.72-14.49-11.6-23.44a229.38,229.38,0,0,0-28.24-40.82C71.79,498,43.8,485.63,24.4,477.23,5.16,469-45,448.58-103.09,465.91c-26.56,7.83-35.23,17.47-66.56,21.66-25.79,3.39-45,5.86-64-7-25.31-17.17-38.44-53.4-50.13-85.95-11.05-30.75-11.18-44.29-23.07-55.1-15.72-14.36-37.29-10.17-53.24-4.25C-426,388.36-467.23,449.47-490.53,490.84-523.75,549.62-550.41,597.66-552.84,663.88Z" transform="translate(611.44 -218.58)"/><path class="h" d="M-543.26,672c-1.56,43.48,9.39,46.39,32.55,172.61,12,64.71,16.11,98.62,16.93,117.51a136.23,136.23,0,0,1-.7,21.68c-5.16,44.36-17.21,50.44-31.49,123.06-7.61,38.88-12.28,64-9.88,91.46.32,3.67.81,7.35,1.36,11.14,1.39,9.43,6.24,36.21,39.79,87.48,33.44,51.07,57.62,89.64,103.61,113.54,17.4,9,59,29.39,106.48,14.11,33-10.62,33.85-26.32,97.65-60.94,48-26.11,64.69-25.55,75.66-23.57,20.54,3.71,22.51,13.66,59.7,28.84,29.41,12,46,17.64,67.84,13.7,29-5.23,49.69-25.2,58-34.73,1.36-1.56,2.4-2.76,3-3.57a166.54,166.54,0,0,0,35.08-93.71c1.65-28.72-5-51.39-8.51-63.31-11.27-38.23-25.21-38.28-33.66-68-4.74-16.62-4.93-32.61-2.1-53.72,1.77-13.24,4.67-28.19,8-46.48,8.1-43.76,18.31-75.63,26.68-101,1.71-5.18,3.3-10.25,4.87-15.14,42.4-132.38,50.67-138.15,50.54-174-.2-57.21-21.91-105.22-30.9-124.66-2.89-6.27-6.57-14.13-11.3-22.8a223.69,223.69,0,0,0-27.52-39.71c-26.88-30.74-54.07-42.89-73.06-51.11-18.68-8.09-67.2-27.77-123.23-11.17-25.68,7.49-34.12,16.74-64.37,20.73-24.91,3.19-43.54,5.57-61.89-6.87-24.51-16.59-37.26-51.51-48.61-82.89-10.71-29.61-10.9-42.65-22.41-53.06-15.22-13.83-36.06-9.76-51.48-4C-420.35,404.68-460.34,463.88-483,504.15-515.17,561.13-540.93,607.79-543.26,672Z" transform="translate(611.44 -218.58)"/><path class="i" d="M-533.68,680.08c-1.5,42.22,8.92,45.38,31.48,166.95,11.61,62.54,15.74,95.3,16.59,113.54a129.7,129.7,0,0,1-.64,21c-4.84,42.85-16.4,48.92-30.08,119-7.3,37.56-11.77,61.91-9.46,88.47.31,3.55.78,7.11,1.31,10.78,1.33,9.28,6,35.18,38.19,84.7s55.23,86.83,99.52,110.21c16.76,8.8,56.79,28.53,102.53,14,31.8-10.1,32.7-25.06,94.14-58.25,46.26-25,62.34-24.44,73-22.47,19.82,3.61,21.77,13.2,57.6,27.79,28.52,11.62,44.71,16.89,65.89,13,28.06-5.21,48.1-24.64,56.2-34,1.32-1.52,2.3-2.7,2.92-3.48a163.27,163.27,0,0,0,33.82-91.14c1.61-27.7-4.73-49.67-8.08-61.3-10.66-37-24.14-37.12-32.16-65.85-4.49-16.08-4.64-31.54-1.82-51.94,1.77-12.82,4.63-27.25,8-44.88C73.1,974,83.08,943.3,91.34,918.68c1.68-5,3.22-9.88,4.75-14.61,41.27-127.59,49.34-133.37,49.31-168.14-.06-55.51-21.17-102.24-30-121.26-2.85-6.12-6.42-13.78-11-22.17a215.28,215.28,0,0,0-26.8-38.59C51.49,524.12,25.08,512.27,6.5,504.18c-18.15-7.89-64.95-26.77-119-11-24.77,7.21-33,16-62.15,19.78-24.06,3-42,5.27-59.78-6.73-23.68-16-36.07-49.59-47.08-79.77-10.39-28.48-10.62-41-21.76-51-14.71-13.27-34.82-9.36-49.74-3.82C-414.72,421-453.46,478.3-475.45,517.49-506.58,572.65-531.45,617.94-533.68,680.08Z" transform="translate(611.44 -218.58)"/><path class="j" d="M-524.12,688.2c-1.43,40.93,8.63,44.34,30.42,161.3,11.25,60.35,15.39,92,16.24,109.57a127.54,127.54,0,0,1-.56,20.24c-4.53,41.34-15.61,47.41-28.7,115-7,36.25-11.26,59.79-9,85.48.31,3.41.76,6.87,1.26,10.41,1.29,9.15,5.79,34.16,36.59,81.93s52.85,84,95.46,106.89c16.11,8.6,54.58,27.66,98.58,13.88,30.59-9.58,31.54-23.8,90.62-55.56,44.48-24,60-23.31,70.28-21.41,19.09,3.52,21,12.75,55.51,26.75,27.62,11.22,43.4,16.14,63.93,12.21,27.12-5.21,46.5-24.1,54.38-33.32,1.26-1.48,2.25-2.6,2.82-3.39a160,160,0,0,0,32.54-88.57c1.58-26.68-4.44-48-7.65-59.28-10.08-35.71-23-36-30.64-63.75-4.26-15.53-4.36-30.47-1.55-50.15,1.76-12.41,4.6-26.32,7.84-43.28,7.74-40.54,17.47-70,25.62-93.86,1.65-4.81,3.15-9.53,4.64-14.09,40.12-122.81,48-128.58,48.08-162.29.09-53.8-20.44-99.24-29.13-117.85-2.79-6-6.28-13.42-10.73-21.52A210.05,210.05,0,0,0,66.61,566C41.32,537.19,15.68,525.63-2.48,517.7c-17.61-7.71-62.71-25.89-114.75-10.9-23.87,6.87-31.85,15.23-59.95,18.84-23.19,2.87-40.54,5-57.65-6.58-22.86-15.4-34.89-47.68-45.57-76.68-10.05-27.34-10.34-39.39-21.09-49-14.2-12.75-33.6-9-48-3.61-59.6,47.63-97.15,103-118.46,141.06C-498,584.16-522,628.07-524.12,688.2Z" transform="translate(611.44 -218.58)"/><path class="k" d="M-514.55,696.31C-515.92,736-506.22,739.6-485.19,852c10.89,58.15,15,88.67,15.9,105.61a126.16,126.16,0,0,1-.5,19.51C-474,1016.9-484.6,1023-497.1,1088c-6.66,34.9-10.74,57.67-8.62,82.5.29,3.3.74,6.62,1.21,10,1.25,9,5.56,33.16,35,79.16s50.44,81.22,91.37,103.55c15.47,8.39,52.39,26.79,94.62,13.79,29.38-9.06,30.38-22.54,87.11-52.87,42.69-22.89,57.63-22.2,67.59-20.34,18.36,3.43,20.29,12.32,53.42,25.71,26.72,10.81,42.09,15.38,62,11.44,26.2-5.17,44.9-23.55,52.56-32.61,1.2-1.44,2.16-2.53,2.72-3.29,8-10.88,28.49-39.73,31.29-86,1.54-25.66-4.18-46.23-7.22-57.28-9.49-34.45-21.94-34.86-29.14-61.62-4-15-4.07-29.42-1.28-48.36,1.79-12,4.57-25.37,7.74-41.69,7.55-38.92,17.06-67.17,25.1-90.3,1.6-4.62,3.07-9.17,4.52-13.56,39-118,46.69-123.79,46.85-156.44.23-52.09-19.72-96.24-28.24-114.44-2.73-5.84-6.14-13.07-10.45-20.89a203.33,203.33,0,0,0-25.35-36.37c-24.48-27.9-49.33-39.15-67.1-47-17.07-7.5-60.47-25-110.52-10.74-23,6.54-30.71,14.49-57.73,17.89C-202,541-218.74,543-235.22,531.89c-22-14.82-33.71-45.77-44-73.59-9.73-26.2-10.07-37.76-20.45-46.94-13.68-12.2-32.36-8.55-46.23-3.38-57.51,45.79-93.81,99.22-114.48,136.2C-489.4,595.68-512.5,638.21-514.55,696.31Z" transform="translate(611.44 -218.58)"/><path class="l" d="M-505,704.41c-1.31,38.38,8.05,42.23,28.3,150,10.53,56,14.61,85.35,15.54,101.65a119.57,119.57,0,0,1-.43,18.77c-3.9,38.32-14,44.38-25.92,106.92-6.34,33.56-10.23,55.54-8.19,79.5.28,3.19.7,6.39,1.14,9.68,1.2,8.89,5.35,32.13,33.4,76.4,28.2,44.49,48,78.41,87.29,100.2,14.83,8.18,50.2,25.92,90.69,13.66,28.17-8.55,29.22-21.29,83.58-50.19,40.92-21.82,55.29-21.08,64.92-19.25,17.63,3.33,19.55,11.87,51.3,24.67,25.82,10.41,40.79,14.62,60,10.69,25.26-5.17,43.31-23,50.74-31.9,1.17-1.39,2.08-2.46,2.62-3.2,7.78-10.79,27.24-38.53,30-83.44,1.52-24.63-3.89-44.5-6.78-55.26-8.91-33.17-20.87-33.69-27.62-59.51-3.79-14.45-3.78-28.36-1-46.57,1.77-11.59,4.53-24.43,7.63-40.08,7.38-37.33,16.64-64.37,24.57-86.74,1.57-4.44,3-8.8,4.41-13,37.84-113.19,45.37-119,45.61-150.58.38-50.39-19-93.26-27.36-111-2.69-5.71-6-12.71-10.16-20.24a197.28,197.28,0,0,0-24.63-35.26c-23.71-27-47.76-37.91-65.12-45.58-16.53-7.31-58.23-24.12-106.27-10.61-22.09,6.22-29.59,13.83-55.53,17-21.45,2.6-37.55,4.37-53.41-6.29-21.23-14.23-32.53-43.86-42.52-70.5-9.4-25.05-9.8-36.09-19.79-44.89-13.2-11.63-31.13-8.15-44.48-3.17-55.39,44-90.43,95.53-110.51,131.35C-480.74,607.27-503,648.36-505,704.41Z" transform="translate(611.44 -218.58)"/><path class="m" d="M-495.41,712.52c-1.24,37.1,7.74,41.2,27.24,144.33,10.16,53.76,14.26,82,15.19,97.68a120.79,120.79,0,0,1-.35,18.07c-3.59,36.81-13.2,42.87-24.52,102.88-6,32.23-9.72,53.42-7.78,76.51.26,3.07.68,6.15,1.1,9.32,1.16,8.77,5.11,31.1,31.79,73.62,26.89,42.86,45.66,75.6,83.2,96.89,14.2,8,48,25.06,86.75,13.53,27-8,28.07-20,80.08-47.48,39.13-20.74,52.94-20,62.21-18.19,16.9,3.24,18.8,11.42,49.23,23.65,24.92,10,39.47,13.88,58.05,10,24.33-5.16,41.73-22.45,48.92-31.2,1.12-1.36,2-2.39,2.52-3.12,7.58-10.67,26-37.33,28.74-80.86,1.49-23.6-3.62-42.78-6.35-53.25-8.32-31.89-19.77-32.57-26.12-57.4-3.54-13.91-3.48-27.3-.73-44.78,1.75-11.17,4.49-23.49,7.52-38.48,7.2-35.72,16.22-61.55,24-83.18,1.54-4.25,2.92-8.45,4.29-12.52,36.71-108.4,44-114.17,44.39-144.72.52-48.68-18.26-90.25-26.48-107.61-2.63-5.57-5.85-12.36-9.86-19.61A192.1,192.1,0,0,0,33.75,602.4c-22.9-26-46.18-36.65-63.14-44.19-16-7.11-56-23.24-102-10.46-21.19,5.88-28.45,13.09-53.31,16-20.58,2.44-36,4.08-51.29-6.14-20.41-13.64-31.35-42-41-67.39-9.07-23.92-9.52-34.47-19.13-42.87-12.7-11.07-29.89-7.73-42.73-2.94C-392.18,486.58-426,536.2-445.4,570.93-472.14,618.78-493.54,658.49-495.41,712.52Z" transform="translate(611.44 -218.58)"/><path class="n" d="M-485.84,720.62c-1.18,35.83,7.45,40.16,26.18,138.68,9.8,51.56,13.89,78.73,14.84,93.71a118.41,118.41,0,0,1-.28,17.34c-3.28,35.3-12.4,41.36-23.13,98.86-5.71,30.9-9.2,51.29-7.35,73.52.24,3,.64,5.91,1,9,1.11,8.63,4.9,30.07,30.2,70.85,25.57,41.21,43.25,72.79,79.11,93.55,13.56,7.77,45.82,24.22,82.8,13.43,25.76-7.52,26.91-18.76,76.55-44.82,37.36-19.66,50.6-18.84,59.53-17.1,16.16,3.16,18.07,11,47.14,22.61,24,9.61,38.17,13.13,56.09,9.2,23.4-5.13,40.14-21.89,47.11-30.48,1.07-1.32,1.91-2.32,2.41-3,7.37-10.56,24.77-36.12,27.47-78.29,1.46-22.58-3.34-41-5.91-51.24-7.75-30.62-18.69-31.42-24.61-55.28-3.31-13.37-3.2-26.25-.46-43,1.76-10.76,4.46-22.55,7.41-36.88,7-34.12,15.81-58.73,23.53-79.62,1.5-4.07,2.84-8.1,4.18-12C73.56,806,80.72,800.17,81.17,770.69c.67-47-17.53-87.25-25.6-104.2-2.58-5.43-5.71-12-9.58-19a186.28,186.28,0,0,0-23.18-33c-22.1-25.06-44.6-35.41-61.16-42.81-15.46-6.92-53.75-22.36-97.79-10.32-20.29,5.55-27.32,12.35-51.11,15.09-19.72,2.26-34.55,3.75-49.16-6-19.6-13.05-30.17-40.05-39.49-64.32-8.74-22.77-9.24-32.82-18.48-40.82-12.17-10.52-28.65-7.33-41-2.73-51.18,40.35-83.77,88-102.52,121.67C-463.55,630.31-484.07,668.63-485.84,720.62Z" transform="translate(611.44 -218.58)"/><path class="o" d="M-476.28,728.75c-1.12,34.54,7.15,39.1,25.12,133,9.44,49.37,13.51,75.42,14.5,89.75a115.8,115.8,0,0,1-.22,16.61c-3,33.78-11.6,39.86-21.74,94.85-5.39,29.56-8.71,49.16-6.94,70.53.23,2.83.62,5.67,1,8.59,1.09,8.49,4.68,29.07,28.6,68.08,24.27,39.57,40.87,70,75,90.22,12.92,7.57,43.64,23.34,78.85,13.31,24.56-7,25.75-17.5,73-42.12,35.57-18.59,48.24-17.73,56.83-16,15.46,3.06,17.35,10.55,45,21.57,23.12,9.2,36.86,12.38,54.14,8.45,22.47-5.12,38.54-21.35,45.28-29.78,1-1.28,1.83-2.22,2.32-3,7.15-10.45,23.53-34.93,26.2-75.72,1.42-21.56-3.07-39.32-5.49-49.22-7.16-29.34-17.59-30.29-23.09-53.17-3.07-12.83-2.9-25.19-.19-41.22,1.76-10.34,4.43-21.61,7.31-35.28,6.85-32.51,15.4-55.9,23-76,1.47-3.87,2.75-7.73,4.06-11.48,34.41-98.81,41.39-104.61,41.92-133,.81-45.27-16.8-84.25-24.71-100.79C41,671.61,38,665.26,34.28,658.57a179.63,179.63,0,0,0-22.46-31.91c-21.31-24.11-43-34.16-59.18-41.43-14.92-6.72-51.5-21.46-93.53-10.16-19.41,5.21-26.2,11.61-48.9,14.13-18.84,2.1-33.06,3.47-47-5.85-18.78-12.46-29-38.14-38-61.23-8.41-21.63-9-31.19-17.83-38.78-11.68-10-27.42-6.92-39.22-2.51-49.07,38.45-80.44,84.25-98.53,116.79C-455,641.83-474.58,678.77-476.28,728.75Z" transform="translate(611.44 -218.58)"/><path class="p" d="M-466.7,736.84c-1.06,33.26,6.86,38.06,24.06,127.36,9.07,47.17,13.14,72.11,14.15,85.78a113.94,113.94,0,0,1-.15,15.9c-2.66,32.26-10.8,38.32-20.34,90.79-5.07,28.23-8.18,47-6.53,67.55.22,2.72.58,5.42.94,8.23,1,8.38,4.45,28,27,65.32,23,37.93,38.44,67.25,71,86.88,12.27,7.39,41.44,22.47,74.9,13.2,23.34-6.47,24.59-16.24,69.51-39.43,33.8-17.52,45.9-16.61,54.15-15,14.71,3,16.59,10.09,43,20.53,22.22,8.8,35.55,11.62,52.17,7.69,21.54-5.09,37-20.78,43.47-29.06,1-1.24,1.76-2.17,2.22-2.86,6.92-10.36,22.29-33.74,24.93-73.15,1.37-20.55-2.79-37.59-5.05-47.23-6.6-28.05-16.51-29.14-21.59-51.05-2.83-12.28-2.61-24.13.09-39.42,1.75-9.94,4.39-20.67,7.2-33.69,6.66-30.9,15-53.09,22.47-72.49,1.43-3.7,2.69-7.38,3.95-11C48,817.77,54.83,812,55.44,784.63c1-43.57-16.06-81.28-23.81-97.4-2.48-5.16-5.43-11.29-9-17.7A173.38,173.38,0,0,0,.89,638.73c-20.51-23.17-41.45-32.92-57.19-40.05-14.36-6.53-49.29-20.6-89.31-10-18.52,4.9-25.07,10.87-46.69,13.2-18,1.95-31.56,3.17-44.92-5.7-18-11.88-27.81-36.24-36.45-58.13-8.08-20.51-8.68-29.57-17.17-36.75C-302,491.84-317,494.76-328.31,499c-47,36.7-77.11,80.54-94.55,112C-446.37,653.35-465.11,688.91-466.7,736.84Z" transform="translate(611.44 -218.58)"/><path class="q" d="M-457.13,744.94c-1,32,6.57,37,23,121.71,8.72,45,12.78,68.79,13.81,81.81a108.51,108.51,0,0,1-.08,15.17c-2.37,30.77-10,36.82-18.95,86.76-4.76,26.9-7.67,44.92-6.1,64.55.21,2.59.56,5.19.88,7.86,1,8.25,4.22,27,25.4,62.54,21.66,36.3,36,64.46,66.88,83.56,11.62,7.2,39.25,21.61,71,13.09,22.13-6,23.42-15,66-36.75,32-16.45,43.55-15.49,51.46-13.88,14,2.86,15.85,9.65,40.85,19.49,21.33,8.4,34.24,10.88,50.22,7,20.61-5.08,35.36-20.23,41.65-28.36.93-1.19,1.68-2.09,2.12-2.77,6.7-10.26,21.06-32.54,23.66-70.57,1.34-19.54-2.51-35.86-4.62-45.21-6-26.76-15.42-28-20.08-48.94-2.59-11.73-2.32-23.07.36-37.64,1.76-9.52,4.36-19.72,7.1-32.08,6.48-29.3,14.54-50.27,22-68.92,1.39-3.51,2.6-7,3.84-10.43,32.1-89.22,38.74-95,39.45-121.3,1.11-41.86-15.35-78.26-22.94-94-2.43-5-5.29-10.94-8.72-17.06a167,167,0,0,0-21-29.7c-19.72-22.23-39.88-31.67-55.21-38.66-13.85-6.32-47-19.72-85.06-9.9-17.62,4.56-24,10.14-44.48,12.25-17.12,1.78-30.07,2.87-42.8-5.55-17.15-11.29-26.62-34.32-34.92-55-7.75-19.37-8.41-27.94-16.52-34.7-10.66-8.9-24.95-6.12-35.71-2.08-44.86,34.88-73.78,76.8-90.57,107.13C-437.78,664.86-455.63,699-457.13,744.94Z" transform="translate(611.44 -218.58)"/><path class="r" d="M-447.56,753.05c-.95,30.72,6.28,36,21.93,116.05,8.36,42.78,12.4,65.48,13.46,77.85a114.47,114.47,0,0,1,0,14.45c-2.06,29.24-9.2,35.3-17.58,82.71-4.43,25.57-7.15,42.81-5.68,61.56.2,2.48.54,4.95.83,7.5.94,8.12,4,26,23.81,59.77,20.34,34.67,33.63,61.65,62.79,80.23,11,7,37.06,20.74,67,13,20.93-5.43,22.27-13.73,62.47-34.07,30.23-15.38,41.2-14.37,48.76-12.8,13.25,2.74,15.12,9.2,38.77,18.45,20.42,8,32.93,10.13,48.26,6.19,19.67-5.06,33.76-19.67,39.82-27.65.87-1.15,1.59-2,2-2.69,6.48-10.15,19.81-31.34,22.39-68,1.3-18.51-2.24-34.13-4.19-43.19-5.47-25.46-14.33-26.85-18.56-46.84-2.38-11.21-2-22,.64-35.85,1.75-9.11,4.32-18.79,7-30.48,6.31-27.7,14.12-47.46,21.42-65.38,1.36-3.32,2.53-6.66,3.72-9.9,31-84.42,37.4-90.23,38.22-115.44C31,758.33,15.12,723.23,7.67,707.93,5.3,703,2.53,697.36-.75,691.51A162,162,0,0,0-21,662.92c-18.92-21.29-38.3-30.41-53.23-37.28-13.31-6.12-44.8-18.83-80.82-9.74-16.73,4.21-22.82,9.41-42.27,11.32-16.26,1.61-28.58,2.58-40.68-5.4-16.33-10.7-25.45-32.42-33.4-52-7.43-18.22-8.14-26.29-15.87-32.66-10.16-8.36-23.71-5.71-34-1.86C-364,568.4-391.71,608.4-407.84,637.62-429.19,676.39-446.15,709.19-447.56,753.05Z" transform="translate(611.44 -218.58)"/><path class="s" d="M-438,761.15c-.88,29.44,6,34.91,20.88,110.41,8,40.58,12,62.16,13.11,73.88a110.18,110.18,0,0,1,.06,13.72c-1.75,27.72-8.46,33.77-16.17,78.7-4.16,24.21-6.64,40.68-5.25,58.56.19,2.35.51,4.7.78,7.13.89,8,3.77,25,22.21,57,19,33,31.25,58.86,58.7,76.91,10.34,6.8,34.87,19.87,63.06,12.86,19.72-4.91,21.11-12.47,59-31.35,28.44-14.31,38.85-13.26,46.08-11.73,12.53,2.66,14.38,8.75,36.67,17.42,19.52,7.59,31.62,9.38,46.3,5.44,18.75-5,32.17-19.11,38-26.95.83-1.11,1.51-1.94,1.91-2.59,6.26-10.07,18.58-30.14,21.14-65.42,1.25-17.49-2-32.39-3.76-41.18-4.92-24.16-13.24-25.71-17-44.71-2.13-10.66-1.72-21,.9-34.07,1.75-8.7,4.29-17.84,6.88-28.88,6.13-26.08,13.69-44.64,20.89-61.81,1.32-3.13,2.46-6.3,3.61-9.38C9.7,835.49,16,829.67,16.91,805.53,18.32,767.09,3,733.27-4.27,718.38c-2.32-4.76-5-10.22-8.13-15.78A155.67,155.67,0,0,0-32,675.12C-50.09,654.8-68.68,646-83.21,639.22c-12.77-5.92-42.56-18-76.57-9.6-15.84,3.88-21.69,8.66-40.06,10.37-15.39,1.44-27.07,2.27-38.56-5.26-15.51-10.11-24.28-30.53-31.89-48.84-7.09-17.09-7.85-24.66-15.21-30.62-9.65-7.82-22.48-5.31-32.22-1.65-40.64,31.24-67.11,69.31-82.58,97.47C-420.6,687.9-436.67,719.32-438,761.15Z" transform="translate(611.44 -218.58)"/><path class="t" d="M-428.4,769.24c-.81,28.17,5.7,33.87,19.81,104.75,7.64,38.38,11.66,58.85,12.76,69.91a108.43,108.43,0,0,1,.14,13c-1.46,26.2-7.67,32.26-14.78,74.67-3.84,22.89-6.13,38.55-4.85,55.57.18,2.24.48,4.47.73,6.77.85,7.86,3.54,24,20.6,54.23,17.72,31.39,28.85,56,54.63,73.56,9.7,6.6,32.68,19,59.12,12.75,18.52-4.4,20-11.23,55.45-28.69,26.67-13.23,36.51-12.16,43.39-10.66,11.8,2.57,13.64,8.3,34.58,16.38,18.63,7.17,30.31,8.63,44.37,4.68,17.81-5,30.58-18.55,36.18-26.24.78-1.06,1.42-1.88,1.82-2.5,6-10,17.33-28.94,19.85-62.87,1.21-16.47-1.69-30.65-3.33-39.16-4.37-22.85-12.16-24.58-15.54-42.6-1.89-10.1-1.44-19.91,1.18-32.27,1.75-8.3,4.26-16.9,6.77-27.29,5.94-24.47,13.26-41.81,20.36-58.25,1.28-3,2.38-6,3.51-8.85C-3,841.31,3.11,835.49,4.1,812.41,5.65,775.66-9,743.14-16.19,728.67c-2.27-4.61-4.86-9.86-7.85-15.14a149.77,149.77,0,0,0-18.82-26.36C-60.2,667.79-78,659.25-92.13,652.66c-12.23-5.72-40.32-17.07-72.33-9.46-14.94,3.56-20.55,7.92-37.86,9.44-14.52,1.28-25.58,2-36.43-5.11-14.7-9.53-23.08-28.61-30.36-45.77-6.76-16-7.57-23-14.56-28.59-9.14-7.27-21.24-4.9-30.44-1.41-38.54,29.42-63.79,65.57-78.61,92.6C-412,699.44-427.2,729.46-428.4,769.24Z" transform="translate(611.44 -218.58)"/><path class="u" d="M-418.85,777.36c-.75,26.89,5.42,32.82,18.75,99.1,7.27,36.18,11.28,55.52,12.42,65.94a111.75,111.75,0,0,1,.2,12.28c-1.16,24.68-6.87,30.74-13.38,70.64-3.53,21.57-5.6,36.44-4.42,52.59.16,2.11.45,4.23.67,6.4.82,7.75,3.31,23,19,51.47,16.42,29.77,26.46,53.23,50.55,70.22,9.06,6.39,30.5,18.17,55.17,12.64,17.31-3.88,18.8-10,51.93-26,24.89-12.16,34.15-11,40.69-9.57,11.08,2.45,12.91,7.84,32.49,15.33,17.72,6.79,29,7.89,42.38,3.94,16.89-5,29-18,34.38-25.52.73-1,1.35-1.81,1.69-2.44,5.81-9.88,16.09-27.74,18.59-60.29,1.17-15.45-1.42-28.91-2.89-37.17-3.84-21.53-11.06-23.43-14-40.48-1.66-9.56-1.14-18.86,1.45-30.49,1.76-7.88,4.2-16,6.66-25.69,5.77-22.86,12.83-39,19.85-54.68,1.23-2.77,2.3-5.59,3.37-8.34,27.45-70,33.44-75.85,34.53-97.87,1.68-35-12.43-66.27-19.41-80.33-2.21-4.47-4.72-9.5-7.56-14.5a143.66,143.66,0,0,0-18.12-25.25c-16.53-18.43-33.56-26.67-47.27-33.13-11.71-5.53-38.1-16.21-68.09-9.33-14,3.22-19.43,7.19-35.65,8.51-13.65,1.12-24.08,1.68-34.32-5-13.87-8.93-21.9-26.69-28.84-42.67-6.43-14.81-7.29-21.4-13.9-26.55-8.63-6.73-20-4.49-28.71-1.2-36.42,27.59-60.46,61.81-74.61,87.74C-403.42,710.93-417.72,739.59-418.85,777.36Z" transform="translate(611.44 -218.58)"/><path class="v" d="M-409.28,785.47c-.69,25.61,5.13,31.76,17.69,93.44,6.92,34,10.91,52.21,12.07,62a106.18,106.18,0,0,1,.25,11.57c-.86,23.16-6.06,29.23-12,66.6-3.21,20.22-5.11,34.31-4,49.6.14,2,.41,4,.62,6,.76,7.59,3.07,22,17.4,48.69,15.12,28.15,24.06,50.43,46.47,66.89,8.42,6.18,28.3,17.29,51.23,12.52,16.1-3.36,17.64-8.69,48.4-23.31,23.1-11.07,31.8-9.9,38-8.49,10.35,2.35,12.17,7.38,30.39,14.3,16.83,6.38,27.7,7.14,40.41,3.17,16-5,27.42-17.44,32.56-24.81.68-1,1.26-1.73,1.61-2.34,5.58-9.78,14.84-26.54,17.31-57.72,1.13-14.43-1.15-27.17-2.46-35.14-3.32-20.21-10-22.28-12.52-38.37-1.42-9-.84-17.8,1.71-28.71,1.76-7.47,4.17-15,6.56-24.09C-72,956-63.91,942-58.24,926.18c1-2.73,2.22-5.23,3.26-7.81,26.27-65.24,32.12-71.06,33.3-92,1.83-33.33-11.7-63.26-18.53-76.92-2.16-4.33-4.58-9.14-7.27-13.86a137,137,0,0,0-17.39-24.14c-15.74-17.49-32-25.42-45.3-31.75-11.16-5.32-35.84-15.31-63.83-9.16-13.15,2.88-18.3,6.45-33.44,7.57-12.78.95-22.58,1.37-32.19-4.82-13.06-8.36-20.72-24.79-27.32-39.6-6.1-13.66-7-19.76-13.25-24.5-8.12-6.18-18.77-4.08-26.95-1-34.29,25.73-57.12,58-70.61,82.88C-394.83,722.45-408.24,749.74-409.28,785.47Z" transform="translate(611.44 -218.58)"/><path class="w" d="M-399.71,793.58c-.63,24.32,4.83,30.7,16.63,87.78,6.56,31.79,10.54,48.89,11.72,58,.29,3.6.41,7.21.34,10.83-.58,21.64-5.27,27.72-10.6,62.57-2.9,18.89-4.59,32.19-3.58,46.61.14,1.88.39,3.75.57,5.68.71,7.48,2.85,21,15.81,45.93,13.81,26.53,21.66,47.62,42.39,63.54,7.78,6,26.12,16.42,47.28,12.4,14.91-2.84,16.49-7.43,44.89-20.62,21.33-10,29.44-8.78,35.32-7.42,9.62,2.25,11.43,6.93,28.3,13.26,15.93,6,26.38,6.4,38.47,2.44,15-4.94,25.82-16.86,30.73-24.12.64-.94,1.19-1.65,1.51-2.24,5.36-9.7,13.6-25.35,16.05-55.15,1.08-13.41-.89-25.43-2-33.13-2.81-18.88-8.89-21.14-11-36.25-1.18-8.47-.54-16.74,2-26.92,1.76-7,4.14-14.09,6.44-22.48,5.4-19.65,13.23-32.44,18.79-47.56.94-2.55,2.15-4.87,3.15-7.29,25.08-60.44,30.79-66.26,32.05-86.16,2-31.63-11-60.27-17.64-73.51-2.1-4.19-4.44-8.78-7-13.22a130.93,130.93,0,0,0-16.67-23c-14.94-16.53-30.41-24.16-43.31-30.36-10.64-5.12-33.61-14.44-59.6-9-12.26,2.54-17.18,5.7-31.22,6.6-11.92.79-21.09,1.08-30.08-4.67-12.24-7.77-19.53-22.88-25.8-36.5-5.76-12.52-6.73-18.13-12.59-22.46-7.62-5.64-17.52-3.71-25.2-.77-32.22,23.95-53.79,54.33-66.67,78C-386.24,734-398.77,759.88-399.71,793.58Z" transform="translate(611.44 -218.58)"/><path class="x" d="M-390.14,801.68c-.56,23.05,4.56,29.67,15.57,82.12,6.21,29.6,10.17,45.59,11.37,54.05.3,3.35.43,6.73.41,10.11-.3,20.1-4.47,26.2-9.2,58.53-2.58,17.56-4.08,30.06-3.16,43.63.12,1.75.35,3.5.51,5.3.65,7.36,2.62,20,14.21,43.16,12.5,24.93,19.26,44.81,38.3,60.23,7.14,5.78,23.93,15.57,43.34,12.29,13.69-2.32,15.34-6.11,41.37-17.93,19.57-8.88,27.1-7.68,32.63-6.34,8.89,2.15,10.69,6.47,26.2,12.22,15,5.57,25.08,5.66,36.51,1.68,14.1-4.92,24.25-16.27,28.91-23.4a21.76,21.76,0,0,0,1.42-2.16c4.7-10,12.35-24.14,14.77-52.58,1-12.36-.61-23.67-1.59-31.11-2.31-17.54-7.81-20-9.51-34.14-.94-7.93-.23-15.69,2.28-25.16,1.77-6.68,4.1-13.14,6.34-20.89,5.22-18,12.79-29.57,18.27-44,.9-2.38,2.07-4.53,3-6.77,23.88-55.65,29.47-61.48,30.82-80.31,2.13-29.92-10.23-57.26-16.75-70.09-2.06-4.06-4.3-8.43-6.7-12.59a125.14,125.14,0,0,0-15.95-21.9c-14.15-15.59-28.85-22.89-41.33-29-10.11-4.89-31.38-13.57-55.36-8.89-11.37,2.22-16,5-29,5.69-11,.6-19.58.77-27.93-4.52-11.43-7.17-18.35-21-24.28-33.41-5.43-11.38-6.45-16.5-11.94-20.42-7.11-5.1-16.29-3.27-23.45-.55-30.11,22.13-50.48,50.57-62.66,73.21C-377.65,745.48-389.3,770-390.14,801.68Z" transform="translate(611.44 -218.58)"/><path class="y" d="M-380.58,809.79c-.49,21.77,4.29,28.61,14.52,76.47,5.85,27.4,9.8,42.27,11,50.08q.44,4.67.47,9.38c0,18.57-3.66,24.69-7.81,54.5-2.25,16.23-3.57,27.94-2.74,40.63.12,1.64.32,3.27.46,5,.61,7.23,2.38,19.07,12.61,40.38,11.2,23.33,16.87,42,34.22,56.9,6.5,5.58,21.75,14.71,39.39,12.18,12.5-1.8,14.18-4.85,37.85-15.25,17.78-7.81,24.76-6.56,29.94-5.26,8.17,2,10,6,24.11,11.18s23.77,4.92,34.55.93c13.15-4.87,22.65-15.72,27.1-22.7.46-.65.9-1.34,1.31-2.06,4.47-9.88,11.08-23,13.5-50,1-11.36-.35-21.91-1.16-29.1-1.83-16.18-6.71-18.86-8-32-.7-7.39.08-14.64,2.55-23.34,1.77-6.25,4.06-12.2,6.23-19.29,5-16.43,12.34-26.72,17.74-40.43.87-2.2,2-4.17,2.92-6.25C-67.12,870.79-61.66,865-60.2,847.2c2.27-28.22-9.5-54.26-15.87-66.68-2-3.93-4.16-8.07-6.42-11.95A118.65,118.65,0,0,0-97.7,747.76c-13.36-14.63-27.27-21.65-39.35-27.6-9.56-4.7-29.14-12.69-51.12-8.75-10.48,1.88-14.91,4.22-26.82,4.75-10.18.45-18.08.45-25.82-4.38-10.6-6.62-17.16-19-22.76-30.32-5.09-10.24-6.18-14.86-11.29-18.38-6.6-4.55-15.07-2.86-21.69-.34-28,20.3-47.14,46.82-58.67,68.36C-369.07,757-379.81,780.16-380.58,809.79Z" transform="translate(611.44 -218.58)"/></svg>