<svg xmlns="http://www.w3.org/2000/svg" xmlns:xlink="http://www.w3.org/1999/xlink" width="1040.84" height="929.92" viewBox="0 0 1040.84 929.92"><defs><style>.a,.b,.c,.d,.e,.f,.g,.h,.i,.j,.k,.l,.m,.n,.o,.p,.q,.r,.s,.t,.u,.v,.w,.x{fill:none;stroke-miterlimit:10;stroke-width:2px;}.a{stroke:url(#a);}.b{stroke:url(#b);}.c{stroke:url(#c);}.d{stroke:url(#d);}.e{stroke:url(#e);}.f{stroke:url(#f);}.g{stroke:url(#g);}.h{stroke:url(#h);}.i{stroke:url(#i);}.j{stroke:url(#j);}.k{stroke:url(#k);}.l{stroke:url(#l);}.m{stroke:url(#m);}.n{stroke:url(#n);}.o{stroke:url(#o);}.p{stroke:url(#p);}.q{stroke:url(#q);}.r{stroke:url(#r);}.s{stroke:url(#s);}.t{stroke:url(#t);}.u{stroke:url(#u);}.v{stroke:url(#v);}.w{stroke:url(#w);}.x{stroke:url(#x);}</style><linearGradient id="a" x1="-408.26" y1="-588.66" x2="332.02" y2="122.58" gradientTransform="matrix(1, 0, 0, -1, 0, 320)" gradientUnits="userSpaceOnUse"><stop offset="0.61" stop-color="#b88dfc"/><stop offset="0.95" stop-color="#95dde8"/></linearGradient><linearGradient id="b" x1="-399.19" y1="-580.66" x2="321.03" y2="111.3" xlink:href="#a"/><linearGradient id="c" x1="-389.39" y1="-571.99" x2="310.79" y2="100.73" xlink:href="#a"/><linearGradient id="d" x1="-380.32" y1="-563.99" x2="299.81" y2="89.46" xlink:href="#a"/><linearGradient id="e" x1="-371.26" y1="-555.98" x2="288.84" y2="78.24" xlink:href="#a"/><linearGradient id="f" x1="-362.18" y1="-547.99" x2="277.87" y2="66.96" xlink:href="#a"/><linearGradient id="g" x1="-353.11" y1="-540.02" x2="266.92" y2="55.69" xlink:href="#a"/><linearGradient id="h" x1="-344.04" y1="-532.03" x2="255.94" y2="44.41" xlink:href="#a"/><linearGradient id="i" x1="-334.98" y1="-524.02" x2="244.96" y2="33.17" xlink:href="#a"/><linearGradient id="j" x1="-325.89" y1="-516.05" x2="234.02" y2="21.9" xlink:href="#a"/><linearGradient id="k" x1="-316.82" y1="-508.06" x2="223.06" y2="10.64" xlink:href="#a"/><linearGradient id="l" x1="-307.72" y1="-500.07" x2="212.1" y2="-0.65" xlink:href="#a"/><linearGradient id="m" x1="-298.61" y1="-492.09" x2="201.19" y2="-11.9" xlink:href="#a"/><linearGradient id="n" x1="-289.53" y1="-484.12" x2="190.25" y2="-23.16" xlink:href="#a"/><linearGradient id="o" x1="-280.42" y1="-476.18" x2="179.34" y2="-34.46" xlink:href="#a"/><linearGradient id="p" x1="-271.34" y1="-468.21" x2="168.4" y2="-45.72" xlink:href="#a"/><linearGradient id="q" x1="-262.24" y1="-460.25" x2="157.49" y2="-56.98" xlink:href="#a"/><linearGradient id="r" x1="-253.17" y1="-452.31" x2="146.56" y2="-68.26" xlink:href="#a"/><linearGradient id="s" x1="-244.02" y1="-444.36" x2="135.72" y2="-79.52" xlink:href="#a"/><linearGradient id="t" x1="-234.94" y1="-436.39" x2="124.82" y2="-90.74" xlink:href="#a"/><linearGradient id="u" x1="-225.83" y1="-428.51" x2="113.97" y2="-102.04" xlink:href="#a"/><linearGradient id="v" x1="-216.69" y1="-420.62" x2="103.15" y2="-113.33" xlink:href="#a"/><linearGradient id="w" x1="-207.6" y1="-412.7" x2="92.32" y2="-124.55" xlink:href="#a"/><linearGradient id="x" x1="-198.44" y1="-404.83" x2="81.52" y2="-135.85" xlink:href="#a"/></defs><path class="a" d="M-607.63,621.78c29.21,86.67,71.82,145.49,101,179.68,42.54,49.79,76.83,89.92,134.28,105.37,38.4,10.33,42.49-2.38,166.59-4.9C-105.56,899.9-84,907.67-74,911.8c39,16,39.94,32,102.55,64.32,37.95,19.61,60.31,30.84,90.89,31,8.05,0,34-.64,91.07-32.48C266.85,943.2,308.83,919.77,342.7,868c12.82-19.61,43.56-66.61,42.21-128-.92-42.61-16.29-46.44-30.71-131.7-10.86-64.24-5.89-84.25-1.1-96.88,9.2-24.25,18.85-24.26,44-66.53,19.3-32.37,29.81-50,33-76.28,5.05-41.47-11.88-73.4-15.21-79.46-6.51-11.83-28.83-48-72.6-60.66-26.16-7.55-48.62-3.41-60-1.16-38.42,7.53-41.94,24.51-71.64,29.76-26.84,4.74-48.51-4.94-90.74-24.51-38.6-17.88-65.75-35.86-86.29-49.68C-90.22,99.53-91.19,88.74-124.63,82.33c-51.55-9.89-99.84,6-118.72,12.28-14.39,4.75-39.12,13.13-66.09,32.69-35.24,25.56-53.39,55.06-65.26,74.81-12.22,20.32-44.34,75.19-44.57,146.81-.1,32.63,6.5,44.37,1.69,82-3.95,30.85-6.86,53.76-23.68,73.37-22.36,26.08-58.65,33.88-91.24,40.9-30.88,6.64-43.07,3.84-56.19,15.47C-606.09,576.09-608.42,602.13-607.63,621.78Z" transform="translate(608.76 -78.17)"/><path class="b" d="M-364.08,898.82c37.45,10.06,41.63-2.28,162.14-4.77,61.06-1.29,92.12,1.14,109.17,4.13a86.28,86.28,0,0,1,19,5.26c37.93,15.46,39,30.95,99.89,62.32C58.7,982.54,79.51,993,104.38,995.33c3.34.31,6.74.48,10.27.5,7.94.07,33.19-.53,88.64-31.37,54.82-30.35,95.67-53,128.75-103.2,12.52-19,42.41-64.62,41.21-124.22-.81-41.35-15.62-45.11-29.53-127.85-10.48-62.33-5.61-81.79-.92-94.1,8.94-23.54,18.32-23.61,42.78-64.65,18.78-31.56,28.95-48.84,32-74.5,4.12-34.47-7.33-62.19-12.87-73.29-.95-1.9-1.71-3.31-2.2-4.18-6.49-11.59-28.24-46.59-71-59-25.42-7.35-47.29-3.4-58.47-1.27-37.35,7.15-40.83,23.65-69.72,28.64-16.17,2.8-30.41.22-48.64-6.68-11.23-4.28-24-10.16-39.55-17.44-37.45-17.45-63.77-35-83.77-48.61L19.1,185.79C-89,112.17-91,102-122.46,95.93c-50.25-9.75-97.46,5.83-116,12-6,2-13.79,4.61-22.76,8.41A211,211,0,0,0-303,139.88c-34.36,25-52.1,53.73-63.78,73.11-11.95,19.83-43.18,73.15-43.47,142.7-.15,31.71,6.21,43.15,1.5,79.71-3.86,30-6.74,52.27-23.08,71.34-21.74,25.37-57,33-88.6,39.91-30,6.5-41.78,3.84-54.52,15.16-16.9,15-19.14,40.33-18.36,59.43,28.35,84.35,69.8,141.69,98.37,175C-453.52,844.74-420.06,883.79-364.08,898.82Z" transform="translate(608.76 -78.17)"/><path class="c" d="M-355.85,890.81c36.53,9.8,40.79-2.18,157.72-4.63,59.34-1.3,89.59,1,106.15,3.83a83.84,83.84,0,0,1,18.51,5.07C-36.56,910-35.4,925,23.76,955.4c31.62,16.24,51.88,26.39,76.08,28.69,3.25.3,6.56.46,10,.49,7.84.07,32.41-.44,86.21-30.26,53.32-29.29,93-51.07,125.34-99.76,12.22-18.43,41.28-62.63,40.2-120.39-.7-40.09-15-43.78-28.36-124-10.08-60.44-5.31-79.33-.73-91.32,8.7-22.86,17.82-23,41.53-62.78,18.26-30.76,28.1-47.7,31-72.7,3.93-33.57-7.31-60.55-12.77-71.41-.94-1.86-1.67-3.22-2.15-4.07-6.44-11.37-27.64-45.18-69.37-57.36-24.67-7.14-46-3.4-56.87-1.37-36.29,6.76-39.73,22.77-67.8,27.51-15.72,2.66-29.56.1-47.26-6.66-10.92-4.21-23.26-10-38.39-17.08-36.31-17-61.77-34.18-81.25-47.52l-11.9-8.14c-104.83-71.67-106.87-81.68-137.52-87.7-48.94-9.62-95.06,5.59-113.26,11.66-5.88,2-13.5,4.53-22.24,8.24a206.38,206.38,0,0,0-40.78,23c-33.47,24.32-50.8,52.4-62.29,71.4-11.69,19.36-42,71.11-42.38,138.6-.18,30.77,5.91,41.93,1.32,77.41-3.79,29.11-6.62,50.76-22.48,69.3-21.11,24.68-55.26,32.19-86,38.94C-537.39,554.5-548.86,552-561.2,563c-16.37,14.63-18.56,39.19-17.81,57.78,27.49,82,67.81,137.81,95.7,170.37C-443,838.23-410.32,876.19-355.85,890.81Z" transform="translate(608.76 -78.17)"/><path class="d" d="M-347.6,882.81c35.59,9.54,40-2.07,153.26-4.52,57.63-1.31,87,.8,103.13,3.54a81.94,81.94,0,0,1,18,4.89C-37.35,901-36.08,915.62,21.35,945c30.72,15.72,50.43,25.55,74,27.8,3.16.3,6.38.45,9.7.49,7.73.09,31.54-.49,83.8-29.15,51.74-28.38,90.4-49.2,121.92-96.33C322.66,830,350.89,787.21,350,731.27c-.58-38.84-14.29-42.46-27.18-120.16-9.71-58.52-5-76.85-.58-88.51,8.45-22.16,17.3-22.33,40.27-60.92,17.75-29.95,27.25-46.53,30-70.92,3.74-32.66-7.27-58.92-12.67-69.53-.91-1.79-1.63-3.13-2.11-4-6.41-11.13-27-43.76-67.76-55.71-23.92-6.94-44.61-3.39-55.28-1.46C219.39,266.47,216,282,188.73,286.48c-15.25,2.51-28.71,0-45.87-6.65-10.6-4.11-22.57-9.78-37.22-16.72C70.47,246.54,45.87,229.8,26.9,216.67c-4-2.75-7.82-5.37-11.53-7.94C-86.22,139-88.26,129.1-118.1,123.16c-47.65-9.47-92.67,5.37-110.52,11.35-5.77,1.93-13.21,4.43-21.7,8.06a201.67,201.67,0,0,0-39.79,22.51c-32.58,23.7-49.51,51.08-60.81,69.7-11.4,18.86-40.86,69.07-41.29,134.49-.24,29.87,5.62,40.72,1.12,75.13-3.71,28.24-6.48,49.25-21.88,67.25-20.49,24-53.59,31.32-83.31,37.94-28.12,6.2-39.24,3.82-51.2,14.53-15.86,14.21-18,38-17.24,56.11,26.65,79.64,65.81,134,93.06,165.71C-432.46,831.72-400.61,868.59-347.6,882.81Z" transform="translate(608.76 -78.17)"/><path class="e" d="M-339.38,874.79c34.67,9.27,39.1-2,148.83-4.39,55.91-1.33,84.49.63,100.11,3.23A82.12,82.12,0,0,1-73,878.34c34.82,13.77,36.2,27.88,91.89,56.32,29.81,15.21,49,24.72,71.87,26.92,3,.31,6.19.43,9.42.48,7.62.11,30.73-.43,81.36-28,50.22-27.37,87.76-47.33,118.5-92.9,11.62-17.25,39-58.63,38.2-112.78-.47-37.57-13.63-41.12-26-116.3-9.33-56.61-4.77-74.39-.41-85.72,8.21-21.48,16.79-21.69,39-59.05,17.23-29.15,26.4-45.38,29-69.14,3.53-31.75-7.24-57.28-12.57-67.65-.89-1.73-1.6-3-2.06-3.85-6.38-10.93-26.43-42.43-66.14-54.07-23.17-6.78-43.28-3.39-53.69-1.56-34.16,6-37.54,21-64,25.25-14.79,2.37-27.86-.1-44.47-6.63-10.32-4.05-21.89-9.59-36.07-16.36-34-16.13-57.78-32.46-76.22-45.36-3.83-2.68-7.57-5.24-11.17-7.74-98.16-68.06-100.38-77.57-129.41-83.43-46.35-9.36-90.28,5.14-107.8,11-5.66,1.9-12.89,4.36-21.15,7.88a196.79,196.79,0,0,0-38.81,22c-31.7,23.08-48.2,49.73-59.31,68s-39.69,67-40.2,130.39c-.28,28.94,5.34,39.5.95,72.82-3.63,27.36-6.36,47.75-21.28,65.21-19.86,23.28-51.9,30.47-80.65,37-27.22,6.07-38,3.81-49.53,14.23-15.35,13.81-17.4,36.93-16.67,54.44C-524.62,697-486.6,749.84-460,780.76-421.93,825.21-390.89,861-339.38,874.79Z" transform="translate(608.76 -78.17)"/><path class="f" d="M-331.15,866.78c33.74,9,38.25-1.9,144.39-4.26,54.21-1.34,81.95.45,97.09,2.93a79.12,79.12,0,0,1,17,4.53c33.78,13.22,35.27,26.85,89.24,54.32C45.41,939,64,948.17,86.26,950.32c3,.29,6,.42,9.14.47,7.51.14,29.92-.38,78.94-26.91,48.68-26.36,85.12-45.45,115.08-89.46,11.32-16.66,37.87-56.65,37.21-108.93-.35-36.32-13-39.81-24.83-112.45-8.95-54.71-4.47-71.93-.23-82.94,8-20.77,16.28-21.05,37.75-57.18,16.71-28.35,25.5-44.24,27.95-67.36,3.27-30.85-7.2-55.65-12.47-65.76-.88-1.69-1.56-3-2-3.73C346.43,325.38,327,295,288.23,283.64c-22.41-6.59-41.94-3.38-52.1-1.67-33.09,5.6-36.43,20.15-62,24.12-14.35,2.23-27-.2-43.1-6.6-10-4-21.19-9.41-34.89-16-32.88-15.69-55.79-31.61-73.7-44.28-3.7-2.62-7.32-5.11-10.81-7.55-94.88-66.2-97.14-75.51-125.35-81.29-45.06-9.23-87.89,4.91-105.07,10.71-5.54,1.88-12.6,4.29-20.61,7.7a192.85,192.85,0,0,0-37.81,21.47c-30.81,22.46-46.91,48.4-57.83,66.28s-38.54,65-39.11,126.29c-.33,28,5.05,38.28.77,70.51-3.56,26.5-6.23,46.25-20.67,63.18-19.24,22.57-50.21,29.67-78,36-26.27,6-36.69,3.79-47.86,13.92-14.83,13.39-16.8,35.78-16.1,52.76,24.9,75,61.78,126.32,87.7,156.42C-411.39,818.7-381.17,853.4-331.15,866.78Z" transform="translate(608.76 -78.17)"/><path class="g" d="M-322.92,858.78c32.8,8.74,37.39-1.82,140-4.14,52.5-1.36,79.41.28,94.08,2.63a78.27,78.27,0,0,1,16.43,4.34c32.73,12.67,34.32,25.84,86.56,52.32,28,14.16,46.07,23,67.63,25.15,2.88.27,5.82.4,8.85.46,7.41.15,29.11-.32,76.52-25.81,47.16-25.34,82.48-43.57,111.66-86,11-16.07,36.73-54.64,36.21-105.12-.25-35.06-12.31-38.47-23.66-108.59-8.57-52.81-4.19-69.47-.06-80.16,7.76-20.07,15.84-20.36,36.5-55.3C344,451,352.38,435.45,354.69,413c3.06-29.94-7.18-54-12.36-63.88-.86-1.63-1.53-2.87-2-3.61-6.31-10.45-25.23-39.65-62.93-50.78-21.67-6.39-40.6-3.36-50.51-1.76-32,5.22-35.33,19.27-60.12,23-13.88,2.09-26.17-.3-41.7-6.58-9.71-3.92-20.52-9.22-33.75-15.63-31.73-15.26-53.8-30.77-71.19-43.2-3.56-2.57-7.07-5-10.45-7.35C-81.86,178.84-84.18,169.7-111.59,164c-43.75-9.1-85.49,4.68-102.32,10.4-5.43,1.84-12.3,4.21-20.07,7.53a187.59,187.59,0,0,0-36.82,20.93c-29.93,21.83-45.62,47.07-56.35,64.6s-37.38,63-38,122.18c-.37,27.09,4.77,37.06.59,68.22-3.48,25.61-6.12,44.74-20.08,61.13-18.61,21.88-48.52,28.84-75.36,35-25.36,5.82-35.43,3.78-46.21,13.61-14.3,13-16.2,34.65-15.52,51.1,24.05,72.62,59.78,122.48,85,151.77C-400.86,812.2-371.45,845.81-322.92,858.78Z" transform="translate(608.76 -78.17)"/><path class="h" d="M-314.68,850.76c31.86,8.48,36.57-1.7,135.52-4,50.77-1.36,76.85.12,91,2.35a77.58,77.58,0,0,1,15.91,4.16c31.69,12.12,33.39,24.81,83.91,50.33,27.05,13.62,44.61,22.2,65.5,24.25,2.8.27,5.64.39,8.58.46,7.31.16,28.29-.27,74.09-24.7,45.63-24.34,79.84-41.68,108.24-82.58,10.72-15.48,35.5-52.66,35.21-101.3-.21-33.8-11.65-37.14-22.48-104.74-8.19-50.91-3.92-67,.11-77.37,7.52-19.38,15.35-19.7,35.24-53.44,15.75-26.68,23.77-41.93,25.92-63.79,2.87-29-7.13-52.36-12.26-62-.84-1.58-1.49-2.77-1.94-3.51-6.28-10.22-24.63-38.25-61.31-49.13-20.92-6.2-39.26-3.37-48.92-1.85-31,4.83-34.23,18.38-58.21,21.85-13.42,1.94-25.32-.43-40.31-6.56-9.4-3.85-19.81-9.06-32.58-15.28C56,289,34.77,274,17.91,261.79c-3.44-2.5-6.83-4.85-10.09-7.16-88.28-62.45-90.64-71.41-117.24-77-42.45-8.95-83.09,4.47-99.59,10.1-5.32,1.8-12,4.13-19.53,7.34a183.73,183.73,0,0,0-35.83,20.41c-29,21.22-44.36,45.72-54.86,62.87-10.35,16.88-36.21,60.91-36.92,118.07-.42,26.17,4.48,35.86.41,65.92-3.43,24.75-6,43.24-19.48,59.1-18,21.18-46.84,28-72.74,34-24.44,5.68-34.15,3.77-44.54,13.31-13.79,12.58-15.61,33.5-15,49.42,23.18,70.28,57.78,118.65,82.36,147.11C-390.33,805.69-361.73,838.21-314.68,850.76Z" transform="translate(608.76 -78.17)"/><path class="i" d="M-306.46,842.73c30.95,8.23,35.72-1.4,131.08-3.88,49.06-1.27,74.31-.05,88,2a75.09,75.09,0,0,1,15.39,4c30.64,11.57,32.45,23.79,81.23,48.32,26.15,13.11,43.16,21.37,63.39,23.37,2.7.27,5.45.38,8.29.45,7.19.19,27.48-.21,71.67-23.58s77.2-39.81,104.82-79.15c10.42-14.89,34.34-50.67,34.2-97.48-.09-32.55-11-35.82-21.3-100.89-7.81-49-3.63-64.54.29-74.57,7.29-18.69,14.85-19.06,34-51.56,15.25-25.88,22.91-40.79,24.91-62a108.66,108.66,0,0,0-12.16-60.12c-.82-1.52-1.46-2.67-1.9-3.39-6.25-10-24-36.87-59.7-47.48-20.16-6-37.93-3.36-47.32-2-29.87,4.45-33.13,17.52-56.29,20.73-13,1.8-24.46-.53-38.93-6.54-9.09-3.78-19.12-8.88-31.42-14.93C52.4,299.63,32,285,15.66,273c-3.32-2.43-6.58-4.72-9.73-7-85-60.57-87.4-69.34-113.19-74.89-41.16-8.82-80.71,4.23-96.86,9.78-5.2,1.79-11.71,4-19,7.17A177.18,177.18,0,0,0-257.95,228c-28.14,20.58-43.07,44.38-53.38,61.16-10.07,16.39-34.94,58.88-35.83,114-.41,25.25,4.18,34.64.22,63.62-3.33,23.88-5.86,41.73-18.88,57.05-17.35,20.48-45.14,27.15-70.08,33-23.52,5.54-32.87,3.76-42.87,13-13.26,12.18-15,32.37-14.39,47.76,22.32,67.94,55.76,114.79,79.7,142.46C-379.8,799.17-352,830.62-306.46,842.73Z" transform="translate(608.76 -78.17)"/><path class="j" d="M-298.21,834.74c30,7.94,34.87-1.29,126.64-3.76,47.35-1.28,71.77-.24,85,1.75a72.89,72.89,0,0,1,14.87,3.79c29.59,11,31.52,22.77,78.56,46.32,25.25,12.61,41.71,20.53,61.27,22.49,2.6.25,5.26.36,8,.44,7.09.22,26.68-.16,69.25-22.47s74.56-37.95,101.41-75.72c10.12-14.3,33.19-48.67,33.2-93.66,0-31.29-10.31-34.49-20.13-97-7.42-47.1-3.34-62.08.46-71.79,7-18,14.34-18.41,32.73-49.7,14.74-25.06,22.05-39.63,23.9-60.22a105.19,105.19,0,0,0-12.06-58.23c-.8-1.46-1.4-2.6-1.85-3.28-6.23-9.77-23.43-35.46-58.1-45.84-19.41-5.81-36.59-3.36-45.73-2.05-28.81,4.08-32,16.63-54.37,19.6-12.5,1.65-23.6-.65-37.54-6.53-8.78-3.7-18.44-8.69-30.26-14.55-28.25-14-47.83-28.21-63.63-40-3.18-2.36-6.33-4.58-9.36-6.76-81.72-58.68-84.16-67.29-109.14-72.75-39.86-8.7-78.31,4-94.12,9.46-5.08,1.76-11.41,4-18.45,7a172.55,172.55,0,0,0-33.85,19.36c-27.26,20-41.79,43.06-51.88,59.45C-313.2,316-337.16,356.93-338.14,410c-.45,24.32,3.89,33.41,0,61.32-3.26,23-5.74,40.23-18.28,55-16.73,19.78-43.45,26.31-67.43,32.05-22.6,5.4-31.6,3.75-41.21,12.68-12.75,11.76-14.45,31.23-13.82,46.09,21.45,65.6,53.75,111,77,137.81C-369.27,792.67-342.29,823-298.21,834.74Z" transform="translate(608.76 -78.17)"/><path class="k" d="M-290,826.73c29.08,7.68,34-1.17,122.2-3.64,45.64-1.27,69.22-.38,82,1.46a71.08,71.08,0,0,1,14.35,3.61c28.55,10.47,30.59,21.74,75.9,44.32,24.32,12.06,40.25,19.68,59.15,21.59,2.52.25,5.09.35,7.73.44,7,.23,25.87-.1,66.82-21.36s71.92-36.06,98-72.28c9.82-13.71,32-46.68,32.22-89.83.11-30-9.65-33.16-19-93.19-7-45.19-3.06-59.61.63-69,6.81-17.31,13.85-17.77,31.47-47.84,14.23-24.26,21.19-38.48,22.89-58.44a101.86,101.86,0,0,0-12-56.35c-.8-1.4-1.38-2.5-1.81-3.17-6.2-9.54-22.83-34.08-56.5-44.2-18.66-5.62-35.24-3.35-44.14-2.16-27.74,3.72-30.94,15.76-52.45,18.48-12.05,1.5-22.75-.76-36.14-6.5-8.47-3.66-17.75-8.51-29.11-14.2-27.1-13.58-45.83-27.35-61.11-38.87-3.05-2.31-6.08-4.46-9-6.57-78.41-56.82-80.91-65.24-105.08-70.62-38.56-8.57-75.93,3.76-91.4,9.14-5,1.72-11.12,3.87-17.91,6.81a167.52,167.52,0,0,0-32.85,18.84c-26.38,19.35-40.49,41.71-50.41,57.74-9.53,15.4-32.58,54.82-33.64,105.77-.49,23.4,3.6,32.2-.15,59-3.19,22.14-5.61,38.73-17.67,53-16.11,19.07-41.77,25.46-64.79,31-21.68,5.27-30.33,3.74-39.55,12.37-12.22,11.36-13.86,30.11-13.25,44.43,20.58,63.27,51.75,107.13,74.37,133.15C-358.73,786.16-332.57,815.43-290,826.73Z" transform="translate(608.76 -78.17)"/><path class="l" d="M-281.75,818.72c28.15,7.42,33.18-1.06,117.76-3.51,43.94-1.28,66.67-.55,79,1.16A68.92,68.92,0,0,1-71.2,819.8c27.5,9.93,29.64,20.73,73.23,42.32,23.41,11.55,38.8,18.85,57,20.71,2.43.24,4.9.34,7.45.43,6.86.27,25,0,64.39-20.25,39.53-20.3,69.28-34.17,94.56-68.85,9.52-13.12,30.88-44.68,31.2-86,.21-28.77-9-31.83-17.78-89.33-6.67-43.29-2.78-57.16.81-66.22,6.57-16.62,13.35-17.12,30.21-46,13.72-23.45,20.32-37.33,21.87-56.66a98.37,98.37,0,0,0-11.85-54.46c-.76-1.37-1.34-2.41-1.77-3.06-6.18-9.3-22.23-32.67-54.88-42.55-17.91-5.41-33.89-3.33-42.54-2.25C154.07,351,150.9,362.56,130.2,365c-11.6,1.36-21.91-.87-34.76-6.48C87.26,355,78.38,350.2,67.5,344.68c-26-13.15-43.85-26.49-58.59-37.79C6,304.65,3.08,302.58.26,300.52c-75.11-54.93-77.66-63.18-101-68.47-37.27-8.44-73.54,3.53-88.66,8.83-4.86,1.7-10.82,3.79-17.37,6.64a163.35,163.35,0,0,0-31.86,18.3c-25.5,18.74-39.2,40.38-48.92,56-9.26,14.91-31.41,52.78-32.56,101.67-.52,22.48,3.38,31-.32,56.72-3.06,21.29-5.49,37.22-17.07,50.94-15.49,18.37-40.08,24.62-62.15,30.07-20.75,5.13-29,3.75-37.88,12.06-11.68,11-13.27,29-12.68,42.76,19.73,60.92,49.8,103.25,71.69,128.51C-348.13,779.59-322.85,807.83-281.75,818.72Z" transform="translate(608.76 -78.17)"/><path class="m" d="M-273.51,810.71c27.21,7.15,32.33-.93,113.32-3.38,42.21-1.28,64.13-.73,75.94.86a68.21,68.21,0,0,1,13.31,3.24c26.45,9.38,28.71,19.7,70.57,40.32,22.49,11,37.34,18,54.91,19.82,2.34.23,4.72.32,7.16.42,6.77.28,24.24,0,62-19.14,38-19.28,66.65-32.29,91.15-65.4,9.22-12.53,29.74-42.69,30.2-82.2.31-27.52-8.33-30.51-16.6-85.49-6.28-41.39-2.49-54.69,1-63.42,6.33-15.92,12.83-16.46,29-44.1,13.21-22.63,19.46-36.17,20.86-54.86a95,95,0,0,0-11.75-52.58c-.75-1.31-1.31-2.33-1.74-2.95-6.14-9.09-21.62-31.28-53.26-40.9-17.15-5.24-32.55-3.34-40.95-2.35-25.58,3-28.74,14-48.62,16.21-11.13,1.22-21-1-33.36-6.46-7.88-3.5-16.37-8.13-26.78-13.48C38,342.15,20.91,329.24,6.69,318.17,3.9,316,1.1,314-1.59,312c-71.83-53.06-74.41-61.11-97-66.34-36-8.31-71.14,3.3-85.93,8.52-4.74,1.67-10.52,3.71-16.82,6.45a157.89,157.89,0,0,0-30.87,17.78c-24.6,18.11-37.9,39.05-47.43,54.34-9,14.42-30.24,50.74-31.47,97.56-.56,21.55,3.09,29.77-.52,54.42-3,20.4-5.35,35.7-16.47,48.89-14.85,17.68-38.38,23.78-59.49,29.1-19.83,5-27.76,3.74-36.22,11.75-11.16,10.57-12.68,27.83-12.11,41.08,18.88,58.58,47.8,99.42,69,123.85C-337.6,773.07-313.13,800.24-273.51,810.71Z" transform="translate(608.76 -78.17)"/><path class="n" d="M-265.28,802.7c26.28,6.88,31.49-.82,108.88-3.26,40.5-1.27,61.6-.9,72.92.57a68,68,0,0,1,12.79,3c25.41,8.84,27.78,18.68,67.91,38.32C18.8,851.89,33.1,858.55,50,860.31c2.25.24,4.53.32,6.88.42,6.66.3,23.43,0,59.54-18,36.5-18.28,64-30.42,87.74-62,8.91-11.94,28.6-40.69,29.19-78.39.42-26.25-7.65-29.17-15.43-81.63-5.9-39.47-2.21-52.22,1.15-60.63,6.1-15.21,12.34-15.82,27.72-42.23,12.7-21.82,18.6-35,19.85-53.08A91.53,91.53,0,0,0,255,414.08c-.73-1.25-1.27-2.23-1.69-2.84-6.12-8.85-21-29.87-51.65-39.25-16.4-5-31.21-3.32-39.36-2.45-24.5,2.63-27.64,13.14-46.7,15.08-10.68,1.08-20.2-1.09-32-6.44-7.57-3.43-15.68-7.95-25.62-13.11-23.66-12.3-39.87-24.78-53.56-35.63-2.66-2.11-5.34-4.06-7.92-6C-72,272.28-74.66,264.39-96.41,259.23c-34.66-8.17-68.75,3.08-83.19,8.21-4.63,1.64-10.22,3.63-16.28,6.29A153.18,153.18,0,0,0-225.76,291c-23.71,17.49-36.61,37.72-45.94,52.63-8.72,13.93-29.07,48.7-30.38,93.46-.59,20.63,2.81,28.55-.69,52.13-2.9,19.54-5.25,34.2-15.87,46.85-14.23,17-36.7,22.93-56.85,28.11C-394.4,569-402,567.89-410,575.6c-10.62,10.15-12.09,26.69-11.54,39.41,18,56.24,45.8,95.57,66.37,119.2C-327,766.56-303.41,792.65-265.28,802.7Z" transform="translate(608.76 -78.17)"/><path class="o" d="M-257,794.7c25.35,6.62,30.66-.7,104.45-3.13,38.79-1.28,59.05-1.07,69.9.27a67.36,67.36,0,0,1,12.27,2.87c24.35,8.29,26.85,17.67,65.26,36.34,20.66,10,34.42,16.33,50.67,18,2.15.22,4.34.3,6.59.41,6.55.31,22.64.11,57.12-16.91,35-17.27,61.37-28.54,84.32-58.54,8.61-11.35,27.44-38.7,28.19-74.56.52-25-7-27.84-14.26-77.78-5.51-37.57-1.93-49.76,1.33-57.84,5.85-14.54,11.85-15.19,26.45-40.35,12.2-21,17.74-33.87,18.84-51.31a88.17,88.17,0,0,0-11.55-48.81c-.71-1.2-1.22-2.13-1.65-2.73-6.08-8.62-20.42-28.48-50-37.6-15.66-4.83-29.86-3.32-37.76-2.55-23.42,2.28-26.54,12.26-44.78,14-10.22.94-19.35-1.22-30.6-6.42-7.26-3.36-15-7.76-24.46-12.75-22.51-11.87-37.86-23.93-51-34.55-2.53-2.06-5.09-3.92-7.57-5.79-65.25-49.29-67.93-57-88.86-62.07-33.37-8-66.36,2.84-80.46,7.89-4.51,1.61-9.93,3.55-15.75,6.1a148.42,148.42,0,0,0-28.87,16.74c-22.83,16.86-35.33,36.38-44.46,50.92C-272.2,368-291.63,401.19-293,443.88c-.65,19.71,2.51,27.34-.89,49.82-2.82,18.67-5.11,32.71-15.26,44.82-13.61,16.27-35,22.09-54.22,27.12-18,4.72-25.2,3.72-32.89,11.14-10.12,9.75-11.51,25.55-11,37.74,17.11,53.88,43.77,91.72,63.68,114.53C-316.52,760.05-293.69,785-257,794.7Z" transform="translate(608.76 -78.17)"/><path class="p" d="M-248.82,786.68c24.42,6.36,29.82-.58,100-3,37.08-1.27,56.51-1.23,66.88,0a65.2,65.2,0,0,1,11.75,2.7c23.3,7.75,25.9,16.63,62.58,34.32,19.75,9.45,33,15.49,48.56,17.16,2.06.22,4.15.31,6.32.41,6.45.34,21.83.16,54.69-15.8,33.45-16.26,58.79-26.62,80.9-55.1,8.33-10.76,26.28-36.71,27.19-70.74.63-23.74-6.33-26.52-13.08-73.93-5.14-35.67-1.65-47.3,1.49-55.06,5.61-13.83,11.34-14.52,25.2-38.48,11.69-20.21,16.88-32.72,17.83-49.52a84.77,84.77,0,0,0-11.45-46.93c-.69-1.14-1.2-2.05-1.6-2.61-6.07-8.39-19.83-27.09-48.43-36-14.92-4.63-28.52-3.31-36.19-2.65-22.33,1.92-25.44,11.38-42.86,12.82-9.76.79-18.5-1.33-29.2-6.4-7-3.3-14.31-7.58-23.3-12.4C27.11,374,12.59,362.41,0,352c-2.41-2-4.85-3.8-7.2-5.6-62-47.4-64.69-55-84.8-59.92-32.07-7.92-64,2.6-77.74,7.56-4.4,1.59-9.63,3.47-15.21,5.93a143.53,143.53,0,0,0-27.89,16.2c-21.94,16.24-34,35-43,49.21C-264,378.32-282.58,410-284,450.65c-.66,18.8,2.24,26.12-1.06,47.53-2.73,17.79-5,31.2-14.66,42.77-13,15.57-33.33,21.25-51.57,26.14-17.08,4.58-23.93,3.71-31.22,10.82-9.6,9.36-10.92,24.42-10.41,36.08,16.29,51.55,41.79,87.89,61,109.89C-306,753.53-284,777.45-248.82,786.68Z" transform="translate(608.76 -78.17)"/><path class="q" d="M-240.58,778.67c23.48,6.09,29-.47,95.57-2.88,35.36-1.28,54-1.41,63.85-.33A63.08,63.08,0,0,1-69.93,778C-47.67,785.2-45,793.59-10,810.3,8.82,819.23,21.5,825,36.41,826.57c2,.21,4,.28,6,.39,6.34.37,21,.23,52.26-14.69,31.94-15.24,56.16-24.73,77.49-51.66,8-10.15,25.13-34.71,26.18-66.92.74-22.48-5.66-25.19-11.9-70.07-4.76-33.77-1.36-44.84,1.67-52.27,5.36-13.15,10.83-13.88,23.94-36.62,11.18-19.39,16-31.56,16.82-47.73A81.57,81.57,0,0,0,217.57,442c-.68-1.09-1.17-2-1.56-2.5-6.06-8.17-19.23-25.69-46.83-34.32-14.16-4.43-27.16-3.3-34.58-2.75-21.24,1.59-24.34,10.52-40.94,11.7-9.3.64-17.65-1.44-27.82-6.38-6.66-3.23-13.61-7.4-22.14-12-20.21-11-33.89-22.2-46-32.4-2.28-1.91-4.61-3.65-6.84-5.39-58.67-45.52-61.44-52.9-80.75-57.8-30.78-7.78-61.58,2.4-75,7.27-4.28,1.55-9.33,3.38-14.67,5.74a138.58,138.58,0,0,0-26.9,15.68c-21.05,15.62-32.74,33.71-41.49,47.5-7.9,12.46-25.54,42.6-27.09,81.15-.72,17.87,1.95,24.91-1.26,45.22-2.66,16.93-4.86,29.7-14.06,40.74-12.35,14.87-31.63,20.39-48.92,25.15-16.15,4.44-22.66,3.7-29.56,10.51-9.08,9-10.33,23.29-9.84,34.4,15.43,49.22,39.79,84.06,58.37,105.24C-295.45,747-274.26,769.86-240.58,778.67Z" transform="translate(608.76 -78.17)"/><path class="r" d="M-232.35,770.66c22.56,5.84,28.12-.35,91.14-2.75,33.65-1.29,51.41-1.58,60.83-.63a65.19,65.19,0,0,1,10.71,2.32c21.2,6.68,24,14.6,57.23,30.34,17.92,8.41,30.07,13.82,44.32,15.38,1.88.2,3.79.27,5.75.39,6.24.39,20.22.28,49.84-13.58,30.42-14.23,53.51-22.84,74.06-48.22,7.74-9.57,24-32.73,25.19-63.11.84-21.22-5-23.85-10.74-66.21-4.37-31.86-1.08-42.37,1.84-49.48,5.12-12.45,10.33-13.22,22.69-34.74,10.67-18.59,15.16-30.41,15.8-45.95a78.16,78.16,0,0,0-11.24-43.17c-.65-1-1.13-1.87-1.53-2.39-6-7.92-18.63-24.29-45.2-32.66-13.42-4.23-25.82-3.29-33-2.84-20.15,1.24-23.24,9.63-39,10.54-8.86.52-16.8-1.55-26.43-6.35-6.35-3.17-12.92-7.22-21-11.67C19.84,395.3,7,384.54-4.58,374.57c-2.15-1.85-4.35-3.52-6.48-5.2-55.38-43.62-58.19-50.83-76.69-55.66-29.48-7.65-59.19,2.16-72.26,7-4.17,1.52-9,3.31-14.13,5.57A133.58,133.58,0,0,0-200,341.38c-20.18,15-31.45,32.38-40,45.8-7.63,12-24.37,40.55-26,77-.76,16.95,1.67,23.7-1.43,42.93-2.58,16.07-4.73,28.21-13.46,38.7C-292.67,560-310.89,565.41-327.22,570c-15.23,4.3-21.38,3.7-27.9,10.2-8.55,8.54-9.74,22.15-9.27,32.74,14.58,46.87,37.79,80.21,55.71,100.58C-284.91,740.51-264.53,762.26-232.35,770.66Z" transform="translate(608.76 -78.17)"/><path class="s" d="M-224.12,762.65c21.63,5.56,27.28-.24,86.71-2.63,31.94-1.28,48.87-1.75,57.81-.92a63.41,63.41,0,0,1,10.19,2.13c20.14,6.15,23.07,13.64,54.58,28.33,17,7.93,28.61,13,42.19,14.48,1.78.2,3.6.26,5.46.39,6.14.41,19.43.34,47.42-12.47,28.91-13.23,50.9-21,70.66-44.78,7.44-9,22.83-30.73,24.18-59.27.95-20-4.34-22.54-9.54-62.36-4-30-.8-39.91,2-46.7,4.88-11.76,9.82-12.58,21.43-32.88,10.16-17.77,14.3-29.25,14.79-44.16a74.71,74.71,0,0,0-11.15-41.28c-.63-1-1.08-1.78-1.47-2.28-6-7.69-18-22.89-43.59-31-12.67-4-24.47-3.28-31.4-2.94-19,.92-22.13,8.76-37.1,9.43-8.4.36-15.94-1.69-25-6.34-6-3.09-12.23-7-19.81-11.31C16.3,405.92,4.3,395.6-6.76,385.84c-2-1.78-4.1-3.4-6.11-5C-65,339.11-67.82,332-85.51,327.31c-28.17-7.53-56.79,1.93-69.53,6.64-4.06,1.5-8.73,3.23-13.58,5.38A129.22,129.22,0,0,0-193.54,354c-19.28,14.38-30.15,31.05-38.52,44.09-7.36,11.48-23.19,38.52-24.91,72.94-.8,16,1.38,22.48-1.62,40.62-2.51,15.2-4.61,26.7-12.86,36.66-11.1,13.47-28.27,18.73-43.62,23.2-14.31,4.16-20.1,3.69-26.23,9.89-8,8.14-9.16,21-8.71,31.07,13.71,44.54,35.78,76.38,53.06,95.93C-274.37,734-254.82,754.67-224.12,762.65Z" transform="translate(608.76 -78.17)"/><path class="t" d="M-215.89,754.61c20.69,5.3,26.43-.12,82.26-2.5,30.23-1.28,46.33-1.91,54.79-1.21a63.71,63.71,0,0,1,9.67,2c19.08,5.61,22.13,12.62,51.92,26.33,16.07,7.4,27.15,12.14,40.07,13.61,1.69.19,3.42.25,5.18.38,6,.43,18.63.4,45-11.35,27.39-12.21,48.25-19.09,67.23-41.36,7.14-8.38,21.69-28.74,23.18-55.46,1-18.72-3.68-21.22-8.38-58.52-3.61-28.06-.53-37.46,2.18-43.91,4.65-11.07,9.32-11.94,20.18-31,9.65-17,13.44-28.1,13.78-42.4a71.44,71.44,0,0,0-11-39.4c-.61-.93-1.07-1.69-1.44-2.17-6-7.46-17.42-21.49-42-29.37-11.92-3.82-23.11-3.26-29.8-3-18,.6-21,7.9-35.19,8.3-7.93.22-15.1-1.8-23.65-6.32-5.75-3-11.54-6.84-18.66-11-16.76-9.7-27.91-19.59-38.45-29.13-1.89-1.72-3.86-3.27-5.74-4.83-48.82-39.82-51.7-46.73-68.59-51.39-26.88-7.38-54.4,1.71-66.79,6.33-3.94,1.47-8.43,3.15-13,5.21a124.62,124.62,0,0,0-23.91,14.09c-18.39,13.75-28.86,29.71-37,42.39-7.08,11-22,36.48-23.82,68.83-.84,15.11,1.09,21.27-1.8,38.34-2.42,14.32-4.47,25.2-12.26,34.62-10.47,12.76-26.56,17.87-41,22.2-13.39,4-18.83,3.67-24.57,9.58-7.52,7.73-8.57,19.88-8.12,29.38,12.85,42.2,33.78,72.55,50.37,91.28C-263.83,727.5-245.1,747.07-215.89,754.61Z" transform="translate(608.76 -78.17)"/><path class="u" d="M-207.65,746.63c19.76,5,25.59,0,77.82-2.37,28.51-1.29,43.78-2.09,51.77-1.52a61.86,61.86,0,0,1,9.15,1.77c18,5.08,21.2,11.6,49.25,24.32,15.17,6.88,25.72,11.29,38,12.72,1.61.18,3.24.24,4.91.37,5.93.44,17.84.47,42.57-10.24,25.88-11.21,45.61-17.21,63.8-37.92,6.84-7.79,20.56-26.77,22.19-51.64,1.15-17.46-3-19.88-7.21-54.67-3.22-26.15-.24-35,2.36-41.11,4.4-10.38,8.81-11.3,18.92-29.14,9.15-16.16,12.59-27,12.77-40.6a68.16,68.16,0,0,0-10.93-37.52c-.6-.87-1-1.6-1.42-2-6-7.23-16.83-20.09-40.38-27.73-11.18-3.61-21.76-3.25-28.22-3.15-16.85.29-19.94,7-33.27,7.17-7.47.08-14.24-1.91-22.26-6.29-5.44-3-10.85-6.64-17.5-10.59C9,427.18-1.29,417.73-11.29,408.39c-1.77-1.65-3.61-3.13-5.4-4.62-45.53-37.91-48.46-44.67-64.53-49.25-25.59-7.25-52,1.47-64.05,6-3.84,1.44-8.15,3.07-12.52,5a119.5,119.5,0,0,0-22.92,13.58c-17.51,13.13-27.57,28.38-35.55,40.68-6.81,10.5-20.87,34.46-22.73,64.73-.88,14.18.81,20.05-2,36-2.34,13.45-4.35,23.68-11.66,32.57-9.85,12.07-24.87,17-38.34,21.22-12.47,3.88-17.55,3.67-22.91,9.28-7,7.31-8,18.74-7.56,27.72,12,39.85,31.78,68.71,47.71,86.63C-253.3,721-235.38,739.48-207.65,746.63Z" transform="translate(608.76 -78.17)"/><path class="v" d="M-199.41,738.62c18.82,4.77,24.74.1,73.38-2.25,26.8-1.29,41.24-2.25,48.74-1.81a61.42,61.42,0,0,1,8.64,1.6c17,4.55,20.26,10.58,46.59,22.33C-7.81,764.84,2.19,769,13.78,770.32c1.53.18,3.06.23,4.62.36,5.81.48,17,.54,40.15-9.13,24.38-10.19,43-15.32,60.38-34.48,6.54-7.2,19.4-24.76,21.18-47.82,1.26-16.21-2.34-18.55-6-50.82-2.83-24.23.06-32.51,2.54-38.33,4.15-9.68,8.31-10.65,17.66-27.26C162.92,547.49,166,537,166,524a65,65,0,0,0-10.83-35.63c-.58-.83-1-1.51-1.36-2-6-7-16.23-18.68-38.77-26.08-10.43-3.41-20.4-3.23-26.62-3.24-15.75,0-18.84,6.14-31.35,6-7-.06-13.39-2-20.89-6.26-5.13-2.9-10.16-6.46-16.33-10.23-14.46-8.84-23-18.93-33.41-27-1.79-1.39-3.36-3-5-4.42-42.26-36-45.22-42.62-60.48-47.12-24.28-7.12-49.62,1.25-61.32,5.71-3.72,1.4-7.84,3-12,4.85a113.47,113.47,0,0,0-21.93,13c-16.63,12.51-26.28,27-34.07,39-6.54,10-19.68,32.41-21.62,60.61-.92,13.26.52,18.84-2.16,33.74-2.27,12.59-4.23,22.19-11.06,30.54-9.22,11.37-23.18,16.18-35.69,20.23-11.55,3.74-16.28,3.66-21.25,9-6.47,6.92-7.39,17.61-7,26.06,11.1,37.48,29.75,64.85,45,82C-242.77,714.47-225.66,731.88-199.41,738.62Z" transform="translate(608.76 -78.17)"/><path class="w" d="M-191.18,730.61c17.89,4.5,23.89.21,68.94-2.12,25.09-1.3,38.7-2.43,45.72-2.11a60.31,60.31,0,0,1,8.11,1.4c15.9,4,19.33,9.56,43.92,20.32C-11.16,754-1.7,757.72,9.23,759.05c1.43.17,2.87.23,4.34.36,5.71.51,16.26.59,37.72-8,22.88-9.19,40.34-13.44,57-31.06,6.24-6.61,18.24-22.77,20.18-44,1.36-15-1.68-17.23-4.86-47-2.46-22.34.34-30,2.71-35.54,3.91-9,7.8-10,16.41-25.4,8.13-14.53,10.87-24.63,10.74-37a61.71,61.71,0,0,0-10.73-33.75c-.55-.77-.95-1.42-1.32-1.83-5.94-6.76-15.62-17.29-37.15-24.44-9.69-3.2-19-3.21-25-3.34-14.65-.29-17.74,5.27-29.43,4.91-6.56-.21-12.54-2.16-19.49-6.25-4.82-2.84-9.49-6.29-15.17-9.87-13.31-8.4-21-18.06-30.89-25.9-1.67-1.32-3.11-2.86-4.67-4.22-39-34.08-42-40.56-56.43-45-23-7-47.22,1-58.59,5.38-3.6,1.38-7.54,2.91-11.43,4.68a109.59,109.59,0,0,0-20.94,12.52c-15.73,11.89-25,25.71-32.58,37.26-6.26,9.53-18.51,30.38-20.54,56.53-1,12.33.23,17.61-2.36,31.42-2.19,11.72-4.1,20.69-10.45,28.5-8.6,10.67-21.5,15.34-33,19.25-10.63,3.61-15,3.65-19.58,8.65-6,6.51-6.82,16.46-6.43,24.39a201.36,201.36,0,0,0,42.36,77.34C-232.24,708-215.94,724.29-191.18,730.61Z" transform="translate(608.76 -78.17)"/><path class="x" d="M-182.95,722.6c17,4.23,23.06.31,64.5-2,23.38-1.3,36.16-2.59,42.71-2.41a63.11,63.11,0,0,1,7.59,1.22c14.83,3.52,18.39,8.55,41.25,18.33,12.42,5.31,21.34,8.78,31.6,10.06,1.33.16,2.69.22,4.06.35,5.6.54,15.47.67,35.29-6.91,21.39-8.17,37.7-11.56,53.55-27.61,5.94-6,17.1-20.78,19.18-40.18,1.47-13.69-1-15.9-3.68-43.11-2-20.46.61-27.6,2.89-32.75,3.66-8.31,7.28-9.37,15.15-23.53,7.62-13.73,10-23.48,9.73-35.24A58.5,58.5,0,0,0,130.24,507a19.56,19.56,0,0,0-1.27-1.72c-6.31-6.17-15-15.88-35.55-22.79-8.92-3-17.69-3.2-23.43-3.43-13.54-.56-16.65,4.38-27.52,3.78-6.1-.36-11.69-2.29-18.12-6.25-4.54-2.79-8.79-6.09-14-9.51-12.16-8-18.95-17.17-28.37-24.81-1.56-1.26-2.88-2.74-4.31-4-35.71-32.13-38.73-38.5-52.37-42.83-21.69-6.87-44.83.78-55.86,5.07-3.48,1.35-7.25,2.83-10.89,4.5a104.35,104.35,0,0,0-19.94,12c-14.84,11.27-23.67,24.4-31.09,35.56-6,9-17.34,28.35-19.45,52.42-1,11.42-.05,16.4-2.53,29.14-2.12,10.84-4,19.18-9.84,26.45-8,10-19.81,14.49-30.41,18.27-9.7,3.45-13.73,3.63-17.91,8.34-5.43,6.1-6.21,15.32-5.86,22.72a185.57,185.57,0,0,0,39.71,72.67C-221.7,701.45-206.21,716.71-182.95,722.6Z" transform="translate(608.76 -78.17)"/></svg>