<svg width="304" height="209" viewBox="0 0 304 209" fill="none" xmlns="http://www.w3.org/2000/svg">
	<path fill-rule="evenodd" clip-rule="evenodd" d="M152 144C190.66 144 222 112.66 222 74C222 35.3401 190.66 4 152 4C113.34 4 82 35.3401 82 74C82 112.66 113.34 144 152 144Z" stroke="#8C61E1" stroke-width="8" stroke-linecap="round" stroke-linejoin="round" stroke-dasharray="0.25 16" />
	<path fill-rule="evenodd" clip-rule="evenodd" d="M152 124C179.614 124 202 101.614 202 74C202 46.3858 179.614 24 152 24C124.386 24 102 46.3858 102 74C102 101.614 124.386 124 152 124Z" stroke="#6CEDFF" stroke-width="12" stroke-dasharray="4 6" />
	<path d="M37.0374 206.585C55.8368 206.585 71.0768 166.254 71.0768 116.504C71.0768 66.7535 55.8368 26.4229 37.0374 26.4229C18.238 26.4229 2.99805 66.7535 2.99805 116.504C2.99805 166.254 18.238 206.585 37.0374 206.585Z" fill="url(#paint0_linear_1878_7201)" />
	<path fill-rule="evenodd" clip-rule="evenodd" d="M10.095 52.0974C3.58264 69.2973 0 92.2028 0 116.497C0 140.797 3.58264 163.668 10.095 180.903C17.0455 199.283 26.35 209 37.0292 209C47.7084 209 57.0215 199.289 63.9634 180.903C70.4758 163.703 74.067 140.804 74.067 116.503C74.067 92.2028 70.4758 69.332 63.9634 52.0974C57.0215 33.7175 47.6998 24 37.0292 24C26.3586 24 17.0455 33.7175 10.095 52.0974ZM58.2443 53.4986C64.5848 70.289 68.0815 92.66 68.0815 116.496V116.503C68.0815 140.338 64.5848 162.702 58.2443 179.493C52.4021 194.943 44.4894 204.161 37.032 204.161C29.5746 204.161 21.6618 194.943 15.8282 179.493C9.47915 162.702 5.98242 140.324 5.98242 116.496C5.98242 92.667 9.47915 70.2959 15.8282 53.5055C21.6618 38.0547 29.566 28.8301 37.032 28.8301C44.4979 28.8301 52.4021 38.0478 58.2443 53.4986Z" fill="url(#paint1_linear_1878_7201)" />
	<path d="M266.963 206.584C285.763 206.584 301.003 166.253 301.003 116.503C301.003 66.7525 285.763 26.4219 266.963 26.4219C248.164 26.4219 232.924 66.7525 232.924 116.503C232.924 166.253 248.164 206.584 266.963 206.584Z" fill="url(#paint2_linear_1878_7201)" />
	<path fill-rule="evenodd" clip-rule="evenodd" d="M266.954 209C277.633 209 286.947 199.289 293.888 180.903C300.384 163.668 304.001 140.79 304.001 116.497C304.001 92.2028 300.409 69.332 293.897 52.0974C286.955 33.7175 277.633 24 266.963 24C256.292 24 246.979 33.7175 240.029 52.0974C233.516 69.3043 229.934 92.2098 229.934 116.503C229.934 140.797 233.508 163.668 240.02 180.903C246.97 199.283 256.275 209 266.954 209ZM266.981 204.183C259.524 204.183 251.611 194.965 245.778 179.514L245.752 179.493C239.386 162.703 235.949 140.339 235.949 116.503C235.949 92.6675 239.386 70.2965 245.752 53.5061C251.586 38.0553 259.516 28.8584 266.981 28.8584C274.447 28.8584 282.352 38.0761 288.194 53.5269C294.534 70.3173 298.031 92.6814 298.031 116.517C298.031 140.353 294.534 162.724 288.194 179.514C282.352 194.965 274.439 204.183 266.981 204.183Z" fill="url(#paint3_linear_1878_7201)" />
	<path d="M289.809 99.5201C293.915 99.151 295.401 99.2002 297.557 99.4433C298.878 131.368 297.623 147.956 290.046 174.141C290.046 174.141 282.088 172.868 279.156 172.052C274.808 170.979 270.495 169.786 266.114 168.832C265.676 168.738 265.255 168.585 264.816 168.449C264.636 168.15 263.536 166.634 263.846 166.421C266.784 164.436 267.995 159.768 270.298 157.05C272.179 154.835 272.944 151.129 274.508 148.684C276.225 145.938 277.719 143.061 278.975 140.08C280.874 135.905 278.777 133.009 279.723 128.519C280.848 123.152 284.207 120.298 283.932 114.744C283.726 110.484 281.278 106.898 280.711 102.698C280.599 101.846 282.472 101.079 282.944 100.236C283.443 100.023 289.371 99.9716 289.809 99.5201Z" fill="#9F9CB3" />
	<path d="M203.799 95.8485C208.524 97.8505 213.558 98.4043 218.593 99.0262C222.425 99.4862 226.257 100.006 230.097 100.423C233.74 100.824 237.391 101.105 241.034 101.505C246.286 102.03 251.564 102.249 256.842 102.161C262.358 102.161 267.848 101.548 273.338 101.02L286.732 99.7333C287.746 99.5475 288.778 99.476 289.808 99.5203C289.37 99.9718 288.76 99.597 288.227 99.8866C287.754 100.739 288.227 101.59 288.373 102.442C288.931 106.642 289.181 110.851 289.387 115.076C289.515 120.559 288.937 126.036 287.668 131.373C286.616 135.824 285.075 140.146 283.072 144.263C281.625 147.55 279.943 150.73 278.037 153.779C276.458 156.208 274.71 158.525 272.805 160.713C270.536 163.407 267.909 165.783 264.996 167.776C264.686 167.989 264.626 168.176 264.807 168.474C261.765 167.921 258.793 167.052 255.837 166.234C247.13 163.705 238.658 160.436 230.518 156.462C219.078 151.176 208.023 145.107 197.432 138.3C192.166 134.713 187.109 130.833 182.286 126.679C177.191 122.462 172.294 118.024 167.293 113.713C165.94 112.572 164.703 111.302 163.599 109.922C161.993 107.869 160.257 105.978 157.645 104.981L156.503 105.893C157.104 104.555 153.453 101.497 154.449 100.534C157.19 97.8846 161.666 95.0903 164.372 92.4153C165.395 91.4015 164.209 89.8596 164.372 88.7265C164.871 85.0718 161.331 85.37 163.625 82.5757C164.304 81.7238 160.437 82.6353 161.151 81.843C161.614 81.3148 161.872 82.056 161.64 81.3489C161.408 80.6418 162.19 81.6726 161.64 81.596C159.432 81.2637 155.42 77.6175 153.461 76.1863C150.995 74.3888 160.102 66.73 160.901 63.8846C161.357 62.249 167.354 57.3419 169.828 57.9808C172.113 58.5687 170.936 59.2076 173.265 58.9691C175.146 58.7731 176.83 59.4973 178.72 59.4547C180.067 59.4275 181.382 59.864 182.44 60.6899C182.603 60.1703 183.634 63.169 184.004 62.9049C184.364 63.9478 185.173 64.778 186.212 65.171C189.766 66.7313 192.394 69.8312 193.334 73.5709C194.047 76.3652 195.388 78.9891 195.181 81.9964C195.053 83.4546 194.814 84.9012 194.468 86.3241C194.265 87.0355 194.398 87.7996 194.829 88.4028C196.547 90.8137 198.154 93.378 201.101 94.5877" fill="#B3AFCB" />
	<path d="M165.406 42.3135C167.056 40.7545 170.218 40.7971 172.142 42.2198C175.226 44.5029 175.854 47.8169 176.343 51.2757C176.661 53.5588 177.486 55.663 180.106 56.3361C181.026 56.5746 181.344 57.3924 181.825 58.0399C183.002 59.4626 184.101 60.9535 183.998 62.9384C183.644 63.2498 183.405 63.6696 183.32 64.1311C182.437 63.3951 181.286 63.0557 180.141 63.194C178.251 63.194 176.378 63.4751 174.496 63.6625C172.149 63.7972 169.797 63.5086 167.554 62.8106C165.08 62.1717 163.68 63.3388 163.259 64.966C162.46 67.8114 164.753 73.2211 167.219 75.0101C169.178 76.4413 171.515 76.3305 173.697 76.6628C174.247 76.7395 174.857 76.535 175.115 77.3102C175.355 77.9353 175.203 78.6417 174.728 79.1163C174.015 79.9086 173.268 80.6753 172.597 81.4932C170.219 84.1718 168.65 87.461 168.07 90.9835C167.915 92.1336 168.156 93.4115 167.133 94.3912C164.427 97.0662 164.126 98.1055 161.377 100.755C160.38 101.718 158.258 103.6 157.657 104.929C148.352 113.832 136.952 122.564 126.59 130.189C118.749 135.776 110.446 140.698 101.769 144.901C89.0283 151.316 76.1411 157.22 62.6096 161.693C56.4923 163.661 50.2644 165.274 43.9575 166.523C43.8201 166.378 39.5071 167.273 39.3353 167.187C34.8592 164.751 32.4621 163.413 29.163 159.563C25.6749 155.516 24.137 152.747 21.7228 148.002C19.4461 143.521 17.0147 135.581 15.5284 130.785C12.8307 122.096 12.1949 112.307 12.0488 103.234C12.0488 101.437 12.0488 99.0597 13.2344 97.5348C17.8567 97.6711 22.4445 98.2163 27.0409 98.6422C36.3713 99.4942 45.7016 100.295 55.0921 100.022C56.8619 99.9712 58.6403 100.184 60.4102 100.184C73.7957 100.184 87.1468 99.5964 100.36 97.2707C103.863 96.6916 107.273 95.6516 110.498 94.1782C113.179 92.9259 116.1 92.2018 118.592 90.5405C120.075 89.6077 121.475 88.5502 122.776 87.3799C122.175 85.7006 121.343 84.1122 120.301 82.6603C118.643 80.4964 118.325 77.8299 117.921 75.2571C117.426 71.8528 117.569 68.387 118.342 65.0341C118.933 62.0418 120.956 59.5217 123.764 58.2784C124.803 57.7928 125.911 57.2987 126.994 58.2784C127.424 58.8833 129.571 57.7162 129.623 58.4999C129.812 60.4764 130.723 60.3997 132.845 61.209C133.78 61.6534 134.692 62.1453 135.577 62.6828C137.733 63.9011 136.805 62.1121 139.297 62.1887C142.673 62.291 142.27 62.8703 144.005 59.7267C144.581 58.6959 149.65 58.2358 150.706 58.4999C151.763 58.764 152.425 58.3892 153.439 58.2529C158.593 57.5543 156.488 56.9494 159.633 52.3491C162.331 48.4132 161.532 47.3398 160.131 43.4977C159.882 42.7906 165.321 43.0717 165.406 42.3135Z" fill="#87879F" />
	<path d="M165.405 42.3138C165.42 43.0239 165.609 43.7197 165.955 44.3414C167.356 48.1835 168.215 51.8638 165.517 55.8082C162.373 60.4 158.025 62.2316 152.836 62.9302C151.872 63.122 150.879 63.122 149.915 62.9302C148.936 62.6279 147.885 63.1154 147.492 64.0547C145.774 67.1983 142.801 68.3143 139.425 68.2291C136.933 68.1524 134.674 67.0109 132.552 65.7926C131.974 65.4023 131.368 65.0549 130.739 64.7533C128.617 63.9525 127.981 62.1976 127.792 60.2296C127.726 59.5031 127.461 58.8081 127.027 58.2191C127.766 55.2033 130.533 54.0873 132.655 52.4175C134.642 50.9589 136.742 49.6571 138.935 48.5243C139.962 47.8433 140.82 46.9404 141.444 45.8833C143.162 43.4895 144.983 41.1211 147.844 39.9199C151.281 38.4887 154.829 37.5516 158.661 38.2672C160.113 38.5398 160.861 39.6132 161.874 40.3885C162.918 41.2454 164.116 41.8987 165.405 42.3138Z" fill="#B3AFCB" />
	<path d="M13.2343 97.5359C13.2343 99.342 13.2343 101.14 13.2343 102.937C13.3009 111.971 14.6634 120.949 17.2808 129.602C18.7443 134.405 20.6153 139.076 22.8739 143.565C25.3278 148.274 28.3482 152.671 31.8691 156.659C35.1549 160.479 39.1141 163.675 43.5535 166.09C43.7253 166.183 43.8284 166.379 43.9659 166.524C36.2336 168.185 28.6216 170.239 20.8377 171.636C19.0762 172.048 17.8772 172.719 13.2343 172.719C6.78987 147.82 4.29104 130.162 6.79048 97.5361C6.79048 97.5361 10.8458 97.1781 13.2343 97.5359Z" fill="#7C7C91" />
	<defs>
		<linearGradient id="paint0_linear_1878_7201" x1="68.8123" y1="39.2986" x2="10.5535" y2="39.3284" gradientUnits="userSpaceOnUse">
			<stop offset="0.27" stop-color="#5E5544" />
			<stop offset="1" stop-color="#383837" />
		</linearGradient>
		<linearGradient id="paint1_linear_1878_7201" x1="37.0335" y1="24" x2="37.0335" y2="209" gradientUnits="userSpaceOnUse">
			<stop stop-color="#99F5CB" />
			<stop offset="1" stop-color="#2EBF8B" />
		</linearGradient>
		<linearGradient id="paint2_linear_1878_7201" x1="235.11" y1="193.461" x2="293.36" y2="193.491" gradientUnits="userSpaceOnUse">
			<stop offset="0.27" stop-color="#5E5544" />
			<stop offset="1" stop-color="#383837" />
		</linearGradient>
		<linearGradient id="paint3_linear_1878_7201" x1="266.967" y1="24" x2="266.967" y2="209" gradientUnits="userSpaceOnUse">
			<stop stop-color="#99F5CB" />
			<stop offset="1" stop-color="#2EBF8B" />
		</linearGradient>
	</defs>
</svg>
	