<svg width="416" height="134" viewBox="0 0 416 134" fill="none" xmlns="http://www.w3.org/2000/svg">
	<g filter="url(#filter0_d_1878_7223)">
		<path d="M58.0947 109.92C58.4947 111.68 58.0947 112.6 56.8947 112.68C55.3747 112.84 50.6947 112.8 42.8547 112.56C41.9747 112.56 41.4547 111.48 41.2947 109.32C40.8947 103.88 40.6947 97.84 40.6947 91.2C40.6947 79.12 38.5747 73.08 34.3347 73.08C33.7747 72.92 33.2947 72.92 32.8947 73.08C32.3347 73.32 32.0547 74.2 32.0547 75.72C32.0547 88.28 32.0147 99.32 31.9347 108.84C31.9347 110.92 31.4947 112 30.6147 112.08C26.2947 112.56 22.1747 112.64 18.2547 112.32C17.2947 112.24 16.8147 111.08 16.8147 108.84L17.0547 16.44C17.0547 15 17.7747 14.28 19.2147 14.28C23.6147 14.28 29.6147 14.24 37.2147 14.16C42.1747 14.16 46.3747 15.2 49.8147 17.28C53.5747 19.6 55.4547 22.68 55.4547 26.52L55.3347 50.16C55.3347 54.08 54.1747 57.44 51.8547 60.24C50.2547 62.24 48.4547 63.6 46.4547 64.32C45.8147 64.56 45.4947 64.8 45.4947 65.04C45.4947 65.2 45.8147 65.4 46.4547 65.64C47.9747 66.12 49.5747 67.12 51.2547 68.64C55.0147 71.92 56.8947 79.88 56.8947 92.52C56.8947 100.6 57.2947 106.4 58.0947 109.92ZM40.8147 36.72C40.8147 31.44 39.0547 28.92 35.5347 29.16C34.7347 29.24 34.1347 29.28 33.7347 29.28C33.0147 29.28 32.6547 29.96 32.6547 31.32C32.6547 31.32 32.6547 38.36 32.6547 52.44C32.6547 54.68 33.2147 55.84 34.3347 55.92C34.7347 56 35.2147 56 35.7747 55.92C37.5347 55.92 38.7347 55.04 39.3747 53.28C40.3347 50.72 40.8147 45.2 40.8147 36.72ZM96.4778 110.88C96.4778 111.84 95.8378 112.36 94.5578 112.44C83.5178 113 73.4778 112.92 64.4378 112.2C63.5578 112.12 63.1178 111.36 63.1178 109.92L62.9978 16.2C62.9978 15.32 63.4378 14.88 64.3178 14.88C70.4778 14.8 80.4378 14.84 94.1978 15C95.4778 15 96.1178 15.48 96.1178 16.44C96.1178 17.72 96.1178 19.88 96.1178 22.92C96.0378 26.68 95.9978 29.08 95.9978 30.12C95.9978 31.08 95.5578 31.56 94.6778 31.56C91.4778 31.56 86.8778 31.56 80.8778 31.56C79.6778 31.56 79.0778 32 79.0778 32.88C79.0778 33.28 79.0378 36.12 78.9578 41.4C78.8778 45.88 78.8778 49.24 78.9578 51.48C78.9578 52.36 79.4378 52.88 80.3978 53.04C82.0778 53.28 85.7978 53.32 91.5578 53.16C92.5978 53.16 93.1578 53.64 93.2378 54.6C93.3178 56.04 93.2778 58.72 93.1178 62.64C92.9578 67.2 92.8778 69.88 92.8778 70.68C92.8778 71.8 92.4378 72.36 91.5578 72.36C91.5578 72.36 87.9578 72.36 80.7578 72.36C79.9578 72.36 79.4778 72.96 79.3178 74.16C78.9178 77.52 78.8378 83.88 79.0778 93.24C79.0778 94.28 79.7978 94.88 81.2378 95.04C84.3578 94.96 88.7578 94.88 94.4378 94.8C95.7178 94.8 96.3578 95.32 96.3578 96.36C96.3578 102.84 96.3978 107.68 96.4778 110.88ZM149.095 111.96C149.175 112.44 148.815 112.68 148.015 112.68C146.895 112.68 144.815 112.68 141.775 112.68C138.735 112.6 136.095 112.56 133.855 112.56C133.135 112.56 132.215 109.96 131.095 104.76C130.295 100.84 129.695 97.48 129.295 94.68C129.215 94.12 128.775 93.84 127.975 93.84C124.855 93.84 123.295 93.84 123.295 93.84C122.735 93.84 122.375 94.12 122.215 94.68C121.495 99.48 120.535 105.04 119.335 111.36C119.015 112.08 118.655 112.44 118.255 112.44H103.495C102.215 112.44 101.695 111.96 101.935 111C104.655 94.68 107.375 78.32 110.095 61.92C115.455 30.4 118.655 14.6 119.695 14.52C124.015 14.28 128.335 14.28 132.655 14.52C133.615 14.6 136.575 30.44 141.535 62.04C144.095 78.68 146.615 95.32 149.095 111.96ZM128.215 78.72C127.015 69.6 126.255 65.04 125.935 65.04C125.535 65.04 125.055 67 124.495 70.92C124.175 73.48 123.855 76.08 123.535 78.72C123.455 78.96 123.815 79.16 124.615 79.32C125.495 79.4 126.295 79.4 127.015 79.32C127.815 79.24 128.215 79.04 128.215 78.72ZM194.247 86.52C194.247 93.88 192.687 99.92 189.567 104.64C186.047 110 180.927 112.68 174.207 112.68C166.367 112.68 160.927 109.32 157.887 102.6C155.807 97.96 154.767 90.88 154.767 81.36V35.04C154.767 30.8 155.927 26.56 158.247 22.32C161.767 15.84 167.087 12.6 174.207 12.6C181.807 12.6 187.247 15.48 190.527 21.24C193.167 25.64 194.407 31.52 194.247 38.88C194.247 41.28 194.207 43.12 194.127 44.4C194.047 45.68 193.447 46.4 192.327 46.56C191.207 46.72 189.207 46.76 186.327 46.68C182.327 46.52 180.527 46.44 180.927 46.44C179.487 46.44 178.727 45.76 178.647 44.4C178.647 41.52 178.647 38.68 178.647 35.88C178.167 31.72 176.687 29.64 174.207 29.64C170.927 29.64 169.287 36.76 169.287 51V85.08C169.287 87.32 169.607 89.44 170.247 91.44C171.127 94.24 172.447 95.64 174.207 95.64C177.327 95.64 178.887 91.44 178.887 83.04C178.887 82.08 178.887 80.96 178.887 79.68C178.807 78.32 178.767 77.52 178.767 77.28C178.767 75.84 179.327 75.12 180.447 75.12C185.487 75.12 189.487 75.16 192.447 75.24C193.647 75.24 194.247 75.92 194.247 77.28C194.327 79.36 194.327 82.44 194.247 86.52ZM238.77 16.92C238.93 25.32 238.89 41.92 238.65 66.72C238.41 93.12 238.29 107.44 238.29 109.68C238.29 110.88 237.53 111.6 236.01 111.84C234.57 112.16 232.69 112.28 230.37 112.2C227.81 112.12 226.21 112.12 225.57 112.2C224.53 112.28 224.01 111.28 224.01 109.2L224.13 72.12C224.05 71.08 223.53 70.48 222.57 70.32C221.77 70.16 219.61 70.16 216.09 70.32C215.45 70.32 215.09 70.92 215.01 72.12C215.09 81.96 214.97 94.4 214.65 109.44C214.57 110.88 213.49 111.72 211.41 111.96C208.05 112.44 204.69 112.52 201.33 112.2C200.13 112.12 199.49 111.2 199.41 109.44C198.61 89.36 198.53 58.52 199.17 16.92C199.17 15.56 199.57 14.88 200.37 14.88C209.09 14.88 213.45 14.88 213.45 14.88C214.65 14.96 215.25 15.64 215.25 16.92C215.25 16.84 215.17 21.8 215.01 31.8C214.85 39.4 214.85 45.32 215.01 49.56C215.01 50.28 215.05 50.76 215.13 51C215.21 51.48 215.45 51.76 215.85 51.84C217.61 52.32 219.85 52.28 222.57 51.72C223.45 51.56 223.89 50.84 223.89 49.56C223.89 40.76 223.89 29.72 223.89 16.44C223.89 15.32 224.17 14.8 224.73 14.88C228.01 14.72 232.29 14.64 237.57 14.64C238.37 14.72 238.77 15.48 238.77 16.92ZM303.87 93.24C303.87 106.68 297.47 113.4 284.67 113.4C278.03 113.4 273.27 111.72 270.39 108.36C267.67 105.24 266.31 100.2 266.31 93.24V37.68C266.31 28.96 268.07 22.76 271.59 19.08C274.47 16.04 278.83 14.52 284.67 14.52C290.91 14.52 295.47 15.84 298.35 18.48C302.03 21.84 303.87 27.76 303.87 36.24V93.24ZM288.63 87.84V39.24C288.63 34.52 287.51 32.16 285.27 32.16C282.79 32.16 281.55 34.56 281.55 39.36V87.96C281.55 90.6 281.83 92.28 282.39 93C282.95 93.64 283.91 93.96 285.27 93.96C287.51 93.96 288.63 91.92 288.63 87.84ZM352.266 16.8L352.026 91.08C352.026 95.72 351.026 99.8 349.026 103.32C345.586 109.4 339.706 112.44 331.386 112.44C322.026 112.44 315.946 110.2 313.146 105.72C311.226 102.84 310.266 97.28 310.266 89.04V16.8C310.266 16.16 310.386 15.64 310.626 15.24C310.946 14.76 311.346 14.52 311.826 14.52C311.826 14.52 316.106 14.52 324.666 14.52C326.026 14.52 326.706 15.12 326.706 16.32C326.706 19.04 326.706 31.48 326.706 53.64C326.626 75.8 326.586 86.6 326.586 86.04C326.586 92.28 328.226 95.4 331.506 95.4C334.386 95.4 335.826 92.28 335.826 86.04V16.92C335.746 15.32 336.266 14.52 337.386 14.52C345.306 14.52 349.746 14.56 350.706 14.64C351.746 14.72 352.266 15.44 352.266 16.8ZM399.113 29.16C399.113 30.28 398.433 30.84 397.073 30.84C396.513 30.84 395.313 30.8 393.473 30.72C391.713 30.72 390.273 30.72 389.153 30.72C387.473 30.72 386.633 31.32 386.633 32.52L386.873 109.92C386.873 111.2 386.433 111.88 385.553 111.96C382.673 112.36 378.113 112.32 371.873 111.84C370.833 111.76 370.313 111.08 370.313 109.8L370.193 32.4C370.193 31.28 369.713 30.72 368.753 30.72C362.833 30.72 359.873 30.72 359.873 30.72C358.593 30.64 357.953 30.08 357.953 29.04C357.953 29.92 357.873 28.28 357.713 24.12C357.553 21.4 357.633 19.28 357.953 17.76C358.273 15.68 358.993 14.64 360.113 14.64C370.033 14.56 382.393 14.56 397.193 14.64C398.313 14.64 398.913 15.36 398.993 16.8C399.153 21.76 399.193 25.88 399.113 29.16Z" fill="url(#paint0_linear_1878_7223)" />
	</g>
	<defs>
		<filter id="filter0_d_1878_7223" x="0.814453" y="0.599609" width="414.419" height="132.801" filterUnits="userSpaceOnUse" color-interpolation-filters="sRGB">
			<feFlood flood-opacity="0" result="BackgroundImageFix" />
			<feColorMatrix in="SourceAlpha" type="matrix" values="0 0 0 0 0 0 0 0 0 0 0 0 0 0 0 0 0 0 127 0" result="hardAlpha" />
			<feOffset dy="4" />
			<feGaussianBlur stdDeviation="8" />
			<feColorMatrix type="matrix" values="0 0 0 0 1 0 0 0 0 1 0 0 0 0 1 0 0 0 0.25 0" />
			<feBlend mode="normal" in2="BackgroundImageFix" result="effect1_dropShadow_1878_7223" />
			<feBlend mode="normal" in="SourceGraphic" in2="effect1_dropShadow_1878_7223" result="shape" />
		</filter>
		<linearGradient id="paint0_linear_1878_7223" x1="196.251" y1="8" x2="208.229" y2="124.285" gradientUnits="userSpaceOnUse">
			<stop stop-color="#504960" />
			<stop offset="1" stop-color="#3A3149" />
		</linearGradient>
	</defs>
</svg>