<svg width="140" height="140" viewBox="0 0 140 140" fill="none" xmlns="http://www.w3.org/2000/svg">
	<g>
		<circle cx="70" cy="66" r="50" fill="#5F45BA" />
	</g>
	<path d="M98.9654 53.6693L94.2773 47.6744C92.9002 45.9147 90.4389 45.4673 88.5637 46.6902L84.6667 49.1657C83.4068 49.9709 81.8245 50.0008 80.506 49.285L77.4001 47.5253C75.2612 46.3024 72.6534 46.4217 70.6023 47.7639L69.8698 48.2411L69.1666 47.7937C66.7347 46.3024 63.7753 46.1533 61.2554 47.4358L60.1713 48.0025C58.0616 49.0464 55.6004 48.9867 53.5493 47.8235L52.8168 47.406C50.6779 46.1831 47.9236 46.6305 46.2828 48.5393L41.0965 54.5342C40.3054 55.429 39.9245 56.5922 40.0124 57.815C40.1003 59.008 40.657 60.1116 41.5653 60.887L46.1949 64.8538L44.1145 67.1205C43.3527 67.9556 42.9425 69.0592 42.9718 70.2224C43.0011 71.3856 43.4992 72.4593 44.3196 73.2347C44.9056 73.7716 45.5795 74.1295 46.3121 74.3085C46.0484 74.905 45.9019 75.5611 45.9312 76.2471C45.9605 77.4103 46.4586 78.484 47.279 79.2595C48.0994 80.0349 49.1249 80.4227 50.1798 80.4227C50.7072 80.4227 51.2053 80.3332 51.7034 80.1244C51.8792 80.9595 52.3187 81.735 52.934 82.3315C53.7544 83.1069 54.78 83.4947 55.8348 83.4947C56.5966 83.4947 57.3291 83.2859 58.003 82.8982C58.2081 83.614 58.5891 84.2701 59.1458 84.7772C59.9662 85.5526 60.9917 85.9403 62.0465 85.9403C63.1893 85.9403 64.332 85.493 65.1524 84.5684L66.9691 82.5999L69.8405 85.0456C70.6023 85.6719 71.5107 86 72.3897 86C73.4738 86 74.5579 85.5526 75.3491 84.6579C75.7593 84.2105 76.0523 83.6736 76.1988 83.1069L77.0778 83.9122C78.8358 85.493 81.5315 85.3438 83.1137 83.614C83.6998 82.9578 84.0807 82.1525 84.1979 81.3174C85.6922 81.7946 87.4209 81.4069 88.5344 80.1244C89.5013 79.0507 89.7943 77.5594 89.472 76.2471C90.3217 76.098 91.1128 75.6506 91.6989 74.9646C92.4314 74.1593 92.783 73.0856 92.7244 71.9821C92.6658 70.8785 92.1677 69.8943 91.3472 69.1785L91.0249 68.8802L98.7896 59.9028C100.343 58.1133 100.401 55.5185 98.9654 53.6693ZM45.9019 71.475C45.5209 71.1171 45.3158 70.6101 45.2865 70.1031C45.2572 69.5662 45.4623 69.0592 45.8139 68.6715L50.4142 63.6608C50.7951 63.2432 51.3225 63.0345 51.8206 63.0345C52.2894 63.0345 52.7582 63.2134 53.1391 63.5713C53.52 63.9292 53.7251 64.4363 53.7544 64.9433C53.7837 65.4503 53.5786 65.9872 53.227 66.3749L48.6268 71.3856C48.2752 71.7733 47.8064 71.9821 47.279 72.0119C46.7809 72.0119 46.2828 71.8329 45.9019 71.475ZM48.8319 77.4998C48.451 77.1419 48.2459 76.6348 48.2166 76.1278C48.1873 75.5909 48.3924 75.0839 48.744 74.6962L55.0437 67.8363C55.7762 67.0311 57.0068 67.0012 57.7979 67.7469C58.5891 68.4925 58.6184 69.7452 57.8858 70.5505L56.5966 71.9522L54.8386 73.8611L51.5569 77.4103C50.8537 78.1857 49.623 78.2454 48.8319 77.4998ZM54.487 80.5718C54.106 80.2139 53.9009 79.7068 53.8716 79.1998C53.8423 78.663 54.0474 78.1559 54.3991 77.7682L56.538 75.4418L58.296 73.533C59.0286 72.7277 60.2592 72.6979 61.0503 73.4435C61.8414 74.1892 61.8707 75.4418 61.1382 76.2471L60.6401 76.784L58.9407 78.6331L57.2412 80.4823C56.5087 81.2578 55.2781 81.3174 54.487 80.5718ZM63.4823 82.928C62.7498 83.7333 61.5191 83.7631 60.728 83.0175C59.9369 82.2718 59.9076 81.0192 60.6401 80.2139L62.8377 77.8278C63.1893 77.4401 63.6581 77.2313 64.1855 77.2015C64.7129 77.1717 65.211 77.3805 65.5919 77.7384C66.383 78.484 66.4123 79.7367 65.6798 80.542L63.4823 82.928ZM90.0287 73.354C89.7357 73.7119 89.2962 73.8909 88.8567 73.9207C88.3879 73.9505 87.9777 73.7716 87.6261 73.4733L79.7149 65.9573C79.2461 65.51 78.5135 65.5398 78.074 66.017C77.6345 66.4942 77.6638 67.2398 78.1326 67.6872L86.7177 75.919C87.4502 76.605 87.4795 77.798 86.8349 78.5437C86.161 79.3191 84.989 79.3788 84.2272 78.663L82.85 77.3805C82.85 77.3805 82.85 77.3805 82.8207 77.3506L76.1402 71.2066C75.6714 70.7592 74.9388 70.8189 74.4993 71.2961C74.0598 71.7733 74.1184 72.5189 74.5872 72.9663L81.2678 79.1402C81.6487 79.4981 81.8831 80.0051 81.9124 80.542C81.9417 81.0788 81.7366 81.6157 81.385 82.0332C80.6525 82.8385 79.3926 82.928 78.5721 82.1824L74.9975 78.9612C74.9975 78.9612 74.9975 78.9612 74.9682 78.9314L71.5986 75.7699C71.1298 75.3523 70.3972 75.3822 69.9577 75.8594C69.5475 76.3366 69.5768 77.0822 70.0456 77.5296L73.4738 80.6314C73.7961 80.9297 74.0012 81.3472 74.0305 81.7946C74.0598 82.242 73.9133 82.6894 73.591 83.0175C72.9757 83.7034 71.9795 83.7631 71.2763 83.1666L68.229 80.5718C68.7564 78.991 68.3755 77.2015 67.1156 75.9787C66.2951 75.2032 65.211 74.7857 64.0683 74.8155C64.0097 74.8155 63.9804 74.8155 63.9218 74.8155C63.9218 73.6523 63.4823 72.5189 62.574 71.6838C61.9586 71.0873 61.1968 70.7294 60.435 70.5803C60.9917 68.9995 60.6108 67.1802 59.3216 65.9872C58.384 65.1222 57.1826 64.7345 56.0106 64.8538C56.0106 63.6906 55.4832 62.6169 54.6628 61.8414C52.9633 60.201 50.2677 60.2905 48.6561 62.0502L47.7185 63.0941L43.0011 59.0677C42.5616 58.7098 42.3272 58.2027 42.2686 57.6361C42.2393 57.0694 42.4151 56.5325 42.7667 56.0851L47.9822 50.0604C48.8905 48.9867 50.4435 48.7481 51.6448 49.4341L52.3773 49.8516C55.073 51.4026 58.3547 51.492 61.1382 50.0902L62.2516 49.5236C64.0097 48.6586 66.0021 48.6885 67.7016 49.6429L65.4747 51.1043C64.4785 51.7605 63.8046 52.8044 63.5702 53.9974C63.3358 55.1904 63.5995 56.3834 64.2734 57.3975C65.504 59.187 67.9067 59.8133 69.8112 58.8291L71.5107 57.9641C72.7999 57.308 74.3528 57.4869 75.4663 58.4414L88.5637 69.8346L89.7943 70.9084C90.1459 71.2066 90.351 71.6242 90.3803 72.1014C90.4975 72.5488 90.3217 72.9961 90.0287 73.354ZM97.0902 58.322L89.2962 67.3293L77.0778 56.6817C75.9937 55.7272 74.6165 55.25 73.2394 55.25C72.3311 55.25 71.4228 55.4588 70.573 55.9062L68.8736 56.7711C67.9653 57.2483 66.8519 56.9501 66.2658 56.0851C65.9435 55.6079 65.8263 55.0413 65.9435 54.4746C66.0607 53.9079 66.383 53.4307 66.8519 53.1026L71.8916 49.7323C73.2394 48.8376 74.9095 48.7779 76.316 49.5832L79.4219 51.3429C81.4436 52.5061 83.9635 52.4166 85.9266 51.164L89.8236 48.6885C90.7026 48.1218 91.8454 48.3305 92.49 49.1657L97.1781 55.1606C97.9106 56.0851 97.852 57.3975 97.0902 58.322Z" fill="white" />

</svg>