<svg width="24" height="24" viewBox="0 0 24 24" fill="none" xmlns="http://www.w3.org/2000/svg">
	<path fill-rule="evenodd" clip-rule="evenodd" d="M24 12.0052C24.0053 5.26918 18.5443 -0.00528766 12.0027 7.98636e-06C5.46637 -0.00528766 0.0106249 5.25329 3.12117e-05 11.9841C-0.0105625 18.6566 5.36573 23.984 11.9603 23.9999C18.5866 24.0211 24 18.6936 24 12.0052ZM8.55972 12.5295V10.1412C8.5915 10.1253 8.61798 10.1306 8.66036 10.1412H10.5195C10.6626 10.1412 10.6626 10.1412 10.6626 9.99819V8.53659C10.659 8.37419 10.6649 8.21179 10.6708 8.04939C10.6737 7.96819 10.6767 7.88699 10.6785 7.80579C10.6785 7.77402 10.6837 7.74224 10.6996 7.71047C10.7016 7.70449 10.7044 7.69925 10.707 7.69421C10.7114 7.68585 10.7155 7.67801 10.7155 7.6681C10.7047 7.58485 10.726 7.50655 10.7473 7.42813C10.7572 7.39181 10.7671 7.35547 10.7738 7.31859C10.7844 7.24975 10.8003 7.17561 10.8374 7.10676C10.8558 7.07363 10.8665 7.03537 10.8767 6.99912C10.8811 6.98322 10.8855 6.96772 10.8903 6.95319C10.9592 6.75725 11.0545 6.5825 11.1605 6.41303C11.2876 6.2065 11.4412 6.02645 11.6213 5.86758C11.8067 5.70342 12.008 5.57103 12.2251 5.45982C12.3523 5.39627 12.4794 5.34861 12.6118 5.30095C12.6577 5.28683 12.7083 5.27271 12.7589 5.25859C12.7842 5.25152 12.8095 5.24446 12.8343 5.2374C12.8841 5.21995 12.9352 5.21306 12.9857 5.20624C13.0426 5.19857 13.0988 5.19098 13.1521 5.16856C13.1786 5.15797 13.205 5.15267 13.2315 5.15267C13.3639 5.15267 13.4964 5.14208 13.6288 5.1209C13.7665 5.09971 13.9095 5.10501 14.0472 5.1209C14.1903 5.13678 14.3333 5.14738 14.4763 5.14738C14.6299 5.15267 14.7782 5.15267 14.9318 5.15267C14.9795 5.15267 15.0272 5.15267 15.0695 5.16326C15.181 5.18803 15.2925 5.19027 15.4065 5.19257C15.4387 5.19322 15.4712 5.19387 15.5039 5.19504C15.5146 5.19683 15.526 5.19741 15.5378 5.19801C15.5608 5.19918 15.5853 5.20042 15.6098 5.21092V7.37155C15.5858 7.38754 15.5588 7.38542 15.5333 7.38342C15.5251 7.38277 15.517 7.38214 15.5092 7.38214H14.1955C14.1161 7.38214 14.0366 7.38214 13.9625 7.41391C13.9498 7.42027 13.9371 7.4209 13.9244 7.42154C13.9159 7.42196 13.9074 7.42239 13.8989 7.4245C13.6288 7.46157 13.401 7.57808 13.2421 7.80579C13.1786 7.89052 13.1468 7.99114 13.115 8.09175C13.0666 8.24104 13.0673 8.39032 13.0681 8.53961C13.0683 8.58626 13.0686 8.63292 13.0673 8.67957C13.0594 9.00939 13.0604 9.34219 13.0614 9.6735C13.0617 9.78371 13.062 9.89376 13.062 10.0035V10.0511C13.0673 10.1253 13.0726 10.1306 13.1415 10.1359H13.1786H15.3503C15.3554 10.1359 15.3607 10.1357 15.3661 10.1355C15.3892 10.1346 15.4157 10.1336 15.4456 10.1465C15.4304 10.1807 15.4288 10.215 15.4272 10.2512C15.4266 10.2654 15.4259 10.2799 15.4244 10.2947C15.4244 10.3742 15.4244 10.4536 15.3926 10.5278C15.3873 10.533 15.3873 10.5383 15.3873 10.5436C15.3903 10.631 15.3755 10.7184 15.3608 10.8058C15.3488 10.8773 15.3368 10.9488 15.3344 11.0202C15.3335 11.0325 15.3328 11.0447 15.332 11.0569C15.3284 11.1187 15.3247 11.1799 15.3026 11.2374C15.2849 11.2815 15.2857 11.3293 15.2864 11.3777C15.2866 11.3874 15.2867 11.3971 15.2867 11.4068C15.2867 11.4704 15.2867 11.5286 15.2602 11.5922C15.2425 11.6364 15.2433 11.6843 15.244 11.7298C15.2442 11.7387 15.2443 11.7476 15.2443 11.7563L15.2439 11.7614C15.2387 11.8235 15.2332 11.8904 15.2125 11.9523C15.1967 12.0105 15.1967 12.0688 15.1967 12.1323C15.1967 12.1959 15.1967 12.2541 15.1702 12.3124C15.1602 12.3389 15.1607 12.3653 15.1611 12.3918C15.1613 12.4077 15.1616 12.4236 15.1596 12.4395C15.1578 12.4501 15.1578 12.4613 15.1578 12.4726C15.1578 12.4954 15.1578 12.5189 15.1437 12.5401C15.1191 12.5471 15.0923 12.5448 15.0646 12.5425C15.0505 12.5413 15.0362 12.5401 15.0219 12.5401H13.205C13.0726 12.5401 13.0673 12.5454 13.0673 12.6778V16.6019V18.7201C13.0673 18.7255 13.0675 18.7307 13.0678 18.7357C13.0686 18.7556 13.0694 18.7742 13.0567 18.7995H10.6626C10.6467 18.7758 10.6486 18.7491 10.6506 18.7216C10.6513 18.7123 10.652 18.703 10.652 18.6936V15.6539V12.6884V12.6248C10.6467 12.5719 10.6149 12.5454 10.5619 12.5401H10.4984H8.67095C8.66168 12.5401 8.65241 12.5408 8.64314 12.5414C8.61533 12.5434 8.58753 12.5454 8.55972 12.5295Z" fill="#5F45BA" />
</svg>
