<svg width="140" height="140" viewBox="0 0 140 140" fill="none" xmlns="http://www.w3.org/2000/svg">
	<g>
		<circle cx="70" cy="66" r="50" fill="#5F45BA" />
	</g>
	<path d="M96.25 39.7497C95.2564 38.7472 94.0733 37.9525 92.7696 37.4117C91.4659 36.8709 90.0677 36.5949 88.6562 36.5997H51.3438C48.4976 36.6022 45.7687 37.7339 43.7561 39.7464C41.7436 41.759 40.6119 44.4879 40.6094 47.334V72.2153C40.6119 75.0615 41.7436 77.7904 43.7561 79.8029C45.7687 81.8155 48.4976 82.9472 51.3438 82.9497H53.05V90.8715C53.0371 91.7732 53.2994 92.6573 53.8019 93.406C54.3044 94.1547 55.0232 94.7325 55.8625 95.0622C56.4077 95.2828 56.99 95.3974 57.5781 95.3997C58.1695 95.3997 58.7547 95.2792 59.2979 95.0455C59.8411 94.8118 60.3309 94.4697 60.7375 94.0403L71.875 82.9497H88.6562C91.5024 82.9472 94.2313 81.8155 96.2439 79.8029C98.2564 77.7904 99.3881 75.0615 99.3906 72.2153V47.334C99.3954 45.9249 99.1203 44.5288 98.5811 43.2268C98.042 41.9248 97.2496 40.7429 96.25 39.7497ZM96.5875 72.2153C96.5825 74.3148 95.7463 76.3269 94.2618 77.8114C92.7772 79.296 90.7651 80.1322 88.6656 80.1372H71.3031C70.932 80.137 70.5755 80.2817 70.3094 80.5403L58.75 92.0622C58.5224 92.3043 58.2266 92.4715 57.9019 92.5419C57.5771 92.6122 57.2386 92.5822 56.9312 92.4559C56.6166 92.329 56.3478 92.1096 56.1603 91.8267C55.9729 91.5439 55.8756 91.2108 55.8813 90.8715V81.4965C55.8813 81.1236 55.7331 80.7659 55.4694 80.5022C55.2056 80.2385 54.848 80.0903 54.475 80.0903H51.3438C49.2443 80.0853 47.2322 79.2491 45.7476 77.7646C44.263 76.28 43.4268 74.2679 43.4219 72.1684V47.334C43.4244 45.2338 44.2598 43.2203 45.7449 41.7352C47.23 40.2501 49.2435 39.4147 51.3438 39.4122H88.6562C90.7557 39.4171 92.7678 40.2533 94.2524 41.7379C95.737 43.2225 96.5732 45.2346 96.5781 47.334L96.5875 72.2153Z" fill="white" />
	<path d="M69.9999 43.7529C66.8498 43.7529 63.7703 44.6865 61.1504 46.4357C58.5305 48.1848 56.4878 50.6712 55.2801 53.5806C54.0725 56.4901 53.7542 59.6922 54.3653 62.7825C54.9765 65.8728 56.4897 68.7126 58.714 70.9434C60.9382 73.1741 63.7736 74.6957 66.8621 75.316C69.9505 75.9362 73.1535 75.6273 76.0665 74.4282C78.9795 73.2291 81.4719 71.1936 83.2287 68.5789C84.9856 65.9642 85.9282 62.8874 85.9374 59.7373C85.935 55.5069 84.2566 51.4497 81.2696 48.4539C78.2826 45.4581 74.2304 43.7678 69.9999 43.7529ZM69.9999 72.8998C67.4041 72.8998 64.8665 72.13 62.7081 70.6878C60.5497 69.2457 58.8674 67.1958 57.874 64.7975C56.8806 62.3992 56.6207 59.7602 57.1271 57.2142C57.6336 54.6682 58.8836 52.3296 60.7192 50.494C62.5547 48.6585 64.8934 47.4084 67.4394 46.902C69.9854 46.3956 72.6244 46.6555 75.0227 47.6489C77.4209 48.6423 79.4708 50.3245 80.913 52.4829C82.3552 54.6413 83.1249 57.1789 83.1249 59.7748C83.1101 63.2512 81.7226 66.581 79.2644 69.0392C76.8061 71.4974 73.4763 72.885 69.9999 72.8998Z" fill="white" />
	<path d="M69.4564 50.625L69.0908 50.6719C68.7316 50.6866 68.3741 50.7305 68.022 50.8031C66.8706 50.9929 65.8045 51.5292 64.9658 52.3406C64.6259 52.6763 64.4269 53.129 64.4095 53.6064C64.392 54.0838 64.5575 54.5498 64.872 54.9094C65.1533 55.2375 65.8095 55.6688 66.972 54.8438L67.1689 54.6938C67.8596 54.1706 68.7024 53.8875 69.5689 53.8875H70.0095C70.4575 53.8991 70.8915 54.0458 71.2546 54.3085C71.6176 54.5712 71.8928 54.9375 72.0439 55.3594C72.1728 55.7655 72.1696 56.2021 72.0349 56.6064C71.9001 57.0106 71.6407 57.3618 71.2939 57.6094C71.0856 57.7913 70.8665 57.9604 70.6376 58.1156L70.3845 58.2938C69.5981 58.8278 68.9958 59.5918 68.6602 60.4812C68.3245 61.3706 68.2719 62.342 68.5095 63.2625C68.7251 64.0219 69.0345 64.4062 69.447 64.4062C69.8595 64.4062 70.122 64.0406 70.3095 63.3094C70.5759 62.2807 71.1599 61.3621 71.9783 60.6844C72.3064 60.4125 72.6533 60.1594 72.9908 59.9156C73.3283 59.6719 73.6095 59.4656 73.9283 59.2313C74.7717 58.5933 75.3501 57.6665 75.5525 56.6285C75.7549 55.5905 75.5671 54.5144 75.0251 53.6063C73.9189 51.7219 72.1845 50.775 69.4564 50.625Z" fill="white" />
	<path d="M70.0006 65.7844C69.7883 65.771 69.5755 65.7997 69.3744 65.8689C69.1732 65.9381 68.9878 66.0464 68.8287 66.1875C68.5597 66.4805 68.4181 66.8683 68.4349 67.2657C68.4205 67.692 68.5756 68.1066 68.8662 68.4188C69.0183 68.5586 69.1974 68.6656 69.3925 68.7333C69.5877 68.8011 69.7946 68.828 70.0006 68.8125C70.2161 68.8197 70.4308 68.7836 70.6321 68.7063C70.8334 68.629 71.0171 68.5121 71.1724 68.3625C71.314 68.2144 71.4242 68.0392 71.4967 67.8476C71.5692 67.6559 71.6024 67.4517 71.5943 67.2469C71.6079 67.0398 71.5749 66.8323 71.4976 66.6396C71.4203 66.447 71.3008 66.2741 71.1479 66.1338C70.995 65.9934 70.8125 65.8892 70.6139 65.8287C70.4154 65.7683 70.2058 65.7531 70.0006 65.7844Z" fill="white" />

</svg>