<svg xmlns="http://www.w3.org/2000/svg" width="24" height="24" viewBox="0 0 24 24"><defs><style>.a{fill:#5f45ba;fill-rule:evenodd;}</style></defs><path class="a" d="M14.7,11.28a1.67,1.67,0,0,0,0,3.33,1.67,1.67,0,0,0,0-3.33Z" transform="translate(0 0)"/><path class="a" d="M9.17,11.28a1.67,1.67,0,0,0,0,3.33A1.6,1.6,0,0,0,10.72,13,1.59,1.59,0,0,0,9.17,11.28Z" transform="translate(0 0)"/><path class="a" d="M23.73,9.52A11.27,11.27,0,0,0,23,7.34,14.56,14.56,0,0,0,21.5,4.7a10.07,10.07,0,0,0-1-1.22A12.29,12.29,0,0,0,16.53.9,11.91,11.91,0,0,0,12.15,0c-.45,0-.76,0-1.07,0A11.57,11.57,0,0,0,9.33.31,13.33,13.33,0,0,0,6.2,1.51,11.23,11.23,0,0,0,2.52,4.65,12.23,12.23,0,0,0,0,11.57a11.28,11.28,0,0,0,.23,2.78,12.74,12.74,0,0,0,1.18,3.28,11.53,11.53,0,0,0,1.91,2.69,12,12,0,0,0,3,2.26A12.13,12.13,0,0,0,11.46,24a11.76,11.76,0,0,0,2.84-.22,12.33,12.33,0,0,0,3.28-1.16,11.15,11.15,0,0,0,3.22-2.44,12.26,12.26,0,0,0,2.38-3.87A12.15,12.15,0,0,0,24,12.59,11.7,11.7,0,0,0,23.73,9.52ZM16.22,18.3s-.55-.66-1-1.22A4.82,4.82,0,0,0,18,15.3a9.27,9.27,0,0,1-1.74.89,10.9,10.9,0,0,1-2.2.65,10.7,10.7,0,0,1-3.92,0,11.44,11.44,0,0,1-2.23-.66,8.27,8.27,0,0,1-1.11-.51l-.13-.08-.06,0-.43-.25A4.78,4.78,0,0,0,8.8,17.07c-.46.57-1,1.24-1,1.24A5.5,5.5,0,0,1,3.16,16,20.05,20.05,0,0,1,5.34,7.26,7.48,7.48,0,0,1,9.58,5.69l.15.18a10,10,0,0,0-4,2s.34-.18.9-.42a11.66,11.66,0,0,1,3.44-1,2.3,2.3,0,0,1,.26,0,12.94,12.94,0,0,1,3.06,0A12.65,12.65,0,0,1,18,7.84,9.93,9.93,0,0,0,14.2,5.93l.22-.24a7.45,7.45,0,0,1,4.24,1.57A20.05,20.05,0,0,1,20.84,16,5.54,5.54,0,0,1,16.22,18.3Z" transform="translate(0 0)"/></svg>