<svg width="140" height="140" viewBox="0 0 140 140" fill="none" xmlns="http://www.w3.org/2000/svg">
	<g>
		<circle cx="70" cy="66" r="50" fill="#5F45BA" />
	</g>
	<path d="M79.7686 55.8438C79.7686 55.3532 80.1661 54.9557 80.6567 54.9557H87.428C87.9186 54.9557 88.3161 55.3532 88.3161 55.8438C88.3161 56.3344 87.9186 56.7319 87.428 56.7319H80.6567C80.1661 56.7325 79.7686 56.3344 79.7686 55.8438ZM76.038 54.9557H66.6511C66.1605 54.9557 65.763 55.3532 65.763 55.8438C65.763 56.3344 66.1605 56.7319 66.6511 56.7319H76.038C76.5286 56.7319 76.9261 56.3344 76.9261 55.8438C76.9267 55.3532 76.5286 54.9557 76.038 54.9557ZM47.4117 57.8388V41.125C47.4117 39.1657 49.0061 37.5713 50.9655 37.5713H78.9499C80.9092 37.5713 82.5036 39.1657 82.5036 41.125V48.4144H91.0324C92.9917 48.4144 94.5861 50.0088 94.5861 51.9682V68.6813C94.5861 69.0613 94.3442 69.3994 93.9849 69.5219C93.8905 69.5538 93.7936 69.5694 93.698 69.5694C93.428 69.5694 93.1661 69.4463 92.9949 69.2244L88.3961 63.2732H63.0474C61.088 63.2732 59.4936 61.6788 59.4936 59.7194V52.43H53.6017L49.003 58.3813C48.8317 58.6032 48.5699 58.7263 48.2999 58.7263C48.2042 58.7263 48.1074 58.7107 48.013 58.6788C47.6536 58.5563 47.4117 58.2188 47.4117 57.8388ZM78.9499 52.43H61.2705V59.7194C61.2705 60.6994 62.0674 61.4963 63.0474 61.4963H88.8311C89.1061 61.4963 89.3661 61.6238 89.5342 61.8413L92.8086 66.0788V51.9682C92.8086 50.9882 92.0117 50.1913 91.0317 50.1913H82.2505C81.7267 51.5019 80.4449 52.43 78.9499 52.43ZM49.1886 55.2357L52.463 50.9982C52.6311 50.7807 52.8911 50.6532 53.1661 50.6532H78.9499C79.9299 50.6532 80.7267 49.8563 80.7267 48.8763V41.125C80.7267 40.145 79.9299 39.3482 78.9499 39.3482H50.9655C49.9855 39.3482 49.1886 40.145 49.1886 41.125V55.2357ZM54.5692 45.8894H61.3405C61.8311 45.8894 62.2286 45.4919 62.2286 45.0013C62.2286 44.5107 61.8311 44.1132 61.3405 44.1132H54.5692C54.0786 44.1132 53.6811 44.5107 53.6811 45.0013C53.6811 45.4919 54.0786 45.8894 54.5692 45.8894ZM65.9592 45.8894H75.3461C75.8367 45.8894 76.2342 45.4919 76.2342 45.0013C76.2342 44.5107 75.8367 44.1132 75.3461 44.1132H65.9592C65.4686 44.1132 65.0711 44.5107 65.0711 45.0013C65.0705 45.4919 65.4686 45.8894 65.9592 45.8894ZM65.393 89.8732C65.7317 90.9669 65.5442 92.0769 64.8642 92.9988C64.1849 93.9207 63.1799 94.4282 62.0349 94.4282H45.093C43.948 94.4282 42.943 93.9207 42.2636 92.9988C41.5842 92.0769 41.3961 90.9669 41.7349 89.8732C42.5005 87.4013 44.068 85.1819 46.1492 83.6232C47.2586 82.7925 48.4774 82.1657 49.7661 81.7507C48.0149 80.5413 46.8642 78.5207 46.8642 76.2357C46.8642 72.5419 49.8692 69.5363 53.5636 69.5363C57.2574 69.5363 60.263 72.5413 60.263 76.2357C60.263 78.5207 59.1124 80.5407 57.3611 81.7507C58.6505 82.165 59.8686 82.7925 60.978 83.6232C63.0599 85.1825 64.6274 87.4019 65.393 89.8732ZM53.563 81.1588H53.5642H53.5655C56.2792 81.1582 58.4867 78.95 58.4867 76.2363C58.4867 73.5219 56.2786 71.3138 53.5642 71.3138C50.8499 71.3138 48.6417 73.5219 48.6417 76.2363C48.6417 78.9507 50.8492 81.1582 53.563 81.1588ZM63.6955 90.3988C62.313 85.935 58.2424 82.9363 53.5649 82.9357H53.5636H53.5624C48.8849 82.9363 44.8142 85.935 43.4317 90.3988C43.2592 90.9557 43.3474 91.4757 43.693 91.9444C44.0386 92.4138 44.5099 92.6513 45.0924 92.6513H62.0342C62.6167 92.6513 63.088 92.4132 63.4336 91.9444C63.7799 91.4757 63.868 90.9557 63.6955 90.3988ZM97.7349 92.9988C97.0555 93.9207 96.0505 94.4282 94.9055 94.4282H77.9636C76.8186 94.4282 75.8136 93.9207 75.1342 92.9988C74.4549 92.0769 74.2667 90.9669 74.6061 89.8732C75.3711 87.4013 76.9392 85.1819 79.0205 83.6232C80.1299 82.7925 81.3486 82.1657 82.6374 81.7507C80.8861 80.5413 79.7355 78.5207 79.7355 76.2357C79.7355 72.5419 82.7405 69.5363 86.4349 69.5363C90.1286 69.5363 93.1342 72.5413 93.1342 76.2357C93.1342 78.5207 91.9836 80.5407 90.2324 81.7507C91.5217 82.165 92.7399 82.7925 93.8492 83.6232C95.9305 85.1819 97.4986 87.4013 98.2636 89.8732C98.6017 90.9675 98.4142 92.0775 97.7349 92.9988ZM86.4336 81.1588H86.4349H86.4361C89.1499 81.1582 91.3574 78.95 91.3574 76.2363C91.3574 73.5219 89.1492 71.3138 86.4349 71.3138C83.7205 71.3138 81.5124 73.5219 81.5124 76.2363C81.5124 78.9507 83.7199 81.1582 86.4336 81.1588ZM96.5661 90.3988C95.1836 85.935 91.113 82.9363 86.4355 82.9357H86.4342H86.433C81.7555 82.9363 77.6849 85.935 76.3024 90.3988C76.1299 90.9557 76.218 91.4757 76.5636 91.9444C76.9092 92.4138 77.3805 92.6513 77.963 92.6513H94.9055C95.488 92.6513 95.9592 92.4132 96.3049 91.9444C96.6505 91.4757 96.7386 90.9557 96.5661 90.3988Z" fill="white" />
</svg>