<svg width="24" height="24" viewBox="0 0 24 24" fill="none" xmlns="http://www.w3.org/2000/svg">
	<path fill-rule="evenodd" clip-rule="evenodd" d="M11.4588 24H12.5354L12.5356 24C12.783 23.9794 13.0305 23.9587 13.282 23.9299C15.1877 23.7277 16.9531 23.113 18.5494 22.0528C21.2265 20.2747 22.9465 17.8159 23.6931 14.6846C24.0314 13.249 24.085 11.7927 23.8787 10.3322C23.2023 5.54667 19.7704 1.66045 15.1052 0.41043C13.5419 -0.0103702 11.9538 -0.109382 10.3492 0.121646C7.50722 0.525944 5.11069 1.78834 3.16376 3.89235C1.62931 5.55079 0.651726 7.50215 0.218617 9.72167C0.115496 10.258 0.0453733 10.7984 0.0206242 11.3471C0.0170948 11.3824 0.0105454 11.4147 0.00356007 11.4491C0.00238165 11.4549 0.00119083 11.4608 0 11.4668V12.5435C0.0129189 12.6706 0.024714 12.7987 0.0365584 12.9275C0.0474046 13.0453 0.0582923 13.1636 0.0701224 13.282C0.247491 14.9817 0.763097 16.5782 1.63756 18.051C3.09364 20.514 5.16843 22.2508 7.84546 23.2615C8.96329 23.6823 10.1224 23.9175 11.3145 23.9794C11.3279 23.9805 11.3414 23.9807 11.3548 23.9809C11.3906 23.9815 11.4258 23.982 11.4588 24ZM8.85605 13.1417C7.69284 12.791 7.07411 12.0237 6.98749 10.786C7.33398 10.9676 7.66809 11.0707 8.05583 11.0831C7.45772 10.6375 7.10711 10.0723 7.03286 9.35037C6.97924 8.84294 7.09886 8.319 7.34223 7.93946C8.61268 9.43288 10.2214 10.258 12.1889 10.4024C12.2035 10.321 12.1893 10.2478 12.1754 10.1756C12.1695 10.1453 12.1637 10.1152 12.16 10.0847C12.0281 8.80168 13.0015 7.61767 14.2843 7.5104C15.0144 7.44852 15.6455 7.6713 16.1694 8.17873C16.2354 8.24474 16.2973 8.23236 16.3674 8.21586C16.8046 8.11273 17.2212 7.95596 17.6172 7.73731C17.6461 7.7208 17.6791 7.7043 17.7327 7.67955C17.5471 8.22411 17.2212 8.62841 16.7345 8.95845C16.8474 8.96187 16.9376 8.9426 17.0239 8.92416C17.0416 8.92036 17.0593 8.9166 17.0769 8.91307L17.0769 8.91305C17.1842 8.88831 17.2914 8.86356 17.3986 8.83469C17.5017 8.80581 17.609 8.7728 17.7121 8.73567C17.7941 8.70834 17.8789 8.67534 17.9783 8.63667C17.9989 8.62866 18.0201 8.62041 18.0421 8.61191C17.8235 8.93782 17.5925 9.20598 17.3285 9.44939C17.2089 9.56077 17.081 9.66391 16.9531 9.76292C16.8995 9.80418 16.8748 9.84956 16.8748 9.92382C16.9036 11.9659 16.1777 13.7028 14.7092 15.1178C13.7522 16.0378 12.589 16.5741 11.2732 16.7721C10.0151 16.9619 8.79417 16.8381 7.61447 16.3555C7.25561 16.2111 6.91324 16.0337 6.59151 15.815C7.85371 15.914 8.99217 15.6087 10.0316 14.8208C9.42528 14.7878 8.91792 14.5856 8.49306 14.202C8.18782 13.9255 7.9692 13.5914 7.83309 13.1788C8.17957 13.2366 8.51369 13.2366 8.85605 13.1417Z" fill="#5F45BA" />
</svg>
