<svg width="620" height="251" viewBox="0 0 620 251" fill="none" xmlns="http://www.w3.org/2000/svg">
	<g filter="url(#filter0_d_0_1)">
		<path d="M100.743 79.7195C100.743 102.2 93.6225 113.44 79.3825 113.44H63.3025C62.1825 113.44 61.6225 112.76 61.6225 111.4L61.5025 17.0795C61.5025 15.8795 61.9825 15.2395 62.9425 15.1595C65.5825 14.9995 71.5825 14.9595 80.9425 15.0395C88.0625 14.9595 93.3425 18.4395 96.7825 25.4795C99.4225 30.9995 100.743 38.1995 100.743 47.0795V79.7195ZM85.3825 75.1595V45.1595C85.3825 41.7995 84.4625 38.6395 82.6225 35.6795C80.8625 32.6395 78.9425 31.1195 76.8625 31.1195C76.2225 31.1195 75.9025 31.6795 75.9025 32.7995C75.9025 33.1195 75.9425 41.1595 76.0225 56.9195C76.0225 72.5995 76.0225 85.2395 76.0225 94.8395C76.0225 96.0395 76.3025 96.6395 76.8625 96.6395C78.7825 96.7195 80.6625 94.5595 82.5025 90.1595C84.4225 85.6795 85.3825 80.6795 85.3825 75.1595ZM138.548 111.88C138.548 112.84 137.908 113.36 136.628 113.44C125.588 114 115.548 113.92 106.508 113.2C105.628 113.12 105.188 112.36 105.188 110.92L105.068 17.1995C105.068 16.3195 105.508 15.8795 106.388 15.8795C112.548 15.7995 122.508 15.8395 136.268 15.9995C137.548 15.9995 138.188 16.4795 138.188 17.4395C138.188 18.7195 138.188 20.8795 138.188 23.9195C138.108 27.6795 138.068 30.0795 138.068 31.1195C138.068 32.0795 137.628 32.5595 136.748 32.5595C133.548 32.5595 128.948 32.5595 122.948 32.5595C121.748 32.5595 121.148 32.9995 121.148 33.8795C121.148 34.2795 121.108 37.1195 121.028 42.3995C120.948 46.8795 120.948 50.2395 121.028 52.4795C121.028 53.3595 121.508 53.8795 122.468 54.0395C124.148 54.2795 127.868 54.3195 133.628 54.1595C134.668 54.1595 135.228 54.6395 135.308 55.5995C135.388 57.0395 135.348 59.7195 135.188 63.6395C135.028 68.1995 134.948 70.8795 134.948 71.6795C134.948 72.7995 134.508 73.3595 133.628 73.3595C133.628 73.3595 130.028 73.3595 122.828 73.3595C122.028 73.3595 121.548 73.9595 121.388 75.1595C120.988 78.5195 120.908 84.8795 121.148 94.2395C121.148 95.2795 121.868 95.8795 123.308 96.0395C126.428 95.9595 130.828 95.8795 136.508 95.7995C137.788 95.7995 138.428 96.3195 138.428 97.3595C138.428 103.84 138.468 108.68 138.548 111.88ZM182.645 87.5195C182.645 94.8795 181.085 100.92 177.965 105.64C174.445 111 169.325 113.68 162.605 113.68C154.765 113.68 149.325 110.32 146.285 103.6C144.205 98.9595 143.165 91.8795 143.165 82.3595V36.0395C143.165 31.7995 144.325 27.5595 146.645 23.3195C150.165 16.8395 155.485 13.5995 162.605 13.5995C170.205 13.5995 175.645 16.4795 178.925 22.2395C181.565 26.6395 182.805 32.5195 182.645 39.8795C182.645 42.2795 182.605 44.1195 182.525 45.3995C182.445 46.6795 181.845 47.3995 180.725 47.5595C179.605 47.7195 177.605 47.7595 174.725 47.6795C170.725 47.5195 168.925 47.4395 169.325 47.4395C167.885 47.4395 167.125 46.7595 167.045 45.3995C167.045 42.5195 167.045 39.6795 167.045 36.8795C166.565 32.7195 165.085 30.6395 162.605 30.6395C159.325 30.6395 157.685 37.7595 157.685 51.9995V86.0795C157.685 88.3195 158.005 90.4395 158.645 92.4395C159.525 95.2395 160.845 96.6395 162.605 96.6395C165.725 96.6395 167.285 92.4395 167.285 84.0395C167.285 83.0795 167.285 81.9595 167.285 80.6795C167.205 79.3195 167.165 78.5195 167.165 78.2795C167.165 76.8395 167.725 76.1195 168.845 76.1195C173.885 76.1195 177.885 76.1595 180.845 76.2395C182.045 76.2395 182.645 76.9195 182.645 78.2795C182.725 80.3595 182.725 83.4395 182.645 87.5195ZM221.048 111.88C221.048 112.84 220.408 113.36 219.128 113.44C208.088 114 198.048 113.92 189.008 113.2C188.128 113.12 187.688 112.36 187.688 110.92L187.568 17.1995C187.568 16.3195 188.008 15.8795 188.888 15.8795C195.048 15.7995 205.008 15.8395 218.768 15.9995C220.048 15.9995 220.688 16.4795 220.688 17.4395C220.688 18.7195 220.688 20.8795 220.688 23.9195C220.608 27.6795 220.568 30.0795 220.568 31.1195C220.568 32.0795 220.128 32.5595 219.248 32.5595C216.048 32.5595 211.448 32.5595 205.448 32.5595C204.248 32.5595 203.648 32.9995 203.648 33.8795C203.648 34.2795 203.608 37.1195 203.528 42.3995C203.448 46.8795 203.448 50.2395 203.528 52.4795C203.528 53.3595 204.008 53.8795 204.968 54.0395C206.648 54.2795 210.368 54.3195 216.128 54.1595C217.168 54.1595 217.728 54.6395 217.808 55.5995C217.888 57.0395 217.848 59.7195 217.688 63.6395C217.528 68.1995 217.448 70.8795 217.448 71.6795C217.448 72.7995 217.008 73.3595 216.128 73.3595C216.128 73.3595 212.528 73.3595 205.328 73.3595C204.528 73.3595 204.048 73.9595 203.888 75.1595C203.488 78.5195 203.408 84.8795 203.648 94.2395C203.648 95.2795 204.368 95.8795 205.808 96.0395C208.928 95.9595 213.328 95.8795 219.008 95.7995C220.288 95.7995 220.928 96.3195 220.928 97.3595C220.928 103.84 220.968 108.68 221.048 111.88ZM269.345 18.3995C269.265 14.2395 269.065 44.7995 268.745 110.08C268.745 112.16 268.105 113.32 266.825 113.56C262.985 114.2 258.945 114.2 254.705 113.56C253.265 113.32 252.345 112.48 251.945 111.04C249.305 99.0395 246.225 85.4395 242.705 70.2395C242.385 69.0395 241.905 68.4395 241.265 68.4395C240.785 68.4395 240.545 69.2795 240.545 70.9595C240.545 72.6395 240.545 78.3195 240.545 87.9995C240.465 97.5995 240.425 105.08 240.425 110.44C240.425 112.04 239.425 113.04 237.425 113.44C236.065 113.76 234.265 113.88 232.025 113.8C229.145 113.72 227.505 113.68 227.105 113.68C225.505 113.76 224.665 112.84 224.585 110.92C224.265 99.7195 224.185 82.8395 224.345 60.2795C224.505 38.4395 224.785 24.5595 225.185 18.6395C225.345 16.7195 225.865 15.7195 226.745 15.6395C228.665 15.5595 231.265 15.5595 234.545 15.6395C238.545 15.7995 240.705 15.8795 241.025 15.8795C242.145 15.8795 242.865 16.7195 243.185 18.3995C247.185 37.7595 249.985 50.2395 251.585 55.8395C252.225 57.9995 252.745 59.0795 253.145 59.0795C253.705 59.0795 253.905 57.8395 253.745 55.3595C253.425 48.8795 253.265 36.5595 253.265 18.3995C253.265 16.5595 254.065 15.6795 255.665 15.7595C258.385 15.7595 262.105 15.7595 266.825 15.7595C268.505 15.8395 269.345 16.7195 269.345 18.3995ZM314.387 30.1595C314.387 31.2795 313.707 31.8395 312.347 31.8395C311.787 31.8395 310.587 31.7995 308.747 31.7195C306.987 31.7195 305.547 31.7195 304.427 31.7195C302.747 31.7195 301.907 32.3195 301.907 33.5195L302.147 110.92C302.147 112.2 301.707 112.88 300.827 112.96C297.947 113.36 293.387 113.32 287.147 112.84C286.107 112.76 285.587 112.08 285.587 110.8L285.467 33.3995C285.467 32.2795 284.987 31.7195 284.027 31.7195C278.107 31.7195 275.147 31.7195 275.147 31.7195C273.867 31.6395 273.227 31.0795 273.227 30.0395C273.227 30.9195 273.147 29.2795 272.987 25.1195C272.827 22.3995 272.907 20.2795 273.227 18.7595C273.547 16.6795 274.267 15.6395 275.387 15.6395C285.307 15.5595 297.667 15.5595 312.467 15.6395C313.587 15.6395 314.187 16.3595 314.267 17.7995C314.427 22.7595 314.467 26.8795 314.387 30.1595ZM361.259 110.92C361.659 112.68 361.259 113.6 360.059 113.68C358.539 113.84 353.859 113.8 346.019 113.56C345.139 113.56 344.619 112.48 344.459 110.32C344.059 104.88 343.859 98.8395 343.859 92.1995C343.859 80.1195 341.739 74.0795 337.499 74.0795C336.939 73.9195 336.459 73.9195 336.059 74.0795C335.499 74.3195 335.219 75.1995 335.219 76.7195C335.219 89.2795 335.179 100.32 335.099 109.84C335.099 111.92 334.659 113 333.779 113.08C329.459 113.56 325.339 113.64 321.419 113.32C320.459 113.24 319.979 112.08 319.979 109.84L320.219 17.4395C320.219 15.9995 320.939 15.2795 322.379 15.2795C326.779 15.2795 332.779 15.2395 340.379 15.1595C345.339 15.1595 349.539 16.1995 352.979 18.2795C356.739 20.5995 358.619 23.6795 358.619 27.5195L358.499 51.1595C358.499 55.0795 357.339 58.4395 355.019 61.2395C353.419 63.2395 351.619 64.5995 349.619 65.3195C348.979 65.5595 348.659 65.7995 348.659 66.0395C348.659 66.1995 348.979 66.3995 349.619 66.6395C351.139 67.1195 352.739 68.1195 354.419 69.6395C358.179 72.9195 360.059 80.8795 360.059 93.5195C360.059 101.6 360.459 107.4 361.259 110.92ZM343.979 37.7195C343.979 32.4395 342.219 29.9195 338.699 30.1595C337.899 30.2395 337.299 30.2795 336.899 30.2795C336.179 30.2795 335.819 30.9595 335.819 32.3195C335.819 32.3195 335.819 39.3595 335.819 53.4395C335.819 55.6795 336.379 56.8395 337.499 56.9195C337.899 56.9995 338.379 56.9995 338.939 56.9195C340.699 56.9195 341.899 56.0395 342.539 54.2795C343.499 51.7195 343.979 46.1995 343.979 37.7195ZM414.642 112.96C414.722 113.44 414.362 113.68 413.562 113.68C412.442 113.68 410.362 113.68 407.322 113.68C404.282 113.6 401.642 113.56 399.402 113.56C398.682 113.56 397.762 110.96 396.642 105.76C395.842 101.84 395.242 98.4795 394.842 95.6795C394.762 95.1195 394.322 94.8395 393.522 94.8395C390.402 94.8395 388.842 94.8395 388.842 94.8395C388.282 94.8395 387.922 95.1195 387.762 95.6795C387.042 100.48 386.082 106.04 384.882 112.36C384.562 113.08 384.202 113.44 383.802 113.44H369.042C367.762 113.44 367.242 112.96 367.482 112C370.202 95.6795 372.922 79.3195 375.642 62.9195C381.002 31.3995 384.202 15.5995 385.242 15.5195C389.562 15.2795 393.882 15.2795 398.202 15.5195C399.162 15.5995 402.122 31.4395 407.082 63.0395C409.642 79.6795 412.162 96.3195 414.642 112.96ZM393.762 79.7195C392.562 70.5995 391.802 66.0395 391.482 66.0395C391.082 66.0395 390.602 67.9995 390.042 71.9195C389.722 74.4795 389.402 77.0795 389.082 79.7195C389.002 79.9595 389.362 80.1595 390.162 80.3195C391.042 80.3995 391.842 80.3995 392.562 80.3195C393.362 80.2395 393.762 80.0395 393.762 79.7195ZM454.634 110.56C454.554 112 453.514 112.72 451.514 112.72C451.994 112.72 446.714 112.8 435.674 112.96C428.954 113.12 424.274 113.04 421.634 112.72C420.434 112.56 419.834 111.6 419.834 109.84C419.434 69.1995 419.314 38.6395 419.474 18.1595C419.474 15.9195 420.194 14.9195 421.634 15.1595C423.314 15.3995 427.634 15.3995 434.594 15.1595C435.634 15.0795 436.234 15.4795 436.394 16.3595C436.314 17.0795 436.274 17.8395 436.274 18.6395C436.514 22.1595 436.554 32.9995 436.394 51.1595C436.234 70.9195 436.274 84.6395 436.514 92.3195C436.594 94.1595 437.514 95.1195 439.274 95.1995C439.274 95.1995 443.434 95.1995 451.754 95.1995C453.674 95.1995 454.634 95.9195 454.634 97.3595C454.714 100.16 454.714 104.56 454.634 110.56ZM474.251 110.08C474.251 112 473.611 113.12 472.331 113.44C470.411 114 466.211 114 459.731 113.44C458.131 113.28 457.331 112 457.331 109.6C457.491 82.5595 457.531 52.4795 457.451 19.3595C457.451 18.5595 457.531 17.8395 457.691 17.1995C457.931 16.2395 458.371 15.7595 459.011 15.7595C462.451 15.7595 466.811 15.8395 472.091 15.9995C473.451 16.1595 474.171 17.2795 474.251 19.3595C474.251 42.6395 474.251 72.8795 474.251 110.08ZM520.634 110.56C520.634 111.36 520.354 112.08 519.794 112.72C519.234 113.36 518.594 113.68 517.874 113.68C502.754 113.36 490.914 113.28 482.354 113.44C481.234 113.44 480.634 112.48 480.554 110.56C480.554 109.52 480.434 107.88 480.194 105.64C480.034 103.64 479.954 102 479.954 100.72C479.954 99.6795 480.154 98.5995 480.554 97.4795C481.274 95.4795 481.634 94.4395 481.634 94.3595L497.114 36.9995C497.354 36.0395 497.354 35.1595 497.114 34.3595C496.874 33.4795 496.394 33.0395 495.674 33.0395C490.874 33.2795 486.714 33.2795 483.194 33.0395C480.874 32.8795 479.714 31.7195 479.714 29.5595C479.714 28.0395 479.794 26.0795 479.954 23.6795C480.194 20.8795 480.314 19.1195 480.314 18.3995C480.394 16.7195 481.194 15.9195 482.714 15.9995C485.434 16.0795 491.114 16.0795 499.754 15.9995C508.474 15.8395 513.994 15.6795 516.314 15.5195C518.394 15.3595 519.514 16.2795 519.674 18.2795C519.914 21.2395 519.834 23.9595 519.434 26.4395C519.434 26.4395 518.874 28.5595 517.754 32.7995L502.034 92.5595C501.554 94.8795 501.754 96.0795 502.634 96.1595C504.794 96.3995 509.794 96.3195 517.634 95.9195C519.394 95.8395 520.314 96.7195 520.394 98.5595C520.554 101.44 520.634 105.44 520.634 110.56ZM558.548 111.88C558.548 112.84 557.908 113.36 556.628 113.44C545.588 114 535.548 113.92 526.508 113.2C525.628 113.12 525.188 112.36 525.188 110.92L525.068 17.1995C525.068 16.3195 525.508 15.8795 526.388 15.8795C532.548 15.7995 542.508 15.8395 556.268 15.9995C557.548 15.9995 558.188 16.4795 558.188 17.4395C558.188 18.7195 558.188 20.8795 558.188 23.9195C558.108 27.6795 558.068 30.0795 558.068 31.1195C558.068 32.0795 557.628 32.5595 556.748 32.5595C553.548 32.5595 548.948 32.5595 542.948 32.5595C541.748 32.5595 541.148 32.9995 541.148 33.8795C541.148 34.2795 541.108 37.1195 541.028 42.3995C540.948 46.8795 540.948 50.2395 541.028 52.4795C541.028 53.3595 541.508 53.8795 542.468 54.0395C544.148 54.2795 547.868 54.3195 553.628 54.1595C554.668 54.1595 555.228 54.6395 555.308 55.5995C555.388 57.0395 555.348 59.7195 555.188 63.6395C555.028 68.1995 554.948 70.8795 554.948 71.6795C554.948 72.7995 554.508 73.3595 553.628 73.3595C553.628 73.3595 550.028 73.3595 542.828 73.3595C542.028 73.3595 541.548 73.9595 541.388 75.1595C540.988 78.5195 540.908 84.8795 541.148 94.2395C541.148 95.2795 541.868 95.8795 543.308 96.0395C546.428 95.9595 550.828 95.8795 556.508 95.7995C557.788 95.7995 558.428 96.3195 558.428 97.3595C558.428 103.84 558.468 108.68 558.548 111.88ZM603.125 79.7195C603.125 102.2 596.005 113.44 581.765 113.44H565.685C564.565 113.44 564.005 112.76 564.005 111.4L563.885 17.0795C563.885 15.8795 564.365 15.2395 565.325 15.1595C567.965 14.9995 573.965 14.9595 583.325 15.0395C590.445 14.9595 595.725 18.4395 599.165 25.4795C601.805 30.9995 603.125 38.1995 603.125 47.0795V79.7195ZM587.765 75.1595V45.1595C587.765 41.7995 586.845 38.6395 585.005 35.6795C583.245 32.6395 581.325 31.1195 579.245 31.1195C578.605 31.1195 578.285 31.6795 578.285 32.7995C578.285 33.1195 578.325 41.1595 578.405 56.9195C578.405 72.5995 578.405 85.2395 578.405 94.8395C578.405 96.0395 578.685 96.6395 579.245 96.6395C581.165 96.7195 583.045 94.5595 584.885 90.1595C586.805 85.6795 587.765 80.6795 587.765 75.1595ZM80.08 225.6C80.08 226.96 80.04 227.8 79.96 228.12C79.72 229.08 79.24 229.6 78.52 229.68C78.2 229.76 73.24 229.68 63.64 229.44C62.36 229.44 61.68 228.56 61.6 226.8C61.44 224.72 61.4 221.04 61.48 215.76C61.48 212.24 61.52 207.64 61.6 201.96C61.68 196.52 61.72 193.6 61.72 193.2C61.72 191.52 61.56 190.68 61.24 190.68C60.84 190.68 60.48 191.36 60.16 192.72C59.52 195.6 58.76 200.88 57.88 208.56C56.84 217.76 56.16 223.52 55.84 225.84C55.52 227.84 54.76 228.96 53.56 229.2C52.44 229.44 50.76 229.56 48.52 229.56C44.92 229.48 43.16 229.44 43.24 229.44C42.52 229.44 41.92 228.32 41.44 226.08C40.64 222.32 39.8 215.88 38.92 206.76C37.96 198.28 37.36 193.52 37.12 192.48C36.72 190.88 36.28 190.08 35.8 190.08C35.48 190.08 35.32 190.92 35.32 192.6C35.32 211.72 35.36 222.88 35.44 226.08C35.52 228.16 34.92 229.28 33.64 229.44C33.64 229.44 28.96 229.44 19.6 229.44C18.32 229.44 17.6 228.08 17.44 225.36C17.12 220.64 16.96 213.92 16.96 205.2C16.96 195.2 17.2 180.56 17.68 161.28C18.08 144.72 18.24 135.68 18.16 134.16C18.08 133.44 18.12 132.8 18.28 132.24C18.52 131.36 18.96 130.96 19.6 131.04C23.92 131.36 28.48 131.44 33.28 131.28C34.08 131.28 34.8 132.16 35.44 133.92C36.32 136.4 40.24 148.96 47.2 171.6C47.84 173.6 48.36 174.6 48.76 174.6C49.24 174.6 49.76 173.6 50.32 171.6C53.28 162.16 57.08 149.52 61.72 133.68C62.2 132 63.12 131.2 64.48 131.28C64.48 131.28 68.68 131.28 77.08 131.28C78.2 131.28 78.76 132.4 78.76 134.64C79.08 148.48 79.4 162.32 79.72 176.16C80.2 199.04 80.32 215.52 80.08 225.6ZM133.626 228.96C133.706 229.44 133.346 229.68 132.546 229.68C131.426 229.68 129.346 229.68 126.306 229.68C123.266 229.6 120.626 229.56 118.386 229.56C117.666 229.56 116.746 226.96 115.626 221.76C114.826 217.84 114.226 214.48 113.826 211.68C113.746 211.12 113.306 210.84 112.506 210.84C109.386 210.84 107.826 210.84 107.826 210.84C107.266 210.84 106.906 211.12 106.746 211.68C106.026 216.48 105.066 222.04 103.866 228.36C103.546 229.08 103.186 229.44 102.786 229.44H88.0263C86.7463 229.44 86.2263 228.96 86.4663 228C89.1863 211.68 91.9063 195.32 94.6263 178.92C99.9863 147.4 103.186 131.6 104.226 131.52C108.546 131.28 112.866 131.28 117.186 131.52C118.146 131.6 121.106 147.44 126.066 179.04C128.626 195.68 131.146 212.32 133.626 228.96ZM112.746 195.72C111.546 186.6 110.786 182.04 110.466 182.04C110.066 182.04 109.586 184 109.026 187.92C108.706 190.48 108.386 193.08 108.066 195.72C107.986 195.96 108.346 196.16 109.146 196.32C110.026 196.4 110.826 196.4 111.546 196.32C112.346 196.24 112.746 196.04 112.746 195.72ZM179.618 226.92C180.018 228.68 179.618 229.6 178.418 229.68C176.898 229.84 172.218 229.8 164.378 229.56C163.498 229.56 162.978 228.48 162.818 226.32C162.418 220.88 162.218 214.84 162.218 208.2C162.218 196.12 160.098 190.08 155.858 190.08C155.298 189.92 154.818 189.92 154.418 190.08C153.858 190.32 153.578 191.2 153.578 192.72C153.578 205.28 153.538 216.32 153.458 225.84C153.458 227.92 153.018 229 152.138 229.08C147.818 229.56 143.698 229.64 139.778 229.32C138.818 229.24 138.338 228.08 138.338 225.84L138.578 133.44C138.578 132 139.298 131.28 140.738 131.28C145.138 131.28 151.138 131.24 158.738 131.16C163.698 131.16 167.898 132.2 171.338 134.28C175.098 136.6 176.978 139.68 176.978 143.52L176.858 167.16C176.858 171.08 175.698 174.44 173.378 177.24C171.778 179.24 169.978 180.6 167.978 181.32C167.338 181.56 167.018 181.8 167.018 182.04C167.018 182.2 167.338 182.4 167.978 182.64C169.498 183.12 171.098 184.12 172.778 185.64C176.538 188.92 178.418 196.88 178.418 209.52C178.418 217.6 178.818 223.4 179.618 226.92ZM162.338 153.72C162.338 148.44 160.578 145.92 157.058 146.16C156.258 146.24 155.658 146.28 155.258 146.28C154.538 146.28 154.178 146.96 154.178 148.32C154.178 148.32 154.178 155.36 154.178 169.44C154.178 171.68 154.738 172.84 155.858 172.92C156.258 173 156.738 173 157.298 172.92C159.058 172.92 160.258 172.04 160.898 170.28C161.858 167.72 162.338 162.2 162.338 153.72ZM225.081 227.04C225.561 228.4 225.361 229.12 224.481 229.2C224.481 229.2 219.001 229.2 208.041 229.2C207.401 229.2 206.921 228.64 206.601 227.52C205.561 223.84 203.321 215.16 199.881 201.48C199.561 200.2 199.321 199.52 199.161 199.44C199.081 199.44 199.001 200.12 198.921 201.48C198.601 207.24 198.561 215.88 198.801 227.4C198.801 228.6 198.361 229.2 197.481 229.2C189.641 229.2 185.721 229.2 185.721 229.2C184.681 229.2 184.161 228.44 184.161 226.92L184.041 133.56C184.041 132.44 184.441 131.88 185.241 131.88C188.441 131.8 192.761 131.8 198.201 131.88C199.001 131.96 199.401 132.52 199.401 133.56C199.001 148.04 198.841 156.56 198.921 159.12C198.921 159.68 199.041 159.96 199.281 159.96C199.521 159.88 199.721 159.52 199.881 158.88C201.081 153.92 203.241 145.56 206.361 133.8C206.681 132.68 207.201 132.12 207.921 132.12C209.761 132.2 212.361 132.2 215.721 132.12C219.721 131.96 221.801 131.88 221.961 131.88C223.081 131.88 223.641 132.44 223.641 133.56C223.641 133.8 223.601 134.04 223.521 134.28C221.841 137.72 218.641 145.08 213.921 156.36C209.121 167.96 206.801 174 206.961 174.48C211.441 188 217.481 205.52 225.081 227.04ZM263.587 227.88C263.587 228.84 262.947 229.36 261.667 229.44C250.627 230 240.587 229.92 231.547 229.2C230.667 229.12 230.227 228.36 230.227 226.92L230.107 133.2C230.107 132.32 230.547 131.88 231.427 131.88C237.587 131.8 247.547 131.84 261.307 132C262.587 132 263.227 132.48 263.227 133.44C263.227 134.72 263.227 136.88 263.227 139.92C263.147 143.68 263.107 146.08 263.107 147.12C263.107 148.08 262.667 148.56 261.787 148.56C258.587 148.56 253.987 148.56 247.987 148.56C246.787 148.56 246.187 149 246.187 149.88C246.187 150.28 246.147 153.12 246.067 158.4C245.987 162.88 245.987 166.24 246.067 168.48C246.067 169.36 246.547 169.88 247.507 170.04C249.187 170.28 252.907 170.32 258.667 170.16C259.707 170.16 260.267 170.64 260.347 171.6C260.427 173.04 260.387 175.72 260.227 179.64C260.067 184.2 259.987 186.88 259.987 187.68C259.987 188.8 259.547 189.36 258.667 189.36C258.667 189.36 255.067 189.36 247.867 189.36C247.067 189.36 246.587 189.96 246.427 191.16C246.027 194.52 245.947 200.88 246.187 210.24C246.187 211.28 246.907 211.88 248.347 212.04C251.467 211.96 255.867 211.88 261.547 211.8C262.827 211.8 263.467 212.32 263.467 213.36C263.467 219.84 263.507 224.68 263.587 227.88ZM308.644 146.16C308.644 147.28 307.964 147.84 306.604 147.84C306.044 147.84 304.844 147.8 303.004 147.72C301.244 147.72 299.804 147.72 298.684 147.72C297.004 147.72 296.164 148.32 296.164 149.52L296.404 226.92C296.404 228.2 295.964 228.88 295.084 228.96C292.204 229.36 287.644 229.32 281.404 228.84C280.364 228.76 279.844 228.08 279.844 226.8L279.724 149.4C279.724 148.28 279.244 147.72 278.284 147.72C272.364 147.72 269.404 147.72 269.404 147.72C268.124 147.64 267.484 147.08 267.484 146.04C267.484 146.92 267.404 145.28 267.244 141.12C267.084 138.4 267.164 136.28 267.484 134.76C267.804 132.68 268.524 131.64 269.644 131.64C279.564 131.56 291.924 131.56 306.724 131.64C307.844 131.64 308.444 132.36 308.524 133.8C308.684 138.76 308.724 142.88 308.644 146.16ZM352.037 175.92C352.037 181.76 349.477 186.28 344.357 189.48C340.597 191.8 336.557 192.96 332.237 192.96C331.197 192.96 330.677 193.52 330.677 194.64C330.677 201.92 330.597 212.84 330.437 227.4C330.437 228.68 329.997 229.36 329.117 229.44C326.317 229.76 322.077 229.76 316.397 229.44C315.357 229.36 314.837 228.84 314.837 227.88L314.597 133.08C314.597 132.2 315.277 131.72 316.637 131.64C319.917 131.48 325.237 131.52 332.597 131.76C337.317 131.76 341.637 133.16 345.557 135.96C349.877 138.92 352.037 142.64 352.037 147.12V175.92ZM337.757 162.36C337.837 157 337.597 153.12 337.037 150.72C336.557 148.88 335.877 147.76 334.997 147.36C334.117 147.28 333.277 147.2 332.477 147.12C332.157 147.12 331.557 147.04 330.677 146.88C330.357 146.8 330.077 146.96 329.837 147.36C329.597 147.76 329.517 148.2 329.597 148.68C329.597 154.68 329.637 163.36 329.717 174.72C329.717 175.44 330.117 175.96 330.917 176.28C331.317 176.44 331.837 176.4 332.477 176.16C334.397 176 335.637 175.4 336.197 174.36C337.157 172.52 337.677 168.52 337.757 162.36ZM389.829 226.56C389.749 228 388.709 228.72 386.709 228.72C387.189 228.72 381.909 228.8 370.869 228.96C364.149 229.12 359.469 229.04 356.829 228.72C355.629 228.56 355.029 227.6 355.029 225.84C354.629 185.2 354.509 154.64 354.669 134.16C354.669 131.92 355.389 130.92 356.829 131.16C358.509 131.4 362.829 131.4 369.789 131.16C370.829 131.08 371.429 131.48 371.589 132.36C371.509 133.08 371.469 133.84 371.469 134.64C371.709 138.16 371.749 149 371.589 167.16C371.429 186.92 371.469 200.64 371.709 208.32C371.789 210.16 372.709 211.12 374.469 211.2C374.469 211.2 378.629 211.2 386.949 211.2C388.869 211.2 389.829 211.92 389.829 213.36C389.909 216.16 389.909 220.56 389.829 226.56ZM441.126 228.96C441.206 229.44 440.846 229.68 440.046 229.68C438.926 229.68 436.846 229.68 433.806 229.68C430.766 229.6 428.126 229.56 425.886 229.56C425.166 229.56 424.246 226.96 423.126 221.76C422.326 217.84 421.726 214.48 421.326 211.68C421.246 211.12 420.806 210.84 420.006 210.84C416.886 210.84 415.326 210.84 415.326 210.84C414.766 210.84 414.406 211.12 414.246 211.68C413.526 216.48 412.566 222.04 411.366 228.36C411.046 229.08 410.686 229.44 410.286 229.44H395.526C394.246 229.44 393.726 228.96 393.966 228C396.686 211.68 399.406 195.32 402.126 178.92C407.486 147.4 410.686 131.6 411.726 131.52C416.046 131.28 420.366 131.28 424.686 131.52C425.646 131.6 428.606 147.44 433.566 179.04C436.126 195.68 438.646 212.32 441.126 228.96ZM420.246 195.72C419.046 186.6 418.286 182.04 417.966 182.04C417.566 182.04 417.086 184 416.526 187.92C416.206 190.48 415.886 193.08 415.566 195.72C415.486 195.96 415.846 196.16 416.646 196.32C417.526 196.4 418.326 196.4 419.046 196.32C419.846 196.24 420.246 196.04 420.246 195.72ZM486.278 203.52C486.278 210.88 484.718 216.92 481.598 221.64C478.078 227 472.958 229.68 466.238 229.68C458.398 229.68 452.958 226.32 449.918 219.6C447.838 214.96 446.798 207.88 446.798 198.36V152.04C446.798 147.8 447.958 143.56 450.278 139.32C453.798 132.84 459.118 129.6 466.238 129.6C473.838 129.6 479.278 132.48 482.558 138.24C485.198 142.64 486.438 148.52 486.278 155.88C486.278 158.28 486.238 160.12 486.158 161.4C486.078 162.68 485.478 163.4 484.358 163.56C483.238 163.72 481.238 163.76 478.358 163.68C474.358 163.52 472.558 163.44 472.958 163.44C471.518 163.44 470.758 162.76 470.678 161.4C470.678 158.52 470.678 155.68 470.678 152.88C470.198 148.72 468.718 146.64 466.238 146.64C462.958 146.64 461.318 153.76 461.318 168V202.08C461.318 204.32 461.638 206.44 462.278 208.44C463.158 211.24 464.478 212.64 466.238 212.64C469.358 212.64 470.918 208.44 470.918 200.04C470.918 199.08 470.918 197.96 470.918 196.68C470.838 195.32 470.798 194.52 470.798 194.28C470.798 192.84 471.358 192.12 472.478 192.12C477.518 192.12 481.518 192.16 484.478 192.24C485.678 192.24 486.278 192.92 486.278 194.28C486.358 196.36 486.358 199.44 486.278 203.52ZM524.681 227.88C524.681 228.84 524.041 229.36 522.761 229.44C511.721 230 501.681 229.92 492.641 229.2C491.761 229.12 491.321 228.36 491.321 226.92L491.201 133.2C491.201 132.32 491.641 131.88 492.521 131.88C498.681 131.8 508.641 131.84 522.401 132C523.681 132 524.321 132.48 524.321 133.44C524.321 134.72 524.321 136.88 524.321 139.92C524.241 143.68 524.201 146.08 524.201 147.12C524.201 148.08 523.761 148.56 522.881 148.56C519.681 148.56 515.081 148.56 509.081 148.56C507.881 148.56 507.281 149 507.281 149.88C507.281 150.28 507.241 153.12 507.161 158.4C507.081 162.88 507.081 166.24 507.161 168.48C507.161 169.36 507.641 169.88 508.601 170.04C510.281 170.28 514.001 170.32 519.761 170.16C520.801 170.16 521.361 170.64 521.441 171.6C521.521 173.04 521.481 175.72 521.321 179.64C521.161 184.2 521.081 186.88 521.081 187.68C521.081 188.8 520.641 189.36 519.761 189.36C519.761 189.36 516.161 189.36 508.961 189.36C508.161 189.36 507.681 189.96 507.521 191.16C507.121 194.52 507.041 200.88 507.281 210.24C507.281 211.28 508.001 211.88 509.441 212.04C512.561 211.96 516.961 211.88 522.641 211.8C523.921 211.8 524.561 212.32 524.561 213.36C524.561 219.84 524.601 224.68 524.681 227.88Z" fill="url(#paint0_linear_0_1)" />
	</g>
	<g filter="url(#filter1_d_0_1)">
		<path d="M48.48 112.64C48.5333 112.96 48.2933 113.12 47.76 113.12C47.0133 113.12 45.6267 113.12 43.6 113.12C41.5733 113.067 39.8133 113.04 38.32 113.04C37.84 113.04 37.2267 111.307 36.48 107.84C35.9467 105.227 35.5467 102.987 35.28 101.12C35.2267 100.747 34.9333 100.56 34.4 100.56C32.32 100.56 31.28 100.56 31.28 100.56C30.9067 100.56 30.6667 100.747 30.56 101.12C30.08 104.32 29.44 108.027 28.64 112.24C28.4267 112.72 28.1867 112.96 27.92 112.96H18.08C17.2267 112.96 16.88 112.64 17.04 112C18.8533 101.12 20.6667 90.2133 22.48 79.28C26.0533 58.2667 28.1867 47.7333 28.88 47.68C31.76 47.52 34.64 47.52 37.52 47.68C38.16 47.7333 40.1333 58.2933 43.44 79.36C45.1467 90.4533 46.8267 101.547 48.48 112.64ZM34.56 90.48C33.76 84.4 33.2533 81.36 33.04 81.36C32.7733 81.36 32.4533 82.6667 32.08 85.28C31.8667 86.9867 31.6533 88.72 31.44 90.48C31.3867 90.64 31.6267 90.7733 32.16 90.88C32.7467 90.9333 33.28 90.9333 33.76 90.88C34.2933 90.8267 34.56 90.6933 34.56 90.48Z" fill="#504960" />
	</g>
	<defs>
		<filter id="filter0_d_0_1" x="0.959961" y="0.159485" width="618.166" height="250.12" filterUnits="userSpaceOnUse" color-interpolation-filters="sRGB">
			<feFlood flood-opacity="0" result="BackgroundImageFix" />
			<feColorMatrix in="SourceAlpha" type="matrix" values="0 0 0 0 0 0 0 0 0 0 0 0 0 0 0 0 0 0 127 0" result="hardAlpha" />
			<feOffset dy="4" />
			<feGaussianBlur stdDeviation="8" />
			<feColorMatrix type="matrix" values="0 0 0 0 1 0 0 0 0 1 0 0 0 0 1 0 0 0 0.25 0" />
			<feBlend mode="normal" in2="BackgroundImageFix" result="effect1_dropShadow_0_1" />
			<feBlend mode="normal" in="SourceGraphic" in2="effect1_dropShadow_0_1" result="shape" />
		</filter>
		<filter id="filter1_d_0_1" x="0.799805" y="35.44" width="63.7603" height="97.68" filterUnits="userSpaceOnUse" color-interpolation-filters="sRGB">
			<feFlood flood-opacity="0" result="BackgroundImageFix" />
			<feColorMatrix in="SourceAlpha" type="matrix" values="0 0 0 0 0 0 0 0 0 0 0 0 0 0 0 0 0 0 127 0" result="hardAlpha" />
			<feOffset dy="4" />
			<feGaussianBlur stdDeviation="8" />
			<feColorMatrix type="matrix" values="0 0 0 0 1 0 0 0 0 1 0 0 0 0 1 0 0 0 0.25 0" />
			<feBlend mode="normal" in2="BackgroundImageFix" result="effect1_dropShadow_0_1" />
			<feBlend mode="normal" in="SourceGraphic" in2="effect1_dropShadow_0_1" result="shape" />
		</filter>
		<linearGradient id="paint0_linear_0_1" x1="270.62" y1="-34.5536" x2="318.56" y2="245.321" gradientUnits="userSpaceOnUse">
			<stop stop-color="#3B146A" />
			<stop offset="0.441307" stop-color="#5434A1" />
			<stop offset="1" stop-color="#5F45BA" />
		</linearGradient>
	</defs>
</svg>
	