<svg width="80" height="80" viewBox="0 0 80 80" fill="none" xmlns="http://www.w3.org/2000/svg">
	<circle cx="40" cy="40" r="40" fill="#A29EC0" />
	<path fill-rule="evenodd" clip-rule="evenodd" d="M53.3142 41.1169C49.9654 41.1169 47.218 43.9465 47.218 47.4782C47.218 51.0098 49.9654 53.8394 53.3142 53.8394C56.663 53.8394 59.4104 51.0098 59.4104 47.4782C59.4104 43.9465 56.663 41.1169 53.3142 41.1169ZM46.2363 47.4782C46.2363 43.4412 49.3871 40.1353 53.3142 40.1353C57.2413 40.1353 60.3921 43.4412 60.3921 47.4782C60.3921 51.5151 57.2413 54.8211 53.3142 54.8211C49.3871 54.8211 46.2363 51.5151 46.2363 47.4782Z" fill="white" stroke="white" stroke-width="0.5" stroke-linecap="round" stroke-linejoin="round" />
	<path d="M53.3139 42.5896C52.7524 42.5913 52.1967 42.7024 51.6777 42.9168C52.5627 43.307 53.3152 43.9461 53.8434 44.7563C54.3717 45.5665 54.6529 46.5128 54.6529 47.48C54.6529 48.4472 54.3717 49.3935 53.8434 50.2037C53.3152 51.0139 52.5627 51.653 51.6777 52.0431C52.1971 52.2561 52.7526 52.3672 53.3139 52.3704C55.8629 52.3704 57.9375 50.178 57.9375 47.4816C57.9375 44.7853 55.8629 42.5896 53.3139 42.5896Z" fill="#C5F8DE" />
	<path fill-rule="evenodd" clip-rule="evenodd" d="M63.3984 47.4784C63.3984 47.2073 63.6182 46.9875 63.8893 46.9875H69.4652C69.7363 46.9875 69.956 47.2073 69.956 47.4784C69.956 47.7495 69.7363 47.9692 69.4652 47.9692H63.8893C63.6182 47.9692 63.3984 47.7495 63.3984 47.4784Z" fill="white" stroke="white" stroke-width="0.75" stroke-linecap="round" stroke-linejoin="round" />
	<path fill-rule="evenodd" clip-rule="evenodd" d="M62.4258 42.8741C62.4258 42.6031 62.6455 42.3833 62.9166 42.3833H66.6764C66.9475 42.3833 67.1673 42.6031 67.1673 42.8741C67.1673 43.1452 66.9475 43.365 66.6764 43.365H62.9166C62.6455 43.365 62.4258 43.1452 62.4258 42.8741Z" fill="white" stroke="white" stroke-width="0.75" stroke-linecap="round" stroke-linejoin="round" />
	<path fill-rule="evenodd" clip-rule="evenodd" d="M62.4395 52.0399C62.4395 51.7688 62.6592 51.5491 62.9303 51.5491H66.5985C66.8696 51.5491 67.0893 51.7688 67.0893 52.0399C67.0893 52.311 66.8696 52.5307 66.5985 52.5307H62.9303C62.6592 52.5307 62.4395 52.311 62.4395 52.0399Z" fill="white" stroke="white" stroke-width="0.75" stroke-linecap="round" stroke-linejoin="round" />
	<path fill-rule="evenodd" clip-rule="evenodd" d="M71.4097 46.5075C71.2821 46.4549 71.1452 46.4279 71.0071 46.4282L71.006 46.4282C70.7975 46.4282 70.5937 46.4901 70.4204 46.6059C70.2471 46.7218 70.1121 46.8865 70.0324 47.0792C69.9527 47.2718 69.932 47.4838 69.9728 47.6882C70.0136 47.8927 70.1142 48.0804 70.2618 48.2277C70.4094 48.375 70.5973 48.4751 70.8018 48.5155C71.0064 48.556 71.2183 48.5348 71.4108 48.4547C71.6033 48.3746 71.7677 48.2392 71.8832 48.0656C71.9987 47.8921 72.0602 47.6881 72.0597 47.4796L72.5505 47.4786L72.0597 47.4786C72.0597 47.3405 72.0325 47.2037 71.9795 47.0761C71.9266 46.9485 71.8491 46.8327 71.7513 46.7351C71.6535 46.6375 71.5374 46.5602 71.4097 46.5075ZM73.0414 47.4781C73.0413 47.211 72.9886 46.9466 72.8863 46.6999C72.7839 46.4531 72.6338 46.2289 72.4447 46.0402C72.2555 45.8515 72.031 45.7018 71.784 45.6C71.537 45.4981 71.2725 45.446 71.0055 45.4465C71.0057 45.4465 71.0059 45.4465 71.006 45.4465L71.006 45.9374L71.005 45.4465C71.0052 45.4465 71.0053 45.4465 71.0055 45.4465C70.603 45.4466 70.2095 45.5661 69.8748 45.7898C69.54 46.0137 69.2791 46.3318 69.1252 46.704C68.9713 47.0761 68.9312 47.4856 69.0101 47.8805C69.089 48.2754 69.2833 48.6381 69.5684 48.9226C69.8534 49.2071 70.2165 49.4006 70.6116 49.4786C71.0067 49.5567 71.4161 49.5157 71.7879 49.361C72.1597 49.2063 72.4773 48.9448 72.7005 48.6095C72.9235 48.2744 73.0421 47.8806 73.0414 47.4781Z" fill="white" />
	<path d="M71.0055 45.4465C71.2725 45.446 71.537 45.4981 71.784 45.6C72.031 45.7018 72.2555 45.8515 72.4447 46.0402C72.6338 46.2289 72.7839 46.4531 72.8863 46.6999C72.9886 46.9466 73.0413 47.211 73.0414 47.4781C73.0421 47.8806 72.9235 48.2744 72.7005 48.6095C72.4773 48.9448 72.1597 49.2063 71.7879 49.361C71.4161 49.5157 71.0067 49.5567 70.6116 49.4786C70.2165 49.4006 69.8534 49.2071 69.5684 48.9226C69.2833 48.6381 69.089 48.2754 69.0101 47.8805C68.9312 47.4856 68.9713 47.0761 69.1252 46.704C69.2791 46.3318 69.54 46.0137 69.8748 45.7898C70.2095 45.5661 70.603 45.4466 71.0055 45.4465ZM71.0055 45.4465C71.0057 45.4465 71.0059 45.4465 71.006 45.4465L71.006 45.9374L71.005 45.4465C71.0052 45.4465 71.0053 45.4465 71.0055 45.4465ZM71.0071 46.4282C71.1452 46.4279 71.2821 46.4549 71.4097 46.5075C71.5374 46.5602 71.6535 46.6375 71.7513 46.7351C71.8491 46.8327 71.9266 46.9485 71.9795 47.0761C72.0325 47.2037 72.0597 47.3405 72.0597 47.4786L72.5505 47.4786L72.0597 47.4796C72.0602 47.6881 71.9987 47.8921 71.8832 48.0656C71.7677 48.2392 71.6033 48.3746 71.4108 48.4547C71.2183 48.5348 71.0064 48.556 70.8018 48.5155C70.5973 48.4751 70.4094 48.375 70.2618 48.2277C70.1142 48.0804 70.0136 47.8927 69.9728 47.6882C69.932 47.4838 69.9527 47.2718 70.0324 47.0792C70.1121 46.8865 70.2471 46.7218 70.4204 46.6059C70.5937 46.4901 70.7975 46.4282 71.006 46.4282L71.0071 46.4282Z" stroke="white" stroke-width="0.75" stroke-linecap="round" stroke-linejoin="round" />
	<path fill-rule="evenodd" clip-rule="evenodd" d="M68.2189 41.824C68.0104 41.824 67.8066 41.8858 67.6333 42.0017C67.46 42.1176 67.3249 42.2823 67.2453 42.4749C67.1656 42.6676 67.1448 42.8796 67.1857 43.084C67.2265 43.2884 67.3271 43.4762 67.4747 43.6235C67.6223 43.7707 67.8103 43.8709 68.0148 43.9113C68.2193 43.9517 68.4312 43.9306 68.6237 43.8505C68.8162 43.7704 68.9806 43.635 69.0961 43.4614C69.2116 43.2878 69.273 43.0839 69.2726 42.8754C69.272 42.5963 69.1607 42.3289 68.9632 42.1318C68.7657 41.9347 68.498 41.824 68.2189 41.824ZM67.0877 41.1856C67.4225 40.9618 67.8162 40.8423 68.2189 40.8423C68.758 40.8423 69.275 41.0561 69.6566 41.4369C70.0382 41.8177 70.2531 42.3342 70.2543 42.8733C70.2551 43.276 70.1365 43.67 69.9134 44.0052C69.6902 44.3405 69.3727 44.6021 69.0008 44.7568C68.629 44.9115 68.2196 44.9525 67.8245 44.8744C67.4294 44.7963 67.0663 44.6028 66.7813 44.3183C66.4962 44.0339 66.3019 43.6713 66.223 43.2763C66.1441 42.8814 66.1842 42.4719 66.3381 42.0997C66.492 41.7276 66.7529 41.4094 67.0877 41.1856Z" fill="white" stroke="white" stroke-width="0.75" stroke-linecap="round" stroke-linejoin="round" />
	<path fill-rule="evenodd" clip-rule="evenodd" d="M68.143 50.9895C67.9344 50.989 67.7304 51.0505 67.5568 51.1661C67.3832 51.2817 67.2478 51.4463 67.1678 51.6389C67.0878 51.8315 67.0667 52.0435 67.1073 52.2481C67.1479 52.4528 67.2483 52.6407 67.3958 52.7882C67.5432 52.9357 67.7312 53.0361 67.9358 53.0767C68.1404 53.1172 68.3524 53.0962 68.5451 53.0162C68.7377 52.9361 68.9022 52.8008 69.0178 52.6272C69.1334 52.4535 69.1949 52.2495 69.1945 52.0409L69.6853 52.0399H69.1945C69.1945 51.7613 69.0838 51.4941 68.8868 51.2971C68.6898 51.1002 68.4227 50.9895 68.1441 50.9895L68.143 50.9895ZM70.1762 52.0394C70.1769 52.4421 70.0581 52.836 69.8349 53.1712C69.6116 53.5066 69.2938 53.7681 68.9217 53.9227C68.5496 54.0773 68.14 54.118 67.7448 54.0396C67.3496 53.9612 66.9865 53.7673 66.7016 53.4823C66.4167 53.1974 66.2228 52.8344 66.1444 52.4392C66.066 52.0439 66.1066 51.6343 66.2612 51.2623C66.4158 50.8902 66.6774 50.5723 67.0127 50.349C67.348 50.1258 67.7419 50.0071 68.1446 50.0078C68.6833 50.008 69.2 50.222 69.581 50.603C69.9619 50.984 70.176 51.5006 70.1762 52.0394ZM68.1446 50.0078C68.1448 50.0078 68.1449 50.0078 68.1451 50.0078L68.1441 50.4987V50.0078C68.1442 50.0078 68.1444 50.0078 68.1446 50.0078Z" fill="white" />
	<path d="M68.1446 50.0078C67.7419 50.0071 67.348 50.1258 67.0127 50.349C66.6774 50.5723 66.4158 50.8902 66.2612 51.2623C66.1066 51.6343 66.066 52.0439 66.1444 52.4392C66.2228 52.8344 66.4167 53.1974 66.7016 53.4823C66.9865 53.7673 67.3496 53.9612 67.7448 54.0396C68.14 54.118 68.5496 54.0773 68.9217 53.9227C69.2938 53.7681 69.6116 53.5066 69.8349 53.1712C70.0581 52.836 70.1769 52.4421 70.1762 52.0394C70.176 51.5006 69.9619 50.984 69.581 50.603C69.2 50.222 68.6833 50.008 68.1446 50.0078ZM68.1446 50.0078C68.1448 50.0078 68.1449 50.0078 68.1451 50.0078L68.1441 50.4987V50.0078C68.1442 50.0078 68.1444 50.0078 68.1446 50.0078ZM67.5568 51.1661C67.7304 51.0505 67.9344 50.989 68.143 50.9895L68.1441 50.9895C68.4227 50.9895 68.6898 51.1002 68.8868 51.2971C69.0838 51.4941 69.1945 51.7613 69.1945 52.0399H69.6853L69.1945 52.0409C69.1949 52.2495 69.1334 52.4535 69.0178 52.6272C68.9022 52.8008 68.7377 52.9361 68.5451 53.0162C68.3524 53.0962 68.1404 53.1172 67.9358 53.0767C67.7312 53.0361 67.5432 52.9357 67.3958 52.7882C67.2483 52.6407 67.1479 52.4528 67.1073 52.2481C67.0667 52.0435 67.0878 51.8315 67.1678 51.6389C67.2478 51.4463 67.3832 51.2817 67.5568 51.1661Z" stroke="white" stroke-width="0.75" stroke-linecap="round" stroke-linejoin="round" />
	<path fill-rule="evenodd" clip-rule="evenodd" d="M63.1286 51.5981C63.3781 51.7041 63.4944 51.9923 63.3884 52.2418C62.5469 54.2221 61.1458 55.9139 59.357 57.1097C57.5681 58.3055 55.4693 58.9533 53.3177 58.9739L53.313 58.9739H45.0865C44.8155 58.9739 44.5957 58.7541 44.5957 58.4831C44.5957 58.212 44.8155 57.9922 45.0865 57.9922H53.3106C55.2704 57.9731 57.1821 57.3828 58.8114 56.2936C60.4414 55.2039 61.7181 53.6623 62.4849 51.8578C62.5909 51.6083 62.8791 51.492 63.1286 51.5981Z" fill="white" stroke="white" stroke-width="0.75" stroke-linecap="round" stroke-linejoin="round" />
	<path fill-rule="evenodd" clip-rule="evenodd" d="M53.8051 36.477C53.8051 36.7481 53.5855 36.9679 53.3144 36.968C51.0213 36.9688 48.8013 37.7749 47.042 39.2457C46.834 39.4196 46.5245 39.392 46.3506 39.184C46.1767 38.976 46.2044 38.6665 46.4123 38.4926C48.3481 36.8742 50.7909 35.9872 53.3141 35.9863C53.5851 35.9862 53.805 36.2059 53.8051 36.477Z" fill="white" stroke="white" stroke-width="0.75" stroke-linecap="round" stroke-linejoin="round" />
	<path fill-rule="evenodd" clip-rule="evenodd" d="M57.793 37.4945C57.9233 37.2568 58.2216 37.1697 58.4593 37.3C59.8318 38.0525 61.0314 39.0842 61.9807 40.3287C62.1452 40.5442 62.1037 40.8522 61.8882 41.0166C61.6727 41.181 61.3647 41.1396 61.2002 40.9241C60.3341 39.7887 59.2396 38.8474 57.9874 38.1608C57.7497 38.0305 57.6626 37.7322 57.793 37.4945Z" fill="white" stroke="white" stroke-width="0.75" stroke-linecap="round" stroke-linejoin="round" />
	<path fill-rule="evenodd" clip-rule="evenodd" d="M62.7091 42.426C62.9567 42.3156 63.2469 42.4268 63.3572 42.6744C64.0312 44.1862 64.3802 45.8227 64.3814 47.478C64.3817 47.749 64.1621 47.969 63.891 47.9692C63.6199 47.9694 63.4 47.7498 63.3998 47.4787C63.3986 45.961 63.0786 44.4604 62.4606 43.0741C62.3502 42.8265 62.4615 42.5363 62.7091 42.426Z" fill="white" stroke="white" stroke-width="0.75" stroke-linecap="round" stroke-linejoin="round" />
	<path fill-rule="evenodd" clip-rule="evenodd" d="M53.3131 29.6414C53.5842 29.6414 53.8039 29.8611 53.8039 30.1322V36.4738C53.8039 36.7449 53.5842 36.9646 53.3131 36.9646C53.042 36.9646 52.8223 36.7449 52.8223 36.4738V30.1322C52.8223 29.8611 53.042 29.6414 53.3131 29.6414Z" fill="white" stroke="white" stroke-width="0.75" stroke-linecap="round" stroke-linejoin="round" />
	<path fill-rule="evenodd" clip-rule="evenodd" d="M53.3127 27.2722C52.6585 27.2722 52.1282 27.8025 52.1282 28.4568C52.1282 29.111 52.6585 29.6413 53.3127 29.6413C53.9669 29.6413 54.4973 29.111 54.4973 28.4568C54.4973 27.8025 53.9669 27.2722 53.3127 27.2722ZM51.1465 28.4568C51.1465 27.2604 52.1163 26.2905 53.3127 26.2905C54.5091 26.2905 55.4789 27.2604 55.4789 28.4568C55.4789 29.6531 54.5091 30.623 53.3127 30.623C52.1163 30.623 51.1465 29.6531 51.1465 28.4568Z" fill="white" stroke="white" stroke-width="0.75" stroke-linecap="round" stroke-linejoin="round" />
	<path fill-rule="evenodd" clip-rule="evenodd" d="M48.7643 33.7153C49.0354 33.7153 49.2551 33.9351 49.2551 34.2062V37.5177C49.2551 37.7888 49.0354 38.0085 48.7643 38.0085C48.4932 38.0085 48.2734 37.7888 48.2734 37.5177V34.2062C48.2734 33.9351 48.4932 33.7153 48.7643 33.7153Z" fill="white" stroke="white" stroke-width="0.75" stroke-linecap="round" stroke-linejoin="round" />
	<path fill-rule="evenodd" clip-rule="evenodd" d="M48.7678 31.3462C48.1136 31.3462 47.5832 31.8765 47.5832 32.5307C47.5832 33.1849 48.1136 33.7153 48.7678 33.7153C49.422 33.7153 49.9523 33.1849 49.9523 32.5307C49.9523 31.8765 49.422 31.3462 48.7678 31.3462ZM46.6016 32.5307C46.6016 31.3344 47.5714 30.3645 48.7678 30.3645C49.9642 30.3645 50.934 31.3344 50.934 32.5307C50.934 33.7271 49.9642 34.697 48.7678 34.697C47.5714 34.697 46.6016 33.7271 46.6016 32.5307Z" fill="white" stroke="white" stroke-width="0.75" stroke-linecap="round" stroke-linejoin="round" />
	<path fill-rule="evenodd" clip-rule="evenodd" d="M58.2233 33.7153C58.4943 33.7153 58.7141 33.9351 58.7141 34.2062V37.5177C58.7141 37.7888 58.4943 38.0085 58.2233 38.0085C57.9522 38.0085 57.7324 37.7888 57.7324 37.5177V34.2062C57.7324 33.9351 57.9522 33.7153 58.2233 33.7153Z" fill="white" stroke="white" stroke-width="0.75" stroke-linecap="round" stroke-linejoin="round" />
	<path fill-rule="evenodd" clip-rule="evenodd" d="M58.2229 31.3461C57.5687 31.3461 57.0383 31.8764 57.0383 32.5306C57.0383 33.1848 57.5687 33.7152 58.2229 33.7152C58.8771 33.7152 59.4074 33.1848 59.4074 32.5306C59.4074 31.8764 58.8771 31.3461 58.2229 31.3461ZM56.0566 32.5306C56.0566 31.3342 57.0265 30.3644 58.2229 30.3644C59.4192 30.3644 60.3891 31.3342 60.3891 32.5306C60.3891 33.727 59.4192 34.6968 58.2229 34.6968C57.0265 34.6968 56.0566 33.727 56.0566 32.5306Z" fill="white" stroke="white" stroke-width="0.75" stroke-linecap="round" stroke-linejoin="round" />
	<path fill-rule="evenodd" clip-rule="evenodd" d="M18.623 19.623C19.0219 19.2241 19.5629 19 20.127 19H45.0779C45.642 19 46.183 19.2241 46.5819 19.623C46.9807 20.0219 47.2048 20.5629 47.2048 21.127V26.3626C47.2048 26.6336 46.9851 26.8534 46.714 26.8534C46.4429 26.8534 46.2232 26.6336 46.2232 26.3626V21.127C46.2232 20.8232 46.1025 20.5319 45.8877 20.3171C45.6729 20.1023 45.3816 19.9817 45.0779 19.9817H20.127C19.8232 19.9817 19.5319 20.1023 19.3171 20.3171C19.1023 20.5319 18.9817 20.8232 18.9817 21.127V56.873C18.9817 57.1768 19.1023 57.4681 19.3171 57.6829C19.5319 57.8977 19.8232 58.0183 20.127 58.0183H45.0877C45.3588 58.0183 45.5785 58.2381 45.5785 58.5092C45.5785 58.7802 45.3588 59 45.0877 59H20.127C19.5629 59 19.0219 58.7759 18.623 58.377C18.2241 57.9781 18 57.4371 18 56.873V21.127C18 20.5629 18.2241 20.0219 18.623 19.623Z" fill="white" stroke="white" stroke-width="0.75" stroke-miterlimit="10" stroke-linecap="round" />
	<path d="M42.7554 23.4438H22.4609V29.2783H42.7554V23.4438Z" fill="#C5F8DE" />
	<path fill-rule="evenodd" clip-rule="evenodd" d="M35.7383 38.8627C35.7383 38.5916 35.958 38.3718 36.2291 38.3718H40.3849C40.656 38.3718 40.8757 38.5916 40.8757 38.8627C40.8757 39.1337 40.656 39.3535 40.3849 39.3535H36.2291C35.958 39.3535 35.7383 39.1337 35.7383 38.8627Z" fill="white" stroke="white" stroke-width="0.75" stroke-miterlimit="10" stroke-linecap="round" />
	<path fill-rule="evenodd" clip-rule="evenodd" d="M24.3379 38.8627C24.3379 38.5916 24.5576 38.3718 24.8287 38.3718H28.9845C29.2556 38.3718 29.4753 38.5916 29.4753 38.8627C29.4753 39.1337 29.2556 39.3535 28.9845 39.3535H24.8287C24.5576 39.3535 24.3379 39.1337 24.3379 38.8627Z" fill="white" stroke="white" stroke-width="0.75" stroke-miterlimit="10" stroke-linecap="round" />
	<path fill-rule="evenodd" clip-rule="evenodd" d="M26.9069 36.2939C27.1779 36.2939 27.3977 36.5137 27.3977 36.7848V40.9405C27.3977 41.2116 27.1779 41.4314 26.9069 41.4314C26.6358 41.4314 26.416 41.2116 26.416 40.9405V36.7848C26.416 36.5137 26.6358 36.2939 26.9069 36.2939Z" fill="white" stroke="white" stroke-width="0.75" stroke-miterlimit="10" stroke-linecap="round" />
	<path fill-rule="evenodd" clip-rule="evenodd" d="M25.091 48.2964C25.2827 48.1047 25.5935 48.1047 25.7852 48.2964L28.7237 51.2348C28.9153 51.4265 28.9153 51.7373 28.7237 51.929C28.532 52.1207 28.2212 52.1207 28.0295 51.929L25.091 48.9905C24.8993 48.7988 24.8993 48.488 25.091 48.2964Z" fill="white" stroke="white" stroke-width="0.75" stroke-miterlimit="10" stroke-linecap="round" />
	<path fill-rule="evenodd" clip-rule="evenodd" d="M28.7237 48.2964C28.9153 48.488 28.9153 48.7988 28.7237 48.9905L25.7852 51.929C25.5935 52.1207 25.2827 52.1207 25.091 51.929C24.8993 51.7373 24.8993 51.4265 25.091 51.2348L28.0295 48.2964C28.2212 48.1047 28.532 48.1047 28.7237 48.2964Z" fill="white" stroke="white" stroke-width="0.75" stroke-miterlimit="10" stroke-linecap="round" />
	<path fill-rule="evenodd" clip-rule="evenodd" d="M35.2949 50.0602C35.2949 49.7891 35.5147 49.5693 35.7858 49.5693H39.9415C40.2126 49.5693 40.4324 49.7891 40.4324 50.0602C40.4324 50.3313 40.2126 50.551 39.9415 50.551H35.7858C35.5147 50.551 35.2949 50.3313 35.2949 50.0602Z" fill="white" stroke="white" stroke-width="0.75" stroke-miterlimit="10" stroke-linecap="round" />
	<path fill-rule="evenodd" clip-rule="evenodd" d="M37.9024 48.4307C38.094 48.4307 38.2493 48.2753 38.2493 48.0838C38.2493 47.8922 38.0939 47.7369 37.9024 47.7369C37.7109 47.7369 37.5555 47.8922 37.5555 48.0838C37.5555 48.2753 37.7107 48.4307 37.9024 48.4307ZM37.2676 48.0838C37.2676 47.7333 37.5517 47.449 37.9024 47.449C38.2531 47.449 38.5372 47.7333 38.5372 48.0838C38.5372 48.4345 38.2529 48.7186 37.9024 48.7186C37.5519 48.7186 37.2676 48.4345 37.2676 48.0838Z" fill="white" stroke="white" stroke-width="0.75" stroke-miterlimit="10" stroke-linecap="round" />
	<path fill-rule="evenodd" clip-rule="evenodd" d="M37.9024 52.5276C38.0939 52.5276 38.2493 52.3723 38.2493 52.1807C38.2493 51.9892 38.094 51.8339 37.9024 51.8339C37.7107 51.8339 37.5555 51.9892 37.5555 52.1807C37.5555 52.3723 37.7109 52.5276 37.9024 52.5276ZM37.2676 52.1807C37.2676 51.83 37.5519 51.5459 37.9024 51.5459C38.2529 51.5459 38.5372 51.83 38.5372 52.1807C38.5372 52.5312 38.2531 52.8155 37.9024 52.8155C37.5517 52.8155 37.2676 52.5312 37.2676 52.1807Z" fill="white" stroke="white" stroke-width="0.75" stroke-miterlimit="10" stroke-linecap="round" />
	<path fill-rule="evenodd" clip-rule="evenodd" d="M21.1641 44.2487C21.1641 43.9776 21.3838 43.7578 21.6549 43.7578H43.5594C43.8304 43.7578 44.0502 43.9776 44.0502 44.2487C44.0502 44.5197 43.8304 44.7395 43.5594 44.7395H21.6549C21.3838 44.7395 21.1641 44.5197 21.1641 44.2487Z" fill="white" stroke="white" stroke-width="0.75" stroke-miterlimit="10" stroke-linecap="round" />
	<path fill-rule="evenodd" clip-rule="evenodd" d="M32.7272 32.8057C32.9982 32.8057 33.218 33.0254 33.218 33.2965V55.201C33.218 55.4721 32.9982 55.6918 32.7272 55.6918C32.4561 55.6918 32.2363 55.4721 32.2363 55.201V33.2965C32.2363 33.0254 32.4561 32.8057 32.7272 32.8057Z" fill="white" stroke="white" stroke-width="0.75" stroke-miterlimit="10" stroke-linecap="round" />
</svg>