<svg width="80" height="80" viewBox="0 0 80 80" fill="none" xmlns="http://www.w3.org/2000/svg">
	<circle cx="40" cy="40" r="40" fill="#A29EC0" />
	<path d="M64.0028 49.9014V51.9998C64.0031 52.3868 63.8757 52.763 63.6404 53.0698C63.4051 53.3766 63.0752 53.5968 62.702 53.6959V53.6959C56.1957 55.4357 49.3481 55.4357 42.8418 53.6959V53.6959C42.4689 53.5962 42.1393 53.376 41.9041 53.0693C41.6689 52.7626 41.5412 52.3866 41.541 51.9998V49.9014" stroke="white" stroke-width="2" stroke-miterlimit="10" stroke-linecap="round" />
	<path d="M64.0028 55.7007V57.7991C64.0031 58.1861 63.8757 58.5623 63.6404 58.8691C63.4051 59.1759 63.0752 59.3961 62.702 59.4952V59.4952C56.1957 61.235 49.3481 61.235 42.8418 59.4952V59.4952C42.4689 59.3956 42.1393 59.1753 41.9041 58.8686C41.6689 58.5619 41.5412 58.1859 41.541 57.7991V55.7007" stroke="white" stroke-width="2" stroke-miterlimit="10" stroke-linecap="round" />
	<path d="M52.7643 49.2682C58.966 49.2682 63.9935 47.841 63.9935 46.0804C63.9935 44.3198 58.966 42.8926 52.7643 42.8926C46.5626 42.8926 41.5352 44.3198 41.5352 46.0804C41.5352 47.841 46.5626 49.2682 52.7643 49.2682Z" stroke="white" stroke-width="2" stroke-miterlimit="10" stroke-linecap="round" />
	<path d="M52.7663 47.2604C48.7535 47.2604 45.8676 46.6436 44.4062 46.0838C45.8776 45.524 48.7735 44.9072 52.7663 44.9072C56.759 44.9072 59.6649 45.524 61.1263 46.0838C59.6549 46.6436 56.7691 47.2604 52.7663 47.2604Z" fill="#C5F8DE" />
	<path d="M29.6387 41.907C30.2999 42.7835 31.1734 43.4763 32.1765 43.9196C33.1796 44.3629 34.2791 44.5421 35.3706 44.4401C36.4621 44.3382 37.5096 43.9585 38.4138 43.337C39.3179 42.7155 40.0487 41.8729 40.5369 40.889C41.0251 39.9051 41.2546 38.8125 41.2036 37.7148C41.1525 36.617 40.8226 35.5506 40.2452 34.6165C39.6678 33.6823 38.862 32.9115 37.9041 32.3771C36.9462 31.8426 35.868 31.5622 34.7717 31.5625" stroke="white" stroke-width="2" stroke-linecap="round" stroke-linejoin="round" />
	<path d="M24.8183 42.3998C24.6456 42.3997 24.4773 42.3462 24.336 42.2466C24.1948 42.147 24.0876 42.0062 24.0291 41.8434C23.5052 40.365 23.2904 38.7943 23.3981 37.2292C23.5058 35.664 23.9337 34.1378 24.6552 32.7455C25.3766 31.3533 26.3762 30.1247 27.5917 29.1363C28.8071 28.148 30.2125 27.4209 31.7204 27.0004C31.9341 26.9413 32.1625 26.9697 32.3554 27.0794C32.5482 27.1891 32.6897 27.3711 32.7487 27.5853C32.8076 27.7996 32.7793 28.0286 32.6698 28.2219C32.5604 28.4152 32.3789 28.557 32.1651 28.6161C30.878 28.9744 29.6781 29.5942 28.64 30.437C27.602 31.2798 26.748 32.3277 26.1311 33.5154C25.5142 34.7031 25.1475 36.0054 25.054 37.3412C24.9605 38.677 25.1421 40.0178 25.5875 41.2802C25.6247 41.3839 25.6411 41.4939 25.6358 41.6039C25.6306 41.7139 25.6037 41.8219 25.5568 41.9215C25.5099 42.0211 25.4439 42.1105 25.3625 42.1845C25.2811 42.2585 25.186 42.3157 25.0825 42.3529C24.9972 42.3814 24.9082 42.3972 24.8183 42.3998Z" fill="#C5F8DE" />
	<path d="M35.2613 38.0151C35.2613 38.1133 35.2323 38.2092 35.1779 38.2908C35.1235 38.3724 35.0462 38.4359 34.9558 38.4735C34.8654 38.511 34.7659 38.5209 34.6698 38.5017C34.5738 38.4826 34.4857 38.4353 34.4164 38.366C34.3472 38.2966 34.3001 38.2082 34.281 38.1119C34.2619 38.0157 34.2717 37.916 34.3092 37.8253C34.3466 37.7346 34.41 37.6572 34.4914 37.6027C34.5728 37.5481 34.6685 37.519 34.7664 37.519C34.8976 37.519 35.0235 37.5713 35.1163 37.6643C35.2092 37.7574 35.2613 37.8836 35.2613 38.0151V38.0151Z" stroke="white" stroke-width="2" stroke-linecap="round" stroke-linejoin="round" />
	<path d="M34.7687 25.854V38.0153L25.1914 45.2792" stroke="white" stroke-width="2" stroke-linecap="round" stroke-linejoin="round" />
	<path d="M38.0103 56.549C34.217 57.2154 30.3111 56.6961 26.8222 55.0615C23.3334 53.4269 20.4306 50.7561 18.5076 47.4115C16.5846 44.0669 15.7344 40.2102 16.0725 36.3648C16.4105 32.5193 17.9204 28.8711 20.3973 25.9151C22.8742 22.9591 26.1982 20.8384 29.9184 19.8406C33.6386 18.8427 37.575 19.0162 41.1935 20.3373C44.8121 21.6584 47.9377 24.0633 50.1463 27.2257C52.3549 30.3881 53.5397 34.155 53.5399 38.0154C53.5395 38.8472 53.4847 39.678 53.376 40.5026" stroke="white" stroke-width="2" stroke-linecap="round" stroke-linejoin="round" />
	<path d="M16.0039 38.0151H18.542" stroke="white" stroke-width="2" stroke-linecap="round" stroke-linejoin="round" />
	<path d="M51 38.0151H53.5414" stroke="white" stroke-width="2" stroke-linecap="round" stroke-linejoin="round" />
	<path d="M34.7676 19.2002V21.7478" stroke="white" stroke-width="2" stroke-linecap="round" stroke-linejoin="round" />
	<path d="M34.7676 54.2827V56.8269" stroke="white" stroke-width="2" stroke-linecap="round" stroke-linejoin="round" />
</svg>