<svg width="80" height="80" viewBox="0 0 80 80" fill="none" xmlns="http://www.w3.org/2000/svg">
	<circle cx="40" cy="40" r="40" fill="#A29EC0" />
	<path d="M22.5469 23.1124L28.8662 19.4637L35.1815 23.1124L28.8662 26.761L22.5469 23.1124Z" fill="#C5F8DE" />
	<path fill-rule="evenodd" clip-rule="evenodd" d="M28.5581 16.0826C28.7488 15.9725 28.9838 15.9725 29.1745 16.0826L40.4244 22.5786C40.6151 22.6888 40.7326 22.8922 40.7325 23.1125C40.7325 23.3327 40.615 23.5361 40.4243 23.6462L29.1743 30.1381C28.9837 30.2481 28.7489 30.2481 28.5582 30.1381L17.3083 23.6462C17.1175 23.5361 17 23.3327 17 23.1125C17 22.8922 17.1174 22.6888 17.3081 22.5786L28.5581 16.0826ZM18.8491 23.1122L28.8663 28.8927L38.8834 23.1122L28.8663 17.328L18.8491 23.1122Z" fill="white" stroke="white" stroke-width="0.5" stroke-linecap="round" stroke-linejoin="round" />
	<path fill-rule="evenodd" clip-rule="evenodd" d="M17.6163 22.4961C17.9567 22.4961 18.2326 22.772 18.2326 23.1124V35.7443L22.4438 38.1714C22.7387 38.3414 22.84 38.7182 22.67 39.0131C22.5 39.3081 22.1232 39.4093 21.8283 39.2394L17 36.4565V23.1124C17 22.772 17.2759 22.4961 17.6163 22.4961Z" fill="white" stroke="white" stroke-width="0.5" stroke-miterlimit="10" stroke-linecap="round" />
	<path fill-rule="evenodd" clip-rule="evenodd" d="M40.1124 22.4961C40.4528 22.4961 40.7287 22.772 40.7287 23.1124V34.9705C40.7287 35.3109 40.4528 35.5868 40.1124 35.5868C39.772 35.5868 39.4961 35.3109 39.4961 34.9705V23.1124C39.4961 22.772 39.772 22.4961 40.1124 22.4961Z" fill="white" stroke="white" stroke-width="0.5" stroke-miterlimit="10" stroke-linecap="round" />
	<path fill-rule="evenodd" clip-rule="evenodd" d="M28.8663 28.988C29.2067 28.988 29.4826 29.264 29.4826 29.6044V33.6967C29.4826 34.0371 29.2067 34.3131 28.8663 34.3131C28.5259 34.3131 28.25 34.0371 28.25 33.6967V29.6044C28.25 29.264 28.5259 28.988 28.8663 28.988Z" fill="white" stroke="white" stroke-width="0.5" stroke-miterlimit="10" stroke-linecap="round" />
	<path fill-rule="evenodd" clip-rule="evenodd" d="M56.3429 40.6404C56.5131 40.3457 56.8901 40.2448 57.1848 40.415L62.136 43.2747C62.3266 43.3849 62.4441 43.5883 62.444 43.8085C62.444 44.0287 62.3265 44.2321 62.1358 44.3422L50.89 50.8341C50.6995 50.9441 50.4647 50.9442 50.2741 50.8343L46.6172 48.7265C46.3223 48.5565 46.2211 48.1797 46.391 47.8848C46.561 47.5899 46.9379 47.4886 47.2328 47.6586L50.5816 49.5889L60.5952 43.8083L56.5683 41.4824C56.2736 41.3122 56.1726 40.9352 56.3429 40.6404Z" fill="white" stroke="white" stroke-width="0.5" stroke-linecap="round" stroke-linejoin="round" />
	<path fill-rule="evenodd" clip-rule="evenodd" d="M61.8269 43.1921C62.1673 43.1921 62.4433 43.4681 62.4433 43.8085V57.1523L50.5812 64L38.7148 57.1524V47.3873C38.7148 47.0469 38.9908 46.7709 39.3312 46.7709C39.6716 46.7709 39.9475 47.0469 39.9475 47.3873V56.4405L50.5811 62.5768L61.2106 56.4406V43.8085C61.2106 43.4681 61.4866 43.1921 61.8269 43.1921Z" fill="white" stroke="white" stroke-width="0.5" stroke-miterlimit="10" stroke-linecap="round" />
	<path fill-rule="evenodd" clip-rule="evenodd" d="M50.5773 49.6841C50.9176 49.6841 51.1936 49.96 51.1936 50.3004V58.9289C51.1936 59.2693 50.9176 59.5452 50.5773 59.5452C50.2369 59.5452 49.9609 59.2693 49.9609 58.9289V50.3004C49.9609 49.96 50.2369 49.6841 50.5773 49.6841Z" fill="white" stroke="white" stroke-width="0.5" stroke-miterlimit="10" stroke-linecap="round" />
	<path fill-rule="evenodd" clip-rule="evenodd" d="M29.0302 36.3757C27.8184 36.3757 26.6562 36.8571 25.7994 37.714C24.9425 38.5708 24.4612 39.733 24.4612 40.9447C24.4612 42.1565 24.9425 43.3186 25.7994 44.1755C26.6562 45.0324 27.8184 45.5137 29.0302 45.5137H36.0152C36.3555 45.5137 36.6315 45.7897 36.6315 46.1301C36.6315 46.4705 36.3555 46.7464 36.0152 46.7464H29.0302C27.4915 46.7464 26.0158 46.1351 24.9278 45.0471C23.8397 43.9591 23.2285 42.4834 23.2285 40.9447C23.2285 39.4061 23.8397 37.9304 24.9278 36.8423C26.0158 35.7543 27.4915 35.1431 29.0302 35.1431H36.0152C37.5539 35.1431 39.0295 35.7543 40.1175 36.8423C41.2056 37.9304 41.8168 39.4061 41.8168 40.9447C41.8168 41.2851 41.5409 41.5611 41.2005 41.5611C40.8601 41.5611 40.5842 41.2851 40.5842 40.9447C40.5842 39.733 40.1028 38.5708 39.2459 37.714C38.3891 36.8571 37.2269 36.3757 36.0152 36.3757H29.0302Z" fill="white" stroke="white" stroke-width="0.5" stroke-linecap="round" stroke-linejoin="round" />
	<path fill-rule="evenodd" clip-rule="evenodd" d="M42.031 35.7594C42.031 35.419 42.307 35.1431 42.6474 35.1431H49.6323C51.171 35.1431 52.6467 35.7543 53.7347 36.8423C54.8228 37.9304 55.434 39.4061 55.434 40.9447C55.434 42.4834 54.8228 43.9591 53.7347 45.0471C52.6467 46.1351 51.171 46.7464 49.6323 46.7464H42.6474C41.1087 46.7464 39.633 46.1351 38.545 45.0471C37.4569 43.9591 36.8457 42.4834 36.8457 40.9447H38.0783C38.0783 42.1565 38.5597 43.3186 39.4166 44.1755C40.2734 45.0324 41.4356 45.5137 42.6474 45.5137H49.6323C50.8441 45.5137 52.0063 45.0324 52.8631 44.1755C53.72 43.3186 54.2013 42.1565 54.2013 40.9447C54.2013 39.733 53.72 38.5708 52.8631 37.714C52.0063 36.8571 50.8441 36.3757 49.6323 36.3757H42.6474C42.307 36.3757 42.031 36.0998 42.031 35.7594Z" fill="white" stroke="white" stroke-width="0.5" stroke-linecap="round" stroke-linejoin="round" />
	<path fill-rule="evenodd" clip-rule="evenodd" d="M44.373 39.0875C44.373 38.7471 44.649 38.4712 44.9894 38.4712H49.6365C50.2903 38.4712 50.9174 38.7309 51.3797 39.1932C51.842 39.6556 52.1018 40.2827 52.1018 40.9365C52.1018 41.5903 51.842 42.2174 51.3797 42.6797C50.9174 43.142 50.2903 43.4018 49.6365 43.4018C49.2961 43.4018 49.0201 43.1258 49.0201 42.7854C49.0201 42.4451 49.2961 42.1691 49.6365 42.1691C49.9634 42.1691 50.2769 42.0393 50.5081 41.8081C50.7393 41.5769 50.8691 41.2634 50.8691 40.9365C50.8691 40.6096 50.7392 40.296 50.5081 40.0649C50.2769 39.8337 49.9634 39.7038 49.6365 39.7038H44.9894C44.649 39.7038 44.373 39.4279 44.373 39.0875Z" fill="white" stroke="white" stroke-width="0.5" stroke-linecap="round" stroke-linejoin="round" />
	<path fill-rule="evenodd" clip-rule="evenodd" d="M26.9135 39.2096C27.3758 38.7473 28.0029 38.4875 28.6567 38.4875C28.9971 38.4875 29.273 38.7635 29.273 39.1039C29.273 39.4443 28.9971 39.7202 28.6567 39.7202C28.3298 39.7202 28.0162 39.8501 27.7851 40.0812C27.5539 40.3124 27.4241 40.6259 27.4241 40.9528C27.4241 41.2798 27.5539 41.5933 27.7851 41.8245C28.0162 42.0556 28.3298 42.1855 28.6567 42.1855H33.3038C33.6442 42.1855 33.9201 42.4614 33.9201 42.8018C33.9201 43.1422 33.6442 43.4181 33.3038 43.4181H28.6567C28.0029 43.4181 27.3758 43.1584 26.9135 42.6961C26.4511 42.2337 26.1914 41.6067 26.1914 40.9528C26.1914 40.299 26.4511 39.672 26.9135 39.2096Z" fill="white" stroke="white" stroke-width="0.5" stroke-linecap="round" stroke-linejoin="round" />
	<path d="M59.3621 48.0776L53.166 51.6564V58.9496L59.3621 55.3708V48.0776Z" fill="#C5F8DE" />
</svg>