<svg width="800" height="875" viewBox="0 0 800 875" fill="none" xmlns="http://www.w3.org/2000/svg">
	<path fill-rule="evenodd" clip-rule="evenodd" d="M44.1864 87.4248C68.0489 87.4248 87.3902 68.0721 87.3902 44.2034C87.3902 20.3347 68.0489 0.982422 44.1864 0.982422C20.3238 0.982422 0.982422 20.3347 0.982422 44.2034C0.982422 68.0721 20.3238 87.4248 44.1864 87.4248ZM44.1864 83.4248C65.8381 83.4248 83.3902 65.8646 83.3902 44.2034C83.3902 22.5422 65.8381 4.98242 44.1864 4.98242C22.5346 4.98242 4.98242 22.5422 4.98242 44.2034C4.98242 65.8646 22.5346 83.4248 44.1864 83.4248ZM219.584 120.038C252.444 120.038 279.081 93.3882 279.081 60.5166C279.081 27.6454 252.444 0.995117 219.584 0.995117C186.722 0.995117 160.086 27.6455 160.086 60.5166C160.086 93.3881 186.722 120.038 219.584 120.038ZM219.584 116.038C250.233 116.038 275.081 91.1806 275.081 60.5166C275.081 29.853 250.233 4.99512 219.584 4.99512C188.933 4.99512 164.086 29.853 164.086 60.5166C164.086 91.1806 188.933 116.038 219.584 116.038ZM581.382 7.557C819.38 22.5526 1000.17 227.721 985.185 465.823C971.88 677.445 808.375 843.712 605.087 867.594C579.221 870.671 553.13 871.414 527.131 869.812C292.346 855.03 113.367 655.129 122.96 421.192C122.628 417.881 123.778 393.159 126.055 384.723C132.31 361.364 146.748 341.032 166.736 327.432C186.724 313.833 210.932 307.873 234.946 310.638C258.96 313.404 281.18 324.711 297.556 342.498C313.934 360.285 323.376 383.367 324.161 407.537C324.163 407.596 324.139 407.898 324.095 408.426L324.095 408.432C323.29 418.206 316.156 504.865 356.928 562.755C357.908 564.146 358.915 565.52 359.95 566.876L359.984 566.927L359.99 566.937C360.097 567.099 360.204 567.262 360.312 567.424C380.094 597.301 406.513 622.2 437.508 640.177C468.691 658.262 503.653 668.844 539.629 671.086C667.924 679.213 778.469 581.671 786.544 453.319C788.945 414.997 781.84 376.677 765.861 341.766C749.882 306.857 725.524 276.438 694.958 253.22C664.389 230.003 628.559 214.704 590.653 208.686C552.748 202.669 513.943 206.119 477.692 218.728C470.067 221.375 437.872 231.565 428.563 231.565C401.85 231.565 376.229 220.948 357.339 202.051C338.449 183.153 327.837 157.522 327.837 130.796C327.837 87.9924 353.119 55.996 392.181 36.9075C392.181 36.9075 440.505 15.1142 497.721 10.4281C525.451 6.78039 553.467 5.81895 581.382 7.557ZM782.552 453.068C784.912 415.404 777.928 377.742 762.224 343.431C746.519 309.121 722.58 279.225 692.538 256.406C662.495 233.587 627.281 218.552 590.026 212.636C552.772 206.723 514.634 210.113 479.007 222.506L479.004 222.507C475.112 223.858 465.082 227.09 454.849 229.988C449.73 231.437 444.516 232.815 439.969 233.835C435.536 234.828 431.384 235.565 428.563 235.565C400.788 235.565 374.15 224.526 354.51 204.879C334.87 185.231 323.837 158.582 323.837 130.796C323.837 86.1019 350.349 52.8979 390.424 33.3136L390.48 33.2865L390.536 33.2611L392.18 36.9071C390.536 33.2611 390.537 33.2608 390.538 33.2603L390.541 33.259L390.55 33.2548L390.582 33.2406L390.698 33.1891C390.798 33.1445 390.944 33.0798 391.136 32.9962C391.518 32.829 392.081 32.5861 392.813 32.2769C394.278 31.6585 396.423 30.775 399.171 29.7026C404.668 27.5583 412.582 24.6564 422.297 21.6085C441.687 15.5251 468.338 8.83134 497.296 6.44952C525.25 2.77873 553.491 1.81271 581.631 3.56473L581.634 3.56492C821.838 18.6995 1004.3 225.769 989.177 466.074C975.748 679.661 810.727 847.464 605.554 871.567C579.452 874.671 553.122 875.421 526.885 873.805L526.88 873.805C289.997 858.89 109.404 657.267 118.954 421.269C118.87 420.021 118.9 417.744 118.986 415.15C119.084 412.184 119.27 408.472 119.539 404.603C120.065 397.018 120.936 388.341 122.192 383.685C128.696 359.401 143.705 338.264 164.486 324.125C185.267 309.986 210.436 303.789 235.403 306.664C260.371 309.54 283.473 321.296 300.499 339.789C317.526 358.281 327.343 382.279 328.159 407.407C328.168 407.722 328.133 408.129 328.125 408.224L328.125 408.226L328.123 408.242C328.112 408.383 328.097 408.563 328.08 408.771L328.047 409.178C327.983 409.961 327.894 411.078 327.797 412.501C327.601 415.347 327.37 419.426 327.235 424.481C326.964 434.596 327.077 448.599 328.623 464.436C331.494 493.85 339.267 529.158 358.308 557.695L358.422 557.278L363.214 564.56L363.95 565.524V565.672C383.359 594.832 409.212 619.141 439.514 636.717C470.161 654.49 504.521 664.891 539.878 667.094L539.882 667.094C665.968 675.081 774.616 579.218 782.552 453.068ZM363.946 566.937C363.944 567.271 363.898 567.604 363.809 567.929L361.416 567.276L363.946 566.937ZM147.617 282.187C189.568 282.187 223.574 248.167 223.574 206.201C223.574 164.235 189.568 130.212 147.617 130.212C105.665 130.212 71.6602 164.235 71.6602 206.201C71.6602 248.167 105.666 282.187 147.617 282.187ZM147.617 278.187C187.357 278.187 219.574 245.959 219.574 206.201C219.574 166.442 187.357 134.212 147.617 134.212C107.876 134.212 75.6602 166.442 75.6602 206.201C75.6602 245.959 107.876 278.187 147.617 278.187Z" fill="url(#paint0_linear_1681_5025)" />
	<defs>
		<linearGradient id="paint0_linear_1681_5025" x1="296.757" y1="788.382" x2="629.879" y2="129.939" gradientUnits="userSpaceOnUse">
			<stop stop-color="#8C61E1" />
			<stop offset="0.536899" stop-color="#B88DFC" />
			<stop offset="0.651042" stop-color="#B88DFC" />
		</linearGradient>
	</defs>
</svg>