<svg id="Layer_1" data-name="Layer 1" xmlns="http://www.w3.org/2000/svg" xmlns:xlink="http://www.w3.org/1999/xlink" viewBox="0 0 1000 290"><defs><style>.cls-1{fill:url(#linear-gradient);}.cls-2,.cls-5{fill:#fff;}.cls-3{fill:url(#linear-gradient-2);}.cls-4{fill:url(#linear-gradient-3);}.cls-5,.cls-6,.cls-7{stroke:#766d86;}.cls-5{stroke-width:6px;}.cls-6,.cls-7{fill:none;stroke-linecap:round;stroke-width:3px;}.cls-6{stroke-linejoin:round;}.cls-7{stroke-miterlimit:10;}.cls-8{fill:#99f5cb;}.cls-9{fill:#8c61e1;}.cls-10{fill:#5f45ba;}</style><linearGradient id="linear-gradient" x1="500" y1="289.89" x2="500" y2="-0.11" gradientTransform="matrix(1, 0, 0, -1, 0, 289.89)" gradientUnits="userSpaceOnUse"><stop offset="0" stop-color="#766d86"/><stop offset="1" stop-color="#a29ec0"/></linearGradient><linearGradient id="linear-gradient-2" x1="188" y1="89.89" x2="811.32" y2="89.89" gradientTransform="matrix(1, 0, 0, -1, 0, 289.89)" gradientUnits="userSpaceOnUse"><stop offset="0" stop-color="#766d86"/><stop offset="1" stop-color="#99f5cb"/></linearGradient><linearGradient id="linear-gradient-3" x1="179.35" y1="199.89" x2="830" y2="199.89" gradientTransform="matrix(1, 0, 0, -1, 0, 289.89)" gradientUnits="userSpaceOnUse"><stop offset="0" stop-color="#99f5cb"/><stop offset="1" stop-color="#766d86"/></linearGradient></defs><circle class="cls-1" cx="500" cy="145" r="145"/><path class="cls-2" d="M765.66,205.66a8,8,0,0,0,0-11.32l-50.92-50.91a8,8,0,0,0-11.31,11.31L748.69,200l-45.26,45.26a8,8,0,0,0,11.31,11.31ZM186,208H760V192H186Z" transform="translate(0 0)"/><path class="cls-3" d="M188,197a3,3,0,0,0,0,6Zm574.12,5.12a3,3,0,0,0,0-4.24L743,178.79a3,3,0,0,0-4.24,4.24l17,17-17,17a3,3,0,0,0,4.24,4.24ZM188,203H760v-6H188Z" transform="translate(0 0)"/><path class="cls-2" d="M234.34,84.34a8,8,0,0,0,0,11.32l50.92,50.91a8,8,0,0,0,11.31-11.31L251.31,90l45.26-45.25a8,8,0,0,0-11.31-11.32ZM814,82H240V98H814Z" transform="translate(0 0)"/><path class="cls-4" d="M830,93a3,3,0,0,0,0-6ZM237.88,87.88a3,3,0,0,0,0,4.24L257,111.21a3,3,0,1,0,4.24-4.24l-17-17,17-17A3,3,0,1,0,257,68.79ZM830,87H240v6H830Z" transform="translate(0 0)"/><circle class="cls-5" cx="900" cy="158" r="97"/><path class="cls-6" d="M951.69,129.68,960,136.9v38" transform="translate(0 0)"/><path class="cls-6" d="M928.31,129.68,920,136.9" transform="translate(0 0)"/><path class="cls-6" d="M848.31,129.68,840,136.9v38" transform="translate(0 0)"/><path class="cls-6" d="M871.69,129.68,880,136.9" transform="translate(0 0)"/><path class="cls-6" d="M888.31,129.68,880,136.9V145" transform="translate(0 0)"/><path class="cls-6" d="M911.69,129.68,920,136.9V145" transform="translate(0 0)"/><path class="cls-7" d="M859.88,129.18c6.52,0,11.81-6.31,11.81-14.09S866.4,101,859.88,101s-11.81,6.31-11.81,14.09S853.35,129.18,859.88,129.18Z" transform="translate(0 0)"/><path class="cls-7" d="M900,129.18c6.52,0,11.81-6.31,11.81-14.09S906.52,101,900,101s-11.81,6.31-11.81,14.09S893.48,129.18,900,129.18Z" transform="translate(0 0)"/><path class="cls-7" d="M940.12,129.18c6.53,0,11.81-6.31,11.81-14.09S946.65,101,940.12,101s-11.81,6.31-11.81,14.09S933.6,129.18,940.12,129.18Z" transform="translate(0 0)"/><path class="cls-6" d="M900,209.3c11,0,20-9.31,20-20.8s-9-20.81-20-20.81S880,177,880,188.5,889,209.3,900,209.3Z" transform="translate(0 0)"/><path class="cls-8" d="M900,172.91a14.09,14.09,0,0,0-4.68.81,15.87,15.87,0,0,1,0,29.55,14.1,14.1,0,0,0,4.68.82c8.15,0,14.78-7,14.78-15.59S908.15,172.91,900,172.91Z" transform="translate(0 0)"/><path class="cls-6" d="M932.11,188.5H949" transform="translate(0 0)"/><path class="cls-6" d="M929.16,174.51h11.42" transform="translate(0 0)"/><path class="cls-6" d="M929.21,202.35h11.13" transform="translate(0 0)"/><path class="cls-6" d="M958.41,188.5a4.65,4.65,0,0,1-.79,2.6,4.69,4.69,0,1,1-3.9-7.29,4.63,4.63,0,0,1,1.8.36,4.7,4.7,0,0,1,1.52,1,4.81,4.81,0,0,1,1,1.52,4.63,4.63,0,0,1,.36,1.8Z" transform="translate(0 0)"/><path class="cls-6" d="M950,174.52a4.66,4.66,0,0,1-2.9,4.33,4.68,4.68,0,0,1-4.39-8.22,4.63,4.63,0,0,1,2.6-.79,4.58,4.58,0,0,1,1.79.36,4.45,4.45,0,0,1,1.52,1,4.73,4.73,0,0,1,1,1.52,4.81,4.81,0,0,1,.36,1.79Z" transform="translate(0 0)"/><path class="cls-6" d="M949.71,202.35a4.63,4.63,0,0,1-.79,2.6,4.65,4.65,0,0,1-4.81,2,4.67,4.67,0,0,1-3.41-6.38,4.6,4.6,0,0,1,1.72-2.1,4.68,4.68,0,0,1,7.29,3.89Z" transform="translate(0 0)"/><path class="cls-6" d="M867.89,188.5H851" transform="translate(0 0)"/><path class="cls-6" d="M870.84,174.51H859.42" transform="translate(0 0)"/><path class="cls-6" d="M870.79,202.35H859.66" transform="translate(0 0)"/><path class="cls-6" d="M841.59,188.5a4.69,4.69,0,0,0,5.6,4.59,4.67,4.67,0,0,0,3.68-3.68,4.7,4.7,0,0,0-2-4.81,4.74,4.74,0,0,0-2.61-.79,4.62,4.62,0,0,0-1.79.36,4.7,4.7,0,0,0-1.52,1,4.81,4.81,0,0,0-1,1.52,4.63,4.63,0,0,0-.36,1.8Z" transform="translate(0 0)"/><path class="cls-6" d="M850.05,174.52a4.66,4.66,0,0,0,2.9,4.33,4.68,4.68,0,0,0,4.39-8.22,4.65,4.65,0,0,0-2.6-.79,4.69,4.69,0,0,0-4.69,4.68Z" transform="translate(0 0)"/><path class="cls-6" d="M855,207a4.69,4.69,0,1,0-4.68-4.68A4.68,4.68,0,0,0,855,207Z" transform="translate(0 0)"/><path class="cls-6" d="M870.78,202.38a31.63,31.63,0,0,0,58.44,0" transform="translate(0 0)"/><path class="cls-6" d="M870.83,174.52a34.31,34.31,0,0,0-2.94,14" transform="translate(0 0)"/><path class="cls-6" d="M925.13,167.69A31.6,31.6,0,0,0,900,155.09h0a31.56,31.56,0,0,0-25.12,12.6" transform="translate(0 0)"/><path class="cls-6" d="M932.11,188.5a34.31,34.31,0,0,0-2.94-14" transform="translate(0 0)"/><circle class="cls-5" cx="100" cy="158" r="97"/><path class="cls-6" d="M150.13,189.36l8.12,7.06v19.33" transform="translate(0 0)"/><path class="cls-6" d="M127.27,189.36l-8.12,7.06" transform="translate(0 0)"/><path class="cls-6" d="M49.1,189.36,41,196.42v19.33" transform="translate(0 0)"/><path class="cls-6" d="M71.94,189.36l8.12,7.06" transform="translate(0 0)"/><path class="cls-6" d="M88.18,189.36l-8.12,7.06" transform="translate(0 0)"/><path class="cls-6" d="M111,189.36l8.11,7.06v29.33" transform="translate(0 0)"/><path class="cls-7" d="M80.06,196.42V226" transform="translate(0 0)"/><path class="cls-7" d="M60.4,188.87c6.38,0,11.54-6.17,11.54-13.77s-5.16-13.77-11.54-13.77S48.86,167.5,48.86,175.1,54,188.87,60.4,188.87Z" transform="translate(0 0)"/><path class="cls-7" d="M99.61,188.87c6.38,0,11.54-6.17,11.54-13.77S106,161.33,99.61,161.33,88.07,167.5,88.07,175.1,93.24,188.87,99.61,188.87Z" transform="translate(0 0)"/><path class="cls-7" d="M138.81,188.87c6.38,0,11.54-6.17,11.54-13.77s-5.16-13.77-11.54-13.77-11.54,6.17-11.54,13.77S132.44,188.87,138.81,188.87Z" transform="translate(0 0)"/><path class="cls-6" d="M99.61,148.26c11.46,0,20.76-9.67,20.76-21.59s-9.3-21.59-20.76-21.59-20.75,9.66-20.75,21.59S88.15,148.26,99.61,148.26Z" transform="translate(0 0)"/><path class="cls-8" d="M99.61,110.17a15.21,15.21,0,0,0-5.09.91,16.78,16.78,0,0,1,0,31.18,15,15,0,0,0,5.09.91c8.64,0,15.66-7.41,15.66-16.5S108.25,110.17,99.61,110.17Z" transform="translate(0 0)"/><path class="cls-6" d="M132.94,126.67H150.5" transform="translate(0 0)"/><path class="cls-6" d="M129.88,112.16h11.84" transform="translate(0 0)"/><path class="cls-6" d="M129.92,141h11.55" transform="translate(0 0)"/><path class="cls-6" d="M155.37,131.52a4.86,4.86,0,1,0-4.86-4.85A4.86,4.86,0,0,0,155.37,131.52Z" transform="translate(0 0)"/><path class="cls-6" d="M146.58,117a4.86,4.86,0,1,0-4.86-4.86A4.86,4.86,0,0,0,146.58,117Z" transform="translate(0 0)"/><path class="cls-6" d="M146.34,145.9a4.86,4.86,0,1,0-4.86-4.86A4.86,4.86,0,0,0,146.34,145.9Z" transform="translate(0 0)"/><path class="cls-6" d="M66.29,126.67H48.71" transform="translate(0 0)"/><path class="cls-6" d="M69.34,112.16H57.5" transform="translate(0 0)"/><path class="cls-6" d="M69.3,141H57.74" transform="translate(0 0)"/><path class="cls-6" d="M43.86,131.52A4.86,4.86,0,1,0,39,126.67,4.86,4.86,0,0,0,43.86,131.52Z" transform="translate(0 0)"/><path class="cls-6" d="M52.64,117a4.86,4.86,0,1,0-4.86-4.86A4.87,4.87,0,0,0,52.64,117Z" transform="translate(0 0)"/><path class="cls-6" d="M52.88,145.9A4.86,4.86,0,1,0,48,141,4.85,4.85,0,0,0,52.88,145.9Z" transform="translate(0 0)"/><path class="cls-6" d="M109.29,159.85a33.86,33.86,0,0,0,20.64-18.78" transform="translate(0 0)"/><path class="cls-6" d="M69.29,141.07A33.87,33.87,0,0,0,89.45,159.7" transform="translate(0 0)"/><path class="cls-6" d="M69.34,112.16a35.7,35.7,0,0,0-3,14.51" transform="translate(0 0)"/><path class="cls-6" d="M125.68,105.08A32.77,32.77,0,0,0,99.61,92h0a32.77,32.77,0,0,0-26.07,13.08" transform="translate(0 0)"/><path class="cls-6" d="M132.94,126.67a36,36,0,0,0-3.05-14.51" transform="translate(0 0)"/><path class="cls-9" d="M215,177.15V182l-.63.12a5.28,5.28,0,0,1-.84.07,1.92,1.92,0,0,1-1.29-.34,1.49,1.49,0,0,1-.36-1.13v-12a.94.94,0,0,1,.24-.7,1.6,1.6,0,0,1,.67-.38,8.52,8.52,0,0,1,.84-.22c.32-.06.65-.11,1-.14s.68-.08,1-.1.66,0,1,0a7.1,7.1,0,0,1,4.75,1.36,4.5,4.5,0,0,1,1.61,3.65,4.63,4.63,0,0,1-1.56,3.67,6.59,6.59,0,0,1-4.51,1.37Zm1.68-2.49a3.58,3.58,0,0,0,2.25-.63,2.61,2.61,0,0,0,0-3.79,3.47,3.47,0,0,0-2.25-.62,8.89,8.89,0,0,0-1.76.14v4.9Zm16.84,3.91h-5.37c-.18.59-.37,1.21-.58,1.85s-.35,1.16-.48,1.58a5.3,5.3,0,0,1-.52.17,2.63,2.63,0,0,1-.68.07,2.23,2.23,0,0,1-1.27-.31,1.12,1.12,0,0,1-.46-.94,2,2,0,0,1,.08-.55l.21-.65c.13-.45.3-1,.51-1.61s.45-1.32.69-2.06.53-1.52.82-2.3.56-1.57.82-2.31.52-1.45.76-2.09.47-1.21.65-1.68a4.74,4.74,0,0,1,.91-.33,4.89,4.89,0,0,1,1.25-.17,4.48,4.48,0,0,1,1.54.26,1.33,1.33,0,0,1,.89.8c.31.88.67,1.89,1.05,3s.77,2.32,1.15,3.53.79,2.41,1.16,3.58.69,2.21,1,3.14a1.72,1.72,0,0,1-.67.43,2.3,2.3,0,0,1-1,.2,2,2,0,0,1-1.2-.29,2.18,2.18,0,0,1-.53-1ZM230.81,170c-.15.4-.31.84-.48,1.34s-.34,1-.53,1.56l-.55,1.63c-.2.55-.38,1.08-.55,1.61h4.17L230.93,170Zm19.83-1.35a2.86,2.86,0,0,1-.26.89c-.18.4-.45.94-.82,1.61s-.84,1.49-1.42,2.45-1.27,2.07-2.08,3.33V182l-.6.12a5.33,5.33,0,0,1-.82.07,1.82,1.82,0,0,1-1.27-.34,1.44,1.44,0,0,1-.36-1.1v-3.79c-.43-.63-.89-1.32-1.37-2.07s-.95-1.51-1.42-2.28-.89-1.52-1.29-2.25-.74-1.44-1-2a1.93,1.93,0,0,1,.6-.65,1.64,1.64,0,0,1,1-.31,1.78,1.78,0,0,1,1.11.31,3.37,3.37,0,0,1,.84,1.08l.6,1.13c.28.51.58,1,.88,1.63s.62,1.12.89,1.63l.6,1.06h.12c.31-.6.59-1.16.87-1.68l.79-1.59c.25-.53.5-1,.74-1.58l.79-1.68a2.29,2.29,0,0,1,.65-.24,3.8,3.8,0,0,1,.72-.07,1.64,1.64,0,0,1,1.06.33A1.15,1.15,0,0,1,250.64,168.63Zm11.57,9.7a1.85,1.85,0,0,1-.63.31,2.93,2.93,0,0,1-.88.12,3.58,3.58,0,0,1-1.06-.14,1.06,1.06,0,0,1-.58-.58c-.65-1.63-1.2-3-1.65-4.18s-.81-2.13-1.08-3h-.12c0,1.07-.1,2.06-.15,3s-.06,1.78-.09,2.64-.07,1.72-.12,2.6-.08,1.83-.15,2.85q-.24.08-.6.15a4.56,4.56,0,0,1-.76.07c-1.08,0-1.61-.4-1.61-1.2,0-.26,0-.65,0-1.18s.07-1.17.1-1.87.09-1.5.14-2.35.12-1.71.17-2.57.13-1.71.19-2.54.12-1.64.17-2.36a2,2,0,0,1,.69-.48,3.12,3.12,0,0,1,1.35-.26,2.93,2.93,0,0,1,1.46.31,1.79,1.79,0,0,1,.87,1c.21.49.42,1,.65,1.63s.48,1.2.72,1.82.47,1.24.69,1.85.47,1.15.67,1.68h.1c.54-1.5,1.08-3,1.61-4.37s1-2.6,1.41-3.57a2.76,2.76,0,0,1,.75-.24,4.08,4.08,0,0,1,.93-.1,3.27,3.27,0,0,1,1.42.26,1.16,1.16,0,0,1,.65.8c.06.3.13.79.21,1.46s.16,1.41.24,2.26.16,1.75.24,2.71.15,1.89.22,2.78.12,1.69.17,2.43.08,1.31.09,1.72a2.35,2.35,0,0,1-.67.29,2.84,2.84,0,0,1-.84.1,2.41,2.41,0,0,1-1.1-.24,1.13,1.13,0,0,1-.51-1c-.06-1-.12-2-.16-2.95s-.09-1.9-.12-2.76-.07-1.66-.1-2.38-.06-1.37-.07-1.9H265c-.26.76-.61,1.72-1.06,2.88S262.89,176.5,262.21,178.33Zm11.88,3.72a1.66,1.66,0,0,1-1.23-.46,1.73,1.73,0,0,1-.43-1.22V169.09a1.54,1.54,0,0,1,1.66-1.66H282a2.5,2.5,0,0,1,.22.51,2.45,2.45,0,0,1,.09.69,1.43,1.43,0,0,1-.28,1,1,1,0,0,1-.8.34h-5.8v3.41h5.85a2.17,2.17,0,0,1,.22.5,1.74,1.74,0,0,1,.12.67c0,.87-.37,1.3-1.11,1.3h-5.08v3.72h6.67a1.94,1.94,0,0,1,.21.53,1.88,1.88,0,0,1,.12.69c0,.87-.36,1.3-1.1,1.3Zm13.39.12a2,2,0,0,1-1.25-.31,1.48,1.48,0,0,1-.36-1.11V168a1.79,1.79,0,0,1,.77-.53,3.3,3.3,0,0,1,1.15-.19,3.2,3.2,0,0,1,1.32.26,2.45,2.45,0,0,1,1.06,1.06l3.45,6.22c.33.57.63,1.17.92,1.8s.57,1.16.79,1.68l.09,0c-.07-.94-.13-1.85-.16-2.73s0-1.78,0-2.64v-5.45a5.09,5.09,0,0,1,.58-.1,4.43,4.43,0,0,1,.81-.07,1.78,1.78,0,0,1,1.25.34,1.29,1.29,0,0,1,.39,1.08v13a1.75,1.75,0,0,1-.77.4,3.87,3.87,0,0,1-1.15.15,3.52,3.52,0,0,1-1.32-.24,2.47,2.47,0,0,1-1-1.06l-3.45-6.21c-.32-.56-.63-1.16-.94-1.78s-.54-1.22-.76-1.73l-.15,0c.08.88.13,1.78.15,2.71s0,1.81,0,2.64V182l-.57.12A5.33,5.33,0,0,1,287.48,182.17Zm25.2-14.74a2.08,2.08,0,0,1,.21.53,1.75,1.75,0,0,1,.13.7,1.38,1.38,0,0,1-.32,1,1,1,0,0,1-.81.34h-3.31v12l-.6.12a6,6,0,0,1-.84.07,2,2,0,0,1-1.3-.34,1.42,1.42,0,0,1-.39-1.13V170h-4a4.54,4.54,0,0,1-.24-.53,2.53,2.53,0,0,1-.09-.7,1.37,1.37,0,0,1,.29-1,1,1,0,0,1,.83-.34Zm7.25,12.39a3.22,3.22,0,0,0,2-.53,1.75,1.75,0,0,0,.65-1.37,1.49,1.49,0,0,0-.5-1.18,4,4,0,0,0-1.54-.76l-1.53-.48a13.69,13.69,0,0,1-1.66-.65,5.19,5.19,0,0,1-1.27-.84,3.68,3.68,0,0,1-.82-1.15,4.07,4.07,0,0,1-.29-1.59,3.67,3.67,0,0,1,1.47-3.07,6.28,6.28,0,0,1,4-1.15,8.83,8.83,0,0,1,1.85.17,5.71,5.71,0,0,1,1.49.43,2.35,2.35,0,0,1,1,.67,1.35,1.35,0,0,1,.36.91,1.48,1.48,0,0,1-.24.84,1.7,1.7,0,0,1-.55.55,5.41,5.41,0,0,0-1.54-.69,6.41,6.41,0,0,0-2.06-.31,3.35,3.35,0,0,0-1.9.45,1.38,1.38,0,0,0-.65,1.2,1.13,1.13,0,0,0,.44,1,4.93,4.93,0,0,0,1.41.65l1.37.43a8.11,8.11,0,0,1,3.24,1.71,3.8,3.8,0,0,1,1.15,2.92,4.24,4.24,0,0,1-.38,1.8,4,4,0,0,1-1.13,1.42,5.24,5.24,0,0,1-1.82.89,8.49,8.49,0,0,1-2.47.33,10.13,10.13,0,0,1-2.05-.19,7.53,7.53,0,0,1-1.58-.5,3.4,3.4,0,0,1-1.05-.77,1.5,1.5,0,0,1-.37-1,1.45,1.45,0,0,1,.32-.94,2.1,2.1,0,0,1,.77-.6,6.41,6.41,0,0,0,1.58,1A5.65,5.65,0,0,0,319.93,179.82Z" transform="translate(0 0)"/><path class="cls-9" d="M705,117.82a3.25,3.25,0,0,0,2-.53,1.74,1.74,0,0,0,.64-1.37,1.46,1.46,0,0,0-.5-1.18,4,4,0,0,0-1.53-.76l-1.54-.48a13.69,13.69,0,0,1-1.66-.65,5.39,5.39,0,0,1-1.27-.84,3.85,3.85,0,0,1-.82-1.15,4.07,4.07,0,0,1-.28-1.59,3.68,3.68,0,0,1,1.46-3.07,6.31,6.31,0,0,1,4-1.15,8.89,8.89,0,0,1,1.85.17,5.83,5.83,0,0,1,1.49.43,2.38,2.38,0,0,1,1,.67,1.31,1.31,0,0,1,.37.91,1.56,1.56,0,0,1-.24.84,1.73,1.73,0,0,1-.56.55,5.21,5.21,0,0,0-1.53-.69,6.47,6.47,0,0,0-2.07-.31,3.3,3.3,0,0,0-1.89.45,1.35,1.35,0,0,0-.65,1.2,1.13,1.13,0,0,0,.43,1,5.15,5.15,0,0,0,1.42.65l1.36.43a8,8,0,0,1,3.24,1.71,3.8,3.8,0,0,1,1.16,2.92,4.1,4.1,0,0,1-.39,1.8,3.85,3.85,0,0,1-1.13,1.42,5.07,5.07,0,0,1-1.82.89,8.44,8.44,0,0,1-2.47.33,10,10,0,0,1-2-.19,7.17,7.17,0,0,1-1.58-.5,3.59,3.59,0,0,1-1.06-.77,1.54,1.54,0,0,1-.36-1,1.44,1.44,0,0,1,.31-.94,2.18,2.18,0,0,1,.77-.6,6.61,6.61,0,0,0,1.58,1A5.7,5.7,0,0,0,705,117.82Zm10.78,2.23a1.64,1.64,0,0,1-1.23-.46,1.68,1.68,0,0,1-.43-1.22V107.09a1.62,1.62,0,0,1,.43-1.2,1.64,1.64,0,0,1,1.23-.46h7.94a2.5,2.5,0,0,1,.22.51,2.45,2.45,0,0,1,.09.69,1.38,1.38,0,0,1-.29,1,1,1,0,0,1-.79.34h-5.81v3.41H723a2.17,2.17,0,0,1,.22.5,1.74,1.74,0,0,1,.12.67c0,.87-.37,1.3-1.11,1.3h-5.09v3.72h6.68a1.94,1.94,0,0,1,.21.53,1.88,1.88,0,0,1,.12.69c0,.87-.37,1.3-1.1,1.3Zm14.9-.07-.62.12a5.49,5.49,0,0,1-.84.07,2,2,0,0,1-1.3-.34,1.49,1.49,0,0,1-.36-1.13v-12a.94.94,0,0,1,.24-.7,1.6,1.6,0,0,1,.67-.38,7.44,7.44,0,0,1,1.8-.36,19.28,19.28,0,0,1,2.16-.12,7.27,7.27,0,0,1,4.75,1.32,4.38,4.38,0,0,1,1.59,3.6,4.5,4.5,0,0,1-.79,2.64,5.15,5.15,0,0,1-2.19,1.7c.71.91,1.38,1.78,2,2.62s1.14,1.45,1.46,1.92a1.77,1.77,0,0,1-1.73,1.32,1.79,1.79,0,0,1-1.15-.34,4.93,4.93,0,0,1-.77-.91l-2.71-4.06h-2.23Zm1.92-7.52a3.59,3.59,0,0,0,2.18-.6,2.08,2.08,0,0,0,.84-1.82c0-1.62-1.08-2.42-3.23-2.42-.32,0-.64,0-.94,0l-.82.1v4.7Zm17,7.2a2.41,2.41,0,0,1-.77.36,3.51,3.51,0,0,1-1.15.17,3.56,3.56,0,0,1-1.29-.21,1.34,1.34,0,0,1-.75-.63c-.19-.38-.42-.89-.7-1.51s-.53-1.31-.84-2.06-.58-1.58-.88-2.43-.61-1.72-.92-2.57-.56-1.69-.81-2.49-.47-1.57-.65-2.26a2.37,2.37,0,0,1,.7-.48,2.53,2.53,0,0,1,1-.21,1.51,1.51,0,0,1,1,.31,2.07,2.07,0,0,1,.63,1q.84,2.69,1.65,5.23t1.78,5.21h.12c.28-.82.57-1.69.86-2.62s.6-1.88.89-2.86.57-2,.84-3,.55-2,.79-3a3.08,3.08,0,0,1,1.46-.33,1.84,1.84,0,0,1,1.11.31,1.07,1.07,0,0,1,.45,1,6.25,6.25,0,0,1-.26,1.44c-.18.67-.4,1.44-.67,2.31s-.58,1.75-.94,2.71-.68,1.88-1,2.76-.66,1.64-1,2.33A13.92,13.92,0,0,1,749.59,119.66Zm9.3.51a2,2,0,0,1-1.3-.34,1.45,1.45,0,0,1-.38-1.13V105.43l.62-.12a4.54,4.54,0,0,1,.82-.07,2.08,2.08,0,0,1,1.27.31,1.38,1.38,0,0,1,.41,1.15V120l-.63.12A5.09,5.09,0,0,1,758.89,120.17Zm16.66-12.87a1.36,1.36,0,0,1-.27.84,1.88,1.88,0,0,1-.6.53,9.08,9.08,0,0,0-1.39-.74,4.6,4.6,0,0,0-1.89-.34,4.26,4.26,0,0,0-3.27,1.32,5.49,5.49,0,0,0-1.2,3.82,5.23,5.23,0,0,0,1.25,3.81,4.48,4.48,0,0,0,3.36,1.28,5.62,5.62,0,0,0,1.9-.29,8.06,8.06,0,0,0,1.44-.72,1.69,1.69,0,0,1,.55.6,1.64,1.64,0,0,1,.22.84,1.37,1.37,0,0,1-.22.74,1.83,1.83,0,0,1-.72.6,5.67,5.67,0,0,1-1.37.53,7.37,7.37,0,0,1-2.16.26,9.35,9.35,0,0,1-2.95-.45,6.61,6.61,0,0,1-2.35-1.42,6.81,6.81,0,0,1-1.59-2.4,9.17,9.17,0,0,1-.57-3.38,8.75,8.75,0,0,1,.57-3.29,7,7,0,0,1,1.56-2.4,6.83,6.83,0,0,1,2.33-1.49,8.15,8.15,0,0,1,2.83-.5,8.37,8.37,0,0,1,1.88.19,5.41,5.41,0,0,1,1.44.48,2.84,2.84,0,0,1,.91.72A1.38,1.38,0,0,1,775.55,107.3Zm5,12.75a1.62,1.62,0,0,1-1.22-.46,1.68,1.68,0,0,1-.43-1.22V107.09a1.54,1.54,0,0,1,1.65-1.66h8a2.06,2.06,0,0,1,.21.51,2.13,2.13,0,0,1,.1.69,1.43,1.43,0,0,1-.29,1,1,1,0,0,1-.79.34h-5.81v3.41h5.86a1.83,1.83,0,0,1,.21.5,1.74,1.74,0,0,1,.12.67c0,.87-.37,1.3-1.1,1.3h-5.09v3.72h6.67a2.29,2.29,0,0,1,.22.53,1.88,1.88,0,0,1,.12.69c0,.87-.37,1.3-1.1,1.3Z" transform="translate(0 0)"/><path class="cls-10" d="M40.69,40.2H33V27.1a1.34,1.34,0,0,1,.39-1,2.81,2.81,0,0,1,1-.6,15.36,15.36,0,0,1,2.81-.55,27.66,27.66,0,0,1,3-.19c3.26,0,5.69.7,7.31,2.08A7,7,0,0,1,50,32.43a7.72,7.72,0,0,1-1.07,4.11,7.06,7.06,0,0,1-3.15,2.7A12.09,12.09,0,0,1,40.69,40.2ZM33,38.09h4.7v9.55a5.15,5.15,0,0,1-.91.2,8.63,8.63,0,0,1-1.27.09,3,3,0,0,1-1.93-.5A2.1,2.1,0,0,1,33,45.75Zm4.66-1.63h2.74a5.65,5.65,0,0,0,3.55-1,3.57,3.57,0,0,0,1.3-3,3.53,3.53,0,0,0-1.24-3,5.69,5.69,0,0,0-3.54-1c-.54,0-1,0-1.51.05a11.75,11.75,0,0,0-1.3.17Z" transform="translate(0 0)"/><path class="cls-10" d="M57.6,34.39v5.07H53.05V34a2.68,2.68,0,0,1,.44-1.57,4.85,4.85,0,0,1,1.26-1.2,10.41,10.41,0,0,1,2.81-1.11,14.28,14.28,0,0,1,3.66-.45c2.32,0,3.48.72,3.48,2.15a3.06,3.06,0,0,1-.52,1.7c-.24,0-.55-.09-.92-.13a11.24,11.24,0,0,0-1.19,0,11,11,0,0,0-2.49.27A7.24,7.24,0,0,0,57.6,34.39Zm-4.55,3.55,4.55.23v9.47a5.13,5.13,0,0,1-.85.2,7.68,7.68,0,0,1-1.22.09,3.07,3.07,0,0,1-1.87-.46,2,2,0,0,1-.61-1.65Z" transform="translate(0 0)"/><path class="cls-10" d="M84.35,38.94a10.38,10.38,0,0,1-1.11,4.94,7.72,7.72,0,0,1-3.13,3.22,9.59,9.59,0,0,1-4.75,1.13,9.74,9.74,0,0,1-4.78-1.13,7.92,7.92,0,0,1-3.16-3.2,10.24,10.24,0,0,1-1.13-5A10.05,10.05,0,0,1,67.44,34a8,8,0,0,1,3.18-3.2,9.66,9.66,0,0,1,4.74-1.13,9.46,9.46,0,0,1,4.72,1.15,8,8,0,0,1,3.14,3.22A10.08,10.08,0,0,1,84.35,38.94Zm-9-5.62a3.79,3.79,0,0,0-3.16,1.48A6.54,6.54,0,0,0,71,38.94a6.63,6.63,0,0,0,1.15,4.2,4.22,4.22,0,0,0,6.4,0,6.71,6.71,0,0,0,1.15-4.18,6.66,6.66,0,0,0-1.15-4.12A3.83,3.83,0,0,0,75.32,33.32Z" transform="translate(0 0)"/><path class="cls-10" d="M92.82,38.94H88.27V25.62a6,6,0,0,1,.87-.22,6.61,6.61,0,0,1,1.2-.11,3.07,3.07,0,0,1,1.89.46,2,2,0,0,1,.59,1.65Zm-4.55-1h4.55v4.37a2,2,0,0,0,.72,1.74,3.54,3.54,0,0,0,2.06.52,5.91,5.91,0,0,0,1.27-.15A5.57,5.57,0,0,0,98,44.05a4.29,4.29,0,0,1,.48.7,2.05,2.05,0,0,1,.22,1,2.09,2.09,0,0,1-1,1.78,5.71,5.71,0,0,1-3.16.7A7.36,7.36,0,0,1,90,46.92a5.11,5.11,0,0,1-1.68-4.28Zm2.78-3.77V30.58H98.3a4.33,4.33,0,0,1,.31.74,3,3,0,0,1,.17,1,1.92,1.92,0,0,1-.45,1.39,1.48,1.48,0,0,1-1.14.46Z" transform="translate(0 0)"/><path class="cls-10" d="M119.24,38.94a10.38,10.38,0,0,1-1.11,4.94A7.72,7.72,0,0,1,115,47.1a10.59,10.59,0,0,1-9.52,0,7.88,7.88,0,0,1-3.17-3.2,10.24,10.24,0,0,1-1.13-5A10.05,10.05,0,0,1,102.33,34a8,8,0,0,1,3.18-3.2,9.66,9.66,0,0,1,4.74-1.13A9.46,9.46,0,0,1,115,30.84a8,8,0,0,1,3.14,3.22A10.08,10.08,0,0,1,119.24,38.94Zm-9-5.62a3.79,3.79,0,0,0-3.16,1.48,6.54,6.54,0,0,0-1.17,4.14,6.63,6.63,0,0,0,1.15,4.2,3.84,3.84,0,0,0,3.22,1.46,3.79,3.79,0,0,0,3.18-1.48,6.71,6.71,0,0,0,1.15-4.18,6.66,6.66,0,0,0-1.15-4.12A3.82,3.82,0,0,0,110.21,33.32Z" transform="translate(0 0)"/><path class="cls-10" d="M132.11,33.36a5.14,5.14,0,0,0-3.71,1.44A5.59,5.59,0,0,0,126.9,39a5.54,5.54,0,0,0,1.44,4.14,5.12,5.12,0,0,0,3.74,1.41,6.77,6.77,0,0,0,2.31-.35,11.66,11.66,0,0,0,1.65-.76,2.67,2.67,0,0,1,.87.79,2,2,0,0,1,.31,1.13,2.35,2.35,0,0,1-1.52,2,8.6,8.6,0,0,1-4,.8,11.29,11.29,0,0,1-4.94-1,7.53,7.53,0,0,1-3.33-3.09,10,10,0,0,1-1.2-5.1,9.8,9.8,0,0,1,1.27-5.22,8,8,0,0,1,3.41-3.09,10.63,10.63,0,0,1,4.68-1,7.94,7.94,0,0,1,3.92.85A2.47,2.47,0,0,1,137,32.65a1.93,1.93,0,0,1-.3,1,2.79,2.79,0,0,1-.7.78,8.9,8.9,0,0,0-1.67-.78A6.57,6.57,0,0,0,132.11,33.36Z" transform="translate(0 0)"/><path class="cls-10" d="M157.68,38.94a10.38,10.38,0,0,1-1.11,4.94,7.72,7.72,0,0,1-3.13,3.22,9.56,9.56,0,0,1-4.75,1.13,9.67,9.67,0,0,1-4.77-1.13,7.94,7.94,0,0,1-3.17-3.2,10.24,10.24,0,0,1-1.12-5A10,10,0,0,1,140.77,34a8.09,8.09,0,0,1,3.18-3.2,9.66,9.66,0,0,1,4.74-1.13,9.46,9.46,0,0,1,4.72,1.15,8,8,0,0,1,3.14,3.22A10,10,0,0,1,157.68,38.94Zm-9-5.62a3.8,3.8,0,0,0-3.16,1.48,6.54,6.54,0,0,0-1.17,4.14,6.69,6.69,0,0,0,1.15,4.2,3.85,3.85,0,0,0,3.22,1.46,3.78,3.78,0,0,0,3.18-1.48A6.64,6.64,0,0,0,153,38.94a6.59,6.59,0,0,0-1.15-4.12A3.82,3.82,0,0,0,148.65,33.32Z" transform="translate(0 0)"/><path class="cls-10" d="M166.38,40.5l-4.56-.23V23.66c.18-.05.45-.11.84-.18a5.82,5.82,0,0,1,1.2-.11,3.11,3.11,0,0,1,1.92.46,2,2,0,0,1,.6,1.64Zm-4.56-2.56,4.56.23v9.47a5.29,5.29,0,0,1-.86.2,7.59,7.59,0,0,1-1.22.09,3,3,0,0,1-1.86-.46,2,2,0,0,1-.62-1.65Z" transform="translate(0 0)"/><path class="cls-2" d="M472.76,129.7a9.21,9.21,0,0,1-.55,3.32,7,7,0,0,1-1.53,2.42,6.28,6.28,0,0,1-2.31,1.46,8.52,8.52,0,0,1-2.9.48,8.62,8.62,0,0,1-2.91-.48,6.49,6.49,0,0,1-2.32-1.46,7.08,7.08,0,0,1-1.52-2.42,9.43,9.43,0,0,1-.55-3.32,9.16,9.16,0,0,1,.55-3.28,7,7,0,0,1,1.56-2.4,6.25,6.25,0,0,1,2.31-1.47,8.22,8.22,0,0,1,2.88-.5,8.05,8.05,0,0,1,2.85.5,6.09,6.09,0,0,1,2.33,1.47,6.57,6.57,0,0,1,1.54,2.4A8.73,8.73,0,0,1,472.76,129.7Zm-3.19,0a5.59,5.59,0,0,0-1.13-3.79,3.66,3.66,0,0,0-3-1.32,3.75,3.75,0,0,0-3,1.3,7.17,7.17,0,0,0,0,7.63,4.05,4.05,0,0,0,5.95,0A5.62,5.62,0,0,0,469.57,129.7Zm9.7,7.28-.62.12a5.49,5.49,0,0,1-.84.07,1.9,1.9,0,0,1-1.29-.34,1.45,1.45,0,0,1-.37-1.13v-12a.94.94,0,0,1,.24-.7,1.64,1.64,0,0,1,.68-.38,7.34,7.34,0,0,1,1.8-.36,19,19,0,0,1,2.16-.12,7.29,7.29,0,0,1,4.75,1.32,4.4,4.4,0,0,1,1.58,3.6,4.5,4.5,0,0,1-.79,2.64,5.12,5.12,0,0,1-2.18,1.7l2,2.62q1,1.22,1.47,1.92a1.9,1.9,0,0,1-.67,1,1.86,1.86,0,0,1-1.06.34,1.77,1.77,0,0,1-1.15-.34,4.58,4.58,0,0,1-.77-.91l-2.71-4.06h-2.24Zm1.93-7.52a3.61,3.61,0,0,0,2.18-.6,2.08,2.08,0,0,0,.84-1.82c0-1.62-1.08-2.42-3.24-2.42-.32,0-.63,0-.94,0l-.81.1v4.7Zm20.68-5.16a1.36,1.36,0,0,1-.27.84,1.88,1.88,0,0,1-.6.53,9.08,9.08,0,0,0-1.39-.74,4.6,4.6,0,0,0-1.89-.34,4.26,4.26,0,0,0-3.27,1.32,5.49,5.49,0,0,0-1.2,3.82,5.23,5.23,0,0,0,1.25,3.81,4.48,4.48,0,0,0,3.36,1.28,5.62,5.62,0,0,0,1.9-.29,8.06,8.06,0,0,0,1.44-.72,1.69,1.69,0,0,1,.55.6,1.64,1.64,0,0,1,.21.84,1.36,1.36,0,0,1-.21.74,1.83,1.83,0,0,1-.72.6,5.67,5.67,0,0,1-1.37.53,7.42,7.42,0,0,1-2.16.26,9.35,9.35,0,0,1-2.95-.45,6.41,6.41,0,0,1-3.94-3.82,9.17,9.17,0,0,1-.57-3.38,8.75,8.75,0,0,1,.57-3.29,7,7,0,0,1,1.56-2.4,6.73,6.73,0,0,1,2.33-1.49,8.15,8.15,0,0,1,2.83-.5,8.27,8.27,0,0,1,1.87.19,5.29,5.29,0,0,1,1.44.48,2.78,2.78,0,0,1,.92.72A1.44,1.44,0,0,1,501.88,124.3ZM508.34,137l-.63.12a5.28,5.28,0,0,1-.84.07,1.92,1.92,0,0,1-1.29-.34,1.49,1.49,0,0,1-.36-1.13V122.43l.6-.12a4.92,4.92,0,0,1,.84-.07,2.08,2.08,0,0,1,1.27.31,1.38,1.38,0,0,1,.41,1.15v4.73h6v-6l.6-.12a4.84,4.84,0,0,1,.84-.07,2,2,0,0,1,1.27.34,1.37,1.37,0,0,1,.41,1.15V137l-.63.12a5.28,5.28,0,0,1-.84.07,1.92,1.92,0,0,1-1.29-.34,1.49,1.49,0,0,1-.36-1.13v-4.77h-6Zm14.95.19a2,2,0,0,1-1.3-.34,1.45,1.45,0,0,1-.38-1.13V122.43l.62-.12a4.62,4.62,0,0,1,.82-.07,2.06,2.06,0,0,1,1.27.31,1.38,1.38,0,0,1,.41,1.15V137l-.62.12A5.33,5.33,0,0,1,523.29,137.17Zm15.34-7.51a6.26,6.26,0,0,0-.36-2.24,3.91,3.91,0,0,0-1-1.56,3.73,3.73,0,0,0-1.51-.91,5.53,5.53,0,0,0-1.9-.31c-.36,0-.7,0-1,0s-.57,0-.84.07v9.86a5.57,5.57,0,0,0,.91.15l1,0a4.55,4.55,0,0,0,3.46-1.29A5.45,5.45,0,0,0,538.63,129.66Zm3.19,0a9.37,9.37,0,0,1-.57,3.41,6.31,6.31,0,0,1-1.59,2.4,6.93,6.93,0,0,1-2.49,1.42,10.13,10.13,0,0,1-3.22.48l-.89,0a7.25,7.25,0,0,1-1-.07c-.33,0-.67-.08-1-.14a7.56,7.56,0,0,1-1-.27,1.5,1.5,0,0,1-1.15-1.44V123.63a.9.9,0,0,1,.24-.67,1.6,1.6,0,0,1,.67-.38,7.27,7.27,0,0,1,1.92-.39c.71-.06,1.37-.09,2-.09a10.67,10.67,0,0,1,3.29.48,6.58,6.58,0,0,1,2.57,1.39,6.2,6.2,0,0,1,1.63,2.35A8.43,8.43,0,0,1,541.82,129.63Zm-111,31.7a1.85,1.85,0,0,1-.63.31,3,3,0,0,1-.89.12,3.56,3.56,0,0,1-1.05-.14,1.06,1.06,0,0,1-.58-.58c-.65-1.63-1.21-3-1.65-4.18s-.81-2.13-1.08-3h-.12c-.05,1.07-.1,2.06-.15,3s-.06,1.78-.09,2.64-.08,1.72-.12,2.6-.08,1.83-.15,2.85q-.24.08-.6.15a4.59,4.59,0,0,1-.77.07c-1.07,0-1.6-.4-1.6-1.2,0-.26,0-.65,0-1.18s.06-1.17.1-1.87.09-1.5.14-2.35.12-1.71.17-2.57.13-1.71.19-2.54.12-1.64.17-2.36a2,2,0,0,1,.69-.48,3.12,3.12,0,0,1,1.35-.26,2.93,2.93,0,0,1,1.46.31,1.83,1.83,0,0,1,.87,1c.2.49.42,1,.64,1.63s.48,1.2.72,1.82.48,1.24.7,1.85.46,1.15.67,1.68h.1c.54-1.5,1.08-3,1.61-4.37s1-2.6,1.41-3.57a2.76,2.76,0,0,1,.75-.24,4.08,4.08,0,0,1,.93-.1,3.3,3.3,0,0,1,1.42.26,1.16,1.16,0,0,1,.65.8c.06.3.13.79.21,1.46s.16,1.41.24,2.26.16,1.75.24,2.71.15,1.89.22,2.78.12,1.69.17,2.43.08,1.31.09,1.72a2.35,2.35,0,0,1-.67.29,2.84,2.84,0,0,1-.84.1,2.41,2.41,0,0,1-1.1-.24,1.11,1.11,0,0,1-.51-1c-.06-1-.12-2-.17-2.95s-.08-1.9-.12-2.76-.06-1.66-.09-2.38-.06-1.37-.07-1.9h-.12c-.26.76-.61,1.72-1.06,2.88S431.5,159.5,430.82,161.33Zm18.47.24h-5.37c-.18.59-.37,1.21-.58,1.85s-.35,1.16-.48,1.58a4.74,4.74,0,0,1-.53.17,2.5,2.5,0,0,1-.67.07,2.21,2.21,0,0,1-1.27-.31,1.12,1.12,0,0,1-.46-.94,2,2,0,0,1,.08-.55l.21-.65c.13-.45.3-1,.51-1.61s.45-1.32.69-2.06.53-1.52.82-2.3.56-1.57.81-2.31.53-1.45.77-2.09.47-1.21.65-1.68a4.74,4.74,0,0,1,.91-.33,4.89,4.89,0,0,1,1.25-.17,4.48,4.48,0,0,1,1.54.26,1.29,1.29,0,0,1,.88.8c.32.88.68,1.89,1.06,3s.77,2.32,1.15,3.53.79,2.41,1.15,3.58.7,2.21,1,3.14a1.72,1.72,0,0,1-.67.43,2.3,2.3,0,0,1-1,.2,2,2,0,0,1-1.2-.29,2.18,2.18,0,0,1-.53-1ZM446.61,153c-.15.4-.31.84-.48,1.34s-.34,1-.53,1.56l-.55,1.63c-.2.55-.38,1.08-.56,1.61h4.18L446.73,153Zm12.8,12-.63.12a5.28,5.28,0,0,1-.84.07,1.9,1.9,0,0,1-1.29-.34,1.49,1.49,0,0,1-.36-1.13v-12a.94.94,0,0,1,.24-.7,1.6,1.6,0,0,1,.67-.38,7.34,7.34,0,0,1,1.8-.36,19,19,0,0,1,2.16-.12,7.27,7.27,0,0,1,4.75,1.32,4.37,4.37,0,0,1,1.58,3.6,4.5,4.5,0,0,1-.79,2.64,5.12,5.12,0,0,1-2.18,1.7l2,2.62c.65.81,1.14,1.45,1.46,1.92a1.9,1.9,0,0,1-.67,1,1.86,1.86,0,0,1-1.06.34,1.77,1.77,0,0,1-1.15-.34,4.58,4.58,0,0,1-.77-.91l-2.71-4.06h-2.23Zm1.92-7.52a3.59,3.59,0,0,0,2.18-.6,2.08,2.08,0,0,0,.84-1.82c0-1.62-1.08-2.42-3.24-2.42-.32,0-.63,0-.94,0l-.81.1v4.7Zm12.92,1.3V165a5.26,5.26,0,0,1-.62.12,5.49,5.49,0,0,1-.84.07,2.15,2.15,0,0,1-1.3-.31,1.55,1.55,0,0,1-.36-1.16V150.43l.6-.12a4.92,4.92,0,0,1,.84-.07,2.12,2.12,0,0,1,1.28.31,1.38,1.38,0,0,1,.4,1.15v5l5.76-6.34a2.42,2.42,0,0,1,1.66.46,1.38,1.38,0,0,1,.53,1.08,1.62,1.62,0,0,1-.27.91,5.07,5.07,0,0,1-.74.89l-4.06,4q1.88,1.92,3.29,3.43t2.4,2.43a1.63,1.63,0,0,1-.53,1.24,1.68,1.68,0,0,1-1.17.44,1.9,1.9,0,0,1-1.18-.36A9.41,9.41,0,0,1,479,164Zm13.2,6.29a1.62,1.62,0,0,1-1.22-.46,1.69,1.69,0,0,1-.44-1.22V152.09a1.55,1.55,0,0,1,1.66-1.66h7.94a2,2,0,0,1,.22.51,2.44,2.44,0,0,1,.1.69,1.43,1.43,0,0,1-.29,1,1,1,0,0,1-.79.34h-5.81v3.41h5.85a1.81,1.81,0,0,1,.22.5,1.74,1.74,0,0,1,.12.67c0,.87-.37,1.3-1.1,1.3h-5.09v3.72h6.67a2.29,2.29,0,0,1,.22.53,1.88,1.88,0,0,1,.12.69c0,.87-.37,1.3-1.11,1.3Zm22-14.62a2.06,2.06,0,0,1,.22.53,1.94,1.94,0,0,1,.12.7,1.42,1.42,0,0,1-.31,1,1,1,0,0,1-.82.34h-3.31v12l-.6.12a5.71,5.71,0,0,1-.84.07,2,2,0,0,1-1.3-.34,1.45,1.45,0,0,1-.38-1.13V153h-4a4.54,4.54,0,0,1-.24-.53,2.19,2.19,0,0,1-.1-.7,1.42,1.42,0,0,1,.29-1,1.08,1.08,0,0,1,.84-.34Zm6.32,9.72V165l-.63.12a5.28,5.28,0,0,1-.84.07,1.9,1.9,0,0,1-1.29-.34,1.49,1.49,0,0,1-.36-1.13v-12a.94.94,0,0,1,.24-.7,1.6,1.6,0,0,1,.67-.38,7.27,7.27,0,0,1,.84-.22c.32-.06.65-.11,1-.14s.67-.08,1-.1.66,0,1,0a7.1,7.1,0,0,1,4.75,1.36,4.53,4.53,0,0,1,1.61,3.65,4.63,4.63,0,0,1-1.56,3.67,6.59,6.59,0,0,1-4.51,1.37Zm1.68-2.49a3.58,3.58,0,0,0,2.25-.63,2.61,2.61,0,0,0,0-3.79,3.48,3.48,0,0,0-2.26-.62,8.85,8.85,0,0,0-1.75.14v4.9Zm11.11,7.39a1.62,1.62,0,0,1-1.22-.46,1.68,1.68,0,0,1-.43-1.22V150.43l.6-.12a4.84,4.84,0,0,1,.84-.07,2.08,2.08,0,0,1,1.27.31,1.38,1.38,0,0,1,.41,1.15v10.78h6.16a2.66,2.66,0,0,1,.25.53,2.17,2.17,0,0,1,.12.69,1.47,1.47,0,0,1-.32,1,1,1,0,0,1-.81.34ZM548,161.57h-5.37c-.18.59-.37,1.21-.58,1.85s-.35,1.16-.48,1.58a5.52,5.52,0,0,1-.53.17,2.5,2.5,0,0,1-.67.07,2.21,2.21,0,0,1-1.27-.31,1.1,1.1,0,0,1-.46-.94,2,2,0,0,1,.07-.55c.07-.19.14-.41.22-.65.13-.45.29-1,.5-1.61s.46-1.32.7-2.06.53-1.52.82-2.3.56-1.57.81-2.31.53-1.45.77-2.09l.65-1.68a4.74,4.74,0,0,1,.91-.33,4.89,4.89,0,0,1,1.25-.17,4.38,4.38,0,0,1,1.53.26,1.31,1.31,0,0,1,.89.8c.32.88.67,1.89,1.06,3s.76,2.32,1.15,3.53.78,2.41,1.15,3.58.7,2.21,1,3.14a1.59,1.59,0,0,1-.67.43,2.25,2.25,0,0,1-1,.2,2,2,0,0,1-1.2-.29,2.08,2.08,0,0,1-.53-1ZM545.26,153l-.48,1.34c-.16.5-.33,1-.52,1.56s-.36,1.07-.56,1.63l-.55,1.61h4.18l-2-6.14Zm20.51-.68a1.42,1.42,0,0,1-.26.84,2.12,2.12,0,0,1-.6.53,9.57,9.57,0,0,0-1.39-.74,4.65,4.65,0,0,0-1.9-.34,4.22,4.22,0,0,0-3.26,1.32,5.49,5.49,0,0,0-1.2,3.82,5.19,5.19,0,0,0,1.25,3.81,4.48,4.48,0,0,0,3.36,1.28,5.6,5.6,0,0,0,1.89-.29,7.74,7.74,0,0,0,1.44-.72,1.52,1.52,0,0,1,.55.6,1.55,1.55,0,0,1,.22.84,1.29,1.29,0,0,1-.22.74,1.7,1.7,0,0,1-.72.6,5.57,5.57,0,0,1-1.36.53,7.42,7.42,0,0,1-2.16.26,9.42,9.42,0,0,1-3-.45,6.37,6.37,0,0,1-3.93-3.82,9,9,0,0,1-.58-3.38,8.55,8.55,0,0,1,.58-3.29,6.66,6.66,0,0,1,3.89-3.89,8.06,8.06,0,0,1,2.83-.5,8.34,8.34,0,0,1,1.87.19,5.29,5.29,0,0,1,1.44.48,2.74,2.74,0,0,1,.91.72A1.38,1.38,0,0,1,565.77,152.3Zm5,12.75a1.66,1.66,0,0,1-1.23-.46,1.73,1.73,0,0,1-.43-1.22V152.09a1.54,1.54,0,0,1,1.66-1.66h7.94a2.5,2.5,0,0,1,.22.51,2.45,2.45,0,0,1,.09.69,1.38,1.38,0,0,1-.29,1,1,1,0,0,1-.79.34h-5.8v3.41H578a2.17,2.17,0,0,1,.22.5,1.74,1.74,0,0,1,.12.67c0,.87-.37,1.3-1.11,1.3h-5.08v3.72h6.67a1.94,1.94,0,0,1,.21.53,1.88,1.88,0,0,1,.12.69c0,.87-.36,1.3-1.1,1.3Z" transform="translate(0 0)"/><path class="cls-10" d="M856.79,45a4.87,4.87,0,0,0,3.18-.87A2.71,2.71,0,0,0,861,42a2.4,2.4,0,0,0-.79-1.87,6.26,6.26,0,0,0-2.42-1.2l-2.41-.74a19.68,19.68,0,0,1-3.24-1.41,5.41,5.41,0,0,1-2.9-5.07A5.64,5.64,0,0,1,851.48,27a9.72,9.72,0,0,1,6.12-1.74,14.61,14.61,0,0,1,3.68.42,6.88,6.88,0,0,1,2.55,1.17,2.16,2.16,0,0,1,.95,1.74,2.25,2.25,0,0,1-.35,1.24,3.27,3.27,0,0,1-.87.87,8,8,0,0,0-2.33-1.1A11,11,0,0,0,858,29.1a5.3,5.3,0,0,0-3,.7,2.19,2.19,0,0,0-1,1.89,1.93,1.93,0,0,0,.72,1.56,6.46,6.46,0,0,0,2.2,1l2.15.63a12.54,12.54,0,0,1,5,2.61A5.84,5.84,0,0,1,865.81,42a6.06,6.06,0,0,1-2.31,4.93,10.23,10.23,0,0,1-6.6,1.88,15.07,15.07,0,0,1-4-.48A7.13,7.13,0,0,1,850.15,47a2.48,2.48,0,0,1-1-1.92,2,2,0,0,1,.52-1.41,3.66,3.66,0,0,1,1.11-.89,11,11,0,0,0,2.47,1.52A8.41,8.41,0,0,0,856.79,45Z" transform="translate(0 0)"/><path class="cls-10" d="M871.7,41.83l-.19-3.18,9.92-1.48a4,4,0,0,0-1.07-2.44,3.68,3.68,0,0,0-2.82-1A4.2,4.2,0,0,0,874.4,35a5.38,5.38,0,0,0-1.3,3.76l.11,1.92a5,5,0,0,0,1.84,3.48,6.17,6.17,0,0,0,3.79,1.11,8.65,8.65,0,0,0,2.88-.46,8.3,8.3,0,0,0,2.11-1,2.66,2.66,0,0,1,.84.83,2,2,0,0,1-.54,2.74,6,6,0,0,1-2.3,1.06,13.55,13.55,0,0,1-3.29.37,11.6,11.6,0,0,1-5-1.06,7.85,7.85,0,0,1-3.44-3.16,10.21,10.21,0,0,1-1.24-5.26,10.33,10.33,0,0,1,.7-4,8.17,8.17,0,0,1,1.91-2.83,8,8,0,0,1,2.79-1.7,9.79,9.79,0,0,1,3.33-.57,9,9,0,0,1,4.28,1A7.32,7.32,0,0,1,884.7,34a7.48,7.48,0,0,1,1.06,4,2,2,0,0,1-.54,1.54,2.58,2.58,0,0,1-1.5.61Z" transform="translate(0 0)"/><path class="cls-10" d="M894,35V40h-4.55V34.58a2.74,2.74,0,0,1,.44-1.57,4.72,4.72,0,0,1,1.26-1.21,11.11,11.11,0,0,1,2.81-1.11,14.82,14.82,0,0,1,3.67-.44c2.32,0,3.48.71,3.48,2.14a2.87,2.87,0,0,1-.15,1,3.57,3.57,0,0,1-.37.76,8,8,0,0,0-.93-.13,11,11,0,0,0-1.18-.06,10.52,10.52,0,0,0-2.5.28A6.93,6.93,0,0,0,894,35Zm-4.55,3.55,4.55.22v9.47a4.18,4.18,0,0,1-.85.21,7.68,7.68,0,0,1-1.22.09A3.09,3.09,0,0,1,890,48a2,2,0,0,1-.61-1.65Z" transform="translate(0 0)"/><path class="cls-10" d="M918.17,30.4a2.66,2.66,0,0,1,1.59.44,1.61,1.61,0,0,1,.63,1.41,8.62,8.62,0,0,1-.39,2c-.26.92-.6,2-1,3.23s-.88,2.51-1.38,3.81-1,2.55-1.54,3.72-1,2.16-1.41,2.94a2.74,2.74,0,0,1-1,.45,6.67,6.67,0,0,1-1.61.18,5.25,5.25,0,0,1-1.78-.27,1.84,1.84,0,0,1-1-.87q-.4-.78-1-2.19c-.41-.93-.84-2-1.31-3.22s-.94-2.45-1.41-3.73-.89-2.52-1.28-3.7-.69-2.23-.94-3.15a3.38,3.38,0,0,1,2.41-1,2.72,2.72,0,0,1,1.57.42,2.59,2.59,0,0,1,.9,1.54L910,38.54c.2.64.43,1.34.69,2.09s.5,1.46.72,2.14l.55,1.72h.15c.74-2.17,1.46-4.42,2.17-6.77s1.31-4.62,1.83-6.84A4.28,4.28,0,0,1,918.17,30.4Z" transform="translate(0 0)"/><path class="cls-10" d="M925.61,41.83l-.19-3.18,9.92-1.48a3.93,3.93,0,0,0-1.08-2.44,3.64,3.64,0,0,0-2.81-1A4.18,4.18,0,0,0,928.31,35a5.38,5.38,0,0,0-1.3,3.76l.11,1.92A5,5,0,0,0,929,44.16a6.17,6.17,0,0,0,3.79,1.11,8.65,8.65,0,0,0,2.88-.46,8.47,8.47,0,0,0,2.11-1,2.66,2.66,0,0,1,.84.83,2.12,2.12,0,0,1,.31,1.09,2,2,0,0,1-.85,1.65,6,6,0,0,1-2.3,1.06,13.61,13.61,0,0,1-3.29.37,11.6,11.6,0,0,1-5.05-1.06A7.85,7.85,0,0,1,924,44.57a10.21,10.21,0,0,1-1.24-5.26,10.33,10.33,0,0,1,.7-4,8.17,8.17,0,0,1,1.91-2.83,8,8,0,0,1,2.79-1.7,9.79,9.79,0,0,1,3.33-.57,9,9,0,0,1,4.28,1A7.32,7.32,0,0,1,938.61,34a7.58,7.58,0,0,1,1.06,4,2,2,0,0,1-.54,1.54,2.58,2.58,0,0,1-1.5.61Z" transform="translate(0 0)"/><path class="cls-10" d="M947.88,35V40h-4.55V34.58a2.74,2.74,0,0,1,.44-1.57A4.72,4.72,0,0,1,945,31.8a11.11,11.11,0,0,1,2.81-1.11,14.82,14.82,0,0,1,3.67-.44c2.31,0,3.47.71,3.47,2.14a3.16,3.16,0,0,1-.14,1,4.13,4.13,0,0,1-.37.76,8,8,0,0,0-.93-.13,11,11,0,0,0-1.18-.06,10.52,10.52,0,0,0-2.5.28A6.93,6.93,0,0,0,947.88,35Zm-4.55,3.55,4.55.22v9.47a4.18,4.18,0,0,1-.85.21,7.68,7.68,0,0,1-1.22.09,3.09,3.09,0,0,1-1.87-.46,2,2,0,0,1-.61-1.65Z" transform="translate(0 0)"/></svg>