<svg width="1000" height="290" viewBox="0 0 1000 290" fill="none" xmlns="http://www.w3.org/2000/svg">
	<circle cx="500" cy="145" r="145" fill="url(#paint0_linear_0_1)" />
	<path d="M765.657 205.657C768.781 202.533 768.781 197.467 765.657 194.343L714.745 143.432C711.621 140.307 706.556 140.307 703.431 143.432C700.307 146.556 700.307 151.621 703.431 154.745L748.686 200L703.431 245.255C700.307 248.379 700.307 253.444 703.431 256.569C706.556 259.693 711.621 259.693 714.745 256.569L765.657 205.657ZM186 208L760 208L760 192L186 192L186 208Z" fill="white" />
	<path d="M188 197C186.343 197 185 198.343 185 200C185 201.657 186.343 203 188 203L188 197ZM762.121 202.121C763.293 200.95 763.293 199.05 762.121 197.879L743.029 178.787C741.858 177.615 739.958 177.615 738.787 178.787C737.615 179.958 737.615 181.858 738.787 183.029L755.757 200L738.787 216.971C737.615 218.142 737.615 220.042 738.787 221.213C739.958 222.385 741.858 222.385 743.029 221.213L762.121 202.121ZM188 203L760 203L760 197L188 197L188 203Z" fill="url(#paint1_linear_0_1)" />
	<path d="M234.343 84.3431C231.219 87.4673 231.219 92.5327 234.343 95.6569L285.255 146.569C288.379 149.693 293.444 149.693 296.569 146.569C299.693 143.444 299.693 138.379 296.569 135.255L251.314 90L296.569 44.7452C299.693 41.621 299.693 36.5557 296.569 33.4315C293.444 30.3073 288.379 30.3073 285.255 33.4315L234.343 84.3431ZM814 82L240 82V98L814 98V82Z" fill="white" />
	<path d="M830 93C831.657 93 833 91.6569 833 90C833 88.3431 831.657 87 830 87V93ZM237.879 87.8787C236.707 89.0503 236.707 90.9497 237.879 92.1213L256.971 111.213C258.142 112.385 260.042 112.385 261.213 111.213C262.385 110.042 262.385 108.142 261.213 106.971L244.243 90L261.213 73.0294C262.385 71.8579 262.385 69.9584 261.213 68.7868C260.042 67.6152 258.142 67.6152 256.971 68.7868L237.879 87.8787ZM830 87L240 87V93L830 93V87Z" fill="url(#paint2_linear_0_1)" />
	<circle cx="900" cy="158" r="97" fill="white" stroke="#766D86" stroke-width="6" />
	<path d="M951.691 129.679L960 136.901V174.879" stroke="#766D86" stroke-width="3" stroke-linecap="round" stroke-linejoin="round" />
	<path d="M928.306 129.679L919.998 136.901" stroke="#766D86" stroke-width="3" stroke-linecap="round" stroke-linejoin="round" />
	<path d="M848.308 129.679L840 136.901V174.879" stroke="#766D86" stroke-width="3" stroke-linecap="round" stroke-linejoin="round" />
	<path d="M871.688 129.679L880.004 136.901" stroke="#766D86" stroke-width="3" stroke-linecap="round" stroke-linejoin="round" />
	<path d="M888.311 129.679L879.994 136.901V145.018" stroke="#766D86" stroke-width="3" stroke-linecap="round" stroke-linejoin="round" />
	<path d="M911.689 129.679L919.998 136.901V145.018" stroke="#766D86" stroke-width="3" stroke-linecap="round" stroke-linejoin="round" />
	<path d="M859.877 129.175C866.4 129.175 871.687 122.868 871.687 115.087C871.687 107.307 866.4 101 859.877 101C853.354 101 848.066 107.307 848.066 115.087C848.066 122.868 853.354 129.175 859.877 129.175Z" stroke="#766D86" stroke-width="3" stroke-miterlimit="10" stroke-linecap="round" />
	<path d="M900 129.175C906.523 129.175 911.81 122.868 911.81 115.087C911.81 107.307 906.523 101 900 101C893.477 101 888.189 107.307 888.189 115.087C888.189 122.868 893.477 129.175 900 129.175Z" stroke="#766D86" stroke-width="3" stroke-miterlimit="10" stroke-linecap="round" />
	<path d="M940.125 129.175C946.648 129.175 951.935 122.868 951.935 115.087C951.935 107.307 946.648 101 940.125 101C933.602 101 928.314 107.307 928.314 115.087C928.314 122.868 933.602 129.175 940.125 129.175Z" stroke="#766D86" stroke-width="3" stroke-miterlimit="10" stroke-linecap="round" />
	<path d="M900.001 209.302C911.045 209.302 919.998 199.987 919.998 188.497C919.998 177.006 911.045 167.691 900.001 167.691C888.957 167.691 880.004 177.006 880.004 188.497C880.004 199.987 888.957 209.302 900.001 209.302Z" stroke="#766D86" stroke-width="3" stroke-linecap="round" stroke-linejoin="round" />
	<path d="M900.042 172.906C898.445 172.91 896.861 173.186 895.357 173.723C898.331 174.884 900.885 176.915 902.685 179.551C904.486 182.187 905.449 185.305 905.449 188.497C905.449 191.689 904.486 194.807 902.685 197.443C900.885 200.078 898.331 202.11 895.357 203.271C896.861 203.807 898.445 204.083 900.042 204.088C908.193 204.088 914.816 197.135 914.816 188.497C914.816 179.858 908.15 172.906 900.042 172.906Z" fill="#99F5CB" />
	<path d="M932.111 188.497H949.041" stroke="#766D86" stroke-width="3" stroke-linecap="round" stroke-linejoin="round" />
	<path d="M929.164 174.514H940.575" stroke="#766D86" stroke-width="3" stroke-linecap="round" stroke-linejoin="round" />
	<path d="M929.209 202.35H940.342" stroke="#766D86" stroke-width="3" stroke-linecap="round" stroke-linejoin="round" />
	<path d="M958.41 188.497C958.41 189.423 958.135 190.329 957.62 191.099C957.105 191.869 956.374 192.47 955.518 192.824C954.662 193.179 953.72 193.272 952.811 193.091C951.903 192.91 951.068 192.464 950.413 191.809C949.758 191.154 949.312 190.319 949.131 189.411C948.95 188.502 949.043 187.56 949.398 186.704C949.752 185.848 950.353 185.117 951.123 184.602C951.893 184.087 952.799 183.813 953.725 183.812C954.34 183.812 954.95 183.934 955.518 184.169C956.086 184.404 956.603 184.75 957.038 185.185C957.472 185.619 957.818 186.136 958.053 186.704C958.288 187.273 958.41 187.882 958.41 188.497V188.497Z" stroke="#766D86" stroke-width="3" stroke-linecap="round" stroke-linejoin="round" />
	<path d="M949.945 174.522C949.945 175.449 949.67 176.354 949.155 177.125C948.64 177.895 947.909 178.495 947.053 178.85C946.197 179.204 945.255 179.297 944.347 179.117C943.438 178.936 942.603 178.49 941.948 177.835C941.293 177.179 940.847 176.345 940.666 175.436C940.485 174.528 940.578 173.586 940.933 172.73C941.287 171.874 941.888 171.142 942.658 170.628C943.428 170.113 944.334 169.838 945.26 169.838C945.876 169.838 946.485 169.959 947.053 170.195C947.621 170.43 948.138 170.775 948.573 171.21C949.008 171.645 949.353 172.161 949.588 172.73C949.824 173.298 949.945 173.907 949.945 174.522V174.522Z" stroke="#766D86" stroke-width="3" stroke-linecap="round" stroke-linejoin="round" />
	<path d="M949.71 202.349C949.71 203.276 949.436 204.182 948.921 204.952C948.406 205.722 947.675 206.323 946.819 206.677C945.963 207.032 945.021 207.124 944.112 206.944C943.204 206.763 942.369 206.317 941.714 205.662C941.059 205.007 940.613 204.172 940.432 203.263C940.251 202.355 940.344 201.413 940.698 200.557C941.053 199.701 941.653 198.969 942.424 198.455C943.194 197.94 944.1 197.665 945.026 197.665C946.268 197.665 947.46 198.159 948.338 199.037C949.217 199.916 949.71 201.107 949.71 202.349V202.349Z" stroke="#766D86" stroke-width="3" stroke-linecap="round" stroke-linejoin="round" />
	<path d="M867.888 188.497H850.959" stroke="#766D86" stroke-width="3" stroke-linecap="round" stroke-linejoin="round" />
	<path d="M870.835 174.514H859.424" stroke="#766D86" stroke-width="3" stroke-linecap="round" stroke-linejoin="round" />
	<path d="M870.791 202.35H859.658" stroke="#766D86" stroke-width="3" stroke-linecap="round" stroke-linejoin="round" />
	<path d="M841.59 188.497C841.59 189.423 841.865 190.329 842.379 191.099C842.894 191.869 843.626 192.47 844.482 192.824C845.337 193.179 846.279 193.272 847.188 193.091C848.097 192.91 848.931 192.464 849.586 191.809C850.241 191.154 850.688 190.319 850.868 189.411C851.049 188.502 850.956 187.56 850.602 186.704C850.247 185.848 849.647 185.117 848.876 184.602C848.106 184.087 847.201 183.813 846.274 183.812C845.659 183.812 845.05 183.934 844.482 184.169C843.913 184.404 843.397 184.75 842.962 185.185C842.527 185.619 842.182 186.136 841.946 186.704C841.711 187.273 841.59 187.882 841.59 188.497V188.497Z" stroke="#766D86" stroke-width="3" stroke-linecap="round" stroke-linejoin="round" />
	<path d="M850.055 174.522C850.055 175.449 850.329 176.354 850.844 177.125C851.359 177.895 852.09 178.495 852.946 178.85C853.802 179.204 854.744 179.297 855.653 179.117C856.561 178.936 857.396 178.49 858.051 177.835C858.706 177.179 859.152 176.345 859.333 175.436C859.514 174.528 859.421 173.586 859.067 172.73C858.712 171.874 858.112 171.142 857.341 170.628C856.571 170.113 855.665 169.838 854.739 169.838C853.497 169.84 852.307 170.335 851.429 171.213C850.551 172.091 850.057 173.281 850.055 174.522Z" stroke="#766D86" stroke-width="3" stroke-linecap="round" stroke-linejoin="round" />
	<path d="M854.973 207.034C857.56 207.034 859.657 204.937 859.657 202.35C859.657 199.762 857.56 197.665 854.973 197.665C852.386 197.665 850.289 199.762 850.289 202.35C850.289 204.937 852.386 207.034 854.973 207.034Z" stroke="#766D86" stroke-width="3" stroke-linecap="round" stroke-linejoin="round" />
	<path d="M870.781 202.375C875.848 213.899 887.024 221.903 899.999 221.903C912.974 221.903 924.15 213.899 929.217 202.375" stroke="#766D86" stroke-width="3" stroke-linecap="round" stroke-linejoin="round" />
	<path d="M870.826 174.522C868.88 178.924 867.879 183.685 867.889 188.497" stroke="#766D86" stroke-width="3" stroke-linecap="round" stroke-linejoin="round" />
	<path d="M925.126 167.691C922.194 163.795 918.401 160.63 914.042 158.443C909.683 156.257 904.878 155.11 900.001 155.09V155.09C895.125 155.11 890.32 156.258 885.961 158.444C881.603 160.631 877.809 163.795 874.877 167.691" stroke="#766D86" stroke-width="3" stroke-linecap="round" stroke-linejoin="round" />
	<path d="M932.111 188.497C932.121 183.685 931.12 178.924 929.174 174.522" stroke="#766D86" stroke-width="3" stroke-linecap="round" stroke-linejoin="round" />
	<path d="M859.457 37.816C860.385 37.816 861.065 37.64 861.497 37.288C861.929 36.92 862.145 36.464 862.145 35.92C862.145 35.424 861.977 35.032 861.641 34.744C861.305 34.44 860.793 34.184 860.105 33.976L858.569 33.496C857.961 33.304 857.409 33.088 856.913 32.848C856.417 32.608 855.993 32.328 855.641 32.008C855.289 31.672 855.017 31.288 854.825 30.856C854.633 30.408 854.537 29.88 854.537 29.272C854.537 27.976 855.025 26.952 856.001 26.2C856.977 25.432 858.313 25.048 860.009 25.048C860.681 25.048 861.297 25.104 861.857 25.216C862.433 25.312 862.929 25.456 863.345 25.648C863.761 25.824 864.081 26.048 864.305 26.32C864.545 26.592 864.665 26.896 864.665 27.232C864.665 27.552 864.585 27.832 864.425 28.072C864.281 28.296 864.097 28.48 863.873 28.624C863.489 28.352 862.977 28.12 862.337 27.928C861.713 27.72 861.025 27.616 860.273 27.616C859.441 27.616 858.809 27.768 858.377 28.072C857.945 28.36 857.729 28.76 857.729 29.272C857.729 29.688 857.873 30.008 858.161 30.232C858.465 30.456 858.937 30.672 859.577 30.88L860.945 31.312C862.337 31.728 863.417 32.296 864.185 33.016C864.953 33.736 865.337 34.712 865.337 35.944C865.337 36.6 865.209 37.2 864.953 37.744C864.697 38.288 864.321 38.76 863.825 39.16C863.345 39.544 862.737 39.84 862.001 40.048C861.281 40.272 860.457 40.384 859.529 40.384C858.793 40.384 858.113 40.32 857.489 40.192C856.881 40.064 856.353 39.896 855.905 39.688C855.457 39.464 855.105 39.208 854.849 38.92C854.609 38.616 854.489 38.288 854.489 37.936C854.489 37.568 854.593 37.256 854.801 37C855.025 36.728 855.281 36.528 855.569 36.4C855.969 36.752 856.497 37.08 857.153 37.384C857.809 37.672 858.577 37.816 859.457 37.816ZM870.235 40.048C869.723 40.048 869.315 39.896 869.011 39.592C868.723 39.288 868.579 38.88 868.579 38.368V27.088C868.579 26.576 868.723 26.176 869.011 25.888C869.315 25.584 869.723 25.432 870.235 25.432H878.179C878.259 25.56 878.331 25.728 878.395 25.936C878.459 26.144 878.491 26.376 878.491 26.632C878.491 27.048 878.395 27.368 878.203 27.592C878.011 27.816 877.747 27.928 877.411 27.928H871.603V31.336H877.459C877.539 31.464 877.611 31.632 877.675 31.84C877.755 32.032 877.795 32.256 877.795 32.512C877.795 33.376 877.427 33.808 876.691 33.808H871.603V37.528H878.275C878.355 37.656 878.427 37.832 878.491 38.056C878.571 38.264 878.611 38.496 878.611 38.752C878.611 39.616 878.243 40.048 877.507 40.048H870.235ZM883.676 40.048C883.164 40.048 882.756 39.896 882.452 39.592C882.164 39.288 882.02 38.88 882.02 38.368V25.432C882.148 25.4 882.348 25.36 882.62 25.312C882.908 25.264 883.188 25.24 883.46 25.24C884.036 25.24 884.46 25.344 884.732 25.552C885.004 25.76 885.14 26.144 885.14 26.704V37.48H891.308C891.388 37.608 891.468 37.784 891.548 38.008C891.628 38.216 891.668 38.448 891.668 38.704C891.668 39.136 891.564 39.472 891.356 39.712C891.164 39.936 890.892 40.048 890.54 40.048H883.676ZM896.32 40.048C895.808 40.048 895.4 39.896 895.096 39.592C894.808 39.288 894.664 38.88 894.664 38.368V25.432C894.792 25.4 894.992 25.36 895.264 25.312C895.552 25.264 895.832 25.24 896.104 25.24C896.68 25.24 897.104 25.344 897.376 25.552C897.648 25.76 897.784 26.144 897.784 26.704V37.48H903.952C904.032 37.608 904.112 37.784 904.192 38.008C904.272 38.216 904.312 38.448 904.312 38.704C904.312 39.136 904.208 39.472 904 39.712C903.808 39.936 903.536 40.048 903.184 40.048H896.32ZM908.964 40.048C908.452 40.048 908.044 39.896 907.74 39.592C907.452 39.288 907.308 38.88 907.308 38.368V27.088C907.308 26.576 907.452 26.176 907.74 25.888C908.044 25.584 908.452 25.432 908.964 25.432H916.908C916.988 25.56 917.06 25.728 917.124 25.936C917.188 26.144 917.22 26.376 917.22 26.632C917.22 27.048 917.124 27.368 916.932 27.592C916.74 27.816 916.476 27.928 916.14 27.928H910.332V31.336H916.188C916.268 31.464 916.34 31.632 916.404 31.84C916.484 32.032 916.524 32.256 916.524 32.512C916.524 33.376 916.156 33.808 915.42 33.808H910.332V37.528H917.004C917.084 37.656 917.156 37.832 917.22 38.056C917.3 38.264 917.34 38.496 917.34 38.752C917.34 39.616 916.972 40.048 916.236 40.048H908.964ZM923.869 39.976C923.725 40.008 923.517 40.048 923.245 40.096C922.989 40.144 922.709 40.168 922.405 40.168C921.797 40.168 921.365 40.056 921.109 39.832C920.869 39.608 920.749 39.232 920.749 38.704V26.656C920.749 26.352 920.829 26.12 920.989 25.96C921.149 25.8 921.373 25.672 921.661 25.576C922.173 25.4 922.773 25.28 923.461 25.216C924.165 25.136 924.885 25.096 925.621 25.096C927.733 25.096 929.317 25.536 930.373 26.416C931.429 27.28 931.957 28.48 931.957 30.016C931.957 31.024 931.693 31.904 931.165 32.656C930.637 33.392 929.909 33.96 928.981 34.36C929.685 35.272 930.357 36.144 930.997 36.976C931.653 37.792 932.141 38.432 932.461 38.896C932.333 39.312 932.109 39.64 931.789 39.88C931.469 40.104 931.117 40.216 930.733 40.216C930.237 40.216 929.853 40.104 929.581 39.88C929.325 39.656 929.069 39.352 928.813 38.968L926.101 34.912H923.869V39.976ZM925.789 32.464C926.701 32.464 927.429 32.264 927.973 31.864C928.533 31.464 928.813 30.856 928.813 30.04C928.813 28.424 927.733 27.616 925.573 27.616C925.253 27.616 924.941 27.632 924.637 27.664C924.349 27.696 924.077 27.728 923.821 27.76V32.464H925.789ZM939.845 37.816C940.773 37.816 941.453 37.64 941.885 37.288C942.317 36.92 942.533 36.464 942.533 35.92C942.533 35.424 942.365 35.032 942.029 34.744C941.693 34.44 941.181 34.184 940.493 33.976L938.957 33.496C938.349 33.304 937.797 33.088 937.301 32.848C936.805 32.608 936.381 32.328 936.029 32.008C935.677 31.672 935.405 31.288 935.213 30.856C935.021 30.408 934.925 29.88 934.925 29.272C934.925 27.976 935.413 26.952 936.389 26.2C937.365 25.432 938.701 25.048 940.397 25.048C941.069 25.048 941.685 25.104 942.245 25.216C942.821 25.312 943.317 25.456 943.733 25.648C944.149 25.824 944.469 26.048 944.693 26.32C944.933 26.592 945.053 26.896 945.053 27.232C945.053 27.552 944.973 27.832 944.813 28.072C944.669 28.296 944.485 28.48 944.261 28.624C943.877 28.352 943.365 28.12 942.725 27.928C942.101 27.72 941.413 27.616 940.661 27.616C939.829 27.616 939.197 27.768 938.765 28.072C938.333 28.36 938.117 28.76 938.117 29.272C938.117 29.688 938.261 30.008 938.549 30.232C938.853 30.456 939.325 30.672 939.965 30.88L941.333 31.312C942.725 31.728 943.805 32.296 944.573 33.016C945.341 33.736 945.725 34.712 945.725 35.944C945.725 36.6 945.597 37.2 945.341 37.744C945.085 38.288 944.709 38.76 944.213 39.16C943.733 39.544 943.125 39.84 942.389 40.048C941.669 40.272 940.845 40.384 939.917 40.384C939.181 40.384 938.501 40.32 937.877 40.192C937.269 40.064 936.741 39.896 936.293 39.688C935.845 39.464 935.493 39.208 935.237 38.92C934.997 38.616 934.877 38.288 934.877 37.936C934.877 37.568 934.981 37.256 935.189 37C935.413 36.728 935.669 36.528 935.957 36.4C936.357 36.752 936.885 37.08 937.541 37.384C938.197 37.672 938.965 37.816 939.845 37.816Z" fill="#5F45BA" />
	<circle cx="100" cy="158" r="97" fill="white" stroke="#766D86" stroke-width="6" />
	<path d="M150.127 189.359L158.246 196.417V215.746" stroke="#766D86" stroke-width="3" stroke-linecap="round" stroke-linejoin="round" />
	<path d="M127.271 189.359L119.152 196.417" stroke="#766D86" stroke-width="3" stroke-linecap="round" stroke-linejoin="round" />
	<path d="M49.0974 189.359L40.9785 196.417V215.746" stroke="#766D86" stroke-width="3" stroke-linecap="round" stroke-linejoin="round" />
	<path d="M71.9434 189.359L80.0624 196.417" stroke="#766D86" stroke-width="3" stroke-linecap="round" stroke-linejoin="round" />
	<path d="M88.1814 189.359L80.0625 196.417" stroke="#766D86" stroke-width="3" stroke-linecap="round" stroke-linejoin="round" />
	<path d="M111.035 189.359L119.154 196.417C119.154 196.417 119.154 218.197 119.154 225.746" stroke="#766D86" stroke-width="3" stroke-linecap="round" stroke-linejoin="round" />
	<path d="M80.0625 196.417V226.001" stroke="#766D86" stroke-width="3" stroke-miterlimit="10" stroke-linecap="round" />
	<path d="M60.4008 188.867C66.775 188.867 71.9423 182.704 71.9423 175.1C71.9423 167.497 66.775 161.334 60.4008 161.334C54.0266 161.334 48.8594 167.497 48.8594 175.1C48.8594 182.704 54.0266 188.867 60.4008 188.867Z" stroke="#766D86" stroke-width="3" stroke-miterlimit="10" stroke-linecap="round" />
	<path d="M99.6119 188.867C105.986 188.867 111.153 182.704 111.153 175.1C111.153 167.497 105.986 161.334 99.6119 161.334C93.2377 161.334 88.0703 167.497 88.0703 175.1C88.0703 182.704 93.2377 188.867 99.6119 188.867Z" stroke="#766D86" stroke-width="3" stroke-miterlimit="10" stroke-linecap="round" />
	<path d="M138.813 188.867C145.187 188.867 150.354 182.704 150.354 175.1C150.354 167.497 145.187 161.334 138.813 161.334C132.439 161.334 127.271 167.497 127.271 175.1C127.271 182.704 132.439 188.867 138.813 188.867Z" stroke="#766D86" stroke-width="3" stroke-miterlimit="10" stroke-linecap="round" />
	<path d="M99.6115 148.255C111.075 148.255 120.367 138.59 120.367 126.667C120.367 114.744 111.075 105.079 99.6115 105.079C88.1483 105.079 78.8555 114.744 78.8555 126.667C78.8555 138.59 88.1483 148.255 99.6115 148.255Z" stroke="#766D86" stroke-width="3" stroke-linecap="round" stroke-linejoin="round" />
	<path d="M99.6131 110.174C97.8746 110.177 96.1501 110.485 94.5176 111.083C97.6394 112.323 100.317 114.472 102.204 117.251C104.09 120.03 105.099 123.312 105.099 126.671C105.099 130.03 104.09 133.312 102.204 136.091C100.317 138.87 97.6394 141.019 94.5176 142.259C96.1501 142.857 97.8746 143.164 99.6131 143.168C108.25 143.168 115.273 135.762 115.273 126.667C115.273 117.571 108.25 110.174 99.6131 110.174Z" fill="#99F5CB" />
	<path d="M132.936 126.667H150.498" stroke="#766D86" stroke-width="3" stroke-linecap="round" stroke-linejoin="round" />
	<path d="M129.881 112.161H141.72" stroke="#766D86" stroke-width="3" stroke-linecap="round" stroke-linejoin="round" />
	<path d="M129.922 141.045H141.472" stroke="#766D86" stroke-width="3" stroke-linecap="round" stroke-linejoin="round" />
	<path d="M155.368 131.525C158.05 131.525 160.225 129.35 160.225 126.667C160.225 123.984 158.05 121.809 155.368 121.809C152.685 121.809 150.51 123.984 150.51 126.667C150.51 129.35 152.685 131.525 155.368 131.525Z" stroke="#766D86" stroke-width="3" stroke-linecap="round" stroke-linejoin="round" />
	<path d="M146.577 117.019C149.259 117.019 151.434 114.844 151.434 112.161C151.434 109.479 149.259 107.304 146.577 107.304C143.894 107.304 141.719 109.479 141.719 112.161C141.719 114.844 143.894 117.019 146.577 117.019Z" stroke="#766D86" stroke-width="3" stroke-linecap="round" stroke-linejoin="round" />
	<path d="M146.338 145.903C149.021 145.903 151.196 143.728 151.196 141.045C151.196 138.362 149.021 136.187 146.338 136.187C143.655 136.187 141.48 138.362 141.48 141.045C141.48 143.728 143.655 145.903 146.338 145.903Z" stroke="#766D86" stroke-width="3" stroke-linecap="round" stroke-linejoin="round" />
	<path d="M66.286 126.667H48.7148" stroke="#766D86" stroke-width="3" stroke-linecap="round" stroke-linejoin="round" />
	<path d="M69.3427 112.161H57.5039" stroke="#766D86" stroke-width="3" stroke-linecap="round" stroke-linejoin="round" />
	<path d="M69.3026 141.045H57.7441" stroke="#766D86" stroke-width="3" stroke-linecap="round" stroke-linejoin="round" />
	<path d="M43.8579 131.525C46.5407 131.525 48.7156 129.35 48.7156 126.667C48.7156 123.984 46.5407 121.809 43.8579 121.809C41.175 121.809 39 123.984 39 126.667C39 129.35 41.175 131.525 43.8579 131.525Z" stroke="#766D86" stroke-width="3" stroke-linecap="round" stroke-linejoin="round" />
	<path d="M52.639 117.019C55.3219 117.019 57.4968 114.844 57.4968 112.161C57.4968 109.479 55.3219 107.304 52.639 107.304C49.9561 107.304 47.7812 109.479 47.7812 112.161C47.7812 114.844 49.9561 117.019 52.639 117.019Z" stroke="#766D86" stroke-width="3" stroke-linecap="round" stroke-linejoin="round" />
	<path d="M52.8832 145.903C55.5661 145.903 57.741 143.728 57.741 141.045C57.741 138.362 55.5661 136.187 52.8832 136.187C50.2004 136.187 48.0254 138.362 48.0254 141.045C48.0254 143.728 50.2004 145.903 52.8832 145.903Z" stroke="#766D86" stroke-width="3" stroke-linecap="round" stroke-linejoin="round" />
	<path d="M109.293 159.847C113.87 158.364 118.078 155.922 121.637 152.685C125.195 149.447 128.022 145.487 129.93 141.07" stroke="#766D86" stroke-width="3" stroke-linecap="round" stroke-linejoin="round" />
	<path d="M69.293 141.07C71.1682 145.41 73.9308 149.308 77.403 152.516C80.8753 155.723 84.9804 158.169 89.4544 159.695" stroke="#766D86" stroke-width="3" stroke-linecap="round" stroke-linejoin="round" />
	<path d="M69.336 112.161C67.3183 116.731 66.2798 121.672 66.2871 126.667" stroke="#766D86" stroke-width="3" stroke-linecap="round" stroke-linejoin="round" />
	<path d="M125.684 105.079C122.642 101.035 118.705 97.7495 114.182 95.4806C109.659 93.2116 104.672 92.0203 99.6114 92V92C94.551 92.0203 89.564 93.2116 85.0408 95.4806C80.5176 97.7495 76.581 101.035 73.5391 105.079" stroke="#766D86" stroke-width="3" stroke-linecap="round" stroke-linejoin="round" />
	<path d="M132.936 126.667C132.943 121.672 131.904 116.731 129.887 112.161" stroke="#766D86" stroke-width="3" stroke-linecap="round" stroke-linejoin="round" />
	<path d="M69.7371 29.176C69.7371 29.896 69.5451 30.52 69.1611 31.048C68.7931 31.576 68.2331 32 67.4811 32.32C68.4091 32.624 69.1051 33.08 69.5691 33.688C70.0331 34.296 70.2651 35.016 70.2651 35.848C70.2651 37.368 69.7131 38.496 68.6091 39.232C67.5051 39.968 65.9051 40.336 63.8091 40.336C63.5051 40.336 63.1771 40.328 62.8251 40.312C62.4891 40.296 62.1451 40.264 61.7931 40.216C61.4411 40.184 61.0891 40.128 60.7371 40.048C60.3851 39.984 60.0571 39.904 59.7531 39.808C58.9851 39.552 58.6011 39.08 58.6011 38.392V26.656C58.6011 26.352 58.6811 26.12 58.8411 25.96C59.0011 25.8 59.2251 25.672 59.5131 25.576C60.0571 25.4 60.6891 25.28 61.4091 25.216C62.1291 25.136 62.8811 25.096 63.6651 25.096C65.6011 25.096 67.0971 25.432 68.1531 26.104C69.2091 26.76 69.7371 27.784 69.7371 29.176ZM67.0971 35.728C67.0971 35.088 66.8651 34.584 66.4011 34.216C65.9531 33.848 65.2971 33.664 64.4331 33.664H61.6251V37.672C61.9291 37.752 62.2891 37.808 62.7051 37.84C63.1371 37.872 63.5611 37.888 63.9771 37.888C64.9531 37.888 65.7131 37.72 66.2571 37.384C66.8171 37.032 67.0971 36.48 67.0971 35.728ZM61.6251 31.384H64.0491C64.9131 31.384 65.5531 31.208 65.9691 30.856C66.4011 30.504 66.6171 30.016 66.6171 29.392C66.6171 28.128 65.6411 27.496 63.6891 27.496C63.2891 27.496 62.9051 27.512 62.5371 27.544C62.1851 27.576 61.8811 27.616 61.6251 27.664V31.384ZM79.7301 40.384C78.7701 40.384 77.9141 40.256 77.1621 40C76.4101 39.728 75.7701 39.352 75.2421 38.872C74.7301 38.376 74.3381 37.792 74.0661 37.12C73.7941 36.432 73.6581 35.664 73.6581 34.816V25.432C73.7861 25.4 73.9861 25.36 74.2581 25.312C74.5461 25.264 74.8261 25.24 75.0981 25.24C75.6741 25.24 76.0901 25.344 76.3461 25.552C76.6181 25.76 76.7541 26.144 76.7541 26.704V34.696C76.7541 35.704 77.0341 36.48 77.5941 37.024C78.1541 37.552 78.8661 37.816 79.7301 37.816C80.5941 37.816 81.3061 37.552 81.8661 37.024C82.4261 36.48 82.7061 35.704 82.7061 34.696V25.432C82.8501 25.4 83.0581 25.36 83.3301 25.312C83.6021 25.264 83.8741 25.24 84.1461 25.24C84.7221 25.24 85.1461 25.344 85.4181 25.552C85.6901 25.76 85.8261 26.144 85.8261 26.704V34.816C85.8261 35.664 85.6901 36.432 85.4181 37.12C85.1461 37.792 84.7461 38.376 84.2181 38.872C83.6901 39.352 83.0501 39.728 82.2981 40C81.5461 40.256 80.6901 40.384 79.7301 40.384ZM101.144 26.632C101.144 26.808 101.056 27.104 100.88 27.52C100.704 27.92 100.432 28.456 100.064 29.128C99.6956 29.8 99.2236 30.616 98.6476 31.576C98.0716 32.536 97.3756 33.648 96.5596 34.912V39.976C96.4316 40.008 96.2316 40.048 95.9596 40.096C95.7036 40.144 95.4316 40.168 95.1436 40.168C94.5356 40.168 94.1116 40.056 93.8716 39.832C93.6316 39.608 93.5116 39.24 93.5116 38.728V34.936C93.0796 34.312 92.6236 33.624 92.1436 32.872C91.6636 32.12 91.1916 31.36 90.7276 30.592C90.2636 29.824 89.8316 29.072 89.4316 28.336C89.0316 27.584 88.6956 26.904 88.4236 26.296C88.5516 26.056 88.7516 25.84 89.0236 25.648C89.2956 25.44 89.6396 25.336 90.0556 25.336C90.5196 25.336 90.8876 25.44 91.1596 25.648C91.4476 25.856 91.7276 26.216 91.9996 26.728C92.1276 26.952 92.3276 27.328 92.5996 27.856C92.8876 28.368 93.1836 28.912 93.4876 29.488C93.8076 30.064 94.1036 30.608 94.3756 31.12C94.6636 31.632 94.8636 31.984 94.9756 32.176H95.0956C95.3996 31.584 95.6876 31.024 95.9596 30.496C96.2316 29.952 96.4956 29.424 96.7516 28.912C97.0076 28.384 97.2556 27.856 97.4956 27.328C97.7516 26.784 98.0156 26.224 98.2876 25.648C98.4796 25.536 98.6956 25.456 98.9356 25.408C99.1916 25.36 99.4316 25.336 99.6556 25.336C100.088 25.336 100.44 25.448 100.712 25.672C101 25.896 101.144 26.216 101.144 26.632ZM105.572 40.048C105.06 40.048 104.652 39.896 104.348 39.592C104.06 39.288 103.916 38.88 103.916 38.368V27.088C103.916 26.576 104.06 26.176 104.348 25.888C104.652 25.584 105.06 25.432 105.572 25.432H113.516C113.596 25.56 113.668 25.728 113.732 25.936C113.796 26.144 113.828 26.376 113.828 26.632C113.828 27.048 113.732 27.368 113.54 27.592C113.348 27.816 113.084 27.928 112.748 27.928H106.94V31.336H112.796C112.876 31.464 112.948 31.632 113.012 31.84C113.092 32.032 113.132 32.256 113.132 32.512C113.132 33.376 112.764 33.808 112.028 33.808H106.94V37.528H113.612C113.692 37.656 113.764 37.832 113.828 38.056C113.908 38.264 113.948 38.496 113.948 38.752C113.948 39.616 113.58 40.048 112.844 40.048H105.572ZM120.477 39.976C120.333 40.008 120.125 40.048 119.853 40.096C119.597 40.144 119.317 40.168 119.013 40.168C118.405 40.168 117.973 40.056 117.717 39.832C117.477 39.608 117.357 39.232 117.357 38.704V26.656C117.357 26.352 117.437 26.12 117.597 25.96C117.757 25.8 117.981 25.672 118.269 25.576C118.781 25.4 119.381 25.28 120.069 25.216C120.773 25.136 121.493 25.096 122.229 25.096C124.341 25.096 125.925 25.536 126.981 26.416C128.037 27.28 128.565 28.48 128.565 30.016C128.565 31.024 128.301 31.904 127.773 32.656C127.245 33.392 126.517 33.96 125.589 34.36C126.293 35.272 126.965 36.144 127.605 36.976C128.261 37.792 128.749 38.432 129.069 38.896C128.941 39.312 128.717 39.64 128.397 39.88C128.077 40.104 127.725 40.216 127.341 40.216C126.845 40.216 126.461 40.104 126.189 39.88C125.933 39.656 125.677 39.352 125.421 38.968L122.709 34.912H120.477V39.976ZM122.397 32.464C123.309 32.464 124.037 32.264 124.581 31.864C125.141 31.464 125.421 30.856 125.421 30.04C125.421 28.424 124.341 27.616 122.181 27.616C121.861 27.616 121.549 27.632 121.245 27.664C120.957 27.696 120.685 27.728 120.429 27.76V32.464H122.397ZM136.452 37.816C137.38 37.816 138.06 37.64 138.492 37.288C138.924 36.92 139.14 36.464 139.14 35.92C139.14 35.424 138.972 35.032 138.636 34.744C138.3 34.44 137.788 34.184 137.1 33.976L135.564 33.496C134.956 33.304 134.404 33.088 133.908 32.848C133.412 32.608 132.988 32.328 132.636 32.008C132.284 31.672 132.012 31.288 131.82 30.856C131.628 30.408 131.532 29.88 131.532 29.272C131.532 27.976 132.02 26.952 132.996 26.2C133.972 25.432 135.308 25.048 137.004 25.048C137.676 25.048 138.292 25.104 138.852 25.216C139.428 25.312 139.924 25.456 140.34 25.648C140.756 25.824 141.076 26.048 141.3 26.32C141.54 26.592 141.66 26.896 141.66 27.232C141.66 27.552 141.58 27.832 141.42 28.072C141.276 28.296 141.092 28.48 140.868 28.624C140.484 28.352 139.972 28.12 139.332 27.928C138.708 27.72 138.02 27.616 137.268 27.616C136.436 27.616 135.804 27.768 135.372 28.072C134.94 28.36 134.724 28.76 134.724 29.272C134.724 29.688 134.868 30.008 135.156 30.232C135.46 30.456 135.932 30.672 136.572 30.88L137.94 31.312C139.332 31.728 140.412 32.296 141.18 33.016C141.948 33.736 142.332 34.712 142.332 35.944C142.332 36.6 142.204 37.2 141.948 37.744C141.692 38.288 141.316 38.76 140.82 39.16C140.34 39.544 139.732 39.84 138.996 40.048C138.276 40.272 137.452 40.384 136.524 40.384C135.788 40.384 135.108 40.32 134.484 40.192C133.876 40.064 133.348 39.896 132.9 39.688C132.452 39.464 132.1 39.208 131.844 38.92C131.604 38.616 131.484 38.288 131.484 37.936C131.484 37.568 131.588 37.256 131.796 37C132.02 36.728 132.276 36.528 132.564 36.4C132.964 36.752 133.492 37.08 134.148 37.384C134.804 37.672 135.572 37.816 136.452 37.816Z" fill="#5F45BA" />
	<path d="M214.968 177.152V181.976C214.824 182.008 214.616 182.048 214.344 182.096C214.088 182.144 213.808 182.168 213.504 182.168C212.896 182.168 212.464 182.056 212.208 181.832C211.968 181.608 211.848 181.232 211.848 180.704V168.656C211.848 168.352 211.928 168.12 212.088 167.96C212.248 167.8 212.472 167.672 212.76 167.576C213.016 167.496 213.296 167.424 213.6 167.36C213.92 167.296 214.248 167.248 214.584 167.216C214.92 167.168 215.256 167.136 215.592 167.12C215.928 167.104 216.248 167.096 216.552 167.096C218.664 167.096 220.248 167.552 221.304 168.464C222.376 169.36 222.912 170.576 222.912 172.112C222.912 173.648 222.392 174.872 221.352 175.784C220.312 176.696 218.808 177.152 216.84 177.152H214.968ZM216.648 174.656C217.608 174.656 218.36 174.448 218.904 174.032C219.464 173.616 219.744 172.976 219.744 172.112C219.744 171.28 219.48 170.656 218.952 170.24C218.44 169.824 217.688 169.616 216.696 169.616C216.008 169.616 215.424 169.664 214.944 169.76V174.656H216.648ZM233.495 178.568H228.119C227.943 179.16 227.751 179.776 227.543 180.416C227.351 181.056 227.191 181.584 227.063 182C226.903 182.064 226.727 182.12 226.535 182.168C226.359 182.216 226.135 182.24 225.863 182.24C225.319 182.24 224.895 182.136 224.591 181.928C224.287 181.704 224.135 181.392 224.135 180.992C224.135 180.8 224.159 180.616 224.207 180.44C224.271 180.248 224.343 180.032 224.423 179.792C224.551 179.344 224.719 178.808 224.927 178.184C225.151 177.544 225.383 176.856 225.623 176.12C225.879 175.368 226.151 174.6 226.439 173.816C226.727 173.016 226.999 172.248 227.255 171.512C227.527 170.76 227.783 170.064 228.023 169.424C228.279 168.768 228.495 168.208 228.671 167.744C228.879 167.632 229.183 167.52 229.583 167.408C229.999 167.296 230.415 167.24 230.831 167.24C231.391 167.24 231.903 167.328 232.367 167.504C232.831 167.664 233.127 167.928 233.255 168.296C233.575 169.176 233.927 170.192 234.311 171.344C234.695 172.48 235.079 173.656 235.463 174.872C235.863 176.088 236.247 177.28 236.615 178.448C236.983 179.616 237.311 180.664 237.599 181.592C237.439 181.768 237.215 181.912 236.927 182.024C236.655 182.152 236.327 182.216 235.943 182.216C235.383 182.216 234.983 182.12 234.743 181.928C234.519 181.72 234.343 181.4 234.215 180.968L233.495 178.568ZM230.807 169.976C230.663 170.376 230.503 170.824 230.327 171.32C230.167 171.816 229.991 172.336 229.799 172.88C229.623 173.408 229.439 173.952 229.247 174.512C229.055 175.056 228.871 175.592 228.695 176.12H232.871L230.927 169.976H230.807ZM250.64 168.632C250.64 168.808 250.552 169.104 250.376 169.52C250.2 169.92 249.928 170.456 249.56 171.128C249.192 171.8 248.72 172.616 248.144 173.576C247.568 174.536 246.872 175.648 246.056 176.912V181.976C245.928 182.008 245.728 182.048 245.456 182.096C245.2 182.144 244.928 182.168 244.64 182.168C244.032 182.168 243.608 182.056 243.368 181.832C243.128 181.608 243.008 181.24 243.008 180.728V176.936C242.576 176.312 242.12 175.624 241.64 174.872C241.16 174.12 240.688 173.36 240.224 172.592C239.76 171.824 239.328 171.072 238.928 170.336C238.528 169.584 238.192 168.904 237.92 168.296C238.048 168.056 238.248 167.84 238.52 167.648C238.792 167.44 239.136 167.336 239.552 167.336C240.016 167.336 240.384 167.44 240.656 167.648C240.944 167.856 241.224 168.216 241.496 168.728C241.624 168.952 241.824 169.328 242.096 169.856C242.384 170.368 242.68 170.912 242.984 171.488C243.304 172.064 243.6 172.608 243.872 173.12C244.16 173.632 244.36 173.984 244.472 174.176H244.592C244.896 173.584 245.184 173.024 245.456 172.496C245.728 171.952 245.992 171.424 246.248 170.912C246.504 170.384 246.752 169.856 246.992 169.328C247.248 168.784 247.512 168.224 247.784 167.648C247.976 167.536 248.192 167.456 248.432 167.408C248.688 167.36 248.928 167.336 249.152 167.336C249.584 167.336 249.936 167.448 250.208 167.672C250.496 167.896 250.64 168.216 250.64 168.632ZM262.207 178.328C262.047 178.456 261.839 178.56 261.583 178.64C261.327 178.72 261.031 178.76 260.695 178.76C260.279 178.76 259.927 178.712 259.639 178.616C259.367 178.504 259.175 178.312 259.063 178.04C258.407 176.408 257.855 175.016 257.407 173.864C256.959 172.712 256.599 171.728 256.327 170.912H256.207C256.159 171.984 256.111 172.968 256.063 173.864C256.031 174.76 255.999 175.64 255.967 176.504C255.935 177.352 255.895 178.216 255.847 179.096C255.815 179.976 255.767 180.928 255.703 181.952C255.543 182 255.343 182.048 255.103 182.096C254.863 182.144 254.607 182.168 254.335 182.168C253.263 182.168 252.727 181.768 252.727 180.968C252.727 180.712 252.735 180.32 252.751 179.792C252.783 179.248 252.815 178.624 252.847 177.92C252.895 177.2 252.943 176.416 252.991 175.568C253.055 174.72 253.111 173.864 253.159 173C253.223 172.136 253.287 171.288 253.351 170.456C253.415 169.608 253.471 168.824 253.519 168.104C253.647 167.944 253.879 167.784 254.215 167.624C254.567 167.448 255.015 167.36 255.559 167.36C256.167 167.36 256.655 167.464 257.023 167.672C257.407 167.864 257.695 168.192 257.887 168.656C258.095 169.152 258.311 169.696 258.535 170.288C258.775 170.88 259.015 171.488 259.255 172.112C259.495 172.736 259.727 173.352 259.951 173.96C260.191 174.552 260.415 175.112 260.623 175.64H260.719C261.263 174.136 261.799 172.68 262.327 171.272C262.871 169.864 263.343 168.672 263.743 167.696C263.935 167.6 264.183 167.52 264.487 167.456C264.791 167.392 265.103 167.36 265.423 167.36C266.015 167.36 266.487 167.448 266.839 167.624C267.191 167.8 267.407 168.064 267.487 168.416C267.551 168.72 267.623 169.208 267.703 169.88C267.783 170.536 267.863 171.288 267.943 172.136C268.023 172.984 268.103 173.888 268.183 174.848C268.263 175.808 268.335 176.736 268.399 177.632C268.463 178.512 268.519 179.32 268.567 180.056C268.615 180.792 268.647 181.368 268.663 181.784C268.455 181.912 268.231 182.008 267.991 182.072C267.767 182.136 267.487 182.168 267.151 182.168C266.735 182.168 266.367 182.088 266.047 181.928C265.743 181.752 265.575 181.432 265.543 180.968C265.479 179.96 265.423 178.976 265.375 178.016C265.327 177.04 265.287 176.12 265.255 175.256C265.223 174.392 265.191 173.6 265.159 172.88C265.127 172.144 265.103 171.512 265.087 170.984H264.967C264.711 171.736 264.359 172.696 263.911 173.864C263.463 175.016 262.895 176.504 262.207 178.328ZM274.088 182.048C273.576 182.048 273.168 181.896 272.864 181.592C272.576 181.288 272.432 180.88 272.432 180.368V169.088C272.432 168.576 272.576 168.176 272.864 167.888C273.168 167.584 273.576 167.432 274.088 167.432H282.032C282.112 167.56 282.184 167.728 282.248 167.936C282.312 168.144 282.344 168.376 282.344 168.632C282.344 169.048 282.248 169.368 282.056 169.592C281.864 169.816 281.6 169.928 281.264 169.928H275.456V173.336H281.312C281.392 173.464 281.464 173.632 281.528 173.84C281.608 174.032 281.648 174.256 281.648 174.512C281.648 175.376 281.28 175.808 280.544 175.808H275.456V179.528H282.128C282.208 179.656 282.28 179.832 282.344 180.056C282.424 180.264 282.464 180.496 282.464 180.752C282.464 181.616 282.096 182.048 281.36 182.048H274.088ZM287.481 182.168C286.889 182.168 286.473 182.064 286.233 181.856C285.993 181.632 285.873 181.264 285.873 180.752V167.96C286.049 167.736 286.305 167.56 286.641 167.432C286.993 167.304 287.377 167.24 287.793 167.24C288.289 167.24 288.729 167.328 289.113 167.504C289.513 167.68 289.865 168.032 290.169 168.56L293.625 174.776C293.945 175.352 294.249 175.952 294.537 176.576C294.841 177.184 295.105 177.744 295.329 178.256L295.425 178.232C295.345 177.288 295.289 176.376 295.257 175.496C295.241 174.6 295.233 173.72 295.233 172.856V167.408C295.361 167.376 295.553 167.344 295.809 167.312C296.081 167.264 296.353 167.24 296.625 167.24C297.217 167.24 297.633 167.352 297.873 167.576C298.129 167.784 298.257 168.144 298.257 168.656V181.616C298.081 181.792 297.825 181.928 297.489 182.024C297.169 182.12 296.785 182.168 296.337 182.168C295.857 182.168 295.417 182.088 295.017 181.928C294.633 181.752 294.289 181.4 293.985 180.872L290.529 174.656C290.209 174.096 289.897 173.504 289.593 172.88C289.305 172.24 289.049 171.664 288.825 171.152L288.681 171.176C288.761 172.056 288.809 172.96 288.825 173.888C288.857 174.816 288.873 175.696 288.873 176.528V181.976C288.745 182.008 288.553 182.048 288.297 182.096C288.041 182.144 287.769 182.168 287.481 182.168ZM312.679 167.432C312.759 167.56 312.831 167.736 312.895 167.96C312.975 168.168 313.015 168.4 313.015 168.656C313.015 169.088 312.911 169.416 312.703 169.64C312.511 169.864 312.239 169.976 311.887 169.976H308.575V181.976C308.447 182.008 308.247 182.048 307.975 182.096C307.703 182.144 307.423 182.168 307.135 182.168C306.527 182.168 306.095 182.056 305.839 181.832C305.583 181.608 305.455 181.232 305.455 180.704V169.976H301.423C301.343 169.832 301.263 169.656 301.183 169.448C301.119 169.24 301.087 169.008 301.087 168.752C301.087 168.304 301.183 167.976 301.375 167.768C301.583 167.544 301.863 167.432 302.215 167.432H312.679ZM319.933 179.816C320.861 179.816 321.541 179.64 321.973 179.288C322.405 178.92 322.621 178.464 322.621 177.92C322.621 177.424 322.453 177.032 322.117 176.744C321.781 176.44 321.269 176.184 320.581 175.976L319.045 175.496C318.437 175.304 317.885 175.088 317.389 174.848C316.893 174.608 316.469 174.328 316.117 174.008C315.765 173.672 315.493 173.288 315.301 172.856C315.109 172.408 315.013 171.88 315.013 171.272C315.013 169.976 315.501 168.952 316.477 168.2C317.453 167.432 318.789 167.048 320.485 167.048C321.157 167.048 321.773 167.104 322.333 167.216C322.909 167.312 323.405 167.456 323.821 167.648C324.237 167.824 324.557 168.048 324.781 168.32C325.021 168.592 325.141 168.896 325.141 169.232C325.141 169.552 325.061 169.832 324.901 170.072C324.757 170.296 324.573 170.48 324.349 170.624C323.965 170.352 323.453 170.12 322.813 169.928C322.189 169.72 321.501 169.616 320.749 169.616C319.917 169.616 319.285 169.768 318.853 170.072C318.421 170.36 318.205 170.76 318.205 171.272C318.205 171.688 318.349 172.008 318.637 172.232C318.941 172.456 319.413 172.672 320.053 172.88L321.421 173.312C322.813 173.728 323.893 174.296 324.661 175.016C325.429 175.736 325.813 176.712 325.813 177.944C325.813 178.6 325.685 179.2 325.429 179.744C325.173 180.288 324.797 180.76 324.301 181.16C323.821 181.544 323.213 181.84 322.477 182.048C321.757 182.272 320.933 182.384 320.005 182.384C319.269 182.384 318.589 182.32 317.965 182.192C317.357 182.064 316.829 181.896 316.381 181.688C315.933 181.464 315.581 181.208 315.325 180.92C315.085 180.616 314.965 180.288 314.965 179.936C314.965 179.568 315.069 179.256 315.277 179C315.501 178.728 315.757 178.528 316.045 178.4C316.445 178.752 316.973 179.08 317.629 179.384C318.285 179.672 319.053 179.816 319.933 179.816Z" fill="#8C61E1" />
	<path d="M704.997 117.816C705.925 117.816 706.605 117.64 707.037 117.288C707.469 116.92 707.685 116.464 707.685 115.92C707.685 115.424 707.517 115.032 707.181 114.744C706.845 114.44 706.333 114.184 705.645 113.976L704.109 113.496C703.501 113.304 702.949 113.088 702.453 112.848C701.957 112.608 701.533 112.328 701.181 112.008C700.829 111.672 700.557 111.288 700.365 110.856C700.173 110.408 700.077 109.88 700.077 109.272C700.077 107.976 700.565 106.952 701.541 106.2C702.517 105.432 703.853 105.048 705.549 105.048C706.221 105.048 706.837 105.104 707.397 105.216C707.973 105.312 708.469 105.456 708.885 105.648C709.301 105.824 709.621 106.048 709.845 106.32C710.085 106.592 710.205 106.896 710.205 107.232C710.205 107.552 710.125 107.832 709.965 108.072C709.821 108.296 709.637 108.48 709.413 108.624C709.029 108.352 708.517 108.12 707.877 107.928C707.253 107.72 706.565 107.616 705.813 107.616C704.981 107.616 704.349 107.768 703.917 108.072C703.485 108.36 703.269 108.76 703.269 109.272C703.269 109.688 703.413 110.008 703.701 110.232C704.005 110.456 704.477 110.672 705.117 110.88L706.485 111.312C707.877 111.728 708.957 112.296 709.725 113.016C710.493 113.736 710.877 114.712 710.877 115.944C710.877 116.6 710.749 117.2 710.493 117.744C710.237 118.288 709.861 118.76 709.365 119.16C708.885 119.544 708.277 119.84 707.541 120.048C706.821 120.272 705.997 120.384 705.069 120.384C704.333 120.384 703.653 120.32 703.029 120.192C702.421 120.064 701.893 119.896 701.445 119.688C700.997 119.464 700.645 119.208 700.389 118.92C700.149 118.616 700.029 118.288 700.029 117.936C700.029 117.568 700.133 117.256 700.341 117C700.565 116.728 700.821 116.528 701.109 116.4C701.509 116.752 702.037 117.08 702.693 117.384C703.349 117.672 704.117 117.816 704.997 117.816ZM715.776 120.048C715.264 120.048 714.856 119.896 714.552 119.592C714.264 119.288 714.12 118.88 714.12 118.368V107.088C714.12 106.576 714.264 106.176 714.552 105.888C714.856 105.584 715.264 105.432 715.776 105.432H723.72C723.8 105.56 723.872 105.728 723.936 105.936C724 106.144 724.032 106.376 724.032 106.632C724.032 107.048 723.936 107.368 723.744 107.592C723.552 107.816 723.288 107.928 722.952 107.928H717.144V111.336H723C723.08 111.464 723.152 111.632 723.216 111.84C723.296 112.032 723.336 112.256 723.336 112.512C723.336 113.376 722.968 113.808 722.232 113.808H717.144V117.528H723.816C723.896 117.656 723.968 117.832 724.032 118.056C724.112 118.264 724.152 118.496 724.152 118.752C724.152 119.616 723.784 120.048 723.048 120.048H715.776ZM730.681 119.976C730.537 120.008 730.329 120.048 730.057 120.096C729.801 120.144 729.521 120.168 729.217 120.168C728.609 120.168 728.177 120.056 727.921 119.832C727.681 119.608 727.561 119.232 727.561 118.704V106.656C727.561 106.352 727.641 106.12 727.801 105.96C727.961 105.8 728.185 105.672 728.473 105.576C728.985 105.4 729.585 105.28 730.273 105.216C730.977 105.136 731.697 105.096 732.433 105.096C734.545 105.096 736.129 105.536 737.185 106.416C738.241 107.28 738.769 108.48 738.769 110.016C738.769 111.024 738.505 111.904 737.977 112.656C737.449 113.392 736.721 113.96 735.793 114.36C736.497 115.272 737.169 116.144 737.809 116.976C738.465 117.792 738.953 118.432 739.273 118.896C739.145 119.312 738.921 119.64 738.601 119.88C738.281 120.104 737.929 120.216 737.545 120.216C737.049 120.216 736.665 120.104 736.393 119.88C736.137 119.656 735.881 119.352 735.625 118.968L732.913 114.912H730.681V119.976ZM732.601 112.464C733.513 112.464 734.241 112.264 734.785 111.864C735.345 111.464 735.625 110.856 735.625 110.04C735.625 108.424 734.545 107.616 732.385 107.616C732.065 107.616 731.753 107.632 731.449 107.664C731.161 107.696 730.889 107.728 730.633 107.76V112.464H732.601ZM749.591 119.664C749.431 119.792 749.175 119.912 748.823 120.024C748.471 120.136 748.087 120.192 747.671 120.192C747.175 120.192 746.743 120.12 746.375 119.976C746.007 119.832 745.759 119.624 745.631 119.352C745.439 118.968 745.207 118.464 744.935 117.84C744.679 117.216 744.399 116.528 744.095 115.776C743.807 115.008 743.511 114.2 743.207 113.352C742.903 112.488 742.599 111.632 742.295 110.784C742.007 109.92 741.735 109.088 741.479 108.288C741.223 107.472 741.007 106.72 740.831 106.032C740.991 105.856 741.223 105.696 741.527 105.552C741.847 105.408 742.191 105.336 742.559 105.336C743.007 105.336 743.351 105.44 743.591 105.648C743.847 105.84 744.055 106.176 744.215 106.656C744.775 108.448 745.327 110.192 745.871 111.888C746.431 113.584 747.023 115.32 747.647 117.096H747.767C748.055 116.28 748.343 115.408 748.631 114.48C748.935 113.552 749.231 112.6 749.519 111.624C749.807 110.632 750.087 109.64 750.359 108.648C750.647 107.64 750.911 106.648 751.151 105.672C751.567 105.448 752.055 105.336 752.615 105.336C753.063 105.336 753.431 105.44 753.719 105.648C754.023 105.84 754.175 106.168 754.175 106.632C754.175 106.92 754.087 107.4 753.911 108.072C753.735 108.744 753.511 109.512 753.239 110.376C752.967 111.224 752.655 112.128 752.303 113.088C751.967 114.048 751.623 114.968 751.271 115.848C750.935 116.712 750.615 117.488 750.311 118.176C750.023 118.848 749.783 119.344 749.591 119.664ZM758.888 120.168C758.28 120.168 757.848 120.056 757.592 119.832C757.336 119.608 757.208 119.232 757.208 118.704V105.432C757.352 105.4 757.56 105.36 757.832 105.312C758.104 105.264 758.376 105.24 758.648 105.24C759.224 105.24 759.648 105.344 759.92 105.552C760.192 105.76 760.328 106.144 760.328 106.704V119.976C760.184 120.008 759.976 120.048 759.704 120.096C759.448 120.144 759.176 120.168 758.888 120.168ZM775.549 107.304C775.549 107.624 775.461 107.904 775.285 108.144C775.109 108.368 774.909 108.544 774.685 108.672C774.269 108.4 773.805 108.152 773.293 107.928C772.781 107.704 772.149 107.592 771.397 107.592C770.037 107.592 768.949 108.032 768.133 108.912C767.333 109.792 766.933 111.064 766.933 112.728C766.933 114.424 767.349 115.696 768.181 116.544C769.013 117.392 770.133 117.816 771.541 117.816C772.277 117.816 772.909 117.72 773.437 117.528C773.981 117.32 774.461 117.08 774.877 116.808C775.101 116.952 775.285 117.152 775.429 117.408C775.573 117.648 775.645 117.928 775.645 118.248C775.645 118.52 775.573 118.768 775.429 118.992C775.285 119.216 775.045 119.416 774.709 119.592C774.389 119.784 773.933 119.96 773.341 120.12C772.765 120.296 772.045 120.384 771.181 120.384C770.125 120.384 769.141 120.232 768.229 119.928C767.333 119.608 766.549 119.136 765.877 118.512C765.205 117.872 764.677 117.072 764.293 116.112C763.909 115.152 763.717 114.024 763.717 112.728C763.717 111.48 763.909 110.384 764.293 109.44C764.677 108.48 765.197 107.68 765.853 107.04C766.525 106.384 767.301 105.888 768.181 105.552C769.077 105.216 770.021 105.048 771.013 105.048C771.701 105.048 772.325 105.112 772.885 105.24C773.445 105.352 773.925 105.512 774.325 105.72C774.725 105.928 775.029 106.168 775.237 106.44C775.445 106.712 775.549 107 775.549 107.304ZM780.543 120.048C780.031 120.048 779.623 119.896 779.319 119.592C779.031 119.288 778.887 118.88 778.887 118.368V107.088C778.887 106.576 779.031 106.176 779.319 105.888C779.623 105.584 780.031 105.432 780.543 105.432H788.487C788.567 105.56 788.639 105.728 788.703 105.936C788.767 106.144 788.799 106.376 788.799 106.632C788.799 107.048 788.703 107.368 788.511 107.592C788.319 107.816 788.055 107.928 787.719 107.928H781.911V111.336H787.767C787.847 111.464 787.919 111.632 787.983 111.84C788.063 112.032 788.103 112.256 788.103 112.512C788.103 113.376 787.735 113.808 786.999 113.808H781.911V117.528H788.583C788.663 117.656 788.735 117.832 788.799 118.056C788.879 118.264 788.919 118.496 788.919 118.752C788.919 119.616 788.551 120.048 787.815 120.048H780.543Z" fill="#8C61E1" />
	<path d="M472.764 129.704C472.764 130.952 472.58 132.056 472.212 133.016C471.844 133.976 471.332 134.784 470.676 135.44C470.036 136.08 469.268 136.568 468.372 136.904C467.476 137.224 466.508 137.384 465.468 137.384C464.428 137.384 463.46 137.224 462.564 136.904C461.668 136.568 460.892 136.08 460.236 135.44C459.596 134.784 459.092 133.976 458.724 133.016C458.356 132.056 458.172 130.952 458.172 129.704C458.172 128.456 458.356 127.36 458.724 126.416C459.108 125.456 459.628 124.656 460.284 124.016C460.94 123.36 461.708 122.872 462.588 122.552C463.484 122.216 464.444 122.048 465.468 122.048C466.492 122.048 467.444 122.216 468.324 122.552C469.22 122.872 469.996 123.36 470.652 124.016C471.308 124.656 471.82 125.456 472.188 126.416C472.572 127.36 472.764 128.456 472.764 129.704ZM469.572 129.704C469.572 128.04 469.196 126.776 468.444 125.912C467.708 125.032 466.716 124.592 465.468 124.592C464.236 124.592 463.244 125.024 462.492 125.888C461.756 126.752 461.388 128.024 461.388 129.704C461.388 131.384 461.756 132.656 462.492 133.52C463.228 134.384 464.22 134.816 465.468 134.816C466.716 134.816 467.708 134.384 468.444 133.52C469.196 132.656 469.572 131.384 469.572 129.704ZM479.275 136.976C479.131 137.008 478.923 137.048 478.651 137.096C478.395 137.144 478.115 137.168 477.811 137.168C477.203 137.168 476.771 137.056 476.515 136.832C476.275 136.608 476.155 136.232 476.155 135.704V123.656C476.155 123.352 476.235 123.12 476.395 122.96C476.555 122.8 476.779 122.672 477.067 122.576C477.579 122.4 478.179 122.28 478.867 122.216C479.571 122.136 480.291 122.096 481.027 122.096C483.139 122.096 484.723 122.536 485.779 123.416C486.835 124.28 487.363 125.48 487.363 127.016C487.363 128.024 487.099 128.904 486.571 129.656C486.043 130.392 485.315 130.96 484.387 131.36C485.091 132.272 485.763 133.144 486.403 133.976C487.059 134.792 487.547 135.432 487.867 135.896C487.739 136.312 487.515 136.64 487.195 136.88C486.875 137.104 486.523 137.216 486.139 137.216C485.643 137.216 485.259 137.104 484.987 136.88C484.731 136.656 484.475 136.352 484.219 135.968L481.507 131.912H479.275V136.976ZM481.195 129.464C482.107 129.464 482.835 129.264 483.379 128.864C483.939 128.464 484.219 127.856 484.219 127.04C484.219 125.424 483.139 124.616 480.979 124.616C480.659 124.616 480.347 124.632 480.043 124.664C479.755 124.696 479.483 124.728 479.227 124.76V129.464H481.195ZM501.878 124.304C501.878 124.624 501.79 124.904 501.614 125.144C501.438 125.368 501.238 125.544 501.014 125.672C500.598 125.4 500.134 125.152 499.622 124.928C499.11 124.704 498.478 124.592 497.726 124.592C496.366 124.592 495.278 125.032 494.462 125.912C493.662 126.792 493.262 128.064 493.262 129.728C493.262 131.424 493.678 132.696 494.51 133.544C495.342 134.392 496.462 134.816 497.87 134.816C498.606 134.816 499.238 134.72 499.766 134.528C500.31 134.32 500.79 134.08 501.206 133.808C501.43 133.952 501.614 134.152 501.758 134.408C501.902 134.648 501.974 134.928 501.974 135.248C501.974 135.52 501.902 135.768 501.758 135.992C501.614 136.216 501.374 136.416 501.038 136.592C500.718 136.784 500.262 136.96 499.67 137.12C499.094 137.296 498.374 137.384 497.51 137.384C496.454 137.384 495.47 137.232 494.558 136.928C493.662 136.608 492.878 136.136 492.206 135.512C491.534 134.872 491.006 134.072 490.622 133.112C490.238 132.152 490.046 131.024 490.046 129.728C490.046 128.48 490.238 127.384 490.622 126.44C491.006 125.48 491.526 124.68 492.182 124.04C492.854 123.384 493.63 122.888 494.51 122.552C495.406 122.216 496.35 122.048 497.342 122.048C498.03 122.048 498.654 122.112 499.214 122.24C499.774 122.352 500.254 122.512 500.654 122.72C501.054 122.928 501.358 123.168 501.566 123.44C501.774 123.712 501.878 124 501.878 124.304ZM508.337 136.976C508.193 137.008 507.985 137.048 507.713 137.096C507.457 137.144 507.177 137.168 506.873 137.168C506.265 137.168 505.833 137.056 505.577 136.832C505.337 136.608 505.217 136.232 505.217 135.704V122.432C505.345 122.4 505.545 122.36 505.817 122.312C506.105 122.264 506.385 122.24 506.657 122.24C507.233 122.24 507.657 122.344 507.929 122.552C508.201 122.76 508.337 123.144 508.337 123.704V128.432H514.337V122.432C514.465 122.4 514.665 122.36 514.937 122.312C515.225 122.264 515.505 122.24 515.777 122.24C516.353 122.24 516.777 122.352 517.049 122.576C517.321 122.784 517.457 123.168 517.457 123.728V136.976C517.313 137.008 517.105 137.048 516.833 137.096C516.577 137.144 516.297 137.168 515.993 137.168C515.385 137.168 514.953 137.056 514.697 136.832C514.457 136.608 514.337 136.232 514.337 135.704V130.928H508.337V136.976ZM523.291 137.168C522.683 137.168 522.251 137.056 521.995 136.832C521.739 136.608 521.611 136.232 521.611 135.704V122.432C521.755 122.4 521.963 122.36 522.235 122.312C522.507 122.264 522.779 122.24 523.051 122.24C523.627 122.24 524.051 122.344 524.323 122.552C524.595 122.76 524.731 123.144 524.731 123.704V136.976C524.587 137.008 524.379 137.048 524.107 137.096C523.851 137.144 523.579 137.168 523.291 137.168ZM538.631 129.656C538.631 128.792 538.511 128.048 538.271 127.424C538.031 126.784 537.695 126.264 537.263 125.864C536.847 125.448 536.343 125.144 535.751 124.952C535.175 124.744 534.543 124.64 533.855 124.64C533.487 124.64 533.151 124.656 532.847 124.688C532.559 124.704 532.279 124.728 532.007 124.76V134.624C532.279 134.688 532.583 134.736 532.919 134.768C533.271 134.784 533.615 134.792 533.951 134.792C535.439 134.792 536.591 134.36 537.407 133.496C538.223 132.632 538.631 131.352 538.631 129.656ZM541.823 129.632C541.823 130.928 541.631 132.064 541.247 133.04C540.879 134 540.351 134.8 539.663 135.44C538.975 136.064 538.143 136.536 537.167 136.856C536.207 137.176 535.135 137.336 533.951 137.336C533.679 137.336 533.383 137.328 533.063 137.312C532.743 137.312 532.407 137.288 532.055 137.24C531.719 137.208 531.375 137.16 531.023 137.096C530.687 137.032 530.367 136.944 530.063 136.832C529.295 136.544 528.911 136.064 528.911 135.392V123.632C528.911 123.344 528.991 123.12 529.151 122.96C529.311 122.8 529.535 122.672 529.823 122.576C530.415 122.368 531.055 122.24 531.743 122.192C532.447 122.128 533.111 122.096 533.735 122.096C534.935 122.096 536.031 122.256 537.023 122.576C538.031 122.88 538.887 123.344 539.591 123.968C540.295 124.592 540.839 125.376 541.223 126.32C541.623 127.264 541.823 128.368 541.823 129.632ZM430.816 161.328C430.656 161.456 430.448 161.56 430.192 161.64C429.936 161.72 429.64 161.76 429.304 161.76C428.888 161.76 428.536 161.712 428.248 161.616C427.976 161.504 427.784 161.312 427.672 161.04C427.016 159.408 426.464 158.016 426.016 156.864C425.568 155.712 425.208 154.728 424.936 153.912H424.816C424.768 154.984 424.72 155.968 424.672 156.864C424.64 157.76 424.608 158.64 424.576 159.504C424.544 160.352 424.504 161.216 424.456 162.096C424.424 162.976 424.376 163.928 424.312 164.952C424.152 165 423.952 165.048 423.712 165.096C423.472 165.144 423.216 165.168 422.944 165.168C421.872 165.168 421.336 164.768 421.336 163.968C421.336 163.712 421.344 163.32 421.36 162.792C421.392 162.248 421.424 161.624 421.456 160.92C421.504 160.2 421.552 159.416 421.6 158.568C421.664 157.72 421.72 156.864 421.768 156C421.832 155.136 421.896 154.288 421.96 153.456C422.024 152.608 422.08 151.824 422.128 151.104C422.256 150.944 422.488 150.784 422.824 150.624C423.176 150.448 423.624 150.36 424.168 150.36C424.776 150.36 425.264 150.464 425.632 150.672C426.016 150.864 426.304 151.192 426.496 151.656C426.704 152.152 426.92 152.696 427.144 153.288C427.384 153.88 427.624 154.488 427.864 155.112C428.104 155.736 428.336 156.352 428.56 156.96C428.8 157.552 429.024 158.112 429.232 158.64H429.328C429.872 157.136 430.408 155.68 430.936 154.272C431.48 152.864 431.952 151.672 432.352 150.696C432.544 150.6 432.792 150.52 433.096 150.456C433.4 150.392 433.712 150.36 434.032 150.36C434.624 150.36 435.096 150.448 435.448 150.624C435.8 150.8 436.016 151.064 436.096 151.416C436.16 151.72 436.232 152.208 436.312 152.88C436.392 153.536 436.472 154.288 436.552 155.136C436.632 155.984 436.712 156.888 436.792 157.848C436.872 158.808 436.944 159.736 437.008 160.632C437.072 161.512 437.128 162.32 437.176 163.056C437.224 163.792 437.256 164.368 437.272 164.784C437.064 164.912 436.84 165.008 436.6 165.072C436.376 165.136 436.096 165.168 435.76 165.168C435.344 165.168 434.976 165.088 434.656 164.928C434.352 164.752 434.184 164.432 434.152 163.968C434.088 162.96 434.032 161.976 433.984 161.016C433.936 160.04 433.896 159.12 433.864 158.256C433.832 157.392 433.8 156.6 433.768 155.88C433.736 155.144 433.712 154.512 433.696 153.984H433.576C433.32 154.736 432.968 155.696 432.52 156.864C432.072 158.016 431.504 159.504 430.816 161.328ZM449.294 161.568H443.918C443.742 162.16 443.55 162.776 443.342 163.416C443.15 164.056 442.99 164.584 442.862 165C442.702 165.064 442.526 165.12 442.334 165.168C442.158 165.216 441.934 165.24 441.662 165.24C441.118 165.24 440.694 165.136 440.39 164.928C440.086 164.704 439.934 164.392 439.934 163.992C439.934 163.8 439.958 163.616 440.006 163.44C440.07 163.248 440.142 163.032 440.222 162.792C440.35 162.344 440.518 161.808 440.726 161.184C440.95 160.544 441.182 159.856 441.422 159.12C441.678 158.368 441.95 157.6 442.238 156.816C442.526 156.016 442.798 155.248 443.054 154.512C443.326 153.76 443.582 153.064 443.822 152.424C444.078 151.768 444.294 151.208 444.47 150.744C444.678 150.632 444.982 150.52 445.382 150.408C445.798 150.296 446.214 150.24 446.63 150.24C447.19 150.24 447.702 150.328 448.166 150.504C448.63 150.664 448.926 150.928 449.054 151.296C449.374 152.176 449.726 153.192 450.11 154.344C450.494 155.48 450.878 156.656 451.262 157.872C451.662 159.088 452.046 160.28 452.414 161.448C452.782 162.616 453.11 163.664 453.398 164.592C453.238 164.768 453.014 164.912 452.726 165.024C452.454 165.152 452.126 165.216 451.742 165.216C451.182 165.216 450.782 165.12 450.542 164.928C450.318 164.72 450.142 164.4 450.014 163.968L449.294 161.568ZM446.606 152.976C446.462 153.376 446.302 153.824 446.126 154.32C445.966 154.816 445.79 155.336 445.598 155.88C445.422 156.408 445.238 156.952 445.046 157.512C444.854 158.056 444.67 158.592 444.494 159.12H448.67L446.726 152.976H446.606ZM459.407 164.976C459.263 165.008 459.055 165.048 458.783 165.096C458.527 165.144 458.247 165.168 457.943 165.168C457.335 165.168 456.903 165.056 456.647 164.832C456.407 164.608 456.287 164.232 456.287 163.704V151.656C456.287 151.352 456.367 151.12 456.527 150.96C456.687 150.8 456.911 150.672 457.199 150.576C457.711 150.4 458.311 150.28 458.999 150.216C459.703 150.136 460.423 150.096 461.159 150.096C463.271 150.096 464.855 150.536 465.911 151.416C466.967 152.28 467.495 153.48 467.495 155.016C467.495 156.024 467.231 156.904 466.703 157.656C466.175 158.392 465.447 158.96 464.519 159.36C465.223 160.272 465.895 161.144 466.535 161.976C467.191 162.792 467.679 163.432 467.999 163.896C467.871 164.312 467.647 164.64 467.327 164.88C467.007 165.104 466.655 165.216 466.271 165.216C465.775 165.216 465.391 165.104 465.119 164.88C464.863 164.656 464.607 164.352 464.351 163.968L461.639 159.912H459.407V164.976ZM461.327 157.464C462.239 157.464 462.967 157.264 463.511 156.864C464.071 156.464 464.351 155.856 464.351 155.04C464.351 153.424 463.271 152.616 461.111 152.616C460.791 152.616 460.479 152.632 460.175 152.664C459.887 152.696 459.615 152.728 459.359 152.76V157.464H461.327ZM474.254 158.76V164.976C474.11 165.024 473.902 165.064 473.63 165.096C473.374 165.144 473.094 165.168 472.79 165.168C472.182 165.168 471.75 165.064 471.494 164.856C471.254 164.632 471.134 164.248 471.134 163.704V150.432C471.262 150.4 471.462 150.36 471.734 150.312C472.022 150.264 472.302 150.24 472.574 150.24C473.15 150.24 473.574 150.344 473.846 150.552C474.118 150.76 474.254 151.144 474.254 151.704V156.648L480.014 150.312C480.782 150.312 481.334 150.464 481.67 150.768C482.022 151.072 482.198 151.432 482.198 151.848C482.198 152.184 482.11 152.488 481.934 152.76C481.774 153.016 481.526 153.312 481.19 153.648L477.134 157.68C478.382 158.96 479.478 160.104 480.422 161.112C481.366 162.12 482.166 162.928 482.822 163.536C482.806 164.064 482.63 164.48 482.294 164.784C481.974 165.072 481.582 165.216 481.118 165.216C480.654 165.216 480.262 165.096 479.942 164.856C479.622 164.6 479.31 164.312 479.006 163.992L474.254 158.76ZM487.45 165.048C486.938 165.048 486.53 164.896 486.226 164.592C485.938 164.288 485.794 163.88 485.794 163.368V152.088C485.794 151.576 485.938 151.176 486.226 150.888C486.53 150.584 486.938 150.432 487.45 150.432H495.394C495.474 150.56 495.546 150.728 495.61 150.936C495.674 151.144 495.706 151.376 495.706 151.632C495.706 152.048 495.61 152.368 495.418 152.592C495.226 152.816 494.962 152.928 494.626 152.928H488.818V156.336H494.674C494.754 156.464 494.826 156.632 494.89 156.84C494.97 157.032 495.01 157.256 495.01 157.512C495.01 158.376 494.642 158.808 493.906 158.808H488.818V162.528H495.49C495.57 162.656 495.642 162.832 495.706 163.056C495.786 163.264 495.826 163.496 495.826 163.752C495.826 164.616 495.458 165.048 494.722 165.048H487.45ZM509.483 150.432C509.563 150.56 509.635 150.736 509.699 150.96C509.779 151.168 509.819 151.4 509.819 151.656C509.819 152.088 509.715 152.416 509.507 152.64C509.315 152.864 509.043 152.976 508.691 152.976H505.379V164.976C505.251 165.008 505.051 165.048 504.779 165.096C504.507 165.144 504.227 165.168 503.939 165.168C503.331 165.168 502.899 165.056 502.643 164.832C502.387 164.608 502.259 164.232 502.259 163.704V152.976H498.227C498.147 152.832 498.067 152.656 497.987 152.448C497.923 152.24 497.891 152.008 497.891 151.752C497.891 151.304 497.987 150.976 498.179 150.768C498.387 150.544 498.667 150.432 499.019 150.432H509.483ZM515.796 160.152V164.976C515.652 165.008 515.444 165.048 515.172 165.096C514.916 165.144 514.636 165.168 514.332 165.168C513.724 165.168 513.292 165.056 513.036 164.832C512.796 164.608 512.676 164.232 512.676 163.704V151.656C512.676 151.352 512.756 151.12 512.916 150.96C513.076 150.8 513.3 150.672 513.588 150.576C513.844 150.496 514.124 150.424 514.428 150.36C514.748 150.296 515.076 150.248 515.412 150.216C515.748 150.168 516.084 150.136 516.42 150.12C516.756 150.104 517.076 150.096 517.38 150.096C519.492 150.096 521.076 150.552 522.132 151.464C523.204 152.36 523.74 153.576 523.74 155.112C523.74 156.648 523.22 157.872 522.18 158.784C521.14 159.696 519.636 160.152 517.668 160.152H515.796ZM517.476 157.656C518.436 157.656 519.188 157.448 519.732 157.032C520.292 156.616 520.572 155.976 520.572 155.112C520.572 154.28 520.308 153.656 519.78 153.24C519.268 152.824 518.516 152.616 517.524 152.616C516.836 152.616 516.252 152.664 515.772 152.76V157.656H517.476ZM528.593 165.048C528.081 165.048 527.673 164.896 527.369 164.592C527.081 164.288 526.937 163.88 526.937 163.368V150.432C527.065 150.4 527.265 150.36 527.537 150.312C527.825 150.264 528.105 150.24 528.377 150.24C528.953 150.24 529.377 150.344 529.649 150.552C529.921 150.76 530.057 151.144 530.057 151.704V162.48H536.225C536.305 162.608 536.385 162.784 536.465 163.008C536.545 163.216 536.585 163.448 536.585 163.704C536.585 164.136 536.481 164.472 536.273 164.712C536.081 164.936 535.809 165.048 535.457 165.048H528.593ZM547.951 161.568H542.575C542.399 162.16 542.207 162.776 541.999 163.416C541.807 164.056 541.647 164.584 541.519 165C541.359 165.064 541.183 165.12 540.991 165.168C540.815 165.216 540.591 165.24 540.319 165.24C539.775 165.24 539.351 165.136 539.047 164.928C538.743 164.704 538.591 164.392 538.591 163.992C538.591 163.8 538.615 163.616 538.663 163.44C538.727 163.248 538.799 163.032 538.879 162.792C539.007 162.344 539.175 161.808 539.383 161.184C539.607 160.544 539.839 159.856 540.079 159.12C540.335 158.368 540.607 157.6 540.895 156.816C541.183 156.016 541.455 155.248 541.711 154.512C541.983 153.76 542.239 153.064 542.479 152.424C542.735 151.768 542.951 151.208 543.127 150.744C543.335 150.632 543.639 150.52 544.039 150.408C544.455 150.296 544.871 150.24 545.287 150.24C545.847 150.24 546.359 150.328 546.823 150.504C547.287 150.664 547.583 150.928 547.711 151.296C548.031 152.176 548.383 153.192 548.767 154.344C549.151 155.48 549.535 156.656 549.919 157.872C550.319 159.088 550.703 160.28 551.071 161.448C551.439 162.616 551.767 163.664 552.055 164.592C551.895 164.768 551.671 164.912 551.383 165.024C551.111 165.152 550.783 165.216 550.399 165.216C549.839 165.216 549.439 165.12 549.199 164.928C548.975 164.72 548.799 164.4 548.671 163.968L547.951 161.568ZM545.263 152.976C545.119 153.376 544.959 153.824 544.783 154.32C544.623 154.816 544.447 155.336 544.255 155.88C544.079 156.408 543.895 156.952 543.703 157.512C543.511 158.056 543.327 158.592 543.151 159.12H547.327L545.383 152.976H545.263ZM565.773 152.304C565.773 152.624 565.685 152.904 565.509 153.144C565.333 153.368 565.133 153.544 564.909 153.672C564.493 153.4 564.029 153.152 563.517 152.928C563.005 152.704 562.373 152.592 561.621 152.592C560.261 152.592 559.173 153.032 558.357 153.912C557.557 154.792 557.157 156.064 557.157 157.728C557.157 159.424 557.573 160.696 558.405 161.544C559.237 162.392 560.357 162.816 561.765 162.816C562.501 162.816 563.133 162.72 563.661 162.528C564.205 162.32 564.685 162.08 565.101 161.808C565.325 161.952 565.509 162.152 565.653 162.408C565.797 162.648 565.869 162.928 565.869 163.248C565.869 163.52 565.797 163.768 565.653 163.992C565.509 164.216 565.269 164.416 564.933 164.592C564.613 164.784 564.157 164.96 563.565 165.12C562.989 165.296 562.269 165.384 561.405 165.384C560.349 165.384 559.365 165.232 558.453 164.928C557.557 164.608 556.773 164.136 556.101 163.512C555.429 162.872 554.901 162.072 554.517 161.112C554.133 160.152 553.941 159.024 553.941 157.728C553.941 156.48 554.133 155.384 554.517 154.44C554.901 153.48 555.421 152.68 556.077 152.04C556.749 151.384 557.525 150.888 558.405 150.552C559.301 150.216 560.245 150.048 561.237 150.048C561.925 150.048 562.549 150.112 563.109 150.24C563.669 150.352 564.149 150.512 564.549 150.72C564.949 150.928 565.253 151.168 565.461 151.44C565.669 151.712 565.773 152 565.773 152.304ZM570.767 165.048C570.255 165.048 569.847 164.896 569.543 164.592C569.255 164.288 569.111 163.88 569.111 163.368V152.088C569.111 151.576 569.255 151.176 569.543 150.888C569.847 150.584 570.255 150.432 570.767 150.432H578.711C578.791 150.56 578.863 150.728 578.927 150.936C578.991 151.144 579.023 151.376 579.023 151.632C579.023 152.048 578.927 152.368 578.735 152.592C578.543 152.816 578.279 152.928 577.943 152.928H572.135V156.336H577.991C578.071 156.464 578.143 156.632 578.207 156.84C578.287 157.032 578.327 157.256 578.327 157.512C578.327 158.376 577.959 158.808 577.223 158.808H572.135V162.528H578.807C578.887 162.656 578.959 162.832 579.023 163.056C579.103 163.264 579.143 163.496 579.143 163.752C579.143 164.616 578.775 165.048 578.039 165.048H570.767Z" fill="white" />
	<defs>
		<linearGradient id="paint0_linear_0_1" x1="500" y1="0" x2="500" y2="290" gradientUnits="userSpaceOnUse">
			<stop stop-color="#766D86" />
			<stop offset="1" stop-color="#A29EC0" />
		</linearGradient>
		<linearGradient id="paint1_linear_0_1" x1="188" y1="200" x2="811.321" y2="200" gradientUnits="userSpaceOnUse">
			<stop stop-color="#766D86" />
			<stop offset="1" stop-color="#99F5CB" />
		</linearGradient>
		<linearGradient id="paint2_linear_0_1" x1="179.355" y1="90" x2="830" y2="90" gradientUnits="userSpaceOnUse">
			<stop stop-color="#99F5CB" />
			<stop offset="1" stop-color="#766D86" />
		</linearGradient>
	</defs>
</svg>
	