<svg width="932" height="348" viewBox="0 0 932 348" fill="none" xmlns="http://www.w3.org/2000/svg">
<path d="M596.7 292.214H491.844V239.917H613.757V140H439" stroke="#BCA9FF" stroke-width="0.231"/>
<path fill-rule="evenodd" clip-rule="evenodd" d="M641.079 240.105C641.079 255.28 628.798 267.579 613.651 267.579C598.504 267.579 586.223 255.28 586.223 240.105C586.223 224.934 598.504 212.634 613.651 212.634C628.798 212.634 641.079 224.934 641.079 240.105Z" stroke="#BCA9FF" stroke-width="0.463"/>
<path fill-rule="evenodd" clip-rule="evenodd" d="M253.019 241.115C253.019 249.397 246.316 256.111 238.047 256.111C229.782 256.111 223.075 249.397 223.075 241.115C223.075 232.838 229.782 226.12 238.047 226.12C246.316 226.12 253.019 232.838 253.019 241.115Z" stroke="#BCA9FF" stroke-width="0.925"/>
<path d="M209.693 181.221H237.362V241.115H285.581V178.289H319.965V5.78314H259.188V119.652" stroke="#BCA9FF" stroke-width="0.231" stroke-linecap="round" stroke-linejoin="round"/>
<path d="M853.592 142.692V61H752.02" stroke="#BCA9FF" stroke-width="0.231" stroke-linecap="round" stroke-linejoin="round"/>
<path d="M79.5283 181.221H221.004" stroke="#BCA9FF" stroke-width="0.231" stroke-linecap="round" stroke-linejoin="round"/>
<path d="M439.668 139.401V87.5879H389.717V188.291H439.668V240.104V334.506" stroke="#BCA9FF" stroke-width="0.231" stroke-linecap="round" stroke-linejoin="round"/>
<path fill-rule="evenodd" clip-rule="evenodd" d="M347.65 178.289C347.65 193.464 335.369 205.764 320.221 205.764C305.074 205.764 292.793 193.464 292.793 178.289C292.793 163.119 305.074 150.819 320.221 150.819C335.369 150.819 347.65 163.119 347.65 178.289Z" stroke="#BCA9FF" stroke-width="0.463"/>
<path fill-rule="evenodd" clip-rule="evenodd" d="M117.734 180.056C117.734 200.789 100.951 217.597 80.2508 217.597C59.546 217.597 42.7637 200.789 42.7637 180.056C42.7637 159.323 59.546 142.515 80.2508 142.515C100.951 142.515 117.734 159.323 117.734 180.056Z" stroke="#BCA9FF" stroke-width="0.463"/>
<path fill-rule="evenodd" clip-rule="evenodd" d="M242.041 241.115C242.041 243.325 240.255 245.113 238.049 245.113C235.843 245.113 234.058 243.325 234.058 241.115C234.058 238.91 235.843 237.118 238.049 237.118C240.255 237.118 242.041 238.91 242.041 241.115" fill="#E8DDFD"/>
<path fill-rule="evenodd" clip-rule="evenodd" d="M264.53 119.28C264.53 122.208 262.161 124.58 259.238 124.58C256.314 124.58 253.945 122.208 253.945 119.28C253.945 116.352 256.314 113.979 259.238 113.979C262.161 113.979 264.53 116.352 264.53 119.28" fill="#BCA9FF"/>
<path fill-rule="evenodd" clip-rule="evenodd" d="M264.53 6.11838C264.53 9.04227 262.161 11.4149 259.238 11.4149C256.314 11.4149 253.945 9.04227 253.945 6.11838C253.945 3.19041 256.314 0.81781 259.238 0.81781C262.161 0.81781 264.53 3.19041 264.53 6.11838" fill="#E8DDFD"/>
<path fill-rule="evenodd" clip-rule="evenodd" d="M324.755 178.289C324.755 181.217 322.386 183.59 319.462 183.59C316.539 183.59 314.17 181.217 314.17 178.289C314.17 175.361 316.539 172.993 319.462 172.993C322.386 172.993 324.755 175.361 324.755 178.289" fill="#E8DDFD"/>
<path fill-rule="evenodd" clip-rule="evenodd" d="M453 334.5C453 341.956 446.957 348 439.501 348C432.046 348 426 341.956 426 334.5C426 327.044 432.046 321 439.501 321C446.957 321 453 327.044 453 334.5Z" stroke="#BCA9FF" stroke-width="0.463"/>
<path fill-rule="evenodd" clip-rule="evenodd" d="M599.818 291.17C601.376 292.734 601.376 295.262 599.818 296.826C598.257 298.386 595.729 298.386 594.171 296.826C592.61 295.262 592.61 292.734 594.171 291.17C595.729 289.61 598.257 289.61 599.818 291.17" fill="#E8DDFD"/>
<path fill-rule="evenodd" clip-rule="evenodd" d="M442.91 331.261C444.472 332.825 444.472 335.353 442.91 336.917C441.352 338.477 438.824 338.477 437.267 336.917C435.705 335.353 435.705 332.825 437.267 331.261C438.824 329.701 441.352 329.701 442.91 331.261" fill="#E8DDFD"/>
<path fill-rule="evenodd" clip-rule="evenodd" d="M444.961 137.938C444.961 140.866 442.592 143.238 439.668 143.238C436.745 143.238 434.376 140.866 434.376 137.938C434.376 135.01 436.745 132.641 439.668 132.641C442.592 132.641 444.961 135.01 444.961 137.938" fill="#E8DDFD"/>
<path d="M80.249 84.5489V306.532" stroke="#BCA9FF" stroke-width="0.231" stroke-linecap="round" stroke-linejoin="round"/>
<path fill-rule="evenodd" clip-rule="evenodd" d="M83.0721 179.119C84.6297 180.679 84.6297 183.211 83.0721 184.771C81.5105 186.335 78.9866 186.335 77.425 184.771C75.8674 183.211 75.8674 180.679 77.425 179.119C78.9866 177.555 81.5105 177.555 83.0721 179.119" fill="#A375FC"/>
<path fill-rule="evenodd" clip-rule="evenodd" d="M94.4997 84.5489C94.4997 92.8264 87.7925 99.544 79.5277 99.544C71.2588 99.544 64.5557 92.8264 64.5557 84.5489C64.5557 76.2672 71.2588 69.5537 79.5277 69.5537C87.7925 69.5537 94.4997 76.2672 94.4997 84.5489Z" stroke="#BCA9FF" stroke-width="0.925"/>
<path fill-rule="evenodd" clip-rule="evenodd" d="M83.0721 81.7218C84.6297 83.2817 84.6297 85.8136 83.0721 87.3736C81.5105 88.9376 78.9866 88.9376 77.425 87.3736C75.8674 85.8136 75.8674 83.2817 77.425 81.7218C78.9866 80.1578 81.5105 80.1578 83.0721 81.7218" fill="#E8DDFD"/>
<path d="M124.343 306.533H80.251" stroke="#BCA9FF" stroke-width="0.231" stroke-linecap="round" stroke-linejoin="round"/>
<path fill-rule="evenodd" clip-rule="evenodd" d="M132.327 306.533C132.327 308.739 130.541 310.531 128.335 310.531C126.13 310.531 124.344 308.739 124.344 306.533C124.344 304.324 126.13 302.535 128.335 302.535C130.541 302.535 132.327 304.324 132.327 306.533" fill="#E8DDFD"/>
<path fill-rule="evenodd" clip-rule="evenodd" d="M495.283 228.238C496.845 229.798 496.845 232.33 495.283 233.89C493.725 235.454 491.198 235.454 489.64 233.89C488.078 232.33 488.078 229.798 489.64 228.238C491.198 226.674 493.725 226.674 495.283 228.238" fill="#A375FC"/>
<path fill-rule="evenodd" clip-rule="evenodd" d="M495.283 290.947C496.845 292.507 496.845 295.039 495.283 296.599C493.725 298.163 491.198 298.163 489.64 296.599C488.078 295.039 488.078 292.507 489.64 290.947C491.198 289.383 493.725 289.383 495.283 290.947" fill="#E8DDFD"/>
<path fill-rule="evenodd" clip-rule="evenodd" d="M722 61.4707C722 76.6455 734.281 88.9454 749.428 88.9454C764.575 88.9454 776.856 76.6455 776.856 61.4707C776.856 46.2999 764.575 34 749.428 34C734.281 34 722 46.2999 722 61.4707Z" stroke="#BCA9FF" stroke-width="0.463"/>
<path fill-rule="evenodd" clip-rule="evenodd" d="M814.266 180.056C814.266 200.789 831.049 217.597 851.749 217.597C872.454 217.597 889.236 200.789 889.236 180.056C889.236 159.323 872.454 142.515 851.749 142.515C831.049 142.515 814.266 159.323 814.266 180.056Z" stroke="#BCA9FF" stroke-width="0.463"/>
<path fill-rule="evenodd" clip-rule="evenodd" d="M610 239.998C610 242.207 611.786 243.996 613.992 243.996C616.198 243.996 617.983 242.207 617.983 239.998C617.983 237.793 616.198 236 613.992 236C611.786 236 610 237.793 610 239.998" fill="#E8DDFD"/>
<path fill-rule="evenodd" clip-rule="evenodd" d="M667.47 119.28C667.47 122.208 669.839 124.58 672.762 124.58C675.686 124.58 678.055 122.208 678.055 119.28C678.055 116.352 675.686 113.979 672.762 113.979C669.839 113.979 667.47 116.352 667.47 119.28" fill="#BCA9FF"/>
<path fill-rule="evenodd" clip-rule="evenodd" d="M743.972 61.4707C743.972 64.3987 746.341 66.7713 749.264 66.7713C752.184 66.7713 754.553 64.3987 754.553 61.4707C754.553 58.5427 752.184 56.1742 749.264 56.1742C746.341 56.1742 743.972 58.5427 743.972 61.4707" fill="#E8DDFD"/>
<path fill-rule="evenodd" clip-rule="evenodd" d="M848.928 179.119C847.37 180.679 847.37 183.211 848.928 184.771C850.49 186.335 853.013 186.335 854.575 184.771C856.133 183.211 856.133 180.679 854.575 179.119C853.013 177.555 850.49 177.555 848.928 179.119" fill="#A375FC"/>
<path fill-rule="evenodd" clip-rule="evenodd" d="M436.717 228.238C435.155 229.798 435.155 232.33 436.717 233.89C438.275 235.454 440.802 235.454 442.36 233.89C443.922 232.33 443.922 229.798 442.36 228.238C440.802 226.674 438.275 226.674 436.717 228.238" fill="#A375FC"/>
<path d="M371.512 219.508L142.201 190.426" stroke="url(#paint0_linear)" stroke-width="6" stroke-linecap="round" stroke-dasharray="4 10"/>
<path d="M170.55 290.283L95.7744 200.245" stroke="#E8DDFD" stroke-width="6" stroke-linecap="round" stroke-dasharray="4 10"/>
<path d="M274.086 127.449L95.7744 163.847" stroke="#E8DDFD" stroke-width="6" stroke-linecap="round" stroke-dasharray="4 10"/>
<path d="M420.547 245.173L285.682 300.173" stroke="url(#paint1_linear)" stroke-width="6" stroke-linecap="round" stroke-dasharray="4 10"/>
<path d="M400.547 208.644L323.332 133.002" stroke="url(#paint2_linear)" stroke-width="6" stroke-linecap="round" stroke-dasharray="4 10"/>
<path d="M590.393 118.509H353.644" stroke="#E8DDFD" stroke-width="6" stroke-linecap="round" stroke-dasharray="4 10"/>
<path d="M645.912 313.91H298.764" stroke="#E8DDFD" stroke-width="6" stroke-linecap="round" stroke-dasharray="4 10"/>
<path d="M573.035 221.581L804.075 192.879" stroke="url(#paint3_linear)" stroke-width="6" stroke-linecap="round" stroke-dasharray="4 10"/>
<path d="M777.31 291.546L847.957 201.495" stroke="#E8DDFD" stroke-width="6" stroke-linecap="round" stroke-dasharray="4 10"/>
<path d="M679.554 128.688L847.957 165.091" stroke="#E8DDFD" stroke-width="6" stroke-linecap="round" stroke-dasharray="4 10"/>
<path d="M523.986 246.173L658.903 301.173" stroke="url(#paint4_linear)" stroke-width="6" stroke-linecap="round" stroke-dasharray="4 10"/>
<path d="M543.985 210.146L621.235 134.748" stroke="url(#paint5_linear)" stroke-width="6" stroke-linecap="round" stroke-dasharray="4 10"/>
<path d="M472.39 258.694C528.267 258.694 573.564 244.662 573.564 227.352C573.564 210.042 528.267 196.01 472.39 196.01C416.513 196.01 371.216 210.042 371.216 227.352C371.216 244.662 416.513 258.694 472.39 258.694Z" fill="url(#paint6_linear)"/>
<path fill-rule="evenodd" clip-rule="evenodd" d="M400.174 252.016C419.499 257.991 445.156 261.279 472.397 261.279C499.638 261.279 525.282 257.991 544.606 252.016C565.216 245.686 576.11 237.108 576.11 227.352C576.11 217.596 565.216 209.06 544.606 202.688C525.282 196.714 499.638 193.425 472.397 193.425C445.156 193.425 419.499 196.714 400.174 202.688C379.565 209.018 368.671 217.61 368.671 227.352C368.671 237.094 379.565 245.645 400.174 252.016ZM401.758 207.854C420.595 202.03 445.671 198.824 472.397 198.824C499.11 198.824 524.199 202.03 543.023 207.854C560.344 213.211 570.683 220.487 570.683 227.311C570.683 234.135 560.344 241.397 543.023 246.755C524.199 252.578 499.124 255.784 472.397 255.784C445.671 255.784 420.595 252.578 401.758 246.755C384.436 241.397 374.097 234.135 374.097 227.311C374.097 220.487 384.436 213.211 401.758 207.854Z" fill="#37DD9E"/>
<path d="M219.728 337.226C263.468 337.226 298.927 326.412 298.927 313.073C298.927 299.734 263.468 288.92 219.728 288.92C175.987 288.92 140.528 299.734 140.528 313.073C140.528 326.412 175.987 337.226 219.728 337.226Z" fill="url(#paint7_linear)"/>
<path fill-rule="evenodd" clip-rule="evenodd" d="M163.256 332.018C178.367 336.607 198.431 339.133 219.733 339.133C241.035 339.133 261.088 336.607 276.2 332.018C292.317 327.156 300.835 320.567 300.835 313.073C300.835 305.579 292.317 299.022 276.2 294.128C261.088 289.539 241.035 287.013 219.733 287.013C198.431 287.013 178.367 289.539 163.256 294.128C147.139 298.991 138.62 305.59 138.62 313.073C138.62 320.556 147.139 327.124 163.256 332.018ZM164.494 298.096C179.224 293.623 198.833 291.16 219.733 291.16C240.622 291.16 260.242 293.623 274.962 298.096C288.507 302.211 296.592 307.8 296.592 313.042C296.592 318.283 288.507 323.861 274.962 327.976C260.242 332.45 240.633 334.912 219.733 334.912C198.833 334.912 179.224 332.45 164.494 327.976C150.948 323.861 142.864 318.283 142.864 313.042C142.864 307.8 150.948 302.211 164.494 298.096Z" fill="#37DD9E"/>
<path d="M301.327 136.251C330.757 136.251 354.614 128.902 354.614 119.837C354.614 110.772 330.757 103.424 301.327 103.424C271.897 103.424 248.04 110.772 248.04 119.837C248.04 128.902 271.897 136.251 301.327 136.251Z" fill="url(#paint8_linear)"/>
<path fill-rule="evenodd" clip-rule="evenodd" d="M263.337 132.705C273.502 135.822 287 137.538 301.331 137.538C315.661 137.538 329.151 135.822 339.317 132.705C350.159 129.403 355.89 124.927 355.89 119.837C355.89 114.747 350.159 110.293 339.317 106.969C329.151 103.852 315.661 102.136 301.331 102.136C287 102.136 273.502 103.852 263.337 106.969C252.494 110.272 246.764 114.754 246.764 119.837C246.764 124.92 252.494 129.381 263.337 132.705ZM264.17 109.664C274.079 106.626 287.271 104.953 301.331 104.953C315.383 104.953 328.582 106.626 338.484 109.664C347.597 112.459 353.036 116.256 353.036 119.816C353.036 123.376 347.597 127.165 338.484 129.96C328.582 132.999 315.39 134.671 301.331 134.671C287.271 134.671 274.079 132.999 264.17 129.96C255.057 127.165 249.618 123.376 249.618 119.816C249.618 116.256 255.057 112.459 264.17 109.664Z" fill="#37DD9E"/>
<path d="M642.471 136.251C671.9 136.251 695.758 128.902 695.758 119.837C695.758 110.772 671.9 103.424 642.471 103.424C613.041 103.424 589.184 110.772 589.184 119.837C589.184 128.902 613.041 136.251 642.471 136.251Z" fill="url(#paint9_linear)"/>
<path fill-rule="evenodd" clip-rule="evenodd" d="M604.48 132.705C614.646 135.822 628.144 137.538 642.474 137.538C656.805 137.538 670.295 135.822 680.461 132.705C691.303 129.403 697.034 124.927 697.034 119.837C697.034 114.747 691.303 110.293 680.461 106.969C670.295 103.852 656.805 102.136 642.474 102.136C628.144 102.136 614.646 103.852 604.48 106.969C593.638 110.272 587.907 114.754 587.907 119.837C587.907 124.92 593.638 129.381 604.48 132.705ZM605.313 109.664C615.223 106.626 628.414 104.953 642.474 104.953C656.527 104.953 669.725 106.626 679.628 109.664C688.74 112.459 694.179 116.256 694.179 119.816C694.179 123.376 688.74 127.165 679.628 129.96C669.725 132.999 656.534 134.671 642.474 134.671C628.414 134.671 615.223 132.999 605.313 129.96C596.201 127.165 590.762 123.376 590.762 119.816C590.762 116.256 596.201 112.459 605.313 109.664Z" fill="#37DD9E"/>
<path d="M866.941 202.487C902.168 202.487 930.724 193.738 930.724 182.945C930.724 172.153 902.168 163.404 866.941 163.404C831.715 163.404 803.158 172.153 803.158 182.945C803.158 193.738 831.715 202.487 866.941 202.487Z" fill="url(#paint10_linear)"/>
<path fill-rule="evenodd" clip-rule="evenodd" d="M821.103 198.636C833.284 202.359 849.456 204.409 866.627 204.409C883.798 204.409 899.962 202.359 912.143 198.636C925.134 194.691 932 189.346 932 183.266C932 177.186 925.134 171.866 912.143 167.895C899.962 164.172 883.798 162.123 866.627 162.123C849.456 162.123 833.284 164.172 821.103 167.895C808.112 171.84 801.245 177.194 801.245 183.266C801.245 189.337 808.112 194.666 821.103 198.636ZM822.101 171.115C833.974 167.485 849.78 165.487 866.627 165.487C883.465 165.487 899.28 167.485 911.145 171.115C922.063 174.453 928.58 178.988 928.58 183.24C928.58 187.493 922.063 192.018 911.145 195.357C899.28 198.986 883.474 200.984 866.627 200.984C849.78 200.984 833.974 198.986 822.101 195.357C811.182 192.018 804.666 187.493 804.666 183.24C804.666 178.988 811.182 174.453 822.101 171.115Z" fill="#37DD9E"/>
<path d="M77.494 202.487C112.72 202.487 141.277 193.738 141.277 182.945C141.277 172.153 112.72 163.404 77.494 163.404C42.2676 163.404 13.7109 172.153 13.7109 182.945C13.7109 193.738 42.2676 202.487 77.494 202.487Z" fill="url(#paint11_linear)"/>
<path fill-rule="evenodd" clip-rule="evenodd" d="M31.6555 198.636C43.8363 202.359 60.009 204.409 77.1798 204.409C94.3505 204.409 110.515 202.359 122.695 198.636C135.687 194.691 142.553 189.346 142.553 183.266C142.553 177.186 135.687 171.866 122.695 167.895C110.515 164.172 94.3505 162.123 77.1798 162.123C60.009 162.123 43.8363 164.172 31.6555 167.895C18.6644 171.84 11.7979 177.194 11.7979 183.266C11.7979 189.337 18.6644 194.666 31.6555 198.636ZM32.6535 171.115C44.5272 167.485 60.3331 165.487 77.1797 165.487C94.0178 165.487 109.832 167.485 121.697 171.115C132.616 174.453 139.133 178.988 139.133 183.24C139.133 187.493 132.616 192.018 121.697 195.357C109.832 198.986 94.0264 200.984 77.1797 200.984C60.3331 200.984 44.5272 198.986 32.6535 195.357C21.7352 192.018 15.2184 187.493 15.2184 183.24C15.2184 178.988 21.7352 174.453 32.6535 171.115Z" fill="#37DD9E"/>
<path d="M724.069 337.226C767.81 337.226 803.268 326.412 803.268 313.073C803.268 299.734 767.81 288.92 724.069 288.92C680.329 288.92 644.87 299.734 644.87 313.073C644.87 326.412 680.329 337.226 724.069 337.226Z" fill="url(#paint12_linear)"/>
<path fill-rule="evenodd" clip-rule="evenodd" d="M667.597 332.018C682.709 336.607 702.773 339.133 724.075 339.133C745.377 339.133 765.43 336.607 780.542 332.018C796.658 327.156 805.177 320.567 805.177 313.073C805.177 305.579 796.658 299.022 780.542 294.128C765.43 289.539 745.377 287.013 724.075 287.013C702.773 287.013 682.709 289.539 667.597 294.128C651.481 298.991 642.962 305.59 642.962 313.073C642.962 320.556 651.481 327.124 667.597 332.018ZM668.835 298.096C683.566 293.623 703.175 291.16 724.075 291.16C744.964 291.16 764.584 293.623 779.304 298.096C792.849 302.211 800.934 307.8 800.934 313.042C800.934 318.283 792.849 323.861 779.304 327.976C764.584 332.45 744.975 334.912 724.075 334.912C703.175 334.912 683.566 332.45 668.835 327.976C655.29 323.861 647.205 318.283 647.205 313.042C647.205 307.8 655.29 302.211 668.835 298.096Z" fill="#37DD9E"/>
<mask id="mask0" mask-type="alpha" maskUnits="userSpaceOnUse" x="694" y="294" width="56" height="53">
<path fill-rule="evenodd" clip-rule="evenodd" d="M694.998 294.575H749.1V346.016H694.998V294.575Z" fill="white"/>
</mask>
<g mask="url(#mask0)">
<path fill-rule="evenodd" clip-rule="evenodd" d="M694.998 333.835C694.66 330.359 694.998 330.868 694.998 326.4C694.998 321.933 695.891 316.125 699.91 308.977C703.929 301.829 714.931 295.425 722.684 294.681C733.702 293.624 742.762 300.793 743.673 301.829C750.012 309.044 749.072 318.145 749.031 323.72C748.995 328.69 749.166 327.191 745.83 334.222C720.453 336.817 694.998 333.835 694.998 333.835Z" fill="#D7CDF9"/>
</g>
<path fill-rule="evenodd" clip-rule="evenodd" d="M694.998 326.4C694.993 334.261 740.052 331.904 749.1 326.4C748.529 329.462 747.342 332.624 746.053 333.835C743.256 334.69 705.951 336.822 695.617 333.51C695.617 332.033 694.998 330.507 694.998 326.4Z" fill="#C9BEF3"/>
<path fill-rule="evenodd" clip-rule="evenodd" d="M736.314 304.699C736.314 304.699 744.923 282.565 743.11 271.941C741.298 261.317 737.22 239.183 736.314 228.116C735.408 217.049 739.939 214.835 734.502 215.278C725.44 217.049 720.456 272.826 722.269 284.336C724.081 295.846 731.33 307.355 731.33 307.355L736.314 304.699Z" fill="#D7CDF9"/>
<path fill-rule="evenodd" clip-rule="evenodd" d="M724.376 301.537C724.376 301.537 718.989 280.208 708.665 275.321C698.341 270.433 681.219 255.924 674.069 249.404C666.919 242.884 664.675 227.332 661.982 235.774C659.288 244.217 673.204 271.322 682.181 280.208C691.159 289.095 717.643 302.87 720.336 307.758C723.029 312.645 724.376 301.537 724.376 301.537" fill="#D7CDF9"/>
<path fill-rule="evenodd" clip-rule="evenodd" d="M724.656 325.14C725.871 323.215 724.931 320.255 723.07 319.766C721.608 319.382 719.841 320.594 719.106 321.916C718.156 323.626 718.528 326.25 720.296 326.932C721.806 327.514 723.813 326.477 724.656 325.14" fill="#2B214B"/>
<path fill-rule="evenodd" clip-rule="evenodd" d="M703.514 322.716C704.263 320.794 703.005 318.135 701.811 318.051C700.868 317.985 699.915 319.517 699.682 320.85C699.439 322.238 699.827 324.251 700.959 324.582C701.929 324.867 703.086 323.813 703.514 322.716" fill="#2B214B"/>
<path fill-rule="evenodd" clip-rule="evenodd" d="M704.515 334.782C705.39 335.121 711.092 335.487 712.343 335.121C713.258 333.798 712.801 333.798 711.427 333.358C708.548 332.433 704.502 332.081 704.103 332.035C703.46 331.962 704.218 334.304 704.515 334.782Z" fill="#2B214B"/>
<path fill-rule="evenodd" clip-rule="evenodd" d="M732.995 294.182C734.684 292.86 735.107 276.553 735.107 270.824C735.107 265.095 732.573 239.092 731.306 241.737C730.039 244.381 729.616 270.383 728.772 274.79C727.927 279.198 729.194 293.301 730.883 294.182C732.573 295.063 731.306 295.504 732.995 294.182" fill="#7261C8"/>
<path fill-rule="evenodd" clip-rule="evenodd" d="M716.114 296.656C716.379 296.102 708.784 281.347 702.529 278.217C696.274 275.087 680.191 263.014 681.531 267.038C682.871 271.063 697.168 284.924 700.295 287.16C703.423 289.395 712.026 298.151 714.145 297.444C715.485 296.997 715.85 297.21 716.114 296.656" fill="#7261C8"/>
<path d="M619.444 127.397C619.789 126.233 620.563 123.397 621.029 122.276C622.349 119.4 623.706 116.53 625.701 114.039C626.758 112.709 627.883 111.436 629.072 110.223C629.681 109.652 629.917 108.785 629.68 107.983C628.949 105.009 628.572 101.96 628.555 98.8974C628.497 96.8549 628.333 94.8169 628.062 92.7917C628.032 92.401 628.026 92.0102 628.026 91.6256C628.026 89.3298 628.026 87.0341 628.026 84.7384C628.07 80.4656 628.56 76.2093 629.486 72.0386C630.147 69.055 630.824 66.0734 631.518 63.0939C631.595 62.6126 631.732 62.1429 631.926 61.6957C633.404 58.8687 634.013 55.7365 635.01 52.7448C635.199 52.1892 635.424 51.7435 636.014 51.6274C636.604 51.5114 636.982 51.9327 637.304 52.3845C638.521 54.0575 638.983 56.0174 639.355 57.959C640.31 63.0084 641.18 68.07 641.965 73.1499C642.447 76.8234 642.547 80.5373 642.263 84.2316C642.141 86.2953 641.527 88.3346 641.149 90.38C640.651 93.097 640.194 95.8262 639.665 98.5371C639.409 99.8682 639.008 101.175 638.704 102.5C638.588 103.006 638.564 103.532 638.478 104.197C639.091 104.156 639.701 104.077 640.304 103.959C642.701 103.348 644.8 104.014 646.759 105.382C647.599 105.992 647.775 105.913 648.207 104.924C650.416 99.8865 652.515 94.8005 654.9 89.8366C656.564 86.3678 658.689 83.1411 661.216 80.2446C664.228 76.825 667.49 73.6352 670.975 70.7015C671.583 70.1886 672.107 69.6269 672.654 69.0713C673.072 68.5737 673.786 68.4499 674.346 68.7782C674.346 70.7564 674.443 72.7957 674.346 74.8228C674.115 78.9991 672.417 82.8273 671.255 86.7777C670.391 89.7145 669.478 92.6391 668.553 95.5637C667.875 97.7524 666.799 99.7958 665.377 101.59C664.805 102.31 664.422 103.19 663.826 103.886C662.919 104.948 661.891 105.907 660.93 106.939C659.768 108.16 658.612 109.43 657.48 110.693C656.16 112.183 654.888 113.746 653.543 115.181C653.021 115.633 652.83 116.361 653.063 117.013C653.793 119.828 655.04 122.523 655.04 125.518C655.04 126.182 655.04 128.773 655.04 130.178C655.04 130.178 623.048 138.307 619.444 127.397Z" fill="#D7CDF9"/>
<path d="M619.903 126.182C625.889 132.678 655 128.718 655 128.718C655.216 130.422 655.426 132.132 655.654 133.949C654.143 134.096 652.83 134.32 651.517 134.332C646.878 134.379 642.232 134.403 637.592 134.332C635.506 134.302 633.426 134.008 631.334 133.854C629.578 133.724 627.81 133.677 626.059 133.506C623.596 133.27 621.144 132.952 618.686 132.657C618.51 132.605 618.341 132.531 618.183 132.439C618.39 130.272 618.972 128.156 619.903 126.182Z" fill="#C9BEF3"/>
<path d="M633.015 105.567C632.286 103.827 631.745 102.005 631.401 100.136C630.1 94.5209 630.279 88.8319 630.765 83.1553C631.071 79.5552 631.598 75.9551 632.24 72.4041C632.587 70.4627 633.397 68.6197 634.108 66.3588C634.407 66.7163 634.666 67.1102 634.878 67.5322C635.617 69.859 636.024 72.29 636.087 74.7448C636.087 78.4678 636.144 82.1969 636.046 85.9199C635.942 89.7965 635.711 93.6608 635.468 97.5312C635.352 99.4849 635.213 101.445 634.93 103.374C634.797 104.43 634.172 106.181 633.015 105.567Z" fill="#6046BB"/>
<path d="M650.574 111.431C649.974 110.314 649.782 109.78 649.295 108.954C649.05 108.471 649.092 107.891 649.403 107.449C650.79 104.523 652.153 101.579 653.605 98.6953C656.007 93.9301 659.362 89.7598 662.61 85.5652C664.287 83.3053 666.358 81.3737 668.721 79.8652C668.877 79.7681 669.051 79.6952 669.501 79.4706C669.406 80.127 669.251 80.7732 669.039 81.401C667.664 84.333 666.242 87.2467 664.837 90.1604C664.627 90.5914 664.339 90.9921 664.141 91.4291C661.74 96.601 658.414 101.142 655.034 105.688C653.876 107.236 652.843 108.875 651.745 110.466C651.474 110.824 651.174 111.431 650.574 111.431Z" fill="#6046BB"/>
<path d="M639.643 129.99C638.382 131.35 637.91 131.413 636.533 130.428C635.889 129.125 636.05 127.797 636.489 126.487C636.866 125.356 637.733 125.273 638.588 125.413C639.615 125.579 640.193 125.915 640.176 127.072C640.084 128.063 639.905 129.04 639.643 129.99V129.99Z" fill="#2B1E4A"/>
<path d="M626.168 129.085C624.398 129.926 623.519 129.379 623.07 127.164C623.162 126.697 623.284 126.238 623.436 125.789C623.637 125.132 624.203 124.66 624.876 124.588C625.591 124.43 626.333 124.692 626.8 125.266C627.24 126.058 627.258 127.022 626.847 127.83C626.646 128.268 626.398 128.671 626.168 129.085Z" fill="#2B1E4A"/>
<path d="M275.123 125.009C275.523 122.411 276.856 120.252 278.377 118.19C278.983 117.378 279.643 116.626 280.322 115.784C279.582 114.804 278.837 113.824 278.098 112.832C274.652 108.192 271.899 103.082 269.925 97.6603C268.62 94.0568 267.654 90.3406 267.041 86.5598C266.834 85.1392 266.715 83.7074 266.684 82.2723C266.557 79.398 266.399 76.5236 266.43 73.6493C266.476 71.5961 266.65 69.5477 266.951 67.5157C267.272 65.0563 267.659 62.5968 268.162 60.1675C268.694 57.7681 269.613 55.4695 270.883 53.3604C271.241 52.8638 271.647 52.4026 272.094 51.9834C274.154 53.0718 276.062 54.2624 277.038 56.4272C278.013 58.592 278.928 60.7387 279.716 62.9516C281.331 67.313 282.577 71.8004 283.442 76.3673C283.757 78.1712 283.975 80.0594 284.132 81.9115C284.302 83.962 284.362 86.0246 284.441 88.0811C284.55 91.0517 284.593 94.0223 284.744 96.9928C284.865 99.3981 285.09 101.755 285.277 104.143C285.38 105.478 285.471 106.813 285.592 108.141C285.683 109.08 285.81 110.012 285.938 111.064C287.149 110.463 288.228 109.957 289.312 109.452C291.873 108.178 294.72 107.578 297.582 107.708C298.594 107.769 299.036 107.354 299.399 106.506C301.443 102.049 304.078 97.8829 307.233 94.1185C311.953 88.5381 317.908 84.7678 324.536 81.8694C329.189 79.8369 334.035 78.3456 338.852 76.7882C340.512 76.253 342.19 76.6499 344.092 76.5176C343.899 77.4316 343.814 78.1231 343.608 78.7846C343.009 80.6728 341.971 82.3948 340.579 83.8117C337.695 86.7763 334.799 89.7468 331.751 92.537C328.522 95.4955 325.087 98.2135 321.791 101.094C319.32 103.247 316.945 105.484 314.521 107.708C313.346 108.773 312.171 109.843 311.007 110.926C310.692 111.214 310.402 111.527 310.056 111.942C311.038 112.597 311.934 113.229 312.861 113.824C316.945 116.407 320.654 119.531 323.888 123.109C325.051 124.413 326.238 125.784 326.626 127.594C325.485 139.165 276.204 133.601 275.123 125.009Z" fill="#D7CDF9"/>
<path d="M275.124 125.009C275.539 128.626 310.452 135.795 311.869 132.53C311.434 132.735 310.987 132.928 310.558 133.116C310.072 133.268 309.771 133.733 309.847 134.217C298.247 135.085 280.01 133.336 275.08 131.928C274.429 129.531 274.545 127.423 275.124 125.009Z" fill="#C9BEF3"/>
<path d="M326.376 127.086C326.309 125.911 327.801 130.001 328.229 132.014C327.385 132.571 315.993 134.508 315.776 133.694C315.558 132.88 325.863 128.468 326.376 127.086Z" fill="#C9BEF3"/>
<path d="M316.108 131.042C316.932 131.804 316.978 133.051 316.407 133.942L309.314 134.186C309.239 133.653 309.623 133.542 310.1 133.374C310.522 133.142 310.961 132.929 311.388 132.729C312.2 132.412 313.001 132.083 313.795 131.773C314.589 131.463 315.271 130.726 316.108 131.042Z" fill="#2B1E4A"/>
<path d="M282.71 112.506C280.08 110.114 279.058 107.967 277.932 105.151C275.773 99.6189 274.281 93.8572 273.488 87.984C272.854 83.5286 272.887 79.0061 273.586 74.5601C273.72 73.7589 273.823 72.9516 273.951 72.1683C274.007 71.976 274.082 71.7896 274.176 71.6122C274.482 71.8295 274.769 72.0715 275.034 72.3358C276.048 73.6306 276.748 75.1358 277.08 76.7366C278.23 81.7653 279.411 86.7881 280.33 91.8526C281.176 96.5047 281.748 101.199 282.326 105.886C282.618 108.177 283.318 112.506 282.71 112.506Z" fill="#6046BB"/>
<path d="M331.699 86.5088C331.522 86.9396 331.317 87.3584 331.084 87.7625C329.734 89.7214 328.094 91.4725 326.218 92.9583C319.945 98.2144 313.656 103.452 307.354 108.672C306.536 109.353 305.884 109.462 305.226 108.739C304.568 108.015 304.033 106.858 304.838 106.141C308.277 103.079 310.583 99.0944 313.812 95.8576C317.503 92.1205 321.661 89.0404 326.624 87.0754C327.627 86.6836 328.611 86.2556 329.62 85.8699C330.012 85.7013 330.426 85.5838 330.85 85.5203C331.422 85.472 331.686 85.8337 331.699 86.5088Z" fill="#6046BB"/>
<path d="M299.969 122.32C301.415 122.32 302.325 123.367 302.655 124.726C303.002 125.955 302.619 127.269 301.658 128.143C300.873 128.842 299.746 129.052 298.748 128.684C298.015 128.511 297.419 127.997 297.159 127.313C296.638 125.559 297.405 123.687 299.028 122.753C299.346 122.621 299.813 122.362 299.969 122.32Z" fill="#2B1E4A"/>
<path d="M318.477 123.217C318.522 124.28 317.85 125.239 316.844 125.547C315.97 125.745 315.16 125.279 314.659 124.254C314.21 123.343 314.249 122.263 314.763 121.388C315.269 120.607 316.085 120.584 316.913 120.805C317.883 121.196 318.507 122.16 318.477 123.217V123.217Z" fill="#2B1E4A"/>
<path d="M0.821714 98.4842C1.26458 98.0394 1.84204 97.7519 2.46514 97.666C4.93029 99.3025 7.58442 99.4989 10.0496 100.939C13.7697 103.004 17.2978 105.394 20.5922 108.082C20.6415 108.123 20.7154 108.139 20.7647 108.18C23.0737 110.308 25.4321 112.378 27.6671 114.579C30.0912 116.96 32.3509 119.488 34.7585 121.943C37.4537 124.619 40.338 127.098 42.9757 129.839C46.1254 133.056 49.003 136.526 51.579 140.214C54.9152 145.124 57.331 150.434 59.6975 155.835C60.207 157.021 60.7329 158.199 61.2834 159.435L67.1587 156.53C66.337 154.812 65.4578 153.094 64.6936 151.351C61.8974 145.598 59.6683 139.588 58.0377 133.407C57.1864 129.869 56.5444 126.284 56.1149 122.671C55.4608 117.573 55.085 112.444 54.9891 107.305C54.9891 104.965 54.6522 102.625 54.6604 100.284C54.6912 98.8555 54.8786 97.4343 55.2192 96.0459C55.3326 95.2937 55.848 94.6626 56.5644 94.3987C57.2807 94.1349 58.0845 94.28 58.6622 94.7776C62.1709 97.3305 65.4824 100.113 67.9393 103.721C72.1622 109.797 75.2698 116.571 77.1179 123.727C77.9506 127 78.6928 130.295 79.3447 133.611C79.657 135.199 79.657 136.884 79.8542 138.463C80.5773 144.322 80.1171 150.205 80.2568 156.072C80.2568 157.504 80.5609 157.946 81.9003 157.946C83.8313 157.946 85.4665 158.764 87.1346 159.5C93.8901 162.394 99.4142 167.553 102.747 174.081C105.574 179.367 107.225 185.054 108.631 190.831C108.803 191.526 108.902 192.23 109.033 192.934C104.671 205.493 50.4006 202.144 50.6751 184.71C51.0784 180.829 51.9985 177.018 53.4114 173.378C54.0688 171.848 54.0195 171.88 52.5897 170.923C47.9306 167.773 43.2222 164.696 38.6781 161.39C36.527 159.68 34.4801 157.844 32.5481 155.892C28.5278 152.128 24.8968 147.973 21.7097 143.487C16.6286 136.508 12.0905 129.153 8.13497 121.485C5.92456 117.124 4.28113 112.484 2.43227 107.959C1.61056 105.963 0.97784 103.868 0.205429 101.896C0.0328686 101.446 0.2876 101.348 0 100.939C0.0822828 100.069 0.363359 99.2293 0.821714 98.4842Z" fill="#D7CDF9"/>
<path d="M54.2741 187.811C55.3587 188.973 56.2708 190.724 57.5609 191.903C58.6083 192.875 59.8178 193.659 61.1354 194.218C64.0831 195.599 67.1 196.828 70.1742 197.9C72.7271 198.67 75.3374 199.237 77.9805 199.594C79.9691 199.905 82.0069 199.88 84.0201 200.036C84.3269 200.112 84.6205 200.233 84.8912 200.396C76.1974 201.091 73.294 200.714 64.7241 200.216C62.1414 200.066 53.5181 199.045 50.6257 198.857C49.7842 193.688 49.8223 189.844 50.6257 184.669C52.3266 185.152 53.1894 186.65 54.2741 187.811Z" fill="#C9BEF3"/>
<path d="M94.8848 199.932C96.1177 199.392 102.304 197.672 103.446 196.959C104.733 195.979 105.957 194.919 107.111 193.785C107.653 193.285 108.154 192.803 108.968 192.925L109.937 197.753C104.608 199.179 102.304 198.895 94.8848 199.932Z" fill="#C9BEF3"/>
<path d="M87.4114 200.486C87.017 199.471 87.8252 198.866 88.5236 198.759C90.3314 198.481 92.1556 198.26 93.988 198.162C94.3874 198.092 94.7967 198.211 95.096 198.483C95.3953 198.756 95.3534 199.53 95.3192 199.932C92.6576 200.218 90.0027 200.478 87.4114 200.486Z" fill="#2B1E4A"/>
<path d="M55.3426 166.938C49.9686 161.759 44.5781 156.767 39.426 151.555C35.1202 147.202 32.6304 142.236 29.5654 136.942C26.4347 131.5 22.474 125.903 19.3104 120.47C18.801 119.603 18.3162 118.777 18.8667 117.672C19.7741 117.517 20.6993 117.824 21.3318 118.49C23.6409 120.307 25.9992 122.099 28.1685 124.087C33.364 128.991 38.2024 134.258 42.6471 139.846C45.934 143.937 49.3359 147.914 52.6474 151.973C54.7956 154.789 56.4997 157.915 57.7009 161.243C58.3912 162.962 57.2654 164.238 56.5423 165.58C56.1913 166.073 55.7892 166.529 55.3426 166.938Z" fill="#6046BB"/>
<path d="M75.5978 156.579C72.5328 157.193 72.4014 156.849 71.4893 154.296C68.9423 147.506 67.127 140.465 66.0742 133.292C65.2524 127.564 64.4307 121.837 63.7241 116.044C63.3625 113.286 63.1406 110.512 62.9023 107.739L63.3461 107.542C63.8144 108.197 64.3321 108.819 64.743 109.506C67.3704 113.654 69.4214 118.138 70.8401 122.835C72.2781 127.982 73.6586 133.153 74.8419 138.382C75.335 141.011 75.6507 143.671 75.7868 146.343C76.0498 149.461 76.1895 152.586 76.3785 155.712C76.3127 156.006 75.5978 156.301 75.5978 156.579Z" fill="#6046BB"/>
<path d="M73.4941 189.767C73.4941 187.312 74.7267 185.398 76.2633 185.103C77.7999 184.808 79.657 186.101 80.2486 188.204C80.5273 189.201 80.5695 190.249 80.3719 191.264C80.0268 192.958 78.9832 193.392 77.2412 193.4C75.4991 193.408 74.3323 193.122 73.7982 191.313C73.67 190.804 73.5685 190.287 73.4941 189.767H73.4941Z" fill="#2B1E4A"/>
<path d="M101.498 189.039C101.761 191.641 99.5673 192.737 97.7841 192.582C97.1744 192.563 96.5765 192.409 96.0339 192.132C94.8424 191.223 94.5219 188.597 95.3354 187.059C96.1917 185.669 97.8618 185.004 99.444 185.422C100.734 185.823 101.49 187.124 101.498 189.039Z" fill="#2B1E4A"/>
<path d="M844.473 190.712C844.534 188.84 844.84 186.984 845.383 185.19C846.84 179.984 849.246 175.086 852.482 170.738C854.055 168.607 855.778 166.602 857.558 164.636C859.605 162.399 861.836 160.333 864.227 158.46C864.341 158.338 864.444 158.205 864.534 158.064C864.121 157.506 863.721 156.948 863.299 156.408C860.93 153.357 858.499 150.345 856.187 147.255C853.875 144.165 851.589 141.036 849.449 137.819C847.831 135.387 846.42 132.816 844.996 130.262C843.803 128.129 842.678 125.963 841.62 123.764C838.956 118.246 836.345 112.706 834.46 106.858C833.471 103.785 832.721 100.643 832.218 97.4566C831.849 95.0988 831.409 92.7496 831.027 90.3961C830.991 89.9261 830.991 89.454 831.027 88.984C831.813 89.2455 832.534 89.4983 833.264 89.7249C835.299 90.3656 837.365 90.9148 839.365 91.6513C841.455 92.4817 843.376 93.6808 845.035 95.1903C848.701 98.3501 851.488 102.212 853.976 106.295C855.55 108.88 857.093 111.499 858.464 114.197C860.396 117.948 861.939 121.883 863.071 125.943C863.989 129.325 864.978 132.689 865.831 136.089C867.356 142.191 868.846 148.34 869.994 154.547C870.147 155.357 870.266 155.418 871.132 155.266C871.443 155.213 871.757 155.187 872.073 155.187C874.486 155.187 876.908 155.043 879.418 155.885C879.452 155.521 879.452 155.155 879.418 154.791C878.978 152.341 878.455 149.901 878.038 147.442C877.747 145.738 877.598 144.012 877.339 142.3C877.084 140.447 876.789 138.604 876.552 136.751C876.363 135.309 876.253 133.858 876.077 132.415C875.901 130.972 875.638 129.469 875.497 127.991C875.312 126.305 875.22 124.605 875.018 122.922C874.631 119.693 874.846 116.455 874.851 113.221C874.885 111.524 875.015 109.83 875.238 108.148C875.471 106.086 875.721 104.025 876.082 101.981C876.442 99.9365 876.864 97.8227 877.4 95.7874C877.965 93.6369 878.657 91.521 879.471 89.4503C880.35 87.2712 881.365 85.092 883.158 83.4358C883.286 83.3182 883.422 83.2092 883.655 83C884.026 83.2986 884.371 83.6266 884.688 83.9806C885.961 85.5544 886.972 87.3201 887.681 89.2106C889.018 92.9376 890.011 96.7771 890.649 100.682C891.005 102.905 891.501 105.101 891.84 107.324C892.139 109.276 892.279 111.246 892.53 113.203C892.969 116.638 892.701 120.085 892.697 123.528C892.697 125.673 892.495 127.821 892.284 129.961C891.98 133.095 891.686 136.237 891.211 139.349C890.584 143.813 889.554 148.212 888.134 152.494C887.457 154.464 886.864 156.46 886.231 158.443C887.18 159.031 888.147 159.563 889.04 160.208C889.556 160.565 889.935 161.084 890.117 161.681C890.314 162.296 890.939 162.775 891.383 163.311C893.849 166.361 895.554 169.945 896.358 173.771C896.917 176.106 897.112 178.512 896.939 180.906C896.745 183.312 896.539 185.739 895.536 188.001C897.174 199.382 847.955 207.428 844.473 190.712Z" fill="#D7CDF9"/>
<path d="M844.25 191.762C845.025 192.292 845.941 192.694 846.54 193.379C847.703 194.666 849.246 195.542 850.944 195.881C852.983 196.38 854.991 197.016 857.03 197.525C857.917 197.712 858.816 197.839 859.721 197.905C861.073 198.055 862.429 198.174 863.785 198.311H863.997C866.379 198.386 868.77 198.576 871.149 198.497C874.268 198.435 877.36 197.904 880.322 196.919C882.418 196.199 884.527 195.554 886.487 194.506C887.319 194.064 888.121 193.543 888.918 193.035C890.931 191.744 892.93 190.441 894.938 189.15C895.095 189.078 895.261 189.028 895.431 189C895.202 192.093 895.916 196.162 895.999 199.082C896.057 201.086 855.743 202.487 845.623 200.262C845.416 197.526 843.81 194.325 844.25 191.762Z" fill="#C9BEF3"/>
<path d="M842.091 106C843.041 106.095 843.573 106.644 844.087 107.201C845.963 109.203 847.544 111.457 848.783 113.898C850.961 118.184 853.009 122.538 855.117 126.859C857.043 130.803 858.951 134.757 860.911 138.684C863.341 143.467 864.985 148.603 865.782 153.9C865.86 154.445 866.148 155.555 865.904 155.628C866.148 156 865.712 156 865.712 156C865.276 156 865.346 155.81 865.276 156C865.176 155.888 864.841 156 864.841 155.603C862.484 151.857 860.114 148.115 857.775 144.369C855.109 140.084 852.325 135.858 849.859 131.46C845.96 124.491 843.629 116.948 842.27 109.111C842.131 108.294 842.078 107.465 842 106.644C842.006 106.426 842.036 106.21 842.091 106V106Z" fill="#6046BB"/>
<path d="M881.877 103C882.531 103.215 883.091 103.659 883.457 104.255C884.419 105.635 884.884 107.241 885.312 108.839C886.067 111.648 886.493 114.539 886.583 117.451C886.693 121.193 886.748 124.94 886.837 128.682C886.867 129.984 886.917 131.312 886.972 132.628C887.116 136.101 886.676 139.539 886.125 142.964C885.804 144.978 885.702 147.031 885.363 149.041C885.041 150.912 884.541 152.749 884.092 154.589C883.932 155.227 883.622 155.479 883.021 156C882.597 156 882.775 155.644 882.801 155.427C883.114 152.549 882.83 149.684 882.619 146.819C882.445 144.47 882.195 142.13 881.962 139.786C881.729 137.373 881.467 134.963 881.272 132.55C881.132 130.813 880.988 129.02 881.001 127.258C881.026 122.092 881.069 116.926 881.234 111.765C881.306 108.9 881.64 106.043 881.877 103Z" fill="#6046BB"/>
<path d="M871.999 193.069C872.02 194.356 871.497 195.59 870.564 196.455C869.791 197.149 868.797 197.14 867.851 196.653C866.809 196.126 865.974 195.671 866.001 194.332C866.006 192.825 866.715 191.412 867.909 190.527C869.468 189.332 871.496 190.27 871.924 192.33C871.962 192.575 871.987 192.822 871.999 193.069Z" fill="#2B1E4A"/>
<path d="M852 191.091C851.904 191.686 852 192.162 851.89 192.598C851.729 193.345 851.108 193.902 850.352 193.978C849.599 194.1 848.857 193.706 848.532 193.013C847.942 191.841 847.838 190.483 848.243 189.235C848.49 188.52 849.147 188.031 849.899 188.001C850.651 187.972 851.344 188.409 851.645 189.102C851.904 189.768 851.86 190.5 852 191.091Z" fill="#2B1E4A"/>
<path d="M188.976 329.431C189.106 327.675 189.964 325.047 190.377 323.696C191.029 321.568 191.738 319.452 192.541 317.378C193.149 315.81 193.904 314.298 194.66 312.796C195.834 310.439 197.287 308.235 198.987 306.231C199.601 305.514 200.167 304.743 200.849 304.098C201.735 303.223 202.688 302.404 203.65 301.607C203.945 301.354 204.005 301.178 203.842 300.836C203.16 299.402 202.467 297.971 201.838 296.513C200.976 294.513 200.123 292.504 199.35 290.466C198.526 288.297 197.75 286.103 197.045 283.89C196.37 281.771 195.76 279.631 195.215 277.471C194.624 275.111 194.099 272.731 193.6 270.347C193.358 269.192 193.24 268.014 193.069 266.845C192.939 265.952 192.8 265.059 192.685 264.166C192.608 263.571 192.561 262.991 192.517 262.402C192.455 261.575 192.44 260.744 192.355 259.92C192.077 257.242 192.248 254.564 192.242 251.886C192.242 250.695 192.405 249.526 192.493 248.348C192.544 247.735 192.606 247.122 192.641 246.509C192.826 243.986 193.15 241.475 193.612 238.989C194.123 236.052 194.804 233.148 195.652 230.291C196.49 227.345 197.577 224.477 198.898 221.718C200.125 219.076 201.616 216.567 203.349 214.231C204.415 212.833 205.678 211.6 207.098 210.571C207.261 210.474 207.429 210.386 207.602 210.309C207.774 210.596 207.926 210.895 208.06 211.202C208.536 212.565 208.877 213.972 209.078 215.403C209.442 217.76 209.81 220.116 210.182 222.471C210.522 224.619 210.899 226.759 211.197 228.91C211.44 230.642 211.584 232.386 211.773 234.124C211.956 235.817 212.16 237.507 212.316 239.2C212.408 240.188 212.443 241.185 212.473 242.176C212.738 250.901 212.591 259.629 212.602 268.362C212.602 269.612 212.434 270.862 212.349 272.112C212.295 272.867 212.246 273.623 212.201 274.379C212.145 275.325 212.115 276.275 212.042 277.218C211.983 277.971 211.87 278.706 211.794 279.471C211.732 280.036 211.682 280.601 211.637 281.167C211.534 282.44 211.454 283.717 211.342 284.988C211.23 286.211 211.068 287.431 210.947 288.651C210.873 289.407 210.843 290.162 210.781 290.918C210.702 291.909 210.607 292.897 210.527 293.894C210.466 294.65 210.418 295.406 210.362 296.161C210.318 296.774 210.271 297.387 210.232 298C210.232 298.132 210.242 298.263 210.262 298.393C212.003 297.977 213.692 297.5 215.403 297.176C217.15 296.81 218.934 296.662 220.716 296.736C220.716 296.623 220.657 296.53 220.684 296.474C221.345 295.087 221.466 293.546 221.918 292.097C222.39 290.582 222.777 289.04 223.252 287.529C224.025 285.062 224.804 282.598 225.651 280.155C226.619 277.358 227.617 274.567 228.694 271.808C229.842 268.841 231.179 265.952 232.7 263.161C234.122 260.566 235.651 258.025 237.171 255.492C239.252 252.043 241.599 248.785 243.987 245.538C244.698 244.568 245.504 243.667 246.28 242.747C247.407 241.414 248.544 240.086 249.689 238.763C249.904 238.513 250.152 238.29 250.377 238.046C250.94 237.45 251.472 236.799 252.062 236.224C253.198 235.123 254.361 234.046 255.527 232.978C256.242 232.323 256.956 231.666 257.717 231.076C259.06 230.038 260.421 229.02 261.814 228.05C262.8 227.363 263.857 226.78 264.869 226.134C265.154 225.898 265.568 225.907 265.843 226.155C266.138 226.476 266.563 226.75 266.383 227.366C265.884 229.044 265.462 230.746 264.978 232.424C264.343 234.632 263.69 236.835 263.021 239.034C262.41 241.177 261.663 243.278 260.784 245.324C259.183 248.787 257.76 252.331 256.522 255.942C255.666 258.504 254.681 261.021 253.57 263.482C252.469 265.949 251.472 268.46 250.403 270.939C249.813 272.311 249.208 273.683 248.517 275.004C248.099 275.718 247.622 276.394 247.092 277.028C245.206 279.512 243.302 281.982 241.419 284.467C240.362 285.859 239.353 287.285 238.287 288.677C237.316 289.954 236.295 291.198 235.335 292.477C234.276 293.882 233.016 295.099 231.864 296.414C231.197 297.176 230.578 297.98 229.943 298.771C229.843 298.903 229.756 299.045 229.683 299.194C229.403 299.735 229.412 299.774 229.931 300.086C231.133 300.84 232.195 301.8 233.069 302.922C234.267 304.365 235.214 305.978 236.23 307.546C237.245 309.115 238.379 310.725 239.426 312.328C240.844 314.488 242.105 316.749 243.198 319.092C244.477 321.836 245.511 324.689 246.289 327.618C246.318 327.781 246.611 329.426 246.453 328.792C218.735 343.043 189.37 329.163 188.976 329.431Z" fill="#D7CDF9"/>
<path d="M190.712 328.33C191.776 328.962 192.912 329.872 194.08 330.276C195.659 330.879 197.224 331.497 198.809 332.063C199.632 332.365 200.489 332.548 201.334 332.774C202.794 333.16 204.257 333.561 205.726 333.907C206.348 334.044 206.981 334.127 207.617 334.155C208.893 334.23 210.187 334.155 211.448 334.338C212.958 334.555 214.472 334.489 215.977 334.625C217.901 334.799 219.819 334.712 221.737 334.724C222.606 334.724 223.474 334.561 224.342 334.48C225.023 334.414 225.707 334.369 226.391 334.305C227.188 334.236 227.988 334.124 228.788 334.091C230.763 334.01 232.544 333.163 234.418 332.672C235.033 332.512 235.655 332.371 236.279 332.238C237.469 332.003 238.545 331.403 239.687 331.014C240.092 330.876 240.481 330.695 240.892 330.574C242.823 329.988 244.691 329.204 246.465 328.233C246.691 329.155 246.938 330.074 247.143 331.002C247.312 331.771 247.44 332.551 247.574 333.326C247.586 333.493 247.586 333.662 247.574 333.829C235.165 336.287 193.636 335.698 188.615 333.082C187.617 333.169 188.789 329.952 189.075 328.471C189.102 328.293 190.192 328.042 190.712 328.33Z" fill="#C9BEF3"/>
<path d="M256.44 239.104C256.666 239.401 256.59 239.698 256.549 239.995C256.294 241.778 255.731 243.502 255.18 245.214C253.72 249.625 251.993 253.941 250.008 258.136C248.203 262.047 246.472 265.994 244.705 269.926C242.208 275.532 239.424 281.002 236.365 286.313C234.941 288.771 233.496 291.211 231.747 293.446C230.415 295.158 229.096 296.882 227.791 298.62C227.512 299.05 226.993 299.252 226.502 299.122C226.06 299.017 225.627 298.878 225.207 298.706C224.952 298.611 224.591 298.302 224.65 298.029C225.133 295.856 225.561 293.669 226.115 291.511C227.051 287.809 228.316 284.202 229.895 280.732C233.486 272.836 237.716 265.257 242.542 258.071C245.875 253.072 249.323 248.158 252.886 243.33C253.627 242.322 254.319 241.273 255.04 240.251C255.388 239.739 255.874 239.341 256.44 239.104Z" fill="#6046BB"/>
<path d="M206.248 299.888C205.798 298.739 205.303 297.987 204.901 296.88C203.135 292.066 201.918 287.105 200.881 282.093C200.32 279.386 199.795 276.678 199.381 273.97C199.082 272.006 198.89 270.017 198.743 268.031C198.449 264.128 198.36 260.211 198.476 256.298C198.562 252.48 198.873 248.671 199.405 244.89C199.923 241.201 200.866 237.586 202.218 234.116C202.428 233.587 202.68 233.076 202.928 232.522C203.345 232.762 203.626 233.182 203.69 233.659C204.247 236.266 204.567 238.919 204.646 241.584C204.722 245.164 204.822 248.743 204.946 252.321C205.051 255.329 205.246 258.362 205.585 261.371C205.789 263.176 205.939 265.005 206.068 266.825C206.242 269.316 206.367 271.81 206.514 274.301C206.692 277.875 207.057 281.437 207.609 284.972C208.183 288.63 208.377 292.337 208.187 296.035C208.139 296.97 208.121 297.906 208.097 298.845C208.074 299.729 208.068 299.747 207.234 299.973C206.916 300.039 206.664 299.78 206.248 299.888Z" fill="#6046BB"/>
<path d="M204.236 328.16C204.037 326.86 204.397 325.942 205.068 324.908C205.462 324.299 206.099 323.909 206.799 323.85C207.5 323.791 208.188 324.068 208.67 324.603C208.924 324.894 209.128 325.229 209.272 325.593C209.916 327.234 210.067 329.041 209.704 330.774C209.391 332.287 208.438 332.969 207.085 332.885C205.812 332.778 204.738 331.85 204.394 330.562C204.288 330.182 204.212 329.794 204.17 329.4C204.134 329.049 204.236 328.506 204.236 328.16Z" fill="#2B1E4A"/>
<path d="M229.559 329.04C229.436 329.774 229.301 330.657 229.146 331.385C228.941 332.215 228.477 332.939 227.835 333.426C227.68 333.535 227.505 333.603 227.323 333.627C227.091 333.66 226.857 333.681 226.623 333.688C225.473 333.875 224.385 333.057 224.121 331.806C223.573 329.736 223.828 327.717 224.525 325.754C224.713 325.284 224.988 324.862 225.332 324.515C226.275 323.509 227.604 323.632 228.259 324.877C228.956 326.187 229.573 327.423 229.559 329.04Z" fill="#2B1E4A"/>
<defs>
<linearGradient id="paint0_linear" x1="369.115" y1="190.115" x2="141.677" y2="190.115" gradientUnits="userSpaceOnUse">
<stop stop-color="#37DD9E"/>
<stop offset="1" stop-color="#E8DDFD"/>
</linearGradient>
<linearGradient id="paint1_linear" x1="420.547" y1="245.173" x2="285.682" y2="245.173" gradientUnits="userSpaceOnUse">
<stop offset="0.0114812" stop-color="#37DD9E"/>
<stop offset="1" stop-color="#E8DDFD"/>
</linearGradient>
<linearGradient id="paint2_linear" x1="400.866" y1="132.557" x2="323.013" y2="132.557" gradientUnits="userSpaceOnUse">
<stop offset="0.0114812" stop-color="#37DD9E"/>
<stop offset="1" stop-color="#E8DDFD"/>
</linearGradient>
<linearGradient id="paint3_linear" x1="572.91" y1="191.943" x2="804.566" y2="191.943" gradientUnits="userSpaceOnUse">
<stop stop-color="#37DD9E"/>
<stop offset="1" stop-color="#E8DDFD"/>
</linearGradient>
<linearGradient id="paint4_linear" x1="523.986" y1="246.173" x2="658.903" y2="246.173" gradientUnits="userSpaceOnUse">
<stop stop-color="#37DD9E"/>
<stop offset="1" stop-color="#E8DDFD"/>
</linearGradient>
<linearGradient id="paint5_linear" x1="543.666" y1="134.304" x2="621.555" y2="134.304" gradientUnits="userSpaceOnUse">
<stop stop-color="#37DD9E"/>
<stop offset="1" stop-color="#E8DDFD"/>
</linearGradient>
<linearGradient id="paint6_linear" x1="409.122" y1="212.567" x2="409.138" y2="251.72" gradientUnits="userSpaceOnUse">
<stop stop-color="#5E5544"/>
<stop offset="1" stop-color="#383837"/>
</linearGradient>
<linearGradient id="paint7_linear" x1="170.201" y1="301.679" x2="170.213" y2="331.852" gradientUnits="userSpaceOnUse">
<stop stop-color="#5E5544"/>
<stop offset="1" stop-color="#383837"/>
</linearGradient>
<linearGradient id="paint8_linear" x1="268.004" y1="112.094" x2="268.013" y2="132.599" gradientUnits="userSpaceOnUse">
<stop stop-color="#5E5544"/>
<stop offset="1" stop-color="#383837"/>
</linearGradient>
<linearGradient id="paint9_linear" x1="609.148" y1="112.094" x2="609.156" y2="132.599" gradientUnits="userSpaceOnUse">
<stop stop-color="#5E5544"/>
<stop offset="1" stop-color="#383837"/>
</linearGradient>
<linearGradient id="paint10_linear" x1="827.055" y1="173.727" x2="827.065" y2="198.138" gradientUnits="userSpaceOnUse">
<stop stop-color="#5E5544"/>
<stop offset="1" stop-color="#383837"/>
</linearGradient>
<linearGradient id="paint11_linear" x1="37.6078" y1="173.727" x2="37.6178" y2="198.138" gradientUnits="userSpaceOnUse">
<stop stop-color="#5E5544"/>
<stop offset="1" stop-color="#383837"/>
</linearGradient>
<linearGradient id="paint12_linear" x1="674.543" y1="301.679" x2="674.555" y2="331.852" gradientUnits="userSpaceOnUse">
<stop stop-color="#5E5544"/>
<stop offset="1" stop-color="#383837"/>
</linearGradient>
</defs>
</svg>
