<?xml version="1.0" encoding="utf-8"?>
<!-- Generator: Adobe Illustrator 25.0.0, SVG Export Plug-In . SVG Version: 6.00 Build 0)  -->
<svg version="1.1" id="Layer_1" xmlns="http://www.w3.org/2000/svg" xmlns:xlink="http://www.w3.org/1999/xlink" x="0px" y="0px"
	 viewBox="0 0 1502 680" style="enable-background:new 0 0 1502 680;" xml:space="preserve">
<style type="text/css">
	.st0{fill:none;stroke:#E7EAF4;stroke-width:2;}
	.st1{fill:none;stroke:#C8F4FA;stroke-width:2;}
	.st2{fill:none;stroke:#E8DDFD;stroke-width:2;}
</style>
<path class="st0" d="M235,3.8c2.8-1.6,6.2-1.6,9,0l117.7,68c2.8,1.6,4.5,4.6,4.5,7.8v136c0,3.2-1.7,6.2-4.5,7.8l-117.7,68
	c-2.8,1.6-6.2,1.6-9,0l-117.7-68c-2.8-1.6-4.5-4.6-4.5-7.8v-136c0-3.2,1.7-6.2,4.5-7.8L235,3.8z"/>
<path class="st1" d="M1376.3,273.9c2.8-1.6,6.2-1.6,9,0l107.5,62.1c2.8,1.6,4.5,4.6,4.5,7.8v124.1c0,3.2-1.7,6.2-4.5,7.8
	l-107.5,62.1c-2.8,1.6-6.2,1.6-9,0l-107.5-62.1c-2.8-1.6-4.5-4.6-4.5-7.8V343.8c0-3.2,1.7-6.2,4.5-7.8L1376.3,273.9z"/>
<path class="st2" d="M105.1,155.1c2.8-1.6,6.2-1.6,9,0l65.3,37.7c2.8,1.6,4.5,4.6,4.5,7.8V276c0,3.2-1.7,6.2-4.5,7.8l-65.3,37.7
	c-2.8,1.6-6.2,1.6-9,0l-65.3-37.7c-2.8-1.6-4.5-4.6-4.5-7.8v-75.4c0-3.2,1.7-6.2,4.5-7.8L105.1,155.1z"/>
<path class="st0" d="M177.3,249c2.8-1.6,6.2-1.6,9,0l34.4,19.9c2.8,1.6,4.5,4.6,4.5,7.8v39.8c0,3.2-1.7,6.2-4.5,7.8l-34.4,19.9
	c-2.8,1.6-6.2,1.6-9,0l-34.4-19.9c-2.8-1.6-4.5-4.6-4.5-7.8v-39.8c0-3.2,1.7-6.2,4.5-7.8L177.3,249z"/>
<path class="st0" d="M1250,276.9c2.8-1.6,6.2-1.6,9,0l34.4,19.9c2.8,1.6,4.5,4.6,4.5,7.8v39.8c0,3.2-1.7,6.2-4.5,7.8l-34.4,19.9
	c-2.8,1.6-6.2,1.6-9,0l-34.4-19.9c-2.8-1.6-4.5-4.6-4.5-7.8v-39.8c0-3.2,1.7-6.2,4.5-7.8L1250,276.9z"/>
<path class="st1" d="M23.6,89.6c1.5-0.9,3.5-0.9,5,0l16.6,9.6c1.5,0.9,2.5,2.5,2.5,4.3v19.2c0,1.8-1,3.4-2.5,4.3l-16.6,9.6
	c-1.5,0.9-3.5,0.9-5,0L7,127c-1.5-0.9-2.5-2.5-2.5-4.3v-19.2c0-1.8,1-3.4,2.5-4.3L23.6,89.6z"/>
<path class="st2" d="M1206.7,517.8c1.6-0.9,3.5-0.9,5,0l16.6,9.6c1.6,0.9,2.5,2.5,2.5,4.3v19.2c0,1.8-0.9,3.4-2.5,4.3l-16.6,9.6
	c-1.5,0.9-3.4,0.9-5,0l-16.6-9.6c-1.6-0.9-2.5-2.5-2.5-4.3v-19.2c0-1.8,0.9-3.4,2.5-4.3L1206.7,517.8z"/>
</svg>
