<svg width="365" height="346" viewBox="0 0 365 346" fill="none" xmlns="http://www.w3.org/2000/svg">
	<path d="M232 2.75278C234.785 1.14508 238.215 1.14508 241 2.75278L358.739 70.7293C361.523 72.337 363.239 75.3081 363.239 78.5235V214.477C363.239 217.692 361.523 220.663 358.739 222.271L241 290.247C238.215 291.855 234.785 291.855 232 290.247L114.261 222.271C111.477 220.663 109.761 217.692 109.761 214.477V78.5235C109.761 75.3081 111.477 72.337 114.261 70.7293L232 2.75278Z" stroke="#E7EAF4" stroke-width="2" />
	<path d="M102.093 154.097C104.878 152.489 108.309 152.489 111.093 154.097L176.42 191.813C179.204 193.42 180.92 196.391 180.92 199.607V275.039C180.92 278.254 179.204 281.226 176.42 282.833L111.093 320.549C108.309 322.157 104.878 322.157 102.093 320.549L36.7673 282.833C33.9826 281.226 32.2673 278.254 32.2673 275.039V199.607C32.2673 196.391 33.9826 193.42 36.7673 191.813L102.093 154.097Z" stroke="#E8DDFD" stroke-width="2" />
	<path d="M174.286 248.034C177.071 246.426 180.502 246.426 183.286 248.034L217.729 267.919C220.514 269.527 222.229 272.498 222.229 275.714V315.484C222.229 318.7 220.514 321.671 217.729 323.279L183.286 343.164C180.502 344.772 177.071 344.772 174.286 343.164L139.844 323.279C137.059 321.671 135.344 318.7 135.344 315.484V275.714C135.344 272.498 137.059 269.527 139.844 267.919L174.286 248.034Z" stroke="#E7EAF4" stroke-width="2" />
	<path d="M20.5938 88.5772C22.1408 87.684 24.0467 87.684 25.5938 88.5772L42.1916 98.16C43.7386 99.0531 44.6916 100.704 44.6916 102.49V121.656C44.6916 123.442 43.7386 125.093 42.1916 125.986L25.5938 135.569C24.0467 136.462 22.1408 136.462 20.5938 135.569L3.9959 125.986C2.44889 125.093 1.4959 123.442 1.4959 121.656V102.49C1.4959 100.704 2.44889 99.0531 3.9959 98.16L20.5938 88.5772Z" stroke="#C8F4FA" stroke-width="2" />
</svg>
