<svg width="440" height="128" viewBox="0 0 440 128" fill="none" xmlns="http://www.w3.org/2000/svg">
<path fill-rule="evenodd" clip-rule="evenodd" d="M354.836 36.299L331.644 22.943C330.621 22.3541 329.361 22.3538 328.339 22.9424L305.152 36.2893C304.129 36.8779 303.5 37.9658 303.5 39.1434L303.505 65.8463C303.505 67.0238 304.135 68.112 305.158 68.701L328.35 82.057C329.373 82.6459 330.633 82.6462 331.655 82.0576L354.842 68.7107C355.865 68.1221 356.495 67.0342 356.494 65.8566L356.489 39.1537C356.489 37.9762 355.859 36.888 354.836 36.299ZM354.423 37.0126C355.19 37.4543 355.663 38.2704 355.663 39.1536L355.668 65.8565C355.668 66.7396 355.196 67.5556 354.429 67.997L331.242 81.3439C330.475 81.7854 329.53 81.7852 328.763 81.3434L305.571 67.9874C304.804 67.5457 304.331 66.7296 304.331 65.8464L304.326 39.1435C304.326 38.2604 304.798 37.4444 305.565 37.003L328.752 23.6561C329.519 23.2146 330.464 23.2148 331.231 23.6565L354.423 37.0126Z" fill="#60EBFF"/>
<path fill-rule="evenodd" clip-rule="evenodd" d="M355.087 35.8651L331.895 22.5091C330.717 21.8306 329.265 21.8302 328.087 22.5084L304.9 35.8553C303.722 36.5335 302.997 37.7869 302.997 39.1435L303.002 65.8464C303.003 67.2029 303.729 68.4564 304.907 69.1349L328.099 82.4909C329.277 83.1694 330.729 83.1697 331.907 82.4916L355.094 69.1447C356.272 68.4665 356.997 67.2131 356.997 65.8566L356.992 39.1536C356.992 37.7971 356.266 36.5436 355.087 35.8651ZM329.015 80.9095L305.822 67.5535C305.211 67.2013 304.834 66.5505 304.834 65.8463L304.829 39.1434C304.829 38.4393 305.205 37.7889 305.816 37.437L329.003 24.0901C329.615 23.7382 330.368 23.7383 330.979 24.0905L354.172 37.4465C354.783 37.7987 355.16 38.4495 355.16 39.1537L355.165 65.8566C355.166 66.5607 354.789 67.2111 354.178 67.563L330.991 80.9099C330.38 81.2618 329.626 81.2617 329.015 80.9095ZM331.644 22.943L354.836 36.299C355.859 36.888 356.489 37.9762 356.489 39.1537L356.494 65.8566C356.495 67.0342 355.865 68.1221 354.842 68.7107L331.655 82.0576C330.633 82.6462 329.373 82.6459 328.35 82.057L305.158 68.701C304.135 68.112 303.505 67.0238 303.505 65.8463L303.5 39.1434C303.5 37.9658 304.129 36.8779 305.152 36.2893L328.339 22.9424C329.361 22.3538 330.621 22.3541 331.644 22.943ZM355.663 39.1536C355.663 38.2704 355.19 37.4543 354.423 37.0126L331.231 23.6565C330.464 23.2148 329.519 23.2146 328.752 23.6561L305.565 37.003C304.798 37.4444 304.326 38.2604 304.326 39.1435L304.331 65.8464C304.331 66.7296 304.804 67.5457 305.571 67.9874L328.763 81.3434C329.53 81.7852 330.475 81.7854 331.242 81.3439L354.429 67.997C355.196 67.5556 355.668 66.7396 355.668 65.8565L355.663 39.1536Z" fill="#60EBFF"/>
<path fill-rule="evenodd" clip-rule="evenodd" d="M278.489 105.836L278.496 69.1471C278.496 67.9653 277.867 66.8734 276.846 66.2827L245.155 47.9444C244.134 47.3537 242.876 47.3539 241.855 47.945L210.157 66.2958C209.136 66.8869 208.507 67.9791 208.507 69.1609L208.499 105.85C208.499 107.032 209.128 108.124 210.149 108.714L241.84 127.053C242.861 127.643 244.119 127.643 245.14 127.052L276.838 108.701C277.859 108.11 278.488 107.018 278.489 105.836ZM277.664 105.836C277.663 106.723 277.192 107.542 276.426 107.985L244.727 126.336C243.962 126.779 243.018 126.779 242.253 126.336L210.561 107.998C209.796 107.555 209.324 106.736 209.324 105.85L209.332 69.1607C209.332 68.2744 209.804 67.4552 210.569 67.0119L242.268 48.6611C243.034 48.2178 243.977 48.2176 244.743 48.6607L276.434 66.9989C277.199 67.442 277.671 68.2609 277.671 69.1473L277.664 105.836Z" fill="#EB53E2"/>
<path fill-rule="evenodd" clip-rule="evenodd" d="M278.99 105.836L278.998 69.1472C278.998 67.7857 278.274 66.5277 277.097 65.8471L245.406 47.5088C244.23 46.8282 242.781 46.8285 241.604 47.5095L209.906 65.8602C208.73 66.5412 208.005 67.7993 208.005 69.1608L207.998 105.85C207.997 107.211 208.722 108.469 209.898 109.15L241.589 127.488C242.765 128.169 244.214 128.169 245.391 127.488L277.089 109.137C278.265 108.456 278.99 107.198 278.99 105.836ZM277.162 105.836C277.162 106.543 276.785 107.196 276.175 107.55L244.476 125.9C243.866 126.254 243.114 126.254 242.503 125.901L210.812 107.563C210.202 107.209 209.826 106.557 209.826 105.85L209.833 69.1608C209.834 68.4541 210.21 67.8009 210.82 67.4475L242.519 49.0967C243.129 48.7432 243.881 48.7431 244.492 49.0963L276.183 67.4345C276.793 67.7877 277.169 68.4405 277.169 69.1472L277.162 105.836ZM278.496 69.1471L278.489 105.836C278.488 107.018 277.859 108.11 276.838 108.701L245.14 127.052C244.119 127.643 242.861 127.643 241.84 127.053L210.149 108.714C209.128 108.124 208.499 107.032 208.499 105.85L208.507 69.1609C208.507 67.9791 209.136 66.8869 210.157 66.2958L241.855 47.945C242.876 47.3539 244.134 47.3537 245.155 47.9444L276.846 66.2827C277.867 66.8734 278.496 67.9653 278.496 69.1471ZM276.426 107.985C277.192 107.542 277.663 106.723 277.664 105.836L277.671 69.1473C277.671 68.2609 277.199 67.442 276.434 66.9989L244.743 48.6607C243.977 48.2176 243.034 48.2178 242.268 48.6611L210.569 67.0119C209.804 67.4552 209.332 68.2744 209.332 69.1607L209.324 105.85C209.324 106.736 209.796 107.555 210.561 107.998L242.253 126.336C243.018 126.779 243.962 126.779 244.727 126.336L276.426 107.985Z" fill="#EB53E2"/>
<path fill-rule="evenodd" clip-rule="evenodd" d="M201.495 40.5055L201.5 15.485C201.5 14.6 201.031 13.7823 200.269 13.3399L178.735 0.833863C177.974 0.391504 177.035 0.391688 176.273 0.834349L154.735 13.3489C153.973 13.7915 153.503 14.6094 153.503 15.4944L153.498 40.515C153.498 41.4 153.967 42.2177 154.729 42.6601L176.263 55.1661C177.024 55.6085 177.963 55.6083 178.725 55.1656L200.263 42.6511C201.025 42.2085 201.495 41.3906 201.495 40.5055ZM200.674 40.5057C200.674 41.0957 200.361 41.641 199.853 41.9361L178.315 54.4506C177.807 54.7457 177.181 54.7459 176.673 54.4509L155.139 41.9449C154.632 41.65 154.319 41.1049 154.319 40.5149L154.324 15.4943C154.324 14.9043 154.637 14.359 155.145 14.0639L176.683 1.54937C177.191 1.25427 177.817 1.25414 178.325 1.54905L199.859 14.0551C200.366 14.35 200.679 14.8951 200.679 15.4851L200.674 40.5057Z" fill="#EB53E2"/>
<path fill-rule="evenodd" clip-rule="evenodd" d="M201.994 40.5056L201.999 15.4851C201.999 14.4207 201.435 13.4371 200.519 12.905L178.985 0.398926C178.069 -0.133202 176.94 -0.132927 176.024 0.399459L154.485 12.914C153.569 13.4464 153.004 14.43 153.004 15.4944L152.999 40.5149C152.999 41.5793 153.563 42.5629 154.479 43.095L176.013 55.6011C176.929 56.1332 178.058 56.1329 178.974 55.6005L200.513 43.086C201.429 42.5536 201.994 41.57 201.994 40.5056ZM200.175 40.5056C200.175 40.9163 199.957 41.2958 199.603 41.5012L178.065 54.0157C177.711 54.2211 177.276 54.2211 176.923 54.016L155.389 41.51C155.036 41.3048 154.818 40.9256 154.818 40.515L154.823 15.4944C154.823 15.0837 155.041 14.7042 155.395 14.4988L176.933 1.98426C177.287 1.77888 177.722 1.77885 178.075 1.98399L199.609 14.49C199.962 14.6952 200.18 15.0744 200.18 15.485L200.175 40.5056ZM201.5 15.485L201.495 40.5055C201.495 41.3906 201.025 42.2085 200.263 42.6511L178.725 55.1656C177.963 55.6083 177.024 55.6085 176.263 55.1661L154.729 42.6601C153.967 42.2177 153.498 41.4 153.498 40.515L153.503 15.4944C153.503 14.6094 153.973 13.7915 154.735 13.3489L176.273 0.834349C177.035 0.391688 177.974 0.391504 178.735 0.833863L200.269 13.3399C201.031 13.7823 201.5 14.6 201.5 15.485ZM199.853 41.9361C200.361 41.641 200.674 41.0957 200.674 40.5057L200.679 15.4851C200.679 14.8951 200.366 14.35 199.859 14.0551L178.325 1.54905C177.817 1.25414 177.191 1.25427 176.683 1.54937L155.145 14.0639C154.637 14.359 154.324 14.9043 154.324 15.4943L154.319 40.5149C154.319 41.1049 154.632 41.65 155.139 41.9449L176.673 54.4509C177.181 54.7459 177.807 54.7457 178.315 54.4506L199.853 41.9361Z" fill="#EB53E2"/>
<path fill-rule="evenodd" clip-rule="evenodd" d="M25.5956 52.9065L25.6132 40.0576C25.6138 39.6031 25.3679 39.1835 24.9681 38.9568L13.6648 32.5473C13.265 32.3206 12.772 32.3212 12.3715 32.549L1.05061 38.9885C0.650167 39.2162 0.403098 39.6365 0.402476 40.091L0.384846 52.94C0.384221 53.3944 0.630135 53.8141 1.02995 54.0408L12.3333 60.4503C12.7331 60.677 13.2261 60.6763 13.6265 60.4486L24.9474 54.0091C25.3479 53.7813 25.5949 53.361 25.5956 52.9065ZM25.1645 52.9071C25.1641 53.2101 24.9994 53.4903 24.7324 53.6421L13.4115 60.0816C13.1445 60.2335 12.8158 60.2339 12.5493 60.0827L1.246 53.6733C0.979451 53.5221 0.815508 53.2424 0.815924 52.9394L0.833552 40.0904C0.833969 39.7875 0.99868 39.5073 1.26564 39.3554L12.5866 32.916C12.8535 32.7641 13.1822 32.7637 13.4487 32.9148L24.752 39.3243C25.0186 39.4754 25.1825 39.7552 25.1821 40.0582L25.1645 52.9071Z" fill="#EB53E2"/>
<path fill-rule="evenodd" clip-rule="evenodd" d="M25.9814 52.907L25.999 40.0581C25.9998 39.4685 25.6807 38.9233 25.161 38.6286L13.8577 32.2191C13.338 31.9244 12.6977 31.9256 12.1782 32.2211L0.857245 38.6606C0.337849 38.956 0.0174609 39.501 0.0166544 40.0905L-0.000975021 52.9394C-0.00178535 53.5291 0.317343 54.0743 0.837042 54.369L12.1404 60.7784C12.66 61.0731 13.3003 61.072 13.8199 60.7765L25.1408 54.337C25.6602 54.0416 25.9806 53.4966 25.9814 52.907ZM24.7787 52.9066C24.7784 53.0746 24.687 53.23 24.539 53.3142L13.2181 59.7537C13.0702 59.8378 12.8889 59.8377 12.7422 59.7546L1.43891 53.3451C1.29224 53.2619 1.20152 53.1077 1.20175 52.9399L1.21938 40.091C1.21961 39.923 1.311 39.7675 1.459 39.6833L12.7799 33.2439C12.9278 33.1598 13.1092 33.1598 13.2558 33.243L24.5591 39.6524C24.7058 39.7356 24.7965 39.8898 24.7963 40.0577L24.7787 52.9066ZM25.6132 40.0576L25.5956 52.9065C25.5949 53.361 25.3479 53.7813 24.9474 54.0091L13.6265 60.4486C13.2261 60.6763 12.7331 60.677 12.3333 60.4503L1.02995 54.0408C0.630135 53.8141 0.384221 53.3944 0.384846 52.94L0.402476 40.091C0.403098 39.6365 0.650167 39.2162 1.05061 38.9885L12.3715 32.549C12.772 32.3212 13.265 32.3206 13.6648 32.5473L24.9681 38.9568C25.3679 39.1835 25.6138 39.6031 25.6132 40.0576ZM24.7324 53.6421C24.9994 53.4903 25.1641 53.2101 25.1645 52.9071L25.1821 40.0582C25.1825 39.7552 25.0186 39.4754 24.752 39.3243L13.4487 32.9148C13.1822 32.7637 12.8535 32.7641 12.5866 32.916L1.26564 39.3554C0.99868 39.5073 0.833969 39.7875 0.833552 40.0904L0.815924 52.9394C0.815508 53.2424 0.979451 53.5221 1.246 53.6733L12.5493 60.0827C12.8158 60.2339 13.1445 60.2335 13.4115 60.0816L24.7324 53.6421Z" fill="#EB53E2"/>
<path fill-rule="evenodd" clip-rule="evenodd" d="M139.522 92.9902L117.988 105.297C117.359 105.657 116.583 105.657 115.953 105.298L94.4561 93.0441C93.8259 92.6849 93.4379 92.0212 93.4387 91.3039L93.4669 66.7381C93.4678 66.0251 93.8526 65.3669 94.4776 65.0098L116.012 52.7027C116.641 52.3434 117.417 52.3433 118.047 52.7025L139.544 64.9559C140.174 65.3151 140.562 65.9788 140.561 66.6961L140.533 91.2619C140.532 91.9749 140.147 92.6331 139.522 92.9902ZM139.182 92.4122C139.599 92.1741 139.855 91.7353 139.856 91.26L139.884 66.6942C139.885 66.216 139.626 65.7735 139.206 65.534L117.709 53.2806C117.289 53.0412 116.772 53.0412 116.352 53.2808L94.8179 65.5878C94.4013 65.8259 94.1447 66.2647 94.1441 66.74L94.1159 91.3058C94.1154 91.784 94.374 92.2265 94.7941 92.466L116.291 104.719C116.711 104.959 117.228 104.959 117.648 104.719L139.182 92.4122Z" fill="#60EBFF"/>
<path fill-rule="evenodd" clip-rule="evenodd" d="M140.972 91.2624C140.971 92.1298 140.502 92.9306 139.742 93.3651L118.208 105.672C117.443 106.109 116.499 106.109 115.733 105.673L94.2367 93.4192C93.4709 92.9827 92.999 92.1759 93 91.3034L93.0282 66.7376C93.0292 65.8702 93.4975 65.0694 94.2579 64.6349L115.792 52.3279C116.557 51.8907 117.501 51.8908 118.267 52.3274L139.763 64.5808C140.529 65.0173 141.001 65.8241 141 66.6966L140.972 91.2624ZM138.962 92.0373C139.244 91.8765 139.417 91.5804 139.417 91.2595L139.445 66.6937C139.446 66.3707 139.271 66.0713 138.986 65.9092L117.49 53.6557C117.205 53.4936 116.855 53.4939 116.572 53.6557L95.0377 65.9627C94.7564 66.1234 94.5832 66.4196 94.5829 66.7405L94.5546 91.3063C94.5543 91.6293 94.729 91.9287 95.0135 92.0908L116.51 104.344C116.795 104.506 117.145 104.506 117.428 104.344L138.962 92.0373ZM117.988 105.297L139.522 92.9902C140.147 92.6331 140.532 91.9749 140.533 91.2619L140.561 66.6961C140.562 65.9788 140.174 65.3151 139.544 64.9559L118.047 52.7025C117.417 52.3433 116.641 52.3434 116.012 52.7027L94.4776 65.0098C93.8526 65.3669 93.4678 66.0251 93.4669 66.7381L93.4387 91.3039C93.4379 92.0212 93.8259 92.6849 94.4561 93.0441L115.953 105.298C116.583 105.657 117.359 105.657 117.988 105.297ZM139.856 91.26C139.855 91.7353 139.599 92.1741 139.182 92.4122L117.648 104.719C117.228 104.959 116.711 104.959 116.291 104.719L94.7941 92.466C94.374 92.2265 94.1154 91.784 94.1159 91.3058L94.1441 66.74C94.1447 66.2647 94.4013 65.8259 94.8179 65.5878L116.352 53.2808C116.772 53.0412 117.289 53.0412 117.709 53.2806L139.206 65.534C139.626 65.7735 139.885 66.216 139.884 66.6942L139.856 91.26Z" fill="#60EBFF"/>
<path fill-rule="evenodd" clip-rule="evenodd" d="M439.046 73.5665L425.138 81.5433C424.732 81.7762 424.231 81.7763 423.824 81.5435L409.94 73.6014C409.533 73.3686 409.283 72.9385 409.283 72.4735L409.302 56.5513C409.302 56.0891 409.551 55.6625 409.954 55.431L423.862 47.4543C424.268 47.2213 424.769 47.2213 425.176 47.4541L439.06 55.3961C439.467 55.6289 439.717 56.0591 439.717 56.524L439.698 72.4463C439.698 72.9084 439.449 73.335 439.046 73.5665ZM438.826 73.1919C439.095 73.0375 439.261 72.7531 439.261 72.4451L439.279 56.5228C439.28 56.2128 439.113 55.9261 438.841 55.7708L424.958 47.8288C424.687 47.6736 424.352 47.6736 424.082 47.8289L410.174 55.8057C409.905 55.96 409.739 56.2444 409.739 56.5525L409.721 72.4748C409.72 72.7847 409.887 73.0715 410.159 73.2267L424.042 81.1688C424.313 81.324 424.648 81.3239 424.918 81.1686L438.826 73.1919Z" fill="#EB53E2"/>
<path fill-rule="evenodd" clip-rule="evenodd" d="M439.982 72.4466C439.981 73.0088 439.679 73.5279 439.188 73.8095L425.28 81.7863C424.786 82.0696 424.177 82.0695 423.682 81.7866L409.799 73.8446C409.304 73.5616 408.999 73.0387 409 72.4732L409.018 56.5509C409.019 55.9887 409.321 55.4697 409.812 55.188L423.72 47.2113C424.214 46.928 424.823 46.928 425.318 47.211L439.201 55.153C439.696 55.4359 440.001 55.9588 440 56.5243L439.982 72.4466ZM438.684 72.9489C438.866 72.8447 438.978 72.6527 438.978 72.4447L438.996 56.5224C438.996 56.3131 438.883 56.1191 438.7 56.014L424.816 48.0719C424.633 47.9668 424.407 47.967 424.224 48.0719L410.316 56.0487C410.134 56.1529 410.022 56.3448 410.022 56.5528L410.004 72.4751C410.004 72.6844 410.117 72.8785 410.3 72.9836L424.184 80.9256C424.367 81.0307 424.593 81.0305 424.776 80.9257L438.684 72.9489ZM425.138 81.5433L439.046 73.5665C439.449 73.335 439.698 72.9084 439.698 72.4463L439.717 56.524C439.717 56.0591 439.467 55.6289 439.06 55.3961L425.176 47.4541C424.769 47.2213 424.268 47.2213 423.862 47.4543L409.954 55.431C409.551 55.6625 409.302 56.0891 409.302 56.5513L409.283 72.4735C409.283 72.9385 409.533 73.3686 409.94 73.6014L423.824 81.5435C424.231 81.7763 424.732 81.7762 425.138 81.5433ZM439.261 72.4451C439.261 72.7531 439.095 73.0375 438.826 73.1919L424.918 81.1686C424.648 81.3239 424.313 81.324 424.042 81.1688L410.159 73.2267C409.887 73.0715 409.72 72.7847 409.721 72.4748L409.739 56.5525C409.739 56.2444 409.905 55.96 410.174 55.8057L424.082 47.8289C424.352 47.6736 424.687 47.6736 424.958 47.8288L438.841 55.7708C439.113 55.9261 439.28 56.2128 439.279 56.5228L439.261 72.4451Z" fill="#EB53E2"/>
</svg>
