<svg width="309" height="47" viewBox="0 0 309 47" fill="none" xmlns="http://www.w3.org/2000/svg">
<path d="M65.7764 4.5002H77.1415C82.4803 4.5002 86.342 5.30439 88.7271 6.91275C91.112 8.52109 92.3045 11.063 92.3045 14.5386C92.3045 16.9419 91.6348 18.9292 90.2956 20.5007C88.9747 22.0534 87.0393 23.061 84.4891 23.5232V23.8005C90.5984 24.8542 93.6528 28.0894 93.6528 33.5062C93.6528 37.1295 92.433 39.9581 89.9928 41.9916C87.5712 44.0251 84.1772 45.0419 79.811 45.0419H65.7764V4.5002ZM70.4545 21.8594H78.1599C81.4621 21.8594 83.8379 21.3418 85.2871 20.3064C86.7365 19.2527 87.4612 17.4872 87.4612 15.01C87.4612 12.7361 86.6539 11.1 85.0395 10.1017C83.4251 9.08495 80.8567 8.57655 77.3343 8.57655H70.4545V21.8594ZM70.4545 25.8526V41.0211H78.8478C82.0951 41.0211 84.535 40.3924 86.1678 39.1354C87.819 37.8597 88.6445 35.8724 88.6445 33.1734C88.6445 30.6591 87.8005 28.8105 86.1127 27.6272C84.4433 26.4442 81.8932 25.8526 78.4625 25.8526H70.4545ZM123.721 29.818C123.721 34.7724 122.483 38.6454 120.006 41.437C117.529 44.21 114.108 45.5965 109.741 45.5965C107.045 45.5965 104.651 44.9587 102.559 43.6832C100.468 42.4076 98.8532 40.5773 97.7157 38.1924C96.5782 35.8078 96.0096 33.0162 96.0096 29.818C96.0096 24.8634 97.2388 21.0091 99.6972 18.2544C102.155 15.4814 105.568 14.0949 109.934 14.0949C114.154 14.0949 117.502 15.5091 119.978 18.3376C122.474 21.1661 123.721 24.9929 123.721 29.818ZM100.743 29.818C100.743 33.7002 101.513 36.6581 103.054 38.6916C104.596 40.7252 106.861 41.7419 109.852 41.7419C112.842 41.7419 115.108 40.7346 116.649 38.7194C118.208 36.6859 118.988 33.7186 118.988 29.818C118.988 25.9542 118.208 23.024 116.649 21.0275C115.108 19.0124 112.824 18.0049 109.796 18.0049C106.806 18.0049 104.55 18.9939 103.027 20.972C101.504 22.9501 100.743 25.8988 100.743 29.818ZM141.846 14.1504C145.809 14.1504 148.882 15.5184 151.065 18.2544C153.266 20.972 154.367 24.8264 154.367 29.818C154.367 34.8094 153.257 38.6916 151.037 41.4646C148.836 44.2192 145.772 45.5965 141.846 45.5965C139.883 45.5965 138.085 45.236 136.452 44.5151C134.838 43.7757 133.48 42.6479 132.379 41.1319H132.049L131.086 45.0419H127.811V1.89355H132.379V12.3756C132.379 14.7234 132.306 16.8309 132.159 18.6981H132.379C134.508 15.6663 137.663 14.1504 141.846 14.1504ZM141.186 18.0049C138.067 18.0049 135.819 18.9107 134.443 20.7223C133.067 22.5156 132.379 25.5475 132.379 29.818C132.379 34.0884 133.086 37.1481 134.499 38.9967C135.911 40.827 138.177 41.7419 141.296 41.7419C144.103 41.7419 146.194 40.716 147.57 38.664C148.946 36.5935 149.634 33.6262 149.634 29.7626C149.634 25.8064 148.946 22.8577 147.57 20.9166C146.194 18.9754 144.066 18.0049 141.186 18.0049ZM204.927 45.0419H200.304L192.186 17.8939C191.8 16.6923 191.369 15.1764 190.892 13.3462C190.415 11.516 190.168 10.416 190.149 10.0463C189.746 12.4865 189.104 15.1579 188.223 18.0603L180.353 45.0419H175.729L165.024 4.5002H169.978L176.335 29.5407C177.215 33.0532 177.857 36.2329 178.261 39.08C178.756 35.6967 179.49 32.3876 180.463 29.1524L187.673 4.5002H192.626L200.193 29.3743C201.073 32.2397 201.818 35.4749 202.422 39.08C202.772 36.4548 203.433 33.2565 204.404 29.4853L210.734 4.5002H215.686L204.927 45.0419ZM235.903 45.0419L234.995 40.716H234.776C233.27 42.62 231.765 43.9143 230.261 44.5982C228.776 45.2638 226.913 45.5965 224.676 45.5965C221.685 45.5965 219.337 44.82 217.631 43.2673C215.942 41.7143 215.099 39.5051 215.099 36.6397C215.099 30.5021 219.969 27.2853 229.711 26.9894L234.83 26.8231V24.9375C234.83 22.5526 234.317 20.7964 233.289 19.6688C232.28 18.5225 230.656 17.9494 228.419 17.9494C225.904 17.9494 223.061 18.7258 219.887 20.2788L218.484 16.757C219.969 15.9436 221.594 15.3058 223.354 14.8436C225.134 14.3814 226.913 14.1504 228.693 14.1504C232.288 14.1504 234.949 14.9545 236.674 16.5629C238.416 18.1712 239.288 20.7502 239.288 24.2996V45.0419H235.903ZM225.583 41.7975C228.427 41.7975 230.656 41.0119 232.271 39.4403C233.903 37.8689 234.719 35.6691 234.719 32.8405V30.0953L230.152 30.2894C226.518 30.4188 223.897 30.9918 222.282 32.0086C220.686 33.007 219.887 34.5691 219.887 36.6951C219.887 38.3589 220.383 39.6252 221.374 40.4941C222.383 41.363 223.786 41.7975 225.583 41.7975ZM249.349 45.0419H244.782V1.89355H249.349V45.0419ZM259.659 45.0419H255.092V1.89355H259.659V45.0419ZM278.143 45.5965C273.684 45.5965 270.161 44.2284 267.574 41.4924C265.007 38.7564 263.723 34.9573 263.723 30.0953C263.723 25.1962 264.916 21.3048 267.3 18.4208C269.702 15.5369 272.923 14.0949 276.959 14.0949C280.739 14.0949 283.728 15.352 285.93 17.8662C288.132 20.362 289.232 23.6618 289.232 27.7659V30.6775H268.455C268.548 34.2456 269.436 36.954 271.125 38.8027C272.831 40.6513 275.226 41.5757 278.308 41.5757C281.555 41.5757 284.766 40.8916 287.939 39.5235V43.6276C286.324 44.3303 284.793 44.8292 283.343 45.1251C281.913 45.4395 280.179 45.5965 278.143 45.5965ZM276.905 17.9494C274.483 17.9494 272.548 18.7443 271.098 20.3342C269.665 21.924 268.822 24.124 268.566 26.934H284.334C284.334 24.0315 283.691 21.8131 282.408 20.2788C281.124 18.7258 279.289 17.9494 276.905 17.9494ZM302.845 41.7975C303.652 41.7975 304.431 41.7419 305.183 41.6311C305.935 41.5016 306.532 41.3722 306.973 41.2429V44.7646C306.477 45.0049 305.743 45.199 304.771 45.347C303.817 45.5133 302.954 45.5965 302.184 45.5965C296.35 45.5965 293.433 42.5 293.433 36.307V18.2267H289.113V16.0083L293.433 14.0949L295.359 7.606H298V14.6495H306.751V18.2267H298V36.1127C298 37.943 298.432 39.3479 299.294 40.3278C300.157 41.3076 301.339 41.7975 302.845 41.7975Z" fill="white"/>
<path d="M10.2028 3.91699H0V45.042H5.10142V34.7607H10.2028V45.042H15.3042V34.7607H20.4057V45.042H25.5071V34.7607H30.6085V45.042H35.7099V34.7607H40.8113V29.6201H45.9127V14.1982H40.8113V3.91699H35.7099V9.05762H25.5071V3.91699H20.4057V14.1982H15.3042V19.3389H5.10142V9.05762H10.2028V3.91699Z" fill="#2E2E2E"/>
<path d="M30.6082 19.3389H25.5068V24.4795H30.6082V19.3389Z" fill="white"/>
<path d="M40.8114 19.3389H35.71V24.4795H40.8114V19.3389Z" fill="white"/>
</svg>
