<svg id="Layer_1" data-name="Layer 1" xmlns="http://www.w3.org/2000/svg" viewBox="0 0 512 512">
	<defs>
		<style>
			.cls-1{fill:#fff;}.cls-2{fill:#eb53e2;}
		</style>
	</defs>
	<rect class="cls-1" x="329.53" y="5.26" width="62.69" height="125.37" rx="26.51" />
	<rect class="cls-1" x="119.79" y="5.26" width="62.69" height="125.37" rx="26.51" />
	<path class="cls-1" d="M36.6,204.24V459.73a47,47,0,0,0,47,47H428.38a47,47,0,0,0,47-47V204.24ZM339.76,379h-60.3v60.3H232.54V379h-60.3V332h60.3v-60.3h46.92V332h60.3Z" />
	<path class="cls-2" d="M475.4,125.8v81.75a10.84,10.84,0,0,1-10.84,10.84H47.44A10.84,10.84,0,0,1,36.6,207.55V125.8A57.86,57.86,0,0,1,94.46,67.94H109a10.84,10.84,0,0,1,10.84,10.84v25.34a26.51,26.51,0,0,0,26.51,26.51H156a26.5,26.5,0,0,0,26.51-26.51V78.78a10.85,10.85,0,0,1,10.84-10.84H318.69a10.85,10.85,0,0,1,10.84,10.84v25.34A26.5,26.5,0,0,0,356,130.63h9.66a26.51,26.51,0,0,0,26.51-26.51V78.78a10.84,10.84,0,0,1,10.84-10.84h14.49A57.86,57.86,0,0,1,475.4,125.8Z" />
</svg>
