<svg width="700" height="240" viewBox="0 0 700 240" fill="none" xmlns="http://www.w3.org/2000/svg">
	<path d="M568.152 3.75278C570.936 2.14508 574.367 2.14508 577.152 3.75278L639.235 39.5964C642.019 41.2041 643.735 44.1752 643.735 47.3906V119.078C643.735 122.293 642.019 125.264 639.235 126.872L577.152 162.716C574.367 164.323 570.936 164.323 568.152 162.716L506.069 126.872C503.284 125.264 501.569 122.293 501.569 119.078V47.3906C501.569 44.1752 503.284 41.2041 506.069 39.5964L568.152 3.75278Z" stroke="#5F45BA" stroke-width="2" />
	<path d="M542.349 113.622C545.134 112.014 548.564 112.014 551.349 113.622L597.574 140.31C600.358 141.917 602.074 144.889 602.074 148.104V201.48C602.074 204.695 600.358 207.666 597.574 209.274L551.349 235.962C548.564 237.569 545.134 237.569 542.349 235.962L496.124 209.274C493.34 207.666 491.624 204.695 491.624 201.48V148.104C491.624 144.889 493.34 141.917 496.124 140.31L542.349 113.622Z" stroke="#8C61E1" stroke-width="2" />
	<path d="M643.062 76.1666C645.847 74.5589 649.278 74.5589 652.062 76.1666L678.104 91.2017C680.889 92.8093 682.604 95.7805 682.604 98.9959V129.066C682.604 132.281 680.889 135.253 678.104 136.86L652.062 151.895C649.278 153.503 645.847 153.503 643.062 151.895L617.021 136.86C614.236 135.253 612.521 132.281 612.521 129.066V98.9959C612.521 95.7805 614.236 92.8093 617.021 91.2017L643.062 76.1666Z" stroke="#AA7EFF" stroke-width="2" />
	<path d="M601.029 121.113C603.814 119.505 607.245 119.505 610.029 121.113L621.294 127.617C624.078 129.224 625.794 132.196 625.794 135.411V148.418C625.794 151.633 624.078 154.605 621.294 156.212L610.029 162.716C607.245 164.323 603.814 164.323 601.029 162.716L589.765 156.212C586.98 154.605 585.265 151.633 585.265 148.418V135.411C585.265 132.196 586.98 129.224 589.765 127.617L601.029 121.113Z" stroke="#4FE9FF" stroke-width="2" />
	<path d="M685.015 44.2153C686.562 43.3221 688.468 43.3221 690.015 44.2153L694.827 46.9937C696.374 47.8869 697.327 49.5375 697.327 51.3239V56.8808C697.327 58.6671 696.374 60.3178 694.827 61.2109L690.015 63.9894C688.468 64.8825 686.562 64.8825 685.015 63.9894L680.202 61.2109C678.655 60.3178 677.702 58.6671 677.702 56.8808V51.3239C677.702 49.5375 678.655 47.8869 680.202 46.9937L685.015 44.2153Z" stroke="#381E80" stroke-width="2" />
	<path d="M122.848 3.75278C125.633 2.14508 129.064 2.14508 131.848 3.75278L193.931 39.5964C196.716 41.2041 198.431 44.1752 198.431 47.3906V119.078C198.431 122.293 196.716 125.264 193.931 126.872L131.848 162.716C129.064 164.323 125.633 164.323 122.848 162.716L60.7654 126.872C57.9808 125.264 56.2654 122.293 56.2654 119.078V47.3906C56.2654 44.1752 57.9808 41.2041 60.7654 39.5964L122.848 3.75278Z" stroke="#5F45BA" stroke-width="2" />
	<path d="M141.16 113.622C143.945 112.014 147.375 112.014 150.16 113.622L196.385 140.31C199.169 141.917 200.885 144.889 200.885 148.104V201.48C200.885 204.695 199.169 207.666 196.385 209.274L150.16 235.962C147.375 237.569 143.945 237.569 141.16 235.962L94.9352 209.274C92.1506 207.666 90.4352 204.695 90.4352 201.48V148.104C90.4352 144.889 92.1506 141.917 94.9352 140.31L141.16 113.622Z" stroke="#8C61E1" stroke-width="2" />
	<path d="M47.9375 76.1666C50.7222 74.5589 54.153 74.5589 56.9376 76.1666L82.979 91.2017C85.7636 92.8093 87.479 95.7805 87.479 98.9959V129.066C87.479 132.281 85.7636 135.253 82.979 136.86L56.9376 151.895C54.153 153.503 50.7222 153.503 47.9376 151.895L21.8961 136.86C19.1115 135.253 17.3961 132.281 17.3961 129.066V98.9959C17.3961 95.7805 19.1115 92.8093 21.8961 91.2017L47.9375 76.1666Z" stroke="#AA7EFF" stroke-width="2" />
	<path d="M82.4798 121.113C85.2644 119.505 88.6952 119.505 91.4798 121.113L102.744 127.617C105.529 129.224 107.244 132.196 107.244 135.411V148.418C107.244 151.633 105.529 154.605 102.744 156.212L91.4798 162.716C88.6952 164.323 85.2644 164.323 82.4798 162.716L71.2153 156.212C68.4307 154.605 66.7153 151.633 66.7153 148.418V135.411C66.7153 132.196 68.4307 129.224 71.2153 127.617L82.4798 121.113Z" stroke="#4FE9FF" stroke-width="2" />
	<path d="M9.98514 44.2153C11.5321 43.3221 13.4381 43.3221 14.9851 44.2153L19.7976 46.9937C21.3446 47.8869 22.2976 49.5375 22.2976 51.3239V56.8808C22.2976 58.6671 21.3446 60.3178 19.7976 61.2109L14.9851 63.9894C13.4381 64.8825 11.5321 64.8825 9.98514 63.9894L5.17269 61.2109C3.62569 60.3178 2.67269 58.6671 2.67269 56.8808V51.3239C2.67269 49.5375 3.62569 47.8869 5.17269 46.9937L9.98514 44.2153Z" stroke="#381E80" stroke-width="2" />
</svg>
