<svg width="85" height="27" viewBox="0 0 85 27" fill="none" xmlns="http://www.w3.org/2000/svg">
	<path fill-rule="evenodd" clip-rule="evenodd" d="M22.431 8.99868L20.7869 6.1397L23.9721 6.14063C24.0572 6.14063 24.1564 6.19603 24.203 6.27083C24.2537 6.35256 24.5123 6.76995 24.8231 7.27138C25.195 7.87162 25.6397 8.58914 25.8941 8.99868H22.431ZM16.5397 26.3137C16.4626 26.449 16.3624 26.449 16.33 26.449H15.0287C14.3399 26.4485 13.5454 26.4481 13.0724 26.4481L18.1335 17.5539C18.2176 17.4062 18.2157 17.2261 18.1283 17.0802C18.0408 16.9343 17.8819 16.8447 17.7099 16.8447H17.7094L9.08374 16.8558L7.36867 13.9488H19.9322C19.9332 13.9488 19.9341 13.9483 19.9355 13.9483C19.9369 13.9483 19.9379 13.9488 19.9388 13.9488C19.9458 13.9488 19.9524 13.9465 19.9595 13.946C19.9877 13.9442 20.0159 13.9414 20.0427 13.9349C20.0634 13.9303 20.0836 13.9239 20.1038 13.9165C20.1146 13.9123 20.125 13.9082 20.1353 13.9035C20.2293 13.8625 20.3126 13.795 20.3657 13.6995L22.4366 9.95167H25.8555L16.5397 26.3137ZM12.2294 25.9757C12.1194 25.7984 11.9765 25.568 11.8209 25.3173C11.2976 24.4719 10.6272 23.3896 10.5515 23.271C10.5261 23.2308 10.5144 23.1329 10.5675 23.0396C10.6888 22.8263 12.9793 18.7876 13.5374 17.8032L16.8819 17.7991L12.2294 25.9757ZM6.52571 20.4097L4.86329 17.5184L6.53887 14.4438L8.21962 17.2921C7.6973 18.2548 6.88207 19.7563 6.52571 20.4097ZM4.29443 20.8598C3.44817 20.8598 2.60662 20.8594 2.48298 20.8594H2.48251C2.39976 20.8594 2.29962 20.8026 2.25402 20.7296L1.71289 19.8565C1.32737 19.2341 0.835608 18.4404 0.562927 18.0013H4.02598L5.66958 20.8603C5.31087 20.8603 4.80312 20.8598 4.29443 20.8598ZM9.9173 0.686772C9.9944 0.551025 10.0941 0.551025 10.1265 0.551025L13.3982 0.551487L8.32352 9.44563C8.31929 9.45302 8.31694 9.46087 8.31318 9.46871C8.30566 9.48349 8.29907 9.49873 8.29296 9.51442C8.28779 9.52966 8.28309 9.54444 8.27886 9.55967C8.2751 9.57399 8.27181 9.5883 8.26946 9.60261C8.26663 9.62062 8.26475 9.63817 8.26428 9.65571C8.26381 9.66356 8.26193 9.67095 8.26193 9.67926C8.26193 9.68526 8.26334 9.6908 8.26381 9.69681C8.26428 9.71435 8.26616 9.73143 8.26899 9.74852C8.27087 9.76283 8.27322 9.77714 8.27698 9.79146C8.28074 9.80669 8.28591 9.82101 8.29108 9.83578C8.29625 9.8501 8.30142 9.86487 8.30801 9.87872C8.31459 9.89257 8.32211 9.9055 8.3301 9.91889C8.3381 9.93182 8.34562 9.94475 8.35502 9.95722C8.36395 9.96968 8.3743 9.98123 8.38511 9.99323C8.39545 10.0043 8.4058 10.0159 8.41708 10.0265C8.42836 10.0366 8.44012 10.0454 8.45234 10.0546C8.46597 10.0653 8.47961 10.075 8.49418 10.0837C8.49982 10.087 8.50406 10.0911 8.5097 10.0943C8.51534 10.0976 8.52145 10.0985 8.52756 10.1013C8.55248 10.1137 8.57881 10.1244 8.60655 10.1327C8.61642 10.1354 8.62582 10.1391 8.63616 10.1414C8.67143 10.1498 8.70763 10.1548 8.74571 10.1548C8.74618 10.1548 8.74618 10.1553 8.74665 10.1553H8.74712H8.74759L8.96244 10.1548C8.96338 10.1548 8.96432 10.1553 8.96526 10.1553H8.96573L17.3746 10.1442C17.597 10.5228 18.0126 11.2353 18.3666 11.842C18.6384 12.3083 18.8631 12.6929 19.0399 12.9953H6.52665C6.52101 12.9953 6.51583 12.9972 6.51066 12.9977C6.34047 13.0004 6.17639 13.0886 6.08989 13.247L4.01845 17.0479H0.601949C2.09323 14.4281 9.81763 0.861302 9.9173 0.686772ZM14.2346 1.03537L14.5383 1.5248C15.0719 2.38637 15.8255 3.60254 15.9055 3.72905C15.9309 3.76922 15.9426 3.86665 15.889 3.96038L12.9191 9.19676L9.57597 9.20092L14.2346 1.03537ZM19.9299 6.58711L21.5932 9.4798L19.8974 12.5479C19.6953 12.2026 19.4442 11.7722 19.2087 11.3682C18.7432 10.5699 18.4038 9.98861 18.2124 9.66356C18.574 9.01577 19.5298 7.30186 19.9299 6.58711Z" fill="#60EBFF" />
	<path fill-rule="evenodd" clip-rule="evenodd" d="M29.3391 20.9388V13.8086H30.5437V16.6078C30.7126 16.3874 31.1742 15.9576 31.951 15.9576C32.8967 15.9576 33.7073 16.3543 33.7073 17.9302V20.9388H32.5027V18.1617C32.5027 17.3682 32.3338 16.9384 31.602 16.9384C31.0616 16.9384 30.7576 17.1478 30.5437 17.3792V20.9388H29.3391ZM37.0397 21.049C36.0715 21.049 35.2835 20.6302 35.2835 19.6604C35.2835 18.5364 36.308 18.2388 37.3325 18.2388C37.8503 18.2388 38.402 18.327 38.6947 18.4151V18.0184C38.6947 17.3902 38.5821 16.8943 37.6589 16.8943C36.9609 16.8943 36.5556 17.1698 36.5556 17.7429H35.4186C35.4186 16.4094 36.5331 15.9576 37.7378 15.9576C39.0325 15.9576 39.8993 16.4976 39.8993 17.8641V19.8808C39.8993 20.0682 39.9669 20.1343 40.1695 20.1343C40.3046 20.1343 40.5073 20.1012 40.6424 20.0682V20.8506C40.4397 20.9388 40.057 21.049 39.6854 21.049C39.055 21.049 38.8748 20.7294 38.8748 20.3657V20.2776C38.6159 20.5972 38.0642 21.049 37.0397 21.049ZM37.3212 20.1674C37.9517 20.1674 38.447 19.958 38.6947 19.7596V19.1425C38.4808 19.0874 38.0192 19.0433 37.5914 19.0433C36.9272 19.0433 36.4881 19.1645 36.4881 19.6274C36.4881 20.0021 36.7695 20.1674 37.3212 20.1674ZM41.9483 20.9388V16.0678H42.9954V16.729C43.2318 16.4094 43.6934 15.9576 44.5378 15.9576C45.4835 15.9576 46.3166 16.3543 46.3166 17.9302V20.9388H45.1119V18.1617C45.1119 17.3682 44.9431 16.9384 44.2113 16.9384C43.6709 16.9384 43.3669 17.1478 43.153 17.3792V20.9388H41.9483ZM49.9417 21.049C48.8384 21.049 47.8589 20.2996 47.8589 18.5033C47.8589 16.707 48.8609 15.9576 49.9417 15.9576C50.7298 15.9576 51.2252 16.3543 51.4278 16.5747V13.8086H52.6325V20.9388H51.5854V20.2996C51.3265 20.6412 50.7861 21.049 49.9417 21.049ZM50.3132 20.0682C50.8199 20.0682 51.1914 19.8588 51.4278 19.6384V17.3682C51.1914 17.1478 50.8199 16.9384 50.3132 16.9384C49.4576 16.9384 49.0974 17.5666 49.0974 18.5033C49.0974 19.44 49.4576 20.0682 50.3132 20.0682ZM56.708 21.049C55.3795 21.049 54.2874 20.6082 54.2536 19.407H55.4358C55.4808 19.9249 56.0212 20.1453 56.7755 20.1453C57.4623 20.1453 58.0027 20.0461 58.0027 19.5943C58.0027 19.1094 57.2483 19.0323 56.2464 18.8559C55.2782 18.6906 54.3437 18.4151 54.3437 17.3902C54.3437 16.3874 55.402 15.9576 56.6291 15.9576C57.8563 15.9576 58.9033 16.2772 58.9934 17.5004H57.8113C57.7325 16.9715 57.1583 16.8612 56.6404 16.8612C55.9536 16.8612 55.5709 16.9935 55.5709 17.3241C55.5709 17.7649 56.1676 17.8421 57.3497 18.0294C58.2729 18.1727 59.2411 18.4702 59.2411 19.4731C59.2411 20.6523 58.104 21.049 56.708 21.049ZM60.8623 20.9388V13.8086H62.0669V16.6078C62.2358 16.3874 62.6974 15.9576 63.4742 15.9576C64.4199 15.9576 65.2305 16.3543 65.2305 17.9302V20.9388H64.0258V18.1617C64.0258 17.3682 63.857 16.9384 63.1252 16.9384C62.5848 16.9384 62.2808 17.1478 62.0669 17.3792V20.9388H60.8623ZM68.5629 21.049C67.5947 21.049 66.8066 20.6302 66.8066 19.6604C66.8066 18.5364 67.8311 18.2388 68.8556 18.2388C69.3735 18.2388 69.9252 18.327 70.2179 18.4151V18.0184C70.2179 17.3902 70.1053 16.8943 69.1821 16.8943C68.4841 16.8943 68.0788 17.1698 68.0788 17.7429H66.9417C66.9417 16.4094 68.0563 15.9576 69.2609 15.9576C70.5556 15.9576 71.4225 16.4976 71.4225 17.8641V19.8808C71.4225 20.0682 71.4901 20.1343 71.6927 20.1343C71.8278 20.1343 72.0305 20.1012 72.1656 20.0682V20.8506C71.9629 20.9388 71.5801 21.049 71.2086 21.049C70.5782 21.049 70.398 20.7294 70.398 20.3657V20.2776C70.1391 20.5972 69.5874 21.049 68.5629 21.049ZM68.8444 20.1674C69.4748 20.1674 69.9702 19.958 70.2179 19.7596V19.1425C70.004 19.0874 69.5424 19.0433 69.1146 19.0433C68.4503 19.0433 68.0113 19.1645 68.0113 19.6274C68.0113 20.0021 68.2927 20.1674 68.8444 20.1674ZM73.4715 20.9388V13.8086H74.6762V17.9082L76.8378 16.0678H78.4364L76.2861 17.8531L78.5603 20.9388H77.1079L75.4305 18.5033L74.6762 19.0984V20.9388H73.4715ZM82.0278 21.049C80.5868 21.049 79.4046 20.3547 79.4046 18.5253C79.4046 16.5747 80.7331 15.9576 81.9603 15.9576C83.2325 15.9576 84.5159 16.5747 84.5159 18.5033V18.7678H80.6205C80.6543 19.6164 81.0821 20.1343 82.0503 20.1343C82.7146 20.1343 83.1762 19.8698 83.2662 19.3959H84.5046C84.2682 20.6523 83.1086 21.049 82.0278 21.049ZM80.643 17.9412H83.2775C83.1762 17.1919 82.6133 16.8723 81.9603 16.8723C81.3073 16.8723 80.7444 17.1919 80.643 17.9412Z" fill="#60EBFF" />
</svg>
