<svg width="506" height="709" viewBox="0 0 506 709" fill="none" xmlns="http://www.w3.org/2000/svg">
	<path d="M240.5 11.5981C236.478 9.27585 231.522 9.27585 227.5 11.5981L137.309 63.6699C133.287 65.9921 130.809 70.2837 130.809 74.9282V179.072C130.809 183.716 133.287 188.008 137.309 190.33L227.5 242.402C231.522 244.724 236.478 244.724 240.5 242.402L330.691 190.33C334.713 188.008 337.191 183.716 337.191 179.072V74.9282C337.191 70.2838 334.713 65.9921 330.691 63.6699L240.5 11.5981Z" stroke="#EB53E2" stroke-width="2" />
	<path d="M110.479 357.571C106.468 355.265 101.532 355.265 97.5209 357.571L8.19589 408.923C4.16192 411.242 1.67503 415.54 1.67503 420.193V522.807C1.67503 527.46 4.16192 531.758 8.19589 534.077L97.5209 585.429C101.532 587.735 106.468 587.735 110.479 585.429L199.804 534.077C203.838 531.758 206.325 527.46 206.325 522.807V420.193C206.325 415.54 203.838 411.242 199.804 408.923L110.479 357.571Z" stroke="#60EBFF" stroke-width="2" />
	<path d="M71 49.866C68.8342 48.6156 66.1658 48.6156 64 49.866L34.0599 67.1519C31.8941 68.4024 30.5599 70.7132 30.5599 73.2141V107.786C30.5599 110.287 31.8941 112.598 34.0599 113.848L64 131.134C66.1658 132.384 68.8342 132.384 71 131.134L100.94 113.848C103.106 112.598 104.44 110.287 104.44 107.786V73.2141C104.44 70.7132 103.106 68.4024 100.94 67.1519L71 49.866Z" stroke="#60EBFF" stroke-width="2" />
	<path d="M456.5 2.44338C453.715 0.835681 450.285 0.835679 447.5 2.44337L403.538 27.8246C400.754 29.4323 399.038 32.4034 399.038 35.6188V86.3812C399.038 89.5966 400.754 92.5677 403.538 94.1754L447.5 119.557C450.285 121.164 453.715 121.164 456.5 119.557L500.462 94.1754C503.246 92.5677 504.962 89.5966 504.962 86.3812V35.6188C504.962 32.4034 503.246 29.4323 500.462 27.8246L456.5 2.44338Z" stroke="#60EBFF" stroke-width="2" />
	<path d="M409.5 448.598C405.478 446.276 400.522 446.276 396.5 448.598L321.897 491.67C317.875 493.992 315.397 498.284 315.397 502.928V589.072C315.397 593.716 317.875 598.008 321.897 600.33L396.5 643.402C400.522 645.724 405.478 645.724 409.5 643.402L484.103 600.33C488.125 598.008 490.603 593.716 490.603 589.072V502.928C490.603 498.284 488.125 493.992 484.103 491.67L409.5 448.598Z" stroke="#60EBFF" stroke-width="2" />
	<path d="M212 559.598C207.978 557.276 203.022 557.276 199 559.598L145.615 590.42C141.593 592.742 139.115 597.034 139.115 601.678V663.322C139.115 667.966 141.593 672.258 145.615 674.58L199 705.402C203.022 707.724 207.978 707.724 212 705.402L265.385 674.58C269.407 672.258 271.885 667.966 271.885 663.322V601.678C271.885 597.034 269.407 592.742 265.385 590.42L212 559.598Z" stroke="#EB53E2" stroke-width="2" />
</svg>
