<svg width="209" height="218" viewBox="0 0 209 218" fill="none" xmlns="http://www.w3.org/2000/svg">
	<path d="M59 2.75278C61.7846 1.14508 65.2154 1.14508 68 2.75278L120.787 33.2293C123.571 34.837 125.287 37.8081 125.287 41.0235V101.977C125.287 105.192 123.571 108.163 120.787 109.771L68 140.247C65.2154 141.855 61.7846 141.855 59 140.247L6.21316 109.771C3.42855 108.163 1.71316 105.192 1.71316 101.976V41.0235C1.71316 37.8081 3.42855 34.837 6.21316 33.2293L59 2.75278Z" stroke="#D9C1FF" stroke-width="2" />
	<path d="M193.5 190.598C195.047 189.705 196.953 189.705 198.5 190.598L205.49 194.634C207.037 195.527 207.99 197.178 207.99 198.964V207.036C207.99 208.822 207.037 210.473 205.49 211.366L198.5 215.402C196.953 216.295 195.047 216.295 193.5 215.402L186.51 211.366C184.963 210.473 184.01 208.822 184.01 207.036V198.964C184.01 197.178 184.963 195.527 186.51 194.634L193.5 190.598Z" stroke="#E8DDFD" stroke-width="2" />
</svg>
