<svg width="478" height="235" viewBox="0 0 478 235" fill="none" xmlns="http://www.w3.org/2000/svg" xmlns:xlink="http://www.w3.org/1999/xlink">
	<g opacity="0.5">
		<path d="M359.405 3.75486C362.19 2.14604 365.623 2.14605 368.408 3.75486L422.988 35.2805C425.772 36.8884 427.487 39.8591 427.487 43.0738V106.133C427.487 109.347 425.772 112.318 422.988 113.926L368.408 145.451C365.623 147.06 362.19 147.06 359.405 145.451L304.825 113.926C302.041 112.318 300.326 109.347 300.326 106.132V43.0738C300.326 39.859 302.041 36.8884 304.825 35.2805L359.405 3.75486Z" stroke="#5F45BA" stroke-width="2" />
		<path d="M336.288 102.231C339.073 100.622 342.505 100.622 345.291 102.231L385.664 125.55C388.447 127.158 390.162 130.129 390.162 133.344V179.99C390.162 183.204 388.447 186.175 385.664 187.783L345.291 211.102C342.505 212.711 339.073 212.711 336.288 211.102L295.915 187.783C293.131 186.175 291.417 183.204 291.417 179.99V133.344C291.417 130.129 293.131 127.158 295.915 125.55L336.288 102.231Z" stroke="#8C61E1" stroke-width="2" />
		<path d="M426.518 68.6596C429.304 67.0508 432.736 67.0508 435.521 68.6596L457.812 81.5344C460.595 83.1423 462.31 86.113 462.31 89.3278V115.085C462.31 118.3 460.595 121.27 457.812 122.878L435.521 135.753C432.736 137.362 429.304 137.362 426.518 135.753L404.228 122.878C401.444 121.27 399.73 118.3 399.73 115.085V89.3278C399.73 86.113 401.444 83.1423 404.228 81.5344L426.518 68.6596Z" stroke="#AA7EFF" stroke-width="2" />
		<path d="M388.86 108.945C391.646 107.337 395.078 107.337 397.863 108.945L406.914 114.173C409.698 115.781 411.413 118.752 411.413 121.967V132.43C411.413 135.645 409.698 138.616 406.914 140.223L397.863 145.451C395.078 147.06 391.646 147.06 388.86 145.451L379.809 140.224C377.025 138.616 375.311 135.645 375.311 132.43V121.967C375.311 118.752 377.025 115.781 379.809 114.173L388.86 108.945Z" stroke="#4FE9FF" stroke-width="2" />
		<path d="M464.314 39.9009C465.861 39.0071 467.768 39.0071 469.315 39.9009L473.002 42.0305C474.549 42.9238 475.502 44.5742 475.502 46.3602V50.6239C475.502 52.4099 474.549 54.0603 473.002 54.9536L469.315 57.0832C467.768 57.977 465.861 57.977 464.314 57.0832L460.627 54.9536C459.08 54.0603 458.127 52.4099 458.127 50.6239V46.3602C458.127 44.5742 459.08 42.9238 460.627 42.0305L464.314 39.9009Z" stroke="#381E80" stroke-width="2" />
		<path d="M109.592 3.75486C112.377 2.14604 115.81 2.14605 118.595 3.75486L173.175 35.2805C175.959 36.8884 177.674 39.8591 177.674 43.0738V106.133C177.674 109.347 175.959 112.318 173.175 113.926L118.595 145.451C115.81 147.06 112.377 147.06 109.592 145.451L55.0116 113.926C52.2278 112.318 50.5131 109.347 50.5131 106.132V43.0738C50.5131 39.859 52.2278 36.8884 55.0116 35.2805L109.592 3.75486Z" stroke="#5F45BA" stroke-width="2" />
		<path d="M125.998 102.231C128.783 100.622 132.215 100.622 135.001 102.231L175.373 125.55C178.157 127.158 179.872 130.129 179.872 133.344V179.99C179.872 183.204 178.157 186.175 175.373 187.783L135.001 211.102C132.215 212.711 128.783 212.711 125.998 211.102L85.6252 187.783C82.8414 186.175 81.1267 183.204 81.1267 179.99V133.344C81.1267 130.129 82.8414 127.158 85.6252 125.55L125.998 102.231Z" stroke="#8C61E1" stroke-width="2" />
		<path d="M42.4784 68.6596C45.2637 67.0508 48.6959 67.0508 51.4813 68.6596L73.7715 81.5344C76.5553 83.1423 78.27 86.113 78.27 89.3278V115.085C78.27 118.3 76.5553 121.27 73.7715 122.878L51.4813 135.753C48.6959 137.362 45.2637 137.362 42.4784 135.753L20.1882 122.878C17.4044 121.27 15.6896 118.3 15.6896 115.085V89.3278C15.6896 86.113 17.4044 83.1423 20.1882 81.5344L42.4784 68.6596Z" stroke="#AA7EFF" stroke-width="2" />
		<path d="M73.4257 108.945C76.211 107.337 79.6433 107.337 82.4286 108.945L91.4798 114.173C94.2636 115.781 95.9784 118.752 95.9784 121.967V132.43C95.9784 135.645 94.2636 138.616 91.4798 140.223L82.4286 145.451C79.6433 147.06 76.211 147.06 73.4257 145.451L64.3745 140.224C61.5907 138.616 59.8759 135.645 59.8759 132.43V121.967C59.8759 118.752 61.5907 115.781 64.3745 114.173L73.4257 108.945Z" stroke="#4FE9FF" stroke-width="2" />
		<path d="M8.68484 39.9009C10.2323 39.0071 12.139 39.0071 13.6865 39.9009L17.3735 42.0305C18.9201 42.9238 19.8727 44.5742 19.8727 46.3602V50.6239C19.8727 52.4099 18.9201 54.0603 17.3735 54.9536L13.6865 57.0832C12.139 57.977 10.2323 57.977 8.68484 57.0832L4.99778 54.9536C3.45123 54.0603 2.49859 52.4099 2.49859 50.6239V46.3602C2.49859 44.5742 3.45123 42.9238 4.99778 42.0305L8.68484 39.9009Z" stroke="#381E80" stroke-width="2" />
	</g>
</svg>
