<svg width="110" height="28" viewBox="0 0 110 28" fill="none" xmlns="http://www.w3.org/2000/svg">
	<path d="M51.5699 13.1139C50.9785 13.1139 50.3871 13.2321 49.7957 13.4684C49.2043 13.7046 48.7312 13.9409 48.2581 14.4135C47.785 14.7679 47.5484 15.2405 47.1936 15.8312C46.957 16.4219 46.8387 17.1308 46.8387 17.8397C46.8387 19.3755 47.3118 20.557 48.1398 21.384C49.086 22.211 50.1505 22.5654 51.4516 22.5654C52.1613 22.5654 52.871 22.4473 53.4624 22.3291C54.0538 22.0928 54.5269 21.9747 55 21.7384C55.4731 22.0928 55.9462 22.4473 56.1828 22.9198C56.4194 23.3924 56.5376 23.865 56.5376 24.4557C56.5376 25.519 56.0645 26.346 55 26.8186C54.0538 27.4093 52.6344 27.6456 50.8602 27.6456C49.2043 27.6456 47.785 27.4093 46.4839 26.9367C45.1828 26.4641 44.1183 25.7553 43.1721 24.9283C42.2258 24.1013 41.5161 23.038 41.043 21.8565C40.5699 20.6751 40.3333 19.3755 40.3333 17.8397C40.3333 16.1857 40.5699 14.6498 41.1613 13.4684C41.7527 12.1688 42.4624 11.2236 43.4086 10.3966C44.3549 9.56962 45.4194 8.9789 46.7204 8.62447C47.9032 8.27004 49.2043 8.03375 50.6237 8.03375C52.3979 8.03375 53.8172 8.38818 54.8817 8.9789C55.828 9.68776 56.4194 10.5148 56.4194 11.5781C56.4194 12.0506 56.3011 12.5232 56.0645 12.8776C55.828 13.3502 55.5914 13.7046 55.2366 13.9409C54.7634 13.7046 54.2903 13.5865 53.6989 13.3502C52.871 13.2321 52.2796 13.1139 51.5699 13.1139Z" fill="#60EBFF" />
	<path d="M33.5914 27.0548C33.3549 27.173 32.8817 27.173 32.4086 27.2911C31.8172 27.4093 31.3441 27.4093 30.7527 27.4093C30.1613 27.4093 29.6882 27.4093 29.2151 27.2911C28.742 27.173 28.3871 27.0548 28.0323 26.8185C27.6774 26.5823 27.4409 26.2278 27.3226 25.8734C27.2043 25.519 27.2043 25.0464 27.2043 24.3375V12.8776C27.2043 12.2869 27.3226 11.8143 27.5592 11.3417C27.7957 10.8692 28.0323 10.5147 28.5054 10.1603C28.8602 9.80588 29.4516 9.5696 30.043 9.21517C30.6344 8.97888 31.2258 8.74259 31.9355 8.50631C32.6452 8.27002 33.3549 8.15188 34.0645 8.03373C34.7742 7.91559 35.4839 7.91559 36.3118 7.91559C37.4946 7.91559 38.5592 8.15188 39.2688 8.62445C39.9785 9.09702 40.3333 9.80588 40.3333 10.9873C40.3333 11.3417 40.3333 11.6962 40.2151 12.0506C40.0968 12.405 39.9785 12.7595 39.8602 12.9958C39.2688 12.9958 38.7957 12.9958 38.2043 13.1139C37.6129 13.1139 37.1398 13.232 36.5484 13.3502C35.957 13.4683 35.4839 13.5865 35.0108 13.7046C34.5376 13.8228 34.1828 13.9409 33.828 14.059V27.0548H33.5914Z" fill="#60EBFF" />
	<path d="M77.4731 27.0549C77.2365 27.173 76.7634 27.173 76.2903 27.2912C75.6989 27.4093 75.2258 27.4093 74.6344 27.4093C74.043 27.4093 73.5699 27.4093 73.0968 27.2912C72.6236 27.173 72.2688 27.0549 71.914 26.8186C71.5591 26.5823 71.3226 26.2279 71.2043 25.8734C71.086 25.519 70.9677 24.9283 70.9677 24.3376V15.8312C70.9677 14.768 70.7312 14.0591 70.1398 13.5865C69.6667 13.1139 68.957 12.9958 68.2473 12.9958C67.7742 12.9958 67.3011 13.1139 66.8279 13.2321C66.3548 13.3502 66 13.4684 65.7634 13.7047V27.0549C65.5269 27.173 65.0538 27.173 64.5806 27.2912C63.9892 27.4093 63.5161 27.4093 62.9247 27.4093C62.3333 27.4093 61.8602 27.4093 61.3871 27.2912C60.914 27.173 60.5591 27.0549 60.2043 26.8186C59.8495 26.5823 59.6129 26.2279 59.4946 25.8734C59.3763 25.519 59.2581 24.9283 59.2581 24.3376V2.24475C59.4946 2.24475 59.9677 2.12661 60.4409 2.00846C61.0322 1.89032 61.5054 1.89032 62.0968 1.89032C62.6882 1.89032 63.1613 1.89032 63.6344 2.00846C64.1075 2.12661 64.4624 2.24475 64.8172 2.48104C65.172 2.71732 65.4086 3.07175 65.5269 3.42618C65.6452 3.78061 65.7634 4.37133 65.7634 4.96205V8.74264C66.1183 8.6245 66.5914 8.50635 67.3011 8.27007C68.0107 8.15192 68.7204 8.03378 69.5484 8.03378C72.0322 8.03378 74.043 8.6245 75.4624 9.92407C76.8817 11.2237 77.5914 13.1139 77.5914 15.595V27.0549H77.4731Z" fill="#60EBFF" />
	<path d="M81.3763 3.42616C81.3763 2.48101 81.7312 1.65401 82.3226 0.945148C82.914 0.35443 83.8602 0 84.9247 0C85.9892 0 86.8172 0.35443 87.5269 0.945148C88.1183 1.65401 88.4731 2.36287 88.4731 3.42616C88.4731 4.37131 88.1183 5.19831 87.5269 5.90717C86.9355 6.61603 85.9892 6.85232 84.9247 6.85232C83.8602 6.85232 83.0323 6.49789 82.3226 5.90717C81.6129 5.19831 81.3763 4.37131 81.3763 3.42616ZM88.1183 27.0548C87.8817 27.0548 87.4086 27.173 86.9355 27.2911C86.3441 27.4093 85.871 27.4093 85.2796 27.4093C84.6882 27.4093 84.2151 27.4093 83.7419 27.2911C83.2688 27.173 82.914 27.0549 82.5591 26.8186C82.2043 26.5823 81.9677 26.2278 81.8495 25.8734C81.7312 25.519 81.6129 24.9283 81.6129 24.3376V8.86076C81.8495 8.86076 82.3226 8.74262 82.7957 8.62447C83.3871 8.50633 83.8602 8.50633 84.4516 8.50633C85.043 8.50633 85.5161 8.50633 85.9892 8.62447C86.4624 8.74262 86.8172 8.86076 87.172 9.09705C87.5269 9.33333 87.7634 9.68776 87.8817 10.0422C88 10.3966 88.1183 10.9873 88.1183 11.5781V27.0548Z" fill="#60EBFF" />
	<path d="M90.8387 17.8397C90.8387 16.1857 91.0753 14.6498 91.5484 13.4684C92.0215 12.2869 92.7312 11.2237 93.6774 10.3966C94.6237 9.56964 95.6882 8.97893 96.871 8.6245C98.0538 8.27007 99.3548 8.03378 100.774 8.03378C101.247 8.03378 101.72 8.03378 102.312 8.15192C102.785 8.27007 103.14 8.38821 103.495 8.50635V2.24475C103.731 2.12661 104.204 2.12661 104.677 2.00846C105.269 1.89032 105.86 1.89032 106.452 1.89032C107.043 1.89032 107.516 1.89032 107.989 2.00846C108.462 2.12661 108.817 2.24475 109.172 2.48104C109.527 2.71732 109.763 3.07175 109.882 3.42618C109.882 3.78061 110 4.37133 110 4.96205V23.038C110 24.2194 109.409 25.1646 108.344 25.8734C107.634 26.346 106.688 26.8186 105.505 27.173C104.323 27.5274 103.022 27.7637 101.484 27.7637C99.828 27.7637 98.2903 27.5274 96.9892 27.0549C95.6882 26.5823 94.6237 25.9916 93.6774 25.0464C92.7312 24.2194 92.1398 23.1561 91.6667 21.9747C91.0753 20.7933 90.8387 19.3755 90.8387 17.8397ZM101.72 13.1139C100.301 13.1139 99.2366 13.4684 98.5269 14.2954C97.8172 15.1224 97.4624 16.3038 97.4624 17.8397C97.4624 19.3755 97.8172 20.557 98.5269 21.384C99.2366 22.211 100.183 22.5654 101.484 22.5654C101.957 22.5654 102.312 22.4473 102.667 22.3291C103.022 22.211 103.376 21.9747 103.495 21.8566V13.4684C103.022 13.2321 102.43 13.1139 101.72 13.1139Z" fill="#60EBFF" />
	<path d="M5.2043 9.33331C5.98818 9.33331 6.62365 8.69857 6.62365 7.91558C6.62365 7.1326 5.98818 6.49786 5.2043 6.49786C4.42041 6.49786 3.78494 7.1326 3.78494 7.91558C3.78494 8.69857 4.42041 9.33331 5.2043 9.33331Z" fill="#60EBFF" />
	<path d="M0.946237 8.50638C1.46883 8.50638 1.89247 8.08323 1.89247 7.56124C1.89247 7.03925 1.46883 6.61609 0.946237 6.61609C0.423645 6.61609 0 7.03925 0 7.56124C0 8.08323 0.423645 8.50638 0.946237 8.50638Z" fill="#60EBFF" />
	<path d="M21.5269 10.0421C19.6344 7.91556 17.0323 6.61599 14.0753 6.3797C13.3656 6.3797 12.6559 6.3797 11.9462 6.49784C11.7097 6.49784 11.4731 6.49784 11.2366 6.61599H11C10.1721 6.85227 9.46238 7.2067 9.3441 7.2067C8.27958 7.67928 7.68818 8.62443 7.68818 9.68772C7.68818 11.2236 8.87098 12.405 10.4086 12.405C10.7635 12.405 11.7097 12.0506 11.7097 12.0506C12.4194 11.8143 13.129 11.6962 13.8387 11.8143C15.7312 11.9324 17.3871 12.9957 18.3333 14.6497C18.8065 15.5949 19.043 16.6582 19.043 17.6033C18.8065 20.6751 16.2043 22.9198 13.2473 22.6835C11.4731 22.5654 10.0538 21.7384 8.98926 20.3206L8.7527 19.9662C8.04302 18.6666 8.04302 16.8945 8.1613 16.54C8.1613 15.1223 6.9785 13.9409 5.44087 13.9409C4.25807 13.9409 3.19356 14.7679 2.83872 15.9493C2.72044 16.1856 2.72044 16.7763 2.72044 16.8945C2.48388 22.6835 6.9785 27.7637 12.8925 28.1181C13.129 28.1181 13.3656 28.1181 13.6022 28.1181C13.957 28.1181 14.4301 28.1181 14.785 28L15.6129 27.8818H15.4946C20.3441 26.9367 23.8925 22.9198 24.2473 17.9578C24.4839 15.0042 23.5376 12.1687 21.5269 10.0421Z" fill="#60EBFF" />
	<path d="M3.54839 13.232C4.52825 13.232 5.32259 12.4386 5.32259 11.4599C5.32259 10.4812 4.52825 9.68774 3.54839 9.68774C2.56853 9.68774 1.7742 10.4812 1.7742 11.4599C1.7742 12.4386 2.56853 13.232 3.54839 13.232Z" fill="#60EBFF" />
</svg>
