<svg width="480" height="197" viewBox="0 0 480 197" fill="none" xmlns="http://www.w3.org/2000/svg">
	<path fill-rule="evenodd" clip-rule="evenodd" d="M57.3509 166.562L67.2683 172.109C68.5326 172.816 69.3158 174.151 69.3158 175.6V186.585C69.3158 188.033 68.5326 189.369 67.2683 190.076L57.3509 195.623C56.1376 196.301 54.659 196.301 53.4457 195.623L43.5283 190.076C42.264 189.369 41.4808 188.033 41.4808 186.585V175.6C41.4808 174.151 42.264 172.816 43.5283 172.109L53.4457 166.562C54.659 165.883 56.1376 165.883 57.3509 166.562ZM56.3746 168.307C55.7679 167.968 55.0286 167.968 54.422 168.307L44.5045 173.854C43.8724 174.208 43.4808 174.875 43.4808 175.6V186.585C43.4808 187.309 43.8724 187.977 44.5045 188.33L54.422 193.877C55.0286 194.217 55.7679 194.217 56.3746 193.877L66.292 188.33C66.9242 187.977 67.3158 187.309 67.3158 186.585V175.6C67.3158 174.875 66.9242 174.208 66.292 173.854L56.3746 168.307ZM16.545 166.606L26.0901 172.117C27.3277 172.832 28.0901 174.152 28.0901 175.581V186.603C28.0901 188.032 27.3277 189.353 26.0901 190.067L16.545 195.578C15.3074 196.293 13.7826 196.293 12.545 195.578L3 190.067C1.7624 189.353 1 188.032 1 186.603V175.581C1 174.152 1.76239 172.832 3 172.117L12.545 166.606C13.7826 165.892 15.3074 165.892 16.545 166.606ZM15.545 168.339C14.9262 167.981 14.1638 167.981 13.545 168.339L4 173.849C3.3812 174.207 3 174.867 3 175.581V186.603C3 187.318 3.3812 187.978 4 188.335L13.545 193.846C14.1638 194.203 14.9262 194.203 15.545 193.846L25.0901 188.335C25.7089 187.978 26.0901 187.318 26.0901 186.603V175.581C26.0901 174.867 25.7089 174.207 25.0901 173.849L15.545 168.339ZM107.876 172.117L98.3311 166.606C97.0935 165.892 95.5687 165.892 94.3311 166.606L84.786 172.117C83.5484 172.832 82.786 174.152 82.786 175.581V186.603C82.786 188.032 83.5484 189.353 84.786 190.067L94.3311 195.578C95.5687 196.292 97.0935 196.292 98.3311 195.578L107.876 190.067C109.114 189.353 109.876 188.032 109.876 186.603V175.581C109.876 174.152 109.114 172.832 107.876 172.117ZM95.3311 168.338C95.9499 167.981 96.7123 167.981 97.3311 168.338L106.876 173.849C107.495 174.207 107.876 174.867 107.876 175.581V186.603C107.876 187.318 107.495 187.978 106.876 188.335L97.3311 193.846C96.7123 194.203 95.9499 194.203 95.3311 193.846L85.786 188.335C85.1672 187.978 84.786 187.318 84.786 186.603V175.581C84.786 174.867 85.1672 174.207 85.786 173.849L95.3311 168.338Z" fill="url(#paint0_linear)" />
	<path fill-rule="evenodd" clip-rule="evenodd" d="M426.34 166.562L436.258 172.109C437.522 172.816 438.305 174.151 438.305 175.6V186.585C438.305 188.033 437.522 189.369 436.258 190.076L426.34 195.623C425.127 196.301 423.648 196.301 422.435 195.623L412.518 190.076C411.253 189.369 410.47 188.033 410.47 186.585V175.6C410.47 174.151 411.253 172.816 412.518 172.109L422.435 166.562C423.648 165.883 425.127 165.883 426.34 166.562ZM425.364 168.307C424.757 167.968 424.018 167.968 423.411 168.307L413.494 173.854C412.862 174.208 412.47 174.875 412.47 175.6V186.585C412.47 187.309 412.862 187.977 413.494 188.33L423.411 193.877C424.018 194.217 424.757 194.217 425.364 193.877L435.281 188.33C435.913 187.977 436.305 187.309 436.305 186.585V175.6C436.305 174.875 435.913 174.208 435.281 173.854L425.364 168.307ZM467.623 166.562L477.541 172.109C478.805 172.816 479.588 174.151 479.588 175.6V186.585C479.588 188.033 478.805 189.369 477.541 190.076L467.623 195.623C466.41 196.301 464.932 196.301 463.718 195.623L453.801 190.076C452.537 189.369 451.753 188.033 451.753 186.585V175.6C451.753 174.151 452.537 172.816 453.801 172.109L463.718 166.562C464.932 165.883 466.41 165.883 467.623 166.562ZM466.647 168.307C466.04 167.968 465.301 167.968 464.695 168.307L454.777 173.854C454.145 174.208 453.753 174.875 453.753 175.6V186.585C453.753 187.309 454.145 187.977 454.777 188.33L464.695 193.877C465.301 194.217 466.04 194.217 466.647 193.877L476.565 188.33C477.197 187.977 477.588 187.309 477.588 186.585V175.6C477.588 174.875 477.197 174.208 476.565 173.854L466.647 168.307ZM395.079 172.117L385.534 166.606C384.297 165.892 382.772 165.892 381.534 166.606L371.989 172.117C370.752 172.832 369.989 174.152 369.989 175.581V186.603C369.989 188.032 370.752 189.353 371.989 190.067L381.534 195.578C382.772 196.293 384.297 196.293 385.534 195.578L395.079 190.067C396.317 189.353 397.079 188.032 397.079 186.603V175.581C397.079 174.152 396.317 172.832 395.079 172.117ZM382.534 168.339C383.153 167.981 383.915 167.981 384.534 168.339L394.079 173.849C394.698 174.207 395.079 174.867 395.079 175.581V186.603C395.079 187.318 394.698 187.978 394.079 188.335L384.534 193.846C383.915 194.203 383.153 194.203 382.534 193.846L372.989 188.335C372.37 187.978 371.989 187.318 371.989 186.603V175.581C371.989 174.867 372.37 174.207 372.989 173.849L382.534 168.339Z" fill="url(#paint1_linear)" />
	<path d="M140.764 176.8V188.2H152.055V176.8H140.764ZM140.764 173H152.055C154.564 173 155.819 174.267 155.819 176.8V188.2C155.819 190.733 154.564 192 152.055 192H140.764C138.255 192 137 190.733 137 188.2V176.8C137 174.267 138.255 173 140.764 173Z" fill="url(#paint2_linear)" />
	<path d="M177.648 192V173H181.412L192.703 186.478V173H196.467V192H192.703L181.412 178.938V192H177.648Z" fill="url(#paint3_linear)" />
	<path d="M237.115 192H218.296V173H222.06V188.2H237.115V192Z" fill="url(#paint4_linear)" />
	<path d="M262.206 173V192H258.442V173H262.206Z" fill="url(#paint5_linear)" />
	<path d="M283.534 192V173H287.297L298.588 186.478V173H302.352V192H298.588L287.297 178.938V192H283.534Z" fill="url(#paint6_linear)" />
	<path d="M327.945 184.4V188.2H343V192H324.181V173H343V176.8H327.945V180.6H343V184.4H327.945Z" fill="url(#paint7_linear)" />
	<path d="M10.7104 132.567V86.8201H40.9926C61.7675 86.8201 81.3101 70.1526 81.3101 44.6193C81.3101 24.5828 66.345 3.48241 40.4644 3.48241H1.20325V132.567H10.7104ZM40.8165 77.2451H10.7104V13.0574H40.4644C60.5351 13.0574 71.8029 29.7249 71.8029 44.6193C71.8029 65.3651 55.7815 77.2451 40.8165 77.2451ZM185.009 135.759L191.699 129.021L146.98 83.8058C148.036 84.1604 153.67 85.2243 158.072 85.2243C176.91 85.2243 193.107 66.9609 193.107 44.6193C193.107 24.5828 178.142 3.48241 152.262 3.48241H113.001V132.567H122.508V13.0574H152.262C172.333 13.0574 183.6 29.7249 183.6 44.6193C183.6 65.3651 167.579 77.2451 152.614 77.2451H126.909L185.009 135.759ZM238.707 132.567V3.48241H229.2V132.567H238.707ZM322.335 137L383.251 5.7875L374.624 1.70927L322.335 114.481L270.221 1.70927L261.594 5.7875L322.335 137ZM438.71 134.695C458.428 134.695 479.203 119.269 479.203 92.8488C479.203 84.515 476.386 75.8266 471.281 68.7341C464.414 59.1591 454.203 55.7901 450.858 55.6128C452.794 55.0808 459.133 51.1799 460.893 49.2295C464.766 44.442 467.759 40.0092 467.759 30.6115C467.759 16.2491 457.196 1 438.181 1C423.745 1 408.428 12.3481 408.428 31.6754C408.428 49.5841 423.569 55.2582 425.505 55.6128C418.463 55.7901 397.16 66.6063 397.16 93.9127C397.16 113.772 412.477 134.695 438.71 134.695ZM438.181 52.0665C424.449 52.0665 417.23 41.073 417.23 31.4981C417.23 18.0222 427.97 10.043 438.181 10.043C451.386 10.043 458.956 20.5046 458.956 30.7888C458.956 44.0874 448.393 52.0665 438.181 52.0665ZM438.534 125.829C418.287 125.829 405.963 109.694 405.963 93.7354C405.963 74.94 420.047 60.9322 438.358 60.9322C458.428 60.9322 470.4 77.2451 470.4 93.0261C470.4 113.417 454.379 125.829 438.534 125.829Z" fill="white" stroke="white" />
	<defs>
		<linearGradient id="paint0_linear" x1="0.999993" y1="166" x2="111.2" y2="171.546" gradientUnits="userSpaceOnUse">
			<stop stop-color="#EC53E2" />
			<stop offset="1" stop-color="#60EBFF" />
		</linearGradient>
		<linearGradient id="paint1_linear" x1="370" y1="196" x2="468.641" y2="144.32" gradientUnits="userSpaceOnUse">
			<stop stop-color="#60EBFF" />
			<stop offset="1" stop-color="#E759E3" />
		</linearGradient>
		<linearGradient id="paint2_linear" x1="242.384" y1="174.267" x2="242.384" y2="194.533" gradientUnits="userSpaceOnUse">
			<stop stop-color="#60EBFF" />
			<stop offset="1" stop-color="#EB53E2" />
		</linearGradient>
		<linearGradient id="paint3_linear" x1="242.384" y1="174.267" x2="242.384" y2="194.533" gradientUnits="userSpaceOnUse">
			<stop stop-color="#60EBFF" />
			<stop offset="1" stop-color="#EB53E2" />
		</linearGradient>
		<linearGradient id="paint4_linear" x1="242.384" y1="174.267" x2="242.384" y2="194.533" gradientUnits="userSpaceOnUse">
			<stop stop-color="#60EBFF" />
			<stop offset="1" stop-color="#EB53E2" />
		</linearGradient>
		<linearGradient id="paint5_linear" x1="242.384" y1="174.267" x2="242.384" y2="194.533" gradientUnits="userSpaceOnUse">
			<stop stop-color="#60EBFF" />
			<stop offset="1" stop-color="#EB53E2" />
		</linearGradient>
		<linearGradient id="paint6_linear" x1="242.384" y1="174.267" x2="242.384" y2="194.533" gradientUnits="userSpaceOnUse">
			<stop stop-color="#60EBFF" />
			<stop offset="1" stop-color="#EB53E2" />
		</linearGradient>
		<linearGradient id="paint7_linear" x1="242.384" y1="174.267" x2="242.384" y2="194.533" gradientUnits="userSpaceOnUse">
			<stop stop-color="#60EBFF" />
			<stop offset="1" stop-color="#EB53E2" />
		</linearGradient>
	</defs>
</svg>
