<svg width="385" height="687" viewBox="0 0 385 687" fill="none" xmlns="http://www.w3.org/2000/svg">
	<path d="M256.015 231.866C259.101 230.092 262.899 230.092 265.985 231.866L363.372 287.866C366.475 289.65 368.387 292.956 368.387 296.535V408.465C368.387 412.044 366.475 415.35 363.372 417.134L265.985 473.134C262.899 474.908 259.101 474.908 256.015 473.134L158.628 417.134C155.525 415.35 153.613 412.044 153.613 408.465V296.535C153.613 292.956 155.525 289.65 158.628 287.866L256.015 231.866Z" fill="#60EBFF" />
	<path d="M134.014 474.291C136.482 472.872 139.518 472.872 141.986 474.291L227.517 523.443C230 524.87 231.531 527.516 231.531 530.38V628.62C231.531 631.484 230 634.13 227.517 635.557L141.986 684.709C139.518 686.128 136.482 686.128 134.014 684.709L48.4832 635.557C46.0001 634.13 44.4693 631.484 44.4693 628.62V530.38C44.4693 527.516 46.0001 524.87 48.4832 523.443L134.014 474.291Z" fill="#60EBFF" />
	<path d="M130.017 77.2872C132.483 75.8708 135.517 75.8708 137.983 77.2872L208.792 117.944C211.276 119.37 212.808 122.017 212.808 124.882V206.118C212.808 208.983 211.276 211.63 208.792 213.056L137.983 253.713C135.517 255.129 132.483 255.129 130.017 253.713L59.2082 213.056C56.7237 211.63 55.1917 208.983 55.1917 206.118V124.882C55.1917 122.017 56.7237 119.37 59.2082 117.944L130.017 77.2872Z" fill="#60EBFF" />
	<path d="M294 2.86603C291.834 1.6156 289.166 1.6156 287 2.86603L250.132 24.1519C247.966 25.4024 246.632 27.7132 246.632 30.2141V72.7859C246.632 75.2868 247.966 77.5976 250.132 78.8481L287 100.134C289.166 101.384 291.834 101.384 294 100.134L330.868 78.8481C333.034 77.5976 334.368 75.2868 334.368 72.7859V30.2141C334.368 27.7132 333.034 25.4024 330.868 24.1519L294 2.86603Z" stroke="#60EBFF" stroke-width="2" />
	<path d="M69.5 309.866C67.3342 308.616 64.6658 308.616 62.5 309.866L11.3423 339.402C9.17652 340.652 7.84232 342.963 7.84232 345.464V404.536C7.84232 407.037 9.17651 409.348 11.3423 410.598L62.5 440.134C64.6658 441.384 67.3342 441.384 69.5 440.134L120.658 410.598C122.823 409.348 124.158 407.037 124.158 404.536V345.464C124.158 342.963 122.823 340.652 120.658 339.402L69.5 309.866Z" stroke="#60EBFF" stroke-width="2" />
	<path d="M309.5 485.289C307.953 484.396 306.047 484.396 304.5 485.289L269.529 505.479C267.982 506.372 267.029 508.023 267.029 509.809V550.191C267.029 551.977 267.982 553.628 269.529 554.521L304.5 574.711C306.047 575.604 307.953 575.604 309.5 574.711L344.471 554.521C346.018 553.628 346.971 551.977 346.971 550.191V509.809C346.971 508.023 346.018 506.372 344.471 505.479L309.5 485.289Z" stroke="#60EBFF" stroke-width="2" />
</svg>
