<svg width="354" height="388" viewBox="0 0 354 388" fill="none" xmlns="http://www.w3.org/2000/svg">
	<g opacity="0.8">
		<path d="M173.109 189.39L220.579 14.39" stroke="#97E3EE" stroke-width="2.15" />
		<path d="M222.762 17.2308C227.227 16.8111 230.507 12.8514 230.087 8.38653C229.667 3.92166 225.707 0.642399 221.243 1.06209C216.778 1.48179 213.498 5.44151 213.918 9.90638C214.338 14.3713 218.298 17.6505 222.762 17.2308Z" fill="#97E3EE" />
		<path d="M181.12 190.72L133.65 15.71" stroke="#97E3EE" stroke-width="2.15" />
		<path d="M140.306 9.87867C140.718 5.41308 137.432 1.45908 132.966 1.04718C128.5 0.635279 124.546 3.92145 124.134 8.38704C123.723 12.8526 127.009 16.8066 131.474 17.2185C135.94 17.6304 139.894 14.3443 140.306 9.87867Z" fill="#97E3EE" />
		<path d="M174.881 198.48L222.341 373.48" stroke="#97E3EE" stroke-width="2.15" />
		<path d="M231.852 379.585C232.298 375.123 229.043 371.144 224.58 370.698C220.118 370.252 216.139 373.507 215.693 377.97C215.246 382.432 218.502 386.411 222.964 386.857C227.427 387.303 231.406 384.048 231.852 379.585Z" fill="#97E3EE" />
		<path d="M182.88 197.16L135.42 372.16" stroke="#97E3EE" stroke-width="2.15" />
		<path d="M134.784 386.825C139.248 386.388 142.512 382.416 142.075 377.953C141.638 373.49 137.666 370.226 133.202 370.662C128.739 371.099 125.475 375.072 125.912 379.535C126.349 383.998 130.321 387.262 134.784 386.825Z" fill="#97E3EE" />
		<path d="M204.91 166.19L95.4902 310.38" stroke="#97E3EE" stroke-width="2.15" />
		<path d="M99.6283 317.605C100.562 313.224 97.7674 308.916 93.3867 307.983C89.0061 307.049 84.6981 309.844 83.7645 314.224C82.831 318.605 85.6254 322.913 90.0061 323.847C94.3868 324.78 98.6948 321.986 99.6283 317.605Z" fill="#97E3EE" />
		<path d="M151.23 166.19L260.65 310.38" stroke="#97E3EE" stroke-width="2.15" />
		<path d="M266.288 323.839C270.648 322.812 273.349 318.445 272.322 314.085C271.294 309.725 266.927 307.024 262.568 308.051C258.208 309.079 255.507 313.446 256.534 317.805C257.561 322.165 261.928 324.866 266.288 323.839Z" fill="#97E3EE" />
		<path d="M204.91 215.4L95.4902 71.21" stroke="#97E3EE" stroke-width="2.15" />
		<path d="M93.4592 73.5776C97.8322 72.6089 100.592 68.2786 99.6233 63.9055C98.6546 59.5325 94.3243 56.7727 89.9513 57.7414C85.5782 58.7101 82.8185 63.0404 83.7871 67.4134C84.7558 71.7865 89.0861 74.5462 93.4592 73.5776Z" fill="#97E3EE" />
		<path d="M151.23 215.4L260.65 71.21" stroke="#97E3EE" stroke-width="2.15" />
		<path d="M272.326 67.6074C273.396 63.2581 270.738 58.8649 266.388 57.795C262.039 56.725 257.646 59.3836 256.576 63.7329C255.506 68.0823 258.165 72.4755 262.514 73.5454C266.863 74.6153 271.256 71.9568 272.326 67.6074Z" fill="#97E3EE" />
	</g>
	<path fill-rule="evenodd" clip-rule="evenodd" d="M247.348 248.349C286.073 209.624 286.073 146.84 247.348 108.115C208.624 69.391 145.839 69.391 107.115 108.115C68.3904 146.84 68.3904 209.624 107.115 248.349C145.839 287.073 208.624 287.073 247.348 248.349Z" stroke="#BCA9FF" stroke-width="4.4" stroke-linecap="round" stroke-dasharray="5.56" />
	<path fill-rule="evenodd" clip-rule="evenodd" d="M190.015 253.373C230.869 246.441 258.368 207.703 251.436 166.849C244.504 125.995 205.766 98.4957 164.912 105.428C124.058 112.36 96.5589 151.098 103.491 191.952C110.423 232.806 149.161 260.305 190.015 253.373Z" stroke="#BCA9FF" stroke-width="16.72" stroke-dasharray="4.21" />
	<path d="M43.1102 331.37C64.9918 331.37 82.7302 273.266 82.7302 201.59C82.7302 129.914 64.9918 71.81 43.1102 71.81C21.2287 71.81 3.49023 129.914 3.49023 201.59C3.49023 273.266 21.2287 331.37 43.1102 331.37Z" fill="url(#paint0_linear)" />
	<path fill-rule="evenodd" clip-rule="evenodd" d="M11.75 108.8C4.17 133.58 0 166.58 0 201.58C0 236.59 4.17 269.54 11.75 294.37C19.84 320.85 30.67 334.85 43.1 334.85C55.53 334.85 66.37 320.86 74.45 294.37C82.03 269.59 86.21 236.6 86.21 201.59C86.21 166.58 82.03 133.63 74.45 108.8C66.37 82.32 55.52 68.32 43.1 68.32C30.68 68.32 19.84 82.32 11.75 108.8ZM67.79 110.82C75.17 135.01 79.24 167.24 79.24 201.58V201.59C79.24 235.93 75.17 268.15 67.79 292.34C60.99 314.6 51.78 327.88 43.1 327.88C34.42 327.88 25.21 314.6 18.42 292.34C11.03 268.15 6.96 235.91 6.96 201.58C6.96 167.25 11.03 135.02 18.42 110.83C25.21 88.57 34.41 75.28 43.1 75.28C51.79 75.28 60.99 88.56 67.79 110.82Z" fill="#37DD9E" />
	<path d="M310.729 331.37C332.611 331.37 350.349 273.266 350.349 201.59C350.349 129.914 332.611 71.81 310.729 71.81C288.848 71.81 271.109 129.914 271.109 201.59C271.109 273.266 288.848 331.37 310.729 331.37Z" fill="url(#paint1_linear)" />
	<path fill-rule="evenodd" clip-rule="evenodd" d="M310.721 334.85C323.151 334.85 333.991 320.86 342.071 294.37C349.631 269.54 353.841 236.58 353.841 201.58C353.841 166.58 349.661 133.63 342.081 108.8C334.001 82.32 323.151 68.32 310.731 68.32C298.311 68.32 287.471 82.32 279.381 108.8C271.801 133.59 267.631 166.59 267.631 201.59C267.631 236.59 271.791 269.54 279.371 294.37C287.461 320.85 298.291 334.85 310.721 334.85ZM310.751 327.91C302.071 327.91 292.861 314.63 286.071 292.37L286.041 292.34C278.631 268.15 274.631 235.93 274.631 201.59C274.631 167.25 278.631 135.02 286.041 110.83C292.831 88.57 302.061 75.32 310.751 75.32C319.441 75.32 328.641 88.6 335.441 110.86C342.821 135.05 346.891 167.27 346.891 201.61C346.891 235.95 342.821 268.18 335.441 292.37C328.641 314.63 319.431 327.91 310.751 327.91Z" fill="#37DD9E" />
	<path d="M337.33 206.34L346.56 205.75C346.56 210.26 346.04 212.83 346.04 217.34C346.04 219.08 346.04 220.34 345.99 220.98C345.99 222.73 345.99 224.47 345.99 226.21V230.21C345.883 231.569 345.702 232.921 345.45 234.26C345.55 237.04 344.95 239.75 344.74 242.49C344.49 245.71 344.06 248.9 343.74 252.11C343.52 253.11 343.26 255.11 343.23 255.42C342.91 257.92 342.87 257.88 342.47 260.35C341.89 263.96 341.21 267.54 340.58 271.14C339.95 274.74 339.18 278.35 338.34 281.93C337.42 285.83 336.34 289.7 335.34 293.59C331.823 293.143 328.344 292.438 324.93 291.48C319.87 290.22 314.85 288.82 309.75 287.7C309.24 287.59 308.75 287.41 308.24 287.25C308.03 286.9 306.75 285.12 307.11 284.87C310.53 282.54 311.94 277.06 314.62 273.87C316.81 271.27 317.7 266.92 319.52 264.05C321.519 260.827 323.258 257.45 324.72 253.95C326.93 249.05 324.49 245.65 325.59 240.38C326.9 234.08 330.81 230.73 330.49 224.21C330.25 219.21 327.4 215 326.74 210.07C326.61 209.07 328.79 208.17 329.34 207.18C329.92 206.93 336.82 206.87 337.33 206.34Z" fill="#9F9CB3" />
	<path d="M237.22 202.03C242.72 204.38 248.58 205.03 254.44 205.76C258.9 206.3 263.36 206.91 267.83 207.4C272.07 207.87 276.32 208.2 280.56 208.67C286.673 209.286 292.817 209.543 298.96 209.44C305.38 209.44 311.77 208.72 318.16 208.1L333.75 206.59C334.93 206.372 336.131 206.288 337.33 206.34C336.82 206.87 336.11 206.43 335.49 206.77C334.94 207.77 335.49 208.77 335.66 209.77C336.31 214.7 336.6 219.64 336.84 224.6C336.989 231.036 336.317 237.464 334.84 243.73C333.615 248.954 331.821 254.027 329.49 258.86C327.806 262.718 325.848 266.451 323.63 270.03C321.791 272.881 319.757 275.601 317.54 278.17C314.899 281.331 311.841 284.12 308.45 286.46C308.09 286.71 308.02 286.93 308.23 287.28C304.69 286.63 301.23 285.61 297.79 284.65C287.655 281.682 277.795 277.844 268.32 273.18C255.004 266.975 242.137 259.851 229.81 251.86C223.68 247.65 217.794 243.096 212.18 238.22C206.25 233.27 200.55 228.06 194.73 223C193.155 221.66 191.715 220.17 190.43 218.55C188.56 216.14 186.54 213.92 183.5 212.75L182.17 213.82C182.87 212.25 178.62 208.66 179.78 207.53C182.97 204.42 188.18 201.14 191.33 198C192.52 196.81 191.14 195 191.33 193.67C191.91 189.38 187.79 189.73 190.46 186.45C191.25 185.45 186.75 186.52 187.58 185.59C188.12 184.97 188.42 185.84 188.15 185.01C187.88 184.18 188.79 185.39 188.15 185.3C185.58 184.91 180.91 180.63 178.63 178.95C175.76 176.84 186.36 167.85 187.29 164.51C187.82 162.59 194.8 156.83 197.68 157.58C200.34 158.27 198.97 159.02 201.68 158.74C203.87 158.51 205.83 159.36 208.03 159.31C209.598 159.278 211.128 159.791 212.36 160.76C212.55 160.15 213.75 163.67 214.18 163.36C214.6 164.584 215.541 165.559 216.75 166.02C220.887 167.851 223.946 171.49 225.04 175.88C225.87 179.16 227.43 182.24 227.19 185.77C227.04 187.482 226.763 189.18 226.36 190.85C226.124 191.685 226.278 192.582 226.78 193.29C228.78 196.12 230.65 199.13 234.08 200.55" fill="#B3AFCB" />
	<path d="M192.529 139.19C194.449 137.36 198.129 137.41 200.369 139.08C203.959 141.76 204.689 145.65 205.259 149.71C205.629 152.39 206.589 154.86 209.639 155.65C210.709 155.93 211.079 156.89 211.639 157.65C213.009 159.32 214.289 161.07 214.169 163.4C213.757 163.766 213.479 164.258 213.379 164.8C212.352 163.936 211.012 163.538 209.679 163.7C207.479 163.7 205.299 164.03 203.109 164.25C200.378 164.408 197.64 164.069 195.029 163.25C192.149 162.5 190.519 163.87 190.029 165.78C189.099 169.12 191.769 175.47 194.639 177.57C196.919 179.25 199.639 179.12 202.179 179.51C202.819 179.6 203.529 179.36 203.829 180.27C204.108 181.004 203.932 181.833 203.379 182.39C202.549 183.32 201.679 184.22 200.899 185.18C198.131 188.324 196.304 192.185 195.629 196.32C195.449 197.67 195.729 199.17 194.539 200.32C191.389 203.46 191.039 204.68 187.839 207.79C186.679 208.92 184.209 211.13 183.509 212.69C172.679 223.14 159.409 233.39 147.349 242.34C138.222 248.899 128.558 254.676 118.459 259.61C103.629 267.14 88.6293 274.07 72.8793 279.32C65.7591 281.631 58.5101 283.524 51.1693 284.99C51.0093 284.82 45.9893 285.87 45.7893 285.77C40.5793 282.91 37.7893 281.34 33.9493 276.82C29.8893 272.07 28.0993 268.82 25.2893 263.25C22.6393 257.99 19.8093 248.67 18.0793 243.04C14.9393 232.84 14.1993 221.35 14.0293 210.7C14.0293 208.59 14.0293 205.8 15.4093 204.01C20.7893 204.17 26.1293 204.81 31.4793 205.31C42.3393 206.31 53.1993 207.25 64.1293 206.93C66.1893 206.87 68.2593 207.12 70.3193 207.12C85.8993 207.12 101.439 206.43 116.819 203.7C120.897 203.02 124.865 201.8 128.619 200.07C131.739 198.6 135.139 197.75 138.039 195.8C139.766 194.705 141.395 193.464 142.909 192.09C142.211 190.119 141.241 188.254 140.029 186.55C138.099 184.01 137.729 180.88 137.259 177.86C136.682 173.864 136.849 169.796 137.749 165.86C138.437 162.347 140.791 159.389 144.059 157.93C145.269 157.36 146.559 156.78 147.819 157.93C148.319 158.64 150.819 157.27 150.879 158.19C151.099 160.51 152.159 160.42 154.629 161.37C155.718 161.892 156.78 162.469 157.809 163.1C160.319 164.53 159.239 162.43 162.139 162.52C166.069 162.64 165.599 163.32 167.619 159.63C168.289 158.42 174.189 157.88 175.419 158.19C176.649 158.5 177.419 158.06 178.599 157.9C184.599 157.08 182.149 156.37 185.809 150.97C188.949 146.35 188.019 145.09 186.389 140.58C186.099 139.75 192.429 140.08 192.529 139.19Z" fill="#87879F" />
	<path d="M192.529 139.19C192.547 140.023 192.766 140.84 193.169 141.57C194.799 146.08 195.799 150.4 192.659 155.03C188.999 160.42 183.939 162.57 177.899 163.39C176.777 163.615 175.622 163.615 174.499 163.39C173.36 163.035 172.137 163.607 171.679 164.71C169.679 168.4 166.219 169.71 162.289 169.61C159.389 169.52 156.759 168.18 154.289 166.75C153.617 166.292 152.912 165.884 152.179 165.53C149.709 164.59 148.969 162.53 148.749 160.22C148.672 159.367 148.365 158.551 147.859 157.86C148.719 154.32 151.939 153.01 154.409 151.05C156.723 149.338 159.167 147.81 161.719 146.48C162.915 145.681 163.913 144.621 164.639 143.38C166.639 140.57 168.759 137.79 172.089 136.38C176.089 134.7 180.219 133.6 184.679 134.44C186.369 134.76 187.239 136.02 188.419 136.93C189.634 137.936 191.029 138.703 192.529 139.19Z" fill="#B3AFCB" />
	<path d="M15.4096 204.01C15.4096 206.13 15.4096 208.24 15.4096 210.35C15.4871 220.954 17.073 231.493 20.1196 241.65C21.823 247.287 24.0008 252.77 26.6296 258.04C29.4858 263.568 33.0015 268.728 37.0996 273.41C40.9241 277.894 45.5324 281.645 50.6996 284.48C50.8996 284.59 51.0196 284.82 51.1796 284.99C42.1796 286.94 33.3196 289.35 24.2596 290.99C22.2093 291.474 20.122 291.785 18.0196 291.92C17.5696 290.16 17.1496 288.4 16.6796 286.65C15.4196 281.96 14.3696 277.21 13.4496 272.43C12.1696 265.75 11.0396 259.03 10.2296 252.27C9.78961 248.54 9.46961 244.79 9.02961 241.05C8.48961 236.41 8.12961 231.76 7.90961 227.1C7.10961 224 7.10961 223.1 7.09961 219.32V203.57C9.90961 203.79 12.6296 203.59 15.4096 204.01Z" fill="#7C7C91" />
	<defs>
		<linearGradient id="paint0_linear" x1="80.0944" y1="90.3602" x2="12.2843" y2="90.3881" gradientUnits="userSpaceOnUse">
			<stop offset="0.27" stop-color="#5E5544" />
			<stop offset="1" stop-color="#383837" />
		</linearGradient>
		<linearGradient id="paint1_linear" x1="273.654" y1="312.463" x2="341.454" y2="312.491" gradientUnits="userSpaceOnUse">
			<stop offset="0.27" stop-color="#5E5544" />
			<stop offset="1" stop-color="#383837" />
		</linearGradient>
	</defs>
</svg>
