<svg width="24" height="24" viewBox="0 0 24 24" fill="none" xmlns="http://www.w3.org/2000/svg">
	<path fill-rule="evenodd" clip-rule="evenodd" d="M16.5274 0.904004C15.0791 0.318246 13.5755 0 12.1456 0C11.6982 0 11.3892 0.00922453 11.0848 0.0368981C10.4944 0.087633 9.90862 0.175266 9.33208 0.313634C8.23433 0.576533 7.19194 0.9778 6.20027 1.51282C4.75199 2.2923 3.51587 3.33005 2.52421 4.64916C0.983676 6.70162 0.125774 8.99853 0.0104649 11.5676C-0.0310465 12.5038 0.0519763 13.4355 0.241084 14.3534C0.476315 15.5018 0.877592 16.5949 1.41724 17.6327C1.92921 18.6151 2.5565 19.5191 3.33138 20.317C4.22156 21.2303 5.23168 21.9867 6.36171 22.577C7.95759 23.4119 9.65494 23.9054 11.463 23.9884C12.4178 24.0299 13.3633 23.9607 14.2996 23.7716C15.4481 23.541 16.5412 23.149 17.5836 22.6093C18.7967 21.982 19.8806 21.1887 20.7984 20.174C21.827 19.0302 22.6296 17.7434 23.183 16.3044C23.6443 15.1052 23.921 13.8691 23.9856 12.5869C24.0363 11.5537 23.9533 10.5344 23.7319 9.52433C23.5705 8.77714 23.3491 8.04379 23.0354 7.34272C22.6203 6.40643 22.1084 5.52549 21.4995 4.6999C21.1813 4.27096 20.8492 3.84663 20.4664 3.47765C19.3179 2.3707 18.008 1.5036 16.5274 0.904004ZM11.8597 15.88C11.8412 15.8708 11.8228 15.857 11.8043 15.8431L11.8042 15.8433C11.6935 15.9493 11.5829 16.0553 11.4768 16.1521C11.3569 16.2674 11.2375 16.3833 11.1181 16.4991C10.8793 16.7307 10.6405 16.9624 10.3975 17.1899C10.2453 17.3329 10.0701 17.4482 9.85789 17.4943C9.85404 17.4953 9.85039 17.4962 9.8469 17.4972C9.83366 17.5007 9.82271 17.5035 9.81176 17.5035H9.74258C9.74488 17.462 9.74834 17.4194 9.7518 17.3767C9.75526 17.3341 9.75872 17.2914 9.76103 17.2499C9.78178 16.9801 9.80254 16.7114 9.82329 16.4428C9.84405 16.1741 9.86481 15.9054 9.88556 15.6356C9.91785 15.2481 9.95014 14.8607 9.97781 14.4733C9.98242 14.441 9.99626 14.4226 10.0193 14.4041C10.5267 13.9429 11.0387 13.477 11.546 13.0112L11.8631 12.7218C13.0805 11.6105 14.2943 10.5025 15.508 9.39057C15.5172 9.3814 15.5268 9.3726 15.5364 9.36375C15.5606 9.34144 15.5851 9.31882 15.6049 9.2891C15.651 9.2153 15.6326 9.15996 15.5449 9.14151C15.4619 9.12306 15.3835 9.1369 15.3097 9.16918C15.2684 9.18823 15.2294 9.21383 15.1895 9.23997C15.1714 9.25181 15.1531 9.26376 15.1344 9.27526C14.062 9.951 12.9896 10.6256 11.9171 11.3002C10.8448 11.9747 9.77249 12.6492 8.70018 13.3248C8.64253 13.3617 8.58372 13.3986 8.52491 13.4355C8.4661 13.4724 8.4073 13.5093 8.34964 13.5462C8.31736 13.5693 8.28507 13.5739 8.24817 13.5601C7.77084 13.4148 7.29352 13.2684 6.8162 13.1219C6.33876 12.9755 5.86132 12.829 5.38388 12.6837C5.35352 12.6745 5.3224 12.6664 5.29107 12.6582C5.21293 12.6379 5.13345 12.6172 5.06102 12.5776C4.84885 12.467 4.80734 12.3055 4.93648 12.1026C5.01028 11.9873 5.12098 11.9181 5.23629 11.8627C5.46875 11.7484 5.71303 11.6576 5.9573 11.5668C6.01837 11.5441 6.07943 11.5214 6.14031 11.4984C6.94979 11.187 7.7581 10.8746 8.56642 10.5621C9.37474 10.2496 10.1831 9.93712 10.9925 9.6258C11.9956 9.23841 12.9999 8.85102 14.0041 8.46362C15.0086 8.07615 16.013 7.68868 17.0163 7.30121C17.0947 7.27354 17.1777 7.25048 17.2654 7.23664C17.6159 7.1813 17.8373 7.47648 17.8834 7.71171C17.9203 7.8962 17.8926 8.07607 17.8557 8.25595L17.0809 11.895C16.8087 13.1865 16.5366 14.4779 16.2599 15.7693C16.1353 16.3689 16.0062 16.9684 15.8771 17.568L15.877 17.5681C15.854 17.6788 15.8171 17.7895 15.7663 17.891C15.628 18.1631 15.4112 18.26 15.116 18.1815C14.9638 18.14 14.8254 18.0755 14.6963 17.9832L11.8597 15.88Z" fill="#5F45BA" />
</svg>
