<svg width="290" height="484" viewBox="0 0 290 484" fill="none" xmlns="http://www.w3.org/2000/svg">
	<g opacity="0.6">
		<path d="M15.2119 64.8797L15.2119 134.198L46.9905 134.198L46.9905 194.618L77.3255 194.618L77.3255 124.37L135.287 124.37L135.287 225.068" stroke="#BCA9FF" stroke-width="0.5" />
		<path fill-rule="evenodd" clip-rule="evenodd" d="M165.141 238.105C156.407 238.105 149.327 245.213 149.327 253.98C149.327 262.748 156.407 269.855 165.141 269.855C173.875 269.855 180.955 262.748 180.955 253.98C180.955 245.213 173.875 238.105 165.141 238.105Z" stroke="#BCA9FF" />
		<path fill-rule="evenodd" clip-rule="evenodd" d="M71.0001 333.098C66.2335 333.098 62.3686 336.978 62.3686 341.764C62.3686 346.547 66.2335 350.427 71.0001 350.427C75.7679 350.427 79.6328 346.547 79.6328 341.764C79.6328 336.978 75.7679 333.098 71.0001 333.098Z" stroke="#BCA9FF" stroke-width="2" />
		<path fill-rule="evenodd" clip-rule="evenodd" d="M206.285 286.58C201.519 286.58 197.654 290.46 197.654 295.246C197.654 300.031 201.519 303.91 206.285 303.91C211.053 303.91 214.918 300.031 214.918 295.246C214.918 290.46 211.053 286.58 206.285 286.58Z" stroke="#BCA9FF" stroke-width="2" />
		<path d="M105.482 358.175V342.16H71.0014V314.249H107.169V294.352H206.479V329.529H140.927" stroke="#BCA9FF" stroke-width="0.5" stroke-linecap="round" stroke-linejoin="round" />
		<path d="M105.481 433.513L105.481 351.628" stroke="#BCA9FF" stroke-width="0.5" stroke-linecap="round" stroke-linejoin="round" />
		<path fill-rule="evenodd" clip-rule="evenodd" d="M107.168 278.328C98.4344 278.328 91.3529 285.435 91.3529 294.202C91.3529 302.97 98.4344 310.077 107.168 310.077C115.902 310.077 122.982 302.97 122.982 294.202C122.982 285.435 115.902 278.328 107.168 278.328Z" stroke="#BCA9FF" />
		<path fill-rule="evenodd" clip-rule="evenodd" d="M106.152 411.4C94.2153 411.4 84.5394 421.112 84.5394 433.094C84.5394 445.076 94.2153 454.788 106.152 454.788C118.088 454.788 127.764 445.076 127.764 433.094C127.764 421.112 118.088 411.4 106.152 411.4Z" stroke="#BCA9FF" />
		<path fill-rule="evenodd" clip-rule="evenodd" d="M71.001 339.452C69.7304 339.452 68.7003 340.486 68.7003 341.763C68.7003 343.038 69.7304 344.072 71.001 344.072C72.2715 344.072 73.3027 343.038 73.3027 341.763C73.3027 340.486 72.2715 339.452 71.001 339.452Z" fill="#BCA9FF" />
		<path fill-rule="evenodd" clip-rule="evenodd" d="M107.168 251.671C105.898 251.671 104.866 252.705 104.866 253.98C104.866 255.257 105.898 256.291 107.168 256.291C108.439 256.291 109.469 255.257 109.469 253.98C109.469 252.705 108.439 251.671 107.168 251.671Z" fill="#BCA9FF" />
		<path fill-rule="evenodd" clip-rule="evenodd" d="M108.022 222.758C106.751 222.758 105.72 223.793 105.72 225.068C105.72 226.344 106.751 227.377 108.022 227.377C109.292 227.377 110.322 226.344 110.322 225.068C110.322 223.793 109.292 222.758 108.022 222.758Z" fill="#BCA9FF" />
		<path fill-rule="evenodd" clip-rule="evenodd" d="M141.139 326.436C139.454 326.436 138.089 327.807 138.089 329.498C138.089 331.19 139.454 332.56 141.139 332.56C142.824 332.56 144.189 331.19 144.189 329.498C144.189 327.807 142.824 326.436 141.139 326.436Z" fill="#BCA9FF" />
		<path fill-rule="evenodd" clip-rule="evenodd" d="M206.287 326.436C204.602 326.436 203.237 327.807 203.237 329.498C203.237 331.19 204.602 332.56 206.287 332.56C207.972 332.56 209.338 331.19 209.338 329.498C209.338 327.807 207.972 326.436 206.287 326.436Z" fill="#BCA9FF" />
		<path fill-rule="evenodd" clip-rule="evenodd" d="M206.287 292.233C204.602 292.233 203.237 293.603 203.237 295.295C203.237 296.986 204.602 298.356 206.287 298.356C207.972 298.356 209.338 296.986 209.338 295.295C209.338 293.603 207.972 292.233 206.287 292.233Z" fill="#BCA9FF" />
		<path fill-rule="evenodd" clip-rule="evenodd" d="M107.169 291.579C105.484 291.579 104.117 292.951 104.117 294.642C104.117 296.333 105.484 297.704 107.169 297.704C108.854 297.704 110.219 296.333 110.219 294.642C110.219 292.951 108.854 291.579 107.169 291.579Z" fill="#BCA9FF" />
		<path fill-rule="evenodd" clip-rule="evenodd" d="M24.6201 223.455C23.7216 222.553 22.2639 222.553 21.3654 223.455C20.4669 224.357 20.4669 225.82 21.3654 226.722C22.2639 227.624 23.7216 227.624 24.6201 226.722C25.5186 225.82 25.5186 224.357 24.6201 223.455Z" fill="#A375FC" />
		<path fill-rule="evenodd" clip-rule="evenodd" d="M14.9049 49.6671C7.43401 49.6671 1.37722 55.7459 1.37722 63.2466C1.37722 70.7461 7.43401 76.825 14.9049 76.825C22.3758 76.825 28.4326 70.7461 28.4326 63.2466C28.4326 55.7459 22.3758 49.6671 14.9049 49.6671Z" stroke="#BCA9FF" />
		<path fill-rule="evenodd" clip-rule="evenodd" d="M16.3007 61.6124C15.4011 60.7105 13.9446 60.7105 13.0461 61.6124C12.1476 62.5144 12.1476 63.9776 13.0461 64.8796C13.9446 65.7815 15.4011 65.7815 16.3007 64.8796C17.1992 63.9776 17.1992 62.5144 16.3007 61.6124Z" fill="#A375FC" />
		<path fill-rule="evenodd" clip-rule="evenodd" d="M48.0712 133.106C47.1727 132.205 45.7151 132.205 44.8166 133.106C43.9181 134.008 43.9181 135.472 44.8166 136.374C45.7151 137.276 47.1727 137.276 48.0712 136.374C48.9697 135.472 48.9697 134.008 48.0712 133.106Z" fill="#A375FC" />
		<path fill-rule="evenodd" clip-rule="evenodd" d="M78.2773 122.737C77.3788 121.835 75.9211 121.835 75.0226 122.737C74.1241 123.639 74.1241 125.102 75.0226 126.004C75.9211 126.906 77.3788 126.906 78.2773 126.004C79.1758 125.102 79.1758 123.639 78.2773 122.737Z" fill="#A375FC" />
		<path fill-rule="evenodd" clip-rule="evenodd" d="M136.154 222.006C134.469 222.006 133.104 223.377 133.104 225.069C133.104 226.76 134.469 228.13 136.154 228.13C137.839 228.13 139.205 226.76 139.205 225.069C139.205 223.377 137.839 222.006 136.154 222.006Z" fill="#BCA9FF" />
		<path fill-rule="evenodd" clip-rule="evenodd" d="M165.142 250.822C163.457 250.822 162.092 252.193 162.092 253.885C162.092 255.576 163.457 256.947 165.142 256.947C166.827 256.947 168.193 255.576 168.193 253.885C168.193 252.193 166.827 250.822 165.142 250.822Z" fill="#BCA9FF" />
		<path d="M161.135 433.095H33.3417V468.226" stroke="#BCA9FF" stroke-width="0.5" stroke-linecap="round" stroke-linejoin="round" />
		<path fill-rule="evenodd" clip-rule="evenodd" d="M106.691 431.461C105.793 430.559 104.335 430.559 103.437 431.461C102.538 432.363 102.538 433.825 103.437 434.727C104.335 435.63 105.793 435.63 106.691 434.727C107.59 433.825 107.59 432.363 106.691 431.461Z" fill="#A375FC" />
		<path fill-rule="evenodd" clip-rule="evenodd" d="M161.135 424.847C156.368 424.847 152.503 428.727 152.503 433.513C152.503 438.297 156.368 442.177 161.135 442.177C165.903 442.177 169.768 438.297 169.768 433.513C169.768 428.727 165.903 424.847 161.135 424.847Z" stroke="#BCA9FF" stroke-width="2" />
		<path fill-rule="evenodd" clip-rule="evenodd" d="M135.288 121.308C133.603 121.308 132.237 122.68 132.237 124.371C132.237 126.063 133.603 127.433 135.288 127.433C136.973 127.433 138.338 126.063 138.338 124.371C138.338 122.68 136.973 121.308 135.288 121.308Z" fill="#BCA9FF" />
		<path d="M161.134 433.513V467.423" stroke="#BCA9FF" stroke-width="0.5" stroke-linecap="round" stroke-linejoin="round" />
		<path fill-rule="evenodd" clip-rule="evenodd" d="M162.762 431.461C161.863 430.559 160.406 430.559 159.507 431.461C158.608 432.363 158.608 433.825 159.507 434.727C160.406 435.63 161.863 435.63 162.762 434.727C163.66 433.825 163.66 432.363 162.762 431.461Z" fill="#A375FC" />
		<path fill-rule="evenodd" clip-rule="evenodd" d="M162.762 468.517C161.863 467.615 160.406 467.615 159.507 468.517C158.608 469.419 158.608 470.882 159.507 471.784C160.406 472.686 161.863 472.686 162.762 471.784C163.66 470.882 163.66 469.419 162.762 468.517Z" fill="#A375FC" />
		<path fill-rule="evenodd" clip-rule="evenodd" d="M35.5087 464.96C34.6102 464.058 33.1526 464.058 32.2541 464.96C31.3556 465.861 31.3556 467.324 32.2541 468.226C33.1526 469.127 34.6102 469.127 35.5087 468.226C36.4072 467.324 36.4072 465.861 35.5087 464.96Z" fill="#A375FC" />
		<path fill-rule="evenodd" clip-rule="evenodd" d="M33.341 450.717C24.6072 450.717 17.5268 457.826 17.5268 466.593C17.5268 475.359 24.6072 482.468 33.341 482.468C42.0749 482.468 49.1553 475.359 49.1553 466.593C49.1553 457.826 42.0749 450.717 33.341 450.717Z" stroke="#BCA9FF" />
		<path d="M33.3418 407.572L33.3418 433.095" stroke="#BCA9FF" stroke-width="0.5" stroke-linecap="round" stroke-linejoin="round" />
		<path fill-rule="evenodd" clip-rule="evenodd" d="M33.3418 402.952C32.0713 402.952 31.04 403.986 31.04 405.262C31.04 406.538 32.0713 407.572 33.3418 407.572C34.6123 407.572 35.6436 406.538 35.6436 405.262C35.6436 403.986 34.6123 402.952 33.3418 402.952Z" fill="#BCA9FF" />
		<path fill-rule="evenodd" clip-rule="evenodd" d="M78.414 192.88C77.5155 191.978 76.0579 191.978 75.1594 192.88C74.2608 193.782 74.2608 195.245 75.1594 196.147C76.0579 197.049 77.5155 197.049 78.414 196.147C79.3125 195.245 79.3125 193.782 78.414 192.88Z" fill="#A375FC" />
		<path fill-rule="evenodd" clip-rule="evenodd" d="M48.0712 192.88C47.1727 191.978 45.7151 191.978 44.8166 192.88C43.9181 193.782 43.9181 195.245 44.8166 196.147C45.7151 197.049 47.1727 197.049 48.0712 196.147C48.9697 195.245 48.9697 193.782 48.0712 192.88Z" fill="#A375FC" />
		<path d="M175.907 166.208V103.29H156.084L156.084 3.60033H191.127V69.4013" stroke="#BCA9FF" stroke-width="0.5" stroke-linecap="round" stroke-linejoin="round" />
		<path fill-rule="evenodd" clip-rule="evenodd" d="M188.045 69.1879C188.045 70.8793 189.41 72.2508 191.095 72.2508C192.78 72.2508 194.146 70.8793 194.146 69.1879C194.146 67.4964 192.78 66.1249 191.095 66.1249C189.41 66.1249 188.045 67.4964 188.045 69.1879Z" fill="#BCA9FF" />
		<path fill-rule="evenodd" clip-rule="evenodd" d="M188.045 3.7923C188.045 5.48373 189.41 6.85522 191.095 6.85522C192.78 6.85522 194.146 5.48373 194.146 3.7923C194.146 2.10087 192.78 0.729376 191.095 0.729376C189.41 0.729376 188.045 2.10087 188.045 3.7923Z" fill="#BCA9FF" />
		<path fill-rule="evenodd" clip-rule="evenodd" d="M132.237 166.208C132.237 167.9 133.603 169.27 135.288 169.27C136.973 169.27 138.338 167.9 138.338 166.208C138.338 164.517 136.973 163.145 135.288 163.145C133.603 163.145 132.237 164.517 132.237 166.208Z" fill="#BCA9FF" />
		<path d="M176.389 166.208H145.881" stroke="#BCA9FF" stroke-width="0.5" stroke-linecap="round" stroke-linejoin="round" />
		<path fill-rule="evenodd" clip-rule="evenodd" d="M234.406 117.256C229.638 117.256 225.773 121.136 225.773 125.921C225.773 130.706 229.638 134.585 234.406 134.585C239.172 134.585 243.037 130.706 243.037 125.921C243.037 121.136 239.172 117.256 234.406 117.256Z" stroke="#BCA9FF" stroke-width="2" />
		<path d="M135.288 125.028L234.598 125.028" stroke="#BCA9FF" stroke-width="0.5" stroke-linecap="round" stroke-linejoin="round" />
		<path fill-rule="evenodd" clip-rule="evenodd" d="M234.407 122.908C232.722 122.908 231.356 124.279 231.356 125.971C231.356 127.662 232.722 129.033 234.407 129.033C236.092 129.033 237.457 127.662 237.457 125.971C237.457 124.279 236.092 122.908 234.407 122.908Z" fill="#BCA9FF" />
		<path fill-rule="evenodd" clip-rule="evenodd" d="M285.189 355.522C283.014 355.522 281.252 357.312 281.252 359.519C281.252 361.728 283.014 363.517 285.189 363.517C287.363 363.517 289.125 361.728 289.125 359.519C289.125 357.312 287.363 355.522 285.189 355.522Z" fill="#BCA9FF" />
		<path d="M255.266 388.46V373.981H285.287V360.644" stroke="#BCA9FF" stroke-linecap="round" stroke-linejoin="round" />
		<path fill-rule="evenodd" clip-rule="evenodd" d="M255.32 384.048C251.609 384.048 248.6 387.103 248.6 390.87C248.6 394.639 251.609 397.694 255.32 397.694C259.032 397.694 262.039 394.639 262.039 390.87C262.039 387.103 259.032 384.048 255.32 384.048Z" stroke="#BCA9FF" stroke-width="0.536" />
		<path fill-rule="evenodd" clip-rule="evenodd" d="M257.485 388.564C256.26 387.32 254.273 387.32 253.048 388.564C251.822 389.809 251.822 391.827 253.048 393.07C254.273 394.314 256.26 394.314 257.485 393.07C258.711 391.827 258.711 389.809 257.485 388.564Z" fill="#A375FC" />
		<path fill-rule="evenodd" clip-rule="evenodd" d="M220.169 379.004C210.003 379.004 201.763 387.373 201.763 397.694C201.763 408.015 210.003 416.383 220.169 416.383C230.334 416.383 238.574 408.015 238.574 397.694C238.574 387.373 230.334 379.004 220.169 379.004Z" stroke="#BCA9FF" stroke-width="1.017" stroke-linecap="round" stroke-dasharray="0.38 1.87" />
		<path fill-rule="evenodd" clip-rule="evenodd" d="M250.543 423.804C245.46 423.804 241.341 427.988 241.341 433.148C241.341 438.309 245.46 442.492 250.543 442.492C255.625 442.492 259.746 438.309 259.746 433.148C259.746 427.988 255.625 423.804 250.543 423.804Z" stroke="#BCA9FF" stroke-width="1.017" stroke-linecap="round" stroke-dasharray="0.51 1.53" />
		<path fill-rule="evenodd" clip-rule="evenodd" d="M271.608 413.348C268.644 413.348 266.242 415.789 266.242 418.797C266.242 421.807 268.644 424.247 271.608 424.247C274.571 424.247 276.975 421.807 276.975 418.797C276.975 415.789 274.571 413.348 271.608 413.348Z" stroke="#BCA9FF" stroke-width="1.017" stroke-linecap="round" />
		<path d="M220.168 427.535V404.101" stroke="#BCA9FF" stroke-linecap="round" stroke-linejoin="round" />
		<path fill-rule="evenodd" clip-rule="evenodd" d="M220.167 400.472C218.831 400.472 217.748 401.572 217.748 402.928C217.748 404.285 218.831 405.385 220.167 405.385C221.504 405.385 222.586 404.285 222.586 402.928C222.586 401.572 221.504 400.472 220.167 400.472Z" fill="#BCA9FF" />
		<path fill-rule="evenodd" clip-rule="evenodd" d="M220.168 425.488C218.832 425.488 217.75 426.587 217.75 427.943C217.75 429.298 218.832 430.397 220.168 430.397C221.502 430.397 222.584 429.298 222.584 427.943C222.584 426.587 221.502 425.488 220.168 425.488Z" fill="#BCA9FF" />
	</g>
</svg>
