<?xml version="1.0" encoding="UTF-8"?>
<svg width="313px" height="179px" viewBox="0 0 313 179" version="1.1" xmlns="http://www.w3.org/2000/svg" xmlns:xlink="http://www.w3.org/1999/xlink">
    <!-- Generator: Sketch 54 (76480) - https://sketchapp.com -->
    <title>Group 8</title>
    <desc>Created with Sketch.</desc>
    <g id="Page-1" stroke="none" stroke-width="1" fill="none" fill-rule="evenodd" opacity="0.216773624">
        <g id="Company" transform="translate(-1087.000000, -742.000000)">
            <g id="Component/Whyorchid" transform="translate(0.000000, 486.000000)">
                <g id="Group-8" transform="translate(1085.000000, 254.000000)">
                    <g id="Group-95" transform="translate(11.000000, 0.000000)">
                        <polyline id="Stroke-1" stroke="#7A6D93" stroke-width="0.5" points="264.169112 171.350617 221.604394 171.350617 221.604394 151.788956 184.50367 151.788956 184.50367 133.115854 227.638994 133.115854 227.638994 97.4369501 165.805796 97.4369501"></polyline>
                        <g id="Group-94" transform="translate(0.000000, 0.440596)">
                            <path d="M157.800094,78.6201517 C157.800094,83.9963607 153.435737,88.3547794 148.052203,88.3547794 C142.668669,88.3547794 138.304312,83.9963607 138.304312,78.6201517 C138.304312,73.2439427 142.668669,68.885524 148.052203,68.885524 C153.435737,68.885524 157.800094,73.2439427 157.800094,78.6201517 Z" id="Stroke-4" stroke="#7A6D93"></path>
                            <path d="M99.4701834,136.569913 C99.4701834,139.504095 97.0878573,141.883179 94.1490069,141.883179 C91.2114975,141.883179 88.8291714,139.504095 88.8291714,136.569913 C88.8291714,133.635061 91.2114975,131.255976 94.1490069,131.255976 C97.0878573,131.255976 99.4701834,133.635061 99.4701834,136.569913 Z" id="Stroke-6" stroke="#7A6D93" stroke-width="2"></path>
                            <path d="M128.034361,53.2931118 C128.034361,56.2272938 125.652035,58.6063784 122.713184,58.6063784 C119.775004,58.6063784 117.392678,56.2272938 117.392678,53.2931118 C117.392678,50.3582601 119.775004,47.9791755 122.713184,47.9791755 C125.652035,47.9791755 128.034361,50.3582601 128.034361,53.2931118 Z" id="Stroke-8" stroke="#7A6D93" stroke-width="2"></path>
                            <polyline id="Stroke-10" stroke="#7A6D93" stroke-width="0.5" stroke-linecap="round" stroke-linejoin="round" points="84.0713583 115.344768 93.9057454 115.344768 93.9057454 136.569712 111.044011 136.569712 111.044011 114.30622 123.262065 114.30622 123.262065 53.1751954 101.661548 53.1751954 101.661548 93.5258903"></polyline>
                            <path d="M37.8106481,115.344768 L88.0916091,115.344768" id="Stroke-12" stroke="#7A6D93" stroke-width="0.5" stroke-linecap="round" stroke-linejoin="round"></path>
                            <path d="M133.101816,114.306086 C133.101816,119.682295 128.737459,124.041384 123.353925,124.041384 C117.970391,124.041384 113.606034,119.682295 113.606034,114.306086 C113.606034,108.929877 117.970391,104.571459 123.353925,104.571459 C128.737459,104.571459 133.101816,108.929877 133.101816,114.306086 Z" id="Stroke-16" stroke="#7A6D93"></path>
                            <path d="M51.3891695,114.931492 C51.3891695,122.279 45.4249728,128.235081 38.0674539,128.235081 C30.709935,128.235081 24.7464088,122.279 24.7464088,114.931492 C24.7464088,107.583984 30.709935,101.627902 38.0674539,101.627902 C45.4249728,101.627902 51.3891695,107.583984 51.3891695,114.931492 Z" id="Stroke-18" stroke="#7A6D93"></path>
                            <path d="M95.5682778,136.569913 C95.5682778,137.352004 94.9333038,137.986114 94.1494762,137.986114 C93.3663192,137.986114 92.7313451,137.352004 92.7313451,136.569913 C92.7313451,135.787821 93.3663192,135.153041 94.1494762,135.153041 C94.9333038,135.153041 95.5682778,135.787821 95.5682778,136.569913" id="Fill-20" fill="#BCA9FF"></path>
                            <path d="M149.470401,114.306086 C149.470401,115.088178 148.835427,115.722957 148.05227,115.722957 C147.268443,115.722957 146.633469,115.088178 146.633469,114.306086 C146.633469,113.523995 147.268443,112.889885 148.05227,112.889885 C148.835427,112.889885 149.470401,113.523995 149.470401,114.306086" id="Fill-22" fill="#BCA9FF"></path>
                            <path d="M167.223928,113.780652 C167.223928,114.562744 166.588953,115.197523 165.805796,115.197523 C165.021969,115.197523 164.387665,114.562744 164.387665,113.780652 C164.387665,112.998561 165.021969,112.364451 165.805796,112.364451 C166.588953,112.364451 167.223928,112.998561 167.223928,113.780652" id="Fill-24" fill="#BCA9FF"></path>
                            <path d="M103.560704,93.394515 C103.560704,94.4317236 102.719212,95.2720701 101.68059,95.2720701 C100.641969,95.2720701 99.8004772,94.4317236 99.8004772,93.394515 C99.8004772,92.3573064 100.641969,91.5169599 101.68059,91.5169599 C102.719212,91.5169599 103.560704,92.3573064 103.560704,93.394515" id="Fill-26" fill="#BCA9FF"></path>
                            <path d="M103.560704,53.2931118 C103.560704,54.3303203 102.719212,55.1706669 101.68059,55.1706669 C100.641969,55.1706669 99.8004772,54.3303203 99.8004772,53.2931118 C99.8004772,52.2559032 100.641969,51.4148871 101.68059,51.4148871 C102.719212,51.4148871 103.560704,52.2559032 103.560704,53.2931118" id="Fill-28" fill="#BCA9FF"></path>
                            <path d="M124.563326,53.2931118 C124.563326,54.3303203 123.721834,55.1706669 122.683213,55.1706669 C121.644591,55.1706669 120.803099,54.3303203 120.803099,53.2931118 C120.803099,52.2559032 121.644591,51.4148871 122.683213,51.4148871 C123.721834,51.4148871 124.563326,52.2559032 124.563326,53.2931118" id="Fill-30" fill="#BCA9FF"></path>
                            <path d="M124.964694,114.306086 C124.964694,115.343295 124.122532,116.184311 123.08391,116.184311 C122.045288,116.184311 121.203797,115.343295 121.203797,114.306086 C121.203797,113.268878 122.045288,112.428531 123.08391,112.428531 C124.122532,112.428531 124.964694,113.268878 124.964694,114.306086" id="Fill-32" fill="#BCA9FF"></path>
                            <path d="M166.796343,165.119732 C167.350185,165.67282 167.350185,166.570083 166.796343,167.123171 C166.2425,167.67626 165.344015,167.67626 164.790173,167.123171 C164.236331,166.570083 164.236331,165.67282 164.790173,165.119732 C165.344015,164.566643 166.2425,164.566643 166.796343,165.119732" id="Fill-34" fill="#7A6D93"></path>
                            <path d="M273.510406,171.099651 C273.510406,175.698456 269.77767,179.426782 265.171929,179.426782 C260.566858,179.426782 256.834123,175.698456 256.834123,171.099651 C256.834123,166.500846 260.566858,162.77252 265.171929,162.77252 C269.77767,162.77252 273.510406,166.500846 273.510406,171.099651 Z" id="Stroke-36" stroke="#7A6D93"></path>
                            <path d="M10.4672837,6.4792649 C10.4658571,8.89808399 8.50213841,10.8596446 6.08249563,10.8610707 C3.66202929,10.8624972 1.70062296,8.90325002 1.70204952,6.48443093 C1.70347561,4.06643486 3.66719483,2.10405126 6.08766118,2.10262469 C8.50730395,2.10119861 10.4687098,4.06126883 10.4672837,6.4792649 Z" id="Stroke-13" stroke="#BCA9FF" stroke-width="1.017" stroke-linecap="round" transform="translate(6.084667, 6.481848) rotate(-150.000000) translate(-6.084667, -6.481848) "></path>
                            <path d="M266.175349,170.240422 C266.729191,170.79418 266.729191,171.690773 266.175349,172.243861 C265.621507,172.79695 264.723022,172.79695 264.169179,172.243861 C263.615337,171.690773 263.615337,170.79418 264.169179,170.240422 C264.723022,169.687333 265.621507,169.687333 266.175349,170.240422" id="Fill-38" fill="#7A6D93"></path>
                            <path d="M222.27457,150.683784 C222.828412,151.236872 222.828412,152.134135 222.27457,152.687223 C221.720727,153.240312 220.822242,153.240312 220.2684,152.687223 C219.714558,152.134135 219.714558,151.236872 220.2684,150.683784 C220.822242,150.130695 221.720727,150.130695 222.27457,150.683784" id="Fill-40" fill="#7A6D93"></path>
                            <path d="M228.641811,132.090296 C229.195653,132.643385 229.195653,133.540647 228.641811,134.093736 C228.087968,134.646825 227.189483,134.646825 226.635641,134.093736 C226.081799,133.540647 226.081799,132.643385 226.635641,132.090296 C227.189483,131.537208 228.087968,131.537208 228.641811,132.090296" id="Fill-42" fill="#7A6D93"></path>
                            <path d="M167.686178,96.4632864 C167.686178,97.500495 166.844016,98.3408415 165.805394,98.3408415 C164.766772,98.3408415 163.925281,97.500495 163.925281,96.4632864 C163.925281,95.4260778 164.766772,94.5850617 165.805394,94.5850617 C166.844016,94.5850617 167.686178,95.4260778 167.686178,96.4632864" id="Fill-44" fill="#BCA9FF"></path>
                            <path d="M149.991657,78.6201517 C149.991657,79.6573603 149.149495,80.4977068 148.110873,80.4977068 C147.072251,80.4977068 146.23076,79.6573603 146.23076,78.6201517 C146.23076,77.5829431 147.072251,76.741927 148.110873,76.741927 C149.149495,76.741927 149.991657,77.5829431 149.991657,78.6201517" id="Fill-46" fill="#BCA9FF"></path>
                            <polyline id="Stroke-48" stroke="#7A6D93" stroke-width="0.5" stroke-linecap="round" stroke-linejoin="round" points="38.0673868 81.0866859 38.0673868 159.751156 16.4950315 159.751156"></polyline>
                            <path d="M39.0704715,114.599304 C39.6243137,115.152392 39.6243137,116.049655 39.0704715,116.602743 C38.5166293,117.155832 37.6188149,117.155832 37.0649727,116.602743 C36.5104599,116.049655 36.5104599,115.152392 37.0649727,114.599304 C37.6188149,114.046215 38.5166293,114.046215 39.0704715,114.599304" id="Fill-50" fill="#7A6D93"></path>
                            <path d="M43.1315564,81.0866859 C43.1315564,84.020868 40.7492303,86.3999526 37.8103799,86.3999526 C34.8728705,86.3999526 32.4905444,84.020868 32.4905444,81.0866859 C32.4905444,78.1518343 34.8728705,75.7727496 37.8103799,75.7727496 C40.7492303,75.7727496 43.1315564,78.1518343 43.1315564,81.0866859 Z" id="Stroke-52" stroke="#7A6D93" stroke-width="2"></path>
                            <path d="M229.519241,96.9965549 C229.519241,98.0337635 228.677079,98.8747796 227.638458,98.8747796 C226.599836,98.8747796 225.758344,98.0337635 225.758344,96.9965549 C225.758344,95.9593463 226.599836,95.1189998 227.638458,95.1189998 C228.677079,95.1189998 229.519241,95.9593463 229.519241,96.9965549" id="Fill-54" fill="#BCA9FF"></path>
                            <path d="M37.8106481,81.0866859 L16.9879242,81.0866859" id="Stroke-56" stroke="#7A6D93" stroke-width="0.5" stroke-linecap="round" stroke-linejoin="round"></path>
                            <path d="M39.0704715,80.0848991 C39.6243137,80.6379878 39.6243137,81.5352502 39.0704715,82.0883388 C38.5166293,82.6414274 37.6188149,82.6414274 37.0649727,82.0883388 C36.5104599,81.5352502 36.5104599,80.6379878 37.0649727,80.0848991 C37.6188149,79.5318105 38.5166293,79.5318105 39.0704715,80.0848991" id="Fill-58" fill="#7A6D93"></path>
                            <path d="M16.3163402,80.0848991 C16.8701825,80.6379878 16.8701825,81.5352502 16.3163402,82.0883388 C15.762498,82.6414274 14.8640131,82.6414274 14.3101709,82.0883388 C13.7563286,81.5352502 13.7563286,80.6379878 14.3101709,80.0848991 C14.8640131,79.5318105 15.762498,79.5318105 16.3163402,80.0848991" id="Fill-60" fill="#7A6D93"></path>
                            <path d="M18.5007315,158.417181 C19.0545737,158.97027 19.0545737,159.867532 18.5007315,160.420621 C17.9468893,160.97371 17.0490748,160.97371 16.4952326,160.420621 C15.9413904,159.867532 15.9413904,158.97027 16.4952326,158.417181 C17.0490748,157.864093 17.9468893,157.864093 18.5007315,158.417181" id="Fill-62" fill="#7A6D93"></path>
                            <path d="M27.2462085,159.751156 C27.2462085,165.127365 22.8811809,169.485784 17.4976468,169.485784 C12.1147832,169.485784 7.74975562,165.127365 7.74975562,159.751156 C7.74975562,154.374947 12.1147832,150.016528 17.4976468,150.016528 C22.8811809,150.016528 27.2462085,154.374947 27.2462085,159.751156 Z" id="Stroke-64" stroke="#7A6D93"></path>
                            <path d="M53.7392441,159.751156 L38.0673868,159.751156" id="Stroke-66" stroke="#7A6D93" stroke-width="0.5" stroke-linecap="round" stroke-linejoin="round"></path>
                            <path d="M56.576445,159.751156 C56.576445,160.533247 55.9414709,161.168027 55.1576434,161.168027 C54.3744863,161.168027 53.7395123,160.533247 53.7395123,159.751156 C53.7395123,158.969065 54.3744863,158.334285 55.1576434,158.334285 C55.9414709,158.334285 56.576445,158.969065 56.576445,159.751156" id="Fill-68" fill="#BCA9FF"></path>
                            <path d="M185.570655,132.005659 C186.124497,132.558748 186.124497,133.45601 185.570655,134.009099 C185.016813,134.562187 184.118328,134.562187 183.564486,134.009099 C183.010643,133.45601 183.010643,132.558748 183.564486,132.005659 C184.118328,131.45257 185.016813,131.45257 185.570655,132.005659" id="Fill-70" fill="#7A6D93"></path>
                            <path d="M185.570655,150.683784 C186.124497,151.236872 186.124497,152.134135 185.570655,152.687223 C185.016813,153.240312 184.118328,153.240312 183.564486,152.687223 C183.010643,152.134135 183.010643,151.236872 183.564486,150.683784 C184.118328,150.130695 185.016813,150.130695 185.570655,150.683784" id="Fill-72" fill="#7A6D93"></path>
                            <polyline id="Stroke-76" stroke="#7A6D93" stroke-width="0.5" stroke-linecap="round" stroke-linejoin="round" points="201.948426 71.9936716 240.583279 71.9936716 240.583279 84.195771 301.797595 84.195771 301.797595 62.6246448 261.392593 62.6246448"></polyline>
                            <path d="M261.523678,64.5211495 C260.485056,64.5211495 259.642894,63.680803 259.642894,62.6435944 C259.642894,61.6063859 260.485056,60.7653697 261.523678,60.7653697 C262.562299,60.7653697 263.404461,61.6063859 263.404461,62.6435944 C263.404461,63.680803 262.562299,64.5211495 261.523678,64.5211495" id="Fill-78" fill="#BCA9FF"></path>
                            <path d="M301.679719,64.5211495 C300.641097,64.5211495 299.798935,63.680803 299.798935,62.6435944 C299.798935,61.6063859 300.641097,60.7653697 301.679719,60.7653697 C302.718341,60.7653697 303.560503,61.6063859 303.560503,62.6435944 C303.560503,63.680803 302.718341,64.5211495 301.679719,64.5211495" id="Fill-80" fill="#BCA9FF"></path>
                            <path d="M201.948426,98.8745788 C200.909804,98.8745788 200.068313,98.0335626 200.068313,96.9963541 C200.068313,95.9591455 200.909804,95.1187989 201.948426,95.1187989 C202.987048,95.1187989 203.82921,95.9591455 203.82921,96.9963541 C203.82921,98.0335626 202.987048,98.8745788 201.948426,98.8745788" id="Fill-82" fill="#BCA9FF"></path>
                            <path d="M201.948426,71.6969016 L201.948426,90.4764703" id="Stroke-86" stroke="#7A6D93" stroke-width="0.5" stroke-linecap="round" stroke-linejoin="round"></path>
                            <path d="M232.007441,35.9832455 C232.007441,38.9180972 229.625115,41.2971818 226.686935,41.2971818 C223.748755,41.2971818 221.366429,38.9180972 221.366429,35.9832455 C221.366429,33.0490635 223.748755,30.6699788 226.686935,30.6699788 C229.625115,30.6699788 232.007441,33.0490635 232.007441,35.9832455 Z" id="Stroke-88" stroke="#7A6D93" stroke-width="2"></path>
                            <path d="M227.235346,96.9965549 L227.235346,35.8655301" id="Stroke-90" stroke="#7A6D93" stroke-width="0.5" stroke-linecap="round" stroke-linejoin="round"></path>
                            <path d="M228.537077,35.9832455 C228.537077,37.0204541 227.694915,37.8614702 226.656293,37.8614702 C225.617671,37.8614702 224.77618,37.0204541 224.77618,35.9832455 C224.77618,34.946037 225.617671,34.1056904 226.656293,34.1056904 C227.694915,34.1056904 228.537077,34.946037 228.537077,35.9832455" id="Fill-92" fill="#BCA9FF"></path>
                        </g>
                    </g>
                    <path d="M18.2129313,22.2486902 C18.2105789,26.4006366 14.8404278,29.7677622 10.6865893,29.7701142 C6.53192658,29.7724666 3.16641314,26.4091548 3.16876558,22.2572084 C3.17111754,18.1060858 6.54044481,14.7381369 10.6951076,14.7357844 C14.848946,14.7334325 18.2152833,18.0975676 18.2129313,22.2486902 Z" id="Stroke-11" stroke="#D5D2E0" stroke-width="1.017" stroke-linecap="round" stroke-dasharray="0.512,1.535" transform="translate(10.690848, 22.252949) rotate(-150.000000) translate(-10.690848, -22.252949) "></path>
                    <g id="Group-21" transform="translate(42.000000, 3.000000)">
                        <path d="M53.687925,2.41555986 C53.687925,3.74983611 52.5895035,4.83099595 51.2353283,4.83099595 C49.8798964,4.83099595 48.7821033,3.74983611 48.7821033,2.41555986 C48.7821033,1.08128361 49.8798964,0.000123773307 51.2353283,0.000123773307 C52.5895035,0.000123773307 53.687925,1.08128361 53.687925,2.41555986" id="Fill-1" fill="#BCA9FF"></path>
                        <polyline id="Stroke-3" stroke="#7A6D93" stroke-linecap="round" stroke-linejoin="round" points="33.4758391 20.7764017 42.3612392 20.7764017 42.3612392 2.35460151 50.5447304 2.35460151"></polyline>
                        <path d="M36.1832469,20.744035 C36.1832469,23.0214638 34.3087668,24.8675427 31.996929,24.8675427 C29.6844628,24.8675427 27.8099827,23.0214638 27.8099827,20.744035 C27.8099827,18.4666061 29.6844628,16.6211461 31.996929,16.6211461 C34.3087668,16.6211461 36.1832469,18.4666061 36.1832469,20.744035 Z" id="Stroke-5" stroke="#7A6D93" stroke-width="0.536"></path>
                        <path d="M33.4119949,19.4147715 C34.1754858,20.1666944 34.1754858,21.3858615 33.4119949,22.1377843 C32.648504,22.8897071 31.4099522,22.8897071 30.6470897,22.1377843 C29.8835988,21.3858615 29.8835988,20.1666944 30.6470897,19.4147715 C31.4099522,18.6628487 32.648504,18.6628487 33.4119949,19.4147715" id="Fill-7" fill="#7A6D93"></path>
                        <path d="M39.2785584,42.3143186 C39.2785584,48.5524933 34.1433752,53.6086329 27.809857,53.6086329 C21.4763388,53.6086329 16.341784,48.5524933 16.341784,42.3143186 C16.341784,36.0767628 21.4763388,31.0200044 27.809857,31.0200044 C34.1433752,31.0200044 39.2785584,36.0767628 39.2785584,42.3143186 Z" id="Stroke-9" stroke="#7A6D93" stroke-width="1.017" stroke-linecap="round" stroke-dasharray="0.375,1.873"></path>
                        <path d="M11.7878594,23.6752344 C11.7878594,26.7943218 9.22026782,29.3223916 6.05382291,29.3223916 C2.88674961,29.3223916 0.319786429,26.7943218 0.319786429,23.6752344 C0.319786429,20.556766 2.88674961,18.0280773 6.05382291,18.0280773 C9.22026782,18.0280773 11.7878594,20.556766 11.7878594,23.6752344 Z" id="Stroke-11" stroke="#7A6D93" stroke-width="1.017" stroke-linecap="round" stroke-dasharray="0.512,1.535"></path>
                        <path d="M18.2036335,10.7494023 C18.2036335,12.568251 16.706186,14.0423911 14.8599833,14.0423911 C13.0131523,14.0423911 11.5157047,12.568251 11.5157047,10.7494023 C11.5157047,8.93117241 13.0131523,7.45641346 14.8599833,7.45641346 C16.706186,7.45641346 18.2036335,8.93117241 18.2036335,10.7494023 Z" id="Stroke-13" stroke="#7A6D93" stroke-width="1.017" stroke-linecap="round"></path>
                        <path d="M9.49826648,42.3143186 L23.8782874,42.3143186" id="Stroke-15" stroke="#7A6D93" stroke-linecap="round" stroke-linejoin="round"></path>
                        <path d="M26.1051672,42.3143186 C26.1051672,43.1343168 25.430279,43.7989795 24.5982939,43.7989795 C23.765052,43.7989795 23.0901637,43.1343168 23.0901637,42.3143186 C23.0901637,41.4943205 23.765052,40.8302767 24.5982939,40.8302767 C25.430279,40.8302767 26.1051672,41.4943205 26.1051672,42.3143186" id="Fill-17" fill="#BCA9FF"></path>
                        <path d="M10.7544132,42.3143186 C10.7544132,43.1336979 10.0801534,43.7977417 9.24816823,43.7977417 C8.4161831,43.7977417 7.74192325,43.1336979 7.74192325,42.3143186 C7.74192325,41.4955582 8.4161831,40.8315144 9.24816823,40.8315144 C10.0801534,40.8315144 10.7544132,41.4955582 10.7544132,42.3143186" id="Fill-19" fill="#BCA9FF"></path>
                    </g>
                </g>
            </g>
        </g>
    </g>
</svg>