<?xml version="1.0" encoding="UTF-8"?>
<svg width="377px" height="333px" viewBox="0 0 377 333" version="1.1" xmlns="http://www.w3.org/2000/svg" xmlns:xlink="http://www.w3.org/1999/xlink">
    <!-- Generator: Sketch 54 (76480) - https://sketchapp.com -->
    <title>Group 32</title>
    <desc>Created with Sketch.</desc>
    <g id="Page-1" stroke="none" stroke-width="1" fill="none" fill-rule="evenodd" opacity="0.831263951">
        <g id="Company" transform="translate(-1040.000000, -1065.000000)">
            <g id="Values" transform="translate(38.000000, 1050.000000)">
                <g id="Group-32" transform="translate(1002.000000, 15.000000)">
                    <polyline id="Stroke-1" stroke="#CDCCCE" stroke-width="0.405" stroke-linecap="round" points="0 255 31.8877743 255 31.8877743 180.293878 31.8877743 129.114196 203 129.114196 203 108"></polyline>
                    <polyline id="Stroke-3" stroke="#CDCCCE" stroke-width="0.405" stroke-linecap="round" points="55 308 55 180.342107 55 153.687672 222 153.687672 222 108"></polyline>
                    <polyline id="Stroke-4" stroke="#CDCCCE" stroke-width="0.405" stroke-linecap="round" points="277 259 277 221.452961 74 221.452961 74 179.995591 244.120157 179.995591 244.120157 108"></polyline>
                    <g id="Group-31" transform="translate(27.000000, 0.000000)">
                        <path d="M268.095785,52.7397702 C269.664777,52.8943617 271.309688,53.0039812 272.932105,53.226031 C287.092402,55.1879389 298.078161,64.4550024 300.172963,76.178667 C302.18341,87.4076384 295.924311,98.4904505 284.182175,104.305905 C279.101226,106.821532 273.525398,108.106048 267.595282,108.106048 C207.925769,108.125723 148.253445,108.11448 88.5811214,108.125723 C82.4344952,108.125723 76.8164901,106.669751 71.7017998,103.95175 C64.9759399,100.373657 60.2605273,95.4182938 57.6652226,89.1671718 C54.9012091,82.4972471 55.1345897,75.844187 58.5874977,69.385069 C63.2129323,60.7391826 71.3475112,55.4915006 82.4148125,53.352515 C85.7889897,52.6976088 89.2812631,52.6329614 92.7397948,53.0011705 C93.614269,53.0939254 94.0276057,52.9280908 94.4043889,52.2675631 C99.0888716,44.0039396 106.410836,37.8006004 116.263434,33.7193823 C124.575157,30.2818273 133.421125,28.9832579 142.691677,29.9557796 C144.828656,30.1778293 144.828656,30.2115584 145.838097,28.6712639 C152.760784,18.0831449 162.891751,10.2692424 176.101655,5.26890696 C186.061101,1.50249351 196.577287,-0.0771515294 207.55461,0.614294521 C224.270846,1.67113889 238.462073,7.20551805 250.038313,17.1724599 C258.74369,24.6659362 264.297023,33.5872767 266.636453,43.8043759 C267.305665,46.7275624 267.612153,49.7069641 268.095785,52.7397702 Z" id="Stroke-5" stroke="#CDCCCE" stroke-width="0.405" stroke-linecap="round"></path>
                        <path d="M216.170571,222.148269 C216.170571,203.647871 231.174413,188.649675 249.681775,188.649675 C268.189137,188.649675 283.190166,203.647871 283.190166,222.148269 C283.190166,240.648667 268.189137,255.644051 249.681775,255.644051 C231.174413,255.644051 216.170571,240.648667 216.170571,222.148269 Z" id="Stroke-7" stroke="#CDCCCE" stroke-width="0.664" stroke-linecap="round" stroke-dasharray="0.245,1.223"></path>
                        <path d="M315.819866,283.965794 C315.819866,274.715595 323.321787,267.216497 332.575468,267.216497 C341.829149,267.216497 349.331069,274.715595 349.331069,283.965794 C349.331069,293.215993 341.829149,300.71228 332.575468,300.71228 C323.321787,300.71228 315.819866,293.215993 315.819866,283.965794 Z" id="Stroke-9" stroke="#CDCCCE" stroke-width="0.664" stroke-linecap="round" stroke-dasharray="0.334,1.001"></path>
                        <path d="M297.0735,322.300856 C297.0735,316.907015 301.448683,312.533478 306.844555,312.533478 C312.240426,312.533478 316.612798,316.907015 316.612798,322.300856 C316.612798,327.694697 312.240426,332.068234 306.844555,332.068234 C301.448683,332.068234 297.0735,327.694697 297.0735,322.300856 Z" id="Stroke-11" stroke="#CDCCCE" stroke-width="0.664" stroke-linecap="round"></path>
                        <path d="M7.60761654,258.309492 C5.24288068,259.45347 2.39451274,258.466894 1.2501043,256.103048 C0.105695865,253.739202 1.09545451,250.894717 3.45737857,249.747928 C5.82211443,248.60395 8.66767055,249.590526 9.81207899,251.954372 C10.9592992,254.318218 9.97235241,257.162703 7.60761654,258.309492" id="Fill-13" fill="#CDCCCE"></path>
                        <path d="M7.14085536,132.448322 C5.31036422,133.336521 3.10308996,132.571995 2.21455662,130.742193 C1.32883511,128.909579 2.09364861,126.705947 3.92413975,125.820558 C5.7574427,124.929549 7.96190515,125.696885 8.84762667,127.526687 C9.73616,129.35649 8.9713465,131.562933 7.14085536,132.448322" id="Fill-15" fill="#CDCCCE"></path>
                        <path d="M250.900978,226.625241 C248.536242,227.769219 245.690686,226.785454 244.543465,224.418798 C243.399057,222.054952 244.388816,219.210466 246.75074,218.066488 C249.115475,216.9197 251.961032,217.906275 253.108252,220.270121 C254.25266,222.633967 253.265713,225.481263 250.900978,226.625241" id="Fill-17" fill="#CDCCCE"></path>
                        <path d="M28.7676442,156.836692 C26.9371531,157.72208 24.7298788,156.957554 23.8441573,155.127752 C22.9584358,153.295139 23.7204375,151.091506 25.5509286,150.206118 C27.3870434,149.317919 29.588694,150.082445 30.4772273,151.915058 C31.3657607,153.74486 30.5981354,155.948493 28.7676442,156.836692" id="Fill-19" fill="#CDCCCE"></path>
                        <path d="M51.561336,156.836692 C49.7308449,157.72208 47.5235706,156.957554 46.6378491,155.127752 C45.7493158,153.295139 46.5141293,151.091506 48.3446204,150.206118 C50.1779234,149.317919 52.3823858,150.082445 53.2681073,151.915058 C54.1566407,153.74486 53.3918272,155.948493 51.561336,156.836692" id="Fill-21" fill="#CDCCCE"></path>
                        <path d="M195.666821,156.836692 C193.83633,157.72208 191.629056,156.957554 190.743334,155.127752 C189.857613,153.295139 190.622426,151.091506 192.452917,150.206118 C194.28622,149.317919 196.487871,150.082445 197.376404,151.915058 C198.264938,153.74486 197.497312,155.948493 195.666821,156.836692" id="Fill-23" fill="#CDCCCE"></path>
                        <path d="M179.767979,225.464118 C177.937488,226.349506 175.730214,225.58498 174.844492,223.755178 C173.955959,221.922565 174.720773,219.718932 176.551264,218.833544 C178.384567,217.945345 180.589029,218.70987 181.474751,220.539673 C182.363284,222.372286 181.598471,224.575919 179.767979,225.464118" id="Fill-25" fill="#CDCCCE"></path>
                        <path d="M177.486192,132.448322 C175.655701,133.336521 173.451238,132.571995 172.562705,130.742193 C171.676984,128.909579 172.441797,126.705947 174.272288,125.820558 C176.105591,124.929549 178.310054,125.696885 179.195775,127.526687 C180.084309,129.35649 179.319495,131.562933 177.486192,132.448322" id="Fill-27" fill="#CDCCCE"></path>
                        <path d="M217.779773,182.30102 C215.949282,183.186408 213.742007,182.421882 212.853474,180.59208 C211.967753,178.759467 212.732566,176.555834 214.563057,175.670446 C216.39636,174.782247 218.600823,175.546772 219.486544,177.379385 C220.375077,179.209188 219.610264,181.412821 217.779773,182.30102" id="Fill-29" fill="#CDCCCE"></path>
                    </g>
                </g>
            </g>
        </g>
    </g>
</svg>