<svg width="32" height="24" viewBox="0 0 24 24" fill="none" xmlns="http://www.w3.org/2000/svg">
	<path fill-rule="evenodd" clip-rule="evenodd" d="M6.46155 20.7727C6.46147 22.5586 5.01685 24 3.22861 24C1.44727 24 0 22.5585 0 20.7727C0 18.9962 1.44727 17.5385 3.22861 17.5385C5.01693 17.5385 6.46155 18.9962 6.46155 20.7727ZM15.6923 23.9999L11.1148 24C11.1148 21.0231 9.95707 18.221 7.85855 16.1242C5.75785 14.0229 2.96749 12.863 0 12.863V8.30769C8.65016 8.30769 15.6923 15.3466 15.6923 23.9999ZM24 24L19.3845 23.9998C19.3845 13.3055 10.6858 4.60194 0 4.60194V0C13.2324 0 24 10.7702 24 24Z" fill="#F5A623" />
</svg>
