<svg width="25" height="11" viewBox="0 0 25 11" fill="none" xmlns="http://www.w3.org/2000/svg">
	<path fill-rule="evenodd" clip-rule="evenodd" d="M17.9249 3.04411V2.574C17.9249 2.51941 17.97 2.475 18.025 2.475H19.5747C19.6296 2.475 19.6746 2.51941 19.6746 2.574V3.04411C19.6746 3.09856 19.6296 3.14297 19.5747 3.14297H19.1997C19.1697 3.14297 19.1497 3.16291 19.1497 3.19261V5.2217C19.1497 5.25154 19.1697 5.2712 19.1997 5.2712H19.6246C19.6797 5.2712 19.7246 5.31575 19.7246 5.37006V5.84031C19.7246 5.89476 19.6797 5.93931 19.6246 5.93931H17.975C17.92 5.93931 17.875 5.89476 17.875 5.84031V5.37006C17.875 5.31589 17.92 5.2712 17.975 5.2712H18.3999C18.4299 5.2712 18.4499 5.25154 18.4499 5.2217V3.19261C18.4499 3.16291 18.4299 3.14297 18.3999 3.14297H18.025C17.97 3.14297 17.9249 3.09856 17.9249 3.04411ZM20.2799 2.574C20.2799 2.51941 20.325 2.475 20.3799 2.475H20.9747C21.0497 2.475 21.0847 2.51941 21.0997 2.5641L21.7846 4.44469C21.7946 4.47439 21.8296 4.46449 21.8296 4.43479V2.574C21.8296 2.51941 21.8746 2.475 21.9296 2.475H22.4296C22.4844 2.475 22.5294 2.51941 22.5294 2.574V5.84031C22.5294 5.89476 22.4844 5.93931 22.4296 5.93931H21.8396C21.7546 5.93931 21.7196 5.89476 21.7047 5.85516L21.0247 4.11799C21.0147 4.08843 20.9797 4.09819 20.9797 4.12789V5.84031C20.9797 5.89476 20.9349 5.93931 20.8797 5.93931H20.3799C20.325 5.93931 20.2799 5.89476 20.2799 5.84031V2.574ZM0.8125 3.2175H15.25V10.0856C15.25 10.1197 15.2219 10.1475 15.1875 10.1475H0.8125C0.778056 10.1475 0.75 10.1197 0.75 10.0856V3.27937C0.75 3.24541 0.778056 3.2175 0.8125 3.2175ZM25 8.04375V0.37125C25 0.166238 24.8319 0 24.625 0H15.625C15.4181 0 15.25 0.166238 15.25 0.37125V2.475H0.375C0.167917 2.475 0 2.64137 0 2.84625V10.5187C0 10.7238 0.167917 10.89 0.375 10.89H15.625C15.8321 10.89 16 10.7238 16 10.5187V8.415H24.625C24.8319 8.415 25 8.24876 25 8.04375Z" fill="#36B4A7" />
	<path fill-rule="evenodd" clip-rule="evenodd" d="M10.5443 8.31532V5.04901C10.5443 4.99442 10.4993 4.95001 10.4444 4.95001H9.94444C9.88944 4.95001 9.84444 4.99442 9.84444 5.04901V6.9098C9.84444 6.9395 9.80958 6.9494 9.79944 6.9197L9.11458 5.03911C9.09958 4.99442 9.06472 4.95001 8.98958 4.95001H8.39472C8.33986 4.95001 8.29472 4.99442 8.29472 5.04901V8.31532C8.29472 8.36977 8.33986 8.41432 8.39472 8.41432H8.89458C8.94972 8.41432 8.99458 8.36977 8.99458 8.31532V6.6029C8.99458 6.5732 9.02958 6.56344 9.03958 6.593L9.71958 8.33017C9.73444 8.36977 9.76944 8.41432 9.85444 8.41432H10.4444C10.4993 8.41432 10.5443 8.36977 10.5443 8.31532ZM4.87458 5.54387V5.04901C4.87458 4.99442 4.82958 4.95001 4.77458 4.95001H2.725C2.66986 4.95001 2.625 4.99442 2.625 5.04901V5.54387C2.625 5.59832 2.66986 5.64287 2.725 5.64287H3.34986C3.37986 5.64287 3.39986 5.66267 3.39986 5.69237V8.31532C3.39986 8.36977 3.44486 8.41432 3.49986 8.41432H3.99972C4.05458 8.41432 4.09972 8.36977 4.09972 8.31532V5.69237C4.09972 5.66267 4.11972 5.64287 4.14972 5.64287H4.77458C4.82958 5.64287 4.87458 5.59832 4.87458 5.54387ZM7.72444 7.3751V5.04901C7.72444 4.99442 7.67958 4.95001 7.62444 4.95001H7.11958C7.06458 4.95001 7.01958 4.99442 7.01958 5.04901V7.3751C7.01958 7.59276 6.83972 7.77096 6.53458 7.77096C6.23972 7.77096 6.05986 7.59276 6.05986 7.3751V5.04901C6.05986 4.99442 6.01472 4.95001 5.95986 4.95001H5.455C5.39986 4.95001 5.35486 4.99442 5.35486 5.04901V7.3751C5.35486 7.97391 5.85486 8.46877 6.53458 8.46877C7.22458 8.46877 7.72444 7.97391 7.72444 7.3751ZM11.0997 5.04901V8.31532C11.0997 8.36977 11.1447 8.41432 11.1997 8.41432H13.0343C13.0893 8.41432 13.1343 8.36977 13.1343 8.31532V7.82046C13.1343 7.76601 13.0893 7.7216 13.0343 7.72146H11.8496C11.8196 7.72146 11.7994 7.70166 11.7994 7.67196V7.0781C11.7994 7.0484 11.8196 7.0286 11.8496 7.0286H12.9743C13.0293 7.0286 13.0743 6.98419 13.0743 6.9296V6.43474C13.0743 6.38029 13.0293 6.33574 12.9743 6.33574H11.8496C11.8196 6.33574 11.7994 6.31594 11.7994 6.28624V5.69237C11.7994 5.66267 11.8196 5.64287 11.8496 5.64287H13.0143C13.0693 5.64287 13.1143 5.59832 13.1143 5.54387V5.04901C13.1143 4.99442 13.0693 4.95001 13.0143 4.95001H11.1997C11.1447 4.95001 11.0997 4.99442 11.0997 5.04901Z" fill="#36B4A7" />
</svg>
