<svg width="712" height="353" viewBox="0 0 712 353" fill="none" xmlns="http://www.w3.org/2000/svg">
	<path d="M686 330H572.191V277.596H472.992V227.573H588.328V132H423" stroke="#D5D7E2" />
	<path fill-rule="evenodd" clip-rule="evenodd" d="M614.104 227.072C614.104 241.451 602.449 253.106 588.074 253.106C573.698 253.106 562.043 241.451 562.043 227.072C562.043 212.696 573.698 201.041 588.074 201.041C602.449 201.041 614.104 212.696 614.104 227.072Z" stroke="#D5D7E2" />
	<path fill-rule="evenodd" clip-rule="evenodd" d="M401.581 82.5488C401.581 96.9281 389.926 108.583 375.55 108.583C361.175 108.583 349.52 96.9281 349.52 82.5488C349.52 68.1733 361.175 56.5182 375.55 56.5182C389.926 56.5182 401.581 68.1733 401.581 82.5488Z" stroke="#D5D7E2" />
	<path fill-rule="evenodd" clip-rule="evenodd" d="M245.818 237.505C245.818 245.353 239.457 251.714 231.609 251.714C223.766 251.714 217.4 245.353 217.4 237.505C217.4 229.661 223.766 223.296 231.609 223.296C239.457 223.296 245.818 229.661 245.818 237.505Z" stroke="#D5D7E2" />
	<path fill-rule="evenodd" clip-rule="evenodd" d="M322.096 14.8275C322.096 22.6711 315.734 29.0326 307.887 29.0326C300.043 29.0326 293.678 22.6711 293.678 14.8275C293.678 6.97997 300.043 0.618408 307.887 0.618408C315.734 0.618408 322.096 6.97997 322.096 14.8275Z" stroke="#D5D7E2" />
	<path d="M204.701 180.75H230.96V237.505H276.722V177.972H309.354V14.5098H251.674V122.409" stroke="#D5D7E2" stroke-linecap="round" stroke-linejoin="round" />
	<path d="M81.1699 180.75H215.436" stroke="#D5D7E2" stroke-linecap="round" stroke-linejoin="round" />
	<path d="M422.957 131.647V82.5503H375.551V177.974H422.957V227.071V316.524" stroke="#D5D7E2" stroke-linecap="round" stroke-linejoin="round" />
	<path fill-rule="evenodd" clip-rule="evenodd" d="M335.628 177.973C335.628 192.352 323.972 204.007 309.597 204.007C295.222 204.007 283.566 192.352 283.566 177.973C283.566 163.597 295.222 151.942 309.597 151.942C323.972 151.942 335.628 163.597 335.628 177.973Z" stroke="#D5D7E2" />
	<path fill-rule="evenodd" clip-rule="evenodd" d="M117.429 179.647C117.429 199.292 101.502 215.219 81.8561 215.219C62.2064 215.219 46.2793 199.292 46.2793 179.647C46.2793 160.001 62.2064 144.074 81.8561 144.074C101.502 144.074 117.429 160.001 117.429 179.647Z" stroke="#D5D7E2" />
	<path fill-rule="evenodd" clip-rule="evenodd" d="M235.401 237.505C235.401 239.599 233.706 241.293 231.613 241.293C229.519 241.293 227.824 239.599 227.824 237.505C227.824 235.416 229.519 233.717 231.613 233.717C233.706 233.717 235.401 235.416 235.401 237.505Z" fill="#D5D7E2" />
	<path fill-rule="evenodd" clip-rule="evenodd" d="M379.338 177.973C379.338 180.066 377.643 181.761 375.55 181.761C373.457 181.761 371.762 180.066 371.762 177.973C371.762 175.883 373.457 174.184 375.55 174.184C377.643 174.184 379.338 175.883 379.338 177.973Z" fill="#D5D7E2" />
	<path fill-rule="evenodd" clip-rule="evenodd" d="M426.748 176.571C426.748 178.66 425.054 180.359 422.96 180.359C420.867 180.359 419.172 178.66 419.172 176.571C419.172 174.477 420.867 172.782 422.96 172.782C425.054 172.782 426.748 174.477 426.748 176.571Z" fill="#D5D7E2" />
	<path fill-rule="evenodd" clip-rule="evenodd" d="M256.745 122.057C256.745 124.831 254.496 127.079 251.722 127.079C248.947 127.079 246.699 124.831 246.699 122.057C246.699 119.282 248.947 117.034 251.722 117.034C254.496 117.034 256.745 119.282 256.745 122.057Z" fill="#D5D7E2" />
	<path fill-rule="evenodd" clip-rule="evenodd" d="M256.745 14.8274C256.745 17.5981 254.496 19.8463 251.722 19.8463C248.947 19.8463 246.699 17.5981 246.699 14.8274C246.699 12.053 248.947 9.80475 251.722 9.80475C254.496 9.80475 256.745 12.053 256.745 14.8274Z" fill="#D5D7E2" />
	<path fill-rule="evenodd" clip-rule="evenodd" d="M312.827 14.8274C312.827 17.5981 310.582 19.8463 307.808 19.8463C305.033 19.8463 302.785 17.5981 302.785 14.8274C302.785 12.053 305.033 9.80475 307.808 9.80475C310.582 9.80475 312.827 12.053 312.827 14.8274Z" fill="#D5D7E2" />
	<path fill-rule="evenodd" clip-rule="evenodd" d="M313.899 177.973C313.899 180.747 311.651 182.995 308.876 182.995C306.102 182.995 303.854 180.747 303.854 177.973C303.854 175.198 306.102 172.954 308.876 172.954C311.651 172.954 313.899 175.198 313.899 177.973Z" fill="#D5D7E2" />
	<path fill-rule="evenodd" clip-rule="evenodd" d="M710.568 329.838C710.568 342.135 700.6 352.103 688.303 352.103C676.005 352.103 666.033 342.135 666.033 329.838C666.033 317.541 676.005 307.573 688.303 307.573C700.6 307.573 710.568 317.541 710.568 329.838Z" stroke="#D5D7E2" />
	<path fill-rule="evenodd" clip-rule="evenodd" d="M690.983 327.541C692.461 329.023 692.461 331.418 690.983 332.9C689.501 334.378 687.101 334.378 685.623 332.9C684.141 331.418 684.141 329.023 685.623 327.541C687.101 326.062 689.501 326.062 690.983 327.541Z" fill="#D5D7E2" />
	<path fill-rule="evenodd" clip-rule="evenodd" d="M426.033 313.449C427.515 314.931 427.515 317.327 426.033 318.809C424.555 320.287 422.156 320.287 420.678 318.809C419.196 317.327 419.196 314.931 420.678 313.449C422.156 311.971 424.555 311.971 426.033 313.449Z" fill="#D5D7E2" />
	<path fill-rule="evenodd" clip-rule="evenodd" d="M427.979 130.26C427.979 133.035 425.731 135.283 422.956 135.283C420.182 135.283 417.934 133.035 417.934 130.26C417.934 127.486 420.182 125.242 422.956 125.242C425.731 125.242 427.979 127.486 427.979 130.26Z" fill="#D5D7E2" />
	<path fill-rule="evenodd" clip-rule="evenodd" d="M380.729 82.5487C380.729 85.3232 378.481 87.5714 375.706 87.5714C372.936 87.5714 370.688 85.3232 370.688 82.5487C370.688 79.7743 372.936 77.5299 375.706 77.5299C378.481 77.5299 380.729 79.7743 380.729 82.5487Z" fill="#D5D7E2" />
	<path d="M81.8543 89.1464V299.492H24.248" stroke="#D5D7E2" stroke-linecap="round" stroke-linejoin="round" />
	<path fill-rule="evenodd" clip-rule="evenodd" d="M84.5324 178.759C86.0106 180.237 86.0106 182.636 84.5324 184.114C83.0504 185.596 80.6551 185.596 79.1731 184.114C77.6949 182.636 77.6949 180.237 79.1731 178.759C80.6551 177.276 83.0504 177.276 84.5324 178.759Z" fill="#D5D7E2" />
	<path fill-rule="evenodd" clip-rule="evenodd" d="M95.379 89.1464C95.379 96.99 89.0136 103.355 81.17 103.355C73.3225 103.355 66.9609 96.99 66.9609 89.1464C66.9609 81.2989 73.3225 74.9373 81.17 74.9373C89.0136 74.9373 95.379 81.2989 95.379 89.1464Z" stroke="#D5D7E2" />
	<path d="M81.1701 89.1463H25.5645" stroke="#D5D7E2" stroke-linecap="round" stroke-linejoin="round" />
	<path fill-rule="evenodd" clip-rule="evenodd" d="M84.5324 86.4674C86.0106 87.9456 86.0106 90.3447 84.5324 91.8229C83.0504 93.305 80.6551 93.305 79.1731 91.8229C77.6949 90.3447 77.6949 87.9456 79.1731 86.4674C80.6551 84.9854 83.0504 84.9854 84.5324 86.4674Z" fill="#D5D7E2" />
	<path fill-rule="evenodd" clip-rule="evenodd" d="M23.7697 86.4674C25.2518 87.9456 25.2518 90.3447 23.7697 91.8229C22.2916 93.305 19.8924 93.305 18.4143 91.8229C16.9322 90.3447 16.9322 87.9456 18.4143 86.4674C19.8924 84.9854 22.2916 84.9854 23.7697 86.4674Z" fill="#D5D7E2" />
	<path fill-rule="evenodd" clip-rule="evenodd" d="M52.9557 299.494C52.9557 313.869 41.3005 325.524 26.9212 325.524C12.5497 325.524 0.894531 313.869 0.894531 299.494C0.894531 285.114 12.5497 273.459 26.9212 273.459C41.3005 273.459 52.9557 285.114 52.9557 299.494Z" stroke="#D5D7E2" />
	<path d="M123.701 299.494H81.8555" stroke="#D5D7E2" stroke-linecap="round" stroke-linejoin="round" />
	<path fill-rule="evenodd" clip-rule="evenodd" d="M131.278 299.494C131.278 301.583 129.583 303.282 127.489 303.282C125.396 303.282 123.701 301.583 123.701 299.494C123.701 297.4 125.396 295.705 127.489 295.705C129.583 295.705 131.278 297.4 131.278 299.494Z" fill="#D5D7E2" />
	<path fill-rule="evenodd" clip-rule="evenodd" d="M475.737 225.303C477.219 226.781 477.219 229.18 475.737 230.659C474.258 232.141 471.859 232.141 470.381 230.659C468.899 229.18 468.899 226.781 470.381 225.303C471.859 223.821 474.258 223.821 475.737 225.303Z" fill="#D5D7E2" />
	<path fill-rule="evenodd" clip-rule="evenodd" d="M475.737 275.248C477.219 276.727 477.219 279.126 475.737 280.604C474.258 282.086 471.859 282.086 470.381 280.604C468.899 279.126 468.899 276.727 470.381 275.248C471.859 273.766 474.258 273.766 475.737 275.248Z" fill="#D5D7E2" />
</svg>
