<?xml version="1.0" encoding="UTF-8"?>
<svg width="173px" height="258px" viewBox="0 0 173 258" version="1.1" xmlns="http://www.w3.org/2000/svg" xmlns:xlink="http://www.w3.org/1999/xlink">
    <!-- Generator: Sketch 52.5 (67469) - http://www.bohemiancoding.com/sketch -->
    <title>Group</title>
    <desc>Created with Sketch.</desc>
    <g id="Symbols" stroke="none" stroke-width="1" fill="none" fill-rule="evenodd">
        <g id="Component/Footer" transform="translate(-33.000000, -63.000000)" stroke="#E6E8E3">
            <g id="Group-+-Group-3-Mask">
                <g id="Group" transform="translate(34.000000, 64.604444)">
                    <path d="M128.193747,9.94538863 C128.193747,15.2996695 123.853627,19.6408124 118.498323,19.6408124 C113.144042,19.6408124 108.803923,15.2996695 108.803923,9.94538863 C108.803923,4.59110773 113.144042,0.249964853 118.498323,0.249964853 C123.853627,0.249964853 128.193747,4.59110773 128.193747,9.94538863 Z" id="Stroke-1" stroke-width="3"></path>
                    <path d="M91.6931474,23.6297107 C91.6931474,27.7672026 88.3395582,31.1218152 84.2010429,31.1218152 C80.063551,31.1218152 76.7089385,27.7672026 76.7089385,23.6297107 C76.7089385,19.4922188 80.063551,16.1376063 84.2010429,16.1376063 C88.3395582,16.1376063 91.6931474,19.4922188 91.6931474,23.6297107 Z" id="Stroke-3" stroke-width="2"></path>
                    <path d="M65.6681902,67.7046938 C65.6681902,71.3131025 62.7433938,74.2389223 59.1349851,74.2389223 C55.5265764,74.2389223 52.6007566,71.3131025 52.6007566,67.7046938 C52.6007566,64.0962851 55.5265764,61.1714886 59.1349851,61.1714886 C62.7433938,61.1714886 65.6681902,64.0962851 65.6681902,67.7046938 Z" id="Stroke-5" stroke-width="2"></path>
                    <path d="M68.5194062,7.4615631 C68.5194062,11.1170469 65.5567451,14.0797081 61.9012612,14.0797081 C58.2468008,14.0797081 55.2841396,11.1170469 55.2841396,7.4615631 C55.2841396,3.80607928 58.2468008,0.84341812 61.9012612,0.84341812 C65.5567451,0.84341812 68.5194062,3.80607928 68.5194062,7.4615631 Z" id="Stroke-7" stroke-width="1.353"></path>
                    <path d="M40.1808103,15.8794096 C40.4694011,18.8983562 38.2558481,21.5795901 35.2358781,21.8671576 C32.2169315,22.1557484 29.5367209,19.9421954 29.2481301,16.9232488 C28.9595393,13.9043022 31.1741157,11.2230682 34.1920389,10.9344774 C37.2120089,10.64691 39.8922195,12.860463 40.1808103,15.8794096 Z" id="Stroke-9" stroke-width="1.353"></path>
                    <path d="M11.3400458,34.4150254 C11.6286367,37.433972 9.41508361,40.1152059 6.39511363,40.4037968 C3.37616702,40.6913642 0.695956462,38.4778112 0.407365634,35.4588646 C0.119798178,32.439918 2.33335123,29.758684 5.35229784,29.4700932 C8.37124444,29.1825257 11.0524784,31.3960788 11.3400458,34.4150254 Z" id="Stroke-11" stroke-width="1.353"></path>
                    <path d="M55.2585553,43.5847431 C55.5471462,46.6036897 53.3335931,49.2849237 50.3136231,49.5735145 C47.2946765,49.8610819 44.614466,47.6475289 44.3258751,44.6285823 C44.0372843,41.6096357 46.2518607,38.9284017 49.269784,38.6398109 C52.2897539,38.3522435 54.9699645,40.5657965 55.2585553,43.5847431 Z" id="Stroke-13" stroke-width="1.353"></path>
                    <path d="M79.4776707,99.5885564 C79.7652382,102.607503 77.5516851,105.288737 74.5327385,105.576304 C71.5137919,105.864895 68.8335813,103.651342 68.5449905,100.632396 C68.2563997,97.613449 70.4699527,94.932215 73.4888993,94.6436242 C76.5088693,94.3560567 79.1890799,96.5696098 79.4776707,99.5885564 Z" id="Stroke-15" stroke-width="1.353"></path>
                    <polyline id="Stroke-17" stroke-linecap="round" stroke-linejoin="round" points="35.2362874 21.867567 35.2362874 79.7811966 58.368582 102.789663"></polyline>
                    <polyline id="Stroke-19" points="84.9682647 31.1218152 84.9682647 81.7388043 100.144867 96.4262354"></polyline>
                    <polyline id="Stroke-21" stroke-linecap="round" stroke-linejoin="round" points="61.9014659 14.0795034 61.9014659 36.5363727 84.9682647 59.7085788"></polyline>
                    <polyline id="Stroke-23" stroke-linecap="round" stroke-linejoin="round" points="46.8027417 48.7090724 39.7660377 55.629112 39.7660377 84.2855672"></polyline>
                    <polyline id="Stroke-25" stroke-linecap="round" stroke-linejoin="round" points="10.180668 38.3363812 27.5268188 54.9764055 27.5268188 65.0934585 35.2358781 72.2744579"></polyline>
                    <path d="M74.5332502,105.576611 L74.5332502,129.715904" id="Stroke-27" stroke-linecap="round" stroke-linejoin="round"></path>
                    <polyline id="Stroke-29" stroke-linecap="round" stroke-linejoin="round" points="59.1346781 74.2384106 59.1346781 114.866268 84.9686741 141.101426"></polyline>
                    <g id="Group-33" transform="translate(84.629529, 19.005401)" stroke-linecap="round" stroke-linejoin="round">
                        <polyline id="Stroke-31" points="33.8692038 0.635002159 33.8692038 20.9581414 15.5150318 38.7453654 15.5150318 97.4920196 0.338429031 113.157794 0.338429031 280.404366"></polyline>
                    </g>
                    <path d="M145.570087,153.419547 C145.570087,158.218137 141.680251,162.107973 136.881661,162.107973 C132.084095,162.107973 128.194259,158.218137 128.194259,153.419547 C128.194259,148.620957 132.084095,144.731121 136.881661,144.731121 C141.680251,144.731121 145.570087,148.620957 145.570087,153.419547 Z" id="Stroke-36" stroke-width="2"></path>
                    <path d="M170.29393,125.301795 C170.29393,130.100385 166.404094,133.99022 161.605504,133.99022 C156.807937,133.99022 152.918101,130.100385 152.918101,125.301795 C152.918101,120.503204 156.807937,116.613369 161.605504,116.613369 C166.404094,116.613369 170.29393,120.503204 170.29393,125.301795 Z" id="Stroke-38" stroke-width="2"></path>
                    <path d="M110.421669,200.059611 C110.421669,204.858201 106.531833,208.748037 101.733243,208.748037 C96.9356761,208.748037 93.0458401,204.858201 93.0458401,200.059611 C93.0458401,195.261021 96.9356761,191.371185 101.733243,191.371185 C106.531833,191.371185 110.421669,195.261021 110.421669,200.059611 Z" id="Stroke-40" stroke-width="3.869"></path>
                    <polyline id="Stroke-44" points="136.881968 162.107666 136.881968 171.066262 108.803718 195.021347"></polyline>
                    <polyline id="Stroke-46" stroke-linecap="round" stroke-linejoin="round" points="101.73355 208.747525 101.73355 226.466184 84.4262871 243.773446"></polyline>
                    <path d="M110.787933,144.731633 C110.787933,147.408773 108.617362,149.579344 105.940222,149.579344 C103.263081,149.579344 101.09251,147.408773 101.09251,144.731633 C101.09251,142.054492 103.263081,139.883921 105.940222,139.883921 C108.617362,139.883921 110.787933,142.054492 110.787933,144.731633 Z" id="Stroke-60" stroke-width="1.353"></path>
                    <path d="M102.251171,155.56873 C102.251171,158.24587 100.0806,160.416442 97.4034593,160.416442 C94.7263188,160.416442 92.5567708,158.24587 92.5567708,155.56873 C92.5567708,152.891589 94.7263188,150.721018 97.4034593,150.721018 C100.0806,150.721018 102.251171,152.891589 102.251171,155.56873 Z" id="Stroke-62" stroke-width="1.353"></path>
                    <polyline id="Stroke-70" stroke-linecap="round" stroke-linejoin="round" points="105.940426 149.578833 105.940426 172.682473 84.9684694 191.956656"></polyline>
                    <polyline id="Stroke-72" stroke-linecap="round" stroke-linejoin="round" points="97.403664 160.416237 97.403664 172.56673 84.9686741 183.878057"></polyline>
                    <polyline id="Stroke-78" points="161.605708 134.767983 161.605708 180.991637 128.646998 213.951371 128.646998 226.260486 101.901178 253.006306 84.8507816 270.056702"></polyline>
                </g>
            </g>
        </g>
    </g>
</svg>