<?xml version="1.0" encoding="UTF-8"?>
<svg width="56px" height="59px" viewBox="0 0 56 59" version="1.1" xmlns="http://www.w3.org/2000/svg" xmlns:xlink="http://www.w3.org/1999/xlink">
    <!-- Generator: Sketch 52.5 (67469) - http://www.bohemiancoding.com/sketch -->
    <title>Group 3</title>
    <desc>Created with Sketch.</desc>
    <g id="Symbols" stroke="none" stroke-width="1" fill="none" fill-rule="evenodd">
        <g id="Mobile/Footer" transform="translate(-241.000000, -338.000000)" fill="#E6E8E3">
            <g id="Group-7" transform="translate(294.929688, 321.929688) scale(-1, 1) translate(-294.929688, -321.929688) translate(240.429688, 245.929688)">
                <g id="Group-3" transform="translate(53.333906, 92.609375)">
                    <path d="M44.9798484,49.7416652 C45.5675437,49.7979602 46.2356605,49.6983613 46.7237569,49.9489051 C47.4091953,50.300285 48.2616628,50.8118893 48.4732331,51.445363 C48.6402623,51.9470692 48.1082434,52.903466 47.6133421,53.3637242 C46.2554566,54.6263412 44.589495,54.3980679 42.9396178,53.9916302 C41.5433774,53.6482924 40.144044,53.314234 38.7360497,53.0234795 C37.6324198,52.7952063 37.0892656,53.1614333 37.2210331,54.4184826 C37.2754722,54.9399849 36.9339903,55.5029351 36.7725287,56.0473266 C36.1780285,55.819672 35.4418628,55.736776 35.0230526,55.3284824 C34.4539161,54.7735743 34.048097,54.0058586 33.7128014,53.2653625 C32.8535289,51.367416 32.3487296,51.2387417 30.6128632,52.4902234 C28.235481,54.205675 25.8797508,55.9607188 23.4176167,57.5474962 C20.615238,59.3532674 18.0151502,57.9724927 17.5932469,54.5329285 C17.4818941,53.6185984 17.5623155,52.6801417 17.5573665,51.753439 C17.5511803,50.4326711 16.9671967,49.7348603 15.5691005,49.8183749 C13.922935,49.9161179 12.274295,50.0262334 10.6268922,50.0256148 C7.92163791,50.0243775 5.70076826,48.3627464 5.0957514,45.7546164 C4.9262477,45.0233998 5.08399749,43.798519 5.56467039,43.4471391 C6.07627463,43.0728699 7.25413976,43.2429923 7.9538065,43.5733389 C9.24116854,44.1808303 10.3757298,45.1044398 11.6024664,45.8492663 C12.8254913,46.5922369 13.9619085,46.2656021 15.0494541,45.4780903 C16.1258645,44.6980021 16.1704056,43.5782879 15.7707728,42.5538422 C14.2075032,38.5494719 12.0416914,34.9602001 8.01938092,32.9595616 C7.23929272,32.571064 6.18391567,32.7801598 5.31598248,32.514769 C3.76941587,32.0421382 2.18882479,31.5627026 0.791347204,30.7826144 C0.268607689,30.490004 -0.112466324,29.2799703 0.0298178043,28.614328 C0.254997903,27.5620441 1.20768294,27.2100455 2.36018438,27.4383188 C5.62529581,28.0854022 5.62962619,28.0588013 5.76757993,24.6934723 C5.78613873,24.230121 5.73169959,23.7438804 5.85233178,23.3077486 C6.70912969,20.1997684 6.68438462,17.4097622 3.91603039,15.0552692 C2.84642492,14.145888 3.23863421,12.2170102 4.43505814,11.3645426 C4.86067327,11.0614156 5.89749153,11.0669832 6.29093808,11.3843387 C7.06298413,12.0060585 7.53252175,12.987819 8.21610419,13.7406876 C8.78029169,14.3624074 9.54986324,15.3812854 10.0868312,15.2990081 C10.8032008,15.1895112 11.5603998,14.2863163 11.9866336,13.5439643 C13.185532,11.4560994 12.6491827,10.1730677 10.5804952,8.84302044 C8.11093766,7.25624309 5.90120329,5.33911912 5.67293006,2.13339585 C5.62158405,1.41702619 6.12947652,0.124715132 6.57488771,0.0319211349 C7.30115539,-0.12026102 8.37385399,0.294837459 8.96340518,0.8367544 C9.85113442,1.6539602 10.3497475,2.88193409 11.1954101,3.76038392 C12.2470754,4.85411583 12.9665382,4.57325933 13.2814192,3.10525831 C13.346375,2.8033685 13.2820378,2.40682882 13.4546346,2.20763104 C13.9532477,1.63107101 14.5279519,0.73344375 15.0989442,0.713647697 C15.7113846,0.691995765 16.6733491,1.4009419 16.9102831,2.01338228 C17.3043482,3.0285486 17.2969247,4.21816764 17.359406,5.33973775 C17.6105684,9.88540633 16.1277204,13.7487297 13.1106782,17.2049968 C8.7060565,22.2505157 8.67759967,27.9066191 12.8075512,32.7405677 C13.2028536,33.2039191 13.9513918,33.3653806 14.535994,33.6672704 C14.7048791,33.0078144 15.0964697,32.3087663 14.9882101,31.6981818 C14.8316975,30.8160202 14.2402905,30.0204664 13.9662389,29.1463469 C13.4942267,27.6393724 13.0537646,26.1144577 12.7592983,24.5666539 C12.6813513,24.1577417 13.1026361,23.3430104 13.4447366,23.2465046 C13.8233361,23.1394822 14.5570273,23.5205562 14.8156132,23.9047234 C15.5592025,25.0095905 16.1085429,26.2443693 16.807591,27.3826424 C17.0123565,27.7167007 17.462098,27.9004329 17.7992495,28.1534512 C17.9520503,27.7952663 18.2805411,27.408006 18.2267206,27.0844643 C17.9922611,25.6777073 17.6365507,24.2907464 17.3470335,22.8920315 C17.1917582,22.1410188 16.9975094,21.3813453 16.9869928,20.6241463 C16.9826624,20.2436909 17.2734169,19.6417671 17.5715949,19.5341261 C17.8914249,19.4196802 18.5100516,19.6535211 18.7624512,19.9418011 C19.225184,20.4701082 19.6854422,21.1091495 19.8456665,21.7747918 C20.4469716,24.2758993 21.1763324,26.7881421 21.3643949,29.3325535 C21.4912134,31.051717 20.8589769,32.8482088 20.4370736,34.5785075 C20.1457004,35.7718383 19.5419208,36.8903153 19.2660133,38.0855019 C19.1497115,38.5865895 19.3520024,39.4260659 19.7176108,39.6970243 C20.0708466,39.959322 20.9511523,39.8906545 21.3718184,39.6166029 C23.3316276,38.3409947 24.2954479,36.2852984 24.9555226,34.1776374 C26.1272014,30.4318531 25.8104646,26.8772244 23.0643809,23.766151 C22.5107101,23.1388636 21.9700304,22.2511343 21.9360059,21.4617667 C21.858059,19.6380554 20.7711319,18.7552752 19.4441778,17.8384705 C18.6393445,17.2823251 17.9068906,16.4713056 17.4559118,15.6101773 C17.1991817,15.1196064 17.3637364,14.1149567 17.735531,13.6868671 C18.0021591,13.3812655 18.9863941,13.4901438 19.5443953,13.6980023 C20.3003571,13.9807147 20.9443474,14.5529444 21.6551494,14.9686615 C22.9505536,15.7270977 23.6669233,15.3460237 23.8636465,13.8439982 C24.0776914,12.2114425 23.1800641,11.0496617 22.3715191,9.76291826 C21.6081338,8.54855415 20.9932189,7.1448903 20.7414379,5.74803133 C20.6282292,5.12074391 21.4312066,3.88225337 22.0523077,3.69357225 C22.6888745,3.49994211 23.61434,4.24786172 24.4068007,4.59738577 C24.485985,4.63202887 24.5466104,4.75575419 24.5756858,4.85040407 C25.9552232,9.33606587 27.9824627,13.7388317 25.9230546,18.588246 C24.6833269,21.5056892 25.3947475,23.7129491 27.9199815,25.4011812 C29.0632035,26.1651851 29.6824488,26.0061981 30.1513678,24.7107939 C30.5175947,23.6987207 30.7229788,22.6303525 31.0557999,21.6052881 C31.3490289,20.7039491 31.9676556,19.8527188 32.9444671,20.2702918 C33.5853643,20.5437248 34.2015164,21.4308354 34.3654525,22.1490609 C34.7193069,23.6950089 34.1854321,25.09991 32.9593141,26.1744645 C32.6110273,26.4794475 32.2584101,26.7912353 31.8649636,27.0312624 C28.9815448,28.7881621 27.6960386,31.3065912 28.0282411,34.6972838 C28.3672485,38.1560254 26.2342238,40.3614294 23.8754005,42.3725846 C22.1345851,43.8560513 21.0062101,45.5702657 21.0928178,47.9519783 C21.1515873,49.5665938 22.0993234,51.0500605 23.5085549,51.5709442 C24.8602541,52.0701759 26.9252298,51.5387756 27.9045158,50.4042143 C29.2506474,48.8440379 29.7913271,46.9757854 29.7418369,44.963393 C29.6991517,43.2355688 30.3245832,41.8956234 31.5568875,40.7189956 C33.3867851,38.9713753 33.4740115,37.9753864 32.0530261,35.8615391 C30.936405,34.199908 30.2528225,32.4856935 31.1226116,30.5029951 C31.3255211,30.0396438 31.549464,29.5039131 31.9268262,29.217489 C32.4625569,28.8122885 33.3026519,28.2344912 33.7344533,28.4114185 C34.285031,28.6353613 34.7824068,29.4971082 34.907988,30.1590387 C35.2135896,31.7705611 35.208022,33.4396158 35.4857853,35.0591804 C35.7493203,36.5921372 36.671074,36.9150603 37.7029432,35.7501863 C39.0812434,34.1937217 40.354377,32.5085827 41.426457,30.7300311 C42.0642611,29.6721796 41.8260898,28.3390391 40.8430921,27.4562589 C39.025567,25.8237032 38.0431879,23.8088362 37.6868589,21.4326913 C37.61881,20.9761448 37.5680826,20.4694896 37.335479,20.0933646 C35.5556901,17.2124203 33.8074512,14.306731 31.8909459,11.517962 C30.9995049,10.2200833 29.7170919,9.1974935 28.6815109,7.99055292 C27.2073236,6.27077085 27.1528844,4.23301468 27.5636525,2.13772623 C27.8073914,0.894905304 28.648105,0.505170518 29.5110892,1.41578894 C30.5924486,2.55653647 31.4306877,3.93545526 32.3202728,5.24756238 C32.8955956,6.09755539 33.3533793,7.02611398 33.9027197,7.89466579 C34.5009317,8.8399273 35.2408092,8.78734404 35.918824,8.01158623 C36.4922909,7.35460473 36.8374845,6.41243635 37.5241601,5.96145752 C38.3463149,5.42139646 39.4239625,5.26859568 40.390876,4.94814708 C40.6092512,5.83216456 41.1159064,6.76567216 40.9736223,7.58658972 C40.7880343,8.65743244 40.1595096,9.68125954 39.592229,10.6494102 C38.7187282,12.1421563 38.3463149,13.7116121 38.7038811,15.3899462 C38.8214202,15.9411426 39.257552,16.830109 39.5761447,16.8424816 C40.1199175,16.8641335 40.957538,16.4515095 41.194472,15.9813533 C42.0920993,14.1990899 42.7546484,12.2999061 43.5935061,10.4854742 C44.0358242,9.52845876 44.5103108,8.49225913 45.2576118,7.8043463 C45.7364288,7.3632655 46.8821254,7.18262652 47.4679648,7.45234774 C48.052567,7.72145033 48.5845859,8.67413536 48.6433554,9.36947171 C48.716972,10.2361676 48.4602419,11.2439104 48.0327709,12.0171938 C46.8883116,14.0858813 45.6819897,16.1366286 44.3055454,18.0556084 C42.430488,20.6686874 42.4348184,23.3108418 43.8026019,26.0532137 C44.0172654,26.4850151 44.5851646,26.7405079 44.9897465,27.0776594 C45.2105962,26.6081218 45.5693996,26.1546685 45.6263133,25.6659534 C45.7914866,24.2480611 45.7234377,22.7961444 45.9783118,21.4005227 C46.0878088,20.7992176 46.8771764,19.7964238 47.1673123,19.8595237 C47.876877,20.0129431 48.7509965,20.5387758 49.0714451,21.1648259 C50.5722333,24.100828 50.0754761,27.0776594 48.748522,29.9221047 C48.1899021,31.1203845 47.2891817,32.15844 46.5499229,33.2732053 C45.5291889,34.8117297 46.1069862,35.8615391 47.9789504,36.0675418 C49.6059385,36.2475622 51.2737559,36.4040747 52.8098059,36.9132044 C53.5521579,37.1594178 54.5097919,38.1801518 54.5271134,38.8705391 C54.5561889,40.0583023 53.2762504,40.2339923 52.2883036,40.1801718 C51.1661149,40.1189277 50.0111389,39.9914906 48.9477197,39.651246 C45.3547362,38.5024563 41.9287818,38.9911713 38.5943842,40.5290772 C36.3871243,41.5473366 35.3051463,43.4162077 34.9636644,45.7484302 C34.6803334,47.684113 35.79448,49.0160161 37.7097481,48.6163833 C39.2006383,48.3058327 40.5684218,47.3803673 41.9739416,46.6936917 C43.1518067,46.1183689 44.2616229,45.3562209 45.4926899,44.958444 C45.986354,44.7988383 46.9371831,45.2343514 47.2755719,45.6958469 C47.5013706,46.0045416 47.1790662,46.9825903 46.8085088,47.4001633 C46.1892635,48.0973556 45.3355588,48.585452 44.5802156,49.162012 C44.713839,49.3550235 44.8468437,49.5486537 44.9798484,49.7416652" id="Fill-1"></path>
                </g>
            </g>
        </g>
    </g>
</svg>