<?xml version="1.0" encoding="UTF-8"?>
<svg width="101px" height="72px" viewBox="0 0 101 72" version="1.1" xmlns="http://www.w3.org/2000/svg" xmlns:xlink="http://www.w3.org/1999/xlink">
    <!-- Generator: Sketch 52.5 (67469) - http://www.bohemiancoding.com/sketch -->
    <title>Group 3</title>
    <desc>Created with Sketch.</desc>
    <g id="Symbols" stroke="none" stroke-width="1" fill="none" fill-rule="evenodd">
        <g id="Component/Footer" transform="translate(-140.000000, -249.000000)" fill="#E6E8E3">
            <g id="Group-+-Group-3-Mask">
                <g id="Group-3" transform="translate(140.167813, 248.971632)">
                    <path d="M89.9596969,99.4833303 C91.1350875,99.5959204 92.4713211,99.3967226 93.4475139,99.8978102 C94.8183905,100.60057 96.5233256,101.623779 96.9464662,102.890726 C97.2805246,103.894138 96.2164868,105.806932 95.2266841,106.727448 C92.5109132,109.252682 89.17899,108.796136 85.8792355,107.98326 C83.0867549,107.296585 80.2880879,106.628468 77.4720994,106.046959 C75.2648396,105.590413 74.1785312,106.322867 74.4420661,108.836965 C74.5509444,109.87997 73.8679806,111.00587 73.5450575,112.094653 C72.3560571,111.639344 70.8837257,111.473552 70.0461052,110.656965 C68.9078322,109.547149 68.096194,108.011717 67.4256027,106.530725 C65.7070579,102.734832 64.6974592,102.477483 61.2257265,104.980447 C56.4709621,108.41135 51.7595016,111.921438 46.8352335,115.094992 C41.2304761,118.706535 36.0303005,115.944985 35.1864937,109.065857 C34.9637882,107.237197 35.1246311,105.360283 35.1147331,103.506878 C35.1023605,100.865342 33.9343934,99.4697206 31.138201,99.6367498 C27.84587,99.8322358 24.54859,100.052467 21.2537845,100.05123 C15.8432758,100.048755 11.4015365,96.7254928 10.1915028,91.5092329 C9.85249539,90.0467995 10.167995,87.597038 11.1293408,86.8942781 C12.1525493,86.1457399 14.5082795,86.4859845 15.907613,87.1466778 C18.4823371,88.3616605 20.7514596,90.2088797 23.2049329,91.6985326 C25.6509826,93.1844738 27.9238169,92.5312041 30.0989082,90.9561807 C32.2517289,89.3960043 32.3408112,87.1565758 31.5415456,85.1076844 C28.4150065,77.0989438 24.0833827,69.9204002 16.0387618,65.9191231 C14.4785854,65.142128 12.3678313,65.5603197 10.631965,65.029538 C7.53883174,64.0842765 4.37764959,63.1254052 1.58269441,61.5652288 C0.537215378,60.980008 -0.224932648,58.5599405 0.0596356086,57.228656 C0.509995806,55.1240882 2.41536587,54.420091 4.72036875,54.8766375 C11.2505916,56.1708044 11.2592524,56.1176025 11.5351599,49.3869447 C11.5722775,48.4602419 11.4633992,47.4877609 11.7046636,46.6154973 C13.4182594,40.3995368 13.3687692,34.8195244 7.83206077,30.1105384 C5.69284984,28.2917761 6.47726842,24.4340203 8.87011628,22.7290853 C9.72134655,22.1228312 11.7949831,22.1339664 12.5818762,22.7686774 C14.1259683,24.0121169 15.0650435,25.9756379 16.4322084,27.4813752 C17.5605834,28.7248147 19.0997265,30.7625709 20.1736623,30.5980162 C21.6064016,30.3790224 23.1207997,28.5726326 23.9732672,27.0879286 C26.3710641,22.9121988 25.2983655,20.3461354 21.1609905,17.6860409 C16.2218753,14.5124862 11.8024066,10.6782382 11.3458601,4.26679169 C11.2431681,2.83405238 12.258953,0.249430263 13.1497754,0.0638422697 C14.6023108,-0.240522039 16.747708,0.589674918 17.9268104,1.6735088 C19.7022688,3.30792039 20.699495,5.76386817 22.3908202,7.52076785 C24.4941508,9.70823166 25.9330764,9.14651867 26.5628383,6.21051661 C26.6927499,5.60673701 26.5640756,4.81365765 26.9092692,4.41526209 C27.9064954,3.26214202 29.0559037,1.4668875 30.1978885,1.42729539 C31.4227692,1.38399153 33.3466981,2.8018838 33.8205661,4.02676456 C34.6086965,6.0570972 34.5938494,8.43633528 34.718812,10.6794755 C35.2211368,19.7708127 32.2554407,27.4974595 26.2213564,34.4099936 C17.412113,44.5010314 17.3551993,55.8132382 25.6151023,65.4811354 C26.4057072,66.4078382 27.9027836,66.7307613 29.071988,67.3345409 C29.4097581,66.0156289 30.1929395,64.6175326 29.9764201,63.3963637 C29.6633951,61.6320405 28.4805809,60.0409327 27.9324777,58.2926938 C26.9884535,55.2787448 26.1075291,52.2289155 25.5185965,49.1333077 C25.3627026,48.3154833 26.2052721,46.6860207 26.8894732,46.4930092 C27.6466722,46.2789644 29.1140546,47.0411124 29.6312265,47.8094467 C31.1184049,50.0191811 32.2170859,52.4887387 33.6151821,54.7652847 C34.0247129,55.4334015 34.9241961,55.8008657 35.5984991,56.3069023 C35.9041007,55.5905326 36.5610822,54.8160121 36.4534411,54.1689286 C35.9845221,51.3554146 35.2731015,48.5814928 34.6940669,45.7840631 C34.3835164,44.2820376 33.9950188,42.7626905 33.9739855,41.2482925 C33.9653248,40.4873817 34.5468338,39.2835343 35.1431899,39.0682522 C35.7828498,38.8393604 37.0201031,39.3070421 37.5249025,39.8836021 C38.4503679,40.9402164 39.3708844,42.2182991 39.691333,43.5495836 C40.8939432,48.5517987 42.3526648,53.5762843 42.7287898,58.6651071 C42.9824267,62.103434 41.7179539,65.6964175 40.8741471,69.157015 C40.2914008,71.5436766 39.0838416,73.7806305 38.5320266,76.1710039 C38.299423,77.173179 38.7040049,78.8521317 39.4352215,79.3940487 C40.1416932,79.9186441 41.9023046,79.781309 42.7436368,79.2332058 C46.6632553,76.6819895 48.5908959,72.5705968 49.9110451,68.3552748 C52.2544029,60.8637062 51.6209292,53.7544488 46.1287618,47.532302 C45.0214201,46.2777271 43.9400608,44.5022687 43.8720118,42.9235335 C43.7161179,39.2761108 41.5422639,37.5105503 38.8883556,35.676941 C37.2786891,34.5646502 35.8137812,32.9426112 34.9118235,31.2203546 C34.3983634,30.2392127 34.7274728,28.2299134 35.471062,27.3737341 C36.0043182,26.762531 37.9727882,26.9802876 39.0887906,27.3960047 C40.6007141,27.9614294 41.8886948,29.1058887 43.3102988,29.9373229 C45.9011072,31.4541955 47.3338465,30.6920475 47.7272931,27.6879965 C48.1553827,24.422885 46.3601282,22.0993234 44.7430382,19.5258365 C43.2162676,17.0971083 41.9864378,14.2897806 41.4828757,11.4960627 C41.2564584,10.2414878 42.8624132,7.76450674 44.1046155,7.38714449 C45.3777491,6.99988421 47.22868,8.49572344 48.8136015,9.19477155 C48.9719699,9.26405773 49.0932207,9.51150839 49.1513716,9.70080814 C51.9104465,18.6721317 55.9649255,27.4776634 51.8461093,37.1764919 C49.3666537,43.0113785 50.789495,47.4258982 55.8399629,50.8023624 C58.126407,52.3303702 59.3648975,52.0123961 60.3027355,49.4215877 C61.0351895,47.3974414 61.4459576,45.2607049 62.1115998,43.2105762 C62.6980579,41.4078982 63.9353112,39.7054377 65.8889341,40.5405836 C67.1707285,41.0874496 68.4030328,42.8616708 68.7309049,44.2981219 C69.4386138,47.3900178 68.3708642,50.1998201 65.9186282,52.348929 C65.2220546,52.9588949 64.5168202,53.5824706 63.7299271,54.0625248 C57.9630896,57.5763242 55.3920772,62.6131823 56.0564822,69.3945676 C56.734497,76.3120507 52.4684477,80.7228587 47.7508009,84.7451692 C44.2691701,87.7121025 42.0124201,91.1405314 42.1856356,95.9039566 C42.3031747,99.1331877 44.1986467,102.100121 47.0171097,103.141888 C49.7205081,104.140352 53.8504596,103.077551 55.8090316,100.808429 C58.5012947,97.6880758 59.5826541,93.9515709 59.4836738,89.9267859 C59.3983034,86.4711375 60.6491664,83.7912469 63.113775,81.4379911 C66.7735702,77.9427506 66.9480229,75.9507728 64.1060521,71.7230783 C61.87281,68.399816 60.5056451,64.9713871 62.2452232,61.0059903 C62.6510423,60.0792876 63.098928,59.0078262 63.8536525,58.434978 C64.9251138,57.6245771 66.6053038,56.4689825 67.4689066,56.8228369 C68.570062,57.2707226 69.5648137,58.9942164 69.8159761,60.3180775 C70.4271792,63.5411223 70.4160439,66.8792317 70.9715706,70.1183608 C71.4986405,73.1842744 73.3421479,73.8301206 75.4058864,71.5003727 C78.1624868,68.3874434 80.708754,65.0171655 82.852914,61.4600623 C84.1285221,59.3443591 83.6521796,56.6780783 81.6861841,54.9125178 C78.051134,51.6474064 76.0863757,47.6176725 75.3737178,42.8653826 C75.23762,41.9522896 75.1361652,40.9389792 74.670958,40.1867292 C71.1113803,34.4248406 67.6149025,28.6134619 63.7818918,23.0359241 C61.9990098,20.4401667 59.4341837,18.394987 57.3630217,15.9811058 C54.4146471,12.5415417 54.3057688,8.46602936 55.127305,4.27545247 C55.6147828,1.78981061 57.29621,1.01034104 59.0221784,2.83157788 C61.1848971,5.11307294 62.8613753,7.87091053 64.6405456,10.4951248 C65.7911911,12.1951108 66.7067586,14.052228 67.8054395,15.7893316 C69.0018634,17.6798546 70.4816183,17.5746881 71.8376479,16.0231725 C72.9845817,14.7092095 73.6749691,12.8248727 75.0483202,11.922915 C76.6926299,10.8427929 78.8479251,10.5371914 80.781752,9.89629416 C81.2185024,11.6643291 82.2318128,13.5313443 81.9472446,15.1731794 C81.5760686,17.3148649 80.3190192,19.3625191 79.184458,21.2988205 C77.4374563,24.2843127 76.6926299,27.4232243 77.4077623,30.7798924 C77.6428404,31.8822851 78.5151039,33.6602181 79.1522894,33.6849632 C80.239835,33.728267 81.915076,32.9030191 82.388944,31.9627066 C84.1841985,28.3981799 85.5092968,24.5998123 87.1870123,20.9709484 C88.0716484,19.0569175 89.0206216,16.9845183 90.5152236,15.6086926 C91.4728576,14.726531 93.7642507,14.365253 94.9359296,14.9046955 C96.105134,15.4429007 97.1691718,17.3482707 97.2867109,18.7389434 C97.433944,20.4723353 96.9204839,22.4878209 96.0655419,24.0343875 C93.7766233,28.1717625 91.3639794,32.2732572 88.6110908,36.1112169 C84.8609761,41.3373748 84.8696368,46.6216836 87.6052039,52.1064274 C88.0345308,52.9700302 89.1703293,53.4810158 89.9794929,54.1553188 C90.4211924,53.2162436 91.1387993,52.3093369 91.2526266,51.3319068 C91.5829732,48.4961223 91.4468753,45.5922888 91.9566237,42.8010454 C92.1756175,41.5984352 93.7543527,39.5928476 94.3346245,39.7190475 C95.753754,40.0258863 97.5019929,41.0775516 98.1428901,42.3296519 C101.144467,48.201656 100.150952,54.1553188 97.4970439,59.8442095 C96.3798042,62.2407691 94.5783634,64.3168801 93.0998457,66.5464105 C91.0583778,69.6234595 92.2139724,71.7230783 95.9579008,72.1350836 C99.211877,72.4951243 102.547512,72.8081494 105.619612,73.8264089 C107.104316,74.3188357 109.019584,76.3603036 109.054227,77.7410783 C109.112378,80.1166046 106.552501,80.4679845 104.576607,80.3603435 C102.33223,80.2378554 100.022278,79.9829813 97.8954395,79.3024919 C90.7094724,77.0049126 83.8575637,77.9823427 77.1887684,81.0581544 C72.7742487,83.0946733 70.6102927,86.8324155 69.9273289,91.4968604 C69.3606669,95.3682259 71.58896,98.0320322 75.4194962,97.2327666 C78.4012766,96.6116655 81.1368437,94.7607345 83.9478831,93.3873834 C86.3036134,92.2367378 88.5232458,90.7124418 90.9853799,89.9168879 C91.972708,89.5976766 93.8743663,90.4687029 94.5511438,91.3916938 C95.0027413,92.0090832 94.3581323,93.9651807 93.6170176,94.8003266 C92.3785271,96.1947111 90.6711175,97.1709039 89.1604312,98.324024 C89.427678,98.710047 89.6936874,99.0973073 89.9596969,99.4833303" id="Fill-1"></path>
                </g>
            </g>
        </g>
    </g>
</svg>