<?xml version="1.0" encoding="UTF-8"?>
<svg width="106px" height="87px" viewBox="0 0 106 87" version="1.1" xmlns="http://www.w3.org/2000/svg" xmlns:xlink="http://www.w3.org/1999/xlink">
    <!-- Generator: Sketch 52.5 (67469) - http://www.bohemiancoding.com/sketch -->
    <title>Group 10</title>
    <desc>Created with Sketch.</desc>
    <g id="Symbols" stroke="none" stroke-width="1" fill="none" fill-rule="evenodd">
        <g id="Component/Footer" transform="translate(-1301.000000, -46.000000)" fill="#E6E8E3">
            <g id="Group-10" transform="translate(1350.500000, 89.862257) rotate(-345.000000) translate(-1350.500000, -89.862257) translate(1305.000000, 35.862257)">
                <g id="Group-3" transform="translate(46.774784, 0.422458)">
                    <path d="M43.2102489,3.58807144 C43.1701563,3.55985808 43.1293211,3.535357 43.0892284,3.5078861 C37.4628901,-0.300175323 30.6887134,0.339822522 30.2157683,0.390309591 C30.2001767,0.391794504 30.1890399,0.392536961 30.1890399,0.392536961 C16.7817532,2.69044106 13.797819,10.5805305 13.797819,10.5805305 C12.4524871,13.181357 9.98159052,15.7717891 8.36897414,17.3079324 C5.29223276,14.1302169 0.182644397,15.0315596 0.182644397,15.0315596 C8.35709483,20.0661598 7.12387392,30.2355919 7.12387392,30.2355919 C9.05723168,28.6489615 11.2690108,24.834218 10.2949073,20.8791501 C11.9721175,20.57994 14.5231994,20.4284788 17.7046272,21.2006339 C23.5737489,22.6254087 31.5365991,18.8960477 31.5365991,18.8960477 C33.3006767,18.2983699 34.7737112,17.4638484 36.0136142,16.496427 C36.0061897,16.4897449 35.9980226,16.4823204 35.9905981,16.4756383 C42.5078847,11.5123139 43.2102489,3.58807144 43.2102489,3.58807144" id="Fill-1"></path>
                </g>
                <path d="M42.7976656,49.6273781 C42.782074,49.6281206 42.7716796,49.6296055 42.7716796,49.6296055 C29.3636505,51.9267671 26.3797163,59.817599 26.3797163,59.817599 C25.0343844,62.4176831 22.5634878,65.0081152 20.9508714,66.5442585 C17.8741301,63.366543 12.7645417,64.2678857 12.7645417,64.2678857 C20.9389921,69.3024859 19.7057712,79.471918 19.7057712,79.471918 C21.639129,77.8860301 23.8509081,74.0712865 22.8768046,70.1154762 C24.5540148,69.8162661 27.1050967,69.6655473 30.2865245,70.4377025 C36.1556462,71.8617348 44.1192389,68.1323738 44.1192389,68.1323738 C45.882574,67.5354385 47.3556085,66.7001745 48.5955115,65.7327531 C48.588087,65.7268135 48.5799199,65.7186464 48.5724954,65.7127068 C55.089782,60.74864 55.7921462,52.8243975 55.7921462,52.8243975 C55.7520536,52.7969266 55.7112184,52.7716831 55.6711258,52.7449546 C50.0447874,48.9368932 43.2706107,49.5768911 42.7976656,49.6273781" id="Fill-4"></path>
                <path d="M7.2018319,47.9902607 C8.39570259,47.7771755 10.2132371,47.6695193 12.4784731,48.2196798 C16.6577629,49.233876 22.3293912,46.5781077 22.3293912,46.5781077 C23.5856282,46.1526798 24.6347198,45.5579719 25.5175011,44.8689719 C25.5115614,44.8645171 25.5056218,44.8585775 25.4996821,44.8533803 C30.1407802,41.318543 30.642681,35.676613 30.642681,35.676613 C30.6144677,35.6565667 30.5855119,35.6387477 30.556556,35.6194439 C26.5502586,32.9072488 21.7257737,33.3631173 21.3886983,33.3987553 C21.3775614,33.4002402 21.3701369,33.4009827 21.3701369,33.4009827 C11.8213987,35.0366152 9.69574461,40.6562714 9.69574461,40.6562714 C8.73797522,42.5079589 6.97835237,44.3529643 5.82977155,45.4473458 C3.63878125,43.1835947 0,43.8258199 0,43.8258199 C5.82160453,47.4118867 4.94327802,54.6538113 4.94327802,54.6538113 C6.3197931,53.5245344 7.89528664,50.8071421 7.2018319,47.9902607" id="Fill-6"></path>
                <path d="M22.349289,91.9094074 C22.341122,91.9101499 22.3359248,91.9108923 22.3359248,91.9108923 C15.4050897,93.0980809 13.8630067,97.1771391 13.8630067,97.1771391 C13.1673246,98.5209861 11.8902987,99.8596359 11.0565196,100.654065 C9.46617694,99.0117501 6.82525776,99.4772706 6.82525776,99.4772706 C11.05058,102.080324 10.4128095,107.336177 10.4128095,107.336177 C11.4121565,106.516504 12.5555401,104.544539 12.0521543,102.499813 C12.9186015,102.345382 14.2379474,102.267424 15.8824894,102.666123 C18.9154259,103.40264 23.0323494,101.475222 23.0323494,101.475222 C23.9440864,101.16636 24.7051047,100.734993 25.3465875,100.234577 C25.3421328,100.230864 25.337678,100.22641 25.3339657,100.222697 C28.7017502,97.6575087 29.0662966,93.5621165 29.0662966,93.5621165 C29.0455078,93.5480098 29.024719,93.5346456 29.0031877,93.5212814 C26.0949841,91.5530281 22.5942998,91.8834214 22.349289,91.9094074" id="Fill-8"></path>
            </g>
        </g>
    </g>
</svg>