<svg width="195" height="50" viewBox="0 0 195 50" fill="none" xmlns="http://www.w3.org/2000/svg">
	<g clip-path="url(#clip0_1649_8786)">
		<path d="M183.096 -8.16406e-05H11.9107C11.4526 -8.16406e-05 11 -8.16406e-05 10.5431 0.00241836C10.1607 0.00491836 9.78131 0.0121809 9.39519 0.0182934C8.55638 0.0281706 7.71953 0.102014 6.89193 0.239181C6.0655 0.379334 5.26495 0.643563 4.51736 1.02293C3.77069 1.40551 3.08844 1.90263 2.49535 2.49626C1.89915 3.08821 1.40218 3.77244 1.02353 4.52262C0.643835 5.2713 0.380555 6.07359 0.242781 6.90177C0.103697 7.7289 0.0288544 8.56557 0.0189253 9.40427C0.00733277 9.78752 0.00610856 10.172 0 10.5553V39.4482C0.00610856 39.8363 0.00733277 40.2123 0.0189128 40.6005C0.0288449 41.4392 0.103687 42.2758 0.242769 43.1029C0.380162 43.9316 0.643458 44.7343 1.02352 45.4833C1.40199 46.231 1.89905 46.9125 2.49535 47.5012C3.08619 48.0974 3.76889 48.5949 4.51736 48.9745C5.26494 49.3549 6.0654 49.6207 6.89193 49.763C7.71967 49.8991 8.55643 49.973 9.39519 49.984C9.78131 49.9925 10.1607 49.9974 10.5431 49.9974C11 49.9999 11.4526 49.9999 11.9107 49.9999H183.096C183.545 49.9999 184.001 49.9999 184.45 49.9974C184.831 49.9974 185.221 49.9925 185.602 49.984C186.439 49.9736 187.274 49.8997 188.1 49.763C188.929 49.6197 189.733 49.354 190.484 48.9745C191.232 48.5947 191.914 48.0972 192.504 47.5012C193.099 46.9102 193.597 46.2292 193.98 45.4833C194.357 44.7338 194.618 43.9311 194.754 43.1029C194.893 42.2757 194.97 41.4393 194.985 40.6005C194.99 40.2123 194.99 39.8363 194.99 39.4482C195 38.994 195 38.5424 195 38.0809V11.9201C195 11.4623 195 11.0082 194.99 10.5553C194.99 10.172 194.99 9.78752 194.985 9.40422C194.97 8.56545 194.893 7.72896 194.754 6.90172C194.618 6.07402 194.357 5.2718 193.98 4.52257C193.209 3.01891 191.986 1.79495 190.484 1.02282C189.733 0.644378 188.929 0.380219 188.1 0.239068C187.274 0.101297 186.439 0.0274281 185.602 0.0181184C185.221 0.0120184 184.831 0.00469336 184.45 0.00225586C184.001 -0.000244141 183.545 -0.000244141 183.096 -0.000244141V-8.16406e-05Z" fill="#A6A6A6" />
		<path d="M10.5485 48.9062C10.1679 48.9062 9.79645 48.9014 9.41889 48.8929C8.63662 48.8827 7.85618 48.8145 7.08397 48.689C6.36392 48.5649 5.66639 48.3341 5.01438 48.0041C4.36835 47.6769 3.77911 47.2478 3.26925 46.7334C2.75201 46.225 2.32138 45.6353 1.99444 44.9878C1.66388 44.336 1.43512 43.6374 1.31612 42.9163C1.18761 42.1414 1.11808 41.3579 1.10813 40.5725C1.10021 40.3089 1.08984 39.4311 1.08984 39.4311V10.5554C1.08984 10.5554 1.10089 9.69116 1.10819 9.43725C1.11772 8.6531 1.18685 7.87082 1.31497 7.09716C1.4342 6.37406 1.66313 5.67344 1.99386 5.01954C2.31961 4.37243 2.74784 3.78233 3.26197 3.2721C3.77552 2.75703 4.36663 2.32576 5.01377 1.99401C5.66428 1.66512 6.36049 1.43592 7.07908 1.31409C7.85383 1.1873 8.63698 1.11875 9.42196 1.10901L10.5491 1.09375H184.443L185.584 1.10963C186.362 1.11887 187.138 1.18681 187.905 1.31286C188.631 1.43622 189.335 1.66702 189.993 1.99768C191.289 2.66623 192.344 3.72395 193.01 5.02259C193.335 5.67197 193.56 6.36688 193.678 7.08374C193.808 7.86374 193.88 8.65217 193.895 9.44275C193.899 9.79675 193.899 10.177 193.899 10.5554C193.909 11.0242 193.909 11.4703 193.909 11.9202V38.081C193.909 38.5351 193.909 38.9783 193.899 39.425C193.899 39.8315 193.899 40.2039 193.894 40.5871C193.879 41.3636 193.808 42.138 193.68 42.904C193.564 43.6303 193.336 44.3344 193.006 44.9915C192.677 45.632 192.249 46.2166 191.737 46.7236C191.227 47.2409 190.637 47.6724 189.989 48.0018C189.333 48.3342 188.631 48.5659 187.905 48.689C187.133 48.8152 186.353 48.8834 185.57 48.8929C185.205 48.9014 184.821 48.9062 184.449 48.9062L183.095 48.9087L10.5485 48.9062Z" fill="black" />
		<path d="M30.9418 25.3757C30.9552 24.3323 31.2321 23.3094 31.7468 22.4019C32.2615 21.4945 32.9973 20.732 33.8856 20.1856C33.3213 19.3791 32.5768 18.7155 31.7113 18.2473C30.8459 17.7791 29.8832 17.5193 28.8998 17.4885C26.8021 17.2682 24.7685 18.7445 23.6996 18.7445C22.6099 18.7445 20.9641 17.5104 19.1918 17.5468C18.0455 17.5839 16.9283 17.9175 15.949 18.515C14.9698 19.1126 14.162 19.9538 13.6043 20.9567C11.1883 25.1422 12.9904 31.2935 15.3047 34.6768C16.4626 36.3335 17.8158 38.184 19.5865 38.1184C21.3192 38.0465 21.9663 37.0128 24.0578 37.0128C26.1299 37.0128 26.7371 38.1184 28.5437 38.0767C30.403 38.0465 31.5744 36.4126 32.6917 34.7403C33.5236 33.5598 34.1638 32.2551 34.5885 30.8746C33.5083 30.4175 32.5865 29.6522 31.938 28.6744C31.2895 27.6965 30.943 26.5492 30.9418 25.3757Z" fill="white" />
		<path d="M27.5302 15.2634C28.5439 14.0457 29.0434 12.4804 28.9224 10.9001C27.3737 11.0629 25.943 11.8036 24.9156 12.9747C24.4132 13.5467 24.0284 14.2123 23.7833 14.9332C23.5382 15.6542 23.4374 16.4165 23.4868 17.1764C24.2615 17.1844 25.0279 17.0164 25.7283 16.685C26.4286 16.3536 27.0448 15.8676 27.5302 15.2634Z" fill="white" />
		<path d="M57.6505 38.1199V26.6953H57.5749L52.8989 38.0015H51.1142L46.426 26.6953H46.3516V38.1199H44.1582V22.5974H46.9433L51.9632 34.8496H52.0486L57.0588 22.5974H59.8536V38.1199L57.6505 38.1199Z" fill="white" />
		<path d="M61.707 34.9034C61.707 32.9246 63.2222 31.7295 65.9109 31.5684L69.007 31.3962V30.5356C69.007 29.2771 68.1787 28.5666 66.7697 28.5666C66.2478 28.4972 65.7186 28.6207 65.2813 28.914C64.844 29.2073 64.5286 29.6502 64.3945 30.1597H62.2231C62.2877 28.115 64.1908 26.6636 66.8344 26.6636C69.5328 26.6636 71.3176 28.137 71.3176 30.3636V38.1199H69.0924V36.2584H69.0387C68.6824 36.8896 68.1631 37.4134 67.5351 37.775C66.9072 38.1366 66.1937 38.3228 65.4692 38.314C64.9934 38.3606 64.5132 38.3071 64.0593 38.1569C63.6054 38.0068 63.1879 37.7633 62.8336 37.4421C62.4793 37.1209 62.196 36.7291 62.002 36.2919C61.808 35.8547 61.7075 35.3817 61.707 34.9034ZM69.007 33.8816V33.0101L66.2219 33.1822C64.8349 33.2689 64.0505 33.8707 64.0505 34.8387C64.0505 35.8287 64.8678 36.4744 66.1146 36.4744C66.4757 36.4989 66.838 36.4509 67.1802 36.333C67.5225 36.2152 67.8376 36.03 68.1072 35.7884C68.3768 35.5467 68.5953 35.2535 68.7498 34.9261C68.9044 34.5986 68.9918 34.2435 69.007 33.8816H69.007Z" fill="white" />
		<path d="M81.0661 30.6969C80.9646 30.0779 80.6342 29.5197 80.1403 29.1332C79.6465 28.7467 79.0255 28.5602 78.4006 28.6108C76.6159 28.6108 75.4338 30.1061 75.4338 32.4621C75.4338 34.8717 76.6269 36.3232 78.4213 36.3232C79.0379 36.3849 79.6548 36.2091 80.1463 35.8314C80.6377 35.4537 80.9667 34.9027 81.0661 34.2907H83.3022C83.1631 35.4609 82.573 36.5307 81.6575 37.2721C80.742 38.0135 79.5734 38.3681 78.4006 38.2604C75.1752 38.2604 73.0684 36.0546 73.0684 32.4621C73.0684 28.944 75.1751 26.6637 78.3787 26.6637C79.5601 26.5635 80.734 26.9291 81.6499 27.6825C82.5658 28.436 83.1513 29.5177 83.2815 30.6969H81.0661Z" fill="white" />
		<path d="M98.3862 33.9244H92.4733L91.0533 38.1199H88.5488L94.1495 22.5974H96.7515L102.352 38.1199H99.8049L98.3862 33.9244ZM93.0857 31.9883H97.7727L95.4622 25.1792H95.3975L93.0857 31.9883Z" fill="white" />
		<path d="M114.448 32.4621C114.448 35.9789 112.567 38.2384 109.729 38.2384C109.009 38.2761 108.294 38.1103 107.665 37.7601C107.036 37.41 106.518 36.8895 106.17 36.2584H106.116V41.8639H103.795V26.8029H106.042V28.6852H106.085C106.448 28.0571 106.975 27.5394 107.609 27.1871C108.243 26.8348 108.961 26.6611 109.686 26.6845C112.556 26.6845 114.448 28.955 114.448 32.4621ZM112.062 32.4621C112.062 30.1708 110.879 28.6644 109.073 28.6644C107.3 28.6644 106.107 30.2025 106.107 32.4621C106.107 34.7423 107.3 36.2694 109.073 36.2694C110.879 36.2694 112.062 34.7741 112.062 32.4621Z" fill="white" />
		<path d="M126.896 32.4621C126.896 35.9789 125.015 38.2384 122.176 38.2384C121.457 38.2761 120.742 38.1103 120.112 37.7601C119.483 37.41 118.965 36.8895 118.617 36.2584H118.564V41.8639H116.242V26.8029H118.489V28.6852H118.532C118.895 28.0571 119.422 27.5394 120.056 27.1871C120.691 26.8348 121.408 26.6611 122.133 26.6845C125.004 26.6845 126.896 28.955 126.896 32.4621ZM124.51 32.4621C124.51 30.1708 123.326 28.6644 121.521 28.6644C119.747 28.6644 118.554 30.2025 118.554 32.4621C118.554 34.7423 119.747 36.2694 121.521 36.2694C123.326 36.2694 124.51 34.7741 124.51 32.4621H124.51Z" fill="white" />
		<path d="M135.124 33.795C135.296 35.3343 136.791 36.345 138.833 36.345C140.79 36.345 142.198 35.3342 142.198 33.9463C142.198 32.7415 141.348 32.02 139.338 31.5256L137.328 31.041C134.479 30.3525 133.157 29.0195 133.157 26.8564C133.157 24.1782 135.489 22.3386 138.801 22.3386C142.079 22.3386 144.326 24.1782 144.402 26.8564H142.058C141.918 25.3074 140.638 24.3723 138.768 24.3723C136.898 24.3723 135.619 25.3184 135.619 26.6953C135.619 27.7927 136.436 28.4385 138.435 28.9328L140.144 29.3527C143.327 30.1059 144.65 31.3852 144.65 33.6557C144.65 36.5598 142.338 38.3786 138.661 38.3786C135.221 38.3786 132.898 36.6025 132.748 33.7949L135.124 33.795Z" fill="white" />
		<path d="M149.659 24.1245V26.8027H151.809V28.6423H149.659V34.8813C149.659 35.8506 150.089 36.3022 151.035 36.3022C151.29 36.2978 151.545 36.2798 151.798 36.2485V38.0771C151.373 38.1566 150.941 38.1926 150.509 38.1845C148.219 38.1845 147.326 37.3239 147.326 35.1291V28.6423H145.682V26.8027H147.326V24.1245H149.659Z" fill="white" />
		<path d="M153.055 32.4619C153.055 28.9011 155.15 26.6636 158.419 26.6636C161.698 26.6636 163.784 28.9011 163.784 32.4619C163.784 36.0325 161.709 38.2602 158.419 38.2602C155.13 38.2602 153.055 36.0325 153.055 32.4619ZM161.418 32.4619C161.418 30.0193 160.3 28.5776 158.419 28.5776C156.538 28.5776 155.419 30.0303 155.419 32.4619C155.419 34.9143 156.538 36.345 158.419 36.345C160.3 36.345 161.418 34.9143 161.418 32.4619H161.418Z" fill="white" />
		<path d="M165.699 26.8028H167.913V28.729H167.967C168.117 28.1274 168.469 27.5957 168.964 27.2234C169.46 26.851 170.068 26.6607 170.687 26.6843C170.955 26.6834 171.222 26.7125 171.483 26.771V28.9439C171.145 28.8406 170.793 28.7932 170.44 28.8035C170.103 28.7898 169.766 28.8493 169.454 28.9779C169.142 29.1065 168.862 29.3012 168.632 29.5486C168.402 29.7959 168.228 30.0901 168.123 30.4109C168.017 30.7318 167.983 31.0717 168.021 31.4072V38.1199H165.699V26.8028Z" fill="white" />
		<path d="M182.185 34.796C181.872 36.8505 179.873 38.2604 177.315 38.2604C174.025 38.2604 171.982 36.0546 171.982 32.5157C171.982 28.9659 174.036 26.6637 177.217 26.6637C180.346 26.6637 182.314 28.8146 182.314 32.246V33.0419H174.326V33.1822C174.289 33.5987 174.341 34.0183 174.479 34.4131C174.616 34.8079 174.836 35.1689 175.124 35.4721C175.412 35.7753 175.761 36.0137 176.148 36.1716C176.535 36.3295 176.951 36.4032 177.368 36.3878C177.917 36.4392 178.467 36.3121 178.938 36.0253C179.409 35.7385 179.774 35.3074 179.98 34.796L182.185 34.796ZM174.337 31.4183H179.991C180.012 31.0438 179.955 30.6691 179.824 30.3176C179.694 29.9661 179.492 29.6454 179.231 29.3757C178.971 29.106 178.657 28.893 178.311 28.7503C177.964 28.6075 177.592 28.538 177.217 28.546C176.839 28.5438 176.464 28.6164 176.114 28.7599C175.765 28.9033 175.447 29.1146 175.179 29.3817C174.911 29.6487 174.699 29.9662 174.554 30.3157C174.41 30.6653 174.336 31.0401 174.337 31.4183L174.337 31.4183Z" fill="white" />
		<path d="M47.2529 10.9136C47.7396 10.8787 48.228 10.9522 48.6828 11.129C49.1377 11.3058 49.5477 11.5814 49.8832 11.936C50.2187 12.2905 50.4714 12.7151 50.623 13.1792C50.7747 13.6433 50.8215 14.1353 50.7602 14.6197C50.7602 17.0025 49.4732 18.3722 47.2529 18.3722H44.5605V10.9136H47.2529ZM45.7182 17.3174H47.1236C47.4714 17.3382 47.8194 17.2811 48.1424 17.1503C48.4653 17.0196 48.7551 16.8184 48.9906 16.5614C49.226 16.3045 49.4013 15.9982 49.5035 15.6649C49.6058 15.3317 49.6325 14.9798 49.5817 14.6349C49.6288 14.2913 49.5994 13.9416 49.4956 13.6108C49.3917 13.2799 49.2161 12.9762 48.9811 12.7213C48.7462 12.4664 48.4578 12.2666 48.1367 12.1363C47.8156 12.006 47.4696 11.9484 47.1236 11.9676H45.7182V17.3174Z" fill="white" />
		<path d="M52.0672 15.5552C52.0319 15.1853 52.0742 14.8121 52.1914 14.4595C52.3086 14.107 52.4982 13.7828 52.7479 13.5078C52.9977 13.2328 53.3022 13.0131 53.6418 12.8628C53.9814 12.7124 54.3486 12.6348 54.7199 12.6348C55.0913 12.6348 55.4585 12.7124 55.7981 12.8628C56.1377 13.0131 56.4422 13.2328 56.6919 13.5078C56.9417 13.7828 57.1313 14.107 57.2485 14.4595C57.3657 14.8121 57.408 15.1853 57.3727 15.5552C57.4087 15.9255 57.3669 16.2992 57.25 16.6524C57.1331 17.0056 56.9436 17.3303 56.6938 17.6058C56.444 17.8814 56.1393 18.1015 55.7993 18.2522C55.4594 18.4029 55.0917 18.4807 54.7199 18.4807C54.3482 18.4807 53.9805 18.4029 53.6405 18.2522C53.3006 18.1015 52.9959 17.8814 52.7461 17.6058C52.4963 17.3303 52.3068 17.0056 52.1899 16.6524C52.073 16.2992 52.0312 15.9255 52.0672 15.5552ZM56.2308 15.5552C56.2308 14.3352 55.6831 13.6217 54.7218 13.6217C53.7568 13.6217 53.214 14.3352 53.214 15.5553C53.214 16.7851 53.7569 17.4931 54.7218 17.4931C55.6831 17.4931 56.2308 16.7802 56.2308 15.5552H56.2308Z" fill="white" />
		<path d="M64.4266 18.3721H63.275L62.1125 14.2266H62.0246L60.8669 18.3721H59.7263L58.1758 12.7434H59.3018L60.3094 17.0384H60.3924L61.5489 12.7434H62.6138L63.7703 17.0384H63.8582L64.8609 12.7434H65.971L64.4266 18.3721Z" fill="white" />
		<path d="M67.2734 12.7433H68.3421V13.6375H68.425C68.5658 13.3164 68.8031 13.0471 69.104 12.8674C69.4049 12.6876 69.7544 12.6063 70.1036 12.6347C70.3773 12.6141 70.6522 12.6554 70.9078 12.7555C71.1633 12.8556 71.3931 13.012 71.5801 13.2131C71.7671 13.4141 71.9065 13.6547 71.9879 13.917C72.0694 14.1793 72.0908 14.4565 72.0506 14.7282V18.3719H70.9405V15.0071C70.9405 14.1026 70.5477 13.6528 69.7267 13.6528C69.5409 13.6441 69.3554 13.6758 69.1829 13.7455C69.0104 13.8153 68.8551 13.9216 68.7275 14.0571C68.6 14.1926 68.5032 14.354 68.4438 14.5305C68.3844 14.7069 68.3639 14.894 68.3836 15.0792V18.372H67.2734L67.2734 12.7433Z" fill="white" />
		<path d="M73.8203 10.5461H74.9304V18.3721H73.8203V10.5461Z" fill="white" />
		<path d="M76.4735 15.5554C76.4381 15.1855 76.4804 14.8123 76.5976 14.4597C76.7149 14.1071 76.9044 13.7829 77.1542 13.5079C77.404 13.2329 77.7084 13.0132 78.048 12.8629C78.3876 12.7126 78.7548 12.6349 79.1262 12.6349C79.4975 12.6349 79.8648 12.7126 80.2044 12.8629C80.544 13.0132 80.8484 13.2329 81.0982 13.5079C81.348 13.7829 81.5375 14.1071 81.6548 14.4597C81.772 14.8123 81.8143 15.1855 81.7789 15.5554C81.8149 15.9256 81.7732 16.2994 81.6562 16.6525C81.5393 17.0057 81.3499 17.3304 81.1 17.606C80.8502 17.8815 80.5455 18.1017 80.2056 18.2523C79.8657 18.403 79.498 18.4808 79.1262 18.4808C78.7544 18.4808 78.3867 18.403 78.0468 18.2523C77.7069 18.1017 77.4022 17.8815 77.1524 17.606C76.9025 17.3304 76.7131 17.0057 76.5961 16.6525C76.4792 16.2994 76.4375 15.9256 76.4735 15.5554ZM80.6371 15.5554C80.6371 14.3353 80.0893 13.6218 79.128 13.6218C78.1631 13.6218 77.6202 14.3353 77.6202 15.5554C77.6202 16.7852 78.1631 17.4932 79.128 17.4932C80.0893 17.4932 80.6371 16.7803 80.6371 15.5554H80.6371Z" fill="white" />
		<path d="M82.9473 16.7803C82.9473 15.7671 83.7012 15.183 85.0394 15.1L86.5631 15.0121V14.5262C86.5631 13.9318 86.1703 13.5961 85.4115 13.5961C84.7918 13.5961 84.3624 13.8237 84.2392 14.2217H83.1644C83.2779 13.2549 84.1867 12.6348 85.4627 12.6348C86.873 12.6348 87.6683 13.3373 87.6683 14.5262V18.3721H86.5997V17.5811H86.5119C86.3336 17.8648 86.0832 18.0961 85.7864 18.2514C85.4896 18.4066 85.1569 18.4803 84.8223 18.4648C84.5861 18.4894 84.3475 18.4642 84.1217 18.3908C83.8959 18.3174 83.6879 18.1975 83.5113 18.0388C83.3346 17.8801 83.1932 17.6861 83.096 17.4693C82.9989 17.2526 82.9482 17.0178 82.9473 16.7803ZM86.5631 16.2993V15.8287L85.1895 15.9166C84.4148 15.9685 84.0635 16.2322 84.0635 16.7284C84.0635 17.235 84.5026 17.5298 85.1066 17.5298C85.2835 17.5477 85.4622 17.5298 85.6321 17.4772C85.802 17.4246 85.9596 17.3383 86.0955 17.2235C86.2314 17.1087 86.3428 16.9677 86.4232 16.809C86.5035 16.6502 86.5511 16.4769 86.5631 16.2993Z" fill="white" />
		<path d="M89.127 15.5553C89.127 13.7768 90.0407 12.65 91.4619 12.65C91.8134 12.6338 92.1623 12.7181 92.4678 12.893C92.7732 13.0678 93.0226 13.3261 93.1868 13.6375H93.2698V10.5461H94.3799V18.3721H93.3162V17.4828H93.2283C93.0514 17.7921 92.7933 18.0472 92.482 18.2203C92.1706 18.3934 91.8178 18.478 91.4619 18.4648C90.0309 18.4649 89.127 17.3382 89.127 15.5553ZM90.2737 15.5553C90.2737 16.7492 90.8361 17.4676 91.7767 17.4676C92.7123 17.4676 93.2906 16.7388 93.2906 15.5602C93.2906 14.3871 92.7062 13.648 91.7767 13.648C90.8422 13.648 90.2737 14.3712 90.2737 15.5553H90.2737Z" fill="white" />
		<path d="M98.9735 15.5553C98.9381 15.1854 98.9804 14.8122 99.0977 14.4596C99.2149 14.107 99.4045 13.7828 99.6543 13.5078C99.9041 13.2328 100.209 13.0131 100.548 12.8628C100.888 12.7124 101.255 12.6348 101.626 12.6348C101.998 12.6348 102.365 12.7124 102.705 12.8628C103.044 13.0131 103.349 13.2328 103.599 13.5078C103.848 13.7828 104.038 14.107 104.155 14.4596C104.273 14.8122 104.315 15.1854 104.279 15.5553C104.315 15.9256 104.274 16.2994 104.157 16.6525C104.04 17.0057 103.85 17.3304 103.6 17.606C103.351 17.8815 103.046 18.1016 102.706 18.2523C102.366 18.4029 101.998 18.4808 101.626 18.4808C101.255 18.4808 100.887 18.4029 100.547 18.2523C100.207 18.1016 99.9024 17.8815 99.6525 17.606C99.4027 17.3304 99.2132 17.0057 99.0962 16.6525C98.9793 16.2994 98.9375 15.9256 98.9735 15.5553ZM103.137 15.5553C103.137 14.3353 102.589 13.6218 101.628 13.6218C100.663 13.6218 100.12 14.3353 100.12 15.5554C100.12 16.7852 100.663 17.4932 101.628 17.4932C102.589 17.4932 103.137 16.7803 103.137 15.5553H103.137Z" fill="white" />
		<path d="M105.77 12.7433H106.838V13.6375H106.921C107.062 13.3164 107.299 13.0471 107.6 12.8674C107.901 12.6876 108.25 12.6063 108.6 12.6347C108.873 12.6141 109.148 12.6554 109.404 12.7555C109.659 12.8556 109.889 13.012 110.076 13.2131C110.263 13.4141 110.403 13.6547 110.484 13.917C110.565 14.1793 110.587 14.4565 110.547 14.7282V18.3719H109.437V15.0071C109.437 14.1026 109.044 13.6528 108.223 13.6528C108.037 13.6441 107.851 13.6758 107.679 13.7455C107.507 13.8153 107.351 13.9216 107.224 14.0571C107.096 14.1926 106.999 14.354 106.94 14.5305C106.881 14.7069 106.86 14.894 106.88 15.0792V18.372H105.77V12.7433Z" fill="white" />
		<path d="M116.819 11.342V12.769H118.037V13.7047H116.819V16.599C116.819 17.1886 117.062 17.4468 117.614 17.4468C117.756 17.4463 117.897 17.4378 118.037 17.4211V18.3464C117.838 18.3821 117.636 18.4011 117.434 18.4032C116.199 18.4032 115.707 17.9686 115.707 16.8834V13.7047H114.814V12.769H115.707V11.342H116.819Z" fill="white" />
		<path d="M119.555 10.5461H120.655V13.648H120.743C120.89 13.3238 121.134 13.0531 121.441 12.8726C121.748 12.6922 122.103 12.6108 122.458 12.6397C122.73 12.6248 123.002 12.6703 123.255 12.7729C123.508 12.8754 123.735 13.0325 123.92 13.2329C124.105 13.4334 124.243 13.6722 124.326 13.9323C124.408 14.1925 124.432 14.4676 124.395 14.738V18.3721H123.284V15.0121C123.284 14.113 122.866 13.6577 122.081 13.6577C121.89 13.642 121.698 13.6683 121.519 13.7346C121.339 13.8009 121.176 13.9057 121.041 14.0416C120.906 14.1776 120.803 14.3413 120.738 14.5215C120.673 14.7017 120.648 14.8939 120.665 15.0847V18.3721H119.555L119.555 10.5461Z" fill="white" />
		<path d="M130.868 16.8524C130.718 17.3668 130.391 17.8118 129.945 18.1095C129.5 18.4072 128.964 18.5386 128.431 18.4808C128.06 18.4906 127.692 18.4196 127.352 18.2726C127.011 18.1257 126.707 17.9065 126.46 17.63C126.212 17.3536 126.028 17.0267 125.92 16.6719C125.812 16.3171 125.782 15.943 125.833 15.5755C125.783 15.2069 125.814 14.832 125.922 14.4762C126.03 14.1203 126.213 13.7919 126.459 13.513C126.705 13.2342 127.008 13.0115 127.347 12.86C127.686 12.7085 128.054 12.6317 128.426 12.6349C129.991 12.6349 130.935 13.7049 130.935 15.4724V15.86H126.963V15.9222C126.946 16.1288 126.972 16.3367 127.04 16.5326C127.107 16.7286 127.215 16.9082 127.356 17.06C127.497 17.2118 127.668 17.3325 127.859 17.4142C128.049 17.496 128.254 17.537 128.461 17.5347C128.727 17.5666 128.996 17.5188 129.234 17.3973C129.473 17.2758 129.669 17.0861 129.8 16.8523L130.868 16.8524ZM126.963 15.0384H129.805C129.819 14.8495 129.793 14.6598 129.729 14.4814C129.666 14.303 129.565 14.1399 129.435 14.0025C129.305 13.8652 129.147 13.7567 128.972 13.684C128.797 13.6113 128.609 13.576 128.42 13.5803C128.228 13.5779 128.037 13.614 127.86 13.6864C127.682 13.7588 127.52 13.8661 127.384 14.002C127.249 14.1379 127.142 14.2996 127.069 14.4776C126.997 14.6556 126.961 14.8463 126.963 15.0384H126.963Z" fill="white" />
	</g>
	<defs>
		<clipPath id="clip0_1649_8786">
			<rect width="195" height="50" fill="white" />
		</clipPath>
	</defs>
</svg>
	