<svg id="Layer_1" data-name="Layer 1" xmlns="http://www.w3.org/2000/svg" xmlns:xlink="http://www.w3.org/1999/xlink" viewBox="0 0 12 12"><defs><style>.cls-1{fill:#fff;}.cls-2{mask:url(#mask);}.cls-3{fill:#6a846c;}</style><mask id="mask" x="-6" y="-5.65" width="24" height="24" maskUnits="userSpaceOnUse"><g id="mask0"><path class="cls-1" d="M9.87,3.35,6,7.23,2.11,3.35a1,1,0,0,0-.7-.29,1.05,1.05,0,0,0-.71.29,1,1,0,0,0,0,1.41L5.29,9.35a1,1,0,0,0,1.41,0l4.59-4.59a1,1,0,0,0,0-1.41A1,1,0,0,0,9.87,3.35Z"/></g></mask></defs><title>more-orc-green</title><g class="cls-2"><rect class="cls-3" x="-6" y="-5.65" width="24" height="24"/></g></svg>