<?xml version="1.0" encoding="UTF-8"?>
<svg width="97px" height="108px" viewBox="0 0 97 108" version="1.1" xmlns="http://www.w3.org/2000/svg" xmlns:xlink="http://www.w3.org/1999/xlink">
    <!-- Generator: Sketch 53.2 (72643) - https://sketchapp.com -->
    <title>Group 22</title>
    <desc>Created with Sketch.</desc>
    <defs>
        <polygon id="path-1" points="0.183105 0.05544 17.458605 0.05544 17.458605 23.4 0.183105 23.4"></polygon>
    </defs>
    <g id="Symbols" stroke="none" stroke-width="1" fill="none" fill-rule="evenodd">
        <g id="Header/LandingPage" transform="translate(-40.000000, -35.000000)">
            <g id="Group-22" transform="translate(40.656250, 35.000000)">
                <path d="M6.000075,98.39997 C6.000075,99.80217 6.269625,100.87677 6.810525,101.62377 C7.350075,102.37122 8.103375,102.74472 9.069075,102.74472 C10.034775,102.74472 10.775925,102.36537 11.292975,101.60667 C11.810475,100.84752 12.068775,99.77922 12.068775,98.39997 C12.068775,97.02027 11.804175,95.95737 11.275875,95.20992 C10.746675,94.46292 9.999675,94.08987 9.034425,94.08987 C8.068725,94.08987 7.321725,94.46292 6.792975,95.20992 C6.263775,95.95737 6.000075,97.02027 6.000075,98.39997 M18.069075,98.39997 C18.069075,99.82557 17.849925,101.09547 17.413875,102.20967 C16.976925,103.32522 16.362225,104.26167 15.568875,105.02037 C14.775975,105.77907 13.827375,106.35372 12.723975,106.74432 C11.620575,107.13492 10.390275,107.33022 9.034425,107.33022 C7.677675,107.33022 6.448275,107.12367 5.344875,106.71012 C4.241475,106.29612 3.292875,105.70437 2.499975,104.93442 C1.707075,104.16447 1.091475,103.22757 0.655425,102.12372 C0.218025,101.02032 0.000225,99.77922 0.000225,98.39997 C0.000225,97.04322 0.218025,95.81382 0.655425,94.70997 C1.091475,93.60612 1.707075,92.67012 2.499975,91.89927 C3.292875,91.13022 4.241475,90.53757 5.344875,90.12357 C6.448275,89.70957 7.677675,89.50302 9.034425,89.50302 C10.390275,89.50302 11.620575,89.71587 12.723975,90.14067 C13.827375,90.56682 14.775975,91.16442 15.568875,91.93437 C16.362225,92.70477 16.976925,93.64167 17.413875,94.74462 C17.849925,95.84802 18.069075,97.06662 18.069075,98.39997" id="Fill-1" fill="#5F45BA"></path>
                <path d="M26.79309,106.7445 C26.56314,106.81335 26.20089,106.8822 25.70634,106.95105 C25.21224,107.0208 24.70104,107.055 24.17229,107.055 C23.66649,107.055 23.21199,107.0208 22.81014,106.95105 C22.40784,106.8822 22.06899,106.7445 21.79269,106.53705 C21.51729,106.3305 21.30399,106.04925 21.15504,105.6924 C21.00519,105.3369 20.93094,104.8707 20.93094,104.29605 L20.93094,93.95145 C20.93094,93.4227 21.02859,92.96865 21.22434,92.5893 C21.41919,92.20995 21.70089,91.8711 22.06899,91.5723 C22.43664,91.27395 22.89069,91.00305 23.43114,90.76185 C23.97069,90.5202 24.55164,90.30825 25.17219,90.1233 C25.79319,89.94015 26.43624,89.7966 27.10314,89.69265 C27.76959,89.58915 28.43649,89.5374 29.10339,89.5374 C30.20679,89.5374 31.08024,89.75025 31.72374,90.17505 C32.36724,90.60075 32.68944,91.296 32.68944,92.26125 C32.68944,92.5839 32.64309,92.8998 32.55129,93.2103 C32.45949,93.52035 32.34474,93.8025 32.20704,94.0545 C31.72374,94.0545 31.22919,94.0779 30.72429,94.12425 C30.21804,94.1706 29.72394,94.23945 29.24109,94.3308 C28.75869,94.4226 28.30419,94.5207 27.87939,94.62375 C27.45369,94.72725 27.09144,94.84785 26.79309,94.986 L26.79309,106.7445 Z" id="Fill-3" fill="#5F45BA"></path>
                <path d="M42.94233,94.12407 C42.36768,94.12407 41.82183,94.21632 41.30478,94.39947 C40.78728,94.58442 40.33908,94.85352 39.95928,95.20992 C39.58038,95.56677 39.27573,96.00912 39.04578,96.53742 C38.81583,97.06662 38.70063,97.68762 38.70063,98.39997 C38.70063,99.82557 39.10878,100.89387 39.92508,101.60667 C40.74093,102.31947 41.73543,102.67497 42.90768,102.67497 C43.59753,102.67497 44.19513,102.59487 44.70093,102.43422 C45.20628,102.27312 45.65448,102.10122 46.04598,101.91717 C46.50543,102.23892 46.85013,102.58902 47.08008,102.96837 C47.31003,103.34772 47.42523,103.80222 47.42523,104.33052 C47.42523,105.27327 46.97703,106.00272 46.08018,106.51977 C45.18378,107.03772 43.94223,107.29602 42.35598,107.29602 C40.90788,107.29602 39.59748,107.08362 38.42523,106.65837 C37.25298,106.23312 36.24678,105.63552 35.40798,104.86557 C34.56873,104.09517 33.91893,103.16997 33.45948,102.08907 C32.99958,101.00952 32.77008,99.81342 32.77008,98.50302 C32.77008,96.98562 33.01668,95.65812 33.51123,94.52052 C34.00533,93.38247 34.67808,92.44647 35.52858,91.70982 C36.37863,90.97452 37.36188,90.42282 38.47653,90.05472 C39.59163,89.68707 40.76973,89.50302 42.01128,89.50302 C43.66683,89.50302 44.94213,89.80227 45.83898,90.39987 C46.73538,90.99747 47.18358,91.76742 47.18358,92.70972 C47.18358,93.14667 47.08008,93.55482 46.87308,93.93417 C46.66608,94.31352 46.42488,94.64112 46.14903,94.91652 C45.75843,94.73337 45.28728,94.55517 44.73513,94.38237 C44.18388,94.21002 43.58583,94.12407 42.94233,94.12407" id="Fill-5" fill="#5F45BA"></path>
                <path d="M66.385215,106.7445 C66.155265,106.81335 65.793465,106.8822 65.298915,106.95105 C64.804365,107.0208 64.293165,107.055 63.764415,107.055 C63.258615,107.055 62.804565,107.0208 62.402715,106.95105 C61.999965,106.8822 61.661115,106.7445 61.385265,106.53705 C61.109415,106.3305 60.896565,106.04925 60.747165,105.6924 C60.597765,105.3369 60.523065,104.8707 60.523065,104.29605 L60.523065,96.64065 C60.523065,95.69835 60.287265,95.03775 59.816565,94.6584 C59.344965,94.27905 58.764465,94.0896 58.075065,94.0896 C57.614715,94.0896 57.178215,94.1472 56.764665,94.2615 C56.351115,94.37715 56.017215,94.51485 55.764765,94.6755 L55.764765,106.7445 C55.534365,106.81335 55.172565,106.8822 54.678465,106.95105 C54.183915,107.0208 53.672265,107.055 53.143965,107.055 C52.638165,107.055 52.184115,107.0208 51.781815,106.95105 C51.379515,106.8822 51.040665,106.7445 50.764815,106.53705 C50.488515,106.3305 50.276115,106.04925 50.126715,105.6924 C49.976865,105.3369 49.902615,104.8707 49.902615,104.29605 L49.902615,84.29625 C50.155515,84.2508 50.528565,84.18735 51.023565,84.10635 C51.517215,84.02625 52.017615,83.98575 52.523415,83.98575 C53.028765,83.98575 53.482815,84.0204 53.885115,84.08925 C54.286965,84.15855 54.626715,84.29625 54.902565,84.5028 C55.178415,84.71025 55.390365,84.9915 55.540665,85.3479 C55.689615,85.70475 55.764765,86.17005 55.764765,86.7447 L55.764765,90.1233 C56.063115,90.009 56.517615,89.8776 57.126465,89.72685 C57.735315,89.5779 58.407615,89.5032 59.144265,89.5032 C61.419915,89.5032 63.195615,90.072 64.471365,91.21005 C65.747115,92.34855 66.385215,94.04325 66.385215,96.2964 L66.385215,106.7445 Z" id="Fill-7" fill="#5F45BA"></path>
                <path d="M76.005585,106.7445 C75.752235,106.78995 75.378735,106.85295 74.885085,106.93395 C74.390085,107.0145 73.890585,107.055 73.384785,107.055 C72.878985,107.055 72.424935,107.0208 72.023085,106.95105 C71.620335,106.8822 71.281485,106.7445 71.005635,106.53705 C70.729785,106.3305 70.516935,106.04925 70.367535,105.6924 C70.218135,105.3369 70.143435,104.8707 70.143435,104.29605 L70.143435,90.2619 C70.396335,90.21555 70.769385,90.15255 71.264385,90.072 C71.758485,89.9919 72.258435,89.9514 72.764235,89.9514 C73.269585,89.9514 73.724085,89.98605 74.125935,90.0549 C74.528235,90.1233 74.867535,90.2619 75.143385,90.46845 C75.419235,90.6759 75.631635,90.95715 75.781485,91.31355 C75.930435,91.6704 76.005585,92.1357 76.005585,92.7099 L76.005585,106.7445 Z M69.868035,85.365 C69.868035,84.49155 70.160535,83.75625 70.746885,83.1582 C71.332785,82.56105 72.109035,82.2618 73.074735,82.2618 C74.039985,82.2618 74.816235,82.56105 75.402135,83.1582 C75.988485,83.75625 76.281435,84.49155 76.281435,85.365 C76.281435,86.2389 75.988485,86.97465 75.402135,87.5718 C74.816235,88.1703 74.039985,88.4691 73.074735,88.4691 C72.109035,88.4691 71.332785,88.1703 70.746885,87.5718 C70.160535,86.97465 69.868035,86.2389 69.868035,85.365 L69.868035,85.365 Z" id="Fill-9" fill="#5F45BA"></path>
                <g id="Group-13" transform="translate(78.300000, 83.930400)">
                    <mask id="mask-2" fill="white">
                        <use xlink:href="#path-1"></use>
                    </mask>
                    <g id="Clip-12"></g>
                    <path d="M9.976005,10.15929 C8.734905,10.15929 7.780455,10.51569 7.114005,11.22804 C6.447105,11.94084 6.114105,13.02084 6.114105,14.46939 C6.114105,15.89499 6.424605,16.96914 7.045155,17.69319 C7.666155,18.41769 8.562555,18.77994 9.734805,18.77994 C10.148355,18.77994 10.521855,18.71649 10.855305,18.58959 C11.188305,18.46404 11.447055,18.31959 11.631105,18.15894 L11.631105,10.57284 C11.171205,10.29699 10.619505,10.15929 9.976005,10.15929 M0.183105,14.46939 C0.183105,12.95199 0.412605,11.63619 0.872955,10.52064 C1.332405,9.40644 1.970055,8.48079 2.786355,7.74504 C3.602205,7.00974 4.556205,6.46389 5.648355,6.10704 C6.740505,5.75109 7.918605,5.57289 9.183105,5.57289 C9.642555,5.57289 10.090755,5.61339 10.528155,5.69304 C10.964205,5.77404 11.321055,5.87214 11.596905,5.98689 L11.596905,0.40059 C11.826405,0.33174 12.194505,0.25659 12.700305,0.17604 C13.205655,0.09594 13.722705,0.05544 14.251905,0.05544 C14.757255,0.05544 15.211755,0.09009 15.614055,0.15894 C16.015905,0.22824 16.355655,0.36594 16.631055,0.57249 C16.907355,0.77994 17.114355,1.06119 17.252055,1.41714 C17.390205,1.77444 17.458605,2.23974 17.458605,2.81439 L17.458605,19.15839 C17.458605,20.23974 16.952805,21.10194 15.941655,21.74454 C15.274305,22.18194 14.412555,22.56714 13.355505,22.90014 C12.297555,23.23314 11.079855,23.40009 9.700155,23.40009 C8.205705,23.40009 6.866955,23.19354 5.683005,22.77954 C4.498605,22.36599 3.498705,21.76794 2.683305,20.98674 C1.867005,20.20554 1.246005,19.26864 0.821205,18.17604 C0.395055,17.08434 0.183105,15.84864 0.183105,14.46939" id="Fill-11" fill="#5F45BA" mask="url(#mask-2)"></path>
                </g>
                <path d="M24.14034,6.92712 C22.84704,9.10422 20.03409,9.82107 17.85654,8.52822 C15.67944,7.23492 14.96259,4.42197 16.25589,2.24442 C17.54874,0.06732 20.36214,-0.64953 22.53924,0.64377 C24.71679,1.93662 25.43319,4.75002 24.14034,6.92712" id="Fill-14" fill="#5F45BA"></path>
                <path d="M8.492085,4.89312 C7.578585,6.43122 5.591385,6.93747 4.053735,6.02397 C2.515635,5.11047 2.009385,3.12372 2.922885,1.58562 C3.835935,0.04752 5.823135,-0.45873 7.361235,0.45477 C8.899335,1.36827 9.405585,3.35547 8.492085,4.89312" id="Fill-16" fill="#5F45BA"></path>
                <path d="M52.049025,71.237925 C68.843925,69.265575 82.352925,55.534275 83.452725,38.058075 C84.690675,18.394875 69.753825,1.451025 50.090175,0.213075 C47.739375,0.065025 45.429525,0.154575 43.178625,0.449325 L43.178625,0.449325 C38.451375,0.836325 34.460775,2.636325 34.460775,2.636325 C31.233825,4.212225 29.144475,6.854625 29.144475,10.389825 C29.144475,14.986125 32.870475,18.712125 37.466775,18.712125 C38.235825,18.712125 40.896675,17.870625 41.525775,17.651475 C43.873425,16.833375 46.419975,16.458525 49.056975,16.624575 C55.851075,17.052525 61.593075,20.960775 64.668825,26.501175 C66.391425,29.605275 67.280625,33.219225 67.041225,37.025325 C66.373875,47.624625 57.240675,55.676475 46.640925,55.009125 C40.378275,54.615375 35.006625,51.264225 31.795875,46.402875 C31.795875,46.404675 31.795875,46.406475 31.796325,46.408275 C31.795875,46.406475 31.795875,46.405125 31.795875,46.402875 C27.955125,41.376825 28.842975,33.340725 28.838925,33.241275 C28.681425,28.773675 25.019775,25.198425 20.513925,25.198425 C16.663725,25.198425 13.431825,27.811125 12.471525,31.357575 C12.282975,32.053725 12.188475,34.095375 12.215475,34.368975 C11.423025,53.691975 26.210025,70.199775 45.607725,71.420625 C47.795625,71.558325 49.946625,71.484975 52.049025,71.237925" id="Fill-18" fill="#5F45BA"></path>
                <path d="M19.363725,19.65303 C17.687025,22.47588 14.039775,23.40513 11.216925,21.72888 C8.394075,20.05218 7.464825,16.40493 9.141075,13.58208 C10.817775,10.75923 14.465025,9.82998 17.287875,11.50623 C20.110725,13.18293 21.039975,16.83018 19.363725,19.65303" id="Fill-20" fill="#5F45BA"></path>
            </g>
        </g>
    </g>
</svg>