<?xml version="1.0" encoding="UTF-8"?>
<svg width="149px" height="39px" viewBox="0 0 149 39" version="1.1" xmlns="http://www.w3.org/2000/svg" xmlns:xlink="http://www.w3.org/1999/xlink">
    <!-- Generator: Sketch 52.5 (67469) - http://www.bohemiancoding.com/sketch -->
    <title>Group 20</title>
    <desc>Created with Sketch.</desc>
    <defs>
        <polygon id="path-1" points="0.283752 0.4973976 26.12232 0.4973976 26.12232 35.4130056 0.283752 35.4130056"></polygon>
    </defs>
    <g id="Symbols" stroke="none" stroke-width="1" fill="none" fill-rule="evenodd">
        <g id="Component/Footer" transform="translate(-187.000000, -83.000000)">
            <g id="Group-20" transform="translate(187.167813, 83.689749)">
                <path d="M69.5982672,17.7421104 C68.7384432,17.7421104 67.9219632,17.8797024 67.1488272,18.1538784 C66.3746832,18.4305744 65.7043632,18.8332704 65.1368592,19.3659984 C64.5698592,19.9002384 64.1137392,20.5614864 63.7705152,21.3517584 C63.4262832,22.1430384 63.2544192,23.0719104 63.2544192,24.1373664 C63.2544192,26.2697904 63.8652672,27.8679744 65.0854512,28.9334304 C66.3051312,29.9998944 67.7934432,30.5316144 69.5468592,30.5316144 C70.5780432,30.5316144 71.4716352,30.4116624 72.2286432,30.1712544 C72.9846432,29.9308464 73.6549632,29.6733024 74.2401072,29.3976144 C74.9275632,29.8794384 75.4426512,30.4030944 75.7868832,30.9705984 C76.1306112,31.5381024 76.3029792,32.2169904 76.3029792,33.0072624 C76.3029792,34.4174544 75.6326592,35.5091184 74.2920192,36.2822544 C72.9508752,37.0569024 71.0941392,37.4429664 68.7213072,37.4429664 C66.5556192,37.4429664 64.5955632,37.1249424 62.8421472,36.4893984 C61.0887312,35.8538544 59.5837872,34.9592544 58.3293312,33.8076144 C57.0738672,32.6559744 56.1026592,31.2714864 55.4152032,29.6551584 C54.7267392,28.0403424 54.3840192,26.2516464 54.3840192,24.2920944 C54.3840192,22.0220784 54.7524432,20.0363184 55.4923152,18.3353184 C56.2316832,16.6328064 57.2371632,15.2326944 58.5102672,14.1314544 C59.7813552,13.0312224 61.2515232,12.2061744 62.9192592,11.6558064 C64.5869952,11.1059424 66.3489792,10.8307584 68.2057152,10.8307584 C70.6813632,10.8307584 72.5895072,11.2788144 73.9306512,12.1719024 C75.2717952,13.0659984 75.9421152,14.2176384 75.9421152,15.6268224 C75.9421152,16.2805104 75.7868832,16.8903504 75.4774272,17.4578544 C75.1679712,18.0253584 74.8071072,18.5157504 74.3948352,18.9275184 C73.8096912,18.6533424 73.1050992,18.3867264 72.2800512,18.1281744 C71.4550032,17.8706304 70.5609072,17.7421104 69.5982672,17.7421104" id="Fill-1" fill="#898F9C"></path>
                <path d="M45.4443696,36.61812 C45.1001376,36.720936 44.5583376,36.824256 43.8189696,36.927072 C43.0801056,37.030896 42.3150336,37.082808 41.5242576,37.082808 C40.7677536,37.082808 40.0883616,37.030896 39.4870896,36.927072 C38.8848096,36.824256 38.3782896,36.61812 37.9655136,36.30816 C37.5532416,35.999208 37.2347136,35.578368 37.0114416,35.044632 C36.7876656,34.512912 36.6762816,33.815376 36.6762816,32.956056 L36.6762816,17.48376 C36.6762816,16.693488 36.8224416,16.014096 37.1152656,15.446592 C37.4065776,14.879088 37.8279216,14.372064 38.3782896,13.92552 C38.9281536,13.478976 39.6075456,13.07376 40.4154576,12.7134 C41.2233696,12.352032 42.0917616,12.035016 43.0201296,11.758824 C43.9484976,11.484648 44.9106336,11.26944 45.9080496,11.114208 C46.9049616,10.95948 47.9018736,10.882368 48.8992896,10.882368 C50.5498896,10.882368 51.8567616,11.200392 52.8188976,11.835936 C53.7815376,12.472992 54.2633616,13.512744 54.2633616,14.9562 C54.2633616,15.439032 54.1938096,15.91128 54.0567216,16.375464 C53.9191296,16.839144 53.7472656,17.260992 53.5416336,17.637984 C52.8188976,17.637984 52.0795296,17.67276 51.3240336,17.742312 C50.5670256,17.81136 49.8276576,17.91468 49.1059296,18.051264 C48.3842016,18.188856 47.7048096,18.33552 47.0687616,18.489744 C46.4322096,18.644472 45.8904096,18.8244 45.4443696,19.031544 L45.4443696,36.61812 Z" id="Fill-3" fill="#898F9C"></path>
                <path d="M104.660942,36.61812 C104.31671,36.720936 103.775918,36.824256 103.03655,36.927072 C102.296678,37.030896 101.53211,37.082808 100.741334,37.082808 C99.9848304,37.082808 99.3054384,37.030896 98.7046704,36.927072 C98.1023904,36.824256 97.5953664,36.61812 97.1830944,36.30816 C96.7703184,35.999208 96.4517904,35.578368 96.2285184,35.044632 C96.0047424,34.512912 95.8933584,33.815376 95.8933584,32.956056 L95.8933584,21.506184 C95.8933584,20.097 95.5400544,19.108656 94.8364704,18.541152 C94.1313744,17.973648 93.2634864,17.690904 92.2317984,17.690904 C91.5438384,17.690904 90.8906544,17.776584 90.2717424,17.947944 C89.6533344,18.120312 89.1538704,18.326448 88.7763744,18.566856 L88.7763744,36.61812 C88.4321424,36.720936 87.8903424,36.824256 87.1514784,36.927072 C86.4121104,37.030896 85.6465344,37.082808 84.8567664,37.082808 C84.1002624,37.082808 83.4203664,37.030896 82.8190944,36.927072 C82.2173184,36.824256 81.7102944,36.61812 81.2980224,36.30816 C80.8852464,35.999208 80.5672224,35.578368 80.3439504,35.044632 C80.1196704,34.512912 80.0087904,33.815376 80.0087904,32.956056 L80.0087904,3.043152 C80.3862864,2.975112 80.9447184,2.879856 81.6845904,2.758896 C82.4234544,2.639448 83.1713904,2.578464 83.9283984,2.578464 C84.6843984,2.578464 85.3627824,2.630376 85.9650624,2.733192 C86.5663344,2.83752 87.0743664,3.043152 87.4866384,3.352104 C87.8994144,3.662064 88.2169344,4.082904 88.4407104,4.615632 C88.6644864,5.149368 88.7763744,5.845896 88.7763744,6.705216 L88.7763744,11.758824 C89.2229184,11.587464 89.9023104,11.3904 90.8130384,11.165616 C91.7237664,10.942848 92.7292464,10.83096 93.8304864,10.83096 C97.2345024,10.83096 99.8900784,11.681208 101.798726,13.38372 C103.70687,15.086232 104.660942,17.621352 104.660942,20.991096 L104.660942,36.61812 Z" id="Fill-5" fill="#898F9C"></path>
                <path d="M119.050042,36.61812 C118.671034,36.68616 118.112602,36.780408 117.373738,36.901368 C116.63437,37.022328 115.886434,37.082808 115.130434,37.082808 C114.37393,37.082808 113.694538,37.030896 113.093266,36.927072 C112.490986,36.824256 111.983962,36.61812 111.57169,36.30816 C111.159418,35.999208 110.84089,35.578368 110.617618,35.044632 C110.393842,34.512912 110.282458,33.815376 110.282458,32.956056 L110.282458,11.965968 C110.660458,11.896416 111.218386,11.802168 111.958258,11.681208 C112.697626,11.56176 113.445058,11.50128 114.202066,11.50128 C114.958066,11.50128 115.637458,11.552688 116.23873,11.655504 C116.840506,11.758824 117.348034,11.965968 117.760306,12.274416 C118.173082,12.58488 118.491106,13.00572 118.714378,13.538448 C118.938154,14.072184 119.050042,14.768208 119.050042,15.627024 L119.050042,36.61812 Z M109.870186,4.641336 C109.870186,3.335472 110.308162,2.23524 111.185122,1.34064 C112.061578,0.447552 113.22229,0 114.66625,0 C116.11021,0 117.270922,0.447552 118.147378,1.34064 C119.024338,2.23524 119.462314,3.335472 119.462314,4.641336 C119.462314,5.948712 119.024338,7.048944 118.147378,7.942032 C117.270922,8.83764 116.11021,9.284184 114.66625,9.284184 C113.22229,9.284184 112.061578,8.83764 111.185122,7.942032 C110.308162,7.048944 109.870186,5.948712 109.870186,4.641336 Z" id="Fill-7" fill="#898F9C"></path>
                <g id="Group-11" transform="translate(122.472000, 2.081369)">
                    <mask id="mask-2" fill="white">
                        <use xlink:href="#path-1"></use>
                    </mask>
                    <g id="Clip-10"></g>
                    <path d="M14.930496,15.6093336 C13.074264,15.6093336 11.646432,16.1420616 10.650024,17.2075176 C9.652104,18.2744856 9.154152,19.8893016 9.154152,22.0559976 C9.154152,24.1884216 9.618336,25.7941656 10.547208,26.8777656 C11.475576,27.9613656 12.816216,28.5031656 14.569632,28.5031656 C15.188544,28.5031656 15.746976,28.4079096 16.245432,28.2189096 C16.743888,28.0309176 17.13096,27.8147016 17.406144,27.5742936 L17.406144,16.2282456 C16.71768,15.8154696 15.893136,15.6093336 14.930496,15.6093336 M0.283752,22.0559976 C0.283752,19.7864856 0.626976,17.8188696 1.314936,16.1501256 C2.002392,14.4833976 2.956464,13.0989096 4.177656,11.9986776 C5.397336,10.8984456 6.824664,10.0824696 8.458128,9.5487336 C10.091088,9.0160056 11.853072,8.7493896 13.744584,8.7493896 C14.43204,8.7493896 15.10236,8.8098696 15.756048,8.9298216 C16.408728,9.0507816 16.942464,9.1974456 17.354736,9.3683016 L17.354736,1.0134936 C17.69796,0.9101736 18.248328,0.7982856 19.004832,0.6778296 C19.760832,0.5578776 20.534472,0.4973976 21.325752,0.4973976 C22.081752,0.4973976 22.761144,0.5488056 23.363424,0.6521256 C23.964192,0.7559496 24.472224,0.9620856 24.884496,1.2710376 C25.297272,1.5809976 25.607232,2.0013336 25.812864,2.5345656 C26.019504,3.0683016 26.12232,3.7643256 26.12232,4.6241496 L26.12232,29.0691576 C26.12232,30.6864936 25.365816,31.9757256 23.853312,32.9373576 C22.855392,33.5910456 21.56616,34.1676216 19.985112,34.6655736 C18.403056,35.1635256 16.581096,35.4130056 14.518224,35.4130056 C12.282984,35.4130056 10.280088,35.1040536 8.509536,34.4851416 C6.73848,33.8662296 5.243112,32.9721336 4.022928,31.8033576 C2.80224,30.6350856 1.873368,29.2339656 1.237824,27.5999976 C0.600768,25.9670376 0.283752,24.1188696 0.283752,22.0559976" id="Fill-9" fill="#898F9C" mask="url(#mask-2)"></path>
                </g>
                <path d="M8.6860872,11.687004 C8.1679752,12.559428 7.0400232,12.847212 6.1675992,12.328596 C5.2946712,11.810484 5.0078952,10.683036 5.5260072,9.810108 C6.0441192,8.937684 7.1715672,8.650404 8.0444952,9.168516 C8.9169192,9.686628 9.2041992,10.81458 8.6860872,11.687004" id="Fill-12" fill="#898F9C"></path>
                <path d="M2.414412,10.871784 C2.048004,11.488176 1.251684,11.690784 0.635292,11.32488 C0.019404,10.958976 -0.183708,10.162656 0.182196,9.546264 C0.5481,8.929872 1.34442,8.72676 1.961316,9.092664 C2.577708,9.459072 2.780316,10.255392 2.414412,10.871784" id="Fill-14" fill="#898F9C"></path>
                <path d="M29.1404232,13.6108224 C26.5614552,10.6851024 22.9976712,8.9392464 19.1052792,8.6943024 C18.1683432,8.6353344 17.2167912,8.6675904 16.2768312,8.7910704 C15.9527592,8.8177824 15.6392712,8.8611264 15.3393912,8.9135424 L15.0631992,8.9498304 L15.0914232,8.9599104 C13.7422152,9.2270304 12.7508472,9.6680304 12.6979272,9.6917184 L12.6898632,9.6952464 C11.2060872,10.4199984 10.3891032,11.6200224 10.3891032,13.0750704 C10.3891032,15.0809904 12.0210552,16.7124384 14.0269752,16.7124384 C14.4442872,16.7124384 15.7405752,16.2754704 15.7531752,16.2709344 C16.6850712,15.9458544 17.6582952,15.8117904 18.6531912,15.8752944 C21.1817592,16.0345584 23.4275832,17.4543264 24.6618792,19.6729344 L24.6649032,19.6789824 C25.3513512,20.9163024 25.6673592,22.3169184 25.5786552,23.7311424 C25.3221192,27.8059824 21.8026872,30.9126384 17.7228072,30.6561024 C15.4054152,30.5104464 13.3410312,29.3205024 12.0447432,27.3927024 L12.0442392,27.3896784 L12.0008952,27.3337344 L11.7065592,26.8881984 C10.6975512,25.1609904 10.8280872,22.7816064 10.8684072,22.2876864 L10.8719352,22.2403104 L10.8714312,22.2226704 C10.8018792,20.2515264 9.2031912,18.7072704 7.2325512,18.7072704 C5.5920312,18.7072704 4.1465592,19.8145584 3.7171512,21.3996384 C3.6299592,21.7206864 3.5916552,22.5754704 3.6042552,22.6727424 C3.2816952,30.5401824 9.4128552,37.3426704 17.2712232,37.8370944 C17.5670712,37.8557424 17.8659432,37.8653184 18.1668312,37.8653184 C18.7156872,37.8653184 19.2705912,37.8320544 19.8244872,37.7700624 L19.8290232,37.7715744 L19.9066392,37.7625024 L21.0643272,37.6264224 L20.9816712,37.5926544 C27.4570632,36.3412224 32.3393112,30.8637504 32.7596472,24.1832304 C33.0045912,20.2908384 31.7193912,16.5365424 29.1404232,13.6108224" id="Fill-16" fill="#898F9C"></path>
                <path d="M6.771744,16.7873832 C6.099912,17.9188632 4.637808,18.2913192 3.506328,17.6194872 C2.374848,16.9476552 2.002896,15.4855512 2.674728,14.3540712 C3.34656,13.2225912 4.80816,12.8501352 5.93964,13.5219672 C7.07112,14.1943032 7.443576,15.6559032 6.771744,16.7873832" id="Fill-18" fill="#898F9C"></path>
            </g>
        </g>
    </g>
</svg>