<svg width="93" height="24" viewBox="0 0 93 24" fill="none" xmlns="http://www.w3.org/2000/svg">
	<path fill-rule="evenodd" clip-rule="evenodd" d="M43.7176 10.415C43.1684 10.415 42.6469 10.5029 42.1531 10.678C41.6586 10.8548 41.2302 11.112 40.8677 11.4524C40.5059 11.7936 40.2145 12.216 39.9953 12.7209C39.7754 13.2263 39.6657 13.8197 39.6657 14.5003C39.6657 15.8622 40.0555 16.8835 40.8352 17.5641C41.6145 18.2453 42.5648 18.585 43.6844 18.585C44.3434 18.585 44.9141 18.5087 45.3977 18.3548C45.8805 18.2012 46.3087 18.0367 46.6824 17.8606C47.1212 18.1684 47.4508 18.5029 47.6704 18.8654C47.8899 19.2279 48 19.6619 48 20.1665C48 21.0673 47.5719 21.7643 46.7156 22.2585C45.8586 22.7534 44.673 23 43.1575 23C41.7742 23 40.5223 22.7968 39.4023 22.3909C38.2821 21.9849 37.3212 21.4134 36.5199 20.6777C35.7181 19.942 35.0977 19.0576 34.6583 18.0251C34.2189 16.9936 34 15.8509 34 14.5992C34 13.1491 34.2353 11.8809 34.7079 10.7939C35.1801 9.70637 35.8227 8.81198 36.6352 8.1085C37.447 7.40567 38.3861 6.87894 39.4516 6.52704C40.5168 6.17579 41.6422 6 42.8281 6C44.4094 6 45.6281 6.2859 46.4848 6.85673C47.3414 7.42788 47.7695 8.16355 47.7695 9.06375C47.7695 9.48133 47.6704 9.8709 47.4727 10.2334C47.2751 10.5959 47.0446 10.9092 46.7812 11.1722C46.4075 10.9971 45.9575 10.8268 45.4302 10.6616C44.9035 10.4971 44.3321 10.415 43.7176 10.415" fill="#5f45ba" />
	<path fill-rule="evenodd" clip-rule="evenodd" d="M28.4839 22.6985C28.2686 22.7655 27.9297 22.8322 27.4673 22.899C27.0051 22.9666 26.5266 23 26.0323 23C25.5588 23 25.1339 22.9666 24.7581 22.899C24.3811 22.8322 24.0643 22.6985 23.8061 22.4974C23.5482 22.2969 23.349 22.0239 23.2096 21.6775C23.0694 21.3325 23 20.8799 23 20.3224V10.2833C23 9.77051 23.0911 9.32969 23.2743 8.96147C23.4568 8.59325 23.7203 8.26427 24.0643 7.97453C24.4082 7.68479 24.8331 7.42187 25.3385 7.18805C25.8438 6.95358 26.3873 6.74822 26.9676 6.56868C27.5483 6.39079 28.1501 6.25148 28.7743 6.15043C29.3975 6.05003 30.0214 6 30.6449 6C31.6773 6 32.4947 6.20635 33.0968 6.61872C33.6986 7.03207 34 7.7067 34 8.64361C34 8.95656 33.9565 9.26298 33.8711 9.56416C33.7847 9.86502 33.6775 10.1387 33.5486 10.3833C33.0968 10.3833 32.6341 10.4059 32.1615 10.451C31.688 10.4962 31.2256 10.5629 30.7745 10.6515C30.3227 10.7408 29.8978 10.8359 29.5003 10.936C29.1018 11.0364 28.7629 11.1531 28.4839 11.2875V22.6985Z" fill="#5f45ba" />
	<path fill-rule="evenodd" clip-rule="evenodd" d="M65 22.7037C64.7905 22.7696 64.4615 22.8351 64.0116 22.9007C63.5617 22.9672 63.0962 23 62.6154 23C62.1551 23 61.7414 22.9672 61.3758 22.9007C61.0093 22.8351 60.7008 22.7037 60.45 22.5061C60.1991 22.3091 60.0053 22.0408 59.8695 21.7004C59.733 21.3614 59.6652 20.9167 59.6652 20.3687V13.0682C59.6652 12.1697 59.4506 11.5395 59.0221 11.1777C58.5931 10.8161 58.065 10.6355 57.4376 10.6355C57.0187 10.6355 56.6212 10.6905 56.2447 10.7997C55.8684 10.9093 55.5645 11.0408 55.3348 11.1944V22.7037C55.1253 22.7696 54.796 22.8351 54.3464 22.9007C53.8962 22.9672 53.4304 23 52.9498 23C52.4895 23 52.0758 22.9672 51.71 22.9007C51.3441 22.8351 51.0356 22.7037 50.7848 22.5061C50.5333 22.3091 50.3398 22.0408 50.2039 21.7004C50.0675 21.3614 50 20.9167 50 20.3687V1.29597C50.23 1.25259 50.5695 1.19185 51.0197 1.11472C51.4692 1.03856 51.9246 1 52.3849 1C52.8449 1 53.258 1.03278 53.6242 1.09833C53.9904 1.16486 54.2992 1.29597 54.5503 1.49296C54.8012 1.69059 54.9944 1.95892 55.1308 2.2986C55.2667 2.63891 55.3348 3.08303 55.3348 3.63094V6.85317C55.6065 6.74391 56.0199 6.61826 56.574 6.47493C57.1282 6.33289 57.74 6.26155 58.4103 6.26155C60.4813 6.26155 62.0971 6.804 63.2584 7.88922C64.4195 8.97476 65 10.5912 65 12.7401V22.7037Z" fill="#5f45ba" />
	<path fill-rule="evenodd" clip-rule="evenodd" d="M74.7421 22.7118C74.505 22.7543 74.1561 22.8124 73.6939 22.8875C73.2311 22.9625 72.7636 23 72.2907 23C71.8172 23 71.3922 22.9681 71.0164 22.9034C70.6393 22.8396 70.3222 22.7118 70.0643 22.5195C69.8064 22.3279 69.6072 22.0669 69.4678 21.7359C69.3276 21.4061 69.2579 20.9734 69.2579 20.4404V7.42169C69.4943 7.37856 69.8436 7.32041 70.3064 7.24539C70.7686 7.17099 71.2364 7.13348 71.7096 7.13348C72.1825 7.13348 72.6075 7.16568 72.9839 7.22945C73.36 7.29322 73.6775 7.42169 73.9354 7.61332C74.1936 7.80556 74.3925 8.06658 74.5325 8.397C74.6721 8.72804 74.7421 9.15974 74.7421 9.6924V22.7118ZM69 2.87902C69 2.06877 69.274 1.38637 69.8228 0.831822C70.3707 0.277587 71.0968 0 72.0003 0C72.9032 0 73.6296 0.277587 74.1775 0.831822C74.726 1.38637 75 2.06877 75 2.87902C75 3.68959 74.726 4.37199 74.1775 4.92623C73.6296 5.4814 72.9032 5.75836 72.0003 5.75836C71.0968 5.75836 70.3707 5.4814 69.8228 4.92623C69.274 4.37199 69 3.68959 69 2.87902V2.87902Z" fill="#5f45ba" />
	<mask id="mask0" mask-type="alpha" maskUnits="userSpaceOnUse" x="76" y="1" width="17" height="23">
		<path fill-rule="evenodd" clip-rule="evenodd" d="M76.1836 1.3197H92.9443V23.7615H76.1836V1.3197Z" fill="white" />
	</mask>
	<g mask="url(#mask0)">
		<path fill-rule="evenodd" clip-rule="evenodd" d="M85.6846 11.0328C84.4802 11.0328 83.5544 11.3752 82.9081 12.0601C82.2608 12.7458 81.9378 13.7838 81.9378 15.1764C81.9378 16.5467 82.2389 17.5791 82.8414 18.2756C83.4436 18.972 84.3132 19.3203 85.4506 19.3203C85.852 19.3203 86.2142 19.2591 86.5376 19.1376C86.8609 19.0167 87.112 18.8778 87.2905 18.7229V11.4306C86.8439 11.1653 86.3091 11.0328 85.6846 11.0328M76.1836 15.1764C76.1836 13.7177 76.4062 12.453 76.8528 11.3804C77.2987 10.3091 77.9173 9.41927 78.7094 8.7121C79.5009 8.00493 80.4264 7.48046 81.486 7.13741C82.5452 6.795 83.6888 6.62363 84.9154 6.62363C85.3613 6.62363 85.7961 6.6625 86.2201 6.7396C86.6435 6.81735 86.9894 6.91129 87.2571 7.02143V1.65142C87.4794 1.58501 87.8368 1.5131 88.3275 1.43567C88.8182 1.35858 89.3197 1.3197 89.833 1.3197C90.3233 1.3197 90.764 1.35274 91.1544 1.41883C91.5447 1.48589 91.8739 1.61838 92.1414 1.81663C92.4091 2.01618 92.6102 2.28635 92.7436 2.62908C92.8776 2.97214 92.9443 3.41951 92.9443 3.97215V19.6841C92.9443 20.7236 92.4536 21.5526 91.4722 22.1703C90.8252 22.5905 89.9886 22.9611 88.963 23.2811C87.9371 23.6012 86.7553 23.7615 85.4172 23.7615C83.9673 23.7615 82.6678 23.563 81.5196 23.1652C80.3705 22.7674 79.4005 22.1927 78.6094 21.4415C77.8176 20.6906 77.215 19.79 76.8028 18.7398C76.3896 17.6899 76.1836 16.5023 76.1836 15.1764" fill="#5f45ba" />
	</g>
	<path fill-rule="evenodd" clip-rule="evenodd" d="M5.85973 7.51061C5.57786 7.98531 4.96421 8.14162 4.48958 7.85971C4.01468 7.5778 3.85839 6.96435 4.14026 6.48939C4.42241 6.01469 5.03578 5.85838 5.51068 6.14029C5.98531 6.4222 6.1416 7.03592 5.85973 7.51061" fill="#5f45ba" />
	<path fill-rule="evenodd" clip-rule="evenodd" d="M0.929763 6.75525C0.788653 6.99265 0.481977 7.07088 0.244788 6.92976C0.00740567 6.78884 -0.0708161 6.48214 0.0700996 6.24475C0.211209 6.00735 0.517885 5.92912 0.755268 6.07024C0.992651 6.21116 1.07087 6.51786 0.929763 6.75525" fill="#5f45ba" />
	<mask id="mask1" mask-type="alpha" maskUnits="userSpaceOnUse" x="2" y="6" width="19" height="18">
		<path fill-rule="evenodd" clip-rule="evenodd" d="M2.04102 6.02002H20.697V24H2.04102V6.02002Z" fill="white" />
	</mask>
	<g mask="url(#mask1)">
		<path fill-rule="evenodd" clip-rule="evenodd" d="M18.3653 9.06504C16.7178 7.26349 14.4403 6.18845 11.9536 6.03762C11.3546 6.00131 10.7469 6.02117 10.1463 6.09721H10.146C9.93894 6.11366 9.73864 6.14035 9.54703 6.17262L9.37055 6.19497L9.38859 6.20117C8.5265 6.36566 7.89274 6.63721 7.85957 6.6518L7.85409 6.65397C6.90603 7.10024 6.38401 7.83917 6.38401 8.73514C6.38401 9.97031 7.42676 10.9749 8.70877 10.9749C8.97542 10.9749 9.80337 10.7058 9.81142 10.703C10.4069 10.5029 11.029 10.4203 11.6644 10.4594C13.2804 10.5575 14.715 11.4317 15.5037 12.7979L15.5056 12.8016C15.9442 13.5635 16.1461 14.4259 16.0898 15.2968C15.9256 17.8059 13.6768 19.7189 11.0702 19.5609C9.58921 19.4712 8.27016 18.7385 7.44157 17.5514V17.5496L7.41387 17.5151L7.22581 17.2408C6.58077 16.1772 6.66418 14.7121 6.69026 14.4079L6.69284 14.3788L6.6922 14.3679C6.64776 13.1541 5.62626 12.2032 4.36711 12.2032C3.31889 12.2032 2.3953 12.8851 2.12125 13.8611C2.06553 14.0588 2.04106 14.5851 2.04879 14.645C1.84269 19.4895 5.76023 23.6782 10.7814 23.9827C10.9704 23.9942 11.1614 24.0001 11.3536 24.0001C11.704 24.0001 12.0589 23.9796 12.4128 23.9414L12.4157 23.9423L12.4656 23.9368L13.2053 23.853L13.1525 23.8322C17.2897 23.0616 20.4092 19.6888 20.6781 15.5751C20.8346 13.1783 20.0131 10.8666 18.3653 9.06504" fill="#5f45ba" />
	</g>
	<path fill-rule="evenodd" clip-rule="evenodd" d="M3.78953 10.266C3.36662 10.9782 2.44658 11.2124 1.73402 10.7895C1.02178 10.3665 0.787643 9.4465 1.21055 8.73426C1.63345 8.02201 2.55349 7.78756 3.26605 8.21046C3.97798 8.63337 4.21243 9.55373 3.78953 10.266" fill="#5f45ba" />
</svg>
