<?xml version="1.0" encoding="UTF-8"?>
<svg width="35px" height="30px" viewBox="0 0 35 30" version="1.1" xmlns="http://www.w3.org/2000/svg" xmlns:xlink="http://www.w3.org/1999/xlink">
    <!-- Generator: Sketch 52.5 (67469) - http://www.bohemiancoding.com/sketch -->
    <title>Group</title>
    <desc>Created with Sketch.</desc>
    <g id="Mobile" stroke="none" stroke-width="1" fill="none" fill-rule="evenodd">
        <g id="Mobile_Landing-A.0" transform="translate(-20.000000, -26.000000)" fill="#5F45BA">
            <g id="Group" transform="translate(20.000000, 25.854056)">
                <path d="M9.51417419,3.38212287 C8.97864088,4.28362258 7.81384661,4.58045785 6.91216057,4.04511088 C6.01066086,3.50957757 5.7138256,2.3447833 6.24935891,1.44309726 C6.78470588,0.541597553 7.94968648,0.244762284 8.85118619,0.780295594 C9.75287223,1.31564257 10.0495212,2.48062317 9.51417419,3.38212287" id="Fill-14"></path>
                <path d="M3.03450064,2.53987842 C2.65623599,3.1767792 1.83337061,3.38640863 1.19665616,3.00814398 C0.55975538,2.62987932 0.350125953,1.80720028 0.728390608,1.1702995 C1.10646893,0.533398713 1.9293343,0.323769286 2.56623509,0.702033941 C3.20313587,1.0802986 3.4127653,1.90316397 3.03450064,2.53987842" id="Fill-16"></path>
                <path d="M21.0706811,30.0121223 C28.0251607,29.1954061 33.6190055,23.5095106 34.0744138,16.2729165 C34.5870276,8.13072319 28.4019346,1.11456602 20.259555,0.601952194 C19.2861291,0.540647233 18.3296599,0.577728349 17.3976009,0.69977926 C15.4401279,0.860029311 13.787689,1.60537839 13.787689,1.60537839 C12.4514645,2.2579315 11.5863005,3.35210394 11.5863005,4.81596952 C11.5863005,6.71921838 13.1291731,8.26209097 15.032422,8.26209097 C15.3508724,8.26209097 16.4526846,7.91364028 16.7131841,7.82289403 C17.6853057,7.48413287 18.7397883,7.32891393 19.8317246,7.39767238 C22.6450447,7.57487912 25.0227083,9.1932183 26.2963235,11.4874027 C27.0096226,12.7727572 27.377825,14.2692318 27.2786936,15.8452724 C27.0023554,20.2342605 23.2204542,23.5683932 18.8312799,23.2920551 C16.2380241,23.1290099 14.0137161,21.7413563 12.6841997,19.7283548 C12.6841997,19.7291001 12.6841997,19.7298455 12.684386,19.7305908 C12.6841997,19.7298455 12.6841997,19.7292865 12.6841997,19.7283548 C11.0938111,17.6471538 11.4614545,14.3195429 11.4597775,14.2783624 C11.3945595,12.428406 9.87833311,10.9479564 8.01253804,10.9479564 C6.41823637,10.9479564 5.07996211,12.0298305 4.68231838,13.4983546 C4.60424306,13.7866183 4.56511224,14.6320305 4.57629247,14.7453236 C4.24815254,22.7466459 10.3711952,29.5822422 18.4034495,30.0877752 C19.3094213,30.1447944 20.2001134,30.1144215 21.0706811,30.0121223" id="Fill-18"></path>
                <path d="M7.53625998,8.65170356 C6.84196732,9.82059725 5.33170376,10.2053837 4.16281007,9.51127738 C2.99391639,8.81698472 2.60912993,7.30672116 3.30323625,6.13782747 C3.99752892,4.96893379 5.50779248,4.58414733 6.67668616,5.27825365 C7.84557985,5.97254632 8.23036631,7.48280988 7.53625998,8.65170356" id="Fill-20"></path>
            </g>
        </g>
    </g>
</svg>