<svg width="35" height="33" viewBox="0 0 35 33" fill="none" xmlns="http://www.w3.org/2000/svg">
<path fill-rule="evenodd" clip-rule="evenodd" d="M0 30.0501C0 31.6798 1.3329 33 2.97858 33H12.6594C14.3052 33 15.6383 31.6798 15.6383 30.0501V18.2513C15.6383 16.6216 14.3052 15.3016 12.6594 15.3016H7.87864C7.0517 15.3016 6.38935 14.6379 6.38935 13.8269C6.38935 13.5614 6.45615 13.377 6.45615 13.377C7.54332 9.80763 10.2908 6.94654 13.8134 5.67833L13.8282 5.66356C14.8935 5.21391 15.6382 4.16647 15.6382 2.94963C15.6382 1.32007 14.3051 0 12.6594 0C12.2572 0 11.8778 0.0810031 11.5279 0.221013L11.3932 0.272959C4.72835 2.84639 0 9.26211 0 16.7764V30.0501ZM19.3618 30.0501C19.3618 31.6798 20.6947 33 22.3405 33H32.0214C33.6671 33 35 31.6798 35 30.0501V18.2513C35 16.6216 33.6671 15.3016 32.0214 15.3016H27.2405C26.4136 15.3016 25.7512 14.6379 25.7512 13.8269C25.7512 13.554 25.8179 13.377 25.8179 13.377C26.9053 9.80763 29.6527 6.94654 33.1754 5.67833L33.1902 5.66356C34.2553 5.21391 35 4.16647 35 2.94963C35 1.32007 33.6671 0 32.0214 0C31.6193 0 31.2396 0.0810031 30.8899 0.221013L30.7552 0.272959C24.0902 2.84639 19.3618 9.26211 19.3618 16.7764V30.0501Z" fill="#5F45BA"/>
</svg>
