<svg width="30" height="30" viewBox="0 0 30 30" fill="none" xmlns="http://www.w3.org/2000/svg">
	<style type="text/css">
	.st0{fill-rule:evenodd;clip-rule:evenodd;fill:#5f45ba;}
</style>
	<g id="Layer_1_1_"></g>
	<g id="Layer_2_1_">
		<g>
			<polygon class="st0" points="13.5,17.4 17.6,15 13.5,12.6 		" />
			<path class="st0" d="M29.8,12.9c-0.8-6-5.1-10.8-11-12.4c-2-0.5-3.9-0.6-5.9-0.4C9.4,0.7,6.4,2.2,4,4.9c-2,2-3.2,4.5-3.7,7.3
			c-0.1,0.7-0.2,1.3-0.2,2v0.1l0,0v1.3c0,0.2,0,0.3,0,0.5c0,0.1,0,0.3,0,0.4c0.2,2.1,0.9,4.1,2,6c1.8,3.1,4.4,5.2,7.8,6.5
			c1.4,0.5,2.8,0.8,4.3,0.9c0,0,0,0,0.1,0h0.1h1.3c0.3,0,0.6-0.1,0.9-0.1c2.4-0.3,4.6-1,6.6-2.3c3.3-2.2,5.5-5.3,6.4-9.2
			C30,16.6,30.1,14.7,29.8,12.9z M22.6,18.9c-0.2,0.7-0.7,1.2-1.4,1.4C20,20.5,15,20.5,15,20.5s-5,0-6.2-0.3
			c-0.7-0.2-1.2-0.7-1.4-1.4C7.1,17.6,7.1,15,7.1,15s0-2.6,0.3-3.8c0.2-0.7,0.7-1.2,1.4-1.4C10.1,9.5,15,9.5,15,9.5s5,0,6.2,0.3
			c0.7,0.2,1.2,0.7,1.4,1.4c0.3,1.2,0.3,3.8,0.3,3.8S22.9,17.6,22.6,18.9z" />
		</g>
	</g>
</svg>