<svg width="193" height="724" viewBox="0 0 193 724" fill="none" xmlns="http://www.w3.org/2000/svg">
	<path fill-rule="evenodd" clip-rule="evenodd" d="M100.99 699.476C100.99 686.65 90.5907 676.249 77.7618 676.249C64.9291 676.249 54.5302 686.65 54.5302 699.476C54.5302 712.303 64.9291 722.699 77.7618 722.699C90.5907 722.699 100.99 712.303 100.99 699.476Z" stroke="#D5D7E2" />
	<path fill-rule="evenodd" clip-rule="evenodd" d="M81.1426 614.331C81.1426 612.468 79.6268 610.953 77.7599 610.953C75.893 610.953 74.381 612.468 74.381 614.331C74.381 616.197 75.893 617.713 77.7599 617.713C79.6268 617.713 81.1426 616.197 81.1426 614.331Z" fill="#D5D7E2" />
	<path fill-rule="evenodd" clip-rule="evenodd" d="M135.96 615.585C135.96 613.722 134.444 612.207 132.577 612.207C130.714 612.207 129.198 613.722 129.198 615.585C129.198 617.451 130.714 618.967 132.577 618.967C134.444 618.967 135.96 617.451 135.96 615.585Z" fill="#D5D7E2" />
	<path fill-rule="evenodd" clip-rule="evenodd" d="M137.06 656.905C137.06 654.429 135.05 652.424 132.578 652.424C130.102 652.424 128.1 654.429 128.1 656.905C128.1 659.381 130.102 661.383 132.578 661.383C135.05 661.383 137.06 659.381 137.06 656.905Z" fill="#D5D7E2" />
	<path fill-rule="evenodd" clip-rule="evenodd" d="M82.3819 699.476C82.3819 697 80.3723 694.995 77.8999 694.995C75.4236 694.995 73.4218 697 73.4218 699.476C73.4218 701.952 75.4236 703.954 77.8999 703.954C80.3723 703.954 82.3819 701.952 82.3819 699.476Z" fill="#D5D7E2" />
	<path fill-rule="evenodd" clip-rule="evenodd" d="M190.627 572.103C191.95 570.784 191.95 568.647 190.627 567.325C189.308 566.006 187.167 566.006 185.848 567.325C184.525 568.647 184.525 570.784 185.848 572.103C187.167 573.425 189.308 573.425 190.627 572.103Z" fill="#D5D7E2" />
	<path d="M132.144 448.495H11.5393" stroke="#D5D7E2" stroke-linecap="round" stroke-linejoin="round" />
	<path fill-rule="evenodd" clip-rule="evenodd" d="M26.4572 448.495C26.4572 441.496 20.7795 435.819 13.7788 435.819C6.77418 435.819 1.10033 441.496 1.10033 448.495C1.10033 455.498 6.77418 461.175 13.7788 461.175C20.7795 461.175 26.4572 455.498 26.4572 448.495Z" stroke="#D5D7E2" />
	<path fill-rule="evenodd" clip-rule="evenodd" d="M18.1852 448.495C18.1852 446.019 16.1794 444.018 13.707 444.018C11.2307 444.018 9.22501 446.019 9.22501 448.495C9.22501 450.975 11.2307 452.976 13.707 452.976C16.1794 452.976 18.1852 450.975 18.1852 448.495Z" fill="#D5D7E2" />
	<path d="M187.127 527.539V395.177" stroke="#D5D7E2" />
	<path fill-rule="evenodd" clip-rule="evenodd" d="M190.627 527.539C191.95 526.217 191.95 524.08 190.627 522.761C189.308 521.439 187.167 521.439 185.848 522.761C184.525 524.08 184.525 526.217 185.848 527.539C187.167 528.858 189.308 528.858 190.627 527.539Z" fill="#D5D7E2" />
	<path fill-rule="evenodd" clip-rule="evenodd" d="M190.627 397.564C191.95 396.245 191.95 394.104 190.627 392.785C189.308 391.463 187.167 391.463 185.848 392.785C184.525 394.104 184.525 396.245 185.848 397.564C187.167 398.886 189.308 398.886 190.627 397.564Z" fill="#D5D7E2" />
	<path d="M133.425 171.657H179.68" stroke="#D5D7E2" />
	<path fill-rule="evenodd" clip-rule="evenodd" d="M179.681 174.044C181.004 172.725 181.004 170.585 179.681 169.266C178.361 167.943 176.221 167.943 174.902 169.266C173.579 170.585 173.579 172.725 174.902 174.044C176.221 175.367 178.361 175.367 179.681 174.044Z" fill="#D5D7E2" />
	<path d="M132.578 655.666V699.475H77.7599V614.33H132.578V570.525L132.578 81.7477" stroke="#D5D7E2" stroke-linecap="round" stroke-linejoin="round" />
	<path d="M81.2255 119.207V23.2144" stroke="#D5D7E2" stroke-linecap="round" stroke-linejoin="round" />
	<path fill-rule="evenodd" clip-rule="evenodd" d="M93.2941 119.207C93.2941 112.204 87.6164 106.528 80.6157 106.528C73.6111 106.528 67.9334 112.204 67.9334 119.207C67.9334 126.207 73.6111 131.883 80.6157 131.883C87.6164 131.883 93.2941 126.207 93.2941 119.207Z" stroke="#D5D7E2" />
	<path d="M80.6153 119.207H30.9932" stroke="#D5D7E2" stroke-linecap="round" stroke-linejoin="round" />
	<path fill-rule="evenodd" clip-rule="evenodd" d="M29.3913 121.595C30.7105 120.276 30.7105 118.136 29.3913 116.817C28.0683 115.494 25.9315 115.494 24.6085 116.817C23.2893 118.136 23.2893 120.276 24.6085 121.595C25.9315 122.918 28.0683 122.918 29.3913 121.595Z" fill="#D5D7E2" />
	<path d="M81.2255 119.207H132.576" stroke="#D5D7E2" stroke-linecap="round" stroke-linejoin="round" />
	<path fill-rule="evenodd" clip-rule="evenodd" d="M83.6173 121.595C84.9365 120.276 84.9365 118.136 83.6173 116.817C82.2943 115.494 80.1575 115.494 78.8383 116.817C77.5153 118.136 77.5153 120.276 78.8383 121.595C80.1575 122.918 82.2943 122.918 83.6173 121.595Z" fill="#D5D7E2" />
	<path fill-rule="evenodd" clip-rule="evenodd" d="M137.06 77.2655C137.06 74.7897 135.05 72.7843 132.578 72.7843C130.102 72.7843 128.1 74.7897 128.1 77.2655C128.1 79.7413 130.102 81.7466 132.578 81.7466C135.05 81.7466 137.06 79.7413 137.06 77.2655Z" fill="#D5D7E2" />
	<path fill-rule="evenodd" clip-rule="evenodd" d="M100.485 21.3028C100.485 10.3275 91.5866 1.43853 80.6169 1.43853C69.6394 1.43853 60.741 10.3275 60.741 21.3028C60.741 32.2742 69.6394 41.167 80.6169 41.167C91.5866 41.167 100.485 32.2742 100.485 21.3028Z" stroke="#D5D7E2" />
	<path fill-rule="evenodd" clip-rule="evenodd" d="M83.0033 23.3513C84.3263 22.0324 84.3263 19.896 83.0033 18.5733C81.6841 17.2544 79.5473 17.2544 78.2243 18.5733C76.9051 19.896 76.9051 22.0324 78.2243 23.3513C79.5473 24.6741 81.6841 24.6741 83.0033 23.3513Z" fill="#D5D7E2" />
</svg>
