<svg width="362" height="725" viewBox="0 0 362 725" fill="none" xmlns="http://www.w3.org/2000/svg">
	<path d="M337.776 26.0002V141.973H284.578V243.057H233.797V125.529H136.776V294" stroke="#D5D7E2" />
	<path fill-rule="evenodd" clip-rule="evenodd" d="M232.95 99.2473C247.603 99.2473 259.48 111.114 259.48 125.75C259.48 140.387 247.603 152.254 232.95 152.254C218.301 152.254 206.424 140.387 206.424 125.75C206.424 111.114 218.301 99.2473 232.95 99.2473Z" stroke="#D5D7E2" />
	<path fill-rule="evenodd" clip-rule="evenodd" d="M85.6765 315.629C100.33 315.629 112.206 327.496 112.206 342.133C112.206 356.769 100.33 368.636 85.6765 368.636C71.0274 368.636 59.1505 356.769 59.1505 342.133C59.1505 327.496 71.0274 315.629 85.6765 315.629Z" stroke="#D5D7E2" />
	<path fill-rule="evenodd" clip-rule="evenodd" d="M243.582 474.218C251.579 474.218 258.062 480.695 258.062 488.685C258.062 496.671 251.579 503.152 243.582 503.152C235.59 503.152 229.103 496.671 229.103 488.685C229.103 480.695 235.59 474.218 243.582 474.218Z" stroke="#D5D7E2" />
	<path fill-rule="evenodd" clip-rule="evenodd" d="M16.6662 396.557C24.6591 396.557 31.1417 403.034 31.1417 411.024C31.1417 419.01 24.6591 425.491 16.6662 425.491C8.6693 425.491 2.18665 419.01 2.18665 411.024C2.18665 403.034 8.6693 396.557 16.6662 396.557Z" stroke="#D5D7E2" />
	<path d="M185.747 516.083V489.347H243.582V442.755H182.916V409.531H16.3424L16.3424 468.257H126.295" stroke="#D5D7E2" stroke-linecap="round" stroke-linejoin="round" />
	<path d="M185.747 641.857V505.153" stroke="#D5D7E2" stroke-linecap="round" stroke-linejoin="round" />
	<path d="M135.71 293.864H85.6781V342.131H182.918V293.864H232.95H324.105" stroke="#D5D7E2" stroke-linecap="round" stroke-linejoin="round" />
	<path fill-rule="evenodd" clip-rule="evenodd" d="M182.917 382.78C197.57 382.78 209.447 394.646 209.447 409.283C209.447 423.919 197.57 435.786 182.917 435.786C168.268 435.786 156.391 423.919 156.391 409.283C156.391 394.646 168.268 382.78 182.917 382.78Z" stroke="#D5D7E2" />
	<path fill-rule="evenodd" clip-rule="evenodd" d="M184.623 604.94C204.642 604.94 220.873 621.157 220.873 641.159C220.873 661.165 204.642 677.382 184.623 677.382C164.603 677.382 148.373 661.165 148.373 641.159C148.373 621.157 164.603 604.94 184.623 604.94Z" stroke="#D5D7E2" />
	<path fill-rule="evenodd" clip-rule="evenodd" d="M243.582 484.826C245.716 484.826 247.443 486.552 247.443 488.683C247.443 490.814 245.716 492.54 243.582 492.54C241.453 492.54 239.722 490.814 239.722 488.683C239.722 486.552 241.453 484.826 243.582 484.826Z" fill="#D5D7E2" />
	<path fill-rule="evenodd" clip-rule="evenodd" d="M182.917 338.276C185.05 338.276 186.777 340.002 186.777 342.133C186.777 344.264 185.05 345.99 182.917 345.99C180.787 345.99 179.056 344.264 179.056 342.133C179.056 340.002 180.787 338.276 182.917 338.276Z" fill="#D5D7E2" />
	<path fill-rule="evenodd" clip-rule="evenodd" d="M181.488 290.005C183.617 290.005 185.349 291.731 185.349 293.862C185.349 295.994 183.617 297.719 181.488 297.719C179.355 297.719 177.628 295.994 177.628 293.862C177.628 291.731 179.355 290.005 181.488 290.005Z" fill="#D5D7E2" />
	<path fill-rule="evenodd" clip-rule="evenodd" d="M125.936 463.095C128.764 463.095 131.055 465.385 131.055 468.209C131.055 471.034 128.764 473.323 125.936 473.323C123.109 473.323 120.818 471.034 120.818 468.209C120.818 465.385 123.109 463.095 125.936 463.095Z" fill="#D5D7E2" />
	<path fill-rule="evenodd" clip-rule="evenodd" d="M16.6662 463.095C19.4895 463.095 21.7805 465.385 21.7805 468.209C21.7805 471.034 19.4895 473.323 16.6662 473.323C13.8389 473.323 11.5479 471.034 11.5479 468.209C11.5479 465.385 13.8389 463.095 16.6662 463.095Z" fill="#D5D7E2" />
	<path fill-rule="evenodd" clip-rule="evenodd" d="M16.6662 405.995C19.4895 405.995 21.7805 408.28 21.7805 411.105C21.7805 413.93 19.4895 416.219 16.6662 416.219C13.8389 416.219 11.5479 413.93 11.5479 411.105C11.5479 408.28 13.8389 405.995 16.6662 405.995Z" fill="#D5D7E2" />
	<path fill-rule="evenodd" clip-rule="evenodd" d="M182.917 404.902C185.744 404.902 188.035 407.191 188.035 410.016C188.035 412.841 185.744 415.13 182.917 415.13C180.089 415.13 177.802 412.841 177.802 410.016C177.802 407.191 180.089 404.902 182.917 404.902Z" fill="#D5D7E2" />
	<path fill-rule="evenodd" clip-rule="evenodd" d="M337.673 1.0329C350.204 1.0329 360.362 11.1819 360.362 23.7026C360.362 36.2233 350.204 46.3762 337.673 46.3762C325.141 46.3762 314.983 36.2233 314.983 23.7026C314.983 11.1819 325.141 1.0329 337.673 1.0329Z" stroke="#D5D7E2" />
	<path fill-rule="evenodd" clip-rule="evenodd" d="M335.332 20.9743C336.842 19.4693 339.283 19.4693 340.793 20.9743C342.299 22.4832 342.299 24.9259 340.793 26.4309C339.283 27.9399 336.842 27.9399 335.332 26.4309C333.825 24.9259 333.825 22.4832 335.332 20.9743Z" fill="#D5D7E2" />
	<path fill-rule="evenodd" clip-rule="evenodd" d="M320.972 290.733C322.482 289.224 324.923 289.224 326.433 290.733C327.94 292.238 327.94 294.68 326.433 296.185C324.923 297.694 322.482 297.694 320.972 296.185C319.466 294.68 319.466 292.238 320.972 290.733Z" fill="#D5D7E2" />
	<path fill-rule="evenodd" clip-rule="evenodd" d="M134.296 288.751C137.124 288.751 139.415 291.04 139.415 293.865C139.415 296.69 137.124 298.979 134.296 298.979C131.469 298.979 129.182 296.69 129.182 293.865C129.182 291.04 131.469 288.751 134.296 288.751Z" fill="#D5D7E2" />
	<path fill-rule="evenodd" clip-rule="evenodd" d="M85.6765 336.86C88.5038 336.86 90.7948 339.149 90.7948 341.974C90.7948 344.795 88.5038 347.084 85.6765 347.084C82.8492 347.084 80.5621 344.795 80.5621 341.974C80.5621 339.149 82.8492 336.86 85.6765 336.86Z" fill="#D5D7E2" />
	<path d="M92.3997 641.16H306.749V699.812" stroke="#D5D7E2" stroke-linecap="round" stroke-linejoin="round" />
	<path fill-rule="evenodd" clip-rule="evenodd" d="M183.718 638.433C185.224 636.928 187.669 636.928 189.175 638.433C190.685 639.941 190.685 642.38 189.175 643.889C187.669 645.394 185.224 645.394 183.718 643.889C182.207 642.38 182.207 639.941 183.718 638.433Z" fill="#D5D7E2" />
	<path fill-rule="evenodd" clip-rule="evenodd" d="M92.3997 627.39C100.393 627.39 106.879 633.871 106.879 641.857C106.879 649.847 100.393 656.324 92.3997 656.324C84.4028 656.324 77.9202 649.847 77.9202 641.857C77.9202 633.871 84.4028 627.39 92.3997 627.39Z" stroke="#D5D7E2" />
	<path d="M92.3997 641.857V698.472" stroke="#D5D7E2" stroke-linecap="round" stroke-linejoin="round" />
	<path fill-rule="evenodd" clip-rule="evenodd" d="M89.6698 638.433C91.1761 636.928 93.6209 636.928 95.1272 638.433C96.6375 639.941 96.6375 642.38 95.1272 643.889C93.6209 645.394 91.1761 645.394 89.6698 643.889C88.1595 642.38 88.1595 639.941 89.6698 638.433Z" fill="#D5D7E2" />
	<path fill-rule="evenodd" clip-rule="evenodd" d="M89.6698 700.3C91.1761 698.791 93.6209 698.791 95.1272 700.3C96.6375 701.805 96.6375 704.248 95.1272 705.753C93.6209 707.262 91.1761 707.262 89.6698 705.753C88.1595 704.248 88.1595 701.805 89.6698 700.3Z" fill="#D5D7E2" />
	<path fill-rule="evenodd" clip-rule="evenodd" d="M306.751 670.582C321.4 670.582 333.277 682.449 333.277 697.089C333.277 711.722 321.4 723.589 306.751 723.589C292.098 723.589 280.221 711.722 280.221 697.089C280.221 682.449 292.098 670.582 306.751 670.582Z" stroke="#D5D7E2" />
	<path d="M306.751 598.553V641.159" stroke="#D5D7E2" stroke-linecap="round" stroke-linejoin="round" />
	<path fill-rule="evenodd" clip-rule="evenodd" d="M306.751 590.839C308.88 590.839 310.611 592.565 310.611 594.696C310.611 596.828 308.88 598.553 306.751 598.553C304.618 598.553 302.89 596.828 302.89 594.696C302.89 592.565 304.618 590.839 306.751 590.839Z" fill="#D5D7E2" />
	<path fill-rule="evenodd" clip-rule="evenodd" d="M231.148 240.126C232.655 238.617 235.099 238.617 236.606 240.126C238.116 241.631 238.116 244.074 236.606 245.579C235.099 247.088 232.655 247.088 231.148 245.579C229.638 244.074 229.638 241.631 231.148 240.126Z" fill="#D5D7E2" />
	<path fill-rule="evenodd" clip-rule="evenodd" d="M282.044 240.126C283.55 238.617 285.995 238.617 287.502 240.126C289.012 241.631 289.012 244.074 287.502 245.579C285.995 247.088 283.55 247.088 282.044 245.579C280.534 244.074 280.534 241.631 282.044 240.126Z" fill="#D5D7E2" />
</svg>
