<svg width="362" height="725" viewBox="0 0 362 725" fill="none" xmlns="http://www.w3.org/2000/svg">
	<path d="M24.2243 699L24.2243 583.027H77.4219L77.4219 481.943H128.203L128.203 599.471H225.224L225.224 431" stroke="#D5D7E2" />
	<path fill-rule="evenodd" clip-rule="evenodd" d="M129.05 625.753C114.397 625.753 102.52 613.886 102.52 599.249C102.52 584.613 114.397 572.746 129.05 572.746C143.699 572.746 155.576 584.613 155.576 599.249C155.576 613.886 143.699 625.753 129.05 625.753Z" stroke="#D5D7E2" />
	<path fill-rule="evenodd" clip-rule="evenodd" d="M276.324 409.371C261.671 409.371 249.794 397.504 249.794 382.867C249.794 368.231 261.671 356.364 276.324 356.364C290.973 356.364 302.85 368.231 302.85 382.867C302.85 397.504 290.973 409.371 276.324 409.371Z" stroke="#D5D7E2" />
	<path fill-rule="evenodd" clip-rule="evenodd" d="M118.418 250.782C110.421 250.782 103.938 244.304 103.938 236.315C103.938 228.329 110.421 221.848 118.418 221.848C126.411 221.848 132.897 228.329 132.897 236.315C132.897 244.304 126.411 250.782 118.418 250.782Z" stroke="#D5D7E2" />
	<path fill-rule="evenodd" clip-rule="evenodd" d="M345.334 328.443C337.341 328.443 330.858 321.966 330.858 313.976C330.858 305.99 337.341 299.509 345.334 299.509C353.331 299.509 359.813 305.99 359.813 313.976C359.813 321.966 353.331 328.443 345.334 328.443Z" stroke="#D5D7E2" />
	<path d="M176.253 208.917V235.653L118.418 235.653V282.245L179.084 282.245L179.084 315.469H345.658V256.743H235.705" stroke="#D5D7E2" stroke-linecap="round" stroke-linejoin="round" />
	<path d="M176.253 83.1433L176.253 219.847" stroke="#D5D7E2" stroke-linecap="round" stroke-linejoin="round" />
	<path d="M226.29 431.136H276.322V382.869H179.082V431.136H129.051L37.8951 431.136" stroke="#D5D7E2" stroke-linecap="round" stroke-linejoin="round" />
	<path fill-rule="evenodd" clip-rule="evenodd" d="M179.083 342.22C164.43 342.22 152.553 330.354 152.553 315.717C152.553 301.081 164.43 289.214 179.083 289.214C193.732 289.214 205.609 301.081 205.609 315.717C205.609 330.354 193.732 342.22 179.083 342.22Z" stroke="#D5D7E2" />
	<path fill-rule="evenodd" clip-rule="evenodd" d="M177.378 120.06C157.358 120.06 141.127 103.843 141.127 83.8411C141.127 63.8347 157.358 47.6184 177.378 47.6184C197.397 47.6184 213.628 63.8347 213.628 83.8411C213.628 103.843 197.397 120.06 177.378 120.06Z" stroke="#D5D7E2" />
	<path fill-rule="evenodd" clip-rule="evenodd" d="M118.418 240.174C116.284 240.174 114.557 238.448 114.557 236.317C114.557 234.185 116.284 232.46 118.418 232.46C120.547 232.46 122.278 234.185 122.278 236.317C122.278 238.448 120.547 240.174 118.418 240.174Z" fill="#D5D7E2" />
	<path fill-rule="evenodd" clip-rule="evenodd" d="M179.083 386.724C176.95 386.724 175.223 384.998 175.223 382.867C175.223 380.736 176.95 379.01 179.083 379.01C181.213 379.01 182.944 380.736 182.944 382.867C182.944 384.998 181.213 386.724 179.083 386.724Z" fill="#D5D7E2" />
	<path fill-rule="evenodd" clip-rule="evenodd" d="M180.512 434.995C178.383 434.995 176.652 433.269 176.652 431.138C176.652 429.006 178.383 427.281 180.512 427.281C182.645 427.281 184.372 429.006 184.372 431.138C184.372 433.269 182.645 434.995 180.512 434.995Z" fill="#D5D7E2" />
	<path fill-rule="evenodd" clip-rule="evenodd" d="M236.064 261.905C233.236 261.905 230.945 259.615 230.945 256.791C230.945 253.966 233.236 251.677 236.064 251.677C238.891 251.677 241.182 253.966 241.182 256.791C241.182 259.615 238.891 261.905 236.064 261.905Z" fill="#D5D7E2" />
	<path fill-rule="evenodd" clip-rule="evenodd" d="M345.334 261.905C342.511 261.905 340.22 259.615 340.22 256.791C340.22 253.966 342.511 251.677 345.334 251.677C348.161 251.677 350.452 253.966 350.452 256.791C350.452 259.615 348.161 261.905 345.334 261.905Z" fill="#D5D7E2" />
	<path fill-rule="evenodd" clip-rule="evenodd" d="M345.334 319.005C342.511 319.005 340.22 316.72 340.22 313.895C340.22 311.07 342.511 308.781 345.334 308.781C348.161 308.781 350.452 311.07 350.452 313.895C350.452 316.72 348.161 319.005 345.334 319.005Z" fill="#D5D7E2" />
	<path fill-rule="evenodd" clip-rule="evenodd" d="M179.083 320.098C176.256 320.098 173.965 317.808 173.965 314.984C173.965 312.159 176.256 309.87 179.083 309.87C181.911 309.87 184.198 312.159 184.198 314.984C184.198 317.808 181.911 320.098 179.083 320.098Z" fill="#D5D7E2" />
	<path fill-rule="evenodd" clip-rule="evenodd" d="M24.3273 723.967C11.7957 723.967 1.63801 713.818 1.63801 701.297C1.63801 688.777 11.7957 678.624 24.3273 678.624C36.8589 678.624 47.0166 688.777 47.0166 701.297C47.0166 713.818 36.8589 723.967 24.3273 723.967Z" stroke="#D5D7E2" />
	<path fill-rule="evenodd" clip-rule="evenodd" d="M26.6684 704.026C25.1581 705.531 22.7173 705.531 21.207 704.026C19.7007 702.517 19.7007 700.074 21.207 698.569C22.7173 697.06 25.1581 697.06 26.6684 698.569C28.1747 700.074 28.1747 702.517 26.6684 704.026Z" fill="#D5D7E2" />
	<path fill-rule="evenodd" clip-rule="evenodd" d="M41.028 434.267C39.5178 435.776 37.0769 435.776 35.5667 434.267C34.0604 432.762 34.0604 430.32 35.5667 428.815C37.0769 427.306 39.5178 427.306 41.028 428.815C42.5344 430.32 42.5344 432.762 41.028 434.267Z" fill="#D5D7E2" />
	<path fill-rule="evenodd" clip-rule="evenodd" d="M227.704 436.249C224.876 436.249 222.585 433.96 222.585 431.135C222.585 428.31 224.876 426.021 227.704 426.021C230.531 426.021 232.818 428.31 232.818 431.135C232.818 433.96 230.531 436.249 227.704 436.249Z" fill="#D5D7E2" />
	<path fill-rule="evenodd" clip-rule="evenodd" d="M276.324 388.14C273.496 388.14 271.205 385.851 271.205 383.026C271.205 380.205 273.496 377.916 276.324 377.916C279.151 377.916 281.438 380.205 281.438 383.026C281.438 385.851 279.151 388.14 276.324 388.14Z" fill="#D5D7E2" />
	<path d="M269.6 83.8394L55.2508 83.8394V25.1874" stroke="#D5D7E2" stroke-linecap="round" stroke-linejoin="round" />
	<path fill-rule="evenodd" clip-rule="evenodd" d="M178.282 86.5673C176.776 88.0723 174.331 88.0723 172.825 86.5673C171.315 85.0584 171.315 82.6196 172.825 81.1107C174.331 79.6057 176.776 79.6057 178.282 81.1107C179.793 82.6196 179.793 85.0584 178.282 86.5673Z" fill="#D5D7E2" />
	<path fill-rule="evenodd" clip-rule="evenodd" d="M269.6 97.6095C261.607 97.6095 255.121 91.1285 255.121 83.1425C255.121 75.1526 261.607 68.6755 269.6 68.6755C277.597 68.6755 284.08 75.1526 284.08 83.1425C284.08 91.1285 277.597 97.6095 269.6 97.6095Z" stroke="#D5D7E2" />
	<path d="M269.6 83.1433V26.5282" stroke="#D5D7E2" stroke-linecap="round" stroke-linejoin="round" />
	<path fill-rule="evenodd" clip-rule="evenodd" d="M272.33 86.5673C270.824 88.0723 268.379 88.0723 266.873 86.5673C265.363 85.0584 265.363 82.6196 266.873 81.1107C268.379 79.6057 270.824 79.6057 272.33 81.1107C273.841 82.6196 273.841 85.0584 272.33 86.5673Z" fill="#D5D7E2" />
	<path fill-rule="evenodd" clip-rule="evenodd" d="M272.33 24.7C270.824 26.209 268.379 26.209 266.873 24.7C265.363 23.195 265.363 20.7523 266.873 19.2473C268.379 17.7384 270.824 17.7384 272.33 19.2473C273.841 20.7523 273.841 23.195 272.33 24.7Z" fill="#D5D7E2" />
	<path fill-rule="evenodd" clip-rule="evenodd" d="M55.2492 54.4176C40.6002 54.4176 28.7232 42.5509 28.7232 27.9106C28.7232 13.2781 40.6002 1.41138 55.2492 1.41138C69.9023 1.41138 81.7792 13.2781 81.7792 27.9106C81.7792 42.5509 69.9023 54.4176 55.2492 54.4176Z" stroke="#D5D7E2" />
	<path d="M55.2492 126.447L55.2492 83.8414" stroke="#D5D7E2" stroke-linecap="round" stroke-linejoin="round" />
	<path fill-rule="evenodd" clip-rule="evenodd" d="M55.2493 134.161C53.1199 134.161 51.3889 132.435 51.3889 130.304C51.3889 128.172 53.1199 126.447 55.2493 126.447C57.3825 126.447 59.1097 128.172 59.1097 130.304C59.1097 132.435 57.3825 134.161 55.2493 134.161Z" fill="#D5D7E2" />
	<path fill-rule="evenodd" clip-rule="evenodd" d="M130.852 484.873C129.346 486.382 126.901 486.382 125.394 484.873C123.884 483.368 123.884 480.926 125.394 479.421C126.901 477.912 129.346 477.912 130.852 479.421C132.362 480.926 132.362 483.368 130.852 484.873Z" fill="#D5D7E2" />
	<path fill-rule="evenodd" clip-rule="evenodd" d="M79.9559 484.873C78.4496 486.382 76.0048 486.382 74.4985 484.873C72.9882 483.368 72.9882 480.926 74.4985 479.421C76.0048 477.912 78.4496 477.912 79.9559 479.421C81.4662 480.926 81.4662 483.368 79.9559 484.873Z" fill="#D5D7E2" />
</svg>
