<?xml version="1.0" encoding="utf-8"?>
<!-- Generator: Adobe Illustrator 25.0.0, SVG Export Plug-In . SVG Version: 6.00 Build 0)  -->
<svg version="1.1" id="Layer_1" xmlns="http://www.w3.org/2000/svg" xmlns:xlink="http://www.w3.org/1999/xlink" x="0px" y="0px"
	 viewBox="0 0 500 525" style="enable-background:new 0 0 500 525;" xml:space="preserve">
<style type="text/css">
	.st0{fill:#D4C9E2;}
	.st1{fill:#85859E;}
	.st2{fill:#86869F;}
	.st3{fill:#7C7C90;}
	.st4{fill:#6DB478;}
	.st5{fill:#C5BADB;}
	.st6{fill:#C4B9DB;}
	.st7{fill:#7D7D91;}
	.st8{fill:#6F63AB;}
	.st9{fill:#322750;}
	.st10{fill:#F9F9F9;}
	.st11{fill:#493E68;}
	.st12{fill:#FEFEFE;}
	.st13{fill:#C4BADA;}
	.st14{fill:#4B453C;}
	.st15{fill:#554E43;}
	.st16{fill:#625A4D;}
	.st17{fill:#C2B7D7;}
	.st18{fill:#413C36;}
	.st19{fill:#585045;}
	.st20{fill:#433F3B;}
</style>
<g>
	<g>
		<path class="st0" d="M282.9,134.7c-2.2-9.1-4.8-18.1-6.5-27.4c-1.7-9.4-2.8-18.9-3.7-28.4c-1-11.3-0.3-22.5,2.4-33.5
			c1.5-6,3.6-11.8,7.5-16.7c1.1-1.4,2.9-2.2,4.4-3.3c1.2,1.8,3.1,3.5,3.4,5.5c1.1,6.7,1.5,13.5,2.5,20.2
			c1.7,11.6,6.1,22.3,11.8,32.4c8.7,15.3,16.8,30.8,22,47.6c2.5,7.9,5.6,15.7,7.1,23.8c1.2,6.6,1.2,13.6,0.6,20.3
			c-0.7,8.5-2.2,17-4,25.4c-2.6,11.7-8.2,22-15.2,31.6c-1.1,1.6-1.1,2.4-0.1,4.3c1.9,3.6,3.3,7.7,3.9,11.7
			c1.9,10.9-0.6,21.3-4.8,31.5c-3.7,9-10.1,16-16.7,22.8c-0.9,0.9-1.5,2-2.2,3c-7.2,4.8-15.4,7.2-23.5,9.5
			c-13.6,3.8-26.8,2.2-39.8-2.8c-4-1.6-7.1-4.6-10.4-7.3c-3.1-2.9-6.6-5.5-8.9-9.2c-0.6-0.9-1.3-1.7-1.6-2.8
			c0.2-1.9,1.8-2.7,2.9-3.9c2.6-2.9,5.1-5.8,5.1-10c0.1-0.7,0.1-1.4,0-2.1c-0.7-6-1.2-6.5-7.2-6.3c-1.7,0-3.3,0.1-5,0.3
			c-1,0.2-2.2,0.4-2.9-0.7c1.1-8.5,3.4-16.2,10.5-22.1c7.2-5.9,12.6-13.2,16.1-22c1-2.4,4-4.2,6.3-6c7.2-5.4,15.5-7.7,24.4-8.9
			c9.2-1.2,17.6,0.9,25.9,4.5c0.6,0.3,1.3,0.3,2,0.4c0.1,0,0.3,0,0.4,0c0.3,0.1,0.5,0.1,0.7,0.2c0.7,0.4,1.3,0.8,2,1.2
			c0.6,0.4,1.1,0.8,1.7,1.1c2.6,2.1,5.5,3.6,8.7,4.5c1,1.4,2,2.8,3.1,4.1c0.8,0.1,1.5,0.5,2.2,0.8c1.1,0.8,2.2,1.1,3-0.4
			c7.1-3.6,9.7-10,11.3-17.2c4.6-20,5.2-39.8-0.6-59.7c-2.6-8.9-8.1-16.3-13.1-23.9c-2.1-3.1-4.4-6.1-6.7-9.1
			c-6.4-8.1-12-16.8-15.5-26.7c-0.6,6.1-1.2,12.1,0.1,18.1c1.3,6.3,2.7,12.6,2.4,19.1c-0.1,1.3-0.1,2.6-0.6,3.8
			C287.5,135.1,285.8,135.8,282.9,134.7z"/>
		<path class="st1" d="M315,326.4c1.2,2.2,2.5,4.3,3.7,6.5c0.2,9.7,0.4,19.6-1.4,29c-2,10.8-4.8,21.7-12,30.7
			c-4.1,5.1-7.4,10.8-12.4,15.1c-0.7,0.6-1.2,1.4-2,1.8c-4.6,2.2-6.2,6.2-7.4,10.8c-3.2,12.7-16.5,22.3-29.7,22.4
			c-4.9,0-9.9,0.5-14.8,0.3c-13.3-0.6-24-7-34-14.9c-3.6-2.8-7-5.8-10.3-9c-2.8-2.7-6-4.8-9.6-6.5c-2.7-1.2-5.1-1-7.5,0.9
			c-3.6,2.8-6.5,6.1-7.6,10.7c-1.2,4.6-3.3,8.9-5.2,13.3c-0.4,1-1.1,1.9-1.9,2.6c-2.2,1.9-4,1.5-5-1.2c-0.3-0.7-0.7-1.2-1.2-1.7
			c-1.2-3.1-2.3-6.3-4-9.1c-1.5-2.8-2.9-5.7-2.6-9.1c-0.2-3.1,0.2-6.1,1.3-9c4.4-8.6,11.9-13.3,20.5-16.7c6.4-3.4,12.8-3,19.1,0.1
			c6.5,3.2,13.4,5,20.6,5.1c5.1,0.1,10.3-0.5,15.3-1.6c9-2,18.2-3.3,27.2-5.1c2.5-0.5,4-1.7,4.9-4.1c2.7-7.6,4.3-15.5,6.3-23.2
			c0.7-4.3,2.7-8.3,3.9-12.5c3.7-7.4,8-14.3,14.2-19.9c4.3-3.9,8.7-7.5,14-10C303.8,319.2,310.7,320.9,315,326.4z"/>
		<path class="st0" d="M215,182.9c-17.1-7.5-30.4-18.6-36.8-36.9c-3.5-9.9-6.8-19.8-8.2-30.3c-0.3-2.4-0.7-4.9-0.7-7.4
			c-0.3-10.9-0.5-21.8-0.6-32.7c0-2.2,0.9-4.4,1.4-6.6c0.4-0.1,0.9-0.1,1.3-0.2c1.3,2,2.6,4,3.7,6.2c3,5.9,5.6,12.1,8.8,17.8
			c5.7,10.3,14.4,18,23.8,24.9s19.5,12.5,30.1,17.3c11.9,5.5,22.1,13.5,32.3,21.4c4.4,3.4,8.7,6.8,12.8,10.5
			c9.9,9,15.3,20.5,17.8,33.5c0.7,3.8,1.2,7.6,1.8,11.4c-1.6,1.2-2.8,0.2-4-0.7c-1.7-1.3-3.3-2.8-5.1-3.9c-0.6-0.7-0.8-1.6-1-2.5
			c-1.4-8-5.6-14.4-12.2-19c-10.2-7.2-20-14.8-31.3-20.4c-3-1.5-6.2-2.6-9.4-3.7c-5.4-2-10.6-4.4-15.1-8.1c-1.8-1.5-3.1-1.5-4.1,0.7
			c-1.5,0.9-2.7,0-3.8-0.7c-7.8-4.5-14.9-9.8-21.7-15.7c-0.7-0.6-1.3-1.2-2.1-1.6c-0.3-0.1-0.6-0.2-1-0.1c-1,1.2-0.3,2.4,0.1,3.6
			c1.8,5.7,5.6,10.2,9.6,14.5c5.6,6,10.3,12.6,12.8,20.5C215.3,177.5,216.6,180.2,215,182.9z"/>
		<path class="st2" d="M204.3,270.3c3.6-0.3,7.3-0.6,10.9-0.7c1.2,0,3.2,0.6,3.4,1.3c0.8,2.7,1,5.6,1.4,8.5c-0.9,2-1.6,4.1-3.3,5.8
			c-2.8,2.7-6,3.7-9.8,3.1c-4-0.6-4.5-0.3-5.8,3.6c-0.7,2-1.8,3.8-2.3,5.8c-0.6,2.8,0.1,5.1,2.5,5.6c5.9,1.3,10.9,4.6,16.5,6.6
			c5,5.2,8.4,11.2,8.8,18.6c0.1,2.4,0.8,5-1,7.1c-4.8,2.5-8.8,0.2-12.7-2.4c-1.6-1.1-2.9-2.7-3.8-4.4c2.9,5.1,3.3,10.6,2.3,16.1
			c-1.2,7.3-6.3,9.9-13.2,7c-3.9-1.7-7.2-4.2-10.2-7.1c-2.7-2.5-5.1-5.3-7.5-8.3c0.9,2.3,1.4,4.6,1.5,7c0.1,8.2-1.2,10-8.6,12.9
			c-1.6,0.6-2.8-0.3-4.1-0.6c-0.8,0.5-0.9,1.3-0.9,1.9c-0.5,6.3-3.1,11.8-5.9,17.3c-1.9,3.8-5.2,5.8-9.4,5.7
			c-5.1-0.1-10.3-0.2-14.6-3.8c1.9-11,8.3-19.4,15.5-27.2c2.2-2.4,4.6-4.7,7.1-6.7c4.8-3.9,7.3-8.8,7.6-15.1
			c0.2-5,0.8-10.9,5.1-13.8c6.4-4.4,5.7-10.8,6.6-16.8c1.2-7.3,3.4-14,8.1-19.8c2.9-3.6,6.6-5.6,11-6.5
			C201.1,270.7,202.7,270.5,204.3,270.3z"/>
		<path class="st3" d="M156.8,437.1c0.8,0.9,1.6,1.9,2.5,2.8c2.5,1.3,3.8-0.6,4.6-2.7c2.2-5.5,4.1-11.1,6.5-16.5
			c1.9-4.2,5.1-7.8,9.5-9.2c2-0.6,5,0.1,6.9,1.4c4.9,3.3,9.5,7.1,14,10.9c8.4,7.1,17.1,13.8,28,16.8c7.4,2,15,2.6,22.6,1.5
			c4.8-0.8,9.9-1,14.4-2.7c7.7-3.1,13.4-8.7,16.2-16.7c0.9-2.6,1.5-5.3,2.3-7.9c0.3-0.9,0.9-1.9,1.6-2.4c8.1-5,13.1-12.7,18.8-19.9
			c7.1-9,9.1-19.8,12.1-30.3c0.8-2.8,0.6-5.9,0.7-8.8c0.3-6.2,0.4-12.4,0.6-18.7c0-0.5,0.4-1.1,0.6-1.6c1.9,6.6,4.2,13.1,5.8,19.8
			c2.7,11.7-0.1,22.8-4.4,33.6c-1.4,3.5-2.8,7-4.2,10.5c-0.2,2.4-2,4.1-2.5,6.3c-0.2,0.7-0.5,1.4-0.9,1.9
			c-4.9,7.4-9.8,14.9-15.1,22.1c-7.7,10.6-17.5,18.3-29.3,24c-11.9,5.8-24.4,7.4-37,4.7c-9.6-2.1-19.1-5.4-27.3-11.3
			c-3.4-2.4-6.9-4.7-10.7-6.4c-6.8-2.9-13.5-2.4-19.8,1.8c-1.8,1.2-2.7,2.9-2.3,5.1c0.2,1.4,0.3,2.8-0.3,4.1c-0.2,0.4,0-0.1-0.1,0.3
			c-1.8,4.2-1.8,4.2-6.2,2.5c-6.5-3.3-9.1-7.7-8.2-14.1C156.3,437.5,156.5,437.3,156.8,437.1z"/>
		<path class="st4" d="M312.8,402.7c1-2,2-4,3-6c10.6,2.5,21.2,5.2,30.9,10.3c3.3,1.7,6.6,3.7,9.6,6c11.7,8.9,11.6,22.7-0.1,31.6
			c-9.2,7.2-20.1,10.9-31.2,13.9c-17,4.6-34.2,7.5-51.8,8.3c-16,0.7-32.1,1.6-48.1,0.9c-15.7-0.7-31.3-2.8-46.9-5
			c-14.4-2.1-28.5-5.8-41.6-12.4c-3.3-1.6-6.4-3.6-9.3-5.8c-11.6-8.8-11.6-22.5,0-31.4c5.8-4.5,12.1-8,19.4-9.3
			c2.4,0.7,3.6,2.2,3.2,4.8c-1.4,1.4-3.3,1.7-5,2.4c-5,2.2-9.8,4.5-13.9,8.1c-3.2,3.2-6.2,6.4-5.3,11.4c0.8,3.4,2.9,5.9,5.5,8.1
			c7.8,6.3,17,9.5,26.4,12.4c1.9,0.6,3.8,1.1,5.7,1.7c12.6,3.4,25.5,5.1,38.5,6.7c1.2,0.1,2.4,0.1,3.6-0.1c0.3,0,0.7,0,1,0.1
			c1.3,0.9,2.8,0.7,4.3,0.7c14,1.2,28,1.2,42.1,1.2c3.8,0,7.5-0.9,11.2-0.6c17-0.7,33.9-2.8,50.5-6.5c9.3-2.1,18.5-4.5,27.1-8.8
			c3.9-1.9,7.8-3.9,11.2-6.7c2-1.8,4-3.7,5-6.4c0.7-1.9,1.1-3.7,0.4-5.7c-1.6-5.6-5.9-8.6-10.5-11.3c-7.8-4.7-16.4-7.5-25.1-9.9
			C319.1,404.6,315.8,404.3,312.8,402.7z"/>
		<path class="st5" d="M225.1,335.3c1.3-4.6,1.3-9.2-0.8-13.5c-1.9-4-4.5-7.7-6.8-11.6c-1.1-0.6-2.3-1.1-2.3-2.6
			c1.3-2.8,3.6-3.4,6.4-3.4c1.5,1,3.1,1.8,4.3,2.9c6.2,5.6,13.9,7.4,21.8,8.3c5.7,0.7,11.7,0.8,17.3,0c9.6-1.3,18.7-4.5,27.4-9.1
			c0.9-0.5,2-0.6,3-0.9c7.6,4.3,15.1,8.7,18.7,17.3c0.5,1.1,0.6,2.4,0.8,3.7c-0.5-0.3-1.1-0.5-1.5-0.9c-5.8-4.9-11.6-5.6-18-1.6
			c-10.1,6.3-18.6,14.3-23.8,25.4c-0.5,1-1.1,1.8-1.7,2.7c-1.3-1.2-0.6-2.6-0.3-3.9c0.8-3.7,1.3-7.4,1.4-11.1
			c-1.1-0.9-2.2-0.4-3.2-0.1c-9.9,2.6-19.8,4.8-30.1,5.4c-5.4,0.3-10.9,1.2-16.1-1.1c-0.9-1.5,0.3-2.3,1.1-3.2
			C223.5,337.2,224.2,336.2,225.1,335.3z"/>
		<path class="st6" d="M282.9,134.7c4.2,0,5.5-1,5.3-5.2c-0.4-6.1-0.8-12.2-2-18.2c-1.5-7.4-1-14.7,0.4-22.3
			c0.4,0.8,0.9,1.5,1.1,2.3c3.4,10.5,9.7,19.4,16.4,28c6.8,8.8,13.7,17.8,17.5,28.4c2.4,6.7,3.6,13.9,4.6,21
			c0.8,6.1,1,12.5,0.6,18.7c-0.8,11.2-1.8,22.4-6.7,32.9c-1.6,3.4-3.9,6.2-7.6,7.5c-0.5,0.2-0.8,0.8-1.2,1.2c-2.5-0.2-1.5-1.9-1.1-3
			c1.1-2.9,2.9-5.4,4.4-8.1c4.5-8,8.2-16.2,8.8-25.6c0.2-3.4-0.2-6.8-0.9-10c-3.2-14.7-6.3-29.5-13.3-43c-4.6-8.8-10.4-16.9-15-25.7
			c-0.2-0.4-0.6-0.8-1.2-0.9c-1.5,1.5-1.7,3.5-1.3,5.4c0.8,4.4,1.5,8.8,2.6,13.1c4.5,16.5,9.8,32.9,13.5,49.6
			c3,13.6,3.4,27.1,0.6,40.7c-0.5,2.5,7.5,9.1-0.5,7.3c-0.6-0.4-1.3-0.8-1.9-1.2c1.3-17.5-2.7-34.2-8.5-50.5
			c-4.1-11.3-8.3-22.5-12.3-33.7C284.2,140.5,283.7,137.5,282.9,134.7z"/>
		<path class="st7" d="M225.1,335.3c-1.2,1.7-2.4,3.5-3.6,5.2c-3.1,1.9-3.9,5.2-5.2,8.3c-1.5,3.8-3.3,7.5-7.1,9.5
			c-4.2,2.2-8.6,2.6-12.3-0.3c-3.1-2.5-5.6-2.3-8.5-0.4c-1.8,1-3.8,1.7-5.8,2.1c-1.6,0.4-2.6,1.2-3.1,2.8
			c-2.7,8.3-4.7,16.7-6.8,25.2c-0.5,2.2,0.4,4.6-1.2,6.6c-8.2,3.1-14.8,8.1-19.6,15.5c-1.2,0.3-1.8-0.4-2.4-1.3
			c-1-1.6-1.9-3.1-2.9-4.7c-2-3.6-4.2-7.2-6-10.9c-2.5-5.1-3.5-10.4-2.1-16c4.9,1,9.7,2.4,14.6,3c3.8,0.4,6.8-1.7,8.6-5.2
			c3.2-6.1,5.5-12.4,6.2-19.3c0-0.5,0.2-0.9,0.5-1.9c3.8,5.1,6.8,0.5,9.8-0.6c2.7-1,2.9-4.2,2.9-7c0-2,0-4-0.4-5.9s-1.2-3.7-1.4-5.8
			c1.2,1.3,2.5,2.5,3.6,3.9c3.6,4.9,8.1,8.6,13.2,11.8c1.6,1,3.4,1.7,5.2,2c5.9,0.9,9.2-2.5,9.5-9.1c0.2-5.1-0.3-10.1-3-14.6
			c-0.2-0.3-0.3-0.7-0.4-1.1c0-0.1,0.1-0.2,0.3-0.7C212.1,332.3,216.9,337.2,225.1,335.3z"/>
		<path class="st5" d="M215,182.9c0-6.6-2.2-12.4-6-17.6s-8.2-9.9-11.9-15.1c-2.5-3.6-4.3-7.7-6.2-11.7c-0.5-1,0.1-2.4,0.2-4.6
			c3.1,2.5,5.3,4.4,7.7,6.2c6.4,4.6,12.9,9.1,19.3,13.6c0.6,0.4,1.5,0.4,2.3,0.6c1.6,0.4,2.3,1.8,3.1,3c6.1,9.5,13.7,17.3,23.4,23.2
			c6.5,4,13.5,6.8,20.4,9.7c8.8,3.7,16.1,9,20.6,17.6c1.1,2.1,2.8,3.9,3.8,6.1c0.6,1.3,1.7,2.6,0.7,4.1c-0.8-0.4-1.5-0.8-2.3-1.2
			c-0.2-0.2-0.4-0.4-0.6-0.6l0,0c-4.7-12-13.7-19.2-26-21.9c-10-2.2-20.2-3.4-30.2-5.6C227,187.3,221.1,184.9,215,182.9z"/>
		<path class="st6" d="M293.7,207.3c1.2,0.8,2.4,1.6,3.7,2.3c1.7,0.9,3.4,1.7,5.1,2.5c0.2,3.8,0.4,7.5,0.5,11.3
			c-4.2,0.7-6.5-2.5-9.6-4.3C293,215.1,292.5,211.2,293.7,207.3z"/>
		<path class="st8" d="M310.3,225.9c-3.1-2.5-2.4-6.5-1.7-11c1.7-11.3,1.2-22.6-1.6-33.6c-4.4-17.7-9.6-35.3-14.1-53
			c-1.2-4.7-2.9-9.5-1.7-14.5c0.3-1.1,1.1-2.1,1.9-3.9c2.4,4.3,4.3,8,6.5,11.5c6.4,10.3,13.1,20.5,16.4,32.2
			c3.3,11.6,6.3,23.3,8.1,35.2c1.1,7.3-1.3,14.7-4.7,21.5c-2.7,5.3-5.7,10.4-8.4,15.7"/>
		<path class="st8" d="M293.7,207.3c-0.1,3.9-0.2,7.9-0.3,11.8c-0.4-0.3-0.7-0.7-1.1-1c-4.1-10.5-10.1-19.5-20.5-24.8
			c-2.8-1.5-5.7-2.8-8.7-3.9c-11.8-4.5-22.7-10.6-31.4-19.9c-4.3-4.6-7.7-10.1-11.5-15.2c0.4-0.9,0.6-2.1,1.3-2.7
			c0.3-0.3,1.8,0.4,2.5,1c5.8,4.8,12.8,7.4,19.7,10.1c4.7,1.9,9.3,4,13.6,6.7c7,4.3,13.7,9.1,20.5,13.8
			C286.5,189.1,292.4,196.7,293.7,207.3z"/>
		<path class="st7" d="M215.6,307.8c0.6,0.8,1.3,1.6,1.9,2.5c-1.2-0.4-2.4-0.7-3.6-1.1c-3.8-1.5-7.6-3.2-11.5-4.5
			c-4.2-1.4-5.5-3.7-4.2-7.8c0.8-2.5,1.7-5,2.7-7.5c0.8-2,2.6-2.5,4.7-2.2c7.5,0.9,9.7-0.2,13.4-6.7c0.2-0.4,0.6-0.7,1-1.1
			c0.1,4.9-3.3,7.8-6.1,11c-0.8,0.9-1.7,1.7-2.5,2.5c-0.4,1.2-1.5,1.8-2.4,2.5c-3.6,3-3.3,6.4,0.8,8.5
			C211.9,305,214,306.1,215.6,307.8z"/>
		<path class="st9" d="M222.9,257.8c1.9-0.3,3.6-1,4.9-0.6c6.1,1.9,12.1,4.1,18.1,6.3c1,0.4,1.9,1.1,3.5,2.1c-5.3,2-10,3.7-14.7,5.3
			c-0.6,0.2-1.9-0.1-2.3-0.6c-2.9-3.4-5.7-7-8.5-10.5C223.6,259.4,223.5,258.9,222.9,257.8z"/>
		<path class="st9" d="M268.1,237.2c0.9,0.9,2.4,1.6,2.6,2.6c0.5,3.6,0.7,7.3,0.8,11c0.1,1.6-0.4,3.3-0.6,5.2
			c-3.3-2.2-6.3-0.8-9.4,0c-0.8-0.3-1.2-0.9-1.1-1.6C260.9,247.8,262,241.4,268.1,237.2z"/>
		<path class="st10" d="M215.6,307.8c-2.7-1.5-5.5-2.8-8-4.4c-2.2-1.4-2.7-4.1-1.1-6.2c1.3-1.7,3.2-2.9,4.8-4.3
			c3.4,3.8,6.8,7.6,10.2,11.5C219.6,305.5,217.6,306.6,215.6,307.8z"/>
		<path class="st11" d="M268.1,237.2c-1.6,2.2-3.4,4.3-4.6,6.7c-1.8,3.8-2.8,7.8-2,12.1c-1.3,0.8-2.6,1.6-4.1,2.5
			c-0.3-6.5,0.6-12.4,4.2-17.6C263,238.8,264.5,236.1,268.1,237.2z"/>
		<path class="st9" d="M224.8,276.1c4.3,1.2,7.4,5.9,6.2,9.2c-0.2,0.7-1.1,1.6-1.7,1.6s-1.5-0.8-1.8-1.5c-1-2.3-1.7-4.7-2.5-7.1
			C224.9,277.6,224.9,276.9,224.8,276.1z"/>
		<path class="st11" d="M232.9,243c-0.9-0.5-1.8-1.1-3.1-1.9c1.8-2.6,3.6-5.2,5.3-7.7c0.4,0.1,0.9,0.1,1.3,0.2
			c0.4,1.4,0.8,2.7,1.2,4.1C235.6,239.1,234.1,240.9,232.9,243z"/>
		<path class="st9" d="M232.9,243c0.2-3,1.9-4.6,4.7-5.3c-0.6,3-1.2,5.9-1.7,8.9c-0.3,0-0.6-0.1-0.9-0.1
			C234.3,245.3,233.6,244.2,232.9,243z"/>
		<path class="st12" d="M289.5,216.2c0.2,0.2,0.4,0.4,0.6,0.6C289.9,216.6,289.7,216.4,289.5,216.2z"/>
		<path class="st0" d="M188.2,356.7c3-1.8,5.5-2.6,8.7,0.5c3.9,3.8,12.2,2.3,15.3-2.4c1.8-2.8,3.5-5.9,4.4-9
			c0.8-2.9,2.3-4.4,4.9-5.2c2,0.4,3.9,1.2,5.9,1.3c14.2,0.6,27.9-2.4,41.6-5.9c3.3-0.8,3.4-0.6,2.9,2.6c-0.7,4.5-1.3,9.1-2,13.7
			c-1.3,4.1-2.5,8.2-3.8,12.3c-7.4,13.4-19.6,18.5-34.1,19.9c-6.8,0.7-13.4,0.8-20.1-0.7c-13.2-3-21.1-13-24-25.2
			C187.8,357.8,187.8,357.2,188.2,356.7z"/>
		<path class="st13" d="M188.2,356.7c1.9,7.8,5.1,14.9,11.5,20.2c4.4,3.6,9.5,5.7,15,6.5c10.2,1.6,20.3,0.6,30.1-2.4
			c7.9-2.5,14.4-7.3,19.1-14.3c0.6-0.9,1.4-1.5,2.2-2.3c-2.3,8.4-4.6,16.8-7.1,25.1c-0.3,1.1-1.6,2.4-2.7,2.6
			c-12.3,2.4-24.6,4.8-37,6.7c-9.3,1.4-18.6,0.3-27.1-4c-6.9-3.5-13.7-4.3-20.7-0.6c0-9.2,3.4-17.7,5.4-26.4
			c1.2-5.1,2.6-9.9,9.2-10.1C186.8,357.7,187.5,357.1,188.2,356.7z"/>
		<path class="st14" d="M130.5,438.9c-2.7-2.2-5-4.6-5.4-8.3c-0.5-2.6,1.5-2.6,3.1-2.7c4.1-0.2,8.3-0.4,12.4-0.2
			c4.2,0.2,8.4-0.4,12.6,0.5c1.2,3,2.4,6,3.6,9c-0.1,0.2-0.1,0.4-0.2,0.6c-1.2,1.1-2.8,0.9-4.2,0.9
			C145.1,438.8,137.8,438.4,130.5,438.9z"/>
		<path class="st15" d="M153.2,428.1c-3.7,0.2-7.5,0.5-11.2,0.5c-5,0.1-10,0-15,0.2c-0.7,0-1.3,1.2-1.9,1.8
			c-1.5-3.6,0.5-6.2,2.4-8.9c0.8-1.2,2-2.1,3-3.1c6.3-0.7,12.5-0.4,18.8-0.1c0.5,0,0.9,0.3,1.2,0.7
			C151.4,422.2,152.3,425.2,153.2,428.1z"/>
		<path class="st16" d="M150.5,419.3c-5,0-10,0-15.1-0.1c-1.6,0-3.3-0.4-4.9-0.6c5.5-5,12.2-7.8,19-10.2c0.8,0.4,1.6,0.8,2.4,1.3
			C151.4,412.9,151,416.1,150.5,419.3z"/>
		<path class="st17" d="M206.1,459.8c-0.2,0-0.5,0-0.7,0.1c-10.7-0.7-21.2-2.4-31.7-4.4c-3.5-0.6-3.9-1.6-3.5-6.4
			c0-0.6,0.1-1.2,0.1-1.8c0.1-2.3-1.1-4.7,1-6.7c2.7-2.6,6-4.1,9.7-4.7c6.3-0.9,11.9,0.3,17,4.2c9.2,6.9,19.7,11.4,30.7,14.5
			c8.7,2.5,17.7,2.3,26.4,0.1c15.3-3.9,28.7-11.3,38.3-24.2c6.4-8.5,12.3-17.4,18.5-26.2c0.9,0.9,1,2.1,0.9,3.3
			c-0.1,2.6,0.5,5.2,0.6,7.8c0.6,2.8,0.7,5.6,0.6,8.4c1.1,8.7,1.9,17.5,3.8,26.2c0.2,0.7,0.1,1.4-0.1,2.1c-0.4,0.9-1.3,1.2-2.2,1.3
			c-8.7,1.7-17.4,3.6-26.3,4.9c-8.4,1.3-16.8,1.9-25.3,2.6c-10.8,0.8-21.6,0.7-32.4,0.6c-7.3-0.1-14.6-0.5-21.9-1.1
			C208.6,460.2,207.3,460.6,206.1,459.8z"/>
		<path class="st16" d="M312.9,415.7c-0.3-3.8-0.6-7.5-0.8-11.3c0.3-0.6,0.5-1.1,0.8-1.7c7.2,1.9,14.5,3.5,21.5,5.8
			c4.7,1.6,9,4.2,13.5,6.4c-0.2,1.7-1.6,1.6-2.7,1.6c-10,0.1-19.9,0.1-29.9,0C314.4,416.6,313.5,416.4,312.9,415.7z"/>
		<path class="st18" d="M130.5,438.9c1-0.4,1.9-1.1,2.9-1.1c7.7-0.1,15.5,0,23.2,0c-0.3,6.3,2.2,10.9,8,13.5c0.2,1.5-0.8,1.8-2,2
			c-11-2.9-21.8-6.3-31.1-13.3C131.1,439.7,130.8,439.3,130.5,438.9z"/>
		<path class="st19" d="M162.6,453.2c0.7-0.7,1.3-1.3,2-2c1.3,0.5,2.7,0.9,4,1.4c0.6-1.3,1.2-2.4,1.7-3.5c-0.1,4.9,2.8,6.2,7.1,6.6
			c8.5,0.9,17,2.2,25.6,3.4c0.8,0.1,5.9,1.4,6.7,1.7c-3-0.1-10.4-0.7-13.3-1.2c-10.9-1.8-21.8-3.9-32.7-5.9
			C163.3,453.7,163,453.4,162.6,453.2z"/>
		<path class="st19" d="M312.9,415.7c10.6,0,21.1,0,31.7,0c1.1,0,2.2-0.4,3.3-0.7c4.9,2.6,9.1,5.8,10.6,11.4c-1.3,1.1-3,0.9-4.5,0.9
			c-8.4,0.2-16.9-0.3-25.3,0.3c-5-1.8-10.2-2.6-15.4-3.7C313.2,421.2,313,418.4,312.9,415.7z"/>
		<path class="st14" d="M327.6,427.3c1.4-0.3,2.8-0.8,4.3-0.8c8.9-0.1,17.8,0,26.7,0c1.5,5.6-1.4,9.3-5.3,12.5
			c-2.2,0.9-4.5,0.1-6.7,0.2c-2.9,0.1-5.7,0-8.6,0.2c-0.4,0-0.9-0.1-1.1-0.4C333.8,435.1,330.2,431.5,327.6,427.3z"/>
		<path class="st20" d="M337.1,438.9c5.4,0,10.7,0,16.1,0c-2.9,1.8-5.6,3.8-8.6,5.5c-10.6,6.2-22.4,8.9-34.2,11.4
			c-15.1,3.2-30.5,4.9-45.9,5.6c-0.3-0.3-0.3-0.6,0-0.9c9.4-1.1,18.9-1.8,28.2-3.3c8.3-1.3,16.6-3.4,24.8-5.1
			c0.5-0.9,1.3-1.1,2.2-1.4c5.2-1.5,10.2-3.8,15.3-5.7c2.2-0.8,3.5-1.8,2.1-4.3C336.7,440.2,336.5,439.5,337.1,438.9z"/>
		<path class="st18" d="M264.5,460.6c0,0.3,0,0.6,0,0.9c-18.3,1.2-36.5,0.9-54.7-0.6c-0.4-0.3-0.4-0.7,0-1c6.5,0.4,13,1,19.5,1
			C240.9,460.9,252.7,460.7,264.5,460.6z"/>
		<path class="st19" d="M209.7,459.8c0,0.3,0,0.7,0,1c-1.2-0.3-5.3-1.3-6.5-1.6C204.4,459.2,208.5,459.8,209.7,459.8z"/>
		<path class="st10" d="M337.1,438.9c2.3,5.4,2.3,5.5-3.2,7.5c-5.4,2-10.9,3.8-16.4,5.7c-1.4-9.4-2.8-18.8-4.2-28.2
			c2.2-0.5,4.8-0.3,7,0.2c2.5,0.6,5.1,1.5,7.2,3.1C333.9,432.4,335.3,435.5,337.1,438.9z"/>
	</g>
</g>
</svg>
