<?xml version="1.0" encoding="utf-8"?>
<!-- Generator: Adobe Illustrator 25.0.0, SVG Export Plug-In . SVG Version: 6.00 Build 0)  -->
<svg version="1.1" id="Layer_1" xmlns="http://www.w3.org/2000/svg" xmlns:xlink="http://www.w3.org/1999/xlink" x="0px" y="0px"
	 viewBox="0 0 500 525" style="enable-background:new 0 0 500 525;" xml:space="preserve">
<style type="text/css">
	.st0{fill:#D4C9E2;}
	.st1{fill:#C3B9D9;}
	.st2{fill:#86869F;}
	.st3{fill:#7D7D91;}
	.st4{fill:#C5BADB;}
	.st5{fill:#6DB478;}
	.st6{fill:#6F63AB;}
	.st7{fill:#2E234D;}
	.st8{fill:#443963;}
	.st9{fill:#413C36;}
	.st10{fill:#5E564A;}
	.st11{fill:#4F483F;}
	.st12{fill:#453F38;}
</style>
<g>
	<g>
		<path class="st0" d="M171,129.3c-7.4-4-12.7-10.4-17.6-16.9c-11.4-15.3-18.3-32.5-21.6-51.2c-0.4-2.2-0.5-4.5-0.7-6.8
			c-0.1-1.3,0-2.5,0-3.9c2.3-0.7,3.9-0.3,5.4,1.5c8.8,10.6,19.6,18.6,32.5,23.8c11.6,4.7,23.5,8.6,34.6,14.2
			c10.2,5.1,19.8,11.6,29.1,18.2c17.3,12.3,30.5,28.3,40.2,47.2c3.7,7.3,6.3,15,6.4,23.2c0.1,9,0.3,18-0.1,26.9
			c-0.2,4.5-1.4,9-2.5,13.3c-0.5,2-0.2,3.1,1.5,4.2c7.6,4.6,12.1,11.5,14.8,19.7c1.3,4,2.9,7.8,6,10.8c3.3,3.1,3.8,7.4,3.9,11.5
			c0.3,6.7,0.8,13.4-1.4,20c-2.1,6.3-6,11.3-10,16.3c-1.2,1.4-2.5,2.8-3.8,4.1c-1.4,3.3-4.6,4.7-7.1,6.9c-7.2,6.3-16,7.5-25,8.9
			c-11.9,1.8-22.6-1.1-32.9-6.4c-1.1-0.5-2.1-1.1-2.7-2.2c-4.4-5.8-9.5-11.2-12.9-17.6c-7.2-13.9-6.5-27.8,2.2-41.1
			c3.2-4.9,6.2-9.9,6.6-16c0.2-4,3.1-5.8,5.9-7.6c4.5-2.8,9.1-5.6,13.7-8.3c1.3-1.5,3.3-1.8,5-2.4c3.4-1.2,3.9-2.9,1.8-5.8
			c-0.6-0.9-1.4-1.6-2.2-2.4c-0.2-0.2-0.4-0.4-0.6-0.6c-0.1-0.1-0.2-0.2-0.3-0.3c-0.2-0.2-0.4-0.4-0.5-0.7c-0.2-0.2-0.3-0.5-0.4-0.7
			c-4.6-6.4-9.8-12-17-15.6c-5.5-2.7-11-5.4-16.7-7.4c-0.9-0.3-1.8-0.8-2.6-1.4c-6.7-3.4-13.8-5.6-21-7.5c-12.8-3.5-25.7-6.8-39-8
			c-6.2-0.6-12.4-1-18.7-1c-12.4,0.1-24.8,0.4-37.1-1.9c-3.4-0.6-6.7-1.7-10.2-2.3c-0.3,2,0.7,3.1,1.7,4.3c2,2.4,4.6,4.1,7.2,5.7
			c2.9,1.7,4.7,4.2,5.9,7.2c1.8,4.4,0.5,8-3.6,10.6c-7.3-2.6-14.4-5.8-20.1-11.1c-11.3-10.4-20.5-22.5-26.3-36.9
			c-0.8-2-1.5-5.7-0.5-6.6c1.8-1.5,5.1-2.3,7.5-2c3.9,0.6,8,1.7,11.5,3.7c9.4,5.3,19.6,7.5,30.2,8.8c9.5,1.2,18.9,2.8,28.4,4
			c8.5,1,17.1,1.7,25.6,2.5c18.5,1.9,36.9,4.2,54.4,10.8c8.7,3.3,16.8,7.9,24,13.9c3.4,2.8,7.5,5,10.4,8.2
			c6.1,6.7,11.7,13.8,13.6,22.9c0.6,2.8,0.8,5.6,1.2,8.3c6,0,12.1,0,18.1,0c0.9-0.8,2-0.7,3.1-0.7c3,0.1,4.2-0.6,5.1-3.4
			c0.8-2.5,1.2-5,1.4-7.6c0.5-8.6-1-16.9-3-25.3c-2-8.7-5.5-16.7-10.7-24c-2.5-3.6-4.9-7.2-7.1-11c-6.2-10.9-16.1-17.9-26.3-24.5
			c-8.2-5.3-17.3-8.7-26.3-12.4c-15.3-6.4-29.9-14.2-44.2-22.5c-1.4-0.8-3.1-2.9-4.7-1.4c-1.5,1.4-0.8,3.8,0,5.6
			c3.3,7.3,7.6,14.1,12.4,20.6c3.3,4.3,5.8,9,6.6,14.5C171.4,127.5,171.8,128.5,171,129.3z"/>
		<path class="st1" d="M325.8,388.3c-1.9,5-3.7,10-5.6,15.1c-3.1,0.9-3.2,3.7-4.1,6.1c-2.6,6.7-4.5,13.7-6.3,20.7
			c-1.3,4.1-2.9,8.1-3.6,12.4c-1.3,4.8-0.8,9.7-0.9,14.5c-0.1,4.9-0.3,5.7-5.3,6.7c-6.4,1.2-12.8,2.3-19.3,2.9
			c-15.6,1.5-31.2,2-46.8,1.6c-7.2-0.2-14.4-0.2-21.6-1.1c-6.6-1-13.4-1.3-20-2.3c-8.4-1.3-16.8-2.8-25.1-4.7
			c-2.7-0.6-4.2-2-4.7-4.7c-0.4-2.5-0.9-5-1-7.6c0.3-1.1,0.3-2.2-0.5-3.2c-0.5-1.8,0.1-3.6-0.4-5.4c-0.6-3.3-1.2-6.6-1.2-10.1
			c-1-5.3-0.6-10.7-0.6-16.1c-0.1-1.8,0.1-3.7-0.3-5.5c0-4,1.2-7.8,2.1-11.7c1.8-7.5,3.2-15.1,5.8-22.4c2.3-6.7,6-12.7,9.5-18.8
			c0.5-0.8,1-1.8,2.3-1.6c1.2,1.9,0.2,3.9,0,5.8c-1.2,12.2,0.8,23.9,5.6,35.1c2,4.7,5.9,7.9,10.3,10.4c7.5,4.3,15.3,7.3,24.2,7
			c8.7-0.3,17.5-0.4,25.9-2.9c11.3-3.5,21.9-8.8,30.3-17c8.6-8.5,15.7-18.4,18.3-30.7c0.6-3,1.6-5.9,2.6-8.8
			c0.4-1.1,0.6-2.4,2.1-2.7c1.4,0,1.8,1.2,2.1,2.2c3.2,10.2,10,18,17,25.8c2.6,2.9,5.2,5.7,7.9,8.4
			C325.1,386.3,326.1,386.9,325.8,388.3z"/>
		<path class="st0" d="M297.8,349.6c-0.6,0.8-1.5,1.5-1.7,2.4c-1.8,5.6-2.7,11.7-5.2,16.9c-3.2,6.6-7.2,13-11.9,18.6
			c-10.5,12.6-24.6,19.9-40.4,22.9c-12.1,2.3-24.7,3.7-36.8-1.3c-7.1-3-14.3-6.4-17.9-13.5c-2.8-5.4-4.3-11.6-5.6-17.7
			c-1-4.6-1.2-9.4-1.2-14.1c0-3.6,0.7-7.2,1-10.8c-0.7-1.2,0.3-2.1,0.8-3c4.5-7.2,9.1-14.2,15.2-20.1c0.8-0.8,1.5-1.6,2.1-2.5
			c2.1-1.9,4.4-3.6,6.8-5.1c0.8-0.3,1.7-0.5,2.5-0.8c1.2,1.3,0.5,2.7,0.2,4c-0.7,3.1-0.7,6.3-0.1,9.4c1.5,7.4,5.5,10.9,13.1,12.1
			c11.9,1.8,23.3-0.7,34.5-4.4c14.4-4.7,27.9-11.4,39.6-21.2c3-2.5,5.5-5.7,8.6-8.2c1,0.8,2,1.6,3,2.4c-0.3,2.5-2.8,3.6-3.4,5.9
			c-5.1,7.3-5.7,15.3-3.4,23.7C297.9,346.7,298.9,348.1,297.8,349.6z"/>
		<path class="st2" d="M300.7,321c1.2-1.7,2.5-3.5,3.7-5.2c4.9-2,9.8-4.2,15.2-2.4c2.6,0.9,5.1,2.1,7.3,3.8
			c5.1,3.8,10,7.8,14.9,11.9c3.5,3,6.8,6.3,10.2,9.5c0.3-4.8,0.4-9.7,0.8-14.7c0.6-8.6,1.4-17.2,2.1-25.8c0.1-1.1-0.3-2.3-0.8-3.3
			c-0.8-1.6-2-3-2.9-4.5c-3.6-5.7-5-11.9-5.6-18.5c-0.8-10-4.7-19-10.8-26.9c-1.9-2.4-1.8-4.4,0.3-6.4c5.6-5.3,13.2-5.5,18.8-0.3
			c2.2,2,3.8,4.6,6.1,6.4c1.2,1,3.5,1.4,5.1,1.1c3.4-0.6,6.7-1.9,10.2-0.3c5.3,2.4,10.7,4.9,14.4,9.7c2.3,3,2.7,6.6,1.4,10.2
			c-1.2,3.3-2.7,6.6-4.1,9.9s-1.4,6.3,1.3,9.3c3.2,3.5,3.3,8.3,0.5,12.7c-1.4,2.2-3.3,4.2-5.1,6.5c2.1,3.1,4.4,6.4,6.6,9.6
			c4.8,7.3,8,15.2,8.8,24c-2.2,2.4-3.8,5-4.8,8.3c-2.2,7.3-6.7,13-12.5,18c-6.8,5.9-14.4,6.3-22.6,4.4c-2.3-0.5-4.2-1.7-5.3-3.9
			c-0.9-1.7-2.5-2.5-3.8-3.7c-9.1-7.5-17.6-15.6-25.3-24.6c-5.9-6.8-13.3-12.2-22.5-14C301.4,321.6,301,321.4,300.7,321z"/>
		<path class="st2" d="M203,322.4c-2.1,1.7-4.2,3.5-6.3,5.2c-15.7,9.1-27.5,22.2-37.8,36.8c-5.5,7.8-11.6,15.1-19.6,20.5
			c-6.7,4.6-13.8,7.1-22.1,3.9c-5.5-2.1-9.2-5.9-11.1-11.2c-2.5-7.1-4-14.5-3.2-22.1c0.4-4.2,0.1-8.5,0.1-12.8c0-1.5-0.1-3,0.6-4.4
			c-0.4-0.1-0.9,0.4-1.3,0c1-3.7,1.7-7.5,3-11.1c1.1-3,0.2-5.1-1.8-7.2c-4-4.2-7.9-8.5-12-12.7c-2.5-2.6-3.7-5.7-3.5-9.2
			c0.1-1.6,0.7-3.7,1.8-4.8c2.7-2.5,3.4-5.7,3.9-9c0.6-3.7,1.2-7.4,2.2-11c0.6-2.4,2.5-3.7,5.2-3.4c3.3,0.3,6.8,0.2,10,0.8
			c2.2,0.4,4.4,1.6,6.3,2.8c2.2,1.5,3.9,1.2,5-1.2c0.2-0.5,0.4-1.1,0.6-1.7c3.5-7.8,11.3-12.2,19.9-11.2c2.8,0.3,5.3,2.7,6,5.8
			c0.6,2.6-1.5,3.5-3,4.9c-5.3,4.9-8.1,10.9-7.9,18.4c0.3,10.6-1.4,20.9-7.2,30.1c-1.5,2.3-1.9,4.4-1.2,7c1.2,4,1.9,8.2,3.5,11.9
			c1.6,3.6,3.9,6.8,6.3,10c2.4,3.2,5.1,6.2,7.9,9.4c3.2-4.1,6.8-8.5,10.3-13c8.5-10.9,19.1-18.9,32.9-22.1
			C194.7,320.9,198.9,320.8,203,322.4z"/>
		<path class="st3" d="M300.7,321c2.3,0.5,4.9,0.5,6.9,1.5c7,3.5,13.3,7.9,18.6,13.9c6.1,6.8,13,13,19.5,19.4c3.1,3.1,6,6.5,9.5,9.1
			c2.3,1.7,5.5,2.8,8.3,3.2c13,1.7,20.6-6.1,26.7-15.9c1.7-2.7,2-6.2,3.6-8.9c1.3-2.2,1.7-5.4,5.1-6c2.1,11.1-0.4,21.5-5.6,31.2
			c-3.4,6.3-7.3,12.2-11.6,17.9c-8.9,11.8-21.4,15.5-35.6,11.1c-1.7-0.5-3.4-1.1-5.1-1.4c-5.7-1.3-10.9-3.5-15.2-7.6
			c-4.8-5.3-9.6-10.8-14.5-16c-5.2-5.5-9-11.7-11.6-18.7c-0.5-1.4-1.2-2.7-1.8-4c-0.8-4.6-2.1-9.2-2.2-13.9
			C295.4,330.3,296.8,325.1,300.7,321z"/>
		<path class="st4" d="M171,129.3c-0.7-7.2-4.2-13.1-8.4-18.9c-4-5.6-7.2-11.8-10.8-17.7c-0.3-0.6-0.7-1.3-0.7-1.9
			c0.1-2.1,0.3-4.2,0.4-6.3c1.7,0.6,3.5,0.9,5.1,1.8c16.9,9.8,34.1,18.8,52.3,25.9c12,4.7,23,11.2,32.9,19.7
			c6.4,5.5,11,12,15.3,19.1c3.4,5.6,7.7,10.7,10.1,16.7c3.2,8,5.7,16.4,7.1,24.9c1.1,6.8,0.5,13.9-0.2,20.8c-0.5,5-1.9,5.5-6.8,5.3
			c-0.8,0-1.6,0-2.4,0c-0.6-4.8-0.9-9.6-1.8-14.4c-1.6-8.1-5.2-15.2-11.4-20.7c-8.1-7.2-15.7-14.9-24.4-21.2
			c-9.5-6.9-19.7-12.8-29.9-18.8C188.8,138.5,179.8,134,171,129.3z"/>
		<path class="st4" d="M87.1,191.9c1.2-1.9,3.1-3.7,3.4-5.7c0.7-4.3-1.3-7.8-4.8-10.5c-3-2.3-6-4.4-8.8-6.9
			c-1.6-1.4-2.8-3.3-2.1-5.6c6.1,1.1,12.1,2.3,18.1,3.3c3.5,0.6,7,0.8,10.6,1c4.6,0.2,9.1,0.2,13.7,0c19.8-0.6,39.2,2,58.1,7.6
			c8.6,2.5,17.1,5.5,25.6,8.3c0.6,0.2,1.1,0.9,1.7,1.4c-1.5,1-2.9,0.2-4.2-0.2c-13.2-4-26.7-5.9-40.3-7.3
			c-13.5-1.4-27.1-2.1-40.5-4.1c-3.1-0.5-6-1.3-9-2.1c-1-0.3-2-0.8-3.4-0.3c-0.6,1.6,0.3,3,1.3,4.2c2.7,3.7,6.3,6.3,10.8,7.5
			c14.7,3.9,29.4,7.1,44.7,7.5c15.4,0.4,30.4,3.8,45.5,7c10.2,2.2,19.7,5.9,28.8,10.8c1,0.5,1.9,1.1,2.6,1.9l0,0
			c0.2,0.2,0.4,0.4,0.6,0.6l0,0c0.2,0.2,0.4,0.4,0.6,0.6c0.9,0.9,2,1.6,2.7,2.6c2.7,3.6,1.9,5.7-2.4,7c-1.7,0.5-3.3,1.1-5,1.7
			c-5.1-12.5-16-16.7-27.9-19.6c-8.3-2-16.8-1.8-25.3-0.8c-8.8,1-17.7,1.9-26.5,2.5c-23.3,1.8-45.5-3.5-67.2-11.6
			C88,192.6,87.6,192.2,87.1,191.9z"/>
		<path class="st3" d="M102.3,338.3c0.6-0.6,1.2-1.1,1.9-1.8c-0.3,7.1-1,14.2-0.8,21.3c0.2,5.7,1.4,11.5,2.7,17.1
			c2.3,10,10.8,15.4,20.9,14.4c5.9-0.6,10.7-4.1,15.4-7.7c8.5-6.5,13.7-15.6,20.2-23.7c5.3-6.6,11.3-12.7,17.4-18.6
			c3.8-3.7,8.1-6.8,12.4-10c1.2-0.9,2.9-1.1,4.3-1.7c-3.7,4.6-7.6,9-11.1,13.8c-2.7,3.7-5,7.8-7.5,11.7
			c-5.5,8.2-10.2,16.7-12.7,26.3c-2.3,9.3-4.3,18.6-6.4,28c-0.4,0.8-1.1,1.2-1.8,1.4c-5,2-10.2,2.9-15.3,4.3c-0.5,0.1-1,0-1.4-0.4
			c-8.1,1.9-15.6,1.6-23.3-2.7c-11.3-6.3-15.7-16.2-17.8-28C96.8,367.1,97.6,352.6,102.3,338.3z"/>
		<path class="st5" d="M140.6,412.7c6.2-1.8,12.3-3.6,18.5-5.4c0.1,1.8,0.3,3.6,0.4,5.5c-0.8,1.2-2.1,1.3-3.3,1.8
			c-7,2.6-14.1,5.2-20.1,9.8c-1.5,1.2-2.9,2.4-3.9,4c-3,3.5-4.2,7.2-1.7,11.5c2.3,4.6,6.3,7.2,10.5,9.6c4.5,2.5,9.1,4.6,14,6.3
			c12.2,4.5,24.9,7.1,37.8,8.8c5.4,0.7,10.8,1.7,16.3,1.7c1.1,0,2,0.9,3.1,0.7c14.2,1,28.4,1.6,42.6,1.1c8.7-0.3,17.3-0.7,26-1.6
			c13.3-1.3,26.5-3.4,39.5-6.3c10.2-2.3,20-5.5,29.2-10.5c3.7-2,6.7-4.8,9.7-7.7c2.8-4,3.4-8.1,0.5-12.3c-4.2-6-10.6-8.9-17-11.8
			c-7.8-3.5-16-5.5-24.3-7.5c-1-0.2-2.2-0.1-2.8-1.3c0.4-1.3,0.8-2.5,1.2-3.8c0.5-1.7,1.6-2.2,3.3-1.7c8.6,2.7,17.3,5,25.7,8.2
			c4.9,1.9,9.6,4.8,13.9,7.9c12,8.8,11.9,22.7,0,31.7c-9.3,7-20,10.8-31,13.8c-17,4.6-34.2,7.5-51.8,8.4
			c-15.3,0.7-30.7,1.5-46.1,1.1c-27.2-0.7-54.1-4-80-12.9c-7.2-2.5-13.9-5.7-20-10.4c-11.7-9-11.7-22.7,0-31.6
			c2.4-1.8,5-3.3,7.4-4.9C139.2,414,139.8,413.3,140.6,412.7z"/>
		<path class="st4" d="M301.4,313.3c-2.6,2.8-4.8,6-7.7,8.4c-11.8,10.1-25.5,16.8-40.2,21.7c-9.4,3.1-19,5.5-29,4.9
			c-3.4-0.2-6.9-0.7-10.2-1.6c-9.1-2.4-10.7-12.9-9.7-19.6c0.3-1.8,0.6-3.7,0.9-5.5c4.3-2.6,8.6-5.3,13-7.9c0.5-0.3,1-0.6,1.4-1
			c6.9,3.5,13.8,7,21.6,7.7c5.1,0.5,10.4,0,15.6-0.3c2.7-0.1,5.4-0.8,8.2-1.1c6.6-0.8,11.4-5.1,16.6-8.6c2.1-1.5,3.9-3.3,5.9-4.9
			C292.3,308.1,296.8,310.7,301.4,313.3z"/>
		<path class="st6" d="M238.9,209.7c-4.6-2.2-9.3-4.5-14-6.5c-11.2-4.9-23.2-6.5-35-9c-13.1-2.8-26.5-2.7-39.7-4.4
			c-11.5-1.5-22.9-4.4-34.2-7c-4.7-1.1-8.5-4.3-11-8.6c-0.8-1.4-1.1-3-1.9-5.5c3,0.7,5,1.4,7.1,1.7c7.6,1.2,15.2,2.6,22.8,3.4
			c20.4,2.2,41,3,61,8.4c2.9,0.8,5.7,1.6,8.6,2.3c6.7,3,13.4,5.8,20.1,8.9c6.8,3.1,11.2,9,15.9,14.5
			C238.8,208.4,238.8,209.1,238.9,209.7z"/>
		<path class="st7" d="M253.7,307.1c-3.4,0.2-6.8,0.7-10.2,0.6c-0.8,0-2.2-1.5-2.3-2.3c-0.2-6.7-4.2-10.9-9.1-14.6
			c-0.7-0.5-1.5-1-2.1-1.7c-1.7-1.8-1.4-3.7,0.9-4.3c3.3-0.9,6.8-1.4,10.2-1.9c7.5-1,15.1-1.8,22.6-3c2.6-0.4,5-1.8,7.5-2.8
			c2.6-1.1,3.7-0.6,4.1,2.2c0.3,1.9,0.1,3.9,0.2,5.9c-3,1.7-6.5,2.2-9.4,4.2c-5.9,4.1-10.3,9.2-11.7,16.4
			C254.3,306.4,254.1,306.8,253.7,307.1z"/>
		<path class="st8" d="M253.7,307.1c0.3-7.4,4.5-12.8,10.1-16.9c3.4-2.4,7.8-3.4,11.7-5c0.2,5.2-3,8.8-6.3,12.2
			C264.9,302,260.2,306.1,253.7,307.1z"/>
		<path class="st7" d="M263.3,233.6c1.3,0.6,3.1,0.9,3.8,1.9c4.1,5.5,4.9,12,5.2,18.4c-3,1.1-5.6,2-8.3,3c-1.1,0.2-1.7-0.5-2-1.4
			c-2.1-7.1-2.5-14.3,0.6-21.2C262.8,234,263.1,233.8,263.3,233.6z"/>
		<path class="st7" d="M247.7,266.7c-0.1,0.2-0.3,0.8-0.6,1c-3.8,2.5-7.6,4.9-11.5,7.3c-0.5,0.3-1.5,0.5-2,0.3
			c-3.3-1.8-6.5-3.7-9.6-5.8c-0.3-0.2-0.1-2,0.4-2.5c0.8-0.8,2-1.4,3.1-1.6c5.2-0.8,10.4-1.4,15.6-2
			C245.7,263,247.8,264.5,247.7,266.7z"/>
		<path class="st8" d="M263.3,233.6c-1.6,5-2.3,10.2-1.7,15.4c0.3,2.7,1.6,5.2,2.4,7.9c-1.5,1.4-3.1,2.7-4.9,4.4
			c-1.5-6.7-3.8-12.9-2.9-19.6C256.7,237.7,259.9,234.3,263.3,233.6z"/>
		<path class="st7" d="M227.8,245.3c1.8,4.1,0.2,13.7-3,17c-1.1-1.6-2.1-3.2-3.2-4.8C220.2,253.2,223.9,246.1,227.8,245.3z"/>
		<path class="st8" d="M227.8,245.3c-4.1,3-5.9,7.2-6.2,12.2c-0.9-0.6-1.8-1.2-2.8-1.8c0.6-3.9,1.5-7.7,4.6-10.6
			C224.8,243.6,226.5,242.6,227.8,245.3z"/>
		<path class="st6" d="M240,210.9c-0.2-0.2-0.4-0.4-0.6-0.6C239.6,210.5,239.8,210.7,240,210.9z"/>
		<path class="st6" d="M239.5,210.3c-0.2-0.2-0.4-0.4-0.6-0.6C239.1,209.9,239.3,210.1,239.5,210.3z"/>
		<path class="st9" d="M360.1,441.9c-4.8,6.2-11.5,9.5-18.5,12.4c-15.6,6.4-32,9.3-48.7,11.5c-20.2,2.6-40.4,3.3-60.7,2.8
			c-6.7-0.2-13.4-0.8-20.1-1.2c-0.4-0.3-0.4-0.6-0.1-0.9c12.3,0.4,24.7,1,37,1c14.6,0,29.3-0.4,43.8-3.2c3.1-0.6,6.2-1.3,9.3-1.8
			c1.9-0.3,2.2-1.4,2.2-3.1c0.1-4.8,0.3-9.7,0.5-14.5c0-1,0.4-1.9,0.6-2.9c1.1-1.1,2.6-1,3.9-1c15.6,0,31.1,0,46.7,0
			C357.6,440.9,359,440.7,360.1,441.9z"/>
		<path class="st10" d="M315.6,408.9c14.1,3,27.9,6.5,39.8,15.1c1.9,1.4,3.3,3.5,5,5.3c-3,1.5-6.3,1.4-9.5,1.2
			c-5.3-0.4-10.6,0.1-16,0.1c-1.8,0-3.6,0-5.3-0.1c-5.6-0.5-11,0.4-16.6,0.4c-1.4,0-2.8,0.2-3.9-0.9
			C311.3,422.9,313.4,415.9,315.6,408.9z"/>
		<path class="st11" d="M309.1,429.9c17.1-0.2,34.2-0.4,51.3-0.6c3.2,4.3,2.8,8.4-0.3,12.6c-18.2,0-36.4,0-54.5,0
			C306.7,437.9,307.9,433.9,309.1,429.9z"/>
		<path class="st12" d="M154.3,456.1c-8.1-2.8-16-6.1-22.1-12.4c-1-1-1.6-2.4-2.4-3.6c1-1.4,2.5-1.5,4-1.5c8.2-0.1,16.4-0.1,24.6,0
			c1.1,0,2.2,0,3,0.9c0,1.8,0.1,3.6,0.1,5.4c0.7,0.6,0.7,1.3,0.2,2.1c0.5,2.7,1,5.3,1.6,8C160.4,456.2,157.3,456,154.3,456.1z"/>
		<path class="st11" d="M161.4,439.5c-8.8,0-17.6,0-26.4,0c-1.7,0-3.5,0.4-5.2,0.6c-2.5-4.5-2-8.2,1.8-12.1c8.3-0.3,16.7-0.1,25,0
			c1.3,0,2.6,0.3,3.4,1.5C160.5,432.7,160.9,436.1,161.4,439.5z"/>
		<path class="st10" d="M160,429.4c-5.1-0.2-10.2-0.5-15.3-0.6c-3.5-0.1-6.9,0-10.4-0.1c-0.9,0-1.8-0.5-2.7-0.8
			c2.8-2.4,5.3-5.5,8.5-7.1c6.2-3.1,12.9-5.5,19.4-8.1C159.7,418.3,159.8,423.8,160,429.4z"/>
		<path class="st10" d="M154.3,456.1c3-0.4,5.9-0.8,8.9-1.2c0.1,3.4,2.5,4.3,5.3,4.7c14.5,2.2,29.1,4.5,43.6,6.7
			c0,0.3,0,0.6,0.1,0.9c-16.6-1.2-33.1-3.7-49.2-8.2C160,458.2,157.2,457.1,154.3,456.1z"/>
		<path class="st10" d="M161.6,447c-0.1-0.7-0.1-1.4-0.2-2.1C161.5,445.6,161.6,446.3,161.6,447z"/>
		<path class="st3" d="M346.5,258.1c6-2,7.4-7.5,8.5-13.4c0.4-0.1,0.8-0.3,1.2-0.4c1.3,1.6,2.7,3.1,3.8,4.8c0.8,1.2,0.9,2.4-0.2,4
			c-2.9,4-3.5,8.7-2.7,13.5c0.5,2.6,2.5,4.1,5,5c2.4,0.8,4.9,1.6,7.3,2.5c2.8,1,3.3,2.8,2.5,5.7c-0.8,2.9-1.3,6-1.1,9
			c0.4,5.1,3.2,8.7,8.1,10.8c1.2,0.5,2.7,2.5,2.6,3.6c-0.1,1.9-2.2,3-4.1,2.4c-3.4-1.2-6.7-2.6-9.8-4.4c-6.6-3.8-10-10-12.7-16.9
			c-1.3-3.4-3.4-6.4-5.1-9.6c-0.8-1.6-1.7-3.2-2-4.9C347.2,266,347,262.3,346.5,258.1z"/>
		<path class="st3" d="M98.3,307.1c1.5,0.5,2.6,0.8,3.6,1.1c3.9,0.9,7.8,2.3,11.7,2.6c6.6,0.4,10.6-5,9.1-11.3
			c-0.2-0.9-0.3-1.8-0.6-2.6c-0.9-2,0.3-2.7,1.8-3.2c5-1.6,5.9-3.2,4.9-8.3c-0.2-1.1,0-2.2,0-3.4c0.3-0.1,0.7-0.1,1-0.2
			c1,3.2,2.1,6.4,2.9,9.6c0.7,2.9,1.4,5.8,1.7,8.7c0.5,5.1-1.3,9.7-3.4,14.2c-2.2,4.8-5,9.4-5.4,14.9c-0.3,3.9-0.5,8-2,11.6
			c-1.1,2.6-3.9,4.7-6.3,6.5c-1.7,1.3-3.5,0.1-4.1-2c-0.4-1.6-0.7-3.3-0.7-4.9c0.3-9.1-3-16.7-9.3-23.1
			C100.8,314.7,99.1,311.5,98.3,307.1z"/>
		<path class="st6" d="M270.6,211.9c-0.2-0.7-0.7-1.3-0.7-2c-0.2-12.6-6.1-22.9-13.6-32.3c-4.8-6.1-10.8-11.3-16.5-16.6
			c-8.7-8.1-17.9-15.7-28.3-21.6c-10.6-6-21.3-11.9-31.6-18.4c-8.4-5.3-15-12.3-18-22.2c-0.3-0.9-0.4-1.8-0.6-3.2
			c1,0.4,1.7,0.4,2.1,0.8c7,6.4,15.8,9.3,24.2,13.1c22.3,10.1,42.8,22.9,59.7,40.9c13.6,14.5,22.3,31.4,24.2,51.4
			c0.3,3.2,0,6.5,0,9.7C271.2,211.8,270.9,211.9,270.6,211.9z"/>
	</g>
</g>
</svg>
