<svg width="491" height="376" viewBox="0 0 491 376" fill="none" xmlns="http://www.w3.org/2000/svg">
<circle cx="319" cy="189.984" r="172" fill="#F4F6F1"/>
<path d="M339.436 118.024L338.441 119.883C342.124 120.426 345.936 120.556 349.481 121.603C353.998 122.942 358.791 124.303 362.573 126.957C369.027 131.447 374.271 137.306 375.373 145.666C375.818 149.039 376.07 152.442 376.277 155.846C376.56 160.672 377.364 165.36 379.546 169.735C381.314 173.3 381.973 176.871 380.809 180.887C379.597 185.512 377.629 189.905 374.983 193.889C374.677 195.144 373.452 195.61 372.686 196.497C367.526 199.978 362.305 203.289 356.134 204.827C350.679 206.328 344.924 206.362 339.452 204.926C331.359 202.677 323.658 199.572 317.326 193.805C313.95 190.746 311.01 187.335 309.471 182.929C309.012 181.399 308.797 179.763 308.047 178.401C303.72 170.473 301.79 161.46 302.489 152.457C302.948 145.428 303.982 138.484 308.713 132.839C310.658 130.545 313.069 128.571 315.604 126.139C303.186 100.639 301.524 75.1082 318.666 50.4189C321.866 46.281 324.913 42.0055 328.289 38.036C331.781 33.9211 336.374 31.1523 341.136 28.7201C349.351 24.5823 357.711 20.7274 365.88 16.4825C374.478 12.0387 382.93 7.30432 391.413 2.66168C392.704 1.85546 393.949 0.977029 395.141 0.030594C395.241 -0.0382425 395.424 0.030594 395.562 0.030594C397.53 2.24101 396.802 6.91424 393.878 10.9374C388.825 14.295 383.443 17.1097 378.405 20.498C372.158 24.7046 365.888 28.8578 359.924 33.5004C359.074 34.1582 358.285 35.0301 357.053 34.9001C355.943 34.3494 355.522 35.2902 354.886 35.8714C351.824 38.7932 349.029 41.9902 345.852 44.759C345.223 44.9551 344.647 45.2926 344.168 45.7456C333.175 55.3866 324.578 67.4501 319.056 80.9823C316.851 86.275 314.777 91.5219 314.18 97.2965C313.896 100.206 314.098 103.142 314.777 105.985C315.747 109.74 317.028 113.409 318.605 116.953C319.232 118.483 319.86 120.12 321.476 120.686C322.655 120.831 323.336 119.676 324.377 120.081C324.829 120.372 324.921 121.114 325.61 121.091C327.241 121.091 326.59 118.705 328.198 118.697C330.213 119.318 332.372 119.299 334.376 118.643C336.03 118.108 337.668 117.213 339.436 118.024Z" fill="#D4C9E2"/>
<path d="M393.878 64.4761C398.471 63.6424 403.065 63.0611 407.574 61.9368C418.293 59.2445 429.011 56.3305 439.668 53.4393C442.47 52.6745 445.203 51.6572 448.281 50.6553C449.774 51.466 449.567 53.141 448.893 54.4795C447.189 57.9353 445.258 61.2748 443.113 64.4761C441.345 67.0231 439.01 69.1799 436.927 71.5051C425.755 74.6461 414.483 77.374 403.111 79.689C402.662 79.8467 402.186 79.9105 401.712 79.8763C401.238 79.8421 400.776 79.7106 400.355 79.4901C399.344 78.6182 398.433 79.3754 397.514 79.6966C381.621 85.2974 366.071 91.8251 350.943 99.2462C350.678 99.3685 350.405 99.4708 350.124 99.5521C346.962 100.003 344.612 102.107 342.024 103.667C339.204 105.34 336.592 107.343 334.246 109.633C333.61 110.268 332.998 111.163 331.842 110.612C331.329 109.572 331.987 108.761 332.454 107.981C339.513 96.1944 348.126 85.8689 359.847 78.3581C369.657 71.9692 380.515 67.3532 391.926 64.7209C392.559 64.533 393.218 64.4503 393.878 64.4761Z" fill="#D4C9E2"/>
<path d="M338.947 354.109C339.651 355.685 340.325 357.276 341.075 358.836C341.756 360.231 342.078 361.772 342.014 363.323C341.95 364.873 341.501 366.382 340.707 367.716C337.752 371.449 333.542 373.368 329.361 375.127C324.255 377.277 319.899 375.127 316.032 371.785C314.379 370.362 312.878 368.772 311.309 367.257C308.676 363.09 306.807 358.487 305.789 353.666C305.452 352.044 305.023 350.438 304.686 348.824C304.431 348.564 304.246 348.243 304.15 347.891C303.002 341.918 301.417 336.051 299.725 330.216C298.906 325.227 297.167 320.435 294.596 316.081C290.704 309.466 287.639 302.4 285.47 295.04C285.141 293.923 284.704 292.83 285.041 291.621C285.294 291.017 285.485 290.359 286.396 290.26C287.859 290.612 288.425 291.95 289.083 293.136C291.061 296.636 293.421 299.906 296.119 302.887C296.596 303.443 297.121 303.955 297.689 304.417C301.425 307.385 304.043 307.209 307.075 303.553C308.606 301.679 310.321 300.249 312.802 299.859C315.282 299.469 316.492 300.218 316.63 302.918C316.649 305.688 316.472 308.456 316.101 311.201C315.266 319.917 315.145 328.686 315.741 337.42C316.032 341.359 316.423 345.268 317.081 349.161C317.432 351.404 318.212 353.56 319.378 355.509C319.752 356.608 320.008 357.744 320.144 358.897C320.376 360.039 320.823 361.127 321.46 362.102C323.413 365.123 325.786 365.161 327.937 362.309C328.111 362.072 328.314 361.858 328.542 361.674C332.232 360.297 335.433 358.339 337.385 354.706C337.653 354.201 338.135 353.559 338.947 354.109Z" fill="#BABAD4"/>
<path d="M356.509 52.1165C350.37 58.763 345.031 66.1045 340.6 73.9912C336.864 80.5842 332.944 87.1236 329.805 93.9996C326.915 100.476 325.248 107.431 324.89 114.513C324.776 116.394 324.592 118.284 324.439 120.165C320.917 121.886 320.174 121.733 318.544 117.871C316.017 111.928 313.299 105.954 313.544 99.2924C313.636 94.1872 314.816 89.1602 317.005 84.5461C320.68 77.1194 324.278 69.6316 328.404 62.4573C332.408 55.5048 338.786 50.5027 344.344 44.8657C344.81 44.5578 345.329 44.3398 345.875 44.2233C346.358 45.2864 345.416 45.7912 344.941 46.426C340.784 51.9941 335.854 56.9351 331.742 62.5414C324.661 72.2091 318.995 82.4963 317.724 94.7339C317.476 97.3526 317.437 99.987 317.61 102.612C317.832 106.612 317.87 110.65 318.865 114.574C319.072 115.4 319.133 116.303 320.182 116.8C321.162 115.576 321.078 114.153 321.208 112.83C321.667 108.402 321.866 103.95 322.532 99.5448C323.762 91.2075 326.554 83.1766 330.762 75.8727C338.013 63.3292 346.151 51.3516 353.899 39.1599C354.863 37.6302 355.246 35.7258 356.9 34.6703C358.247 33.8442 359.618 33.0565 360.927 32.1845C369.915 26.1269 378.872 20.0846 387.899 14.1341C389.797 12.8874 391.926 11.9772 393.947 10.9141C392.592 13.0327 391.558 15.4573 389.836 17.2164C383.198 23.9853 376.208 30.4101 369.616 37.2172C365.015 41.9593 360.85 47.1373 356.509 52.1165Z" fill="#C5BADA"/>
<path d="M327.999 118.873L331.926 110.528C334.292 108.677 336.573 106.704 339.046 105.006C341.84 103.086 344.773 101.365 347.697 99.6519C348.433 99.3695 349.207 99.1993 349.994 99.1472C350.048 100.294 349.037 100.493 348.356 100.983C343.293 104.476 338.743 108.656 334.835 113.404C333.873 114.478 333.29 115.837 333.174 117.274C334.56 117.741 335.563 116.991 336.52 116.272C345.436 109.611 355.034 103.911 365.153 99.2695C370.259 96.9061 375.458 94.734 380.518 92.2559C386.406 89.38 391.642 85.5252 396.956 81.7698C398.203 80.8902 398.732 79.2228 400.347 78.7945C401.113 78.9245 401.878 79.2993 402.529 79.154C411.655 77.0736 420.773 74.9473 429.884 72.7751C431.859 72.3086 433.796 71.6814 435.771 71.1919C436.108 71.1078 436.537 71.3755 436.92 71.4749C433.479 74.4374 430.037 77.3948 426.592 80.3472C425.941 80.9055 425.252 81.4179 424.578 81.9533C422.213 83.483 419.778 85.0127 417.489 86.6495C411.119 91.3227 403.999 94.6039 396.68 97.2656C386.406 101.006 375.856 103.973 365.513 107.507C358.477 109.916 351.563 112.693 344.635 115.393C342.857 116.182 341.119 117.06 339.429 118.024C336.55 118.597 333.679 119.278 330.778 119.683C329.913 119.806 328.948 119.163 327.999 118.873Z" fill="#C5BADA"/>
<path d="M409.657 298.375C412.39 301.366 414.771 304.823 417.933 307.247C425.528 313.06 430.42 312.28 436.59 305.037C444.92 295.247 451.389 284.248 457.323 272.913C458.546 270.587 459.425 268.095 459.933 265.517C460.768 261.112 463.838 259.834 467.589 259.398C471.861 258.893 476.149 258.595 480.436 258.205L483.07 258.404C483.184 259.406 482.304 259.528 481.73 259.888C479.563 261.242 477.32 262.473 475.146 263.804C468.309 267.987 463.47 274.152 459.497 280.929C454.957 288.684 450.425 296.44 445.716 304.111C443.19 308.249 439.829 311.76 436.652 315.355C433.712 318.705 430.734 322.009 428.36 325.81C427.97 326.43 427.595 327.08 426.714 327.072C423.705 326.307 421.99 324.051 420.482 321.603C419.563 320.028 418.418 318.595 417.083 317.351C416.607 316.834 415.973 316.489 415.28 316.372C414.587 316.254 413.875 316.37 413.255 316.701C412.34 317.171 411.328 317.421 410.299 317.43C409.27 317.44 408.253 317.208 407.329 316.754C405.836 315.989 403.892 316.632 402.736 315.087C402.552 314.225 402.68 313.325 403.096 312.548C404.711 308.479 406.158 304.364 407.896 300.31C408.279 299.53 408.439 298.467 409.657 298.375Z" fill="#8787A0"/>
<path d="M426.883 326.981C432.586 319.891 438.719 313.099 443.871 305.634C449.368 297.672 453.878 289.029 458.93 280.753C463.134 273.87 468.018 267.544 475.008 263.2C477.657 261.556 480.367 260.003 483.047 258.412H486.729C487.066 261.823 487.495 264.837 486.055 267.743C485.389 269.12 484.647 270.466 484.011 271.858C483.69 272.42 483.546 273.065 483.598 273.709C484.846 278.367 482.702 282.237 480.421 285.832C478.139 289.427 475.238 292.448 472.604 295.737C470.69 296.211 469.924 295.737 469.81 294.001C469.725 292.746 469.878 291.522 470.981 290.658C474.196 290.161 476.003 287.912 477.45 285.304C477.932 284.432 478.445 283.453 477.45 282.589C476.386 282.245 475.919 283.002 475.444 283.606C474.365 284.891 473.354 286.23 472.382 287.576C471.923 288.195 471.578 289.037 470.545 288.861C469.098 287.805 469.335 286.367 469.695 284.937C469.986 283.752 470.583 282.643 470.797 281.434C471.203 280.088 472.328 279.354 473.308 278.489C475.789 276.513 477.562 273.786 478.361 270.719C478.629 269.579 478.905 268.424 478.063 267.032C476.998 267.17 475.977 267.544 475.075 268.126C474.173 268.708 473.413 269.484 472.849 270.397C470.583 273.939 468.424 277.533 467.52 281.686C462.85 289.97 456.45 296.915 450.325 304.081C448.22 306.544 445.9 308.961 445.479 312.495C445.318 313.879 444.269 314.988 443.182 315.891C440.706 317.986 438.963 320.815 438.206 323.967C437.801 325.829 437.087 327.611 436.093 329.237C433.42 329.597 430.97 330.919 429.202 332.954C427.939 334.316 427.671 336.014 426.906 337.543C424.509 338.14 423.346 337.543 421.83 334.974C421.754 334.807 421.715 334.625 421.715 334.442C421.715 334.259 421.754 334.077 421.83 333.91C423.353 331.532 424.716 328.962 426.883 326.981Z" fill="#C9C8E1"/>
<path d="M421.975 334.797C423.185 336.403 424.517 337.787 426.806 337.428C427.572 337.94 427.51 339.049 428.337 339.47C431.897 339.141 435.365 334.743 435.947 329.298C437.647 324.25 438.466 318.819 443.044 315.117C444.193 314.192 444.522 312.272 445.249 310.811C445.718 309.609 446.319 308.462 447.041 307.392C451.55 301.885 456.228 296.524 460.691 290.979C462.552 288.684 463.968 285.999 465.645 283.537C466.168 282.867 466.744 282.24 467.367 281.663C468.638 281.663 469.848 281.181 471.126 281.189C470.782 282.496 470.468 283.812 470.093 285.112C469.718 286.412 469.58 287.82 470.912 288.822C471.364 289.397 471.631 290.096 471.678 290.826C469.81 291.874 470.269 293.564 470.391 295.415L472.504 295.728C467.658 301.082 463.019 306.597 457.92 311.675C452.561 316.968 448.281 322.972 443.871 328.969C440.204 333.956 436.146 338.652 432.249 343.501C428.475 348.159 423.966 350.316 418.055 347.593C417.351 347.096 417.405 346.323 417.382 345.604C417.229 341.78 418.844 338.514 420.834 335.393C420.924 335.176 421.088 334.997 421.296 334.888C421.505 334.779 421.745 334.747 421.975 334.797Z" fill="#BABAD4"/>
<path d="M421.975 334.797C419.303 338.621 417.382 342.713 418.147 347.578C417.098 347.173 416.019 346.813 415.024 346.339C414.269 345.883 413.55 345.372 412.872 344.809C410.474 342.377 408.798 339.326 408.034 335.998C407.015 332.174 406.043 328.158 402.805 325.413C401.648 324.579 400.421 323.847 399.137 323.225C399.696 320.533 400.983 318.124 402.062 315.63C402.135 315.425 402.268 315.246 402.444 315.118C402.62 314.989 402.832 314.917 403.05 314.911C406.679 315.622 410.108 318.131 414.082 315.814C414.748 315.424 416.379 315.99 417.144 316.647C418.564 317.892 419.779 319.353 420.743 320.976C422.203 323.485 424.32 325.548 426.867 326.942C425.239 329.568 423.608 332.187 421.975 334.797Z" fill="#7D7D91"/>
<path d="M253.667 269.433C253.269 267.903 252.618 266.374 252.519 264.844C251.523 249.478 254.188 234.763 261.124 220.995C265.618 212.077 272.416 204.933 280.157 198.685C280.268 198.683 280.377 198.706 280.479 198.752C280.58 198.797 280.67 198.864 280.743 198.948C280.816 199.031 280.87 199.13 280.9 199.236C280.931 199.343 280.939 199.455 280.922 199.564C280.692 202.998 282.997 205.193 285.148 207.106C290.163 211.557 293.302 217.523 297.903 222.28C298.214 222.596 298.397 223.016 298.416 223.458C298.309 224.774 297.176 225.171 296.28 225.753C290.674 229.19 285.696 233.556 281.558 238.663C281.17 239.038 280.934 239.541 280.892 240.078C285.784 239.727 290.699 239.878 295.56 240.53C297.98 241.019 300.322 240.392 302.65 239.941C304.426 239.596 305.299 238.258 305.368 236.461C305.357 235.157 305.493 233.856 305.773 232.583C306.094 231.102 306.677 229.69 307.496 228.414C310.329 225.087 314.149 224.185 318.283 224.093C323.642 224.361 328.067 226.869 331.995 230.135C334.368 232.109 334.292 235.321 334.345 238.25C333.786 239.084 333.855 240.04 333.763 240.981C333.691 242.385 333.093 243.71 332.087 244.694C331.081 245.677 329.742 246.247 328.335 246.289C326.364 246.456 324.379 246.275 322.471 245.753C320.029 245.065 317.954 245.448 316.178 247.52C314.195 249.815 311.163 251.084 309.433 253.716C306.753 255.719 304.02 257.639 300.743 258.58C298.845 258.679 296.984 259.123 295.063 259.085C293.738 259.085 292.728 259.85 291.755 260.614C287.7 263.742 283.839 267.113 280.195 270.71C276.535 274.443 271.72 276.064 266.858 277.487C264.676 278.114 263.03 276.913 262.379 274.772C262.257 274.351 262.234 273.854 261.912 273.556C259.049 270.856 257.702 267.116 255.313 263.873C255.007 265.295 255.275 266.534 255.099 267.751C254.991 268.584 254.946 269.556 253.667 269.433Z" fill="#86869E"/>
<path d="M278.847 325.565C275.019 326.077 271.237 326.682 267.417 327.095C259.218 327.928 251.118 327.469 244.021 322.842C239.075 319.614 236.196 314.597 235.316 308.731C233.785 298.398 235.316 288.607 242.045 280.286C244.564 277.165 247.979 274.741 251.095 272.125C251.814 271.513 252.97 271.414 253.927 271.077C255.29 271.903 255.206 273.303 255.198 274.588C255.233 276.709 255.597 278.812 256.278 280.821C257.043 283.315 258.697 284.477 261.292 284.646C263.428 284.745 265.503 284.087 267.632 284.217C268.703 284.278 269.928 284.133 270.434 285.441C270.908 289.021 270.571 292.623 270.64 296.21C271.031 301.087 271.914 305.912 273.274 310.612C274.584 315.181 276.381 319.597 278.633 323.783C278.932 324.295 279.261 324.892 278.847 325.565Z" fill="white"/>
<path d="M334.1 238.25C333.947 237.325 333.748 236.399 333.656 235.466C333.342 232.254 331.819 230.074 328.879 228.468C325.533 226.64 322.257 224.858 318.367 224.644C316.966 223.741 316.614 222.104 315.703 220.819C315.251 220.055 314.738 219.29 315.022 218.372C316.959 214.999 318.735 211.634 317.694 207.473C316.262 201.813 314.846 196.176 310.612 191.793C310.148 191.485 309.816 191.017 309.678 190.478C309.823 189.109 309.203 187.938 308.721 186.715C308.407 185.95 307.81 185.185 308.17 184.229L309.502 182.929C311.217 185.338 312.771 187.885 314.685 190.134C319.074 195.342 324.798 199.26 331.245 201.469C334.854 202.797 338.532 203.933 342.262 204.872C346.947 205.935 351.625 205.377 356.303 204.199C362.014 202.761 366.829 199.671 371.676 196.551C371.985 196.37 372.308 196.211 372.64 196.076C373.636 196.229 374.026 197.124 374.547 197.774C376.782 200.558 379.393 203.067 381.077 206.257C381.529 207.113 382.302 208 381.498 209.079C374.405 213.243 366.398 215.606 358.178 215.963C354.237 216.216 350.283 216.168 346.35 215.817C340.372 215.182 334.573 213.404 329.269 210.578C329.237 211.561 329.467 212.535 329.935 213.4C331.175 216.522 332.636 219.55 334.307 222.464C335.318 224.257 336.953 225.618 338.901 226.288C341.726 227.344 344.719 227.649 347.613 228.399C348.233 229.256 347.498 229.768 347.062 230.273C344.068 233.73 342.353 237.822 341.205 242.174C340.677 244.147 339.743 245.998 339.482 248.056C339.015 250.052 338.257 251.949 337.63 253.891C337.408 254.564 337.232 255.322 336.389 255.566C334.751 255.016 334.552 253.524 334.162 252.155C336.045 248.385 333.763 244.736 333.786 241.019C333.794 240.055 333.465 239.107 334.1 238.25Z" fill="#C5BADA"/>
<path d="M283.939 185.123L281.389 182.324C280.317 181.001 279.996 179.265 279.046 177.896C278.243 176.718 277.4 176.006 275.785 176.366C273.488 176.871 271.314 176.19 269.232 175.119C268.282 174.63 267.409 173.88 266.108 173.857C265.342 175.547 265.993 177.62 264.623 179.211C263.375 180.649 261.629 181.223 260.121 182.125C260.021 183.448 260.772 184.297 261.399 185.185C262.554 186.81 263.14 188.769 263.068 190.76C263.09 191.698 262.902 192.628 262.518 193.484C262.134 194.339 261.563 195.098 260.848 195.705C260.133 196.312 259.29 196.752 258.383 196.992C257.476 197.232 256.526 197.267 255.604 197.093C253.728 196.818 253.085 195.969 253.345 194.08C253.437 193.43 253.644 192.795 253.774 192.152C254.016 191.506 254.053 190.801 253.881 190.133C250.566 190.508 247.167 191.456 244.319 188.81C244.013 186.76 244.633 185.751 246.731 184.825C247.404 184.545 248.108 184.344 248.828 184.228C249.517 184.114 250.314 184.297 250.941 183.517C250.413 182.049 249.112 181.666 247.749 181.414C246.899 181.253 245.988 181.414 245.161 181.062C244.212 180.106 245.735 179.616 245.567 178.63C244.25 176.503 241.471 175.134 241.203 172.121C242.734 169.689 245.222 169.115 247.795 168.832C251.125 168.473 254.479 168.067 257.839 168.557C258.046 168.557 258.261 168.465 258.521 168.151C258.337 166.362 257.074 164.985 256.125 163.47C254.892 161.497 254.93 160.312 256.576 158.598C258.242 156.815 260.463 155.647 262.877 155.287C266.544 154.736 268.114 155.799 269.354 159.662C270.234 155.149 271.574 151.126 276.597 149.887L279.659 149.986C281.91 152.633 282.331 153.81 282.331 157.581C282.783 158.147 283.395 157.864 283.946 157.864C286.871 157.864 288.18 158.721 289.305 161.459C289.782 162.691 290.113 163.974 290.293 165.283C290.967 169.467 288.134 172.488 284.742 173.964C284.276 174.079 283.849 174.32 283.51 174.66C283.395 176.488 285.271 177.72 285.24 179.616L287.445 183.51C287.127 184.133 286.608 184.631 285.972 184.924C285.336 185.217 284.62 185.287 283.939 185.123Z" fill="#2B9952"/>
<path d="M270.143 285.181C268.497 285.074 266.851 284.906 265.197 284.898C263.826 284.898 262.448 285.105 261.078 285.136C258.345 285.181 256.645 284.095 255.88 281.457C255.275 279.384 255.03 277.212 254.632 275.085C254.387 273.739 254.165 272.393 253.927 271.047C253.843 270.512 253.751 269.969 253.667 269.426C254.072 268.725 254.373 267.971 254.563 267.185C254.708 265.655 254.609 264.179 254.609 262.672L255.213 262.473C256.683 264.905 258.138 267.345 259.631 269.754C260.044 270.435 260.603 271.016 261.055 271.674C261.949 272.919 262.719 274.248 263.352 275.644C263.838 276.301 264.535 276.771 265.327 276.975C266.118 277.18 266.956 277.107 267.7 276.768C272.761 274.871 277.653 272.875 281.542 268.714C284.605 265.433 288.287 262.733 291.748 259.842C294.466 257.547 297.872 258.549 300.935 258.075C298.843 261.685 295.926 264.749 292.421 267.016C288.012 270.076 284.681 273.625 284.413 279.33C284.36 280.508 284.413 281.847 283.449 282.849C280.52 284.17 277.432 285.106 274.261 285.633C272.937 285.9 271.436 286.206 270.143 285.181Z" fill="#7D7D91"/>
<path d="M315.244 218.639C315.519 219.343 315.795 220.039 316.063 220.735C315.963 220.85 315.856 221.003 315.734 221.011C312.572 221.217 309.571 221.944 307.121 223.787C305.023 222.647 304.709 220.842 304.319 219.198C304.113 217.897 303.52 216.687 302.619 215.725C301.955 215.038 301.554 214.139 301.486 213.186C301.134 210.609 300.261 209.951 297.543 209.935C296.556 209.935 295.53 210.501 294.358 209.614C294.458 206.784 297.283 205.14 297.957 202.562C297.191 201.591 296.226 201.667 295.3 201.599C291.924 201.346 291.556 200.834 292.551 197.706C292.698 197.439 292.786 197.144 292.809 196.841C292.833 196.537 292.792 196.233 292.689 195.946C291.755 195.136 290.683 195.487 289.627 195.816C288.57 196.145 287.59 196.642 286.565 196.994C284.398 197.713 283.609 197.14 283.456 194.822C283.352 193.911 283.468 192.988 283.793 192.13C284.118 191.272 284.643 190.503 285.324 189.889C288.032 187.438 290.985 185.272 294.136 183.426C295.461 184.581 296.801 185.72 298.102 186.898C298.868 187.617 299.633 188.428 300.399 189.155C300.843 189.621 301.57 190.049 301.93 190.684C303.461 193.147 305.345 194.952 306.34 197.744C307.465 200.941 307.664 204.559 310.612 206.922C311.071 207.289 311.102 208.115 311.331 208.727C312.252 211.338 313.329 213.892 314.555 216.376C314.994 217.05 315.233 217.835 315.244 218.639Z" fill="#D4853D"/>
<path d="M278.848 325.565C276.589 319.806 274.047 314.131 272.172 308.249C270.993 304.547 270.809 300.524 270.173 296.639C271.705 296.287 271.705 297.687 272.126 298.459C274.966 304.042 277.898 309.572 281.313 314.85C284.597 319.974 288.387 324.625 293.777 327.768C295.844 328.977 298.209 329.084 300.338 329.963C301.578 334.828 302.849 339.684 304.043 344.564C304.388 345.956 304.503 347.402 304.717 348.824C294.848 343.685 286.289 337.053 280.218 327.523C279.797 326.858 279.307 326.223 278.848 325.565Z" fill="#7D7D91"/>
<path d="M244.488 188.634C247.764 190.562 251.171 190.264 254.946 188.979L253.69 195.625C257.357 197.92 262.112 195.709 262.471 191.679C262.644 190.558 262.583 189.415 262.295 188.319C262.007 187.223 261.496 186.198 260.795 185.307C259.953 184.282 259.493 182.944 258.712 181.483C264.072 180.841 265.878 177.789 265.044 172.588C269.431 174.118 272.929 177.682 277.508 175.173C279.422 177.269 281.129 179.418 281.389 182.347C277.921 184.191 275.111 183.976 270.671 181.537C269.653 184.321 269.653 184.321 265.373 186.217C265.373 186.286 265.335 186.363 265.373 186.416C269.048 195.702 265.274 200.314 259.47 204.834C258.638 205.446 257.672 205.853 256.651 206.019C255.631 206.185 254.586 206.106 253.602 205.79C252.618 205.473 251.723 204.927 250.992 204.197C250.26 203.467 249.713 202.574 249.395 201.591C249.232 200.675 249.409 199.732 249.893 198.937C250.618 197.874 251.438 196.878 252.343 195.962C248.032 195.143 244.779 193.055 243.454 188.696C243.587 188.558 243.768 188.475 243.959 188.464C244.15 188.453 244.339 188.513 244.488 188.634Z" fill="#218946"/>
<path d="M294.151 183.365C291.908 185.147 289.703 186.983 287.414 188.719C284.122 191.182 283.249 193.476 284.574 196.834C287.521 196.681 290.002 193.836 293.761 195.304C293.332 196.926 292.888 198.578 292.375 200.536L299.457 201.775L294.534 209.347L300.958 209.699C302.925 214.464 304.74 218.877 306.677 223.558C309.624 221.263 312.664 220.292 316.086 220.743L318.383 224.659C314.378 224.659 310.727 225.699 307.84 228.659C307.075 229.172 306.677 228.606 306.171 228.177C303.492 225.883 301.578 222.938 299.381 220.261C295.851 215.993 292.169 211.848 289.979 206.632C289.684 206.04 289.264 205.519 288.749 205.105C288.234 204.69 287.635 204.392 286.993 204.23C283.525 203.014 281.351 200.696 280.868 196.979C280.842 196.615 280.718 196.264 280.509 195.964C280.301 195.664 280.015 195.425 279.682 195.274C278.227 192.428 279.421 190.103 281.213 187.962C282.047 186.967 283.035 186.095 283.954 185.17L287.453 183.503C288.984 183.304 290.423 183.021 291.916 182.937C292.677 182.982 293.428 183.126 294.151 183.365Z" fill="#C47832"/>
<path d="M276.597 149.856C271.858 152.151 270.02 156.228 269.369 161.253C269.124 160.61 268.849 159.983 268.604 159.333C267.585 156.273 266.261 155.21 263.03 155.792C259.799 156.373 256.791 157.864 255.543 161.39C256.768 163.968 259.179 165.979 259.371 169.352C258.597 169.19 257.81 169.098 257.02 169.077C252.771 169.421 248.507 169.697 244.288 170.285C243.24 170.438 242.336 171.662 241.364 172.389C241.275 172.498 241.164 172.587 241.038 172.649C240.912 172.712 240.774 172.747 240.633 172.752C240.493 172.757 240.353 172.732 240.223 172.679C240.092 172.625 239.975 172.545 239.879 172.442C240.805 165.245 246.669 161.513 254.494 163.417C254.18 162.27 253.889 161.276 253.621 160.274C253.297 159.289 253.316 158.225 253.675 157.253C254.033 156.281 254.71 155.458 255.596 154.92C259.907 151.86 264.125 151.822 268.933 154.858C270.824 152.189 272.929 149.803 276.597 149.856Z" fill="#42AB58"/>
<path d="M285.24 179.563C284.245 177.812 283.249 176.053 282.423 174.577C284.337 173.338 286.067 172.282 287.705 171.135C288.509 170.611 289.134 169.854 289.495 168.965C289.856 168.077 289.937 167.099 289.726 166.163C289.351 164.19 289.106 162.056 288.134 160.381C287.529 159.333 285.715 158.851 284.352 158.431C283.586 158.193 282.668 158.584 281.695 158.698C281.603 158.354 281.374 157.972 281.466 157.704C282.285 155.486 281.603 153.597 280.363 151.761C280.064 151.187 279.831 150.582 279.667 149.956C281.443 150.308 283.326 150.4 284.964 151.08C287.521 152.144 288.364 154.232 288.027 157.1C289.481 158.683 290.875 160.052 292.092 161.574C296.555 167.15 295.239 172.84 291.104 178.653C289.589 180.81 287.299 179.854 285.24 179.563Z" fill="#218946"/>
<path d="M279.659 195.227C281.19 194.462 281.297 195.655 281.366 196.543C281.68 200.26 283.747 202.363 287.123 203.725C288.638 204.347 289.889 205.478 290.661 206.922C293.011 212.038 296.785 216.1 300.215 220.391C301.256 221.699 302.121 223.152 303.278 224.368C304.694 225.898 306.34 227.205 307.871 228.613C307.396 229.913 306.914 231.221 306.432 232.521C304.724 232.521 304.487 230.609 303.247 229.99C302.466 228.584 301.427 227.339 300.185 226.318C299.265 225.489 298.579 224.435 298.194 223.259C292.751 216.895 287.277 210.562 281.91 204.138C281.182 203.266 280.991 201.92 280.624 200.765C280.442 200.078 280.304 199.38 280.21 198.677C279.996 197.514 279.827 196.374 279.659 195.227Z" fill="#AF6D2C"/>
<path d="M244.487 188.634L243.423 188.673C241.953 185.988 243.186 183.571 244.189 181.139C244.334 180.795 244.51 180.504 244.955 180.756C246.838 181.124 248.782 181.376 250.582 181.919C251.202 182.103 251.608 182.998 252.595 184.122C251.585 184.364 250.563 184.55 249.533 184.68C246.363 184.879 244.732 186.141 244.487 188.634Z" fill="#42AB58"/>
<path d="M244.947 180.756L244.181 181.139C241.395 178.913 239.19 176.396 239.94 172.442L241.425 172.389L246.463 179.02L244.947 180.756Z" fill="#218946"/>
<path d="M304.449 187.45C305.64 186.306 306.895 185.23 308.208 184.229C308.843 185.644 309.571 187.036 310.084 188.497C310.175 189.161 310.142 189.835 309.984 190.486C309.931 190.524 309.854 190.608 309.808 190.601C307.06 189.943 304.25 190.05 301.448 189.996" fill="#D4C9E2"/>
<path d="M336.351 255.635L339.038 247.91C341.197 243.229 344.267 239.137 347.368 235.068C349.439 232.385 352.229 230.343 355.414 229.179C362.305 226.555 369.249 224.59 376.751 224.827C385.173 225.102 393.533 223.924 401.932 224.062C408.822 224.154 415.674 223.94 422.542 224.016C426.706 224.054 430.848 223.488 435.021 223.443C435.786 223.443 436.621 223.175 437.318 223.802C437.004 225.989 437.011 228.299 436.299 230.357C434.508 235.512 432.387 240.552 430.404 245.654C430.067 248.904 428.552 251.773 427.288 254.671C426.798 255.796 425.719 255.819 424.639 255.574C421.944 254.954 419.165 254.648 416.516 253.861C413.025 252.756 409.297 252.626 405.737 253.486C405.177 253.666 404.572 253.65 404.022 253.44C402.82 252.583 402.054 250.992 399.911 251.184C398.379 254.488 396.466 257.761 394.72 261.127C393.79 262.789 393.082 264.566 392.615 266.412C392.15 268.115 392.188 269.915 392.722 271.597C393.271 273.348 393.222 275.231 392.584 276.951C391.166 281.324 390.281 285.851 389.95 290.436C389.085 303.438 383.06 313.419 371.04 319.14C366.624 321.356 361.673 322.283 356.754 321.817C354.342 321.571 352.021 320.77 349.971 319.477C343.486 315.384 338.429 309.386 335.494 302.306C332.431 295.262 331.574 287.812 331.352 280.248C331.306 278.496 331.459 276.714 330.364 275.177C329.974 273.647 330.571 272.316 331.076 270.993C331.652 269.517 332.113 267.998 332.454 266.45C333.656 263.574 334.468 260.561 335.478 257.616C335.7 256.882 335.708 256.117 336.351 255.635Z" fill="#49495E"/>
<path d="M330.479 275.078C330.954 276.172 331.827 277.265 331.827 278.367C331.772 284.989 332.667 291.585 334.483 297.955C335.97 303.011 338.52 307.691 341.963 311.684C344.972 315.171 348.325 318.269 352.628 320.097C356.701 321.841 360.942 321.627 365.076 320.556C371.328 318.952 376.969 315.547 381.299 310.766C385.035 306.781 387.011 302.123 388.228 296.899C388.949 293.273 389.41 289.6 389.606 285.908C389.882 282.703 391.306 279.613 392.056 276.439C392.377 275.063 392.745 273.418 392.278 272.202C391.804 271.014 391.579 269.741 391.616 268.463C391.653 267.184 391.951 265.927 392.492 264.768C394.728 259.819 397.247 254.993 399.735 249.93C401.61 250.633 403.371 251.054 403.968 253.134C403.846 253.67 403.41 253.853 402.966 254.037C402.705 254.152 402.445 254.259 402.2 254.389C401.865 254.593 401.555 254.834 401.274 255.108C400.622 255.698 400.177 256.482 400.006 257.345C399.835 258.207 399.947 259.102 400.324 259.896C401.227 262.365 401.954 264.896 402.499 267.468C402.769 268.531 402.759 269.646 402.471 270.705C402.183 271.764 401.625 272.73 400.853 273.51C400.401 273.99 399.984 274.501 399.605 275.04C398.227 277.135 398.265 278.627 399.658 280.692C400.778 282.45 402.24 283.966 403.957 285.149C405.675 286.331 407.613 287.157 409.657 287.576C410.836 287.828 412.153 287.828 413.117 288.753C411.969 291.951 410.818 295.15 409.664 298.352C407.919 302.498 406.15 306.643 404.443 310.804C403.892 312.15 403.494 313.55 403.027 314.927C402.07 317.083 401.128 319.248 400.156 321.397C399.857 322.032 399.459 322.629 399.115 323.241C396.427 327.44 391.887 327.447 387.707 328.22L333.159 338.277C332.733 338.378 332.314 338.503 331.903 338.652C330.372 338.759 330.188 337.451 329.759 336.549C327.187 331.241 325.863 325.55 324.844 319.783C323.964 314.82 323.275 309.84 322.356 304.861C322.017 303.064 321.983 301.223 322.257 299.415C324.454 291.767 326.942 284.264 329.292 276.684C329.492 276.042 329.591 275.239 330.479 275.078Z" fill="#444457"/>
<path d="M402.644 253.7L403.968 253.149C411.624 250.595 418.714 254.144 426.408 255.222C427.71 252.094 429.049 248.851 430.397 245.608C432.456 244.843 434.554 245.057 435.549 247.015C436.085 248.063 435.404 249.792 435.098 251.176C434.983 251.658 434.332 252.01 433.949 252.446C433.26 253.272 432.594 254.113 432.234 254.564L433.329 260.194C430.604 265.999 425.053 267.59 419.77 269.005C419.196 270.29 419.77 271.047 420.092 271.842C421.279 274.672 420.781 277.196 418.431 279.147C417.315 280.102 416.02 280.826 414.622 281.275C413.223 281.724 411.748 281.89 410.285 281.762C409.256 281.661 408.275 281.283 407.444 280.669C406.242 279.843 405.285 278.756 405.53 277.227C405.775 275.697 407.153 275.284 408.478 275.001C410.124 274.649 411.755 274.236 413.385 273.816C414.151 273.617 414.978 273.479 415.406 272.714C415.72 271.651 415.047 271.024 414.457 270.381C413.054 268.897 411.454 267.61 409.703 266.557C406.747 264.766 404.248 262.316 402.399 259.398C401.511 257.968 400.301 256.461 401.35 254.557L402.231 254.082C402.341 253.928 402.481 253.798 402.644 253.7Z" fill="#86869E"/>
<path d="M401.35 254.519C401.61 259.054 404.711 261.808 407.804 264.462C410.216 266.55 412.903 268.324 415.292 270.435C417.106 272.049 416.601 273.586 414.25 274.183C412.275 274.68 410.262 275.032 408.302 275.567C407.467 275.863 406.662 276.237 405.898 276.684C405.839 277.732 406.18 278.764 406.852 279.571C407.523 280.379 408.477 280.902 409.519 281.036C411.173 281.397 412.893 281.316 414.506 280.802C416.118 280.287 417.567 279.358 418.706 278.107C421.332 275.399 420.161 272.607 418.476 269.907L419.288 268.355C420.199 268.133 421.041 267.949 421.883 267.735C426.148 266.641 430.083 265.073 432.257 260.852C432.418 260.546 432.962 260.431 433.329 260.224C433.627 263.23 432.81 266.24 431.032 268.684C429.394 270.901 428.306 273.475 427.855 276.194C426.324 284.906 422.036 288.432 413.102 288.807C407.582 288.225 402.805 286.359 399.505 281.533C397.461 278.542 397.208 276.485 399.781 273.969C402.139 271.674 402.567 269.158 401.626 266.205C400.86 263.857 400.01 261.532 399.329 259.161C398.824 257.157 399.582 255.582 401.35 254.519Z" fill="#7D7D91"/>
<path d="M437.31 223.772C428.643 224.062 419.985 224.368 411.28 224.628C408.753 224.705 406.227 224.582 403.708 224.628C392.99 224.896 382.271 224.827 371.553 225.623C364.15 226.173 356.815 228.055 350.706 232.644C348.447 234.35 346.748 236.881 345.033 239.206C343.188 241.73 341.634 244.461 339.919 247.084C339.642 247.382 339.325 247.639 338.977 247.849C340.738 240.904 342.56 233.99 347.613 228.514C347.561 228.299 347.566 228.074 347.626 227.861C347.687 227.648 347.801 227.454 347.957 227.298C350.844 224.445 353.845 221.944 358.255 221.684C365.497 221.24 372.732 221.332 379.975 221.294C381.59 221.294 383.152 220.781 384.775 220.873C387.255 220.965 389.782 220.315 392.178 221.416L403.976 221.164C404.558 221.118 405.14 221.164 405.721 221.164C413.737 220.896 421.761 220.559 429.784 220.399C431.602 220.387 433.406 220.711 435.105 221.355C436.024 221.699 436.59 222.923 437.31 223.772Z" fill="#5D5D70"/>
<path d="M381.644 208.803C379.27 205.361 376.905 201.92 374.516 198.493C373.934 197.659 373.268 196.895 372.64 196.091L374.983 193.889C380.394 199.501 384.767 206.026 387.899 213.163C386.283 214.44 384.836 213.484 383.405 212.78C382.004 211.801 381.146 210.601 381.644 208.803Z" fill="#8787A0"/>
<path d="M383.167 212.314L387.868 213.163C389.323 215.942 390.78 218.714 392.24 221.477L384.767 221.615C383.772 218.594 382.578 215.58 383.167 212.314Z" fill="#7D7D91"/>
<path d="M356.9 34.609C352.528 41.6991 348.134 48.774 343.785 55.8718C338.977 63.7191 333.955 71.4517 329.484 79.4827C325.388 86.8329 323.405 94.9326 322.67 103.323C322.272 107.958 321.79 112.593 321.338 117.381C320.159 118.635 320.159 118.635 318.942 117.381C318.498 115.331 317.893 113.373 317.663 111.377C316.522 101.289 316.239 91.2002 320.182 81.5937C323.599 73.1795 328.331 65.36 334.2 58.4264C338.135 53.7531 341.963 48.9652 345.875 44.2537C349.091 40.9878 352.329 37.7448 355.506 34.4407C356.211 33.6835 356.586 33.4311 356.9 34.609Z" fill="#7064AC"/>
<path d="M361.21 186.003C360.322 186.003 357.083 182.179 355.123 180.458C354.554 179.903 353.88 179.466 353.141 179.173C350.553 178.347 350.43 178.125 351.77 175.923L370.29 174.867C370.611 176.925 362.833 186.003 361.21 186.003Z" fill="#322750"/>
<path d="M342.024 168.641C343.333 164.993 344.865 161.398 345.852 157.665C346.281 156.036 345.73 154.078 345.324 152.311C345.171 151.654 344.175 151.187 343.563 150.636C346.756 148.579 349.029 149.657 349.535 153.344C350.239 158.522 348.662 163.004 345.423 166.905C344.673 167.822 343.173 168.09 342.024 168.641Z" fill="#5D5D70"/>
<path d="M342.024 168.642C341.178 168.636 340.362 168.323 339.73 167.759C339.099 167.196 338.695 166.422 338.594 165.582C337.767 160.924 338.411 156.48 341.205 152.58C341.764 151.815 342.736 151.341 343.555 150.736C344.972 150.461 345.592 151.364 345.898 152.473C346.408 153.922 346.624 155.459 346.533 156.993C346.146 160.55 345.135 164.012 343.548 167.219C343.234 167.865 342.691 168.372 342.024 168.642Z" fill="#322750"/>
<path d="M336.849 185.552C338.502 186.004 334.33 187.969 332.936 186.317C331.561 184.484 330.283 182.579 329.109 180.611C327.371 177.491 330.586 176.894 331.214 177.85C333.174 180.558 332.699 183.105 336.849 185.552Z" fill="#322750"/>
<path d="M369.67 167.953C369.976 165.964 370.435 163.991 370.535 161.995C370.612 160.603 370.497 159.012 368.606 158.599C368.866 157.612 369.142 156.052 370.022 156.052C373.138 156.495 372.503 165.046 369.67 167.953Z" fill="#5D5D70"/>
<path d="M369.67 167.953C368.192 168.718 366.983 168.312 367.12 166.721C367.476 163.99 367.972 161.279 368.606 158.599C370.359 158.277 370.757 159.57 371.002 160.786C371.416 163.257 370.944 165.795 369.67 167.953Z" fill="#322750"/>
<path d="M322.662 299.232C323.29 304.219 323.841 309.221 324.584 314.192C325.725 321.841 327.011 329.489 330.41 336.595C330.847 337.328 331.344 338.024 331.895 338.675C332.263 339.692 332.539 340.748 332.998 341.735C334.95 345.88 336.964 349.995 338.947 354.125C338.48 354.538 337.829 354.89 337.561 355.372C335.662 358.997 332.539 360.932 328.741 362.011C328.037 361.078 328.466 360.068 328.527 359.066C328.795 354.4 326.444 350.897 323.39 347.731C323.191 347.524 322.854 347.509 322.295 347.563C320.611 348.817 320.611 350.943 320.235 352.917C320.036 353.972 320.235 355.135 319.278 355.93C318.375 354.003 317.035 352.159 316.637 350.125C314.593 339.853 314.562 329.413 314.846 318.996C314.968 314.406 315.695 309.894 316.009 305.328C316.012 303.624 315.897 301.922 315.665 300.234C312.602 300.341 310.198 300.685 308.415 302.88C308.284 303.041 308.216 303.27 308.085 303.439C304.257 308.624 300.583 308.54 295.882 303.439C292.911 300.203 290.684 296.272 288.119 292.662C287.621 291.958 287.085 291.285 286.434 290.421L285.309 291.798C283.265 288.998 283.058 285.855 283.586 282.573C284.008 280.026 284.291 277.441 284.896 274.925C285.807 271.101 288.884 269.028 291.786 266.756C294.289 264.783 296.54 262.481 298.875 260.301C299.641 259.605 300.276 258.825 300.973 258.083C303.232 255.943 306.015 254.434 309.042 253.708C312.534 251.957 316.936 253.257 317.747 256.507C317.997 257.344 318.346 258.148 318.788 258.901C320.267 262.569 321.046 266.481 321.085 270.435C321.414 279.246 322.57 288.027 322.731 296.83C322.747 297.633 322.678 298.436 322.662 299.232Z" fill="#C9C8E1"/>
<path d="M400.355 78.794C395.57 84.5381 389.192 88.2093 382.746 91.5976C374.661 95.8425 366.094 99.1696 358.056 103.499C350.936 107.323 344.275 111.996 337.385 116.256C335.853 117.189 334.23 117.916 332.653 118.75L332.041 118.161C332.806 116.555 333.266 114.719 334.338 113.327C338.317 108.261 343.089 103.87 348.47 100.325C349.006 99.9574 349.504 99.5597 350.002 99.1467C365.144 91.6083 380.741 85.0179 396.703 79.4136C397.66 79.077 398.578 78.6105 399.551 78.3045C399.75 78.2433 400.087 78.6181 400.355 78.794Z" fill="#7064AC"/>
<path d="M283.609 282.573L285.309 291.797C286.725 296.218 287.943 300.715 289.642 305.022C291.108 308.436 292.783 311.756 294.657 314.965C297.308 319.649 299.207 324.721 300.284 329.994C295.951 330.246 292.544 328.135 289.451 325.512C283.908 320.8 280.218 314.651 276.742 308.395C274.79 304.884 273.021 301.274 271.145 297.725C270.861 297.332 270.526 296.977 270.15 296.669C270.15 292.85 270.15 289.026 270.15 285.197C273.917 285.564 277.416 284.432 280.914 283.269C281.787 282.971 282.706 282.803 283.609 282.573Z" fill="#86869E"/>
<path d="M319.278 355.891C319.692 353.597 319.967 351.302 320.587 349.069C320.733 348.571 320.982 348.109 321.318 347.713C321.655 347.318 322.071 346.998 322.54 346.774C323.122 346.598 324.431 347.539 324.837 348.304C326.454 351.024 327.83 353.88 328.948 356.84C329.468 358.369 328.848 360.266 328.741 361.995C327.753 363.609 326.965 365.551 324.507 365.054C321.659 364.473 320.58 362.155 319.768 359.784C319.467 358.508 319.303 357.203 319.278 355.891Z" fill="#7064AC"/>
<path d="M471.157 281.189L467.398 281.664C467.39 280.731 467.524 279.802 467.796 278.91C469.243 275.851 470.728 272.745 472.451 269.808C473.218 268.747 474.239 267.895 475.421 267.33C476.391 266.941 477.408 266.684 478.445 266.565C478.652 267.72 479.211 268.929 479.012 270.023C478.399 273.602 476.363 276.417 473.653 278.811C472.826 279.591 471.999 280.402 471.157 281.189Z" fill="#7064AC"/>
<path d="M435.978 329.298C436.92 331.753 435.381 333.673 434.386 335.585C433.153 337.964 430.948 339.41 428.054 340.626L426.806 337.429C427.043 332.748 431.614 328.694 435.978 329.298Z" fill="#7064AC"/>
<path d="M471.739 290.826C471.471 290.153 471.203 289.488 470.973 288.822C472.504 286.711 473.936 284.547 475.567 282.527C475.845 282.285 476.176 282.111 476.534 282.019C476.891 281.928 477.265 281.921 477.626 282C478.063 282.13 478.537 283.124 478.514 283.705C478.361 286.367 474.472 290.367 471.739 290.826Z" fill="#7064AC"/>
<path d="M318.298 258.947C318 258.634 317.743 258.285 317.533 257.907C315.963 253.907 315.297 253.456 310.987 253.586C310.329 253.586 309.678 253.662 309.027 253.7C310.497 252.171 311.929 250.588 313.437 249.111C314.256 248.293 315.366 247.727 316.048 246.817C317.732 244.591 319.876 244.614 322.295 245.058C324.21 245.433 326.154 245.645 328.106 245.692C331.107 245.738 333.067 243.627 333.266 240.637C333.426 239.814 333.701 239.019 334.085 238.273C334.506 240.905 334.851 243.559 335.386 246.151C335.646 247.207 335.684 248.306 335.498 249.377C335.312 250.448 334.907 251.47 334.307 252.377C334.008 253.57 333.465 254.672 333.136 255.873C332.817 257.11 332.181 258.242 331.289 259.157C330.397 260.072 329.281 260.738 328.052 261.089C324.484 261.854 321.422 260.278 318.298 258.947Z" fill="#7D7D91"/>
<path d="M298.14 223.229L303.5 229.714C303.592 229.916 303.616 230.142 303.57 230.358C303.523 230.575 303.407 230.77 303.239 230.915C300.678 233.907 298.3 237.052 296.119 240.331C295.944 240.566 295.705 240.747 295.43 240.851H279.184C280.716 238.877 281.841 237.325 283.104 235.933C287.08 231.552 291.692 227.793 296.785 224.781C297.307 224.329 297.764 223.807 298.14 223.229Z" fill="#7D7D91"/>
<path d="M295.399 240.874C298.084 237.156 300.774 233.444 303.469 229.737L306.386 232.521C306.263 233.745 306.087 234.969 306.041 236.193C305.926 238.778 304.962 240.231 302.428 240.598C300.092 240.82 297.745 240.912 295.399 240.874Z" fill="#C5BADA"/>
<path d="M383.167 212.315C383.703 215.41 384.236 218.51 384.767 221.615C376.614 221.875 368.452 222.38 360.268 222.303C355.675 222.265 352.321 224.17 349.182 227.038C348.647 227.527 348.149 228.063 347.651 228.568C344.26 227.803 340.853 227.13 337.484 226.273C335.187 225.707 334.215 223.688 333.296 221.799C331.359 217.829 329.545 213.806 327.685 209.798L328.182 209.538C331.359 210.846 334.468 212.36 337.729 213.408C345.286 215.833 353.041 215.772 360.881 215.022C367.797 214.41 374.501 212.324 380.541 208.903C380.888 208.786 381.254 208.731 381.621 208.743L383.167 212.315Z" fill="#D4C9E2"/>
<path d="M315.244 218.639C313.794 215.381 312.35 212.118 310.91 208.849C312.488 203.733 311.676 198.677 310.482 193.637C310.326 193.266 310.277 192.86 310.342 192.463C310.407 192.067 310.583 191.697 310.849 191.396C312.572 194.126 314.677 196.696 315.902 199.641C317.212 203.02 318.089 206.551 318.513 210.15C318.934 213.331 317.181 216.093 315.244 218.639Z" fill="#7D7D91"/>
<path d="M310.849 191.357C311.355 194.416 311.845 197.476 312.38 200.497C312.922 203.355 312.399 206.311 310.911 208.811L307.083 202.815C307.167 199.029 304.862 195.105 302.068 191.38C301.808 190.944 301.599 190.48 301.448 189.996C304.365 188.825 307.197 189.231 309.976 190.485L310.849 191.357Z" fill="#86869E"/>
<path d="M328.397 260.561C331.015 259.46 332.355 257.387 332.99 254.71C333.318 253.869 333.758 253.077 334.299 252.354C334.973 253.448 335.647 254.534 336.321 255.636L332.898 266.382C332.783 266.46 332.645 266.497 332.506 266.488C332.367 266.478 332.236 266.422 332.133 266.328C330.625 264.577 328.841 263.001 328.397 260.561Z" fill="#AF6D2C"/>
<path d="M328.397 260.561L332.929 266.381C332.128 269.278 331.321 272.176 330.51 275.078C328.06 282.726 325.61 290.375 323.16 298.023C323.03 298.428 322.831 298.788 322.662 299.193C322.307 297.664 322.034 296.117 321.843 294.558C321.215 285.724 320.764 276.883 320.029 268.064C319.776 265.005 318.896 261.945 318.298 258.886C319.064 258.978 319.99 258.832 320.595 259.192C323.068 260.706 325.694 260.775 328.397 260.561Z" fill="#C5BADA"/>
<path d="M376.537 285.281C374.064 285.381 371.224 283.751 370.359 281.495C369.794 280.253 369.591 278.877 369.771 277.525C369.951 276.173 370.507 274.898 371.377 273.847C371.944 273.158 373.398 273.197 374.44 272.906C374.562 273.824 374.922 274.795 374.753 275.652C374.44 277.181 374.371 278.803 375.764 279.606C376.943 280.257 378.313 280.479 379.638 280.233C380.945 279.974 382.153 279.351 383.121 278.436C384.09 277.522 384.78 276.352 385.112 275.063C385.434 273.816 385.303 271.866 384.53 271.086C383.757 270.305 381.82 270.076 380.404 270.068C379.24 270.068 377.67 271.162 377.341 269.395C377.18 268.5 378.26 266.864 379.194 266.397C381.942 265.028 384.944 264.867 387.493 266.887C390.042 268.906 390.073 271.606 389.376 274.535C388.121 279.828 381.253 285.35 376.537 285.281Z" fill="#FEFEFE"/>
<path d="M402.644 253.7L402.23 254.044L402.644 253.7Z" fill="#7D7D91"/>
<path d="M315.933 277.602C315.933 279.131 314.869 281.158 313.598 282.955C312.12 285.013 309.846 285.028 308.476 282.887C306.951 280.521 305.91 277.878 305.414 275.108C304.786 271.177 304.839 267.077 306.899 263.414C308.392 260.752 310.497 260.691 312.166 263.199C314.769 267.215 315.167 271.888 315.933 277.602Z" fill="#7064AC"/>
<path d="M296.265 291.056C291.893 289.962 290.454 286.811 289.374 283.537C288.861 281.883 288.723 280.135 288.968 278.42C289.29 276.225 290.913 275.606 292.881 276.554C295.943 278.015 299.005 284.906 298.002 288.103C297.673 289.144 297.275 290.872 296.265 291.056Z" fill="#7064AC"/>
<path d="M374.13 270.325C374.453 269.526 374.191 268.667 373.544 268.406C372.897 268.145 372.111 268.581 371.787 269.379C371.464 270.178 371.727 271.038 372.374 271.299C373.021 271.56 373.807 271.124 374.13 270.325Z" fill="white"/>
<path d="M376.736 266.748C376.484 267.368 375.971 267.75 375.603 267.597C375.335 267.443 375.124 267.206 375.002 266.922C374.881 266.638 374.855 266.322 374.929 266.022C374.955 265.876 375.013 265.738 375.099 265.617C375.185 265.497 375.297 265.397 375.427 265.325C375.556 265.253 375.7 265.211 375.848 265.202C375.996 265.193 376.144 265.217 376.281 265.272C376.419 265.327 376.542 265.413 376.642 265.522C376.742 265.63 376.817 265.76 376.861 265.902C376.904 266.043 376.916 266.193 376.894 266.339C376.873 266.485 376.819 266.625 376.736 266.748Z" fill="white"/>
<path d="M373.269 265.816C373.427 265.424 373.298 265.002 372.981 264.874C372.663 264.746 372.277 264.96 372.119 265.351C371.961 265.743 372.09 266.164 372.407 266.293C372.725 266.421 373.111 266.207 373.269 265.816Z" fill="white"/>
<path d="M4.22 60.04C3.94 59.6 3.68 59 3.44 58.24C3.2 57.48 3.08 56.68 3.08 55.84C3.08 54.28 3.42 53.16 4.1 52.48C4.82 51.8 5.74 51.46 6.86 51.46H33.02C33.3 51.9 33.56 52.5 33.8 53.26C34.04 54.02 34.16 54.82 34.16 55.66C34.16 57.22 33.8 58.34 33.08 59.02C32.4 59.7 31.5 60.04 30.38 60.04H23.72V87.76C23.28 87.88 22.58 88 21.62 88.12C20.7 88.24 19.78 88.3 18.86 88.3C17.94 88.3 17.12 88.22 16.4 88.06C15.72 87.94 15.14 87.7 14.66 87.34C14.18 86.98 13.82 86.48 13.58 85.84C13.34 85.2 13.22 84.36 13.22 83.32V60.04H4.22ZM49.1234 81.52C49.8034 81.52 50.5434 81.46 51.3434 81.34C52.1834 81.18 52.8034 80.98 53.2034 80.74V75.94L48.8834 76.3C47.7634 76.38 46.8434 76.62 46.1234 77.02C45.4034 77.42 45.0434 78.02 45.0434 78.82C45.0434 79.62 45.3434 80.28 45.9434 80.8C46.5834 81.28 47.6434 81.52 49.1234 81.52ZM48.6434 57.94C50.8034 57.94 52.7634 58.16 54.5234 58.6C56.3234 59.04 57.8434 59.72 59.0834 60.64C60.3634 61.52 61.3434 62.66 62.0234 64.06C62.7034 65.42 63.0434 67.04 63.0434 68.92V82.36C63.0434 83.4 62.7434 84.26 62.1434 84.94C61.5834 85.58 60.9034 86.14 60.1034 86.62C57.5034 88.18 53.8434 88.96 49.1234 88.96C47.0034 88.96 45.0834 88.76 43.3634 88.36C41.6834 87.96 40.2234 87.36 38.9834 86.56C37.7834 85.76 36.8434 84.74 36.1634 83.5C35.5234 82.26 35.2034 80.82 35.2034 79.18C35.2034 76.42 36.0234 74.3 37.6634 72.82C39.3034 71.34 41.8434 70.42 45.2834 70.06L53.1434 69.22V68.8C53.1434 67.64 52.6234 66.82 51.5834 66.34C50.5834 65.82 49.1234 65.56 47.2034 65.56C45.6834 65.56 44.2034 65.72 42.7634 66.04C41.3234 66.36 40.0234 66.76 38.8634 67.24C38.3434 66.88 37.9034 66.34 37.5434 65.62C37.1834 64.86 37.0034 64.08 37.0034 63.28C37.0034 62.24 37.2434 61.42 37.7234 60.82C38.2434 60.18 39.0234 59.64 40.0634 59.2C41.2234 58.76 42.5834 58.44 44.1434 58.24C45.7434 58.04 47.2434 57.94 48.6434 57.94ZM97.7802 82.72C97.5802 84.6 97.0202 86.04 96.1002 87.04C95.2202 88.04 93.9202 88.54 92.2002 88.54C90.9202 88.54 89.7802 88.24 88.7802 87.64C87.7802 87 86.7002 85.94 85.5402 84.46L79.6002 77.02V87.94C79.1602 88.02 78.5002 88.12 77.6202 88.24C76.7802 88.4 75.9202 88.48 75.0402 88.48C74.1602 88.48 73.3602 88.42 72.6402 88.3C71.9602 88.18 71.3802 87.94 70.9002 87.58C70.4202 87.22 70.0402 86.74 69.7602 86.14C69.5202 85.5 69.4002 84.68 69.4002 83.68V48.94C69.8402 48.82 70.4802 48.7 71.3202 48.58C72.2002 48.42 73.0802 48.34 73.9602 48.34C74.8402 48.34 75.6202 48.4 76.3002 48.52C77.0202 48.64 77.6202 48.88 78.1002 49.24C78.5802 49.6 78.9402 50.1 79.1802 50.74C79.4602 51.34 79.6002 52.14 79.6002 53.14V68.98L89.9202 58.42C92.0002 58.42 93.6602 58.88 94.9002 59.8C96.1802 60.72 96.8202 61.88 96.8202 63.28C96.8202 63.88 96.7202 64.44 96.5202 64.96C96.3202 65.44 96.0002 65.94 95.5602 66.46C95.1602 66.98 94.6202 67.54 93.9402 68.14C93.3002 68.7 92.5402 69.36 91.6602 70.12L88.1802 73.12L97.7802 82.72ZM116.634 88.96C114.274 88.96 112.074 88.64 110.034 88C108.034 87.32 106.274 86.32 104.754 85C103.274 83.68 102.094 82.02 101.214 80.02C100.374 78.02 99.9538 75.68 99.9538 73C99.9538 70.36 100.374 68.1 101.214 66.22C102.094 64.3 103.234 62.74 104.634 61.54C106.034 60.3 107.634 59.4 109.434 58.84C111.234 58.24 113.074 57.94 114.954 57.94C117.074 57.94 118.994 58.26 120.714 58.9C122.474 59.54 123.974 60.42 125.214 61.54C126.494 62.66 127.474 64 128.154 65.56C128.874 67.12 129.234 68.82 129.234 70.66C129.234 72.02 128.854 73.06 128.094 73.78C127.334 74.5 126.274 74.96 124.914 75.16L110.094 77.38C110.534 78.7 111.434 79.7 112.794 80.38C114.154 81.02 115.714 81.34 117.474 81.34C119.114 81.34 120.654 81.14 122.094 80.74C123.574 80.3 124.774 79.8 125.694 79.24C126.334 79.64 126.874 80.2 127.314 80.92C127.754 81.64 127.974 82.4 127.974 83.2C127.974 85 127.134 86.34 125.454 87.22C124.174 87.9 122.734 88.36 121.134 88.6C119.534 88.84 118.034 88.96 116.634 88.96ZM114.954 65.38C113.994 65.38 113.154 65.54 112.434 65.86C111.754 66.18 111.194 66.6 110.754 67.12C110.314 67.6 109.974 68.16 109.734 68.8C109.534 69.4 109.414 70.02 109.374 70.66L119.634 68.98C119.514 68.18 119.074 67.38 118.314 66.58C117.554 65.78 116.434 65.38 114.954 65.38ZM156.355 77.98C156.355 79.02 156.675 79.76 157.315 80.2C157.995 80.64 158.935 80.86 160.135 80.86C160.735 80.86 161.355 80.82 161.995 80.74C162.635 80.62 163.195 80.48 163.675 80.32C164.035 80.76 164.335 81.26 164.575 81.82C164.855 82.34 164.995 82.98 164.995 83.74C164.995 85.26 164.415 86.5 163.255 87.46C162.135 88.42 160.135 88.9 157.255 88.9C153.735 88.9 151.015 88.1 149.095 86.5C147.215 84.9 146.275 82.3 146.275 78.7V53.02C146.715 52.9 147.335 52.78 148.135 52.66C148.975 52.5 149.855 52.42 150.775 52.42C152.535 52.42 153.895 52.74 154.855 53.38C155.855 53.98 156.355 55.28 156.355 57.28V61.12H164.215C164.455 61.56 164.675 62.12 164.875 62.8C165.115 63.44 165.235 64.16 165.235 64.96C165.235 66.36 164.915 67.38 164.275 68.02C163.675 68.62 162.855 68.92 161.815 68.92H156.355V77.98ZM198.979 87.94C198.579 88.06 197.939 88.18 197.059 88.3C196.219 88.42 195.339 88.48 194.419 88.48C193.539 88.48 192.739 88.42 192.019 88.3C191.339 88.18 190.759 87.94 190.279 87.58C189.799 87.22 189.419 86.74 189.139 86.14C188.899 85.5 188.779 84.68 188.779 83.68V70.36C188.779 68.72 188.359 67.58 187.519 66.94C186.719 66.26 185.719 65.92 184.519 65.92C183.719 65.92 182.959 66.02 182.239 66.22C181.519 66.42 180.939 66.66 180.499 66.94V87.94C180.099 88.06 179.459 88.18 178.579 88.3C177.739 88.42 176.859 88.48 175.939 88.48C175.059 88.48 174.259 88.42 173.539 88.3C172.859 88.18 172.279 87.94 171.799 87.58C171.319 87.22 170.939 86.74 170.659 86.14C170.419 85.5 170.299 84.68 170.299 83.68V48.88C170.739 48.8 171.379 48.7 172.219 48.58C173.099 48.42 173.979 48.34 174.859 48.34C175.739 48.34 176.519 48.4 177.199 48.52C177.919 48.64 178.519 48.88 178.999 49.24C179.479 49.6 179.839 50.1 180.079 50.74C180.359 51.34 180.499 52.14 180.499 53.14V59.02C181.019 58.82 181.799 58.6 182.839 58.36C183.919 58.08 185.099 57.94 186.379 57.94C190.339 57.94 193.419 58.94 195.619 60.94C197.859 62.9 198.979 65.84 198.979 69.76V87.94ZM220.696 88.96C218.336 88.96 216.136 88.64 214.096 88C212.096 87.32 210.336 86.32 208.816 85C207.336 83.68 206.156 82.02 205.276 80.02C204.436 78.02 204.016 75.68 204.016 73C204.016 70.36 204.436 68.1 205.276 66.22C206.156 64.3 207.296 62.74 208.696 61.54C210.096 60.3 211.696 59.4 213.496 58.84C215.296 58.24 217.136 57.94 219.016 57.94C221.136 57.94 223.056 58.26 224.776 58.9C226.536 59.54 228.036 60.42 229.276 61.54C230.556 62.66 231.536 64 232.216 65.56C232.936 67.12 233.296 68.82 233.296 70.66C233.296 72.02 232.916 73.06 232.156 73.78C231.396 74.5 230.336 74.96 228.976 75.16L214.156 77.38C214.596 78.7 215.496 79.7 216.856 80.38C218.216 81.02 219.776 81.34 221.536 81.34C223.176 81.34 224.716 81.14 226.156 80.74C227.636 80.3 228.836 79.8 229.756 79.24C230.396 79.64 230.936 80.2 231.376 80.92C231.816 81.64 232.036 82.4 232.036 83.2C232.036 85 231.196 86.34 229.516 87.22C228.236 87.9 226.796 88.36 225.196 88.6C223.596 88.84 222.096 88.96 220.696 88.96ZM219.016 65.38C218.056 65.38 217.216 65.54 216.496 65.86C215.816 66.18 215.256 66.6 214.816 67.12C214.376 67.6 214.036 68.16 213.796 68.8C213.596 69.4 213.476 70.02 213.436 70.66L223.696 68.98C223.576 68.18 223.136 67.38 222.376 66.58C221.616 65.78 220.496 65.38 219.016 65.38Z" fill="#5F45BA"/>
<path fill-rule="evenodd" clip-rule="evenodd" d="M158.231 105.675C158.213 104.797 158.371 103.925 158.698 103.11C159.025 102.295 159.514 101.555 160.135 100.933C161.399 99.6442 163.071 99 165.15 99C167.23 99 168.901 99.6442 170.164 100.933C171.38 102.214 172.058 103.911 172.058 105.675C172.058 107.439 171.38 109.136 170.164 110.417C168.9 111.706 167.229 112.35 165.15 112.35C163.073 112.35 161.4 111.706 160.135 110.417C159.514 109.795 159.025 109.055 158.698 108.24C158.371 107.425 158.213 106.553 158.231 105.675ZM171.452 151.612C170.908 151.708 170.101 151.844 169.031 152.018C167.962 152.192 166.882 152.279 165.799 152.279C164.817 152.287 163.835 152.212 162.864 152.057C162.078 151.937 161.331 151.632 160.685 151.168C160.071 150.697 159.596 150.069 159.311 149.351C158.989 148.587 158.827 147.585 158.827 146.35V116.196C159.369 116.098 160.177 115.962 161.249 115.788C162.317 115.615 163.398 115.529 164.48 115.529C165.463 115.521 166.445 115.596 167.415 115.751C168.207 115.868 168.958 116.173 169.607 116.64C170.22 117.111 170.694 117.738 170.98 118.455C171.303 119.223 171.465 120.223 171.465 121.455L171.452 151.612ZM148.391 152.057C149.18 151.961 149.962 151.812 150.731 151.612L150.738 129.159C150.741 124.319 149.369 120.677 146.621 118.232C143.873 115.788 140.048 114.565 135.146 114.565C133.682 114.552 132.223 114.714 130.799 115.048C129.805 115.276 128.826 115.56 127.866 115.899V108.639C127.866 107.404 127.704 106.404 127.381 105.639C127.094 104.921 126.619 104.294 126.006 103.822C125.36 103.358 124.613 103.054 123.826 102.933C122.855 102.777 121.873 102.703 120.891 102.711C119.809 102.71 118.728 102.797 117.66 102.972C116.587 103.138 115.783 103.281 115.238 103.38V146.35C115.238 147.585 115.398 148.587 115.722 149.351C116.007 150.069 116.481 150.697 117.095 151.168C117.741 151.632 118.488 151.937 119.275 152.057C120.245 152.212 121.226 152.287 122.208 152.279C123.314 152.28 124.419 152.206 125.514 152.057C126.303 151.961 127.085 151.812 127.854 151.612V125.671C128.524 125.272 129.25 124.973 130.007 124.782C130.925 124.535 131.872 124.414 132.823 124.422C134.179 124.378 135.507 124.811 136.575 125.644C137.589 126.459 138.096 127.879 138.096 129.903V146.35C138.096 147.585 138.258 148.587 138.58 149.351C138.869 150.072 139.351 150.7 139.973 151.168C140.618 151.632 141.365 151.937 142.152 152.057C143.122 152.212 144.103 152.287 145.085 152.279C146.191 152.28 147.296 152.206 148.391 152.057ZM100.234 124.494C99.0331 124.489 97.8392 124.689 96.7057 125.086C95.6262 125.459 94.6365 126.052 93.7996 126.828C92.9577 127.636 92.29 128.607 91.8377 129.681C91.3233 130.951 91.076 132.313 91.1113 133.682C91.1113 136.742 91.9894 139.038 93.7463 140.572C95.5029 142.105 97.6448 142.871 100.171 142.869C101.478 142.894 102.781 142.719 104.034 142.35C105.026 142.043 105.997 141.672 106.941 141.239C107.832 141.83 108.59 142.599 109.169 143.497C109.683 144.386 109.94 145.4 109.912 146.426C109.912 148.45 108.943 150.018 107.006 151.129C105.068 152.24 102.39 152.799 98.9701 152.806C96.0862 152.846 93.2175 152.382 90.4938 151.436C88.0925 150.596 85.8833 149.287 83.9957 147.585C82.1813 145.922 80.749 143.886 79.7986 141.618C78.7845 139.177 78.2793 136.556 78.3139 133.914C78.3139 130.652 78.8459 127.8 79.9099 125.357C80.8805 123.041 82.366 120.976 84.2547 119.317C86.1186 117.716 88.2854 116.504 90.6268 115.752C93.0853 114.953 95.6561 114.554 98.2413 114.568C101.806 114.568 104.551 115.212 106.476 116.5C108.4 117.789 109.369 119.443 109.382 121.463C109.387 122.382 109.157 123.287 108.713 124.093C108.298 124.868 107.773 125.58 107.154 126.205C106.165 125.756 105.148 125.373 104.109 125.057C102.854 124.675 101.547 124.485 100.234 124.494ZM65.4392 151.612C64.6696 151.813 63.8872 151.961 63.0974 152.057C62.0027 152.206 60.8987 152.281 59.7939 152.279C58.8108 152.287 57.8289 152.213 56.8587 152.057C56.0716 151.937 55.3242 151.633 54.6791 151.168C54.0635 150.698 53.5879 150.07 53.3032 149.351C52.9812 148.587 52.8187 147.585 52.8187 146.35V124.125C52.7915 123.112 53.0085 122.108 53.451 121.197C53.8982 120.353 54.5181 119.613 55.2698 119.023C56.1669 118.316 57.1531 117.731 58.2026 117.281C59.4221 116.743 60.6751 116.284 61.9541 115.908C63.319 115.508 64.7089 115.199 66.115 114.983C67.5403 114.757 68.9806 114.64 70.4234 114.635C72.8017 114.635 74.6835 115.092 76.069 116.005C77.4542 116.918 78.1479 118.413 78.1495 120.489C78.1495 121.179 78.0492 121.866 77.8516 122.528C77.6685 123.156 77.42 123.763 77.1104 124.34C76.069 124.34 75.0043 124.39 73.9158 124.49C72.8278 124.589 71.763 124.738 70.7216 124.934C69.6818 125.132 68.7042 125.342 67.7884 125.565C66.9853 125.748 66.2018 126.008 65.4489 126.342L65.4392 151.612ZM178.275 125.197C177.285 127.594 176.79 130.422 176.79 133.682C176.79 136.647 177.247 139.302 178.161 141.647C179.035 143.931 180.405 145.994 182.174 147.686C184.022 149.419 186.223 150.733 188.628 151.537C191.179 152.426 194.064 152.871 197.282 152.871C200.252 152.871 202.877 152.512 205.155 151.796C207.433 151.079 209.29 150.252 210.726 149.315C212.905 147.931 213.995 146.079 213.995 143.758V108.637C214.029 107.618 213.879 106.601 213.55 105.636C213.285 104.917 212.822 104.287 212.213 103.82C211.567 103.356 210.82 103.051 210.033 102.931C209.063 102.775 208.082 102.701 207.1 102.708C205.981 102.707 204.863 102.794 203.758 102.969C202.956 103.082 202.162 103.244 201.379 103.452V115.457C200.636 115.169 199.865 114.957 199.079 114.826C198.12 114.651 197.147 114.565 196.172 114.568C193.589 114.546 191.019 114.933 188.558 115.715C186.276 116.44 184.174 117.639 182.392 119.235C180.586 120.887 179.179 122.926 178.275 125.197ZM191.719 126.717C193.155 125.187 195.211 124.422 197.885 124.422C199.135 124.384 200.371 124.692 201.457 125.311V141.608C200.959 142.013 200.393 142.327 199.786 142.536C199.01 142.817 198.189 142.956 197.364 142.944C194.839 142.944 192.908 142.165 191.571 140.608C190.234 139.051 189.565 136.742 189.565 133.682C189.564 130.569 190.282 128.247 191.719 126.717ZM10.2349 117.09C11.6968 117.09 12.882 115.907 12.882 114.449C12.882 112.991 11.6968 111.809 10.2349 111.809C8.77291 111.809 7.58778 112.991 7.58778 114.449C7.58778 115.907 8.77291 117.09 10.2349 117.09ZM3.73939 113.674C3.73939 114.704 2.9023 115.539 1.86969 115.539C0.837092 115.539 0 114.704 0 113.674C0 112.644 0.837092 111.809 1.86969 111.809C2.9023 111.809 3.73939 112.644 3.73939 113.674ZM41.9687 118.561C40.1476 116.488 37.9324 114.797 35.4515 113.584C32.9705 112.371 30.2729 111.661 27.515 111.495C26.1558 111.41 24.7917 111.456 23.4414 111.632C22.9764 111.671 22.5235 111.734 22.0924 111.809L21.6952 111.862L21.7339 111.876C20.5521 112.108 19.3972 112.46 18.2876 112.927H18.2755C16.1394 113.969 14.9624 115.694 14.9624 117.783C14.9643 119.169 15.5171 120.497 16.4997 121.477C17.4822 122.456 18.8142 123.007 20.2033 123.009C20.8039 123.009 22.6712 122.381 22.6882 122.373C25.0624 121.55 27.6518 121.589 30.0001 122.483C32.3484 123.378 34.3047 125.07 35.5241 127.263C36.8522 129.659 37.2018 132.475 36.5002 135.122C35.7985 137.77 34.0997 140.045 31.7578 141.473C29.4159 142.902 26.6116 143.374 23.9293 142.791C21.2471 142.208 18.8938 140.615 17.36 138.344L17.2995 138.265L16.8757 137.624C15.4225 135.143 15.609 131.725 15.6647 131.015V130.947V130.923C15.6218 129.671 15.1299 128.476 14.2783 127.555C13.4267 126.634 12.272 126.049 11.0244 125.906C9.77675 125.762 8.51894 126.07 7.4798 126.774C6.44065 127.477 5.68915 128.53 5.36203 129.739C5.24903 130.342 5.1947 130.955 5.19976 131.568C4.73474 142.872 13.565 152.644 24.8824 153.354C25.3086 153.381 25.7373 153.395 26.1709 153.395C26.9688 153.393 27.766 153.347 28.5588 153.257H28.6702L30.3365 153.062L30.2178 153.011C33.8515 152.305 37.2339 150.654 40.0228 148.226C42.8118 145.798 44.9086 142.679 46.1012 139.183C47.2935 135.687 47.5393 131.939 46.8137 128.318C46.088 124.697 44.4167 121.331 41.9687 118.561ZM10.2349 121.375C10.2349 123.266 8.6984 124.799 6.80307 124.799C4.90774 124.799 3.37127 123.266 3.37127 121.375C3.37127 119.485 4.90774 117.952 6.80307 117.952C8.6984 117.952 10.2349 119.485 10.2349 121.375Z" fill="url(#paint0_linear)"/>
<path d="M4.1 193.76C4.1 190.64 4.58 187.88 5.54 185.48C6.54 183.08 7.88 181.08 9.56 179.48C11.28 177.84 13.28 176.6 15.56 175.76C17.88 174.92 20.38 174.5 23.06 174.5C25.74 174.5 28.22 174.92 30.5 175.76C32.82 176.6 34.84 177.84 36.56 179.48C38.28 181.08 39.62 183.08 40.58 185.48C41.58 187.88 42.08 190.64 42.08 193.76C42.08 196.88 41.6 199.66 40.64 202.1C39.68 204.5 38.34 206.52 36.62 208.16C34.94 209.76 32.94 210.98 30.62 211.82C28.3 212.66 25.78 213.08 23.06 213.08C20.34 213.08 17.82 212.66 15.5 211.82C13.18 210.94 11.18 209.68 9.5 208.04C7.82 206.4 6.5 204.38 5.54 201.98C4.58 199.58 4.1 196.84 4.1 193.76ZM14.9 193.76C14.9 197.4 15.64 200.12 17.12 201.92C18.6 203.72 20.58 204.62 23.06 204.62C25.58 204.62 27.58 203.72 29.06 201.92C30.54 200.12 31.28 197.4 31.28 193.76C31.28 190.16 30.54 187.46 29.06 185.66C27.62 183.86 25.64 182.96 23.12 182.96C20.64 182.96 18.64 183.86 17.12 185.66C15.64 187.42 14.9 190.12 14.9 193.76ZM65.7875 193.52C65.7875 192.28 65.4275 191.38 64.7075 190.82C64.0275 190.22 63.0875 189.92 61.8875 189.92C61.0875 189.92 60.2875 190.02 59.4875 190.22C58.7275 190.42 58.0675 190.72 57.5075 191.12V211.94C57.1075 212.06 56.4675 212.18 55.5875 212.3C54.7475 212.42 53.8675 212.48 52.9475 212.48C52.0675 212.48 51.2675 212.42 50.5475 212.3C49.8675 212.18 49.2875 211.94 48.8075 211.58C48.3275 211.22 47.9475 210.74 47.6675 210.14C47.4275 209.5 47.3075 208.68 47.3075 207.68V189.68C47.3075 188.6 47.5275 187.72 47.9675 187.04C48.4475 186.36 49.0875 185.74 49.8875 185.18C51.2475 184.22 52.9475 183.44 54.9875 182.84C57.0675 182.24 59.3675 181.94 61.8875 181.94C66.4075 181.94 69.8875 182.94 72.3275 184.94C74.7675 186.9 75.9875 189.64 75.9875 193.16V211.94C75.5875 212.06 74.9475 212.18 74.0675 212.3C73.2275 212.42 72.3475 212.48 71.4275 212.48C70.5475 212.48 69.7475 212.42 69.0275 212.3C68.3475 212.18 67.7675 211.94 67.2875 211.58C66.8075 211.22 66.4275 210.74 66.1475 210.14C65.9075 209.5 65.7875 208.68 65.7875 207.68V193.52ZM92.668 211.94C92.228 212.02 91.568 212.12 90.688 212.24C89.848 212.4 88.988 212.48 88.108 212.48C87.228 212.48 86.428 212.42 85.708 212.3C85.028 212.18 84.448 211.94 83.968 211.58C83.488 211.22 83.108 210.74 82.828 210.14C82.588 209.5 82.468 208.68 82.468 207.68V172.88C82.908 172.8 83.548 172.7 84.388 172.58C85.268 172.42 86.148 172.34 87.028 172.34C87.908 172.34 88.688 172.4 89.368 172.52C90.088 172.64 90.688 172.88 91.168 173.24C91.648 173.6 92.008 174.1 92.248 174.74C92.528 175.34 92.668 176.14 92.668 177.14V211.94ZM98.8644 174.74C98.8644 173.22 99.3644 171.94 100.364 170.9C101.404 169.86 102.764 169.34 104.444 169.34C106.124 169.34 107.464 169.86 108.464 170.9C109.504 171.94 110.024 173.22 110.024 174.74C110.024 176.26 109.504 177.54 108.464 178.58C107.464 179.62 106.124 180.14 104.444 180.14C102.764 180.14 101.404 179.62 100.364 178.58C99.3644 177.54 98.8644 176.26 98.8644 174.74ZM109.544 211.94C109.104 212.02 108.444 212.12 107.564 212.24C106.724 212.4 105.864 212.48 104.984 212.48C104.104 212.48 103.304 212.42 102.584 212.3C101.904 212.18 101.324 211.94 100.844 211.58C100.364 211.22 99.9844 210.74 99.7044 210.14C99.4644 209.5 99.3444 208.68 99.3444 207.68V183.26C99.7844 183.18 100.424 183.08 101.264 182.96C102.144 182.8 103.024 182.72 103.904 182.72C104.784 182.72 105.564 182.78 106.244 182.9C106.964 183.02 107.564 183.26 108.044 183.62C108.524 183.98 108.884 184.48 109.124 185.12C109.404 185.72 109.544 186.52 109.544 187.52V211.94ZM134.518 193.52C134.518 192.28 134.158 191.38 133.438 190.82C132.758 190.22 131.818 189.92 130.618 189.92C129.818 189.92 129.018 190.02 128.218 190.22C127.458 190.42 126.798 190.72 126.238 191.12V211.94C125.838 212.06 125.198 212.18 124.318 212.3C123.478 212.42 122.598 212.48 121.678 212.48C120.798 212.48 119.998 212.42 119.278 212.3C118.598 212.18 118.018 211.94 117.538 211.58C117.058 211.22 116.678 210.74 116.398 210.14C116.158 209.5 116.038 208.68 116.038 207.68V189.68C116.038 188.6 116.258 187.72 116.698 187.04C117.178 186.36 117.818 185.74 118.618 185.18C119.978 184.22 121.678 183.44 123.718 182.84C125.798 182.24 128.098 181.94 130.618 181.94C135.138 181.94 138.618 182.94 141.058 184.94C143.498 186.9 144.718 189.64 144.718 193.16V211.94C144.318 212.06 143.678 212.18 142.798 212.3C141.958 212.42 141.078 212.48 140.158 212.48C139.278 212.48 138.478 212.42 137.758 212.3C137.078 212.18 136.498 211.94 136.018 211.58C135.538 211.22 135.158 210.74 134.878 210.14C134.638 209.5 134.518 208.68 134.518 207.68V193.52ZM166.438 212.96C164.078 212.96 161.878 212.64 159.838 212C157.838 211.32 156.078 210.32 154.558 209C153.078 207.68 151.898 206.02 151.018 204.02C150.178 202.02 149.758 199.68 149.758 197C149.758 194.36 150.178 192.1 151.018 190.22C151.898 188.3 153.038 186.74 154.438 185.54C155.838 184.3 157.438 183.4 159.238 182.84C161.038 182.24 162.878 181.94 164.758 181.94C166.878 181.94 168.798 182.26 170.518 182.9C172.278 183.54 173.778 184.42 175.018 185.54C176.298 186.66 177.278 188 177.958 189.56C178.678 191.12 179.038 192.82 179.038 194.66C179.038 196.02 178.658 197.06 177.898 197.78C177.138 198.5 176.078 198.96 174.718 199.16L159.898 201.38C160.338 202.7 161.238 203.7 162.598 204.38C163.958 205.02 165.518 205.34 167.278 205.34C168.918 205.34 170.458 205.14 171.898 204.74C173.378 204.3 174.578 203.8 175.498 203.24C176.138 203.64 176.678 204.2 177.118 204.92C177.558 205.64 177.778 206.4 177.778 207.2C177.778 209 176.938 210.34 175.258 211.22C173.978 211.9 172.538 212.36 170.938 212.6C169.338 212.84 167.838 212.96 166.438 212.96ZM164.758 189.38C163.798 189.38 162.958 189.54 162.238 189.86C161.558 190.18 160.998 190.6 160.558 191.12C160.118 191.6 159.778 192.16 159.538 192.8C159.338 193.4 159.218 194.02 159.178 194.66L169.438 192.98C169.318 192.18 168.878 191.38 168.118 190.58C167.358 189.78 166.238 189.38 164.758 189.38Z" fill="#5F45BA"/>
<path d="M19.52 252.5C21.2 252.5 22.48 252.12 23.36 251.36C24.28 250.56 24.74 249.36 24.74 247.76C24.74 246.24 24.26 245.08 23.3 244.28C22.38 243.44 21.02 243.02 19.22 243.02C18.58 243.02 18.04 243.04 17.6 243.08C17.2 243.08 16.78 243.12 16.34 243.2V252.5H19.52ZM16.4 271.76C15.96 271.88 15.26 272 14.3 272.12C13.38 272.24 12.46 272.3 11.54 272.3C10.62 272.3 9.8 272.22 9.08 272.06C8.4 271.94 7.82 271.7 7.34 271.34C6.86 270.98 6.5 270.48 6.26 269.84C6.02 269.2 5.9 268.36 5.9 267.32V239.06C5.9 238.22 6.12 237.58 6.56 237.14C7.04 236.66 7.68 236.28 8.48 236C9.84 235.52 11.38 235.18 13.1 234.98C14.86 234.74 16.62 234.62 18.38 234.62C23.9 234.62 28.12 235.8 31.04 238.16C33.96 240.52 35.42 243.72 35.42 247.76C35.42 249.72 35.1 251.5 34.46 253.1C33.86 254.66 32.94 256.02 31.7 257.18C30.5 258.3 28.96 259.18 27.08 259.82C25.24 260.42 23.1 260.72 20.66 260.72H16.4V271.76ZM49.0114 271.94C48.6114 272.06 47.9714 272.18 47.0914 272.3C46.2514 272.42 45.3714 272.48 44.4514 272.48C43.5714 272.48 42.7714 272.42 42.0514 272.3C41.3714 272.18 40.7914 271.94 40.3114 271.58C39.8314 271.22 39.4514 270.74 39.1714 270.14C38.9314 269.5 38.8114 268.68 38.8114 267.68V249.68C38.8114 248.76 38.9714 247.98 39.2914 247.34C39.6514 246.66 40.1514 246.06 40.7914 245.54C41.4314 245.02 42.2114 244.56 43.1314 244.16C44.0914 243.72 45.1114 243.34 46.1914 243.02C47.2714 242.7 48.3914 242.46 49.5514 242.3C50.7114 242.1 51.8714 242 53.0314 242C54.9514 242 56.4714 242.38 57.5914 243.14C58.7114 243.86 59.2714 245.06 59.2714 246.74C59.2714 247.3 59.1914 247.86 59.0314 248.42C58.8714 248.94 58.6714 249.42 58.4314 249.86C57.5914 249.86 56.7314 249.9 55.8514 249.98C54.9714 250.06 54.1114 250.18 53.2714 250.34C52.4314 250.5 51.6314 250.68 50.8714 250.88C50.1514 251.04 49.5314 251.24 49.0114 251.48V271.94ZM63.2394 234.74C63.2394 233.22 63.7394 231.94 64.7394 230.9C65.7794 229.86 67.1394 229.34 68.8194 229.34C70.4994 229.34 71.8394 229.86 72.8394 230.9C73.8794 231.94 74.3994 233.22 74.3994 234.74C74.3994 236.26 73.8794 237.54 72.8394 238.58C71.8394 239.62 70.4994 240.14 68.8194 240.14C67.1394 240.14 65.7794 239.62 64.7394 238.58C63.7394 237.54 63.2394 236.26 63.2394 234.74ZM73.9194 271.94C73.4794 272.02 72.8194 272.12 71.9394 272.24C71.0994 272.4 70.2394 272.48 69.3594 272.48C68.4794 272.48 67.6794 272.42 66.9594 272.3C66.2794 272.18 65.6994 271.94 65.2194 271.58C64.7394 271.22 64.3594 270.74 64.0794 270.14C63.8394 269.5 63.7194 268.68 63.7194 267.68V243.26C64.1594 243.18 64.7994 243.08 65.6394 242.96C66.5194 242.8 67.3994 242.72 68.2794 242.72C69.1594 242.72 69.9394 242.78 70.6194 242.9C71.3394 243.02 71.9394 243.26 72.4194 243.62C72.8994 243.98 73.2594 244.48 73.4994 245.12C73.7794 245.72 73.9194 246.52 73.9194 247.52V271.94ZM99.913 271.22C99.353 271.66 98.533 272.02 97.453 272.3C96.373 272.58 95.153 272.72 93.793 272.72C92.233 272.72 90.873 272.52 89.713 272.12C88.593 271.72 87.813 271.08 87.373 270.2C87.013 269.52 86.573 268.58 86.053 267.38C85.573 266.14 85.053 264.78 84.493 263.3C83.933 261.78 83.353 260.16 82.753 258.44C82.153 256.72 81.573 255.02 81.013 253.34C80.493 251.66 80.013 250.04 79.573 248.48C79.133 246.92 78.773 245.54 78.493 244.34C79.053 243.78 79.793 243.3 80.713 242.9C81.673 242.46 82.713 242.24 83.833 242.24C85.233 242.24 86.373 242.54 87.253 243.14C88.173 243.7 88.853 244.78 89.293 246.38L91.633 255.56C92.073 257.36 92.493 259 92.893 260.48C93.293 261.92 93.593 263.04 93.793 263.84H94.093C94.853 260.88 95.653 257.6 96.493 254C97.333 250.4 98.093 246.86 98.773 243.38C99.453 243.02 100.213 242.74 101.053 242.54C101.933 242.34 102.773 242.24 103.573 242.24C104.973 242.24 106.153 242.54 107.113 243.14C108.073 243.74 108.553 244.78 108.553 246.26C108.553 246.9 108.393 247.84 108.073 249.08C107.793 250.28 107.413 251.66 106.933 253.22C106.493 254.74 105.953 256.36 105.313 258.08C104.713 259.8 104.093 261.48 103.453 263.12C102.813 264.76 102.173 266.3 101.533 267.74C100.933 269.14 100.393 270.3 99.913 271.22ZM125.002 265.52C125.682 265.52 126.422 265.46 127.222 265.34C128.062 265.18 128.682 264.98 129.082 264.74V259.94L124.762 260.3C123.642 260.38 122.722 260.62 122.002 261.02C121.282 261.42 120.922 262.02 120.922 262.82C120.922 263.62 121.222 264.28 121.822 264.8C122.462 265.28 123.522 265.52 125.002 265.52ZM124.522 241.94C126.682 241.94 128.642 242.16 130.402 242.6C132.202 243.04 133.722 243.72 134.962 244.64C136.242 245.52 137.222 246.66 137.902 248.06C138.582 249.42 138.922 251.04 138.922 252.92V266.36C138.922 267.4 138.622 268.26 138.022 268.94C137.462 269.58 136.782 270.14 135.982 270.62C133.382 272.18 129.722 272.96 125.002 272.96C122.882 272.96 120.962 272.76 119.242 272.36C117.562 271.96 116.102 271.36 114.862 270.56C113.662 269.76 112.722 268.74 112.042 267.5C111.402 266.26 111.082 264.82 111.082 263.18C111.082 260.42 111.902 258.3 113.542 256.82C115.182 255.34 117.722 254.42 121.162 254.06L129.022 253.22V252.8C129.022 251.64 128.502 250.82 127.462 250.34C126.462 249.82 125.002 249.56 123.082 249.56C121.562 249.56 120.082 249.72 118.642 250.04C117.202 250.36 115.902 250.76 114.742 251.24C114.222 250.88 113.782 250.34 113.422 249.62C113.062 248.86 112.882 248.08 112.882 247.28C112.882 246.24 113.122 245.42 113.602 244.82C114.122 244.18 114.902 243.64 115.942 243.2C117.102 242.76 118.462 242.44 120.022 242.24C121.622 242.04 123.122 241.94 124.522 241.94ZM161.599 249.98C160.599 249.98 159.639 250.14 158.719 250.46C157.839 250.78 157.059 251.26 156.379 251.9C155.739 252.5 155.219 253.26 154.819 254.18C154.419 255.1 154.219 256.18 154.219 257.42C154.219 259.9 154.919 261.76 156.319 263C157.759 264.24 159.499 264.86 161.539 264.86C162.739 264.86 163.779 264.72 164.659 264.44C165.539 264.16 166.319 263.86 166.999 263.54C167.799 264.1 168.399 264.72 168.799 265.4C169.199 266.04 169.399 266.82 169.399 267.74C169.399 269.38 168.619 270.66 167.059 271.58C165.499 272.46 163.339 272.9 160.579 272.9C158.059 272.9 155.779 272.54 153.739 271.82C151.699 271.06 149.939 270.02 148.459 268.7C147.019 267.34 145.899 265.72 145.099 263.84C144.299 261.96 143.899 259.88 143.899 257.6C143.899 254.96 144.319 252.66 145.159 250.7C146.039 248.7 147.219 247.06 148.699 245.78C150.179 244.5 151.879 243.54 153.799 242.9C155.759 242.26 157.819 241.94 159.979 241.94C162.859 241.94 165.079 242.46 166.639 243.5C168.199 244.54 168.979 245.88 168.979 247.52C168.979 248.28 168.799 249 168.439 249.68C168.079 250.32 167.659 250.88 167.179 251.36C166.499 251.04 165.679 250.74 164.719 250.46C163.759 250.14 162.719 249.98 161.599 249.98ZM179.075 264.56C178.635 263.56 178.155 262.44 177.635 261.2C177.155 259.96 176.635 258.54 176.075 256.94C175.555 255.34 174.995 253.52 174.395 251.48C173.835 249.4 173.235 247.02 172.595 244.34C173.155 243.78 173.895 243.3 174.815 242.9C175.775 242.46 176.815 242.24 177.935 242.24C179.335 242.24 180.495 242.54 181.415 243.14C182.335 243.7 183.015 244.78 183.455 246.38L188.195 262.88H188.435C188.915 261.52 189.375 260.04 189.815 258.44C190.295 256.84 190.755 255.2 191.195 253.52C191.635 251.8 192.035 250.1 192.395 248.42C192.795 246.7 193.135 245.02 193.415 243.38C194.855 242.62 196.435 242.24 198.155 242.24C199.555 242.24 200.715 242.54 201.635 243.14C202.555 243.74 203.015 244.78 203.015 246.26C203.015 247.34 202.875 248.6 202.595 250.04C202.315 251.44 201.935 252.94 201.455 254.54C201.015 256.14 200.475 257.8 199.835 259.52C199.235 261.2 198.595 262.86 197.915 264.5C197.235 266.14 196.535 267.7 195.815 269.18C195.095 270.62 194.395 271.92 193.715 273.08C192.595 275.04 191.555 276.64 190.595 277.88C189.635 279.12 188.715 280.08 187.835 280.76C186.955 281.48 186.075 281.96 185.195 282.2C184.315 282.48 183.395 282.62 182.435 282.62C180.755 282.62 179.395 282.12 178.355 281.12C177.315 280.12 176.695 278.82 176.495 277.22C177.775 276.22 179.055 275.1 180.335 273.86C181.615 272.66 182.775 271.42 183.815 270.14C183.135 269.94 182.395 269.48 181.595 268.76C180.835 268 179.995 266.6 179.075 264.56Z" fill="#5F45BA"/>
<path d="M4.1 311.76C4.1 308.64 4.58 305.88 5.54 303.48C6.54 301.08 7.88 299.08 9.56 297.48C11.28 295.84 13.28 294.6 15.56 293.76C17.88 292.92 20.38 292.5 23.06 292.5C25.74 292.5 28.22 292.92 30.5 293.76C32.82 294.6 34.84 295.84 36.56 297.48C38.28 299.08 39.62 301.08 40.58 303.48C41.58 305.88 42.08 308.64 42.08 311.76C42.08 315.68 41.36 319.02 39.92 321.78C38.48 324.5 36.52 326.64 34.04 328.2C34.64 328.48 35.34 328.78 36.14 329.1C36.98 329.42 37.84 329.74 38.72 330.06C39.64 330.38 40.58 330.68 41.54 330.96C42.5 331.28 43.4 331.56 44.24 331.8C44.28 332.04 44.3 332.24 44.3 332.4C44.3 332.6 44.3 332.78 44.3 332.94C44.3 335.22 43.7 336.88 42.5 337.92C41.34 338.96 39.8 339.48 37.88 339.48C36.04 339.48 34.14 338.96 32.18 337.92C30.22 336.92 28.22 335.46 26.18 333.54L23.54 331.08H23.06C20.34 331.08 17.82 330.66 15.5 329.82C13.18 328.94 11.18 327.68 9.5 326.04C7.82 324.4 6.5 322.38 5.54 319.98C4.58 317.58 4.1 314.84 4.1 311.76ZM14.9 311.76C14.9 315.4 15.64 318.12 17.12 319.92C18.6 321.72 20.58 322.62 23.06 322.62C25.58 322.62 27.58 321.72 29.06 319.92C30.54 318.12 31.28 315.4 31.28 311.76C31.28 308.16 30.54 305.46 29.06 303.66C27.62 301.86 25.64 300.96 23.12 300.96C20.64 300.96 18.64 301.86 17.12 303.66C15.64 305.42 14.9 308.12 14.9 311.76ZM47.4247 301.26C47.8247 301.14 48.4447 301.02 49.2847 300.9C50.1647 300.78 51.0647 300.72 51.9847 300.72C52.8647 300.72 53.6447 300.78 54.3247 300.9C55.0447 301.02 55.6447 301.26 56.1247 301.62C56.6047 301.98 56.9647 302.48 57.2047 303.12C57.4847 303.72 57.6247 304.52 57.6247 305.52V318.42C57.6247 320.06 58.0247 321.24 58.8247 321.96C59.6247 322.64 60.7847 322.98 62.3047 322.98C63.2247 322.98 63.9647 322.9 64.5247 322.74C65.1247 322.58 65.5847 322.42 65.9047 322.26V301.26C66.3047 301.14 66.9247 301.02 67.7647 300.9C68.6447 300.78 69.5447 300.72 70.4647 300.72C71.3447 300.72 72.1247 300.78 72.8047 300.9C73.5247 301.02 74.1247 301.26 74.6047 301.62C75.0847 301.98 75.4447 302.48 75.6847 303.12C75.9647 303.72 76.1047 304.52 76.1047 305.52V323.76C76.1047 325.76 75.2647 327.26 73.5847 328.26C72.1847 329.14 70.5047 329.8 68.5447 330.24C66.6247 330.72 64.5247 330.96 62.2447 330.96C60.0847 330.96 58.0847 330.72 56.2447 330.24C54.4447 329.76 52.8847 329.02 51.5647 328.02C50.2447 327.02 49.2247 325.74 48.5047 324.18C47.7847 322.58 47.4247 320.66 47.4247 318.42V301.26ZM82.1066 292.74C82.1066 291.22 82.6066 289.94 83.6066 288.9C84.6466 287.86 86.0066 287.34 87.6866 287.34C89.3666 287.34 90.7066 287.86 91.7066 288.9C92.7466 289.94 93.2666 291.22 93.2666 292.74C93.2666 294.26 92.7466 295.54 91.7066 296.58C90.7066 297.62 89.3666 298.14 87.6866 298.14C86.0066 298.14 84.6466 297.62 83.6066 296.58C82.6066 295.54 82.1066 294.26 82.1066 292.74ZM92.7866 329.94C92.3466 330.02 91.6866 330.12 90.8066 330.24C89.9666 330.4 89.1066 330.48 88.2266 330.48C87.3466 330.48 86.5466 330.42 85.8266 330.3C85.1466 330.18 84.5666 329.94 84.0866 329.58C83.6066 329.22 83.2266 328.74 82.9466 328.14C82.7066 327.5 82.5866 326.68 82.5866 325.68V301.26C83.0266 301.18 83.6666 301.08 84.5066 300.96C85.3866 300.8 86.2666 300.72 87.1466 300.72C88.0266 300.72 88.8066 300.78 89.4866 300.9C90.2066 301.02 90.8066 301.26 91.2866 301.62C91.7666 301.98 92.1266 302.48 92.3666 303.12C92.6466 303.72 92.7866 304.52 92.7866 305.52V329.94ZM100.3 330C99.6602 329.44 99.1402 328.78 98.7402 328.02C98.3802 327.26 98.2002 326.4 98.2002 325.44C98.2002 324.64 98.3802 323.86 98.7402 323.1C99.1402 322.3 99.6202 321.56 100.18 320.88L110.5 308.76H99.4602C99.2202 308.32 98.9802 307.76 98.7402 307.08C98.5402 306.4 98.4402 305.66 98.4402 304.86C98.4402 303.46 98.7402 302.46 99.3402 301.86C99.9802 301.22 100.82 300.9 101.86 300.9H120.76C121.4 301.46 121.9 302.12 122.26 302.88C122.66 303.64 122.86 304.5 122.86 305.46C122.86 306.26 122.66 307.06 122.26 307.86C121.9 308.62 121.44 309.34 120.88 310.02L110.8 322.14H122.56C122.8 322.58 123.02 323.14 123.22 323.82C123.46 324.5 123.58 325.24 123.58 326.04C123.58 327.44 123.26 328.46 122.62 329.1C122.02 329.7 121.2 330 120.16 330H100.3Z" fill="#5F45BA"/>
<defs>
<linearGradient id="paint0_linear" x1="6.80307" y1="117.952" x2="6.80307" y2="153.404" gradientUnits="userSpaceOnUse">
<stop stop-color="#B88DFC"/>
<stop offset="1" stop-color="#8C61E1"/>
</linearGradient>
</defs>
</svg>
