<svg width="60" height="60" viewBox="0 0 60 60" fill="none" xmlns="http://www.w3.org/2000/svg">
	<path fill-rule="evenodd" clip-rule="evenodd" d="M28.6471 59.9906H31.3385C31.9573 59.939 32.576 59.8875 33.205 59.8153C37.9692 59.31 42.3828 57.7735 46.3736 55.1233C53.0662 50.6788 57.3663 44.5327 59.2328 36.7058C60.0784 33.1172 60.2125 29.477 59.6969 25.8266C58.0057 13.8645 49.426 4.15049 37.763 1.02591C33.8547 -0.0259213 29.8845 -0.273412 25.8731 0.304066C18.7681 1.31465 12.7767 4.47016 7.90939 9.72934C4.07329 13.8748 1.62931 18.7524 0.546542 24.3004C0.288739 25.6409 0.113433 26.9918 0.0515606 28.3633C0.0427369 28.4516 0.026363 28.5323 0.00889943 28.6183C0.00595363 28.6328 0.00297681 28.6475 0 28.6624V31.3539C0.0322975 31.6714 0.0617851 31.9918 0.0913964 32.3136C0.118512 32.6082 0.145731 32.904 0.175306 33.1997C0.618727 37.4483 1.90774 41.4391 4.09391 45.1205C7.73409 51.2769 12.9211 55.6183 19.6136 58.1447C22.4082 59.1966 25.3059 59.7844 28.2861 59.939C28.3198 59.9419 28.3535 59.9424 28.387 59.9429C28.4765 59.9442 28.5645 59.9456 28.6471 59.9906ZM22.1399 32.8497C19.2319 31.9732 17.685 30.0551 17.4685 26.9615C18.3347 27.4152 19.17 27.673 20.1393 27.704C18.6441 26.5902 17.7675 25.1775 17.5819 23.3729C17.4479 22.1045 17.7469 20.7948 18.3553 19.8461C21.5315 23.5791 25.5532 25.6415 30.4721 26.0025C30.5084 25.799 30.473 25.616 30.4382 25.4355C30.4236 25.3598 30.409 25.2846 30.3999 25.2084C30.0699 22.0014 32.5035 19.0418 35.7106 18.7737C37.5359 18.619 39.1136 19.1758 40.4233 20.4442C40.5882 20.6092 40.7429 20.5783 40.9182 20.537C42.0113 20.2792 43.0528 19.8874 44.0428 19.3408C44.115 19.2996 44.1975 19.2583 44.3315 19.1965C43.8675 20.5577 43.0528 21.5682 41.836 22.3932C42.1182 22.4018 42.3437 22.3536 42.5594 22.3075C42.6039 22.298 42.6479 22.2886 42.6919 22.2798C42.96 22.2179 43.2281 22.156 43.4963 22.0838C43.7541 22.0117 44.0222 21.9292 44.28 21.8364C44.485 21.768 44.6971 21.6855 44.9455 21.5889C44.997 21.5689 45.0501 21.5482 45.105 21.527C44.5584 22.3417 43.9809 23.0119 43.321 23.6204C43.0219 23.8988 42.7022 24.1566 42.3826 24.4041C42.2485 24.5072 42.1866 24.6206 42.1866 24.8062C42.2588 29.9107 40.4439 34.2521 36.7728 37.7892C34.3804 40.0888 31.4723 41.4294 28.1828 41.9244C25.0376 42.3987 21.9852 42.0894 19.0359 40.8828C18.1388 40.5219 17.2829 40.0785 16.4785 39.532C19.634 39.7794 22.4802 39.0163 25.0788 37.0467C23.5629 36.9642 22.2945 36.4589 21.2324 35.4999C20.4693 34.809 19.9228 33.9737 19.5825 32.9425C20.4487 33.0869 21.284 33.0869 22.1399 32.8497Z" fill="#5F45BA" />
</svg>
