<?xml version="1.0" encoding="UTF-8"?>
<svg width="290px" height="483px" viewBox="0 0 290 483" version="1.1" xmlns="http://www.w3.org/2000/svg" xmlns:xlink="http://www.w3.org/1999/xlink">
    <!-- Generator: Sketch 53.2 (72643) - https://sketchapp.com -->
    <title>Group 8</title>
    <desc>Created with Sketch.</desc>
    <g id="Symbols" stroke="none" stroke-width="1" fill="none" fill-rule="evenodd">
        <g id="Baloo/Component/Whyorchid" transform="translate(-40.000000, -115.000000)">
            <g id="Group-8" transform="translate(185.000000, 357.000000) scale(1, -1) rotate(-270.000000) translate(-185.000000, -357.000000) translate(-57.000000, 212.000000)">
                <g id="Group-95" transform="translate(0.986351, 45.874848)">
                    <polyline id="Stroke-1" stroke="#BCA9FF" stroke-width="0.5" points="418.133958 228.912492 348.815774 228.912492 348.815774 197.133926 288.395904 197.133926 288.395904 166.798852 358.643339 166.798852 358.643339 108.83729 257.945739 108.83729"></polyline>
                    <g id="Group-94" transform="translate(0.000000, 0.715763)">
                        <path d="M244.908164,78.2687771 C244.908164,87.0026068 237.80065,94.0830026 229.03337,94.0830026 C220.26609,94.0830026 213.158577,87.0026068 213.158577,78.2687771 C213.158577,69.5349474 220.26609,62.4545516 229.03337,62.4545516 C237.80065,62.4545516 244.908164,69.5349474 244.908164,78.2687771 Z" id="Stroke-4" stroke="#BCA9FF"></path>
                        <path d="M149.915793,172.410085 C149.915793,177.176761 146.036089,181.041663 141.250064,181.041663 C136.466224,181.041663 132.58652,177.176761 132.58652,172.410085 C132.58652,167.642321 136.466224,163.777419 141.250064,163.777419 C146.036089,163.777419 149.915793,167.642321 149.915793,172.410085 Z" id="Stroke-6" stroke="#BCA9FF" stroke-width="2"></path>
                        <path d="M196.43359,37.124161 C196.43359,41.890837 192.553885,45.7557389 187.767861,45.7557389 C182.982929,45.7557389 179.103224,41.890837 179.103224,37.124161 C179.103224,32.3563971 182.982929,28.4914953 187.767861,28.4914953 C192.553885,28.4914953 196.43359,32.3563971 196.43359,37.124161 Z" id="Stroke-8" stroke="#BCA9FF" stroke-width="2"></path>
                        <polyline id="Stroke-10" stroke="#BCA9FF" stroke-width="0.5" stroke-linecap="round" stroke-linejoin="round" points="124.838249 137.929134 140.853904 137.929134 140.853904 172.409759 168.764189 172.409759 168.764189 136.241979 188.661733 136.241979 188.661733 36.9326019 153.484509 36.9326019 153.484509 102.483644"></polyline>
                        <path d="M49.5010086,137.929134 L131.385373,137.929134" id="Stroke-12" stroke="#BCA9FF" stroke-width="0.5" stroke-linecap="round" stroke-linejoin="round"></path>
                        <path d="M204.686124,136.241761 C204.686124,144.975591 197.57861,152.057075 188.81133,152.057075 C180.04405,152.057075 172.936537,144.975591 172.936537,136.241761 C172.936537,127.507931 180.04405,120.427536 188.81133,120.427536 C197.57861,120.427536 204.686124,127.507931 204.686124,136.241761 Z" id="Stroke-16" stroke="#BCA9FF"></path>
                        <path d="M71.614122,137.257753 C71.614122,149.194023 61.9012119,158.869875 49.9192261,158.869875 C37.9372403,158.869875 28.2254221,149.194023 28.2254221,137.257753 C28.2254221,125.321483 37.9372403,115.645631 49.9192261,115.645631 C61.9012119,115.645631 71.614122,125.321483 71.614122,137.257753 Z" id="Stroke-18" stroke="#BCA9FF"></path>
                        <path d="M143.561399,172.410085 C143.561399,173.680618 142.52732,174.710751 141.250829,174.710751 C139.975429,174.710751 138.941351,173.680618 138.941351,172.410085 C138.941351,171.139552 139.975429,170.108331 141.250829,170.108331 C142.52732,170.108331 143.561399,171.139552 143.561399,172.410085" id="Fill-20" fill="#BCA9FF"></path>
                        <path d="M231.342957,136.241761 C231.342957,137.512295 230.308879,138.543515 229.033479,138.543515 C227.756988,138.543515 226.72291,137.512295 226.72291,136.241761 C226.72291,134.971228 227.756988,133.941095 229.033479,133.941095 C230.308879,133.941095 231.342957,134.971228 231.342957,136.241761" id="Fill-22" fill="#BCA9FF"></path>
                        <path d="M260.255217,135.388176 C260.255217,136.658709 259.221139,137.68993 257.945739,137.68993 C256.669248,137.68993 255.636261,136.658709 255.636261,135.388176 C255.636261,134.117642 256.669248,133.08751 257.945739,133.08751 C259.221139,133.08751 260.255217,134.117642 260.255217,135.388176" id="Fill-24" fill="#BCA9FF"></path>
                        <path d="M156.577353,102.27022 C156.577353,103.9552 155.206954,105.320371 153.515521,105.320371 C151.824088,105.320371 150.453688,103.9552 150.453688,102.27022 C150.453688,100.58524 151.824088,99.2200696 153.515521,99.2200696 C155.206954,99.2200696 156.577353,100.58524 156.577353,102.27022" id="Fill-26" fill="#BCA9FF"></path>
                        <path d="M156.577353,37.124161 C156.577353,38.8091407 155.206954,40.1743115 153.515521,40.1743115 C151.824088,40.1743115 150.453688,38.8091407 150.453688,37.124161 C150.453688,35.4391812 151.824088,34.0729226 153.515521,34.0729226 C155.206954,34.0729226 156.577353,35.4391812 156.577353,37.124161" id="Fill-28" fill="#BCA9FF"></path>
                        <path d="M190.780883,37.124161 C190.780883,38.8091407 189.410484,40.1743115 187.719051,40.1743115 C186.027618,40.1743115 184.657218,38.8091407 184.657218,37.124161 C184.657218,35.4391812 186.027618,34.0729226 187.719051,34.0729226 C189.410484,34.0729226 190.780883,35.4391812 190.780883,37.124161" id="Fill-30" fill="#BCA9FF"></path>
                        <path d="M191.434526,136.241761 C191.434526,137.926741 190.063034,139.293 188.371601,139.293 C186.680168,139.293 185.309769,137.926741 185.309769,136.241761 C185.309769,134.556781 186.680168,133.191611 188.371601,133.191611 C190.063034,133.191611 191.434526,134.556781 191.434526,136.241761" id="Fill-32" fill="#BCA9FF"></path>
                        <path d="M259.558879,218.790213 C260.460831,219.688724 260.460831,221.146356 259.558879,222.044867 C258.656927,222.943378 257.193712,222.943378 256.29176,222.044867 C255.389808,221.146356 255.389808,219.688724 256.29176,218.790213 C257.193712,217.891702 258.656927,217.891702 259.558879,218.790213" id="Fill-34" fill="#A375FC"></path>
                        <path d="M433.346592,228.50479 C433.346592,235.975701 427.267697,242.03249 419.767081,242.03249 C412.267557,242.03249 406.188662,235.975701 406.188662,228.50479 C406.188662,221.033879 412.267557,214.977089 419.767081,214.977089 C427.267697,214.977089 433.346592,221.033879 433.346592,228.50479 Z" id="Stroke-36" stroke="#BCA9FF"></path>
                        <path d="M421.401187,227.108944 C422.303139,228.008542 422.303139,229.465087 421.401187,230.363598 C420.499235,231.262109 419.036019,231.262109 418.134067,230.363598 C417.232115,229.465087 417.232115,228.008542 418.134067,227.108944 C419.036019,226.210433 420.499235,226.210433 421.401187,227.108944" id="Fill-38" fill="#A375FC"></path>
                        <path d="M349.907179,195.338536 C350.809132,196.237047 350.809132,197.69468 349.907179,198.593191 C349.005227,199.491702 347.542012,199.491702 346.64006,198.593191 C345.738108,197.69468 345.738108,196.237047 346.64006,195.338536 C347.542012,194.440026 349.005227,194.440026 349.907179,195.338536" id="Fill-40" fill="#A375FC"></path>
                        <path d="M360.276462,165.1328 C361.178414,166.031311 361.178414,167.488943 360.276462,168.387454 C359.37451,169.285965 357.911294,169.285965 357.009342,168.387454 C356.10739,167.488943 356.10739,166.031311 357.009342,165.1328 C357.911294,164.234289 359.37451,164.234289 360.276462,165.1328" id="Fill-42" fill="#A375FC"></path>
                        <path d="M261.008008,107.255541 C261.008008,108.940521 259.636517,110.305692 257.945084,110.305692 C256.253651,110.305692 254.883251,108.940521 254.883251,107.255541 C254.883251,105.570561 256.253651,104.204303 257.945084,104.204303 C259.636517,104.204303 261.008008,105.570561 261.008008,107.255541" id="Fill-44" fill="#BCA9FF"></path>
                        <path d="M232.19184,78.2687771 C232.19184,79.9537568 230.820349,81.3189276 229.128916,81.3189276 C227.437483,81.3189276 226.067083,79.9537568 226.067083,78.2687771 C226.067083,76.5837974 227.437483,75.2175388 229.128916,75.2175388 C230.820349,75.2175388 232.19184,76.5837974 232.19184,78.2687771" id="Fill-46" fill="#BCA9FF"></path>
                        <polyline id="Stroke-48" stroke="#BCA9FF" stroke-width="0.5" stroke-linecap="round" stroke-linejoin="round" points="49.9191169 82.2757437 49.9191169 210.068784 14.7877556 210.068784"></polyline>
                        <path d="M51.5526766,136.718102 C52.4546287,137.616613 52.4546287,139.074246 51.5526766,139.972757 C50.6507245,140.871267 49.1886012,140.871267 48.2866492,139.972757 C47.3836051,139.074246 47.3836051,137.616613 48.2866492,136.718102 C49.1886012,135.819592 50.6507245,135.819592 51.5526766,136.718102" id="Fill-50" fill="#A375FC"></path>
                        <path d="M58.1663003,82.2757437 C58.1663003,87.0424198 54.286596,90.9073217 49.5005718,90.9073217 C44.7167315,90.9073217 40.8370272,87.0424198 40.8370272,82.2757437 C40.8370272,77.5079799 44.7167315,73.6430781 49.5005718,73.6430781 C54.286596,73.6430781 58.1663003,77.5079799 58.1663003,82.2757437 Z" id="Stroke-52" stroke="#BCA9FF" stroke-width="2"></path>
                        <path d="M361.70539,108.121853 C361.70539,109.806833 360.333898,111.173092 358.642465,111.173092 C356.951032,111.173092 355.580633,109.806833 355.580633,108.121853 C355.580633,106.436874 356.951032,105.071703 358.642465,105.071703 C360.333898,105.071703 361.70539,106.436874 361.70539,108.121853" id="Fill-54" fill="#BCA9FF"></path>
                        <path d="M49.5010086,82.2757437 L15.5904493,82.2757437" id="Stroke-56" stroke="#BCA9FF" stroke-width="0.5" stroke-linecap="round" stroke-linejoin="round"></path>
                        <path d="M51.5526766,80.6483079 C52.4546287,81.5468187 52.4546287,83.0044513 51.5526766,83.9029621 C50.6507245,84.8014729 49.1886012,84.8014729 48.2866492,83.9029621 C47.3836051,83.0044513 47.3836051,81.5468187 48.2866492,80.6483079 C49.1886012,79.749797 50.6507245,79.749797 51.5526766,80.6483079" id="Fill-58" fill="#A375FC"></path>
                        <path d="M14.4967505,80.6483079 C15.3987026,81.5468187 15.3987026,83.0044513 14.4967505,83.9029621 C13.5947984,84.8014729 12.1315831,84.8014729 11.2296311,83.9029621 C10.327679,83.0044513 10.327679,81.5468187 11.2296311,80.6483079 C12.1315831,79.749797 13.5947984,79.749797 14.4967505,80.6483079" id="Fill-60" fill="#A375FC"></path>
                        <path d="M18.0541106,207.901698 C18.9560627,208.800208 18.9560627,210.257841 18.0541106,211.156352 C17.1521586,212.054863 15.6900353,212.054863 14.7880832,211.156352 C13.8861311,210.257841 13.8861311,208.800208 14.7880832,207.901698 C15.6900353,207.003187 17.1521586,207.003187 18.0541106,207.901698" id="Fill-62" fill="#A375FC"></path>
                        <path d="M32.2964364,210.068784 C32.2964364,218.802614 25.187831,225.883009 16.4205509,225.883009 C7.65436287,225.883009 0.545757448,218.802614 0.545757448,210.068784 C0.545757448,201.334954 7.65436287,194.254558 16.4205509,194.254558 C25.187831,194.254558 32.2964364,201.334954 32.2964364,210.068784 Z" id="Stroke-64" stroke="#BCA9FF"></path>
                        <path d="M75.4413035,210.068784 L49.9191169,210.068784" id="Stroke-66" stroke="#BCA9FF" stroke-width="0.5" stroke-linecap="round" stroke-linejoin="round"></path>
                        <path d="M80.0617878,210.068784 C80.0617878,211.339317 79.0277096,212.370538 77.751218,212.370538 C76.4758185,212.370538 75.4417403,211.339317 75.4417403,210.068784 C75.4417403,208.79825 76.4758185,207.76703 77.751218,207.76703 C79.0277096,207.76703 80.0617878,208.79825 80.0617878,210.068784" id="Fill-68" fill="#BCA9FF"></path>
                        <path d="M290.133526,164.995304 C291.035478,165.893815 291.035478,167.351447 290.133526,168.249958 C289.231574,169.148469 287.768359,169.148469 286.866407,168.249958 C285.964455,167.351447 285.964455,165.893815 286.866407,164.995304 C287.768359,164.096793 289.231574,164.096793 290.133526,164.995304" id="Fill-70" fill="#A375FC"></path>
                        <path d="M290.133526,195.338536 C291.035478,196.237047 291.035478,197.69468 290.133526,198.593191 C289.231574,199.491702 287.768359,199.491702 286.866407,198.593191 C285.964455,197.69468 285.964455,196.237047 286.866407,195.338536 C287.768359,194.440026 289.231574,194.440026 290.133526,195.338536" id="Fill-72" fill="#A375FC"></path>
                        <polyline id="Stroke-76" stroke="#BCA9FF" stroke-width="0.5" stroke-linecap="round" stroke-linejoin="round" points="316.80532 67.5038404 379.723575 67.5038404 379.723575 87.3265555 479.413304 87.3265555 479.413304 52.2835458 413.612295 52.2835458"></polyline>
                        <path d="M413.825772,55.3644806 C412.134339,55.3644806 410.762848,53.9993098 410.762848,52.3143301 C410.762848,50.6293504 412.134339,49.2630918 413.825772,49.2630918 C415.517205,49.2630918 416.888696,50.6293504 416.888696,52.3143301 C416.888696,53.9993098 415.517205,55.3644806 413.825772,55.3644806" id="Fill-78" fill="#BCA9FF"></path>
                        <path d="M479.221338,55.3644806 C477.529905,55.3644806 476.158414,53.9993098 476.158414,52.3143301 C476.158414,50.6293504 477.529905,49.2630918 479.221338,49.2630918 C480.912772,49.2630918 482.284263,50.6293504 482.284263,52.3143301 C482.284263,53.9993098 480.912772,55.3644806 479.221338,55.3644806" id="Fill-80" fill="#BCA9FF"></path>
                        <path d="M316.80532,111.172765 C315.113886,111.172765 313.743487,109.806507 313.743487,108.121527 C313.743487,106.436547 315.113886,105.071377 316.80532,105.071377 C318.496753,105.071377 319.868244,106.436547 319.868244,108.121527 C319.868244,109.806507 318.496753,111.172765 316.80532,111.172765" id="Fill-82" fill="#BCA9FF"></path>
                        <path d="M316.80532,67.0217277 L316.80532,97.5297598" id="Stroke-86" stroke="#BCA9FF" stroke-width="0.5" stroke-linecap="round" stroke-linejoin="round"></path>
                        <path d="M365.757513,9.00370933 C365.757513,13.7714732 361.877809,17.636375 357.092877,17.636375 C352.307944,17.636375 348.42824,13.7714732 348.42824,9.00370933 C348.42824,4.23703328 352.307944,0.372131418 357.092877,0.372131418 C361.877809,0.372131418 365.757513,4.23703328 365.757513,9.00370933 Z" id="Stroke-88" stroke="#BCA9FF" stroke-width="2"></path>
                        <path d="M357.985984,108.121853 L357.985984,8.81247664" id="Stroke-90" stroke="#BCA9FF" stroke-width="0.5" stroke-linecap="round" stroke-linejoin="round"></path>
                        <path d="M360.105899,9.00370933 C360.105899,10.6886891 358.734408,12.0549476 357.042974,12.0549476 C355.351541,12.0549476 353.981142,10.6886891 353.981142,9.00370933 C353.981142,7.31872959 355.351541,5.9535588 357.042974,5.9535588 C358.734408,5.9535588 360.105899,7.31872959 360.105899,9.00370933" id="Fill-92" fill="#BCA9FF"></path>
                    </g>
                </g>
                <g id="Group-21" transform="translate(40.986351, 0.874848)">
                    <path d="M87.4914333,3.93646793 C87.4914333,6.11084404 85.7014131,7.87273415 83.4946091,7.87273415 C81.285757,7.87273415 79.4967609,6.11084404 79.4967609,3.93646793 C79.4967609,1.76209181 81.285757,0.000201704649 83.4946091,0.000201704649 C85.7014131,0.000201704649 87.4914333,1.76209181 87.4914333,3.93646793" id="Fill-1" fill="#BCA9FF"></path>
                    <polyline id="Stroke-3" stroke="#BCA9FF" stroke-linecap="round" stroke-linejoin="round" points="54.5532193 33.8578398 69.0331306 33.8578398 69.0331306 3.83712839 82.3691903 3.83712839"></polyline>
                    <path d="M58.9652913,33.805094 C58.9652913,37.5164596 55.910583,40.5248844 52.1431435,40.5248844 C48.3746801,40.5248844 45.3199718,37.5164596 45.3199718,33.805094 C45.3199718,30.0937285 48.3746801,27.0863122 52.1431435,27.0863122 C55.910583,27.0863122 58.9652913,30.0937285 58.9652913,33.805094 Z" id="Stroke-5" stroke="#BCA9FF" stroke-width="0.536"></path>
                    <path d="M54.4491769,31.6388869 C55.6933843,32.8642427 55.6933843,34.8510335 54.4491769,36.0763892 C53.2049696,37.301745 51.1865887,37.301745 49.9434054,36.0763892 C48.699198,34.8510335 48.699198,32.8642427 49.9434054,31.6388869 C51.1865887,30.4135312 53.2049696,30.4135312 54.4491769,31.6388869" id="Fill-7" fill="#A375FC"></path>
                    <path d="M64.0095025,68.9566674 C64.0095025,79.1225817 55.6410559,87.3622166 45.319767,87.3622166 C34.998478,87.3622166 26.6310555,79.1225817 26.6310555,68.9566674 C26.6310555,58.7917616 34.998478,50.5511182 45.319767,50.5511182 C55.6410559,50.5511182 64.0095025,58.7917616 64.0095025,68.9566674 Z" id="Stroke-9" stroke="#BCA9FF" stroke-width="1.017" stroke-linecap="round" stroke-dasharray="0.375,1.873"></path>
                    <path d="M19.2098449,38.5818635 C19.2098449,43.6648207 15.0256216,47.7846381 9.86548919,47.7846381 C4.7043327,47.7846381 0.52113344,43.6648207 0.52113344,38.5818635 C0.52113344,33.4999149 4.7043327,29.3790889 9.86548919,29.3790889 C15.0256216,29.3790889 19.2098449,33.4999149 19.2098449,38.5818635 Z" id="Stroke-11" stroke="#BCA9FF" stroke-width="1.017" stroke-linecap="round" stroke-dasharray="0.512,1.535"></path>
                    <path d="M29.6651806,17.5175445 C29.6651806,20.4815943 27.2248957,22.8838967 24.2162691,22.8838967 C21.2066186,22.8838967 18.7663337,20.4815943 18.7663337,17.5175445 C18.7663337,14.5545032 21.2066186,12.1511923 24.2162691,12.1511923 C27.2248957,12.1511923 29.6651806,14.5545032 29.6651806,17.5175445 Z" id="Stroke-13" stroke="#BCA9FF" stroke-width="1.017" stroke-linecap="round"></path>
                    <path d="M15.4786565,68.9566674 L38.9127646,68.9566674" id="Stroke-15" stroke="#BCA9FF" stroke-linecap="round" stroke-linejoin="round"></path>
                    <path d="M42.541754,68.9566674 C42.541754,70.2929607 41.4419361,71.3761147 40.0861085,71.3761147 C38.7282328,71.3761147 37.6284149,70.2929607 37.6284149,68.9566674 C37.6284149,67.6203741 38.7282328,66.5382287 40.0861085,66.5382287 C41.4419361,66.5382287 42.541754,67.6203741 42.541754,68.9566674" id="Fill-17" fill="#BCA9FF"></path>
                    <path d="M17.5257104,68.9566674 C17.5257104,70.2919522 16.4269166,71.3740976 15.071089,71.3740976 C13.7152614,71.3740976 12.6164675,70.2919522 12.6164675,68.9566674 C12.6164675,67.6223912 13.7152614,66.5402457 15.071089,66.5402457 C16.4269166,66.5402457 17.5257104,67.6223912 17.5257104,68.9566674" id="Fill-19" fill="#BCA9FF"></path>
                </g>
            </g>
        </g>
    </g>
</svg>