<svg width="269" height="296" viewBox="0 0 269 296" fill="none" xmlns="http://www.w3.org/2000/svg">
	<path d="M190.188 2.75277C192.972 1.14508 196.403 1.14508 199.188 2.75278L306.696 64.823C309.481 66.4307 311.196 69.4019 311.196 72.6172V196.758C311.196 199.973 309.481 202.944 306.696 204.552L199.188 266.622C196.403 268.23 192.972 268.23 190.188 266.622L82.6787 204.552C79.8941 202.944 78.1787 199.973 78.1787 196.758V72.6172C78.1787 69.4019 79.8941 66.4307 82.6787 64.823L190.188 2.75277Z" stroke="#C8F4FA" stroke-width="2" />
	<path d="M63.8177 5.75277C66.6023 4.14508 70.0331 4.14508 72.8177 5.75278L107.26 25.6381C110.045 27.2458 111.76 30.217 111.76 33.4324V73.2031C111.76 76.4184 110.045 79.3896 107.26 80.9973L72.8177 100.883C70.0331 102.49 66.6023 102.49 63.8177 100.883L29.3753 80.9973C26.5907 79.3896 24.8753 76.4185 24.8753 73.2031V33.4324C24.8753 30.217 26.5907 27.2458 29.3753 25.6381L63.8177 5.75277Z" stroke="#E7EAF4" stroke-width="2" />
	<path d="M20.5938 246.598C22.1408 245.705 24.0467 245.705 25.5938 246.598L42.1916 256.181C43.7386 257.074 44.6916 258.725 44.6916 260.511V279.677C44.6916 281.463 43.7386 283.113 42.1916 284.007L25.5938 293.589C24.0467 294.483 22.1408 294.483 20.5938 293.589L3.9959 284.007C2.44889 283.113 1.4959 281.463 1.4959 279.677V260.511C1.4959 258.725 2.44889 257.074 3.9959 256.181L20.5938 246.598Z" stroke="#E8DDFD" stroke-width="2" />
</svg>
