<svg width="394" height="257" viewBox="0 0 394 257" fill="none" xmlns="http://www.w3.org/2000/svg">
	<g clip-path="url(#clip0)">
		<path d="M152.428 100.933C152.553 100.722 152.655 100.499 152.733 100.267C153.478 96.5062 156.085 94.2451 159.11 92.3223C159.856 91.8471 160.632 91.4214 161.435 91.0479C162.117 90.7322 162.326 90.3826 161.999 89.6495C160.165 85.6235 160.052 81.4678 160.746 77.1373C161.35 73.3481 162.354 69.5589 161.83 65.6569C161.558 63.5676 161.778 61.4437 162.473 59.4544C162.654 58.8749 162.983 58.3523 163.427 57.9376C164.905 56.6068 166.937 57.1031 167.264 59.0258C168.02 63.4015 170.221 67.0779 172.642 70.6415C175.401 74.707 176.27 79.2462 176.44 84.0165C176.383 84.529 176.435 85.0478 176.592 85.5389C177.015 85.5671 177.044 85.2288 177.156 84.9751C180.023 77.6279 183.781 70.6641 187.139 63.5311C188.81 59.9185 191.017 56.5785 193.685 53.624C194.171 53.0883 194.69 52.5808 195.22 52.0903C196.913 50.5227 198.16 50.7539 199.17 52.8402C199.848 54.2104 200.237 55.7046 200.863 57.0918C203.448 62.8771 203.634 68.995 203.724 75.1694C203.731 79.1965 203.194 83.206 202.127 87.0896C201.06 91.2826 198.966 95.1445 196.033 98.3275C195.871 98.4626 195.738 98.6283 195.641 98.815C195.544 99.0017 195.485 99.2057 195.467 99.4153C195.45 99.625 195.473 99.836 195.537 100.036C195.602 100.237 195.705 100.423 195.841 100.583C197.534 103.402 198.465 106.532 199.227 109.706C200.13 113.541 201.394 117.285 202.003 121.187C202.511 124.418 202.912 127.649 202.144 130.891C201.981 131.584 202.331 131.838 202.822 132.098C207.837 134.759 212.381 138.224 216.275 142.354C219.661 145.918 222.104 150.113 224.497 154.353C226.699 158.211 228.004 162.515 228.317 166.945C228.546 169.959 228.396 172.99 227.872 175.967C227.771 176.413 227.769 176.876 227.866 177.323C227.964 177.77 228.158 178.191 228.436 178.555C229.819 180.477 231.111 182.468 232.488 184.402C233.052 185.191 233.092 185.688 232.239 186.381C222.928 193.926 212.528 199.294 200.83 201.955C187.117 205.079 173.398 205.338 159.787 201.267C157.321 200.529 154.877 199.722 152.479 198.775C152.09 198.679 151.754 198.434 151.544 198.094C151.333 197.754 151.263 197.344 151.35 196.954C151.621 193.396 152.874 190.142 154.352 186.962C154.62 186.48 154.765 185.939 154.776 185.388C154.787 184.837 154.663 184.291 154.414 183.799C152.659 179.953 151.553 175.938 152.033 171.636C152.376 169.41 152.943 167.224 153.726 165.112C155.34 160.167 156.683 155.171 156.818 149.921C156.772 149.48 156.838 149.034 157.01 148.625C157.834 147.35 157.242 146.651 156.226 145.862C154.919 144.845 153.805 143.604 152.936 142.196C151.886 140.505 150.47 139.123 149.257 137.584C146.04 133.507 145.256 128.788 145.718 123.803C145.893 121.897 147.061 120.301 148.055 118.689C149.482 116.371 150.21 113.777 151 111.206C151.06 110.766 150.969 110.319 150.741 109.938C150.041 108.043 149.646 106.16 150.741 104.237C151.044 103.525 151.113 102.735 150.938 101.981C150.882 101.513 150.577 101.045 151.04 100.651C151.503 100.256 151.807 100.893 152.428 100.933Z" fill="white" />
		<path d="M113.078 120.375C113.336 123.228 113.4 126.095 113.27 128.957C112.959 134.269 111.385 139.293 110.059 144.379C109.744 145.624 109.368 146.853 108.93 148.061C108.089 150.316 109.122 153.79 111.013 155.391C113.569 157.562 115.967 159.902 117.604 162.845C119.782 166.753 121.131 170.937 120.854 175.493C120.806 175.807 120.857 176.128 121.002 176.41C121.147 176.693 121.378 176.922 121.661 177.066C123.653 178.365 125.322 180.101 126.543 182.141C128.834 185.665 130.798 189.37 133.314 192.792C135.419 195.668 136.666 199.17 137.925 202.564C138.961 205.263 139.806 208.031 140.453 210.847C140.526 211.208 140.69 211.609 140.425 211.896C139.68 212.703 140.148 213.12 140.775 213.735C144.381 217.264 143.794 216.554 141.215 219.666C139.561 221.64 137.857 223.568 136.396 225.694C136.034 226.231 135.533 226.658 134.945 226.929C133.523 227.583 132.124 228.31 130.656 228.846C125.358 230.792 120.346 233.571 114.658 234.395C110.595 234.959 106.453 235.725 102.429 235.314C99.6811 235.037 97.1529 235.562 94.5289 235.748C84.9088 236.459 75.2476 235.113 66.1888 231.801C65.3536 231.496 65.0602 231.034 65.2633 230.16C65.8822 227.664 66.2601 225.115 66.392 222.548C66.4172 220.551 66.0331 218.571 65.2633 216.729C63.4237 211.778 62.7634 206.686 64.699 201.544C65.2633 200.078 65.6978 198.572 66.2396 197.1C66.3173 196.971 66.3634 196.825 66.3744 196.674C66.3853 196.524 66.3606 196.373 66.3024 196.233C66.2442 196.094 66.1541 195.97 66.0393 195.872C65.9245 195.774 65.7882 195.704 65.6414 195.668C61.3075 193.853 58.5987 190.464 56.7816 186.308C55.9295 184.368 54.5864 182.643 54.3494 180.438C54.1422 179.042 54.1556 177.623 54.3889 176.232C54.8855 173.813 54.8573 171.36 55.0774 168.929C55.162 167.801 55.4913 166.704 56.0424 165.715C57.3042 163.429 58.4457 161.078 59.4621 158.673C59.7139 158.076 60.1001 157.545 60.5908 157.122C61.0522 156.729 61.4169 156.235 61.6566 155.679C61.8964 155.123 62.0047 154.519 61.9733 153.914C62.0693 152.59 62.0693 151.262 61.9733 149.938C61.567 146.989 63.1358 145.337 65.5173 144.164C66.7757 143.544 68.0623 142.963 69.3772 142.473C71.0994 141.787 72.6431 140.718 73.8917 139.349C74.8906 138.3 75.7709 137.139 76.9842 136.321C77.6727 135.853 77.6501 135.193 77.5485 134.488C77.1415 131.458 77.0809 128.392 77.3679 125.348C77.7499 122.148 78.7606 119.056 80.3419 116.247C81.3071 114.658 82.6406 113.323 84.2301 112.357C84.8341 111.982 85.5488 111.827 86.2539 111.917C86.959 112.008 87.6114 112.338 88.1013 112.853C89.5008 114.234 90.1102 115.768 89.3484 117.747C88.8421 119.194 88.6874 120.74 88.897 122.258C89.1119 124.817 89.5117 127.358 90.0933 129.859C90.2118 130.327 90.3755 130.677 90.8834 130.795C91.908 131.005 92.9168 131.286 93.9025 131.635C94.5909 131.906 94.8167 131.319 95.0311 130.84C95.7063 129.162 96.5002 127.534 97.4069 125.968C97.992 125.008 98.6746 124.11 99.4441 123.29C101.447 121.097 102.83 118.503 104.196 115.915C105.065 114.285 105.889 112.633 106.791 111.015C107.254 110.18 107.858 109.453 108.964 109.616C109.511 109.734 110.01 110.011 110.399 110.412C110.788 110.814 111.049 111.322 111.148 111.872C111.436 113.913 112.508 115.729 112.841 117.753C113.044 118.611 113.124 119.494 113.078 120.375Z" fill="white" />
		<path d="M297.339 77.2894C297.339 80.1426 297.435 83.007 296.363 85.7474C295.494 87.9635 294.173 89.9483 293.107 92.0628C291.414 95.446 289.625 98.8743 289.298 102.776C289.269 103.176 289.269 103.577 289.298 103.977C289.377 105.286 289.715 106.543 289.597 107.924C289.49 109.097 290.483 110.123 291.199 111.088C292.949 113.433 294.918 115.599 296.182 118.311C296.747 119.489 298.05 120.149 298.914 121.164C301.673 124.418 303.541 128.207 305.556 131.878C305.879 132.568 306.372 133.166 306.989 133.614C309.653 135.374 311.6 137.826 313.484 140.341C315.019 142.382 315.454 144.813 316.001 147.192C317.083 151.895 317.707 156.691 317.863 161.514C317.901 163.211 317.801 164.909 317.564 166.589C317.516 166.866 317.413 167.131 317.261 167.367C317.109 167.603 316.911 167.807 316.678 167.965C310.636 172.979 303.793 176.941 296.436 179.688C287.637 182.99 278.25 184.441 268.864 183.951C265.05 183.787 261.255 183.321 257.515 182.558C252.323 181.431 247.274 179.729 242.459 177.483C242.022 177.276 241.648 176.957 241.376 176.558C238.96 173.223 237.323 169.388 236.585 165.337C235.919 161.746 235.157 158.143 235.637 154.455C236.027 151.301 236.744 148.196 237.775 145.19C237.922 144.817 238.012 144.423 238.041 144.023C238.216 139.287 240.027 135.109 242.589 131.246C243.589 129.608 244.313 127.818 244.733 125.946C245.668 122.645 247.229 119.555 249.333 116.845C251.308 114.24 251.347 111.437 251.494 108.528C251.539 107.693 251.037 106.977 250.636 106.306C249.31 104.079 249.609 101.993 251.093 100.019C251.377 99.7091 251.531 99.3021 251.522 98.8822C251.514 98.4623 251.344 98.0617 251.048 97.7635C249.929 96.1904 248.673 94.7186 247.295 93.3653C244.908 91.1606 243.543 88.4258 242.561 85.3809C241.111 80.87 239.779 76.359 239.26 71.7015C238.887 68.3634 238.436 64.9971 238.972 61.6195C239.138 60.6624 239.524 59.7571 240.1 58.975C240.795 57.9939 241.833 58.1179 242.843 58.4111C243.073 58.4893 243.287 58.6077 243.475 58.7607C249.57 63.2717 255.585 67.8334 259.434 74.549C262.329 79.5957 265.246 84.6423 266.623 90.3937C266.951 91.7583 268.384 92.3842 269.767 91.8711C269.846 91.8429 269.908 91.7865 269.987 91.7639C271.956 91.2001 272.808 90.1456 272.893 87.8732C273.119 80.8644 276.126 74.7971 279.907 69.0457C281.758 66.2263 283.44 63.2942 285.189 60.4072C286.627 58.0353 288.584 56.019 290.912 54.5091C291.147 54.3162 291.445 54.2154 291.749 54.2258C292.053 54.2362 292.343 54.357 292.565 54.5655C293.219 55.0456 293.713 55.7119 293.981 56.477C294.67 58.8284 295.449 61.1571 296.024 63.531C297.031 68.045 297.473 72.6666 297.339 77.2894Z" fill="white" />
		<path d="M394.961 88.8036C394.961 96.4441 394.961 104.084 394.961 111.725C395.002 112.114 394.927 112.506 394.747 112.853C394.566 113.2 394.287 113.486 393.945 113.676C385.518 119.125 376.051 122.767 366.143 124.371C356.235 125.974 346.101 125.504 336.384 122.991L335.82 122.833C334.342 122.416 334.161 122.162 335.126 121.006C336.7 119.106 336.971 117.183 336.334 114.804C335.284 110.857 334.167 106.909 334.319 102.731C334.298 102.409 334.189 102.099 334.003 101.835C331.091 97.1038 329.455 92.012 329.59 86.4128C329.61 85.7997 329.41 85.1995 329.026 84.7212C326.923 82.0468 325.729 78.7716 325.617 75.3723C325.594 74.8923 325.392 74.4382 325.053 74.0979C319.872 68.307 319.122 61.7323 321.836 54.667C323.151 51.2838 325.07 48.1036 326.413 44.6979C326.542 44.4337 326.607 44.1427 326.602 43.8487C326.597 43.5546 326.523 43.2659 326.385 43.0062C325.487 41.2639 326.21 37.8638 327.75 36.6796C328.062 36.4633 328.316 36.1739 328.49 35.8367C328.665 35.4996 328.753 35.1249 328.749 34.7456C328.806 33.6186 328.806 32.4894 328.749 31.3624C328.654 30.7631 328.76 30.1493 329.05 29.6162C329.34 29.083 329.797 28.6602 330.352 28.4133C331.983 27.5562 333.653 26.7217 334.9 25.3008C335.128 25.0842 335.294 24.8102 335.379 24.5075C335.465 24.2048 335.467 23.8847 335.386 23.581C334.944 21.4976 334.696 19.3778 334.646 17.2487C334.471 14.3211 334.573 11.3834 334.951 8.47493C335.515 5.17066 337.078 3.40013 340.25 2.72912C341.943 2.37389 344.082 3.88505 344.121 5.61048C344.217 9.96355 345.515 13.9896 347.293 17.8972C347.456 18.2581 347.569 18.7655 348.054 18.7035C348.67 18.6246 348.517 18.0381 348.528 17.6265C348.607 15.0948 348.72 12.5517 348.715 10.0312C348.771 7.24611 349.409 4.50353 350.588 1.97917C351.604 -0.383441 353.89 -0.710484 355.351 1.4153C357.874 5.11428 360.029 9.03316 360.769 13.5385C361.169 15.9969 361.333 18.5062 362.704 20.7052C362.723 20.7405 362.736 20.7786 362.744 20.818C363.5 25.3966 365.864 29.5016 366.694 34.0577C366.739 34.5186 366.939 34.9508 367.26 35.2843C367.582 35.6179 368.007 35.8334 368.466 35.8959C369.679 36.1665 370.87 36.533 372.106 36.7473C373.889 37.0518 375.492 38.1288 375.768 39.8599C376.332 42.9104 378.398 44.8219 380.17 47.0153C382.151 49.4682 383.923 52.0451 384.944 55.0618C385.059 55.5311 385.315 55.954 385.678 56.2741C387.083 57.3511 388.414 58.5295 389.887 59.4994C391.851 60.7907 392.991 62.8826 394.735 64.3543C395.136 64.6926 394.955 65.2678 394.955 65.7358C394.962 73.4307 394.964 81.12 394.961 88.8036Z" fill="white" />
		<path d="M21.399 257C13.6904 256.932 7.96254 255.692 2.46608 253.29C1.41081 252.827 1.02143 252.241 1.45596 251.153C1.61961 250.741 1.70425 250.301 1.86791 249.895C2.27089 248.965 2.48209 247.964 2.48888 246.95C2.49566 245.937 2.2979 244.932 1.9074 243.997C0.338601 240.14 0.778773 236.103 1.66475 232.156C1.76069 231.722 1.81711 231.276 1.94126 230.859C2.47172 229.1 2.68617 227.425 1.14558 225.987C0.846587 225.653 0.650609 225.24 0.581263 224.797C-0.451439 219.576 -0.355504 214.484 2.47737 209.759C2.94212 208.959 3.52418 208.233 4.20418 207.605C4.59674 207.287 4.87622 206.85 5.00123 206.361C5.12625 205.871 5.09016 205.355 4.89829 204.887C4.32334 202.882 4.16775 200.781 4.4412 198.713C4.58792 196.948 4.09696 195.127 3.87688 193.334C3.71805 192.34 3.6745 191.332 3.74709 190.328C3.82405 189.524 3.67555 188.713 3.3182 187.988C3.01911 187.328 2.68053 186.686 2.38144 186.031C2.08235 185.377 1.63654 184.611 2.17828 183.996C2.72003 183.381 3.36335 184.064 3.92202 184.255C5.43185 184.728 6.77625 185.62 7.79888 186.827C9.35577 188.669 11.0256 190.413 12.7987 192.048C13.0213 192.301 13.3124 192.484 13.6369 192.575C13.9614 192.666 14.3053 192.661 14.6271 192.561C17.2492 191.909 19.967 191.731 22.6517 192.037C22.909 192.067 23.1697 192.036 23.4129 191.947C23.656 191.858 23.8747 191.713 24.0512 191.524C26.9293 188.84 29.8186 186.161 32.516 183.308C33.8734 181.763 35.5688 180.551 37.4707 179.767C38.6953 179.31 39.553 179.823 39.3273 181.047C38.4526 185.8 39.1129 190.7 37.8657 195.409C37.1152 198.228 36.0317 200.974 35.1006 203.754C34.5927 205.282 34.4008 206.573 35.569 208.107C37.3804 210.453 38.9154 213.041 38.9549 216.193C38.9549 216.909 39.5643 217.321 40.0835 217.71C43.0123 220.14 45.6703 222.818 47.5381 226.168C48.5639 227.985 49.8682 229.631 51.4037 231.045C52.306 231.914 53.0055 232.971 53.4522 234.141C53.7378 235.066 54.3135 235.874 55.0944 236.447C55.7208 236.847 55.7264 237.366 55.3088 237.992C50.2602 245.644 42.8437 251.435 34.192 254.479C29.5421 256.126 24.7002 257.068 21.399 257Z" fill="white" />
	</g>
	<defs>
		<clipPath id="clip0">
			<rect width="395" height="257" fill="white" />
		</clipPath>
	</defs>
</svg>
