<svg width="401" height="280" viewBox="0 0 401 280" fill="none" xmlns="http://www.w3.org/2000/svg">
	<g clip-path="url(#clip0)">
		<path d="M291.422 257.067C285.191 256.858 279.009 255.872 273.021 254.133C267.692 252.675 262.542 250.625 257.668 248.021C251.913 244.936 246.596 241.094 241.857 236.598C241.187 235.978 240.555 235.289 239.849 234.706C239.396 234.348 239.051 233.872 238.851 233.33C238.651 232.788 238.604 232.201 238.715 231.634C239.279 225.208 241.586 219.059 245.388 213.852C248.096 210.185 251.051 206.704 254.062 203.26C256.757 200.158 259.459 197.055 262.234 194.021C263.214 192.97 264.295 192.018 265.462 191.18C266.701 190.261 267.005 188.698 267.117 187.345C267.612 181.643 270.661 177.225 274.149 173.111C275.245 171.821 275.27 171.027 274.768 169.631C273.266 165.363 271.294 161.275 268.889 157.445C265.989 152.903 264.737 147.815 264.099 142.485C263.48 137.372 264.49 132.44 265.084 127.432C265.582 123.994 266.431 120.615 267.618 117.35C267.905 116.42 268.403 115.571 269.074 114.868C270.258 113.664 271.423 113.801 272.315 115.228C275.004 119.54 278.015 123.629 280.989 127.755C282.339 129.616 284.087 131.205 285.567 132.992C288.101 136.051 290.524 139.197 291.243 143.261C291.348 143.881 291.714 144.191 292.339 144.049C294.58 143.552 296.896 143.503 299.155 143.906C300.394 144.104 301.205 143.689 301.806 142.473C303.086 139.849 304.769 137.443 306.794 135.343C309.855 132.179 312.116 128.456 314.39 124.727C315.133 123.397 316.087 122.196 317.215 121.172C317.852 120.62 318.628 120.253 319.458 120.111C320.982 119.844 321.998 120.731 322.054 122.307C322.147 125.155 321.472 127.892 320.716 130.578C319.43 134.88 318.67 139.322 318.454 143.807C318.374 146.406 318.454 149.012 317.891 151.575C317.748 152.251 318.225 152.481 318.721 152.71C319.853 153.133 320.901 153.753 321.819 154.541C322.959 155.639 324.136 156.539 324.334 158.394C324.514 160.094 325.908 161.409 326.744 162.911C328.07 165.318 328.665 167.993 329.731 170.493C330.208 171.61 330.74 172.776 332.141 173.118C332.686 173.248 332.76 173.806 332.897 174.266C333.845 177.405 334.811 180.545 335.728 183.697C336.253 185.252 336.953 186.743 337.816 188.139C338.016 188.391 338.166 188.68 338.256 188.989C338.522 191.738 338.82 194.499 336.856 196.857C335.422 198.531 334.119 200.313 332.959 202.187C331.484 204.526 329.677 206.638 327.593 208.454C326.819 209.167 326.354 210.123 325.604 210.849C323.913 212.499 324.545 214.466 324.836 216.34C325.301 219.354 325.301 222.422 324.836 225.436C324.555 227.448 324.827 229.499 325.623 231.368C327.19 235.456 328.504 239.638 328.869 244.013C329.291 249.063 329.873 248.027 325.474 250.093C316.52 254.26 306.838 256.629 296.974 257.067C295.338 257.142 293.696 257.067 291.422 257.067Z" fill="white" />
		<path d="M138.307 76.8516C141.163 74.3325 143.344 76.8516 145.81 77.2797C145.914 76.6347 145.831 75.9733 145.569 75.3749C144.869 72.955 145.141 70.529 145.389 68.0905C146.238 59.77 149.175 52.1568 153.239 44.9408C154.775 42.2169 156.033 39.3565 157.576 36.6265C158.778 34.461 160.098 32.3576 161.479 30.3039C162.551 28.7154 163.747 28.8395 164.726 30.4776C166.176 32.9098 166.25 35.5717 166.039 38.2769C165.855 41.081 165.356 43.8554 164.552 46.5478C163.604 49.6502 163.419 52.858 163.022 56.0286C162.607 59.3295 161.832 62.5684 161.492 65.8755C161.276 67.5854 161.305 69.3175 161.578 71.0192C162.625 76.7709 163.233 82.5537 161.702 88.2993C161.046 90.7502 161.523 93.3437 160.463 95.7449C160.191 96.3654 160.463 97.172 160.655 97.867C161.272 99.8341 161.272 101.943 160.655 103.91C160.5 104.279 160.487 104.693 160.619 105.071C160.75 105.449 161.017 105.765 161.368 105.958C162.452 106.777 163.716 107.435 164.497 108.558C166.764 111.828 169.453 115.054 169.261 119.292C169.001 125.279 168.573 131.292 165.798 136.82C165.114 137.997 164.344 139.121 163.493 140.183C163.251 140.531 163.028 140.804 163.288 141.257C164.868 143.943 164.955 146.983 165.296 149.943C165.718 154.573 165.859 159.225 165.717 163.873C165.717 165.988 166.677 167.831 167.223 169.786C168.455 174.511 169.298 179.33 169.744 184.193C169.831 185.012 169.422 185.341 168.734 185.564C165.429 186.659 162.058 187.546 158.642 188.22C150.412 189.815 141.989 190.143 133.66 189.194C125.948 188.326 118.388 186.422 111.182 183.535C102.338 179.966 94.1658 174.911 87.019 168.588C85.4143 167.198 85.4143 167.205 86.3994 165.349C88.4145 161.792 90.8076 158.464 93.5369 155.422C95.5195 153.12 97.403 150.719 99.7698 148.777C100.181 148.395 100.624 148.05 101.096 147.747C104.41 145.935 105.606 142.442 107.558 139.563C109.138 137.242 110.656 134.866 112.651 132.893C112.772 132.808 112.875 132.7 112.952 132.575C113.03 132.449 113.08 132.309 113.101 132.163C113.122 132.016 113.113 131.867 113.074 131.725C113.035 131.583 112.967 131.45 112.874 131.335C112.101 130.085 111.632 128.672 111.503 127.207C111.374 125.743 111.589 124.269 112.13 122.903C112.513 121.761 112.535 120.528 112.192 119.372C111.399 116.27 112.595 113.701 114.379 111.306C116.498 108.465 118.84 105.84 121.938 104.022C122.169 103.913 122.361 103.736 122.487 103.514C122.614 103.291 122.669 103.036 122.644 102.781C122.592 101.855 122.73 100.928 123.047 100.057C123.425 98.8662 123.348 97.5771 122.83 96.4399C122.808 96.4062 122.793 96.3681 122.787 96.3282C122.824 94.1131 121.399 92.7046 119.993 91.29C119.029 90.2126 118.303 88.9442 117.861 87.5671C116.424 83.9374 114.026 80.9343 111.467 78.0429C106.69 72.6324 103.803 66.4401 103.977 59.0813C104.076 54.8063 103.252 50.6305 102.8 46.4175C102.502 43.6378 102.18 40.8332 103.066 38.0784C104.026 35.0691 105.544 34.6161 107.762 36.9367C110.089 39.3144 112.837 41.2375 115.866 42.6078C121.126 45.1455 125.042 49.2841 128.19 54.0989C130.984 58.3864 133.623 62.7855 135.178 67.7493C136.12 70.6593 137.607 73.3894 138.307 76.8516Z" fill="white" />
		<path d="M32.8865 62.2207C29.3425 60.3593 29.894 56.9653 29.1691 54.1546C28.946 53.2611 29.2248 52.1877 29.0947 51.1887C29.0147 50.4485 28.7876 49.7318 28.4269 49.0807C28.0662 48.4297 27.5791 47.8574 26.9944 47.3977C23.9275 44.9778 21.4182 42.0306 18.7169 39.2136C17.1762 37.4608 16.0646 35.3725 15.4703 33.1144C13.2956 26.01 12.0069 18.7629 12.5707 11.3111C12.8061 8.16527 13.1903 5.00087 15.3526 2.38868C16.1865 1.38549 17.2969 0.650448 18.5453 0.275279C19.7936 -0.0998895 21.1247 -0.0985618 22.3724 0.279085C27.5892 1.77442 31.2261 5.13117 34.1442 9.58615C37.9608 15.462 40.7303 21.8467 43.5741 28.2003C44.8133 30.98 46.0215 33.7845 47.019 36.6449C47.0986 36.933 47.2411 37.1998 47.4361 37.4262C47.631 37.6526 47.8737 37.8329 48.1466 37.9541C49.0945 38.3884 49.4601 39.3501 49.8008 40.2312C50.4204 41.8258 51.3932 42.3408 53.1589 42.3842C53.8814 42.4647 54.6115 42.3312 55.2591 42.0004C55.9066 41.6695 56.443 41.1558 56.802 40.5228C57.0127 40.1816 57.3163 39.9024 57.4959 39.5425C59.4786 35.6708 62.7066 33.133 66.3992 31.0545C67.5258 30.4383 68.5866 29.7085 69.5652 28.8766C72.5082 26.3078 75.9097 24.4092 79.1005 22.2003C80.2043 21.3231 81.5434 20.794 82.948 20.6802C84.5341 20.6429 85.0855 21.3875 84.466 22.8766C83.9508 23.9233 83.3278 24.9131 82.6072 25.8301C80.8662 28.374 78.611 30.5705 77.3966 33.4495C75.3974 37.9524 73.6273 42.554 72.0931 47.2363C71.8453 48.0491 72.186 48.4276 72.787 48.7875C74.782 49.9788 76.8824 51.077 78.3632 52.9198C80.1104 55.1039 81.8204 57.3562 82.3098 60.229C82.7002 62.5558 84.373 64.0821 85.7485 65.7698C86.8513 67.1224 87.6382 68.5123 87.6072 70.3117C87.5452 74.779 87.4027 79.2216 85.1289 83.2671C84.676 84.2546 84.046 85.1505 83.2702 85.9103C81.3326 87.58 79.6611 89.5364 78.3136 91.7117C76.2566 94.8513 73.2951 95.2484 69.9741 94.5286C69.7892 94.4726 69.591 94.4786 69.4098 94.5458C69.2286 94.613 69.0743 94.7377 68.9704 94.9009C67.2542 96.8492 65.3088 98.481 62.7747 99.2442C62.5591 99.2934 62.371 99.4242 62.2497 99.6093C62.1284 99.7944 62.0834 100.019 62.1242 100.237C62.3083 104.859 61.4947 109.466 59.7388 113.745C59.4228 114.514 59.7016 115.333 59.6459 116.133C59.3051 121.259 57.9049 126.142 56.2692 130.975C55.439 133.457 54.4786 135.864 53.4997 138.278C53.3838 138.677 53.1378 139.026 52.801 139.269C52.4641 139.512 52.0557 139.635 51.641 139.618C33.1771 140.447 15.0413 134.531 0.606756 122.971C0.40244 122.822 0.238674 122.624 0.130438 122.395C0.0222026 122.167 -0.0270488 121.915 -0.012817 121.662C-0.012817 110.357 -0.012817 99.0498 -0.012817 87.7407C-0.0382877 87.4672 0.013213 87.1921 0.135856 86.9465C0.258498 86.7008 0.447378 86.4945 0.681102 86.3508C2.05054 85.3724 3.51871 84.5406 5.06149 83.8689C5.67192 83.6577 6.21367 83.2846 6.62901 82.7893C8.76034 79.9289 11.7343 78.2102 14.8631 76.7211C16.0628 76.1774 17.1447 75.4038 18.0477 74.444C19.4953 72.8828 21.1656 71.5446 23.0043 70.473C23.4256 70.2248 23.8841 69.9766 23.9461 69.4554C24.3364 65.9932 26.92 64.6405 29.6709 63.4492C30.5879 63.0646 31.5234 62.7481 32.8865 62.2207Z" fill="white" />
		<path d="M218.269 123.846C218.697 121.941 218.889 120.074 219.316 118.262C219.414 117.707 219.607 117.174 219.886 116.686C220.921 115.097 222.476 115.172 223.536 116.736C225.654 119.873 226.923 123.508 227.216 127.284C227.216 127.439 227.266 127.6 227.278 127.755C227.451 130.101 228.127 131.757 230.847 132.471C233.852 133.259 236.51 135.077 239 136.988C241.838 139.166 243.158 142.318 243.56 145.674C243.806 148.089 244.368 150.461 245.233 152.729C247.092 157.395 246.596 161.943 244.174 166.262C243.639 167.286 243.399 168.44 243.48 169.593C243.48 170.493 243.108 170.679 242.296 170.599C240.568 170.425 239.744 170.927 238.945 172.46C238.003 174.272 237.044 176.075 236.07 177.871C235.916 178.08 235.819 178.325 235.79 178.583C235.76 178.841 235.799 179.103 235.902 179.341C236.466 180.532 236.993 181.755 237.625 182.909C241.906 190.733 242.402 198.557 237.303 206.176C235.862 208.329 234.673 210.64 233.759 213.064C233.614 213.54 233.339 213.966 232.966 214.295C232.593 214.624 232.136 214.842 231.646 214.925C220.99 217.478 209.824 216.878 199.502 213.199C189.18 209.519 180.147 202.917 173.499 194.195C173.117 193.79 172.876 193.273 172.811 192.719C172.746 192.166 172.861 191.606 173.14 191.124C175.915 185.478 180.017 180.911 184.596 176.729C185.778 175.714 186.864 174.592 187.842 173.378C189.034 171.864 190.415 170.509 191.95 169.345C192.513 168.896 192.926 168.286 193.133 167.596C193.424 166.708 193.493 166.168 192.284 166.094C191.411 166.038 191.733 165.405 192.018 164.946C193.11 163.123 194.41 161.432 195.89 159.908C197.13 158.667 197.13 158.462 195.636 157.668C194.794 157.215 194.397 156.756 195.37 156.024C195.477 155.963 195.568 155.876 195.633 155.771C195.698 155.665 195.736 155.545 195.743 155.422C195.749 155.298 195.725 155.175 195.672 155.063C195.619 154.952 195.538 154.855 195.438 154.783C195.252 154.574 195.084 154.35 194.936 154.113C194.032 152.686 194.087 152.413 195.463 151.364C196.907 150.156 198.473 149.102 200.134 148.218C201.262 147.678 201.324 147.046 200.562 146.022C199.8 144.998 199.769 144.899 201.02 144.471C201.95 144.148 202.185 143.447 202.136 142.572C202.014 140.168 201.597 137.788 200.897 135.486C199.763 131.887 198.641 128.27 198.586 124.467C198.524 119.794 199.583 115.433 202.514 111.629C203.666 110.121 205.141 108.936 206.293 107.447C206.499 107.162 206.804 106.965 207.148 106.893C207.492 106.822 207.85 106.882 208.152 107.062C210.667 108.068 212.371 109.991 213.616 112.262C215.549 115.811 217.408 119.416 218.17 123.43C218.189 123.572 218.223 123.711 218.269 123.846Z" fill="white" />
		<path d="M371.868 280C363.032 279.833 354.438 277.086 347.14 272.095C340.652 267.824 335.35 261.975 331.732 255.094C331.439 254.574 331.357 253.961 331.502 253.382C332.828 247.494 336.211 242.97 340.691 239.111C343.004 237.19 345.639 235.694 348.473 234.693C350.908 233.769 352.81 232.038 354.916 230.555C355.03 230.474 355.122 230.367 355.185 230.243C355.247 230.118 355.279 229.98 355.275 229.841C355.251 228.087 355.399 226.336 355.715 224.611C355.789 224.338 355.767 224.05 355.654 223.791C355.542 223.533 355.345 223.321 355.096 223.19C350.973 219.993 348.081 215.466 346.911 210.377C346.269 207.649 346.713 204.778 348.15 202.373C348.386 201.873 348.808 201.485 349.326 201.294C349.844 201.102 350.416 201.122 350.92 201.349C354.326 202.651 357.855 203.604 361.453 204.191C363.2 204.514 364.346 205.692 365.207 207.138C365.74 208.019 366.279 208.218 367.27 207.833C368.262 207.448 368.262 206.766 368.088 205.916C367.776 204.255 367.913 202.542 368.485 200.952C368.886 199.691 369.167 198.395 369.321 197.08C369.466 196.049 369.728 195.037 370.102 194.065C371.341 190.584 374.389 191.012 376.545 193.146C378.497 195.07 379.024 197.366 378.466 199.972C378.366 200.32 378.339 200.686 378.386 201.045C378.85 203.148 378.317 205.097 377.537 207.014C377.308 207.585 377.493 207.889 378.032 208.143C379.165 208.652 380.21 209.337 381.13 210.172C381.408 210.403 381.741 210.559 382.097 210.625C388.949 212.282 393.404 216.613 395.882 223.103C396.151 223.808 396.574 224.445 397.121 224.964C398.554 226.285 399.641 227.937 400.289 229.775C400.937 231.614 401.126 233.584 400.839 235.512C400.61 237.262 399.463 238.441 398.125 239.303C396.787 240.166 396.397 241.394 395.969 242.598C395.411 244.155 394.563 245.309 393.051 245.862C390.858 246.662 390.058 248.772 388.67 250.323C388.348 250.683 388.633 250.987 388.931 251.235C389.668 251.855 390.393 252.476 391.143 253.096C392.699 254.386 393.757 256.178 394.135 258.166C394.848 260.761 395.108 263.461 394.903 266.145C394.73 267.727 395.442 269.117 396.025 270.488C397.221 273.367 397.208 273.336 394.482 274.745C387.809 278.263 380.666 279.913 371.868 280Z" fill="white" />
	</g>
	<defs>
		<clipPath id="clip0">
			<rect width="401" height="280" fill="white" />
		</clipPath>
	</defs>
</svg>
