<svg width="1300" height="536" viewBox="0 0 1300 536" fill="none" xmlns="http://www.w3.org/2000/svg">
	<path d="M1176.48 281.753C1179.26 280.145 1182.69 280.145 1185.48 281.753L1250.81 319.469C1253.59 321.077 1255.31 324.048 1255.31 327.263V402.695C1255.31 405.911 1253.59 408.882 1250.81 410.489L1185.48 448.206C1182.69 449.813 1179.26 449.813 1176.48 448.206L1111.15 410.489C1108.37 408.882 1106.65 405.911 1106.65 402.695V327.263C1106.65 324.048 1108.37 321.077 1111.15 319.469L1176.48 281.753Z" stroke="#D5D7E2" stroke-width="2" />
	<path d="M149.818 2.75277C152.602 1.14508 156.033 1.14508 158.818 2.75278L193.26 22.6381C196.045 24.2458 197.76 27.217 197.76 30.4324V70.2031C197.76 73.4184 196.045 76.3896 193.26 77.9973L158.818 97.8826C156.033 99.4903 152.602 99.4903 149.818 97.8826L115.375 77.9973C112.591 76.3896 110.875 73.4185 110.875 70.2031V30.4324C110.875 27.217 112.591 24.2458 115.375 22.6381L149.818 2.75277Z" stroke="#D5D7E2" stroke-width="2" />
	<path d="M1250.82 437.753C1253.6 436.145 1257.03 436.145 1259.82 437.753L1294.26 457.638C1297.04 459.246 1298.76 462.217 1298.76 465.432V505.203C1298.76 508.418 1297.04 511.39 1294.26 512.997L1259.82 532.883C1257.03 534.49 1253.6 534.49 1250.82 532.883L1216.38 512.997C1213.59 511.39 1211.88 508.418 1211.88 505.203V465.432C1211.88 462.217 1213.59 459.246 1216.38 457.638L1250.82 437.753Z" stroke="#B88DFC" stroke-width="2" />
	<path d="M107.594 436.598C109.141 435.705 111.047 435.705 112.594 436.598L129.192 446.181C130.739 447.074 131.692 448.725 131.692 450.511V469.677C131.692 471.463 130.739 473.113 129.192 474.007L112.594 483.589C111.047 484.483 109.141 484.483 107.594 483.589L90.9959 474.007C89.4489 473.113 88.4959 471.463 88.4959 469.677V450.511C88.4959 448.725 89.4489 447.074 90.9959 446.181L107.594 436.598Z" stroke="#97E3EE" stroke-width="2" />
	<path d="M70 28.7528C72.7846 27.1451 76.2154 27.1451 79 28.7528L143.045 65.7293C145.83 67.337 147.545 70.3081 147.545 73.5235V147.477C147.545 150.692 145.83 153.663 143.045 155.271L79 192.247C76.2154 193.855 72.7846 193.855 70 192.247L5.95482 155.271C3.17021 153.663 1.45483 150.692 1.45483 147.477V73.5235C1.45483 70.3081 3.17022 67.337 5.95483 65.7293L70 28.7528Z" stroke="#CFBEE9" stroke-width="2" />
</svg>
