<svg width="1200" height="209" viewBox="0 0 1200 209" fill="none" xmlns="http://www.w3.org/2000/svg">
<path d="M56 3.75278C58.7846 2.14508 62.2154 2.14508 65 3.75278L98.7343 23.2293C101.519 24.837 103.234 27.8081 103.234 31.0235V69.9765C103.234 73.1919 101.519 76.163 98.7343 77.7707L65 97.2472C62.2154 98.8549 58.7846 98.8549 56 97.2472L22.2657 77.7707C19.4811 76.163 17.7657 73.1919 17.7657 69.9765V31.0235C17.7657 27.8081 19.4811 24.837 22.2657 23.2293L56 3.75278Z" stroke="#5F45BA" stroke-width="2"/>
<path d="M1087.5 43.7528C1090.28 42.1451 1093.72 42.1451 1096.5 43.7528L1157.51 78.9793C1160.3 80.587 1162.01 83.5581 1162.01 86.7735V157.227C1162.01 160.442 1160.3 163.413 1157.51 165.021L1096.5 200.247C1093.72 201.855 1090.28 201.855 1087.5 200.247L1026.49 165.021C1023.7 163.413 1021.99 160.442 1021.99 157.226V86.7735C1021.99 83.5581 1023.7 80.587 1026.49 78.9793L1087.5 43.7528Z" stroke="#5F45BA" stroke-width="2"/>
<path d="M1161.5 38.7528C1164.28 37.1451 1167.72 37.1451 1170.5 38.7528L1189.94 49.9793C1192.73 51.587 1194.44 54.5581 1194.44 57.7735V80.2265C1194.44 83.4419 1192.73 86.413 1189.94 88.0207L1170.5 99.2472C1167.72 100.855 1164.28 100.855 1161.5 99.2472L1142.06 88.0207C1139.27 86.413 1137.56 83.4419 1137.56 80.2265V57.7735C1137.56 54.5581 1139.27 51.587 1142.06 49.9793L1161.5 38.7528Z" stroke="#AA7EFF" stroke-width="2"/>
<path d="M987.5 32.5981C989.047 31.7049 990.953 31.7049 992.5 32.5981L999.49 36.634C1001.04 37.5271 1001.99 39.1778 1001.99 40.9641V49.0359C1001.99 50.8222 1001.04 52.4729 999.49 53.366L992.5 57.4019C990.953 58.2951 989.047 58.2951 987.5 57.4019L980.51 53.366C978.963 52.4729 978.01 50.8222 978.01 49.0359V40.9641C978.01 39.1778 978.963 37.5271 980.51 36.634L987.5 32.5981Z" stroke="#381E80" stroke-width="2"/>
<path d="M165.5 56.7528C168.285 55.1451 171.715 55.1451 174.5 56.7528L232.05 89.9793C234.835 91.587 236.55 94.5581 236.55 97.7735V164.226C236.55 167.442 234.835 170.413 232.05 172.021L174.5 205.247C171.715 206.855 168.285 206.855 165.5 205.247L107.95 172.021C105.165 170.413 103.45 167.442 103.45 164.227V97.7735C103.45 94.5581 105.165 91.587 107.95 89.9793L165.5 56.7528Z" stroke="#8C61E1" stroke-width="2"/>
<path d="M15.5 8.75278C18.2846 7.14508 21.7154 7.14508 24.5 8.75278L31.8205 12.9793C34.6051 14.587 36.3205 17.5581 36.3205 20.7735V29.2265C36.3205 32.4419 34.6051 35.413 31.8205 37.0207L24.5 41.2472C21.7154 42.8549 18.2846 42.8549 15.5 41.2472L8.17949 37.0207C5.39488 35.413 3.67949 32.4419 3.67949 29.2265V20.7735C3.67949 17.5581 5.39488 14.587 8.17949 12.9793L15.5 8.75278Z" stroke="#AA7EFF" stroke-width="2"/>
</svg>
