<?xml version="1.0" encoding="utf-8"?>
<!-- Generator: Adobe Illustrator 25.0.0, SVG Export Plug-In . SVG Version: 6.00 Build 0)  -->
<svg version="1.1" id="Layer_1" xmlns="http://www.w3.org/2000/svg" xmlns:xlink="http://www.w3.org/1999/xlink" x="0px" y="0px"
	 viewBox="0 0 238 224" style="enable-background:new 0 0 238 224;" xml:space="preserve">
<style type="text/css">
	.st0{fill:none;stroke:#E8DDFD;stroke-width:2;}
	.st1{fill:none;stroke:#98F2FF;stroke-width:2;}
</style>
<path class="st0" d="M94.7,6.6c2.7-1.6,6-1.6,8.7,0l84.8,48.9c2.7,1.6,4.3,4.4,4.3,7.5v97.9c0,3.1-1.7,6-4.3,7.5l-84.8,48.9
	c-2.7,1.6-6,1.6-8.7,0L9.9,168.5c-2.7-1.6-4.3-4.4-4.3-7.5V63.1c0-3.1,1.7-6,4.3-7.5L94.7,6.6z"/>
<path class="st1" d="M193.1,19.1c2.7-1.6,6-1.6,8.7,0l26.3,15.2c2.7,1.6,4.3,4.4,4.3,7.5v30.3c0,3.1-1.7,6-4.3,7.5l-26.3,15.2
	c-2.7,1.6-6,1.6-8.7,0l-26.3-15.2c-2.7-1.6-4.3-4.4-4.3-7.5V41.8c0-3.1,1.7-6,4.3-7.5L193.1,19.1z"/>
</svg>
