<svg width="570" height="280" viewBox="0 0 570 280" fill="none" xmlns="http://www.w3.org/2000/svg" xmlns:xlink="http://www.w3.org/1999/xlink">
	<path d="M429.278 3.75278C432.062 2.14508 435.493 2.14508 438.278 3.75278L505.258 42.4237C508.042 44.0314 509.758 47.0026 509.758 50.2179V127.56C509.758 130.775 508.042 133.746 505.258 135.354L438.278 174.025C435.493 175.633 432.062 175.633 429.278 174.025L362.298 135.354C359.513 133.746 357.798 130.775 357.798 127.56V50.2179C357.798 47.0026 359.513 44.0314 362.298 42.4237L429.278 3.75278Z" stroke="#5F45BA" stroke-width="2" />
	<path d="M401.722 121.086C404.507 119.479 407.938 119.479 410.722 121.086L460.767 149.979C463.551 151.587 465.267 154.558 465.267 157.774V215.56C465.267 218.775 463.551 221.747 460.767 223.354L410.722 252.247C407.938 253.855 404.507 253.855 401.722 252.247L351.678 223.354C348.893 221.747 347.178 218.775 347.178 215.56V157.774C347.178 154.558 348.893 151.587 351.678 149.979L401.722 121.086Z" stroke="#8C61E1" stroke-width="2" />
	<path d="M509.278 81.086C512.062 79.4783 515.493 79.4783 518.278 81.086L546.768 97.5347C549.552 99.1424 551.268 102.114 551.268 105.329V138.226C551.268 141.442 549.552 144.413 546.768 146.021L518.278 162.469C515.493 164.077 512.062 164.077 509.278 162.469L480.788 146.021C478.003 144.413 476.288 141.442 476.288 138.226V105.329C476.288 102.114 478.003 99.1424 480.788 97.5347L509.278 81.086Z" stroke="#AA7EFF" stroke-width="2" />
	<path d="M464.389 129.086C467.173 127.479 470.604 127.479 473.389 129.086L486.098 136.424C488.883 138.032 490.598 141.003 490.598 144.218V158.893C490.598 162.109 488.883 165.08 486.098 166.688L473.389 174.025C470.604 175.633 467.173 175.633 464.389 174.025L451.68 166.688C448.895 165.08 447.18 162.109 447.18 158.893V144.218C447.18 141.003 448.895 138.032 451.68 136.424L464.389 129.086Z" stroke="#4FE9FF" stroke-width="2" />
	<path d="M553.944 47.0424C555.491 46.1492 557.397 46.1492 558.944 47.0424L564.491 50.245C566.038 51.1381 566.991 52.7888 566.991 54.5751V60.9802C566.991 62.7666 566.038 64.4172 564.491 65.3104L558.944 68.5129C557.397 69.4061 555.491 69.4061 553.944 68.5129L548.397 65.3104C546.85 64.4172 545.897 62.7666 545.897 60.9802V54.5751C545.897 52.7888 546.85 51.1381 548.397 50.245L553.944 47.0424Z" stroke="#381E80" stroke-width="2" />
	<path d="M131.5 3.75278C134.285 2.14508 137.715 2.14508 140.5 3.75278L207.48 42.4237C210.265 44.0314 211.98 47.0026 211.98 50.2179V127.56C211.98 130.775 210.265 133.746 207.48 135.354L140.5 174.025C137.715 175.633 134.285 175.633 131.5 174.025L64.5199 135.354C61.7353 133.746 60.0199 130.775 60.0199 127.56V50.2179C60.0199 47.0026 61.7353 44.0314 64.5199 42.4237L131.5 3.75278Z" stroke="#5F45BA" stroke-width="2" />
	<path d="M151.055 121.086C153.84 119.479 157.271 119.479 160.055 121.086L210.1 149.979C212.885 151.587 214.6 154.558 214.6 157.774V215.56C214.6 218.775 212.885 221.747 210.1 223.354L160.055 252.247C157.271 253.855 153.84 253.855 151.055 252.247L101.011 223.354C98.2265 221.747 96.5111 218.775 96.5111 215.56V157.774C96.5111 154.558 98.2265 151.587 101.011 149.979L151.055 121.086Z" stroke="#8C61E1" stroke-width="2" />
	<path d="M51.5 81.086C54.2846 79.4783 57.7154 79.4783 60.5 81.086L88.99 97.5347C91.7746 99.1424 93.49 102.114 93.49 105.329V138.226C93.49 141.442 91.7746 144.413 88.99 146.021L60.5 162.469C57.7154 164.077 54.2846 164.077 51.5 162.469L23.01 146.021C20.2254 144.413 18.51 141.442 18.51 138.226V105.329C18.51 102.114 20.2254 99.1424 23.01 97.5347L51.5 81.086Z" stroke="#AA7EFF" stroke-width="2" />
	<path d="M88.3888 129.086C91.1735 127.479 94.6042 127.479 97.3888 129.086L110.098 136.424C112.883 138.032 114.598 141.003 114.598 144.218V158.893C114.598 162.109 112.883 165.08 110.098 166.688L97.3888 174.025C94.6042 175.633 91.1735 175.633 88.3888 174.025L75.6797 166.688C72.8951 165.08 71.1797 162.109 71.1797 158.893V144.218C71.1797 141.003 72.8951 138.032 75.6797 136.424L88.3888 129.086Z" stroke="#4FE9FF" stroke-width="2" />
	<path d="M10.8333 47.0424C12.3803 46.1492 14.2863 46.1492 15.8333 47.0424L21.3803 50.245C22.9273 51.1381 23.8803 52.7888 23.8803 54.5751V60.9802C23.8803 62.7666 22.9273 64.4172 21.3803 65.3104L15.8333 68.5129C14.2863 69.4061 12.3803 69.4061 10.8333 68.5129L5.28632 65.3104C3.73932 64.4172 2.78633 62.7666 2.78633 60.9802V54.5751C2.78633 52.7888 3.73932 51.1381 5.28633 50.245L10.8333 47.0424Z" stroke="#381E80" stroke-width="2" />
</svg>
