<svg width="195" height="257" viewBox="0 0 195 257" fill="none" xmlns="http://www.w3.org/2000/svg">
	<path d="M71.4792 2.75278C74.2638 1.14508 77.6946 1.14508 80.4792 2.75278L145.805 40.4689C148.59 42.0766 150.305 45.0477 150.305 48.2631V123.695C150.305 126.911 148.59 129.882 145.805 131.489L80.4792 169.206C77.6946 170.813 74.2638 170.813 71.4792 169.206L6.153 131.489C3.36839 129.882 1.653 126.911 1.653 123.695V48.2631C1.653 45.0477 3.36839 42.0766 6.153 40.4689L71.4792 2.75278Z" stroke="#D5D7E2" stroke-width="2" />
	<path d="M145.818 158.753C148.602 157.145 152.033 157.145 154.818 158.753L189.26 178.638C192.045 180.246 193.76 183.217 193.76 186.432V226.203C193.76 229.418 192.045 232.39 189.26 233.997L154.818 253.883C152.033 255.49 148.602 255.49 145.818 253.883L111.375 233.997C108.591 232.39 106.875 229.418 106.875 226.203V186.432C106.875 183.217 108.591 180.246 111.375 178.638L145.818 158.753Z" stroke="#B88DFC" stroke-width="2" />
</svg>
