<svg width="600" height="95" viewBox="0 0 600 95" fill="none" xmlns="http://www.w3.org/2000/svg">
<path d="M56 0.700004C66.4 3.69549e-06 77 2.09998 86.3 6.79998C100.1 13.6 111.1 25.8 116.2 40.2C118.5 46.6 119.7 53.3 119.7 60.1V85.2C119.7 86.2 119.7 87.3 119.5 88.3C118.9 90.8 117.1 93.1 114.7 94.2C113 95 111.1 95.1 109.4 94.8C105.6 94.1 102.6 90.5 102.6 86.6C102.6 78.8 102.6 71 102.6 63.2C102.7 61 102.7 58.6 101.5 56.7C99.6 53.1 94.8 51.4 91.1 52.9C87.9 54 85.6 57.3 85.5 60.7C85.5 68.6 85.5 76.5 85.5 84.4C85.5 85.9 85.6 87.4 85.1 88.8C84.3 91.6 82 93.8 79.2 94.6C75.5 95.6 71.3 94 69.5 90.6C68.2 88.6 68.3 86.1 68.4 83.8C68.4 75.9 68.4 68.1 68.4 60.2C68.3 56.2 65 52.6 61.1 52.1C58.5 51.7 55.8 52.6 53.9 54.4C52.2 56 51.3 58.3 51.3 60.6V83.5C51.3 85.4 51.5 87.4 50.8 89.2C49.7 92.5 46.4 94.9 42.9 94.8C39.3 95 35.8 92.5 34.7 89.2C34.1 87.5 34.2 85.8 34.2 84C34.2 76.1 34.2 68.2 34.2 60.3C34.2 56.4 31.1 52.8 27.3 52.1C23.8 51.4 20 53.1 18.2 56.3C17.5 57.6 17.1 59.1 17.1 60.6V86.3C17.1 88.8 16 91.3 14.1 92.9C11.2 95.4 6.5 95.6 3.5 93.3C1.3 91.8 0 89.2 0 86.5V60.5C0 50.7 2.5 40.9 7.2 32.2C11 25.1 16.3 18.8 22.6 13.8C31.9 5.99998 43.8 1.4 56 0.700004Z" fill="#5741D9"/>
<path d="M289.7 30.8H276.7C277.2 21.7 279.1 13.5 287.4 8.29999C295.7 3.19999 304.8 1.99999 314.3 2.79999C319.4 3.19999 324.5 4.3 329.2 6.5C337.5 10.3 341.6 16.8 341.6 25.9C341.6 42 341.6 58.1 341.6 74.2C341.6 80.1 342.8 81.2 348.7 80.6C349.3 80.5 350 80.4 350.6 80.3C350.7 80.6 350.7 80.9 350.7 81.1V90.9C346 92.5 341.2 93 336.5 91.7C333 90.7 330.8 88.2 329.6 84.9C329 83.2 328.6 81.4 328.1 79.5C327.6 80.1 327.2 80.6 326.7 81.1C316.4 91.5 304.2 95.9 289.8 92.2C279.6 89.6 272.6 80.3 272.3 69.7C272.2 66.3 272.5 62.9 273.3 59.6C275.2 52 280.6 47.4 287.4 44.3C292.2 42.1 297.4 41.5 302.6 40.8C308.7 40 314.7 39.3 320.8 38.4C324.9 37.8 327 35.6 327.6 31.5C328.9 23.2 325.2 17.7 317.2 15.7C312.4 14.5 307.5 14.3 302.6 15.2C295.4 16.5 291.4 20.6 290 27.7C290.1 28.7 289.9 29.7 289.7 30.8ZM328 46.8C322 50 316.2 50.8 310.3 51.7C305.4 52.5 300.4 53.2 295.6 54.7C289.3 56.8 286.4 62 287 69C287.5 74.8 291.4 79.5 297.7 80.5C307.4 82.1 316 79.4 322.8 72.2C324.8 70.1 326.4 67.1 326.8 64.3C327.7 58.7 327.6 53 328 46.8ZM513.3 63.6C513 65 512.8 66.2 512.5 67.3C506.9 84.4 495.5 91.7 481.7 93.3C457.8 95.9 444.1 80.3 440.6 63.7C437.8 50.5 438.2 37.4 444 25C449.5 13.3 458.3 5.59999 471.4 3.29999C487.1 0.499992 509.3 8.29999 513 32.8C514 39.1 514.2 45.6 514.8 52.2H454C454.5 61.2 455.9 69.6 462.5 76.1C465.2 78.8 468.7 80.1 472.5 80.8C484.8 83 495 77.1 499 65.2C499.4 63.9 500 63.5 501.3 63.6C505.2 63.6 509.1 63.6 513.3 63.6ZM454.5 40.6H500C499.5 35.3 498.6 30.4 496.1 25.8C493.7 21.4 490.2 18.2 485.4 16.6C469.7 11.2 453.5 23.7 454.5 40.6ZM546 90.4H532.2V4.60001H545.3V16.6C546.3 15.5 546.9 14.8 547.5 14.1C556.9 3.40001 568.7 0.599998 582.1 3.9C591.4 6.2 596.6 12.8 598.4 22C599.1 25.8 599.6 29.7 599.6 33.5C599.7 51.9 599.7 70.3 599.7 88.7C599.7 89.2 599.6 89.7 599.6 90.3H585.5V88C585.5 70.8 585.6 53.6 585.4 36.4C585.4 32.6 584.8 28.7 583.7 25C581.9 19 577.1 15.8 570.8 15.5C559.3 15.1 550.2 21.2 547.4 31.4C546.4 35.1 546.1 39 546.1 42.9C546 58 546 73 546 87.9V90.4ZM364.1 4.60001H377.4V41C378.2 40.2 378.7 39.8 379.2 39.3C390.1 28.2 401 17 411.9 5.9C412.8 4.9 413.7 4.5 415.1 4.5C420.2 4.6 425.4 4.5 431 4.5C430.2 5.3 429.8 5.79999 429.3 6.29999C419.7 15.9 410.2 25.6 400.5 35.1C399.4 36.2 399.4 36.9 400.1 38.1C410.6 54.8 421 71.5 431.4 88.2C431.8 88.8 432.1 89.4 432.6 90.3C431.9 90.4 431.4 90.4 430.8 90.4C426 90.4 421.3 90.4 416.5 90.4C415.2 90.4 414.6 89.9 413.9 88.9C405.9 75.5 397.9 62.1 389.9 48.6C389.5 48 389.2 47.4 388.7 46.7C385 50.4 381.4 53.9 377.8 57.6C377.3 58.1 377.2 59 377.2 59.7C377.2 69.1 377.2 78.5 377.2 87.9V90.3C374.6 90.3 372 90.3 369.5 90.3C367.7 90.3 365.2 90.8 364.2 89.8C363.3 89 363.8 86.4 363.8 84.6V6.9C364.1 6.4 364.1 5.60001 364.1 4.60001ZM210.6 4.5C199.8 15.2 189.3 25.7 178.7 36.2C190.1 54.4 201.2 72.2 212.5 90.4C211.6 90.4 211 90.5 210.4 90.5C205.8 90.5 201.1 90.5 196.5 90.5C195.2 90.5 194.4 90 193.7 88.9C185.7 75.5 177.7 62.1 169.7 48.6C169.4 48 169 47.5 168.5 46.7C166.5 48.8 164.7 51.1 162.5 52.7C158 56.1 156.7 60.3 157 65.9C157.5 73.2 157.1 80.6 157.1 87.9V90.3H143.9V4.60001H157.1V40.4C157.4 40.6 157.7 40.8 157.9 41C158.3 40.4 158.5 39.7 158.9 39.2C169.7 28.1 180.6 17.1 191.4 5.9C192.4 4.9 193.3 4.4 194.8 4.5C199.3 4.6 203.8 4.5 208.3 4.5C209 4.5 209.6 4.5 210.6 4.5ZM237 18.8C243.7 8.99999 250.8 0.800017 264 3.20002V17.9C260.5 18.1 257 18 253.7 18.7C245.6 20.4 239.3 27.8 238 36.8C237.8 38.6 237.6 40.4 237.6 42.2C237.6 57.5 237.6 72.8 237.6 88.1V90.5H224V4.79999H237C237 9.29999 237 13.8 237 18.8Z" fill="#5741D9"/>
</svg>
