<svg id="Layer_1" data-name="Layer 1" xmlns="http://www.w3.org/2000/svg" xmlns:xlink="http://www.w3.org/1999/xlink" viewBox="0 0 868 706">
	<defs>
		<style>
			.cls-1{fill:#58a579;}.cls-2{fill:#62bc8b;}.cls-3{fill:#ab957c;}.cls-4{fill:#b8a58f;}.cls-5{fill:#d6cbbf;}.cls-6{fill:#c5b6a4;}.cls-7{fill:#cabdac;}.cls-8{fill:#978875;}.cls-9{fill:#ab957b;}.cls-10{fill:#ab967c;}.cls-11{fill:#fdfdfd;}.cls-12{fill:#2ebf8b;}.cls-13{opacity:0.8;}.cls-14{fill:#a375fc;}.cls-15{fill:#b88dfc;}.cls-16{fill:#bca9ff;}.cls-17{fill:#a97dff;}.cls-18{fill:#c8b9fc;}.cls-19{fill:#5f45ba;}.cls-20{fill:#a58681;}.cls-21{fill:#2a8693;}.cls-22{fill:#1d6058;}.cls-23{fill:#4c969b;}.cls-24{fill:#499e78;}.cls-25,.cls-43{fill:#37dd9e;}.cls-26{fill:#957eaf;}.cls-27{fill:#8662bf;}.cls-28{fill:#0e8756;}.cls-29,.cls-30,.cls-31{fill:none;stroke:#c487f4;stroke-linecap:round;stroke-linejoin:round;}.cls-29{stroke-width:0.65px;}.cls-30{stroke-width:0.62px;}.cls-31{stroke-width:0.85px;}.cls-32{fill:#ef9eb0;}.cls-33{fill:#fffd03;}.cls-33,.cls-35,.cls-43{fill-rule:evenodd;}.cls-34{fill:#1e8962;}.cls-35{fill:#fdca02;}.cls-36{fill:#8a8abf;}.cls-37{fill:#37b5c7;}.cls-38{fill:#836de2;}.cls-39{fill:#00896f;}.cls-40{fill:#0c6d5b;}.cls-41{fill:#fff;}.cls-42{fill:url(#linear-gradient);}.cls-44{fill:url(#linear-gradient-2);}.cls-45{fill:#87879f;}.cls-46{fill:#d5cbf7;}.cls-47{fill:#c7bceb;}.cls-48{fill:#7460cd;}.cls-49{fill:#2c224c;}.cls-50{fill:#2d234d;}.cls-51{fill:#2e244e;}.cls-52{fill:#2f254f;}
		</style>
		<linearGradient id="linear-gradient" x1="329.91" y1="670.74" x2="329.93" y2="710.98" gradientTransform="translate(0 -292.78)" gradientUnits="userSpaceOnUse">
			<stop offset="0.27" stop-color="#5e5544" />
			<stop offset="1" stop-color="#383837" />
		</linearGradient>
		<linearGradient id="linear-gradient-2" x1="562.06" y1="670.75" x2="562.08" y2="710.98" xlink:href="#linear-gradient" />
	</defs>
	<title>
		test-foreground
	</title>
	<path class="cls-1" d="M165.6,172.69,84.49,357.38a9.42,9.42,0,0,0,8.63,13.21H255.36A9.41,9.41,0,0,0,264,357.38L182.83,172.69a9.43,9.43,0,0,0-17.23,0Z" />
	<path class="cls-2" d="M259.92,207.22,191.11,396.36A9.42,9.42,0,0,0,200,409H337.58a9.41,9.41,0,0,0,8.85-12.64L277.62,207.22a9.42,9.42,0,0,0-17.7,0Z" />
	<path class="cls-1" d="M595.93,138.62,519.48,312.73a8.89,8.89,0,0,0,8.13,12.49H680.52a8.89,8.89,0,0,0,8.13-12.46L612.2,138.62a8.89,8.89,0,0,0-16.27,0Z" />
	<path class="cls-2" d="M684.84,171.14,620,349.5a8.89,8.89,0,0,0,8.4,11.92H758.1a8.88,8.88,0,0,0,8.9-8.88,9,9,0,0,0-.53-3L701.56,171.14a8.88,8.88,0,0,0-16.72,0Z" />
	<path class="cls-3" d="M400.54,705.1c-1.42-1.22-3.31-1.34-4.93-2.17a19.45,19.45,0,0,1-10.84-14.39c-1.52-7.89,1-14.33,7.16-19.35a20.22,20.22,0,0,1,25.36.1c10.49,8.72,9.79,24.37-1.59,32.3a13.35,13.35,0,0,1-5.28,2.54,2.6,2.6,0,0,0-1.77,1h-1.52l-.76-.37h-3.9c-.31,0-.6,0-.76.36Z" />
	<path class="cls-4" d="M403.18,704.74h3.18v.37h-3.08A.93.93,0,0,1,403.18,704.74Z" />
	<path class="cls-5" d="M401.66,705.1c.15-.33.45-.34.76-.36v.36Z" />
	<path class="cls-6" d="M402.43,705.1v-.36h.76v.36Z" />
	<path class="cls-7" d="M406.29,705.1a2.29,2.29,0,0,1,0-.37l.76.37Z" />
	<path class="cls-8" d="M386.09,650.22c-3.9.54-7.79,1-11.67,1.83a76.55,76.55,0,0,1-16.33,1.63c-5.38-.1-10.45-1.58-15.63-2.69a75.38,75.38,0,0,1-17.41-6.18c-4.42-2.15-8.76-4.5-13.07-6.84-8.37-4.56-16.53-9.38-24.48-14.65-10-6.65-19.29-14.17-28.85-21.37-4.19-3.15-7.95-6.89-11.94-10.31-3-2.63-6.31-5.08-9.31-7.79-3.48-3.14-7.09-6.12-10.72-9.12-3-2.47-6.22-4.72-9.25-7.19a109.11,109.11,0,0,0-18.37-11.9,49.24,49.24,0,0,0-9.05-3.8c-5.16-1.47-10-3.71-15.21-5.17a38.26,38.26,0,0,0-8.36-1.47c-3.38-.21-6.74-.88-10.11-1.33a42.12,42.12,0,0,0-6.24-.6,31.21,31.21,0,0,1-5.45-.66,12.3,12.3,0,0,0-2.1-.16,101,101,0,0,1-11.54,0,42.66,42.66,0,0,1-10.18-2.16c-11.64-4.12-22.63-9.8-33.53-15.62a48.13,48.13,0,0,1-14.74-12.6c-6.08-7.56-18.62-24-24.51-31.73.55-.32,4.11-2.54,4.56-2.28.7.42.12,3.33.91,2.75,1-.72.24.76,0,0-2.41-7.9-9.68-3.8-12.79-11.41-3.47-8.56-5.32-17.82-7.29-26.93-.66-3.05-1.41-9.37-2.28-12.33-1-3.5-8-9.54-8.22-13.24-.06-.8,8.71-6.42,8.22-7.3-4-7.19,5.83-2.34,6.38-1.83a49.28,49.28,0,0,1,7.31,7.76c2.14,2.89,4.56,3,7.31,5.48,1.31,1.16-1.8.83,0,0s0,1.92,0,0c0-1.22-7.21-4.26-7.31-5.48-.37-4.18,4.89,4.56,4.1.45-2.16-11.4-4.17-30.41-10-40.63,3.8,1.82,13,2.54,16.18,5.27,5.5,4.73,10.92,9.57,16.33,14.44,2.68,2.39,9.07,5.9,8.58,9.55-.85,6.3-1.58,12.87,0,19.18.88,3.5,6.32,8.13,8.67,10.95-.23,2,3,16,3.66,17.81,3.09,8.52,3.86,11.65,9.12,19.17,6,8.53,11.12,12.93,16.43,21.91a36.64,36.64,0,0,0,3.66,4.57c1.22,1.56,1.31,1.56,3.65.45.76-.36,5.94-1.46,6.39-.91,3.65,4.56,3.56,5,8.67,7.31,9.44,4.28,10.47,4.56,19.17-.92,2.51-1.57,5.33-2.94,7.77-4.56,4-2.64,6.33-8.83,9.12-12.79,1.93-2.71,11-2.95,13.69-5,1.58-1.23,6.91,2.44,8.67,3.64,1.45,1,5.78,3.65,6.84,5,3,3.85,5.48,5.8,7.77,10,1.79,3.34-4.63,4.66-1.83,7.3,3.4,3.21-2.13-1.07,1.37-4.1s6.18-.88,6.39-5.48c.26-5.93-5.58-8.72-5.93-14.61-.25-4,0-15.21-.92-19.17,13.8,2.36,34.22,13,36.3,27.29.87,5.91,9.06,15.65,13,20.19.35,2.12,3.8,9.74,5,11.4a31.3,31.3,0,0,1,3.2,6.39c1,2.68,2.66,4,4.1,6.39,3.76,6.33,11.73,8.07,16.44,13.69,3.8,4.56,9.12,11.1,13.24,15.52A177.61,177.61,0,0,0,317.36,579c4.86,4.26,12.76,3.3,17.81,7.3,8,6.31,7.89,8.67,16.44,14.16,11.07,7.1,17.16,4.23,29.22-1.37,3-1.42,7.46-9.13,10.5-10.5,6.68-3.11,10.74-4.81,15.06-11,2.1-3,8.26.47,10-2.73,1.52-2.78,8.22-2.06,11-.46,1.44.84,6.29,5.15,7.76,5.94,4,2.16,2.28,2,4.56,5.93.48.84,1.68-1.2,2.28-.46,1.2,1.52.11-3.71,1.83-2.74,3.49,2,0,5.25,2.73,3.2,8.11-6,7.27-11.94,13.69-19.63,7.49-9,2.34-15.84,5.47-26.93,2.08-7.34,13.61-14,14.62-21.47a186.43,186.43,0,0,1,21-3.72,122.57,122.57,0,0,1,17.13-.76,225.67,225.67,0,0,1,24.9,2.31c.25,0,6.09,11.23,6.31,11.33-.82.68,8,3.41,8.21,4.11,1.7,6.62-3.13,1.77,1.37,6.84,2,2.22,6.41-6.23,9.59-5.93,4.36.42,1,3.33,4.56.46,1.52-1.22,8,3,9.59,1.83s12,.15,5.94,5c.42.63,2,4.76,2.28,5.48,1.15,3,5.53,5.55,5.47,8.67-.15,8.36-1.33,7.26,0,15.52.66,4,.92-1.7,3.2,1.83,1.6,2.48,3.15-1.32,5.93-2.28,2.59-.89-2.15,1.63,0,0,5.38-4.09,5.24-4.92,10.5-9.12,6.39-5.11,11.64-7.36,17.81-12.79,4.2-3.69,9.59-6.66,13.24-11,3-3.54,10.41-6.84,13.24-10.5,1.88-2.42,9.89-1.85,12.33,0,2.14,1.62,6.49,2.52,9.12,2.28,6.3-.55,4.7-1.41,8.68-6.38a41.29,41.29,0,0,1,4.1-4.57c.76-.7,9.18-1.28,10-1.82,2.4-1.52,1.6-.45,3.2,1.82,2.83,4-4.61,1.81,0,0,.48-.18.9-1.61,1.37-1.82,6.54-3,3.62-7.29,7.77-12.78,5.83-7.74,5.54-16.27,8.21-25.57,1.23-4.26,4.63-8.27,6.39-12.32,5.16-11.87,4.75-8.85,9.13-21,.25-.71,14.91-7.8,13.93-8.54a145.89,145.89,0,0,1,22-3.33c-.9.3,7.69,2.7,8.33,3.65s6.84-1.45,7.3-.46c1.39,3.2-4.8,3-4.1,6.39.39,2-1.57,1.13,0,0,.88-.63,6.47.72,7.29,0,2.51-2.18,1.75-2.58,3.21.46.13.29,1.26,3.8,1.36,4.11a59.67,59.67,0,0,1,2.74,10c.59,2.93-.18-4.22,2.74-5,3.41-.93,2.85-5,5.48-7.3,6.79-5.93.1-1.81,5.94-8.68,4.07-4.79,8.36-3.21,13.23-7.3,1.72-1.46,14.82-6.39,16-8.37l9.88-4.64c-1.14,3.68-2.68,12.17-5,15.29a30.09,30.09,0,0,0-4.05,7.61c-1.19,3.17-3.41,5.64-5.59,8.18-4.35,5.11-9.52,9.3-14.59,13.69-6.33,5.47-13.86,8.57-21.37,11.79-8.36,3.62-16.39,8-24.41,12.36a109.45,109.45,0,0,0-12.64,7.61c-7.77,5.66-12.92,13.19-16.34,22-1.9,4.94-3.41,10-5.81,14.79-3.23,6.41-8.69,10.4-14.78,13.76-5.32,3-11,5.18-16.4,8.08-5.62,3-11.41,5.65-17.15,8.45-10.53,5.19-20.52,11.41-30.8,17-10.53,5.74-20,13.12-29.31,20.57-7.71,6.14-15.51,12.16-23.19,18.38q-9.37,7.5-18.55,15.28c-13.82,11.77-28,23.06-43.8,32.09-9.63,5.5-19.53,10.34-30.41,13a77.35,77.35,0,0,1-17,2,105.09,105.09,0,0,1-16.14-1.31,144.89,144.89,0,0,1-21-4.72c-4.66-1.36-9.29-2.78-13.87-4.35-7-2.4-13.94-4.85-21-7.08-8.93-2.83-18-5.09-27.11-7.25-2.9-.69-5.87-.76-8.8-1.19A39.81,39.81,0,0,0,386.09,650.22Z" />
	<path class="cls-3" d="M486.24,517.22c3.58,6.58,1.62,24.44-3.81,32.45-3.13,11.09-7.23,21.75-14.73,30.71-6.43,7.7-13.19,15.11-21.29,21.14-2.76,2-5.79,3.49-9.28,1.52a14.91,14.91,0,0,1-4.15-4,14.53,14.53,0,0,1-1.41-2.07,23.51,23.51,0,0,0-9.51-9.6c-1.48-.76-2.88-1.73-4.34-2.58a4.09,4.09,0,0,0-5.63,1.52,107.56,107.56,0,0,1-5.89,9.18c-4.32,6.15-10.26,10.17-17,13.27l-9.13,4.2c-12.06,5.62-23.83,4.79-34.9-2.28-8.54-5.48-17.27-10.75-25.23-17.06-5.06-4-10.81-7-15.67-11.2-5.38-4.72-10.26-9.89-15.14-15.1-4.13-4.41-6.64-9.93-10.47-14.5a138.25,138.25,0,0,1-13-17.6,46,46,0,0,1-4-7.49,19.49,19.49,0,0,0-3.16-4.82c-1.16-1.56-2.51-13.32-2.86-15.44l5.85,4.37c7.17,5.38,15.34,8.44,24,10.33,7.13,1.52,14.36,2.57,21.6,3.45s14.5,1.62,21.77,2.28c4.33.41,8.68.64,13,.76,8,.25,16,1,24.06.86a7.06,7.06,0,0,0,3,.13c6.93-2.13,14.31-1.43,21.4.05a8.75,8.75,0,0,0,2.84-.19c7.33.09,14.63-.49,21.93-1,6.66-.45,13.29-1.22,19.92-2,9.77-1.16,19.44-2.88,29-4.89,6.66-1.39,13.31-2.85,20-4.26A17,17,0,0,1,486.24,517.22Z" />
	<path class="cls-9" d="M755,434.83c1,.77.27,6.57,0,7.28-4.38,12.17-8.55,24.38-13.69,36.25A106,106,0,0,0,737.1,491a77.84,77.84,0,0,1-12.37,25.77c-4.13,5.5-8.36,11-14.93,13.91-.47.22-.93.45-1.41.63-4.61,1.81-5.55,1.52-8.36-2.48-1.6-2.28-3-2.6-5.4-1.11a14.73,14.73,0,0,0-2.42,1.89,48.91,48.91,0,0,0-4.76,4.79,21.26,21.26,0,0,1-15.4,8.07,9.6,9.6,0,0,1-7.1-1.67c-2.45-1.84-4-1.62-5.88.81-2.83,3.66-5.16,7.66-8.18,11.21-3.65,4.31-8.09,7.67-12.29,11.36-6.17,5.44-13.62,9-20,14.12-5.27,4.21-10.65,8.25-16.06,12.34a25.37,25.37,0,0,1-7,4c-2.79,1-4.68.25-6.28-2.22-2.29-3.53-2.68-7.61-3.33-11.59a138.92,138.92,0,0,1-2-24.94,24.37,24.37,0,0,0-1.73-9.24,10.67,10.67,0,0,0-1-2.07c-1.11-1.7-2-1.86-3.66-.67s-3.09,2.28-4.56,3.53c-3.52,2.87-7.61,3.62-12,3.21-3.17-.31-5.33-2.49-7.3-4.7a41.71,41.71,0,0,1-9.54-17.44c-.18-.7-.76-6.48.09-7.15l13.76,1.52q8.13.92,16.26,1.79c7.6.83,15.16,1.83,22.81,2.13h2.28a18.69,18.69,0,0,0,2.47.29c6,0,11.91.34,17.86-.29a161.36,161.36,0,0,0,21.74-1.56A106,106,0,0,0,666.15,519c8.3-3.16,15.34-8.36,22.29-13.69,6.18-4.76,11.46-10.27,14.82-17.41a75.89,75.89,0,0,0,4.37-12.67c3.15-11.67,8.25-22.12,18.35-29.51a42.38,42.38,0,0,1,8.84-5.07A108.49,108.49,0,0,1,755,434.83Z" />
	<path class="cls-9" d="M222.88,462.09c.89,4,.76,20.27,1,24.33.35,5.89,1.15,11.77.88,17.7-.2,4.61-1.52,8.68-5.13,11.84s-7.28,3-10.68-.15c-2.81-2.64-4.68-6-6.48-9.29-2.29-4.25-4.13-8.73-7.11-12.58a16.4,16.4,0,0,0-3.8-3.54,3.85,3.85,0,0,0-5,.27,33.74,33.74,0,0,0-6.74,7.37,37.62,37.62,0,0,1-10.31,9.73c-2.47,1.62-4.69,3.62-7.19,5.19-8.7,5.5-17.77,6.17-27.22,1.88-5.11-2.28-10.26-4.51-13.91-9.06-.45-.56-1.08-1.09-1.85-.76-2.32,1.11-3.64-.34-4.86-1.9a51.37,51.37,0,0,1-3.85-5.32c-5.32-9-12.5-16.64-18.47-25.17-5.27-7.53-8.42-16-11.51-24.55-.64-1.77-7.29-15.76-7-17.8,7.8,8.07,17.39,12.84,28.13,15.91,15.15,4.33,30.65,6.84,46.1,9.67a209.13,209.13,0,0,0,28.89,3.1c6.94.3,13.87.49,20.8.76C204.06,460,216.5,460.42,222.88,462.09Z" />
	<path class="cls-3" d="M44.82,378.53c5.86,10.19,8.6,26.41,10.77,37.82.76,4.09,2.15,8.08,2.51,12.27.11,1.21.19,2.43.21,3.65a4.19,4.19,0,0,1-2.55,4.16c-1.8.83-3.25,0-4.57-1.14-2.72-2.42-4.66-5.46-6.84-8.36-2.33-3.15-4.35-6.54-7.3-9.2-.55-.5-1.09-1.32-1.94-1s-.75,1.49-.75,2.24c.22,3.7,1.53,7.15,2.57,10.64.89,3,1.73,5.93,2.38,8.94,2,9.13,6,17.49,9.51,26,3.09,7.61,7.08,14.87,9.49,22.77.25.76,1.11,1.74.14,2.45-.76.59-1.56-.2-2.28-.61-.45-.26-.88-.57-1.42-.25a132,132,0,0,1-9.47-12.38c-7.25-11-14.61-21.94-19.83-34.1-4.57-10.64-8.18-21.75-12.21-32.66C8.31,396.42,6,382.5,3.48,368.61c-.11-.56-.11-6.16-.16-6.74,5.28,4.77,12.06,6,18.61,7.71A109,109,0,0,1,43,377.3,4.27,4.27,0,0,1,44.82,378.53Z" />
	<path class="cls-3" d="M848.78,419.64c-1.19,2-5.26,7.84-7,9.29-4.83,4.1-8.89,8.92-13,13.68A178.76,178.76,0,0,1,810,461.91a23,23,0,0,1-9.13,4.93c-2.92.8-5-.11-5.58-3-.86-4.23-3-7.91-4.43-11.89-.11-.3-.24-.59-.38-.88-1.45-3-2.33-3.22-4.83-1.05a26.85,26.85,0,0,1-2.57,2.05c-1.56,1.13-2,1-2.39-1a50.47,50.47,0,0,0-2.84-10,17.75,17.75,0,0,0-1.53-2.89c-.64-.95-3.38-7.77-2.47-8.05,8.42-.93,21.28-1.33,29.65-2.28,13.54-1.53,26.39.76,39.26-4.11C844.28,423.22,847.36,420.22,848.78,419.64Z" />
	<path class="cls-3" d="M169.94,571.32a11.65,11.65,0,1,1,23.3,0v0c-.21,7-4.9,11.45-11.66,11.74C175.08,583.32,169.87,577.39,169.94,571.32Z" />
	<path class="cls-10" d="M765.48,510.75a5.59,5.59,0,0,1,5.59-5.59h.22A5.81,5.81,0,0,1,777,510.8a6.6,6.6,0,0,1-5.83,5.92C768.36,516.81,765.48,513.7,765.48,510.75Z" />
	<path class="cls-11" d="M386.09,650.22a39.29,39.29,0,0,1,11.15,0Z" />
	<path class="cls-12" d="M599.27,531.82c-.76,0-1.52.07-2.28,0-7.61-.31-15.21-1.31-22.81-2.14q-8.13-.87-16.26-1.78c-4.57-.51-9.17-1-13.76-1.52a2.53,2.53,0,0,0-.7-.29,221.05,221.05,0,0,0-24.91-2.28,122.57,122.57,0,0,0-17.13.75,95.69,95.69,0,0,0-15.21,2.66,18.69,18.69,0,0,0-2.1.22c-6.66,1.4-13.3,2.86-20,4.25-9.62,2-19.29,3.74-29,4.89-6.63.76-13.26,1.52-19.92,2-7.31.5-14.61,1.07-21.94,1H366c-8.22.18-16.41-.64-24.62-.86-4.16-.12-8.36-.38-12.47-.76-7.26-.68-14.52-1.42-21.77-2.29s-14.45-1.89-21.6-3.45c-8.67-1.89-16.85-5-24-10.32l-5.84-4.38a30.08,30.08,0,0,1-7-15.75c-2.09-14.25-12.41-25-26.21-27.37-6.37-1.67-12.93-2.07-19.45-2.28-6.93-.26-13.87-.45-20.79-.77a207.65,207.65,0,0,1-28.89-3.13c-15.44-2.84-31-5.32-46.1-9.67-10.71-3-20.31-7.83-28.13-15.9A23.83,23.83,0,0,1,74.51,433c-1.58-6.32-.67-12.65.18-18.95a9.62,9.62,0,0,0-3.29-9c-5.42-4.83-10.83-9.68-16.33-14.41a47.09,47.09,0,0,0-10.26-7.1,4,4,0,0,0-1.75-1.15A108.48,108.48,0,0,0,22,374.67c-6.54-1.73-13.31-2.93-18.6-7.71L0,362.34v-2.7A2.87,2.87,0,0,0,1.48,358a4.12,4.12,0,0,1,2.62-2.47,26.8,26.8,0,0,1,3.6-1.23c3.82-1.1,7.66-2.1,11.56-3.1a61.09,61.09,0,0,0,8.27-1.53,2.42,2.42,0,0,0,.76,0c2.57-.76,5.23-1.11,7.82-1.72s5.15-.87,7.76-1.23c3-.41,5.84-1.27,8.79-1.59a79.73,79.73,0,0,0,8-1.27c3.56-.41,7.13-.76,10.64-1.52h.55a96.47,96.47,0,0,0,11-1.14h.57c3.87-.12,7.74-.36,11.59-.79a20.3,20.3,0,0,0,6.17-.34,66.9,66.9,0,0,0,9.28-.42h1.17a144.39,144.39,0,0,0,18-1.13,47.07,47.07,0,0,0,10.19-.76c6-.24,11.88-.82,17.78-1.52,5.47-.07,10.88-.87,16.31-1.34,1.63-.13,3.35.17,4.91-.58h1.73l69.32-6c6-.53,12-1.18,18-1.76a10.34,10.34,0,0,0,4.42-.37A120.33,120.33,0,0,0,284.86,325a2.05,2.05,0,0,0,1.34,0h1.34l33.16-2.82c4.92-.42,9.83-.93,14.75-1.41a49.63,49.63,0,0,0,10.18-.76,69.37,69.37,0,0,0,10.28-.8,24.12,24.12,0,0,0,6.73-.4h1.72q35.61-2.61,71.33-2.8a121.07,121.07,0,0,0,12.92-.26q8.67.42,17.32,0a5.94,5.94,0,0,0,2.48.2c19,.12,37.93.86,56.89,1.52,6.43.23,12.84.76,19.27.63l.1.06v-.09c.76.08,1.52.2,2.28.23,14.25.57,28.48,1.4,42.71,2.28,3.93.2,7.84.76,11.78.58.76.11,1.52.25,2.28.31q14,1.13,28,2.21c1.58.14,3.17.31,4.75.42,4.66.3,9.28,1.18,14,.92,5.07.64,10.17,1,15.28,1.14h1c1,.12,1.89.29,2.84.36l22.05,1.76c4.32.46,8.63.9,12.93,1.38,3.23.36,6.42,1.13,9.7,1.14,4,.85,8.07,1.45,12.16,2h-.12l12,2.48a3.27,3.27,0,0,0,1.83.2l9.36,2.06a1.5,1.5,0,0,0,.32.19c11.52,2.28,23.15,4.09,34.51,7.14a125.67,125.67,0,0,1,22.88,8.31,307.33,307.33,0,0,0,31.25,13.68,76.14,76.14,0,0,1,14.91,7.33c3.72,2.33,6.08,5.93,9.12,8.89a13.25,13.25,0,0,1,3.31,5.32c1.76,5.08,1.73,10.25.9,15.52s-2.8,9.66-7,13c-1.13.91-2.28,1.78-3.44,2.66l-9.85,4.6-4.33,1.61c-12.87,4.83-26.38,6.57-39.92,8.12-8.43.95-16.85,1.85-25.28,2.78a147.15,147.15,0,0,0-22,3.32,113.19,113.19,0,0,0-20.18,5.79A42.43,42.43,0,0,0,726,450.7c-10.1,7.38-15.2,17.83-18.35,29.5a77.53,77.53,0,0,1-4.4,12.64c-3.36,7.14-8.65,12.64-14.83,17.4-7,5.36-14,10.57-22.29,13.73a105.77,105.77,0,0,1-24.83,6.25,162.31,162.31,0,0,1-21.69,1.6" />
	<g class="cls-13">
		<path class="cls-14" d="M97,209.41a10.7,10.7,0,1,0-10.7-10.7A10.7,10.7,0,0,0,97,209.41Z" />
		<path class="cls-14" d="M73.55,255.41A10.7,10.7,0,1,0,62.86,244.7v0A10.71,10.71,0,0,0,73.55,255.41Z" />
		<path class="cls-14" d="M45.66,307.74A10.7,10.7,0,1,0,35,297h0A10.7,10.7,0,0,0,45.66,307.74Z" />
		<path class="cls-14" d="M118.52,249.71A10.7,10.7,0,1,0,107.83,239h0A10.7,10.7,0,0,0,118.52,249.71Z" />
		<path class="cls-14" d="M92.19,300.15a10.7,10.7,0,1,0-10.7-10.7,10.7,10.7,0,0,0,10.7,10.7Z" />
		<path class="cls-14" d="M136.24,292.47a10.7,10.7,0,1,0-10.7-10.7,10.7,10.7,0,0,0,10.7,10.7Z" />
	</g>
	<g class="cls-13">
		<path class="cls-14" d="M767.49,209.41a10.7,10.7,0,1,0-10.7-10.7h0A10.7,10.7,0,0,0,767.49,209.41Z" />
		<path class="cls-14" d="M791,255.41a10.7,10.7,0,1,0-10.69-10.71v0A10.71,10.71,0,0,0,791,255.41Z" />
		<path class="cls-14" d="M818.85,307.75a10.7,10.7,0,1,0-10.7-10.7h0A10.7,10.7,0,0,0,818.85,307.75Z" />
		<path class="cls-14" d="M746,249.71A10.7,10.7,0,1,0,735.29,239h0A10.7,10.7,0,0,0,746,249.71Z" />
		<path class="cls-14" d="M772.36,300.15a10.7,10.7,0,1,0-10.7-10.7h0A10.7,10.7,0,0,0,772.36,300.15Z" />
		<path class="cls-14" d="M728.27,292.47a10.7,10.7,0,1,0-10.7-10.7,10.7,10.7,0,0,0,10.7,10.7Z" />
	</g>
	<path class="cls-15" d="M385.36,189a3,3,0,1,0-3-3A3,3,0,0,0,385.36,189Z" />
	<path class="cls-16" d="M559.45,205.69a3.93,3.93,0,1,0-3.92-3.94v0A3.93,3.93,0,0,0,559.45,205.69Z" />
	<path class="cls-17" d="M388.46,220.41a2.33,2.33,0,1,0-2.33-2.33,2.33,2.33,0,0,0,2.33,2.33Z" />
	<path class="cls-17" d="M406.78,222.74a5.52,5.52,0,1,0-5.52-5.52h0A5.52,5.52,0,0,0,406.78,222.74Z" />
	<path class="cls-17" d="M417.27,232.79a2.33,2.33,0,1,0-2.33-2.33,2.33,2.33,0,0,0,2.33,2.33Z" />
	<path class="cls-17" d="M411.06,252.46a2.33,2.33,0,1,0-2.33-2.33,2.33,2.33,0,0,0,2.33,2.33Z" />
	<path class="cls-17" d="M388.46,252.46a2.33,2.33,0,1,0-2.33-2.33,2.33,2.33,0,0,0,2.33,2.33Z" />
	<path class="cls-17" d="M364.36,244.06a2.33,2.33,0,1,0-2.32-2.34v0a2.32,2.32,0,0,0,2.32,2.32Z" />
	<path class="cls-18" d="M339.09,217.6a4.25,4.25,0,1,0-4.25-4.25h0a4.24,4.24,0,0,0,4.23,4.25Z" />
	<path class="cls-18" d="M289,169a2.33,2.33,0,1,0-2.33-2.33h0A2.32,2.32,0,0,0,289,169Z" />
	<path class="cls-18" d="M386.13,197.64a2.33,2.33,0,1,0-2.33-2.33,2.33,2.33,0,0,0,2.33,2.33Z" />
	<path class="cls-18" d="M364.57,166.66a2.33,2.33,0,1,0-2.32-2.34h0A2.34,2.34,0,0,0,364.57,166.66Z" />
	<path class="cls-17" d="M463,200a2.33,2.33,0,1,0-2.32-2.34v0A2.32,2.32,0,0,0,463,200Z" />
	<path class="cls-17" d="M449.89,215.22a2.33,2.33,0,1,0-2.33-2.33h0a2.32,2.32,0,0,0,2.32,2.32Z" />
	<path class="cls-17" d="M463.87,231.58a5.58,5.58,0,1,0-5.58-5.58,5.58,5.58,0,0,0,5.58,5.58Z" />
	<path class="cls-17" d="M487.47,244.51a2.33,2.33,0,1,0-2.33-2.33,2.33,2.33,0,0,0,2.33,2.33Z" />
	<path class="cls-17" d="M438.83,302.48a2.33,2.33,0,1,0-2.32-2.34h0A2.34,2.34,0,0,0,438.83,302.48Z" />
	<path class="cls-19" d="M438.83,326.16a2.33,2.33,0,1,0-2.32-2.34h0A2.34,2.34,0,0,0,438.83,326.16Z" />
	<path class="cls-17" d="M401.69,298.83a2.33,2.33,0,1,0-2.33-2.33h0A2.34,2.34,0,0,0,401.69,298.83Z" />
	<path class="cls-17" d="M354.36,293.37a4.54,4.54,0,1,0-4.53-4.55v0a4.53,4.53,0,0,0,4.53,4.53Z" />
	<path class="cls-18" d="M303,239.85a2.33,2.33,0,1,0-2.33-2.33,2.33,2.33,0,0,0,2.33,2.33Z" />
	<path class="cls-18" d="M523,195.36a2.33,2.33,0,1,0-2.33-2.33,2.33,2.33,0,0,0,2.33,2.33Z" />
	<path class="cls-18" d="M156.86,186.1c21,21,11.57,67.25,9.83,74.86-1.45,6.39-4.85,19.76-13.69,16.26-7.24-2.87-14.81-4.06-19.76-1.08-5.39,3.23-14.27,17.35-18.47,12.68-18.28-20.31-57.89-10.22-70.39-31.29-6.19-10.44-8.77-24.51-1.64-34.34,8.54-11.77,36.49-13.25,42.78-26.39,2.11-4.45,2.36-9.62,4.56-14C93,177.17,98.7,172,105,172,105,172,139,168.27,156.86,186.1Z" />
	<path class="cls-20" d="M114.79,317a2.82,2.82,0,0,1-2.83-2.81V203.43a2.83,2.83,0,1,1,5.66,0V314.22A2.83,2.83,0,0,1,114.79,317Z" />
	<path class="cls-20" d="M116.51,250.78a2.71,2.71,0,0,1-1.52-.43,2.82,2.82,0,0,1-.91-3.88v0c.56-.89,13.78-21.8,30.79-27.3a2.83,2.83,0,0,1,1.91,5.33l-.16.05c-15.07,4.88-27.61,24.73-27.73,24.92A2.81,2.81,0,0,1,116.51,250.78Z" />
	<path class="cls-20" d="M114.79,270.22h-.43l-17.12-2.39-.29-.11c-.55-.2-13.54-5.11-18-13.81v-.08l-8.28-17.17a2.83,2.83,0,0,1,5.1-2.46L84,251.35c2.85,5.44,11.3,9.64,14.69,11l16.5,2.28a2.83,2.83,0,0,1-.39,5.63Z" />
	<path class="cls-20" d="M81.46,255.42a2.86,2.86,0,0,1-.58-.06L69.74,253a2.8,2.8,0,0,1-2.11-1.89,2.83,2.83,0,0,1,1.78-3.57,2.86,2.86,0,0,1,1.48-.08L82,249.82a2.83,2.83,0,0,1-.58,5.6Z" />
	<path class="cls-21" d="M143.29,112.22c-36.9,36.91-20.31,118-17.22,131.42,2.56,11.23,8.52,34.68,24,28.55,12.73-5,26-7.12,34.7-1.9,9.46,5.68,25,30.47,32.43,22.27,32.16-35.64,101.62-17.93,123.6-54.91,10.88-18.33,15.41-43,2.89-60.28-15-20.67-64.12-23.27-75.11-46.33-3.72-7.8-4.14-16.9-8.07-24.6-5-9.88-15-19-26.12-19C234.36,87.43,174.59,81,143.29,112.22Z" />
	<path class="cls-22" d="M217.15,339.87a2.83,2.83,0,0,1-2.81-2.81V142.67a2.81,2.81,0,0,1,5.62,0V337.06A2.81,2.81,0,0,1,217.15,339.87Z" />
	<path class="cls-22" d="M216,223.64a2.8,2.8,0,0,1-2.38-1.32,155.25,155.25,0,0,0-14.78-19.1c-8.22-9.12-21-20.95-35.08-25.51a2.81,2.81,0,0,1,1.73-5.32c12.29,4,24.94,13.11,37.6,27.17a159.16,159.16,0,0,1,15.28,19.8,2.78,2.78,0,0,1-2.38,4.28Z" />
	<path class="cls-22" d="M217.15,257.72a2.81,2.81,0,0,1-.38-5.59l29.2-4c2.47-1,21-8.61,27.18-20.39l14.45-30.13a2.81,2.81,0,0,1,5.13,2.29,1,1,0,0,1-.07.15l-14.53,30.17c-7.53,14.53-29.57,22.86-30.51,23.21l-.29.11-29.82,4.11Z" />
	<path class="cls-23" d="M724,185.4c17.82,18.89,9.81,60.39,8.36,67.24-1.24,5.75-4.12,17.74-11.59,14.6-6.14-2.57-12.55-3.64-16.73-1-4.56,2.9-12.09,15.59-15.66,11.4-15.51-18.24-49.08-9.17-59.69-28.13-5.26-9.37-7.45-22-1.4-30.83,7.25-10.58,31-11.91,36.27-23.71,1.8-4,2-8.64,3.9-12.58,2.43-5.06,7.26-9.73,12.62-9.73C680,172.72,708.87,169.4,724,185.4Z" />
	<path class="cls-22" d="M688.36,301.82a1.38,1.38,0,0,1-1.4-1.36V201a1.4,1.4,0,0,1,2.79,0v99.45A1.39,1.39,0,0,1,688.36,301.82Z" />
	<path class="cls-22" d="M688.88,242.36a1.48,1.48,0,0,1-.71-.19,1.41,1.41,0,0,1-.49-1.92c.46-.76,11.47-19.23,25.56-24.06a1.4,1.4,0,0,1,.9,2.65c-13.12,4.49-23.95,22.65-24.06,22.8A1.39,1.39,0,0,1,688.88,242.36Z" />
	<path class="cls-22" d="M688.36,259.79h-.2l-14.57-2.16c-.45-.19-11.11-4.45-14.74-11.88l-7-15.46a1.4,1.4,0,1,1,2.45-1.35.82.82,0,0,1,.09.19l7,15.43c2.94,6,11.87,9.89,13.1,10.41l14.09,2a1.4,1.4,0,0,1,1.26,1.49,1.38,1.38,0,0,1-1.46,1.29Z" />
	<path class="cls-24" d="M58.36,345.81A20,20,0,0,0,78.13,366h0a19.59,19.59,0,0,0,4.11-.44H285.89a15.69,15.69,0,1,0,0-31.38h-2.44a21.92,21.92,0,0,0-21.66-22.17,21.13,21.13,0,0,0-11.18,3.17,25.13,25.13,0,0,0-43.6,3,15.15,15.15,0,0,0-27.37.52,17.66,17.66,0,0,0-32.92-1.2A31.93,31.93,0,0,0,121.44,305,32.45,32.45,0,0,0,90.2,329.76a19.33,19.33,0,0,0-12.11-4.26,20,20,0,0,0-19.73,20.27Z" />
	<path class="cls-25" d="M540.12,331.73a21.69,21.69,0,0,0,21.44,21.94h0a20.77,20.77,0,0,0,4.45-.48H787a17,17,0,0,0,0-34h-2.59c0-13.29-10.52-24.05-23.5-24.05a23,23,0,0,0-12.16,3.47,27.28,27.28,0,0,0-47.34,3.26,16.44,16.44,0,0,0-29.65.58A19.16,19.16,0,0,0,636,301.14a34.63,34.63,0,0,0-27.4-13.57,35.15,35.15,0,0,0-33.89,26.88,21,21,0,0,0-13.13-4.63,21.66,21.66,0,0,0-21.43,21.89Z" />
	<path class="cls-26" d="M798.21,314.68c-7.61,12.23-23.06,17-37.38,18.68-17.32,2-36.17.33-49.88-10.44s-19.38-32.78-8.19-46.15c5.73-6.84,14.55-10.29,21.17-16.29s10.43-17.37,3.92-23.49c-2.47-2.32-5.86-3.3-9-4.67-8.17-3.59-15.39-13.31-10.9-21,3.58-6.16,12.07-6.93,18-10.88,9.37-6.25,10.28-21.85,1.68-29.13-2.4-2-5.41-3.57-6.84-6.36-2.58-5.11,1.66-11.13,6.45-14.25s10.65-5.24,13.69-10.07c3.24-5.12,2.41-11.77,4.19-17.56s9.39-10.84,13.54-6.43c2.57,2.72,1.83,7.12,3.24,10.59,4,9.88,22.85,7.94,24.52,18.52,1,6.22-5.26,10.86-10.37,14.55s-10.24,10.39-6.73,15.62a11.07,11.07,0,0,0,4.8,3.58c5.9,2.64,12.58,3.4,18.25,6.58s10,10.36,6.92,16.06c-4.56,8.51-20.2,5.39-24.13,14.21-2,4.42.38,9.73,4,13s8.21,5,12.41,7.45a47.88,47.88,0,0,1,23.57,38.7c.68,15.74-4,30.24-16.9,39.24" />
	<path class="cls-27" d="M752.86,152.22l-5.56,216.2s2.78,5.56,8.69,0Z" />
	<path class="cls-28" d="M721.53,356.39s-34.64-29.83-52.61-28.53S672,347.22,672,347.22l20,15.63Z" />
	<path class="cls-29" d="M663.47,329.09s34.61,27.12,41.18,31" />
	<path class="cls-29" d="M679.46,329.68l7.17,17.3" />
	<path class="cls-29" d="M664.36,338.91l13.35,1.2" />
	<path class="cls-29" d="M674.36,349l16.1.85" />
	<path class="cls-29" d="M696.63,354.49l-3.84-18.55" />
	<path class="cls-29" d="M708.22,359.31l-2.4-15" />
	<path class="cls-28" d="M763.36,361s31.67-29.83,48.1-28.5-2.86,19.34-2.86,19.34L790.31,367.4Z" />
	<path class="cls-30" d="M816.42,333.65s-31.65,27.12-37.65,31" />
	<path class="cls-30" d="M801.81,334.22l-6.56,17.3" />
	<path class="cls-30" d="M815.65,343.47l-12.21,1.2" />
	<path class="cls-30" d="M806.5,353.58l-14.73.84" />
	<path class="cls-30" d="M786.11,359.05l3.5-18.54" />
	<path class="cls-30" d="M775.5,363.87l2.21-15" />
	<path class="cls-28" d="M750.27,357.67s-36.16-48.2-59.66-51.58-1.45,25.79-1.45,25.79l21.29,25.79Z" />
	<path class="cls-31" d="M683.26,306.1s36.89,44.71,44.24,51.57" />
	<path class="cls-31" d="M703.68,311.39,708,335.68" />
	<path class="cls-31" d="M681.58,319l16.84,5.33" />
	<path class="cls-31" d="M691.6,334.83l20.5,5.65" />
	<path class="cls-31" d="M718.76,348.22l.31-25" />
	<path class="cls-31" d="M732.36,357.68l1.14-20" />
	<path class="cls-32" d="M640.19,333.82a7.56,7.56,0,0,0-1.59-2.13,4.35,4.35,0,0,0-2-1.31,2,2,0,0,0-2.17.76,2.29,2.29,0,0,0-.11,1.76,4.9,4.9,0,0,0,4,3.45c.58.07,1.84.35,2.28-.23S640.43,334.34,640.19,333.82Z" />
	<path class="cls-32" d="M638.22,338.51a3.1,3.1,0,0,0-.86,0,1.28,1.28,0,0,0-.88.65,1,1,0,0,0,.06,1,1.59,1.59,0,0,0,1.59.4,6.54,6.54,0,0,0,1.43-.43c.44-.19,3.32-1.65,2.49-2.28C641.74,337.64,638.88,338.56,638.22,338.51Z" />
	<path class="cls-32" d="M641.82,335.22a4.21,4.21,0,0,1,.76-2.64,1.2,1.2,0,0,1,.64-.44.94.94,0,0,1,1,.71,2,2,0,0,1-.24,1.37c-.23.43-.53.81-.76,1.24a4.07,4.07,0,0,0-.46,1.52c-.07.76-.36,1.57-.87.76A6.68,6.68,0,0,1,641.82,335.22Z" />
	<path class="cls-32" d="M645.72,342.6H645c-.55.15-1.1.32-1.63.52a14.63,14.63,0,0,1-1.87.08,1.51,1.51,0,0,0-1.42,1,1.19,1.19,0,0,0,.9,1.23,3.16,3.16,0,0,0,1.67-.13,5.89,5.89,0,0,0,2.28-1.1,14.26,14.26,0,0,1,1.06-1c.52-.35,1.14-.5,1.52-1C647.07,341.82,646.29,342.57,645.72,342.6Z" />
	<path class="cls-32" d="M647.36,335.11a1,1,0,0,1,.61-.52.57.57,0,0,1,.42.11,1.36,1.36,0,0,1,.6,1.12,3.81,3.81,0,0,1-.24,1.33,14.89,14.89,0,0,1-.76,1.91,5.65,5.65,0,0,0-.82,3.13A7.47,7.47,0,0,1,647.36,335.11Z" />
	<path class="cls-32" d="M651.74,345.79c-1.38.38-2.74.84-4.08,1.35a5.49,5.49,0,0,0-1,.5,2.67,2.67,0,0,0-1,1.27.88.88,0,0,0,0,.71.72.72,0,0,0,.67.34,2.29,2.29,0,0,0,.76-.22,9.74,9.74,0,0,0,2.82-1.52c.76-.67,1.48-1.65,2.49-1.78a2,2,0,0,0,.43-.07C653.75,346,652.11,345.68,651.74,345.79Z" />
	<path class="cls-32" d="M652,340.94a3.68,3.68,0,0,1,1-2.75,1.82,1.82,0,0,1,1.3.47,1.84,1.84,0,0,1,.58,1.26,4.62,4.62,0,0,1-1,2.74c-.48.72-1.84,2.19-1.42,3C651.21,346.06,652,341.73,652,340.94Z" />
	<path class="cls-32" d="M653.3,351.05a3.11,3.11,0,0,0-1.31,1.07,1.14,1.14,0,0,0,.22,1.52,1.57,1.57,0,0,0,1.43-.1,8.34,8.34,0,0,0,2.71-2,7.17,7.17,0,0,1,1-1.06,1.78,1.78,0,0,1,1.34-.31,4.08,4.08,0,0,1-1.23-2.81,6.37,6.37,0,0,1,.69-4.13c.28-.42.76-.81,1.2-.65a1,1,0,0,1,.54.76,4.27,4.27,0,0,1-.52,3.14,8.22,8.22,0,0,0-1.22,2.28,2.58,2.58,0,0,1-.19.71c-.28.49-2,.54-2.54.72A18.45,18.45,0,0,0,653.3,351.05Z" />
	<path class="cls-32" d="M661.83,353.76a5.18,5.18,0,0,0-.76.34,9.28,9.28,0,0,1-2,.49,3.67,3.67,0,0,0-1.9.8,1.52,1.52,0,0,0-.39,1.88.65.65,0,0,0,.32.27,1,1,0,0,0,.49,0,8.37,8.37,0,0,0,3.13-1.52,10.29,10.29,0,0,1,1.21-.87c.39-.21,1.52-.46,1.34-1S662.19,353.64,661.83,353.76Z" />
	<path class="cls-32" d="M663.21,350.07a4.43,4.43,0,0,1,.76-2.28.45.45,0,0,1,.25-.18.4.4,0,0,1,.3.06,1.94,1.94,0,0,1,.84.6,2.29,2.29,0,0,1,.21,1.66,6.38,6.38,0,0,1-.51,2.15c-.35.66-1.29,2.44-2.06,1.45C662.5,352.85,663.09,350.89,663.21,350.07Z" />
	<path class="cls-32" d="M667.25,358a3.36,3.36,0,0,0-1.41-.16c-.63,0-1.23-.19-1.85-.21a2,2,0,0,0-1.7.65c-.4.49-.29,1.37.3,1.52a1.63,1.63,0,0,0,.76,0,24,24,0,0,0,2.87-.81,1.45,1.45,0,0,1,.71-.13c1,.18.36-.83.29-1.24a7.17,7.17,0,0,1,.34-2.94,2.09,2.09,0,0,1,.47-.91.75.75,0,0,1,.93-.16,1,1,0,0,1,.29,1,5.82,5.82,0,0,1-2,3.87" />
	<path class="cls-32" d="M657,348.28c-5.84-4.25-12.17-7.93-17.18-13.11a5.09,5.09,0,0,0,1.76,2.7c4.82,4.56,10.75,7.81,16.11,11.76a42,42,0,0,1,7.6,6.93,26.61,26.61,0,0,1,2.85,4.21c.76,1.37,1.1,3.13,1.89,4.39,2.28-1.69-2.72-7.38-3.84-8.7A51.8,51.8,0,0,0,657,348.28Z" />
	<path class="cls-33" d="M765.24,317.5s-2.36,1.8-3.8,1.47,0-1,0-1-4.37-.47-3.72-1.77,3.74-.76,3.74-.76-2.58-2-.52-2.67,2.79,1.73,2.79,1.73-.23-3.28,1.47-3.59,1.52,2.28,1.52,2.28,2.63-2.38,3.69-1.52-1.52,3-1.52,3,1.52.4.92,1.42S765.24,317.5,765.24,317.5Z" />
	<path class="cls-34" d="M765.41,315.87s-2.53.76-1.52,1.63,1.36.5,1.52,1.15c1.18.67,6.85,45.17,5.86,45.13.41-.15.51-2.28.92-2.4-.32-9.82-3.92-33.45-5.85-43.15,0,0,1.58-1.4,1.21-2.13S768.59,316.31,765.41,315.87Z" />
	<path class="cls-34" d="M775.85,330.05s-2.69-.31-1.87.76c.57,1.14,1.3,1.36,1.36,2S774.18,369,774.18,369c.85-1.71.9-2.78,1.33-2.85.63-9.85.19-23.73.82-33.57,0,0,1.81-1.12,1.58-1.9S778.89,331,775.85,330.05Z" />
	<path class="cls-33" d="M773.5,328.67s-2-3-.32-3.68,2.77,2.62,2.77,2.62,1.52-3.8,3-3-.32,3.47-.32,3.47,3.17-1.46,4.39-.57-2.89,2.28-2.89,2.28,3,.49,1.21,1.47-3.49-.7-3.49-.7c-.32.91-2.74,1.38-3.11.07-.67-.4-4.56.5-4.63-1S773.5,328.67,773.5,328.67Z" />
	<path class="cls-35" d="M774.64,329.22c1-1.61,3.34-.44,3.17.19A5.21,5.21,0,0,0,774.64,329.22Z" />
	<path class="cls-36" d="M645.28,365.88a14.33,14.33,0,0,0,14.17,14.49h0a13.86,13.86,0,0,0,2.94-.32h146a11.24,11.24,0,0,0,0-22.48h-1.74a15.71,15.71,0,0,0-15.52-15.9h0a15.16,15.16,0,0,0-8,2.28,18,18,0,0,0-31.24,2.17,10.87,10.87,0,0,0-19.62.38,12.66,12.66,0,0,0-23.57-.86,22.87,22.87,0,0,0-18.13-9,23.25,23.25,0,0,0-22.36,17.81,13.94,13.94,0,0,0-8.68-3,14.34,14.34,0,0,0-14.25,14.43Z" />
	<path class="cls-37" d="M199.88,359.37A13.45,13.45,0,0,0,213.16,373h0a13.57,13.57,0,0,0,2.77-.29H353.18a10.57,10.57,0,1,0,0-21.14h-1.64A14.78,14.78,0,0,0,337,336.62a14.23,14.23,0,0,0-7.53,2.16A16.94,16.94,0,0,0,300,340.83a10.2,10.2,0,0,0-18.43.35,11.89,11.89,0,0,0-22.17-.81,21.54,21.54,0,0,0-17.08-8.45,21.83,21.83,0,0,0-21,16.73,13.12,13.12,0,0,0-8.17-2.88A13.47,13.47,0,0,0,199.88,359.37Z" />
	<path class="cls-33" d="M229.47,325.12s2.85,2.23,4.56,1.83,0-1.26,0-1.26,5.26-.6,4.48-2.21-4.48-.94-4.48-.94,3.11-2.42.62-3.31-3.35,2.15-3.35,2.15.27-4.06-1.79-4.44-1.79,2.86-1.79,2.86-3.16-2.95-4.46-1.86,1.89,3.74,1.89,3.74-1.87.49-1.11,1.76S229.47,325.12,229.47,325.12Z" />
	<path class="cls-34" d="M229.27,323.1s3,.92,1.86,2-1.64.62-1.86,1.42c-1.42.84-8.27,55.93-7.06,55.88-.49-.19-.6-2.77-1.11-3,.39-12.16,4.73-41.42,7-53.43,0,0-1.91-1.72-1.46-2.63S225.45,323.65,229.27,323.1Z" />
	<path class="cls-34" d="M216.69,340.67s3.24-.4,2.28.88c-.69,1.42-1.58,1.69-1.65,2.51s1.4,44.77,1.4,44.77c-1-2.14-1.08-3.44-1.6-3.54-.76-12.17-.23-29.37-1-41.55,0,0-2.18-1.39-1.9-2.36S213,341.84,216.69,340.67Z" />
	<path class="cls-33" d="M219.52,339s2.38-3.69.39-4.56-3.33,3.25-3.33,3.25-1.89-4.77-3.59-3.8.39,4.29.39,4.29-3.8-1.8-5.32-.7,3.49,2.86,3.49,2.86-3.68.62-1.46,1.83,4.21-.88,4.21-.88c.37,1.14,3.3,1.72,3.74.1.81-.49,5.48.62,5.58-1.23S219.52,339,219.52,339Z" />
	<path class="cls-35" d="M218.15,339.61c-1.2-2-4-.55-3.8.23A6.18,6.18,0,0,1,218.15,339.61Z" />
	<path class="cls-38" d="M83.88,273.12s-12.17,38,20.43,91.35l10.28,18.75S113.14,324.77,98.51,299Z" />
	<path class="cls-38" d="M139.7,301.74s-34.16,16.48-24.79,81.14c0,0,14.44-7,16.32-36.22S127.22,310.73,139.7,301.74Z" />
	<path class="cls-38" d="M24.28,326.22s59.83,6.84,90.83,56.63C115.11,382.81,50.26,373.75,24.28,326.22Z" />
	<path class="cls-12" d="M87.79,292.69s20,54.36,21,71.95Z" />
	<path class="cls-12" d="M106.3,378.53a.44.44,0,0,1-.35-.18C87,353.89,43.56,341.1,43.12,341a.44.44,0,0,1,.25-.85h0c.43.12,44.1,13,63.28,37.67a.47.47,0,0,1-.08.63A.44.44,0,0,1,106.3,378.53Z" />
	<path class="cls-12" d="M126.3,329.48s-10.17,27.94-13.33,48Z" />
	<path class="cls-21" d="M193.85,288.68S160,306.22,146.1,364.3l-5.68,19.6s38.43-40.52,45.93-67.87Z" />
	<path class="cls-21" d="M212.36,345.7s-34.22-11.87-71.47,38.2c0,0,14.49,5.07,35.47-13.5S197.84,343.37,212.36,345.7Z" />
	<path class="cls-21" d="M117.7,284.42s35.89,45,23.32,99.6C141,384,103.26,334.14,117.7,284.42Z" />
	<path class="cls-12" d="M183.29,304.57S160.2,354.87,149,367.4Z" />
	<path class="cls-12" d="M138.23,375.29a.4.4,0,0,1-.28-.16.36.36,0,0,1-.08-.3c3.62-29.4-17.13-67.29-17.34-67.67a.42.42,0,0,1,.16-.57.44.44,0,0,1,.32,0,.4.4,0,0,1,.25.21c.21.38,21.09,38.51,17.44,68.16A.43.43,0,0,1,138.23,375.29Z" />
	<path class="cls-12" d="M184.56,355.45s-25.72,12-41.39,23.51Z" />
	<path class="cls-39" d="M337,484.67h0a.71.71,0,0,1,.72.7h0v17.53a.72.72,0,0,1-.72.72h0a.71.71,0,0,1-.71-.71h0V485.38a.71.71,0,0,1,.71-.71Z" />
	<path class="cls-39" d="M336.78,484.66s-3.66,8.76-21.41,2.67c0,0,13.86-16.87,21.41-5.44,0,0,3-9.54,17.86,0C354.64,481.89,347,492.31,336.78,484.66Z" />
	<path class="cls-40" d="M327,485.22a.63.63,0,0,1-.4-.14.61.61,0,0,1-.05-.84c3.66-4.12,8.78-2.16,10.3-1.44,3.87-4.24,8.71-1,8.77-1a.59.59,0,0,1,.16.82h0a.6.6,0,0,1-.82.17c-.18-.13-4.28-2.79-7.51,1.13a.59.59,0,0,1-.76.14c-.22-.13-5.59-3.15-9.26,1A.56.56,0,0,1,327,485.22Z" />
	<path class="cls-39" d="M171.57,420.6h0a.71.71,0,0,1,.72.7h0v17.53a.72.72,0,0,1-.72.72h0a.71.71,0,0,1-.71-.71h0V421.31A.71.71,0,0,1,171.57,420.6Z" />
	<path class="cls-39" d="M171.36,420.62s-3.66,8.76-21.4,2.66c0,0,13.85-16.86,21.4-5.44,0,0,3-9.53,17.86,0C189.25,417.82,181.57,428.22,171.36,420.62Z" />
	<path class="cls-40" d="M161.57,421.22a.58.58,0,0,1-.39-.15.6.6,0,0,1-.05-.84c3.65-4.11,8.78-2.16,10.3-1.44,3.87-4.23,8.72-1.05,8.76-1a.61.61,0,0,1-.31,1.13.58.58,0,0,1-.39-.15c-.17-.11-4.27-2.79-7.5,1.14a.59.59,0,0,1-.76.14c-.22-.13-5.58-3.16-9.26,1A.56.56,0,0,1,161.57,421.22Z" />
	<path class="cls-39" d="M48.68,355.93h0a.72.72,0,0,1,.72.72h0v17.57a.71.71,0,0,1-.71.71h0a.71.71,0,0,1-.72-.7h0V356.65a.72.72,0,0,1,.72-.72Z" />
	<path class="cls-39" d="M48.52,355.93s-3.67,8.76-21.41,2.66c0,0,13.86-16.85,21.41-5.43,0,0,3-9.54,17.85,0C66.36,353.16,58.7,363.6,48.52,355.93Z" />
	<path class="cls-40" d="M38.68,356.52a.58.58,0,0,1-.62-.54.58.58,0,0,1,.18-.46c3.65-4.12,8.77-2.16,10.3-1.44,3.87-4.24,8.71-1.05,8.76-1a.59.59,0,0,1,.29.54.57.57,0,0,1-.34.51.59.59,0,0,1-.61-.07c-.17-.12-4.28-2.78-7.5,1.14a.59.59,0,0,1-.76.14c-.23-.13-5.6-3.16-9.27,1A.58.58,0,0,1,38.68,356.52Z" />
	<path class="cls-39" d="M641.05,481.9h0a.72.72,0,0,1,.72.72v17.52a.72.72,0,0,1-.72.72h0a.72.72,0,0,1-.72-.72V482.62A.72.72,0,0,1,641.05,481.9Z" />
	<path class="cls-39" d="M640.87,481.9s-3.66,8.76-21.41,2.66c0,0,13.87-16.86,21.41-5.44,0,0,3-9.54,17.86,0C658.73,479.16,651.08,489.55,640.87,481.9Z" />
	<path class="cls-40" d="M631.06,482.49a.59.59,0,0,1-.54-.35.6.6,0,0,1,.09-.64c3.65-4.12,8.78-2.16,10.3-1.43,3.87-4.25,8.72-1.05,8.77-1a.61.61,0,0,1,.25.38.53.53,0,0,1-.1.44.6.6,0,0,1-.82.17c-.17-.12-4.27-2.8-7.49,1.13a.59.59,0,0,1-.76.14c-.23-.13-5.6-3.15-9.26,1A.6.6,0,0,1,631.06,482.49Z" />
	<path class="cls-39" d="M765.08,414.35a.7.7,0,0,1-.5-.2.76.76,0,0,1-.21-.5l.19-17.23a.76.76,0,0,1,.76-.71.73.73,0,0,1,.72.71l-.19,17.23A.76.76,0,0,1,765.08,414.35Z" />
	<path class="cls-39" d="M765.1,395.71s-3.75,8.62-21.43,2.62c0,0,14-16.58,21.46-5.33,0,0,3.11-9.38,17.86,0C783,393,775.23,403.22,765.1,395.71Z" />
	<path class="cls-40" d="M755.29,396.29a.69.69,0,0,1-.41-.15.61.61,0,0,1,0-.85c3.71-4,8.81-2.11,10.32-1.4,3.92-4.17,8.72-1,8.77-1a.6.6,0,0,1,.17.82.62.62,0,0,1-.83.17,5.63,5.63,0,0,0-7.52,1.12.57.57,0,0,1-.76.13c-.22-.13-5.55-3.1-9.28,1A.56.56,0,0,1,755.29,396.29Z" />
	<path class="cls-39" d="M408.14,365.06a.51.51,0,0,1-.54-.48v-.06l.14-13.13a.56.56,0,0,1,.56-.54.55.55,0,0,1,.54.54l-.15,13.13A.55.55,0,0,1,408.14,365.06Z" />
	<path class="cls-39" d="M408.14,350.85s-2.86,6.57-16.34,2c0,0,10.71-12.63,16.36-4.07,0,0,2.36-7.15,13.62,0C421.78,348.78,415.85,356.59,408.14,350.85Z" />
	<path class="cls-40" d="M400.65,351.31a.42.42,0,0,1-.3-.12.46.46,0,0,1,0-.64c2.82-3.08,6.71-1.61,7.86-1.07,3-3.18,6.66-.76,6.69-.76a.4.4,0,0,1,.19.28.41.41,0,0,1-.07.34.45.45,0,0,1-.28.2.45.45,0,0,1-.34-.07,4.3,4.3,0,0,0-5.74.86.46.46,0,0,1-.57.1c-.17-.1-4.24-2.37-7.07.76A.45.45,0,0,1,400.65,351.31Z" />
	<path class="cls-41" d="M725,364.48a4.33,4.33,0,1,0-4.32-4.34h0A4.33,4.33,0,0,0,725,364.48Z" />
	<path class="cls-41" d="M716.36,375.81a4.33,4.33,0,1,0-4.32-4.34v0a4.31,4.31,0,0,0,4.32,4.32Z" />
	<path class="cls-41" d="M738.67,372.22a3.06,3.06,0,1,0-3-3.12v.06A3.05,3.05,0,0,0,738.67,372.22Z" />
	<path class="cls-39" d="M731.06,398.15a1,1,0,0,1-1-1c.18-25.36-3.6-32.81-3.64-32.88a1,1,0,1,1,1.7-.93c.17.32,4.06,7.77,3.88,33.82a.92.92,0,0,1-.29.68A1,1,0,0,1,731.06,398.15Z" />
	<path class="cls-39" d="M731.06,388.22a1,1,0,0,1-.34-1.88c7-2.61,7-14,7-14.13a.93.93,0,0,1,.27-.69.94.94,0,0,1,.69-.29,1,1,0,0,1,1,.95c0,.53,0,12.93-8.25,16A1.55,1.55,0,0,1,731.06,388.22Z" />
	<path class="cls-39" d="M728.69,378a21,21,0,0,1-9.73-2.68,1,1,0,0,1-.3-1.38,1.07,1.07,0,0,1,.3-.3,1,1,0,0,1,1,0s4.95,2.89,10.11,2.34a1,1,0,0,1,.19,1.93A10.34,10.34,0,0,1,728.69,378Z" />
	<path class="cls-41" d="M698.27,374.81a4.24,4.24,0,1,0,1.43-2.92A4.23,4.23,0,0,0,698.27,374.81Z" />
	<path class="cls-39" d="M712.5,399a1,1,0,0,1-.94-.82c0-.12-1.84-13-7-19.29a1,1,0,0,1,.13-1.33.94.94,0,0,1,1.32.13c5.49,6.71,7.33,19.69,7.4,20.24a1,1,0,0,1-.8,1.06Z" />
	<path class="cls-41" d="M803.78,377.49a4.07,4.07,0,0,1-4.14,4h0a3.7,3.7,0,0,1-2.65-1.42,4.45,4.45,0,0,1-.94-3,3.89,3.89,0,1,1,7.78-.22,4.36,4.36,0,0,1-.05.72Z" />
	<path class="cls-39" d="M788,399.65h-.23a.89.89,0,0,1-.54-.41.87.87,0,0,1-.1-.67c.14-.54,3.4-13.15,9.18-19.11a.91.91,0,0,1,1.23,0,.9.9,0,0,1,.06,1.22c-5.45,5.61-8.71,18.17-8.74,18.3A.9.9,0,0,1,788,399.65Z" />
	<path class="cls-41" d="M179.23,372.22a3.68,3.68,0,0,1-3.32,4h-.43a4.09,4.09,0,0,1-2.77-1.43,5,5,0,0,1-1.22-3.11,3.68,3.68,0,0,1,3.32-4h.43A4.58,4.58,0,0,1,179.23,372.22Z" />
	<path class="cls-39" d="M165.53,394.58h-.17a.92.92,0,0,1-.76-1c.09-.54,2.17-13.28,7.38-19.3a.9.9,0,0,1,1.27-.08.89.89,0,0,1,.08,1.25c-4.88,5.63-7,18.29-7,18.41A.88.88,0,0,1,165.53,394.58Z" />
	<path class="cls-42" d="M329.92,423.45c42.53,0,77-10.53,77-23.51s-34.48-23.51-77-23.51-77,10.52-77,23.51S287.36,423.45,329.92,423.45Z" />
	<path class="cls-43" d="M274.86,418.54c14.76,4.5,34.29,7,55.06,7s40.32-2.47,55.06-7c15.71-4.8,24-11.23,24-18.6s-8.31-13.81-24-18.61c-14.77-4.5-34.29-7-55.06-7s-40.33,2.48-55.06,7c-15.74,4.8-24,11.24-24,18.61S259.12,413.77,274.86,418.54Zm1.21-33.25c14.31-4.38,33.48-6.8,53.85-6.8s39.49,2.42,53.85,6.8c13.2,4,21.1,9.51,21.1,14.65s-7.9,10.61-21.1,14.64c-14.32,4.39-33.45,6.8-53.85,6.8s-39.5-2.41-53.85-6.8c-13.21-4-21.1-9.5-21.1-14.64S262.86,389.32,276.07,385.29Z" />
	<path class="cls-44" d="M562.07,423.45c42.53,0,77-10.53,77-23.51s-34.48-23.51-77-23.51-77,10.52-77,23.51S519.54,423.45,562.07,423.45Z" />
	<path class="cls-43" d="M507,418.54c14.77,4.5,34.3,7,55.07,7s40.32-2.47,55.06-7c15.71-4.8,24-11.23,24-18.6s-8.31-13.81-24-18.61c-14.77-4.5-34.3-7-55.06-7s-40.32,2.48-55.07,7c-15.7,4.8-24,11.24-24,18.61S491.36,413.74,507,418.54Zm1.21-33.25c14.32-4.38,33.49-6.8,53.86-6.8s39.49,2.42,53.85,6.8c13.21,4,21.09,9.51,21.09,14.65s-7.88,10.61-21.09,14.64c-14.32,4.39-33.46,6.8-53.85,6.8s-39.5-2.41-53.86-6.8c-13.2-4-21.09-9.5-21.09-14.64s7.89-10.62,21.09-14.65Z" />
	<path class="cls-41" d="M299,386.08a17.16,17.16,0,1,0-17.15-17.17h0A17.17,17.17,0,0,0,299,386.08Z" />
	<path class="cls-45" d="M433.56,245.12q-2.16,9.75-4.29,19.47c-1.66,7.54-5.85,13.68-10.82,19.36a68.62,68.62,0,0,1-10.75,10.46c-5.21,3.86-9.09,9-12.63,14.33-.59.25-.48,1.19-1.52,1.34-.64-8.21-1.21-16.41-3.87-24.25-.1-1-1-2,0-2.67,5.9-3.8,13.1-6.84,18.62-11.2,6.09-4.83,9.77-11,9.64-19.12a19.13,19.13,0,0,1,2.77-10.5c2.51-4.12,6.21-6.4,10.61-7.84,1.22-.4,1.92,0,2.16,1.31.12.7.44.84.44,1.6v4.18" />
	<path class="cls-45" d="M275,343a5.66,5.66,0,0,1,.33-1.52c.49-2.48.76-5,1.48-7.46a57.12,57.12,0,0,0,.85-30.06c-.85-3.41-1.52-6.29-2.28-10.1v-4.57a6.44,6.44,0,0,1,0-1.52,23,23,0,0,1,.57-2.59,4.11,4.11,0,0,1,4.85-3c7.79,1,12.82,5.63,16,12.46a11,11,0,0,1,.48,7.27c-1.52,6.8-2.7,13.69-3.69,20.57-.33,2.32,2.29,3.63,1.58,4.61-3.33,4.39-4.09,9-5.72,14.11-1,3,1,5.48,1.52,8.77.24,1.58-1.16,2.54-1.52,4.19a26.22,26.22,0,0,1-9.33,1.53c-2.33-.31-3.8-1-4.85-3.75-.31-.76-.31-.76-.31-1.18a15.51,15.51,0,0,1-.38-4.19V345" />
	<path class="cls-45" d="M379,406.29a1.64,1.64,0,0,1-1-.16c-9.48-4-19.12-7.51-29.42-8.78a75,75,0,0,0-24,1.1c-5.62,1.12-9.62-1.7-10.35-7.44-.25-2-.32-6-.46-8a27.89,27.89,0,0,0,7.6,5c5.46,2.43,9.67,4.56,15.64,3.8,8.77-1.14,15.75-2.66,23.64-6.84,4.06-.1,8.85,1,12.88.54a6,6,0,0,1,3.17.29,17.43,17.43,0,0,1,8.71,7.33,9.2,9.2,0,0,1-4.71,13.21c-.4.15-.59,0-1,0Z" />
	<path class="cls-46" d="M293.74,325c1.94-2,3.52-3.73,5.16-5.36,4.22-4.19,10-4.14,14,.2,1,1.06,2.28,1.76,2.88,3.46,2-2.6,8.15-9.94,9.12-12.71,3.43,3.39,2.94,3.8,7.61,4.19,3.26.28,8.27,2.79,11.4,3.8,5.49,1.77,12.26,6.08,16.78,9.53,2.86,2.17,1.62,2.92,5.72,2.67,2.41-.15,1.69,1.64,1.52-.76a25.88,25.88,0,0,0-1.91-8.76c-2.39-6.54-2.57-6.09-9.12-6.09a19.91,19.91,0,0,1-9.13-2.28,56.32,56.32,0,0,0-6.84-2.67c-5.91-2.15-10.23-8.66-11.41-14.49-.39-1.88-.4-4.56.77-6.08.76-1,1.9-1.66,2.66-2.67.55-.71,1.81-.59,1.15-.76-1.53-.39-2.35-2.45-4.19-1.91,1.08-.76,2.2-2.7,3.89-1.85.5-.76.09-1.15-.29-1.6-3.35-4-4.83-8.45-3.7-13.75a19.52,19.52,0,0,0,.2-5.81,22.45,22.45,0,0,1,.34-6.84c-3.11-.7-6.08-1.27-9-2-6.75-1.76-12.17-5.73-17.38-10.19a87.28,87.28,0,0,1-17.49-20.9A79.4,79.4,0,0,1,277.64,201c-.41-1.43.08-1.82,1.52-1.52,2.63.59,3.8,2.82,5.32,4.66a55,55,0,0,0,8.91,8.21c7.09,5.7,15.53,7.78,24.23,9a49.18,49.18,0,0,1,19,7.27c2.52,1.52,4,4.05,5.18,6.76,2.14-1.52,4-3.33,6.36-4.29,1-.38.81-1.22.76-1.95a44.54,44.54,0,0,1,1-15A62.09,62.09,0,0,1,358,195.43c5.83-9.44,12.54-18.25,19.11-27.17.8-1.22,1.54-2.47,2.22-3.76.84-1.41,2.66-1.85,3.62-.89a1.58,1.58,0,0,1,.51,1.36c-.88,7.77-1.57,15.58-3.71,23.15-1.15,4.08-2.76,8-3.8,12.16-2,8-3,16.14-4.89,24.14a26.85,26.85,0,0,1-2.28,5.87c1.91,1.52,4.26,2.05,6.27,3.23a12.51,12.51,0,0,1,5.6,7.16c1.64,4.82,3.3,9.71,6.72,13.52,2.48,2.78,4,6,5.59,9.18,1.78,3.49,1.51,6.84-.3,10.33-1.28,2.48-2.86,4.77-4.08,7.27-.76,0,0,1.92-.37,2.28-3.55,3.38-8.64,7.6-13.73,6.48-4-.86-7.3.62-11,1.15-4.77.68-9.69-.64-14.5-.76-3-.09-1.24.95-4.19-.76.58,2.32,2,1,3.81,1.52,6.26,1.69,7.49,2.57,14.11,3,1.11.08,5-1.38,6.08-1.14,4.93,1,5.5.42,10.29-1.15,4.12-1.34,6.4-.43,7.61-4.56.14-.48,1.67-1.46,1.9-1.9.16-.29,1.68-2,1.91-1.91,2.65,7.84,2.79,5.52,3.43,13.72.38,2.67.57,12.11,1.16,11.86-.21,10.27-2.86,20.06-5.67,29.85-1.82,6.35-4.56,12.34-6.75,18.52A51.52,51.52,0,0,1,373.91,373c-3.9,4.7-7.77,9.49-12.43,13.53A72.6,72.6,0,0,1,336.36,394c-6,.75-11.44-1-16.9-3.43-2.83-1.27-3.68-3.8-5.57-5.64-1.83-6.39-5.41-11.49-11.28-14.75a78.66,78.66,0,0,1-10.94-7.4c-2.13-1.71-3.29-4.28-4.5-6.72-.22-.44-.31-1-.76-1.28.37-1.65-.2-3.26-.44-4.84a20.46,20.46,0,0,1,.88-9.51c1.63-5.08,2.72-10.42,6-14.82" />
	<path class="cls-45" d="M330.25,283.91c1.85-.55,2.93,1.17,4.48,1.57.66.16.67,1.27.12,2l-2.28,3a5.78,5.78,0,0,0-1,5c1.21,5.83,4,10.35,9.89,12.5a59.91,59.91,0,0,1,6.76,3c2.93,1.52,6.08,1.71,9.25,1.73,6.58,0,8,1.21,10.42,7.75a38.69,38.69,0,0,1,2.32,10.73,3.54,3.54,0,0,1-3.6,4.12c-4.1.25-6.84-2.4-9.73-4.56-4.52-3.42-9-6.84-14.45-8.62a42.74,42.74,0,0,0-9.72-1.61c-4.68-.41-8.94-1.66-12.38-5-2.47-3.42-4.64-7.1-5.32-11.25-1.42-9,3.52-18.73,13.93-20.1A11.67,11.67,0,0,0,330.25,283.91Z" />
	<path class="cls-47" d="M389.36,285c-.22-.07-.16.5-.31.76a7.09,7.09,0,0,0-.57,1.4,11.49,11.49,0,0,1-8.06,8,27.74,27.74,0,0,1-14.56,1.05,24,24,0,0,0-3.39-.3c-6.61-.47-12.47-3.59-18.72-5.27a4.94,4.94,0,0,1-3.81-3.85c3,1.72,6,1.52,9.06,1.63a85.64,85.64,0,0,0,14.31-.89c3.75-.53,7.43-1.3,11.4-.44,5.09,1.1,9.07-1.88,12.62-5.26.39-.37.52-1.07,1.24-1.05.76.65.85,1.87,1.9,2.28A13.72,13.72,0,0,0,389.36,285Z" />
	<path class="cls-48" d="M289.82,216c.46-.21.55,0,.76.27,6.91,6.08,15,9.72,23.64,12.71,7.51,2.61,14.44,6.59,21.1,10.89a7.73,7.73,0,0,1,2.61,2.95c.76,1.36.36,2.38-1.12,2.9-2.34.84-4.67.26-7-.18-8.1-1.59-15.26-5.16-22-9.89a62.28,62.28,0,0,1-17.45-18.05A2.39,2.39,0,0,1,289.82,216Z" />
	<path class="cls-48" d="M359.59,231.66a42.16,42.16,0,0,1,2-21.09c3.55-9.68,7-19.42,11.74-28.69.13-.25.28-.5.66-1.18a49.62,49.62,0,0,1-.65,12.11c-1.38,7.53-2.63,15.09-4.51,22.51-1.33,5.24-3.81,10.08-5.33,15.25a1.6,1.6,0,0,1-1.75,1.43,1.36,1.36,0,0,1-.35-.07A7,7,0,0,0,359.59,231.66Z" />
	<path class="cls-49" d="M366.6,268.73c0,1.43-.45,2.4-1.69,2.71a2.91,2.91,0,0,1-3.52-1.16A9.64,9.64,0,0,1,360,265a2.18,2.18,0,0,1,1.21-2,2.15,2.15,0,0,1,2.34.29A7.68,7.68,0,0,1,366.6,268.73Z" />
	<path class="cls-50" d="M381.78,275.47c-.76,0-1.07-.52-1.38-1.09a1.13,1.13,0,0,1,.34-1.52c1.82-1.57,3.64-3.14,5.47-4.69a1.14,1.14,0,0,1,1.52-.14,2,2,0,0,1,.66,1.71C388.11,272.64,384.7,275.57,381.78,275.47Z" />
	<path class="cls-51" d="M381.36,251c1.8.17,3.92,3.6,3.28,4.9a1.57,1.57,0,0,1-2.06.82h0c-1.05-.35-2.74-2.93-2.72-4.08S380.55,251,381.36,251Z" />
	<path class="cls-41" d="M572.61,342.3a13.76,13.76,0,1,0-14.25,13.26,13.76,13.76,0,0,0,14.25-13.26Z" />
	<path class="cls-46" d="M488.45,292.45a11.17,11.17,0,0,0-1.29-4.77,37.34,37.34,0,0,1-5.1-15.59,11.64,11.64,0,0,1,5-10.88c3.78-2.72,6.08-6.88,8.83-10.56.71-.93-.18-1.84-.62-2.62a67.16,67.16,0,0,1-5.83-12,105.12,105.12,0,0,1-4.08-17.15,83.79,83.79,0,0,1-.76-15.59,77.55,77.55,0,0,1,4.94-24.5c3-8.48,6.5-16.73,11.9-24a31.31,31.31,0,0,1,5.7-6.08h.39c1.36,3,.76,6.13.65,9.22-.09,4.29-1,8.54-.37,12.88.4,2.94.17,5.95.43,8.93.63,6.84,1.25,13.64,1.48,20.47a138,138,0,0,1-.21,17.73,110.35,110.35,0,0,1-2.75,17.8c-.41,1.6-1,3.15-1.52,4.71-.15.46-.58.89-.06,1.45,8.71-5.62,16.73-3.46,24.66,2.16,1.14-1.45,1.77-3.4,2.77-5.13a34.94,34.94,0,0,1,10.91-11.23c6.63-4.56,13-9.53,20.08-13.46a98.77,98.77,0,0,1,27-10.1c6.08-1.33,12.16-2.32,18.2-3.87,2.58-.66,3.21.86,4.23,2.28v1.15c-2.75,2.15-4.49,5.15-6.5,7.9-4.15,5.69-9.36,10.3-14.55,15a153.25,153.25,0,0,1-16.72,12.88c-4.83,3.29-10.29,5.23-15.53,7.66a127.63,127.63,0,0,1-15.87,6.44A28.69,28.69,0,0,1,538,255a1.74,1.74,0,0,0-1.84,1.64,1.87,1.87,0,0,0,0,.47c.34,6.57,2.41,12.42,7,17.22a4.32,4.32,0,0,1,1.21,4.28,15.45,15.45,0,0,1-5,9,16.66,16.66,0,0,0-3.14,3.3c-.64,0-.33,3.51-.76,3.84a58.51,58.51,0,0,1-26.74,11.1c-6.72.94-12.69-2.92-16.83-7.64C490.25,296.28,490.13,294.35,488.45,292.45Z" />
	<path class="cls-45" d="M434.12,247.73a13.45,13.45,0,0,1-.33-2.68v-1.91c.69-2.32,1.35-4.67,2.11-7,.39-1.06.83-2.09,1.32-3.1.22,0,.37-.09.44,0,5.89,4.56,9.79,10.36,9.88,18,.16,10.79,4.32,19.7,11.92,27.18.76.76,1.44,1.61,2.14,2.43,6.31,7.33,14.74,10,24,10.94.57.06,2.28.05,2.87.08,1,.4,1.3,1.93.76,3-.42.88,1.06,2.88.76,3.8-2.84,4.38-2.93,13.51-4.56,18.35-1.1,3.23-2.74,3.44-3,6.88-.16,1.72-1.77,2.57-2.68,4.21-2.28-5.7-6.9-12.23-10.86-16.8-4.91-5.68-10.35-10.85-15.12-16.68-6.34-7.76-10.64-16.5-14.17-25.79-2.18-5.78-4.5-11.49-5-17.73" />
	<path class="cls-45" d="M536.54,420.43c3.15.05,6.31-.12,9.46-.14h.14c-.25-1.15-.5-2.23-.76-3.22a25.66,25.66,0,0,0-5.32.38c-1.34.13-2.18,2.73-3.44,1.52-.49-.47-1.83-.28-1.91.38l.21,1C535.56,420.37,536.28,420.43,536.54,420.43Z" />
	<path class="cls-45" d="M574.08,381.52c0-.63,1.87.24,2.28,0,3.22-1.76,4.56-5.07,4.2-9.17,2,2.85,5.88,7.34,8.09,10a9.11,9.11,0,0,0,7.38,3.72,11.3,11.3,0,0,1,4.46,1.05,3.9,3.9,0,0,1,2.53,2.67,27.82,27.82,0,0,0,5.62,11c1.31,1.58-.07,2.7-.46,4a2.06,2.06,0,0,1-2.28,1.58,67.48,67.48,0,0,1-10.6-1.31,5.94,5.94,0,0,1-2.72-1.33c-3.26-2.7-6.44-5.56-8.47-9.25C581.86,390.38,577.23,384.88,574.08,381.52Z" />
	<path class="cls-46" d="M582.12,374.22a40.44,40.44,0,0,0-5.46-16.64c-2.28-3.57-5.9-5.68-9.12-8.22s-6.84-4.78-11.35-4.56c-1,.06-2.28-2.63-2.35-3.43-2.1,5.9-6.17,6.94-11.09,10.32-3.12,2.15-5.86,4.15-7.61,7.65-1.36,2.67-3.44,5.22-6.5,5.73-2.68.46-2.19-1-5-.38-1.28-2.28-.28,0,.39-2.28.81-2.86,2.39-2.17,3.44-5,1.8-4.77,3.48-5.76,7.64-7.6,2.1-.95,6.16-3.45,7.26-5.32,3-5.12,4.17-12.52,4.57-18.35.54-7.38-1.9-15.21-2.28-22.56-.06-1.08-2.64-4.65-2.68-5.73-2.09,1-7.46,2.39-9.56,3.43-7,3.47-11.29,6.14-19.11,6.51-7.16.33-12.17-.29-17.59-4.57-2.79-2.2-8.41-8.79-8.44-6.52-2.83,4.38-4,9.44-5.61,14.29a42.19,42.19,0,0,0-2.15,10c-.16,1.71.28,3.56-.63,5.2-.88,4.85,0,9.6,1.07,14.28,2,8.85,5.19,17.38,8.36,25.85a51.46,51.46,0,0,0,8.09,14.9,106.86,106.86,0,0,1,8.66,12.24c3,5,6.95,9.21,10.85,13.43,4.86,5.24,10.32,9.78,17.07,12.48a3.68,3.68,0,0,1,1.52,1.06c.7,0,1.74.11,2.07.12,2,0,4,0,6-.07a8.05,8.05,0,0,1,3.18-.59c0-.31,0-.75.18-.91,1.62-1.52.92-3,.06-4.46-.54-.94-1-1.91-1.59-2.82-3.24-5.13-6-10.43-6.21-16.73a7.16,7.16,0,0,1,1.72-5.43c5.32-5.92,12.54-5.47,19.4-5.64,3.73-.09,7.44,1.13,11.31.5,1.78-.29,3.49-1.19,5.33-.88,0-.63.47-.86.89-1.09C580.1,380.57,582.52,378.31,582.12,374.22Z" />
	<path class="cls-45" d="M554.87,343.22c-2.09,5.89-6.59,9.69-11.51,13.07-3.12,2.14-5.93,4.46-7.71,8a8.83,8.83,0,0,1-6.84,4.68c-2.68.46-5.32,1.23-8.09,1.88a8.83,8.83,0,0,1-.71-7c.81-2.87,2-5.63,3-8.41,1.8-4.78,6.08-6.6,10.28-8.48A10,10,0,0,0,538,342.7a38,38,0,0,0,4.63-16.55c.54-7.38-.65-14.68-1-22-.06-1.08-.08-2.16-.12-3.24-.35-1.29-.9-2.62.81-3.41,3.1.38,4.87,2.7,6.08,5.05,3.68,7.19,8.17,14.11,8.37,22.61C557,331.27,556.77,337.34,554.87,343.22Z" />
	<path class="cls-47" d="M542.36,297.45c-1.71.76-1.16,2.12-.81,3.41-2.1,1-3.88,2.56-6,3.61a54.4,54.4,0,0,1-22,5.66c-7.16.34-13-2-18.5-6.29a66.11,66.11,0,0,1-7.74-7.22,23,23,0,0,1,.93-2.8c.53-1.14.1-1.71-.9-2.12h1.52c1.67,1.9,2.84,4.15,4.52,6.09,4.14,4.72,8.77,7.28,15.49,6.34,10.08-1.4,18.1-6.6,26-12.34.46-.33.8-.84,1.44-.84,1.31,1.61,2.61,3.23,3.94,4.82C540.8,296.45,541.29,297.33,542.36,297.45Z" />
	<path class="cls-48" d="M534.36,249.64c-.36-.76-1.19-1.58-1.57-2.39,7.73-11.44,18.76-18.67,31.06-24.37a89.11,89.11,0,0,1,25.85-7.54,9.55,9.55,0,0,1,1.07,0c-.51,1.72-1.75,2.68-2.9,3.72a70.59,70.59,0,0,1-12.07,8.36c-5.24,3-10,6.75-15.12,10a97.19,97.19,0,0,1-22.24,10.4C536.93,248.3,536,249,534.36,249.64Z" />
	<path class="cls-48" d="M499.16,244.67c-7-22.44-5.85-44.17,1-66.33.18,1.71.38,3.42.52,5.14.61,7.31.25,14.64.44,22,.33,11.72.42,23.43.41,35.14A4,4,0,0,1,499.16,244.67Z" />
	<path class="cls-50" d="M516,287.42a10.41,10.41,0,0,1-5.26-1.7,1.8,1.8,0,0,1-.8-2.14c.33-1.06,1.16-.76,1.9-.71,2.35.22,4.69.47,7,.67.81.07,2-.12,1.94,1a2.5,2.5,0,0,1-1.52,2.47A8.39,8.39,0,0,1,516,287.42Z" />
	<path class="cls-51" d="M502.94,262.12a6.81,6.81,0,0,1-1,3.43,1.88,1.88,0,0,1-1.82,1.13,2.12,2.12,0,0,1-1.62-1.46,6.62,6.62,0,0,1,1.15-5.19,1.82,1.82,0,0,1,2.12-.31A2.23,2.23,0,0,1,502.94,262.12Z" />
	<path class="cls-52" d="M527.09,266.22c-.05-1,.2-1.76,1.13-2.06a1.66,1.66,0,0,1,1.93.89c.81,1.21,1.67,2.39.83,4-.31.58-.44,1.2-1.2,1.26a1.87,1.87,0,0,1-1.77-.92A7.54,7.54,0,0,1,527.09,266.22Z" />
</svg>
