<svg id="Layer_1" data-name="Layer 1" xmlns="http://www.w3.org/2000/svg" viewBox="0 0 1429.5 705.11">
	<defs>
		<style>
			.cls-1{fill:#b8a58f;}.cls-2{fill:#d6cbbf;}.cls-3{fill:#c5b6a4;}.cls-4{fill:#cabdac;}.cls-5{fill:#bca9ff;}.cls-6{fill:#bc8dff;}.cls-7{opacity:0.8;}.cls-8{fill:#a97dff;}.cls-9{fill:#a375fc;}.cls-10,.cls-12,.cls-13,.cls-14,.cls-15,.cls-17{fill:none;}.cls-10,.cls-17{stroke:#cdccce;}.cls-10,.cls-14{stroke-width:3.68px;opacity:0.3;}.cls-10,.cls-12,.cls-14,.cls-17{isolation:isolate;}.cls-11{fill:#b88dfc;}.cls-12,.cls-13,.cls-14,.cls-15{stroke:#b88dfc;}.cls-12,.cls-13,.cls-17{stroke-width:1.84px;}.cls-12,.cls-17{opacity:0.5;}.cls-15{stroke-linecap:round;stroke-linejoin:round;stroke-width:0.92px;}.cls-16{fill:#cdccce;}.cls-18{fill:#c8b9fc;}.cls-19{fill:#fffd03;}.cls-19,.cls-20{fill-rule:evenodd;}.cls-20{fill:#fdca02;}
		</style>
	</defs>
	<title>
		test-background
	</title>
	<path class="cls-1" d="M690.82,704.74H694v.37h-3.08A.93.93,0,0,1,690.82,704.74Z" />
	<path class="cls-2" d="M689.3,705.1c.15-.33.45-.34.76-.36v.36Z" />
	<path class="cls-3" d="M690.07,705.1v-.36h.76v.36Z" />
	<path class="cls-4" d="M693.93,705.1a2.29,2.29,0,0,1,0-.37l.76.37Z" />
	<path class="cls-5" d="M351.81,240.08l-55.27-20,21.15-18L10.29,87,11,85,321.84,201.38l-21.11,18,51.8,18.72Z" />
	<path class="cls-5" d="M287.58,262l-88.37-33.17,18.21-15.5,81.64,30.73,8.11-6.89-51.47-19,.73-2,54.9,20.2L299.49,246.5l-81.64-30.73-14.49,12.32,85,31.9Z" />
	<path class="cls-6" d="M257.49,221a4.52,4.52,0,1,0-4.49-4.55v0A4.53,4.53,0,0,0,257.49,221Z" />
	<g class="cls-7">
		<path class="cls-8" d="M202.18,200.76A2.78,2.78,0,1,0,199.4,198h0A2.77,2.77,0,0,0,202.18,200.76Z" />
		<path class="cls-8" d="M215.92,205.15a2.78,2.78,0,1,0-2.77-2.79h0a2.77,2.77,0,0,0,2.76,2.78Z" />
		<path class="cls-8" d="M229.67,209.54a2.78,2.78,0,1,0-2.77-2.79h0A2.79,2.79,0,0,0,229.67,209.54Z" />
		<path class="cls-8" d="M243.41,213.93a2.78,2.78,0,1,0-2.78-2.78h0a2.77,2.77,0,0,0,2.77,2.77Z" />
	</g>
	<path class="cls-6" d="M290.55,267.63A4.52,4.52,0,1,0,286,263.1h0A4.53,4.53,0,0,0,290.55,267.63Z" />
	<g class="cls-7">
		<path class="cls-8" d="M264.47,285.14a2.78,2.78,0,1,0-2.78-2.78h0a2.77,2.77,0,0,0,2.77,2.77Z" />
		<path class="cls-8" d="M277.75,290.79A2.78,2.78,0,1,0,275,288v0A2.77,2.77,0,0,0,277.75,290.79Z" />
		<path class="cls-8" d="M291,296.43a2.78,2.78,0,1,0-2.77-2.79v0A2.77,2.77,0,0,0,291,296.43Z" />
		<path class="cls-8" d="M304.3,302.07a2.78,2.78,0,1,0-2.78-2.78h0A2.78,2.78,0,0,0,304.3,302.07Z" />
	</g>
	<path class="cls-9" d="M7.37,91.46A7.38,7.38,0,1,0,0,84.07v0A7.37,7.37,0,0,0,7.37,91.46Z" />
	<g class="cls-7">
		<path class="cls-8" d="M67.38,180.77A5.42,5.42,0,1,0,62,175.31v0A5.42,5.42,0,0,0,67.38,180.77Z" />
		<path class="cls-8" d="M95.25,184.77a5.42,5.42,0,1,0-5.41-5.43h0A5.42,5.42,0,0,0,95.25,184.77Z" />
		<path class="cls-8" d="M123.12,188.77a5.41,5.41,0,1,0-5.41-5.41h0A5.42,5.42,0,0,0,123.12,188.77Z" />
		<path class="cls-8" d="M151,192.78a5.42,5.42,0,1,0-5.42-5.42h0a5.41,5.41,0,0,0,5.41,5.41Z" />
	</g>
	<path class="cls-5" d="M1088,240.08l-.73-2,51.81-18.72-21.11-18L1428.76,85l.74,2L1122.1,202.11l21.15,18Z" />
	<path class="cls-5" d="M1152.21,262l-.75-2,85-31.9L1222,215.81l-81.64,30.73-11.85-10.08,54.9-20.2.74,2-51.51,19,8.1,6.89,81.64-30.73,18.21,15.5Z" />
	<path class="cls-6" d="M1182.3,221a4.52,4.52,0,1,0-4.52-4.52,4.52,4.52,0,0,0,4.52,4.52Z" />
	<g class="cls-7">
		<path class="cls-8" d="M1210.12,209.54a2.78,2.78,0,1,0-2.77-2.79h0A2.78,2.78,0,0,0,1210.12,209.54Z" />
		<path class="cls-8" d="M1196.38,213.93a2.78,2.78,0,1,0-2.78-2.78h0a2.77,2.77,0,0,0,2.77,2.77Z" />
	</g>
	<path class="cls-6" d="M1149.23,267.63a4.52,4.52,0,1,0-4.51-4.53h0A4.53,4.53,0,0,0,1149.23,267.63Z" />
	<g class="cls-7">
		<path class="cls-8" d="M1175.32,285.14a2.78,2.78,0,1,0-2.78-2.78h0a2.77,2.77,0,0,0,2.77,2.77Z" />
		<path class="cls-8" d="M1162,290.79a2.78,2.78,0,1,0-2.77-2.79v0a2.77,2.77,0,0,0,2.77,2.77Z" />
		<path class="cls-8" d="M1148.76,296.43a2.78,2.78,0,1,0-2.77-2.79v0A2.78,2.78,0,0,0,1148.76,296.43Z" />
		<path class="cls-8" d="M1135.49,302.07a2.78,2.78,0,1,0-2.78-2.78h0a2.77,2.77,0,0,0,2.77,2.77Z" />
	</g>
	<path class="cls-10" d="M673,197.16A11.11,11.11,0,1,0,661.9,186h0A11.1,11.1,0,0,0,673,197.16Z" />
	<path class="cls-11" d="M719.73,247.27h-.14l-.18-.07a.34.34,0,0,1-.21-.33V221.66H673a.35.35,0,0,1-.35-.35V185.53a.37.37,0,0,1,.35-.31h44.06V165a.34.34,0,0,1,.33-.35h0a.36.36,0,0,1,.36.35v20.52a.35.35,0,0,1-.35.35h-44V221h46.19a.39.39,0,0,1,.25.1.35.35,0,0,1,.1.25v25.28a.37.37,0,0,1,.15.44A.36.36,0,0,1,719.73,247.27Z" />
	<path class="cls-11" d="M717.38,173.75a.35.35,0,0,1-.35-.35V68.48a.39.39,0,0,1,.1-.25.35.35,0,0,1,.49,0,.36.36,0,0,1,.11.26V173.4A.35.35,0,0,1,717.38,173.75Z" />
	<path class="cls-12" d="M719.55,267.36A20.35,20.35,0,1,0,699.21,247h0A20.35,20.35,0,0,0,719.55,267.36Z" />
	<path class="cls-13" d="M718.24,96.79A27.82,27.82,0,1,0,690.43,69h0A27.82,27.82,0,0,0,718.24,96.79Z" />
	<path class="cls-11" d="M673,189a3,3,0,1,0-3-3A3,3,0,0,0,673,189Z" />
	<path class="cls-11" d="M812.55,69.36h-188a.34.34,0,0,1-.35-.35V23.94a.34.34,0,0,1,.33-.35h0a.37.37,0,0,1,.35.35V68.6H812.55a.37.37,0,0,1,.35.35.34.34,0,0,1-.08.29A.36.36,0,0,1,812.55,69.36Z" />
	<path class="cls-9" d="M716.84,71.93a3,3,0,1,0-3-3A3,3,0,0,0,716.84,71.93Z" />
	<path class="cls-14" d="M812.54,79.55a11.11,11.11,0,1,0-11.1-11.12h0a11.1,11.1,0,0,0,11.09,11.11Z" />
	<path class="cls-15" d="M812.54,68.44V25" />
	<path class="cls-16" d="M812.54,71.93a3,3,0,1,0-2.95-3.05v.05A3,3,0,0,0,812.54,71.93Z" />
	<path class="cls-9" d="M625.25,29a3,3,0,1,0-3-3A3,3,0,0,0,625.25,29Z" />
	<path class="cls-12" d="M624.55,46.39A20.35,20.35,0,1,0,604.21,26h0A20.35,20.35,0,0,0,624.55,46.39Z" />
	<path class="cls-11" d="M624.56,102.05a.35.35,0,0,1-.35-.35V69a.35.35,0,0,1,.35-.35.37.37,0,0,1,.35.35V101.7A.35.35,0,0,1,624.56,102.05Z" />
	<path class="cls-5" d="M624.55,107.61a3,3,0,1,0-2.95-3v0A3,3,0,0,0,624.55,107.61Z" />
	<path class="cls-11" d="M810.45,21.68H602.82a.35.35,0,0,1-.35-.35.34.34,0,0,1,.33-.35H810.45a.34.34,0,0,1,.35.33v0A.35.35,0,0,1,810.45,21.68Z" />
	<path class="cls-11" d="M812.54,24.44a3,3,0,1,0-2.95-3.05v.05A3,3,0,0,0,812.54,24.44Z" />
	<path class="cls-17" d="M602.82,41.61a20.35,20.35,0,1,0-20.35-20.35h0a20.34,20.34,0,0,0,20.34,20.34Z" />
	<path class="cls-11" d="M602.82,24.63a3.92,3.92,0,1,0-3.93-3.92,3.93,3.93,0,0,0,3.93,3.92Z" />
	<path class="cls-18" d="M673.77,197.64a2.33,2.33,0,1,0-2.33-2.33,2.33,2.33,0,0,0,2.33,2.33Z" />
	<path class="cls-19" d="M1061.14,328.67s-2-3-.32-3.68,2.77,2.62,2.77,2.62,1.52-3.8,3-3-.32,3.47-.32,3.47,3.17-1.46,4.39-.57-2.89,2.28-2.89,2.28,3,.49,1.21,1.47-3.49-.7-3.49-.7c-.32.91-2.74,1.38-3.11.07-.67-.4-4.56.5-4.63-1S1061.14,328.67,1061.14,328.67Z" />
	<path class="cls-20" d="M1062.28,329.22c1-1.61,3.34-.44,3.17.19A5.21,5.21,0,0,0,1062.28,329.22Z" />
</svg>
