<svg id="Layer_1" data-name="Layer 1" xmlns="http://www.w3.org/2000/svg" viewBox="0 0 401 232">
	<defs>
		<style>
			.cls-1{fill:#5f45ba;}
		</style>
	</defs>
	<title>
		We can reclaim the Internet together
	</title>
	<path class="cls-1" d="M21.08,10.69A13.88,13.88,0,0,1,23.26,10a11.17,11.17,0,0,1,3.07-.44,10.57,10.57,0,0,1,4.48.83A3.41,3.41,0,0,1,33,12.67q.71,2.63,1.28,4.93c.43,1.49.84,2.94,1.22,4.35s.75,2.73,1.09,4.1.74,2.79,1.09,4.29H38c.38-2.61.72-5.08,1-7.43s.58-4.71.83-7,.51-4.57.77-6.79.51-4.54.77-6.85A10.13,10.13,0,0,1,46.42,1a7.92,7.92,0,0,1,4.1,1,3.71,3.71,0,0,1,1.73,3.46,36.66,36.66,0,0,1-.32,4q-.26,2.56-.77,5.76T50.07,22q-.63,3.53-1.34,6.72T47.26,34.5a27.26,27.26,0,0,1-1.35,4,7.41,7.41,0,0,1-3.13,1.48,17.64,17.64,0,0,1-4.48.57,14.8,14.8,0,0,1-5.12-.77,3.85,3.85,0,0,1-2.5-2.3c-.55-1.71-1.15-3.73-1.79-6.08s-1.32-4.93-2.05-7.74q-.9,4.15-1.86,8.12t-1.72,6.72a7.3,7.3,0,0,1-2.88,1.48,14.82,14.82,0,0,1-4.23.57,16.73,16.73,0,0,1-5.25-.77,5,5,0,0,1-3-2.3,23.91,23.91,0,0,1-1.28-3.39Q6,31.74,5.27,28.86T3.8,22.53q-.7-3.39-1.34-6.79c-.39-2.26-.75-4.45-1.09-6.59S.77,5,.6,3.2A9.12,9.12,0,0,1,3.1,1.66,8.41,8.41,0,0,1,6.55,1a6.68,6.68,0,0,1,4,1.09,4.73,4.73,0,0,1,2,3.52q1,6.52,1.67,10.88t1.09,7.17c.29,1.83.51,3.26.64,4.28s.25,1.84.38,2.44h.32c.38-1.71.75-3.29,1.09-4.74l1-4.35c.39-1.5.77-3.07,1.15-4.74S20.65,12.86,21.08,10.69ZM73.4,41a23.49,23.49,0,0,1-7-1,16.73,16.73,0,0,1-5.63-3.2A15.25,15.25,0,0,1,57,31.49,19.38,19.38,0,0,1,55.61,24,17.71,17.71,0,0,1,57,16.77a14.33,14.33,0,0,1,3.65-5A13.6,13.6,0,0,1,65.72,8.9a18.49,18.49,0,0,1,5.89-1,17.54,17.54,0,0,1,6.14,1,14.24,14.24,0,0,1,4.8,2.82,12,12,0,0,1,3.14,4.28,12.82,12.82,0,0,1,1.15,5.44,4.38,4.38,0,0,1-1.21,3.33,6.1,6.1,0,0,1-3.4,1.47l-15.8,2.37a5.35,5.35,0,0,0,2.88,3.2,11.62,11.62,0,0,0,5,1,18.52,18.52,0,0,0,4.92-.64,17.11,17.11,0,0,0,3.85-1.6,5.28,5.28,0,0,1,1.72,1.79,4.69,4.69,0,0,1-2,6.72,14.5,14.5,0,0,1-4.61,1.47A32,32,0,0,1,73.4,41ZM71.61,15.87a6.59,6.59,0,0,0-2.69.51,5.32,5.32,0,0,0-1.79,1.35A5.52,5.52,0,0,0,66,19.52a7.8,7.8,0,0,0-.38,2L76.6,19.71a4.9,4.9,0,0,0-1.41-2.56A4.71,4.71,0,0,0,71.61,15.87Zm50.82.64a9.28,9.28,0,0,0-3.07.51,7.11,7.11,0,0,0-4.17,4,8.76,8.76,0,0,0-.63,3.46c0,2.64.74,4.63,2.23,5.95a8.28,8.28,0,0,0,5.57,2,11.34,11.34,0,0,0,3.33-.44,21.19,21.19,0,0,0,2.5-1,6.41,6.41,0,0,1,1.92,2,4.67,4.67,0,0,1,.64,2.5,4.55,4.55,0,0,1-2.5,4.09A14.13,14.13,0,0,1,121.34,41a21.8,21.8,0,0,1-7.3-1.15,17.6,17.6,0,0,1-5.63-3.33,15.32,15.32,0,0,1-3.58-5.18,16.76,16.76,0,0,1-1.28-6.66,18.67,18.67,0,0,1,1.34-7.36A14.65,14.65,0,0,1,108.67,12,16,16,0,0,1,114.11,9a21.13,21.13,0,0,1,6.59-1q4.6,0,7.1,1.66a5,5,0,0,1,2.5,4.29,4.76,4.76,0,0,1-.58,2.3A8.13,8.13,0,0,1,128.38,18a18.54,18.54,0,0,0-2.63-1A10.45,10.45,0,0,0,122.43,16.51Zm27.08,16.58a17.12,17.12,0,0,0,2.37-.19,6.51,6.51,0,0,0,2-.64V27.14l-4.61.38a7,7,0,0,0-2.94.77,2.06,2.06,0,0,0-1.16,1.92,2.67,2.67,0,0,0,1,2.11A5.81,5.81,0,0,0,149.51,33.09ZM149,7.94a25.76,25.76,0,0,1,6.27.7,13.22,13.22,0,0,1,4.87,2.18,9.19,9.19,0,0,1,3.13,3.64,11.42,11.42,0,0,1,1.09,5.19V34a4,4,0,0,1-1,2.76,8.94,8.94,0,0,1-2.17,1.79Q157.06,41,149.51,41a27,27,0,0,1-6.14-.64,14.6,14.6,0,0,1-4.67-1.92,9.21,9.21,0,0,1-3-3.26,9.94,9.94,0,0,1-1-4.61,8.66,8.66,0,0,1,2.62-6.78q2.63-2.37,8.13-2.95L153.8,20v-.45a2.66,2.66,0,0,0-1.66-2.62,10.33,10.33,0,0,0-4.67-.84,21.32,21.32,0,0,0-4.74.52,24.55,24.55,0,0,0-4.16,1.28,4.61,4.61,0,0,1-1.41-1.73,5.81,5.81,0,0,1-.57-2.5,4.09,4.09,0,0,1,.76-2.62,6.39,6.39,0,0,1,2.5-1.73,19.07,19.07,0,0,1,4.35-1A37.64,37.64,0,0,1,149,7.94Zm41.73,12.35a3.45,3.45,0,0,0-1.15-2.88,4.4,4.4,0,0,0-3-1,10.15,10.15,0,0,0-2.56.32,6.2,6.2,0,0,0-2.11,1V39.94a16.88,16.88,0,0,1-2.05.38,19.73,19.73,0,0,1-2.82.19,15.44,15.44,0,0,1-2.56-.19,4.23,4.23,0,0,1-1.85-.77A3.88,3.88,0,0,1,171.4,38a7.54,7.54,0,0,1-.38-2.63V16.19a5.07,5.07,0,0,1,.7-2.81,8.12,8.12,0,0,1,2.05-2,18.42,18.42,0,0,1,5.44-2.49,26.5,26.5,0,0,1,7.36-1q7.23,0,11.13,3.2a10.59,10.59,0,0,1,3.91,8.76v20a16.88,16.88,0,0,1-2.05.38,19.63,19.63,0,0,1-2.82.19,15.44,15.44,0,0,1-2.56-.19,4.23,4.23,0,0,1-1.85-.77A4,4,0,0,1,191.11,38a7.79,7.79,0,0,1-.38-2.63ZM13.21,93.94a16.88,16.88,0,0,1-2.05.38,19.63,19.63,0,0,1-2.82.19,15.52,15.52,0,0,1-2.56-.19,4.23,4.23,0,0,1-1.85-.77A4,4,0,0,1,2.71,92a7.79,7.79,0,0,1-.38-2.63V70.19a5.53,5.53,0,0,1,.51-2.49,6.09,6.09,0,0,1,1.6-1.92,10.45,10.45,0,0,1,2.5-1.48,24.14,24.14,0,0,1,3.26-1.21,24.45,24.45,0,0,1,3.58-.77A22.25,22.25,0,0,1,17.5,62a8.55,8.55,0,0,1,4.86,1.22,4.21,4.21,0,0,1,1.79,3.84,6.55,6.55,0,0,1-.25,1.79,8.78,8.78,0,0,1-.64,1.53c-.9,0-1.82.05-2.76.13s-1.85.22-2.75.39-1.75.36-2.56.57a10,10,0,0,0-2,.64ZM43.9,95a23.49,23.49,0,0,1-7-1,16.73,16.73,0,0,1-5.63-3.2,15.25,15.25,0,0,1-3.78-5.31A19.38,19.38,0,0,1,26.11,78a17.71,17.71,0,0,1,1.34-7.23,14.33,14.33,0,0,1,3.65-5,13.6,13.6,0,0,1,5.12-2.88,18.49,18.49,0,0,1,5.89-1,17.54,17.54,0,0,1,6.14,1,14.24,14.24,0,0,1,4.8,2.82,12,12,0,0,1,3.14,4.28,12.82,12.82,0,0,1,1.15,5.44,4.38,4.38,0,0,1-1.21,3.33,6.1,6.1,0,0,1-3.4,1.47L36.92,82.67a5.4,5.4,0,0,0,2.89,3.2,11.62,11.62,0,0,0,5,1,18.52,18.52,0,0,0,4.92-.64,16.81,16.81,0,0,0,3.84-1.6,5.22,5.22,0,0,1,1.73,1.79,4.69,4.69,0,0,1-2,6.72,14.5,14.5,0,0,1-4.61,1.47A32,32,0,0,1,43.9,95ZM42.11,69.87a6.59,6.59,0,0,0-2.69.51,5.32,5.32,0,0,0-1.79,1.35,5.52,5.52,0,0,0-1.09,1.79,7.8,7.8,0,0,0-.38,2L47.1,73.71a4.9,4.9,0,0,0-1.41-2.56A4.71,4.71,0,0,0,42.11,69.87Zm38,.64A9.33,9.33,0,0,0,77,71a7.28,7.28,0,0,0-2.49,1.54A7.19,7.19,0,0,0,72.88,75a8.75,8.75,0,0,0-.64,3.46c0,2.64.75,4.63,2.24,6a8.26,8.26,0,0,0,5.57,2,11.34,11.34,0,0,0,3.33-.44,20.35,20.35,0,0,0,2.49-1,6.19,6.19,0,0,1,1.92,2,4.78,4.78,0,0,1-1.85,6.59A14.16,14.16,0,0,1,79,95a21.8,21.8,0,0,1-7.3-1.15,17.5,17.5,0,0,1-5.63-3.33,15.34,15.34,0,0,1-3.59-5.18,16.93,16.93,0,0,1-1.28-6.66,18.49,18.49,0,0,1,1.35-7.36A14.75,14.75,0,0,1,66.35,66,16,16,0,0,1,71.79,63a21.2,21.2,0,0,1,6.6-1q4.6,0,7.1,1.66A5,5,0,0,1,88,67.89a4.88,4.88,0,0,1-.58,2.3A8.13,8.13,0,0,1,86.07,72a18.54,18.54,0,0,0-2.63-1A10.47,10.47,0,0,0,80.11,70.51ZM105,93.94c-.47.08-1.17.19-2.11.32a14.65,14.65,0,0,1-2.75.25,15.44,15.44,0,0,1-2.56-.19,4.22,4.22,0,0,1-1.86-.77A4,4,0,0,1,94.47,92a7.52,7.52,0,0,1-.39-2.63V52.27c.47-.08,1.15-.19,2-.32A15.81,15.81,0,0,1,99,51.7a14.17,14.17,0,0,1,2.49.19,4.27,4.27,0,0,1,1.92.77,3.31,3.31,0,0,1,1.15,1.6,6.09,6.09,0,0,1,.45,2.56Zm20.18-6.85a17.36,17.36,0,0,0,2.37-.19,6.43,6.43,0,0,0,2-.64V81.14l-4.61.38a7.11,7.11,0,0,0-2.94.77,2,2,0,0,0-1.15,1.92,2.67,2.67,0,0,0,1,2.11A5.76,5.76,0,0,0,125.14,87.09Zm-.51-25.15a25.88,25.88,0,0,1,6.27.7,13.24,13.24,0,0,1,4.86,2.18,9.14,9.14,0,0,1,3.14,3.64A11.42,11.42,0,0,1,140,73.65V88a4,4,0,0,1-1,2.76,9,9,0,0,1-2.18,1.79Q132.7,95,125.14,95a26.93,26.93,0,0,1-6.14-.64,14.66,14.66,0,0,1-4.68-1.92,9.09,9.09,0,0,1-3-3.26,9.82,9.82,0,0,1-1-4.61,8.67,8.67,0,0,1,2.63-6.78q2.63-2.37,8.12-3l8.39-.89v-.45a2.67,2.67,0,0,0-1.67-2.62,10.28,10.28,0,0,0-4.67-.84,21.16,21.16,0,0,0-4.73.52,24,24,0,0,0-4.16,1.28,4.43,4.43,0,0,1-1.41-1.73,5.68,5.68,0,0,1-.58-2.5A4.09,4.09,0,0,1,113,65a6.39,6.39,0,0,1,2.5-1.73,18.81,18.81,0,0,1,4.35-1A37.64,37.64,0,0,1,124.63,61.94Zm21.75-7.68a5.67,5.67,0,0,1,1.61-4.1,5.85,5.85,0,0,1,4.35-1.66,5.68,5.68,0,0,1,4.29,1.66,5.88,5.88,0,0,1,0,8.19A5.69,5.69,0,0,1,152.34,60,5.86,5.86,0,0,1,148,58.35,5.67,5.67,0,0,1,146.38,54.26Zm11.4,39.68c-.47.08-1.18.19-2.12.32a14.65,14.65,0,0,1-2.75.25,15.44,15.44,0,0,1-2.56-.19,4.23,4.23,0,0,1-1.85-.77A4,4,0,0,1,147.28,92a7.54,7.54,0,0,1-.38-2.63v-26c.47-.08,1.15-.19,2-.32a15.62,15.62,0,0,1,2.81-.25,14.37,14.37,0,0,1,2.5.19,4.37,4.37,0,0,1,1.92.77,3.49,3.49,0,0,1,1.15,1.6,6.09,6.09,0,0,1,.45,2.56Zm21.84-32a17.45,17.45,0,0,1,5.12.76,12.32,12.32,0,0,1,4.41,2.18,19,19,0,0,1,4.29-2.11,17.9,17.9,0,0,1,5.82-.83,17.54,17.54,0,0,1,4.74.64,11.56,11.56,0,0,1,4.16,2,9.29,9.29,0,0,1,2.94,3.65,12.5,12.5,0,0,1,1.09,5.51V93.94a16.88,16.88,0,0,1-2.05.38,19.49,19.49,0,0,1-2.81.19,15.44,15.44,0,0,1-2.56-.19,4.22,4.22,0,0,1-1.86-.77A3.86,3.86,0,0,1,201.7,92a7.52,7.52,0,0,1-.39-2.63V74.1a3.26,3.26,0,0,0-1.09-2.76,4.5,4.5,0,0,0-2.94-.89,4.77,4.77,0,0,0-1.92.45,4.94,4.94,0,0,0-1.54.83,1.79,1.79,0,0,1,.07.51v21.7a20.62,20.62,0,0,1-2.12.38,19,19,0,0,1-2.75.19,15.44,15.44,0,0,1-2.56-.19,4.23,4.23,0,0,1-1.85-.77A4,4,0,0,1,183.39,92a7.54,7.54,0,0,1-.38-2.63V74.1a3.12,3.12,0,0,0-1.22-2.76,4.49,4.49,0,0,0-2.81-.89,4.84,4.84,0,0,0-2,.38,14,14,0,0,0-1.41.64V93.94a16.63,16.63,0,0,1-2,.38,19.73,19.73,0,0,1-2.82.19,15.44,15.44,0,0,1-2.56-.19,4.27,4.27,0,0,1-1.86-.77A4,4,0,0,1,165.09,92a7.52,7.52,0,0,1-.39-2.63V70.06a4.77,4.77,0,0,1,.71-2.75,8.87,8.87,0,0,1,2.05-1.92,18.57,18.57,0,0,1,5.37-2.49A24,24,0,0,1,179.62,61.94Zm62.9,21.37a2.67,2.67,0,0,0,1,2.37,5.52,5.52,0,0,0,3,.7,17.25,17.25,0,0,0,2-.12,14.11,14.11,0,0,0,1.79-.45,6.86,6.86,0,0,1,1,1.6,4.26,4.26,0,0,1,.45,2,4.89,4.89,0,0,1-1.86,4c-1.19,1-3.33,1.54-6.4,1.54-3.75,0-6.66-.85-8.7-2.56s-3-4.48-3-8.32V56.69a18.14,18.14,0,0,1,2-.39,15.17,15.17,0,0,1,2.82-.25,7.82,7.82,0,0,1,4.35,1c1.07.64,1.6,2,1.6,4.16v4.1h8.38a8.65,8.65,0,0,1,.71,1.79,6.42,6.42,0,0,1,.38,2.3,4.48,4.48,0,0,1-1,3.27,3.55,3.55,0,0,1-2.62,1h-5.83ZM288,93.94a16.88,16.88,0,0,1-2.05.38,19.73,19.73,0,0,1-2.82.19,15.44,15.44,0,0,1-2.56-.19,4.23,4.23,0,0,1-1.85-.77A3.88,3.88,0,0,1,277.49,92a7.54,7.54,0,0,1-.38-2.63V75.18c0-1.75-.45-3-1.35-3.64a4.74,4.74,0,0,0-3.2-1.09,8.8,8.8,0,0,0-2.43.32,6.81,6.81,0,0,0-1.86.77v22.4a16.63,16.63,0,0,1-2,.38,19.73,19.73,0,0,1-2.82.19,15.44,15.44,0,0,1-2.56-.19,4.27,4.27,0,0,1-1.86-.77A4,4,0,0,1,257.78,92a7.52,7.52,0,0,1-.39-2.63V52.27l2.05-.32a15.81,15.81,0,0,1,2.82-.25,14.17,14.17,0,0,1,2.49.19,4.27,4.27,0,0,1,1.92.77,3.39,3.39,0,0,1,1.16,1.6,6.27,6.27,0,0,1,.44,2.56v6.27a19.67,19.67,0,0,1,2.5-.71,15.44,15.44,0,0,1,3.78-.44q6.33,0,9.85,3.2t3.59,9.4ZM311.15,95a23.49,23.49,0,0,1-7-1,16.73,16.73,0,0,1-5.63-3.2,15.25,15.25,0,0,1-3.78-5.31A19.38,19.38,0,0,1,293.36,78a17.71,17.71,0,0,1,1.34-7.23,14.33,14.33,0,0,1,3.65-5,13.6,13.6,0,0,1,5.12-2.88,18.49,18.49,0,0,1,5.89-1,17.54,17.54,0,0,1,6.14,1,14.24,14.24,0,0,1,4.8,2.82,12,12,0,0,1,3.14,4.28,12.82,12.82,0,0,1,1.15,5.44,4.38,4.38,0,0,1-1.21,3.33A6.1,6.1,0,0,1,320,80.3l-15.81,2.37a5.41,5.41,0,0,0,2.88,3.2,11.69,11.69,0,0,0,5,1,18.65,18.65,0,0,0,4.93-.64,17.21,17.21,0,0,0,3.84-1.6,5.28,5.28,0,0,1,1.72,1.79,4.69,4.69,0,0,1-2,6.72A14.5,14.5,0,0,1,316,94.64,32,32,0,0,1,311.15,95Zm-1.79-25.15a6.59,6.59,0,0,0-2.69.51,5.32,5.32,0,0,0-1.79,1.35,5.52,5.52,0,0,0-1.09,1.79,7.8,7.8,0,0,0-.38,2l10.94-1.79a4.9,4.9,0,0,0-1.41-2.56A4.71,4.71,0,0,0,309.36,69.87Zm-295,77.87a17.7,17.7,0,0,1-2.24.39,22.33,22.33,0,0,1-2.94.19,11.6,11.6,0,0,1-2.63-.26,4.22,4.22,0,0,1-1.85-.76,3.49,3.49,0,0,1-1.16-1.6A8,8,0,0,1,3.16,143V109.22c.47-.09,1.22-.2,2.24-.32a17,17,0,0,1,2.94-.26,10.68,10.68,0,0,1,2.56.26,4.26,4.26,0,0,1,1.92.76,3.49,3.49,0,0,1,1.16,1.6,8,8,0,0,1,.38,2.69Zm27.18-19.45a3.4,3.4,0,0,0-1.15-2.88,4.4,4.4,0,0,0-3-1,10.69,10.69,0,0,0-2.56.32,6.28,6.28,0,0,0-2.11,1v22.21a16.88,16.88,0,0,1-2.05.38,19.63,19.63,0,0,1-2.82.19,15.52,15.52,0,0,1-2.56-.19,4.23,4.23,0,0,1-1.85-.77A4,4,0,0,1,22.21,146a7.79,7.79,0,0,1-.38-2.63v-19.2a5.07,5.07,0,0,1,.7-2.81,8.29,8.29,0,0,1,2-2A18.42,18.42,0,0,1,30,116.9a26.5,26.5,0,0,1,7.36-1q7.23,0,11.14,3.2a10.61,10.61,0,0,1,3.9,8.76v20a16.88,16.88,0,0,1-2.05.38,19.49,19.49,0,0,1-2.81.19,15.35,15.35,0,0,1-2.56-.19,4.22,4.22,0,0,1-1.86-.77A4,4,0,0,1,41.92,146a7.79,7.79,0,0,1-.38-2.63Zm28.48,9a2.67,2.67,0,0,0,1,2.37,5.52,5.52,0,0,0,3,.7,17.25,17.25,0,0,0,2-.12,14.11,14.11,0,0,0,1.79-.45,6.86,6.86,0,0,1,1,1.6,4.26,4.26,0,0,1,.45,2.05,4.89,4.89,0,0,1-1.86,4c-1.19,1-3.33,1.54-6.4,1.54-3.75,0-6.66-.85-8.7-2.56s-3-4.48-3-8.32V110.69a18.14,18.14,0,0,1,2-.39,15.17,15.17,0,0,1,2.82-.25,7.82,7.82,0,0,1,4.35,1c1.07.64,1.6,2,1.6,4.16v4.1H78.4a8.65,8.65,0,0,1,.71,1.79,6.64,6.64,0,0,1,.38,2.3,4.5,4.5,0,0,1-1,3.27,3.56,3.56,0,0,1-2.63,1H70ZM100.84,149a23.44,23.44,0,0,1-7-1,16.73,16.73,0,0,1-5.63-3.2,15.25,15.25,0,0,1-3.78-5.31A19.19,19.19,0,0,1,83.05,132a17.54,17.54,0,0,1,1.34-7.23,14.33,14.33,0,0,1,3.65-5,13.6,13.6,0,0,1,5.12-2.88,18.49,18.49,0,0,1,5.89-1,17.54,17.54,0,0,1,6.14,1,14.24,14.24,0,0,1,4.8,2.82,12,12,0,0,1,3.14,4.28,13,13,0,0,1,1.15,5.44,4.36,4.36,0,0,1-1.22,3.33,6,6,0,0,1-3.39,1.47l-15.81,2.37a5.41,5.41,0,0,0,2.88,3.2,11.66,11.66,0,0,0,5,1,18.57,18.57,0,0,0,4.92-.64,16.81,16.81,0,0,0,3.84-1.6,5.31,5.31,0,0,1,1.73,1.79,4.71,4.71,0,0,1-2,6.72,14.5,14.5,0,0,1-4.61,1.47A32,32,0,0,1,100.84,149Zm-1.79-25.15a6.59,6.59,0,0,0-2.69.51,5.1,5.1,0,0,0-1.79,1.35,5.35,5.35,0,0,0-1.09,1.79,8.27,8.27,0,0,0-.39,2l11-1.79a4.86,4.86,0,0,0-1.41-2.56A4.71,4.71,0,0,0,99.05,123.87Zm31.35,24.07a16.88,16.88,0,0,1-2.05.38,19.73,19.73,0,0,1-2.82.19,15.44,15.44,0,0,1-2.56-.19,4.23,4.23,0,0,1-1.85-.77A3.88,3.88,0,0,1,119.9,146a7.54,7.54,0,0,1-.38-2.63v-19.2a5.53,5.53,0,0,1,.51-2.49,6,6,0,0,1,1.6-1.92,10.58,10.58,0,0,1,2.49-1.48,24.8,24.8,0,0,1,3.27-1.21,24.18,24.18,0,0,1,3.58-.77,22.22,22.22,0,0,1,3.71-.32,8.5,8.5,0,0,1,4.87,1.22,4.21,4.21,0,0,1,1.79,3.84,6.57,6.57,0,0,1-.26,1.79,7.8,7.8,0,0,1-.64,1.53c-.89,0-1.81.05-2.75.13a27.16,27.16,0,0,0-2.75.39c-.9.17-1.75.36-2.56.57a10,10,0,0,0-2,.64Zm34.51-19.65a3.4,3.4,0,0,0-1.15-2.88,4.36,4.36,0,0,0-3-1,10.62,10.62,0,0,0-2.56.32,6.25,6.25,0,0,0-2.12,1v22.21a16.63,16.63,0,0,1-2,.38,19.73,19.73,0,0,1-2.82.19,15.44,15.44,0,0,1-2.56-.19,4.27,4.27,0,0,1-1.86-.77,4,4,0,0,1-1.21-1.53,7.52,7.52,0,0,1-.39-2.63v-19.2a5.07,5.07,0,0,1,.71-2.81,8.12,8.12,0,0,1,2.05-2,18.42,18.42,0,0,1,5.44-2.49,26.45,26.45,0,0,1,7.36-1q7.23,0,11.13,3.2a10.61,10.61,0,0,1,3.9,8.76v20a16.25,16.25,0,0,1-2,.38,19.73,19.73,0,0,1-2.82.19,15.44,15.44,0,0,1-2.56-.19,4.32,4.32,0,0,1-1.86-.77A4,4,0,0,1,165.3,146a7.52,7.52,0,0,1-.39-2.63ZM199,149a23.54,23.54,0,0,1-7-1,16.73,16.73,0,0,1-5.63-3.2,15.1,15.1,0,0,1-3.77-5.31,19.19,19.19,0,0,1-1.35-7.49,17.54,17.54,0,0,1,1.35-7.23,14.19,14.19,0,0,1,3.64-5,13.68,13.68,0,0,1,5.12-2.88,18.54,18.54,0,0,1,5.89-1,17.63,17.63,0,0,1,6.15,1,14.44,14.44,0,0,1,4.8,2.82,12,12,0,0,1,3.13,4.28,12.82,12.82,0,0,1,1.15,5.44,4.36,4.36,0,0,1-1.21,3.33,6,6,0,0,1-3.39,1.47L192,136.67a5.41,5.41,0,0,0,2.88,3.2,11.62,11.62,0,0,0,5,1,18.65,18.65,0,0,0,4.93-.64,16.81,16.81,0,0,0,3.84-1.6,5.31,5.31,0,0,1,1.73,1.79,4.68,4.68,0,0,1,.7,2.43,4.58,4.58,0,0,1-2.69,4.29,14.42,14.42,0,0,1-4.61,1.47A31.76,31.76,0,0,1,199,149Zm-1.79-25.15a6.62,6.62,0,0,0-2.69.51,5.2,5.2,0,0,0-1.79,1.35,5.52,5.52,0,0,0-1.09,1.79,7.8,7.8,0,0,0-.38,2l10.94-1.79a4.73,4.73,0,0,0-5-3.84Zm31.35,13.44a2.67,2.67,0,0,0,1,2.37,5.52,5.52,0,0,0,3,.7,17.25,17.25,0,0,0,2-.12,14.11,14.11,0,0,0,1.79-.45,6.86,6.86,0,0,1,1,1.6,4.26,4.26,0,0,1,.45,2.05,4.89,4.89,0,0,1-1.86,4c-1.19,1-3.33,1.54-6.4,1.54-3.75,0-6.66-.85-8.7-2.56s-3-4.48-3-8.32V110.69a18.14,18.14,0,0,1,2-.39,15.17,15.17,0,0,1,2.82-.25,7.82,7.82,0,0,1,4.35,1c1.07.64,1.6,2,1.6,4.16v4.1h8.38a8.65,8.65,0,0,1,.71,1.79,6.42,6.42,0,0,1,.38,2.3,4.5,4.5,0,0,1-1,3.27,3.55,3.55,0,0,1-2.62,1h-5.83ZM21.2,197.6a4.16,4.16,0,0,0,1.6,3.7,8.62,8.62,0,0,0,4.7,1.1,25.7,25.7,0,0,0,3.1-.2,20.76,20.76,0,0,0,2.8-.7,10.37,10.37,0,0,1,1.5,2.5,6.64,6.64,0,0,1,.7,3.2,7.69,7.69,0,0,1-2.9,6.2q-2.81,2.4-10,2.4-8.81,0-13.6-4t-4.7-13V156a28.6,28.6,0,0,1,3.1-.6,23.23,23.23,0,0,1,4.4-.4,12.19,12.19,0,0,1,6.8,1.6q2.51,1.5,2.5,6.5v6.4H34.3a14.2,14.2,0,0,1,1.1,2.8,10.22,10.22,0,0,1,.6,3.6q0,3.49-1.6,5.1a5.55,5.55,0,0,1-4.1,1.5H21.2ZM94,190a30.47,30.47,0,0,1-1.9,11.1,22.39,22.39,0,0,1-13.6,13.1,31.94,31.94,0,0,1-10.7,1.7,30.29,30.29,0,0,1-10.7-1.8,24.53,24.53,0,0,1-8.3-5.1,24,24,0,0,1-5.3-8.2,31.36,31.36,0,0,1,0-21.5,23,23,0,0,1,5.3-8.1,23.71,23.71,0,0,1,8.3-5.2,30.29,30.29,0,0,1,10.7-1.8,28.75,28.75,0,0,1,10.7,1.9,22.59,22.59,0,0,1,8.2,5.2,22,22,0,0,1,5.4,8.1A28.48,28.48,0,0,1,94,190Zm-35,0q0,6.1,2.3,9.4a7.81,7.81,0,0,0,6.6,3.2,7.21,7.21,0,0,0,6.4-3.3c1.54-2.2,2.3-5.3,2.3-9.3s-.76-7.07-2.3-9.2a8.05,8.05,0,0,0-13,0Q59,184,59,190Zm67-25.8a33.14,33.14,0,0,1,10.3,1.5,26.44,26.44,0,0,1,7.9,3.7,11.55,11.55,0,0,1,3.1,3.1,7.45,7.45,0,0,1,1.2,4.4v35a19.34,19.34,0,0,1-2,9.1,17.75,17.75,0,0,1-5.5,6.4,22.31,22.31,0,0,1-8.1,3.8,39.15,39.15,0,0,1-9.9,1.2q-9.11,0-14.3-2.5a8.14,8.14,0,0,1-5.2-7.9,9.06,9.06,0,0,1,.9-4.1,8.65,8.65,0,0,1,2.2-2.6,33.47,33.47,0,0,0,6.5,2.7,26.61,26.61,0,0,0,7.6,1.1,17.57,17.57,0,0,0,8.6-1.8,6.16,6.16,0,0,0,3.2-5.8v-1.6a24.86,24.86,0,0,1-10,1.8,28.17,28.17,0,0,1-8.6-1.3,20.47,20.47,0,0,1-7.1-4.2,21.93,21.93,0,0,1-4.9-7.4,28.77,28.77,0,0,1-1.8-10.7,27,27,0,0,1,1.9-10.6,20.37,20.37,0,0,1,5.4-7.4,22,22,0,0,1,8.2-4.4A34.67,34.67,0,0,1,126,164.2Zm6.2,14.5a10.1,10.1,0,0,0-2.1-.8,11.35,11.35,0,0,0-3.3-.4q-4.91,0-7.4,2.8t-2.4,7.8q0,5.81,2.4,8.4a8.51,8.51,0,0,0,6.3,2.5,10.18,10.18,0,0,0,6.5-1.9Zm52.53,37.2a36.52,36.52,0,0,1-11-1.6,26.1,26.1,0,0,1-8.8-5A23.76,23.76,0,0,1,159,201a30,30,0,0,1-2.11-11.7A27.56,27.56,0,0,1,159,178a22.27,22.27,0,0,1,5.69-7.8,21.57,21.57,0,0,1,8-4.5,28.93,28.93,0,0,1,9.2-1.5,27.33,27.33,0,0,1,9.61,1.6,22.59,22.59,0,0,1,7.5,4.4,18.76,18.76,0,0,1,4.89,6.7,19.88,19.88,0,0,1,1.8,8.5,6.84,6.84,0,0,1-1.89,5.2,9.51,9.51,0,0,1-5.3,2.3l-24.7,3.7a8.45,8.45,0,0,0,4.5,5,18,18,0,0,0,7.8,1.6,28.6,28.6,0,0,0,7.7-1,26,26,0,0,0,6-2.5,8.53,8.53,0,0,1,2.7,2.8,7.33,7.33,0,0,1-3.11,10.5,22.29,22.29,0,0,1-7.2,2.3A50.57,50.57,0,0,1,184.68,215.9Zm-2.8-39.3a10.35,10.35,0,0,0-4.2.8,8.16,8.16,0,0,0-2.8,2.1,8.72,8.72,0,0,0-1.7,2.8,12,12,0,0,0-.59,3.1l17.09-2.8a7.51,7.51,0,0,0-2.19-4A7.4,7.4,0,0,0,181.88,176.6Zm49,21a4.16,4.16,0,0,0,1.6,3.7,8.62,8.62,0,0,0,4.7,1.1,25.7,25.7,0,0,0,3.1-.2,20.76,20.76,0,0,0,2.8-.7,10.37,10.37,0,0,1,1.5,2.5,6.64,6.64,0,0,1,.7,3.2,7.69,7.69,0,0,1-2.9,6.2q-2.81,2.4-10,2.4-8.81,0-13.6-4t-4.7-13V156a28.6,28.6,0,0,1,3.1-.6,23.23,23.23,0,0,1,4.4-.4,12.19,12.19,0,0,1,6.8,1.6q2.5,1.5,2.5,6.5v6.4H244a14.2,14.2,0,0,1,1.1,2.8,10.22,10.22,0,0,1,.6,3.6c0,2.33-.54,4-1.6,5.1a5.55,5.55,0,0,1-4.1,1.5h-9.1Zm71,16.6a23.52,23.52,0,0,1-3.2.6,31.14,31.14,0,0,1-4.4.3,24.41,24.41,0,0,1-4-.3,6.66,6.66,0,0,1-2.9-1.2,6.16,6.16,0,0,1-1.9-2.4,11.84,11.84,0,0,1-.6-4.1V184.9q0-4.1-2.1-5.7a7.48,7.48,0,0,0-5-1.7,14.23,14.23,0,0,0-3.8.5,10.59,10.59,0,0,0-2.9,1.2v35a23.52,23.52,0,0,1-3.2.6,31.14,31.14,0,0,1-4.4.3,24.41,24.41,0,0,1-4-.3,6.66,6.66,0,0,1-2.9-1.2,6.16,6.16,0,0,1-1.9-2.4,11.84,11.84,0,0,1-.6-4.1v-58c.73-.13,1.8-.3,3.2-.5a24.17,24.17,0,0,1,4.4-.4,22.74,22.74,0,0,1,3.9.3,6.77,6.77,0,0,1,3,1.2,5.38,5.38,0,0,1,1.8,2.5,9.66,9.66,0,0,1,.7,4V166a31.13,31.13,0,0,1,3.9-1.1,23.28,23.28,0,0,1,5.9-.7q9.9,0,15.4,5t5.6,14.7Zm36.19,1.7a36.47,36.47,0,0,1-11-1.6,26.1,26.1,0,0,1-8.8-5,23.91,23.91,0,0,1-5.9-8.3,30,30,0,0,1-2.1-11.7,27.56,27.56,0,0,1,2.1-11.3,22.42,22.42,0,0,1,5.7-7.8,21.57,21.57,0,0,1,8-4.5,28.93,28.93,0,0,1,9.2-1.5,27.23,27.23,0,0,1,9.6,1.6,22.39,22.39,0,0,1,7.5,4.4,18.66,18.66,0,0,1,4.9,6.7,20,20,0,0,1,1.8,8.5,6.81,6.81,0,0,1-1.9,5.2,9.45,9.45,0,0,1-5.3,2.3l-24.7,3.7a8.51,8.51,0,0,0,4.5,5,18.09,18.09,0,0,0,7.8,1.6,28.49,28.49,0,0,0,7.7-1,25.68,25.68,0,0,0,6-2.5,8.34,8.34,0,0,1,2.7,2.8,7.34,7.34,0,0,1-3.1,10.5,22.29,22.29,0,0,1-7.2,2.3A50.57,50.57,0,0,1,338.1,215.9Zm-2.8-39.3a10.32,10.32,0,0,0-4.2.8,8.16,8.16,0,0,0-2.8,2.1,8.55,8.55,0,0,0-1.7,2.8,12.42,12.42,0,0,0-.6,3.1l17.1-2.8a7.53,7.53,0,0,0-2.2-4A7.36,7.36,0,0,0,335.3,176.6Zm49,37.6a23.52,23.52,0,0,1-3.2.6,31.14,31.14,0,0,1-4.4.3,24.41,24.41,0,0,1-4-.3,6.66,6.66,0,0,1-2.9-1.2,6.16,6.16,0,0,1-1.9-2.4,11.84,11.84,0,0,1-.6-4.1v-30a8.58,8.58,0,0,1,.8-3.9,9.73,9.73,0,0,1,2.5-3,16.46,16.46,0,0,1,3.9-2.3,38.41,38.41,0,0,1,10.7-3.1,34.33,34.33,0,0,1,5.8-.5,13.34,13.34,0,0,1,7.6,1.9c1.86,1.2,2.8,3.2,2.8,6a10.41,10.41,0,0,1-.4,2.8,13,13,0,0,1-1,2.4c-1.4,0-2.84.07-4.3.2a42.39,42.39,0,0,0-4.3.6c-1.4.27-2.74.57-4,.9a15.48,15.48,0,0,0-3.1,1Z" transform="translate(-0.6 -0.96)" />
</svg>
