<?xml version="1.0" standalone="no"?>
<!DOCTYPE svg PUBLIC "-//W3C//DTD SVG 1.1//EN" "http://www.w3.org/Graphics/SVG/1.1/DTD/svg11.dtd" >
<svg xmlns="http://www.w3.org/2000/svg" xmlns:xlink="http://www.w3.org/1999/xlink" version="1.1">
<metadata>
Created by FontForge 20180930 at Mon Oct  8 19:18:54 2018
 By root
Copyright (c) 2015 by Deepak Singh Dogra. All rights reserved.
</metadata>
<defs>
<font id="GeometosRounded" horiz-adv-x="846" >
  <font-face 
    font-family="Geometos Rounded"
    font-weight="400"
    font-stretch="normal"
    units-per-em="1000"
    panose-1="0 0 0 0 0 0 0 0 0 0"
    ascent="750"
    descent="-250"
    x-height="731"
    cap-height="731"
    bbox="-13.5 -203.903 1342 922"
    underline-thickness="50"
    underline-position="-100"
    unicode-range="U+0020-2122"
  />
    <missing-glyph />
    <glyph glyph-name="space" unicode=" " horiz-adv-x="342" 
 />
    <glyph glyph-name="E" unicode="E" horiz-adv-x="683" 
d="M220 577v-121q0 -13 9 -22t22 -9h292q13 0 22 -9t9 -22v-65q0 -13 -9 -22t-22 -9h-292q-13 0 -22 -9t-9 -22v-110q0 -13 9 -22t22 -9h337q13 0 22 -9t9 -22v-64q0 -13 -9 -22t-22 -9h-477q-13 0 -22 9t-9 22v670q0 13 9 22t22 9h477q13 0 22 -9t9 -22v-62q0 -13 -9 -22
t-22 -9h-337q-13 0 -22 -9t-9 -22z" />
    <glyph glyph-name="F" unicode="F" horiz-adv-x="652" 
d="M220 577v-119q0 -13 9 -22t22 -9h292q13 0 21.5 -9t8.5 -22v-67q0 -13 -8.5 -22t-21.5 -9h-292q-13 0 -22 -9t-9 -22v-236q0 -13 -8.5 -22t-21.5 -9h-79q-13 0 -22 9t-9 22v670q0 13 9 22t22 9h477q13 0 21.5 -9t8.5 -22v-62q0 -13 -8.5 -22t-21.5 -9h-337q-13 0 -22 -9
t-9 -22z" />
    <glyph glyph-name="G" unicode="G" horiz-adv-x="828" 
d="M791 369q-1 -20 -1.5 -40t-1.5 -23q-6 -71 -37 -128q-32 -59 -81 -101q-49 -43 -114 -67t-136 -24q-78 0 -147 30t-121 82q-53 53 -82 120q-30 69 -30 147q0 77 30 148q15 35 35.5 65t46.5 56q53 51 121 81q69 30 147 30q100 0 182 -46q69 -38 115 -98q8 -10 5.5 -22
t-13.5 -19l-68 -41q-11 -7 -23.5 -4t-21.5 12q-14 16 -29.5 30t-34.5 25q-53 32 -112 32q-48 0 -93 -20q-46 -22 -76 -55q-32 -34 -52 -79q-19 -45 -19 -95q0 -51 19 -95q20 -45 52 -79q31 -34 76 -54q43 -21 93 -21q38 0 73 12q35 11 64 32q28 20 51 50q13 17 20 35
q6 12 -0.5 20.5t-19.5 8.5h-208q-13 0 -22 9t-9 22v64q0 13 9 22t22 9h360q13 0 22 -9t9 -22z" />
    <glyph glyph-name="H" unicode="H" horiz-adv-x="800" 
d="M720 701v-670q0 -13 -9 -22t-22 -9h-78q-13 0 -22 9t-9 22v229q0 13 -9 22t-22 9h-299q-13 0 -22 -9t-9 -22v-229q0 -13 -9 -22t-22 -9h-78q-13 0 -22 9t-9 22v670q0 13 9 22t22 9h78q13 0 22 -9t9 -22v-255q0 -13 9 -22t22 -9h299q13 0 22 9t9 22v255q0 13 9 22t22 9h78
q13 0 22 -9t9 -22z" />
    <glyph glyph-name="I" unicode="I" horiz-adv-x="340" 
d="M209 0h-79q-13 0 -21.5 9t-8.5 22v669q0 13 8.5 22t21.5 9h79q13 0 22 -9t9 -22v-669q0 -13 -9 -22t-22 -9z" />
    <glyph glyph-name="J" unicode="J" horiz-adv-x="609" 
d="M532 700v-428q0 -66 -19 -117t-55 -90q-37 -39 -86 -58q-50 -21 -111 -21q-87 0 -148 40q-49 30 -81 84q-6 11 -1.5 23t15.5 17l71 32q12 5 22 4t13 -7q2 -3 4.5 -6.5t4.5 -6.5q11 -16 24 -26q13 -11 33 -19q19 -8 43 -8q43 0 69 17q25 16 39 42q7 13 12 25.5t7 26.5
t3 25.5t1 22.5v428q0 13 9 22t22 9h78q13 0 22 -9t9 -22z" />
    <glyph glyph-name="K" unicode="K" horiz-adv-x="735" 
d="M506 23l-266 288q-8 9 -14 6.5t-6 -15.5v-271q0 -13 -9 -22t-22 -9h-79q-13 0 -21.5 9t-8.5 22v670q0 13 8.5 22t21.5 9h79q13 0 22 -9t9 -22v-310q0 -13 5.5 -15t13.5 8l253 323q8 10 22 17t27 7h111q13 0 16.5 -7t-4.5 -17l-263 -330q-8 -10 -7.5 -23.5t9.5 -22.5
l288 -309q8 -9 5.5 -15.5t-15.5 -6.5h-124q-13 0 -28 6.5t-23 16.5z" />
    <glyph glyph-name="L" unicode="L" horiz-adv-x="615" 
d="M607 93v-62q0 -13 -9 -22t-22 -9h-465q-13 0 -22 9t-9 22v670q0 13 9 22t22 9h78q13 0 22 -9t9 -22v-546q0 -13 9 -22t22 -9h325q13 0 22 -9t9 -22z" />
    <glyph glyph-name="M" unicode="M" horiz-adv-x="898" 
d="M817 715v-684q0 -13 -9 -22t-21 -9h-79q-13 0 -22 9t-9 22v308q0 13 -5.5 15.5t-13.5 -8.5l-190 -227q-8 -10 -19.5 -10t-19.5 10l-189 227q-8 10 -14 8t-6 -15v-308q0 -13 -9 -22t-22 -9h-78q-13 0 -22 9t-9 22v684q0 13 12 15t20 -8l316 -390q8 -9 20 -9t20 9l317 390
q8 10 20 8t12 -15z" />
    <glyph glyph-name="N" unicode="N" horiz-adv-x="796" 
d="M220 404v-373q0 -13 -9 -22t-22 -9h-79q-12 0 -21 9t-9 22v684q0 13 12.5 15.5t21.5 -5.5l439 -415q10 -9 16.5 -6t6.5 16v380q0 13 9 22t22 9h78q13 0 22 -9t9 -22v-683q0 -13 -12.5 -15.5t-22.5 5.5l-438 408q-10 8 -16.5 5t-6.5 -16z" />
    <glyph glyph-name="O" unicode="O" 
d="M422 -14q-78 0 -147 30t-120.5 81.5t-81.5 120.5t-30 148q0 78 30 147.5t81.5 121t120.5 81.5t147 30q79 0 148 -30t120.5 -81.5t81.5 -121t30 -147.5q0 -79 -30 -148t-81.5 -120.5t-120.5 -81.5t-148 -30zM422 615q-50 0 -93.5 -20.5t-76 -54.5t-51.5 -79.5t-19 -94.5
q0 -50 19 -95t51.5 -79.5t76 -55t93.5 -20.5t93.5 20.5t76 55t51.5 79.5t19 95q0 49 -19 94.5t-51.5 79.5t-76 54.5t-93.5 20.5z" />
    <glyph glyph-name="P" unicode="P" horiz-adv-x="678" 
d="M508 712q47 -21 82 -56q18 -17 31.5 -38t24.5 -44q20 -49 20 -102q0 -54 -18 -100t-53 -80q-34 -34 -88 -54q-55 -20 -124 -20h-132q-13 0 -22 -9t-9 -22v-156q0 -13 -8.5 -22t-21.5 -9h-79q-13 0 -22 9t-9 22v670q0 13 9 22t22 9h295q53 0 102 -20zM460 355q23 10 38 28
q7 9 12.5 19.5t8.5 21.5q7 21 7 48q0 24 -9 50q-9 25 -26 43q-16 19 -42 31q-24 12 -58 12h-140q-13 0 -22 -9t-9 -22v-202q0 -13 9 -22t22 -9h155q30 0 54 11z" />
    <glyph glyph-name="Q" unicode="Q" horiz-adv-x="827" 
d="M803 97v-67q0 -13 -9 -22t-22 -9h-333q-102 0 -177 30q-75 29 -123 80q-48 48 -73 118q-23 69 -23 145t29 145q30 67 80 119q52 51 118 80q69 29 145 29q75 0 145 -29q68 -30 118 -80q51 -52 80 -119q30 -68 30 -145q0 -31 -8 -68q-8 -35 -24 -68q-19 -34 -44 -61
q-8 -9 -18 -16.5t-21 -15.5q-23 -15 4 -15h95q13 0 22 -9t9 -22zM183 372q0 -48 18 -91t50 -75q30 -32 74 -52q41 -19 90 -19t91 19t73 52q32 32 50 75q19 42 19 91q0 50 -19 92q-18 43 -50 75t-73 51q-42 19 -91 19t-90 -19q-43 -20 -74 -51q-32 -32 -50 -75
q-18 -44 -18 -92z" />
    <glyph glyph-name="R" unicode="R" horiz-adv-x="720" 
d="M190 0h-79q-13 0 -22 9t-9 22v670q0 13 9 22t22 9h302q56 0 103 -18q46 -20 79 -52q17 -17 30 -37t22 -43q18 -47 18 -102q0 -85 -41 -145q-32 -48 -83 -76q-11 -6 -14 -16.5t5 -20.5q37 -50 70.5 -94.5t69.5 -94.5q8 -11 4.5 -22t-16.5 -11h-101q-13 0 -27 7t-22 17
q-17 23 -33.5 45.5t-33.5 45.5l-66 93q-8 11 -22 18t-27 7h-77q-13 0 -22 -9t-9 -22v-171q0 -13 -8.5 -22t-21.5 -9zM251 357h162q18 0 39 8q22 8 37 23t26 38q10 21 10 54q0 18 -4 38q-2 11 -6 21.5t-9 20.5q-12 20 -34 34q-23 14 -59 14h-162q-13 0 -22 -9t-9 -22v-189
q0 -13 9 -22t22 -9z" />
    <glyph glyph-name="S" unicode="S" horiz-adv-x="680" 
d="M68 121l42 62q7 11 19 13t23 -5q45 -28 88 -48q57 -28 123 -28q34 0 60 9q24 7 44 22q18 14 27 31q9 16 9 34q0 21 -14 38q-13 14 -36 25q-11 5 -24 9t-29 8q-15 4 -30.5 7t-32.5 6q-11 2 -24 4.5t-27 5.5q-29 4 -60 15q-32 9 -61 25q-30 15 -54 39q-24 22 -39 56
q-14 33 -14 76q0 63 26 107q25 41 66 67q39 23 90 34q47 10 96 10q46 0 82 -6q18 -3 34.5 -7.5t32.5 -9.5q16 -6 31 -13.5t29 -15.5q10 -6 19 -12t20 -12q11 -8 13 -20t-6 -23l-42 -60q-8 -11 -20.5 -13t-23.5 5q-39 25 -74 38q-47 19 -101 19q-9 0 -19.5 -1t-21.5 -3
q-23 -5 -44 -15q-10 -5 -18.5 -11t-15.5 -14q-13 -16 -13 -38t16 -37t41 -25q13 -5 26.5 -9t28.5 -8t29.5 -7t28.5 -7q11 -2 23 -5t26 -5t29 -5.5t30 -8.5q8 -2 16.5 -5t16.5 -6q12 -5 27.5 -13t26.5 -16q8 -5 14.5 -10.5t12.5 -11.5q25 -25 38 -58q15 -35 15 -84
q0 -56 -20 -99q-20 -42 -57 -69q-38 -29 -88 -42q-53 -14 -113 -14q-58 0 -101 9q-41 7 -79 23q-18 7 -35 15.5t-33 18.5q-10 6 -20 12.5t-21 14.5q-11 7 -13 19t5 23z" />
    <glyph glyph-name="T" unicode="T" horiz-adv-x="622" 
d="M575 608h-147q-13 0 -22 -9t-9 -22v-546q0 -13 -9 -22t-22 -9h-78q-13 0 -22 9t-9 22v546q0 13 -9 22t-22 9h-148q-13 0 -22 9t-9 22v62q0 13 9 22t22 9h497q13 0 22 -9t9 -22v-62q0 -13 -9 -22t-22 -9z" />
    <glyph glyph-name="U" unicode="U" horiz-adv-x="788" 
d="M265 9q-60 23 -99 62q-42 40 -64 97q-22 56 -22 127v405q0 13 9 22t21 9h79q13 0 22 -9t9 -22v-404q0 -55 18 -91q18 -35 44 -57q28 -22 57 -29q16 -4 29.5 -6t25.5 -2q22 0 54 8q31 7 57 29q27 21 45 57t18 91v404q0 13 9 22t22 9h78q13 0 22 -9t9 -22v-405
q0 -35 -5.5 -66.5t-16.5 -60.5q-22 -56 -63 -97q-40 -39 -99 -62q-57 -22 -130 -22t-129 22z" />
    <glyph glyph-name="V" unicode="V" horiz-adv-x="721" 
d="M702 703l-320 -690q-5 -11 -19 -11t-19 11l-319 690q-5 12 0 20t17 8h93q13 0 26 -8t18 -20l171 -368q5 -11 13 -11t13 11l171 368q5 12 18 20t26 8h93q13 0 18 -8t0 -20z" />
    <glyph glyph-name="W" unicode="W" horiz-adv-x="991" 
d="M970 702l-252 -691q-5 -12 -18 -12t-18 11l-173 388q-5 12 -13 12t-13 -12l-174 -385q-6 -11 -18.5 -11t-17.5 12l-249 688q-5 12 1 20.5t19 8.5h87q13 0 25 -8.5t16 -20.5l123 -343q4 -12 11 -12t12 11l159 361q5 11 18.5 11t18.5 -11l159 -362q5 -11 12 -11t11 12
l126 344q4 12 16 20.5t25 8.5h87q13 0 19 -8.5t1 -20.5z" />
    <glyph glyph-name="X" unicode="X" horiz-adv-x="754" 
d="M278 387l-239 318q-8 10 -4.5 18t16.5 8h112q13 0 26.5 -7t21.5 -18l154 -213q8 -11 18 -11t18 11l154 213q8 11 22 18t27 7h111q13 0 16.5 -8t-4.5 -18l-238 -318q-8 -11 -8 -25t8 -24l233 -311q8 -11 4.5 -19t-16.5 -8h-112q-13 0 -27 7t-22 18l-148 205q-8 11 -18 11
t-18 -11l-148 -205q-8 -11 -21.5 -18t-26.5 -7h-112q-13 0 -16.5 8t4.5 19l233 311q8 10 8 24t-8 25z" />
    <glyph glyph-name="Y" unicode="Y" horiz-adv-x="709" 
d="M688 705q-11 -18 -23 -37.5t-26 -41.5q-18 -29 -36.5 -59t-37.5 -61q-20 -31 -38.5 -61.5t-36.5 -59.5q-14 -22 -26.5 -42t-23.5 -39q-7 -11 -11 -28t-4 -30v-215q0 -13 -9 -22t-22 -9h-79q-13 0 -21.5 9t-8.5 22v215q0 13 -4.5 30t-11.5 28q-29 51 -59.5 100.5
t-62.5 99.5q-33 51 -64 100.5t-60 100.5q-7 11 -2.5 18.5t17.5 7.5h102q13 0 26.5 -7.5t19.5 -18.5l38 -64t39 -65q19 -33 38 -65l38 -64q6 -11 15.5 -11t16.5 11q7 12 14.5 24t15.5 25l48 81q12 20 23.5 40t23.5 40q8 12 15 24l14 24q6 11 19.5 18.5t26.5 7.5h102
q13 0 17 -7.5t-2 -18.5z" />
    <glyph glyph-name="Z" unicode="Z" horiz-adv-x="702" 
d="M297 130h333q13 0 22 -9t9 -22v-68q0 -13 -9 -22t-22 -9h-590q-13 0 -17 13t4 24l385 540q8 11 4 18t-17 7h-317q-12 0 -21 9t-9 22v67q0 13 9 22t21 9h573q13 0 17 -13t-4 -24l-384 -539q-7 -11 -3 -18t16 -7z" />
    <glyph glyph-name="A" unicode="A" horiz-adv-x="774" 
d="M20 27l347 693q6 12 20 12t20 -12l347 -693q6 -11 1.5 -19t-17.5 -8h-91q-13 0 -26 8t-18 20l-30 60q-6 11 -18.5 19t-25.5 8h-284q-13 0 -26 -8t-18 -20l-29 -59q-6 -12 -18.5 -20t-25.5 -8h-91q-13 0 -17.5 8t0.5 19zM313 237h148q13 0 17.5 8.5t-0.5 19.5l-78 165
q-5 12 -13 12t-13 -12l-79 -165q-5 -12 0 -20t18 -8z" />
    <glyph glyph-name="D" unicode="D" horiz-adv-x="786" 
d="M110 0q-13 0 -21.5 9t-8.5 22v670q0 13 8.5 22t21.5 9h258q157 0 258 -92q54 -50 81 -118q28 -73 28 -156q0 -44 -7 -82.5t-21 -73.5q-26 -69 -81 -119q-51 -46 -115 -68q-66 -23 -143 -23h-258zM250 124h119q38 0 79 9q39 9 72 36q32 25 54 73q21 46 21 123
q0 76 -21 124q-22 48 -54 73q-33 26 -73 35q-41 9 -78 9h-119q-13 0 -21.5 -9t-8.5 -22v-420q0 -13 8.5 -22t21.5 -9z" />
    <glyph glyph-name="period" unicode="." horiz-adv-x="192" 
d="M172 66q0 -31 -21.5 -52.5t-52.5 -21.5q-30 0 -51.5 21.5t-21.5 52.5q0 30 21.5 51.5t51.5 21.5q31 0 52.5 -21.5t21.5 -51.5z" />
    <glyph glyph-name="comma" unicode="," horiz-adv-x="210" 
d="M176 17q-2 -16 -8 -30t-14 -28q-16 -28 -42 -49q-8 -6 -16 -10.5t-17 -9.5q-12 -5 -20 -5.5t-16 11.5q-5 8 -1.5 15.5t17.5 17.5q6 5 18.5 17t16.5 22t-2.5 17t-17.5 11q-14 6 -24 16q-22 19 -24 50q-3 30 19 53q21 22 51 24q27 1 48 -15q23 -18 30 -46q6 -31 2 -61z" />
    <glyph glyph-name="question" unicode="?" horiz-adv-x="578" 
d="M513 614q15 -35 15 -73q0 -49 -15 -83q-16 -36 -36 -58q-22 -23 -47 -39q-13 -8 -24.5 -15t-22.5 -13q-9 -5 -16.5 -9t-14.5 -8q-15 -9 -21 -18q-18 -24 -21 -48q-2 -5 -2 -9.5t-1 -9.5q0 -8 -8.5 -13.5t-21.5 -5.5h-79q-13 0 -22 9t-8 22q1 11 3 22t4 24q5 23 15.5 45.5
t27.5 45.5q11 14 22 26t25 20t26.5 15.5t26.5 14.5q9 5 17 9.5t15 9.5q7 4 12 8t10 9q9 9 12 21q2 5 3 12.5t1 15.5q0 6 -3 18t-15 24q-13 12 -34 20q-24 8 -62 8q-33 0 -57 -9q-26 -11 -41 -25q-18 -18 -26 -34q-6 -9 -9 -18q-4 -8 -14 -11t-23 2l-74 24q-12 4 -18 14
t-1 21q2 6 5 12l7 14q14 31 47 67q31 32 81 58q49 25 123 25q41 0 72 -7q16 -4 30 -8t26 -9q24 -11 42 -24q8 -7 15.5 -13t13.5 -13q25 -27 40 -63zM279 0h-79q-13 0 -21.5 9t-8.5 22v87q0 13 8.5 22t21.5 9h79q13 0 22 -9t9 -22v-87q0 -13 -9 -22t-22 -9z" />
    <glyph glyph-name="exclam" unicode="!" horiz-adv-x="293" 
d="M165 213h-39q-13 0 -22 9t-10 22l-22 456q-1 13 7.5 22t21.5 9h89q13 0 21.5 -9t7.5 -22l-22 -456q-1 -13 -10.5 -22t-21.5 -9zM185 0h-79q-13 0 -22 9t-9 22v87q0 13 9 22t22 9h79q12 0 21 -9t9 -22v-87q0 -13 -9 -22t-21 -9z" />
    <glyph glyph-name="parenleft" unicode="(" horiz-adv-x="395" 
d="M215 552q-30 -84 -30 -186t30 -186t90 -147q11 -12 26 -24q4 -3 7 -6t7 -6q6 -5 5 -15t-9 -21l-42 -56q-8 -11 -19.5 -13.5t-19.5 3.5q-5 5 -10 8.5t-10 8.5q-10 8 -19 16.5t-17 18.5q-79 83 -119 186q-40 102 -40 233q0 132 40 234q20 52 50 97.5t69 87.5q16 19 36 36
l10 8l10 8q8 6 19.5 3.5t19.5 -12.5l42 -56q8 -11 6 -23.5t-12 -20.5q-13 -11 -30 -29q-60 -63 -90 -147z" />
    <glyph glyph-name="parenright" unicode=")" horiz-adv-x="359" 
d="M34 728q-10 8 -12 20.5t6 23.5l42 56q8 10 19.5 12.5t19.5 -3.5l10 -8l10 -8q19 -17 36 -36q39 -42 69 -87.5t50 -97.5q40 -102 40 -234q0 -131 -40 -233q-40 -103 -119 -186q-8 -10 -17 -18.5t-19 -16.5q-5 -5 -10 -8.5t-10 -8.5q-8 -6 -19.5 -3.5t-19.5 13.5l-42 56
q-8 11 -9 21t5 15q4 3 7 6t7 6q15 12 26 24q60 63 90 147t30 186t-30 186t-90 147q-7 8 -14.5 15.5t-15.5 13.5z" />
    <glyph glyph-name="bracketleft" unicode="[" horiz-adv-x="390" 
d="M332 -158h-210q-13 0 -21.5 9t-8.5 22v994q0 13 8.5 22t21.5 9h210q13 0 22 -9t9 -22v-62q0 -13 -9 -22t-22 -9h-70q-13 0 -21.5 -9t-8.5 -22v-746q0 -13 8.5 -22t21.5 -9h70q13 0 22 -9t9 -22v-62q0 -13 -9 -22t-22 -9z" />
    <glyph glyph-name="bracketright" unicode="]" horiz-adv-x="340" 
d="M46 -158q-13 0 -22 9t-9 22v62q0 13 9 22t22 9h70q13 0 21.5 9t8.5 22v746q0 13 -8.5 22t-21.5 9h-70q-13 0 -22 9t-9 22v62q0 13 9 22t22 9h210q13 0 21.5 -9t8.5 -22v-994q0 -13 -8.5 -22t-21.5 -9h-210z" />
    <glyph glyph-name="plus" unicode="+" horiz-adv-x="567" 
d="M501 313h-123q-13 0 -21.5 -9t-8.5 -22v-125q0 -13 -9 -22t-22 -9h-68q-13 0 -21.5 9t-8.5 22v125q0 13 -9 22t-22 9h-123q-13 0 -21.5 9t-8.5 22v62q0 13 8.5 22t21.5 9h123q13 0 22 9t9 22v124q0 13 8.5 22t21.5 9h68q13 0 22 -9t9 -22v-124q0 -13 8.5 -22t21.5 -9h123
q13 0 22 -9t9 -22v-62q0 -13 -9 -22t-22 -9z" />
    <glyph glyph-name="hyphen" unicode="-" horiz-adv-x="409" 
d="M334 315h-265q-13 0 -22 9t-9 22v62q0 13 9 22t22 9h265q13 0 22 -9t9 -22v-62q0 -13 -9 -22t-22 -9z" />
    <glyph glyph-name="divide" unicode="&#xf7;" horiz-adv-x="612" 
d="M532 310h-453q-13 0 -21.5 9t-8.5 22v62q0 13 8.5 22t21.5 9h453q13 0 22 -9t9 -22v-62q0 -13 -9 -22t-22 -9zM376 604q0 -30 -21 -49q-21 -21 -49 -21q-29 0 -50 21q-20 19 -20 49t20 50q22 20 50 20q27 0 49 -20q21 -21 21 -50zM376 141q0 -30 -21 -49q-21 -21 -49 -21
q-29 0 -50 21q-20 19 -20 49t20 49q22 20 50 20q27 0 49 -20q21 -20 21 -49z" />
    <glyph glyph-name="equal" unicode="=" horiz-adv-x="562" 
d="M475 423h-393q-13 0 -22 9t-9 22v62q0 13 9 22t22 9h393q13 0 22 -9t9 -22v-62q0 -13 -9 -22t-22 -9zM475 181h-393q-13 0 -22 9t-9 22v62q0 13 9 22t22 9h393q13 0 22 -9t9 -22v-62q0 -13 -9 -22t-22 -9z" />
    <glyph glyph-name="asterisk" unicode="*" horiz-adv-x="435" 
d="M199 448l-31 -43q-7 -11 -19.5 -13t-23.5 5l-28 19q-11 7 -13 19t6 22l36 45q8 10 5 20t-15 14l-55 19q-12 5 -18 16t-2 23l10 27q4 12 15 18t23 1l53 -19q12 -4 20.5 2t8.5 19v57q0 13 8.5 22t21.5 9h32q13 0 22 -9t9 -22v-57q0 -13 8 -19t20 -2l52 19q12 4 23 -1.5
t15 -17.5l10 -27q4 -12 -1.5 -23t-17.5 -16l-54 -19q-12 -4 -15 -14t5 -20l35 -45q8 -10 6 -21.5t-13 -19.5l-29 -19q-11 -7 -23 -5t-20 13l-31 43q-7 11 -17 11t-18 -11z" />
    <glyph glyph-name="copyright" unicode="&#xa9;" horiz-adv-x="826" 
d="M413 -12q-80 0 -147 29q-68 30 -119 81q-52 52 -81 119q-29 70 -29 147q0 76 29 146q30 69 81 120q26 26 55.5 45.5t63.5 34.5q69 30 147 30t146 -30q71 -31 120 -80q52 -52 80 -120q30 -69 30 -146q0 -78 -30 -147q-14 -35 -34 -64t-46 -55q-51 -51 -120 -81
q-34 -15 -70.5 -22t-75.5 -7zM413 645q-29 0 -56.5 -5.5t-53.5 -16.5q-53 -23 -89 -61q-39 -39 -61 -89t-22 -109q0 -60 22 -110q23 -53 61 -89q36 -38 89 -61q51 -22 110 -22t109 22q53 23 89 61q38 36 61 89q22 53 22 110q0 56 -22 109q-22 50 -61 89q-36 38 -89 61
q-53 22 -109 22zM503 280q-14 -15 -31 -24q-27 -15 -59 -15q-27 0 -49 9q-23 9 -39 27q-17 17 -26 39q-10 20 -10 48q0 26 10 47q8 21 26 40q17 17 39 26q11 5 23 7.5t26 2.5q33 0 61 -17q10 -5 17.5 -12t15.5 -15q5 -7 14 -9.5t17 0.5l35 14q8 3 10.5 10.5t-2.5 14.5
q-12 19 -27.5 34t-34.5 28q-48 30 -106 30q-21 0 -40.5 -4t-38.5 -12q-36 -17 -64 -43q-28 -28 -43 -64q-16 -35 -16 -78q0 -44 16 -79q15 -36 43 -64q14 -14 30 -24.5t34 -18.5q36 -16 79 -16q58 0 103 29q37 22 62 58q5 8 2.5 15t-10.5 10l-35 14q-18 6 -32 -8z" />
    <glyph glyph-name="at" unicode="@" horiz-adv-x="847" 
d="M806 405q0 -169 -79 -229q-24 -19 -55 -24q-31 -6 -63 3q-25 7 -40 19q-9 6 -17 14q-6 6 -16 5t-21 -8q-15 -11 -33 -18q-34 -14 -75 -14q-90 0 -141 56q-51 55 -51 152q0 45 14 84q16 39 40 65q26 27 61 42q34 15 78 15q34 0 55 -7q5 -2 10 -4.5t10 -4.5q8 -4 13.5 -4
t5.5 5t9 8t22 3h40q12 0 21 -9t9 -22v-218q0 -5 0.5 -10.5t0.5 -10.5q1 -5 2 -10.5t3 -10.5q4 -10 10 -17q6 -8 17 -11q35 -7 53 35q17 45 17 126q0 60 -18 107q-19 49 -53 76q-37 31 -89 47t-126 16q-73 0 -124 -25q-26 -13 -47 -29t-38 -36q-33 -39 -50 -90
q-17 -53 -17 -102q0 -24 2.5 -49t7.5 -51q10 -53 39 -96q28 -44 78 -72t130 -28q58 0 90 7q35 8 53 16q24 10 34 12.5t20 -5.5l36 -32q8 -7 10 -17t-20 -24q-19 -12 -50 -21q-28 -10 -72 -16q-41 -7 -101 -7q-83 0 -150 26q-34 13 -62 32t-51 44q-47 51 -70 120
q-25 69 -25 161q0 38 6.5 73.5t18.5 69.5q25 67 72 118q53 58 123 86q73 29 157 29q181 0 280 -84q106 -88 106 -256zM502 388q0 13 -3 30q-5 18 -13 30q-10 13 -28 22q-20 9 -50 9q-26 0 -44 -12q-17 -13 -26 -30q-10 -17 -13 -38q-4 -19 -4 -38q0 -33 8 -57q8 -21 21 -35
q15 -15 28 -19q17 -5 29 -5q17 0 35 5q19 5 30 16q13 10 22 30q8 19 8 45v47z" />
    <glyph glyph-name="ampersand" unicode="&#x26;" horiz-adv-x="685" 
d="M530 8l-51 52q-9 9 -22 10t-23 -7q-11 -8 -21 -15t-20 -13q-30 -17 -58 -28q-27 -11 -47 -14q-11 -2 -19.5 -3t-14.5 -2q-45 -2 -81 10q-37 11 -68 36t-50 58t-24 74q-8 61 16 105q24 46 69 83q9 8 28 22q4 2 7.5 5t7.5 5q6 5 6.5 13t-10.5 22t-18.5 30t-13.5 33
q-15 47 -8 94q4 40 26 76q21 34 56 57q36 24 77 31q22 4 42.5 2.5t41.5 -6.5q41 -11 74 -39q31 -27 50 -66q9 -19 13 -39t4 -40q-1 -41 -20 -81q-17 -33 -46 -56q-9 -8 -19 -15.5t-21 -15.5q-11 -7 -12.5 -18t7.5 -20l45 -47q9 -9 20.5 -8.5t18.5 11.5q24 34 36 57q3 5 5 9
t4 7q4 7 14.5 7.5t21.5 -4.5l66 -32q11 -6 16.5 -15.5t0.5 -17.5q-2 -5 -5 -9.5t-6 -10.5q-10 -19 -25.5 -42.5t-36.5 -53.5q-8 -11 -4.5 -21t12.5 -19l65 -70q8 -9 7.5 -21t-11.5 -20l-56 -43q-10 -8 -23.5 -7t-22.5 10zM220 289q-6 -4 -11.5 -8t-10.5 -9q-3 -2 -11 -10
q-6 -8 -12 -18q-7 -13 -10 -26q-3 -17 0 -36q3 -29 26 -48q25 -21 57 -22q22 -1 43 5t35 15q17 9 28 19q10 10 9 21t-10 20l-87 90q-9 9 -22.5 11.5t-23.5 -4.5zM252 510q7 -17 13 -27q7 -11 17.5 -14.5t18.5 1.5q4 2 6 4t6 4q8 5 14.5 11t12.5 11q31 33 31 75q0 25 -18 42
q-17 14 -42 16q-22 1 -44 -14q-22 -16 -25 -50q-3 -30 10 -59z" />
    <glyph glyph-name="slash" unicode="/" horiz-adv-x="542" 
d="M-11 -110l419 916q5 12 15.5 20t22.5 8h74q13 0 18 -8t0 -20l-419 -916q-5 -11 -15.5 -19.5t-23.5 -8.5h-73q-13 0 -18 8.5t0 19.5z" />
    <glyph glyph-name="section" unicode="&#xa7;" horiz-adv-x="530" 
d="M425 254q7 -5 12 -9q15 -15 23 -30q5 -8 8 -17l6 -18q2 -10 3.5 -18.5t1.5 -16.5q0 -40 -19 -72q-18 -29 -48 -49q-31 -20 -66 -29q-38 -9 -75 -9q-44 0 -78 10q-36 10 -67 24q-30 13 -51 27q-5 3 -7.5 5t-6.5 4q-6 5 -6.5 15.5t6.5 21.5l26 36q8 11 18.5 14.5t23.5 -5.5
q17 -12 37 -22q11 -5 22.5 -10t25.5 -9q25 -9 55 -9q15 0 31 4q17 3 31 10t25 18q10 12 10 25t-10 25q-10 9 -26 15q-8 3 -17 6t-20 5t-21.5 5t-21.5 6q-23 4 -57 12q-32 7 -67 26q-32 16 -57 46q-23 27 -23 75q0 27 12 50q12 21 27 36q16 15 31 22q1 1 3 2.5t2 4t-2.5 6
t-11.5 8.5q-24 14 -37 33q-24 31 -24 68q0 50 25 79q23 28 58 45q17 8 32.5 13t32.5 7t29 3t20 1q29 0 55 -4.5t52 -12.5q39 -12 77 -36q11 -7 13 -19t-6 -23l-26 -35q-15 -22 -40 -8q-13 7 -26.5 14.5t-25.5 12.5q-35 13 -75 13q-46 0 -63 -13q-19 -13 -19 -36
q0 -18 13 -28q13 -11 33 -19q19 -7 41 -12q11 -2 19 -4l16 -4q11 -2 25 -5.5t31 -8.5q32 -9 65 -26q30 -18 53 -47t23 -74q0 -42 -21 -70q-12 -17 -24 -23q-12 -7 -13 -12.5t5 -9.5zM168 331q11 -6 22 -11t25 -9q25 -8 51 -12q12 -2 21.5 -3t17.5 -1q14 0 27 4q14 5 25 13
q10 7 18 20q7 14 7 27q0 15 -15 32q-14 15 -38 28q-12 6 -25 11t-27 9q-8 2 -14.5 3t-13.5 2q-12 2 -21.5 2h-11.5h-6q-6 -1 -13 -2.5t-15 -4.5q-17 -6 -30 -19t-13 -39q0 -9 3 -21q5 -17 26 -29z" />
    <glyph glyph-name="cent" unicode="&#xa2;" horiz-adv-x="619" 
d="M384 196q19 6 35 17q15 10 28 24q3 4 6 7.5t6 6.5q5 6 16.5 7.5t22.5 -3.5l70 -28q11 -5 15 -16t-4 -22q-25 -37 -64 -65q-39 -30 -82 -44q-13 -4 -21.5 -15t-8.5 -24v-22q0 -13 -9 -22t-22 -9h-78q-13 0 -22 9t-9 22v24q0 13 -8.5 24t-20.5 16q-16 6 -31.5 13.5
t-29.5 17.5q-41 27 -71 65q-31 38 -47 86q-17 48 -17 99t17 99q16 46 47 86q29 37 71 66q27 17 61 30q12 5 20.5 16t8.5 24v29q0 13 9 22t22 9h78q13 0 22 -9t9 -22v-27q0 -13 8.5 -24t21.5 -15q45 -15 84 -45t66 -69q7 -11 3 -21.5t-15 -15.5l-70 -28q-11 -5 -23 -4t-17 8
l-12 15q-15 16 -30 26q-17 11 -37 18q-18 7 -45 7q-34 0 -64 -12q-31 -14 -53 -36q-11 -11 -19.5 -25t-15.5 -30q-13 -30 -13 -72q0 -41 13 -71q7 -16 15.5 -30t19.5 -25q22 -22 53 -36q29 -13 64 -13q29 0 47 7z" />
    <glyph glyph-name="braceleft" unicode="{" horiz-adv-x="412" 
d="M305 -17q21 -11 40 -15q8 -2 24 -4q10 -2 17 -11.5t7 -22.5v-72q0 -13 -10 -21.5t-23 -7.5q-24 1 -59 12q-33 10 -69 30q-37 20 -66 55q-23 28 -35 59q-5 16 -9.5 31.5t-6.5 31.5q-5 32 -6 61v50v60q1 12 -0.5 22.5t-3.5 18.5q-5 17 -17 27q-8 5 -19 9q-9 3 -15 13t-6 23
v76q0 13 6 23t14 13q9 2 18 10q14 12 18 31q5 20 5 43v53v50q2 30 6 61q2 16 6.5 32t9.5 32q11 29 35 58q31 37 67 56q39 20 71 29q17 5 31.5 7.5t26.5 3.5t21.5 -5.5t9.5 -19.5v-76q0 -13 -7 -22.5t-17 -10.5q-7 -1 -13 -2t-11 -2q-19 -4 -40 -15q-19 -10 -37 -29
q-11 -12 -15 -31q-2 -10 -4 -19.5t-4 -19.5q-1 -11 -1.5 -21t-0.5 -20v-33q1 -8 1 -20v-27q1 -15 -0.5 -30.5t-3.5 -31.5q-5 -34 -15 -62q-7 -15 -13 -24q-7 -9 -8 -20.5t6 -21.5q10 -15 14 -27q11 -27 14 -53q4 -27 3 -55q0 -14 0.5 -28t1.5 -28v-33q0 -10 0.5 -20t1.5 -20
q2 -11 4 -20.5t4 -19.5q4 -19 15 -31q15 -18 37 -29z" />
    <glyph glyph-name="braceright" unicode="}" horiz-adv-x="412" 
d="M105 -17q22 11 37 29q11 12 15 31q2 10 4 19.5t4 20.5q1 10 1.5 20t0.5 20v33q1 14 1.5 28t0.5 28q-1 28 3 55q3 26 14 53q4 12 14 27q7 10 6 21.5t-8 20.5q-6 9 -13 24q-10 28 -15 62q-2 16 -3.5 31.5t-0.5 30.5v27t1 20v33q0 10 -0.5 20t-1.5 21q-2 10 -4 19.5t-4 19.5
q-4 19 -15 31q-18 19 -37 29q-21 11 -40 15q-5 1 -11 2t-13 2q-10 1 -17 10.5t-7 22.5v76q0 13 9.5 19.5t21.5 5.5t26.5 -3.5t31.5 -7.5q32 -9 71 -29q36 -19 67 -56q24 -29 35 -58q5 -16 9.5 -32t6.5 -32q4 -31 6 -61v-50v-53q0 -23 5 -43q4 -19 18 -31q9 -8 18 -10
q8 -3 14 -13t6 -23v-76q0 -13 -6 -23t-15 -13q-11 -4 -19 -9q-12 -10 -17 -27q-2 -8 -3.5 -18.5t-0.5 -22.5v-60v-50q-1 -29 -6 -61q-2 -16 -6.5 -31.5t-9.5 -31.5q-12 -31 -35 -59q-29 -35 -66 -55q-36 -20 -69 -30q-35 -11 -59 -12q-13 -1 -23 7.5t-10 21.5v72
q0 13 7 22.5t17 11.5q16 2 24 4q19 4 40 15z" />
    <glyph glyph-name="Euro" unicode="&#x20ac;" horiz-adv-x="686" 
d="M653 123q-2 -3 -7.5 -11t-12.5 -16.5l-14 -17t-12 -13.5q-11 -11 -23 -20.5t-26 -17.5q-30 -19 -66 -29q-38 -12 -83 -12q-48 0 -98 14q-49 13 -91 45q-44 31 -74 79q-12 20 -21.5 41.5t-16.5 47.5q-4 13 -12 21.5t-21 8.5h-24q-13 0 -21.5 9t-8.5 22v39q0 13 8.5 22
t21.5 9h20q13 0 17 5t4 11q0 3 0.5 8t0.5 8q0 19 -25 19h-17q-13 0 -21.5 9t-8.5 22v39q0 13 8.5 22t21.5 9h34q13 0 21.5 8.5t13.5 20.5q11 32 27 60t37 52q21 26 46.5 46t54.5 34q57 27 124 27q64 0 109 -22q48 -23 78 -49q15 -14 26.5 -26.5t19.5 -23.5q7 -10 5.5 -21
t-12.5 -17l-72 -40q-11 -6 -22 -5t-16 8t-11 14.5t-14 15.5q-14 14 -38 27q-24 12 -53 12q-51 0 -90 -33q-29 -26 -48 -60q-6 -11 -1 -19.5t18 -8.5h141q13 0 22 -9t9 -22v-39q0 -13 -9 -22t-22 -9h-175q-13 0 -17.5 -5.5t-4.5 -14.5v-12q0 -8 3.5 -13.5t16.5 -5.5h177
q13 0 22 -9t9 -22v-39q0 -13 -9 -22t-22 -9h-154q-13 0 -19.5 -7t-2.5 -18q3 -6 5.5 -12t6.5 -11q12 -23 32 -42t47 -29q28 -11 65 -11q35 0 61 14q24 14 40 31q4 5 7.5 10.5t8.5 11.5q6 10 17.5 13.5t23.5 -1.5l72 -32q11 -5 15 -17t-1 -20z" />
    <glyph glyph-name="dollar" unicode="$" horiz-adv-x="680" 
d="M289 824h79q13 0 22 -9t9 -22v-18q0 -13 8.5 -23t19.5 -13q8 -2 14.5 -3t13.5 -3q13 -4 25.5 -9t24.5 -10q13 -5 35.5 -17t39.5 -26q10 -8 12.5 -19.5t-5.5 -22.5l-42 -60q-8 -11 -20.5 -13t-23.5 5q-39 25 -74 38q-47 19 -102 19q-9 0 -19 -1t-22 -3q-23 -5 -44 -15
q-10 -5 -18.5 -11t-15.5 -14q-13 -16 -13 -38t16 -37q14 -14 41 -25q12 -5 26 -9t29 -8t29.5 -7t28.5 -7q11 -2 23 -5t26 -5t29 -5.5t30 -8.5q30 -9 61 -24q30 -15 53 -38q25 -25 38 -58q15 -35 15 -84q0 -52 -18 -92q-8 -20 -20.5 -37t-27.5 -31q-31 -28 -76 -43
q-15 -6 -32 -10t-35 -7q-12 -2 -21 -11.5t-9 -22.5v-19q0 -13 -9 -22t-22 -9h-79q-12 0 -21 9t-9 22v27q0 13 -9 23.5t-21 14.5q-16 3 -31 9q-26 9 -53 23q-13 7 -25 14t-24 15q-6 4 -12.5 7.5t-12.5 8.5q-11 7 -13.5 19t5.5 23l42 62q7 11 19 13t23 -5q45 -28 88 -48
q57 -28 123 -28q33 0 60 9q24 7 44 22q18 14 27 31q9 16 9 34q0 21 -14 38q-13 14 -36 25q-11 5 -24 9t-29 8q-15 4 -30.5 7t-32.5 6q-11 2 -24 4.5t-27 5.5q-30 4 -60 15q-32 9 -61 25q-30 15 -54 39q-24 22 -39 56q-14 33 -14 76q0 51 17 90q18 37 47 62q27 25 66 40
q11 5 22.5 8t23.5 6t21 13.5t9 23.5v20q0 13 9 22t21 9z" />
    <glyph glyph-name="numbersign" unicode="#" horiz-adv-x="856" 
d="M662 183h-74q-13 0 -25 -8.5t-17 -19.5l-49 -126q-5 -12 -17 -20.5t-25 -8.5h-77q-13 0 -18.5 8.5t-0.5 20.5l49 126q5 11 -0.5 19.5t-18.5 8.5h-68q-13 0 -25 -8.5t-17 -20.5l-49 -125q-5 -12 -16.5 -20.5t-24.5 -8.5h-77q-13 0 -19 8.5t-1 20.5l49 125q5 12 -0.5 20.5
t-18.5 8.5h-71q-13 0 -19 8.5t-1 20.5l28 71q5 12 17 20.5t25 8.5h72q13 0 25 8.5t17 20.5l22 57q5 12 -0.5 20.5t-18.5 8.5h-71q-13 0 -19 8.5t-1 20.5l28 71q5 12 17 20.5t25 8.5h71q13 0 24.5 8.5t16.5 20.5l47 120q5 11 17 19.5t25 8.5h77q13 0 18.5 -8.5t0.5 -19.5
l-47 -120q-5 -12 1 -20.5t19 -8.5h67q13 0 25 8.5t17 20.5l47 120q5 11 17 19.5t25 8.5h77q13 0 18.5 -8.5t0.5 -19.5l-47 -120q-5 -12 0.5 -20.5t18.5 -8.5h75q13 0 18.5 -8.5t0.5 -20.5l-28 -71q-5 -12 -16.5 -20.5t-24.5 -8.5h-75q-13 0 -25 -8.5t-17 -20.5l-22 -57
q-5 -12 0.5 -20.5t18.5 -8.5h74q13 0 18.5 -8.5t0.5 -20.5l-28 -71q-5 -12 -16.5 -20.5t-24.5 -8.5zM484 427h-67q-13 0 -25 -8.5t-17 -20.5l-22 -57q-5 -12 0.5 -20.5t18.5 -8.5h67q13 0 25 8.5t17 20.5l22 57q5 12 -0.5 20.5t-18.5 8.5z" />
    <glyph glyph-name="one" unicode="1" horiz-adv-x="444" 
d="M365 702v-671q0 -13 -9 -22t-22 -9h-78q-13 0 -22 9t-9 22v430q0 13 -6.5 16t-15.5 -6l-63 -60q-9 -8 -22 -8t-21 9l-54 58q-9 9 -8.5 22t9.5 21l210 199q9 9 24.5 15t28.5 6h27q13 0 22 -9t9 -22z" />
    <glyph glyph-name="two" unicode="2" horiz-adv-x="642" 
d="M579 93v-62q0 -13 -9 -22t-22 -9h-445q-13 0 -21.5 9t-8.5 22v78q0 13 6.5 27.5t16.5 22.5q6 5 13 11t15 13q17 14 34 28.5t36 29.5q18 16 36.5 31.5t37.5 31.5q18 15 34.5 28.5t30.5 25.5q17 14 29.5 25.5t22.5 22.5t17.5 21t12.5 20q5 9 8 18.5t4 17.5q3 16 3 34
q0 15 -2.5 27t-7.5 23q-10 19 -27 31q-18 13 -37 17q-23 5 -40 5q-35 0 -57 -16t-36 -38q-8 -11 -11.5 -19.5t-8.5 -17.5q-4 -8 -14 -14.5t-29 -1.5l-71 18q-12 4 -18.5 14.5t-1.5 22.5q4 8 7.5 16.5t8.5 17.5q19 36 50 67q30 32 76 53q44 22 105 22q64 0 113 -20
q46 -20 79 -53q33 -34 47 -73q15 -41 15 -82t-11 -77t-31 -66q-10 -16 -22.5 -31t-26.5 -29t-30 -29t-34 -29q-8 -5 -15.5 -12t-17.5 -15q-9 -8 -19 -16.5t-21 -16.5l-22 -18l-22 -18q-5 -5 -8.5 -7.5t-8.5 -6.5q-9 -8 -6 -14.5t15 -6.5h258q13 0 22 -9t9 -22z" />
    <glyph glyph-name="three" unicode="3" horiz-adv-x="600" 
d="M452 360q5 -3 10 -5.5t10 -5.5q22 -13 39 -31q18 -21 28 -49q11 -28 11 -71v-11t-1 -13q-2 -16 -6 -32q-2 -8 -5.5 -17t-7.5 -18l-10 -18t-13 -18q-20 -25 -47 -42q-29 -18 -55 -26q-27 -10 -57 -13q-14 -2 -27 -3t-26 -1q-65 0 -109 22q-45 21 -74 53q-15 16 -26.5 33
t-20.5 34q-4 8 -7.5 16t-6.5 16q-5 12 1 23t19 15l75 21q12 4 22 -1t13 -16q3 -9 6 -17.5t10 -19.5q12 -21 35 -38q25 -17 63 -17q58 0 87 26q28 27 28 63q0 37 -12 60q-12 25 -35 36q-23 13 -57 18q-11 2 -23 2.5t-26 1.5q-13 2 -22 11t-9 22v46q0 13 9 22.5t22 10.5
t24.5 1.5t22.5 2.5q32 3 58 14q22 10 36 32q12 21 12 57q0 37 -28 62q-29 26 -87 26q-38 0 -63 -17q-23 -17 -35 -38q-11 -17 -15 -31t-14 -20t-22 -2l-75 22q-13 3 -19 14t-1 23q3 8 6.5 16t7.5 16q9 17 20.5 34t26.5 33q14 16 32.5 29t41.5 24q45 21 109 21q72 0 119 -19
q48 -19 79 -50q31 -33 44 -68q13 -36 13 -75q0 -42 -10 -68q-5 -14 -12.5 -25.5t-15.5 -21.5q-19 -21 -39 -32l-10 -6t-10 -5q-19 -10 -1 -18z" />
    <glyph glyph-name="four" unicode="4" horiz-adv-x="672" 
d="M633 255v-62q0 -13 -8.5 -22t-21.5 -9h-28q-13 0 -22 -9t-9 -22v-100q0 -13 -8.5 -22t-21.5 -9h-79q-13 0 -22 9t-9 22v100q0 13 -8.5 22t-21.5 9h-290q-13 0 -22 9t-9 22v58q0 13 6 29t14 25l345 405q8 10 23 16.5t28 6.5h45q13 0 21.5 -9t8.5 -22v-385q0 -13 9 -22
t22 -9h28q13 0 21.5 -9t8.5 -22zM385 473l-133 -163q-8 -10 -5 -17t16 -7h111q13 0 21.5 9t8.5 22v149q0 13 -5.5 15t-13.5 -8z" />
    <glyph glyph-name="five" unicode="5" horiz-adv-x="616" 
d="M498 422q67 -67 67 -189q0 -54 -21 -100q-19 -46 -60 -82q-38 -32 -84 -48q-49 -17 -101 -17q-51 0 -92 11q-40 10 -71 28q-30 16 -55 39q-6 5 -12 10.5t-11 10.5q-9 9 -10.5 22.5t6.5 24.5l36 50q8 11 19 11.5t20 -8.5q8 -8 15 -14t15 -11q27 -19 60 -32q33 -14 80 -16
q23 0 46 9q22 7 40 24q18 15 29 38q11 24 11 50q0 63 -31 103q-32 40 -83 41q-16 1 -29.5 -0.5t-25.5 -3.5q-22 -4 -42 -14q-10 -5 -17.5 -10.5t-14.5 -10.5l-6 -6t-6 -5q-5 -5 -16 -3.5t-22 7.5l-52 28q-11 6 -17 19t-4 25l55 300q3 13 13.5 21.5t23.5 8.5h337q13 0 22 -9
t9 -22v-62q0 -13 -9 -22t-22 -9h-224q-13 0 -23.5 -8.5t-12.5 -21.5l-15 -95q-2 -12 3 -16t16 2q7 3 13 6t14 5q29 8 53 8q119 0 186 -67z" />
    <glyph glyph-name="six" unicode="6" horiz-adv-x="649" 
d="M446 483q46 -18 79 -52q33 -35 51 -82q17 -47 19 -106q0 -35 -6 -63q-6 -26 -15 -50q-10 -22 -22 -38q-13 -18 -24 -29q-26 -26 -53 -40q-30 -16 -57 -23q-30 -10 -54 -11q-26 -3 -45 -3q-47 0 -86 13q-40 12 -74 35q-34 22 -58 54q-25 30 -37 69q-20 64 -17 121t30 120
q9 20 34 58q24 39 57 87q16 23 33 47.5t35 50.5q13 18 25 34.5t24 32.5q8 11 22 18t27 7h111q13 0 17 -7t-4 -18q-6 -8 -12 -16.5t-13 -16.5q-11 -16 -23 -32t-23 -32q-11 -17 -23 -33t-23 -32q-7 -9 -13 -18t-12 -17q-8 -11 -10.5 -17t1.5 -4q2 1 5 1.5t5 2.5q5 2 11.5 2.5
t13.5 1.5q57 3 104 -15zM323 110q26 0 53 11q24 11 43 28q18 17 29 41q10 23 10 52q0 28 -10 51t-29 42q-21 19 -43 29q-24 10 -53 10t-52 -10q-24 -10 -43 -29q-17 -17 -28 -42t-11 -51q0 -27 11 -52q11 -26 28 -41q17 -18 43 -28q25 -11 52 -11z" />
    <glyph glyph-name="seven" unicode="7" horiz-adv-x="601" 
d="M566 702v-76q0 -13 -4.5 -30t-10.5 -28l-304 -541q-6 -11 -19.5 -19t-26.5 -8h-98q-13 0 -17.5 8t1.5 19l320 555q6 11 1.5 19t-17.5 8h-317q-13 0 -22 9t-9 22v62q0 13 9 22t22 9h461q13 0 22 -9t9 -22z" />
    <glyph glyph-name="eight" unicode="8" horiz-adv-x="621" 
d="M477 378q5 -2 11 -5t11 -7q11 -8 21.5 -18t18.5 -21q16 -23 27 -51q11 -30 11 -58q0 -60 -21 -103q-20 -42 -58 -72q-19 -14 -40 -25t-46 -18q-51 -14 -105 -14t-104 14q-47 13 -86 43q-36 28 -57 72q-21 43 -21 103q0 32 11 58q11 30 28 51q8 11 18.5 20.5t21.5 17.5
q5 4 10.5 7.5t10.5 5.5q21 10 7 19q-4 2 -8 5t-8 7q-18 15 -31 35q-16 20 -23 44q-9 24 -9 49q0 46 19 83q17 36 51 65q32 26 76 43q45 15 94 15q50 0 94 -15q46 -17 77 -43q33 -29 52 -65q19 -40 19 -83q0 -24 -8 -50q-7 -24 -20 -45q-7 -10 -14.5 -18.5t-15.5 -15.5
q-5 -4 -9 -7t-9 -6q-17 -8 4 -17zM307 110q14 0 26 1.5t24 3.5q22 4 41 17q17 11 28 33t11 53q0 23 -11 45q-5 10 -12 18.5t-16 15.5q-9 8 -19 13.5t-22 9.5q-22 7 -50 7t-49 -7q-23 -8 -41 -21q-18 -15 -28 -35q-10 -19 -10 -46q0 -33 10 -53t28 -33q19 -13 41 -17
q25 -5 49 -5zM207 523q0 -24 8 -39q8 -16 22 -27q15 -12 32 -16q18 -6 39 -6q42 0 71 22q30 22 30 66q0 26 -8 45q-10 19 -22 29q-16 13 -32 17q-20 5 -39 5t-39 -5q-19 -6 -32 -18q-14 -10 -22 -29q-8 -16 -8 -44z" />
    <glyph glyph-name="nine" unicode="9" horiz-adv-x="657" 
d="M208 253q-47 20 -80 56q-34 38 -52 83q-18 46 -18 98q0 34 6 63q3 14 7 26.5t9 23.5q11 24 22 39q13 18 23 28q24 24 54 40q28 15 57 24q14 4 27.5 6.5t26.5 4.5q13 1 24 1.5t20 0.5q45 0 86 -12q21 -7 39.5 -15.5t35.5 -19.5q35 -24 58 -54q23 -31 36 -70
q11 -32 15 -61.5t2 -58.5q-3 -58 -30 -121q-8 -18 -33 -58q-12 -20 -26 -41.5t-31 -44.5q-17 -24 -34 -48.5t-35 -49.5q-13 -18 -25 -35t-23 -33q-8 -11 -22 -18t-27 -7h-112q-13 0 -16.5 7t4.5 18q6 8 12 16.5t12 17.5q22 30 46 64q12 16 23.5 32t22.5 32q7 9 13.5 18
t12.5 17q7 11 9.5 17t-0.5 4q-6 -2 -10 -3q-5 -2 -11.5 -3t-14.5 -2q-57 -3 -103 18zM330 623q-26 0 -52 -8t-43 -24q-17 -14 -28 -41t-11 -59q0 -26 11 -51t28 -42q9 -9 20 -16t23 -12q25 -11 52 -11q28 0 53 11q12 5 23 12t20 16q19 19 29 42t10 51q0 36 -10 59
q-10 25 -29 42q-17 16 -43 24q-22 7 -53 7z" />
    <glyph glyph-name="zero" unicode="0" horiz-adv-x="747" 
d="M372 -15q-73 0 -135 30t-107 86q-42 52 -63.5 119.5t-21.5 144.5q0 84 24 153.5t67 119.5t103.5 78t132.5 28q71 0 131 -28.5t103.5 -79t68 -120t24.5 -151.5q0 -76 -22.5 -144t-64.5 -120q-45 -57 -107 -86.5t-133 -29.5zM372 613q-32 0 -65 -14.5t-59.5 -44.5
t-43.5 -77t-17 -112q0 -44 11 -88.5t33.5 -80t57.5 -58t83 -22.5q33 0 66 16t59.5 47.5t42.5 78t16 107.5q0 50 -13.5 101t-38.5 83q-50 64 -132 64z" />
    <glyph glyph-name="sterling" unicode="&#xa3;" horiz-adv-x="615" 
d="M256 183q-8 -24 -18 -39q-2 -4 -2.5 -13t12.5 -9h292q13 0 22 -9t9 -22v-60q0 -13 -9 -22t-22 -9h-456q-13 0 -22 9t-9 22v58q0 13 4.5 23.5t15.5 18.5q12 6 23 17q6 5 11.5 12.5t10.5 15.5t9 18.5t7 22.5q6 23 3 47q-1 6 -1.5 12t-1.5 11q-2 10 -12 16.5t-23 6.5h-13
q-13 0 -22 9t-9 22v48q0 13 8.5 22t21.5 9q12 0 20 9t6 22l-5 42q-6 57 12 103q16 45 50 79q35 34 81 51q46 18 103 18t102 -20q43 -20 72 -49q31 -31 47 -63q8 -15 15 -32q5 -12 -0.5 -23t-17.5 -15l-72 -23q-12 -4 -22 0t-14 13q-4 10 -10 20q-5 10 -12 18.5t-15 16.5
q-16 14 -35 24q-20 9 -38 9q-38 0 -63 -12q-11 -5 -23 -18.5t-17 -25.5q-10 -28 -7 -60q1 -9 1.5 -19.5t2.5 -21.5q0 -6 0.5 -11.5t1.5 -10.5q1 -8 11 -14.5t23 -6.5h150q13 0 22 -9t9 -22v-48q0 -13 -9 -22t-22 -9h-134q-13 0 -21.5 -9t-7.5 -22v-21t-2 -20q-3 -31 -11 -55
z" />
    <glyph glyph-name="quotesingle" unicode="'" horiz-adv-x="230" 
d="M164 524h-101l-17 218h134z" />
    <glyph glyph-name="less" unicode="&#x3c;" horiz-adv-x="553" 
d="M498 605v-80q0 -13 -8.5 -25.5t-20.5 -17.5l-245 -107q-12 -5 -12 -12t12 -12l245 -106q12 -5 20.5 -17.5t8.5 -25.5v-81q0 -13 -8.5 -18t-19.5 0l-390 183q-11 5 -19 18t-8 26v66q0 13 8 26t19 18l390 183q11 5 19.5 0t8.5 -18z" />
    <glyph glyph-name="greater" unicode="&#x3e;" horiz-adv-x="553" 
d="M498 396v-66q0 -13 -8 -26t-20 -18l-389 -183q-12 -5 -20 0t-8 18v81q0 13 8.5 25.5t19.5 17.5l246 106q11 5 11 12t-11 12l-246 107q-11 5 -19.5 17.5t-8.5 25.5v80q0 13 8 18t20 0l389 -183q12 -5 20 -18t8 -26z" />
    <glyph glyph-name="colon" unicode=":" horiz-adv-x="192" 
d="M172 66q0 -31 -21.5 -52.5t-52.5 -21.5t-52 21.5t-21 52.5q0 30 21 51.5t52 21.5t52.5 -21.5t21.5 -51.5zM172 348q0 -30 -21.5 -51.5t-52.5 -21.5t-52 21.5t-21 51.5q0 31 21 52.5t52 21.5t52.5 -21.5t21.5 -52.5z" />
    <glyph glyph-name="semicolon" unicode=";" horiz-adv-x="197" 
d="M173 348q0 -30 -21.5 -51.5t-52.5 -21.5t-52 21.5t-21 51.5q0 31 21 52.5t52 21.5t52.5 -21.5t21.5 -52.5zM176 17q-2 -16 -8 -30t-14 -28q-16 -28 -42 -49q-8 -6 -16 -10.5t-17 -9.5q-12 -5 -20 -5.5t-16 11.5q-5 8 -1.5 15.5t17.5 17.5q6 5 18.5 17t16.5 22t-2.5 17
t-17.5 11q-14 6 -24 16q-22 19 -24 50q-3 30 19 53q21 22 51 24q27 1 48 -15q23 -18 30 -46q6 -31 2 -61z" />
    <glyph glyph-name="quotedblright" unicode="&#x201d;" horiz-adv-x="392" 
d="M170 623q-2 -16 -8 -30t-14 -28q-16 -28 -42 -49q-8 -6 -16 -10.5t-17 -9.5q-12 -5 -20 -5.5t-16 11.5q-5 8 -1.5 15.5t17.5 17.5q6 5 18.5 17t16.5 22t-2.5 17t-17.5 11q-14 6 -24 16q-22 19 -24 50q-3 30 19 53q21 22 51 24q27 1 48 -15q23 -18 30 -46q6 -31 2 -61z
M369 623q-2 -16 -8 -30t-14 -28q-16 -28 -42 -49q-8 -6 -16 -10.5t-17 -9.5q-12 -5 -20 -5.5t-16 11.5q-5 8 -1.5 15.5t17.5 17.5q6 5 18.5 17t16.5 22t-2.5 17t-17.5 11q-14 6 -24 16q-22 19 -24 50q-3 30 19 53q21 22 51 24q27 1 48 -15q23 -18 30 -46q6 -31 2 -61z" />
    <glyph glyph-name="quotedblleft" unicode="&#x201c;" horiz-adv-x="449" 
d="M244 609q2 16 8 30t14 28q16 28 42 49q8 6 16 10.5t17 9.5q12 5 20 5.5t16 -11.5q5 -8 1.5 -15.5t-17.5 -17.5q-6 -5 -18.5 -17t-16.5 -22t2.5 -17t17.5 -11q14 -6 24 -16q22 -19 24 -50q3 -30 -19 -53q-21 -23 -51 -24q-27 -2 -48 15q-23 18 -30 46q-6 31 -2 61zM45 609
q2 16 8 30t14 28q16 28 42 49q8 6 16 10.5t17 9.5q12 5 20 5.5t16 -11.5q5 -8 1.5 -15.5t-17.5 -17.5q-6 -5 -18.5 -17t-16.5 -22t2.5 -17t17.5 -11q14 -6 24 -16q22 -19 24 -50q3 -30 -19 -53q-21 -23 -51 -24q-27 -2 -48 15q-23 18 -30 46q-6 31 -2 61z" />
    <glyph glyph-name="quoteleft" unicode="&#x2018;" horiz-adv-x="246" 
d="M45 609q2 16 8 30t14 28q16 28 42 49q8 6 16 10.5t17 9.5q12 5 20 5.5t16 -11.5q5 -8 1.5 -15.5t-17.5 -17.5q-6 -5 -18.5 -17t-16.5 -22t2.5 -17t17.5 -11q14 -6 24 -16q22 -19 24 -50q3 -30 -19 -53q-21 -23 -51 -24q-27 -2 -48 15q-23 18 -30 46q-6 31 -2 61z" />
    <glyph glyph-name="quoteright" unicode="&#x2019;" horiz-adv-x="192" 
d="M170 623q-2 -16 -8 -30t-14 -28q-16 -28 -42 -49q-8 -6 -16 -10.5t-17 -9.5q-12 -5 -20 -5.5t-16 11.5q-5 8 -1.5 15.5t17.5 17.5q6 5 18.5 17t16.5 22t-2.5 17t-17.5 11q-14 6 -24 16q-22 19 -24 50q-3 30 19 53q21 22 51 24q27 1 48 -15q23 -18 30 -46q6 -31 2 -61z
" />
    <glyph glyph-name="endash" unicode="&#x2013;" horiz-adv-x="494" 
d="M422 315h-353q-13 0 -22 9t-9 22v62q0 13 9 22t22 9h353q13 0 21.5 -9t8.5 -22v-62q0 -13 -8.5 -22t-21.5 -9z" />
    <glyph glyph-name="emdash" unicode="&#x2014;" horiz-adv-x="736" 
d="M661 315h-592q-13 0 -22 9t-9 22v62q0 13 9 22t22 9h592q13 0 22 -9t9 -22v-62q0 -13 -9 -22t-22 -9z" />
    <glyph glyph-name="underscore" unicode="_" horiz-adv-x="668" 
d="M578 -123h-493q-13 0 -22 9t-9 22v62q0 13 9 22t22 9h493q13 0 21.5 -9t8.5 -22v-62q0 -13 -8.5 -22t-21.5 -9z" />
    <glyph glyph-name="asciitilde" unicode="~" horiz-adv-x="574" 
d="M366 326q-19 1 -35.5 4t-30.5 10q-14 6 -26.5 12.5t-24.5 13.5q-9 5 -17 10t-16 9q-15 7 -33 7q-21 0 -43 -25q-11 -13 -20 -15.5t-21 1.5l-27 8q-13 4 -19.5 9.5t1.5 25.5q5 11 14.5 24t17.5 21q9 8 19 15.5t22 13.5q25 11 56 11h1q35 0 62 -12q26 -12 49 -26
q10 -5 19 -10t17 -9t17 -6.5t19 -2.5q18 0 29.5 8t19.5 18q6 8 8 11q8 12 15.5 15.5t19.5 -0.5l38 -13q12 -4 15 -13t-1 -17q-2 -4 -4 -7t-5 -8q-12 -21 -30 -39q-20 -20 -45 -31q-25 -13 -59 -13h-2z" />
    <glyph glyph-name="tilde" unicode="&#x2dc;" horiz-adv-x="473" 
d="M243 785q-6 3 -14 9.5t-18 12.5t-21.5 10t-23.5 4q-20 -1 -29 -13t-14 -20q-3 -5 -9.5 -9t-19.5 0l-35 12q-13 4 -17 10.5t-1 14.5q2 5 4 9t4 9q14 35 43 56t66 21q31 0 48.5 -8t31 -17.5t26.5 -18t35 -8.5q14 -1 24.5 4.5t23.5 22.5q4 5 11 8t19 -1l36 -14
q12 -5 14.5 -12.5t-0.5 -15.5q-2 -3 -2.5 -4l-2.5 -5q-7 -16 -22 -32q-20 -23 -44 -35q-6 -3 -18 -6t-28 -3t-33.5 4t-33.5 15z" />
    <glyph glyph-name="backslash" unicode="\" horiz-adv-x="493" 
d="M32 834h76q13 0 22.5 -8.5t13.5 -20.5l339 -914q5 -12 -1 -20.5t-19 -8.5h-77q-13 0 -22 8.5t-14 20.5l-339 914q-4 12 2 20.5t19 8.5z" />
    <glyph glyph-name="registered" unicode="&#xae;" horiz-adv-x="827" 
d="M411 -12q-80 0 -147 29t-119 81q-51 51 -81 120q-29 67 -29 147q0 79 29 146q30 69 81 120q50 50 119 80t147 30q77 0 146 -30q71 -31 120 -80q52 -51 81 -120q30 -69 30 -146q0 -78 -30 -147q-29 -69 -81 -120q-51 -51 -120 -81q-67 -29 -146 -29zM411 647
q-58 0 -110 -23t-89 -60q-38 -38 -61 -90q-22 -50 -22 -109q0 -60 22 -110q23 -53 61 -89q36 -38 89 -61q50 -22 110 -22q59 0 109 22q52 23 90 61q37 37 60 89t23 110q0 57 -23 109q-23 51 -60 90q-39 37 -90 60q-52 23 -109 23zM359 221v48q0 8 3.5 14.5t11.5 6.5h16
q9 0 16 -5t12 -12t10.5 -14t11.5 -14q5 -7 10.5 -13.5t10.5 -14.5q5 -7 14.5 -11.5t17.5 -4.5h56q8 0 11 4.5t-2 11.5q-6 9 -12.5 17.5t-12.5 17.5q-7 8 -13.5 17t-13.5 17q-5 7 -3.5 15t8.5 13q17 12 29 32q17 28 17 65q0 54 -33 87t-87 33h-136q-8 0 -14 -6.5t-6 -14.5
v-289q0 -8 6 -14t14 -6h37q8 0 14.5 6t6.5 14zM379 453h58q12 0 28 -8q14 -9 14 -34q0 -15 -5 -23t-12 -13q-8 -5 -14 -5q-4 -1 -6.5 -1h-4.5h-58q-8 0 -14 6t-6 14v43q0 8 6 14.5t14 6.5z" />
    <glyph glyph-name="degree" unicode="&#xb0;" horiz-adv-x="336" 
d="M168 605q-26 0 -49.5 10t-40.5 27t-27 40.5t-10 49.5t10 49t27 40.5t40.5 27.5t49.5 10t49 -10t40 -27.5t27 -40.5t10 -49t-10 -49.5t-27 -40.5t-40 -27t-49 -10zM168 780q-20 0 -34.5 -14t-14.5 -34t14.5 -34t34.5 -14t34 14t14 34t-14 34t-34 14z" />
    <glyph glyph-name="bullet" unicode="&#x2022;" horiz-adv-x="362" 
d="M68 405q0 23 9 43.5t24.5 36t36 24.5t43.5 9t43.5 -9t36 -24.5t24.5 -36t9 -43.5t-9 -43.5t-24.5 -36t-36 -24.5t-43.5 -9t-43.5 9t-36 24.5t-24.5 36t-9 43.5z" />
    <glyph glyph-name="dagger" unicode="&#x2020;" horiz-adv-x="483" 
d="M430 396h-101q-13 0 -22 -9t-9 -22v-394q0 -13 -9 -22t-22 -9h-51q-13 0 -22 9t-9 22v394q0 13 -9 22t-22 9h-101q-13 0 -22 9t-9 22v51q0 13 9 22t22 9h101q13 0 22 9t9 22v129q0 13 9 22t22 9h51q13 0 22 -9t9 -22v-129q0 -13 9 -22t22 -9h101q13 0 22 -9t9 -22v-51
q0 -13 -9 -22t-22 -9z" />
    <glyph glyph-name="trademark" unicode="&#x2122;" horiz-adv-x="849" 
d="M71 733h270q13 0 17 -9t4 -22v-25q0 -13 -4 -22t-17 -9h-59q-13 0 -21.5 -4t-8.5 -17v-240q0 -13 -9 -17t-22 -4h-30q-13 0 -21.5 4t-8.5 17v240q0 13 -9 17t-22 4h-59q-13 0 -16.5 9t-3.5 22v25q0 13 3.5 22t16.5 9zM776 720v-335q0 -13 -9 -17t-22 -4h-30
q-13 0 -21.5 4t-8.5 17v93q0 13 -6 15t-14 -8l-54 -66q-8 -10 -19.5 -10t-19.5 10l-55 66q-8 10 -13.5 8t-5.5 -15v-93q0 -13 -9 -17t-22 -4h-30q-13 0 -21.5 4t-8.5 17v335q0 13 10.5 15t18.5 -8l136 -168q8 -10 19 -10t19 10l136 168q8 10 19 8t11 -15z" />
    <glyph glyph-name="quotedbl" unicode="&#x22;" horiz-adv-x="444" 
d="M134 524h-40q-12 0 -21.5 9t-11.5 22l-12 157q-1 12 7.5 21t20.5 9h73q13 0 21.5 -9t7.5 -21l-12 -157q-1 -13 -10.5 -22t-22.5 -9zM345 524h-40q-12 0 -21.5 9t-10.5 22l-12 157q-1 12 7.5 21t20.5 9h73q13 0 21.5 -9t6.5 -21l-12 -157q-1 -13 -10.5 -22t-22.5 -9z" />
    <glyph glyph-name="bar" unicode="|" horiz-adv-x="286" 
d="M162 -106h-40q-13 0 -21.5 9t-8.5 22v880q0 13 8.5 22t21.5 9h40q13 0 22 -9t9 -22v-880q0 -13 -9 -22t-22 -9z" />
    <glyph glyph-name="AE" unicode="&#xc6;" horiz-adv-x="1062" 
d="M598 576v-119q0 -13 9 -22t22 -9h292q13 0 22 -9t9 -22v-66q0 -13 -9 -22t-22 -9h-292q-13 0 -22 -9t-9 -22v-109q0 -13 9 -22t22 -9h337q13 0 22 -9t9 -22v-65q0 -13 -9 -22t-22 -9h-477q-13 0 -22 9t-9 22v61q0 13 -9 22t-22 9h-169q-13 0 -27 -7.5t-21 -18.5l-47 -71
q-7 -11 -21 -18.5t-27 -7.5h-96q-13 0 -17 7.5t3 18.5l449 681q7 11 21 18.5t27 7.5h464q13 0 22 -9t9 -22v-64q0 -13 -9 -22t-22 -9h-337q-13 0 -22 -9t-9 -22zM442 458l-118 -185q-7 -11 -2.5 -18.5t17.5 -7.5h88q13 0 22 9t9 22v175q0 13 -4.5 14.5t-11.5 -9.5z" />
    <glyph glyph-name="percent" unicode="%" horiz-adv-x="960" 
d="M220 328q-41 0 -75 15.5t-59 42.5t-39 64.5t-14 81.5q0 45 14 82.5t39 64.5t59 42.5t75 15.5q40 0 74.5 -15.5t59.5 -42.5t39 -64.5t14 -82.5q0 -44 -14.5 -81t-39.5 -64.5t-59 -43t-74 -15.5zM735 -15q-41 0 -75 15.5t-59 42.5t-39 64.5t-14 82.5q0 44 14 81.5t39 64.5
t59 42.5t75 15.5q40 0 74.5 -15.5t59 -42.5t38.5 -64.5t14 -81.5t-14 -81.5t-39 -65t-59 -43t-74 -15.5zM735 288q-22 0 -34.5 -12.5t-19 -29t-8 -33t-1.5 -23.5q0 -5 1.5 -21.5t7.5 -33.5t18.5 -30.5t35.5 -13.5q16 0 28 9.5t20 24.5t11.5 32.5t3.5 32.5q0 14 -3 31
t-10.5 32t-19.5 25t-30 10zM220 630q-22 0 -34.5 -12.5t-19 -29t-8 -33t-1.5 -23.5q0 -5 1.5 -21t7.5 -33t18.5 -30.5t35.5 -13.5q16 0 28 9.5t20 24.5t11.5 32t3.5 32q0 14 -3 31t-10.5 32t-19.5 25t-30 10zM336 26l403 681q7 11 2.5 18.5t-17.5 7.5h-53q-13 0 -26 -7.5
t-20 -18.5l-403 -681q-6 -11 -2 -18.5t17 -7.5h53q13 0 26.5 7.5t19.5 18.5z" />
    <glyph glyph-name="grave" unicode="`" horiz-adv-x="284" 
d="M110 910q11 5 22.5 4t19.5 -11l84 -108q8 -10 4.5 -17t-16.5 -7h-42q-12 0 -22 2.5t-20 10.5l-93 70q-11 8 -9.5 16.5t12.5 13.5z" />
    <glyph glyph-name="perthousand" unicode="&#x2030;" horiz-adv-x="1374" 
d="M220 328q-41 0 -75 15.5t-59 42.5t-39 64.5t-14 81.5q0 45 14 82.5t39 64.5t59 42.5t75 15.5q40 0 74.5 -15.5t59.5 -42.5t39 -64.5t14 -82.5q0 -44 -14.5 -81t-39.5 -64.5t-59 -43t-74 -15.5zM1155 -15q-41 0 -75 15.5t-58.5 42.5t-38.5 64.5t-14 82.5q0 44 14 81.5
t38.5 64.5t58.5 42.5t75 15.5q40 0 74.5 -15.5t59.5 -42.5t39 -64.5t14 -81.5t-14 -81.5t-39 -65t-59.5 -43t-74.5 -15.5zM735 -15q-41 0 -75 15.5t-59 42.5t-39 64.5t-14 82.5q0 44 14 81.5t39 64.5t59 42.5t75 15.5q40 0 74.5 -15.5t59 -42.5t38.5 -64.5t14 -81.5
t-14 -81.5t-39 -65t-59 -43t-74 -15.5zM1155 288q-22 0 -34.5 -12.5t-19 -29t-8 -33t-1.5 -23.5q0 -5 1.5 -21.5t7.5 -33.5t18.5 -30.5t35.5 -13.5q16 0 28.5 9.5t20 24.5t11.5 32.5t4 32.5q0 14 -3.5 31t-11 32t-19.5 25t-30 10zM735 288q-22 0 -34.5 -12.5t-19 -29t-8 -33
t-1.5 -23.5q0 -5 1.5 -21.5t7.5 -33.5t18.5 -30.5t35.5 -13.5q16 0 28 9.5t20 24.5t11.5 32.5t3.5 32.5q0 14 -3 31t-10.5 32t-19.5 25t-30 10zM220 630q-22 0 -34.5 -12.5t-19 -29t-8 -33t-1.5 -23.5q0 -5 1.5 -21t7.5 -33t18.5 -30.5t35.5 -13.5q16 0 28 9.5t20 24.5
t11.5 32t3.5 32q0 14 -3 31t-10.5 32t-19.5 25t-30 10zM336 26l403 681q7 11 2.5 18.5t-17.5 7.5h-53q-13 0 -26 -7.5t-20 -18.5l-403 -681q-6 -11 -2 -18.5t17 -7.5h53q13 0 26.5 7.5t19.5 18.5z" />
    <glyph glyph-name="yen" unicode="&#xa5;" horiz-adv-x="612" 
d="M433 391h77q13 0 22 -9t9 -22v-28q0 -13 -9 -22t-22 -9h-105q-13 0 -21.5 -9t-8.5 -22v-24q0 -13 8.5 -22t21.5 -9h105q13 0 22 -9t9 -22v-27q0 -13 -9 -22t-22 -9h-105q-13 0 -21.5 -9t-8.5 -22v-64q0 -13 -9 -22t-22 -9h-79q-13 0 -21.5 9t-8.5 22v64q0 13 -9 22t-22 9
h-96q-13 0 -21.5 9t-8.5 22v27q0 13 8.5 22t21.5 9h96q13 0 22 9t9 22v24q0 13 -9 22t-22 9h-96q-13 0 -21.5 9t-8.5 22v28q0 13 8.5 22t21.5 9h69q13 0 17.5 8t-2.5 19l-168 289q-7 11 -2.5 18.5t17.5 7.5h101q13 0 26.5 -7.5t19.5 -18.5l103 -179q7 -11 16 -11t15 11
l103 179q7 11 20 18.5t26 7.5h101q13 0 17.5 -7.5t-2.5 -18.5l-167 -289q-6 -11 -2 -19t17 -8z" />
    <glyph glyph-name="daggerdbl" unicode="&#x2021;" horiz-adv-x="489" 
d="M52 244h102q13 0 21.5 9t8.5 22v91q0 13 -8.5 21.5t-21.5 8.5h-102q-13 0 -22 9t-9 22v52q0 13 9 21.5t22 8.5h102q13 0 21.5 9t8.5 22v130q0 13 9 21.5t22 8.5h52q13 0 21.5 -8.5t8.5 -21.5v-130q0 -13 9 -22t22 -9h102q13 0 21.5 -8.5t8.5 -21.5v-52q0 -13 -8.5 -22
t-21.5 -9h-102q-13 0 -22 -8.5t-9 -21.5v-91q0 -13 9 -22t22 -9h102q13 0 21.5 -8.5t8.5 -21.5v-52q0 -13 -8.5 -22t-21.5 -9h-102q-13 0 -22 -8.5t-9 -21.5v-130q0 -13 -8.5 -22t-21.5 -9h-52q-13 0 -22 9t-9 22v130q0 13 -8.5 21.5t-21.5 8.5h-102q-13 0 -22 9t-9 22v52
q0 13 9 21.5t22 8.5z" />
    <glyph glyph-name="quotesinglbase" unicode="&#x201a;" horiz-adv-x="210" 
d="M176 17q-2 -16 -8 -30t-14 -28q-16 -28 -42 -49q-8 -6 -16 -10.5t-17 -9.5q-12 -5 -20 -5.5t-16 11.5q-5 8 -1.5 15.5t17.5 17.5q6 5 18.5 17t16.5 22t-2.5 17t-17.5 11q-14 6 -24 16q-22 19 -24 50q-3 30 19 53q21 22 51 24q27 1 48 -15q23 -18 30 -46q6 -31 2 -61z" />
    <glyph glyph-name="ordfeminine" unicode="&#xaa;" horiz-adv-x="364" 
d="M293 309h-228q-9 0 -15 6t-6 14v27q0 9 6 15t15 6h228q8 0 14 -6t6 -15v-27q0 -8 -6 -14t-14 -6zM288 432h-26q-17 0 -21 12q-1 5 -7.5 -0.5t-18.5 -9.5q-8 -3 -16 -4t-17 -2h-5q-58 0 -93 25q-34 25 -37 71q-3 47 27 77q11 11 25 19q7 4 13.5 6.5t13.5 4.5t13 3t13 2
q6 1 11 1h10q11 -1 20 -2t17 -3q5 -1 8.5 -2t7.5 -3q7 -3 11.5 0.5t2.5 11.5q-2 15 -7 22q-10 13 -26 20q-22 8 -39 7q-19 -2 -34 -6q-16 -4 -28 -12q-2 -1 -5 -3t-7 -3t-9 0.5t-9 8.5l-13 23q-5 7 -4 14t11 12q8 4 18.5 8t23.5 8q74 21 123 -1q25 -12 40 -28q14 -15 22 -34
q7 -18 9 -39q2 -10 2 -20v-20v-144q0 -8 -6 -14t-14 -6zM241 543q-1 8 -8 14q-7 5 -21 10t-40 5q-18 0 -33 -6q-8 -3 -16.5 -11t-8.5 -27q0 -10 4 -16t9.5 -9.5t11 -5.5t8.5 -3q12 -4 34 -4q13 0 25 1.5t20 7t12.5 16t2.5 28.5z" />
    <glyph glyph-name="ordmasculine" unicode="&#xba;" horiz-adv-x="395" 
d="M195 429q-33 0 -61 12q-29 13 -49 34q-21 22 -34 50q-12 28 -12 62q0 32 12 61q14 30 34 50q21 21 49 33q27 13 61 13q35 0 62 -13q28 -12 49 -33q21 -20 34 -50q13 -27 13 -61q0 -35 -13 -62q-12 -28 -34 -50q-21 -21 -49 -34q-29 -12 -62 -12zM315 309h-238q-8 0 -14 6
t-6 14v27q0 9 6 15t14 6h238q9 0 15 -6t6 -15v-27q0 -8 -6 -14t-15 -6zM196 682q-17 0 -35 -8q-15 -7 -29 -21q-6 -7 -11 -14.5t-8 -16.5q-7 -15 -7 -35q0 -21 7 -36q5 -15 19 -30q14 -14 29 -21q18 -8 35 -8t35 8q17 8 29 21q11 12 19 30q7 19 7 36q0 16 -7 35
q-8 18 -19 31q-12 13 -29 21q-18 8 -35 8z" />
    <glyph glyph-name="exclamdown" unicode="&#xa1;" horiz-adv-x="293" 
d="M198 487l22 -456q1 -13 -7.5 -22t-21.5 -9h-89q-12 0 -21 9t-8 22l22 456q1 13 10.5 22t21.5 9h39q13 0 22 -9t10 -22zM217 700v-87q0 -13 -9 -22t-22 -9h-79q-12 0 -21 9t-9 22v87q0 13 9 22t21 9h79q13 0 22 -9t9 -22z" />
    <glyph glyph-name="questiondown" unicode="&#xbf;" horiz-adv-x="584" 
d="M124 53q-34 24 -59 65q-23 40 -23 92q0 46 12 79q12 31 31 55q17 21 41 37q24 15 45 27q11 5 21 10.5t19 10.5q20 11 28 24q18 24 21 48q2 5 2 9.5t1 9.5q2 19 30 19h79q13 0 22 -9t8 -22q-2 -23 -7 -46t-15.5 -45.5t-27.5 -45.5q-22 -30 -47 -45q-14 -8 -26.5 -16
t-26.5 -15q-10 -5 -18 -10t-15 -9q-11 -7 -21 -17q-9 -9 -12 -20q-2 -6 -3 -13.5t-1 -15.5q0 -6 3 -19q3 -14 15 -27q12 -14 34 -24q24 -11 62 -11q33 0 57 12q23 10 41 28q17 17 26 38q6 9 9 19q4 8 14.5 11t22.5 -1l74 -24q12 -5 18 -15t1 -21q-4 -10 -12 -25
q-14 -33 -47 -67q-30 -33 -81 -59q-49 -25 -123 -25q-47 0 -90 13q-23 7 -43.5 16.5t-38.5 23.5zM260 720q0 13 9 22t22 9h79q13 0 21.5 -9t8.5 -22v-87q0 -13 -8.5 -22t-21.5 -9h-79q-13 0 -22 9t-9 22v87z" />
    <glyph glyph-name="ellipsis" unicode="&#x2026;" horiz-adv-x="700" 
d="M197 66q0 -31 -21.5 -52.5t-52.5 -21.5q-30 0 -51.5 21.5t-21.5 52.5q0 30 21.5 51.5t51.5 21.5q31 0 52.5 -21.5t21.5 -51.5zM424 66q0 -31 -21.5 -52.5t-52.5 -21.5q-30 0 -51.5 21.5t-21.5 52.5q0 30 21.5 51.5t51.5 21.5q31 0 52.5 -21.5t21.5 -51.5zM651 66
q0 -31 -21.5 -52.5t-52.5 -21.5q-30 0 -51.5 21.5t-21.5 52.5q0 30 21.5 51.5t51.5 21.5q31 0 52.5 -21.5t21.5 -51.5z" />
    <glyph glyph-name="OE" unicode="&#x152;" horiz-adv-x="1160" 
d="M697 577v-121q0 -13 8.5 -22t21.5 -9h293q13 0 22 -9t9 -22v-65q0 -13 -9 -22t-22 -9h-293q-13 0 -21.5 -9t-8.5 -22v-110q0 -13 8.5 -22t21.5 -9h338q13 0 22 -9t9 -22v-64q0 -13 -9 -22t-22 -9h-464q-10 0 -16.5 1t-12.5 2t-12 1.5t-14 0.5q-9 0 -27 -5t-27 -7
q-31 -7 -69 -7q-79 0 -148 30t-121 82q-51 51 -81 121q-30 69 -30 147q0 77 30 148q30 68 81 121q42 42 93 68q11 6 27.5 13t28.5 11q56 19 120 19q35 0 68 -6q9 -2 18.5 -4.5t18.5 -4.5q12 -4 19 -4.5t15 1.5t19.5 3t24.5 1h459q13 0 22 -9t9 -22v-62q0 -13 -9 -22t-22 -9
h-338q-13 0 -21.5 -9t-8.5 -22zM557 197v338q0 34 -18.5 52t-42 25.5t-45 8.5t-28.5 1q-52 0 -94 -16t-76 -50q-16 -16 -29 -36t-22 -44q-19 -47 -19 -110q0 -62 19 -107q9 -24 22 -44t29 -37q34 -34 76 -50q43 -18 94 -18q13 0 36 2t44.5 10.5t37.5 26t16 48.5z" />
    <glyph glyph-name="asciicircum" unicode="^" horiz-adv-x="605" 
d="M395 401l-85 182q-5 12 -13 12t-13 -12l-86 -182q-5 -11 -18 -19.5t-26 -8.5h-79q-13 0 -18 8t1 20l152 310q6 11 19 19t26 8h84q13 0 26 -8t19 -19l152 -310q6 -12 1 -20t-18 -8h-80q-13 0 -26 8.5t-18 19.5z" />
    <glyph glyph-name="quotedblbase" unicode="&#x201e;" horiz-adv-x="392" 
d="M172 17q-2 -16 -8 -30t-14 -28q-16 -28 -42 -49q-8 -6 -16 -10.5t-17 -9.5q-12 -5 -20 -5.5t-16 11.5q-5 8 -1.5 15.5t17.5 17.5q6 5 18.5 17t16.5 22t-2.5 17t-17.5 11q-14 6 -24 16q-22 19 -24 50q-3 30 19 53q21 22 51 24q27 1 48 -15q23 -18 30 -46q6 -31 2 -61z
M371 17q-2 -16 -8 -30t-14 -28q-16 -28 -42 -49q-8 -6 -16 -10.5t-17 -9.5q-12 -5 -20 -5.5t-16 11.5q-5 8 -1.5 15.5t17.5 17.5q6 5 18.5 17t16.5 22t-2.5 17t-17.5 11q-14 6 -24 16q-22 19 -24 50q-3 30 19 53q21 22 51 24q27 1 48 -15q23 -18 30 -46q6 -31 2 -61z" />
    <glyph glyph-name="periodcentered" unicode="&#xb7;" horiz-adv-x="192" 
d="M172 416q0 -31 -21.5 -52.5t-52.5 -21.5q-30 0 -51.5 21.5t-21.5 52.5q0 30 21.5 51.5t51.5 21.5q31 0 52.5 -21.5t21.5 -51.5z" />
    <glyph glyph-name="plusminus" unicode="&#xb1;" horiz-adv-x="549" 
d="M479 441v-59q0 -13 -9 -22t-22 -9h-76q-13 0 -22 -9t-9 -22v-90q0 -13 -9 -22t-22 -9h-80q-13 0 -22 9t-9 22v90q0 13 -9 22t-22 9h-76q-13 0 -22 9t-9 22v59q0 13 9 22t22 9h76q13 0 22 9t9 22v91q0 13 9 22t22 9h80q13 0 22 -9t9 -22v-91q0 -13 9 -22t22 -9h76
q13 0 22 -9t9 -22zM61 31v62q0 13 9 22t22 9h356q13 0 22 -9t9 -22v-62q0 -13 -9 -22t-22 -9h-356q-13 0 -22 9t-9 22z" />
    <glyph glyph-name="guillemotright" unicode="&#xbb;" horiz-adv-x="678" 
d="M194 393l-120 182q-8 11 -3.5 18.5t17.5 7.5h80q13 0 26.5 -7.5t20.5 -18.5l117 -182q8 -11 7.5 -26t-7.5 -26l-115 -179q-8 -11 -21.5 -18.5t-26.5 -7.5h-83q-13 0 -17 7.5t3 18.5l122 180q7 11 7 25.5t-7 25.5zM470 393l-121 182q-7 11 -3 18.5t17 7.5h81
q13 0 26.5 -7.5t20.5 -18.5l116 -182q8 -11 8 -26t-8 -26l-114 -179q-8 -11 -21.5 -18.5t-26.5 -7.5h-83q-13 0 -17 7.5t3 18.5l122 180q7 11 7 25.5t-7 25.5z" />
    <glyph glyph-name="guillemotleft" unicode="&#xab;" horiz-adv-x="678" 
d="M185 162l-114 179q-8 11 -8 26t7 26l116 182q8 11 21.5 18.5t26.5 7.5h81q13 0 17 -7.5t-3 -18.5l-121 -182q-7 -11 -7 -25.5t7 -25.5l122 -180q7 -11 3 -18.5t-17 -7.5h-83q-13 0 -26.5 7.5t-21.5 18.5zM461 162l-115 179q-8 11 -8 26t8 26l116 182q8 11 21.5 18.5
t26.5 7.5h80q13 0 17 -7.5t-3 -18.5l-120 -182q-7 -11 -7 -25.5t7 -25.5l122 -180q7 -11 3 -18.5t-17 -7.5h-83q-13 0 -26.5 7.5t-21.5 18.5z" />
    <glyph glyph-name="guilsinglleft" unicode="&#x2039;" horiz-adv-x="405" 
d="M185 162l-115 179q-7 11 -7 26t7 26l116 182q7 11 20.5 18.5t26.5 7.5h82q13 0 17 -7t-3 -18l-121 -183q-8 -11 -8 -25.5t8 -25.5l122 -180q7 -11 3 -18.5t-17 -7.5h-84q-13 0 -26.5 7.5t-20.5 18.5z" />
    <glyph glyph-name="guilsinglright" unicode="&#x203a;" horiz-adv-x="405" 
d="M216 162q-7 -11 -20.5 -18.5t-26.5 -7.5h-84q-13 0 -17 7.5t3 18.5l122 180q8 11 8 25.5t-8 25.5l-121 183q-7 11 -3 18t17 7h82q13 0 26.5 -7.5t20.5 -18.5l116 -182q7 -11 7 -26t-7 -26z" />
    <glyph glyph-name="paragraph" unicode="&#xb6;" horiz-adv-x="544" 
d="M206 31v258q0 13 -9 22t-22 11q-18 3 -35 9q-31 12 -58 37l-16.5 16.5t-20.5 28t-17 42.5t-7 60q0 31 8 62t24 57.5t39.5 47.5t53.5 32q51 19 139 19h150q13 0 22 -8.5t9 -21.5v-672q0 -13 -9 -22t-22 -9h-32q-13 0 -22 9t-9 22v611q0 13 -9 19t-22 6h-10q-13 0 -22 -6
t-9 -19v-611q0 -13 -9 -22t-22 -9h-33q-12 0 -21 9t-9 22z" />
    <glyph glyph-name="brokenbar" unicode="&#xa6;" horiz-adv-x="286" 
d="M123 836h40q13 0 21.5 -9t8.5 -22v-326q0 -13 -8.5 -22t-21.5 -9h-40q-13 0 -22 9t-9 22v326q0 13 9 22t22 9zM92 -75v325q0 13 9 22t22 9h40q13 0 21.5 -9t8.5 -22v-325q0 -13 -8.5 -22t-21.5 -9h-40q-13 0 -22 9t-9 22z" />
    <glyph glyph-name="germandbls" unicode="&#xdf;" horiz-adv-x="1348" 
d="M68 121l42 62q7 11 19 13t23 -5q45 -28 88 -48q57 -28 123 -28q34 0 60 9q24 7 44 22q18 14 27 31q9 16 9 34q0 21 -14 38q-13 14 -36 25q-11 5 -24 9t-29 8q-15 4 -30.5 7t-32.5 6q-11 2 -24 4.5t-27 5.5q-29 4 -60 15q-32 9 -61 25q-30 15 -54 39q-24 22 -39 56
q-14 33 -14 76q0 63 26 107q25 41 66 67q39 23 90 34q47 10 96 10q46 0 82 -6q18 -3 34.5 -7.5t32.5 -9.5q16 -6 31 -13.5t29 -15.5q10 -6 19 -12t20 -12q11 -8 13 -20t-6 -23l-42 -60q-8 -11 -20.5 -13t-23.5 5q-39 25 -74 38q-47 19 -101 19q-9 0 -19.5 -1t-21.5 -3
q-23 -5 -44 -15q-10 -5 -18.5 -11t-15.5 -14q-13 -16 -13 -38t16 -37t41 -25q13 -5 26.5 -9t28.5 -8t29.5 -7t28.5 -7q11 -2 23 -5t26 -5t29 -5.5t30 -8.5q8 -2 16.5 -5t16.5 -6q12 -5 27.5 -13t26.5 -16q8 -5 14.5 -10.5t12.5 -11.5q25 -25 38 -58q15 -35 15 -84
q0 -56 -20 -99q-20 -42 -57 -69q-38 -29 -88 -42q-53 -14 -113 -14q-58 0 -101 9q-41 7 -79 23q-18 7 -35 15.5t-33 18.5q-10 6 -20 12.5t-21 14.5q-11 7 -13 19t5 23zM734 121l42 62q7 11 19 13t23 -5q45 -28 88 -48q57 -28 123 -28q34 0 60 9q24 7 44 22q18 14 27 31
q9 16 9 34q0 21 -14 38q-13 14 -36 25q-11 5 -24 9t-29 8q-15 4 -30.5 7t-32.5 6q-11 2 -24 4.5t-27 5.5q-29 4 -60 15q-32 9 -61 25q-30 15 -54 39q-24 22 -39 56q-14 33 -14 76q0 63 26 107q25 41 66 67q39 23 90 34q47 10 96 10q46 0 82 -6q18 -3 34.5 -7.5t32.5 -9.5
q16 -6 31 -13.5t29 -15.5q10 -6 19 -12t20 -12q11 -8 13 -20t-6 -23l-42 -60q-8 -11 -20.5 -13t-23.5 5q-39 25 -74 38q-47 19 -101 19q-9 0 -19.5 -1t-21.5 -3q-23 -5 -44 -15q-10 -5 -18.5 -11t-15.5 -14q-13 -16 -13 -38t16 -37t41 -25q13 -5 26.5 -9t28.5 -8t29.5 -7
t28.5 -7q11 -2 23 -5t26 -5t29 -5.5t30 -8.5q8 -2 16.5 -5t16.5 -6q12 -5 27.5 -13t26.5 -16q8 -5 14.5 -10.5t12.5 -11.5q25 -25 38 -58q15 -35 15 -84q0 -56 -20 -99q-20 -42 -57 -69q-38 -29 -88 -42q-53 -14 -113 -14q-58 0 -101 9q-41 7 -79 23q-18 7 -35 15.5
t-33 18.5q-10 6 -20 12.5t-21 14.5q-11 7 -13 19t5 23z" />
    <glyph glyph-name="logicalnot" unicode="&#xac;" horiz-adv-x="589" 
d="M502 208h-78q-13 0 -22 8.5t-9 21.5v111q0 13 -9 21.5t-22 8.5h-282q-13 0 -22 9t-9 22v63q0 13 9 21.5t22 8.5h422q13 0 22 -8.5t9 -21.5v-235q0 -13 -9 -21.5t-22 -8.5z" />
    <glyph glyph-name="onequarter" unicode="&#xbc;" horiz-adv-x="874" 
d="M219 709v-426q0 -26 -26 -26h-40q-25 0 -25 26v263q0 13 -6.5 16t-16.5 -6l-24 -24q-10 -8 -22.5 -8t-21.5 9l-20 22q-9 9 -9 22t10 21l120 115q10 9 19.5 15t32.5 6q20 0 24.5 -6.5t4.5 -18.5zM146 26l406 681q6 11 14.5 18.5t21.5 7.5h41q13 0 17.5 -7.5t-2.5 -18.5
l-405 -681q-6 -11 -14.5 -18.5t-21.5 -7.5h-42q-13 0 -17 7.5t2 18.5zM821 166v-39q0 -17 -11.5 -19t-23.5 -2q-23 0 -23 -26v-54q0 -13 -9 -19.5t-22 -6.5h-30q-13 0 -21.5 6.5t-8.5 19.5v54q0 13 -9 19.5t-22 6.5h-167q-13 0 -21.5 6.5t-8.5 19.5v32q0 13 5.5 23.5
t13.5 19.5l211 247q8 10 17.5 16.5t22.5 6.5h23q13 0 19.5 -9t6.5 -22v-234q0 -26 23 -26q12 0 23.5 -2t11.5 -18zM652 299l-73 -89q-8 -10 -5 -17t16 -7h56q26 0 26 26v80q0 13 -6 15t-14 -8z" />
    <glyph glyph-name="onehalf" unicode="&#xbd;" horiz-adv-x="874" 
d="M147 26l405 681q7 11 15.5 18.5t21.5 7.5h40q13 0 17.5 -7.5t-2.5 -18.5l-404 -681q-7 -11 -15 -18.5t-21 -7.5h-42q-13 0 -17.5 7.5t2.5 18.5zM844 54v-28q0 -26 -26 -26h-278q-26 0 -26 26v39q0 13 2 20t11 15q4 3 10 9t11 10q11 9 22 18.5t23 19.5l24 20t24 21
q12 10 22.5 18.5t19.5 16.5q11 9 19.5 17t15.5 15t11.5 13.5t8.5 12.5q7 13 8 23q1 5 1 11v11q0 19 -7 32q-8 15 -17 21q-5 4 -11 6.5t-13 4.5q-14 3 -26 3q-21 0 -37 -11q-15 -11 -24 -24q-5 -7 -7.5 -13.5t-5.5 -12.5q-7 -15 -33 -8l-38 12q-12 3 -15 10t1 15q2 8 9 20
q13 24 33 44q19 19 49 35q30 14 68 14q44 0 74 -13q32 -14 51 -34q19 -21 30 -47q10 -26 10 -54q0 -56 -27 -93q-27 -39 -74 -77q-8 -8 -20 -17.5t-27 -21.5q-8 -7 -16.5 -13.5t-16.5 -13.5q-11 -8 -8.5 -14t15.5 -6h154q26 0 26 -26zM219 709v-426q0 -26 -26 -26h-39
q-26 0 -26 26v263q0 13 -6.5 16t-15.5 -6l-25 -24q-9 -8 -21.5 -8t-21.5 9l-21 22q-9 9 -8.5 22t9.5 21l121 115q9 9 18.5 15t32.5 6q20 0 24.5 -6.5t4.5 -18.5z" />
    <glyph glyph-name="threequarters" unicode="&#xbe;" horiz-adv-x="958" 
d="M279 484q3 -2 6.5 -3t6.5 -3q13 -7 25 -21q12 -13 19 -32q3 -10 5 -21t2 -25q0 -11 -5 -36q-3 -11 -8.5 -23t-14.5 -23l-15.5 -15.5t-15.5 -12.5q-20 -12 -36 -17q-20 -7 -37 -8q-18 -3 -34 -3q-41 0 -71 14q-28 13 -49 35q-19 19 -30 43q-2 5 -3.5 7.5t-3.5 7.5
q-3 9 0.5 18.5t15.5 13.5l32 12q13 3 19 -3l8 -8q8 -13 13.5 -24t21.5 -23q8 -6 20.5 -9.5t26.5 -3.5q38 0 56 18q19 17 19 40q0 24 -8 40q-10 16 -23 23q-15 7 -38 12q-6 1 -12 1.5t-14 1.5q-11 1 -18 7.5t-7 19.5v19q0 12 7 18.5t18 7.5q7 1 13 1.5t12 1.5q23 2 38 9
t24 21q8 14 8 37t-19 40t-56 17q-25 0 -41 -11t-23 -24q-6 -9 -9 -18q-2 -8 -9.5 -13.5t-20.5 -1.5l-39 11q-13 4 -16.5 11t0.5 15l4 10l4 10q11 24 30 44q10 10 22 18.5t27 15.5q30 14 71 14q45 0 77 -12q31 -14 51 -33q20 -20 29 -44q9 -26 9 -49q0 -13 -2 -24t-5 -20
q-7 -19 -18 -31t-25 -20q-7 -4 -14 -7q-11 -7 0 -13zM246 26l406 681q7 11 15 18.5t21 7.5h41q13 0 17.5 -7.5t-2.5 -18.5l-405 -681q-6 -11 -14.5 -18.5t-31.5 -7.5h-32q-13 0 -17 7.5t2 18.5zM886 186q-23 0 -23 26v234q0 13 -6.5 22t-19.5 9h-23q-13 0 -22.5 -6.5
t-17.5 -16.5l-211 -247q-8 -9 -13.5 -19.5t-5.5 -23.5v-32q0 -13 8.5 -19.5t21.5 -6.5h167q13 0 22 -6.5t9 -19.5v-54q0 -13 8.5 -19.5t21.5 -6.5h30q13 0 22 6.5t9 19.5v54q0 26 23 26q12 0 23.5 2t11.5 19v39q0 16 -11.5 18t-23.5 2zM772 212q0 -26 -26 -26h-56
q-13 0 -16 7t5 17l73 89q8 10 14 8t6 -15v-80z" />
    <glyph glyph-name="onesuperior" unicode="&#xb9;" horiz-adv-x="286" 
d="M219 807v-426q0 -25 -26 -25h-40q-25 0 -25 25v264q0 13 -6.5 15.5t-16.5 -6.5l-24 -23q-9 -9 -22 -8.5t-22 9.5l-20 21q-9 10 -8.5 22.5t9.5 21.5l120 114q10 9 19.5 15.5t32.5 6.5q20 0 24.5 -6.5t4.5 -19.5z" />
    <glyph glyph-name="twosuperior" unicode="&#xb2;" horiz-adv-x="398" 
d="M364 412v-29q0 -25 -26 -25h-279q-25 0 -25 25v39q0 13 2 20t10 15q4 4 10.5 9.5t11.5 10.5l22 18t23 20q12 10 24 19.5t24 20.5q24 21 42 36q11 9 19.5 16.5t15.5 15.5q14 15 19 26q6 10 8 23q1 5 1.5 10.5t0.5 11.5q0 16 -7 32q-8 13 -18 20q-11 8 -23 11q-7 2 -13.5 3
t-12.5 1q-21 0 -37 -11q-16 -13 -24 -25q-5 -7 -8 -13.5t-5 -11.5q-7 -15 -34 -9l-37 13q-13 3 -15.5 10t0.5 15q2 5 4.5 10t5.5 10q11 20 32 43q20 20 50 35q28 15 68 15q21 0 39 -3.5t34 -9.5q31 -14 52 -34q19 -21 30 -48q5 -14 7.5 -26.5t2.5 -26.5q0 -55 -27 -94
q-26 -37 -74 -76q-9 -8 -20.5 -17.5t-26.5 -21.5q-9 -8 -17.5 -14.5t-16.5 -13.5q-10 -8 -7.5 -13.5t14.5 -5.5h155q26 0 26 -26z" />
    <glyph glyph-name="threesuperior" unicode="&#xb3;" horiz-adv-x="384" 
d="M283 589q8 -4 13 -6q13 -7 25 -21q5 -7 10 -14.5t8 -17.5q7 -18 7 -46q0 -7 -1 -16t-4 -20q-5 -23 -23 -46q-7 -8 -14.5 -15.5t-16.5 -12.5q-18 -11 -35 -17q-10 -3 -19 -5t-18 -3q-20 -3 -35 -3q-40 0 -71 14q-28 13 -48 35q-19 19 -30 43q-2 5 -3.5 7.5t-3.5 7.5
q-3 9 0.5 18.5t15.5 13.5l32 12q12 3 18.5 -3t7.5 -8q8 -13 14 -24t22 -23q8 -6 20.5 -9.5t25.5 -3.5q37 0 57 18q18 16 18 40q0 27 -8 40q-8 15 -23 23t-37 12q-6 1 -12.5 1.5t-13.5 1.5q-11 1 -18.5 7.5t-7.5 19.5v19q0 12 7.5 18.5t18.5 7.5q6 1 12.5 1.5t12.5 1.5
q21 1 38 9q16 8 23 21q8 12 8 37q0 23 -18 40q-20 17 -57 17q-25 0 -41 -11q-13 -9 -23 -24q-2 -5 -4 -9t-4 -9q-3 -8 -10.5 -13.5t-19.5 -1.5l-40 11q-23 7 -16 26q2 5 4.5 10t4.5 10q11 24 30 44q21 21 48 34q31 14 71 14q46 0 78 -12q31 -14 51 -33q18 -18 28 -44
q9 -26 9 -49q0 -27 -7 -44q-6 -19 -18 -31q-10 -12 -25 -20q-3 -2 -6.5 -3.5t-6.5 -3.5q-13 -7 0 -13z" />
    <glyph glyph-name="multiply" unicode="&#xd7;" horiz-adv-x="504" 
d="M454 488l-87 -85q-9 -9 -9 -22t9 -22l86 -86q9 -9 9 -22t-9 -22l-53 -51q-9 -9 -21.5 -9t-21.5 9l-86 85q-9 9 -21.5 9t-21.5 -9l-85 -84q-9 -9 -21.5 -9t-21.5 9l-52 52q-9 9 -9 22t9 22l85 84q9 9 9 22t-9 22l-86 84q-9 9 -9 22t9 22l53 52q9 8 21.5 8t21.5 -9l85 -83
q9 -9 21.5 -9t21.5 9l87 85q9 8 21.5 8t21.5 -9l53 -51q9 -9 9 -22t-9 -22z" />
    <glyph glyph-name="uni00AD" unicode="&#xad;" horiz-adv-x="833" 
 />
    <glyph glyph-name="acute" unicode="&#xb4;" horiz-adv-x="294" 
d="M171 912l60 -26q11 -5 12.5 -13.5t-9.5 -16.5l-93 -70q-10 -8 -20 -10.5t-22 -2.5h-42q-13 0 -16.5 7t4.5 17l84 108q8 10 19.5 11t22.5 -4z" />
    <glyph glyph-name="dieresis" unicode="&#xa8;" horiz-adv-x="414" 
d="M37 847q0 29 20 48.5t49 19.5t48 -19.5t19 -48.5t-19 -48t-48 -19t-49 19t-20 48zM241 847q0 29 19.5 48.5t48.5 19.5t48.5 -19.5t19.5 -48.5t-19.5 -48t-48.5 -19t-48.5 19t-19.5 48z" />
    <glyph glyph-name="circumflex" unicode="&#x2c6;" horiz-adv-x="431" 
d="M174 922h76q13 0 22.5 -7t17.5 -17l84 -105q8 -10 5 -17t-16 -7h-61q-13 0 -23 6.5t-19 15.5l-28 27q-9 8 -21.5 8t-21.5 -9l-24 -27q-9 -9 -19 -15.5t-23 -6.5h-61q-13 0 -16.5 7t4.5 17l84 106q8 10 17.5 17t22.5 7z" />
    <glyph glyph-name="macron" unicode="&#xaf;" horiz-adv-x="395" 
d="M330 802h-267q-13 0 -21.5 9t-8.5 22v30q0 13 8.5 22t21.5 9h267q13 0 22 -9t9 -22v-30q0 -13 -9 -22t-22 -9z" />
    <glyph glyph-name="cedilla" unicode="&#xb8;" horiz-adv-x="230" 
d="M203 -108q-3 -31 -16 -47q-15 -18 -30 -25q-29 -13 -54.5 -10.5t-37.5 4.5q-8 2 -18.5 6t-15.5 7q-10 6 -7 21q1 3 4 9.5t4 8.5q6 11 11 13.5t13 -2.5q3 -2 7 -2.5t10 -2.5q15 -3 28 -1.5t21 6.5q11 6 11 19t-13 20q-9 6 -18.5 6.5t-18 -1.5t-14.5 -4.5t-7 -3.5
q-6 -2 -13 -0.5t-9 6.5q-5 7 4 40l10 36q5 11 16.5 13.5t24.5 2.5h3q13 0 19 -5t3 -13q-5 -14 -2 -15.5t5 -1.5q6 1 13.5 -0.5t15.5 -3.5q54 -19 51 -80z" />
    <glyph glyph-name="ae" unicode="&#xe6;" horiz-adv-x="1062" 
d="M598 576v-119q0 -13 9 -22t22 -9h292q13 0 22 -9t9 -22v-66q0 -13 -9 -22t-22 -9h-292q-13 0 -22 -9t-9 -22v-109q0 -13 9 -22t22 -9h337q13 0 22 -9t9 -22v-65q0 -13 -9 -22t-22 -9h-477q-13 0 -22 9t-9 22v61q0 13 -9 22t-22 9h-169q-13 0 -27 -7.5t-21 -18.5l-47 -71
q-7 -11 -21 -18.5t-27 -7.5h-96q-13 0 -17 7.5t3 18.5l449 681q7 11 21 18.5t27 7.5h464q13 0 22 -9t9 -22v-64q0 -13 -9 -22t-22 -9h-337q-13 0 -22 -9t-9 -22zM442 458l-118 -185q-7 -11 -2.5 -18.5t17.5 -7.5h88q13 0 22 9t9 22v175q0 13 -4.5 14.5t-11.5 -9.5z" />
    <glyph glyph-name="oe" unicode="&#x153;" horiz-adv-x="1160" 
d="M697 577v-121q0 -13 8.5 -22t21.5 -9h293q13 0 22 -9t9 -22v-65q0 -13 -9 -22t-22 -9h-293q-13 0 -21.5 -9t-8.5 -22v-110q0 -13 8.5 -22t21.5 -9h338q13 0 22 -9t9 -22v-64q0 -13 -9 -22t-22 -9h-464q-10 0 -16.5 1t-12.5 2t-12 1.5t-14 0.5q-9 0 -27 -5t-27 -7
q-31 -7 -69 -7q-79 0 -148 30t-121 82q-51 51 -81 121q-30 69 -30 147q0 77 30 148q30 68 81 121q42 42 93 68q11 6 27.5 13t28.5 11q56 19 120 19q35 0 68 -6q9 -2 18.5 -4.5t18.5 -4.5q12 -4 19 -4.5t15 1.5t19.5 3t24.5 1h459q13 0 22 -9t9 -22v-62q0 -13 -9 -22t-22 -9
h-338q-13 0 -21.5 -9t-8.5 -22zM557 197v338q0 34 -18.5 52t-42 25.5t-45 8.5t-28.5 1q-52 0 -94 -16t-76 -50q-16 -16 -29 -36t-22 -44q-19 -47 -19 -110q0 -62 19 -107q9 -24 22 -44t29 -37q34 -34 76 -50q43 -18 94 -18q13 0 36 2t44.5 10.5t37.5 26t16 48.5z" />
    <glyph glyph-name="Oslash" unicode="&#xd8;" 
d="M125 -3l-30 26q-10 8 -10.5 20.5t7.5 22.5l24 27q8 10 8.5 23t-7.5 24q-30 40 -50 91q-24 63 -24 135q0 77 30 148q30 68 81 121q53 51 121 81q69 30 147 30q58 0 112 -17q38 -12 74 -32q11 -6 24.5 -4t21.5 11l21 24q8 10 20.5 10.5t22.5 -7.5l30 -27q9 -8 10 -20.5
t-8 -22.5l-21 -24q-8 -10 -8.5 -23t7.5 -24q31 -42 49 -90q25 -62 25 -134q0 -79 -30 -148q-30 -70 -82 -120q-50 -52 -120 -82q-69 -30 -148 -30q-58 0 -112 17q-20 5 -37.5 13t-34.5 17q-11 6 -24.5 4.5t-22.5 -11.5l-23 -26q-8 -10 -21 -10.5t-22 7.5zM329 595
q-43 -21 -76 -55q-16 -17 -29 -36.5t-22 -42.5q-19 -45 -19 -95q0 -40 12 -77q4 -11 8 -21.5t10 -20.5q6 -11 17 -12t19 9l275 312q9 10 7 21.5t-13 16.5q-45 21 -95 21q-49 0 -94 -20zM515 137q44 20 76 55q32 34 52 79q19 47 19 95q0 38 -12 76q-4 11 -8 21t-9 20
q-6 11 -17 12t-20 -9l-275 -312q-8 -10 -6.5 -21t13.5 -17q8 -3 15 -6t15 -5q31 -9 64 -9q49 0 93 21z" />
    <glyph glyph-name="a" unicode="a" horiz-adv-x="774" 
d="M20 27l347 693q6 12 20 12t20 -12l347 -693q6 -11 1.5 -19t-17.5 -8h-91q-13 0 -26 8t-18 20l-30 60q-6 11 -18.5 19t-25.5 8h-284q-13 0 -26 -8t-18 -20l-29 -59q-6 -12 -18.5 -20t-25.5 -8h-91q-13 0 -17.5 8t0.5 19zM313 237h148q13 0 17.5 8.5t-0.5 19.5l-78 165
q-5 12 -13 12t-13 -12l-79 -165q-5 -12 0 -20t18 -8z" />
    <glyph glyph-name="b" unicode="b" horiz-adv-x="695" 
d="M607 481q-10 -26 -24 -46q-15 -21 -38 -35q-10 -7 -23 -12q-10 -3 -9 -4.5t12 -4.5q14 -5 26 -10q26 -13 47 -37q22 -23 35 -53q13 -29 13 -63q0 -60 -18 -102q-19 -43 -49 -67q-30 -26 -72 -36q-21 -5 -43 -8t-46 -3h-307q-13 0 -22 9t-9 22v670q0 13 9 22t22 9h291
q23 0 43 -2t40 -6q41 -10 68 -32q30 -22 46 -62q17 -37 17 -101q0 -23 -9 -48zM251 434h141q21 0 37 8q14 7 26 21q10 12 16 30q5 14 5 33q0 16 -6 31q-7 17 -16 26q-9 10 -23 18q-13 7 -29 7h-151q-13 0 -22 -9t-9 -22v-112q0 -13 9 -22t22 -9zM452 133q15 7 28 23
q13 15 19 32q7 15 7 35q0 36 -27 62q-26 25 -76 25h-152q-13 0 -22 -9t-9 -22v-124q0 -13 9 -22t22 -9h167q19 0 34 9z" />
    <glyph glyph-name="c" unicode="c" horiz-adv-x="778" 
d="M734 154q-10 -14 -20.5 -27.5t-22.5 -25.5q-33 -35 -78 -61q-21 -13 -44 -23t-48 -17q-51 -14 -102 -14q-78 0 -147 30t-121 82q-51 51 -81 120t-30 147t30 147q30 68 81 121q53 51 121 81q69 30 147 30q51 0 102 -14q50 -14 92 -39q22 -13 41.5 -28.5t36.5 -32.5
q25 -26 43 -53q7 -11 3 -21.5t-16 -15.5l-74 -30q-11 -5 -24.5 -1.5t-21.5 13.5q-5 5 -10 10.5t-10 10.5q-11 11 -22.5 20t-24.5 17t-27 14t-28 11q-29 9 -60 9q-49 0 -94 -20q-44 -21 -75 -55q-32 -35 -51 -79q-19 -45 -19 -95q0 -51 19 -95t51 -79q31 -35 75 -54
q43 -21 94 -21q31 0 60 9q14 5 28 11t27 14t24.5 17.5t22.5 20.5q5 5 10 10.5t10 10.5q8 10 21.5 14t24.5 -1l74 -30q12 -5 16 -16t-3 -22z" />
    <glyph glyph-name="d" unicode="d" horiz-adv-x="786" 
d="M110 0q-13 0 -21.5 9t-8.5 22v670q0 13 8.5 22t21.5 9h258q157 0 258 -92q54 -50 81 -118q28 -73 28 -156q0 -44 -7 -82.5t-21 -73.5q-26 -69 -81 -119q-51 -46 -115 -68q-66 -23 -143 -23h-258zM250 124h119q38 0 79 9q39 9 72 36q32 25 54 73q21 46 21 123
q0 76 -21 124q-22 48 -54 73q-33 26 -73 35q-41 9 -78 9h-119q-13 0 -21.5 -9t-8.5 -22v-420q0 -13 8.5 -22t21.5 -9z" />
    <glyph glyph-name="e" unicode="e" horiz-adv-x="683" 
d="M220 577v-121q0 -13 9 -22t22 -9h292q13 0 22 -9t9 -22v-65q0 -13 -9 -22t-22 -9h-292q-13 0 -22 -9t-9 -22v-110q0 -13 9 -22t22 -9h337q13 0 22 -9t9 -22v-64q0 -13 -9 -22t-22 -9h-477q-13 0 -22 9t-9 22v670q0 13 9 22t22 9h477q13 0 22 -9t9 -22v-62q0 -13 -9 -22
t-22 -9h-337q-13 0 -22 -9t-9 -22z" />
    <glyph glyph-name="f" unicode="f" horiz-adv-x="652" 
d="M220 577v-119q0 -13 9 -22t22 -9h292q13 0 21.5 -9t8.5 -22v-67q0 -13 -8.5 -22t-21.5 -9h-292q-13 0 -22 -9t-9 -22v-236q0 -13 -8.5 -22t-21.5 -9h-79q-13 0 -22 9t-9 22v670q0 13 9 22t22 9h477q13 0 21.5 -9t8.5 -22v-62q0 -13 -8.5 -22t-21.5 -9h-337q-13 0 -22 -9
t-9 -22z" />
    <glyph glyph-name="g" unicode="g" horiz-adv-x="828" 
d="M791 369q-1 -20 -1.5 -40t-1.5 -23q-6 -71 -37 -128q-32 -59 -81 -101q-49 -43 -114 -67t-136 -24q-78 0 -147 30t-121 82q-53 53 -82 120q-30 69 -30 147q0 77 30 148q15 35 35.5 65t46.5 56q53 51 121 81q69 30 147 30q100 0 182 -46q69 -38 115 -98q8 -10 5.5 -22
t-13.5 -19l-68 -41q-11 -7 -23.5 -4t-21.5 12q-14 16 -29.5 30t-34.5 25q-53 32 -112 32q-48 0 -93 -20q-46 -22 -76 -55q-32 -34 -52 -79q-19 -45 -19 -95q0 -51 19 -95q20 -45 52 -79q31 -34 76 -54q43 -21 93 -21q38 0 73 12q35 11 64 32q28 20 51 50q13 17 20 35
q6 12 -0.5 20.5t-19.5 8.5h-208q-13 0 -22 9t-9 22v64q0 13 9 22t22 9h360q13 0 22 -9t9 -22z" />
    <glyph glyph-name="h" unicode="h" horiz-adv-x="800" 
d="M720 701v-670q0 -13 -9 -22t-22 -9h-78q-13 0 -22 9t-9 22v229q0 13 -9 22t-22 9h-299q-13 0 -22 -9t-9 -22v-229q0 -13 -9 -22t-22 -9h-78q-13 0 -22 9t-9 22v670q0 13 9 22t22 9h78q13 0 22 -9t9 -22v-255q0 -13 9 -22t22 -9h299q13 0 22 9t9 22v255q0 13 9 22t22 9h78
q13 0 22 -9t9 -22z" />
    <glyph glyph-name="i" unicode="i" horiz-adv-x="340" 
d="M209 0h-79q-13 0 -21.5 9t-8.5 22v669q0 13 8.5 22t21.5 9h79q13 0 22 -9t9 -22v-669q0 -13 -9 -22t-22 -9z" />
    <glyph glyph-name="j" unicode="j" horiz-adv-x="609" 
d="M532 700v-428q0 -66 -19 -117t-55 -90q-37 -39 -86 -58q-50 -21 -111 -21q-87 0 -148 40q-49 30 -81 84q-6 11 -1.5 23t15.5 17l71 32q12 5 22 4t13 -7q2 -3 4.5 -6.5t4.5 -6.5q11 -16 24 -26q13 -11 33 -19q19 -8 43 -8q43 0 69 17q25 16 39 42q7 13 12 25.5t7 26.5
t3 25.5t1 22.5v428q0 13 9 22t22 9h78q13 0 22 -9t9 -22z" />
    <glyph glyph-name="k" unicode="k" horiz-adv-x="735" 
d="M506 23l-266 288q-8 9 -14 6.5t-6 -15.5v-271q0 -13 -9 -22t-22 -9h-79q-13 0 -21.5 9t-8.5 22v670q0 13 8.5 22t21.5 9h79q13 0 22 -9t9 -22v-310q0 -13 5.5 -15t13.5 8l253 323q8 10 22 17t27 7h111q13 0 16.5 -7t-4.5 -17l-263 -330q-8 -10 -7.5 -23.5t9.5 -22.5
l288 -309q8 -9 5.5 -15.5t-15.5 -6.5h-124q-13 0 -28 6.5t-23 16.5z" />
    <glyph glyph-name="l" unicode="l" horiz-adv-x="615" 
d="M607 93v-62q0 -13 -9 -22t-22 -9h-465q-13 0 -22 9t-9 22v670q0 13 9 22t22 9h78q13 0 22 -9t9 -22v-546q0 -13 9 -22t22 -9h325q13 0 22 -9t9 -22z" />
    <glyph glyph-name="m" unicode="m" horiz-adv-x="898" 
d="M817 715v-684q0 -13 -9 -22t-21 -9h-79q-13 0 -22 9t-9 22v308q0 13 -5.5 15.5t-13.5 -8.5l-190 -227q-8 -10 -19.5 -10t-19.5 10l-189 227q-8 10 -14 8t-6 -15v-308q0 -13 -9 -22t-22 -9h-78q-13 0 -22 9t-9 22v684q0 13 12 15t20 -8l316 -390q8 -9 20 -9t20 9l317 390
q8 10 20 8t12 -15z" />
    <glyph glyph-name="n" unicode="n" horiz-adv-x="796" 
d="M220 404v-373q0 -13 -9 -22t-22 -9h-79q-12 0 -21 9t-9 22v684q0 13 12.5 15.5t21.5 -5.5l439 -415q10 -9 16.5 -6t6.5 16v380q0 13 9 22t22 9h78q13 0 22 -9t9 -22v-683q0 -13 -12.5 -15.5t-22.5 5.5l-438 408q-10 8 -16.5 5t-6.5 -16z" />
    <glyph glyph-name="o" unicode="o" 
d="M422 -14q-78 0 -147 30t-120.5 81.5t-81.5 120.5t-30 148q0 78 30 147.5t81.5 121t120.5 81.5t147 30q79 0 148 -30t120.5 -81.5t81.5 -121t30 -147.5q0 -79 -30 -148t-81.5 -120.5t-120.5 -81.5t-148 -30zM422 615q-50 0 -93.5 -20.5t-76 -54.5t-51.5 -79.5t-19 -94.5
q0 -50 19 -95t51.5 -79.5t76 -55t93.5 -20.5t93.5 20.5t76 55t51.5 79.5t19 95q0 49 -19 94.5t-51.5 79.5t-76 54.5t-93.5 20.5z" />
    <glyph glyph-name="p" unicode="p" horiz-adv-x="678" 
d="M508 712q47 -21 82 -56q18 -17 31.5 -38t24.5 -44q20 -49 20 -102q0 -54 -18 -100t-53 -80q-34 -34 -88 -54q-55 -20 -124 -20h-132q-13 0 -22 -9t-9 -22v-156q0 -13 -8.5 -22t-21.5 -9h-79q-13 0 -22 9t-9 22v670q0 13 9 22t22 9h295q53 0 102 -20zM460 355q23 10 38 28
q7 9 12.5 19.5t8.5 21.5q7 21 7 48q0 24 -9 50q-9 25 -26 43q-16 19 -42 31q-24 12 -58 12h-140q-13 0 -22 -9t-9 -22v-202q0 -13 9 -22t22 -9h155q30 0 54 11z" />
    <glyph glyph-name="q" unicode="q" horiz-adv-x="827" 
d="M803 97v-67q0 -13 -9 -22t-22 -9h-333q-102 0 -177 30q-75 29 -123 80q-48 48 -73 118q-23 69 -23 145t29 145q30 67 80 119q52 51 118 80q69 29 145 29q75 0 145 -29q68 -30 118 -80q51 -52 80 -119q30 -68 30 -145q0 -31 -8 -68q-8 -35 -24 -68q-19 -34 -44 -61
q-8 -9 -18 -16.5t-21 -15.5q-23 -15 4 -15h95q13 0 22 -9t9 -22zM183 372q0 -48 18 -91t50 -75q30 -32 74 -52q41 -19 90 -19t91 19t73 52q32 32 50 75q19 42 19 91q0 50 -19 92q-18 43 -50 75t-73 51q-42 19 -91 19t-90 -19q-43 -20 -74 -51q-32 -32 -50 -75
q-18 -44 -18 -92z" />
    <glyph glyph-name="r" unicode="r" horiz-adv-x="720" 
d="M190 0h-79q-13 0 -22 9t-9 22v670q0 13 9 22t22 9h302q56 0 103 -18q46 -20 79 -52q17 -17 30 -37t22 -43q18 -47 18 -102q0 -85 -41 -145q-32 -48 -83 -76q-11 -6 -14 -16.5t5 -20.5q37 -50 70.5 -94.5t69.5 -94.5q8 -11 4.5 -22t-16.5 -11h-101q-13 0 -27 7t-22 17
q-17 23 -33.5 45.5t-33.5 45.5l-66 93q-8 11 -22 18t-27 7h-77q-13 0 -22 -9t-9 -22v-171q0 -13 -8.5 -22t-21.5 -9zM251 357h162q18 0 39 8q22 8 37 23t26 38q10 21 10 54q0 18 -4 38q-2 11 -6 21.5t-9 20.5q-12 20 -34 34q-23 14 -59 14h-162q-13 0 -22 -9t-9 -22v-189
q0 -13 9 -22t22 -9z" />
    <glyph glyph-name="s" unicode="s" horiz-adv-x="680" 
d="M68 121l42 62q7 11 19 13t23 -5q45 -28 88 -48q57 -28 123 -28q34 0 60 9q24 7 44 22q18 14 27 31q9 16 9 34q0 21 -14 38q-13 14 -36 25q-11 5 -24 9t-29 8q-15 4 -30.5 7t-32.5 6q-11 2 -24 4.5t-27 5.5q-29 4 -60 15q-32 9 -61 25q-30 15 -54 39q-24 22 -39 56
q-14 33 -14 76q0 63 26 107q25 41 66 67q39 23 90 34q47 10 96 10q46 0 82 -6q18 -3 34.5 -7.5t32.5 -9.5q16 -6 31 -13.5t29 -15.5q10 -6 19 -12t20 -12q11 -8 13 -20t-6 -23l-42 -60q-8 -11 -20.5 -13t-23.5 5q-39 25 -74 38q-47 19 -101 19q-9 0 -19.5 -1t-21.5 -3
q-23 -5 -44 -15q-10 -5 -18.5 -11t-15.5 -14q-13 -16 -13 -38t16 -37t41 -25q13 -5 26.5 -9t28.5 -8t29.5 -7t28.5 -7q11 -2 23 -5t26 -5t29 -5.5t30 -8.5q8 -2 16.5 -5t16.5 -6q12 -5 27.5 -13t26.5 -16q8 -5 14.5 -10.5t12.5 -11.5q25 -25 38 -58q15 -35 15 -84
q0 -56 -20 -99q-20 -42 -57 -69q-38 -29 -88 -42q-53 -14 -113 -14q-58 0 -101 9q-41 7 -79 23q-18 7 -35 15.5t-33 18.5q-10 6 -20 12.5t-21 14.5q-11 7 -13 19t5 23z" />
    <glyph glyph-name="t" unicode="t" horiz-adv-x="622" 
d="M575 608h-147q-13 0 -22 -9t-9 -22v-546q0 -13 -9 -22t-22 -9h-78q-13 0 -22 9t-9 22v546q0 13 -9 22t-22 9h-148q-13 0 -22 9t-9 22v62q0 13 9 22t22 9h497q13 0 22 -9t9 -22v-62q0 -13 -9 -22t-22 -9z" />
    <glyph glyph-name="u" unicode="u" horiz-adv-x="788" 
d="M265 9q-60 23 -99 62q-42 40 -64 97q-22 56 -22 127v405q0 13 9 22t21 9h79q13 0 22 -9t9 -22v-404q0 -55 18 -91q18 -35 44 -57q28 -22 57 -29q16 -4 29.5 -6t25.5 -2q22 0 54 8q31 7 57 29q27 21 45 57t18 91v404q0 13 9 22t22 9h78q13 0 22 -9t9 -22v-405
q0 -35 -5.5 -66.5t-16.5 -60.5q-22 -56 -63 -97q-40 -39 -99 -62q-57 -22 -130 -22t-129 22z" />
    <glyph glyph-name="v" unicode="v" horiz-adv-x="721" 
d="M702 703l-320 -690q-5 -11 -19 -11t-19 11l-319 690q-5 12 0 20t17 8h93q13 0 26 -8t18 -20l171 -368q5 -11 13 -11t13 11l171 368q5 12 18 20t26 8h93q13 0 18 -8t0 -20z" />
    <glyph glyph-name="w" unicode="w" horiz-adv-x="991" 
d="M970 702l-252 -691q-5 -12 -18 -12t-18 11l-173 388q-5 12 -13 12t-13 -12l-174 -385q-6 -11 -18.5 -11t-17.5 12l-249 688q-5 12 1 20.5t19 8.5h87q13 0 25 -8.5t16 -20.5l123 -343q4 -12 11 -12t12 11l159 361q5 11 18.5 11t18.5 -11l159 -362q5 -11 12 -11t11 12
l126 344q4 12 16 20.5t25 8.5h87q13 0 19 -8.5t1 -20.5z" />
    <glyph glyph-name="x" unicode="x" horiz-adv-x="754" 
d="M278 387l-239 318q-8 10 -4.5 18t16.5 8h112q13 0 26.5 -7t21.5 -18l154 -213q8 -11 18 -11t18 11l154 213q8 11 22 18t27 7h111q13 0 16.5 -8t-4.5 -18l-238 -318q-8 -11 -8 -25t8 -24l233 -311q8 -11 4.5 -19t-16.5 -8h-112q-13 0 -27 7t-22 18l-148 205q-8 11 -18 11
t-18 -11l-148 -205q-8 -11 -21.5 -18t-26.5 -7h-112q-13 0 -16.5 8t4.5 19l233 311q8 10 8 24t-8 25z" />
    <glyph glyph-name="y" unicode="y" horiz-adv-x="709" 
d="M688 705q-11 -18 -23 -37.5t-26 -41.5q-18 -29 -36.5 -59t-37.5 -61q-20 -31 -38.5 -61.5t-36.5 -59.5q-14 -22 -26.5 -42t-23.5 -39q-7 -11 -11 -28t-4 -30v-215q0 -13 -9 -22t-22 -9h-79q-13 0 -21.5 9t-8.5 22v215q0 13 -4.5 30t-11.5 28q-29 51 -59.5 100.5
t-62.5 99.5q-33 51 -64 100.5t-60 100.5q-7 11 -2.5 18.5t17.5 7.5h102q13 0 26.5 -7.5t19.5 -18.5l38 -64t39 -65q19 -33 38 -65l38 -64q6 -11 15.5 -11t16.5 11q7 12 14.5 24t15.5 25l48 81q12 20 23.5 40t23.5 40q8 12 15 24l14 24q6 11 19.5 18.5t26.5 7.5h102
q13 0 17 -7.5t-2 -18.5z" />
    <glyph glyph-name="z" unicode="z" horiz-adv-x="702" 
d="M297 130h333q13 0 22 -9t9 -22v-68q0 -13 -9 -22t-22 -9h-590q-13 0 -17 13t4 24l385 540q8 11 4 18t-17 7h-317q-12 0 -21 9t-9 22v67q0 13 9 22t21 9h573q13 0 17 -13t-4 -24l-384 -539q-7 -11 -3 -18t16 -7z" />
    <glyph glyph-name="Aacute" unicode="&#xc1;" horiz-adv-x="774" 
d="M20 27l347 693q6 12 20 12t20 -12l347 -693q6 -11 1.5 -19t-17.5 -8h-91q-13 0 -26 8t-18 20l-30 60q-6 11 -18.5 19t-25.5 8h-284q-13 0 -26 -8t-18 -20l-29 -59q-6 -12 -18.5 -20t-25.5 -8h-91q-13 0 -17.5 8t0.5 19zM313 237h148q13 0 17.5 8.5t-0.5 19.5l-78 165
q-5 12 -13 12t-13 -12l-79 -165q-5 -12 0 -20t18 -8zM485 906l60 -26q11 -5 12.5 -13.5t-9.5 -16.5l-93 -70q-10 -8 -20 -10.5t-22 -2.5h-42q-13 0 -16.5 7t4.5 17l84 108q8 10 19.5 11t22.5 -4z" />
    <glyph glyph-name="Acircumflex" unicode="&#xc2;" horiz-adv-x="774" 
d="M20 27l347 693q6 12 20 12t20 -12l347 -693q6 -11 1.5 -19t-17.5 -8h-91q-13 0 -26 8t-18 20l-30 60q-6 11 -18.5 19t-25.5 8h-284q-13 0 -26 -8t-18 -20l-29 -59q-6 -12 -18.5 -20t-25.5 -8h-91q-13 0 -17.5 8t0.5 19zM313 237h148q13 0 17.5 8.5t-0.5 19.5l-78 165
q-5 12 -13 12t-13 -12l-79 -165q-5 -12 0 -20t18 -8zM348 919h76q13 0 22.5 -7t17.5 -17l84 -105q8 -10 5 -17t-16 -7h-61q-13 0 -23 6.5t-19 15.5l-28 27q-9 8 -21.5 8t-21.5 -9l-24 -27q-9 -9 -19 -15.5t-23 -6.5h-61q-13 0 -16.5 7t4.5 17l84 106q8 10 17.5 17t22.5 7z
" />
    <glyph glyph-name="Atilde" unicode="&#xc3;" horiz-adv-x="774" 
d="M20 27l347 693q6 12 20 12t20 -12l347 -693q6 -11 1.5 -19t-17.5 -8h-91q-13 0 -26 8t-18 20l-30 60q-6 11 -18.5 19t-25.5 8h-284q-13 0 -26 -8t-18 -20l-29 -59q-6 -12 -18.5 -20t-25.5 -8h-91q-13 0 -17.5 8t0.5 19zM313 237h148q13 0 17.5 8.5t-0.5 19.5l-78 165
q-5 12 -13 12t-13 -12l-79 -165q-5 -12 0 -20t18 -8zM401 778q-6 3 -14 9.5t-18 12.5t-21.5 10t-23.5 4q-20 -1 -29 -13t-14 -20q-3 -5 -9.5 -9t-19.5 0l-35 12q-13 4 -17 10.5t-1 14.5q2 5 4 9t4 9q14 35 43 56t66 21q31 0 48.5 -8t31 -17.5t26.5 -18t35 -8.5
q14 -1 24.5 4.5t23.5 22.5q4 5 11 8t19 -1l36 -14q12 -5 14.5 -12.5t-0.5 -15.5q-2 -3 -2.5 -4l-2.5 -5q-7 -16 -22 -32q-20 -23 -44 -35q-6 -3 -18 -6t-28 -3t-33.5 4t-33.5 15z" />
    <glyph glyph-name="Adieresis" unicode="&#xc4;" horiz-adv-x="774" 
d="M20 27l347 693q6 12 20 12t20 -12l347 -693q6 -11 1.5 -19t-17.5 -8h-91q-13 0 -26 8t-18 20l-30 60q-6 11 -18.5 19t-25.5 8h-284q-13 0 -26 -8t-18 -20l-29 -59q-6 -12 -18.5 -20t-25.5 -8h-91q-13 0 -17.5 8t0.5 19zM313 237h148q13 0 17.5 8.5t-0.5 19.5l-78 165
q-5 12 -13 12t-13 -12l-79 -165q-5 -12 0 -20t18 -8zM217 834q0 29 20 48.5t49 19.5t48 -19.5t19 -48.5t-19 -48t-48 -19t-49 19t-20 48zM421 834q0 29 19.5 48.5t48.5 19.5t48.5 -19.5t19.5 -48.5t-19.5 -48t-48.5 -19t-48.5 19t-19.5 48z" />
    <glyph glyph-name="Aring" unicode="&#xc5;" horiz-adv-x="774" 
d="M20 27l337 674q-34 10 -56 38t-22 66q0 22 8.5 41.5t23 34t34 23t42.5 8.5q22 0 41.5 -8.5t34 -23t23 -34t8.5 -41.5q0 -38 -22 -66t-56 -38l338 -674q6 -11 1.5 -19t-17.5 -8h-91q-13 0 -26 8t-18 20l-30 60q-6 11 -18.5 19t-25.5 8h-284q-13 0 -26 -8t-18 -20l-29 -59
q-6 -12 -18.5 -20t-25.5 -8h-91q-13 0 -17.5 8t0.5 19zM313 237h148q13 0 17.5 8.5t-0.5 19.5l-78 165q-5 12 -13 12t-13 -12l-79 -165q-5 -12 0 -20t18 -8zM387 845q-17 0 -29 -11.5t-12 -28.5t12 -29t29 -12t28.5 12t11.5 29t-11.5 28.5t-28.5 11.5z" />
    <glyph glyph-name="Ccedilla" unicode="&#xc7;" horiz-adv-x="778" 
d="M523 -121q-3 -31 -16 -47q-15 -18 -30 -25q-29 -13 -54.5 -10.5t-37.5 4.5q-8 2 -18.5 6t-15.5 7q-10 6 -7 21q1 3 4 9.5t4 8.5q6 11 11 13.5t13 -2.5q3 -2 7 -2.5t10 -2.5q15 -3 28 -1.5t21 6.5q11 6 11 19t-13 20q-9 6 -18.5 6.5t-18 -1.5t-14.5 -4.5t-7 -3.5
q-6 -2 -13 -0.5t-9 6.5q-5 7 4 40l10 36q2 7 -7 8q-49 6 -95 26q-69 30 -121 82q-51 51 -81 120t-30 147t30 147q30 68 81 121q53 51 121 81q69 30 147 30q51 0 102 -14q50 -14 92 -39q22 -13 41.5 -28.5t36.5 -32.5q25 -26 43 -53q7 -11 3 -21.5t-16 -15.5l-74 -30
q-11 -5 -24.5 -1.5t-21.5 13.5l-20 21q-11 11 -22.5 20t-24.5 17t-27 14t-28 11q-29 9 -60 9q-49 0 -94 -20q-44 -21 -75 -55q-32 -35 -51 -79q-19 -45 -19 -95q0 -51 19 -95t51 -79q31 -35 75 -54q43 -21 94 -21q31 0 60 9q14 5 28 11t27 14t24.5 17.5t22.5 20.5l20 21
q8 10 21.5 14t24.5 -1l74 -30q12 -5 16 -16t-3 -22q-10 -14 -20.5 -27.5t-22.5 -25.5q-33 -35 -78 -61q-21 -13 -44 -23t-48 -17q-18 -5 -36.5 -8t-37.5 -5q-6 -2 -7 -7q-4 -14 -1.5 -15.5t4.5 -1.5q6 1 13.5 -0.5t15.5 -3.5q54 -19 51 -80z" />
    <glyph glyph-name="Scaron" unicode="&#x160;" horiz-adv-x="680" 
d="M68 121l42 62q7 11 19 13t23 -5q45 -28 88 -48q57 -28 123 -28q34 0 60 9q24 7 44 22q18 14 27 31q9 16 9 34q0 21 -14 38q-13 14 -36 25q-11 5 -24 9t-29 8q-15 4 -30.5 7t-32.5 6q-11 2 -24 4.5t-27 5.5q-29 4 -60 15q-32 9 -61 25q-30 15 -54 39q-24 22 -39 56
q-14 33 -14 76q0 63 26 107q25 41 66 67q39 23 90 34q47 10 96 10q46 0 82 -6q18 -3 34.5 -7.5t32.5 -9.5q16 -6 31 -13.5t29 -15.5q10 -6 19 -12t20 -12q11 -8 13 -20t-6 -23l-42 -60q-8 -11 -20.5 -13t-23.5 5q-39 25 -74 38q-47 19 -101 19q-9 0 -19.5 -1t-21.5 -3
q-23 -5 -44 -15q-10 -5 -18.5 -11t-15.5 -14q-13 -16 -13 -38t16 -37t41 -25q13 -5 26.5 -9t28.5 -8t29.5 -7t28.5 -7q11 -2 23 -5t26 -5t29 -5.5t30 -8.5q8 -2 16.5 -5t16.5 -6q12 -5 27.5 -13t26.5 -16q8 -5 14.5 -10.5t12.5 -11.5q25 -25 38 -58q15 -35 15 -84
q0 -56 -20 -99q-20 -42 -57 -69q-38 -29 -88 -42q-53 -14 -113 -14q-58 0 -101 9q-41 7 -79 23q-18 7 -35 15.5t-33 18.5q-10 6 -20 12.5t-21 14.5q-11 7 -13 19t5 23zM378 768h-76q-13 0 -22 7t-17 17l-85 106q-8 10 -4.5 16.5t16.5 6.5h60q13 0 23.5 -6t19.5 -15l27 -27
q9 -9 21.5 -9t21.5 10l25 26q9 9 18.5 15.5t22.5 6.5h61q13 0 16.5 -6.5t-4.5 -17.5l-84 -105q-8 -11 -17.5 -18t-22.5 -7z" />
    <glyph glyph-name="Zcaron" unicode="&#x17d;" horiz-adv-x="702" 
d="M297 130h333q13 0 22 -9t9 -22v-68q0 -13 -9 -22t-22 -9h-590q-13 0 -17 13t4 24l385 540q8 11 4 18t-17 7h-317q-12 0 -21 9t-9 22v67q0 13 9 22t21 9h573q13 0 17 -13t-4 -24l-384 -539q-7 -11 -3 -18t16 -7zM389 768h-76q-13 0 -22 7t-17 17l-85 106q-8 10 -4.5 16.5
t16.5 6.5h60q13 0 23.5 -6t19.5 -15l27 -27q9 -9 21.5 -9t21.5 10l25 26q9 9 18.5 15.5t22.5 6.5h61q13 0 16.5 -6.5t-4.5 -17.5l-84 -105q-8 -11 -17.5 -18t-22.5 -7z" />
    <glyph glyph-name="Ydieresis" unicode="&#x178;" horiz-adv-x="709" 
d="M688 705q-11 -18 -23 -37.5t-26 -41.5q-18 -29 -36.5 -59t-37.5 -61q-20 -31 -38.5 -61.5t-36.5 -59.5q-14 -22 -26.5 -42t-23.5 -39q-7 -11 -11 -28t-4 -30v-215q0 -13 -9 -22t-22 -9h-79q-13 0 -21.5 9t-8.5 22v215q0 13 -4.5 30t-11.5 28q-29 51 -59.5 100.5
t-62.5 99.5q-33 51 -64 100.5t-60 100.5q-7 11 -2.5 18.5t17.5 7.5h102q13 0 26.5 -7.5t19.5 -18.5l38 -64t39 -65q19 -33 38 -65l38 -64q6 -11 15.5 -11t16.5 11q7 12 14.5 24t15.5 25l48 81q12 20 23.5 40t23.5 40q8 12 15 24l14 24q6 11 19.5 18.5t26.5 7.5h102
q13 0 17 -7.5t-2 -18.5zM187 840q0 29 20 48.5t49 19.5t48 -19.5t19 -48.5t-19 -48t-48 -19t-49 19t-20 48zM391 840q0 29 19.5 48.5t48.5 19.5t48.5 -19.5t19.5 -48.5t-19.5 -48t-48.5 -19t-48.5 19t-19.5 48z" />
    <glyph glyph-name="Egrave" unicode="&#xc8;" horiz-adv-x="683" 
d="M220 577v-121q0 -13 9 -22t22 -9h292q13 0 22 -9t9 -22v-65q0 -13 -9 -22t-22 -9h-292q-13 0 -22 -9t-9 -22v-110q0 -13 9 -22t22 -9h337q13 0 22 -9t9 -22v-64q0 -13 -9 -22t-22 -9h-477q-13 0 -22 9t-9 22v670q0 13 9 22t22 9h477q13 0 22 -9t9 -22v-62q0 -13 -9 -22
t-22 -9h-337q-13 0 -22 -9t-9 -22zM293 906q11 5 22.5 4t19.5 -11l84 -108q8 -10 4.5 -17t-16.5 -7h-42q-12 0 -22 2.5t-20 10.5l-93 70q-11 8 -9.5 16.5t12.5 13.5z" />
    <glyph glyph-name="Eacute" unicode="&#xc9;" horiz-adv-x="683" 
d="M220 577v-121q0 -13 9 -22t22 -9h292q13 0 22 -9t9 -22v-65q0 -13 -9 -22t-22 -9h-292q-13 0 -22 -9t-9 -22v-110q0 -13 9 -22t22 -9h337q13 0 22 -9t9 -22v-64q0 -13 -9 -22t-22 -9h-477q-13 0 -22 9t-9 22v670q0 13 9 22t22 9h477q13 0 22 -9t9 -22v-62q0 -13 -9 -22
t-22 -9h-337q-13 0 -22 -9t-9 -22zM401 906l60 -26q11 -5 12.5 -13.5t-9.5 -16.5l-93 -70q-10 -8 -20 -10.5t-22 -2.5h-42q-13 0 -16.5 7t4.5 17l84 108q8 10 19.5 11t22.5 -4z" />
    <glyph glyph-name="Ecircumflex" unicode="&#xca;" horiz-adv-x="683" 
d="M220 577v-121q0 -13 9 -22t22 -9h292q13 0 22 -9t9 -22v-65q0 -13 -9 -22t-22 -9h-292q-13 0 -22 -9t-9 -22v-110q0 -13 9 -22t22 -9h337q13 0 22 -9t9 -22v-64q0 -13 -9 -22t-22 -9h-477q-13 0 -22 9t-9 22v670q0 13 9 22t22 9h477q13 0 22 -9t9 -22v-62q0 -13 -9 -22
t-22 -9h-337q-13 0 -22 -9t-9 -22zM312 919h76q13 0 22.5 -7t17.5 -17l84 -105q8 -10 5 -17t-16 -7h-61q-13 0 -23 6.5t-19 15.5l-28 27q-9 8 -21.5 8t-21.5 -9l-24 -27q-9 -9 -19 -15.5t-23 -6.5h-61q-13 0 -16.5 7t4.5 17l84 106q8 10 17.5 17t22.5 7z" />
    <glyph glyph-name="Edieresis" unicode="&#xcb;" horiz-adv-x="683" 
d="M220 577v-121q0 -13 9 -22t22 -9h292q13 0 22 -9t9 -22v-65q0 -13 -9 -22t-22 -9h-292q-13 0 -22 -9t-9 -22v-110q0 -13 9 -22t22 -9h337q13 0 22 -9t9 -22v-64q0 -13 -9 -22t-22 -9h-477q-13 0 -22 9t-9 22v670q0 13 9 22t22 9h477q13 0 22 -9t9 -22v-62q0 -13 -9 -22
t-22 -9h-337q-13 0 -22 -9t-9 -22zM182 844q0 29 20 48.5t49 19.5t48 -19.5t19 -48.5t-19 -48t-48 -19t-49 19t-20 48zM386 844q0 29 19.5 48.5t48.5 19.5t48.5 -19.5t19.5 -48.5t-19.5 -48t-48.5 -19t-48.5 19t-19.5 48z" />
    <glyph glyph-name="Igrave" unicode="&#xcc;" horiz-adv-x="340" 
d="M209 0h-79q-13 0 -21.5 9t-8.5 22v669q0 13 8.5 22t21.5 9h79q13 0 22 -9t9 -22v-669q0 -13 -9 -22t-22 -9zM93 906q11 5 22.5 4t19.5 -11l84 -108q8 -10 4.5 -17t-16.5 -7h-42q-12 0 -22 2.5t-20 10.5l-93 70q-11 8 -9.5 16.5t12.5 13.5z" />
    <glyph glyph-name="Iacute" unicode="&#xcd;" horiz-adv-x="340" 
d="M209 0h-79q-13 0 -21.5 9t-8.5 22v669q0 13 8.5 22t21.5 9h79q13 0 22 -9t9 -22v-669q0 -13 -9 -22t-22 -9zM245 906l60 -26q11 -5 12.5 -13.5t-9.5 -16.5l-93 -70q-10 -8 -20 -10.5t-22 -2.5h-42q-13 0 -16.5 7t4.5 17l84 108q8 10 19.5 11t22.5 -4z" />
    <glyph glyph-name="Icircumflex" unicode="&#xce;" horiz-adv-x="340" 
d="M209 0h-79q-13 0 -21.5 9t-8.5 22v669q0 13 8.5 22t21.5 9h79q13 0 22 -9t9 -22v-669q0 -13 -9 -22t-22 -9zM132 919h76q13 0 22.5 -7t17.5 -17l84 -105q8 -10 5 -17t-16 -7h-61q-13 0 -23 6.5t-19 15.5l-28 27q-9 8 -21.5 8t-21.5 -9l-24 -27q-9 -9 -19 -15.5t-23 -6.5
h-61q-13 0 -16.5 7t4.5 17l84 106q8 10 17.5 17t22.5 7z" />
    <glyph glyph-name="Idieresis" unicode="&#xcf;" horiz-adv-x="340" 
d="M209 0h-79q-13 0 -21.5 9t-8.5 22v669q0 13 8.5 22t21.5 9h79q13 0 22 -9t9 -22v-669q0 -13 -9 -22t-22 -9zM0 844q0 29 20 48.5t49 19.5t48 -19.5t19 -48.5t-19 -48t-48 -19t-49 19t-20 48zM204 844q0 29 19.5 48.5t48.5 19.5t48.5 -19.5t19.5 -48.5t-19.5 -48
t-48.5 -19t-48.5 19t-19.5 48z" />
    <glyph glyph-name="Ntilde" unicode="&#xd1;" horiz-adv-x="796" 
d="M220 404v-373q0 -13 -9 -22t-22 -9h-79q-12 0 -21 9t-9 22v684q0 13 12.5 15.5t21.5 -5.5l439 -415q10 -9 16.5 -6t6.5 16v380q0 13 9 22t22 9h78q13 0 22 -9t9 -22v-683q0 -13 -12.5 -15.5t-22.5 5.5l-438 408q-10 8 -16.5 5t-6.5 -16zM394 778q-6 3 -14 9.5t-18 12.5
t-21.5 10t-23.5 4q-20 -1 -29 -13t-14 -20q-3 -5 -9.5 -9t-19.5 0l-35 12q-13 4 -17 10.5t-1 14.5q2 5 4 9t4 9q14 35 43 56t66 21q31 0 48.5 -8t31 -17.5t26.5 -18t35 -8.5q14 -1 24.5 4.5t23.5 22.5q4 5 11 8t19 -1l36 -14q12 -5 14.5 -12.5t-0.5 -15.5q-2 -3 -2.5 -4
l-2.5 -5q-7 -16 -22 -32q-20 -23 -44 -35q-6 -3 -18 -6t-28 -3t-33.5 4t-33.5 15z" />
    <glyph glyph-name="Ograve" unicode="&#xd2;" 
d="M422 -14q-78 0 -147 30t-120.5 81.5t-81.5 120.5t-30 148q0 78 30 147.5t81.5 121t120.5 81.5t147 30q79 0 148 -30t120.5 -81.5t81.5 -121t30 -147.5q0 -79 -30 -148t-81.5 -120.5t-120.5 -81.5t-148 -30zM422 615q-50 0 -93.5 -20.5t-76 -54.5t-51.5 -79.5t-19 -94.5
q0 -50 19 -95t51.5 -79.5t76 -55t93.5 -20.5t93.5 20.5t76 55t51.5 79.5t19 95q0 49 -19 94.5t-51.5 79.5t-76 54.5t-93.5 20.5zM354 906q11 5 22.5 4t19.5 -11l84 -108q8 -10 4.5 -17t-16.5 -7h-42q-12 0 -22 2.5t-20 10.5l-93 70q-11 8 -9.5 16.5t12.5 13.5z" />
    <glyph glyph-name="Oacute" unicode="&#xd3;" 
d="M422 -14q-78 0 -147 30t-120.5 81.5t-81.5 120.5t-30 148q0 78 30 147.5t81.5 121t120.5 81.5t147 30q79 0 148 -30t120.5 -81.5t81.5 -121t30 -147.5q0 -79 -30 -148t-81.5 -120.5t-120.5 -81.5t-148 -30zM422 615q-50 0 -93.5 -20.5t-76 -54.5t-51.5 -79.5t-19 -94.5
q0 -50 19 -95t51.5 -79.5t76 -55t93.5 -20.5t93.5 20.5t76 55t51.5 79.5t19 95q0 49 -19 94.5t-51.5 79.5t-76 54.5t-93.5 20.5zM481 906l60 -26q11 -5 12.5 -13.5t-9.5 -16.5l-93 -70q-10 -8 -20 -10.5t-22 -2.5h-42q-13 0 -16.5 7t4.5 17l84 108q8 10 19.5 11t22.5 -4z
" />
    <glyph glyph-name="Ocircumflex" unicode="&#xd4;" 
d="M422 -14q-78 0 -147 30t-120.5 81.5t-81.5 120.5t-30 148q0 78 30 147.5t81.5 121t120.5 81.5t147 30q79 0 148 -30t120.5 -81.5t81.5 -121t30 -147.5q0 -79 -30 -148t-81.5 -120.5t-120.5 -81.5t-148 -30zM422 615q-50 0 -93.5 -20.5t-76 -54.5t-51.5 -79.5t-19 -94.5
q0 -50 19 -95t51.5 -79.5t76 -55t93.5 -20.5t93.5 20.5t76 55t51.5 79.5t19 95q0 49 -19 94.5t-51.5 79.5t-76 54.5t-93.5 20.5zM385 919h76q13 0 22.5 -7t17.5 -17l84 -105q8 -10 5 -17t-16 -7h-61q-13 0 -23 6.5t-19 15.5l-28 27q-9 8 -21.5 8t-21.5 -9l-24 -27
q-9 -9 -19 -15.5t-23 -6.5h-61q-13 0 -16.5 7t4.5 17l84 106q8 10 17.5 17t22.5 7z" />
    <glyph glyph-name="Otilde" unicode="&#xd5;" 
d="M422 -14q-78 0 -147 30t-120.5 81.5t-81.5 120.5t-30 148q0 78 30 147.5t81.5 121t120.5 81.5t147 30q79 0 148 -30t120.5 -81.5t81.5 -121t30 -147.5q0 -79 -30 -148t-81.5 -120.5t-120.5 -81.5t-148 -30zM422 615q-50 0 -93.5 -20.5t-76 -54.5t-51.5 -79.5t-19 -94.5
q0 -50 19 -95t51.5 -79.5t76 -55t93.5 -20.5t93.5 20.5t76 55t51.5 79.5t19 95q0 49 -19 94.5t-51.5 79.5t-76 54.5t-93.5 20.5zM430 778q-6 3 -14 9.5t-18 12.5t-21.5 10t-23.5 4q-20 -1 -29 -13t-14 -20q-3 -5 -9.5 -9t-19.5 0l-35 12q-13 4 -17 10.5t-1 14.5q2 5 4 9t4 9
q14 35 43 56t66 21q31 0 48.5 -8t31 -17.5t26.5 -18t35 -8.5q14 -1 24.5 4.5t23.5 22.5q4 5 11 8t19 -1l36 -14q12 -5 14.5 -12.5t-0.5 -15.5q-2 -3 -2.5 -4l-2.5 -5q-7 -16 -22 -32q-20 -23 -44 -35q-6 -3 -18 -6t-28 -3t-33.5 4t-33.5 15z" />
    <glyph glyph-name="Odieresis" unicode="&#xd6;" 
d="M422 -14q-78 0 -147 30t-120.5 81.5t-81.5 120.5t-30 148q0 78 30 147.5t81.5 121t120.5 81.5t147 30q79 0 148 -30t120.5 -81.5t81.5 -121t30 -147.5q0 -79 -30 -148t-81.5 -120.5t-120.5 -81.5t-148 -30zM422 615q-50 0 -93.5 -20.5t-76 -54.5t-51.5 -79.5t-19 -94.5
q0 -50 19 -95t51.5 -79.5t76 -55t93.5 -20.5t93.5 20.5t76 55t51.5 79.5t19 95q0 49 -19 94.5t-51.5 79.5t-76 54.5t-93.5 20.5zM252 844q0 29 20 48.5t49 19.5t48 -19.5t19 -48.5t-19 -48t-48 -19t-49 19t-20 48zM456 844q0 29 19.5 48.5t48.5 19.5t48.5 -19.5t19.5 -48.5
t-19.5 -48t-48.5 -19t-48.5 19t-19.5 48z" />
    <glyph glyph-name="Ugrave" unicode="&#xd9;" horiz-adv-x="788" 
d="M265 9q-60 23 -99 62q-42 40 -64 97q-22 56 -22 127v405q0 13 9 22t21 9h79q13 0 22 -9t9 -22v-404q0 -55 18 -91q18 -35 44 -57q28 -22 57 -29q16 -4 29.5 -6t25.5 -2q22 0 54 8q31 7 57 29q27 21 45 57t18 91v404q0 13 9 22t22 9h78q13 0 22 -9t9 -22v-405
q0 -35 -5.5 -66.5t-16.5 -60.5q-22 -56 -63 -97q-40 -39 -99 -62q-57 -22 -130 -22t-129 22zM327 906q11 5 22.5 4t19.5 -11l84 -108q8 -10 4.5 -17t-16.5 -7h-42q-12 0 -22 2.5t-20 10.5l-93 70q-11 8 -9.5 16.5t12.5 13.5z" />
    <glyph glyph-name="Uacute" unicode="&#xda;" horiz-adv-x="788" 
d="M265 9q-60 23 -99 62q-42 40 -64 97q-22 56 -22 127v405q0 13 9 22t21 9h79q13 0 22 -9t9 -22v-404q0 -55 18 -91q18 -35 44 -57q28 -22 57 -29q16 -4 29.5 -6t25.5 -2q22 0 54 8q31 7 57 29q27 21 45 57t18 91v404q0 13 9 22t22 9h78q13 0 22 -9t9 -22v-405
q0 -35 -5.5 -66.5t-16.5 -60.5q-22 -56 -63 -97q-40 -39 -99 -62q-57 -22 -130 -22t-129 22zM461 906l60 -26q11 -5 12.5 -13.5t-9.5 -16.5l-93 -70q-10 -8 -20 -10.5t-22 -2.5h-42q-13 0 -16.5 7t4.5 17l84 108q8 10 19.5 11t22.5 -4z" />
    <glyph glyph-name="Ucircumflex" unicode="&#xdb;" horiz-adv-x="788" 
d="M265 9q-60 23 -99 62q-42 40 -64 97q-22 56 -22 127v405q0 13 9 22t21 9h79q13 0 22 -9t9 -22v-404q0 -55 18 -91q18 -35 44 -57q28 -22 57 -29q16 -4 29.5 -6t25.5 -2q22 0 54 8q31 7 57 29q27 21 45 57t18 91v404q0 13 9 22t22 9h78q13 0 22 -9t9 -22v-405
q0 -35 -5.5 -66.5t-16.5 -60.5q-22 -56 -63 -97q-40 -39 -99 -62q-57 -22 -130 -22t-129 22zM354 919h76q13 0 22.5 -7t17.5 -17l84 -105q8 -10 5 -17t-16 -7h-61q-13 0 -23 6.5t-19 15.5l-28 27q-9 8 -21.5 8t-21.5 -9l-24 -27q-9 -9 -19 -15.5t-23 -6.5h-61q-13 0 -16.5 7
t4.5 17l84 106q8 10 17.5 17t22.5 7z" />
    <glyph glyph-name="Udieresis" unicode="&#xdc;" horiz-adv-x="788" 
d="M265 9q-60 23 -99 62q-42 40 -64 97q-22 56 -22 127v405q0 13 9 22t21 9h79q13 0 22 -9t9 -22v-404q0 -55 18 -91q18 -35 44 -57q28 -22 57 -29q16 -4 29.5 -6t25.5 -2q22 0 54 8q31 7 57 29q27 21 45 57t18 91v404q0 13 9 22t22 9h78q13 0 22 -9t9 -22v-405
q0 -35 -5.5 -66.5t-16.5 -60.5q-22 -56 -63 -97q-40 -39 -99 -62q-57 -22 -130 -22t-129 22zM225 844q0 29 20 48.5t49 19.5t48 -19.5t19 -48.5t-19 -48t-48 -19t-49 19t-20 48zM429 844q0 29 19.5 48.5t48.5 19.5t48.5 -19.5t19.5 -48.5t-19.5 -48t-48.5 -19t-48.5 19
t-19.5 48z" />
    <glyph glyph-name="Yacute" unicode="&#xdd;" horiz-adv-x="709" 
d="M688 705q-11 -18 -23 -37.5t-26 -41.5q-18 -29 -36.5 -59t-37.5 -61q-20 -31 -38.5 -61.5t-36.5 -59.5q-14 -22 -26.5 -42t-23.5 -39q-7 -11 -11 -28t-4 -30v-215q0 -13 -9 -22t-22 -9h-79q-13 0 -21.5 9t-8.5 22v215q0 13 -4.5 30t-11.5 28q-29 51 -59.5 100.5
t-62.5 99.5q-33 51 -64 100.5t-60 100.5q-7 11 -2.5 18.5t17.5 7.5h102q13 0 26.5 -7.5t19.5 -18.5l38 -64t39 -65q19 -33 38 -65l38 -64q6 -11 15.5 -11t16.5 11q7 12 14.5 24t15.5 25l48 81q12 20 23.5 40t23.5 40q8 12 15 24l14 24q6 11 19.5 18.5t26.5 7.5h102
q13 0 17 -7.5t-2 -18.5zM401 906l60 -26q11 -5 12.5 -13.5t-9.5 -16.5l-93 -70q-10 -8 -20 -10.5t-22 -2.5h-42q-13 0 -16.5 7t4.5 17l84 108q8 10 19.5 11t22.5 -4z" />
    <glyph glyph-name="oslash" unicode="&#xf8;" 
d="M125 -3l-30 26q-10 8 -10.5 20.5t7.5 22.5l24 27q8 10 8.5 23t-7.5 24q-30 40 -50 91q-24 63 -24 135q0 77 30 148q30 68 81 121q53 51 121 81q69 30 147 30q58 0 112 -17q38 -12 74 -32q11 -6 24.5 -4t21.5 11l21 24q8 10 20.5 10.5t22.5 -7.5l30 -27q9 -8 10 -20.5
t-8 -22.5l-21 -24q-8 -10 -8.5 -23t7.5 -24q31 -42 49 -90q25 -62 25 -134q0 -79 -30 -148q-30 -70 -82 -120q-50 -52 -120 -82q-69 -30 -148 -30q-58 0 -112 17q-20 5 -37.5 13t-34.5 17q-11 6 -24.5 4.5t-22.5 -11.5l-23 -26q-8 -10 -21 -10.5t-22 7.5zM329 595
q-43 -21 -76 -55q-16 -17 -29 -36.5t-22 -42.5q-19 -45 -19 -95q0 -40 12 -77q4 -11 8 -21.5t10 -20.5q6 -11 17 -12t19 9l275 312q9 10 7 21.5t-13 16.5q-45 21 -95 21q-49 0 -94 -20zM515 137q44 20 76 55q32 34 52 79q19 47 19 95q0 38 -12 76q-4 11 -8 21t-9 20
q-6 11 -17 12t-20 -9l-275 -312q-8 -10 -6.5 -21t13.5 -17q8 -3 15 -6t15 -5q31 -9 64 -9q49 0 93 21z" />
    <glyph glyph-name="zcaron" unicode="&#x17e;" horiz-adv-x="702" 
d="M297 130h333q13 0 22 -9t9 -22v-68q0 -13 -9 -22t-22 -9h-590q-13 0 -17 13t4 24l385 540q8 11 4 18t-17 7h-317q-12 0 -21 9t-9 22v67q0 13 9 22t21 9h573q13 0 17 -13t-4 -24l-384 -539q-7 -11 -3 -18t16 -7zM389 768h-76q-13 0 -22 7t-17 17l-85 106q-8 10 -4.5 16.5
t16.5 6.5h60q13 0 23.5 -6t19.5 -15l27 -27q9 -9 21.5 -9t21.5 10l25 26q9 9 18.5 15.5t22.5 6.5h61q13 0 16.5 -6.5t-4.5 -17.5l-84 -105q-8 -11 -17.5 -18t-22.5 -7z" />
    <glyph glyph-name="agrave" unicode="&#xe0;" horiz-adv-x="774" 
d="M20 27l347 693q6 12 20 12t20 -12l347 -693q6 -11 1.5 -19t-17.5 -8h-91q-13 0 -26 8t-18 20l-30 60q-6 11 -18.5 19t-25.5 8h-284q-13 0 -26 -8t-18 -20l-29 -59q-6 -12 -18.5 -20t-25.5 -8h-91q-13 0 -17.5 8t0.5 19zM313 237h148q13 0 17.5 8.5t-0.5 19.5l-78 165
q-5 12 -13 12t-13 -12l-79 -165q-5 -12 0 -20t18 -8zM288 906q11 5 22.5 4t19.5 -11l84 -108q8 -10 4.5 -17t-16.5 -7h-42q-12 0 -22 2.5t-20 10.5l-93 70q-11 8 -9.5 16.5t12.5 13.5z" />
    <glyph glyph-name="aacute" unicode="&#xe1;" horiz-adv-x="774" 
d="M20 27l347 693q6 12 20 12t20 -12l347 -693q6 -11 1.5 -19t-17.5 -8h-91q-13 0 -26 8t-18 20l-30 60q-6 11 -18.5 19t-25.5 8h-284q-13 0 -26 -8t-18 -20l-29 -59q-6 -12 -18.5 -20t-25.5 -8h-91q-13 0 -17.5 8t0.5 19zM313 237h148q13 0 17.5 8.5t-0.5 19.5l-78 165
q-5 12 -13 12t-13 -12l-79 -165q-5 -12 0 -20t18 -8zM485 906l60 -26q11 -5 12.5 -13.5t-9.5 -16.5l-93 -70q-10 -8 -20 -10.5t-22 -2.5h-42q-13 0 -16.5 7t4.5 17l84 108q8 10 19.5 11t22.5 -4z" />
    <glyph glyph-name="acircumflex" unicode="&#xe2;" horiz-adv-x="774" 
d="M20 27l347 693q6 12 20 12t20 -12l347 -693q6 -11 1.5 -19t-17.5 -8h-91q-13 0 -26 8t-18 20l-30 60q-6 11 -18.5 19t-25.5 8h-284q-13 0 -26 -8t-18 -20l-29 -59q-6 -12 -18.5 -20t-25.5 -8h-91q-13 0 -17.5 8t0.5 19zM313 237h148q13 0 17.5 8.5t-0.5 19.5l-78 165
q-5 12 -13 12t-13 -12l-79 -165q-5 -12 0 -20t18 -8zM348 919h76q13 0 22.5 -7t17.5 -17l84 -105q8 -10 5 -17t-16 -7h-61q-13 0 -23 6.5t-19 15.5l-28 27q-9 8 -21.5 8t-21.5 -9l-24 -27q-9 -9 -19 -15.5t-23 -6.5h-61q-13 0 -16.5 7t4.5 17l84 106q8 10 17.5 17t22.5 7z
" />
    <glyph glyph-name="atilde" unicode="&#xe3;" horiz-adv-x="774" 
d="M20 27l347 693q6 12 20 12t20 -12l347 -693q6 -11 1.5 -19t-17.5 -8h-91q-13 0 -26 8t-18 20l-30 60q-6 11 -18.5 19t-25.5 8h-284q-13 0 -26 -8t-18 -20l-29 -59q-6 -12 -18.5 -20t-25.5 -8h-91q-13 0 -17.5 8t0.5 19zM313 237h148q13 0 17.5 8.5t-0.5 19.5l-78 165
q-5 12 -13 12t-13 -12l-79 -165q-5 -12 0 -20t18 -8zM401 778q-6 3 -14 9.5t-18 12.5t-21.5 10t-23.5 4q-20 -1 -29 -13t-14 -20q-3 -5 -9.5 -9t-19.5 0l-35 12q-13 4 -17 10.5t-1 14.5q2 5 4 9t4 9q14 35 43 56t66 21q31 0 48.5 -8t31 -17.5t26.5 -18t35 -8.5
q14 -1 24.5 4.5t23.5 22.5q4 5 11 8t19 -1l36 -14q12 -5 14.5 -12.5t-0.5 -15.5q-2 -3 -2.5 -4l-2.5 -5q-7 -16 -22 -32q-20 -23 -44 -35q-6 -3 -18 -6t-28 -3t-33.5 4t-33.5 15z" />
    <glyph glyph-name="adieresis" unicode="&#xe4;" horiz-adv-x="774" 
d="M20 27l347 693q6 12 20 12t20 -12l347 -693q6 -11 1.5 -19t-17.5 -8h-91q-13 0 -26 8t-18 20l-30 60q-6 11 -18.5 19t-25.5 8h-284q-13 0 -26 -8t-18 -20l-29 -59q-6 -12 -18.5 -20t-25.5 -8h-91q-13 0 -17.5 8t0.5 19zM313 237h148q13 0 17.5 8.5t-0.5 19.5l-78 165
q-5 12 -13 12t-13 -12l-79 -165q-5 -12 0 -20t18 -8zM217 834q0 29 20 48.5t49 19.5t48 -19.5t19 -48.5t-19 -48t-48 -19t-49 19t-20 48zM421 834q0 29 19.5 48.5t48.5 19.5t48.5 -19.5t19.5 -48.5t-19.5 -48t-48.5 -19t-48.5 19t-19.5 48z" />
    <glyph glyph-name="aring" unicode="&#xe5;" horiz-adv-x="774" 
d="M20 27l337 674q-34 10 -56 38t-22 66q0 22 8.5 41.5t23 34t34 23t42.5 8.5q22 0 41.5 -8.5t34 -23t23 -34t8.5 -41.5q0 -38 -22 -66t-56 -38l338 -674q6 -11 1.5 -19t-17.5 -8h-91q-13 0 -26 8t-18 20l-30 60q-6 11 -18.5 19t-25.5 8h-284q-13 0 -26 -8t-18 -20l-29 -59
q-6 -12 -18.5 -20t-25.5 -8h-91q-13 0 -17.5 8t0.5 19zM313 237h148q13 0 17.5 8.5t-0.5 19.5l-78 165q-5 12 -13 12t-13 -12l-79 -165q-5 -12 0 -20t18 -8zM387 845q-17 0 -29 -11.5t-12 -28.5t12 -29t29 -12t28.5 12t11.5 29t-11.5 28.5t-28.5 11.5z" />
    <glyph glyph-name="egrave" unicode="&#xe8;" horiz-adv-x="683" 
d="M220 577v-121q0 -13 9 -22t22 -9h292q13 0 22 -9t9 -22v-65q0 -13 -9 -22t-22 -9h-292q-13 0 -22 -9t-9 -22v-110q0 -13 9 -22t22 -9h337q13 0 22 -9t9 -22v-64q0 -13 -9 -22t-22 -9h-477q-13 0 -22 9t-9 22v670q0 13 9 22t22 9h477q13 0 22 -9t9 -22v-62q0 -13 -9 -22
t-22 -9h-337q-13 0 -22 -9t-9 -22zM293 906q11 5 22.5 4t19.5 -11l84 -108q8 -10 4.5 -17t-16.5 -7h-42q-12 0 -22 2.5t-20 10.5l-93 70q-11 8 -9.5 16.5t12.5 13.5z" />
    <glyph glyph-name="eacute" unicode="&#xe9;" horiz-adv-x="683" 
d="M220 577v-121q0 -13 9 -22t22 -9h292q13 0 22 -9t9 -22v-65q0 -13 -9 -22t-22 -9h-292q-13 0 -22 -9t-9 -22v-110q0 -13 9 -22t22 -9h337q13 0 22 -9t9 -22v-64q0 -13 -9 -22t-22 -9h-477q-13 0 -22 9t-9 22v670q0 13 9 22t22 9h477q13 0 22 -9t9 -22v-62q0 -13 -9 -22
t-22 -9h-337q-13 0 -22 -9t-9 -22zM401 906l60 -26q11 -5 12.5 -13.5t-9.5 -16.5l-93 -70q-10 -8 -20 -10.5t-22 -2.5h-42q-13 0 -16.5 7t4.5 17l84 108q8 10 19.5 11t22.5 -4z" />
    <glyph glyph-name="ecircumflex" unicode="&#xea;" horiz-adv-x="683" 
d="M220 577v-121q0 -13 9 -22t22 -9h292q13 0 22 -9t9 -22v-65q0 -13 -9 -22t-22 -9h-292q-13 0 -22 -9t-9 -22v-110q0 -13 9 -22t22 -9h337q13 0 22 -9t9 -22v-64q0 -13 -9 -22t-22 -9h-477q-13 0 -22 9t-9 22v670q0 13 9 22t22 9h477q13 0 22 -9t9 -22v-62q0 -13 -9 -22
t-22 -9h-337q-13 0 -22 -9t-9 -22zM312 919h76q13 0 22.5 -7t17.5 -17l84 -105q8 -10 5 -17t-16 -7h-61q-13 0 -23 6.5t-19 15.5l-28 27q-9 8 -21.5 8t-21.5 -9l-24 -27q-9 -9 -19 -15.5t-23 -6.5h-61q-13 0 -16.5 7t4.5 17l84 106q8 10 17.5 17t22.5 7z" />
    <glyph glyph-name="edieresis" unicode="&#xeb;" horiz-adv-x="683" 
d="M220 577v-121q0 -13 9 -22t22 -9h292q13 0 22 -9t9 -22v-65q0 -13 -9 -22t-22 -9h-292q-13 0 -22 -9t-9 -22v-110q0 -13 9 -22t22 -9h337q13 0 22 -9t9 -22v-64q0 -13 -9 -22t-22 -9h-477q-13 0 -22 9t-9 22v670q0 13 9 22t22 9h477q13 0 22 -9t9 -22v-62q0 -13 -9 -22
t-22 -9h-337q-13 0 -22 -9t-9 -22zM182 844q0 29 20 48.5t49 19.5t48 -19.5t19 -48.5t-19 -48t-48 -19t-49 19t-20 48zM386 844q0 29 19.5 48.5t48.5 19.5t48.5 -19.5t19.5 -48.5t-19.5 -48t-48.5 -19t-48.5 19t-19.5 48z" />
    <glyph glyph-name="igrave" unicode="&#xec;" horiz-adv-x="340" 
d="M209 0h-79q-13 0 -21.5 9t-8.5 22v669q0 13 8.5 22t21.5 9h79q13 0 22 -9t9 -22v-669q0 -13 -9 -22t-22 -9zM93 906q11 5 22.5 4t19.5 -11l84 -108q8 -10 4.5 -17t-16.5 -7h-42q-12 0 -22 2.5t-20 10.5l-93 70q-11 8 -9.5 16.5t12.5 13.5z" />
    <glyph glyph-name="iacute" unicode="&#xed;" horiz-adv-x="340" 
d="M209 0h-79q-13 0 -21.5 9t-8.5 22v669q0 13 8.5 22t21.5 9h79q13 0 22 -9t9 -22v-669q0 -13 -9 -22t-22 -9zM245 906l60 -26q11 -5 12.5 -13.5t-9.5 -16.5l-93 -70q-10 -8 -20 -10.5t-22 -2.5h-42q-13 0 -16.5 7t4.5 17l84 108q8 10 19.5 11t22.5 -4z" />
    <glyph glyph-name="icircumflex" unicode="&#xee;" horiz-adv-x="340" 
d="M209 0h-79q-13 0 -21.5 9t-8.5 22v669q0 13 8.5 22t21.5 9h79q13 0 22 -9t9 -22v-669q0 -13 -9 -22t-22 -9zM132 919h76q13 0 22.5 -7t17.5 -17l84 -105q8 -10 5 -17t-16 -7h-61q-13 0 -23 6.5t-19 15.5l-28 27q-9 8 -21.5 8t-21.5 -9l-24 -27q-9 -9 -19 -15.5t-23 -6.5
h-61q-13 0 -16.5 7t4.5 17l84 106q8 10 17.5 17t22.5 7z" />
    <glyph glyph-name="idieresis" unicode="&#xef;" horiz-adv-x="340" 
d="M209 0h-79q-13 0 -21.5 9t-8.5 22v669q0 13 8.5 22t21.5 9h79q13 0 22 -9t9 -22v-669q0 -13 -9 -22t-22 -9zM0 844q0 29 20 48.5t49 19.5t48 -19.5t19 -48.5t-19 -48t-48 -19t-49 19t-20 48zM204 844q0 29 19.5 48.5t48.5 19.5t48.5 -19.5t19.5 -48.5t-19.5 -48
t-48.5 -19t-48.5 19t-19.5 48z" />
    <glyph glyph-name="ntilde" unicode="&#xf1;" horiz-adv-x="796" 
d="M220 404v-373q0 -13 -9 -22t-22 -9h-79q-12 0 -21 9t-9 22v684q0 13 12.5 15.5t21.5 -5.5l439 -415q10 -9 16.5 -6t6.5 16v380q0 13 9 22t22 9h78q13 0 22 -9t9 -22v-683q0 -13 -12.5 -15.5t-22.5 5.5l-438 408q-10 8 -16.5 5t-6.5 -16zM394 778q-6 3 -14 9.5t-18 12.5
t-21.5 10t-23.5 4q-20 -1 -29 -13t-14 -20q-3 -5 -9.5 -9t-19.5 0l-35 12q-13 4 -17 10.5t-1 14.5q2 5 4 9t4 9q14 35 43 56t66 21q31 0 48.5 -8t31 -17.5t26.5 -18t35 -8.5q14 -1 24.5 4.5t23.5 22.5q4 5 11 8t19 -1l36 -14q12 -5 14.5 -12.5t-0.5 -15.5q-2 -3 -2.5 -4
l-2.5 -5q-7 -16 -22 -32q-20 -23 -44 -35q-6 -3 -18 -6t-28 -3t-33.5 4t-33.5 15z" />
    <glyph glyph-name="ograve" unicode="&#xf2;" 
d="M422 -14q-78 0 -147 30t-120.5 81.5t-81.5 120.5t-30 148q0 78 30 147.5t81.5 121t120.5 81.5t147 30q79 0 148 -30t120.5 -81.5t81.5 -121t30 -147.5q0 -79 -30 -148t-81.5 -120.5t-120.5 -81.5t-148 -30zM422 615q-50 0 -93.5 -20.5t-76 -54.5t-51.5 -79.5t-19 -94.5
q0 -50 19 -95t51.5 -79.5t76 -55t93.5 -20.5t93.5 20.5t76 55t51.5 79.5t19 95q0 49 -19 94.5t-51.5 79.5t-76 54.5t-93.5 20.5zM354 906q11 5 22.5 4t19.5 -11l84 -108q8 -10 4.5 -17t-16.5 -7h-42q-12 0 -22 2.5t-20 10.5l-93 70q-11 8 -9.5 16.5t12.5 13.5z" />
    <glyph glyph-name="oacute" unicode="&#xf3;" 
d="M422 -14q-78 0 -147 30t-120.5 81.5t-81.5 120.5t-30 148q0 78 30 147.5t81.5 121t120.5 81.5t147 30q79 0 148 -30t120.5 -81.5t81.5 -121t30 -147.5q0 -79 -30 -148t-81.5 -120.5t-120.5 -81.5t-148 -30zM422 615q-50 0 -93.5 -20.5t-76 -54.5t-51.5 -79.5t-19 -94.5
q0 -50 19 -95t51.5 -79.5t76 -55t93.5 -20.5t93.5 20.5t76 55t51.5 79.5t19 95q0 49 -19 94.5t-51.5 79.5t-76 54.5t-93.5 20.5zM481 906l60 -26q11 -5 12.5 -13.5t-9.5 -16.5l-93 -70q-10 -8 -20 -10.5t-22 -2.5h-42q-13 0 -16.5 7t4.5 17l84 108q8 10 19.5 11t22.5 -4z
" />
    <glyph glyph-name="ocircumflex" unicode="&#xf4;" 
d="M422 -14q-78 0 -147 30t-120.5 81.5t-81.5 120.5t-30 148q0 78 30 147.5t81.5 121t120.5 81.5t147 30q79 0 148 -30t120.5 -81.5t81.5 -121t30 -147.5q0 -79 -30 -148t-81.5 -120.5t-120.5 -81.5t-148 -30zM422 615q-50 0 -93.5 -20.5t-76 -54.5t-51.5 -79.5t-19 -94.5
q0 -50 19 -95t51.5 -79.5t76 -55t93.5 -20.5t93.5 20.5t76 55t51.5 79.5t19 95q0 49 -19 94.5t-51.5 79.5t-76 54.5t-93.5 20.5zM385 919h76q13 0 22.5 -7t17.5 -17l84 -105q8 -10 5 -17t-16 -7h-61q-13 0 -23 6.5t-19 15.5l-28 27q-9 8 -21.5 8t-21.5 -9l-24 -27
q-9 -9 -19 -15.5t-23 -6.5h-61q-13 0 -16.5 7t4.5 17l84 106q8 10 17.5 17t22.5 7z" />
    <glyph glyph-name="otilde" unicode="&#xf5;" 
d="M422 -14q-78 0 -147 30t-120.5 81.5t-81.5 120.5t-30 148q0 78 30 147.5t81.5 121t120.5 81.5t147 30q79 0 148 -30t120.5 -81.5t81.5 -121t30 -147.5q0 -79 -30 -148t-81.5 -120.5t-120.5 -81.5t-148 -30zM422 615q-50 0 -93.5 -20.5t-76 -54.5t-51.5 -79.5t-19 -94.5
q0 -50 19 -95t51.5 -79.5t76 -55t93.5 -20.5t93.5 20.5t76 55t51.5 79.5t19 95q0 49 -19 94.5t-51.5 79.5t-76 54.5t-93.5 20.5zM430 778q-6 3 -14 9.5t-18 12.5t-21.5 10t-23.5 4q-20 -1 -29 -13t-14 -20q-3 -5 -9.5 -9t-19.5 0l-35 12q-13 4 -17 10.5t-1 14.5q2 5 4 9t4 9
q14 35 43 56t66 21q31 0 48.5 -8t31 -17.5t26.5 -18t35 -8.5q14 -1 24.5 4.5t23.5 22.5q4 5 11 8t19 -1l36 -14q12 -5 14.5 -12.5t-0.5 -15.5q-2 -3 -2.5 -4l-2.5 -5q-7 -16 -22 -32q-20 -23 -44 -35q-6 -3 -18 -6t-28 -3t-33.5 4t-33.5 15z" />
    <glyph glyph-name="odieresis" unicode="&#xf6;" 
d="M422 -14q-78 0 -147 30t-120.5 81.5t-81.5 120.5t-30 148q0 78 30 147.5t81.5 121t120.5 81.5t147 30q79 0 148 -30t120.5 -81.5t81.5 -121t30 -147.5q0 -79 -30 -148t-81.5 -120.5t-120.5 -81.5t-148 -30zM422 615q-50 0 -93.5 -20.5t-76 -54.5t-51.5 -79.5t-19 -94.5
q0 -50 19 -95t51.5 -79.5t76 -55t93.5 -20.5t93.5 20.5t76 55t51.5 79.5t19 95q0 49 -19 94.5t-51.5 79.5t-76 54.5t-93.5 20.5zM252 844q0 29 20 48.5t49 19.5t48 -19.5t19 -48.5t-19 -48t-48 -19t-49 19t-20 48zM456 844q0 29 19.5 48.5t48.5 19.5t48.5 -19.5t19.5 -48.5
t-19.5 -48t-48.5 -19t-48.5 19t-19.5 48z" />
    <glyph glyph-name="ugrave" unicode="&#xf9;" horiz-adv-x="788" 
d="M265 9q-60 23 -99 62q-42 40 -64 97q-22 56 -22 127v405q0 13 9 22t21 9h79q13 0 22 -9t9 -22v-404q0 -55 18 -91q18 -35 44 -57q28 -22 57 -29q16 -4 29.5 -6t25.5 -2q22 0 54 8q31 7 57 29q27 21 45 57t18 91v404q0 13 9 22t22 9h78q13 0 22 -9t9 -22v-405
q0 -35 -5.5 -66.5t-16.5 -60.5q-22 -56 -63 -97q-40 -39 -99 -62q-57 -22 -130 -22t-129 22zM327 906q11 5 22.5 4t19.5 -11l84 -108q8 -10 4.5 -17t-16.5 -7h-42q-12 0 -22 2.5t-20 10.5l-93 70q-11 8 -9.5 16.5t12.5 13.5z" />
    <glyph glyph-name="uacute" unicode="&#xfa;" horiz-adv-x="788" 
d="M265 9q-60 23 -99 62q-42 40 -64 97q-22 56 -22 127v405q0 13 9 22t21 9h79q13 0 22 -9t9 -22v-404q0 -55 18 -91q18 -35 44 -57q28 -22 57 -29q16 -4 29.5 -6t25.5 -2q22 0 54 8q31 7 57 29q27 21 45 57t18 91v404q0 13 9 22t22 9h78q13 0 22 -9t9 -22v-405
q0 -35 -5.5 -66.5t-16.5 -60.5q-22 -56 -63 -97q-40 -39 -99 -62q-57 -22 -130 -22t-129 22zM461 906l60 -26q11 -5 12.5 -13.5t-9.5 -16.5l-93 -70q-10 -8 -20 -10.5t-22 -2.5h-42q-13 0 -16.5 7t4.5 17l84 108q8 10 19.5 11t22.5 -4z" />
    <glyph glyph-name="ucircumflex" unicode="&#xfb;" horiz-adv-x="788" 
d="M265 9q-60 23 -99 62q-42 40 -64 97q-22 56 -22 127v405q0 13 9 22t21 9h79q13 0 22 -9t9 -22v-404q0 -55 18 -91q18 -35 44 -57q28 -22 57 -29q16 -4 29.5 -6t25.5 -2q22 0 54 8q31 7 57 29q27 21 45 57t18 91v404q0 13 9 22t22 9h78q13 0 22 -9t9 -22v-405
q0 -35 -5.5 -66.5t-16.5 -60.5q-22 -56 -63 -97q-40 -39 -99 -62q-57 -22 -130 -22t-129 22zM354 919h76q13 0 22.5 -7t17.5 -17l84 -105q8 -10 5 -17t-16 -7h-61q-13 0 -23 6.5t-19 15.5l-28 27q-9 8 -21.5 8t-21.5 -9l-24 -27q-9 -9 -19 -15.5t-23 -6.5h-61q-13 0 -16.5 7
t4.5 17l84 106q8 10 17.5 17t22.5 7z" />
    <glyph glyph-name="udieresis" unicode="&#xfc;" horiz-adv-x="788" 
d="M265 9q-60 23 -99 62q-42 40 -64 97q-22 56 -22 127v405q0 13 9 22t21 9h79q13 0 22 -9t9 -22v-404q0 -55 18 -91q18 -35 44 -57q28 -22 57 -29q16 -4 29.5 -6t25.5 -2q22 0 54 8q31 7 57 29q27 21 45 57t18 91v404q0 13 9 22t22 9h78q13 0 22 -9t9 -22v-405
q0 -35 -5.5 -66.5t-16.5 -60.5q-22 -56 -63 -97q-40 -39 -99 -62q-57 -22 -130 -22t-129 22zM224 844q0 29 20 48.5t49 19.5t48 -19.5t19 -48.5t-19 -48t-48 -19t-49 19t-20 48zM428 844q0 29 19.5 48.5t48.5 19.5t48.5 -19.5t19.5 -48.5t-19.5 -48t-48.5 -19t-48.5 19
t-19.5 48z" />
    <glyph glyph-name="yacute" unicode="&#xfd;" horiz-adv-x="709" 
d="M688 705q-11 -18 -23 -37.5t-26 -41.5q-18 -29 -36.5 -59t-37.5 -61q-20 -31 -38.5 -61.5t-36.5 -59.5q-14 -22 -26.5 -42t-23.5 -39q-7 -11 -11 -28t-4 -30v-215q0 -13 -9 -22t-22 -9h-79q-13 0 -21.5 9t-8.5 22v215q0 13 -4.5 30t-11.5 28q-29 51 -59.5 100.5
t-62.5 99.5q-33 51 -64 100.5t-60 100.5q-7 11 -2.5 18.5t17.5 7.5h102q13 0 26.5 -7.5t19.5 -18.5l38 -64t39 -65q19 -33 38 -65l38 -64q6 -11 15.5 -11t16.5 11q7 12 14.5 24t15.5 25l48 81q12 20 23.5 40t23.5 40q8 12 15 24l14 24q6 11 19.5 18.5t26.5 7.5h102
q13 0 17 -7.5t-2 -18.5zM401 906l60 -26q11 -5 12.5 -13.5t-9.5 -16.5l-93 -70q-10 -8 -20 -10.5t-22 -2.5h-42q-13 0 -16.5 7t4.5 17l84 108q8 10 19.5 11t22.5 -4z" />
    <glyph glyph-name="ydieresis" unicode="&#xff;" horiz-adv-x="709" 
d="M688 705q-11 -18 -23 -37.5t-26 -41.5q-18 -29 -36.5 -59t-37.5 -61q-20 -31 -38.5 -61.5t-36.5 -59.5q-14 -22 -26.5 -42t-23.5 -39q-7 -11 -11 -28t-4 -30v-215q0 -13 -9 -22t-22 -9h-79q-13 0 -21.5 9t-8.5 22v215q0 13 -4.5 30t-11.5 28q-29 51 -59.5 100.5
t-62.5 99.5q-33 51 -64 100.5t-60 100.5q-7 11 -2.5 18.5t17.5 7.5h102q13 0 26.5 -7.5t19.5 -18.5l38 -64t39 -65q19 -33 38 -65l38 -64q6 -11 15.5 -11t16.5 11q7 12 14.5 24t15.5 25l48 81q12 20 23.5 40t23.5 40q8 12 15 24l14 24q6 11 19.5 18.5t26.5 7.5h102
q13 0 17 -7.5t-2 -18.5zM187 840q0 29 20 48.5t49 19.5t48 -19.5t19 -48.5t-19 -48t-48 -19t-49 19t-20 48zM391 840q0 29 19.5 48.5t48.5 19.5t48.5 -19.5t19.5 -48.5t-19.5 -48t-48.5 -19t-48.5 19t-19.5 48z" />
    <glyph glyph-name="ccedilla" unicode="&#xe7;" horiz-adv-x="778" 
d="M523 -121q-3 -31 -16 -47q-15 -18 -30 -25q-29 -13 -54.5 -10.5t-37.5 4.5q-8 2 -18.5 6t-15.5 7q-10 6 -7 21q1 3 4 9.5t4 8.5q6 11 11 13.5t13 -2.5q3 -2 7 -2.5t10 -2.5q15 -3 28 -1.5t21 6.5q11 6 11 19t-13 20q-9 6 -18.5 6.5t-18 -1.5t-14.5 -4.5t-7 -3.5
q-6 -2 -13 -0.5t-9 6.5q-5 7 4 40l10 36q2 7 -7 8q-49 6 -95 26q-69 30 -121 82q-51 51 -81 120t-30 147t30 147q30 68 81 121q53 51 121 81q69 30 147 30q51 0 102 -14q50 -14 92 -39q22 -13 41.5 -28.5t36.5 -32.5q25 -26 43 -53q7 -11 3 -21.5t-16 -15.5l-74 -30
q-11 -5 -24.5 -1.5t-21.5 13.5l-20 21q-11 11 -22.5 20t-24.5 17t-27 14t-28 11q-29 9 -60 9q-49 0 -94 -20q-44 -21 -75 -55q-32 -35 -51 -79q-19 -45 -19 -95q0 -51 19 -95t51 -79q31 -35 75 -54q43 -21 94 -21q31 0 60 9q14 5 28 11t27 14t24.5 17.5t22.5 20.5l20 21
q8 10 21.5 14t24.5 -1l74 -30q12 -5 16 -16t-3 -22q-10 -14 -20.5 -27.5t-22.5 -25.5q-33 -35 -78 -61q-21 -13 -44 -23t-48 -17q-18 -5 -36.5 -8t-37.5 -5q-6 -2 -7 -7q-4 -14 -1.5 -15.5t4.5 -1.5q6 1 13.5 -0.5t15.5 -3.5q54 -19 51 -80z" />
    <glyph glyph-name="scaron" unicode="&#x161;" horiz-adv-x="680" 
d="M68 121l42 62q7 11 19 13t23 -5q45 -28 88 -48q57 -28 123 -28q34 0 60 9q24 7 44 22q18 14 27 31q9 16 9 34q0 21 -14 38q-13 14 -36 25q-11 5 -24 9t-29 8q-15 4 -30.5 7t-32.5 6q-11 2 -24 4.5t-27 5.5q-29 4 -60 15q-32 9 -61 25q-30 15 -54 39q-24 22 -39 56
q-14 33 -14 76q0 63 26 107q25 41 66 67q39 23 90 34q47 10 96 10q46 0 82 -6q18 -3 34.5 -7.5t32.5 -9.5q16 -6 31 -13.5t29 -15.5q10 -6 19 -12t20 -12q11 -8 13 -20t-6 -23l-42 -60q-8 -11 -20.5 -13t-23.5 5q-39 25 -74 38q-47 19 -101 19q-9 0 -19.5 -1t-21.5 -3
q-23 -5 -44 -15q-10 -5 -18.5 -11t-15.5 -14q-13 -16 -13 -38t16 -37t41 -25q13 -5 26.5 -9t28.5 -8t29.5 -7t28.5 -7q11 -2 23 -5t26 -5t29 -5.5t30 -8.5q8 -2 16.5 -5t16.5 -6q12 -5 27.5 -13t26.5 -16q8 -5 14.5 -10.5t12.5 -11.5q25 -25 38 -58q15 -35 15 -84
q0 -56 -20 -99q-20 -42 -57 -69q-38 -29 -88 -42q-53 -14 -113 -14q-58 0 -101 9q-41 7 -79 23q-18 7 -35 15.5t-33 18.5q-10 6 -20 12.5t-21 14.5q-11 7 -13 19t5 23zM378 768h-76q-13 0 -22 7t-17 17l-85 106q-8 10 -4.5 16.5t16.5 6.5h60q13 0 23.5 -6t19.5 -15l27 -27
q9 -9 21.5 -9t21.5 10l25 26q9 9 18.5 15.5t22.5 6.5h61q13 0 16.5 -6.5t-4.5 -17.5l-84 -105q-8 -11 -17.5 -18t-22.5 -7z" />
    <glyph glyph-name="Thorn" unicode="&#xde;" horiz-adv-x="711" 
d="M507 605q24 -11 44.5 -25t38.5 -31q17 -18 31 -38.5t25 -44.5q20 -48 20 -100q0 -53 -20 -101q-11 -24 -25 -44.5t-31 -38.5q-18 -17 -38.5 -31t-44.5 -24q-47 -21 -101 -21h-155q-13 0 -22 -9t-9 -22v-44q0 -13 -8.5 -22t-21.5 -9h-79q-13 0 -22 9t-9 22v670q0 13 9 22
t22 9h79q13 0 21.5 -9t8.5 -22v-45q0 -13 9 -22t22 -9h155q53 0 101 -20zM453 242q20 11 38 31q15 18 26 43q9 24 9 50q0 25 -9 49q-11 25 -26 43t-38 31q-23 12 -47 12h-155q-13 0 -22 -9t-9 -22v-209q0 -13 9 -22t22 -9h155q24 0 47 12z" />
    <glyph glyph-name="thorn" unicode="&#xfe;" horiz-adv-x="711" 
d="M507 605q24 -11 44.5 -25t38.5 -31q17 -18 31 -38.5t25 -44.5q20 -48 20 -100q0 -53 -20 -101q-11 -24 -25 -44.5t-31 -38.5q-18 -17 -38.5 -31t-44.5 -24q-47 -21 -101 -21h-155q-13 0 -22 -9t-9 -22v-44q0 -13 -8.5 -22t-21.5 -9h-79q-13 0 -22 9t-9 22v670q0 13 9 22
t22 9h79q13 0 21.5 -9t8.5 -22v-45q0 -13 9 -22t22 -9h155q53 0 101 -20zM453 242q20 11 38 31q15 18 26 43q9 24 9 50q0 25 -9 49q-11 25 -26 43t-38 31q-23 12 -47 12h-155q-13 0 -22 -9t-9 -22v-209q0 -13 9 -22t22 -9h155q24 0 47 12z" />
    <glyph glyph-name="Eth" unicode="&#xd0;" horiz-adv-x="816" 
d="M142 0q-13 0 -22 9t-9 22v239q0 13 -8.5 22t-21.5 9h-20q-13 0 -22 9t-9 22v62q0 13 9 22t22 9h20q13 0 21.5 9t8.5 22v245q0 13 9 22t22 9h258q155 0 258 -92q26 -25 46.5 -54t34.5 -64q27 -71 27 -156q0 -87 -27 -156q-14 -35 -34.5 -64.5t-46.5 -54.5
q-51 -46 -115 -68q-66 -23 -143 -23h-258zM347 301h-65q-13 0 -22 -9t-9 -22v-115q0 -13 9 -22t22 -9h118q40 0 79 9q40 9 73 36q32 26 53 73q21 46 21 123q0 76 -21 124q-22 48 -54 73q-34 26 -73 35t-78 9h-118q-13 0 -22 -9t-9 -22v-119q0 -13 9 -22t22 -9h65
q13 0 21.5 -9t8.5 -22v-62q0 -13 -8.5 -22t-21.5 -9z" />
    <glyph glyph-name="eth" unicode="&#xf0;" horiz-adv-x="816" 
d="M142 0q-13 0 -22 9t-9 22v239q0 13 -8.5 22t-21.5 9h-20q-13 0 -22 9t-9 22v62q0 13 9 22t22 9h20q13 0 21.5 9t8.5 22v245q0 13 9 22t22 9h258q155 0 258 -92q26 -25 46.5 -54t34.5 -64q27 -71 27 -156q0 -87 -27 -156q-14 -35 -34.5 -64.5t-46.5 -54.5
q-51 -46 -115 -68q-66 -23 -143 -23h-258zM347 301h-65q-13 0 -22 -9t-9 -22v-115q0 -13 9 -22t22 -9h118q40 0 79 9q40 9 73 36q32 26 53 73q21 46 21 123q0 76 -21 124q-22 48 -54 73q-34 26 -73 35t-78 9h-118q-13 0 -22 -9t-9 -22v-119q0 -13 9 -22t22 -9h65
q13 0 21.5 -9t8.5 -22v-62q0 -13 -8.5 -22t-21.5 -9z" />
    <glyph glyph-name="Agrave" unicode="&#xc0;" horiz-adv-x="774" 
d="M20 27l347 693q6 12 20 12t20 -12l347 -693q6 -11 1.5 -19t-17.5 -8h-91q-13 0 -26 8t-18 20l-30 60q-6 11 -18.5 19t-25.5 8h-284q-13 0 -26 -8t-18 -20l-29 -59q-6 -12 -18.5 -20t-25.5 -8h-91q-13 0 -17.5 8t0.5 19zM313 237h148q13 0 17.5 8.5t-0.5 19.5l-78 165
q-5 12 -13 12t-13 -12l-79 -165q-5 -12 0 -20t18 -8zM288 906q11 5 22.5 4t19.5 -11l84 -108q8 -10 4.5 -17t-16.5 -7h-42q-12 0 -22 2.5t-20 10.5l-93 70q-11 8 -9.5 16.5t12.5 13.5z" />
    <glyph glyph-name="B" unicode="B" horiz-adv-x="695" 
d="M607 481q-10 -26 -24 -46q-15 -21 -38 -35q-10 -7 -23 -12q-10 -3 -9 -4.5t12 -4.5q14 -5 26 -10q26 -13 47 -37q22 -23 35 -53q13 -29 13 -63q0 -60 -18 -102q-19 -43 -49 -67q-30 -26 -72 -36q-21 -5 -43 -8t-46 -3h-307q-13 0 -22 9t-9 22v670q0 13 9 22t22 9h291
q23 0 43 -2t40 -6q41 -10 68 -32q30 -22 46 -62q17 -37 17 -101q0 -23 -9 -48zM251 434h141q21 0 37 8q14 7 26 21q10 12 16 30q5 14 5 33q0 16 -6 31q-7 17 -16 26q-9 10 -23 18q-13 7 -29 7h-151q-13 0 -22 -9t-9 -22v-112q0 -13 9 -22t22 -9zM452 133q15 7 28 23
q13 15 19 32q7 15 7 35q0 36 -27 62q-26 25 -76 25h-152q-13 0 -22 -9t-9 -22v-124q0 -13 9 -22t22 -9h167q19 0 34 9z" />
    <glyph glyph-name="C" unicode="C" horiz-adv-x="778" 
d="M734 154q-10 -14 -20.5 -27.5t-22.5 -25.5q-33 -35 -78 -61q-21 -13 -44 -23t-48 -17q-51 -14 -102 -14q-78 0 -147 30t-121 82q-51 51 -81 120t-30 147t30 147q30 68 81 121q53 51 121 81q69 30 147 30q51 0 102 -14q50 -14 92 -39q22 -13 41.5 -28.5t36.5 -32.5
q25 -26 43 -53q7 -11 3 -21.5t-16 -15.5l-74 -30q-11 -5 -24.5 -1.5t-21.5 13.5q-5 5 -10 10.5t-10 10.5q-11 11 -22.5 20t-24.5 17t-27 14t-28 11q-29 9 -60 9q-49 0 -94 -20q-44 -21 -75 -55q-32 -35 -51 -79q-19 -45 -19 -95q0 -51 19 -95t51 -79q31 -35 75 -54
q43 -21 94 -21q31 0 60 9q14 5 28 11t27 14t24.5 17.5t22.5 20.5q5 5 10 10.5t10 10.5q8 10 21.5 14t24.5 -1l74 -30q12 -5 16 -16t-3 -22z" />
  </font>
</defs>
</svg>
