<svg width="50" height="40" viewBox="0 0 50 40" fill="none" xmlns="http://www.w3.org/2000/svg">
<path d="M49.2201 4.73498C47.4093 5.53825 45.4629 6.0809 43.4205 6.32504C45.5052 5.07533 47.1066 3.09644 47.8604 0.738307C45.909 1.89572 43.748 2.7359 41.4477 3.18873C39.6059 1.22607 36.9815 0 34.077 0C28.5004 0 23.9788 4.52111 23.9788 10.0978C23.9788 10.8892 24.0681 11.66 24.2404 12.3991C15.8478 11.978 8.40721 7.95767 3.42663 1.84822C2.5574 3.33959 2.05929 5.07411 2.05929 6.92479C2.05929 10.4283 3.84204 13.5191 6.55161 15.3299C4.89634 15.2774 3.33926 14.8231 1.97783 14.0669C1.97668 14.109 1.97668 14.1513 1.97668 14.1939C1.97668 19.0863 5.45753 23.1674 10.0771 24.0957C9.22977 24.3266 8.33765 24.4499 7.41674 24.4499C6.76605 24.4499 6.13358 24.3864 5.51685 24.2687C6.80199 28.2804 10.5311 31.1999 14.9501 31.2811C11.4941 33.9897 7.14013 35.6041 2.40884 35.6041C1.59375 35.6041 0.789985 35.5562 0 35.4629C4.46895 38.3282 9.77685 40 15.4795 40C34.0535 40 44.2108 24.613 44.2108 11.2685C44.2108 10.8306 44.2009 10.3953 44.1815 9.96191C46.1542 8.53846 47.8661 6.76014 49.2199 4.73498H49.2201Z" fill="#60EBFF"/>
</svg>
