<svg width="58" height="40" viewBox="0 0 58 40" fill="none" xmlns="http://www.w3.org/2000/svg">
<path fill-rule="evenodd" clip-rule="evenodd" d="M50.9176 1.22353C53.3647 1.88235 55.2941 3.81176 55.9529 6.25882C57.1765 10.7294 57.1294 20.0471 57.1294 20.0471C57.1294 20.0471 57.1294 29.3176 55.9529 33.7882C55.2941 36.2353 53.3647 38.1647 50.9176 38.8235C46.4471 40 28.5647 40 28.5647 40C28.5647 40 10.7294 40 6.21176 38.7765C3.76471 38.1176 1.83529 36.1882 1.17647 33.7412C0 29.3176 0 20 0 20C0 20 0 10.7294 1.17647 6.25882C1.83529 3.81176 3.81176 1.83529 6.21176 1.17647C10.6824 0 28.5647 0 28.5647 0C28.5647 0 46.4471 0 50.9176 1.22353ZM37.741 19.9999L22.8704 28.5646V11.4352L37.741 19.9999Z" fill="#60EBFF"/>
</svg>
