<svg xmlns="http://www.w3.org/2000/svg" width="361" height="216" viewBox="0 0 361 216">
    <g fill="none" fill-rule="evenodd">
        <path stroke="#BCA9FF" stroke-width=".5" d="M312.263 204.708h-51.665V180.93h-45.034v-22.696h52.358v-43.367h-75.054"/>
        <path stroke="#BCA9FF" d="M183.15 92.532c0 6.535-5.297 11.832-11.831 11.832-6.535 0-11.832-5.297-11.832-11.832 0-6.534 5.297-11.832 11.832-11.832 6.534 0 11.832 5.298 11.832 11.832z"/>
        <path stroke="#BCA9FF" stroke-width="2" d="M112.35 162.968a6.459 6.459 0 1 1-12.918 0 6.459 6.459 0 0 1 12.917 0zM147.02 61.748a6.459 6.459 0 1 1-12.917-.001 6.459 6.459 0 0 1 12.918.001z"/>
        <path stroke="#BCA9FF" stroke-linecap="round" stroke-linejoin="round" stroke-width=".5" d="M93.658 137.17h11.937v25.798h20.803v-27.06h14.83V61.605H115.01v49.045M37.506 137.17h61.032"/>
        <path stroke="#BCA9FF" d="M153.172 135.907c0 6.535-5.298 11.833-11.832 11.833-6.535 0-11.833-5.298-11.833-11.833 0-6.534 5.298-11.832 11.833-11.832 6.534 0 11.832 5.298 11.832 11.832zM53.988 136.668c0 8.93-7.24 16.17-16.17 16.17-8.931 0-16.17-7.24-16.17-16.17 0-8.931 7.239-16.17 16.17-16.17 8.93 0 16.17 7.239 16.17 16.17z"/>
        <path fill="#BCA9FF" d="M107.613 162.968a1.722 1.722 0 1 1-3.443 0 1.722 1.722 0 0 1 3.443 0M173.04 135.907a1.722 1.722 0 1 1-3.444 0 1.722 1.722 0 0 1 3.444 0M194.59 135.269a1.722 1.722 0 1 1-3.445 0 1.722 1.722 0 0 1 3.445 0M117.314 110.49a2.282 2.282 0 1 1-4.563 0 2.282 2.282 0 0 1 4.563 0M117.314 61.748a2.282 2.282 0 1 1-4.563 0 2.282 2.282 0 0 1 4.563 0M142.808 61.748a2.282 2.282 0 1 1-4.564 0 2.282 2.282 0 0 1 4.564 0M143.295 135.907a2.283 2.283 0 1 1-4.566 0 2.283 2.283 0 0 1 4.566 0"/>
        <path fill="#A375FC" d="M194.07 197.67a1.722 1.722 0 1 1-2.435 2.435 1.722 1.722 0 0 1 2.436-2.435"/>
        <path stroke="#BCA9FF" d="M323.602 204.938c0 5.59-4.531 10.122-10.121 10.122-5.59 0-10.121-4.532-10.121-10.122s4.53-10.121 10.12-10.121c5.591 0 10.122 4.532 10.122 10.121z"/>
        <path fill="#A375FC" d="M314.698 203.894a1.722 1.722 0 1 1-2.436 2.435 1.722 1.722 0 0 1 2.436-2.435M261.411 180.123a1.722 1.722 0 1 1-2.436 2.436 1.722 1.722 0 0 1 2.436-2.436M269.14 157.524a1.722 1.722 0 1 1-2.436 2.435 1.722 1.722 0 0 1 2.436-2.435"/>
        <path fill="#BCA9FF" d="M195.15 114.22a2.282 2.282 0 1 1-4.564 0 2.282 2.282 0 0 1 4.565 0M173.673 92.532a2.282 2.282 0 1 1-4.565 0 2.282 2.282 0 0 1 4.565 0"/>
        <path stroke="#BCA9FF" stroke-linecap="round" stroke-linejoin="round" stroke-width=".5" d="M37.817 95.53v95.615H11.633"/>
        <path fill="#A375FC" d="M39.035 136.264a1.722 1.722 0 1 1-2.436 2.435 1.722 1.722 0 0 1 2.436-2.435"/>
        <path stroke="#BCA9FF" stroke-width="2" d="M43.964 95.53a6.459 6.459 0 1 1-12.917 0 6.459 6.459 0 0 1 12.917 0z"/>
        <path fill="#BCA9FF" d="M270.205 114.868a2.283 2.283 0 1 1-4.566 0 2.283 2.283 0 0 1 4.566 0"/>
        <path stroke="#BCA9FF" stroke-linecap="round" stroke-linejoin="round" stroke-width=".5" d="M37.506 95.53H12.23"/>
        <path fill="#A375FC" d="M39.035 94.313a1.722 1.722 0 1 1-2.436 2.435 1.722 1.722 0 0 1 2.436-2.435M11.416 94.313a1.722 1.722 0 1 1-2.436 2.435 1.722 1.722 0 0 1 2.436-2.435M14.067 189.523a1.722 1.722 0 1 1-2.436 2.435 1.722 1.722 0 0 1 2.436-2.435"/>
        <path stroke="#BCA9FF" d="M24.683 191.145c0 6.534-5.299 11.832-11.833 11.832s-11.833-5.298-11.833-11.832c0-6.535 5.299-11.833 11.833-11.833s11.833 5.298 11.833 11.833z"/>
        <path stroke="#BCA9FF" stroke-linecap="round" stroke-linejoin="round" stroke-width=".5" d="M56.84 191.145H37.817"/>
        <path fill="#BCA9FF" d="M60.284 191.145a1.722 1.722 0 1 1-3.445 0 1.722 1.722 0 0 1 3.445 0"/>
        <path fill="#A375FC" d="M216.86 157.42a1.722 1.722 0 1 1-2.437 2.436 1.722 1.722 0 0 1 2.436-2.435M216.86 180.123a1.722 1.722 0 1 1-2.437 2.436 1.722 1.722 0 0 1 2.436-2.436"/>
        <path stroke="#BCA9FF" stroke-linecap="round" stroke-linejoin="round" stroke-width=".5" d="M236.739 84.478h46.895v14.831h74.303V73.09h-49.044"/>
        <path fill="#BCA9FF" d="M309.052 75.395a2.282 2.282 0 1 1 0-4.564 2.282 2.282 0 0 1 0 4.564M357.794 75.395a2.282 2.282 0 1 1 0-4.564 2.282 2.282 0 0 1 0 4.564M236.739 117.15a2.282 2.282 0 1 1 0-4.564 2.282 2.282 0 0 1 0 4.565"/>
        <path stroke="#BCA9FF" stroke-linecap="round" stroke-linejoin="round" stroke-width=".5" d="M236.739 84.117v22.826"/>
        <path stroke="#BCA9FF" stroke-width="2" d="M273.225 40.708a6.459 6.459 0 1 1-12.917 0 6.459 6.459 0 0 1 12.917 0z"/>
        <path stroke="#BCA9FF" stroke-linecap="round" stroke-linejoin="round" stroke-width=".5" d="M267.432 114.868V40.565"/>
        <path fill="#BCA9FF" d="M269.013 40.708a2.283 2.283 0 1 1-4.567 0 2.283 2.283 0 0 1 4.567 0"/>
        <g>
            <path fill="#BCA9FF" d="M94.79 3.486a2.952 2.952 0 1 1-5.904 0 2.952 2.952 0 0 1 5.904 0"/>
            <path stroke="#BCA9FF" stroke-linecap="round" stroke-linejoin="round" d="M70.461 25.927h10.695V3.41h9.851"/>
            <path stroke="#BCA9FF" stroke-width=".536" d="M73.72 25.887a5.04 5.04 0 1 1-10.08 0 5.04 5.04 0 0 1 10.08 0z"/>
            <path fill="#A375FC" d="M70.384 24.262a2.353 2.353 0 1 1-3.328 3.329 2.353 2.353 0 0 1 3.328-3.329"/>
            <path stroke="#BCA9FF" stroke-dasharray="0.375,1.873" stroke-linecap="round" stroke-width="1.017" d="M77.446 52.25c0 7.625-6.181 13.805-13.805 13.805s-13.804-6.18-13.804-13.804c0-7.624 6.18-13.804 13.804-13.804 7.624 0 13.805 6.18 13.805 13.804z"/>
            <path stroke="#BCA9FF" stroke-dasharray="0.512,1.535" stroke-linecap="round" stroke-width="1.017" d="M44.355 29.47a6.902 6.902 0 1 1-13.804 0 6.902 6.902 0 0 1 13.804 0z"/>
            <path stroke="#BCA9FF" stroke-linecap="round" stroke-width="1.017" d="M52.078 13.671a4.025 4.025 0 1 1-8.05 0 4.025 4.025 0 0 1 8.05 0z"/>
            <path stroke="#BCA9FF" stroke-linecap="round" stroke-linejoin="round" d="M41.6 52.25h17.308"/>
            <path fill="#BCA9FF" d="M61.589 52.25a1.814 1.814 0 1 1-3.629.001 1.814 1.814 0 0 1 3.629 0M43.111 52.25a1.813 1.813 0 1 1-3.626.001 1.813 1.813 0 0 1 3.626 0"/>
        </g>
    </g>
</svg>
