<svg width="80" height="80" viewBox="0 0 80 80" fill="none" xmlns="http://www.w3.org/2000/svg">
    <path d="M34.9707 14.95L35.1532 28.45" stroke="#28818F" stroke-width="3"/>
    <path d="M27.3117 44.455L18.0117 52.1137" stroke="#28818F" stroke-width="3"/>
    <path d="M38.8008 47.6012L44.6358 53.7137" stroke="#28818F" stroke-width="3"/>
    <path d="M42.9688 32.0538L54.12 23.3" stroke="#28818F" stroke-width="3"/>
    <path d="M52.3258 17.2825L39.7383 12.1763" stroke="#28818F" stroke-width="3"/>
    <path d="M30.3805 12.1763L18.0117 23.3" stroke="#28818F" stroke-width="3"/>
    <path d="M18.0117 29.3187L26.218 33.9112" stroke="#28818F" stroke-width="3"/>
    <path d="M13.2695 31.2925L13.452 50.7962" stroke="#28818F" stroke-width="3"/>
    <path d="M49.3789 54.8488L56.1264 24.3088" stroke="#28818F" stroke-width="3"/>
    <path d="M51.5664 55.5787L64.6977 45.3662" stroke="#28818F" stroke-width="3"/>
    <path d="M59.2266 23.3L66.1566 33.9113" stroke="#28818F" stroke-width="3"/>
    <path d="M70.3496 47.6012L71.4434 64.5212" stroke="#28818F" stroke-width="3"/>
    <path d="M67.2787 66.5199L52.3262 60.1537" stroke="#28818F" stroke-width="3"/>
    <path d="M57.0062 24.3087C54.4212 24.3087 52.3262 22.2137 52.3262 19.6287C52.3262 17.045 54.4212 14.95 57.0062 14.95C59.5899 14.95 61.6849 17.045 61.6849 19.6287C61.6849 22.2137 59.5899 24.3087 57.0062 24.3087Z" fill="white"/>
    <path d="M57.0062 24.3087C54.4212 24.3087 52.3262 22.2137 52.3262 19.6287C52.3262 17.045 54.4212 14.95 57.0062 14.95C59.5899 14.95 61.6849 17.045 61.6849 19.6287C61.6849 22.2137 59.5899 24.3087 57.0062 24.3087Z" stroke="#28818F" stroke-width="3"/>
    <path d="M35.0594 47.6012C29.7706 47.6012 25.4844 43.3137 25.4844 38.025C25.4844 32.7362 29.7706 28.45 35.0594 28.45C40.3481 28.45 44.6356 32.7362 44.6356 38.025C44.6356 43.3137 40.3481 47.6012 35.0594 47.6012Z" fill="white"/>
    <path d="M35.0594 47.6012C29.7706 47.6012 25.4844 43.3137 25.4844 38.025C25.4844 32.7362 29.7706 28.45 35.0594 28.45C40.3481 28.45 44.6356 32.7362 44.6356 38.025C44.6356 43.3137 40.3481 47.6012 35.0594 47.6012Z" stroke="#28818F" stroke-width="3"/>
    <path d="M71.958 73.8787C69.3743 73.8787 67.2793 71.7837 67.2793 69.2C67.2793 66.6162 69.3743 64.5212 71.958 64.5212C74.5418 64.5212 76.6368 66.6162 76.6368 69.2C76.6368 71.7837 74.5418 73.8787 71.958 73.8787Z" fill="white"/>
    <path d="M71.958 73.8787C69.3743 73.8787 67.2793 71.7837 67.2793 69.2C67.2793 66.6162 69.3743 64.5212 71.958 64.5212C74.5418 64.5212 76.6368 66.6162 76.6368 69.2C76.6368 71.7837 74.5418 73.8787 71.958 73.8787Z" stroke="#28818F" stroke-width="3"/>
    <path d="M14.251 60.1536C11.6673 60.1536 9.57227 58.0586 9.57227 55.4749C9.57227 52.8899 11.6673 50.7961 14.251 50.7961C16.8348 50.7961 18.9298 52.8899 18.9298 55.4749C18.9298 58.0586 16.8348 60.1536 14.251 60.1536Z" fill="white"/>
    <path d="M14.251 60.1536C11.6673 60.1536 9.57227 58.0586 9.57227 55.4749C9.57227 52.8899 11.6673 50.7961 14.251 50.7961C16.8348 50.7961 18.9298 52.8899 18.9298 55.4749C18.9298 58.0586 16.8348 60.1536 14.251 60.1536Z" stroke="#28818F" stroke-width="3"/>
    <path d="M11.069 30.0438C9.17398 28.285 9.06398 25.325 10.8215 23.4313C12.579 21.5363 15.539 21.4263 17.434 23.1838C19.3277 24.9413 19.439 27.9013 17.6815 29.7963C15.924 31.69 12.9627 31.8013 11.069 30.0438Z" fill="white"/>
    <path d="M11.069 30.0438C9.17398 28.285 9.06398 25.325 10.8215 23.4313C12.579 21.5363 15.539 21.4263 17.434 23.1838C19.3277 24.9413 19.439 27.9013 17.6815 29.7963C15.924 31.69 12.9627 31.8013 11.069 30.0438Z" stroke="#28818F" stroke-width="3"/>
    <path d="M44.465 61.8224C42.5713 60.0649 42.46 57.1036 44.2175 55.2099C45.975 53.3161 48.9363 53.2049 50.83 54.9624C52.725 56.7199 52.835 59.6799 51.0775 61.5749C49.32 63.4686 46.36 63.5799 44.465 61.8224Z" fill="white"/>
    <path d="M44.465 61.8224C42.5713 60.0649 42.46 57.1036 44.2175 55.2099C45.975 53.3161 48.9363 53.2049 50.83 54.9624C52.725 56.7199 52.835 59.6799 51.0775 61.5749C49.32 63.4686 46.36 63.5799 44.465 61.8224Z" stroke="#28818F" stroke-width="3"/>
    <path d="M65.1368 45.7738C62.3655 43.2025 62.203 38.8725 64.7743 36.1013C67.3455 33.33 71.6768 33.1675 74.448 35.7388C77.2193 38.31 77.3805 42.6413 74.8093 45.4125C72.238 48.1838 67.908 48.345 65.1368 45.7738Z" fill="white"/>
    <path d="M65.1368 45.7738C62.3655 43.2025 62.203 38.8725 64.7743 36.1013C67.3455 33.33 71.6768 33.1675 74.448 35.7388C77.2193 38.31 77.3805 42.6413 74.8093 45.4125C72.238 48.1838 67.908 48.345 65.1368 45.7738Z" stroke="#28818F" stroke-width="3"/>
    <path d="M31.8771 13.7013C29.9834 11.9438 29.8721 8.9838 31.6296 7.0888C33.3871 5.19505 36.3484 5.0838 38.2421 6.8413C40.1371 8.5988 40.2471 11.5601 38.4896 13.4538C36.7321 15.3476 33.7721 15.4588 31.8771 13.7013Z" fill="white"/>
    <path d="M31.8771 13.7013C29.9834 11.9438 29.8721 8.9838 31.6296 7.0888C33.3871 5.19505 36.3484 5.0838 38.2421 6.8413C40.1371 8.5988 40.2471 11.5601 38.4896 13.4538C36.7321 15.3476 33.7721 15.4588 31.8771 13.7013Z" stroke="#28818F" stroke-width="3"/>
</svg>