<svg width="80" height="80" viewBox="0 0 80 80" fill="none" xmlns="http://www.w3.org/2000/svg">
    <path d="M56.7442 70.2271H23.2594C21.0233 70.2254 18.8793 69.3366 17.2978 67.7557C15.7164 66.1749 14.8268 64.0312 14.8242 61.7951V35.9583C14.8242 35.5339 14.9928 35.127 15.2928 34.8269C15.5929 34.5268 15.9999 34.3583 16.4242 34.3583C16.8486 34.3583 17.2555 34.5268 17.5556 34.8269C17.8556 35.127 18.0242 35.5339 18.0242 35.9583V61.7951C18.0251 63.183 18.577 64.5138 19.5587 65.4949C20.5404 66.4759 21.8715 67.0271 23.2594 67.0271H56.7442C58.1321 67.0271 59.4632 66.4759 60.4449 65.4949C61.4266 64.5138 61.9786 63.183 61.9794 61.7951V35.9583C61.9794 35.5339 62.148 35.127 62.4481 34.8269C62.7481 34.5268 63.1551 34.3583 63.5794 34.3583C64.0038 34.3583 64.4107 34.5268 64.7108 34.8269C65.0109 35.127 65.1794 35.5339 65.1794 35.9583V61.7951C65.1769 64.0312 64.2873 66.1749 62.7058 67.7557C61.1244 69.3366 58.9803 70.2254 56.7442 70.2271Z" fill="#28818F"/>
    <path d="M63.9401 37.5488H16.0617C14.7887 37.5488 13.5678 37.0431 12.6676 36.1429C11.7674 35.2428 11.2617 34.0219 11.2617 32.7488V27.7824C11.2617 26.5094 11.7674 25.2885 12.6676 24.3883C13.5678 23.4881 14.7887 22.9824 16.0617 22.9824H63.9401C65.2132 22.9824 66.4341 23.4881 67.3342 24.3883C68.2344 25.2885 68.7401 26.5094 68.7401 27.7824V32.7488C68.7401 34.0219 68.2344 35.2428 67.3342 36.1429C66.4341 37.0431 65.2132 37.5488 63.9401 37.5488ZM16.0617 26.1824C15.6374 26.1824 15.2304 26.351 14.9303 26.651C14.6303 26.9511 14.4617 27.3581 14.4617 27.7824V32.7488C14.4617 33.1732 14.6303 33.5801 14.9303 33.8802C15.2304 34.1802 15.6374 34.3488 16.0617 34.3488H63.9401C64.3645 34.3488 64.7714 34.1802 65.0715 33.8802C65.3715 33.5801 65.5401 33.1732 65.5401 32.7488V27.7824C65.5401 27.3581 65.3715 26.9511 65.0715 26.651C64.7714 26.351 64.3645 26.1824 63.9401 26.1824H16.0617Z" fill="#28818F"/>
    <path d="M32.891 70.227C32.4667 70.227 32.0597 70.0584 31.7596 69.7584C31.4596 69.4583 31.291 69.0514 31.291 68.627V24.579C31.291 24.1547 31.4596 23.7477 31.7596 23.4476C32.0597 23.1476 32.4667 22.979 32.891 22.979C33.3154 22.979 33.7223 23.1476 34.0224 23.4476C34.3224 23.7477 34.491 24.1547 34.491 24.579V68.627C34.491 69.0514 34.3224 69.4583 34.0224 69.7584C33.7223 70.0584 33.3154 70.227 32.891 70.227Z" fill="#28818F"/>
    <path d="M47.1117 70.227C46.6874 70.227 46.2804 70.0584 45.9803 69.7584C45.6803 69.4583 45.5117 69.0514 45.5117 68.627V24.579C45.5117 24.1547 45.6803 23.7477 45.9803 23.4476C46.2804 23.1476 46.6874 22.979 47.1117 22.979C47.5361 22.979 47.943 23.1476 48.2431 23.4476C48.5432 23.7477 48.7117 24.1547 48.7117 24.579V68.627C48.7117 69.0514 48.5432 69.4583 48.2431 69.7584C47.943 70.0584 47.5361 70.227 47.1117 70.227Z" fill="#28818F"/>
    <path d="M40.0009 26.1791C39.9216 26.179 39.8424 26.1726 39.7641 26.1599C25.8409 24.0607 23.8921 18.7999 23.9689 15.8495C24.0236 14.3756 24.5888 12.9665 25.5677 11.8632C26.5466 10.76 27.8784 10.0312 29.3353 9.80147C34.2953 9.35347 38.5225 14.2815 41.5337 24.1087C41.6074 24.3483 41.6238 24.6018 41.5815 24.8489C41.5393 25.096 41.4395 25.3296 41.2904 25.5311C41.1412 25.7326 40.9468 25.8962 40.7228 26.0087C40.4989 26.1213 40.2516 26.1796 40.0009 26.1791ZM29.9401 12.9727C29.8409 12.9727 29.7449 12.9727 29.6457 12.9727C28.9665 13.1226 28.3557 13.4923 27.908 14.0246C27.4602 14.5568 27.2004 15.2218 27.1689 15.9167C27.1113 18.1375 29.8889 20.9215 37.6329 22.5183C35.4153 16.4671 32.6409 12.9727 29.9401 12.9727Z" fill="#28818F"/>
    <path d="M40 26.1791C39.7493 26.1797 39.502 26.1213 39.2781 26.0088C39.0541 25.8962 38.8597 25.7326 38.7105 25.5311C38.5614 25.3297 38.4617 25.096 38.4194 24.8489C38.3771 24.6018 38.3935 24.3483 38.4672 24.1087C41.4784 14.2687 45.7792 9.38871 50.6624 9.80151C52.1199 10.0306 53.4525 10.7591 54.432 11.8624C55.4116 12.9657 55.9772 14.3751 56.032 15.8495C56.1088 18.7999 54.16 24.0607 40.2368 26.1599C40.1585 26.1727 40.0793 26.1791 40 26.1791ZM50.0608 12.9727C47.3728 12.9727 44.5856 16.4671 42.3808 22.5343C50.1248 20.9343 52.9024 18.1535 52.8448 15.9327C52.8136 15.2373 52.5536 14.5716 52.1051 14.0392C51.6566 13.5068 51.0448 13.1375 50.3648 12.9887C50.256 12.9791 50.1568 12.9727 50.0608 12.9727Z" fill="#28818F"/>
</svg>