<svg width="122" height="101" viewBox="0 0 122 101" fill="none" xmlns="http://www.w3.org/2000/svg">
<path d="M101.841 93.6201C100.996 93.0602 100.053 92.6542 99.161 92.1633C98.5681 91.8751 98.002 91.535 97.4695 91.147C96.6198 90.4491 96.7903 89.0746 97.6879 88.4749C98.9612 87.6231 101.079 88.106 101.297 89.8388C101.3 89.8763 101.331 89.9052 101.369 89.9051H103.292C103.314 89.9052 103.335 89.896 103.35 89.8798C103.365 89.8636 103.372 89.842 103.37 89.8202C103.266 88.6234 102.81 87.6284 101.963 86.9915C101.18 86.3902 100.219 86.062 99.2302 86.0575C94.1346 86.0575 93.6711 91.4309 96.412 93.1265C96.7317 93.3229 99.4194 94.6682 100.37 95.2494C101.321 95.8305 101.62 96.9078 101.207 97.7596C100.831 98.5398 99.8562 99.0625 98.8813 99.0121C97.8158 98.9564 96.9901 98.3779 96.6997 97.4784C96.6527 97.2791 96.6277 97.0753 96.6251 96.8707C96.6223 96.8303 96.5885 96.7989 96.5479 96.799H94.4542C94.4111 96.8005 94.3769 96.8357 94.377 96.8786C94.377 98.3859 94.7552 99.2191 95.7727 99.9807C96.6646 100.655 97.7566 101.013 98.876 101C101.723 101 103.21 99.3916 103.503 97.7251C103.796 96.0587 103.314 94.5913 101.841 93.6201Z" fill="#161616"/>
<path d="M9.01922 86.0575H7.06555C7.03171 86.0563 7.00155 86.079 6.99279 86.1121L5.252 91.8997C5.243 91.9329 5.21322 91.9559 5.17925 91.9559C5.14527 91.9559 5.11549 91.9329 5.10649 91.8997L3.3684 86.1121C3.35777 86.0791 3.32719 86.057 3.29294 86.0575H0.0781468C0.0360183 86.0575 0.0014527 86.0913 0 86.1339V100.921C0 100.965 0.0349875 101 0.0781468 101H2.19619C2.21668 101 2.23629 100.992 2.25052 100.977C2.26475 100.962 2.27238 100.942 2.27165 100.921V89.6867C2.27459 89.6499 2.30234 89.62 2.33849 89.6148C2.37463 89.6095 2.40953 89.6303 2.42255 89.6649L4.17412 95.4907L4.29538 95.8973C4.306 95.9302 4.33659 95.9524 4.37083 95.9519H5.98766C6.0219 95.9524 6.05249 95.9302 6.06311 95.8973L6.18437 95.4907L7.93594 89.6649C7.94896 89.6303 7.98386 89.6095 8.02 89.6148C8.05615 89.62 8.0839 89.6499 8.08684 89.6867V100.921C8.08611 100.942 8.09374 100.962 8.10797 100.977C8.1222 100.992 8.14181 101 8.1623 101H10.2803C10.3235 101 10.3585 100.965 10.3585 100.921V86.1339C10.357 86.0913 10.3225 86.0575 10.2803 86.0575H9.01922Z" fill="#161616"/>
<path d="M69.2179 86.0575C69.1846 86.0581 69.1554 86.08 69.1451 86.112L67.4061 91.8997C67.3954 91.9319 67.3656 91.9537 67.332 91.9537C67.2983 91.9537 67.2685 91.9319 67.2578 91.8997L65.5188 86.112C65.5092 86.0795 65.4796 86.0573 65.446 86.0575H62.2296C62.1874 86.0574 62.1528 86.0912 62.1514 86.1339V100.921C62.1514 100.965 62.1864 101 62.2296 101H64.3487C64.3908 100.999 64.4242 100.964 64.4242 100.921V89.6867C64.4271 89.6498 64.4549 89.62 64.4911 89.6147C64.5272 89.6095 64.5622 89.6303 64.5752 89.6648L66.3277 95.4907L66.449 95.8973C66.4593 95.9293 66.4885 95.9512 66.5218 95.9518H68.1394C68.1733 95.953 68.2035 95.9304 68.2122 95.8973L68.3363 95.4907L70.086 89.6648C70.0991 89.6303 70.134 89.6095 70.1702 89.6147C70.2063 89.62 70.2341 89.6498 70.237 89.6867V100.921C70.237 100.965 70.272 101 70.3152 101H72.4344C72.4765 100.999 72.5099 100.964 72.5099 100.921V86.1339C72.5085 86.0923 72.4755 86.0589 72.4344 86.0575H69.2179Z" fill="#161616"/>
<path d="M41.3538 86.0575H31.1551C31.112 86.0574 31.0767 86.0912 31.0752 86.1339V87.9839C31.0767 88.0266 31.112 88.0604 31.1551 88.0604H35.105V100.921C35.105 100.942 35.1135 100.962 35.1284 100.977C35.1434 100.992 35.1638 101 35.185 101H37.3515C37.3945 100.999 37.4287 100.964 37.4287 100.921V88.0604H41.3538C41.3968 88.0604 41.4322 88.0266 41.4337 87.9839V86.1339C41.4322 86.0912 41.3968 86.0574 41.3538 86.0575Z" fill="#161616"/>
<path fill-rule="evenodd" clip-rule="evenodd" d="M56.3157 101H54.2761C54.2358 101.002 54.2003 100.975 54.1932 100.937L52.9734 96.6428C52.9635 96.6098 52.9323 96.5867 52.8963 96.5856H48.3885C48.3522 96.5858 48.3205 96.6092 48.3114 96.6428L47.0859 100.94C47.0771 100.974 47.0456 100.998 47.0088 101H44.9692C44.9437 101 44.9198 100.988 44.9042 100.969C44.8886 100.95 44.883 100.925 44.8892 100.902L49.1027 86.1146C49.1129 86.0806 49.1456 86.0573 49.1827 86.0575H52.1136C52.1507 86.0573 52.1833 86.0806 52.1936 86.1146L56.3928 100.902C56.4001 100.925 56.3954 100.95 56.3802 100.969C56.3649 100.989 56.341 101 56.3157 101ZM50.5624 88.7337L48.9227 94.4914C48.9166 94.5149 48.9221 94.5398 48.9377 94.5589C48.9533 94.578 48.9773 94.5892 49.0027 94.5893H52.2821C52.3075 94.5895 52.3314 94.5782 52.3466 94.5589C52.3618 94.5396 52.3665 94.5145 52.3593 94.4914L50.7196 88.7337C50.7082 88.7015 50.6766 88.6799 50.641 88.6799C50.6054 88.6799 50.5737 88.7015 50.5624 88.7337Z" fill="#161616"/>
<path fill-rule="evenodd" clip-rule="evenodd" d="M89.6907 101H87.6537C87.6158 101 87.5829 100.975 87.5737 100.94L86.3482 96.6429C86.3391 96.6094 86.3074 96.5859 86.271 96.5858H81.7658C81.7287 96.5856 81.696 96.609 81.6858 96.6429L80.4602 100.94C80.4522 100.975 80.4203 101 80.3831 101H78.3433C78.3184 100.999 78.2952 100.987 78.2802 100.969C78.2653 100.95 78.2601 100.925 78.2661 100.902L82.4771 86.1147C82.4874 86.0807 82.52 86.0574 82.5571 86.0575H85.4768C85.5142 86.0564 85.5475 86.0801 85.5568 86.1147L89.7707 100.902C89.7768 100.926 89.7713 100.95 89.7557 100.97C89.74 100.989 89.7161 101 89.6907 101ZM83.9398 88.7338L82.3 94.4916C82.2928 94.5147 82.2975 94.5397 82.3127 94.559C82.3279 94.5783 82.3518 94.5896 82.3771 94.5895H85.6568C85.6822 94.5894 85.7062 94.5781 85.7218 94.559C85.7374 94.5399 85.7429 94.5151 85.7368 94.4916L84.097 88.7338C84.0857 88.7016 84.054 88.68 84.0184 88.68C83.9828 88.68 83.9511 88.7016 83.9398 88.7338Z" fill="#161616"/>
<path d="M19.5615 98.8143V94.2246C19.5607 94.2041 19.5685 94.1842 19.583 94.1697C19.5975 94.1552 19.6174 94.1474 19.6378 94.1482H25.3291C25.3717 94.1467 25.4055 94.1117 25.4055 94.069V92.2217C25.4055 92.179 25.3717 92.144 25.3291 92.1425H19.6378C19.5957 92.1425 19.5615 92.1083 19.5615 92.0661V88.1395C19.5608 88.1188 19.5685 88.0986 19.5829 88.0837C19.5973 88.0688 19.6171 88.0603 19.6378 88.0604H26.1141C26.1568 88.0604 26.1917 88.0266 26.1932 87.9839V86.1339C26.1917 86.0912 26.1568 86.0574 26.1141 86.0575H17.34C17.2979 86.0575 17.2637 86.0917 17.2637 86.1339V100.921C17.263 100.942 17.2707 100.962 17.2851 100.977C17.2995 100.992 17.3193 101 17.34 101H26.3922C26.4358 101 26.4712 100.965 26.4712 100.921V98.9698C26.4712 98.9261 26.4358 98.8907 26.3922 98.8907H19.6378C19.6174 98.8915 19.5975 98.8837 19.583 98.8692C19.5685 98.8547 19.5607 98.8348 19.5615 98.8143Z" fill="#161616"/>
<path d="M121.978 100.866L114.69 93.2122C114.676 93.1978 114.668 93.1782 114.668 93.1576C114.668 93.1371 114.676 93.1174 114.69 93.103L121.245 86.2021C121.267 86.1802 121.274 86.147 121.262 86.1181C121.25 86.0893 121.222 86.0707 121.191 86.0711H118.509C118.487 86.0711 118.467 86.08 118.452 86.0957L112.888 91.9652C112.866 91.9886 112.832 91.9961 112.803 91.9841C112.773 91.972 112.754 91.9429 112.754 91.9106V86.1339C112.754 86.0917 112.72 86.0575 112.679 86.0575H110.568C110.526 86.0574 110.492 86.0912 110.49 86.1339V100.921C110.49 100.965 110.525 101 110.568 101H112.679C112.699 101 112.719 100.992 112.733 100.977C112.747 100.962 112.755 100.942 112.754 100.921V94.4128C112.755 94.3817 112.774 94.354 112.802 94.3423C112.831 94.3305 112.863 94.3367 112.886 94.3583L119.188 100.975C119.202 100.99 119.221 100.999 119.242 101H121.927C121.957 100.998 121.983 100.978 121.994 100.95C122.005 100.921 121.999 100.888 121.978 100.866Z" fill="#161616"/>
<path d="M93.2262 1L65.6035 21.6897L70.7336 9.48326L93.2262 1Z" fill="#E17726" stroke="#E17726" stroke-linecap="round" stroke-linejoin="round"/>
<path d="M28.7734 1L56.3961 21.6897L51.4725 9.40372L28.7734 1Z" fill="#E27625" stroke="#E27625" stroke-linecap="round" stroke-linejoin="round"/>
<path d="M82.3414 48.1264L74.8115 59.7533L90.9238 64.2184L95.5285 48.3831L82.3414 48.1264Z" fill="#E27625" stroke="#E27625" stroke-linecap="round" stroke-linejoin="round"/>
<path d="M26.4717 48.3831L31.0546 64.2184L47.1887 59.7533L39.6766 48.1264L26.4717 48.3831Z" fill="#E27625" stroke="#E27625" stroke-linecap="round" stroke-linejoin="round"/>
<path d="M44.8127 29.1075L40.2832 35.9193L56.3964 36.6322L55.8514 19.3908L44.8127 29.1075Z" fill="#E27625" stroke="#E27625" stroke-linecap="round" stroke-linejoin="round"/>
<path d="M76.0368 29.1935L64.8259 19.3908L64.4531 36.6322L80.5663 35.9274L76.0368 29.1935Z" fill="#E27625" stroke="#E27625" stroke-linecap="round" stroke-linejoin="round"/>
<path d="M46.0381 59.6207L55.2456 55.2753L47.3141 49.2759L46.0381 59.6207Z" fill="#E27625" stroke="#E27625" stroke-linecap="round" stroke-linejoin="round"/>
<path d="M65.6035 55.2753L74.8111 59.6207L73.5351 49.2759L65.6035 55.2753Z" fill="#E27625" stroke="#E27625" stroke-linecap="round" stroke-linejoin="round"/>
<path d="M74.8111 59.8572L65.6035 55.023L66.3365 61.4955L66.2562 64.2184L74.8111 59.8572Z" fill="#D5BFB2" stroke="#D5BFB2" stroke-linecap="round" stroke-linejoin="round"/>
<path d="M46.0381 59.8572L54.5929 64.2184L54.5394 61.4955L55.2456 55.023L46.0381 59.8572Z" fill="#D5BFB2" stroke="#D5BFB2" stroke-linecap="round" stroke-linejoin="round"/>
<path d="M55.2451 44.6782L47.1885 42.4861L52.8728 40.0805L55.2451 44.6782Z" fill="#233447" stroke="#233447" stroke-linecap="round" stroke-linejoin="round"/>
<path d="M66.7549 44.6782L69.1189 40.0805L74.8115 42.4861L66.7549 44.6782Z" fill="#233447" stroke="#233447" stroke-linecap="round" stroke-linejoin="round"/>
<path d="M46.899 59.6207L48.3394 48.1264L39.1318 48.3802L46.899 59.6207Z" fill="#CC6228" stroke="#CC6228" stroke-linecap="round" stroke-linejoin="round"/>
<path d="M73.6602 48.1264L75.096 59.6207L82.8677 48.3802L73.6602 48.1264Z" fill="#CC6228" stroke="#CC6228" stroke-linecap="round" stroke-linejoin="round"/>
<path d="M80.5663 35.4828L64.4531 36.2156L65.9441 44.6782L68.3247 39.5827L74.0572 42.2488L80.5663 35.4828Z" fill="#CC6228" stroke="#CC6228" stroke-linecap="round" stroke-linejoin="round"/>
<path d="M46.8205 42.2488L52.5248 39.5827L54.9054 44.6782L56.3964 36.2156L40.2832 35.4828L46.8205 42.2488Z" fill="#CC6228" stroke="#CC6228" stroke-linecap="round" stroke-linejoin="round"/>
<path d="M41.4336 36.6322L48.3393 49.2759L48.1058 42.9811L41.4336 36.6322Z" fill="#E27525" stroke="#E27525" stroke-linecap="round" stroke-linejoin="round"/>
<path d="M73.9224 42.9811L73.6602 49.2759L80.5658 36.6322L73.9224 42.9811Z" fill="#E27525" stroke="#E27525" stroke-linecap="round" stroke-linejoin="round"/>
<path d="M56.7419 36.6322L55.2451 44.5398L57.1445 53.8736L57.547 41.5849L56.7419 36.6322Z" fill="#E27525" stroke="#E27525" stroke-linecap="round" stroke-linejoin="round"/>
<path d="M65.2396 36.6322L64.4531 41.5579L64.832 53.8736L66.755 44.5398L65.2396 36.6322Z" fill="#E27525" stroke="#E27525" stroke-linecap="round" stroke-linejoin="round"/>
<path d="M66.1943 44.6742L64.4531 54.1099L65.7187 55.023L73.4242 48.7161L73.6607 42.3793L66.1943 44.6742Z" fill="#F5841F" stroke="#F5841F" stroke-linecap="round" stroke-linejoin="round"/>
<path d="M47.1885 42.3793L47.3996 48.7161L55.1268 55.023L56.396 54.1099L54.6499 44.6742L47.1885 42.3793Z" fill="#F5841F" stroke="#F5841F" stroke-linecap="round" stroke-linejoin="round"/>
<path d="M66.1877 63.8135L66.2686 61.1958L65.5863 60.5774H55.2634L54.6081 61.1958L54.6621 63.8135L46.0381 59.6207L49.0503 62.1525L55.1825 66.5172H65.6672L71.7995 62.1525L74.8117 59.6207L66.1877 63.8135Z" fill="#C0AC9D" stroke="#C0AC9D" stroke-linecap="round" stroke-linejoin="round"/>
<path d="M66.0252 55.9188L64.729 55.023H57.2441L55.9478 55.9188L55.2451 61.9195L55.8919 61.3232H66.0811L66.7546 61.9195L66.0252 55.9188Z" fill="#161616" stroke="#161616" stroke-linecap="round" stroke-linejoin="round"/>
<path d="M94.3686 22.4649L96.6794 11.3375L93.2145 1L66.7549 20.4742L76.9329 29.0091L91.3154 33.1839L94.4796 29.5008L93.1034 28.5202L95.3032 26.5268L93.6263 25.2185L95.826 23.5556L94.3686 22.4649Z" fill="#763E1A" stroke="#763E1A" stroke-linecap="round" stroke-linejoin="round"/>
<path d="M25.3203 11.3375L27.6583 22.4649L26.1737 23.5556L28.3734 25.2185L26.6965 26.5268L28.8963 28.5202L27.5201 29.5008L30.6843 33.1839L45.0668 29.0091L55.2448 20.4742L28.7852 1L25.3203 11.3375Z" fill="#763E1A" stroke="#763E1A" stroke-linecap="round" stroke-linejoin="round"/>
<path d="M90.5954 34.0143L75.8586 29.7356L80.311 36.4179L73.6602 49.2759L82.4512 49.163H95.5281L90.5954 34.0143Z" fill="#F5841F" stroke="#F5841F" stroke-linecap="round" stroke-linejoin="round"/>
<path d="M46.1384 29.7356L31.3828 34.0143L26.4717 49.163H39.5652L48.3396 49.2759L41.6803 36.4179L46.1384 29.7356Z" fill="#F5841F" stroke="#F5841F" stroke-linecap="round" stroke-linejoin="round"/>
<path d="M65.1599 36.4212L66.0871 20.4344L70.2071 9.04597H51.792L55.912 20.4344L56.8392 36.4212L57.194 41.4618L57.2208 53.8736H64.7782L64.8051 41.4618L65.1599 36.4212Z" fill="#F5841F" stroke="#F5841F" stroke-linecap="round" stroke-linejoin="round"/>
</svg>
