<?xml version="1.0" encoding="UTF-8"?>
<svg width="146px" height="60px" viewBox="0 0 146 60" version="1.1" xmlns="http://www.w3.org/2000/svg" xmlns:xlink="http://www.w3.org/1999/xlink">
    <!-- Generator: Sketch 61 (89581) - https://sketch.com -->
    <title>horizontal_white</title>
    <desc>Created with Sketch.</desc>
    <g id="Page-1" stroke="none" stroke-width="1" fill="none" fill-rule="evenodd">
        <g id="JOIN-NOW" transform="translate(-396.000000, -985.000000)" fill="#3375BB">
            <g id="Walkthrough" transform="translate(-121.000000, 733.000000)">
                <g id="Steps" transform="translate(321.000000, 80.000000)">
                    <g id="Step-1">
                        <g id="Group-12" transform="translate(0.000000, 172.000000)">
                            <g id="horizontal_white" transform="translate(196.000000, 0.000000)">
                                <path d="M24.4248632,0.463864973 C25.2171537,-0.154621658 26.3244916,-0.154621658 27.1167821,0.463864973 C35.5703713,7.06265569 45.2280926,7.00944327 48.8744971,6.9893433 C49.0568734,6.9883308 49.2246745,6.9873933 49.3760319,6.9873933 C49.9653913,6.9873933 50.5297114,7.22566796 50.9426741,7.64874237 C51.3560105,8.07181677 51.5832334,8.64429097 51.5738159,9.23772763 C51.402352,19.8487502 50.9471587,27.5605769 50.0621853,33.3280688 C49.1764644,39.0996856 47.8362977,43.097555 45.7797061,46.1624257 C43.7085393,49.2486714 41.0461446,51.1817937 37.9636864,53.040291 C36.9344563,53.6605402 35.8753284,54.2646643 34.763132,54.8991634 C32.4662373,56.2090366 29.942867,57.6479096 26.9882217,59.6290318 C26.2508684,60.1236561 25.2907769,60.1236561 24.5534236,59.6290318 C21.6028892,57.6509096 19.0843774,56.2135366 16.7919673,54.9055384 C15.6764074,54.2687893 14.6142898,53.6627902 13.5820699,53.039541 C10.5022277,51.1806687 7.84357018,49.2475464 5.77677598,46.1601757 C3.72489329,43.09568 2.38932335,39.0978106 1.50681646,33.3269438 C0.624907535,27.5598269 0.171881853,19.8484877 0.000275260566,9.23772763 C-0.00903691647,8.64429097 0.21826074,8.07181677 0.631372924,7.64874237 C1.04452248,7.22566796 1.60895466,6.9873933 2.19801511,6.9873933 C2.34784022,6.9873933 2.51373537,6.9883308 2.69476625,6.9893433 C6.31168413,7.00944327 15.9705265,7.06314319 24.4248632,0.463864973 Z M4.43705773,11.4164746 C4.63341122,20.8030864 5.07701911,27.5913268 5.85103452,32.6526947 C6.68503231,38.106312 7.87907376,41.3808074 9.42067658,43.6836792 C10.9477042,45.964426 12.9467427,47.4936738 15.840845,49.2404214 C16.7205864,49.7714206 17.7012326,50.3316698 18.7700772,50.942169 C20.8124674,52.1087923 23.1758847,53.4591654 25.7706358,55.1399131 C28.3709927,53.4557905 30.7388947,52.1042924 32.7850221,50.936169 C33.8505032,50.3279199 34.8285334,49.7695456 35.7067798,49.2400464 C38.6042457,47.4929238 40.6077688,45.962926 42.1385337,43.6818042 C43.6838737,41.3789324 44.8812786,38.104437 45.718042,32.6515697 C46.4950098,27.5905768 46.9404863,20.8027114 47.137064,11.4166996 C42.6572596,11.3516747 33.8938549,10.6646756 25.7706358,4.96160865 C17.6560123,10.6587506 8.9038192,11.3502497 4.43705773,11.4164746 Z" id="Shape"></path>
                                <path d="M77.8794449,13.8819341 L72.0186449,13.8819341 L72.0186449,29.8785 L68.0768083,29.8785 L68.0768083,13.8819341 L62.2949028,13.8819341 L62.2949028,10.6772842 L77.8794449,10.6772842 L77.8794449,13.8819341 Z M87.2226656,22.8496169 L84.0818002,22.8496169 L84.0818002,29.8785 L80.1394825,29.8785 L80.1394825,10.6772842 L87.248643,10.6772842 C89.5086807,10.6772842 91.2520558,11.1828351 92.4787684,12.1938875 C93.705,13.2049398 94.3183563,14.6336019 94.3183563,16.4798736 C94.3183563,17.7898668 94.0335666,18.8846186 93.463987,19.7635373 C92.9035477,20.6340712 92.0496595,21.3285254 90.9018414,21.8473932 L95.0409141,29.6940356 L95.0409141,29.8785 L90.8099582,29.8785 L87.2226656,22.8496169 Z M84.0818002,19.6451644 L87.2616318,19.6451644 C88.2521421,19.6451644 89.0184767,19.3941153 89.5615977,18.8934966 C90.1047187,18.3833095 90.3765197,17.6843669 90.3765197,16.7963731 C90.3765197,15.8908698 90.1177074,15.178709 89.6010449,14.6599892 C89.0930416,14.1412693 88.3089076,13.8819341 87.248643,13.8819341 L84.0818002,13.8819341 L84.0818002,19.6451644 Z M111.808873,10.6772842 L111.808873,23.3240949 C111.808873,25.4257068 111.151259,27.0873661 109.837474,28.3090729 C108.532348,29.5312729 106.745196,30.1423729 104.476018,30.1423729 C102.242439,30.1423729 100.468276,29.5490288 99.1540094,28.3618475 C97.8402242,27.1751593 97.1701024,25.5440797 97.1431628,23.4695949 L97.1431628,10.6772842 L101.085962,10.6772842 L101.085962,23.3507288 C101.085962,24.6079475 101.38374,25.5268169 101.979297,26.1068441 C102.583994,26.6784864 103.415753,26.964061 104.476018,26.964061 C106.692279,26.964061 107.817968,25.7946356 107.853086,23.456278 L107.853086,10.6772842 L111.808873,10.6772842 Z M124.962119,24.8407475 C124.962119,24.0935186 124.699458,23.5223695 124.173655,23.1263136 C123.648334,22.7218729 122.702081,22.3001695 121.335379,21.8607102 C119.968677,21.4118797 118.886764,20.9724203 118.089642,20.541839 C115.916677,19.3635356 114.830916,17.7766485 114.830916,15.7809803 C114.830916,14.7434914 115.119554,13.8203802 115.698274,13.0114988 C116.28469,12.1938875 117.121741,11.5564495 118.207983,11.0992836 C119.302885,10.6421669 120.529116,10.4135593 121.887159,10.4135593 C123.253861,10.4135593 124.471434,10.6641153 125.540358,11.1652271 C126.6088,11.6575597 127.436711,12.3565515 128.02409,13.2621041 C128.619647,14.1676073 128.917425,15.1962676 128.917425,16.3479864 L124.975108,16.3479864 C124.975108,15.4688212 124.699458,14.7874866 124.147197,14.3039334 C123.595417,13.8116008 122.820423,13.5654346 121.821735,13.5654346 C120.857683,13.5654346 120.108666,13.7719953 119.574205,14.1852153 C119.039743,14.5896559 118.772752,15.1259837 118.772752,15.7941493 C118.772752,16.418369 119.084001,16.9414785 119.706016,17.3634778 C120.336691,17.7854771 121.260814,18.1810892 122.478387,18.5503139 C124.721106,19.2274068 126.354799,20.0668678 127.379945,21.0690915 C128.404611,22.0713153 128.917425,23.3196559 128.917425,24.8146068 C128.917425,26.4762661 128.29108,27.7818203 127.03839,28.7312695 C125.7857,29.6718407 124.099572,30.1423729 121.979042,30.1423729 C120.507468,30.1423729 119.167225,29.874061 117.95783,29.3379305 C116.749398,28.792922 115.825275,28.0501322 115.18546,27.1090678 C114.554785,26.1684966 114.239688,25.0784797 114.239688,23.8385237 L118.194514,23.8385237 C118.194514,25.9573983 119.456344,27.0168356 121.979042,27.0168356 C122.916636,27.0168356 123.648334,26.8279322 124.173655,26.4496322 C124.699458,26.0629475 124.962119,25.5268169 124.962119,24.8407475 Z M146,13.8819341 L140.1392,13.8819341 L140.1392,29.8785 L136.197363,29.8785 L136.197363,13.8819341 L130.415458,13.8819341 L130.415458,10.6772842 L146,10.6772842 L146,13.8819341 Z" id="Shape" fill-rule="nonzero"></path>
                                <path d="M69.6165683,47.7611792 L70.0810691,50.1095232 L70.6499737,47.8651055 L73.9159794,36.7186441 L75.0634557,36.7186441 L78.2878932,47.8651055 L78.8461642,50.1300157 L79.3420827,47.7611792 L82.0604513,36.7186441 L83.3630834,36.7186441 L79.5078723,51.8440678 L78.2878932,51.8440678 L74.8768821,40.0115952 L74.4945511,38.5161299 L74.1228538,40.0115952 L70.6291896,51.8440678 L69.4092106,51.8440678 L65.5646332,36.7186441 L66.866782,36.7186441 L69.6165683,47.7611792 Z M93.4820459,47.6055337 L86.6498732,47.6055337 L85.0997651,51.8440678 L83.7657152,51.8440678 L89.4615286,36.7186441 L90.6703905,36.7186441 L96.3657206,51.8440678 L95.0427877,51.8440678 L93.4820459,47.6055337 Z M87.0428379,46.5150395 L93.0784474,46.5150395 L90.0608844,38.2770506 L87.0428379,46.5150395 Z M99.8695352,50.7638198 L107.301064,50.7638198 L107.301064,51.8440678 L98.5876872,51.8440678 L98.5876872,36.7186441 L99.8695352,36.7186441 L99.8695352,50.7638198 Z M111.032537,50.7638198 L118.463582,50.7638198 L118.463582,51.8440678 L109.750689,51.8440678 L109.750689,36.7186441 L111.032537,36.7186441 L111.032537,50.7638198 Z M129.223468,44.5931348 L122.184421,44.5931348 L122.184421,50.7638198 L130.278141,50.7638198 L130.278141,51.8440678 L120.91369,51.8440678 L120.91369,36.7186441 L130.226423,36.7186441 L130.226423,37.8096262 L122.184421,37.8096262 L122.184421,43.5128868 L129.223468,43.5128868 L129.223468,44.5931348 Z M143.384216,37.8096262 L138.226372,37.8096262 L138.226372,51.8440678 L136.954675,51.8440678 L136.954675,37.8096262 L131.807465,37.8096262 L131.807465,36.7186441 L143.384216,36.7186441 L143.384216,37.8096262 Z" id="Shape" fill-rule="nonzero"></path>
                            </g>
                        </g>
                    </g>
                </g>
            </g>
        </g>
    </g>
</svg>