<?xml version="1.0" encoding="UTF-8"?>
<svg width="202px" height="40px" viewBox="0 0 202 40" version="1.1" xmlns="http://www.w3.org/2000/svg" xmlns:xlink="http://www.w3.org/1999/xlink">
    <!-- Generator: Sketch 61 (89581) - https://sketch.com -->
    <title>uniswap-io-vector-logo</title>
    <desc>Created with Sketch.</desc>
    <g id="Page-1" stroke="none" stroke-width="1" fill="none" fill-rule="evenodd">
        <g id="JOIN-NOW" transform="translate(-422.000000, -1389.000000)" fill-rule="nonzero">
            <g id="Group-13" transform="translate(200.000000, 1389.000000)">
                <g id="uniswap-io-vector-logo" transform="translate(222.000000, 0.000000)">
                    <g id="uniswap-logo" fill="#DC6BE5">
                        <path d="M38.224756,8.97391304 C37.4053996,9.73913043 36.0873046,9.70434783 35.3035724,8.90434783 L33.166121,6.74782609 C30.0311923,3.54782609 24.8300605,3.44347826 21.5170108,6.46956522 L7.23171059,19.6521739 L20.7689028,19.9652174 C21.9088769,20 22.7994817,20.9043478 22.7638575,22.0173913 C22.7282333,23.1304348 21.8020043,24 20.6620303,23.9652174 L2.13745141,23.5130435 C0.997477323,23.4782609 0.10687257,22.573913 0.14249676,21.4608696 L0.605611232,3.54782609 C0.641235422,2.43478261 1.56746436,1.56521739 2.70743845,1.6 C3.84741253,1.63478261 4.73801728,2.53913043 4.70239309,3.65217391 L4.38177538,16.7652174 L18.6670756,3.5826087 C23.618838,-0.973913043 31.4205357,-0.765217391 36.1229288,4 L38.2603802,6.15652174 C39.0797365,6.95652174 39.0441123,8.20869565 38.224756,8.97391304 Z" id="Path"></path>
                        <path d="M6.59047517,27.4782609 C7.40983154,26.7130435 8.72792657,26.7478261 9.51165876,27.5478261 L11.6491102,29.7043478 C14.7840389,32.9043478 19.9851706,33.0086957 23.2982203,29.9826087 L37.5835206,16.8 L24.0463283,16.4869565 C22.9063542,16.4521739 22.0157495,15.5478261 22.0513737,14.4347826 C22.0869979,13.3217391 23.0132268,12.4521739 24.1532009,12.4869565 L42.6777797,12.9391304 C43.8177538,12.973913 44.7083586,13.8782609 44.6727344,14.9913043 L44.2096199,32.9043478 C44.1739957,34.0173913 43.2477668,34.8869565 42.1077927,34.8521739 C40.9678186,34.8173913 40.0772139,33.9130435 40.1128381,32.8 L40.4334558,19.6869565 L26.1481555,32.8695652 C21.1963931,37.426087 13.3946955,37.2173913 8.69230238,32.4521739 L6.55485098,30.2956522 C5.73549461,29.4956522 5.7711188,28.2434783 6.59047517,27.4782609 Z" id="Path_1_"></path>
                    </g>
                    <path d="M73.1829286,6.92173913 L77.1728379,6.92173913 L77.1728379,23.8956522 C77.1728379,25.8086957 76.7097234,27.4782609 75.7478703,28.8347826 C74.8216414,30.1913043 73.5391705,31.2347826 71.9717061,31.9304348 C70.3686176,32.6608696 68.6230323,33.0086957 66.6637018,33.0086957 C64.7043714,33.0086957 62.958786,32.6608696 61.3556975,31.9304348 C59.7526089,31.2 58.5057623,30.1913043 57.5795333,28.8347826 C56.6533044,27.4782609 56.1545657,25.8434783 56.1545657,23.8956522 L56.1545657,6.92173913 L60.144475,6.92173913 L60.144475,23.826087 C60.144475,25.0434783 60.4294686,26.0521739 61.0350798,26.8869565 C61.640691,27.7217391 62.4244232,28.3478261 63.4219005,28.8 C64.4193778,29.2521739 65.4881035,29.4608696 66.6637018,29.4608696 C67.8393001,29.4608696 68.94365,29.2521739 69.9411273,28.8 C70.9386046,28.3826087 71.7223368,27.7217391 72.327948,26.8869565 C72.9335593,26.0521739 73.2185528,25.0434783 73.2185528,23.826087 L73.2185528,6.92173913 L73.1829286,6.92173913 Z M86.5419999,21.1478261 L86.5419999,32.5565217 L82.6945874,32.5565217 L82.6945874,13.3217391 L86.3995031,13.3217391 L86.3995031,16.4521739 L86.6488725,16.4521739 C87.1119869,15.4434783 87.8244707,14.6086957 88.7863239,13.9826087 C89.748177,13.3565217 90.9950237,13.0434783 92.4912396,13.0434783 C94.5218185,13.0434783 96.1605312,13.6695652 97.4073779,14.8869565 C98.6542245,16.1043478 99.2598358,17.9130435 99.2598358,20.3130435 L99.2598358,32.5565217 L95.4124232,32.5565217 L95.4124232,20.7652174 C95.4124232,19.373913 95.0205571,18.2956522 94.2724491,17.4956522 C93.5243412,16.6956522 92.4912396,16.3130435 91.1731446,16.3130435 C89.8194254,16.3130435 88.7150755,16.7304348 87.8600949,17.5652174 C86.9694902,18.4347826 86.5419999,19.6173913 86.5419999,21.1478261 Z M104.425343,32.5565217 L104.425343,13.3217391 L108.272756,13.3217391 L108.272756,32.5565217 L104.425343,32.5565217 Z M106.384674,10.4695652 C105.707814,10.4695652 105.137827,10.2608696 104.674713,9.80869565 C104.175974,9.39130435 103.962229,8.83478261 103.962229,8.24347826 C103.962229,7.6173913 104.211598,7.09565217 104.674713,6.64347826 C105.173451,6.19130435 105.743438,5.9826087 106.384674,5.9826087 C107.025909,5.9826087 107.63152,6.19130435 108.094635,6.64347826 C108.593374,7.09565217 108.807119,7.6173913 108.807119,8.24347826 C108.807119,8.86956522 108.557749,9.39130435 108.094635,9.80869565 C107.595896,10.2608696 107.025909,10.4695652 106.384674,10.4695652 Z M128.329175,18.0173913 L124.838004,18.6086957 C124.624259,17.9826087 124.196769,17.3913043 123.591158,16.8347826 C122.985546,16.3130435 122.094942,16.0347826 120.883719,16.0347826 C119.779369,16.0347826 118.888765,16.2782609 118.140657,16.7304348 C117.392549,17.2173913 117.036307,17.8086957 117.036307,18.5391304 C117.036307,19.2 117.285676,19.7217391 117.74879,20.1043478 C118.247529,20.4869565 119.031261,20.8 120.135611,21.0782609 L123.27054,21.773913 C126.904207,22.573913 128.685417,24.3130435 128.685417,26.9913043 C128.685417,28.1391304 128.329175,29.1826087 127.652315,30.0869565 C126.975456,30.9913043 126.013603,31.6869565 124.80238,32.173913 C123.591158,32.6608696 122.16619,32.9391304 120.563101,32.9391304 C118.318777,32.9391304 116.501944,32.4869565 115.1126,31.5478261 C113.723257,30.6086957 112.868276,29.3217391 112.512034,27.6173913 L116.252574,27.0608696 C116.715689,28.973913 118.140657,29.9130435 120.527477,29.9130435 C121.809948,29.9130435 122.807425,29.6695652 123.555533,29.1478261 C124.303641,28.626087 124.695507,28 124.695507,27.2695652 C124.695507,26.0521739 123.769279,25.2173913 121.881196,24.8347826 L118.532523,24.1043478 C116.680065,23.6869565 115.290721,23.0608696 114.435741,22.1565217 C113.545136,21.2521739 113.117646,20.1391304 113.117646,18.7478261 C113.117646,17.6 113.438263,16.626087 114.115123,15.7565217 C114.756358,14.8869565 115.682587,14.226087 116.822561,13.773913 C117.962536,13.2869565 119.280631,13.0434783 120.812471,13.0434783 C122.949922,13.0434783 124.659883,13.4956522 125.871106,14.4 C127.153577,15.3391304 127.937309,16.5217391 128.329175,18.0173913 Z M137.270847,32.5565217 L131.428479,13.3217391 L135.418389,13.3217391 L139.301425,27.4782609 L139.479546,27.4782609 L143.398207,13.3565217 L147.388117,13.3565217 L151.271153,27.4086957 L151.449274,27.4086957 L155.296687,13.3565217 L159.286596,13.3565217 L153.444229,32.5913043 L149.489944,32.5913043 L145.46441,18.7130435 L145.179417,18.7130435 L141.153883,32.5913043 L137.270847,32.5913043 L137.270847,32.5565217 Z M168.762631,33.0086957 C167.515784,33.0086957 166.37581,32.8 165.342708,32.3478261 C164.345231,31.8956522 163.525875,31.2347826 162.920263,30.3652174 C162.314652,29.4956522 162.029659,28.4173913 162.029659,27.1652174 C162.029659,26.0869565 162.243404,25.1826087 162.670894,24.4869565 C163.098384,23.7913043 163.703996,23.2347826 164.416479,22.8173913 C165.128963,22.4 165.94832,22.0869565 166.874549,21.9130435 C167.765153,21.7043478 168.691382,21.5652174 169.653235,21.426087 C169.831356,21.426087 169.973853,21.3913043 170.151974,21.3913043 C170.294471,21.3913043 170.472592,21.3565217 170.615089,21.3565217 C172.040056,21.1826087 173.073158,21.0434783 173.714393,20.8695652 C174.355628,20.6956522 174.676246,20.3130435 174.640622,19.6869565 C174.640622,18.573913 174.320004,17.7391304 173.714393,17.1130435 C173.108782,16.4869565 172.146929,16.2086957 170.900082,16.2086957 C169.581987,16.2086957 168.58451,16.4869565 167.836402,17.0434783 C167.088294,17.6 166.589555,18.226087 166.304562,18.8869565 L162.670894,18.0869565 C163.31213,16.3478261 164.380855,15.0608696 165.912695,14.3304348 C167.408911,13.5652174 169.083248,13.1826087 170.900082,13.1826087 C171.683814,13.1826087 172.503171,13.2869565 173.393775,13.4608696 C174.28438,13.6347826 175.103736,13.9826087 175.923093,14.4347826 C176.706825,14.9217391 177.34806,15.5826087 177.846799,16.4869565 C178.345538,17.3565217 178.594907,18.5043478 178.594907,19.8956522 L178.594907,32.6608696 L174.818743,32.6608696 L174.818743,30.0173913 L174.676246,30.0173913 C174.320004,30.7478261 173.643145,31.4086957 172.716916,32.0695652 C171.719438,32.6608696 170.401343,33.0086957 168.762631,33.0086957 Z M169.617611,29.9826087 C170.686337,29.9826087 171.612566,29.773913 172.360674,29.3565217 C173.108782,28.9391304 173.714393,28.4173913 174.106259,27.7565217 C174.498125,27.0956522 174.71187,26.3652174 174.71187,25.6347826 L174.71187,23.1652174 C174.533749,23.3391304 174.106259,23.4782609 173.500648,23.6173913 C172.895037,23.7565217 172.253801,23.8608696 171.576942,23.9652174 C170.900082,24.0695652 170.330095,24.1391304 169.938229,24.173913 C168.833879,24.3130435 167.872026,24.5913043 167.05267,25.0434783 C166.268937,25.4608696 165.841447,26.1913043 165.841447,27.2 C165.841447,28.1391304 166.197689,28.8347826 166.910173,29.2869565 C167.622657,29.7391304 168.513261,29.9826087 169.617611,29.9826087 Z M193.521443,32.9391304 C192.31022,32.9391304 191.312743,32.7304348 190.564635,32.3478261 C189.816527,31.9652174 189.210916,31.5130435 188.783425,30.9565217 C188.355935,30.4347826 188.035317,29.9478261 187.785948,29.5652174 L187.536579,29.5652174 L187.536579,39.7565217 L183.689166,39.7565217 L183.689166,13.3217391 L187.46533,13.3217391 L187.46533,16.4521739 L187.785948,16.4521739 C188.035317,16.0695652 188.355935,15.5826087 188.747801,15.0608696 C189.139667,14.5391304 189.745279,14.0521739 190.493387,13.6695652 C191.241495,13.2869565 192.238972,13.0782609 193.450194,13.0782609 C195.053283,13.0782609 196.478251,13.4608696 197.725097,14.2608696 C198.971944,15.0608696 199.969421,16.173913 200.681905,17.6695652 C201.394389,19.1304348 201.750631,20.9391304 201.750631,22.9913043 C201.750631,25.0434783 201.394389,26.8521739 200.681905,28.3478261 C199.969421,29.8434783 198.971944,30.9565217 197.725097,31.7565217 C196.478251,32.5565217 195.124531,32.9391304 193.521443,32.9391304 Z M192.666462,29.7391304 C193.806436,29.7391304 194.803914,29.426087 195.552022,28.8347826 C196.30013,28.2434783 196.905741,27.4086957 197.333231,26.4 C197.725097,25.3565217 197.938842,24.2086957 197.938842,22.9217391 C197.938842,21.6347826 197.725097,20.4869565 197.333231,19.5130435 C196.941365,18.5043478 196.371378,17.7043478 195.587646,17.1130435 C194.803914,16.5217391 193.84206,16.2434783 192.666462,16.2434783 C190.992125,16.2434783 189.709654,16.8695652 188.81905,18.0869565 C187.928445,19.3043478 187.500955,20.9391304 187.500955,22.9217391 C187.500955,24.9391304 187.964069,26.573913 188.854674,27.826087 C189.709654,29.1130435 190.992125,29.7391304 192.666462,29.7391304 Z" id="Uniswap" fill="#262223"></path>
                </g>
            </g>
        </g>
    </g>
</svg>