<svg width="249" height="389" viewBox="0 0 249 389" fill="none" xmlns="http://www.w3.org/2000/svg">
	<g opacity="0.6">
		<path d="M235.164 53.2039L235.164 108.773H207.945V157.209H181.963V100.895L132.318 100.895L132.318 181.619" stroke="#BCA9FF" stroke-width="0.5" />
		<path fill-rule="evenodd" clip-rule="evenodd" d="M106.748 192.071C114.229 192.071 120.293 197.769 120.293 204.797C120.293 211.825 114.229 217.523 106.748 217.523C99.2675 217.523 93.2031 211.825 93.2031 204.797C93.2031 197.769 99.2675 192.071 106.748 192.071Z" stroke="#BCA9FF" />
		<path fill-rule="evenodd" clip-rule="evenodd" d="M187.382 268.222C191.465 268.222 194.775 271.332 194.775 275.169C194.775 279.004 191.465 282.114 187.382 282.114C183.299 282.114 179.988 279.004 179.988 275.169C179.988 271.332 183.299 268.222 187.382 268.222Z" stroke="#BCA9FF" stroke-width="2" />
		<path fill-rule="evenodd" clip-rule="evenodd" d="M71.5072 230.931C75.5899 230.931 78.9003 234.041 78.9003 237.878C78.9003 241.713 75.5899 244.824 71.5072 244.824C67.4236 244.824 64.1133 241.713 64.1133 237.878C64.1133 234.041 67.4236 230.931 71.5072 230.931Z" stroke="#BCA9FF" stroke-width="2" />
		<path d="M157.848 288.325V275.486H187.381V253.112L156.403 253.112V237.161H71.3438L71.3438 265.361H127.489" stroke="#BCA9FF" stroke-width="0.5" stroke-linecap="round" stroke-linejoin="round" />
		<path d="M157.849 348.72V283.077" stroke="#BCA9FF" stroke-width="0.5" stroke-linecap="round" stroke-linejoin="round" />
		<path fill-rule="evenodd" clip-rule="evenodd" d="M156.402 224.315C163.883 224.315 169.948 230.013 169.948 237.041C169.948 244.069 163.883 249.767 156.402 249.767C148.922 249.767 142.857 244.069 142.857 237.041C142.857 230.013 148.922 224.315 156.402 224.315Z" stroke="#BCA9FF" />
		<path fill-rule="evenodd" clip-rule="evenodd" d="M157.273 330.992C167.496 330.992 175.784 338.779 175.784 348.384C175.784 357.99 167.496 365.775 157.273 365.775C147.049 365.775 138.762 357.99 138.762 348.384C138.762 338.779 147.049 330.992 157.273 330.992Z" stroke="#BCA9FF" />
		<path fill-rule="evenodd" clip-rule="evenodd" d="M187.382 273.316C188.47 273.316 189.352 274.145 189.352 275.168C189.352 276.19 188.47 277.019 187.382 277.019C186.293 277.019 185.41 276.19 185.41 275.168C185.41 274.145 186.293 273.316 187.382 273.316Z" fill="#BCA9FF" />
		<path fill-rule="evenodd" clip-rule="evenodd" d="M156.404 202.945C157.492 202.945 158.376 203.774 158.376 204.797C158.376 205.82 157.492 206.649 156.404 206.649C155.316 206.649 154.434 205.82 154.434 204.797C154.434 203.774 155.316 202.945 156.404 202.945Z" fill="#BCA9FF" />
		<path fill-rule="evenodd" clip-rule="evenodd" d="M155.672 179.768C156.76 179.768 157.643 180.597 157.643 181.619C157.643 182.642 156.76 183.471 155.672 183.471C154.583 183.471 153.701 182.642 153.701 181.619C153.701 180.597 154.583 179.768 155.672 179.768Z" fill="#BCA9FF" />
		<path fill-rule="evenodd" clip-rule="evenodd" d="M127.306 262.881C128.749 262.881 129.918 263.98 129.918 265.336C129.918 266.692 128.749 267.791 127.306 267.791C125.863 267.791 124.693 266.692 124.693 265.336C124.693 263.98 125.863 262.881 127.306 262.881Z" fill="#BCA9FF" />
		<path fill-rule="evenodd" clip-rule="evenodd" d="M71.5079 262.881C72.9511 262.881 74.1204 263.98 74.1204 265.336C74.1204 266.692 72.9511 267.791 71.5079 267.791C70.0647 267.791 68.8945 266.692 68.8945 265.336C68.8945 263.98 70.0647 262.881 71.5079 262.881Z" fill="#BCA9FF" />
		<path fill-rule="evenodd" clip-rule="evenodd" d="M71.5079 235.462C72.9511 235.462 74.1204 236.561 74.1204 237.917C74.1204 239.273 72.9511 240.371 71.5079 240.371C70.0647 240.371 68.8945 239.273 68.8945 237.917C68.8945 236.561 70.0647 235.462 71.5079 235.462Z" fill="#BCA9FF" />
		<path fill-rule="evenodd" clip-rule="evenodd" d="M156.403 234.938C157.847 234.938 159.017 236.038 159.017 237.394C159.017 238.749 157.847 239.848 156.403 239.848C154.96 239.848 153.791 238.749 153.791 237.394C153.791 236.038 154.96 234.938 156.403 234.938Z" fill="#BCA9FF" />
		<path fill-rule="evenodd" clip-rule="evenodd" d="M227.106 180.326C227.876 179.603 229.125 179.603 229.894 180.326C230.664 181.049 230.664 182.222 229.894 182.945C229.125 183.668 227.876 183.668 227.106 182.945C226.337 182.222 226.337 181.049 227.106 180.326Z" fill="#A375FC" />
		<path fill-rule="evenodd" clip-rule="evenodd" d="M235.426 41.0086C241.825 41.0086 247.013 45.8818 247.013 51.8947C247.013 57.9067 241.825 62.7798 235.426 62.7798C229.028 62.7798 223.84 57.9067 223.84 51.8947C223.84 45.8818 229.028 41.0086 235.426 41.0086Z" stroke="#BCA9FF" />
		<path fill-rule="evenodd" clip-rule="evenodd" d="M234.231 50.5847C235.002 49.8616 236.25 49.8616 237.019 50.5847C237.789 51.3077 237.789 52.4807 237.019 53.2038C236.25 53.9268 235.002 53.9268 234.231 53.2038C233.462 52.4807 233.462 51.3077 234.231 50.5847Z" fill="#A375FC" />
		<path fill-rule="evenodd" clip-rule="evenodd" d="M207.021 107.898C207.79 107.175 209.039 107.175 209.808 107.898C210.578 108.621 210.578 109.794 209.808 110.517C209.039 111.24 207.79 111.24 207.021 110.517C206.251 109.794 206.251 108.621 207.021 107.898Z" fill="#A375FC" />
		<path fill-rule="evenodd" clip-rule="evenodd" d="M181.149 99.5855C181.919 98.8624 183.168 98.8624 183.937 99.5855C184.707 100.309 184.707 101.482 183.937 102.205C183.168 102.928 181.919 102.928 181.149 102.205C180.38 101.482 180.38 100.309 181.149 99.5855Z" fill="#A375FC" />
		<path fill-rule="evenodd" clip-rule="evenodd" d="M131.576 179.164C133.02 179.164 134.189 180.264 134.189 181.62C134.189 182.976 133.02 184.074 131.576 184.074C130.133 184.074 128.963 182.976 128.963 181.62C128.963 180.264 130.133 179.164 131.576 179.164Z" fill="#BCA9FF" />
		<path fill-rule="evenodd" clip-rule="evenodd" d="M106.748 202.265C108.191 202.265 109.361 203.364 109.361 204.72C109.361 206.076 108.191 207.175 106.748 207.175C105.305 207.175 104.135 206.076 104.135 204.72C104.135 203.364 105.305 202.265 106.748 202.265Z" fill="#BCA9FF" />
		<path d="M110.182 348.384H219.638V376.548" stroke="#BCA9FF" stroke-width="0.5" stroke-linecap="round" stroke-linejoin="round" />
		<path fill-rule="evenodd" clip-rule="evenodd" d="M156.812 347.075C157.581 346.352 158.83 346.352 159.599 347.075C160.369 347.798 160.369 348.97 159.599 349.693C158.83 350.417 157.581 350.417 156.812 349.693C156.042 348.97 156.042 347.798 156.812 347.075Z" fill="#A375FC" />
		<path fill-rule="evenodd" clip-rule="evenodd" d="M110.181 341.773C114.264 341.773 117.574 344.883 117.574 348.72C117.574 352.555 114.264 355.665 110.181 355.665C106.097 355.665 102.787 352.555 102.787 348.72C102.787 344.883 106.097 341.773 110.181 341.773Z" stroke="#BCA9FF" stroke-width="2" />
		<path fill-rule="evenodd" clip-rule="evenodd" d="M132.318 98.44C133.761 98.44 134.931 99.5394 134.931 100.895C134.931 102.251 133.761 103.35 132.318 103.35C130.874 103.35 129.705 102.251 129.705 100.895C129.705 99.5394 130.874 98.44 132.318 98.44Z" fill="#BCA9FF" />
		<path d="M110.181 348.72V375.904" stroke="#BCA9FF" stroke-width="0.5" stroke-linecap="round" stroke-linejoin="round" />
		<path fill-rule="evenodd" clip-rule="evenodd" d="M108.786 347.075C109.556 346.352 110.804 346.352 111.574 347.075C112.343 347.798 112.343 348.97 111.574 349.693C110.804 350.417 109.556 350.417 108.786 349.693C108.017 348.97 108.017 347.798 108.786 347.075Z" fill="#A375FC" />
		<path fill-rule="evenodd" clip-rule="evenodd" d="M108.786 376.781C109.556 376.058 110.804 376.058 111.574 376.781C112.343 377.504 112.343 378.677 111.574 379.4C110.804 380.123 109.556 380.123 108.786 379.4C108.017 378.677 108.017 377.504 108.786 376.781Z" fill="#A375FC" />
		<path fill-rule="evenodd" clip-rule="evenodd" d="M217.78 373.929C218.55 373.206 219.798 373.206 220.568 373.929C221.338 374.652 221.338 375.824 220.568 376.547C219.798 377.27 218.55 377.27 217.78 376.547C217.011 375.824 217.011 374.652 217.78 373.929Z" fill="#A375FC" />
		<path fill-rule="evenodd" clip-rule="evenodd" d="M219.637 362.512C227.117 362.512 233.182 368.21 233.182 375.239C233.182 382.266 227.117 387.965 219.637 387.965C212.156 387.965 206.092 382.266 206.092 375.239C206.092 368.21 212.156 362.512 219.637 362.512Z" stroke="#BCA9FF" />
		<path d="M219.638 327.924V348.384" stroke="#BCA9FF" stroke-width="0.5" stroke-linecap="round" stroke-linejoin="round" />
		<path fill-rule="evenodd" clip-rule="evenodd" d="M219.637 324.22C220.726 324.22 221.609 325.049 221.609 326.073C221.609 327.095 220.726 327.924 219.637 327.924C218.549 327.924 217.666 327.095 217.666 326.073C217.666 325.049 218.549 324.22 219.637 324.22Z" fill="#BCA9FF" />
		<path fill-rule="evenodd" clip-rule="evenodd" d="M181.03 155.816C181.8 155.093 183.048 155.093 183.818 155.816C184.588 156.539 184.588 157.712 183.818 158.435C183.048 159.158 181.8 159.158 181.03 158.435C180.261 157.712 180.261 156.539 181.03 155.816Z" fill="#A375FC" />
		<path fill-rule="evenodd" clip-rule="evenodd" d="M207.021 155.816C207.79 155.093 209.039 155.093 209.808 155.816C210.578 156.539 210.578 157.712 209.808 158.435C209.039 159.158 207.79 159.158 207.021 158.435C206.251 157.712 206.251 156.539 207.021 155.816Z" fill="#A375FC" />
		<path d="M97.5285 134.434L97.5285 83.9957H114.507L114.507 4.0791H84.4922L84.4922 56.8287" stroke="#BCA9FF" stroke-width="0.5" stroke-linecap="round" stroke-linejoin="round" />
		<path fill-rule="evenodd" clip-rule="evenodd" d="M87.1302 56.6575C87.1302 58.0135 85.9609 59.1129 84.5177 59.1129C83.0745 59.1129 81.9043 58.0135 81.9043 56.6575C81.9043 55.3016 83.0745 54.2021 84.5177 54.2021C85.9609 54.2021 87.1302 55.3016 87.1302 56.6575Z" fill="#BCA9FF" />
		<path fill-rule="evenodd" clip-rule="evenodd" d="M87.1302 4.23295C87.1302 5.58889 85.9609 6.68835 84.5177 6.68835C83.0745 6.68835 81.9043 5.58889 81.9043 4.23295C81.9043 2.87701 83.0745 1.77755 84.5177 1.77755C85.9609 1.77755 87.1302 2.87701 87.1302 4.23295Z" fill="#BCA9FF" />
		<path fill-rule="evenodd" clip-rule="evenodd" d="M134.931 134.434C134.931 135.79 133.761 136.889 132.318 136.889C130.874 136.889 129.705 135.79 129.705 134.434C129.705 133.078 130.874 131.979 132.318 131.979C133.761 131.979 134.931 133.078 134.931 134.434Z" fill="#BCA9FF" />
		<path d="M97.1152 134.434H123.246" stroke="#BCA9FF" stroke-width="0.5" stroke-linecap="round" stroke-linejoin="round" />
		<path fill-rule="evenodd" clip-rule="evenodd" d="M47.4223 95.1916C51.506 95.1916 54.8163 98.3017 54.8163 102.138C54.8163 105.973 51.506 109.084 47.4223 109.084C43.3396 109.084 40.0293 105.973 40.0293 102.138C40.0293 98.3017 43.3396 95.1916 47.4223 95.1916Z" stroke="#BCA9FF" stroke-width="2" />
		<path d="M132.319 101.422L47.2598 101.422" stroke="#BCA9FF" stroke-width="0.5" stroke-linecap="round" stroke-linejoin="round" />
		<path fill-rule="evenodd" clip-rule="evenodd" d="M47.423 99.7222C48.8662 99.7222 50.0364 100.822 50.0364 102.178C50.0364 103.534 48.8662 104.632 47.423 104.632C45.9798 104.632 44.8105 103.534 44.8105 102.178C44.8105 100.822 45.9798 99.7222 47.423 99.7222Z" fill="#BCA9FF" />
		<path fill-rule="evenodd" clip-rule="evenodd" d="M3.92614 286.198C5.78851 286.198 7.29758 287.633 7.29758 289.402C7.29758 291.173 5.78851 292.607 3.92614 292.607C2.06376 292.607 0.554688 291.173 0.554688 289.402C0.554688 287.633 2.06376 286.198 3.92614 286.198Z" fill="#BCA9FF" />
		<path d="M29.5548 312.603L29.5548 300.995H3.8418L3.8418 290.305" stroke="#BCA9FF" stroke-linecap="round" stroke-linejoin="round" />
		<path fill-rule="evenodd" clip-rule="evenodd" d="M29.5086 309.066C32.6874 309.066 35.2642 311.515 35.2642 314.535C35.2642 317.556 32.6874 320.005 29.5086 320.005C26.3298 320.005 23.7539 317.556 23.7539 314.535C23.7539 311.515 26.3298 309.066 29.5086 309.066Z" stroke="#BCA9FF" stroke-width="0.536" />
		<path fill-rule="evenodd" clip-rule="evenodd" d="M27.6543 312.687C28.7039 311.689 30.4056 311.689 31.4551 312.687C32.5046 313.684 32.5046 315.302 31.4551 316.299C30.4056 317.296 28.7039 317.296 27.6543 316.299C26.6048 315.302 26.6048 313.684 27.6543 312.687Z" fill="#A375FC" />
		<path fill-rule="evenodd" clip-rule="evenodd" d="M59.6161 305.023C68.3233 305.023 75.3806 311.731 75.3806 320.005C75.3806 328.279 68.3233 334.987 59.6161 334.987C50.9097 334.987 43.8516 328.279 43.8516 320.005C43.8516 311.731 50.9097 305.023 59.6161 305.023Z" stroke="#BCA9FF" stroke-width="1.017" stroke-linecap="round" stroke-dasharray="0.38 1.87" />
		<path fill-rule="evenodd" clip-rule="evenodd" d="M33.601 340.936C37.9546 340.936 41.4833 344.291 41.4833 348.427C41.4833 352.565 37.9546 355.918 33.601 355.918C29.2483 355.918 25.7188 352.565 25.7188 348.427C25.7188 344.291 29.2483 340.936 33.601 340.936Z" stroke="#BCA9FF" stroke-width="1.017" stroke-linecap="round" stroke-dasharray="0.51 1.53" />
		<path fill-rule="evenodd" clip-rule="evenodd" d="M15.5592 332.555C18.098 332.555 20.1556 334.511 20.1556 336.923C20.1556 339.336 18.098 341.292 15.5592 341.292C13.0213 341.292 10.9629 339.336 10.9629 336.923C10.9629 334.511 13.0213 332.555 15.5592 332.555Z" stroke="#BCA9FF" stroke-width="1.017" stroke-linecap="round" />
		<path d="M59.6175 343.928V325.142" stroke="#BCA9FF" stroke-linecap="round" stroke-linejoin="round" />
		<path fill-rule="evenodd" clip-rule="evenodd" d="M59.6163 322.232C60.7609 322.232 61.6886 323.114 61.6886 324.201C61.6886 325.289 60.7609 326.171 59.6163 326.171C58.4718 326.171 57.5449 325.289 57.5449 324.201C57.5449 323.114 58.4718 322.232 59.6163 322.232Z" fill="#BCA9FF" />
		<path fill-rule="evenodd" clip-rule="evenodd" d="M59.6166 342.286C60.7602 342.286 61.6871 343.167 61.6871 344.254C61.6871 345.341 60.7602 346.222 59.6166 346.222C58.4737 346.222 57.5469 345.341 57.5469 344.254C57.5469 343.167 58.4737 342.286 59.6166 342.286Z" fill="#BCA9FF" />
	</g>
</svg>
