<?xml version="1.0" encoding="UTF-8"?>
<svg width="379px" height="218px" viewBox="0 0 379 218" version="1.1" xmlns="http://www.w3.org/2000/svg" xmlns:xlink="http://www.w3.org/1999/xlink">
    <!-- Generator: Sketch 54 (76480) - https://sketchapp.com -->
    <title>Group 8 Copy</title>
    <desc>Created with Sketch.</desc>
    <g id="Page-1" stroke="none" stroke-width="1" fill="none" fill-rule="evenodd" opacity="0.102050781">
        <g id="Company" transform="translate(-13.000000, -515.000000)">
            <g id="Component/Whyorchid" transform="translate(0.000000, 486.000000)">
                <g id="Group-8-Copy" transform="translate(204.000000, 139.500000) scale(-1, -1) translate(-204.000000, -139.500000) translate(13.000000, 29.000000)">
                    <g id="Group-95" transform="translate(13.000000, 0.903071)">
                        <polyline id="Stroke-1" stroke="#7A6D93" stroke-width="0.5" points="320.65264 208.271468 268.986912 208.271468 268.986912 184.494864 223.953468 184.494864 223.953468 161.798276 276.311805 161.798276 276.311805 118.431652 201.257694 118.431652"></polyline>
                        <g id="Group-94" transform="translate(0.000000, 0.535531)">
                            <path d="M191.540246,95.5604054 C191.540246,102.095024 186.242721,107.39255 179.708102,107.39255 C173.173483,107.39255 167.875958,102.095024 167.875958,95.5604054 C167.875958,89.0257867 173.173483,83.7282612 179.708102,83.7282612 C186.242721,83.7282612 191.540246,89.0257867 191.540246,95.5604054 Z" id="Stroke-4" stroke="#7A6D93"></path>
                            <path d="M120.738479,165.996579 C120.738479,169.562988 117.846774,172.454693 114.279551,172.454693 C110.713956,172.454693 107.822251,169.562988 107.822251,165.996579 C107.822251,162.429356 110.713956,159.537651 114.279551,159.537651 C117.846774,159.537651 120.738479,162.429356 120.738479,165.996579 Z" id="Stroke-6" stroke="#7A6D93" stroke-width="2"></path>
                            <path d="M155.410129,64.7761579 C155.410129,68.3425671 152.518424,71.2342721 148.951201,71.2342721 C145.384792,71.2342721 142.493087,68.3425671 142.493087,64.7761579 C142.493087,61.2089349 145.384792,58.3172299 148.951201,58.3172299 C152.518424,58.3172299 155.410129,61.2089349 155.410129,64.7761579 Z" id="Stroke-8" stroke="#7A6D93" stroke-width="2"></path>
                            <polyline id="Stroke-10" stroke="#7A6D93" stroke-width="0.5" stroke-linecap="round" stroke-linejoin="round" points="102.047142 140.198061 113.984277 140.198061 113.984277 165.996335 134.786973 165.996335 134.786973 138.935737 149.617441 138.935737 149.617441 64.6328342 123.398392 64.6328342 123.398392 113.677878"></polyline>
                            <path d="M45.8951617,140.198061 L106.926986,140.198061" id="Stroke-12" stroke="#7A6D93" stroke-width="0.5" stroke-linecap="round" stroke-linejoin="round"></path>
                            <path d="M161.561086,138.935575 C161.561086,145.470193 156.26356,150.768533 149.728942,150.768533 C143.194323,150.768533 137.896797,145.470193 137.896797,138.935575 C137.896797,132.400956 143.194323,127.10343 149.728942,127.10343 C156.26356,127.10343 161.561086,132.400956 161.561086,138.935575 Z" id="Stroke-16" stroke="#7A6D93"></path>
                            <path d="M62.3769854,139.695736 C62.3769854,148.626408 55.1375492,155.865844 46.2068766,155.865844 C37.276204,155.865844 30.0375817,148.626408 30.0375817,139.695736 C30.0375817,130.765063 37.276204,123.525627 46.2068766,123.525627 C55.1375492,123.525627 62.3769854,130.765063 62.3769854,139.695736 Z" id="Stroke-18" stroke="#7A6D93"></path>
                            <path d="M116.002285,165.996579 C116.002285,166.947187 115.231543,167.717929 114.280121,167.717929 C113.329512,167.717929 112.558771,166.947187 112.558771,165.996579 C112.558771,165.04597 113.329512,164.274415 114.280121,164.274415 C115.231543,164.274415 116.002285,165.04597 116.002285,165.996579" id="Fill-20" fill="#BCA9FF"></path>
                            <path d="M181.429533,138.935575 C181.429533,139.886183 180.658792,140.657738 179.708183,140.657738 C178.756761,140.657738 177.98602,139.886183 177.98602,138.935575 C177.98602,137.984966 178.756761,137.214225 179.708183,137.214225 C180.658792,137.214225 181.429533,137.984966 181.429533,138.935575" id="Fill-22" fill="#BCA9FF"></path>
                            <path d="M202.979044,138.296925 C202.979044,139.247534 202.208302,140.019089 201.257694,140.019089 C200.306271,140.019089 199.536344,139.247534 199.536344,138.296925 C199.536344,137.346317 200.306271,136.575575 201.257694,136.575575 C202.208302,136.575575 202.979044,137.346317 202.979044,138.296925" id="Fill-24" fill="#BCA9FF"></path>
                            <path d="M125.703617,113.518195 C125.703617,114.778891 124.682202,115.800306 123.421506,115.800306 C122.160811,115.800306 121.139395,114.778891 121.139395,113.518195 C121.139395,112.2575 122.160811,111.236084 123.421506,111.236084 C124.682202,111.236084 125.703617,112.2575 125.703617,113.518195" id="Fill-26" fill="#BCA9FF"></path>
                            <path d="M125.703617,64.7761579 C125.703617,66.0368535 124.682202,67.0582691 123.421506,67.0582691 C122.160811,67.0582691 121.139395,66.0368535 121.139395,64.7761579 C121.139395,63.5154624 122.160811,62.4932329 123.421506,62.4932329 C124.682202,62.4932329 125.703617,63.5154624 125.703617,64.7761579" id="Fill-28" fill="#BCA9FF"></path>
                            <path d="M151.196932,64.7761579 C151.196932,66.0368535 150.175516,67.0582691 148.91482,67.0582691 C147.654125,67.0582691 146.632709,66.0368535 146.632709,64.7761579 C146.632709,63.5154624 147.654125,62.4932329 148.91482,62.4932329 C150.175516,62.4932329 151.196932,63.5154624 151.196932,64.7761579" id="Fill-30" fill="#BCA9FF"></path>
                            <path d="M151.684118,138.935575 C151.684118,140.19627 150.661889,141.2185 149.401193,141.2185 C148.140498,141.2185 147.119082,140.19627 147.119082,138.935575 C147.119082,137.674879 148.140498,136.653463 149.401193,136.653463 C150.661889,136.653463 151.684118,137.674879 151.684118,138.935575" id="Fill-32" fill="#BCA9FF"></path>
                            <path d="M202.460034,200.698016 C203.132297,201.370279 203.132297,202.460874 202.460034,203.133136 C201.787772,203.805399 200.697177,203.805399 200.024914,203.133136 C199.352652,202.460874 199.352652,201.370279 200.024914,200.698016 C200.697177,200.025754 201.787772,200.025754 202.460034,200.698016" id="Fill-34" fill="#7A6D93"></path>
                            <path d="M331.991249,207.966427 C331.991249,213.556134 327.460395,218.087801 321.869874,218.087801 C316.280167,218.087801 311.749313,213.556134 311.749313,207.966427 C311.749313,202.376719 316.280167,197.845052 321.869874,197.845052 C327.460395,197.845052 331.991249,202.376719 331.991249,207.966427 Z" id="Stroke-36" stroke="#7A6D93"></path>
                            <path d="M12.7071646,7.87848863 C12.7071646,10.8174886 10.3241646,13.1994886 7.38616456,13.1994886 C4.44716456,13.1994886 2.06416456,10.8174886 2.06416456,7.87848863 C2.06416456,4.94048863 4.44716456,2.55748863 7.38616456,2.55748863 C10.3241646,2.55748863 12.7071646,4.94048863 12.7071646,7.87848863 Z" id="Stroke-13" stroke="#BCA9FF" stroke-width="1.017" stroke-linecap="round" transform="translate(7.385665, 7.878489) rotate(-150.000000) translate(-7.385665, -7.878489) "></path>
                            <path d="M323.087841,206.92206 C323.760104,207.595136 323.760104,208.684917 323.087841,209.35718 C322.415579,210.029442 321.324983,210.029442 320.652721,209.35718 C319.980459,208.684917 319.980459,207.595136 320.652721,206.92206 C321.324983,206.249797 322.415579,206.249797 323.087841,206.92206" id="Fill-38" fill="#7A6D93"></path>
                            <path d="M269.800382,183.15156 C270.472645,183.823823 270.472645,184.914418 269.800382,185.58668 C269.12812,186.258943 268.037525,186.258943 267.365262,185.58668 C266.693,184.914418 266.693,183.823823 267.365262,183.15156 C268.037525,182.479298 269.12812,182.479298 269.800382,183.15156" id="Fill-40" fill="#7A6D93"></path>
                            <path d="M277.52904,160.551741 C278.201302,161.224004 278.201302,162.314599 277.52904,162.986862 C276.856777,163.659124 275.766182,163.659124 275.09392,162.986862 C274.421657,162.314599 274.421657,161.224004 275.09392,160.551741 C275.766182,159.879479 276.856777,159.879479 277.52904,160.551741" id="Fill-42" fill="#7A6D93"></path>
                            <path d="M203.54013,117.248193 C203.54013,118.508889 202.517901,119.530305 201.257205,119.530305 C199.99651,119.530305 198.975094,118.508889 198.975094,117.248193 C198.975094,115.987498 199.99651,114.965268 201.257205,114.965268 C202.517901,114.965268 203.54013,115.987498 203.54013,117.248193" id="Fill-44" fill="#BCA9FF"></path>
                            <path d="M182.062241,95.5604054 C182.062241,96.8211009 181.040012,97.8425166 179.779316,97.8425166 C178.518621,97.8425166 177.497205,96.8211009 177.497205,95.5604054 C177.497205,94.2997099 178.518621,93.2774803 179.779316,93.2774803 C181.040012,93.2774803 182.062241,94.2997099 182.062241,95.5604054" id="Fill-46" fill="#BCA9FF"></path>
                            <polyline id="Stroke-48" stroke="#7A6D93" stroke-width="0.5" stroke-linecap="round" stroke-linejoin="round" points="46.2067952 98.5584028 46.2067952 194.172676 20.0219296 194.172676"></polyline>
                            <path d="M47.4243552,139.291971 C48.0966177,139.964234 48.0966177,141.054829 47.4243552,141.727091 C46.7520928,142.399354 45.6623115,142.399354 44.9900491,141.727091 C44.3169728,141.054829 44.3169728,139.964234 44.9900491,139.291971 C45.6623115,138.619709 46.7520928,138.619709 47.4243552,139.291971" id="Fill-50" fill="#7A6D93"></path>
                            <path d="M52.3537642,98.5584028 C52.3537642,102.124812 49.4620592,105.016517 45.8948361,105.016517 C42.3292409,105.016517 39.4375358,102.124812 39.4375358,98.5584028 C39.4375358,94.9911798 42.3292409,92.0994747 45.8948361,92.0994747 C49.4620592,92.0994747 52.3537642,94.9911798 52.3537642,98.5584028 Z" id="Stroke-52" stroke="#7A6D93" stroke-width="2"></path>
                            <path d="M278.594079,117.896365 C278.594079,119.157061 277.57185,120.17929 276.311154,120.17929 C275.050459,120.17929 274.029043,119.157061 274.029043,117.896365 C274.029043,116.63567 275.050459,115.614254 276.311154,115.614254 C277.57185,115.614254 278.594079,116.63567 278.594079,117.896365" id="Fill-54" fill="#BCA9FF"></path>
                            <path d="M45.8951617,98.5584028 L20.6202106,98.5584028" id="Stroke-56" stroke="#7A6D93" stroke-width="0.5" stroke-linecap="round" stroke-linejoin="round"></path>
                            <path d="M47.4243552,97.3407614 C48.0966177,98.0130238 48.0966177,99.103619 47.4243552,99.7758814 C46.7520928,100.448144 45.6623115,100.448144 44.9900491,99.7758814 C44.3169728,99.103619 44.3169728,98.0130238 44.9900491,97.3407614 C45.6623115,96.6684989 46.7520928,96.6684989 47.4243552,97.3407614" id="Fill-58" fill="#7A6D93"></path>
                            <path d="M19.8050314,97.3407614 C20.4772938,98.0130238 20.4772938,99.103619 19.8050314,99.7758814 C19.132769,100.448144 18.0421738,100.448144 17.3699113,99.7758814 C16.6976489,99.103619 16.6976489,98.0130238 17.3699113,97.3407614 C18.0421738,96.6684989 19.132769,96.6684989 19.8050314,97.3407614" id="Fill-60" fill="#7A6D93"></path>
                            <path d="M22.45648,192.55127 C23.1287424,193.223532 23.1287424,194.314128 22.45648,194.98639 C21.7842176,195.658653 20.6944362,195.658653 20.0221738,194.98639 C19.3499114,194.314128 19.3499114,193.223532 20.0221738,192.55127 C20.6944362,191.879008 21.7842176,191.879008 22.45648,192.55127" id="Fill-62" fill="#7A6D93"></path>
                            <path d="M33.071878,194.172676 C33.071878,200.707295 27.7735386,206.00482 21.23892,206.00482 C14.7051152,206.00482 9.40677574,200.707295 9.40677574,194.172676 C9.40677574,187.638057 14.7051152,182.340532 21.23892,182.340532 C27.7735386,182.340532 33.071878,187.638057 33.071878,194.172676 Z" id="Stroke-64" stroke="#7A6D93"></path>
                            <path d="M65.229543,194.172676 L46.2067952,194.172676" id="Stroke-66" stroke="#7A6D93" stroke-width="0.5" stroke-linecap="round" stroke-linejoin="round"></path>
                            <path d="M68.6733822,194.172676 C68.6733822,195.123284 67.9026407,195.89484 66.9512184,195.89484 C66.0006101,195.89484 65.2298685,195.123284 65.2298685,194.172676 C65.2298685,193.222068 66.0006101,192.450512 66.9512184,192.450512 C67.9026407,192.450512 68.6733822,193.222068 68.6733822,194.172676" id="Fill-68" fill="#BCA9FF"></path>
                            <path d="M225.248591,160.448867 C225.920853,161.12113 225.920853,162.211725 225.248591,162.883987 C224.576329,163.55625 223.485733,163.55625 222.813471,162.883987 C222.141208,162.211725 222.141208,161.12113 222.813471,160.448867 C223.485733,159.776605 224.576329,159.776605 225.248591,160.448867" id="Fill-70" fill="#7A6D93"></path>
                            <path d="M225.248591,183.15156 C225.920853,183.823823 225.920853,184.914418 225.248591,185.58668 C224.576329,186.258943 223.485733,186.258943 222.813471,185.58668 C222.141208,184.914418 222.141208,183.823823 222.813471,183.15156 C223.485733,182.479298 224.576329,182.479298 225.248591,183.15156" id="Fill-72" fill="#7A6D93"></path>
                            <polyline id="Stroke-76" stroke="#7A6D93" stroke-width="0.5" stroke-linecap="round" stroke-linejoin="round" points="245.128188 87.5061201 292.023783 87.5061201 292.023783 102.337401 366.326686 102.337401 366.326686 76.1183528 317.282456 76.1183528"></polyline>
                            <path d="M317.441569,78.4234967 C316.180874,78.4234967 315.158644,77.402081 315.158644,76.1413855 C315.158644,74.88069 316.180874,73.8584604 317.441569,73.8584604 C318.702265,73.8584604 319.724494,74.88069 319.724494,76.1413855 C319.724494,77.402081 318.702265,78.4234967 317.441569,78.4234967" id="Fill-78" fill="#BCA9FF"></path>
                            <path d="M366.183606,78.4234967 C364.922911,78.4234967 363.900681,77.402081 363.900681,76.1413855 C363.900681,74.88069 364.922911,73.8584604 366.183606,73.8584604 C367.444302,73.8584604 368.466531,74.88069 368.466531,76.1413855 C368.466531,77.402081 367.444302,78.4234967 366.183606,78.4234967" id="Fill-80" fill="#BCA9FF"></path>
                            <path d="M245.128188,120.179046 C243.867493,120.179046 242.846077,119.156816 242.846077,117.896121 C242.846077,116.635425 243.867493,115.61401 245.128188,115.61401 C246.388884,115.61401 247.411114,116.635425 247.411114,117.896121 C247.411114,119.156816 246.388884,120.179046 245.128188,120.179046" id="Fill-82" fill="#BCA9FF"></path>
                            <path d="M245.128188,87.1454052 L245.128188,109.9714" id="Stroke-86" stroke="#7A6D93" stroke-width="0.5" stroke-linecap="round" stroke-linejoin="round"></path>
                            <path d="M281.614296,43.7365415 C281.614296,47.3037645 278.72259,50.1954696 275.156181,50.1954696 C271.589772,50.1954696 268.698067,47.3037645 268.698067,43.7365415 C268.698067,40.1701324 271.589772,37.2784273 275.156181,37.2784273 C278.72259,37.2784273 281.614296,40.1701324 281.614296,43.7365415 Z" id="Stroke-88" stroke="#7A6D93" stroke-width="2"></path>
                            <path d="M275.821851,117.896365 L275.821851,43.593462" id="Stroke-90" stroke="#7A6D93" stroke-width="0.5" stroke-linecap="round" stroke-linejoin="round"></path>
                            <path d="M277.401912,43.7365415 C277.401912,44.9972371 276.379683,46.0194666 275.118987,46.0194666 C273.858292,46.0194666 272.836876,44.9972371 272.836876,43.7365415 C272.836876,42.475846 273.858292,41.4544304 275.118987,41.4544304 C276.379683,41.4544304 277.401912,42.475846 277.401912,43.7365415" id="Fill-92" fill="#BCA9FF"></path>
                        </g>
                    </g>
                    <path d="M22.089775,28.2357242 C22.089775,33.2757242 18.003775,37.3607242 12.964775,37.3607242 C7.92477496,37.3607242 3.83977496,33.2757242 3.83977496,28.2357242 C3.83977496,23.1967242 7.92477496,19.1107242 12.964775,19.1107242 C18.003775,19.1107242 22.089775,23.1967242 22.089775,28.2357242 Z" id="Stroke-11" stroke="#D5D2E0" stroke-width="1.017" stroke-linecap="round" stroke-dasharray="0.512,1.535" transform="translate(12.964775, 28.235724) rotate(-150.000000) translate(-12.964775, -28.235724) "></path>
                    <g id="Group-21" transform="translate(51.555443, 5.000000)">
                        <path d="M64.6243541,2.95235094 C64.6243541,4.58313303 63.3021802,5.90455061 61.6721545,5.90455061 C60.040616,5.90455061 58.7191984,4.58313303 58.7191984,2.95235094 C58.7191984,1.32156886 60.040616,0.000151278487 61.6721545,0.000151278487 C63.3021802,0.000151278487 64.6243541,1.32156886 64.6243541,2.95235094" id="Fill-1" fill="#BCA9FF"></path>
                        <polyline id="Stroke-3" stroke="#7A6D93" stroke-linecap="round" stroke-linejoin="round" points="40.2949915 25.3933798 50.9903805 25.3933798 50.9903805 2.87784629 60.8408792 2.87784629"></polyline>
                        <path d="M43.5539083,25.3538205 C43.5539083,28.1373447 41.2975897,30.3936633 38.5148219,30.3936633 C35.7312978,30.3936633 33.4749791,28.1373447 33.4749791,25.3538205 C33.4749791,22.5702964 35.7312978,20.3147341 38.5148219,20.3147341 C41.2975897,20.3147341 43.5539083,22.5702964 43.5539083,25.3538205 Z" id="Stroke-5" stroke="#7A6D93" stroke-width="0.536"></path>
                        <path d="M40.218142,23.7291652 C41.1371589,24.648182 41.1371589,26.1382751 40.218142,27.0572919 C39.2991252,27.9763087 37.8082758,27.9763087 36.8900153,27.0572919 C35.9709985,26.1382751 35.9709985,24.648182 36.8900153,23.7291652 C37.8082758,22.8101484 39.2991252,22.8101484 40.218142,23.7291652" id="Fill-7" fill="#7A6D93"></path>
                        <path d="M47.2797462,51.7175006 C47.2797462,59.3419363 41.0985072,65.5216625 33.4748279,65.5216625 C25.8511485,65.5216625 19.670666,59.3419363 19.670666,51.7175006 C19.670666,44.0938212 25.8511485,37.9133387 33.4748279,37.9133387 C41.0985072,37.9133387 47.2797462,44.0938212 47.2797462,51.7175006 Z" id="Stroke-9" stroke="#7A6D93" stroke-width="1.017" stroke-linecap="round" stroke-dasharray="0.375,1.873"></path>
                        <path d="M14.18909,28.9363976 C14.18909,32.7486155 11.0984705,35.8384786 7.28700906,35.8384786 C3.4747912,35.8384786 0.384928109,32.7486155 0.384928109,28.9363976 C0.384928109,25.1249362 3.4747912,22.0343167 7.28700906,22.0343167 C11.0984705,22.0343167 14.18909,25.1249362 14.18909,28.9363976 Z" id="Stroke-11" stroke="#7A6D93" stroke-width="1.017" stroke-linecap="round" stroke-dasharray="0.512,1.535"></path>
                        <path d="M21.9117811,13.1381584 C21.9117811,15.3611957 20.1092979,17.1629225 17.887017,17.1629225 C15.6639796,17.1629225 13.8614964,15.3611957 13.8614964,13.1381584 C13.8614964,10.9158774 15.6639796,9.11339423 17.887017,9.11339423 C20.1092979,9.11339423 21.9117811,10.9158774 21.9117811,13.1381584 Z" id="Stroke-13" stroke="#7A6D93" stroke-width="1.017" stroke-linecap="round"></path>
                        <path d="M11.4330985,51.7175006 L28.742383,51.7175006" id="Stroke-15" stroke="#7A6D93" stroke-linecap="round" stroke-linejoin="round"></path>
                        <path d="M31.4228865,51.7175006 C31.4228865,52.7197205 30.610521,53.532086 29.6090574,53.532086 C28.6060811,53.532086 27.7937156,52.7197205 27.7937156,51.7175006 C27.7937156,50.7152806 28.6060811,49.9036715 29.6090574,49.9036715 C30.610521,49.9036715 31.4228865,50.7152806 31.4228865,51.7175006" id="Fill-17" fill="#BCA9FF"></path>
                        <path d="M12.945127,51.7175006 C12.945127,52.7189641 12.1335179,53.5305732 11.1320544,53.5305732 C10.1305908,53.5305732 9.31898169,52.7189641 9.31898169,51.7175006 C9.31898169,50.7167934 10.1305908,49.9051843 11.1320544,49.9051843 C12.1335179,49.9051843 12.945127,50.7167934 12.945127,51.7175006" id="Fill-19" fill="#BCA9FF"></path>
                    </g>
                </g>
            </g>
        </g>
    </g>
</svg>