<svg width="136" height="170" viewBox="0 0 136 170" fill="none" xmlns="http://www.w3.org/2000/svg">
	<path d="M12.8571 133.192C12.2411 133.192 11.7691 133.38 11.4411 133.756C11.1131 134.132 10.9491 134.664 10.9491 135.352C10.9491 136.048 11.1291 136.584 11.4891 136.96C11.8571 137.336 12.3491 137.524 12.9651 137.524C13.2931 137.524 13.5691 137.48 13.7931 137.392C14.0251 137.304 14.2451 137.204 14.4531 137.092C14.5891 137.204 14.6931 137.34 14.7651 137.5C14.8451 137.652 14.8851 137.832 14.8851 138.04C14.8851 138.368 14.7011 138.648 14.3331 138.88C13.9731 139.104 13.4211 139.216 12.6771 139.216C12.1411 139.216 11.6371 139.14 11.1651 138.988C10.6931 138.836 10.2811 138.604 9.92914 138.292C9.57714 137.972 9.29714 137.572 9.08914 137.092C8.88914 136.604 8.78914 136.024 8.78914 135.352C8.78914 134.728 8.88514 134.18 9.07714 133.708C9.27714 133.228 9.54514 132.824 9.88114 132.496C10.2251 132.168 10.6251 131.92 11.0811 131.752C11.5371 131.584 12.0251 131.5 12.5451 131.5C13.2811 131.5 13.8491 131.62 14.2491 131.86C14.6571 132.1 14.8611 132.408 14.8611 132.784C14.8611 132.992 14.8091 133.172 14.7051 133.324C14.6011 133.476 14.4811 133.596 14.3451 133.684C14.1371 133.548 13.9131 133.432 13.6731 133.336C13.4411 133.24 13.1691 133.192 12.8571 133.192ZM18.1699 138.988C18.0899 139.012 17.9619 139.036 17.7859 139.06C17.6179 139.084 17.4419 139.096 17.2579 139.096C17.0819 139.096 16.9219 139.084 16.7779 139.06C16.6419 139.036 16.5259 138.988 16.4299 138.916C16.3339 138.844 16.2579 138.748 16.2019 138.628C16.1539 138.5 16.1299 138.336 16.1299 138.136V134.536C16.1299 134.352 16.1619 134.196 16.2259 134.068C16.2979 133.932 16.3979 133.812 16.5259 133.708C16.6539 133.604 16.8099 133.512 16.9939 133.432C17.1859 133.344 17.3899 133.268 17.6059 133.204C17.8219 133.14 18.0459 133.092 18.2779 133.06C18.5099 133.02 18.7419 133 18.9739 133C19.3579 133 19.6619 133.076 19.8859 133.228C20.1099 133.372 20.2219 133.612 20.2219 133.948C20.2219 134.06 20.2059 134.172 20.1739 134.284C20.1419 134.388 20.1019 134.484 20.0539 134.572C19.8859 134.572 19.7139 134.58 19.5379 134.596C19.3619 134.612 19.1899 134.636 19.0219 134.668C18.8539 134.7 18.6939 134.736 18.5419 134.776C18.3979 134.808 18.2739 134.848 18.1699 134.896V138.988ZM22.538 137.512C22.45 137.312 22.354 137.088 22.25 136.84C22.154 136.592 22.05 136.308 21.938 135.988C21.834 135.668 21.722 135.304 21.602 134.896C21.49 134.48 21.37 134.004 21.242 133.468C21.354 133.356 21.502 133.26 21.686 133.18C21.878 133.092 22.086 133.048 22.31 133.048C22.59 133.048 22.822 133.108 23.006 133.228C23.19 133.34 23.326 133.556 23.414 133.876L24.362 137.176H24.41C24.506 136.904 24.598 136.608 24.686 136.288C24.782 135.968 24.874 135.64 24.962 135.304C25.05 134.96 25.13 134.62 25.202 134.284C25.282 133.94 25.35 133.604 25.406 133.276C25.694 133.124 26.01 133.048 26.354 133.048C26.634 133.048 26.866 133.108 27.05 133.228C27.234 133.348 27.326 133.556 27.326 133.852C27.326 134.068 27.298 134.32 27.242 134.608C27.186 134.888 27.11 135.188 27.014 135.508C26.926 135.828 26.818 136.16 26.69 136.504C26.57 136.84 26.442 137.172 26.306 137.5C26.17 137.828 26.03 138.14 25.886 138.436C25.742 138.724 25.602 138.984 25.466 139.216C25.242 139.608 25.034 139.928 24.842 140.176C24.65 140.424 24.466 140.616 24.29 140.752C24.114 140.896 23.938 140.992 23.762 141.04C23.586 141.096 23.402 141.124 23.21 141.124C22.874 141.124 22.602 141.024 22.394 140.824C22.186 140.624 22.062 140.364 22.022 140.044C22.278 139.844 22.534 139.62 22.79 139.372C23.046 139.132 23.278 138.884 23.486 138.628C23.35 138.588 23.202 138.496 23.042 138.352C22.89 138.2 22.722 137.92 22.538 137.512ZM31.2043 132.988C31.6843 132.988 32.1283 133.052 32.5363 133.18C32.9523 133.3 33.3083 133.488 33.6043 133.744C33.9003 134 34.1323 134.324 34.3003 134.716C34.4683 135.1 34.5523 135.56 34.5523 136.096C34.5523 136.608 34.4803 137.056 34.3363 137.44C34.1923 137.824 33.9883 138.148 33.7243 138.412C33.4603 138.668 33.1403 138.86 32.7643 138.988C32.3963 139.116 31.9843 139.18 31.5283 139.18C31.1843 139.18 30.8643 139.128 30.5683 139.024V141.016C30.4883 141.04 30.3603 141.064 30.1843 141.088C30.0083 141.12 29.8283 141.136 29.6443 141.136C29.4683 141.136 29.3083 141.124 29.1643 141.1C29.0283 141.076 28.9123 141.028 28.8163 140.956C28.7203 140.884 28.6483 140.784 28.6003 140.656C28.5523 140.536 28.5283 140.376 28.5283 140.176V134.416C28.5283 134.2 28.5723 134.024 28.6603 133.888C28.7563 133.752 28.8843 133.628 29.0443 133.516C29.2923 133.356 29.6003 133.228 29.9683 133.132C30.3363 133.036 30.7483 132.988 31.2043 132.988ZM31.2283 137.572C32.0523 137.572 32.4643 137.08 32.4643 136.096C32.4643 135.584 32.3603 135.204 32.1523 134.956C31.9523 134.708 31.6603 134.584 31.2763 134.584C31.1243 134.584 30.9883 134.604 30.8683 134.644C30.7483 134.676 30.6443 134.716 30.5563 134.764V137.404C30.6523 137.452 30.7563 137.492 30.8683 137.524C30.9803 137.556 31.1003 137.572 31.2283 137.572ZM37.9628 136.996C37.9628 137.204 38.0268 137.352 38.1548 137.44C38.2908 137.528 38.4788 137.572 38.7188 137.572C38.8388 137.572 38.9628 137.564 39.0908 137.548C39.2188 137.524 39.3308 137.496 39.4268 137.464C39.4988 137.552 39.5588 137.652 39.6068 137.764C39.6628 137.868 39.6908 137.996 39.6908 138.148C39.6908 138.452 39.5748 138.7 39.3428 138.892C39.1188 139.084 38.7188 139.18 38.1428 139.18C37.4388 139.18 36.8948 139.02 36.5108 138.7C36.1348 138.38 35.9468 137.86 35.9468 137.14V132.004C36.0348 131.98 36.1588 131.956 36.3188 131.932C36.4868 131.9 36.6628 131.884 36.8468 131.884C37.1988 131.884 37.4708 131.948 37.6628 132.076C37.8628 132.196 37.9628 132.456 37.9628 132.856V133.624H39.5348C39.5828 133.712 39.6268 133.824 39.6668 133.96C39.7148 134.088 39.7388 134.232 39.7388 134.392C39.7388 134.672 39.6748 134.876 39.5468 135.004C39.4268 135.124 39.2628 135.184 39.0548 135.184H37.9628V136.996ZM47.0682 136.084C47.0682 136.58 46.9922 137.024 46.8402 137.416C46.6882 137.8 46.4722 138.124 46.1922 138.388C45.9202 138.652 45.5922 138.852 45.2082 138.988C44.8242 139.124 44.3962 139.192 43.9242 139.192C43.4522 139.192 43.0242 139.12 42.6402 138.976C42.2562 138.832 41.9242 138.628 41.6442 138.364C41.3722 138.092 41.1602 137.764 41.0082 137.38C40.8562 136.996 40.7802 136.564 40.7802 136.084C40.7802 135.612 40.8562 135.184 41.0082 134.8C41.1602 134.416 41.3722 134.092 41.6442 133.828C41.9242 133.556 42.2562 133.348 42.6402 133.204C43.0242 133.06 43.4522 132.988 43.9242 132.988C44.3962 132.988 44.8242 133.064 45.2082 133.216C45.5922 133.36 45.9202 133.568 46.1922 133.84C46.4722 134.104 46.6882 134.428 46.8402 134.812C46.9922 135.196 47.0682 135.62 47.0682 136.084ZM42.8682 136.084C42.8682 136.572 42.9602 136.948 43.1442 137.212C43.3362 137.468 43.6002 137.596 43.9362 137.596C44.2722 137.596 44.5282 137.464 44.7042 137.2C44.8882 136.936 44.9802 136.564 44.9802 136.084C44.9802 135.604 44.8882 135.236 44.7042 134.98C44.5202 134.716 44.2602 134.584 43.9242 134.584C43.5882 134.584 43.3282 134.716 43.1442 134.98C42.9602 135.236 42.8682 135.604 42.8682 136.084ZM54.0958 135.1C54.4318 135.1 54.6878 135.024 54.8638 134.872C55.0478 134.712 55.1398 134.472 55.1398 134.152C55.1398 133.848 55.0438 133.616 54.8518 133.456C54.6678 133.288 54.3958 133.204 54.0358 133.204C53.9078 133.204 53.7998 133.208 53.7118 133.216C53.6318 133.216 53.5478 133.224 53.4598 133.24V135.1H54.0958ZM53.4718 138.952C53.3838 138.976 53.2438 139 53.0518 139.024C52.8678 139.048 52.6838 139.06 52.4998 139.06C52.3158 139.06 52.1518 139.044 52.0078 139.012C51.8718 138.988 51.7558 138.94 51.6598 138.868C51.5638 138.796 51.4918 138.696 51.4438 138.568C51.3958 138.44 51.3718 138.272 51.3718 138.064V132.412C51.3718 132.244 51.4158 132.116 51.5038 132.028C51.5998 131.932 51.7278 131.856 51.8878 131.8C52.1598 131.704 52.4678 131.636 52.8118 131.596C53.1638 131.548 53.5158 131.524 53.8678 131.524C54.9718 131.524 55.8158 131.76 56.3998 132.232C56.9838 132.704 57.2758 133.344 57.2758 134.152C57.2758 134.544 57.2118 134.9 57.0838 135.22C56.9638 135.532 56.7798 135.804 56.5318 136.036C56.2918 136.26 55.9838 136.436 55.6078 136.564C55.2398 136.684 54.8118 136.744 54.3238 136.744H53.4718V138.952ZM64.4237 136.084C64.4237 136.58 64.3477 137.024 64.1957 137.416C64.0437 137.8 63.8277 138.124 63.5477 138.388C63.2757 138.652 62.9477 138.852 62.5637 138.988C62.1797 139.124 61.7517 139.192 61.2797 139.192C60.8077 139.192 60.3797 139.12 59.9957 138.976C59.6117 138.832 59.2797 138.628 58.9997 138.364C58.7277 138.092 58.5157 137.764 58.3637 137.38C58.2117 136.996 58.1357 136.564 58.1357 136.084C58.1357 135.612 58.2117 135.184 58.3637 134.8C58.5157 134.416 58.7277 134.092 58.9997 133.828C59.2797 133.556 59.6117 133.348 59.9957 133.204C60.3797 133.06 60.8077 132.988 61.2797 132.988C61.7517 132.988 62.1797 133.064 62.5637 133.216C62.9477 133.36 63.2757 133.568 63.5477 133.84C63.8277 134.104 64.0437 134.428 64.1957 134.812C64.3477 135.196 64.4237 135.62 64.4237 136.084ZM60.2237 136.084C60.2237 136.572 60.3157 136.948 60.4997 137.212C60.6917 137.468 60.9557 137.596 61.2917 137.596C61.6277 137.596 61.8837 137.464 62.0597 137.2C62.2437 136.936 62.3357 136.564 62.3357 136.084C62.3357 135.604 62.2437 135.236 62.0597 134.98C61.8757 134.716 61.6157 134.584 61.2797 134.584C60.9437 134.584 60.6837 134.716 60.4997 134.98C60.3157 135.236 60.2237 135.604 60.2237 136.084ZM69.0476 138.82C68.9356 138.916 68.7836 138.992 68.5916 139.048C68.3996 139.112 68.1716 139.144 67.9076 139.144C67.5796 139.144 67.2956 139.096 67.0556 139C66.8156 138.912 66.6556 138.784 66.5756 138.616C66.4876 138.424 66.3836 138.12 66.2636 137.704C66.1516 137.288 66.0396 136.832 65.9276 136.336C65.8156 135.84 65.7076 135.336 65.6036 134.824C65.5076 134.312 65.4316 133.86 65.3756 133.468C65.4876 133.356 65.6356 133.26 65.8196 133.18C66.0116 133.092 66.2196 133.048 66.4436 133.048C66.7236 133.048 66.9516 133.112 67.1276 133.24C67.3116 133.36 67.4236 133.572 67.4636 133.876C67.5436 134.484 67.6116 134.988 67.6676 135.388C67.7236 135.78 67.7676 136.104 67.7996 136.36C67.8396 136.608 67.8676 136.8 67.8836 136.936C67.9076 137.064 67.9276 137.168 67.9436 137.248H67.9916C68.0156 137.12 68.0556 136.936 68.1116 136.696C68.1756 136.448 68.2476 136.168 68.3276 135.856C68.4076 135.544 68.4916 135.208 68.5796 134.848C68.6676 134.48 68.7556 134.116 68.8436 133.756C69.0036 133.668 69.1596 133.6 69.3116 133.552C69.4716 133.504 69.6676 133.48 69.8996 133.48C70.1796 133.48 70.4196 133.524 70.6196 133.612C70.8196 133.7 70.9476 133.836 71.0036 134.02C71.0996 134.372 71.1916 134.716 71.2796 135.052C71.3676 135.38 71.4476 135.688 71.5196 135.976C71.5916 136.256 71.6556 136.508 71.7116 136.732C71.7676 136.948 71.8076 137.12 71.8316 137.248H71.8916C71.9796 136.632 72.0636 135.992 72.1436 135.328C72.2316 134.664 72.3116 133.988 72.3836 133.3C72.5276 133.212 72.6796 133.148 72.8396 133.108C72.9996 133.068 73.1596 133.048 73.3196 133.048C73.5996 133.048 73.8316 133.108 74.0156 133.228C74.1996 133.348 74.2916 133.556 74.2916 133.852C74.2916 133.98 74.2716 134.172 74.2316 134.428C74.1916 134.684 74.1396 134.972 74.0756 135.292C74.0116 135.612 73.9356 135.948 73.8476 136.3C73.7676 136.652 73.6836 136.992 73.5956 137.32C73.5156 137.648 73.4356 137.944 73.3556 138.208C73.2836 138.472 73.2196 138.676 73.1636 138.82C73.0516 138.916 72.8796 138.992 72.6476 139.048C72.4156 139.112 72.1676 139.144 71.9036 139.144C71.2316 139.144 70.8356 138.976 70.7156 138.64C70.6676 138.496 70.6076 138.316 70.5356 138.1C70.4636 137.876 70.3876 137.632 70.3076 137.368C70.2276 137.104 70.1516 136.832 70.0796 136.552C70.0076 136.264 69.9476 135.988 69.8996 135.724C69.8436 136.004 69.7756 136.296 69.6956 136.6C69.6156 136.896 69.5316 137.188 69.4436 137.476C69.3636 137.756 69.2876 138.016 69.2156 138.256C69.1436 138.488 69.0876 138.676 69.0476 138.82ZM78.6748 139.192C78.2028 139.192 77.7628 139.128 77.3548 139C76.9548 138.864 76.6028 138.664 76.2988 138.4C76.0028 138.136 75.7668 137.804 75.5908 137.404C75.4228 137.004 75.3388 136.536 75.3388 136C75.3388 135.472 75.4228 135.02 75.5908 134.644C75.7668 134.26 75.9948 133.948 76.2748 133.708C76.5548 133.46 76.8748 133.28 77.2348 133.168C77.5948 133.048 77.9628 132.988 78.3388 132.988C78.7628 132.988 79.1468 133.052 79.4908 133.18C79.8428 133.308 80.1428 133.484 80.3908 133.708C80.6468 133.932 80.8428 134.2 80.9788 134.512C81.1228 134.824 81.1948 135.164 81.1948 135.532C81.1948 135.804 81.1188 136.012 80.9668 136.156C80.8148 136.3 80.6028 136.392 80.3308 136.432L77.3668 136.876C77.4548 137.14 77.6348 137.34 77.9068 137.476C78.1788 137.604 78.4908 137.668 78.8428 137.668C79.1708 137.668 79.4788 137.628 79.7668 137.548C80.0628 137.46 80.3028 137.36 80.4868 137.248C80.6148 137.328 80.7228 137.44 80.8108 137.584C80.8988 137.728 80.9428 137.88 80.9428 138.04C80.9428 138.4 80.7748 138.668 80.4388 138.844C80.1828 138.98 79.8948 139.072 79.5748 139.12C79.2548 139.168 78.9548 139.192 78.6748 139.192ZM78.3388 134.476C78.1468 134.476 77.9788 134.508 77.8348 134.572C77.6988 134.636 77.5868 134.72 77.4988 134.824C77.4108 134.92 77.3428 135.032 77.2948 135.16C77.2548 135.28 77.2308 135.404 77.2228 135.532L79.2748 135.196C79.2508 135.036 79.1628 134.876 79.0108 134.716C78.8588 134.556 78.6348 134.476 78.3388 134.476ZM84.5917 138.988C84.5117 139.012 84.3837 139.036 84.2077 139.06C84.0397 139.084 83.8637 139.096 83.6797 139.096C83.5037 139.096 83.3437 139.084 83.1997 139.06C83.0637 139.036 82.9477 138.988 82.8517 138.916C82.7557 138.844 82.6797 138.748 82.6237 138.628C82.5757 138.5 82.5517 138.336 82.5517 138.136V134.536C82.5517 134.352 82.5837 134.196 82.6477 134.068C82.7197 133.932 82.8197 133.812 82.9477 133.708C83.0757 133.604 83.2317 133.512 83.4157 133.432C83.6077 133.344 83.8117 133.268 84.0277 133.204C84.2437 133.14 84.4677 133.092 84.6997 133.06C84.9317 133.02 85.1637 133 85.3957 133C85.7797 133 86.0837 133.076 86.3077 133.228C86.5317 133.372 86.6437 133.612 86.6437 133.948C86.6437 134.06 86.6277 134.172 86.5957 134.284C86.5637 134.388 86.5237 134.484 86.4757 134.572C86.3077 134.572 86.1357 134.58 85.9597 134.596C85.7837 134.612 85.6117 134.636 85.4437 134.668C85.2757 134.7 85.1157 134.736 84.9637 134.776C84.8197 134.808 84.6957 134.848 84.5917 134.896V138.988ZM90.7217 139.192C90.2497 139.192 89.8097 139.128 89.4017 139C89.0017 138.864 88.6497 138.664 88.3457 138.4C88.0497 138.136 87.8137 137.804 87.6377 137.404C87.4697 137.004 87.3857 136.536 87.3857 136C87.3857 135.472 87.4697 135.02 87.6377 134.644C87.8137 134.26 88.0417 133.948 88.3217 133.708C88.6017 133.46 88.9217 133.28 89.2817 133.168C89.6417 133.048 90.0097 132.988 90.3857 132.988C90.8097 132.988 91.1937 133.052 91.5377 133.18C91.8897 133.308 92.1897 133.484 92.4377 133.708C92.6937 133.932 92.8897 134.2 93.0257 134.512C93.1697 134.824 93.2417 135.164 93.2417 135.532C93.2417 135.804 93.1657 136.012 93.0137 136.156C92.8617 136.3 92.6497 136.392 92.3777 136.432L89.4137 136.876C89.5017 137.14 89.6817 137.34 89.9537 137.476C90.2257 137.604 90.5377 137.668 90.8897 137.668C91.2177 137.668 91.5257 137.628 91.8137 137.548C92.1097 137.46 92.3497 137.36 92.5337 137.248C92.6617 137.328 92.7697 137.44 92.8577 137.584C92.9457 137.728 92.9897 137.88 92.9897 138.04C92.9897 138.4 92.8217 138.668 92.4857 138.844C92.2297 138.98 91.9417 139.072 91.6217 139.12C91.3017 139.168 91.0017 139.192 90.7217 139.192ZM90.3857 134.476C90.1937 134.476 90.0257 134.508 89.8817 134.572C89.7457 134.636 89.6337 134.72 89.5457 134.824C89.4577 134.92 89.3897 135.032 89.3417 135.16C89.3017 135.28 89.2777 135.404 89.2697 135.532L91.3217 135.196C91.2977 135.036 91.2097 134.876 91.0577 134.716C90.9057 134.556 90.6817 134.476 90.3857 134.476ZM94.3466 136.084C94.3466 135.556 94.4266 135.1 94.5866 134.716C94.7466 134.324 94.9666 134 95.2466 133.744C95.5346 133.488 95.8666 133.3 96.2426 133.18C96.6266 133.052 97.0386 132.988 97.4786 132.988C97.6386 132.988 97.7946 133.004 97.9466 133.036C98.0986 133.06 98.2226 133.092 98.3186 133.132V131.188C98.3986 131.164 98.5266 131.14 98.7026 131.116C98.8786 131.084 99.0586 131.068 99.2426 131.068C99.4186 131.068 99.5746 131.08 99.7106 131.104C99.8546 131.128 99.9746 131.176 100.071 131.248C100.167 131.32 100.239 131.42 100.287 131.548C100.335 131.668 100.359 131.828 100.359 132.028V137.716C100.359 138.092 100.183 138.392 99.8306 138.616C99.5986 138.768 99.2986 138.9 98.9306 139.012C98.5626 139.132 98.1386 139.192 97.6586 139.192C97.1386 139.192 96.6706 139.12 96.2546 138.976C95.8466 138.832 95.4986 138.624 95.2106 138.352C94.9306 138.08 94.7146 137.756 94.5626 137.38C94.4186 136.996 94.3466 136.564 94.3466 136.084ZM97.7546 134.584C97.3226 134.584 96.9906 134.708 96.7586 134.956C96.5266 135.204 96.4106 135.58 96.4106 136.084C96.4106 136.58 96.5186 136.956 96.7346 137.212C96.9506 137.46 97.2626 137.584 97.6706 137.584C97.8146 137.584 97.9426 137.564 98.0546 137.524C98.1746 137.476 98.2666 137.424 98.3306 137.368V134.728C98.1706 134.632 97.9786 134.584 97.7546 134.584ZM109.294 138.76C109.182 138.856 109.006 138.94 108.766 139.012C108.534 139.084 108.278 139.12 107.998 139.12C107.662 139.12 107.374 139.072 107.134 138.976C106.894 138.872 106.73 138.732 106.642 138.556C106.554 138.372 106.446 138.136 106.318 137.848C106.19 137.552 106.054 137.224 105.91 136.864C105.774 136.504 105.63 136.124 105.478 135.724C105.334 135.316 105.194 134.904 105.058 134.488C104.922 134.072 104.794 133.664 104.674 133.264C104.554 132.864 104.45 132.488 104.362 132.136C104.474 132.024 104.634 131.924 104.842 131.836C105.058 131.74 105.286 131.692 105.526 131.692C105.822 131.692 106.062 131.756 106.246 131.884C106.438 132.004 106.578 132.232 106.666 132.568C106.882 133.352 107.098 134.104 107.314 134.824C107.538 135.536 107.77 136.28 108.01 137.056H108.082C108.298 136.304 108.518 135.484 108.742 134.596C108.974 133.708 109.194 132.824 109.402 131.944C109.546 131.872 109.698 131.812 109.858 131.764C110.026 131.716 110.214 131.692 110.422 131.692C110.718 131.692 110.97 131.76 111.178 131.896C111.386 132.024 111.49 132.24 111.49 132.544C111.49 132.72 111.446 132.976 111.358 133.312C111.278 133.648 111.17 134.028 111.034 134.452C110.906 134.868 110.758 135.304 110.59 135.76C110.43 136.216 110.266 136.648 110.098 137.056C109.938 137.456 109.786 137.812 109.642 138.124C109.498 138.428 109.382 138.64 109.294 138.76ZM115.643 135.1C115.979 135.1 116.235 135.024 116.411 134.872C116.595 134.712 116.687 134.472 116.687 134.152C116.687 133.848 116.591 133.616 116.399 133.456C116.215 133.288 115.943 133.204 115.583 133.204C115.455 133.204 115.347 133.208 115.259 133.216C115.179 133.216 115.095 133.224 115.007 133.24V135.1H115.643ZM115.019 138.952C114.931 138.976 114.791 139 114.599 139.024C114.415 139.048 114.231 139.06 114.047 139.06C113.863 139.06 113.699 139.044 113.555 139.012C113.419 138.988 113.303 138.94 113.207 138.868C113.111 138.796 113.039 138.696 112.991 138.568C112.943 138.44 112.919 138.272 112.919 138.064V132.412C112.919 132.244 112.963 132.116 113.051 132.028C113.147 131.932 113.275 131.856 113.435 131.8C113.707 131.704 114.015 131.636 114.359 131.596C114.711 131.548 115.063 131.524 115.415 131.524C116.519 131.524 117.363 131.76 117.947 132.232C118.531 132.704 118.823 133.344 118.823 134.152C118.823 134.544 118.759 134.9 118.631 135.22C118.511 135.532 118.327 135.804 118.079 136.036C117.839 136.26 117.531 136.436 117.155 136.564C116.787 136.684 116.359 136.744 115.871 136.744H115.019V138.952ZM126.854 138.748C126.742 138.86 126.578 138.944 126.362 139C126.154 139.064 125.902 139.096 125.606 139.096C125.31 139.096 125.03 139.052 124.766 138.964C124.502 138.876 124.286 138.664 124.118 138.328L122.93 135.904C122.81 135.656 122.702 135.424 122.606 135.208C122.51 134.984 122.406 134.728 122.294 134.44L122.222 134.452C122.254 134.884 122.27 135.324 122.27 135.772C122.278 136.22 122.282 136.66 122.282 137.092V138.952C122.194 138.976 122.058 139 121.874 139.024C121.698 139.048 121.522 139.06 121.346 139.06C121.17 139.06 121.014 139.048 120.878 139.024C120.742 139 120.63 138.952 120.542 138.88C120.454 138.808 120.386 138.712 120.338 138.592C120.29 138.464 120.266 138.3 120.266 138.1V132.1C120.378 131.94 120.55 131.82 120.782 131.74C121.014 131.66 121.262 131.62 121.526 131.62C121.822 131.62 122.102 131.668 122.366 131.764C122.638 131.852 122.854 132.06 123.014 132.388L124.214 134.812C124.334 135.06 124.442 135.296 124.538 135.52C124.634 135.736 124.738 135.988 124.85 136.276L124.91 136.264C124.878 135.832 124.858 135.4 124.85 134.968C124.842 134.536 124.838 134.104 124.838 133.672V131.728C124.926 131.704 125.058 131.68 125.234 131.656C125.418 131.632 125.598 131.62 125.774 131.62C126.126 131.62 126.394 131.684 126.578 131.812C126.762 131.932 126.854 132.188 126.854 132.58V138.748Z" fill="#5F45BA" />
	<path d="M37.3385 10.3776C40.1951 10.3776 42.5109 8.05449 42.5109 5.1888C42.5109 2.3231 40.1951 0 37.3385 0C34.4818 0 32.166 2.3231 32.166 5.1888C32.166 8.05449 34.4818 10.3776 37.3385 10.3776Z" fill="#5F45BA" />
	<path d="M20.9379 7.34025C22.9584 7.34025 24.5964 5.69708 24.5964 3.67012C24.5964 1.64317 22.9584 0 20.9379 0C18.9173 0 17.2793 1.64317 17.2793 3.67012C17.2793 5.69708 18.9173 7.34025 20.9379 7.34025Z" fill="#5F45BA" />
	<path d="M73.4988 80.9571C92.5075 78.7179 107.797 63.1315 109.042 43.2924C110.444 20.9709 93.5369 1.73722 71.2811 0.33182C68.6709 0.168725 66.0511 0.259236 63.4582 0.602089V0.602089C58.1079 1.04128 53.5915 3.08451 53.5915 3.08451C49.9388 4.87369 47.5741 7.87232 47.5741 11.8858C47.5741 17.1034 51.7914 21.3331 56.9936 21.3331C57.864 21.3331 60.8767 20.3777 61.5881 20.129C72.2828 16.3935 84.0468 21.5064 88.6424 31.8873C93.2379 42.2682 89.1298 54.4491 79.1946 59.9003C69.2594 65.3516 56.8164 62.252 50.5788 52.7721C50.5794 52.7743 50.5794 52.7766 50.5788 52.7788V52.7721C46.2322 47.0667 47.2373 37.9438 47.2332 37.8316C47.064 33.1597 43.5173 29.3124 38.8866 28.7777C34.2559 28.2431 29.9303 31.1813 28.707 35.6924C28.4941 36.483 28.3863 38.8005 28.4173 39.1113C27.5199 61.0464 44.2569 79.7868 66.2123 81.1719C68.6438 81.3222 71.0838 81.2525 73.5029 80.9638" fill="#5F45BA" />
	<path d="M30.5262 25.5643C34.219 25.5643 37.2125 22.5613 37.2125 18.8568C37.2125 15.1524 34.219 12.1494 30.5262 12.1494C26.8334 12.1494 23.8398 15.1524 23.8398 18.8568C23.8398 22.5613 26.8334 25.5643 30.5262 25.5643Z" fill="#5F45BA" />
	<path fill-rule="evenodd" clip-rule="evenodd" d="M33.9391 116.102C34.439 114.82 34.689 113.359 34.689 111.719C34.7063 110.282 34.4518 108.855 33.9391 107.514C33.4725 106.297 32.752 105.195 31.826 104.282C30.89 103.384 29.7819 102.686 28.5692 102.232C27.218 101.728 25.7857 101.48 24.3445 101.499C22.905 101.479 21.4738 101.72 20.1198 102.212C18.9051 102.657 17.7959 103.352 16.8629 104.252C15.9363 105.165 15.2157 106.267 14.7499 107.484C13.75 110.238 13.75 113.258 14.7499 116.012C15.2157 117.23 15.9363 118.333 16.8629 119.246C17.7955 120.146 18.9048 120.841 20.1198 121.286C21.4738 121.778 22.905 122.019 24.3445 121.999C25.781 122.016 27.2098 121.786 28.5692 121.319C29.7835 120.899 30.8941 120.222 31.826 119.335C32.7581 118.426 33.4795 117.322 33.9391 116.102ZM21.7983 115.428C21.1792 114.569 20.8697 113.333 20.8697 111.719C20.8589 110.131 21.158 108.907 21.7672 108.047C22.3763 107.188 23.2336 106.758 24.3391 106.758C25.4482 106.757 26.3055 107.187 26.911 108.047C27.5165 108.908 27.8193 110.132 27.8193 111.719C27.8184 113.307 27.5219 114.536 26.9299 115.409C26.338 116.281 25.4892 116.717 24.3838 116.717C23.2792 116.716 22.4174 116.286 21.7983 115.428Z" fill="#5F45BA" />
	<path d="M44.6442 121.14C44.2382 121.246 43.8253 121.325 43.4085 121.375C42.8293 121.455 42.2452 121.495 41.6604 121.493C41.1416 121.498 40.6234 121.458 40.1113 121.375C39.6931 121.313 39.2959 121.151 38.9536 120.902C38.6292 120.653 38.3782 120.32 38.2275 119.939C38.0405 119.429 37.9541 118.887 37.9733 118.345V106.539C37.9584 106.001 38.0728 105.468 38.3068 104.984C38.5428 104.534 38.8703 104.138 39.2682 103.823C39.7405 103.447 40.2599 103.135 40.8133 102.895C41.4571 102.609 42.1187 102.366 42.794 102.166C43.5143 101.954 44.2479 101.79 44.9898 101.675C45.7426 101.558 46.5032 101.498 47.265 101.498C48.52 101.498 49.5133 101.74 50.2448 102.225C50.9763 102.71 51.3425 103.504 51.3434 104.608C51.3432 104.973 51.2902 105.337 51.1861 105.687C51.0898 106.021 50.9586 106.344 50.7948 106.651C50.2443 106.651 49.6823 106.677 49.1085 106.729C48.5348 106.781 47.9723 106.86 47.421 106.965C46.8724 107.071 46.356 107.182 45.8719 107.3C45.4482 107.398 45.0348 107.537 44.6375 107.715L44.6442 121.14Z" fill="#5F45BA" />
	<path d="M62.9003 106.756C62.2669 106.753 61.6377 106.859 61.0401 107.069C60.4724 107.268 59.9519 107.582 59.5116 107.992C59.0658 108.419 58.7124 108.933 58.4734 109.503C58.1984 110.175 58.0648 110.896 58.0812 111.622C58.0812 113.244 58.545 114.461 59.4727 115.272C60.4003 116.083 61.5299 116.486 62.8614 116.483C63.5499 116.498 64.2365 116.407 64.8976 116.214C65.4195 116.051 65.9301 115.854 66.4261 115.624C66.8963 115.938 67.2965 116.345 67.6013 116.822C67.8724 117.292 68.0082 117.829 67.9935 118.372C67.9935 119.448 67.484 120.278 66.465 120.863C65.446 121.448 64.0357 121.742 62.2341 121.746C60.7147 121.766 59.2034 121.521 57.7682 121.021C56.5013 120.576 55.3359 119.882 54.3406 118.98C53.3835 118.099 52.6283 117.022 52.1271 115.821C51.5912 114.528 51.3243 113.14 51.3427 111.74C51.3427 110.013 51.6234 108.502 52.1848 107.208C52.697 105.981 53.481 104.887 54.4776 104.009C55.4576 103.164 56.596 102.524 57.826 102.125C59.1226 101.702 60.4784 101.491 61.842 101.498C63.7223 101.498 65.172 101.838 66.191 102.518C67.21 103.198 67.7195 104.074 67.7195 105.147C67.7219 105.634 67.6004 106.114 67.3663 106.541C67.1472 106.951 66.8698 107.328 66.5429 107.658C66.0199 107.42 65.4814 107.217 64.9312 107.05C64.2731 106.85 63.5883 106.75 62.9003 106.756V106.756Z" fill="#5F45BA" />
	<path d="M89.6947 121.14C89.2906 121.246 88.8796 121.325 88.4648 121.375C87.8883 121.455 87.3069 121.495 86.7249 121.493C86.2086 121.498 85.6928 121.458 85.1832 121.375C84.7669 121.313 84.3716 121.151 84.0308 120.902C83.708 120.653 83.4585 120.32 83.3095 119.939C83.1222 119.43 83.0358 118.889 83.0552 118.346V109.609C83.0552 108.53 82.7875 107.775 82.2522 107.346C81.6907 106.904 80.993 106.674 80.2808 106.697C79.7799 106.695 79.2811 106.761 78.7979 106.894C78.3998 106.996 78.0184 107.155 77.6657 107.367V121.14C77.2615 121.246 76.8505 121.325 76.4357 121.375C75.8592 121.455 75.2779 121.495 74.6959 121.493C74.1795 121.498 73.6637 121.458 73.1541 121.375C72.7382 121.313 72.3433 121.151 72.0031 120.902C71.6794 120.654 71.4295 120.321 71.2804 119.939C71.0931 119.43 71.0067 118.889 71.0261 118.346V95.5212C71.3125 95.4699 71.7354 95.3971 72.2949 95.3054C72.8565 95.2143 73.4244 95.1692 73.9932 95.1704C74.5095 95.166 75.0252 95.2053 75.535 95.2878C75.9509 95.3507 76.3459 95.5126 76.6873 95.76C77.0095 96.0102 77.2588 96.3435 77.4087 96.7246C77.5977 97.2326 77.6864 97.773 77.6697 98.3153V102.17C78.1749 101.99 78.6896 101.839 79.2114 101.718C79.9601 101.541 80.7271 101.455 81.496 101.463C84.071 101.463 86.0812 102.112 87.5266 103.411C88.972 104.71 89.6943 106.643 89.6934 109.212L89.6947 121.14Z" fill="#5F45BA" />
	<path fill-rule="evenodd" clip-rule="evenodd" d="M94.7354 94.1713C94.0726 94.8402 93.7107 95.7512 93.7335 96.6938C93.7104 97.6368 94.0723 98.5484 94.7354 99.2177C95.4043 99.9017 96.2894 100.244 97.3908 100.244C98.4921 100.244 99.3772 99.9017 100.046 99.2177C101.384 97.8029 101.384 95.5861 100.046 94.1713C99.3772 93.4854 98.4921 93.1434 97.3908 93.1452C96.2894 93.147 95.4043 93.489 94.7354 94.1713ZM99.4554 121.358C100.019 121.266 100.445 121.193 100.734 121.142V105.096C100.753 104.552 100.666 104.01 100.479 103.499C100.327 103.117 100.075 102.784 99.7507 102.532C99.4073 102.284 99.0097 102.122 98.591 102.059C98.0769 101.977 97.5568 101.937 97.0361 101.942C96.4634 101.94 95.8915 101.986 95.3261 102.077C94.7611 102.169 94.3349 102.24 94.0477 102.294V118.34C94.0285 118.883 94.115 119.425 94.3026 119.936C94.4537 120.318 94.7054 120.651 95.0308 120.901C95.374 121.151 95.7724 121.313 96.1919 121.374C96.7054 121.458 97.2252 121.498 97.7454 121.493C98.3181 121.495 98.89 121.449 99.4554 121.358Z" fill="#5F45BA" />
	<path fill-rule="evenodd" clip-rule="evenodd" d="M104.105 107.196C103.582 108.478 103.32 109.991 103.32 111.735C103.319 113.321 103.561 114.741 104.045 115.995C104.506 117.217 105.23 118.321 106.166 119.227C107.144 120.155 108.309 120.858 109.582 121.288C110.929 121.763 112.455 122 114.161 122C115.733 122.001 117.12 121.81 118.324 121.427C119.528 121.043 120.51 120.6 121.271 120.098C122.423 119.358 122.998 118.368 122.998 117.126V98.338C123.016 97.794 122.936 97.2512 122.763 96.7359C122.625 96.3502 122.379 96.0129 122.056 95.7643C121.713 95.5148 121.316 95.3518 120.898 95.2887C120.384 95.2056 119.865 95.166 119.345 95.1704C118.754 95.1687 118.163 95.2142 117.578 95.3063C117.155 95.3662 116.735 95.4524 116.322 95.5645V101.982C115.928 101.828 115.52 101.715 115.103 101.645C114.598 101.553 114.086 101.508 113.572 101.51C112.206 101.498 110.847 101.705 109.546 102.124C108.339 102.512 107.228 103.153 106.286 104.006C105.33 104.89 104.585 105.981 104.105 107.196ZM111.213 108.004C111.972 107.188 113.059 106.781 114.473 106.781C115.133 106.762 115.785 106.927 116.358 107.256V115.976C116.096 116.191 115.799 116.359 115.48 116.472C115.071 116.622 114.639 116.696 114.204 116.69C112.863 116.685 111.84 116.267 111.133 115.435C110.427 114.604 110.074 113.368 110.074 111.73C110.074 110.061 110.453 108.819 111.213 108.004Z" fill="#5F45BA" />
</svg>
