<svg id="Layer_1" data-name="Layer 1" xmlns="http://www.w3.org/2000/svg" viewBox="0 0 416.67 491.6"><defs><style>.cls-1{fill:#edede7;}.cls-2{fill:#d4c9e2;}.cls-3{fill:#ecece7;}.cls-4{fill:#babad4;}.cls-5{fill:#c5bada;}.cls-6{fill:#8787a0;}.cls-7{fill:#c9c8e1;}.cls-8{fill:#7d7d91;}.cls-9{fill:#86869e;}.cls-10{fill:#fefefe;}.cls-11{fill:#2b9952;}.cls-12{fill:#d4853d;}.cls-13{fill:#218946;}.cls-14{fill:#c47832;}.cls-15{fill:#42ab58;}.cls-16{fill:#af6d2c;}.cls-17{fill:#49495e;}.cls-18{fill:#444457;}.cls-19{fill:#5d5d70;}.cls-20{fill:#7064ac;}.cls-21{fill:#322750;}.cls-22{fill:#fff;}</style></defs><path class="cls-1" d="M312,548.31c-7.86-1.24-15.81-2.09-23.58-3.79a191.33,191.33,0,0,1-66.51-28.08A328,328,0,0,1,195.16,496c-14.07-11.77-25.41-26-35.35-41.34a202.26,202.26,0,0,1-26.43-59.91,192.55,192.55,0,0,1-6.26-37.3c-.29-5.12-1.22-10.25-1-15.34.36-9,1.25-18,2.15-27a181.24,181.24,0,0,1,10.42-43.74A209.19,209.19,0,0,1,193,189.11a206.59,206.59,0,0,1,36.92-27.25,198.31,198.31,0,0,1,58-22.86c9.25-2,18.72-3,28.1-4.38,1.88-.29,3.78-.41,5.66-.6.39,1.42-.63,2.34-1.26,3.35A99.29,99.29,0,0,0,308.17,165c-4,15.61-2.59,31.06,2,46.31a139.25,139.25,0,0,0,7.34,19.87c1.1,2.32,0,3.56-1.7,4.77A32.55,32.55,0,0,0,303,255.11a70.18,70.18,0,0,0-1.78,13.32,60.31,60.31,0,0,0,7.05,32.32c1,1.89,2.18,3.86,1.82,6.21a5.44,5.44,0,0,1-2,2.44,33.34,33.34,0,0,0-5.17,4.76c-1.5,1.53-3.11,4.2-5.31,1.61-2.54-1.34-4.17-3.72-6.24-5.6a6.39,6.39,0,0,0-2.43-1.82c-2.81-.85-5.62.64-8.43-.06-1.48-1.37-2.79-2.82-2.55-5.06a3.13,3.13,0,0,1,2.73-.44,4.65,4.65,0,0,0,4.57-1.8c3-3.75,6.6-11.74,3.25-17.9a25.87,25.87,0,0,0-5.76-7.42,3.86,3.86,0,0,1-1.69-2.82c-.27-4.82-2.93-7.48-7.68-7.8a19.47,19.47,0,0,1-2.85-.25,13.5,13.5,0,0,0-3.8-.3c-4.5.13-7,3.39-9.59,6.11a4.11,4.11,0,0,1-3-.79,14,14,0,0,0-15.25,2,5.22,5.22,0,0,0-1.7,5.69c.34,1.26,1,2.48.57,4.44-4-.24-8.35-1.84-12.06,1.28a18.75,18.75,0,0,0-6.58,10.45,10.75,10.75,0,0,0,3.53,9.24,6,6,0,0,1,1.73,2.24c.23,1.41-.76,2.47-1,3.74a8.76,8.76,0,0,0,.58,5.77c1.55,5.58,5.8,8,11,9.12.29,1.78-1.06,2.49-1.86,3.47-2.29,2.83-2.15,4.71.6,7.15,4.37,3.85,6.87,3.89,11.25.12a34.28,34.28,0,0,0,4.24-3.85,15.87,15.87,0,0,0,3.21-15.57c-1.08-3.58-1-3.68,2.25-5.23,2-.93,2.87-2.71,4.17-4.84,4.5,2.39,9.22,3.55,14.12,1.26,2.22.26,3.05,1.73,3.29,3.74-.29,1.75-1.8,2.63-2.81,3.86-2.37,2.86-3.94,5.9-2.19,9.69a5.83,5.83,0,0,1,.31,4.43c-2.8,2.86-5.73,5.57-8.57,8.38-12.41,12.27-20.68,26.69-24,44-1.51,7.78-3.42,15.51-3.41,23.43,0,5.56-.33,11.28,1.71,16.68a3,3,0,0,1-.3,2.27,44.86,44.86,0,0,0-15.27,12.76c-5.95,7.46-8.33,16.24-8.81,25.6a40.29,40.29,0,0,0,1.32,13.62c3.55,12.1,12.72,18.33,24.7,20,9.19,1.3,18.29.47,27.34-1.35a7.35,7.35,0,0,1,2.84-.17,3.32,3.32,0,0,1,2.15,1.77c7.66,12.82,19.15,21.39,31.81,28.65a4.24,4.24,0,0,1,.69.51,7.78,7.78,0,0,1,1.4,4,47,47,0,0,0,6.3,17.58C311.92,546.48,312.62,547.27,312,548.31Z" transform="translate(-126.08 -68.12)"/><path class="cls-1" d="M459.92,175.29c3.53,3,7.23,5.85,10.56,9.08,7.17,6.93,14.48,13.78,21.12,21.21A168.84,168.84,0,0,1,507,225.71,218.88,218.88,0,0,1,521.43,251,272.84,272.84,0,0,1,533,279.81c4.05,11.77,6.23,24,8,36.37a163.12,163.12,0,0,1,1.45,33.6c-.74,11.33-2.41,22.62-4.25,33.83-1.13,6.81-3.36,13.45-5.08,20.16a16.07,16.07,0,0,0-.25,2c-.74,1.45-2.12.94-3.26,1-4.38.23-8.76.53-13.11,1.14-1.15.16-2.23.54-3.35.78a7.35,7.35,0,0,0-6,5.82c-2.13,8.22-6.17,15.58-10.41,22.88a223.58,223.58,0,0,1-20.21,29.55c-8.76,10.71-16.62,11.37-28.12,1.67-3.43-2.88-6.56-6.16-8.38-10.42-.36-1.7.55-3.11,1.15-4.55,1.11-2.68,2-5.45,3.14-8.11a4.9,4.9,0,0,1,3-.65c7.93-.44,14.21-5.48,15.68-13.3.93-4.95,2.18-9.49,5.31-13.6,2-2.65,2.44-6.14,2.37-9.54a7.86,7.86,0,0,0-.7-4.18c-1.27-2.17-.62-4,.87-5.73.75-.86,1.62-1.63,2.28-2.56,2-2.79.9-5.55-2.4-6.28-1-.22-2.12,0-3-.77-.63-1.38,0-2.63.49-3.83,2.2-4.95,3.8-10.13,6-15.06a16.26,16.26,0,0,0,1.39-9.43,6.33,6.33,0,0,0-5.09-3.24,67.65,67.65,0,0,0-13.12-.16c-7.21.32-14.42,1-21.66.72a4.77,4.77,0,0,0-3.27,0c-4.8.22-9.6.36-14.4.48-1.21-.41-1.6-1.53-2.09-2.52-1.48-2.95-3-5.89-4.63-8.74-3.57-8.75-9.13-16.24-15.05-23.49-.6-.73-1.4-1.31-1.58-2.33a3.19,3.19,0,0,1,.84-2.08c4.11-5.53,5.78-12,7.11-18.59.75-3.72-.84-7-2.31-10.17a44.35,44.35,0,0,1-4.28-19.71,64.37,64.37,0,0,0-1.68-14.18c-1.52-7.4-5.83-13-11.21-17.89-8.4-7.69-18.66-10.79-29.67-12.17-2.21-.27-4.57-.06-6.63-1.17-.21-1.47.79-2.19,1.44-3.08,15.8-9.8,33.76-13.94,51.17-19.5,15.74-5,31.43-10.14,45.74-18.64,3.85-2.29,7.41-5.05,11.11-7.57C457.43,175.84,458.35,174.58,459.92,175.29Z" transform="translate(-126.08 -68.12)"/><path class="cls-2" d="M348.7,222.45l-1.3,2.43c4.81.71,9.79.88,14.42,2.25,5.9,1.75,12.16,3.53,17.1,7,8.43,5.87,15.28,13.53,16.72,24.46.58,4.41.91,8.86,1.18,13.31.37,6.31,1.42,12.44,4.27,18.16,2.31,4.66,3.17,9.33,1.65,14.58a56.76,56.76,0,0,1-7.61,17c-.4,1.64-2,2.25-3,3.41-6.74,4.55-13.56,8.88-21.62,10.89a41.94,41.94,0,0,1-21.79.13c-10.57-2.94-20.63-7-28.9-14.54-4.41-4-8.25-8.46-10.26-14.22-.6-2-.88-4.14-1.86-5.92a61,61,0,0,1-7.26-33.92c.6-9.19,1.95-18.27,8.13-25.65,2.54-3,5.69-5.58,9-8.76-16.22-33.34-18.39-66.72,4-99,4.18-5.41,8.16-11,12.57-16.19,4.56-5.38,10.56-9,16.78-12.18,10.73-5.41,21.65-10.45,32.32-16,11.23-5.81,22.27-12,33.35-18.07a52.84,52.84,0,0,0,4.87-3.44c.13-.09.37,0,.55,0,2.57,2.89,1.62,9-2.2,14.26-6.6,4.39-13.63,8.07-20.21,12.5-8.16,5.5-16.35,10.93-24.14,17-1.11.86-2.14,2-3.75,1.83-1.45-.72-2,.51-2.83,1.27-4,3.82-7.65,8-11.8,11.62a5.64,5.64,0,0,0-2.2,1.29,123.18,123.18,0,0,0-32.8,46.07c-2.88,6.92-5.59,13.78-6.37,21.33a34.57,34.57,0,0,0,.78,11.36,91.84,91.84,0,0,0,5,14.34c.82,2,1.64,4.14,3.75,4.88,1.54.19,2.43-1.32,3.79-.79.59.38.71,1.35,1.61,1.32,2.13,0,1.28-3.12,3.38-3.13a13.32,13.32,0,0,0,8.07-.07C344.25,222.56,346.39,221.39,348.7,222.45Z" transform="translate(-126.08 -68.12)"/><path class="cls-3" d="M444.58,519c-3,1.53-6.15,2.93-9.1,4.6a203.46,203.46,0,0,1-33.1,14.79,217.55,217.55,0,0,1-41.5,9.85c-3.46.49-7,.45-10.52.66a1.33,1.33,0,0,1-.19-1.59c2.1-3.89.86-7.53-.67-11.19-.66-1.58-1.35-3.14-2-4.7-2.55-5.66-5.37-11.2-8.13-16.76-.63-1.26-1.47-2.54-.49-4,.94-1,2.22-1.05,3.42-1.28,21-3.88,42-7.92,63-11.64,1.88-.33,3.72-.86,5.61-1.13,5.56-.8,11.21-1.38,15.27-6,1.55-.55,2.79.17,3.94,1a17.5,17.5,0,0,1,6,7.44,59.39,59.39,0,0,1,2.73,7.49c1,4.1,2.26,8.05,5.37,11.13A1.44,1.44,0,0,1,444.58,519Z" transform="translate(-126.08 -68.12)"/><path class="cls-2" d="M419.81,152.44c6-1.09,12-1.85,17.89-3.32,14-3.52,28-7.33,41.92-11.11,3.66-1,7.23-2.33,11.25-3.64,1.95,1.06,1.68,3.25.8,5a114.33,114.33,0,0,1-7.55,13.07c-2.31,3.33-5.36,6.15-8.08,9.19q-21.89,6.16-44.17,10.7a4.52,4.52,0,0,1-3.6-.26c-1.32-1.14-2.51-.15-3.71.27a562.63,562.63,0,0,0-60.83,25.56,7.6,7.6,0,0,1-1.07.4c-4.13.59-7.2,3.34-10.58,5.38a54,54,0,0,0-10.16,7.8c-.83.83-1.63,2-3.14,1.28-.67-1.36.19-2.42.8-3.44,9.22-15.41,20.47-28.91,35.78-38.73a130.49,130.49,0,0,1,41.9-17.83A7.87,7.87,0,0,1,419.81,152.44Z" transform="translate(-126.08 -68.12)"/><path class="cls-4" d="M348.06,531.12c.92,2.06,1.8,4.14,2.78,6.18a12.23,12.23,0,0,1-.48,11.61c-3.86,4.88-9.36,7.39-14.82,9.69-6.67,2.81-12.36,0-17.41-4.37-2.16-1.86-4.12-3.94-6.17-5.92a54.32,54.32,0,0,1-7.21-17.77c-.44-2.12-1-4.22-1.44-6.33a2.79,2.79,0,0,1-.7-1.22c-1.5-7.81-3.57-15.48-5.78-23.11a53.37,53.37,0,0,0-6.7-18.48,122.69,122.69,0,0,1-11.92-27.51c-.43-1.46-1-2.89-.56-4.47.33-.79.58-1.65,1.77-1.78,1.91.46,2.65,2.21,3.51,3.76a71.19,71.19,0,0,0,9.19,12.75,16.07,16.07,0,0,0,2.05,2c4.88,3.88,8.3,3.65,12.26-1.13,2-2.45,4.24-4.32,7.48-4.83s4.82.47,5,4a76.93,76.93,0,0,1-.69,10.83,209.86,209.86,0,0,0-.47,34.28c.38,5.15.89,10.26,1.75,15.35a23.15,23.15,0,0,0,3,8.3,21.58,21.58,0,0,1,1,4.43,12.06,12.06,0,0,0,1.72,4.19c2.55,3.95,5.65,4,8.46.27a4.44,4.44,0,0,1,.79-.83c4.82-1.8,9-4.36,11.55-9.11C346.37,531.24,347,530.4,348.06,531.12Z" transform="translate(-126.08 -68.12)"/><path class="cls-1" d="M419.81,152.44c-2.53.75-5,1.56-7.58,2.26a128.6,128.6,0,0,0-40.09,18.81c-10.88,7.6-19.63,17.35-27,28.36-2.3,3.46-4.21,7.18-6.29,10.78a84.08,84.08,0,0,1-5.13,10.91c-.33.95-.67,1.89-1.08,3.06l-3.15,1.11c-.17-1-.31-1.72-.45-2.48-1-1.36-.71-2.93-.61-4.42,1.35-18.92,7.89-36,18.17-51.81,5.35-8.22,10-16.93,16.32-24.51,2-2.34,3.94-4.66,5.94-7,.55-.63,1-1.43,2.07-1.27,3.63,1,7.29,1.8,10.87,2.92q16,5,31.91,10.23A46.16,46.16,0,0,1,419.81,152.44Z" transform="translate(-126.08 -68.12)"/><path class="cls-5" d="M371,136.28a151.54,151.54,0,0,0-20.78,28.6c-4.88,8.62-10,17.17-14.1,26.16a75.16,75.16,0,0,0-6.42,26.82c-.15,2.46-.39,4.93-.59,7.39-4.6,2.25-5.57,2.05-7.7-3-3.3-7.77-6.85-15.58-6.53-24.29a47,47,0,0,1,4.52-19.28c4.8-9.71,9.5-19.5,14.89-28.88,5.23-9.09,13.56-15.63,20.82-23a5.83,5.83,0,0,1,2-.84c.63,1.39-.6,2.05-1.22,2.88-5.43,7.28-11.87,13.74-17.24,21.07C329.4,162.55,322,176,320.34,192a64.44,64.44,0,0,0-.15,10.3c.29,5.23.34,10.51,1.64,15.64.27,1.08.35,2.26,1.72,2.91,1.28-1.6,1.17-3.46,1.34-5.19.6-5.79.86-11.61,1.73-17.37a87.67,87.67,0,0,1,10.75-30.95c9.47-16.4,20.1-32.06,30.22-48,1.26-2,1.76-4.49,3.92-5.87,1.76-1.08,3.55-2.11,5.26-3.25C388.51,102.3,400.21,94.4,412,86.62c2.48-1.63,5.26-2.82,7.9-4.21-1.77,2.77-3.12,5.94-5.37,8.24-8.67,8.85-17.8,17.25-26.41,26.15C382.11,123,376.67,129.77,371,136.28Z" transform="translate(-126.08 -68.12)"/><path class="cls-5" d="M333.76,223.56l5.13-10.91c3.09-2.42,6.07-5,9.3-7.22,3.65-2.51,7.48-4.76,11.3-7a10.26,10.26,0,0,1,3-.66c.07,1.5-1.25,1.76-2.14,2.4a86.49,86.49,0,0,0-17.66,16.24,8.63,8.63,0,0,0-2.17,5.06c1.81.61,3.12-.37,4.37-1.31a206,206,0,0,1,37.4-22.23c6.67-3.09,13.46-5.93,20.07-9.17,7.69-3.76,14.53-8.8,21.47-13.71,1.63-1.15,2.32-3.33,4.43-3.89,1,.17,2,.66,2.85.47q17.88-4.08,35.73-8.34c2.58-.61,5.11-1.43,7.69-2.07.44-.11,1,.24,1.5.37q-6.74,5.81-13.49,11.6c-.85.73-1.75,1.4-2.63,2.1-3.09,2-6.27,4-9.26,6.14-8.32,6.11-17.62,10.4-27.18,13.88-13.42,4.89-27.2,8.77-40.71,13.39-9.19,3.15-18.22,6.78-27.27,10.31a76,76,0,0,0-6.8,3.44c-3.76.75-7.51,1.64-11.3,2.17C336.26,224.78,335,223.94,333.76,223.56Z" transform="translate(-126.08 -68.12)"/><path class="cls-6" d="M440.42,458.25c3.57,3.91,6.68,8.43,10.81,11.6,9.92,7.6,16.31,6.58,24.37-2.89,10.88-12.8,19.33-27.18,27.08-42a35.6,35.6,0,0,0,3.41-9.67c1.09-5.76,5.1-7.43,10-8,5.58-.66,11.18-1.05,16.78-1.56l3.44.26c.15,1.31-1,1.47-1.75,1.94-2.83,1.77-5.76,3.38-8.6,5.12-8.93,5.47-15.25,13.53-20.44,22.39-5.93,10.14-11.85,20.28-18,30.31-3.3,5.41-7.69,10-11.84,14.7-3.84,4.38-7.73,8.7-10.83,13.67-.51.81-1,1.66-2.15,1.65-3.93-1-6.17-3.95-8.14-7.15a24.41,24.41,0,0,0-4.44-5.56,4.14,4.14,0,0,0-5-.85,8.61,8.61,0,0,1-7.74.07c-1.95-1-4.49-.16-6-2.18a4.89,4.89,0,0,1,.47-3.32c2.11-5.32,4-10.7,6.27-16C438.62,459.76,438.83,458.37,440.42,458.25Z" transform="translate(-126.08 -68.12)"/><path class="cls-7" d="M462.92,495.65c7.45-9.27,15.46-18.15,22.19-27.91,7.18-10.41,13.07-21.71,19.67-32.53,5.49-9,11.87-17.27,21-22.95,3.46-2.15,7-4.18,10.5-6.26h4.81c.44,4.46,1,8.4-.88,12.2-.87,1.8-1.84,3.56-2.67,5.38A4.2,4.2,0,0,0,537,426c1.63,6.09-1.17,11.15-4.15,15.85s-6.77,8.65-10.21,12.95c-2.5.62-3.5,0-3.65-2.27-.11-1.64.09-3.24,1.53-4.37,4.2-.65,6.56-3.59,8.45-7,.63-1.14,1.3-2.42,0-3.55-1.39-.45-2,.54-2.62,1.33-1.41,1.68-2.73,3.43-4,5.19-.6.81-1.05,1.91-2.4,1.68-1.89-1.38-1.58-3.26-1.11-5.13.38-1.55,1.16-3,1.44-4.58.53-1.76,2-2.72,3.28-3.85a19.18,19.18,0,0,0,6.6-10.16c.35-1.49.71-3-.39-4.82a9.43,9.43,0,0,0-6.81,4.4C520,426.3,517.18,431,516,436.43c-6.1,10.83-14.46,19.91-22.46,29.28-2.75,3.22-5.78,6.38-6.33,11-.21,1.81-1.58,3.26-3,4.44a19.94,19.94,0,0,0-6.5,10.56,22.33,22.33,0,0,1-2.76,6.89,14.47,14.47,0,0,0-9,4.86c-1.65,1.78-2,4-3,6-3.13.78-4.65,0-6.63-3.36a1.68,1.68,0,0,1,0-1.39C458.31,501.6,460.09,498.24,462.92,495.65Z" transform="translate(-126.08 -68.12)"/><path class="cls-4" d="M456.51,505.87c1.58,2.1,3.32,3.91,6.31,3.44,1,.67.92,2.12,2,2.67,4.65-.43,9.18-6.18,9.94-13.3,2.22-6.6,3.29-13.7,9.27-18.54,1.5-1.21,1.93-3.72,2.88-5.63a22.85,22.85,0,0,1,2.34-4.47c5.89-7.2,12-14.21,17.83-21.46,2.43-3,4.28-6.51,6.47-9.73a20.74,20.74,0,0,1,2.25-2.45c1.66,0,3.24-.63,4.91-.62-.45,1.71-.86,3.43-1.35,5.13s-.67,3.54,1.07,4.85a4.72,4.72,0,0,1,1,2.62c-2.44,1.37-1.84,3.58-1.68,6l2.76.41c-6.33,7-12.39,14.21-19.05,20.85-7,6.92-12.59,14.77-18.35,22.61-4.79,6.52-10.09,12.66-15.18,19-4.93,6.09-10.82,8.91-18.54,5.35-.92-.65-.85-1.66-.88-2.6-.2-5,1.91-9.27,4.51-13.35A1.31,1.31,0,0,1,456.51,505.87Z" transform="translate(-126.08 -68.12)"/><path class="cls-8" d="M456.51,505.87c-3.49,5-6,10.35-5,16.71-1.37-.53-2.78-1-4.08-1.62a23.13,23.13,0,0,1-2.81-2,24.1,24.1,0,0,1-6.32-11.52c-1.33-5-2.6-10.25-6.83-13.84a32.25,32.25,0,0,0-4.79-2.86c.73-3.52,2.41-6.67,3.82-9.93a1.41,1.41,0,0,1,1.29-.94c4.74.93,9.22,4.21,14.41,1.18.87-.51,3,.23,4,1.09a23.44,23.44,0,0,1,4.7,5.66,20.84,20.84,0,0,0,8,7.8Q459.71,500.75,456.51,505.87Z" transform="translate(-126.08 -68.12)"/><path class="cls-9" d="M236.67,420.41c-.52-2-1.37-4-1.5-6-1.3-20.09,2.18-39.33,11.24-57.33,5.87-11.66,14.75-21,24.86-29.17a1,1,0,0,1,1,1.15c-.3,4.49,2.71,7.36,5.52,9.86,6.55,5.82,10.65,13.62,16.66,19.84a2.34,2.34,0,0,1,.67,1.54c-.14,1.72-1.62,2.24-2.79,3a75.67,75.67,0,0,0-19.23,16.88,2.89,2.89,0,0,0-.87,1.85,93.61,93.61,0,0,1,19.16.59c3.16.64,6.22-.18,9.26-.77,2.32-.45,3.46-2.2,3.55-4.55a22.74,22.74,0,0,1,.53-5.07,16.6,16.6,0,0,1,2.25-5.45c3.7-4.35,8.69-5.53,14.09-5.65,7,.35,12.78,3.63,17.91,7.9,3.1,2.58,3,6.78,3.07,10.61-.73,1.09-.64,2.34-.76,3.57a7.32,7.32,0,0,1-7.09,6.94,22,22,0,0,1-7.66-.7c-3.19-.9-5.9-.4-8.22,2.31-2.59,3-6.55,4.66-8.81,8.1-3.5,2.62-7.07,5.13-11.35,6.36-2.48.13-4.91.71-7.42.66-1.73,0-3.05,1-4.32,2a164.55,164.55,0,0,0-15.1,13.2c-4.78,4.88-11.07,7-17.42,8.86-2.85.82-5-.75-5.85-3.55-.16-.55-.19-1.2-.61-1.59-3.74-3.53-5.5-8.42-8.62-12.66-.4,1.86-.05,3.48-.28,5.07C238.4,419.3,238.34,420.57,236.67,420.41Z" transform="translate(-126.08 -68.12)"/><path class="cls-10" d="M269.56,493.8c-5,.67-9.94,1.46-14.93,2-10.71,1.09-21.29.49-30.56-5.56-6.46-4.22-10.22-10.78-11.37-18.45-2-13.51,0-26.31,8.79-37.19,3.29-4.08,7.75-7.25,11.82-10.67.94-.8,2.45-.93,3.7-1.37,1.78,1.08,1.67,2.91,1.66,4.59a26.78,26.78,0,0,0,1.41,8.15c1,3.26,3.16,4.78,6.55,5,2.79.13,5.5-.73,8.28-.56,1.4.08,3-.11,3.66,1.6.62,4.68.18,9.39.27,14.08a95.13,95.13,0,0,0,3.44,18.83,86.92,86.92,0,0,0,7,17.22C269.67,492.14,270.1,492.92,269.56,493.8Z" transform="translate(-126.08 -68.12)"/><path class="cls-5" d="M341.73,379.64c-.2-1.21-.46-2.42-.58-3.64-.41-4.2-2.4-7.05-6.24-9.15-4.37-2.39-8.65-4.72-13.73-5-1.83-1.18-2.29-3.32-3.48-5-.59-1-1.26-2-.89-3.2,2.53-4.41,4.85-8.81,3.49-14.25-1.87-7.4-3.72-14.77-9.25-20.5a2.94,2.94,0,0,1-1.22-1.72c.19-1.79-.62-3.32-1.25-4.92-.41-1-1.19-2-.72-3.25l1.74-1.7c2.24,3.15,4.27,6.48,6.77,9.42A49.08,49.08,0,0,0,338,331.55,142.06,142.06,0,0,0,352.39,336c6.12,1.39,12.23.66,18.34-.88,7.46-1.88,13.75-5.92,20.08-10a9.81,9.81,0,0,1,1.26-.62c1.3.2,1.81,1.37,2.49,2.22,2.92,3.64,6.33,6.92,8.53,11.09.59,1.12,1.6,2.28.55,3.69a65.76,65.76,0,0,1-30.46,9,100.92,100.92,0,0,1-15.45-.19,61.15,61.15,0,0,1-22.31-6.85,7.25,7.25,0,0,0,.87,3.69A92.2,92.2,0,0,0,342,359a11,11,0,0,0,6,5c3.69,1.38,7.6,1.78,11.38,2.76.81,1.12-.15,1.79-.72,2.45-3.91,4.52-6.15,9.87-7.65,15.56-.69,2.58-1.91,5-2.25,7.69-.61,2.61-1.6,5.09-2.42,7.63-.29.88-.52,1.87-1.62,2.19-2.14-.72-2.4-2.67-2.91-4.46,2.46-4.93-.52-9.7-.49-14.56C341.33,382,340.9,380.76,341.73,379.64Z" transform="translate(-126.08 -68.12)"/><path class="cls-11" d="M276.21,310.18l-3.33-3.66c-1.4-1.73-1.82-4-3.06-5.79-1.05-1.54-2.15-2.47-4.26-2-3,.66-5.84-.23-8.56-1.63-1.24-.64-2.38-1.62-4.08-1.65-1,2.21-.15,4.92-1.94,7-1.63,1.88-3.91,2.63-5.88,3.81-.13,1.73.85,2.84,1.67,4a11.86,11.86,0,0,1,2.18,7.29,8.23,8.23,0,0,1-9.75,8.28c-2.45-.36-3.29-1.47-2.95-3.94.12-.85.39-1.68.56-2.52a4.41,4.41,0,0,0,.14-2.64c-4.33.49-8.77,1.73-12.49-1.73-.4-2.68.41-4,3.15-5.21a12.13,12.13,0,0,1,2.74-.78c.9-.15,1.94.09,2.76-.93-.69-1.92-2.39-2.42-4.17-2.75-1.11-.21-2.3,0-3.38-.46-1.24-1.25.75-1.89.53-3.18-1.72-2.78-5.35-4.57-5.7-8.51,2-3.18,5.25-3.93,8.61-4.3,4.35-.47,8.73-1,13.12-.36.27,0,.55-.12.89-.53-.24-2.34-1.89-4.14-3.13-6.12-1.61-2.58-1.56-4.13.59-6.37a14.11,14.11,0,0,1,8.23-4.33c4.79-.72,6.84.67,8.46,5.72,1.15-5.9,2.9-11.16,9.46-12.78l4,.13c2.94,3.46,3.49,5,3.49,9.93.59.74,1.39.37,2.11.37,3.82,0,5.53,1.12,7,4.7a22.3,22.3,0,0,1,1.29,5c.88,5.47-2.82,9.42-7.25,11.35a3.44,3.44,0,0,0-1.61.91c-.15,2.39,2.3,4,2.26,6.48l2.88,5.09A4.07,4.07,0,0,1,276.21,310.18Z" transform="translate(-126.08 -68.12)"/><path class="cls-8" d="M258.19,441c-2.15-.14-4.3-.36-6.46-.37-1.79,0-3.59.27-5.38.31-3.57.06-5.79-1.36-6.79-4.81-.79-2.71-1.11-5.55-1.63-8.33-.32-1.76-.61-3.52-.92-5.28-.11-.7-.23-1.41-.34-2.12a11,11,0,0,0,1.17-2.93c.19-2,.06-3.93.06-5.9l.79-.26c1.92,3.18,3.82,6.37,5.77,9.52.54.89,1.27,1.65,1.86,2.51a30.47,30.47,0,0,1,3,5.19A4.66,4.66,0,0,0,255,430c6.61-2.48,13-5.09,18.08-10.53,4-4.29,8.81-7.82,13.33-11.6,3.55-3,8-1.69,12-2.31a34.56,34.56,0,0,1-11.12,11.69c-5.76,4-10.11,8.64-10.46,16.1-.07,1.54,0,3.29-1.26,4.6a48.47,48.47,0,0,1-12,3.64C261.84,441.94,259.88,442.34,258.19,441Z" transform="translate(-126.08 -68.12)"/><path class="cls-12" d="M317.1,354c.36.92.72,1.83,1.07,2.74-.13.15-.27.35-.43.36-4.13.27-8.05,1.22-11.25,3.63-2.74-1.49-3.15-3.85-3.66-6a8.61,8.61,0,0,0-2.22-4.54,5.32,5.32,0,0,1-1.48-3.32c-.46-3.37-1.6-4.23-5.15-4.25-1.29,0-2.63.74-4.16-.42.13-3.7,3.82-5.85,4.7-9.22-1-1.27-2.26-1.17-3.47-1.26-4.41-.33-4.89-1-3.59-5.09a2.81,2.81,0,0,0,.18-2.3c-1.22-1.06-2.62-.6-4-.17s-2.66,1.08-4,1.54c-2.83.94-3.86.19-4.06-2.84a7.54,7.54,0,0,1,2.44-6.45,69.53,69.53,0,0,1,11.51-8.45c1.73,1.51,3.48,3,5.18,4.54,1,.94,2,2,3,2.95.58.61,1.53,1.17,2,2,2,3.22,4.46,5.58,5.76,9.23,1.47,4.18,1.73,8.91,5.58,12,.6.48.64,1.56.94,2.36a90.83,90.83,0,0,0,4.21,10A5.56,5.56,0,0,1,317.1,354Z" transform="translate(-126.08 -68.12)"/><path class="cls-8" d="M269.56,493.8c-2.95-7.53-6.27-14.95-8.72-22.64-1.54-4.84-1.78-10.1-2.61-15.18,2-.46,2,1.37,2.55,2.38,3.71,7.3,7.54,14.53,12,21.43,4.29,6.7,9.24,12.78,16.28,16.89,2.7,1.58,5.79,1.72,8.57,2.87,1.62,6.36,3.28,12.71,4.84,19.09.45,1.82.6,3.71.88,5.57-12.89-6.72-24.07-15.39-32-27.85C270.8,495.49,270.16,494.66,269.56,493.8Z" transform="translate(-126.08 -68.12)"/><path class="cls-13" d="M224.68,314.77c4.28,2.52,8.73,2.13,13.66.45l-1.64,8.69c4.79,3,11,.11,11.47-5.16a10.82,10.82,0,0,0-2.19-8.33c-1.1-1.34-1.7-3.09-2.72-5,7-.84,9.36-4.83,8.27-11.63,5.73,2,10.3,6.66,16.28,3.38,2.5,2.74,4.73,5.55,5.07,9.38-4.53,2.41-8.2,2.13-14-1.06-1.33,3.64-1.33,3.64-6.92,6.12,0,.09-.05.19,0,.26,4.8,12.14-.13,18.17-7.71,24.08a8.52,8.52,0,0,1-13.16-4.24,5,5,0,0,1,.65-3.47,28,28,0,0,1,3.2-3.89c-5.63-1.07-9.88-3.8-11.61-9.5A1,1,0,0,1,224.68,314.77Z" transform="translate(-126.08 -68.12)"/><path class="cls-14" d="M289.55,307.88c-2.93,2.33-5.81,4.73-8.8,7-4.3,3.22-5.44,6.22-3.71,10.61,3.85-.2,7.09-3.92,12-2-.56,2.12-1.14,4.28-1.81,6.84l9.25,1.62-6.43,9.9,8.39.46c2.57,6.23,4.94,12,7.47,18.12,3.85-3,7.82-4.27,12.29-3.68l3,5.12c-5.23,0-10,1.36-13.77,5.23-1,.67-1.52-.07-2.18-.63-3.5-3-6-6.85-8.87-10.35-4.61-5.58-9.42-11-12.28-17.82a6,6,0,0,0-3.9-3.14c-4.53-1.59-7.37-4.62-8-9.48a2.66,2.66,0,0,0-1.55-2.23c-1.9-3.72-.34-6.76,2-9.56,1.09-1.3,2.38-2.44,3.58-3.65l4.57-2.18c2-.26,3.88-.63,5.83-.74A11.53,11.53,0,0,1,289.55,307.88Z" transform="translate(-126.08 -68.12)"/><path class="cls-15" d="M266.62,264.07c-6.19,3-8.59,8.33-9.44,14.9-.32-.84-.68-1.66-1-2.51-1.33-4-3.06-5.39-7.28-4.63s-8.15,2.71-9.78,7.32c1.6,3.37,4.75,6,5,10.41a17.16,17.16,0,0,0-3.07-.36c-5.55.45-11.12.81-16.63,1.58-1.37.2-2.55,1.8-3.82,2.75a1.29,1.29,0,0,1-1.94.07c1.21-9.41,8.87-14.29,19.09-11.8-.41-1.5-.79-2.8-1.14-4.11a6,6,0,0,1,2.58-7c5.63-4,11.14-4.05,17.42-.08C259.08,267.12,261.83,264,266.62,264.07Z" transform="translate(-126.08 -68.12)"/><path class="cls-13" d="M277.91,302.91c-1.3-2.29-2.6-4.59-3.68-6.52,2.5-1.62,4.76-3,6.9-4.5a6.15,6.15,0,0,0,2.64-6.5c-.49-2.58-.81-5.37-2.08-7.56-.79-1.37-3.16-2-4.94-2.55-1-.31-2.2.2-3.47.35-.12-.45-.42-.95-.3-1.3,1.07-2.9.18-5.37-1.44-7.77a11.33,11.33,0,0,1-.91-2.36c2.32.46,4.78.58,6.92,1.47,3.34,1.39,4.44,4.12,4,7.87,1.9,2.07,3.72,3.86,5.31,5.85,5.83,7.29,4.11,14.73-1.29,22.33C283.59,304.54,280.6,303.29,277.91,302.91Z" transform="translate(-126.08 -68.12)"/><path class="cls-16" d="M270.62,323.39c2-1,2.14.56,2.23,1.72.41,4.86,3.11,7.61,7.52,9.39a9.21,9.21,0,0,1,4.62,4.18c3.07,6.69,8,12,12.48,17.61,1.36,1.71,2.49,3.61,4,5.2,1.85,2,4,3.71,6,5.55-.62,1.7-1.25,3.41-1.88,5.11-2.23,0-2.54-2.5-4.16-3.31a16.71,16.71,0,0,0-4-4.8,9.27,9.27,0,0,1-2.6-4c-7.11-8.32-14.26-16.6-21.27-25-.95-1.14-1.2-2.9-1.68-4.41a22.34,22.34,0,0,1-.54-2.73C271.06,326.38,270.84,324.89,270.62,323.39Z" transform="translate(-126.08 -68.12)"/><path class="cls-15" d="M224.68,314.77l-1.39.05c-1.92-3.51-.31-6.67,1-9.85.19-.45.42-.83,1-.5,2.46.48,5,.81,7.35,1.52.81.24,1.34,1.41,2.63,2.88a36.86,36.86,0,0,1-4,.73C227.13,309.86,225,311.51,224.68,314.77Z" transform="translate(-126.08 -68.12)"/><path class="cls-13" d="M225.28,304.47l-1,.5c-3.64-2.91-6.52-6.2-5.54-11.37l1.94-.07,6.58,8.67Z" transform="translate(-126.08 -68.12)"/><path class="cls-2" d="M303,313.22a56.68,56.68,0,0,1,4.91-4.21c.83,1.85,1.78,3.67,2.45,5.58a7,7,0,0,1-.13,2.6c-.07.05-.17.16-.23.15-3.59-.86-7.26-.72-10.92-.79" transform="translate(-126.08 -68.12)"/><path class="cls-17" d="M344.67,402.37l3.51-10.1c2.82-6.12,6.83-11.47,10.88-16.79a23.44,23.44,0,0,1,10.51-7.7c9-3.43,18.07-6,27.87-5.69,11,.36,21.92-1.18,32.89-1,9,.12,17.95-.16,26.92-.06,5.44.05,10.85-.69,16.3-.75,1,0,2.09-.35,3,.47-.41,2.86-.4,5.88-1.33,8.57-2.34,6.74-5.11,13.33-7.7,20-.44,4.25-2.42,8-4.07,11.79-.64,1.47-2.05,1.5-3.46,1.18-3.52-.81-7.15-1.21-10.61-2.24a26.22,26.22,0,0,0-14.08-.49,3.38,3.38,0,0,1-2.24-.06c-1.57-1.12-2.57-3.2-5.37-2.95-2,4.32-4.5,8.6-6.78,13a28.49,28.49,0,0,0-2.75,6.91,12,12,0,0,0,.14,6.78,10.83,10.83,0,0,1-.18,7,74.6,74.6,0,0,0-3.44,17.63c-1.13,17-9,30.05-24.7,37.53a34.36,34.36,0,0,1-18.66,3.5,20.49,20.49,0,0,1-8.86-3.06,48.52,48.52,0,0,1-18.91-22.45c-4-9.21-5.12-18.95-5.41-28.84-.06-2.29.14-4.62-1.29-6.63-.51-2,.27-3.74.93-5.47a40.2,40.2,0,0,0,1.8-5.94c1.57-3.76,2.63-7.7,3.95-11.55C343.82,404,343.83,403,344.67,402.37Z" transform="translate(-126.08 -68.12)"/><path class="cls-18" d="M337,427.79c.62,1.43,1.76,2.86,1.76,4.3a90.74,90.74,0,0,0,3.47,25.61A48.4,48.4,0,0,0,352,475.65c3.93,4.56,8.31,8.61,13.93,11,5.32,2.28,10.86,2,16.26.6a43,43,0,0,0,21.19-12.8c4.88-5.21,7.46-11.3,9.05-18.13a101.32,101.32,0,0,0,1.8-14.37c.36-4.19,2.22-8.23,3.2-12.38.42-1.8.9-3.95.29-5.54a12.26,12.26,0,0,1,.28-9.72c2.92-6.47,6.21-12.78,9.46-19.4,2.45.92,4.75,1.47,5.53,4.19-.16.7-.73.94-1.31,1.18-.34.15-.68.29-1,.46a6.88,6.88,0,0,0-1.21.94,5.35,5.35,0,0,0-1.24,6.26,72.8,72.8,0,0,1,2.84,9.9,8.32,8.32,0,0,1-2.15,7.9,18.35,18.35,0,0,0-1.63,2c-1.8,2.74-1.75,4.69.07,7.39a20.32,20.32,0,0,0,13.06,9c1.54.33,3.26.33,4.52,1.54q-2.25,6.27-4.51,12.55c-2.28,5.42-4.59,10.84-6.82,16.28-.72,1.76-1.24,3.59-1.85,5.39-1.25,2.82-2.48,5.65-3.75,8.46-.39.83-.91,1.61-1.36,2.41-3.51,5.49-9.44,5.5-14.9,6.51l-71.25,13.15a14.57,14.57,0,0,0-1.64.49c-2,.14-2.24-1.57-2.8-2.75-3.36-6.94-5.09-14.38-6.42-21.92-1.15-6.49-2.05-13-3.25-19.51a21.27,21.27,0,0,1-.13-7.12c2.87-10,6.12-19.81,9.19-29.72C335.71,429.05,335.84,428,337,427.79Z" transform="translate(-126.08 -68.12)"/><path class="cls-9" d="M431.26,399.84l1.73-.72c10-3.34,19.26,1.3,29.31,2.71,1.7-4.09,3.45-8.33,5.21-12.57,2.69-1,5.43-.72,6.73,1.84.7,1.37-.19,3.63-.59,5.44-.15.63-1,1.09-1.5,1.66-.9,1.08-1.77,2.18-2.24,2.77l1.43,7.36c-3.56,7.59-10.81,9.67-17.71,11.52-.75,1.68,0,2.67.42,3.71,1.55,3.7.9,7-2.17,9.55a14.42,14.42,0,0,1-10.64,3.42,7.47,7.47,0,0,1-3.71-1.43c-1.57-1.08-2.82-2.5-2.5-4.5s2.12-2.54,3.85-2.91c2.15-.46,4.28-1,6.41-1.55,1-.26,2.08-.44,2.64-1.44.41-1.39-.47-2.21-1.24-3.05a29.35,29.35,0,0,0-6.21-5,29.23,29.23,0,0,1-9.54-9.36c-1.16-1.87-2.74-3.84-1.37-6.33l1.15-.62A1.8,1.8,0,0,1,431.26,399.84Z" transform="translate(-126.08 -68.12)"/><path class="cls-8" d="M429.57,400.91c.34,5.93,4.39,9.53,8.43,13,3.15,2.73,6.66,5.05,9.78,7.81,2.37,2.11,1.71,4.12-1.36,4.9-2.58.65-5.21,1.11-7.77,1.81a18.47,18.47,0,0,0-3.14,1.46,5.43,5.43,0,0,0,4.73,5.69,12.59,12.59,0,0,0,12-3.83c3.43-3.54,1.9-7.19-.3-10.72L453,419c1.19-.29,2.29-.53,3.39-.81,5.57-1.43,10.71-3.48,13.55-9,.21-.4.92-.55,1.4-.82a16.11,16.11,0,0,1-3,11.06,22.82,22.82,0,0,0-4.15,9.82c-2,11.39-7.6,16-19.27,16.49-7.21-.76-13.45-3.2-17.76-9.51-2.67-3.91-3-6.6.36-9.89,3.08-3,3.64-6.29,2.41-10.15-1-3.07-2.11-6.11-3-9.21C426.27,404.36,427.26,402.3,429.57,400.91Z" transform="translate(-126.08 -68.12)"/><path class="cls-19" d="M476.54,360.71c-11.32.38-22.63.78-34,1.12-3.3.1-6.6-.06-9.89,0-14,.35-28,.26-42,1.3-9.67.72-19.25,3.18-27.23,9.18-2.95,2.23-5.17,5.54-7.41,8.58-2.41,3.3-4.44,6.87-6.68,10.3a5.73,5.73,0,0,1-1.23,1c2.3-9.08,4.68-18.12,11.28-25.28a1.69,1.69,0,0,1,.45-1.59c3.77-3.73,7.69-7,13.45-7.34,9.46-.58,18.91-.46,28.37-.51,2.11,0,4.15-.67,6.27-.55,3.24.12,6.54-.73,9.67.71L433,357.3c.76-.06,1.52,0,2.28,0,10.47-.35,20.95-.79,31.43-1a19.24,19.24,0,0,1,6.95,1.25C474.86,358,475.6,359.6,476.54,360.71Z" transform="translate(-126.08 -68.12)"/><path class="cls-6" d="M403.83,341.14c-3.1-4.5-6.19-9-9.31-13.48-.76-1.09-1.63-2.09-2.45-3.14l3.06-2.88A86.22,86.22,0,0,1,412,346.84c-2.11,1.67-4,.42-5.87-.5C404.3,345.06,403.18,343.49,403.83,341.14Z" transform="translate(-126.08 -68.12)"/><path class="cls-8" d="M405.82,345.73l6.14,1.11q2.85,5.45,5.71,10.87l-9.76.18C406.61,353.94,405.05,350,405.82,345.73Z" transform="translate(-126.08 -68.12)"/><path class="cls-8" d="M435.29,357.26l-2.28,0Z" transform="translate(-126.08 -68.12)"/><path class="cls-20" d="M371.51,113.39c-5.71,9.27-11.45,18.52-17.13,27.8-6.28,10.26-12.84,20.37-18.68,30.87-5.35,9.61-7.94,20.2-8.9,31.17-.52,6.06-1.15,12.12-1.74,18.38-1.54,1.64-1.54,1.64-3.13,0-.58-2.68-1.37-5.24-1.67-7.85-1.49-13.19-1.86-26.38,3.29-38.94a112.3,112.3,0,0,1,18.31-30.29C347,138.42,352,132.16,357.11,126c4.2-4.27,8.43-8.51,12.58-12.83C370.61,112.18,371.1,111.85,371.51,113.39Z" transform="translate(-126.08 -68.12)"/><path class="cls-21" d="M377.14,311.33c-1.16,0-5.39-5-7.95-7.25a7.85,7.85,0,0,0-2.59-1.68c-3.38-1.08-3.54-1.37-1.79-4.25L389,296.77C389.42,299.46,379.26,311.33,377.14,311.33Z" transform="translate(-126.08 -68.12)"/><path class="cls-19" d="M352.08,288.63c1.71-4.77,3.71-9.47,5-14.35.56-2.13-.16-4.69-.69-7-.2-.86-1.5-1.47-2.3-2.19,4.17-2.69,7.14-1.28,7.8,3.54.92,6.77-1.14,12.63-5.37,17.73C355.54,287.56,353.58,287.91,352.08,288.63Z" transform="translate(-126.08 -68.12)"/><path class="cls-21" d="M352.08,288.63a4.54,4.54,0,0,1-4.48-4c-1.08-6.09-.24-11.9,3.41-17,.73-1,2-1.62,3.07-2.41,1.85-.36,2.66.82,3.06,2.27a15.16,15.16,0,0,1,.83,5.91,39.89,39.89,0,0,1-3.9,13.37A3.79,3.79,0,0,1,352.08,288.63Z" transform="translate(-126.08 -68.12)"/><path class="cls-21" d="M345.32,310.74c2.16.59-3.29,3.16-5.11,1a85,85,0,0,1-5-7.46c-2.27-4.08,1.93-4.86,2.75-3.61C340.52,304.21,339.9,307.54,345.32,310.74Z" transform="translate(-126.08 -68.12)"/><path class="cls-19" d="M388.19,287.73c.4-2.6,1-5.18,1.13-7.79.1-1.82-.05-3.9-2.52-4.44.34-1.29.7-3.33,1.85-3.33C392.72,272.75,391.89,283.93,388.19,287.73Z" transform="translate(-126.08 -68.12)"/><path class="cls-21" d="M388.19,287.73c-1.93,1-3.51.47-3.33-1.61a105.25,105.25,0,0,1,1.94-10.62c2.29-.42,2.81,1.27,3.13,2.86A13.92,13.92,0,0,1,388.19,287.73Z" transform="translate(-126.08 -68.12)"/><path class="cls-7" d="M326.79,459.37c.82,6.52,1.54,13.06,2.51,19.56,1.49,10,3.17,20,7.61,29.29a20.16,20.16,0,0,0,1.94,2.72c.48,1.33.84,2.71,1.44,4,2.55,5.42,5.18,10.8,7.77,16.2-.61.54-1.46,1-1.81,1.63-2.48,4.74-6.56,7.27-11.52,8.68-.92-1.22-.36-2.54-.28-3.85.35-6.1-2.72-10.68-6.71-14.82-.26-.27-.7-.29-1.43-.22-2.2,1.64-2.2,4.42-2.69,7-.26,1.38,0,2.9-1.25,3.94-1.18-2.52-2.93-4.93-3.45-7.59-2.67-13.43-2.71-27.08-2.34-40.7.16-6,1.11-11.9,1.52-17.87a48.26,48.26,0,0,0-.45-6.66c-4,.14-7.14.59-9.47,3.46-.17.21-.26.51-.43.73-5,6.78-9.8,6.67-15.94,0-3.88-4.23-6.79-9.37-10.14-14.09-.65-.92-1.35-1.8-2.2-2.93L278,449.65c-2.67-3.66-2.94-7.77-2.25-12.06.55-3.33.92-6.71,1.71-10,1.19-5,5.21-7.71,9-10.68,3.27-2.58,6.21-5.59,9.26-8.44,1-.91,1.83-1.93,2.74-2.9A23.19,23.19,0,0,1,309,399.85c4.56-2.29,10.31-.59,11.37,3.66a14.2,14.2,0,0,0,1.36,3.13,41.49,41.49,0,0,1,3,15.08c.43,11.52,1.94,23,2.15,34.51C326.9,457.28,326.81,458.33,326.79,459.37Z" transform="translate(-126.08 -68.12)"/><path class="cls-20" d="M428.27,171.16c-6.25,7.51-14.58,12.31-23,16.74-10.56,5.55-21.75,9.9-32.25,15.56-9.3,5-18,11.11-27,16.68-2,1.22-4.12,2.17-6.18,3.26l-.8-.77c1-2.1,1.6-4.5,3-6.32a78.19,78.19,0,0,1,18.46-17c.7-.48,1.35-1,2-1.54a533.11,533.11,0,0,1,61-25.8c1.25-.44,2.45-1.05,3.72-1.45C427.48,170.44,427.92,170.93,428.27,171.16Z" transform="translate(-126.08 -68.12)"/><path class="cls-9" d="M275.78,437.59,278,449.65c1.85,5.78,3.44,11.66,5.66,17.29a118.32,118.32,0,0,0,6.55,13,67.23,67.23,0,0,1,7.35,19.65c-5.66.33-10.11-2.43-14.15-5.86-7.24-6.16-12.06-14.2-16.6-22.38-2.55-4.59-4.86-9.31-7.31-13.95a7.33,7.33,0,0,0-1.3-1.38q0-7.49,0-15c4.92.48,9.49-1,14.06-2.52C273.4,438.11,274.6,437.89,275.78,437.59Z" transform="translate(-126.08 -68.12)"/><path class="cls-20" d="M322.37,533.45c.54-3,.9-6,1.71-8.92a4.82,4.82,0,0,1,2.55-3c.76-.23,2.47,1,3,2A70.66,70.66,0,0,1,335,534.69c.68,2-.13,4.48-.27,6.74-1.29,2.11-2.32,4.65-5.53,4-3.72-.76-5.13-3.79-6.19-6.89A24.2,24.2,0,0,1,322.37,533.45Z" transform="translate(-126.08 -68.12)"/><path class="cls-20" d="M520.75,435.78l-4.91.62a12,12,0,0,1,.52-3.6c1.89-4,3.83-8.06,6.08-11.9a10.22,10.22,0,0,1,3.88-3.24,15.26,15.26,0,0,1,3.95-1c.27,1.51,1,3.09.74,4.52-.8,4.68-3.46,8.36-7,11.49C522.93,433.69,521.85,434.75,520.75,435.78Z" transform="translate(-126.08 -68.12)"/><path class="cls-20" d="M474.8,498.68c1.23,3.21-.78,5.72-2.08,8.22-1.61,3.11-4.49,5-8.27,6.59l-1.63-4.18C463.13,503.19,469.1,497.89,474.8,498.68Z" transform="translate(-126.08 -68.12)"/><path class="cls-20" d="M521.51,448.38c-.35-.88-.7-1.75-1-2.62,2-2.76,3.87-5.59,6-8.23a3.09,3.09,0,0,1,2.69-.69c.57.17,1.19,1.47,1.16,2.23C530.16,442.55,525.08,447.78,521.51,448.38Z" transform="translate(-126.08 -68.12)"/><path class="cls-8" d="M321.09,406.7a6.69,6.69,0,0,1-1-1.36c-2.05-5.23-2.92-5.82-8.55-5.65-.86,0-1.71.1-2.56.15,1.92-2,3.79-4.07,5.76-6,1.07-1.07,2.52-1.81,3.41-3,2.2-2.91,5-2.88,8.16-2.3a45.2,45.2,0,0,0,7.59.83c3.92.06,6.48-2.7,6.74-6.61a11.59,11.59,0,0,1,1.07-3.09c.55,3.44,1,6.91,1.7,10.3a10.31,10.31,0,0,1-1.41,8.14c-.39,1.56-1.1,3-1.53,4.57a9.57,9.57,0,0,1-6.64,6.82C329.17,410.5,325.17,408.44,321.09,406.7Z" transform="translate(-126.08 -68.12)"/><path class="cls-8" d="M294.76,360l7,8.48a1.34,1.34,0,0,1-.34,1.57,127.68,127.68,0,0,0-9.3,12.31,2,2,0,0,1-.9.68H270c2-2.58,3.47-4.61,5.12-6.43a77.24,77.24,0,0,1,17.87-14.58A9.66,9.66,0,0,0,294.76,360Z" transform="translate(-126.08 -68.12)"/><path class="cls-5" d="M291.18,383.07q5.26-7.29,10.54-14.56l3.81,3.64c-.16,1.6-.39,3.2-.45,4.8-.15,3.38-1.41,5.28-4.72,5.76A82.49,82.49,0,0,1,291.18,383.07Z" transform="translate(-126.08 -68.12)"/><path class="cls-2" d="M405.82,345.73q1.05,6.07,2.09,12.16c-10.65.34-21.31,1-32,.9-6-.05-10.38,2.44-14.48,6.19-.7.64-1.35,1.34-2,2-4.43-1-8.88-1.88-13.28-3-3-.74-4.27-3.38-5.47-5.85-2.53-5.19-4.9-10.45-7.33-15.69l.65-.34c4.15,1.71,8.21,3.69,12.47,5.06,9.87,3.17,20,3.09,30.24,2.11a63.43,63.43,0,0,0,25.68-8,4,4,0,0,1,1.41-.21Z" transform="translate(-126.08 -68.12)"/><path class="cls-8" d="M317.1,354q-2.84-6.39-5.66-12.8c2.06-6.69,1-13.3-.56-19.89a2.79,2.79,0,0,1,.48-2.93c2.25,3.57,5,6.93,6.6,10.78a56.21,56.21,0,0,1,3.41,13.74C321.92,347.06,319.63,350.67,317.1,354Z" transform="translate(-126.08 -68.12)"/><path class="cls-9" d="M311.36,318.33c.66,4,1.3,8,2,11.95a15.59,15.59,0,0,1-1.92,10.87l-5-7.84c.11-4.95-2.9-10.08-6.55-14.95a8.46,8.46,0,0,1-.81-1.81c3.81-1.53,7.51-1,11.14.64Z" transform="translate(-126.08 -68.12)"/><path class="cls-16" d="M334.28,408.81c3.42-1.44,5.17-4.15,6-7.65a13,13,0,0,1,1.71-3.08c.88,1.43,1.76,2.85,2.64,4.29l-4.47,14.05a.81.81,0,0,1-1-.07C337.19,414.06,334.86,412,334.28,408.81Z" transform="translate(-126.08 -68.12)"/><path class="cls-5" d="M334.28,408.81l5.92,7.61q-1.57,5.68-3.16,11.37-4.8,15-9.6,30c-.17.53-.43,1-.65,1.53a57.84,57.84,0,0,1-1.07-6.06c-.82-11.55-1.41-23.11-2.37-34.64-.33-4-1.48-8-2.26-12,1,.12,2.21-.07,3,.4C327.32,409,330.75,409.09,334.28,408.81Z" transform="translate(-126.08 -68.12)"/><path class="cls-10" d="M397.16,441.13c-3.23.13-6.94-2-8.07-4.95a9.52,9.52,0,0,1,1.33-10c.74-.9,2.64-.85,4-1.23.16,1.2.63,2.47.41,3.59-.41,2-.5,4.12,1.32,5.17a7.59,7.59,0,0,0,5.06.82,9.24,9.24,0,0,0,7.15-6.76c.42-1.63.25-4.18-.76-5.2s-3.54-1.32-5.39-1.33c-1.52,0-3.57,1.43-4-.88-.21-1.17,1.2-3.31,2.42-3.92,3.59-1.79,7.51-2,10.84.64s3.37,6.17,2.46,10C412.29,434,403.32,441.22,397.16,441.13Z" transform="translate(-126.08 -68.12)"/><path class="cls-8" d="M431.26,399.84l-.54.45Z" transform="translate(-126.08 -68.12)"/><path class="cls-20" d="M318,431.09c0,2-1.39,4.65-3.05,7-1.93,2.69-4.9,2.71-6.69-.09a27.83,27.83,0,0,1-4-10.17c-.82-5.14-.75-10.5,1.94-15.29,1.95-3.48,4.7-3.56,6.88-.28C316.48,417.51,317,423.62,318,431.09Z" transform="translate(-126.08 -68.12)"/><path class="cls-20" d="M292.31,448.68c-5.71-1.43-7.59-5.55-9-9.83a15.29,15.29,0,0,1-.53-6.69c.42-2.87,2.54-3.68,5.11-2.44,4,1.91,8,10.92,6.69,15.1C294.15,446.18,293.63,448.44,292.31,448.68Z" transform="translate(-126.08 -68.12)"/><ellipse class="cls-22" cx="392.48" cy="420.92" rx="2.04" ry="1.65" transform="translate(-270.89 559.06) rotate(-68)"/><path class="cls-22" d="M397.42,416.9c-.33.81-1,1.31-1.48,1.11a1.86,1.86,0,0,1-.88-2.06,1.3,1.3,0,1,1,2.36.95Z" transform="translate(-126.08 -68.12)"/><ellipse class="cls-22" cx="392.13" cy="415.35" rx="1" ry="0.81" transform="translate(-265.94 555.24) rotate(-68)"/></svg>