<?xml version="1.0" encoding="utf-8"?>
<!-- Generator: Adobe Illustrator 25.0.0, SVG Export Plug-In . SVG Version: 6.00 Build 0)  -->
<svg version="1.1" id="Layer_1" xmlns="http://www.w3.org/2000/svg" xmlns:xlink="http://www.w3.org/1999/xlink" x="0px" y="0px"
	 viewBox="0 0 500 525" style="enable-background:new 0 0 500 525;" xml:space="preserve">
<style type="text/css">
	.st0{fill:#D4C9E2;}
	.st1{fill:#86869F;}
	.st2{fill:#7D7D91;}
	.st3{fill:#C5BADB;}
	.st4{fill:#6DB478;}
	.st5{fill:#7E7E91;}
	.st6{fill:#6F63AB;}
	.st7{fill:#2E234C;}
	.st8{fill:#2F244E;}
	.st9{fill:#52466E;}
	.st10{fill:#322750;}
	.st11{fill:#554971;}
	.st12{fill:#C4B9D9;}
	.st13{fill:#514B41;}
	.st14{fill:#60584B;}
	.st15{fill:#45403A;}
	.st16{fill:#47423A;}
	.st17{fill:#504940;}
	.st18{fill:#5A5347;}
	.st19{fill:#645C4F;}
	.st20{fill:#413E3B;}
	.st21{fill:#D0C6DC;}
	.st22{fill:#F3F3F3;}
</style>
<g>
	<g>
		<path class="st0" d="M202.9,203c6-0.8,8.6-4,9.4-10.2c1.8-12.7,7.6-23.9,14-34.9c9.1-15.5,21.8-27.7,34.9-39.6
			c15.1-13.8,29.5-28,37.9-47.2c3.6-8.1,6.6-16.2,8.2-24.9c0.2-1.3,0.8-2.7,1.5-3.8c2.1-3,6.5-2.7,7.8,0.7c1.2,3.2,1.7,6.6,2.4,10
			c3.1,15,3.6,30.1-0.6,44.8c-2.4,8.3-6.9,16.1-10.9,23.9c-2.6,5-5.9,9.5-9,14.3c-4.4,1.8-7.7-0.5-7.2-5.1c0.7-6,3.4-11.1,7.1-15.7
			c3.1-3.8,6.3-7.6,8.7-11.9c2.1-3.8,3-7.8,3.1-12.1c-1-0.1-1.2,0.4-1.5,0.8c-7.4,9.9-16.3,18.2-26.9,24.7
			c-3.8,2.3-7.1,5.3-10.3,8.5c-10.8,10.9-21.7,21.6-32.4,32.5c-4.1,4.2-8.3,8.5-11.3,13.7c-2.2,3.7-4.5,7.5-3.7,12.2
			c0.2,1.6-0.9,2.7-1.6,4c-0.9,1.6-1.8,3.3-2.4,5c-1,3-0.4,3.7,2.8,3.2c3.2-1.2,6.5-1.2,9.8-1.7c1-0.1,2-0.1,2.7,0.8
			c8.4,0.9,16.4,3.1,24.1,6.6c6.5,2.9,10.3,7.4,12.2,14.5c3.2,12.6,9,24,17.4,34.2c2,2.4,3.1,6.1,3.2,9.3c0.2,6.2-0.4,12.4-1.1,18.5
			c-0.3,2.4-1.8,4.7-2.8,7.1c-1,2.9-3.4,4.8-5.5,6.8c-8.2,7.9-17.4,14.2-28.6,16.6c-16.3,3.5-32,2.3-47-6.1c-7.2-4-12.5-9.8-18-15.5
			c-1.2-1.9-2.6-3.7-3.7-5.6c-8.4-14.2-9.9-29.4-6.8-45.4c1.4-7.1,2.9-14.1,6.9-20.3c1-1.5,2.1-2.8,3.2-4.1
			c-2.6-5.2-5.8-10.3-7.7-15.8c-1.9-5.7-3.2-11.8-3.7-17.8c-0.6-7.1-0.4-14.4-0.1-21.5c0.5-11.7,3.3-22.9,8.1-33.7
			c6.9-15.4,16.3-29.2,26.9-42.3c10-12.3,19.3-25.1,28.9-37.8c4.6-6.1,6.7-13.1,7.7-20.5c0.2-1.6,0.8-3.3,1.5-4.7
			c1.5-3.1,3.9-3.2,5.4-0.1c2,4.1,3.7,8.3,4.8,12.7c1.4,5.7,2.5,11.6,2.9,17.4c0.3,4.2,0,8.8-1.2,12.8c-4.6,14.8-9.5,29.5-17,43.2
			c-0.3,0.5-0.8,0.9-1.2,1.3c-1.7-0.3-1.3-1.7-1.3-2.7c0-3,1-5.8,1.8-8.6c2.6-8.5,5.8-16.8,10.1-24.6c1.1-2.1,2.1-4.3,2.6-6.6
			c0.4-2,0.6-4.1-0.8-6c-2,0.5-2.7,2.2-3.5,3.5c-5.9,9.8-13.9,17.9-21.4,26.3c-0.7,0.8-1.3,2.1-2.8,1.7c-1.3-0.8-1.3-2.6-2.7-3.6
			c-0.9,3.9-1.8,7.7-3.1,11.4c-0.4,1.2-0.7,2.5-1.8,3.3c-2.2,1.7-3.7,4.1-5.4,6.2c-6.2,7.9-11.8,16.3-16.3,25.4
			c-2.9,6-6.4,11.8-8.9,18c-3.9,9.7-4.2,19.8-3.6,30c0.4,6.7,0.3,13.4,1.6,20c0.5,2.4,0.8,4.9,1.8,7.2c1.7,4.1,4.7,4.9,8.3,2.4
			C200.7,206.5,201.6,204.6,202.9,203z"/>
		<path class="st0" d="M173.8,300.8c3.6-3.3,7.2-6.6,10.8-9.9c1.1,0.7,1.4,1.9,1.8,3c3.2,7.1,7.3,13.6,14.2,17.8
			c5,3,10.5,4.6,16.1,5.6c11.1,2,22.3,2.9,33.6,2.4c11.2-0.5,22.5-1.5,33.3-5.2c6.3-2.1,12.1-5.2,17-9.9c0.7-0.7,1.4-1.4,2.5-1.5
			c0.8,0,1.3,0.4,1.7,1c5,7.1,7.8,14.9,8.5,23.5c-1.5,4.9-1,10-1.5,15c-1.2,11.6-4.8,22.2-13,30.5c-7.6,7.7-16.6,13.3-27.3,16
			c-17,4.4-33.1,2.6-48.2-6.5c-8.1-4.9-13.4-12.5-18-20.5c-5.3-9.4-9.7-19.2-14.7-28.8c-1.8-3.4-3.6-6.8-5.9-9.9
			c-0.5-1.3-0.5-2.7-0.4-4.1c0.2-3.9-0.6-7.4-2.6-10.7c-1-3.9-2.9-6.8-7.3-7.2C174.2,301.3,174,301,173.8,300.8z"/>
		<path class="st1" d="M173.8,300.8c5.2,0.4,7.5,2.4,8.3,7.3c-2.1,4-2.7,8.4-3.5,12.8c-2.3,13-6.1,25.6-14.1,36.4
			c-3.1,4.2-6.5,8.1-10.4,11.7c-5.2,4.8-9.9,10.2-14.2,15.9c-1.9,2.5-2.4,4.7-0.6,7.5c1.5,2.3,3,4.7,3.8,7.3c1.4,4.3,0,6.9-4.2,8.2
			c-3.7,1.1-7.2,0.5-10.6-1.1c-14.9-6.9-26.9-17.2-35.5-31.3c-2-3.2-4.6-6-6.7-9c-1.1-1.6-2.6-3-4.4-3.9c-5.6-3-11-6.2-17.2-7.8
			c-4.1-1.1-8.1-2.5-11.9-4.6c-1.7-0.9-3.2-2-4.2-3.7c-1.9-3.4-1.8-5.4,0.8-8.3c1.4-1.6,3-3.1,4.7-4.5c3-2.5,3.1-4.8,0.2-7.5
			c-4.2-3.9-9.3-6.7-13.6-10.4c-2.8-2.5-5.6-5-7.3-8.4c7.1-5.4,18.1-4.7,25,1.7c1.9,1.8,3.7,3.8,5.5,5.8c4.1,4.5,9.5,5.6,15.1,5.4
			c3.5-0.2,6.7-1.8,8.6-5c5.6-9.3,16.8-10.4,25.3-5.8c4.3,2.4,4.7,3.4,2,7.6c-0.4,0.6-0.8,1.1-1.3,1.6c-3.8,2.8-8,5.1-11.1,8.8
			c-1.4,1.6-3.3,1.6-5.2,1.3c-4.9-0.7-9.7-0.3-14.3,1.3c-1.9,0.6-3.6,1.6-4.7,3.2c0.4,0.7,0.9,0.5,1.3,0.4c4.6-1.6,9-0.7,13.3,0.8
			c2.3,0.8,4.6,1.9,7,2.4c1.6,0.3,2.6,1.3,3,2.9c0.5,1.7,0.8,3.5,0.7,5.3c-0.3,3.2,0.4,6.1,2.3,8.7c0.1,2.9,2.2,4.2,4.3,5.5
			c2.7,1.7,5.4,3.2,8,5c2.5,1.7,4.9,3.7,7.6,5.7c0.7-3.5,1.2-7,2-10.5c3.5-14.9,9.5-28.9,18.3-41.4c6.3-9.1,15-15,26.2-16.8
			C172.7,301.2,173.3,301,173.8,300.8z"/>
		<path class="st1" d="M312.8,327.6c-1.3-8.8-3.8-17.2-9.5-24.3c-1.3-0.6-2.3-0.8-1.5-2.3c9,3,16.2,7.9,22.1,15.3
			c11.5,14.6,18.5,31.3,24.4,48.6c0.2,0.7,0.6,1.4,1,2.6c6.4-9.2,11.8-18.4,13.9-29.1c0.3-1.6,0.8-3.2,1.2-4.8
			c0.9-0.3,1.5,0.3,2,0.9c1.6,1.6,3.2,0.9,4.5-0.1c1.6-1.3,0.6-2.8-0.4-3.8c-1.9-2-3.6-4.2-5.1-6.5c-3.5-5.8-2.1-9.9,4.3-12.4
			c5.4-2.1,7.1-2.2,15.3-1.1c-1.6-4.1-4.3-6.9-8.1-8.6c-4.1-1.8-8.5-2.5-13-3c-2.1-0.2-4.1-0.7-6.1-1.3c-1.9-1.7-3.8-3.4-5.8-5
			c-3.2-2.6-3.2-5.3,0.2-7.6c8.7-5.9,21-2.6,25.5,6.9c0.4,0.9,0.7,1.8,1.1,2.7c3.5,9.4,11.3,11.8,19.4,5.7c5.4-4,11.1-7.2,17.8-8.4
			c1-0.2,2.1,0.1,3.1,0.1c1.7,4,0.1,9.8-3.8,12.6c-1.8,1.3-2.9,2.8-3.4,4.9c-1,5-4.8,8.1-8.4,11.1c-3.9,3.2-8.2,5.7-13.2,7
			c-4.2,1.2-5.3,3.1-4.6,7.5c0.3,1.8,0.9,3.6,0.7,5.5c-0.2,1-0.5,2-0.7,3c-1.7,4.3-3.1,8.9-3.2,13.5c-0.3,12.5-5.6,22.4-15,30.4
			c-4.2,3.6-8.5,7.1-13.7,9.2c-2.8,1.1-5.7,1.7-8.7,1.9c-6,0.4-10.6-3-10.4-9.1c0.2-6.5-1.8-12.2-3.6-18.2c-2-6.7-3.7-13.5-5.5-20.3
			c-2.1-7.9-5.9-14.8-10.4-21.5c-0.4-0.6-0.8-1.4-1.7-1.5C313.3,327.9,312.6,331.6,312.8,327.6z"/>
		<path class="st2" d="M33.2,307.4c2.7,2.6,5.1,5.4,8,7.8c4.5,3.8,9.4,7.1,13.9,10.9c3.1,2.6,2.6,5.6-0.6,8.1
			c-1.6,1.3-3,2.9-4.5,4.2c-3.9,3.5-1.9,8.2,1,9.7c4.6,2.4,9.5,4.2,14.3,6.1c7.8,2.9,15.9,5.4,21.4,12c4.3,5,7.9,10.5,11.7,15.9
			c6.3,9.1,14.5,15.7,24.2,20.7c2.3,1.2,4.4,2.9,6.8,3.5c2.9,0.8,6.2,1.2,9.2,0.7c4.3-0.7,5.4-3.1,3.8-7.2c-1.2-3-2.7-5.9-4.5-8.7
			c-1.1-1.8-1.1-3.3,0.1-4.9c5-7.2,10.9-13.7,17.4-19.7c5.4-5,9.4-11,13.1-17.3c5.1-8.5,6.9-18.1,9.3-27.5c0.9-3.4,1.2-7,2-10.4
			c0.3-1.3,1.5-2.3,2.3-3.5c2.5,3,3.1,6.6,3.1,10.4c0,1.7,0.1,3.3,0.1,5c1.1,3.9,0.7,7.8,0.3,11.7c-0.7,8.4-3.7,16.3-5.2,24.6
			c-2.9,16.5-11.6,30.3-20.9,43.7c-3.6,2.2-5.4,5.7-7.2,9.2c-1.3,1.8-2.2,3.7-3,5.7c-1.1,3-4.2,4.7-6.2,7.1
			c-3.8,4.6-8.6,6.3-14.5,4.9c-2.1-0.5-4.3-0.8-5.9-2.5c-5.1-4.7-10.9-8.9-15.2-14.3c-6.2-7.7-11.2-16.2-16.8-24.3
			c-4.1-6-8.4-12-12.7-17.9c-0.6-0.8-1.9-1.4-2.9-1.6c-4.1-1-8.3-1.8-12.4-2.9c-7.2-1.8-11.6-6.7-13.6-13.6
			c-2.1-7.2-3.5-14.5-5.4-21.8c-0.4-1.5-1.1-3.2-2.2-4c-3.3-2.6-7-4.7-10.4-7.1c-1.1-0.8-2.3-2.2-2.5-3.5
			C28.2,312.9,29.4,309.5,33.2,307.4z"/>
		<path class="st3" d="M202.9,203c-0.7,3.9-4.4,7.1-8.3,7.1c-2.6,0-3.9-1.9-4.6-4c-1.1-3.7-2.2-7.4-2.5-11.2
			c-0.7-8.5-1-17.1-1.3-25.7c-0.4-12.9,4.3-24.3,10.5-35.2c3.7-6.6,7.2-13.4,11.3-19.7c3.5-5.4,7.7-10.4,11.6-15.6
			c0.3-0.4,1-0.5,1.5-0.8c0.9,1.5,0,2.9-0.5,4.2c-1.9,5.2-3.9,10.4-6.4,15.3c-4.6,9.1-8.6,18.5-12.6,27.8
			c-5.9,13.8-10.2,28.1-9.4,43.4c0.2,4.1,1,8.1,2.1,12.3c1.2-1.1,1.5-2.2,1.4-3.2c-0.1-7.2,2.5-13.8,4.6-20.4
			c2-6.2,3.9-12.4,5.7-18.7c2.9-9.9,7.7-19,11.8-28.5c4.4-10.2,7.9-20.7,10.2-31.5c0.6-2.8,0.6-5.7,0.5-8.6c0-1-0.5-2,0.3-2.8
			c3.1-3.2,6.3-6.3,9.3-9.7c3.6-4.1,7.1-8.4,10.4-12.8c2-2.6,3.7-5.5,5.7-8.2c0.6-0.8,1.6-1.2,2.4-1.8c0.5,0.9,1.3,1.7,1.6,2.6
			c0.8,3.6-0.6,6.7-1.9,9.9c-3.7,8.6-7.4,17.2-10.7,25.9c-1.2,3.1-1.4,6.7-1.9,10.1c-0.1,0.4,0.4,0.8,0.6,1.3
			c-3.5,6.3-6.7,12.7-10.5,18.8c-9,14.7-16.3,30.2-22.8,46.1c-4.2,10.4-8.2,20.9-12.3,31.4c-0.4,1-0.6,2-1.1,3.6
			C200,203.8,201.5,203.4,202.9,203z"/>
		<path class="st4" d="M122.8,427.9c1.8,1.1,3.7,2.1,6.2,2c0.2,1.8-0.3,3.7,0.5,5.4c1.2,3.9,4.1,6.3,7.1,8.7c2.6,2.1,5.7,3.4,8.6,5
			c16.5,7.4,34,10.7,51.8,13c9.9,1.3,19.8,2,29.7,2.5c10.9,0.6,21.7,0.3,32.6,0.4c2.9,0,5.9-0.7,8.8-0.5c9.3-0.5,18.7-1.4,27.9-2.7
			c4.6-0.6,9.2-1.4,13.7-2.3c13.2-2.5,26.1-5.9,38.2-12c4.9-2.5,8.7-6,11.9-10.4c1.6-3.1,1.5-6.2-0.3-9.2
			c-2.7-5.1-7.7-7.6-12.4-10.3c-9-4.8-18.7-7.4-28.5-9.7c-1.6-0.4-3.3-0.6-4.7-1.7c-1.3-1.6-1.1-3.6-1.3-5.5
			c-0.1-0.9,0.4-1.4,1.3-1.6c4.7,0.8,9.2,2.2,13.9,3.2c6.5,1.6,12.7,3.9,18.9,6.5c0.6,0.3,1.3,0.4,1.5,1.3c3.5,2.3,7.2,4.4,10.6,6.9
			c7.3,5.4,10.2,12.8,8.2,20.4c-1.3,4.9-4.5,8.5-8.5,11.5c-9.8,7.5-21.3,11.1-33,14.2c-16.2,4.3-32.6,6.9-49.3,7.7
			c-15.4,0.7-30.8,1.4-46.2,1c-27-0.7-53.8-3.9-79.4-13c-6.9-2.5-13.5-6.1-19.6-10.2C124.2,443.7,120.7,436.8,122.8,427.9z"/>
		<path class="st2" d="M348.5,409.9c-11.4-1.6-10.5-1.4-20.2-7c-6.2-3.6-11-8.8-15.9-13.9c-1-3.9-0.7-7.9-0.4-11.8
			c1-15.3,1.4-30.6,0.7-45.9c-0.1-1.3-0.2-2.6,0.6-3.7c1-2.5,1.5-0.3,1.9,0.3c7,9.7,11.1,20.5,13.6,32.1c1.2,5.3,2.7,10.5,4.4,15.6
			c1.4,4.3,2.5,8.6,2.1,13.2c-0.3,4.1,2.6,8.4,5.7,8.7c2.6,0.3,5.3,0.2,7.8-0.3c5.2-0.9,9.6-3.5,13.6-6.7c6-4.8,11.5-9.8,15.2-16.7
			c2.7-5,3.1-10.5,3.9-15.9c0.6-4.3,1.6-8.5,2.5-12.7c0.1-0.6,1-1.1,1.5-1.6c1.8,16.1,1,31.8-6.1,46.8
			C373.2,403.7,362.8,409.8,348.5,409.9z"/>
		<path class="st3" d="M223.8,183.4c-0.1-1.4-0.7-2.9-0.3-4.1c1.5-6,4.7-11.1,8.9-15.5c11.9-12.4,23.9-24.7,36.2-36.7
			c5-4.9,10.6-9.5,16.4-13.4c9.2-6.2,16.8-13.9,23.5-22.7c0.5-0.7,1.1-1.3,2.2-2.5c0.8,6-0.4,10.8-3,15.1c-2.5,4.1-5.4,8-8.5,11.7
			c-3.6,4.4-6,9.3-7.1,14.7c-1,4.5,0.6,5.9,6.5,5.9c-7,12.9-16.3,23.7-28.3,32.3c-11.8,8.5-23.2,17.6-34.7,26.4
			c-4.4,0.6-8.7,1.1-13.1,1.7c-0.5-0.9,0-1.5,0.5-2.1c7.4-8.6,14.8-17.2,24-24c9.5-7,19-13.9,27.1-22.5c5.5-5.9,10-12.5,14.1-19.4
			c1.2-2,1.6-4.2,2-6.7c-4.6,3-7.8,7.3-11.8,10.6c-6.5,5.4-13.5,10.4-20.2,15.5c-5.7,4.3-11.3,8.7-16.6,13.4
			c-6.3,5.7-10.7,12.9-15.2,20C225.7,182.1,225.4,183.5,223.8,183.4z"/>
		<path class="st3" d="M302.1,300.3c0.4,1,0.8,2,1.2,3c-9.1,9.3-20.7,13.6-33.2,15.2c-10.7,1.3-21.6,2.2-32.3,1.8
			c-9.3-0.3-18.7-2.1-27.9-4c-9.7-2-16.8-7.9-21.5-16.5c-1.5-2.8-2.6-5.9-3.9-8.9c1.6-1.4,3.2-2.8,4.8-4.2c2.2,1.9,4.6,3.7,6.6,5.8
			c7.4,7.9,16.8,12.3,26.9,15.1c7.8,2.2,15.7,1.8,23.7,1.2c16-1.3,28.1-9.7,38.9-20.7c1-1,2-2.2,3-3.2c3.3,3.8,6.7,7.7,10,11.5
			c1,1.1,2,2.2,2.9,3.3C301.6,299.9,301.8,300.1,302.1,300.3L302.1,300.3z"/>
		<path class="st5" d="M386.3,340.7c-0.6-2.9-1.5-5.8-1.6-8.8c-0.1-2.5,1.8-4.2,4.2-4.7c8.2-1.8,14.3-6.7,19.8-12.6
			c0.4-0.4,0.8-0.9,1-1.5c1.4-4.2,3.3-7.9,7-11c2.6-2.2,2.7-6.4,2.4-10c3.4,0.5,6,2.3,7.9,5.2c1,1.5,1.2,2.9-0.7,3.9
			c-0.9,0.5-1.6,1.2-2.3,1.8c-2.2,1.8-3.7,3.7-2.5,6.9c1.1,2.7,0,4.6-2.4,6.3c-2,1.5-3.7,3.5-5.2,5.5c-4.4,5.9-10.5,9.2-17,12
			C392.8,335.4,389,337.2,386.3,340.7z"/>
		<path class="st2" d="M357.7,297.5c1.8,0.2,3.7,0.2,5.5,0.5c6.3,0.9,12.8,1.2,17.9,5.8c2.4,2.1,4.4,4.7,5,8.6
			c-5.8-3.2-11.2-2-16.5-0.1c-5.7,2.1-7.1,6.1-3.7,11.1c1.4,2.1,3.1,4.1,4.7,6c1.3,1.6,3.2,3.2,1.2,5.3c-1.9,2.1-4.6,1.7-6.6-0.5
			c-0.3-0.3-0.6-0.5-1-0.7c-0.4-1-0.8-2-1.3-2.9c-1.7-3.9-3.5-7.7-4.9-11.6c-1.4-3.8-1.5-7.7,0-11.5
			C359.5,304.1,359.4,300.7,357.7,297.5z"/>
		<path class="st5" d="M105.7,353.7c-2.5-1.2-2.9-3.4-3.1-5.9c-0.1-2.6-0.3-5.3-0.7-7.9c-0.1-0.7-0.7-1.8-1.4-2
			c-4.2-1.4-8.4-3-12.7-3.7c-3.6-0.6-7.4,0.1-11.3,0.2c0-2.5,2.3-3.6,4.3-4.5c5.1-2.3,10.6-2.9,16.1-2c2.3,0.4,3.8-0.1,5.5-1.6
			c2.8-2.6,5.9-4.8,8.9-7.1c0.5-0.4,1.3-0.3,2-0.5c-0.8,1.5-1.5,3-2.4,4.4c-5.8,8.8-6,18.6-5.4,28.6
			C105.8,352.3,105.7,353,105.7,353.7z"/>
		<path class="st1" d="M302.1,300.3c-0.2-0.2-0.5-0.4-0.7-0.6C301.6,299.9,301.9,300.1,302.1,300.3z"/>
		<path class="st6" d="M229.1,87.3c-0.1,4.4,0.2,8.9-0.5,13.2c-2.5,13.7-7.9,26.4-13.8,39c-7.8,16.7-12.4,34.5-17.4,52.1
			c-0.5,1.7-0.2,3.5-0.5,5.3c-0.4,2.1-1.1,4.2-1.6,6.2c-0.4,0-0.9-0.1-1.3-0.1c-0.8-4.6-1.9-9.2-2.2-13.8
			c-1.1-15.5,3.3-29.9,9.3-43.9c6.5-15.2,13.2-30.4,19.9-45.6c0.2-0.5,0.3-1.1,0.5-1.7c1.7-5.2,3.3-10.5,5.1-16.2
			C227.4,83.7,228.3,85.5,229.1,87.3z"/>
		<path class="st6" d="M223.8,183.4c3-4.5,5.9-9.1,9-13.5c6.6-9.2,15.6-15.9,24.5-22.5c10.3-7.8,20.8-15.3,30-24.5
			c0.9-0.9,1.8-1.9,2.8-2.9c0.3,0.1,0.7,0.3,1,0.4c-0.8,2.7-1.1,5.7-2.5,8.1c-5.7,9.9-12.2,19.2-21.2,26.4
			c-8.2,6.6-17,12.6-24.7,19.7c-7.3,6.7-13.6,14.5-20.4,21.7c-0.8,0-2,0.3-2.4-0.1c-0.6-0.7-1.2-2.1-0.9-2.8
			C220.5,190,222.2,186.8,223.8,183.4z"/>
		<path class="st7" d="M225.3,289.1c-13.6,0.2-20-9-21.7-20.4c-0.4-2.6,0.4-4.6,2.7-6.1c2.3-1.5,4.1-0.1,6,1c1,0.6,1.9,1.4,2.8,2.1
			c3.9,3,8.1,5,13.2,5.1c5.9,0.1,9.7,3.4,9.7,7.8c0,5.4-4.9,10.4-10.4,10.5C226.8,289.1,226.1,289.1,225.3,289.1z"/>
		<path class="st8" d="M265.9,265.5c-1.5,0.5-4.7-2.8-7.2-3.9c-2.6-1.2-5.3-2-7.9-3c-1.2-0.4-3.2,0.4-3.2-2c0-2.2,1.9-5.4,3.6-5.5
			c6.3-0.5,12.6-1,18.9-1.3c1.4-0.1,2.9,0.7,4.6,1.2c0.3,0.1,0.5,0.5,0.3,0.8C271.9,256.5,269,260.9,265.9,265.5z"/>
		<path class="st7" d="M237.9,253.3c-1.7,2.1-3.7,2.1-5.6,0.5c-1.4-1.2-2.9-2.6-3.5-4.3c-1.6-4.1-2.8-8.4-3.9-12.6
			c-0.7-2.8,0.1-5.5,1.9-7.8c1.3-0.8,2.1,0.1,2.7,0.9c5,6.5,8.8,13.5,9,21.9C238.4,252.5,238.3,253,237.9,253.3z"/>
		<path class="st9" d="M237.9,253.3c-0.4-8.1-3.2-15.3-8.2-21.6c-0.8-1-2-1.7-3-2.6c2-2.7,3.5-3.2,5.7-0.9c2,2.2,3.9,4.8,4.8,7.6
			c1.4,4,2.3,8.3,2.8,12.6C240.2,250,238.7,251.7,237.9,253.3z"/>
		<path class="st10" d="M272.4,244.5c-0.9-0.2-2-0.2-2.7-0.7c-3.5-2.4-6.1-10.4-5-14.7c1.2-0.3,1.9,0.5,2.4,1.3
			c2.8,3.7,4.3,7.9,5.8,12.2C273.1,243.3,272.9,243.9,272.4,244.5z"/>
		<path class="st11" d="M272.4,244.5c-1.3-5.8-3.1-11.2-7.7-15.4c1.2-1.9,2.8-2,4,0.3c1.7,3.3,2.9,6.9,4.2,10.3
			c0.4,1.1,0.7,2.3,0.8,3.5C273.7,243.6,272.8,244,272.4,244.5z"/>
		<path class="st12" d="M312.8,327.6c0.2,10.8,1.1,21.7,1,32.5c-0.1,8.3-0.7,16.7-1,25c-0.1,1.5,0.3,3.1,0.5,4.7
			c0.6,3,0.6,6.3,1.1,9.8c0.2,3.4,0.2,4.4,0.2,6.4c0.9,1.2,1.1,2.7,1.2,4.1c0.4,2.9,1.1,5.7,2.7,8.2c0.5,3.2,2.1,6.2,2.7,9.4
			c0.9,3.3,2,6.5,2.9,9.8c1,4.2,2.2,8.4,3,12.7c0.8,4.5,0.6,5.1-3.9,6.2c-4.8,1.2-9.5,2.6-14.3,3.6c-6.2,0.6-12.3,1.9-18.4,2.7
			c-4.7,0.6-9.3,1.6-14.1,1.4c-2.8-0.1-5.5,0.8-8.2,0.6c-6.7,0.8-13.4,0.4-20.1,0.5c-4,0.1-8.1-0.1-12.1-0.2
			c-7.9-0.3-15.8-0.1-23.6-1.2c-7.6-1-15.3-1.4-22.8-3.1c-4.3-1-8.9-0.7-13-2.5c-1.3-0.8-1.5-2.2-1.9-3.5c-1.3-4.1-2.1-8.3-4.2-12.1
			c-0.7-2.4-0.1-5-0.8-7.4c-0.1-3.1-0.5-6.2-1.1-9.3c-1.2-5.6-1.7-11.5-4.5-16.7c-0.4-3.2-0.9-4.5-1.9-7.5c-0.1-0.4-0.5-0.8-0.2-1.2
			c4.1-6.5,6-11.2,10.1-18.3c5-8.7,6.6-18.6,9.1-28.2c2.6-10,4.5-20.1,4.3-30.5c1.8,2.7,3.7,5.2,5.2,8.1c5.2,10,10.1,20.1,15.4,30
			c5.2,9.6,11.8,18,22,22.8c9.5,4.5,19.5,6.9,30,6.1c14.1-1,26.7-5.8,37.4-15.4c10.2-9.2,14.5-20.6,15.5-33.9
			C311.4,336.6,312.2,332.1,312.8,327.6C313,327.6,312.6,327.5,312.8,327.6z"/>
		<path class="st13" d="M169,425.5c0.5,3.2,1.1,6.3,1.6,9.5c-1.3,1-2.7,0.9-4.2,0.9c-11.9,0-23.8,0.1-35.6,0.2c-0.7,0-1.4,0-1.9-0.5
			c0.1-1.9,0.1-3.8,0.2-5.7c1.8,0,3.6,0.2,5.4,0.1c3.7-0.2,6-2.9,8.5-5.1c6.6-0.7,13.2-0.2,19.8-0.3
			C164.9,424.6,167.1,424,169,425.5z"/>
		<path class="st14" d="M169,425.5c-7.5,0-14.9,0-22.4,0c-1.2,0-2.5-0.4-3.7-0.6c0.1-0.2,0.2-0.4,0.3-0.5c2.4-2.7,4.4-4,6.7-8.2
			c1.6-1.8,1.2-2.6,2-3.6c3.8-2.5,7.8-4,12.4-3.7C167.6,413.9,168,419.8,169,425.5z"/>
		<path class="st4" d="M164.4,408.8c-4.1,1.2-8.3,2.5-12.4,3.7c1.6-3.3,6.2-8.7,10.2-10.9C164.7,410.1,163.4,404.3,164.4,408.8z"/>
		<path class="st15" d="M309.2,459.4c5.9-1.6,11.7-3.2,18.1-5c-1.3-5.8-2.6-11.4-3.9-17c1-1.4,2.5-1.5,4-1.5
			c9.6-0.1,19.3-0.1,28.9,0c1.6,0,3.2,0.1,4.3,1.5c-3.9,6.2-9.8,9.8-16.2,12.7c-10.9,4.8-22.2,8-33.9,9.9
			C309.8,460.2,309.2,460.5,309.2,459.4z"/>
		<path class="st16" d="M128.9,435.6c3.9,0,7.8-0.1,11.7-0.2c1.8,0,3.5-0.4,5.2-0.4c8.3-0.1,16.6,0,24.9,0c0.1,2.6,0.1,5.1,0.2,7.7
			c0.4,0.8,0.1,1.5-0.1,2.3c-0.5,1-1.3,1.8-2.4,1.9c-3.7,0.3-7.2,1.4-10.5,3.2c-0.5,0.3-1.1,0.3-1.7,0.2c-3.8-1.5-7.8-1.3-11.8-1.1
			c-5.4-2.4-10.4-5.5-13.9-10.5C129.7,437.8,129.4,436.7,128.9,435.6z"/>
		<path class="st17" d="M360.6,437.4c-3.3-0.2-6.7-0.6-10-0.6c-7.5-0.1-15-0.1-22.5,0c-1.6,0-3.1,0.4-4.7,0.6
			c-0.9-3.2-1.9-6.3-2.8-9.5c1-1.4,2.5-1.5,4-1.5c10.8-0.1,21.5,0,32.3,0c1.2,0,2.3,0.3,3.4,1C362.3,430.6,362.5,434,360.6,437.4z"
			/>
		<path class="st18" d="M360.2,427.3c-11.9,0-23.9,0-35.8,0c-1.3,0-2.5,0.4-3.8,0.6c-0.9-3.1-1.9-6.3-2.8-9.4c0.7-1.3,2-1.6,3.3-1.6
			c8.9,0,17.8-0.4,26.8,0.2C352.7,419.6,357.4,422.3,360.2,427.3z"/>
		<path class="st19" d="M347.8,417.2c-1.2,0.2-2.5,0.6-3.7,0.6c-7.4,0.1-14.8,0-22.3,0.1c-1.3,0-2.7,0.4-4,0.7
			c-2.6-3.8-2.7-8.2-3.2-12.5c10.4,2.5,20.8,4.9,30.5,9.6C346,416,346.9,416.6,347.8,417.2z"/>
		<path class="st20" d="M144.3,449.2c4.1-1.9,8.1-1.3,11.9,0.7c0,0.8-0.4,1.8,0.9,2.2c4.3,1.3,8.4,3.3,13,3.6c2.2,0.3,4.3,0.7,6.2,2
			c8.3,1.4,16.5,2.8,24.8,4.1c20.3,3.2,40.9,2.5,61.4,2.9c1.9,0,3.9-0.2,5.8-0.4c0.3,0.3,0.4,0.6,0,0.9c-16.1,0-32.2,0.6-48.3-0.1
			c-20.6-0.9-41.1-3.8-60.9-10C154,453.5,149.2,451.2,144.3,449.2z"/>
		<path class="st13" d="M268.2,465.2c0-0.3,0-0.6,0-0.9c13.7-1.6,27.3-3.2,41-4.9c0.4,0.2,0.8,0.4,1.3,0.6c-4.8,0.9-9.6,2-14.4,2.6
			C286.8,463.6,277.5,464.3,268.2,465.2z"/>
		<path class="st21" d="M176.3,457.6c-2.2-0.4-4.4-0.9-6.6-1.3c-1.1-2.8,0.1-5.5,0.1-8.3c0-1.2,0.6-2.2,0.7-3.4
			c0.1-0.6,0.2-5.7,0.3-6.3c0.6,0.8,1.5,6,1.8,6.9C173.9,449.3,175,453.4,176.3,457.6z"/>
		<path class="st22" d="M170.5,444.6c-0.1,3.1-0.3,6.3-0.4,9.4c0,0.8-0.2,1.5-0.3,2.3c-5.1-1.3-10.2-2.6-15.9-4.1
			c0.8-1.8,1.6-3.1,2.3-3.7c3.4-4.1,7.2-4.6,10.6-5C167.9,443.6,169,443.8,170.5,444.6z"/>
	</g>
</g>
</svg>
