<svg width="58" height="58" viewBox="0 0 58 58" fill="none" xmlns="http://www.w3.org/2000/svg">
	<path fill-rule="evenodd" clip-rule="evenodd" d="M29 56C14.0883 56 2 43.9117 2 29C2 14.0883 14.0883 2 29 2C43.9117 2 56 14.0883 56 29C56 43.9117 43.9117 56 29 56Z" fill="white" stroke="#A29EC0" stroke-width="4" />
	<mask id="mask0" mask-type="alpha" maskUnits="userSpaceOnUse" x="22" y="19" width="12" height="20">
		<path d="M23.0008 37.8156C22.3508 37.1656 22.3508 36.1156 23.0008 35.4656L29.4675 28.999L23.0008 22.5323C22.3508 21.8823 22.3508 20.8323 23.0008 20.1823C23.6508 19.5323 24.7008 19.5323 25.3508 20.1823L33.0008 27.8323C33.6508 28.4823 33.6508 29.5323 33.0008 30.1823L25.3508 37.8323C24.7175 38.4656 23.6508 38.4656 23.0008 37.8156Z" fill="white" />
	</mask>
	<g mask="url(#mask0)">
		<path fill-rule="evenodd" clip-rule="evenodd" d="M48 9H8V49H48V9Z" fill="#A29EC0" />
	</g>
</svg>