<svg width="58" height="58" viewBox="0 0 58 58" fill="none" xmlns="http://www.w3.org/2000/svg">
	<path fill-rule="evenodd" clip-rule="evenodd" d="M29 56C14.0883 56 2 43.9117 2 29C2 14.0883 14.0883 2 29 2C43.9117 2 56 14.0883 56 29C56 43.9117 43.9117 56 29 56Z" fill="white" stroke="#A29EC0" stroke-width="4" />
	<mask id="mask0" mask-type="alpha" maskUnits="userSpaceOnUse" x="22" y="19" width="12" height="20">
		<path d="M33.0008 20.1844C33.6508 20.8344 33.6508 21.8844 33.0008 22.5344L26.5341 29.001L33.0008 35.4677C33.6508 36.1177 33.6508 37.1677 33.0008 37.8177C32.3508 38.4677 31.3008 38.4677 30.6508 37.8177L23.0008 30.1677C22.3508 29.5177 22.3508 28.4677 23.0008 27.8177L30.6508 20.1677C31.2841 19.5344 32.3508 19.5344 33.0008 20.1844Z" fill="white" />
	</mask>
	<g mask="url(#mask0)">
		<path fill-rule="evenodd" clip-rule="evenodd" d="M48 9H8V49H48V9Z" fill="#A29EC0" />
	</g>
</svg>