<svg width="18" height="18" viewBox="0 0 18 18" fill="none" xmlns="http://www.w3.org/2000/svg">
<mask id="mask0" mask-type="alpha" maskUnits="userSpaceOnUse" x="1" y="1" width="16" height="16">
<path fill-rule="evenodd" clip-rule="evenodd" d="M1.5 9C1.5 4.86 4.8525 1.5 8.9925 1.5C13.14 1.5 16.5 4.86 16.5 9C16.5 13.14 13.14 16.5 8.9925 16.5C4.8525 16.5 1.5 13.14 1.5 9ZM11.9775 6H14.19C13.47 4.7625 12.3225 3.8025 10.9425 3.33C11.3925 4.1625 11.7375 5.0625 11.9775 6ZM9.00004 3.03C9.62254 3.93 10.11 4.9275 10.4325 6H7.56754C7.89004 4.9275 8.37754 3.93 9.00004 3.03ZM3 9C3 9.5175 3.075 10.02 3.195 10.5H5.73C5.67 10.005 5.625 9.51 5.625 9C5.625 8.49 5.67 7.995 5.73 7.5H3.195C3.075 7.98 3 8.4825 3 9ZM3.80998 12H6.02248C6.26248 12.9375 6.60748 13.8375 7.05748 14.67C5.67748 14.1975 4.52998 13.245 3.80998 12ZM3.80998 6H6.02248C6.26248 5.0625 6.60748 4.1625 7.05748 3.33C5.67748 3.8025 4.52998 4.755 3.80998 6ZM9.00004 14.97C8.37754 14.07 7.89004 13.0725 7.56754 12H10.4325C10.11 13.0725 9.62254 14.07 9.00004 14.97ZM7.245 10.5H10.755C10.8225 10.005 10.875 9.51 10.875 9C10.875 8.49 10.8225 7.9875 10.755 7.5H7.245C7.1775 7.9875 7.125 8.49 7.125 9C7.125 9.51 7.1775 10.005 7.245 10.5ZM10.9425 14.67C11.3925 13.8375 11.7375 12.9375 11.9775 12H14.19C13.47 13.2375 12.3225 14.1975 10.9425 14.67ZM12.3749 9C12.3749 9.51 12.3299 10.005 12.2699 10.5H14.8049C14.9249 10.02 14.9999 9.5175 14.9999 9C14.9999 8.4825 14.9249 7.98 14.8049 7.5H12.2699C12.3299 7.995 12.3749 8.49 12.3749 9Z" fill="white"/>
</mask>
<g mask="url(#mask0)">
<rect width="18" height="18" fill="#53686A"/>
</g>
</svg>