<svg width="93" height="24" viewBox="0 0 93 24" fill="none" xmlns="http://www.w3.org/2000/svg">
	<path fill-rule="evenodd" clip-rule="evenodd" d="M43.0235 11.1553C42.5135 11.1553 42.0296 11.238 41.5707 11.4029C41.1116 11.5692 40.714 11.8116 40.3774 12.1319C40.0412 12.4528 39.7709 12.8504 39.5671 13.3255C39.3629 13.8013 39.261 14.3597 39.261 15.0003C39.261 16.2824 39.6233 17.2432 40.347 17.8838C41.0706 18.525 41.953 18.8447 42.993 18.8447C43.6046 18.8447 44.1349 18.7729 44.5835 18.628C45.0319 18.4835 45.4295 18.3287 45.7765 18.1629C46.1842 18.4526 46.49 18.7674 46.6939 19.1086C46.8978 19.4498 47 19.8583 47 20.3334C47 21.181 46.6024 21.8373 45.8073 22.3021C45.0119 22.7679 43.9107 23 42.5034 23C41.2189 23 40.0567 22.8088 39.0165 22.4267C37.9765 22.0446 37.084 21.5067 36.3399 20.8143C35.5953 20.1219 35.0193 19.2895 34.6116 18.3178C34.2036 17.3469 34 16.2715 34 15.0933C34 13.7285 34.2185 12.5349 34.6576 11.512C35.0961 10.4884 35.6925 9.64657 36.4473 8.98447C37.2011 8.32298 38.0731 7.82724 39.0622 7.49604C40.0513 7.16545 41.0963 7 42.1979 7C43.6662 7 44.7976 7.26938 45.5933 7.80633C46.3884 8.34389 46.786 9.03629 46.786 9.88353C46.786 10.2765 46.6939 10.6432 46.5107 10.9844C46.3268 11.3256 46.1128 11.6204 45.8683 11.868C45.5212 11.7032 45.1034 11.5429 44.614 11.3874C44.1247 11.2326 43.5944 11.1553 43.0235 11.1553Z" fill="#53686A" />
	<path fill-rule="evenodd" clip-rule="evenodd" d="M28.4839 22.7165C28.2686 22.7793 27.9301 22.8421 27.4676 22.9052C27.0052 22.9686 26.5267 23 26.0321 23C25.559 23 25.1341 22.9686 24.7583 22.9052C24.3816 22.8421 24.0648 22.7165 23.8067 22.5272C23.5485 22.3386 23.3493 22.0816 23.2096 21.7553C23.0697 21.4309 23 21.0049 23 20.4801V11.0314C23 10.5488 23.0914 10.1339 23.2746 9.78732C23.4568 9.44075 23.7203 9.13112 24.0648 8.85842C24.4084 8.58572 24.8333 8.33826 25.3386 8.11819C25.8439 7.89751 26.3871 7.70391 26.9677 7.53524C27.5483 7.3675 28.1501 7.23638 28.7742 7.14127C29.3974 7.04709 30.0213 7 30.6448 7C31.6771 7 32.4945 7.19391 33.0963 7.58233C33.6983 7.97107 34 8.60603 34 9.48784C34 9.7827 33.9565 10.0711 33.8704 10.3546C33.7844 10.6374 33.6772 10.8954 33.5483 11.1256C33.0963 11.1256 32.6338 11.1468 32.1613 11.189C31.6882 11.2315 31.2257 11.2946 30.774 11.378C30.3226 11.462 29.8977 11.5516 29.5002 11.6457C29.1018 11.7399 28.7629 11.8501 28.4839 11.9766V22.7165Z" fill="#53686A" />
	<path fill-rule="evenodd" clip-rule="evenodd" d="M66 22.7175C65.7766 22.7801 65.4253 22.8426 64.9454 22.9055C64.4656 22.9687 63.9693 23 63.4561 23C62.9651 23 62.5242 22.9687 62.1339 22.9055C61.7431 22.8426 61.414 22.7175 61.1464 22.5288C60.8788 22.3408 60.6721 22.0847 60.5272 21.7595C60.382 21.4362 60.3097 21.0117 60.3097 20.4886V13.5199C60.3097 12.6623 60.0804 12.0607 59.6234 11.7153C59.1658 11.3699 58.6025 11.1975 57.9333 11.1975C57.4864 11.1975 57.0625 11.25 56.6608 11.3543C56.2595 11.4592 55.9356 11.5847 55.6903 11.731V22.7175C55.4672 22.7801 55.1156 22.8426 54.6361 22.9055C54.1559 22.9687 53.6593 23 53.1467 23C52.6554 23 52.2145 22.9687 51.8243 22.9055C51.4337 22.8426 51.1046 22.7175 50.8371 22.5288C50.5688 22.3408 50.3628 22.0847 50.2175 21.7595C50.072 21.4362 50 21.0117 50 20.4886V2.28282C50.2453 2.24141 50.6078 2.18344 51.088 2.10982C51.5675 2.03681 52.0529 2 52.5439 2C53.0349 2 53.4752 2.03129 53.8661 2.09417C54.2563 2.15736 54.586 2.28282 54.8536 2.47086C55.1215 2.65951 55.3272 2.91564 55.4728 3.23988C55.6177 3.56472 55.6903 3.98865 55.6903 4.51166V7.58742C55.9805 7.48313 56.4211 7.36319 57.0125 7.22638C57.6035 7.0908 58.2561 7.02239 58.9708 7.02239C61.1798 7.02239 62.9036 7.54018 64.142 8.57638C65.3808 9.61258 66 11.1555 66 13.2064V22.7175Z" fill="#53686A" />
	<path fill-rule="evenodd" clip-rule="evenodd" d="M74.7421 22.7121C74.5054 22.7543 74.1557 22.8128 73.6936 22.8878C73.2311 22.9625 72.7632 23 72.2904 23C71.8172 23 71.3922 22.9681 71.0161 22.9037C70.6397 22.8396 70.3222 22.7121 70.0643 22.5198C69.8064 22.3282 69.6072 22.0672 69.4675 21.7358C69.3276 21.4064 69.2579 20.9737 69.2579 20.4407V7.42148C69.4943 7.37866 69.8436 7.3202 70.3064 7.24518C70.7686 7.17109 71.2364 7.13358 71.7096 7.13358C72.1825 7.13358 72.6075 7.16546 72.9839 7.22923C73.36 7.29332 73.6778 7.42148 73.9357 7.61311C74.1936 7.80536 74.3925 8.06638 74.5325 8.39711C74.6721 8.72816 74.7421 9.15986 74.7421 9.69254V22.7121ZM69 2.87875C69 2.06849 69.274 1.38639 69.8225 0.831521C70.3707 0.277591 71.0968 0 72.0003 0C72.9032 0 73.6293 0.277591 74.1775 0.831521C74.726 1.38639 75 2.06849 75 2.87875C75 3.68964 74.726 4.37205 74.1775 4.92598C73.6293 5.48116 72.9032 5.75844 72.0003 5.75844C71.0968 5.75844 70.3707 5.48116 69.8225 4.92598C69.274 4.37205 69 3.68964 69 2.87875Z" fill="#53686A" />
	<mask id="mask0" mask-type="alpha" maskUnits="userSpaceOnUse" x="77" y="1" width="16" height="23">
		<path fill-rule="evenodd" clip-rule="evenodd" d="M77.1738 1.3197H92.9485V23.7615H77.1738V1.3197Z" fill="white" />
	</mask>
	<g mask="url(#mask0)">
		<path fill-rule="evenodd" clip-rule="evenodd" d="M86.116 11.0328C84.9828 11.0328 84.1111 11.3752 83.5028 12.0601C82.8935 12.7458 82.5895 13.7838 82.5895 15.1767C82.5895 16.547 82.8729 17.5791 83.4397 18.2756C84.0068 18.972 84.8252 19.3203 85.8957 19.3203C86.2735 19.3203 86.6144 19.2591 86.9188 19.1376C87.2228 19.0167 87.4594 18.8778 87.6274 18.7229V11.4306C87.2071 11.1653 86.7037 11.0328 86.116 11.0328ZM77.1738 15.1767C77.1738 13.7177 77.3834 12.453 77.8037 11.3804C78.2234 10.3091 78.8058 9.41927 79.5514 8.7121C80.296 8.00493 81.1674 7.48046 82.1646 7.13741C83.1612 6.795 84.2372 6.62363 85.392 6.62363C85.8117 6.62363 86.2209 6.66251 86.62 6.7396C87.0181 6.81735 87.3443 6.91162 87.596 7.02143V1.65142C87.8055 1.58501 88.1415 1.5131 88.6034 1.43567C89.0649 1.35858 89.5372 1.3197 90.0203 1.3197C90.4818 1.3197 90.8966 1.35274 91.2643 1.41915C91.6311 1.48589 91.9409 1.61838 92.1929 1.81696C92.4449 2.01618 92.6338 2.28635 92.7597 2.62908C92.8855 2.97214 92.9486 3.41983 92.9486 3.97215V19.6844C92.9486 20.7236 92.4868 21.5526 91.5631 22.1703C90.9541 22.5905 90.1671 22.9611 89.2018 23.2811C88.236 23.6012 87.1237 23.7615 85.8643 23.7615C84.4997 23.7615 83.2769 23.563 82.196 23.1652C81.1144 22.7674 80.2015 22.1927 79.4569 21.4415C78.7114 20.6906 78.1446 19.79 77.7566 18.7398C77.3677 17.6899 77.1738 16.5023 77.1738 15.1767Z" fill="#53686A" />
	</g>
	<path fill-rule="evenodd" clip-rule="evenodd" d="M5.78956 7.26592C5.3667 7.97796 4.44653 8.21242 3.73408 7.78956C3.02204 7.3667 2.78758 6.44653 3.21044 5.73408C3.6333 5.02204 4.55389 4.78758 5.26592 5.21044C5.97796 5.63371 6.21242 6.55389 5.78956 7.26592Z" fill="#53686A" />
	<path fill-rule="evenodd" clip-rule="evenodd" d="M0.929763 6.75534C0.788847 6.99274 0.481977 7.07077 0.244788 6.92985C0.00740567 6.78892 -0.0708161 6.48204 0.0700996 6.24484C0.211015 6.00726 0.517885 5.92922 0.755268 6.07015C0.992651 6.21107 1.07087 6.51795 0.929763 6.75534Z" fill="#53686A" />
	<mask id="mask1" mask-type="alpha" maskUnits="userSpaceOnUse" x="3" y="6" width="18" height="18">
		<path fill-rule="evenodd" clip-rule="evenodd" d="M3.03906 6.02002H20.7128V24H3.03906V6.02002Z" fill="white" />
	</mask>
	<g mask="url(#mask1)">
		<path fill-rule="evenodd" clip-rule="evenodd" d="M18.5042 9.06504C16.943 7.26349 14.7858 6.18845 12.4296 6.03762C11.8625 6.00131 11.2865 6.02117 10.7175 6.09721C10.5213 6.11366 10.3312 6.14035 10.15 6.17262L9.98283 6.19497L9.99992 6.20117C9.18321 6.36566 8.5828 6.63721 8.55107 6.6518L8.54619 6.65397C7.64802 7.10024 7.15348 7.83917 7.15348 8.73514C7.15348 9.97031 8.14134 10.9749 9.35558 10.9749C9.60819 10.9749 10.3929 10.7058 10.4005 10.703C10.9646 10.5029 11.5537 10.4203 12.156 10.4594C13.6866 10.5575 15.046 11.4317 15.7932 12.7979L15.795 12.8016C16.2105 13.5635 16.4018 14.4259 16.3481 15.2968C16.1928 17.8059 14.0624 19.7189 11.5928 19.5609C10.19 19.4712 8.94036 18.7385 8.15538 17.5514V17.5496L8.12914 17.5151L7.95097 17.2408C7.33988 16.1772 7.4189 14.7121 7.44361 14.4079L7.44575 14.3788L7.44544 14.3679C7.40334 13.1541 6.43561 12.2032 5.24273 12.2032C4.24968 12.2032 3.3747 12.8851 3.11477 13.8611C3.06199 14.0588 3.0388 14.5851 3.04643 14.645C2.85117 19.4895 6.56253 23.6782 11.3194 23.9827C11.4985 23.9942 11.6794 24.0001 11.8615 24.0001C12.1935 24.0001 12.5297 23.9796 12.865 23.9414L12.8677 23.9423L12.9147 23.9368L13.6155 23.853L13.5654 23.8322C17.4852 23.0616 20.4405 19.6888 20.695 15.5751C20.8432 13.1783 20.0653 10.8666 18.5042 9.06504Z" fill="#53686A" />
	</g>
	<path fill-rule="evenodd" clip-rule="evenodd" d="M3.78953 10.2659C3.36662 10.9781 2.44623 11.2125 1.73397 10.7893C1.02202 10.3664 0.787565 9.44643 1.21048 8.73422C1.6334 8.02201 2.55347 7.78757 3.26573 8.21045C3.97799 8.63334 4.21245 9.55366 3.78953 10.2659Z" fill="#53686A" />
</svg>
