<svg width="93" height="24" viewBox="0 0 93 24" fill="none" xmlns="http://www.w3.org/2000/svg">
<g clip-path="url(#clip0)">
<path d="M43.5638 11.244C43.0417 11.2449 42.5235 11.3341 42.0305 11.5078C41.5598 11.6703 41.1292 11.9333 40.7677 12.2791C40.3976 12.6315 40.1071 13.0608 39.9159 13.5374C39.6854 14.0924 39.576 14.6913 39.5952 15.293C39.5541 15.8542 39.6351 16.4177 39.8325 16.9437C40.0299 17.4698 40.3389 17.9455 40.7377 18.3374C41.5106 19.0195 42.5089 19.3818 43.5337 19.3522C44.1001 19.3617 44.6645 19.283 45.2073 19.1188C45.6395 18.9884 46.0616 18.8255 46.47 18.6317C46.8716 18.8939 47.2132 19.2399 47.4722 19.6465C47.696 20.0373 47.8071 20.4838 47.7928 20.9353C47.7972 21.3673 47.681 21.7918 47.4576 22.1598C47.2342 22.5279 46.9127 22.8245 46.5301 23.0157C45.45 23.5625 44.2487 23.8176 43.0426 23.7565C41.7793 23.7866 40.5207 23.5908 39.3246 23.178C38.2801 22.8104 37.319 22.2341 36.4986 21.4833C35.7128 20.7446 35.0911 19.8453 34.6746 18.8448C34.2245 17.7559 33.9994 16.5851 34.0132 15.4047C33.9853 14.1116 34.2206 12.8265 34.7047 11.6296C35.1339 10.607 35.7887 9.69748 36.6188 8.97085C37.427 8.26363 38.3678 7.72866 39.3848 7.39791C40.4526 7.04594 41.5689 6.86782 42.6919 6.87021C43.9422 6.79552 45.1866 7.09554 46.2696 7.73279C46.6501 7.95288 46.967 8.27018 47.1885 8.65303C47.4101 9.03587 47.5286 9.47088 47.5323 9.91461C47.5422 10.3232 47.4417 10.7267 47.2417 11.0816C47.0621 11.4201 46.8361 11.731 46.5702 12.0051C46.1408 11.8095 45.6988 11.6434 45.2474 11.5078C44.7025 11.3344 44.1349 11.2455 43.5638 11.244Z" fill="#5F45BA"/>
<path d="M28.4412 23.178C28.112 23.2657 27.7772 23.3302 27.4391 23.3708C26.9645 23.4402 26.4855 23.4741 26.006 23.4722C25.5797 23.4742 25.154 23.4402 24.7333 23.3708C24.3898 23.3221 24.0631 23.1897 23.7812 22.9851C23.5156 22.7752 23.3084 22.4989 23.1799 22.1835C23.0361 21.7665 22.9715 21.3258 22.9895 20.8845V11.0815C22.9807 10.6355 23.0769 10.1937 23.2701 9.79276C23.4562 9.39905 23.7266 9.05235 24.0618 8.77796C24.441 8.48606 24.8552 8.24397 25.2945 8.05745C25.8254 7.82182 26.3711 7.62181 26.928 7.45872C27.5184 7.27793 28.1214 7.14225 28.7319 7.0528C29.3531 6.97 29.9794 6.9327 30.6059 6.94117C31.4656 6.89594 32.3194 7.10768 33.0612 7.55005C33.376 7.77675 33.6255 8.08426 33.784 8.44097C33.9425 8.79768 34.0043 9.19072 33.9631 9.57965C33.9648 9.88562 33.9208 10.1901 33.8328 10.4828C33.7512 10.7564 33.6438 11.0215 33.5122 11.2744C33.0469 11.2735 32.582 11.2972 32.1192 11.3454C31.6481 11.3454 31.1872 11.457 30.7362 11.5382C30.2852 11.6194 29.8543 11.7209 29.4634 11.8224C29.1204 11.9044 28.7851 12.0164 28.4613 12.1572L28.4412 23.178Z" fill="#5F45BA"/>
<path d="M65.5008 23.1781C65.1719 23.2672 64.837 23.3316 64.4987 23.3709C64.0241 23.44 63.5451 23.4739 63.0656 23.4723C62.636 23.4743 62.2069 23.4403 61.7828 23.3709C61.443 23.3202 61.12 23.188 60.8408 22.9852C60.5724 22.7781 60.3646 22.501 60.2395 22.1835C60.1025 21.7653 60.0447 21.3246 60.0692 20.8846V13.6288C60.1063 13.2856 60.066 12.9383 59.9514 12.6132C59.8369 12.288 59.651 11.9933 59.4077 11.7514C58.9416 11.3851 58.3639 11.1949 57.7742 11.2136C57.3613 11.2119 56.9501 11.2665 56.5516 11.3759C56.2208 11.4575 55.9034 11.5874 55.6096 11.7616V23.1781C55.2807 23.2672 54.9457 23.3316 54.6074 23.3709C54.1328 23.44 53.6538 23.4739 53.1743 23.4723C52.7447 23.4743 52.3157 23.4403 51.8916 23.3709C51.5517 23.3202 51.2287 23.188 50.9495 22.9852C50.6839 22.7753 50.4767 22.499 50.3483 22.1835C50.1667 21.7741 50.0647 21.3331 50.0476 20.8846V1.92816L51.0498 1.74549C51.514 1.67303 51.983 1.63571 52.4528 1.63387C52.8824 1.63194 53.3114 1.66588 53.7355 1.73535C54.0754 1.786 54.3984 1.91822 54.6776 2.12097C54.9432 2.33092 55.1504 2.60718 55.2789 2.92266C55.4333 3.34783 55.5048 3.79931 55.4893 4.25205V7.44867C55.9102 7.30659 56.3311 7.17467 56.762 7.07319C57.3836 6.93106 58.0189 6.85958 58.6561 6.86008C60.4684 6.74546 62.257 7.32503 63.6669 8.48376C64.2956 9.10564 64.7821 9.85953 65.092 10.6924C65.4019 11.5252 65.5278 12.4167 65.4607 13.3041L65.5008 23.1781Z" fill="#5F45BA"/>
<path d="M68.768 2.94291C68.7584 2.55631 68.8262 2.17175 68.9675 1.81245C69.1087 1.45315 69.3204 1.12657 69.5898 0.852422C70.1869 0.304764 70.9638 0.00146484 71.7694 0.00146484C72.5751 0.00146484 73.352 0.304764 73.9491 0.852422C74.4763 1.41757 74.77 2.16551 74.77 2.94291C74.77 3.7203 74.4763 4.46825 73.9491 5.03339C73.352 5.58105 72.5751 5.88435 71.7694 5.88435C70.9638 5.88435 70.1869 5.58105 69.5898 5.03339C69.3213 4.75856 69.1103 4.43185 68.9691 4.07271C68.8279 3.71358 68.7595 3.32935 68.768 2.94291ZM74.5103 23.2389L73.5082 23.4216C73.0439 23.4944 72.5749 23.5317 72.1052 23.5332C71.6789 23.5351 71.2532 23.5012 70.8324 23.4317C70.472 23.389 70.1277 23.2565 69.8303 23.0461C69.5645 22.8387 69.3599 22.5614 69.239 22.2444C69.0846 21.8192 69.0131 21.3677 69.0285 20.915V7.58054L70.0307 7.40803C70.4941 7.32676 70.9635 7.28602 71.4337 7.28625C71.86 7.28474 72.2857 7.31868 72.7065 7.38773C73.0688 7.42906 73.4143 7.56548 73.7086 7.7835C73.9759 7.98754 74.1837 8.26106 74.3099 8.57504C74.4643 9.00021 74.5358 9.45169 74.5204 9.90443L74.5103 23.2389Z" fill="#5F45BA"/>
<path d="M76.8352 15.2931C76.8057 14.0177 77.0236 12.749 77.4765 11.5586C77.8741 10.5726 78.4835 9.68869 79.2604 8.97086C80.0403 8.27135 80.9547 7.74273 81.9461 7.41822C83.0161 7.0777 84.1317 6.90655 85.2533 6.91082C85.6742 6.8804 86.097 6.8906 86.516 6.94127C86.8586 6.99671 87.1945 7.08855 87.5181 7.21526V1.9586C87.8479 1.86841 88.1825 1.79725 88.5203 1.74549C89.0013 1.67262 89.487 1.63532 89.9734 1.63387C90.3997 1.63194 90.8254 1.66589 91.2461 1.73535C91.6065 1.77802 91.9509 1.91052 92.2483 2.12097C92.5083 2.3318 92.7088 2.60833 92.8295 2.92266C92.9683 3.35134 93.0328 3.80111 93.02 4.25205V19.748C93.0142 20.2444 92.8774 20.7302 92.6236 21.1549C92.3698 21.5796 92.0084 21.9278 91.5769 22.1633C90.817 22.6512 89.9941 23.0302 89.1316 23.2897C86.7862 23.9555 84.3002 23.9167 81.9762 23.1781C80.9295 22.8232 79.9719 22.2414 79.1702 21.4732C78.4005 20.7296 77.8047 19.8212 77.4264 18.8144C77.0135 17.6884 76.813 16.494 76.8352 15.2931ZM85.9949 11.2339C85.5033 11.2008 85.0103 11.2742 84.5489 11.4492C84.0876 11.6242 83.6683 11.8967 83.3191 12.2487C82.635 13.1052 82.3014 14.1949 82.3871 15.2931C82.3161 16.3785 82.6209 17.455 83.2489 18.3375C83.5687 18.6863 83.9614 18.9585 84.3983 19.1341C84.8352 19.3096 85.3054 19.3842 85.7744 19.3523C86.1168 19.3561 86.4569 19.2942 86.7765 19.1696C87.0399 19.081 87.2847 18.9434 87.4981 18.7637V11.6093C87.0419 11.3413 86.5222 11.2044 85.9949 11.2136V11.2339Z" fill="#5F45BA"/>
<path d="M4.4496 7.9865C5.08609 7.9865 5.60208 7.46401 5.60208 6.81948C5.60208 6.17496 5.08609 5.65247 4.4496 5.65247C3.8131 5.65247 3.29712 6.17496 3.29712 6.81948C3.29712 7.46401 3.8131 7.9865 4.4496 7.9865Z" fill="#5F45BA"/>
<path d="M0.811746 7.29644C1.26006 7.29644 1.62349 6.92842 1.62349 6.47445C1.62349 6.02048 1.26006 5.65247 0.811746 5.65247C0.363431 5.65247 0 6.02048 0 6.47445C0 6.92842 0.363431 7.29644 0.811746 7.29644Z" fill="#5F45BA"/>
<path d="M18.2393 8.62581C17.4508 7.71009 16.4898 6.96288 15.4126 6.42793C14.3354 5.89298 13.1636 5.58104 11.9658 5.51037C11.374 5.4698 10.7797 5.4902 10.192 5.57126C9.99693 5.58766 9.80289 5.61476 9.61073 5.65245H9.44037C8.93239 5.76888 8.43595 5.93192 7.95718 6.13955C7.53346 6.3116 7.16943 6.60667 6.91088 6.98766C6.65232 7.36865 6.51078 7.81855 6.50405 8.28077C6.50405 8.89173 6.74373 9.47765 7.17035 9.90966C7.59698 10.3417 8.17561 10.5844 8.77895 10.5844C9.14666 10.5239 9.50871 10.4322 9.86127 10.3104C10.8916 9.94879 12.0148 9.96623 13.0338 10.3596C14.0527 10.7531 14.9022 11.4973 15.4333 12.4617C16.0031 13.5177 16.1502 14.7551 15.844 15.9178C15.5378 17.0806 14.8019 18.0796 13.7885 18.708C12.7751 19.3365 11.5618 19.5464 10.3999 19.2942C9.23794 19.0419 8.21625 18.347 7.5463 17.3531L7.33584 17.0892C6.90349 16.1844 6.72 15.1783 6.8047 14.1768C6.77956 13.6285 6.56276 13.1071 6.19302 12.7058C5.82327 12.3044 5.32467 12.0492 4.78627 11.9858C4.24787 11.9224 3.70474 12.0549 3.25388 12.3595C2.80303 12.6642 2.47383 13.1213 2.32507 13.6491C2.2814 13.9175 2.25795 14.1889 2.25492 14.4609C2.17137 16.8741 3.01745 19.2257 4.61443 21.019C6.21142 22.8122 8.43423 23.9066 10.8133 24.071H11.3745C11.7094 24.0698 12.044 24.0495 12.3767 24.0102H12.4368L13.1483 23.929C14.7238 23.6068 16.1878 22.8706 17.3933 21.7942C18.5988 20.7178 19.5034 19.3391 20.0162 17.7967C20.5291 16.2542 20.632 14.6023 20.3149 13.0068C19.9977 11.4113 19.2715 9.92837 18.2092 8.70699L18.2393 8.62581Z" fill="#5F45BA"/>
<path d="M2.95635 11.386C3.78102 11.386 4.44956 10.7091 4.44956 9.87399C4.44956 9.03891 3.78102 8.36194 2.95635 8.36194C2.13167 8.36194 1.46313 9.03891 1.46313 9.87399C1.46313 10.7091 2.13167 11.386 2.95635 11.386Z" fill="#5F45BA"/>
</g>
<defs>
<clipPath id="clip0">
<rect width="93" height="24" fill="white"/>
</clipPath>
</defs>
</svg>
