<svg width="27" height="29" viewBox="0 0 27 29" fill="none" xmlns="http://www.w3.org/2000/svg">
    <path fill-rule="evenodd" clip-rule="evenodd" d="M13.6172 28.3954C10.8396 28.3954 8.7803 26.2653 7.54017 24.0806C5.90024 21.1915 5.23242 17.5898 5.23242 14.3256C5.23242 11.0615 5.90024 7.45976 7.54017 4.57068C8.78028 2.38599 10.8396 0.255881 13.6172 0.255859V1.94424C11.5473 1.94426 9.98188 3.7835 9.07748 5.37679C7.57919 8.01634 6.98755 11.3461 6.98755 14.3256C6.98755 17.3052 7.57919 20.6349 9.07748 23.2745C9.98188 24.8678 11.5473 26.707 13.6172 26.707V28.3954V28.3954Z" fill="#B88DFC" />
    <path fill-rule="evenodd" clip-rule="evenodd" d="M13.5166 11.9855C13.0114 11.3347 12.4275 11.0857 11.5822 11.0857C10.9204 11.0857 10.292 11.3365 9.82423 11.7865C9.35642 12.2365 9.0957 12.841 9.0957 13.4776C9.0957 14.0014 9.20853 14.4809 9.48933 14.9326C9.92586 15.6348 10.7354 16.1943 11.4055 16.6807C12.0775 17.1686 12.7223 17.6517 13.3196 18.2263C13.4053 18.3087 13.5175 18.3499 13.6298 18.3499V12.1313L13.5166 11.9856L13.5166 11.9855Z" fill="#5F45BA" />
    <path fill-rule="evenodd" clip-rule="evenodd" d="M13.6219 23.1778C11.7512 23.8143 9.79051 24.2225 7.87846 24.2663C5.29161 24.3255 2.3443 23.6749 0.955486 21.3609C-0.433331 19.0469 0.454655 16.2662 1.80138 14.1407C3.58234 11.33 6.49093 8.97277 9.42954 7.34065C10.7256 6.62083 12.1458 5.97647 13.6219 5.47424V7.27219C12.4563 7.70612 11.3367 8.23101 10.3071 8.80283C7.62469 10.2926 4.92289 12.4504 3.29579 15.0184C2.31358 16.5685 1.44053 18.7923 2.47548 20.5167C3.51044 22.2412 5.94896 22.6257 7.83557 22.5825C9.76132 22.5384 11.7508 22.0764 13.6219 21.3799V23.1778L13.6219 23.1778Z" fill="#B88DFC" />
    <path fill-rule="evenodd" clip-rule="evenodd" d="M13.6219 23.1756C12.1458 22.6733 10.7256 22.029 9.42954 21.3091C6.49096 19.677 3.58237 17.3198 1.80138 14.509C0.454656 12.3836 -0.433331 9.60292 0.955486 7.2889C2.3443 4.97484 5.29162 4.3243 7.87846 4.38352C9.79053 4.4273 11.7512 4.83549 13.6219 5.47199V7.26994C11.7508 6.57335 9.76127 6.11137 7.8355 6.06727C5.94888 6.02408 3.51037 6.40865 2.47541 8.13307C1.44045 9.85752 2.3135 12.0813 3.29571 13.6314C4.92282 16.1994 7.62463 18.3572 10.307 19.847C11.3366 20.4188 12.4563 20.9437 13.6218 21.3776V23.1756L13.6219 23.1756Z" fill="#B88DFC" />
    <path fill-rule="evenodd" clip-rule="evenodd" d="M13.623 28.3954C16.4007 28.3954 18.46 26.2653 19.7001 24.0806C21.34 21.1915 22.0079 17.5898 22.0079 14.3256C22.0079 11.0615 21.34 7.45976 19.7001 4.57068C18.46 2.38599 16.4007 0.255881 13.623 0.255859V1.94424C15.693 1.94426 17.2584 3.7835 18.1628 5.37679C19.6611 8.01634 20.2527 11.3461 20.2527 14.3256C20.2527 17.3052 19.6611 20.6349 18.1628 23.2745C17.2584 24.8678 15.693 26.707 13.623 26.707V28.3954V28.3954Z" fill="#8C61E1" />
    <path fill-rule="evenodd" clip-rule="evenodd" d="M13.7362 11.9855C14.2414 11.3347 14.8254 11.0857 15.6707 11.0857C16.3324 11.0857 16.9608 11.3365 17.4286 11.7865C17.8964 12.2365 18.1571 12.841 18.1571 13.4776C18.1571 14.0014 18.0443 14.4809 17.7635 14.9326C17.327 15.6348 16.5174 16.1943 15.8473 16.6807C15.1753 17.1686 14.5305 17.6517 13.9332 18.2263C13.8476 18.3087 13.7353 18.3499 13.623 18.3499V12.1313L13.7362 11.9856L13.7362 11.9855Z" fill="#52319C" />
    <path fill-rule="evenodd" clip-rule="evenodd" d="M13.6231 23.1778C15.4938 23.8143 17.4545 24.2225 19.3665 24.2663C21.9534 24.3255 24.9007 23.6749 26.2895 21.3609C27.6783 19.0469 26.7903 16.2662 25.4436 14.1407C23.6627 11.33 20.7541 8.97277 17.8155 7.34065C16.5194 6.62083 15.0992 5.97647 13.6231 5.47424V7.27219C14.7886 7.70612 15.9083 8.23101 16.9379 8.80283C19.6203 10.2926 22.3221 12.4504 23.9492 15.0184C24.9314 16.5685 25.8045 18.7923 24.7695 20.5167C23.7346 22.2412 21.296 22.6257 19.4094 22.5825C17.4837 22.5384 15.4942 22.0764 13.623 21.3799V23.1778L13.6231 23.1778Z" fill="#8C61E1" />
    <path fill-rule="evenodd" clip-rule="evenodd" d="M13.623 23.1763C15.0992 22.674 16.5194 22.0297 17.8154 21.3099C20.754 19.6778 23.6626 17.3206 25.4436 14.5098C26.7903 12.3843 27.6783 9.60365 26.2895 7.28963C24.9007 4.97558 21.9533 4.32504 19.3665 4.38425C17.4544 4.42803 15.4938 4.83623 13.6231 5.47272V7.27067C15.4942 6.57409 17.4837 6.1121 19.4095 6.068C21.2961 6.02481 23.7346 6.40938 24.7696 8.1338C25.8045 9.85825 24.9315 12.082 23.9493 13.6322C22.3222 16.2001 19.6203 18.3579 16.938 19.8477C15.9084 20.4195 14.7887 20.9444 13.6231 21.3783V23.1763L13.623 23.1763Z" fill="#8C61E1" />
</svg>
