<?xml version="1.0" encoding="UTF-8"?>
<svg width="30px" height="30px" viewBox="0 0 30 30" version="1.1" xmlns="http://www.w3.org/2000/svg" xmlns:xlink="http://www.w3.org/1999/xlink">
    <!-- Generator: Sketch 57.1 (83088) - https://sketch.com -->
    <title>Icon_Facebook</title>
    <desc>Created with Sketch.</desc>
    <g id="Symbols" stroke="none" stroke-width="1" fill="none" fill-rule="evenodd">
        <g id="Component/Footer" transform="translate(-1209.000000, -124.000000)" fill="#766D86">
            <path d="M1239,139 C1239,130.717 1232.2845,124 1224,124 C1215.7155,124 1209,130.717 1209,139 C1209,146.4865 1214.4855,152.692 1221.6555,153.8185 L1221.6555,143.3365 L1217.847,143.3365 L1217.847,139 L1221.6555,139 L1221.6555,135.6955 C1221.6555,131.9365 1223.8965,129.859 1227.3225,129.859 C1228.9635,129.859 1230.6795,130.153 1230.6795,130.153 L1230.6795,133.843 L1228.788,133.843 C1226.925,133.843 1226.343,134.9995 1226.343,136.186 L1226.343,139 L1230.504,139 L1229.8395,143.3365 L1226.343,143.3365 L1226.343,153.8185 C1233.5145,152.692 1239,146.4865 1239,139" id="Icon_Facebook"></path>
        </g>
    </g>
</svg>