<svg id="Layer_1" data-name="Layer 1" xmlns="http://www.w3.org/2000/svg" width="20" height="20" viewBox="0 0 20 20"><defs><style>.cls-1{fill:#53686a;}</style></defs><circle class="cls-1" cx="7.67" cy="11" r="1"/><path class="cls-1" d="M10,0A10,10,0,1,0,20,10,10,10,0,0,0,10,0Zm5.86,11.33a3.23,3.23,0,0,1,0,.44c0,2.24-2.61,4.06-5.83,4.06S4.2,14,4.2,11.77a3.23,3.23,0,0,1,0-.44,1.48,1.48,0,0,1-.39-.26,1.46,1.46,0,0,1,2-2.13,7.14,7.14,0,0,1,3.9-1.23l.74-3.47h0A.31.31,0,0,1,10.82,4l2.45.49a1,1,0,1,1-.13.61L11,4.65l-.65,3.12A7.15,7.15,0,0,1,14.2,9a1.5,1.5,0,0,1,1-.41,1.44,1.44,0,0,1,.7,2.74Z"/><path class="cls-1" d="M12.09,13.39A3.25,3.25,0,0,1,10,14a3.3,3.3,0,0,1-2.08-.63.27.27,0,0,0-.38.38,3.84,3.84,0,0,0,2.47.77,3.84,3.84,0,0,0,2.47-.77h0a.23.23,0,0,0,0-.35A.26.26,0,0,0,12.09,13.39Z"/><path class="cls-1" d="M12.3,12a1,1,0,1,1,1-1,1,1,0,0,1-1,1Z"/></svg>