<?xml version="1.0" encoding="UTF-8"?>
<svg width="30px" height="30px" viewBox="0 0 30 30" version="1.1" xmlns="http://www.w3.org/2000/svg" xmlns:xlink="http://www.w3.org/1999/xlink">
    <!-- Generator: Sketch 57.1 (83088) - https://sketch.com -->
    <title>Icon_Twitter</title>
    <desc>Created with Sketch.</desc>
    <g id="Symbols" stroke="none" stroke-width="1" fill="none" fill-rule="evenodd">
        <g id="Component/Footer" transform="translate(-1007.000000, -123.000000)" fill="#766D86">
            <path d="M1030.04096,133.781707 C1029.81514,133.950809 1029.73709,134.126414 1029.73926,134.411355 C1029.75655,136.722703 1029.11588,138.848719 1027.87334,140.792918 C1026.51098,142.9245 1024.66077,144.471082 1022.25075,145.263562 C1018.84856,146.382234 1015.57393,146.063074 1012.47496,144.220184 C1012.44713,144.20366 1012.42147,144.183562 1012.33205,144.121922 C1013.42489,144.200496 1014.43639,144.139324 1015.42745,143.852742 C1016.41082,143.568328 1017.30936,143.124656 1018.16219,142.46366 C1016.33588,142.292918 1015.12469,141.388875 1014.46194,139.69698 C1015.05778,139.752293 1015.61307,139.790555 1016.18366,139.613426 C1014.17676,138.937898 1012.88518,137.290711 1013.0858,135.731062 C1013.63887,135.885457 1014.19709,136.041316 1014.75532,136.197293 L1014.79223,136.130145 C1013.05258,134.667703 1012.6583,132.914578 1013.61098,130.805379 C1015.79289,133.365105 1018.50807,134.756883 1021.84539,134.994363 C1021.82313,134.802879 1021.7987,134.634598 1021.78463,134.465379 C1021.64354,132.765516 1022.50469,131.219812 1023.99209,130.500047 C1025.5228,129.759363 1027.25125,130.033289 1028.5235,131.205457 C1028.60161,131.277469 1028.76098,131.317137 1028.86621,131.294812 C1029.57971,131.143406 1030.25975,130.893914 1030.89989,130.540301 C1030.97483,130.498875 1031.05323,130.463426 1031.18518,130.397801 C1030.86385,131.349012 1030.29426,132.023309 1029.52457,132.544617 C1029.53612,132.568992 1029.54772,132.593309 1029.55932,132.617625 C1030.26215,132.425672 1030.96504,132.233719 1031.66799,132.041824 C1031.22362,132.701941 1030.68825,133.296961 1030.04096,133.781707 M1036.76342,135.389695 C1035.77489,130.335398 1032.95336,126.674461 1028.33594,124.41075 C1026.69151,123.604617 1024.93563,123.169441 1023.1051,123.048035 C1023.02899,123.042996 1022.95428,123.016453 1022.87893,122.999988 L1021.12112,122.999988 C1020.54268,123.077391 1019.95897,123.126727 1019.3868,123.236648 C1014.63912,124.148777 1011.0952,126.736043 1008.76176,130.960711 C1007.74932,132.793758 1007.19561,134.775926 1007.04971,136.868543 C1007.04379,136.953445 1007.01707,137.036941 1007.00002,137.121082 L1007.00002,138.878895 C1007.07731,139.456336 1007.12512,140.03952 1007.23651,140.610281 C1008.22088,145.654207 1011.03655,149.309754 1015.63721,151.577625 C1017.28844,152.391492 1019.05399,152.830945 1020.89489,152.952 C1020.971,152.95698 1021.04571,152.983523 1021.12112,152.999988 L1022.87893,152.999988 C1023.45731,152.922586 1024.04108,152.87325 1024.61319,152.763328 C1029.36092,151.851258 1032.90479,149.263934 1035.23823,145.039266 C1036.25067,143.206277 1036.80438,141.224109 1036.95034,139.131492 C1036.95625,139.04659 1036.98297,138.963094 1037.00002,138.878895 L1037.00002,137.121082 C1036.92268,136.543699 1036.8751,135.960457 1036.76342,135.389695" id="Icon_Twitter"></path>
        </g>
    </g>
</svg>