<?xml version="1.0" encoding="UTF-8"?>
<svg width="30px" height="30px" viewBox="0 0 30 30" version="1.1" xmlns="http://www.w3.org/2000/svg" xmlns:xlink="http://www.w3.org/1999/xlink">
    <!-- Generator: Sketch 57.1 (83088) - https://sketch.com -->
    <title>Icon_GitHub</title>
    <desc>Created with Sketch.</desc>
    <g id="Symbols" stroke="none" stroke-width="1" fill="none" fill-rule="evenodd">
        <g id="Component/Footer" transform="translate(-1159.000000, -123.000000)" fill="#766D86">
            <path d="M1173.97218,123.247835 C1182.24102,123.247835 1188.94441,129.950727 1188.94441,138.220066 C1188.94441,144.832959 1184.65962,150.443207 1178.71392,152.42519 C1177.95499,152.572215 1177.68574,152.105355 1177.68574,151.706926 C1177.68574,151.260527 1177.69974,149.898182 1177.70241,148.159022 L1177.70284,147.597917 C1177.70284,146.201306 1177.22433,145.290149 1176.68731,144.825521 C1180.02127,144.45486 1183.52383,143.188661 1183.52383,137.438083 C1183.52383,135.803455 1182.94317,134.467587 1181.98317,133.419074 C1182.13863,133.041967 1182.65111,131.519157 1181.83615,129.456843 C1181.83615,129.456843 1180.58061,129.054694 1177.72293,130.991802 C1176.5264,130.660066 1175.24458,130.493702 1173.97218,130.487752 C1172.69979,130.493702 1171.41896,130.660066 1170.22466,130.991802 C1167.36375,129.054694 1166.10623,129.456843 1166.10623,129.456843 C1165.29326,131.519157 1165.80574,133.041967 1165.96119,133.419074 C1165.00342,134.467587 1164.41855,135.803455 1164.41855,137.438083 C1164.41855,143.175025 1167.91441,144.458826 1171.23995,144.837421 C1170.81177,145.211058 1170.42375,145.871802 1170.28937,146.839488 C1169.43499,147.22205 1167.2678,147.883785 1165.93243,145.59486 C1165.93243,145.59486 1165.14078,144.157339 1163.63731,144.051967 L1163.59514,144.052425 C1163.36524,144.058166 1162.31701,144.129006 1163.53491,144.962132 C1163.53491,144.962132 1164.51623,145.422298 1165.19731,147.152876 L1165.20273,147.168163 C1165.28192,147.38334 1166.26136,149.784854 1170.24152,148.919405 C1170.24716,150.013878 1170.2585,151.053872 1170.26124,151.535948 L1170.26185,151.706926 C1170.26185,152.102132 1169.98714,152.565769 1169.23888,152.427174 C1163.28995,150.447421 1158.99995,144.83519 1158.99995,138.220066 C1158.99995,129.950727 1165.70433,123.247835 1173.97218,123.247835 Z M1168.69332,147.471347 C1168.87134,147.467876 1169.01737,147.567298 1169.01737,147.689777 C1169.02159,147.813248 1168.87779,147.915645 1168.69977,147.917876 C1168.52076,147.922091 1168.37572,147.821926 1168.37374,147.700438 C1168.37374,147.575727 1168.51456,147.47457 1168.69332,147.471347 Z M1170.15752,147.495843 C1170.17884,147.616091 1170.05512,147.73981 1169.87835,147.772785 C1169.70455,147.804769 1169.54364,147.73014 1169.52157,147.610884 C1169.5,147.487413 1169.6257,147.363694 1169.7995,147.331711 C1169.97653,147.300967 1170.13496,147.373364 1170.15752,147.495843 Z M1167.54702,147.293479 C1167.71612,147.344554 1167.82719,147.480917 1167.79198,147.600174 C1167.75579,147.717446 1167.58744,147.770504 1167.41785,147.720669 C1167.24851,147.669347 1167.13769,147.53224 1167.1719,147.413727 C1167.20711,147.295463 1167.3762,147.240174 1167.54702,147.293479 Z M1166.59421,146.733868 C1166.72413,146.854364 1166.7638,147.026926 1166.67628,147.11643 C1166.59421,147.206926 1166.41942,147.182628 1166.29149,147.059157 C1166.16058,146.938413 1166.12413,146.767091 1166.2062,146.676595 C1166.2895,146.585851 1166.46529,146.611388 1166.59421,146.733868 Z M1165.86983,145.923025 C1165.96131,146.058397 1165.96131,146.218066 1165.8676,146.283273 C1165.77586,146.34724 1165.62561,146.287488 1165.53288,146.154099 C1165.44115,146.020959 1165.44115,145.861289 1165.53512,145.797322 C1165.62784,145.733355 1165.77586,145.791124 1165.86983,145.923025 Z M1165.23464,145.109926 C1165.33283,145.215545 1165.35192,145.353893 1165.27729,145.421083 C1165.20588,145.487281 1165.06605,145.456537 1164.97159,145.351909 C1164.8734,145.247529 1164.85531,145.107694 1164.9277,145.040752 C1165.00134,144.974554 1165.13671,145.005545 1165.23464,145.109926 Z M1164.53763,144.518727 C1164.64622,144.56757 1164.70821,144.669967 1164.67077,144.744595 C1164.63779,144.819223 1164.52077,144.841537 1164.41416,144.790463 C1164.30531,144.741372 1164.24457,144.639967 1164.27978,144.565339 C1164.31201,144.488975 1164.42903,144.467653 1164.53763,144.518727 Z" id="Icon_GitHub"></path>
        </g>
    </g>
</svg>