<?xml version="1.0" encoding="UTF-8"?>
<svg width="27px" height="27px" viewBox="0 0 27 27" version="1.1" xmlns="http://www.w3.org/2000/svg" xmlns:xlink="http://www.w3.org/1999/xlink">
    <!-- Generator: Sketch 52.5 (67469) - http://www.bohemiancoding.com/sketch -->
    <title>Group 4</title>
    <desc>Created with Sketch.</desc>
    <g id="Symbols" stroke="none" stroke-width="1" fill="none" fill-rule="evenodd">
        <g id="Component/Footer" transform="translate(-1110.000000, -124.000000)">
            <g id="Group-7" transform="translate(1006.727922, 77.971632)">
                <g id="Group-4" transform="translate(104.000000, 47.000000)">
                    <polygon id="Fill-1" fill="#898F9C" points="0 26 26 26 26 0 0 0"></polygon>
                    <path d="M7.01579398,8.85610567 C7.03713797,8.63973403 6.95758311,8.42562674 6.80162648,8.27995328 L5.2141675,6.29637883 L5.2141675,6 L10.1429305,6 L13.9525895,14.6666906 L17.301655,6 L22,6 L22,6.29637883 L20.6432016,7.64618564 C20.5260522,7.73877258 20.4680839,7.89073592 20.4923384,8.04118968 L20.4923384,17.9590619 C20.4680839,18.1092641 20.5260522,18.261479 20.6432016,18.354066 L21.9682266,19.7036212 L21.9682266,20 L15.3016265,20 L15.3016265,19.7036212 L16.6746754,18.321107 C16.8097731,18.1809686 16.8097731,18.1399587 16.8097731,17.926103 L16.8097731,9.90953365 L12.9921101,19.9670411 L12.4764588,19.9670411 L8.03157369,9.90953365 L8.03157369,16.6502651 C7.99470681,16.933561 8.08541875,17.2188696 8.27775717,17.4239195 L10.0633757,19.6706622 L10.0633757,19.9670411 L5,19.9670411 L5,19.6706622 L6.78586104,17.4239195 C6.97674419,17.218618 7.06212013,16.9315482 7.01579398,16.6502651 L7.01579398,8.85610567 Z" id="Fill-2" fill="#FFFFFF"></path>
                </g>
            </g>
        </g>
    </g>
</svg>