<?xml version="1.0" encoding="UTF-8"?>
<svg width="30px" height="30px" viewBox="0 0 30 30" version="1.1" xmlns="http://www.w3.org/2000/svg" xmlns:xlink="http://www.w3.org/1999/xlink">
    <!-- Generator: Sketch 57.1 (83088) - https://sketch.com -->
    <title>Icon_Telegram</title>
    <desc>Created with Sketch.</desc>
    <g id="Symbols" stroke="none" stroke-width="1" fill="none" fill-rule="evenodd">
        <g id="Component/Footer" transform="translate(-1108.000000, -124.000000)" fill="#766D86">
            <path d="M1122.75033,143.796443 C1122.77316,143.812309 1122.78891,143.822655 1122.80404,143.83389 C1123.98443,144.709784 1125.16547,145.584835 1126.34431,146.4628 C1126.50956,146.585893 1126.68985,146.671845 1126.88672,146.723685 C1127.25423,146.820404 1127.52564,146.702638 1127.68821,146.359508 C1127.76011,146.207776 1127.81204,146.042865 1127.84794,145.878472 C1128.04398,144.980901 1128.23221,144.081629 1128.42315,143.182957 C1128.75014,141.643874 1129.07693,140.104743 1129.40423,138.565709 C1129.70965,137.129465 1130.01564,135.693367 1130.32133,134.257172 C1130.36434,134.055089 1130.38222,133.85218 1130.34241,133.647069 C1130.285,133.351262 1130.0068,132.981678 1129.57296,133.052088 C1129.46727,133.069217 1129.36079,133.095024 1129.26106,133.13341 C1127.03162,133.991511 1124.80307,134.85191 1122.57436,135.711921 C1120.27026,136.601009 1117.96591,137.489449 1115.66235,138.379929 C1115.28822,138.52457 1114.91583,138.674085 1114.54626,138.829945 C1114.39146,138.895256 1114.25412,138.992428 1114.16209,139.140922 C1114.01272,139.381942 1114.06384,139.591036 1114.31777,139.717641 C1114.43211,139.774662 1114.55901,139.807852 1114.68211,139.845623 C1115.87162,140.210593 1117.06194,140.57286 1118.25048,140.940906 C1118.34372,140.969773 1118.40922,140.956627 1118.48813,140.906891 C1121.26147,139.158974 1124.03608,137.413065 1126.81052,135.66688 C1126.9063,135.606605 1126.99987,135.542396 1127.09863,135.487463 C1127.2055,135.42803 1127.32131,135.405186 1127.44188,135.443281 C1127.52527,135.469638 1127.55049,135.533507 1127.50277,135.606556 C1127.47366,135.651111 1127.43595,135.691392 1127.39666,135.727706 C1127.17871,135.929158 1126.95914,136.128828 1126.74006,136.329033 C1124.66663,138.223615 1122.59306,140.118051 1120.52102,142.014155 C1120.49321,142.039589 1120.472,142.084889 1120.46883,142.122709 C1120.43174,142.56348 1120.39911,143.004624 1120.36453,143.445607 C1120.30758,144.171613 1120.24994,144.897571 1120.19287,145.623545 C1120.18597,145.711068 1120.18076,145.79872 1120.17419,145.894646 C1120.22837,145.888575 1120.27146,145.88736 1120.31289,145.878521 C1120.5774,145.821953 1120.79616,145.677539 1120.98739,145.496826 C1121.43446,145.074333 1121.87336,144.643178 1122.31565,144.215634 C1122.45898,144.07708 1122.60263,143.93885 1122.75033,143.796443 M1122.84676,124.00007 L1123.13818,124.00007 C1123.18086,124.003745 1123.22348,124.009994 1123.26619,124.01069 C1124.2754,124.027155 1125.27236,124.147868 1126.25447,124.378607 C1128.38371,124.878877 1130.33251,125.770393 1132.08127,127.089341 C1132.66547,127.529951 1133.23173,127.993178 1133.73445,128.526459 C1134.54268,129.383863 1135.22102,130.338456 1135.82303,131.349875 C1136.57572,132.614441 1137.16633,133.945871 1137.52398,135.377226 C1137.75134,136.287182 1137.90297,137.208132 1137.95514,138.145013 C1137.96365,138.297879 1137.97456,138.450631 1137.98438,138.603416 L1137.98438,139.380534 C1137.98013,139.414937 1137.97309,139.44926 1137.97204,139.483777 C1137.94523,140.367555 1137.83552,141.241117 1137.6443,142.104139 C1137.26863,143.799665 1136.63221,145.391009 1135.72672,146.873426 C1135.10405,147.892843 1134.37918,148.83552 1133.53235,149.677107 C1132.05516,151.145132 1130.31496,152.208731 1128.37947,152.961532 C1127.00174,153.497387 1125.57755,153.834479 1124.1025,153.946788 C1122.98185,154.032142 1121.86515,153.989951 1120.75453,153.816249 C1119.86076,153.676448 1118.98724,153.45395 1118.13281,153.156459 C1116.61738,152.628828 1115.21253,151.892736 1113.92858,150.928332 C1113.00177,150.23218 1112.15098,149.456502 1111.42092,148.552099 C1110.39454,147.280588 1109.60209,145.876125 1109.01464,144.353264 C1108.56249,143.181176 1108.2517,141.973518 1108.10234,140.725984 C1107.99786,139.853572 1107.97375,138.978407 1108.0283,138.100604 C1108.07894,137.285828 1108.19444,136.48109 1108.38275,135.687409 C1108.80657,133.901057 1109.5096,132.232908 1110.52392,130.700512 C1111.28845,129.545504 1112.17115,128.491975 1113.23496,127.597074 C1114.82459,126.259832 1116.62533,125.310615 1118.60002,124.685261 C1119.95502,124.256162 1121.34485,124.029568 1122.7672,124.009314 C1122.79377,124.008942 1122.82024,124.003275 1122.84676,124.00007" id="Icon_Telegram"></path>
        </g>
    </g>
</svg>