<svg width="30" height="30" viewBox="0 0 30 30" fill="none" xmlns="http://www.w3.org/2000/svg">
<path fill-rule="evenodd" clip-rule="evenodd" d="M30 15.0031C30 6.58883 23.1776 -0.00612909 15.0031 1.71882e-05C6.83467 -0.0122754 0.0122968 6.57039 4.21412e-06 14.9846C-0.00614207 23.319 6.71174 29.9693 14.96 29.9939C23.2329 30.0184 30 23.362 30 15.0031ZM15.2539 16.2613C15.2637 16.2824 15.2735 16.3035 15.3104 16.3245C15.402 16.0957 15.4937 15.8669 15.5853 15.6381C16.569 13.1828 17.5496 10.7351 18.4942 8.26676H23.0055C23.0148 8.32679 23.0136 8.38336 23.0124 8.43905C23.0121 8.45749 23.0117 8.47583 23.0117 8.49418C23.0117 8.53257 22.9892 8.55223 22.9647 8.57363C22.9578 8.57964 22.9508 8.58578 22.9441 8.59252C22.7874 8.74307 22.6307 8.89208 22.474 9.04109C22.3172 9.19018 22.1605 9.33926 22.0037 9.48987C21.8992 9.59431 21.7948 9.69261 21.6904 9.79091L21.6902 9.79104C21.598 9.88324 21.555 9.98772 21.555 10.1168V19.287V19.4038C21.5489 19.539 21.598 19.6497 21.6964 19.748C21.8417 19.8887 21.9861 20.0311 22.1306 20.1736C22.3713 20.4109 22.6122 20.6485 22.858 20.8789C22.9809 20.9896 23.0055 21.1125 22.9748 21.2661H16.5888C16.5704 21.1862 16.5765 21.1002 16.5827 21.0203C16.5827 20.9924 16.6073 20.9715 16.63 20.9523C16.6373 20.9462 16.6443 20.9402 16.6503 20.9342C16.8285 20.7621 17.0068 20.5885 17.1851 20.4148C17.3633 20.2412 17.5415 20.0676 17.7197 19.8955L17.9226 19.6927C17.9902 19.6251 18.027 19.5452 18.027 19.4468V19.244V12.1143V11.9238C18.024 11.9238 18.0194 11.9223 18.0148 11.9207C18.0101 11.9192 18.0055 11.9177 18.0025 11.9177C17.9514 12.0271 17.909 12.1387 17.8662 12.2512C17.837 12.3282 17.8075 12.4057 17.775 12.4831C17.7382 12.5815 17.6998 12.6783 17.6613 12.7751C17.6229 12.8719 17.5845 12.9687 17.5476 13.067C17.5108 13.1653 17.4723 13.2622 17.4339 13.359C17.3955 13.4558 17.3571 13.5526 17.3202 13.6509C17.2833 13.7492 17.2449 13.846 17.2065 13.9429C17.1681 14.0397 17.1297 14.1365 17.0928 14.2348C17.0559 14.3331 17.0175 14.4299 16.9791 14.5267C16.9407 14.6236 16.9023 14.7204 16.8654 14.8187C16.8285 14.917 16.7901 15.0138 16.7517 15.1106C16.7133 15.2075 16.6749 15.3043 16.638 15.4026C16.6011 15.5009 16.5627 15.5977 16.5243 15.6945C16.4859 15.7913 16.4474 15.8882 16.4106 15.9865C16.3802 16.0636 16.3507 16.1398 16.3214 16.2155C16.2737 16.3389 16.2265 16.4608 16.177 16.5827C16.1401 16.681 16.1017 16.7778 16.0633 16.8746C16.0249 16.9714 15.9865 17.0682 15.9496 17.1666C15.9127 17.2649 15.8743 17.3617 15.8359 17.4585C15.7975 17.5553 15.7591 17.6521 15.7222 17.7505C15.7042 17.7947 15.6862 17.8386 15.6683 17.8824C15.6066 18.0332 15.5458 18.1819 15.4886 18.3344C15.4518 18.4327 15.4133 18.5295 15.3749 18.6263C15.3365 18.7231 15.2981 18.8199 15.2612 18.9183C15.2243 19.0166 15.1859 19.1134 15.1475 19.2102C15.1091 19.307 15.0707 19.4038 15.0338 19.5022C14.9969 19.6005 14.9585 19.6973 14.9201 19.7941C14.8817 19.8909 14.8433 19.9877 14.8064 20.0861C14.7695 20.1844 14.7311 20.2812 14.6927 20.378C14.6543 20.4748 14.6159 20.5716 14.579 20.67C14.5052 20.8666 14.4315 21.0572 14.3516 21.2539H13.866L9.5882 11.9238C9.54937 11.9384 9.5527 11.9606 9.55582 11.9814C9.55665 11.9869 9.55747 11.9924 9.55747 11.9976V17.9287C9.55747 17.991 9.55589 18.0516 9.55434 18.1115C9.55282 18.1699 9.55132 18.2276 9.55132 18.2852C9.55132 18.5065 9.62508 18.697 9.76644 18.8691L9.76675 18.8695C10.3198 19.5393 10.8729 20.2091 11.4259 20.8728C11.5058 20.965 11.5366 21.051 11.5243 21.1617C11.5222 21.1699 11.5222 21.1794 11.5222 21.1897C11.5222 21.2101 11.5222 21.2334 11.5058 21.2539H6.66872C6.66872 21.2296 6.66764 21.2059 6.66657 21.1824C6.66195 21.0807 6.65759 20.9849 6.74247 20.8851C7.11943 20.4385 7.49093 19.9864 7.86242 19.5343C8.04819 19.3082 8.23396 19.0822 8.42041 18.8568C8.55563 18.697 8.61709 18.5188 8.61709 18.3098C8.61006 16.9189 8.61107 15.5299 8.61207 14.1419C8.61282 13.101 8.61358 12.0607 8.61094 11.0203C8.61094 10.9957 8.61171 10.9711 8.61248 10.9465C8.61478 10.8728 8.61709 10.799 8.59865 10.7253C8.56792 10.6146 8.52489 10.5163 8.45114 10.4303C8.19608 10.123 7.94102 9.81719 7.68596 9.51143C7.43088 9.20564 7.1758 8.89985 6.92072 8.59252C6.88998 8.56178 6.87769 8.52491 6.87769 8.48188V8.29749C6.90742 8.26777 6.93714 8.26999 6.96365 8.27197C6.97002 8.27245 6.97622 8.27291 6.98218 8.27291C7.4864 8.27291 7.98994 8.27359 8.49325 8.27428C9.49919 8.27564 10.5042 8.27701 11.512 8.27291C11.598 8.27291 11.6349 8.30979 11.6656 8.38354C12.8027 10.8912 13.9459 13.3989 15.0891 15.9004C15.1168 15.9588 15.1429 16.0172 15.169 16.0756C15.1951 16.134 15.2213 16.1924 15.2489 16.2508C15.2507 16.2543 15.2523 16.2578 15.2539 16.2613Z" fill="#53686A"/>
</svg>
