<svg width="30" height="30" viewBox="0 0 30 30" fill="none" xmlns="http://www.w3.org/2000/svg">
<path fill-rule="evenodd" clip-rule="evenodd" d="M20.6592 1.13003C18.8489 0.397817 16.9693 0 15.182 0C14.6228 0 14.2365 0.0115309 13.856 0.0461238C13.118 0.109544 12.3858 0.219088 11.6651 0.392052C10.2929 0.720684 8.98992 1.22228 7.75034 1.89107C5.93998 2.86544 4.39484 4.16267 3.15526 5.81159C1.2296 8.37723 0.157218 11.2484 0.0130811 14.4598C-0.0388081 15.6302 0.0649704 16.7948 0.301355 17.9421C0.595394 19.3777 1.09699 20.7442 1.77155 22.0414C2.41152 23.2694 3.19562 24.3995 4.16422 25.3969C5.27696 26.5385 6.53959 27.484 7.95213 28.222C9.94699 29.2655 12.0687 29.8824 14.3287 29.9862C15.5222 30.0381 16.7041 29.9516 17.8745 29.7152C19.3101 29.427 20.6765 28.9369 21.9795 28.2623C23.4958 27.4782 24.8507 26.4866 25.9981 25.2182C27.2838 23.7883 28.2869 22.1798 28.9788 20.3809C29.5554 18.8819 29.9013 17.3368 29.982 15.734C30.0454 14.4425 29.9416 13.1683 29.6649 11.9057C29.4631 10.9717 29.1864 10.055 28.7943 9.17863C28.2754 8.00824 27.6355 6.90703 26.8744 5.87501C26.4766 5.33883 26.0615 4.8084 25.5829 4.34716C24.1473 2.96345 22.5099 1.87954 20.6592 1.13003ZM14.8246 19.8505C14.8015 19.839 14.7785 19.8217 14.7554 19.8044C14.617 19.937 14.4786 20.0696 14.346 20.1907C14.1961 20.3348 14.0469 20.4796 13.8976 20.6244C13.5991 20.9139 13.3006 21.2035 12.9969 21.4879C12.8067 21.6666 12.5876 21.8108 12.3224 21.8684C12.3175 21.8696 12.313 21.8708 12.3086 21.872C12.2921 21.8764 12.2784 21.88 12.2647 21.88H12.1782C12.1811 21.8281 12.1854 21.7747 12.1898 21.7214C12.1941 21.6681 12.1984 21.6147 12.2013 21.5629C12.2273 21.2252 12.2532 20.889 12.2792 20.5528C12.3051 20.2173 12.331 19.8819 12.357 19.5449C12.3973 19.0606 12.4377 18.5763 12.4723 18.092C12.478 18.0517 12.4953 18.0286 12.5242 18.0056C13.1584 17.429 13.7983 16.8467 14.4325 16.2644L14.8292 15.9023C16.3508 14.5133 17.8679 13.1283 19.3851 11.7385C19.3965 11.727 19.4085 11.716 19.4205 11.705C19.4507 11.6771 19.4814 11.6488 19.5061 11.6117C19.5638 11.5194 19.5407 11.4502 19.4312 11.4272C19.3274 11.4041 19.2294 11.4214 19.1371 11.4618C19.0856 11.4856 19.0367 11.5176 18.9868 11.5503C18.9642 11.5651 18.9414 11.58 18.9181 11.5944C17.5778 12.4389 16.2375 13.282 14.8972 14.1251C13.5565 14.9684 12.2159 15.8117 10.8752 16.6564C10.8032 16.7026 10.7297 16.7487 10.6562 16.7948C10.5827 16.8409 10.5091 16.8871 10.4371 16.9332C10.3967 16.962 10.3563 16.9678 10.3102 16.9505C9.71344 16.7689 9.11666 16.5858 8.51989 16.4027C7.92321 16.2197 7.32653 16.0366 6.72985 15.855C6.6919 15.8435 6.653 15.8334 6.61384 15.8232C6.51616 15.7977 6.41681 15.7718 6.32627 15.7224C6.06106 15.5841 6.00917 15.3823 6.1706 15.1286C6.26285 14.9845 6.40122 14.898 6.54536 14.8288C6.83594 14.6858 7.14127 14.5723 7.44661 14.4589C7.52295 14.4305 7.59928 14.4021 7.67539 14.3733C8.68722 13.9842 9.69761 13.5935 10.708 13.2029C11.7184 12.8123 12.7288 12.4217 13.7407 12.0325C14.9948 11.5482 16.2504 11.0638 17.506 10.5794C18.7613 10.0952 20.0165 9.61098 21.2704 9.12674C21.3684 9.09215 21.4722 9.06332 21.5817 9.04602C22.0199 8.97684 22.2966 9.34583 22.3543 9.63987C22.4004 9.87049 22.3658 10.0953 22.3197 10.3202L21.3511 14.8691C21.0109 16.4835 20.6708 18.0978 20.3248 19.7121C20.1692 20.4614 20.0078 21.2107 19.8465 21.9599L19.8463 21.9607C19.8175 22.099 19.7713 22.2374 19.7079 22.3643C19.535 22.7044 19.264 22.8255 18.895 22.7275C18.7047 22.6756 18.5318 22.5949 18.3703 22.4796L14.8246 19.8505Z" fill="#53686A"/>
</svg>
