<?xml version="1.0" encoding="UTF-8"?>
<svg width="30px" height="30px" viewBox="0 0 30 30" version="1.1" xmlns="http://www.w3.org/2000/svg" xmlns:xlink="http://www.w3.org/1999/xlink">
    <!-- Generator: Sketch 57.1 (83088) - https://sketch.com -->
    <title>Icon_Medium</title>
    <desc>Created with Sketch.</desc>
    <g id="Symbols" stroke="none" stroke-width="1" fill="none" fill-rule="evenodd">
        <g id="Component/Footer" transform="translate(-1057.000000, -123.000000)" fill="#766D86">
            <path d="M1072.00003,123 C1080.28429,123 1086.99997,129.715685 1086.99997,138 C1086.99997,146.17945 1080.45323,152.829731 1072.31385,152.996782 L1071.99997,153 C1063.71571,153 1056.99997,146.284315 1056.99997,138 C1056.99997,129.82055 1063.54677,123.170269 1071.68615,123.003218 L1072.00003,123 Z M1068.66243,131.270563 L1063.91632,131.270563 L1063.91632,131.545598 L1065.44483,133.387002 C1065.59488,133.522259 1065.67153,133.720854 1065.65118,133.921813 L1065.65118,133.921813 L1065.65118,141.157464 C1065.69572,141.418474 1065.61343,141.685084 1065.42957,141.875615 L1065.42957,141.875615 L1063.70992,143.961488 L1063.70992,144.236574 L1068.58599,144.236574 L1068.58599,143.961488 L1066.86639,141.875615 C1066.68115,141.685392 1066.59377,141.420529 1066.62942,141.157464 L1066.62942,141.157464 L1066.62942,134.899793 L1070.90935,144.236574 L1071.40615,144.236574 L1075.08228,134.899793 L1075.08228,142.341693 C1075.08228,142.540341 1075.08228,142.57856 1074.95236,142.708474 L1074.95236,142.708474 L1073.63021,143.992053 L1073.63021,144.267139 L1080.05005,144.267139 L1080.05005,143.992053 L1078.77372,142.739039 C1078.66101,142.653149 1078.60512,142.511985 1078.62849,142.372259 L1078.62849,142.372259 L1078.62849,133.165392 C1078.60512,133.025717 1078.66101,132.884553 1078.77372,132.798663 L1078.77372,132.798663 L1080.08062,131.545598 L1080.08062,131.270563 L1075.55611,131.270563 L1072.33091,139.31606 L1068.66243,131.270563 Z" id="Icon_Medium"></path>
        </g>
    </g>
</svg>