<svg xmlns="http://www.w3.org/2000/svg" width="30" height="30" viewBox="0 0 30 30"><defs><style>.a{fill:#53686a;fill-rule:evenodd;}</style></defs><path class="a" d="M18.38,14.1a2.09,2.09,0,0,0,0,4.17,2.09,2.09,0,0,0,0-4.17Z" transform="translate(0)"/><path class="a" d="M11.47,14.1a2.09,2.09,0,0,0,0,4.17,2,2,0,0,0,1.93-2.09A2,2,0,0,0,11.47,14.1Z" transform="translate(0)"/><path class="a" d="M29.66,11.91a13,13,0,0,0-.87-2.73,16.52,16.52,0,0,0-1.92-3.3,11.11,11.11,0,0,0-1.29-1.53,15.2,15.2,0,0,0-4.92-3.22A14.81,14.81,0,0,0,15.18,0a12.31,12.31,0,0,0-1.32.05,14.67,14.67,0,0,0-2.19.34,16,16,0,0,0-3.92,1.5A13.87,13.87,0,0,0,3.16,5.81,15.29,15.29,0,0,0,0,14.46,14,14,0,0,0,.3,17.94,16.06,16.06,0,0,0,1.77,22,14.45,14.45,0,0,0,4.16,25.4,15.46,15.46,0,0,0,14.33,30a15,15,0,0,0,3.54-.27A15.38,15.38,0,0,0,22,28.26a13.91,13.91,0,0,0,4-3,15.59,15.59,0,0,0,3-4.84,14.83,14.83,0,0,0,1-4.65A14,14,0,0,0,29.66,11.91Zm-9.39,11s-.68-.81-1.25-1.51a6,6,0,0,0,3.43-2.24,10.78,10.78,0,0,1-2.18,1.12,13.38,13.38,0,0,1-7.65.79,14.72,14.72,0,0,1-2.78-.81,10,10,0,0,1-1.38-.65.91.91,0,0,1-.17-.09s-.06,0-.08,0c-.34-.19-.53-.32-.53-.32A5.92,5.92,0,0,0,11,21.34c-.56.72-1.26,1.55-1.26,1.55A6.87,6.87,0,0,1,4,20a25,25,0,0,1,2.73-11,9.33,9.33,0,0,1,5.3-2l.19.23a12.32,12.32,0,0,0-5,2.46s.41-.23,1.11-.53a14.66,14.66,0,0,1,4.3-1.19,1.87,1.87,0,0,1,.32,0,16.22,16.22,0,0,1,3.83,0,15.78,15.78,0,0,1,5.7,1.8,12.41,12.41,0,0,0-4.71-2.39l.26-.3a9.29,9.29,0,0,1,5.3,2,25,25,0,0,1,2.73,11A6.94,6.94,0,0,1,20.27,22.87Z" transform="translate(0)"/></svg>