<svg width="30" height="30" viewBox="0 0 30 30" fill="none" xmlns="http://www.w3.org/2000/svg">
<path fill-rule="evenodd" clip-rule="evenodd" d="M29.9412 14.9868C29.9477 6.58149 23.1499 -1.11462e-05 15.0071 0.00659678C6.87082 -1.11462e-05 0.0796125 6.56166 0.0664257 14.9603C0.0532389 23.2863 6.74555 29.9339 14.9543 29.9537C23.2027 29.9802 29.9412 23.3326 29.9412 14.9868ZM10.7214 15.641V12.6608C10.7609 12.641 10.7939 12.6476 10.8466 12.6608H13.1609C13.2499 12.6608 13.2944 12.6608 13.3167 12.6385C13.339 12.6162 13.339 12.5716 13.339 12.4824V10.6586C13.3346 10.4559 13.3419 10.2533 13.3492 10.0507C13.3529 9.94934 13.3565 9.84801 13.3587 9.74668C13.3587 9.70704 13.3653 9.66739 13.3851 9.62774C13.3876 9.62028 13.391 9.61375 13.3943 9.60746C13.3998 9.59703 13.4049 9.58724 13.4049 9.57488C13.3914 9.471 13.4179 9.3733 13.4445 9.27544C13.4568 9.23012 13.4691 9.18477 13.4774 9.13875C13.4906 9.05285 13.5104 8.96034 13.5565 8.87444C13.5795 8.83309 13.5928 8.78536 13.6055 8.74011C13.611 8.72028 13.6164 8.70093 13.6225 8.68281C13.7082 8.43831 13.8269 8.22025 13.9587 8.0088C14.117 7.75109 14.3082 7.52642 14.5324 7.32818C14.7631 7.12334 15.0137 6.95814 15.284 6.81937C15.4422 6.74008 15.6005 6.68061 15.7653 6.62113C15.8225 6.60351 15.8855 6.58589 15.9485 6.56827C15.98 6.55946 16.0115 6.55065 16.0422 6.54184C16.1043 6.52006 16.1679 6.51147 16.2308 6.50295C16.3016 6.49338 16.3716 6.48391 16.4379 6.45594C16.4708 6.44272 16.5038 6.43611 16.5368 6.43611C16.7016 6.43611 16.8664 6.4229 17.0313 6.39646C17.2027 6.37003 17.3807 6.37664 17.5521 6.39646C17.7302 6.41629 17.9082 6.4295 18.0862 6.4295C18.2774 6.43611 18.462 6.43611 18.6532 6.43611C18.7126 6.43611 18.7719 6.43611 18.8247 6.44933C18.9634 6.48023 19.1022 6.48303 19.2441 6.48589C19.2842 6.4867 19.3246 6.48752 19.3653 6.48898C19.3787 6.49122 19.3929 6.49194 19.4076 6.49268C19.4362 6.49414 19.4667 6.49569 19.4972 6.5088V9.20483C19.4673 9.22479 19.4337 9.22215 19.402 9.21965C19.3917 9.21884 19.3816 9.21805 19.3719 9.21805H17.7368C17.6379 9.21805 17.539 9.21805 17.4466 9.2577C17.4308 9.26563 17.415 9.26642 17.3992 9.26721C17.3886 9.26774 17.3781 9.26827 17.3675 9.27091C17.0313 9.31717 16.7477 9.46254 16.5499 9.74668C16.4708 9.85241 16.4313 9.97796 16.3917 10.1035C16.3314 10.2898 16.3324 10.4761 16.3333 10.6624C16.3336 10.7206 16.3339 10.7788 16.3324 10.837C16.3225 11.2486 16.3237 11.6638 16.3249 12.0772C16.3254 12.2148 16.3258 12.3521 16.3258 12.489V12.5484C16.3324 12.641 16.339 12.6476 16.4247 12.6542H16.4708H19.1741C19.1805 12.6542 19.1871 12.6539 19.1939 12.6537C19.2226 12.6526 19.2555 12.6514 19.2928 12.6674C19.2738 12.7101 19.2719 12.7529 19.2699 12.7981C19.2691 12.8158 19.2683 12.8338 19.2664 12.8524C19.2664 12.9515 19.2664 13.0506 19.2269 13.1432C19.2203 13.1498 19.2203 13.1564 19.2203 13.163C19.2239 13.272 19.2056 13.381 19.1873 13.4901C19.1723 13.5793 19.1573 13.6685 19.1543 13.7577C19.1533 13.773 19.1523 13.7882 19.1514 13.8035C19.1468 13.8806 19.1423 13.9569 19.1148 14.0286C19.0928 14.0837 19.0937 14.1433 19.0946 14.2037C19.0948 14.2158 19.095 14.2279 19.095 14.2401C19.095 14.3194 19.095 14.3921 19.062 14.4714C19.04 14.5265 19.041 14.5863 19.0419 14.643C19.0421 14.6542 19.0422 14.6653 19.0422 14.6762L19.0417 14.6825C19.0353 14.76 19.0284 14.8435 19.0027 14.9207C18.9829 14.9934 18.9829 15.0661 18.9829 15.1453V15.1454C18.9829 15.2247 18.9829 15.2973 18.9499 15.37C18.9376 15.4031 18.9381 15.4361 18.9386 15.4692C18.9389 15.489 18.9392 15.5088 18.9368 15.5286C18.9346 15.5418 18.9346 15.5558 18.9346 15.57C18.9346 15.5984 18.9346 15.6277 18.917 15.6542C18.8864 15.6629 18.853 15.6601 18.8186 15.6572C18.801 15.6557 18.7832 15.6542 18.7653 15.6542H16.5038C16.339 15.6542 16.3324 15.6608 16.3324 15.826V20.7225V23.3656C16.3324 23.3723 16.3326 23.3788 16.3329 23.3851C16.3339 23.41 16.3349 23.4332 16.3192 23.4647H13.339C13.3192 23.4351 13.3216 23.4018 13.3241 23.3675C13.3249 23.3559 13.3258 23.3443 13.3258 23.3326V19.5396V15.8392V15.7599C13.3192 15.6938 13.2796 15.6608 13.2137 15.6542H13.1346H10.8598C10.8483 15.6542 10.8368 15.655 10.8252 15.6558C10.7906 15.6583 10.756 15.6608 10.7214 15.641Z" fill="#53686A"/>
</svg>
