<svg width="30" height="30" viewBox="0 0 30 30" fill="none" xmlns="http://www.w3.org/2000/svg">
<path fill-rule="evenodd" clip-rule="evenodd" d="M15 0C6.7125 0 0 6.71023 0 14.9949C0 21.6302 4.29375 27.2345 10.2563 29.2214C11.0063 29.3526 11.2875 28.9027 11.2875 28.5091C11.2875 28.153 11.2688 26.9721 11.2688 25.7163C7.5 26.4098 6.525 24.7979 6.225 23.9544C6.05625 23.5233 5.325 22.1925 4.6875 21.8364C4.1625 21.5552 3.4125 20.8617 4.66875 20.8429C5.85 20.8242 6.69375 21.9301 6.975 22.3799C8.325 24.6479 10.4812 24.0106 11.3438 23.617C11.475 22.6423 11.8688 21.9863 12.3 21.6114C8.9625 21.2366 5.475 19.9432 5.475 14.2077C5.475 12.577 6.05625 11.2274 7.0125 10.1778C6.8625 9.80293 6.3375 8.26595 7.1625 6.20415C7.1625 6.20415 8.41875 5.81053 11.2875 7.74113C12.4875 7.40374 13.7625 7.23505 15.0375 7.23505C16.3125 7.23505 17.5875 7.40374 18.7875 7.74113C21.6563 5.79179 22.9125 6.20415 22.9125 6.20415C23.7375 8.26595 23.2125 9.80293 23.0625 10.1778C24.0188 11.2274 24.6 12.5582 24.6 14.2077C24.6 19.962 21.0938 21.2366 17.7563 21.6114C18.3 22.08 18.7687 22.9797 18.7687 24.3855C18.7687 26.3911 18.75 28.003 18.75 28.5091C18.75 28.9027 19.0312 29.3713 19.7812 29.2214C25.7063 27.2345 30 21.6114 30 14.9949C30 6.71023 23.2875 0 15 0Z" fill="#53686A"/>
</svg>
