<svg width="30" height="30" viewBox="0 0 30 30" fill="none" xmlns="http://www.w3.org/2000/svg">
<path fill-rule="evenodd" clip-rule="evenodd" d="M14.3235 29.9953H15.6693C15.9786 29.9695 16.288 29.9437 16.6025 29.9076C18.9846 29.655 21.1914 28.8868 23.1868 27.5616C26.5331 25.3394 28.6832 22.2664 29.6164 18.3529C30.0392 16.5586 30.1062 14.7385 29.8484 12.9133C29.0028 6.93225 24.713 2.07524 18.8815 0.512957C16.9273 -0.0129607 14.9423 -0.136706 12.9366 0.152033C9.38403 0.657327 6.38836 2.23508 3.9547 4.86467C2.03664 6.93741 0.814657 9.37622 0.273271 12.1502C0.14437 12.8205 0.0567167 13.4959 0.0257803 14.1817C0.0213684 14.2258 0.0131815 14.2661 0.00444972 14.3092C0.00297681 14.3164 0.00148841 14.3238 0 14.3312V15.6769C0.0161488 15.8357 0.0308926 15.9959 0.0456982 16.1568C0.0592559 16.3041 0.0728654 16.452 0.087653 16.5999C0.309364 18.7242 0.953871 20.7196 2.04696 22.5603C3.86704 25.6384 6.46054 27.8091 9.80682 29.0724C11.2041 29.5983 12.653 29.8922 14.1431 29.9695C14.1599 29.9709 14.1768 29.9712 14.1935 29.9714C14.2383 29.9721 14.2823 29.9728 14.3235 29.9953ZM11.0701 16.4246C9.61605 15.9863 8.84264 15.0273 8.73436 13.4804C9.16747 13.7073 9.58511 13.8362 10.0698 13.8517C9.32215 13.2948 8.88389 12.5884 8.79108 11.6861C8.72405 11.0519 8.87358 10.3971 9.17779 9.92277C10.7659 11.7893 12.7767 12.8205 15.2362 13.0009C15.2543 12.8992 15.2366 12.8077 15.2192 12.7175C15.2119 12.6796 15.2046 12.642 15.2001 12.6039C15.0351 11.0004 16.2519 9.52059 17.8554 9.38653C18.7681 9.30919 19.5569 9.58762 20.2118 10.2218C20.2942 10.3043 20.3716 10.2888 20.4592 10.2682C21.0058 10.1393 21.5265 9.94339 22.0215 9.67012C22.0576 9.64949 22.0989 9.62887 22.1659 9.59793C21.9339 10.2785 21.5265 10.7838 20.9181 11.1963C21.0592 11.2006 21.1719 11.1765 21.2798 11.1535C21.3021 11.1487 21.3241 11.144 21.3461 11.1396C21.4801 11.1087 21.6142 11.0777 21.7483 11.0416C21.8772 11.0055 22.0112 10.9643 22.1401 10.9179C22.2426 10.8837 22.3487 10.8425 22.4729 10.7941C22.4987 10.7841 22.5252 10.7738 22.5526 10.7632C22.2793 11.1705 21.9906 11.5057 21.6606 11.8099C21.5111 11.9491 21.3512 12.078 21.1914 12.2017C21.1244 12.2533 21.0934 12.31 21.0934 12.4028C21.1295 14.9551 20.2221 17.1258 18.3865 18.8943C17.1903 20.0441 15.7363 20.7144 14.0915 20.9619C12.5189 21.1991 10.9927 21.0444 9.51809 20.4411C9.06951 20.2607 8.64156 20.039 8.23938 19.7657C9.81714 19.8894 11.2402 19.5079 12.5395 18.5231C11.7816 18.4818 11.1474 18.2292 10.6163 17.7497C10.2348 17.4042 9.96151 16.9866 9.79136 16.471C10.2245 16.5431 10.6421 16.5431 11.0701 16.4246Z" fill="#53686A"/>
</svg>
