<svg width="233" height="294" viewBox="0 0 233 294" fill="none" xmlns="http://www.w3.org/2000/svg">
    <g opacity="0.15">
    <ellipse rx="111.43" ry="32.9884" transform="matrix(-1 0 0 1 121.555 260.908)" fill="black" style="mix-blend-mode:multiply"/>
    </g>
    <path d="M45.5469 150.015C43.8039 147.401 29.1358 125.94 13.2906 128.181C11.774 128.397 7.33166 129.026 4.80209 132.49C0.577649 138.279 4.72004 147.843 7.63159 152.313C14.0291 162.133 25.3414 164.009 28.004 164.38" stroke="#8C8C8C" stroke-width="5"/>
    <path d="M19.1203 140.669L16.3088 144.324L61.2929 253.223C65.3364 254.49 64.9977 252.107 66.7285 252.192L22.4941 147.136L43.393 157.445L44.8925 153.227L19.1203 140.669Z" fill="#444444"/>
    <path d="M12.7623 185.663C13.0346 185.422 13.061 185.071 13.1443 184.755C13.4491 183.598 14.0921 182.692 15.0409 181.965C16.4021 180.92 17.8619 180.154 19.5878 179.872C20.8607 179.668 22.0776 179.898 23.3007 180.09C26.0374 180.517 28.3799 181.879 30.6503 183.361C31.3015 183.784 31.9354 184.236 32.5804 184.667C34.1367 185.71 35.115 187.268 36.2162 188.718C37.1139 189.907 38.183 190.957 39.3886 191.832C40.1495 192.383 41.014 192.635 41.9343 192.74C42.4737 192.802 42.8425 192.594 43.0518 192.082C43.2742 191.547 43.45 191.012 43.4205 190.418C43.261 187.194 44.9839 184.999 47.429 183.241C48.5282 182.451 50.4766 182.744 51.661 183.803C52.0586 184.17 52.4252 184.569 52.7571 184.997C53.3473 185.733 53.4967 186.536 53.1635 187.458C52.554 189.146 52.3305 190.913 52.1232 192.692C51.8723 194.845 52.1232 196.928 52.5438 199.011C53.6744 204.589 56.9018 208.498 62.0684 210.82C64.2617 211.793 66.5884 212.432 68.971 212.716C71.216 212.999 73.4174 212.781 75.6167 212.462C78.6794 212.019 81.6183 211.156 84.3326 209.617C86.4578 208.414 88.4163 206.968 90.3484 205.489C92.4685 203.863 94.5591 202.206 96.6467 200.549C97.1485 200.152 97.6066 199.7 98.0841 199.274C98.1857 199.375 98.2548 199.514 98.1938 199.637C97.4207 201.223 96.9748 202.984 95.7029 204.311C94.7064 204.772 93.9293 205.544 93.0618 206.191C90.2468 208.299 87.4909 210.477 84.3123 212.065C81.0413 213.698 77.5783 214.416 73.9812 214.808C70.1301 215.228 66.4111 214.808 62.8018 213.474C55.1362 210.64 50.8738 205.186 50.0438 197.002C49.7137 193.742 50.1017 190.601 50.8331 187.451C50.9418 186.983 51.2628 186.42 50.6625 186.078C50.0997 185.756 49.545 185.976 49.0635 186.351C48.1635 187.056 47.9146 188.072 47.7805 189.129C47.7094 189.634 47.7047 190.146 47.7663 190.653C48.0843 192.945 46.1277 195.462 43.45 195.788C42.9818 195.855 42.5043 195.8 42.0633 195.629C38.7273 194.324 35.9815 192.266 33.9468 189.299C32.8557 187.71 31.4366 186.493 29.8346 185.438C27.2097 183.703 24.4953 182.241 21.2792 181.974C20.4665 181.906 19.6823 181.928 19.1906 182.672C18.6827 183.448 18.9377 184.243 19.3582 184.971C19.6833 185.533 20.1902 185.949 20.6676 186.379C22.0512 187.626 22.3275 188.67 21.5392 190.342C21.0201 191.444 20.6331 192.496 21.0313 193.741C21.6022 195.542 21.9182 197.449 23.4826 198.764C23.8259 199.052 24.1865 199.334 24.6152 199.418C26.3767 199.762 27.3722 201.024 28.2855 202.398C29.4466 204.146 30.6219 205.878 32.0695 207.417C33.3362 208.766 34.6934 209.95 36.4975 210.53C37.5276 210.863 38.5434 211.242 39.5827 211.546C41.6428 212.148 43.3697 213.288 44.9402 214.723C46.8703 216.493 48.3941 218.622 50.0905 220.595C52.426 223.334 55.2949 225.569 58.522 227.163C58.8268 227.313 59.1468 227.432 59.4363 227.608C62.1415 229.268 65.0499 229.587 68.136 229.066C72.6535 228.303 76.9495 226.946 80.8757 224.547C82.9328 223.292 84.4545 221.453 85.9376 219.612C88.2294 216.767 90.6217 213.996 92.6178 210.92C92.7875 210.66 92.9226 209.796 93.5849 210.529C93.6784 211.262 93.3817 211.928 93.2111 212.61C92.1678 216.732 91.6122 220.931 91.6985 225.165C91.8295 231.582 92.6534 237.93 94.9492 243.967C95.5912 245.653 96.154 247.405 97.0825 248.991C97.501 249.702 97.9652 249.866 98.7505 249.621C102.929 248.323 107.228 247.579 111.55 246.951C116.135 246.283 120.764 246.043 125.366 245.52C126.442 245.397 127.237 244.954 127.934 244.104C130.473 241.006 132.818 237.786 134.5 234.129C136.182 230.471 137.561 226.686 138.517 222.761C138.909 221.151 139.377 219.56 139.885 217.986C140.865 214.43 141.802 210.874 142.933 207.361C145.215 200.293 148.194 193.579 153.139 187.919C155.424 185.302 158.138 183.231 161.603 182.438C164.802 181.708 167.861 182.164 170.653 183.962C174.784 186.621 177.799 190.219 179.699 194.755C181.103 198.115 181.895 201.636 182.468 205.221C182.742 207.605 182.85 209.996 182.935 212.397C183.053 215.944 182.945 219.494 182.612 223.027C182.348 225.923 181.967 228.807 181.348 231.651C180.173 237.045 178.881 242.385 176.292 247.344C175.045 249.732 174.269 252.356 172.807 254.66C170.572 258.178 168.046 261.482 165.416 264.708C162.828 267.642 159.839 270.113 156.601 272.295C155.983 272.71 155.411 273.19 154.784 273.594C153.247 274.62 151.659 275.562 150.073 276.51C149.143 277.067 148.143 277.469 147.127 277.826C146.233 278.123 145.367 278.497 144.538 278.944C141.105 280.27 137.485 281.047 133.81 281.246C133.675 281.254 133.543 281.253 133.435 281.348H127.544C125.945 281.099 124.321 281.211 122.717 281.033C118.715 280.587 114.724 280.029 110.814 279.075C108.721 278.567 106.795 277.484 104.759 276.754C103.026 275.752 101.156 275.027 99.3021 274.316C93.0039 271.922 86.667 269.658 80.2388 267.645C79.5886 267.442 78.9964 267.113 78.392 266.81C78.2989 266.77 78.2083 266.723 78.1207 266.672C77.944 266.578 77.7642 266.487 77.5803 266.405C76.0961 265.807 74.6029 265.238 73.0892 264.719C72.7276 264.596 72.2766 264.543 72.175 264.05C72.3477 263.293 72.9633 262.881 73.4956 262.441C76.6894 259.824 80.0925 257.515 83.59 255.311C86.0027 253.787 88.3716 252.269 91.0971 251.369C91.5746 251.211 92.0601 251.097 92.5457 250.975C92.6727 250.928 92.5244 250.772 92.5874 250.894C92.5985 250.916 92.5721 250.939 92.5051 250.953C90.7294 251.315 88.9354 251.186 87.1556 251.077C84.1579 250.893 81.1703 250.569 78.1796 250.301C74.807 250.002 71.5167 249.233 68.2762 248.225C63.8176 246.838 59.6273 244.938 55.8605 242.156C54.3601 241.003 52.878 239.819 51.3797 238.666C48.1066 235.58 44.8325 232.49 42.3559 228.687C40.7671 226.248 39.027 223.917 37.3356 221.552C35.7103 219.276 33.6643 217.408 31.0699 216.231C27.5723 214.645 24.5807 212.288 21.8257 209.702C19.9261 207.918 18.2469 205.83 17.7095 203.085C17.4931 201.975 16.8085 201.062 15.9074 200.335C13.2022 198.156 12.5744 195.325 14.087 192.191C14.1802 191.973 14.2871 191.762 14.407 191.558C14.855 190.865 14.8611 190.297 14.1439 189.729C13.256 189.018 12.9625 187.962 12.7461 186.892L12.7623 185.663Z" fill="#9796B1"/>
    <path d="M137.102 0C137.828 0.64721 137.883 1.52404 137.666 2.33687C137.244 3.90257 137.378 5.48656 137.292 7.06242C137.099 10.5718 137.081 14.0842 137.106 17.5966C137.12 19.4519 137.48 21.2695 137.79 23.0913C138.161 25.2747 138.519 27.4602 138.947 29.6345C139.394 31.9104 139.887 34.1772 140.411 36.4419C141.262 40.1159 142.278 43.7451 143.458 47.3297C144.357 50.0476 145.357 52.737 146.404 55.4051C147.937 59.2965 149.609 63.1269 151.22 66.9878C152.678 70.4748 154.118 73.9659 155.26 77.5707C155.958 79.8195 156.481 82.1188 156.824 84.4482C157.279 87.412 157.479 90.4095 157.421 93.4076C157.395 94.7569 157.17 96.0818 157.043 97.4189C156.797 100.008 156.23 102.532 155.574 105.033C154.955 107.378 154.202 109.683 153.357 111.961C152.608 113.981 151.81 115.979 150.963 117.956C150.261 119.602 149.422 121.181 148.637 122.785C148.458 123.149 148.237 123.496 148.267 123.926C147.271 123.52 146.54 122.454 146.642 121.54C147.941 119.699 148.766 117.618 149.624 115.559C151.621 110.773 153.281 105.878 154.351 100.787C155.92 93.3314 155.454 85.9926 153.328 78.7178C151.918 73.8948 149.885 69.3125 147.904 64.7129C143.908 55.4335 140.324 46.018 138.125 36.1249C136.875 30.5073 135.678 24.8673 135.086 19.144C134.767 16.0654 134.838 12.9259 135.142 9.8189C135.182 9.41249 135.186 9.00608 135.193 8.59967C135.224 6.74135 135.112 4.88303 135.295 2.92311C134.271 3.43113 133.516 4.14235 132.755 4.85357C129.65 7.73808 127.45 11.2342 125.795 15.1094C123.56 20.3521 121.672 25.7045 120.573 31.315C119.964 34.4444 119.557 37.6144 119.545 40.7844C119.522 46.0408 120.347 51.2664 121.989 56.2595C122.05 56.4475 122.091 56.6588 122.385 56.7676C123.122 56.2595 123.952 55.8155 124.686 55.2283C125.405 54.6542 125.601 53.8556 125.644 52.9717C125.758 50.457 125.378 47.9769 125.157 45.4856C124.839 42.107 125.232 38.6993 126.311 35.4818C126.494 34.8981 126.785 34.3539 127.169 33.8774C127.988 32.901 129.064 32.836 130.013 33.6834C130.623 34.231 130.899 34.9504 131.08 35.7154C131.492 37.4661 131.707 39.2522 131.846 41.0364C132.275 46.5229 133.753 51.7331 135.669 56.8682C137.967 63.0294 140.678 69.0026 143.491 74.9331C145.274 78.6925 146.419 82.6468 147.308 86.6896C148.129 90.4255 148.976 94.1645 149.261 97.9858C149.468 100.787 149.454 103.6 149.218 106.399C148.876 110.498 147.999 114.491 146.983 118.461C146.78 119.247 146.577 120.034 146.206 120.764C145.945 121.086 145.67 120.976 145.427 120.757C144.015 119.466 142.492 118.302 140.875 117.279C140.65 117.14 140.46 116.927 140.532 116.609C140.858 116.007 140.952 115.351 140.957 114.678C140.968 113.459 140.981 112.24 140.957 111.02C140.929 109.7 140.474 108.448 140.288 107.15C139.905 104.478 139.031 101.924 138.327 99.327C137.904 97.7745 137.253 96.2789 136.642 94.7853C135.728 92.5409 134.871 90.2579 133.773 88.1029C132.344 85.3007 130.917 82.4975 129.533 79.6699C128.361 77.2802 127.292 74.8387 126.2 72.4103C125.223 70.235 124.256 68.0546 123.322 65.859C122.559 64.0627 121.798 62.2612 121.136 60.4263C120.343 58.2428 119.569 56.0462 119.025 53.7825C118.452 51.3979 117.974 48.999 117.76 46.5423C117.676 45.5669 117.606 44.5966 117.604 43.6202C117.604 42.976 117.348 42.3745 117.384 41.7171C117.524 39.1984 117.64 36.6858 117.961 34.1762C118.327 31.4448 118.865 28.7395 119.574 26.0764C120.339 23.135 121.358 20.285 122.464 17.4513C123.239 15.469 124.089 13.5172 125.026 11.6152C125.929 9.76486 127.033 8.01964 128.319 6.41114C129.065 5.48554 129.926 4.68389 130.723 3.81011C132.19 2.22808 133.94 0.935631 135.883 0H137.102Z" fill="#E8E3EC"/>
    <path d="M232.998 250.259C232.627 250.715 232.822 251.295 232.654 251.811C231.929 254.038 230.74 255.965 229.153 257.674C226.089 260.973 222.347 263.299 218.354 265.271C211.383 268.718 203.993 270.961 196.463 272.781C191.776 273.916 187.037 274.801 182.283 275.595C179.891 275.994 177.483 276.292 175.081 276.624C174.812 276.643 174.543 276.643 174.274 276.624C174.064 276.097 174.523 275.986 174.815 275.835C177.933 274.223 180.974 272.482 183.964 270.647C184.311 270.433 184.675 270.254 184.897 269.898C186.8 269.295 188.786 269.085 190.727 268.663C195.712 267.586 200.642 266.314 205.505 264.779C205.891 264.657 206.268 264.507 206.642 264.353C212.406 262.423 217.965 260.074 222.841 256.341C223.377 255.929 223.879 255.473 224.342 254.98C225.059 254.262 225.803 253.579 226.373 252.725C228.452 249.625 228.344 246.806 226.069 243.829C225.053 242.494 223.822 241.4 222.505 240.389C219.641 238.189 216.453 236.547 213.165 235.106C208.885 233.228 204.456 231.753 199.947 230.524C199.439 230.385 198.869 230.33 198.508 229.851C198.101 228.429 197.908 226.968 197.673 225.514C197.619 225.181 197.5 224.749 198.038 224.629C204.043 226.103 209.93 227.939 215.589 230.442C219.332 232.099 222.94 234.018 226.18 236.549C228.487 238.351 230.463 240.462 231.807 243.098C232.345 244.153 232.803 245.241 232.823 246.457C232.822 246.525 232.837 246.591 232.867 246.652C232.896 246.712 232.94 246.765 232.994 246.806L232.998 250.259Z" fill="#B88DFC"/>
    <path d="M140.123 217.955C139.864 218.897 139.585 219.833 139.35 220.781C138.329 224.915 137.084 228.978 135.389 232.888C133.94 236.244 132.049 239.39 129.765 242.243C129.195 242.954 128.563 243.622 128.066 244.381C127.424 245.36 126.523 245.702 125.425 245.799C122.541 246.051 119.659 246.333 116.777 246.611C114.063 246.875 111.354 247.194 108.668 247.655C106.545 248.021 104.425 248.419 102.329 248.938C100.739 249.331 99.1392 249.683 97.587 250.242C96.6829 248.998 96.052 247.746 95.7077 246.359C95.6168 245.933 95.4276 245.533 95.155 245.192C94.6664 244.605 94.5902 243.831 94.3495 243.136C93.5716 240.871 92.9742 238.547 92.5626 236.188C92.2213 234.264 91.9236 232.338 91.7652 230.387C91.5935 228.268 91.3649 226.152 91.4279 224.027C91.56 219.633 92.1309 215.297 93.3347 211.059C93.3895 210.865 93.419 210.663 93.4596 210.465C93.4107 209.93 93.4909 209.39 93.6932 208.892C94.2946 207.289 94.7264 205.615 95.6609 204.15C96.629 202.829 97.1248 201.255 97.9171 199.839C98.0187 199.664 98.1071 199.486 98.0908 199.275C99.2428 197.592 100.395 195.91 101.646 194.086C100.224 193.841 99.2083 193.029 98.0329 192.534C96.8982 192.056 95.8925 191.27 94.8371 190.604C91.9013 188.765 89.319 186.499 86.9805 183.961C86.069 182.965 85.2868 181.857 84.6522 180.665C83.23 178.012 82.0446 175.28 81.3721 172.31C81.0064 170.696 80.8641 169.072 80.5899 167.459C80.3522 166.049 80.4649 164.648 80.4598 163.252C80.4695 161.807 80.6247 160.367 80.9231 158.953C81.1671 157.69 81.7851 156.53 82.6967 155.623C83.9564 154.36 85.1022 152.981 86.2928 151.652C86.8363 151.043 87.4844 150.558 88.1061 150.041C89.9346 148.517 90.6071 146.353 91.3741 144.224C92.0445 142.364 92.7749 140.526 93.6028 138.722C94.2753 137.256 95.2556 136.033 96.2572 134.819C97.0183 133.92 97.9329 133.163 98.9584 132.584C99.3881 132.333 99.7172 131.914 100.133 131.632C101.25 130.877 102.382 130.156 103.505 129.417C103.609 129.335 103.705 129.244 103.792 129.144C104.38 128.422 105.299 128.23 106.027 127.736C107.042 127.351 108.092 127.076 109.115 126.714C113.086 125.495 117.14 125.292 121.266 125.564C124.903 125.804 128.141 127.239 131.395 128.667C131.994 128.915 132.507 129.333 132.872 129.869C135.276 133.485 136.62 137.427 136.569 141.804C136.563 142.362 136.457 142.877 136.122 143.334C135.301 144.452 134.467 145.563 133.69 146.713C133.555 146.917 133.385 147.079 133.132 147.12C132.25 145.988 131.818 144.627 131.288 143.329C130.528 141.443 129.505 139.675 128.247 138.077C125.809 134.999 122.593 133.099 118.901 131.899C115.89 130.921 112.797 130.483 109.647 130.202C108.079 130.063 106.813 130.445 105.514 131.145C103.482 132.238 101.459 133.38 99.6776 134.818C97.6682 136.443 96.1536 138.505 95.1276 140.948C94.0518 143.507 93.3865 146.219 92.1217 148.704C91.7362 149.456 91.2328 150.143 90.6305 150.736C88.4505 152.911 86.2857 155.096 84.2561 157.419C83.1457 158.69 82.7709 160.108 82.712 161.694C82.5088 167.066 83.6069 172.22 85.6996 177.118C87.0527 180.285 89.2885 182.9 91.8383 185.24C94.8635 188.016 98.1944 190.32 102.028 191.787C105.432 193.091 108.821 194.453 112.473 195.016C117.287 195.757 121.882 195.282 126.336 193.209C129.165 191.888 132.037 190.669 134.449 188.648C136.103 187.263 137.937 186.064 139.223 184.271C139.438 183.972 139.703 183.705 139.797 183.383C139.751 183.089 139.552 183.004 139.372 182.925C135.957 181.425 134.126 178.48 132.419 175.397C130.968 172.775 130.582 169.91 130.338 166.995C130.303 166.589 130.19 166.193 130.183 165.788C130.177 165.441 130.067 165.008 130.602 164.901C130.94 165.127 131.008 165.511 131.142 165.85C132.679 169.915 135.114 173.351 138.714 175.766C142.119 178.05 145.948 178.667 149.966 177.588C151.562 177.159 153.194 176.817 154.639 175.943C154.724 175.885 154.821 175.85 154.923 175.841C155.025 175.831 155.128 175.847 155.222 175.888C155.567 176.396 155.468 176.936 155.304 177.45C153.313 183.726 150.417 189.51 145.685 194.184C139.628 200.168 132.865 205.225 125.182 208.96C120.322 211.325 115.181 212.562 109.742 212.101C105.935 211.779 102.314 210.636 98.7471 209.318C98.6201 209.271 98.7806 209.326 98.6526 209.282C96.0784 208.367 96.4523 208.062 95.6203 210.749C94.7589 213.533 94.1026 216.372 93.8934 219.283C93.6831 222.28 94.8391 224.993 95.794 227.738C96.2715 229.11 96.8027 230.452 97.587 231.7C99.8716 235.346 103.174 237.503 107.298 238.459C109.215 238.903 111.144 238.515 113.042 238.198C117.436 237.464 121.752 236.47 125.552 233.972C128.383 232.115 130.726 229.774 132.696 227.008C133.469 225.923 134.456 224.976 135.298 223.915C136.63 222.244 137.692 220.389 138.975 218.687C139.252 218.335 139.428 217.71 140.123 217.955Z" fill="#E8E3EC"/>
    <path d="M114.352 116.816C114.188 116.171 113.579 115.979 113.109 115.722C110.89 114.51 108.628 113.376 106.263 112.47C104.784 111.906 103.273 111.425 101.765 110.94C98.7775 109.979 95.8884 108.785 93.0349 107.486C90.3023 106.237 87.5818 104.957 84.9681 103.487C81.9982 101.827 79.1162 100.016 76.3334 98.0589C74.3515 96.6568 72.4305 95.1785 70.4913 93.7246C69.3617 92.8772 68.3702 91.848 67.2609 90.9711C65.6863 89.7285 64.3332 88.2593 62.9517 86.8267C59.6212 83.3828 56.6968 79.5681 54.2357 75.4574C52.0822 71.8535 50.2181 68.1003 48.4089 64.3217C47.2315 61.8629 46.2817 59.3005 45.4213 56.7015C44.4538 53.796 43.7018 50.8232 43.1712 47.8072C42.9121 46.3207 42.7648 44.816 42.5972 43.3143C42.3931 41.3317 42.3446 39.3363 42.452 37.3461C42.5535 35.1962 42.8512 33.0707 43.9056 31.1057C44.4806 30.0327 45.9048 29.2362 47.4093 30.2146C49.441 31.5355 50.8946 33.3816 52.1086 35.4279C53.5409 37.844 54.7254 40.3932 55.9485 42.918C57.3838 45.8808 59.2398 48.559 61.1973 51.1885C62.7831 53.3222 64.6685 55.1652 66.6067 56.9402C69.7074 59.7927 73.0112 62.4163 76.4919 64.7901C78.7267 66.305 81.0317 67.7071 83.2411 69.2606C84.9264 70.4412 86.695 71.4959 88.4361 72.5861C89.9762 73.5483 91.4563 74.609 93.0074 75.5509C95.6222 77.1409 98.2776 78.665 100.909 80.2246C102.91 81.4133 104.89 82.6366 106.902 83.8112C108.915 84.9857 110.945 86.1084 112.961 87.2657C115.824 88.9137 118.579 90.7202 121.158 92.7959C122.576 93.9398 123.926 95.1665 125.2 96.4699C127.189 98.5019 128.843 100.802 130.38 103.176C131.398 104.772 132.301 106.439 133.081 108.163C134.171 110.529 135.012 112.975 135.473 115.546C135.491 115.567 135.506 115.592 135.515 115.619C135.523 115.647 135.527 115.675 135.524 115.704C135.522 115.732 135.514 115.76 135.501 115.785C135.488 115.81 135.469 115.833 135.447 115.851C134.838 116.155 134.205 116.091 133.572 115.935C133.472 115.891 133.387 115.818 133.328 115.726C131.968 109.416 128.846 104.017 124.703 99.1583C121.275 95.1409 117.041 92.1243 112.506 89.506C108.169 87.0025 103.856 84.4584 99.5363 81.9244C95.0117 79.2695 90.5207 76.5608 86.1271 73.7057C80.7929 70.2421 75.3755 66.8912 70.348 62.9775C67.9097 61.0962 65.586 59.0707 63.3895 56.9118C59.8137 53.3659 56.8759 49.3129 54.5273 44.8495C53.0472 42.0341 51.7906 39.1018 50.1592 36.3657C49.3079 34.9361 48.3103 33.6153 46.9674 32.5921C46.1141 31.9419 45.85 32.0069 45.4172 33.0158C44.7701 34.5399 44.5903 36.1655 44.5283 37.781C44.3546 42.2485 44.9509 46.6357 45.9922 50.9609C47.3382 56.5491 49.4887 61.8324 52.0964 66.9522C53.9411 70.5733 55.8022 74.1812 58.1264 77.526C59.7111 79.807 61.4066 82.0026 63.3296 84.0123C63.9391 84.6484 63.9563 84.6291 64.7446 84.7053C64.8737 84.1526 64.5252 83.738 64.2987 83.3204C61.944 78.9667 60.3714 74.3347 59.3942 69.5024C59.1209 68.1521 58.8995 66.7846 59.2855 65.3865C59.7934 63.5576 61.3456 62.8789 62.9679 63.8736C63.5498 64.2225 64.0818 64.6483 64.5496 65.1396C69.9275 70.9015 76.4776 75.0865 83.2137 79.0277C87.3898 81.4662 91.6676 83.7502 95.7319 86.3756C100.061 89.1728 103.96 92.5551 107.938 95.8074C112.499 99.5312 116.82 103.529 121.053 107.619C123.078 109.577 124.538 111.923 125.649 114.495C125.803 114.851 126.067 115.25 125.547 115.559C124.006 115.732 122.454 115.746 120.914 115.917C119.167 116.111 117.454 116.494 115.733 116.809C115.276 116.886 114.813 117.092 114.352 116.816Z" fill="#E8E3EC"/>
    <path d="M114.353 116.816C117.118 116.277 119.869 115.651 122.694 115.495C123.701 115.441 124.71 115.435 125.718 115.408C125.795 115.317 125.889 115.243 125.996 115.191C126.102 115.138 126.218 115.109 126.337 115.103C128.444 115.109 130.56 114.831 132.65 115.314C132.924 115.39 133.19 115.492 133.445 115.619C134.46 115.619 134.867 115.619 135.679 115.721C136.358 115.706 137.037 115.74 137.711 115.822C137.941 115.839 138.599 115.916 138.829 115.924C139.133 115.924 139.743 116.127 140.533 116.604C140.822 116.819 141.094 117.057 141.346 117.315C142.489 118.357 144.444 119.421 145.744 120.79C145.824 120.851 145.912 120.899 146.006 120.933C146.475 120.969 146.632 121.256 146.61 121.686C146.963 122.577 147.64 123.227 148.273 123.91C150.768 127.426 152.57 131.302 154.141 135.289C154.308 135.714 154.514 135.933 154.936 136.091C156.641 136.73 158.113 137.717 159.254 139.161C159.419 139.365 159.628 139.542 159.812 139.736C161.912 141.949 163.34 144.562 164.293 147.434C164.662 148.552 165.053 149.662 165.422 150.779C166.011 152.561 166.048 154.384 165.895 156.188C165.723 158.237 165.421 160.273 164.992 162.284C164.85 162.978 164.642 163.656 164.37 164.31C163.484 166.386 162.718 168.517 161.492 170.431C161.273 171.118 160.741 171.601 160.357 172.181C159.131 173.503 157.727 174.648 156.186 175.585C155.881 175.773 155.606 176.056 155.191 175.943C154.89 175.986 154.605 176.107 154.366 176.295C154.208 176.422 154.035 176.528 153.851 176.611C151.197 177.66 148.483 178.475 145.591 178.268C141.501 177.976 138.1 176.292 135.376 173.175C133.235 170.725 131.554 168.042 130.561 164.939C129.692 163.68 129.614 162.185 129.551 160.773C129.348 156.321 129.993 152.008 132.233 148.053C132.445 147.678 132.569 147.226 133.045 147.066C133.588 146.688 133.818 146.059 134.206 145.56C134.468 145.225 134.648 144.777 134.963 144.498C136.547 143.089 136.426 141.312 136.2 139.458C135.734 137.264 135.884 137.1 134.206 134.317C133.833 133.671 131.428 131.277 130.681 130.738C128.786 129.369 126.786 128.645 124.681 127.955C122.576 127.264 120.681 126.889 119.102 126.708C117.523 126.527 112.578 125.921 109.076 126.965C108.552 126.81 108.488 126.728 108.801 126.227C109.411 125.251 110.081 124.297 111.016 123.607C114.774 120.818 118.896 119.871 123.453 121.27C124.551 121.606 125.651 121.933 126.74 122.307C128.932 123.058 130.633 124.473 132.097 126.186C134.399 128.879 136.311 131.803 137.297 135.27C137.639 136.509 137.869 137.776 137.984 139.057C138.033 134.426 136.06 129.825 132.94 125.625C129.928 121.57 125.742 119.888 120.873 119.493C118.663 119.314 116.478 119.356 114.385 120.159C111.087 121.426 108.422 123.446 106.846 126.708C106.625 127.163 106.427 127.638 106.001 127.955L103.782 129.15C103.631 128.302 104.087 127.597 104.391 126.881C105.066 125.298 106.043 123.905 107.107 122.542C108.362 120.934 109.823 119.601 111.449 118.397C112.355 117.726 113.447 117.453 114.353 116.816Z" fill="#565655"/>
    <path d="M160.228 171.951C160.603 171.41 160.959 170.852 161.489 170.44C163.794 171.404 165.882 172.752 167.978 174.087C168.977 174.725 169.806 175.567 170.713 176.323C172.757 178.042 174.573 180.002 176.487 181.866C178.462 183.805 180.337 185.844 182.103 187.976C183.977 190.23 185.67 192.629 187.166 195.15C189.639 199.315 191.522 203.736 193.232 208.251C194.642 211.976 195.766 215.782 196.743 219.631C197.097 221.03 197.372 222.45 197.625 223.872C197.668 224.167 197.819 224.435 198.049 224.625C197.753 224.867 197.885 225.157 197.938 225.452C198.208 226.96 198.465 228.468 198.728 229.977C199.086 230.566 199.22 231.228 199.327 231.894C199.802 234.862 200.343 237.818 200.831 240.784C200.971 241.634 201.339 241.91 202.174 241.868C206.266 241.658 210.174 242.477 213.908 244.12C218.468 246.121 221.894 249.339 224.186 253.773C224.401 254.19 224.631 254.617 224.499 255.121C223.726 256.181 222.612 256.843 221.577 257.587C219.211 259.289 216.62 260.597 213.974 261.799C211.794 262.791 209.562 263.668 207.289 264.425C207.126 264.467 206.96 264.497 206.792 264.516C206.013 263.695 205.865 262.591 205.492 261.59C205.072 260.472 204.995 260.401 203.91 260.962C199.268 263.359 194.266 264.442 189.124 264.955C183.544 265.502 177.935 265.697 172.331 265.539C170.247 265.484 168.141 265.529 166.068 265.192C165.711 265.134 165.213 265.243 165.125 264.666C166.548 262.999 167.78 261.179 169.124 259.451C170.726 257.405 172.175 255.243 173.457 252.983C174.081 251.865 174.623 250.702 175.078 249.505C175.6 248.116 176.203 246.759 176.885 245.441C178.008 243.307 178.685 241.01 179.376 238.714C179.969 236.742 180.411 234.73 180.861 232.731C181.25 231.003 181.623 229.25 181.808 227.472C182.026 225.363 182.329 223.263 182.561 221.156C182.639 220.453 182.612 219.739 182.637 219.029C182.686 217.557 182.864 216.075 182.759 214.614C182.602 212.398 182.704 210.177 182.488 207.962C182.398 207.03 182.094 206.106 182.25 205.151C182.99 205.007 182.961 205.664 183.076 206.041C183.77 208.211 184.103 210.455 184.303 212.718C184.545 215.488 184.515 218.271 184.036 220.999C183.848 222.067 184.335 222.92 184.327 223.898C184.292 228.369 184.397 232.839 184.285 237.304C184.191 241.063 183.608 244.775 183.055 248.491C182.719 250.759 182.794 253.076 182.704 255.372C182.68 255.967 182.907 256.496 183.308 256.947C183.689 257.377 184.091 257.787 184.495 258.196C186.341 260.068 188.334 260.545 190.926 259.614C194.257 258.417 197.463 257.03 200.5 255.226C201.11 254.864 201.36 254.421 201.172 253.716C198.53 243.817 197.333 233.64 195.372 223.61C193.727 215.193 190.933 207.15 187.089 199.48C185.643 196.596 184.011 193.79 181.946 191.344C180.061 189.116 178.311 186.761 176.093 184.773C174.093 182.981 172.317 180.901 170.379 179.012C167.619 176.321 164.501 174.135 160.932 172.611C160.633 172.493 160.136 172.515 160.228 171.951Z" fill="#E8E3EC"/>
    <path d="M79.2957 261.11C79.2804 260.754 79.4989 260.626 79.6827 260.493C83.6384 257.712 87.7871 255.3 92.3726 253.677C94.6617 252.864 96.9714 252.126 99.3017 251.464C102.248 250.624 105.244 250.02 108.255 249.524C109.972 249.241 111.709 248.989 113.446 248.802C114.946 248.64 116.452 248.497 117.95 248.283C118.938 248.141 119.959 248.093 120.967 248.029C122.981 247.902 124.995 247.773 126.978 247.372C128.526 247.06 130.106 246.966 131.651 246.609C133.988 246.079 136.316 245.544 138.43 244.359C138.76 244.174 139.116 244.083 139.462 243.958C139.88 243.806 140.294 243.653 140.54 243.113C139.816 242.211 139.008 243.418 138.246 243.054C138.754 242.022 139.499 241.151 140.157 240.232C142.168 237.428 143.933 234.494 145.371 231.349C146.8 228.225 147.672 224.954 148.264 221.595C148.59 219.744 148.82 217.875 149.09 216.015C149.423 213.723 149.814 211.437 150.072 209.135C150.413 206.087 151.087 203.101 151.788 200.127C152.364 197.676 153.03 195.237 153.992 192.892C154.579 191.462 155.078 189.996 155.605 188.543C155.747 188.152 155.936 187.792 156.266 187.541C157.715 186.442 159.111 185.254 160.878 184.673C163.221 183.902 165.569 183.882 167.901 184.723C168.122 184.794 168.326 184.909 168.502 185.06C168.678 185.212 168.822 185.397 168.926 185.605C169.979 187.602 170.983 189.615 171.821 191.712C172.746 194.026 173.476 196.402 174.139 198.797C174.506 200.123 174.802 201.471 175.125 202.81C175.43 204.09 175.486 205.406 175.836 206.671C175.866 206.768 175.886 206.868 175.898 206.968C176.157 209.489 176.218 212.026 176.08 214.557C175.947 216.832 175.539 219.087 175.174 221.343C174.695 224.313 173.819 227.18 173.009 230.056C172.152 233.098 171.009 236.06 169.693 238.95C168.333 241.933 166.848 244.843 164.977 247.539C164.247 248.593 163.375 249.533 162.566 250.523C161.685 251.601 160.66 252.52 159.621 253.432C158.433 254.478 157.222 255.488 155.875 256.345C154.656 257.124 153.431 257.913 152.142 258.569C148.586 260.379 144.859 261.74 140.995 262.753C138.71 263.352 136.361 263.552 134.065 264.06C134.031 264.063 133.997 264.063 133.963 264.06C131.397 264.082 128.829 264.5 126.274 264.226C125.037 264.093 123.791 264.164 122.555 263.914C121.61 263.722 120.614 263.795 119.639 263.693C117.599 263.48 115.576 263.198 113.544 262.896C112.68 262.768 111.803 262.822 110.929 262.667C108.679 262.267 106.387 262.2 104.123 261.893C103.165 261.763 102.193 261.605 101.207 261.619C99.6583 261.642 98.1193 261.463 96.5843 261.253C96.3172 261.217 96.0429 261.24 95.7717 261.226C94.5272 261.161 93.2849 261.226 92.0323 261.094C91.2387 261.028 90.4423 261.003 89.6461 261.019C87.1746 261.028 84.703 261.019 82.2305 261.019C81.5194 261.019 80.8144 260.947 80.1185 261.186C79.9839 261.234 79.8408 261.251 79.6988 261.238C79.5568 261.225 79.4193 261.181 79.2957 261.11Z" fill="#ADADC6"/>
    <path d="M160.227 171.951C160.43 172.412 160.932 172.298 161.283 172.439C163.562 173.354 165.55 174.776 167.532 176.16C168.552 176.874 169.5 177.685 170.363 178.582C171.817 180.089 173.394 181.485 174.774 183.053C175.827 184.251 177.051 185.25 178.153 186.384C178.783 187.034 179.493 187.612 179.845 188.492C180.037 188.974 180.445 189.304 180.815 189.651C181.665 190.422 182.4 191.311 182.995 192.293C183.695 193.481 184.601 194.528 185.293 195.736C186.47 197.787 187.629 199.838 188.581 202.011C189.334 203.738 190.159 205.43 190.835 207.188C192.68 211.929 194.157 216.805 195.252 221.774C196.052 225.454 196.641 229.165 197.264 232.875C198.076 237.71 198.903 242.543 199.915 247.341C200.423 249.773 201.073 252.177 201.655 254.579C201.426 254.965 201.108 255.195 200.751 255.407C198.986 256.459 197.195 257.469 195.309 258.279C192.99 259.277 190.59 260.083 188.097 260.578C187.863 260.62 187.622 260.584 187.41 260.476C185.561 259.637 184.069 258.343 182.783 256.803C182.548 256.509 182.421 256.143 182.425 255.766C182.432 254.825 182.298 253.883 182.54 252.939C182.662 252.461 182.632 251.923 182.598 251.425C182.482 249.726 182.781 248.064 183.054 246.404C183.299 244.913 183.46 243.413 183.638 241.913C184.407 235.512 183.816 229.081 184.077 222.652L183.691 222.629C183.527 222.462 183.605 222.212 183.64 222.007C183.892 220.511 184.07 219.011 184.032 217.489C184.015 216.814 184.406 216.153 184.216 215.488C183.838 214.167 184.081 212.807 183.879 211.466C183.637 209.868 183.4 208.275 182.986 206.716C182.841 206.17 182.869 205.49 182.24 205.154C181.751 202.639 181.293 200.11 180.521 197.665C178.687 191.856 175.397 187.099 170.105 183.913C167.603 182.408 164.853 182.06 161.984 182.593C159.076 183.137 156.749 184.738 154.67 186.717C152.152 189.112 150.231 191.976 148.491 194.968C146.44 198.494 144.942 202.265 143.626 206.103C142.509 209.362 141.551 212.673 140.718 216.019C140.555 216.669 140.427 217.34 140.119 217.949C139.47 218.03 139.324 218.661 139.024 219.059C138.211 220.135 137.602 221.355 136.757 222.403C135.563 223.891 134.672 225.642 133.075 226.793C133.018 226.829 132.97 226.879 132.936 226.938C132.013 228.963 130.301 230.331 128.771 231.834C126.774 233.801 124.351 235.153 121.781 236.221C118.937 237.402 115.924 237.978 112.9 238.482C111.571 238.704 110.241 238.883 108.89 238.879C106.846 238.879 104.987 238.292 103.233 237.246C101.955 236.483 100.763 235.604 99.5759 234.722C98.7226 234.089 98.2228 233.143 97.6346 232.283C96.4796 230.592 95.8132 228.685 95.1732 226.765C94.7994 225.648 94.3362 224.545 94.068 223.4C93.6383 221.562 93.492 219.712 93.7805 217.798C94.2317 214.803 94.9396 211.853 95.8965 208.98C95.9778 208.733 96.0123 208.446 96.3191 208.198C97.0901 208.33 97.849 208.706 98.6251 208.994C101.66 210.136 104.754 211.072 107.948 211.636C110.09 212.013 112.273 211.993 114.417 211.824C117.174 211.604 119.842 210.845 122.433 209.852C126.432 208.318 130.099 206.176 133.608 203.748C136.154 201.983 138.592 200.073 141.009 198.133C142.966 196.562 144.751 194.82 146.484 193.021C147.961 191.485 149.169 189.731 150.282 187.921C152.202 184.822 153.737 181.5 154.853 178.03C155.071 177.343 155.232 176.668 155.186 175.95C157.023 174.827 158.715 173.484 160.227 171.951Z" fill="#FBFCFE"/>
    <path d="M95.6544 204.151C95.6717 204.82 95.2766 205.358 95.0449 205.938C94.4415 207.423 93.9712 208.951 93.4562 210.466C92.999 210.317 93.0041 210.786 92.8771 210.974C92.1112 212.084 91.3798 213.216 90.5336 214.27C89.3146 215.794 88.1342 217.352 86.907 218.871C85.7408 220.314 84.5079 221.699 83.2083 223.028C81.9324 224.337 80.4127 225.263 78.8087 226.034C76.2864 227.248 73.6366 228.178 70.9085 228.806C68.6736 229.314 66.4103 229.654 64.1023 229.548C62.926 229.494 61.8675 229.064 60.8354 228.574C58.7935 227.605 56.7425 226.652 54.8957 225.323C53.0083 223.96 51.2914 222.375 49.782 220.602C48.0551 218.581 46.4988 216.393 44.4742 214.63C43.0378 213.379 41.4663 212.384 39.6134 211.832C38.1597 211.399 36.7345 210.867 35.3133 210.333C34.6154 210.072 34.0293 209.61 33.4594 209.114C31.4755 207.402 29.9182 205.345 28.5001 203.163C27.9921 202.374 27.404 201.628 26.8341 200.877C26.4277 200.344 25.8589 200.042 25.2209 199.892C23.3711 199.455 22.2689 198.224 21.6431 196.513C21.2399 195.406 20.9054 194.275 20.6415 193.126C20.4536 192.313 20.6313 191.672 20.9656 191.001C21.2063 190.517 21.4582 190.039 21.6015 189.513C21.9184 188.348 21.6116 187.563 20.6963 186.744C19.902 186.033 19.0151 185.378 18.7429 184.226C18.365 182.63 19.2112 181.518 20.993 181.65C22.1541 181.735 23.3071 182.033 24.4468 182.334C25.9828 182.74 27.2912 183.553 28.6118 184.372C29.8968 185.175 31.2073 185.936 32.3308 186.985C33.1018 187.704 33.6992 188.545 34.3239 189.373C35.4484 190.862 36.6949 192.241 38.2136 193.335C39.5077 194.264 41.0396 194.766 42.4374 195.514C42.5535 195.585 42.6888 195.618 42.8245 195.608C43.9419 195.388 45.1243 195.325 45.9624 194.409C46.3685 193.96 46.7419 193.483 47.0798 192.981C47.41 192.497 47.5187 191.947 47.5126 191.346C47.5024 190.236 47.3511 189.11 47.7158 188.024C47.9738 187.259 48.2775 186.542 49.0099 186.038C49.3925 185.762 49.8605 185.631 50.3305 185.668C51.1981 185.71 51.4561 186.063 51.2509 186.92C50.8202 188.719 50.426 190.515 50.297 192.377C50.232 193.317 50.1111 194.261 50.1599 195.198C50.3631 199.16 51.2072 202.947 53.4675 206.293C54.8246 208.3 56.5749 209.896 58.6544 211.169C60.955 212.588 63.4797 213.604 66.1208 214.177C68.2389 214.634 70.3874 214.865 72.5481 214.699C75.3995 214.48 78.2429 214.124 80.9714 213.208C84.0708 212.166 86.8633 210.521 89.473 208.588C91.3148 207.227 93.1067 205.799 94.9109 204.389C95.0126 204.301 95.1309 204.235 95.2586 204.194C95.3863 204.154 95.5209 204.139 95.6544 204.151Z" fill="#ADADC6"/>
    <path d="M55.826 241.901C56.4609 242.159 56.9678 242.622 57.5367 242.983C59.0757 243.963 60.6614 244.846 62.2817 245.69C63.8298 246.496 65.4806 246.923 67.0927 247.501C68.8054 248.115 70.5202 248.725 72.3101 249.08C74.5246 249.519 76.7331 249.943 79.0025 250.096C80.9803 250.227 82.9642 250.394 84.935 250.684C85.965 250.835 87.0195 250.844 88.0638 250.863C89.617 250.89 91.1712 250.87 92.757 250.992C92.0185 251.279 91.284 251.582 90.5394 251.852C88.4305 252.619 86.4181 253.551 84.6475 254.964C84.0715 255.424 83.3858 255.746 82.7519 256.135C79.6339 258.034 76.6596 260.159 73.8531 262.494C73.2883 262.967 72.7154 263.446 72.2816 264.058C71.9027 264.415 71.5045 264.189 71.1439 264.058C65.509 261.968 60.0478 259.532 55.5365 255.44C53.5871 253.671 51.9719 251.591 51.8683 248.781C51.7667 245.955 53.2295 243.845 55.1759 241.995C55.2566 241.906 55.3656 241.849 55.4842 241.832C55.6028 241.815 55.7236 241.839 55.826 241.901Z" fill="#49453E"/>
    <path d="M55.8253 241.901C55.6607 241.934 55.4962 241.953 55.3671 242.085C54.1075 243.377 52.9779 244.76 52.4029 246.504C51.7223 248.568 52.1408 250.487 53.2532 252.295C54.4234 254.197 56.0366 255.679 57.8123 256.982C62.0697 260.108 66.8533 262.207 71.7811 264.003C71.9325 264.059 72.1123 264.039 72.2779 264.056C72.8143 264.475 73.4827 264.665 74.1003 264.815C75.2452 265.101 76.2509 265.723 77.3795 266.025C77.5278 266.064 77.6456 266.212 77.7777 266.308C77.8874 266.429 78.0733 266.395 78.184 266.511C79.0373 267.223 79.8612 267.934 80.9705 268.286C81.9325 268.591 82.7451 269.253 83.6117 269.781C85.7449 271.087 87.8589 272.412 90.1283 273.471C90.4097 273.603 90.812 273.719 90.5895 274.198C89.3979 274.175 88.2652 273.806 87.1194 273.554C81.3179 272.279 75.5794 270.765 69.9943 268.724C64.7464 266.806 59.6621 264.54 55.1061 261.244C52.4314 259.309 50.0269 257.089 48.5163 254.089C46.2479 249.596 46.6939 245.298 49.5596 241.206C50.0748 240.453 50.6525 239.744 51.2865 239.088C51.4561 238.916 51.6045 238.737 51.6481 238.491C52.8336 239.473 54.0049 240.47 55.2737 241.344C55.486 241.495 55.6993 241.652 55.8253 241.901Z" fill="#B88DFC"/>
    <path d="M165.122 264.676C165.796 265.017 166.549 265.053 167.261 265.067C171.007 265.142 174.754 265.486 178.498 265.264C180.555 265.142 182.616 265.214 184.663 265.061C188.815 264.756 192.964 264.38 197.008 263.273C199.525 262.586 201.947 261.683 204.254 260.465C204.545 260.312 204.823 260.099 205.27 260.079C205.772 261.548 206.28 263.036 206.786 264.522C206.303 264.929 205.682 265.018 205.11 265.197C201.474 266.334 197.805 267.361 194.086 268.197C191.1 268.868 188.118 269.568 185.082 269.997C184.993 270.01 184.914 270.098 184.831 270.155C183.714 270.816 182.428 270.805 181.204 271.003C174.688 272.059 168.124 272.737 161.548 273.279C159.594 273.44 157.633 273.495 155.678 273.662C155.338 273.692 154.998 273.695 154.729 273.427C155.541 272.614 156.536 272.032 157.471 271.372C159.178 270.163 160.824 268.902 162.325 267.426C163.253 266.504 164.31 265.715 165.122 264.676Z" fill="#CCC5D5"/>
    <path d="M154.731 273.427C156.332 273.172 157.959 273.285 159.565 273.063C160.564 272.925 161.583 272.93 162.59 272.86C164.474 272.737 166.348 272.555 168.228 272.368C170.804 272.111 173.377 271.809 175.948 271.447C178.381 271.105 180.811 270.748 183.239 270.374C183.77 270.293 184.287 270.097 184.838 270.151C185.065 270.434 184.779 270.485 184.634 270.571C181.384 272.453 178.196 274.431 174.822 276.09C174.589 276.204 174.305 276.287 174.279 276.621C172.731 276.979 171.146 277.068 169.572 277.231C166.691 277.522 163.807 277.787 160.92 278.026C159.273 278.16 157.617 278.175 155.97 278.31C153.65 278.498 151.321 278.436 149 278.629C147.555 278.749 146.094 278.663 144.641 278.67C145.199 278.222 145.86 277.968 146.525 277.756C149.012 276.975 151.188 275.607 153.337 274.184C153.772 273.894 154.167 273.499 154.731 273.427Z" fill="#A675E7"/>
    <path d="M90.5848 274.194C90.5615 273.91 90.3482 273.795 90.1267 273.709C88.1032 272.924 86.3356 271.67 84.4583 270.62C83.4313 270.046 82.4612 269.371 81.4524 268.763C81.1437 268.558 80.7991 268.413 80.4366 268.335C79.4725 268.169 78.9392 267.369 78.2535 266.797C78.1926 266.747 78.2078 266.606 78.1875 266.507C83.4089 268.493 88.7584 270.111 94.0042 272.025C97.5129 273.306 100.981 274.69 104.408 276.178C104.563 276.245 104.719 276.313 104.802 276.477C102.88 276.413 100.994 276.04 99.1007 275.759C96.5418 275.38 94.0021 274.877 91.4493 274.453C91.1522 274.4 90.8621 274.313 90.5848 274.194Z" fill="#A675E7"/>
    <path d="M78.1837 266.511C78.0181 266.511 77.8657 266.472 77.7773 266.307C77.947 266.312 78.0963 266.352 78.1837 266.511Z" fill="#9578B6"/>
    <path d="M146.606 121.696L146.002 120.943C146.457 119.216 146.95 117.502 147.357 115.766C147.917 113.38 148.344 110.969 148.712 108.54C149.212 105.244 149.119 101.936 149.055 98.6381C149.024 96.9698 148.728 95.2954 148.43 93.6454C147.766 89.9745 147.008 86.3198 146.042 82.7149C145.487 80.5948 144.764 78.5224 143.88 76.5172C142.539 73.528 141.124 70.5734 139.747 67.6025C138.613 65.1569 137.582 62.6575 136.624 60.1378C135.582 57.3945 134.497 54.6725 133.635 51.8673C132.88 49.461 132.331 46.9951 131.992 44.496C131.701 42.2658 131.508 40.0255 131.186 37.7993C131.052 36.8727 130.928 35.9339 130.607 35.0388C130.465 34.6227 130.226 34.2462 129.91 33.9405C128.952 33.0189 127.896 33.1205 127.196 34.2453C126.694 35.0581 126.383 35.9532 126.144 36.8707C125.794 38.2413 125.615 39.6343 125.483 41.0456C125.382 42.09 125.28 43.1294 125.331 44.1698C125.389 45.2743 125.561 46.3716 125.672 47.473C125.875 49.5223 126.037 51.5787 125.9 53.6352C125.848 54.4165 125.436 55.0627 124.753 55.5656C123.923 56.1752 122.847 56.4516 122.349 57.427C121.994 57.2715 121.943 57.0307 121.874 56.8174C120.999 53.9176 120.167 51.0118 119.811 47.986C119.626 46.4143 119.463 44.8496 119.386 43.2666C119.342 42.3644 119.116 41.4449 119.244 40.5528C119.524 38.5868 119.459 36.6014 119.771 34.6304C120.122 32.4042 120.495 30.1893 121.028 28.0018C121.898 24.4243 123.101 20.9516 124.482 17.5428C125.152 15.8856 125.843 14.2315 126.635 12.6313C128.201 9.4389 130.368 6.57891 133.018 4.20841C133.787 3.52259 134.579 2.82864 135.518 2.39581C135.544 2.40002 135.57 2.40994 135.593 2.42489C135.615 2.43985 135.635 2.4595 135.649 2.48252C135.664 2.50553 135.673 2.53138 135.676 2.55831C135.68 2.58525 135.678 2.61264 135.67 2.63864C135.313 4.34557 135.587 6.07689 135.467 7.78991C135.238 10.9609 135.299 14.135 135.27 17.3091C135.249 19.4092 135.61 21.4606 135.969 23.514C136.409 26.0266 136.821 28.5454 137.325 31.0458C137.815 33.4843 138.371 35.9116 138.959 38.3277C139.829 41.896 140.815 45.4399 142.007 48.9106C143.406 52.9951 145.001 57.0053 146.664 60.9912C147.964 64.1023 149.306 67.1941 150.572 70.3204C151.442 72.4734 152.337 74.6182 153.052 76.823C153.913 79.4779 154.606 82.1764 155.015 84.9512C155.448 87.8977 155.739 90.8442 155.567 93.809C155.434 96.0555 155.147 98.2902 154.708 100.497C154.042 103.878 153.063 107.168 151.924 110.41C151.222 112.411 150.4 114.372 149.587 116.329C148.94 117.897 148.143 119.377 147.435 120.915C147.267 121.281 147.119 121.69 146.606 121.696Z" fill="#FBFCFE"/>
    <path d="M224.497 255.125C221.466 248.238 216.009 244.415 208.853 242.749C206.239 242.126 203.543 241.918 200.864 242.132C200.497 240.848 200.341 239.552 200.118 238.271C199.729 236.055 199.382 233.831 199.03 231.609C198.943 231.061 198.553 230.57 198.725 229.976C205.531 231.784 212.184 234.007 218.377 237.428C220.843 238.789 223.163 240.361 225.145 242.382C226.078 243.314 226.851 244.394 227.434 245.578C228.377 247.533 228.398 249.47 227.422 251.421C226.699 252.867 225.778 254.135 224.497 255.125Z" fill="#49453E"/>
    <path d="M133.039 147.071C132.43 148.531 131.548 149.86 131.041 151.381C130.46 153.126 130.155 154.906 129.941 156.718C129.612 159.505 129.863 162.242 130.55 164.948C130.355 165.136 130.347 165.392 130.4 165.614C130.685 166.799 130.534 168.032 130.806 169.218C131.118 170.593 131.213 172.022 131.749 173.342C132.157 174.334 132.642 175.293 133.199 176.21C133.616 176.899 134.045 177.581 134.462 178.269C135.637 180.2 137.284 181.597 139.29 182.598C139.594 182.748 139.888 182.902 140.172 183.051C140.264 183.348 140.083 183.521 139.958 183.713C139.086 185.057 137.967 186.165 136.707 187.151C135.517 188.086 134.398 189.112 133.127 189.946C131.942 190.721 130.757 191.47 129.454 192.055C127.791 192.804 126.133 193.563 124.431 194.215C123.36 194.621 122.28 195.04 121.17 195.311C120.296 195.525 119.373 195.566 118.468 195.607C115.839 195.721 113.207 195.505 110.632 194.965C109.633 194.762 108.584 194.624 107.655 194.05C107.159 193.746 106.498 193.711 105.922 193.521C102.612 192.425 99.4015 191.111 96.4596 189.201C95.0782 188.297 93.7701 187.286 92.5476 186.177C91.8284 185.529 91.0787 184.885 90.3544 184.239C89.5113 183.485 88.8672 182.505 88.1429 181.62C87.2419 180.52 86.5338 179.283 85.8065 178.074C85.0954 176.896 84.6616 175.56 84.2919 174.223C83.7839 172.374 83.3502 170.507 82.9438 168.634C82.4085 166.167 82.3892 163.68 82.4583 161.185C82.4735 160.621 82.637 160.06 82.6889 159.487C82.711 159.147 82.8361 158.822 83.0474 158.554C83.7646 157.705 84.4463 156.827 85.1736 155.986C86.991 153.882 89.0531 152.023 90.9639 150.013C91.8619 149.066 92.3668 147.853 92.7498 146.65C93.405 144.589 94.2156 142.593 95.0192 140.592C95.6358 139.057 96.4739 137.645 97.637 136.438C98.152 135.905 98.7747 135.465 99.1404 134.799C99.3304 134.452 99.7215 134.494 99.9917 134.291C102.18 132.709 104.501 131.321 106.93 130.142C107.573 129.828 108.189 129.693 108.88 129.901C109.107 129.965 109.342 129.997 109.577 129.996C111.571 130.02 113.519 130.346 115.475 130.721C116.975 131.008 118.41 131.463 119.843 131.95C122.08 132.721 124.158 133.892 125.978 135.404C128.619 137.562 130.339 140.318 131.598 143.424C131.914 144.204 132.258 144.972 132.63 145.729C132.845 146.163 133.024 146.589 133.039 147.071Z" fill="#FBFCFE"/>
    <path d="M105.994 127.957C107.04 125.041 108.94 122.85 111.563 121.217C113.565 119.969 115.716 119.328 118.064 119.2C121.214 119.029 124.252 119.504 127.169 120.691C129.582 121.676 131.492 123.305 133.053 125.373C135.006 127.959 136.564 130.749 137.489 133.867C137.914 135.298 138.08 136.774 138.142 138.262C138.168 138.872 138.116 139.482 138.275 140.078C138.326 140.274 138.386 140.549 137.978 140.737C137.846 139.95 137.842 139.189 137.725 138.449C137.336 135.988 136.652 133.619 135.451 131.439C133.871 128.577 131.931 125.986 129.332 123.943C128.164 123.029 126.765 122.577 125.396 122.115C123.77 121.568 122.117 121.058 120.377 120.942C119.499 120.883 118.627 120.816 117.756 121.027C117.231 121.153 116.69 121.206 116.164 121.326C114.177 121.78 112.441 122.771 110.887 124.034C109.973 124.775 109.268 125.751 108.713 126.797C108.796 126.959 108.948 126.926 109.069 126.967L105.994 127.957Z" fill="#A5A4A5"/>
    <path d="M125.717 115.413C124.905 113.332 123.932 111.349 122.499 109.602C121.657 108.589 120.756 107.627 119.799 106.722C117.875 104.881 115.915 103.078 113.868 101.372C113.453 101.027 113.102 100.607 112.708 100.235C111.433 99.0344 110.107 97.8914 108.731 96.8063C107.089 95.5179 105.515 94.1432 103.885 92.8437C100.597 90.2163 97.3836 87.474 93.7062 85.3881C90.6841 83.6731 87.6853 81.9153 84.6652 80.1932C80.5104 77.8218 76.4227 75.3233 72.5513 72.4937C71.1088 71.4401 69.7333 70.3103 68.3752 69.1489C66.8514 67.8484 65.5217 66.364 64.0517 65.0198C63.489 64.5057 62.916 63.9733 62.1297 63.7498C61.1413 63.4703 60.0412 63.8788 59.7283 64.844C59.4025 65.7948 59.2895 66.8055 59.3971 67.8047C59.7131 70.6079 60.544 73.2699 61.3638 75.933C61.8225 77.4516 62.4049 78.9301 63.105 80.3537C63.6942 81.5333 64.2864 82.7129 64.8695 83.8956C65.031 84.2227 65.2758 84.5367 65.0869 84.9949C64.456 85.2997 63.9694 84.9685 63.4971 84.556C62.5747 83.7533 61.826 82.783 61.059 81.8513C59.4093 79.8497 57.8612 77.7628 56.5131 75.5418C55.5674 73.9852 54.6125 72.4297 53.7836 70.8112C52.3675 68.0476 50.925 65.2972 49.6674 62.4523C48.6322 60.1083 47.7373 57.7135 46.9398 55.2862C46.0851 52.7321 45.448 50.1102 45.0351 47.4486C44.7893 45.8229 44.6014 44.1892 44.4114 42.5554C44.2214 40.9216 44.2367 39.3173 44.2783 37.7039C44.3179 36.128 44.5303 34.5542 45.1144 33.0606C45.3084 32.5668 45.478 32.0283 46.0743 31.7032C46.887 32.0527 47.5808 32.6654 48.1832 33.3156C49.421 34.6542 50.4609 36.1631 51.2714 37.7963C52.3411 39.9472 53.4372 42.084 54.4865 44.244C55.8661 47.0818 57.6702 49.6442 59.5546 52.1538C60.8315 53.8536 62.1684 55.5179 63.751 56.9363C65.2545 58.2845 66.7762 59.6155 68.2919 60.9506C71.0844 63.4114 74.1228 65.5278 77.212 67.569C79.8532 69.3156 82.4791 71.0926 85.1599 72.7843C86.9824 73.9334 88.8403 75.0307 90.6272 76.2307C93.0368 77.8492 95.5632 79.2706 98.0358 80.7825C100.997 82.594 104.029 84.2989 107.001 86.0932C109.423 87.5543 111.926 88.8812 114.367 90.3128C116.346 91.4741 118.183 92.8529 119.967 94.2896C121.253 95.3279 122.538 96.3734 123.663 97.5855C125.893 99.9792 127.851 102.613 129.499 105.438C130.984 107.99 132.196 110.654 133.045 113.48C133.257 114.192 133.553 114.859 133.444 115.623" fill="#FBFCFE"/>
    <path d="M164.053 153.537C163.522 151.2 162.665 149.023 161.283 147.067C160.913 146.543 160.591 145.984 160.247 145.442C158.989 143.46 157.127 142.364 154.87 142.007C150.822 141.367 146.932 142.007 143.223 143.735C142.55 144.053 141.917 144.451 141.339 144.919C138.206 147.416 135.872 150.507 134.281 154.182C133.39 156.237 133.163 158.409 133.042 160.606C132.91 163.044 133.224 165.449 133.753 167.993C133.347 167.666 133.309 167.297 133.144 167.014C132.961 166.688 132.804 166.349 132.675 165.998C131.701 163.402 131.252 160.714 131.437 157.948C131.671 154.529 132.607 151.344 134.349 148.349C135.431 146.515 136.727 144.816 138.209 143.288C140.444 140.951 143.122 139.159 146.244 138.153C147.594 137.718 149.017 137.387 150.409 137.377C153.11 137.358 155.664 137.911 157.759 139.917C159.486 141.57 161.095 143.254 162.103 145.458C162.908 147.22 163.452 149.059 163.931 150.925C164.151 151.795 164.112 152.666 164.053 153.537Z" fill="#8B8B8A"/>
    <path d="M121.135 117.329C121.6 117.157 122.042 117.203 122.471 117.203C125.856 117.203 129.249 117.093 132.629 117.272C134.51 117.374 136.412 117.216 138.284 117.584C138.691 117.663 139.079 117.734 139.425 117.954C141.14 119.042 142.835 120.16 144.26 121.624C145.755 123.16 146.945 124.925 147.997 126.783C148.403 127.505 148.357 127.799 147.692 128.24C146.411 129.091 145.078 129.622 143.435 129.459C141.566 129.277 139.847 128.841 138.316 127.76C137.596 127.255 136.922 126.688 136.303 126.064C135.123 124.862 133.882 123.734 132.79 122.43C131.334 120.692 129.336 119.632 127.227 118.838C125.391 118.15 123.465 117.731 121.51 117.592C121.38 117.586 121.237 117.598 121.135 117.329Z" fill="#8B8B8A"/>
    <path d="M155.183 157.405C154.994 159.399 154.22 161.279 152.345 162.549C151.668 163.013 150.838 163.195 150.03 163.057C148.739 162.854 148.007 161.989 147.575 160.889C146.783 158.875 146.981 156.884 148.226 155.118C149.275 153.632 151.695 152.514 153.794 153.696C154.36 154.015 154.682 154.509 154.848 155.118C155.042 155.866 155.155 156.633 155.183 157.405Z" fill="#A5A4A5"/>
    <path d="M145.609 156.696C145.392 157.593 145.327 158.521 145.417 159.439C145.584 161.357 146.433 162.981 148.015 164.055C149.523 165.08 151.753 165.158 153.624 163.728C155.111 162.59 156.155 161.068 156.497 159.204C156.747 157.842 156.739 156.448 156.268 155.1C156.059 154.502 155.885 153.893 155.7 153.309C155.903 153.122 156.072 153.197 156.185 153.309C157.055 154.181 157.773 155.122 157.803 156.446C157.865 158.816 157.378 161.168 156.381 163.32C155.229 165.819 152.927 166.925 150.212 166.443C148.668 166.17 147.164 165.817 145.92 164.786C144.736 163.799 144.065 162.586 144.387 160.981C144.638 159.729 144.684 158.432 145.184 157.232C145.266 157.048 145.294 156.844 145.609 156.696Z" fill="#8B8B8A"/>
    <path d="M201.396 243.759C202.451 243.759 203.459 243.709 204.462 243.768C207.894 243.963 211.248 244.864 214.316 246.415C216.161 247.332 217.833 248.563 219.256 250.054C220.21 251.052 221.047 252.156 221.751 253.345C222.018 253.802 221.995 254.186 221.77 254.666C221.036 256.23 219.71 257.019 218.166 257.544C217.048 257.923 215.919 258.267 214.804 258.656C214.483 258.757 214.147 258.803 213.81 258.791C212.965 258.791 212.114 258.733 211.27 258.802C209.137 258.98 207.327 258.023 205.54 257.107C204.823 256.74 204.266 255.97 203.995 255.172C203.259 253.042 202.682 250.861 202.268 248.646C202.043 247.404 201.672 246.173 201.375 244.935C201.303 244.599 201.289 244.276 201.396 243.759Z" fill="#FBFCFE"/>
    <path d="M102.327 176.787C102.036 176.389 102.575 175.752 102.753 175.419H104.126C106.965 175.419 109.635 174.783 112.08 173.307C112.993 172.76 113.894 172.188 114.8 171.627C115.352 171.28 115.972 171.056 116.617 170.968C117.596 170.837 118.585 171.378 118.931 172.297C119.563 173.976 119.382 175.582 118.307 177.029C117.747 177.781 117.058 178.423 116.332 179.023C115.635 179.614 114.813 180.038 113.927 180.262C112.053 180.722 110.179 181.155 108.234 181.033C107.435 180.983 106.642 180.817 105.848 180.693C105.576 180.651 105.39 180.459 105.223 180.251C104.123 178.898 103.342 178.092 102.327 176.787Z" fill="#41354E"/>
    <path d="M95.8846 168.23C95.1014 168.342 94.5325 168.001 93.989 167.474C92.3027 165.836 91.2391 163.816 90.3726 161.683C90.0922 160.992 90.1826 160.758 90.7464 160.272C90.8988 160.14 91.0878 160.045 91.2249 159.9C91.7481 159.347 92.319 159.361 92.9752 159.655C93.7423 160.002 94.5277 160.307 95.3279 160.569C98.2139 161.496 101.135 162.296 104.099 162.933C105.306 163.194 105.595 163.718 105.288 164.885C104.999 165.986 104.419 166.643 103.242 166.966C100.822 167.632 98.3429 167.858 95.8846 168.23Z" fill="#41354E"/>
    <path d="M116.617 151.592C116.693 153.361 116.194 155.108 115.194 156.57C114.686 157.322 114.065 157.912 113.175 158.163C112.334 158.401 111.73 158.201 111.218 157.498C110.899 157.06 110.609 156.583 110.579 156.03C110.516 154.709 110.56 153.388 111.023 152.14C111.43 151.06 112.113 150.124 112.877 149.26C113.191 148.905 113.547 148.579 114.007 148.426C115.075 148.071 116.071 148.274 116.416 149.494C116.609 150.188 116.61 150.886 116.617 151.592Z" fill="#41354E"/>
    <path d="M100.116 145.401C100.047 146.786 99.7225 148.147 99.1603 149.415C98.8489 150.099 98.2936 150.643 97.603 150.939C96.3159 151.531 95.1172 150.747 95.2665 149.339C95.4555 147.492 95.9258 145.718 96.9823 144.141C97.5725 143.26 98.0245 143.076 99.0323 143.391C99.8714 143.65 100.108 144.073 100.116 145.401Z" fill="#41354E"/>
    <path d="M148.909 158.13C149.233 157.374 149.424 156.435 150.094 155.724C151.057 154.698 152.216 154.861 152.876 156.111C153.447 157.19 153.029 157.946 151.788 158.013C151.389 158.034 151.059 158.124 150.815 158.438C150.547 158.786 150.148 158.89 149.764 158.988C149.171 159.141 148.861 158.853 148.909 158.13Z" fill="#CCC5D5"/>
    <path d="M116.769 177.054C116.527 176.888 116.536 176.721 116.585 176.579C116.811 175.923 116.694 175.247 116.696 174.58C116.699 173.914 115.875 173.26 115.228 173.392C114.763 173.486 114.301 173.596 113.841 173.713C113.671 173.756 113.539 173.73 113.456 173.576C113.43 173.539 113.413 173.496 113.404 173.451C113.396 173.405 113.397 173.359 113.406 173.314C113.416 173.269 113.435 173.227 113.462 173.19C113.489 173.153 113.523 173.123 113.562 173.1C114.467 172.498 115.389 171.911 116.441 171.647C117.448 171.395 118.016 171.857 118.373 172.967C118.542 173.495 118.391 173.985 118.35 174.483C118.296 175.147 118.162 175.803 117.727 176.347C117.448 176.71 117.092 176.886 116.769 177.054Z" fill="#665973"/>
    <path d="M93.3984 161.264C94.7197 161.321 99.1555 163.01 99.9248 163.724C98.5014 164.66 94.184 163.066 93.3984 161.264Z" fill="#665973"/>
    <path d="M112.799 157.132C112.697 157.164 112.662 157.189 112.633 157.184C111.282 156.921 111.076 156.707 111.102 155.318C111.133 153.544 111.675 151.946 112.914 150.63C113.219 150.31 113.537 150.01 113.845 149.697C114.031 149.499 114.253 149.34 114.5 149.226C114.831 149.082 115.171 149.004 115.424 149.322C115.651 149.609 115.635 149.967 115.453 150.276C115.325 150.475 115.164 150.651 114.977 150.797C113.565 151.98 113.101 153.63 112.742 155.327C112.682 155.629 112.711 155.941 112.826 156.226C112.938 156.513 112.985 156.811 112.799 157.132Z" fill="#665973"/>
    <path d="M99.2633 144.175C99.3324 144.625 99.0429 144.795 98.8387 145.005C97.6512 146.224 97.0559 147.668 97.0772 149.374C97.0772 149.641 97.0904 149.924 97.0102 150.172C96.9157 150.468 96.6871 150.718 96.3407 150.691C95.9638 150.663 95.8643 150.367 95.8612 150.034C95.8612 149.526 95.7942 149.012 95.8704 148.518C96.1091 146.969 96.6018 145.513 97.6918 144.332C98.2861 143.683 98.3988 143.686 99.2633 144.175Z" fill="#665973"/>
    <path d="M66.2929 153.352C71.8653 154.789 84.4032 164.847 87.468 168.87C90.5329 172.893 86.6322 187.837 74.9301 186.4C63.228 184.963 51.8046 179.503 49.297 174.905C51.2473 157.376 60.7205 151.916 66.2929 153.352Z" fill="#444444"/>
    <path d="M49.2745 173.939C49.2745 173.939 41.1097 170.705 39.9836 168.646C29.0034 147.477 47.5852 143.949 50.6822 143.949C53.7791 143.949 63.3516 151.594 63.3516 151.594L49.2745 173.939Z" fill="#6B6B6B"/>
    <ellipse rx="7.87223" ry="8.2471" transform="matrix(-1 0 0 1 20.0555 145.636)" fill="#595959"/>
    <circle r="2.06177" transform="matrix(-1 0 0 1 19.8699 145.074)" fill="#333333"/>
    <path d="M88.0938 173.376C81.3444 165.507 74.5968 160.259 67.8509 157.632" stroke="#777777" stroke-width="2" stroke-linecap="round"/>
    <path d="M86.9707 178.999L61.6671 162.318" stroke="#777777" stroke-width="2" stroke-linecap="round"/>
    <path d="M82.8457 184.06C73.8453 180.602 64.1022 175.73 57.5421 170.378" stroke="#777777" stroke-width="2" stroke-linecap="round"/>
    <path d="M79.2852 186.497C70.1709 184.255 61.9195 181.898 57.5428 178.999" stroke="#777777" stroke-width="2" stroke-linecap="round"/>
    <path d="M73.3044 155.536C74.0314 154.696 74.0314 153.425 73.3044 152.584C71.2317 149.901 65.8814 146.386 63.0265 146.386C41.6142 156.127 45.8967 175.313 45.8967 175.313C45.8967 175.313 52.7486 185.348 59.315 182.101C51.8921 161.44 73.3044 155.536 73.3044 155.536Z" fill="#8C8C8C"/>
    </svg>
