<svg width="311" height="312" viewBox="0 0 311 312" fill="none" xmlns="http://www.w3.org/2000/svg">
	<g opacity="0.1">
		<path fill-rule="evenodd" clip-rule="evenodd" d="M131.485 312C204.102 312 256 294.193 256 272.226C256 250.259 204.102 245.327 131.485 245.327C58.8678 245.327 0 241.097 0 263.063C0 285.03 58.8678 312 131.485 312Z" fill="black" style="mix-blend-mode:multiply" />
	</g>
	<path fill-rule="evenodd" clip-rule="evenodd" d="M121 296C187.826 296 242 281.449 242 263.5C242 245.551 187.826 231 121 231C54.1735 231 0 245.551 0 263.5C0 281.449 54.1735 296 121 296Z" fill="black" />
	<path d="M250 149.038C252.376 145.587 272.371 117.258 293.971 120.216C296.039 120.501 302.094 121.331 305.543 125.905C311.301 133.546 305.654 146.171 301.685 152.072C292.964 165.034 277.544 167.511 273.914 168" stroke="#8C8C8C" stroke-width="5" />
	<path d="M148 213.412C148 213.412 184.502 213.014 184.105 259.181C187.676 243.659 198.388 247.241 196.008 236.098C190.056 227.342 190.453 222.168 196.008 222.566C219.416 224.954 217.433 209.432 217.433 209.432C217.433 209.432 228.145 201.871 232.509 213.412C236.874 224.954 210.688 236.496 210.688 246.445C210.688 256.395 205.133 278.284 193.627 286.244C182.304 294.077 164.432 289.467 164.539 293.176L148 213.412Z" fill="#8888A0" />
	<path d="M170.838 274.416C171.299 293.564 202.223 277.32 210.558 247.52C211.352 255.864 206.12 278.312 194.61 286.259C183.282 294.078 164.852 293.307 166.142 293C163.183 285.895 167.483 280.951 170.838 274.416Z" fill="#7F7F92" />
	<path d="M284.52 133L291 140.661L215.562 283.491C210.013 285.167 204.375 286.886 202 287L275.372 149.087L252.502 159.046L249.453 148.321L284.52 133Z" fill="#444444" />
	<path d="M144 150.082C144 150.082 159.057 141.496 168.536 159.196C174.51 170.44 173.988 171.727 173.988 178.183C173.988 184.638 163.862 182.74 163.862 182.74L144 150.082Z" fill="#353535" />
	<path d="M90.9746 163C90.9746 163 38.8898 109.898 82.2304 42.2781C89.0737 31.9633 104.281 22.7945 110.744 2.54688C112.645 -3.18359 115.306 2.54688 115.306 2.54688C115.306 2.54688 122.149 32.7273 117.207 57.1773C112.265 81.6273 105.421 88.5039 95.5368 112.572C85.6521 136.64 98.9584 153.449 98.9584 153.449L90.9746 163Z" fill="#E8E7ED" />
	<path d="M112.001 145C112.001 145 111.234 100.766 156.084 75.764C200.934 50.7621 210.133 50.3775 221.25 34.2224C225.083 29.222 227 34.2224 227 34.2224C227 34.2224 217.033 76.5333 194.417 94.6116C179.084 106.151 165.284 115.382 155.701 117.306C124.267 123.46 128.484 145 128.484 145H112.001Z" fill="#E8E7ED" />
	<path d="M96.3594 203C96.3594 203 85.2776 204.146 71.1388 219.814C57 235.482 57 279.81 57 279.81C57 279.81 58.9106 284.013 60.8213 289.745C114.319 298.534 152.532 294.713 173.55 289.745C185.013 250.767 152.532 209.114 152.532 209.114L96.3594 203Z" fill="#E8E7ED" />
	<path d="M57 269C57 269 57.8979 286.483 59.8137 292.264C112.938 298.144 151.743 296.013 172.222 293.133C175.672 285.624 176.456 278.932 175.776 270.927C162.803 280.948 67.2952 292.368 57 269Z" fill="#CDCCCC" />
	<path d="M85.0003 208.271C85.0003 208.271 84.6183 222.598 111.552 232.966C151.092 245.219 162.554 217.319 152.621 203.37C142.306 193.567 85.0003 208.271 85.0003 208.271Z" fill="#CDCCCC" />
	<path d="M78.9676 196.88C78.9676 196.88 83.9632 218.745 111.631 224.882C164.276 232.938 176.957 195.346 170.424 179.619C160.049 169.646 165.044 169.646 157.359 155.837C152.748 146.631 122.006 128.218 95.4913 147.398C68.5923 173.482 78.9676 196.88 78.9676 196.88Z" fill="#E8E7ED" />
	<path d="M76.8303 220.349C66.9257 215.857 61.1481 224.024 61.1481 224.024C61.1481 224.024 23.1805 264.447 33.9105 290.579C43.815 307.729 79.3065 301.196 90.4491 297.929C101.592 294.663 111.496 297.929 119.75 301.604C128.004 305.279 136.67 306.912 139.972 301.604C149.051 288.129 124.702 273.022 124.702 273.022C124.702 273.022 111.084 268.939 99.1156 275.88C87.1476 282.821 80.5445 266.489 67.3384 264.447C76.8303 259.547 94.9887 232.598 76.8303 220.349Z" fill="#8888A0" />
	<path d="M32 281C34.4815 309.635 79.5623 300.958 90.7291 297.487C101.896 294.016 111.822 297.487 120.094 301.392C128.365 305.296 137.051 307.032 140.359 301.392C144.035 295.335 140.386 288.469 140.386 288.469C140.497 289.79 139.953 301.521 98.5872 288.81C81.8577 296.328 54.5983 291.356 32 281Z" fill="#7F7F92" />
	<path d="M102.492 52C102.492 52 86.4517 79.36 78.6189 100.384C70.8733 121.17 82.4083 146.848 86.1978 148C84.682 127.648 91.503 100.768 99.4609 84.256C107.419 67.744 102.492 52 102.492 52Z" fill="#5F45BA" />
	<path d="M121 132C121 132 124.437 105.694 151.935 93.875C179.432 82.0562 197 71 197 71C197 71 185.543 98.45 162.628 105.312C139.714 112.175 121 132 121 132Z" fill="#5F45BA" />
	<path d="M81.1002 156C97.5103 156 94.8388 182.657 94.8388 182.657C94.8388 182.657 92.1674 207.41 76.5206 203.602C60.8738 199.794 62.0187 176.564 62.0187 176.564C62.0187 176.564 64.6901 156 81.1002 156Z" fill="#353535" />
	<path d="M172 166.892C169.707 146.281 158.866 148.389 158.866 148.389C158.866 148.389 149.694 119 118.359 119C80.5266 119 75.5588 163.655 75.5588 163.655C75.5588 163.655 61.4196 172.052 67.5338 186.937C70.9731 194.571 76.3231 196.479 82.4373 190.372C91.9909 178.54 85.8766 165.274 82.4373 165.419C103.455 104.878 153.898 132.358 151.987 147.625C161.659 149.915 168.461 156.083 172 166.892Z" fill="#777777" />
	<path d="M221.005 153.289C213.466 155.184 196.503 168.448 192.357 173.754C188.21 179.06 193.487 198.767 209.32 196.872C225.152 194.977 240.607 187.776 244 181.713C241.361 158.595 228.545 151.394 221.005 153.289Z" fill="#444444" />
	<path d="M245.907 180C245.907 180 256.874 175.794 258.386 173.118C273.134 145.588 248.176 141 244.017 141C239.857 141 227 150.941 227 150.941L245.907 180Z" fill="#6B6B6B" />
	<path d="M284 154C290.075 154 295 149.075 295 143C295 136.925 290.075 132 284 132C277.925 132 273 136.925 273 143C273 149.075 277.925 154 284 154Z" fill="#595959" />
	<path d="M284 145C285.657 145 287 143.657 287 142C287 140.343 285.657 139 284 139C282.343 139 281 140.343 281 142C281 143.657 282.343 145 284 145Z" fill="#333333" />
	<path d="M108.812 186C108.812 186 116.437 182.649 118.845 186C119.246 182.649 119.246 169.989 114.029 169.244C105.602 167.382 106.003 176.691 106.003 179.67C106.003 182.649 108.812 186 108.812 186Z" fill="#201442" />
	<path d="M147.08 182C147.08 182 143.648 175.276 144.03 170.794C145.555 165.191 149.75 166.311 152.801 170.794C154.708 174.156 155.47 177.144 154.708 179.385C150.513 177.144 147.08 182 147.08 182Z" fill="#201442" />
	<path d="M134 196.249C134 194 148.087 191 150.043 191C152 191 152 194 152 194C152 194 146.162 201.694 144.957 201.978C143.751 202.263 135.174 199.624 135.174 199.624C135.174 199.624 134 198.499 134 196.249Z" fill="#201442" />
	<path d="M107.591 204.601C104.553 204.282 106.04 212.045 112.287 214.702C118.534 217.36 129.116 211.665 129.116 211.665C129.116 211.665 117.344 210.429 107.591 204.601Z" fill="#201442" />
	<path d="M190 182C200.003 170.505 210.003 162.838 220 159" stroke="#777777" stroke-width="2" stroke-linecap="round" />
	<path d="M193 188L227 165" stroke="#777777" stroke-width="2" stroke-linecap="round" />
	<path d="M196 194C209.161 189.198 223.408 182.432 233 175" stroke="#777777" stroke-width="2" stroke-linecap="round" />
	<path d="M203 197C215.576 194.01 226.961 190.866 233 187" stroke="#777777" stroke-width="2" stroke-linecap="round" />
	<path d="M212.732 156.079C211.756 154.97 211.756 153.292 212.732 152.182C215.515 148.641 222.698 144 226.532 144C255.28 156.858 249.531 182.185 249.531 182.185C249.531 182.185 240.331 195.432 231.515 191.146C241.481 163.872 212.732 156.079 212.732 156.079Z" fill="#8C8C8C" />
</svg>
