<svg width="1440" height="587" viewBox="0 0 1440 587" fill="none" xmlns="http://www.w3.org/2000/svg">
	<rect width="1440" height="587" fill="url(#paint0_radial)" />
	<mask id="mask0" mask-type="alpha" maskUnits="userSpaceOnUse" x="0" y="0" width="1440" height="587">
		<rect width="1440" height="587" fill="white" />
	</mask>
	<g mask="url(#mask0)">
		<g opacity="0.6">
			<path opacity="0.5" d="M1076.52 543.523V254.152" stroke="#B88DFC" stroke-width="2" stroke-linecap="round" stroke-linejoin="round" />
			<path opacity="0.5" fill-rule="evenodd" clip-rule="evenodd" d="M1076.52 289.944C1059.73 289.944 1046.11 276.322 1046.11 259.525C1046.11 242.719 1059.73 229.105 1076.52 229.105C1093.33 229.105 1106.95 242.719 1106.95 259.525C1106.95 276.322 1093.33 289.944 1076.52 289.944Z" stroke="#B88DFC" stroke-width="2" />
			<path opacity="0.5" fill-rule="evenodd" clip-rule="evenodd" d="M1076.52 270.097C1070.58 270.097 1065.78 265.285 1065.78 259.353C1065.78 253.411 1070.58 248.599 1076.52 248.599C1082.47 248.599 1087.28 253.411 1087.28 259.353C1087.28 265.285 1082.47 270.097 1076.52 270.097Z" fill="#B88DFC" />
			<path opacity="0.5" d="M412 545V587" stroke="#B88DFC" stroke-width="2" />
			<path opacity="0.5" d="M1573.58 544.562H1678.69V413.036H1474.41V544.562H1369.31H196.601" stroke="#B88DFC" stroke-width="2" stroke-linecap="round" stroke-linejoin="round" />
			<path opacity="0.5" d="M286.476 421.352H56.1635" stroke="#B88DFC" stroke-width="2" stroke-linecap="round" stroke-linejoin="round" />
			<path opacity="0.5" fill-rule="evenodd" clip-rule="evenodd" d="M286.476 450.308C269.674 450.308 256.054 436.685 256.054 419.888C256.054 403.082 269.674 389.459 286.476 389.459C303.27 389.459 316.889 403.082 316.889 419.888C316.889 436.685 303.27 450.308 286.476 450.308Z" stroke="#B88DFC" stroke-width="2" />
			<path opacity="0.5" d="M286.476 419.887V300.828" stroke="#B88DFC" stroke-width="2" stroke-linecap="round" stroke-linejoin="round" />
			<path opacity="0.5" fill-rule="evenodd" clip-rule="evenodd" d="M292.205 296.984C289.04 300.149 283.905 300.149 280.741 296.984C277.567 293.81 277.567 288.683 280.741 285.509C283.905 282.344 289.04 282.344 292.205 285.509C295.378 288.683 295.378 293.81 292.205 296.984Z" fill="#B88DFC" />
			<path opacity="0.5" d="M286.476 421.352V544.557" stroke="#B88DFC" stroke-width="2" stroke-linecap="round" stroke-linejoin="round" />
			<path opacity="0.5" fill-rule="evenodd" clip-rule="evenodd" d="M292.205 427.09C289.04 430.255 283.905 430.255 280.741 427.09C277.567 423.916 277.567 418.789 280.741 415.624C283.905 412.45 289.04 412.45 292.205 415.624C295.378 418.789 295.378 423.916 292.205 427.09Z" fill="#B88DFC" />
			<path opacity="0.5" fill-rule="evenodd" clip-rule="evenodd" d="M185.846 555.317C179.906 555.317 175.095 550.495 175.095 544.563C175.095 538.621 179.906 533.818 185.846 533.818C191.786 533.818 196.598 538.621 196.598 544.563C196.598 550.495 191.786 555.317 185.846 555.317Z" fill="#B88DFC" />
			<path opacity="0.5" fill-rule="evenodd" clip-rule="evenodd" d="M51.577 467.561C25.2444 467.561 3.91747 446.211 3.91747 419.891C3.91747 393.553 25.2444 372.203 51.577 372.203C77.9003 372.203 99.2366 393.553 99.2366 419.891C99.2366 446.211 77.9003 467.561 51.577 467.561Z" stroke="#B88DFC" stroke-width="2" />
			<path opacity="0.5" fill-rule="evenodd" clip-rule="evenodd" d="M56.492 425.617C53.3276 428.791 48.2018 428.791 45.0282 425.617C41.8638 422.452 41.8638 417.325 45.0282 414.151C48.2018 410.986 53.3276 410.986 56.492 414.151C59.6656 417.325 59.6656 422.452 56.492 425.617Z" fill="#B88DFC" />
			<path opacity="0.5" fill-rule="evenodd" clip-rule="evenodd" d="M1179.3 384.228C1210.08 384.228 1235.03 409.178 1235.03 439.959C1235.03 470.749 1210.08 495.699 1179.3 495.699C1148.53 495.699 1123.59 470.749 1123.59 439.959C1123.59 409.178 1148.53 384.228 1179.3 384.228Z" stroke="#B88DFC" stroke-width="2" />
			<path opacity="0.5" fill-rule="evenodd" clip-rule="evenodd" d="M1383.59 431.847C1388.06 431.847 1391.7 435.484 1391.7 439.964C1391.7 444.443 1388.06 448.071 1383.59 448.071C1379.11 448.071 1375.48 444.443 1375.48 439.964C1375.48 435.484 1379.11 431.847 1383.59 431.847Z" fill="#B88DFC" />
			<path opacity="0.5" fill-rule="evenodd" clip-rule="evenodd" d="M1380.58 300.323C1385.05 300.323 1388.69 303.96 1388.69 308.439C1388.69 312.909 1385.05 316.546 1380.58 316.546C1376.1 316.546 1372.47 312.909 1372.47 308.439C1372.47 303.96 1376.1 300.323 1380.58 300.323Z" fill="#B88DFC" />
			<path opacity="0.5" fill-rule="evenodd" clip-rule="evenodd" d="M1281.44 297.683C1287.38 297.683 1292.2 302.505 1292.2 308.437C1292.2 314.379 1287.38 319.182 1281.44 319.182C1275.5 319.182 1270.7 314.379 1270.7 308.437C1270.7 302.505 1275.5 297.683 1281.44 297.683Z" fill="#B88DFC" />
			<path opacity="0.5" fill-rule="evenodd" clip-rule="evenodd" d="M1179.3 428.874C1185.25 428.874 1190.06 433.696 1190.06 439.628C1190.06 445.569 1185.25 450.372 1179.3 450.372C1173.36 450.372 1168.56 445.569 1168.56 439.628C1168.56 433.696 1173.36 428.874 1179.3 428.874Z" fill="#B88DFC" />
			<path opacity="0.5" d="M1284.42 308.438H1179.31V439.964H1383.59V308.438L1488.69 308.438L2661.4 308.438" stroke="#B88DFC" stroke-width="2" stroke-linecap="round" stroke-linejoin="round" />
			<path opacity="0.5" d="M-41 310H151.999V221.073H320.222V136.185H124.634V-26H405" stroke="#B88DFC" stroke-width="2" />
			<path opacity="0.5" fill-rule="evenodd" clip-rule="evenodd" d="M81.3666 135.385C81.3666 159.787 101.137 179.566 125.523 179.566C149.908 179.566 169.679 159.787 169.679 135.385C169.679 110.99 149.908 91.2109 125.523 91.2109C101.137 91.2109 81.3666 110.99 81.3666 135.385Z" stroke="#B88DFC" stroke-width="2" />
			<path opacity="0.5" fill-rule="evenodd" clip-rule="evenodd" d="M706.098 153.091C706.098 166.408 716.889 177.204 730.201 177.204C743.506 177.204 754.304 166.408 754.304 153.091C754.304 139.78 743.506 128.978 730.201 128.978C716.889 128.978 706.098 139.78 706.098 153.091Z" stroke="#B88DFC" stroke-width="2" />
			<path opacity="0.5" d="M775.847 56.7771H731.303V153.091H653.677V52.0622H598.323V-225.335H696.166V-42.2291" stroke="#B88DFC" stroke-width="2" stroke-linecap="round" stroke-linejoin="round" />
			<path opacity="0.5" d="M985.396 56.777H757.637" stroke="#B88DFC" stroke-width="2" stroke-linecap="round" stroke-linejoin="round" />
			<path opacity="0.5" d="M405.614 -26.5511V-109.869H486.03V52.0655H405.614V135.384V287.186" stroke="#B88DFC" stroke-width="2" stroke-linecap="round" stroke-linejoin="round" />
			<path opacity="0.5" fill-rule="evenodd" clip-rule="evenodd" d="M553.753 52.0635C553.753 76.4653 573.524 96.2442 597.91 96.2442C622.295 96.2442 642.066 76.4653 642.066 52.0635C642.066 27.6682 622.295 7.88928 597.91 7.88928C573.524 7.88928 553.753 27.6682 553.753 52.0635Z" stroke="#B88DFC" stroke-width="2" />
			<path opacity="0.5" fill-rule="evenodd" clip-rule="evenodd" d="M923.89 54.9043C923.89 88.2434 950.908 115.272 984.234 115.272C1017.57 115.272 1044.58 88.2434 1044.58 54.9043C1044.58 21.5652 1017.57 -5.46338 984.234 -5.46338C950.908 -5.46338 923.89 21.5652 923.89 54.9043Z" stroke="#B88DFC" stroke-width="2" />
			<path opacity="0.5" fill-rule="evenodd" clip-rule="evenodd" d="M723.771 153.091C723.771 156.643 726.646 159.52 730.197 159.52C733.748 159.52 736.623 156.643 736.623 153.091C736.623 149.545 733.748 146.662 730.197 146.662C726.646 146.662 723.771 149.545 723.771 153.091Z" fill="#B88DFC" />
			<path opacity="0.5" fill-rule="evenodd" clip-rule="evenodd" d="M479.607 52.0634C479.607 55.616 482.482 58.4922 486.033 58.4922C489.584 58.4922 492.459 55.616 492.459 52.0634C492.459 48.5174 489.584 45.6346 486.033 45.6346C482.482 45.6346 479.607 48.5174 479.607 52.0634Z" fill="#B88DFC" />
			<path opacity="0.5" fill-rule="evenodd" clip-rule="evenodd" d="M399.184 49.6844C399.184 53.2304 402.059 56.1132 405.61 56.1132C409.162 56.1132 412.037 53.2304 412.037 49.6844C412.037 46.1318 409.162 43.2556 405.61 43.2556C402.059 43.2556 399.184 46.1318 399.184 49.6844Z" fill="#B88DFC" />
			<path opacity="0.5" fill-rule="evenodd" clip-rule="evenodd" d="M590.612 52.0635C590.612 56.7718 594.426 60.5871 599.132 60.5871C603.838 60.5871 607.652 56.7718 607.652 52.0635C607.652 47.3552 603.838 43.5465 599.132 43.5465C594.426 43.5465 590.612 47.3552 590.612 52.0635Z" fill="#B88DFC" />
			<path opacity="0.5" fill-rule="evenodd" clip-rule="evenodd" d="M400.396 281.969C397.882 284.484 397.882 288.549 400.396 291.064C402.903 293.572 406.973 293.572 409.481 291.064C411.995 288.549 411.995 284.484 409.481 281.969C406.973 279.461 402.903 279.461 400.396 281.969Z" fill="#B88DFC" />
			<path opacity="0.5" d="M984.236 -98.6758V258.284H1081.95" stroke="#B88DFC" stroke-width="2" stroke-linecap="round" stroke-linejoin="round" />
			<path opacity="0.5" fill-rule="evenodd" clip-rule="evenodd" d="M979.691 53.3971C977.184 55.9056 977.184 59.977 979.691 62.4855C982.205 65.0005 986.268 65.0005 988.782 62.4855C991.29 59.977 991.29 55.9056 988.782 53.3971C986.268 50.8821 982.205 50.8821 979.691 53.3971Z" fill="#B88DFC" />
			<path opacity="0.5" fill-rule="evenodd" clip-rule="evenodd" d="M1033.26 258.286C1033.26 282.681 1053.03 302.46 1077.42 302.46C1101.8 302.46 1121.57 282.681 1121.57 258.286C1121.57 233.884 1101.8 214.105 1077.42 214.105C1053.03 214.105 1033.26 233.884 1033.26 258.286Z" stroke="#B88DFC" stroke-width="2" />
			<path opacity="0.5" d="M913.249 258.286H984.233" stroke="#B88DFC" stroke-width="2" stroke-linecap="round" stroke-linejoin="round" />
			<path opacity="0.5" fill-rule="evenodd" clip-rule="evenodd" d="M900.397 258.286C900.397 261.832 903.272 264.715 906.823 264.715C910.374 264.715 913.249 261.832 913.249 258.286C913.249 254.734 910.374 251.857 906.823 251.857C903.272 251.857 900.397 254.734 900.397 258.286Z" fill="#B88DFC" />
			<path opacity="0.5" fill-rule="evenodd" clip-rule="evenodd" d="M316.082 132.384C313.568 134.893 313.568 138.964 316.082 141.472C318.59 143.987 322.659 143.987 325.167 141.472C327.681 138.964 327.681 134.893 325.167 132.384C322.659 129.869 318.59 129.869 316.082 132.384Z" fill="#B88DFC" />
			<path opacity="0.5" fill-rule="evenodd" clip-rule="evenodd" d="M316.082 217.142C313.568 219.65 313.568 223.722 316.082 226.23C318.59 228.745 322.659 228.745 325.167 226.23C327.681 223.722 327.681 219.65 325.167 217.142C322.659 214.627 318.59 214.627 316.082 217.142Z" fill="#B88DFC" />
			<path opacity="0.5" d="M1324.6 103.223H1552.36" stroke="#B88DFC" stroke-width="2" stroke-linecap="round" stroke-linejoin="round" />
			<path opacity="0.5" fill-rule="evenodd" clip-rule="evenodd" d="M1386.11 105.096C1386.11 71.7566 1359.09 44.728 1325.77 44.728C1292.43 44.728 1265.42 71.7566 1265.42 105.096C1265.42 138.435 1292.43 165.463 1325.77 165.463C1359.09 165.463 1386.11 138.435 1386.11 105.096Z" stroke="#B88DFC" stroke-width="2" />
			<path opacity="0.5" d="M1325.76 258.676V-98.2835H1228.05" stroke="#B88DFC" stroke-width="2" stroke-linecap="round" stroke-linejoin="round" />
			<path opacity="0.5" fill-rule="evenodd" clip-rule="evenodd" d="M1330.31 106.603C1332.82 104.094 1332.82 100.023 1330.31 97.5145C1327.79 94.9995 1323.73 94.9995 1321.22 97.5145C1318.71 100.023 1318.71 104.094 1321.22 106.603C1323.73 109.118 1327.79 109.118 1330.31 106.603Z" fill="#B88DFC" />
			<path opacity="0.5" fill-rule="evenodd" clip-rule="evenodd" d="M1348.71 258.676C1348.71 245.365 1337.91 234.563 1324.6 234.563C1311.29 234.563 1300.5 245.365 1300.5 258.676C1300.5 271.993 1311.29 282.789 1324.6 282.789C1337.91 282.789 1348.71 271.993 1348.71 258.676Z" stroke="#B88DFC" stroke-width="2" />
			<path opacity="0.5" d="M1324.6 258.676H1230.28" stroke="#B88DFC" stroke-width="2" stroke-linecap="round" stroke-linejoin="round" />
			<path opacity="0.5" fill-rule="evenodd" clip-rule="evenodd" d="M1330.31 263.222C1332.82 260.713 1332.82 256.642 1330.31 254.134C1327.79 251.619 1323.73 251.619 1321.22 254.134C1318.71 256.642 1318.71 260.713 1321.22 263.222C1323.73 265.737 1327.79 265.737 1330.31 263.222Z" fill="#B88DFC" />
			<path opacity="0.5" fill-rule="evenodd" clip-rule="evenodd" d="M1227.23 263.222C1229.75 260.713 1229.75 256.642 1227.23 254.134C1224.73 251.619 1220.66 251.619 1218.15 254.134C1215.63 256.642 1215.63 260.713 1218.15 263.222C1220.66 265.737 1224.73 265.737 1227.23 263.222Z" fill="#B88DFC" />
		</g>
	</g>
	<defs>
		<radialGradient id="paint0_radial" cx="0" cy="0" r="1" gradientUnits="userSpaceOnUse" gradientTransform="translate(720 427.257) rotate(90) scale(891.043 2185.86)">
			<stop stop-color="#8C61E1" />
			<stop offset="0.496674" stop-color="#4F39A8" />
			<stop offset="1" stop-color="#3B146A" />
		</radialGradient>
	</defs>
</svg>
