<svg width="259" height="126" viewBox="0 0 259 126" fill="none" xmlns="http://www.w3.org/2000/svg">
	<g style="mix-blend-mode: multiply;" opacity="0.6">
		<circle cx="102.005" cy="156.005" r="154.005" fill="#3b146a" />
	</g>
	<circle cx="102.005" cy="156.005" r="155.005" stroke="#8C61E1" stroke-width="2" />
	<g>
		<path d="M99.0153 64.9892C102.97 64.9863 106.836 63.811 110.122 61.612C113.409 59.413 115.971 56.2891 117.482 52.6351C118.993 48.9811 119.387 44.9611 118.614 41.0833C117.84 37.2055 115.934 33.6441 113.137 30.8491C110.339 28.0542 106.776 26.1513 102.896 25.381C99.0172 24.6107 94.9967 25.0075 91.3431 26.5214C87.6895 28.0353 84.5668 30.5982 82.3699 33.8861C80.173 37.1741 79.0004 41.0394 79.0004 44.9936C78.9999 47.6208 79.5173 50.2225 80.5232 52.6497C81.529 55.0769 83.0036 57.282 84.8624 59.1391C86.7213 60.9962 88.928 62.4687 91.3565 63.4725C93.785 64.4763 96.3875 64.9917 99.0153 64.9892Z" fill="url(#paint0_linear)" />
		<circle cx="99.0004" cy="44.9979" r="17.6" fill="url(#paint1_radial)" />
		<g filter="url(#filter1_d)">
			<path d="M93.8359 38.0912V51.9046C93.8359 52.9579 94.9959 53.5979 95.8893 53.0246L106.743 46.1179C107.569 45.5979 107.569 44.3979 106.743 43.8646L95.8893 36.9712C94.9959 36.3979 93.8359 37.0379 93.8359 38.0912Z" fill="url(#paint2_linear)" />
		</g>
	</g>
	<path d="M56.8966 88.034C56.5339 88.034 56.2449 87.9263 56.0296 87.711C55.8256 87.4957 55.7236 87.2067 55.7236 86.844V77.681C55.8142 77.6583 55.9559 77.63 56.1486 77.596C56.3526 77.562 56.5509 77.545 56.7436 77.545C57.1516 77.545 57.4519 77.6187 57.6446 77.766C57.8372 77.9133 57.9336 78.1853 57.9336 78.582V86.215H62.3026C62.3592 86.3057 62.4159 86.4303 62.4726 86.589C62.5292 86.7363 62.5576 86.9007 62.5576 87.082C62.5576 87.388 62.4839 87.626 62.3366 87.796C62.2006 87.9547 62.0079 88.034 61.7586 88.034H56.8966ZM64.1868 80.01C64.2774 79.9873 64.4078 79.959 64.5778 79.925C64.7591 79.891 64.9518 79.874 65.1558 79.874C65.5638 79.874 65.8584 79.9477 66.0398 80.095C66.2324 80.2423 66.3288 80.503 66.3288 80.877V87.983C66.2381 88.0057 66.1021 88.034 65.9208 88.068C65.7508 88.102 65.5638 88.119 65.3598 88.119C64.9518 88.119 64.6514 88.0453 64.4588 87.898C64.2774 87.7507 64.1868 87.49 64.1868 87.116V80.01ZM64.0168 77.545C64.0168 77.2163 64.1301 76.9387 64.3568 76.712C64.5948 76.474 64.8951 76.355 65.2578 76.355C65.6204 76.355 65.9151 76.474 66.1418 76.712C66.3684 76.9387 66.4818 77.2163 66.4818 77.545C66.4818 77.885 66.3684 78.174 66.1418 78.412C65.9151 78.6387 65.6204 78.752 65.2578 78.752C64.8951 78.752 64.5948 78.6387 64.3568 78.412C64.1301 78.174 64.0168 77.885 64.0168 77.545ZM74.824 85.722C74.824 86.5153 74.5293 87.1387 73.94 87.592C73.3506 88.034 72.4893 88.255 71.356 88.255C70.8913 88.255 70.4663 88.221 70.081 88.153C69.707 88.085 69.3783 87.9887 69.095 87.864C68.823 87.728 68.6076 87.5693 68.449 87.388C68.3016 87.1953 68.228 86.9857 68.228 86.759C68.228 86.5437 68.2733 86.3567 68.364 86.198C68.466 86.0393 68.5963 85.909 68.755 85.807C69.0723 86.011 69.435 86.1923 69.843 86.351C70.2623 86.5097 70.744 86.589 71.288 86.589C71.7526 86.589 72.104 86.5153 72.342 86.368C72.58 86.2093 72.699 85.994 72.699 85.722C72.699 85.2573 72.359 84.9513 71.679 84.804L70.727 84.583C69.8883 84.3903 69.265 84.1013 68.857 83.716C68.4603 83.3307 68.262 82.815 68.262 82.169C68.262 81.4323 68.5566 80.8373 69.146 80.384C69.7353 79.9193 70.5626 79.687 71.628 79.687C72.036 79.687 72.41 79.721 72.75 79.789C73.1013 79.8457 73.4016 79.9363 73.651 80.061C73.9116 80.1743 74.11 80.316 74.246 80.486C74.3933 80.6447 74.467 80.8317 74.467 81.047C74.467 81.251 74.4216 81.4323 74.331 81.591C74.2403 81.7383 74.1326 81.8573 74.008 81.948C73.906 81.88 73.77 81.812 73.6 81.744C73.4413 81.676 73.26 81.6137 73.056 81.557C72.8633 81.5003 72.6536 81.455 72.427 81.421C72.2116 81.3757 71.9963 81.353 71.781 81.353C71.339 81.353 70.9933 81.4267 70.744 81.574C70.4946 81.71 70.37 81.9083 70.37 82.169C70.37 82.3617 70.438 82.5203 70.574 82.645C70.7213 82.7697 70.9706 82.8717 71.322 82.951L72.155 83.155C73.0956 83.3703 73.7756 83.6877 74.195 84.107C74.6143 84.515 74.824 85.0533 74.824 85.722ZM78.6953 85.501C78.6953 85.8637 78.803 86.1243 79.0183 86.283C79.245 86.4417 79.5567 86.521 79.9533 86.521C80.146 86.521 80.3387 86.4983 80.5313 86.453C80.7353 86.4077 80.9167 86.351 81.0753 86.283C81.166 86.3737 81.2397 86.487 81.2963 86.623C81.3643 86.7477 81.3983 86.895 81.3983 87.065C81.3983 87.405 81.2453 87.6883 80.9393 87.915C80.6333 88.1303 80.1403 88.238 79.4603 88.238C78.565 88.238 77.8567 88.0397 77.3353 87.643C76.8253 87.235 76.5703 86.5663 76.5703 85.637V77.834C76.661 77.8113 76.7913 77.783 76.9613 77.749C77.1427 77.715 77.3353 77.698 77.5393 77.698C77.936 77.698 78.225 77.7717 78.4063 77.919C78.599 78.0663 78.6953 78.327 78.6953 78.701V80.112H81.1943C81.251 80.2027 81.302 80.3217 81.3473 80.469C81.3927 80.6163 81.4153 80.775 81.4153 80.945C81.4153 81.2397 81.3473 81.455 81.2113 81.591C81.0753 81.727 80.894 81.795 80.6673 81.795H78.6953V85.501ZM84.6789 84.94C84.8376 85.518 85.1323 85.9373 85.5629 86.198C85.9936 86.4587 86.5263 86.589 87.1609 86.589C87.6369 86.589 88.0733 86.521 88.4699 86.385C88.8779 86.2377 89.2066 86.0847 89.4559 85.926C89.6146 86.0167 89.7449 86.1413 89.8469 86.3C89.9489 86.4587 89.9999 86.6287 89.9999 86.81C89.9999 87.0367 89.9206 87.2407 89.7619 87.422C89.6146 87.592 89.4049 87.7393 89.1329 87.864C88.8723 87.9887 88.5606 88.085 88.1979 88.153C87.8353 88.221 87.4443 88.255 87.0249 88.255C86.3563 88.255 85.7443 88.1643 85.1889 87.983C84.6449 87.8017 84.1746 87.5297 83.7779 87.167C83.3926 86.793 83.0866 86.334 82.8599 85.79C82.6446 85.246 82.5369 84.6113 82.5369 83.886C82.5369 83.1833 82.6446 82.5713 82.8599 82.05C83.0753 81.5287 83.3643 81.0923 83.7269 80.741C84.1009 80.3897 84.5316 80.129 85.0189 79.959C85.5063 79.789 86.0219 79.704 86.5659 79.704C87.1213 79.704 87.6313 79.7947 88.0959 79.976C88.5606 80.146 88.9573 80.3897 89.2859 80.707C89.6146 81.013 89.8696 81.387 90.0509 81.829C90.2436 82.2597 90.3399 82.73 90.3399 83.24C90.3399 83.5573 90.2549 83.7953 90.0849 83.954C89.9263 84.1127 89.6996 84.2147 89.4049 84.26L84.6789 84.94ZM86.5659 81.319C86.0106 81.319 85.5459 81.506 85.1719 81.88C84.7979 82.2427 84.5883 82.764 84.5429 83.444L88.3169 82.883C88.2716 82.4637 88.1073 82.101 87.8239 81.795C87.5406 81.4777 87.1213 81.319 86.5659 81.319ZM97.347 82.815C97.347 82.3277 97.2053 81.9707 96.922 81.744C96.65 81.5173 96.276 81.404 95.8 81.404C95.4713 81.404 95.1653 81.4437 94.882 81.523C94.61 81.6023 94.372 81.7043 94.168 81.829V87.983C94.066 88.0057 93.93 88.034 93.76 88.068C93.59 88.102 93.3973 88.119 93.182 88.119C92.7853 88.119 92.4907 88.0453 92.298 87.898C92.1053 87.7507 92.009 87.49 92.009 87.116V81.659C92.009 81.387 92.0657 81.166 92.179 80.996C92.2923 80.826 92.468 80.6617 92.706 80.503C93.0347 80.2763 93.471 80.0893 94.015 79.942C94.559 79.7833 95.1597 79.704 95.817 79.704C96.9843 79.704 97.8853 79.9647 98.52 80.486C99.166 80.996 99.489 81.7497 99.489 82.747V87.983C99.3983 88.0057 99.2623 88.034 99.081 88.068C98.911 88.102 98.724 88.119 98.52 88.119C98.112 88.119 97.8117 88.0453 97.619 87.898C97.4377 87.7507 97.347 87.49 97.347 87.116V82.815ZM106.435 88.119C106.015 88.119 105.721 88.0453 105.551 87.898C105.381 87.7393 105.296 87.4787 105.296 87.116V78.055C105.42 77.8963 105.602 77.7717 105.84 77.681C106.089 77.5903 106.361 77.545 106.656 77.545C107.007 77.545 107.319 77.6073 107.591 77.732C107.874 77.8567 108.123 78.106 108.339 78.48L110.787 82.883C111.013 83.291 111.229 83.716 111.433 84.158C111.648 84.5887 111.835 84.9853 111.994 85.348L112.062 85.331C112.005 84.6623 111.965 84.0163 111.943 83.393C111.931 82.7583 111.926 82.135 111.926 81.523V77.664C112.016 77.6413 112.152 77.6187 112.334 77.596C112.526 77.562 112.719 77.545 112.912 77.545C113.331 77.545 113.626 77.6243 113.796 77.783C113.977 77.9303 114.068 78.1853 114.068 78.548V87.728C113.943 87.8527 113.762 87.949 113.524 88.017C113.297 88.085 113.025 88.119 112.708 88.119C112.368 88.119 112.056 88.0623 111.773 87.949C111.501 87.8243 111.257 87.575 111.042 87.201L108.594 82.798C108.367 82.4013 108.146 81.982 107.931 81.54C107.727 81.0867 107.545 80.6787 107.387 80.316L107.285 80.333C107.341 80.9563 107.375 81.5967 107.387 82.254C107.409 82.9113 107.421 83.5347 107.421 84.124V87.983C107.33 88.0057 107.194 88.034 107.013 88.068C106.831 88.102 106.639 88.119 106.435 88.119ZM124.385 83.971C124.385 84.6283 124.283 85.2233 124.079 85.756C123.887 86.2773 123.609 86.725 123.246 87.099C122.884 87.473 122.447 87.762 121.937 87.966C121.427 88.1587 120.855 88.255 120.22 88.255C119.586 88.255 119.013 88.1587 118.503 87.966C117.993 87.762 117.557 87.4787 117.194 87.116C116.832 86.742 116.548 86.2943 116.344 85.773C116.152 85.2403 116.055 84.6397 116.055 83.971C116.055 83.3137 116.152 82.7243 116.344 82.203C116.548 81.6703 116.832 81.2227 117.194 80.86C117.568 80.486 118.01 80.2027 118.52 80.01C119.03 79.806 119.597 79.704 120.22 79.704C120.844 79.704 121.41 79.806 121.92 80.01C122.43 80.2027 122.867 80.486 123.229 80.86C123.603 81.234 123.887 81.6873 124.079 82.22C124.283 82.7413 124.385 83.325 124.385 83.971ZM120.22 81.404C119.608 81.404 119.127 81.6307 118.775 82.084C118.424 82.526 118.248 83.155 118.248 83.971C118.248 84.7983 118.418 85.433 118.758 85.875C119.11 86.317 119.597 86.538 120.22 86.538C120.844 86.538 121.325 86.317 121.665 85.875C122.017 85.4217 122.192 84.787 122.192 83.971C122.192 83.155 122.017 82.526 121.665 82.084C121.314 81.6307 120.832 81.404 120.22 81.404ZM131.499 82.781C131.375 83.2457 131.239 83.716 131.091 84.192C130.955 84.668 130.814 85.1327 130.666 85.586C130.53 86.028 130.394 86.4417 130.258 86.827C130.134 87.2123 130.026 87.541 129.935 87.813C129.811 87.9037 129.652 87.9773 129.459 88.034C129.267 88.102 129.023 88.136 128.728 88.136C128.4 88.136 128.111 88.0907 127.861 88C127.623 87.898 127.459 87.7507 127.368 87.558C127.232 87.286 127.079 86.8553 126.909 86.266C126.739 85.6653 126.564 85.0137 126.382 84.311C126.201 83.597 126.031 82.8773 125.872 82.152C125.725 81.4153 125.6 80.775 125.498 80.231C125.612 80.1177 125.765 80.0157 125.957 79.925C126.161 79.823 126.382 79.772 126.62 79.772C126.938 79.772 127.187 79.8513 127.368 80.01C127.55 80.1573 127.669 80.401 127.725 80.741C127.941 82.101 128.145 83.257 128.337 84.209C128.53 85.1497 128.666 85.79 128.745 86.13H128.813C128.859 85.9373 128.932 85.654 129.034 85.28C129.148 84.906 129.272 84.4753 129.408 83.988C129.556 83.5007 129.709 82.9793 129.867 82.424C130.037 81.8687 130.207 81.3077 130.377 80.741C130.536 80.6503 130.7 80.5823 130.87 80.537C131.052 80.4803 131.261 80.452 131.499 80.452C131.805 80.452 132.06 80.503 132.264 80.605C132.48 80.707 132.621 80.86 132.689 81.064C132.859 81.608 133.018 82.1407 133.165 82.662C133.324 83.1833 133.466 83.6707 133.59 84.124C133.715 84.566 133.823 84.9627 133.913 85.314C134.015 85.6653 134.095 85.9373 134.151 86.13H134.236C134.429 85.1893 134.627 84.209 134.831 83.189C135.047 82.169 135.228 81.115 135.375 80.027C135.511 79.9477 135.664 79.8853 135.834 79.84C136.004 79.7947 136.174 79.772 136.344 79.772C136.639 79.772 136.877 79.84 137.058 79.976C137.251 80.112 137.347 80.333 137.347 80.639C137.347 80.7977 137.313 81.0583 137.245 81.421C137.177 81.7723 137.087 82.1803 136.973 82.645C136.871 83.0983 136.752 83.5857 136.616 84.107C136.492 84.617 136.361 85.1157 136.225 85.603C136.089 86.079 135.959 86.5153 135.834 86.912C135.71 87.2973 135.602 87.5977 135.511 87.813C135.398 87.9037 135.222 87.9773 134.984 88.034C134.758 88.102 134.508 88.136 134.236 88.136C133.522 88.136 133.097 87.9603 132.961 87.609C132.871 87.3597 132.763 87.0537 132.638 86.691C132.514 86.3283 132.383 85.9317 132.247 85.501C132.123 85.0703 131.992 84.6227 131.856 84.158C131.732 83.6933 131.613 83.2343 131.499 82.781ZM141.338 78.31C141.338 78.616 141.332 79.024 141.321 79.534C141.309 80.0327 141.292 80.571 141.27 81.149C141.247 81.7157 141.213 82.2937 141.168 82.883C141.134 83.461 141.088 83.9767 141.032 84.43C140.941 84.498 140.811 84.5547 140.641 84.6C140.482 84.634 140.335 84.651 140.199 84.651C139.961 84.651 139.757 84.6113 139.587 84.532C139.428 84.4413 139.332 84.2827 139.298 84.056C139.264 83.7613 139.23 83.3477 139.196 82.815C139.162 82.271 139.133 81.693 139.111 81.081C139.088 80.4577 139.071 79.84 139.06 79.228C139.048 78.6047 139.043 78.0663 139.043 77.613C139.405 77.3977 139.808 77.29 140.25 77.29C140.59 77.29 140.856 77.375 141.049 77.545C141.241 77.715 141.338 77.97 141.338 78.31ZM138.907 86.963C138.907 86.589 139.026 86.283 139.264 86.045C139.502 85.7957 139.819 85.671 140.216 85.671C140.612 85.671 140.93 85.7957 141.168 86.045C141.406 86.283 141.525 86.589 141.525 86.963C141.525 87.337 141.406 87.6487 141.168 87.898C140.93 88.136 140.612 88.255 140.216 88.255C139.819 88.255 139.502 88.136 139.264 87.898C139.026 87.6487 138.907 87.337 138.907 86.963Z" fill="white" />
	<defs>
		<filter id="filter1_d" x="91.8359" y="35.756" width="17.5266" height="20.4837" filterUnits="userSpaceOnUse" color-interpolation-filters="sRGB">
			<feFlood flood-opacity="0" result="BackgroundImageFix" />
			<feColorMatrix in="SourceAlpha" type="matrix" values="0 0 0 0 0 0 0 0 0 0 0 0 0 0 0 0 0 0 127 0" />
			<feOffset dy="1" />
			<feGaussianBlur stdDeviation="1" />
			<feColorMatrix type="matrix" values="0 0 0 0 0.231373 0 0 0 0 0.0784314 0 0 0 0 0.415686 0 0 0 0.37 0" />
			<feBlend mode="normal" in2="BackgroundImageFix" result="effect1_dropShadow" />
			<feBlend mode="normal" in="SourceGraphic" in2="effect1_dropShadow" result="shape" />
		</filter>
		<linearGradient id="paint0_linear" x1="117.891" y1="70.6639" x2="74.9263" y2="12.2129" gradientUnits="userSpaceOnUse">
			<stop stop-color="#E8DDFD" />
			<stop offset="1" stop-color="#8C61E1" />
		</linearGradient>
		<radialGradient id="paint1_radial" cx="0" cy="0" r="1" gradientUnits="userSpaceOnUse" gradientTransform="translate(99.0004 44.9979) rotate(90) scale(17.6)">
			<stop offset="0.4375" stop-color="#B88DFC" />
			<stop offset="1" stop-color="#8C61E1" />
		</radialGradient>
		<linearGradient id="paint2_linear" x1="99.9229" y1="37.1681" x2="100.926" y2="53.6319" gradientUnits="userSpaceOnUse">
			<stop stop-color="white" />
			<stop offset="1" stop-color="#E9E7E7" />
		</linearGradient>
	</defs>
</svg>
