<svg width="222" height="133" viewBox="0 0 222 133" fill="none" xmlns="http://www.w3.org/2000/svg">
	<g style="mix-blend-mode:multiply" opacity="0.6">
		<circle cx="156.005" cy="163.005" r="154.005" fill="#3b146a" />
	</g>
	<circle cx="156.005" cy="163.005" r="155.005" stroke="#8C61E1" stroke-width="2" />
	<g filter="url(#filter0_d)">
		<path d="M122.769 63.7874V66.0062C122.712 66.0277 122.637 66.0455 122.544 66.0598C122.451 66.0813 122.347 66.092 122.233 66.092C122.012 66.092 121.851 66.0527 121.751 65.9741C121.658 65.8883 121.611 65.749 121.611 65.556V60.0251C121.611 59.9036 121.643 59.8107 121.708 59.7464C121.779 59.6749 121.876 59.6213 121.997 59.5856C122.219 59.507 122.483 59.4534 122.79 59.4248C123.098 59.3962 123.387 59.382 123.659 59.382C124.588 59.382 125.274 59.5785 125.717 59.9715C126.167 60.3645 126.392 60.8969 126.392 61.5686C126.392 62.2403 126.167 62.7798 125.717 63.1872C125.274 63.5873 124.609 63.7874 123.723 63.7874H122.769ZM123.648 62.8549C124.141 62.8549 124.527 62.7477 124.806 62.5333C125.091 62.3189 125.234 61.9974 125.234 61.5686C125.234 61.1399 125.099 60.8254 124.827 60.6253C124.563 60.4253 124.18 60.3252 123.68 60.3252C123.516 60.3252 123.351 60.3324 123.187 60.3467C123.03 60.3609 122.887 60.3788 122.758 60.4002V62.8549H123.648Z" fill="white" />
		<path d="M128.501 66.0062C128.451 66.0277 128.38 66.0455 128.287 66.0598C128.201 66.0813 128.104 66.092 127.997 66.092C127.79 66.092 127.636 66.0527 127.536 65.9741C127.436 65.8955 127.386 65.7633 127.386 65.5775V62.0617C127.386 61.883 127.422 61.7401 127.493 61.6329C127.565 61.5186 127.679 61.4114 127.836 61.3114C128.044 61.1827 128.308 61.0755 128.63 60.9898C128.951 60.904 129.305 60.8612 129.691 60.8612C130.32 60.8612 130.634 61.0398 130.634 61.3971C130.634 61.4829 130.62 61.565 130.591 61.6436C130.563 61.7151 130.53 61.7794 130.495 61.8366C130.423 61.8223 130.334 61.808 130.227 61.7937C130.12 61.7794 130.005 61.7723 129.884 61.7723C129.598 61.7723 129.337 61.8044 129.101 61.8687C128.865 61.9259 128.665 62.0009 128.501 62.0938V66.0062Z" fill="white" />
		<path d="M132.305 64.0876C132.406 64.4949 132.598 64.7986 132.884 64.9987C133.177 65.1916 133.549 65.2881 133.999 65.2881C134.299 65.2881 134.574 65.2416 134.824 65.1487C135.075 65.0558 135.275 64.9558 135.425 64.8486C135.625 64.9629 135.725 65.1237 135.725 65.331C135.725 65.4524 135.678 65.5668 135.585 65.674C135.493 65.774 135.364 65.8633 135.2 65.9419C135.042 66.0134 134.853 66.0706 134.631 66.1134C134.417 66.1563 134.185 66.1777 133.935 66.1777C133.52 66.1777 133.142 66.1206 132.799 66.0062C132.463 65.8919 132.173 65.7204 131.93 65.4917C131.687 65.2631 131.498 64.9808 131.362 64.6449C131.234 64.3091 131.169 63.9196 131.169 63.4766C131.169 63.0478 131.234 62.6727 131.362 62.3511C131.491 62.0224 131.666 61.7508 131.887 61.5365C132.109 61.3149 132.37 61.147 132.67 61.0327C132.97 60.9183 133.292 60.8612 133.635 60.8612C133.978 60.8612 134.288 60.9183 134.567 61.0327C134.853 61.1399 135.096 61.2935 135.296 61.4936C135.503 61.6865 135.66 61.9188 135.768 62.1903C135.882 62.4619 135.939 62.7584 135.939 63.08C135.939 63.2586 135.896 63.3908 135.811 63.4766C135.725 63.5552 135.6 63.6088 135.435 63.6374L132.305 64.0876ZM133.635 61.7294C133.242 61.7294 132.913 61.8616 132.648 62.126C132.391 62.3904 132.255 62.7691 132.241 63.2622L134.878 62.887C134.849 62.5655 134.732 62.2939 134.524 62.0724C134.317 61.8437 134.02 61.7294 133.635 61.7294Z" fill="white" />
		<path d="M140.873 64.6449C140.873 65.1237 140.694 65.4989 140.337 65.7704C139.979 66.042 139.461 66.1777 138.782 66.1777C138.504 66.1777 138.246 66.1563 138.011 66.1134C137.775 66.0706 137.571 66.0098 137.4 65.9312C137.235 65.8526 137.107 65.7597 137.014 65.6525C136.921 65.5453 136.874 65.4274 136.874 65.2988C136.874 65.1916 136.899 65.0916 136.949 64.9987C137.007 64.9058 137.082 64.8307 137.175 64.7736C137.375 64.9022 137.603 65.0201 137.861 65.1273C138.118 65.2345 138.418 65.2881 138.761 65.2881C139.082 65.2881 139.329 65.2345 139.501 65.1273C139.672 65.013 139.758 64.8522 139.758 64.6449C139.758 64.4663 139.697 64.3234 139.576 64.2162C139.461 64.109 139.29 64.0268 139.061 63.9696L138.332 63.7767C137.846 63.6481 137.489 63.473 137.26 63.2515C137.032 63.03 136.917 62.7263 136.917 62.3404C136.917 62.1331 136.96 61.9402 137.046 61.7616C137.132 61.5758 137.257 61.4185 137.421 61.2899C137.593 61.1541 137.803 61.0505 138.053 60.9791C138.304 60.9005 138.589 60.8612 138.911 60.8612C139.168 60.8612 139.4 60.8826 139.608 60.9255C139.822 60.9612 140.004 61.0148 140.154 61.0863C140.312 61.1506 140.433 61.2328 140.519 61.3328C140.605 61.4328 140.647 61.54 140.647 61.6544C140.647 61.7687 140.622 61.8687 140.572 61.9545C140.522 62.0331 140.458 62.0974 140.379 62.1474C140.251 62.0688 140.058 61.9831 139.801 61.8902C139.551 61.7973 139.279 61.7508 138.986 61.7508C138.686 61.7508 138.45 61.8044 138.279 61.9116C138.107 62.0117 138.021 62.1546 138.021 62.3404C138.021 62.4833 138.068 62.6012 138.161 62.6941C138.261 62.787 138.429 62.862 138.664 62.9192L139.286 63.08C139.829 63.2229 140.229 63.4158 140.487 63.6588C140.744 63.9018 140.873 64.2305 140.873 64.6449Z" fill="white" />
		<path d="M142.972 64.0876C143.072 64.4949 143.265 64.7986 143.551 64.9987C143.844 65.1916 144.215 65.2881 144.666 65.2881C144.966 65.2881 145.241 65.2416 145.491 65.1487C145.741 65.0558 145.941 64.9558 146.091 64.8486C146.291 64.9629 146.391 65.1237 146.391 65.331C146.391 65.4524 146.345 65.5668 146.252 65.674C146.159 65.774 146.031 65.8633 145.866 65.9419C145.709 66.0134 145.52 66.0706 145.298 66.1134C145.084 66.1563 144.851 66.1777 144.601 66.1777C144.187 66.1777 143.808 66.1206 143.465 66.0062C143.129 65.8919 142.84 65.7204 142.597 65.4917C142.354 65.2631 142.165 64.9808 142.029 64.6449C141.9 64.3091 141.836 63.9196 141.836 63.4766C141.836 63.0478 141.9 62.6727 142.029 62.3511C142.157 62.0224 142.332 61.7508 142.554 61.5365C142.776 61.3149 143.036 61.147 143.336 61.0327C143.637 60.9183 143.958 60.8612 144.301 60.8612C144.644 60.8612 144.955 60.9183 145.234 61.0327C145.52 61.1399 145.763 61.2935 145.963 61.4936C146.17 61.6865 146.327 61.9188 146.434 62.1903C146.549 62.4619 146.606 62.7584 146.606 63.08C146.606 63.2586 146.563 63.3908 146.477 63.4766C146.391 63.5552 146.266 63.6088 146.102 63.6374L142.972 64.0876ZM144.301 61.7294C143.908 61.7294 143.579 61.8616 143.315 62.126C143.058 62.3904 142.922 62.7691 142.908 63.2622L145.545 62.887C145.516 62.5655 145.398 62.2939 145.191 62.0724C144.984 61.8437 144.687 61.7294 144.301 61.7294Z" fill="white" />
		<path d="M151.144 62.7798C151.144 62.4297 151.043 62.1724 150.843 62.0081C150.65 61.8437 150.386 61.7616 150.05 61.7616C149.8 61.7616 149.575 61.7937 149.375 61.858C149.182 61.9223 149.014 61.9938 148.871 62.0724V66.0062C148.821 66.0277 148.75 66.0455 148.657 66.0598C148.571 66.0813 148.475 66.092 148.367 66.092C148.16 66.092 148.006 66.0527 147.906 65.9741C147.806 65.8955 147.756 65.7633 147.756 65.5775V62.0402C147.756 61.8759 147.789 61.7437 147.853 61.6436C147.917 61.5436 148.024 61.4436 148.174 61.3435C148.374 61.222 148.635 61.1113 148.957 61.0112C149.278 60.9112 149.643 60.8612 150.05 60.8612C150.743 60.8612 151.286 61.0184 151.679 61.3328C152.073 61.6401 152.269 62.1081 152.269 62.737V66.0062C152.219 66.0277 152.148 66.0455 152.055 66.0598C151.962 66.0813 151.862 66.092 151.755 66.092C151.547 66.092 151.394 66.0527 151.294 65.9741C151.194 65.8955 151.144 65.7633 151.144 65.5775V62.7798Z" fill="white" />
		<path d="M154.869 64.5592C154.869 64.8164 154.944 64.9987 155.094 65.1059C155.245 65.213 155.455 65.2666 155.727 65.2666C155.848 65.2666 155.977 65.2488 156.113 65.213C156.249 65.1773 156.366 65.1344 156.466 65.0844C156.517 65.1416 156.559 65.2059 156.595 65.2774C156.638 65.3488 156.659 65.4346 156.659 65.5346C156.659 65.7204 156.563 65.874 156.37 65.9955C156.184 66.117 155.898 66.1777 155.513 66.1777C154.977 66.1777 154.548 66.0598 154.226 65.824C153.912 65.5811 153.755 65.1845 153.755 64.6342V59.6285C153.805 59.6142 153.876 59.5963 153.969 59.5749C154.062 59.5535 154.162 59.5427 154.269 59.5427C154.476 59.5427 154.626 59.582 154.719 59.6606C154.819 59.7392 154.869 59.8714 154.869 60.0572V61.1184H156.531C156.559 61.1613 156.584 61.222 156.606 61.3006C156.634 61.3792 156.649 61.4614 156.649 61.5472C156.649 61.8544 156.517 62.0081 156.252 62.0081H154.869V64.5592Z" fill="white" />
		<path d="M158.548 64.0876C158.648 64.4949 158.841 64.7986 159.127 64.9987C159.42 65.1916 159.791 65.2881 160.242 65.2881C160.542 65.2881 160.817 65.2416 161.067 65.1487C161.317 65.0558 161.517 64.9558 161.667 64.8486C161.867 64.9629 161.967 65.1237 161.967 65.331C161.967 65.4524 161.921 65.5668 161.828 65.674C161.735 65.774 161.606 65.8633 161.442 65.9419C161.285 66.0134 161.096 66.0706 160.874 66.1134C160.66 66.1563 160.427 66.1777 160.177 66.1777C159.763 66.1777 159.384 66.1206 159.041 66.0062C158.705 65.8919 158.416 65.7204 158.173 65.4917C157.93 65.2631 157.74 64.9808 157.605 64.6449C157.476 64.3091 157.412 63.9196 157.412 63.4766C157.412 63.0478 157.476 62.6727 157.605 62.3511C157.733 62.0224 157.908 61.7508 158.13 61.5365C158.351 61.3149 158.612 61.147 158.912 61.0327C159.213 60.9183 159.534 60.8612 159.877 60.8612C160.22 60.8612 160.531 60.9183 160.81 61.0327C161.096 61.1399 161.338 61.2935 161.539 61.4936C161.746 61.6865 161.903 61.9188 162.01 62.1903C162.125 62.4619 162.182 62.7584 162.182 63.08C162.182 63.2586 162.139 63.3908 162.053 63.4766C161.967 63.5552 161.842 63.6088 161.678 63.6374L158.548 64.0876ZM159.877 61.7294C159.484 61.7294 159.155 61.8616 158.891 62.126C158.634 62.3904 158.498 62.7691 158.484 63.2622L161.121 62.887C161.092 62.5655 160.974 62.2939 160.767 62.0724C160.56 61.8437 160.263 61.7294 159.877 61.7294Z" fill="white" />
		<path d="M165.583 60.8612C165.798 60.8612 165.998 60.8862 166.184 60.9362C166.376 60.9791 166.544 61.0362 166.687 61.1077V59.0711C166.737 59.0568 166.809 59.0389 166.902 59.0175C166.995 58.9961 167.095 58.9854 167.202 58.9854C167.409 58.9854 167.563 59.0247 167.663 59.1033C167.763 59.1819 167.813 59.3141 167.813 59.4999V65.1166C167.813 65.2666 167.781 65.3917 167.716 65.4917C167.652 65.5846 167.552 65.674 167.416 65.7597C167.252 65.8669 167.027 65.9634 166.741 66.0491C166.462 66.1349 166.141 66.1777 165.776 66.1777C165.369 66.1777 164.997 66.1277 164.661 66.0277C164.326 65.9205 164.04 65.7597 163.804 65.5453C163.568 65.3238 163.386 65.0487 163.257 64.72C163.129 64.3841 163.064 63.9911 163.064 63.5409C163.064 63.0764 163.129 62.6762 163.257 62.3404C163.393 61.9974 163.575 61.7187 163.804 61.5043C164.033 61.2828 164.297 61.122 164.597 61.0219C164.904 60.9148 165.233 60.8612 165.583 60.8612ZM166.698 62.051C166.577 61.9724 166.434 61.9045 166.269 61.8473C166.105 61.7901 165.923 61.7616 165.723 61.7616C165.508 61.7616 165.308 61.7937 165.122 61.858C164.944 61.9223 164.786 62.0295 164.651 62.1796C164.515 62.3225 164.408 62.5083 164.329 62.737C164.251 62.9585 164.211 63.23 164.211 63.5516C164.211 64.1519 164.351 64.5878 164.629 64.8593C164.915 65.1309 165.294 65.2666 165.765 65.2666C165.98 65.2666 166.159 65.2452 166.301 65.2023C166.451 65.1523 166.584 65.0951 166.698 65.0308V62.051Z" fill="white" />
		<path d="M173.846 60.8612C174.181 60.8612 174.496 60.9183 174.789 61.0327C175.082 61.1399 175.335 61.3042 175.55 61.5257C175.764 61.7401 175.932 62.0152 176.054 62.3511C176.175 62.6798 176.236 63.0657 176.236 63.5087C176.236 63.9589 176.172 64.352 176.043 64.6878C175.921 65.0237 175.746 65.3024 175.518 65.5239C175.289 65.7383 175.014 65.9026 174.692 66.017C174.378 66.1242 174.028 66.1777 173.642 66.1777C173.256 66.1777 172.913 66.1313 172.613 66.0384C172.32 65.9455 172.081 65.8383 171.895 65.7168C171.745 65.6168 171.637 65.5167 171.573 65.4167C171.509 65.3167 171.477 65.188 171.477 65.0308V59.0711C171.527 59.0568 171.598 59.0389 171.691 59.0175C171.784 58.9961 171.884 58.9854 171.991 58.9854C172.198 58.9854 172.348 59.0247 172.441 59.1033C172.541 59.1819 172.591 59.3141 172.591 59.4999V61.1934C172.749 61.1077 172.931 61.0327 173.138 60.9684C173.345 60.8969 173.581 60.8612 173.846 60.8612ZM173.663 61.7616C173.435 61.7616 173.231 61.8009 173.052 61.8795C172.874 61.9509 172.72 62.0367 172.591 62.1367V64.9879C172.691 65.0594 172.831 65.1237 173.009 65.1809C173.188 65.2381 173.395 65.2666 173.631 65.2666C174.067 65.2666 174.421 65.1237 174.692 64.8379C174.964 64.552 175.1 64.109 175.1 63.5087C175.1 62.9013 174.964 62.4583 174.692 62.1796C174.428 61.9009 174.085 61.7616 173.663 61.7616Z" fill="white" />
		<path d="M178.271 64.8593C178.092 64.5092 177.875 64.0125 177.617 63.3694C177.36 62.7263 177.11 61.9974 176.867 61.1827C176.931 61.1041 177.017 61.0398 177.124 60.9898C177.231 60.9326 177.346 60.904 177.467 60.904C177.624 60.904 177.753 60.9433 177.853 61.0219C177.953 61.0934 178.035 61.222 178.1 61.4078C178.293 61.9866 178.493 62.5583 178.7 63.1229C178.907 63.6802 179.136 64.2591 179.386 64.8593H179.429C179.536 64.6307 179.643 64.3627 179.75 64.0554C179.865 63.7481 179.975 63.423 180.083 63.08C180.19 62.737 180.29 62.3904 180.383 62.0402C180.476 61.6829 180.558 61.3435 180.629 61.0219C180.701 60.9862 180.772 60.9576 180.844 60.9362C180.922 60.9148 181.012 60.904 181.112 60.904C181.269 60.904 181.401 60.9433 181.508 61.0219C181.615 61.0934 181.669 61.2077 181.669 61.365C181.669 61.5507 181.619 61.8366 181.519 62.2225C181.426 62.6012 181.301 63.0228 181.144 63.4873C180.987 63.9446 180.808 64.4091 180.608 64.8808C180.408 65.3524 180.208 65.7704 180.008 66.1349C179.65 66.7637 179.325 67.2425 179.032 67.5712C178.746 67.8999 178.475 68.0643 178.218 68.0643C178.017 68.0643 177.857 68.0071 177.735 67.8928C177.621 67.7856 177.549 67.6498 177.521 67.4855C177.635 67.3854 177.76 67.2639 177.896 67.121C178.032 66.9781 178.168 66.8245 178.303 66.6601C178.439 66.4957 178.568 66.3242 178.689 66.1456C178.811 65.9741 178.914 65.8062 179 65.6418C178.879 65.6061 178.761 65.5382 178.646 65.4381C178.532 65.331 178.407 65.138 178.271 64.8593Z" fill="white" />
		<path fill-rule="evenodd" clip-rule="evenodd" d="M136.104 80.6091C135.603 80.6091 135.127 80.6894 134.676 80.8495C134.225 81.0109 133.834 81.246 133.503 81.5569C133.172 81.8687 132.907 82.2547 132.706 82.7159C132.506 83.1777 132.406 83.7199 132.406 84.3417C132.406 85.586 132.761 86.5191 133.473 87.1409C134.184 87.7634 135.052 88.0737 136.074 88.0737C136.675 88.0737 137.196 88.004 137.637 87.8634C138.078 87.7231 138.469 87.5728 138.81 87.4119C139.21 87.6931 139.511 87.9987 139.712 88.3299C139.912 88.6612 140.013 89.0577 140.013 89.5186C140.013 90.3417 139.622 90.9785 138.84 91.4301C138.058 91.8822 136.976 92.1075 135.593 92.1075C134.33 92.1075 133.187 91.9219 132.165 91.551C131.143 91.18 130.266 90.6579 129.534 89.9858C128.802 89.3136 128.236 88.5055 127.835 87.5622C127.434 86.6197 127.234 85.5757 127.234 84.432C127.234 83.1071 127.449 81.9484 127.88 80.9554C128.312 79.9617 128.898 79.1445 129.64 78.5018C130.381 77.8596 131.238 77.3784 132.21 77.0569C133.182 76.7359 134.21 76.5753 135.292 76.5753C136.735 76.5753 137.848 76.8365 138.63 77.3581C139.411 77.8799 139.802 78.5521 139.802 79.3745C139.802 79.7561 139.712 80.112 139.531 80.4432C139.351 80.7744 139.141 81.0607 138.9 81.301C138.559 81.141 138.148 80.9854 137.667 80.8345C137.186 80.6841 136.665 80.6091 136.104 80.6091Z" fill="url(#paint0_linear)" />
		<path fill-rule="evenodd" clip-rule="evenodd" d="M121.605 91.8321C121.408 91.8933 121.099 91.9543 120.677 92.0152C120.255 92.0771 119.818 92.1075 119.367 92.1075C118.935 92.1075 118.547 92.0771 118.204 92.0152C117.86 91.9543 117.571 91.8321 117.335 91.6483C117.1 91.4651 116.918 91.2157 116.791 90.8993C116.663 90.584 116.6 90.1705 116.6 89.6611V80.4888C116.6 80.0203 116.683 79.6175 116.85 79.2811C117.017 78.9447 117.257 78.6441 117.571 78.3794C117.885 78.1146 118.273 77.8744 118.734 77.6608C119.195 77.4466 119.691 77.2589 120.221 77.0949C120.751 76.9324 121.3 76.8051 121.87 76.7128C122.439 76.621 123.008 76.5753 123.577 76.5753C124.52 76.5753 125.266 76.7638 125.815 77.1406C126.365 77.5183 126.64 78.1347 126.64 78.9907C126.64 79.2766 126.6 79.5566 126.522 79.8317C126.443 80.1066 126.345 80.3567 126.228 80.5802C125.815 80.5802 125.393 80.6008 124.962 80.642C124.529 80.6833 124.107 80.7442 123.696 80.8252C123.283 80.9068 122.895 80.9937 122.533 81.0851C122.169 81.1769 121.86 81.2835 121.605 81.4063V91.8321Z" fill="url(#paint1_linear)" />
		<path fill-rule="evenodd" clip-rule="evenodd" d="M155.529 91.8369C155.338 91.8971 155.037 91.957 154.627 92.0169C154.216 92.0777 153.791 92.1076 153.352 92.1076C152.932 92.1076 152.555 92.0777 152.221 92.0169C151.886 91.957 151.605 91.8369 151.376 91.6564C151.147 91.4764 150.97 91.2312 150.846 90.9203C150.721 90.6105 150.66 90.2042 150.66 89.7036V83.0334C150.66 82.2124 150.464 81.6367 150.073 81.306C149.681 80.9757 149.199 80.8107 148.626 80.8107C148.244 80.8107 147.881 80.8609 147.538 80.9608C147.194 81.0609 146.917 81.181 146.707 81.3213V91.8369C146.516 91.8971 146.215 91.957 145.805 92.0169C145.394 92.0777 144.969 92.1076 144.53 92.1076C144.11 92.1076 143.733 92.0777 143.399 92.0169C143.065 91.957 142.783 91.8369 142.554 91.6564C142.325 91.4764 142.148 91.2312 142.024 90.9203C141.899 90.6105 141.838 90.2042 141.838 89.7036V72.2776C142.048 72.2379 142.358 72.1824 142.769 72.112C143.179 72.0424 143.595 72.0071 144.015 72.0071C144.435 72.0071 144.812 72.0371 145.146 72.097C145.48 72.1578 145.762 72.2776 145.991 72.4575C146.22 72.6381 146.396 72.8833 146.521 73.1936C146.645 73.5045 146.707 73.9103 146.707 74.4109V77.3549C146.955 77.2551 147.332 77.1403 147.838 77.0094C148.344 76.8796 148.902 76.8144 149.514 76.8144C151.404 76.8144 152.879 77.31 153.939 78.3015C154.999 79.2934 155.529 80.7702 155.529 82.7336V91.8369Z" fill="url(#paint2_linear)" />
		<path fill-rule="evenodd" clip-rule="evenodd" d="M163.234 91.8437C163.017 91.8826 162.699 91.9357 162.277 92.0042C161.854 92.0728 161.428 92.107 160.996 92.107C160.564 92.107 160.176 92.0779 159.833 92.0188C159.489 91.9605 159.199 91.8437 158.964 91.6681C158.729 91.493 158.547 91.2545 158.42 90.952C158.292 90.6507 158.228 90.2554 158.228 89.7685V77.8738C158.444 77.8344 158.763 77.7812 159.185 77.7127C159.607 77.6447 160.034 77.6104 160.466 77.6104C160.897 77.6104 161.285 77.6399 161.629 77.6981C161.972 77.7564 162.262 77.8738 162.497 78.0489C162.733 78.2245 162.915 78.463 163.042 78.7649C163.17 79.0673 163.234 79.4618 163.234 79.9484V91.8437ZM157.992 73.7235C157.992 72.9832 158.242 72.3597 158.743 71.853C159.243 71.3466 159.906 71.093 160.731 71.093C161.555 71.093 162.218 71.3466 162.718 71.853C163.219 72.3597 163.469 72.9832 163.469 73.7235C163.469 74.464 163.219 75.0875 162.718 75.5939C162.218 76.1012 161.555 76.3542 160.731 76.3542C159.906 76.3542 159.243 76.1012 158.743 75.5939C158.242 75.0875 157.992 74.464 157.992 73.7235Z" fill="url(#paint3_linear)" />
		<mask id="mask0" mask-type="alpha" maskUnits="userSpaceOnUse" x="165" y="72" width="16" height="21">
			<path fill-rule="evenodd" clip-rule="evenodd" d="M165.143 72.2983H180.441V92.8025H165.143V72.2983Z" fill="white" />
		</mask>
		<g mask="url(#mask0)">
			<path fill-rule="evenodd" clip-rule="evenodd" d="M173.813 81.1728C172.714 81.1728 171.869 81.4856 171.279 82.1113C170.688 82.7379 170.394 83.6862 170.394 84.9586C170.394 86.2106 170.668 87.1538 171.218 87.7902C171.768 88.4265 172.562 88.7447 173.6 88.7447C173.966 88.7447 174.297 88.6888 174.592 88.5778C174.887 88.4674 175.116 88.3404 175.279 88.1989V81.5363C174.872 81.2938 174.383 81.1728 173.813 81.1728ZM165.143 84.9586C165.143 83.6258 165.346 82.4703 165.753 81.4903C166.16 80.5116 166.725 79.6985 167.448 79.0524C168.17 78.4063 169.015 77.9271 169.982 77.6137C170.949 77.3008 171.993 77.1443 173.112 77.1443C173.519 77.1443 173.916 77.1798 174.303 77.2502C174.69 77.3213 175.005 77.4071 175.25 77.5077V72.6014C175.453 72.5407 175.779 72.475 176.227 72.4042C176.675 72.3338 177.132 72.2983 177.601 72.2983C178.048 72.2983 178.451 72.3285 178.807 72.3888C179.163 72.4501 179.464 72.5712 179.708 72.7523C179.952 72.9346 180.136 73.1815 180.257 73.4946C180.38 73.808 180.441 74.2168 180.441 74.7217V89.0771C180.441 90.0268 179.993 90.7842 179.097 91.3487C178.506 91.7325 177.743 92.0711 176.807 92.3636C175.87 92.656 174.792 92.8025 173.57 92.8025C172.247 92.8025 171.061 92.621 170.013 92.2576C168.964 91.8941 168.079 91.3691 167.357 90.6827C166.634 89.9966 166.084 89.1738 165.708 88.2143C165.331 87.255 165.143 86.17 165.143 84.9586Z" fill="url(#paint4_linear)" />
		</g>
		<path d="M99.4179 77.3853C100.049 77.3853 100.56 76.8821 100.56 76.2614C100.56 75.6407 100.049 75.1376 99.4179 75.1376C98.7869 75.1376 98.2754 75.6407 98.2754 76.2614C98.2754 76.8821 98.7869 77.3853 99.4179 77.3853Z" fill="url(#paint5_linear)" />
		<path d="M95.8071 76.7247C96.2529 76.7247 96.6142 76.3692 96.6142 75.9308C96.6142 75.4923 96.2529 75.1368 95.8071 75.1368C95.3614 75.1368 95 75.4923 95 75.9308C95 76.3692 95.3614 76.7247 95.8071 76.7247Z" fill="url(#paint6_linear)" />
		<path d="M107.353 92.5982C111.538 92.1148 114.905 88.7492 115.178 84.4656C115.487 79.6459 111.765 75.4929 106.865 75.1894C106.291 75.1542 105.714 75.1736 105.143 75.2475C103.965 75.3423 102.97 75.7835 102.97 75.7835C102.166 76.1699 101.645 76.8175 101.645 77.684C101.645 78.2249 101.864 78.7438 102.253 79.1263C102.642 79.5088 103.169 79.7237 103.719 79.7237C103.911 79.7237 104.574 79.5174 104.731 79.4639C105.477 79.2086 106.276 79.1388 107.056 79.2606C107.836 79.3824 108.574 79.6921 109.203 80.1621C109.833 80.6321 110.334 81.2478 110.663 81.9544C110.992 82.6611 111.138 83.4368 111.089 84.2125C110.923 86.8106 108.647 88.785 106.006 88.6205C105.265 88.5751 104.545 88.3609 103.903 87.9948C103.261 87.6287 102.715 87.1208 102.307 86.5111C102.306 86.5115 102.306 86.5119 102.307 86.5123V86.5111C101.35 85.2789 101.571 83.3098 101.57 83.2857C101.554 82.7965 101.359 82.3293 101.022 81.9692C100.685 81.6092 100.227 81.3803 99.733 81.3243C99.2386 81.2683 98.7402 81.389 98.3287 81.6643C97.9172 81.9395 97.62 82.3511 97.4912 82.824C97.4443 82.9947 97.4207 83.4952 97.4275 83.5622C97.23 88.2975 100.915 92.3439 105.748 92.6431C106.284 92.6755 106.821 92.6605 107.353 92.5982Z" fill="url(#paint7_linear)" />
		<path d="M97.9365 80.6674C98.7546 80.6674 99.4179 80.015 99.4179 79.2102C99.4179 78.4055 98.7546 77.7531 97.9365 77.7531C97.1183 77.7531 96.4551 78.4055 96.4551 79.2102C96.4551 80.015 97.1183 80.6674 97.9365 80.6674Z" fill="url(#paint8_linear)" />
	</g>
	<defs>
		<filter id="filter0_d" x="37" y="0.985352" width="202.669" height="149.817" filterUnits="userSpaceOnUse" color-interpolation-filters="sRGB">
			<feFlood flood-opacity="0" result="BackgroundImageFix" />
			<feColorMatrix in="SourceAlpha" type="matrix" values="0 0 0 0 0 0 0 0 0 0 0 0 0 0 0 0 0 0 127 0" />
			<feOffset />
			<feGaussianBlur stdDeviation="29" />
			<feColorMatrix type="matrix" values="0 0 0 0 0.231373 0 0 0 0 0.0784314 0 0 0 0 0.415686 0 0 0 1 0" />
			<feBlend mode="normal" in2="BackgroundImageFix" result="effect1_dropShadow" />
			<feBlend mode="normal" in="SourceGraphic" in2="effect1_dropShadow" result="shape" />
		</filter>
		<linearGradient id="paint0_linear" x1="133.623" y1="76.5753" x2="133.623" y2="92.1075" gradientUnits="userSpaceOnUse">
			<stop stop-color="white" />
			<stop offset="1" stop-color="#E8DDFD" />
		</linearGradient>
		<linearGradient id="paint1_linear" x1="121.62" y1="76.5753" x2="121.62" y2="92.1075" gradientUnits="userSpaceOnUse">
			<stop stop-color="white" />
			<stop offset="1" stop-color="#E8DDFD" />
		</linearGradient>
		<linearGradient id="paint2_linear" x1="148.683" y1="72.0071" x2="148.683" y2="92.1076" gradientUnits="userSpaceOnUse">
			<stop stop-color="white" />
			<stop offset="1" stop-color="#E8DDFD" />
		</linearGradient>
		<linearGradient id="paint3_linear" x1="160.73" y1="71.093" x2="160.73" y2="92.107" gradientUnits="userSpaceOnUse">
			<stop stop-color="white" />
			<stop offset="1" stop-color="#E8DDFD" />
		</linearGradient>
		<linearGradient id="paint4_linear" x1="172.792" y1="72.2983" x2="172.792" y2="92.8025" gradientUnits="userSpaceOnUse">
			<stop stop-color="white" />
			<stop offset="1" stop-color="#E8DDFD" />
		</linearGradient>
		<linearGradient id="paint5_linear" x1="99.4179" y1="75.1376" x2="99.4179" y2="77.3853" gradientUnits="userSpaceOnUse">
			<stop stop-color="white" />
			<stop offset="1" stop-color="#E8DDFD" />
		</linearGradient>
		<linearGradient id="paint6_linear" x1="95.8071" y1="75.1368" x2="95.8071" y2="76.7247" gradientUnits="userSpaceOnUse">
			<stop stop-color="white" />
			<stop offset="1" stop-color="#E8DDFD" />
		</linearGradient>
		<linearGradient id="paint7_linear" x1="106.308" y1="75.1724" x2="106.308" y2="92.6597" gradientUnits="userSpaceOnUse">
			<stop stop-color="white" />
			<stop offset="1" stop-color="#E8DDFD" />
		</linearGradient>
		<linearGradient id="paint8_linear" x1="97.9365" y1="77.7531" x2="97.9365" y2="80.6674" gradientUnits="userSpaceOnUse">
			<stop stop-color="white" />
			<stop offset="1" stop-color="#E8DDFD" />
		</linearGradient>
	</defs>
</svg>
