<svg width="420" height="20" viewBox="0 0 420 20" fill="none" xmlns="http://www.w3.org/2000/svg">
	<path fill-rule="evenodd" clip-rule="evenodd" d="M210 20C215.523 20 220 15.5228 220 10C220 4.47715 215.523 0 210 0C204.477 0 200 4.47715 200 10C200 15.5228 204.477 20 210 20Z" fill="#B88DFC" />
	<path fill-rule="evenodd" clip-rule="evenodd" d="M110 20C115.523 20 120 15.5228 120 10C120 4.47715 115.523 0 110 0C104.477 0 100 4.47715 100 10C100 15.5228 104.477 20 110 20Z" fill="#B88DFC" />
	<path fill-rule="evenodd" clip-rule="evenodd" d="M10 20C15.5228 20 20 15.5228 20 10C20 4.47715 15.5228 0 10 0C4.47715 0 0 4.47715 0 10C0 15.5228 4.47715 20 10 20Z" fill="#B88DFC" />
	<path fill-rule="evenodd" clip-rule="evenodd" d="M310 20C315.523 20 320 15.5228 320 10C320 4.47715 315.523 0 310 0C304.477 0 300 4.47715 300 10C300 15.5228 304.477 20 310 20Z" fill="#B88DFC" />
	<path fill-rule="evenodd" clip-rule="evenodd" d="M410 20C415.523 20 420 15.5228 420 10C420 4.47715 415.523 0 410 0C404.477 0 400 4.47715 400 10C400 15.5228 404.477 20 410 20Z" fill="#B88DFC" />
</svg>
