<svg xmlns="http://www.w3.org/2000/svg" width="100" height="100" viewBox="0 0 100 100"><defs><style>.a{fill:#fff;}.b,.d{fill:none;stroke:#a29ec0;stroke-width:2px;}.b{stroke-linecap:round;stroke-linejoin:round;}.c{fill:#b88dfc;}.d{stroke-miterlimit:10;}</style></defs><circle class="a" cx="50" cy="50" r="50"/><path class="b" d="M50.16,36,40,53.55,50.16,60l10.16-6.45Z" transform="translate(-20 -16)"/><path class="c" d="M43.87,53l6.29-11,6.29,11-6.29,4Z" transform="translate(-20 -16)"/><path class="b" d="M40,58,50.16,76,60.32,58" transform="translate(-20 -16)"/><path class="b" d="M50.65,60v9" transform="translate(-20 -16)"/><path class="b" d="M83,59.27h-5.7a1.41,1.41,0,0,1-1-.44,1.59,1.59,0,0,1-.42-1.08V57.5a1.43,1.43,0,0,1,.11-.58,1.57,1.57,0,0,1,.31-.49,1.27,1.27,0,0,1,.47-.32,1.29,1.29,0,0,1,.55-.11H98.58a1.4,1.4,0,0,1,1,.44A1.56,1.56,0,0,1,100,57.5v.25a1.6,1.6,0,0,1-.41,1.07,1.41,1.41,0,0,1-1,.45h-.23V64a11.4,11.4,0,0,1-3,7.8A10.17,10.17,0,0,1,87.92,75a9.9,9.9,0,0,1-4-.84,10.21,10.21,0,0,1-3.38-2.39,11.13,11.13,0,0,1-2.27-3.58A11.66,11.66,0,0,1,77.48,64v-4.7" transform="translate(-20 -16)"/><path class="d" d="M81.13,47a1.17,1.17,0,0,0-.55.13,1.51,1.51,0,0,0-.48.36,1.86,1.86,0,0,0-.31.55,2.06,2.06,0,0,0-.11.65V56h2.9V48.69a1.82,1.82,0,0,0-.42-1.19,1.36,1.36,0,0,0-1-.5Z" transform="translate(-20 -16)"/><path class="d" d="M96.13,56h-2.9V48.7a1.86,1.86,0,0,1,.42-1.2,1.3,1.3,0,0,1,2,0,1.82,1.82,0,0,1,.43,1.2V56Z" transform="translate(-20 -16)"/><path class="b" d="M99,59h-5.8" transform="translate(-20 -16)"/><path class="b" d="M88.94,62l-3.46,3.53h4.84L86,70" transform="translate(-20 -16)"/><path class="b" d="M63.28,84.11c-.1-13.13,14-10.29,9.82-2.61a12.7,12.7,0,0,1-5.11,5A12.84,12.84,0,0,1,61,88a11.59,11.59,0,0,1-10.3-11.6v-.47" transform="translate(-20 -16)"/><path class="b" d="M88.39,75v2c0,17.69-18.32,24.49-24.12,14.1a8.77,8.77,0,0,1-1-2.8" transform="translate(-20 -16)"/></svg>