<svg xmlns="http://www.w3.org/2000/svg" width="100" height="100" viewBox="0 0 100 100"><defs><style>.a{fill:#fff;}.b,.c,.d{fill:none;stroke:#a29ec0;stroke-width:2px;}.b,.d{stroke-linecap:round;}.b,.c{stroke-linejoin:round;}.d{stroke-miterlimit:10;}.e{fill:#b88dfc;}</style></defs><circle class="a" cx="50" cy="50" r="50"/><path class="b" d="M50.44,50.94a7.15,7.15,0,0,1-1.83-4.78h0A7.17,7.17,0,0,1,55.77,39h9.65a7.15,7.15,0,0,1,7.16,7.16h0" transform="translate(-20 -16)"/><path class="b" d="M84.23,53.33H74.58a7.15,7.15,0,0,1-7.16-7.17" transform="translate(-20 -16)"/><path class="b" d="M74.58,39h9.65a7.17,7.17,0,0,1,7.16,7.16h0a7.13,7.13,0,0,1-1.63,4.55" transform="translate(-20 -16)"/><path class="b" d="M84.23,48.71A2.61,2.61,0,0,0,86.1,48a2.59,2.59,0,0,0,.79-1.84,2.49,2.49,0,0,0-.21-1,2.53,2.53,0,0,0-.58-.84,2.54,2.54,0,0,0-1.87-.7H77.82" transform="translate(-20 -16)"/><path class="b" d="M55.26,43.62a2.64,2.64,0,0,0-1,.16,2.53,2.53,0,0,0-1.44,1.38,2.49,2.49,0,0,0-.21,1,2.55,2.55,0,0,0,1.65,2.38,2.47,2.47,0,0,0,1,.17h6.42" transform="translate(-20 -16)"/><path class="c" d="M52.49,77.56V86" transform="translate(-20 -16)"/><path class="c" d="M55.48,86h-6v6h6Z" transform="translate(-20 -16)"/><path class="c" d="M90.5,86h-6v6h6Z" transform="translate(-20 -16)"/><path class="b" d="M49.5,88.94H40.15" transform="translate(-20 -16)"/><path class="b" d="M84.52,88.94h-29" transform="translate(-20 -16)"/><path class="c" d="M87.51,77.56V86" transform="translate(-20 -16)"/><path class="b" d="M99.85,88.94H90.5" transform="translate(-20 -16)"/><path class="d" d="M40,59.48V54.23a.84.84,0,0,1,.07-.35.72.72,0,0,1,.2-.29.84.84,0,0,1,.29-.2,1,1,0,0,1,.35-.06H60.54" transform="translate(-20 -16)"/><path class="d" d="M40,68.29V63a.84.84,0,0,1,.07-.35.72.72,0,0,1,.2-.29,1,1,0,0,1,.29-.2,1,1,0,0,1,.35-.06H64.08a.89.89,0,0,1,.9.9v5.31" transform="translate(-20 -16)"/><path class="c" d="M64.08,70.83H40.9a.9.9,0,0,0-.9.9v4.92a.9.9,0,0,0,.9.91H64.08a.9.9,0,0,0,.9-.91V71.73A.9.9,0,0,0,64.08,70.83Z" transform="translate(-20 -16)"/><path class="b" d="M60.82,66.22a.3.3,0,0,1,0,.16.23.23,0,0,1-.12.1.25.25,0,0,1-.17,0,.37.37,0,0,1-.14-.07.28.28,0,0,1-.08-.15.3.3,0,0,1,0-.16.32.32,0,0,1,.1-.13.31.31,0,0,1,.36,0A.27.27,0,0,1,60.82,66.22Z" transform="translate(-20 -16)"/><path class="b" d="M60.82,74.19a.3.3,0,0,1,0,.16.26.26,0,0,1-.13.1.23.23,0,0,1-.16,0,.31.31,0,0,1-.22-.22.33.33,0,0,1,0-.17.29.29,0,0,1,.1-.12.33.33,0,0,1,.16,0,.23.23,0,0,1,.11,0,.24.24,0,0,1,.09.06.35.35,0,0,1,.06.09.36.36,0,0,1,0,.1Z" transform="translate(-20 -16)"/><path class="d" d="M79.53,53.33H99.1a.9.9,0,0,1,.64.26.94.94,0,0,1,.26.64v5.22" transform="translate(-20 -16)"/><path class="d" d="M75,68.29V63a.84.84,0,0,1,.07-.35.72.72,0,0,1,.2-.29,1,1,0,0,1,.29-.2,1,1,0,0,1,.35-.06H99.1a.9.9,0,0,1,.64.26A.94.94,0,0,1,100,63v5.31" transform="translate(-20 -16)"/><path class="c" d="M99.1,70.83H75.92a.9.9,0,0,0-.9.9v4.92a.9.9,0,0,0,.9.91H99.1a.9.9,0,0,0,.9-.91V71.73A.9.9,0,0,0,99.1,70.83Z" transform="translate(-20 -16)"/><path class="b" d="M95.84,66.5a.32.32,0,0,1-.1.18.29.29,0,0,1-.18.07.32.32,0,0,1-.19-.07.31.31,0,0,1-.09-.18.49.49,0,0,1,0-.12.27.27,0,0,1,.06-.1.31.31,0,0,1,.09-.07.25.25,0,0,1,.12,0,.2.2,0,0,1,.11,0l.1.07.06.1a.49.49,0,0,1,0,.12Z" transform="translate(-20 -16)"/><path class="b" d="M95.84,74.47a.3.3,0,0,1,0,.16.27.27,0,0,1-.13.1.27.27,0,0,1-.36-.36.27.27,0,0,1,.1-.13.3.3,0,0,1,.16,0,.31.31,0,0,1,.28.28Z" transform="translate(-20 -16)"/><path class="e" d="M95.82,56.33H44.07a1.07,1.07,0,0,0,0,2.14H95.82a1.07,1.07,0,1,0,0-2.14Z" transform="translate(-20 -16)"/></svg>