<svg xmlns="http://www.w3.org/2000/svg" width="100" height="100" viewBox="0 0 100 100"><defs><style>.a{fill:#fff;}.b,.c{fill:none;stroke:#a29ec0;stroke-linecap:round;stroke-width:2px;}.b{stroke-linejoin:round;}.c{stroke-miterlimit:10;}.d{fill:#b88dfc;}</style></defs><circle class="a" cx="50" cy="50" r="50"/><path class="b" d="M95,83.11l4,3.41v9.36" transform="translate(-20 -16)"/><path class="b" d="M83.69,83.11l-4,3.41" transform="translate(-20 -16)"/><path class="b" d="M45,83.11l-4,3.41v9.36" transform="translate(-20 -16)"/><path class="b" d="M56.31,83.11l4,3.41" transform="translate(-20 -16)"/><path class="b" d="M64.34,83.11l-4,3.41" transform="translate(-20 -16)"/><path class="b" d="M75.65,83.11l4,3.41v9.36" transform="translate(-20 -16)"/><path class="c" d="M60.32,86.52V96" transform="translate(-20 -16)"/><path class="c" d="M50.59,82.87c3.16,0,5.72-3,5.72-6.66s-2.56-6.66-5.72-6.66-5.71,3-5.71,6.66S47.44,82.87,50.59,82.87Z" transform="translate(-20 -16)"/><path class="c" d="M70,82.87c3.15,0,5.71-3,5.71-6.66S73.15,69.55,70,69.55s-5.71,3-5.71,6.66S66.85,82.87,70,82.87Z" transform="translate(-20 -16)"/><path class="c" d="M89.4,82.87c3.16,0,5.72-3,5.72-6.66s-2.56-6.66-5.72-6.66-5.71,3-5.71,6.66S86.25,82.87,89.4,82.87Z" transform="translate(-20 -16)"/><path class="b" d="M70,63.22A10.45,10.45,0,1,0,59.73,52.77,10.36,10.36,0,0,0,70,63.22Z" transform="translate(-20 -16)"/><path class="d" d="M62,52.75a7.42,7.42,0,0,0,.44,2.52,8.29,8.29,0,0,1,3-3.8,8,8,0,0,1,9.12,0,8.24,8.24,0,0,1,3,3.8A7.67,7.67,0,0,0,78,52.75a8,8,0,0,0-16,0Z" transform="translate(-20 -16)"/><path class="b" d="M86.49,52.77h8.7" transform="translate(-20 -16)"/><path class="b" d="M85,45.76h5.86" transform="translate(-20 -16)"/><path class="b" d="M85,59.73h5.72" transform="translate(-20 -16)"/><path class="b" d="M97.6,55.12a2.35,2.35,0,1,0-2.41-2.35A2.38,2.38,0,0,0,97.6,55.12Z" transform="translate(-20 -16)"/><path class="b" d="M93.24,48.11a2.36,2.36,0,1,0-2.4-2.35A2.39,2.39,0,0,0,93.24,48.11Z" transform="translate(-20 -16)"/><path class="b" d="M93.13,62.08a2.35,2.35,0,1,0-2.41-2.35A2.37,2.37,0,0,0,93.13,62.08Z" transform="translate(-20 -16)"/><path class="b" d="M53.51,52.77h-8.7" transform="translate(-20 -16)"/><path class="b" d="M55,45.76H49.16" transform="translate(-20 -16)"/><path class="b" d="M55,59.73H49.28" transform="translate(-20 -16)"/><path class="b" d="M42.4,55.12A2.35,2.35,0,1,0,40,52.77,2.38,2.38,0,0,0,42.4,55.12Z" transform="translate(-20 -16)"/><path class="b" d="M46.75,48.11a2.36,2.36,0,1,0-2.4-2.35A2.39,2.39,0,0,0,46.75,48.11Z" transform="translate(-20 -16)"/><path class="b" d="M46.87,62.08a2.35,2.35,0,1,0-2.4-2.35A2.38,2.38,0,0,0,46.87,62.08Z" transform="translate(-20 -16)"/><path class="b" d="M74.79,68.83a16.79,16.79,0,0,0,6.11-3.47A16.41,16.41,0,0,0,85,59.74" transform="translate(-20 -16)"/><path class="b" d="M55,59.74a16.41,16.41,0,0,0,4,5.54,17,17,0,0,0,6,3.48" transform="translate(-20 -16)"/><path class="b" d="M55,45.76a17,17,0,0,0-1.5,7" transform="translate(-20 -16)"/><path class="b" d="M82.9,42.33a16.08,16.08,0,0,0-5.69-4.65A16.65,16.65,0,0,0,70,36h0a16.65,16.65,0,0,0-7.21,1.68,16.08,16.08,0,0,0-5.69,4.65" transform="translate(-20 -16)"/><path class="b" d="M86.49,52.77a17,17,0,0,0-1.5-7" transform="translate(-20 -16)"/></svg>