<svg width="80" height="80" viewBox="0 0 80 80" fill="none" xmlns="http://www.w3.org/2000/svg">
    <path d="M40.1692 37.0207C34.0127 37.0207 29.0039 32.0119 29.0039 25.8555C29.0039 19.6989 34.0127 14.6902 40.1692 14.6902C46.3256 14.6902 51.3344 19.6989 51.3344 25.8555C51.3344 32.0119 46.3256 37.0207 40.1692 37.0207ZM40.1692 17.8152C35.7358 17.8152 32.1289 21.4221 32.1289 25.8555C32.1289 30.2889 35.7358 33.8957 40.1692 33.8957C44.6025 33.8957 48.2094 30.2889 48.2094 25.8555C48.2094 21.4221 44.6025 17.8152 40.1692 17.8152Z" fill="#28818F" />
    <path d="M61.516 35.0441C56.7868 35.0441 52.9395 31.1966 52.9395 26.4676C52.9395 21.7385 56.7868 17.891 61.516 17.891C66.2452 17.891 70.0926 21.7385 70.0926 26.4676C70.0926 31.1966 66.2452 35.0441 61.516 35.0441ZM61.516 21.0161C58.5101 21.0161 56.0645 23.4616 56.0645 26.4677C56.0645 29.4738 58.5099 31.9193 61.516 31.9193C64.5221 31.9193 66.9676 29.4738 66.9676 26.4677C66.9676 23.4616 64.5219 21.0161 61.516 21.0161Z" fill="#28818F" />
    <path d="M22.5645 55.707H9.97016C9.87641 55.707 9.78281 55.6986 9.69063 55.6819C6.42938 55.0889 4.0625 52.253 4.0625 48.9383V46.3406C4.0625 38.3886 10.5319 31.9191 18.4839 31.9191C23.3467 31.9191 27.8502 34.3466 30.5309 38.4125C30.9764 39.0883 30.8322 39.9924 30.1984 40.4958C26.34 43.5617 24.127 48.1424 24.127 53.063V54.1445C24.127 55.0075 23.4275 55.707 22.5645 55.707ZM10.1233 52.582H21.008C21.1356 47.3927 23.3248 42.5525 27.1033 39.0389C24.9678 36.5159 21.8347 35.0441 18.4841 35.0441C12.2552 35.0441 7.1875 40.1117 7.1875 46.3406V48.9383C7.1875 50.6988 8.41438 52.2108 10.1233 52.582Z" fill="#28818F" />
    <path d="M70.0307 55.707H57.7753C56.9124 55.707 56.2128 55.0074 56.2128 54.1445V53.063C56.2128 48.3422 54.1449 43.8809 50.5395 40.8233C50.3607 40.6716 50.1643 40.5136 49.9381 40.3397C49.2814 39.8345 49.1331 38.9045 49.6003 38.2203C52.2935 34.2747 56.7482 31.9191 61.5167 31.9191C69.4689 31.9191 75.9382 38.3886 75.9382 46.3406V48.9383C75.9382 52.253 73.5714 55.0889 70.3101 55.6819C70.2181 55.6988 70.1245 55.707 70.0307 55.707ZM59.332 52.582H69.8776C71.5865 52.2108 72.8134 50.6986 72.8134 48.9383V46.3406C72.8134 40.1117 67.7457 35.0441 61.5168 35.0441C58.2554 35.0441 55.1807 36.4517 53.0482 38.8675C56.9351 42.3942 59.2012 47.3356 59.332 52.582Z" fill="#28818F" />
    <path d="M51.8259 65.3097H28.5134C28.4196 65.3097 28.3262 65.3013 28.2338 65.2846C24.0434 64.5229 21.002 60.8786 21.002 56.6194V53.063C21.002 47.1838 23.6452 41.7116 28.2543 38.0493C31.6741 35.3318 35.7943 33.8955 40.1695 33.8955C44.4315 33.8955 48.4681 35.2674 51.8426 37.8627C52.1087 38.0674 52.3435 38.2563 52.5602 38.4402C56.867 42.0925 59.337 47.4224 59.337 53.063V56.6194C59.337 60.8786 56.2956 64.5229 52.1051 65.2846C52.0131 65.3014 51.9195 65.3097 51.8259 65.3097ZM28.6627 62.1847H51.6763C54.3124 61.6425 56.212 59.3232 56.212 56.6194V53.063C56.212 48.3422 54.1441 43.881 50.5387 40.8233C50.3601 40.6718 50.1635 40.5138 49.9373 40.3397C47.114 38.1683 43.7362 37.0205 40.1693 37.0205C36.5074 37.0205 33.0595 38.2222 30.1982 40.4958C26.3398 43.5618 24.1268 48.1424 24.1268 53.063V56.6194C24.1271 59.3232 26.0266 61.6427 28.6627 62.1847Z" fill="#28818F" />
    <path d="M18.4846 35.0441C13.7555 35.0441 9.9082 31.1966 9.9082 26.4676C9.9082 21.7385 13.7555 17.891 18.4846 17.891C23.2138 17.891 27.0612 21.7385 27.0612 26.4676C27.0612 31.1966 23.2138 35.0441 18.4846 35.0441ZM18.4846 21.0161C15.4787 21.0161 13.0332 23.4616 13.0332 26.4677C13.0332 29.4738 15.4787 31.9193 18.4846 31.9193C21.4905 31.9193 23.9362 29.4738 23.9362 26.4677C23.9362 23.4616 21.4907 21.0161 18.4846 21.0161Z" fill="#28818F" />
</svg>