<svg width="160" height="138" viewBox="0 0 160 138" fill="none" xmlns="http://www.w3.org/2000/svg">
<path d="M75.668 100.152C75.5946 100.152 75.5211 100.226 75.5211 100.299C75.5211 100.373 75.5946 100.447 75.668 100.447C75.7414 100.447 75.8149 100.373 75.8149 100.299C75.8149 100.226 75.7414 100.152 75.668 100.152Z" fill="#2C56DD"/>
<path d="M70.9668 98.4595C70.7465 98.4595 70.5996 98.6066 70.5996 98.8274V98.8274C70.5996 99.0482 70.7465 99.1953 70.9668 99.1953C71.1872 99.1953 71.3341 99.0482 71.3341 98.8274C71.2606 98.6802 71.1137 98.4595 70.9668 98.4595V98.4595Z" fill="#2C56DD"/>
<path d="M66.4125 96.3992C66.1188 96.3992 65.8984 96.6199 65.8984 96.9143C65.8984 97.2086 66.1188 97.3558 66.4125 97.4294C66.7063 97.4294 66.9267 97.2086 66.9267 96.9143C66.9267 96.6199 66.7798 96.3992 66.4125 96.3992C66.486 96.3992 66.4125 96.3992 66.4125 96.3992Z" fill="#2C56DD"/>
<path d="M62.1532 93.75C61.786 93.75 61.4922 94.0443 61.4922 94.4123C61.4922 94.7802 61.786 95.0746 62.1532 95.0746C62.5204 95.0746 62.8142 94.7802 62.8142 94.4123C62.8142 94.0443 62.5204 93.75 62.1532 93.75V93.75Z" fill="#2C56DD"/>
<path d="M58.1138 90.7329C57.6731 90.7329 57.2324 91.1008 57.2324 91.616C57.2324 92.1311 57.5996 92.499 58.1138 92.499C58.5544 92.499 58.9951 92.1311 58.9951 91.616V91.616C58.9951 91.1008 58.5544 90.7329 58.1138 90.7329Z" fill="#2C56DD"/>
<path d="M54.4423 87.2744C53.8547 87.2744 53.4141 87.7159 53.4141 88.3046C53.4141 88.8933 53.8547 89.3349 54.4423 89.3349C55.0298 89.3349 55.4705 88.8933 55.4705 88.3046C55.4705 87.7895 54.9564 87.2744 54.4423 87.2744V87.2744Z" fill="#2C56DD"/>
<path d="M51.0638 83.5215C50.4028 83.5215 49.8887 84.0366 49.8887 84.6989C49.8887 85.3612 50.4028 85.8763 51.0638 85.8763C51.7248 85.8763 52.2389 85.3612 52.2389 84.6989C52.2389 84.0366 51.7248 83.5215 51.0638 83.5215V83.5215Z" fill="#2C56DD"/>
<path d="M48.1259 79.3269C47.3915 79.3269 46.7305 79.9156 46.7305 80.7251C46.7305 81.4609 47.318 82.1232 48.1259 82.1232C48.8604 82.1232 49.5213 81.5345 49.5213 80.7251V80.7251C49.5213 79.9156 48.9338 79.3269 48.1259 79.3269V79.3269Z" fill="#2C56DD"/>
<path d="M47.3171 76.3835C47.3171 75.5004 46.6561 74.8381 45.7748 74.8381C44.8934 74.8381 44.2324 75.5004 44.2324 76.3835C44.2324 77.1929 44.8934 77.9288 45.7748 77.9288C46.5826 77.9288 47.2436 77.2665 47.3171 76.3835Z" fill="#2C56DD"/>
<path d="M45.6284 71.8209C45.6284 70.8643 44.894 70.1284 43.9392 70.1284C42.9844 70.1284 42.25 70.8643 42.25 71.8209C42.25 72.7776 42.9844 73.5134 43.9392 73.5134C44.894 73.5134 45.6284 72.704 45.6284 71.8209V71.8209Z" fill="#2C56DD"/>
<path d="M44.5999 66.9642C44.5999 65.934 43.7921 65.1245 42.7638 65.1245C41.7356 65.1245 40.9277 65.934 40.9277 66.9642C40.9277 67.9944 41.7356 68.8039 42.7638 68.8039C43.7921 68.8775 44.5999 67.9944 44.5999 66.9642Z" fill="#2C56DD"/>
<path d="M44.234 62.1076C44.234 61.0038 43.3526 60.0471 42.1775 60.0471C41.0759 60.0471 40.1211 60.9302 40.1211 62.1076C40.1211 63.2114 41.0024 64.168 42.1775 64.168V64.168C43.3526 64.168 44.234 63.2114 44.234 62.1076V62.1076Z" fill="#2C56DD"/>
<path d="M42.2502 59.3847C43.4988 59.3847 44.4535 58.4281 44.4535 57.1771C44.4535 55.9261 43.4988 54.9695 42.2502 54.9695C41.0016 54.9695 40.0469 55.9261 40.0469 57.1771C40.0469 58.4281 41.0751 59.3847 42.2502 59.3847Z" fill="#2C56DD"/>
<path d="M40.6348 52.2469C40.6348 53.5714 41.7364 54.6017 42.985 54.6017C44.307 54.6017 45.3352 53.4979 45.3352 52.2469C45.3352 50.9223 44.2335 49.8921 42.985 49.8921C41.7364 49.8921 40.6348 50.9223 40.6348 52.2469V52.2469Z" fill="#2C56DD"/>
<path d="M112.022 88.7462C111.948 88.7462 111.875 88.8197 111.875 88.8933C111.875 88.9669 111.948 89.0405 112.022 89.0405C112.095 89.0405 112.168 88.9669 112.168 88.8933V88.8933C112.168 88.8197 112.095 88.7462 112.022 88.7462Z" fill="#2C56DD"/>
<path d="M107.615 90.8802C107.469 90.8802 107.322 91.0274 107.322 91.1746V91.1746C107.322 91.3218 107.469 91.4689 107.615 91.4689C107.762 91.4689 107.909 91.3218 107.909 91.1746V91.1746C107.983 91.0274 107.836 90.8802 107.615 90.8802Z" fill="#2C56DD"/>
<path d="M103.062 92.5725C102.841 92.5725 102.621 92.7933 102.621 93.014C102.621 93.2348 102.841 93.4556 103.062 93.4556C103.282 93.4556 103.502 93.2348 103.502 93.014C103.502 92.7933 103.282 92.5725 103.062 92.5725V92.5725Z" fill="#2C56DD"/>
<path d="M98.2887 93.75C97.9215 93.75 97.7012 94.0443 97.7012 94.3387C97.7012 94.633 97.9949 94.9274 98.2887 94.9274C98.6559 94.9274 98.8763 94.7066 98.8763 94.3387C98.9497 94.0443 98.7294 93.75 98.2887 93.75C98.3622 93.75 98.3622 93.75 98.2887 93.75Z" fill="#2C56DD"/>
<path d="M93.4415 94.4124C93.0008 94.4124 92.707 94.7067 92.707 95.1482C92.707 95.5897 93.0008 95.8841 93.4415 95.8841C93.8821 95.8841 94.1759 95.5897 94.1759 95.1482V95.1482C94.1759 94.7803 93.8821 94.4124 93.4415 94.4124Z" fill="#2C56DD"/>
<path d="M88.52 94.5596C88.0059 94.5596 87.6387 94.9275 87.6387 95.4426C87.6387 95.9577 88.0059 96.3257 88.52 96.3257C89.0341 96.3257 89.4013 95.9577 89.4013 95.4426C89.4013 95.0011 89.0341 94.5596 88.52 94.5596V94.5596Z" fill="#2C56DD"/>
<path d="M83.5985 94.1914C83.011 94.1914 82.5703 94.6329 82.5703 95.2216C82.5703 95.8103 83.011 96.2518 83.5985 96.2518C84.1861 96.2518 84.6268 95.8103 84.6268 95.2216C84.6268 94.7065 84.1861 94.1914 83.5985 94.1914V94.1914Z" fill="#2C56DD"/>
<path d="M78.7513 93.3086C78.0903 93.3086 77.5762 93.8237 77.5762 94.486C77.5762 95.1483 78.0903 95.6634 78.7513 95.6634C79.4123 95.6634 79.9264 95.1483 79.9264 94.486V94.486C79.9264 93.8973 79.4123 93.3086 78.7513 93.3086Z" fill="#2C56DD"/>
<path d="M73.9782 91.8367C73.2438 91.8367 72.6562 92.4254 72.6562 93.1612C72.6562 93.8971 73.2438 94.4858 73.9782 94.4858C74.7127 94.4858 75.3002 93.8971 75.3002 93.1612C75.3002 92.4254 74.7127 91.8367 73.9782 91.8367Z" fill="#2C56DD"/>
<path d="M69.4982 89.7026C68.6903 89.7026 68.0293 90.3649 68.0293 91.1744C68.0293 91.9838 68.6903 92.6461 69.4982 92.6461C70.3061 92.6461 70.9671 91.9838 70.9671 91.1744V91.1744C70.9671 90.3649 70.3061 89.7026 69.4982 89.7026V89.7026Z" fill="#2C56DD"/>
<path d="M66.855 88.6725C66.855 87.7894 66.1206 86.98 65.1658 86.98C64.211 86.98 63.4766 87.7159 63.4766 88.6725C63.4766 89.5555 64.211 90.365 65.1658 90.365V90.365C66.1206 90.365 66.855 89.6291 66.855 88.6725V88.6725Z" fill="#2C56DD"/>
<path d="M61.3459 83.8157C60.3177 83.8157 59.5098 84.6251 59.5098 85.5818C59.5098 86.612 60.3177 87.4214 61.2724 87.4214C62.3006 87.4214 63.1085 86.612 63.1085 85.6554V85.6554C63.182 84.6251 62.3741 83.8157 61.3459 83.8157Z" fill="#2C56DD"/>
<path d="M57.9674 80.0627C56.8657 80.0627 55.9844 80.9458 55.9844 82.0496C55.9844 83.1534 56.8657 84.0364 57.9674 84.0364C59.069 84.0364 59.9504 83.1534 59.9504 82.0496V82.0496C59.8769 80.9458 59.069 80.0627 57.9674 80.0627Z" fill="#2C56DD"/>
<path d="M55.0303 80.1365C56.2054 80.1365 57.1602 79.1798 57.1602 78.0024C57.1602 76.825 56.2054 75.8684 55.0303 75.8684C53.8552 75.8684 52.9004 76.825 52.9004 78.0024V78.0024C52.9004 79.2534 53.8552 80.1365 55.0303 80.1365V80.1365Z" fill="#2C56DD"/>
<path d="M54.8836 73.7343C54.8836 72.4833 53.8554 71.4531 52.6068 71.4531C51.3583 71.4531 50.3301 72.4833 50.3301 73.7343C50.3301 74.9853 51.3583 76.0155 52.6068 76.0155C53.8554 76.0155 54.8836 74.9853 54.8836 73.7343Z" fill="#2C56DD"/>
<path d="M129.648 54.9695C129.575 54.9695 129.502 55.0431 129.502 55.1167C129.502 55.1903 129.575 55.2639 129.648 55.2639C129.722 55.2639 129.795 55.1903 129.795 55.1167V55.1167C129.795 55.0431 129.722 54.9695 129.648 54.9695V54.9695Z" fill="#2C56DD"/>
<path d="M128.18 59.5321C128.033 59.5321 127.886 59.6793 127.886 59.8264C127.886 59.9736 128.033 60.1208 128.18 60.1208C128.327 60.1208 128.473 59.9736 128.473 59.8264V59.8264C128.473 59.6793 128.327 59.5321 128.18 59.5321V59.5321Z" fill="#2C56DD"/>
<path d="M126.27 63.9473C126.049 63.9473 125.902 64.168 125.902 64.3888C125.902 64.6095 126.123 64.7567 126.343 64.7567C126.563 64.7567 126.71 64.6095 126.71 64.3152C126.637 64.0944 126.49 63.9473 126.27 63.9473V63.9473Z" fill="#2C56DD"/>
<path d="M123.846 68.1416C123.552 68.1416 123.332 68.3624 123.332 68.6567C123.332 68.9511 123.552 69.1718 123.846 69.1718C124.14 69.1718 124.36 68.9511 124.36 68.6567C124.36 68.3624 124.14 68.1416 123.846 68.1416V68.1416Z" fill="#2C56DD"/>
<path d="M120.983 72.0417C120.616 72.0417 120.322 72.3361 120.322 72.704C120.322 73.072 120.616 73.3663 120.983 73.3663C121.35 73.3663 121.644 73.072 121.644 72.704C121.644 72.3361 121.35 72.0417 120.983 72.0417V72.0417Z" fill="#2C56DD"/>
<path d="M117.751 75.574C117.311 75.574 116.943 75.9419 116.943 76.3834C116.943 76.825 117.311 77.1929 117.751 77.1929C118.192 77.1929 118.559 76.825 118.559 76.3834V76.3834C118.559 75.9419 118.192 75.574 117.751 75.574V75.574Z" fill="#2C56DD"/>
<path d="M114.08 78.8118C113.566 78.8118 113.125 79.2533 113.125 79.7684C113.125 80.2835 113.566 80.725 114.08 80.725C114.594 80.725 115.035 80.2835 115.035 79.7684C115.035 79.1797 114.594 78.8118 114.08 78.8118V78.8118Z" fill="#2C56DD"/>
<path d="M110.113 81.6082C109.526 81.6082 109.012 82.0497 109.012 82.712C109.012 83.3007 109.452 83.8158 110.113 83.8158C110.701 83.8158 111.215 83.3742 111.215 82.712V82.712C111.215 82.0497 110.701 81.6082 110.113 81.6082Z" fill="#2C56DD"/>
<path d="M105.78 83.8157C105.119 83.8157 104.531 84.3308 104.531 84.9931C104.531 85.6554 105.045 86.244 105.706 86.244C106.367 86.244 106.955 85.7289 106.955 85.0667V85.0667C107.028 84.4044 106.441 83.8893 105.78 83.8157Z" fill="#2C56DD"/>
<path d="M101.226 85.5083C100.492 85.5083 99.9043 86.097 99.9043 86.8329C99.9043 87.5687 100.492 88.1574 101.226 88.1574C101.961 88.1574 102.548 87.5687 102.548 86.8329V86.8329C102.548 86.097 101.961 85.5083 101.226 85.5083Z" fill="#2C56DD"/>
<path d="M96.4513 86.6121C95.6434 86.6121 94.9824 87.2743 94.9824 88.0838C94.9824 88.8933 95.6434 89.5555 96.4513 89.5555C97.2592 89.5555 97.9202 88.8933 97.9202 88.0838V88.0838C97.9202 87.2743 97.2592 86.6121 96.4513 86.6121Z" fill="#2C56DD"/>
<path d="M91.5318 86.98C90.6505 86.98 89.916 87.7159 89.916 88.5989C89.916 89.4819 90.6505 90.2178 91.5318 90.2178C92.4131 90.2178 93.1476 89.4819 93.1476 88.5989C93.1476 87.7159 92.4131 86.98 91.5318 86.98Z" fill="#2C56DD"/>
<path d="M88.373 88.5254C88.373 87.5687 87.5651 86.7593 86.6103 86.7593C85.6555 86.7593 84.8477 87.5687 84.8477 88.5254C84.8477 89.482 85.6555 90.2915 86.6103 90.2915V90.2915C87.5651 90.2915 88.373 89.482 88.373 88.5254Z" fill="#2C56DD"/>
<path d="M83.6003 87.7895C83.6003 86.7593 82.7925 85.8762 81.6908 85.8762C80.6626 85.8762 79.7812 86.6857 79.7812 87.7895C79.7812 88.8197 80.5891 89.7028 81.6908 89.7028C82.7925 89.7028 83.6003 88.8197 83.6003 87.7895V87.7895Z" fill="#2C56DD"/>
<path d="M78.9723 86.465C78.9723 85.3612 78.0909 84.4045 76.9158 84.4045C75.8141 84.4045 74.8594 85.2876 74.8594 86.465C74.8594 87.6424 75.7407 88.5254 76.9158 88.5254C78.0909 88.4518 78.9723 87.5688 78.9723 86.465V86.465Z" fill="#2C56DD"/>
<path d="M74.6387 84.478C74.6387 83.3006 73.6839 82.344 72.5088 82.344C71.3337 82.344 70.3789 83.3006 70.3789 84.478C70.3789 85.6554 71.3337 86.612 72.5088 86.612V86.612C73.6839 86.612 74.6387 85.6554 74.6387 84.478V84.478Z" fill="#2C56DD"/>
<path d="M118.266 18.8384C118.339 18.8384 118.413 18.7648 118.413 18.6912C118.413 18.6176 118.339 18.544 118.266 18.544V18.544C118.192 18.544 118.119 18.6176 118.119 18.6912C118.192 18.7648 118.266 18.7648 118.266 18.8384Z" fill="#2C56DD"/>
<path d="M120.615 23.3271C120.762 23.3271 120.909 23.1799 120.909 23.0327C120.909 22.8856 120.762 22.7384 120.615 22.7384C120.468 22.7384 120.321 22.8856 120.321 23.0327C120.321 23.1799 120.468 23.3271 120.615 23.3271V23.3271Z" fill="#2C56DD"/>
<path d="M122.379 28.0367C122.599 28.0367 122.746 27.8895 122.746 27.6687C122.746 27.448 122.599 27.3008 122.379 27.3008C122.159 27.3008 122.012 27.448 122.012 27.6687V27.6687C122.012 27.8895 122.159 28.0367 122.379 28.0367V28.0367Z" fill="#2C56DD"/>
<path d="M123.774 32.967C124.067 32.967 124.288 32.7462 124.288 32.4519C124.288 32.1575 124.067 31.9368 123.774 31.9368C123.48 31.9368 123.259 32.1575 123.259 32.4519V32.4519C123.186 32.6726 123.48 32.967 123.774 32.967V32.967Z" fill="#2C56DD"/>
<path d="M123.92 37.235C123.92 37.603 124.214 37.8973 124.581 37.8973C124.948 37.8973 125.242 37.603 125.242 37.235C125.242 36.8671 124.948 36.5728 124.581 36.5728C124.214 36.5728 123.92 36.8671 123.92 37.235Z" fill="#2C56DD"/>
<path d="M124.874 41.356C124.434 41.356 124.066 41.7239 124.066 42.1654C124.066 42.6069 124.434 42.9749 124.874 42.9749C125.315 42.9749 125.682 42.6069 125.682 42.1654C125.682 41.7239 125.315 41.356 124.874 41.356V41.356Z" fill="#2C56DD"/>
<path d="M124.654 46.2126C124.14 46.2126 123.699 46.6542 123.699 47.1693C123.699 47.6844 124.14 48.1259 124.654 48.1259C125.168 48.1259 125.609 47.6844 125.609 47.1693V47.1693C125.609 46.6542 125.168 46.2126 124.654 46.2126V46.2126Z" fill="#2C56DD"/>
<path d="M123.92 50.9224C123.332 50.9224 122.818 51.4375 122.818 52.0262C122.818 52.6149 123.332 53.13 123.92 53.13C124.508 53.13 125.022 52.6149 125.022 52.0262C125.022 51.4375 124.508 50.9224 123.92 50.9224V50.9224Z" fill="#2C56DD"/>
<path d="M123.774 56.8092C123.774 56.1469 123.26 55.6318 122.599 55.6318C121.938 55.6318 121.424 56.1469 121.424 56.8092C121.424 57.4715 121.938 57.9866 122.599 57.9866V57.9866C123.26 57.9866 123.774 57.4715 123.774 56.8092V56.8092Z" fill="#2C56DD"/>
<path d="M120.615 59.9736C119.881 59.9736 119.293 60.5623 119.293 61.2982C119.293 62.0341 119.881 62.6228 120.615 62.6228C121.349 62.6228 121.937 62.0341 121.937 61.2982V61.2982C121.937 60.5623 121.349 59.9736 120.615 59.9736V59.9736Z" fill="#2C56DD"/>
<path d="M118.045 64.0945C117.237 64.0945 116.576 64.7568 116.576 65.5662C116.576 66.3757 117.237 67.038 118.045 67.038C118.853 67.038 119.514 66.3757 119.514 65.5662C119.514 64.7568 118.853 64.0945 118.045 64.0945V64.0945Z" fill="#2C56DD"/>
<path d="M114.96 67.7737C114.078 67.7737 113.344 68.5096 113.344 69.3926C113.344 70.2756 114.078 71.0115 114.96 71.0115C115.841 71.0115 116.575 70.2756 116.575 69.3926V69.3926C116.575 68.5096 115.914 67.7737 114.96 67.7737V67.7737Z" fill="#2C56DD"/>
<path d="M111.435 71.0852C110.48 71.0852 109.672 71.8947 109.672 72.8513C109.672 73.8079 110.48 74.6174 111.435 74.6174C112.389 74.6174 113.197 73.8079 113.197 72.8513V72.8513C113.197 71.8947 112.389 71.0852 111.435 71.0852Z" fill="#2C56DD"/>
<path d="M107.468 73.8816C106.44 73.8816 105.559 74.6911 105.559 75.7949C105.559 76.8251 106.366 77.7081 107.468 77.7081C108.496 77.7081 109.378 76.8987 109.378 75.7949C109.378 74.7646 108.496 73.8816 107.468 73.8816V73.8816Z" fill="#2C56DD"/>
<path d="M103.135 76.1626C102.034 76.1626 101.152 77.0456 101.152 78.1495C101.152 79.2533 102.034 80.1363 103.135 80.1363C104.237 80.1363 105.118 79.2533 105.118 78.1495C105.192 77.0456 104.31 76.1626 103.135 76.1626V76.1626Z" fill="#2C56DD"/>
<path d="M98.583 77.8552C97.4079 77.8552 96.4531 78.8119 96.4531 79.9893C96.4531 81.1666 97.4079 82.1233 98.583 82.1233C99.7581 82.1233 100.713 81.1666 100.713 79.9893C100.713 78.8119 99.7581 77.8552 98.583 77.8552Z" fill="#2C56DD"/>
<path d="M84.5547 1.10373C84.6282 1.10373 84.7016 1.03015 84.7016 0.956559C84.7016 0.882972 84.6282 0.809384 84.5547 0.809384C84.4813 0.809384 84.4078 0.882972 84.4078 0.956559C84.4078 1.03015 84.4813 1.10373 84.5547 1.10373V1.10373Z" fill="#2C56DD"/>
<path d="M89.2539 2.72283C89.4008 2.72283 89.5477 2.57566 89.5477 2.42848C89.5477 2.28131 89.4008 2.13413 89.2539 2.13413C89.1071 2.13413 88.9602 2.28131 88.9602 2.42848C88.9602 2.57566 89.1071 2.72283 89.2539 2.72283V2.72283Z" fill="#2C56DD"/>
<path d="M93.8079 4.78309C94.0282 4.78309 94.1751 4.63592 94.1751 4.34157C94.1751 4.12081 94.0282 3.97363 93.7344 3.97363C93.5141 3.97363 93.3672 4.12081 93.3672 4.41516V4.41516C93.3672 4.63592 93.5875 4.78309 93.8079 4.78309Z" fill="#2C56DD"/>
<path d="M98.0688 7.35883C98.3626 7.35883 98.5829 7.13807 98.5829 6.84372C98.5829 6.54937 98.3626 6.32861 98.0688 6.32861C97.775 6.32861 97.5547 6.54937 97.5547 6.84372C97.5547 7.13807 97.775 7.35883 98.0688 7.35883V7.35883Z" fill="#2C56DD"/>
<path d="M102.108 10.3758C102.475 10.3758 102.769 10.0815 102.769 9.71355C102.769 9.34562 102.475 9.05127 102.108 9.05127C101.741 9.05127 101.447 9.34562 101.447 9.71355V9.71355C101.447 10.0815 101.741 10.3758 102.108 10.3758V10.3758Z" fill="#2C56DD"/>
<path d="M105.781 13.7608C106.221 13.7608 106.588 13.3928 106.588 12.9513C106.588 12.5098 106.221 12.1418 105.781 12.1418C105.34 12.1418 104.973 12.5098 104.973 12.9513V12.9513C104.973 13.3928 105.34 13.7608 105.781 13.7608Z" fill="#2C56DD"/>
<path d="M109.158 17.5139C109.672 17.5139 110.113 17.0723 110.113 16.5572C110.113 16.0421 109.672 15.6006 109.158 15.6006C108.644 15.6006 108.203 16.0421 108.203 16.5572V16.5572C108.203 17.1459 108.644 17.5139 109.158 17.5139Z" fill="#2C56DD"/>
<path d="M112.096 21.6346C112.683 21.6346 113.197 21.1195 113.197 20.5308C113.197 19.9421 112.683 19.427 112.096 19.427C111.508 19.427 110.994 19.9421 110.994 20.5308C110.994 21.1931 111.435 21.6346 112.096 21.6346V21.6346Z" fill="#2C56DD"/>
<path d="M114.446 26.1234C115.107 26.1234 115.621 25.6083 115.621 24.8725C115.621 24.2102 115.107 23.6951 114.372 23.6951C113.711 23.6951 113.197 24.2102 113.197 24.8725C113.271 25.5347 113.785 26.1234 114.446 26.1234V26.1234Z" fill="#2C56DD"/>
<path d="M114.961 29.5084C114.961 30.2443 115.548 30.833 116.283 30.833C117.017 30.833 117.605 30.2443 117.605 29.5084C117.605 28.7725 117.017 28.1838 116.283 28.1838V28.1838C115.548 28.1102 114.961 28.7725 114.961 29.5084V29.5084Z" fill="#2C56DD"/>
<path d="M115.988 34.2916C115.988 35.101 116.649 35.7633 117.457 35.7633C118.265 35.7633 118.926 35.101 118.926 34.2916C118.926 33.4821 118.265 32.8198 117.457 32.8198C116.649 32.8198 115.988 33.4821 115.988 34.2916V34.2916Z" fill="#2C56DD"/>
<path d="M116.43 39.2219C116.43 40.105 117.164 40.8409 118.045 40.8409C118.927 40.8409 119.661 40.105 119.661 39.2219C119.661 38.3389 118.927 37.603 118.045 37.603V37.603C117.164 37.603 116.43 38.2653 116.43 39.2219V39.2219Z" fill="#2C56DD"/>
<path d="M119.66 44.1523C119.66 43.1957 118.852 42.3862 117.897 42.3862C116.943 42.3862 116.135 43.1957 116.135 44.1523C116.135 45.109 116.943 45.9184 117.897 45.9184V45.9184C118.926 45.9184 119.66 45.109 119.66 44.1523Z" fill="#2C56DD"/>
<path d="M119.073 49.009C119.073 47.9787 118.265 47.0957 117.163 47.0957C116.135 47.0957 115.254 47.9052 115.254 49.009C115.254 50.0392 116.062 50.9222 117.163 50.9222V50.9222C118.265 50.9222 119.073 50.0392 119.073 49.009Z" fill="#2C56DD"/>
<path d="M117.825 53.7923C117.825 52.6885 116.944 51.8054 115.842 51.8054C114.741 51.8054 113.859 52.6885 113.859 53.7923C113.859 54.8961 114.741 55.7791 115.842 55.7791C116.944 55.7791 117.825 54.8961 117.825 53.7923V53.7923Z" fill="#2C56DD"/>
<path d="M113.858 56.147C112.683 56.147 111.729 57.1036 111.729 58.281C111.729 59.4584 112.683 60.415 113.858 60.415C115.034 60.415 115.988 59.4584 115.988 58.281C115.988 57.1036 115.034 56.147 113.858 56.147V56.147Z" fill="#2C56DD"/>
<path d="M48.1993 12.5097C48.2727 12.5097 48.3461 12.4362 48.3461 12.3626C48.3461 12.289 48.2727 12.2154 48.1993 12.2154C48.1258 12.2154 48.0524 12.289 48.0524 12.3626V12.3626C48.0524 12.4362 48.1258 12.5097 48.1993 12.5097V12.5097Z" fill="#2C56DD"/>
<path d="M52.5332 10.3759C52.6801 10.3759 52.827 10.2287 52.827 10.0816C52.827 9.93438 52.6801 9.78721 52.5332 9.78721C52.3863 9.78721 52.2395 9.93438 52.2395 10.0816C52.2395 10.2287 52.3863 10.3759 52.5332 10.3759V10.3759Z" fill="#2C56DD"/>
<path d="M57.159 8.68324C57.3793 8.68324 57.5996 8.53606 57.5996 8.3153C57.5996 8.09454 57.4527 7.87378 57.2324 7.87378C57.0121 7.87378 56.7918 8.02095 56.7918 8.24171V8.24171C56.7183 8.46248 56.9386 8.68324 57.159 8.68324Z" fill="#2C56DD"/>
<path d="M61.9325 7.43232C62.2263 7.43232 62.4466 7.21156 62.4466 6.91721C62.4466 6.62286 62.2263 6.4021 61.9325 6.4021C61.6387 6.4021 61.4184 6.62286 61.4184 6.91721C61.3449 7.21156 61.5653 7.43232 61.9325 7.43232C61.859 7.43232 61.859 7.43232 61.9325 7.43232Z" fill="#2C56DD"/>
<path d="M66.7801 6.77013C67.1474 6.77013 67.4411 6.47578 67.4411 6.10784C67.4411 5.73991 67.1474 5.44556 66.7801 5.44556C66.4129 5.44556 66.1191 5.73991 66.1191 6.10784C66.1191 6.47578 66.4129 6.77013 66.7801 6.77013V6.77013Z" fill="#2C56DD"/>
<path d="M71.7024 6.62282C72.1431 6.62282 72.5103 6.25489 72.5103 5.81336C72.5103 5.37184 72.1431 5.00391 71.7024 5.00391C71.2618 5.00391 70.8945 5.37184 70.8945 5.81336C70.8945 6.25489 71.2618 6.62282 71.7024 6.62282V6.62282Z" fill="#2C56DD"/>
<path d="M76.6227 6.91717C77.1369 6.91717 77.5775 6.47565 77.5775 5.96054C77.5775 5.44543 77.1369 5.00391 76.6227 5.00391C76.1086 5.00391 75.668 5.44543 75.668 5.96054V5.96054C75.668 6.54924 76.1086 6.91717 76.6227 6.91717V6.91717Z" fill="#2C56DD"/>
<path d="M81.4689 7.80014C82.0564 7.80014 82.5705 7.28503 82.5705 6.69634C82.5705 6.10764 82.0564 5.59253 81.4689 5.59253C80.8813 5.59253 80.3672 6.10764 80.3672 6.69634C80.4406 7.35862 80.8813 7.80014 81.4689 7.80014V7.80014Z" fill="#2C56DD"/>
<path d="M86.2438 9.34551C86.9048 9.34551 87.4189 8.8304 87.4189 8.16812C87.4189 7.50583 86.9048 6.99072 86.2438 6.99072C85.5828 6.99072 85.0687 7.50583 85.0687 8.16812C84.9953 8.75681 85.5828 9.27192 86.2438 9.34551Z" fill="#2C56DD"/>
<path d="M90.7243 11.406C91.4588 11.406 92.0463 10.8173 92.0463 10.0814C92.0463 9.34553 91.4588 8.75684 90.7243 8.75684C89.9899 8.75684 89.4023 9.34553 89.4023 10.0814V10.0814C89.4023 10.8173 89.9899 11.406 90.7243 11.406V11.406Z" fill="#2C56DD"/>
<path d="M93.5137 12.5833C93.5137 13.3928 94.1747 14.0551 94.9826 14.0551C95.7904 14.0551 96.4514 13.3928 96.4514 12.5833C96.4514 11.7739 95.7904 11.1116 94.9826 11.1116V11.1116C94.1747 11.1116 93.5137 11.7739 93.5137 12.5833V12.5833Z" fill="#2C56DD"/>
<path d="M98.8033 17.293C99.6846 17.293 100.419 16.5571 100.419 15.6741C100.419 14.791 99.6846 14.0552 98.8033 14.0552C97.9219 14.0552 97.1875 14.791 97.1875 15.6741C97.1875 16.5571 97.9219 17.293 98.8033 17.293V17.293Z" fill="#2C56DD"/>
<path d="M102.255 20.9724C103.21 20.9724 104.018 20.1629 104.018 19.2063C104.018 18.2496 103.21 17.4402 102.255 17.4402C101.3 17.4402 100.492 18.2496 100.492 19.2063V19.2063C100.492 20.2365 101.3 20.9724 102.255 20.9724Z" fill="#2C56DD"/>
<path d="M105.193 21.3403C104.165 21.3403 103.283 22.1498 103.283 23.2536C103.283 24.2838 104.091 25.1669 105.193 25.1669C106.221 25.1669 107.102 24.3574 107.102 23.2536V23.2536C107.102 22.1498 106.221 21.3403 105.193 21.3403V21.3403Z" fill="#2C56DD"/>
<path d="M105.559 27.5215C105.559 28.6253 106.44 29.5084 107.542 29.5084C108.643 29.5084 109.525 28.6253 109.525 27.5215C109.525 26.4177 108.643 25.5347 107.542 25.5347C106.44 25.5347 105.559 26.4177 105.559 27.5215V27.5215Z" fill="#2C56DD"/>
<path d="M107.248 32.1575C107.248 33.3349 108.203 34.2915 109.378 34.2915C110.553 34.2915 111.508 33.3349 111.508 32.1575C111.508 30.9801 110.553 30.0235 109.378 30.0235C108.203 29.9499 107.248 30.9801 107.248 32.1575Z" fill="#2C56DD"/>
<path d="M110.554 34.6594C109.306 34.6594 108.277 35.6896 108.277 36.9406C108.277 38.1916 109.306 39.2218 110.554 39.2218C111.803 39.2218 112.831 38.1916 112.831 36.9406V36.9406C112.831 35.6896 111.803 34.6594 110.554 34.6594Z" fill="#2C56DD"/>
<path d="M30.5719 45.9185C30.425 45.9185 30.2781 45.9921 30.2781 46.1392C30.2781 46.2864 30.3516 46.4336 30.4985 46.4336V46.4336C30.6454 46.4336 30.7922 46.36 30.7922 46.2128C30.7922 46.0657 30.7188 45.9185 30.5719 45.9185V45.9185Z" fill="#2C56DD"/>
<path d="M32.0415 40.988C31.7477 40.988 31.5273 41.2088 31.5273 41.5031C31.5273 41.7975 31.7477 42.0183 32.0415 42.0183C32.3352 42.0183 32.5556 41.7975 32.5556 41.5031V41.5031C32.4821 41.2088 32.2618 40.988 32.0415 40.988Z" fill="#2C56DD"/>
<path d="M34.7599 36.9407C34.7599 36.4992 34.3927 36.2048 34.0255 36.2048C33.6582 36.2048 33.291 36.5728 33.291 36.9407C33.291 37.3086 33.6582 37.6766 34.0255 37.6766V37.6766C34.3927 37.6766 34.6865 37.3822 34.7599 36.9407Z" fill="#2C56DD"/>
<path d="M36.3739 33.6293C36.9615 33.6293 37.4021 33.1878 37.4021 32.5991C37.4021 32.0104 36.9615 31.5688 36.3739 31.5688C35.7864 31.5688 35.3457 32.0104 35.3457 32.5991V32.5991C35.3457 33.1878 35.7864 33.6293 36.3739 33.6293Z" fill="#2C56DD"/>
<path d="M39.2388 29.8765C39.9732 29.8765 40.4873 29.2878 40.4873 28.6255C40.4873 27.8896 39.8998 27.3745 39.2388 27.3745C38.5043 27.3745 37.9902 27.9632 37.9902 28.6255V28.6255C37.9902 29.2878 38.5043 29.8765 39.2388 29.8765V29.8765Z" fill="#2C56DD"/>
<path d="M42.4701 26.4178C43.2779 26.4178 44.0124 25.7555 44.0124 24.8725C44.0124 23.9894 43.3514 23.3271 42.4701 23.3271C41.5887 23.3271 40.9277 23.9894 40.9277 24.8725C41.0012 25.7555 41.6622 26.4178 42.4701 26.4178V26.4178Z" fill="#2C56DD"/>
<path d="M46.1435 23.3271C47.0983 23.3271 47.9062 22.5176 47.9062 21.561C47.9062 20.6044 47.0983 19.7949 46.1435 19.7949C45.1887 19.7949 44.3809 20.6044 44.3809 21.561V21.561C44.3809 22.5176 45.1887 23.3271 46.1435 23.3271V23.3271Z" fill="#2C56DD"/>
<path d="M50.1092 20.678C51.2108 20.678 52.1656 19.795 52.1656 18.6176C52.1656 17.4402 51.2843 16.5571 50.1092 16.5571C49.0075 16.5571 48.0527 17.4402 48.0527 18.6176V18.6176C48.0527 19.7214 49.0075 20.678 50.1092 20.678Z" fill="#2C56DD"/>
<path d="M54.3686 18.4704C55.6171 18.4704 56.6453 17.4401 56.6453 16.1892C56.6453 14.9382 55.6171 13.908 54.3686 13.908C53.12 13.908 52.0918 14.9382 52.0918 16.1892C52.0918 17.4401 53.12 18.4704 54.3686 18.4704V18.4704Z" fill="#2C56DD"/>
<path d="M58.923 16.8513C60.1716 16.8513 61.1998 15.8947 61.4201 14.7173C62.3015 15.9683 64.0641 16.2626 65.3127 15.3796C65.6799 15.0853 65.9737 14.7909 66.194 14.3494C67.2222 15.674 69.1318 15.9683 70.4538 14.9381C70.6007 14.7909 70.7476 14.7173 70.8945 14.5701C71.9227 16.0419 73.9791 16.4098 75.448 15.3796C75.5949 15.6004 75.7418 15.7475 75.8887 15.9683C75.0808 16.0419 74.3463 16.4098 73.7588 16.9985C72.2899 15.674 70.0866 15.7475 68.7646 17.2193C68.6911 17.2929 68.6177 17.44 68.5442 17.5136C67.9567 17.0721 67.2222 16.7778 66.4878 16.7778C65.1658 16.7778 63.9907 17.5136 63.4766 18.691C62.0077 17.7344 60.0982 18.1023 59.1434 19.5005C58.923 19.7948 58.7762 20.1628 58.7027 20.5307C57.3073 19.6477 55.4712 20.0892 54.6633 21.4873C54.3695 21.9289 54.2226 22.444 54.2226 23.0327V23.0327C52.9006 22.2968 51.2114 22.7383 50.477 24.0629C50.2566 24.5044 50.1097 24.9459 50.1097 25.461C50.1097 25.7554 50.1832 25.9761 50.1832 26.1969C49.816 25.9761 49.3019 25.829 48.8612 25.829C47.4658 25.829 46.2906 27.0064 46.2906 28.4045C46.2906 29.8027 47.4658 30.9801 48.8612 30.9801C50.2566 30.9801 51.4317 29.8027 51.4317 28.4045V28.4045C51.4317 28.1838 51.4317 27.963 51.3583 27.7422C52.6068 28.5517 54.2961 28.1838 55.1774 26.9328C55.4712 26.4913 55.6181 26.0497 55.6181 25.5346C56.0587 25.829 56.6463 25.9762 57.1604 25.9762C57.2338 25.9762 57.2338 25.9762 57.3073 25.9762C56.6463 26.5648 56.2791 27.3743 56.2056 28.1838C54.4429 27.8158 52.7537 28.9932 52.46 30.7593C52.3865 30.9801 52.3865 31.1272 52.3865 31.348C52.3865 31.4952 52.3865 31.5688 52.3865 31.7159C52.2396 31.7159 52.1662 31.7159 52.0193 31.7159C50.3301 31.7159 48.9346 33.1141 48.9346 34.8066V34.8066C48.9346 35.1745 49.0081 35.4689 49.0815 35.7632C49.0081 35.7632 48.9346 35.7632 48.8612 35.7632C47.2454 35.7632 45.9969 37.0878 45.9969 38.6331C45.9969 39.1482 46.1438 39.6634 46.4375 40.1785H46.3641C44.8952 40.1785 43.6467 41.4294 43.6467 42.9012C43.6467 43.6371 43.9404 44.3729 44.528 44.888C44.4545 44.888 44.4545 44.888 44.3811 44.888C42.9857 44.888 41.8105 46.0654 41.8105 47.4636C41.8105 48.8617 42.9857 50.0391 44.3811 50.0391C45.7765 50.0391 46.9516 48.8617 46.9516 47.4636C46.9516 46.8013 46.6579 46.139 46.2172 45.6239C46.2906 45.6239 46.3641 45.6239 46.3641 45.6239C47.0985 45.6239 47.833 45.3296 48.3471 44.7409V44.8145C48.3471 45.4767 48.5674 46.139 48.9346 46.6541C47.3923 47.2428 46.5844 48.9353 47.0985 50.4807C47.2454 50.9958 47.6126 51.4373 47.9799 51.7316C46.5844 52.3939 45.9234 54.0864 46.5844 55.4846C46.8782 56.0733 47.3189 56.5148 47.833 56.8092C46.511 57.4714 45.9969 59.0904 46.6579 60.4149C47.0251 61.1508 47.6861 61.6659 48.494 61.8131C47.2454 62.4754 46.7313 63.9471 47.3923 65.2717C47.833 66.1547 48.7143 66.6698 49.6691 66.6698C49.816 66.6698 49.9629 66.6698 50.1097 66.5962C48.8612 67.0378 48.2002 68.3623 48.6409 69.6133C49.0815 70.8643 50.4035 71.5266 51.6521 71.0851C52.9006 70.6435 53.5616 69.319 53.121 68.068C52.8272 67.1114 51.8724 66.4491 50.8442 66.4491C50.6973 66.4491 50.5504 66.4491 50.4035 66.5227C51.5052 66.2283 52.1662 65.1981 52.2396 64.0943C52.2396 64.0207 52.2396 63.9471 52.2396 63.8735C52.6068 64.315 53.1944 64.6094 53.782 64.7566C52.7537 65.934 52.9006 67.7001 54.0757 68.7303C54.5898 69.1718 55.2508 69.3926 55.9118 69.3926H55.9853C55.1039 70.57 55.3977 72.2625 56.5728 73.1455C57.0135 73.5134 57.6011 73.6606 58.1886 73.6606C58.4824 73.6606 58.7027 73.587 58.9965 73.5134C58.1886 74.6908 58.5558 76.3097 59.7309 77.0456C60.1716 77.34 60.6123 77.4871 61.1264 77.4871C61.7139 77.4871 62.3015 77.2664 62.7421 76.8984C61.8608 77.9287 62.0077 79.474 62.9625 80.2835C63.9907 81.1665 65.533 81.0193 66.3409 80.0627C67.1488 79.1061 67.1488 77.7079 66.2675 76.8249C66.5612 76.8249 66.9285 76.7513 67.2222 76.6777V76.6777C67.2222 77.7815 67.8098 78.8117 68.838 79.3268C68.6911 79.3268 68.5442 79.2532 68.3973 79.2532C67.1488 79.2532 66.0471 80.2835 66.0471 81.5344C66.0471 82.7854 67.0754 83.8892 68.3239 83.8892C69.5725 83.8892 70.6741 82.859 70.6741 81.608C70.6741 80.725 70.2335 79.9891 69.4256 79.5476C69.6459 79.6212 69.8662 79.6212 70.16 79.6212C70.7476 79.6212 71.2617 79.474 71.7023 79.1796C71.8492 80.725 73.1712 81.9024 74.7136 81.7552C75.3745 81.6816 76.0355 81.3873 76.5497 80.8722C76.77 82.3439 78.1654 83.3741 79.6343 83.0798C80.4422 82.9326 81.1766 82.4175 81.6173 81.6816C81.9111 83.0798 83.2331 83.9628 84.6285 83.6685C85.7302 83.4477 86.5381 82.5647 86.685 81.4608C86.7584 82.7854 87.9335 83.8156 89.2555 83.7421C90.5775 83.6685 91.6057 82.4911 91.5323 81.1665C91.4588 79.9155 90.4306 78.9589 89.1821 78.8853C89.4024 78.6645 89.5493 78.3702 89.6962 78.0758C90.5041 78.8853 91.6792 79.1796 92.7074 78.8117C91.6792 79.5476 91.3854 80.9457 92.1198 81.976C92.8543 83.0062 94.2497 83.3005 95.2779 82.5647C96.3061 81.8288 96.5999 80.4306 95.8655 79.4004C95.4248 78.7381 94.7638 78.3702 93.9559 78.3702C93.7356 78.3702 93.5153 78.4438 93.2949 78.4438C93.9559 78.0023 94.47 77.34 94.6169 76.6041C95.131 77.0456 95.792 77.2664 96.453 77.2664C97.9954 77.2664 99.2439 76.0154 99.2439 74.4701V74.3965C99.6846 74.7644 100.272 74.9116 100.786 74.9116C102.255 74.9116 103.504 73.7342 103.504 72.1889V72.1889C103.504 71.8945 103.43 71.6738 103.357 71.3794C104.532 72.1889 106.074 71.8945 106.882 70.7171C107.543 69.7605 107.47 68.5831 106.735 67.7001C107.176 68.068 107.763 68.2887 108.278 68.2887C109.6 68.2887 110.701 67.1849 110.701 65.8604C110.701 64.5358 109.6 63.432 108.278 63.432V63.432C107.69 63.432 107.029 63.6528 106.588 64.0943C106.588 63.7999 106.515 63.432 106.441 63.1377V63.1377C107.543 63.1377 108.571 62.549 109.085 61.5187C109.085 61.6659 109.012 61.8131 109.012 61.9603C109.012 63.2112 110.04 64.315 111.289 64.315C112.537 64.315 113.639 63.2848 113.639 62.0338C113.639 60.7829 112.611 59.6791 111.362 59.6791C110.481 59.6791 109.746 60.1206 109.306 60.8564C109.379 60.6357 109.379 60.4149 109.379 60.1206C109.379 59.5319 109.232 59.0168 108.939 58.5752C110.481 58.4281 111.656 57.1035 111.509 55.5582C111.436 54.8959 111.142 54.2336 110.628 53.7185C112.097 53.4977 113.125 52.0996 112.831 50.6278C112.684 49.8184 112.17 49.0825 111.436 48.7146C112.831 48.4202 113.712 47.0957 113.419 45.6975C113.198 44.5937 112.317 43.7842 111.215 43.6371C112.537 43.5635 113.566 42.3861 113.492 41.0615C113.419 39.7369 112.244 38.7067 110.922 38.7803C109.6 38.8539 108.571 40.0313 108.645 41.3559C108.718 42.5333 109.6 43.4899 110.775 43.6371C109.379 43.7106 108.278 44.888 108.424 46.3598C108.498 47.2428 109.012 48.0523 109.746 48.4202C108.278 48.641 107.323 50.0391 107.543 51.5109C107.617 52.026 107.91 52.5411 108.278 52.9826C106.735 53.2034 105.634 54.6015 105.854 56.1469C105.927 56.5148 106.001 56.8827 106.221 57.1771C104.679 57.2507 103.43 58.5752 103.43 60.1206C103.43 60.4149 103.504 60.7093 103.577 61.0036C103.504 61.0036 103.504 61.0036 103.43 61.0036C101.741 61.0036 100.346 62.4018 100.346 64.0943C100.346 64.1679 100.346 64.2415 100.346 64.315C100.199 64.315 100.052 64.2415 99.8315 64.2415C98.2157 64.2415 96.8937 65.4189 96.6734 67.0378C96.3796 66.9642 96.0858 66.8906 95.792 66.8906C94.47 66.8906 93.2949 67.6265 92.7808 68.8039C91.5323 67.7736 89.6962 67.9944 88.6679 69.2454C88.5211 69.4661 88.3742 69.6869 88.2273 69.9077C87.1256 68.7303 85.2161 68.6567 84.041 69.7605C83.8206 69.9813 83.6003 70.2756 83.4534 70.57C82.4252 69.319 80.5891 69.0982 79.2671 70.1284C79.1936 70.202 79.0468 70.2756 78.9733 70.4228C78.3123 68.951 76.5497 68.2888 75.0808 68.951C74.9339 69.0246 74.7136 69.0982 74.5667 69.2454C74.1994 67.6265 72.5837 66.6698 71.0413 67.0378C70.821 67.1114 70.6741 67.1114 70.4538 67.2585C70.3803 65.6396 69.0583 64.315 67.4426 64.3886C67.2957 64.3886 67.1488 64.3886 67.0754 64.4622C67.4426 62.8433 66.4878 61.298 64.872 60.93C64.6517 60.8565 64.4314 60.8564 64.211 60.8564C64.872 59.3847 64.211 57.6186 62.6687 56.9563C62.5218 56.8827 62.3749 56.8827 62.3015 56.8092C63.3297 55.4846 63.0359 53.6449 61.7874 52.6147C61.7139 52.5411 61.567 52.4675 61.4936 52.3939C62.8156 51.3637 63.0359 49.524 62.0077 48.1995C61.8608 48.0523 61.7874 47.9051 61.6405 47.7579C62.4484 47.39 62.9625 46.6541 63.1828 45.8447C63.4031 45.0352 63.2563 44.1522 62.7421 43.4163C64.3579 43.0484 65.3127 41.503 64.9455 39.8841C64.9455 39.7369 64.872 39.6634 64.872 39.5162C66.4878 39.5898 67.8832 38.3388 67.9567 36.7199C67.9567 36.4991 67.9567 36.3519 67.9567 36.1312C69.5725 36.4991 71.1882 35.5425 71.5554 33.9236C71.5554 33.7764 71.6289 33.6292 71.6289 33.482C73.0978 34.2179 74.8604 33.7028 75.5949 32.2311C75.6683 32.0839 75.7418 32.0103 75.7418 31.8631C76.3293 32.4518 77.2107 32.6726 78.0185 32.599V32.599C78.8999 32.5254 79.7078 32.0103 80.2219 31.2008C81.1766 32.5254 83.0127 32.8933 84.3347 31.9367C84.4816 31.8631 84.6285 31.7159 84.702 31.6424C85.2895 33.1877 87.0522 33.9236 88.5211 33.2613C88.7414 33.1877 88.8883 33.1141 89.0352 32.9669C89.1821 33.85 89.7696 34.5858 90.5041 35.0274V35.0274C91.165 35.3953 91.8995 35.4689 92.6339 35.3217C92.7074 35.4689 92.7808 35.5425 92.8543 35.6161C92.9277 36.2783 93.148 36.867 93.5887 37.3822L93.6622 37.4557C95.2045 39.0747 98.6564 42.9012 97.9954 48.0523C97.8485 49.3033 98.5829 49.9656 99.4642 49.0089C105.046 42.9748 104.165 35.6161 104.018 34.733C104.018 34.2179 103.871 33.6292 103.651 33.1141C103.724 32.8198 103.724 32.4518 103.724 32.1575C103.724 30.6857 103.063 29.2876 101.814 28.3309C101.888 28.0366 101.888 27.7422 101.888 27.4479C101.888 25.6082 100.786 23.9157 99.0236 23.1798C98.9501 21.0458 97.4078 19.2797 95.3514 18.9118C94.9842 16.9249 93.2949 15.5268 91.2385 15.5268C91.1651 15.5268 91.0916 15.5268 91.0182 15.5268C90.5041 13.9079 88.9617 12.8041 87.2725 12.8041C86.9053 12.8041 86.6115 12.8776 86.3177 12.9512C85.4364 11.038 83.2331 10.2285 81.397 11.1115C81.397 11.1115 81.3235 11.1115 81.3235 11.1851C80.3688 9.49263 78.1654 8.97752 76.4762 9.93416C76.3293 10.0077 76.1824 10.0813 76.109 10.2285C75.0808 8.75676 73.0243 8.38883 71.5554 9.49263C71.3351 9.63981 71.1148 9.86057 70.8945 10.0813C69.8662 8.75676 67.9567 8.536 66.6347 9.63981C66.2675 9.93416 65.9737 10.3021 65.7534 10.7436C64.7251 9.56622 63.0359 9.41905 61.8608 10.3757C61.3467 10.8172 60.9795 11.4795 60.906 12.2154C60.0247 11.1115 58.4824 10.8908 57.3807 11.7738C56.2791 12.6569 56.0587 14.2022 56.9401 15.306C57.4542 16.4834 58.1886 16.8513 58.923 16.8513Z" fill="#2C56DD"/>
<path d="M41.8828 82.4177C41.8094 82.4177 41.6625 82.4913 41.6625 82.6384V82.6384C41.6625 82.712 41.736 82.8592 41.8828 82.8592C41.9563 82.8592 42.1032 82.7856 42.1032 82.6384C42.1032 82.4913 42.0297 82.4177 41.8828 82.4177Z" fill="#2C56DD"/>
<path d="M39.6055 77.8552C39.3852 77.8552 39.2383 78.0024 39.2383 78.2232V78.2232C39.2383 78.4439 39.3852 78.5911 39.6055 78.5911C39.8258 78.5911 39.9727 78.4439 39.9727 78.2232C40.0462 78.0024 39.8258 77.8552 39.6055 77.8552V77.8552Z" fill="#2C56DD"/>
<path d="M37.7711 73.072C37.4774 73.072 37.1836 73.3664 37.1836 73.6607C37.1836 73.9551 37.4774 74.2494 37.7711 74.2494C38.0649 74.2494 38.3587 73.9551 38.3587 73.6607C38.4321 73.2928 38.1384 73.072 37.7711 73.072Z" fill="#2C56DD"/>
<path d="M36.4485 68.0681C36.0078 68.0681 35.6406 68.4361 35.6406 68.8776C35.6406 69.3191 36.0078 69.687 36.4485 69.687C36.8892 69.687 37.2564 69.3191 37.2564 68.8776C37.2564 68.4361 36.8892 68.0681 36.4485 68.0681V68.0681Z" fill="#2C56DD"/>
<path d="M36.5951 64.0208C36.5951 63.5057 36.1544 63.0642 35.6403 63.0642C35.1262 63.0642 34.6855 63.5057 34.6855 64.0208C34.6855 64.536 35.1262 64.9775 35.6403 64.9775V64.9775C36.2279 64.9775 36.5951 64.536 36.5951 64.0208Z" fill="#2C56DD"/>
<path d="M36.5221 59.0905C36.5221 58.4282 36.008 57.9131 35.347 57.9131C34.686 57.9131 34.1719 58.4282 34.1719 59.0905C34.1719 59.7528 34.686 60.2679 35.347 60.2679C36.008 60.2679 36.5221 59.7528 36.5221 59.0905V59.0905Z" fill="#2C56DD"/>
<path d="M34.1719 54.1601C34.1719 54.896 34.7594 55.5583 35.5673 55.5583C36.3018 55.5583 36.9628 54.9696 36.9628 54.1601C36.9628 53.4242 36.3752 52.762 35.5673 52.762C34.8329 52.762 34.1719 53.3507 34.1719 54.1601V54.1601Z" fill="#2C56DD"/>
<path d="M36.3021 50.8487C37.1834 50.8487 37.8444 50.1128 37.8444 49.3034C37.8444 48.4203 37.11 47.7581 36.3021 47.7581C35.4208 47.7581 34.7598 48.4939 34.7598 49.3034C34.7598 50.1128 35.4208 50.8487 36.3021 50.8487V50.8487Z" fill="#2C56DD"/>
<path d="M37.624 42.7542C36.6692 42.7542 35.8613 43.5636 35.8613 44.5202C35.8613 45.4769 36.6692 46.2863 37.624 46.2863C38.5788 46.2863 39.3866 45.4769 39.3866 44.5202V44.5202C39.3866 43.5636 38.6522 42.7542 37.624 42.7542Z" fill="#2C56DD"/>
<path d="M39.606 41.9447C40.7077 41.9447 41.589 41.0616 41.589 39.9578C41.589 38.854 40.7077 37.9709 39.606 37.9709C38.5044 37.9709 37.623 38.854 37.623 39.9578V39.9578C37.623 41.0616 38.5044 41.9447 39.606 41.9447Z" fill="#2C56DD"/>
<path d="M42.1768 37.8974C43.3519 37.8974 44.3067 36.9408 44.3067 35.7634C44.3067 34.586 43.3519 33.6294 42.1768 33.6294C41.0017 33.6294 40.0469 34.586 40.0469 35.7634C39.9735 36.9408 40.9283 37.8974 42.1768 37.8974V37.8974Z" fill="#2C56DD"/>
<path d="M47.6125 31.8633C47.6125 30.5388 46.5843 29.5085 45.2623 29.5085C43.9403 29.5085 42.9121 30.5388 42.9121 31.8633C42.9121 33.1879 43.9403 34.2181 45.2623 34.2181C46.5109 34.2181 47.6125 33.1879 47.6125 31.8633Z" fill="#2C56DD"/>
<path d="M9.29116 136.724C8.04868 136.724 6.80621 136.464 5.67336 135.981C4.57706 135.497 3.55385 134.828 2.71335 133.936C1.87285 133.081 1.21507 132.041 0.740004 130.926C-0.246668 128.547 -0.246668 125.908 0.740004 123.529C1.69013 121.262 3.44422 119.44 5.67336 118.474C8.01214 117.47 10.6433 117.47 12.982 118.474C14.1149 118.994 15.1016 119.7 15.9786 120.593C16.1613 120.778 16.3075 121.039 16.3806 121.299C16.4902 121.596 16.4537 121.968 16.271 122.228C16.0517 122.563 15.7593 122.711 15.3574 122.748V122.748C14.9188 122.748 14.6265 122.637 14.3707 122.377C13.6764 121.782 12.909 121.262 12.0685 120.816C11.228 120.37 10.2778 120.146 9.3277 120.146C8.41412 120.146 7.50053 120.332 6.62349 120.704C5.81954 121.076 5.05213 121.596 4.43089 122.228C3.80965 122.897 3.29804 123.64 2.96915 124.495C2.23828 126.242 2.23828 128.212 2.96915 129.959C3.66348 131.669 4.97904 133.007 6.62349 133.713C7.46399 134.085 8.37758 134.271 9.3277 134.271C10.2778 134.271 11.2645 134.085 12.1415 133.676C12.982 133.304 13.7495 132.747 14.4072 132.041C14.59 131.818 14.8458 131.669 15.1381 131.595C15.2112 131.558 15.3208 131.558 15.4305 131.558C15.6497 131.558 15.869 131.632 16.0517 131.743C16.344 131.966 16.5268 132.338 16.4902 132.71C16.4902 133.081 16.3806 133.416 16.1613 133.676C15.3208 134.605 14.2611 135.386 13.1282 135.906C11.8857 136.464 10.6067 136.761 9.29116 136.724Z" fill="#202328"/>
<path fill-rule="evenodd" clip-rule="evenodd" d="M25.573 136.012C26.7272 136.477 27.993 136.727 29.2589 136.727C30.5247 136.727 31.7906 136.477 32.9447 136.048C34.0617 135.583 35.1041 134.939 35.9604 134.116C36.854 133.293 37.5241 132.292 38.0081 131.219C39.0133 128.965 39.0133 126.39 38.0081 124.137C37.0401 121.955 35.2158 120.202 32.9447 119.272C30.5992 118.306 27.9186 118.306 25.573 119.272C24.4189 119.737 23.4137 120.417 22.5574 121.239C21.701 122.062 21.0309 123.063 20.5469 124.137C19.5417 126.39 19.5417 128.965 20.5469 131.219C21.0309 132.292 21.701 133.258 22.5574 134.08C23.4509 134.903 24.4561 135.547 25.573 136.012ZM26.5038 121.382C27.3974 121.025 28.3281 120.846 29.2589 120.846C30.1897 120.846 31.1204 121.025 32.014 121.382C32.833 121.704 33.6149 122.205 34.2478 122.813C34.918 123.457 35.402 124.172 35.7743 124.995C36.854 127.535 36.2583 130.432 34.2478 132.399C33.5777 133.007 32.833 133.508 31.9767 133.83C28.4026 135.261 24.3072 133.687 22.7807 130.253C22.0734 128.572 22.0734 126.676 22.7807 124.995C23.1158 124.172 23.637 123.421 24.27 122.813C24.9029 122.205 25.6847 121.704 26.5038 121.382Z" fill="#202328"/>
<path d="M54.9272 136.727C54.256 136.727 53.6966 136.17 53.6966 135.502V135.502V124.7C53.6966 124.106 53.5848 123.512 53.3237 122.955C52.839 121.842 51.9813 120.988 50.8627 120.505C49.744 120.023 48.4762 120.023 47.3202 120.505C46.7609 120.728 46.2761 121.062 45.866 121.508C45.4558 121.916 45.1202 122.436 44.8965 122.955C44.6727 123.512 44.5236 124.106 44.5236 124.7V135.502C44.5236 135.836 44.4117 136.133 44.1507 136.356C43.9269 136.579 43.6286 136.727 43.293 136.69C42.6218 136.69 42.0625 136.17 42.0625 135.502V135.502V124.7C42.0625 123.772 42.2489 122.844 42.6218 121.99C42.9574 121.173 43.4795 120.394 44.1134 119.763C44.7473 119.132 45.4931 118.612 46.3507 118.278C48.1033 117.536 50.0796 117.536 51.7949 118.278C53.4729 118.983 54.8153 120.32 55.5238 121.99C55.8967 122.844 56.0831 123.772 56.0831 124.7V135.502C56.0831 135.836 55.9713 136.133 55.7475 136.356C55.5611 136.616 55.2255 136.727 54.9272 136.727Z" fill="#202328"/>
<path d="M66.8435 136.727C65.9737 136.727 65.104 136.579 64.2705 136.283C63.5094 135.987 62.7846 135.58 62.1685 135.025C61.5887 134.508 61.0813 133.879 60.7189 133.176C60.3565 132.473 60.1753 131.696 60.2116 130.882C60.2116 130.253 60.7189 129.735 61.335 129.735C61.9511 129.735 62.4585 130.253 62.4585 130.882C62.4585 131.363 62.5672 131.807 62.7846 132.214C63.0021 132.658 63.3282 133.028 63.6906 133.324C64.1255 133.657 64.5604 133.916 65.0677 134.101C65.6113 134.286 66.1912 134.397 66.8072 134.397C67.3871 134.397 68.0032 134.286 68.5468 134.101C69.0541 133.916 69.5252 133.657 69.9601 133.324C70.3588 133.028 70.6849 132.658 70.9024 132.214C71.1198 131.807 71.1923 131.363 71.1923 130.882C71.156 130.438 71.0111 130.031 70.7936 129.661C70.54 129.254 70.2138 128.884 69.8514 128.588C69.4528 128.255 68.9816 127.996 68.5105 127.811C68.0032 127.59 67.4596 127.442 66.916 127.368C66.1187 127.294 65.3576 127.146 64.5966 126.887C63.9081 126.665 63.2195 126.332 62.6397 125.888C62.0961 125.518 61.6249 125 61.2625 124.445C60.9001 123.89 60.7189 123.224 60.7189 122.558C60.7189 121.892 60.9001 121.226 61.2263 120.635C61.5887 120.043 62.0236 119.525 62.5672 119.118C63.1108 118.674 63.7993 118.341 64.5604 118.082C66.1187 117.601 67.7857 117.601 69.3803 118.082C70.1413 118.341 70.7936 118.674 71.3735 119.118C71.9533 119.562 72.3882 120.08 72.7143 120.635C73.0405 121.226 73.2217 121.892 73.2217 122.558C73.2217 123.224 72.6781 123.779 72.0258 123.779V123.779C71.6996 123.779 71.4097 123.631 71.1923 123.409C70.9748 123.187 70.8661 122.854 70.8299 122.484C70.7936 122.188 70.7212 121.892 70.54 121.67C70.3225 121.374 70.0326 121.115 69.7064 120.93C69.3078 120.672 68.9092 120.487 68.4743 120.376C67.9669 120.228 67.4596 120.154 66.9522 120.191C66.4448 120.191 65.9012 120.265 65.3939 120.376C64.959 120.487 64.5241 120.672 64.1617 120.93C63.8356 121.152 63.5819 121.411 63.3645 121.707C63.1833 121.966 63.0745 122.299 63.0745 122.595C63.0745 122.891 63.1833 123.15 63.4007 123.409C63.6906 123.705 63.9805 123.964 64.3429 124.149C64.7416 124.371 65.1764 124.556 65.6476 124.704C66.0824 124.852 66.5173 124.926 66.9522 125C67.822 125.111 68.6555 125.296 69.4528 125.629C70.25 125.962 70.9386 126.369 71.5184 126.85C72.0983 127.331 72.5694 127.922 72.8955 128.625C73.2217 129.328 73.4029 130.068 73.4029 130.845C73.4029 131.659 73.2217 132.436 72.8593 133.139C72.5332 133.842 72.0258 134.508 71.4097 134.988C70.2138 136.135 68.583 136.727 66.8435 136.727Z" fill="#202328"/>
<path d="M78.7261 137.48C78.0712 137.48 77.5254 136.962 77.5254 136.296V136.296V119.768C77.5254 119.435 77.6345 119.139 77.8892 118.917C78.1076 118.696 78.3986 118.548 78.7261 118.548H88.6594C89.3144 118.548 89.8601 119.065 89.8601 119.731V119.731C89.8601 120.064 89.751 120.359 89.5327 120.581C89.3144 120.803 89.0233 120.951 88.6958 120.951H79.9632V126.756H86.1488C86.8037 126.756 87.3495 127.311 87.3495 127.977C87.3495 128.642 86.8037 129.197 86.1488 129.197H79.9632V135.113H88.6958C89.3507 135.113 89.8965 135.631 89.8965 136.296C89.8965 136.296 89.8965 136.296 89.8965 136.333C89.8965 136.666 89.7874 136.962 89.5691 137.184C89.3507 137.406 89.0597 137.554 88.7322 137.554L78.7261 137.48Z" fill="#202328"/>
<path d="M105.23 136.727C104.559 136.727 104 136.17 104 135.502V135.502V124.7C104 124.106 103.888 123.512 103.627 122.955C103.142 121.842 102.285 120.988 101.167 120.505C100.049 120.023 98.7817 120.023 97.6263 120.505C97.0673 120.728 96.5827 121.062 96.1727 121.508C95.7628 121.916 95.4273 122.436 95.2037 122.955C94.9801 123.512 94.831 124.106 94.831 124.7V135.502C94.831 136.17 94.2719 136.727 93.601 136.727C92.9302 136.727 92.3711 136.17 92.3711 135.502V124.7C92.3711 121.879 94.0483 119.355 96.62 118.278C98.3717 117.536 100.347 117.536 102.099 118.278C102.919 118.612 103.702 119.132 104.335 119.763C104.969 120.394 105.491 121.136 105.826 121.99C106.199 122.844 106.385 123.772 106.385 124.7V135.502C106.46 136.17 105.901 136.727 105.23 136.727V136.727Z" fill="#202328"/>
<path d="M117.096 136.727C116.233 136.727 115.37 136.579 114.543 136.283C113.788 135.987 113.069 135.58 112.457 135.025C111.882 134.508 111.379 133.879 111.019 133.176C110.659 132.473 110.516 131.696 110.516 130.882C110.516 130.586 110.623 130.29 110.839 130.068C111.271 129.624 111.99 129.624 112.421 130.068C112.637 130.29 112.745 130.586 112.745 130.882C112.745 131.363 112.853 131.807 113.069 132.214C113.284 132.658 113.608 133.028 113.967 133.324C114.363 133.657 114.83 133.916 115.334 134.101C115.873 134.286 116.448 134.397 117.06 134.397C117.635 134.397 118.246 134.286 118.786 134.101C119.289 133.916 119.756 133.657 120.188 133.324C120.583 133.028 120.871 132.658 121.123 132.214C121.338 131.807 121.41 131.363 121.41 130.882C121.374 130.438 121.231 130.031 121.015 129.661C120.763 129.254 120.439 128.884 120.08 128.588C119.684 128.255 119.217 127.996 118.75 127.811C118.246 127.59 117.707 127.442 117.167 127.368C116.376 127.331 115.621 127.146 114.902 126.887C114.219 126.665 113.536 126.332 112.961 125.888C112.421 125.518 111.954 125 111.594 124.445C111.235 123.89 111.055 123.224 111.055 122.558C111.055 121.892 111.235 121.226 111.558 120.635C111.918 120.043 112.349 119.525 112.925 119.118C113.5 118.674 114.147 118.341 114.902 118.082C116.448 117.601 118.102 117.601 119.684 118.082C120.439 118.341 121.087 118.674 121.662 119.118C122.201 119.525 122.669 120.043 122.992 120.635C123.316 121.226 123.496 121.892 123.496 122.558C123.496 122.891 123.388 123.187 123.136 123.409C122.92 123.631 122.633 123.779 122.309 123.742C121.986 123.742 121.698 123.594 121.482 123.372C121.266 123.15 121.159 122.817 121.159 122.447C121.123 122.151 121.051 121.855 120.871 121.633C120.655 121.337 120.368 121.078 120.044 120.893C119.648 120.635 119.253 120.45 118.821 120.339C118.318 120.191 117.815 120.117 117.311 120.154C116.808 120.154 116.269 120.228 115.765 120.339C115.334 120.45 114.902 120.635 114.543 120.893C114.219 121.115 113.967 121.374 113.752 121.67C113.572 121.929 113.464 122.262 113.464 122.558C113.464 122.854 113.572 123.113 113.788 123.372C114.075 123.668 114.399 123.927 114.722 124.112C115.118 124.334 115.585 124.519 116.017 124.667C116.448 124.815 116.88 124.889 117.311 124.963C118.174 125.074 119.001 125.259 119.792 125.592C120.547 125.888 121.231 126.295 121.842 126.813C122.417 127.294 122.885 127.885 123.208 128.588C123.532 129.291 123.712 130.031 123.712 130.808C123.712 131.622 123.532 132.399 123.208 133.102C122.849 133.805 122.381 134.434 121.77 134.951C120.439 136.135 118.821 136.727 117.096 136.727V136.727Z" fill="#202328"/>
<path d="M135.183 136.727C134.515 136.727 133.957 136.208 133.957 135.542V135.542V129.354L126.453 119.722C126.267 119.462 126.156 119.166 126.193 118.833C126.23 118.499 126.378 118.203 126.638 118.018C126.861 117.832 127.121 117.721 127.419 117.721C127.827 117.758 128.125 117.906 128.347 118.166L135.183 126.946L142.168 118.166C142.354 117.906 142.651 117.758 142.985 117.721H143.022C143.394 117.721 143.654 117.832 143.877 117.981C144.137 118.166 144.286 118.462 144.323 118.796C144.36 119.129 144.248 119.425 144.063 119.685L136.409 129.317V135.505C136.409 135.838 136.298 136.134 136.038 136.357C135.815 136.616 135.481 136.727 135.183 136.727Z" fill="#202328"/>
<path d="M153.423 136.727C152.556 136.727 151.688 136.579 150.857 136.283C150.098 135.987 149.375 135.58 148.761 135.025C148.183 134.508 147.677 133.879 147.315 133.176C146.954 132.473 146.773 131.696 146.809 130.882C146.809 130.253 147.315 129.735 147.93 129.735C148.219 129.735 148.508 129.846 148.725 130.068C148.942 130.29 149.05 130.586 149.05 130.882C149.05 131.363 149.158 131.807 149.375 132.214C149.592 132.658 149.917 133.028 150.279 133.324C150.676 133.657 151.146 133.916 151.652 134.101C152.194 134.286 152.772 134.397 153.387 134.397C153.965 134.397 154.579 134.286 155.122 134.101C155.628 133.916 156.097 133.657 156.531 133.324C156.929 133.028 157.218 132.658 157.471 132.214C157.688 131.807 157.76 131.363 157.76 130.882C157.724 130.438 157.579 130.031 157.362 129.661C157.109 129.254 156.784 128.884 156.423 128.588C156.025 128.255 155.555 127.996 155.085 127.811C154.579 127.59 154.037 127.442 153.495 127.368C152.7 127.331 151.941 127.146 151.182 126.887C150.496 126.665 149.809 126.332 149.231 125.888C148.689 125.518 148.219 125 147.857 124.445C147.496 123.89 147.315 123.224 147.315 122.558C147.315 121.892 147.496 121.226 147.821 120.635C148.183 120.043 148.616 119.525 149.195 119.118C149.773 118.674 150.423 118.341 151.182 118.082C152.736 117.601 154.435 117.601 155.989 118.082C156.712 118.304 157.362 118.637 157.941 119.118C158.483 119.525 158.952 120.043 159.314 120.635C159.639 121.226 159.82 121.892 159.82 122.558C159.82 123.224 159.278 123.779 158.627 123.779C158.302 123.779 158.013 123.631 157.796 123.409C157.579 123.187 157.471 122.854 157.435 122.484C157.435 122.188 157.326 121.892 157.145 121.67C156.929 121.374 156.639 121.115 156.314 120.93C155.917 120.672 155.519 120.487 155.085 120.376C154.579 120.228 154.073 120.154 153.568 120.191C153.062 120.191 152.519 120.265 152.013 120.376C151.58 120.487 151.146 120.672 150.785 120.93C150.459 121.152 150.206 121.411 149.99 121.707C149.809 121.966 149.7 122.299 149.7 122.595C149.7 122.891 149.809 123.15 150.026 123.409C150.315 123.705 150.64 123.964 150.965 124.149C151.363 124.371 151.797 124.556 152.266 124.704C152.7 124.852 153.134 124.926 153.568 125C154.435 125.111 155.266 125.296 156.061 125.629C156.856 125.962 157.543 126.369 158.121 126.85C158.7 127.331 159.169 127.922 159.495 128.625C159.82 129.328 160.001 130.068 160.001 130.845C160.001 131.659 159.82 132.436 159.495 133.139C159.133 133.842 158.663 134.471 158.049 134.988C156.784 136.135 155.122 136.727 153.423 136.727Z" fill="#202328"/>
</svg>
