<svg width="206" height="182" viewBox="0 0 206 182" fill="none" xmlns="http://www.w3.org/2000/svg">
<mask id="mask0" mask-type="alpha" maskUnits="userSpaceOnUse" x="0" y="0" width="206" height="182">
<path fill-rule="evenodd" clip-rule="evenodd" d="M16.9595 8.84954C16.9595 13.3688 13.2959 17.0324 8.77661 17.0324C4.25734 17.0324 0.59375 13.3688 0.59375 8.84954C0.59375 4.33028 4.25734 0.666687 8.77661 0.666687C13.2959 0.666687 16.9595 4.33028 16.9595 8.84954ZM57.0509 12.2781C57.0509 18.6909 51.8523 23.8895 45.4395 23.8895C39.0266 23.8895 33.828 18.6909 33.828 12.2781C33.828 5.8653 39.0266 0.666687 45.4395 0.666687C51.8523 0.666687 57.0509 5.8653 57.0509 12.2781ZM125.988 180.872C168.457 175.89 202.651 141.147 205.439 96.941C208.594 47.2038 170.788 4.32383 121.051 1.21526C115.108 0.849544 109.257 1.07812 103.588 1.80954C91.6109 2.76954 81.5537 7.34097 81.5537 7.34097C73.3709 11.3181 68.1137 17.9924 68.1137 26.9524C68.1137 38.5638 77.5309 48.0267 89.188 48.0267C91.1537 48.0267 97.8738 45.8781 99.4738 45.3295C105.417 43.2724 111.862 42.3124 118.537 42.7238C135.725 43.821 150.262 53.6953 158.034 67.7295C162.377 75.5924 164.662 84.7353 164.022 94.3353C162.331 121.17 139.245 141.512 112.411 139.821C96.548 138.815 82.9709 130.358 74.8337 118.061C65.788 106.255 67.1184 87.8598 67.3162 85.1239C67.3313 84.9148 67.3399 84.7972 67.3366 84.781C66.9252 73.4895 57.6909 64.4381 46.2623 64.4381C36.5252 64.4381 28.3423 71.0667 25.9195 80.0267C25.4623 81.8095 25.188 86.9753 25.2795 87.661C23.268 136.53 60.6623 178.312 109.759 181.375C115.245 181.695 120.685 181.512 125.988 180.872ZM45.4395 42.7238C45.4395 51.0302 38.7058 57.7638 30.3995 57.7638C22.0931 57.7638 15.3595 51.0302 15.3595 42.7238C15.3595 34.4175 22.0931 27.6838 30.3995 27.6838C38.7058 27.6838 45.4395 34.4175 45.4395 42.7238Z" fill="white"/>
</mask>
<g mask="url(#mask0)">
<rect x="-18.0723" y="-18" width="233.739" height="224" fill="url(#paint0_linear)"/>
</g>
<defs>
<linearGradient id="paint0_linear" x1="-18.0723" y1="-18" x2="-18.0723" y2="206" gradientUnits="userSpaceOnUse">
<stop stop-color="#8C61E1"/>
<stop offset="1" stop-color="#5F45BA"/>
</linearGradient>
</defs>
</svg>
