<svg width="476" height="487" viewBox="0 0 476 487" fill="none" xmlns="http://www.w3.org/2000/svg">
<path d="M7.00238 377.373C6.89992 385.666 10.1041 393.659 15.9088 399.591C21.7136 405.523 29.6427 408.908 37.949 409C40.1082 409.01 42.2617 408.777 44.3687 408.306H363.437C377.003 408.306 388 397.326 388 383.782C388 370.239 377.003 359.259 363.437 359.259H359.651C359.874 340.326 344.686 324.795 325.723 324.565C319.536 324.559 313.472 326.286 308.219 329.55C300.376 317.777 286.808 311.113 272.68 312.095C258.553 313.077 246.04 321.554 239.906 334.297C235.801 326.127 227.362 321.037 218.208 321.208C209.054 321.379 200.812 326.783 197.017 335.101C193.287 324.317 183.294 316.936 171.874 316.531C160.453 316.127 149.961 322.782 145.475 333.275C136.036 320.952 121.398 313.705 105.859 313.664C82.5937 313.876 62.4455 329.839 56.9522 352.412C51.5683 348.08 44.8634 345.716 37.949 345.71C20.6579 345.951 6.81931 360.11 7.00238 377.373V377.373Z" fill="#5FF4B4"/>
<path d="M243.787 382.438C175.818 382.438 82.3036 400.424 34.3612 400.424C1.58772 401.076 -1.91163 413.946 1.72956 430.936C26.6542 454.795 39.621 451.372 65.8271 454.181C102.239 446.899 119.57 461.59 135.348 471.905C151.127 482.221 148.394 482.443 174.041 486.112C194.887 488.508 205.138 481.007 222.737 473.119C260.969 457.949 265.824 485.862 299.202 472.512C327.348 455.812 355.742 457.49 385.478 459.918C430.887 456.878 429.217 432.901 440.14 429.867C451.064 426.833 466.09 417.9 473.372 410.012C480.655 402.124 469.124 396.056 457.594 393.629C410.865 385.133 311.756 382.438 243.787 382.438Z" fill="#2BB281"/>
<path d="M211.396 440.225C273.753 440.225 324.303 430.556 324.303 418.629C324.303 406.702 273.753 397.033 211.396 397.033C149.039 397.033 98.4883 406.702 98.4883 418.629C98.4883 430.556 149.039 440.225 211.396 440.225Z" fill="#22A16E"/>
<path d="M169.336 379.022C175.939 365.11 166.723 346.899 148.752 338.346C130.781 329.794 110.86 334.139 104.257 348.051C97.6534 361.963 106.869 380.175 124.84 388.727C142.811 397.28 162.733 392.935 169.336 379.022Z" fill="white"/>
<path d="M238.506 380.734C238.506 368.607 252.432 368.607 252.432 368.607C252.432 368.607 259.699 355.268 280.891 361.938C302.084 368.607 312.377 382.553 312.377 382.553C312.377 382.553 320.854 388.01 305.111 395.285C276.653 401.349 238.506 392.86 238.506 380.734Z" fill="#8888A0"/>
<path d="M92.5804 218.239C74.4152 265.533 121.645 297.668 125.883 317.676C130.122 337.685 137.993 388.616 167.663 397.104C197.333 405.593 195.516 394.073 222.764 389.222C250.29 384.323 254.856 401.349 270.599 384.372C296.635 356.269 269.993 287.966 247.59 272.202C225.186 256.438 213.076 216.421 190.067 202.475C167.057 188.53 110.746 170.946 92.5804 218.239Z" fill="#D6CCF8"/>
<path d="M59.2773 146.694C59.2773 146.694 62.3049 35.1303 93.7911 24.8228C125.277 14.5153 131.332 -4.28063 136.176 1.78259C141.02 7.8458 139.204 32.705 118.617 44.2251C98.0296 55.7452 107.718 107.889 69.5709 146.694C65.9379 150.331 59.2773 146.694 59.2773 146.694Z" fill="#D6CCF8"/>
<path d="M80.4707 123.047C80.4707 123.047 116.801 75.7539 159.792 73.9349C202.783 72.1159 234.269 28.4607 227.003 53.9263C219.737 79.3918 161.608 123.653 135.572 123.047C109.535 122.441 91.9753 129.11 91.9753 129.11L80.4707 123.047Z" fill="#D6CCF8"/>
<path d="M91.3693 221.877C96.2134 241.886 124.067 244.918 133.755 246.737C143.443 248.556 165.241 243.705 172.507 234.61C179.773 225.515 179.773 215.814 179.773 206.719C179.773 197.625 170.69 195.199 170.69 195.199C170.69 195.199 86.5253 201.869 91.3693 221.877Z" fill="#C8BDEC"/>
<path d="M157.37 390.435C156.074 388.652 152.072 391.132 150.709 392.86C144.103 401.258 135.572 400.136 125.883 408.018C106.671 423.649 143.443 424.995 168.874 415.294C179.816 415.173 195.044 399.008 198.544 397.104C177.957 395.892 162.51 397.517 157.37 390.435Z" fill="#8888A0"/>
<path d="M172.506 195.199C184.616 189.136 194.304 190.767 204.598 197.625C230.029 214.602 236.689 245.524 236.689 245.524C236.689 245.524 244.561 289.785 237.9 303.125C231.24 316.464 222.72 270.474 216.102 245.524C205.809 206.719 193.699 207.326 172.506 195.199Z" fill="#8888A0"/>
<path d="M91.9753 218.846C72.5992 237.642 81.6818 263.107 91.9753 277.659C102.269 292.211 134.361 306.156 134.361 306.156C134.361 306.156 206.416 333.441 227.003 325.558C247.59 317.676 170.085 283.116 148.893 267.352C127.7 251.587 111.351 200.05 91.9753 218.846Z" fill="#8888A0"/>
<path d="M230.635 314.038C212.47 321.921 182.195 314.645 176.14 303.125C170.085 291.604 180.984 286.754 188.855 292.817C166.451 264.32 203.387 244.311 217.314 266.745C210.048 236.429 244.562 235.217 232.451 281.903C246.378 261.288 248.8 278.872 248.8 289.785C248.8 300.699 240.323 309.188 230.635 314.038Z" fill="#387F76"/>
<path d="M225.792 294.636C207.022 287.36 197.939 292.211 198.545 303.125C198.545 303.125 179.774 281.297 194.912 286.754C172.508 258.257 205.811 258.863 219.737 281.297C212.471 250.981 237.902 238.248 225.792 284.935C234.269 279.478 241.536 281.297 239.719 286.148C237.594 291.823 227.609 287.967 225.792 294.636Z" fill="#2FB2A1"/>
<path d="M259.094 356.481L222.764 310.4L230.635 304.944L262.121 353.449L259.094 356.481V356.481Z" fill="#387F76"/>
<path d="M228.05 317.337C222.764 311.613 222.764 311.613 213.681 308.581C198.543 308.581 198.543 312.826 198.543 312.826C198.543 312.826 195.516 317.07 187.644 317.07C179.773 317.07 222.764 322.527 222.764 322.527C222.764 322.527 233.33 323.06 228.05 317.337Z" fill="#8888A0"/>
<path d="M96.2129 123.047C127.699 96.3688 149.497 99.4004 190.066 83.636C172.506 106.676 116.195 123.047 116.195 123.047C116.195 123.047 104.69 128.504 96.2129 123.047Z" fill="#7261C8"/>
<path d="M172.507 214.602C159.792 226.122 145.217 235.823 122.553 231.882C103.48 228.547 105.902 226.728 91.0669 221.574C74.4155 215.778 46.5623 204.9 52.0118 164.883C59.2779 137.599 71.6907 123.35 110.443 123.35C150.503 136.616 153.833 155.679 159.792 163.064C172.507 178.829 181.59 206.368 172.507 214.602Z" fill="#D6CCF8"/>
<path d="M70.1758 136.386C71.3868 98.1878 78.0473 75.1475 86.5244 65.4464C95.0015 55.7452 102.268 47.2567 102.268 47.2567C102.268 47.2567 96.2125 109.708 70.1758 136.386Z" fill="#7261C8"/>
<path d="M125.061 202.251C126.871 199.412 125.187 195.096 121.3 192.611C117.413 190.126 112.794 190.414 110.984 193.254C109.174 196.093 110.858 200.409 114.745 202.894C118.633 205.378 123.251 205.091 125.061 202.251Z" fill="#2B214B"/>
<path d="M158.225 184.205C159.872 183.919 160.826 181.485 160.356 178.77C159.886 176.055 158.169 174.085 156.521 174.372C154.874 174.658 153.92 177.091 154.39 179.806C154.86 182.522 156.577 184.491 158.225 184.205Z" fill="#2B214B"/>
<path d="M158.434 211.897C161.329 210.586 163.061 208.163 162.303 206.485C161.545 204.807 158.584 204.509 155.689 205.821C152.795 207.132 151.063 209.555 151.821 211.233C152.579 212.911 155.54 213.208 158.434 211.897Z" fill="#2B214B"/>
<path d="M295.043 448.039C324.447 448.039 348.285 424.12 348.285 394.614C348.285 365.108 324.447 341.189 295.043 341.189C265.638 341.189 241.801 365.108 241.801 394.614C241.801 424.12 265.638 448.039 295.043 448.039Z" fill="url(#paint0_linear)"/>
<path d="M273.63 374.612C275.546 374.612 277.1 373.053 277.1 371.13C277.1 369.208 275.546 367.649 273.63 367.649C271.714 367.649 270.16 369.208 270.16 371.13C270.16 373.053 271.714 374.612 273.63 374.612Z" fill="white"/>
<path d="M262.667 372.555C264.017 372.555 265.112 371.457 265.112 370.102C265.112 368.747 264.017 367.649 262.667 367.649C261.317 367.649 260.223 368.747 260.223 370.102C260.223 371.457 261.317 372.555 262.667 372.555Z" fill="white"/>
<path d="M297.761 421.78C311.655 420.141 322.005 408.132 321.619 394.1C321.233 380.067 310.238 368.65 296.275 367.783C294.53 367.674 292.779 367.737 291.046 367.971V367.971C288.775 368.187 286.549 368.75 284.446 369.639C282.02 370.857 280.431 372.847 280.431 375.531C280.437 379.02 283.256 381.846 286.733 381.85C287.781 381.672 288.812 381.406 289.815 381.052C291.645 380.406 293.587 380.141 295.523 380.273C302.346 380.715 307.944 385.862 308.977 392.644C310.01 399.427 306.2 406.017 299.819 408.483C293.439 410.95 286.208 408.629 282.438 402.904V402.904C279.539 399.082 280.2 392.983 280.2 392.891C280.065 389.785 277.703 387.237 274.625 386.878C271.548 386.519 268.666 388.456 267.825 391.449C267.695 392.206 267.634 392.975 267.643 393.743C267.027 408.472 278.259 420.992 292.921 421.92C294.538 422.044 296.164 422.005 297.774 421.804" fill="white"/>
<path d="M269.128 384.783C271.61 384.783 273.623 382.764 273.623 380.273C273.623 377.782 271.61 375.763 269.128 375.763C266.645 375.763 264.633 377.782 264.633 380.273C264.633 382.764 266.645 384.783 269.128 384.783Z" fill="white"/>
<path d="M304.986 422.639C334.303 409 341.329 428.227 369.734 419.485L401 422.788L336.977 452.963L174.406 449.92C178.361 446.718 220.508 428.616 229.607 427.398C238.707 426.181 233.247 424.355 249.625 420.703C266.004 417.05 275.669 436.277 304.986 422.639Z" fill="#2BB281"/>
<defs>
<linearGradient id="paint0_linear" x1="241.801" y1="341.189" x2="241.801" y2="448.039" gradientUnits="userSpaceOnUse">
<stop stop-color="#8C61E1"/>
<stop offset="1" stop-color="#5F45BA"/>
</linearGradient>
</defs>
</svg>
