<svg width="260" height="241" viewBox="0 0 260 241" fill="none" xmlns="http://www.w3.org/2000/svg">
<path d="M257.377 158.998C255.329 157.28 252.856 156.638 250.269 156.285C250.021 156.253 249.731 156.38 249.537 156.113H17.6077C14.768 156.868 11.9238 157.601 9.2153 158.767C7.39021 159.526 5.654 160.482 4.03791 161.62C2.06879 162.99 0.640476 165.005 0 167.317V168.918C0.419847 170.664 1.17881 172.311 2.23374 173.764C4.49461 176.672 7.5513 178.403 10.8612 179.796C13.936 181.089 17.1555 181.984 20.2755 183.16C21.5889 183.613 22.8441 184.22 24.015 184.968C26.2758 186.51 39.52 194.707 25.8643 215.83C24.2049 218.403 23.4769 224.556 29.9339 231.108C36.391 237.659 54.6769 236.723 61.1882 235.765C67.8442 234.783 69.8337 231.781 82.9242 231.695C88.3638 231.637 93.6 233.897 98.8723 235.254C104.425 236.705 109.973 238.22 115.603 239.323C116.928 239.581 121.707 240.286 122.385 240.349C124.972 240.596 127.572 240.655 130.167 240.526C130.832 240.489 131.492 240.435 132.152 240.367C132.075 240.367 133.287 240.214 133.418 240.191C134.472 240.001 135.512 239.77 136.543 239.49C137.651 239.192 138.741 238.835 139.812 238.428C139.69 238.459 140.952 237.926 141.015 237.894C141.621 237.6 142.218 237.284 142.824 236.954C147.436 234.363 150.348 230.665 154.842 227.124C158.627 224.14 175.443 209.482 219.666 214.818C246.873 218.1 234.407 192.347 248.424 174.831C250.079 172.765 252.191 174.32 255.867 171.128C257.852 169.406 259.394 167.38 259.711 164.649C259.995 162.485 259.106 160.332 257.377 158.998Z" fill="#2EBE8B"/>
<rect x="48.8965" y="215.758" width="0.695988" height="9.17861" rx="0.347994" fill="#00896F"/>
<path d="M49.1561 215.758C49.1561 215.758 47.3774 219.998 38.7617 217.046C38.7617 217.046 45.4942 208.883 49.1561 214.416C49.1561 214.416 50.6072 209.8 57.8263 214.416C57.8263 214.416 54.1326 219.463 49.1561 215.758Z" fill="#00896F"/>
<path d="M53.2682 214.619C53.2682 214.619 50.9937 213.091 49.2424 215.227C49.2424 215.227 46.3493 213.554 44.3887 215.758" stroke="#0C6D5B" stroke-width="1.27" stroke-linecap="round" stroke-linejoin="round"/>
<rect x="227.416" y="203.269" width="0.60501" height="7.96326" rx="0.302505" fill="#00896F"/>
<path d="M227.643 203.269C227.643 203.269 226.101 206.951 218.622 204.389C218.622 204.389 224.463 197.31 227.643 202.122C227.643 202.122 228.903 198.113 235.162 202.122C235.18 202.108 231.941 206.484 227.643 203.269Z" fill="#00896F"/>
<path d="M231.209 202.28C231.209 202.28 229.244 200.956 227.72 202.811C227.72 202.811 225.209 201.36 223.503 203.264" stroke="#0C6D5B" stroke-width="1.1" stroke-linecap="round" stroke-linejoin="round"/>
<rect x="230.199" y="166.073" width="0.527678" height="6.94291" rx="0.263839" fill="#00896F"/>
<path d="M230.395 166.074C230.395 166.074 229.03 169.28 222.53 167.049C222.53 167.049 227.625 160.872 230.395 165.058C230.395 165.058 231.496 161.561 236.954 165.058C236.954 165.058 234.143 168.899 230.395 166.074Z" fill="#00896F"/>
<path d="M233.506 165.213C233.506 165.213 231.791 164.056 230.463 165.666C230.463 165.666 228.271 164.401 226.788 166.07" stroke="#0C6D5B" stroke-width="0.96" stroke-linecap="round" stroke-linejoin="round"/>
<rect x="25.042" y="167.888" width="0.527678" height="6.94291" rx="0.263839" fill="#00896F"/>
<path d="M25.2377 167.888C25.2377 167.888 23.873 171.094 17.3726 168.863C17.3726 168.863 22.4674 162.687 25.2377 166.872C25.2377 166.872 26.3385 163.376 31.7973 166.872C31.7973 166.872 28.986 170.713 25.2377 167.888Z" fill="#00896F"/>
<path d="M28.3492 167.026C28.3492 167.026 26.6342 165.87 25.3059 167.48C25.3059 167.48 23.1133 166.214 21.6304 167.883" stroke="#0C6D5B" stroke-width="0.96" stroke-linecap="round" stroke-linejoin="round"/>
<path d="M0.272949 125.332C0.272949 125.332 14.8842 125.01 29.6682 143.762L34.9996 149.889C34.9996 149.889 14.8614 142.597 7.56946 133.98L0.272949 125.332Z" fill="#836DE2"/>
<path d="M3.82568 150.22C3.82568 150.22 13.4649 138.91 34.854 149.975C34.854 149.975 30.76 154.778 20.402 152.12C10.0441 149.463 8.37463 146.429 3.82568 150.22Z" fill="#836DE2"/>
<path d="M25.5422 108.399C25.5422 108.399 21.0706 132.33 34.8038 150.048C34.8038 150.048 39.0889 123.931 25.5422 108.399Z" fill="#836DE2"/>
<path d="M6.62793 129.101C6.62793 129.101 23.1997 143.109 29.2225 145.499Z" fill="#2EBF8B"/>
<path d="M28.3625 117.392C28.3625 117.392 27.7484 135.762 34.176 146.102" stroke="#2EBF8B" stroke-width="0.74" stroke-linecap="round" stroke-linejoin="round"/>
<path d="M15.0117 148.234C15.0117 148.234 25.8837 147.517 33.2075 148.61Z" fill="#2EBF8B"/>
<path d="M147.102 158.575H245.923C245.923 158.575 237.944 137.355 218.916 145.472C218.916 145.472 204.814 121.177 181.473 143.622C181.473 143.622 156.923 126.126 147.102 158.575Z" fill="url(#paint0_linear)"/>
<path d="M160.025 146.734C160.025 153.32 154.53 158.662 147.743 158.662C146.887 158.662 146.034 158.573 145.195 158.399H18.6756C13.417 158.399 9.15918 154.236 9.15918 149.149C9.15918 144.061 13.417 139.899 18.6756 139.899H20.1858C20.1858 132.679 26.2086 126.824 33.637 126.824C36.0745 126.821 38.4693 127.474 40.5787 128.715C43.8506 124.238 49.1316 121.752 54.6063 122.111C60.0811 122.471 65.0034 125.628 67.6813 130.496C69.4456 127.381 72.7356 125.488 76.2701 125.554C79.8045 125.619 83.0246 127.633 84.6762 130.81C86.3754 126.689 90.2793 123.95 94.6724 123.798C99.0655 123.646 103.144 126.108 105.115 130.103C109.006 125.379 114.767 122.666 120.827 122.703C130.17 122.703 137.994 128.914 140.232 137.318C142.404 135.679 145.038 134.796 147.743 134.802C154.512 134.802 160.025 140.144 160.025 146.734Z" fill="#00896F"/>
<path fill-rule="evenodd" clip-rule="evenodd" d="M172.471 193.344C171.682 193.059 170.895 192.772 170.108 192.486L170.107 192.486C166.004 190.993 161.908 189.503 157.742 188.162C157.203 187.99 156.666 187.751 156.126 187.51C154.679 186.864 153.208 186.208 151.597 186.805C148.007 188.112 144.283 189.023 140.492 189.52C139.317 189.673 138.163 189.928 137.009 190.183L137.009 190.183C135.188 190.585 133.365 190.988 131.457 190.991C123.369 190.991 115.408 190.434 107.789 187.502C106.573 187.049 105.285 186.759 104.006 187.429C99.7613 189.656 95.1536 190.671 90.5448 191.687C89.0457 192.017 87.5464 192.348 86.0595 192.72C85.6316 192.828 85.5468 192.918 85.54 192.961C85.4488 192.866 84.8701 192.506 81.8584 191.665C76.087 190.054 82.086 182.564 83.5015 181.559C85.8228 179.955 88.2756 178.547 90.8341 177.35C94.1431 175.739 94.9942 174.019 93.565 170.616C92.9929 169.266 92.3952 167.927 91.7977 166.588C90.9692 164.732 90.1411 162.877 89.3821 160.994C87.3612 155.989 89.2046 151.676 93.7425 148.892C97.4975 146.589 100.406 143.539 100.857 138.615C101.019 136.835 101.073 135.057 101.127 133.282C101.174 131.716 101.222 130.151 101.344 128.59C101.799 123.023 103.055 117.796 107.484 113.831C108.882 112.648 110.394 111.605 111.999 110.718C112.823 110.224 113.819 109.546 113.414 108.369C113.102 107.472 112.237 107.601 111.524 107.707C111.405 107.725 111.291 107.742 111.184 107.753C109.136 107.975 107.088 108.328 105.076 108.704C101.608 109.351 98.5717 108.337 96.4279 105.735C93.0507 101.662 91.0799 97.0409 92.5318 91.5693C92.9005 90.1754 93.26 88.7769 93.5286 87.3649C95.0169 79.5217 97.8526 72.3394 103.565 66.4876C104.846 65.1792 106.383 64.3017 107.923 63.4226C108.429 63.134 108.935 62.8453 109.432 62.5411L109.54 62.4761C110.417 61.9515 111.298 61.4248 110.638 60.0384C107.446 53.2046 105.571 45.8359 105.112 38.3148C104.452 28.9148 104.821 19.6325 106.933 10.4361C107.458 8.14701 108.385 6.01171 109.313 3.87609L109.313 3.87605L109.313 3.87601L109.313 3.87597L109.313 3.87593C109.808 2.73511 110.304 1.5942 110.738 0.429688H111.648C113.258 5.16398 114.212 10.042 115.166 14.9208L115.166 14.9208L115.166 14.921L115.166 14.9212L115.166 14.9214L115.166 14.9216C115.523 16.7492 115.881 18.577 116.273 20.3973C118.894 32.4403 119.882 44.5829 120.173 56.8341C120.214 58.5585 121.539 59.3912 123.05 58.6444C123.921 58.2022 123.896 57.4449 123.871 56.7072L123.871 56.707C123.865 56.5389 123.86 56.3717 123.865 56.2096C124.079 49.1811 126.081 42.5735 128.676 36.1243C132.003 27.8512 137.164 20.6779 142.635 13.7128C144.935 10.7553 147.632 8.12542 150.651 5.8968C152.276 4.70652 153.445 4.93281 153.468 6.53945C153.48 7.44299 153.523 8.34529 153.567 9.24725L153.567 9.24778C153.69 11.8108 153.812 14.3711 153.213 16.9487C151.009 26.4612 147.294 35.4216 143.577 44.3851L143.576 44.387L143.573 44.3938L143.571 44.3999L143.568 44.407L143.566 44.4127C142.911 45.9905 142.257 47.5684 141.611 49.1494C140.161 52.6866 138.274 56.031 135.995 59.1061C134.702 60.8621 134.752 62.2469 136.787 63.3377C137.552 63.7408 138.092 64.3517 138.644 64.9769C138.749 65.0957 138.855 65.215 138.962 65.3335C142.499 69.2211 143.664 74.1316 144.156 79.0058C144.611 83.5587 147.242 86.3964 150.341 88.9172C154.697 92.4518 158.356 96.43 160.705 101.526C163.504 107.604 165.106 114.008 165.962 120.616C166.622 125.707 166.872 130.857 165.707 135.849C164.396 141.529 165.766 145.915 170.3 149.63C172.899 151.757 174.2 154.799 174.801 158.161C175.582 162.544 174.946 166.838 174.31 171.128C174.257 171.49 174.203 171.852 174.15 172.214C173.741 175.015 172.899 177.685 170.054 179.002C170.225 179.697 170.651 179.81 171.106 179.931L171.119 179.935C174.76 180.894 179.954 184.497 180.846 186.95C181.441 188.586 181.228 189.264 181.015 189.942C180.908 190.28 180.802 190.619 180.796 191.077C179.08 192.104 173.331 193.652 172.471 193.344ZM85.5517 192.988C85.5569 192.989 85.5583 192.98 85.54 192.961C85.5373 192.978 85.5464 192.987 85.5517 192.988ZM160.077 151.395C159.927 149.028 159.544 146.693 158.343 144.607C157.219 142.642 155.835 142.538 154.456 144.294C154.208 144.61 153.959 144.925 153.711 145.24L153.708 145.244C151.881 147.56 150.057 149.873 148.539 152.414C147.001 155.065 144.795 157.274 142.139 158.822C139.672 160.239 137.843 162.443 137.856 165.448C137.861 170.553 160.154 152.613 160.077 151.395ZM123.073 161.89L123.064 162.42C123.35 165.421 110.438 171.1 108.335 167.339C106.18 163.499 105.564 159.229 104.949 154.965C104.749 153.581 104.55 152.197 104.298 150.83C103.766 148.057 103.805 145.205 104.411 142.448C104.739 141 105.158 139.538 106.687 138.963C108.048 138.445 108.866 139.317 109.664 140.166C109.821 140.334 109.978 140.501 110.137 140.656C111.413 141.908 112.253 143.477 113.082 145.024C113.589 145.972 114.093 146.911 114.689 147.766L114.882 148.043C116.383 150.196 117.846 152.293 119.941 154.029C123.163 156.681 123.159 156.904 123.073 161.89ZM148.921 15.5412C142.599 18.8269 126.359 51.3399 127.024 59.0834C127.196 59.1391 127.369 59.1968 127.543 59.255L127.544 59.2551C127.937 59.3862 128.337 59.5196 128.744 59.6356C131.193 60.328 132.69 59.4681 133.296 56.9835C133.709 55.3015 134.402 53.7317 135.096 52.1612C135.326 51.64 135.556 51.1186 135.776 50.5931C136.443 49.0033 137.111 47.4138 137.778 45.8243L137.779 45.8235C141.246 37.5671 144.712 29.3124 148.125 21.0354C148.807 19.3926 149.513 17.6547 148.921 15.5412ZM116.605 56.9699C116.746 58.6263 116.487 59.441 114.593 59.441C108.508 45.556 107.843 16.2653 110.865 12.5768C112.389 16.1959 112.837 19.9918 113.287 23.8033C113.331 24.1719 113.374 24.5407 113.419 24.9095C114.693 35.5722 115.695 46.2665 116.605 56.9699ZM119.964 87.6862C121.944 87.7541 123.469 86.4778 123.605 84.6449C123.636 83.838 123.337 83.053 122.776 82.469C122.215 81.8849 121.441 81.5515 120.629 81.5448C118.849 81.5448 117.442 83.1831 117.338 85.2649C117.233 87.1341 118.435 87.5776 119.964 87.6862ZM104.07 97.0183C102.409 99.3988 99.1316 99.693 96.4006 97.7153H96.3961C98.6354 95.7918 101.407 95.5429 104.07 97.0183Z" fill="#D6CCF8"/>
<path d="M162.453 149.608C160.377 157.161 155.38 162.004 149.021 165.642C145.234 167.806 141.333 169.765 137.474 171.806C135.963 172.603 134.447 172.951 132.99 171.671C131.534 170.39 131.488 168.856 132.194 167.109C134.101 162.379 136.477 157.849 138.029 152.966C138.939 150.105 141.361 148.558 144.146 147.965C147.152 147.297 149.932 145.864 152.212 143.805C154.76 141.592 157.578 139.764 160.363 137.886C162.216 136.632 163.504 137.153 163.968 139.366C164.464 141.733 164.109 144.073 163.513 146.372C163.226 147.553 162.748 148.689 162.453 149.608Z" fill="#B1B1C4"/>
<path d="M148.921 15.541C149.513 17.6545 148.807 19.3924 148.129 21.0353C144.06 30.9059 139.936 40.7449 135.781 50.593C134.898 52.702 133.851 54.7431 133.3 56.9833C132.69 59.468 131.193 60.3279 128.748 59.6354C128.161 59.468 127.588 59.2643 127.028 59.0833C126.359 51.3397 142.599 18.8267 148.921 15.541Z" fill="#6249BB"/>
<path d="M114.593 59.4413C108.508 45.5563 107.843 16.2656 110.852 12.5771C112.522 16.5462 112.9 20.7235 113.405 24.9098C114.693 35.5725 115.681 46.2669 116.591 56.9703C116.746 58.6267 116.487 59.4594 114.593 59.4413Z" fill="#6249BB"/>
<path d="M119.964 87.6909C118.439 87.5778 117.233 87.1342 117.338 85.2651C117.429 83.1832 118.849 81.554 120.629 81.5449C121.441 81.5517 122.215 81.8851 122.776 82.4691C123.337 83.0532 123.636 83.8381 123.605 84.6451C123.464 86.478 121.94 87.7543 119.964 87.6909Z" fill="#2B214B"/>
<path d="M96.396 97.7151C98.6354 95.7916 101.403 95.5427 104.065 97.0181C102.404 99.3987 99.1315 99.6974 96.396 97.7151Z" fill="#2B214B"/>
<path fill-rule="evenodd" clip-rule="evenodd" d="M188.957 82.2671C188.64 81.6272 188.323 80.9868 188.014 80.3413C186.452 78.2604 184.146 77.4077 181.844 76.5569C181.678 76.4955 181.512 76.4341 181.346 76.3722C180.738 76.1669 180.123 75.9778 179.507 75.7887C178.142 75.3691 176.776 74.9496 175.493 74.3537C168.16 70.9504 160.928 71.2083 154.369 75.7386C150.044 78.7516 146.781 83.0308 143.581 87.2267C143.171 87.764 142.763 88.2999 142.353 88.8316C136.736 96.1362 131.42 103.703 126.268 111.352C124.796 113.533 123.272 115.688 121.747 117.844C117.295 124.135 112.838 130.435 109.668 137.443C106.537 144.362 103.645 151.384 100.752 158.408C97.3155 166.753 93.8777 175.099 90.0374 183.28C89.5214 184.378 88.9386 185.466 88.3526 186.559C86.3073 190.374 84.223 194.263 84.8032 198.966C84.9169 199.921 85.1491 200.106 86.0821 199.871C89.1976 199.075 91.9274 197.482 94.6419 195.898C95.0763 195.645 95.5103 195.391 95.9454 195.142C101.475 191.925 106.371 187.885 111.273 183.84C112.992 182.421 114.711 181.002 116.459 179.618C118.908 177.677 121.41 175.801 123.912 173.925C129.879 169.451 135.845 164.977 141.079 159.623C142.453 158.221 143.815 156.811 145.176 155.403C150.401 149.997 155.605 144.611 161.383 139.71C162.596 138.683 163.822 137.665 165.049 136.645C172.817 130.188 180.642 123.683 185.752 114.818C189.767 107.862 193.895 100.648 192.529 91.8955C191.987 88.3834 190.476 85.3328 188.957 82.2671ZM125.317 127.812C130.92 118.475 136.673 109.288 143.664 101.839C144.808 100.473 145.925 99.1157 147.029 97.7742C152.046 91.6798 156.799 85.9052 162.608 81.0609C166.054 78.1826 169.747 78.7641 173.599 79.3706C173.69 79.3849 173.781 79.3992 173.873 79.4135C176.786 79.8704 179.322 81.1424 181.89 82.43C182.323 82.6473 182.757 82.865 183.194 83.0794C188.847 85.8537 190.823 95.1179 186.544 99.965C184.947 101.775 183.322 102.463 181.046 100.558C176.517 96.7517 168.078 95.8963 164.619 98.9738C163.407 100.058 162.401 101.37 161.392 102.687C160.674 103.624 159.954 104.563 159.157 105.423C158.338 106.306 157.15 107.247 156.026 107.392C149.039 108.297 146.363 113.461 143.923 118.973C143.856 119.125 143.789 119.278 143.722 119.43C140.679 126.329 137.562 133.395 130.642 137.207C124.971 140.339 122.768 145.1 121.607 150.816C119.991 158.736 115.258 164.484 109.227 169.598C106.563 171.859 104.177 174.431 101.788 177.007C100.638 178.247 99.4864 179.488 98.3031 180.695C97.9279 181.035 97.5294 181.348 97.1106 181.632C97.155 181.477 97.1947 181.315 97.2347 181.152C97.3055 180.865 97.3775 180.572 97.4792 180.297C99.99 173.516 103.731 167.398 107.471 161.28C109.678 157.671 111.884 154.063 113.838 150.318C115.282 147.547 116.637 144.731 117.992 141.914C120.289 137.14 122.586 132.366 125.317 127.812Z" fill="#E1805A"/>
<path d="M188.015 80.3414C186.34 78.1102 183.809 77.291 181.342 76.3813C185.42 71.7439 189.495 67.105 193.567 62.4646C193.792 62.1068 193.962 61.7179 194.073 61.3106C193.685 61.243 193.292 61.2022 192.898 61.1884C186.749 61.3332 181.169 60.4869 177.951 54.1916C176.094 50.571 176.913 47.765 180.75 46.4208C181.706 46.0859 180.982 45.6017 180.796 45.2306C178.975 41.5466 176.276 38.1523 176.244 33.8483C176.217 26.7881 182.899 20.271 191.301 19.1577C196.99 18.4155 202.707 18.7051 208.392 19.5288C212.638 20.1489 214.514 22.819 214.869 26.847C214.896 27.1819 214.755 27.8291 215.442 27.6525C221.478 26.0776 225.884 29.6122 230.49 32.4227C233.78 34.4321 236.407 37.2064 238.805 40.1708C243.006 45.3301 240.972 50.8923 234.254 52.2319C232.488 52.5804 232.379 52.8203 233.198 54.4405C235.993 59.9664 239.529 65.4064 236.63 72.0909C234.663 76.6167 231.587 79.9793 226.471 80.622C221.532 81.2375 218.21 78.703 216.048 74.4624C215.679 73.7473 215.483 73.6433 214.887 74.3719C212.211 77.635 208.315 78.875 204.874 77.3363C201.059 75.6301 201.159 71.9416 200.841 68.5382C200.786 67.9363 200.682 67.3344 200.6 66.7279C200.12 67.0845 199.664 67.4715 199.234 67.8865C195.478 72.0351 191.738 76.1867 188.015 80.3414Z" fill="#8CF18C"/>
<path d="M143.664 101.839C150.036 94.2853 155.498 86.9717 162.621 81.0611C166.158 78.1148 169.936 78.7982 173.887 79.4137C177.296 79.9477 180.181 81.5951 183.208 83.0796C188.861 85.8538 190.837 95.1181 186.558 99.9651C184.96 101.775 183.331 102.463 181.06 100.558C176.508 96.7519 168.092 95.8965 164.633 98.974C162.544 100.83 161.074 103.355 159.171 105.423C158.352 106.328 157.164 107.234 156.04 107.392C149.053 108.297 146.368 113.461 143.937 118.973C140.829 126.015 137.729 133.311 130.656 137.208C124.971 140.339 122.768 145.1 121.607 150.839C119.992 158.764 115.258 164.507 109.227 169.621C105.281 172.97 101.945 177.003 98.3033 180.718C97.9281 181.057 97.5297 181.371 97.1108 181.655C97.2337 181.202 97.3202 180.75 97.4795 180.32C101.471 169.54 108.572 160.434 113.838 150.341C117.729 142.874 120.975 135.09 125.317 127.835C130.888 118.475 136.673 109.288 143.664 101.839Z" fill="#EFAA6C"/>
<path d="M117.656 151.327C118.013 155.054 118.122 158.801 117.984 162.542C117.802 166.796 114.507 168.675 110.87 166.412C107.006 164.004 105.03 160.008 102.918 156.247C100.06 151.16 99.9098 145.317 98.8811 139.737C98.3483 136.964 98.3854 134.113 98.9904 131.355C99.3135 129.907 99.7368 128.445 101.266 127.87C102.909 127.25 103.742 128.622 104.712 129.568C106.783 131.581 107.657 134.36 109.263 136.673C110.87 138.986 112.331 141.135 114.516 142.937C117.866 145.684 117.747 145.824 117.656 151.327Z" fill="#B1B1C4"/>
<path d="M137.3 172.764C143.518 170.746 147.521 165.946 146.24 162.042C144.958 158.138 138.879 156.608 132.661 158.625C126.443 160.643 122.44 165.443 123.721 169.347C125.003 173.251 131.082 174.781 137.3 172.764Z" fill="#B1B1C4"/>
<defs>
<linearGradient id="paint0_linear" x1="147.102" y1="158.577" x2="245.923" y2="158.577" gradientUnits="userSpaceOnUse">
<stop stop-color="#01BC86"/>
<stop offset="0.37" stop-color="#01B26E"/>
<stop offset="1" stop-color="#00A347"/>
</linearGradient>
</defs>
</svg>
