<svg width="403" height="229" viewBox="0 0 403 229" fill="none" xmlns="http://www.w3.org/2000/svg">
<path d="M212.794 154.182C160.371 154.182 118.714 160.703 81.7371 160.703C44.7603 160.703 26.506 163.033 4.97518 178.871C-19.2376 196.685 51.3132 220.797 79.3968 215.206C107.48 209.616 126.507 218.854 140.245 223.592C175.349 235.703 188.923 224.523 202.497 218.467C231.984 206.821 278.79 225.921 312.491 218.002C339.475 211.661 355.552 201.697 363.978 199.368C372.403 197.039 407.746 181.438 401.89 175.61C389.721 163.498 369.594 168.623 341.043 164.896C312.491 161.169 265.217 154.182 212.794 154.182Z" fill="#2BB281"/>
<path d="M210.721 175.433C228.804 175.433 243.462 172.643 243.462 169.2C243.462 165.758 228.804 162.967 210.721 162.967C192.639 162.967 177.98 165.758 177.98 169.2C177.98 172.643 192.639 175.433 210.721 175.433Z" fill="#22A16E"/>
<path d="M293.1 177.297C311.182 177.297 325.841 174.506 325.841 171.064C325.841 167.621 311.182 164.831 293.1 164.831C275.018 164.831 260.359 167.621 260.359 171.064C260.359 174.506 275.018 177.297 293.1 177.297Z" fill="#22A16E"/>
<path d="M368.008 181.489C385.307 181.489 399.331 178.699 399.331 175.256C399.331 171.814 385.307 169.023 368.008 169.023C350.709 169.023 336.686 171.814 336.686 175.256C336.686 178.699 350.709 181.489 368.008 181.489Z" fill="#22A16E"/>
<path d="M55.7936 181.023C73.8758 181.023 88.5344 178.233 88.5344 174.79C88.5344 171.348 73.8758 168.557 55.7936 168.557C37.7113 168.557 23.0527 171.348 23.0527 174.79C23.0527 178.233 37.7113 181.023 55.7936 181.023Z" fill="#22A16E"/>
<path d="M132.087 178.228C150.169 178.228 164.827 175.438 164.827 171.995C164.827 168.553 150.169 165.762 132.087 165.762C114.004 165.762 99.3457 168.553 99.3457 171.995C99.3457 175.438 114.004 178.228 132.087 178.228Z" fill="#22A16E"/>
<path d="M65.5216 131.398C67.4737 131.485 69.4163 131.722 71.3323 132.107C71.6303 132.301 71.9385 132.479 72.2554 132.64C74.3093 134.256 75.3108 135.882 76.5985 138.156C78.2713 141.25 78.7947 144.84 78.0754 148.285C77.2169 152.453 74.7616 155.232 71.6139 157.919C70.9631 158.47 70.2293 158.604 69.6708 159.28C68.1309 159.339 66.5887 159.291 65.0554 159.137C64.5939 159.09 64.5939 159.225 64.7185 159.6C65.8469 162.989 67.1486 166.317 68.6185 169.572C69.2923 171.091 70.0031 172.582 70.7508 174.078C70.8985 174.389 70.9677 174.481 70.5246 174.541C69.944 174.642 69.38 174.292 69.2093 173.726C67.0816 169.16 65.0554 164.556 63.56 159.72C63.4493 159.359 63.5369 158.85 62.9 158.794C62.6046 158.794 62.5354 158.794 62.5354 159.09C62.5354 161.869 62.5677 164.648 62.7385 167.46C62.8723 169.637 63.08 171.813 63.2508 173.99C63.2508 174.157 63.3154 174.416 63.0339 174.342C62.7523 174.268 62.1385 174.68 62.0508 174C61.9308 173.106 61.8569 172.202 61.7923 171.299C61.4555 167.154 61.3308 162.994 61.4185 158.836C61.4185 158.456 61.2385 158.41 60.9569 158.331C57.5095 157.395 54.3555 155.596 51.7908 153.102C51.5785 152.893 51.38 152.676 51.0939 152.379C51.7585 156.298 52.5985 160.253 53.4523 163.991C53.0739 164.097 52.6816 164.162 52.3077 164.269C51.4677 160.656 50.6554 156.909 50.0416 153.051C49.1822 157.137 48.5917 161.276 48.2739 165.44L47.1293 165.649C47.2262 163.203 47.5908 160.582 47.9093 158.16C48.0662 157.071 48.2693 155.992 48.4446 154.917C48.4539 154.813 48.4539 154.707 48.4446 154.602C48.3503 154.64 48.2593 154.685 48.1723 154.737C44.4293 157.358 40.7877 157.321 37.0493 154.616L36.8369 154.477C36.805 154.57 36.7833 154.667 36.7723 154.765C36.7955 157.551 36.9665 160.334 37.2846 163.101C37.6739 166.815 38.3185 170.496 39.2139 174.12C39.2508 174.259 39.3431 174.509 39.0754 174.463C38.7062 174.398 38.1523 174.861 37.9908 174.134C37.6493 172.527 37.28 170.92 36.9985 169.298C36.0761 164.267 35.6127 159.162 35.6139 154.047C35.6139 153.982 35.6139 153.917 35.5862 153.681C34.9773 155.33 34.4626 157.012 34.0446 158.72C32.7847 163.767 32.2027 168.96 32.3139 174.162C32.3139 174.968 31.8062 174.68 31.4369 174.736C30.9246 174.819 31.0816 174.421 31.0816 174.18C30.9836 167.359 32.0289 160.571 34.1739 154.098C34.2081 153.959 34.2343 153.818 34.2523 153.676C32.856 155.252 30.9657 156.303 28.8939 156.654C27.1519 157.039 25.3314 156.82 23.7293 156.034C21.1723 154.732 20.4985 152.004 22.0908 149.619C22.4016 149.098 22.8108 148.644 23.2954 148.28C23.8446 147.919 23.8354 147.544 23.6877 146.965C22.5985 142.634 20.5723 138.739 18.2046 135.002C18.02 134.705 17.8769 134.654 17.54 134.798C16.4174 135.356 15.0565 134.998 14.3508 133.96C14.3093 133.668 14.2446 133.533 14.3508 133.316C15.2739 131.977 17.5216 131.838 18.3569 133.084C21.2 137.322 23.6277 141.764 24.8508 146.775C24.9154 147.044 24.9754 147.118 25.2616 146.97C25.6711 146.769 26.0954 146.6 26.5308 146.465C27.0662 146.293 27.7585 146.312 28.1139 145.969C28.4693 145.626 28.1831 144.895 28.2846 144.339C28.2867 144.322 28.2867 144.305 28.2846 144.288C28.4 140.782 27.98 137.392 26.2816 134.251C26.1108 133.936 26.0323 133.765 25.6308 134.061C25.1703 134.386 24.5985 134.509 24.0461 134.402C23.4937 134.296 23.008 133.969 22.7 133.496C22.2385 132.621 22.6539 131.797 23.8723 131.264C23.8723 131.264 23.8954 131.236 23.9046 131.218C24.2533 131.132 24.6175 131.132 24.9662 131.218C25.9723 131.523 26.5169 132.315 27.02 133.158C29.1662 136.794 29.6693 140.777 29.4523 144.904C29.3969 145.951 29.36 145.932 30.3754 146.011C31.5102 146.076 32.6075 146.442 33.5554 147.072C33.8139 147.248 33.86 147.234 33.9016 146.914C34.4646 142.959 36.6016 140.296 40.46 139.202C43.2293 138.41 45.8462 139.026 48.1631 140.782C48.3154 140.898 48.4631 141.189 48.6246 140.745C50.1108 137.086 52.9354 134.802 56.4339 133.26C58.5049 132.319 60.7317 131.771 63.0016 131.644C63.2231 131.644 64.1093 131.449 64.3262 131.421C64.3769 131.509 65.1985 131.963 65.2723 132.024C67.3678 133.591 69.0842 135.613 70.2939 137.938C71.8216 140.68 72.2416 144.135 71.7616 147.252C71.0831 151.685 69.4539 154.357 66.1631 157.219C65.8585 157.483 65.3969 157.909 65.0923 158.173C65.4339 158.419 65.1154 158.15 65.4985 158.238C65.8816 158.326 65.4293 158.53 65.9 158.169C67.8016 156.701 69.2693 154.774 70.6493 152.801C73.04 149.387 73.52 147.706 72.6154 143.538C71.7616 139.582 70.0908 135.752 67.0769 133.163C66.4951 132.634 65.9734 132.042 65.5216 131.398Z" fill="#424251"/>
<path d="M74.1018 132.834C78.0802 134.358 82.151 137.03 84.3248 140.791C86.7185 144.734 86.2533 149.786 83.1802 153.222C80.3602 156.534 76.1648 158.317 71.9648 159.063C72.0388 158.713 72.1973 158.387 72.4264 158.113C74.7756 156.261 76.5156 153.653 77.9648 150.985C79.6956 147.822 79.931 146.145 79.0587 142.602C78.3433 139.689 77.0833 136.678 75.0387 134.515C74.6301 134.015 74.313 133.446 74.1018 132.834V132.834Z" fill="#424251"/>
<path d="M66.3291 131.449C66.7347 131.927 67.2 132.351 67.7137 132.709C70.7045 135.298 72.9706 138.346 73.8199 142.296C74.7429 146.493 73.5799 150.221 71.1891 153.635C69.7754 155.566 68.0776 157.272 66.1537 158.692C65.6922 159.058 65.3229 158.808 64.9214 158.715C64.5263 158.698 64.1394 158.597 63.786 158.419L64.7091 157.627C67.9999 154.765 70.4737 151.384 71.1706 146.974C71.6128 143.929 71.0037 140.824 69.4445 138.174C68.023 135.694 66.1097 133.533 63.8229 131.824C63.7563 131.746 63.7033 131.657 63.666 131.56C64.5432 131.39 65.4409 131.352 66.3291 131.449Z" fill="#5D5D69"/>
<path d="M74.8347 133.154C75.0194 133.691 75.5132 133.955 75.8686 134.335C77.9333 136.424 79.4082 139.026 80.1424 141.875C81.0147 145.423 80.3732 148.748 78.6378 151.916C77.1794 154.579 75.084 156.659 72.7347 158.512C72.5917 158.623 72.4301 158.711 72.4347 158.924C71.3208 159.191 70.1784 159.32 69.0332 159.308C69.5824 158.632 70.3486 158.215 70.9994 157.659C74.1609 154.968 76.5378 151.773 77.4194 147.623C78.0839 144.343 77.4993 140.932 75.7809 138.063C74.5047 135.81 72.8001 133.831 70.764 132.237C70.6841 132.146 70.6201 132.043 70.5747 131.931C72.0465 132.128 73.4817 132.54 74.8347 133.154V133.154Z" fill="#5D5D69"/>
<path d="M53.8907 165.593C54.6615 168.331 55.5569 171.285 56.5584 173.93C56.6692 174.222 56.5584 174.259 56.2953 174.291C56.0359 174.36 55.7596 174.315 55.5352 174.168C55.3107 174.02 55.1592 173.784 55.1184 173.518C54.3199 170.994 53.3646 168.363 52.7461 165.783C53.1338 165.765 53.5215 165.63 53.8907 165.593Z" fill="#424251"/>
<path d="M48.3011 165.556C48.3842 167.872 48.0288 171.248 48.0426 174C48.0426 174.592 47.5811 174.264 47.3319 174.319C47.0826 174.375 46.8011 174.407 46.8149 173.962C46.898 171.744 46.958 169.53 47.0319 167.312C47.0179 166.771 47.0597 166.231 47.1565 165.7C47.5626 165.663 47.8996 165.598 48.3011 165.556Z" fill="#424251"/>
<path d="M52.2988 164.125L53.425 163.801L53.6465 164.658C53.327 164.881 52.951 165.01 52.5619 165.028L52.2988 164.125Z" fill="#5D5D69"/>
<path d="M52.5625 165.028C52.8394 164.648 53.2502 164.681 53.6471 164.658C53.6979 164.857 53.7717 165.19 53.8225 165.39C53.5111 165.613 53.1276 165.712 52.7471 165.667C52.701 165.505 52.5994 165.19 52.5625 165.028Z" fill="#424251"/>
<path d="M48.3245 165.76L47.1152 165.876L47.1891 165.44L48.3337 165.218L48.3245 165.76Z" fill="#5D5D69"/>
<path d="M52.7055 165.514C53.0901 165.566 53.4801 165.472 53.7993 165.25C53.9172 165.42 53.9771 165.623 53.9701 165.829L52.8116 165.941C52.6685 165.825 52.7055 165.667 52.7055 165.514Z" fill="#5D5D69"/>
<path d="M28.2991 149.244C28.8022 149.285 28.9822 149.633 29.0053 150.073C29.0319 150.261 28.9762 150.452 28.8525 150.597C28.7287 150.742 28.549 150.826 28.3591 150.828C27.8607 150.828 27.6761 150.439 27.6484 150.003C27.6234 149.814 27.6801 149.622 27.8044 149.477C27.9286 149.332 28.1086 149.247 28.2991 149.244Z" fill="#030304"/>
<path d="M25.7051 150.203C25.6636 150.61 25.5159 150.957 25.0498 150.944C24.8598 150.95 24.6755 150.878 24.5402 150.744C24.4049 150.61 24.3305 150.426 24.3344 150.235C24.3133 150.054 24.3703 149.872 24.4911 149.736C24.6119 149.6 24.785 149.522 24.9667 149.522C25.1564 149.506 25.344 149.571 25.4842 149.7C25.6244 149.829 25.7045 150.011 25.7051 150.203V150.203Z" fill="#030304"/>
<path d="M144.416 128.637C146.363 128.724 148.301 128.959 150.213 129.338C150.517 129.532 150.833 129.708 151.159 129.865C153.208 131.465 154.209 133.074 155.497 135.324C157.172 138.384 157.695 141.935 156.974 145.343C156.12 149.468 153.66 152.218 150.513 154.877C149.862 155.427 149.128 155.555 148.569 156.229C147.03 156.287 145.487 156.239 143.954 156.087C143.493 156.041 143.493 156.174 143.622 156.545C144.749 159.898 146.05 163.192 147.517 166.413C148.196 167.912 148.925 169.392 149.649 170.873C149.797 171.175 149.871 171.271 149.423 171.308C148.843 171.409 148.28 171.062 148.113 170.501C145.98 165.978 143.959 161.426 142.459 156.641C142.348 156.284 142.436 155.78 141.799 155.725C141.503 155.725 141.439 155.725 141.439 156.018C141.439 158.768 141.471 161.541 141.642 164.3C141.771 166.454 141.979 168.608 142.149 170.763C142.149 170.928 142.214 171.184 141.933 171.111C141.651 171.038 141.037 171.445 140.949 170.772C140.829 169.887 140.76 168.989 140.691 168.1C140.354 163.997 140.229 159.881 140.317 155.766C140.317 155.385 140.142 155.344 139.856 155.266C136.405 154.344 133.246 152.567 130.676 150.101C130.468 149.895 130.265 149.679 129.979 149.386C130.643 153.263 131.483 157.178 132.337 160.876C131.963 160.982 131.566 161.041 131.193 161.151C130.353 157.576 129.54 153.868 128.926 150.046C128.067 154.091 127.476 158.188 127.159 162.311C126.78 162.384 126.397 162.444 126.019 162.517C126.111 160.093 126.453 157.503 126.794 155.101C126.951 154.029 127.154 152.961 127.329 151.893C127.341 151.789 127.341 151.685 127.329 151.581C127.235 151.617 127.144 151.662 127.057 151.714C123.314 154.308 119.673 154.267 115.934 151.595L115.722 151.458C115.689 151.549 115.668 151.645 115.657 151.742C115.68 154.499 115.851 157.253 116.169 159.992C116.552 163.672 117.19 167.321 118.08 170.914C118.113 171.051 118.205 171.299 117.937 171.253C117.568 171.189 117.014 171.643 116.857 170.928C116.516 169.333 116.146 167.747 115.865 166.143C114.94 161.164 114.477 156.112 114.48 151.05C114.48 150.985 114.48 150.921 114.453 150.688C113.855 152.322 113.349 153.988 112.939 155.679C111.679 160.675 111.097 165.815 111.208 170.964C111.208 171.757 110.7 171.473 110.331 171.533C109.819 171.615 109.976 171.221 109.976 170.978C109.88 164.23 110.925 157.514 113.068 151.109C113.102 150.972 113.128 150.833 113.146 150.692C111.743 152.248 109.846 153.282 107.769 153.621C106.028 154.002 104.207 153.785 102.605 153.007C100.048 151.719 99.3741 149.015 100.966 146.659C101.277 146.144 101.686 145.694 102.171 145.334C102.725 144.977 102.711 144.605 102.568 144.033C101.474 139.743 99.4526 135.893 97.0803 132.194C96.8957 131.9 96.7526 131.845 96.4157 131.992C95.2953 132.546 93.935 132.196 93.2264 131.172C93.1895 130.888 93.1203 130.755 93.2264 130.539C94.1264 129.215 96.3926 129.077 97.228 130.31C100.076 134.504 102.499 138.895 103.722 143.858C103.786 144.124 103.846 144.193 104.133 144.051C104.543 143.853 104.969 143.689 105.406 143.56C105.942 143.391 106.634 143.409 106.994 143.07C107.354 142.731 107.059 142.002 107.16 141.457C107.163 141.438 107.163 141.42 107.16 141.402C107.276 137.937 106.86 134.577 105.157 131.474C104.986 131.163 104.908 130.993 104.506 131.286C104.047 131.61 103.474 131.733 102.921 131.627C102.368 131.522 101.882 131.197 101.576 130.727C101.091 129.865 101.525 129.05 102.748 128.523C102.748 128.523 102.748 128.49 102.776 128.477C103.124 128.39 103.489 128.39 103.837 128.477C104.848 128.775 105.388 129.558 105.891 130.397C108.042 133.995 108.545 137.937 108.323 142.02C108.268 143.056 108.236 143.038 109.246 143.116C110.381 143.18 111.479 143.542 112.426 144.165C112.685 144.34 112.731 144.326 112.777 144.005C113.336 140.095 115.477 137.46 119.331 136.378C122.123 135.595 124.717 136.204 127.039 137.941C127.191 138.056 127.334 138.345 127.5 137.905C128.991 134.279 131.811 132.024 135.314 130.498C137.374 129.564 139.589 129.015 141.849 128.88C142.071 128.88 142.957 128.688 143.174 128.655C143.48 128.872 143.797 129.071 144.125 129.251C146.218 130.806 147.933 132.808 149.142 135.109C150.669 137.822 151.089 141.237 150.609 144.326C149.931 148.712 148.302 151.357 145.016 154.189C144.711 154.45 144.245 154.872 143.94 155.133C144.282 155.376 143.968 155.11 144.346 155.198C144.725 155.285 144.277 155.486 144.748 155.129C146.649 153.676 148.117 151.769 149.497 149.817C151.888 146.434 152.368 144.775 151.463 140.65C150.609 136.736 148.939 132.945 145.925 130.383C145.36 129.857 144.854 129.271 144.416 128.637V128.637Z" fill="#424251"/>
<path d="M152.976 130.062C156.955 131.57 161.03 134.21 163.204 137.937C165.593 141.84 165.128 146.836 162.059 150.238C159.235 153.515 155.039 155.28 150.844 156.018C150.916 155.671 151.074 155.348 151.305 155.078C153.659 153.245 155.395 150.665 156.844 148.025C158.579 144.89 158.81 143.235 157.938 139.729C157.227 136.846 155.962 133.867 153.918 131.726C153.507 131.231 153.189 130.668 152.976 130.062Z" fill="#424251"/>
<path d="M145.21 128.688C145.614 129.163 146.079 129.584 146.594 129.939C149.585 132.501 151.851 135.512 152.7 139.426C153.623 143.579 152.46 147.264 150.07 150.646C148.657 152.559 146.959 154.247 145.034 155.651C144.573 156.013 144.203 155.766 143.807 155.674C143.41 155.655 143.022 155.556 142.667 155.381L143.59 154.597C146.885 151.765 149.359 148.419 150.051 144.033C150.498 141.019 149.888 137.945 148.325 135.324C146.898 132.865 144.975 130.726 142.676 129.04C142.602 128.981 142.574 128.866 142.523 128.779C143.409 128.616 144.315 128.585 145.21 128.688Z" fill="#5D5D69"/>
<path d="M153.711 130.379C153.9 130.906 154.389 131.172 154.749 131.547C156.81 133.617 158.283 136.191 159.019 139.009C159.891 142.52 159.249 145.811 157.519 148.941C156.06 151.581 153.96 153.635 151.611 155.472C151.473 155.582 151.306 155.67 151.316 155.88C150.202 156.144 149.059 156.272 147.914 156.261C148.459 155.592 149.225 155.179 149.876 154.629C153.037 151.962 155.442 148.804 156.296 144.697C156.968 141.454 156.39 138.078 154.676 135.237C153.4 133.006 151.695 131.046 149.659 129.467C149.579 129.379 149.515 129.278 149.469 129.169C150.936 129.362 152.365 129.77 153.711 130.379V130.379Z" fill="#5D5D69"/>
<path d="M132.767 162.476C133.538 165.185 134.433 168.113 135.439 170.749C135.55 171.037 135.439 171.074 135.172 171.102C134.912 171.178 134.633 171.137 134.406 170.991C134.18 170.844 134.03 170.607 133.995 170.341C133.196 167.843 132.241 165.24 131.627 162.687C132.01 162.65 132.384 162.512 132.767 162.476Z" fill="#424251"/>
<path d="M127.181 162.444C127.259 164.735 126.904 168.077 126.918 170.799C126.918 171.386 126.456 171.06 126.207 171.115C125.958 171.17 125.676 171.202 125.69 170.762C125.773 168.567 125.833 166.372 125.907 164.176C125.892 163.643 125.936 163.11 126.036 162.586C126.438 162.554 126.775 162.485 127.181 162.444Z" fill="#424251"/>
<path d="M131.174 161.027L132.3 160.707L132.522 161.555C132.204 161.776 131.829 161.902 131.442 161.917L131.174 161.027Z" fill="#5D5D69"/>
<path d="M131.441 161.917C131.714 161.545 132.129 161.577 132.521 161.555C132.572 161.752 132.646 162.082 132.701 162.279C132.39 162.499 132.006 162.597 131.626 162.554C131.598 162.389 131.488 162.095 131.441 161.917Z" fill="#424251"/>
<path d="M127.199 162.645L125.99 162.76L126.064 162.329L127.209 162.109L127.199 162.645Z" fill="#5D5D69"/>
<path d="M131.598 162.402C131.984 162.451 132.374 162.358 132.696 162.141C132.812 162.309 132.871 162.51 132.862 162.714L131.704 162.824C131.547 162.71 131.598 162.554 131.598 162.402Z" fill="#5D5D69"/>
<path d="M107.178 146.278C107.681 146.32 107.857 146.663 107.88 147.099C107.908 147.284 107.853 147.473 107.73 147.616C107.607 147.758 107.427 147.841 107.238 147.841C106.74 147.841 106.55 147.461 106.523 147.03C106.499 146.842 106.557 146.653 106.682 146.509C106.807 146.366 106.987 146.282 107.178 146.278V146.278Z" fill="#030304"/>
<path d="M104.585 147.25C104.539 147.653 104.392 147.997 103.925 147.983C103.736 147.986 103.554 147.913 103.42 147.781C103.286 147.649 103.21 147.47 103.21 147.282C103.187 147.102 103.244 146.922 103.365 146.787C103.486 146.652 103.66 146.575 103.842 146.576C104.032 146.562 104.219 146.627 104.36 146.754C104.501 146.882 104.582 147.061 104.585 147.25V147.25Z" fill="#030304"/>
<path d="M225.355 124.505C227.3 124.593 229.237 124.83 231.147 125.213C231.452 125.408 231.768 125.586 232.093 125.746C234.147 127.363 235.148 128.988 236.436 131.262C238.111 134.354 238.634 137.943 237.913 141.387C237.055 145.555 234.599 148.334 231.451 151.021C230.801 151.576 230.067 151.706 229.508 152.387C227.968 152.446 226.426 152.398 224.893 152.243C224.431 152.197 224.431 152.331 224.556 152.707C225.684 156.097 226.986 159.427 228.456 162.683C229.13 164.197 229.841 165.693 230.588 167.189C230.736 167.495 230.805 167.592 230.362 167.629C229.782 167.73 229.218 167.38 229.047 166.814C226.919 162.243 224.893 157.644 223.398 152.808C223.287 152.447 223.375 151.938 222.733 151.882C222.442 151.882 222.373 151.882 222.373 152.179C222.373 154.957 222.405 157.76 222.576 160.548C222.71 162.725 222.918 164.901 223.088 167.074C223.088 167.245 223.153 167.504 222.871 167.43C222.59 167.356 221.976 167.768 221.888 167.088C221.768 166.194 221.695 165.286 221.63 164.387C221.293 160.242 221.168 156.082 221.256 151.924C221.256 151.539 221.076 151.498 220.795 151.419C217.346 150.482 214.191 148.683 211.624 146.19C211.416 145.981 211.218 145.764 210.927 145.467C211.596 149.386 212.436 153.341 213.29 157.079C212.911 157.185 212.519 157.245 212.145 157.357C211.305 153.744 210.493 149.997 209.875 146.134C209.019 150.223 208.43 154.363 208.111 158.528L206.967 158.737C207.064 156.287 207.405 153.67 207.747 151.243C207.899 150.159 208.107 149.08 208.282 148.001C208.291 147.896 208.291 147.791 208.282 147.686C208.188 147.722 208.097 147.765 208.01 147.816C204.267 150.442 200.625 150.4 196.887 147.7L196.675 147.561C196.642 147.654 196.62 147.75 196.61 147.848C196.633 150.634 196.804 153.417 197.122 156.185C197.503 159.904 198.14 163.591 199.028 167.222C199.065 167.361 199.158 167.606 198.89 167.565C198.521 167.5 197.967 167.958 197.805 167.236C197.464 165.624 197.095 164.021 196.813 162.4C195.893 157.369 195.429 152.264 195.428 147.149C195.428 147.084 195.428 147.019 195.405 146.783C194.796 148.43 194.282 150.111 193.864 151.817C192.607 156.863 192.03 162.055 192.147 167.254C192.147 168.056 191.639 167.768 191.27 167.829C190.758 167.912 190.915 167.514 190.915 167.268C190.817 160.449 191.862 153.662 194.007 147.19C194.041 147.052 194.066 146.911 194.081 146.769C192.678 148.341 190.783 149.385 188.708 149.728C186.966 150.113 185.146 149.894 183.544 149.108C180.987 147.806 180.313 145.074 181.905 142.693C182.216 142.172 182.625 141.718 183.11 141.355C183.659 140.993 183.65 140.618 183.502 140.039C182.413 135.704 180.387 131.813 178.019 128.071C177.835 127.779 177.687 127.724 177.355 127.872C176.234 128.432 174.874 128.078 174.165 127.043C174.124 126.756 174.055 126.621 174.165 126.404C175.088 125.065 177.336 124.926 178.171 126.172C181.015 130.41 183.442 134.847 184.665 139.863C184.73 140.132 184.79 140.201 185.076 140.058C185.486 139.857 185.912 139.691 186.35 139.562C186.885 139.391 187.578 139.409 187.933 139.067C188.288 138.724 188.002 137.987 188.104 137.436C188.106 137.418 188.106 137.399 188.104 137.381C188.219 133.879 187.799 130.484 186.101 127.344C185.93 127.034 185.851 126.881 185.45 127.159C184.99 127.486 184.416 127.61 183.862 127.504C183.308 127.397 182.822 127.068 182.515 126.594C182.053 125.718 182.468 124.899 183.687 124.366C183.7 124.352 183.711 124.337 183.719 124.32C184.068 124.232 184.432 124.232 184.781 124.32C185.787 124.621 186.331 125.413 186.835 126.26C188.981 129.896 189.484 133.879 189.267 138.006C189.211 139.053 189.175 139.034 190.19 139.113C191.325 139.178 192.422 139.544 193.37 140.173C193.628 140.349 193.67 140.336 193.716 140.011C194.279 136.056 196.416 133.393 200.275 132.304C203.067 131.512 205.656 132.128 207.978 133.879C208.13 133.995 208.278 134.287 208.439 133.847C209.925 130.183 212.75 127.904 216.248 126.362C218.31 125.418 220.527 124.864 222.788 124.727C223.01 124.727 223.891 124.533 224.113 124.5C224.418 124.718 224.733 124.919 225.059 125.102C227.153 126.672 228.868 128.695 230.076 131.021C231.608 133.763 232.028 137.214 231.548 140.336C230.87 144.768 229.241 147.44 225.95 150.303C225.645 150.567 225.184 150.993 224.879 151.257C225.216 151.502 224.902 151.234 225.285 151.322C225.668 151.41 225.216 151.613 225.687 151.252C227.588 149.784 229.056 147.857 230.436 145.884C232.827 142.466 233.302 140.789 232.402 136.621C231.548 132.666 229.878 128.835 226.864 126.246C226.3 125.721 225.794 125.138 225.355 124.505Z" fill="#424251"/>
<path d="M233.912 125.941C237.895 127.464 241.965 130.132 244.139 133.898C246.533 137.841 246.068 142.893 242.995 146.329C240.175 149.64 235.979 151.424 231.779 152.169C231.853 151.82 232.012 151.494 232.241 151.22C234.59 149.367 236.33 146.76 237.779 144.092C239.51 140.924 239.741 139.252 238.873 135.709C238.158 132.795 236.898 129.785 234.853 127.622C234.445 127.12 234.126 126.552 233.912 125.941Z" fill="#424251"/>
<path d="M226.145 124.551C226.55 125.032 227.015 125.457 227.53 125.816C230.521 128.405 232.787 131.448 233.636 135.403C234.559 139.599 233.396 143.323 231.005 146.741C229.596 148.672 227.903 150.377 225.984 151.799C225.522 152.165 225.153 151.915 224.751 151.822C224.356 151.803 223.969 151.7 223.616 151.521L224.539 150.733C227.83 147.871 230.304 144.49 231.001 140.058C231.444 137.013 230.835 133.907 229.275 131.258C227.854 128.777 225.941 126.615 223.653 124.908C223.586 124.829 223.533 124.74 223.496 124.644C224.37 124.483 225.262 124.452 226.145 124.551Z" fill="#5D5D69"/>
<path d="M234.651 126.26C234.836 126.793 235.33 127.061 235.685 127.441C237.75 129.531 239.225 132.133 239.959 134.981C240.831 138.525 240.185 141.855 238.454 145.018C236.996 147.686 234.9 149.761 232.551 151.618C232.408 151.729 232.247 151.817 232.251 152.03C231.137 152.297 229.995 152.426 228.85 152.415C229.399 151.739 230.165 151.322 230.816 150.766C233.977 148.07 236.354 144.879 237.236 140.729C237.9 137.449 237.316 134.038 235.597 131.17C234.325 128.918 232.627 126.937 230.599 125.339C230.516 125.25 230.452 125.146 230.41 125.033C231.875 125.233 233.304 125.647 234.651 126.26Z" fill="#5D5D69"/>
<path d="M213.707 158.695C214.473 161.432 215.373 164.392 216.375 167.055C216.486 167.347 216.398 167.384 216.112 167.412C215.853 167.489 215.573 167.448 215.347 167.3C215.12 167.152 214.97 166.912 214.935 166.643C214.136 164.119 213.181 161.483 212.562 158.908C212.95 158.871 213.324 158.732 213.707 158.695Z" fill="#424251"/>
<path d="M208.117 158.663C208.201 160.979 207.845 164.355 207.854 167.106C207.854 167.699 207.393 167.37 207.148 167.426C206.904 167.481 206.617 167.514 206.631 167.069C206.714 164.851 206.774 162.632 206.848 160.413C206.832 159.875 206.874 159.336 206.973 158.806C207.379 158.765 207.716 158.7 208.117 158.663Z" fill="#424251"/>
<path d="M212.137 157.232L213.263 156.907L213.48 157.764C213.163 157.989 212.788 158.116 212.4 158.13L212.137 157.232Z" fill="#5D5D69"/>
<path d="M212.377 158.13C212.654 157.755 213.065 157.787 213.457 157.764C213.512 157.959 213.586 158.297 213.637 158.496C213.325 158.719 212.942 158.818 212.562 158.774C212.515 158.607 212.428 158.297 212.377 158.13Z" fill="#424251"/>
<path d="M208.141 158.866L206.932 158.982L207.005 158.547L208.15 158.325L208.141 158.866Z" fill="#5D5D69"/>
<path d="M212.52 158.621C212.904 158.67 213.294 158.576 213.614 158.357C213.734 158.525 213.794 158.729 213.785 158.936L212.626 159.047C212.483 158.917 212.52 158.769 212.52 158.621Z" fill="#5D5D69"/>
<path d="M188.137 142.327C188.64 142.369 188.82 142.716 188.843 143.156C188.871 143.345 188.816 143.536 188.692 143.68C188.568 143.825 188.387 143.907 188.197 143.907C187.699 143.907 187.514 143.522 187.486 143.087C187.461 142.897 187.518 142.706 187.642 142.561C187.766 142.416 187.946 142.331 188.137 142.327Z" fill="#030304"/>
<path d="M185.52 143.304C185.479 143.717 185.331 144.064 184.86 144.05C184.671 144.054 184.489 143.981 184.355 143.847C184.221 143.713 184.147 143.531 184.149 143.341C184.127 143.16 184.183 142.978 184.304 142.841C184.426 142.704 184.6 142.627 184.782 142.628C184.97 142.614 185.156 142.679 185.296 142.807C185.436 142.935 185.517 143.115 185.52 143.304V143.304Z" fill="#030304"/>
<path d="M303.628 127.306C305.575 127.398 307.513 127.635 309.425 128.014C309.729 128.213 310.045 128.393 310.371 128.552C312.42 130.168 313.422 131.794 314.714 134.068C316.387 137.16 316.909 140.749 316.187 144.192C315.333 148.361 312.873 151.14 309.725 153.826C309.074 154.382 308.34 154.512 307.782 155.216C306.242 155.273 304.7 155.223 303.167 155.067C302.705 155.021 302.705 155.16 302.834 155.531C303.96 158.92 305.261 162.248 306.73 165.502C307.408 167.022 308.137 168.518 308.862 170.014C309.01 170.319 309.084 170.416 308.636 170.477C308.056 170.579 307.492 170.228 307.325 169.661C305.193 165.09 303.171 160.491 301.671 155.656C301.56 155.29 301.648 154.785 301.011 154.729C300.72 154.729 300.651 154.729 300.651 155.026C300.651 157.805 300.684 160.607 300.854 163.39C300.988 165.572 301.191 167.744 301.362 169.921C301.362 170.092 301.427 170.352 301.145 170.278C300.864 170.203 300.254 170.611 300.162 169.935C300.042 169.036 299.973 168.133 299.904 167.23C299.567 163.086 299.442 158.928 299.53 154.771C299.53 154.387 299.354 154.345 299.068 154.266C295.619 153.315 292.467 151.501 289.907 148.995C289.699 148.787 289.496 148.569 289.21 148.273C289.874 152.187 290.714 156.147 291.568 159.884C291.194 159.991 290.802 160.051 290.424 160.157C289.584 156.549 288.771 152.803 288.157 148.94C287.297 153.027 286.708 157.168 286.394 161.334C286.011 161.408 285.628 161.468 285.25 161.542C285.382 159.031 285.643 156.528 286.03 154.044C286.182 152.96 286.385 151.881 286.565 150.802C286.572 150.697 286.572 150.592 286.565 150.487C286.471 150.522 286.379 150.565 286.293 150.616C282.55 153.238 278.908 153.201 275.165 150.501C275.096 150.45 275.027 150.408 274.953 150.362C274.923 150.455 274.903 150.551 274.893 150.649C274.915 153.435 275.084 156.218 275.4 158.986C275.783 162.705 276.422 166.392 277.311 170.023C277.344 170.162 277.436 170.407 277.173 170.361C276.804 170.301 276.25 170.759 276.088 170.037C275.747 168.425 275.377 166.818 275.096 165.201C274.172 160.17 273.708 155.065 273.711 149.949C273.711 149.885 273.711 149.82 273.684 149.584C273.072 151.234 272.556 152.918 272.137 154.627C270.874 159.675 270.29 164.87 270.402 170.074C270.402 170.875 269.894 170.588 269.53 170.648C269.017 170.731 269.174 170.333 269.17 170.088C269.074 163.269 270.119 156.482 272.262 150.01C272.296 149.871 272.322 149.73 272.34 149.588C270.935 151.159 269.039 152.203 266.964 152.548C265.221 152.93 263.402 152.711 261.799 151.927C259.242 150.626 258.568 147.893 260.16 145.512C260.471 144.992 260.88 144.537 261.365 144.174C261.919 143.813 261.91 143.437 261.762 142.854C260.668 138.523 258.647 134.633 256.279 130.891C256.09 130.599 255.947 130.543 255.61 130.691C254.491 131.251 253.132 130.897 252.425 129.862C252.384 129.575 252.314 129.441 252.425 129.223C253.325 127.88 255.591 127.746 256.427 128.992C259.274 133.229 261.697 137.667 262.92 142.678C262.985 142.951 263.05 143.021 263.331 142.877C263.743 142.675 264.17 142.508 264.61 142.377C265.14 142.21 265.837 142.229 266.193 141.886C266.548 141.543 266.262 140.807 266.359 140.256C266.361 140.237 266.361 140.218 266.359 140.2C266.474 136.699 266.059 133.304 264.356 130.163C264.19 129.848 264.111 129.7 263.705 129.978C263.245 130.304 262.673 130.427 262.12 130.321C261.567 130.214 261.081 129.886 260.774 129.413C260.313 128.538 260.724 127.713 261.947 127.181C261.947 127.181 261.947 127.153 261.974 127.139C262.322 127.049 262.688 127.049 263.036 127.139C264.047 127.44 264.591 128.232 265.09 129.08C267.24 132.715 267.744 136.699 267.522 140.825C267.467 141.872 267.434 141.853 268.445 141.928C269.58 141.996 270.677 142.363 271.625 142.993C271.884 143.169 271.93 143.15 271.976 142.831C272.534 138.875 274.676 136.212 278.53 135.124C281.322 134.332 283.916 134.948 286.237 136.699C286.39 136.814 286.533 137.106 286.699 136.666C288.19 133.003 291.01 130.719 294.513 129.181C296.573 128.235 298.791 127.681 301.053 127.547C301.274 127.547 302.156 127.352 302.377 127.32C302.674 127.536 302.983 127.737 303.3 127.922C305.392 129.492 307.107 131.513 308.317 133.836C309.85 136.583 310.265 140.033 309.785 143.155C309.107 147.587 307.477 150.26 304.191 153.122C303.887 153.386 303.42 153.812 303.116 154.072C303.457 154.322 303.144 154.072 303.522 154.141C303.9 154.211 303.457 154.433 303.928 154.067C305.83 152.599 307.293 150.677 308.673 148.704C311.064 145.285 311.544 143.609 310.639 139.44C309.79 135.49 308.114 131.659 305.124 129.07C304.565 128.536 304.064 127.945 303.628 127.306Z" fill="#424251"/>
<path d="M312.189 128.741C316.167 130.265 320.243 132.938 322.417 136.703C324.806 140.647 324.341 145.696 321.272 149.134C318.447 152.446 314.252 154.229 310.057 154.975C310.126 154.623 310.285 154.296 310.518 154.025C312.867 152.173 314.603 149.56 316.057 146.897C317.792 143.729 318.023 142.057 317.155 138.509C316.44 135.601 315.175 132.59 313.13 130.427C312.721 129.925 312.402 129.354 312.189 128.741Z" fill="#424251"/>
<path d="M304.445 127.357C304.848 127.837 305.314 128.261 305.829 128.616C308.82 131.21 311.086 134.253 311.94 138.208C312.84 142.4 311.696 146.128 309.305 149.547C307.894 151.479 306.198 153.185 304.274 154.604C303.813 154.966 303.439 154.72 303.042 154.627C302.646 154.61 302.259 154.507 301.906 154.326L302.829 153.534C306.12 150.672 308.594 147.296 309.291 142.882C309.737 139.837 309.128 136.73 307.565 134.082C306.148 131.597 304.234 129.434 301.943 127.727C301.869 127.672 301.842 127.556 301.791 127.468C302.665 127.3 303.56 127.263 304.445 127.357Z" fill="#5D5D69"/>
<path d="M312.928 129.066C313.113 129.598 313.602 129.867 313.962 130.247C316.025 132.338 317.499 134.939 318.236 137.787C319.104 141.33 318.462 144.656 316.732 147.824C315.273 150.491 313.173 152.566 310.824 154.419C310.685 154.53 310.519 154.623 310.528 154.836C309.414 155.1 308.272 155.229 307.127 155.22C307.672 154.539 308.438 154.122 309.088 153.571C312.25 150.876 314.655 147.685 315.508 143.53C316.175 140.25 315.59 136.839 313.87 133.97C312.594 131.717 310.889 129.738 308.853 128.144C308.765 128.074 308.728 127.94 308.664 127.838C310.137 128.037 311.574 128.45 312.928 129.066V129.066Z" fill="#5D5D69"/>
<path d="M291.983 161.501C292.749 164.238 293.644 167.197 294.65 169.837C294.761 170.129 294.65 170.166 294.383 170.194C294.124 170.263 293.848 170.219 293.624 170.072C293.4 169.926 293.248 169.691 293.206 169.425C292.407 166.901 291.452 164.266 290.838 161.686C291.221 161.672 291.595 161.538 291.983 161.501Z" fill="#424251"/>
<path d="M286.393 161.454C286.472 163.77 286.116 167.147 286.13 169.898C286.13 170.486 285.669 170.162 285.419 170.217C285.17 170.273 284.889 170.305 284.907 169.861C284.986 167.642 285.05 165.424 285.119 163.205C285.105 162.666 285.148 162.127 285.249 161.598C285.65 161.57 285.982 161.505 286.393 161.454Z" fill="#424251"/>
<path d="M290.391 160.037L291.512 159.713L291.734 160.57C291.416 160.794 291.041 160.921 290.654 160.936L290.391 160.037Z" fill="#5D5D69"/>
<path d="M290.654 160.936C290.927 160.556 291.342 160.593 291.734 160.57C291.785 160.764 291.864 161.102 291.914 161.301C291.603 161.525 291.219 161.623 290.839 161.575C290.788 161.413 290.7 161.098 290.654 160.936Z" fill="#424251"/>
<path d="M286.412 161.667L285.203 161.783L285.277 161.348L286.422 161.13L286.412 161.667Z" fill="#5D5D69"/>
<path d="M290.797 161.426C291.182 161.474 291.571 161.378 291.891 161.158C292.007 161.329 292.066 161.534 292.057 161.741L290.903 161.853C290.76 161.737 290.797 161.575 290.797 161.426Z" fill="#5D5D69"/>
<path d="M266.391 145.133C266.894 145.174 267.07 145.522 267.093 145.957C267.122 146.146 267.068 146.338 266.945 146.483C266.822 146.628 266.641 146.712 266.451 146.712C265.953 146.712 265.763 146.328 265.736 145.888C265.712 145.698 265.77 145.507 265.895 145.363C266.02 145.219 266.201 145.135 266.391 145.133Z" fill="#030304"/>
<path d="M263.798 146.11C263.751 146.517 263.608 146.869 263.138 146.856C262.948 146.858 262.766 146.784 262.632 146.649C262.498 146.515 262.424 146.332 262.427 146.142C262.404 145.961 262.461 145.779 262.582 145.643C262.703 145.507 262.877 145.431 263.059 145.434C263.248 145.42 263.434 145.484 263.574 145.612C263.713 145.74 263.794 145.92 263.798 146.11Z" fill="#030304"/>
<path d="M380.461 131.31C382.407 131.398 384.344 131.635 386.254 132.019C386.559 132.215 386.875 132.392 387.2 132.552C389.249 134.168 390.255 135.794 391.543 138.068C393.216 141.16 393.738 144.749 393.015 148.192C392.161 152.361 389.706 155.14 386.554 157.826C385.903 158.382 385.169 158.512 384.606 159.216C383.066 159.275 381.524 159.227 379.991 159.072C379.529 159.021 379.529 159.16 379.654 159.535C380.781 162.926 382.081 166.255 383.549 169.512C384.228 171.026 384.957 172.522 385.681 174.018C385.834 174.324 385.903 174.421 385.455 174.481C384.875 174.583 384.312 174.233 384.144 173.666C382.012 169.095 379.991 164.496 378.495 159.66C378.384 159.294 378.468 158.789 377.831 158.734C377.54 158.734 377.471 158.734 377.471 159.03C377.471 161.809 377.503 164.611 377.674 167.4C377.808 169.576 378.015 171.749 378.186 173.925C378.186 174.097 378.251 174.356 377.969 174.282C377.688 174.208 377.074 174.62 376.981 173.939C376.866 173.041 376.792 172.138 376.723 171.234C376.388 167.091 376.264 162.932 376.349 158.776C376.349 158.391 376.174 158.349 375.888 158.271C372.441 157.333 369.287 155.534 366.721 153.042C366.514 152.833 366.311 152.616 366.024 152.319C366.689 156.233 367.529 160.193 368.383 163.93C368.009 164.037 367.617 164.097 367.243 164.208C366.403 160.596 365.591 156.849 364.972 152.986C364.112 157.074 363.523 161.214 363.209 165.38L362.064 165.589C362.203 163.062 362.467 160.544 362.858 158.044C363.011 156.96 363.218 155.881 363.394 154.802C363.401 154.697 363.401 154.592 363.394 154.487C363.3 154.522 363.208 154.566 363.121 154.616C359.378 157.238 355.737 157.201 351.994 154.501C351.929 154.45 351.855 154.408 351.786 154.362C351.754 154.455 351.732 154.551 351.721 154.649C351.743 157.435 351.914 160.218 352.234 162.986C352.615 166.704 353.251 170.392 354.14 174.023C354.177 174.162 354.264 174.407 354.001 174.365C353.632 174.301 353.078 174.759 352.917 174.037C352.575 172.425 352.206 170.822 351.924 169.201C351.004 164.17 350.541 159.065 350.54 153.949C350.54 153.885 350.54 153.82 350.512 153.584C349.904 155.231 349.391 156.912 348.975 158.618C347.714 163.666 347.13 168.861 347.24 174.064C347.24 174.866 346.732 174.578 346.368 174.639C345.855 174.722 346.012 174.324 346.012 174.078C345.913 167.259 346.956 160.472 349.1 154C349.134 153.862 349.16 153.721 349.178 153.579C347.776 155.151 345.88 156.195 343.806 156.538C342.064 156.924 340.243 156.705 338.641 155.918C336.08 154.616 335.411 151.884 337.003 149.503C337.312 148.981 337.722 148.527 338.208 148.165C338.757 147.803 338.748 147.428 338.6 146.849C337.506 142.514 335.484 138.624 333.117 134.881C332.932 134.589 332.784 134.534 332.452 134.682C331.332 135.242 329.971 134.888 329.263 133.853C329.221 133.566 329.152 133.432 329.263 133.214C330.186 131.875 332.429 131.736 333.269 132.982C336.112 137.22 338.54 141.657 339.758 146.669C339.828 146.942 339.888 147.011 340.169 146.868C340.581 146.666 341.009 146.499 341.448 146.368C341.983 146.201 342.675 146.219 343.031 145.877C343.386 145.534 343.1 144.797 343.201 144.246C343.201 144.246 343.201 144.209 343.201 144.191C343.317 140.689 342.897 137.294 341.198 134.154C341.028 133.839 340.949 133.691 340.543 133.969C340.083 134.294 339.511 134.418 338.958 134.311C338.405 134.205 337.919 133.877 337.612 133.404C337.151 132.528 337.566 131.709 338.784 131.171C338.784 131.171 338.784 131.144 338.812 131.13C339.162 131.042 339.528 131.042 339.878 131.13C340.884 131.431 341.429 132.223 341.928 133.07C344.078 136.706 344.581 140.689 344.364 144.816C344.309 145.863 344.272 145.844 345.288 145.923C346.424 145.987 347.523 146.353 348.472 146.984C348.731 147.16 348.772 147.141 348.818 146.821C349.381 142.866 351.518 140.203 355.372 139.114C358.169 138.322 360.758 138.938 363.08 140.689C363.232 140.805 363.375 141.097 363.541 140.657C365.032 136.993 367.857 134.714 371.355 133.172C373.416 132.226 375.633 131.671 377.895 131.537C378.117 131.537 378.998 131.343 379.22 131.31C379.517 131.527 379.825 131.728 380.143 131.912C382.236 133.483 383.951 135.506 385.16 137.832C386.692 140.573 387.108 144.024 386.632 147.146C385.949 151.578 384.324 154.25 381.034 157.113C380.729 157.377 380.268 157.803 379.963 158.067C380.3 158.312 379.986 158.044 380.364 158.132C380.743 158.22 380.3 158.424 380.771 158.062C382.672 156.589 384.135 154.667 385.52 152.694C387.911 149.276 388.386 147.6 387.481 143.431C386.632 139.476 384.957 135.645 381.943 133.056C381.391 132.527 380.895 131.941 380.461 131.31Z" fill="#424251"/>
<path d="M389.019 132.741C393.002 134.265 397.073 136.938 399.247 140.703C401.639 144.647 401.174 149.697 398.102 153.134C395.277 156.446 391.082 158.229 386.887 158.975C386.959 158.624 387.117 158.298 387.348 158.025C389.697 156.173 391.437 153.56 392.887 150.897C394.617 147.729 394.848 146.057 393.981 142.509C393.265 139.601 392.005 136.59 389.961 134.427C389.55 133.926 389.231 133.355 389.019 132.741V132.741Z" fill="#424251"/>
<path d="M381.25 131.357C381.653 131.838 382.119 132.264 382.635 132.621C385.626 135.21 387.887 138.253 388.741 142.208C389.664 146.4 388.496 150.128 386.11 153.547C384.697 155.478 382.999 157.184 381.075 158.604C380.613 158.965 380.244 158.72 379.843 158.627C379.447 158.61 379.06 158.507 378.707 158.326L379.63 157.539C382.921 154.677 385.395 151.296 386.092 146.863C386.537 143.819 385.929 140.713 384.37 138.063C382.949 135.582 381.036 133.419 378.749 131.709C378.67 131.653 378.643 131.537 378.592 131.449C379.469 131.288 380.364 131.256 381.25 131.357Z" fill="#5D5D69"/>
<path d="M389.753 133.066C389.937 133.598 390.427 133.867 390.787 134.247C392.849 136.338 394.324 138.939 395.06 141.787C395.928 145.33 395.287 148.66 393.556 151.824C392.097 154.491 390.002 156.566 387.653 158.424C387.51 158.535 387.348 158.623 387.353 158.836C386.238 159.1 385.096 159.229 383.951 159.22C384.496 158.544 385.262 158.122 385.913 157.571C389.074 154.876 391.479 151.685 392.333 147.535C393.002 144.255 392.417 140.842 390.694 137.975C389.42 135.72 387.715 133.738 385.677 132.144C385.598 132.054 385.535 131.95 385.493 131.838C386.965 132.037 388.4 132.451 389.753 133.066Z" fill="#5D5D69"/>
<path d="M368.813 165.501C369.579 168.238 370.479 171.197 371.48 173.837C371.591 174.129 371.48 174.166 371.217 174.194C370.958 174.264 370.681 174.221 370.456 174.074C370.23 173.927 370.077 173.692 370.036 173.425C369.242 170.901 368.286 168.266 367.668 165.691C368.06 165.677 368.425 165.538 368.813 165.501Z" fill="#424251"/>
<path d="M363.223 165.454C363.306 167.77 362.946 171.147 362.96 173.898C362.96 174.491 362.499 174.162 362.254 174.217C362.009 174.273 361.719 174.305 361.737 173.861C361.82 171.642 361.88 169.424 361.954 167.205C361.938 166.666 361.98 166.128 362.079 165.598C362.48 165.57 362.822 165.505 363.223 165.454Z" fill="#424251"/>
<path d="M367.221 164.037L368.342 163.713L368.564 164.57C368.247 164.795 367.872 164.922 367.484 164.936L367.221 164.037Z" fill="#5D5D69"/>
<path d="M367.482 164.936C367.755 164.56 368.17 164.593 368.562 164.57C368.613 164.764 368.692 165.102 368.742 165.301C368.431 165.525 368.047 165.623 367.667 165.575L367.482 164.936Z" fill="#424251"/>
<path d="M363.242 165.667L362.037 165.788L362.106 165.325L363.251 165.107L363.242 165.667Z" fill="#5D5D69"/>
<path d="M367.625 165.426C368.01 165.476 368.399 165.382 368.719 165.162C368.837 165.331 368.896 165.535 368.885 165.741L367.732 165.853C367.598 165.737 367.625 165.575 367.625 165.426Z" fill="#5D5D69"/>
<path d="M343.219 149.133C343.722 149.174 343.902 149.522 343.921 149.957C343.95 150.146 343.896 150.338 343.773 150.483C343.65 150.628 343.469 150.712 343.279 150.712C342.781 150.712 342.596 150.328 342.568 149.888C342.543 149.698 342.6 149.508 342.724 149.363C342.849 149.219 343.029 149.135 343.219 149.133V149.133Z" fill="#030304"/>
<path d="M340.626 150.11C340.58 150.517 340.436 150.869 339.966 150.856C339.776 150.858 339.594 150.784 339.46 150.649C339.327 150.515 339.252 150.332 339.255 150.142C339.232 149.961 339.289 149.779 339.41 149.643C339.531 149.507 339.705 149.431 339.887 149.434C340.076 149.42 340.262 149.484 340.402 149.612C340.541 149.74 340.622 149.92 340.626 150.11V150.11Z" fill="#030304"/>
<path d="M216.391 132.39C252.556 132.39 281.874 102.754 281.874 66.1952C281.874 29.6366 252.556 0 216.391 0C180.226 0 150.908 29.6366 150.908 66.1952C150.908 102.754 180.226 132.39 216.391 132.39Z" fill="url(#paint0_linear)"/>
<path d="M190.051 41.4163C192.41 41.4163 194.321 39.4837 194.321 37.0998C194.321 34.7158 192.41 32.7832 190.051 32.7832C187.693 32.7832 185.781 34.7158 185.781 37.0998C185.781 39.4837 187.693 41.4163 190.051 41.4163Z" fill="white"/>
<path d="M176.573 38.8586C178.231 38.8586 179.576 37.4996 179.576 35.8233C179.576 34.1469 178.231 32.788 176.573 32.788C174.915 32.788 173.57 34.1469 173.57 35.8233C173.57 37.4996 174.915 38.8586 176.573 38.8586Z" fill="white"/>
<path d="M219.732 99.8625C236.803 97.8097 249.51 82.9382 249.036 65.5662C248.563 48.1942 235.065 34.0528 217.908 32.9534C215.762 32.8144 213.608 32.8904 211.477 33.1804V33.1804C208.683 33.4498 205.946 34.1498 203.362 35.2559C200.355 36.731 198.418 39.2273 198.418 42.5511C198.429 46.8734 201.892 50.3748 206.168 50.3852C206.898 50.3852 209.372 49.5909 209.961 49.3923C212.213 48.6022 214.599 48.2805 216.977 48.4467C225.387 48.9778 232.295 55.359 233.574 63.7781C234.853 72.1972 230.158 80.3802 222.294 83.4382C214.429 86.4962 205.52 83.6033 200.888 76.4879V76.4879C197.319 71.76 198.133 64.1953 198.133 64.0866C197.996 60.2121 195.08 57.0194 191.271 56.5717C187.461 56.1239 183.899 58.5554 182.886 62.2947C182.729 63.2318 182.654 64.181 182.662 65.1315C181.917 83.3798 195.741 98.8817 213.773 100.019C215.757 100.17 217.752 100.123 219.727 99.8767" fill="white"/>
<path d="M184.519 54.0209C187.575 54.0209 190.052 51.5168 190.052 48.4278C190.052 45.3388 187.575 42.8347 184.519 42.8347C181.463 42.8347 178.986 45.3388 178.986 48.4278C178.986 51.5168 181.463 54.0209 184.519 54.0209Z" fill="white"/>
<path d="M53.9557 138.537C75.3485 138.537 92.6908 121.006 92.6908 99.3803C92.6908 77.7548 75.3485 60.2239 53.9557 60.2239C32.563 60.2239 15.2207 77.7548 15.2207 99.3803C15.2207 121.006 32.563 138.537 53.9557 138.537Z" fill="url(#paint1_linear)"/>
<path d="M38.3693 84.7238C39.7642 84.7238 40.8949 83.5808 40.8949 82.1707C40.8949 80.7607 39.7642 79.6177 38.3693 79.6177C36.9745 79.6177 35.8438 80.7607 35.8438 82.1707C35.8438 83.5808 36.9745 84.7238 38.3693 84.7238Z" fill="white"/>
<path d="M30.3964 83.2109C31.378 83.2109 32.1737 82.4065 32.1737 81.4143C32.1737 80.422 31.378 79.6177 30.3964 79.6177C29.4148 79.6177 28.6191 80.422 28.6191 81.4143C28.6191 82.4065 29.4148 83.2109 30.3964 83.2109Z" fill="white"/>
<path d="M55.9272 119.294C66.1217 118.198 73.7676 109.36 73.4848 99.0007C73.202 88.6412 65.0856 80.2435 54.8468 79.717C53.5781 79.6347 52.3045 79.6791 51.0444 79.8494V79.8494C49.3922 80.0093 47.7739 80.4239 46.2458 81.0786C44.4685 81.9486 43.3227 83.4426 43.3227 85.3905C43.3252 87.9491 45.3751 90.0233 47.9061 90.0285C48.6685 89.8977 49.4181 89.6999 50.1464 89.4376C53.5002 88.2645 57.2119 88.863 60.0383 91.0324C62.8646 93.2018 64.4318 96.6553 64.2149 100.236C63.9183 104.831 60.7515 108.721 56.3481 109.899C51.9447 111.078 47.2887 109.281 44.7819 105.437V105.437C42.6726 102.628 43.1543 98.1652 43.1543 98.099C43.084 95.8002 41.3578 93.9006 39.0978 93.6352C36.8378 93.3698 34.7268 94.8187 34.137 97.04C34.0425 97.5943 33.9971 98.156 34.0014 98.7184C33.5608 109.513 41.7385 118.683 52.4054 119.356C53.5793 119.443 54.7588 119.415 55.9272 119.271" fill="white"/>
<path d="M35.1001 92.1797C36.9082 92.1797 38.374 90.698 38.374 88.8702C38.374 87.0424 36.9082 85.5607 35.1001 85.5607C33.292 85.5607 31.8262 87.0424 31.8262 88.8702C31.8262 90.698 33.292 92.1797 35.1001 92.1797Z" fill="white"/>
<path d="M129.147 135.7C141.2 135.7 150.97 125.823 150.97 113.64C150.97 101.456 141.2 91.5792 129.147 91.5792C117.095 91.5792 107.324 101.456 107.324 113.64C107.324 125.823 117.095 135.7 129.147 135.7Z" fill="url(#paint2_linear)"/>
<path d="M120.367 105.38C121.152 105.38 121.789 104.736 121.789 103.943C121.789 103.149 121.152 102.505 120.367 102.505C119.582 102.505 118.945 103.149 118.945 103.943C118.945 104.736 119.582 105.38 120.367 105.38Z" fill="white"/>
<path d="M115.878 104.529C116.431 104.529 116.879 104.076 116.879 103.517C116.879 102.958 116.431 102.505 115.878 102.505C115.325 102.505 114.877 102.958 114.877 103.517C114.877 104.076 115.325 104.529 115.878 104.529Z" fill="white"/>
<path d="M130.259 124.859C135.941 124.167 140.167 119.214 140.009 113.43C139.851 107.647 135.362 102.937 129.651 102.562C128.936 102.516 128.219 102.541 127.509 102.638V102.638C126.577 102.726 125.663 102.959 124.801 103.328C123.819 103.73 123.171 104.687 123.155 105.758C123.155 107.2 124.31 108.37 125.737 108.373C126.168 108.299 126.592 108.189 127.004 108.042C127.754 107.776 128.55 107.667 129.342 107.72C132.145 107.898 134.447 110.025 134.872 112.831C135.298 115.637 133.732 118.364 131.111 119.382C128.489 120.4 125.521 119.435 123.978 117.063V117.063C122.79 115.483 123.043 112.968 123.043 112.93C122.996 111.64 122.025 110.577 120.756 110.428C119.487 110.279 118.301 111.089 117.963 112.335C117.911 112.647 117.886 112.963 117.888 113.28C117.64 119.362 122.248 124.528 128.257 124.906C128.918 124.957 129.583 124.941 130.24 124.859" fill="white"/>
<path d="M118.524 109.583C119.542 109.583 120.367 108.749 120.367 107.72C120.367 106.691 119.542 105.857 118.524 105.857C117.507 105.857 116.682 106.691 116.682 107.72C116.682 108.749 117.507 109.583 118.524 109.583Z" fill="white"/>
<path d="M364.484 137.993C377.516 137.993 388.08 127.314 388.08 114.141C388.08 100.968 377.516 90.2886 364.484 90.2886C351.453 90.2886 340.889 100.968 340.889 114.141C340.889 127.314 351.453 137.993 364.484 137.993Z" fill="url(#paint3_linear)"/>
<path d="M354.99 105.21C355.84 105.21 356.529 104.513 356.529 103.654C356.529 102.795 355.84 102.099 354.99 102.099C354.14 102.099 353.451 102.795 353.451 103.654C353.451 104.513 354.14 105.21 354.99 105.21Z" fill="white"/>
<path d="M350.134 104.292C350.733 104.292 351.219 103.801 351.219 103.196C351.219 102.59 350.733 102.099 350.134 102.099C349.535 102.099 349.049 102.59 349.049 103.196C349.049 103.801 349.535 104.292 350.134 104.292Z" fill="white"/>
<path d="M365.686 126.273C369.972 125.782 373.666 123.001 375.357 118.99C377.049 114.98 376.477 110.359 373.86 106.894C371.243 103.428 366.985 101.653 362.712 102.245V102.245C361.705 102.341 360.719 102.593 359.788 102.992C358.725 103.426 358.023 104.462 358.006 105.621C358.006 107.188 359.263 108.458 360.813 108.458C361.277 108.378 361.734 108.258 362.178 108.098C365.353 106.983 368.843 108.515 370.204 111.621C371.565 114.727 370.343 118.369 367.394 119.997C364.444 121.624 360.753 120.694 358.904 117.857V117.857C357.623 116.15 357.913 113.427 357.913 113.389C357.861 111.997 356.817 110.849 355.45 110.68C354.082 110.511 352.795 111.37 352.413 112.708C352.355 113.047 352.327 113.39 352.329 113.734C352.062 120.315 357.051 125.902 363.553 126.306C364.269 126.359 364.988 126.342 365.7 126.254" fill="white"/>
<path d="M352.996 109.753C354.097 109.753 354.989 108.852 354.989 107.739C354.989 106.627 354.097 105.725 352.996 105.725C351.896 105.725 351.004 106.627 351.004 107.739C351.004 108.852 351.896 109.753 352.996 109.753Z" fill="white"/>
<path d="M288.97 135.629C295.394 135.629 300.601 130.365 300.601 123.871C300.601 117.377 295.394 112.113 288.97 112.113C282.546 112.113 277.338 117.377 277.338 123.871C277.338 130.365 282.546 135.629 288.97 135.629Z" fill="url(#paint4_linear)"/>
<path d="M284.293 119.469C284.711 119.469 285.051 119.126 285.051 118.703C285.051 118.28 284.711 117.937 284.293 117.937C283.874 117.937 283.535 118.28 283.535 118.703C283.535 119.126 283.874 119.469 284.293 119.469Z" fill="white"/>
<path d="M281.898 119.015C282.193 119.015 282.432 118.774 282.432 118.476C282.432 118.179 282.193 117.937 281.898 117.937C281.604 117.937 281.365 118.179 281.365 118.476C281.365 118.774 281.604 119.015 281.898 119.015Z" fill="white"/>
<path d="M289.564 129.851C292.59 129.479 294.839 126.841 294.755 123.76C294.672 120.679 292.283 118.169 289.241 117.966C288.859 117.942 288.475 117.956 288.095 118.008V118.008C287.599 118.056 287.113 118.181 286.655 118.377C286.13 118.59 285.783 119.101 285.775 119.672C285.79 120.435 286.4 121.05 287.155 121.062C287.384 121.022 287.609 120.963 287.829 120.887C288.227 120.745 288.651 120.687 289.073 120.717C290.158 120.786 291.133 121.41 291.659 122.372C291.956 122.907 292.093 123.518 292.052 124.131C291.963 125.511 291.013 126.68 289.69 127.035C288.367 127.389 286.969 126.85 286.215 125.696V125.696C285.584 124.854 285.747 123.516 285.747 123.492C285.72 122.806 285.202 122.242 284.527 122.163C283.852 122.084 283.221 122.514 283.039 123.176C283.009 123.343 282.995 123.512 282.997 123.682C282.866 126.923 285.322 129.677 288.525 129.88C288.878 129.906 289.232 129.896 289.582 129.851" fill="white"/>
<path d="M283.304 121.71C283.847 121.71 284.287 121.266 284.287 120.717C284.287 120.169 283.847 119.724 283.304 119.724C282.762 119.724 282.322 120.169 282.322 120.717C282.322 121.266 282.762 121.71 283.304 121.71Z" fill="white"/>
<defs>
<linearGradient id="paint0_linear" x1="150.908" y1="0" x2="150.908" y2="132.39" gradientUnits="userSpaceOnUse">
<stop stop-color="#8C61E1"/>
<stop offset="1" stop-color="#5F45BA"/>
</linearGradient>
<linearGradient id="paint1_linear" x1="15.2207" y1="60.2239" x2="15.2207" y2="138.537" gradientUnits="userSpaceOnUse">
<stop stop-color="#8C61E1"/>
<stop offset="1" stop-color="#5F45BA"/>
</linearGradient>
<linearGradient id="paint2_linear" x1="107.324" y1="91.5792" x2="107.324" y2="135.7" gradientUnits="userSpaceOnUse">
<stop stop-color="#8C61E1"/>
<stop offset="1" stop-color="#5F45BA"/>
</linearGradient>
<linearGradient id="paint3_linear" x1="340.889" y1="90.2886" x2="340.889" y2="137.993" gradientUnits="userSpaceOnUse">
<stop stop-color="#8C61E1"/>
<stop offset="1" stop-color="#5F45BA"/>
</linearGradient>
<linearGradient id="paint4_linear" x1="277.338" y1="112.113" x2="277.338" y2="135.629" gradientUnits="userSpaceOnUse">
<stop stop-color="#8C61E1"/>
<stop offset="1" stop-color="#5F45BA"/>
</linearGradient>
</defs>
</svg>
