<?xml version="1.0" encoding="UTF-8"?>
<svg width="2069px" height="1470px" viewBox="0 0 2069 1470" version="1.1" xmlns="http://www.w3.org/2000/svg" xmlns:xlink="http://www.w3.org/1999/xlink">
	<title>
		TITLE
	</title>
	<defs>
		<filter x="-4.6%" y="-7.1%" width="109.2%" height="113.8%" filterUnits="objectBoundingBox" id="filter-1">
			<feOffset dx="0" dy="12" in="SourceAlpha" result="shadowOffsetOuter1">
			</feOffset>
			<feGaussianBlur stdDeviation="17" in="shadowOffsetOuter1" result="shadowBlurOuter1">
			</feGaussianBlur>
			<feColorMatrix values="0 0 0 0 0   0 0 0 0 0   0 0 0 0 0  0 0 0 0.5 0" type="matrix" in="shadowBlurOuter1" result="shadowMatrixOuter1">
			</feColorMatrix>
			<feMerge>
				<feMergeNode in="shadowMatrixOuter1">
				</feMergeNode>
				<feMergeNode in="SourceGraphic">
				</feMergeNode>
			</feMerge>
		</filter>
		<path d="M102.205,309 C105.793,309 108.76,307.758 111.106,305.274 C113.452,302.79 114.625,299.754 114.625,296.166 L114.625,296.166 L114.625,198.462 C114.625,194.874 115.867,191.838 118.351,189.354 C120.835,186.87 123.871,185.628 127.459,185.628 L127.459,185.628 L248.347,185.628 C251.935,185.628 254.902,184.386 257.248,181.902 C259.594,179.418 260.767,176.382 260.767,172.794 L260.767,172.794 L260.767,145.056 C260.767,141.468 259.594,138.432 257.248,135.948 C254.902,133.464 251.935,132.222 248.347,132.222 L248.347,132.222 L127.459,132.222 C123.871,132.222 120.835,130.98 118.351,128.496 C115.867,126.012 114.625,122.976 114.625,119.388 L114.625,119.388 L114.625,70.122 C114.625,66.534 115.867,63.498 118.351,61.014 C120.835,58.53 123.871,57.288 127.459,57.288 L127.459,57.288 L266.977,57.288 C270.565,57.288 273.532,56.046 275.878,53.562 C278.224,51.078 279.397,48.042 279.397,44.454 L279.397,44.454 L279.397,18.786 C279.397,15.198 278.224,12.162 275.878,9.678 C273.532,7.194 270.565,5.952 266.977,5.952 L266.977,5.952 L69.499,5.952 C65.911,5.952 62.875,7.194 60.391,9.678 C57.907,12.162 56.665,15.198 56.665,18.786 L56.665,18.786 L56.665,296.166 C56.665,299.754 57.907,302.79 60.391,305.274 C62.875,307.758 65.911,309 69.499,309 L69.499,309 L102.205,309 Z M468.181,314.796 C489.985,314.796 510.409,310.656 529.453,302.376 C548.497,294.096 565.126,282.849 579.34,268.635 C593.554,254.421 604.801,237.792 613.081,218.748 C621.361,199.704 625.501,179.28 625.501,157.476 C625.501,135.948 621.361,115.593 613.081,96.411 C604.801,77.229 593.554,60.531 579.34,46.317 C565.126,32.103 548.497,20.856 529.453,12.576 C510.409,4.296 489.985,0.156 468.181,0.156 C446.653,0.156 426.367,4.296 407.323,12.576 C388.279,20.856 371.65,32.103 357.436,46.317 C343.222,60.531 331.975,77.229 323.695,96.411 C315.415,115.593 311.275,135.948 311.275,157.476 C311.275,179.28 315.415,199.704 323.695,218.748 C331.975,237.792 343.222,254.421 357.436,268.635 C371.65,282.849 388.279,294.096 407.323,302.376 C426.367,310.656 446.653,314.796 468.181,314.796 Z M468.181,260.976 C454.381,260.976 441.478,258.147 429.472,252.489 C417.466,246.831 406.978,239.241 398.008,229.719 C389.038,220.197 381.931,209.226 376.687,196.806 C371.443,184.386 368.821,171.276 368.821,157.476 C368.821,143.952 371.443,130.911 376.687,118.353 C381.931,105.795 389.038,94.824 398.008,85.44 C406.978,76.056 417.466,68.535 429.472,62.877 C441.478,57.219 454.381,54.39 468.181,54.39 C481.981,54.39 494.884,57.219 506.89,62.877 C518.896,68.535 529.384,76.056 538.354,85.44 C547.324,94.824 554.431,105.795 559.675,118.353 C564.919,130.911 567.541,143.952 567.541,157.476 C567.541,171.276 564.919,184.386 559.675,196.806 C554.431,209.226 547.324,220.197 538.354,229.719 C529.384,239.241 518.896,246.831 506.89,252.489 C494.884,258.147 481.981,260.976 468.181,260.976 Z M882.181,309 C885.769,309 888.805,307.758 891.289,305.274 C893.773,302.79 895.015,299.754 895.015,296.166 L895.015,296.166 L895.015,270.498 C895.015,266.91 893.773,263.874 891.289,261.39 C888.805,258.906 885.769,257.664 882.181,257.664 L882.181,257.664 L747.631,257.664 C744.043,257.664 741.007,256.422 738.523,253.938 C736.039,251.454 734.797,248.418 734.797,244.83 L734.797,244.83 L734.797,18.786 C734.797,15.198 733.555,12.162 731.071,9.678 C728.587,7.194 725.551,5.952 721.963,5.952 L721.963,5.952 L689.671,5.952 C686.083,5.952 683.047,7.194 680.563,9.678 C678.079,12.162 676.837,15.198 676.837,18.786 L676.837,18.786 L676.837,296.166 C676.837,299.754 678.079,302.79 680.563,305.274 C683.047,307.758 686.083,309 689.671,309 L689.671,309 L882.181,309 Z M1136.791,309 C1140.379,309 1143.415,307.758 1145.899,305.274 C1148.383,302.79 1149.625,299.754 1149.625,296.166 L1149.625,296.166 L1149.625,270.498 C1149.625,266.91 1148.383,263.874 1145.899,261.39 C1143.415,258.906 1140.379,257.664 1136.791,257.664 L1136.791,257.664 L1002.241,257.664 C998.653,257.664 995.617,256.422 993.133,253.938 C990.649,251.454 989.407,248.418 989.407,244.83 L989.407,244.83 L989.407,18.786 C989.407,15.198 988.165,12.162 985.681,9.678 C983.197,7.194 980.161,5.952 976.573,5.952 L976.573,5.952 L944.281,5.952 C940.693,5.952 937.657,7.194 935.173,9.678 C932.689,12.162 931.447,15.198 931.447,18.786 L931.447,18.786 L931.447,296.166 C931.447,299.754 932.689,302.79 935.173,305.274 C937.657,307.758 940.693,309 944.281,309 L944.281,309 L1136.791,309 Z M1327.645,314.796 C1349.449,314.796 1369.873,310.656 1388.917,302.376 C1407.961,294.096 1424.59,282.849 1438.804,268.635 C1453.018,254.421 1464.265,237.792 1472.545,218.748 C1480.825,199.704 1484.965,179.28 1484.965,157.476 C1484.965,135.948 1480.825,115.593 1472.545,96.411 C1464.265,77.229 1453.018,60.531 1438.804,46.317 C1424.59,32.103 1407.961,20.856 1388.917,12.576 C1369.873,4.296 1349.449,0.156 1327.645,0.156 C1306.117,0.156 1285.831,4.296 1266.787,12.576 C1247.743,20.856 1231.114,32.103 1216.9,46.317 C1202.686,60.531 1191.439,77.229 1183.159,96.411 C1174.879,115.593 1170.739,135.948 1170.739,157.476 C1170.739,179.28 1174.879,199.704 1183.159,218.748 C1191.439,237.792 1202.686,254.421 1216.9,268.635 C1231.114,282.849 1247.743,294.096 1266.787,302.376 C1285.831,310.656 1306.117,314.796 1327.645,314.796 Z M1327.645,260.976 C1313.845,260.976 1300.942,258.147 1288.936,252.489 C1276.93,246.831 1266.442,239.241 1257.472,229.719 C1248.502,220.197 1241.395,209.226 1236.151,196.806 C1230.907,184.386 1228.285,171.276 1228.285,157.476 C1228.285,143.952 1230.907,130.911 1236.151,118.353 C1241.395,105.795 1248.502,94.824 1257.472,85.44 C1266.442,76.056 1276.93,68.535 1288.936,62.877 C1300.942,57.219 1313.845,54.39 1327.645,54.39 C1341.445,54.39 1354.348,57.219 1366.354,62.877 C1378.36,68.535 1388.848,76.056 1397.818,85.44 C1406.788,94.824 1413.895,105.795 1419.139,118.353 C1424.383,130.911 1427.005,143.952 1427.005,157.476 C1427.005,171.276 1424.383,184.386 1419.139,196.806 C1413.895,209.226 1406.788,220.197 1397.818,229.719 C1388.848,239.241 1378.36,246.831 1366.354,252.489 C1354.348,258.147 1341.445,260.976 1327.645,260.976 Z M1792.981,309.414 C1796.569,309.414 1799.053,307.758 1800.433,304.446 L1800.433,304.446 L1904.761,18.372 C1906.141,15.06 1906.003,12.231 1904.347,9.885 C1902.691,7.539 1900.069,6.366 1896.481,6.366 L1896.481,6.366 L1860.463,6.366 C1856.875,6.366 1853.425,7.539 1850.113,9.885 C1846.801,12.231 1844.593,15.06 1843.489,18.372 L1843.489,18.372 L1791.325,160.788 C1790.221,164.1 1788.703,165.756 1786.771,165.756 C1784.839,165.756 1783.183,164.238 1781.803,161.202 L1781.803,161.202 L1715.977,11.334 C1714.597,8.298 1712.044,6.78 1708.318,6.78 C1704.592,6.78 1702.039,8.298 1700.659,11.334 L1700.659,11.334 L1634.833,160.788 C1633.453,163.824 1631.797,165.342 1629.865,165.342 C1627.933,165.342 1626.415,163.686 1625.311,160.374 L1625.311,160.374 L1574.389,18.372 C1573.285,15.06 1571.077,12.231 1567.765,9.885 C1564.453,7.539 1561.003,6.366 1557.415,6.366 L1557.415,6.366 L1521.397,6.366 C1517.809,6.366 1515.187,7.539 1513.531,9.885 C1511.875,12.231 1511.737,15.06 1513.117,18.372 L1513.117,18.372 L1616.203,303.204 C1617.583,306.516 1619.998,308.172 1623.448,308.172 C1626.898,308.172 1629.451,306.654 1631.107,303.618 L1631.107,303.618 L1703.143,144.228 C1704.523,140.916 1706.317,139.26 1708.525,139.26 C1710.733,139.26 1712.527,140.916 1713.907,144.228 L1713.907,144.228 L1785.529,304.86 C1786.909,307.896 1789.393,309.414 1792.981,309.414 Z" id="path-2">
		</path>
		<filter x="-0.9%" y="-4.1%" width="101.8%" height="110.8%" filterUnits="objectBoundingBox" id="filter-3">
			<feOffset dx="0" dy="4" in="SourceAlpha" result="shadowOffsetOuter1">
			</feOffset>
			<feGaussianBlur stdDeviation="5" in="shadowOffsetOuter1" result="shadowBlurOuter1">
			</feGaussianBlur>
			<feColorMatrix values="0 0 0 0 0   0 0 0 0 0   0 0 0 0 0  0 0 0 0.3 0" type="matrix" in="shadowBlurOuter1">
			</feColorMatrix>
		</filter>
		<path d="M127.66,1110 C131.82,1110 135.26,1108.56 137.98,1105.68 C140.7,1102.8 142.06,1099.28 142.06,1095.12 L142.06,1095.12 L142.06,1013.04 C142.06,1008.88 143.5,1005.36 146.38,1002.48 C149.26,999.6 152.78,998.16 156.94,998.16 L156.94,998.16 L193.9,998.16 C198.06,998.16 202.38,999.28 206.86,1001.52 C211.34,1003.76 214.86,1006.64 217.42,1010.16 L217.42,1010.16 L249.1,1054.8 C254.54,1062.16 259.9,1069.44 265.18,1076.64 C270.46,1083.84 275.82,1091.12 281.26,1098.48 C283.82,1101.68 287.34,1104.4 291.82,1106.64 C296.3,1108.88 300.62,1110 304.78,1110 L304.78,1110 L353.26,1110 C357.42,1110 360.06,1108.24 361.18,1104.72 C362.3,1101.2 361.58,1097.68 359.02,1094.16 C347.5,1078.16 336.38,1063.04 325.66,1048.8 C314.94,1034.56 303.66,1019.44 291.82,1003.44 C289.26,1000.24 288.46,996.96 289.42,993.6 C290.38,990.24 292.62,987.6 296.14,985.68 C312.46,976.72 325.74,964.56 335.98,949.2 C349.1,930 355.66,906.8 355.66,879.6 C355.66,862 352.78,845.68 347.02,830.64 C344.14,823.28 340.62,816.4 336.46,810 C332.3,803.6 327.5,797.68 322.06,792.24 C311.5,782 298.86,773.68 284.14,767.28 C269.1,761.52 252.62,758.64 234.7,758.64 L234.7,758.64 L89.74,758.64 C85.58,758.64 82.06,760.08 79.18,762.96 C76.3,765.84 74.86,769.36 74.86,773.52 L74.86,773.52 L74.86,1095.12 C74.86,1099.28 76.3,1102.8 79.18,1105.68 C82.06,1108.56 85.58,1110 89.74,1110 L89.74,1110 L127.66,1110 Z M234.7,938.64 L156.94,938.64 C152.78,938.64 149.26,937.2 146.38,934.32 C143.5,931.44 142.06,927.92 142.06,923.76 L142.06,923.76 L142.06,833.04 C142.06,828.88 143.5,825.36 146.38,822.48 C149.26,819.6 152.78,818.16 156.94,818.16 L156.94,818.16 L234.7,818.16 C246.22,818.16 255.66,820.4 263.02,824.88 C270.06,829.36 275.5,834.8 279.34,841.2 C280.94,844.4 282.38,847.68 283.66,851.04 C284.94,854.4 285.9,857.84 286.54,861.36 C287.82,867.76 288.46,873.84 288.46,879.6 C288.46,890.16 286.86,898.8 283.66,905.52 C280.14,912.88 275.98,918.96 271.18,923.76 C266.38,928.56 260.46,932.24 253.42,934.8 C246.7,937.36 240.46,938.64 234.7,938.64 L234.7,938.64 Z M443.5,1110 C447.66,1110 451.74,1108.72 455.74,1106.16 C459.74,1103.6 462.7,1100.4 464.62,1096.56 L464.62,1096.56 L478.54,1068.24 C480.14,1064.4 483.02,1061.2 487.18,1058.64 C491.34,1056.08 495.5,1054.8 499.66,1054.8 L499.66,1054.8 L635.98,1054.8 C640.14,1054.8 644.22,1056.08 648.22,1058.64 C652.22,1061.2 655.18,1064.24 657.1,1067.76 L657.1,1067.76 L671.5,1096.56 C673.1,1100.4 675.98,1103.6 680.14,1106.16 C684.3,1108.72 688.46,1110 692.62,1110 L692.62,1110 L736.3,1110 C740.46,1110 743.26,1108.72 744.7,1106.16 C746.14,1103.6 745.9,1100.56 743.98,1097.04 L743.98,1097.04 L577.42,764.4 C575.5,760.56 572.3,758.64 567.82,758.64 C563.34,758.64 560.14,760.56 558.22,764.4 L558.22,764.4 L391.66,1097.04 C390.06,1100.56 389.98,1103.6 391.42,1106.16 C392.86,1108.72 395.66,1110 399.82,1110 L399.82,1110 L443.5,1110 Z M603.34,996.24 L532.3,996.24 C528.14,996.24 525.26,994.96 523.66,992.4 C522.06,989.84 522.06,986.64 523.66,982.8 L523.66,982.8 L561.58,903.6 C563.18,899.76 565.26,897.84 567.82,897.84 C570.38,897.84 572.46,899.76 574.06,903.6 L574.06,903.6 L611.5,982.8 C613.1,986.32 613.18,989.44 611.74,992.16 C610.3,994.88 607.5,996.24 603.34,996.24 L603.34,996.24 Z M954.22,1110 C961.9,1110 969.26,1109.52 976.3,1108.56 C983.34,1107.6 990.22,1106.32 996.94,1104.72 C1010.38,1101.52 1021.9,1095.76 1031.5,1087.44 C1041.1,1079.76 1048.94,1069.04 1055.02,1055.28 C1060.78,1041.84 1063.66,1025.52 1063.66,1006.32 C1063.66,995.44 1061.58,985.36 1057.42,976.08 C1053.26,966.48 1047.66,958 1040.62,950.64 C1033.9,942.96 1026.38,937.04 1018.06,932.88 C1014.22,931.28 1010.06,929.68 1005.58,928.08 C1002.06,927.12 1000.14,926.4 999.82,925.92 C999.5,925.44 1000.94,924.72 1004.14,923.76 C1008.3,922.16 1011.98,920.24 1015.18,918 C1022.54,913.52 1028.62,907.92 1033.42,901.2 C1037.9,894.8 1041.74,887.44 1044.94,879.12 C1047.82,871.12 1049.26,863.44 1049.26,856.08 C1049.26,835.6 1046.54,819.44 1041.1,807.6 C1035.98,794.8 1028.62,784.88 1019.02,777.84 C1010.38,770.8 999.5,765.68 986.38,762.48 C979.98,761.2 973.58,760.24 967.18,759.6 C960.78,758.96 953.9,758.64 946.54,758.64 L946.54,758.64 L806.86,758.64 C802.7,758.64 799.18,760.08 796.3,762.96 C793.42,765.84 791.98,769.36 791.98,773.52 L791.98,773.52 L791.98,1095.12 C791.98,1099.28 793.42,1102.8 796.3,1105.68 C799.18,1108.56 802.7,1110 806.86,1110 L806.86,1110 L954.22,1110 Z M941.74,901.68 L874.06,901.68 C869.9,901.68 866.38,900.24 863.5,897.36 C860.62,894.48 859.18,890.96 859.18,886.8 L859.18,886.8 L859.18,833.04 C859.18,828.88 860.62,825.36 863.5,822.48 C866.38,819.6 869.9,818.16 874.06,818.16 L874.06,818.16 L946.54,818.16 C951.66,818.16 956.3,819.28 960.46,821.52 C964.94,824.08 968.62,826.96 971.5,830.16 C974.38,833.04 976.94,837.2 979.18,842.64 C981.1,847.44 982.06,852.4 982.06,857.52 C982.06,863.6 981.26,868.88 979.66,873.36 C977.74,879.12 975.18,883.92 971.98,887.76 C968.14,892.24 963.98,895.6 959.5,897.84 C954.38,900.4 948.46,901.68 941.74,901.68 L941.74,901.68 Z M954.22,1050.48 L874.06,1050.48 C869.9,1050.48 866.38,1049.04 863.5,1046.16 C860.62,1043.28 859.18,1039.76 859.18,1035.6 L859.18,1035.6 L859.18,976.08 C859.18,971.92 860.62,968.4 863.5,965.52 C866.38,962.64 869.9,961.2 874.06,961.2 L874.06,961.2 L947.02,961.2 C963.02,961.2 975.18,965.2 983.5,973.2 C992.14,981.52 996.46,991.44 996.46,1002.96 C996.46,1009.36 995.34,1014.96 993.1,1019.76 C991.18,1025.2 988.14,1030.32 983.98,1035.12 C979.82,1040.24 975.34,1043.92 970.54,1046.16 C965.74,1049.04 960.3,1050.48 954.22,1050.48 L954.22,1050.48 Z M1287.82,1110 C1295.5,1110 1302.86,1109.52 1309.9,1108.56 C1316.94,1107.6 1323.82,1106.32 1330.54,1104.72 C1343.98,1101.52 1355.5,1095.76 1365.1,1087.44 C1374.7,1079.76 1382.54,1069.04 1388.62,1055.28 C1394.38,1041.84 1397.26,1025.52 1397.26,1006.32 C1397.26,995.44 1395.18,985.36 1391.02,976.08 C1386.86,966.48 1381.26,958 1374.22,950.64 C1367.5,942.96 1359.98,937.04 1351.66,932.88 C1347.82,931.28 1343.66,929.68 1339.18,928.08 C1335.66,927.12 1333.74,926.4 1333.42,925.92 C1333.1,925.44 1334.54,924.72 1337.74,923.76 C1341.9,922.16 1345.58,920.24 1348.78,918 C1356.14,913.52 1362.22,907.92 1367.02,901.2 C1371.5,894.8 1375.34,887.44 1378.54,879.12 C1381.42,871.12 1382.86,863.44 1382.86,856.08 C1382.86,835.6 1380.14,819.44 1374.7,807.6 C1369.58,794.8 1362.22,784.88 1352.62,777.84 C1343.98,770.8 1333.1,765.68 1319.98,762.48 C1313.58,761.2 1307.18,760.24 1300.78,759.6 C1294.38,758.96 1287.5,758.64 1280.14,758.64 L1280.14,758.64 L1140.46,758.64 C1136.3,758.64 1132.78,760.08 1129.9,762.96 C1127.02,765.84 1125.58,769.36 1125.58,773.52 L1125.58,773.52 L1125.58,1095.12 C1125.58,1099.28 1127.02,1102.8 1129.9,1105.68 C1132.78,1108.56 1136.3,1110 1140.46,1110 L1140.46,1110 L1287.82,1110 Z M1275.34,901.68 L1207.66,901.68 C1203.5,901.68 1199.98,900.24 1197.1,897.36 C1194.22,894.48 1192.78,890.96 1192.78,886.8 L1192.78,886.8 L1192.78,833.04 C1192.78,828.88 1194.22,825.36 1197.1,822.48 C1199.98,819.6 1203.5,818.16 1207.66,818.16 L1207.66,818.16 L1280.14,818.16 C1285.26,818.16 1289.9,819.28 1294.06,821.52 C1298.54,824.08 1302.22,826.96 1305.1,830.16 C1307.98,833.04 1310.54,837.2 1312.78,842.64 C1314.7,847.44 1315.66,852.4 1315.66,857.52 C1315.66,863.6 1314.86,868.88 1313.26,873.36 C1311.34,879.12 1308.78,883.92 1305.58,887.76 C1301.74,892.24 1297.58,895.6 1293.1,897.84 C1287.98,900.4 1282.06,901.68 1275.34,901.68 L1275.34,901.68 Z M1287.82,1050.48 L1207.66,1050.48 C1203.5,1050.48 1199.98,1049.04 1197.1,1046.16 C1194.22,1043.28 1192.78,1039.76 1192.78,1035.6 L1192.78,1035.6 L1192.78,976.08 C1192.78,971.92 1194.22,968.4 1197.1,965.52 C1199.98,962.64 1203.5,961.2 1207.66,961.2 L1207.66,961.2 L1280.62,961.2 C1296.62,961.2 1308.78,965.2 1317.1,973.2 C1325.74,981.52 1330.06,991.44 1330.06,1002.96 C1330.06,1009.36 1328.94,1014.96 1326.7,1019.76 C1324.78,1025.2 1321.74,1030.32 1317.58,1035.12 C1313.42,1040.24 1308.94,1043.92 1304.14,1046.16 C1299.34,1049.04 1293.9,1050.48 1287.82,1050.48 L1287.82,1050.48 Z M1521.1,1110 C1525.26,1110 1528.78,1108.56 1531.66,1105.68 C1534.54,1102.8 1535.98,1099.28 1535.98,1095.12 L1535.98,1095.12 L1535.98,774 C1535.98,769.84 1534.54,766.32 1531.66,763.44 C1528.78,760.56 1525.26,759.12 1521.1,759.12 L1521.1,759.12 L1483.18,759.12 C1479.02,759.12 1475.58,760.56 1472.86,763.44 C1470.14,766.32 1468.78,769.84 1468.78,774 L1468.78,774 L1468.78,1095.12 C1468.78,1099.28 1470.14,1102.8 1472.86,1105.68 C1475.58,1108.56 1479.02,1110 1483.18,1110 L1483.18,1110 L1521.1,1110 Z M1759.66,1110 C1763.82,1110 1767.34,1108.56 1770.22,1105.68 C1773.1,1102.8 1774.54,1099.28 1774.54,1095.12 L1774.54,1095.12 L1774.54,833.04 C1774.54,828.88 1775.98,825.36 1778.86,822.48 C1781.74,819.6 1785.26,818.16 1789.42,818.16 L1789.42,818.16 L1859.98,818.16 C1864.14,818.16 1867.66,816.72 1870.54,813.84 C1873.42,810.96 1874.86,807.44 1874.86,803.28 L1874.86,803.28 L1874.86,773.52 C1874.86,769.36 1873.42,765.84 1870.54,762.96 C1867.66,760.08 1864.14,758.64 1859.98,758.64 L1859.98,758.64 L1621.42,758.64 C1617.26,758.64 1613.74,760.08 1610.86,762.96 C1607.98,765.84 1606.54,769.36 1606.54,773.52 L1606.54,773.52 L1606.54,803.28 C1606.54,807.44 1607.98,810.96 1610.86,813.84 C1613.74,816.72 1617.26,818.16 1621.42,818.16 L1621.42,818.16 L1692.46,818.16 C1696.62,818.16 1700.14,819.6 1703.02,822.48 C1705.9,825.36 1707.34,828.88 1707.34,833.04 L1707.34,833.04 L1707.34,1095.12 C1707.34,1099.28 1708.78,1102.8 1711.66,1105.68 C1714.54,1108.56 1718.06,1110 1722.22,1110 L1722.22,1110 L1759.66,1110 Z" id="path-4">
		</path>
		<filter x="-0.9%" y="-3.7%" width="101.9%" height="109.7%" filterUnits="objectBoundingBox" id="filter-5">
			<feOffset dx="0" dy="4" in="SourceAlpha" result="shadowOffsetOuter1">
			</feOffset>
			<feGaussianBlur stdDeviation="5" in="shadowOffsetOuter1" result="shadowBlurOuter1">
			</feGaussianBlur>
			<feColorMatrix values="0 0 0 0 0   0 0 0 0 0   0 0 0 0 0  0 0 0 0.3 0" type="matrix" in="shadowBlurOuter1">
			</feColorMatrix>
		</filter>
		<path d="M155.793,656 C158.514333,656 160.817,655.058 162.701,653.174 C164.585,651.29 165.527,648.987333 165.527,646.266 L165.527,646.266 L165.527,474.822 C165.527,472.100667 166.469,469.798 168.353,467.914 C170.237,466.03 172.539667,465.088 175.261,465.088 L175.261,465.088 L221.419,465.088 C224.140333,465.088 226.443,464.146 228.327,462.262 C230.211,460.378 231.153,458.075333 231.153,455.354 L231.153,455.354 L231.153,435.886 C231.153,433.164667 230.211,430.862 228.327,428.978 C226.443,427.094 224.140333,426.152 221.419,426.152 L221.419,426.152 L65.361,426.152 C62.6396667,426.152 60.337,427.094 58.453,428.978 C56.569,430.862 55.627,433.164667 55.627,435.886 L55.627,435.886 L55.627,455.354 C55.627,458.075333 56.569,460.378 58.453,462.262 C60.337,464.146 62.6396667,465.088 65.361,465.088 L65.361,465.088 L111.833,465.088 C114.554333,465.088 116.857,466.03 118.741,467.914 C120.625,469.798 121.567,472.100667 121.567,474.822 L121.567,474.822 L121.567,646.266 C121.567,648.987333 122.509,651.29 124.393,653.174 C126.277,655.058 128.579667,656 131.301,656 L131.301,656 L155.793,656 Z M295.209,656 C297.930333,656 300.233,655.058 302.117,653.174 C304.001,651.29 304.943,648.987333 304.943,646.266 L304.943,646.266 L304.943,574.36 C304.943,571.638667 305.885,569.336 307.769,567.452 C309.653,565.568 311.955667,564.626 314.677,564.626 L314.677,564.626 L408.563,564.626 C411.284333,564.626 413.587,565.568 415.471,567.452 C417.355,569.336 418.297,571.638667 418.297,574.36 L418.297,574.36 L418.297,646.266 C418.297,648.987333 419.239,651.29 421.123,653.174 C423.007,655.058 425.309667,656 428.031,656 L428.031,656 L452.523,656 C455.244333,656 457.547,655.058 459.431,653.174 C461.315,651.29 462.257,648.987333 462.257,646.266 L462.257,646.266 L462.257,435.886 C462.257,433.164667 461.315,430.862 459.431,428.978 C457.547,427.094 455.244333,426.152 452.523,426.152 L452.523,426.152 L428.031,426.152 C425.309667,426.152 423.007,427.094 421.123,428.978 C419.239,430.862 418.297,433.164667 418.297,435.886 L418.297,435.886 L418.297,515.956 C418.297,518.677333 417.355,520.98 415.471,522.864 C413.587,524.748 411.284333,525.69 408.563,525.69 L408.563,525.69 L314.677,525.69 C311.955667,525.69 309.653,524.748 307.769,522.864 C305.885,520.98 304.943,518.677333 304.943,515.956 L304.943,515.956 L304.943,435.886 C304.943,433.164667 304.001,430.862 302.117,428.978 C300.233,427.094 297.930333,426.152 295.209,426.152 L295.209,426.152 L270.717,426.152 C267.995667,426.152 265.693,427.094 263.809,428.978 C261.925,430.862 260.983,433.164667 260.983,435.886 L260.983,435.886 L260.983,646.266 C260.983,648.987333 261.925,651.29 263.809,653.174 C265.693,655.058 267.995667,656 270.717,656 L270.717,656 L295.209,656 Z M672.009,656 C674.730333,656 677.033,655.058 678.917,653.174 C680.801,651.29 681.743,648.987333 681.743,646.266 L681.743,646.266 L681.743,626.17 C681.743,623.448667 680.801,621.146 678.917,619.262 C677.033,617.378 674.730333,616.436 672.009,616.436 L672.009,616.436 L566.191,616.436 C563.469667,616.436 561.167,615.494 559.283,613.61 C557.399,611.726 556.457,609.423333 556.457,606.702 L556.457,606.702 L556.457,572.162 C556.457,569.440667 557.399,567.138 559.283,565.254 C561.167,563.37 563.469667,562.428 566.191,562.428 L566.191,562.428 L657.879,562.428 C660.600333,562.428 662.903,561.486 664.787,559.602 C666.671,557.718 667.613,555.415333 667.613,552.694 L667.613,552.694 L667.613,532.284 C667.613,529.562667 666.671,527.26 664.787,525.376 C662.903,523.492 660.600333,522.55 657.879,522.55 L657.879,522.55 L566.191,522.55 C563.469667,522.55 561.167,521.608 559.283,519.724 C557.399,517.84 556.457,515.537333 556.457,512.816 L556.457,512.816 L556.457,474.822 C556.457,472.100667 557.399,469.798 559.283,467.914 C561.167,466.03 563.469667,465.088 566.191,465.088 L566.191,465.088 L672.009,465.088 C674.730333,465.088 677.033,464.146 678.917,462.262 C680.801,460.378 681.743,458.075333 681.743,455.354 L681.743,455.354 L681.743,435.886 C681.743,433.164667 680.801,430.862 678.917,428.978 C677.033,427.094 674.730333,426.152 672.009,426.152 L672.009,426.152 L522.231,426.152 C519.509667,426.152 517.207,427.094 515.323,428.978 C513.439,430.862 512.497,433.164667 512.497,435.886 L512.497,435.886 L512.497,646.266 C512.497,648.987333 513.439,651.29 515.323,653.174 C517.207,655.058 519.509667,656 522.231,656 L522.231,656 L672.009,656 Z M1029.027,656.314 C1031.74833,656.314 1033.63233,655.058 1034.679,652.546 L1034.679,652.546 L1113.807,435.572 C1114.85367,433.06 1114.749,430.914333 1113.493,429.135 C1112.237,427.355667 1110.24833,426.466 1107.527,426.466 L1107.527,426.466 L1080.209,426.466 C1077.48767,426.466 1074.871,427.355667 1072.359,429.135 C1069.847,430.914333 1068.17233,433.06 1067.335,435.572 L1067.335,435.572 L1027.771,543.588 C1026.93367,546.1 1025.78233,547.356 1024.317,547.356 C1022.85167,547.356 1021.59567,546.204667 1020.549,543.902 L1020.549,543.902 L970.623,430.234 C969.576333,427.931333 967.64,426.78 964.814,426.78 C961.988,426.78 960.051667,427.931333 959.005,430.234 L959.005,430.234 L909.079,543.588 C908.032333,545.890667 906.776333,547.042 905.311,547.042 C903.845667,547.042 902.694333,545.786 901.857,543.274 L901.857,543.274 L863.235,435.572 C862.397667,433.06 860.723,430.914333 858.211,429.135 C855.699,427.355667 853.082333,426.466 850.361,426.466 L850.361,426.466 L823.043,426.466 C820.321667,426.466 818.333,427.355667 817.077,429.135 C815.821,430.914333 815.716333,433.06 816.763,435.572 L816.763,435.572 L894.949,651.604 C895.995667,654.116 897.827333,655.372 900.444,655.372 C903.060667,655.372 904.997,654.220667 906.253,651.918 L906.253,651.918 L960.889,531.028 C961.935667,528.516 963.296333,527.26 964.971,527.26 C966.645667,527.26 968.006333,528.516 969.053,531.028 L969.053,531.028 L1023.375,652.86 C1024.42167,655.162667 1026.30567,656.314 1029.027,656.314 Z M1179.433,656 C1182.15433,656 1184.457,655.058 1186.341,653.174 C1188.225,651.29 1189.167,648.987333 1189.167,646.266 L1189.167,646.266 L1189.167,574.36 C1189.167,571.638667 1190.109,569.336 1191.993,567.452 C1193.877,565.568 1196.17967,564.626 1198.901,564.626 L1198.901,564.626 L1292.787,564.626 C1295.50833,564.626 1297.811,565.568 1299.695,567.452 C1301.579,569.336 1302.521,571.638667 1302.521,574.36 L1302.521,574.36 L1302.521,646.266 C1302.521,648.987333 1303.463,651.29 1305.347,653.174 C1307.231,655.058 1309.53367,656 1312.255,656 L1312.255,656 L1336.747,656 C1339.46833,656 1341.771,655.058 1343.655,653.174 C1345.539,651.29 1346.481,648.987333 1346.481,646.266 L1346.481,646.266 L1346.481,435.886 C1346.481,433.164667 1345.539,430.862 1343.655,428.978 C1341.771,427.094 1339.46833,426.152 1336.747,426.152 L1336.747,426.152 L1312.255,426.152 C1309.53367,426.152 1307.231,427.094 1305.347,428.978 C1303.463,430.862 1302.521,433.164667 1302.521,435.886 L1302.521,435.886 L1302.521,515.956 C1302.521,518.677333 1301.579,520.98 1299.695,522.864 C1297.811,524.748 1295.50833,525.69 1292.787,525.69 L1292.787,525.69 L1198.901,525.69 C1196.17967,525.69 1193.877,524.748 1191.993,522.864 C1190.109,520.98 1189.167,518.677333 1189.167,515.956 L1189.167,515.956 L1189.167,435.886 C1189.167,433.164667 1188.225,430.862 1186.341,428.978 C1184.457,427.094 1182.15433,426.152 1179.433,426.152 L1179.433,426.152 L1154.941,426.152 C1152.21967,426.152 1149.917,427.094 1148.033,428.978 C1146.149,430.862 1145.207,433.164667 1145.207,435.886 L1145.207,435.886 L1145.207,646.266 C1145.207,648.987333 1146.149,651.29 1148.033,653.174 C1149.917,655.058 1152.21967,656 1154.941,656 L1154.941,656 L1179.433,656 Z M1437.227,656 C1439.94833,656 1442.251,655.058 1444.135,653.174 C1446.019,651.29 1446.961,648.987333 1446.961,646.266 L1446.961,646.266 L1446.961,436.2 C1446.961,433.478667 1446.019,431.176 1444.135,429.292 C1442.251,427.408 1439.94833,426.466 1437.227,426.466 L1437.227,426.466 L1412.421,426.466 C1409.69967,426.466 1407.44933,427.408 1405.67,429.292 C1403.89067,431.176 1403.001,433.478667 1403.001,436.2 L1403.001,436.2 L1403.001,646.266 C1403.001,648.987333 1403.89067,651.29 1405.67,653.174 C1407.44933,655.058 1409.69967,656 1412.421,656 L1412.421,656 L1437.227,656 Z M1593.285,656 C1596.00633,656 1598.309,655.058 1600.193,653.174 C1602.077,651.29 1603.019,648.987333 1603.019,646.266 L1603.019,646.266 L1603.019,474.822 C1603.019,472.100667 1603.961,469.798 1605.845,467.914 C1607.729,466.03 1610.03167,465.088 1612.753,465.088 L1612.753,465.088 L1658.911,465.088 C1661.63233,465.088 1663.935,464.146 1665.819,462.262 C1667.703,460.378 1668.645,458.075333 1668.645,455.354 L1668.645,455.354 L1668.645,435.886 C1668.645,433.164667 1667.703,430.862 1665.819,428.978 C1663.935,427.094 1661.63233,426.152 1658.911,426.152 L1658.911,426.152 L1502.853,426.152 C1500.13167,426.152 1497.829,427.094 1495.945,428.978 C1494.061,430.862 1493.119,433.164667 1493.119,435.886 L1493.119,435.886 L1493.119,455.354 C1493.119,458.075333 1494.061,460.378 1495.945,462.262 C1497.829,464.146 1500.13167,465.088 1502.853,465.088 L1502.853,465.088 L1549.325,465.088 C1552.04633,465.088 1554.349,466.03 1556.233,467.914 C1558.117,469.798 1559.059,472.100667 1559.059,474.822 L1559.059,474.822 L1559.059,646.266 C1559.059,648.987333 1560.001,651.29 1561.885,653.174 C1563.769,655.058 1566.07167,656 1568.793,656 L1568.793,656 L1593.285,656 Z M1858.301,656 C1861.02233,656 1863.325,655.058 1865.209,653.174 C1867.093,651.29 1868.035,648.987333 1868.035,646.266 L1868.035,646.266 L1868.035,626.17 C1868.035,623.448667 1867.093,621.146 1865.209,619.262 C1863.325,617.378 1861.02233,616.436 1858.301,616.436 L1858.301,616.436 L1752.483,616.436 C1749.76167,616.436 1747.459,615.494 1745.575,613.61 C1743.691,611.726 1742.749,609.423333 1742.749,606.702 L1742.749,606.702 L1742.749,572.162 C1742.749,569.440667 1743.691,567.138 1745.575,565.254 C1747.459,563.37 1749.76167,562.428 1752.483,562.428 L1752.483,562.428 L1844.171,562.428 C1846.89233,562.428 1849.195,561.486 1851.079,559.602 C1852.963,557.718 1853.905,555.415333 1853.905,552.694 L1853.905,552.694 L1853.905,532.284 C1853.905,529.562667 1852.963,527.26 1851.079,525.376 C1849.195,523.492 1846.89233,522.55 1844.171,522.55 L1844.171,522.55 L1752.483,522.55 C1749.76167,522.55 1747.459,521.608 1745.575,519.724 C1743.691,517.84 1742.749,515.537333 1742.749,512.816 L1742.749,512.816 L1742.749,474.822 C1742.749,472.100667 1743.691,469.798 1745.575,467.914 C1747.459,466.03 1749.76167,465.088 1752.483,465.088 L1752.483,465.088 L1858.301,465.088 C1861.02233,465.088 1863.325,464.146 1865.209,462.262 C1867.093,460.378 1868.035,458.075333 1868.035,455.354 L1868.035,455.354 L1868.035,435.886 C1868.035,433.164667 1867.093,430.862 1865.209,428.978 C1863.325,427.094 1861.02233,426.152 1858.301,426.152 L1858.301,426.152 L1708.523,426.152 C1705.80167,426.152 1703.499,427.094 1701.615,428.978 C1699.731,430.862 1698.789,433.164667 1698.789,435.886 L1698.789,435.886 L1698.789,646.266 C1698.789,648.987333 1699.731,651.29 1701.615,653.174 C1703.499,655.058 1705.80167,656 1708.523,656 L1708.523,656 L1858.301,656 Z" id="path-6">
		</path>
		<filter x="-0.9%" y="-5.6%" width="101.9%" height="114.8%" filterUnits="objectBoundingBox" id="filter-7">
			<feOffset dx="0" dy="4" in="SourceAlpha" result="shadowOffsetOuter1">
			</feOffset>
			<feGaussianBlur stdDeviation="5" in="shadowOffsetOuter1" result="shadowBlurOuter1">
			</feGaussianBlur>
			<feColorMatrix values="0 0 0 0 0   0 0 0 0 0   0 0 0 0 0  0 0 0 0.3 0" type="matrix" in="shadowBlurOuter1">
			</feColorMatrix>
		</filter>
	</defs>
	<g id="Page-1" stroke="none" stroke-width="1" fill="none" fill-rule="evenodd">
		<g id="TITLE" filter="url(#filter-1)" transform="translate(66.000000, 72.000000)" fill-rule="nonzero">
			<g id="FOLLOW">
				<use fill="black" fill-opacity="1" filter="url(#filter-3)" xlink:href="#path-2">
				</use>
				<use fill="#FFFFFF" xlink:href="#path-2">
				</use>
			</g>
			<g id="RABBIT">
				<use fill="black" fill-opacity="1" filter="url(#filter-5)" xlink:href="#path-4">
				</use>
				<use fill="#FFFFFF" xlink:href="#path-4">
				</use>
			</g>
			<g id="THEWHITE">
				<use fill="black" fill-opacity="1" filter="url(#filter-7)" xlink:href="#path-6">
				</use>
				<use fill="#FFFFFF" xlink:href="#path-6">
				</use>
			</g>
			<path d="M160.308,1300.128 C161.417333,1300.128 162.185333,1299.616 162.612,1298.592 L162.612,1298.592 L194.868,1210.144 C195.294667,1209.12 195.252,1208.24533 194.74,1207.52 C194.228,1206.79467 193.417333,1206.432 192.308,1206.432 L192.308,1206.432 L181.172,1206.432 C180.062667,1206.432 178.996,1206.79467 177.972,1207.52 C176.948,1208.24533 176.265333,1209.12 175.924,1210.144 L175.924,1210.144 L159.796,1254.176 C159.454667,1255.2 158.985333,1255.712 158.388,1255.712 C157.790667,1255.712 157.278667,1255.24267 156.852,1254.304 L156.852,1254.304 L136.5,1207.968 C136.073333,1207.02933 135.284,1206.56 134.132,1206.56 C132.98,1206.56 132.190667,1207.02933 131.764,1207.968 L131.764,1207.968 L111.412,1254.176 C110.985333,1255.11467 110.473333,1255.584 109.876,1255.584 C109.278667,1255.584 108.809333,1255.072 108.468,1254.048 L108.468,1254.048 L92.724,1210.144 C92.3826667,1209.12 91.7,1208.24533 90.676,1207.52 C89.652,1206.79467 88.5853333,1206.432 87.476,1206.432 L87.476,1206.432 L76.34,1206.432 C75.2306667,1206.432 74.42,1206.79467 73.908,1207.52 C73.396,1208.24533 73.3533333,1209.12 73.78,1210.144 L73.78,1210.144 L105.652,1298.208 C106.078667,1299.232 106.825333,1299.744 107.892,1299.744 C108.958667,1299.744 109.748,1299.27467 110.26,1298.336 L110.26,1298.336 L132.532,1249.056 C132.958667,1248.032 133.513333,1247.52 134.196,1247.52 C134.878667,1247.52 135.433333,1248.032 135.86,1249.056 L135.86,1249.056 L158.004,1298.72 C158.430667,1299.65867 159.198667,1300.128 160.308,1300.128 Z M224.308,1300 C225.417333,1300 226.356,1299.616 227.124,1298.848 C227.892,1298.08 228.276,1297.14133 228.276,1296.032 L228.276,1296.032 L228.276,1210.4 C228.276,1209.29067 227.892,1208.352 227.124,1207.584 C226.356,1206.816 225.417333,1206.432 224.308,1206.432 L224.308,1206.432 L214.196,1206.432 C213.086667,1206.432 212.169333,1206.816 211.444,1207.584 C210.718667,1208.352 210.356,1209.29067 210.356,1210.4 L210.356,1210.4 L210.356,1296.032 C210.356,1297.14133 210.718667,1298.08 211.444,1298.848 C212.169333,1299.616 213.086667,1300 214.196,1300 L214.196,1300 L224.308,1300 Z M287.924,1300 C289.033333,1300 289.972,1299.616 290.74,1298.848 C291.508,1298.08 291.892,1297.14133 291.892,1296.032 L291.892,1296.032 L291.892,1226.144 C291.892,1225.03467 292.276,1224.096 293.044,1223.328 C293.812,1222.56 294.750667,1222.176 295.86,1222.176 L295.86,1222.176 L314.676,1222.176 C315.785333,1222.176 316.724,1221.792 317.492,1221.024 C318.26,1220.256 318.644,1219.31733 318.644,1218.208 L318.644,1218.208 L318.644,1210.272 C318.644,1209.16267 318.26,1208.224 317.492,1207.456 C316.724,1206.688 315.785333,1206.304 314.676,1206.304 L314.676,1206.304 L251.06,1206.304 C249.950667,1206.304 249.012,1206.688 248.244,1207.456 C247.476,1208.224 247.092,1209.16267 247.092,1210.272 L247.092,1210.272 L247.092,1218.208 C247.092,1219.31733 247.476,1220.256 248.244,1221.024 C249.012,1221.792 249.950667,1222.176 251.06,1222.176 L251.06,1222.176 L270.004,1222.176 C271.113333,1222.176 272.052,1222.56 272.82,1223.328 C273.588,1224.096 273.972,1225.03467 273.972,1226.144 L273.972,1226.144 L273.972,1296.032 C273.972,1297.14133 274.356,1298.08 275.124,1298.848 C275.892,1299.616 276.830667,1300 277.94,1300 L277.94,1300 L287.924,1300 Z M344.756,1300 C345.865333,1300 346.804,1299.616 347.572,1298.848 C348.34,1298.08 348.724,1297.14133 348.724,1296.032 L348.724,1296.032 L348.724,1266.72 C348.724,1265.61067 349.108,1264.672 349.876,1263.904 C350.644,1263.136 351.582667,1262.752 352.692,1262.752 L352.692,1262.752 L390.964,1262.752 C392.073333,1262.752 393.012,1263.136 393.78,1263.904 C394.548,1264.672 394.932,1265.61067 394.932,1266.72 L394.932,1266.72 L394.932,1296.032 C394.932,1297.14133 395.316,1298.08 396.084,1298.848 C396.852,1299.616 397.790667,1300 398.9,1300 L398.9,1300 L408.884,1300 C409.993333,1300 410.932,1299.616 411.7,1298.848 C412.468,1298.08 412.852,1297.14133 412.852,1296.032 L412.852,1296.032 L412.852,1210.272 C412.852,1209.16267 412.468,1208.224 411.7,1207.456 C410.932,1206.688 409.993333,1206.304 408.884,1206.304 L408.884,1206.304 L398.9,1206.304 C397.790667,1206.304 396.852,1206.688 396.084,1207.456 C395.316,1208.224 394.932,1209.16267 394.932,1210.272 L394.932,1210.272 L394.932,1242.912 C394.932,1244.02133 394.548,1244.96 393.78,1245.728 C393.012,1246.496 392.073333,1246.88 390.964,1246.88 L390.964,1246.88 L352.692,1246.88 C351.582667,1246.88 350.644,1246.496 349.876,1245.728 C349.108,1244.96 348.724,1244.02133 348.724,1242.912 L348.724,1242.912 L348.724,1210.272 C348.724,1209.16267 348.34,1208.224 347.572,1207.456 C346.804,1206.688 345.865333,1206.304 344.756,1206.304 L344.756,1206.304 L334.772,1206.304 C333.662667,1206.304 332.724,1206.688 331.956,1207.456 C331.188,1208.224 330.804,1209.16267 330.804,1210.272 L330.804,1210.272 L330.804,1296.032 C330.804,1297.14133 331.188,1298.08 331.956,1298.848 C332.724,1299.616 333.662667,1300 334.772,1300 L334.772,1300 L344.756,1300 Z M490.932,1300 C492.041333,1300 492.98,1299.616 493.748,1298.848 C494.516,1298.08 494.9,1297.14133 494.9,1296.032 L494.9,1296.032 L494.9,1266.72 C494.9,1265.61067 495.284,1264.672 496.052,1263.904 C496.82,1263.136 497.758667,1262.752 498.868,1262.752 L498.868,1262.752 L537.14,1262.752 C538.249333,1262.752 539.188,1263.136 539.956,1263.904 C540.724,1264.672 541.108,1265.61067 541.108,1266.72 L541.108,1266.72 L541.108,1296.032 C541.108,1297.14133 541.492,1298.08 542.26,1298.848 C543.028,1299.616 543.966667,1300 545.076,1300 L545.076,1300 L555.06,1300 C556.169333,1300 557.108,1299.616 557.876,1298.848 C558.644,1298.08 559.028,1297.14133 559.028,1296.032 L559.028,1296.032 L559.028,1210.272 C559.028,1209.16267 558.644,1208.224 557.876,1207.456 C557.108,1206.688 556.169333,1206.304 555.06,1206.304 L555.06,1206.304 L545.076,1206.304 C543.966667,1206.304 543.028,1206.688 542.26,1207.456 C541.492,1208.224 541.108,1209.16267 541.108,1210.272 L541.108,1210.272 L541.108,1242.912 C541.108,1244.02133 540.724,1244.96 539.956,1245.728 C539.188,1246.496 538.249333,1246.88 537.14,1246.88 L537.14,1246.88 L498.868,1246.88 C497.758667,1246.88 496.82,1246.496 496.052,1245.728 C495.284,1244.96 494.9,1244.02133 494.9,1242.912 L494.9,1242.912 L494.9,1210.272 C494.9,1209.16267 494.516,1208.224 493.748,1207.456 C492.98,1206.688 492.041333,1206.304 490.932,1206.304 L490.932,1206.304 L480.948,1206.304 C479.838667,1206.304 478.9,1206.688 478.132,1207.456 C477.364,1208.224 476.98,1209.16267 476.98,1210.272 L476.98,1210.272 L476.98,1296.032 C476.98,1297.14133 477.364,1298.08 478.132,1298.848 C478.9,1299.616 479.838667,1300 480.948,1300 L480.948,1300 L490.932,1300 Z M623.284,1301.792 C630.025333,1301.792 636.34,1300.512 642.228,1297.952 C648.116,1295.392 653.257333,1291.91467 657.652,1287.52 C662.046667,1283.12533 665.524,1277.984 668.084,1272.096 C670.644,1266.208 671.924,1259.89333 671.924,1253.152 C671.924,1246.496 670.644,1240.20267 668.084,1234.272 C665.524,1228.34133 662.046667,1223.17867 657.652,1218.784 C653.257333,1214.38933 648.116,1210.912 642.228,1208.352 C636.34,1205.792 630.025333,1204.512 623.284,1204.512 C616.628,1204.512 610.356,1205.792 604.468,1208.352 C598.58,1210.912 593.438667,1214.38933 589.044,1218.784 C584.649333,1223.17867 581.172,1228.34133 578.612,1234.272 C576.052,1240.20267 574.772,1246.496 574.772,1253.152 C574.772,1259.89333 576.052,1266.208 578.612,1272.096 C581.172,1277.984 584.649333,1283.12533 589.044,1287.52 C593.438667,1291.91467 598.58,1295.392 604.468,1297.952 C610.356,1300.512 616.628,1301.792 623.284,1301.792 Z M623.284,1285.152 C619.017333,1285.152 615.028,1284.27733 611.316,1282.528 C607.604,1280.77867 604.361333,1278.432 601.588,1275.488 C598.814667,1272.544 596.617333,1269.152 594.996,1265.312 C593.374667,1261.472 592.564,1257.41867 592.564,1253.152 C592.564,1248.97067 593.374667,1244.93867 594.996,1241.056 C596.617333,1237.17333 598.814667,1233.78133 601.588,1230.88 C604.361333,1227.97867 607.604,1225.65333 611.316,1223.904 C615.028,1222.15467 619.017333,1221.28 623.284,1221.28 C627.550667,1221.28 631.54,1222.15467 635.252,1223.904 C638.964,1225.65333 642.206667,1227.97867 644.98,1230.88 C647.753333,1233.78133 649.950667,1237.17333 651.572,1241.056 C653.193333,1244.93867 654.004,1248.97067 654.004,1253.152 C654.004,1257.41867 653.193333,1261.472 651.572,1265.312 C649.950667,1269.152 647.753333,1272.544 644.98,1275.488 C642.206667,1278.432 638.964,1280.77867 635.252,1282.528 C631.54,1284.27733 627.550667,1285.152 623.284,1285.152 Z M724.276,1301.792 C729.396,1301.792 734.217333,1301.19467 738.74,1300 C743.006667,1298.89067 746.761333,1297.09867 750.004,1294.624 C753.161333,1292.32 755.593333,1289.376 757.3,1285.792 C759.006667,1282.12267 759.86,1277.89867 759.86,1273.12 C759.86,1268.93867 759.22,1265.35467 757.94,1262.368 C756.830667,1259.552 755.209333,1257.07733 753.076,1254.944 C752.564,1254.432 752.030667,1253.94133 751.476,1253.472 C750.921333,1253.00267 750.302667,1252.55467 749.62,1252.128 C748.681333,1251.44533 747.550667,1250.76267 746.228,1250.08 C744.905333,1249.39733 743.732,1248.84267 742.708,1248.416 C742.025333,1248.16 741.321333,1247.904 740.596,1247.648 C739.870667,1247.392 739.166667,1247.17867 738.484,1247.008 C737.204,1246.58133 735.924,1246.21867 734.644,1245.92 C733.364,1245.62133 732.126667,1245.38667 730.932,1245.216 C729.737333,1245.04533 728.628,1244.832 727.604,1244.576 C726.58,1244.32 725.598667,1244.10667 724.66,1243.936 C723.465333,1243.59467 722.249333,1243.296 721.012,1243.04 C719.774667,1242.784 718.516,1242.48533 717.236,1242.144 C715.956,1241.80267 714.74,1241.46133 713.588,1241.12 C712.436,1240.77867 711.305333,1240.39467 710.196,1239.968 C708.062667,1239.11467 706.313333,1238.048 704.948,1236.768 C703.582667,1235.488 702.9,1233.90933 702.9,1232.032 C702.9,1230.15467 703.454667,1228.53333 704.564,1227.168 C705.161333,1226.48533 705.822667,1225.888 706.548,1225.376 C707.273333,1224.864 708.062667,1224.39467 708.916,1223.968 C710.708,1223.11467 712.585333,1222.47467 714.548,1222.048 C715.486667,1221.87733 716.404,1221.74933 717.3,1221.664 C718.196,1221.57867 719.028,1221.536 719.796,1221.536 C724.404,1221.536 728.713333,1222.34667 732.724,1223.968 C735.710667,1225.07733 738.868,1226.69867 742.196,1228.832 C743.134667,1229.42933 744.137333,1229.64267 745.204,1229.472 C746.270667,1229.30133 747.145333,1228.74667 747.828,1227.808 L747.828,1227.808 L753.204,1220.128 C753.886667,1219.18933 754.142667,1218.208 753.972,1217.184 C753.801333,1216.16 753.246667,1215.30667 752.308,1214.624 C751.369333,1214.112 750.516,1213.6 749.748,1213.088 C748.98,1212.576 748.169333,1212.064 747.316,1211.552 C746.121333,1210.86933 744.884,1210.208 743.604,1209.568 C742.324,1208.928 741.001333,1208.352 739.636,1207.84 C738.270667,1207.41333 736.884,1207.008 735.476,1206.624 C734.068,1206.24 732.596,1205.92 731.06,1205.664 C727.988,1205.152 724.489333,1204.896 720.564,1204.896 C716.382667,1204.896 712.286667,1205.32267 708.276,1206.176 C703.924,1207.11467 700.084,1208.56533 696.756,1210.528 C693.257333,1212.74667 690.441333,1215.60533 688.308,1219.104 C686.089333,1222.85867 684.98,1227.424 684.98,1232.8 C684.98,1236.46933 685.577333,1239.712 686.772,1242.528 C688.052,1245.42933 689.716,1247.81867 691.764,1249.696 C693.812,1251.744 696.116,1253.408 698.676,1254.688 C701.150667,1256.05333 703.753333,1257.12 706.484,1257.888 C709.129333,1258.82667 711.689333,1259.46667 714.164,1259.808 C715.358667,1260.064 716.510667,1260.29867 717.62,1260.512 C718.729333,1260.72533 719.753333,1260.91733 720.692,1261.088 C722.142667,1261.344 723.529333,1261.6 724.852,1261.856 C726.174667,1262.112 727.476,1262.41067 728.756,1262.752 C730.121333,1263.09333 731.358667,1263.43467 732.468,1263.776 C733.577333,1264.11733 734.601333,1264.50133 735.54,1264.928 C737.502667,1265.86667 739.038667,1266.93333 740.148,1268.128 C741.342667,1269.57867 741.94,1271.2 741.94,1272.992 C741.94,1274.528 741.556,1275.97867 740.788,1277.344 C740.02,1278.79467 738.868,1280.11733 737.332,1281.312 C735.625333,1282.592 733.748,1283.53067 731.7,1284.128 C729.481333,1284.896 726.921333,1285.28 724.02,1285.28 C718.388,1285.28 713.14,1284.08533 708.276,1281.696 C704.606667,1279.98933 700.852,1277.94133 697.012,1275.552 C696.073333,1274.95467 695.092,1274.74133 694.068,1274.912 C693.044,1275.08267 692.233333,1275.63733 691.636,1276.576 L691.636,1276.576 L686.26,1284.512 C685.662667,1285.45067 685.449333,1286.432 685.62,1287.456 C685.790667,1288.48 686.345333,1289.29067 687.284,1289.888 C688.222667,1290.57067 689.118667,1291.18933 689.972,1291.744 C690.825333,1292.29867 691.678667,1292.832 692.532,1293.344 C693.897333,1294.19733 695.305333,1294.98667 696.756,1295.712 C698.206667,1296.43733 699.7,1297.09867 701.236,1297.696 C704.478667,1299.06133 707.849333,1300.04267 711.348,1300.64 C715.017333,1301.408 719.326667,1301.792 724.276,1301.792 Z M811.444,1300 C812.553333,1300 813.492,1299.616 814.26,1298.848 C815.028,1298.08 815.412,1297.14133 815.412,1296.032 L815.412,1296.032 L815.412,1226.144 C815.412,1225.03467 815.796,1224.096 816.564,1223.328 C817.332,1222.56 818.270667,1222.176 819.38,1222.176 L819.38,1222.176 L838.196,1222.176 C839.305333,1222.176 840.244,1221.792 841.012,1221.024 C841.78,1220.256 842.164,1219.31733 842.164,1218.208 L842.164,1218.208 L842.164,1210.272 C842.164,1209.16267 841.78,1208.224 841.012,1207.456 C840.244,1206.688 839.305333,1206.304 838.196,1206.304 L838.196,1206.304 L774.58,1206.304 C773.470667,1206.304 772.532,1206.688 771.764,1207.456 C770.996,1208.224 770.612,1209.16267 770.612,1210.272 L770.612,1210.272 L770.612,1218.208 C770.612,1219.31733 770.996,1220.256 771.764,1221.024 C772.532,1221.792 773.470667,1222.176 774.58,1222.176 L774.58,1222.176 L793.524,1222.176 C794.633333,1222.176 795.572,1222.56 796.34,1223.328 C797.108,1224.096 797.492,1225.03467 797.492,1226.144 L797.492,1226.144 L797.492,1296.032 C797.492,1297.14133 797.876,1298.08 798.644,1298.848 C799.412,1299.616 800.350667,1300 801.46,1300 L801.46,1300 L811.444,1300 Z M904.372,1300 C905.481333,1300 906.569333,1299.65867 907.636,1298.976 C908.702667,1298.29333 909.492,1297.44 910.004,1296.416 L910.004,1296.416 L913.716,1288.864 C914.142667,1287.84 914.910667,1286.98667 916.02,1286.304 C917.129333,1285.62133 918.238667,1285.28 919.348,1285.28 L919.348,1285.28 L955.7,1285.28 C956.809333,1285.28 957.897333,1285.62133 958.964,1286.304 C960.030667,1286.98667 960.82,1287.79733 961.332,1288.736 L961.332,1288.736 L965.172,1296.416 C965.598667,1297.44 966.366667,1298.29333 967.476,1298.976 C968.585333,1299.65867 969.694667,1300 970.804,1300 L970.804,1300 L982.452,1300 C983.561333,1300 984.308,1299.65867 984.692,1298.976 C985.076,1298.29333 985.012,1297.48267 984.5,1296.544 L984.5,1296.544 L940.084,1207.84 C939.572,1206.816 938.718667,1206.304 937.524,1206.304 C936.329333,1206.304 935.476,1206.816 934.964,1207.84 L934.964,1207.84 L890.548,1296.544 C890.121333,1297.48267 890.1,1298.29333 890.484,1298.976 C890.868,1299.65867 891.614667,1300 892.724,1300 L892.724,1300 L904.372,1300 Z M946.996,1269.664 L928.052,1269.664 C926.942667,1269.664 926.174667,1269.32267 925.748,1268.64 C925.321333,1267.95733 925.321333,1267.104 925.748,1266.08 L925.748,1266.08 L935.86,1244.96 C936.286667,1243.936 936.841333,1243.424 937.524,1243.424 C938.206667,1243.424 938.761333,1243.936 939.188,1244.96 L939.188,1244.96 L949.172,1266.08 C949.598667,1267.01867 949.62,1267.85067 949.236,1268.576 C948.852,1269.30133 948.105333,1269.664 946.996,1269.664 L946.996,1269.664 Z M1060.788,1300 C1061.89733,1300 1062.836,1299.616 1063.604,1298.848 C1064.372,1298.08 1064.756,1297.14133 1064.756,1296.032 L1064.756,1296.032 L1064.756,1288.096 C1064.756,1286.98667 1064.372,1286.048 1063.604,1285.28 C1062.836,1284.512 1061.89733,1284.128 1060.788,1284.128 L1060.788,1284.128 L1019.188,1284.128 C1018.07867,1284.128 1017.14,1283.744 1016.372,1282.976 C1015.604,1282.208 1015.22,1281.26933 1015.22,1280.16 L1015.22,1280.16 L1015.22,1210.272 C1015.22,1209.16267 1014.836,1208.224 1014.068,1207.456 C1013.3,1206.688 1012.36133,1206.304 1011.252,1206.304 L1011.252,1206.304 L1001.268,1206.304 C1000.15867,1206.304 999.22,1206.688 998.452,1207.456 C997.684,1208.224 997.3,1209.16267 997.3,1210.272 L997.3,1210.272 L997.3,1296.032 C997.3,1297.14133 997.684,1298.08 998.452,1298.848 C999.22,1299.616 1000.15867,1300 1001.268,1300 L1001.268,1300 L1060.788,1300 Z M1141.044,1300 C1142.15333,1300 1143.092,1299.616 1143.86,1298.848 C1144.628,1298.08 1145.012,1297.14133 1145.012,1296.032 L1145.012,1296.032 L1145.012,1287.84 C1145.012,1286.73067 1144.628,1285.792 1143.86,1285.024 C1143.092,1284.256 1142.15333,1283.872 1141.044,1283.872 L1141.044,1283.872 L1097.908,1283.872 C1096.79867,1283.872 1095.86,1283.488 1095.092,1282.72 C1094.324,1281.952 1093.94,1281.01333 1093.94,1279.904 L1093.94,1279.904 L1093.94,1265.824 C1093.94,1264.71467 1094.324,1263.776 1095.092,1263.008 C1095.86,1262.24 1096.79867,1261.856 1097.908,1261.856 L1097.908,1261.856 L1135.284,1261.856 C1136.39333,1261.856 1137.332,1261.472 1138.1,1260.704 C1138.868,1259.936 1139.252,1258.99733 1139.252,1257.888 L1139.252,1257.888 L1139.252,1249.568 C1139.252,1248.45867 1138.868,1247.52 1138.1,1246.752 C1137.332,1245.984 1136.39333,1245.6 1135.284,1245.6 L1135.284,1245.6 L1097.908,1245.6 C1096.79867,1245.6 1095.86,1245.216 1095.092,1244.448 C1094.324,1243.68 1093.94,1242.74133 1093.94,1241.632 L1093.94,1241.632 L1093.94,1226.144 C1093.94,1225.03467 1094.324,1224.096 1095.092,1223.328 C1095.86,1222.56 1096.79867,1222.176 1097.908,1222.176 L1097.908,1222.176 L1141.044,1222.176 C1142.15333,1222.176 1143.092,1221.792 1143.86,1221.024 C1144.628,1220.256 1145.012,1219.31733 1145.012,1218.208 L1145.012,1218.208 L1145.012,1210.272 C1145.012,1209.16267 1144.628,1208.224 1143.86,1207.456 C1143.092,1206.688 1142.15333,1206.304 1141.044,1206.304 L1141.044,1206.304 L1079.988,1206.304 C1078.87867,1206.304 1077.94,1206.688 1077.172,1207.456 C1076.404,1208.224 1076.02,1209.16267 1076.02,1210.272 L1076.02,1210.272 L1076.02,1296.032 C1076.02,1297.14133 1076.404,1298.08 1077.172,1298.848 C1077.94,1299.616 1078.87867,1300 1079.988,1300 L1079.988,1300 L1141.044,1300 Z M1174.836,1300 C1175.94533,1300 1177.076,1299.70133 1178.228,1299.104 C1179.38,1298.50667 1180.29733,1297.73867 1180.98,1296.8 L1180.98,1296.8 L1199.924,1270.56 C1200.60667,1269.62133 1201.37467,1269.152 1202.228,1269.152 C1203.08133,1269.152 1203.84933,1269.62133 1204.532,1270.56 L1204.532,1270.56 L1223.476,1296.8 C1224.15867,1297.73867 1225.09733,1298.50667 1226.292,1299.104 C1227.48667,1299.70133 1228.63867,1300 1229.748,1300 L1229.748,1300 L1244.084,1300 C1245.19333,1300 1245.89733,1299.65867 1246.196,1298.976 C1246.49467,1298.29333 1246.30267,1297.48267 1245.62,1296.544 L1245.62,1296.544 L1215.796,1256.736 C1215.11333,1255.88267 1214.772,1254.85867 1214.772,1253.664 C1214.772,1252.46933 1215.11333,1251.40267 1215.796,1250.464 L1215.796,1250.464 L1246.26,1209.76 C1246.94267,1208.90667 1247.13467,1208.13867 1246.836,1207.456 C1246.53733,1206.77333 1245.83333,1206.432 1244.724,1206.432 L1244.724,1206.432 L1230.516,1206.432 C1229.40667,1206.432 1228.25467,1206.73067 1227.06,1207.328 C1225.86533,1207.92533 1224.92667,1208.69333 1224.244,1209.632 L1224.244,1209.632 L1204.532,1236.896 C1203.84933,1237.83467 1203.08133,1238.304 1202.228,1238.304 C1201.37467,1238.304 1200.60667,1237.83467 1199.924,1236.896 L1199.924,1236.896 L1180.212,1209.632 C1179.52933,1208.69333 1178.612,1207.92533 1177.46,1207.328 C1176.308,1206.73067 1175.17733,1206.432 1174.068,1206.432 L1174.068,1206.432 L1159.732,1206.432 C1158.62267,1206.432 1157.91867,1206.77333 1157.62,1207.456 C1157.32133,1208.13867 1157.51333,1208.90667 1158.196,1209.76 L1158.196,1209.76 L1188.788,1250.464 C1189.47067,1251.40267 1189.812,1252.46933 1189.812,1253.664 C1189.812,1254.85867 1189.47067,1255.88267 1188.788,1256.736 L1188.788,1256.736 L1158.964,1296.544 C1158.28133,1297.48267 1158.08933,1298.29333 1158.388,1298.976 C1158.68667,1299.65867 1159.39067,1300 1160.5,1300 L1160.5,1300 L1174.836,1300 Z M1317.684,1300 C1318.79333,1300 1319.732,1299.616 1320.5,1298.848 C1321.268,1298.08 1321.652,1297.14133 1321.652,1296.032 L1321.652,1296.032 L1321.652,1261.344 C1321.652,1260.23467 1321.908,1259.57333 1322.42,1259.36 C1322.932,1259.14667 1323.52933,1259.424 1324.212,1260.192 L1324.212,1260.192 L1358.26,1297.056 C1358.94267,1297.90933 1359.924,1298.61333 1361.204,1299.168 C1362.484,1299.72267 1363.67867,1300 1364.788,1300 L1364.788,1300 L1380.66,1300 C1381.76933,1300 1382.43067,1299.72267 1382.644,1299.168 C1382.85733,1298.61333 1382.62267,1297.952 1381.94,1297.184 L1381.94,1297.184 L1345.076,1257.632 C1344.308,1256.864 1343.90267,1255.904 1343.86,1254.752 C1343.81733,1253.6 1344.13733,1252.59733 1344.82,1251.744 L1344.82,1251.744 L1378.484,1209.504 C1379.16667,1208.65067 1379.35867,1207.92533 1379.06,1207.328 C1378.76133,1206.73067 1378.05733,1206.432 1376.948,1206.432 L1376.948,1206.432 L1362.74,1206.432 C1361.63067,1206.432 1360.47867,1206.73067 1359.284,1207.328 C1358.08933,1207.92533 1357.15067,1208.65067 1356.468,1209.504 L1356.468,1209.504 L1324.084,1250.848 C1323.40133,1251.70133 1322.82533,1252.04267 1322.356,1251.872 C1321.88667,1251.70133 1321.652,1251.06133 1321.652,1249.952 L1321.652,1249.952 L1321.652,1210.272 C1321.652,1209.16267 1321.268,1208.224 1320.5,1207.456 C1319.732,1206.688 1318.79333,1206.304 1317.684,1206.304 L1317.684,1206.304 L1307.572,1206.304 C1306.46267,1206.304 1305.54533,1206.688 1304.82,1207.456 C1304.09467,1208.224 1303.732,1209.16267 1303.732,1210.272 L1303.732,1210.272 L1303.732,1296.032 C1303.732,1297.14133 1304.09467,1298.08 1304.82,1298.848 C1305.54533,1299.616 1306.46267,1300 1307.572,1300 L1307.572,1300 L1317.684,1300 Z M1462.836,1300 C1463.94533,1300 1464.884,1299.616 1465.652,1298.848 C1466.42,1298.08 1466.804,1297.14133 1466.804,1296.032 L1466.804,1296.032 L1466.804,1287.84 C1466.804,1286.73067 1466.42,1285.792 1465.652,1285.024 C1464.884,1284.256 1463.94533,1283.872 1462.836,1283.872 L1462.836,1283.872 L1419.7,1283.872 C1418.59067,1283.872 1417.652,1283.488 1416.884,1282.72 C1416.116,1281.952 1415.732,1281.01333 1415.732,1279.904 L1415.732,1279.904 L1415.732,1265.824 C1415.732,1264.71467 1416.116,1263.776 1416.884,1263.008 C1417.652,1262.24 1418.59067,1261.856 1419.7,1261.856 L1419.7,1261.856 L1457.076,1261.856 C1458.18533,1261.856 1459.124,1261.472 1459.892,1260.704 C1460.66,1259.936 1461.044,1258.99733 1461.044,1257.888 L1461.044,1257.888 L1461.044,1249.568 C1461.044,1248.45867 1460.66,1247.52 1459.892,1246.752 C1459.124,1245.984 1458.18533,1245.6 1457.076,1245.6 L1457.076,1245.6 L1419.7,1245.6 C1418.59067,1245.6 1417.652,1245.216 1416.884,1244.448 C1416.116,1243.68 1415.732,1242.74133 1415.732,1241.632 L1415.732,1241.632 L1415.732,1226.144 C1415.732,1225.03467 1416.116,1224.096 1416.884,1223.328 C1417.652,1222.56 1418.59067,1222.176 1419.7,1222.176 L1419.7,1222.176 L1462.836,1222.176 C1463.94533,1222.176 1464.884,1221.792 1465.652,1221.024 C1466.42,1220.256 1466.804,1219.31733 1466.804,1218.208 L1466.804,1218.208 L1466.804,1210.272 C1466.804,1209.16267 1466.42,1208.224 1465.652,1207.456 C1464.884,1206.688 1463.94533,1206.304 1462.836,1206.304 L1462.836,1206.304 L1401.78,1206.304 C1400.67067,1206.304 1399.732,1206.688 1398.964,1207.456 C1398.196,1208.224 1397.812,1209.16267 1397.812,1210.272 L1397.812,1210.272 L1397.812,1296.032 C1397.812,1297.14133 1398.196,1298.08 1398.964,1298.848 C1399.732,1299.616 1400.67067,1300 1401.78,1300 L1401.78,1300 L1462.836,1300 Z M1499.06,1300 C1500.16933,1300 1501.108,1299.616 1501.876,1298.848 C1502.644,1298.08 1503.028,1297.14133 1503.028,1296.032 L1503.028,1296.032 L1503.028,1266.72 C1503.028,1265.61067 1503.412,1264.672 1504.18,1263.904 C1504.948,1263.136 1505.88667,1262.752 1506.996,1262.752 L1506.996,1262.752 L1545.268,1262.752 C1546.37733,1262.752 1547.316,1263.136 1548.084,1263.904 C1548.852,1264.672 1549.236,1265.61067 1549.236,1266.72 L1549.236,1266.72 L1549.236,1296.032 C1549.236,1297.14133 1549.62,1298.08 1550.388,1298.848 C1551.156,1299.616 1552.09467,1300 1553.204,1300 L1553.204,1300 L1563.188,1300 C1564.29733,1300 1565.236,1299.616 1566.004,1298.848 C1566.772,1298.08 1567.156,1297.14133 1567.156,1296.032 L1567.156,1296.032 L1567.156,1210.272 C1567.156,1209.16267 1566.772,1208.224 1566.004,1207.456 C1565.236,1206.688 1564.29733,1206.304 1563.188,1206.304 L1563.188,1206.304 L1553.204,1206.304 C1552.09467,1206.304 1551.156,1206.688 1550.388,1207.456 C1549.62,1208.224 1549.236,1209.16267 1549.236,1210.272 L1549.236,1210.272 L1549.236,1242.912 C1549.236,1244.02133 1548.852,1244.96 1548.084,1245.728 C1547.316,1246.496 1546.37733,1246.88 1545.268,1246.88 L1545.268,1246.88 L1506.996,1246.88 C1505.88667,1246.88 1504.948,1246.496 1504.18,1245.728 C1503.412,1244.96 1503.028,1244.02133 1503.028,1242.912 L1503.028,1242.912 L1503.028,1210.272 C1503.028,1209.16267 1502.644,1208.224 1501.876,1207.456 C1501.108,1206.688 1500.16933,1206.304 1499.06,1206.304 L1499.06,1206.304 L1489.076,1206.304 C1487.96667,1206.304 1487.028,1206.688 1486.26,1207.456 C1485.492,1208.224 1485.108,1209.16267 1485.108,1210.272 L1485.108,1210.272 L1485.108,1296.032 C1485.108,1297.14133 1485.492,1298.08 1486.26,1298.848 C1487.028,1299.616 1487.96667,1300 1489.076,1300 L1489.076,1300 L1499.06,1300 Z M1593.78,1300 C1594.88933,1300 1595.97733,1299.65867 1597.044,1298.976 C1598.11067,1298.29333 1598.9,1297.44 1599.412,1296.416 L1599.412,1296.416 L1603.124,1288.864 C1603.55067,1287.84 1604.31867,1286.98667 1605.428,1286.304 C1606.53733,1285.62133 1607.64667,1285.28 1608.756,1285.28 L1608.756,1285.28 L1645.108,1285.28 C1646.21733,1285.28 1647.30533,1285.62133 1648.372,1286.304 C1649.43867,1286.98667 1650.228,1287.79733 1650.74,1288.736 L1650.74,1288.736 L1654.58,1296.416 C1655.00667,1297.44 1655.77467,1298.29333 1656.884,1298.976 C1657.99333,1299.65867 1659.10267,1300 1660.212,1300 L1660.212,1300 L1671.86,1300 C1672.96933,1300 1673.716,1299.65867 1674.1,1298.976 C1674.484,1298.29333 1674.42,1297.48267 1673.908,1296.544 L1673.908,1296.544 L1629.492,1207.84 C1628.98,1206.816 1628.12667,1206.304 1626.932,1206.304 C1625.73733,1206.304 1624.884,1206.816 1624.372,1207.84 L1624.372,1207.84 L1579.956,1296.544 C1579.52933,1297.48267 1579.508,1298.29333 1579.892,1298.976 C1580.276,1299.65867 1581.02267,1300 1582.132,1300 L1582.132,1300 L1593.78,1300 Z M1636.404,1269.664 L1617.46,1269.664 C1616.35067,1269.664 1615.58267,1269.32267 1615.156,1268.64 C1614.72933,1267.95733 1614.72933,1267.104 1615.156,1266.08 L1615.156,1266.08 L1625.268,1244.96 C1625.69467,1243.936 1626.24933,1243.424 1626.932,1243.424 C1627.61467,1243.424 1628.16933,1243.936 1628.596,1244.96 L1628.596,1244.96 L1638.58,1266.08 C1639.00667,1267.01867 1639.028,1267.85067 1638.644,1268.576 C1638.26,1269.30133 1637.51333,1269.664 1636.404,1269.664 L1636.404,1269.664 Z M1726.9,1300 C1728.00933,1300 1728.948,1299.616 1729.716,1298.848 C1730.484,1298.08 1730.868,1297.14133 1730.868,1296.032 L1730.868,1296.032 L1730.868,1268.512 C1730.868,1267.40267 1731.03867,1266.12267 1731.38,1264.672 C1731.72133,1263.22133 1732.19067,1262.02667 1732.788,1261.088 C1733.72667,1259.46667 1734.72933,1257.80267 1735.796,1256.096 C1736.86267,1254.38933 1737.99333,1252.59733 1739.188,1250.72 C1740.724,1248.24533 1742.28133,1245.70667 1743.86,1243.104 C1745.43867,1240.50133 1747.08133,1237.87733 1748.788,1235.232 C1750.40933,1232.58667 1752.00933,1229.984 1753.588,1227.424 C1755.16667,1224.864 1756.724,1222.34667 1758.26,1219.872 C1759.45467,1217.99467 1760.564,1216.224 1761.588,1214.56 C1762.612,1212.896 1763.59333,1211.296 1764.532,1209.76 C1765.044,1208.82133 1765.12933,1208.032 1764.788,1207.392 C1764.44667,1206.752 1763.72133,1206.432 1762.612,1206.432 L1762.612,1206.432 L1749.556,1206.432 C1748.44667,1206.432 1747.316,1206.752 1746.164,1207.392 C1745.012,1208.032 1744.18,1208.82133 1743.668,1209.76 C1743.07067,1210.784 1742.47333,1211.808 1741.876,1212.832 C1741.27867,1213.856 1740.63867,1214.88 1739.956,1215.904 C1738.932,1217.61067 1737.92933,1219.31733 1736.948,1221.024 C1735.96667,1222.73067 1734.964,1224.43733 1733.94,1226.144 L1733.94,1226.144 L1727.796,1236.512 C1727.11333,1237.62133 1726.452,1238.688 1725.812,1239.712 C1725.172,1240.736 1724.55333,1241.76 1723.956,1242.784 C1723.35867,1243.72267 1722.65467,1244.192 1721.844,1244.192 C1721.03333,1244.192 1720.372,1243.72267 1719.86,1242.784 C1718.23867,1240.05333 1716.61733,1237.32267 1714.996,1234.592 C1713.37467,1231.86133 1711.75333,1229.088 1710.132,1226.272 C1708.42533,1223.456 1706.76133,1220.68267 1705.14,1217.952 L1705.14,1217.952 L1700.276,1209.76 C1699.764,1208.82133 1698.932,1208.032 1697.78,1207.392 C1696.628,1206.752 1695.49733,1206.432 1694.388,1206.432 L1694.388,1206.432 L1681.332,1206.432 C1680.22267,1206.432 1679.476,1206.752 1679.092,1207.392 C1678.708,1208.032 1678.81467,1208.82133 1679.412,1209.76 C1681.88667,1214.112 1684.44667,1218.4 1687.092,1222.624 C1689.73733,1226.848 1692.468,1231.136 1695.284,1235.488 C1698.01467,1239.75467 1700.68133,1244 1703.284,1248.224 C1705.88667,1252.448 1708.42533,1256.736 1710.9,1261.088 C1711.49733,1262.02667 1711.988,1263.22133 1712.372,1264.672 C1712.756,1266.12267 1712.948,1267.40267 1712.948,1268.512 L1712.948,1268.512 L1712.948,1296.032 C1712.948,1297.14133 1713.31067,1298.08 1714.036,1298.848 C1714.76133,1299.616 1715.67867,1300 1716.788,1300 L1716.788,1300 L1726.9,1300 Z M1783.604,1300 C1784.71333,1300 1785.80133,1299.65867 1786.868,1298.976 C1787.93467,1298.29333 1788.724,1297.44 1789.236,1296.416 L1789.236,1296.416 L1792.948,1288.864 C1793.37467,1287.84 1794.14267,1286.98667 1795.252,1286.304 C1796.36133,1285.62133 1797.47067,1285.28 1798.58,1285.28 L1798.58,1285.28 L1834.932,1285.28 C1836.04133,1285.28 1837.12933,1285.62133 1838.196,1286.304 C1839.26267,1286.98667 1840.052,1287.79733 1840.564,1288.736 L1840.564,1288.736 L1844.404,1296.416 C1844.83067,1297.44 1845.59867,1298.29333 1846.708,1298.976 C1847.81733,1299.65867 1848.92667,1300 1850.036,1300 L1850.036,1300 L1861.684,1300 C1862.79333,1300 1863.54,1299.65867 1863.924,1298.976 C1864.308,1298.29333 1864.244,1297.48267 1863.732,1296.544 L1863.732,1296.544 L1819.316,1207.84 C1818.804,1206.816 1817.95067,1206.304 1816.756,1206.304 C1815.56133,1206.304 1814.708,1206.816 1814.196,1207.84 L1814.196,1207.84 L1769.78,1296.544 C1769.35333,1297.48267 1769.332,1298.29333 1769.716,1298.976 C1770.1,1299.65867 1770.84667,1300 1771.956,1300 L1771.956,1300 L1783.604,1300 Z M1826.228,1269.664 L1807.284,1269.664 C1806.17467,1269.664 1805.40667,1269.32267 1804.98,1268.64 C1804.55333,1267.95733 1804.55333,1267.104 1804.98,1266.08 L1804.98,1266.08 L1815.092,1244.96 C1815.51867,1243.936 1816.07333,1243.424 1816.756,1243.424 C1817.43867,1243.424 1817.99333,1243.936 1818.42,1244.96 L1818.42,1244.96 L1828.404,1266.08 C1828.83067,1267.01867 1828.852,1267.85067 1828.468,1268.576 C1828.084,1269.30133 1827.33733,1269.664 1826.228,1269.664 L1826.228,1269.664 Z" id="WITHhostALEXKEHAYA" fill="#FFFFFF">
			</path>
		</g>
	</g>
</svg>
