<svg xmlns="http://www.w3.org/2000/svg" xmlns:xlink="http://www.w3.org/1999/xlink" width="418" height="361" viewBox="0 0 418 361">
    <defs>
        <path id="a" d="M.133 2.064h386.468v168.534H.133z"/>
    </defs>
    <g fill="none" fill-rule="evenodd">
        <path fill="#F4F6F1" d="M53.533 191.985c0-85.436 69.232-154.696 154.631-154.696 85.403 0 154.635 69.26 154.635 154.696"/>
        <path fill="#F4F6F1" d="M210.665 173.593a.676.676 0 1 1-1.352 0 .676.676 0 0 1 1.352 0"/>
        <path stroke="#BCA9FF" stroke-width=".52" d="M389.405 166.33h-57.178v-26.325h-49.838v-25.128h57.942V66.862h-83.062"/>
        <path stroke="#BCA9FF" stroke-width=".901" d="M353.426 114.866c0 7.236-5.862 13.101-13.095 13.101-7.23 0-13.095-5.865-13.095-13.1 0-7.236 5.864-13.101 13.095-13.101 7.233 0 13.095 5.865 13.095 13.1zM246.516 42.133c0 7.236-5.863 13.101-13.095 13.101-7.231 0-13.096-5.865-13.096-13.1 0-7.236 5.865-13.101 13.096-13.101 7.232 0 13.095 5.865 13.095 13.1z"/>
        <path stroke="#BCA9FF" stroke-width="1.801" d="M168.16 120.118a7.148 7.148 0 1 1-14.296 0c0-3.948 3.2-7.152 7.148-7.152a7.15 7.15 0 0 1 7.147 7.152zM206.53 8.052a7.15 7.15 0 0 1-7.147 7.15 7.15 7.15 0 0 1-7.148-7.15c0-3.949 3.2-7.153 7.148-7.153a7.15 7.15 0 0 1 7.147 7.153z"/>
        <path stroke="#BCA9FF" stroke-linecap="round" stroke-linejoin="round" stroke-width=".52" d="M147.475 91.555h13.211v28.562h23.02v-29.96h16.414V7.893h-29.017v54.3M85.33 91.555h67.544M257.27 66.843v-24.71h-23.85v48.024h23.85v69.73"/>
        <path stroke="#BCA9FF" stroke-width=".901" d="M213.338 90.157c0 7.236-5.863 13.1-13.096 13.1-7.23 0-13.095-5.864-13.095-13.1s5.865-13.1 13.095-13.1c7.233 0 13.096 5.864 13.096 13.1zM103.572 90.998c0 9.888-8.013 17.902-17.895 17.902-9.885 0-17.897-8.014-17.897-17.902 0-9.886 8.012-17.9 17.897-17.9 9.882 0 17.895 8.014 17.895 17.9z"/>
        <path fill="#BCA9FF" d="M162.917 120.118a1.905 1.905 0 1 1-3.81 0c0-1.052.853-1.908 1.906-1.908 1.052 0 1.904.856 1.904 1.908M235.326 90.157a1.905 1.905 0 1 1-3.81 0 1.905 1.905 0 1 1 3.81 0M259.176 89.45a1.906 1.906 0 1 1-3.812.004 1.906 1.906 0 0 1 3.812-.004M173.655 62.016a2.526 2.526 0 1 1-5.051 0 2.526 2.526 0 1 1 5.05 0M173.655 8.052a2.526 2.526 0 1 1-5.052 0 2.526 2.526 0 1 1 5.052 0M201.867 8.052a2.526 2.526 0 1 1-2.525-2.528 2.526 2.526 0 0 1 2.525 2.528M202.408 90.157a2.527 2.527 0 1 1-5.055 0 2.527 2.527 0 0 1 5.055 0"/>
        <path fill="#A375FC" d="M185.086 139.563a1.91 1.91 0 0 1 0 2.697 1.909 1.909 0 0 1-2.695 0 1.91 1.91 0 0 1 0-2.697 1.905 1.905 0 0 1 2.695 0"/>
        <path stroke="#BCA9FF" stroke-width=".901" d="M401.954 166.585c0 6.19-5.016 11.205-11.203 11.205-6.185 0-11.198-5.016-11.198-11.205 0-6.19 5.013-11.205 11.198-11.205 6.187 0 11.203 5.016 11.203 11.205z"/>
        <path fill="#A375FC" d="M392.1 165.43a1.91 1.91 0 0 1 0 2.695 1.907 1.907 0 1 1 0-2.696M234.77 139.563a1.91 1.91 0 0 1 0 2.697 1.907 1.907 0 1 1 0-2.696M341.68 114.09a1.91 1.91 0 0 1 0 2.696 1.907 1.907 0 1 1 0-2.696"/>
        <path fill="#BCA9FF" d="M259.796 66.146a2.526 2.526 0 1 1-5.051 0 2.526 2.526 0 1 1 5.05 0M236.027 42.133a2.527 2.527 0 1 1-5.055.001 2.527 2.527 0 0 1 5.055 0"/>
        <path stroke="#BCA9FF" stroke-linecap="round" stroke-linejoin="round" stroke-width=".52" d="M85.676 45.453v105.86h-28.98"/>
        <path fill="#A375FC" d="M87.024 90.551a1.91 1.91 0 0 1 0 2.696 1.907 1.907 0 1 1 0-2.696"/>
        <path stroke="#BCA9FF" stroke-width="1.801" d="M92.48 45.453a7.15 7.15 0 0 1-7.15 7.15 7.15 7.15 0 0 1-7.146-7.15c0-3.948 3.2-7.152 7.145-7.152 3.95 0 7.15 3.204 7.15 7.152z"/>
        <path fill="#BCA9FF" d="M342.858 66.863a2.527 2.527 0 1 1-5.055.001 2.527 2.527 0 0 1 5.055 0"/>
        <path stroke="#BCA9FF" stroke-linecap="round" stroke-linejoin="round" stroke-width=".52" d="M85.33 45.453H57.36"/>
        <path fill="#A375FC" d="M87.024 44.104a1.91 1.91 0 0 1 0 2.697 1.907 1.907 0 1 1 0-2.696M56.456 44.104a1.907 1.907 0 0 1-2.695 2.697 1.91 1.91 0 0 1 0-2.697 1.909 1.909 0 0 1 2.695 0M59.392 149.519a1.91 1.91 0 0 1 0 2.696 1.907 1.907 0 1 1 0-2.696"/>
        <path stroke="#BCA9FF" stroke-width=".901" d="M71.139 151.313c0 7.236-5.863 13.1-13.095 13.1-7.231 0-13.096-5.864-13.096-13.1s5.865-13.1 13.096-13.1c7.232 0 13.095 5.864 13.095 13.1z"/>
        <path stroke="#BCA9FF" stroke-linecap="round" stroke-linejoin="round" stroke-width=".52" d="M106.728 151.313H85.676"/>
        <path fill="#BCA9FF" d="M110.54 151.313a1.905 1.905 0 1 1-3.811 0 1.905 1.905 0 0 1 3.81 0"/>
        <g transform="translate(20.796 189.921)">
            <mask id="b" fill="#fff">
                <use xlink:href="#a"/>
            </mask>
            <path fill="#2EBF8B" d="M342.003 2.064c57.703.835 47.82 50.131 33.86 70.428C358 98.465 322.3 122.571 299.454 144.29c-9.14 8.69-18.889 17.151-30.574 21.893-27.736 11.246-59.26-.801-85.162-15.8-25.903-14.998-51.435-33.584-81.24-36.297-24.033-2.189-49.669 6.145-71.667-3.789C6.802 99.457-3.758 69.091 1.422 43.251c2.785-13.905 8.733-31.346 31.315-41.187" mask="url(#b)"/>
        </g>
        <path fill="#2EAA7B" d="M333.327 239.472c0 8.401-49.083 15.21-109.626 15.21-60.546 0-109.628-6.809-109.628-15.21 0-8.398 49.082-15.21 109.628-15.21 60.543 0 109.626 6.812 109.626 15.21"/>
        <path stroke="#319DA8" stroke-linecap="round" stroke-width=".986" d="M278.441 298.33s5.1 11.58 13.228 0c0 0 5.239 8.547 11.578 0 0 0 5.652 10.066 11.3 0 0 0 7.166 8.275 10.473 0 0 0 7.717 10.203 14.333 0M.493 224.826s5.1 11.58 13.229 0c0 0 5.238 8.546 11.577 0 0 0 5.652 10.063 11.3 0 0 0 7.167 8.272 10.473 0 0 0 7.718 10.2 14.333 0M356.475 222.252s5.097 11.58 13.228 0c0 0 5.239 8.546 11.577 0 0 0 5.65 10.063 11.3 0 0 0 7.167 8.272 10.474 0 0 0 7.717 10.2 14.332 0M141.232 316.559s5.1 11.58 13.228 0c0 0 5.239 8.547 11.578 0 0 0 5.65 10.065 11.3 0 0 0 7.166 8.274 10.473 0 0 0 7.717 10.203 14.333 0"/>
        <path fill="#F4F6F1" d="M255.072 172.522a1.226 1.226 0 1 1-2.452-.001 1.226 1.226 0 0 1 2.452 0M274.607 164.22a1.226 1.226 0 1 1-2.452 0 1.226 1.226 0 0 1 2.452 0"/>
        <path fill="#5F45BA" d="M196.815 136.756l18.107 23.731-30.3-15.97s3.548-7.539-2.144-10.422c0 0 8.5-3.624 14.337 2.66"/>
        <path fill="#D7D3E2" d="M186.175 159.97s12.84 6.352 20.534-3.81l-23.121-12.305-4.509 6.578s1.256 6.506 7.096 9.537"/>
        <path stroke="#271C47" stroke-linecap="round" stroke-width=".74" d="M197.012 161.772v9.312M190.964 161.512v7.244"/>
        <path fill="#968BBC" d="M178.71 137.792l.37 12.64s4.124-1.63 5.802-5.889c1.657-4.205 2.192-8.363-2.404-10.448l-3.768 3.697z"/>
        <path fill="#271C47" d="M180.63 140.157l-1.92-2.366-3.547-.518zM184.697 138.021a1.19 1.19 0 1 0 2.378-.002 1.19 1.19 0 0 0-2.378.002"/>
        <path stroke="#231A4C" stroke-width=".772" d="M131.451 179.212l.059 14.353M136.622 178.402l.06 15.045"/>
        <path fill="#D7CDF9" d="M160.958 163.582s5.56-7.156-4.536-15.189c0 0-7.726-6.135-17.015-.377 0 0-16.957-5.94-33.777 16.263 0 0 2.007 9.254 12.222 13.384 0 0 7.337 3.316 16.125 1.725 8.79-1.594 11.068-3.878 13.091-7.473 2.023-3.6 2.87-4.702 5.453-4.646 2.587.056 6.31-.87 8.437-3.687"/>
        <path fill="#20115B" d="M158.35 158.83a.902.902 0 0 1-1.252-.241.904.904 0 0 1 .246-1.253.9.9 0 0 1 1.007 1.494M157.446 163.737l2.987.476 1.697 8.033-6.135-5.432z"/>
        <path fill="#C2B9EA" d="M119.548 154.436s14.595-3.387 23.783 4.726c9.187 8.116-2.604 13.112-6.23 14.025 0 0-29.022 1.939-45.902-8.301 0 0 18.87-9.824 28.35-10.45"/>
        <path stroke="#271C47" stroke-linecap="round" stroke-width=".74" d="M232.276 167.124v7.882M239.648 166.916v12.238"/>
        <path fill="#8F4BD1" d="M221.128 171.831l-1.58 5.395s-.695 1.882.79 2.038c1.485.157 2.976-5.569 2.976-5.569l-2.186-1.864z"/>
        <path fill="#A99BCE" d="M225.844 172.449l-.884 5.717s-.148 1.972-2.227 1.344c0 0-.965-.252-.023-2.451 1.233-2.873 1.212-4.62 1.212-4.62l1.922.01z"/>
        <path fill="#C1B0FF" d="M226.79 176.61c1.173-1.931 3.047-5.383 3.294-8.1l-3.712-1.72-.447 9.55c-.023.486.614.684.865.27"/>
        <path fill="#D7D3E2" d="M227.783 140.9s-.705-8.394 4.001-8.55c4.706-.16 7.938 1.054 9.427 9.135 0 0 8.683 9.91 2.77 24.364 0 0-2.287 4.985-13.203 2.87-.743-.142-1.49-.458-2.288-.752l-.707-27.067z"/>
        <path fill="#C2BCD3" d="M228.567 142.156s3.708 1.242 2.706 13.494c0 0-1.529 17.653-7.959 18.044-6.43.393 1.02-25.81 1.02-25.81s1.49-7.14 4.233-5.728"/>
        <path fill="#271C47" d="M224.96 136.977l2.989-.88a.39.39 0 0 1 .378.096l.422.42a.385.385 0 0 1-.122.63c-.668.286-1.972.583-3.667-.266M233.003 136.057a.727.727 0 1 1 0 0"/>
        <path fill="#C9C" d="M235.862 138.978a1.059 1.059 0 1 1-1.06-1.061c.584 0 1.06.477 1.06 1.061"/>
        <path fill="#C2B9EA" d="M257.743 189.868c.53 1.043-.77 2.772-2.906 3.86-2.137 1.09-4.3 1.125-4.83.085-.533-1.042.769-2.771 2.907-3.86 2.135-1.087 4.296-1.127 4.829-.085"/>
        <path fill="#9C9CEF" d="M85.987 69.876l7.478-7.238s-5.97-1.252-13.848 6.766l6.37.472zM76.937 70.68s.362-2.935-.967-7.76c-1.329-4.828-1.385-11.123-1.385-11.123s-15.508 10.98-9.518 27.584l11.87-8.7z"/>
        <path fill="#B9B9ED" d="M88.759 73.41s.906 4.639-3.515 5.812c0 0-2.568.577-4.652 3.081-2.084 2.505-4.777 4.086-7.085 4.596-2.31.512-6.657.957-9.302-.031-2.645-.992-10.746.083-13.087 1.404l-1.254-4.381 10.745.749s.907.318 2.6-2.43c1.69-2.746 3.855-5.501 7.967-8.21 4.109-2.706 6.796-4.552 10.34-4.972 3.545-.422 6.432 1.637 7.243 4.381"/>
        <path fill="#20115B" d="M87.64 77.839l1.06 3.763-2.564-2.694zM84.285 75.596a.657.657 0 1 0 1.052.788.658.658 0 0 0-1.052-.788"/>
        <path stroke="#271C47" stroke-linecap="round" stroke-width=".52" d="M74.476 85.256s2.065-.566 5.244 1.66M72.526 86.296s2.849 1.242 4.036 3.154"/>
        <path fill="#C2B9EA" d="M301.77 79.051l4.764-24.882s12.804 9.296 7.944 22.677l-12.708 2.205zM283.628 101.835l11.993-11.46 10.109 2.447s-10.396 12.654-22.102 9.013"/>
        <path fill="#D7CDF9" d="M293.967 89.165s15.705 12.964 25.512-9.329l13.397-2.744s-.226-1.102-2.375-1.568l1.855-1.775-34.014 5.896s-8.547.764-6.688 7.036l2.313 2.484z"/>
        <path fill="#20115B" d="M290.508 90.222l1.146-3.541 2.385-.572-.072 3.056zM294.924 83.661a.584.584 0 1 1-.642.973.584.584 0 0 1 .642-.973"/>
        <path fill="#7B72CE" d="M148.078 88.302s4.384 1.91 2.209 4.722c-2.18 2.811-10.702 5.73-17.654-4.604l-5.52-4.217s.928-.584 1.577-.266l.14-1.3s2.855 2.642 3.682 3.611c0 0 1.656.947 2.548.81 0 0-2.298-9.743 5.236-16.06l4.13 17.131s2.302-.639 3.652.173"/>
        <path fill="#8884D8" d="M152.396 76.036l-9.406 6.13 1.437 5.962s7.151-1.165 7.969-12.092"/>
        <path fill="#271C47" d="M147.715 90.358a.447.447 0 1 0 .514.732.447.447 0 0 0-.514-.732M149.325 91.865l-.237 2.262 2.5.94-.863-2.79z"/>
        <path stroke="#271C47" stroke-linecap="round" stroke-width=".52" d="M135.274 91.674s-.032 1.536-1.473 1.993M136.1 92.453s.285 1.574-1.104 2.205"/>
        <path fill="#8279D8" d="M197.237 222.116s-30.558 3.792-30.009 24.197c.552 20.401 24.806 27.987 24.806 27.987s9.437 2.394 20.9 3.41c-37.023-7.453-33.303-25.055-33.303-25.055 8.82-31.436 53.022-23.772 53.022-23.772v-.002a24.366 24.366 0 0 0-3.995-2.734c-10.336-5.685-31.42-4.031-31.42-4.031M153.281 205.035c2.335-2.38 4.56-5.447 4.037-8.74-.084-.52-.244-1.046-.583-1.448-.445-.526-1.14-.778-1.817-.897-2.178-.387-4.526.394-6.042 2.004l-.63.422c-3.683 1.346-6.492 4.837-7.018 8.726-.075.56-.106 1.142.087 1.674.162.452.48.835.838 1.153 1.595 1.4 4.018 1.527 6.01.797 1.992-.728 3.631-2.178 5.118-3.69M190.218 183.798a36.652 36.652 0 0 0-4.872-.703l.012.486a35.15 35.15 0 0 0-6.571 1.072c-.485.127-.982.27-1.38.574-1.132.855-1.053 2.667-.273 3.851 1.645 2.494 5.132 2.773 8.118 2.796.83.006 1.656.013 2.486.017 1.634.012 3.327.012 4.818-.66 1.491-.672 2.722-2.213 2.487-3.834-.308-2.12-2.73-3.152-4.825-3.6M234.763 197.625c-2.799-1.31-6.476-.749-8.47 1.609l.298-.256c-1.24 1.265-2.513 2.573-3.166 4.219-.655 1.645-.536 3.73.755 4.943 1.221 1.144 3.088 1.21 4.752 1.042 2.56-.262 5.201-.996 7.027-2.808 1.826-1.814 2.529-4.935 1.015-7.016-.555-.765-1.354-1.331-2.21-1.733M156.608 221.512c-1.05-.453-2.4-.041-3.018.922l-1.275.418a15.242 15.242 0 0 0-4.263 7.916c-.241 1.242-.324 2.56.104 3.75.424 1.191 1.443 2.234 2.7 2.387 2.01.25 3.56-1.668 4.616-3.397 1.541-2.517 3.005-5.251 3.03-8.203.015-1.498-.518-3.2-1.894-3.793M137.729 262.055l-.616-.755c-1.734-.458-3.858-.818-5.089.488-.705.745-.888 1.854-.81 2.876.224 2.985 2.566 5.69 5.487 6.339 1.494.333 3.282.05 4.15-1.211.494-.726.606-1.654.521-2.528-.214-2.207-1.645-4.254-3.643-5.21M184.717 286.697c1.553.793 3.298 1.359 5.024 1.12 1.726-.24 3.4-1.461 3.74-3.171.338-1.712-1.1-3.67-2.835-3.5l-1.181.084c-1.56-.812-3.5-1.132-5.062-.323-1.562.805-2.42 2.988-1.429 4.44.418.614 1.082 1.011 1.743 1.35"/>
        <path fill="#271C47" d="M258.768 167.138c-1.495.029-2.676 1.637-2.641 3.593.04 1.955 1.28 3.518 2.774 3.489 1.495-.027 2.677-1.635 2.64-3.591-.038-1.958-1.278-3.52-2.773-3.491M280.05 168.265c1.466-.295 2.341-2.088 1.954-4.007-.382-1.918-1.884-3.233-3.35-2.94-1.464.296-2.34 2.09-1.955 4.008.385 1.918 1.884 3.235 3.35 2.94"/>
        <path fill="#521E8E" d="M336.447 151.437c1.988-.038 3.558-2.176 3.508-4.775-.05-2.6-1.7-4.677-3.687-4.637-1.986.035-3.556 2.174-3.507 4.775.05 2.6 1.7 4.676 3.686 4.637M347.852 151.492c1.341.324 2.916-1.432 3.519-3.924.603-2.493.006-4.777-1.333-5.101-1.342-.325-2.918 1.433-3.521 3.925-.605 2.49-.006 4.775 1.335 5.1"/>
        <path fill="#E5E4EA" d="M295.59 188.083c1.277-1.332-.285-3.824-.285-3.824l-2.727 1.225s1.733 3.928 3.012 2.599M302.48 184.525c1.277-1.331-.083-3.46-.083-3.46l-2.728 1.234s1.532 3.556 2.811 2.226M305.872 179.495s1.522 3.534 2.801 2.205c1.277-1.33-.075-3.443-.075-3.443l-2.726 1.238zM317.354 174.503s1.643 3.372 2.579 1.783c.873-1.48-.098-2.986-.098-2.986l-1.87.907-.074.036-.537.26zM288.16 195.441c.017-.004.034-.006.046-.01l-.045.01zM301.595 192.697l-.06.014.06-.014zM310.726 190.706c-.09.02-.185.043-.296.066l.002.006.294-.072zM331.564 191.022c-.815.13-1.532.263-2.098.377l2.098-.377z"/>
        <path fill="#2EBF8B" d="M254.976 197.07l2.66 3.334-1.57-4.733zM342.316 184.385s-3.04 2.028-8.01 5.145c8.544-3.701 8.01-5.145 8.01-5.145"/>
        <path fill="#7565C9" d="M347.852 151.492c-1.341-.325-1.94-2.61-1.335-5.1.603-2.492 2.18-4.25 3.52-3.925 1.34.324 1.937 2.608 1.334 5.1-.603 2.493-2.178 4.25-3.52 3.925m-11.404.037c-1.986.037-3.635-2.039-3.687-4.64-.048-2.6 1.523-4.737 3.509-4.774 1.986-.037 3.637 2.039 3.685 4.64.052 2.598-1.519 4.737-3.507 4.774m-56.398 16.737c-1.467.292-2.964-1.023-3.35-2.941-.383-1.917.49-3.712 1.956-4.005 1.466-.296 2.966 1.021 3.35 2.94.385 1.918-.488 3.71-1.956 4.006m-21.146 5.955c-1.495.027-2.737-1.534-2.774-3.491-.037-1.954 1.144-3.564 2.639-3.591 1.493-.03 2.737 1.533 2.772 3.489.038 1.957-1.144 3.563-2.637 3.593m-22.944 32.153c-1.826 1.812-4.467 2.547-7.027 2.807-1.664.17-3.531.104-4.752-1.04-1.291-1.213-1.408-3.298-.755-4.944.653-1.645 1.926-2.954 3.165-4.219l-.297.256c1.994-2.36 5.671-2.919 8.47-1.608.857.401 1.656.967 2.213 1.733 1.512 2.08.809 5.201-1.017 7.015m-43.403-15.141c-1.492.672-3.184.672-4.819.657-.83-.004-1.655-.01-2.485-.017-2.986-.023-6.474-.3-8.119-2.796-.78-1.184-.859-2.996.273-3.85.399-.305.896-.448 1.38-.575a34.976 34.976 0 0 1 6.572-1.07l-.012-.488c1.638.125 3.267.36 4.872.703 2.094.447 4.517 1.48 4.827 3.601.233 1.619-.998 3.16-2.49 3.835m-8.154 89.674c1.562-.81 3.505-.487 5.064.322l1.18-.083c1.734-.17 3.175 1.789 2.836 3.5-.341 1.71-2.013 2.93-3.74 3.17-1.725.241-3.47-.327-5.023-1.12-.664-.339-1.325-.736-1.743-1.35-.994-1.45-.135-3.632 1.426-4.44m-28.929-47.399c-1.056 1.73-2.606 3.648-4.617 3.4-1.256-.156-2.275-1.198-2.699-2.39-.426-1.19-.345-2.507-.104-3.75a15.242 15.242 0 0 1 4.263-7.916l1.275-.416c.618-.963 1.967-1.377 3.018-.923 1.376.592 1.909 2.294 1.894 3.792-.025 2.952-1.489 5.686-3.03 8.203m-13.318-25.579c-.36-.316-.676-.7-.838-1.152-.193-.533-.164-1.115-.087-1.673.526-3.89 3.333-7.38 7.019-8.728l.628-.422c1.518-1.608 3.866-2.388 6.043-2.003.678.12 1.372.37 1.817.896.34.402.5.928.583 1.448.524 3.294-1.701 6.362-4.039 8.74-1.485 1.513-3.123 2.963-5.116 3.693-1.992.728-4.417.603-6.01-.799m-1.304 61.863c-.867 1.263-2.655 1.543-4.148 1.21-2.922-.647-5.264-3.351-5.488-6.339-.077-1.021.106-2.128.81-2.873 1.232-1.306 3.355-.946 5.09-.49l.615.757c1.998.954 3.43 3.002 3.643 5.207.086.874-.027 1.804-.522 2.528m210.333-128.15c-2.422-3.246-5.194-1.952-5.569.226-.376 2.179-.2 3.098-1.605 3.294-1.406.193-2.552-3.951-2.552-3.951s-.944-3.433-6.482-2.23c-5.536 1.202-5.197 8.311-5.197 8.311s.784 2.998-2.506 2.016c-3.292-.98-3.481 1.427-3.481 1.427s.158 2.374-2.246 2.183c-2.406-.192-.923-.448-5.85-1.675-4.927-1.228-5.964 3.237-6.561 5.55-.597 2.314-2.878 1.607-4.9-.207-2.019-1.813-4.59 2.692-4.59 2.692s-2.264 3.638-3.911 1.587c-1.65-2.051-3.29-.356-3.29-.356s-1.044 1.966-2.845 3.227c-1.8 1.26-3.56.237-3.953-1.885-.395-2.122-3.055-6.364-9.375-5.594-6.322.772-5.68 10.2-5.68 10.2l-4.29 1.2s-2.217-10.225-11.383-6.226c-6.724 2.933-4.688 11.732-3.124 16.217-1.429 4.681-6.116 4.313-8.156 4.346-2.094-.586-3.804-1.872-4.332-4.477-1.034-5.1-5.444-3.79-6.653-2.827-1.208.965-2.651 1.31-4.165 1.31-1.518 0-2.826-1.102-5.513-5.998-2.689-4.893-7.994.62-7.994.62s-3.446 3.518-6.478-.274c-3.03-3.79-7.096.62-7.096.62s-3.169 2.552-6.89-1.654c-3.72-4.205-6.615 1.034-6.615 1.034s-2.206 3.447-4.273 4.204c-2.067.76-2.618-.963-6.684-1.24-4.066-.276-7.235 2.62-7.235 2.62-5.236 3.376-6.547.828-10.473-.48-3.928-1.312-4.825.342-6.201 5.098-1.379 4.756-6.202 2.276-6.202 2.276-8.82-2.07-8.268 4.48-8.268 4.48s-.828 4.412-2.067 5.309c-1.242.895-3.188.807-6.7-.123-3.515-.93-4.256 4.05-4.532 6.327-.275 2.274.276 1.862-4.548 5.168-4.823 3.31-4.203 6.618-4.203 6.618s1.31 3.722-5.442 3.447c-6.753-.277-3.584 5.1-3.584 5.1l.965 1.932s2.41 3.445-1.792 6.755c-4.203 3.308-.071 5.516-.071 5.516s1.242.549 3.171 1.445c1.928.9.965 4.621-2.55 8.343-3.514 3.722 2.62 6.27 2.62 6.27 3.72 2.897 2.203 6.483 1.515 7.721-.69 1.242-.759 4.895 4.685 4.207 5.445-.689 4.598 3.24 4.598 3.24l.02 4.137c-.415 5.582 6.2 2.307 7.336 3.445 1.138 1.138 1.76 3.93 1.138 7.548-.62 3.618 2.067 4.964 7.856 3.93 5.788-1.036 7.443 4.136 7.443 4.136s3.203 7.444 7.233 3.826c4.032-3.62 5.996-.416 5.996-.416s.723.828 3.41 4.344c2.689 3.516 5.064 3.826 9.922-.102 4.858-3.93 5.891.826 5.891.826s.414 3.516 4.135 4.24c3.722.724 5.79-2.998 5.79-2.998s1.137-4.344 6.716.26c5.582 4.602 9.097 0 9.097 0 4.03-4.396 6.303-1.606 6.303-1.606 5.477 4.138 8.613-1.034 8.613-1.034 1.791-2.342 7.718-2.894 7.718-2.894 14.333-3.308 36.106-8.272 41.344-19.714 5.235-11.445-8.682-1.93-8.682-1.93s-4.822 2.895-22.878 6.478c-6.952 1.381-14.92 1.287-22.097.653-11.463-1.013-20.9-3.41-20.9-3.41s-24.255-7.583-24.804-27.986c-.55-20.403 30.007-24.198 30.007-24.198s21.085-1.654 31.423 4.034a24.211 24.211 0 0 1 3.992 2.732c6.422 5.438 6.653 11.916 6.653 11.916 10.61 4.55 26.733-1.654 26.733-1.654.277-5.24-2.38-8.852-4.862-12.297-.158-.223-7.726-5.39 12.842-12.818 0 0 7.332-1.562 57.12-22.531a539.26 539.26 0 0 0 3.167-1.968c4.97-3.117 8.011-5.143 8.011-5.143 1.402-5.699-6.386-4.367-11.032-3.115l-2.047.604c-.763.241-1.235.412-1.235.412l-1.192.297-4.304 1.08-4.538 1.138-3.85.965-3.628.91s-.204.047-.568.128l-.293.071-.002-.006c-.876.195-4.33.955-4.33.955-1.323.289-17.882 4.872-17.882 4.872-.013.004-13.932 2.312-15.903 2.395-1.437.06-2.458-.406-3.161-.982-.8-.653-.447-1.958.565-2.158 2.679-.524 8.978-2.055 23.662-6.47l-.925.454 28.78-12.548c5.67-2.203 10.225-4.19 13.916-5.995l.117-.057c11.103-5.448 14.293-9.233 16.235-12.297 2.591-4.088 2.903-10.155.482-13.398"/>
        <path stroke="#271C47" stroke-linecap="round" stroke-width=".734" d="M106.96 262.164l1.885 10.94"/>
        <path stroke="#319DA8" stroke-linecap="round" stroke-width=".986" d="M90.131 269.535s5.1 11.58 13.229 0c0 0 5.238 8.547 11.577 0"/>
        <path fill="#7565C9" d="M110.235 224.578c-.32-1.074-.164-2.239.466-3.164.854-1.265 1.892-3.16 1.634-4.634 0 0 .152-1.366-.815-2.554-.728-.893-1.88-1.334-3.032-1.26-2.096.134-6.353 1.024-7.468 5.94-.179.791-.636 1.49-1.26 2.008-3.793 3.142-15.89 15.885-5.532 44.212.127.354 1.446 3.953.838 7.39 0 0-.655 2.873-2.857 4.157-.428.247-.287.905.202.988l11.745 1.995c.41.069.74-.333.587-.72-.73-1.86-3.677-5.559.58-12.578 3.344-5.12 11.307-20.35 4.912-41.78"/>
        <path fill="#20115B" d="M108.639 217.752l1.029-4.79 16.36-7.28-13.694 11.098z"/>
        <path fill="#A99BCE" d="M92.623 260.281s7.472-.647 7.352-17.981c0 0 .424 17.91 7.726 19.864 0 0 10.18-14.07 2.422-39.287 0 0 2.548-2.353 2.213-6.096 0 0-1.547 5.546-7.59 4.727 0 0-1.546-1.228-1.454-3.09 0 0-21.501 10.257-10.669 41.863"/>
        <path fill="#20115B" d="M107.453 213.083s-4.297.971-4.162 5.334c0 0-.043 1.79 1.454 3.091 0 0-1.994-6.183 2.708-8.425"/>
        <path fill="#DEDAEA" d="M110.31 213.117s-4.968-1.444-5.843 4.213c0 0-.387 2.871.326 4.213 0 0 5.542 1.186 7.586-4.729l-2.069-3.697z"/>
        <path fill="#20115B" d="M107.975 216.26a.737.737 0 1 1 0-1.044c.289.289.289.755 0 1.044M194.227 216.902l-2.71-2.652h4.228"/>
        <path stroke="#271C47" stroke-linecap="round" stroke-width=".734" d="M203.291 241.835l-.946 6.872M211.268 239.854l3.544 7.823"/>
        <path stroke="#319DA8" stroke-linecap="round" stroke-width=".986" d="M192.856 244.84s5.1 11.58 13.23 0c0 0 5.237 8.547 11.578 0"/>
        <path fill="#9C9CEF" d="M197.367 212.28s-3.853 1.85-3.853 6.273v4.423s-.562 3.256.24 6.152c.804 2.894 3.734 11.457 10.958 13.146l.443 8.083 2.529-2.655 4.373 1.85-2.167-8.283s4.937-4.181 5.02-10.173c.08-5.99-3.628-9.622-3.628-9.622s-2.835-3.325-3.64-5.362c-.8-2.036-6.155-5.359-10.275-3.832"/>
        <path fill="#B9B9ED" d="M194.235 215.456s3.132 1.084 5.179.283c2.048-.805 2.811 1.285 2.811 1.285s.281 1.89-2.73 2.734c-3.012.845-4.977.483-5.981 0 0 0-.214-2.9.721-4.302"/>
        <path fill="#20115B" d="M199.093 217.52a.616.616 0 0 1-1.231 0 .616.616 0 1 1 1.231 0"/>
        <path fill="#B9B9ED" d="M194.654 223.717s3.58-2.732 6.888 3.147c3.304 5.878 5.62 13.825 5.62 13.825s-6.007-.322-9.245-2.23c-3.236-1.908-5.203-9.196-5.006-12.342 0 0 .229-1.81 1.743-2.4M210.405 219.938s-1.776 1.575-1.776 5.954c0 4.38-.464 14.15-.464 14.15s5.166-1.511 6.682-5.936c0 0 1.115-6.244-1.15-9.575-2.267-3.328-3.292-4.593-3.292-4.593"/>
        <path fill="#C9C" d="M257.743 186.786c.53 1.043-.77 2.772-2.906 3.86-2.137 1.09-4.3 1.125-4.83.085-.533-1.042.769-2.771 2.907-3.86 2.135-1.087 4.296-1.127 4.829-.085"/>
        <path fill="#2EAA7B" d="M282.407 236.667c-6.615 10.202-14.332 0-14.332 0-3.307 8.274-10.473 0-10.473 0-5.65 10.065-11.3 0-11.3 0-6.34 8.546-11.578 0-11.578 0-8.13 11.58-13.228 0-13.228 0v12.012h60.911v-12.012z"/>
        <path stroke="#319DA8" stroke-linecap="round" stroke-width=".986" d="M221.23 236.667s5.099 11.58 13.23 0c0 0 5.237 8.546 11.577 0 0 0 5.65 10.065 11.299 0 0 0 7.168 8.274 10.475 0 0 0 7.717 10.202 14.332 0"/>
        <path fill="#A375FC" d="M283.82 113.976a1.91 1.91 0 0 1 0 2.697 1.909 1.909 0 0 1-2.694 0 1.91 1.91 0 0 1 0-2.697 1.905 1.905 0 0 1 2.695 0M283.82 139.11a1.91 1.91 0 0 1 0 2.697 1.905 1.905 0 0 1-2.694 0 1.91 1.91 0 0 1 0-2.696 1.909 1.909 0 0 1 2.695 0"/>
    </g>
</svg>
