<svg xmlns="http://www.w3.org/2000/svg" xmlns:xlink="http://www.w3.org/1999/xlink" width="617" height="472" viewBox="0 0 617 472">
    <defs>
        <path id="a" d="M67.053 3.734L.783 142.995c-1.924 4.044 1.025 8.713 5.504 8.713h131.02c4.455 0 7.404-4.623 5.526-8.663L78.08 3.783C76.99 1.435 74.772.26 72.555.26c-2.2 0-4.4 1.157-5.502 3.475"/>
        <linearGradient id="b" x1="50%" x2="50%" y1="-3.072%" y2="64.724%">
            <stop offset="0%" stop-color="#00A346"/>
            <stop offset="100%" stop-color="#01BC85"/>
        </linearGradient>
        <path id="d" d="M40.921 2.31L.671 86.895c-1.168 2.456.622 5.291 3.343 5.291H83.59c2.706 0 4.497-2.808 3.356-5.261L47.62 2.34C46.956.914 45.61.2 44.263.2c-1.336 0-2.672.703-3.342 2.11"/>
        <linearGradient id="e" x1="50%" x2="50%" y1="-3.072%" y2="64.724%">
            <stop offset="0%" stop-color="#00A346"/>
            <stop offset="100%" stop-color="#01BC85"/>
        </linearGradient>
        <path id="g" d="M75.778 4.16L.754 161.82c-2.179 4.578 1.16 9.863 6.23 9.863h148.33c5.043 0 8.381-5.235 6.255-9.807L88.264 4.215c-1.237-2.657-3.747-3.99-6.257-3.99-2.49 0-4.98 1.31-6.229 3.935"/>
        <linearGradient id="h" x1="50%" x2="50%" y1="-3.072%" y2="64.724%">
            <stop offset="0%" stop-color="#00A346"/>
            <stop offset="100%" stop-color="#01BC85"/>
        </linearGradient>
        <path id="j" d="M52.132 2.923L.812 110.769c-1.49 3.131.793 6.746 4.261 6.746h101.465c3.45 0 5.733-3.58 4.279-6.709L60.672 2.961C59.827 1.142 58.11.23 56.392.23c-1.703 0-3.406.896-4.26 2.692"/>
        <linearGradient id="k" x1="50%" x2="50%" y1="-3.072%" y2="64.724%">
            <stop offset="0%" stop-color="#00A346"/>
            <stop offset="100%" stop-color="#01BC85"/>
        </linearGradient>
        <path id="m" d="M0 .067h615.717v148.14H0z"/>
        <path id="o" d="M.259.141h8.158v8.158H.26z"/>
    </defs>
    <g fill="none" fill-rule="evenodd">
        <path fill="#F4F6F1" d="M95.483 334.893c0-130.053 105.429-235.482 235.482-235.482 130.052 0 235.481 105.429 235.481 235.482"/>
        <g transform="translate(57.703 186.143)">
            <mask id="c" fill="#fff">
                <use xlink:href="#a"/>
            </mask>
            <path fill="url(#b)" d="M67.053 3.734L.783 142.995c-1.924 4.044 1.025 8.713 5.504 8.713h131.02c4.455 0 7.404-4.623 5.526-8.663L78.08 3.783C76.99 1.435 74.772.26 72.555.26c-2.2 0-4.4 1.157-5.502 3.475" mask="url(#c)"/>
        </g>
        <g transform="translate(141.994 245.666)">
            <mask id="f" fill="#fff">
                <use xlink:href="#d"/>
            </mask>
            <path fill="url(#e)" d="M40.921 2.31L.671 86.895c-1.168 2.456.622 5.291 3.343 5.291H83.59c2.706 0 4.497-2.808 3.356-5.261L47.62 2.34C46.956.914 45.61.2 44.263.2c-1.336 0-2.672.703-3.342 2.11" mask="url(#f)"/>
        </g>
        <g transform="translate(428.022 166.17)">
            <mask id="i" fill="#fff">
                <use xlink:href="#g"/>
            </mask>
            <path fill="url(#h)" d="M75.778 4.16L.754 161.82c-2.179 4.578 1.16 9.863 6.23 9.863h148.33c5.043 0 8.381-5.235 6.255-9.807L88.264 4.215c-1.237-2.657-3.747-3.99-6.257-3.99-2.49 0-4.98 1.31-6.229 3.935" mask="url(#i)"/>
        </g>
        <g transform="translate(361.309 221.298)">
            <mask id="l" fill="#fff">
                <use xlink:href="#j"/>
            </mask>
            <path fill="url(#k)" d="M52.132 2.923L.812 110.769c-1.49 3.131.793 6.746 4.261 6.746h101.465c3.45 0 5.733-3.58 4.279-6.709L60.672 2.961C59.827 1.142 58.11.23 56.392.23c-1.703 0-3.406.896-4.26 2.692" mask="url(#l)"/>
        </g>
        <g transform="translate(.577 323.565)">
            <mask id="n" fill="#fff">
                <use xlink:href="#m"/>
            </mask>
            <path fill="#2EBF8B" d="M122.273 10.435l-85.543.875c-8.709.089-17.8.27-25.497 4.345C3.536 19.731-2.16 29.011.793 37.203c3.555 9.854 16.161 12.225 26.605 13.04l29.775 2.324c8.9.694 18.129 1.486 25.884 5.906 7.756 4.42 13.58 13.579 11.22 22.188-1.7 6.2-12.992 7.624-16.65 12.912-3.658 5.288-2.67 11.55-.086 17.438 1.19 2.714 8.653 4.881 11.66 5.337 17.486 2.65 38.853 2.587 56.787 3.88-8.777 2.285-8.996 16.105-2.118 22.017 6.877 5.912 16.837 6.076 25.906 5.934l322.761-5.034c20.367-.318 41.8-.924 59.29-11.366 4.65-2.776 9.168-6.585 10.505-11.833 1.955-7.681-3.75-15.458-10.623-19.404-14.506-8.33-32.575-4.764-49.244-6.158-16.67-1.393-41.307-1.885-36.59-27.413 2.22-13.596 50.962-5.581 74.494-4.718 13.37.49 26.913 1.484 40.006-1.264 13.094-2.748 25.987-9.896 32.155-21.768 6.168-11.873 3.36-28.71-8.224-35.402C597.481-.124 589.147-.076 581.269.15 516.08 2.03 451.029 8.623 385.816 8.17" mask="url(#n)"/>
        </g>
        <path fill="#069F98" d="M403.355 344.223s-14.592 17.428-21.887 36.478v21.482s23.913-19.86 21.887-57.96"/>
        <path stroke="#069F98" stroke-linecap="round" stroke-linejoin="round" stroke-width="4.48" d="M308.436 365.64s15.606 5.065 36.66 5.772c22.821.767 38.69 8.364 35.305 40.071l1.067-40.104c0-27.562-12.7-31.48-12.7-31.48"/>
        <path fill="#069F98" d="M330.899 379.89s30.683-1.667 40.626 7.679c0 0 7.81 9.682 8.876 19.038 0 0-38.462-14.557-49.502-26.716"/>
        <path fill="#A97DFF" d="M329.319 327.808s20.654 25.16 49.193 13.894c28.54-11.265 30.794-32.295 31.92-45.438 0 0 .008-12.368-7.886-12.392-4.976-.015-8.637 6.384-8.637 6.384-1.562 1.911-3.497 8.781-7.51 2.253-4.737-7.704-11.642-8.919-15.022-7.792-3.38 1.126-4.678 6.653-5.35 9.576-.675 2.927-2.59 4.1-7.042 1.596-3.38-1.902-5.07-5.54-9.951-2.629-4.585 2.733-1.315 10.139-1.315 10.139s4.037 7.51-5.257 3.755c0 0-10.926-2.82-16.148 3.38-6.008 7.135 3.005 17.274 3.005 17.274"/>
        <path fill="#7461CE" d="M330.537 360.718s30.112 8.375 43.34-16.293c13.226-24.67 1.852-42.473-5.455-53.443 0 0-7.62-9.743-13.215-5.391-3.526 2.742-2.169 9.807-2.169 9.807.075 2.37 2.942 8.85-3.92 5.931-8.097-3.443-13.727-.577-15.422 2.181-1.694 2.758.796 7.828 2.122 10.501 1.33 2.678.698 4.662-3.992 5.155-3.561.374-7-1.555-8.655 3.439-1.556 4.69 5.322 8.71 5.322 8.71s7.484 3.678-1.4 5.867c0 0-9.463 3.827-9.33 11.6.152 8.943 12.774 11.936 12.774 11.936"/>
        <path fill="#95CBC6" d="M186.245 249.43a1.938 1.938 0 1 1-1.968-3.337 1.938 1.938 0 0 1 1.968 3.337"/>
        <path stroke="#BCA9FF" stroke-width="1.493" d="M26.584 175.866L225.34 292.39l-16.684 9.843 34.509 19.704M196.377 329.359l-55.717-32.726 12.906-7.615 52.476 30.89 7.87-4.644-34.237-19.816"/>
        <path fill="#BC8DFF" d="M183.897 295.115a3.152 3.152 0 1 1-6.304 0 3.152 3.152 0 0 1 6.304 0"/>
        <g fill="#A97DFF">
            <path d="M146.856 275.65a1.937 1.937 0 1 1-3.87.2 1.937 1.937 0 0 1 3.87-.2M155.783 280.314a1.936 1.936 0 1 1-3.868.2 1.936 1.936 0 0 1 3.868-.2M164.709 284.978a1.937 1.937 0 1 1-3.869.2 1.937 1.937 0 0 1 3.869-.2M173.635 289.64a1.937 1.937 0 1 1-3.868.202 1.937 1.937 0 0 1 3.868-.201"/>
        </g>
        <path fill="#BC8DFF" d="M201.07 331.106a3.152 3.152 0 1 1-6.304 0 3.152 3.152 0 0 1 6.304 0"/>
        <g fill="#A375FC">
            <path d="M265.787 303.989a7.47 7.47 0 1 1 9.079-11.863 7.47 7.47 0 0 1-9.08 11.863M244.154 332.823a7.47 7.47 0 1 1 9.08-11.863 7.47 7.47 0 0 1-9.08 11.863M218.718 365.484a7.47 7.47 0 1 1 9.08-11.863 7.47 7.47 0 0 1-9.08 11.863M275.763 334.278a7.47 7.47 0 1 1 9.079-11.862 7.47 7.47 0 0 1-9.08 11.862M251.624 365.815a7.47 7.47 0 1 1 9.08-11.863 7.47 7.47 0 0 1-9.08 11.863M282.839 365.801a7.47 7.47 0 1 1 9.079-11.862 7.47 7.47 0 0 1-9.08 11.862"/>
        </g>
        <g fill="#A97DFF">
            <path d="M407.056 188.497a4.078 4.078 0 1 1-1.799-7.955 4.078 4.078 0 0 1 1.799 7.955M400.574 208.685a4.078 4.078 0 1 1-1.799-7.955 4.078 4.078 0 0 1 1.8 7.955M394.092 228.873a4.079 4.079 0 1 1-1.798-7.956 4.079 4.079 0 0 1 1.798 7.956M387.61 249.061a4.078 4.078 0 1 1-1.8-7.955 4.078 4.078 0 0 1 1.8 7.955M416.94 157.715a4.078 4.078 0 1 1-1.799-7.956 4.078 4.078 0 0 1 1.799 7.956M437.14 94.802a4.079 4.079 0 1 1-1.798-7.957 4.079 4.079 0 0 1 1.798 7.957"/>
        </g>
        <path fill="#A375FC" d="M379.506 259.456a8.158 8.158 0 1 1-4.81 15.592 8.158 8.158 0 0 1 4.81-15.592"/>
        <path fill="#BC8DFF" d="M362.382 213.47a4.503 4.503 0 1 1 8.14-3.852 4.503 4.503 0 0 1-8.14 3.852M341.282 223.455a4.503 4.503 0 1 1 8.14-3.853 4.503 4.503 0 0 1-8.14 3.853M320.183 233.44a4.503 4.503 0 1 1 8.14-3.853 4.503 4.503 0 0 1-8.14 3.852M359.37 232.458a4.503 4.503 0 1 1 8.14-3.852 4.503 4.503 0 0 1-8.14 3.852M337.728 242.699a4.503 4.503 0 1 1 8.14-3.852 4.503 4.503 0 0 1-8.14 3.852M354.462 251.306a4.503 4.503 0 1 1 8.14-3.852 4.503 4.503 0 0 1-8.14 3.852"/>
        <g fill="#A97DFF">
            <path d="M179.611 341.309a1.936 1.936 0 1 1-3.87-.158 1.936 1.936 0 0 1 3.87.158M188.07 346.777a1.938 1.938 0 1 1-3.873-.16 1.938 1.938 0 0 1 3.872.16M196.527 352.245a1.937 1.937 0 1 1-3.872-.159 1.937 1.937 0 0 1 3.872.159M204.984 357.713a1.936 1.936 0 1 1-3.87-.158 1.936 1.936 0 0 1 3.87.158"/>
        </g>
        <path fill="#BC8DFF" d="M378.536 193.611a2.932 2.932 0 1 1-5.577-1.816 2.932 2.932 0 0 1 5.577 1.816"/>
        <g fill="#A97DFF">
            <path d="M389.287 155.646a1.937 1.937 0 1 1-.839-3.783 1.937 1.937 0 0 1 .84 3.783M386.169 165.222a1.936 1.936 0 1 1-.84-3.781 1.936 1.936 0 0 1 .84 3.78M383.051 174.798a1.937 1.937 0 1 1-.838-3.783 1.937 1.937 0 0 1 .838 3.783M379.933 184.375a1.937 1.937 0 1 1-.838-3.783 1.937 1.937 0 0 1 .838 3.783"/>
        </g>
        <g fill="#A97DFF">
            <path d="M378.192 109.406a1.937 1.937 0 1 1-.859-3.779 1.937 1.937 0 0 1 .86 3.779M375.126 118.999a1.938 1.938 0 1 1-.859-3.78 1.938 1.938 0 0 1 .86 3.78M372.06 128.592a1.937 1.937 0 1 1-.86-3.778 1.937 1.937 0 0 1 .86 3.778M368.994 138.185a1.937 1.937 0 1 1-.86-3.779 1.937 1.937 0 0 1 .86 3.779"/>
        </g>
        <path fill="#A375FC" d="M27.689 170.066a5.146 5.146 0 1 1-6.267 8.165 5.146 5.146 0 0 1 6.267-8.165"/>
        <path fill="#069F98" d="M107.342 348.537s10.02 11.968 15.03 25.05v14.752s-16.422-13.639-15.03-39.802"/>
        <path stroke="#069F98" stroke-linecap="round" stroke-linejoin="round" stroke-width="3.58" d="M123.104 394.725l-.732-27.54c0-18.927 8.721-21.617 8.721-21.617"/>
        <path fill="#069F98" d="M157.098 373.03s-21.07-1.145-27.898 5.273c0 0-5.363 6.649-6.096 13.074 0 0 26.413-9.997 33.994-18.347"/>
        <path fill="#A97DFF" d="M158.183 337.264s-14.183 17.278-33.781 9.541c-19.6-7.735-21.146-22.177-21.92-31.203 0 0-.006-8.493 5.415-8.51 3.417-.01 5.932 4.385 5.932 4.385 1.072 1.312 2.4 6.03 5.157 1.547 3.253-5.29 7.994-6.125 10.315-5.351 2.321.773 3.213 4.569 3.675 6.576.463 2.01 1.778 2.815 4.835 1.096 2.321-1.306 3.482-3.804 6.834-1.806 3.148 1.877.902 6.963.902 6.963s-2.772 5.158 3.61 2.58c0 0 7.504-1.938 11.09 2.32 4.126 4.9-2.064 11.862-2.064 11.862"/>
        <path fill="#7461CE" d="M157.347 359.864s-20.679 5.751-29.762-11.189c-9.083-16.94-1.272-29.166 3.746-36.7 0 0 5.233-6.69 9.075-3.702 2.421 1.883 1.49 6.735 1.49 6.735-.052 1.627-2.022 6.077 2.69 4.073 5.562-2.365 9.428-.397 10.591 1.497 1.164 1.894-.546 5.376-1.457 7.212-.912 1.839-.479 3.2 2.742 3.54 2.445.256 4.806-1.068 5.944 2.361 1.067 3.22-3.656 5.981-3.656 5.981s-5.14 2.526.962 4.03c0 0 6.498 2.628 6.407 7.965-.104 6.141-8.772 8.197-8.772 8.197"/>
        <path fill="#069F98" d="M404.4 370.579s10.02 11.968 15.03 25.05v14.752s-16.421-13.638-15.03-39.802"/>
        <path stroke="#069F98" stroke-linecap="round" stroke-linejoin="round" stroke-width="3.58" d="M420.163 416.767l-.732-27.54c0-18.927 8.721-21.617 8.721-21.617"/>
        <path fill="#069F98" d="M454.157 395.072s-21.07-1.145-27.898 5.273c0 0-5.363 6.649-6.096 13.074 0 0 26.413-9.997 33.994-18.347"/>
        <path fill="#A97DFF" d="M455.243 359.306s-14.184 17.278-33.782 9.542c-19.6-7.736-21.146-22.178-21.92-31.204 0 0-.006-8.493 5.415-8.51 3.417-.01 5.932 4.385 5.932 4.385 1.072 1.312 2.401 6.03 5.157 1.547 3.253-5.29 7.994-6.125 10.315-5.351 2.321.774 3.213 4.569 3.675 6.576.463 2.01 1.778 2.816 4.835 1.096 2.32-1.306 3.482-3.804 6.834-1.805 3.148 1.876.903 6.963.903 6.963s-2.772 5.157 3.61 2.578c0 0 7.502-1.937 11.088 2.321 4.126 4.9-2.062 11.862-2.062 11.862"/>
        <path fill="#7461CE" d="M454.406 381.906s-20.679 5.751-29.762-11.189c-9.083-16.94-1.273-29.166 3.746-36.7 0 0 5.232-6.69 9.075-3.702 2.421 1.883 1.489 6.735 1.489 6.735-.052 1.627-2.02 6.077 2.692 4.073 5.56-2.365 9.426-.396 10.59 1.497 1.163 1.894-.546 5.376-1.457 7.212-.912 1.839-.48 3.201 2.742 3.54 2.446.257 4.806-1.068 5.943 2.361 1.069 3.22-3.654 5.982-3.654 5.982s-5.14 2.525.961 4.029c0 0 6.498 2.628 6.407 7.965-.104 6.142-8.772 8.197-8.772 8.197"/>
        <path fill="#069F98" d="M340.876 403.702s-10.955 13.084-16.432 27.386v16.128s17.954-14.91 16.432-43.514"/>
        <path stroke="#069F98" stroke-linecap="round" stroke-linejoin="round" stroke-width="3.913" d="M323.644 454.197l.8-30.108c0-20.692-9.534-23.633-9.534-23.633"/>
        <path fill="#069F98" d="M286.48 430.48s23.035-1.253 30.5 5.763c0 0 5.862 7.27 6.663 14.293 0 0-28.875-10.928-37.163-20.057"/>
        <path fill="#A97DFF" d="M285.293 391.378s15.506 18.889 36.932 10.431c21.427-8.458 23.118-24.245 23.964-34.113 0 0 .007-9.285-5.92-9.303-3.736-.011-6.485 4.793-6.485 4.793-1.172 1.435-2.625 6.592-5.638 1.691-3.556-5.783-8.74-6.696-11.277-5.85-2.538.846-3.513 4.995-4.018 7.19-.506 2.197-1.944 3.077-5.286 1.197-2.537-1.427-3.806-4.158-7.47-1.973-3.442 2.052-.987 7.612-.987 7.612s3.03 5.639-3.947 2.82c0 0-8.203-2.119-12.123 2.537-4.51 5.356 2.255 12.968 2.255 12.968"/>
        <path fill="#7461CE" d="M286.208 416.085s22.607 6.288 32.537-12.232 1.392-31.886-4.095-40.123c0 0-5.72-7.314-9.921-4.047-2.648 2.06-1.628 7.363-1.628 7.363.056 1.78 2.209 6.644-2.943 4.453-6.08-2.585-10.306-.433-11.578 1.637-1.272 2.07.598 5.877 1.593 7.884.998 2.01.524 3.5-2.998 3.87-2.673.28-5.254-1.167-6.498 2.582-1.167 3.52 3.996 6.539 3.996 6.539s5.62 2.761-1.051 4.404c0 0-7.104 2.874-7.005 8.709.115 6.714 9.591 8.961 9.591 8.961"/>
        <path fill="#069F98" d="M539.487 319.563s10.02 11.969 15.03 25.05v14.753s-16.422-13.639-15.03-39.803"/>
        <path stroke="#069F98" stroke-linecap="round" stroke-linejoin="round" stroke-width="3.58" d="M555.25 365.752l-.733-27.54c0-18.927 8.721-21.618 8.721-21.618"/>
        <path fill="#069F98" d="M589.243 344.057s-21.07-1.145-27.898 5.273c0 0-5.363 6.648-6.096 13.074 0 0 26.413-9.997 33.994-18.347"/>
        <path fill="#A97DFF" d="M590.328 308.291s-14.183 17.278-33.781 9.542c-19.6-7.737-21.146-22.178-21.92-31.204 0 0-.006-8.493 5.415-8.51 3.417-.01 5.932 4.384 5.932 4.384 1.071 1.313 2.4 6.03 5.157 1.547 3.253-5.29 7.994-6.124 10.315-5.35 2.32.773 3.213 4.569 3.675 6.575.463 2.01 1.778 2.816 4.835 1.096 2.32-1.305 3.482-3.803 6.834-1.805 3.148 1.877.902 6.963.902 6.963s-2.772 5.157 3.61 2.579c0 0 7.503-1.938 11.09 2.32 4.125 4.9-2.064 11.863-2.064 11.863"/>
        <path fill="#7461CE" d="M589.492 330.89s-20.68 5.752-29.762-11.188c-9.083-16.94-1.273-29.166 3.746-36.7 0 0 5.233-6.69 9.075-3.703 2.421 1.884 1.489 6.735 1.489 6.735-.052 1.627-2.02 6.078 2.692 4.074 5.56-2.365 9.426-.397 10.59 1.497 1.163 1.894-.546 5.376-1.457 7.212-.912 1.838-.48 3.2 2.742 3.539 2.445.257 4.806-1.067 5.943 2.362 1.068 3.22-3.655 5.982-3.655 5.982s-5.14 2.525.962 4.028c0 0 6.498 2.628 6.407 7.966-.104 6.141-8.772 8.197-8.772 8.197"/>
        <path stroke="#BCA9FF" stroke-width="1.493" d="M429.132 273.814l67.653-151.32"/>
        <path fill="#A375FC" d="M499.773 124.482a5.624 5.624 0 1 1-2.894-10.87 5.624 5.624 0 0 1 2.894 10.87"/>
        <path fill="#BC8DFF" d="M464.626 171.83a5.624 5.624 0 1 1-2.894-10.87 5.624 5.624 0 0 1 2.894 10.87"/>
        <path fill="#A375FC" d="M429.545 279.248a5.624 5.624 0 1 1-2.893-10.87 5.624 5.624 0 0 1 2.893 10.87"/>
        <path fill="#F4F6F1" d="M224.38 135.986a2.648 2.648 0 1 1-5.297 0 2.648 2.648 0 0 1 5.296 0"/>
        <path stroke="#BCA9FF" stroke-width="1.493" d="M512.801 207.04L564.03 92.458"/>
        <path fill="#A375FC" d="M567.017 94.446a5.625 5.625 0 1 1-2.894-10.87 5.625 5.625 0 0 1 2.894 10.87M514.249 212.475a5.625 5.625 0 1 1-2.895-10.87 5.625 5.625 0 0 1 2.895 10.87"/>
        <g fill="#A97DFF">
            <path d="M520.883 75.166a1.937 1.937 0 1 1-.268-3.865 1.937 1.937 0 0 1 .268 3.865M516.378 84.173a1.937 1.937 0 1 1-.268-3.865 1.937 1.937 0 0 1 .268 3.865M511.873 93.18a1.938 1.938 0 1 1-.267-3.866 1.938 1.938 0 0 1 .267 3.867M507.367 102.188a1.938 1.938 0 1 1-.267-3.866 1.938 1.938 0 0 1 .267 3.866"/>
        </g>
        <path fill="#A97DFF" d="M580.042 71.496a4.079 4.079 0 1 1-1.798-7.957 4.079 4.079 0 0 1 1.798 7.957"/>
        <g transform="translate(595.005 .384)">
            <mask id="p" fill="#fff">
                <use xlink:href="#o"/>
            </mask>
            <path fill="#A97DFF" d="M5.237 8.198A4.079 4.079 0 1 1 3.44.241a4.079 4.079 0 0 1 1.798 7.957" mask="url(#p)"/>
        </g>
        <g fill="#A97DFF">
            <path d="M58.609 243.263a3.78 3.78 0 1 1-7.382 1.637 3.78 3.78 0 0 1 7.382-1.637M77.297 249.348a3.78 3.78 0 1 1-7.38 1.637 3.78 3.78 0 0 1 7.38-1.637M95.986 255.433a3.78 3.78 0 1 1-7.382 1.637 3.78 3.78 0 0 1 7.382-1.637M114.674 261.518a3.78 3.78 0 1 1-7.381 1.637 3.78 3.78 0 0 1 7.381-1.637"/>
        </g>
        <path fill="#80555B" d="M296.855 282.379c6.399 2.996 10.299 4.362 10.299 4.362s-4.769-2.038-10.19-4.522l-.109.16"/>
        <path fill="#D7D3E2" d="M257.92 128.19a58.776 58.776 0 0 1-.196 3.315s.156-1.26.196-3.314M257.802 131.75l-.078-.245.078.246zM307.154 286.74l-4.624-14.52 4.624 14.52zM259.794 230.121l-16.281-47.914-4.477-13.174-.001-.003c-24.123 16.268-42.166 8.867-42.312 8.806 7.384 19.53 17.63 35.968 28.928 49.679 9.62 11.673 19.997 21.366 30.025 29.294.014.004 13.452 4.4 4.118-26.688M256.477 257.445a216.3 216.3 0 0 0 27.946 18.553l-.003-.002s-20.927-13.109-27.943-18.55M272.652 178.387l29.878 93.833-29.878-93.833M286.6 277.194c3.855 2.088 7.32 3.81 10.255 5.185l.109-.16c-3.569-1.634-7.396-3.453-10.363-5.025"/>
        <path fill="#5F45BA" d="M343.276 74.14l-49.455 40.662c.12.424.256.853.368 1.275 6.976 26.222-13.851 44.43-24.832 51.963l.86 2.7 2.435 7.647c1.91.037 6.503-.12 12.596-1.92 8.443-2.492 19.765-8.144 30.84-20.864 0 0 13.932-15.802 20.904-46.015 6.97-30.213 6.284-35.448 6.284-35.448M270.217 170.74l-.86-2.7zM272.652 178.387l-2.435-7.647 2.435 7.647z"/>
        <path fill="#7261C9" d="M293.896 116.327c-.094-.454-.163-.902-.275-1.36l.2-.165c-.125-.442-.235-.88-.383-1.328l-12.13-36.676-23.506 54.953 3.858 12.116 32.236-27.54z"/>
        <path fill="#8F4BD1" d="M261.66 143.867l-3.857-12.116zM293.896 116.327l.293-.25c-.113-.422-.248-.851-.368-1.275l-.2.164c.112.459.181.907.275 1.36"/>
        <path fill="#773BBC" d="M268.05 163.934l-6.39-20.067 3.218 10.106z"/>
        <path fill="#5E5AAF" d="M294.189 116.077l-.293.25-32.236 27.54 6.39 20.067 1.307 4.105c10.98-7.533 31.808-25.74 24.832-51.962"/>
        <path fill="#773BBC" d="M268.05 163.934l1.307 4.106z"/>
        <path fill="#5F45BA" d="M286.6 277.194c-.712-.386-1.438-.784-2.177-1.196a64.53 64.53 0 0 0 2.178 1.196"/>
        <path fill="#5F45BA" d="M302.53 272.22l-29.878-93.833-2.435-7.647-.86-2.7-1.307-4.106-3.172-9.961-11.7 6.528-.885.494-9.232 5.151 4.581 12.167 36.778 97.683.003.002c.74.412 1.465.81 2.178 1.196 2.967 1.572 6.794 3.391 10.363 5.025a485.256 485.256 0 0 0 10.19 4.522l-4.624-14.522zM234.783 124.291a7.398 7.398 0 1 1-.31-14.793 7.398 7.398 0 0 1 .31 14.793m-13.028-35.506c-17.083-.98-25.838 8.29-30.224 16.538l.335.07 5.52 1.173a3.85 3.85 0 0 1 3 4.391l-.801 4.87a3.81 3.81 0 0 1-1.467 2.415l11.65.904c-1.33 7.13 7.349 15.434 7.349 15.434 7.21 6.346 14.217 8.008 20.325 7.447 5.059-.558 12.305-2.937 20.282-10.522.097-1.098.16-2.205.196-3.314.58-18.353-7.663-37.772-36.165-39.406"/>
        <path fill="#271C47" d="M234.472 109.5a7.398 7.398 0 1 0 .312 14.792 7.398 7.398 0 0 0-.312-14.793"/>
        <path fill="#C2BBEA" d="M230.314 142.06l-.156-.482s2.773.948 7.284.45c-6.108.56-13.115-1.102-20.325-7.448 0 0-8.679-8.303-7.349-15.434l-11.65-.904c-.081.062-.155.133-.24.189a3.83 3.83 0 0 1-3.157.473l-4.1-1.18-3.255-.316s-7.429 18.79 9.35 60.425l.007.003c.146.06 18.189 7.461 42.312-8.806l-8.72-26.97z"/>
        <path fill="#271C47" d="M197.386 106.566l-5.52-1.172-.336-.071-61.905-13.145a3.85 3.85 0 0 0-1.864 7.467l59.704 17.172c-.067.37-.1.59-.1.59l3.256.318 4.1 1.179a3.83 3.83 0 0 0 3.156-.473c.086-.056.16-.127.24-.19a3.81 3.81 0 0 0 1.468-2.413l.8-4.87a3.85 3.85 0 0 0-3-4.392"/>
        <path fill="#C2BCD3" d="M255.675 256.81c.24.196.513.411.802.635-.267-.208-.534-.425-.801-.636z"/>
        <path fill="#C2BCD3" d="M247.642 178.313l-4.581-12.167a81.877 81.877 0 0 1-3.886 2.788l-.139.1 4.477 13.173 16.28 47.914c9.335 31.087-4.103 26.693-4.117 26.688.267.211.534.428.801.636 7.016 5.442 27.943 18.551 27.943 18.551l-36.778-97.683z"/>
        <path fill="#C2BCD3" d="M239.175 168.934a82.09 82.09 0 0 0 3.886-2.788l-3.886 2.788z"/>
        <path fill="#968BBC" d="M239.035 169.03l.001.004.14-.1-.141.096M257.724 131.505c-7.978 7.585-15.223 9.964-20.282 10.522 11.829-1.085 20.282-10.522 20.282-10.522M246.303 153.87l1.442 1.393-1.442-1.392zM247.746 155.263l-.333.776.603-.515z"/>
        <path fill="#968BBC" d="M248.016 155.524l-.27-.261.27.26z"/>
        <path fill="#968BBC" d="M247.413 156.04l.333-.778.27.262-.603.515zm14.247-12.173l-3.857-12.116-.079-.246s-8.454 9.437-20.282 10.522c-4.51.499-7.284-.45-7.284-.45l.156.483 8.72 26.97.141-.096 3.885-2.788 9.233-5.151.884-.493v-.001l11.701-6.528-3.218-10.106z"/>
    </g>
</svg>
