<svg width="400" height="320" viewBox="0 0 400 320" fill="none" xmlns="http://www.w3.org/2000/svg">
<path d="M33.709 194.188C33.709 104.684 106.256 32.2051 195.692 32.2051C285.128 32.2051 357.743 104.752 357.743 194.188" fill="white"/>
<path d="M237.675 286.222V214.222H260.307V167.521H281.982V221.197" stroke="#CDCCCE" stroke-width="0.5673"/>
<path fill-rule="evenodd" clip-rule="evenodd" d="M281.982 232.479C288.213 232.479 293.264 227.427 293.264 221.196C293.264 214.966 288.213 209.914 281.982 209.914C275.751 209.914 270.7 214.966 270.7 221.196C270.7 227.427 275.751 232.479 281.982 232.479Z" stroke="#CDCCCE" stroke-width="1.1345"/>
<path d="M303.247 115.555C304.154 115.555 304.888 114.821 304.888 113.914C304.888 113.008 304.154 112.273 303.247 112.273C302.341 112.273 301.606 113.008 301.606 113.914C301.606 114.821 302.341 115.555 303.247 115.555Z" fill="#CDCCCE"/>
<path d="M303.863 142.154C304.769 142.154 305.504 141.419 305.504 140.513C305.504 139.606 304.769 138.872 303.863 138.872C302.956 138.872 302.222 139.606 302.222 140.513C302.222 141.419 302.956 142.154 303.863 142.154Z" fill="#CDCCCE"/>
<path opacity="0.3" fill-rule="evenodd" clip-rule="evenodd" d="M237.47 297.026C242.795 297.026 247.111 292.709 247.111 287.385C247.111 282.06 242.795 277.744 237.47 277.744C232.146 277.744 227.829 282.06 227.829 287.385C227.829 292.709 232.146 297.026 237.47 297.026Z" stroke="#CDCCCE" stroke-width="1.1345"/>
<path d="M237.265 289.026C238.171 289.026 238.906 288.291 238.906 287.385C238.906 286.478 238.171 285.744 237.265 285.744C236.359 285.744 235.624 286.478 235.624 287.385C235.624 288.291 236.359 289.026 237.265 289.026Z" fill="#CDCCCE"/>
<path d="M281.504 222.838C282.411 222.838 283.145 222.103 283.145 221.197C283.145 220.29 282.411 219.556 281.504 219.556C280.598 219.556 279.863 220.29 279.863 221.197C279.863 222.103 280.598 222.838 281.504 222.838Z" fill="#CDCCCE"/>
<path d="M230.632 186.188C230.632 186.188 227.76 187.624 229.128 188.376C230.427 189.128 231.726 188.308 231.726 188.308L230.974 186.667V186.598L230.632 186.188Z" fill="#E5E4EA"/>
<path d="M281.573 169.231C282.479 169.231 283.214 168.496 283.214 167.59C283.214 166.683 282.479 165.949 281.573 165.949C280.666 165.949 279.932 166.683 279.932 167.59C279.932 168.496 280.666 169.231 281.573 169.231Z" fill="#CDCCCE"/>
<path d="M222.7 140.308V81.7777" stroke="#CDCCCE" stroke-width="0.5673" stroke-linecap="round" stroke-linejoin="round"/>
<path opacity="0.4" fill-rule="evenodd" clip-rule="evenodd" d="M222.701 89.0256C226.099 89.0256 228.855 86.2704 228.855 82.8717C228.855 79.4731 226.099 76.7179 222.701 76.7179C219.302 76.7179 216.547 79.4731 216.547 82.8717C216.547 86.2704 219.302 89.0256 222.701 89.0256Z" stroke="#CDCCCE" stroke-width="2.2691"/>
<path d="M222.701 84.9914C223.909 84.9914 224.889 84.0118 224.889 82.8034C224.889 81.595 223.909 80.6154 222.701 80.6154C221.492 80.6154 220.513 81.595 220.513 82.8034C220.513 84.0118 221.492 84.9914 222.701 84.9914Z" fill="#CDCCCE"/>
<path d="M261.128 167.043H196.854" stroke="#CDCCCE" stroke-width="0.5673"/>
<path d="M259.965 169.231C260.872 169.231 261.606 168.496 261.606 167.59C261.606 166.683 260.872 165.949 259.965 165.949C259.059 165.949 258.324 166.683 258.324 167.59C258.324 168.496 259.059 169.231 259.965 169.231Z" fill="#CDCCCE"/>
<path d="M196.854 169.231C197.76 169.231 198.495 168.496 198.495 167.59C198.495 166.683 197.76 165.949 196.854 165.949C195.948 165.949 195.213 166.683 195.213 167.59C195.213 168.496 195.948 169.231 196.854 169.231Z" fill="#CDCCCE"/>
<path d="M88.2735 140.923V163.419" stroke="#CDCCCE" stroke-width="0.5673"/>
<path d="M88.2729 163.897C89.1792 163.897 89.9139 163.163 89.9139 162.256C89.9139 161.35 89.1792 160.615 88.2729 160.615C87.3665 160.615 86.6318 161.35 86.6318 162.256C86.6318 163.163 87.3665 163.897 88.2729 163.897Z" fill="#CDCCCE"/>
<path d="M303.248 113.914V140.513H281.983H44.6494" stroke="#CDCCCE" stroke-width="0.5673" stroke-linecap="round" stroke-linejoin="round"/>
<path d="M62.8376 115.624H16.2051" stroke="#CDCCCE" stroke-width="0.5673" stroke-linecap="round" stroke-linejoin="round"/>
<path opacity="0.3" fill-rule="evenodd" clip-rule="evenodd" d="M62.8374 121.436C66.2361 121.436 68.9913 118.681 68.9913 115.282C68.9913 111.883 66.2361 109.128 62.8374 109.128C59.4388 109.128 56.6836 111.883 56.6836 115.282C56.6836 118.681 59.4388 121.436 62.8374 121.436Z" stroke="#CDCCCE" stroke-width="2.2691"/>
<path d="M62.837 115.282V91.2136" stroke="#CDCCCE" stroke-width="0.5673" stroke-linecap="round" stroke-linejoin="round"/>
<path d="M62.8373 90.9401C63.7436 90.9401 64.4783 90.2054 64.4783 89.2991C64.4783 88.3928 63.7436 87.6581 62.8373 87.6581C61.931 87.6581 61.1963 88.3928 61.1963 89.2991C61.1963 90.2054 61.931 90.9401 62.8373 90.9401Z" fill="#CDCCCE"/>
<path d="M62.837 115.624V140.513" stroke="#CDCCCE" stroke-width="0.5673" stroke-linecap="round" stroke-linejoin="round"/>
<path d="M62.8373 117.265C63.7436 117.265 64.4783 116.53 64.4783 115.624C64.4783 114.718 63.7436 113.983 62.8373 113.983C61.931 113.983 61.1963 114.718 61.1963 115.624C61.1963 116.53 61.931 117.265 62.8373 117.265Z" fill="#CDCCCE"/>
<path d="M42.4615 142.701C43.6699 142.701 44.6495 141.721 44.6495 140.513C44.6495 139.304 43.6699 138.325 42.4615 138.325C41.2531 138.325 40.2734 139.304 40.2734 140.513C40.2734 141.721 41.2531 142.701 42.4615 142.701Z" fill="#CDCCCE"/>
<path opacity="0.3" fill-rule="evenodd" clip-rule="evenodd" d="M15.3158 124.923C20.6404 124.923 24.9569 120.607 24.9569 115.282C24.9569 109.957 20.6404 105.641 15.3158 105.641C9.99124 105.641 5.6748 109.957 5.6748 115.282C5.6748 120.607 9.99124 124.923 15.3158 124.923Z" stroke="#CDCCCE" stroke-width="1.1345"/>
<path d="M15.1108 116.923C16.0171 116.923 16.7518 116.188 16.7518 115.282C16.7518 114.376 16.0171 113.641 15.1108 113.641C14.2044 113.641 13.4697 114.376 13.4697 115.282C13.4697 116.188 14.2044 116.923 15.1108 116.923Z" fill="#CDCCCE"/>
<path d="M237.675 214.222H164.034" stroke="#CDCCCE" stroke-width="0.5673"/>
<path opacity="0.3" fill-rule="evenodd" clip-rule="evenodd" d="M163.077 220.239C166.475 220.239 169.231 217.484 169.231 214.085C169.231 210.687 166.475 207.932 163.077 207.932C159.678 207.932 156.923 210.687 156.923 214.085C156.923 217.484 159.678 220.239 163.077 220.239Z" stroke="#CDCCCE" stroke-width="2.2691"/>
<path d="M163.077 215.726C163.983 215.726 164.718 214.992 164.718 214.085C164.718 213.179 163.983 212.444 163.077 212.444C162.17 212.444 161.436 213.179 161.436 214.085C161.436 214.992 162.17 215.726 163.077 215.726Z" fill="#CDCCCE"/>
<path d="M167.795 10.9402V82.9402H145.163V129.709H123.556V75.9658" stroke="#CDCCCE" stroke-width="0.5673"/>
<path fill-rule="evenodd" clip-rule="evenodd" d="M123.487 87.2478C129.718 87.2478 134.769 82.1967 134.769 75.9658C134.769 69.7349 129.718 64.6837 123.487 64.6837C117.256 64.6837 112.205 69.7349 112.205 75.9658C112.205 82.1967 117.256 87.2478 123.487 87.2478Z" stroke="#CDCCCE" stroke-width="1.1345"/>
<path d="M102.222 184.889C103.128 184.889 103.863 184.154 103.863 183.248C103.863 182.342 103.128 181.607 102.222 181.607C101.316 181.607 100.581 182.342 100.581 183.248C100.581 184.154 101.316 184.889 102.222 184.889Z" fill="#CDCCCE"/>
<path d="M101.607 158.291C102.513 158.291 103.248 157.556 103.248 156.65C103.248 155.743 102.513 155.009 101.607 155.009C100.701 155.009 99.9658 155.743 99.9658 156.65C99.9658 157.556 100.701 158.291 101.607 158.291Z" fill="#CDCCCE"/>
<path opacity="0.3" fill-rule="evenodd" clip-rule="evenodd" d="M168.069 19.4188C173.393 19.4188 177.71 15.1023 177.71 9.77774C177.71 4.45315 173.393 0.136719 168.069 0.136719C162.744 0.136719 158.428 4.45315 158.428 9.77774C158.428 15.1023 162.744 19.4188 168.069 19.4188Z" stroke="#CDCCCE" stroke-width="1.1345"/>
<path d="M168.205 11.4188C169.112 11.4188 169.847 10.6841 169.847 9.77774C169.847 8.87143 169.112 8.13672 168.205 8.13672C167.299 8.13672 166.564 8.87143 166.564 9.77774C166.564 10.6841 167.299 11.4188 168.205 11.4188Z" fill="#CDCCCE"/>
<path d="M124.035 77.6068C124.941 77.6068 125.676 76.872 125.676 75.9657C125.676 75.0594 124.941 74.3247 124.035 74.3247C123.128 74.3247 122.394 75.0594 122.394 75.9657C122.394 76.872 123.128 77.6068 124.035 77.6068Z" fill="#CDCCCE"/>
<path d="M174.837 110.974C174.837 110.974 177.709 109.538 176.341 108.786C175.042 108.034 173.743 108.855 173.743 108.855L174.495 110.496V110.564L174.837 110.974Z" fill="#E5E4EA"/>
<path d="M123.898 131.214C124.804 131.214 125.539 130.479 125.539 129.573C125.539 128.666 124.804 127.932 123.898 127.932C122.992 127.932 122.257 128.666 122.257 129.573C122.257 130.479 122.992 131.214 123.898 131.214Z" fill="#CDCCCE"/>
<path d="M182.77 156.855V215.385" stroke="#CDCCCE" stroke-width="0.5673" stroke-linecap="round" stroke-linejoin="round"/>
<path opacity="0.4" fill-rule="evenodd" clip-rule="evenodd" d="M182.769 220.444C186.168 220.444 188.923 217.689 188.923 214.291C188.923 210.892 186.168 208.137 182.769 208.137C179.37 208.137 176.615 210.892 176.615 214.291C176.615 217.689 179.37 220.444 182.769 220.444Z" stroke="#CDCCCE" stroke-width="2.2691"/>
<path d="M182.769 216.547C183.978 216.547 184.957 215.567 184.957 214.359C184.957 213.151 183.978 212.171 182.769 212.171C181.561 212.171 180.581 213.151 180.581 214.359C180.581 215.567 181.561 216.547 182.769 216.547Z" fill="#CDCCCE"/>
<path d="M144.41 130.12H208.684" stroke="#CDCCCE" stroke-width="0.5673"/>
<path d="M145.573 131.214C146.479 131.214 147.214 130.479 147.214 129.573C147.214 128.666 146.479 127.932 145.573 127.932C144.666 127.932 143.932 128.666 143.932 129.573C143.932 130.479 144.666 131.214 145.573 131.214Z" fill="#CDCCCE"/>
<path d="M208.684 131.214C209.59 131.214 210.325 130.479 210.325 129.573C210.325 128.666 209.59 127.932 208.684 127.932C207.778 127.932 207.043 128.666 207.043 129.573C207.043 130.479 207.778 131.214 208.684 131.214Z" fill="#CDCCCE"/>
<path d="M317.196 156.239V133.744" stroke="#CDCCCE" stroke-width="0.5673"/>
<path d="M317.197 136.547C318.103 136.547 318.838 135.812 318.838 134.906C318.838 134 318.103 133.265 317.197 133.265C316.29 133.265 315.556 134 315.556 134.906C315.556 135.812 316.29 136.547 317.197 136.547Z" fill="#CDCCCE"/>
<path d="M102.223 183.248V156.65H123.488H360.889" stroke="#CDCCCE" stroke-width="0.5673" stroke-linecap="round" stroke-linejoin="round"/>
<path d="M342.701 181.538H389.265" stroke="#CDCCCE" stroke-width="0.5673" stroke-linecap="round" stroke-linejoin="round"/>
<path opacity="0.3" fill-rule="evenodd" clip-rule="evenodd" d="M342.701 188.034C346.099 188.034 348.855 185.279 348.855 181.88C348.855 178.482 346.099 175.726 342.701 175.726C339.302 175.726 336.547 178.482 336.547 181.88C336.547 185.279 339.302 188.034 342.701 188.034Z" stroke="#CDCCCE" stroke-width="2.2691"/>
<path d="M342.701 181.88V205.949" stroke="#CDCCCE" stroke-width="0.5673" stroke-linecap="round" stroke-linejoin="round"/>
<path d="M342.701 209.504C343.607 209.504 344.342 208.77 344.342 207.863C344.342 206.957 343.607 206.222 342.701 206.222C341.794 206.222 341.06 206.957 341.06 207.863C341.06 208.77 341.794 209.504 342.701 209.504Z" fill="#CDCCCE"/>
<path d="M342.701 181.538V156.65" stroke="#CDCCCE" stroke-width="0.5673" stroke-linecap="round" stroke-linejoin="round"/>
<path d="M342.701 183.18C343.607 183.18 344.342 182.445 344.342 181.538C344.342 180.632 343.607 179.897 342.701 179.897C341.794 179.897 341.06 180.632 341.06 181.538C341.06 182.445 341.794 183.18 342.701 183.18Z" fill="#CDCCCE"/>
<path d="M363.008 158.838C364.217 158.838 365.196 157.858 365.196 156.65C365.196 155.441 364.217 154.462 363.008 154.462C361.8 154.462 360.82 155.441 360.82 156.65C360.82 157.858 361.8 158.838 363.008 158.838Z" fill="#CDCCCE"/>
<path opacity="0.3" fill-rule="evenodd" clip-rule="evenodd" d="M390.222 191.521C395.547 191.521 399.863 187.205 399.863 181.88C399.863 176.556 395.547 172.239 390.222 172.239C384.897 172.239 380.581 176.556 380.581 181.88C380.581 187.205 384.897 191.521 390.222 191.521Z" stroke="#CDCCCE" stroke-width="1.1345"/>
<path d="M390.359 183.521C391.265 183.521 392 182.787 392 181.88C392 180.974 391.265 180.239 390.359 180.239C389.452 180.239 388.718 180.974 388.718 181.88C388.718 182.787 389.452 183.521 390.359 183.521Z" fill="#CDCCCE"/>
<path d="M167.795 82.9401H241.436" stroke="#CDCCCE" stroke-width="0.5673"/>
<path opacity="0.3" fill-rule="evenodd" clip-rule="evenodd" d="M242.393 89.2308C245.792 89.2308 248.547 86.4756 248.547 83.0769C248.547 79.6783 245.792 76.9231 242.393 76.9231C238.994 76.9231 236.239 79.6783 236.239 83.0769C236.239 86.4756 238.994 89.2308 242.393 89.2308Z" stroke="#CDCCCE" stroke-width="2.2691"/>
<path d="M242.393 84.718C243.299 84.718 244.034 83.9833 244.034 83.0769C244.034 82.1706 243.299 81.4359 242.393 81.4359C241.487 81.4359 240.752 82.1706 240.752 83.0769C240.752 83.9833 241.487 84.718 242.393 84.718Z" fill="#CDCCCE"/>
<path d="M389.197 196.444C386.12 193.846 382.359 192.889 378.462 192.342C378.051 192.273 377.641 192.479 377.368 192.068H26.5983C22.2906 193.231 17.9829 194.325 13.8803 196.103C11.1453 197.265 8.47863 198.701 6.08547 200.41C3.07692 202.598 1.02564 205.402 0 209.026V211.419C0.752137 214.017 1.7094 216.547 3.35043 218.735C6.76923 223.111 11.4188 225.778 16.4103 227.829C21.0598 229.812 25.9145 231.111 30.6325 232.889C32.6154 233.641 34.5299 234.462 36.3077 235.624C39.7265 237.949 59.7607 250.325 39.1111 282.325C36.5812 286.222 35.4872 295.521 45.265 305.436C55.0427 315.35 82.6667 313.915 92.5128 312.479C102.564 310.974 105.573 306.462 125.402 306.325C133.675 306.256 141.538 309.675 149.538 311.726C157.949 313.915 166.359 316.239 174.838 317.88C176.821 318.291 184.068 319.316 185.094 319.453C188.991 319.795 192.957 319.932 196.855 319.726C197.88 319.658 198.838 319.59 199.863 319.521C199.726 319.521 201.573 319.316 201.778 319.248C203.35 318.974 204.923 318.632 206.496 318.222C208.137 317.744 209.846 317.197 211.419 316.65C211.214 316.718 213.128 315.897 213.265 315.829C214.154 315.35 215.111 314.94 216 314.393C222.974 310.496 227.35 304.889 234.188 299.556C239.932 295.043 265.368 272.82 332.239 280.889C373.402 285.88 354.53 246.906 375.727 220.444C378.256 217.299 381.402 219.692 387.009 214.838C390.017 212.239 392.342 209.162 392.821 205.06C393.094 201.504 391.863 198.701 389.197 196.444Z" fill="#2EBE8B"/>
<path d="M204.581 50.8718H167.795" stroke="#CDCCCE" stroke-width="0.2897"/>
<path opacity="0.3" fill-rule="evenodd" clip-rule="evenodd" d="M205.197 55.9316C207.915 55.9316 210.12 53.7275 210.12 51.0085C210.12 48.2896 207.915 46.0854 205.197 46.0854C202.478 46.0854 200.273 48.2896 200.273 51.0085C200.273 53.7275 202.478 55.9316 205.197 55.9316Z" stroke="#CDCCCE" stroke-width="0.5795"/>
<path d="M205.196 51.8974C205.65 51.8974 206.017 51.53 206.017 51.0769C206.017 50.6237 205.65 50.2563 205.196 50.2563C204.743 50.2563 204.376 50.6237 204.376 51.0769C204.376 51.53 204.743 51.8974 205.196 51.8974Z" fill="#CDCCCE"/>
<path d="M122.461 270.427C152.332 270.427 176.547 263.876 176.547 255.795C176.547 247.714 152.332 241.162 122.461 241.162C92.5909 241.162 68.376 247.714 68.376 255.795C68.376 263.876 92.5909 270.427 122.461 270.427Z" fill="#309E74"/>
<path d="M277.401 268.65C307.876 268.65 332.581 261.976 332.581 253.744C332.581 245.511 307.876 238.838 277.401 238.838C246.926 238.838 222.222 245.511 222.222 253.744C222.222 261.976 246.926 268.65 277.401 268.65Z" fill="#309E74"/>
<path d="M74.0509 295.795V295.795C73.7774 295.795 73.5039 295.59 73.5039 295.248V282.462C73.5039 282.188 73.709 281.915 74.0509 281.915V281.915C74.3244 281.915 74.5979 282.12 74.5979 282.462V295.248C74.5295 295.521 74.3244 295.795 74.0509 295.795Z" fill="#00896F"/>
<path d="M73.914 281.915C73.914 281.915 71.2473 288.342 58.2559 283.829C58.2559 283.829 68.3755 271.521 73.914 279.863C73.914 279.863 76.102 272.889 86.9738 279.863C86.9054 279.932 81.2986 287.521 73.914 281.915Z" fill="#00896F"/>
<path d="M80.0677 280.205C80.0677 280.205 76.6489 277.88 74.0506 281.094C74.0506 281.094 69.6745 278.564 66.7344 281.915" stroke="#0C6D5B" stroke-width="1.2663" stroke-linecap="round" stroke-linejoin="round"/>
<path d="M195.418 243.556V243.556C195.145 243.556 195.008 243.35 195.008 243.145V232.342C195.008 232.068 195.213 231.932 195.418 231.932V231.932C195.692 231.932 195.828 232.137 195.828 232.342V243.145C195.828 243.419 195.623 243.556 195.418 243.556Z" fill="#00896F"/>
<path d="M195.282 231.932C195.282 231.932 193.025 237.333 182.085 233.573C182.085 233.573 190.632 223.18 195.282 230.222C195.282 230.222 197.128 224.342 206.29 230.222C206.29 230.222 201.572 236.65 195.282 231.932Z" fill="#00896F"/>
<path d="M200.478 230.496C200.478 230.496 197.607 228.581 195.35 231.248C195.35 231.248 191.658 229.128 189.196 231.932" stroke="#0C6D5B" stroke-width="1.0673" stroke-linecap="round" stroke-linejoin="round"/>
<path d="M342.29 275.145V275.145C342.017 275.145 341.812 274.94 341.812 274.667V263.59C341.812 263.316 342.017 263.111 342.29 263.111V263.111C342.564 263.111 342.769 263.316 342.769 263.59V274.667C342.769 274.94 342.564 275.145 342.29 275.145Z" fill="#00896F"/>
<path d="M342.154 263.111C342.154 263.111 339.829 268.65 328.615 264.82C328.615 264.82 337.367 254.154 342.154 261.402C342.154 261.402 344.068 255.385 353.436 261.402C353.504 261.333 348.649 267.966 342.154 263.111Z" fill="#00896F"/>
<path d="M347.556 261.607C347.556 261.607 344.615 259.624 342.291 262.427C342.291 262.427 338.53 260.239 335.932 263.111" stroke="#0C6D5B" stroke-width="1.0986" stroke-linecap="round" stroke-linejoin="round"/>
<path d="M346.394 217.504V217.504C346.189 217.504 345.983 217.299 345.983 217.094V207.385C345.983 207.179 346.189 206.974 346.394 206.974V206.974C346.599 206.974 346.804 207.179 346.804 207.385V217.094C346.804 217.299 346.599 217.504 346.394 217.504Z" fill="#00896F"/>
<path d="M346.325 207.043C346.325 207.043 344.274 211.897 334.496 208.479C334.496 208.479 342.154 199.18 346.325 205.47C346.325 205.47 347.966 200.205 356.171 205.47C356.171 205.47 351.932 211.214 346.325 207.043Z" fill="#00896F"/>
<path d="M350.975 205.744C350.975 205.744 348.377 204.034 346.394 206.427C346.394 206.427 343.112 204.513 340.855 207.043" stroke="#0C6D5B" stroke-width="0.9579" stroke-linecap="round" stroke-linejoin="round"/>
<path d="M38.0167 220.239V220.239C37.8116 220.239 37.6064 220.034 37.6064 219.829V210.12C37.6064 209.914 37.8116 209.709 38.0167 209.709V209.709C38.2218 209.709 38.427 209.914 38.427 210.12V219.829C38.427 220.034 38.2218 220.239 38.0167 220.239Z" fill="#00896F"/>
<path d="M37.9482 209.778C37.9482 209.778 35.8969 214.632 26.1191 211.214C26.1191 211.214 33.7773 201.914 37.9482 208.205C37.9482 208.205 39.5892 202.94 47.7944 208.205C47.7944 208.205 43.555 213.949 37.9482 209.778Z" fill="#00896F"/>
<path d="M42.5982 208.479C42.5982 208.479 39.9999 206.769 38.017 209.162C38.017 209.162 34.7349 207.248 32.4785 209.778" stroke="#0C6D5B" stroke-width="0.9579" stroke-linecap="round" stroke-linejoin="round"/>
<path d="M0.410156 145.573C0.410156 145.573 22.3589 145.094 44.5811 173.333L52.5811 182.564C52.5811 182.564 22.2905 171.556 11.3503 158.564C0.410156 145.573 0.410156 145.573 0.410156 145.573Z" fill="#836DE2"/>
<path d="M5.74316 183.111C5.74316 183.111 20.2389 166.085 52.3756 182.769C52.3756 182.769 46.2218 190.017 30.6321 185.983C15.0423 181.949 12.5808 177.436 5.74316 183.111Z" fill="#836DE2"/>
<path d="M38.3593 120.068C38.3593 120.068 31.6584 156.171 52.308 182.838C52.308 182.838 58.7353 143.453 38.3593 120.068Z" fill="#836DE2"/>
<path d="M9.98242 151.248C9.98242 151.248 34.9397 172.376 43.9653 176Z" fill="#2EBF8B"/>
<path d="M42.6671 133.607C42.6671 133.607 41.7782 161.299 51.4192 176.889" stroke="#2EBF8B" stroke-width="0.7436" stroke-linecap="round" stroke-linejoin="round"/>
<path d="M22.5645 180.103C22.5645 180.103 38.9063 179.009 49.9149 180.65Z" fill="#2EBF8B"/>
<path d="M222.633 196.786H371.146C371.146 196.786 359.18 165.402 330.53 177.436C330.53 177.436 309.334 141.538 274.257 174.701C274.325 174.701 237.402 148.786 222.633 196.786Z" fill="url(#paint0_linear)"/>
<path d="M242.051 179.282C242.051 188.991 233.778 196.923 223.59 196.923C222.291 196.923 220.992 196.786 219.761 196.513H29.607C21.6754 196.513 15.3164 190.359 15.3164 182.838C15.3164 175.316 21.7438 169.162 29.607 169.162H31.8634C31.8634 158.496 40.8891 149.812 52.1027 149.812C55.9318 149.812 59.4873 150.838 62.5643 152.615C66.872 146.735 73.9831 142.838 82.1198 142.838C91.3506 142.838 99.3506 147.897 103.316 155.282C105.71 150.906 110.496 147.966 115.966 147.966C121.641 147.966 126.564 151.18 128.889 155.761C131.214 149.675 137.299 145.368 144.479 145.368C151.18 145.368 156.992 149.197 159.59 154.667C165.128 148.034 173.607 143.727 183.18 143.727C197.197 143.727 208.957 152.889 212.376 165.333C215.522 163.009 219.419 161.641 223.658 161.641C233.778 161.641 242.051 169.504 242.051 179.282Z" fill="#00896F"/>
<path fill-rule="evenodd" clip-rule="evenodd" d="M314.598 253.333C313.277 252.86 311.961 252.381 310.647 251.902C307.408 250.723 304.183 249.549 300.923 248.479C300.435 248.316 299.947 248.096 299.455 247.874L299.454 247.874L299.454 247.874L299.454 247.874L299.454 247.874L299.454 247.874C298.086 247.257 296.688 246.626 295.18 247.179C291.829 248.41 288.41 249.299 284.855 249.709C283.743 249.845 282.653 250.088 281.558 250.332C279.893 250.703 278.219 251.077 276.445 251.077C268.923 251.077 261.539 250.53 254.427 247.795C253.265 247.385 252.103 247.111 250.94 247.726C246.862 249.845 242.456 250.815 238.071 251.78L238.071 251.78C236.795 252.061 235.52 252.341 234.257 252.65C233.811 252.751 233.755 252.84 233.759 252.876C233.683 252.803 233.17 252.485 230.359 251.692C225.026 250.188 230.564 243.145 231.863 242.256C234.051 240.684 236.376 239.453 238.701 238.291C241.778 236.786 242.598 235.145 241.231 232C240.653 230.587 240.03 229.189 239.404 227.785L239.404 227.785C238.697 226.2 237.986 224.606 237.333 222.974C235.487 218.256 237.197 214.222 241.368 211.624C244.855 209.436 247.59 206.632 248 201.983C248.136 200.415 248.188 198.848 248.239 197.289C248.29 195.72 248.342 194.159 248.479 192.615C248.889 187.419 250.051 182.496 254.222 178.803C255.521 177.641 256.957 176.752 258.393 175.863C259.145 175.385 260.103 174.769 259.692 173.675C259.37 172.773 258.441 172.964 257.762 173.104C257.721 173.112 257.68 173.12 257.641 173.128C255.727 173.333 253.812 173.675 251.966 174.017C248.752 174.632 245.88 173.675 243.898 171.214C240.752 167.385 238.906 163.077 240.274 157.949C240.616 156.65 240.957 155.35 241.231 153.983C242.598 146.667 245.265 139.897 250.598 134.427C251.792 133.181 253.223 132.369 254.681 131.541L254.681 131.541L254.681 131.541L254.681 131.541L254.681 131.541L254.681 131.541C255.143 131.279 255.608 131.015 256.068 130.735L256.171 130.676C256.965 130.215 257.818 129.721 257.163 128.41C254.154 121.983 252.513 115.214 252.034 108.103C251.419 99.282 251.761 90.5983 253.744 81.9829C254.23 79.8617 255.087 77.8833 255.947 75.9C256.417 74.8146 256.888 73.7278 257.299 72.6154H258.188C259.637 76.914 260.506 81.3491 261.373 85.7761L261.374 85.7762L261.374 85.7763C261.734 87.6164 262.094 89.4551 262.496 91.282C264.957 102.564 265.846 113.915 266.12 125.402C266.188 127.043 267.419 127.795 268.786 127.111C269.635 126.715 269.594 125.992 269.555 125.289V125.289V125.289V125.289V125.289V125.289C269.547 125.142 269.539 124.996 269.539 124.855C269.744 118.291 271.59 112.068 273.983 106.051C277.06 98.3248 281.915 91.6239 286.974 85.0598C289.163 82.3248 291.624 79.8632 294.427 77.7436C295.932 76.6495 297.026 76.8547 297.026 78.3589C297.043 79.1571 297.085 79.9594 297.127 80.7649C297.256 83.2028 297.386 85.6698 296.821 88.1367C294.785 97.0337 291.316 105.436 287.842 113.849L287.842 113.849L287.842 113.849L287.842 113.849L287.842 113.85L287.842 113.85L287.842 113.85C287.231 115.329 286.62 116.808 286.017 118.291C284.65 121.641 282.94 124.718 280.821 127.59C279.59 129.231 279.658 130.53 281.573 131.556C282.208 131.926 282.68 132.42 283.177 132.941C283.322 133.093 283.47 133.247 283.624 133.402C286.906 137.026 288 141.607 288.479 146.188C288.889 150.427 291.351 153.094 294.222 155.487C298.257 158.769 301.675 162.53 303.863 167.316C306.462 172.991 307.966 179.009 308.786 185.162C309.402 189.949 309.607 194.735 308.581 199.453C307.351 204.786 308.65 208.889 312.821 212.376C315.214 214.359 316.445 217.231 316.992 220.376C317.725 224.351 317.147 228.271 316.576 232.137C316.508 232.593 316.441 233.049 316.376 233.504C315.966 236.103 315.214 238.632 312.547 239.863C312.672 240.486 313.024 240.598 313.395 240.717L313.458 240.737L313.504 240.752C316.855 241.641 321.71 244.991 322.53 247.316C323.092 248.908 322.884 249.538 322.676 250.172C322.58 250.464 322.483 250.757 322.462 251.145C320.752 252.171 315.351 253.607 314.598 253.333ZM233.77 252.894C233.773 252.894 233.772 252.889 233.759 252.876C233.76 252.887 233.767 252.893 233.77 252.894ZM303.043 214.017C302.906 211.829 302.564 209.641 301.402 207.658C300.376 205.812 299.077 205.744 297.778 207.385C297.548 207.68 297.318 207.975 297.087 208.27C295.393 210.439 293.684 212.627 292.239 214.974C290.735 217.436 288.889 219.487 286.291 220.991C283.966 222.291 282.257 224.41 282.325 227.214C282.393 232 303.111 215.179 303.043 214.017ZM268.59 223.741C268.587 223.933 268.584 224.134 268.581 224.342C268.855 227.145 256.821 232.479 254.769 228.991C252.76 225.385 252.187 221.39 251.617 217.417L251.617 217.417C251.431 216.117 251.245 214.819 251.009 213.538C250.53 210.872 250.598 208.273 251.145 205.675C251.419 204.308 251.829 202.94 253.265 202.393C254.537 201.873 255.32 202.722 256.07 203.534L256.07 203.534C256.206 203.682 256.342 203.829 256.479 203.966C257.673 205.117 258.441 206.561 259.215 208.015C259.682 208.893 260.152 209.775 260.718 210.598C260.849 210.783 260.98 210.968 261.109 211.152C262.466 213.073 263.769 214.918 265.641 216.479C268.659 218.971 268.655 219.198 268.59 223.741ZM292.65 86.906C286.769 89.9829 271.658 120.41 272.274 127.658C272.702 127.765 273.088 127.914 273.497 128.072L273.498 128.072C273.612 128.116 273.727 128.161 273.846 128.205C276.103 128.82 277.539 128.068 278.086 125.744C278.448 124.138 279.124 122.651 279.788 121.191C280 120.724 280.211 120.259 280.41 119.795C281.687 116.718 282.971 113.649 284.255 110.579C286.823 104.441 289.39 98.3019 291.898 92.1025C292.581 90.4615 293.197 88.8889 292.65 86.906ZM262.564 125.675C262.701 127.248 262.496 128 260.718 128C255.043 115.009 254.427 87.5897 257.163 84.1025C258.58 87.4916 258.997 90.9917 259.416 94.5028L259.417 94.5032L259.417 94.5036C259.462 94.8883 259.508 95.2732 259.556 95.6581C260.786 105.641 261.744 115.624 262.564 125.675ZM265.71 154.393C267.556 154.462 268.992 153.231 269.128 151.521C269.265 150.017 267.898 148.581 266.325 148.65C264.684 148.65 263.316 150.154 263.248 152.137C263.18 153.914 264.274 154.325 265.71 154.393ZM243.761 163.829C246.291 165.675 249.368 165.402 250.872 163.145C248.41 161.778 245.88 161.983 243.761 163.829Z" fill="#D6CCF8"/>
<path d="M305.231 212.376C303.316 219.419 298.667 224 292.718 227.35C289.163 229.402 285.539 231.18 281.983 233.094C280.547 233.846 279.18 234.188 277.812 232.957C276.445 231.727 276.445 230.291 277.06 228.718C278.838 224.274 281.026 220.034 282.462 215.453C283.282 212.786 285.539 211.35 288.137 210.803C291.077 210.188 293.47 208.821 295.658 206.906C298.051 204.855 300.65 203.145 303.248 201.368C304.957 200.205 306.188 200.684 306.598 202.735C307.077 204.923 306.735 207.111 306.188 209.299C305.983 210.462 305.504 211.487 305.231 212.376Z" fill="#B1B1C4"/>
<path d="M292.65 86.906C293.197 88.8889 292.513 90.5299 291.898 92.0342C288.137 101.265 284.24 110.496 280.411 119.727C279.59 121.709 278.633 123.624 278.086 125.675C277.539 128 276.103 128.821 273.847 128.137C273.3 128 272.753 127.795 272.274 127.59C271.659 120.41 286.77 89.9829 292.65 86.906Z" fill="#6249BB"/>
<path d="M260.718 128C255.042 115.009 254.427 87.5897 257.23 84.1025C258.803 87.7948 259.145 91.7607 259.624 95.6581C260.854 105.641 261.743 115.624 262.632 125.675C262.701 127.248 262.495 128 260.718 128Z" fill="#6249BB"/>
<path d="M265.71 154.393C264.274 154.256 263.18 153.846 263.248 152.137C263.317 150.222 264.684 148.65 266.325 148.65C267.898 148.65 269.197 150.017 269.128 151.521C268.992 153.299 267.556 154.462 265.71 154.393Z" fill="#2B214B"/>
<path d="M243.761 163.829C245.88 162.051 248.41 161.778 250.872 163.145C249.368 165.402 246.291 165.675 243.761 163.829Z" fill="#2B214B"/>
<path fill-rule="evenodd" clip-rule="evenodd" d="M329.988 149.539C329.663 148.879 329.338 148.22 329.025 147.556C327.453 145.436 325.128 144.684 322.872 144C322.354 143.828 321.831 143.666 321.309 143.504C319.968 143.089 318.632 142.676 317.401 142.086C310.632 138.872 303.863 139.145 297.778 143.385C293.728 146.165 290.694 150.173 287.731 154.088C287.341 154.603 286.953 155.116 286.564 155.624C281.299 162.462 276.376 169.504 271.59 176.684C270.262 178.649 268.894 180.59 267.526 182.53C263.326 188.487 259.128 194.441 256.137 201.094C253.234 207.555 250.545 214.115 247.855 220.677C244.652 228.492 241.448 236.31 237.88 243.966C237.389 245.043 236.828 246.105 236.265 247.172C234.397 250.712 232.5 254.306 233.025 258.667C233.094 259.556 233.299 259.692 234.188 259.487C237.119 258.709 239.685 257.199 242.25 255.688C242.616 255.472 242.983 255.256 243.35 255.043C248.435 252.072 252.964 248.323 257.51 244.56C259.138 243.213 260.768 241.863 262.427 240.547C264.675 238.757 266.969 237.025 269.262 235.293C274.851 231.072 280.436 226.855 285.333 221.812C286.475 220.632 287.61 219.448 288.744 218.264C293.723 213.066 298.692 207.879 304.205 203.145C305.29 202.221 306.386 201.303 307.484 200.384C314.753 194.295 322.094 188.146 326.906 179.829C330.598 173.333 334.427 166.564 333.196 158.359C332.754 155.149 331.37 152.342 329.988 149.539ZM270.701 192C275.897 183.248 281.299 174.633 287.795 167.658C288.86 166.382 289.902 165.112 290.932 163.855C295.586 158.18 300.018 152.774 305.504 148.239C308.634 145.566 311.951 146.064 315.455 146.59C315.625 146.616 315.795 146.641 315.966 146.667C318.643 147.066 320.942 148.224 323.255 149.39C323.718 149.624 324.182 149.858 324.649 150.086C329.914 152.684 331.76 161.368 327.795 165.88C326.29 167.59 324.786 168.205 322.666 166.427C318.427 162.872 310.564 162.051 307.35 164.923C306.171 165.939 305.21 167.197 304.25 168.453C303.596 169.309 302.943 170.164 302.222 170.94C301.401 171.761 300.307 172.65 299.282 172.786C292.786 173.675 290.256 178.462 288 183.658C287.911 183.858 287.822 184.059 287.734 184.259C284.883 190.7 281.99 197.238 275.624 200.752C270.359 203.692 268.307 208.137 267.213 213.47C265.778 220.855 261.333 226.256 255.726 231.043C253.108 233.273 250.765 235.812 248.429 238.344C247.471 239.383 246.513 240.421 245.538 241.436C245.299 241.675 245.027 241.881 244.768 242.076C244.656 242.16 244.547 242.243 244.444 242.325C244.513 242.12 244.564 241.915 244.615 241.709C244.666 241.504 244.718 241.299 244.786 241.094C247.156 234.759 250.64 229.022 254.124 223.284C256.169 219.917 258.214 216.549 260.034 213.06C261.4 210.431 262.679 207.753 263.958 205.074C266.072 200.647 268.187 196.217 270.701 192Z" fill="#E1805A"/>
<path d="M329.025 147.556C327.452 145.436 325.128 144.684 322.803 143.863C326.632 139.556 330.393 135.18 334.153 130.803C334.427 130.53 334.495 130.12 334.632 129.709C334.29 129.641 333.88 129.573 333.538 129.573C327.794 129.709 322.598 128.889 319.658 123.009C317.948 119.59 318.7 116.991 322.256 115.761C323.145 115.419 322.461 115.009 322.324 114.667C320.615 111.248 318.085 108.034 318.085 104C318.085 97.3675 324.307 91.2821 332.102 90.2564C337.367 89.5727 342.7 89.8462 348.034 90.5983C351.999 91.2137 353.709 93.6752 354.051 97.4359C354.051 97.7778 353.982 98.3248 354.598 98.1881C360.205 96.6838 364.307 100.034 368.615 102.633C371.692 104.479 374.085 107.077 376.341 109.88C380.239 114.735 378.324 119.932 372.102 121.162C370.461 121.504 370.324 121.709 371.145 123.214C373.743 128.41 377.025 133.47 374.358 139.692C372.512 143.932 369.641 147.077 364.854 147.692C360.273 148.239 357.196 145.915 355.145 141.949C354.803 141.265 354.598 141.197 354.051 141.88C351.589 144.957 347.965 146.12 344.752 144.684C341.196 143.111 341.264 139.624 340.991 136.479C340.923 135.932 340.854 135.385 340.786 134.769C340.376 135.111 339.897 135.453 339.555 135.863C335.999 139.761 332.512 143.658 329.025 147.556Z" fill="#8CF18C"/>
<path d="M287.795 167.658C293.675 160.615 298.803 153.778 305.436 148.239C308.718 145.504 312.273 146.12 315.897 146.667C319.043 147.145 321.778 148.718 324.581 150.086C329.846 152.684 331.692 161.368 327.726 165.88C326.222 167.59 324.718 168.205 322.598 166.427C318.359 162.872 310.496 162.051 307.282 164.923C305.367 166.633 304 169.026 302.154 170.94C301.402 171.761 300.308 172.65 299.214 172.786C292.718 173.607 290.188 178.462 287.932 183.658C285.06 190.222 282.188 197.06 275.555 200.752C270.291 203.692 268.239 208.137 267.145 213.47C265.641 220.923 261.265 226.256 255.658 231.043C251.966 234.188 248.889 237.949 245.47 241.436C245.128 241.778 244.718 242.051 244.376 242.325C244.513 241.915 244.581 241.504 244.718 241.094C248.41 230.974 255.043 222.496 259.966 213.06C263.59 206.086 266.598 198.769 270.632 192C275.897 183.248 281.231 174.633 287.795 167.658Z" fill="#EFAA6C"/>
<path d="M263.59 214.017C263.863 216.821 264.069 220.65 263.863 224.547C263.658 228.513 260.65 230.291 257.231 228.171C253.607 225.915 251.761 222.154 249.846 218.667C247.18 213.88 247.043 208.41 246.086 203.214C245.607 200.615 245.607 197.949 246.222 195.35C246.496 193.983 246.906 192.615 248.342 192.068C249.846 191.521 250.667 192.752 251.556 193.641C253.47 195.556 254.291 198.154 255.795 200.273C257.231 202.393 258.667 204.444 260.718 206.154C263.727 208.684 263.658 208.821 263.59 214.017Z" fill="#B1B1C4"/>
<path d="M281.809 234.059C287.589 232.173 291.306 227.677 290.112 224.015C288.918 220.353 283.264 218.912 277.483 220.798C271.703 222.683 267.986 227.18 269.18 230.842C270.375 234.504 276.029 235.944 281.809 234.059Z" fill="#B1B1C4"/>
<path d="M62.7002 224.957C63.0421 223.043 63.7258 221.265 64.6831 219.556C67.2814 215.248 76.7857 215.59 81.8455 217.299C82.5976 219.966 81.2985 225.846 81.2301 225.983C84.9908 229.333 80.5464 228.308 80.478 232.752C75.9652 239.521 65.3669 235.897 63.2472 229.06C63.0421 228.308 62.8369 227.556 62.7002 226.803C62.7002 226.188 62.7002 225.573 62.7002 224.957Z" fill="#7261C8"/>
<path fill-rule="evenodd" clip-rule="evenodd" d="M77.5377 226.462C77.6061 222.085 78.2214 217.846 80.5462 213.949C80.6146 213.812 80.683 213.607 80.6146 213.47C82.9034 211.035 82.1748 205.791 81.6152 201.764C81.3891 200.136 81.1906 198.708 81.23 197.744C81.5035 191.795 81.9821 187.077 83.965 181.402C86.4266 174.291 89.3667 168.205 93.9479 162.325C96.683 158.701 109.606 146.462 113.23 145.368C113.367 145.299 113.572 145.162 113.64 145.026C114.939 138.667 116.375 132.376 118.7 126.291C118.703 126.28 118.706 126.269 118.708 126.258C118.712 126.245 118.715 126.232 118.718 126.22C118.778 125.992 118.812 125.862 118.563 125.675C114.309 122.8 111.263 118.814 108.206 114.813C107.627 114.055 107.048 113.298 106.461 112.547C99.6231 103.932 94.6317 94.2906 90.5291 84.1026C90.3044 83.4846 90.5875 83.5129 90.8852 83.5426C90.9498 83.5491 91.0152 83.5556 91.0761 83.5556C98.6659 83.3505 104.956 86.4958 110.632 91.2137C118.358 97.5727 123.897 105.641 127.862 114.735C128.546 116.308 129.298 116.376 130.598 115.966C132.344 115.467 134.146 115.082 135.902 114.707L135.903 114.707L136.409 114.598C136.438 114.589 136.468 114.579 136.499 114.569L136.499 114.569C136.687 114.509 136.898 114.442 136.956 114.325C138.435 110.364 141.138 107.259 143.836 104.16L143.836 104.16C144.631 103.248 145.425 102.335 146.187 101.402C151.452 94.9744 157.538 89.5727 165.196 86.0855C165.333 86.0245 165.484 85.95 165.639 85.8732L165.639 85.8731C166.18 85.6054 166.776 85.3107 167.042 85.4701C167.446 85.7728 167.254 86.299 167.07 86.8012C167.005 86.9796 166.941 87.155 166.905 87.3163C165.139 93.8909 162.528 100.113 159.905 106.363L159.905 106.363C158.873 108.823 157.839 111.287 156.854 113.778C155.76 116.581 153.914 118.974 151.862 121.231C151.842 121.251 151.821 121.272 151.8 121.292C151.608 121.478 151.404 121.675 151.589 121.983C153.154 124.027 153.89 126.43 154.623 128.824C155.042 130.194 155.461 131.56 156.033 132.855C156.58 134.154 157.127 135.385 158.016 136.479C162.256 141.744 162.119 147.692 160.341 153.709C159.315 157.06 155.486 159.658 151.862 160.547C151.15 161.005 152.369 162.486 153.293 163.608C153.611 163.993 153.893 164.336 154.05 164.581C154.123 164.693 154.196 164.805 154.268 164.917C154.329 165.012 154.391 165.107 154.452 165.201L154.452 165.201C157.329 169.64 160.191 174.055 161.367 179.282C162.259 183.297 161.56 187.22 160.863 191.127V191.127C160.706 192.011 160.548 192.895 160.409 193.778C159.657 198.427 158.632 202.94 156.854 207.248C156.598 207.951 156.94 208.355 157.264 208.74C157.287 208.767 157.31 208.794 157.333 208.821C159.384 211.624 159.862 214.906 159.999 218.256C160.341 224.889 160.683 231.521 157.743 237.812C157.607 238.083 157.476 238.363 157.343 238.645L157.343 238.645C156.941 239.5 156.531 240.374 155.965 241.094C155.264 242.05 155.513 242.115 156.381 242.341C156.444 242.357 156.511 242.375 156.58 242.393C157.619 242.7 158.691 242.868 159.758 243.036L159.759 243.036C161.783 243.354 163.792 243.67 165.538 244.923C169.025 247.385 171.486 250.598 171.418 255.18C171.418 255.658 171.486 256.205 171.555 256.684C171.897 258.94 170.803 260.034 168.683 259.35C160.136 256.615 151.589 253.88 143.794 249.299C143.089 248.876 142.352 248.582 141.604 248.285L141.603 248.284C141.264 248.149 140.922 248.013 140.58 247.863C141.743 244.65 126.563 243.35 126.563 244.718C125.945 244.486 123.099 244.582 119.321 244.709H119.321H119.32C116.414 244.807 112.956 244.923 109.538 244.923C105.982 244.923 102.427 244.444 98.9394 243.897C97.0932 243.624 94.4266 245.47 94.9052 247.248C96.6898 253.366 92.7712 256.217 88.8531 259.068C88.5677 259.276 88.2824 259.483 87.9992 259.692C84.7855 262.085 82.4608 262.291 80.2043 260.581C76.4437 257.641 75.8966 250.94 79.1103 247.385C79.8625 246.564 80.6146 245.812 81.4351 245.197C82.7343 244.308 82.2556 243.214 81.777 242.256C79.589 237.675 77.9479 232.957 77.4009 227.829C77.5377 227.419 77.5377 226.94 77.5377 226.462ZM100.17 92.547L100.17 92.547L100.17 92.5471C100.187 92.6325 100.204 92.718 100.239 92.7864C100.736 93.9065 101.224 95.0338 101.712 96.1609C105.778 105.56 109.842 114.954 119.794 120.205C121.503 121.094 122.461 121.162 122.871 119.453C122.945 119.106 123.262 118.921 123.58 118.735C124.141 118.407 124.706 118.076 123.965 116.855C121.23 112.342 118.358 107.966 114.734 104.137C114.047 103.428 113.369 102.709 112.691 101.99C109.117 98.1996 105.545 94.4124 100.717 92.171C100.655 92.171 100.586 92.12 100.516 92.0686C100.358 91.9517 100.197 91.8327 100.102 92.3077C100.136 92.3761 100.153 92.4615 100.17 92.547ZM149.606 118.496C149.333 118.906 149.059 119.316 148.239 119.248C147.705 118.918 147.077 118.701 146.432 118.478C145.341 118.101 144.2 117.706 143.384 116.718C143.315 116.581 143.247 116.444 143.315 116.308C146.392 106.462 152.615 98.8718 160.341 92.3077C160.523 92.171 160.706 92.095 160.888 92.019C160.979 91.981 161.07 91.943 161.162 91.8975C161.162 91.9635 161.169 92.0366 161.176 92.1122C161.191 92.2716 161.208 92.4421 161.162 92.5812C159.489 95.9806 158.125 99.5229 156.76 103.067C154.72 108.363 152.678 113.662 149.606 118.496Z" fill="#D6CCF8"/>
<path d="M100.102 92.3077C100.17 91.6239 100.512 92.1709 100.649 92.2393C106.461 94.906 110.426 99.7607 114.666 104.205C118.29 107.966 121.23 112.342 123.896 116.923C125.059 118.838 123.008 118.564 122.802 119.521C122.392 121.231 121.435 121.162 119.725 120.273C108.58 114.393 104.82 103.316 100.17 92.8547C100.17 92.6496 100.17 92.4444 100.102 92.3077Z" fill="#7261C8"/>
<path d="M148.238 119.248C146.803 118.359 144.683 118.291 143.452 116.65C143.384 116.581 143.315 116.376 143.384 116.239C146.461 106.393 152.683 98.8035 160.409 92.2394C160.615 92.0342 160.956 91.9659 161.23 91.8291C161.23 92.0342 161.298 92.3077 161.23 92.5129C157.059 100.991 154.803 110.359 149.674 118.427C149.333 118.906 149.059 119.316 148.238 119.248Z" fill="#7261C8"/>
<path d="M138.734 136.957C138.803 137.983 138.461 138.94 137.777 139.761C137.23 140.444 136.546 140.991 135.452 140.855C134.29 140.718 133.743 140.034 133.469 139.214C132.991 137.846 133.127 136.41 134.085 135.179C134.632 134.359 135.452 133.607 136.751 133.88C138.187 134.154 138.529 135.179 138.734 136.137C138.803 136.41 138.734 136.684 138.734 136.957Z" fill="#2B214B"/>
<path d="M152.751 148.034C152.136 148.103 151.452 148.034 151.247 147.214C150.974 146.256 151.726 145.641 152.409 145.299C153.777 144.547 155.213 144.41 156.717 144.752C156.991 144.821 157.333 145.231 157.469 145.504C157.606 146.051 157.264 146.462 156.786 146.735C155.555 147.556 154.324 148.034 152.751 148.034Z" fill="#2B214B"/>
<path d="M106.803 194.325C103.384 206.974 104.683 217.915 108.102 228.103C110.153 234.188 125.606 226.188 127.658 217.846C128.82 212.991 127.658 208.82 125.401 205.812C122.94 202.462 121.435 198.291 120.683 193.573C119.863 188.376 118.495 183.521 117.196 178.667C116.307 175.453 114.734 175.179 112.683 178.12C110.495 181.197 109.196 184.889 108.102 188.718C107.487 190.701 107.145 192.752 106.803 194.325Z" fill="#B1B1C4"/>
<path fill-rule="evenodd" clip-rule="evenodd" d="M98.3609 201.665C98.2361 201.93 98.1109 202.196 97.9828 202.462C97.6409 203.829 98.0512 205.06 98.4615 206.154C98.5787 206.564 98.7336 206.974 98.8885 207.385C99.095 207.932 99.3015 208.479 99.4187 209.026C100.308 212.855 102.564 215.521 106.325 216.684C108.949 217.452 111.753 217.381 114.457 217.313C114.641 217.308 114.825 217.304 115.008 217.299C119.521 217.231 124.034 216.957 128.547 216.615C129.753 216.533 130.966 216.474 132.183 216.415C136.004 216.231 139.856 216.045 143.59 215.111C147.045 214.24 150.487 213.263 153.933 212.285C158.33 211.037 162.733 209.787 167.179 208.752C167.777 208.611 168.392 208.502 169.011 208.392C171.086 208.025 173.205 207.65 174.838 206.017C175.111 205.675 175.111 205.538 174.769 205.265C173.62 204.39 172.297 203.865 170.973 203.34C170.642 203.208 170.311 203.077 169.983 202.94C167.047 201.807 163.957 201.14 160.857 200.47C159.841 200.251 158.825 200.031 157.812 199.795C156.472 199.464 155.136 199.104 153.799 198.744C150.157 197.762 146.502 196.776 142.701 196.376C142.172 196.322 141.644 196.268 141.116 196.215C137.009 195.798 132.949 195.386 128.889 194.598C128.056 194.436 127.224 194.264 126.391 194.093C121.614 193.109 116.822 192.122 111.932 192.821L111.839 192.835C107.97 193.446 103.977 194.076 101.06 197.197C99.8307 198.543 99.1026 200.089 98.3609 201.665ZM135.248 212.171C129.914 212.855 124.649 213.402 119.658 212.991C118.776 212.967 117.908 212.949 117.051 212.931C113.185 212.85 109.527 212.774 105.778 212.103C103.623 211.631 102.728 210.033 101.787 208.351C101.773 208.325 101.758 208.3 101.744 208.274C101.058 207.016 100.802 205.711 100.536 204.357C100.484 204.092 100.432 203.825 100.376 203.556C99.7606 200.547 102.769 196.923 105.914 197.128C107.145 197.197 107.897 197.607 107.829 199.043C107.692 201.915 109.88 205.402 112.137 205.812C112.883 205.924 113.649 205.914 114.414 205.904C115.051 205.895 115.686 205.887 116.308 205.949C116.923 206.017 117.607 206.154 118.017 206.564C120.479 209.026 123.282 208.479 126.154 207.727C126.297 207.691 126.441 207.656 126.585 207.62C130.076 206.76 133.682 205.872 137.162 207.316C140.102 208.547 142.632 207.932 145.162 206.633C148.718 204.855 152.41 204.923 156.171 205.675C157.812 205.994 159.514 206.131 161.215 206.268C162.066 206.336 162.917 206.405 163.761 206.496C163.897 206.53 164.017 206.564 164.137 206.598C164.256 206.633 164.376 206.667 164.513 206.701C164.41 206.735 164.308 206.786 164.205 206.838C164.102 206.889 164 206.94 163.897 206.974C160.53 208.054 157.026 208.479 153.524 208.904C151.479 209.152 149.435 209.4 147.419 209.778C145.811 210.073 144.224 210.42 142.642 210.766C140.187 211.303 137.743 211.838 135.248 212.171Z" fill="#E1805A"/>
<path d="M97.9827 202.462C97.6408 203.761 98.051 204.992 98.4613 206.222C95.4527 206.086 92.4442 205.88 89.4356 205.744C89.2305 205.744 89.0254 205.812 88.8203 205.88C88.8886 206.017 89.0254 206.222 89.0938 206.359C91.0083 208.684 92.3758 211.077 90.8715 214.222C90.051 216 88.6835 216.547 87.0425 215.521C86.6322 215.248 86.6322 215.658 86.5639 215.863C85.675 217.641 85.1963 219.761 83.5553 221.06C80.8203 223.18 76.3074 222.633 73.3673 219.761C71.3844 217.778 69.7433 215.521 68.3758 213.06C67.3502 211.214 67.8288 209.709 69.2647 208.342C69.4015 208.205 69.675 208.068 69.4015 207.863C67.0083 206.017 67.0083 203.282 66.7348 200.615C66.5297 198.769 66.8032 196.923 67.2134 195.077C67.9656 191.932 70.7006 190.974 73.2305 193.162C73.9143 193.709 74.051 193.709 74.3929 192.889C75.6921 190.154 76.7177 187.145 80.1365 186.256C82.4613 185.641 84.7177 185.778 86.4955 187.556C88.2049 189.265 88.2733 191.316 87.2476 193.436C87.1109 193.778 87.1109 193.915 87.5895 193.915C89.6408 193.983 91.2818 195.077 91.7604 196.855C92.2391 198.838 90.8032 199.932 89.5724 201.094C89.3673 201.299 89.1621 201.504 88.957 201.709C89.2305 201.778 89.504 201.846 89.8459 201.846C92.5126 202.12 95.2476 202.325 97.9827 202.462Z" fill="#8CF18C"/>
<path d="M119.658 212.991C114.803 212.855 110.359 212.923 105.915 212.034C103.726 211.556 102.838 209.915 101.88 208.205C101.06 206.701 100.855 205.128 100.513 203.487C99.8974 200.479 102.838 196.923 106.051 197.06C107.214 197.128 107.966 197.538 107.966 198.974C107.829 201.846 110.085 205.333 112.273 205.744C113.641 205.949 115.009 205.812 116.444 205.88C117.06 205.949 117.744 206.085 118.154 206.496C120.615 208.889 123.419 208.342 126.291 207.658C129.915 206.701 133.675 205.675 137.299 207.248C140.239 208.479 142.701 207.863 145.299 206.564C148.855 204.786 152.479 204.855 156.308 205.607C158.769 206.085 161.368 206.154 163.897 206.427C164.171 206.427 164.376 206.564 164.65 206.633C164.444 206.701 164.239 206.838 164.034 206.906C158.701 208.615 153.026 208.684 147.556 209.709C143.521 210.462 139.487 211.624 135.385 212.103C129.915 212.855 124.65 213.402 119.658 212.991Z" fill="#EFAA6C"/>
<path fill-rule="evenodd" clip-rule="evenodd" d="M169.021 190.163C169.134 190.48 169.247 190.797 169.367 191.111C169.552 192.035 169.293 192.847 168.99 193.799C168.956 193.904 168.922 194.011 168.888 194.12C168.809 194.319 168.723 194.518 168.637 194.72C168.427 195.208 168.213 195.707 168.068 196.239C167.247 199.111 165.606 201.094 163.008 201.778C161.213 202.291 159.297 202.082 157.487 201.885C157.367 201.872 157.247 201.859 157.128 201.846C154.051 201.573 151.042 201.162 148.034 200.684C147.147 200.539 146.256 200.418 145.363 200.297C142.883 199.961 140.396 199.624 137.982 198.769C135.52 197.874 133.103 196.889 130.689 195.905C127.94 194.785 125.195 193.667 122.393 192.684C122.011 192.546 121.615 192.429 121.216 192.311C119.831 191.902 118.41 191.481 117.401 190.154C117.196 189.88 117.196 189.744 117.469 189.539C118.495 188.786 119.658 188.376 120.82 187.966C122.834 187.211 124.885 186.863 126.945 186.514C127.683 186.389 128.423 186.264 129.162 186.12C130.149 185.926 131.131 185.705 132.111 185.484C134.591 184.926 137.055 184.372 139.555 184.274C139.991 184.255 140.426 184.237 140.86 184.219C143.555 184.11 146.213 184.002 148.922 183.59C149.417 183.51 149.911 183.426 150.405 183.342C153.74 182.776 157.075 182.209 160.41 183.043C163.008 183.658 165.675 184.342 167.521 186.94C168.215 187.902 168.618 189.031 169.021 190.163ZM143.794 196.65C147.35 197.47 150.905 198.154 154.256 198.086C154.804 198.108 155.345 198.135 155.879 198.161C158.542 198.293 161.038 198.416 163.487 198.017C164.903 197.832 165.543 196.76 166.206 195.65C166.279 195.527 166.352 195.404 166.427 195.282C166.897 194.445 167.128 193.529 167.363 192.593C167.436 192.305 167.509 192.016 167.589 191.727C168.136 189.47 166.29 186.53 164.17 186.53C163.35 186.53 162.871 186.803 162.803 187.897C162.734 190.086 161.025 192.684 159.521 192.889C158.925 192.974 158.356 192.927 157.78 192.879C157.43 192.85 157.079 192.821 156.717 192.821C156.699 192.824 156.68 192.827 156.661 192.83C156.264 192.896 155.816 192.97 155.555 193.231C153.777 195.009 151.931 194.393 150.016 193.709C149.895 193.664 149.773 193.619 149.651 193.573C147.373 192.722 145.033 191.847 142.632 192.821C140.581 193.641 138.94 193.026 137.299 191.932C135.042 190.359 132.581 190.222 129.982 190.633C128.761 190.828 127.54 190.849 126.319 190.87C125.831 190.878 125.342 190.886 124.854 190.906C124.786 190.906 124.7 190.923 124.615 190.94C124.529 190.957 124.444 190.974 124.375 190.974L124.786 191.18C126.965 192.205 129.278 192.697 131.591 193.188C132.979 193.483 134.367 193.778 135.726 194.188C136.888 194.508 138.026 194.889 139.16 195.269C140.694 195.784 142.222 196.296 143.794 196.65Z" fill="#E1805A"/>
<path d="M169.367 191.111C169.572 192.137 169.162 193.094 168.82 193.983C170.872 193.983 172.923 194.051 174.974 194.051C175.111 194.051 175.248 194.12 175.384 194.188C175.316 194.325 175.248 194.462 175.179 194.53C173.743 196.239 172.718 198.017 173.538 200.479C174.017 201.915 174.906 202.393 176.068 201.641C176.342 201.436 176.342 201.778 176.342 201.915C176.82 203.35 177.094 204.991 178.119 206.086C179.829 207.863 182.906 207.658 185.094 205.607C186.53 204.171 187.76 202.53 188.786 200.752C189.607 199.385 189.333 198.222 188.444 197.06C188.376 196.991 188.171 196.855 188.376 196.718C190.085 195.419 190.222 193.299 190.564 191.316C190.837 189.88 190.701 188.444 190.496 187.009C190.154 184.547 188.376 183.658 186.53 185.231C186.051 185.641 185.983 185.641 185.778 184.957C185.025 182.769 184.478 180.376 182.222 179.556C180.649 178.94 179.145 178.94 177.846 180.239C176.615 181.47 176.478 183.043 177.025 184.752C177.094 185.026 177.094 185.094 176.82 185.094C175.453 185.026 174.29 185.778 173.88 187.145C173.47 188.65 174.359 189.539 175.111 190.496C175.248 190.633 175.384 190.838 175.521 191.043C175.316 191.043 175.111 191.111 174.906 191.111C173.06 191.111 171.213 191.111 169.367 191.111Z" fill="#8CF18C"/>
<path d="M154.255 198.085C157.537 198.222 160.546 198.496 163.554 198.017C165.059 197.744 165.743 196.513 166.495 195.282C167.11 194.188 167.384 192.957 167.657 191.726C168.204 189.47 166.426 186.53 164.238 186.53C163.418 186.53 162.939 186.803 162.871 187.897C162.802 190.154 161.161 192.684 159.589 192.889C158.7 193.026 157.743 192.752 156.785 192.821C156.375 192.821 155.896 192.957 155.623 193.231C153.845 194.94 151.999 194.393 150.084 193.709C147.691 192.821 145.23 191.795 142.7 192.821C140.648 193.641 139.007 193.026 137.366 191.932C135.042 190.359 132.58 190.222 130.05 190.632C128.341 190.906 126.631 190.838 124.922 190.906C124.785 190.906 124.58 190.974 124.443 190.974C124.58 191.043 124.717 191.111 124.854 191.179C128.409 192.821 132.17 193.094 135.794 194.188C138.46 195.009 141.127 196.034 143.862 196.65C147.349 197.47 150.905 198.154 154.255 198.085Z" fill="#EFAA6C"/>
<path fill-rule="evenodd" clip-rule="evenodd" d="M98.3942 175.77C98.3259 175.915 98.2574 176.06 98.1883 176.205C97.9245 177.128 98.2329 178.051 98.5618 179.035C98.574 179.072 98.5863 179.109 98.5985 179.145C98.872 179.829 99.1455 180.581 99.3506 181.333C100.034 184.342 101.812 186.393 104.684 187.282C106.478 187.803 108.419 187.785 110.341 187.767C110.69 187.764 111.038 187.761 111.385 187.761C114.872 187.761 118.359 187.556 121.846 187.282C122.823 187.214 123.804 187.166 124.786 187.119C127.723 186.978 130.669 186.837 133.539 186.12C136.335 185.428 139.117 184.636 141.904 183.842C145.183 182.909 148.469 181.973 151.795 181.197C152.254 181.086 152.728 181.001 153.205 180.915C154.79 180.63 156.414 180.338 157.675 179.077C157.949 178.803 157.949 178.667 157.675 178.462C156.581 177.573 155.282 177.094 153.983 176.615C151.735 175.716 149.414 175.218 147.1 174.722C146.247 174.539 145.395 174.356 144.547 174.154C143.255 173.864 141.985 173.531 140.721 173.2C138.102 172.513 135.507 171.832 132.787 171.556C131.898 171.453 131.009 171.359 130.12 171.265C127.453 170.983 124.787 170.701 122.12 170.188C121.453 170.061 120.785 169.926 120.115 169.79C116.456 169.05 112.748 168.3 108.992 168.821C105.983 169.231 102.906 169.709 100.581 172.171C99.5981 173.216 99.0014 174.482 98.3942 175.77ZM126.975 183.658C122.872 184.137 118.769 184.615 114.94 184.273C114.133 184.244 113.335 184.227 112.547 184.21C109.733 184.151 107.043 184.094 104.479 183.453C102.84 183.125 102.144 181.918 101.427 180.675C101.396 180.621 101.365 180.567 101.334 180.513C100.784 179.578 100.588 178.6 100.39 177.612C100.342 177.372 100.293 177.13 100.24 176.889C99.6925 174.564 102.017 171.829 104.479 171.966C105.368 172.034 105.983 172.376 105.915 173.47C105.846 175.726 107.556 178.462 109.265 178.735C109.906 178.863 110.573 178.858 111.25 178.853C111.658 178.849 112.068 178.846 112.479 178.872C112.889 178.94 113.504 179.077 113.778 179.35C115.693 181.197 117.881 180.786 120.069 180.239C122.872 179.487 125.812 178.735 128.616 179.897C130.872 180.855 132.787 180.444 134.769 179.419C137.504 177.983 140.308 178.051 143.248 178.667C144.533 178.896 145.849 179.002 147.174 179.109C147.824 179.162 148.476 179.215 149.128 179.282C149.291 179.282 149.41 179.325 149.555 179.377C149.593 179.39 149.633 179.405 149.675 179.419C149.607 179.453 149.522 179.487 149.436 179.521C149.351 179.556 149.265 179.59 149.197 179.624C146.592 180.478 143.907 180.799 141.225 181.119C139.613 181.311 138.002 181.504 136.41 181.812C135.114 182.037 133.828 182.321 132.54 182.605C130.705 183.011 128.863 183.417 126.975 183.658Z" fill="#E1805A"/>
<path d="M98.1882 176.205C97.9147 177.231 98.2565 178.188 98.53 179.077C96.2053 178.94 93.8805 178.803 91.4873 178.735C91.3506 178.735 91.1454 178.803 91.0087 178.872C91.077 179.009 91.1454 179.145 91.2138 179.214C92.7181 180.991 93.7437 182.838 92.5813 185.299C91.8976 186.667 90.8719 187.077 89.5728 186.256C89.2309 186.051 89.2993 186.393 89.2309 186.53C88.5471 187.897 88.1369 189.538 86.9061 190.564C84.7864 192.205 81.2993 191.795 78.9745 189.538C77.4018 188.034 76.1711 186.256 75.077 184.41C74.2565 182.974 74.5984 181.812 75.7608 180.786C75.8292 180.718 76.1027 180.581 75.8976 180.444C74.0514 179.009 74.0514 176.889 73.7779 174.838C73.6412 173.402 73.8463 171.966 74.1198 170.53C74.6668 168.068 76.7865 167.385 78.7694 169.094C79.3164 169.504 79.3847 169.504 79.6582 168.889C80.6839 166.769 81.436 164.444 84.1027 163.761C85.9488 163.282 87.6582 163.419 89.0258 164.786C90.3933 166.086 90.3933 167.658 89.6412 169.299C89.5044 169.573 89.5044 169.641 89.9147 169.641C91.4873 169.641 92.7864 170.53 93.1283 171.897C93.5386 173.402 92.3762 174.291 91.4189 175.18C91.2822 175.316 91.077 175.521 90.9403 175.658C91.1454 175.727 91.3506 175.795 91.6241 175.795C93.9488 175.932 96.0685 176.068 98.1882 176.205Z" fill="#8CF18C"/>
<path d="M114.941 184.274C111.18 184.137 107.761 184.205 104.274 183.521C102.565 183.18 101.881 181.88 101.129 180.581C100.513 179.419 100.308 178.188 100.035 176.957C99.5562 174.633 101.881 171.897 104.274 172.034C105.163 172.103 105.778 172.376 105.71 173.538C105.642 175.795 107.351 178.462 109.06 178.803C110.086 179.009 111.18 178.803 112.274 178.94C112.753 179.009 113.3 179.077 113.573 179.419C115.488 181.265 117.676 180.855 119.864 180.308C122.667 179.556 125.607 178.803 128.411 179.966C130.667 180.923 132.582 180.444 134.565 179.487C137.3 178.12 140.103 178.188 143.043 178.735C144.958 179.145 146.941 179.145 148.924 179.35C149.129 179.35 149.266 179.419 149.471 179.487C149.334 179.556 149.129 179.624 148.992 179.692C144.821 181.06 140.445 181.06 136.206 181.88C133.06 182.496 129.984 183.316 126.77 183.727C122.941 184.205 118.838 184.615 114.941 184.274Z" fill="#EFAA6C"/>
<path fill-rule="evenodd" clip-rule="evenodd" d="M111.12 155.442C111.142 155.138 111.164 154.834 111.179 154.53C111.384 153.573 112 152.957 112.684 152.342C112.802 152.223 112.925 152.105 113.049 151.985C113.425 151.622 113.811 151.249 114.119 150.838C115.76 148.718 117.812 147.624 120.137 147.966C121.772 148.228 123.283 149.053 124.728 149.843C124.793 149.878 124.858 149.913 124.923 149.949C127.248 151.248 129.572 152.615 131.829 154.051C132.418 154.417 133.018 154.772 133.62 155.128C135.603 156.302 137.603 157.485 139.282 159.111C140.898 160.634 142.457 162.241 144.017 163.849C145.891 165.781 147.766 167.714 149.743 169.504C150.019 169.763 150.313 170.004 150.609 170.244C151.561 171.02 152.523 171.804 152.889 173.265C152.957 173.607 152.889 173.675 152.615 173.744C151.521 174.017 150.427 173.949 149.333 173.88C147.331 173.772 145.415 173.322 143.483 172.867C142.973 172.747 142.462 172.627 141.948 172.513C140.946 172.285 139.928 172.103 138.91 171.92C136.873 171.556 134.837 171.191 132.923 170.462C132.515 170.311 132.107 170.159 131.699 170.007C129.507 169.191 127.308 168.371 125.06 167.795C124.55 167.667 124.035 167.547 123.519 167.425C120.712 166.766 117.866 166.098 115.555 164.308C115.48 164.249 115.404 164.19 115.328 164.131C113.549 162.752 111.704 161.321 111.179 158.632C110.967 157.569 111.043 156.505 111.12 155.442ZM133.812 158.701C131.282 156.786 128.615 155.009 125.88 153.915C125.347 153.662 124.826 153.407 124.312 153.155C122.32 152.18 120.438 151.258 118.427 150.769C117.06 150.496 116.102 151.248 115.077 152.068C114.366 152.615 113.829 153.337 113.293 154.059C113.159 154.24 113.025 154.421 112.889 154.598C111.589 156.308 112.068 159.316 113.778 160.068C114.393 160.342 114.94 160.274 115.35 159.385C116.171 157.607 118.427 156.034 119.726 156.376C120.273 156.513 120.759 156.771 121.246 157.029C121.489 157.159 121.732 157.288 121.983 157.402C122.325 157.538 122.735 157.607 123.077 157.47C125.128 156.65 126.427 157.744 127.726 158.974C127.774 159.02 127.821 159.065 127.869 159.111C129.463 160.641 131.078 162.19 133.401 162.256C135.384 162.325 136.478 163.35 137.436 164.855C138.735 166.906 140.649 167.863 142.906 168.41C143.923 168.701 144.906 169.094 145.903 169.494C146.313 169.658 146.726 169.823 147.145 169.983C147.213 169.983 147.282 170 147.35 170.017C147.419 170.034 147.487 170.051 147.555 170.051C147.475 169.971 147.419 169.891 147.372 169.825C147.338 169.778 147.31 169.738 147.282 169.709C145.824 168.074 144.08 166.839 142.327 165.598C141.368 164.918 140.406 164.237 139.487 163.487C138.752 162.883 138.037 162.249 137.323 161.616C136.177 160.6 135.033 159.585 133.812 158.701Z" fill="#E1805A"/>
<path d="M111.179 154.53C111.384 153.641 112 152.957 112.615 152.342C110.974 151.59 109.333 150.906 107.692 150.154C107.555 150.085 107.487 149.949 107.418 149.88C107.555 149.812 107.623 149.744 107.76 149.675C109.47 148.786 110.974 147.624 111.179 145.299C111.316 143.932 110.769 143.248 109.538 143.453C109.264 143.521 109.401 143.248 109.401 143.111C109.47 141.744 109.88 140.308 109.401 139.077C108.649 137.026 106.051 136.137 103.589 137.094C101.948 137.778 100.376 138.735 98.8713 139.829C97.7773 140.65 97.5038 141.744 97.8457 142.974C97.8457 143.111 97.9824 143.248 97.7773 143.316C95.9311 143.795 95.1106 145.504 94.085 147.077C93.4012 148.171 92.991 149.402 92.5807 150.632C91.9653 152.82 93.1277 154.12 95.179 153.436C95.726 153.231 95.7944 153.299 95.726 153.915C95.5209 155.966 95.179 158.085 96.6833 159.59C97.7089 160.615 98.9397 161.094 100.444 160.479C101.88 159.863 102.564 158.632 102.7 157.06C102.7 156.786 102.769 156.718 103.042 156.855C104.136 157.402 105.367 157.128 106.188 156.171C107.076 155.077 106.666 153.983 106.324 152.957C106.256 152.752 106.256 152.547 106.188 152.41C106.324 152.479 106.529 152.479 106.666 152.547C108.17 153.231 109.675 153.846 111.179 154.53Z" fill="#8CF18C"/>
<path d="M125.88 153.914C123.282 152.684 120.957 151.385 118.359 150.769C117.06 150.427 116.102 151.248 115.008 152.068C114.12 152.752 113.504 153.709 112.82 154.598C111.521 156.308 112 159.316 113.709 160.068C114.325 160.342 114.872 160.273 115.282 159.385C116.102 157.538 118.359 155.966 119.658 156.376C120.41 156.581 121.094 157.128 121.914 157.402C122.256 157.538 122.667 157.607 123.008 157.47C125.06 156.65 126.359 157.744 127.658 158.974C129.299 160.547 130.94 162.188 133.333 162.256C135.248 162.256 136.41 163.35 137.367 164.855C138.667 166.906 140.649 167.863 142.837 168.41C144.273 168.752 145.709 169.436 147.077 169.983C147.214 170.051 147.35 170.051 147.487 170.051C147.419 169.914 147.35 169.846 147.214 169.709C144.957 167.179 141.949 165.607 139.419 163.487C137.504 161.914 135.795 160.137 133.743 158.701C131.214 156.786 128.615 155.008 125.88 153.914Z" fill="#EFAA6C"/>
<path d="M128.908 214.76C130.903 207.397 129.21 200.532 125.128 199.426C121.046 198.32 116.119 203.392 114.125 210.755C112.13 218.117 113.822 224.983 117.904 226.089C121.987 227.195 126.913 222.123 128.908 214.76Z" fill="#B1B1C4"/>
<path d="M161.025 223.932C164.764 223.932 167.794 219.554 167.794 214.154C167.794 208.754 164.764 204.376 161.025 204.376C157.287 204.376 154.256 208.754 154.256 214.154C154.256 219.554 157.287 223.932 161.025 223.932Z" fill="#B1B1C4"/>
<defs>
<linearGradient id="paint0_linear" x1="222.626" y1="196.769" x2="371.169" y2="196.769" gradientUnits="userSpaceOnUse">
<stop stop-color="#01BC86"/>
<stop offset="0.366" stop-color="#01B26E"/>
<stop offset="1" stop-color="#00A347"/>
</linearGradient>
</defs>
</svg>
