<svg width="531" height="508" viewBox="0 0 531 508" fill="none" xmlns="http://www.w3.org/2000/svg">
<mask id="mask0" mask-type="alpha" maskUnits="userSpaceOnUse" x="24" y="0" width="483" height="482">
<path fill-rule="evenodd" clip-rule="evenodd" d="M265.816 482C398.917 482 506.816 374.101 506.816 241C506.816 107.899 398.917 0 265.816 0C132.716 0 24.8164 107.899 24.8164 241C24.8164 374.101 132.716 482 265.816 482Z" fill="white"/>
</mask>
<g mask="url(#mask0)">
<path d="M81.3553 332.533C60.5439 331.468 39.4029 330.932 17.9321 330.925C12.4455 330.925 6.98178 330.961 1.54102 331.032C1.6958 316.852 7.45761 303.754 16.6508 294.665C19.0014 292.353 21.5273 290.332 24.1928 288.631C29.4359 285.307 35.1218 283.204 40.9709 282.425C50.4619 281.071 60.059 283.344 68.4901 288.942C69.0315 285.17 69.8108 281.457 70.8206 277.838C79.085 248.106 102.545 224.805 132.016 220.807C154.565 217.741 175.643 226.659 190.22 243.015C195.087 227.205 207.789 214.944 223.638 212.79C240.477 210.507 255.819 220.292 262.802 236.037C267.101 222.8 277.911 212.575 291.301 210.753C304.244 208.995 316.163 215.544 322.845 226.605C330.344 205.287 347.965 188.963 369.739 186.005C388.805 183.411 406.538 191.685 418.053 206.369C425.176 200.321 433.389 196.562 441.96 195.426C468.258 191.857 491.632 212.522 494.169 241.589L499.501 240.893C505.993 239.977 512.564 241.227 518.541 244.515C514.992 263.105 510.423 281.368 504.867 299.178C455.918 290.981 406.581 286.907 357.192 286.981C255.139 286.981 160.258 303.765 81.3553 332.533Z" fill="#37DD9E"/>
<path d="M330.715 277.533C223.015 277.533 137.432 299.326 61.4655 299.326C-14.5013 299.326 -52.0039 307.109 -96.2377 360.036C-145.982 419.562 -1.03883 500.135 56.6575 481.455C114.354 462.775 153.443 493.644 181.666 509.475C253.787 549.948 281.673 512.588 309.56 492.352C370.141 453.435 466.301 517.258 535.537 490.795C590.973 469.609 624.004 436.312 641.313 428.529C658.622 420.745 731.233 368.613 719.203 349.139C694.202 308.666 652.853 325.789 594.195 313.336C535.537 300.883 438.415 277.533 330.715 277.533Z" fill="#2BB281"/>
<path d="M81.3136 323.049C109.761 323.049 132.821 318.659 132.821 313.243C132.821 307.827 109.761 303.436 81.3136 303.436C52.8665 303.436 29.8057 307.827 29.8057 313.243C29.8057 318.659 52.8665 323.049 81.3136 323.049Z" fill="#22A16E"/>
</g>
<path d="M325.046 314.254C353.493 314.254 376.554 309.864 376.554 304.448C376.554 299.032 353.493 294.641 325.046 294.641C296.599 294.641 273.538 299.032 273.538 304.448C273.538 309.864 296.599 314.254 325.046 314.254Z" fill="#22A16E"/>
<path d="M454.645 317.186C483.092 317.186 506.153 312.795 506.153 307.379C506.153 301.963 483.092 297.573 454.645 297.573C426.198 297.573 403.137 301.963 403.137 307.379C403.137 312.795 426.198 317.186 454.645 317.186Z" fill="#22A16E"/>
<path d="M201.339 318.652C229.786 318.652 252.847 314.261 252.847 308.845C252.847 303.429 229.786 299.039 201.339 299.039C172.892 299.039 149.831 303.429 149.831 308.845C149.831 314.261 172.892 318.652 201.339 318.652Z" fill="#22A16E"/>
<path d="M96.4004 245.157C99.4642 245.294 102.513 245.665 105.52 246.269C105.988 246.573 106.471 246.852 106.969 247.104C110.192 249.639 111.764 252.188 113.785 255.754C116.41 260.606 117.232 266.236 116.103 271.639C114.756 278.176 110.902 282.534 105.962 286.746C104.941 287.611 103.789 287.821 102.912 288.882C100.496 288.974 98.0753 288.898 95.6688 288.656C94.9445 288.584 94.9445 288.794 95.14 289.383C96.911 294.697 98.954 299.917 101.261 305.02C102.318 307.403 103.434 309.741 104.607 312.087C104.839 312.574 104.948 312.719 104.252 312.814C103.341 312.971 102.456 312.423 102.188 311.535C98.8488 304.374 95.6688 297.154 93.3219 289.572C93.1481 289.005 93.2857 288.206 92.2861 288.119C91.8225 288.119 91.7138 288.119 91.7138 288.584C91.7138 292.942 91.7645 297.3 92.0325 301.708C92.2426 305.122 92.5686 308.536 92.8366 311.949C92.8366 312.211 92.938 312.618 92.4961 312.501C92.0543 312.385 91.0909 313.032 90.9533 311.964C90.7649 310.562 90.649 309.146 90.5476 307.729C90.019 301.229 89.8232 294.705 89.9609 288.184C89.9609 287.589 89.6784 287.516 89.2365 287.393C83.826 285.925 78.876 283.103 74.8507 279.193C74.5175 278.866 74.2061 278.524 73.757 278.059C74.8 284.204 76.1184 290.407 77.4584 296.268C76.8645 296.435 76.2488 296.537 75.662 296.704C74.3437 291.039 73.0688 285.163 72.1054 279.113C70.7568 285.521 69.83 292.011 69.3311 298.542L67.5347 298.868C67.6868 295.033 68.2591 290.923 68.7589 287.124C69.0052 285.417 69.3239 283.725 69.5991 282.04C69.6136 281.875 69.6136 281.71 69.5991 281.546C69.4512 281.604 69.3082 281.675 69.1718 281.756C63.2972 285.867 57.582 285.809 51.7147 281.568L51.3815 281.35C51.3314 281.496 51.2974 281.647 51.2801 281.8C51.3164 286.169 51.5848 290.533 52.0841 294.874C52.695 300.696 53.7067 306.47 55.112 312.153C55.1699 312.371 55.3148 312.763 54.8947 312.69C54.3152 312.589 53.4459 313.315 53.1924 312.174C52.6564 309.654 52.0769 307.134 51.635 304.592C50.1875 296.702 49.4601 288.696 49.462 280.674C49.462 280.573 49.462 280.471 49.4185 280.1C48.4629 282.686 47.6551 285.325 46.9991 288.003C45.0218 295.917 44.1083 304.061 44.2828 312.218C44.2828 313.482 43.486 313.032 42.9065 313.119C42.1025 313.249 42.3488 312.625 42.3488 312.247C42.195 301.551 43.8356 290.905 47.202 280.754C47.2557 280.536 47.2968 280.316 47.3251 280.093C45.1337 282.564 42.167 284.212 38.9153 284.763C36.1814 285.367 33.3243 285.024 30.8097 283.79C26.7968 281.749 25.7392 277.471 28.2383 273.731C28.7261 272.914 29.3683 272.201 30.1288 271.632C30.9908 271.065 30.9763 270.477 30.7445 269.569C29.035 262.778 25.8551 256.669 22.1391 250.808C21.8494 250.343 21.6249 250.263 21.0961 250.489C19.3342 251.364 17.1984 250.803 16.0908 249.174C16.0256 248.716 15.9241 248.506 16.0908 248.164C17.5395 246.065 21.0671 245.847 22.3782 247.801C26.8402 254.447 30.6504 261.412 32.5699 269.271C32.6713 269.692 32.7655 269.809 33.2146 269.576C33.8573 269.261 34.5233 268.997 35.2066 268.784C36.0468 268.516 37.1334 268.545 37.6911 268.007C38.2489 267.47 37.7998 266.322 37.9591 265.451C37.9624 265.424 37.9624 265.397 37.9591 265.371C38.1402 259.873 37.4811 254.556 34.8154 249.631C34.5474 249.138 34.4243 248.869 33.7941 249.334C33.0714 249.842 32.174 250.035 31.307 249.868C30.4401 249.701 29.6778 249.188 29.1944 248.448C28.47 247.075 29.122 245.782 31.0343 244.947C31.0343 244.947 31.0705 244.903 31.085 244.874C31.6322 244.74 32.2038 244.74 32.751 244.874C34.3301 245.353 35.1849 246.595 35.9744 247.917C39.3427 253.619 40.1322 259.865 39.7918 266.337C39.7049 267.978 39.6469 267.949 41.2405 268.073C43.0215 268.175 44.7436 268.749 46.2313 269.736C46.637 270.012 46.7094 269.99 46.7746 269.489C47.6583 263.286 51.0121 259.11 57.0677 257.396C61.4139 256.154 65.521 257.12 69.1573 259.873C69.3963 260.054 69.6281 260.512 69.8816 259.814C72.2141 254.077 76.6472 250.496 82.1378 248.077C85.3881 246.601 88.8829 245.742 92.4454 245.542C92.7931 245.542 94.1839 245.237 94.5243 245.194C94.604 245.332 95.8934 246.043 96.0093 246.138C99.298 248.596 101.992 251.767 103.89 255.413C106.288 259.713 106.947 265.131 106.194 270.019C105.129 276.97 102.572 281.161 97.4073 285.649C96.9292 286.063 96.2048 286.732 95.7268 287.146C96.2628 287.531 95.763 287.109 96.3642 287.247C96.9654 287.385 96.2556 287.705 96.9944 287.138C99.9788 284.836 102.282 281.814 104.448 278.72C108.2 273.367 108.954 270.731 107.534 264.194C106.194 257.991 103.572 251.985 98.8415 247.925C97.9283 247.096 97.1096 246.167 96.4004 245.157Z" fill="#424251"/>
<path d="M109.866 247.409C116.11 249.799 122.499 253.989 125.911 259.887C129.668 266.071 128.938 273.993 124.115 279.381C119.689 284.575 113.104 287.371 106.513 288.54C106.629 287.992 106.878 287.481 107.237 287.051C110.924 284.146 113.655 280.057 115.929 275.873C118.646 270.913 119.015 268.283 117.646 262.727C116.523 258.158 114.546 253.437 111.337 250.045C110.696 249.26 110.198 248.368 109.866 247.409Z" fill="#424251"/>
<path d="M97.6678 245.237C98.3043 245.987 99.0347 246.651 99.8409 247.213C104.535 251.273 108.091 256.052 109.424 262.247C110.873 268.828 109.048 274.675 105.295 280.028C103.077 283.057 100.412 285.732 97.3926 287.959C96.6682 288.533 96.0887 288.141 95.4585 287.995C94.8385 287.968 94.2312 287.81 93.6766 287.531L95.1253 286.289C100.29 281.8 104.173 276.498 105.266 269.583C105.96 264.808 105.004 259.938 102.557 255.783C100.326 251.894 97.3236 248.505 93.7346 245.825C93.63 245.702 93.5468 245.562 93.4883 245.411C94.8649 245.144 96.2738 245.085 97.6678 245.237Z" fill="#5D5D69"/>
<path d="M111.018 247.91C111.308 248.753 112.083 249.167 112.641 249.762C115.881 253.039 118.196 257.119 119.348 261.587C120.717 267.15 119.711 272.365 116.987 277.333C114.698 281.51 111.409 284.771 107.722 287.676C107.498 287.85 107.244 287.988 107.252 288.322C105.503 288.741 103.71 288.943 101.913 288.925C102.775 287.865 103.978 287.211 104.999 286.34C109.961 282.12 113.691 277.108 115.075 270.6C116.118 265.457 115.2 260.108 112.503 255.609C110.5 252.076 107.825 248.972 104.629 246.472C104.504 246.33 104.404 246.168 104.332 245.993C106.642 246.302 108.895 246.948 111.018 247.91Z" fill="#5D5D69"/>
<path d="M78.147 298.781C79.3567 303.074 80.7619 307.708 82.3338 311.855C82.5076 312.313 82.3338 312.371 81.9209 312.421C81.5138 312.529 81.0802 312.459 80.7279 312.228C80.3756 311.996 80.1379 311.626 80.0738 311.209C78.8207 307.25 77.3212 303.125 76.3506 299.079C76.959 299.05 77.5675 298.839 78.147 298.781Z" fill="#424251"/>
<path d="M69.3742 298.723C69.5046 302.355 68.9469 307.65 68.9686 311.964C68.9686 312.894 68.2442 312.378 67.8531 312.465C67.4619 312.552 67.0201 312.603 67.0418 311.906C67.1722 308.427 67.2663 304.955 67.3822 301.476C67.3603 300.629 67.4258 299.782 67.5778 298.948C68.2152 298.89 68.744 298.789 69.3742 298.723Z" fill="#424251"/>
<path d="M75.6475 296.479L77.4149 295.97L77.7626 297.314C77.2611 297.665 76.671 297.866 76.0603 297.895L75.6475 296.479Z" fill="#5D5D69"/>
<path d="M76.0605 297.895C76.4952 297.299 77.1398 297.35 77.7628 297.314C77.8425 297.626 77.9584 298.149 78.038 298.462C77.5493 298.813 76.9474 298.968 76.3503 298.897C76.2779 298.643 76.1185 298.149 76.0605 297.895Z" fill="#424251"/>
<path d="M69.4105 299.043L67.5127 299.224L67.6286 298.542L69.425 298.193L69.4105 299.043Z" fill="#5D5D69"/>
<path d="M76.285 298.658C76.8887 298.739 77.5008 298.591 78.0018 298.244C78.1868 298.509 78.2808 298.828 78.2698 299.152L76.4516 299.326C76.2271 299.144 76.285 298.897 76.285 298.658Z" fill="#5D5D69"/>
<path d="M37.9806 273.142C38.7702 273.208 39.0527 273.752 39.0889 274.442C39.1306 274.738 39.0432 275.038 38.849 275.264C38.6549 275.491 38.3728 275.623 38.0748 275.626C37.2925 275.626 37.0027 275.016 36.9593 274.333C36.92 274.036 37.0091 273.736 37.2041 273.509C37.3991 273.281 37.6816 273.148 37.9806 273.142Z" fill="#030304"/>
<path d="M33.91 274.646C33.8449 275.285 33.6131 275.83 32.8815 275.808C32.5833 275.818 32.2941 275.704 32.0817 275.494C31.8694 275.284 31.7526 274.996 31.7587 274.697C31.7256 274.412 31.8151 274.128 32.0047 273.914C32.1943 273.7 32.4659 273.578 32.7511 273.578C33.0489 273.554 33.3433 273.655 33.5633 273.858C33.7833 274.061 33.909 274.346 33.91 274.646Z" fill="#030304"/>
<path d="M220.234 240.532C223.29 240.669 226.332 241.036 229.332 241.631C229.81 241.935 230.306 242.211 230.817 242.458C234.033 244.966 235.605 247.489 237.626 251.018C240.254 255.816 241.075 261.386 239.944 266.73C238.604 273.199 234.743 277.511 229.803 281.68C228.781 282.543 227.63 282.744 226.753 283.801C224.336 283.892 221.916 283.817 219.51 283.578C218.785 283.506 218.785 283.714 218.988 284.296C220.758 289.555 222.798 294.72 225.102 299.771C226.166 302.121 227.311 304.443 228.448 306.765C228.68 307.239 228.796 307.39 228.093 307.447C227.183 307.606 226.298 307.061 226.036 306.182C222.69 299.088 219.517 291.951 217.163 284.447C216.989 283.887 217.126 283.096 216.127 283.01C215.663 283.01 215.562 283.01 215.562 283.47C215.562 287.782 215.613 292.131 215.881 296.458C216.083 299.836 216.409 303.214 216.677 306.592C216.677 306.851 216.779 307.253 216.337 307.138C215.895 307.023 214.932 307.663 214.794 306.606C214.606 305.219 214.497 303.811 214.388 302.416C213.86 295.983 213.664 289.527 213.802 283.075C213.802 282.478 213.526 282.413 213.077 282.291C207.661 280.845 202.704 278.058 198.67 274.191C198.344 273.867 198.025 273.53 197.576 273.07C198.619 279.15 199.937 285.288 201.277 291.089C200.691 291.254 200.068 291.347 199.481 291.52C198.163 285.914 196.888 280.099 195.924 274.105C194.575 280.448 193.649 286.874 193.15 293.338C192.556 293.453 191.955 293.547 191.361 293.662C191.506 289.86 192.042 285.799 192.578 282.032C192.824 280.351 193.143 278.676 193.418 277.001C193.436 276.839 193.436 276.675 193.418 276.512C193.27 276.569 193.127 276.638 192.991 276.721C187.116 280.789 181.401 280.724 175.534 276.534L175.201 276.318C175.15 276.463 175.116 276.612 175.099 276.764C175.136 281.088 175.404 285.406 175.903 289.701C176.503 295.473 177.505 301.195 178.902 306.829C178.953 307.045 179.098 307.433 178.677 307.361C178.098 307.261 177.229 307.972 176.982 306.851C176.446 304.35 175.867 301.863 175.425 299.347C173.974 291.54 173.247 283.617 173.252 275.679C173.252 275.578 173.252 275.477 173.209 275.111C172.271 277.674 171.477 280.287 170.833 282.938C168.856 290.772 167.942 298.834 168.116 306.908C168.116 308.152 167.32 307.706 166.74 307.8C165.936 307.929 166.182 307.311 166.182 306.93C166.032 296.348 167.673 285.815 171.036 275.772C171.089 275.557 171.13 275.338 171.159 275.118C168.955 277.558 165.978 279.179 162.72 279.711C159.986 280.308 157.129 279.968 154.614 278.748C150.601 276.728 149.544 272.487 152.043 268.793C152.531 267.985 153.173 267.279 153.933 266.716C154.803 266.155 154.781 265.573 154.556 264.675C152.84 257.947 149.667 251.91 145.944 246.109C145.654 245.649 145.429 245.563 144.901 245.793C143.142 246.662 141.007 246.113 139.895 244.506C139.837 244.061 139.729 243.852 139.895 243.515C141.308 241.437 144.864 241.222 146.176 243.155C150.645 249.732 154.448 256.617 156.367 264.401C156.469 264.818 156.563 264.926 157.012 264.703C157.656 264.393 158.325 264.136 159.011 263.934C159.851 263.668 160.938 263.697 161.503 263.165C162.068 262.633 161.604 261.491 161.764 260.635C161.767 260.607 161.767 260.578 161.764 260.549C161.945 255.115 161.293 249.847 158.62 244.981C158.352 244.492 158.229 244.226 157.599 244.686C156.877 245.193 155.979 245.386 155.11 245.221C154.242 245.055 153.48 244.546 152.999 243.809C152.238 242.458 152.919 241.179 154.839 240.352C154.839 240.352 154.839 240.302 154.882 240.28C155.429 240.144 156.002 240.144 156.548 240.28C158.135 240.747 158.982 241.976 159.772 243.292C163.147 248.934 163.937 255.115 163.589 261.519C163.502 263.144 163.451 263.115 165.038 263.237C166.819 263.337 168.542 263.905 170.029 264.883C170.434 265.156 170.507 265.135 170.579 264.631C171.456 258.501 174.817 254.368 180.865 252.671C185.247 251.442 189.318 252.398 192.962 255.122C193.201 255.302 193.425 255.755 193.686 255.065C196.026 249.38 200.452 245.843 205.95 243.45C209.182 241.985 212.659 241.125 216.207 240.913C216.554 240.913 217.945 240.611 218.285 240.561C218.765 240.899 219.263 241.211 219.778 241.495C223.063 243.933 225.754 247.072 227.651 250.681C230.049 254.936 230.708 260.29 229.955 265.135C228.89 272.013 226.333 276.16 221.176 280.602C220.698 281.012 219.966 281.673 219.488 282.083C220.024 282.464 219.531 282.047 220.125 282.183C220.719 282.32 220.017 282.636 220.756 282.076C223.74 279.797 226.043 276.807 228.209 273.745C231.961 268.441 232.715 265.839 231.295 259.37C229.955 253.232 227.333 247.288 222.603 243.27C221.717 242.444 220.922 241.526 220.234 240.532Z" fill="#424251"/>
<path d="M233.671 242.767C239.915 245.132 246.311 249.272 249.723 255.115C253.472 261.236 252.742 269.071 247.926 274.406C243.493 279.546 236.909 282.313 230.324 283.47C230.437 282.926 230.686 282.419 231.049 281.996C234.743 279.121 237.466 275.075 239.741 270.935C242.464 266.019 242.827 263.424 241.458 257.926C240.342 253.405 238.357 248.733 235.148 245.376C234.505 244.6 234.004 243.716 233.671 242.767Z" fill="#424251"/>
<path d="M221.479 240.611C222.114 241.357 222.844 242.017 223.653 242.573C228.346 246.591 231.903 251.313 233.236 257.451C234.685 263.963 232.859 269.742 229.107 275.046C226.89 278.046 224.225 280.693 221.204 282.895C220.48 283.463 219.9 283.075 219.277 282.931C218.655 282.901 218.046 282.745 217.488 282.471L218.937 281.242C224.109 276.8 227.991 271.553 229.078 264.675C229.779 259.949 228.822 255.128 226.369 251.018C224.13 247.163 221.111 243.808 217.503 241.164C217.387 241.071 217.343 240.891 217.264 240.755C218.654 240.499 220.075 240.451 221.479 240.611Z" fill="#5D5D69"/>
<path d="M234.823 243.263C235.12 244.09 235.887 244.506 236.452 245.096C239.687 248.342 241.998 252.378 243.153 256.797C244.522 262.303 243.515 267.463 240.799 272.372C238.51 276.512 235.214 279.732 231.527 282.615C231.309 282.787 231.049 282.924 231.063 283.254C229.315 283.668 227.522 283.868 225.725 283.851C226.579 282.801 227.782 282.155 228.803 281.292C233.765 277.109 237.539 272.157 238.879 265.717C239.934 260.63 239.027 255.336 236.336 250.882C234.334 247.383 231.659 244.309 228.463 241.833C228.337 241.695 228.237 241.537 228.166 241.365C230.467 241.669 232.71 242.309 234.823 243.263Z" fill="#5D5D69"/>
<path d="M201.951 293.597C203.161 297.845 204.566 302.438 206.145 306.571C206.319 307.023 206.145 307.081 205.725 307.124C205.319 307.243 204.88 307.18 204.524 306.95C204.169 306.721 203.933 306.348 203.878 305.931C202.625 302.014 201.126 297.931 200.162 293.928C200.763 293.87 201.35 293.655 201.951 293.597Z" fill="#424251"/>
<path d="M193.186 293.547C193.309 297.141 192.752 302.38 192.773 306.65C192.773 307.57 192.049 307.059 191.658 307.146C191.267 307.232 190.825 307.282 190.846 306.592C190.977 303.149 191.071 299.707 191.187 296.264C191.164 295.428 191.232 294.591 191.39 293.77C192.02 293.719 192.549 293.612 193.186 293.547Z" fill="#424251"/>
<path d="M199.452 291.326L201.22 290.823L201.567 292.152C201.069 292.5 200.481 292.697 199.872 292.72L199.452 291.326Z" fill="#5D5D69"/>
<path d="M199.872 292.72C200.299 292.138 200.951 292.188 201.567 292.152C201.647 292.461 201.763 292.979 201.85 293.288C201.36 293.634 200.759 293.788 200.162 293.719C200.118 293.46 199.945 293 199.872 292.72Z" fill="#424251"/>
<path d="M193.215 293.863L191.317 294.043L191.433 293.367L193.23 293.022L193.215 293.863Z" fill="#5D5D69"/>
<path d="M200.119 293.482C200.725 293.558 201.338 293.413 201.843 293.072C202.025 293.336 202.117 293.651 202.103 293.971L200.285 294.143C200.039 293.964 200.119 293.719 200.119 293.482Z" fill="#5D5D69"/>
<path d="M161.793 268.197C162.582 268.261 162.857 268.8 162.894 269.483C162.938 269.774 162.852 270.07 162.659 270.294C162.465 270.518 162.184 270.647 161.887 270.647C161.104 270.647 160.807 270.051 160.764 269.375C160.727 269.08 160.818 268.784 161.014 268.559C161.21 268.334 161.493 268.202 161.793 268.197V268.197Z" fill="#030304"/>
<path d="M157.722 269.72C157.649 270.353 157.418 270.892 156.686 270.87C156.39 270.874 156.104 270.76 155.893 270.553C155.682 270.347 155.563 270.065 155.563 269.77C155.528 269.489 155.617 269.206 155.807 268.994C155.997 268.782 156.27 268.661 156.556 268.664C156.854 268.642 157.148 268.743 157.368 268.943C157.589 269.142 157.717 269.424 157.722 269.72Z" fill="#030304"/>
<path d="M348.14 234.324C351.194 234.462 354.233 234.834 357.23 235.436C357.71 235.741 358.205 236.02 358.715 236.271C361.939 238.806 363.51 241.355 365.531 244.921C368.159 249.77 368.981 255.398 367.849 260.799C366.502 267.336 362.648 271.693 357.708 275.906C356.687 276.778 355.535 276.981 354.659 278.049C352.242 278.141 349.822 278.066 347.415 277.824C346.691 277.751 346.691 277.962 346.886 278.55C348.657 283.867 350.7 289.089 353.007 294.195C354.065 296.57 355.18 298.916 356.354 301.262C356.586 301.741 356.694 301.894 355.999 301.952C355.088 302.109 354.202 301.561 353.934 300.673C350.595 293.505 347.415 286.292 345.068 278.71C344.894 278.143 345.032 277.344 344.025 277.257C343.569 277.257 343.46 277.257 343.46 277.722C343.46 282.08 343.511 286.474 343.779 290.846C343.989 294.26 344.315 297.674 344.583 301.08C344.583 301.349 344.684 301.756 344.243 301.639C343.801 301.523 342.837 302.17 342.7 301.102C342.511 299.7 342.395 298.277 342.294 296.868C341.765 290.367 341.57 283.843 341.707 277.322C341.707 276.72 341.425 276.654 340.983 276.531C335.571 275.062 330.619 272.24 326.59 268.331C326.264 268.004 325.952 267.662 325.496 267.198C326.546 273.342 327.865 279.545 329.205 285.406C328.611 285.573 327.995 285.668 327.408 285.842C326.09 280.177 324.815 274.301 323.845 268.243C322.501 274.655 321.577 281.147 321.078 287.68L319.281 288.006C319.433 284.164 319.969 280.061 320.505 276.255C320.744 274.555 321.07 272.863 321.346 271.17C321.36 271.006 321.36 270.841 321.346 270.677C321.198 270.733 321.055 270.801 320.918 270.88C315.044 274.998 309.328 274.933 303.461 270.698L303.128 270.48C303.077 270.626 303.043 270.777 303.026 270.931C303.063 275.3 303.331 279.664 303.831 284.004C304.428 289.836 305.428 295.619 306.822 301.313C306.88 301.53 307.025 301.915 306.605 301.85C306.025 301.748 305.156 302.467 304.903 301.334C304.367 298.807 303.787 296.294 303.345 293.752C301.901 285.861 301.174 277.856 301.172 269.834C301.172 269.732 301.172 269.631 301.136 269.26C300.18 271.844 299.373 274.48 298.717 277.155C296.745 285.068 295.838 293.21 296.022 301.363C296.022 302.62 295.225 302.17 294.646 302.264C293.842 302.395 294.088 301.77 294.088 301.385C293.934 290.691 295.575 280.048 298.941 269.899C298.995 269.682 299.034 269.461 299.057 269.238C296.856 271.703 293.881 273.341 290.625 273.88C287.892 274.483 285.034 274.14 282.52 272.906C278.507 270.865 277.449 266.58 279.948 262.847C280.436 262.03 281.078 261.317 281.839 260.748C282.701 260.181 282.686 259.593 282.455 258.685C280.745 251.887 277.565 245.786 273.849 239.917C273.56 239.46 273.328 239.372 272.806 239.605C271.048 240.483 268.913 239.928 267.801 238.305C267.736 237.854 267.627 237.644 267.801 237.302C269.25 235.203 272.777 234.985 274.088 236.939C278.55 243.585 282.361 250.543 284.28 258.409C284.381 258.83 284.476 258.939 284.925 258.714C285.568 258.4 286.237 258.14 286.924 257.937C287.764 257.668 288.851 257.697 289.409 257.16C289.966 256.622 289.517 255.468 289.677 254.603C289.68 254.574 289.68 254.545 289.677 254.516C289.858 249.025 289.198 243.701 286.533 238.777C286.265 238.29 286.142 238.05 285.511 238.486C284.789 238.999 283.889 239.194 283.02 239.027C282.15 238.86 281.387 238.345 280.905 237.6C280.18 236.227 280.832 234.942 282.744 234.107C282.765 234.085 282.782 234.061 282.795 234.034C283.342 233.896 283.914 233.896 284.461 234.034C286.04 234.506 286.895 235.748 287.685 237.077C291.053 242.779 291.842 249.025 291.502 255.497C291.415 257.138 291.357 257.109 292.951 257.232C294.732 257.335 296.454 257.909 297.941 258.896C298.347 259.172 298.412 259.15 298.485 258.642C299.368 252.439 302.722 248.262 308.778 246.556C313.16 245.314 317.224 246.28 320.867 249.025C321.106 249.207 321.338 249.664 321.592 248.974C323.924 243.229 328.357 239.656 333.848 237.237C337.083 235.756 340.563 234.887 344.112 234.673C344.46 234.673 345.843 234.368 346.191 234.317C346.669 234.658 347.165 234.973 347.676 235.261C350.963 237.723 353.654 240.896 355.55 244.544C357.955 248.844 358.614 254.255 357.86 259.15C356.796 266.101 354.239 270.292 349.074 274.78C348.596 275.194 347.872 275.862 347.393 276.276C347.922 276.661 347.43 276.24 348.031 276.378C348.632 276.516 347.922 276.836 348.661 276.269C351.645 273.967 353.949 270.945 356.115 267.851C359.867 262.491 360.613 259.862 359.201 253.325C357.86 247.122 355.238 241.116 350.508 237.055C349.624 236.232 348.83 235.317 348.14 234.324Z" fill="#424251"/>
<path d="M361.569 236.576C367.82 238.966 374.209 243.149 377.621 249.054C381.378 255.238 380.648 263.16 375.825 268.549C371.399 273.742 364.814 276.538 358.223 277.707C358.339 277.159 358.588 276.648 358.947 276.218C362.634 273.313 365.365 269.224 367.639 265.04C370.356 260.072 370.718 257.45 369.356 251.894C368.233 247.326 366.256 242.605 363.047 239.213C362.406 238.426 361.906 237.534 361.569 236.576Z" fill="#424251"/>
<path d="M349.379 234.397C350.013 235.151 350.744 235.818 351.552 236.38C356.245 240.44 359.802 245.212 361.135 251.415C362.584 257.995 360.758 263.835 357.006 269.195C354.794 272.223 352.137 274.897 349.125 277.126C348.401 277.7 347.821 277.308 347.191 277.163C346.57 277.133 345.963 276.972 345.409 276.69L346.858 275.456C352.022 270.967 355.905 265.665 356.999 258.714C357.695 253.939 356.739 249.069 354.29 244.914C352.061 241.023 349.058 237.634 345.467 234.956C345.362 234.833 345.279 234.693 345.221 234.542C346.592 234.29 347.993 234.241 349.379 234.397Z" fill="#5D5D69"/>
<path d="M362.728 237.077C363.018 237.913 363.793 238.334 364.351 238.929C367.591 242.206 369.906 246.286 371.058 250.754C372.427 256.31 371.413 261.532 368.697 266.493C366.408 270.677 363.119 273.931 359.432 276.843C359.208 277.017 358.954 277.155 358.962 277.49C357.213 277.908 355.42 278.111 353.623 278.092C354.485 277.032 355.687 276.378 356.709 275.507C361.671 271.28 365.401 266.275 366.785 259.767C367.828 254.624 366.91 249.275 364.213 244.776C362.217 241.245 359.552 238.139 356.368 235.632C356.239 235.493 356.138 235.33 356.071 235.153C358.372 235.467 360.614 236.115 362.728 237.077Z" fill="#5D5D69"/>
<path d="M329.857 287.941C331.059 292.234 332.472 296.875 334.044 301.051C334.218 301.509 334.08 301.567 333.631 301.61C333.224 301.731 332.785 301.667 332.43 301.435C332.075 301.203 331.838 300.826 331.784 300.405C330.531 296.446 329.031 292.314 328.061 288.275C328.669 288.217 329.256 287.999 329.857 287.941Z" fill="#424251"/>
<path d="M321.085 287.89C321.216 291.522 320.658 296.817 320.672 301.131C320.672 302.061 319.948 301.545 319.564 301.632C319.18 301.719 318.731 301.77 318.753 301.073C318.883 297.594 318.977 294.115 319.093 290.636C319.068 289.791 319.133 288.946 319.289 288.116C319.926 288.05 320.455 287.948 321.085 287.89Z" fill="#424251"/>
<path d="M327.394 285.646L329.161 285.137L329.501 286.481C329.004 286.834 328.415 287.033 327.806 287.055L327.394 285.646Z" fill="#5D5D69"/>
<path d="M327.771 287.055C328.205 286.467 328.85 286.518 329.466 286.481C329.552 286.786 329.668 287.316 329.748 287.629C329.259 287.979 328.657 288.134 328.06 288.065C327.988 287.803 327.85 287.316 327.771 287.055Z" fill="#424251"/>
<path d="M321.121 288.21L319.224 288.391L319.34 287.709L321.136 287.36L321.121 288.21Z" fill="#5D5D69"/>
<path d="M327.995 287.825C328.598 287.902 329.209 287.755 329.712 287.411C329.9 287.675 329.994 287.995 329.98 288.319L328.162 288.493C327.937 288.29 327.995 288.057 327.995 287.825Z" fill="#5D5D69"/>
<path d="M289.728 262.273C290.517 262.339 290.8 262.883 290.836 263.573C290.88 263.869 290.794 264.169 290.599 264.395C290.404 264.622 290.12 264.751 289.822 264.75C289.04 264.75 288.75 264.147 288.706 263.464C288.667 263.167 288.756 262.867 288.951 262.64C289.146 262.412 289.429 262.279 289.728 262.273Z" fill="#030304"/>
<path d="M285.62 263.806C285.555 264.452 285.323 264.997 284.584 264.975C284.288 264.981 284.002 264.866 283.791 264.656C283.581 264.447 283.465 264.161 283.469 263.864C283.433 263.579 283.522 263.293 283.712 263.079C283.902 262.865 284.175 262.743 284.461 262.745C284.757 262.723 285.049 262.824 285.268 263.025C285.488 263.226 285.615 263.508 285.62 263.806Z" fill="#030304"/>
<path d="M471.567 239.012C474.622 239.157 477.663 239.528 480.665 240.123C481.141 240.435 481.637 240.717 482.149 240.966C485.366 243.501 486.937 246.05 488.966 249.616C491.591 254.466 492.41 260.094 491.276 265.494C489.936 272.03 486.075 276.388 481.135 280.601C480.114 281.473 478.962 281.676 478.086 282.78C475.669 282.87 473.249 282.792 470.842 282.547C470.118 282.475 470.118 282.693 470.321 283.274C472.088 288.589 474.129 293.808 476.434 298.911C477.499 301.294 478.644 303.64 479.781 305.986C480.013 306.465 480.128 306.618 479.426 306.712C478.516 306.872 477.631 306.322 477.369 305.434C474.022 298.265 470.849 291.053 468.495 283.47C468.321 282.896 468.459 282.104 467.459 282.017C467.003 282.017 466.894 282.017 466.894 282.482C466.894 286.84 466.945 291.234 467.213 295.599C467.423 299.02 467.742 302.427 468.01 305.84C468.01 306.109 468.111 306.516 467.67 306.4C467.228 306.283 466.272 306.923 466.127 305.862C465.938 304.453 465.83 303.037 465.721 301.621C465.192 295.122 464.996 288.601 465.134 282.083C465.134 281.48 464.859 281.414 464.41 281.291C458.997 279.799 454.05 276.955 450.031 273.025C449.705 272.699 449.387 272.357 448.938 271.892C449.981 278.03 451.299 284.24 452.639 290.101C452.052 290.268 451.437 290.363 450.843 290.53C449.524 284.872 448.249 278.996 447.286 272.938C445.936 279.348 445.011 285.842 444.519 292.375C443.918 292.491 443.317 292.585 442.723 292.701C442.931 288.763 443.339 284.839 443.947 280.942C444.186 279.243 444.505 277.55 444.787 275.858C444.798 275.694 444.798 275.529 444.787 275.364C444.639 275.419 444.496 275.487 444.36 275.568C438.485 279.679 432.77 279.62 426.895 275.386C426.787 275.306 426.678 275.241 426.562 275.168C426.516 275.315 426.485 275.466 426.468 275.618C426.502 279.987 426.768 284.351 427.265 288.692C427.865 294.524 428.867 300.307 430.264 306C430.314 306.218 430.459 306.603 430.046 306.53C429.467 306.436 428.598 307.155 428.344 306.022C427.808 303.494 427.229 300.974 426.787 298.439C425.336 290.55 424.609 282.544 424.614 274.522C424.614 274.42 424.614 274.318 424.57 273.948C423.61 276.535 422.8 279.176 422.144 281.857C420.161 289.773 419.245 297.92 419.42 306.08C419.42 307.337 418.623 306.886 418.051 306.981C417.247 307.111 417.493 306.487 417.486 306.102C417.336 295.408 418.976 284.765 422.339 274.616C422.393 274.398 422.434 274.178 422.462 273.955C420.257 276.419 417.281 278.056 414.023 278.596C411.289 279.196 408.434 278.853 405.918 277.623C401.905 275.582 400.847 271.297 403.346 267.564C403.834 266.747 404.476 266.034 405.237 265.465C406.106 264.898 406.092 264.31 405.86 263.395C404.143 256.603 400.971 250.502 397.255 244.634C396.958 244.176 396.733 244.089 396.204 244.321C394.448 245.199 392.316 244.644 391.206 243.021C391.141 242.571 391.032 242.36 391.206 242.019C392.619 239.913 396.175 239.702 397.486 241.656C401.956 248.302 405.759 255.26 407.678 263.119C407.78 263.547 407.881 263.656 408.323 263.431C408.969 263.114 409.64 262.852 410.329 262.646C411.162 262.385 412.256 262.414 412.814 261.877C413.372 261.339 412.922 260.184 413.075 259.32C413.078 259.291 413.078 259.262 413.075 259.233C413.256 253.742 412.604 248.418 409.931 243.493C409.67 243 409.547 242.767 408.91 243.203C408.187 243.713 407.289 243.907 406.422 243.74C405.554 243.573 404.792 243.059 404.31 242.317C403.585 240.944 404.23 239.651 406.15 238.816C406.15 238.816 406.15 238.772 406.193 238.751C406.74 238.609 407.313 238.609 407.859 238.751C409.446 239.223 410.3 240.465 411.083 241.794C414.458 247.495 415.248 253.742 414.9 260.213C414.813 261.855 414.762 261.826 416.349 261.942C418.13 262.049 419.851 262.625 421.34 263.612C421.745 263.888 421.818 263.859 421.89 263.358C422.767 257.155 426.128 252.979 432.176 251.272C436.558 250.03 440.629 250.996 444.273 253.742C444.512 253.923 444.736 254.381 444.997 253.691C447.337 247.946 451.763 244.365 457.26 241.954C460.494 240.47 463.975 239.6 467.525 239.39C467.872 239.39 469.256 239.085 469.604 239.034C470.07 239.374 470.553 239.689 471.052 239.978C474.335 242.441 477.026 245.61 478.926 249.253C481.331 253.56 481.983 258.971 481.23 263.867C480.165 270.817 477.608 275.008 472.45 279.497C471.972 279.911 471.241 280.579 470.763 280.986C471.299 281.378 470.806 280.986 471.4 281.095C471.994 281.204 471.299 281.552 472.037 280.979C475.022 278.676 477.318 275.662 479.484 272.568C483.236 267.208 483.989 264.578 482.57 258.042C481.237 251.846 478.607 245.839 473.913 241.779C473.037 240.941 472.251 240.014 471.567 239.012Z" fill="#424251"/>
<path d="M485.004 241.264C491.248 243.653 497.644 247.844 501.056 253.749C504.805 259.934 504.075 267.852 499.259 273.243C494.826 278.437 488.242 281.233 481.657 282.402C481.766 281.851 482.015 281.338 482.382 280.913C486.069 278.008 488.792 273.912 491.074 269.735C493.797 264.767 494.16 262.145 492.798 256.582C491.675 252.02 489.69 247.299 486.481 243.907C485.839 243.119 485.339 242.225 485.004 241.264Z" fill="#424251"/>
<path d="M472.849 239.092C473.481 239.846 474.212 240.51 475.022 241.068C479.716 245.135 483.272 249.907 484.612 256.11C486.025 262.683 484.228 268.53 480.476 273.89C478.262 276.921 475.6 279.596 472.581 281.821C471.856 282.388 471.27 282.003 470.647 281.857C470.026 281.83 469.418 281.669 468.865 281.385L470.313 280.143C475.478 275.655 479.361 270.36 480.454 263.438C481.155 258.663 480.199 253.791 477.745 249.638C475.521 245.742 472.517 242.349 468.923 239.673C468.807 239.586 468.763 239.404 468.684 239.266C470.056 239.003 471.459 238.945 472.849 239.092Z" fill="#5D5D69"/>
<path d="M486.163 241.772C486.453 242.607 487.22 243.029 487.785 243.624C491.023 246.903 493.337 250.983 494.493 255.449C495.855 261.005 494.848 266.22 492.132 271.188C489.843 275.372 486.547 278.625 482.86 281.531C482.642 281.705 482.382 281.85 482.396 282.184C480.647 282.599 478.855 282.801 477.058 282.787C477.912 281.72 479.115 281.066 480.136 280.202C485.098 275.974 488.872 270.97 490.212 264.455C491.258 259.311 490.34 253.962 487.641 249.464C485.638 245.931 482.963 242.826 479.767 240.327C479.629 240.218 479.571 240.007 479.47 239.847C481.782 240.159 484.037 240.807 486.163 241.772Z" fill="#5D5D69"/>
<path d="M453.291 292.636C454.493 296.929 455.898 301.57 457.477 305.71C457.651 306.167 457.477 306.225 457.057 306.269C456.651 306.377 456.219 306.307 455.867 306.078C455.514 305.848 455.276 305.479 455.21 305.063C453.957 301.105 452.458 296.972 451.494 292.927C452.095 292.905 452.682 292.694 453.291 292.636Z" fill="#424251"/>
<path d="M444.519 292.563C444.642 296.195 444.085 301.49 444.106 305.804C444.106 306.727 443.382 306.218 442.991 306.305C442.6 306.393 442.158 306.443 442.187 305.746C442.31 302.267 442.411 298.788 442.52 295.309C442.497 294.464 442.565 293.619 442.723 292.789C443.353 292.745 443.875 292.643 444.519 292.563Z" fill="#424251"/>
<path d="M450.792 290.341L452.552 289.833L452.9 291.176C452.402 291.528 451.813 291.727 451.205 291.75L450.792 290.341Z" fill="#5D5D69"/>
<path d="M451.205 291.75C451.632 291.154 452.284 291.212 452.9 291.176C452.98 291.481 453.103 292.011 453.183 292.324C452.694 292.675 452.091 292.828 451.495 292.752C451.415 292.498 451.278 292.004 451.205 291.75Z" fill="#424251"/>
<path d="M444.548 292.897L442.65 293.079L442.766 292.396L444.563 292.055L444.548 292.897Z" fill="#5D5D69"/>
<path d="M451.43 292.52C452.034 292.595 452.645 292.445 453.146 292.099C453.329 292.368 453.42 292.689 453.407 293.014L451.596 293.188C451.372 293.007 451.43 292.752 451.43 292.52Z" fill="#5D5D69"/>
<path d="M413.126 266.968C413.915 267.033 414.19 267.578 414.227 268.261C414.273 268.556 414.189 268.858 413.995 269.085C413.801 269.313 413.518 269.444 413.22 269.445C412.437 269.445 412.14 268.842 412.097 268.152C412.06 267.854 412.151 267.555 412.347 267.329C412.544 267.103 412.827 266.972 413.126 266.968Z" fill="#030304"/>
<path d="M409.055 268.5C408.982 269.14 408.758 269.692 408.019 269.67C407.722 269.674 407.436 269.557 407.226 269.347C407.016 269.136 406.899 268.849 406.903 268.551C406.868 268.267 406.956 267.982 407.147 267.769C407.337 267.556 407.61 267.436 407.896 267.44C408.192 267.418 408.484 267.519 408.703 267.72C408.922 267.92 409.049 268.203 409.055 268.5Z" fill="#030304"/>
<path d="M334.167 246.575C391.026 246.575 437.119 200.003 437.119 142.554C437.119 85.1045 391.026 38.5327 334.167 38.5327C277.309 38.5327 231.216 85.1045 231.216 142.554C231.216 200.003 277.309 246.575 334.167 246.575Z" fill="url(#paint0_linear)"/>
<path d="M292.754 103.615C296.462 103.615 299.468 100.578 299.468 96.8322C299.468 93.086 296.462 90.0491 292.754 90.0491C289.047 90.0491 286.041 93.086 286.041 96.8322C286.041 100.578 289.047 103.615 292.754 103.615Z" fill="white"/>
<path d="M271.563 99.5959C274.17 99.5959 276.283 97.4604 276.283 94.8262C276.283 92.1919 274.17 90.0564 271.563 90.0564C268.955 90.0564 266.842 92.1919 266.842 94.8262C266.842 97.4604 268.955 99.5959 271.563 99.5959Z" fill="white"/>
<path d="M339.417 195.459C366.256 192.233 386.234 168.864 385.49 141.565C384.745 114.266 363.524 92.0439 336.549 90.3164C333.176 90.098 329.789 90.2174 326.439 90.6731C322.047 91.0965 317.744 92.1964 313.681 93.9346C308.953 96.2526 305.909 100.175 305.909 105.398C305.925 112.191 311.371 117.693 318.093 117.709C319.24 117.709 323.13 116.461 324.056 116.149C327.596 114.907 331.348 114.402 335.086 114.663C348.308 115.498 359.169 125.525 361.18 138.755C363.192 151.985 355.81 164.844 343.446 169.65C331.081 174.455 317.073 169.909 309.791 158.728C304.181 151.298 305.46 139.411 305.46 139.24C305.245 133.151 300.661 128.134 294.671 127.431C288.682 126.727 283.081 130.548 281.489 136.424C281.242 137.897 281.124 139.388 281.136 140.882C279.965 169.558 301.699 193.918 330.049 195.705C333.169 195.943 336.305 195.868 339.41 195.482" fill="white"/>
<path d="M284.055 123.423C288.859 123.423 292.754 119.488 292.754 114.633C292.754 109.779 288.859 105.844 284.055 105.844C279.251 105.844 275.356 109.779 275.356 114.633C275.356 119.488 279.251 123.423 284.055 123.423Z" fill="white"/>
<path d="M78.7847 256.233C112.418 256.233 139.684 228.685 139.684 194.702C139.684 160.719 112.418 133.17 78.7847 133.17C45.1511 133.17 17.8857 160.719 17.8857 194.702C17.8857 228.685 45.1511 256.233 78.7847 256.233Z" fill="url(#paint1_linear)"/>
<path d="M54.2832 171.67C56.4762 171.67 58.2539 169.874 58.2539 167.658C58.2539 165.442 56.4762 163.646 54.2832 163.646C52.0902 163.646 50.3125 165.442 50.3125 167.658C50.3125 169.874 52.0902 171.67 54.2832 171.67Z" fill="white"/>
<path d="M41.7464 169.293C43.2895 169.293 44.5406 168.029 44.5406 166.469C44.5406 164.91 43.2895 163.646 41.7464 163.646C40.2032 163.646 38.9521 164.91 38.9521 166.469C38.9521 168.029 40.2032 169.293 41.7464 169.293Z" fill="white"/>
<path d="M81.887 225.995C97.9147 224.272 109.936 210.385 109.491 194.105C109.046 177.826 96.2858 164.63 80.1885 163.802C78.1938 163.673 76.1914 163.743 74.2103 164.01C71.6128 164.262 69.0685 164.913 66.666 165.942C63.8718 167.309 62.0703 169.657 62.0703 172.718C62.0743 176.738 65.297 179.998 69.2764 180.006C70.4749 179.8 71.6534 179.49 72.7985 179.077C78.0712 177.234 83.9068 178.175 88.3504 181.584C92.794 184.993 95.2579 190.42 94.9168 196.047C94.4505 203.267 89.4718 209.38 82.5488 211.232C75.6257 213.083 68.3057 210.261 64.3644 204.219C61.0482 199.806 61.8055 192.792 61.8055 192.688C61.6951 189.076 58.9811 186.091 55.428 185.674C51.8749 185.257 48.5559 187.534 47.6286 191.024C47.4801 191.895 47.4087 192.778 47.4154 193.662C46.7227 210.625 59.5796 225.035 76.3501 226.092C78.1957 226.229 80.0501 226.185 81.887 225.958" fill="white"/>
<path d="M49.1433 183.386C51.986 183.386 54.2905 181.058 54.2905 178.186C54.2905 175.314 51.986 172.985 49.1433 172.985C46.3006 172.985 43.9961 175.314 43.9961 178.186C43.9961 181.058 46.3006 183.386 49.1433 183.386Z" fill="white"/>
<path d="M197.001 251.775C215.95 251.775 231.311 236.255 231.311 217.109C231.311 197.963 215.95 182.443 197.001 182.443C178.052 182.443 162.691 197.963 162.691 217.109C162.691 236.255 178.052 251.775 197.001 251.775Z" fill="url(#paint2_linear)"/>
<path d="M183.199 204.13C184.434 204.13 185.435 203.119 185.435 201.871C185.435 200.624 184.434 199.613 183.199 199.613C181.965 199.613 180.964 200.624 180.964 201.871C180.964 203.119 181.965 204.13 183.199 204.13Z" fill="white"/>
<path d="M176.14 202.792C177.009 202.792 177.714 202.081 177.714 201.202C177.714 200.324 177.009 199.613 176.14 199.613C175.271 199.613 174.566 200.324 174.566 201.202C174.566 202.081 175.271 202.792 176.14 202.792Z" fill="white"/>
<path d="M198.751 234.739C207.685 233.651 214.328 225.868 214.08 216.78C213.832 207.692 206.774 200.291 197.795 199.702C196.672 199.629 195.544 199.669 194.428 199.82C192.962 199.96 191.526 200.325 190.17 200.905C188.627 201.538 187.607 203.041 187.582 204.724C187.582 206.99 189.398 208.828 191.641 208.832C192.319 208.717 192.985 208.543 193.633 208.312C194.813 207.895 196.063 207.723 197.31 207.807C201.716 208.086 205.335 211.429 206.004 215.839C206.673 220.248 204.211 224.533 200.09 226.132C195.969 227.732 191.301 226.215 188.876 222.488C187.008 220.007 187.405 216.054 187.405 215.995C187.333 213.967 185.805 212.296 183.81 212.062C181.815 211.829 179.95 213.101 179.42 215.058C179.337 215.549 179.298 216.047 179.302 216.544C178.912 226.101 186.156 234.219 195.604 234.814C196.643 234.893 197.688 234.868 198.722 234.739" fill="white"/>
<path d="M180.301 210.735C181.901 210.735 183.199 209.424 183.199 207.807C183.199 206.191 181.901 204.88 180.301 204.88C178.701 204.88 177.404 206.191 177.404 207.807C177.404 209.424 178.701 210.735 180.301 210.735Z" fill="white"/>
<path d="M448.274 251.664C458.373 251.664 466.561 243.391 466.561 233.187C466.561 222.982 458.373 214.709 448.274 214.709C438.174 214.709 429.986 222.982 429.986 233.187C429.986 243.391 438.174 251.664 448.274 251.664Z" fill="url(#paint3_linear)"/>
<path d="M440.921 226.27C441.579 226.27 442.112 225.731 442.112 225.066C442.112 224.401 441.579 223.863 440.921 223.863C440.263 223.863 439.729 224.401 439.729 225.066C439.729 225.731 440.263 226.27 440.921 226.27Z" fill="white"/>
<path d="M437.156 225.556C437.619 225.556 437.994 225.177 437.994 224.71C437.994 224.242 437.619 223.863 437.156 223.863C436.693 223.863 436.317 224.242 436.317 224.71C436.317 225.177 436.693 225.556 437.156 225.556Z" fill="white"/>
<path d="M449.208 242.585C453.966 242 457.502 237.854 457.37 233.013C457.239 228.172 453.483 224.227 448.7 223.907C448.099 223.869 447.496 223.892 446.899 223.974C446.119 224.05 445.355 224.245 444.634 224.554C443.809 224.889 443.264 225.691 443.252 226.589C443.275 227.788 444.234 228.754 445.421 228.774C445.78 228.71 446.134 228.618 446.48 228.499C447.106 228.274 447.772 228.183 448.436 228.231C450.142 228.339 451.676 229.319 452.502 230.832C452.969 231.673 453.183 232.633 453.12 233.595C452.98 235.764 451.486 237.601 449.406 238.159C447.327 238.716 445.128 237.869 443.943 236.055C442.95 234.732 443.207 232.629 443.207 232.592C443.164 231.514 442.351 230.628 441.289 230.504C440.228 230.38 439.236 231.055 438.95 232.095C438.903 232.357 438.881 232.623 438.884 232.89C438.678 237.984 442.539 242.311 447.575 242.63C448.129 242.671 448.686 242.656 449.237 242.585" fill="white"/>
<path d="M439.369 229.791C440.222 229.791 440.914 229.093 440.914 228.231C440.914 227.369 440.222 226.671 439.369 226.671C438.517 226.671 437.825 227.369 437.825 228.231C437.825 229.093 438.517 229.791 439.369 229.791Z" fill="white"/>
<defs>
<linearGradient id="paint0_linear" x1="231.216" y1="38.5327" x2="231.216" y2="246.575" gradientUnits="userSpaceOnUse">
<stop stop-color="#8C61E1"/>
<stop offset="1" stop-color="#5F45BA"/>
</linearGradient>
<linearGradient id="paint1_linear" x1="17.8857" y1="133.17" x2="17.8857" y2="256.233" gradientUnits="userSpaceOnUse">
<stop stop-color="#8C61E1"/>
<stop offset="1" stop-color="#5F45BA"/>
</linearGradient>
<linearGradient id="paint2_linear" x1="162.691" y1="182.443" x2="162.691" y2="251.775" gradientUnits="userSpaceOnUse">
<stop stop-color="#8C61E1"/>
<stop offset="1" stop-color="#5F45BA"/>
</linearGradient>
<linearGradient id="paint3_linear" x1="429.986" y1="214.709" x2="429.986" y2="251.664" gradientUnits="userSpaceOnUse">
<stop stop-color="#8C61E1"/>
<stop offset="1" stop-color="#5F45BA"/>
</linearGradient>
</defs>
</svg>
