<svg width="360" height="725" viewBox="0 0 360 725" fill="none" xmlns="http://www.w3.org/2000/svg">
<path d="M336.59 26.4116V142.384H283.392V243.469H232.611V125.94H135.59V294.412" stroke="#D5D7E2"/>
<path fill-rule="evenodd" clip-rule="evenodd" d="M231.764 99.6588C246.417 99.6588 258.294 111.525 258.294 126.162C258.294 140.798 246.417 152.665 231.764 152.665C217.115 152.665 205.238 140.798 205.238 126.162C205.238 111.525 217.115 99.6588 231.764 99.6588Z" stroke="#D5D7E2"/>
<path fill-rule="evenodd" clip-rule="evenodd" d="M84.4889 316.041C99.1419 316.041 111.019 327.908 111.019 342.544C111.019 357.18 99.1419 369.047 84.4889 369.047C69.8399 369.047 57.9629 357.18 57.9629 342.544C57.9629 327.908 69.8399 316.041 84.4889 316.041Z" stroke="#D5D7E2"/>
<path fill-rule="evenodd" clip-rule="evenodd" d="M242.396 474.63C250.392 474.63 256.875 481.107 256.875 489.097C256.875 497.083 250.392 503.564 242.396 503.564C234.403 503.564 227.916 497.083 227.916 489.097C227.916 481.107 234.403 474.63 242.396 474.63Z" stroke="#D5D7E2"/>
<path fill-rule="evenodd" clip-rule="evenodd" d="M15.4795 396.969C23.4724 396.969 29.9551 403.446 29.9551 411.436C29.9551 419.422 23.4724 425.903 15.4795 425.903C7.48266 425.903 1 419.422 1 411.436C1 403.446 7.48266 396.969 15.4795 396.969Z" stroke="#D5D7E2"/>
<path d="M184.561 516.494V489.759H242.396V443.166H181.73V409.942H15.1563L15.1563 468.669H125.109" stroke="#D5D7E2" stroke-linecap="round" stroke-linejoin="round"/>
<path d="M184.561 642.268V505.565" stroke="#D5D7E2" stroke-linecap="round" stroke-linejoin="round"/>
<path d="M134.524 294.276H84.4922V342.542H181.732V294.276H231.764H322.919" stroke="#D5D7E2" stroke-linecap="round" stroke-linejoin="round"/>
<path fill-rule="evenodd" clip-rule="evenodd" d="M181.729 383.191C196.382 383.191 208.259 395.058 208.259 409.694C208.259 424.331 196.382 436.197 181.729 436.197C167.08 436.197 155.203 424.331 155.203 409.694C155.203 395.058 167.08 383.191 181.729 383.191Z" stroke="#D5D7E2"/>
<path fill-rule="evenodd" clip-rule="evenodd" d="M183.436 605.352C203.455 605.352 219.686 621.568 219.686 641.57C219.686 661.577 203.455 677.793 183.436 677.793C163.416 677.793 147.186 661.577 147.186 641.57C147.186 621.568 163.416 605.352 183.436 605.352Z" stroke="#D5D7E2"/>
<path fill-rule="evenodd" clip-rule="evenodd" d="M242.396 485.237C244.529 485.237 246.256 486.963 246.256 489.094C246.256 491.226 244.529 492.952 242.396 492.952C240.266 492.952 238.535 491.226 238.535 489.094C238.535 486.963 240.266 485.237 242.396 485.237" fill="#D5D7E2"/>
<path fill-rule="evenodd" clip-rule="evenodd" d="M181.73 338.687C183.863 338.687 185.59 340.413 185.59 342.544C185.59 344.676 183.863 346.401 181.73 346.401C179.6 346.401 177.869 344.676 177.869 342.544C177.869 340.413 179.6 338.687 181.73 338.687" fill="#D5D7E2"/>
<path fill-rule="evenodd" clip-rule="evenodd" d="M180.302 290.417C182.431 290.417 184.162 292.142 184.162 294.274C184.162 296.405 182.431 298.131 180.302 298.131C178.169 298.131 176.441 296.405 176.441 294.274C176.441 292.142 178.169 290.417 180.302 290.417" fill="#D5D7E2"/>
<path fill-rule="evenodd" clip-rule="evenodd" d="M124.749 463.507C127.576 463.507 129.867 465.796 129.867 468.621C129.867 471.446 127.576 473.735 124.749 473.735C121.922 473.735 119.631 471.446 119.631 468.621C119.631 465.796 121.922 463.507 124.749 463.507" fill="#D5D7E2"/>
<path fill-rule="evenodd" clip-rule="evenodd" d="M15.4796 463.507C18.303 463.507 20.594 465.796 20.594 468.621C20.594 471.446 18.303 473.735 15.4796 473.735C12.6523 473.735 10.3613 471.446 10.3613 468.621C10.3613 465.796 12.6523 463.507 15.4796 463.507" fill="#D5D7E2"/>
<path fill-rule="evenodd" clip-rule="evenodd" d="M15.4796 406.406C18.303 406.406 20.594 408.692 20.594 411.516C20.594 414.341 18.303 416.63 15.4796 416.63C12.6523 416.63 10.3613 414.341 10.3613 411.516C10.3613 408.692 12.6523 406.406 15.4796 406.406" fill="#D5D7E2"/>
<path fill-rule="evenodd" clip-rule="evenodd" d="M181.73 405.314C184.557 405.314 186.848 407.603 186.848 410.428C186.848 413.253 184.557 415.542 181.73 415.542C178.902 415.542 176.615 413.253 176.615 410.428C176.615 407.603 178.902 405.314 181.73 405.314" fill="#D5D7E2"/>
<path fill-rule="evenodd" clip-rule="evenodd" d="M336.486 1.44427C349.018 1.44427 359.175 11.5932 359.175 24.114C359.175 36.6347 349.018 46.7876 336.486 46.7876C323.955 46.7876 313.797 36.6347 313.797 24.114C313.797 11.5932 323.955 1.44427 336.486 1.44427Z" stroke="#D5D7E2"/>
<path fill-rule="evenodd" clip-rule="evenodd" d="M334.145 21.3858C335.656 19.8808 338.096 19.8808 339.607 21.3858C341.113 22.8947 341.113 25.3374 339.607 26.8424C338.096 28.3514 335.656 28.3514 334.145 26.8424C332.639 25.3374 332.639 22.8947 334.145 21.3858" fill="#D5D7E2"/>
<path fill-rule="evenodd" clip-rule="evenodd" d="M319.786 291.144C321.296 289.635 323.737 289.635 325.247 291.144C326.754 292.649 326.754 295.092 325.247 296.597C323.737 298.106 321.296 298.106 319.786 296.597C318.28 295.092 318.28 292.649 319.786 291.144" fill="#D5D7E2"/>
<path fill-rule="evenodd" clip-rule="evenodd" d="M133.11 289.162C135.938 289.162 138.229 291.451 138.229 294.276C138.229 297.101 135.938 299.39 133.11 299.39C130.283 299.39 127.996 297.101 127.996 294.276C127.996 291.451 130.283 289.162 133.11 289.162" fill="#D5D7E2"/>
<path fill-rule="evenodd" clip-rule="evenodd" d="M84.4894 337.271C87.3166 337.271 89.6077 339.56 89.6077 342.385C89.6077 345.206 87.3166 347.495 84.4894 347.495C81.6621 347.495 79.375 345.206 79.375 342.385C79.375 339.56 81.6621 337.271 84.4894 337.271" fill="#D5D7E2"/>
<path d="M91.2129 641.572H305.562V700.224" stroke="#D5D7E2" stroke-linecap="round" stroke-linejoin="round"/>
<path fill-rule="evenodd" clip-rule="evenodd" d="M182.531 638.844C184.037 637.339 186.482 637.339 187.989 638.844C189.499 640.353 189.499 642.792 187.989 644.301C186.482 645.806 184.037 645.806 182.531 644.301C181.021 642.792 181.021 640.353 182.531 638.844" fill="#D5D7E2"/>
<path fill-rule="evenodd" clip-rule="evenodd" d="M91.2139 627.802C99.2068 627.802 105.693 634.283 105.693 642.269C105.693 650.259 99.2068 656.736 91.2139 656.736C83.217 656.736 76.7344 650.259 76.7344 642.269C76.7344 634.283 83.217 627.802 91.2139 627.802Z" stroke="#D5D7E2"/>
<path d="M91.2138 642.268V698.883" stroke="#D5D7E2" stroke-linecap="round" stroke-linejoin="round"/>
<path fill-rule="evenodd" clip-rule="evenodd" d="M88.4823 638.844C89.9886 637.339 92.4334 637.339 93.9397 638.844C95.45 640.353 95.45 642.792 93.9397 644.301C92.4334 645.806 89.9886 645.806 88.4823 644.301C86.972 642.792 86.972 640.353 88.4823 638.844" fill="#D5D7E2"/>
<path fill-rule="evenodd" clip-rule="evenodd" d="M88.4823 700.711C89.9886 699.202 92.4334 699.202 93.9397 700.711C95.45 702.216 95.45 704.659 93.9397 706.164C92.4334 707.673 89.9886 707.673 88.4823 706.164C86.972 704.659 86.972 702.216 88.4823 700.711" fill="#D5D7E2"/>
<path fill-rule="evenodd" clip-rule="evenodd" d="M305.565 670.994C320.214 670.994 332.091 682.86 332.091 697.501C332.091 712.133 320.214 724 305.565 724C290.912 724 279.035 712.133 279.035 697.501C279.035 682.86 290.912 670.994 305.565 670.994Z" stroke="#D5D7E2"/>
<path d="M305.563 598.965V641.57" stroke="#D5D7E2" stroke-linecap="round" stroke-linejoin="round"/>
<path fill-rule="evenodd" clip-rule="evenodd" d="M305.564 591.251C307.693 591.251 309.424 592.976 309.424 595.108C309.424 597.239 307.693 598.965 305.564 598.965C303.43 598.965 301.703 597.239 301.703 595.108C301.703 592.976 303.43 591.251 305.564 591.251" fill="#D5D7E2"/>
<path fill-rule="evenodd" clip-rule="evenodd" d="M229.961 240.538C231.467 239.029 233.912 239.029 235.418 240.538C236.928 242.043 236.928 244.486 235.418 245.991C233.912 247.5 231.467 247.5 229.961 245.991C228.451 244.486 228.451 242.043 229.961 240.538" fill="#D5D7E2"/>
<path fill-rule="evenodd" clip-rule="evenodd" d="M280.857 240.538C282.364 239.029 284.808 239.029 286.315 240.538C287.825 242.043 287.825 244.486 286.315 245.991C284.808 247.5 282.364 247.5 280.857 245.991C279.347 244.486 279.347 242.043 280.857 240.538" fill="#D5D7E2"/>
</svg>
