<svg width="543" height="480" viewBox="0 0 543 480" fill="none" xmlns="http://www.w3.org/2000/svg">
<path d="M239.902 480C372.396 480 479.804 372.548 479.804 240C479.804 107.452 372.396 0 239.902 0C107.408 0 0 107.452 0 240C0 372.548 107.408 480 239.902 480Z" fill="white"/>
<path d="M351.921 171.371C351.921 171.371 403.43 189.258 390.689 166.387L519.801 138.228C519.801 138.228 546.339 119.04 509.552 103.298L56.6484 163.859L71.4303 220.304L351.672 171.717" fill="#B88DFC"/>
<path d="M510.676 133.895C500.912 149.752 498.901 137.669 445.388 152.864C441.742 153.903 414.469 158.619 384.237 164.011C376.387 154.602 354.655 147.776 371.077 171.304C364.237 167.814 356.474 166.562 348.883 167.724C302.885 174.501 100.435 213.363 99.2747 213.6C95.0886 214.463 84.3167 207.826 78.9945 204.647C75.021 202.277 73.0829 196.685 78.0406 194.072C84.1162 190.863 79.5473 188.547 83.302 188.942C116.669 192.443 170.851 174.045 198.343 172.131C220.033 170.617 318.578 151.308 325.322 151.855C333.312 152.505 440.898 133.165 473.171 125.191C498.944 118.827 506.326 120.098 509.503 121.702C516.004 124.96 511.326 132.837 510.676 133.895Z" fill="#956CE5"/>
<path d="M96.389 200.249C100.605 184.516 90.8161 168.22 74.5259 163.852C58.2357 159.484 41.6126 168.697 37.3971 184.43C33.1816 200.164 42.97 216.459 59.2602 220.827C75.5504 225.195 92.1735 215.982 96.389 200.249Z" fill="#D7CDF9"/>
<path d="M225.774 348.141C225.774 348.141 168.609 371.905 190.116 341.528L75.9987 304.124C75.9987 304.124 35.9547 270.483 99.9182 257.738C99.9182 257.738 442.712 310.819 502.695 335.435C562.679 360.05 478.59 413.132 478.59 413.132L225.877 348.602" fill="#5F45BA"/>
<path d="M65.3123 293.883C73.8971 315.527 77.0746 299.195 130.728 320.723C134.373 322.194 161.999 329.062 192.602 336.896C201.545 324.291 224.529 315.417 205.464 347.022C210.403 343.923 218.617 340.416 228.599 342.549C275.296 352.541 466.154 405.51 467.369 405.856C471.622 407.072 463.001 372.294 459.1 372.762C424.469 376.907 411.182 354.249 383.083 351.173C360.907 348.742 261.322 320.857 254.329 321.477C246.054 322.212 137.162 294.126 104.7 282.761C78.7697 273.686 71.0598 275.279 67.6393 277.394C60.6524 281.691 64.7352 292.437 65.3123 293.883Z" fill="#534784"/>
<path d="M515.046 395.756C530.282 376.825 530.975 352.088 516.593 340.503C502.21 328.918 478.199 334.873 462.963 353.803C447.726 372.734 447.034 397.471 461.416 409.056C475.798 420.641 499.809 414.686 515.046 395.756Z" fill="#D7CDF9"/>
<path fill-rule="evenodd" clip-rule="evenodd" d="M470.625 80.1352C473.213 81.7708 475.195 84.2084 476.269 87.0762C477.405 90.3035 476.956 93.3668 475.54 96.3146C474.702 97.9797 473.614 99.5068 472.314 100.843C472.069 101.107 471.831 101.063 471.589 101.018C471.525 101.007 471.461 100.995 471.397 100.988C471.096 101.015 470.792 100.974 470.51 100.867L471.117 100.15C473.274 97.5423 474.763 94.6128 474.763 91.0329C474.767 88.5879 473.974 86.2083 472.502 84.256C471.18 82.4571 469.505 80.9456 467.581 79.8131C467.535 79.7878 467.506 79.7393 467.477 79.6896C467.464 79.6675 467.45 79.6452 467.435 79.6246C467.276 79.6796 467.114 79.7263 466.949 79.7644C465.259 80.1121 463.652 80.7828 462.217 81.7398C459.786 83.3261 457.891 85.423 457.18 88.4741C457.106 88.7705 457 88.6854 456.894 88.6008L456.894 88.6007C456.87 88.5813 456.845 88.5618 456.821 88.547C455.043 87.3849 452.792 87.2174 450.861 88.1033C448.091 89.3675 446.779 91.6954 446.791 94.8863C446.791 95.1415 446.791 95.1598 446.548 95.0504C445.775 94.6488 444.906 94.4719 444.038 94.5398L444.002 94.5418C443.652 94.5612 443.474 94.5711 443.375 94.4873C443.274 94.4005 443.257 94.2134 443.224 93.8324C443.222 93.8096 443.22 93.7861 443.218 93.7618C442.927 90.4737 442.112 87.38 440.095 84.7301C439.711 84.0738 439.081 83.5972 438.346 83.4051L437.544 83.5206C437.547 83.5325 437.547 83.5451 437.544 83.557C436.681 84.1101 436.45 84.803 436.936 85.4473C437.205 85.7871 437.606 85.9965 438.038 86.0232C438.47 86.0498 438.894 85.8913 439.202 85.5871C439.463 85.3142 439.545 85.4292 439.701 85.6495L439.713 85.6661C441.335 87.9696 442.021 90.6135 442.319 93.3911C442.322 93.4052 442.322 93.4196 442.319 93.4336C442.319 93.5947 442.356 93.7666 442.393 93.9361C442.459 94.2399 442.524 94.5358 442.368 94.7465C442.209 94.9607 441.939 95.048 441.664 95.137C441.518 95.1843 441.371 95.232 441.238 95.2996C440.921 95.4475 440.619 95.6223 440.332 95.8223C440.132 95.9681 440.083 95.9195 440.004 95.7129C438.534 91.8777 436.219 88.6199 433.619 85.5628C432.853 84.6693 431.189 85.0097 430.636 86.1705L430.709 86.675C431.32 87.4252 432.411 87.5666 433.194 86.9971C433.431 86.8452 433.546 86.8756 433.716 87.0883C435.968 89.7632 437.792 92.771 439.123 96.0046C439.3 96.4483 439.348 96.74 438.971 97.0865C438.644 97.4248 438.387 97.8258 438.218 98.2656C437.27 100.32 438.084 102.411 440.15 103.17C441.43 103.626 442.831 103.608 444.099 103.122C445.637 102.621 446.949 101.595 447.805 100.223C447.814 100.336 447.814 100.45 447.805 100.563C446.912 105.922 446.875 111.39 447.696 116.761C447.696 116.778 447.696 116.796 447.695 116.815C447.692 117.011 447.687 117.279 448.03 117.168C448.095 117.147 448.168 117.142 448.242 117.136C448.473 117.118 448.702 117.101 448.638 116.621C447.982 112.523 447.848 108.359 448.237 104.228C448.366 102.839 448.569 101.457 448.844 100.089C448.887 100.271 448.899 100.326 448.905 100.375C449.464 104.417 450.373 108.402 451.621 112.287C451.913 113.228 452.242 114.158 452.571 115.085C452.68 115.393 452.789 115.7 452.897 116.007C453.032 116.396 453.252 116.311 453.47 116.228L453.47 116.228C453.565 116.192 453.66 116.155 453.747 116.159C453.978 116.169 453.907 116.044 453.849 115.941C453.835 115.916 453.822 115.893 453.814 115.873C452.747 113.098 451.862 110.255 451.165 107.364C450.62 105.204 450.186 103.017 449.865 100.812C449.856 100.735 449.856 100.658 449.865 100.581C449.925 100.608 449.984 100.638 450.041 100.672C453.146 102.417 455.886 102.07 458.407 99.6027C458.467 99.5547 458.53 99.5101 458.596 99.469C458.613 99.5512 458.625 99.6344 458.632 99.7182C458.632 100.13 458.621 100.542 458.61 100.954C458.598 101.417 458.586 101.88 458.589 102.344C458.589 104.295 458.632 106.252 458.826 108.197L459.665 107.899C459.441 104.631 459.426 101.353 459.622 98.0832C460.509 101.074 461.494 103.857 462.52 106.623L463.328 106.252C462.277 103.371 461.269 100.472 460.339 97.4451C460.406 97.5002 460.467 97.5514 460.525 97.5996C460.683 97.7319 460.813 97.841 460.947 97.9434C463.117 99.631 465.688 100.726 468.408 101.122L468.433 101.127C468.626 101.16 468.761 101.184 468.796 101.475C469.173 104.775 469.756 108.045 470.449 111.291L470.463 111.357C470.61 112.04 470.759 112.728 470.941 113.4C471.036 113.76 471.242 113.691 471.446 113.622C471.541 113.59 471.636 113.558 471.719 113.57C471.938 113.6 471.896 113.46 471.859 113.335C471.852 113.311 471.845 113.287 471.84 113.266C471.712 112.669 471.581 112.073 471.449 111.477L471.449 111.476L471.449 111.475C471.205 110.372 470.961 109.267 470.741 108.154C470.303 105.972 469.975 103.766 469.665 101.56C469.665 101.329 469.665 101.305 469.902 101.286C470.277 101.263 470.356 101.5 470.433 101.735L470.433 101.735C470.456 101.805 470.479 101.874 470.51 101.937C472.191 105.553 474.111 109.054 476.257 112.415C476.429 112.838 476.897 113.058 477.333 112.919C477.645 112.85 477.605 112.786 477.474 112.58L477.454 112.549C476.743 111.442 476.032 110.336 475.352 109.206C473.9 106.775 472.539 104.295 471.33 101.724C471.202 101.456 471.196 101.347 471.53 101.335C472.537 101.329 473.541 101.238 474.532 101.061C474.911 100.517 475.345 100.012 475.826 99.5541C477.904 97.1229 479.356 94.321 479.538 90.9478C479.68 88.2917 478.873 85.6716 477.26 83.557C476.068 81.9223 474.57 80.535 472.849 79.4727C472.779 79.4069 472.72 79.3311 472.673 79.2478C471.594 79.1546 470.508 79.177 469.434 79.3147C469.795 79.6379 470.195 79.9137 470.625 80.1352ZM443.455 97.8766C443.499 98.018 443.481 98.1716 443.404 98.2983C443.327 98.425 443.2 98.5127 443.054 98.5391C442.684 98.5999 442.495 98.3081 442.447 97.9617C442.405 97.8194 442.425 97.666 442.503 97.5396C442.58 97.4133 442.708 97.3259 442.854 97.2992C443.218 97.2749 443.388 97.5362 443.455 97.8766ZM439.974 98.5087C440.006 98.8125 440.278 99.0329 440.581 99.001C440.934 98.9585 441.055 98.6849 440.982 98.3567C440.91 98.0285 440.685 97.834 440.375 97.9009C440.239 97.924 440.118 98.0025 440.042 98.1177C439.966 98.2329 439.942 98.3745 439.974 98.5087Z" fill="#555560"/>
<path d="M476.008 79.7461C479.181 80.4237 482.006 82.2154 483.973 84.7968C486.203 87.6816 486.406 91.6485 484.483 94.7464C482.727 97.6577 480.115 99.3473 477.041 100.362C477.01 100.192 477.132 100.113 477.223 100.016C478.84 98.3416 480.101 96.3567 480.929 94.1811C481.928 91.5772 481.928 88.6954 480.929 86.0914C480.078 83.9352 478.687 82.0345 476.889 80.5727C476.603 80.3113 476.208 80.1472 476.008 79.7461Z" fill="#555560"/>
<path d="M469.435 79.2842C469.801 79.6198 470.209 79.9059 470.65 80.1351C473.238 81.7707 475.22 84.2083 476.294 87.0761C477.43 90.3034 476.98 93.3667 475.565 96.3145C474.727 97.9796 473.639 99.5067 472.339 100.843C472.029 101.177 471.731 101.019 471.421 100.988C471.12 101.015 470.817 100.974 470.534 100.867L471.142 100.15C473.299 97.5422 474.787 94.6127 474.787 91.0328C474.792 88.5878 473.998 86.2082 472.527 84.2559C471.204 82.457 469.53 80.9455 467.606 79.813C467.539 79.7765 467.509 79.6914 467.46 79.6245C468.096 79.4075 468.762 79.2926 469.435 79.2842V79.2842Z" fill="#87878E"/>
<path d="M476.008 79.7461C476.209 80.1472 476.616 80.3113 476.914 80.5727C478.712 82.0345 480.103 83.9352 480.954 86.0914C481.953 88.6953 481.953 91.5772 480.954 94.1811C480.126 96.3567 478.865 98.3416 477.248 100.016C477.157 100.113 477.035 100.192 477.066 100.362C476.261 100.69 475.418 100.915 474.556 101.031C474.936 100.486 475.37 99.9813 475.85 99.5236C477.928 97.0924 479.38 94.2905 479.563 90.9172C479.705 88.2611 478.897 85.6411 477.284 83.5265C476.093 81.8917 474.595 80.5045 472.873 79.4422C472.804 79.3764 472.745 79.3006 472.697 79.2173C473.821 79.2252 474.938 79.4035 476.008 79.7461Z" fill="#87878E"/>
<path d="M463.936 107.753C464.817 109.838 465.758 111.905 466.779 113.904C466.895 114.123 466.828 114.166 466.615 114.22C466.422 114.297 466.206 114.286 466.021 114.192C465.836 114.098 465.701 113.929 465.649 113.728C464.774 111.82 463.826 109.941 463.079 107.966L463.936 107.753Z" fill="#424251"/>
<path fill-rule="evenodd" clip-rule="evenodd" d="M458.819 108.806C458.812 108.706 458.804 108.606 458.796 108.507L459.689 108.288C459.847 110.476 460.072 112.658 460.388 114.834C460.435 115.167 460.255 115.158 460.081 115.15C460.011 115.146 459.942 115.143 459.89 115.162C459.707 115.229 459.501 115.284 459.464 114.931C459.356 113.881 459.241 112.833 459.125 111.785C459.047 111.073 458.969 110.362 458.893 109.65C458.862 109.368 458.84 109.086 458.819 108.806ZM459.118 108.835H459.051L459.094 108.878L459.154 108.835H459.118Z" fill="#424251"/>
<path d="M462.496 106.58L463.304 106.209L463.565 106.86C463.274 106.921 462.958 106.939 462.794 107.267L462.496 106.58Z" fill="#5D5D69"/>
<path d="M462.794 107.267C462.958 106.939 463.274 106.921 463.566 106.86L463.748 107.316C463.536 107.522 463.253 107.637 462.958 107.638L462.794 107.267Z" fill="#424251"/>
<path d="M459.689 108.288L458.796 108.507V108.161L459.634 107.863L459.689 108.288Z" fill="#5D5D69"/>
<path d="M462.958 107.638C463.253 107.637 463.536 107.521 463.748 107.315C463.855 107.438 463.921 107.591 463.936 107.753L463.08 107.966C462.964 107.887 462.97 107.759 462.958 107.638Z" fill="#5D5D69"/>
<path d="M442.836 97.2993C443.218 97.2993 443.388 97.5364 443.443 97.9071C443.487 98.0485 443.469 98.2021 443.392 98.3288C443.315 98.4555 443.188 98.5432 443.042 98.5696C442.672 98.6304 442.483 98.3386 442.435 97.9922C442.382 97.847 442.396 97.6859 442.474 97.5523C442.551 97.4186 442.683 97.326 442.836 97.2993V97.2993Z" fill="#030304"/>
<path d="M440.994 98.3388C440.994 98.667 440.934 98.9466 440.581 99.0013C440.278 99.0332 440.006 98.8128 439.974 98.509C439.942 98.3748 439.966 98.2332 440.042 98.118C440.118 98.0028 440.239 97.9243 440.375 97.9012C440.679 97.8283 440.903 98.0106 440.994 98.3388Z" fill="#030304"/>
<path d="M459.093 108.878L459.051 108.835H459.118C459.118 108.835 459.118 108.835 459.154 108.835L459.093 108.878Z" fill="#5D5D69"/>
<path d="M437.367 101.475C421.917 88.5714 433.339 78.3788 428.254 78.2451C406.175 82.4388 417.537 69.0735 417.537 69.0735C417.537 69.0735 411.236 58.3825 411.042 62.4304C410.301 77.9959 398.788 97.6275 437.367 101.475Z" fill="#61E296"/>
<path fill-rule="evenodd" clip-rule="evenodd" d="M378.283 91.7503C380.865 93.7135 382.9 96.1143 383.878 99.3781C384.917 102.836 384.279 106.064 382.627 109.103C381.652 110.816 380.423 112.372 378.981 113.716C378.708 113.98 378.46 113.922 378.207 113.861C378.139 113.845 378.072 113.829 378.003 113.819C377.685 113.829 377.368 113.771 377.074 113.649L377.742 112.92C380.172 110.282 381.879 107.261 382.086 103.493C382.219 100.905 381.504 98.3442 380.051 96.1994C378.75 94.2313 377.061 92.5498 375.087 91.258C375.027 91.1957 374.978 91.1238 374.941 91.0453C374.771 91.0971 374.599 91.1397 374.425 91.1729C372.623 91.4425 370.891 92.0619 369.327 92.9963C366.648 94.5401 364.564 96.6431 363.653 99.84C363.563 100.154 363.453 100.055 363.346 99.9593C363.322 99.9382 363.299 99.9172 363.276 99.9008C361.459 98.5791 359.091 98.2852 357.006 99.1228C354.011 100.338 352.504 102.703 352.352 106.064C352.352 106.337 352.304 106.356 352.085 106.228C351.291 105.766 350.384 105.534 349.466 105.559C349.068 105.559 348.87 105.559 348.768 105.461C348.667 105.363 348.659 105.17 348.644 104.785C348.642 104.757 348.641 104.727 348.64 104.696C348.506 101.208 347.802 97.9012 345.815 94.9716C345.442 94.2592 344.802 93.7237 344.035 93.4825L343.184 93.5616C343.185 93.5757 343.185 93.5899 343.184 93.6041C342.248 94.139 341.969 94.8622 342.413 95.5612C342.678 95.9336 343.089 96.1755 343.544 96.2265C343.998 96.2775 344.453 96.1328 344.794 95.8286C345.092 95.5546 345.168 95.6776 345.319 95.9228L345.329 95.938C346.927 98.4543 347.51 101.28 347.686 104.234C347.689 104.248 347.689 104.263 347.686 104.277C347.672 104.457 347.707 104.653 347.74 104.845C347.795 105.157 347.848 105.459 347.686 105.663C347.513 105.881 347.213 105.962 346.912 106.044C346.76 106.085 346.608 106.126 346.471 106.185C346.133 106.331 345.806 106.502 345.493 106.696C345.28 106.836 345.225 106.781 345.153 106.562C343.798 102.435 341.507 98.8736 338.943 95.5126C338.178 94.5279 336.379 94.8014 335.76 95.9927L335.814 96.5276C336.425 97.3456 337.564 97.5502 338.421 96.9956C338.676 96.8497 338.798 96.8862 338.968 97.1232C341.213 100.053 342.992 103.313 344.241 106.787C344.399 107.267 344.436 107.583 344.029 107.924C343.665 108.269 343.372 108.682 343.166 109.139C342.06 111.26 342.813 113.503 344.952 114.415C346.278 114.964 347.756 115.02 349.12 114.573C350.771 114.124 352.212 113.109 353.191 111.704V112.063C351.963 117.674 351.639 123.446 352.231 129.16C352.231 129.188 352.229 129.218 352.228 129.25C352.218 129.452 352.206 129.699 352.559 129.61C352.629 129.59 352.708 129.588 352.787 129.586H352.787C353.03 129.579 353.268 129.572 353.209 129.063C352.73 124.703 352.806 120.3 353.434 115.959C353.641 114.496 353.925 113.046 354.284 111.613C354.308 111.715 354.324 111.819 354.333 111.923C354.714 116.22 355.464 120.476 356.575 124.644C356.818 125.587 357.097 126.518 357.376 127.45C357.495 127.845 357.613 128.241 357.729 128.637C357.856 129.06 358.1 128.977 358.334 128.897C358.436 128.862 358.535 128.828 358.622 128.838C358.851 128.862 358.791 128.73 358.739 128.617C358.727 128.589 358.714 128.563 358.707 128.54C357.724 125.556 356.939 122.51 356.356 119.423C355.893 117.114 355.549 114.783 355.323 112.44C355.314 112.359 355.314 112.277 355.323 112.196L355.499 112.3C358.683 114.305 361.575 114.081 364.388 111.613C364.453 111.563 364.522 111.518 364.594 111.479C364.603 111.568 364.603 111.658 364.594 111.747C364.574 112.048 364.553 112.348 364.531 112.648V112.648C364.486 113.263 364.441 113.879 364.412 114.512C364.321 116.572 364.254 118.639 364.357 120.705L365.257 120.438C365.194 116.975 365.352 113.512 365.731 110.069C366.508 113.272 367.401 116.263 368.343 119.235L369.212 118.882C368.252 115.788 367.341 112.677 366.52 109.431L367.128 109.99C369.33 111.886 371.987 113.176 374.838 113.734L374.856 113.738C375.065 113.784 375.209 113.816 375.227 114.129C375.451 117.636 375.901 121.113 376.442 124.577C376.563 125.331 376.691 126.084 376.855 126.832C376.938 127.216 377.155 127.154 377.372 127.092C377.474 127.063 377.575 127.033 377.663 127.051C377.894 127.097 377.856 126.94 377.824 126.806C377.818 126.781 377.813 126.757 377.809 126.735C377.71 126.127 377.609 125.519 377.508 124.911C377.307 123.696 377.106 122.48 376.916 121.265C376.569 118.937 376.308 116.591 376.126 114.245C376.126 114.002 376.126 113.977 376.387 113.971C376.786 113.971 376.855 114.221 376.924 114.472C376.945 114.546 376.966 114.62 376.995 114.688C378.592 118.599 380.449 122.398 382.554 126.06C382.707 126.52 383.189 126.785 383.66 126.668C383.996 126.605 383.958 126.537 383.836 126.322L383.811 126.279C383.119 125.063 382.426 123.848 381.77 122.632C380.361 119.994 379.054 117.302 377.912 114.53C377.791 114.233 377.784 114.117 378.143 114.129C379.206 114.174 380.271 114.127 381.327 113.989C381.759 113.436 382.243 112.925 382.773 112.464C385.093 109.978 386.77 107.127 387.141 103.572C387.424 100.781 386.707 97.9813 385.118 95.6706C383.944 93.8845 382.436 92.3427 380.676 91.1304C380.604 91.0599 380.545 90.9777 380.5 90.8873C379.367 90.7253 378.22 90.6907 377.08 90.784C377.438 91.1554 377.843 91.4801 378.283 91.7503ZM348.67 109.066C348.712 109.217 348.686 109.379 348.598 109.509C348.511 109.639 348.37 109.724 348.215 109.741C347.82 109.79 347.637 109.467 347.607 109.103C347.569 108.95 347.599 108.787 347.688 108.657C347.778 108.527 347.918 108.442 348.075 108.422C348.452 108.392 348.622 108.671 348.67 109.042V109.066ZM344.976 109.553C345.008 109.864 345.271 110.101 345.584 110.1V110.075C345.961 110.051 346.149 109.777 346.07 109.425C345.991 109.072 345.766 108.854 345.432 108.908C345.282 108.925 345.147 109.005 345.06 109.128C344.973 109.251 344.943 109.406 344.976 109.553Z" fill="#555560"/>
<path d="M383.987 91.5981C387.28 92.5949 390.118 94.3332 392.135 97.3418C394.337 100.507 394.337 104.709 392.135 107.875C390.13 110.859 387.274 112.506 383.987 113.418C383.987 113.235 384.091 113.163 384.194 113.059C385.989 111.378 387.423 109.349 388.41 107.097C389.61 104.401 389.77 101.358 388.86 98.5513C388.073 96.2328 386.705 94.1549 384.886 92.5159C384.589 92.2242 384.176 92.0297 383.987 91.5981Z" fill="#555560"/>
<path d="M377.074 90.7658C377.437 91.1359 377.845 91.4586 378.289 91.7261C380.871 93.6893 382.906 96.09 383.884 99.3539C384.923 102.812 384.285 106.04 382.633 109.079C381.658 110.792 380.429 112.348 378.988 113.692C378.641 114.026 378.337 113.844 378.009 113.795C377.691 113.805 377.374 113.747 377.08 113.625L377.748 112.895C380.178 110.258 381.886 107.237 382.092 103.469C382.225 100.881 381.511 98.3199 380.057 96.1751C378.756 94.207 377.067 92.5255 375.093 91.2338C375.033 91.1715 374.984 91.0996 374.947 91.0211C375.638 90.8243 376.356 90.7381 377.074 90.7658Z" fill="#87878E"/>
<path d="M383.988 91.5983C384.176 92.0299 384.595 92.2061 384.905 92.5161C386.723 94.1551 388.091 96.233 388.878 98.5514C389.788 101.358 389.628 104.402 388.429 107.097C387.442 109.35 386.007 111.378 384.212 113.059C384.109 113.163 383.982 113.236 384.006 113.418C383.138 113.72 382.236 113.912 381.32 113.989C381.753 113.436 382.237 112.925 382.766 112.464C385.087 109.978 386.764 107.127 387.135 103.572C387.418 100.781 386.701 97.9812 385.112 95.6705C383.938 93.8844 382.43 92.3426 380.67 91.1303C380.598 91.0598 380.539 90.9776 380.494 90.8872C381.688 90.9418 382.867 91.1817 383.988 91.5983V91.5983Z" fill="#87878E"/>
<path d="M369.783 120.541C370.603 122.784 371.46 125.014 372.463 127.178C372.572 127.415 372.505 127.458 372.274 127.5C372.067 127.571 371.839 127.55 371.649 127.442C371.459 127.334 371.323 127.149 371.278 126.935C370.452 124.868 369.552 122.838 368.848 120.711L369.783 120.541Z" fill="#424251"/>
<path fill-rule="evenodd" clip-rule="evenodd" d="M364.358 122.279C364.315 121.872 364.315 121.465 364.315 121.064L365.275 120.881C365.324 123.199 365.454 125.517 365.664 127.834C365.712 128.185 365.516 128.166 365.329 128.148C365.254 128.14 365.18 128.133 365.123 128.151C364.929 128.211 364.686 128.26 364.686 127.889C364.618 126.653 364.544 125.42 364.471 124.185C364.433 123.55 364.395 122.915 364.358 122.279ZM364.644 121.422H364.565L364.583 121.465L364.644 121.422Z" fill="#424251"/>
<path d="M368.325 119.222L369.194 118.87L369.437 119.575C369.127 119.623 368.793 119.623 368.605 119.964L368.325 119.222Z" fill="#5D5D69"/>
<path d="M368.604 119.964C368.793 119.623 369.127 119.623 369.437 119.575L369.607 120.061C369.371 120.269 369.064 120.378 368.75 120.365L368.604 119.964Z" fill="#424251"/>
<path d="M365.287 120.876L364.327 121.064V120.693L365.226 120.426L365.287 120.876Z" fill="#5D5D69"/>
<path d="M368.75 120.365C369.064 120.378 369.371 120.269 369.607 120.061C369.714 120.199 369.775 120.367 369.783 120.541L368.865 120.711C368.744 120.626 368.762 120.493 368.75 120.365Z" fill="#5D5D69"/>
<path d="M348.051 108.397C348.452 108.397 348.622 108.671 348.659 109.042C348.701 109.193 348.674 109.354 348.587 109.484C348.499 109.614 348.359 109.699 348.203 109.716C347.808 109.765 347.626 109.443 347.595 109.078C347.558 108.927 347.586 108.767 347.673 108.637C347.759 108.507 347.897 108.42 348.051 108.397V108.397Z" fill="#030304"/>
<path d="M346.052 109.376C346.052 109.722 345.961 110.026 345.584 110.051C345.271 110.052 345.008 109.815 344.976 109.504C344.943 109.357 344.973 109.202 345.06 109.079C345.147 108.956 345.282 108.876 345.432 108.859C345.748 108.829 345.973 109.048 346.052 109.376Z" fill="#030304"/>
<path d="M364.613 121.471L364.564 121.423H364.643V121.423L364.613 121.471Z" fill="#5D5D69"/>
<path d="M342.485 113.91C329.824 100.247 332.855 96.0897 333.724 84.5416C310.303 90.0118 320.692 67.019 320.692 67.019C320.692 67.019 311.992 73.0969 308.705 70.3376C304.531 66.8306 290.557 109.801 342.485 113.91Z" fill="#61E296"/>
<path fill-rule="evenodd" clip-rule="evenodd" d="M281.627 103.493C284.519 105.699 286.797 108.385 287.897 112.044C289.057 115.922 288.346 119.526 286.493 122.936C285.404 124.853 284.029 126.593 282.417 128.096C282.104 128.399 281.825 128.332 281.542 128.264C281.467 128.247 281.393 128.229 281.317 128.217C280.959 128.23 280.603 128.166 280.272 128.029L281.025 127.208C283.729 124.249 285.655 120.869 285.886 116.639C286.03 113.746 285.228 110.885 283.601 108.489C282.145 106.281 280.254 104.395 278.042 102.945C277.993 102.917 277.96 102.857 277.927 102.797C277.912 102.769 277.896 102.74 277.878 102.715C277.829 102.727 277.779 102.74 277.73 102.753C277.585 102.792 277.438 102.832 277.271 102.854C275.251 103.164 273.312 103.864 271.56 104.915C268.558 106.641 266.225 109.017 265.199 112.585C265.102 112.929 264.985 112.829 264.865 112.724C264.835 112.698 264.804 112.672 264.773 112.652C262.742 111.188 260.102 110.869 257.78 111.807C254.421 113.144 252.732 115.825 252.561 119.593C252.561 119.897 252.513 119.915 252.264 119.775C251.374 119.258 250.358 118.997 249.329 119.022C248.883 119.022 248.661 119.022 248.547 118.911C248.433 118.801 248.425 118.581 248.409 118.145C248.408 118.116 248.407 118.086 248.406 118.055C248.254 114.147 247.47 110.44 245.24 107.182C244.818 106.386 244.1 105.788 243.241 105.516L242.288 105.608V105.65C241.237 106.258 240.921 107.06 241.425 107.844C241.726 108.258 242.187 108.526 242.696 108.582C243.204 108.639 243.713 108.479 244.098 108.142C244.423 107.84 244.513 107.976 244.691 108.247L244.706 108.27C246.492 111.09 247.136 114.256 247.342 117.563V117.618C247.326 117.819 247.365 118.038 247.403 118.253C247.464 118.602 247.523 118.938 247.342 119.167C247.156 119.404 246.836 119.495 246.508 119.588L246.508 119.588C246.322 119.64 246.132 119.694 245.963 119.775C245.581 119.933 245.213 120.124 244.864 120.347C244.627 120.505 244.566 120.438 244.481 120.189C242.968 115.563 240.422 111.576 237.524 107.808C236.668 106.702 234.657 107.012 233.958 108.349L234.019 108.957C234.707 109.867 235.98 110.094 236.941 109.479C237.227 109.315 237.36 109.358 237.549 109.619C240.068 112.904 242.065 116.56 243.466 120.456C243.642 120.991 243.685 121.343 243.223 121.726C242.817 122.112 242.489 122.572 242.257 123.082C241.042 125.458 241.862 127.944 244.262 128.995C245.748 129.611 247.406 129.674 248.934 129.172C250.785 128.672 252.4 127.533 253.491 125.956C253.499 126.092 253.499 126.228 253.491 126.364C252.116 132.652 251.753 139.119 252.416 145.521C252.416 145.552 252.414 145.585 252.413 145.619C252.402 145.844 252.39 146.114 252.78 146.02C252.856 146.001 252.942 145.999 253.028 145.998C253.303 145.992 253.576 145.987 253.515 145.412C252.975 140.524 253.059 135.588 253.764 130.722C253.993 129.085 254.312 127.461 254.718 125.859C254.729 125.924 254.738 125.976 254.745 126.017C254.761 126.114 254.769 126.157 254.773 126.2C255.199 131.016 256.04 135.787 257.288 140.458C257.587 141.633 257.937 142.793 258.287 143.953C258.386 144.281 258.484 144.609 258.582 144.938C258.717 145.401 258.98 145.313 259.242 145.225C259.358 145.186 259.474 145.147 259.579 145.157C259.792 145.157 259.734 144.994 259.69 144.868C259.685 144.854 259.68 144.841 259.676 144.828C258.573 141.474 257.692 138.051 257.039 134.581C256.519 131.993 256.131 129.38 255.879 126.753C255.88 126.661 255.89 126.569 255.909 126.479C255.939 126.498 255.971 126.515 256.002 126.532L256.002 126.532C256.039 126.552 256.076 126.571 256.11 126.595C259.682 128.843 262.945 128.588 266.073 125.823C266.147 125.768 266.224 125.72 266.304 125.677C266.313 125.776 266.313 125.876 266.304 125.975C266.28 126.35 266.253 126.726 266.225 127.102C266.177 127.759 266.129 128.417 266.098 129.074C265.994 131.39 265.922 133.7 266.043 136.015L267.046 135.718C266.977 131.837 267.153 127.955 267.574 124.097C268.449 127.683 269.445 131.038 270.503 134.368L271.481 133.979C270.399 130.509 269.385 127.02 268.443 123.379C268.504 123.435 268.56 123.487 268.614 123.537C268.812 123.72 268.967 123.863 269.129 123.987C271.596 126.114 274.573 127.562 277.769 128.187L277.794 128.193C278.029 128.244 278.189 128.278 278.206 128.631C278.462 132.557 278.96 136.459 279.592 140.337L279.602 140.399C279.738 141.224 279.875 142.053 280.047 142.865C280.143 143.282 280.393 143.216 280.639 143.151C280.752 143.121 280.863 143.091 280.959 143.108C281.217 143.155 281.176 142.986 281.14 142.833C281.133 142.807 281.127 142.78 281.123 142.756C281.011 142.077 280.896 141.399 280.78 140.721C280.55 139.365 280.319 138.009 280.12 136.647C279.731 134.034 279.47 131.408 279.233 128.783C279.233 128.503 279.27 128.479 279.531 128.473C279.982 128.473 280.058 128.764 280.133 129.052L280.133 129.052C280.152 129.128 280.172 129.205 280.199 129.275C281.988 133.665 284.071 137.929 286.433 142.039C286.61 142.536 287.133 142.821 287.648 142.701C288.028 142.638 287.982 142.558 287.842 142.312L287.818 142.27L287.818 142.269L287.818 142.269C287.04 140.92 286.263 139.571 285.527 138.191C283.954 135.237 282.49 132.217 281.202 129.105C281.068 128.777 281.068 128.649 281.469 128.655C282.66 128.707 283.853 128.658 285.035 128.509C285.518 127.888 286.059 127.314 286.651 126.795C289.252 124.005 291.135 120.808 291.548 116.834C291.873 113.698 291.07 110.55 289.282 107.954C287.967 105.949 286.275 104.219 284.3 102.86C284.242 102.823 284.204 102.755 284.165 102.685C284.146 102.652 284.127 102.618 284.106 102.587C282.836 102.409 281.55 102.37 280.272 102.471C280.677 102.87 281.132 103.213 281.627 103.493ZM248.436 122.905C248.481 123.075 248.451 123.256 248.353 123.401C248.256 123.547 248.1 123.643 247.926 123.665C247.482 123.714 247.276 123.355 247.215 122.942C247.17 122.77 247.201 122.588 247.302 122.442C247.402 122.296 247.561 122.201 247.737 122.182C248.193 122.176 248.381 122.492 248.436 122.905ZM244.495 123.904C244.627 124.019 244.799 124.075 244.973 124.06H244.991C245.392 124.036 245.496 123.695 245.502 123.313C245.386 122.917 245.155 122.674 244.779 122.735C244.615 122.76 244.469 122.851 244.374 122.986C244.279 123.122 244.243 123.29 244.274 123.452C244.284 123.627 244.363 123.79 244.495 123.904Z" fill="#555560"/>
<path d="M288.018 103.353C291.705 104.471 294.889 106.392 297.131 109.796C299.598 113.343 299.598 118.052 297.131 121.599C294.883 124.942 291.663 126.789 288.018 127.811C288.018 127.604 288.133 127.525 288.248 127.409C290.261 125.523 291.871 123.249 292.981 120.724C294.321 117.701 294.498 114.29 293.48 111.145C292.599 108.545 291.066 106.216 289.026 104.38C288.692 104.052 288.224 103.839 288.018 103.353Z" fill="#555560"/>
<path d="M280.266 102.417C280.669 102.835 281.126 103.197 281.627 103.493C284.519 105.699 286.797 108.385 287.897 112.044C289.057 115.922 288.346 119.526 286.493 122.936C285.404 124.853 284.029 126.593 282.416 128.096C282.021 128.479 281.681 128.272 281.317 128.217C280.959 128.231 280.602 128.166 280.272 128.029L281.025 127.209C283.729 124.249 285.655 120.869 285.886 116.639C286.03 113.746 285.228 110.885 283.601 108.489C282.145 106.281 280.253 104.395 278.042 102.946C277.969 102.903 277.933 102.794 277.878 102.715C278.653 102.491 279.459 102.39 280.266 102.417V102.417Z" fill="#87878E"/>
<path d="M288.018 103.353C288.225 103.839 288.693 104.052 289.045 104.38C291.085 106.216 292.618 108.545 293.499 111.145C294.517 114.29 294.34 117.701 293 120.723C291.89 123.249 290.28 125.523 288.268 127.409C288.152 127.525 288.012 127.604 288.037 127.81C287.056 128.154 286.035 128.37 284.999 128.454C285.482 127.833 286.023 127.259 286.615 126.741C289.215 123.951 291.099 120.754 291.512 116.779C291.837 113.643 291.033 110.495 289.246 107.899C287.931 105.894 286.239 104.164 284.264 102.806C284.179 102.751 284.136 102.629 284.069 102.532C285.42 102.602 286.752 102.878 288.018 103.353V103.353Z" fill="#87878E"/>
<path d="M272.094 135.791C273.011 138.307 273.977 140.805 275.095 143.23C275.223 143.497 275.144 143.54 274.889 143.595C274.66 143.675 274.408 143.655 274.195 143.539C273.982 143.423 273.828 143.223 273.771 142.987C272.847 140.671 271.839 138.392 271.073 136.009L272.094 135.791Z" fill="#424251"/>
<path fill-rule="evenodd" clip-rule="evenodd" d="M266.018 137.735C265.97 137.28 265.97 136.83 265.97 136.374L267.039 136.173C267.094 138.769 267.24 141.37 267.483 143.959C267.517 144.354 267.304 144.334 267.1 144.314C267.018 144.306 266.937 144.299 266.875 144.318C266.656 144.385 266.383 144.439 266.383 144.02C266.325 142.971 266.263 141.925 266.201 140.878C266.138 139.831 266.076 138.784 266.018 137.735ZM266.334 136.781H266.249L266.304 136.83L266.371 136.781H266.334Z" fill="#424251"/>
<path d="M270.46 134.296L271.438 133.907L271.705 134.691C271.359 134.745 270.982 134.745 270.77 135.128L270.46 134.296Z" fill="#5D5D69"/>
<path d="M270.77 135.147C270.982 134.764 271.377 134.764 271.705 134.709L271.9 135.256C271.635 135.488 271.291 135.61 270.94 135.596L270.77 135.147Z" fill="#424251"/>
<path d="M267.039 136.174L265.97 136.374L266 135.961L267.003 135.663L267.039 136.174Z" fill="#5D5D69"/>
<path d="M270.939 135.596C271.291 135.61 271.635 135.488 271.899 135.256C272.018 135.41 272.086 135.597 272.094 135.791L271.073 135.985C270.933 135.888 270.952 135.736 270.939 135.596Z" fill="#5D5D69"/>
<path d="M247.737 122.182C248.193 122.182 248.381 122.492 248.436 122.905C248.481 123.075 248.451 123.256 248.353 123.401C248.255 123.547 248.099 123.643 247.925 123.665C247.482 123.714 247.275 123.355 247.215 122.942C247.169 122.771 247.201 122.588 247.301 122.442C247.402 122.296 247.561 122.201 247.737 122.182V122.182Z" fill="#030304"/>
<path d="M245.501 123.306C245.501 123.695 245.392 124.036 244.973 124.06C244.799 124.075 244.626 124.019 244.494 123.904C244.363 123.79 244.283 123.627 244.274 123.452C244.242 123.29 244.278 123.122 244.373 122.986C244.468 122.851 244.615 122.76 244.778 122.735C245.155 122.668 245.404 122.911 245.501 123.306Z" fill="#030304"/>
<path d="M266.304 136.836L266.249 136.781H266.334C266.334 136.781 266.334 136.781 266.37 136.781L266.304 136.836Z" fill="#5D5D69"/>
<path d="M223.295 76.0449C211.575 105.298 241.467 126.844 241.467 126.844C241.467 126.844 228.708 128.734 227.979 133.214C227.049 138.915 179.781 117.314 223.295 76.0449Z" fill="#61E296"/>
<path fill-rule="evenodd" clip-rule="evenodd" d="M158.858 115.235C162.084 117.666 164.623 120.705 165.845 124.765C167.139 129.093 166.349 133.104 164.283 136.921C163.069 139.061 161.537 141.004 159.739 142.683C159.39 143.017 159.076 142.942 158.763 142.867C158.683 142.848 158.603 142.829 158.523 142.817C158.125 142.83 157.729 142.755 157.363 142.598L158.201 141.686C161.239 138.392 163.366 134.624 163.627 129.913C163.793 126.678 162.899 123.477 161.081 120.796C159.455 118.338 157.344 116.236 154.878 114.621C154.825 114.589 154.792 114.524 154.757 114.457L154.757 114.457C154.74 114.424 154.722 114.39 154.702 114.36C154.488 114.424 154.271 114.477 154.052 114.518C151.8 114.863 149.638 115.643 147.685 116.815C144.337 118.742 141.737 121.386 140.594 125.361C140.482 125.753 140.35 125.636 140.217 125.518C140.185 125.49 140.153 125.461 140.121 125.44C137.642 123.805 135.005 123.392 132.289 124.468C128.547 125.957 126.663 128.941 126.475 133.141C126.475 133.481 126.42 133.505 126.147 133.341C125.153 132.768 124.019 132.48 122.872 132.509C122.373 132.509 122.126 132.509 121.998 132.385C121.871 132.262 121.862 132.019 121.843 131.534C121.842 131.5 121.841 131.464 121.839 131.427C121.675 127.075 120.8 122.918 118.315 119.307C117.708 118.463 117.1 117.685 116.086 117.484L115.028 117.581C115.028 117.581 115.028 117.624 114.998 117.63C113.832 118.298 113.479 119.204 114.038 120.061C114.371 120.526 114.885 120.828 115.453 120.89C116.021 120.953 116.589 120.771 117.015 120.389C117.384 120.05 117.485 120.212 117.671 120.509L117.683 120.529C119.676 123.677 120.411 127.215 120.624 130.861V130.922C120.605 131.157 120.649 131.406 120.691 131.648C120.758 132.033 120.822 132.398 120.624 132.648C120.411 132.917 120.037 133.019 119.658 133.122C119.464 133.175 119.268 133.228 119.093 133.305C118.671 133.483 118.264 133.696 117.878 133.943C117.611 134.119 117.544 134.046 117.453 133.773C115.764 128.619 112.926 124.17 109.694 119.97C108.746 118.754 106.498 119.083 105.721 120.578L105.788 121.252C106.545 122.278 107.967 122.544 109.044 121.86C109.366 121.678 109.512 121.726 109.725 122.018C112.534 125.678 114.757 129.752 116.316 134.095C116.517 134.703 116.56 135.086 116.049 135.511C115.597 135.942 115.232 136.456 114.974 137.024C113.589 139.668 114.53 142.495 117.204 143.613C118.862 144.297 120.71 144.368 122.416 143.814C124.477 143.251 126.275 141.981 127.496 140.228C127.493 140.378 127.481 140.528 127.459 140.677C125.922 147.687 125.512 154.896 126.244 162.035C126.244 162.068 126.242 162.104 126.241 162.141C126.23 162.392 126.217 162.705 126.651 162.594C126.74 162.571 126.839 162.568 126.938 162.565H126.938C127.244 162.556 127.54 162.548 127.471 161.914C126.874 156.466 126.968 150.964 127.751 145.54C128.006 143.714 128.361 141.904 128.814 140.118L128.823 140.169L128.823 140.169C128.858 140.371 128.869 140.433 128.875 140.495C129.35 145.864 130.287 151.181 131.676 156.389C132.001 157.653 132.377 158.903 132.754 160.152L132.754 160.152C132.877 160.561 133 160.97 133.122 161.379C133.274 161.899 133.571 161.801 133.864 161.703C133.992 161.661 134.119 161.619 134.233 161.628C134.471 161.628 134.406 161.451 134.355 161.309C134.348 161.291 134.342 161.273 134.337 161.257C133.1 157.515 132.112 153.696 131.378 149.825C130.801 146.941 130.369 144.03 130.084 141.103C130.087 141.001 130.1 140.899 130.12 140.799L130.345 140.927C134.324 143.431 137.964 143.151 141.451 140.063C141.532 140.004 141.617 139.951 141.706 139.905C141.725 140.014 141.736 140.124 141.737 140.234C141.709 140.679 141.676 141.124 141.643 141.569L141.643 141.569C141.591 142.276 141.539 142.983 141.506 143.692C141.39 146.269 141.311 148.846 141.445 151.423L142.563 151.095C142.491 146.767 142.694 142.439 143.17 138.137C144.149 142.142 145.26 145.88 146.439 149.594L147.527 149.156C146.312 145.284 145.188 141.401 144.155 137.347C144.271 137.452 144.374 137.546 144.469 137.633L144.47 137.634C144.633 137.784 144.774 137.913 144.92 138.039C147.669 140.41 150.988 142.023 154.55 142.719L154.573 142.724C154.834 142.782 155.013 142.822 155.042 143.212C155.322 147.594 155.881 151.94 156.579 156.267C156.731 157.209 156.889 158.151 157.09 159.081C157.197 159.562 157.471 159.483 157.743 159.406C157.87 159.369 157.996 159.333 158.104 159.355C158.386 159.41 158.347 159.227 158.311 159.063C158.304 159.029 158.297 158.996 158.293 158.966C158.173 158.241 158.049 157.518 157.925 156.794L157.925 156.792L157.925 156.791C157.66 155.245 157.396 153.7 157.169 152.152C156.737 149.241 156.446 146.312 156.184 143.382C156.154 143.072 156.221 143.048 156.512 143.036C157.018 143.036 157.104 143.368 157.187 143.69C157.209 143.774 157.231 143.858 157.26 143.935C159.248 148.82 161.562 153.565 164.186 158.139C164.385 158.709 164.987 159.031 165.571 158.881C165.992 158.806 165.942 158.72 165.786 158.447L165.759 158.4C164.891 156.893 164.028 155.362 163.208 153.854C161.452 150.56 159.818 147.169 158.39 143.728C158.238 143.358 158.232 143.218 158.681 143.224C160.008 143.282 161.337 143.227 162.655 143.06C163.198 142.365 163.809 141.726 164.478 141.151C167.376 138.039 169.472 134.466 169.946 130.041C170.303 126.546 169.405 123.039 167.412 120.146C165.947 117.913 164.063 115.985 161.865 114.469C161.799 114.428 161.756 114.351 161.712 114.274L161.712 114.274C161.691 114.236 161.67 114.199 161.646 114.165C160.237 113.973 158.812 113.93 157.393 114.038C157.828 114.498 158.32 114.901 158.858 115.235ZM121.863 136.873C121.914 137.062 121.88 137.263 121.771 137.425C121.661 137.588 121.487 137.694 121.292 137.717C120.794 137.778 120.575 137.377 120.503 136.921C120.456 136.725 120.496 136.519 120.612 136.355C120.729 136.191 120.91 136.085 121.11 136.064C121.59 136.064 121.803 136.411 121.863 136.873ZM117.48 137.986C117.626 138.115 117.818 138.178 118.012 138.161C118.473 138.137 118.583 137.754 118.601 137.322C118.498 136.879 118.218 136.611 117.799 136.678C117.612 136.697 117.443 136.796 117.335 136.951C117.228 137.105 117.193 137.298 117.24 137.48C117.248 137.675 117.334 137.857 117.48 137.986Z" fill="#555560"/>
<path d="M166.009 115.077C170.116 116.329 173.664 118.499 176.185 122.261C178.925 126.217 178.925 131.458 176.185 135.414C173.682 139.14 170.11 141.206 166.003 142.337C165.972 142.112 166.136 142.02 166.264 141.893C168.506 139.791 170.298 137.256 171.531 134.441C173.03 131.075 173.23 127.273 172.09 123.769C171.11 120.87 169.401 118.273 167.127 116.226C166.732 115.861 166.215 115.624 166.009 115.077Z" fill="#555560"/>
<path d="M157.339 114.038C157.789 114.508 158.3 114.917 158.858 115.253C162.084 117.684 164.624 120.723 165.845 124.783C167.139 129.111 166.349 133.122 164.283 136.939C163.07 139.079 161.537 141.022 159.739 142.701C159.301 143.12 158.919 142.896 158.524 142.835C158.126 142.848 157.729 142.773 157.363 142.616C157.643 142.312 157.922 142.008 158.202 141.704C161.239 138.41 163.366 134.642 163.627 129.931C163.793 126.696 162.9 123.495 161.081 120.815C159.455 118.356 157.344 116.254 154.878 114.639C154.799 114.591 154.763 114.469 154.702 114.378C155.558 114.127 156.448 114.012 157.339 114.038Z" fill="#87878E"/>
<path d="M166.008 115.077C166.239 115.624 166.755 115.861 167.15 116.226C169.413 118.276 171.112 120.873 172.084 123.769C173.223 127.273 173.024 131.075 171.525 134.441C170.291 137.256 168.499 139.791 166.257 141.893C166.13 142.021 165.966 142.112 165.996 142.337C164.913 142.719 163.786 142.963 162.642 143.06C163.186 142.365 163.796 141.726 164.465 141.151C167.363 138.04 169.459 134.466 169.933 130.041C170.29 126.546 169.392 123.039 167.4 120.146C165.935 117.913 164.051 115.985 161.853 114.469C161.755 114.409 161.707 114.269 161.634 114.166C163.13 114.247 164.604 114.554 166.008 115.077V115.077Z" fill="#87878E"/>
<path d="M148.238 151.234C149.259 154.042 150.334 156.826 151.586 159.531C151.719 159.829 151.634 159.877 151.349 159.932C151.09 160.024 150.804 159.999 150.565 159.863C150.326 159.728 150.158 159.496 150.103 159.227C149.07 156.65 147.952 154.109 147.096 151.453L148.238 151.234Z" fill="#424251"/>
<path fill-rule="evenodd" clip-rule="evenodd" d="M141.457 153.435C141.408 152.93 141.408 152.426 141.408 151.921L142.599 151.69C142.66 154.59 142.818 157.483 143.091 160.37C143.134 160.81 142.899 160.787 142.671 160.766C142.579 160.757 142.487 160.748 142.417 160.771C142.174 160.85 141.894 160.911 141.864 160.443C141.788 158.974 141.699 157.507 141.611 156.041C141.559 155.172 141.507 154.303 141.457 153.435ZM141.815 152.371C141.783 152.368 141.75 152.368 141.718 152.371L141.779 152.456L141.852 152.402L141.815 152.371Z" fill="#424251"/>
<path d="M146.415 149.593L147.503 149.156L147.806 150.031C147.411 150.098 146.998 150.092 146.761 150.517L146.415 149.593Z" fill="#5D5D69"/>
<path d="M146.761 150.517C146.998 150.092 147.411 150.098 147.806 150.031C147.873 150.238 147.945 150.438 148.012 150.639C147.721 150.9 147.339 151.035 146.949 151.016L146.761 150.517Z" fill="#424251"/>
<path d="M142.599 151.66L141.384 151.891L141.414 151.423L142.532 151.095L142.599 151.66Z" fill="#5D5D69"/>
<path d="M146.949 151.016C147.339 151.035 147.722 150.9 148.012 150.639C148.149 150.813 148.228 151.026 148.237 151.247L147.095 151.466C146.943 151.344 146.961 151.174 146.949 151.016Z" fill="#5D5D69"/>
<path d="M121.085 136.064C121.59 136.064 121.802 136.41 121.863 136.872C121.914 137.061 121.88 137.263 121.77 137.425C121.661 137.587 121.486 137.694 121.292 137.717C120.794 137.778 120.575 137.377 120.502 136.921C120.456 136.729 120.492 136.526 120.604 136.363C120.715 136.2 120.89 136.091 121.085 136.064V136.064Z" fill="#030304"/>
<path d="M118.619 137.334C118.619 137.766 118.504 138.149 118.012 138.173C117.818 138.19 117.626 138.127 117.48 137.998C117.335 137.869 117.248 137.687 117.24 137.492C117.193 137.31 117.228 137.117 117.335 136.963C117.443 136.808 117.612 136.709 117.799 136.69C118.206 136.611 118.486 136.878 118.619 137.334Z" fill="#030304"/>
<path d="M141.779 152.402L141.718 152.341C141.751 152.337 141.783 152.337 141.816 152.341C141.816 152.341 141.816 152.341 141.852 152.371L141.779 152.402Z" fill="#5D5D69"/>
<path d="M75.0939 85.0645C87.7919 106.817 94.1408 104.775 109.044 108.592C93.7034 135.736 110.46 135.833 112.781 141.151C115.733 147.946 61.5819 152.14 75.0939 85.0645Z" fill="#61E296"/>
<path fill-rule="evenodd" clip-rule="evenodd" d="M99.5901 213.782C95.5924 216.548 92.3967 219.976 90.7441 224.723C89.0004 229.773 89.7842 234.557 92.105 239.139C93.4851 241.736 95.2555 244.106 97.3543 246.166C97.7544 246.58 98.1354 246.505 98.5215 246.429C98.622 246.409 98.7229 246.39 98.8246 246.378C99.3035 246.415 99.7846 246.347 100.234 246.178C100.122 246.049 100.009 245.92 99.8965 245.791C99.6846 245.548 99.4721 245.305 99.2621 245.059C95.7686 241.036 93.3384 236.483 93.229 230.904C93.1762 227.073 94.3941 223.333 96.6921 220.268C98.77 217.423 101.406 215.033 104.438 213.242C104.506 213.2 104.553 213.12 104.599 213.04C104.62 213.005 104.641 212.97 104.663 212.938C104.745 212.96 104.825 212.985 104.906 213.009L104.906 213.009C105.084 213.063 105.261 213.117 105.441 213.15C108.136 213.653 110.71 214.668 113.023 216.141C116.978 218.572 119.998 221.811 121.207 226.558C121.325 227.025 121.49 226.892 121.655 226.76C121.694 226.728 121.734 226.697 121.772 226.674C124.81 224.85 128.036 224.474 131.262 225.865C135.709 227.786 137.854 231.396 137.897 236.374C137.897 236.775 137.951 236.806 138.291 236.623C139.517 235.987 140.893 235.695 142.271 235.778L142.321 235.781C143.486 235.839 143.487 235.839 143.565 234.563C143.954 229.427 145.187 224.571 148.34 220.389C149.076 219.417 149.853 218.517 151.111 218.292L152.387 218.456C152.383 218.476 152.383 218.497 152.387 218.517C153.766 219.356 154.155 220.438 153.438 221.447C153.016 221.992 152.383 222.332 151.696 222.383C151.009 222.434 150.333 222.191 149.835 221.714C149.408 221.293 149.282 221.474 149.039 221.821L149.021 221.848C146.487 225.495 145.449 229.615 145.029 233.967V234.034C145.041 234.295 144.981 234.578 144.922 234.856C144.823 235.32 144.727 235.77 144.975 236.082C145.233 236.409 145.675 236.545 146.119 236.682C146.353 236.754 146.588 236.827 146.797 236.927C147.305 237.15 147.791 237.418 148.249 237.729C148.565 237.954 148.65 237.869 148.772 237.547C151.032 231.524 154.647 226.394 158.73 221.574C159.945 220.152 162.624 220.657 163.493 222.45L163.384 223.246C162.403 224.416 160.696 224.652 159.434 223.793C159.052 223.562 158.869 223.61 158.602 223.945C155.169 228.199 152.126 232.739 150.133 237.924C149.865 238.623 149.793 239.085 150.394 239.614C150.914 240.137 151.326 240.756 151.609 241.437C153.158 244.622 151.901 247.898 148.626 249.125C146.594 249.861 144.369 249.861 142.338 249.125C139.888 248.381 137.774 246.805 136.359 244.67C136.359 244.956 136.359 245.084 136.39 245.199C137.933 253.551 138.11 262.099 136.912 270.508C136.904 270.564 136.902 270.629 136.9 270.695V270.695C136.892 270.977 136.883 271.288 136.396 271.146C136.292 271.115 136.174 271.108 136.057 271.1C135.688 271.077 135.325 271.053 135.436 270.301C136.394 263.889 136.519 257.38 135.807 250.937C135.579 248.765 135.23 246.608 134.762 244.476L134.722 244.667C134.692 244.81 134.679 244.868 134.67 244.926C133.866 251.255 132.505 257.5 130.606 263.591C130.137 265.107 129.621 266.604 129.105 268.101L129.105 268.101C128.953 268.542 128.8 268.984 128.65 269.426C128.443 270.034 128.088 269.905 127.741 269.778C127.589 269.723 127.438 269.667 127.301 269.675C126.998 269.675 127.099 269.437 127.168 269.272C127.174 269.258 127.18 269.244 127.185 269.231C128.83 264.87 130.178 260.403 131.22 255.86C132.056 252.485 132.717 249.068 133.2 245.625C133.205 245.502 133.195 245.38 133.17 245.26L132.896 245.4C127.987 248.189 123.607 247.697 119.53 243.898C119.436 243.819 119.334 243.75 119.226 243.692C119.199 243.82 119.182 243.95 119.178 244.081C119.192 244.613 119.213 245.144 119.233 245.676C119.266 246.512 119.298 247.348 119.305 248.183C119.305 251.222 119.305 254.261 119.044 257.3L117.707 256.863C117.992 251.751 117.943 246.627 117.562 241.522C116.207 246.208 114.706 250.578 113.126 254.893L111.826 254.328C113.449 249.806 114.986 245.26 116.401 240.513C116.312 240.589 116.228 240.66 116.149 240.726C115.886 240.95 115.673 241.13 115.453 241.303C112.017 243.992 107.948 245.752 103.636 246.415L103.601 246.421C103.286 246.478 103.07 246.517 103.029 246.974C102.5 252.14 101.638 257.252 100.599 262.339L100.586 262.4L100.586 262.4C100.366 263.486 100.144 264.577 99.8635 265.645C99.7136 266.212 99.384 266.104 99.0642 266C98.9174 265.953 98.7727 265.906 98.6484 265.925C98.311 265.977 98.3683 265.749 98.4187 265.549C98.4273 265.515 98.4357 265.482 98.4419 265.451C98.6316 264.525 98.8273 263.6 99.0229 262.675C99.391 260.936 99.7591 259.196 100.088 257.446C100.732 254.03 101.212 250.578 101.656 247.114C101.704 246.749 101.656 246.713 101.273 246.694C100.674 246.657 100.555 247.044 100.44 247.415L100.44 247.415C100.407 247.522 100.375 247.628 100.331 247.721C97.715 253.417 94.7106 258.927 91.3395 264.211C91.0643 264.878 90.3302 265.229 89.6384 265.025C89.1321 264.92 89.1999 264.816 89.4094 264.492L89.4379 264.448L89.7752 263.916L89.7753 263.916C90.7691 262.35 91.7623 260.784 92.7065 259.184C94.986 255.371 97.0726 251.446 98.9583 247.424C99.1588 246.998 99.1709 246.816 98.6302 246.816C97.0268 246.826 95.4253 246.702 93.8426 246.445C93.2173 245.604 92.5156 244.823 91.7466 244.111C88.3868 240.313 86.0112 236.009 85.6406 230.74C85.364 226.584 86.6007 222.469 89.1219 219.155C90.9949 216.571 93.3512 214.375 96.0602 212.688C96.1392 212.639 96.1954 212.549 96.2521 212.458C96.2784 212.416 96.3048 212.374 96.3336 212.336C98.0515 212.166 99.7826 212.178 101.498 212.372C100.929 212.927 100.287 213.402 99.5901 213.782ZM143.273 240.975C143.206 241.198 143.238 241.44 143.363 241.638C143.488 241.835 143.693 241.968 143.924 242.002C144.531 242.093 144.811 241.625 144.914 241.09C144.973 240.865 144.936 240.625 144.81 240.428C144.684 240.232 144.481 240.097 144.252 240.057C143.638 240.051 143.371 240.44 143.273 240.975ZM148.525 242.489C148.343 242.634 148.11 242.7 147.879 242.671C147.314 242.616 147.174 242.166 147.204 241.656C147.233 241.424 147.354 241.214 147.542 241.075C147.729 240.936 147.965 240.88 148.195 240.92C148.417 240.951 148.616 241.076 148.74 241.263C148.865 241.45 148.903 241.682 148.845 241.899C148.822 242.131 148.707 242.343 148.525 242.489Z" fill="#424251"/>
<path d="M90.9998 213.308C85.9875 214.603 81.6131 217.016 78.4112 221.355C74.9162 225.878 74.6723 232.12 77.8037 236.903C80.6653 241.418 84.8696 244.014 89.7847 245.533C89.8272 245.272 89.6389 245.15 89.487 244.992C86.9656 242.348 84.7784 239.467 83.4539 235.954C81.8804 231.779 81.6313 227.573 83.2413 223.312C84.562 219.916 86.7388 216.92 89.5599 214.615C90.0642 214.177 90.6717 213.916 90.9998 213.308Z" fill="#424251"/>
<path d="M101.468 212.433C100.905 212.964 100.274 213.418 99.5906 213.782C95.5928 216.548 92.3971 219.976 90.7445 224.723C89.0009 229.773 89.7846 234.557 92.1055 239.139C93.4855 241.736 95.2559 244.106 97.3548 246.165C97.859 246.688 98.3329 246.433 98.825 246.378C99.3039 246.415 99.785 246.347 100.235 246.178C99.9126 245.807 99.5845 245.436 99.2625 245.059C95.769 241.036 93.3388 236.483 93.2294 230.904C93.1766 227.073 94.3945 223.332 96.6925 220.268C98.7704 217.423 101.406 215.032 104.439 213.241C104.536 213.181 104.591 213.041 104.664 212.938C103.632 212.601 102.553 212.431 101.468 212.433V212.433Z" fill="#5D5D69"/>
<path d="M90.9998 213.308C90.696 213.916 90.0642 214.202 89.572 214.615C86.7509 216.92 84.5741 219.916 83.2535 223.313C81.6495 227.567 81.8925 231.779 83.4661 235.955C84.7906 239.468 86.9778 242.348 89.4991 244.992C89.651 245.15 89.8394 245.272 89.7968 245.533C91.0879 246.035 92.4373 246.369 93.8128 246.53C93.1874 245.689 92.4858 244.908 91.7167 244.196C88.3569 240.397 85.9814 236.094 85.6108 230.825C85.3342 226.669 86.5708 222.554 89.0921 219.24C90.9651 216.656 93.3214 214.46 96.0304 212.773C96.1458 212.7 96.2126 212.542 96.3038 212.421C94.5016 212.452 92.714 212.751 90.9998 213.308V213.308Z" fill="#5D5D69"/>
<path d="M110.842 256.808C109.506 260.108 108.072 263.323 106.468 266.465C106.286 266.812 106.389 266.873 106.729 266.952C107.034 267.072 107.377 267.055 107.669 266.907C107.962 266.758 108.177 266.491 108.26 266.174C109.615 263.135 111.079 260.211 112.227 257.112L110.842 256.808Z" fill="#424251"/>
<path fill-rule="evenodd" clip-rule="evenodd" d="M119.013 258.448C119.025 258.258 119.037 258.068 119.051 257.877L117.623 257.555C117.423 260.977 117.107 264.393 116.651 267.796C116.582 268.314 116.871 268.296 117.147 268.279C117.259 268.272 117.37 268.265 117.453 268.295C117.738 268.398 118.079 268.483 118.127 267.93C118.275 266.337 118.43 264.746 118.585 263.156C118.699 261.992 118.813 260.828 118.923 259.664C118.961 259.272 118.987 258.862 119.013 258.448ZM118.54 258.364C118.581 258.369 118.62 258.381 118.656 258.4L118.583 258.467L118.492 258.394C118.51 258.364 118.54 258.364 118.54 258.364Z" fill="#424251"/>
<path d="M113.114 254.942L111.814 254.376L111.413 255.404C111.881 255.495 112.385 255.513 112.628 256.011L113.114 254.942Z" fill="#5D5D69"/>
<path d="M112.653 256.017C112.385 255.513 111.881 255.495 111.438 255.41C111.347 255.647 111.255 255.884 111.158 256.121C111.505 256.437 111.959 256.611 112.428 256.607L112.653 256.017Z" fill="#424251"/>
<path d="M117.623 257.555L119.051 257.877V257.324L117.714 256.887L117.623 257.555Z" fill="#5D5D69"/>
<path d="M112.404 256.601C111.935 256.604 111.481 256.431 111.134 256.115C110.966 256.309 110.864 256.552 110.843 256.808L112.21 257.112C112.398 256.99 112.38 256.789 112.404 256.601Z" fill="#5D5D69"/>
<path d="M144.252 240.051C143.645 240.051 143.371 240.434 143.274 240.969C143.206 241.192 143.239 241.434 143.364 241.631C143.489 241.829 143.693 241.962 143.924 241.996C144.532 242.087 144.811 241.619 144.914 241.084C144.974 240.858 144.936 240.618 144.81 240.422C144.684 240.225 144.482 240.091 144.252 240.051Z" fill="#030304"/>
<path d="M147.205 241.656C147.205 242.166 147.314 242.616 147.879 242.671C148.11 242.7 148.343 242.634 148.525 242.489C148.707 242.343 148.823 242.131 148.845 241.899C148.903 241.682 148.865 241.45 148.741 241.263C148.617 241.076 148.418 240.951 148.195 240.92C147.966 240.88 147.73 240.936 147.542 241.075C147.355 241.214 147.233 241.424 147.205 241.656Z" fill="#030304"/>
<path d="M118.582 258.467L118.655 258.4C118.619 258.382 118.58 258.369 118.54 258.364C118.54 258.364 118.51 258.364 118.491 258.394L118.582 258.467Z" fill="#5D5D69"/>
<path d="M148.584 247.545C168.409 228.059 164.065 221.751 163.372 204.647C198.373 213.995 183.962 179.485 183.962 179.485C183.962 179.485 196.721 188.954 201.848 185.04C208.349 180.05 227.02 244.306 148.584 247.545Z" fill="#2EBF8B"/>
<path fill-rule="evenodd" clip-rule="evenodd" d="M212.548 226.805C207.572 230.452 204.193 234.428 202.267 240.548C200.231 247.033 201.004 251.787 204.121 257.525C205.964 260.765 208.174 262.991 210.909 265.524C211.181 265.788 211.362 266.134 211.525 266.445C211.759 266.891 211.954 267.263 212.323 267.213C212.513 267.187 212.7 267.18 212.883 267.173C213.305 267.156 213.711 267.14 214.109 266.903L212.104 265.524C207.517 260.527 203.823 254.839 203.477 247.746C203.27 242.881 205.093 237.471 207.9 233.493C210.437 229.798 212.941 227.124 216.737 224.741C216.789 224.707 217.115 224.682 217.475 224.654C217.949 224.617 218.483 224.576 218.538 224.504C218.645 224.53 218.753 224.559 218.861 224.588C219.082 224.648 219.304 224.708 219.528 224.741C222.965 225.285 226.265 226.483 229.249 228.272C234.365 231.208 238.32 235.213 240.027 241.206C240.193 241.79 240.393 241.622 240.598 241.45C240.648 241.408 240.699 241.365 240.75 241.333C244.572 238.902 248.649 238.295 252.78 239.96C258.503 242.239 261.359 246.749 261.596 253.076C261.596 253.587 261.681 253.617 262.106 253.38C263.642 252.527 265.381 252.107 267.137 252.164L267.207 252.166C267.926 252.18 268.288 252.187 268.478 252.01C268.669 251.831 268.686 251.465 268.72 250.729C268.723 250.673 268.725 250.614 268.728 250.554C269.044 244.008 270.436 237.79 274.287 232.369C275.187 231.104 276.147 229.937 277.732 229.603L279.354 229.767C279.354 229.767 279.354 229.828 279.391 229.84C281.177 230.855 281.712 232.217 280.837 233.529C280.314 234.228 279.523 234.676 278.655 234.765C277.787 234.854 276.922 234.576 276.268 233.997C275.706 233.477 275.55 233.716 275.25 234.176L275.235 234.198C272.149 238.908 270.982 244.202 270.606 249.745V249.83C270.631 250.165 270.564 250.529 270.499 250.886C270.392 251.476 270.288 252.046 270.606 252.432C270.943 252.841 271.51 252.999 272.083 253.158C272.379 253.24 272.676 253.323 272.945 253.441C273.596 253.71 274.224 254.034 274.822 254.407C275.229 254.681 275.339 254.577 275.478 254.158C278.133 246.421 282.532 239.765 287.55 233.493C289.021 231.67 292.466 232.192 293.626 234.435L293.523 235.444C292.32 236.972 290.154 237.338 288.516 236.289C288.03 236.009 287.8 236.076 287.471 236.514C283.261 242.075 279.573 247.922 277.21 254.602C276.9 255.495 276.821 256.091 277.611 256.741C278.299 257.388 278.853 258.164 279.239 259.026C281.329 263.019 279.847 267.231 275.733 268.909C273.178 269.921 270.349 270.005 267.738 269.146C264.595 268.283 261.853 266.348 259.986 263.676V263.676C259.986 264.034 259.986 264.199 260.034 264.35C262.404 274.944 262.732 285.672 261.62 296.49C261.613 296.562 261.614 296.643 261.614 296.726C261.617 297.086 261.62 297.485 261.012 297.317C260.88 297.282 260.731 297.277 260.582 297.272H260.582C260.115 297.257 259.659 297.243 259.797 296.284C260.782 288.099 260.702 279.821 259.56 271.656C259.189 268.907 258.668 266.18 257.999 263.487C257.98 263.594 257.964 263.678 257.951 263.747C257.919 263.92 257.904 264 257.896 264.095C257.106 272.168 255.606 280.155 253.412 287.963C252.897 289.85 252.31 291.717 251.724 293.584C251.528 294.206 251.332 294.828 251.14 295.451C250.894 296.234 250.44 296.08 249.992 295.929C249.796 295.863 249.602 295.797 249.426 295.81C249.054 295.843 249.165 295.541 249.244 295.325L249.244 295.325C249.253 295.301 249.261 295.278 249.268 295.257C251.197 289.652 252.748 283.924 253.91 278.111C254.834 273.784 255.531 269.412 256 265.013C256.003 264.857 255.984 264.702 255.945 264.551C255.83 264.612 255.714 264.673 255.605 264.739C249.469 268.465 243.885 267.997 238.594 263.317C238.468 263.225 238.336 263.142 238.199 263.068C238.168 263.233 238.15 263.399 238.144 263.566C238.18 264.171 238.221 264.775 238.262 265.379C238.339 266.508 238.416 267.637 238.46 268.769C238.606 272.647 238.697 276.518 238.46 280.402L236.747 279.886C236.789 273.492 236.813 267.122 235.999 260.4C234.456 266.405 232.7 272.009 230.853 277.588L229.182 276.914C231.078 271.109 232.864 265.274 234.499 259.19L234.421 259.259C233.975 259.655 233.646 259.948 233.283 260.23C228.933 263.925 223.909 266.04 218.453 267.158L218.42 267.165C218.018 267.246 217.741 267.302 217.694 267.894C217.214 274.47 216.302 281.004 215.172 287.507C214.929 288.917 214.68 290.334 214.358 291.731C214.193 292.451 213.774 292.332 213.357 292.213C213.161 292.157 212.965 292.102 212.797 292.133C212.357 292.214 212.426 291.932 212.49 291.674C212.503 291.623 212.515 291.572 212.523 291.525C212.724 290.398 212.929 289.272 213.135 288.145L213.135 288.145C213.551 285.863 213.968 283.58 214.346 281.29C215.045 276.92 215.525 272.519 215.968 268.113C216.011 267.651 215.913 267.608 215.464 267.59C214.692 267.566 214.559 268.062 214.429 268.547C214.393 268.68 214.358 268.813 214.309 268.933C211.272 276.348 207.45 283.314 203.477 290.206C202.93 291.148 202.377 291.488 201.344 291.306C200.701 291.185 200.78 291.054 201.021 290.65L201.065 290.577L201.3 290.182L201.3 290.182C202.565 288.059 203.831 285.933 205.032 283.769C207.789 278.833 210.298 273.762 212.548 268.575C212.785 268.028 212.791 267.809 212.104 267.821C210.074 267.886 208.042 267.784 206.028 267.517C205.625 266.882 204.799 266.479 203.985 266.083C203.327 265.762 202.677 265.445 202.267 265.013C197.856 260.303 194.628 254.425 193.971 247.746C193.466 242.474 194.805 236.674 197.889 232.369C199.8 229.566 202.957 227.541 205.917 225.643C206.498 225.27 207.071 224.902 207.626 224.534C207.762 224.404 207.875 224.252 207.961 224.084C210.138 223.8 212.34 223.749 214.528 223.932C214.239 224.277 213.985 224.729 213.731 225.182C213.371 225.822 213.01 226.463 212.548 226.805ZM268.625 258.728C268.549 259.016 268.601 259.322 268.768 259.567C268.934 259.813 269.199 259.975 269.494 260.011C270.253 260.102 270.6 259.5 270.709 258.795C270.781 258.507 270.726 258.201 270.559 257.955C270.392 257.71 270.129 257.546 269.834 257.507C269.062 257.513 268.734 258.036 268.631 258.728H268.625ZM275.361 260.463C275.132 260.654 274.834 260.744 274.537 260.71L274.543 260.716C273.82 260.667 273.656 260.108 273.686 259.446C273.826 258.777 274.257 258.376 274.901 258.479C275.184 258.51 275.44 258.661 275.603 258.894C275.766 259.127 275.82 259.419 275.752 259.695C275.732 259.993 275.591 260.271 275.361 260.463Z" fill="#424251"/>
<path d="M201.192 225.464C194.868 227.287 189.4 230.521 185.487 236.149C181.214 242.03 181.136 249.974 185.293 255.938C189.09 261.567 194.534 264.715 200.834 266.465C200.883 266.125 201.034 264.862 200.834 264.668C197.529 261.398 194.806 258.134 192.996 253.715C190.839 248.47 190.625 244.486 192.508 239.016C194.059 234.642 196.764 231.497 200.27 228.457C200.878 227.91 200.828 226.254 201.192 225.464Z" fill="#424251"/>
<path d="M214.468 223.969C213.83 224.765 212.912 225.185 212.123 225.762C207.147 229.409 203.21 233.894 201.284 240.015C199.248 246.5 200.421 252.547 203.538 258.285C205.381 261.525 207.711 264.462 210.446 266.995C211.108 267.639 211.697 267.298 212.323 267.213C212.949 267.128 213.538 267.244 214.109 266.903L212.833 265.524C208.246 260.528 204.996 254.839 204.65 247.746C204.443 242.881 205.853 238.085 208.659 234.107C211.197 230.412 214.464 227.276 218.259 224.893C218.38 224.814 218.441 224.632 218.538 224.504C217.217 224.117 215.844 223.937 214.468 223.969Z" fill="#5D5D69"/>
<path d="M201.192 225.464C200.827 226.285 200.031 226.637 199.424 227.184C195.922 230.215 193.264 234.102 191.708 238.465C189.824 243.935 190.286 249.277 192.443 254.523C194.266 258.941 197.133 262.521 200.438 265.791C200.639 265.986 200.882 266.125 200.833 266.466C202.491 267.052 204.216 267.428 205.967 267.584C205.238 266.435 204.145 265.663 203.227 264.697C198.816 259.987 195.639 254.608 194.983 247.928C194.477 242.656 195.897 237.379 198.98 233.074C201.267 229.721 204.183 226.843 207.565 224.601C207.701 224.471 207.813 224.319 207.899 224.151C205.61 224.248 203.349 224.69 201.192 225.464Z" fill="#5D5D69"/>
<path d="M227.979 280.025C226.375 284.231 224.698 288.407 222.742 292.461C222.529 292.911 222.663 292.977 223.094 293.069C224.042 293.263 224.595 293.026 225.014 292.023C226.63 288.158 228.386 284.347 229.729 280.366L227.979 280.025Z" fill="#424251"/>
<path fill-rule="evenodd" clip-rule="evenodd" d="M238.435 281.774C238.443 281.545 238.45 281.317 238.459 281.089L236.631 280.724C236.509 285.084 236.224 289.434 235.774 293.773C235.705 294.438 236.074 294.404 236.424 294.372C236.567 294.359 236.707 294.346 236.813 294.381C237.177 294.503 237.609 294.6 237.651 293.895C237.776 291.946 237.91 289.999 238.044 288.052C238.152 286.489 238.259 284.926 238.362 283.362C238.4 282.832 238.418 282.302 238.435 281.774ZM237.834 281.721C237.884 281.729 237.933 281.744 237.979 281.763L237.888 281.855L237.773 281.763C237.791 281.751 237.834 281.721 237.834 281.721Z" fill="#424251"/>
<path d="M230.81 277.576L229.14 276.901L228.672 278.22C229.279 278.318 229.887 278.324 230.264 278.956L230.81 277.576Z" fill="#5D5D69"/>
<path d="M230.264 278.95C229.905 278.342 229.267 278.312 228.672 278.214C228.557 278.518 228.447 278.822 228.338 279.126C228.789 279.52 229.374 279.726 229.972 279.703L230.264 278.95Z" fill="#424251"/>
<path d="M236.631 280.731L238.454 281.089L238.411 280.39L236.698 279.874L236.631 280.731Z" fill="#5D5D69"/>
<path d="M229.972 279.709C229.373 279.732 228.789 279.525 228.338 279.132C228.13 279.385 228.009 279.698 227.991 280.025L229.741 280.366C229.978 280.208 229.948 279.946 229.972 279.709Z" fill="#5D5D69"/>
<path d="M269.84 257.525C269.062 257.525 268.734 258.035 268.625 258.74C268.549 259.028 268.601 259.334 268.768 259.58C268.934 259.825 269.199 259.987 269.494 260.023C270.253 260.114 270.6 259.512 270.709 258.807C270.779 258.521 270.724 258.218 270.559 257.973C270.393 257.729 270.132 257.566 269.84 257.525V257.525Z" fill="#030304"/>
<path d="M273.649 259.445C273.649 260.096 273.82 260.661 274.543 260.71C274.84 260.744 275.138 260.654 275.367 260.462C275.597 260.271 275.738 259.993 275.758 259.695C275.826 259.419 275.772 259.126 275.609 258.893C275.446 258.66 275.19 258.509 274.907 258.479C274.245 258.376 273.813 258.777 273.649 259.445Z" fill="#030304"/>
<path d="M237.888 281.855L237.979 281.763C237.933 281.744 237.884 281.729 237.834 281.721C237.834 281.721 237.791 281.751 237.773 281.763L237.888 281.855Z" fill="#5D5D69"/>
<path d="M307.132 180.487C326.823 229.682 275.369 265.414 275.369 265.414C275.369 265.414 297.168 268.757 298.353 276.269C299.872 285.842 381.005 250.243 307.132 180.487Z" fill="#2EBF8B"/>
<path fill-rule="evenodd" clip-rule="evenodd" d="M366.501 234.015C359.526 238.221 354.561 243.114 351.304 250.912C347.859 259.184 348.567 265.921 351.976 273.822C352.329 274.598 352.677 275.392 353.028 276.193C354.701 280.01 356.448 283.996 359.163 287.015C359.791 287.749 360.438 287.662 361.089 287.574C361.257 287.551 361.425 287.528 361.593 287.519C361.849 287.506 362.102 287.519 362.353 287.533C362.905 287.562 363.444 287.59 363.975 287.331L361.369 285.824C355.943 278.719 351.581 270.404 351.976 261.056C352.249 254.474 355.984 248.403 360.103 243.346C363.876 238.807 369.167 235.376 374.425 232.697C374.544 232.637 374.633 232.507 374.721 232.379C374.759 232.322 374.798 232.266 374.838 232.216C375.255 232.385 375.681 232.531 376.114 232.654C380.569 233.779 384.767 235.745 388.484 238.446C394.845 242.914 399.56 248.645 401.079 256.717C401.233 257.519 401.542 257.296 401.83 257.089C401.893 257.043 401.955 256.999 402.014 256.966C407.324 254.231 412.719 253.927 417.969 256.601C425.211 260.248 428.419 266.538 427.975 274.865C427.939 275.54 428.024 275.588 428.583 275.327C430.698 274.387 433.029 274.04 435.327 274.324L435.416 274.334C436.365 274.437 436.841 274.489 437.112 274.278C437.386 274.066 437.453 273.586 437.587 272.622C437.596 272.552 437.606 272.479 437.617 272.404C438.832 263.852 441.372 255.866 447.083 249.198C448.413 247.648 449.805 246.226 451.943 245.977L454.051 246.384C454.051 246.421 454.051 246.469 454.094 246.487C456.312 248.037 456.852 249.891 455.546 251.502C454.776 252.364 453.679 252.863 452.523 252.876C451.367 252.889 450.259 252.414 449.47 251.569C448.801 250.827 448.57 251.116 448.131 251.666L448.097 251.708C443.48 257.525 441.311 264.332 440.163 271.565C440.159 271.603 440.159 271.642 440.163 271.68C440.163 272.13 440.03 272.608 439.899 273.075C439.69 273.826 439.488 274.55 439.859 275.09C440.254 275.666 440.976 275.939 441.707 276.216L441.707 276.216C442.087 276.36 442.47 276.505 442.812 276.695C443.635 277.124 444.42 277.624 445.157 278.19C445.667 278.591 445.813 278.469 446.05 277.934C450.455 268.107 457.028 259.895 464.356 252.255C466.512 250.013 470.966 251.137 472.254 254.225L471.999 255.537C470.234 257.403 467.343 257.623 465.316 256.048C464.708 255.622 464.398 255.683 463.912 256.212C457.727 263.007 452.168 270.246 448.292 278.731C447.775 279.867 447.605 280.633 448.559 281.581C449.383 282.514 450.019 283.598 450.43 284.772C452.691 290.242 450.248 295.615 444.646 297.335C441.17 298.351 437.449 298.121 434.124 296.685C430.104 295.189 426.734 292.333 424.597 288.613C424.577 288.909 424.577 289.205 424.597 289.501C426.42 303.693 425.594 317.806 422.841 331.87C422.823 331.964 422.814 332.07 422.804 332.179C422.763 332.655 422.718 333.177 421.912 332.885C421.742 332.823 421.546 332.8 421.351 332.776C420.736 332.701 420.131 332.628 420.399 331.377C422.67 320.746 423.556 309.865 423.036 299.007C422.881 295.353 422.52 291.71 421.954 288.097C421.907 288.276 421.871 288.406 421.843 288.506C421.797 288.673 421.775 288.754 421.76 288.838C419.757 299.353 416.831 309.671 413.017 319.671C412.022 322.309 410.942 324.901 409.86 327.498C409.62 328.074 409.38 328.649 409.141 329.226C408.718 330.22 408.145 329.966 407.58 329.715C407.333 329.606 407.087 329.497 406.856 329.493C406.35 329.493 406.552 329.082 406.686 328.809L406.686 328.808C406.697 328.786 406.707 328.765 406.717 328.746C409.915 321.62 412.633 314.288 414.852 306.798C416.582 301.229 418.02 295.573 419.159 289.853C419.181 289.651 419.181 289.447 419.159 289.245L419.078 289.278C418.943 289.333 418.811 289.386 418.68 289.452C410.174 293.603 402.883 292.327 396.498 285.55C396.348 285.411 396.185 285.287 396.012 285.179C395.954 285.391 395.911 285.606 395.884 285.824C395.859 286.616 395.84 287.409 395.821 288.203V288.203C395.786 289.698 395.751 291.195 395.671 292.692C395.467 297.799 395.006 302.892 394.292 307.953L392.099 307.078C392.925 298.684 393.715 290.297 393.448 281.411C390.702 289.106 387.731 296.259 384.638 303.352L382.53 302.27C385.707 294.88 388.751 287.44 391.643 279.648C391.595 279.684 391.548 279.719 391.502 279.753C391.397 279.83 391.297 279.903 391.201 279.974L391.201 279.974C390.734 280.319 390.357 280.597 389.972 280.864C383.818 285.198 376.965 287.373 369.674 288.158L369.617 288.164C369.089 288.227 368.722 288.27 368.593 289.033C367.171 297.609 365.202 306.051 362.948 314.475C362.456 316.298 361.958 318.122 361.369 319.945C361.062 320.868 360.528 320.66 359.995 320.453C359.746 320.357 359.497 320.26 359.273 320.279C358.732 320.323 358.851 319.918 358.948 319.588C358.959 319.547 358.971 319.508 358.981 319.471C359.259 318.462 359.539 317.454 359.819 316.447C360.762 313.055 361.704 309.669 362.566 306.258C364.005 300.599 365.16 294.886 366.266 289.154C366.381 288.546 366.266 288.486 365.658 288.413C364.653 288.289 364.417 288.92 364.186 289.538C364.123 289.708 364.06 289.877 363.981 290.03C359.121 299.402 353.264 308.087 347.225 316.675C346.398 317.848 345.633 318.231 344.296 317.891C343.467 317.66 343.588 317.495 343.954 316.993L344.017 316.906L344.427 316.342C346.326 313.729 348.224 311.116 350.038 308.446C354.212 302.289 358.161 295.98 361.715 289.422C362.092 288.729 362.128 288.449 361.223 288.376C358.539 288.226 355.873 287.852 353.252 287.258C352.801 286.38 351.924 285.872 351.046 285.363C350.326 284.946 349.606 284.529 349.121 283.907C343.89 277.221 339.66 269.899 339.593 261.056C339.539 253.86 342.68 245.506 347.225 240C350.608 235.863 354.579 233.58 359.273 231.025C359.351 230.98 359.592 230.91 359.868 230.829C360.301 230.702 360.819 230.551 360.919 230.436C363.81 230.33 366.705 230.534 369.552 231.043C369.316 231.29 369.07 231.564 368.817 231.847C368.096 232.652 367.315 233.525 366.501 234.015ZM436.517 283.107C436.38 283.474 436.409 283.883 436.599 284.227C436.788 284.57 437.118 284.814 437.502 284.894C438.486 285.106 439.014 284.359 439.245 283.471C439.381 283.097 439.348 282.682 439.156 282.333C438.964 281.984 438.632 281.734 438.243 281.648C437.222 281.569 436.73 282.219 436.517 283.107ZM445.145 286.173C444.825 286.402 444.426 286.491 444.039 286.419C443.097 286.273 442.945 285.501 443.018 284.626C443.31 283.769 443.93 283.295 444.756 283.508C445.124 283.581 445.442 283.809 445.63 284.134C445.817 284.459 445.855 284.849 445.734 285.204C445.678 285.593 445.465 285.943 445.145 286.173Z" fill="#424251"/>
<path d="M351.976 231.366C343.47 233.013 335.894 236.593 330.104 243.522C323.761 251.076 322.765 260.88 327.485 269.468C331.799 277.315 338.567 282.092 346.629 285.143C346.727 284.705 347.441 283.914 347.204 283.635C343.255 278.955 340.925 273.505 339.066 267.488C336.86 260.346 335.943 254.521 339.066 247.568C341.63 241.861 346.069 237.757 350.991 234.08C351.841 233.423 351.399 232.393 351.976 231.366Z" fill="#424251"/>
<path d="M369.57 231.025C368.64 231.992 367.389 232.429 366.289 233.092C359.314 237.298 353.616 242.707 350.359 250.505C346.914 258.777 347.728 266.855 351.137 274.756C353.171 279.228 355.878 283.362 359.163 287.015C359.952 287.939 360.773 287.562 361.593 287.52C362.413 287.477 363.203 287.708 363.974 287.331L362.468 285.368C357.042 278.263 353.451 270.404 353.846 261.056C354.12 254.474 356.617 248.694 360.736 243.637C364.509 239.098 369.166 235.376 374.424 232.697C374.594 232.612 374.704 232.381 374.837 232.217C373.185 231.433 371.362 231.256 369.57 231.025Z" fill="#5D5D69"/>
<path d="M351.976 231.366C351.368 232.393 350.317 232.758 349.454 233.402C344.533 237.079 340.547 241.583 337.984 247.29C334.861 254.243 334.824 261.312 337.03 268.453C338.852 274.47 342.23 279.515 346.18 284.195C346.416 284.474 346.714 284.693 346.617 285.131C348.723 286.099 350.941 286.799 353.221 287.216C352.401 285.617 351.046 284.474 349.971 283.095C344.74 276.409 341.216 268.945 341.149 260.102C341.094 252.906 343.622 246.591 348.166 241.084C351.563 236.96 355.726 233.534 360.427 230.995C360.627 230.88 360.755 230.624 360.919 230.436C357.908 230.294 354.893 230.608 351.976 231.366V231.366Z" fill="#5D5D69"/>
<path d="M380.634 306.209C378.034 311.539 375.33 316.821 372.28 321.908C371.946 322.467 372.116 322.577 372.669 322.747C373.884 323.112 374.644 322.869 375.318 321.598C377.894 316.736 380.652 311.934 382.894 306.865L380.634 306.209Z" fill="#424251"/>
<path fill-rule="evenodd" clip-rule="evenodd" d="M394.124 309.859C394.167 309.523 394.21 309.188 394.256 308.853L391.898 308.172C391.214 313.869 390.319 319.542 389.213 325.19C389.044 326.05 389.53 326.05 389.992 326.05C390.181 326.05 390.366 326.05 390.501 326.108C390.969 326.309 391.522 326.485 391.661 325.567C392.117 322.627 392.591 319.689 393.064 316.752C393.329 315.112 393.593 313.471 393.855 311.831C393.955 311.175 394.04 310.517 394.124 309.859ZM393.35 309.613C393.415 309.629 393.478 309.651 393.539 309.68L393.411 309.789L393.265 309.661C393.296 309.613 393.35 309.613 393.35 309.613Z" fill="#424251"/>
<path d="M384.626 303.328L382.518 302.246L381.74 303.924C382.518 304.118 383.35 304.203 383.745 305.078L384.626 303.328Z" fill="#5D5D69"/>
<path d="M383.745 305.084C383.35 304.209 382.53 304.124 381.74 303.93C381.564 304.313 381.381 304.702 381.199 305.084C381.744 305.653 382.485 305.994 383.271 306.039L383.745 305.084Z" fill="#424251"/>
<path d="M391.898 308.166L394.256 308.853V307.929L392.062 307.054L391.898 308.166Z" fill="#5D5D69"/>
<path d="M383.271 306.033C382.484 305.988 381.744 305.647 381.199 305.079C380.896 305.386 380.698 305.782 380.634 306.209L382.894 306.866C383.222 306.683 383.21 306.343 383.271 306.033Z" fill="#5D5D69"/>
<path d="M438.243 281.672C437.222 281.569 436.73 282.219 436.517 283.107C436.379 283.474 436.409 283.883 436.598 284.227C436.788 284.57 437.117 284.814 437.501 284.894C438.486 285.106 439.014 284.359 439.245 283.471C439.372 283.1 439.335 282.692 439.144 282.349C438.953 282.006 438.625 281.76 438.243 281.672V281.672Z" fill="#030304"/>
<path d="M443.018 284.65C442.945 285.501 443.097 286.273 444.039 286.419C444.425 286.491 444.825 286.402 445.145 286.173C445.465 285.943 445.677 285.593 445.734 285.204C445.855 284.849 445.817 284.459 445.629 284.134C445.442 283.809 445.123 283.581 444.755 283.508C443.929 283.319 443.309 283.812 443.018 284.65Z" fill="#030304"/>
<path d="M393.411 309.789L393.538 309.68C393.478 309.651 393.415 309.629 393.35 309.613C393.35 309.613 393.295 309.613 393.265 309.661L393.411 309.789Z" fill="#5D5D69"/>
<path d="M471.931 193.5C442.161 233.882 484.799 202.69 462.071 226.674C496.744 257.841 453.911 280.123 448.206 290.145C440.934 302.921 596.9 293.689 471.931 193.5Z" fill="#2EBF8B"/>
</svg>
