<?xml version="1.0" encoding="UTF-8"?>
<svg width="555px" height="530px" viewBox="0 0 555 530" version="1.1" xmlns="http://www.w3.org/2000/svg" xmlns:xlink="http://www.w3.org/1999/xlink">
    <!-- Generator: Sketch 60 (88103) - https://sketch.com -->
    <title>Group 10 Copy</title>
    <desc>Created with Sketch.</desc>
    <defs>
        <circle id="path-1" cx="241" cy="241" r="241"></circle>
        <filter x="-7.7%" y="-7.3%" width="115.4%" height="115.4%" filterUnits="objectBoundingBox" id="filter-2">
            <feOffset dx="0" dy="2" in="SourceAlpha" result="shadowOffsetOuter1"></feOffset>
            <feGaussianBlur stdDeviation="12" in="shadowOffsetOuter1" result="shadowBlurOuter1"></feGaussianBlur>
            <feColorMatrix values="0 0 0 0 0   0 0 0 0 0   0 0 0 0 0  0 0 0 0.1 0" type="matrix" in="shadowBlurOuter1"></feColorMatrix>
        </filter>
    </defs>
    <g id="Page-1" stroke="none" stroke-width="1" fill="none" fill-rule="evenodd">
        <g id="Group-10-Copy" transform="translate(24.000000, 22.000000)">
            <g id="Oval">
                <use fill="black" fill-opacity="1" filter="url(#filter-2)" xlink:href="#path-1"></use>
                <use fill="#FFFFFF" fill-rule="evenodd" xlink:href="#path-1"></use>
            </g>
            <g id="How_Nano" transform="translate(2.000000, 1.000000)" fill-rule="nonzero">
                <g id="Layer_5" fill="#FFFFFF">
                    <ellipse id="Oval" cx="239.901786" cy="240" rx="239.901786" ry="240"></ellipse>
                </g>
                <g id="Illustration" transform="translate(29.678571, 61.360825)">
                    <g id="Layer_2" transform="translate(0.000000, 41.937535)">
                        <path d="M322.241996,68.0725204 C322.241996,68.0725204 373.750653,85.9597908 361.010189,63.0886395 L490.122062,34.9297121 C490.122062,34.9297121 516.660139,15.7417704 479.872581,0 L26.9694417,60.5602316 L41.7512961,117.005722 L321.992898,68.4189609" id="Path" fill="#B88DFC"></path>
                        <path d="M480.996561,30.5961668 C471.233124,46.4534173 469.222112,34.3705449 415.708518,49.5653039 C412.063178,50.6046255 384.789958,55.3210787 354.557937,60.7121792 C346.708304,51.3035844 324.976001,44.4780986 341.398259,68.0056635 C334.557822,64.5158453 326.794434,63.2636158 319.204212,64.4257783 C273.206095,71.2026408 70.7560528,110.064756 69.5956195,110.301795 C65.4095539,111.164857 54.6375737,104.527786 49.315377,101.349043 C45.3419562,98.9786603 43.4038504,93.386989 48.361513,90.7734904 C54.43708,87.5643573 49.8682536,85.248676 53.622954,85.6437398 C86.9899677,89.1446123 141.171874,70.746798 168.663814,68.8322584 C190.353588,67.3188604 288.899284,48.0093606 295.643164,48.5563719 C303.632534,49.2067076 411.218674,29.8668183 443.492086,21.8926088 C469.264641,15.5290437 476.646455,16.7993256 479.823976,18.4038921 C486.324833,21.6616485 481.646646,29.5386115 480.996561,30.5961668 Z" id="Path" fill="#956CE5"></path>
                        <ellipse id="Oval" fill="#D7CDF9" transform="translate(37.214184, 89.041349) rotate(-74.995080) translate(-37.214184, -89.041349) " cx="37.2141842" cy="89.0413487" rx="29.4922219" ry="30.5379613"></ellipse>
                        <path d="M196.094999,244.842269 C196.094999,244.842269 138.92999,268.606872 160.437497,238.22951 L46.3201225,200.826091 C46.3201225,200.826091 6.27606067,167.184895 70.2396296,154.439531 C298.768514,189.827279 433.027551,215.726239 473.016741,232.136412 C513.005931,248.546584 504.970848,274.445545 448.911491,309.833292 L196.198284,245.30419" id="Path" fill="#5F45BA"></path>
                        <path d="M35.6332002,190.584824 C44.2179763,212.228238 47.3954978,195.896911 101.04883,217.424846 C104.69417,218.895699 132.319773,225.76373 162.922404,233.598147 C171.865638,220.992575 194.849508,212.118836 175.784379,243.723935 C180.723815,240.624204 188.937981,237.117254 198.920138,239.250598 C245.616945,249.242671 436.474806,302.211601 437.689919,302.558042 C441.942816,303.773622 433.321587,268.995858 429.421073,269.463857 C394.790341,273.608987 381.503076,250.950562 353.403579,247.875143 C331.227759,245.443982 231.643141,217.55856 224.650164,218.178506 C216.375242,218.913932 107.482855,190.82794 75.0211008,179.46226 C49.090581,170.38795 41.3806866,171.980361 37.9601424,174.095471 C30.9732404,178.392549 35.0560214,189.138282 35.6332002,190.584824 Z" id="Path" fill="#534784"></path>
                    </g>
                    <ellipse id="Oval" fill="#D7CDF9" transform="translate(459.325756, 313.418717) rotate(-51.160000) translate(-459.325756, -313.418717) " cx="459.325756" cy="313.418717" rx="44" ry="33.4389034"></ellipse>
                    <path d="M440.946423,18.7746443 C443.53445,20.4102672 445.516637,22.8478649 446.590625,25.7156102 C447.726756,28.942977 447.277164,32.0062404 445.861557,34.9540237 C445.02342,36.619195 443.935447,38.1462222 442.635431,39.4820619 C442.325577,39.8163466 442.027874,39.6583211 441.71802,39.6279315 C441.416963,39.6548182 441.113726,39.6132628 440.830987,39.5063735 L441.438544,38.7891808 C443.59537,36.1817602 445.083884,33.2522107 445.083884,29.6723254 C445.088745,27.2273601 444.295128,24.8477257 442.823773,22.8954629 C441.500804,21.0965987 439.826599,19.5850994 437.902564,18.4525154 C437.835733,18.4160479 437.805355,18.3309573 437.756751,18.2641004 C437.59727,18.3191039 437.435035,18.3657643 437.270705,18.4038921 C435.58074,18.7515886 433.973733,19.4222923 432.537839,20.3792108 C430.107612,21.9655436 428.212035,24.0624204 427.501194,27.113528 C427.41006,27.4782022 427.270322,27.2654756 427.142735,27.1864629 C425.36404,26.0243883 423.113639,25.8568628 421.182604,26.7427759 C418.412145,28.0069798 417.099823,30.3348169 417.111974,33.5257163 C417.111974,33.7809883 417.111974,33.799222 416.868951,33.6898197 C416.096722,33.2882736 415.227411,33.1113967 414.359742,33.1792758 C413.588145,33.2218211 413.612447,33.2339769 413.539541,32.4013041 C413.247913,29.1131583 412.433787,26.0195054 410.416699,23.3695394 C410.032125,22.7132602 409.40273,22.23666 408.666936,22.0445564 L407.864961,22.1600366 C407.868339,22.1719575 407.868339,22.184583 407.864961,22.196504 C407.002231,22.7495932 406.771359,23.4424742 407.257404,24.086732 C407.526263,24.426558 407.926912,24.6359503 408.359309,24.6626231 C408.791706,24.6892959 409.215035,24.5307315 409.523591,24.2265238 C409.790916,23.9469402 409.869898,24.0745762 410.033939,24.3055365 C411.656115,26.609062 412.342654,29.2529501 412.640357,32.030552 C412.642857,32.0446235 412.642857,32.0590259 412.640357,32.0730974 C412.640357,32.5228622 412.931984,33.0577177 412.688961,33.3859245 C412.445939,33.7141313 411.941667,33.7445208 411.558906,33.9390138 C411.242704,34.0869088 410.93983,34.2617891 410.653646,34.4617135 C410.453153,34.6075832 410.404548,34.5589599 410.325566,34.3523112 C408.855279,30.517154 406.540488,27.2593977 403.940145,24.2022122 C403.174623,23.3087603 401.509918,23.6491229 400.957041,24.8100025 L401.029948,25.3144685 C401.641456,26.0646862 402.732396,26.2061093 403.514855,25.6365974 C403.751802,25.4846498 403.867238,25.5150394 404.037354,25.727766 C406.289228,28.4026826 408.113276,31.4104446 409.444609,34.6440506 C409.6208,35.0877375 409.669404,35.3794769 409.292719,35.7259174 C408.964831,36.0642282 408.708589,36.4652769 408.539349,36.9050307 C407.591561,38.9593621 408.405687,41.050161 410.471379,41.8098989 C411.751465,42.2651053 413.151999,42.2478614 414.420498,41.7612757 C415.958132,41.2607752 417.27032,40.2342924 418.126594,38.8621157 C418.134918,38.9754171 418.134918,39.0891769 418.126594,39.2024783 C417.233599,44.5618783 417.196686,50.0291133 418.017233,55.4000914 C418.017233,55.5945843 417.974705,55.928869 418.35139,55.807311 C418.618715,55.7222203 419.044004,55.8924016 418.958946,55.2602996 C418.303729,51.1627658 418.168998,46.9987998 418.557959,42.8674542 C418.687263,41.478004 418.890066,40.0963834 419.165516,38.7284018 C419.208045,38.9107389 419.220196,38.96544 419.226271,39.0140633 C419.785764,43.0559998 420.694425,47.0418144 421.94205,50.9267544 C422.330886,52.1788025 422.786554,53.4126169 423.217919,54.6464314 C423.412337,55.2055985 423.782947,54.7862231 424.068498,54.798379 C424.35405,54.8105348 424.177858,54.6160418 424.135329,54.5127175 C423.067842,51.7371725 422.182971,48.8947502 421.486382,46.0036524 C420.941084,43.8433819 420.507121,41.6565045 420.186211,39.4516723 C420.177265,39.3749456 420.177265,39.2974387 420.186211,39.220712 C420.246765,39.2474359 420.305608,39.2778836 420.362402,39.3118806 C423.467017,41.0562389 426.207098,40.7097984 428.728458,38.2421695 C428.788742,38.1941793 428.851618,38.1495406 428.916801,38.1084556 C428.934458,38.1906205 428.946636,38.2738687 428.953254,38.3576497 C428.953254,39.2328678 428.904649,40.1080859 428.910725,40.983304 C428.910725,42.9343111 428.953254,44.8913961 429.147672,46.8363252 L429.9861,46.5385079 C429.761928,43.2708529 429.747723,39.9921698 429.943571,36.7226936 C430.830604,39.7130222 431.814846,42.496702 432.841617,45.2621482 L433.649667,44.8913961 C432.598594,42.0104698 431.59005,39.1113097 430.660488,36.0845137 C430.909587,36.2911625 431.085778,36.4431101 431.268045,36.5829018 C433.438107,38.270502 436.008843,39.3657887 438.728841,39.7616454 C438.935411,39.7981128 439.081224,39.8102687 439.117678,40.1141638 C439.494363,43.4144655 440.077617,46.6843776 440.770232,49.9299782 C440.922121,50.635015 441.07401,51.3461297 441.262353,52.0390107 C441.402091,52.5677883 441.778776,52.1727246 442.040025,52.209192 C442.301275,52.2456594 442.191914,52.0390107 442.161537,51.9052968 C441.797003,50.2034838 441.402091,48.5077487 441.061859,46.7937799 C440.624418,44.6118125 440.296338,42.4055335 439.986484,40.1992545 C439.986484,39.9682941 439.986484,39.9439825 440.223431,39.9257488 C440.709476,39.8953593 440.697325,40.3025788 440.830987,40.5760845 C442.511828,44.1927928 444.431918,47.6933296 446.578474,51.0543903 C446.750442,51.4774895 447.218723,51.6971633 447.653849,51.5588563 C447.98193,51.4859215 447.921174,51.4190645 447.77536,51.1881042 C447.064519,50.0819258 446.353678,48.9757473 445.673214,47.8452572 C444.221154,45.4140958 442.860227,42.9343111 441.651189,40.3633579 C441.523602,40.0959301 441.517526,39.9865279 441.851683,39.974372 C442.858073,39.9685908 443.862143,39.8770918 444.853013,39.7008664 C445.232795,39.1563124 445.66634,38.6513333 446.147109,38.1935463 C448.224952,35.7623848 449.677013,32.9604713 449.85928,29.5872348 C450.001587,26.9311242 449.193913,24.3110993 447.580942,22.196504 C446.389396,20.5617279 444.891273,19.1745016 443.170081,18.1121528 C443.100536,18.0463396 443.041157,17.9705506 442.993889,17.8872703 C441.915167,17.7940276 440.82957,17.8164407 439.755612,17.9541273 C440.115909,18.2773648 440.516101,18.5531134 440.946423,18.7746443 L440.946423,18.7746443 Z M413.776488,36.5160449 C413.820667,36.6574488 413.802038,36.8110219 413.725332,36.9377505 C413.648627,37.0644792 413.521228,37.1521665 413.3755,37.1785364 C413.004891,37.2393154 412.816548,36.947576 412.767944,36.6011355 C412.725871,36.4588975 412.74619,36.3054751 412.823837,36.1791049 C412.901484,36.0527347 413.029146,35.9653191 413.175007,35.9386441 C413.539541,35.9143324 413.709657,36.1756823 413.776488,36.5160449 L413.776488,36.5160449 Z M410.902745,37.6404571 C410.59908,37.6723365 410.327073,37.4519265 410.295188,37.1481469 C410.262953,37.0139412 410.287796,36.8723721 410.363797,36.7571747 C410.439799,36.6419773 410.560151,36.5634685 410.696175,36.5403565 C411.006029,36.4734996 411.230825,36.6679925 411.303732,36.9961993 C411.376639,37.3244061 411.255127,37.5979117 410.902745,37.6404571 L410.902745,37.6404571 Z" id="Shape" fill="#555560"></path>
                    <path d="M446.329376,18.3856584 C449.502296,19.0632594 452.327835,20.8549646 454.294444,23.4363963 C456.524081,26.3211418 456.727557,30.2880233 454.804791,33.3859245 C453.048953,36.2972404 450.436459,37.9868976 447.362222,39.0019075 C447.331844,38.8317262 447.453355,38.7527134 447.544489,38.655467 C449.161445,36.9811741 450.422216,34.9962468 451.250585,32.8206795 C452.249775,30.2167479 452.249775,27.3349214 451.250585,24.7309898 C450.400057,22.5747688 449.00859,20.6741107 447.210333,19.2122533 C446.924781,18.9509035 446.529869,18.7868001 446.329376,18.3856584 Z" id="Path" fill="#555560"></path>
                    <path d="M439.755612,17.9237377 C440.121647,18.2593898 440.530182,18.5454738 440.970725,18.7746443 C443.558753,20.4102672 445.54094,22.8478649 446.614927,25.7156102 C447.751058,28.942977 447.301466,32.0062404 445.885859,34.9540237 C445.047722,36.619195 443.959749,38.1462222 442.659733,39.4820619 C442.349879,39.8163466 442.052176,39.6583211 441.742322,39.6279315 C441.441266,39.6548182 441.138028,39.6132628 440.85529,39.5063735 L441.462846,38.7891808 C443.619673,36.1817602 445.108187,33.2522107 445.108187,29.6723254 C445.113048,27.2273601 444.31943,24.8477257 442.848076,22.8954629 C441.525107,21.0965987 439.850902,19.5850994 437.926866,18.4525154 C437.860035,18.4160479 437.829657,18.3309573 437.781053,18.2641004 C438.417133,18.0470081 439.083585,17.9321291 439.755612,17.9237377 L439.755612,17.9237377 Z" id="Path" fill="#87878E"></path>
                    <path d="M446.329376,18.3856584 C446.529869,18.7868001 446.936932,18.9509035 447.234635,19.2122533 C449.032892,20.6741107 450.424359,22.5747688 451.274887,24.7309898 C452.274077,27.3349214 452.274077,30.2167479 451.274887,32.8206795 C450.446518,34.9962468 449.185747,36.9811741 447.568791,38.655467 C447.477658,38.7527134 447.356146,38.8317262 447.386524,39.0019075 C446.581732,39.3299709 445.738605,39.5546191 444.877315,39.6704769 C445.257097,39.1259229 445.690643,38.6209438 446.171411,38.1631568 C448.249255,35.7319953 449.701315,32.9300818 449.883582,29.5568453 C450.02589,26.9007347 449.218216,24.2807098 447.605245,22.1661145 C446.413699,20.5313384 444.915575,19.1441121 443.194383,18.0817632 C443.124838,18.0159501 443.065459,17.9401611 443.018192,17.8568808 C444.142286,17.8647649 445.258693,18.0430489 446.329376,18.3856584 Z" id="Path" fill="#87878E"></path>
                    <path d="M434.257224,46.3926383 C435.138181,48.4773592 436.079894,50.5438464 437.100589,52.5434767 C437.216025,52.7622812 437.149194,52.8048266 436.936549,52.8595277 C436.743671,52.9358213 436.527328,52.9255734 436.342519,52.8313891 C436.15771,52.7372049 436.022235,52.568156 435.970534,52.3672175 C435.095652,50.4587558 434.147864,48.5806836 433.400569,46.6053649 L434.257224,46.3926383 Z" id="Path" fill="#424251"></path>
                    <path d="M429.117294,47.1462983 C429.147672,47.5231283 429.171974,47.9060363 429.214503,48.2889442 C429.402846,50.0515362 429.60334,51.8080504 429.785607,53.5706424 C429.82206,53.9231608 430.028629,53.8684597 430.210896,53.8016028 C430.393163,53.7347458 430.775924,53.9413945 430.709093,53.473396 C430.393163,51.2975065 430.168367,49.1155391 430.010403,46.9274938 L429.117294,47.1462983 Z M429.372468,47.4745051 L429.439299,47.4745051 C429.439299,47.4745051 429.439299,47.4745051 429.475753,47.4745051 L429.414997,47.5170504 L429.372468,47.4745051 Z" id="Shape" fill="#424251"></path>
                    <path d="M432.817315,45.2196029 L433.625365,44.8488507 L433.886614,45.4991864 C433.594987,45.5599655 433.279058,45.5781992 433.115017,45.906406 L432.817315,45.2196029 Z" id="Path" fill="#5D5D69"></path>
                    <path d="M433.115017,45.906406 C433.279058,45.5781992 433.594987,45.5599655 433.886614,45.4991864 L434.068881,45.9550292 C433.857418,46.1609461 433.57416,46.2764723 433.279058,46.2771581 L433.115017,45.906406 Z" id="Path" fill="#424251"></path>
                    <polygon id="Path" fill="#5D5D69" points="430.010403 46.9274938 429.117294 47.1462983 429.117294 46.7998578 429.955723 46.5020405"></polygon>
                    <path d="M433.279058,46.2771581 C433.57416,46.2764723 433.857418,46.1609461 434.068881,45.9550292 C434.176219,46.0773815 434.242141,46.23055 434.257224,46.3926383 L433.400569,46.6053649 C433.285133,46.5263521 433.291209,46.3987162 433.279058,46.2771581 Z" id="Path" fill="#5D5D69"></path>
                    <path d="M413.15678,35.9386441 C413.539541,35.9386441 413.709657,36.1756823 413.764337,36.5464344 C413.808516,36.6878383 413.789887,36.8414114 413.713181,36.9681401 C413.636476,37.0948687 413.509077,37.182556 413.363349,37.2089259 C412.99274,37.2697049 412.804397,36.9779656 412.755793,36.6315251 C412.703204,36.4863087 412.717506,36.32526 412.794863,36.1915929 C412.872219,36.0579258 413.004708,35.9653273 413.15678,35.9386441 L413.15678,35.9386441 Z" id="Path" fill="#030304"></path>
                    <path d="M411.315883,36.9779656 C411.315883,37.3061724 411.255127,37.5857559 410.902745,37.6404571 C410.59908,37.6723365 410.327073,37.4519265 410.295188,37.1481469 C410.262953,37.0139412 410.287796,36.8723721 410.363797,36.7571747 C410.439799,36.6419773 410.560151,36.5634685 410.696175,36.5403565 C410.999954,36.4674217 411.22475,36.6497588 411.315883,36.9779656 Z" id="Path" fill="#030304"></path>
                    <path d="M429.414997,47.5170504 L429.372468,47.4745051 L429.439299,47.4745051 C429.439299,47.4745051 429.439299,47.4745051 429.475753,47.4745051 L429.414997,47.5170504 Z" id="Path" fill="#5D5D69"></path>
                    <path d="M407.68877,40.1141638 C392.238603,27.2107745 403.660669,17.0181301 398.575419,16.8844162 C376.496809,21.0781697 387.858119,7.71285968 387.858119,7.71285968 C387.858119,7.71285968 381.557756,-2.97817277 381.363338,1.06971104 C380.622119,16.6352222 369.108919,36.2668508 407.68877,40.1141638 Z" id="Path" fill="#61E296"></path>
                    <path d="M348.603881,30.3895181 C351.185997,32.3526809 353.221312,34.7534528 354.199478,38.0172871 C355.2384,41.4756142 354.600466,44.7029811 352.947911,47.7419329 C351.973536,49.4555812 350.744377,51.0110656 349.302571,52.3550617 C348.956264,52.6893464 348.652486,52.5070093 348.324405,52.4583861 C348.00597,52.4685626 347.689037,52.4105397 347.394843,52.2882048 L348.063156,51.5588563 C350.493382,48.9210462 352.200617,45.9003281 352.407186,42.1320278 C352.540201,39.5440735 351.82561,36.9833584 350.371871,34.8385435 C349.070966,32.8704302 347.38185,31.1889381 345.408133,29.8972079 C345.348035,29.8349096 345.298753,29.7630128 345.262319,29.6844812 C345.092601,29.7362981 344.920209,29.7789055 344.745896,29.8121172 C342.944197,30.0816996 341.212576,30.7011112 339.648495,31.6354883 C336.96917,33.1792758 334.885251,35.2822305 333.973916,38.4792078 C333.864556,38.8621157 333.724817,38.6311554 333.597231,38.5399868 C331.780437,37.2182539 329.411768,36.9243526 327.327245,37.7620151 C324.331991,38.9775959 322.82525,41.3419004 322.673361,44.7029811 C322.673361,44.9764867 322.624757,44.9947204 322.406036,44.8670845 C321.612279,44.4050423 320.705479,44.1735193 319.787467,44.1985151 C318.967265,44.1985151 318.997643,44.1985151 318.96119,43.3354527 C318.827527,39.8467361 318.122762,36.5403565 316.136051,33.610807 C315.76302,32.8983488 315.122883,32.3628746 314.35591,32.1217206 L313.505331,32.2007333 C313.506345,32.214897 313.506345,32.229115 313.505331,32.2432787 C312.569693,32.7781342 312.290217,33.5014047 312.733734,34.2003636 C312.999249,34.5727532 313.410516,34.8146416 313.8649,34.8656635 C314.319284,34.9166853 314.773922,34.7720278 315.115356,34.4677914 C315.419134,34.1882078 315.492041,34.3219217 315.650006,34.5771936 C317.24788,37.0934457 317.831134,39.9196709 318.007326,42.8735321 C318.010276,42.8875603 318.010276,42.9020492 318.007326,42.9160774 C317.970872,43.3901539 318.268575,43.9736326 318.007326,44.3018394 C317.746076,44.6300462 317.199275,44.6482799 316.792212,44.8245391 C316.454037,44.9703966 316.127092,45.1410421 315.814046,45.335083 C315.601401,45.4748748 315.546721,45.4201737 315.473814,45.2013692 C314.118963,41.0744726 311.828474,37.5128211 309.264585,34.1517404 C308.499063,33.16712 306.700696,33.4406257 306.080988,34.6318948 L306.135668,35.1667503 C306.745898,35.9847531 307.885579,36.1893899 308.742086,35.6347489 C308.99726,35.4888792 309.118771,35.5253466 309.288887,35.7623848 C311.534614,38.6921996 313.313534,41.952073 314.562479,45.4262516 C314.720444,45.906406 314.756897,46.222457 314.349834,46.5628196 C313.985901,46.9079688 313.692841,47.3208887 313.487104,47.7784003 C312.381351,49.8995886 313.134721,52.1423351 315.273321,53.0540206 C316.599177,53.6028326 318.077582,53.658887 319.44116,53.2120461 C321.092526,52.7633161 322.533496,51.7477948 323.511789,50.3432756 C323.511789,50.5377685 323.511789,50.6228592 323.511789,50.7018719 C322.284654,56.3135428 321.960599,62.0851699 322.55185,67.7990148 C322.55185,68.0056635 322.472867,68.352104 322.87993,68.2487796 C323.165482,68.1697669 323.608999,68.3764156 323.530016,67.7017683 C323.051652,63.3418038 323.127185,58.938785 323.754812,54.5978081 C323.962434,53.135401 324.246348,51.6848539 324.605391,50.2521071 C324.629177,50.3540978 324.645422,50.4577023 324.653996,50.5620801 C325.034928,54.8589422 325.784993,59.1150123 326.89588,63.2831324 C327.242188,64.6263491 327.661402,65.9452542 328.050238,67.2763151 C328.232505,67.8841054 328.657795,67.4464964 328.943346,67.4768859 C329.228898,67.5072754 329.064858,67.2945488 329.028404,67.1790686 C328.045312,64.1950866 327.259862,61.1495357 326.67716,58.0622132 C326.214482,55.7534454 325.869753,53.4225838 325.644313,51.0787019 C325.635434,50.9979067 325.635434,50.9163811 325.644313,50.8355858 L325.820505,50.9389102 C329.004102,52.9446184 331.896072,52.7197359 334.709059,50.2521071 C334.774125,50.2019321 334.843216,50.1572093 334.915629,50.1183932 C334.924644,50.2073076 334.924644,50.2969065 334.915629,50.3858209 C334.854873,51.3035844 334.775891,52.209192 334.733362,53.1512671 C334.642228,55.2116764 334.575397,57.2781636 334.678682,59.3446509 L335.577865,59.0772231 C335.514903,55.6143524 335.673191,52.1509952 336.05176,48.7083195 C336.829432,51.9113747 337.722541,54.9017033 338.664253,57.8737982 L339.53306,57.5212798 C338.57312,54.4276268 337.661785,51.3157402 336.841583,48.0701397 L337.44914,48.6293068 C339.650924,50.52526 342.30792,51.8155194 345.159035,52.3732954 C345.377755,52.4219186 345.529644,52.4462303 345.547871,52.7683591 C345.772667,56.2753095 346.222259,59.7518704 346.762984,63.2162755 C346.884496,63.9699355 347.012082,64.7235956 347.176123,65.4711777 C347.297634,66.0364227 347.710773,65.6352811 347.984173,65.6899822 C348.257574,65.7446834 348.154289,65.513723 348.129987,65.3739312 C347.832284,63.5505602 347.52243,61.7271891 347.236878,59.903818 C346.890571,57.5759809 346.629322,55.2299101 346.447055,52.8838393 C346.447055,52.6407232 346.447055,52.6164116 346.708304,52.6103337 C347.224727,52.6103337 347.188274,53.029709 347.315861,53.3275263 C348.913051,57.2380183 350.770255,61.037106 352.875005,64.6992839 C353.028686,65.1594046 353.510122,65.4240316 353.980758,65.3070743 C354.339216,65.2402174 354.272385,65.1672825 354.132647,64.9180885 C353.440032,63.7025077 352.747418,62.486927 352.091256,61.2713463 C350.681725,58.6335361 349.375478,55.9410248 348.233271,53.1695008 C348.11176,52.8716835 348.105684,52.7562033 348.464143,52.7683591 C349.527385,52.8129688 350.592494,52.7661999 351.64774,52.6285674 C352.080312,52.0753508 352.564486,51.5645341 353.093725,51.1030136 C355.414592,48.617151 357.091448,45.7666142 357.462058,42.2110406 C357.744959,39.4206559 357.027953,36.6204561 355.438894,34.3097659 C354.265424,32.5236775 352.757234,30.9818841 350.997654,29.7695719 C350.925634,29.6990577 350.866062,29.6168582 350.821463,29.5264557 C349.688702,29.3645038 348.541384,29.3298468 347.400919,29.4231314 C347.759668,29.7946067 348.163849,30.1193013 348.603881,30.3895181 L348.603881,30.3895181 Z M318.991568,47.7054654 C319.033476,47.8564351 319.007104,48.0181955 318.919417,48.1480211 C318.831731,48.2778466 318.69155,48.3626795 318.5359,48.3801127 C318.140988,48.428736 317.958721,48.1066071 317.928343,47.7419329 C317.890705,47.5886879 317.920292,47.4266568 318.009657,47.2966205 C318.099023,47.1665842 318.239656,47.0809271 318.396162,47.0612077 C318.772847,47.0308181 318.942963,47.3104017 318.991568,47.6811538 L318.991568,47.7054654 Z M315.90518,48.7387168 C315.591997,48.7402791 315.328938,48.5034342 315.297623,48.1916977 C315.263765,48.0448314 315.294167,47.8904908 315.381188,47.7674529 C315.46821,47.6444149 315.603581,47.5643741 315.75329,47.5474399 C316.087447,47.4927388 316.312243,47.7115433 316.391225,48.0640618 C316.470207,48.4165802 316.281865,48.6900858 315.90518,48.7143974 L315.90518,48.7387168 Z" id="Shape" fill="#555560"></path>
                    <path d="M354.308838,30.2375705 C357.601796,31.2343467 360.439085,32.9726271 362.456174,35.9811894 C364.658142,39.1466781 364.658142,43.3487076 362.456174,46.5141963 C360.451237,49.498447 357.59572,51.1455589 354.308838,52.0572444 C354.308838,51.8749073 354.412123,51.8019725 354.515408,51.6986481 C356.310128,50.0174348 357.744633,47.9889182 358.731851,45.7362247 C359.931123,43.0409136 360.091265,39.9970509 359.181443,37.1906922 C358.394309,34.8722702 357.026307,32.7943681 355.208022,31.1553339 C354.910319,30.8635945 354.497181,30.6691016 354.308838,30.2375705 Z" id="Path" fill="#555560"></path>
                    <path d="M347.394843,29.4048977 C347.757719,29.7750481 348.166007,30.0977197 348.609957,30.3652064 C351.192073,32.3283693 353.227387,34.7291412 354.205554,37.9929755 C355.244476,41.4513026 354.606541,44.6786694 352.953987,47.7176212 C351.979612,49.4312696 350.750452,50.986754 349.308647,52.3307501 C348.962339,52.6650348 348.658561,52.4826977 348.33048,52.4340745 C348.012045,52.444251 347.695113,52.386228 347.400919,52.2638931 L348.069231,51.5345447 C350.499458,48.8967345 352.206692,45.8760165 352.413261,42.1077162 C352.546277,39.5197619 351.831686,36.9590468 350.377947,34.8142319 C349.077042,32.8461186 347.387926,31.1646265 345.414208,29.8728962 C345.35411,29.810598 345.304828,29.7387011 345.268395,29.6601696 C345.959318,29.4634233 346.677005,29.3772677 347.394843,29.4048977 Z" id="Path" fill="#87878E"></path>
                    <path d="M354.308838,30.2375705 C354.497181,30.6691016 354.916395,30.8453608 355.226249,31.1553339 C357.044534,32.7943681 358.412536,34.8722702 359.19967,37.1906922 C360.109491,39.9970509 359.94935,43.0409136 358.750078,45.7362247 C357.76286,47.9889182 356.328355,50.0174348 354.533634,51.6986481 C354.43035,51.8019725 354.302763,51.8749073 354.327065,52.0572444 C353.459217,52.3588517 352.557094,52.5507799 351.641664,52.6285674 C352.074236,52.0753508 352.55841,51.5645341 353.087649,51.1030136 C355.408516,48.617151 357.085372,45.7666142 357.455982,42.2110406 C357.738884,39.4206559 357.021878,36.6204561 355.432818,34.3097659 C354.259348,32.5236775 352.751158,30.9818841 350.991579,29.7695719 C350.919558,29.6990577 350.859986,29.6168582 350.815387,29.5264557 C352.009655,29.5810939 353.18819,29.8209924 354.308838,30.2375705 L354.308838,30.2375705 Z" id="Path" fill="#87878E"></path>
                    <path d="M340.104163,59.1805475 C340.924364,61.4232939 341.781019,63.6538845 342.783488,65.8176182 C342.892848,66.0546564 342.826017,66.0972018 342.595145,66.1397471 C342.387959,66.2106051 342.160358,66.1893179 341.969892,66.0812679 C341.779425,65.9732179 341.644326,65.7887488 341.598752,65.5745021 C340.772475,63.5080148 339.873291,61.477995 339.168525,59.3507288 L340.104163,59.1805475 Z" id="Path" fill="#424251"></path>
                    <path d="M334.636153,59.7032472 C334.636153,60.1043888 334.636153,60.5116083 334.678682,60.9188279 C334.788042,62.7908222 334.903477,64.6567386 335.006762,66.5287329 C335.006762,66.899485 335.249785,66.8508618 335.444203,66.7900828 C335.638621,66.7293037 336.05176,66.966342 335.984928,66.4740318 C335.774309,64.1563245 335.644697,61.8386173 335.596092,59.5209101 L334.636153,59.7032472 Z M334.885251,60.0618435 L334.964233,60.0618435 C334.964233,60.0618435 334.964233,60.0618435 334.964233,60.0618435 L334.903477,60.1043888 L334.885251,60.0618435 Z" id="Shape" fill="#424251"></path>
                    <path d="M338.646027,57.8616424 L339.514833,57.509124 L339.757855,58.2141608 C339.448002,58.262784 339.113845,58.262784 338.925503,58.6031466 L338.646027,57.8616424 Z" id="Path" fill="#5D5D69"></path>
                    <path d="M338.925503,58.6031466 C339.113845,58.262784 339.448002,58.262784 339.757855,58.2141608 L339.927971,58.7003931 C339.692469,58.9087395 339.385414,59.0176663 339.071316,59.0042883 L338.925503,58.6031466 Z" id="Path" fill="#424251"></path>
                    <polygon id="Path" fill="#5D5D69" points="335.608243 59.5148322 334.648304 59.7032472 334.648304 59.332495 335.547488 59.0650673"></polygon>
                    <path d="M339.071316,59.0042883 C339.385414,59.0176663 339.692469,58.9087395 339.927971,58.7003931 C340.034886,58.838387 340.096438,59.0061282 340.104163,59.1805475 L339.186752,59.3507288 C339.065241,59.2656381 339.083468,59.1319242 339.071316,59.0042883 Z" id="Path" fill="#5D5D69"></path>
                    <path d="M318.37186,47.036896 C318.772847,47.036896 318.942963,47.3104017 318.979416,47.6811538 C319.021324,47.8321235 318.994952,47.9938839 318.907266,48.1237095 C318.81958,48.253535 318.679399,48.3383678 318.523749,48.3558011 C318.128837,48.4044244 317.94657,48.0822955 317.916192,47.7176212 C317.878524,47.5662158 317.906532,47.4059374 317.993313,47.2762957 C318.080093,47.146654 318.217572,47.05971 318.37186,47.036896 L318.37186,47.036896 Z" id="Path" fill="#030304"></path>
                    <path d="M316.372998,48.0154385 C316.372998,48.361879 316.281865,48.6657742 315.90518,48.6900936 C315.591997,48.6916559 315.328938,48.454811 315.297623,48.1430745 C315.263765,47.9962082 315.294167,47.8418676 315.381188,47.7188296 C315.46821,47.5957917 315.603581,47.5157508 315.75329,47.4988167 C316.06922,47.4684272 316.294016,47.6872317 316.372998,48.0154385 Z" id="Path" fill="#030304"></path>
                    <path d="M334.933855,60.1104667 L334.885251,60.0618435 L334.964233,60.0618435 C334.964233,60.0618435 334.964233,60.0618435 334.964233,60.0618435 L334.933855,60.1104667 Z" id="Path" fill="#5D5D69"></path>
                    <path d="M312.80664,52.5495546 C300.145159,38.8864273 303.176867,34.7291412 304.045673,23.1811244 C280.624362,28.6512376 291.013582,5.65852826 291.013582,5.65852826 C291.013582,5.65852826 282.31337,11.7364319 279.026488,8.97706363 C274.852574,5.47011325 260.87877,48.4408918 312.80664,52.5495546 Z" id="Path" fill="#61E296"></path>
                    <path d="M251.947686,42.1320278 C254.839656,44.3383068 257.117994,47.0247402 258.217671,50.6836382 C259.378105,54.5613407 258.667263,58.1655376 256.814215,61.5752415 C255.724764,63.4921576 254.350135,65.2321109 252.73751,66.7353816 C252.342598,67.1182896 252.002366,66.9116409 251.637832,66.8569397 C251.280012,66.8699985 250.923583,66.8057336 250.592835,66.6685247 L251.346205,65.8480077 C254.049832,62.8880687 255.975787,59.5087543 256.206659,55.2785333 C256.351128,52.3855176 255.549162,49.5242142 253.922245,47.1280646 C252.466233,44.9206416 250.574446,43.0343318 248.363102,41.5850165 C248.290195,41.5424712 248.253742,41.4330689 248.199061,41.3540562 C248.004643,41.4026794 247.816301,41.4634584 247.591505,41.493848 C245.572258,41.803584 243.632541,42.5033892 241.880472,43.5542573 C238.879142,45.2803819 236.546124,47.6568422 235.519353,51.2245716 C235.397842,51.6561028 235.245953,51.388675 235.094063,51.2914286 C233.062702,49.8273152 230.422456,49.5083444 228.101086,50.4466 C224.741297,51.7837388 223.05229,54.4640943 222.882174,58.2323945 C222.882174,58.5362897 222.833569,58.5545234 222.584471,58.4147316 C221.694676,57.8971616 220.67895,57.6362954 219.649972,57.6610716 C218.732562,57.6610716 218.762939,57.6610716 218.726486,56.6946849 C218.574597,52.7865929 217.790849,49.0790717 215.561116,45.8213153 C215.138508,45.0257831 214.420815,44.4278387 213.562254,44.1559697 L212.60839,44.2471383 C212.60839,44.2471383 212.60839,44.2836057 212.60839,44.2896836 C211.557317,44.897474 211.241388,45.6997572 211.74566,46.4838068 C212.047046,46.8973372 212.508278,47.1651245 213.016711,47.2217672 C213.525143,47.2784099 214.033966,47.1186929 214.418909,46.7816241 C214.753065,46.471651 214.838123,46.6235986 215.026466,46.9092601 C216.812683,49.7294073 217.456693,52.8959951 217.663262,56.2023747 L217.663262,56.2570758 C217.620733,56.7858534 217.954889,57.4361891 217.663262,57.8069412 C217.371635,58.1776934 216.751927,58.1898492 216.284108,58.4147316 C215.901372,58.5722443 215.533368,58.7634357 215.184431,58.9860545 C214.947483,59.14408 214.886728,59.0772231 214.80167,58.828029 C213.288854,54.2027444 210.743191,50.2156396 207.845146,46.4473394 C206.988491,45.3411609 204.977478,45.651134 204.278788,46.9882728 L204.339544,47.5960632 C205.028234,48.5062073 206.300614,48.733789 207.261891,48.1187629 C207.547443,47.9546595 207.681105,47.9972048 207.869448,48.2585547 C210.389267,51.5436626 212.385447,55.1992657 213.78705,59.0954568 C213.963242,59.6303123 214.005771,59.9828307 213.544027,60.3657387 C213.138188,60.7514374 212.810234,61.2115746 212.578012,61.7211112 C211.362899,64.0975715 212.1831,66.5834341 214.582949,67.6349114 C216.069136,68.2507213 217.726733,68.3132555 219.25506,67.8111706 C221.106053,67.3118349 222.720408,66.1727384 223.811736,64.5959596 C223.819918,64.731576 223.819918,64.8675627 223.811736,65.0031791 C222.43685,71.2911434 222.073827,77.7583121 222.73636,84.1607313 C222.73636,84.3916916 222.651302,84.7685217 223.100894,84.6591194 C223.422899,84.5801066 223.91502,84.8049891 223.836038,84.051329 C223.295935,79.163814 223.37964,74.2274136 224.085136,69.361036 C224.314258,67.7240799 224.632689,66.1008824 225.039,64.4987131 C225.075454,64.7175176 225.087605,64.7782967 225.09368,64.8390757 C225.5193,69.6556935 226.360869,74.4264186 227.608965,79.0978376 C227.991726,80.6051577 228.459544,82.0881662 228.903061,83.5772526 C229.097479,84.2458219 229.559222,83.7656676 229.899454,83.7960571 C230.136401,83.7960571 230.039192,83.5954863 229.996663,83.4678503 C228.893917,80.113649 228.013081,76.6904664 227.359867,73.2205048 C226.839442,70.6326357 226.452121,68.0197526 226.199433,65.3921649 C226.200848,65.3002378 226.21102,65.2086549 226.229811,65.1186593 C226.296643,65.1612046 226.369549,65.1915941 226.430305,65.2341395 C230.002738,67.4829638 233.265318,67.2276918 236.394235,64.4622457 C236.467438,64.4079159 236.544611,64.3591559 236.625106,64.316376 C236.634063,64.4154463 236.634063,64.515123 236.625106,64.6141933 C236.558275,65.6474369 236.467142,66.6806805 236.418537,67.7139241 C236.315252,70.0296054 236.242346,72.3392088 236.363857,74.6548901 L237.366326,74.3570728 C237.297582,70.4761502 237.474126,66.594761 237.8949,62.7361211 C238.769781,66.3220842 239.766174,69.677087 240.823323,73.0077782 L241.801489,72.6187923 C240.720038,69.1483094 239.705419,65.6595927 238.763706,62.0189284 C239.049258,62.2802783 239.243676,62.4686933 239.450245,62.6267188 C241.916347,64.7538731 244.894012,66.201382 248.089701,66.8265502 C248.338799,66.8812513 248.508915,66.9055629 248.527142,67.2702372 C248.782316,71.1965629 249.280512,75.098577 249.912371,78.9762795 C250.052109,79.8211081 250.191847,80.6720146 250.368039,81.5046874 C250.507777,82.1124778 250.975596,81.6931024 251.279374,81.7478036 C251.583152,81.8025047 251.473792,81.5593886 251.443414,81.3952852 C251.109258,79.3591874 250.738648,77.3291676 250.440946,75.286992 C250.052109,72.6734935 249.79086,70.0478391 249.553913,67.4221848 C249.553913,67.1426012 249.590366,67.1182896 249.851616,67.1122117 C250.422719,67.1122117 250.392341,67.5802102 250.519928,67.9144949 C252.309216,72.304095 254.391765,76.5682614 256.75346,80.6780925 C256.93115,81.1759188 257.454062,81.4610156 257.968573,81.340584 C258.369561,81.2737271 258.296654,81.1886364 258.138689,80.9090529 C257.361016,79.5597583 256.583344,78.2104637 255.8482,76.8307795 C254.274628,73.8769184 252.810417,70.8562003 251.522397,67.7443136 C251.388734,67.4161069 251.388734,67.2884709 251.789721,67.2945488 C252.980493,67.3462568 254.173502,67.2974609 255.356079,67.1486791 C255.838919,66.5271144 256.380084,65.9531777 256.97218,65.4347103 C259.572523,62.6449525 261.455949,59.4479752 261.869087,55.4730263 C262.194128,52.337612 261.390589,49.1890263 259.602901,46.5932091 C258.28786,44.5885272 256.595825,42.8586845 254.620936,41.4999259 C254.535878,41.4452247 254.493349,41.3236666 254.426518,41.2264202 C253.156631,41.0484843 251.871122,41.0097616 250.592835,41.11094 C250.997426,41.5096283 251.453001,41.8529742 251.947686,42.1320278 L251.947686,42.1320278 Z M218.756864,61.544852 C218.802099,61.714318 218.771943,61.8950713 218.674147,62.0406567 C218.576351,62.1862422 218.420452,62.2824631 218.246516,62.3045899 C217.803,62.3532131 217.596431,61.9946168 217.535675,61.5813194 C217.490373,61.4099857 217.522082,61.2274055 217.622497,61.0813979 C217.722911,60.9353903 217.882028,60.8405007 218.058174,60.8215814 C218.513841,60.8155035 218.702184,61.1315545 218.756864,61.544852 Z M215.293791,62.6996536 C215.119897,62.7147234 214.947337,62.6585369 214.815624,62.5439602 C214.683912,62.4293835 214.604329,62.266231 214.595101,62.0918633 C214.563416,61.929445 214.599302,61.7611244 214.694471,61.6257719 C214.78964,61.4904194 214.935863,61.3997387 215.099373,61.3746707 C215.476058,61.3138916 215.706929,61.5570078 215.822365,61.9520715 C215.81629,62.3349794 215.713005,62.675342 215.312017,62.6996536 L215.293791,62.6996536 Z" id="Shape" fill="#555560"></path>
                    <path d="M258.339183,41.992236 C262.027052,43.1105703 265.210649,45.0311879 267.452533,48.4348139 C269.919972,51.9820885 269.919972,56.6908281 267.452533,60.2381027 C265.204573,63.5809497 261.984523,65.4286324 258.339183,66.4497202 C258.339183,66.2430715 258.454618,66.1640587 258.570054,66.0485785 C260.582776,64.1625927 262.192769,61.8883002 263.302921,59.3628846 C264.642303,56.3402436 264.819698,52.9294825 263.801117,49.7841085 C262.920845,47.1845941 261.387297,44.8551318 259.347727,43.0194018 C259.013571,42.691195 258.545752,42.4784683 258.339183,41.992236 Z" id="Path" fill="#555560"></path>
                    <path d="M250.586759,41.0562389 C250.989783,41.474643 251.447584,41.8365269 251.947686,42.1320278 C254.839656,44.3383068 257.117994,47.0247402 258.217671,50.6836382 C259.378105,54.5613407 258.667263,58.1655376 256.814215,61.5752415 C255.724764,63.4921576 254.350135,65.2321109 252.73751,66.7353816 C252.342598,67.1182896 252.002366,66.9116409 251.637832,66.8569397 C251.280012,66.8699985 250.923583,66.8057336 250.592835,66.6685247 L251.346205,65.8480077 C254.049832,62.8880687 255.975787,59.5087543 256.206659,55.2785333 C256.351128,52.3855176 255.549162,49.5242142 253.922245,47.1280646 C252.466233,44.9206416 250.574446,43.0343318 248.363102,41.5850165 C248.290195,41.5424712 248.253742,41.4330689 248.199061,41.3540562 C248.974435,41.1301879 249.780175,41.029688 250.586759,41.0562389 L250.586759,41.0562389 Z" id="Path" fill="#87878E"></path>
                    <path d="M258.339183,41.992236 C258.545752,42.4784683 259.013571,42.691195 259.365953,43.0194018 C261.405523,44.8551318 262.939072,47.1845941 263.819344,49.7841085 C264.837925,52.9294825 264.66053,56.3402436 263.321148,59.3628846 C262.210996,61.8883002 260.601003,64.1625927 258.588281,66.0485785 C258.472845,66.1640587 258.333107,66.2430715 258.357409,66.4497202 C257.376417,66.7931722 256.355538,67.0096818 255.319626,67.093978 C255.802466,66.4724132 256.34363,65.8984766 256.935727,65.3800091 C259.536069,62.5902514 261.419495,59.3932741 261.832634,55.4183251 C262.157675,52.2829109 261.354136,49.1343252 259.566447,46.5385079 C258.251407,44.533826 256.559371,42.8039834 254.584482,41.4452247 C254.499424,41.3905236 254.456895,41.2689655 254.390064,41.1717191 C255.740701,41.2410721 257.072643,41.5178125 258.339183,41.992236 L258.339183,41.992236 Z" id="Path" fill="#87878E"></path>
                    <path d="M242.415122,74.4300076 C243.332532,76.9462597 244.298547,79.4442781 245.416452,81.8693616 C245.544039,82.1367894 245.465056,82.1793347 245.209882,82.2340359 C244.98115,82.314759 244.728932,82.294699 244.515823,82.1788343 C244.302714,82.0629695 244.14869,81.8621614 244.091978,81.6262455 C243.168492,79.3105642 242.159948,77.0313504 241.394426,74.6488121 L242.415122,74.4300076 Z" id="Path" fill="#424251"></path>
                    <path d="M236.29095,75.0134864 C236.29095,75.4693291 236.29095,75.919094 236.339555,76.3749368 C236.45499,78.4718135 236.588653,80.5626124 236.704089,82.6594891 C236.704089,83.0788645 236.977489,83.0241633 237.19621,82.9573064 C237.41493,82.8904494 237.852371,83.1517993 237.803766,82.5987101 C237.560744,80.0095231 237.41493,77.4081804 237.36025,74.8129155 L236.29095,75.0134864 Z M236.570426,75.4207059 L236.655484,75.4207059 C236.655484,75.4207059 236.655484,75.4207059 236.691938,75.4207059 L236.625106,75.4693291 L236.570426,75.4207059 Z" id="Shape" fill="#424251"></path>
                    <path d="M240.780794,72.9348433 L241.75896,72.5458575 L242.026285,73.3299071 C241.679978,73.3846082 241.303293,73.3846082 241.090648,73.7675161 L240.780794,72.9348433 Z" id="Path" fill="#5D5D69"></path>
                    <path d="M241.090648,73.7857498 C241.303293,73.4028419 241.698205,73.4028419 242.026285,73.3481408 L242.220704,73.8951521 C241.95617,74.1275155 241.612528,74.2493596 241.260764,74.2355147 L241.090648,73.7857498 Z" id="Path" fill="#424251"></path>
                    <polygon id="Path" fill="#5D5D69" points="237.36025 74.8129155 236.29095 75.0134864 236.321328 74.6001889 237.323797 74.3023716"></polygon>
                    <path d="M241.260764,74.2355147 C241.612528,74.2493596 241.95617,74.1275155 242.220704,73.8951521 C242.339079,74.0491229 242.406984,74.2359349 242.415122,74.4300076 L241.394426,74.6245005 C241.254688,74.5272541 241.272915,74.3753065 241.260764,74.2355147 Z" id="Path" fill="#5D5D69"></path>
                    <path d="M218.058174,60.8215814 C218.513841,60.8215814 218.702184,61.1315545 218.756864,61.544852 C218.802099,61.714318 218.771943,61.8950713 218.674147,62.0406567 C218.576351,62.1862422 218.420452,62.2824631 218.246516,62.3045899 C217.803,62.3532131 217.596431,61.9946168 217.535675,61.5813194 C217.490373,61.4099857 217.522082,61.2274055 217.622497,61.0813979 C217.722911,60.9353903 217.882028,60.8405007 218.058174,60.8215814 L218.058174,60.8215814 Z" id="Path" fill="#030304"></path>
                    <path d="M215.822365,61.9459936 C215.822365,62.3349794 215.713005,62.675342 215.293791,62.6996536 C215.119897,62.7147234 214.947337,62.6585369 214.815624,62.5439602 C214.683912,62.4293835 214.604329,62.266231 214.595101,62.0918633 C214.563416,61.929445 214.599302,61.7611244 214.694471,61.6257719 C214.78964,61.4904194 214.935863,61.3997387 215.099373,61.3746707 C215.476058,61.3078137 215.725156,61.5509299 215.822365,61.9459936 Z" id="Path" fill="#030304"></path>
                    <path d="M236.625106,75.475407 L236.570426,75.4207059 L236.655484,75.4207059 C236.655484,75.4207059 236.655484,75.4207059 236.691938,75.4207059 L236.625106,75.475407 Z" id="Path" fill="#5D5D69"></path>
                    <path d="M193.616168,14.6842151 C181.896399,43.9371652 211.788189,65.4833335 211.788189,65.4833335 C211.788189,65.4833335 199.029498,67.3735615 198.30043,71.8529765 C197.370868,77.5540501 150.102957,55.9531806 193.616168,14.6842151 Z" id="Path" fill="#61E296"></path>
                    <path d="M129.178705,53.8745376 C132.404831,56.3056991 134.944418,59.3446509 136.165607,63.4046905 C137.459702,67.7321578 136.669879,71.7435742 134.604186,75.5604977 C133.390402,77.7006929 131.858006,79.6435672 130.059662,81.3223503 C129.622221,81.7417257 129.23946,81.5168432 128.844549,81.4560642 C128.446392,81.4689601 128.05026,81.3942676 127.684115,81.2372597 C127.963591,80.9333645 128.243067,80.6294693 128.522543,80.3255741 C131.560327,77.0313504 133.686775,73.2630501 133.948025,68.5526748 C134.114184,65.3175242 133.220378,62.1165108 131.402362,59.4358194 C129.775915,56.9768666 127.665171,54.8756506 125.199208,53.2606693 C125.120226,53.2120461 125.083773,53.090488 125.023017,52.9993195 C124.80926,53.0634309 124.592261,53.1161798 124.372931,53.157345 C122.121441,53.5018863 119.958697,54.28226 118.005737,55.4547925 C114.6581,57.381488 112.057757,60.0253761 110.91555,64.000325 C110.775812,64.4865573 110.605696,64.18874 110.441656,64.0793378 C107.962825,62.4443817 105.326029,62.0310843 102.61025,63.1068732 C98.8677011,64.5959596 96.9842754,67.5802102 96.7959328,71.7800416 C96.7959328,72.1204042 96.7412527,72.1447159 96.4678522,71.9806125 C95.473602,71.4070425 94.3404757,71.1189201 93.1931216,71.1479397 C92.1663508,71.1479397 92.2028042,71.1479397 92.1602752,70.0660728 C91.9962349,65.7142938 91.1213533,61.5570078 88.6364464,57.946733 C88.0288897,57.1019044 87.421333,56.3239328 86.4067133,56.1233619 L85.3495646,56.2206084 C85.3495646,56.2206084 85.3495646,56.2631537 85.3191868,56.2692316 C84.152678,56.937801 83.8002951,57.8434087 84.3592472,58.7003931 C84.691794,59.1653933 85.2064119,59.4668774 85.7745024,59.5295074 C86.3425929,59.5921374 86.9104877,59.4099964 87.336275,59.0285999 C87.7129602,58.6821594 87.8101693,58.8584186 88.0045874,59.1683917 C89.9973734,62.3167457 90.732517,65.8540856 90.9451618,69.5008278 L90.9451618,69.5616068 C90.8965573,70.1693972 91.2671669,70.8805119 90.9451618,71.2877315 C90.6231568,71.694951 89.9305421,71.7192626 89.4141189,71.944145 C88.9917985,72.1221743 88.5853081,72.3356638 88.1990055,72.5823249 C87.9316806,72.7585841 87.8648494,72.6856493 87.7737159,72.4121436 C86.0847082,67.2580814 83.2474185,62.8090559 80.0152169,58.6092245 C79.0674284,57.3936438 76.8194686,57.7218506 76.0417961,59.2170149 L76.1086273,59.8916622 C76.8665829,60.9176373 78.2883582,61.1829959 79.3651312,60.4994525 C79.6871362,60.3171154 79.8329498,60.3657387 80.0455947,60.657478 C82.8546813,64.3173813 85.0785153,68.3915358 86.6375848,72.7342725 C86.8380785,73.3420629 86.8806075,73.7249708 86.3702599,74.1504241 C85.9179512,74.5811014 85.5528367,75.0949346 85.2948845,75.6638221 C83.9096553,78.3077101 84.8513682,81.1339353 87.5246176,82.2522696 C89.1832505,82.9364453 91.0311901,83.0075472 92.7374541,82.4528404 C94.7983168,81.8900046 96.5960358,80.6207915 97.816628,78.8668773 C97.8139274,79.0174158 97.8017522,79.1676347 97.7801746,79.3166421 C96.2435892,86.3261178 95.833408,93.5357728 96.5650612,100.674395 C96.5650612,100.929667 96.4739277,101.361199 96.9721242,101.233563 C97.3366583,101.136316 97.8834593,101.391588 97.7923258,100.552837 C97.1954417,95.1049028 97.2893447,89.6033383 98.0718019,84.178965 C98.3267802,82.353701 98.6817222,80.5438149 99.1350261,78.757475 C99.177555,79.0005911 99.1897062,79.0674481 99.1957817,79.134305 C99.6706548,84.5029441 100.607743,89.8205759 101.996618,95.028023 C102.427983,96.7055244 102.950482,98.3587141 103.442603,100.017982 C103.661323,100.765564 104.177747,100.236786 104.554432,100.267176 C104.821757,100.267176 104.706321,100.042293 104.657716,99.8964237 C103.42136,96.1547715 102.43295,92.3356429 101.698915,88.4638871 C101.121625,85.5801713 100.689714,82.6692286 100.40482,79.7420954 C100.408435,79.639954 100.420629,79.5382975 100.441273,79.4382002 L100.666069,79.5658362 C104.645565,82.0699325 108.28483,81.7903489 111.772205,78.7027739 C111.852776,78.6431711 111.938124,78.5903168 112.027379,78.5447484 C112.046516,78.6531279 112.056677,78.762903 112.057757,78.8729552 C111.98485,80.0277568 111.881566,81.1764806 111.826885,82.3312823 C111.71145,84.9083134 111.632467,87.4853446 111.76613,90.0623757 L112.884034,89.7341689 C112.811801,85.4062891 113.01473,81.0781935 113.491591,76.7760784 C114.469757,80.7814169 115.581586,84.5193276 116.760246,88.2329267 L117.847772,87.7953177 C116.632659,83.9236931 115.508679,80.0399127 114.475833,75.9859509 C114.791762,76.2716124 115.010483,76.4782611 115.241354,76.678832 C117.990507,79.04901 121.309384,80.6619552 124.871128,81.3588177 C125.144528,81.4195968 125.332871,81.4499863 125.363249,81.8511279 C125.642725,86.2332964 126.201677,90.5789975 126.900367,94.9064649 C127.052256,95.8485399 127.210221,96.790615 127.410715,97.7205343 C127.568679,98.4255711 128.085103,97.927183 128.425334,97.9940399 C128.765566,98.0608969 128.637979,97.7813133 128.613677,97.6050541 C128.236992,95.3319181 127.823853,93.0648601 127.489697,90.7917241 C127.058332,87.8804083 126.766705,84.9508588 126.505455,82.0213092 C126.475077,81.7113361 126.541909,81.6870245 126.833536,81.6748687 C127.47147,81.6748687 127.441093,82.2036463 127.580831,82.5743985 C129.568661,87.4590484 131.882596,92.204441 134.506977,96.7784592 C134.705833,97.3482789 135.307987,97.6706079 135.892206,97.5199634 C136.335723,97.4409507 136.25674,97.3497821 136.080549,97.039809 C135.211743,95.532489 134.349012,94.0008572 133.528811,92.4935371 C131.772972,89.1993134 130.138644,85.8078432 128.710886,82.3677497 C128.558997,81.9969976 128.552921,81.8572058 129.002513,81.8632837 C130.329243,81.9210499 131.658479,81.866152 132.975934,81.6991803 C133.519416,81.0047332 134.129917,80.3654966 134.798604,79.7907186 C137.69665,76.678832 139.79272,73.1050246 140.266614,68.6803108 C140.623741,65.1856937 139.725623,61.6780249 137.733103,58.7854837 C136.26821,56.5523903 134.384461,54.6245718 132.18611,53.1087218 C132.088901,53.0479427 132.040297,52.9081509 131.96739,52.8048266 C130.558235,52.6122264 129.132655,52.5694425 127.714493,52.6771906 C128.149136,53.1375567 128.641258,53.5399849 129.178705,53.8745376 L129.178705,53.8745376 Z M92.1845775,75.5118745 C92.2353179,75.7008973 92.201502,75.9026473 92.0919041,76.0647746 C91.9823062,76.2269019 91.8077299,76.3334249 91.6134742,76.3567031 C91.1152777,76.4174821 90.8965573,76.0163405 90.8236505,75.5604977 C90.7771079,75.3647784 90.8171232,75.1584874 90.9334616,74.9943871 C91.0498,74.8302869 91.2311788,74.7242923 91.4312072,74.7035133 C91.911177,74.7035133 92.1238218,75.0499538 92.1845775,75.5118745 L92.1845775,75.5118745 Z M88.332668,76.80039 C88.1390304,76.8171565 87.9469753,76.7538727 87.8012021,76.6252674 C87.655429,76.4966621 87.5686531,76.3139531 87.561071,76.1196648 C87.5140368,75.9376801 87.5487952,75.744222 87.6562332,75.5900126 C87.7636712,75.4358032 87.9330728,75.3362233 88.1200232,75.3173815 C88.5392373,75.2505246 88.8187134,75.5179524 88.921998,75.9616393 C88.9037713,76.3931705 88.7944111,76.7760784 88.332668,76.80039 Z" id="Shape" fill="#555560"></path>
                    <path d="M136.329647,53.7165121 C140.43673,54.9685603 143.984861,57.1383718 146.506222,60.9005942 C149.24575,64.8565007 149.24575,70.097271 146.506222,74.0531776 C144.003088,77.7789325 140.430655,79.8454197 136.323571,80.9759098 C136.293194,80.7510274 136.457234,80.6598588 136.584821,80.5322228 C138.826416,78.4303912 140.618405,75.8954156 141.852337,73.080713 C143.351245,69.7145951 143.550378,65.9122947 142.41129,62.4079143 C141.430771,59.5094068 139.72142,56.9119523 137.447551,54.8652359 C137.052639,54.5005617 136.536216,54.2635234 136.329647,53.7165121 Z" id="Path" fill="#555560"></path>
                    <path d="M127.659813,52.6771906 C128.110199,53.1477392 128.620944,53.5564922 129.178705,53.8927713 C132.404831,56.3239328 134.944418,59.3628846 136.165607,63.4229242 C137.459702,67.7503915 136.669879,71.7618079 134.604186,75.5787314 C133.390402,77.7189266 131.858006,79.6618009 130.059662,81.340584 C129.622221,81.7599594 129.23946,81.5350769 128.844549,81.4742979 C128.446392,81.4871938 128.05026,81.4125013 127.684115,81.2554934 C127.963591,80.9515982 128.243067,80.647703 128.522543,80.3438078 C131.560327,77.0495841 133.686775,73.2812838 133.948025,68.5709085 C134.114184,65.3357579 133.220378,62.1347446 131.402362,59.4540531 C129.775915,56.9951004 127.665171,54.8938843 125.199208,53.2789031 C125.120226,53.2302798 125.083773,53.1087218 125.023017,53.0175532 C125.878681,52.7665341 126.768481,52.6516772 127.659813,52.6771906 Z" id="Path" fill="#87878E"></path>
                    <path d="M136.329647,53.7165121 C136.560519,54.2635234 137.076942,54.5005617 137.471854,54.8652359 C139.734633,56.9155252 141.433315,59.5126624 142.405214,62.4079143 C143.544302,65.9122947 143.34517,69.7145951 141.846262,73.080713 C140.61233,75.8954156 138.82034,78.4303912 136.578745,80.5322228 C136.451158,80.6598588 136.287118,80.7510274 136.317496,80.9759098 C135.234906,81.3587633 134.107895,81.6018174 132.963783,81.6991803 C133.507265,81.0047332 134.117766,80.3654966 134.786453,79.7907186 C137.684498,76.678832 139.780569,73.1050246 140.254463,68.6803108 C140.61159,65.1856937 139.713472,61.6780249 137.720952,58.7854837 C136.256059,56.5523903 134.37231,54.6245718 132.173959,53.1087218 C132.07675,53.0479427 132.028146,52.9081509 131.955239,52.8048266 C133.451045,52.8858751 134.925931,53.1932612 136.329647,53.7165121 L136.329647,53.7165121 Z" id="Path" fill="#87878E"></path>
                    <path d="M118.558614,89.8739607 C119.579309,92.6819522 120.654684,95.465632 121.906251,98.1702991 C122.039914,98.4681164 121.954856,98.5167396 121.669304,98.5714408 C121.410576,98.6631848 121.124796,98.6382076 120.885891,98.5029703 C120.646986,98.367733 120.478425,98.1355208 120.423813,97.8664039 C119.390966,95.2893728 118.273062,92.7488091 117.416407,90.0927652 L118.558614,89.8739607 Z" id="Path" fill="#424251"></path>
                    <path d="M111.729676,90.5607638 C111.729676,91.0652298 111.729676,91.5696958 111.778281,92.0741618 C111.911943,94.4080768 112.063833,96.7419918 112.185344,99.0819847 C112.215722,99.5499832 112.495198,99.4892042 112.73822,99.4101915 C112.981243,99.3311787 113.473364,99.628996 113.412608,99.0090498 C113.139208,96.1220456 112.981243,93.2289635 112.920488,90.3298035 L111.729676,90.5607638 Z M112.03953,91.0105287 C112.071841,91.0070611 112.104429,91.0070611 112.136739,91.0105287 C112.136739,91.0105287 112.136739,91.0105287 112.173193,91.0409182 L112.100286,91.0956193 L112.03953,91.0105287 Z" id="Shape" fill="#424251"></path>
                    <path d="M116.735944,88.2329267 L117.82347,87.7953177 L118.127248,88.6705358 C117.732337,88.7373927 117.319198,88.7313148 117.082251,89.1567681 L116.735944,88.2329267 Z" id="Path" fill="#5D5D69"></path>
                    <path d="M117.082251,89.1567681 C117.319198,88.7313148 117.732337,88.7373927 118.127248,88.6705358 C118.19408,88.8771845 118.266986,89.0777553 118.333818,89.2783261 C118.042891,89.539184 117.660792,89.6746085 117.270593,89.6551562 L117.082251,89.1567681 Z" id="Path" fill="#424251"></path>
                    <polygon id="Path" fill="#5D5D69" points="112.920488 90.2994139 111.705374 90.5303743 111.735752 90.0623757 112.853656 89.7341689"></polygon>
                    <path d="M117.270593,89.6551562 C117.660792,89.6746085 118.042891,89.539184 118.333818,89.2783261 C118.470483,89.4523973 118.549108,89.6649782 118.558614,89.8861165 L117.416407,90.104921 C117.264518,89.983363 117.282745,89.8131817 117.270593,89.6551562 Z" id="Path" fill="#5D5D69"></path>
                    <path d="M91.4069049,74.7035133 C91.911177,74.7035133 92.1238218,75.0499538 92.1845775,75.5118745 C92.2353179,75.7008973 92.201502,75.9026473 92.0919041,76.0647746 C91.9823062,76.2269019 91.8077299,76.3334249 91.6134742,76.3567031 C91.1152777,76.4174821 90.8965573,76.0163405 90.8236505,75.5604977 C90.7771408,75.368509 90.8140136,75.1657972 90.9251481,75.0025058 C91.0362825,74.8392143 91.211299,74.7305939 91.4069049,74.7035133 L91.4069049,74.7035133 Z" id="Path" fill="#030304"></path>
                    <path d="M88.9402247,75.9737951 C88.9402247,76.4053263 88.8247889,76.7882342 88.332668,76.8125458 C88.1390304,76.8293123 87.9469753,76.7660285 87.8012021,76.6374232 C87.655429,76.5088179 87.5686531,76.3261089 87.561071,76.1318206 C87.5140368,75.9498359 87.5487952,75.7563778 87.6562332,75.6021684 C87.7636712,75.447959 87.9330728,75.3483791 88.1200232,75.3295374 C88.5270862,75.2505246 88.8065622,75.5179524 88.9402247,75.9737951 Z" id="Path" fill="#030304"></path>
                    <path d="M112.100286,91.0409182 L112.03953,90.9801391 C112.071841,90.9766716 112.104429,90.9766716 112.136739,90.9801391 C112.136739,90.9801391 112.136739,90.9801391 112.173193,91.0105287 L112.100286,91.0409182 Z" id="Path" fill="#5D5D69"></path>
                    <path d="M45.414863,23.7038241 C58.112798,45.4566411 64.4617654,43.4144655 79.3651312,47.231389 C64.0243246,74.3753065 80.7807383,74.4725529 83.1016049,79.7907186 C86.0543304,86.5858148 31.9028021,90.7795683 45.414863,23.7038241 Z" id="Path" fill="#61E296"></path>
                    <path d="M69.911549,152.421667 C65.9138259,155.187113 62.7180777,158.615051 61.0655235,163.361893 C59.3218358,168.412631 60.1055839,173.195941 62.4264505,177.778681 C63.8064901,180.37563 65.5768735,182.745249 67.6757404,184.804737 C68.1800124,185.327437 68.6539066,185.072165 69.1460276,185.017464 C69.6248766,185.054428 70.1060058,184.985966 70.5555591,184.816893 C70.233554,184.446141 69.9054734,184.075389 69.5834684,183.698559 C66.0900174,179.674987 63.6597906,175.122637 63.5504304,169.543121 C63.4976302,165.712177 64.715475,161.971742 67.0135036,158.90679 C69.0914076,156.0624 71.7272036,153.671692 74.7598514,151.880733 C74.8570605,151.819954 74.9117406,151.680163 74.9846474,151.576838 C75.2458968,151.649773 75.5010706,151.740942 75.76232,151.789565 C78.4576715,152.292045 81.0316294,153.307168 83.3446275,154.779893 C87.2998216,157.211055 90.3193784,160.450577 91.5284162,165.19742 C91.6742298,165.774821 91.8929503,165.434458 92.093444,165.3129 C95.1312274,163.489529 98.3573535,163.112699 101.58348,164.504539 C106.030795,166.425157 108.17547,170.035431 108.217999,175.013234 C108.217999,175.414376 108.272679,175.444766 108.612911,175.262429 C109.838759,174.626346 111.213974,174.334395 112.592407,174.4176 C113.80752,174.478379 113.80752,174.496613 113.886503,173.202019 C114.275339,168.066191 115.508679,163.209946 118.661898,159.028348 C119.397042,158.055883 120.174714,157.156354 121.432357,156.931471 L122.708226,157.095575 C122.704827,157.115692 122.704827,157.136237 122.708226,157.156354 C124.08738,157.995104 124.476216,159.076971 123.759299,160.085903 C123.33758,160.630883 122.70446,160.971196 122.017421,161.022194 C121.330381,161.073191 120.653989,160.83008 120.156488,160.353331 C119.719047,159.9218 119.597536,160.122371 119.342362,160.487045 C116.80885,164.133787 115.769928,168.254606 115.350714,172.606385 L115.350714,172.673242 C115.381092,173.3722 114.901122,174.223107 115.296034,174.721495 C115.690946,175.219883 116.511148,175.274584 117.118704,175.566324 C117.626098,175.789036 118.112131,176.057576 118.570765,176.368607 C118.886694,176.593489 118.971752,176.508399 119.093264,176.18627 C121.353374,170.163067 124.968337,165.033317 129.051118,160.213539 C130.266231,158.79131 132.945556,159.295776 133.814362,161.088757 L133.705002,161.884963 C132.724481,163.054969 131.017301,163.291438 129.755884,162.431974 C129.373123,162.201014 129.190856,162.249637 128.923531,162.583922 C125.490836,166.838454 122.446976,171.378648 120.454191,176.5631 C120.186866,177.262059 120.113959,177.723979 120.71544,178.252757 C121.235015,178.775827 121.647742,179.395155 121.930553,180.076128 C123.479823,183.26095 122.222181,186.53694 118.94745,187.764676 C116.915828,188.500047 114.69086,188.500047 112.659238,187.764676 C110.209423,187.019882 108.095501,185.444576 106.68088,183.309573 C106.68088,183.595234 106.68088,183.72287 106.711258,183.838351 C108.25458,192.19048 108.431046,200.737987 107.233757,209.146741 C107.191228,209.444558 107.318815,209.96118 106.717334,209.784921 C106.285968,209.657285 105.61158,209.930791 105.757394,208.940092 C106.715639,202.528396 106.84021,196.019583 106.128004,189.575892 C105.900778,187.404425 105.551897,185.247429 105.083006,183.11508 C105.02225,183.406819 105.004024,183.485832 104.991873,183.564845 C104.186937,189.893818 102.82684,196.139655 100.927318,202.230087 C100.319762,204.19325 99.6332226,206.126023 98.9709858,208.064874 C98.673283,208.940092 98.0718019,208.289757 97.6222099,208.314068 C97.2941293,208.314068 97.4399429,208.034485 97.5067741,207.870381 C99.1514414,203.509382 100.499245,199.042048 101.540951,194.498993 C102.377206,191.123726 103.038302,187.707428 103.521585,184.263804 C103.52661,184.141456 103.516406,184.018958 103.491208,183.89913 L103.217807,184.038921 C98.308749,186.828679 93.9282652,186.336369 89.8515598,182.537679 C89.7576951,182.4585 89.6558937,182.389249 89.5477814,182.33103 C89.5200106,182.458982 89.5037442,182.589163 89.4991769,182.720016 C89.5356303,184.087545 89.6146126,185.455073 89.6267638,186.822601 C89.6267638,189.861553 89.6267638,192.900505 89.3655144,195.939457 L88.0288897,195.501848 C88.3133235,190.390562 88.2646158,185.266169 87.8830761,180.161219 C86.5282246,184.847283 85.0275596,189.217295 83.4479122,193.532607 L82.1477409,192.967362 C83.7699172,188.445401 85.3070357,183.89913 86.7226428,179.152287 C86.3338065,179.480494 86.060406,179.717532 85.7748543,179.942414 C82.3385809,182.630761 78.2695237,184.39086 73.9578766,185.053931 C73.6237204,185.11471 73.3928489,185.139022 73.3503199,185.613098 C72.8217456,190.779316 71.9590151,195.890833 70.9200931,200.978039 C70.6952971,202.084217 70.4705012,203.196474 70.1849495,204.284418 C69.9662291,205.111013 69.364748,204.503223 68.9698361,204.564002 C68.5749243,204.624781 68.7207379,204.302652 68.7632668,204.089925 C69.3100679,201.421726 69.9054734,198.765682 70.4097455,196.085326 C71.0537556,192.669544 71.5337254,189.217295 71.9772418,185.75289 C72.0258463,185.388216 71.9772418,185.351749 71.594481,185.333515 C70.822884,185.284892 70.8471863,185.941305 70.6527682,186.360681 C68.0363793,192.056585 65.0320304,197.565999 61.6609291,202.850033 C61.3856707,203.516921 60.6515981,203.868362 59.9597703,203.664472 C59.431196,203.55507 59.5284051,203.445668 59.7592766,203.087071 C60.8650298,201.342713 61.9768585,199.604432 63.0279316,197.823607 C65.3074312,194.010579 67.3939811,190.085383 69.27969,186.062863 C69.4801837,185.63741 69.4923349,185.455073 68.9516094,185.455073 C67.3482078,185.465547 65.7467507,185.341529 64.1640627,185.084321 C63.5387033,184.24344 62.8370318,183.462149 62.0679921,182.750406 C58.7082035,178.951716 56.3326568,174.64856 55.9620473,169.379018 C55.6854489,165.223599 56.9220907,161.108511 59.4433471,157.794534 C61.3163594,155.210371 63.6726396,153.014183 66.3816446,151.327644 C66.4970804,151.254709 66.5639116,151.096684 66.6550451,150.975126 C68.3729171,150.804899 70.1039783,150.817123 71.819277,151.011593 C71.2506478,151.56648 70.608783,152.040907 69.911549,152.421667 L69.911549,152.421667 Z M113.594875,179.614208 C113.526938,179.837623 113.559679,180.079564 113.684551,180.276867 C113.809423,180.474171 114.014031,180.607254 114.244961,180.641373 C114.852518,180.732542 115.131994,180.264543 115.235279,179.729688 C115.294906,179.504095 115.257175,179.263825 115.131274,179.06739 C115.005373,178.870955 114.802855,178.736382 114.573042,178.696444 C113.959409,178.690366 113.692085,179.079352 113.594875,179.614208 L113.594875,179.614208 Z M118.200155,181.309943 C118.431167,181.338944 118.66409,181.273309 118.846006,181.127949 C119.027923,180.982589 119.143388,180.769845 119.16617,180.538049 C119.224007,180.320901 119.185924,180.089366 119.061586,179.902206 C118.937248,179.715046 118.738609,179.590255 118.516085,179.559506 C118.286387,179.519477 118.050333,179.575529 117.86312,179.714557 C117.675907,179.853584 117.553951,180.063396 117.525767,180.294933 C117.495389,180.805477 117.635127,181.255241 118.200155,181.309943 Z" id="Shape" fill="#424251"></path>
                    <path d="M61.3206973,151.94759 C56.3083546,153.242184 51.9339464,155.655111 48.7321226,159.994735 C45.2371234,164.51764 44.9931859,170.759962 48.1245659,175.542012 C50.9861579,180.057894 55.1904503,182.653159 60.1055839,184.172635 C60.1481129,183.911285 59.9597703,183.789727 59.8078811,183.631702 C57.2865209,180.987814 55.0993168,178.106887 53.7748432,174.593859 C52.2012713,170.418339 51.9521731,166.21243 53.5621983,161.95182 C54.882888,158.555788 57.0596572,155.559485 59.8807879,153.25434 C60.38506,152.81673 60.9926167,152.555381 61.3206973,151.94759 Z" id="Path" fill="#424251"></path>
                    <path d="M71.7888992,151.072356 C71.2258492,151.603616 70.5945021,152.057379 69.911549,152.421667 C65.9138259,155.187113 62.7180777,158.615051 61.0655235,163.361893 C59.3218358,168.412631 60.1055839,173.195941 62.4264505,177.778681 C63.8064901,180.37563 65.5768735,182.745249 67.6757404,184.804737 C68.1800124,185.327437 68.6539066,185.072165 69.1460276,185.017464 C69.6248766,185.054428 70.1060058,184.985966 70.5555591,184.816893 C70.233554,184.446141 69.9054734,184.075389 69.5834684,183.698559 C66.0900174,179.674987 63.6597906,175.122637 63.5504304,169.543121 C63.4976302,165.712177 64.715475,161.971742 67.0135036,158.90679 C69.0914076,156.0624 71.7272036,153.671692 74.7598514,151.880733 C74.8570605,151.819954 74.9117406,151.680163 74.9846474,151.576838 C73.952764,151.240693 72.8741116,151.070422 71.7888992,151.072356 L71.7888992,151.072356 Z" id="Path" fill="#5D5D69"></path>
                    <path d="M61.3206973,151.94759 C61.016919,152.555381 60.38506,152.841042 59.8929391,153.25434 C57.0718084,155.559485 54.8950392,158.555788 53.5743494,161.95182 C51.9703998,166.206352 52.2134224,170.418339 53.7869943,174.593859 C55.1114679,178.106887 57.298672,180.987814 59.8200323,183.631702 C59.9719215,183.789727 60.160264,183.911285 60.1177351,184.172635 C61.4087455,184.673821 62.7582159,185.008766 64.1336848,185.169411 C63.5083254,184.328531 62.806654,183.54724 62.0376142,182.835496 C58.6778257,179.036807 56.302279,174.733651 55.9316694,169.464108 C55.6550711,165.30869 56.8917129,161.193601 59.4129693,157.879624 C61.2859816,155.295462 63.6422617,153.099274 66.3512668,151.412735 C66.4667025,151.3398 66.5335338,151.181774 66.6246673,151.060216 C64.8224696,151.091222 63.0349111,151.390287 61.3206973,151.94759 L61.3206973,151.94759 Z" id="Path" fill="#5D5D69"></path>
                    <path d="M81.163499,195.447146 C79.8268743,198.747448 78.3930405,201.962659 76.7890908,205.104935 C76.6068238,205.451376 76.7101084,205.512155 77.0503402,205.591168 C77.3557634,205.71132 77.6979825,205.694994 77.9905901,205.546311 C78.2831978,205.397628 78.4982264,205.130799 78.581383,204.813196 C79.9362345,201.774244 81.4004461,198.850772 82.5487283,195.751042 L81.163499,195.447146 Z" id="Path" fill="#424251"></path>
                    <path d="M89.37159,196.516857 C89.329061,197.124648 89.2986832,197.732438 89.2440031,198.303761 C88.9827537,201.057051 88.7032776,203.810342 88.4481038,206.56971 C88.3994993,207.122799 88.0592675,207.037709 87.7737159,206.934384 C87.4881642,206.83106 86.8745319,207.165345 86.971741,206.435996 C87.4274085,203.03237 87.743338,199.616588 87.9438317,196.194729 L89.37159,196.516857 Z M88.9766781,197.039557 C88.9405001,197.02105 88.9014837,197.008724 88.8612423,197.00309 C88.8612423,197.00309 88.8308645,197.00309 88.8126378,197.033479 L88.9037713,197.106414 L88.9766781,197.039557 Z" id="Shape" fill="#424251"></path>
                    <path d="M83.435761,193.58123 L82.1355897,193.015985 L81.7346023,194.043151 C82.202421,194.134319 82.706693,194.152553 82.9497157,194.650941 L83.435761,193.58123 Z" id="Path" fill="#5D5D69"></path>
                    <path d="M82.974018,194.657019 C82.706693,194.152553 82.202421,194.134319 81.7589046,194.049229 C81.6677711,194.286267 81.5766376,194.523305 81.4794285,194.760343 C81.8264631,195.076474 82.2798797,195.250097 82.749222,195.246576 L82.974018,194.657019 Z" id="Path" fill="#424251"></path>
                    <polygon id="Path" fill="#5D5D69" points="87.9438317 196.194729 89.37159 196.516857 89.37159 195.963768 88.0349652 195.526159"></polygon>
                    <path d="M82.7249197,195.240498 C82.2555775,195.244019 81.8021609,195.070396 81.4551262,194.754265 C81.2871726,194.948596 81.1850793,195.191161 81.163499,195.447146 L82.5305016,195.751042 C82.7188441,195.629484 82.7006174,195.428913 82.7249197,195.240498 Z" id="Path" fill="#5D5D69"></path>
                    <path d="M114.573042,178.690366 C113.965485,178.690366 113.692085,179.073274 113.594875,179.60813 C113.526938,179.831545 113.559679,180.073486 113.684551,180.270789 C113.809423,180.468093 114.014031,180.601176 114.244961,180.635295 C114.852518,180.726464 115.131994,180.258465 115.235279,179.72361 C115.294906,179.498018 115.257175,179.257747 115.131274,179.061312 C115.005373,178.864877 114.802855,178.730304 114.573042,178.690366 Z" id="Path" fill="#030304"></path>
                    <path d="M117.525767,180.294933 C117.525767,180.805477 117.635127,181.255241 118.200155,181.309943 C118.431167,181.338944 118.66409,181.273309 118.846006,181.127949 C119.027923,180.982589 119.143388,180.769845 119.16617,180.538049 C119.224007,180.320901 119.185924,180.089366 119.061586,179.902206 C118.937248,179.715046 118.738609,179.590255 118.516085,179.559506 C118.286387,179.519477 118.050333,179.575529 117.86312,179.714557 C117.675907,179.853584 117.553951,180.063396 117.525767,180.294933 Z" id="Path" fill="#030304"></path>
                    <path d="M88.9037713,197.106414 L88.9766781,197.039557 C88.9405001,197.02105 88.9014837,197.008724 88.8612423,197.00309 C88.8612423,197.00309 88.8308645,197.00309 88.8126378,197.033479 L88.9037713,197.106414 Z" id="Path" fill="#5D5D69"></path>
                    <path d="M118.904921,186.184421 C138.729496,166.698662 134.385466,160.389798 133.692851,143.286578 C168.694192,152.634393 154.282947,118.124057 154.282947,118.124057 C154.282947,118.124057 167.041638,127.593431 172.169416,123.679261 C178.670273,118.689302 197.34049,182.944899 118.904921,186.184421 Z" id="Path" fill="#2EBF8B"></path>
                    <path d="M182.86849,165.444516 C177.892601,169.091258 174.513683,173.067182 172.587729,179.187631 C170.552414,185.672754 171.32529,190.426798 174.442056,196.164339 C176.285128,199.4044 178.495161,201.630777 181.230179,204.16286 C181.892416,204.807118 182.017911,205.937608 182.643694,205.852517 C183.269477,205.767427 183.858807,205.882907 184.429911,205.542544 L182.424974,204.16286 C177.83792,199.166823 174.143976,193.477906 173.797668,186.384992 C173.590649,181.520308 175.413893,176.110237 178.220681,172.132308 C180.757899,168.43736 183.262323,165.763455 187.057549,163.380127 C187.17906,163.301114 188.76179,163.270725 188.858999,163.143089 C189.18708,163.222101 189.51516,163.331504 189.849316,163.380127 C193.285697,163.923883 196.585745,165.122673 199.570223,166.911389 C204.685851,169.847016 208.641045,173.852355 210.348279,179.845168 C210.554849,180.574516 210.816098,180.130829 211.071272,179.972804 C214.892803,177.541642 218.969509,176.933852 223.100894,178.599198 C228.824078,180.878411 231.679595,185.388216 231.916542,191.715314 C231.916542,192.225857 232.0016,192.256247 232.42689,192.019209 C233.963142,191.166719 235.70161,190.746638 237.457459,190.803628 C239.031031,190.834018 238.970275,190.858329 239.049258,189.192984 C239.365187,182.647081 240.756492,176.429386 244.608401,171.007896 C245.507585,169.743692 246.467525,168.576735 248.053248,168.24245 L249.675424,168.406553 C249.675424,168.406553 249.675424,168.467332 249.711878,168.479488 C251.498094,169.494498 252.032744,170.855948 251.157863,172.168776 C250.635035,172.867477 249.843878,173.315527 248.975973,173.404429 C248.108068,173.493331 247.24256,173.214978 246.589036,172.636774 C246.017933,172.107997 245.866044,172.363268 245.55619,172.837345 C242.469802,177.54772 241.303293,182.841574 240.926608,188.384622 L240.926608,188.469713 C240.993439,189.357087 240.41626,190.45111 240.926608,191.071056 C241.436955,191.691002 242.475877,191.733547 243.265701,192.079988 C243.917098,192.349677 244.545031,192.672913 245.143051,193.046374 C245.550114,193.31988 245.659474,193.216556 245.799212,192.79718 C248.454235,185.060009 252.852946,178.404705 257.871364,172.132308 C259.341651,170.308937 262.786498,170.831637 263.946931,173.074383 L263.843646,174.083315 C262.640627,175.61137 260.474902,175.976845 258.837379,174.928144 C258.351334,174.64856 258.120462,174.715417 257.792382,175.153026 C253.582014,180.714308 249.894145,186.561251 247.530749,193.240867 C247.220895,194.134319 247.141913,194.729954 247.931736,195.380289 C248.620112,196.02693 249.173528,196.803663 249.559988,197.665581 C251.649983,201.658764 250.167545,205.870751 246.054386,207.548253 C243.498967,208.560265 240.669782,208.644141 238.05894,207.785291 C234.91623,206.922078 232.173959,204.987131 230.306517,202.315177 C230.306517,202.673774 230.306517,202.837877 230.355121,202.989825 C232.724592,213.583611 233.052673,224.311111 231.940844,235.129779 C231.904391,235.512687 232.080582,236.163023 231.333288,235.956374 C230.786487,235.810504 229.935907,236.187334 230.118174,234.92313 C231.102967,226.738136 231.023321,218.45998 229.881227,210.295465 C229.509779,207.546161 228.988529,204.8192 228.319806,202.126762 C228.252975,202.497515 228.228673,202.600839 228.216522,202.734553 C227.426902,210.807017 225.926489,218.793993 223.732753,226.60248 C223.046214,229.118732 222.232088,231.598517 221.460491,234.090458 C221.108108,235.21487 220.32436,234.406509 219.747181,234.449054 C219.334043,234.485521 219.51631,234.108691 219.589217,233.895965 C221.518112,228.291017 223.06884,222.562892 224.23095,216.750199 C225.154515,212.42351 225.852125,208.051624 226.320945,203.652316 C226.323785,203.496572 226.305389,203.341168 226.266265,203.190396 C226.150829,203.251175 226.035393,203.311954 225.926033,203.378811 C219.78971,207.104566 214.206264,206.636567 208.914445,201.956581 C208.788811,201.864357 208.656848,201.781087 208.519534,201.707387 C208.489319,201.87198 208.471045,202.038544 208.464854,202.205775 C208.568138,203.937978 208.713952,205.67018 208.780783,207.408461 C208.926597,211.286163 209.01773,215.157788 208.780783,219.041568 L207.067473,218.524946 C207.110002,212.130992 207.134304,205.761349 206.320178,199.039187 C204.776984,205.044156 203.021146,210.647983 201.174173,216.227499 L199.503392,215.552852 C201.398969,209.748454 203.185186,203.913666 204.819513,197.829685 C204.333468,198.261216 203.987161,198.571189 203.6044,198.869006 C199.254294,202.564372 194.2298,204.679482 188.773941,205.797816 C188.354727,205.882907 188.0631,205.925452 188.014495,206.533243 C187.534525,213.109534 186.62319,219.643281 185.493135,226.146638 C185.250112,227.556711 185.001014,228.972863 184.679009,230.370781 C184.435986,231.428336 183.646162,230.674676 183.117588,230.771922 C182.589014,230.869169 182.795583,230.443715 182.844188,230.164132 C183.451744,226.754428 184.10183,223.350802 184.666858,219.928942 C185.365548,215.558929 185.845518,211.158527 186.289034,206.752047 C186.331563,206.290126 186.234354,206.247581 185.784762,206.229347 C184.80052,206.198958 184.8552,207.013397 184.630404,207.572564 C181.592621,214.987607 177.771089,221.952884 173.797668,228.845227 C173.250867,229.787302 172.697991,230.127664 171.665144,229.945327 C170.984681,229.817691 171.112268,229.6779 171.385668,229.215979 C172.728369,226.961077 174.077145,224.706174 175.353014,222.408727 C178.110325,217.472579 180.61863,212.401299 182.86849,207.213968 C183.105437,206.666956 183.111513,206.448152 182.424974,206.460308 C180.394889,206.524885 178.362926,206.423248 176.349407,206.156413 C175.620339,205.007689 173.505139,204.618703 172.587729,203.652316 C168.176867,198.941941 164.948539,193.064608 164.292377,186.384992 C163.786535,181.112911 165.126039,175.313272 168.209436,171.007896 C170.49632,167.654824 174.564847,165.415641 177.947281,163.173478 C178.082745,163.043059 178.195661,162.891077 178.281437,162.723713 C180.459014,162.439279 182.660732,162.388341 184.849125,162.571766 C184.150435,163.404439 183.658314,164.861037 182.86849,165.444516 Z M238.945973,197.367764 C238.870015,197.654917 238.922036,197.960904 239.088616,198.206792 C239.255196,198.452679 239.520023,198.614387 239.814779,198.650202 C240.574225,198.74137 240.920532,198.139658 241.029892,197.434621 C241.101651,197.14613 241.047234,196.840719 240.880257,196.594797 C240.71328,196.348875 240.449537,196.185704 240.155011,196.146105 C239.383414,196.152183 239.055333,196.674883 238.952049,197.367764 L238.945973,197.367764 Z M244.8575,199.349161 C245.154662,199.383053 245.452735,199.293713 245.682312,199.101942 C245.91189,198.910172 246.052937,198.632705 246.072613,198.334151 C246.140917,198.058076 246.086555,197.76594 245.923522,197.532946 C245.76049,197.299953 245.504712,197.148862 245.222034,197.11857 C244.578024,197.015246 244.146658,197.416387 244.00692,198.084957 C243.976542,198.747448 244.140583,199.306615 244.863575,199.355238 L244.8575,199.349161 Z" id="Shape" fill="#424251"></path>
                    <path d="M171.513255,164.103397 C165.18859,165.926769 159.72058,169.160213 155.807915,174.788352 C151.534423,180.669528 151.456375,188.613942 155.613497,194.578006 C159.410726,200.206145 164.854434,203.354499 171.154797,205.104935 C171.203401,204.764573 171.355291,203.501741 171.154797,203.307248 C167.849688,200.037336 165.126896,196.773651 163.316377,192.355015 C161.159551,187.109785 160.945788,183.125594 162.829214,177.655481 C164.380326,173.281167 167.084857,170.136437 170.591198,167.09694 C171.198755,166.549929 171.148721,164.893525 171.513255,164.103397 Z" id="Path" fill="#424251"></path>
                    <path d="M184.788369,162.608233 C184.150435,163.404439 183.233024,163.823814 182.4432,164.401215 C177.467311,168.047957 173.530343,172.53345 171.604389,178.653899 C169.569074,185.139022 170.741658,191.186536 173.858424,196.924077 C175.701496,200.164138 178.031325,203.10163 180.766344,205.633713 C181.428581,206.277971 182.017911,205.937608 182.643694,205.852517 C183.269477,205.767427 183.858807,205.882907 184.429911,205.542544 L183.154042,204.16286 C178.566988,199.166823 175.31656,193.477906 174.970253,186.384992 C174.763234,181.520308 176.173339,176.724106 178.980127,172.746176 C181.517345,169.051228 184.784297,165.915403 188.579523,163.532075 C188.701034,163.453062 188.76179,163.270725 188.858999,163.143089 C187.537753,162.756153 186.164683,162.57574 184.788369,162.608233 Z" id="Path" fill="#5D5D69"></path>
                    <path d="M171.513255,164.103397 C171.148721,164.923914 170.352822,165.276433 169.745265,165.823444 C166.243234,168.854486 163.585045,172.740703 162.029295,177.104033 C160.145869,182.574147 160.607613,187.916624 162.764439,193.161855 C164.587109,197.580491 167.454777,201.160376 170.759885,204.430288 C170.960379,204.624781 171.203401,204.764573 171.154797,205.104935 C172.812578,205.691094 174.537339,206.066807 176.288651,206.22327 C175.559583,205.074546 174.465981,204.302652 173.54857,203.336265 C169.137709,198.62589 165.960187,193.246945 165.304026,186.567329 C164.798183,181.295248 166.218351,176.018309 169.301749,171.712933 C171.588632,168.359861 174.504092,165.482498 177.886525,163.240335 C178.021989,163.109916 178.134905,162.957934 178.220681,162.79057 C175.931452,162.887004 173.670013,163.329629 171.513255,164.103397 Z" id="Path" fill="#5D5D69"></path>
                    <path d="M198.30043,218.664738 C196.69648,222.870648 195.019624,227.046167 193.063291,231.100129 C192.850646,231.549894 192.984309,231.616751 193.415674,231.707919 C194.363463,231.902412 194.916339,231.665374 195.335553,230.66252 C196.951654,226.796973 198.707493,222.986128 200.050193,219.005101 L198.30043,218.664738 Z" id="Path" fill="#424251"></path>
                    <path d="M208.780783,219.728371 C208.750405,220.482031 208.738254,221.241769 208.683574,222.001507 C208.452702,225.514536 208.197529,229.021486 207.972733,232.534514 C207.930204,233.239551 207.498838,233.142305 207.134304,233.020747 C206.76977,232.899188 205.998173,233.348953 206.095382,232.412956 C206.544974,228.073333 206.830526,223.72358 206.952037,219.363697 L208.780783,219.728371 Z M208.300813,220.403019 C208.254001,220.383289 208.205074,220.369014 208.155,220.360473 C208.155,220.360473 208.112471,220.390863 208.094244,220.403019 L208.20968,220.494187 L208.300813,220.403019 Z" id="Shape" fill="#424251"></path>
                    <path d="M201.131644,216.215343 L199.460863,215.540696 L198.993045,216.859601 C199.600601,216.956847 200.208158,216.962925 200.584843,217.595027 L201.131644,216.215343 Z" id="Path" fill="#5D5D69"></path>
                    <path d="M200.584843,217.588949 C200.226385,216.981159 199.58845,216.950769 198.993045,216.853523 C198.877609,217.157418 198.768249,217.461313 198.658888,217.765208 C199.110287,218.158854 199.694817,218.365366 200.293216,218.342609 L200.584843,217.588949 Z" id="Path" fill="#424251"></path>
                    <polygon id="Path" fill="#5D5D69" points="206.952037 219.369775 208.774707 219.728371 208.732178 219.029412 207.018869 218.512791"></polygon>
                    <path d="M200.293216,218.348687 C199.694817,218.371444 199.110287,218.164932 198.658888,217.771286 C198.45127,218.0246 198.329941,218.337622 198.312581,218.664738 L200.062344,219.005101 C200.299292,218.847075 200.268914,218.585725 200.293216,218.348687 Z" id="Path" fill="#5D5D69"></path>
                    <path d="M240.161086,196.164339 C239.383414,196.164339 239.055333,196.674883 238.945973,197.37992 C238.870015,197.667073 238.922036,197.97306 239.088616,198.218947 C239.255196,198.464835 239.520023,198.626543 239.814779,198.662357 C240.574225,198.753526 240.920532,198.151814 241.029892,197.446777 C241.099691,197.160065 241.04511,196.857198 240.879621,196.612921 C240.714132,196.368644 240.453151,196.205713 240.161086,196.164339 L240.161086,196.164339 Z" id="Path" fill="#030304"></path>
                    <path d="M243.970467,198.084957 C243.970467,198.735292 244.140583,199.300537 244.863575,199.349161 C245.160738,199.383053 245.45881,199.293713 245.688388,199.101942 C245.917965,198.910172 246.059013,198.632705 246.078689,198.334151 C246.146992,198.058076 246.092631,197.76594 245.929598,197.532946 C245.766565,197.299953 245.510788,197.148862 245.228109,197.11857 C244.565872,197.015246 244.134507,197.416387 243.970467,198.084957 Z" id="Path" fill="#030304"></path>
                    <path d="M208.20968,220.494187 L208.300813,220.403019 C208.254001,220.383289 208.205074,220.369014 208.155,220.360473 C208.155,220.360473 208.112471,220.390863 208.094244,220.403019 L208.20968,220.494187 Z" id="Path" fill="#5D5D69"></path>
                    <path d="M277.452916,119.126911 C297.143829,168.321463 245.689852,204.053458 245.689852,204.053458 C245.689852,204.053458 267.488987,207.396305 268.673722,214.908594 C270.192614,224.481292 351.325735,188.883011 277.452916,119.126911 Z" id="Path" fill="#2EBF8B"></path>
                    <path d="M336.821429,172.654746 C329.846678,176.860656 324.881343,181.753689 321.624839,189.551639 C318.179993,197.823666 318.888283,204.560089 322.296676,212.461364 C324.331195,216.933369 326.199366,222.001425 329.484072,225.654327 C330.273895,226.578169 331.094097,226.201339 331.914299,226.158793 C332.7345,226.116248 333.524324,226.347208 334.295921,225.970378 L331.689503,224.463058 C326.264021,217.357989 321.901764,209.043417 322.296676,199.695601 C322.570077,193.113231 326.305065,187.042102 330.424299,181.985287 C334.197061,177.44648 339.487842,174.015104 344.745896,171.336103 C344.916012,171.251012 345.025372,171.020052 345.159035,170.855948 C345.576246,171.024402 346.002141,171.170479 346.434904,171.293557 C350.889339,172.418494 355.087899,174.38449 358.804758,177.0858 C365.165877,181.553059 369.880516,187.284522 371.399408,195.355978 C371.587751,196.33452 372.006965,195.787509 372.335046,195.605172 C377.645091,192.870115 383.040195,192.56622 388.289484,195.240498 C395.53156,198.88724 398.73946,205.17787 398.295943,213.504598 C398.25949,214.179245 398.344548,214.227869 398.9035,213.966519 C401.018903,213.026436 403.350103,212.679773 405.647379,212.963665 C407.713072,213.188547 407.63409,213.212859 407.937868,211.043047 C409.152981,202.491437 411.692568,194.505071 417.403601,187.837611 C418.73415,186.287746 420.125455,184.865516 422.264055,184.616322 L424.372277,185.023542 C424.372277,185.060009 424.372277,185.108632 424.414805,185.126866 C426.632387,186.676732 427.173113,188.530492 425.866866,190.141137 C425.096987,191.003811 423.999761,191.502564 422.843825,191.515284 C421.687889,191.528004 420.579961,191.053517 419.791299,190.207993 C419.10476,189.448256 418.879964,189.770384 418.418221,190.347785 C413.80079,196.164339 411.631813,202.971591 410.48353,210.204296 C410.480231,210.242719 410.480231,210.281354 410.48353,210.319777 C410.48353,211.492812 409.578271,212.854262 410.179752,213.72948 C410.781233,214.604699 412.136085,214.780958 413.132478,215.334047 C413.956166,215.76328 414.740862,216.263564 415.477646,216.829211 C415.987994,217.230353 416.133808,217.108795 416.370755,216.573939 C420.775541,206.745969 427.349304,198.534721 434.676438,190.894797 C436.833264,188.65205 441.286655,189.776462 442.574675,192.864037 L442.319501,194.176865 C440.555001,196.042055 437.663523,196.262944 435.636378,194.687408 C435.028821,194.261955 434.718967,194.322734 434.232922,194.851512 C428.047995,201.646608 422.488851,208.885391 418.612639,217.370145 C418.096216,218.506713 417.9261,219.272529 418.879964,220.220682 C419.703933,221.153386 420.339407,222.236996 420.751239,223.411581 C423.01135,228.881694 420.568972,234.254561 414.967299,235.974608 C411.490957,236.989992 407.769392,236.759992 404.444417,235.324272 C400.424776,233.828181 397.054736,230.972866 394.917928,227.252816 C394.897444,227.548252 394.897444,227.844754 394.917928,228.14019 C396.740598,242.332095 395.914321,256.444987 393.162089,270.509256 C393.06488,271.013722 393.222845,271.882862 392.232527,271.524266 C391.527762,271.268994 390.367328,271.664058 390.719711,270.016946 C392.990371,259.38554 393.876659,248.504939 393.356507,237.646031 C393.201386,233.991968 392.840329,230.349569 392.275056,226.736194 C392.147469,227.216349 392.10494,227.343985 392.080638,227.477698 C390.077661,237.992451 387.152092,248.310115 383.337897,258.310903 C382.122784,261.532192 380.780084,264.686624 379.461686,267.865368 C378.854129,269.293675 377.936718,268.144952 377.177272,268.132796 C376.630471,268.132796 376.909947,267.652641 377.037534,267.385214 C380.235599,260.259168 382.953398,252.927018 385.172719,245.437904 C386.9025,239.868381 388.340317,234.212278 389.480295,228.492708 C389.501493,228.290666 389.501493,228.08696 389.480295,227.884918 C389.316255,227.951775 389.15829,228.012554 389.000326,228.091567 C380.494532,232.242775 373.203852,230.966415 366.818431,224.189553 C366.668581,224.050774 366.505827,223.926627 366.332385,223.8188 C366.274709,224.030271 366.232074,224.245562 366.204798,224.463058 C366.131892,226.74835 366.113665,229.03972 365.992154,231.331089 C365.787463,236.438141 365.327169,241.531729 364.613,246.592705 L362.41972,245.717487 C363.245997,237.323902 364.035821,228.936395 363.768496,220.0505 C361.02234,227.745126 358.051388,234.898819 354.958924,241.991732 L352.850702,240.909865 C356.028224,233.519135 359.072083,226.079781 361.964053,218.287908 C361.277514,218.792374 360.791468,219.157048 360.293272,219.503489 C354.138722,223.837034 347.285483,226.012924 339.994803,226.796973 C339.43585,226.86383 339.047014,226.882064 338.913352,227.672191 C337.491669,236.248113 335.523185,244.690321 333.26915,253.114296 C332.777029,254.937667 332.278833,256.761038 331.689503,258.584409 C331.239911,259.939782 330.298198,258.857915 329.593432,258.918694 C328.985875,258.967317 329.210671,258.450695 329.301805,258.110333 C330.516918,253.703853 331.768485,249.321684 332.886389,244.89697 C334.326299,239.238442 335.480656,233.525213 336.58641,227.793749 C336.701845,227.185959 336.58641,227.12518 335.978853,227.052245 C334.696908,226.89422 334.66653,227.963931 334.301996,228.668968 C329.441543,238.041095 323.584696,246.726419 317.545583,255.314497 C316.719306,256.487532 315.953784,256.87044 314.617159,256.530078 C313.742278,256.286962 313.924545,256.11678 314.337683,255.545457 C316.372998,252.743544 318.414389,249.947708 320.35857,247.085015 C324.532485,240.928099 328.481603,234.619235 332.03581,228.061177 C332.412495,227.368296 332.448948,227.088713 331.543689,227.015778 C328.860177,226.865401 326.193882,226.491326 323.572545,225.897444 C322.752344,224.298955 320.517341,223.925988 319.441966,222.546303 C314.210903,215.86061 309.981125,208.538951 309.914293,199.695601 C309.859613,192.499363 313.001059,184.145756 317.545583,178.639175 C320.929039,174.502529 324.900182,172.219065 329.593432,169.664679 C329.793926,169.549199 331.07587,169.263538 331.239911,169.075123 C334.131126,168.969717 337.025328,169.173469 339.873291,169.682913 C338.961956,170.631066 337.921106,171.992255 336.821429,172.654746 Z M406.83819,221.746235 C406.700484,222.11351 406.730142,222.522651 406.919376,222.866208 C407.10861,223.209765 407.438509,223.453404 407.822432,223.533139 C408.806674,223.745866 409.335248,222.998283 409.56612,222.11091 C409.701337,221.736255 409.668858,221.321509 409.476971,220.97249 C409.285084,220.62347 408.952346,220.373931 408.563651,220.287538 C407.542956,220.208526 407.050835,220.858861 406.83819,221.746235 L406.83819,221.746235 Z M414.359742,225.058693 C414.746711,225.130559 415.146244,225.04152 415.466126,224.812126 C415.786008,224.582732 415.998597,224.232805 416.054825,223.843112 C416.175846,223.488093 416.137767,223.098092 415.950363,222.77321 C415.762958,222.448328 415.444475,222.220199 415.076659,222.147377 C414.250382,221.93465 413.630674,222.408727 413.339047,223.265711 C413.26614,224.140929 413.418029,224.912823 414.359742,225.058693 Z" id="Shape" fill="#424251"></path>
                    <path d="M322.296676,170.005042 C313.790882,171.652154 306.21465,175.232039 300.424635,182.160849 C294.081743,189.715683 293.08535,199.519342 297.806066,208.10742 C302.119718,215.953993 308.8879,220.731225 316.950177,223.782333 C317.047386,223.344724 317.762021,222.553727 317.525074,222.274143 C313.575956,217.594157 311.245573,212.14436 309.386449,206.127236 C307.181019,198.985699 306.263608,193.160278 309.386449,186.207156 C311.950339,180.500005 316.390278,176.396314 321.311487,172.719182 C322.162067,172.062769 321.719497,171.032208 322.296676,170.005042 Z" id="Path" fill="#424251"></path>
                    <path d="M339.891518,169.664679 C338.961956,170.631066 337.710389,171.068675 336.610712,171.731167 C329.635961,175.937076 323.937079,181.34641 320.680575,189.14436 C317.235729,197.416387 318.049855,205.493921 321.458248,213.395196 C323.492767,217.867201 326.199366,222.001425 329.484072,225.654327 C330.273895,226.578169 331.094097,226.201339 331.914299,226.158793 C332.7345,226.116248 333.524324,226.347208 334.295921,225.970378 L332.78918,224.007215 C327.363699,216.902146 323.773039,209.043417 324.167951,199.695601 C324.441351,193.113231 326.938409,187.333145 331.057644,182.276329 C334.830406,177.737523 339.487842,174.015104 344.745896,171.336103 C344.916012,171.251012 345.025372,171.020052 345.159035,170.855948 C343.50648,170.071899 341.68381,169.89564 339.891518,169.664679 Z" id="Path" fill="#5D5D69"></path>
                    <path d="M322.296676,170.005042 C321.689119,171.032208 320.638046,171.396882 319.775316,172.04114 C314.854107,175.718271 310.868535,180.221998 308.304645,185.929149 C305.181804,192.882271 305.145351,199.950873 307.350781,207.09241 C309.173451,213.109534 312.551467,218.154194 316.500585,222.83418 C316.737532,223.113764 317.035235,223.332568 316.938026,223.770177 C319.043744,224.738252 321.2624,225.438612 323.542167,225.854898 C322.721966,224.25641 321.367114,223.113764 320.291739,221.73408 C315.060676,215.048386 311.536847,207.58472 311.470016,198.74137 C311.415336,191.545132 313.942771,185.23019 318.487296,179.72361 C321.883703,175.599217 326.047394,172.172862 330.74779,169.63429 C330.948283,169.51881 331.07587,169.263538 331.239911,169.075123 C328.229057,168.933723 325.2141,169.247219 322.296676,170.005042 L322.296676,170.005042 Z" id="Path" fill="#5D5D69"></path>
                    <path d="M350.955125,244.848347 C348.354783,250.178668 345.651155,255.460367 342.601221,260.547572 C342.267065,261.106739 342.437181,261.216141 342.990057,261.386323 C344.205171,261.750997 344.964616,261.507881 345.639004,260.237599 C348.215045,255.375276 350.973352,250.573732 353.215236,245.504761 L350.955125,244.848347 Z" id="Path" fill="#424251"></path>
                    <path d="M364.576547,247.492235 C364.442884,248.482933 364.327448,249.47971 364.175559,250.470408 C363.446491,255.047069 362.693121,259.623731 361.982279,264.20647 C361.842541,265.124233 361.289665,264.947974 360.821846,264.747403 C360.354027,264.546833 359.296879,265.039143 359.533826,263.82964 C360.639579,258.181242 361.534713,252.508531 362.219227,246.81151 L364.576547,247.492235 Z M363.85963,248.31883 C363.799263,248.290248 363.736161,248.267848 363.671287,248.251973 C363.671287,248.251973 363.616607,248.251973 363.586229,248.300596 L363.732043,248.428232 L363.85963,248.31883 Z" id="Shape" fill="#424251"></path>
                    <path d="M354.946773,241.967421 L352.838551,240.885554 L352.060879,242.563055 C352.838551,242.757548 353.670904,242.842639 354.065816,243.717857 L354.946773,241.967421 Z" id="Path" fill="#5D5D69"></path>
                    <path d="M354.065816,243.723935 C353.670904,242.848717 352.850702,242.763626 352.060879,242.569133 C351.884687,242.952041 351.70242,243.341027 351.520153,243.723935 C352.065423,244.292446 352.80562,244.633371 353.591921,244.678166 L354.065816,243.723935 Z" id="Path" fill="#424251"></path>
                    <polygon id="Path" fill="#5D5D69" points="362.219227 246.805432 364.576547 247.492235 364.576547 246.568394 362.383267 245.693176"></polygon>
                    <path d="M353.591921,244.672088 C352.80562,244.627293 352.065423,244.286368 351.520153,243.717857 C351.217392,244.025678 351.019631,244.421352 350.955125,244.848347 L353.215236,245.504761 C353.543317,245.322423 353.531166,244.982061 353.591921,244.672088 Z" id="Path" fill="#5D5D69"></path>
                    <path d="M408.563651,220.31185 C407.542956,220.208526 407.050835,220.858861 406.83819,221.746235 C406.700484,222.11351 406.730142,222.522651 406.919376,222.866208 C407.10861,223.209765 407.438509,223.453404 407.822432,223.533139 C408.806674,223.745866 409.335248,222.998283 409.56612,222.11091 C409.693061,221.739257 409.656396,221.331174 409.465242,220.988122 C409.274088,220.645071 408.9464,220.399276 408.563651,220.31185 L408.563651,220.31185 Z" id="Path" fill="#030304"></path>
                    <path d="M413.339047,223.290023 C413.26614,224.140929 413.418029,224.912823 414.359742,225.058693 C414.746711,225.130559 415.146244,225.04152 415.466126,224.812126 C415.786008,224.582732 415.998597,224.232805 416.054825,223.843112 C416.175846,223.488093 416.137767,223.098092 415.950363,222.77321 C415.762958,222.448328 415.444475,222.220199 415.076659,222.147377 C414.250382,221.958962 413.630674,222.451272 413.339047,223.290023 Z" id="Path" fill="#030304"></path>
                    <path d="M363.732043,248.428232 L363.85963,248.31883 C363.799263,248.290248 363.736161,248.267848 363.671287,248.251973 C363.671287,248.251973 363.616607,248.251973 363.586229,248.300596 L363.732043,248.428232 Z" id="Path" fill="#5D5D69"></path>
                    <path d="M442.25267,132.139702 C412.482392,172.521294 455.120721,141.329493 432.392025,165.3129 C467.065286,196.48039 424.232538,218.761985 418.527581,228.784448 C411.255127,241.560201 567.221007,232.327866 442.25267,132.139702 Z" id="Path" fill="#2EBF8B"></path>
                </g>
            </g>
        </g>
    </g>
</svg>