<svg width="926" height="676" viewBox="0 0 926 676" fill="none" xmlns="http://www.w3.org/2000/svg">
<path fill-rule="evenodd" clip-rule="evenodd" d="M419 477C522.83 477 607 392.83 607 289C607 185.17 522.83 101 419 101C315.17 101 231 185.17 231 289C231 392.83 315.17 477 419 477Z" fill="white"/>
<g opacity="0.6">
<path d="M529.665 309.593C529.43 309.593 529.239 309.402 529.239 309.167V141.5C529.244 141.269 529.433 141.084 529.665 141.084C529.895 141.084 530.081 141.27 530.081 141.5V309.167C530.082 309.398 529.897 309.588 529.665 309.593Z" fill="#BCA9FF"/>
<path d="M447.919 309.593C447.683 309.593 447.493 309.402 447.493 309.167V59.4155C447.498 59.1839 447.687 58.999 447.919 58.999C448.029 58.999 448.135 59.0429 448.213 59.121C448.292 59.1991 448.335 59.305 448.335 59.4155V309.167C448.335 309.398 448.15 309.588 447.919 309.593V309.593Z" fill="#BCA9FF"/>
<path d="M275.348 212.593C275.84 212.593 276.239 212.194 276.239 211.702C276.239 211.209 275.84 210.811 275.348 210.811C274.856 210.811 274.457 211.209 274.457 211.702C274.457 212.194 274.856 212.593 275.348 212.593Z" fill="#87766B"/>
<path d="M264.983 218.442C265.475 218.442 265.874 218.043 265.874 217.551C265.874 217.059 265.475 216.66 264.983 216.66C264.491 216.66 264.092 217.059 264.092 217.551C264.092 218.043 264.491 218.442 264.983 218.442Z" fill="#87766B"/>
<path d="M276.249 221.522C276.741 221.522 277.14 221.123 277.14 220.631C277.14 220.139 276.741 219.74 276.249 219.74C275.756 219.74 275.357 220.139 275.357 220.631C275.357 221.123 275.756 221.522 276.249 221.522Z" fill="#87766B"/>
<path d="M248.274 210.52C248.766 210.52 249.165 210.121 249.165 209.629C249.165 209.137 248.766 208.738 248.274 208.738C247.782 208.738 247.383 209.137 247.383 209.629C247.383 210.121 247.782 210.52 248.274 210.52Z" fill="#87766B"/>
<path d="M249.165 219.45C249.657 219.45 250.056 219.051 250.056 218.559C250.056 218.067 249.657 217.668 249.165 217.668C248.672 217.668 248.273 218.067 248.273 218.559C248.273 219.051 248.672 219.45 249.165 219.45Z" fill="#87766B"/>
<path fill-rule="evenodd" clip-rule="evenodd" d="M654.432 263.268H664.118V253.582H654.432V263.268ZM663.276 262.425H655.323V254.473H663.276V262.425Z" fill="#BCA9FF"/>
<path fill-rule="evenodd" clip-rule="evenodd" d="M645.636 272.062H655.323V262.425H645.636V272.062ZM654.48 271.219H646.527L646.498 263.267H654.48V271.219Z" fill="#BCA9FF"/>
<path fill-rule="evenodd" clip-rule="evenodd" d="M636.859 263.268H646.498V253.582H636.859V263.268ZM645.732 262.425H637.78V254.473H645.732V262.425Z" fill="#BCA9FF"/>
<path fill-rule="evenodd" clip-rule="evenodd" d="M619.249 263.268H628.936V253.582H619.249V263.268ZM628.093 262.425H620.14V254.473H628.093V262.425Z" fill="#BCA9FF"/>
<path fill-rule="evenodd" clip-rule="evenodd" d="M610.502 272.062H620.14V262.425H610.502V272.062ZM619.298 271.219H611.345V263.267H619.298V271.219Z" fill="#BCA9FF"/>
<path fill-rule="evenodd" clip-rule="evenodd" d="M628.093 272.062H637.78V262.425H628.093V272.062ZM636.937 271.219H628.984V263.267H636.937V271.219Z" fill="#BCA9FF"/>
<path fill-rule="evenodd" clip-rule="evenodd" d="M601.658 263.268H611.345V253.582H601.658V263.268ZM610.502 262.425H602.549V254.473H610.502V262.425Z" fill="#BCA9FF"/>
<path fill-rule="evenodd" clip-rule="evenodd" d="M574.815 263.268H593.753V253.582H574.815V263.268ZM592.91 262.425H575.658V254.473H592.91V262.425Z" fill="#BCA9FF"/>
<rect x="557.137" y="262.851" width="18.0949" height="8.79447" transform="rotate(-180 557.137 262.851)" stroke="#BCA9FF" stroke-width="0.87" stroke-linecap="round"/>
<path fill-rule="evenodd" clip-rule="evenodd" d="M484.079 263.268H521.373V253.582H484.079V263.268ZM520.569 262.425H484.922V254.473H520.569V262.425Z" fill="#BCA9FF"/>
<path fill-rule="evenodd" clip-rule="evenodd" d="M376.042 263.268H448.48V253.582H376.042V263.268ZM447.598 262.425H376.885V254.473H447.598V262.425Z" fill="#BCA9FF"/>
<path fill-rule="evenodd" clip-rule="evenodd" d="M447.638 272.062H484.922V262.425H447.638V272.062ZM484.079 271.219H448.48V263.267H484.079V271.219Z" fill="#BCA9FF"/>
<rect x="575.232" y="271.646" width="18.0949" height="8.79447" transform="rotate(-180 575.232 271.646)" stroke="#BCA9FF" stroke-width="0.87" stroke-linecap="round"/>
<path fill-rule="evenodd" clip-rule="evenodd" d="M520.569 272.062H539.468L539.507 262.425H520.569V272.062ZM538.626 271.219H521.373V263.267H538.626V271.219Z" fill="#BCA9FF"/>
<path fill-rule="evenodd" clip-rule="evenodd" d="M592.862 272.062H602.549V262.425H592.862V272.062ZM601.706 271.219H593.753V263.267H601.706V271.219Z" fill="#BCA9FF"/>
<path d="M663.702 276.759C663.467 276.759 663.276 276.569 663.276 276.333V254.095C663.281 253.864 663.47 253.679 663.702 253.679C663.932 253.679 664.119 253.865 664.119 254.095V276.372C664.099 276.588 663.919 276.755 663.702 276.759Z" fill="#BCA9FF"/>
<path d="M593.327 254.057V276.343" stroke="#BCA9FF" stroke-width="0.87" stroke-linecap="round"/>
<path d="M520.821 254.057V276.343" stroke="#96BAAA" stroke-width="0.74" stroke-linecap="round"/>
<path d="M448.054 254.057V276.343" stroke="#96BAAA" stroke-width="0.74" stroke-linecap="round"/>
<path d="M376.459 254.057V276.343" stroke="#BCA9FF" stroke-width="0.87" stroke-linecap="round"/>
<path d="M663.692 283.965C664.334 283.965 664.854 283.445 664.854 282.803C664.854 282.161 664.334 281.641 663.692 281.641C663.05 281.641 662.529 282.161 662.529 282.803C662.529 283.445 663.05 283.965 663.692 283.965Z" fill="#BCA9FF"/>
<path d="M593.327 283.965C593.969 283.965 594.49 283.445 594.49 282.803C594.49 282.161 593.969 281.641 593.327 281.641C592.685 281.641 592.165 282.161 592.165 282.803C592.165 283.445 592.685 283.965 593.327 283.965Z" fill="#BCA9FF"/>
<path d="M520.822 283.965C521.464 283.965 521.984 283.445 521.984 282.803C521.984 282.161 521.464 281.641 520.822 281.641C520.18 281.641 519.659 282.161 519.659 282.803C519.659 283.445 520.18 283.965 520.822 283.965Z" fill="#BCA9FF"/>
<path d="M448.054 283.965C448.696 283.965 449.216 283.445 449.216 282.803C449.216 282.161 448.696 281.641 448.054 281.641C447.412 281.641 446.892 282.161 446.892 282.803C446.892 283.445 447.412 283.965 448.054 283.965Z" fill="#BCA9FF"/>
<path d="M376.459 283.965C377.101 283.965 377.622 283.445 377.622 282.803C377.622 282.161 377.101 281.641 376.459 281.641C375.817 281.641 375.297 282.161 375.297 282.803C375.297 283.445 375.817 283.965 376.459 283.965Z" fill="#BCA9FF"/>
<path d="M285.181 309.594C284.945 309.594 284.754 309.403 284.754 309.167V118.498C284.729 118.332 284.804 118.167 284.944 118.076C285.085 117.985 285.266 117.985 285.407 118.076C285.548 118.167 285.622 118.332 285.597 118.498V309.167C285.597 309.399 285.412 309.588 285.181 309.594Z" fill="#BCA9FF"/>
<path d="M523.921 153.908C523.755 153.909 523.596 153.846 523.475 153.733C523.235 153.489 523.235 153.097 523.475 152.852L526.866 149.462L523.475 146.072C523.358 145.957 523.292 145.8 523.292 145.636C523.292 145.472 523.358 145.315 523.475 145.2C523.72 144.961 524.112 144.961 524.357 145.2L528.231 149.075C528.349 149.189 528.415 149.347 528.415 149.511C528.415 149.675 528.349 149.832 528.231 149.946L524.357 153.821C524.226 153.901 524.072 153.932 523.921 153.908Z" fill="#BCA9FF"/>
<path d="M527.748 150.083H449.711C449.368 150.083 449.091 149.805 449.091 149.463C449.091 149.12 449.368 148.843 449.711 148.843H527.748C528.09 148.843 528.368 149.12 528.368 149.463C528.368 149.805 528.09 150.083 527.748 150.083Z" fill="#BCA9FF"/>
<path d="M453.537 153.908C453.374 153.909 453.218 153.846 453.101 153.733L449.226 149.859C448.992 149.616 448.992 149.231 449.226 148.988L453.101 145.113C453.25 144.929 453.491 144.845 453.722 144.899C453.954 144.952 454.134 145.132 454.187 145.364C454.241 145.595 454.157 145.836 453.973 145.985L450.582 149.375L453.973 152.765C454.148 152.942 454.2 153.207 454.105 153.437C454.01 153.668 453.786 153.819 453.537 153.821V153.908Z" fill="#BCA9FF"/>
<path d="M441.729 153.908C441.48 153.906 441.256 153.755 441.161 153.524C441.066 153.294 441.118 153.029 441.293 152.852L444.683 149.462L441.293 146.072C441.108 145.923 441.025 145.682 441.078 145.45C441.132 145.219 441.312 145.039 441.543 144.986C441.774 144.932 442.016 145.016 442.165 145.2L445.991 149.074C446.108 149.189 446.174 149.346 446.174 149.51C446.174 149.674 446.108 149.831 445.991 149.946L442.165 153.82C442.035 153.902 441.88 153.933 441.729 153.908Z" fill="#BCA9FF"/>
<path d="M445.555 150.083H288.842C288.499 150.083 288.222 149.805 288.222 149.463C288.222 149.12 288.499 148.843 288.842 148.843H445.555C445.897 148.843 446.175 149.12 446.175 149.463C446.175 149.805 445.897 150.083 445.555 150.083V150.083Z" fill="#BCA9FF"/>
<path d="M291.264 153.908C291.102 153.907 290.946 153.845 290.828 153.734L287.002 149.859C286.884 149.745 286.818 149.588 286.818 149.424C286.818 149.26 286.884 149.103 287.002 148.988L290.828 145.114C291.073 144.874 291.464 144.874 291.709 145.114C291.826 145.228 291.892 145.385 291.892 145.549C291.892 145.713 291.826 145.87 291.709 145.985L288.319 149.375L291.709 152.765C291.949 153.01 291.949 153.402 291.709 153.647C291.603 153.792 291.442 153.886 291.264 153.908Z" fill="#BCA9FF"/>
<path d="M447.812 179.701C448.77 179.701 449.546 178.925 449.546 177.967C449.546 177.01 448.77 176.233 447.812 176.233C446.854 176.233 446.078 177.01 446.078 177.967C446.078 178.925 446.854 179.701 447.812 179.701Z" fill="#BCA9FF"/>
<path fill-rule="evenodd" clip-rule="evenodd" d="M462.482 178.856C462.846 179.736 463.705 180.311 464.658 180.311C465.281 180.313 465.88 180.068 466.322 179.628C466.763 179.188 467.012 178.59 467.012 177.967C467.015 177.014 466.444 176.153 465.565 175.786C464.686 175.418 463.672 175.617 462.997 176.29C462.321 176.962 462.118 177.975 462.482 178.856ZM463.544 177.967C463.544 177.352 464.042 176.853 464.658 176.853C465.273 176.853 465.772 177.352 465.772 177.967C465.772 178.582 465.273 179.081 464.658 179.081C464.042 179.081 463.544 178.582 463.544 177.967Z" fill="#BCA9FF"/>
<path fill-rule="evenodd" clip-rule="evenodd" d="M479.327 178.856C479.691 179.736 480.549 180.311 481.502 180.311C482.126 180.313 482.725 180.068 483.166 179.628C483.608 179.188 483.856 178.59 483.856 177.967C483.86 177.014 483.289 176.153 482.41 175.786C481.531 175.418 480.517 175.617 479.841 176.29C479.166 176.962 478.963 177.975 479.327 178.856ZM480.388 177.967C480.388 177.352 480.887 176.853 481.502 176.853C481.799 176.85 482.083 176.967 482.293 177.176C482.502 177.386 482.619 177.671 482.616 177.967C482.616 178.582 482.118 179.081 481.502 179.081C480.887 179.081 480.388 178.582 480.388 177.967Z" fill="#BCA9FF"/>
<path fill-rule="evenodd" clip-rule="evenodd" d="M496.172 178.856C496.536 179.736 497.395 180.311 498.348 180.311C498.971 180.313 499.57 180.068 500.012 179.628C500.454 179.188 500.702 178.59 500.702 177.967C500.706 177.014 500.135 176.153 499.256 175.786C498.376 175.418 497.362 175.617 496.687 176.29C496.012 176.962 495.809 177.975 496.172 178.856ZM497.234 177.967C497.234 177.352 497.733 176.853 498.348 176.853C498.644 176.85 498.929 176.967 499.139 177.176C499.348 177.386 499.465 177.671 499.462 177.967C499.462 178.582 498.963 179.081 498.348 179.081C497.733 179.081 497.234 178.582 497.234 177.967Z" fill="#BCA9FF"/>
<path fill-rule="evenodd" clip-rule="evenodd" d="M546.709 178.856C547.072 179.736 547.931 180.311 548.884 180.311C550.18 180.311 551.233 179.263 551.238 177.967C551.242 177.014 550.671 176.153 549.792 175.786C548.912 175.418 547.898 175.617 547.223 176.29C546.548 176.962 546.345 177.975 546.709 178.856ZM547.77 177.967C547.77 177.352 548.269 176.853 548.884 176.853C549.499 176.853 549.998 177.352 549.998 177.967C549.998 178.582 549.499 179.081 548.884 179.081C548.269 179.081 547.77 178.582 547.77 177.967Z" fill="#BCA9FF"/>
<path fill-rule="evenodd" clip-rule="evenodd" d="M625.918 178.856C626.281 179.736 627.14 180.311 628.093 180.311C629.389 180.311 630.442 179.263 630.447 177.967C630.451 177.014 629.88 176.153 629.001 175.786C628.121 175.418 627.107 175.617 626.432 176.29C625.757 176.962 625.554 177.975 625.918 178.856ZM626.979 177.967C626.979 177.352 627.478 176.853 628.093 176.853C628.389 176.85 628.674 176.967 628.884 177.176C629.093 177.386 629.21 177.671 629.207 177.967C629.207 178.582 628.708 179.081 628.093 179.081C627.478 179.081 626.979 178.582 626.979 177.967Z" fill="#BCA9FF"/>
<path fill-rule="evenodd" clip-rule="evenodd" d="M282.998 99.7532C283.366 100.632 284.227 101.203 285.18 101.199C286.476 101.194 287.524 100.142 287.524 98.8458C287.524 97.893 286.95 97.0342 286.069 96.6705C285.188 96.3068 284.175 96.5099 283.502 97.185C282.83 97.8602 282.631 98.8741 282.998 99.7532ZM284.144 98.4128C284.319 97.9969 284.729 97.7281 285.18 97.732C285.792 97.7373 286.284 98.2344 286.284 98.8458C286.284 99.2972 286.012 99.7039 285.594 99.8758C285.177 100.048 284.697 99.9505 284.379 99.6299C284.061 99.3094 283.969 98.8287 284.144 98.4128Z" fill="#BCA9FF"/>
<path fill-rule="evenodd" clip-rule="evenodd" d="M266.192 99.7532C266.559 100.632 267.42 101.203 268.373 101.199C269.67 101.194 270.718 100.142 270.718 98.8458C270.718 97.893 270.143 97.0342 269.262 96.6705C268.381 96.3068 267.368 96.5099 266.696 97.185C266.023 97.8602 265.824 98.8741 266.192 99.7532ZM267.337 98.4128C267.513 97.9969 267.922 97.7281 268.373 97.732C268.985 97.7373 269.478 98.2344 269.478 98.8458C269.478 99.2972 269.205 99.7039 268.788 99.8758C268.37 100.048 267.89 99.9505 267.573 99.6299C267.255 99.3094 267.162 98.8287 267.337 98.4128Z" fill="#BCA9FF"/>
<path fill-rule="evenodd" clip-rule="evenodd" d="M232.501 99.7532C232.869 100.632 233.73 101.203 234.683 101.199C235.979 101.194 237.027 100.142 237.027 98.8458C237.027 97.893 236.453 97.0342 235.572 96.6705C234.691 96.3068 233.678 96.5099 233.005 97.185C232.333 97.8602 232.134 98.8741 232.501 99.7532ZM233.647 98.4128C233.822 97.9969 234.232 97.7281 234.683 97.732C235.294 97.7373 235.787 98.2344 235.787 98.8458C235.787 99.2972 235.515 99.7039 235.097 99.8758C234.68 100.048 234.2 99.9505 233.882 99.6299C233.564 99.3094 233.471 98.8287 233.647 98.4128Z" fill="#BCA9FF"/>
<path fill-rule="evenodd" clip-rule="evenodd" d="M295.623 203.343C329.022 203.343 356.098 176.271 356.098 142.876C356.098 109.481 329.022 82.4092 295.623 82.4092C262.224 82.4092 235.148 109.481 235.148 142.876C235.148 176.271 262.224 203.343 295.623 203.343Z" stroke="#BCA9FF" stroke-width="3.48" stroke-linecap="round" stroke-dasharray="1.28"/>
<path fill-rule="evenodd" clip-rule="evenodd" d="M450.921 119.767C467.618 119.767 481.153 106.233 481.153 89.5381C481.153 72.8434 467.618 59.3096 450.921 59.3096C434.224 59.3096 420.688 72.8434 420.688 89.5381C420.688 106.233 434.224 119.767 450.921 119.767Z" stroke="#BCA9FF" stroke-width="3.48" stroke-linecap="round" stroke-dasharray="1.75"/>
<path fill-rule="evenodd" clip-rule="evenodd" d="M404.492 37.9721C414.229 37.9721 422.122 30.08 422.122 20.3445C422.122 10.609 414.229 2.7168 404.492 2.7168C394.756 2.7168 386.862 10.609 386.862 20.3445C386.862 30.08 394.756 37.9721 404.492 37.9721Z" stroke="#BCA9FF" stroke-width="3.48" stroke-linecap="round"/>
</g>
<path d="M391.109 675.069C390.189 674.604 389.298 674.1 388.358 673.684C379.608 670.028 374.759 660.605 376.87 651.359C378.981 642.114 387.44 635.73 396.909 636.235C406.377 636.74 414.108 643.989 415.223 653.407C416.338 662.825 410.514 671.678 401.425 674.381C400.747 674.594 400.069 674.837 399.4 675.069H391.109Z" fill="#AC967C"/>
<path d="M907.005 403.8C901.716 409.749 896.621 415.881 891.11 421.606C879.622 433.56 867.863 445.282 856.298 457.12C849.15 464.345 841.47 471.022 833.322 477.096C822.735 485.059 812.235 493.177 801.561 500.927C795.604 505.296 789.356 509.268 783.225 513.385C782.014 514.199 780.707 514.877 779.438 515.614C772.323 519.846 764.021 521.638 755.794 520.719C750.276 520.044 744.679 520.951 739.657 523.335C734.01 526.028 728.363 528.721 722.832 531.646C717.982 534.285 712.948 536.57 707.77 538.486C701.778 540.589 696.178 543.673 691.197 547.611C682.673 554.393 674.133 561.148 665.577 567.878C664.962 568.393 664.315 568.869 663.639 569.302C650.931 576.965 637.739 583.523 623.306 587.359C620.245 588.163 617.223 589.132 614.24 590.188C608.913 591.987 603.306 592.814 597.686 592.629C580.077 592.348 563.378 596.175 547.182 602.791C540.024 605.698 533.002 608.875 526.163 612.479C516.719 617.449 506.791 621.14 496.708 624.685C495.397 625.115 494.065 625.477 492.717 625.77C490.586 626.293 488.387 626.594 486.314 627.281C479.718 629.49 472.754 629.713 465.973 630.982C461.781 631.782 457.442 631.193 453.614 629.306C447.55 626.4 441.487 623.426 435.316 620.723C432.487 619.516 429.544 618.594 426.531 617.972C422.734 617.139 418.908 617.836 415.189 618.737C403.73 621.429 392.066 623.153 380.318 623.891C376.586 624.159 372.928 625.074 369.508 626.594C363.629 629.18 357.788 631.815 351.909 634.402C345.783 637.223 339.355 639.335 332.749 640.699C327.548 641.667 322.569 640.902 317.629 639.391C317.083 639.226 316.566 638.974 316.099 638.645C312.284 636.148 308.036 634.383 303.575 633.443C292.3 630.653 281.044 627.834 269.75 625.15C265.256 624.075 260.607 623.6 256.19 622.37C242.116 618.495 229.427 612.062 219.014 601.522C214.171 596.62 208.979 592.038 203.875 587.379C196.815 580.876 190.44 573.666 184.851 565.863C177.509 555.739 170.215 545.567 162.728 535.541C159.289 530.93 155.511 526.551 151.724 522.201C148.101 518.242 143.846 514.913 139.132 512.349C120.922 501.896 103.545 490.445 87.7565 476.592C80.8599 470.528 73.9149 464.483 67.4833 457.944C57.0649 447.329 47.4978 435.911 38.8703 423.795C36.0036 419.554 33.4401 415.116 31.1988 410.514C28.3903 405.108 25.2793 399.866 21.8807 394.81C19.7594 391.662 18.0062 388.262 16.069 384.978C15.575 383.282 16.6308 375.106 17.8028 375.29C18.6755 375.506 19.4893 375.913 20.1856 376.482C23.4305 378.758 26.4235 381.539 29.9493 383.263C35.3155 385.898 37.9888 390.519 40.4782 395.46C41.9892 398.463 44.7207 400.168 47.5394 401.572C52.9831 404.275 57.2256 408.305 61.042 412.887C62.7546 415.07 64.9763 416.8 67.5124 417.925C69.8661 418.894 67.8514 413.798 68.3551 411.357C69.6433 405.157 65.5461 407.482 64.684 401.069C64.4903 399.654 65.7882 390.577 66.8924 389.308C71.3965 391.304 82.7584 396.738 87.1463 398.995C91.0637 401.001 94.3793 404.009 96.755 407.714C99.5711 411.88 103.146 415.479 107.294 418.322C110.374 420.54 116.137 423.64 119.062 426.072C124.051 435.304 117.542 428.135 124.642 436.031C128.245 440.041 130.986 444.662 134.241 448.915C136.399 451.667 138.928 454.106 141.757 456.161C152.354 464.086 162.931 472.049 172.482 481.262C174.341 483.054 174.777 482.947 175.94 480.584C178.051 476.263 178.845 475.972 183.282 477.949C186.017 479.172 188.614 480.682 191.031 482.453C194.198 484.749 195.69 484.11 196.697 480.293C198.005 475.381 197.414 470.45 196.775 465.539C196.242 461.431 203.894 465.403 203.419 461.286C203.186 460.386 203.625 459.446 204.465 459.048C205.231 458.669 206.157 458.88 206.684 459.552C210.558 463.921 215.876 466.459 220.196 470.305C223.793 473.593 226.843 477.432 229.233 481.678C231.17 485.03 232.875 488.585 235.694 491.366C236.407 492.145 237.229 492.817 238.135 493.361C241.321 495.086 243.946 494.059 244.915 490.62C245.535 488.595 245.816 486.483 246.436 484.468C248.15 478.82 251.521 477.939 255.938 481.911C259.354 485.056 262.124 488.837 264.094 493.042C269.324 503.775 275.146 514.219 279.94 525.165C283.456 533.206 288.435 540.307 293.946 547.059C297.595 551.529 300.888 556.278 303.797 561.261C304.96 563.133 306.598 564.664 308.544 565.698C310.607 566.899 308.427 564.245 309.328 562.026C310.81 558.384 306.664 556.747 307.129 552.872C308.805 538.99 309.454 541.247 309.115 527.248C309.115 526.841 309.115 518.345 309.115 517.948C309.541 513.037 312.244 511.593 316.36 514.219C322.937 518.423 343.637 516.156 346.291 523.567C348.858 530.775 349.671 538.253 350.514 545.761C350.698 547.456 350.988 549.132 351.289 550.808C352.383 556.805 356.945 560.254 361.023 564.032C362.011 564.881 363.101 565.604 364.268 566.182C368.304 568.306 371.955 571.093 375.068 574.426C377.088 576.572 379.685 578.09 382.546 578.795C386.101 579.764 389.026 578.795 391.051 575.725C393.559 571.85 387.176 561.823 390.13 558.355C395.051 552.542 403.013 552.32 405.56 545.122C406.268 543.184 412.225 541.615 412.941 539.629C413.52 537.925 414.6 536.435 416.041 535.357C417.193 534.425 418.713 534.082 420.154 534.43C421.595 534.777 422.792 535.775 423.393 537.13C423.617 537.47 423.781 537.847 423.877 538.244C424.545 543.426 424.507 558.704 427.606 562.763C429.389 565.097 431.045 565.814 431.277 568.643C431.442 570.58 435.152 568.236 435.694 570.115C436.295 572.305 434.29 570.115 436.421 569.379C438.871 568.488 438.455 571.142 440.838 570.115C446.233 567.781 452.122 566.24 456.268 570.115C460.249 573.736 463.935 577.669 467.291 581.876C469.121 584.211 470.816 588.221 473.17 589.955C475.282 591.515 475.834 589.704 478.313 589.219C485.452 587.844 481.636 578.069 487.864 574.523C495.216 570.338 508.767 578.321 515.741 573.555C520.09 570.58 524.768 568.711 530.144 569.205C535.685 569.67 540.741 567.916 545.642 565.591C554.36 561.445 562.796 556.669 571.795 553.056C574.255 552.087 576.163 550.275 578.159 548.609C579.193 547.698 580.331 546.911 581.549 546.265C584.29 544.909 588.872 546.468 589.298 549.53C589.666 552.106 593.337 553.569 592.969 556.146C592.475 559.556 595.875 555.681 595.875 559.052C595.875 559.944 595.555 560.418 595.875 561.251C596.708 563.421 595.875 562.83 598.083 561.988C601.532 560.66 599.594 558.965 601.754 556.107C610.123 545.093 610.181 546.061 614.25 532.586C615.799 527.471 615.635 523.984 616.458 518.626C616.874 515.846 616.216 514.751 616.458 512.01C616.574 510.663 615.625 509.52 616.458 508.338C617.291 507.156 618.821 504.376 618.657 503.194C618.424 501.412 620.187 496.878 620.129 495.105C620.555 493.294 624.652 492.402 626.009 491.434C627.113 490.639 632.159 489.893 633.36 489.225C633.806 489.438 639.027 493.1 639.24 493.633C641.574 499.135 642.485 500.801 642.146 506.866C642.078 508.154 641.72 505.606 642.146 506.866C642.572 508.125 640.431 511.535 641.41 510.537C642.892 509.036 643.211 510.15 644.315 508.338C644.809 507.544 648.403 508.164 649.459 508.338C650.515 508.513 653.672 508.774 653.866 509.801C654.399 512.591 657.586 516.815 659.009 519.363C659.91 520.971 654.467 525.718 653.866 527.442C652.529 531.317 650.147 533.933 648.723 537.73C647.386 541.305 650.708 537.343 651.629 541.411C652.171 543.727 650.544 541.218 650.156 543.61C649.972 544.715 650.766 541.101 651.629 542.148C652.956 542.448 650.989 542.903 651.629 542.148C655.232 537.856 649.585 543.572 653.091 539.241C654.631 537.304 654.806 535.473 655.997 533.361C662.642 521.93 669.461 510.431 678.043 500.288C680.145 497.798 682.227 490.6 683.922 487.791C686.344 483.839 697.096 483.916 701.561 484.12C703.847 484.236 708.864 489.167 708.903 491.472C709.01 497.479 710.976 494.379 711.809 500.288C712.206 502.991 713.31 504.88 713.281 507.641C713.281 508.464 711.034 508.61 711.809 509.113C712.975 509.642 714.313 509.642 715.48 509.113C721.505 504.541 716.1 505.674 722.096 501.024C731.617 493.633 733.864 490.562 738.998 479.712C742.524 472.252 744.529 470.838 746.35 462.807C746.931 460.25 750.554 457.866 748.549 456.19C745.643 452.16 746.098 448.198 742.34 444.943C740.935 443.732 731.52 434.287 730.319 432.892C729.118 431.497 729.351 430.519 731.094 429.685C732.197 429.176 733.345 428.77 734.523 428.475C739.569 427.225 744.645 426.111 749.662 424.784C757.189 422.778 764.676 420.637 772.173 418.545L775.215 417.683C776.939 417.896 790.393 419.533 791.177 420.909C792.146 422.585 795.575 420.55 797.057 419.436C798.994 417.973 800.283 419.436 802.2 417.973C803.043 417.315 805.358 419.417 806.608 420.172C807.857 420.928 807.45 423.456 807.344 424.58C807.14 426.75 810.676 425.326 810.25 427.486C809.92 429.308 810.172 428.039 811.712 428.223C814.88 428.6 812.332 426.45 815.393 425.316C817.601 424.474 821.369 423.437 823.471 422.41C824.566 421.858 829.612 423.379 830.823 423.146C834.698 422.449 837.274 428.097 836.703 431.962C836.005 436.66 833.09 439.276 831.559 443.723C830.155 447.791 831.937 446.174 830.823 450.339C830.591 451.182 828.963 451.453 829.351 452.548C830.794 452.655 830.581 451.066 831.559 450.339C841.245 443.17 837.923 440.39 847.725 433.435C857.857 426.237 866.013 418.235 876.387 411.386C883.642 406.59 892.437 403.374 899.905 398.889C900.806 398.346 904.796 397.804 905.784 397.416C906.889 397.126 906.782 402.512 907.005 403.8Z" fill="#988976"/>
<path d="M626.154 500.927C627.123 504.124 626.59 507.35 626.435 510.614C626.169 512.865 626.123 515.136 626.3 517.396C626.689 520.385 626.357 523.425 625.331 526.26C623.268 532.508 621.205 538.776 618.706 544.85C616.929 549.11 614.797 553.212 612.332 557.114C608.981 562.481 605.368 567.703 601.59 572.779C599.147 576.266 595.797 579.019 591.904 580.742C588.998 581.982 587.061 581.256 585.937 578.272C585.535 577.292 585.309 576.249 585.269 575.191C585.269 571.549 585.453 567.896 585.54 564.254C585.54 562.055 585.627 559.866 585.608 557.676C585.584 557.109 585.446 556.552 585.201 556.039C584.697 554.915 583.961 554.547 582.838 555.07C581.581 555.643 580.413 556.393 579.37 557.298C576.213 560.074 572.611 562.297 568.715 563.876C561.673 567.025 554.816 570.59 547.88 573.971C546.418 574.678 544.974 575.414 543.463 576.024C539.123 577.917 534.396 578.754 529.67 578.466C525.089 578.078 521.069 579.706 517.291 582.137C511.082 586.138 504.922 590.246 498.597 594.062C492.272 597.879 485.898 601.696 478.663 603.624C476.546 604.157 474.393 604.535 472.221 604.757C470.16 604.879 468.135 604.183 466.584 602.82C463.479 600.453 460.735 597.646 458.438 594.489C455.667 590.678 452.54 587.139 449.1 583.92C445.662 580.742 441.846 579.347 437.283 581.314C434.232 582.641 431.162 583.939 428.12 585.286C425.941 586.254 425.466 586.167 424.798 583.842C424.089 581.599 423.622 579.287 423.403 576.945C423.103 572.711 422.289 568.749 419.296 565.513C416.942 562.975 415.916 559.827 415.199 556.533C415.059 555.734 414.859 554.947 414.598 554.179C413.455 551.273 410.559 550.595 408.38 552.803C407.307 554.006 406.469 555.399 405.91 556.911C404.263 560.883 403.004 565.01 401.202 568.923C398.48 574.968 394.422 580.151 390.063 585.121C388.039 587.436 386.121 589.858 384.329 592.357C381.723 595.981 378.42 597.259 374.149 596.058C371.22 595.302 368.564 593.734 366.487 591.534C363.358 588.22 359.714 585.433 355.697 583.28C352.451 581.572 349.61 579.187 347.366 576.286C346.495 575.133 345.342 574.184 344.461 573.021C343.745 572.172 343.217 571.182 342.911 570.115C342.146 566.298 341.371 562.462 340.974 558.596C340.228 551.37 338.978 544.298 336.13 537.546C333.637 531.579 329.317 526.556 323.79 523.198C320.662 521.261 319.015 522.075 318.531 525.775C318.451 526.583 318.426 527.395 318.453 528.207C318.453 533.651 318.56 539.096 318.453 544.54C318.347 548.589 317.949 552.629 317.62 556.669C317.291 560.708 316.942 564.913 316.516 569.03C316.08 573.312 315.547 577.584 313.794 581.624C312.603 584.404 311.547 584.821 308.951 583.426C306.302 582.167 304.092 580.142 302.607 577.613C298.732 570.706 293.734 564.603 288.842 558.432C284.203 552.619 280.88 546.012 277.849 539.251C276.454 536.141 274.865 533.118 273.345 530.067C269.974 523.286 266.622 516.504 263.193 509.801C261.348 505.883 258.778 502.349 255.619 499.386C254.64 498.537 253.556 497.817 252.393 497.246C250.853 496.461 249.991 496.596 249.071 498.079C248.31 499.409 247.733 500.836 247.356 502.322C246.824 504.104 246.562 505.974 246.029 507.766C245.012 511.166 242.678 512.406 239.249 511.37C235.82 510.333 233.815 507.611 231.984 504.821C230.154 502.031 228.43 498.815 226.638 495.821C223.949 491.451 220.396 487.677 216.196 484.729C212.719 482.191 209.028 479.953 206.122 476.708C205.894 476.477 205.633 476.281 205.347 476.127C205.231 476.059 205.037 476.127 204.718 476.127C204.655 476.485 204.626 476.848 204.631 477.212C205.299 482.937 206.055 488.643 206.636 494.378C207.181 498.668 206.706 503.026 205.251 507.098C204.282 509.801 202.887 510.343 200.407 509.035C199.342 508.464 198.47 507.611 197.366 507.04C194.586 505.538 191.826 503.988 188.949 502.7C187.011 501.847 186.711 502.109 185.762 504.066C184.813 506.022 184.038 507.863 183.06 510.043C181.926 508.803 181.045 507.776 180.154 506.807C174.681 501.091 168.375 496.364 162.195 491.481C157.168 487.51 151.918 483.799 146.969 479.74C144.668 477.808 142.615 475.598 140.857 473.162C137.244 468.261 133.796 463.252 129.795 458.631C126.153 454.427 123.402 449.622 120.709 444.807C119.053 441.843 117.755 438.675 116.37 435.565C116.118 435.013 116.205 426.236 116.128 425.606C116.275 425.675 116.415 425.76 116.544 425.858C122.085 431.177 128.856 434.18 136.081 436.408C155.399 442.419 175.058 447.271 194.954 450.939C206.578 453.032 218.201 454.892 229.824 456.606C235.636 457.459 241.448 457.74 247.26 458.321C248.392 458.355 249.511 458.575 250.572 458.97C258.358 462.442 266.47 465.129 274.788 466.991C284.948 469.577 294.893 472.946 304.534 477.066C312.079 480.323 319.179 484.529 325.66 489.583C328.093 491.38 330.046 493.749 331.345 496.48C334.622 503.355 339.921 509.064 346.533 512.842C351.76 515.819 356.716 519.249 361.344 523.092C366.041 527.083 371.563 528.536 377.529 529.021C392.62 530.202 407.556 528.866 422.415 526.356C434.804 524.092 447.33 522.652 459.91 522.046C467.214 521.784 474.517 521.387 481.791 520.738C489.637 520.05 497.444 518.878 505.28 518.151C513.281 517.396 521.301 516.591 529.331 516.407C540.454 516.14 551.552 515.212 562.565 513.627C570.313 512.542 578.062 511.874 585.811 510.973C597.215 509.788 608.479 507.517 619.452 504.191C620.759 503.775 617.514 506.051 618.793 505.461C621.224 504.308 626.358 508.415 625.951 505.722C625.689 504.124 625.292 502.516 626.154 500.927Z" fill="#AC967C"/>
<path d="M745.188 456.955C745.934 456.5 754.08 455.628 754.438 456.267C755.829 458.373 756.337 460.94 755.853 463.417C752.612 476.859 746.807 489.55 738.757 500.791C734.601 506.316 729.553 511.109 723.82 514.974C719.568 517.957 715.035 520.515 710.667 523.315C708.894 524.448 707.238 525.775 705.475 526.918C703.538 528.178 702.491 527.887 702.259 525.659C702.158 523.075 702.204 520.488 702.395 517.909C702.395 516.223 702.395 514.538 702.298 512.852C701.978 508.163 701.329 503.484 701.329 498.795C701.329 494.107 698.84 493.7 695.585 494.378C693.076 494.901 690.742 495.85 689.396 498.253C685.444 505.499 680.058 511.719 675.06 518.209C672.27 521.842 670.217 525.862 667.815 529.737C662.652 538.175 657.809 546.826 651.126 554.227C649.062 556.514 647.115 558.916 645.072 561.222C644.44 562.14 643.363 562.647 642.253 562.549C641.342 560.689 641.74 558.751 641.953 556.862C642.137 555.494 642.392 554.136 642.718 552.794C643.149 550.876 643.116 548.883 642.621 546.981C642.396 545.876 642.49 544.731 642.892 543.678C644.636 538.96 646.525 534.3 648.355 529.611C648.801 528.478 649.246 527.335 649.644 526.192C650.245 524.485 650.042 522.597 649.091 521.057C648.43 519.678 647.927 518.229 647.59 516.737C647.203 515.39 647.28 513.898 646.466 512.581L638.524 521.425C637.936 520.624 637.433 519.763 637.022 518.858C636.693 517.688 636.489 516.487 636.412 515.274C636.189 512.28 636.218 509.268 635.85 506.294C635.58 504.377 635.059 502.504 634.301 500.723C633.555 498.892 624.769 489.021 624.876 487.015C628.45 485.698 631.957 484.167 635.608 483.14C645.062 480.389 654.806 479.072 664.541 477.725C674.76 476.311 684.882 474.567 694.791 471.477C704.7 468.386 714.996 466.72 725.254 465.015C729.128 464.366 733.003 463.397 736.877 462.458C740.897 461.489 743.658 467.301 745.905 464.23C746.874 462.913 747.261 462.942 746.641 461.324C746.292 460.375 745.576 457.934 745.188 456.955Z" fill="#AC967C"/>
<path d="M907.005 403.8C906.387 403.902 905.787 404.091 905.223 404.362C901.678 406.639 898.113 408.915 894.645 411.308C889.696 414.718 884.853 418.273 879.913 421.693C869.045 429.239 858.099 436.689 847.29 444.333C844.19 446.522 841.478 449.234 838.572 451.705C836.16 453.749 833.729 455.822 831.317 457.818C827.598 460.84 823.839 463.804 820.091 466.769C819.481 467.263 818.802 467.67 818.154 468.144C816.962 466.817 817.32 465.5 817.679 464.269C819.171 459.426 820.769 454.514 822.29 449.632C823.665 445.224 825.137 440.835 826.28 436.369C827.036 433.376 825.128 431.71 822.096 432.388C821.156 432.62 820.241 432.945 819.364 433.357C817.96 434.006 816.575 434.684 815.209 435.42C811.334 437.503 807.16 437.774 802.888 437.435C802.224 437.374 801.572 437.221 800.951 436.98C798.8 436.224 798.316 435.129 798.587 432.872C798.917 430.121 798.994 427.331 799.178 424.56L798.723 424.289C796.912 425.733 795.12 427.195 793.299 428.619C792.02 429.588 790.761 430.654 789.424 431.526C788.088 432.398 787.71 432.136 786.906 430.828C785.85 429.104 784.736 419.329 783.642 417.624C789.589 415.687 795.478 413.643 801.474 411.947C813.767 408.603 826.257 406.034 838.872 404.255C853.237 402.105 867.485 399.344 881.637 396.06C886.131 395.014 890.693 394.209 895.197 393.279C900.625 392.201 905.852 390.289 910.695 387.612C913.03 386.314 915.461 385.19 917.844 383.979C914.202 387.951 910.599 399.915 907.005 403.8Z" fill="#AC967C"/>
<path d="M74.2253 394.481C75.194 398.288 74.8646 408.731 74.545 412.616C74.235 416.326 73.5764 419.998 73.063 423.689C72.9619 424.346 72.8097 424.993 72.6077 425.626C71.92 427.922 70.9223 428.533 68.5977 427.835C64.8685 426.741 62.1176 424.251 59.696 421.335C56.2478 417.189 52.4217 413.517 47.4818 411.124C43.2036 409.245 39.7925 405.82 37.9312 401.534C37.011 399.335 35.3159 397.455 33.9308 395.46C33.6684 395.04 33.2921 394.704 32.8459 394.491C28.8358 392.805 25.6588 389.87 22.1911 387.429C20.7963 386.46 19.3627 385.54 17.9195 384.648C17.2608 384.251 16.5344 384.028 16.0985 384.997C13.6091 380.754 3.04151 368.422 0.600586 364.169C2.64437 365.331 4.69785 366.475 6.73195 367.637C16.2729 372.955 26.2781 377.395 36.6235 380.899C46.4938 384.377 64.8007 390.015 74.2253 394.481Z" fill="#AC967C"/>
<path d="M134.706 524.322C142.011 524.381 147.888 530.346 147.84 537.652C147.792 544.958 141.837 550.845 134.532 550.807C127.227 550.77 121.332 544.823 121.359 537.517C121.337 533.984 122.742 530.592 125.254 528.108C127.766 525.625 131.174 524.26 134.706 524.322Z" fill="#AC967C"/>
<path d="M719.848 563.063C719.859 568.015 715.869 572.045 710.918 572.082C705.886 572.029 701.836 567.931 701.842 562.898C701.942 557.949 706.017 554.008 710.966 554.073C713.344 554.062 715.625 555.009 717.297 556.701C718.968 558.392 719.888 560.685 719.848 563.063Z" fill="#AC967C"/>
<path d="M729.177 536.519C731.986 536.513 734.274 538.776 734.301 541.585C734.239 544.39 731.981 546.648 729.177 546.71C726.369 546.683 724.11 544.394 724.121 541.585C724.088 540.234 724.611 538.928 725.566 537.971C726.52 537.014 727.825 536.489 729.177 536.519Z" fill="#AC977D"/>
<path d="M410.598 335.678H414.995C417.64 336.23 420.323 335.775 422.986 335.92H444.296C460.762 336.201 477.229 336.336 493.696 337.015C507.15 337.557 520.594 338.303 534.048 338.952C546.53 339.553 559.01 340.199 571.485 340.89C583.961 341.581 596.356 342.226 608.671 342.827C618.638 343.311 628.615 343.728 638.582 344.28C651.861 345.016 665.151 345.714 678.431 346.518C688.63 347.138 698.849 347.651 709.058 348.194C720.072 348.785 731.104 349.163 742.108 349.957C745.914 350.228 749.74 350.316 753.537 350.422C763.601 350.713 773.656 351.139 783.71 351.594C797.726 352.224 811.742 353.018 825.729 354.239C843.803 355.818 861.567 359.306 879.497 361.931C889.386 363.384 899.285 364.701 908.943 367.366C913.285 368.439 917.419 370.227 921.176 372.655C924.392 374.835 926.329 377.547 925.864 381.587C926.077 387.399 922.271 390.645 918.028 393.59C915.52 393.473 913.941 395.314 912.003 396.428C906.498 399.583 900.493 401.772 894.249 402.899C880.92 405.379 867.805 408.886 854.429 411.143C843.309 413.023 832.15 414.544 821.069 416.791C810.216 418.838 799.516 421.631 789.047 425.151C787.439 425.713 785.763 426.033 784.204 426.682C774.669 430.085 764.907 432.814 754.99 434.849C750.874 435.73 746.776 436.738 742.728 437.891C739.667 438.762 739.318 439.993 741.585 442.24C744.413 445.021 747.561 447.471 750.205 450.446C751.59 452.005 753.111 453.478 753.731 455.599C754.797 458.215 756.337 460.898 754.516 463.65C752.327 466.953 750.002 470.14 745.924 471.564C740.742 473.376 735.366 474.161 729.99 474.965C719.078 476.701 708.296 479.17 697.716 482.356C687.468 485.34 676.861 486.444 666.342 488.014C656.656 489.447 647.096 491.104 637.865 494.398C636.553 494.827 635.277 495.358 634.048 495.986C631.143 497.217 628.363 498.66 627.472 502.099C626.894 502.987 626.666 504.057 626.832 505.102C627.229 509.578 626.096 511.244 621.815 512.736C610.191 516.776 598.229 518.791 586.112 520.186C574.817 521.484 563.514 522.695 552.258 524.284C546.631 525.091 540.954 525.499 535.269 525.504C521.427 525.446 507.731 527.093 494.025 528.701C484.591 529.815 475.156 530.736 465.644 530.997C452.38 531.384 439.161 532.744 426.096 535.066C412.535 537.459 398.8 539.135 384.929 538.757C380.875 538.684 376.831 538.344 372.822 537.74C368.287 537.065 364.035 535.12 360.559 532.131C355.88 528.052 350.572 524.894 345.322 521.649C339.121 517.975 334.108 512.594 330.88 506.149C329.104 502.671 326.508 499.678 323.315 497.43C314.288 490.726 304.263 486.057 293.734 482.23C285.084 479.091 276.221 476.747 267.339 474.412C262.437 473.229 257.666 471.554 253.1 469.414C249.449 467.612 245.564 467.554 241.729 467.186C218.366 464.856 195.184 460.972 172.337 455.561C160.297 452.771 148.344 449.68 136.566 445.96C130.599 444.081 124.661 442.085 119.654 438.094C118.327 437.038 117.494 435.391 115.779 434.868C111.294 430.722 106.296 427.302 101.608 423.476C99.9545 422.156 98.542 420.56 97.4334 418.758C93.0843 411.511 86.459 407.23 78.7875 404.304C76.9181 403.587 75.223 402.366 73.1695 402.144C62.6016 397.136 51.7768 392.69 40.7401 388.823C31.3087 385.489 22.1827 381.347 13.4638 376.443C11.7397 375.474 10.558 373.536 8.30107 373.488C7.09029 372.519 5.86983 371.628 4.62031 370.737C2.38239 369.256 0.7445 367.028 0 364.45V362.512C1.11391 357.407 5.06588 355.13 9.31812 353.173C15.5367 350.267 22.2201 349.298 28.9423 348.688C38.3961 347.768 47.7723 346.14 57.2551 345.491C58.8824 345.375 60.4903 345.22 62.0982 345.22H86.0037C97.7046 345.22 109.347 344.174 121.01 343.418C127.248 343.011 133.485 342.65 139.723 342.333C151.802 341.723 163.939 341.451 175.969 340.948C186.517 340.512 197.095 340.773 207.653 340.861C217.019 340.928 226.289 339.824 235.597 339.097C239.394 338.807 243.191 338.41 247.017 338.4C253.43 338.4 259.851 338.332 266.273 338.4C277.161 338.536 288.038 338.022 298.906 337.741C308.002 337.499 317.097 337.509 326.183 337.441C332.963 337.392 339.656 337.79 346.369 338.303C349.129 338.38 351.891 338.208 354.621 337.79C364.598 336.743 374.613 336.637 384.648 336.356C392.843 336.133 401.037 336.191 409.232 335.93C409.702 335.994 410.181 335.906 410.598 335.678Z" fill="#2EBF8B"/>
<path d="M201.061 336.909L279.217 172.825C280.413 170.314 282.953 168.719 285.737 168.732C288.521 168.744 291.047 170.362 292.22 172.884L368.582 336.968C369.613 339.192 369.44 341.788 368.121 343.855C366.802 345.922 364.519 347.175 362.066 347.179H207.558C205.092 347.178 202.798 345.914 201.48 343.831C200.162 341.748 200.004 339.136 201.061 336.909V336.909Z" fill="#3D996E"/>
<path d="M342.255 326.194C337.484 333.819 327.865 336.851 318.925 337.82C308.113 339.07 296.351 338.024 287.789 331.31C279.226 324.595 275.687 310.867 282.678 302.525C286.257 298.253 291.764 296.102 295.895 292.362C300.026 288.622 302.402 281.53 298.339 277.723C296.797 276.269 294.683 275.659 292.753 274.816C287.643 272.578 283.144 266.513 285.966 261.698C288.196 257.823 293.49 257.377 297.194 254.916C303.012 251.041 303.604 241.284 298.242 236.74C296.739 235.481 294.858 234.522 293.975 232.778C292.366 229.59 295.022 225.841 298.009 223.894C300.996 221.946 304.642 220.628 306.552 217.615C308.578 214.428 308.064 210.272 309.17 206.658C310.275 203.044 314.988 199.876 317.625 202.647C319.225 204.342 318.77 207.094 319.652 209.254C322.173 215.435 333.906 214.205 334.953 220.803C335.564 224.678 331.666 227.585 328.476 229.881C325.286 232.177 322.086 236.363 324.277 239.628C325.048 240.636 326.086 241.408 327.274 241.856C330.958 243.503 335.128 243.968 338.638 245.954C342.148 247.94 344.883 252.426 342.963 255.972C340.102 261.281 330.357 259.334 327.894 264.837C326.663 267.589 328.137 270.902 330.377 272.927C332.617 274.952 335.506 276.066 338.134 277.568C346.743 282.649 352.239 291.696 352.776 301.673C353.212 311.497 350.303 320.536 342.236 326.155" fill="#B88DFC"/>
<path d="M313.989 224.813L310.518 359.648C310.518 359.648 312.253 363.116 315.938 359.648L313.989 224.813Z" fill="#7F50D8"/>
<path d="M314.047 231.664C313.953 231.669 313.861 231.635 313.794 231.568C313.727 231.501 313.692 231.409 313.698 231.315C313.703 231.126 313.858 230.976 314.047 230.976V230.976C319.962 230.976 324.325 224.678 324.364 224.62C324.481 224.492 324.675 224.469 324.819 224.566C324.962 224.663 325.013 224.852 324.936 225.008C324.752 225.279 320.321 231.664 314.047 231.664Z" fill="#695889"/>
<path d="M314.067 260.313C313.895 260.299 313.759 260.162 313.747 259.99C313.735 259.818 313.85 259.663 314.018 259.625C314.115 259.625 323.783 258.211 325.654 250.634C325.675 250.545 325.731 250.467 325.81 250.42C325.888 250.373 325.983 250.359 326.071 250.382C326.256 250.434 326.367 250.622 326.324 250.809C324.326 258.84 314.203 260.294 314.096 260.313H314.067Z" fill="#695889"/>
<path d="M313.436 300.907H313.31C313.117 300.907 312.961 300.751 312.961 300.558C312.961 300.366 313.117 300.209 313.31 300.209H313.426C329.193 300.209 331.569 291.887 331.588 291.8C331.611 291.712 331.668 291.637 331.746 291.592C331.825 291.546 331.918 291.534 332.005 291.558C332.095 291.578 332.172 291.634 332.22 291.713C332.267 291.791 332.281 291.885 332.257 291.974C332.16 292.342 329.717 300.907 313.436 300.907Z" fill="#7F50D8"/>
<path d="M311.584 321.747C309.956 321.754 308.332 321.595 306.736 321.272C295.672 319.005 290.513 309.326 290.465 309.229C290.41 309.067 290.481 308.888 290.633 308.809C290.786 308.729 290.973 308.772 291.076 308.91C291.076 309.007 296.147 318.404 306.881 320.594C316.229 322.532 326.992 318.53 338.88 308.803C338.949 308.741 339.041 308.711 339.133 308.72C339.226 308.73 339.31 308.777 339.365 308.852C339.483 308.999 339.462 309.214 339.317 309.336C329.271 317.591 319.952 321.747 311.584 321.747Z" fill="#7F50D8"/>
<path d="M125.039 351.152C124.942 359.779 131.861 366.853 140.496 366.954C141.575 366.951 142.651 366.834 143.705 366.605H303.003C309.777 366.605 315.269 361.118 315.269 354.349C315.269 347.58 309.777 342.093 303.003 342.093H301.063C301.118 337.55 299.363 333.171 296.186 329.921C293.01 326.67 288.67 324.814 284.123 324.76C281.037 324.768 278.014 325.637 275.396 327.27C271.482 321.391 264.712 318.062 257.662 318.551C250.612 319.04 244.367 323.271 241.303 329.634C239.249 325.564 235.04 323.032 230.479 323.125C225.919 323.219 221.816 325.919 219.931 330.07C218.078 324.677 213.094 320.978 207.391 320.764C201.688 320.549 196.441 323.862 194.186 329.101C189.461 322.932 182.131 319.315 174.357 319.315C162.73 319.419 152.662 327.403 149.921 338.692C147.239 336.534 143.9 335.354 140.457 335.35C131.837 335.472 124.942 342.539 125.039 351.152Z" fill="#8A8ABF"/>
<path d="M420.953 312.902C420.953 312.902 448.948 286.414 466.004 291.335C483.061 296.257 472.045 315.925 472.045 315.925H416.037L420.953 312.902Z" fill="#7565C9"/>
<path d="M475.556 306.75H457.307L462.029 290.657L462.679 290.851L458.218 306.072H475.556V306.75V306.75Z" fill="#7CD19E"/>
<path d="M445.525 316.264C445.468 316.277 445.408 316.277 445.351 316.264C445.234 316.188 445.171 316.053 445.186 315.915L447.862 298.573C447.869 298.445 447.948 298.331 448.066 298.28C448.184 298.229 448.32 298.249 448.419 298.331C448.517 298.414 448.561 298.545 448.531 298.67L445.991 315.14L472.269 294.707C472.363 294.622 472.497 294.596 472.616 294.641C472.735 294.685 472.819 294.793 472.834 294.919C472.848 295.045 472.791 295.169 472.686 295.24L445.729 316.196C445.672 316.243 445.599 316.267 445.525 316.264V316.264Z" fill="#7CD19E"/>
<path d="M392.174 315.924C392.174 315.924 430.039 265.544 454.659 261.959C479.279 258.375 456.172 288.942 456.172 288.942L433.87 315.924H392.174Z" fill="#5F45BA"/>
<path d="M416.038 316.263C415.942 316.267 415.849 316.228 415.785 316.157C415.656 316.025 415.656 315.814 415.785 315.682C423.378 308.59 461.69 262.211 462.078 261.737C462.14 261.672 462.225 261.636 462.315 261.636C462.405 261.636 462.491 261.672 462.553 261.737C462.682 261.869 462.682 262.08 462.553 262.211C462.165 262.677 423.824 309.094 416.193 316.215C416.146 316.244 416.093 316.261 416.038 316.263Z" fill="#C487F4"/>
<path d="M436.439 293.253H436.371C436.282 293.237 436.204 293.186 436.153 293.111C436.102 293.036 436.083 292.945 436.1 292.856L440.638 267.433C440.677 267.251 440.85 267.128 441.035 267.152C441.217 267.191 441.337 267.366 441.307 267.55L436.769 292.982C436.737 293.139 436.599 293.252 436.439 293.253Z" fill="#C487F4"/>
<path d="M446.485 281.356C446.338 281.353 446.207 281.261 446.155 281.123C446.128 281.037 446.136 280.944 446.178 280.863C446.22 280.783 446.292 280.723 446.379 280.697L464.017 275.116C464.196 275.065 464.383 275.163 464.443 275.339C464.471 275.425 464.463 275.518 464.421 275.598C464.379 275.678 464.307 275.739 464.22 275.765L446.582 281.336C446.552 281.352 446.519 281.359 446.485 281.356V281.356Z" fill="#C487F4"/>
<path d="M453.622 292.022L432.153 297.932" stroke="#C487F4" stroke-width="0.7" stroke-linecap="round" stroke-linejoin="round"/>
<path d="M464.928 290.909C464.928 290.909 438.378 286.345 405.836 313.086L394.287 321.679C394.287 321.679 433.171 315.275 449.044 303.087L464.928 290.909Z" fill="#2A8693"/>
<path d="M451.022 330.835C451.022 330.835 436.817 309.579 394.529 321.863C394.529 321.863 400.522 330.874 420.235 329.372C439.949 327.87 443.856 323.346 451.022 330.835Z" fill="#2A8693"/>
<path d="M423.911 256.107C423.911 256.107 424.88 296.663 394.588 321.989C394.588 321.989 394.578 277.887 423.911 256.107Z" fill="#2A8693"/>
<path d="M452.215 295.346C452.215 295.346 417.743 313.793 406.107 316.06Z" fill="#2EBF8B"/>
<path d="M396.924 315.973C396.806 315.975 396.699 315.906 396.652 315.797C396.605 315.689 396.628 315.563 396.711 315.479C411.256 300.5 415.746 270.369 415.794 270.069C415.801 269.99 415.841 269.918 415.904 269.87C415.966 269.822 416.046 269.803 416.124 269.817C416.201 269.827 416.272 269.867 416.319 269.929C416.367 269.991 416.387 270.069 416.376 270.146C416.376 270.456 411.828 300.772 397.128 315.886C397.074 315.94 397.001 315.972 396.924 315.973Z" fill="#2EBF8B"/>
<path d="M431.241 324.488C431.241 324.488 411.634 320.303 397.933 320.07Z" fill="#2EBF8B"/>
<path d="M554.603 330.806C554.603 339.525 547.864 346.608 539.554 346.608C538.5 346.605 537.45 346.489 536.422 346.259H381.275C374.826 346.259 369.639 340.775 369.639 334.003C369.639 327.231 374.865 321.747 381.275 321.747H383.127C383.127 312.175 390.516 304.414 399.611 304.414C402.631 304.42 405.585 305.291 408.125 306.924C411.853 301.055 418.503 297.705 425.442 298.198C432.38 298.692 438.488 302.951 441.346 309.288C443.267 305.218 447.402 302.657 451.905 302.747C456.407 302.837 460.437 305.561 462.194 309.704C463.885 304.344 468.764 300.622 474.385 300.405C480.007 300.188 485.159 303.521 487.26 308.735C491.782 302.618 498.925 298.988 506.537 298.94C517.989 298.94 527.588 307.176 530.332 318.317C532.929 316.168 536.192 314.986 539.564 314.975C547.864 314.994 554.603 322.076 554.603 330.806Z" fill="#8A8ABF"/>
<path d="M339.966 337.626C346.279 347.993 359.03 352.072 370.889 353.467C385.221 355.162 400.823 353.748 412.168 344.612C423.513 335.475 428.206 316.806 418.956 305.46C414.204 299.647 406.912 296.741 401.434 291.645C395.955 286.549 392.804 276.909 398.195 271.725C400.231 269.787 403.043 268.925 405.603 267.763C412.391 264.711 418.335 256.476 414.621 249.916C411.712 244.694 404.643 244.045 399.737 240.693C391.979 235.393 391.233 222.159 398.35 215.978C400.289 214.263 402.83 212.965 404.003 210.581C406.127 206.25 402.617 201.154 398.651 198.5C394.685 195.845 389.865 194.053 387.325 189.964C384.639 185.624 385.327 179.985 383.863 175.063C382.399 170.142 376.106 165.869 372.644 169.609C370.521 171.915 371.141 175.654 369.968 178.59C366.622 186.999 351.069 185.372 349.682 194.305C348.868 199.585 354.036 203.518 358.264 206.648C362.492 209.777 366.739 215.464 363.83 219.902C362.814 221.264 361.437 222.314 359.854 222.934C355.006 225.172 349.45 225.841 344.785 228.515C340.121 231.189 336.514 237.312 339.055 242.137C342.846 249.354 355.772 246.71 359.04 254.189C360.669 257.938 358.72 262.444 355.743 265.195C352.766 267.947 348.955 269.468 345.474 271.512C333.941 278.555 326.646 290.847 325.993 304.337C325.421 317.687 329.28 329.982 339.976 337.626" fill="#8BF18B"/>
<path d="M377.483 199.798L382.089 383.181C382.089 383.181 379.781 387.9 374.894 383.181L377.483 199.798Z" fill="#988976"/>
<path d="M377.357 209.109C369.027 209.109 363.161 200.389 362.908 200.05C362.775 199.836 362.836 199.555 363.046 199.416C363.256 199.277 363.539 199.33 363.684 199.537C363.742 199.624 369.502 208.179 377.357 208.179V208.179C377.481 208.176 377.601 208.224 377.689 208.312C377.776 208.4 377.825 208.52 377.822 208.644C377.822 208.901 377.614 209.109 377.357 209.109V209.109Z" fill="#988976"/>
<path d="M377.337 248.017H377.269C377.133 248.017 363.694 246.012 361.066 235.083C361.011 234.838 361.161 234.593 361.405 234.531C361.525 234.499 361.653 234.517 361.759 234.581C361.865 234.645 361.94 234.749 361.968 234.87C364.46 245.188 377.269 247.078 377.395 247.097C377.625 247.142 377.785 247.35 377.77 247.583C377.756 247.816 377.57 248.002 377.337 248.017V248.017Z" fill="#988976"/>
<path d="M378.171 303.281C356.577 303.281 353.338 291.655 353.212 291.131C353.185 290.901 353.332 290.686 353.557 290.627C353.782 290.569 354.015 290.685 354.104 290.899C354.104 291.015 357.353 302.351 378.181 302.351H378.327C378.584 302.351 378.792 302.559 378.792 302.816C378.792 302.938 378.743 303.056 378.655 303.141C378.568 303.227 378.449 303.274 378.327 303.271L378.171 303.281Z" fill="#988976"/>
<path d="M380.625 331.629C369.522 331.629 357.178 325.971 343.777 314.742C343.584 314.578 343.558 314.289 343.719 314.093C343.796 313.998 343.909 313.938 344.031 313.927C344.154 313.916 344.275 313.955 344.369 314.035C360.029 327.201 374.234 332.608 386.578 330.108C400.929 327.201 407.64 314.306 407.707 314.18C407.762 314.07 407.858 313.986 407.975 313.948C408.092 313.909 408.219 313.92 408.328 313.977C408.554 314.093 408.645 314.369 408.532 314.597C408.464 314.732 401.56 328.006 386.782 331.009C384.756 331.422 382.693 331.63 380.625 331.629V331.629Z" fill="#988976"/>
<path d="M221.289 393.045H401.085C401.085 393.045 386.54 355.105 351.952 369.608C351.952 369.608 326.266 326.175 283.823 366.305C283.823 366.305 239.16 335.02 221.289 393.045Z" fill="url(#paint0_linear)"/>
<path d="M346.24 412.208C346.24 412.208 338.997 420.86 335.37 430.316V440.973C335.37 440.973 347.249 431.12 346.24 412.208Z" fill="#069F98"/>
<path d="M334.837 445.594L335.37 425.694C335.37 412.004 329.058 410.066 329.058 410.066" stroke="#069F98" stroke-width="2.67" stroke-linecap="round" stroke-linejoin="round"/>
<path d="M310.246 429.918C310.246 429.918 325.489 429.085 330.473 433.736C330.473 433.736 334.352 438.58 334.876 443.192C334.837 443.182 315.734 435.954 310.246 429.918Z" fill="#069F98"/>
<path opacity="0.8" d="M309.461 404.06C309.461 404.06 319.72 416.548 333.906 410.958C348.092 405.368 349.198 394.924 349.76 388.403C349.76 388.403 349.76 382.261 345.882 382.251C343.409 382.251 341.586 385.419 341.586 385.419C340.81 386.388 339.85 389.779 337.862 386.543C335.506 382.668 332.044 382.115 330.396 382.668C328.747 383.22 328.069 385.971 327.739 387.425C327.409 388.878 326.449 389.459 324.238 388.219C322.561 387.25 321.717 385.468 319.293 386.911C316.869 388.355 318.643 391.949 318.643 391.949C318.643 391.949 320.651 395.67 316.025 393.809C316.025 393.809 310.605 392.404 308.006 395.485C304.981 399.031 309.461 404.06 309.461 404.06Z" fill="#A97DFF"/>
<path d="M310.11 420.394C310.11 420.394 325.072 424.551 331.647 412.314C338.221 400.078 332.568 391.232 328.941 385.777C328.941 385.777 325.15 380.933 322.367 383.103C320.621 384.469 321.291 387.948 321.291 387.948C321.291 389.12 322.755 392.336 319.351 390.854C315.327 389.139 312.563 390.563 311.681 391.93C310.799 393.296 312.079 395.805 312.738 397.142C313.397 398.479 313.087 399.457 310.799 399.7C309.024 399.893 307.318 398.934 306.493 401.415C305.718 403.74 309.141 405.736 309.141 405.736C309.141 405.736 312.854 407.557 308.442 408.642C308.442 408.642 303.739 410.58 303.807 414.397C303.798 418.912 310.11 420.394 310.11 420.394Z" fill="#7461CE"/>
<path d="M430.456 358.021C433.349 361.778 435.705 365.919 437.457 370.325V377.543C437.457 377.543 429.806 370.877 430.456 358.021Z" fill="#069F98"/>
<path d="M437.797 380.71L437.458 367.147C437.458 357.846 441.521 356.489 441.521 356.489" stroke="#069F98" stroke-width="1.76" stroke-linecap="round" stroke-linejoin="round"/>
<path d="M453.622 370.054C453.622 370.054 443.809 369.492 440.628 372.64C440.628 372.64 438.126 375.915 437.787 379.064C437.797 379.064 450.102 374.152 453.622 370.054Z" fill="#069F98"/>
<path opacity="0.8" d="M454.136 352.488C454.136 352.488 447.532 360.976 438.398 357.168C429.264 353.36 428.546 346.278 428.188 341.841C428.188 341.841 428.188 337.675 430.709 337.665C432.299 337.665 433.472 339.816 433.472 339.816C433.976 340.465 434.597 342.781 435.877 340.581C437.39 337.975 439.601 337.568 440.725 337.946C441.85 338.324 442.219 340.194 442.432 341.182C442.645 342.17 443.266 342.567 444.682 341.715C445.768 341.075 446.311 339.845 447.872 340.833C449.433 341.821 448.289 344.253 448.289 344.253C448.289 344.253 446.999 346.782 449.976 345.522C449.976 345.522 453.467 344.554 455.135 346.656C457.016 349.068 454.136 352.488 454.136 352.488Z" fill="#A97DFF"/>
<path d="M453.748 363.591C453.748 363.591 444.109 366.41 439.881 358.088C435.654 349.766 439.29 343.759 441.627 340.058C441.627 340.058 444.061 336.773 445.855 338.246C446.979 339.166 446.553 341.55 446.553 341.55C446.553 342.354 445.583 344.534 447.804 343.555C450.393 342.393 452.196 343.362 452.739 344.292C453.282 345.222 452.477 346.927 452.06 347.828C451.643 348.729 451.837 349.407 453.331 349.572C454.475 349.698 455.571 349.049 456.104 350.734C456.637 352.42 454.397 353.641 454.397 353.641C454.397 353.641 452.002 354.881 454.853 355.579C454.853 355.579 457.878 356.867 457.83 359.454C457.781 362.574 453.748 363.591 453.748 363.591Z" fill="#7461CE"/>
<rect x="402.589" y="454.188" width="1.83268" height="24.2599" rx="0.916339" fill="#00896F"/>
<path d="M403.277 454.188C403.277 454.188 398.593 465.398 375.864 457.589C375.864 457.589 393.619 436.022 403.277 450.642C403.277 450.642 407.156 438.435 426.142 450.642C426.142 450.642 416.348 463.974 403.277 454.188Z" fill="#00896F"/>
<path d="M390.7 454.944C390.514 454.945 390.333 454.876 390.196 454.75C389.886 454.471 389.86 453.995 390.138 453.684C394.812 448.414 401.376 450.913 403.325 451.843C408.28 446.418 414.486 450.506 414.554 450.545C414.9 450.782 414.991 451.253 414.758 451.601C414.518 451.942 414.051 452.032 413.701 451.805C413.478 451.659 408.232 448.239 404.101 453.267C403.861 453.55 403.455 453.623 403.131 453.442C402.841 453.277 395.966 449.402 391.272 454.692C391.125 454.852 390.918 454.944 390.7 454.944V454.944Z" fill="#0C6D5B"/>
<rect x="773.526" y="371.594" width="1.41572" height="18.7375" rx="0.70786" fill="#00896F"/>
<path d="M774.05 371.594C774.05 371.594 770.433 380.246 752.872 374.22C752.872 374.22 766.593 357.555 774.05 368.852C774.05 368.852 777.017 359.416 791.717 368.852C791.717 368.823 784.144 379.151 774.05 371.594Z" fill="#00896F"/>
<path d="M764.343 372.175C764.2 372.177 764.062 372.125 763.955 372.03C763.709 371.816 763.683 371.443 763.897 371.197C767.514 367.127 772.624 369.065 774.088 369.772C777.967 365.587 782.708 368.745 782.815 368.804C783.076 368.99 783.144 369.348 782.97 369.617C782.79 369.886 782.427 369.959 782.156 369.782C781.981 369.666 777.928 367.021 774.738 370.906C774.557 371.129 774.239 371.187 773.991 371.042C773.768 370.916 768.454 367.922 764.828 372.01C764.699 372.135 764.521 372.195 764.343 372.175V372.175Z" fill="#0C6D5B"/>
<rect x="281.971" y="390.486" width="1.41572" height="18.7375" rx="0.70786" fill="#00896F"/>
<path d="M282.504 390.477C282.504 390.477 278.887 399.138 261.326 393.112C261.326 393.112 275.047 376.448 282.504 387.745C282.504 387.745 285.471 378.308 300.171 387.745C300.171 387.745 292.598 398.044 282.504 390.477Z" fill="#00896F"/>
<path d="M272.788 391.107C272.645 391.106 272.508 391.054 272.4 390.961C272.157 390.745 272.135 390.372 272.351 390.128C275.968 386.059 281.078 387.997 282.543 388.704C286.373 384.519 291.163 387.677 291.211 387.735C291.422 387.933 291.459 388.255 291.298 388.495C291.137 388.735 290.825 388.824 290.562 388.704C290.387 388.588 286.334 385.943 283.144 389.828C282.959 390.053 282.639 390.11 282.387 389.964C282.164 389.838 276.86 386.844 273.234 390.932C273.115 391.049 272.954 391.112 272.788 391.107V391.107Z" fill="#0C6D5B"/>
<path d="M259.591 424.047C259.49 425.661 260.37 427.178 261.821 427.893C263.273 428.609 265.012 428.383 266.233 427.322C267.451 426.251 267.905 424.554 267.383 423.019C266.861 421.484 265.466 420.414 263.848 420.307C262.787 420.238 261.742 420.594 260.943 421.295C260.145 421.997 259.658 422.987 259.591 424.047V424.047Z" fill="white"/>
<path d="M273.002 446.864C272.56 446.863 272.187 446.536 272.129 446.098C272.129 445.972 270.393 433.842 265.545 427.923C265.394 427.741 265.323 427.506 265.346 427.271C265.37 427.036 265.487 426.821 265.671 426.673C266.052 426.364 266.61 426.42 266.922 426.799C272.09 433.106 273.816 445.333 273.884 445.856C273.936 446.33 273.601 446.759 273.128 446.825L273.002 446.864Z" fill="#00896F"/>
<path d="M704.766 437.534C704.734 438.572 704.285 439.554 703.521 440.259C702.757 440.964 701.742 441.333 700.704 441.283C699.686 441.212 698.743 440.725 698.095 439.937C697.41 439.129 697.062 438.088 697.125 437.03C697.175 435.644 697.974 434.394 699.213 433.768C700.452 433.141 701.934 433.238 703.081 434.019C704.228 434.8 704.859 436.143 704.728 437.524L704.766 437.534Z" fill="white"/>
<path d="M689.349 458.393C689.278 458.403 689.206 458.403 689.136 458.393C688.913 458.337 688.723 458.192 688.608 457.994C688.493 457.795 688.463 457.558 688.525 457.337C688.651 456.833 691.841 444.946 697.514 439.355C697.851 439.024 698.394 439.028 698.726 439.365C699.058 439.702 699.053 440.244 698.716 440.576C693.373 445.847 690.212 457.657 690.183 457.783C690.068 458.147 689.731 458.394 689.349 458.393V458.393Z" fill="#00896F"/>
<path d="M827.74 369.792C827.705 370.829 827.255 371.808 826.492 372.511C825.728 373.214 824.714 373.582 823.677 373.532C822.658 373.465 821.713 372.977 821.069 372.185C820.383 371.377 820.036 370.336 820.099 369.279C820.154 367.895 820.956 366.651 822.194 366.028C823.432 365.406 824.91 365.504 826.054 366.284C827.199 367.065 827.83 368.404 827.701 369.782L827.74 369.792Z" fill="white"/>
<path d="M812.303 390.613C812.232 390.622 812.16 390.622 812.089 390.613C811.869 390.556 811.68 390.414 811.565 390.217C811.451 390.021 811.419 389.786 811.478 389.567C811.604 389.063 814.795 377.175 820.467 371.575C820.805 371.243 821.347 371.248 821.679 371.585C822.011 371.922 822.007 372.464 821.67 372.796C816.327 378.066 813.166 389.886 813.136 390.003C813.019 390.364 812.683 390.611 812.303 390.613V390.613Z" fill="#00896F"/>
<path d="M612.26 418.864C654.144 418.864 688.098 408.506 688.098 395.728C688.098 382.95 654.144 372.592 612.26 372.592C570.376 372.592 536.422 382.95 536.422 395.728C536.422 408.506 570.376 418.864 612.26 418.864Z" fill="url(#paint1_linear)"/>
<path fill-rule="evenodd" clip-rule="evenodd" d="M558.046 414.03C572.504 418.448 591.81 420.889 612.26 420.889C632.71 420.889 651.968 418.448 666.484 414.03C681.95 409.292 690.134 402.985 690.134 395.728C690.134 388.472 681.999 382.145 666.484 377.417C651.968 372.999 632.71 370.558 612.26 370.558C591.81 370.558 572.591 372.999 558.046 377.417C542.57 382.164 534.396 388.481 534.396 395.728C534.396 402.975 542.531 409.302 558.046 414.03ZM559.238 381.312C573.367 377 592.207 374.627 612.26 374.627V374.636C632.323 374.636 651.154 377 665.291 381.312C678.304 385.284 686.062 390.681 686.062 395.728C686.062 400.776 678.295 406.163 665.291 410.135C651.154 414.446 632.313 416.82 612.26 416.82C592.207 416.82 573.367 414.446 559.238 410.135C546.225 406.163 538.468 400.786 538.468 395.728C538.468 390.671 546.225 385.284 559.238 381.312Z" fill="#37DD9E"/>
<path d="M643.729 272.825C645.984 274.703 646.632 276.696 645.548 279.725C645.452 280.276 645.316 280.82 645.142 281.351C644.445 282.59 643.642 283.771 642.781 285.135C643.264 285.24 643.742 285.369 644.213 285.522C647.61 286.809 651.065 287.99 654.365 289.5C655.857 290.255 657.175 291.313 658.236 292.606C659.4 294.129 660.47 295.722 661.439 297.377C661.545 297.532 661.536 298.887 661.748 298.974C662.068 300.633 662.068 302.337 661.748 303.996C661.429 304.258 661.284 305.525 661.11 305.864C660.045 307.916 658.865 309.851 656.629 310.829C655.303 311.409 653.968 311.951 652.632 312.513C651.094 312.513 649.545 312.619 648.016 312.513C646.738 312.338 645.473 312.073 644.232 311.719C643.584 311.564 643.178 311.622 642.965 312.396C642.568 313.896 642.723 315.571 641.6 316.858C641.429 317.139 641.305 317.446 641.232 317.767C639.422 319.588 637.074 320.779 634.536 321.164C632.96 321.253 631.39 320.918 629.987 320.196C628.476 319.388 627.047 318.435 625.719 317.351C625.372 317.016 625.049 316.657 624.752 316.277C624.568 316.103 624.248 315.909 624.055 315.958C623.861 316.006 623.678 316.364 623.658 316.606C623.558 317.133 623.581 317.676 623.726 318.193C623.726 320.4 623.726 321.338 623.678 323.322C623.69 323.401 623.709 323.479 623.736 323.554C623.736 323.632 624.365 324.087 624.374 324.174C624.374 325.393 624.374 326.109 624.374 327.309C624.374 327.396 624.374 327.861 624.374 327.938C624.374 328.683 624.065 329.39 624.055 330.135C623.639 330.667 623.658 331.771 623.087 332.022C620.939 332.99 617.184 333.958 614.919 332.022C614.668 331.683 614.223 331.422 613.952 331.054C613.681 330.687 613.216 329.496 612.984 329.167C613.081 325.171 613.555 321.542 613.613 317.554C613.634 316.982 613.582 316.41 613.458 315.851C613.032 316.025 612.597 316.161 612.181 316.364C611.765 316.567 611.416 316.838 611.039 317.08L607.71 319.19C606.994 319.48 606.287 319.819 605.552 320.071C604.465 320.556 603.325 320.913 602.155 321.135C600.385 321.227 598.612 321.227 596.842 321.135L593.726 320.283C591.645 319.722 589.748 318.987 588.655 316.867C587.881 315.604 588.135 313.966 589.255 312.996C589.478 312.832 589.681 312.658 590.087 312.338C589.669 312.107 589.235 311.904 588.79 311.729C587.929 311.477 587.039 311.351 586.207 311.051C584.136 310.325 582.065 309.609 580.052 308.748C579.084 308.342 572.765 303.59 571.903 303.009C573.713 302.903 572.6 292.713 574.41 292.645C576.626 292.558 579.248 292.732 581.01 291.067C582.248 289.867 583.168 284.042 584.465 282.9C585.684 282.551 596.252 295.422 597.345 294.842C601.545 292.616 604.119 290.129 607.71 286.983C608.484 286.306 612.878 287.951 613.681 287.303C613.807 288.038 619.052 290.545 619.023 291.067C618.897 293.08 616.061 293.593 616.507 295.471C617.658 300.309 614.852 295.064 619.961 295.471C622.081 295.635 622.545 296.99 623.736 294.842C624.297 293.806 626 295.538 626.871 295.809C628.342 296.225 630.113 295.422 631.584 295.809C633.694 296.371 635.019 295.548 637.245 295.18C640.739 294.609 638.503 297.542 641.329 295.5C642.49 294.648 642.578 295.674 643.526 294.532C644.194 293.748 645.723 295.18 645.094 294.532C643.042 292.442 643.623 294.629 640.7 293.903C638.765 293.448 639.568 292.935 637.555 293.593C636.8 293.825 631.11 290.777 630.016 291.077C631.778 289.403 631.11 282.803 632.532 281.342C635.513 278.274 635.958 280.703 633.5 277.258C632.726 276.183 632.078 277.083 630.984 276.29C629.523 275.254 626.89 278.448 625.332 277.538C626.484 277.48 633.616 270.871 634.768 270.812C635.146 271.099 635.572 271.315 636.026 271.451C637.507 271.645 639.007 271.645 640.487 271.867C641.586 272.122 642.669 272.442 643.729 272.825V272.825Z" fill="#387F76"/>
<path d="M589.207 287.032C588.239 285.784 590.174 281.71 589.207 280.442C588.984 280.132 589.207 277.606 592.729 275.603C594.965 274.684 597.161 273.668 599.648 273.59C599.881 273.753 600.123 273.902 600.374 274.035C601.574 274.568 602.794 275.081 604.003 275.594L605.687 276.281C606.103 276.184 606.655 276.213 606.926 275.961C609.723 273.552 613.081 272.439 616.603 271.703C621.048 270.92 625.567 270.638 630.074 270.861C630.515 270.902 630.951 270.977 631.381 271.084C632.939 271.994 634.555 272.806 636.026 273.832C637.138 274.587 638.119 275.518 638.929 276.59C641.416 280.035 641.174 282.648 638.184 285.716C636.771 287.177 635.281 288.542 633.49 290.216C634.584 289.916 635.358 289.732 636.113 289.5C638.126 288.871 639.984 289.606 641.919 290.071C644.823 290.787 647.097 292.665 649.158 294.765C649.857 295.372 649.939 296.428 649.342 297.135C648.457 298.291 647.444 299.343 646.323 300.271C643.559 302.378 640.335 303.801 636.916 304.423C634.744 304.678 632.542 304.46 630.461 303.784C628.99 303.397 627.558 302.816 626.097 302.439C625.708 302.247 625.258 302.223 624.852 302.373C624.446 302.524 624.119 302.834 623.948 303.232C622.758 305.39 620.561 305.661 618.452 305.497C613.332 305.09 611.358 302.71 610.216 297.9C609.761 296.023 610.323 293.903 610.448 291.9C610.525 291.309 610.525 290.71 610.448 290.119C609.645 290.758 608.803 291.358 608.039 292.055C604.541 295.238 600.679 297.996 596.532 300.271C595.36 300.755 594.14 301.118 592.894 301.355C589.207 301.81 583.642 304.258 584.494 300.242C584.842 298.587 586.932 297.871 587.01 296.158C585.752 291.755 588.81 291.755 588.897 291.445C589.4 289.558 591.19 287.168 589.207 287.032Z" fill="#2FB1A0"/>
<path d="M477.374 423.367C479.464 428.206 484.468 431.632 488.368 434.98C489.918 436.22 491.606 437.275 493.4 438.125C493.952 438.435 491.464 441.425 491.968 441.764C491.018 442.035 490.047 442.219 489.064 442.316C487.468 442.316 485.861 441.987 484.226 442.054C481.367 442.07 478.571 441.212 476.213 439.596C474.094 438.319 473.561 436.045 473.048 433.79C472.295 431.23 472.591 428.476 473.871 426.135C474.991 425.153 476.16 424.23 477.374 423.367Z" fill="#88889F"/>
<path d="M539.872 447.967C539.872 446.032 539.01 443.671 540.839 443.129C545.465 441.832 547.178 438.735 550.894 435.9C556.991 431.264 558.53 426.59 559.691 419.255C559.884 418.045 559.178 417.474 559.372 416.109C562.062 416.245 569.494 416.438 572.078 416.574C572.446 416.628 572.819 416.654 573.191 416.651C574.216 416.512 575.252 416.819 576.036 417.493C577.12 419.274 578.223 421.045 579.268 422.845C580.013 424.122 579.268 425.051 578.378 425.864C577.507 426.686 576.582 427.449 575.61 428.148C572.872 430.016 570.975 432.658 568.894 435.155C567.215 437.19 565.387 439.098 563.426 440.864C560.999 443.156 558.394 445.253 555.636 447.135C551.552 449.767 546.868 450.038 542.136 449.632C541.127 449.551 540.25 448.907 539.872 447.967V447.967Z" fill="#87879F"/>
<path d="M576.956 337.297C580.826 337.297 583.43 337.297 587.32 337.297C587.688 337.394 590.01 337.49 590.465 337.607C590.223 338.042 589.652 339.542 589.497 339.813C588.258 342.246 587.596 344.931 587.562 347.661C587.388 348.745 587.736 350.352 587.562 351.436C587.456 351.697 587.378 352.655 587.243 353.003C585.046 352.694 583.159 353.003 581.281 351.116C579.704 350.148 579.888 349.965 579.394 349.858C577.541 349.391 575.915 348.28 574.807 346.723C574.565 346.403 572.823 344.865 572.61 344.526C573.568 342.155 575.949 339.668 576.956 337.297Z" fill="#747483"/>
<path fill-rule="evenodd" clip-rule="evenodd" d="M597.955 290.274C598.182 288.574 598.273 286.859 598.226 285.145L595.972 280.422C595.729 280.103 595.486 279.785 595.242 279.467C594.532 278.539 593.821 277.609 593.136 276.658C593.05 276.528 592.925 276.405 592.799 276.28C592.613 276.097 592.423 275.909 592.342 275.69C591.945 275.078 591.644 274.432 591.342 273.786C591.086 273.237 590.829 272.687 590.513 272.158C589.795 270.95 589.122 269.708 588.447 268.463C586.959 265.718 585.466 262.962 583.468 260.545C583.195 260.217 582.927 259.884 582.66 259.551C581.13 257.646 579.612 255.756 577.091 254.932C576.44 254.725 575.793 254.496 575.146 254.268C574.042 253.877 572.936 253.487 571.807 253.2C570.284 252.812 568.734 252.522 567.14 252.223C566.425 252.089 565.7 251.953 564.965 251.806C565.044 251.735 565.117 251.669 565.185 251.606C565.357 251.448 565.502 251.315 565.662 251.197C570.088 247.748 574.116 243.817 577.672 239.477C578.851 238.073 580.016 236.656 581.181 235.239C583.18 232.807 585.18 230.376 587.252 228.009C590.491 224.272 593.354 220.223 595.797 215.922C599.783 208.915 602.277 201.159 603.123 193.142C602.254 193.805 601.365 194.467 600.468 195.136C599.218 196.068 597.952 197.011 596.707 197.98C595.364 199.027 594.016 200.073 592.666 201.121C588.686 204.211 584.69 207.313 580.759 210.464C577.152 213.32 573.661 216.301 570.18 219.272L570.113 219.329C569.996 219.429 569.878 219.529 569.76 219.63C567.525 221.533 565.281 223.444 563.194 225.503C559.586 228.894 556.15 232.463 552.897 236.197C548.772 241.177 545.901 247.074 544.526 253.393C544.467 253.836 544.238 254.239 543.888 254.516C542.94 254.993 541.951 255.405 540.899 255.842C540.502 256.008 540.095 256.177 539.678 256.355C539.645 255.777 539.621 255.21 539.597 254.652C539.542 253.395 539.49 252.18 539.349 250.974C539.289 250.435 539.23 249.896 539.17 249.357C538.661 244.74 538.15 240.1 537.413 235.49C536.479 229.692 535.351 223.918 534.226 218.155C534.14 217.714 534.054 217.273 533.968 216.832C533.34 213.565 532.61 210.392 531.873 207.192C531.826 206.99 531.78 206.787 531.733 206.584C530.774 202.146 529.204 197.864 527.068 193.858C525.403 190.799 523.865 187.672 522.326 184.546C521.611 183.093 520.896 181.64 520.168 180.193C520.103 180.238 520.05 180.298 520.013 180.368C517.72 186.213 515.842 192.193 515.659 198.522C515.523 203.061 515.63 207.609 515.881 212.139C516.152 216.561 516.549 220.916 517.12 225.271C517.874 231.024 519.153 236.696 520.942 242.216C522.993 248.375 526.036 254.158 529.952 259.335C530.194 259.662 530.423 260.007 530.654 260.355C531.56 261.72 532.495 263.129 534.346 263.622C534.281 263.77 534.219 263.922 534.155 264.076C534.086 264.246 534.015 264.418 533.939 264.59C532.137 268.396 531.124 272.527 530.959 276.735C530.925 277.761 530.776 278.781 530.627 279.801C530.52 280.533 530.414 281.265 530.349 282C530.275 282.851 530.012 283.689 529.748 284.528C529.216 286.22 528.682 287.918 529.691 289.742C529.711 289.769 529.674 289.825 529.619 289.907C529.597 289.941 529.571 289.98 529.546 290.022C525.317 290.468 521.784 292.18 519.655 296.148C518.918 297.669 518.078 299.137 517.139 300.542C516.105 301.925 515.044 303.276 513.984 304.626C512.605 306.383 511.228 308.136 509.92 309.948C508.515 311.893 507.168 313.886 505.821 315.878C504.393 317.989 502.965 320.1 501.472 322.151C496.115 329.475 491.342 337.209 487.197 345.28C485.934 347.722 484.833 350.247 483.731 352.774C482.951 354.562 482.171 356.352 481.333 358.113C477.909 365.163 475.371 372.61 473.775 380.284C473.582 381.248 473.442 382.217 473.312 383.118C473.265 383.438 473.22 383.749 473.175 384.048C473.047 385.366 472.751 386.801 472.462 388.201C471.722 391.788 471.031 395.139 473.349 395.661C475.829 396.211 475.265 396.651 474.226 397.463C473.014 398.408 471.158 399.857 472.72 402.571C472.756 402.642 472.736 403.896 472.714 405.235C472.689 406.794 472.663 408.47 472.72 408.532C473.183 409.348 473.603 410.188 473.978 411.048C474.492 411.805 474.334 411.778 474.045 411.727C473.714 411.669 473.209 411.581 473.349 412.616C473.586 414.27 473.879 414.024 473.952 414.077C474.003 414.115 473.942 414.306 473.668 415.451C473.363 416.721 473.441 417.427 473.711 417.772C473.315 418.244 473.744 418.607 474.04 418.857C474.358 419.126 474.521 419.264 473.33 419.264C472.302 419.25 472.345 419.588 472.387 419.917C472.43 420.246 472.471 420.566 471.452 420.522C473.542 425.361 480.51 434.042 484.381 437.4C485.535 438.364 486.952 439.052 488.372 439.742C489.047 440.071 489.723 440.399 490.372 440.758C490.824 440.976 491.257 441.251 491.691 441.527C491.796 441.593 491.902 441.66 492.007 441.726C492.46 441.817 492.918 441.911 493.378 442.006C494.814 442.301 496.28 442.601 497.746 442.858C500.514 443.442 503.312 443.878 506.126 444.164C508.91 444.366 511.707 444.388 514.502 444.411C515.866 444.422 517.229 444.433 518.591 444.464C521.496 444.531 524.117 443.477 526.716 442.432L526.788 442.403C527.426 442.077 528.199 442.186 528.723 442.674C531.83 445.248 535.226 446.99 539.417 446.022L539.862 447.958L539.861 447.931C539.813 446.032 539.812 445.981 541.623 445.471C545.855 444.284 549.237 441.688 552.62 439.091C552.935 438.849 553.25 438.608 553.565 438.368C559.662 433.732 562.497 427.326 563.659 419.98C563.808 419.045 563.941 418.109 564.082 417.106C564.124 416.813 564.166 416.513 564.21 416.206C564.384 416.139 564.065 415.829 564.065 415.829C564.126 415.556 564.149 415.276 564.133 414.997C564.048 409.332 562.841 403.74 560.581 398.545C560.206 397.732 560.011 396.847 560.01 395.951C560.024 395.107 560.116 394.263 560.208 393.418C560.307 392.501 560.407 391.584 560.407 390.668C560.494 386.45 560.545 382.232 560.596 378.013C560.625 375.67 560.653 373.327 560.688 370.984C560.726 368.748 564.065 361.103 565.323 359.245C564.765 358.879 564.2 358.52 563.634 358.161C562.285 357.306 560.933 356.448 559.672 355.48C555.104 351.968 554.136 350.739 551.504 345.426C547.565 337.461 546.094 331.268 544.275 322.49C543.902 320.672 542.822 319.609 541.815 318.617C540.577 317.398 539.449 316.287 539.881 314.013C540.202 313.82 540.613 313.723 541.052 313.618C542.756 313.212 544.896 312.703 543.965 306.155C546.969 305.694 549.292 307.507 551.716 309.399C552.651 310.128 553.601 310.869 554.61 311.497C556.357 312.577 556.231 313.287 556.041 314.36C555.905 315.124 555.737 316.072 556.188 317.468C556.788 319.275 556.969 320.495 557.148 321.704C557.33 322.929 557.509 324.143 558.123 325.945C558.481 327.014 559.243 328.052 560.005 329.09C560.767 330.128 561.53 331.166 561.888 332.235C561.977 332.492 562.119 332.962 562.285 333.513C562.658 334.751 563.154 336.396 563.455 336.939C564.273 338.41 565.05 339.424 565.834 340.447C566.591 341.435 567.355 342.431 568.168 343.858C568.575 344.545 572.049 349.509 572.572 350.139C573.054 349.002 573.992 346.667 574.95 344.283C575.991 341.693 577.055 339.044 577.584 337.809C577.639 337.441 577.701 337.073 577.762 336.705C577.888 335.959 578.013 335.212 578.078 334.461C578.499 331.204 578.719 327.923 578.736 324.639C578.558 319.983 577.494 315.405 575.601 311.148C574.844 309.836 573.955 308.603 572.949 307.471L577.546 307.026C578.152 306.99 578.758 306.95 579.363 306.91C580.563 306.831 581.762 306.751 582.965 306.706C585.152 306.706 587.301 306.435 589.023 304.771C589.908 303.907 590.853 303.098 591.796 302.291C592.164 301.976 592.531 301.662 592.894 301.345C595.316 298.037 597.039 294.27 597.955 290.274ZM580.778 270.861C581.978 270.672 583.138 271.381 583.517 272.535L582.404 279.048C581.064 279.271 579.776 278.43 579.442 277.113C579.03 276.039 578.772 274.911 578.678 273.764C578.626 272.429 579.493 271.23 580.778 270.861Z" fill="#D6CCF8"/>
<path d="M646.778 396.242C647.988 389.719 649.178 383.158 650.088 376.587C651 369.755 651.169 362.843 650.591 355.974C650.03 349.629 648.36 343.432 645.655 337.665C643.952 333.929 641.223 331.2 638.252 328.587L635.6 326.652C632.097 325.297 628.739 323.381 624.791 323.632C624.463 323.615 624.138 323.56 623.823 323.468C623.818 323.548 623.818 323.629 623.823 323.71C624.007 324.358 623.929 331.394 624.152 332.187C628.584 333.397 628.904 332.439 632.862 335.09C633.626 335.797 633.084 337.258 633.829 337.994C636.113 340.229 635.542 336.136 634.797 338.961C634.381 340.558 636.607 339.581 634.797 339.929C634.153 339.973 633.506 339.973 632.862 339.929C630.133 339.929 629.552 340.781 627.055 341.865C625.361 342.689 623.741 343.66 622.217 344.768C620.649 345.736 615.365 345.358 615.442 347.671C615.442 348.639 614.475 352.51 614.475 353.477C614.475 354.842 613.352 356.952 613.507 358.316C613.749 360.397 614.707 361.452 613.507 363.155C612.617 364.403 612.539 364.877 611.571 366.058C609.965 367.994 606.491 370.442 606.733 372.832C607.277 374.8 607.923 376.738 608.668 378.639C609.22 380.477 609.113 383.574 609.636 385.413C610.159 387.252 610.042 388.403 610.604 390.252C610.933 391.345 612.084 393.068 612.539 394.123C612.539 394.229 613.507 395.942 613.507 396.058C613.681 398.448 614.339 399.474 614.475 401.865C614.475 402.194 614.475 404.429 614.475 404.768C614.475 405.106 618.626 403.336 618.733 403.558C622.691 402.861 626.717 402.426 630.588 401.4C636.026 399.968 641.359 398.119 646.729 396.445L646.778 396.242Z" fill="#F38C65"/>
<path d="M645.319 405.054C645.745 401.473 646.73 396.725 647.388 393.174C643.517 398.013 636.375 399.484 630.936 400.916C627.745 401.722 624.515 402.368 621.259 402.851C620.765 402.938 617.204 403.771 616.71 403.829C616.043 405.938 615.443 407.782 614.794 409.892C614.291 411.498 614.12 413.168 613.617 414.803C613.114 416.439 614.494 415.461 614.281 416.4C619.565 416.4 626.107 414.977 631.381 414.977C632.901 414.977 634.41 414.851 635.93 414.774C637.284 414.774 638.639 414.832 639.984 414.774C641.504 414.677 643.023 414.503 644.542 414.338C644.455 411.932 644.61 409.523 645.007 407.148L645.319 405.054Z" fill="#C87B5B"/>
<path d="M613.797 414.977H615.51C620.793 414.977 626.068 414.977 631.342 414.977C632.871 414.968 644.484 412.529 644.484 414.464C642.548 415.432 633.21 416.4 631.903 416.4C617.387 417.368 606.742 417.368 596.097 416.4C596.097 416.332 599.387 415.074 599.368 415.006H604.826C605 414.852 605.31 414.687 605.31 414.532C605.286 414.125 605.214 413.723 605.097 413.332C604.748 411.716 604.381 410.09 604.052 408.494C603.955 408.01 603.945 407.526 603.887 407.032H604.4C604.932 409.684 605.464 412.335 606.006 415.084C607.942 415.084 609.877 415.084 611.813 415.084C612.15 415.022 612.43 414.787 612.548 414.464C612.825 413.79 613.067 413.102 613.274 412.403C613.401 412.945 613.443 413.503 613.4 414.058C613.481 414.384 613.615 414.695 613.797 414.977V414.977Z" fill="#C87B5B"/>
<path d="M605.687 276.261L604.003 275.574C602.794 275.061 601.574 274.548 600.374 274.015C600.123 273.882 599.881 273.733 599.648 273.57C601.926 273.686 604.078 274.645 605.687 276.261V276.261Z" fill="#4A9D92"/>
<path d="M614.968 358.974C612.568 355.345 610.032 353.41 605.542 353.313C603.277 353.313 601.526 352.442 599.261 352.345C599.169 351.745 599.169 351.135 599.261 350.536C599.416 348.881 599.61 347.216 599.9 345.571C600.307 343.21 600.742 340.858 601.313 338.536C601.458 337.965 602.165 337.568 602.619 337.055L604.139 336.087C605.571 335.119 607.042 334.258 608.416 333.319C608.474 333.319 609.684 332.352 609.645 332.177C611.058 331.529 611.136 331.519 612.548 330.89C613.4 330.503 614.29 330.213 615.065 331.084C617.329 333.019 620.3 332.4 622.448 331.423C623 331.171 623.3 330.397 623.726 329.865L624.548 328.423C624.674 328.381 624.81 328.381 624.936 328.423C627.219 329.245 629.532 330.029 631.777 330.968C633.007 331.471 634.071 332.352 635.29 332.903C637.429 333.871 638.281 335.7 638.697 337.742C638.988 339.051 638.81 340.422 638.194 341.613C637.873 342.466 637.063 343.038 636.152 343.055C635.503 343.123 634.836 343.055 634.216 343.055C634.013 343.055 633.839 343.365 633.655 343.529C632.494 343.858 632.126 343.529 630.965 343.81C630.694 343.645 629.59 344.003 629.358 344.052C628.608 344.239 627.871 344.475 627.152 344.758C625.887 345.135 624.651 345.604 623.455 346.161C621.742 347.129 620.165 348.3 618.452 349.258C617.639 349.713 617.397 350.158 617.774 350.971C616.923 353.003 616.168 355.065 616.807 357.339C616.768 357.503 615.026 358.781 614.968 358.974Z" fill="#FEB676"/>
<path d="M623.833 323.729C624.016 324.377 624.191 325.025 624.413 325.819C628.925 327.056 633.207 329.017 637.091 331.625L636.597 331.877C636.152 331.683 635.687 331.529 635.252 331.306C632.62 330.009 630.045 328.606 627.365 327.435C626.397 326.99 625.1 326.341 623.958 327.387H623.784C623.794 326.177 623.813 324.958 623.833 323.729Z" fill="#F38B64"/>
<path d="M584.484 276.078C584.3 277.781 583.661 278.816 582.422 279.058C581.082 279.281 579.795 278.44 579.461 277.123C579.048 276.049 578.791 274.921 578.697 273.774C578.645 272.439 579.512 271.24 580.797 270.871C581.996 270.682 583.156 271.391 583.535 272.545C583.918 273.704 584.235 274.883 584.484 276.078Z" fill="#281C48"/>
<path d="M596.291 280.441C597.225 280.488 598.09 280.947 598.651 281.696C599.212 282.444 599.411 283.403 599.194 284.312C599.107 284.622 598.759 284.864 598.526 285.145C596.976 284.907 595.701 283.8 595.246 282.299C595.06 281.503 595.513 280.696 596.291 280.441V280.441Z" fill="#291E49"/>
<path d="M599.552 365.593C603.742 364.451 607.575 363.803 611.804 362.768C613.071 362.458 613.962 363.009 614.629 361.8C614.881 361.355 615.829 361.238 616.197 360.832C616.952 363.629 616.371 364.935 614.484 366.997C614.678 366.59 613.41 368.39 613.516 367.964C613.575 367.751 612.549 369.058 612.549 368.932C611.475 370.19 612.375 369.087 611.378 370.219C610.381 371.351 609.104 372.532 609.316 374.409C609.404 375.28 609.094 376.19 609.191 377.051C609.383 378.826 609.683 380.587 610.091 382.326C610.555 384.193 611.223 386.013 611.823 387.842C611.938 388.12 612.081 388.386 612.249 388.635C612.458 388.924 612.64 389.232 612.791 389.555C613.255 391.103 613.691 392.671 614.175 394.393C614.436 394.055 614.31 395.293 614.484 395.061C614.845 395.686 615.168 396.333 615.452 396.997C616.11 400.335 617.968 400.374 617.387 403.771C617.155 403.848 615.326 404.961 615.084 404.971C612.091 405.151 609.1 405.326 606.113 405.493C605.039 405.493 603.965 405.493 602.9 405.493C602.531 405.566 602.148 405.469 601.857 405.229C601.567 404.989 601.399 404.631 601.4 404.255C601.158 402.677 600.22 403.403 599.968 401.826C600.268 401.99 598.845 400.78 599 400.858C596.581 400.858 599.087 398.574 599 397.955C598.913 397.335 598.12 396.706 598.033 396.019C597.887 394.848 598.468 394.151 598.033 393.116C597.065 390.89 598.633 388.626 598.033 386.342C597.287 383.487 595.129 378.174 597.065 375.697C597.065 372.145 598.033 367.045 599.552 365.593Z" fill="#FEB676"/>
<path d="M598.032 366.513H598.661C598.739 370.877 598.574 376.084 598.661 380.448C598.661 381.968 598.758 383.487 598.932 384.997C599.077 386.235 599.407 387.455 599.648 388.693C599.736 389.264 599.813 389.845 599.9 390.426C600.132 392.361 600.307 394.239 600.616 396.135C601.061 398.874 601.584 401.593 602.126 404.322L601.342 403.355L601.236 404.322H593.997L591.268 403.577V403.577L592.236 403.819C592.042 401.971 590.958 400.674 590.813 399.397C590.213 395.08 589.607 390.761 588.994 386.439C588.742 384.126 588.49 381.822 588.229 379.509V379.509C588.074 376.229 587.813 371.661 587.648 368.39C590.871 367.693 594.161 367.509 597.384 366.813" fill="#F38C65"/>
<path d="M589.255 337.771C591.061 335.18 593.308 332.926 595.894 331.113C597.811 330.122 599.778 329.231 601.787 328.442C605.571 327.155 609.442 326.11 613.284 324.958V326.323C613.284 329.303 615.297 332.923 612.548 334.142C610.192 335.251 607.927 336.546 605.774 338.013C603.045 339.784 604.284 340.49 603.839 343.819C603.578 345.755 601.226 348.658 600.936 350.593C600.713 352.093 597.79 352.113 597.694 353.632C597.694 353.632 597.094 354.261 597.065 354.261C593.697 354.339 590.348 354.948 587.01 353.293C587.01 351.89 587.01 349.364 587.01 347.952C587.136 344.71 587.319 342.019 588.616 339.164" fill="#F38C65"/>
<path d="M587.736 369.687C587.9 372.967 588.065 376.238 588.22 379.519C588.142 379.519 587.465 373.828 587.387 373.819C587.136 370.596 587.494 373.054 587.242 369.832L587.736 369.687Z" fill="#F5A07F"/>
<path d="M586.972 347.971V352.2L586.43 351.232L586.972 347.971Z" fill="#E9A78E"/>
<path d="M605.774 416.4C605.774 416.565 604.013 416.245 603.839 416.4C603.771 416.003 603.559 414.048 603.472 413.652C602.804 410.661 602.794 407.801 602.126 404.811L607.08 404.23C610.074 404.069 612.979 404.016 615.966 403.829C616.211 403.787 616.507 403.787 616.758 403.829H617.242C616.574 405.939 616.035 408.04 615.386 410.15C614.883 411.757 613.99 414.774 613.507 416.381C613.371 416.081 612.539 416.69 612.539 416.381" fill="#D09A67"/>
<path d="M615.51 414.977H614.281C615.443 411.358 616.604 407.738 617.814 403.983C618.626 404.883 618.152 405.754 617.959 406.529C617.765 407.303 617.233 408.241 616.991 409.122C616.749 410.003 616.449 411.145 616.197 412.17C615.946 413.196 615.723 414.038 615.51 414.977Z" fill="#C87A5A"/>
<path d="M602.62 405.064C603.288 408.054 603.965 410.758 604.633 413.749C604.72 414.145 604.739 415.974 604.807 416.371H599.001C597.162 416.284 593.194 416.371 593.194 415.403C592.759 415.355 592.856 414.01 592.739 413.555C592.546 412.559 592.436 411.549 592.41 410.536C592.178 408.3 590.475 397.316 590.291 395.052C591.259 401.826 594.162 404.11 595.42 404.265C595.585 404.374 595.769 404.453 595.962 404.497C598.178 404.594 600.119 404.71 602.335 404.787L602.62 405.064Z" fill="#C87B5B"/>
<path d="M588.22 379.51C588.481 381.823 588.733 384.126 588.984 386.439C588.926 386.526 589.391 388.248 589.323 388.374C589.129 385.945 588.413 381.91 588.22 379.51Z" fill="#F5A07F"/>
<path d="M602.126 404.177L602.45 404.811C600.234 404.733 598.313 405.069 596.097 404.972C595.904 404.928 594.527 403.907 594.362 403.798L600.318 403.352L601.39 402.729L602.126 404.177Z" fill="#F28A64"/>
<path d="M562.661 364.877C560.726 363.638 558.79 362.506 557 361.132C552.442 357.619 548.135 353.864 545.503 348.551C541.555 340.587 537.761 332.554 535.99 323.787C535.027 319.763 534.873 315.589 535.535 311.506C536.503 306.251 538.38 305.177 543.364 304.403C547.496 303.757 551.721 304.63 555.258 306.861C558.144 308.701 560.258 311.534 561.2 314.825C562.361 318.425 563.726 321.967 564.945 325.548C565.671 327.687 566.222 329.874 566.939 332.003C567.271 332.849 567.676 333.665 568.148 334.441C569.745 337.345 571.342 340.248 572.987 343.074C573.449 343.758 573.963 344.405 574.526 345.009C574.739 345.348 576.393 346.451 576.635 346.77C577.761 347.786 579.029 348.63 580.4 349.277C580.855 349.509 582.335 350.535 583.226 351.212C584.484 351.841 584.803 352.18 586.061 352.18C586.642 352.18 586.584 352.432 586.68 352.18C586.864 352.509 586.797 351.987 586.98 352.316C590.319 353.951 593.697 352.499 597.055 352.422C597.055 352.422 597.122 352.422 597.151 352.354L598.642 352.074L599.658 351.851C601.922 351.919 604.187 352.016 606.432 352.054C610.913 352.151 614.126 354.396 616.516 358.016C616.68 358.432 616.845 358.848 617 359.264C617 359.816 617 360.445 617 360.522C616.53 361.124 616.012 361.687 615.451 362.206C614.793 363.396 614.242 363.174 612.974 363.445C608.726 364.49 600.316 366.841 600.393 366.822L598.922 367.161C598.748 367.228 598.651 367.451 598.419 367.354H598.168L597.422 367.587L587.745 369.657L587.251 369.803H586.739C580.056 370.656 573.267 369.721 567.064 367.093C565.545 366.474 564.161 365.622 562.661 364.877Z" fill="#87879F"/>
<path d="M470.774 423.367C481.01 423.367 489.307 415.07 489.307 404.835C489.307 394.6 481.01 386.303 470.774 386.303C460.539 386.303 452.242 394.6 452.242 404.835C452.242 415.07 460.539 423.367 470.774 423.367Z" fill="#F6F9F8"/>
<defs>
<linearGradient id="paint0_linear" x1="221.289" y1="393.047" x2="401.085" y2="393.047" gradientUnits="userSpaceOnUse">
<stop stop-color="#01BC86"/>
<stop offset="0.37" stop-color="#01B26E"/>
<stop offset="1" stop-color="#00A347"/>
</linearGradient>
<linearGradient id="paint1_linear" x1="547.266" y1="374.13" x2="547.282" y2="413.727" gradientUnits="userSpaceOnUse">
<stop offset="0.27" stop-color="#5E5544"/>
<stop offset="1" stop-color="#383837"/>
</linearGradient>
</defs>
</svg>
