<?xml version="1.0" encoding="UTF-8"?>
<svg width="530px" height="530px" viewBox="0 0 530 530" version="1.1" xmlns="http://www.w3.org/2000/svg" xmlns:xlink="http://www.w3.org/1999/xlink">
    <!-- Generator: Sketch 60 (88103) - https://sketch.com -->
    <title>Group 12 Copy</title>
    <desc>Created with Sketch.</desc>
    <defs>
        <circle id="path-1" cx="241" cy="241" r="241"></circle>
        <filter x="-7.7%" y="-7.3%" width="115.4%" height="115.4%" filterUnits="objectBoundingBox" id="filter-2">
            <feOffset dx="0" dy="2" in="SourceAlpha" result="shadowOffsetOuter1"></feOffset>
            <feGaussianBlur stdDeviation="12" in="shadowOffsetOuter1" result="shadowBlurOuter1"></feGaussianBlur>
            <feColorMatrix values="0 0 0 0 0   0 0 0 0 0   0 0 0 0 0  0 0 0 0.1 0" type="matrix" in="shadowBlurOuter1"></feColorMatrix>
        </filter>
    </defs>
    <g id="Page-1" stroke="none" stroke-width="1" fill="none" fill-rule="evenodd">
        <g id="Group-12-Copy" transform="translate(24.000000, 22.000000)">
            <g id="Oval">
                <use fill="black" fill-opacity="1" filter="url(#filter-2)" xlink:href="#path-1"></use>
                <use fill="#FFFFFF" fill-rule="evenodd" xlink:href="#path-1"></use>
            </g>
            <g id="How_Stake" transform="translate(1.000000, 0.000000)" fill-rule="nonzero">
                <g id="Layer_5" fill="#FFFFFF">
                    <circle id="Oval" cx="241" cy="241" r="241"></circle>
                </g>
                <g id="Layer_9" transform="translate(0.000000, 198.000000)">
                    <path d="M200.825033,98.0534483 L200.825033,98.0534483 L142.421523,41.3391379 L131.430795,30.6707759 C74.6453642,-29.3487069 25.0954967,18.2580172 25.0954967,18.2580172 L0.671655629,37.017931 C0.628913907,38.8541379 0.604340689,40.6903448 0.604340689,42.5265517 C0.571467881,72.2116071 6.0137884,101.646961 16.6570596,129.348534 C63.5141987,122.91569 116.300225,118.845431 172.44453,117.792672 C180.758624,109.694676 190.34728,103.025569 200.825033,98.0534483 L200.825033,98.0534483 Z" id="Path" fill="#87C1A3"></path>
                    <path d="M203.670411,117.517241 C249.880318,117.572328 294.166848,119.665603 335.168371,123.44819 L321.191828,107.895517 C321.191828,107.895517 290.942901,70.7306897 275.61694,70.1002586 C266.403677,69.7546722 257.327383,72.415828 249.752093,77.6837931 L215.619775,104.265948 C211.226485,108.293231 207.225341,112.730315 203.670411,117.517241 L203.670411,117.517241 Z" id="Path" fill="#87C1A3"></path>
                    <path d="M172.426212,117.792672 C182.093982,117.609052 191.863519,117.517241 201.734821,117.517241 L203.670411,117.517241 C207.230825,112.727356 211.238136,108.288184 215.638093,104.259828 C218.099582,101.947116 220.769066,99.8674357 223.612477,98.0473276 L200.825033,98.0473276 C190.340361,103.019567 180.745377,109.690839 172.426212,117.792672 Z" id="Path" fill="#86E1E0"></path>
                    <path d="M203.670411,117.517241 L201.734821,117.517241 C191.879801,117.517241 182.110265,117.609052 172.426212,117.792672 C116.281907,118.845431 63.4958808,122.91569 16.6387417,129.348534 C18.3809757,133.881925 20.2555055,138.352069 22.2623311,142.758966 C38.9499205,129.428103 61.4320662,124.34181 82.9616821,131.209224 C102.922066,137.574741 115.134739,161.465152 121.912355,180.029204 C131.278898,169.471014 146.412126,166.874483 160.443623,171.37319 C175.348272,176.128966 183.151694,187.503011 183.76229,202.614994 C191.834369,193.868528 203.554971,192.575259 215.40664,196.357845 C226.548226,199.972625 233.199395,209.364963 235.062809,220.954274 C248.495922,207.07867 272.507414,206.39422 291.783931,212.545513 C308.660805,217.925599 316.036255,229.464655 320.786692,245.549828 C336.955939,241.411515 361.300646,232.67616 371.956781,245.549828 C410.772914,220.430037 441.600189,184.692118 460.792397,142.563103 C424.553523,134.318534 382.02551,127.781638 335.168371,123.45431 C294.166848,119.671724 249.880318,117.578448 203.670411,117.517241 Z" id="Path" fill="#AC967C"></path>
                    <path d="M351.788795,231.912931 C344.093874,229.469561 335.870272,229.234216 328.048821,231.233534 C323.298384,215.160603 311.165841,201.737931 294.288967,196.345603 C275.01245,190.224914 254.752874,196.198707 241.319762,210.07431 C239.456348,198.485 231.273665,188.91866 220.132079,185.303879 C208.280411,181.521293 195.81204,185.383448 187.73996,194.129914 C187.129364,179.017931 177.524689,165.313707 162.62004,160.557931 C148.576331,156.083707 133.812119,160.802759 124.445576,171.360948 C117.66796,152.796897 102.940384,137.5625 82.98,131.196983 C61.4503841,124.329569 38.9682384,129.415862 22.280649,142.746724 C60.2597219,226.086034 144.125086,284.00031 241.490728,284.00031 C287.77754,284.074548 333.096262,270.716109 371.975099,245.537586 C366.684362,239.154647 359.67876,234.426248 351.788795,231.912931 Z" id="Path" fill="#B88DFC"></path>
                </g>
                <g id="Layer_8_copy" transform="translate(232.000000, 64.000000)" fill="#238862">
                    <path d="M29.0084242,213.518348 C29.0084242,213.518348 151.432667,127.424501 76.1417576,0 C59.0023636,45.7264957 0.238727273,50.6039886 0.238727273,50.6039886 C0.238727273,50.6039886 44.3114545,76.8205128 26.5599394,116.450142 C76.1417576,148.153846 29.0084242,213.518348 29.0084242,213.518348" id="Path"></path>
                </g>
                <g id="Layer_8" transform="translate(259.000000, 63.000000)" fill="#1FA658">
                    <path d="M43.0484298,148 C43.0484298,148 107.874876,109.925311 48.552562,0 C27.7591736,38.6887967 0.238512397,44.2157676 0.238512397,44.2157676 C0.238512397,44.2157676 36.9327273,70.6224066 35.7095868,109.925311 C49.7757025,133.875519 43.0484298,148 43.0484298,148" id="Path"></path>
                </g>
                <g id="Layer_8_copy_2" transform="translate(278.000000, 64.000000)">
                    <path d="M39.1611696,83.0081744 C39.1611696,83.0081744 59.231345,61.0354223 30.6465497,0 C9.96818713,38.4523161 0.237192982,35.400545 0.237192982,35.400545 C0.237192982,35.400545 11.7927485,28.6866485 26.3892398,57.9836512 C40.3775439,81.7874659 39.1611696,83.0081744 39.1611696,83.0081744" id="Path" fill="#35C05F"></path>
                    <path d="M69.5705263,224 C69.5705263,224 18.482807,161.133515 89.6407018,104.980926 C88.4243275,128.784741 103.629006,156.861035 103.629006,156.861035 C103.629006,156.861035 75.6523977,163.574932 84.7752047,188.599455 C70.1787135,192.26158 69.5705263,224 69.5705263,224 Z" id="Path" fill="#2EBF8B"></path>
                </g>
                <g id="Layer_7_copy_4" transform="translate(334.000000, 237.000000)">
                    <g id="_1yGvSJ.tif">
                        <path d="M119.109392,16.4769231 C123.548993,17.404319 127.910326,18.6712986 132.154677,20.2666154 C132.258745,20.5290256 133.954449,21.6702051 134.125856,21.8654872 C138.233498,26.3874872 139.92308,30.5494359 142.035057,36.3285641 C144.802053,43.9201538 144.483726,52.8665128 141.612662,60.4947179 C138.086578,69.8621538 131.395589,75.4643077 123.112966,80.5782564 C121.411141,81.634 119.641977,81.6645128 118.136046,83.0192821 C114.576358,82.5886024 111.051684,81.9074843 107.588403,80.9810256 C106.584449,80.7064103 106.510989,81.0237436 106.651787,81.9025128 C107.964427,90.2196308 109.70115,98.4647043 111.855209,106.605692 C112.840798,110.395385 113.954943,114.148462 115.056844,117.907641 C115.283346,118.676564 115.411901,118.926769 114.371217,118.847436 C112.785703,118.731487 112.100076,118.029692 111.665437,116.461333 C108.488289,105.019026 105.543764,93.534 103.946008,81.7133333 C103.829696,80.822359 104.215361,79.6689744 102.764525,79.3455385 C102.103384,79.1990769 101.938099,79.2234872 101.827909,79.9069744 C100.781103,86.4184103 99.801635,92.9420513 99.146616,99.5023077 C98.6323954,104.628462 98.2895817,109.779026 97.8671863,114.917385 C97.8304563,115.320154 97.8671863,115.942615 97.255019,115.661897 C96.5204183,115.332359 95.0757034,116.11959 95.1246768,114.508513 C95.1858935,112.372615 95.3634221,110.236718 95.5470722,108.106923 C96.3857414,98.3123077 97.5611027,88.5787179 99.3731179,78.9000513 C99.538403,78.0090769 99.128251,77.8382051 98.546692,77.5574872 C90.9741825,73.8959487 84.411749,68.9467692 79.4470722,61.9837436 C79.0430418,61.4162051 78.6634981,60.8364615 78.1186692,60.0431282 C78.1737643,69.4227692 78.6206464,78.918359 79.171597,87.9928718 C78.271711,88.1088205 77.3350951,88.1027179 76.4413308,88.2186667 C75.8658935,79.4858974 75.4128897,70.448 75.4496198,61.2087179 C71.6909125,70.5517436 69.1198099,80.2365128 66.7323574,89.4696923 C65.8324715,89.5002051 64.9325856,89.5063077 64.0265779,89.5368205 C65.1713308,83.8553333 66.9343726,77.8687179 68.6361977,72.3458974 C69.3952852,69.8682564 70.2706844,67.4211282 71.0848669,64.9617949 C71.147448,64.7218088 71.1884216,64.4767343 71.2073004,64.2294872 C70.9752795,64.2792139 70.7479494,64.3486292 70.5277947,64.4369744 C60.9473764,69.1725641 52.5851711,67.7384615 45.0126616,60.0614359 C44.8718631,59.9210769 44.724943,59.7929231 44.5780228,59.6586667 C44.4718602,59.8521504 44.3876769,60.0568345 44.3270342,60.2689231 C43.3269731,66.7842389 42.6710497,73.3474422 42.3619772,79.9313846 C41.8425401,88.7427327 41.9202579,97.5789836 42.5946008,106.379897 C42.6252091,106.715538 42.7415209,107.325795 42.1477186,107.12441 C41.3212928,106.83759 39.8643346,107.734667 39.7847529,105.958821 C39.6011027,102.07759 39.3562357,98.196359 39.3195057,94.3151282 C39.2093156,82.2259487 39.8520913,70.1794872 41.89673,58.2367692 C41.89673,58.0842051 41.89673,57.931641 41.9701901,57.3702051 C39.9511143,60.9922653 38.1382692,64.7248078 36.5402662,68.5501026 C31.7409063,79.8720823 28.448071,91.7713502 26.7455894,103.944974 C26.4823574,105.824564 25.3865779,104.958 24.5173004,104.964103 C23.2929658,104.964103 23.8194297,104.097538 23.9051331,103.53 C26.4211407,87.5229744 31.0185171,72.1933333 38.5604183,57.8278974 C38.6644867,57.6204103 38.7134601,57.3885128 38.8909886,56.8758974 C35.1047156,60.0139985 30.3470719,61.7515853 25.423308,61.7945641 C21.211597,61.9288205 17.2447529,60.9890256 13.7921293,58.4442564 C8.39893536,54.4653846 7.84798479,47.8441026 12.4392395,42.8766154 C13.3439259,41.7803448 14.4542861,40.87037 15.7082129,40.1975897 C17.110076,39.5568205 17.2263878,38.6780513 17.110076,37.2744615 C16.2285551,26.7658462 13.0452852,16.9346154 9.00498099,7.34138462 C8.69277567,6.59076923 8.39281369,6.40769231 7.55414449,6.62738462 C4.49330798,7.42682051 1.78140684,6.17579487 0.538707224,3.52117949 C0.538707224,2.83158974 0.446882129,2.49594872 0.771330798,2.02605128 C3.34855513,-0.768923077 8.60707224,-0.250205128 10.0579087,2.95974359 C15.0042205,13.8955385 18.9098479,25.1425641 19.8525856,37.2866667 C19.9015589,37.939641 20.011749,38.1288205 20.7218631,37.8969231 C21.7394094,37.5808792 22.7816847,37.3502122 23.8377947,37.2073333 C25.1294677,37.0059487 26.714981,37.3110769 27.6638403,36.6397949 C28.6126996,35.9685128 28.2270342,34.1499487 28.661673,32.8928205 C28.6775409,32.8533093 28.6898332,32.812463 28.698403,32.7707692 C30.2777947,24.6421538 30.59,16.5745641 27.8658555,8.62292308 C27.5965019,7.82958974 27.4801901,7.40241026 26.4395057,7.94553846 C23.9908365,9.22707692 20.7524715,7.94553846 19.9138023,5.55333333 C19.1363498,3.332 20.4402662,1.57446154 23.4460076,0.781128205 C23.4460076,0.781128205 23.5011027,0.720102564 23.531711,0.689589744 C24.366388,0.604905719 25.2089644,0.732997534 25.9803802,1.06184615 C28.1780608,2.142 29.1330418,4.19246154 29.9655894,6.34666667 C33.5345247,15.6225641 33.1978327,25.0998462 31.1409506,34.6442564 C30.6206084,37.0852821 30.5287833,37.0120513 32.8672624,37.5673846 C35.4569052,38.1480776 37.8420593,39.4128163 39.7725095,41.2289231 C40.3050951,41.7354359 40.3846768,41.7171282 40.6356654,40.9848205 C43.4149049,31.9652308 49.3284411,26.5400513 58.596654,25.4171795 C65.3304943,24.6055385 71.0358935,26.991641 75.7373384,31.9347179 C76.0434221,32.2642564 76.269924,32.9965641 76.8514829,32.032359 C81.6447529,24.038 88.9907605,19.754 97.610076,17.4533333 C102.688461,16.0074653 107.995181,15.5312477 113.250951,16.0497436 C113.765171,16.1046667 115.864905,16.0009231 116.379125,16.0131282 C116.997096,16.6302199 117.646872,17.214823 118.325817,17.7645641 C122.910951,22.7015385 125.341255,26.9977436 127.636882,33.417641 C130.122281,40.3745641 129.779468,48.5886154 127.508327,55.6858974 C124.282205,65.7734359 119.550152,71.4122051 110.900228,76.874 C110.104411,77.3805128 108.880076,78.1982564 108.084259,78.7047692 C108.769886,79.4065641 108.145475,78.6620513 108.984144,79.0098974 C109.822814,79.3577436 108.720913,79.6689744 109.939125,79.0098974 C114.836464,76.2881538 118.950228,72.3397949 122.868099,68.2449744 C129.644791,61.1537949 131.364981,57.4617436 130.869125,47.3436923 C130.397757,37.8053846 127.991939,28.2609744 122.090646,21.1026667 C120.93465,19.6708691 119.935238,18.1201733 119.109392,16.4769231 Z" id="Path" fill="#424251"></path>
                        <path d="M138.233498,23.0005641 C146.80384,28.0229744 155.166046,35.7549231 158.741103,45.3359487 C162.652852,55.8018462 159.898099,66.6033846 151.437947,73.9142564 C143.706274,80.5904615 133.391255,83.2511795 123.474144,83.397641 C123.772422,82.6106844 124.262627,81.9101808 124.900494,81.3593846 C131.022167,77.8992308 135.974601,72.4557436 140.320989,66.7742564 C145.493802,60.0248205 146.65692,56.2046154 145.989658,47.6183077 C145.444829,40.5637436 143.675665,33.0758974 139.794525,27.2784615 C139.028119,25.9540599 138.499827,24.506309 138.233498,23.0005641 Z" id="Path" fill="#424251"></path>
                        <path d="M120.909163,16.9041026 C121.521331,18.2893846 122.745665,19.2291795 123.651673,20.3581538 C129.552966,27.5042564 133.611635,35.4436923 134.058517,44.982 C134.554373,55.1000513 130.52019,63.3690256 123.743498,70.4541026 C119.831749,74.5550256 115.173156,77.6795385 110.275817,80.4012821 C109.051483,81.0725641 108.323004,80.3646667 107.441483,80.0046154 C106.559962,79.6445641 105.604981,79.5835385 104.94384,78.8817436 L107.337414,77.3744103 C115.981217,71.9126154 122.935437,64.9434872 126.161559,54.8559487 C128.4327,47.7525641 127.998061,40.6552821 125.50654,33.6922564 C123.193112,27.4027661 119.609417,21.6535194 114.977262,16.800359 C114.850049,16.5968779 114.762797,16.3711447 114.720152,16.1351795 C116.856616,15.9521026 118.876768,16.4769231 120.909163,16.9041026 Z" id="Path" fill="#5D5D69"></path>
                        <path d="M139.81289,24.0196923 C140.039392,25.3317436 141.037224,26.1372821 141.747338,27.1564103 C145.634601,32.9538462 148.187338,39.27 148.732167,46.3184615 C149.39943,54.9108718 146.669163,62.4353333 141.502471,69.1786667 C137.149962,74.8601538 131.548631,78.9427692 125.451445,82.3968205 C125.090266,82.6043077 124.680114,82.7507692 124.612776,83.2511795 C121.955347,83.4612106 119.28202,83.3402614 116.654601,82.8911282 C118.166654,81.5119487 120.076616,80.822359 121.784563,79.7666154 C130.061065,74.6526667 136.782662,68.0924103 140.308745,58.7188718 C143.173688,51.0967692 142.910456,43.4075385 140.137338,35.8159487 C138.064706,30.1102429 134.893411,24.8633617 130.801787,20.370359 C130.651032,20.1303598 130.543317,19.8660419 130.48346,19.5892308 C133.796817,20.5957544 136.941174,22.088981 139.81289,24.0196923 Z" id="Path" fill="#5D5D69"></path>
                        <path d="M79.489924,91.965641 C80.2245247,98.6357436 81.173384,105.867282 82.4773004,112.439744 C82.6242205,113.165949 82.3977186,113.220872 81.7365779,113.184256 C80.2673764,113.104923 79.5511407,112.574 79.2879087,110.950718 C78.4002662,104.768821 77.2004183,98.2756923 76.7535361,92.0327692 C77.6840304,92.0876923 78.5961597,91.9107179 79.489924,91.965641 Z" id="Path" fill="#424251"></path>
                        <path d="M66.6588973,89.823641 C65.9855133,95.2122051 63.8919011,103.005179 62.8818251,109.425077 C62.6675665,110.804256 61.7248289,109.870564 61.1371483,109.907179 C60.5494677,109.943795 59.8822053,109.907179 60.0842205,108.888051 C61.1065399,103.74359 62.0798859,98.5930256 63.0838403,93.4424615 C63.250256,92.1798121 63.5498354,90.9381882 63.9776046,89.7382051 C64.9203422,89.7931282 65.7406464,89.7687179 66.6588973,89.823641 Z" id="Path" fill="#424251"></path>
                        <path d="M76.3801141,87.9562564 L79.0858935,87.6145128 L79.2695437,89.6954872 C78.3635361,90.0128205 77.5187452,90.3667692 76.6494677,90.1592821 L76.3801141,87.9562564 Z" id="Path" fill="#5D5D69"></path>
                        <path d="M76.6494677,90.1592821 C77.4207985,89.3781538 78.3574144,89.6100513 79.2695437,89.6954872 C79.3185171,90.1775897 79.3613688,90.9892308 79.4103422,91.4652308 C78.6150762,91.874458 77.6926459,91.9640105 76.8331179,91.7154359 C76.7596578,91.3187692 76.6984411,90.5559487 76.6494677,90.1592821 Z" id="Path" fill="#424251"></path>
                        <polygon id="Path" fill="#5D5D69" points="66.6344106 90.3179487 63.8123194 90.1470769 64.1428897 89.1584615 66.8547909 89.0669231"></polygon>
                        <path d="M76.7963878,91.3492821 C77.6617646,91.6067244 78.5925991,91.5304861 79.4042205,91.1356923 C79.61634,91.5758883 79.6765994,92.0736222 79.5756274,92.5514872 L76.8759696,92.3806154 C76.5943726,92.0632821 76.7596578,91.7032308 76.7963878,91.3492821 Z" id="Path" fill="#5D5D69"></path>
                        <path d="M26.8435361,44.3473333 C27.9821673,44.6280513 28.2637643,45.5068205 28.1474525,46.5381538 C28.1467156,46.9839089 27.9519961,47.4074142 27.6137401,47.6989519 C27.275484,47.9904895 26.8269758,48.1213723 26.3844106,48.0576923 C25.2396578,47.9051282 24.9580608,46.9043077 25.0560076,45.8729744 C25.0660018,45.4253762 25.2666752,45.0031864 25.6078306,44.7120131 C25.9489859,44.4208398 26.3983569,44.2882221 26.8435361,44.3473333 L26.8435361,44.3473333 Z" id="Path" fill="#030304"></path>
                        <path d="M20.5137262,45.6776923 C20.256616,46.6113846 19.7913688,47.3742051 18.720076,47.1667179 C18.2791829,47.0998033 17.8843687,46.8574831 17.6259164,46.4951691 C17.3674642,46.1328551 17.2674777,45.6815339 17.3488213,45.2444103 C17.3611349,44.8181267 17.5569502,44.4177618 17.8862633,44.1455538 C18.2155764,43.8733458 18.646507,43.7556469 19.0690114,43.8225128 C20.0484791,43.9384615 20.5320913,44.6524615 20.5137262,45.6776923 Z" id="Path" fill="#030304"></path>
                    </g>
                </g>
                <g id="Layer_7_copy_5" transform="translate(114.000000, 227.000000)">
                    <g id="_1yGvSJ.tif-2">
                        <path d="M45.6522556,2.85889571 C41.2239127,3.16022475 36.8241882,3.79183381 32.4896992,4.74846626 C32.3548872,4.98159509 30.5655639,5.83435583 30.3633459,5.97546012 C25.7797368,9.69325153 23.5798496,13.3742331 20.7610526,18.5276074 C17.0843609,25.2760736 16.165188,33.7239264 17.93,41.2269939 C20.0869925,50.4601227 25.8287594,56.5644172 33.1698872,62.4171779 C34.6773308,63.6441718 36.3869925,63.8711656 37.6677068,65.3619632 C41.1774259,65.4103736 44.6864117,65.2218068 48.1707895,64.797546 C49.1757519,64.6687117 49.206391,64.9754601 48.9551504,65.7852761 C46.5587655,73.4216594 43.7689128,80.9286486 40.5968045,88.2760736 C39.1322556,91.7055215 37.5328947,95.0797546 35.9703008,98.4601227 C35.6455263,99.1595092 35.4923308,99.3742331 36.5095489,99.4355828 C38.066015,99.5214724 38.8197368,98.9570552 39.4570301,97.5398773 C44.0712782,87.2208589 48.4833083,76.8282209 51.6023684,65.9447853 C51.8352256,65.1288344 51.6023684,64 53.0607895,63.8773006 C53.7287218,63.8220859 53.8819173,63.8773006 53.9003008,64.5276074 C54.0412406,70.7607362 54.1147744,77 53.8696617,83.2331288 C53.6796992,88.1104294 53.3242857,92.9815951 53.042406,97.8588957 C53.042406,98.2392638 52.9198496,98.8159509 53.5571429,98.6319018 C54.3169925,98.4171779 55.6099624,99.3435583 55.7815414,97.8220859 C56.0082707,95.809816 56.1246992,93.7852761 56.2288722,91.7668712 C56.7823682,82.4864307 56.8519113,73.1834004 56.437218,63.8957055 C56.3943233,63.0429448 56.8171429,62.9325153 57.423797,62.7423313 C65.2551504,60.2883436 72.2776316,56.4785276 78.0255263,50.5766871 C78.4912406,50.1042945 78.9385714,49.607362 79.5758647,48.9263804 C78.2645113,57.7177914 76.5548496,66.5644172 74.8022932,75 C75.660188,75.2208589 76.5609774,75.3374233 77.4188722,75.5582822 C79.1469173,67.4478528 80.8014286,59.0306748 82.008609,50.3680982 C84.3984586,59.601227 85.5933835,69.0122699 86.6657519,77.9754601 C87.5420301,78.1226994 88.4060526,78.2392638 89.2823308,78.3865031 C88.8437082,72.7849792 88.1217416,67.2093171 87.1192105,61.6809816 C86.7147744,59.2269939 86.1939098,56.8588957 85.7343233,54.4478528 C85.7158682,54.2130418 85.7158682,53.9771422 85.7343233,53.7423313 C85.9459276,53.8195169 86.1508715,53.9139011 86.3471053,54.0245399 C95.0118421,59.6871166 103.30891,59.4110429 111.679511,53.1779141 C111.832707,53.0674847 111.998158,52.9631902 112.157481,52.8588957 C112.230258,53.0573383 112.281616,53.2630082 112.310677,53.4723926 C112.407956,59.7080394 112.164522,65.9443463 111.581466,72.1533742 C110.903468,80.4892644 109.642126,88.7672582 107.806729,96.9263804 C107.733195,97.2331288 107.537105,97.791411 108.137632,97.6809816 C108.977143,97.5153374 110.276241,98.5153374 110.588759,96.8895706 C111.287331,93.2760736 112.041053,89.6687117 112.598684,86.0306748 C114.433173,74.7432499 115.218851,63.3099009 114.945639,51.8773006 C114.945639,51.7300613 114.945639,51.5828221 114.988534,51.0552147 C116.454179,54.7043659 117.710386,58.4343698 118.751015,62.2269939 C121.882918,73.4353009 123.478502,85.0178154 123.493947,96.6564417 C123.493947,98.4539877 124.682744,97.7852761 125.516128,97.8834356 C126.686541,98.0368098 126.312744,97.1595092 126.300489,96.6134969 C126.006353,81.2760736 123.604248,66.3312883 118.224023,51.8957055 C118.1391,51.5893137 118.073606,51.2778544 118.027932,50.9631902 C121.326142,54.4129626 125.692955,56.6443218 130.418383,57.2944785 C134.487256,57.9570552 138.458083,57.5828221 142.14703,55.6380368 C147.90718,52.5705521 149.334962,46.4355828 145.54797,41.2147239 C144.809506,40.0653525 143.854092,39.0713132 142.735301,38.2883436 C141.460714,37.5092025 141.466842,36.6687117 141.767105,35.3619632 C144.034398,25.6257669 148.440301,16.8159509 153.64282,8.33742331 C154.047256,7.67484663 154.378158,7.5398773 155.144135,7.85276074 C157.987444,8.99386503 160.806241,8.16564417 162.362707,5.8404908 C162.442368,5.19018405 162.589436,4.88957055 162.362707,4.40490798 C160.236353,1.4601227 155.070602,1.26993865 153.232256,4.09815951 C146.969624,13.7177914 141.675188,23.7668712 139.138271,35.0306748 C139.003459,35.6441718 138.868647,35.803681 138.21297,35.4907975 C137.266151,35.0649931 136.286619,34.7162176 135.283872,34.4478528 C134.058308,34.0920245 132.483459,34.1779141 131.650075,33.4294479 C130.816692,32.6809816 131.441729,31.0184049 131.184361,29.7852761 L131.184361,29.6687117 C130.743158,21.8466258 131.521391,14.2392638 135.228722,7.13496933 C135.602519,6.42331288 135.774098,6.03680982 136.705526,6.6809816 C138.911541,8.19631902 142.220564,7.41104294 143.354211,5.26993865 C144.408195,3.28834356 143.354211,1.47239264 140.566053,0.36196319 C140.535414,0.36196319 140.523158,0.300613497 140.498647,0.263803681 C139.7001,0.0831093752 138.869809,0.0978405644 138.078158,0.306748466 C135.798609,1.03680982 134.603684,2.8404908 133.506805,4.75460123 C128.800639,12.993865 127.856955,21.9325153 128.567782,31.1349693 C128.751617,33.4723926 128.831278,33.4294479 126.508835,33.6503067 C123.931866,33.8558592 121.453635,34.7336647 119.320902,36.196319 C118.738759,36.601227 118.634586,36.5644172 118.518158,35.8527607 C117.035226,27.0429448 112.022669,21.202454 103.198609,18.9693252 C96.7950376,17.3435583 90.9429699,18.8588957 85.7281955,22.8957055 C85.3850376,23.1595092 85.0725188,23.8220859 84.6374436,22.8404908 C81.0159023,14.7730061 74.471391,9.81595092 66.4194361,6.56441718 C61.6701717,4.55633359 56.5951245,3.43161835 51.4430451,3.24539877 C50.9405639,3.24539877 48.9183835,2.87116564 48.4159023,2.81595092 C47.7312858,3.31613868 47.0215751,3.78095801 46.2895489,4.20858896 C41.1850752,8.25153374 38.2498496,11.9693252 35.1675564,17.7055215 C31.8217669,23.9141104 31.0496617,31.6564417 32.2997368,38.601227 C34.0768045,48.4723926 37.9189474,54.3619632 45.5664662,60.5889571 C46.2711654,61.1595092 47.3435338,62.0858896 48.0543609,62.6564417 C47.2945113,63.2269939 47.9992105,62.6134969 47.135188,62.8282209 C46.2711654,63.0429448 47.3006391,63.4785276 46.216015,62.6871166 C41.803985,59.5092025 38.3662782,55.2822086 35.1185338,50.9447853 C29.4993233,43.4355828 28.3289098,39.7484663 30.1672556,30.3312883 C31.9014286,21.4478528 35.5168421,12.803681 42.1900376,6.85889571 C43.4862083,5.65581381 44.6471727,4.31451829 45.6522556,2.85889571 L45.6522556,2.85889571 Z" id="Path" fill="#424251"></path>
                        <path d="M26.2331955,6.51533742 C17.2436842,10.1288344 8.10710526,16.3312883 3.35191729,24.8404908 C-1.83834586,34.1533742 -0.618909774,44.6319018 6.59966165,52.5644172 C13.2054511,59.8159509 22.8506391,63.607362 32.4468045,65.0306748 C32.2633119,64.2474917 31.8813164,63.524868 31.3376692,62.9325153 C25.8900376,58.9079755 21.7966541,53.1717791 18.3344361,47.2883436 C14.228797,40.3067485 13.616015,36.5766871 15.4114662,28.607362 C16.8882707,22.0613497 19.6028947,15.2699387 24.1497368,10.3312883 C25.0641066,9.19263158 25.7695168,7.90064014 26.2331955,6.51533742 L26.2331955,6.51533742 Z" id="Path" fill="#424251"></path>
                        <path d="M43.8506767,3.01226994 C43.0540602,4.2392638 41.7856015,4.96319018 40.7254887,5.90184049 C34.0461654,11.8466258 29.0826316,18.7852761 27.3116917,27.6564417 C25.4733459,37.0736196 28.2737594,45.3435583 33.8929699,52.8527607 C37.1407143,57.196319 41.2463534,60.7177914 45.6216165,63.8957055 C46.7123684,64.6871166 47.5212406,64.1104294 48.4220301,63.8957055 C49.3228195,63.6809816 50.2603759,63.7361963 50.9957143,63.1717791 L48.8754887,61.4478528 C41.2279699,55.2208589 35.3942857,47.803681 33.6478571,37.9325153 C32.4222932,30.9815951 33.7704135,24.3865031 37.116203,18.1779141 C40.2352231,12.5382536 44.482424,7.60316232 49.5924436,3.6809816 C49.7578947,3.55214724 49.8191729,3.28834356 49.9294737,3.06748466 C47.9134211,2.63803681 45.878985,2.85889571 43.8506767,3.01226994 Z" id="Path" fill="#5D5D69"></path>
                        <path d="M24.5725564,7.27607362 C24.1742481,8.50306748 23.0712406,9.11656442 22.2746241,9.96932515 C17.727782,14.9079755 14.4065038,20.4969325 12.9358271,27.0429448 C11.1342481,35.0184049 12.7703759,42.4110429 16.8821429,49.398773 C20.3382331,55.2760736 25.2221053,59.8282209 30.6697368,63.8343558 C30.9945113,64.0736196 31.3744361,64.2638037 31.3683083,64.7423313 C33.9198836,65.2786375 36.5264044,65.5072573 39.1322556,65.4233129 C37.8515414,63.9386503 36.0683459,63.0429448 34.5792857,61.8404908 C27.2259023,55.9815951 21.6005639,48.9570552 19.4374436,39.7546012 C17.6787594,32.2392638 18.9717293,25.0674847 22.6729323,18.2822086 C25.47505,13.1661044 29.2564149,8.65277456 33.8010526,5 C33.9757888,4.79361528 34.1145821,4.55925792 34.2116165,4.30674847 C30.8725425,4.82666284 27.6259964,5.82676565 24.5725564,7.27607362 L24.5725564,7.27607362 Z" id="Path" fill="#5D5D69"></path>
                        <path d="M73.9443985,78.6687117 C72.3389098,84.803681 70.4515414,91.4907975 68.3006767,97.4846626 C68.0616917,98.1472393 68.3006767,98.2269939 68.9134586,98.2760736 C70.3412406,98.392638 71.1133459,97.9693252 71.5545489,96.4907975 C73.2396992,90.809816 75.2802632,84.8773006 76.5487218,79.0797546 C75.6785714,79.0184049 74.8268045,78.7361963 73.9443985,78.6687117 Z" id="Path" fill="#424251"></path>
                        <path d="M86.6718797,78.3006135 C86.6044737,83.4417178 87.5910526,91.0122699 87.7074812,97.1595092 C87.7074812,98.4785276 88.767594,97.7239264 89.3374812,97.8343558 C89.9073684,97.9447853 90.5630451,98.006135 90.4895113,97.0122699 C90.1892481,92.0613497 89.9380075,87.1042945 89.6561278,82.1533742 C89.6628878,80.9449469 89.5375428,79.7394076 89.2823308,78.5582822 C88.3631579,78.5276074 87.5910526,78.3680982 86.6718797,78.3006135 Z" id="Path" fill="#424251"></path>
                        <path d="M77.4985338,75.3128834 L74.9187218,74.6441718 L74.4591353,76.5705521 C75.2986466,76.9877301 76.0707519,77.4294479 76.9409023,77.3374233 L77.4985338,75.3128834 Z" id="Path" fill="#5D5D69"></path>
                        <path d="M76.9409023,77.3374233 C76.2974812,76.5092025 75.3599248,76.607362 74.4591353,76.5705521 C74.3549624,77.0184049 74.2017669,77.797546 74.0914662,78.2147239 C74.8108658,78.6994272 75.6839682,78.9004751 76.542594,78.7791411 L76.9409023,77.3374233 Z" id="Path" fill="#424251"></path>
                        <polygon id="Path" fill="#5D5D69" points="86.6412406 78.7546012 89.3987594 78.9509202 89.2149248 77.9815951 86.592218 77.5460123"></polygon>
                        <path d="M76.6406391,78.4355828 C75.7700746,78.5707355 74.8802609,78.3807744 74.1404887,77.9018405 C73.8792734,78.2853216 73.7541241,78.7454579 73.7850752,79.208589 L76.4261654,79.398773 C76.744812,79.1411043 76.6528947,78.7730061 76.6406391,78.4355828 Z" id="Path" fill="#5D5D69"></path>
                        <path d="M131.374323,40.7484663 C130.228421,40.8650307 129.842368,41.6503067 129.817857,42.6319018 C129.765928,43.0575895 129.901956,43.48479 130.190389,43.801847 C130.478822,44.1189041 130.890992,44.2943061 131.319173,44.2822086 C132.45282,44.2822086 132.863383,43.3803681 132.90015,42.404908 C132.936917,41.4294479 132.391541,40.8773006 131.374323,40.7484663 Z" id="Path" fill="#030304"></path>
                        <path d="M137.336692,42.797546 C137.459248,43.7116564 137.808534,44.4846626 138.880902,44.4294479 C139.307742,44.4296052 139.71651,44.2569619 140.014265,43.9507712 C140.312021,43.6445804 140.473461,43.2308619 140.46188,42.803681 C140.501287,42.3936087 140.361292,41.9865576 140.078067,41.6877064 C139.794841,41.3888552 139.396173,41.2275238 138.985075,41.2453988 C138.557655,41.2200828 138.138695,41.3721641 137.826802,41.6658485 C137.514908,41.9595328 137.33763,42.3688804 137.336692,42.797546 L137.336692,42.797546 Z" id="Path" fill="#030304"></path>
                    </g>
                </g>
            </g>
        </g>
    </g>
</svg>