<svg width="495" height="482" viewBox="0 0 495 482" fill="none" xmlns="http://www.w3.org/2000/svg">
<path d="M241 482C374.101 482 482 374.101 482 241C482 107.899 374.101 0 241 0C107.899 0 0 107.899 0 241C0 374.101 107.899 482 241 482Z" fill="white"/>
<path d="M200.825 296.054V296.054L142.422 239.339L131.431 228.671C74.6455 168.651 25.0956 216.258 25.0956 216.258L0.671807 235.018C0.629065 236.854 0.604642 238.691 0.604642 240.527C0.571619 270.212 6.01394 299.647 16.6572 327.349C63.5144 320.916 116.3 316.846 172.445 315.793C180.759 307.695 190.347 301.026 200.825 296.054V296.054Z" fill="#87C1A3"/>
<path d="M203.671 315.517C249.881 315.572 294.167 317.666 335.169 321.448L321.192 305.896C321.192 305.896 290.943 268.731 275.617 268.1C266.404 267.755 257.328 270.416 249.753 275.684L215.62 302.266C211.227 306.293 207.226 310.73 203.671 315.517H203.671Z" fill="#87C1A3"/>
<path d="M172.427 315.793C182.095 315.609 191.864 315.518 201.735 315.518H203.671C207.231 310.728 211.239 306.288 215.639 302.26C218.1 299.947 220.77 297.868 223.613 296.048H200.826C190.341 301.02 180.746 307.691 172.427 315.793Z" fill="#86E1E0"/>
<path d="M203.67 315.517H201.735C191.88 315.517 182.11 315.609 172.426 315.793C116.282 316.846 63.4958 320.916 16.6387 327.349C18.3809 331.882 20.2554 336.352 22.2623 340.759C38.9499 327.428 61.432 322.342 82.9616 329.209C102.922 335.575 115.135 359.465 121.912 378.029C131.279 367.471 146.412 364.875 160.444 369.373C175.348 374.129 183.152 385.503 183.762 400.615C191.834 391.869 203.555 390.575 215.407 394.358C226.548 397.973 233.199 407.365 235.063 418.954C248.496 405.079 272.507 404.394 291.784 410.546C308.661 415.926 316.036 427.465 320.787 443.55C336.956 439.412 361.301 430.676 371.957 443.55C410.773 418.43 441.6 382.692 460.792 340.563C424.553 332.319 382.025 325.782 335.168 321.454C294.167 317.672 249.88 315.579 203.67 315.517Z" fill="#AC967C"/>
<path d="M351.789 429.913C344.094 427.47 335.871 427.234 328.049 429.234C323.299 413.161 311.166 399.738 294.29 394.346C275.013 388.225 254.753 394.199 241.32 408.075C239.457 396.485 231.274 386.919 220.133 383.304C208.281 379.521 195.813 383.384 187.741 392.13C187.13 377.018 177.525 363.314 162.621 358.558C148.577 354.084 133.813 358.803 124.446 369.361C117.669 350.797 102.941 335.563 82.9806 329.197C61.451 322.33 38.9688 327.416 22.2812 340.747C60.2603 424.086 144.126 482 241.491 482C287.778 482.075 333.097 468.716 371.976 443.538C366.685 437.155 359.679 432.426 351.789 429.913Z" fill="#B88DFC"/>
<path d="M261.008 277.518C261.008 277.518 383.432 191.424 308.141 64C291.002 109.726 232.238 114.604 232.238 114.604C232.238 114.604 276.311 140.821 258.559 180.45C308.141 212.154 261.008 277.518 261.008 277.518" fill="#238862"/>
<path d="M302.048 211C302.048 211 366.875 172.925 307.552 63C286.759 101.689 259.238 107.216 259.238 107.216C259.238 107.216 295.932 133.622 294.709 172.925C308.775 196.876 302.048 211 302.048 211" fill="#1FA658"/>
<path d="M317.161 147.008C317.161 147.008 337.231 125.035 308.647 64C287.968 102.452 278.237 99.4005 278.237 99.4005C278.237 99.4005 289.793 92.6866 304.389 121.984C318.378 145.787 317.161 147.008 317.161 147.008" fill="#35C05F"/>
<path d="M347.57 288C347.57 288 296.483 225.134 367.64 168.981C366.424 192.785 381.629 220.861 381.629 220.861C381.629 220.861 353.652 227.575 362.775 252.599C348.178 256.262 347.57 288 347.57 288Z" fill="#2EBF8B"/>
<path d="M453.109 253.477C457.549 254.404 461.91 255.671 466.154 257.266C466.258 257.529 467.954 258.67 468.126 258.865C472.233 263.387 473.923 267.549 476.035 273.328C478.802 280.92 478.483 289.866 475.612 297.494C472.086 306.862 465.395 312.464 457.113 317.578C455.411 318.634 453.642 318.664 452.136 320.019C448.576 319.588 445.051 318.907 441.588 317.981C440.584 317.706 440.511 318.023 440.651 318.902C441.964 327.219 443.701 335.464 445.855 343.605C446.84 347.395 447.955 351.148 449.057 354.907C449.283 355.676 449.412 355.927 448.371 355.847C446.785 355.731 446.1 355.029 445.665 353.461C442.488 342.019 439.543 330.534 437.946 318.713C437.829 317.822 438.215 316.669 436.764 316.345C436.103 316.199 435.938 316.223 435.828 316.907C434.781 323.418 433.801 329.942 433.146 336.502C432.632 341.628 432.289 346.779 431.867 351.917C431.83 352.32 431.867 352.942 431.255 352.662C430.52 352.332 429.075 353.119 429.124 351.508C429.186 349.372 429.363 347.236 429.547 345.107C430.385 335.312 431.561 325.578 433.373 315.9C433.538 315.009 433.128 314.838 432.546 314.557C424.974 310.896 418.411 305.947 413.447 298.983C413.043 298.416 412.663 297.836 412.118 297.043C412.173 306.423 412.62 315.918 413.171 324.993C412.271 325.109 411.335 325.102 410.441 325.218C409.866 316.486 409.413 307.448 409.449 298.208C405.691 307.551 403.119 317.236 400.732 326.469C399.832 326.5 398.932 326.506 398.026 326.537C399.171 320.855 400.934 314.868 402.636 309.346C403.395 306.868 404.27 304.421 405.085 301.962C405.147 301.722 405.188 301.476 405.207 301.229C404.975 301.279 404.748 301.348 404.527 301.437C394.947 306.172 386.585 304.738 379.012 297.061C378.872 296.921 378.725 296.793 378.578 296.658C378.472 296.852 378.387 297.057 378.327 297.269C377.327 303.784 376.671 310.347 376.362 316.931C375.842 325.742 375.92 334.579 376.594 343.38C376.625 343.715 376.741 344.326 376.147 344.124C375.321 343.837 373.864 344.734 373.784 342.959C373.601 339.077 373.356 335.196 373.319 331.315C373.209 319.226 373.852 307.179 375.896 295.237C375.896 295.084 375.896 294.931 375.97 294.37C373.951 297.992 372.138 301.725 370.54 305.55C365.741 316.872 362.448 328.771 360.745 340.945C360.482 342.824 359.386 341.958 358.517 341.964C357.293 341.964 357.819 341.097 357.905 340.53C360.421 324.523 365.018 309.193 372.56 294.828C372.664 294.62 372.713 294.388 372.891 293.876C369.104 297.014 364.347 298.751 359.423 298.794C355.211 298.929 351.244 297.989 347.792 295.444C342.399 291.465 341.848 284.844 346.439 279.876C347.344 278.78 348.454 277.87 349.708 277.197C351.11 276.557 351.226 275.678 351.11 274.274C350.228 263.766 347.045 253.934 343.005 244.341C342.692 243.591 342.392 243.407 341.554 243.627C338.493 244.427 335.781 243.176 334.538 240.521C334.538 239.831 334.447 239.496 334.771 239.026C337.348 236.231 342.607 236.75 344.058 239.959C349.004 250.895 352.91 262.142 353.852 274.286C353.901 274.939 354.011 275.129 354.722 274.897C355.739 274.581 356.781 274.35 357.837 274.207C359.129 274.006 360.715 274.311 361.663 273.64C362.612 272.968 362.227 271.15 362.661 269.893C362.677 269.853 362.689 269.812 362.698 269.771C364.277 261.642 364.59 253.574 361.866 245.623C361.596 244.829 361.48 244.402 360.439 244.945C357.99 246.227 354.752 244.945 353.913 242.553C353.136 240.332 354.44 238.574 357.446 237.781C357.446 237.781 357.501 237.72 357.531 237.689C358.366 237.605 359.209 237.733 359.98 238.062C362.178 239.142 363.133 241.192 363.965 243.346C367.534 252.622 367.197 262.1 365.141 271.644C364.62 274.085 364.528 274.012 366.867 274.567C369.457 275.148 371.842 276.413 373.772 278.229C374.305 278.735 374.384 278.717 374.635 277.985C377.415 268.965 383.328 263.54 392.596 262.417C399.33 261.605 405.036 263.991 409.737 268.934C410.043 269.264 410.27 269.996 410.851 269.032C415.644 261.038 422.99 256.754 431.61 254.453C436.688 253.007 441.995 252.531 447.251 253.049C447.765 253.104 449.865 253.001 450.379 253.013C450.997 253.63 451.647 254.215 452.325 254.764C456.911 259.701 459.341 263.997 461.637 270.417C464.122 277.374 463.779 285.588 461.508 292.686C458.282 302.773 453.55 308.412 444.9 313.874C444.104 314.38 442.88 315.198 442.084 315.705C442.77 316.406 442.145 315.662 442.984 316.01C443.822 316.357 442.721 316.669 443.939 316.01C448.836 313.288 452.95 309.34 456.868 305.245C463.644 298.154 465.365 294.461 464.869 284.343C464.397 274.805 461.992 265.261 456.09 258.102C454.934 256.671 453.935 255.12 453.109 253.477Z" fill="#424251"/>
<path d="M472.233 260C480.803 265.023 489.166 272.755 492.741 282.336C496.652 292.802 493.898 303.603 485.437 310.914C477.706 317.59 467.391 320.251 457.474 320.397C457.772 319.61 458.262 318.91 458.9 318.359C465.022 314.899 469.974 309.455 474.32 303.774C479.493 297.025 480.656 293.204 479.989 284.618C479.444 277.563 477.675 270.076 473.794 264.278C473.028 262.954 472.499 261.506 472.233 260Z" fill="#424251"/>
<path d="M454.909 253.904C455.521 255.289 456.745 256.229 457.651 257.358C463.552 264.504 467.611 272.443 468.058 281.982C468.554 292.1 464.52 300.369 457.743 307.454C453.831 311.555 449.173 314.679 444.275 317.401C443.051 318.072 442.323 317.364 441.441 317.004C440.559 316.644 439.605 316.583 438.943 315.881L441.337 314.374C449.981 308.912 456.935 301.943 460.161 291.856C462.432 284.752 461.998 277.655 459.506 270.692C457.193 264.402 453.609 258.653 448.977 253.8C448.85 253.597 448.762 253.371 448.72 253.135C450.856 252.952 452.876 253.477 454.909 253.904Z" fill="#5D5D69"/>
<path d="M473.813 261.019C474.039 262.331 475.037 263.137 475.747 264.156C479.634 269.953 482.187 276.27 482.732 283.318C483.399 291.911 480.669 299.435 475.502 306.178C471.15 311.86 465.548 315.942 459.451 319.396C459.09 319.604 458.68 319.75 458.612 320.251C455.955 320.461 453.282 320.34 450.654 319.891C452.166 318.512 454.076 317.822 455.784 316.766C464.061 311.652 470.782 305.092 474.308 295.719C477.173 288.096 476.91 280.407 474.137 272.816C472.064 267.11 468.893 261.863 464.801 257.37C464.651 257.13 464.543 256.866 464.483 256.589C467.797 257.595 470.941 259.089 473.813 261.019Z" fill="#5D5D69"/>
<path d="M413.489 328.965C414.224 335.635 415.173 342.867 416.477 349.439C416.624 350.166 416.397 350.221 415.736 350.184C414.267 350.105 413.551 349.574 413.287 347.95C412.4 341.768 411.2 335.275 410.753 329.032C411.683 329.087 412.596 328.91 413.489 328.965Z" fill="#424251"/>
<path d="M400.658 326.823C399.985 332.212 397.891 340.005 396.881 346.425C396.667 347.804 395.724 346.87 395.137 346.907C394.549 346.944 393.882 346.907 394.084 345.888C395.106 340.743 396.079 335.593 397.083 330.442C397.25 329.18 397.549 327.938 397.977 326.738C398.92 326.793 399.74 326.769 400.658 326.823Z" fill="#424251"/>
<path d="M410.38 324.956L413.086 324.614L413.269 326.695C412.363 327.013 411.519 327.367 410.649 327.159L410.38 324.956Z" fill="#5D5D69"/>
<path d="M410.649 327.159C411.421 326.378 412.357 326.61 413.269 326.695C413.318 327.177 413.361 327.989 413.41 328.465C412.615 328.874 411.693 328.964 410.833 328.715C410.76 328.319 410.698 327.556 410.649 327.159Z" fill="#424251"/>
<path d="M400.634 327.318L397.812 327.147L398.142 326.158L400.854 326.067L400.634 327.318Z" fill="#5D5D69"/>
<path d="M410.796 328.349C411.662 328.607 412.593 328.53 413.404 328.135C413.616 328.576 413.677 329.073 413.576 329.551L410.876 329.38C410.594 329.063 410.76 328.703 410.796 328.349Z" fill="#5D5D69"/>
<path d="M360.844 281.347C361.982 281.628 362.264 282.507 362.148 283.538C362.147 283.984 361.952 284.407 361.614 284.699C361.276 284.99 360.827 285.121 360.385 285.057C359.24 284.905 358.958 283.904 359.056 282.873C359.066 282.425 359.267 282.003 359.608 281.712C359.949 281.421 360.398 281.288 360.844 281.347V281.347Z" fill="#030304"/>
<path d="M354.514 282.677C354.257 283.611 353.791 284.374 352.72 284.167C352.279 284.1 351.884 283.857 351.626 283.495C351.368 283.133 351.268 282.681 351.349 282.244C351.361 281.818 351.557 281.418 351.886 281.145C352.216 280.873 352.647 280.755 353.069 280.822C354.049 280.938 354.532 281.652 354.514 282.677Z" fill="#030304"/>
<path d="M159.652 229.859C155.224 230.16 150.824 230.792 146.49 231.748C146.355 231.981 144.566 232.834 144.364 232.975C139.78 236.693 137.58 240.374 134.761 245.527C131.085 252.276 130.165 260.724 131.93 268.227C134.087 277.46 139.829 283.564 147.17 289.417C148.678 290.644 150.387 290.871 151.668 292.362C155.178 292.41 158.687 292.222 162.171 291.797C163.176 291.669 163.207 291.975 162.955 292.785C160.559 300.421 157.769 307.928 154.597 315.276C153.132 318.705 151.533 322.08 149.971 325.46C149.646 326.159 149.493 326.374 150.51 326.435C152.066 326.521 152.82 325.957 153.457 324.54C158.072 314.221 162.484 303.828 165.603 292.945C165.835 292.129 165.603 291 167.061 290.877C167.729 290.822 167.882 290.877 167.901 291.527C168.041 297.761 168.115 304 167.87 310.233C167.68 315.11 167.325 319.981 167.043 324.859C167.043 325.239 166.92 325.816 167.557 325.632C168.317 325.417 169.61 326.343 169.782 324.822C170.008 322.81 170.125 320.785 170.229 318.767C170.783 309.486 170.852 300.183 170.437 290.896C170.395 290.043 170.817 289.932 171.424 289.742C179.255 287.288 186.278 283.478 192.026 277.576C192.491 277.104 192.939 276.607 193.576 275.926C192.265 284.718 190.555 293.564 188.803 302C189.66 302.221 190.561 302.337 191.419 302.558C193.147 294.448 194.802 286.03 196.009 277.368C198.399 286.601 199.594 296.012 200.666 304.975C201.542 305.123 202.406 305.239 203.283 305.386C202.844 299.785 202.122 294.209 201.119 288.681C200.715 286.227 200.194 283.859 199.735 281.448C199.716 281.213 199.716 280.977 199.735 280.742C199.946 280.819 200.151 280.914 200.347 281.024C209.012 286.687 217.309 286.411 225.68 280.178C225.833 280.067 225.998 279.963 226.158 279.859C226.23 280.057 226.282 280.263 226.311 280.472C226.408 286.708 226.165 292.944 225.582 299.153C224.904 307.489 223.642 315.767 221.807 323.926C221.733 324.233 221.537 324.791 222.138 324.681C222.977 324.515 224.276 325.515 224.589 323.889C225.288 320.276 226.041 316.669 226.599 313.03C228.433 301.743 229.219 290.31 228.946 278.877C228.946 278.73 228.946 278.583 228.989 278.055C230.454 281.704 231.711 285.434 232.751 289.227C235.883 300.435 237.479 312.018 237.494 323.656C237.494 325.454 238.683 324.785 239.516 324.883C240.687 325.037 240.313 324.159 240.301 323.613C240.007 308.276 237.604 293.331 232.224 278.896C232.139 278.589 232.074 278.278 232.028 277.963C235.326 281.413 239.693 283.644 244.419 284.294C248.487 284.957 252.458 284.583 256.147 282.638C261.907 279.57 263.335 273.435 259.548 268.215C258.81 267.065 257.854 266.071 256.736 265.288C255.461 264.509 255.467 263.669 255.767 262.362C258.035 252.626 262.441 243.816 267.643 235.337C268.047 234.675 268.378 234.54 269.144 234.853C271.988 235.994 274.806 235.165 276.363 232.84C276.443 232.19 276.59 231.889 276.363 231.405C274.237 228.46 269.071 228.27 267.232 231.098C260.97 240.718 255.675 250.767 253.138 262.03C253.004 262.644 252.869 262.803 252.213 262.491C251.266 262.065 250.287 261.716 249.284 261.448C248.059 261.092 246.484 261.178 245.65 260.429C244.817 259.681 245.442 258.018 245.185 256.785V256.669C244.743 248.846 245.522 241.239 249.229 234.135C249.603 233.423 249.774 233.037 250.706 233.681C252.912 235.196 256.221 234.411 257.354 232.27C258.408 230.288 257.354 228.472 254.566 227.362C254.536 227.362 254.523 227.3 254.499 227.264C253.7 227.083 252.87 227.098 252.078 227.307C249.799 228.037 248.604 229.84 247.507 231.754C242.801 239.994 241.857 248.932 242.568 258.135C242.752 260.472 242.831 260.429 240.509 260.65C237.932 260.856 235.454 261.733 233.321 263.196C232.739 263.601 232.635 263.564 232.518 262.853C231.035 254.043 226.023 248.202 217.199 245.969C210.795 244.343 204.943 245.859 199.728 249.896C199.385 250.159 199.073 250.822 198.638 249.84C195.016 241.773 188.472 236.816 180.42 233.564C175.67 231.556 170.595 230.431 165.443 230.245C164.941 230.245 162.919 229.871 162.416 229.816C161.732 230.316 161.022 230.781 160.29 231.208C155.185 235.251 152.25 238.969 149.168 244.705C145.822 250.914 145.05 258.656 146.3 265.601C148.077 275.472 151.919 281.362 159.567 287.589C160.271 288.159 161.344 289.086 162.055 289.656C161.295 290.227 161.999 289.613 161.135 289.828C160.271 290.043 161.301 290.478 160.216 289.687C155.804 286.509 152.367 282.282 149.119 277.945C143.5 270.435 142.329 266.748 144.167 257.331C145.902 248.448 149.517 239.803 156.19 233.859C157.486 232.656 158.647 231.314 159.652 229.859V229.859Z" fill="#424251"/>
<path d="M140.233 233.515C131.244 237.129 122.107 243.331 117.352 251.84C112.162 261.153 113.381 271.632 120.6 279.564C127.205 286.816 136.851 290.607 146.447 292.03C146.263 291.247 145.881 290.525 145.338 289.932C139.89 285.908 135.797 280.172 132.334 274.288C128.229 267.307 127.616 263.576 129.411 255.607C130.888 249.061 133.603 242.27 138.15 237.331C139.064 236.192 139.769 234.9 140.233 233.515V233.515Z" fill="#424251"/>
<path d="M157.85 230.012C157.054 231.239 155.785 231.963 154.725 232.902C148.046 238.846 143.082 245.785 141.311 254.656C139.473 264.073 142.274 272.343 147.893 279.853C151.14 284.196 155.246 287.718 159.621 290.895C160.712 291.687 161.521 291.11 162.422 290.895C163.323 290.681 164.26 290.736 164.995 290.172L162.875 288.448C155.228 282.221 149.394 274.803 147.648 264.932C146.422 257.981 147.77 251.386 151.116 245.178C154.235 239.538 158.482 234.603 163.592 230.681C163.758 230.552 163.819 230.288 163.929 230.067C161.913 229.638 159.879 229.859 157.85 230.012Z" fill="#5D5D69"/>
<path d="M138.572 234.276C138.174 235.503 137.071 236.116 136.274 236.969C131.727 241.908 128.406 247.497 126.935 254.043C125.134 262.018 126.77 269.411 130.882 276.399C134.338 282.276 139.222 286.828 144.669 290.834C144.994 291.074 145.374 291.264 145.368 291.742C147.919 292.279 150.526 292.507 153.132 292.423C151.851 290.939 150.068 290.043 148.579 288.84C141.226 282.981 135.6 275.957 133.437 266.754C131.678 259.239 132.971 252.067 136.673 245.282C139.475 240.166 143.256 235.653 147.801 232C147.975 231.794 148.114 231.559 148.211 231.307C144.872 231.827 141.626 232.827 138.572 234.276V234.276Z" fill="#5D5D69"/>
<path d="M187.944 305.668C186.339 311.803 184.451 318.491 182.3 324.484C182.061 325.147 182.3 325.227 182.913 325.276C184.341 325.392 185.113 324.969 185.554 323.491C187.239 317.81 189.28 311.877 190.548 306.079C189.678 306.018 188.826 305.736 187.944 305.668Z" fill="#424251"/>
<path d="M200.671 305.301C200.604 310.442 201.59 318.012 201.707 324.159C201.707 325.478 202.767 324.724 203.337 324.834C203.907 324.945 204.562 325.006 204.489 324.012C204.189 319.061 203.937 314.104 203.656 309.153C203.662 307.945 203.537 306.739 203.282 305.558C202.363 305.528 201.59 305.368 200.671 305.301Z" fill="#424251"/>
<path d="M191.498 302.313L188.919 301.644L188.459 303.57C189.298 303.988 190.071 304.429 190.941 304.337L191.498 302.313Z" fill="#5D5D69"/>
<path d="M190.941 304.337C190.298 303.509 189.36 303.607 188.459 303.57C188.355 304.018 188.202 304.797 188.092 305.214C188.811 305.699 189.684 305.9 190.543 305.779L190.941 304.337Z" fill="#424251"/>
<path d="M200.641 305.754L203.398 305.951L203.215 304.981L200.592 304.546L200.641 305.754Z" fill="#5D5D69"/>
<path d="M190.64 305.435C189.77 305.571 188.88 305.381 188.14 304.902C187.879 305.285 187.754 305.745 187.785 306.208L190.426 306.399C190.745 306.141 190.653 305.773 190.64 305.435Z" fill="#5D5D69"/>
<path d="M245.374 267.748C244.228 267.865 243.842 268.65 243.817 269.632C243.766 270.057 243.902 270.485 244.19 270.802C244.478 271.119 244.891 271.294 245.319 271.282C246.452 271.282 246.863 270.38 246.9 269.405C246.937 268.429 246.391 267.877 245.374 267.748Z" fill="#030304"/>
<path d="M251.337 269.797C251.459 270.711 251.809 271.484 252.881 271.429C253.308 271.429 253.717 271.257 254.014 270.951C254.312 270.644 254.474 270.231 254.462 269.803C254.502 269.393 254.362 268.986 254.078 268.687C253.795 268.389 253.396 268.227 252.985 268.245C252.558 268.22 252.139 268.372 251.827 268.666C251.515 268.959 251.338 269.369 251.337 269.797V269.797Z" fill="#030304"/>
</svg>
