<svg width="481" height="481" viewBox="0 0 481 481" fill="none" xmlns="http://www.w3.org/2000/svg">
<path d="M240.5 481C373.324 481 481 373.324 481 240.5C481 107.676 373.324 0 240.5 0C107.676 0 0 107.676 0 240.5C0 373.324 107.676 481 240.5 481Z" fill="white"/>
<path d="M240.5 481C373.324 481 481 373.324 481 240.5C481 107.676 373.324 0 240.5 0C107.676 0 0 107.676 0 240.5C0 373.324 107.676 481 240.5 481Z" fill="white"/>
<path d="M373.065 345.723C401.157 346.015 428.541 347.369 454.847 349.679C466.073 327.69 473.822 304.093 477.818 279.73C467.015 284.698 458.535 292.776 453.518 302.286C447.184 295.038 436.32 291.593 425.353 294.318C413.703 297.214 405.418 306.2 403.851 316.302C398.365 310.291 389.22 307.468 379.929 309.767C371.333 311.9 364.871 317.899 362.354 325.044C368.87 330.208 372.955 337.657 373.065 345.723Z" fill="#ADE7C0"/>
<path d="M345.112 318.076C349.259 318.519 353.29 319.715 357.006 321.606C348.155 315.326 336.145 312.742 323.952 315.467C324.668 317.525 325.22 319.637 325.604 321.782C331.581 318.598 338.384 317.306 345.112 318.076V318.076Z" fill="#ADE7C0"/>
<path d="M316.484 346.576C331.237 345.971 346.224 345.666 361.445 345.662C365.334 345.662 369.207 345.682 373.064 345.723C372.955 337.657 368.87 330.208 362.353 325.038C360.687 323.723 358.896 322.573 357.007 321.606C353.29 319.715 349.259 318.519 345.113 318.076C338.384 317.306 331.581 318.598 325.604 321.782C325.221 319.637 324.668 317.525 323.952 315.467C318.094 298.555 301.463 285.302 280.571 283.028C264.586 281.285 249.644 286.357 239.311 295.66C235.86 286.668 226.856 279.693 215.621 278.468C203.684 277.17 192.808 282.736 187.858 291.691C184.81 284.162 177.147 278.346 167.655 277.31C158.48 276.31 150.03 280.035 145.293 286.326C139.977 274.201 127.486 264.916 112.05 263.233C98.5346 261.758 85.964 266.464 77.801 274.816C72.7512 271.376 66.9292 269.238 60.8532 268.592C42.2106 266.562 25.6408 278.316 23.8424 294.849L20.0627 294.453C15.4605 293.932 10.8026 294.643 6.56543 296.513C9.08131 307.087 12.32 317.475 16.2586 327.604C50.9584 322.943 85.9331 320.625 120.945 320.667C193.29 320.667 260.551 330.214 316.484 346.576Z" fill="#37DD9E"/>
<path d="M316.484 346.576C260.551 330.213 193.29 320.666 120.945 320.666C85.9337 320.618 50.9591 322.93 16.2588 327.586C26.1288 352.944 40.2307 376.444 57.9637 397.084C121.353 369.583 235.32 396.197 316.484 346.576Z" fill="#AC967C"/>
<path d="M373.065 345.723C369.208 345.686 365.334 345.666 361.445 345.662C346.241 345.662 331.254 345.966 316.485 346.576C212.847 350.843 121.353 369.584 57.9639 397.09C102.077 448.458 167.484 481 240.5 481C334.018 481 415.062 427.627 454.847 349.679C428.517 347.369 401.156 346.015 373.065 345.723Z" fill="#988976"/>
<path d="M273 327.647C342.928 327.647 399.616 270.959 399.616 201.03C399.616 131.102 342.928 74.4141 273 74.4141C203.072 74.4141 146.384 131.102 146.384 201.03C146.384 270.959 203.072 327.647 273 327.647Z" fill="url(#paint0_linear)"/>
<path d="M222.072 153.635C226.63 153.635 230.325 149.94 230.325 145.382C230.325 140.824 226.63 137.128 222.072 137.128C217.514 137.128 213.818 140.824 213.818 145.382C213.818 149.94 217.514 153.635 222.072 153.635Z" fill="white"/>
<path d="M196.008 148.75C199.217 148.75 201.819 146.149 201.819 142.939C201.819 139.73 199.217 137.128 196.008 137.128C192.799 137.128 190.197 139.73 190.197 142.939C190.197 146.149 192.799 148.75 196.008 148.75Z" fill="white"/>
<path d="M279.463 265.426C312.483 261.516 337.07 233.066 336.154 199.828C335.238 166.59 309.122 139.537 275.936 137.451C271.786 137.187 267.62 137.332 263.498 137.884V137.884C258.096 138.396 252.804 139.733 247.808 141.849C242.003 144.676 238.257 149.451 238.257 155.804C238.273 164.073 244.972 170.771 253.241 170.788C254.654 170.788 259.429 169.272 260.55 168.888C264.906 167.369 269.525 166.747 274.127 167.06C290.384 168.082 303.734 180.288 306.205 196.388C308.676 212.488 299.6 228.135 284.399 233.985C269.197 239.835 251.973 234.308 243.014 220.705V220.705C236.119 211.635 237.69 197.193 237.69 196.95C237.431 189.533 231.79 183.42 224.419 182.565C217.047 181.711 210.158 186.372 208.209 193.532C207.906 195.325 207.761 197.141 207.777 198.96C206.344 233.861 233.07 263.507 267.933 265.688C271.77 265.98 275.626 265.89 279.445 265.42" fill="white"/>
<path d="M211.376 177.738C217.283 177.738 222.072 172.949 222.072 167.042C222.072 161.134 217.283 156.346 211.376 156.346C205.468 156.346 200.68 161.134 200.68 167.042C200.68 172.949 205.468 177.738 211.376 177.738Z" fill="white"/>
<path d="M456.934 298.698C459.741 300.468 462.408 302.452 464.914 304.631C465.201 305.178 465.518 305.707 465.865 306.217C467.549 310.332 467.696 313.566 467.696 318.03C467.589 324.017 465.361 329.77 461.412 334.257C456.677 339.677 450.711 341.734 443.78 343.057C442.353 343.326 441.138 342.892 439.766 343.437C437.438 342.227 435.196 340.858 433.055 339.34C432.445 338.893 432.31 339.089 432.182 339.72C431.019 345.683 430.162 351.702 429.614 357.754C429.345 360.57 429.175 363.393 429.004 366.223C428.967 366.798 429.004 367 428.302 366.682C427.241 366.186 426.948 365.537 427.039 364.367C427.71 355.794 428.54 347.288 430.389 338.893C430.529 338.281 431.084 337.582 430.169 336.988C429.754 336.713 429.632 336.688 429.388 337.123C427.058 341.257 424.77 345.408 422.677 349.67C421.048 353.008 419.541 356.406 417.973 359.762C417.851 360.025 417.711 360.454 417.363 360.105C417.015 359.756 415.759 359.848 416.192 358.77C416.765 357.343 417.412 355.947 418.071 354.551C421.037 348.135 424.33 341.877 427.936 335.8C428.266 335.243 428.028 335.023 427.698 334.68C423.427 330.253 420.176 325.219 418.51 319.23C418.376 318.74 418.26 318.25 418.083 317.571C415.795 323.927 413.745 330.461 411.866 336.737C411.226 336.578 410.591 336.339 409.944 336.18C411.72 330.136 413.654 323.933 415.972 317.675C411.091 323.014 406.925 328.899 403.002 334.521C402.392 334.306 401.781 334.08 401.135 333.872C403.325 330.326 406.015 326.738 408.547 323.461C409.688 321.986 410.89 320.559 412.061 319.108C412.161 318.96 412.249 318.804 412.324 318.642C412.151 318.627 411.978 318.627 411.805 318.642C404.081 319.365 398.719 316.242 395.449 309.095C395.394 308.967 395.321 308.844 395.253 308.716C395.144 308.838 400.201 308.636 400.372 308.269C397.932 310.314 391.221 310.106 387.56 310.106C376.579 308.881 356.446 305.207 349.124 302.145C346.684 301.533 345.464 301.141 344.854 300.92C344.03 300.608 345.263 297.608 345.464 297.246C355.835 301.533 361.162 302.849 372.918 305.207C382.069 307.044 394.271 308.269 394.271 305.819C393.051 305.207 391.831 305.685 392.063 305.385C388.672 306.527 384.994 306.475 381.636 305.238C378.739 304.336 376.23 302.478 374.516 299.965C374.051 299.268 373.687 298.507 373.437 297.706C372.381 294.289 373.882 290.872 377.457 289.096C378.351 288.588 379.336 288.261 380.355 288.134C381.478 288.061 381.777 287.522 382.045 286.518C384.046 279.169 384.308 271.723 383.93 264.197C383.93 263.585 383.735 263.401 383.119 263.34C380.992 263.226 379.275 261.557 379.092 259.427C379.275 258.968 379.281 258.711 379.623 258.478C382.063 257.253 385.541 258.962 385.724 261.509C386.395 270.174 386.267 278.784 383.894 287.228C383.765 287.681 383.796 287.84 384.333 287.84C385.109 287.891 385.88 288.004 386.639 288.177C387.572 288.373 388.579 288.992 389.39 288.79C390.202 288.588 390.397 287.253 391.007 286.518L391.062 286.444C394.161 281.356 396.376 275.985 396.486 269.911C396.486 269.298 396.522 268.98 395.681 269.078C394.728 269.173 393.777 268.875 393.048 268.252C392.318 267.63 391.872 266.736 391.813 265.777C391.813 264.081 393.161 263.224 395.412 263.462C395.412 263.462 395.467 263.462 395.491 263.426C396.082 263.585 396.625 263.888 397.072 264.308C398.292 265.606 398.45 267.235 398.481 268.912C398.621 276.102 396.04 282.415 392.264 288.337C391.306 289.843 391.27 289.782 392.715 290.755C394.342 291.821 395.657 293.3 396.529 295.042C396.766 295.513 396.846 295.532 397.181 295.097C401.318 289.714 406.711 287.577 413.324 289.206C418.114 290.394 421.432 293.493 423.403 298.03C423.531 298.33 423.501 298.887 424.135 298.379C429.4 294.221 435.483 293.217 441.95 293.891C445.786 294.218 449.528 295.256 452.986 296.952C453.322 297.124 454.817 297.595 455.134 297.73C455.134 297.908 455.97 299.273 456.031 299.42C457.819 303.505 458.666 307.943 458.508 312.402C458.508 317.748 456.208 323.204 452.895 327.417C448.185 333.406 443.548 335.99 436.282 337.454C435.611 337.589 434.574 337.827 433.903 337.956C434.196 338.611 433.958 337.956 434.446 338.397C434.934 338.838 434.098 338.77 435.099 338.63C439.143 338.06 442.92 336.45 446.611 334.692C453.005 331.63 455.097 329.597 457.269 322.635C459.313 316.064 460.039 308.991 457.782 302.641C457.359 301.361 457.074 300.039 456.934 298.698Z" fill="#424251"/>
<path d="M468.398 308.03C473.01 313.639 476.805 321.018 476.872 328.421C476.945 336.505 472.381 343.118 464.786 345.849C457.843 348.366 450.144 347.502 443.311 345.041C443.711 344.583 444.221 344.235 444.793 344.03C449.82 343.265 454.555 340.871 458.959 338.158C464.17 334.931 465.908 332.647 467.586 326.67C468.965 321.771 469.618 316.26 468.398 311.324C468.205 310.235 468.205 309.119 468.398 308.03Z" fill="#424251"/>
<path d="M458.063 299.439C458.154 300.541 458.728 301.478 459.081 302.501C461.345 308.851 462.132 315.262 460.1 321.827C457.928 328.783 453.121 333.321 446.733 336.382C443.028 338.055 439.09 339.15 435.056 339.628C434.062 339.769 433.732 339.101 433.226 338.624C432.719 338.146 432.091 337.877 431.792 337.228L433.805 336.823C441.071 335.366 447.551 332.445 452.261 326.462C455.579 322.249 457.044 317.338 457.068 311.992C457.043 307.119 456.017 302.304 454.054 297.847C454.023 297.675 454.023 297.498 454.054 297.326C455.487 297.827 456.838 298.539 458.063 299.439Z" fill="#5D5D69"/>
<path d="M469.221 309.126C469.044 310.075 469.55 310.884 469.764 311.747C471.06 316.578 471.06 321.668 469.764 326.499C468.086 332.475 464.358 336.86 459.148 340.087C454.761 342.8 449.923 344.104 444.896 344.87C444.597 344.919 444.286 344.912 444.109 345.237C442.241 344.688 440.445 343.918 438.759 342.941C440.131 342.396 441.614 342.42 443.029 342.151C449.96 340.828 456.183 338.127 460.917 332.708C464.773 328.293 466.494 323.033 466.487 317.185C466.486 312.772 465.62 308.402 463.937 304.325C463.903 304.123 463.903 303.916 463.937 303.713C465.952 305.25 467.732 307.073 469.221 309.126Z" fill="#5D5D69"/>
<path d="M411.121 339.481C409.968 344.178 408.821 349.309 408.071 354.092C407.986 354.618 407.821 354.594 407.376 354.398C406.935 354.281 406.564 353.983 406.355 353.577C406.146 353.171 406.117 352.695 406.277 352.267C407.205 347.858 407.998 343.161 409.242 338.795C409.852 339.095 410.517 339.211 411.121 339.481Z" fill="#424251"/>
<path d="M402.88 334.723C401.05 338.188 397.718 342.91 395.437 346.97C394.943 347.845 394.534 346.97 394.119 346.841C393.704 346.713 393.259 346.523 393.655 345.88C395.632 342.671 397.578 339.438 399.537 336.223C399.966 335.41 400.481 334.646 401.074 333.945C401.702 334.251 402.251 334.441 402.88 334.723Z" fill="#424251"/>
<path d="M409.987 335.966L411.927 336.437L411.537 337.889C410.878 337.952 410.215 337.824 409.627 337.521L409.987 335.966Z" fill="#5D5D69"/>
<path d="M409.627 337.521C410.347 337.197 410.932 337.595 411.536 337.888C411.445 338.225 411.274 338.789 411.189 339.113C410.538 339.186 409.884 339.009 409.358 338.617L409.627 337.521Z" fill="#424251"/>
<path d="M402.746 335.035L400.86 334.19L401.33 333.608L403.209 334.221L402.746 335.035Z" fill="#5D5D69"/>
<path d="M409.432 338.366C409.956 338.763 410.608 338.951 411.262 338.893C411.294 339.244 411.213 339.596 411.03 339.897L409.2 339.089C409.115 338.795 409.304 338.587 409.432 338.366Z" fill="#5D5D69"/>
<path d="M386.944 293.713C387.657 294.197 387.627 294.858 387.297 295.55C387.181 295.853 386.94 296.091 386.635 296.201C386.331 296.312 385.994 296.284 385.711 296.126C384.967 295.722 385.022 294.975 385.345 294.289C385.466 293.986 385.71 293.75 386.015 293.64C386.321 293.53 386.659 293.557 386.944 293.713Z" fill="#030304"/>
<path d="M382.295 292.972C381.892 293.541 381.386 293.933 380.703 293.517C380.419 293.365 380.209 293.103 380.122 292.792C380.034 292.482 380.077 292.148 380.239 291.87C380.357 291.582 380.594 291.36 380.887 291.261C381.18 291.161 381.502 291.193 381.77 291.349C382.063 291.485 382.286 291.738 382.385 292.046C382.485 292.354 382.452 292.689 382.295 292.972V292.972Z" fill="#030304"/>
<path d="M360.71 291.068L363.15 289.23C365.969 291.974 369.44 293.48 373.174 294.491L373.522 297.804C368.44 295.532 363.76 293.272 360.71 291.068Z" fill="#424251"/>
<path d="M120.554 316.533C117.724 318.251 115.028 320.181 112.488 322.305C112.194 322.845 111.868 323.366 111.512 323.867C109.761 327.943 109.584 331.189 109.499 335.613C109.508 341.574 111.631 347.338 115.49 351.88C120.127 357.371 126.051 359.513 132.945 360.947C134.366 361.246 135.587 360.831 136.947 361.392C139.292 360.229 141.552 358.904 143.713 357.426C144.323 356.993 144.457 357.188 144.573 357.817C145.642 363.784 146.402 369.802 146.849 375.847C147.068 378.66 147.19 381.479 147.319 384.292C147.349 384.902 147.319 385.073 148.014 384.762C149.076 384.292 149.381 383.651 149.308 382.48C148.789 373.938 148.087 365.438 146.397 357.042C146.269 356.432 145.726 355.724 146.648 355.15C147.068 354.888 147.19 354.864 147.428 355.297C149.686 359.434 151.894 363.644 153.926 367.915C155.488 371.265 156.94 374.67 158.447 378.05C158.563 378.312 158.703 378.74 159.057 378.398C159.411 378.056 160.667 378.172 160.277 377.092C159.728 375.658 159.099 374.255 158.447 372.858C155.591 366.418 152.411 360.127 148.917 354.009C148.588 353.448 148.832 353.228 149.167 352.893C153.499 348.555 156.842 343.594 158.599 337.639C158.746 337.157 158.868 336.668 159.057 335.997C161.235 342.361 163.175 348.908 164.938 355.193C165.585 355.047 166.219 354.821 166.866 354.674C165.2 348.616 163.376 342.38 161.168 336.131C165.957 341.538 170.008 347.468 173.833 353.137L175.706 352.527C173.475 348.901 171.062 345.39 168.477 342.007C167.366 340.519 166.189 339.079 165.048 337.608C164.951 337.461 164.868 337.306 164.798 337.144C164.968 337.129 165.14 337.129 165.31 337.144C173.01 338.005 178.415 334.978 181.783 327.919C181.844 327.79 181.917 327.662 181.984 327.54C182.094 327.662 177.048 327.376 176.884 327.009C179.269 329.084 185.992 328.992 189.647 329.053C200.628 328.022 220.761 324.703 228.156 321.78C230.596 321.213 231.816 320.841 232.426 320.633C233.256 320.334 232.079 317.32 231.883 316.972C221.451 321.066 216.113 322.287 204.338 324.435C195.186 326.112 182.985 327.125 182.985 324.685C184.205 324.075 185.425 324.593 185.199 324.288C188.566 325.485 192.24 325.495 195.613 324.319C198.521 323.469 201.057 321.66 202.806 319.187C203.3 318.488 203.687 317.718 203.953 316.905C205.058 313.519 203.624 310.089 200.079 308.259C199.194 307.74 198.216 307.398 197.2 307.252C196.089 307.161 195.797 306.593 195.546 305.611C193.667 298.289 193.533 290.839 194.039 283.346C194.076 282.736 194.247 282.559 194.869 282.504C196.992 282.421 198.731 280.791 198.951 278.678C198.78 278.214 198.774 277.958 198.438 277.72C195.998 276.463 192.52 278.098 192.282 280.637C191.471 289.258 191.447 297.837 193.679 306.264C193.801 306.721 193.771 306.874 193.228 306.874C192.452 306.91 191.681 307.01 190.922 307.173C189.988 307.35 188.97 307.948 188.164 307.728C187.359 307.508 187.188 306.178 186.59 305.434L186.541 305.361C183.528 300.241 181.404 294.853 181.398 288.795C181.398 288.184 181.398 287.873 182.222 287.983C183.172 288.094 184.127 287.813 184.865 287.205C185.604 286.597 186.064 285.715 186.139 284.761C186.139 283.065 184.833 282.192 182.582 282.394C182.552 282.387 182.525 282.372 182.503 282.351C181.91 282.505 181.364 282.8 180.91 283.211C179.66 284.481 179.489 286.104 179.428 287.769C179.165 294.927 181.636 301.266 185.303 307.228C186.236 308.741 186.273 308.686 184.815 309.632C183.174 310.653 181.833 312.091 180.929 313.799C180.685 314.275 180.605 314.287 180.282 313.848C176.243 308.418 170.899 306.197 164.267 307.71C159.459 308.808 156.092 311.828 154.048 316.325C153.914 316.624 153.938 317.173 153.31 316.661C148.124 312.426 142.072 311.328 135.617 311.883C131.77 312.172 128.009 313.172 124.526 314.83C124.19 314.995 122.726 315.441 122.372 315.575C122.092 316.146 121.782 316.702 121.445 317.241C119.601 321.268 118.682 325.656 118.754 330.085C118.693 335.418 120.865 340.891 124.105 345.15C128.705 351.19 133.293 353.845 140.522 355.425C141.187 355.571 142.224 355.822 142.889 355.968C142.584 356.615 142.834 355.968 142.34 356.395C141.846 356.822 142.676 356.78 141.681 356.621C137.655 356.011 133.915 354.314 130.254 352.496C123.922 349.36 121.866 347.279 119.822 340.293C117.888 333.715 117.284 326.656 119.645 320.365C120.083 319.123 120.387 317.839 120.554 316.533Z" fill="#424251"/>
<path d="M108.956 325.637C104.253 331.128 100.342 338.45 100.147 345.772C99.9392 353.827 104.381 360.465 111.921 363.339C118.809 365.969 126.527 365.237 133.372 362.906C132.98 362.441 132.476 362.084 131.908 361.869C126.905 361.02 122.201 358.555 117.876 355.767C112.727 352.46 111.025 350.159 109.451 344.174C108.163 339.292 107.62 333.752 108.901 328.871C109.108 327.804 109.126 326.71 108.956 325.637V325.637Z" fill="#424251"/>
<path d="M119.419 317.271C119.309 318.363 118.724 319.291 118.345 320.285C115.984 326.576 115.075 332.946 117.003 339.53C119.053 346.504 123.781 351.123 130.108 354.253C133.774 355.982 137.683 357.14 141.7 357.689C142.694 357.841 143.03 357.182 143.53 356.719C144.03 356.255 144.677 355.992 144.982 355.352L142.981 354.912C135.751 353.332 129.327 350.318 124.727 344.277C121.487 340.006 120.108 335.125 120.169 329.78C120.279 324.929 121.382 320.153 123.409 315.746C123.44 315.574 123.44 315.399 123.409 315.227C121.985 315.708 120.641 316.396 119.419 317.271V317.271Z" fill="#5D5D69"/>
<path d="M108.114 326.717C108.273 327.656 107.754 328.456 107.504 329.316C106.119 334.106 106.027 339.177 107.235 344.015C108.809 349.995 112.464 354.424 117.607 357.725C121.939 360.508 126.758 361.887 131.755 362.735C132.054 362.79 132.365 362.784 132.536 363.113C134.411 362.6 136.218 361.863 137.917 360.917C136.556 360.349 135.074 360.349 133.646 360.056C126.752 358.622 120.584 355.828 115.954 350.342C112.183 345.882 110.548 340.58 110.658 334.783C110.735 330.392 111.674 326.059 113.422 322.031C113.456 321.829 113.456 321.622 113.422 321.42C111.405 322.92 109.618 324.704 108.114 326.717Z" fill="#5D5D69"/>
<path d="M165.609 357.939C166.683 362.637 167.739 367.769 168.397 372.546C168.471 373.071 168.635 373.053 169.087 372.864C169.527 372.752 169.901 372.461 170.116 372.06C170.33 371.66 170.367 371.187 170.216 370.759C169.361 366.353 168.654 361.661 167.482 357.335C166.878 357.579 166.213 357.683 165.609 357.939Z" fill="#424251"/>
<path d="M173.919 353.338C175.658 356.822 178.934 361.588 181.142 365.694C181.618 366.573 182.045 365.694 182.46 365.59C182.875 365.487 183.32 365.285 182.936 364.639C181.02 361.405 179.135 358.152 177.232 354.912C176.816 354.097 176.315 353.328 175.737 352.618C175.103 352.887 174.547 353.07 173.919 353.338Z" fill="#424251"/>
<path d="M166.799 354.491L164.859 354.924L165.225 356.377C165.88 356.45 166.543 356.336 167.135 356.047L166.799 354.491Z" fill="#5D5D69"/>
<path d="M167.134 356.017C166.42 355.675 165.829 356.066 165.225 356.347C165.304 356.682 165.463 357.244 165.548 357.567C166.195 357.65 166.849 357.485 167.378 357.103L167.134 356.017Z" fill="#424251"/>
<path d="M174.059 353.656L175.956 352.844L175.493 352.234L173.607 352.844L174.059 353.656Z" fill="#5D5D69"/>
<path d="M167.348 356.859C166.819 357.242 166.168 357.418 165.518 357.353C165.478 357.702 165.556 358.054 165.738 358.354L167.568 357.579C167.623 357.292 167.44 357.085 167.348 356.859Z" fill="#5D5D69"/>
<path d="M190.532 312.75C190.226 312.931 190.01 313.233 189.937 313.581C189.864 313.929 189.94 314.291 190.147 314.58C190.257 314.885 190.493 315.128 190.795 315.245C191.097 315.362 191.435 315.342 191.721 315.191C192.472 314.8 192.429 314.056 192.118 313.36C192.004 313.056 191.766 312.814 191.462 312.698C191.159 312.581 190.82 312.6 190.532 312.75Z" fill="#030304"/>
<path d="M195.175 312.097C195.571 312.664 196.071 313.067 196.761 312.664C197.341 312.342 197.558 311.616 197.249 311.029C197.135 310.742 196.903 310.518 196.612 310.414C196.321 310.31 196 310.336 195.73 310.486C195.436 310.619 195.21 310.867 195.105 311.172C195 311.477 195.025 311.811 195.175 312.097V312.097Z" fill="#030304"/>
<path d="M216.766 310.559L214.356 308.686C211.495 311.371 208.005 312.817 204.259 313.75L203.856 317.051C208.969 314.879 213.716 312.707 216.766 310.559Z" fill="#424251"/>
<defs>
<linearGradient id="paint0_linear" x1="146.384" y1="74.4141" x2="146.384" y2="327.647" gradientUnits="userSpaceOnUse">
<stop stop-color="#8C61E1"/>
<stop offset="1" stop-color="#5F45BA"/>
</linearGradient>
</defs>
</svg>
