<?xml version="1.0" encoding="UTF-8"?>
<svg width="530px" height="530px" viewBox="0 0 530 530" version="1.1" xmlns="http://www.w3.org/2000/svg" xmlns:xlink="http://www.w3.org/1999/xlink">
    <!-- Generator: Sketch 60 (88103) - https://sketch.com -->
    <title>Group 8 Copy</title>
    <desc>Created with Sketch.</desc>
    <defs>
        <circle id="path-1" cx="241" cy="241" r="241"></circle>
        <filter x="-7.7%" y="-7.3%" width="115.4%" height="115.4%" filterUnits="objectBoundingBox" id="filter-2">
            <feOffset dx="0" dy="2" in="SourceAlpha" result="shadowOffsetOuter1"></feOffset>
            <feGaussianBlur stdDeviation="12" in="shadowOffsetOuter1" result="shadowBlurOuter1"></feGaussianBlur>
            <feColorMatrix values="0 0 0 0 0   0 0 0 0 0   0 0 0 0 0  0 0 0 0.1 0" type="matrix" in="shadowBlurOuter1"></feColorMatrix>
        </filter>
        <linearGradient x1="50%" y1="0%" x2="50%" y2="100%" id="linearGradient-3">
            <stop stop-color="#8C61E1" offset="0%"></stop>
            <stop stop-color="#5F45BA" offset="100%"></stop>
        </linearGradient>
    </defs>
    <g id="Page-1" stroke="none" stroke-width="1" fill="none" fill-rule="evenodd">
        <g id="Group-8-Copy" transform="translate(24.000000, 22.000000)">
            <g id="Oval">
                <use fill="black" fill-opacity="1" filter="url(#filter-2)" xlink:href="#path-1"></use>
                <use fill="#FFFFFF" fill-rule="evenodd" xlink:href="#path-1"></use>
            </g>
            <g id="How_Token" fill-rule="nonzero">
                <g id="Layer_5" fill="#FFFFFF">
                    <circle id="Oval" cx="240.5" cy="240.5" r="240.5"></circle>
                </g>
                <g id="Layer_3">
                    <circle id="Oval" fill="#FFFFFF" cx="240.5" cy="240.5" r="240.5"></circle>
                    <path d="M373.064575,345.72256 C401.156439,346.015184 428.541128,347.368568 454.846768,349.679075 C466.072769,327.689944 473.821783,304.093293 477.817719,279.729848 C467.015032,284.698352 458.535044,292.775982 453.517769,302.286248 C447.183688,295.037719 436.320038,291.593295 425.35275,294.318352 C413.702674,297.214106 405.417769,306.200089 403.851014,316.301698 C398.364322,310.290722 389.219835,307.468124 379.929037,309.766439 C371.333219,311.900152 364.871115,317.898935 362.353333,325.043828 C368.870304,330.207414 372.954842,337.657123 373.064575,345.72256 Z" id="Path" fill="#ADE7C0"></path>
                    <path d="M345.112928,318.075729 C349.259315,318.518834 353.290007,319.715026 357.006857,321.605501 C348.154994,315.326286 336.145234,312.741445 323.952586,315.466502 C324.668456,317.525063 325.22087,319.636874 325.604689,321.782294 C331.581457,318.598083 338.384807,317.305446 345.112928,318.075729 L345.112928,318.075729 Z" id="Path" fill="#ADE7C0"></path>
                    <path d="M316.484588,346.576046 C331.237693,345.970477 346.224491,345.665661 361.444981,345.661597 C365.334436,345.661597 369.207634,345.681918 373.064575,345.72256 C372.954842,337.657123 368.870304,330.207414 362.353333,325.037731 C360.687005,323.722546 358.896369,322.573027 357.006857,321.605501 C353.290007,319.715026 349.259315,318.518834 345.112928,318.075729 C338.384807,317.305446 331.581457,318.598083 325.604689,321.782294 C325.22087,319.636874 324.668456,317.525063 323.952586,315.466502 C318.094018,298.555298 301.463245,285.301888 280.571141,283.027959 C264.586578,281.284411 249.644487,286.356553 239.311217,295.659544 C235.860697,286.667465 226.856426,279.69327 215.6209,278.467909 C203.684297,277.169392 192.808454,282.735336 187.858238,291.690837 C184.810076,284.161876 177.146996,278.345982 167.655019,277.309607 C158.480051,276.30981 150.030545,280.034664 145.293701,286.326071 C139.977706,274.200482 127.486337,264.915779 112.050444,263.233194 C98.5348923,261.757883 85.9642712,266.464246 77.8012928,274.81621 C72.7515385,271.376011 66.9295113,269.237778 60.8535108,268.591863 C42.2109506,266.561787 25.6411407,278.315501 23.842725,294.848733 L20.0630038,294.452471 C15.4608245,293.931791 10.8029264,294.642889 6.56574144,296.513029 C9.08162384,307.086352 12.3202872,317.474517 16.2588973,327.604284 C50.9587536,322.942329 85.9333819,320.624537 120.944981,320.666667 C193.290063,320.666667 260.550811,330.213511 316.484588,346.576046 Z" id="Path" fill="#37DD9E"></path>
                    <path d="M316.484588,346.576046 C260.550811,330.213511 193.290063,320.666667 120.944981,320.666667 C85.9337936,320.618475 50.9591672,322.930157 16.2588973,327.585995 C26.1289395,352.944476 40.230786,376.444118 57.963853,397.084094 C121.353435,369.583574 235.319885,396.197379 316.484588,346.576046 Z" id="Path" fill="#AC967C"></path>
                    <path d="M373.064575,345.72256 C369.207634,345.685982 365.334436,345.665661 361.444981,345.661597 C346.240748,345.661597 331.25395,345.966413 316.484588,346.576046 C212.847072,350.843473 121.353435,369.583574 57.963853,397.09019 C102.076857,448.45782 167.484322,481 240.5,481 C334.017617,481 415.062155,427.626679 454.846768,349.679075 C428.516743,347.368568 401.156439,346.015184 373.064575,345.72256 Z" id="Path" fill="#988976"></path>
                </g>
                <g id="Layer_6" transform="translate(146.000000, 74.000000)">
                    <g id="Layer_3-2" fill="url(#linearGradient-3)">
                        <circle id="Oval" cx="127" cy="127.030456" r="126.616259"></circle>
                    </g>
                    <g id="Layer_4" transform="translate(43.856115, 62.738609)" fill="#FFFFFF">
                        <circle id="Oval" cx="32.2159712" cy="8.64330935" r="8.25347722"></circle>
                        <circle id="Oval" cx="6.15203837" cy="6.20076739" r="5.81093525"></circle>
                        <path d="M89.6065707,128.687242 C122.626699,124.776958 147.213199,96.3272916 146.29721,63.0890583 C145.38122,29.850825 119.265178,2.79843492 86.0798082,0.712661871 C81.9296362,0.448207608 77.7635082,0.593063186 73.6417266,1.14513189 L73.6417266,1.14513189 C68.2395488,1.65716493 62.9478163,2.99447774 57.9509832,5.11045564 C52.1461391,7.93673861 48.4000959,12.7121823 48.4000959,19.0652278 C48.4168509,27.3338078 55.1156886,34.0326455 63.3842686,34.0494005 C64.7974101,34.0494005 69.5728537,32.5327098 70.6936211,32.1489688 C75.0497347,30.6302597 79.668107,30.0086752 84.2707434,30.3216307 C100.526974,31.3435307 113.877181,43.5492549 116.348095,59.6490655 C118.81901,75.7488761 109.743569,91.396371 94.5419833,97.2462517 C79.3403974,103.096132 62.1165778,97.5691299 53.1572662,83.9661871 L53.1572662,83.9661871 C46.2621103,74.8964988 47.8336211,60.4544365 47.8336211,60.2107914 C47.5742539,52.794477 41.9338061,46.6810579 34.5623103,45.8266345 C27.1908145,44.9722111 20.3015013,49.633317 18.3525659,56.7936691 C18.0493221,58.5865248 17.9046061,60.4026091 17.9200959,62.2208633 C16.4869402,97.1223924 43.213248,126.768677 78.0760671,128.949161 C81.9128869,129.241166 85.769223,129.151389 89.5882974,128.681151" id="Path"></path>
                        <circle id="Oval" cx="21.519952" cy="30.3033573" r="10.6960192"></circle>
                    </g>
                </g>
                <g id="Layer_7" transform="translate(344.000000, 258.000000)">
                    <g id="_1yGvSJ.tif">
                        <path d="M112.934083,40.6974157 C115.740914,42.468237 118.408695,44.4519438 120.914083,46.6311798 C121.201057,47.177567 121.51882,47.7070958 121.865826,48.217191 C123.549679,52.3322472 123.696101,55.5655056 123.696101,60.0296067 C123.589374,66.0164619 121.361601,71.7694163 117.412156,76.2571348 C112.677844,81.6765169 106.711147,83.7340449 99.7805046,85.0567416 C98.3528899,85.3261798 97.1388073,84.8914045 95.7661009,85.4364045 C93.4383626,84.2265432 91.1960915,82.8577656 89.0550917,81.3397191 C88.445,80.8926966 88.3107798,81.0886517 88.1826606,81.719382 C87.01916,87.6825597 86.1618664,93.7018335 85.6141743,99.7533708 C85.3457339,102.570225 85.1749083,105.393202 85.0040826,108.222303 C84.9674771,108.797921 85.0040826,109 84.3024771,108.681573 C83.2409174,108.185562 82.9480734,107.536461 83.0395872,106.366854 C83.7106881,97.7938202 84.5404128,89.2881461 86.3889908,80.8926966 C86.5293119,80.2803371 87.0844954,79.5822472 86.1693578,78.9882584 C85.7544954,78.7126966 85.6324771,78.6882022 85.3884404,79.1229775 C83.0578899,83.2564045 80.7700459,87.4082022 78.6774312,91.6702247 C77.0484862,95.0075843 75.5415596,98.4061798 73.9736239,101.76191 C73.8516055,102.025225 73.7112844,102.453876 73.3635321,102.104831 C73.0157798,101.755787 71.7589908,101.84764 72.192156,100.769888 C72.7656422,99.3430899 73.4123394,97.9469101 74.0712385,96.5507303 C77.0377355,90.1352272 80.3304647,83.8768385 83.936422,77.8002809 C84.2658716,77.2430337 84.0279358,77.0225843 83.6984862,76.6796629 C79.427844,72.2523034 76.176055,67.2187079 74.5105046,61.2298315 C74.3762844,60.7399438 74.260367,60.2500562 74.0834404,59.5703371 C71.7955963,65.9266292 69.7456881,72.4605056 67.8666055,78.737191 C67.2260092,78.5779775 66.5915138,78.3391573 65.9448165,78.1799438 C67.7201835,72.1359551 69.6541743,65.9327528 71.9725229,59.6744382 C67.091789,65.0142135 62.9248624,70.8989888 59.0019725,76.5204494 C58.3918807,76.3061236 57.781789,76.0795506 57.1350917,75.8713483 C59.3253211,72.3257865 62.0158257,68.7373596 64.5477064,65.461236 C65.688578,63.9854494 66.8904587,62.5586517 68.0618349,61.1073596 C68.1613016,60.9593714 68.2490186,60.8037605 68.3241743,60.6419663 C68.15164,60.6269201 67.9781307,60.6269201 67.8055963,60.6419663 C60.0818349,61.3645506 54.7191284,58.2415169 51.4490367,51.0952809 C51.3941284,50.9666854 51.3209174,50.8442135 51.2538073,50.715618 C51.1439908,50.8380899 56.2016514,50.6360112 56.3724771,50.2685955 C53.9321101,52.3138764 47.2211009,52.1056742 43.5605505,52.1056742 C32.5788991,50.8809551 12.4458716,47.2067978 5.12477064,44.145 C2.68440367,43.5326404 1.46422018,43.1407303 0.85412844,42.9202809 C0.0305045872,42.6079775 1.26288991,39.6074157 1.46422018,39.2461236 C11.8357798,43.5326404 17.1618807,44.8492135 28.9183486,47.2067978 C38.0697248,49.0438764 50.2715596,50.2685955 50.2715596,47.8191573 C49.0513761,47.2067978 47.8311927,47.6844382 48.0630275,47.384382 C44.6720019,48.5268379 40.9942855,48.4749987 37.6365596,47.2374157 C34.738908,46.3359797 32.2298769,44.4779626 30.516789,41.965 C30.050907,41.2675761 29.6872398,40.5066044 29.4369266,39.7053933 C28.3814679,36.288427 29.8822936,32.8714607 33.4574312,31.095618 C34.3513948,30.5878326 35.3360005,30.2611848 36.355367,30.1342135 C37.4779358,30.0607303 37.7768807,29.5218539 38.0453211,28.5175843 C40.046422,21.1692697 40.3087615,13.7229775 39.9305046,6.19707865 C39.9305046,5.5847191 39.7352752,5.40101124 39.1190826,5.33977528 C36.9926384,5.22550371 35.2750014,3.55633715 35.0924771,1.42679775 C35.2755046,0.96752809 35.2816055,0.710337079 35.6232569,0.477640449 C38.0636239,-0.747078652 41.5411468,0.961404494 41.7241743,3.50882022 C42.3952752,12.1737079 42.267156,20.7834831 39.8938991,29.2279213 C39.7657798,29.6810674 39.7962844,29.8402809 40.3331651,29.8402809 C41.1095506,29.8911016 41.8806898,30.0037215 42.6393119,30.1770787 C43.5727523,30.3730337 44.5794037,30.9915169 45.3908257,30.7894382 C46.2022477,30.5873596 46.3974771,29.2524157 47.0075688,28.5175843 L47.0624771,28.4441011 C50.1617431,23.3553933 52.3763761,17.985 52.4861927,11.9103933 C52.4861927,11.2980337 52.5227982,10.9796067 51.6808716,11.0775843 C50.7280662,11.1725802 49.7777367,10.8745986 49.0482409,10.2521067 C48.318745,9.62961486 47.8728069,8.73613631 47.8128899,7.77696629 C47.8128899,6.08073034 49.1611927,5.22342697 51.4124312,5.46224719 C51.4124312,5.46224719 51.4673394,5.46224719 51.4917431,5.42550562 C52.0825672,5.58483801 52.62524,5.88767726 53.0718807,6.30730337 C54.2920642,7.60550562 54.4506881,9.23438202 54.4811927,10.9122472 C54.6215138,18.1013483 52.0408257,24.4147753 48.2643578,30.3362921 C47.3065138,31.8426966 47.2699083,31.7814607 48.7158257,32.7551124 C50.3420976,33.820417 51.6578374,35.2995232 52.5288991,37.0416292 C52.7668349,37.5131461 52.8461468,37.5315169 53.1816972,37.0967416 C57.3181193,31.7141011 62.7113303,29.5769663 69.3247248,31.2058427 C74.113945,32.3938202 77.432844,35.4923596 79.4034404,40.0299438 C79.5315596,40.33 79.501055,40.8872472 80.1355505,40.3789888 C85.4006422,36.2210674 91.4832569,35.2167978 97.9502294,35.8903933 C101.785939,36.2178991 105.52797,37.2560254 108.986789,38.952191 C109.322339,39.1236517 110.817064,39.5951685 111.134312,39.7298876 C111.134312,39.9074719 111.970138,41.2730337 112.031147,41.42 C113.819705,45.505078 114.666408,49.9427189 114.508119,54.4020225 C114.508119,59.7479213 112.208073,65.2040449 108.895275,69.4170787 C104.185367,75.4059551 99.5486697,77.9901124 92.2824771,79.4536517 C91.6113761,79.5883708 90.5742202,79.827191 89.9031193,79.9557865 C90.1959633,80.6110112 89.9580275,79.9557865 90.4461009,80.3966854 C90.9341743,80.8375843 90.0983486,80.7702247 91.0988991,80.629382 C95.1438073,80.0598876 98.9202752,78.449382 102.61133,76.6919101 C109.005092,73.6301124 111.097706,71.5970787 113.269633,64.6345506 C115.31344,58.0639326 116.03945,50.9911798 113.78211,44.6410112 C113.358951,43.3609177 113.07463,42.0387345 112.934083,40.6974157 Z" id="Path" fill="#424251"></path>
                        <path d="M124.397706,50.0297753 C129.01,55.6389888 132.804771,63.0179213 132.871881,70.4213483 C132.945092,78.5044944 128.381606,85.1179775 120.785963,87.8491011 C113.843119,90.3658989 106.143761,89.5024719 99.3107339,87.0407865 C99.7114362,86.583125 100.221637,86.2354045 100.793257,86.0303933 C105.820413,85.2649438 110.554725,82.870618 114.959587,80.1578652 C120.169771,76.9307303 121.908532,74.6466292 123.586284,68.67 C124.965092,63.7711236 125.61789,58.2598876 124.397706,53.3242697 C124.205494,52.2345782 124.205494,51.1194667 124.397706,50.0297753 Z" id="Path" fill="#424251"></path>
                        <path d="M114.062752,41.4383708 C114.154266,42.540618 114.727752,43.4775281 115.081606,44.5001685 C117.345046,50.8503371 118.132064,57.2617416 116.100459,63.826236 C113.928532,70.7826404 109.121009,75.3202247 102.733349,78.3820225 C99.0285284,80.0549363 95.0906374,81.1494192 91.0561927,81.6275281 C90.0617431,81.7683708 89.7322936,81.1008989 89.2259174,80.6232584 C88.7195413,80.145618 88.0911468,79.8761798 87.7922018,79.2270787 L89.8055046,78.8229213 C97.0716972,77.3655056 103.550872,74.4445506 108.26078,68.4617978 C111.579679,64.248764 113.043899,59.3376404 113.068303,53.9917416 C113.042838,49.1187922 112.016871,44.3034219 110.05445,39.846236 C110.023595,39.674116 110.023595,39.4978503 110.05445,39.3257303 C111.487385,39.8268846 112.838222,40.5388649 114.062752,41.4383708 Z" id="Path" fill="#5D5D69"></path>
                        <path d="M125.22133,51.1258989 C125.044404,52.0750562 125.55078,52.8833708 125.764312,53.7467978 C127.060838,58.5779449 127.060838,63.6673922 125.764312,68.4985393 C124.08656,74.4751685 120.358899,78.8596629 115.148716,82.0867978 C110.762156,84.7995506 105.924128,86.1038764 100.896972,86.8693258 C100.598028,86.9183146 100.286881,86.912191 100.109954,87.2367416 C98.241587,86.6882264 96.4453184,85.9172976 94.7594495,84.9403933 C96.132156,84.3953933 97.6146789,84.4198876 99.0300917,84.1504494 C105.960734,82.8277528 112.18367,80.1272472 116.917982,74.7078652 C120.773761,70.2927528 122.49422,65.0325843 122.488119,59.1845506 C122.486864,54.7716131 121.620337,50.4020656 119.937936,46.325 C119.903803,46.1223177 119.903803,45.9153228 119.937936,45.7126404 C121.952245,47.2492575 123.732161,49.0729231 125.22133,51.1258989 Z" id="Path" fill="#5D5D69"></path>
                        <path d="M67.1222936,81.4805618 C65.9692202,86.1773596 64.8222477,91.3089326 64.0718349,96.0914607 C63.986422,96.6180899 63.8216972,96.5935955 63.3763303,96.3976404 C62.9357893,96.2812671 62.5649486,95.9830902 62.3556619,95.5769652 C62.1463753,95.1708403 62.1182183,94.6947543 62.2781651,94.2666292 C63.2055046,89.8576404 63.9986239,85.1608427 65.243211,80.7947191 C65.8533028,81.0947753 66.5183028,81.2111236 67.1222936,81.4805618 Z" id="Path" fill="#424251"></path>
                        <path d="M58.8799541,76.7225281 C57.0496789,80.1884831 53.718578,84.9097753 51.4368349,88.9697191 C50.9426606,89.8453933 50.5338991,88.9697191 50.1190367,88.8411236 C49.7041743,88.7125281 49.2588073,88.5226966 49.655367,87.8797191 C51.6320642,84.6709551 53.5782569,81.4376966 55.5366514,78.222809 C55.9656746,77.4099896 56.4811586,76.6462086 57.0740826,75.9448315 C57.7024771,76.2510112 58.2515596,76.4408427 58.8799541,76.7225281 Z" id="Path" fill="#424251"></path>
                        <path d="M65.9875229,77.965618 L67.9276147,78.4371348 L67.537156,79.888427 C66.8787208,79.9517215 66.2160095,79.824212 65.6275688,79.5210112 L65.9875229,77.965618 Z" id="Path" fill="#5D5D69"></path>
                        <path d="M65.6275688,79.5210112 C66.3474771,79.1964607 66.9331651,79.5944944 67.537156,79.888427 C67.4456422,80.2252247 67.2748165,80.7885955 67.1894037,81.1131461 C66.5387581,81.1862462 65.8846999,81.008994 65.3591284,80.6171348 L65.6275688,79.5210112 Z" id="Path" fill="#424251"></path>
                        <polygon id="Path" fill="#5D5D69" points="58.7457339 77.0348315 56.8605505 76.1897753 57.3303211 75.6080337 59.2094037 76.2203933"></polygon>
                        <path d="M65.4323394,80.3660674 C65.9562699,80.7633238 66.6085707,80.9510118 67.2626147,80.8926966 C67.2948112,81.2437575 67.2135209,81.5958932 67.0307798,81.8969663 L65.2005046,81.0886517 C65.1150917,80.7947191 65.3042202,80.5865169 65.4323394,80.3660674 Z" id="Path" fill="#5D5D69"></path>
                        <path d="M42.9443578,35.712809 C43.6581651,36.196573 43.6276606,36.8579213 43.298211,37.5498876 C43.1819002,37.8529988 42.9402801,38.0905428 42.6359463,38.2009802 C42.3316125,38.3114175 41.9945107,38.2838815 41.7119725,38.1255056 C40.9676606,37.7213483 41.0225688,36.9742697 41.3459174,36.288427 C41.4666008,35.9859325 41.7105823,35.7498031 42.0161505,35.6397643 C42.3217186,35.5297254 42.6596092,35.5563155 42.9443578,35.712809 Z" id="Path" fill="#030304"></path>
                        <path d="M38.2954587,34.9718539 C37.8927982,35.5413483 37.386422,35.9332584 36.7031193,35.5168539 C36.4194093,35.3645938 36.2096758,35.1029722 36.1222052,34.7922215 C36.0347347,34.4814709 36.0770646,34.1483697 36.2394495,33.8696067 C36.3577699,33.5822425 36.5939756,33.3601722 36.8873936,33.2604382 C37.1808115,33.1607042 37.5028469,33.193026 37.7707798,33.3491011 C38.0634286,33.4852453 38.2863271,33.7376233 38.3858933,34.0455668 C38.4854596,34.3535103 38.4526888,34.6891686 38.2954587,34.9718539 L38.2954587,34.9718539 Z" id="Path" fill="#030304"></path>
                    </g>
                    <path d="M16.7104128,33.0674157 L19.1507798,31.2303371 C21.9694037,33.9737079 25.4408257,35.4801124 29.1745872,36.4905056 L29.5223394,39.8033708 C24.4402752,37.5315169 19.7608716,35.2719101 16.7104128,33.0674157 Z" id="Path" fill="#424251"></path>
                </g>
                <g id="Layer_7_copy" transform="translate(100.000000, 277.000000)">
                    <g id="_1yGvSJ.tif-2">
                        <path d="M20.5539908,39.5328814 C17.7240775,41.2511639 15.0279413,43.1807175 12.488578,45.3050847 C12.194474,45.8446727 11.8685152,46.3662731 11.5124312,46.8671186 C9.76146789,50.9430508 9.58454128,54.1891525 9.49912844,58.6128814 C9.5076826,64.5736075 11.6306603,70.3379455 15.4902294,74.88 C20.1269266,80.3715254 26.0509174,82.5132203 32.9449541,83.9471186 C34.3664679,84.2461017 35.5866514,83.8311864 36.947156,84.3925424 C39.2917768,83.2291811 41.5525508,81.9039418 43.7130734,80.4264407 C44.3231651,79.9932203 44.4573853,80.1884746 44.5733028,80.8169492 C45.6424534,86.7838159 46.4020174,92.8020397 46.848945,98.8474576 C47.068578,101.660339 47.1905963,104.479322 47.3187156,107.292203 C47.3492202,107.902373 47.3187156,108.07322 48.0142202,107.762034 C49.0757798,107.292203 49.3808257,106.651525 49.3076147,105.48 C48.7890367,96.9376271 48.0874312,88.4379661 46.3974771,80.0420339 C46.2693578,79.4318644 45.7263761,78.7240678 46.6476147,78.1505085 C47.068578,77.8881356 47.1905963,77.8637288 47.4285321,78.2969492 C49.6858716,82.4338983 51.8944037,86.6440678 53.9260092,90.9152542 C55.487844,94.2650847 56.9398624,97.6698305 58.446789,101.050169 C58.5627064,101.312542 58.7030275,101.739661 59.0568807,101.397966 C59.4107339,101.056271 60.6675229,101.172203 60.2770642,100.092203 C59.7279817,98.6583051 59.0995872,97.2549153 58.446789,95.8576271 C55.5912686,89.4176491 52.4106292,83.1268379 48.917156,77.0094915 C48.5877064,76.4481356 48.8317431,76.2284746 49.1672936,75.8928814 C53.498945,71.5545763 56.8422477,66.5938983 58.5993119,60.6386441 C58.7457339,60.1566102 58.8677523,59.6684746 59.0568807,58.9972881 C61.2349083,65.3613559 63.175,71.9084746 64.9381651,78.1932203 C65.5848624,78.0467797 66.2193578,77.8210169 66.866055,77.6745763 C65.2005046,71.6155932 63.3763303,65.379661 61.1677982,59.1315254 C65.9570183,64.5376271 70.0080275,70.4684746 73.8333028,76.1369492 L75.7062844,75.5267797 C73.4750802,71.9008161 71.0621425,68.3899008 68.4766972,65.0074576 C67.3663303,63.5186441 66.1888532,62.0786441 65.0479817,60.6081356 C64.9513869,60.4610631 64.8676957,60.3059083 64.797844,60.1444068 C64.9683331,60.1292386 65.139832,60.1292386 65.3103211,60.1444068 C73.0096789,61.0047458 78.4150917,57.9783051 81.7827982,50.9186441 C81.8438073,50.7905085 81.9170183,50.6623729 81.9841284,50.540339 C82.093945,50.6623729 77.0484862,50.3755932 76.8837615,50.0094915 C79.2692202,52.0840678 85.9924312,51.9925424 89.6468807,52.0535593 C100.628532,51.0223729 120.76156,47.7030508 128.155872,44.780339 C130.596239,44.2128814 131.816422,43.840678 132.426514,43.6332203 C133.256239,43.3342373 132.078761,40.32 131.883532,39.9722034 C121.450963,44.0664407 116.112661,45.2867797 104.33789,47.4345763 C95.1865138,49.1125424 82.9846789,50.1254237 82.9846789,47.6847458 C84.2048624,47.0745763 85.4250459,47.5932203 85.1993119,47.2881356 C88.5658679,48.4846996 92.240071,48.4954631 95.613578,47.3186441 C98.5215832,46.4690385 101.056667,44.6604915 102.80656,42.1871186 C103.300047,41.4876114 103.686612,40.7184959 103.953532,39.9050847 C105.057798,36.5186441 103.624083,33.0894915 100.07945,31.2589831 C99.1937528,30.7401934 98.2157893,30.398277 97.1998165,30.2522034 C96.0894495,30.160678 95.7966055,29.5932203 95.5464679,28.6108475 C93.6673853,21.2888136 93.5331651,13.8386441 94.0395413,6.34576271 C94.0761468,5.73559322 94.2469725,5.55864407 94.8692661,5.50372881 C96.9917453,5.42106531 98.7308765,3.79090951 98.9507798,1.6779661 C98.7799541,1.21423729 98.7738532,0.957966102 98.4383028,0.72 C95.9979358,-0.536949153 92.5204128,1.09830508 92.2824771,3.63661017 C91.471055,12.2583051 91.4466514,20.8372881 93.6795872,29.2637288 C93.8016055,29.7213559 93.7711009,29.8738983 93.2281193,29.8738983 C92.4524931,29.9099901 91.6811637,30.0099899 90.9219725,30.1728814 C89.9885321,30.3498305 88.9696789,30.9477966 88.1643578,30.7281356 C87.3590367,30.5084746 87.188211,29.1783051 86.5903211,28.4338983 L86.5415138,28.360678 C83.5276606,23.2413559 81.4045413,17.8535593 81.3984404,11.7945763 C81.3984404,11.1844068 81.3984404,10.8732203 82.2220642,10.9830508 C83.1722703,11.093761 84.1266069,10.8129385 84.8654587,10.2052072 C85.6043105,9.59747596 86.0640402,8.71517983 86.1388532,7.76135593 C86.1388532,6.06508475 84.8332569,5.19254237 82.5820183,5.39389831 C82.5522363,5.38701428 82.5248467,5.37226415 82.5027064,5.35118644 C81.910137,5.50487265 81.3637171,5.80010259 80.910367,6.21152542 C79.6596789,7.48067797 79.4888532,9.10372881 79.427844,10.7694915 C79.1655046,17.9267797 81.6363761,24.2664407 85.3030275,30.2277966 C86.2364679,31.7410169 86.2730734,31.6861017 84.8149541,32.6318644 C83.1743576,33.6534997 81.8334908,35.0913783 80.9286697,36.799322 C80.684633,37.2752542 80.6053211,37.2874576 80.2819725,36.8481356 C76.2431651,31.4176271 70.8987615,29.1966102 64.2670642,30.7098305 C59.4595413,31.8081356 56.0918349,34.8284746 54.0480275,39.3254237 C53.9138073,39.6244068 53.938211,40.1735593 53.3098165,39.6610169 C48.1240367,35.4264407 42.0719266,34.3281356 35.617156,34.8833898 C31.7697894,35.1725356 28.0092285,36.1717558 24.5256881,37.8305085 C24.1901376,37.9952542 22.7259174,38.440678 22.3720642,38.5749153 C22.0916301,39.145661 21.7821104,39.7016456 21.4447248,40.240678 C19.6014443,44.267809 18.6821675,48.6562991 18.7542202,53.0847458 C18.693211,58.4176271 20.8651376,63.8908475 24.1047248,68.1498305 C28.7048165,74.1905085 33.2927064,76.8447458 40.5222936,78.4250847 C41.1872936,78.5715254 42.2244495,78.8216949 42.8894495,78.9681356 C42.5844037,79.6149153 42.8345413,78.9681356 42.340367,79.3952542 C41.8461927,79.8223729 42.6759174,79.779661 41.6814679,79.6210169 C37.6548624,79.0108475 33.915,77.3145763 30.2544495,75.4962712 C23.9216972,72.36 21.8656881,70.279322 19.8218807,63.2928814 C17.8878899,56.7152542 17.2838991,49.6555932 19.6449541,43.3647458 C20.082625,42.1232085 20.387343,40.8387301 20.5539908,39.5328814 Z" id="Path" fill="#424251"></path>
                        <path d="M8.95614679,48.6366102 C4.25233945,54.1281356 0.341651376,61.4501695 0.146422018,68.7722034 C-0.0610091743,76.8264407 4.38045872,83.4650847 11.9211927,86.3389831 C18.8091284,88.9688136 26.526789,88.2366102 33.3720183,85.9057627 C32.9800482,85.4411345 32.4761031,85.0841279 31.9077982,84.8684746 C26.9050459,84.020339 22.2012385,81.5552542 17.8756881,78.7667797 C12.7265138,75.459661 11.0243578,73.159322 9.4503211,67.1735593 C8.16302752,62.2922034 7.62004587,56.7518644 8.90123853,51.8705085 C9.10740907,50.803935 9.12599027,49.7095696 8.95614679,48.6366102 L8.95614679,48.6366102 Z" id="Path" fill="#424251"></path>
                        <path d="M19.4192202,40.2711864 C19.3094037,41.3633898 18.7237156,42.2908475 18.3454587,43.2854237 C15.9844037,49.5762712 15.075367,55.9464407 17.0032569,62.5301695 C19.0531651,69.5044068 23.7813761,74.1233898 30.1080275,77.2535593 C33.774635,78.9819347 37.6835772,80.1403636 41.6997706,80.6888136 C42.6942202,80.8413559 43.0297706,80.1823729 43.5300459,79.7186441 C44.0303211,79.2549153 44.6770183,78.9925424 44.9820642,78.3518644 L42.9809633,77.9125424 C35.7513761,76.3322034 29.3271101,73.3179661 24.7270183,67.2772881 C21.4874312,63.0061017 20.1086239,58.1247458 20.169633,52.779661 C20.2791505,47.9294254 21.3817099,43.1531357 23.4092202,38.7457627 C23.4402057,38.5742701 23.4402057,38.3986113 23.4092202,38.2271186 C21.9856038,38.7077086 20.6410134,39.3965392 19.4192202,40.2711864 L19.4192202,40.2711864 Z" id="Path" fill="#5D5D69"></path>
                        <path d="M8.11422018,49.7166102 C8.27284404,50.6562712 7.75426606,51.4555932 7.50412844,52.3159322 C6.11975465,57.1061272 6.02714129,62.1773549 7.23568807,67.0149153 C8.80972477,72.9945763 12.4641743,77.4244068 17.6072477,80.7254237 C21.9388991,83.5077966 26.7586239,84.8867797 31.7552752,85.7349153 C32.0542202,85.7898305 32.365367,85.7837288 32.5361927,86.1132203 C34.4117277,85.6003026 36.2184741,84.862761 37.9172018,83.9166102 C36.5566972,83.3491525 35.0741743,83.3491525 33.6465596,83.0562712 C26.7525229,81.6223729 20.5844954,78.8277966 15.9538991,73.3423729 C12.1835321,68.8820339 10.5484862,63.579661 10.6583028,57.7830508 C10.7351342,53.3921525 11.6741721,49.0591743 13.4220183,45.0305085 C13.456151,44.828551 13.456151,44.6222964 13.4220183,44.420339 C11.4057575,45.919512 9.61783863,47.7035481 8.11422018,49.7166102 Z" id="Path" fill="#5D5D69"></path>
                        <path d="M65.6092661,80.9389831 C66.6830275,85.6372881 67.7384862,90.7688136 68.3973853,95.5464407 C68.4705963,96.0711864 68.6353211,96.0528814 69.086789,95.8637288 C69.5273464,95.7523682 69.9007066,95.4607231 70.11545,95.0602046 C70.3301934,94.6596862 70.3664923,94.1872751 70.2154587,93.7586441 C69.3613303,89.3532203 68.6536239,84.6610169 67.4822477,80.3349153 C66.8782569,80.5789831 66.2132569,80.6827119 65.6092661,80.9389831 Z" id="Path" fill="#424251"></path>
                        <path d="M73.9187156,76.3383051 C75.6574771,79.8223729 78.9336697,84.5877966 81.1422018,88.6942373 C81.6180734,89.5728814 82.0451376,88.6942373 82.46,88.5905085 C82.8748624,88.4867797 83.3202294,88.2854237 82.9358716,87.6386441 C81.0201835,84.4047458 79.135,81.1525424 77.2315138,77.9125424 C76.8162369,77.096828 76.3151618,76.3277333 75.736789,75.6183051 C75.1022936,75.8867797 74.5471101,76.0698305 73.9187156,76.3383051 Z" id="Path" fill="#424251"></path>
                        <path d="M66.798945,77.4915254 L64.8588532,77.9247458 L65.2249083,79.3769492 C65.879805,79.4506298 66.5421426,79.3363462 67.1344954,79.0474576 L66.798945,77.4915254 Z" id="Path" fill="#5D5D69"></path>
                        <path d="M67.1344954,79.0169492 C66.4206881,78.6752542 65.8288991,79.0657627 65.2249083,79.3464407 C65.3042202,79.6820339 65.462844,80.2433898 65.5482569,80.5667797 C66.1950897,80.6502108 66.8494343,80.4844224 67.3785321,80.1030508 L67.1344954,79.0169492 Z" id="Path" fill="#424251"></path>
                        <polygon id="Path" fill="#5D5D69" points="74.0590367 76.6555932 75.956422 75.8440678 75.4927523 75.2338983 73.6075688 75.8440678"></polygon>
                        <path d="M67.3480275,79.8589831 C66.8190847,80.2424317 66.1677838,80.4183054 65.5177523,80.3532203 C65.4782945,80.7018933 65.555535,81.0538114 65.7373853,81.3538983 L67.5676606,80.5789831 C67.6225688,80.2922034 67.4395413,80.0847458 67.3480275,79.8589831 Z" id="Path" fill="#5D5D69"></path>
                        <path d="M90.5315138,35.7498305 C90.2257273,35.9312258 90.0100502,36.2325955 89.9369827,36.58058 C89.8639153,36.9285646 89.9401595,37.2912456 90.147156,37.580339 C90.2563688,37.8854049 90.4926983,38.1279782 90.7947894,38.2450826 C91.0968805,38.3621871 91.4349365,38.3422723 91.7211927,38.1905085 C92.4716055,37.8 92.4288991,37.0555932 92.1177523,36.36 C92.0040853,36.0555022 91.7653372,35.814358 91.4620136,35.6976802 C91.15869,35.5810024 90.8199041,35.5999898 90.5315138,35.7498305 Z" id="Path" fill="#030304"></path>
                        <path d="M95.1743119,35.0969492 C95.5708716,35.6644068 96.0711468,36.0671186 96.7605505,35.6644068 C97.3406292,35.3426206 97.557412,34.6163059 97.2486239,34.0291525 C97.1347456,33.7420174 96.9027545,33.5178304 96.6119156,33.4138627 C96.3210767,33.309895 95.999558,33.336216 95.7294954,33.4861017 C95.4357374,33.6189355 95.209705,33.866983 95.104645,34.1718112 C94.9995851,34.4766393 95.0247863,34.8112973 95.1743119,35.0969492 L95.1743119,35.0969492 Z" id="Path" fill="#030304"></path>
                    </g>
                    <path d="M116.765459,33.559322 L114.355596,31.6861017 C111.494266,34.3708475 108.004541,35.8169492 104.258578,36.7505085 L103.855917,40.0515254 C108.968486,37.879322 113.715,35.7071186 116.765459,33.559322 Z" id="Path" fill="#424251"></path>
                </g>
            </g>
        </g>
    </g>
</svg>