<svg width="32" height="32" viewBox="0 0 32 32" fill="none" xmlns="http://www.w3.org/2000/svg">
<g clip-path="url(#clip0_804_4019)">
<path d="M22.6667 19.9998L24.7333 22.0665C23.4533 24.3198 20.2933 26.1198 17.3333 26.5598V14.6665H21.3333V11.9998H17.3333V10.4265C18.88 9.8665 20 8.39984 20 6.6665C20 4.4665 18.2 2.6665 16 2.6665C13.8 2.6665 12 4.4665 12 6.6665C12 8.39984 13.12 9.8665 14.6667 10.4265V11.9998H10.6667V14.6665H14.6667V26.5598C11.7067 26.1198 8.54667 24.3198 7.26667 22.0665L9.33333 19.9998L4 15.9998V19.9998C4 25.1732 10.56 29.3332 16 29.3332C21.44 29.3332 28 25.1732 28 19.9998V15.9998L22.6667 19.9998ZM16 5.33317C16.7333 5.33317 17.3333 5.93317 17.3333 6.6665C17.3333 7.39984 16.7333 7.99984 16 7.99984C15.2667 7.99984 14.6667 7.39984 14.6667 6.6665C14.6667 5.93317 15.2667 5.33317 16 5.33317Z" fill="#212121"/>
</g>
<defs>
<clipPath id="clip0_804_4019">
<rect width="32" height="32" fill="white"/>
</clipPath>
</defs>
</svg>
