<svg width="461" height="302" viewBox="0 0 461 302" fill="none" xmlns="http://www.w3.org/2000/svg">
<path d="M7.2 84V-5.72205e-06H35.28C44.48 -5.72205e-06 52.6 1.79999 59.64 5.4C66.76 9 72.32 13.96 76.32 20.28C80.32 26.52 82.32 33.76 82.32 42C82.32 50.16 80.32 57.4 76.32 63.72C72.32 70.04 66.76 75 59.64 78.6C52.6 82.2 44.48 84 35.28 84H7.2ZM29.4 63H35.28C38.8 63 42.04 62.48 45 61.44C47.96 60.4 50.52 58.96 52.68 57.12C54.84 55.28 56.52 53.08 57.72 50.52C58.92 47.96 59.52 45.12 59.52 42C59.52 38.88 58.92 36.04 57.72 33.48C56.52 30.92 54.84 28.72 52.68 26.88C50.52 25.04 47.96 23.6 45 22.56C42.04 21.52 38.8 21 35.28 21H29.4V63ZM94.9125 84V-5.72205e-06H151.193V20.4H117.113V32.04H144.713V51.84H117.113V63.6H152.033V84H94.9125ZM167.625 84V-5.72205e-06H202.425C208.745 -5.72205e-06 214.345 1.24 219.225 3.72C224.105 6.2 227.905 9.64 230.625 14.04C233.425 18.44 234.825 23.52 234.825 29.28C234.825 35.04 233.425 40.16 230.625 44.64C227.905 49.04 224.105 52.52 219.225 55.08C214.345 57.56 208.745 58.8 202.425 58.8H189.825V84H167.625ZM189.825 38.4H201.825C204.865 38.4 207.305 37.56 209.145 35.88C211.065 34.2 212.025 32 212.025 29.28C212.025 26.64 211.065 24.48 209.145 22.8C207.305 21.12 204.865 20.28 201.825 20.28H189.825V38.4ZM245.025 84V-5.72205e-06H267.225V84H245.025ZM283.988 84V-5.72205e-06H307.388L340.148 46.2V-5.72205e-06H362.348V84H340.148L306.188 36.12V84H283.988Z" fill="white"/>
<path d="M25.8 192V128.4H2.04V108H71.64V128.4H48V192H25.8ZM136.471 192V108H158.671V192H136.471ZM83.3109 192V107.88H105.511V192H83.3109ZM98.5509 159.48V139.08H149.431V159.48H98.5509ZM233.797 192L203.077 108H225.157L257.317 192H233.797ZM169.117 192L201.277 108H223.357L192.637 192H169.117ZM184.237 178.56V159H242.317V178.56H184.237ZM276.75 192V128.4H252.99V108H322.59V128.4H298.95V192H276.75Z" fill="#8363FF"/>
<path d="M75 300L97.44 216H120.12L96 300H75ZM24.96 300L0.84 216H23.52L45.96 300H24.96ZM28.2 300L49.44 216H69.12L48 300H28.2ZM72.96 300L51.84 216H71.52L93.96 300H72.96ZM171.338 301.44C162.538 301.44 154.738 299.6 147.938 295.92C141.218 292.16 135.938 287.04 132.098 280.56C128.258 274 126.338 266.52 126.338 258.12C126.338 249.64 128.258 242.16 132.098 235.68C135.938 229.12 141.218 224 147.938 220.32C154.658 216.56 162.378 214.68 171.098 214.68C179.898 214.68 187.658 216.56 194.378 220.32C201.098 224 206.378 229.12 210.218 235.68C214.058 242.16 215.978 249.64 215.978 258.12C215.978 266.52 214.058 274 210.218 280.56C206.458 287.04 201.218 292.16 194.498 295.92C187.778 299.6 180.058 301.44 171.338 301.44ZM171.338 281.04C175.658 281.04 179.458 280.08 182.738 278.16C186.018 276.16 188.578 273.44 190.418 270C192.258 266.56 193.178 262.6 193.178 258.12C193.178 253.64 192.218 249.68 190.298 246.24C188.458 242.72 185.858 240 182.498 238.08C179.218 236.08 175.418 235.08 171.098 235.08C166.858 235.08 163.058 236.08 159.698 238.08C156.418 240 153.818 242.72 151.898 246.24C150.058 249.68 149.138 253.64 149.138 258.12C149.138 262.6 150.098 266.56 152.018 270C153.938 273.44 156.538 276.16 159.818 278.16C163.178 280.08 167.018 281.04 171.338 281.04ZM228.563 300V216H263.363C269.683 216 275.283 217.24 280.163 219.72C285.043 222.12 288.843 225.48 291.563 229.8C294.363 234.04 295.763 238.96 295.763 244.56C295.763 250.16 294.363 255.16 291.563 259.56C288.843 263.88 285.043 267.28 280.163 269.76C275.283 272.16 269.683 273.36 263.363 273.36H250.763V300H228.563ZM273.683 300L254.963 267L271.643 254.52L299.123 300H273.683ZM250.763 252.96H262.163C264.163 252.96 265.923 252.6 267.443 251.88C268.963 251.16 270.163 250.16 271.043 248.88C271.923 247.6 272.363 246.16 272.363 244.56C272.363 242.16 271.403 240.2 269.483 238.68C267.643 237.08 265.203 236.28 262.163 236.28H250.763V252.96ZM323.013 285.72V254.64L358.053 216H387.213L323.013 285.72ZM310.533 300V216H332.733V300H310.533ZM360.693 300L328.173 257.28L344.853 244.32L388.293 300H360.693ZM428.466 301.44C424.546 301.44 420.706 300.92 416.946 299.88C413.186 298.76 409.746 297.24 406.626 295.32C403.586 293.4 401.066 291.24 399.066 288.84C397.066 286.36 395.866 283.76 395.466 281.04L417.546 274.92C418.266 276.92 419.506 278.64 421.266 280.08C423.026 281.44 425.306 282.2 428.106 282.36C430.346 282.44 432.306 281.84 433.986 280.56C435.746 279.28 436.626 277.6 436.626 275.52C436.626 274.16 436.106 272.88 435.066 271.68C434.106 270.4 432.546 269.48 430.386 268.92L417.786 265.68C413.466 264.56 409.746 262.84 406.626 260.52C403.586 258.2 401.226 255.36 399.546 252C397.946 248.64 397.146 244.88 397.146 240.72C397.146 232.48 399.866 226.08 405.306 221.52C410.826 216.88 418.546 214.56 428.466 214.56C433.746 214.56 438.386 215.24 442.386 216.6C446.466 217.96 449.946 220.12 452.826 223.08C455.786 225.96 458.226 229.76 460.146 234.48L438.186 240.84C437.786 239.24 436.746 237.64 435.066 236.04C433.466 234.44 431.266 233.64 428.466 233.64C425.746 233.64 423.626 234.24 422.106 235.44C420.666 236.64 419.946 238.4 419.946 240.72C419.946 242.16 420.546 243.44 421.746 244.56C422.946 245.6 424.666 246.4 426.906 246.96L439.626 250.2C446.026 251.8 451.026 254.96 454.626 259.68C458.226 264.32 460.026 269.64 460.026 275.64C460.026 281.16 458.746 285.84 456.186 289.68C453.706 293.52 450.106 296.44 445.386 298.44C440.666 300.44 435.026 301.44 428.466 301.44Z" fill="white"/>
</svg>
