<svg width="269" height="65" viewBox="0 0 269 65" fill="none" xmlns="http://www.w3.org/2000/svg">
<path d="M2.22 28V-1.90735e-06H11.38C14.34 -1.90735e-06 16.9533 0.599998 19.22 1.8C21.5133 3 23.3 4.65333 24.58 6.76C25.86 8.84 26.5 11.2533 26.5 14C26.5 16.72 25.86 19.1333 24.58 21.24C23.3 23.3467 21.5133 25 19.22 26.2C16.9533 27.4 14.34 28 11.38 28H2.22ZM8.66 21.92H11.38C12.6067 21.92 13.74 21.7333 14.78 21.36C15.82 20.96 16.7267 20.4133 17.5 19.72C18.2733 19 18.8733 18.16 19.3 17.2C19.7267 16.2133 19.94 15.1467 19.94 14C19.94 12.8533 19.7267 11.8 19.3 10.84C18.8733 9.85333 18.2733 9.01333 17.5 8.32C16.7267 7.6 15.82 7.05333 14.78 6.68C13.74 6.28 12.6067 6.08 11.38 6.08H8.66V21.92ZM31.2231 28V-1.90735e-06H49.4631V5.92H37.6631V11.04H47.5431V16.76H37.6631V22.08H49.6631V28H31.2231ZM55.4997 28V-1.90735e-06H66.4997C68.5264 -1.90735e-06 70.3264 0.413332 71.8997 1.24C73.473 2.04 74.6997 3.16 75.5797 4.6C76.4864 6.01333 76.9397 7.66667 76.9397 9.56C76.9397 11.4 76.4997 13.0533 75.6197 14.52C74.7664 15.96 73.5664 17.0933 72.0197 17.92C70.473 18.7467 68.6997 19.16 66.6997 19.16H61.9397V28H55.4997ZM61.9397 13.24H66.5397C67.6864 13.24 68.6064 12.9067 69.2997 12.24C69.993 11.5467 70.3397 10.6533 70.3397 9.56C70.3397 8.46667 69.9664 7.58667 69.2197 6.92C68.4997 6.22667 67.5397 5.88 66.3397 5.88H61.9397V13.24ZM80.87 28V-1.90735e-06H87.31V28H80.87ZM93.545 28V-1.90735e-06H100.305L112.585 17.08V-1.90735e-06H119.025V28H112.585L99.985 10.44V28H93.545Z" fill="white"/>
<path d="M8.3 64V41.92H0.14V36H22.86V41.92H14.7V64H8.3ZM45.0453 64V36H51.4853V64H45.0453ZM26.9653 64V35.96H33.4053V64H26.9653ZM31.5253 52.68V46.76H48.4853V52.68H31.5253ZM77.1662 64L66.6862 36H73.0862L83.9662 64H77.1662ZM55.3262 64L66.2062 36H72.6062L62.1262 64H55.3262ZM60.4462 58.68V53H78.8862V58.68H60.4462ZM91.325 64V41.92H83.165V36H105.885V41.92H97.725V64H91.325ZM142.685 64L150.445 36H157.005L148.805 64H142.685ZM125.925 64L117.765 36H124.325L132.045 64H125.925ZM126.805 64L134.165 36H139.925L132.605 64H126.805ZM142.085 64L134.805 36H140.565L148.205 64H142.085ZM174.009 64.48C171.129 64.48 168.582 63.8667 166.369 62.64C164.156 61.3867 162.422 59.68 161.169 57.52C159.916 55.3333 159.289 52.84 159.289 50.04C159.289 47.2133 159.916 44.72 161.169 42.56C162.422 40.3733 164.142 38.6667 166.329 37.44C168.542 36.1867 171.076 35.56 173.929 35.56C176.782 35.56 179.302 36.1867 181.489 37.44C183.702 38.6667 185.436 40.3733 186.689 42.56C187.942 44.72 188.569 47.2133 188.569 50.04C188.569 52.84 187.942 55.3333 186.689 57.52C185.462 59.68 183.756 61.3867 181.569 62.64C179.382 63.8667 176.862 64.48 174.009 64.48ZM174.009 58.56C175.582 58.56 176.969 58.2 178.169 57.48C179.369 56.76 180.302 55.76 180.969 54.48C181.636 53.1733 181.969 51.6933 181.969 50.04C181.969 48.36 181.622 46.88 180.929 45.6C180.236 44.2933 179.289 43.28 178.089 42.56C176.889 41.8133 175.502 41.44 173.929 41.44C172.356 41.44 170.969 41.8133 169.769 42.56C168.569 43.28 167.622 44.2933 166.929 45.6C166.236 46.88 165.889 48.36 165.889 50.04C165.889 51.6933 166.236 53.1733 166.929 54.48C167.622 55.76 168.582 56.76 169.809 57.48C171.036 58.2 172.436 58.56 174.009 58.56ZM193.289 64V36H204.289C206.315 36 208.115 36.4 209.689 37.2C211.262 37.9733 212.489 39.0667 213.369 40.48C214.275 41.8667 214.729 43.4667 214.729 45.28C214.729 47.0933 214.275 48.7067 213.369 50.12C212.462 51.5333 211.209 52.64 209.609 53.44C208.035 54.2133 206.222 54.6 204.169 54.6H199.729V64H193.289ZM208.489 64L202.169 52.88L207.009 49.32L215.849 64H208.489ZM199.729 48.68H204.089C204.835 48.68 205.502 48.5333 206.089 48.24C206.675 47.9467 207.129 47.5467 207.449 47.04C207.795 46.5067 207.969 45.92 207.969 45.28C207.969 44.2933 207.595 43.48 206.849 42.84C206.129 42.2 205.169 41.88 203.969 41.88H199.729V48.68ZM223.981 58.08L223.661 49.48L236.061 36H244.461L223.981 58.08ZM220.261 64V36H226.661V64H220.261ZM236.901 64L225.901 49.76L230.661 45.96L244.861 64H236.901ZM258.356 64.48C256.996 64.48 255.689 64.3067 254.436 63.96C253.209 63.5867 252.089 63.0933 251.076 62.48C250.089 61.84 249.276 61.1333 248.636 60.36C247.996 59.56 247.596 58.7067 247.436 57.8L253.796 56C254.089 56.7733 254.596 57.4533 255.316 58.04C256.063 58.6 256.996 58.8933 258.116 58.92C259.209 58.9467 260.116 58.6933 260.836 58.16C261.583 57.6267 261.956 56.9333 261.956 56.08C261.956 55.4133 261.689 54.8267 261.156 54.32C260.649 53.8133 259.916 53.4267 258.956 53.16L254.996 52.16C253.609 51.8133 252.396 51.2667 251.356 50.52C250.343 49.7733 249.543 48.8667 248.956 47.8C248.396 46.7067 248.116 45.4667 248.116 44.08C248.116 41.3867 249.009 39.2933 250.796 37.8C252.583 36.28 255.103 35.52 258.356 35.52C260.143 35.52 261.703 35.7733 263.036 36.28C264.369 36.76 265.503 37.48 266.436 38.44C267.396 39.4 268.156 40.6 268.716 42.04L262.396 43.92C262.183 43.2 261.716 42.5467 260.996 41.96C260.303 41.3733 259.396 41.08 258.276 41.08C257.156 41.08 256.276 41.3333 255.636 41.84C255.023 42.3467 254.716 43.08 254.716 44.04C254.716 44.7067 254.969 45.2667 255.476 45.72C255.983 46.1467 256.676 46.4667 257.556 46.68L261.516 47.68C263.783 48.24 265.543 49.2933 266.796 50.84C268.076 52.36 268.716 54.0933 268.716 56.04C268.716 57.8 268.303 59.3067 267.476 60.56C266.676 61.8133 265.503 62.7867 263.956 63.48C262.409 64.1467 260.543 64.48 258.356 64.48Z" fill="url(#paint0_linear_977_4468)"/>
<defs>
<linearGradient id="paint0_linear_977_4468" x1="138" y1="40.4211" x2="138" y2="64" gradientUnits="userSpaceOnUse">
<stop stop-color="#8363FF"/>
<stop offset="1" stop-color="#69F5DB"/>
</linearGradient>
</defs>
</svg>
