<svg width="404" height="97" viewBox="0 0 404 97" fill="none" xmlns="http://www.w3.org/2000/svg">
<path d="M4.08 42V-2.86102e-06H17.82C22.26 -2.86102e-06 26.18 0.899997 29.58 2.7C33.02 4.5 35.7 6.98 37.62 10.14C39.54 13.26 40.5 16.88 40.5 21C40.5 25.08 39.54 28.7 37.62 31.86C35.7 35.02 33.02 37.5 29.58 39.3C26.18 41.1 22.26 42 17.82 42H4.08ZM13.74 32.88H17.82C19.66 32.88 21.36 32.6 22.92 32.04C24.48 31.44 25.84 30.62 27 29.58C28.16 28.5 29.06 27.24 29.7 25.8C30.34 24.32 30.66 22.72 30.66 21C30.66 19.28 30.34 17.7 29.7 16.26C29.06 14.78 28.16 13.52 27 12.48C25.84 11.4 24.48 10.58 22.92 10.02C21.36 9.42 19.66 9.12 17.82 9.12H13.74V32.88ZM47.5847 42V-2.86102e-06H74.9447V8.88H57.2447V16.56H72.0647V25.14H57.2447V33.12H75.2447V42H47.5847ZM83.9995 42V-2.86102e-06H100.5C103.54 -2.86102e-06 106.24 0.619998 108.6 1.86C110.96 3.06 112.8 4.74 114.12 6.9C115.48 9.02 116.16 11.5 116.16 14.34C116.16 17.1 115.5 19.58 114.18 21.78C112.9 23.94 111.1 25.64 108.78 26.88C106.46 28.12 103.8 28.74 100.8 28.74H93.6595V42H83.9995ZM93.6595 19.86H100.56C102.28 19.86 103.66 19.36 104.7 18.36C105.74 17.32 106.26 15.98 106.26 14.34C106.26 12.7 105.7 11.38 104.58 10.38C103.5 9.34 102.06 8.82 100.26 8.82H93.6595V19.86ZM122.055 42V-2.86102e-06H131.715V42H122.055ZM141.068 42V-2.86102e-06H151.208L169.628 25.62V-2.86102e-06H179.288V42H169.628L150.728 15.66V42H141.068Z" fill="white"/>
<path d="M13.2 96V62.88H0.96V54H35.04V62.88H22.8V96H13.2ZM68.318 96V54H77.978V96H68.318ZM41.198 96V53.94H50.858V96H41.198ZM48.038 79.02V70.14H73.478V79.02H48.038ZM116.499 96L100.779 54H110.379L126.699 96H116.499ZM83.7394 96L100.059 54H109.659L93.9394 96H83.7394ZM91.4194 88.02V79.5H119.079V88.02H91.4194ZM137.737 96V62.88H125.497V54H159.578V62.88H147.337V96H137.737ZM214.778 96L226.418 54H236.258L223.958 96H214.778ZM189.638 96L177.398 54H187.238L198.818 96H189.638ZM190.958 96L201.998 54H210.638L199.658 96H190.958ZM213.878 96L202.958 54H211.598L223.058 96H213.878ZM261.764 96.72C257.444 96.72 253.624 95.8 250.304 93.96C246.984 92.08 244.384 89.52 242.504 86.28C240.624 83 239.684 79.26 239.684 75.06C239.684 70.82 240.624 67.08 242.504 63.84C244.384 60.56 246.964 58 250.244 56.16C253.564 54.28 257.364 53.34 261.644 53.34C265.924 53.34 269.704 54.28 272.984 56.16C276.304 58 278.904 60.56 280.784 63.84C282.664 67.08 283.604 70.82 283.604 75.06C283.604 79.26 282.664 83 280.784 86.28C278.944 89.52 276.384 92.08 273.104 93.96C269.824 95.8 266.044 96.72 261.764 96.72ZM261.764 87.84C264.124 87.84 266.204 87.3 268.004 86.22C269.804 85.14 271.204 83.64 272.204 81.72C273.204 79.76 273.704 77.54 273.704 75.06C273.704 72.54 273.184 70.32 272.144 68.4C271.104 66.44 269.684 64.92 267.884 63.84C266.084 62.72 264.004 62.16 261.644 62.16C259.284 62.16 257.204 62.72 255.404 63.84C253.604 64.92 252.184 66.44 251.144 68.4C250.104 70.32 249.584 72.54 249.584 75.06C249.584 77.54 250.104 79.76 251.144 81.72C252.184 83.64 253.624 85.14 255.464 86.22C257.304 87.3 259.404 87.84 261.764 87.84ZM290.683 96V54H307.183C310.223 54 312.923 54.6 315.283 55.8C317.643 56.96 319.483 58.6 320.803 60.72C322.163 62.8 322.843 65.2 322.843 67.92C322.843 70.64 322.163 73.06 320.803 75.18C319.443 77.3 317.563 78.96 315.163 80.16C312.803 81.32 310.083 81.9 307.003 81.9H300.343V96H290.683ZM313.483 96L304.003 79.32L311.263 73.98L324.523 96H313.483ZM300.343 73.02H306.883C308.003 73.02 309.003 72.8 309.883 72.36C310.763 71.92 311.443 71.32 311.923 70.56C312.443 69.76 312.703 68.88 312.703 67.92C312.703 66.44 312.143 65.22 311.023 64.26C309.943 63.3 308.503 62.82 306.703 62.82H300.343V73.02ZM336.721 87.12L336.241 74.22L354.841 54H367.441L336.721 87.12ZM331.141 96V54H340.741V96H331.141ZM356.101 96L339.601 74.64L346.741 68.94L368.041 96H356.101ZM388.284 96.72C386.244 96.72 384.284 96.46 382.404 95.94C380.564 95.38 378.884 94.64 377.364 93.72C375.884 92.76 374.664 91.7 373.704 90.54C372.744 89.34 372.144 88.06 371.904 86.7L381.444 84C381.884 85.16 382.644 86.18 383.724 87.06C384.844 87.9 386.244 88.34 387.924 88.38C389.564 88.42 390.924 88.04 392.004 87.24C393.124 86.44 393.684 85.4 393.684 84.12C393.684 83.12 393.284 82.24 392.484 81.48C391.724 80.72 390.624 80.14 389.184 79.74L383.244 78.24C381.164 77.72 379.344 76.9 377.784 75.78C376.264 74.66 375.064 73.3 374.184 71.7C373.344 70.06 372.924 68.2 372.924 66.12C372.924 62.08 374.264 58.94 376.944 56.7C379.624 54.42 383.404 53.28 388.284 53.28C390.964 53.28 393.304 53.66 395.304 54.42C397.304 55.14 399.004 56.22 400.404 57.66C401.844 59.1 402.984 60.9 403.824 63.06L394.344 65.88C394.024 64.8 393.324 63.82 392.244 62.94C391.204 62.06 389.844 61.62 388.164 61.62C386.484 61.62 385.164 62 384.204 62.76C383.284 63.52 382.824 64.62 382.824 66.06C382.824 67.06 383.204 67.9 383.964 68.58C384.724 69.22 385.764 69.7 387.084 70.02L393.024 71.52C396.424 72.36 399.064 73.94 400.944 76.26C402.864 78.54 403.824 81.14 403.824 84.06C403.824 86.7 403.204 88.96 401.964 90.84C400.764 92.72 399.004 94.18 396.684 95.22C394.364 96.22 391.564 96.72 388.284 96.72Z" fill="url(#paint0_linear_660_7979)"/>
<defs>
<linearGradient id="paint0_linear_660_7979" x1="214.5" y1="62.2105" x2="214.5" y2="102" gradientUnits="userSpaceOnUse">
<stop stop-color="#8363FF"/>
<stop offset="1" stop-color="#69F5DB"/>
</linearGradient>
</defs>
</svg>
