<svg width="144" height="153" viewBox="0 0 144 153" fill="none" xmlns="http://www.w3.org/2000/svg">
<path d="M18.3323 23.3745L38.0785 11.8965L57.8119 23.3745L38.0785 34.8525L18.3323 23.3745Z" fill="#69F5DB"/>
<path fill-rule="evenodd" clip-rule="evenodd" d="M37.1158 1.25981C37.7117 0.913395 38.4459 0.913395 39.0418 1.25981L74.1948 21.6953C74.7907 22.0417 75.1577 22.6819 75.1576 23.3746C75.1575 24.0673 74.7903 24.7074 74.1943 25.0536L39.0414 45.4762C38.4457 45.8222 37.7119 45.8222 37.1162 45.4762L1.96328 25.0536C1.3673 24.7074 1.00009 24.0673 1 23.3746C0.999906 22.6819 1.36694 22.0417 1.96282 21.6953L37.1158 1.25981ZM6.77803 23.3738L38.0788 41.5584L69.3796 23.3738L38.0788 5.17772L6.77803 23.3738Z" fill="white" stroke="white" stroke-width="0.5" stroke-linecap="round" stroke-linejoin="round"/>
<path fill-rule="evenodd" clip-rule="evenodd" d="M2.92584 21.4355C3.98945 21.4355 4.85168 22.3036 4.85168 23.3744V63.1121L18.0103 70.7475C18.9318 71.2822 19.2483 72.4677 18.7172 73.3955C18.1861 74.3232 17.0085 74.6418 16.087 74.1071L1 65.3528V23.3744C1 22.3036 1.86223 21.4355 2.92584 21.4355Z" fill="white" stroke="white" stroke-width="0.5" stroke-miterlimit="10" stroke-linecap="round"/>
<path fill-rule="evenodd" clip-rule="evenodd" d="M73.2195 21.4355C74.2831 21.4355 75.1454 22.3036 75.1454 23.3744V60.6779C75.1454 61.7487 74.2831 62.6167 73.2195 62.6167C72.1559 62.6167 71.2937 61.7487 71.2937 60.6779V23.3744C71.2937 22.3036 72.1559 21.4355 73.2195 21.4355Z" fill="white" stroke="white" stroke-width="0.5" stroke-miterlimit="10" stroke-linecap="round"/>
<path fill-rule="evenodd" clip-rule="evenodd" d="M38.0787 41.8584C39.1423 41.8584 40.0045 42.7265 40.0045 43.7972V56.6712C40.0045 57.742 39.1423 58.6101 38.0787 58.6101C37.0151 58.6101 36.1528 57.742 36.1528 56.6712V43.7972C36.1528 42.7265 37.0151 41.8584 38.0787 41.8584Z" fill="white" stroke="white" stroke-width="0.5" stroke-miterlimit="10" stroke-linecap="round"/>
<path fill-rule="evenodd" clip-rule="evenodd" d="M123.935 78.5149C124.467 77.5876 125.645 77.2701 126.566 77.8057L142.037 86.8019C142.633 87.1483 143 87.7884 143 88.4811C142.999 89.1737 142.632 89.8137 142.037 90.16L106.896 110.583C106.301 110.929 105.568 110.929 104.972 110.583L93.5452 103.952C92.6237 103.418 92.3073 102.232 92.8385 101.304C93.3696 100.377 94.5472 100.058 95.4687 100.593L105.933 106.665L137.222 88.4804L124.64 81.1635C123.719 80.6279 123.403 79.4421 123.935 78.5149Z" fill="white" stroke="white" stroke-width="0.5" stroke-linecap="round" stroke-linejoin="round"/>
<path fill-rule="evenodd" clip-rule="evenodd" d="M141.072 86.542C142.136 86.542 142.998 87.41 142.998 88.4808V130.458L105.932 152L68.853 130.459V99.7391C68.853 98.6683 69.7153 97.8003 70.7789 97.8003C71.8425 97.8003 72.7047 98.6683 72.7047 99.7391V128.219L105.932 147.523L139.146 128.219V88.4808C139.146 87.41 140.008 86.542 141.072 86.542Z" fill="white" stroke="white" stroke-width="0.5" stroke-miterlimit="10" stroke-linecap="round"/>
<path fill-rule="evenodd" clip-rule="evenodd" d="M105.919 106.964C106.983 106.964 107.845 107.832 107.845 108.903V136.047C107.845 137.118 106.983 137.986 105.919 137.986C104.856 137.986 103.993 137.118 103.993 136.047V108.903C103.993 107.832 104.856 106.964 105.919 106.964Z" fill="white" stroke="white" stroke-width="0.5" stroke-miterlimit="10" stroke-linecap="round"/>
<path fill-rule="evenodd" clip-rule="evenodd" d="M38.5909 65.0984C34.8045 65.0984 31.1731 66.6128 28.4956 69.3083C25.8182 72.0038 24.3141 75.6598 24.3141 79.4718C24.3141 83.2839 25.8182 86.9397 28.4956 89.6352C31.1731 92.3308 34.8045 93.8451 38.5909 93.8451H60.4171C61.4807 93.8451 62.3429 94.7132 62.3429 95.784C62.3429 96.8548 61.4807 97.7228 60.4171 97.7228H38.5909C33.7829 97.7228 29.1719 95.7999 25.7721 92.3772C22.3723 88.9545 20.4624 84.3123 20.4624 79.4718C20.4624 74.6313 22.3723 69.9891 25.7721 66.5664C29.1719 63.1436 33.7829 61.2207 38.5909 61.2207H60.4171C65.2251 61.2207 69.8362 63.1436 73.2359 66.5664C76.6357 69.9891 78.5456 74.6313 78.5456 79.4718C78.5456 80.5426 77.6834 81.4107 76.6198 81.4107C75.5562 81.4107 74.694 80.5426 74.694 79.4718C74.694 75.6598 73.1898 72.0038 70.5124 69.3083C67.835 66.6128 64.2036 65.0984 60.4171 65.0984H38.5909Z" fill="white" stroke="white" stroke-width="0.5" stroke-linecap="round" stroke-linejoin="round"/>
<path fill-rule="evenodd" clip-rule="evenodd" d="M79.2147 63.1596C79.2147 62.0888 80.0769 61.2207 81.1405 61.2207H102.967C107.775 61.2207 112.386 63.1436 115.786 66.5664C119.185 69.9891 121.095 74.6313 121.095 79.4718C121.095 84.3123 119.185 88.9545 115.786 92.3772C112.386 95.7999 107.775 97.7228 102.967 97.7228H81.1405C76.3325 97.7228 71.7214 95.7999 68.3217 92.3772C64.9219 88.9545 63.012 84.3123 63.012 79.4718H66.8636C66.8636 83.2839 68.3678 86.9397 71.0452 89.6352C73.7226 92.3308 77.3541 93.8451 81.1405 93.8451H102.967C106.753 93.8451 110.385 92.3308 113.062 89.6352C115.739 86.9397 117.244 83.2839 117.244 79.4718C117.244 75.6598 115.739 72.0038 113.062 69.3083C110.385 66.6128 106.753 65.0984 102.967 65.0984H81.1405C80.0769 65.0984 79.2147 64.2303 79.2147 63.1596Z" fill="white" stroke="white" stroke-width="0.5" stroke-linecap="round" stroke-linejoin="round"/>
<path fill-rule="evenodd" clip-rule="evenodd" d="M86.533 73.6293C86.533 72.5585 87.3952 71.6904 88.4588 71.6904H102.98C105.023 71.6904 106.982 72.5075 108.427 73.9619C109.871 75.4163 110.683 77.389 110.683 79.4458C110.683 81.5027 109.871 83.4752 108.427 84.9297C106.982 86.3841 105.023 87.2012 102.98 87.2012C101.916 87.2012 101.054 86.3332 101.054 85.2624C101.054 84.1916 101.916 83.3235 102.98 83.3235C104.001 83.3235 104.981 82.915 105.703 82.1877C106.426 81.4605 106.831 80.4743 106.831 79.4458C106.831 78.4174 106.426 77.431 105.703 76.7038C104.981 75.9767 104.001 75.5681 102.98 75.5681H88.4588C87.3952 75.5681 86.533 74.7001 86.533 73.6293Z" fill="white" stroke="white" stroke-width="0.5" stroke-linecap="round" stroke-linejoin="round"/>
<path fill-rule="evenodd" clip-rule="evenodd" d="M31.9767 74.0137C33.4213 72.5593 35.3807 71.7422 37.4238 71.7422C38.4874 71.7422 39.3496 72.6102 39.3496 73.681C39.3496 74.7518 38.4874 75.6199 37.4238 75.6199C36.4023 75.6199 35.4226 76.0285 34.7002 76.7557C33.9779 77.4829 33.5721 78.4691 33.5721 79.4976C33.5721 80.5261 33.9779 81.5124 34.7002 82.2396C35.4225 82.9667 36.4022 83.3753 37.4238 83.3753H51.9447C53.0083 83.3753 53.8705 84.2433 53.8705 85.3141C53.8705 86.3849 53.0083 87.253 51.9447 87.253H37.4238C35.3808 87.253 33.4214 86.436 31.9767 84.9815C30.532 83.5271 29.7205 81.5544 29.7205 79.4976C29.7205 77.4407 30.532 75.4682 31.9767 74.0137Z" fill="white" stroke="white" stroke-width="0.5" stroke-linecap="round" stroke-linejoin="round"/>
<path d="M133.369 101.911L114.008 113.169V136.112L133.369 124.854V101.911Z" fill="#69F5DB"/>
</svg>
