<svg width="206" height="152" viewBox="0 0 206 152" fill="none" xmlns="http://www.w3.org/2000/svg">
<path fill-rule="evenodd" clip-rule="evenodd" d="M131.79 83.8608C119.419 83.8608 109.27 94.3718 109.27 107.491C109.27 120.61 119.419 131.121 131.79 131.121C144.16 131.121 154.309 120.61 154.309 107.491C154.309 94.3718 144.16 83.8608 131.79 83.8608ZM105.644 107.491C105.644 92.4947 117.283 80.2142 131.79 80.2142C146.296 80.2142 157.935 92.4947 157.935 107.491C157.935 122.487 146.296 134.767 131.79 134.767C117.283 134.767 105.644 122.487 105.644 107.491Z" fill="#767185" stroke="#767185" stroke-width="0.5" stroke-linecap="round" stroke-linejoin="round"/>
<path d="M131.788 89.3313C129.714 89.3376 127.661 89.7505 125.744 90.5468C129.014 91.9961 131.793 94.3702 133.745 97.3797C135.696 100.389 136.735 103.905 136.735 107.498C136.735 111.09 135.696 114.606 133.745 117.615C131.793 120.625 129.014 122.999 125.744 124.448C127.663 125.239 129.715 125.652 131.788 125.664C141.205 125.664 148.868 117.52 148.868 107.504C148.868 97.4876 141.205 89.3313 131.788 89.3313Z" fill="#AE9AFF"/>
<path fill-rule="evenodd" clip-rule="evenodd" d="M169.041 107.492C169.041 106.485 169.853 105.668 170.854 105.668H191.452C192.453 105.668 193.265 106.485 193.265 107.492C193.265 108.498 192.453 109.315 191.452 109.315H170.854C169.853 109.315 169.041 108.498 169.041 107.492Z" fill="#767185" stroke="#767185" stroke-width="0.75" stroke-linecap="round" stroke-linejoin="round"/>
<path fill-rule="evenodd" clip-rule="evenodd" d="M165.448 90.3882C165.448 89.3813 166.26 88.5649 167.261 88.5649H181.15C182.151 88.5649 182.963 89.3813 182.963 90.3882C182.963 91.3952 182.151 92.2115 181.15 92.2115H167.261C166.26 92.2115 165.448 91.3952 165.448 90.3882Z" fill="#767185" stroke="#767185" stroke-width="0.75" stroke-linecap="round" stroke-linejoin="round"/>
<path fill-rule="evenodd" clip-rule="evenodd" d="M165.499 124.436C165.499 123.429 166.31 122.613 167.312 122.613H180.862C181.864 122.613 182.675 123.429 182.675 124.436C182.675 125.443 181.864 126.259 180.862 126.259H167.312C166.31 126.259 165.499 125.443 165.499 124.436Z" fill="#767185" stroke="#767185" stroke-width="0.75" stroke-linecap="round" stroke-linejoin="round"/>
<path fill-rule="evenodd" clip-rule="evenodd" d="M198.635 103.885C198.164 103.689 197.658 103.589 197.148 103.59L197.144 103.59C196.374 103.59 195.621 103.82 194.981 104.251C194.34 104.681 193.841 105.293 193.547 106.009C193.253 106.724 193.176 107.512 193.327 108.271C193.478 109.031 193.849 109.728 194.395 110.275C194.94 110.822 195.634 111.194 196.39 111.344C197.145 111.494 197.928 111.416 198.639 111.118C199.35 110.821 199.958 110.318 200.384 109.673C200.811 109.028 201.038 108.271 201.036 107.496L202.849 107.492L201.036 107.492C201.036 106.979 200.935 106.471 200.74 105.997C200.544 105.523 200.258 105.093 199.897 104.73C199.536 104.368 199.107 104.081 198.635 103.885ZM204.662 107.49C204.662 106.498 204.468 105.516 204.09 104.6C203.711 103.683 203.157 102.85 202.458 102.149C201.76 101.448 200.93 100.892 200.018 100.514C199.105 100.136 198.128 99.942 197.142 99.9439C197.143 99.9439 197.143 99.9439 197.144 99.9439L197.144 101.767L197.14 99.9439C197.141 99.9439 197.141 99.9439 197.142 99.9439C195.655 99.9443 194.201 100.388 192.965 101.219C191.728 102.051 190.765 103.232 190.196 104.615C189.627 105.997 189.479 107.518 189.771 108.985C190.062 110.452 190.78 111.799 191.833 112.856C192.886 113.913 194.227 114.632 195.687 114.922C197.146 115.212 198.659 115.06 200.032 114.485C201.406 113.91 202.579 112.939 203.403 111.693C204.227 110.448 204.665 108.986 204.662 107.49Z" fill="#767185"/>
<path d="M197.142 99.9439C198.128 99.942 199.105 100.136 200.018 100.514C200.93 100.892 201.76 101.448 202.458 102.149C203.157 102.85 203.711 103.683 204.09 104.6C204.468 105.516 204.662 106.498 204.662 107.49C204.665 108.986 204.227 110.448 203.403 111.693C202.579 112.939 201.406 113.91 200.032 114.485C198.659 115.06 197.146 115.212 195.687 114.922C194.227 114.632 192.886 113.913 191.833 112.856C190.78 111.799 190.062 110.452 189.771 108.985C189.479 107.518 189.627 105.997 190.196 104.615C190.765 103.232 191.728 102.051 192.965 101.219C194.201 100.388 195.655 99.9443 197.142 99.9439ZM197.142 99.9439C197.143 99.9439 197.143 99.9439 197.144 99.9439L197.144 101.767L197.14 99.9439C197.141 99.9439 197.141 99.9439 197.142 99.9439ZM197.148 103.59C197.658 103.589 198.164 103.689 198.635 103.885C199.107 104.081 199.536 104.368 199.897 104.73C200.258 105.093 200.544 105.523 200.74 105.997C200.935 106.471 201.036 106.979 201.036 107.492L202.849 107.492L201.036 107.496C201.038 108.271 200.811 109.028 200.384 109.673C199.958 110.318 199.35 110.821 198.639 111.118C197.928 111.416 197.145 111.494 196.39 111.344C195.634 111.194 194.94 110.822 194.395 110.275C193.849 109.728 193.478 109.031 193.327 108.271C193.176 107.512 193.253 106.724 193.547 106.009C193.841 105.293 194.34 104.681 194.981 104.251C195.621 103.82 196.374 103.59 197.144 103.59L197.148 103.59Z" stroke="#767185" stroke-width="0.75" stroke-linecap="round" stroke-linejoin="round"/>
<path fill-rule="evenodd" clip-rule="evenodd" d="M186.848 86.4872C186.078 86.4872 185.325 86.7169 184.685 87.1474C184.045 87.5778 183.546 88.1896 183.251 88.9052C182.957 89.6209 182.88 90.4084 183.031 91.1679C183.182 91.9272 183.554 92.6246 184.099 93.1717C184.644 93.7188 185.339 94.091 186.094 94.2411C186.85 94.3912 187.632 94.3125 188.343 94.0149C189.054 93.7175 189.662 93.2144 190.089 92.5696C190.515 91.9249 190.742 91.1673 190.74 90.3928C190.738 89.3562 190.327 88.3628 189.598 87.6306C188.868 86.8984 187.879 86.4872 186.848 86.4872ZM182.669 84.1159C183.906 83.2844 185.361 82.8406 186.848 82.8406C188.84 82.8406 190.749 83.6349 192.159 85.0493C193.569 86.4638 194.363 88.3827 194.367 90.3851C194.37 91.8811 193.932 93.3445 193.107 94.5899C192.283 95.8353 191.11 96.807 189.737 97.3817C188.363 97.9564 186.851 98.1085 185.391 97.8185C183.932 97.5286 182.59 96.8096 181.537 95.753C180.484 94.6963 179.767 93.3493 179.475 91.8821C179.184 90.4151 179.332 88.894 179.9 87.5115C180.469 86.1291 181.433 84.9473 182.669 84.1159Z" fill="#767185" stroke="#767185" stroke-width="0.75" stroke-linecap="round" stroke-linejoin="round"/>
<path fill-rule="evenodd" clip-rule="evenodd" d="M186.568 120.534C185.797 120.532 185.044 120.761 184.402 121.19C183.761 121.62 183.261 122.231 182.965 122.946C182.67 123.662 182.592 124.45 182.742 125.21C182.892 125.97 183.263 126.668 183.807 127.216C184.352 127.764 185.047 128.136 185.802 128.287C186.558 128.438 187.341 128.36 188.053 128.062C188.765 127.765 189.372 127.262 189.799 126.617C190.226 125.972 190.454 125.215 190.452 124.44L192.265 124.436H190.452C190.452 123.401 190.043 122.409 189.315 121.677C188.588 120.945 187.601 120.534 186.572 120.534L186.568 120.534ZM194.078 124.434C194.081 125.93 193.642 127.393 192.818 128.639C191.993 129.884 190.819 130.856 189.444 131.43C188.07 132.004 186.557 132.155 185.097 131.864C183.637 131.573 182.296 130.853 181.243 129.794C180.191 128.736 179.474 127.387 179.185 125.919C178.895 124.451 179.045 122.929 179.616 121.547C180.187 120.165 181.154 118.984 182.392 118.155C183.631 117.326 185.086 116.885 186.574 116.887C188.564 116.888 190.472 117.683 191.88 119.098C193.287 120.513 194.078 122.433 194.078 124.434ZM186.574 116.887C186.574 116.887 186.575 116.887 186.576 116.887L186.572 118.711V116.887C186.572 116.887 186.573 116.887 186.574 116.887Z" fill="#767185"/>
<path d="M186.574 116.887C185.086 116.885 183.631 117.326 182.392 118.155C181.154 118.984 180.187 120.165 179.616 121.547C179.045 122.929 178.895 124.451 179.185 125.919C179.474 127.387 180.191 128.736 181.243 129.794C182.296 130.853 183.637 131.573 185.097 131.864C186.557 132.155 188.07 132.004 189.444 131.43C190.819 130.856 191.993 129.884 192.818 128.639C193.642 127.393 194.081 125.93 194.078 124.434C194.078 122.433 193.287 120.513 191.88 119.098C190.472 117.683 188.564 116.888 186.574 116.887ZM186.574 116.887C186.574 116.887 186.575 116.887 186.576 116.887L186.572 118.711V116.887C186.572 116.887 186.573 116.887 186.574 116.887ZM184.402 121.19C185.044 120.761 185.797 120.532 186.568 120.534L186.572 120.534C187.601 120.534 188.588 120.945 189.315 121.677C190.043 122.409 190.452 123.401 190.452 124.436H192.265L190.452 124.44C190.454 125.215 190.226 125.972 189.799 126.617C189.372 127.262 188.765 127.765 188.053 128.062C187.341 128.36 186.558 128.438 185.802 128.287C185.047 128.136 184.352 127.764 183.807 127.216C183.263 126.668 182.892 125.97 182.742 125.21C182.592 124.45 182.67 123.662 182.965 122.946C183.261 122.231 183.761 121.62 184.402 121.19Z" stroke="#767185" stroke-width="0.75" stroke-linecap="round" stroke-linejoin="round"/>
<path fill-rule="evenodd" clip-rule="evenodd" d="M168.044 122.795C168.966 123.189 169.396 124.259 169.004 125.186C165.895 132.542 160.72 138.827 154.112 143.269C147.504 147.711 139.75 150.117 131.802 150.193L131.785 150.194H101.396C100.395 150.194 99.583 149.377 99.583 148.37C99.583 147.363 100.395 146.547 101.396 146.547H131.776C139.016 146.476 146.077 144.283 152.096 140.237C158.118 136.189 162.834 130.463 165.666 123.76C166.058 122.833 167.123 122.401 168.044 122.795Z" fill="#767185" stroke="#767185" stroke-width="0.75" stroke-linecap="round" stroke-linejoin="round"/>
<path fill-rule="evenodd" clip-rule="evenodd" d="M133.603 66.6251C133.603 67.632 132.792 68.4486 131.79 68.449C123.319 68.4518 115.119 71.4463 108.62 76.91C107.851 77.5558 106.708 77.4532 106.066 76.6806C105.423 75.9081 105.526 74.7582 106.294 74.1123C113.445 68.1005 122.468 64.8054 131.789 64.8024C132.79 64.802 133.602 65.6181 133.603 66.6251Z" fill="#767185" stroke="#767185" stroke-width="0.75" stroke-linecap="round" stroke-linejoin="round"/>
<path fill-rule="evenodd" clip-rule="evenodd" d="M148.334 70.4046C148.816 69.5216 149.918 69.1983 150.796 69.6824C155.866 72.4776 160.297 76.31 163.804 80.9327C164.411 81.7333 164.258 82.8774 163.462 83.4882C162.666 84.099 161.528 83.9451 160.921 83.1445C157.721 78.9269 153.678 75.4303 149.052 72.8799C148.174 72.3958 147.853 71.2876 148.334 70.4046Z" fill="#767185" stroke="#767185" stroke-width="0.75" stroke-linecap="round" stroke-linejoin="round"/>
<path fill-rule="evenodd" clip-rule="evenodd" d="M166.494 88.7234C167.409 88.3134 168.481 88.7265 168.889 89.6463C171.378 95.2621 172.667 101.341 172.672 107.49C172.673 108.497 171.862 109.314 170.86 109.315C169.859 109.315 169.047 108.5 169.046 107.493C169.041 101.855 167.859 96.2805 165.577 91.1311C165.169 90.2114 165.58 89.1334 166.494 88.7234Z" fill="#767185" stroke="#767185" stroke-width="0.75" stroke-linecap="round" stroke-linejoin="round"/>
<path fill-rule="evenodd" clip-rule="evenodd" d="M131.786 41.2329C132.787 41.2329 133.599 42.0492 133.599 43.0562V66.6131C133.599 67.6201 132.787 68.4364 131.786 68.4364C130.784 68.4364 129.972 67.6201 129.972 66.6131V43.0562C129.972 42.0492 130.784 41.2329 131.786 41.2329Z" fill="#767185" stroke="#767185" stroke-width="0.75" stroke-linecap="round" stroke-linejoin="round"/>
<path fill-rule="evenodd" clip-rule="evenodd" d="M131.784 32.4323C129.367 32.4323 127.408 34.4023 127.408 36.8325C127.408 39.2628 129.367 41.2329 131.784 41.2329C134.201 41.2329 136.16 39.2628 136.16 36.8325C136.16 34.4023 134.201 32.4323 131.784 32.4323ZM123.782 36.8325C123.782 32.3884 127.365 28.7857 131.784 28.7857C136.204 28.7857 139.786 32.3884 139.786 36.8325C139.786 41.2766 136.204 44.8795 131.784 44.8795C127.365 44.8795 123.782 41.2766 123.782 36.8325Z" fill="#767185" stroke="#767185" stroke-width="0.75" stroke-linecap="round" stroke-linejoin="round"/>
<path fill-rule="evenodd" clip-rule="evenodd" d="M114.982 56.3663C115.983 56.3663 116.795 57.1827 116.795 58.1896V70.4908C116.795 71.4978 115.983 72.3141 114.982 72.3141C113.98 72.3141 113.169 71.4978 113.169 70.4908V58.1896C113.169 57.1827 113.98 56.3663 114.982 56.3663Z" fill="#767185" stroke="#767185" stroke-width="0.75" stroke-linecap="round" stroke-linejoin="round"/>
<path fill-rule="evenodd" clip-rule="evenodd" d="M114.995 47.5657C112.578 47.5657 110.619 49.5358 110.619 51.9659C110.619 54.3961 112.578 56.3662 114.995 56.3662C117.412 56.3662 119.371 54.3961 119.371 51.9659C119.371 49.5358 117.412 47.5657 114.995 47.5657ZM106.993 51.9659C106.993 47.5218 110.576 43.9191 114.995 43.9191C119.415 43.9191 122.997 47.5218 122.997 51.9659C122.997 56.4101 119.415 60.0128 114.995 60.0128C110.576 60.0128 106.993 56.4101 106.993 51.9659Z" fill="#767185" stroke="#767185" stroke-width="0.75" stroke-linecap="round" stroke-linejoin="round"/>
<path fill-rule="evenodd" clip-rule="evenodd" d="M149.924 56.3663C150.925 56.3663 151.737 57.1827 151.737 58.1896V70.4908C151.737 71.4978 150.925 72.3141 149.924 72.3141C148.922 72.3141 148.111 71.4978 148.111 70.4908V58.1896C148.111 57.1827 148.922 56.3663 149.924 56.3663Z" fill="#767185" stroke="#767185" stroke-width="0.75" stroke-linecap="round" stroke-linejoin="round"/>
<path fill-rule="evenodd" clip-rule="evenodd" d="M149.923 47.5655C147.506 47.5655 145.547 49.5356 145.547 51.9658C145.547 54.3959 147.506 56.366 149.923 56.366C152.339 56.366 154.298 54.3959 154.298 51.9658C154.298 49.5356 152.339 47.5655 149.923 47.5655ZM141.92 51.9658C141.92 47.5216 145.503 43.9189 149.923 43.9189C154.342 43.9189 157.925 47.5216 157.925 51.9658C157.925 56.4099 154.342 60.0126 149.923 60.0126C145.503 60.0126 141.92 56.4099 141.92 51.9658Z" fill="#767185" stroke="#767185" stroke-width="0.75" stroke-linecap="round" stroke-linejoin="round"/>
<path fill-rule="evenodd" clip-rule="evenodd" d="M3.63895 4.01801C5.11242 2.5363 7.11088 1.70386 9.19472 1.70386H101.364C103.448 1.70386 105.447 2.5363 106.92 4.01801C108.394 5.49971 109.221 7.50934 109.221 9.60482V29.0533C109.221 30.0603 108.41 30.8766 107.408 30.8766C106.407 30.8766 105.595 30.0603 105.595 29.0533V9.60482C105.595 8.4765 105.149 7.3944 104.356 6.59654C103.562 5.79868 102.486 5.35045 101.364 5.35045H9.19472C8.07268 5.35045 6.99658 5.79868 6.20316 6.59654C5.40973 7.3944 4.96399 8.4765 4.96399 9.60482V142.39C4.96399 143.518 5.40973 144.6 6.20316 145.398C6.99658 146.196 8.07268 146.644 9.19472 146.644H101.401C102.402 146.644 103.214 147.46 103.214 148.467C103.214 149.474 102.402 150.29 101.401 150.29H9.19472C7.11088 150.29 5.11242 149.458 3.63895 147.976C2.16547 146.495 1.33765 144.485 1.33765 142.39V9.60482C1.33765 7.50934 2.16547 5.49971 3.63895 4.01801Z" fill="#767185" stroke="#767185" stroke-width="0.75" stroke-miterlimit="10" stroke-linecap="round"/>
<path d="M92.785 18.2112H17.8164V39.8841H92.785V18.2112Z" fill="#AE9AFF"/>
<path fill-rule="evenodd" clip-rule="evenodd" d="M66.8635 75.487C66.8635 74.48 67.6753 73.6637 68.6767 73.6637H84.0282C85.0296 73.6637 85.8414 74.48 85.8414 75.487C85.8414 76.494 85.0296 77.3103 84.0282 77.3103H68.6767C67.6753 77.3103 66.8635 76.494 66.8635 75.487Z" fill="#767185" stroke="#767185" stroke-width="0.75" stroke-miterlimit="10" stroke-linecap="round"/>
<path fill-rule="evenodd" clip-rule="evenodd" d="M24.75 75.487C24.75 74.48 25.5618 73.6637 26.5632 73.6637H41.9147C42.9161 73.6637 43.7278 74.48 43.7278 75.487C43.7278 76.494 42.9161 77.3103 41.9147 77.3103H26.5632C25.5618 77.3103 24.75 76.494 24.75 75.487Z" fill="#767185" stroke="#767185" stroke-width="0.75" stroke-miterlimit="10" stroke-linecap="round"/>
<path fill-rule="evenodd" clip-rule="evenodd" d="M34.2399 65.9451C35.2413 65.9451 36.0531 66.7614 36.0531 67.7684V83.2056C36.0531 84.2125 35.2413 85.0289 34.2399 85.0289C33.2385 85.0289 32.4268 84.2125 32.4268 83.2056V67.7684C32.4268 66.7614 33.2385 65.9451 34.2399 65.9451Z" fill="#767185" stroke="#767185" stroke-width="0.75" stroke-miterlimit="10" stroke-linecap="round"/>
<path fill-rule="evenodd" clip-rule="evenodd" d="M27.5323 110.53C28.2404 109.818 29.3884 109.818 30.0965 110.53L40.9514 121.445C41.6595 122.157 41.6595 123.312 40.9514 124.024C40.2433 124.736 39.0952 124.736 38.3872 124.024L27.5323 113.109C26.8242 112.396 26.8242 111.242 27.5323 110.53Z" fill="#767185" stroke="#767185" stroke-width="0.75" stroke-miterlimit="10" stroke-linecap="round"/>
<path fill-rule="evenodd" clip-rule="evenodd" d="M40.9514 110.53C41.6595 111.242 41.6595 112.396 40.9514 113.109L30.0965 124.024C29.3884 124.736 28.2404 124.736 27.5323 124.024C26.8242 123.312 26.8242 122.157 27.5323 121.445L38.3872 110.53C39.0952 109.818 40.2433 109.818 40.9514 110.53Z" fill="#767185" stroke="#767185" stroke-width="0.75" stroke-miterlimit="10" stroke-linecap="round"/>
<path fill-rule="evenodd" clip-rule="evenodd" d="M65.2258 117.082C65.2258 116.075 66.0376 115.259 67.039 115.259H82.3905C83.3919 115.259 84.2037 116.075 84.2037 117.082C84.2037 118.089 83.3919 118.905 82.3905 118.905H67.039C66.0376 118.905 65.2258 118.089 65.2258 117.082Z" fill="#767185" stroke="#767185" stroke-width="0.75" stroke-miterlimit="10" stroke-linecap="round"/>
<path fill-rule="evenodd" clip-rule="evenodd" d="M74.8577 111.029C75.5657 111.029 76.139 110.452 76.139 109.74C76.139 109.028 75.5651 108.452 74.8577 108.452C74.1504 108.452 73.5764 109.028 73.5764 109.74C73.5764 110.452 74.1498 111.029 74.8577 111.029ZM72.5127 109.74C72.5127 108.438 73.5623 107.382 74.8577 107.382C76.1532 107.382 77.2028 108.438 77.2028 109.74C77.2028 111.043 76.1525 112.098 74.8577 112.098C73.5629 112.098 72.5127 111.043 72.5127 109.74Z" fill="#767185" stroke="#767185" stroke-width="0.75" stroke-miterlimit="10" stroke-linecap="round"/>
<path fill-rule="evenodd" clip-rule="evenodd" d="M74.8577 126.248C75.5651 126.248 76.139 125.671 76.139 124.959C76.139 124.248 75.5657 123.671 74.8577 123.671C74.1498 123.671 73.5764 124.248 73.5764 124.959C73.5764 125.671 74.1504 126.248 74.8577 126.248ZM72.5127 124.959C72.5127 123.656 73.5629 122.601 74.8577 122.601C76.1525 122.601 77.2028 123.656 77.2028 124.959C77.2028 126.261 76.1532 127.317 74.8577 127.317C73.5623 127.317 72.5127 126.261 72.5127 124.959Z" fill="#767185" stroke="#767185" stroke-width="0.75" stroke-miterlimit="10" stroke-linecap="round"/>
<path fill-rule="evenodd" clip-rule="evenodd" d="M13.0259 95.4941C13.0259 94.4871 13.8377 93.6708 14.8391 93.6708H95.7549C96.7563 93.6708 97.5681 94.4871 97.5681 95.4941C97.5681 96.5011 96.7563 97.3174 95.7549 97.3174H14.8391C13.8377 97.3174 13.0259 96.5011 13.0259 95.4941Z" fill="#767185" stroke="#767185" stroke-width="0.75" stroke-miterlimit="10" stroke-linecap="round"/>
<path fill-rule="evenodd" clip-rule="evenodd" d="M55.7404 52.9872C56.7418 52.9872 57.5536 53.8036 57.5536 54.8105V136.178C57.5536 137.185 56.7418 138.002 55.7404 138.002C54.739 138.002 53.9272 137.185 53.9272 136.178V54.8105C53.9272 53.8036 54.739 52.9872 55.7404 52.9872Z" fill="#767185" stroke="#767185" stroke-width="0.75" stroke-miterlimit="10" stroke-linecap="round"/>
</svg>
