<svg width="40" height="41" viewBox="0 0 40 41" fill="none" xmlns="http://www.w3.org/2000/svg">
<circle cx="20" cy="20" r="20" fill="#212121"/>
<path fill-rule="evenodd" clip-rule="evenodd" d="M13.9922 10H12.5996V32H13.9922V10ZM6.90865 18.0136C6.92584 16.625 9.40153 16.5748 9.40153 17.9466L9.41872 19.1345H11.3099V18.0303C11.4302 14.3497 4.94873 14.3497 5.00031 17.9466V24.2873C4.94873 27.8843 11.4474 27.9679 11.3271 24.2873V22.9656H9.40153V24.3877C9.40153 25.7596 6.94303 25.793 6.90865 24.3877V18.0136ZM18.8747 15.6378C18.0151 16.1062 17.6884 16.5747 17.6884 16.5747V15.5541H14.9893V16.926L16.038 16.9427V25.358H15.144V26.7298H17.9463V17.8294C17.9635 16.491 20.2329 16.4576 20.2329 17.7625V26.7298H23.362V25.358H22.1413V17.8462C22.0725 16.8424 21.7458 15.9389 20.8862 15.5709C21.0409 15.6378 19.975 15.0522 18.8747 15.6378ZM31.838 24.2535C31.9068 25.2573 32.2334 26.1607 33.093 26.5287C32.9383 26.4618 33.5229 26.7462 34.1074 26.7295H35.947V25.3576C35.947 25.3576 35.1733 25.3409 34.7607 25.3576C34.2449 25.3576 33.7979 25.1234 33.7635 24.404V16.9592V16.9424H35.6031V15.5873H33.7635V15.5706V12.6763H31.838V24.2535ZM28.3654 24.371V22.9656H30.2909V24.2873C30.4113 27.9679 23.9126 27.8843 23.9642 24.2873V17.9466C23.9126 14.3497 30.3941 14.3497 30.2738 18.0303V21.0751C30.2738 21.2592 30.119 21.4097 29.9299 21.4097H25.8725V24.371C25.8897 25.7763 28.3654 25.7428 28.3654 24.371ZM28.3654 17.9466C28.3654 16.558 25.9069 16.5581 25.8725 17.9299H25.8897V20.0212H28.3654V17.9466Z" fill="#B80000"/>
</svg>
