<svg width="144" height="153" viewBox="0 0 144 153" fill="none" xmlns="http://www.w3.org/2000/svg">
<path d="M18.332 23.3743L38.0783 11.8963L57.8117 23.3743L38.0783 34.8523L18.332 23.3743Z" fill="#69F5DB"/>
<path fill-rule="evenodd" clip-rule="evenodd" d="M37.1158 1.25981C37.7117 0.913395 38.4459 0.913395 39.0418 1.25981L74.1948 21.6953C74.7907 22.0417 75.1577 22.6819 75.1576 23.3746C75.1575 24.0673 74.7903 24.7074 74.1943 25.0536L39.0414 45.4762C38.4457 45.8222 37.7119 45.8222 37.1162 45.4762L1.96328 25.0536C1.3673 24.7074 1.00009 24.0673 1 23.3746C0.999906 22.6819 1.36694 22.0417 1.96282 21.6953L37.1158 1.25981ZM6.77803 23.3738L38.0788 41.5584L69.3796 23.3738L38.0788 5.17772L6.77803 23.3738Z" fill="white" stroke="white" stroke-width="0.5" stroke-linecap="round" stroke-linejoin="round"/>
<path fill-rule="evenodd" clip-rule="evenodd" d="M2.92584 21.4355C3.98945 21.4355 4.85168 22.3036 4.85168 23.3744V63.1121L18.0103 70.7475C18.9318 71.2822 19.2483 72.4677 18.7172 73.3955C18.1861 74.3232 17.0085 74.6418 16.087 74.1071L1 65.3528V23.3744C1 22.3036 1.86223 21.4355 2.92584 21.4355Z" fill="white" stroke="white" stroke-width="0.5" stroke-miterlimit="10" stroke-linecap="round"/>
<path fill-rule="evenodd" clip-rule="evenodd" d="M73.2195 21.4356C74.2831 21.4356 75.1454 22.3037 75.1454 23.3745V60.6779C75.1454 61.7487 74.2831 62.6168 73.2195 62.6168C72.1559 62.6168 71.2937 61.7487 71.2937 60.6779V23.3745C71.2937 22.3037 72.1559 21.4356 73.2195 21.4356Z" fill="white" stroke="white" stroke-width="0.5" stroke-miterlimit="10" stroke-linecap="round"/>
<path fill-rule="evenodd" clip-rule="evenodd" d="M38.0787 41.8582C39.1423 41.8582 40.0045 42.7263 40.0045 43.7971V56.671C40.0045 57.7418 39.1423 58.6099 38.0787 58.6099C37.0151 58.6099 36.1528 57.7418 36.1528 56.671V43.7971C36.1528 42.7263 37.0151 41.8582 38.0787 41.8582Z" fill="white" stroke="white" stroke-width="0.5" stroke-miterlimit="10" stroke-linecap="round"/>
<path fill-rule="evenodd" clip-rule="evenodd" d="M123.935 78.5149C124.467 77.5876 125.645 77.2701 126.566 77.8057L142.037 86.8019C142.633 87.1483 143 87.7884 143 88.4811C142.999 89.1737 142.632 89.8137 142.037 90.16L106.896 110.583C106.301 110.929 105.568 110.929 104.972 110.583L93.5452 103.952C92.6237 103.418 92.3073 102.232 92.8385 101.304C93.3696 100.377 94.5472 100.058 95.4687 100.593L105.933 106.665L137.222 88.4804L124.64 81.1635C123.719 80.6279 123.403 79.4421 123.935 78.5149Z" fill="white" stroke="white" stroke-width="0.5" stroke-linecap="round" stroke-linejoin="round"/>
<path fill-rule="evenodd" clip-rule="evenodd" d="M141.072 86.5419C142.136 86.5419 142.998 87.4099 142.998 88.4807V130.458L105.932 152L68.853 130.458V99.739C68.853 98.6682 69.7153 97.8002 70.7789 97.8002C71.8425 97.8002 72.7047 98.6682 72.7047 99.739V128.219L105.932 147.523L139.146 128.219V88.4807C139.146 87.4099 140.008 86.5419 141.072 86.5419Z" fill="white" stroke="white" stroke-width="0.5" stroke-miterlimit="10" stroke-linecap="round"/>
<path fill-rule="evenodd" clip-rule="evenodd" d="M105.919 106.965C106.983 106.965 107.845 107.833 107.845 108.903V136.047C107.845 137.118 106.983 137.986 105.919 137.986C104.856 137.986 103.993 137.118 103.993 136.047V108.903C103.993 107.833 104.856 106.965 105.919 106.965Z" fill="white" stroke="white" stroke-width="0.5" stroke-miterlimit="10" stroke-linecap="round"/>
<path fill-rule="evenodd" clip-rule="evenodd" d="M38.5909 65.0986C34.8045 65.0986 31.1731 66.613 28.4956 69.3085C25.8182 72.0041 24.3141 75.66 24.3141 79.4721C24.3141 83.2841 25.8182 86.94 28.4956 89.6355C31.1731 92.331 34.8045 93.8454 38.5909 93.8454H60.4171C61.4807 93.8454 62.3429 94.7134 62.3429 95.7842C62.3429 96.855 61.4807 97.7231 60.4171 97.7231H38.5909C33.7829 97.7231 29.1719 95.8002 25.7721 92.3774C22.3723 88.9547 20.4624 84.3125 20.4624 79.4721C20.4624 74.6316 22.3723 69.9893 25.7721 66.5666C29.1719 63.1439 33.7829 61.2209 38.5909 61.2209H60.4171C65.2251 61.2209 69.8362 63.1439 73.2359 66.5666C76.6357 69.9893 78.5456 74.6316 78.5456 79.4721C78.5456 80.5429 77.6834 81.4109 76.6198 81.4109C75.5562 81.4109 74.694 80.5429 74.694 79.4721C74.694 75.66 73.1898 72.0041 70.5124 69.3085C67.835 66.613 64.2036 65.0986 60.4171 65.0986H38.5909Z" fill="white" stroke="white" stroke-width="0.5" stroke-linecap="round" stroke-linejoin="round"/>
<path fill-rule="evenodd" clip-rule="evenodd" d="M79.2147 63.1598C79.2147 62.089 80.0769 61.2209 81.1405 61.2209H102.967C107.775 61.2209 112.386 63.1439 115.786 66.5666C119.185 69.9893 121.095 74.6316 121.095 79.4721C121.095 84.3125 119.185 88.9547 115.786 92.3774C112.386 95.8002 107.775 97.7231 102.967 97.7231H81.1405C76.3325 97.7231 71.7214 95.8002 68.3217 92.3774C64.9219 88.9547 63.012 84.3125 63.012 79.4721H66.8636C66.8636 83.2841 68.3678 86.94 71.0452 89.6355C73.7226 92.331 77.3541 93.8454 81.1405 93.8454H102.967C106.753 93.8454 110.385 92.331 113.062 89.6355C115.739 86.94 117.244 83.2841 117.244 79.4721C117.244 75.66 115.739 72.0041 113.062 69.3085C110.385 66.613 106.753 65.0986 102.967 65.0986H81.1405C80.0769 65.0986 79.2147 64.2306 79.2147 63.1598Z" fill="white" stroke="white" stroke-width="0.5" stroke-linecap="round" stroke-linejoin="round"/>
<path fill-rule="evenodd" clip-rule="evenodd" d="M86.533 73.6294C86.533 72.5586 87.3952 71.6906 88.4588 71.6906H102.98C105.023 71.6906 106.982 72.5076 108.427 73.962C109.871 75.4165 110.683 77.3891 110.683 79.4459C110.683 81.5028 109.871 83.4754 108.427 84.9298C106.982 86.3842 105.023 87.2013 102.98 87.2013C101.916 87.2013 101.054 86.3333 101.054 85.2625C101.054 84.1917 101.916 83.3236 102.98 83.3236C104.001 83.3236 104.981 82.9151 105.703 82.1879C106.426 81.4607 106.831 80.4744 106.831 79.4459C106.831 78.4175 106.426 77.4311 105.703 76.704C104.981 75.9768 104.001 75.5683 102.98 75.5683H88.4588C87.3952 75.5683 86.533 74.7002 86.533 73.6294Z" fill="white" stroke="white" stroke-width="0.5" stroke-linecap="round" stroke-linejoin="round"/>
<path fill-rule="evenodd" clip-rule="evenodd" d="M31.9764 74.0136C33.4211 72.5592 35.3805 71.7421 37.4236 71.7421C38.4872 71.7421 39.3494 72.6101 39.3494 73.6809C39.3494 74.7517 38.4872 75.6198 37.4236 75.6198C36.4021 75.6198 35.4223 76.0283 34.7 76.7556C33.9777 77.4828 33.5719 78.469 33.5719 79.4975C33.5719 80.5259 33.9777 81.5123 34.7 82.2394C35.4223 82.9666 36.402 83.3752 37.4236 83.3752H51.9445C53.0081 83.3752 53.8703 84.2432 53.8703 85.314C53.8703 86.3848 53.0081 87.2529 51.9445 87.2529H37.4236C35.3805 87.2529 33.4211 86.4358 31.9764 84.9814C30.5318 83.5269 29.7202 81.5543 29.7202 79.4975C29.7202 77.4406 30.5318 75.468 31.9764 74.0136Z" fill="white" stroke="white" stroke-width="0.5" stroke-linecap="round" stroke-linejoin="round"/>
<path d="M133.37 101.911L114.009 113.169V136.112L133.37 124.854V101.911Z" fill="#69F5DB"/>
</svg>
