<svg width="30" height="30" viewBox="0 0 30 30" fill="none" xmlns="http://www.w3.org/2000/svg">
<path fill-rule="evenodd" clip-rule="evenodd" d="M15 0C6.7125 0 0 6.71007 0 14.9946C0 21.6297 4.29375 27.2339 10.2563 29.2207C11.0063 29.3519 11.2875 28.902 11.2875 28.5084C11.2875 28.1523 11.2688 26.9715 11.2688 25.7157C7.5 26.4092 6.525 24.7973 6.225 23.9538C6.05625 23.5227 5.325 22.192 4.6875 21.8358C4.1625 21.5547 3.4125 20.8612 4.66875 20.8424C5.85 20.8237 6.69375 21.9296 6.975 22.3794C8.325 24.6473 10.4812 24.01 11.3438 23.6164C11.475 22.6418 11.8688 21.9858 12.3 21.6109C8.9625 21.2361 5.475 19.9428 5.475 14.2074C5.475 12.5767 6.05625 11.2272 7.0125 10.1776C6.8625 9.8027 6.3375 8.26575 7.1625 6.204C7.1625 6.204 8.41875 5.81039 11.2875 7.74094C12.4875 7.40357 13.7625 7.23488 15.0375 7.23488C16.3125 7.23488 17.5875 7.40357 18.7875 7.74094C21.6563 5.79165 22.9125 6.204 22.9125 6.204C23.7375 8.26575 23.2125 9.8027 23.0625 10.1776C24.0188 11.2272 24.6 12.5579 24.6 14.2074C24.6 19.9615 21.0938 21.2361 17.7563 21.6109C18.3 22.0795 18.7687 22.9792 18.7687 24.3849C18.7687 26.3904 18.75 28.0023 18.75 28.5084C18.75 28.902 19.0312 29.3706 19.7812 29.2207C25.7063 27.2339 30 21.6109 30 14.9946C30 6.71007 23.2875 0 15 0Z" fill="#69F5DB"/>
</svg>
