<svg width="120" height="120" viewBox="0 0 120 120" fill="none" xmlns="http://www.w3.org/2000/svg">
<g clip-path="url(#clip0_651_9313)">
<path d="M60.0046 54.9705C49.2045 54.9705 40.4238 45.8818 40.4238 34.7074C40.4238 23.5331 49.2045 14.4443 60.0046 14.4443C70.8047 14.4443 79.5854 23.5331 79.5854 34.7074C79.5854 45.8818 70.8047 54.9705 60.0046 54.9705ZM60.0046 17.1413C50.701 17.1413 43.1284 25.0254 43.1284 34.7074C43.1284 44.3895 50.701 52.2735 60.0046 52.2735C69.3082 52.2735 76.8809 44.3895 76.8809 34.7074C76.8809 25.0254 69.3082 17.1413 60.0046 17.1413Z" fill="white"/>
<path d="M60.0048 21.1954C58.4452 21.1954 56.8946 21.5011 55.4521 22.0944C62.4389 25.1599 65.6122 33.2867 62.547 40.2538C61.1587 43.4183 58.6255 45.9354 55.4521 47.3288C56.8946 47.9222 58.4452 48.2278 60.0048 48.2278C67.0726 48.2278 72.8242 42.1597 72.8242 34.7431C72.8242 27.3265 67.0726 21.1954 60.0048 21.1954Z" fill="#69F5DB"/>
<path d="M104.701 36.0553H89.2673C88.5191 36.0553 87.915 35.453 87.915 34.7069C87.915 33.9607 88.5191 33.3584 89.2673 33.3584H104.701C105.449 33.3584 106.053 33.9607 106.053 34.7069C106.053 35.453 105.449 36.0553 104.701 36.0553Z" fill="white"/>
<path d="M96.9842 23.3532H86.5808C85.8325 23.3532 85.2285 22.7509 85.2285 22.0047C85.2285 21.2586 85.8325 20.6562 86.5808 20.6562H96.9842C97.7325 20.6562 98.3365 21.2586 98.3365 22.0047C98.3365 22.7509 97.7325 23.3532 96.9842 23.3532Z" fill="white"/>
<path d="M96.7679 48.6501H86.6169C85.8687 48.6501 85.2646 48.0478 85.2646 47.3016C85.2646 46.5554 85.8687 45.9531 86.6169 45.9531H96.7679C97.5162 45.9531 98.1202 46.5554 98.1202 47.3016C98.1202 48.0478 97.5162 48.6501 96.7679 48.6501Z" fill="white"/>
<path d="M108.965 40.3258C105.864 40.3258 103.349 37.8176 103.34 34.7251C103.34 33.2238 103.917 31.8214 104.981 30.7516C106.044 29.6908 107.451 29.1065 108.956 29.0975C112.066 29.0975 114.591 31.6056 114.591 34.6981C114.591 37.7906 112.075 40.3168 108.974 40.3168H108.965V40.3258ZM108.965 31.8034C108.181 31.8034 107.442 32.1091 106.892 32.6574C106.342 33.2058 106.035 33.943 106.044 34.7161C106.044 36.3163 107.361 37.6198 108.965 37.6198C110.579 37.6198 111.886 36.3073 111.877 34.6981C111.877 33.0979 110.561 31.7944 108.956 31.7944L108.965 31.8034Z" fill="white"/>
<path d="M101.258 27.6138C98.157 27.6138 95.6328 25.0967 95.6328 22.0042C95.6328 18.9117 98.157 16.3945 101.258 16.3945C104.359 16.3945 106.884 18.9117 106.884 22.0042C106.884 25.0967 104.359 27.6138 101.258 27.6138ZM101.258 19.0915C99.6445 19.0915 98.3373 20.395 98.3373 22.0042C98.3373 23.6134 99.6445 24.9169 101.258 24.9169C102.872 24.9169 104.179 23.6134 104.179 22.0042C104.179 20.395 102.872 19.0915 101.258 19.0915Z" fill="white"/>
<path d="M96.768 48.6503C96.0468 48.6503 95.4518 48.084 95.4158 47.3648C95.3436 45.8725 95.8665 44.4341 96.8762 43.3284C97.8859 42.2226 99.2742 41.5753 100.771 41.5034C102.258 41.4315 103.71 41.9529 104.819 42.9598C105.927 43.9666 106.576 45.3511 106.649 46.8434C106.649 47.0142 106.649 47.185 106.649 47.3558C106.613 48.102 105.999 48.6773 105.242 48.6413C104.494 48.6054 103.917 47.9761 103.953 47.2389C103.953 47.149 103.953 47.0591 103.953 46.9692C103.917 46.1961 103.583 45.4769 103.006 44.9555C102.43 44.4341 101.69 44.1554 100.906 44.2004C100.131 44.2363 99.4095 44.5689 98.8776 45.1443C98.3457 45.7196 98.0842 46.4658 98.1203 47.2389C98.1564 47.9851 97.5794 48.6144 96.8311 48.6503C96.8131 48.6503 96.7861 48.6503 96.768 48.6503Z" fill="white"/>
<path d="M30.7324 36.0553H15.2986C14.5503 36.0553 13.9463 35.453 13.9463 34.7069C13.9463 33.9607 14.5503 33.3584 15.2986 33.3584H30.7324C31.4807 33.3584 32.0847 33.9607 32.0847 34.7069C32.0847 35.453 31.4807 36.0553 30.7324 36.0553Z" fill="white"/>
<path d="M33.4188 23.353H23.0154C22.2671 23.353 21.6631 22.7506 21.6631 22.0045C21.6631 21.2583 22.2671 20.656 23.0154 20.656H33.4188C34.167 20.656 34.771 21.2583 34.771 22.0045C34.771 22.7506 34.167 23.353 33.4188 23.353Z" fill="white"/>
<path d="M33.3832 48.6501H23.2321C22.4839 48.6501 21.8799 48.0478 21.8799 47.3016C21.8799 46.5554 22.4839 45.9531 23.2321 45.9531H33.3832C34.1314 45.9531 34.7354 46.5554 34.7354 47.3016C34.7354 48.0478 34.1314 48.6501 33.3832 48.6501Z" fill="white"/>
<path d="M11.0434 40.3257H11.0344C7.93318 40.3257 5.41797 37.7996 5.41797 34.7071C5.41797 31.6236 7.9422 29.1154 11.0344 29.1064C14.1626 29.1064 16.6778 31.6326 16.6688 34.7251C16.6688 36.2264 16.0738 37.6288 15.01 38.6896C13.9463 39.7414 12.5399 40.3257 11.0434 40.3257ZM8.1225 34.7071C8.1225 36.3163 9.42969 37.6198 11.0344 37.6288C11.8097 37.6288 12.5399 37.3321 13.0988 36.7838C13.6488 36.2354 13.9553 35.5072 13.9553 34.7251C13.9553 33.1159 12.6481 31.8124 11.0434 31.8034C9.42969 31.8034 8.1225 33.1069 8.11348 34.7071H8.1225Z" fill="white"/>
<path d="M18.7514 27.6138C15.6502 27.6138 13.126 25.0967 13.126 22.0042C13.126 18.9117 15.6502 16.3945 18.7514 16.3945C21.8526 16.3945 24.3768 18.9117 24.3768 22.0042C24.3768 25.0967 21.8526 27.6138 18.7514 27.6138ZM18.7514 19.0915C17.1377 19.0915 15.8305 20.395 15.8305 22.0042C15.8305 23.6134 17.1377 24.9169 18.7514 24.9169C20.3651 24.9169 21.6723 23.6134 21.6723 22.0042C21.6723 20.395 20.3651 19.0915 18.7514 19.0915Z" fill="white"/>
<path d="M14.695 48.6503C13.9738 48.6503 13.3788 48.084 13.3428 47.3648C13.3428 47.194 13.3428 47.0232 13.3428 46.8434C13.4149 45.3511 14.064 43.9666 15.1728 42.9598C16.2817 41.9529 17.7151 41.4405 19.2206 41.5034C20.7171 41.5754 22.1054 42.2226 23.1151 43.3284C24.1248 44.4341 24.6477 45.8725 24.5756 47.3648C24.5395 48.111 23.9355 48.6683 23.1602 48.6503C22.412 48.6144 21.835 47.9851 21.8711 47.2389C21.9071 46.4658 21.6367 45.7197 21.1138 45.1443C20.5909 44.569 19.8697 44.2363 19.0944 44.2004C18.3101 44.1644 17.5709 44.4341 16.9939 44.9555C16.4169 45.4769 16.0834 46.1961 16.0473 46.9692C16.0473 47.0591 16.0473 47.149 16.0473 47.2389C16.0834 47.9851 15.5064 48.6144 14.7581 48.6503C14.7401 48.6503 14.7131 48.6503 14.695 48.6503Z" fill="white"/>
<path d="M80.6761 57.5503C80.3425 57.5503 79.9999 57.4244 79.7385 57.1727C79.1976 56.6603 79.1796 55.8063 79.7024 55.2669C82.0914 52.7857 84.0117 49.9269 85.4 46.7715C85.6975 46.0883 86.4998 45.7826 87.185 46.0793C87.8701 46.3759 88.1766 47.176 87.8791 47.8593C86.3646 51.3024 84.2731 54.4218 81.6587 57.1278C81.3973 57.4064 81.0367 57.5413 80.6851 57.5413L80.6761 57.5503Z" fill="white"/>
<path d="M39.3239 57.5503C38.9724 57.5503 38.6118 57.4154 38.3503 57.1368C35.7359 54.4218 33.6444 51.3024 32.1389 47.8593C31.8414 47.176 32.1479 46.3849 32.8331 46.0793C33.5182 45.7826 34.3115 46.0883 34.6181 46.7715C35.9974 49.9269 37.9176 52.7767 40.3066 55.2579C40.8204 55.7973 40.8114 56.6513 40.2705 57.1637C40.0091 57.4154 39.6665 57.5413 39.333 57.5413L39.3239 57.5503Z" fill="white"/>
<path d="M30.7058 36.0556C29.9575 36.0556 29.3535 35.4533 29.3535 34.7071C29.3535 30.1133 30.3091 25.6544 32.1752 21.4561C32.4818 20.7729 33.2751 20.4672 33.9602 20.7729C34.6454 21.0785 34.9519 21.8696 34.6454 22.5529C32.9325 26.4095 32.058 30.4909 32.058 34.7071C32.058 35.4533 31.454 36.0556 30.7058 36.0556Z" fill="white"/>
<path d="M37.1057 17.15C36.8263 17.15 36.5378 17.0601 36.2944 16.8803C35.6994 16.4308 35.5822 15.5858 36.0239 14.9924C41.6583 7.52188 50.6194 3.03596 59.9951 3C69.3798 3.04495 78.3408 7.53087 83.9752 14.9924C84.426 15.5858 84.3088 16.4308 83.7138 16.8803C83.1188 17.3298 82.2714 17.2129 81.8206 16.6196C76.682 9.82328 68.5233 5.7419 59.9951 5.70594C51.4758 5.7419 43.3171 9.82328 38.1875 16.6196C37.9261 16.9702 37.5204 17.159 37.1057 17.159V17.15Z" fill="white"/>
<path d="M89.2675 36.0556C88.5192 36.0556 87.9152 35.4533 87.9152 34.7071C87.9152 30.4909 87.0498 26.4005 85.3279 22.5529C85.0214 21.8696 85.3279 21.0785 86.013 20.7729C86.6982 20.4672 87.4915 20.7729 87.798 21.4561C89.6732 25.6544 90.6197 30.1133 90.6197 34.7071C90.6197 35.4533 90.0157 36.0556 89.2675 36.0556Z" fill="white"/>
<path d="M79.5401 90.6238C70.0562 90.6238 63.6826 81.4003 63.6014 81.2834C62.8351 80.2406 61.6361 78.955 60.4371 79.0449C59.184 79.1438 58.1112 80.6721 57.7687 81.3104C56.5516 84.2321 54.9289 86.093 52.9366 86.8481C51.3229 87.4594 49.5108 87.3246 47.6898 86.4436C46.004 85.5806 45.2016 83.6837 45.7425 81.9037L47.3382 76.4109C48.1676 73.6151 50.1779 71.3317 52.8554 70.163L58.9406 67.4661C61.6091 66.3064 64.1063 66.6749 66.6395 67.1874L82.5512 70.9451C83.2814 71.1159 83.7231 71.8441 83.5518 72.5723C83.3806 73.3004 82.6503 73.741 81.9201 73.5701L66.0535 69.8214C63.4572 69.291 61.7984 69.1651 60.0314 69.9293L53.9553 72.6262C52.008 73.4802 50.5476 75.1344 49.9436 77.1661L48.3389 82.6679C48.1766 83.2072 48.411 83.7736 48.8978 84.0253C50.0157 84.5647 51.0614 84.6726 51.972 84.322C53.2521 83.8365 54.37 82.4521 55.2895 80.2136C55.3075 80.1777 55.3166 80.1507 55.3346 80.1147C55.5149 79.7551 57.2097 76.5817 60.2118 76.339C62.168 76.1772 64.0612 77.3099 65.8191 79.7102C65.8732 79.7821 68.2893 83.3061 72.2108 85.6974C77.2683 88.7809 82.425 88.6281 87.5275 85.2389C88.1495 84.8254 88.9879 84.9962 89.4026 85.6165C89.8173 86.2368 89.6461 87.0729 89.024 87.4864C85.6343 89.7428 82.434 90.6059 79.5311 90.6059L79.5401 90.6238Z" fill="white"/>
<path d="M81.1901 98.8491C80.6132 98.8491 80.0813 98.4805 79.901 97.9142C79.6756 97.204 80.0633 96.4488 80.7754 96.2241L91.2239 92.9068C91.9361 92.6821 92.6934 93.0776 92.9188 93.7788C93.1442 94.4801 92.7475 95.2442 92.0443 95.4689L81.5958 98.7862C81.4606 98.8311 81.3254 98.8491 81.1811 98.8491H81.1901Z" fill="white"/>
<path d="M10.6374 103.299C10.4752 103.299 10.3039 103.273 10.1416 103.201L0.856044 99.5328C0.161881 99.2631 -0.180693 98.472 0.0987756 97.7797C0.378244 97.0875 1.16256 96.7459 1.85672 97.0246L9.89819 100.198L25.5033 62.189L0.847029 52.2283C0.152866 51.9496 -0.180693 51.1585 0.0987756 50.4753C0.378244 49.7831 1.17157 49.4504 1.85672 49.7291L27.7661 60.2023C28.0997 60.3371 28.3611 60.5978 28.5054 60.9304C28.6406 61.2631 28.6496 61.6316 28.5054 61.9643L11.8815 102.463C11.6651 102.985 11.1603 103.299 10.6284 103.299H10.6374Z" fill="white"/>
<path d="M27.2613 95.5323C27.099 95.5323 26.9368 95.5053 26.7745 95.4424L15.1811 90.9475C14.4869 90.6778 14.1443 89.8957 14.4148 89.2035C14.6852 88.5112 15.4695 88.1696 16.1637 88.4393L26.5401 92.4578L36.0059 70.4237L25.4042 65.9738C24.719 65.6861 24.3945 64.895 24.683 64.2117C24.9715 63.5285 25.7648 63.2049 26.4499 63.4926L38.3048 68.4729C38.6384 68.6078 38.8998 68.8775 39.035 69.2101C39.1702 69.5427 39.1702 69.9113 39.026 70.2439L28.5144 94.7232C28.298 95.2356 27.7932 95.5413 27.2703 95.5413L27.2613 95.5323Z" fill="white"/>
<path d="M109.362 105.861C108.83 105.861 108.325 105.547 108.109 105.025L91.4852 64.526C91.35 64.1934 91.35 63.8248 91.4852 63.4922C91.6204 63.1596 91.8909 62.8989 92.2244 62.764L118.134 52.2909C118.828 52.0122 119.612 52.3448 119.892 53.037C120.171 53.7293 119.838 54.5114 119.144 54.7901L94.4962 64.7508L110.101 102.769L118.143 99.5953C118.837 99.3167 119.621 99.6583 119.901 100.35C120.171 101.043 119.838 101.825 119.144 102.104L109.858 105.771C109.696 105.834 109.524 105.87 109.362 105.87V105.861Z" fill="white"/>
<path d="M92.7388 98.0944C92.216 98.0944 91.7111 97.7887 91.4947 97.2763L80.9921 72.788C80.8479 72.4554 80.8479 72.0868 80.9831 71.7542C81.1184 71.4216 81.3798 71.1519 81.7134 71.017L93.5592 66.0457C94.2443 65.758 95.0377 66.0816 95.3262 66.7648C95.6146 67.4481 95.2901 68.2392 94.605 68.5269L84.0122 72.9768L93.469 95.0199L103.845 90.9924C104.54 90.7227 105.324 91.0644 105.594 91.7566C105.865 92.4488 105.522 93.2309 104.828 93.5006L93.2347 98.0045C93.0724 98.0674 92.9101 98.0944 92.7478 98.0944H92.7388Z" fill="white"/>
<path d="M79.9455 106.428C79.3866 106.428 78.8277 106.339 78.2687 106.141C77.5205 105.88 76.8444 105.44 76.3034 104.864L63.9257 91.775C63.4119 91.2356 63.4389 90.3816 63.9798 89.8692C64.5207 89.3568 65.3771 89.3837 65.891 89.9231L78.2687 103.012C78.5121 103.273 78.8277 103.48 79.1702 103.597C80.3783 104.028 81.7035 103.39 82.1272 102.194C82.3345 101.592 82.2264 100.927 81.8207 100.432L72.8056 89.159C72.3368 88.5746 72.436 87.7296 73.022 87.2621C73.6079 86.7947 74.4554 86.8936 74.9241 87.4779L83.9392 98.7511C84.9219 99.9827 85.2014 101.601 84.6785 103.093C83.9483 105.152 82.01 106.428 79.9365 106.428H79.9455Z" fill="white"/>
<path d="M73.7348 110.887C71.9588 110.887 70.1918 110.195 68.8666 108.82L58.4632 97.9598C57.9493 97.4204 57.9674 96.5664 58.5083 96.0539C59.0492 95.5415 59.9056 95.5595 60.4195 96.0989L70.8229 106.959C72.3735 108.568 74.9428 108.613 76.5565 107.066C77.0163 106.626 77.3769 106.069 77.5842 105.457L77.6203 105.322C77.8366 104.612 78.5849 104.208 79.3061 104.414C80.0183 104.63 80.424 105.376 80.2166 106.096L80.1625 106.275C79.8019 107.336 79.2069 108.262 78.4407 108.999C77.1335 110.258 75.4386 110.878 73.7528 110.878L73.7348 110.887Z" fill="white"/>
<path d="M67.0541 114.887C66.9279 114.887 66.8017 114.887 66.6755 114.878C64.8454 114.743 63.2047 113.916 62.0237 112.559L53.4323 103.038C52.9365 102.481 52.9816 101.636 53.5315 101.133C54.0904 100.638 54.9378 100.683 55.4427 101.231L64.0521 110.77C64.7823 111.606 65.774 112.109 66.8558 112.19C68.4605 112.298 69.8578 111.372 71.0028 109.484C71.3904 108.846 72.2198 108.648 72.8599 109.035C73.4999 109.421 73.6983 110.248 73.3106 110.886C71.3183 114.15 68.8752 114.896 67.0451 114.896L67.0541 114.887Z" fill="white"/>
<path d="M54.9828 72.0329C54.8836 72.0329 54.7755 72.0239 54.6763 71.9969C47.2479 70.2709 37.9803 71.035 37.8902 71.044C37.1509 71.1069 36.4928 70.5586 36.4297 69.8124C36.3666 69.0662 36.9166 68.419 37.6558 68.356C38.0525 68.3201 47.4372 67.538 55.2893 69.3629C56.0196 69.5337 56.4703 70.2529 56.299 70.9811C56.1548 71.6014 55.5958 72.0239 54.9828 72.0239V72.0329Z" fill="white"/>
<path d="M60.4552 117C59.2202 117 57.9941 116.542 57.0475 115.616L53.0268 111.759C45.3459 104.234 37.043 97.2494 28.3164 90.9924C27.7124 90.5609 27.5772 89.7159 28.0099 89.1136C28.4426 88.5112 29.29 88.3764 29.894 88.8079C38.7288 95.1547 47.1399 102.221 54.9109 109.835L58.9317 113.692C59.7971 114.537 61.1764 114.519 62.0148 113.665C62.2943 113.386 62.4836 113.035 62.5738 112.649C62.5738 112.604 62.5738 112.559 62.5828 112.505C62.6729 111.768 63.3491 111.247 64.0883 111.327C64.7915 111.417 65.3054 112.029 65.2783 112.721C65.2783 112.82 65.2783 112.919 65.2603 113.018C65.08 113.97 64.6292 114.851 63.9531 115.544C62.9975 116.515 61.7354 117 60.4642 117H60.4552Z" fill="white"/>
<path d="M37.1057 102.158C36.1321 102.158 35.1494 101.835 34.3291 101.16C34.275 101.115 34.2028 101.061 34.1397 100.999C32.481 99.4883 32.3728 96.9172 33.8783 95.272L34.9331 94.1034C35.4289 93.546 36.2853 93.5011 36.8443 94.0045C37.4032 94.5079 37.4393 95.353 36.9434 95.9103L35.8797 97.088C35.3658 97.6454 35.4109 98.4994 35.9608 99.0028L36.0329 99.0568C36.7451 99.6411 37.7638 99.5602 38.3678 98.877L39.4136 97.7083C39.9094 97.1509 40.7658 97.106 41.3248 97.6004C41.8837 98.0949 41.9288 98.9489 41.433 99.5063L40.3962 100.666C39.5308 101.646 38.3318 102.149 37.1147 102.149L37.1057 102.158Z" fill="white"/>
<path d="M41.0728 108.28C39.9729 108.28 38.8731 107.893 37.9716 107.12C35.9973 105.43 35.7719 102.454 37.4577 100.476C37.4577 100.476 37.4667 100.458 37.4758 100.458L39.6484 97.9503C40.1352 97.3929 40.9916 97.33 41.5596 97.8154C42.1275 98.3009 42.1816 99.1549 41.6948 99.7213L39.5312 102.211C39.1616 102.634 38.9903 103.155 39.0354 103.695C39.0804 104.234 39.3238 104.729 39.7385 105.079C40.5769 105.807 41.83 105.735 42.5783 104.917L44.9042 102.382C45.409 101.834 46.2655 101.798 46.8154 102.301C47.3653 102.805 47.4014 103.659 46.8965 104.207L44.5706 106.742C43.6331 107.767 42.3529 108.28 41.0818 108.28H41.0728Z" fill="white"/>
<path d="M46.8691 111.894C45.7152 111.894 44.5612 111.48 43.6597 110.644C41.7665 108.891 41.6493 105.916 43.3893 104.019L44.8948 102.383C45.3996 101.834 46.2561 101.798 46.806 102.302C47.3559 102.805 47.392 103.659 46.8871 104.207L45.3816 105.844C44.6424 106.653 44.6874 107.92 45.4988 108.675C46.3011 109.422 47.5813 109.377 48.3385 108.586L49.9072 106.922C50.421 106.383 51.2775 106.356 51.8184 106.859C52.3593 107.372 52.3863 108.226 51.8815 108.765L50.3129 110.428C49.3843 111.399 48.1312 111.894 46.8781 111.894H46.8691Z" fill="white"/>
<path d="M52.3783 115.4C51.2424 115.4 50.1065 114.987 49.232 114.141C47.42 112.424 47.3479 109.557 49.0698 107.741L49.6648 107.111C50.1786 106.572 51.0351 106.545 51.576 107.057C52.1169 107.57 52.1439 108.424 51.63 108.963L51.0351 109.593C50.3409 110.33 50.3679 111.489 51.0982 112.182C51.8284 112.883 53.0003 112.865 53.7035 112.137L54.5239 111.292C55.0468 110.752 55.9032 110.743 56.4351 111.265C56.976 111.786 56.985 112.64 56.4621 113.171L55.6418 114.016C54.7493 114.933 53.5593 115.391 52.3693 115.391L52.3783 115.4Z" fill="white"/>
</g>
<defs>
<clipPath id="clip0_651_9313">
<rect width="120" height="114" fill="white" transform="translate(0 3)"/>
</clipPath>
</defs>
</svg>
