<svg width="120" height="120" viewBox="0 0 120 120" fill="none" xmlns="http://www.w3.org/2000/svg">
<g clip-path="url(#clip0_497_2163)">
<path d="M59.9996 76.9861C59.792 76.9861 59.5845 76.9306 59.4008 76.8275L22.0558 55.408C21.6885 55.1939 21.457 54.8053 21.457 54.3771C21.457 53.9489 21.6885 53.5603 22.0558 53.3462L38.3813 43.9806C38.9561 43.6555 39.6905 43.8458 40.0178 44.4168C40.3451 44.9877 40.1535 45.7094 39.5787 46.0425L25.0494 54.3771L59.9996 74.4247L94.9497 54.3771L80.4284 46.0425C79.8536 45.7173 79.662 44.9877 79.9893 44.4168C80.3166 43.8458 81.0511 43.6555 81.6259 43.9806L97.9434 53.3462C98.3106 53.5603 98.5421 53.9489 98.5421 54.3771C98.5421 54.8053 98.3106 55.1939 97.9434 55.408L60.5983 76.8275C60.4147 76.9306 60.2071 76.9861 59.9996 76.9861Z" fill="white"/>
<path d="M59.9996 120L21.457 97.8906V76.8993C21.457 76.2411 21.9919 75.7097 22.6545 75.7097C23.3171 75.7097 23.852 76.2411 23.852 76.8993V96.5107L59.9996 117.24L96.1472 96.5107V77.4544C96.1472 76.7962 96.6821 76.2649 97.3447 76.2649C98.0073 76.2649 98.5421 76.7962 98.5421 77.4544V97.8906L59.9996 120Z" fill="white"/>
<path d="M60.0002 105.432C59.3376 105.432 58.8027 104.901 58.8027 104.243V75.789C58.8027 75.1308 59.3376 74.5995 60.0002 74.5995C60.6628 74.5995 61.1977 75.1308 61.1977 75.789V104.243C61.1977 104.901 60.6628 105.432 60.0002 105.432Z" fill="white"/>
<path d="M74.4574 85.2738C74.2498 85.2738 74.0423 85.2183 73.8586 85.1152L59.4012 76.8282C58.8264 76.503 58.6348 75.7735 58.9621 75.2025C59.2974 74.6315 60.0239 74.4412 60.5987 74.7663L74.4574 82.7124L109.408 62.6727L96.7463 55.4087C96.1715 55.0835 95.9799 54.3539 96.3072 53.783C96.6345 53.212 97.369 53.0217 97.9437 53.3468L112.401 61.6418C112.768 61.8559 113 62.2445 113 62.6727C113 63.101 112.768 63.4896 112.401 63.7037L75.0561 85.1152C74.8725 85.2183 74.6649 85.2738 74.4574 85.2738Z" fill="white"/>
<path d="M45.5346 85.2736C45.327 85.2736 45.1194 85.2181 44.9358 85.115L7.59873 63.7034C7.23151 63.4893 7 63.1007 7 62.6725C7 62.2442 7.23151 61.8557 7.59873 61.6416L22.0562 53.3465C22.631 53.0135 23.3654 53.2117 23.6927 53.7827C24.02 54.3537 23.8284 55.0753 23.2537 55.4084L10.5924 62.6725L45.5346 82.7121L59.4013 74.7661C59.976 74.4409 60.7105 74.6312 61.0378 75.2022C61.3651 75.7732 61.1735 76.5028 60.5987 76.8279L46.1333 85.115C45.9497 85.2181 45.7421 85.2736 45.5346 85.2736Z" fill="white"/>
<path d="M60.0001 42.2287C51.1788 42.2287 44.002 34.8298 44.002 25.7418C44.002 16.6538 51.1788 9.25488 60.0001 9.25488C68.8215 9.25488 75.9983 16.6538 75.9983 25.7418C75.9983 34.8298 68.8215 42.2287 60.0001 42.2287ZM60.0001 11.6339C52.496 11.6339 46.3969 17.9623 46.3969 25.7418C46.3969 33.5213 52.496 39.8496 60.0001 39.8496C67.5043 39.8496 73.6034 33.5213 73.6034 25.7418C73.6034 17.9623 67.5043 11.6339 60.0001 11.6339Z" fill="white"/>
<path d="M59.9997 15.2101C58.9299 15.2101 57.8682 15.3925 56.8623 15.7494C62.4186 17.8985 65.1727 24.1158 63.0173 29.6352C61.9236 32.4425 59.6883 34.655 56.8623 35.7494C57.8682 36.0983 58.9299 36.2807 59.9997 36.2887C65.524 36.2887 70.0105 31.5305 70.0105 25.7494C70.0105 19.9683 65.524 15.2101 59.9997 15.2101Z" fill="#69F5DB"/>
<path d="M96.2993 26.931H83.7658C83.1032 26.931 82.5684 26.3997 82.5684 25.7415C82.5684 25.0833 83.1032 24.5519 83.7658 24.5519H96.2993C96.9619 24.5519 97.4968 25.0833 97.4968 25.7415C97.4968 26.3997 96.9619 26.931 96.2993 26.931Z" fill="white"/>
<path d="M90.0323 16.6535H81.5861C80.9235 16.6535 80.3887 16.1222 80.3887 15.4639C80.3887 14.8057 80.9235 14.2744 81.5861 14.2744H90.0323C90.6949 14.2744 91.2298 14.8057 91.2298 15.4639C91.2298 16.1222 90.6949 16.6535 90.0323 16.6535Z" fill="white"/>
<path d="M89.857 37.1213H81.6184C80.9558 37.1213 80.4209 36.59 80.4209 35.9318C80.4209 35.2736 80.9558 34.7423 81.6184 34.7423H89.857C90.5196 34.7423 91.0544 35.2736 91.0544 35.9318C91.0544 36.59 90.5196 37.1213 89.857 37.1213Z" fill="white"/>
<path d="M99.7637 30.3807C97.1931 30.3807 95.1016 28.3029 95.1016 25.7494C95.1016 23.1959 97.1931 21.1182 99.7637 21.1182C102.334 21.1182 104.426 23.1959 104.426 25.7494C104.426 28.3029 102.334 30.3807 99.7637 30.3807ZM99.7637 23.4972C98.5104 23.4972 97.4965 24.5044 97.4965 25.7494C97.4965 26.9945 98.5104 28.0016 99.7637 28.0016C101.017 28.0016 102.031 26.9945 102.031 25.7494C102.031 24.5044 101.017 23.4972 99.7637 23.4972Z" fill="white"/>
<path d="M93.4973 20.119C90.9267 20.119 88.8351 18.0412 88.8271 15.4877C88.8271 12.9263 90.9107 10.8406 93.4893 10.8406H93.4973C94.7426 10.8406 95.9162 11.3164 96.7943 12.1887C97.6804 13.0611 98.1674 14.2268 98.1674 15.4639C98.1674 18.0333 96.0838 20.119 93.5053 20.119H93.4973ZM93.5053 13.2197C92.2439 13.2197 91.2221 14.2427 91.2301 15.4877C91.2301 16.7328 92.2519 17.7399 93.5053 17.7399C94.7586 17.7399 95.7805 16.7169 95.7725 15.4719C95.7725 14.8612 95.533 14.2982 95.1019 13.8699C94.6708 13.4496 94.104 13.2117 93.5053 13.2117V13.2197Z" fill="white"/>
<path d="M93.3215 40.5789C92.0761 40.5789 90.9106 40.1031 90.0245 39.2308C89.1383 38.3584 88.6514 37.1927 88.6514 35.9556C88.6514 33.3941 90.735 31.3085 93.3135 31.3085C95.9001 31.3085 97.9916 33.3862 97.9916 35.9397C97.9916 37.1768 97.5126 38.3426 96.6345 39.2228C95.7564 40.1031 94.5828 40.5868 93.3375 40.5868H93.3295L93.3215 40.5789ZM93.3295 33.6796C92.0602 33.6796 91.0463 34.7026 91.0463 35.9476C91.0463 36.5503 91.2858 37.1213 91.7169 37.5416C92.148 37.9699 92.7148 38.1998 93.3215 38.1998C93.9282 38.1998 94.503 37.9619 94.9261 37.5337C95.3492 37.1055 95.5887 36.5345 95.5887 35.9318C95.5887 34.6867 94.5748 33.6796 93.3215 33.6796H93.3295Z" fill="white"/>
<path d="M36.2339 26.931H23.7004C23.0378 26.931 22.5029 26.3997 22.5029 25.7415C22.5029 25.0833 23.0378 24.5519 23.7004 24.5519H36.2339C36.8965 24.5519 37.4314 25.0833 37.4314 25.7415C37.4314 26.3997 36.8965 26.931 36.2339 26.931Z" fill="white"/>
<path d="M38.4132 16.6534H29.967C29.3044 16.6534 28.7695 16.1221 28.7695 15.4639C28.7695 14.8057 29.3044 14.2744 29.967 14.2744H38.4132C39.0758 14.2744 39.6106 14.8057 39.6106 15.4639C39.6106 16.1221 39.0758 16.6534 38.4132 16.6534Z" fill="white"/>
<path d="M38.3814 37.1213H30.1428C29.4802 37.1213 28.9453 36.59 28.9453 35.9318C28.9453 35.2736 29.4802 34.7422 30.1428 34.7422H38.3814C39.044 34.7422 39.5788 35.2736 39.5788 35.9318C39.5788 36.59 39.044 37.1213 38.3814 37.1213Z" fill="white"/>
<path d="M20.2364 30.3807C17.6658 30.3807 15.5742 28.3029 15.5742 25.7494C15.5742 23.1959 17.6658 21.1182 20.2364 21.1182C22.8069 21.1182 24.8985 23.1959 24.8985 25.7494C24.8985 26.9865 24.4115 28.1523 23.5334 29.0246C22.6553 29.8969 21.4817 30.3807 20.2364 30.3807ZM20.2364 23.4972C18.983 23.4972 17.9692 24.5044 17.9692 25.7494C17.9692 26.9945 18.983 28.0016 20.2364 28.0016C20.8431 28.0016 21.4099 27.7637 21.841 27.3434C22.2721 26.9231 22.5036 26.3521 22.5036 25.7494C22.5036 24.5044 21.4897 23.4972 20.2364 23.4972Z" fill="white"/>
<path d="M26.503 20.1031C23.9324 20.1031 21.8408 18.0254 21.8408 15.4719C21.8408 12.9183 23.9324 10.8406 26.503 10.8406C29.0735 10.8406 31.1651 12.9183 31.1651 15.4719C31.1651 18.0254 29.0735 20.1031 26.503 20.1031ZM26.503 13.2197C25.2496 13.2197 24.2358 14.2268 24.2358 15.4719C24.2358 16.7169 25.2496 17.724 26.503 17.724C27.7563 17.724 28.7702 16.7169 28.7702 15.4719C28.7702 14.2268 27.7563 13.2197 26.503 13.2197Z" fill="white"/>
<path d="M26.6788 40.5789H26.6709C25.4255 40.5789 24.252 40.0872 23.3738 39.2149C22.4957 38.3346 22.0087 37.1689 22.0167 35.9318C22.0167 33.3703 24.1163 31.3005 26.6788 31.3005H26.6868C27.9402 31.3005 29.1137 31.7922 29.9918 32.6645C30.87 33.5448 31.357 34.7105 31.349 35.9476C31.349 37.1848 30.854 38.3505 29.9759 39.2228C29.0977 40.0951 27.9242 40.571 26.6788 40.571V40.5789ZM26.6788 33.6796C26.0641 33.6796 25.4973 33.9096 25.0742 34.3378C24.6431 34.766 24.4116 35.3291 24.4037 35.9318C24.4037 36.5424 24.6352 37.1134 25.0663 37.5416C25.4973 37.9698 26.0641 38.2078 26.6709 38.2078C27.9242 38.2078 28.9461 37.2006 28.9461 35.9556C28.9461 35.3529 28.7145 34.7819 28.2835 34.3537C27.8524 33.9254 27.2856 33.6875 26.6788 33.6875V33.6796Z" fill="white"/>
<path d="M60.0082 51.4988C50.0613 51.4036 41.1521 45.4798 37.2723 36.4155C37.0168 35.8128 37.2962 35.115 37.903 34.8533C38.5097 34.5995 39.2122 34.8771 39.4756 35.4798C42.9802 43.6796 51.0432 49.0325 60.0082 49.1197C68.9573 49.0325 77.0123 43.6796 80.5249 35.4798C80.7803 34.8771 81.4829 34.5916 82.0976 34.8533C82.7043 35.1071 82.9917 35.8049 82.7282 36.4155C78.8484 45.4877 69.9313 51.4116 60.0082 51.4988Z" fill="white"/>
<path d="M36.2348 26.9703C35.5722 26.9703 35.0374 26.4389 35.0374 25.7887C35.0214 22.0456 35.7878 18.4136 37.3125 14.9956C37.576 14.3929 38.2865 14.1233 38.8932 14.385C39.4999 14.6467 39.7714 15.3525 39.5079 15.9552C38.1188 19.0718 37.4243 22.3707 37.4403 25.7807C37.4403 26.4389 36.9054 26.9703 36.2508 26.9782L36.2348 26.9703Z" fill="white"/>
<path d="M78.5607 11.6416C78.1935 11.6416 77.8423 11.475 77.6028 11.1657C73.4515 5.68596 66.8575 2.40285 59.96 2.37906C53.0706 2.40285 46.4765 5.69389 42.3253 11.1657C41.9261 11.6891 41.1757 11.7922 40.6488 11.4036C40.122 11.0071 40.0182 10.2617 40.4094 9.7383C45.0156 3.67169 52.3202 0.0317209 59.96 0C67.6159 0.0317209 74.9204 3.67169 79.5107 9.7383C79.9099 10.2617 79.8061 11.0071 79.2712 11.4036C79.0557 11.5623 78.8002 11.6416 78.5527 11.6416H78.5607Z" fill="white"/>
<path d="M83.7651 26.9393C83.1025 26.9393 82.5676 26.4001 82.5756 25.7419C82.5916 22.3398 81.8891 19.0329 80.508 15.9163C80.2445 15.3137 80.508 14.6158 81.1227 14.3462C81.7294 14.0845 82.4319 14.3462 82.7033 14.9568C84.2281 18.3747 84.9945 22.0068 84.9785 25.7498C84.9785 26.408 84.4437 26.9314 83.7811 26.9314L83.7651 26.9393Z" fill="white"/>
</g>
<defs>
<clipPath id="clip0_497_2163">
<rect width="106" height="120" fill="white" transform="translate(7)"/>
</clipPath>
</defs>
</svg>
