<svg width="15" height="16" viewBox="0 0 15 16" fill="none" xmlns="http://www.w3.org/2000/svg">
<path fill-rule="evenodd" clip-rule="evenodd" d="M0 8C0 3.86 3.3525 0.5 7.4925 0.5C11.64 0.5 15 3.86 15 8C15 12.14 11.64 15.5 7.4925 15.5C3.3525 15.5 0 12.14 0 8ZM10.4775 5.00001H12.69C11.97 3.76251 10.8225 2.80251 9.44254 2.33001C9.89254 3.16251 10.2375 4.06251 10.4775 5.00001ZM7.50004 2.02999C8.12254 2.92999 8.61004 3.92749 8.93254 4.99999H6.06754C6.39004 3.92749 6.87754 2.92999 7.50004 2.02999ZM1.5 8C1.5 8.5175 1.575 9.02 1.695 9.5H4.23C4.17 9.005 4.125 8.51 4.125 8C4.125 7.49 4.17 6.995 4.23 6.5H1.695C1.575 6.98 1.5 7.4825 1.5 8ZM2.30998 11H4.52248C4.76248 11.9375 5.10748 12.8375 5.55748 13.67C4.17748 13.1975 3.02998 12.245 2.30998 11ZM2.30998 5.00001H4.52248C4.76248 4.06251 5.10748 3.16251 5.55748 2.33001C4.17748 2.80251 3.02998 3.75501 2.30998 5.00001ZM7.50004 13.97C6.87754 13.07 6.39004 12.0725 6.06754 11H8.93254C8.61004 12.0725 8.12254 13.07 7.50004 13.97ZM5.745 9.5H9.255C9.3225 9.005 9.375 8.51 9.375 8C9.375 7.49 9.3225 6.9875 9.255 6.5H5.745C5.6775 6.9875 5.625 7.49 5.625 8C5.625 8.51 5.6775 9.005 5.745 9.5ZM9.44254 13.67C9.89254 12.8375 10.2375 11.9375 10.4775 11H12.69C11.97 12.2375 10.8225 13.1975 9.44254 13.67ZM10.8749 8C10.8749 8.51 10.8299 9.005 10.7699 9.5H13.3049C13.4249 9.02 13.4999 8.5175 13.4999 8C13.4999 7.4825 13.4249 6.98 13.3049 6.5H10.7699C10.8299 6.995 10.8749 7.49 10.8749 8Z" fill="white"/>
</svg>
