<svg width="120" height="120" viewBox="0 0 120 120" fill="none" xmlns="http://www.w3.org/2000/svg">
<g clip-path="url(#clip0_497_2221)">
<path d="M115.899 119.758C115.227 119.758 114.685 119.219 114.685 118.55V100.769L107.365 94.4393C106.863 94.0044 106.807 93.2394 107.244 92.732C107.681 92.2327 108.45 92.1764 108.96 92.6112L116.701 99.3034C116.968 99.5289 117.122 99.8671 117.122 100.213V118.542C117.122 119.211 116.579 119.75 115.907 119.75L115.899 119.758Z" fill="white"/>
<path d="M78.6303 101.43C78.2902 101.43 77.9501 101.293 77.7153 101.011C77.2781 100.504 77.3267 99.7466 77.8368 99.3037L85.5771 92.6115C86.0872 92.1686 86.8483 92.225 87.2936 92.7323C87.7308 93.2397 87.6823 93.9967 87.1722 94.4396L79.4318 101.132C79.2051 101.333 78.9217 101.43 78.6384 101.43H78.6303Z" fill="white"/>
<path d="M4.10121 119.758C3.42919 119.758 2.88672 119.219 2.88672 118.55V100.221C2.88672 99.8749 3.04055 99.5367 3.30774 99.3112L11.0481 92.619C11.5501 92.1841 12.3193 92.2325 12.7646 92.7398C13.2018 93.2472 13.1532 94.0042 12.6431 94.4471L5.3238 100.777V118.558C5.3238 119.227 4.78133 119.766 4.10931 119.766L4.10121 119.758Z" fill="white"/>
<path d="M41.3618 101.429C41.0784 101.429 40.7951 101.333 40.5684 101.131L32.828 94.4393C32.3179 94.0044 32.2693 93.2394 32.7066 92.732C33.1438 92.2327 33.9129 92.1764 34.423 92.6112L42.1634 99.3034C42.6735 99.7383 42.7221 100.503 42.2848 101.011C42.0419 101.284 41.71 101.429 41.3699 101.429H41.3618Z" fill="white"/>
<path d="M41.3617 101.429C41.0216 101.429 40.6816 101.293 40.4468 101.011C40.0096 100.503 40.0581 99.7463 40.5682 99.3034L48.3086 92.6112C48.8106 92.1764 49.5798 92.2247 50.0251 92.732C50.4623 93.2394 50.4137 93.9964 49.9036 94.4393L42.1633 101.131C41.9366 101.333 41.6532 101.429 41.3698 101.429H41.3617Z" fill="white"/>
<path d="M78.6306 119.758C77.9586 119.758 77.4161 119.219 77.4161 118.55V100.769L70.0968 94.4393C69.5948 94.0044 69.5381 93.2394 69.9753 92.732C70.4125 92.2327 71.1817 92.1764 71.6918 92.6112L79.4321 99.3034C79.6993 99.5289 79.8532 99.8671 79.8532 100.213V118.542C79.8532 119.211 79.3107 119.75 78.6387 119.75L78.6306 119.758Z" fill="white"/>
<path d="M41.362 120C40.6899 120 40.1475 119.46 40.1475 118.792V100.221C40.1475 99.553 40.6899 99.0135 41.362 99.0135C42.034 99.0135 42.5764 99.553 42.5764 100.221V118.792C42.5764 119.46 42.034 120 41.362 120Z" fill="white"/>
<path d="M22.6182 94.2702C15.8818 94.2702 10.4004 87.876 10.4004 80.008C10.4004 72.1401 15.8818 65.7459 22.6182 65.7459C29.3546 65.7459 34.836 72.1401 34.836 80.008C34.836 87.876 29.3546 94.2702 22.6182 94.2702ZM22.6182 68.1619C17.2177 68.1619 12.8294 73.4769 12.8294 80.008C12.8294 86.5391 17.2177 91.8542 22.6182 91.8542C28.0186 91.8542 32.407 86.5391 32.407 80.008C32.407 73.4769 28.0186 68.1619 22.6182 68.1619Z" fill="white"/>
<path d="M60 94.2702C53.2636 94.2702 47.7822 87.876 47.7822 80.008C47.7822 72.1401 53.2636 65.7459 60 65.7459C66.7364 65.7459 72.2178 72.1401 72.2178 80.008C72.2178 87.876 66.7364 94.2702 60 94.2702ZM60 68.1619C54.5996 68.1619 50.2112 73.4769 50.2112 80.008C50.2112 86.5391 54.5996 91.8542 60 91.8542C65.4005 91.8542 69.7888 86.5391 69.7888 80.008C69.7888 73.4769 65.4005 68.1619 60 68.1619Z" fill="white"/>
<path d="M97.374 94.2702C90.6377 94.2702 85.1562 87.876 85.1562 80.008C85.1562 72.1401 90.6377 65.7459 97.374 65.7459C104.11 65.7459 109.592 72.1401 109.592 80.008C109.592 87.876 104.11 94.2702 97.374 94.2702ZM97.374 68.1619C91.9736 68.1619 87.5852 73.4769 87.5852 80.008C87.5852 86.5391 91.9736 91.8542 97.374 91.8542C102.774 91.8542 107.163 86.5391 107.163 80.008C107.163 73.4769 102.774 68.1619 97.374 68.1619Z" fill="white"/>
<path d="M60.0007 55.7595C48.4225 55.7595 38.998 46.0313 38.998 34.0805C38.998 22.1296 48.4225 12.4014 60.0007 12.4014C71.5788 12.4014 81.0033 22.1296 81.0033 34.0805C81.0033 46.0313 71.5788 55.7595 60.0007 55.7595ZM60.0007 14.8173C49.7584 14.8173 41.427 23.4583 41.427 34.0805C41.427 44.7026 49.7584 53.3436 60.0007 53.3436C70.2429 53.3436 78.5743 44.7026 78.5743 34.0805C78.5743 23.4583 70.2429 14.8173 60.0007 14.8173Z" fill="white"/>
<path d="M60.0005 18.4414C58.3407 18.4414 56.6971 18.7394 55.1426 19.3031C63.3525 22.5485 67.3604 31.7935 64.0974 39.9594C62.47 44.0263 59.2314 47.2556 55.1426 48.8662C56.6971 49.4299 58.3407 49.7279 60.0005 49.7279C68.2348 49.7279 74.9307 42.7056 74.9307 34.0806C74.9307 25.4557 68.2348 18.4414 60.0005 18.4414Z" fill="#69F5DB"/>
<path d="M108.515 35.2889H91.7711C91.0991 35.2889 90.5566 34.7493 90.5566 34.0809C90.5566 33.4125 91.0991 32.873 91.7711 32.873H108.515C109.187 32.873 109.729 33.4125 109.729 34.0809C109.729 34.7493 109.187 35.2889 108.515 35.2889Z" fill="white"/>
<path d="M100.143 21.5341H88.8561C88.1841 21.5341 87.6416 20.9946 87.6416 20.3262C87.6416 19.6578 88.1841 19.1182 88.8561 19.1182H100.143C100.815 19.1182 101.357 19.6578 101.357 20.3262C101.357 20.9946 100.815 21.5341 100.143 21.5341Z" fill="white"/>
<path d="M99.9085 48.9229H88.8971C88.2251 48.9229 87.6826 48.3833 87.6826 47.7149C87.6826 47.0465 88.2251 46.507 88.8971 46.507H99.9085C100.581 46.507 101.123 47.0465 101.123 47.7149C101.123 48.3833 100.581 48.9229 99.9085 48.9229Z" fill="white"/>
<path d="M113.154 39.8953C109.932 39.8953 107.309 37.2861 107.309 34.0809C107.309 30.8758 109.932 28.2666 113.154 28.2666C116.377 28.2666 119 30.8758 119 34.0809C119 37.2861 116.377 39.8953 113.154 39.8953ZM113.154 30.6825C111.268 30.6825 109.738 32.2046 109.738 34.0809C109.738 35.9573 111.268 37.4794 113.154 37.4794C115.041 37.4794 116.571 35.9573 116.571 34.0809C116.571 32.2046 115.041 30.6825 113.154 30.6825Z" fill="white"/>
<path d="M104.774 26.1405C101.552 26.1405 98.9287 23.5313 98.9287 20.3262C98.9287 17.121 101.552 14.5118 104.774 14.5118C107.997 14.5118 110.62 17.121 110.62 20.3262C110.62 23.5313 107.997 26.1405 104.774 26.1405ZM104.774 16.9277C102.888 16.9277 101.358 18.4498 101.358 20.3262C101.358 22.2025 102.888 23.7246 104.774 23.7246C106.661 23.7246 108.191 22.2025 108.191 20.3262C108.191 18.4498 106.661 16.9277 104.774 16.9277Z" fill="white"/>
<path d="M104.548 53.5293C101.325 53.5293 98.7021 50.9201 98.7021 47.7149C98.7021 44.5098 101.325 41.9005 104.548 41.9005C107.77 41.9005 110.394 44.5098 110.394 47.7149C110.394 50.9201 107.77 53.5293 104.548 53.5293ZM104.548 44.3165C102.661 44.3165 101.131 45.8385 101.131 47.7149C101.131 49.5913 102.661 51.1133 104.548 51.1133C106.434 51.1133 107.965 49.5913 107.965 47.7149C107.965 45.8385 106.434 44.3165 104.548 44.3165Z" fill="white"/>
<path d="M28.2291 35.2889H11.4772C10.8052 35.2889 10.2627 34.7493 10.2627 34.0809C10.2627 33.4125 10.8052 32.873 11.4772 32.873H28.2291C28.9011 32.873 29.4436 33.4125 29.4436 34.0809C29.4436 34.7493 28.9011 35.2889 28.2291 35.2889Z" fill="white"/>
<path d="M31.1437 21.5341H19.8571C19.1851 21.5341 18.6426 20.9946 18.6426 20.3262C18.6426 19.6578 19.1851 19.1182 19.8571 19.1182H31.1437C31.8158 19.1182 32.3582 19.6578 32.3582 20.3262C32.3582 20.9946 31.8158 21.5341 31.1437 21.5341Z" fill="white"/>
<path d="M31.1031 48.9229H20.0836C19.4116 48.9229 18.8691 48.3833 18.8691 47.7149C18.8691 47.0465 19.4116 46.507 20.0836 46.507H31.1031C31.7751 46.507 32.3176 47.0465 32.3176 47.7149C32.3176 48.3833 31.7751 48.9229 31.1031 48.9229Z" fill="white"/>
<path d="M6.84575 39.8953C3.6233 39.8953 1 37.2861 1 34.0809C1 30.8758 3.6233 28.2666 6.84575 28.2666C10.0682 28.2666 12.6915 30.8758 12.6915 34.0809C12.6915 37.2861 10.0682 39.8953 6.84575 39.8953ZM6.84575 30.6825C4.95924 30.6825 3.42898 32.2046 3.42898 34.0809C3.42898 35.9573 4.95924 37.4794 6.84575 37.4794C8.73226 37.4794 10.2625 35.9573 10.2625 34.0809C10.2625 32.2046 8.73226 30.6825 6.84575 30.6825Z" fill="white"/>
<path d="M15.2178 26.1405C11.9954 26.1405 9.37207 23.5313 9.37207 20.3262C9.37207 17.121 11.9954 14.5118 15.2178 14.5118C18.4403 14.5118 21.0636 17.121 21.0636 20.3262C21.0636 23.5313 18.4403 26.1405 15.2178 26.1405ZM15.2178 16.9277C13.3313 16.9277 11.8011 18.4498 11.8011 20.3262C11.8011 22.2025 13.3313 23.7246 15.2178 23.7246C17.1043 23.7246 18.6346 22.2025 18.6346 20.3262C18.6346 18.4498 17.1043 16.9277 15.2178 16.9277Z" fill="white"/>
<path d="M15.4522 53.5293C12.2297 53.5293 9.60645 50.9201 9.60645 47.7149C9.60645 44.5098 12.2297 41.9005 15.4522 41.9005C18.6746 41.9005 21.2979 44.5098 21.2979 47.7149C21.2979 50.9201 18.6746 53.5293 15.4522 53.5293ZM15.4522 44.3165C13.5657 44.3165 12.0354 45.8385 12.0354 47.7149C12.0354 49.5913 13.5657 51.1133 15.4522 51.1133C17.3387 51.1133 18.869 49.5913 18.869 47.7149C18.869 45.8385 17.3387 44.3165 15.4522 44.3165Z" fill="white"/>
<path d="M69.2302 66.7522C68.7201 66.7522 68.2424 66.4301 68.0724 65.9147C67.8619 65.2785 68.2181 64.6021 68.8497 64.3927C77.343 61.6546 84.2413 55.4054 87.7876 47.2556C88.0548 46.6435 88.7673 46.3617 89.3827 46.6274C89.998 46.8932 90.2814 47.6019 90.0142 48.2139C86.2007 56.9999 78.7599 63.7404 69.6026 66.6878C69.4812 66.7281 69.3516 66.7442 69.2302 66.7442V66.7522Z" fill="white"/>
<path d="M50.316 66.608C50.1864 66.608 50.0569 66.5839 49.9273 66.5436C40.9968 63.5156 33.726 56.8315 29.9854 48.2227C29.7182 47.6106 30.0016 46.902 30.6169 46.6362C31.2323 46.3705 31.9448 46.6523 32.212 47.2644C35.6854 55.2531 42.4299 61.454 50.7127 64.2565C51.3442 64.4739 51.6843 65.1585 51.4738 65.7866C51.3038 66.2859 50.8261 66.608 50.3241 66.608H50.316Z" fill="white"/>
<path d="M28.2291 35.2889C27.5571 35.2889 27.0146 34.7493 27.0146 34.0809C27.0146 29.1443 28.0186 24.3527 30.0266 19.8349C30.2938 19.2229 31.0144 18.9491 31.6297 19.2148C32.2451 19.4806 32.5203 20.1973 32.2532 20.8093C30.3828 25.0131 29.4436 29.4745 29.4517 34.0729C29.4517 34.7413 28.9093 35.2808 28.2372 35.2808L28.2291 35.2889Z" fill="white"/>
<path d="M84.8566 14.8178C84.4841 14.8178 84.1198 14.6487 83.885 14.3346C78.2659 6.9096 69.3354 2.44816 59.9919 2.41595C50.6565 2.45621 41.7259 6.9096 36.1069 14.3346C35.702 14.8661 34.941 14.9708 34.4066 14.5762C33.8722 14.1816 33.767 13.4165 34.1637 12.885C40.2442 4.85605 49.8954 0.0402658 59.9919 0C70.0964 0.0402658 79.7557 4.85605 85.8201 12.885C86.2249 13.4165 86.1115 14.1735 85.5772 14.5762C85.3586 14.7373 85.0995 14.8178 84.8485 14.8178H84.8566Z" fill="white"/>
<path d="M91.7714 35.2889C91.0994 35.2889 90.5569 34.7493 90.5569 34.0809C90.5569 29.4826 89.6177 25.0211 87.7555 20.8174C87.4883 20.2053 87.7555 19.4967 88.3789 19.2229C88.9943 18.9571 89.7068 19.2229 89.9821 19.8429C91.99 24.3608 93.0021 29.1524 92.994 34.089C92.994 34.7574 92.4515 35.2969 91.7795 35.2969L91.7714 35.2889Z" fill="white"/>
</g>
<defs>
<clipPath id="clip0_497_2221">
<rect width="118" height="120" fill="white" transform="translate(1)"/>
</clipPath>
</defs>
</svg>
