<svg width="120" height="120" viewBox="0 0 120 120" fill="none" xmlns="http://www.w3.org/2000/svg">
<g clip-path="url(#clip0_651_9409)">
<path d="M52.0381 64.4497C51.3268 64.4497 50.7526 63.8769 50.7526 63.1673V27.8863L39.5687 26.527C38.926 26.4501 38.4375 25.903 38.4375 25.2533V17.0293C38.4375 16.3197 39.0117 15.747 39.723 15.747H45.1992V10.857H32.9613C32.25 10.857 31.6758 10.2842 31.6758 9.5747V1.28233C31.6758 0.572772 32.25 0 32.9613 0H67.5583C68.2696 0 68.8438 0.572772 68.8438 1.28233V63.0904C68.8438 63.8 68.2696 64.3727 67.5583 64.3727C66.847 64.3727 66.2728 63.8 66.2728 63.0904V2.56465H34.2468V8.29237H46.4847C47.196 8.29237 47.7702 8.86514 47.7702 9.5747V17.0293C47.7702 17.7388 47.196 18.3116 46.4847 18.3116H41.0085V24.1163L52.1923 25.4755C52.8351 25.5525 53.3236 26.0996 53.3236 26.7493V63.1673C53.3236 63.8769 52.7494 64.4497 52.0381 64.4497Z" fill="white"/>
<path d="M59.9998 109.297C49.9044 109.297 41.6943 100.799 41.6943 90.3524C41.6943 79.9057 49.9044 71.4082 59.9998 71.4082C70.0953 71.4082 78.3053 79.9057 78.3053 90.3524C78.3053 100.799 70.0953 109.297 59.9998 109.297ZM59.9998 73.9729C51.327 73.9729 44.2653 81.3249 44.2653 90.3524C44.2653 99.38 51.327 106.732 59.9998 106.732C68.6727 106.732 75.7343 99.3885 75.7343 90.3524C75.7343 81.3163 68.6727 73.9729 59.9998 73.9729Z" fill="white"/>
<path d="M60.0006 77.9658C58.3123 77.9658 56.6497 78.3591 55.1328 79.0943C61.3718 82.3172 63.8056 89.9769 60.5748 96.1919C59.3664 98.5172 57.4638 100.415 55.1328 101.62C56.6497 102.356 58.3123 102.749 60.0006 102.749C66.4709 102.749 71.7414 97.1922 71.7414 90.3531C71.7414 83.514 66.4709 77.9658 60.0006 77.9658Z" fill="#69F5DB"/>
<path d="M101.736 91.635H87.3294C86.6181 91.635 86.0439 91.0622 86.0439 90.3526C86.0439 89.6431 86.6181 89.0703 87.3294 89.0703H101.736C102.447 89.0703 103.021 89.6431 103.021 90.3526C103.021 91.0622 102.447 91.635 101.736 91.635Z" fill="white"/>
<path d="M94.5371 79.7688H84.8187C84.1074 79.7688 83.5332 79.196 83.5332 78.4864C83.5332 77.7769 84.1074 77.2041 84.8187 77.2041H94.5371C95.2484 77.2041 95.8226 77.7769 95.8226 78.4864C95.8226 79.196 95.2484 79.7688 94.5371 79.7688Z" fill="white"/>
<path d="M94.3313 103.399H84.8529C84.1416 103.399 83.5674 102.826 83.5674 102.116C83.5674 101.407 84.1416 100.834 84.8529 100.834H94.3313C95.0426 100.834 95.6168 101.407 95.6168 102.116C95.6168 102.826 95.0426 103.399 94.3313 103.399Z" fill="white"/>
<path d="M105.73 95.6098C102.824 95.6098 100.459 93.2503 100.459 90.3523C100.459 87.4542 102.824 85.0947 105.73 85.0947C108.635 85.0947 110.991 87.4542 111 90.3523C111 93.2503 108.635 95.6098 105.73 95.6098ZM105.73 87.6594C104.247 87.6594 103.03 88.8648 103.03 90.3523C103.03 91.8398 104.238 93.0451 105.73 93.0451C107.221 93.0451 108.429 91.8398 108.429 90.3523C108.429 88.8733 107.212 87.6594 105.73 87.6594Z" fill="white"/>
<path d="M98.5225 83.7446C95.6173 83.7446 93.252 81.3851 93.252 78.487C93.252 75.589 95.6173 73.2295 98.5225 73.2295C101.428 73.2295 103.793 75.589 103.793 78.487C103.793 81.3851 101.428 83.7446 98.5225 83.7446ZM98.5225 75.7941C97.0313 75.7941 95.8229 76.9995 95.8229 78.487C95.8229 79.9745 97.0313 81.1799 98.5225 81.1799C100.014 81.1799 101.222 79.9745 101.222 78.487C101.222 76.9995 100.014 75.7941 98.5225 75.7941Z" fill="white"/>
<path d="M98.3252 107.373C95.42 107.373 93.0547 105.014 93.0547 102.116C93.0547 99.2179 95.42 96.8584 98.3252 96.8584C101.23 96.8584 103.587 99.2264 103.596 102.116C103.596 105.014 101.23 107.373 98.3252 107.373ZM98.3252 99.423C96.8426 99.423 95.6257 100.628 95.6257 102.116C95.6257 103.603 96.8341 104.809 98.3252 104.809C99.8164 104.809 101.025 103.603 101.025 102.116C101.025 100.628 99.8078 99.423 98.3252 99.423Z" fill="white"/>
<path d="M32.6699 91.635H18.2552C17.5439 91.635 16.9697 91.0622 16.9697 90.3526C16.9697 89.6431 17.5439 89.0703 18.2552 89.0703H32.6699C33.3813 89.0703 33.9554 89.6431 33.9554 90.3526C33.9554 91.0622 33.3813 91.635 32.6699 91.635Z" fill="white"/>
<path d="M35.173 79.7688H25.4632C24.7519 79.7688 24.1777 79.196 24.1777 78.4864C24.1777 77.7769 24.7519 77.2041 25.4632 77.2041H35.173C35.8843 77.2041 36.4585 77.7769 36.4585 78.4864C36.4585 79.196 35.8843 79.7688 35.173 79.7688Z" fill="white"/>
<path d="M35.1389 103.399H25.6605C24.9492 103.399 24.375 102.826 24.375 102.116C24.375 101.407 24.9492 100.834 25.6605 100.834H35.1389C35.8502 100.834 36.4244 101.407 36.4244 102.116C36.4244 102.826 35.8502 103.399 35.1389 103.399Z" fill="white"/>
<path d="M14.2791 95.6269H14.2705C12.8565 95.6269 11.5367 95.0712 10.5426 94.0796C9.53991 93.0793 9 91.7543 9 90.3523C9 87.4628 11.3653 85.1033 14.2705 85.0947C15.7017 85.0947 17.0301 85.6504 18.0242 86.6421C19.0183 87.6423 19.5668 88.9588 19.5582 90.3694C19.5582 93.2674 17.1843 95.6269 14.2791 95.6269ZM14.2791 87.6594C12.7794 87.6594 11.571 88.8733 11.5624 90.3523C11.5624 91.0704 11.8452 91.7543 12.3509 92.2672C12.8651 92.7801 13.5421 93.0622 14.262 93.0622C15.7532 93.0622 16.9701 91.8569 16.9701 90.3694C16.9701 89.6513 16.6873 88.9673 16.1817 88.4544C15.6675 87.9415 14.9904 87.6594 14.2705 87.6594H14.2791Z" fill="white"/>
<path d="M21.4776 83.7446C18.5723 83.7446 16.207 81.3851 16.207 78.487C16.207 75.589 18.5723 73.2295 21.4776 73.2295C24.3828 73.2295 26.7481 75.589 26.7481 78.487C26.7481 81.3851 24.3828 83.7446 21.4776 83.7446ZM21.4776 75.7941C19.9864 75.7941 18.778 76.9995 18.778 78.487C18.778 79.9745 19.9864 81.1799 21.4776 81.1799C22.9688 81.1799 24.1771 79.9745 24.1771 78.487C24.1771 76.9995 22.9688 75.7941 21.4776 75.7941Z" fill="white"/>
<path d="M21.6834 107.391H21.6748C18.761 107.391 16.4043 105.014 16.4043 102.116C16.4043 99.2264 18.7782 96.8669 21.6748 96.8584C24.6058 96.8584 26.9711 99.235 26.9625 102.133C26.9625 103.544 26.4055 104.86 25.4114 105.852C24.4172 106.843 23.0889 107.382 21.692 107.382L21.6834 107.391ZM18.9753 102.116C18.9753 103.603 20.1837 104.817 21.6748 104.826C22.3947 104.826 23.0717 104.544 23.5859 104.039C24.1001 103.526 24.383 102.851 24.383 102.133C24.383 100.646 23.1746 99.4316 21.6834 99.423C20.1837 99.423 18.9753 100.637 18.9667 102.116H18.9753Z" fill="white"/>
<path d="M59.9922 120C48.6026 119.888 38.3872 113.075 33.9394 102.645C33.6652 101.996 33.9651 101.243 34.6164 100.961C35.2677 100.679 36.0219 100.987 36.3047 101.637C40.3497 111.126 49.6482 117.332 59.9836 117.435C70.3019 117.332 79.5917 111.134 83.6368 101.637C83.911 100.987 84.6737 100.679 85.325 100.961C85.9764 101.235 86.2849 101.987 86.0021 102.645C81.5542 113.075 71.3388 119.888 59.975 120H59.9922Z" fill="white"/>
<path d="M32.6703 91.6352C31.959 91.6352 31.3848 91.0624 31.3848 90.3528C31.3763 86.0613 32.2504 81.8895 33.9987 77.9656C34.2901 77.3159 35.0442 77.0252 35.6955 77.3159C36.3468 77.6065 36.6382 78.3588 36.3469 79.0085C34.7528 82.6076 33.9473 86.4204 33.9558 90.3528C33.9558 91.0624 33.3816 91.6352 32.6703 91.6352Z" fill="white"/>
<path d="M38.5753 73.9731C38.3096 73.9731 38.0353 73.8876 37.804 73.7167C37.2383 73.2892 37.1269 72.4856 37.5469 71.9214C42.826 64.9284 51.216 60.7395 60.0002 60.7139C60.7115 60.7139 61.2857 61.2866 61.2857 61.9962C61.2857 62.7057 60.7115 63.2785 60.0002 63.2785C52.0216 63.2956 44.3943 67.1084 39.6037 73.4602C39.3551 73.7936 38.9695 73.9731 38.5753 73.9731Z" fill="white"/>
<path d="M81.3823 74.007C80.9967 74.007 80.6111 73.8361 80.354 73.5027C77.0202 69.1171 72.461 65.954 67.1819 64.3554C66.5048 64.1502 66.1192 63.4321 66.3249 62.7568C66.5306 62.0814 67.2504 61.6967 67.9275 61.9019C73.7294 63.6544 78.7342 67.1338 82.4022 71.9553C82.8307 72.5195 82.7193 73.3231 82.1536 73.7506C81.9223 73.9301 81.648 74.0156 81.3738 74.0156L81.3823 74.007Z" fill="white"/>
<path d="M87.3299 91.6353C86.6186 91.6353 86.0444 91.0625 86.0444 90.3529C86.0444 86.4205 85.2474 82.6077 83.6619 79.0086C83.3791 78.3589 83.6619 77.6066 84.3218 77.316C84.9731 77.0339 85.7273 77.316 86.0187 77.9742C87.7498 81.8981 88.6325 86.07 88.624 90.3615C88.624 91.071 88.0498 91.6438 87.3385 91.6438L87.3299 91.6353Z" fill="white"/>
</g>
<defs>
<clipPath id="clip0_651_9409">
<rect width="102" height="120" fill="white" transform="translate(9)"/>
</clipPath>
</defs>
</svg>
