<svg width="80" height="80" viewBox="0 0 80 80" fill="none" xmlns="http://www.w3.org/2000/svg">
<g clip-path="url(#clip0_651_7360)">
<path d="M40 51.3241C39.859 51.3241 39.718 51.2871 39.5933 51.2184L14.2268 36.9387C13.9774 36.7959 13.8201 36.5369 13.8201 36.2514C13.8201 35.9659 13.9774 35.7069 14.2268 35.5641L25.3158 29.3204C25.7063 29.1036 26.2051 29.2305 26.4274 29.6112C26.6498 29.9918 26.5196 30.4729 26.1292 30.695L16.2603 36.2514L40 49.6165L63.7397 36.2514L53.8762 30.695C53.4857 30.4782 53.3556 29.9918 53.5779 29.6112C53.8002 29.2305 54.2991 29.1036 54.6895 29.3204L65.7731 35.5641C66.0226 35.7069 66.1798 35.9659 66.1798 36.2514C66.1798 36.5369 66.0226 36.7959 65.7731 36.9387L40.4067 51.2184C40.2819 51.2871 40.141 51.3241 40 51.3241Z" fill="#69F5DB"/>
<path d="M40 79.9995L13.8201 65.2599V51.2657C13.8201 50.8269 14.1834 50.4727 14.6335 50.4727C15.0836 50.4727 15.4469 50.8269 15.4469 51.2657V64.34L40 78.1597L64.5531 64.34V51.6358C64.5531 51.1969 64.9164 50.8427 65.3664 50.8427C65.8165 50.8427 66.1798 51.1969 66.1798 51.6358V65.2599L40 79.9995Z" fill="#69F5DB"/>
<path d="M40 70.2895C39.55 70.2895 39.1866 69.9353 39.1866 69.4965V50.5274C39.1866 50.0886 39.55 49.7344 40 49.7344C40.4501 49.7344 40.8134 50.0886 40.8134 50.5274V69.4965C40.8134 69.9353 40.4501 70.2895 40 70.2895Z" fill="#69F5DB"/>
<path d="M49.8202 56.8492C49.6792 56.8492 49.5382 56.8122 49.4135 56.7435L39.5933 51.2188C39.2029 51.002 39.0728 50.5156 39.2951 50.135C39.5228 49.7543 40.0163 49.6275 40.4067 49.8442L49.8202 55.1416L73.5599 41.7818L64.9598 36.9391C64.5694 36.7224 64.4392 36.236 64.6616 35.8553C64.8839 35.4747 65.3828 35.3478 65.7732 35.5645L75.5933 41.0945C75.8428 41.2373 76 41.4963 76 41.7818C76 42.0673 75.8428 42.3264 75.5933 42.4691L50.2269 56.7435C50.1021 56.8122 49.9612 56.8492 49.8202 56.8492Z" fill="#69F5DB"/>
<path d="M30.1744 56.8496C30.0334 56.8496 29.8925 56.8126 29.7677 56.7439L4.40669 42.4695C4.15725 42.3268 4 42.0677 4 41.7822C4 41.4967 4.15725 41.2377 4.40669 41.0949L14.2268 35.5649C14.6173 35.3429 15.1161 35.4751 15.3385 35.8557C15.5608 36.2364 15.4306 36.7175 15.0402 36.9395L6.44013 41.7822L30.1744 55.142L39.5933 49.8446C39.9837 49.6278 40.4826 49.7547 40.7049 50.1354C40.9272 50.516 40.7971 51.0024 40.4067 51.2192L30.5811 56.7439C30.4564 56.8126 30.3154 56.8496 30.1744 56.8496Z" fill="#69F5DB"/>
<path d="M40 28.1525C34.0081 28.1525 29.1333 23.2199 29.1333 17.1612C29.1333 11.1025 34.0081 6.16992 40 6.16992C45.9919 6.16992 50.8667 11.1025 50.8667 17.1612C50.8667 23.2199 45.9919 28.1525 40 28.1525ZM40 7.75596C34.9028 7.75596 30.7601 11.9748 30.7601 17.1612C30.7601 22.3476 34.9028 26.5664 40 26.5664C45.0972 26.5664 49.2399 22.3476 49.2399 17.1612C49.2399 11.9748 45.0972 7.75596 40 7.75596Z" fill="#69F5DB"/>
<path d="M40 10.1406C39.2734 10.1406 38.5522 10.2622 37.869 10.5001C41.643 11.9329 43.5138 16.0777 42.0497 19.7573C41.3068 21.6289 39.7885 23.1039 37.869 23.8335C38.5522 24.0661 39.2734 24.1877 40 24.193C43.7524 24.193 46.7998 21.0209 46.7998 17.1668C46.7998 13.3127 43.7524 10.1406 40 10.1406Z" fill="#AE9AFF"/>
<path d="M64.6561 17.9532H56.1428C55.6927 17.9532 55.3294 17.599 55.3294 17.1602C55.3294 16.7214 55.6927 16.3672 56.1428 16.3672H64.6561C65.1062 16.3672 65.4695 16.7214 65.4695 17.1602C65.4695 17.599 65.1062 17.9532 64.6561 17.9532Z" fill="#69F5DB"/>
<path d="M60.3994 11.1017H54.6624C54.2124 11.1017 53.8491 10.7475 53.8491 10.3086C53.8491 9.86984 54.2124 9.51562 54.6624 9.51562H60.3994C60.8495 9.51562 61.2128 9.86984 61.2128 10.3086C61.2128 10.7475 60.8495 11.1017 60.3994 11.1017Z" fill="#69F5DB"/>
<path d="M60.2802 24.7462H54.6842C54.2341 24.7462 53.8708 24.392 53.8708 23.9532C53.8708 23.5144 54.2341 23.1602 54.6842 23.1602H60.2802C60.7303 23.1602 61.0936 23.5144 61.0936 23.9532C61.0936 24.392 60.7303 24.7462 60.2802 24.7462Z" fill="#69F5DB"/>
<path d="M67.0095 20.2531C65.2635 20.2531 63.8428 18.868 63.8428 17.1656C63.8428 15.4633 65.2635 14.0781 67.0095 14.0781C68.7556 14.0781 70.1763 15.4633 70.1763 17.1656C70.1763 18.868 68.7556 20.2531 67.0095 20.2531ZM67.0095 15.6642C66.1582 15.6642 65.4695 16.3356 65.4695 17.1656C65.4695 17.9957 66.1582 18.6671 67.0095 18.6671C67.8608 18.6671 68.5495 17.9957 68.5495 17.1656C68.5495 16.3356 67.8608 15.6642 67.0095 15.6642Z" fill="#69F5DB"/>
<path d="M62.7529 13.4121C61.0068 13.4121 59.5861 12.027 59.5807 10.3246C59.5807 8.61699 60.996 7.22656 62.7474 7.22656H62.7529C63.5988 7.22656 64.3959 7.54377 64.9923 8.12532C65.5942 8.70687 65.925 9.48403 65.925 10.3088C65.925 12.0217 64.5097 13.4121 62.7583 13.4121H62.7529ZM62.7583 8.81261C61.9015 8.81261 61.2074 9.4946 61.2129 10.3246C61.2129 11.1547 61.9069 11.8261 62.7583 11.8261C63.6096 11.8261 64.3037 11.1441 64.2983 10.3141C64.2983 9.90697 64.1356 9.53161 63.8428 9.24612C63.55 8.96592 63.165 8.80732 62.7583 8.80732V8.81261Z" fill="#69F5DB"/>
<path d="M62.6335 27.0514C61.7876 27.0514 60.9959 26.7342 60.394 26.1526C59.7921 25.5711 59.4614 24.7939 59.4614 23.9692C59.4614 22.2615 60.8766 20.8711 62.6281 20.8711C64.385 20.8711 65.8057 22.2562 65.8057 23.9586C65.8057 24.7833 65.4803 25.5605 64.8839 26.1473C64.2874 26.7342 63.4903 27.0567 62.6444 27.0567H62.639L62.6335 27.0514ZM62.639 22.4519C61.7768 22.4519 61.0881 23.1338 61.0881 23.9639C61.0881 24.3657 61.2508 24.7463 61.5436 25.0265C61.8364 25.312 62.2214 25.4653 62.6335 25.4653C63.0456 25.4653 63.4361 25.3067 63.7235 25.0212C64.0108 24.7358 64.1735 24.3551 64.1735 23.9533C64.1735 23.1233 63.4849 22.4519 62.6335 22.4519H62.639Z" fill="#69F5DB"/>
<path d="M23.8572 17.9532H15.3439C14.8938 17.9532 14.5305 17.599 14.5305 17.1602C14.5305 16.7214 14.8938 16.3672 15.3439 16.3672H23.8572C24.3073 16.3672 24.6706 16.7214 24.6706 17.1602C24.6706 17.599 24.3073 17.9532 23.8572 17.9532Z" fill="#69F5DB"/>
<path d="M25.3376 11.1017H19.6005C19.1505 11.1017 18.7872 10.7475 18.7872 10.3086C18.7872 9.86984 19.1505 9.51562 19.6005 9.51562H25.3376C25.7876 9.51562 26.1509 9.86984 26.1509 10.3086C26.1509 10.7475 25.7876 11.1017 25.3376 11.1017Z" fill="#69F5DB"/>
<path d="M25.3158 24.7462H19.7198C19.2697 24.7462 18.9064 24.392 18.9064 23.9532C18.9064 23.5144 19.2697 23.1602 19.7198 23.1602H25.3158C25.7659 23.1602 26.1292 23.5144 26.1292 23.9532C26.1292 24.392 25.7659 24.7462 25.3158 24.7462Z" fill="#69F5DB"/>
<path d="M12.9905 20.2531C11.2445 20.2531 9.82379 18.868 9.82379 17.1656C9.82379 15.4633 11.2445 14.0781 12.9905 14.0781C14.7366 14.0781 16.1573 15.4633 16.1573 17.1656C16.1573 17.9904 15.8265 18.7675 15.23 19.3491C14.6336 19.9306 13.8364 20.2531 12.9905 20.2531ZM12.9905 15.6642C12.1392 15.6642 11.4505 16.3356 11.4505 17.1656C11.4505 17.9957 12.1392 18.6671 12.9905 18.6671C13.4026 18.6671 13.7876 18.5085 14.0805 18.2283C14.3733 17.9481 14.5305 17.5674 14.5305 17.1656C14.5305 16.3356 13.8419 15.6642 12.9905 15.6642Z" fill="#69F5DB"/>
<path d="M17.2472 13.4016C15.5011 13.4016 14.0804 12.0164 14.0804 10.3141C14.0804 8.61171 15.5011 7.22656 17.2472 7.22656C18.9932 7.22656 20.4139 8.61171 20.4139 10.3141C20.4139 12.0164 18.9932 13.4016 17.2472 13.4016ZM17.2472 8.81261C16.3959 8.81261 15.7072 9.48403 15.7072 10.3141C15.7072 11.1441 16.3959 11.8155 17.2472 11.8155C18.0985 11.8155 18.7872 11.1441 18.7872 10.3141C18.7872 9.48403 18.0985 8.81261 17.2472 8.81261Z" fill="#69F5DB"/>
<path d="M17.3665 27.0528H17.361C16.5151 27.0528 15.718 26.725 15.1215 26.1434C14.5251 25.5566 14.1943 24.7794 14.1997 23.9547C14.1997 22.247 15.6258 20.8672 17.3665 20.8672H17.3719C18.2232 20.8672 19.0203 21.195 19.6168 21.7765C20.2133 22.3634 20.544 23.1405 20.5386 23.9653C20.5386 24.79 20.2024 25.5672 19.6059 26.1487C19.0095 26.7303 18.2124 27.0475 17.3665 27.0475V27.0528ZM17.3665 22.4532C16.9489 22.4532 16.5639 22.6065 16.2765 22.892C15.9837 23.1775 15.8265 23.5529 15.821 23.9547C15.821 24.3618 15.9783 24.7424 16.2711 25.0279C16.5639 25.3134 16.9489 25.472 17.361 25.472C18.2124 25.472 18.9064 24.8006 18.9064 23.9705C18.9064 23.5687 18.7492 23.1881 18.4564 22.9026C18.1636 22.6171 17.7786 22.4585 17.3665 22.4585V22.4532Z" fill="#69F5DB"/>
<path d="M40.0054 34.3318C33.249 34.2683 27.1975 30.3191 24.5621 24.2763C24.3886 23.8745 24.5784 23.4092 24.9905 23.2348C25.4026 23.0656 25.8798 23.2506 26.0588 23.6524C28.4392 29.119 33.916 32.6876 40.0054 32.7457C46.0841 32.6876 51.5554 29.119 53.9413 23.6524C54.1148 23.2506 54.592 23.0603 55.0095 23.2348C55.4216 23.404 55.6168 23.8692 55.4379 24.2763C52.8026 30.3244 46.7456 34.2736 40.0054 34.3318Z" fill="#69F5DB"/>
<path d="M23.8572 17.9802C23.4071 17.9802 23.0438 17.626 23.0438 17.1924C23.033 14.6971 23.5535 12.2757 24.5892 9.99709C24.7682 9.5953 25.2508 9.41554 25.6629 9.59001C26.075 9.76447 26.2594 10.235 26.0804 10.6368C25.1369 12.7145 24.6651 14.9138 24.676 17.1872C24.676 17.626 24.3127 17.9802 23.868 17.9855L23.8572 17.9802Z" fill="#69F5DB"/>
<path d="M52.6073 7.76104C52.3579 7.76104 52.1193 7.65001 51.9566 7.44383C49.1369 3.79064 44.6579 1.6019 39.9729 1.58604C35.2933 1.6019 30.8143 3.79593 27.9946 7.44383C27.7234 7.79276 27.2137 7.86149 26.8558 7.60243C26.498 7.33809 26.4275 6.84113 26.6932 6.4922C29.822 2.44779 34.7835 0.0211472 39.9729 0C45.1731 0.0211472 50.1347 2.44779 53.2526 6.4922C53.5237 6.84113 53.4532 7.33809 53.0899 7.60243C52.9435 7.70817 52.77 7.76104 52.6019 7.76104H52.6073Z" fill="#69F5DB"/>
<path d="M56.1428 17.9589C55.6927 17.9589 55.3294 17.5994 55.3348 17.1606C55.3457 14.8926 54.8685 12.688 53.9304 10.6102C53.7515 10.2084 53.9304 9.74321 54.348 9.56346C54.7601 9.38899 55.2372 9.56346 55.4216 9.97054C56.4573 12.2492 56.9779 14.6705 56.967 17.1659C56.967 17.6047 56.6037 17.9536 56.1536 17.9536L56.1428 17.9589Z" fill="#69F5DB"/>
</g>
<defs>
<clipPath id="clip0_651_7360">
<rect width="72" height="80" fill="white" transform="translate(4)"/>
</clipPath>
</defs>
</svg>
