<svg width="120" height="120" viewBox="0 0 120 120" fill="none" xmlns="http://www.w3.org/2000/svg">
<g clip-path="url(#clip0_651_9373)">
<path d="M60.0046 54.9705C49.2045 54.9705 40.4238 45.8818 40.4238 34.7074C40.4238 23.5331 49.2045 14.4443 60.0046 14.4443C70.8047 14.4443 79.5854 23.5331 79.5854 34.7074C79.5854 45.8818 70.8047 54.9705 60.0046 54.9705ZM60.0046 17.1413C50.701 17.1413 43.1284 25.0254 43.1284 34.7074C43.1284 44.3895 50.701 52.2735 60.0046 52.2735C69.3082 52.2735 76.8809 44.3895 76.8809 34.7074C76.8809 25.0254 69.3082 17.1413 60.0046 17.1413Z" fill="#69F5DB"/>
<path d="M60.0043 21.1953C58.4447 21.1953 56.8941 21.501 55.4517 22.0943C62.4384 25.1598 65.6117 33.2866 62.5465 40.2537C61.1582 43.4182 58.625 45.9353 55.4517 47.3287C56.8941 47.9221 58.4447 48.2277 60.0043 48.2277C67.0721 48.2277 72.8238 42.1596 72.8238 34.743C72.8238 27.3264 67.0721 21.1953 60.0043 21.1953Z" fill="#AE9AFF"/>
<path d="M104.701 36.0553H89.2673C88.5191 36.0553 87.915 35.453 87.915 34.7069C87.915 33.9607 88.5191 33.3584 89.2673 33.3584H104.701C105.449 33.3584 106.053 33.9607 106.053 34.7069C106.053 35.453 105.449 36.0553 104.701 36.0553Z" fill="#69F5DB"/>
<path d="M96.9842 23.3532H86.5808C85.8325 23.3532 85.2285 22.7509 85.2285 22.0047C85.2285 21.2586 85.8325 20.6562 86.5808 20.6562H96.9842C97.7325 20.6562 98.3365 21.2586 98.3365 22.0047C98.3365 22.7509 97.7325 23.3532 96.9842 23.3532Z" fill="#69F5DB"/>
<path d="M96.7679 48.6501H86.6169C85.8687 48.6501 85.2646 48.0478 85.2646 47.3016C85.2646 46.5554 85.8687 45.9531 86.6169 45.9531H96.7679C97.5162 45.9531 98.1202 46.5554 98.1202 47.3016C98.1202 48.0478 97.5162 48.6501 96.7679 48.6501Z" fill="#69F5DB"/>
<path d="M108.966 40.326C105.865 40.326 103.349 37.8178 103.34 34.7253C103.34 33.224 103.917 31.8216 104.981 30.7518C106.045 29.691 107.451 29.1066 108.957 29.0977C112.067 29.0977 114.591 31.6058 114.591 34.6983C114.591 37.7908 112.076 40.317 108.975 40.317H108.966V40.326ZM108.966 31.8036C108.181 31.8036 107.442 32.1092 106.892 32.6576C106.342 33.206 106.036 33.9432 106.045 34.7163C106.045 36.3165 107.361 37.62 108.966 37.62C110.579 37.62 111.887 36.3075 111.878 34.6983C111.878 33.0981 110.561 31.7946 108.957 31.7946L108.966 31.8036Z" fill="#69F5DB"/>
<path d="M101.258 27.6138C98.1566 27.6138 95.6323 25.0967 95.6323 22.0042C95.6323 18.9117 98.1566 16.3945 101.258 16.3945C104.359 16.3945 106.883 18.9117 106.883 22.0042C106.883 25.0967 104.359 27.6138 101.258 27.6138ZM101.258 19.0915C99.644 19.0915 98.3369 20.395 98.3369 22.0042C98.3369 23.6134 99.644 24.9169 101.258 24.9169C102.871 24.9169 104.179 23.6134 104.179 22.0042C104.179 20.395 102.871 19.0915 101.258 19.0915Z" fill="#69F5DB"/>
<path d="M96.768 48.6505C96.0468 48.6505 95.4518 48.0842 95.4158 47.365C95.3436 45.8727 95.8665 44.4343 96.8762 43.3286C97.8859 42.2228 99.2742 41.5756 100.771 41.5036C102.258 41.4317 103.71 41.9531 104.819 42.96C105.927 43.9668 106.576 45.3513 106.649 46.8436C106.649 47.0144 106.649 47.1852 106.649 47.356C106.613 48.1022 105.999 48.6775 105.242 48.6416C104.494 48.6056 103.917 47.9763 103.953 47.2391C103.953 47.1492 103.953 47.0593 103.953 46.9694C103.917 46.1963 103.583 45.4771 103.006 44.9557C102.43 44.4343 101.69 44.1556 100.906 44.2006C100.131 44.2365 99.4095 44.5692 98.8776 45.1445C98.3457 45.7199 98.0842 46.466 98.1203 47.2391C98.1564 47.9853 97.5794 48.6146 96.8311 48.6505C96.8131 48.6505 96.7861 48.6505 96.768 48.6505Z" fill="#69F5DB"/>
<path d="M30.7324 36.0553H15.2986C14.5503 36.0553 13.9463 35.453 13.9463 34.7069C13.9463 33.9607 14.5503 33.3584 15.2986 33.3584H30.7324C31.4807 33.3584 32.0847 33.9607 32.0847 34.7069C32.0847 35.453 31.4807 36.0553 30.7324 36.0553Z" fill="#69F5DB"/>
<path d="M33.4188 23.3532H23.0154C22.2671 23.3532 21.6631 22.7509 21.6631 22.0047C21.6631 21.2586 22.2671 20.6562 23.0154 20.6562H33.4188C34.167 20.6562 34.771 21.2586 34.771 22.0047C34.771 22.7509 34.167 23.3532 33.4188 23.3532Z" fill="#69F5DB"/>
<path d="M33.3831 48.6501H23.2321C22.4839 48.6501 21.8799 48.0478 21.8799 47.3016C21.8799 46.5554 22.4839 45.9531 23.2321 45.9531H33.3831C34.1314 45.9531 34.7354 46.5554 34.7354 47.3016C34.7354 48.0478 34.1314 48.6501 33.3831 48.6501Z" fill="#69F5DB"/>
<path d="M11.0434 40.3257H11.0344C7.93318 40.3257 5.41797 37.7996 5.41797 34.7071C5.41797 31.6236 7.9422 29.1154 11.0344 29.1064C14.1626 29.1064 16.6778 31.6326 16.6688 34.7251C16.6688 36.2264 16.0738 37.6288 15.01 38.6896C13.9463 39.7414 12.5399 40.3257 11.0434 40.3257ZM8.1225 34.7071C8.1225 36.3163 9.42969 37.6198 11.0344 37.6288C11.8097 37.6288 12.5399 37.3321 13.0988 36.7838C13.6488 36.2354 13.9553 35.5072 13.9553 34.7251C13.9553 33.1159 12.6481 31.8124 11.0434 31.8034C9.42969 31.8034 8.1225 33.1069 8.11348 34.7071H8.1225Z" fill="#69F5DB"/>
<path d="M18.7514 27.6138C15.6502 27.6138 13.126 25.0967 13.126 22.0042C13.126 18.9117 15.6502 16.3945 18.7514 16.3945C21.8526 16.3945 24.3768 18.9117 24.3768 22.0042C24.3768 25.0967 21.8526 27.6138 18.7514 27.6138ZM18.7514 19.0915C17.1377 19.0915 15.8305 20.395 15.8305 22.0042C15.8305 23.6134 17.1377 24.9169 18.7514 24.9169C20.3651 24.9169 21.6723 23.6134 21.6723 22.0042C21.6723 20.395 20.3651 19.0915 18.7514 19.0915Z" fill="#69F5DB"/>
<path d="M14.6945 48.6501C13.9733 48.6501 13.3783 48.0838 13.3423 47.3646C13.3423 47.1938 13.3423 47.023 13.3423 46.8432C13.4144 45.3509 14.0635 43.9664 15.1724 42.9596C16.2812 41.9527 17.7146 41.4403 19.2201 41.5032C20.7166 41.5751 22.105 42.2224 23.1147 43.3282C24.1243 44.4339 24.6472 45.8723 24.5751 47.3646C24.539 48.1107 23.935 48.6681 23.1597 48.6501C22.4115 48.6142 21.8345 47.9849 21.8706 47.2387C21.9066 46.4656 21.6362 45.7195 21.1133 45.1441C20.5904 44.5688 19.8692 44.2361 19.0939 44.2002C18.3096 44.1642 17.5704 44.4339 16.9934 44.9553C16.4164 45.4767 16.0829 46.1959 16.0468 46.969C16.0468 47.0589 16.0468 47.1488 16.0468 47.2387C16.0829 47.9849 15.5059 48.6142 14.7577 48.6501C14.7396 48.6501 14.7126 48.6501 14.6945 48.6501Z" fill="#69F5DB"/>
<path d="M80.6761 57.55C80.3425 57.55 79.9999 57.4242 79.7385 57.1725C79.1976 56.66 79.1796 55.806 79.7024 55.2666C82.0914 52.7854 84.0117 49.9267 85.4 46.7712C85.6975 46.088 86.4998 45.7824 87.185 46.079C87.8701 46.3757 88.1766 47.1758 87.8791 47.859C86.3646 51.3021 84.2731 54.4216 81.6587 57.1275C81.3973 57.4062 81.0367 57.5411 80.6851 57.5411L80.6761 57.55Z" fill="#69F5DB"/>
<path d="M39.3239 57.55C38.9724 57.55 38.6118 57.4152 38.3503 57.1365C35.7359 54.4216 33.6444 51.3021 32.1389 47.859C31.8414 47.1758 32.1479 46.3847 32.8331 46.079C33.5182 45.7824 34.3115 46.088 34.6181 46.7712C35.9974 49.9267 37.9176 52.7764 40.3066 55.2576C40.8204 55.797 40.8114 56.6511 40.2705 57.1635C40.0091 57.4152 39.6665 57.5411 39.333 57.5411L39.3239 57.55Z" fill="#69F5DB"/>
<path d="M30.7053 36.0556C29.957 36.0556 29.353 35.4532 29.353 34.7071C29.353 30.1133 30.3086 25.6543 32.1748 21.4561C32.4813 20.7729 33.2746 20.4672 33.9597 20.7729C34.6449 21.0785 34.9514 21.8696 34.6449 22.5528C32.932 26.4095 32.0576 30.4909 32.0576 34.7071C32.0576 35.4532 31.4535 36.0556 30.7053 36.0556Z" fill="#69F5DB"/>
<path d="M37.1062 17.15C36.8267 17.15 36.5383 17.0601 36.2948 16.8803C35.6999 16.4308 35.5827 15.5858 36.0244 14.9924C41.6588 7.52188 50.6198 3.03596 59.9956 3C69.3803 3.04495 78.3413 7.53087 83.9757 14.9924C84.4265 15.5858 84.3093 16.4308 83.7143 16.8803C83.1193 17.3298 82.2719 17.2129 81.8211 16.6196C76.6825 9.82328 68.5238 5.7419 59.9956 5.70594C51.4763 5.7419 43.3176 9.82328 38.188 16.6196C37.9266 16.9702 37.5209 17.159 37.1062 17.159V17.15Z" fill="#69F5DB"/>
<path d="M89.2675 36.0556C88.5192 36.0556 87.9152 35.4532 87.9152 34.7071C87.9152 30.4909 87.0498 26.4005 85.3279 22.5528C85.0214 21.8696 85.3279 21.0785 86.013 20.7729C86.6982 20.4672 87.4915 20.7729 87.798 21.4561C89.6732 25.6543 90.6197 30.1133 90.6197 34.7071C90.6197 35.4532 90.0157 36.0556 89.2675 36.0556Z" fill="#69F5DB"/>
<path d="M79.5401 90.6238C70.0562 90.6238 63.6826 81.4003 63.6014 81.2834C62.8351 80.2406 61.6361 78.955 60.4371 79.0449C59.184 79.1438 58.1112 80.6721 57.7687 81.3104C56.5516 84.2321 54.9289 86.093 52.9366 86.8481C51.3229 87.4594 49.5108 87.3246 47.6898 86.4436C46.004 85.5806 45.2016 83.6837 45.7425 81.9037L47.3382 76.4109C48.1676 73.6151 50.1779 71.3317 52.8554 70.163L58.9406 67.4661C61.6091 66.3064 64.1063 66.6749 66.6395 67.1874L82.5512 70.9451C83.2814 71.1159 83.7231 71.8441 83.5518 72.5723C83.3806 73.3004 82.6503 73.741 81.9201 73.5701L66.0535 69.8214C63.4572 69.291 61.7984 69.1651 60.0314 69.9293L53.9553 72.6262C52.008 73.4802 50.5476 75.1344 49.9436 77.1661L48.3389 82.6679C48.1766 83.2072 48.411 83.7736 48.8978 84.0253C50.0157 84.5647 51.0614 84.6726 51.972 84.322C53.2521 83.8365 54.37 82.4521 55.2895 80.2136C55.3075 80.1777 55.3166 80.1507 55.3346 80.1147C55.5149 79.7551 57.2097 76.5817 60.2118 76.339C62.168 76.1772 64.0612 77.3099 65.8191 79.7102C65.8732 79.7821 68.2893 83.3061 72.2109 85.6974C77.2683 88.7809 82.425 88.6281 87.5275 85.2389C88.1495 84.8254 88.988 84.9962 89.4026 85.6165C89.8173 86.2368 89.6461 87.0729 89.024 87.4864C85.6343 89.7428 82.434 90.6059 79.5311 90.6059L79.5401 90.6238Z" fill="#69F5DB"/>
<path d="M81.1901 98.8491C80.6132 98.8491 80.0813 98.4805 79.901 97.9142C79.6756 97.204 80.0633 96.4488 80.7754 96.2241L91.2239 92.9068C91.9361 92.6821 92.6934 93.0776 92.9188 93.7788C93.1442 94.4801 92.7475 95.2442 92.0443 95.4689L81.5958 98.7862C81.4606 98.8311 81.3254 98.8491 81.1811 98.8491H81.1901Z" fill="#69F5DB"/>
<path d="M10.6379 103.3C10.4756 103.3 10.3044 103.273 10.1421 103.201L0.856532 99.533C0.16237 99.2633 -0.180204 98.4722 0.0992639 97.78C0.378732 97.0878 1.16305 96.7462 1.85721 97.0248L9.89868 100.198L25.5038 62.1893L0.847517 52.2285C0.153354 51.9498 -0.180204 51.1587 0.0992639 50.4755C0.378732 49.7833 1.17206 49.4507 1.85721 49.7294L27.7666 60.2025C28.1002 60.3374 28.3616 60.5981 28.5058 60.9307C28.6411 61.2633 28.6501 61.6319 28.5058 61.9645L11.882 102.464C11.6656 102.985 11.1608 103.3 10.6289 103.3H10.6379Z" fill="#69F5DB"/>
<path d="M27.2618 95.5325C27.0995 95.5325 26.9372 95.5055 26.775 95.4426L15.1816 90.9477C14.4874 90.678 14.1448 89.8959 14.4153 89.2037C14.6857 88.5115 15.47 88.1698 16.1642 88.4395L26.5406 92.458L36.0064 70.4239L25.4047 65.974C24.7195 65.6863 24.395 64.8952 24.6835 64.212C24.9719 63.5287 25.7653 63.2051 26.4504 63.4928L38.3053 68.4731C38.6388 68.608 38.9003 68.8777 39.0355 69.2103C39.1707 69.5429 39.1707 69.9115 39.0265 70.2441L28.5149 94.7234C28.2985 95.2358 27.7937 95.5415 27.2708 95.5415L27.2618 95.5325Z" fill="#69F5DB"/>
<path d="M109.362 105.861C108.83 105.861 108.325 105.547 108.109 105.025L91.4852 64.526C91.35 64.1934 91.35 63.8248 91.4852 63.4922C91.6204 63.1596 91.8909 62.8989 92.2244 62.764L118.134 52.2909C118.828 52.0122 119.612 52.3448 119.892 53.037C120.171 53.7293 119.838 54.5114 119.144 54.7901L94.4962 64.7508L110.101 102.769L118.143 99.5953C118.837 99.3167 119.621 99.6583 119.901 100.35C120.171 101.043 119.838 101.825 119.144 102.104L109.858 105.771C109.696 105.834 109.524 105.87 109.362 105.87V105.861Z" fill="#69F5DB"/>
<path d="M92.7383 98.0942C92.2155 98.0942 91.7106 97.7886 91.4943 97.2762L80.9917 72.7879C80.8474 72.4553 80.8474 72.0867 80.9826 71.7541C81.1179 71.4214 81.3793 71.1517 81.7129 71.0169L93.5587 66.0455C94.2439 65.7578 95.0372 66.0815 95.3257 66.7647C95.6142 67.4479 95.2896 68.239 94.6045 68.5267L84.0117 72.9767L93.4686 95.0197L103.845 90.9923C104.539 90.7226 105.323 91.0642 105.594 91.7564C105.864 92.4486 105.522 93.2307 104.828 93.5004L93.2342 98.0043C93.0719 98.0673 92.9096 98.0942 92.7473 98.0942H92.7383Z" fill="#69F5DB"/>
<path d="M79.946 106.428C79.3871 106.428 78.8282 106.339 78.2692 106.141C77.521 105.88 76.8448 105.44 76.3039 104.864L63.9262 91.775C63.4123 91.2356 63.4394 90.3816 63.9803 89.8692C64.5212 89.3568 65.3776 89.3837 65.8915 89.9231L78.2692 103.012C78.5126 103.273 78.8282 103.48 79.1707 103.597C80.3788 104.028 81.704 103.39 82.1277 102.194C82.335 101.592 82.2269 100.927 81.8212 100.432L72.8061 89.159C72.3373 88.5746 72.4365 87.7296 73.0224 87.2621C73.6084 86.7947 74.4558 86.8936 74.9246 87.4779L83.9397 98.7511C84.9224 99.9827 85.2018 101.601 84.679 103.093C83.9487 105.152 82.0105 106.428 79.937 106.428H79.946Z" fill="#69F5DB"/>
<path d="M73.7343 110.887C71.9583 110.887 70.1914 110.195 68.8661 108.82L58.4627 97.9598C57.9488 97.4204 57.9669 96.5664 58.5078 96.0539C59.0487 95.5415 59.9051 95.5595 60.419 96.0989L70.8224 106.959C72.373 108.568 74.9423 108.613 76.556 107.066C77.0158 106.626 77.3764 106.069 77.5837 105.457L77.6198 105.322C77.8362 104.612 78.5844 104.208 79.3056 104.414C80.0178 104.63 80.4235 105.376 80.2161 106.096L80.1621 106.275C79.8015 107.336 79.2065 108.262 78.4402 108.999C77.133 110.258 75.4381 110.878 73.7523 110.878L73.7343 110.887Z" fill="#69F5DB"/>
<path d="M67.0541 114.887C66.9279 114.887 66.8017 114.887 66.6755 114.878C64.8454 114.743 63.2047 113.916 62.0237 112.559L53.4323 103.038C52.9365 102.481 52.9816 101.636 53.5315 101.133C54.0904 100.638 54.9378 100.683 55.4427 101.231L64.0521 110.77C64.7823 111.606 65.774 112.109 66.8558 112.19C68.4605 112.298 69.8578 111.372 71.0028 109.484C71.3904 108.846 72.2198 108.648 72.8599 109.035C73.4999 109.421 73.6983 110.248 73.3106 110.886C71.3183 114.15 68.8752 114.896 67.0451 114.896L67.0541 114.887Z" fill="#69F5DB"/>
<path d="M54.9833 72.0331C54.8841 72.0331 54.776 72.0241 54.6768 71.9971C47.2483 70.2711 37.9808 71.0352 37.8907 71.0442C37.1514 71.1071 36.4933 70.5587 36.4302 69.8126C36.3671 69.0664 36.917 68.4192 37.6563 68.3562C38.0529 68.3203 47.4377 67.5382 55.2898 69.3631C56.02 69.5339 56.4708 70.2531 56.2995 70.9813C56.1553 71.6016 55.5963 72.0241 54.9833 72.0241V72.0331Z" fill="#69F5DB"/>
<path d="M60.4552 117C59.2202 117 57.9941 116.542 57.0475 115.616L53.0268 111.759C45.3459 104.235 37.043 97.2494 28.3164 90.9925C27.7124 90.561 27.5772 89.716 28.0099 89.1137C28.4426 88.5113 29.29 88.3765 29.894 88.808C38.7288 95.1548 47.1399 102.221 54.9109 109.835L58.9317 113.692C59.7971 114.537 61.1764 114.519 62.0148 113.665C62.2943 113.386 62.4836 113.036 62.5738 112.649C62.5738 112.604 62.5738 112.559 62.5828 112.505C62.6729 111.768 63.3491 111.247 64.0883 111.328C64.7915 111.417 65.3054 112.029 65.2783 112.721C65.2783 112.82 65.2783 112.919 65.2603 113.018C65.08 113.971 64.6292 114.852 63.9531 115.544C62.9975 116.515 61.7354 117 60.4642 117H60.4552Z" fill="#69F5DB"/>
<path d="M37.1062 102.158C36.1326 102.158 35.1499 101.835 34.3295 101.16C34.2755 101.115 34.2033 101.061 34.1402 100.999C32.4814 99.4883 32.3733 96.9172 33.8788 95.272L34.9336 94.1034C35.4294 93.546 36.2858 93.5011 36.8448 94.0045C37.4037 94.5079 37.4398 95.353 36.9439 95.9103L35.8801 97.088C35.3663 97.6454 35.4114 98.4994 35.9613 99.0028L36.0334 99.0568C36.7456 99.6411 37.7643 99.5602 38.3683 98.877L39.4141 97.7083C39.9099 97.1509 40.7663 97.106 41.3253 97.6004C41.8842 98.0949 41.9293 98.9489 41.4334 99.5063L40.3967 100.666C39.5313 101.646 38.3322 102.149 37.1152 102.149L37.1062 102.158Z" fill="#69F5DB"/>
<path d="M41.0728 108.28C39.9729 108.28 38.8731 107.893 37.9716 107.12C35.9973 105.43 35.7719 102.454 37.4577 100.476C37.4577 100.476 37.4667 100.458 37.4758 100.458L39.6484 97.9503C40.1352 97.3929 40.9916 97.33 41.5596 97.8154C42.1275 98.3009 42.1816 99.1549 41.6948 99.7213L39.5312 102.211C39.1616 102.634 38.9903 103.155 39.0354 103.695C39.0804 104.234 39.3238 104.729 39.7385 105.079C40.5769 105.807 41.83 105.735 42.5783 104.917L44.9042 102.382C45.409 101.834 46.2655 101.798 46.8154 102.301C47.3653 102.805 47.4014 103.659 46.8965 104.207L44.5706 106.742C43.6331 107.767 42.3529 108.28 41.0818 108.28H41.0728Z" fill="#69F5DB"/>
<path d="M46.8696 111.894C45.7156 111.894 44.5617 111.48 43.6602 110.644C41.767 108.891 41.6498 105.915 43.3897 104.019L44.8953 102.382C45.4001 101.834 46.2565 101.798 46.8065 102.301C47.3564 102.805 47.3925 103.659 46.8876 104.207L45.3821 105.843C44.6428 106.653 44.6879 107.92 45.4993 108.675C46.3016 109.421 47.5818 109.376 48.339 108.585L49.9077 106.922C50.4215 106.383 51.278 106.356 51.8189 106.859C52.3598 107.372 52.3868 108.226 51.882 108.765L50.3133 110.428C49.3848 111.399 48.1317 111.894 46.8786 111.894H46.8696Z" fill="#69F5DB"/>
<path d="M52.3778 115.4C51.2419 115.4 50.106 114.987 49.2315 114.141C47.4195 112.424 47.3474 109.557 49.0693 107.741L49.6643 107.111C50.1781 106.572 51.0346 106.545 51.5755 107.057C52.1164 107.57 52.1434 108.424 51.6296 108.963L51.0346 109.593C50.3404 110.33 50.3674 111.489 51.0977 112.182C51.8279 112.883 52.9999 112.865 53.703 112.137L54.5234 111.292C55.0463 110.752 55.9027 110.743 56.4346 111.265C56.9755 111.786 56.9845 112.64 56.4617 113.171L55.6413 114.016C54.7488 114.933 53.5588 115.391 52.3688 115.391L52.3778 115.4Z" fill="#69F5DB"/>
</g>
<defs>
<clipPath id="clip0_651_9373">
<rect width="120" height="114" fill="white" transform="translate(0 3)"/>
</clipPath>
</defs>
</svg>
