<svg width="80" height="80" viewBox="0 0 80 80" fill="none" xmlns="http://www.w3.org/2000/svg">
<g clip-path="url(#clip0_649_7198)">
<path d="M51.3263 70.3376C45.6525 70.3376 41.0392 65.5048 41.0392 59.5682C41.0392 53.6316 45.6525 48.7988 51.3263 48.7988C57.0002 48.7988 61.6135 53.6316 61.6135 59.5682C61.6135 65.5048 57.0002 70.3376 51.3263 70.3376ZM51.3263 50.2386C46.442 50.2386 42.466 54.4235 42.466 59.5682C42.466 64.713 46.442 68.8979 51.3263 68.8979C56.2107 68.8979 60.1867 64.713 60.1867 59.5682C60.1867 54.4235 56.2107 50.2386 51.3263 50.2386Z" fill="white"/>
<path d="M51.3263 52.3965C50.5083 52.3965 49.7045 52.5597 48.9483 52.8764C52.6104 54.5081 54.2703 58.8226 52.658 62.518C51.9303 64.1881 50.6034 65.5223 48.9483 66.2614C49.7045 66.5733 50.5083 66.7365 51.3263 66.7413C55.0312 66.7413 58.0465 63.5258 58.0465 59.5713C58.0465 55.6167 55.0312 52.3965 51.3263 52.3965Z" fill="#69F5DB"/>
<path d="M74.8017 60.2874H66.6976C66.3028 60.2874 65.9842 59.9659 65.9842 59.5675C65.9842 59.1692 66.3028 58.8477 66.6976 58.8477H74.8017C75.1965 58.8477 75.5151 59.1692 75.5151 59.5675C75.5151 59.9659 75.1965 60.2874 74.8017 60.2874Z" fill="white"/>
<path d="M70.7496 53.5335H65.285C64.8903 53.5335 64.5717 53.212 64.5717 52.8136C64.5717 52.4153 64.8903 52.0938 65.285 52.0938H70.7496C71.1444 52.0938 71.463 52.4153 71.463 52.8136C71.463 53.212 71.1444 53.5335 70.7496 53.5335Z" fill="white"/>
<path d="M70.6355 66.9788H65.3041C64.9093 66.9788 64.5907 66.6573 64.5907 66.2589C64.5907 65.8606 64.9093 65.5391 65.3041 65.5391H70.6355C71.0303 65.5391 71.3489 65.8606 71.3489 66.2589C71.3489 66.6573 71.0303 66.9788 70.6355 66.9788Z" fill="white"/>
<path d="M77.0418 62.5581C75.4153 62.5581 74.0883 61.2239 74.0836 59.5778C74.0836 58.7811 74.388 58.0277 74.9444 57.4661C75.5009 56.9046 76.2428 56.5879 77.0323 56.5879H77.037C78.6683 56.5879 79.9905 57.9221 79.9952 59.5634C79.9952 61.2143 78.6731 62.5581 77.0418 62.5581ZM77.0418 58.0276C76.628 58.0276 76.2428 58.1908 75.9574 58.4836C75.6673 58.7763 75.5104 59.1651 75.5104 59.5778C75.5104 60.4272 76.2 61.1183 77.0418 61.1183C77.8836 61.1183 78.5732 60.4224 78.5685 59.5682C78.5685 58.7139 77.8836 58.0276 77.0418 58.0276Z" fill="white"/>
<path d="M72.9897 55.8052C72.2002 55.8052 71.463 55.4981 70.9018 54.9366C70.3406 54.3751 70.0315 53.6264 70.0315 52.8297C70.0315 52.0331 70.3359 51.2844 70.8923 50.7181C71.4488 50.1518 72.1907 49.8398 72.9802 49.8398C74.6115 49.8398 75.9384 51.174 75.9431 52.8201C75.9431 53.6168 75.6388 54.3703 75.0823 54.9318C74.5259 55.4933 73.7839 55.81 72.9945 55.81H72.9897V55.8052ZM72.9897 51.2748C72.5759 51.2748 72.1955 51.438 71.9053 51.7307C71.6152 52.0235 71.4583 52.4122 71.4583 52.8249C71.4583 53.2377 71.62 53.6264 71.9101 53.9192C72.2002 54.2071 72.5807 54.3703 72.9897 54.3703C73.3987 54.3703 73.7839 54.2071 74.0693 53.9144C74.3594 53.6216 74.5164 53.2329 74.5164 52.8201C74.5164 51.9707 73.8268 51.2796 72.9849 51.2796L72.9897 51.2748Z" fill="white"/>
<path d="M72.8756 69.2467C72.0861 69.2467 71.3489 68.9395 70.7877 68.378C70.2265 67.8165 69.9174 67.0678 69.9174 66.2712C69.9174 65.4745 70.2217 64.7258 70.7782 64.1595C71.3346 63.5932 72.0766 63.2812 72.8661 63.2812C74.5069 63.2812 75.829 64.6202 75.829 66.2616C75.829 67.0582 75.5246 67.8069 74.9682 68.3732C74.4117 68.9395 73.6698 69.2515 72.8803 69.2515H72.8756V69.2467ZM72.8803 64.7162C72.4618 64.7162 72.0813 64.8794 71.7912 65.1721C71.5011 65.4649 71.3441 65.8536 71.3441 66.2664C71.3441 66.6791 71.5059 67.0678 71.796 67.3606C72.0861 67.6533 72.4713 67.8069 72.8803 67.8117C73.2893 67.8117 73.6746 67.6485 73.9647 67.3558C74.2548 67.063 74.4117 66.6743 74.4117 66.2616C74.4117 65.4121 73.7269 64.721 72.8851 64.721L72.8803 64.7162Z" fill="white"/>
<path d="M39.379 76.3281C38.9849 76.3281 38.6667 75.9303 38.6667 75.4376C38.6667 74.9448 38.9849 74.547 39.379 74.547H51.3187C57.1271 74.4758 62.356 72.7972 64.6309 66.1063C64.7829 65.6551 65.2056 65.4414 65.5665 65.6373C65.9275 65.8273 66.0985 66.3556 65.9417 66.8068C63.4436 74.1508 57.7065 76.2509 51.3235 76.3281H39.379Z" fill="white"/>
<path d="M41.7526 47.6609C41.5481 47.6609 41.3483 47.5745 41.2056 47.4017C40.9536 47.0946 40.9916 46.6434 41.296 46.3891C44.102 44.0183 47.669 42.7129 51.3263 42.7129C51.7211 42.7129 52.0397 43.0344 52.0397 43.4328C52.0397 43.8311 51.7211 44.1526 51.3263 44.1526C48.0019 44.1526 44.7631 45.3381 42.2091 47.4929C42.076 47.6033 41.9143 47.6609 41.7526 47.6609Z" fill="white"/>
<path d="M63.3541 50.2386C63.1401 50.2386 62.9261 50.1426 62.7882 49.9554C61.5231 48.2805 59.9489 46.9175 58.1178 45.9049C57.7706 45.7129 57.647 45.2762 57.8372 44.9259C58.0275 44.5755 58.4602 44.4507 58.8074 44.6427C60.8144 45.7513 62.5361 47.2487 63.9248 49.0868C64.1626 49.4035 64.1056 49.8546 63.7917 50.0946C63.6633 50.1954 63.5111 50.2434 63.3589 50.2434L63.3541 50.2386Z" fill="white"/>
<path d="M66.6976 60.2869C66.3028 60.2869 65.9842 59.9653 65.9842 59.567C65.9842 57.3258 65.5228 55.1517 64.6192 53.1073C64.4575 52.7425 64.6192 52.3202 64.9807 52.157C65.3421 51.9939 65.7606 52.157 65.9223 52.5218C66.9068 54.7534 67.411 57.1242 67.411 59.567C67.411 59.9653 67.0923 60.2869 66.6976 60.2869Z" fill="white"/>
<path d="M51.3263 44.1469C50.9316 44.1469 50.6129 43.8253 50.6129 43.427V34.1261C50.6129 33.7278 50.9316 33.4062 51.3263 33.4062C51.7211 33.4062 52.0397 33.7278 52.0397 34.1261V43.427C52.0397 43.8253 51.7211 44.1469 51.3263 44.1469Z" fill="white"/>
<path d="M51.3263 34.8463C49.5904 34.8463 48.1779 33.421 48.1779 31.6693C48.1779 29.9175 49.5904 28.4922 51.3263 28.4922C53.0622 28.4922 54.4747 29.9175 54.4747 31.6693C54.4747 33.421 53.0622 34.8463 51.3263 34.8463ZM51.3263 29.9319C50.3751 29.9319 49.6046 30.7094 49.6046 31.6693C49.6046 32.6291 50.3751 33.4066 51.3263 33.4066C52.2775 33.4066 53.048 32.6291 53.048 31.6693C53.048 30.7094 52.2775 29.9319 51.3263 29.9319Z" fill="white"/>
<path d="M44.7155 45.6794C44.3208 45.6794 44.0021 45.3578 44.0021 44.9595V40.1027C44.0021 39.7044 44.3208 39.3828 44.7155 39.3828C45.1103 39.3828 45.4289 39.7044 45.4289 40.1027V44.9595C45.4289 45.3578 45.1103 45.6794 44.7155 45.6794Z" fill="white"/>
<path d="M44.7155 40.8209C42.9796 40.8209 41.5671 39.3956 41.5671 37.6439C41.5671 35.8922 42.9796 34.4668 44.7155 34.4668C46.4514 34.4668 47.864 35.8922 47.864 37.6439C47.864 39.3956 46.4514 40.8209 44.7155 40.8209ZM44.7155 35.9066C43.7643 35.9066 42.9939 36.684 42.9939 37.6439C42.9939 38.6037 43.7643 39.3812 44.7155 39.3812C45.6667 39.3812 46.4372 38.6037 46.4372 37.6439C46.4372 36.684 45.6667 35.9066 44.7155 35.9066Z" fill="white"/>
<path d="M58.4603 45.6794C58.0655 45.6794 57.7469 45.3578 57.7469 44.9595V40.1027C57.7469 39.7044 58.0655 39.3828 58.4603 39.3828C58.855 39.3828 59.1736 39.7044 59.1736 40.1027V44.9595C59.1736 45.3578 58.855 45.6794 58.4603 45.6794Z" fill="white"/>
<path d="M58.4603 40.8209C56.7243 40.8209 55.3118 39.3956 55.3118 37.6439C55.3118 35.8922 56.7243 34.4668 58.4603 34.4668C60.1962 34.4668 61.6087 35.8922 61.6087 37.6439C61.6087 39.3956 60.1962 40.8209 58.4603 40.8209ZM58.4603 35.9066C57.5091 35.9066 56.7386 36.684 56.7386 37.6439C56.7386 38.6037 57.5091 39.3812 58.4603 39.3812C59.4115 39.3812 60.1819 38.6037 60.1819 37.6439C60.1819 36.684 59.4115 35.9066 58.4603 35.9066Z" fill="white"/>
<path d="M39.5736 76.3273H3.10738C1.39593 76.3273 0 74.5757 0 72.4282V6.89911C0 4.7516 1.39593 3 3.10738 3H39.5593C41.2707 3 42.6667 4.7516 42.6667 6.89911V16.4969C42.6667 16.9948 42.3464 17.3967 41.9496 17.3967C41.5528 17.3967 41.2325 16.9948 41.2325 16.4969V6.89911C41.2325 5.74137 40.4819 4.79959 39.5593 4.79959H3.10738C2.18472 4.79959 1.43417 5.74137 1.43417 6.89911V72.4282C1.43417 73.5859 2.18472 74.5277 3.10738 74.5277H39.5736C39.9704 74.5277 40.2907 74.9296 40.2907 75.4275C40.2907 75.9254 39.9704 76.3273 39.5736 76.3273Z" fill="white"/>
<path d="M36 11.0723H6.66666V22.5086H36V11.0723Z" fill="#69F5DB"/>
<path d="M32.5354 41.5316H26.4953C26.1005 41.5316 25.7819 41.21 25.7819 40.8117C25.7819 40.4133 26.1005 40.0918 26.4953 40.0918H32.5354C32.9301 40.0918 33.2487 40.4133 33.2487 40.8117C33.2487 41.21 32.9301 41.5316 32.5354 41.5316Z" fill="white"/>
<path d="M15.9657 41.5316H9.92564C9.5309 41.5316 9.21225 41.21 9.21225 40.8117C9.21225 40.4133 9.5309 40.0918 9.92564 40.0918H15.9657C16.3605 40.0918 16.6791 40.4133 16.6791 40.8117C16.6791 41.21 16.3605 41.5316 15.9657 41.5316Z" fill="white"/>
<path d="M12.9458 44.5777C12.5511 44.5777 12.2324 44.2562 12.2324 43.8578V37.7628C12.2324 37.3645 12.5511 37.043 12.9458 37.043C13.3406 37.043 13.6592 37.3645 13.6592 37.7628V43.8578C13.6592 44.2562 13.3406 44.5777 12.9458 44.5777Z" fill="white"/>
<path d="M15.0811 60.1863C14.9004 60.1863 14.7149 60.1144 14.577 59.9752L10.3062 55.6655C10.0256 55.3823 10.0256 54.9264 10.3062 54.6481C10.5868 54.3697 11.0386 54.3649 11.3144 54.6481L15.5853 58.9577C15.8659 59.2409 15.8659 59.6968 15.5853 59.9752C15.4473 60.1144 15.2619 60.1863 15.0811 60.1863Z" fill="white"/>
<path d="M10.8103 60.1862C10.6296 60.1862 10.4441 60.1142 10.3062 59.975C10.0256 59.6919 10.0256 59.2359 10.3062 58.9576L14.577 54.6479C14.8576 54.3648 15.3094 54.3648 15.5853 54.6479C15.8611 54.9311 15.8659 55.387 15.5853 55.6653L11.3144 59.975C11.1765 60.1142 10.991 60.1862 10.8103 60.1862Z" fill="white"/>
<path d="M31.8886 57.9534H25.8485C25.4538 57.9534 25.1351 57.6319 25.1351 57.2336C25.1351 56.8352 25.4538 56.5137 25.8485 56.5137H31.8886C32.2833 56.5137 32.602 56.8352 32.602 57.2336C32.602 57.6319 32.2833 57.9534 31.8886 57.9534Z" fill="white"/>
<path d="M28.9256 55.2664C28.4167 55.2664 28.0029 54.8489 28.0029 54.3353C28.0029 53.8218 28.4167 53.4043 28.9256 53.4043C29.4345 53.4043 29.8482 53.8218 29.8482 54.3353C29.8482 54.8489 29.4345 55.2664 28.9256 55.2664ZM28.9256 53.8266C28.6497 53.8266 28.4215 54.057 28.4215 54.3353C28.4215 54.6137 28.6497 54.8441 28.9256 54.8441C29.2014 54.8441 29.4297 54.6137 29.4297 54.3353C29.4297 54.057 29.2014 53.8266 28.9256 53.8266Z" fill="white"/>
<path d="M28.9256 61.2742C28.4167 61.2742 28.0029 60.8567 28.0029 60.3432C28.0029 59.8296 28.4167 59.4121 28.9256 59.4121C29.4345 59.4121 29.8482 59.8296 29.8482 60.3432C29.8482 60.8567 29.4345 61.2742 28.9256 61.2742ZM28.9256 59.8344C28.6497 59.8344 28.4215 60.0648 28.4215 60.3432C28.4215 60.6215 28.6497 60.8519 28.9256 60.8519C29.2014 60.8519 29.4297 60.6215 29.4297 60.3432C29.4297 60.0648 29.2014 59.8344 28.9256 59.8344Z" fill="white"/>
<path d="M37.1488 49.43H5.31236C4.91762 49.43 4.59897 49.1084 4.59897 48.7101C4.59897 48.3118 4.91762 47.9902 5.31236 47.9902H37.1488C37.5435 47.9902 37.8622 48.3118 37.8622 48.7101C37.8622 49.1084 37.5435 49.43 37.1488 49.43Z" fill="white"/>
<path d="M21.4019 65.4933C21.0071 65.4933 20.6885 65.1718 20.6885 64.7734V32.6476C20.6885 32.2493 21.0071 31.9277 21.4019 31.9277C21.7966 31.9277 22.1153 32.2493 22.1153 32.6476V64.7734C22.1153 65.1718 21.7966 65.4933 21.4019 65.4933Z" fill="white"/>
</g>
<defs>
<clipPath id="clip0_649_7198">
<rect width="80" height="74" fill="white" transform="translate(0 3)"/>
</clipPath>
</defs>
</svg>
