<svg width="120" height="120" viewBox="0 0 120 120" fill="none" xmlns="http://www.w3.org/2000/svg">
<g clip-path="url(#clip0_651_9531)">
<path d="M70.9599 120H49.0753L47.8707 115.867C45.9979 109.628 41.8038 104.433 36.0623 101.23L35.8601 101.117C30.1801 97.8017 23.5505 96.8271 17.1671 98.3674L12.9467 99.4029L2 80.6241L5.0598 77.5349C6.55454 75.9946 7.83825 74.2629 8.86697 72.3746C9.21868 71.7394 10.01 71.5044 10.6519 71.8525C11.2937 72.2006 11.5311 72.9925 11.1794 73.619C10.0364 75.7075 8.61199 77.6306 6.94141 79.3449L5.27962 81.0331L14.2304 96.392L16.5253 95.8264C23.5857 94.1208 30.9099 95.1998 37.1614 98.846L37.346 98.9504C43.6854 102.483 48.3191 108.227 50.3941 115.127L51.0536 117.39H68.964L69.6234 115.136C71.6897 108.235 76.3146 102.501 82.654 98.9765L82.7947 98.8895C89.0462 95.2173 96.3791 94.1208 103.448 95.809L105.752 96.3746L114.712 81.0331L113.067 79.3449C111.115 77.3347 109.506 75.0461 108.275 72.5487C107.959 71.896 108.231 71.1215 108.882 70.7996C109.542 70.4863 110.324 70.7561 110.649 71.4C111.757 73.6625 113.217 75.7249 114.967 77.5349L117.982 80.6328L107.036 99.3681L102.815 98.3326C96.4319 96.8097 89.7935 97.8017 84.1399 101.117L83.9729 101.213C78.205 104.424 74.0197 109.61 72.1469 115.85L70.9423 119.983L70.9599 120Z" fill="#69F5DB"/>
<path d="M109.48 49.349C109.287 49.349 109.093 49.3055 108.9 49.2184C108.249 48.9052 107.977 48.122 108.293 47.4694C109.524 44.9719 111.133 42.6833 113.085 40.6818L114.729 38.9936L105.77 23.6347L103.475 24.2003C96.4231 25.8798 89.1077 24.7921 82.865 21.1372L82.6892 21.0415C76.3497 17.5172 71.7161 11.7652 69.641 4.86457L68.9816 2.60206H51.0624L50.3941 4.86457C48.3367 11.7739 43.7118 17.5172 37.3812 21.0502L37.0119 21.2678H36.9152C30.734 24.7834 23.5241 25.8189 16.578 24.1742L14.2568 23.6086L5.27962 38.9936L6.92382 40.6818C8.4889 42.2917 9.83415 44.093 10.942 46.0422C11.3025 46.6688 11.0739 47.4694 10.4408 47.8174C9.80778 48.1742 8.99886 47.948 8.64716 47.3214C7.6536 45.5723 6.43144 43.9451 5.03343 42.4918L2 39.3939L12.9643 20.6151L17.1935 21.6506C23.5769 23.1648 30.2153 22.1728 35.8777 18.8573L36.1854 18.6746H36.2821C41.9269 15.4461 46.0155 10.3033 47.8531 4.15101L49.0665 0.0175781H70.9423L72.1469 4.15101C74.0197 10.3903 78.2137 15.5941 83.9553 18.7877L84.1575 18.9008C89.8199 22.225 96.4407 23.2083 102.815 21.6855L107.036 20.6499L117.982 39.4113L114.967 42.5092C113.208 44.3192 111.757 46.3729 110.649 48.6354C110.421 49.0966 109.955 49.3664 109.462 49.3664L109.48 49.349Z" fill="#69F5DB"/>
<path d="M60.0134 79.6317C49.48 79.6317 40.916 70.8341 40.916 60.0175C40.916 49.201 49.48 40.4033 60.0134 40.4033C70.5469 40.4033 79.1108 49.201 79.1108 60.0175C79.1108 70.8341 70.5469 79.6317 60.0134 79.6317ZM60.0134 43.0139C50.9395 43.0139 43.5538 50.6455 43.5538 60.0175C43.5538 69.3895 50.9395 77.0212 60.0134 77.0212C69.0873 77.0212 76.4731 69.3895 76.4731 60.0175C76.4731 50.6455 69.0873 43.0139 60.0134 43.0139Z" fill="#69F5DB"/>
<path d="M60.0132 46.9385C58.3162 46.9385 56.6456 47.2953 55.0981 47.9914C61.8069 51.2372 64.5941 59.2518 61.3145 65.8913C59.9956 68.5715 57.8062 70.7383 55.0981 72.0436C56.6368 72.7398 58.3162 73.1053 60.0132 73.1053C66.9065 73.1053 72.5162 67.2314 72.5162 60.0523C72.5162 52.8732 66.9505 46.9385 60.0132 46.9385Z" fill="#AE9AFF"/>
<path d="M103.607 61.3225H88.5625C87.8328 61.3225 87.2437 60.7395 87.2437 60.0172C87.2437 59.2949 87.8328 58.7119 88.5625 58.7119H103.607C104.336 58.7119 104.925 59.2949 104.925 60.0172C104.925 60.7395 104.336 61.3225 103.607 61.3225Z" fill="#69F5DB"/>
<path d="M96.0802 49.0266H85.9424C85.2126 49.0266 84.6235 48.4436 84.6235 47.7213C84.6235 46.999 85.2126 46.416 85.9424 46.416H96.0802C96.81 46.416 97.3991 46.999 97.3991 47.7213C97.3991 48.4436 96.81 49.0266 96.0802 49.0266Z" fill="#69F5DB"/>
<path d="M95.878 73.5051H85.9776C85.2478 73.5051 84.6587 72.9221 84.6587 72.1998C84.6587 71.4776 85.2478 70.8945 85.9776 70.8945H95.878C96.6078 70.8945 97.1969 71.4776 97.1969 72.1998C97.1969 72.9221 96.6078 73.5051 95.878 73.5051Z" fill="#69F5DB"/>
<path d="M107.774 65.4557C106.315 65.4557 104.943 64.8901 103.905 63.872C102.868 62.8452 102.296 61.4877 102.288 60.0344C102.288 57.0409 104.741 54.5957 107.765 54.5957C110.799 54.5957 113.261 57.0235 113.261 60.017C113.261 63.0105 110.808 65.4557 107.783 65.4557H107.774ZM107.774 57.2063C106.2 57.2063 104.925 58.4768 104.925 60.0344C104.925 60.7915 105.224 61.4964 105.761 62.0272C106.297 62.558 107.009 62.8452 107.774 62.8452C108.539 62.8452 109.251 62.5493 109.788 62.0185C110.324 61.4876 110.623 60.7741 110.614 60.0257C110.614 58.4768 109.33 57.215 107.765 57.215L107.774 57.2063Z" fill="#69F5DB"/>
<path d="M100.248 53.152C97.2231 53.152 94.7612 50.7155 94.7612 47.722C94.7612 44.7285 97.2231 42.292 100.248 42.292C103.272 42.292 105.734 44.7285 105.734 47.722C105.734 50.7155 103.272 53.152 100.248 53.152ZM100.248 44.9026C98.6739 44.9026 97.399 46.1644 97.399 47.722C97.399 49.2797 98.6739 50.5415 100.248 50.5415C101.822 50.5415 103.097 49.2797 103.097 47.722C103.097 46.1644 101.822 44.9026 100.248 44.9026Z" fill="#69F5DB"/>
<path d="M100.037 77.6305C97.0122 77.6305 94.5503 75.194 94.5503 72.2005C94.5503 69.2071 97.0122 66.7705 100.037 66.7705C103.061 66.7705 105.523 69.2071 105.523 72.2005C105.523 75.194 103.061 77.6305 100.037 77.6305ZM100.037 69.3811C98.463 69.3811 97.1881 70.6429 97.1881 72.2005C97.1881 73.7582 98.463 75.02 100.037 75.02C101.611 75.02 102.886 73.7582 102.886 72.2005C102.886 70.6429 101.611 69.3811 100.037 69.3811Z" fill="#69F5DB"/>
<path d="M31.464 61.3225H16.42C15.6902 61.3225 15.1011 60.7395 15.1011 60.0172C15.1011 59.2949 15.6902 58.7119 16.42 58.7119H31.464C32.1938 58.7119 32.7829 59.2949 32.7829 60.0172C32.7829 60.7395 32.1938 61.3225 31.464 61.3225Z" fill="#69F5DB"/>
<path d="M34.0841 49.0266H23.9463C23.2165 49.0266 22.6274 48.4436 22.6274 47.7213C22.6274 46.999 23.2165 46.416 23.9463 46.416H34.0841C34.8139 46.416 35.403 46.999 35.403 47.7213C35.403 48.4436 34.8139 49.0266 34.0841 49.0266Z" fill="#69F5DB"/>
<path d="M34.0489 73.5051H24.1485C23.4187 73.5051 22.8296 72.9221 22.8296 72.1998C22.8296 71.4776 23.4187 70.8945 24.1485 70.8945H34.0489C34.7787 70.8945 35.3678 71.4776 35.3678 72.1998C35.3678 72.9221 34.7787 73.5051 34.0489 73.5051Z" fill="#69F5DB"/>
<path d="M12.2522 65.447C9.22754 65.447 6.76562 63.0104 6.76562 60.0169C6.76562 57.0235 9.22754 54.5869 12.2522 54.5869C15.2768 54.5869 17.7387 57.0235 17.7387 60.0169C17.7387 63.0104 15.2768 65.447 12.2522 65.447ZM12.2522 57.1975C10.6783 57.1975 9.40339 58.4593 9.40339 60.0169C9.40339 61.5746 10.6783 62.8364 12.2522 62.8364C13.826 62.8364 15.101 61.5746 15.101 60.0169C15.101 58.4593 13.826 57.1975 12.2522 57.1975Z" fill="#69F5DB"/>
<path d="M19.7785 53.152C16.7539 53.152 14.292 50.7155 14.292 47.722C14.292 44.7285 16.7539 42.292 19.7785 42.292C22.8032 42.292 25.2651 44.7285 25.2651 47.722C25.2651 50.7155 22.8032 53.152 19.7785 53.152ZM19.7785 44.9026C18.2047 44.9026 16.9298 46.1644 16.9298 47.722C16.9298 49.2797 18.2047 50.5415 19.7785 50.5415C21.3524 50.5415 22.6273 49.2797 22.6273 47.722C22.6273 46.1644 21.3524 44.9026 19.7785 44.9026Z" fill="#69F5DB"/>
<path d="M19.9895 77.6305C16.9648 77.6305 14.5029 75.194 14.5029 72.2005C14.5029 69.2071 16.9648 66.7705 19.9895 66.7705C23.0141 66.7705 25.476 69.2071 25.476 72.2005C25.476 75.194 23.0141 77.6305 19.9895 77.6305ZM19.9895 69.3811C18.4156 69.3811 17.1407 70.6429 17.1407 72.2005C17.1407 73.7582 18.4156 75.02 19.9895 75.02C21.5633 75.02 22.8383 73.7582 22.8383 72.2005C22.8383 70.6429 21.5633 69.3811 19.9895 69.3811Z" fill="#69F5DB"/>
<path d="M60.0221 90.7182C48.1258 90.6051 37.4605 83.5478 32.8268 72.74C32.5454 72.0786 32.8532 71.3129 33.5214 71.0257C34.1896 70.7385 34.9634 71.0518 35.2535 71.7131C39.4827 81.5725 49.2073 88.0032 60.0221 88.1076C70.8194 88.0032 80.5351 81.5725 84.7731 71.7131C85.0545 71.0518 85.837 70.7385 86.5053 71.0257C87.1735 71.3042 87.49 72.0699 87.1999 72.74C82.5574 83.5478 71.8921 90.6051 60.0221 90.7182Z" fill="#69F5DB"/>
<path d="M31.4463 61.3661C30.7165 61.3661 30.1274 60.7831 30.1274 60.0608C30.1274 55.6141 31.0507 51.2979 32.8795 47.2341C33.1785 46.5728 33.9522 46.2769 34.6204 46.5728C35.2887 46.8686 35.5876 47.6344 35.2887 48.2958C33.6093 52.0202 32.7652 55.9796 32.7652 60.0608C32.7652 60.7831 32.1761 61.3661 31.4463 61.3661Z" fill="#69F5DB"/>
<path d="M37.68 42.9792C37.4074 42.9792 37.126 42.8922 36.8886 42.7181C36.3083 42.283 36.194 41.4651 36.6337 40.8907C42.1378 33.6681 50.8776 29.3345 60.013 29.291C69.1661 29.3345 77.9059 33.6681 83.4012 40.8907C83.8408 41.4651 83.7265 42.283 83.1462 42.7181C82.5659 43.1532 81.7394 43.0401 81.2998 42.4658C76.288 35.8958 68.3308 31.9451 60.013 31.9103C51.7041 31.9451 43.7468 35.8958 38.7351 42.4658C38.4801 42.8052 38.0844 42.9879 37.68 42.9879V42.9792Z" fill="#69F5DB"/>
<path d="M88.5628 61.3223C87.833 61.3223 87.2439 60.7393 87.2439 60.017C87.2439 55.9358 86.391 51.9764 84.7205 48.252C84.4215 47.5906 84.7204 46.8249 85.3887 46.529C86.0569 46.2418 86.8307 46.529 87.1296 47.1904C88.9585 51.2542 89.8817 55.5703 89.8817 60.017C89.8817 60.7393 89.2926 61.3223 88.5628 61.3223Z" fill="#69F5DB"/>
</g>
<defs>
<clipPath id="clip0_651_9531">
<rect width="116" height="120" fill="white" transform="translate(2)"/>
</clipPath>
</defs>
</svg>
