<svg width="80" height="80" viewBox="0 0 80 80" fill="none" xmlns="http://www.w3.org/2000/svg">
<g clip-path="url(#clip0_651_9826)">
<path d="M34.6923 42.9664C34.2181 42.9664 33.8353 42.5846 33.8353 42.1116V18.5909L26.3794 17.6847C25.9509 17.6334 25.6253 17.2686 25.6253 16.8355V11.3529C25.6253 10.8798 26.0081 10.498 26.4823 10.498H30.1331V7.23801H21.9745C21.5003 7.23801 21.1175 6.85617 21.1175 6.38313V0.854883C21.1175 0.381848 21.5003 0 21.9745 0H45.0392C45.5134 0 45.8962 0.381848 45.8962 0.854883V42.0603C45.8962 42.5333 45.5134 42.9152 45.0392 42.9152C44.565 42.9152 44.1822 42.5333 44.1822 42.0603V1.70977H22.8315V5.52825H30.9901C31.4643 5.52825 31.8471 5.91009 31.8471 6.38313V11.3529C31.8471 11.8259 31.4643 12.2077 30.9901 12.2077H27.3393V16.0775L34.7952 16.9837C35.2237 17.035 35.5493 17.3997 35.5493 17.8329V42.1116C35.5493 42.5846 35.1665 42.9664 34.6923 42.9664Z" fill="#69F5DB"/>
<path d="M40 72.8644C33.2697 72.8644 27.7963 67.1994 27.7963 60.235C27.7963 53.2705 33.2697 47.6055 40 47.6055C46.7303 47.6055 52.2037 53.2705 52.2037 60.235C52.2037 67.1994 46.7303 72.8644 40 72.8644ZM40 49.3152C34.2181 49.3152 29.5103 54.2166 29.5103 60.235C29.5103 66.2533 34.2181 71.1547 40 71.1547C45.7819 71.1547 50.4897 66.259 50.4897 60.235C50.4897 54.2109 45.7819 49.3152 40 49.3152Z" fill="#69F5DB"/>
<path d="M40 51.9766C38.8745 51.9766 37.7661 52.2387 36.7549 52.7289C40.9142 54.8775 42.5368 59.984 40.3828 64.1273C39.5773 65.6775 38.3089 66.9427 36.7549 67.7463C37.7661 68.2365 38.8745 68.4986 40 68.4986C44.3136 68.4986 47.8273 64.7941 47.8273 60.2347C47.8273 55.6754 44.3136 51.9766 40 51.9766Z" fill="#AE9AFF"/>
<path d="M67.8239 61.0906H58.2198C57.7456 61.0906 57.3628 60.7088 57.3628 60.2357C57.3628 59.7627 57.7456 59.3809 58.2198 59.3809H67.8239C68.2981 59.3809 68.6809 59.7627 68.6809 60.2357C68.6809 60.7088 68.2981 61.0906 67.8239 61.0906Z" fill="#69F5DB"/>
<path d="M63.0247 53.1785H56.5458C56.0716 53.1785 55.6888 52.7967 55.6888 52.3236C55.6888 51.8506 56.0716 51.4688 56.5458 51.4688H63.0247C63.4989 51.4688 63.8817 51.8506 63.8817 52.3236C63.8817 52.7967 63.4989 53.1785 63.0247 53.1785Z" fill="#69F5DB"/>
<path d="M62.8875 68.9324H56.5686C56.0944 68.9324 55.7116 68.5506 55.7116 68.0775C55.7116 67.6045 56.0944 67.2227 56.5686 67.2227H62.8875C63.3617 67.2227 63.7445 67.6045 63.7445 68.0775C63.7445 68.5506 63.3617 68.9324 62.8875 68.9324Z" fill="#69F5DB"/>
<path d="M70.4864 63.7386C68.5495 63.7386 66.9727 62.1656 66.9727 60.2335C66.9727 58.3015 68.5495 56.7285 70.4864 56.7285C72.4232 56.7285 73.9943 58.3015 74 60.2335C74 62.1656 72.4232 63.7386 70.4864 63.7386ZM70.4864 58.4383C69.4979 58.4383 68.6867 59.2419 68.6867 60.2335C68.6867 61.2252 69.4922 62.0288 70.4864 62.0288C71.4805 62.0288 72.286 61.2252 72.286 60.2335C72.286 59.2476 71.4748 58.4383 70.4864 58.4383Z" fill="#69F5DB"/>
<path d="M65.6814 55.8284C63.7446 55.8284 62.1677 54.2554 62.1677 52.3234C62.1677 50.3913 63.7446 48.8184 65.6814 48.8184C67.6182 48.8184 69.1951 50.3913 69.1951 52.3234C69.1951 54.2554 67.6182 55.8284 65.6814 55.8284ZM65.6814 50.5281C64.6873 50.5281 63.8817 51.3317 63.8817 52.3234C63.8817 53.315 64.6873 54.1186 65.6814 54.1186C66.6755 54.1186 67.4811 53.315 67.4811 52.3234C67.4811 51.3317 66.6755 50.5281 65.6814 50.5281Z" fill="#69F5DB"/>
<path d="M65.5502 71.5823C63.6133 71.5823 62.0365 70.0093 62.0365 68.0773C62.0365 66.1452 63.6133 64.5723 65.5502 64.5723C67.487 64.5723 69.0581 66.1509 69.0638 68.0773C69.0638 70.0093 67.487 71.5823 65.5502 71.5823ZM65.5502 66.282C64.5617 66.282 63.7505 67.0856 63.7505 68.0773C63.7505 69.0689 64.556 69.8725 65.5502 69.8725C66.5443 69.8725 67.3498 69.0689 67.3498 68.0773C67.3498 67.0856 66.5386 66.282 65.5502 66.282Z" fill="#69F5DB"/>
<path d="M21.7802 61.0906H12.1704C11.6962 61.0906 11.3134 60.7088 11.3134 60.2357C11.3134 59.7627 11.6962 59.3809 12.1704 59.3809H21.7802C22.2544 59.3809 22.6372 59.7627 22.6372 60.2357C22.6372 60.7088 22.2544 61.0906 21.7802 61.0906Z" fill="#69F5DB"/>
<path d="M23.4484 53.1785H16.9752C16.501 53.1785 16.1182 52.7967 16.1182 52.3236C16.1182 51.8506 16.501 51.4688 16.9752 51.4688H23.4484C23.9226 51.4688 24.3054 51.8506 24.3054 52.3236C24.3054 52.7967 23.9226 53.1785 23.4484 53.1785Z" fill="#69F5DB"/>
<path d="M23.4256 68.9324H17.1067C16.6325 68.9324 16.2497 68.5506 16.2497 68.0775C16.2497 67.6045 16.6325 67.2227 17.1067 67.2227H23.4256C23.8998 67.2227 24.2826 67.6045 24.2826 68.0775C24.2826 68.5506 23.8998 68.9324 23.4256 68.9324Z" fill="#69F5DB"/>
<path d="M9.51941 63.75H9.5137C8.571 63.75 7.69114 63.3795 7.0284 62.7184C6.35994 62.0516 6 61.1682 6 60.2335C6 58.3072 7.57688 56.7342 9.5137 56.7285C10.4678 56.7285 11.3534 57.099 12.0161 57.7601C12.6789 58.4269 13.0445 59.3046 13.0388 60.2449C13.0388 62.177 11.4562 63.75 9.51941 63.75ZM9.51941 58.4383C8.51958 58.4383 7.714 59.2476 7.70828 60.2335C7.70828 60.7123 7.89682 61.1682 8.23391 61.5102C8.57671 61.8521 9.02806 62.0402 9.50798 62.0402C10.5021 62.0402 11.3134 61.2366 11.3134 60.2449C11.3134 59.7662 11.1249 59.3103 10.7878 58.9683C10.445 58.6264 9.99361 58.4383 9.5137 58.4383H9.51941Z" fill="#69F5DB"/>
<path d="M14.3186 55.8284C12.3818 55.8284 10.8049 54.2554 10.8049 52.3234C10.8049 50.3913 12.3818 48.8184 14.3186 48.8184C16.2554 48.8184 17.8323 50.3913 17.8323 52.3234C17.8323 54.2554 16.2554 55.8284 14.3186 55.8284ZM14.3186 50.5281C13.3245 50.5281 12.5189 51.3317 12.5189 52.3234C12.5189 53.315 13.3245 54.1186 14.3186 54.1186C15.3127 54.1186 16.1183 53.315 16.1183 52.3234C16.1183 51.3317 15.3127 50.5281 14.3186 50.5281Z" fill="#69F5DB"/>
<path d="M14.4557 71.5937H14.45C12.5075 71.5937 10.9363 70.0093 10.9363 68.0773C10.9363 66.1509 12.5189 64.578 14.45 64.5723C16.404 64.5723 17.9808 66.1566 17.9751 68.0887C17.9751 69.0291 17.6038 69.9067 16.941 70.5678C16.2783 71.229 15.3927 71.588 14.4614 71.588L14.4557 71.5937ZM12.6503 68.0773C12.6503 69.0689 13.4559 69.8782 14.45 69.8839C14.9299 69.8839 15.3813 69.6959 15.7241 69.3596C16.0669 69.0177 16.2554 68.5674 16.2554 68.0887C16.2554 67.097 15.4498 66.2877 14.4557 66.282C13.4559 66.282 12.6503 67.0913 12.6446 68.0773H12.6503Z" fill="#69F5DB"/>
<path d="M39.9944 79.9984C32.4014 79.9243 25.5912 75.382 22.6259 68.429C22.4431 67.9958 22.6431 67.4943 23.0773 67.3062C23.5115 67.1182 24.0143 67.3233 24.2028 67.7565C26.8995 74.0826 33.0985 78.2203 39.9887 78.2886C46.8676 78.2203 53.0608 74.0883 55.7575 67.7565C55.9403 67.3233 56.4488 67.1182 56.883 67.3062C57.3172 67.4886 57.5229 67.9901 57.3344 68.429C54.3692 75.382 47.5589 79.9243 39.983 79.9984H39.9944Z" fill="#69F5DB"/>
<path d="M21.7802 61.0901C21.306 61.0901 20.9232 60.7083 20.9232 60.2352C20.9175 57.3742 21.5003 54.593 22.6658 51.9771C22.86 51.5439 23.3628 51.3501 23.797 51.5439C24.2312 51.7377 24.4255 52.2392 24.2312 52.6724C23.1685 55.0717 22.6315 57.6136 22.6372 60.2352C22.6372 60.7083 22.2544 61.0901 21.7802 61.0901Z" fill="#69F5DB"/>
<path d="M25.7167 49.3141C25.5396 49.3141 25.3567 49.2571 25.2025 49.1431C24.8254 48.8582 24.7511 48.3224 25.0311 47.9463C28.5505 43.2843 34.1438 40.4917 40 40.4746C40.4742 40.4746 40.857 40.8565 40.857 41.3295C40.857 41.8025 40.4742 42.1844 40 42.1844C34.6809 42.1958 29.596 44.7376 26.4023 48.9722C26.2366 49.1944 25.9795 49.3141 25.7167 49.3141Z" fill="#69F5DB"/>
<path d="M54.2547 49.3393C53.9976 49.3393 53.7405 49.2253 53.5691 49.0031C51.3467 46.0794 48.3072 43.9707 44.7878 42.9049C44.3364 42.7681 44.0793 42.2894 44.2164 41.8392C44.3536 41.3889 44.8335 41.1324 45.2848 41.2692C49.1527 42.4376 52.4893 44.7572 54.9346 47.9715C55.2203 48.3477 55.146 48.8834 54.7689 49.1683C54.6147 49.288 54.4319 49.345 54.249 49.345L54.2547 49.3393Z" fill="#69F5DB"/>
<path d="M58.2199 61.0895C57.7457 61.0895 57.3629 60.7077 57.3629 60.2346C57.3629 57.613 56.8316 55.0711 55.7746 52.6718C55.5861 52.2386 55.7746 51.7371 56.2145 51.5433C56.6488 51.3552 57.1515 51.5433 57.3458 51.9822C58.4999 54.5981 59.0884 57.3793 59.0826 60.2403C59.0826 60.7134 58.6998 61.0952 58.2256 61.0952L58.2199 61.0895Z" fill="#69F5DB"/>
</g>
<defs>
<clipPath id="clip0_651_9826">
<rect width="68" height="80" fill="white" transform="translate(6)"/>
</clipPath>
</defs>
</svg>
