<svg width="80" height="80" viewBox="0 0 80 80" fill="none" xmlns="http://www.w3.org/2000/svg">
<g clip-path="url(#clip0_651_7385)">
<path d="M76.9502 79.8404C76.506 79.8404 76.1474 79.4807 76.1474 79.035V67.1808L71.3092 62.961C70.9774 62.671 70.9399 62.161 71.2289 61.8228C71.5179 61.4899 72.0264 61.4523 72.3635 61.7422L77.48 66.2037C77.6567 66.354 77.7583 66.5795 77.7583 66.8104V79.0297C77.7583 79.4753 77.3998 79.835 76.9555 79.835L76.9502 79.8404Z" fill="#69F5DB"/>
<path d="M52.315 67.6192C52.0902 67.6192 51.8654 67.5279 51.7102 67.34C51.4212 67.0018 51.4533 66.4971 51.7905 66.2018L56.907 61.7404C57.2441 61.4451 57.7472 61.4827 58.0416 61.8209C58.3306 62.1591 58.2985 62.6638 57.9613 62.9591L52.8448 67.4205C52.6949 67.5548 52.5076 67.6192 52.3203 67.6192H52.315Z" fill="#69F5DB"/>
<path d="M3.04981 79.8388C2.60559 79.8388 2.24701 79.4791 2.24701 79.0334V66.8141C2.24701 66.5833 2.3487 66.3578 2.52531 66.2075L7.64182 61.746C7.97365 61.4561 8.48209 61.4883 8.77645 61.8265C9.06545 62.1648 9.03334 62.6694 8.69617 62.9647L3.85796 67.1846V79.0388C3.85796 79.4844 3.49938 79.8441 3.05516 79.8441L3.04981 79.8388Z" fill="#69F5DB"/>
<path d="M27.6797 67.621C27.4924 67.621 27.3051 67.5566 27.1552 67.4224L22.0387 62.961C21.7015 62.671 21.6694 62.161 21.9584 61.8228C22.2474 61.4899 22.7559 61.4523 23.093 61.7422L28.2095 66.2037C28.5467 66.4936 28.5788 67.0036 28.2898 67.3419C28.1293 67.5244 27.9098 67.621 27.685 67.621H27.6797Z" fill="#69F5DB"/>
<path d="M27.6797 67.619C27.4549 67.619 27.2301 67.5277 27.0749 67.3398C26.7859 67.0015 26.818 66.4969 27.1552 66.2016L32.2717 61.7402C32.6035 61.4502 33.112 61.4825 33.4063 61.8207C33.6953 62.1589 33.6632 62.6636 33.3261 62.9589L28.2095 67.4203C28.0597 67.5545 27.8724 67.619 27.6851 67.619H27.6797Z" fill="#69F5DB"/>
<path d="M52.315 79.8404C51.8708 79.8404 51.5122 79.4807 51.5122 79.035V67.1808L46.674 62.961C46.3421 62.671 46.3047 62.161 46.5937 61.8228C46.8827 61.4899 47.3911 61.4523 47.7283 61.7422L52.8448 66.2037C53.0214 66.354 53.1231 66.5795 53.1231 66.8104V79.0297C53.1231 79.4753 52.7645 79.835 52.3203 79.835L52.315 79.8404Z" fill="#69F5DB"/>
<path d="M27.6797 80.0008C27.2355 80.0008 26.8769 79.6411 26.8769 79.1955V66.8151C26.8769 66.3695 27.2355 66.0098 27.6797 66.0098C28.1239 66.0098 28.4825 66.3695 28.4825 66.8151V79.1955C28.4825 79.6411 28.1239 80.0008 27.6797 80.0008Z" fill="#69F5DB"/>
<path d="M15.2898 62.8482C10.837 62.8482 7.21368 58.5854 7.21368 53.3401C7.21368 48.0948 10.837 43.832 15.2898 43.832C19.7427 43.832 23.366 48.0948 23.366 53.3401C23.366 58.5854 19.7427 62.8482 15.2898 62.8482ZM15.2898 45.4427C11.7201 45.4427 8.81928 48.986 8.81928 53.3401C8.81928 57.6942 11.7201 61.2376 15.2898 61.2376C18.8596 61.2376 21.7604 57.6942 21.7604 53.3401C21.7604 48.986 18.8596 45.4427 15.2898 45.4427Z" fill="#69F5DB"/>
<path d="M40 62.8482C35.5471 62.8482 31.9238 58.5854 31.9238 53.3401C31.9238 48.0948 35.5471 43.832 40 43.832C44.4529 43.832 48.0762 48.0948 48.0762 53.3401C48.0762 58.5854 44.4529 62.8482 40 62.8482ZM40 45.4427C36.4302 45.4427 33.5294 48.986 33.5294 53.3401C33.5294 57.6942 36.4302 61.2376 40 61.2376C43.5698 61.2376 46.4706 57.6942 46.4706 53.3401C46.4706 48.986 43.5698 45.4427 40 45.4427Z" fill="#69F5DB"/>
<path d="M64.7048 62.8482C60.252 62.8482 56.6287 58.5854 56.6287 53.3401C56.6287 48.0948 60.252 43.832 64.7048 43.832C69.1577 43.832 72.781 48.0948 72.781 53.3401C72.781 58.5854 69.1577 62.8482 64.7048 62.8482ZM64.7048 45.4427C61.135 45.4427 58.2343 48.986 58.2343 53.3401C58.2343 57.6942 61.135 61.2376 64.7048 61.2376C68.2746 61.2376 71.1754 57.6942 71.1754 53.3401C71.1754 48.986 68.2746 45.4427 64.7048 45.4427Z" fill="#69F5DB"/>
<path d="M40 37.173C32.3467 37.173 26.1169 30.6876 26.1169 22.7203C26.1169 14.753 32.3467 8.26758 40 8.26758C47.6534 8.26758 53.8831 14.753 53.8831 22.7203C53.8831 30.6876 47.6534 37.173 40 37.173ZM40 9.87821C33.2297 9.87821 27.7225 15.6389 27.7225 22.7203C27.7225 29.8017 33.2297 35.5624 40 35.5624C46.7703 35.5624 52.2775 29.8017 52.2775 22.7203C52.2775 15.6389 46.7703 9.87821 40 9.87821Z" fill="#69F5DB"/>
<path d="M40 12.2949C38.9029 12.2949 37.8164 12.4936 36.7888 12.8694C42.2157 15.033 44.865 21.1963 42.7081 26.6403C41.6324 29.3515 39.4916 31.5044 36.7888 32.5781C37.8164 32.9539 38.9029 33.1526 40 33.1526C45.443 33.1526 49.8691 28.471 49.8691 22.7211C49.8691 16.9711 45.443 12.2949 40 12.2949Z" fill="#AE9AFF"/>
<path d="M72.0692 23.5247H61.0012C60.557 23.5247 60.1984 23.165 60.1984 22.7194C60.1984 22.2738 60.557 21.9141 61.0012 21.9141H72.0692C72.5134 21.9141 72.872 22.2738 72.872 22.7194C72.872 23.165 72.5134 23.5247 72.0692 23.5247Z" fill="#69F5DB"/>
<path d="M66.5352 14.3567H59.0745C58.6303 14.3567 58.2717 13.997 58.2717 13.5514C58.2717 13.1058 58.6303 12.7461 59.0745 12.7461H66.5352C66.9794 12.7461 67.338 13.1058 67.338 13.5514C67.338 13.997 66.9794 14.3567 66.5352 14.3567Z" fill="#69F5DB"/>
<path d="M66.38 32.6145H59.1013C58.657 32.6145 58.2985 32.2548 58.2985 31.8092C58.2985 31.3636 58.657 31.0039 59.1013 31.0039H66.38C66.8242 31.0039 67.1828 31.3636 67.1828 31.8092C67.1828 32.2548 66.8242 32.6145 66.38 32.6145Z" fill="#69F5DB"/>
<path d="M75.1359 26.5963C73.0058 26.5963 71.2717 24.8568 71.2717 22.72C71.2717 20.5832 73.0058 18.8438 75.1359 18.8438C77.266 18.8438 79 20.5832 79 22.72C79 24.8568 77.266 26.5963 75.1359 26.5963ZM75.1359 20.4544C73.8889 20.4544 72.8773 21.4691 72.8773 22.72C72.8773 23.9709 73.8889 24.9856 75.1359 24.9856C76.3829 24.9856 77.3944 23.9709 77.3944 22.72C77.3944 21.4691 76.3829 20.4544 75.1359 20.4544Z" fill="#69F5DB"/>
<path d="M69.5965 17.4283C67.4664 17.4283 65.7324 15.6888 65.7324 13.552C65.7324 11.4153 67.4664 9.67578 69.5965 9.67578C71.7266 9.67578 73.4607 11.4153 73.4607 13.552C73.4607 15.6888 71.7266 17.4283 69.5965 17.4283ZM69.5965 11.2864C68.3495 11.2864 67.338 12.3011 67.338 13.552C67.338 14.803 68.3495 15.8177 69.5965 15.8177C70.8435 15.8177 71.8551 14.803 71.8551 13.552C71.8551 12.3011 70.8435 11.2864 69.5965 11.2864Z" fill="#69F5DB"/>
<path d="M69.4467 35.6861C67.3166 35.6861 65.5826 33.9466 65.5826 31.8098C65.5826 29.6731 67.3166 27.9336 69.4467 27.9336C71.5768 27.9336 73.3108 29.6731 73.3108 31.8098C73.3108 33.9466 71.5768 35.6861 69.4467 35.6861ZM69.4467 29.5442C68.1997 29.5442 67.1881 30.5589 67.1881 31.8098C67.1881 33.0608 68.1997 34.0755 69.4467 34.0755C70.6937 34.0755 71.7052 33.0608 71.7052 31.8098C71.7052 30.5589 70.6937 29.5442 69.4467 29.5442Z" fill="#69F5DB"/>
<path d="M18.9988 23.5247H7.92548C7.48126 23.5247 7.12268 23.165 7.12268 22.7194C7.12268 22.2738 7.48126 21.9141 7.92548 21.9141H18.9988C19.443 21.9141 19.8016 22.2738 19.8016 22.7194C19.8016 23.165 19.443 23.5247 18.9988 23.5247Z" fill="#69F5DB"/>
<path d="M20.9255 14.3567H13.4648C13.0206 14.3567 12.662 13.997 12.662 13.5514C12.662 13.1058 13.0206 12.7461 13.4648 12.7461H20.9255C21.3697 12.7461 21.7283 13.1058 21.7283 13.5514C21.7283 13.997 21.3697 14.3567 20.9255 14.3567Z" fill="#69F5DB"/>
<path d="M20.8987 32.6145H13.6146C13.1704 32.6145 12.8118 32.2548 12.8118 31.8092C12.8118 31.3636 13.1704 31.0039 13.6146 31.0039H20.8987C21.3429 31.0039 21.7015 31.3636 21.7015 31.8092C21.7015 32.2548 21.3429 32.6145 20.8987 32.6145Z" fill="#69F5DB"/>
<path d="M4.86414 26.5963C2.73405 26.5963 1 24.8568 1 22.72C1 20.5832 2.73405 18.8438 4.86414 18.8438C6.99424 18.8438 8.72828 20.5832 8.72828 22.72C8.72828 24.8568 6.99424 26.5963 4.86414 26.5963ZM4.86414 20.4544C3.61713 20.4544 2.6056 21.4691 2.6056 22.72C2.6056 23.9709 3.61713 24.9856 4.86414 24.9856C6.11116 24.9856 7.12268 23.9709 7.12268 22.72C7.12268 21.4691 6.11116 20.4544 4.86414 20.4544Z" fill="#69F5DB"/>
<path d="M10.3981 17.4283C8.26798 17.4283 6.53394 15.6888 6.53394 13.552C6.53394 11.4153 8.26798 9.67578 10.3981 9.67578C12.5282 9.67578 14.2622 11.4153 14.2622 13.552C14.2622 15.6888 12.5282 17.4283 10.3981 17.4283ZM10.3981 11.2864C9.15106 11.2864 8.13953 12.3011 8.13953 13.552C8.13953 14.803 9.15106 15.8177 10.3981 15.8177C11.6451 15.8177 12.6566 14.803 12.6566 13.552C12.6566 12.3011 11.6451 11.2864 10.3981 11.2864Z" fill="#69F5DB"/>
<path d="M10.5533 35.6861C8.42319 35.6861 6.68915 33.9466 6.68915 31.8098C6.68915 29.6731 8.42319 27.9336 10.5533 27.9336C12.6834 27.9336 14.4174 29.6731 14.4174 31.8098C14.4174 33.9466 12.6834 35.6861 10.5533 35.6861ZM10.5533 29.5442C9.30627 29.5442 8.29475 30.5589 8.29475 31.8098C8.29475 33.0608 9.30627 34.0755 10.5533 34.0755C11.8003 34.0755 12.8118 33.0608 12.8118 31.8098C12.8118 30.5589 11.8003 29.5442 10.5533 29.5442Z" fill="#69F5DB"/>
<path d="M46.1013 44.5008C45.7641 44.5008 45.4483 44.2861 45.3359 43.9425C45.1968 43.5184 45.4323 43.0674 45.8497 42.9278C51.464 41.1024 56.0239 36.9363 58.368 31.5031C58.5447 31.095 59.0156 30.9071 59.4224 31.0843C59.8291 31.2615 60.0165 31.7339 59.8398 32.1419C57.3191 37.9993 52.4006 42.4929 46.3475 44.4579C46.2672 44.4847 46.1815 44.4955 46.1013 44.4955V44.5008Z" fill="#69F5DB"/>
<path d="M33.599 44.4047C33.5134 44.4047 33.4277 44.3886 33.3421 44.3618C27.4389 42.3431 22.6328 37.887 20.1601 32.1478C19.9835 31.7398 20.1708 31.2673 20.5776 31.0902C20.9843 30.913 21.4553 31.1009 21.6319 31.5089C23.9279 36.8347 28.3862 40.9687 33.8613 42.837C34.2787 42.982 34.5035 43.4383 34.3643 43.8571C34.2519 44.19 33.9362 44.4047 33.6044 44.4047H33.599Z" fill="#69F5DB"/>
<path d="M18.9988 23.5259C18.5546 23.5259 18.196 23.1661 18.196 22.7205C18.196 19.4295 18.8596 16.2351 20.1869 13.2232C20.3635 12.8152 20.8399 12.6326 21.2466 12.8098C21.6534 12.987 21.8353 13.4648 21.6587 13.8728C20.4224 16.6753 19.8016 19.6496 19.8069 22.7152C19.8069 23.1608 19.4484 23.5205 19.0041 23.5205L18.9988 23.5259Z" fill="#69F5DB"/>
<path d="M56.4307 9.87853C56.1845 9.87853 55.9436 9.76579 55.7884 9.55641C52.0741 4.6064 46.1709 1.63211 39.9947 1.61063C33.8238 1.63747 27.9206 4.6064 24.2063 9.55641C23.9387 9.91074 23.4356 9.98054 23.0824 9.71747C22.7291 9.4544 22.6596 8.94437 22.9218 8.59003C26.9411 3.23737 33.3207 0.0268438 39.9947 0C46.674 0.0268438 53.0589 3.23737 57.0675 8.59003C57.3351 8.94437 57.2602 9.44903 56.907 9.71747C56.7625 9.82484 56.5912 9.87853 56.4253 9.87853H56.4307Z" fill="#69F5DB"/>
<path d="M61.0012 23.5252C60.557 23.5252 60.1984 23.1655 60.1984 22.7199C60.1984 19.6543 59.5776 16.68 58.3466 13.8775C58.17 13.4695 58.3466 12.997 58.7587 12.8145C59.1655 12.6373 59.6365 12.8145 59.8184 13.2279C61.1457 16.2398 61.8147 19.4342 61.8094 22.7252C61.8094 23.1709 61.4508 23.5306 61.0066 23.5306L61.0012 23.5252Z" fill="#69F5DB"/>
</g>
<defs>
<clipPath id="clip0_651_7385">
<rect width="78" height="80" fill="white" transform="translate(1)"/>
</clipPath>
</defs>
</svg>
