<svg width="30" height="30" viewBox="0 0 30 30" fill="none" xmlns="http://www.w3.org/2000/svg">
<path fill-rule="evenodd" clip-rule="evenodd" d="M14.3235 29.9946H15.6693C15.9786 29.9688 16.288 29.943 16.6025 29.9069C18.9846 29.6543 21.1914 28.8861 23.1868 27.561C26.5331 25.3388 28.6832 22.2658 29.6164 18.3525C30.0392 16.5582 30.1062 14.7382 29.8484 12.913C29.0028 6.93208 24.713 2.07519 18.8815 0.512945C16.9273 -0.0129604 14.9423 -0.136703 12.9366 0.15203C9.38403 0.657311 6.38836 2.23503 3.9547 4.86455C2.03664 6.93724 0.814657 9.376 0.273271 12.1499C0.14437 12.8202 0.0567167 13.4956 0.0257803 14.1813C0.0213686 14.2254 0.0131819 14.2658 0.00445037 14.3088C0.00297725 14.3161 0.00148863 14.3234 0 14.3309V15.6765C0.0161485 15.8353 0.0308921 15.9955 0.0456975 16.1564C0.0592554 16.3037 0.0728651 16.4516 0.087653 16.5995C0.309364 18.7237 0.953871 20.7191 2.04696 22.5597C3.86704 25.6378 6.46054 27.8085 9.80682 29.0717C11.2041 29.5976 12.653 29.8915 14.1431 29.9688C14.1599 29.9702 14.1768 29.9705 14.1935 29.9707C14.2383 29.9714 14.2823 29.9721 14.3235 29.9946ZM11.0701 16.4243C9.61605 15.9861 8.84264 15.0271 8.73436 13.4803C9.16747 13.7071 9.58511 13.836 10.0698 13.8515C9.32215 13.2947 8.88389 12.5883 8.79108 11.686C8.72405 11.0518 8.87358 10.397 9.17778 9.92268C10.7659 11.7891 12.7767 12.8203 15.2362 13.0008C15.2543 12.8991 15.2367 12.8076 15.2192 12.7173C15.2119 12.6795 15.2046 12.6418 15.2001 12.6038C15.0351 11.0003 16.2519 9.52052 17.8554 9.38646C18.7681 9.30912 19.5569 9.58755 20.2118 10.2217C20.2943 10.3042 20.3716 10.2888 20.4592 10.2681C21.0058 10.1392 21.5266 9.94331 22.0215 9.67004C22.0576 9.64942 22.0989 9.62879 22.1659 9.59786C21.9339 10.2784 21.5266 10.7837 20.9181 11.1962C21.0592 11.2005 21.172 11.1764 21.2798 11.1533C21.3021 11.1486 21.3241 11.1439 21.3461 11.1395L21.3462 11.1395C21.4802 11.1085 21.6142 11.0776 21.7483 11.0415C21.8772 11.0054 22.0112 10.9642 22.1401 10.9178C22.2426 10.8836 22.3487 10.8424 22.473 10.794C22.4987 10.784 22.5252 10.7737 22.5526 10.7631C22.2793 11.1704 21.9906 11.5056 21.6606 11.8098C21.5111 11.949 21.3512 12.0779 21.1914 12.2016C21.1244 12.2532 21.0934 12.3099 21.0934 12.4027C21.1295 14.9549 20.2221 17.1255 18.3865 18.894C17.1903 20.0438 15.7363 20.7141 14.0915 20.9615C12.5189 21.1987 10.9927 21.044 9.51808 20.4408C9.06951 20.2603 8.64155 20.0386 8.23938 19.7654C9.81714 19.8891 11.2402 19.5076 12.5395 18.5228C11.7816 18.4815 11.1474 18.2289 10.6163 17.7494C10.2348 17.4039 9.9615 16.9863 9.79136 16.4707C10.2245 16.5429 10.6421 16.5429 11.0701 16.4243Z" fill="#69F5DB"/>
</svg>
